  0
SECTION
  2
HEADER
  9
$ACADVER
  1
AC1014
  9
$HANDSEED
  5
FFFF
  9
$MEASUREMENT
 70
     1
  0
ENDSEC
  0
SECTION
  2
TABLES
  0
TABLE
  2
VPORT
  5
8
330
0
100
AcDbSymbolTable
 70
     4
  0
VPORT
  5
2E
330
8
100
AcDbSymbolTableRecord
100
AcDbViewportTableRecord
  2
*ACTIVE
 70
     0
 10
0.0
 20
0.0
 11
1.0
 21
1.0
 12
210.0
 22
148.5
 13
0.0
 23
0.0
 14
10.0
 24
10.0
 15
10.0
 25
10.0
 16
0.0
 26
0.0
 36
1.0
 17
0.0
 27
0.0
 37
0.0
 40
341.0
 41
1.24
 42
50.0
 43
0.0
 44
0.0
 50
0.0
 51
0.0
 71
     0
 72
   100
 73
     1
 74
     3
 75
     0
 76
     0
 77
     0
 78
     0
  0
ENDTAB
  0
TABLE
  2
LTYPE
  5
5
330
0
100
AcDbSymbolTable
 70
     1
  0
LTYPE
  5
14
330
5
100
AcDbSymbolTableRecord
100
AcDbLinetypeTableRecord
  2
BYBLOCK
 70
     0
  3

 72
    65
 73
     0
 40
0.0
  0
LTYPE
  5
15
330
5
100
AcDbSymbolTableRecord
100
AcDbLinetypeTableRecord
  2
BYLAYER
 70
     0
  3

 72
    65
 73
     0
 40
0.0
  0
LTYPE
  5
16
330
5
100
AcDbSymbolTableRecord
100
AcDbLinetypeTableRecord
  2
CONTINUOUS
 70
     0
  3
Solid line
 72
    65
 73
     0
 40
0.0
  0
ENDTAB
  0
TABLE
  2
LAYER
  5
2
100
AcDbSymbolTable
 70
4
  0
LAYER
  5
50
100
AcDbSymbolTableRecord
100
AcDbLayerTableRecord
  2
0
 70
0
  6
CONTINUOUS
  0
LAYER
  5
51
100
AcDbSymbolTableRecord
100
AcDbLayerTableRecord
  2
Base
 70
0
  6
CONTINUOUS
  0
LAYER
  5
52
100
AcDbSymbolTableRecord
100
AcDbLayerTableRecord
  2
Boxes
 70
0
  6
CONTINUOUS
  0
LAYER
  5
53
100
AcDbSymbolTableRecord
100
AcDbLayerTableRecord
  2
Arrows
 70
0
  6
CONTINUOUS
  0
ENDTAB
  0
TABLE
  2
STYLE
  5
3
330
0
100
AcDbSymbolTable
 70
     1
  0
STYLE
  5
11
330
3
100
AcDbSymbolTableRecord
100
AcDbTextStyleTableRecord
  2
STANDARD
 70
     0
 40
0.0
 41
1.0
 50
0.0
 71
     0
 42
2.5
  3
txt
  4

  0
ENDTAB
  0
TABLE
  2
VIEW
  5
6
330
0
100
AcDbSymbolTable
 70
     0
  0
ENDTAB
  0
TABLE
  2
UCS
  5
7
330
0
100
AcDbSymbolTable
 70
     0
  0
ENDTAB
  0
TABLE
  2
APPID
  5
9
330
0
100
AcDbSymbolTable
 70
     2
  0
APPID
  5
12
330
9
100
AcDbSymbolTableRecord
100
AcDbRegAppTableRecord
  2
ACAD
 70
     0
  0
ENDTAB
  0
TABLE
  2
DIMSTYLE
  5
A
330
0
100
AcDbSymbolTable
 70
     1
  0
DIMSTYLE
105
27
330
A
100
AcDbSymbolTableRecord
100
AcDbDimStyleTableRecord
  2
ISO-25
 70
     0
  3

  4

  5

  6

  7

 40
1.0
 41
2.5
 42
0.625
 43
3.75
 44
1.25
 45
0.0
 46
0.0
 47
0.0
 48
0.0
140
2.5
141
2.5
142
0.0
143
0.03937007874016
144
1.0
145
0.0
146
1.0
147
0.625
 71
     0
 72
     0
 73
     0
 74
     0
 75
     0
 76
     0
 77
     1
 78
     8
170
     0
171
     3
172
     1
173
     0
174
     0
175
     0
176
     0
177
     0
178
     0
270
     2
271
     2
272
     2
273
     2
274
     3
340
11
275
     0
280
     0
281
     0
282
     0
283
     0
284
     8
285
     0
286
     0
287
     3
288
     0
  0
ENDTAB
  0
TABLE
  2
BLOCK_RECORD
  5
1
330
0
100
AcDbSymbolTable
 70
     1
  0
BLOCK_RECORD
  5
1F
330
1
100
AcDbSymbolTableRecord
100
AcDbBlockTableRecord
  2
*MODEL_SPACE
  0
BLOCK_RECORD
  5
1B
330
1
100
AcDbSymbolTableRecord
100
AcDbBlockTableRecord
  2
*PAPER_SPACE
  0
ENDTAB
  0
ENDSEC
  0
SECTION
  2
BLOCKS
  0
BLOCK
  5
20
330
1F
100
AcDbEntity
  8
0
100
AcDbBlockBegin
  2
*MODEL_SPACE
 70
     0
 10
0.0
 20
0.0
 30
0.0
  3
*MODEL_SPACE
  1

  0
ENDBLK
  5
21
330
1F
100
AcDbEntity
  8
0
100
AcDbBlockEnd
  0
BLOCK
  5
1C
330
1B
100
AcDbEntity
 67
     1
  8
0
100
AcDbBlockBegin
  2
*PAPER_SPACE
  1

  0
ENDBLK
  5
1D
330
1B
100
AcDbEntity
 67
     1
  8
0
100
AcDbBlockEnd
  0
ENDSEC
  0
SECTION
  2
ENTITIES
  0
LWPOLYLINE
  5
100
100
AcDbEntity
  8
Boxes
 62
2
100
AcDbPolyline
 90
4
 70
1
 10
449.010104
 20
371.850052
 30
0.0
 10
506.478117
 20
371.850052
 30
0.0
 10
506.478117
 20
329.559052
 30
0.0
 10
449.010104
 20
329.559052
 30
0.0
  0
LWPOLYLINE
  5
101
100
AcDbEntity
  8
Boxes
 62
2
100
AcDbPolyline
 90
4
 70
1
 10
449.009934
 20
421.697543
 30
0.0
 10
506.477947
 20
421.697543
 30
0.0
 10
506.477947
 20
379.406543
 30
0.0
 10
449.009934
 20
379.406543
 30
0.0
  0
LWPOLYLINE
  5
102
100
AcDbEntity
  8
Boxes
 62
2
100
AcDbPolyline
 90
4
 70
1
 10
449.010050
 20
471.545019
 30
0.0
 10
506.478063
 20
471.545019
 30
0.0
 10
506.478063
 20
429.254019
 30
0.0
 10
449.010050
 20
429.254019
 30
0.0
  0
LWPOLYLINE
  5
103
100
AcDbEntity
  8
Boxes
 62
2
100
AcDbPolyline
 90
4
 70
1
 10
449.009954
 20
521.392530
 30
0.0
 10
506.477967
 20
521.392530
 30
0.0
 10
506.477967
 20
479.101530
 30
0.0
 10
449.009954
 20
479.101530
 30
0.0
  0
LWPOLYLINE
  5
104
100
AcDbEntity
  8
Boxes
 62
2
100
AcDbPolyline
 90
4
 70
1
 10
447.184561
 20
585.463212
 30
0.0
 10
508.303484
 20
585.463212
 30
0.0
 10
508.303484
 20
545.005964
 30
0.0
 10
447.184561
 20
545.005964
 30
0.0
  0
LWPOLYLINE
  5
105
100
AcDbEntity
  8
Boxes
 62
1
100
AcDbPolyline
 90
4
 70
1
 10
449.297959
 20
625.007650
 30
0.0
 10
506.189335
 20
625.007650
 30
0.0
 10
506.189335
 20
604.256469
 30
0.0
 10
449.297959
 20
604.256469
 30
0.0
  0
LWPOLYLINE
  5
106
100
AcDbEntity
  8
Boxes
 62
2
100
AcDbPolyline
 90
4
 70
1
 10
127.387490
 20
371.850185
 30
0.0
 10
184.855503
 20
371.850185
 30
0.0
 10
184.855503
 20
329.559185
 30
0.0
 10
127.387490
 20
329.559185
 30
0.0
  0
LWPOLYLINE
  5
107
100
AcDbEntity
  8
Boxes
 62
2
100
AcDbPolyline
 90
4
 70
1
 10
127.387490
 20
421.697662
 30
0.0
 10
184.855503
 20
421.697662
 30
0.0
 10
184.855503
 20
379.406662
 30
0.0
 10
127.387490
 20
379.406662
 30
0.0
  0
LWPOLYLINE
  5
108
100
AcDbEntity
  8
Boxes
 62
2
100
AcDbPolyline
 90
4
 70
1
 10
127.387491
 20
471.545172
 30
0.0
 10
184.855504
 20
471.545172
 30
0.0
 10
184.855504
 20
429.254172
 30
0.0
 10
127.387491
 20
429.254172
 30
0.0
  0
LWPOLYLINE
  5
109
100
AcDbEntity
  8
Boxes
 62
2
100
AcDbPolyline
 90
4
 70
1
 10
127.387491
 20
521.392643
 30
0.0
 10
184.855504
 20
521.392643
 30
0.0
 10
184.855504
 20
479.101643
 30
0.0
 10
127.387491
 20
479.101643
 30
0.0
  0
LWPOLYLINE
  5
10a
100
AcDbEntity
  8
Boxes
 62
1
100
AcDbPolyline
 90
4
 70
1
 10
127.675808
 20
625.007781
 30
0.0
 10
184.567183
 20
625.007781
 30
0.0
 10
184.567183
 20
604.256599
 30
0.0
 10
127.675808
 20
604.256599
 30
0.0
  0
LWPOLYLINE
  5
10b
100
AcDbEntity
  8
Boxes
 62
2
100
AcDbPolyline
 90
4
 70
1
 10
191.081563
 20
371.850171
 30
0.0
 10
248.549576
 20
371.850171
 30
0.0
 10
248.549576
 20
329.559171
 30
0.0
 10
191.081563
 20
329.559171
 30
0.0
  0
LWPOLYLINE
  5
10c
100
AcDbEntity
  8
Boxes
 62
2
100
AcDbPolyline
 90
4
 70
1
 10
191.081563
 20
421.697687
 30
0.0
 10
248.549576
 20
421.697687
 30
0.0
 10
248.549576
 20
379.406687
 30
0.0
 10
191.081563
 20
379.406687
 30
0.0
  0
LWPOLYLINE
  5
10d
100
AcDbEntity
  8
Boxes
 62
2
100
AcDbPolyline
 90
4
 70
1
 10
191.081563
 20
471.545150
 30
0.0
 10
248.549576
 20
471.545150
 30
0.0
 10
248.549576
 20
429.254150
 30
0.0
 10
191.081563
 20
429.254150
 30
0.0
  0
LWPOLYLINE
  5
10e
100
AcDbEntity
  8
Boxes
 62
2
100
AcDbPolyline
 90
4
 70
1
 10
191.081566
 20
521.392663
 30
0.0
 10
248.549579
 20
521.392663
 30
0.0
 10
248.549579
 20
479.101663
 30
0.0
 10
191.081566
 20
479.101663
 30
0.0
  0
LWPOLYLINE
  5
10f
100
AcDbEntity
  8
Boxes
 62
1
100
AcDbPolyline
 90
4
 70
1
 10
191.369881
 20
625.007781
 30
0.0
 10
248.261256
 20
625.007781
 30
0.0
 10
248.261256
 20
604.256599
 30
0.0
 10
191.369881
 20
604.256599
 30
0.0
  0
LWPOLYLINE
  5
110
100
AcDbEntity
  8
Boxes
 62
2
100
AcDbPolyline
 90
4
 70
1
 10
254.775648
 20
371.850193
 30
0.0
 10
312.243661
 20
371.850193
 30
0.0
 10
312.243661
 20
329.559193
 30
0.0
 10
254.775648
 20
329.559193
 30
0.0
  0
LWPOLYLINE
  5
111
100
AcDbEntity
  8
Boxes
 62
2
100
AcDbPolyline
 90
4
 70
1
 10
254.775648
 20
421.697661
 30
0.0
 10
312.243661
 20
421.697661
 30
0.0
 10
312.243661
 20
379.406661
 30
0.0
 10
254.775648
 20
379.406661
 30
0.0
  0
LWPOLYLINE
  5
112
100
AcDbEntity
  8
Boxes
 62
2
100
AcDbPolyline
 90
4
 70
1
 10
254.775648
 20
471.545177
 30
0.0
 10
312.243661
 20
471.545177
 30
0.0
 10
312.243661
 20
429.254177
 30
0.0
 10
254.775648
 20
429.254177
 30
0.0
  0
LWPOLYLINE
  5
113
100
AcDbEntity
  8
Boxes
 62
2
100
AcDbPolyline
 90
4
 70
1
 10
254.775648
 20
521.392642
 30
0.0
 10
312.243661
 20
521.392642
 30
0.0
 10
312.243661
 20
479.101642
 30
0.0
 10
254.775648
 20
479.101642
 30
0.0
  0
LWPOLYLINE
  5
114
100
AcDbEntity
  8
Boxes
 62
1
100
AcDbPolyline
 90
4
 70
1
 10
255.063965
 20
625.007780
 30
0.0
 10
311.955341
 20
625.007780
 30
0.0
 10
311.955341
 20
604.256598
 30
0.0
 10
255.063965
 20
604.256598
 30
0.0
  0
LWPOLYLINE
  5
115
100
AcDbEntity
  8
Boxes
 62
2
100
AcDbPolyline
 90
4
 70
1
 10
319.131673
 20
371.850171
 30
0.0
 10
376.599686
 20
371.850171
 30
0.0
 10
376.599686
 20
329.559171
 30
0.0
 10
319.131673
 20
329.559171
 30
0.0
  0
LWPOLYLINE
  5
116
100
AcDbEntity
  8
Boxes
 62
2
100
AcDbPolyline
 90
4
 70
1
 10
319.131673
 20
421.697681
 30
0.0
 10
376.599686
 20
421.697681
 30
0.0
 10
376.599686
 20
379.406681
 30
0.0
 10
319.131673
 20
379.406681
 30
0.0
  0
LWPOLYLINE
  5
117
100
AcDbEntity
  8
Boxes
 62
2
100
AcDbPolyline
 90
4
 70
1
 10
319.131673
 20
471.545149
 30
0.0
 10
376.599686
 20
471.545149
 30
0.0
 10
376.599686
 20
429.254149
 30
0.0
 10
319.131673
 20
429.254149
 30
0.0
  0
LWPOLYLINE
  5
118
100
AcDbEntity
  8
Boxes
 62
2
100
AcDbPolyline
 90
4
 70
1
 10
319.131673
 20
521.392668
 30
0.0
 10
376.599686
 20
521.392668
 30
0.0
 10
376.599686
 20
479.101668
 30
0.0
 10
319.131673
 20
479.101668
 30
0.0
  0
LWPOLYLINE
  5
119
100
AcDbEntity
  8
Boxes
 62
1
100
AcDbPolyline
 90
4
 70
1
 10
319.419990
 20
625.007781
 30
0.0
 10
376.311366
 20
625.007781
 30
0.0
 10
376.311366
 20
604.256599
 30
0.0
 10
319.419990
 20
604.256599
 30
0.0
  0
LWPOLYLINE
  5
11a
100
AcDbEntity
  8
Boxes
 62
2
100
AcDbPolyline
 90
4
 70
1
 10
383.487694
 20
371.850182
 30
0.0
 10
440.955707
 20
371.850182
 30
0.0
 10
440.955707
 20
329.559182
 30
0.0
 10
383.487694
 20
329.559182
 30
0.0
  0
LWPOLYLINE
  5
11b
100
AcDbEntity
  8
Boxes
 62
2
100
AcDbPolyline
 90
4
 70
1
 10
383.487691
 20
421.697661
 30
0.0
 10
440.955704
 20
421.697661
 30
0.0
 10
440.955704
 20
379.406661
 30
0.0
 10
383.487691
 20
379.406661
 30
0.0
  0
LWPOLYLINE
  5
11c
100
AcDbEntity
  8
Boxes
 62
2
100
AcDbPolyline
 90
4
 70
1
 10
383.487694
 20
471.545172
 30
0.0
 10
440.955707
 20
471.545172
 30
0.0
 10
440.955707
 20
429.254172
 30
0.0
 10
383.487694
 20
429.254172
 30
0.0
  0
LWPOLYLINE
  5
11d
100
AcDbEntity
  8
Boxes
 62
2
100
AcDbPolyline
 90
4
 70
1
 10
383.487691
 20
521.392643
 30
0.0
 10
440.955704
 20
521.392643
 30
0.0
 10
440.955704
 20
479.101643
 30
0.0
 10
383.487691
 20
479.101643
 30
0.0
  0
LWPOLYLINE
  5
11e
100
AcDbEntity
  8
Boxes
 62
1
100
AcDbPolyline
 90
4
 70
1
 10
383.776009
 20
625.007780
 30
0.0
 10
440.667384
 20
625.007780
 30
0.0
 10
440.667384
 20
604.256599
 30
0.0
 10
383.776009
 20
604.256599
 30
0.0
  0
LWPOLYLINE
  5
11f
100
AcDbEntity
  8
Boxes
 62
2
100
AcDbPolyline
 90
4
 70
1
 10
-128.712673
 20
371.850171
 30
0.0
 10
-71.244660
 20
371.850171
 30
0.0
 10
-71.244660
 20
329.559171
 30
0.0
 10
-128.712673
 20
329.559171
 30
0.0
  0
LWPOLYLINE
  5
120
100
AcDbEntity
  8
Boxes
 62
2
100
AcDbPolyline
 90
4
 70
1
 10
-128.712673
 20
421.697662
 30
0.0
 10
-71.244660
 20
421.697662
 30
0.0
 10
-71.244660
 20
379.406662
 30
0.0
 10
-128.712673
 20
379.406662
 30
0.0
  0
LWPOLYLINE
  5
121
100
AcDbEntity
  8
Boxes
 62
2
100
AcDbPolyline
 90
4
 70
1
 10
-128.712676
 20
471.545172
 30
0.0
 10
-71.244663
 20
471.545172
 30
0.0
 10
-71.244663
 20
429.254172
 30
0.0
 10
-128.712676
 20
429.254172
 30
0.0
  0
LWPOLYLINE
  5
122
100
AcDbEntity
  8
Boxes
 62
2
100
AcDbPolyline
 90
4
 70
1
 10
-128.712676
 20
521.392643
 30
0.0
 10
-71.244663
 20
521.392643
 30
0.0
 10
-71.244663
 20
479.101643
 30
0.0
 10
-128.712676
 20
479.101643
 30
0.0
  0
LWPOLYLINE
  5
123
100
AcDbEntity
  8
Boxes
 62
1
100
AcDbPolyline
 90
4
 70
1
 10
-128.424359
 20
625.007781
 30
0.0
 10
-71.532983
 20
625.007781
 30
0.0
 10
-71.532983
 20
604.256599
 30
0.0
 10
-128.424359
 20
604.256599
 30
0.0
  0
LWPOLYLINE
  5
124
100
AcDbEntity
  8
Boxes
 62
2
100
AcDbPolyline
 90
4
 70
1
 10
-65.018603
 20
371.850193
 30
0.0
 10
-7.550590
 20
371.850193
 30
0.0
 10
-7.550590
 20
329.559193
 30
0.0
 10
-65.018603
 20
329.559193
 30
0.0
  0
LWPOLYLINE
  5
125
100
AcDbEntity
  8
Boxes
 62
2
100
AcDbPolyline
 90
4
 70
1
 10
-65.018603
 20
421.697661
 30
0.0
 10
-7.550590
 20
421.697661
 30
0.0
 10
-7.550590
 20
379.406661
 30
0.0
 10
-65.018603
 20
379.406661
 30
0.0
  0
LWPOLYLINE
  5
126
100
AcDbEntity
  8
Boxes
 62
2
100
AcDbPolyline
 90
4
 70
1
 10
-65.018603
 20
471.545177
 30
0.0
 10
-7.550590
 20
471.545177
 30
0.0
 10
-7.550590
 20
429.254177
 30
0.0
 10
-65.018603
 20
429.254177
 30
0.0
  0
LWPOLYLINE
  5
127
100
AcDbEntity
  8
Boxes
 62
2
100
AcDbPolyline
 90
4
 70
1
 10
-65.018603
 20
521.392662
 30
0.0
 10
-7.550590
 20
521.392662
 30
0.0
 10
-7.550590
 20
479.101662
 30
0.0
 10
-65.018603
 20
479.101662
 30
0.0
  0
LWPOLYLINE
  5
128
100
AcDbEntity
  8
Boxes
 62
1
100
AcDbPolyline
 90
4
 70
1
 10
-64.730285
 20
625.007780
 30
0.0
 10
-7.838910
 20
625.007780
 30
0.0
 10
-7.838910
 20
604.256598
 30
0.0
 10
-64.730285
 20
604.256598
 30
0.0
  0
LWPOLYLINE
  5
129
100
AcDbEntity
  8
Boxes
 62
2
100
AcDbPolyline
 90
4
 70
1
 10
-1.324529
 20
371.850193
 30
0.0
 10
56.143484
 20
371.850193
 30
0.0
 10
56.143484
 20
329.559193
 30
0.0
 10
-1.324529
 20
329.559193
 30
0.0
  0
LWPOLYLINE
  5
12a
100
AcDbEntity
  8
Boxes
 62
2
100
AcDbPolyline
 90
4
 70
1
 10
-1.324529
 20
421.697661
 30
0.0
 10
56.143484
 20
421.697661
 30
0.0
 10
56.143484
 20
379.406661
 30
0.0
 10
-1.324529
 20
379.406661
 30
0.0
  0
LWPOLYLINE
  5
12b
100
AcDbEntity
  8
Boxes
 62
2
100
AcDbPolyline
 90
4
 70
1
 10
-1.324529
 20
471.545177
 30
0.0
 10
56.143484
 20
471.545177
 30
0.0
 10
56.143484
 20
429.254177
 30
0.0
 10
-1.324529
 20
429.254177
 30
0.0
  0
LWPOLYLINE
  5
12c
100
AcDbEntity
  8
Boxes
 62
2
100
AcDbPolyline
 90
4
 70
1
 10
-1.324529
 20
521.392662
 30
0.0
 10
56.143484
 20
521.392662
 30
0.0
 10
56.143484
 20
479.101662
 30
0.0
 10
-1.324529
 20
479.101662
 30
0.0
  0
LWPOLYLINE
  5
12d
100
AcDbEntity
  8
Boxes
 62
1
100
AcDbPolyline
 90
4
 70
1
 10
-1.036211
 20
625.007780
 30
0.0
 10
55.855164
 20
625.007780
 30
0.0
 10
55.855164
 20
604.256598
 30
0.0
 10
-1.036211
 20
604.256598
 30
0.0
  0
LWPOLYLINE
  5
12e
100
AcDbEntity
  8
Boxes
 62
2
100
AcDbPolyline
 90
4
 70
1
 10
63.031481
 20
371.850171
 30
0.0
 10
120.499495
 20
371.850171
 30
0.0
 10
120.499495
 20
329.559171
 30
0.0
 10
63.031481
 20
329.559171
 30
0.0
  0
LWPOLYLINE
  5
12f
100
AcDbEntity
  8
Boxes
 62
2
100
AcDbPolyline
 90
4
 70
1
 10
63.031484
 20
421.697681
 30
0.0
 10
120.499497
 20
421.697681
 30
0.0
 10
120.499497
 20
379.406681
 30
0.0
 10
63.031484
 20
379.406681
 30
0.0
  0
LWPOLYLINE
  5
130
100
AcDbEntity
  8
Boxes
 62
2
100
AcDbPolyline
 90
4
 70
1
 10
63.031484
 20
471.545149
 30
0.0
 10
120.499497
 20
471.545149
 30
0.0
 10
120.499497
 20
429.254149
 30
0.0
 10
63.031484
 20
429.254149
 30
0.0
  0
LWPOLYLINE
  5
131
100
AcDbEntity
  8
Boxes
 62
2
100
AcDbPolyline
 90
4
 70
1
 10
63.031481
 20
521.392668
 30
0.0
 10
120.499495
 20
521.392668
 30
0.0
 10
120.499495
 20
479.101668
 30
0.0
 10
63.031481
 20
479.101668
 30
0.0
  0
LWPOLYLINE
  5
132
100
AcDbEntity
  8
Boxes
 62
1
100
AcDbPolyline
 90
4
 70
1
 10
63.319802
 20
625.007781
 30
0.0
 10
120.211177
 20
625.007781
 30
0.0
 10
120.211177
 20
604.256599
 30
0.0
 10
63.319802
 20
604.256599
 30
0.0
  0
LWPOLYLINE
  5
133
100
AcDbEntity
  8
Boxes
 62
2
100
AcDbPolyline
 90
4
 70
1
 10
-321.118769
 20
371.850171
 30
0.0
 10
-263.650756
 20
371.850171
 30
0.0
 10
-263.650756
 20
329.559171
 30
0.0
 10
-321.118769
 20
329.559171
 30
0.0
  0
LWPOLYLINE
  5
134
100
AcDbEntity
  8
Boxes
 62
2
100
AcDbPolyline
 90
4
 70
1
 10
-321.118781
 20
421.697687
 30
0.0
 10
-263.650767
 20
421.697687
 30
0.0
 10
-263.650767
 20
379.406687
 30
0.0
 10
-321.118781
 20
379.406687
 30
0.0
  0
LWPOLYLINE
  5
135
100
AcDbEntity
  8
Boxes
 62
2
100
AcDbPolyline
 90
4
 70
1
 10
-321.118781
 20
471.545150
 30
0.0
 10
-263.650767
 20
471.545150
 30
0.0
 10
-263.650767
 20
429.254150
 30
0.0
 10
-321.118781
 20
429.254150
 30
0.0
  0
LWPOLYLINE
  5
136
100
AcDbEntity
  8
Boxes
 62
2
100
AcDbPolyline
 90
4
 70
1
 10
-321.118792
 20
521.392663
 30
0.0
 10
-263.650779
 20
521.392663
 30
0.0
 10
-263.650779
 20
479.101663
 30
0.0
 10
-321.118792
 20
479.101663
 30
0.0
  0
LWPOLYLINE
  5
137
100
AcDbEntity
  8
Boxes
 62
1
100
AcDbPolyline
 90
4
 70
1
 10
-320.830475
 20
625.007781
 30
0.0
 10
-263.939099
 20
625.007781
 30
0.0
 10
-263.939099
 20
604.256599
 30
0.0
 10
-320.830475
 20
604.256599
 30
0.0
  0
LWPOLYLINE
  5
138
100
AcDbEntity
  8
Boxes
 62
2
100
AcDbPolyline
 90
4
 70
1
 10
-257.424697
 20
371.850193
 30
0.0
 10
-199.956684
 20
371.850193
 30
0.0
 10
-199.956684
 20
329.559193
 30
0.0
 10
-257.424697
 20
329.559193
 30
0.0
  0
LWPOLYLINE
  5
139
100
AcDbEntity
  8
Boxes
 62
2
100
AcDbPolyline
 90
4
 70
1
 10
-257.424709
 20
421.697661
 30
0.0
 10
-199.956695
 20
421.697661
 30
0.0
 10
-199.956695
 20
379.406661
 30
0.0
 10
-257.424709
 20
379.406661
 30
0.0
  0
LWPOLYLINE
  5
13a
100
AcDbEntity
  8
Boxes
 62
2
100
AcDbPolyline
 90
4
 70
1
 10
-257.424709
 20
471.545177
 30
0.0
 10
-199.956695
 20
471.545177
 30
0.0
 10
-199.956695
 20
429.254177
 30
0.0
 10
-257.424709
 20
429.254177
 30
0.0
  0
LWPOLYLINE
  5
13b
100
AcDbEntity
  8
Boxes
 62
2
100
AcDbPolyline
 90
4
 70
1
 10
-257.424709
 20
521.392642
 30
0.0
 10
-199.956695
 20
521.392642
 30
0.0
 10
-199.956695
 20
479.101642
 30
0.0
 10
-257.424709
 20
479.101642
 30
0.0
  0
LWPOLYLINE
  5
13c
100
AcDbEntity
  8
Boxes
 62
1
100
AcDbPolyline
 90
4
 70
1
 10
-257.136374
 20
625.007780
 30
0.0
 10
-200.244999
 20
625.007780
 30
0.0
 10
-200.244999
 20
604.256598
 30
0.0
 10
-257.136374
 20
604.256598
 30
0.0
  0
LWPOLYLINE
  5
13d
100
AcDbEntity
  8
Boxes
 62
2
100
AcDbPolyline
 90
4
 70
1
 10
-193.068680
 20
371.850171
 30
0.0
 10
-135.600667
 20
371.850171
 30
0.0
 10
-135.600667
 20
329.559171
 30
0.0
 10
-193.068680
 20
329.559171
 30
0.0
  0
LWPOLYLINE
  5
13e
100
AcDbEntity
  8
Boxes
 62
2
100
AcDbPolyline
 90
4
 70
1
 10
-193.068691
 20
421.697681
 30
0.0
 10
-135.600678
 20
421.697681
 30
0.0
 10
-135.600678
 20
379.406681
 30
0.0
 10
-193.068691
 20
379.406681
 30
0.0
  0
LWPOLYLINE
  5
13f
100
AcDbEntity
  8
Boxes
 62
2
100
AcDbPolyline
 90
4
 70
1
 10
-193.068686
 20
471.545149
 30
0.0
 10
-135.600673
 20
471.545149
 30
0.0
 10
-135.600673
 20
429.254149
 30
0.0
 10
-193.068686
 20
429.254149
 30
0.0
  0
LWPOLYLINE
  5
140
100
AcDbEntity
  8
Boxes
 62
2
100
AcDbPolyline
 90
4
 70
1
 10
-193.068680
 20
521.392668
 30
0.0
 10
-135.600667
 20
521.392668
 30
0.0
 10
-135.600667
 20
479.101668
 30
0.0
 10
-193.068680
 20
479.101668
 30
0.0
  0
LWPOLYLINE
  5
141
100
AcDbEntity
  8
Boxes
 62
1
100
AcDbPolyline
 90
4
 70
1
 10
-192.780374
 20
625.007781
 30
0.0
 10
-135.888998
 20
625.007781
 30
0.0
 10
-135.888998
 20
604.256599
 30
0.0
 10
-192.780374
 20
604.256599
 30
0.0
  0
LWPOLYLINE
  5
142
100
AcDbEntity
  8
Boxes
 62
2
100
AcDbPolyline
 90
4
 70
1
 10
-385.051707
 20
371.850185
 30
0.0
 10
-327.583694
 20
371.850185
 30
0.0
 10
-327.583694
 20
329.559185
 30
0.0
 10
-385.051707
 20
329.559185
 30
0.0
  0
LWPOLYLINE
  5
143
100
AcDbEntity
  8
Boxes
 62
2
100
AcDbPolyline
 90
4
 70
1
 10
-385.051699
 20
421.697662
 30
0.0
 10
-327.583686
 20
421.697662
 30
0.0
 10
-327.583686
 20
379.406662
 30
0.0
 10
-385.051699
 20
379.406662
 30
0.0
  0
LWPOLYLINE
  5
144
100
AcDbEntity
  8
Boxes
 62
2
100
AcDbPolyline
 90
4
 70
1
 10
-385.051710
 20
471.545172
 30
0.0
 10
-327.583697
 20
471.545172
 30
0.0
 10
-327.583697
 20
429.254172
 30
0.0
 10
-385.051710
 20
429.254172
 30
0.0
  0
LWPOLYLINE
  5
145
100
AcDbEntity
  8
Boxes
 62
2
100
AcDbPolyline
 90
4
 70
1
 10
-385.051704
 20
521.392643
 30
0.0
 10
-327.583691
 20
521.392643
 30
0.0
 10
-327.583691
 20
479.101643
 30
0.0
 10
-385.051704
 20
479.101643
 30
0.0
  0
LWPOLYLINE
  5
146
100
AcDbEntity
  8
Boxes
 62
1
100
AcDbPolyline
 90
4
 70
1
 10
-384.763393
 20
625.007781
 30
0.0
 10
-327.872017
 20
625.007781
 30
0.0
 10
-327.872017
 20
604.256599
 30
0.0
 10
-384.763393
 20
604.256599
 30
0.0
  0
LWPOLYLINE
  5
147
100
AcDbEntity
  8
Boxes
 62
2
100
AcDbPolyline
 90
4
 70
1
 10
-449.646563
 20
371.850171
 30
0.0
 10
-392.178550
 20
371.850171
 30
0.0
 10
-392.178550
 20
329.559171
 30
0.0
 10
-449.646563
 20
329.559171
 30
0.0
  0
LWPOLYLINE
  5
148
100
AcDbEntity
  8
Boxes
 62
2
100
AcDbPolyline
 90
4
 70
1
 10
-449.646574
 20
421.697681
 30
0.0
 10
-392.178561
 20
421.697681
 30
0.0
 10
-392.178561
 20
379.406681
 30
0.0
 10
-449.646574
 20
379.406681
 30
0.0
  0
LWPOLYLINE
  5
149
100
AcDbEntity
  8
Boxes
 62
2
100
AcDbPolyline
 90
4
 70
1
 10
-449.646569
 20
471.545149
 30
0.0
 10
-392.178555
 20
471.545149
 30
0.0
 10
-392.178555
 20
429.254149
 30
0.0
 10
-449.646569
 20
429.254149
 30
0.0
  0
LWPOLYLINE
  5
14a
100
AcDbEntity
  8
Boxes
 62
2
100
AcDbPolyline
 90
4
 70
1
 10
-449.646563
 20
521.392668
 30
0.0
 10
-392.178550
 20
521.392668
 30
0.0
 10
-392.178550
 20
479.101668
 30
0.0
 10
-449.646563
 20
479.101668
 30
0.0
  0
LWPOLYLINE
  5
14b
100
AcDbEntity
  8
Boxes
 62
1
100
AcDbPolyline
 90
4
 70
1
 10
-449.358257
 20
625.007781
 30
0.0
 10
-392.466881
 20
625.007781
 30
0.0
 10
-392.466881
 20
604.256599
 30
0.0
 10
-449.358257
 20
604.256599
 30
0.0
  0
LWPOLYLINE
  5
14c
100
AcDbEntity
  8
Boxes
 62
2
100
AcDbPolyline
 90
4
 70
1
 10
-514.002609
 20
371.850193
 30
0.0
 10
-456.534595
 20
371.850193
 30
0.0
 10
-456.534595
 20
329.559193
 30
0.0
 10
-514.002609
 20
329.559193
 30
0.0
  0
LWPOLYLINE
  5
14d
100
AcDbEntity
  8
Boxes
 62
2
100
AcDbPolyline
 90
4
 70
1
 10
-514.002620
 20
421.697661
 30
0.0
 10
-456.534607
 20
421.697661
 30
0.0
 10
-456.534607
 20
379.406661
 30
0.0
 10
-514.002620
 20
379.406661
 30
0.0
  0
LWPOLYLINE
  5
14e
100
AcDbEntity
  8
Boxes
 62
2
100
AcDbPolyline
 90
4
 70
1
 10
-514.002620
 20
471.545177
 30
0.0
 10
-456.534607
 20
471.545177
 30
0.0
 10
-456.534607
 20
429.254177
 30
0.0
 10
-514.002620
 20
429.254177
 30
0.0
  0
LWPOLYLINE
  5
14f
100
AcDbEntity
  8
Boxes
 62
2
100
AcDbPolyline
 90
4
 70
1
 10
-514.002620
 20
521.392642
 30
0.0
 10
-456.534607
 20
521.392642
 30
0.0
 10
-456.534607
 20
479.101642
 30
0.0
 10
-514.002620
 20
479.101642
 30
0.0
  0
LWPOLYLINE
  5
150
100
AcDbEntity
  8
Boxes
 62
1
100
AcDbPolyline
 90
4
 70
1
 10
-513.714285
 20
625.007780
 30
0.0
 10
-456.822910
 20
625.007780
 30
0.0
 10
-456.822910
 20
604.256598
 30
0.0
 10
-513.714285
 20
604.256598
 30
0.0
  0
LWPOLYLINE
  5
151
100
AcDbEntity
  8
Boxes
 62
2
100
AcDbPolyline
 90
4
 70
1
 10
-577.696704
 20
371.850171
 30
0.0
 10
-520.228690
 20
371.850171
 30
0.0
 10
-520.228690
 20
329.559171
 30
0.0
 10
-577.696704
 20
329.559171
 30
0.0
  0
LWPOLYLINE
  5
152
100
AcDbEntity
  8
Boxes
 62
2
100
AcDbPolyline
 90
4
 70
1
 10
-577.696715
 20
421.697687
 30
0.0
 10
-520.228702
 20
421.697687
 30
0.0
 10
-520.228702
 20
379.406687
 30
0.0
 10
-577.696715
 20
379.406687
 30
0.0
  0
LWPOLYLINE
  5
153
100
AcDbEntity
  8
Boxes
 62
2
100
AcDbPolyline
 90
4
 70
1
 10
-577.696715
 20
471.545150
 30
0.0
 10
-520.228702
 20
471.545150
 30
0.0
 10
-520.228702
 20
429.254150
 30
0.0
 10
-577.696715
 20
429.254150
 30
0.0
  0
LWPOLYLINE
  5
154
100
AcDbEntity
  8
Boxes
 62
2
100
AcDbPolyline
 90
4
 70
1
 10
-577.696726
 20
521.392663
 30
0.0
 10
-520.228713
 20
521.392663
 30
0.0
 10
-520.228713
 20
479.101663
 30
0.0
 10
-577.696726
 20
479.101663
 30
0.0
  0
LWPOLYLINE
  5
155
100
AcDbEntity
  8
Boxes
 62
1
100
AcDbPolyline
 90
4
 70
1
 10
-577.408409
 20
625.007781
 30
0.0
 10
-520.517033
 20
625.007781
 30
0.0
 10
-520.517033
 20
604.256599
 30
0.0
 10
-577.408409
 20
604.256599
 30
0.0
  0
LWPOLYLINE
  5
156
100
AcDbEntity
  8
Boxes
 62
2
100
AcDbPolyline
 90
4
 70
1
 10
-642.649374
 20
371.850185
 30
0.0
 10
-585.181361
 20
371.850185
 30
0.0
 10
-585.181361
 20
329.559185
 30
0.0
 10
-642.649374
 20
329.559185
 30
0.0
  0
LWPOLYLINE
  5
157
100
AcDbEntity
  8
Boxes
 62
2
100
AcDbPolyline
 90
4
 70
1
 10
-642.649394
 20
421.697662
 30
0.0
 10
-585.181381
 20
421.697662
 30
0.0
 10
-585.181381
 20
379.406662
 30
0.0
 10
-642.649394
 20
379.406662
 30
0.0
  0
LWPOLYLINE
  5
158
100
AcDbEntity
  8
Boxes
 62
2
100
AcDbPolyline
 90
4
 70
1
 10
-642.649377
 20
471.545172
 30
0.0
 10
-585.181364
 20
471.545172
 30
0.0
 10
-585.181364
 20
429.254172
 30
0.0
 10
-642.649377
 20
429.254172
 30
0.0
  0
LWPOLYLINE
  5
159
100
AcDbEntity
  8
Boxes
 62
2
100
AcDbPolyline
 90
4
 70
1
 10
-642.649383
 20
521.392643
 30
0.0
 10
-585.181370
 20
521.392643
 30
0.0
 10
-585.181370
 20
479.101643
 30
0.0
 10
-642.649383
 20
479.101643
 30
0.0
  0
LWPOLYLINE
  5
15a
100
AcDbEntity
  8
Boxes
 62
1
100
AcDbPolyline
 90
4
 70
1
 10
-642.361060
 20
625.007781
 30
0.0
 10
-585.469684
 20
625.007781
 30
0.0
 10
-585.469684
 20
604.256599
 30
0.0
 10
-642.361060
 20
604.256599
 30
0.0
  0
LWPOLYLINE
  5
15b
100
AcDbEntity
  8
Boxes
 62
2
100
AcDbPolyline
 90
4
 70
1
 10
-708.263995
 20
371.850171
 30
0.0
 10
-650.795981
 20
371.850171
 30
0.0
 10
-650.795981
 20
329.559171
 30
0.0
 10
-708.263995
 20
329.559171
 30
0.0
  0
LWPOLYLINE
  5
15c
100
AcDbEntity
  8
Boxes
 62
2
100
AcDbPolyline
 90
4
 70
1
 10
-708.264006
 20
421.697681
 30
0.0
 10
-650.795993
 20
421.697681
 30
0.0
 10
-650.795993
 20
379.406681
 30
0.0
 10
-708.264006
 20
379.406681
 30
0.0
  0
LWPOLYLINE
  5
15d
100
AcDbEntity
  8
Boxes
 62
2
100
AcDbPolyline
 90
4
 70
1
 10
-708.264009
 20
471.545149
 30
0.0
 10
-650.795995
 20
471.545149
 30
0.0
 10
-650.795995
 20
429.254149
 30
0.0
 10
-708.264009
 20
429.254149
 30
0.0
  0
LWPOLYLINE
  5
15e
100
AcDbEntity
  8
Boxes
 62
2
100
AcDbPolyline
 90
4
 70
1
 10
-708.263995
 20
521.392668
 30
0.0
 10
-650.795981
 20
521.392668
 30
0.0
 10
-650.795981
 20
479.101668
 30
0.0
 10
-708.263995
 20
479.101668
 30
0.0
  0
LWPOLYLINE
  5
15f
100
AcDbEntity
  8
Boxes
 62
1
100
AcDbPolyline
 90
4
 70
1
 10
-707.975688
 20
625.007781
 30
0.0
 10
-651.084313
 20
625.007781
 30
0.0
 10
-651.084313
 20
604.256599
 30
0.0
 10
-707.975688
 20
604.256599
 30
0.0
  0
LWPOLYLINE
  5
160
100
AcDbEntity
  8
Boxes
 62
2
100
AcDbPolyline
 90
4
 70
1
 10
-772.634301
 20
371.850193
 30
0.0
 10
-715.166287
 20
371.850193
 30
0.0
 10
-715.166287
 20
329.559193
 30
0.0
 10
-772.634301
 20
329.559193
 30
0.0
  0
LWPOLYLINE
  5
161
100
AcDbEntity
  8
Boxes
 62
2
100
AcDbPolyline
 90
4
 70
1
 10
-772.648570
 20
421.697661
 30
0.0
 10
-715.180557
 20
421.697661
 30
0.0
 10
-715.180557
 20
379.406661
 30
0.0
 10
-772.648570
 20
379.406661
 30
0.0
  0
LWPOLYLINE
  5
162
100
AcDbEntity
  8
Boxes
 62
2
100
AcDbPolyline
 90
4
 70
1
 10
-772.634312
 20
471.545177
 30
0.0
 10
-715.166299
 20
471.545177
 30
0.0
 10
-715.166299
 20
429.254177
 30
0.0
 10
-772.634312
 20
429.254177
 30
0.0
  0
LWPOLYLINE
  5
163
100
AcDbEntity
  8
Boxes
 62
2
100
AcDbPolyline
 90
4
 70
1
 10
-772.634312
 20
521.392642
 30
0.0
 10
-715.166299
 20
521.392642
 30
0.0
 10
-715.166299
 20
479.101642
 30
0.0
 10
-772.634312
 20
479.101642
 30
0.0
  0
LWPOLYLINE
  5
164
100
AcDbEntity
  8
Boxes
 62
1
100
AcDbPolyline
 90
4
 70
1
 10
-772.345977
 20
625.007780
 30
0.0
 10
-715.454602
 20
625.007780
 30
0.0
 10
-715.454602
 20
604.256598
 30
0.0
 10
-772.345977
 20
604.256598
 30
0.0
  0
LWPOLYLINE
  5
165
100
AcDbEntity
  8
Boxes
 62
2
100
AcDbPolyline
 90
4
 70
1
 10
-836.342700
 20
371.850171
 30
0.0
 10
-778.874686
 20
371.850171
 30
0.0
 10
-778.874686
 20
329.559171
 30
0.0
 10
-836.342700
 20
329.559171
 30
0.0
  0
LWPOLYLINE
  5
166
100
AcDbEntity
  8
Boxes
 62
2
100
AcDbPolyline
 90
4
 70
1
 10
-836.342711
 20
421.697687
 30
0.0
 10
-778.874698
 20
421.697687
 30
0.0
 10
-778.874698
 20
379.406687
 30
0.0
 10
-836.342711
 20
379.406687
 30
0.0
  0
LWPOLYLINE
  5
167
100
AcDbEntity
  8
Boxes
 62
2
100
AcDbPolyline
 90
4
 70
1
 10
-836.342711
 20
471.545150
 30
0.0
 10
-778.874698
 20
471.545150
 30
0.0
 10
-778.874698
 20
429.254150
 30
0.0
 10
-836.342711
 20
429.254150
 30
0.0
  0
LWPOLYLINE
  5
168
100
AcDbEntity
  8
Boxes
 62
2
100
AcDbPolyline
 90
4
 70
1
 10
-836.342722
 20
521.392663
 30
0.0
 10
-778.874709
 20
521.392663
 30
0.0
 10
-778.874709
 20
479.101663
 30
0.0
 10
-836.342722
 20
479.101663
 30
0.0
  0
LWPOLYLINE
  5
169
100
AcDbEntity
  8
Boxes
 62
1
100
AcDbPolyline
 90
4
 70
1
 10
-836.054405
 20
625.007781
 30
0.0
 10
-779.163029
 20
625.007781
 30
0.0
 10
-779.163029
 20
604.256599
 30
0.0
 10
-836.054405
 20
604.256599
 30
0.0
  0
LWPOLYLINE
  5
16a
100
AcDbEntity
  8
Boxes
 62
2
100
AcDbPolyline
 90
4
 70
1
 10
-900.036876
 20
371.850185
 30
0.0
 10
-842.568863
 20
371.850185
 30
0.0
 10
-842.568863
 20
329.559185
 30
0.0
 10
-900.036876
 20
329.559185
 30
0.0
  0
LWPOLYLINE
  5
16b
100
AcDbEntity
  8
Boxes
 62
2
100
AcDbPolyline
 90
4
 70
1
 10
-900.036867
 20
421.697662
 30
0.0
 10
-842.568854
 20
421.697662
 30
0.0
 10
-842.568854
 20
379.406662
 30
0.0
 10
-900.036867
 20
379.406662
 30
0.0
  0
LWPOLYLINE
  5
16c
100
AcDbEntity
  8
Boxes
 62
2
100
AcDbPolyline
 90
4
 70
1
 10
-900.036862
 20
471.545172
 30
0.0
 10
-842.568848
 20
471.545172
 30
0.0
 10
-842.568848
 20
429.254172
 30
0.0
 10
-900.036862
 20
429.254172
 30
0.0
  0
LWPOLYLINE
  5
16d
100
AcDbEntity
  8
Boxes
 62
2
100
AcDbPolyline
 90
4
 70
1
 10
-900.036856
 20
521.392643
 30
0.0
 10
-842.568843
 20
521.392643
 30
0.0
 10
-842.568843
 20
479.101643
 30
0.0
 10
-900.036856
 20
479.101643
 30
0.0
  0
LWPOLYLINE
  5
16e
100
AcDbEntity
  8
Boxes
 62
1
100
AcDbPolyline
 90
4
 70
1
 10
-899.748561
 20
625.007781
 30
0.0
 10
-842.857186
 20
625.007781
 30
0.0
 10
-842.857186
 20
604.256599
 30
0.0
 10
-899.748561
 20
604.256599
 30
0.0
  0
LWPOLYLINE
  5
16f
100
AcDbEntity
  8
Boxes
 62
2
100
AcDbPolyline
 90
4
 70
1
 10
-964.392931
 20
371.850171
 30
0.0
 10
-906.924918
 20
371.850171
 30
0.0
 10
-906.924918
 20
329.559171
 30
0.0
 10
-964.392931
 20
329.559171
 30
0.0
  0
LWPOLYLINE
  5
170
100
AcDbEntity
  8
Boxes
 62
2
100
AcDbPolyline
 90
4
 70
1
 10
-964.392943
 20
421.697681
 30
0.0
 10
-906.924929
 20
421.697681
 30
0.0
 10
-906.924929
 20
379.406681
 30
0.0
 10
-964.392943
 20
379.406681
 30
0.0
  0
LWPOLYLINE
  5
171
100
AcDbEntity
  8
Boxes
 62
2
100
AcDbPolyline
 90
4
 70
1
 10
-964.392945
 20
471.545149
 30
0.0
 10
-906.924932
 20
471.545149
 30
0.0
 10
-906.924932
 20
429.254149
 30
0.0
 10
-964.392945
 20
429.254149
 30
0.0
  0
LWPOLYLINE
  5
172
100
AcDbEntity
  8
Boxes
 62
2
100
AcDbPolyline
 90
4
 70
1
 10
-964.392931
 20
521.392668
 30
0.0
 10
-906.924918
 20
521.392668
 30
0.0
 10
-906.924918
 20
479.101668
 30
0.0
 10
-964.392931
 20
479.101668
 30
0.0
  0
LWPOLYLINE
  5
173
100
AcDbEntity
  8
Boxes
 62
1
100
AcDbPolyline
 90
4
 70
1
 10
-964.104625
 20
625.007781
 30
0.0
 10
-907.213250
 20
625.007781
 30
0.0
 10
-907.213250
 20
604.256599
 30
0.0
 10
-964.104625
 20
604.256599
 30
0.0
  0
LWPOLYLINE
  5
174
100
AcDbEntity
  8
Boxes
 62
2
100
AcDbPolyline
 90
4
 70
1
 10
-1028.749035
 20
371.850193
 30
0.0
 10
-971.281021
 20
371.850193
 30
0.0
 10
-971.281021
 20
329.559193
 30
0.0
 10
-1028.749035
 20
329.559193
 30
0.0
  0
LWPOLYLINE
  5
175
100
AcDbEntity
  8
Boxes
 62
2
100
AcDbPolyline
 90
4
 70
1
 10
-1028.749018
 20
421.697661
 30
0.0
 10
-971.281004
 20
421.697661
 30
0.0
 10
-971.281004
 20
379.406661
 30
0.0
 10
-1028.749018
 20
379.406661
 30
0.0
  0
LWPOLYLINE
  5
176
100
AcDbEntity
  8
Boxes
 62
2
100
AcDbPolyline
 90
4
 70
1
 10
-1028.749018
 20
471.545177
 30
0.0
 10
-971.281004
 20
471.545177
 30
0.0
 10
-971.281004
 20
429.254177
 30
0.0
 10
-1028.749018
 20
429.254177
 30
0.0
  0
LWPOLYLINE
  5
177
100
AcDbEntity
  8
Boxes
 62
1
100
AcDbPolyline
 90
4
 70
1
 10
-1028.460711
 20
625.007780
 30
0.0
 10
-971.569336
 20
625.007780
 30
0.0
 10
-971.569336
 20
604.256598
 30
0.0
 10
-1028.460711
 20
604.256598
 30
0.0
  0
LWPOLYLINE
  5
178
100
AcDbEntity
  8
Boxes
 62
2
100
AcDbPolyline
 90
4
 70
1
 10
-1092.443186
 20
371.850171
 30
0.0
 10
-1034.975173
 20
371.850171
 30
0.0
 10
-1034.975173
 20
329.559171
 30
0.0
 10
-1092.443186
 20
329.559171
 30
0.0
  0
LWPOLYLINE
  5
179
100
AcDbEntity
  8
Boxes
 62
2
100
AcDbPolyline
 90
4
 70
1
 10
-1092.443169
 20
421.697687
 30
0.0
 10
-1034.975156
 20
421.697687
 30
0.0
 10
-1034.975156
 20
379.406687
 30
0.0
 10
-1092.443169
 20
379.406687
 30
0.0
  0
LWPOLYLINE
  5
17a
100
AcDbEntity
  8
Boxes
 62
1
100
AcDbPolyline
 90
4
 70
1
 10
-1092.154863
 20
625.007781
 30
0.0
 10
-1035.263488
 20
625.007781
 30
0.0
 10
-1035.263488
 20
604.256599
 30
0.0
 10
-1092.154863
 20
604.256599
 30
0.0
  0
LWPOLYLINE
  5
17b
100
AcDbEntity
  8
Boxes
 62
2
100
AcDbPolyline
 90
4
 70
1
 10
-1156.137248
 20
371.850185
 30
0.0
 10
-1098.669235
 20
371.850185
 30
0.0
 10
-1098.669235
 20
329.559185
 30
0.0
 10
-1156.137248
 20
329.559185
 30
0.0
  0
LWPOLYLINE
  5
17c
100
AcDbEntity
  8
Boxes
 62
1
100
AcDbPolyline
 90
4
 70
1
 10
-1155.848934
 20
625.007781
 30
0.0
 10
-1098.957558
 20
625.007781
 30
0.0
 10
-1098.957558
 20
604.256599
 30
0.0
 10
-1155.848934
 20
604.256599
 30
0.0
  0
LWPOLYLINE
  5
17d
100
AcDbEntity
  8
Arrows
 62
7
100
AcDbPolyline
 90
2
 70
0
 10
437.524498
 20
329.791408
 30
0.0
 10
465.022800
 20
357.289710
 30
0.0
  0
LWPOLYLINE
  5
17e
100
AcDbEntity
  8
Arrows
 62
7
100
AcDbPolyline
 90
2
 70
0
 10
371.132986
 20
329.791408
 30
0.0
 10
398.631288
 20
357.289710
 30
0.0
  0
LWPOLYLINE
  5
17f
100
AcDbEntity
  8
Arrows
 62
7
100
AcDbPolyline
 90
2
 70
0
 10
304.741531
 20
329.791408
 30
0.0
 10
332.239833
 20
357.289710
 30
0.0
  0
LWPOLYLINE
  5
180
100
AcDbEntity
  8
Arrows
 62
7
100
AcDbPolyline
 90
2
 70
0
 10
238.350073
 20
329.791408
 30
0.0
 10
265.848375
 20
357.289710
 30
0.0
  0
LWPOLYLINE
  5
181
100
AcDbEntity
  8
Arrows
 62
7
100
AcDbPolyline
 90
2
 70
0
 10
171.958620
 20
329.791408
 30
0.0
 10
199.456923
 20
357.289710
 30
0.0
  0
LWPOLYLINE
  5
182
100
AcDbEntity
  8
Arrows
 62
7
100
AcDbPolyline
 90
2
 70
0
 10
437.524498
 20
387.801553
 30
0.0
 10
465.022800
 20
415.299855
 30
0.0
  0
LWPOLYLINE
  5
183
100
AcDbEntity
  8
Arrows
 62
7
100
AcDbPolyline
 90
2
 70
0
 10
371.132986
 20
387.801581
 30
0.0
 10
398.631317
 20
415.299883
 30
0.0
  0
LWPOLYLINE
  5
184
100
AcDbEntity
  8
Arrows
 62
7
100
AcDbPolyline
 90
2
 70
0
 10
304.741531
 20
387.801553
 30
0.0
 10
332.239833
 20
415.299855
 30
0.0
  0
LWPOLYLINE
  5
185
100
AcDbEntity
  8
Arrows
 62
7
100
AcDbPolyline
 90
2
 70
0
 10
238.350073
 20
387.801553
 30
0.0
 10
265.848375
 20
415.299855
 30
0.0
  0
LWPOLYLINE
  5
186
100
AcDbEntity
  8
Arrows
 62
7
100
AcDbPolyline
 90
2
 70
0
 10
171.958615
 20
387.801581
 30
0.0
 10
199.456923
 20
415.299883
 30
0.0
  0
LWPOLYLINE
  5
187
100
AcDbEntity
  8
Arrows
 62
7
100
AcDbPolyline
 90
2
 70
0
 10
437.524498
 20
450.520328
 30
0.0
 10
465.022800
 20
478.018630
 30
0.0
  0
LWPOLYLINE
  5
188
100
AcDbEntity
  8
Arrows
 62
7
100
AcDbPolyline
 90
2
 70
0
 10
371.132986
 20
450.520328
 30
0.0
 10
398.631317
 20
478.018630
 30
0.0
  0
LWPOLYLINE
  5
189
100
AcDbEntity
  8
Arrows
 62
7
100
AcDbPolyline
 90
2
 70
0
 10
304.741531
 20
450.520328
 30
0.0
 10
332.239833
 20
478.018630
 30
0.0
  0
LWPOLYLINE
  5
18a
100
AcDbEntity
  8
Arrows
 62
7
100
AcDbPolyline
 90
2
 70
0
 10
238.350070
 20
450.520328
 30
0.0
 10
265.848378
 20
478.018630
 30
0.0
  0
LWPOLYLINE
  5
18b
100
AcDbEntity
  8
Arrows
 62
7
100
AcDbPolyline
 90
2
 70
0
 10
171.958615
 20
450.520328
 30
0.0
 10
199.456923
 20
478.018630
 30
0.0
  0
ENDSEC
  0
SECTION
  2
OBJECTS
  0
DICTIONARY
  5
C
330
0
100
AcDbDictionary
  3
ACAD_GROUP
350
D
  3
ACAD_MLINESTYLE
350
17
  0
DICTIONARY
  5
D
330
C
100
AcDbDictionary
  0
DICTIONARY
  5
1A
330
C
100
AcDbDictionary
  0
DICTIONARY
  5
17
330
C
100
AcDbDictionary
  3
STANDARD
350
18
  0
DICTIONARY
  5
19
330
C
100
AcDbDictionary
  0
ENDSEC
  0
EOF
