<?xml version="1.0" encoding="UTF-8" standalone="no"?>
<!-- Created with Inkscape (http://www.inkscape.org/) -->

<svg
   xmlns:dc="http://purl.org/dc/elements/1.1/"
   xmlns:cc="http://creativecommons.org/ns#"
   xmlns:rdf="http://www.w3.org/1999/02/22-rdf-syntax-ns#"
   xmlns:svg="http://www.w3.org/2000/svg"
   xmlns="http://www.w3.org/2000/svg"
   version="1.0"
   width="1084"
   height="920"
   id="svg2">
  <metadata
     id="metadata7">
    <rdf:RDF>
      <cc:Work
         rdf:about="">
        <dc:format>image/svg+xml</dc:format>
        <dc:type
           rdf:resource="http://purl.org/dc/dcmitype/StillImage" />
        <dc:creator>
          <cc:Agent>
            <dc:title>STyx</dc:title>
          </cc:Agent>
        </dc:creator>
        <dc:date>2007-02-04</dc:date>
        <cc:license
           rdf:resource="http://creativecommons.org/licenses/GPL/2.0/" />
        <dc:subject>
          <rdf:Bag>
            <rdf:li>Canada</rdf:li>
          </rdf:Bag>
        </dc:subject>
        <dc:source>Carte_administrative_du_Canada.png</dc:source>
        <dc:title></dc:title>
      </cc:Work>
      <cc:License
         rdf:about="http://creativecommons.org/licenses/GPL/2.0/">
        <cc:permits
           rdf:resource="http://web.resource.org/cc/Reproduction" />
        <cc:permits
           rdf:resource="http://web.resource.org/cc/Distribution" />
        <cc:requires
           rdf:resource="http://web.resource.org/cc/Notice" />
        <cc:permits
           rdf:resource="http://web.resource.org/cc/DerivativeWorks" />
        <cc:requires
           rdf:resource="http://web.resource.org/cc/ShareAlike" />
        <cc:requires
           rdf:resource="http://web.resource.org/cc/SourceCode" />
      </cc:License>
    </rdf:RDF>
  </metadata>
  <defs
     id="defs5" />
  <rect
     width="1084.0931"
     height="920.09314"
     x="-0.042761859"
     y="-0.042761862"
     id="ocean"
     style="fill:#c6ecff;fill-opacity:1;stroke:none" />
  <g
     transform="translate(-80,-166)"
     id="Land"
     style="fill:#fefee9;fill-opacity:1">
    <g
       id="Europe"
       style="fill:#e0e0e0;fill-opacity:1">
      <path
         d="m 686.5,163 3,-1 3,1.5 0,2.5 -6.5,2.5 -2.5,0.5 0,2 2,0.5 1,5.5 -2,0.5 -2.5,-5 -5,-6 -5,-1.5 0,2.5 -5.5,8.5 -2,4.5 6,2.5 4.5,2.5 -1,1 -3.5,0 -4,-3 -3.5,0 -0.5,6 4,5 -0.5,2.5 3.5,4.5 -3.5,1 -4.5,5 0.5,7.5 -3.5,13 5,6.5 3,-4.5 1.5,1.5 2.5,-2.5 4.5,2.5 -2.5,4.5 3.5,3.5 -0.5,6 0,5 -6,2 -5,5 0,5 -9.5,12.5 -1,3.5 3,4.5 3.5,1 1,2 3,-1 1.5,2.5 2.5,-0.5 1.5,-2.5 2,1.5 -1.5,2.5 4,-2.5 1,1.5 -1.5,2 3.5,0.5 3.5,-0.5 0,-1 -2,-2 4,0 5,-5 2.5,0 1.5,3 -5,4.5 -5.5,2 -0.5,1 0,5 -5.5,0.5 -4,3.5 0,2 5.5,4 3.5,-7 0,3.5 0.5,1.5 6,1 2.5,-1 3,1 -0.5,1.5 -2.5,0 -4,6 4,0.5 5,2.5 6.5,0 4,0 -5,-4 -1,-1.5 2,-1 1,2 3,-5 2,0 -0.5,4 2.5,2.5 1,-1.5 0,-3.5 6,-6 -0.5,-1.5 1.5,-2 2,1.5 5,-1.5 6.5,0 4,-1.5 3.5,2 6.5,0.5 3.5,-1 2.5,6 7.5,5.5 4,0 1.5,2.5 7,1 2.5,5.5 -2,2.5 2,2.5 4,-4 3.5,2.5 4,6.5 7,2.5 1.5,5 7,-0.5 0.5,3.5 5.5,4.5 -2.5,2.5 -4,2 5.5,4.5 3,1 0,3.5 2,-1 1,3 -1.5,2 5.5,4.5 7,-3 1.5,-4 -1.5,-2 -1.5,-2 0.5,-2.5 4,-3 6,1 -2,4 4.5,-1 5,2.5 5.5,-2 -0.5,2 -1,2.5 3,0 2,-1.5 1.5,-1 -1.5,3.5 4,0.5 1,3.5 2.5,0.5 -0.5,1.5 -5.5,1.5 -4.5,-1 -2,-0.5 -5,1 -0.5,2 -7.5,4 0.5,3 5.5,-0.5 1.5,3.5 4.5,-3.5 12.5,0.5 4.5,-4.5 3.5,1 3,-3 1.5,2 -1.5,2.5 5,11.5 4.5,-1.5 1,2 -3,2 6,9 -5,2.5 -2,6 -0.5,5.5 1.5,0 1,-2.5 2,0 4,-4.5 2,-2 3.5,3.5 -4,5 -4.5,-0.5 -5.5,4.5 2.5,4 0.5,6.5 2.5,2 2.5,-6 0,-3 3.5,-3 2,0.5 5,-6 1,3 -4.5,5 -4.5,0.5 -2,2.5 0,5 -2.5,3 0.5,4 3,-0.5 -1.5,3.5 4.5,3 6,-5 2.5,5 -1.5,1.5 -1,4 4,6.5 2.5,0 1.5,-2.5 0.5,3 4,2.5 2,3.5 3,-2 3,1 4.5,1 -1.5,4 1.5,1 3,-3 5,3.5 -1.5,3 4.5,-2 -0.5,4 4,3 2.5,3.5 2.5,0 -1,-2.5 -2,-8 2,-1 1,-5 2.5,-1 -1.5,6 4,1 0,6.5 -4,3 3.5,1.5 -1,2.5 3,0 3,5.5 4,1 1.5,2 2.5,-2 1.5,3 5.5,-2.5 2,2.5 5,2.5 1.5,1.5 -0.5,3 6.5,1 2.5,-1.5 4.5,4 2.5,-2 3.5,5.5 3.5,-2.5 1,2.5 -1.5,2 5.5,0 4,-3 1.5,1 -0.5,2.5 3.5,-0.5 0,-4 1.5,2 3.5,0 2.5,3.5 3,-1.5 1,-6 4.5,0 -0.5,-6 2.5,-2 0.5,-2 1,-4 2,0 -0.5,6 2,5.5 2.5,-0.5 -1,-4 3.5,2 4.5,1 5.5,-5 2,6.5 5.5,0 1,-2 -0.5,-7.5 1.5,0 7,-3 -1,-5 -5,0.5 -1,-0.5 2.5,-3 -0.5,-4.5 -2.5,-1 -10.5,-19 -3.5,-4.5 -14,-9 -1,-2 2.5,-4.5 -1,-3 -1,-5 -2.5,-1 -5,0.5 -1.5,-2 5,-2 2.5,1 1,-1.5 -4,-7 0.5,-3 -1,-1.5 -3.5,0 -1.5,-2 -3,0 -1,3.5 -4.5,0 -1,-1.5 6,-6 -4.5,-1.5 -5,-0.5 -5,-4.5 4.5,-8 -1.5,-4.5 -4.5,-2.5 -0.5,-2 2,-1.5 6,-9.5 -3.5,-3 -4.5,-7.5 2,-5 2,2.5 1,4 5.5,-0.5 0.5,-4 0,-3 -1,-3.5 3.5,2.5 2,-1 -3.5,-10.5 1.5,-2 1.5,-4.5 -3.5,-2.5 0.5,-3 -8.5,-15 -3.5,-7.5 -0.5,-8.5 -3,-3.5 -7,0 -0.5,-0.5 4,-2 6,-0.5 6.5,-10 -1,-1.5 -3.5,-1 1.5,-3 2.5,1 3,-31.5 -1.5,-9 -3,-1.5 -0.5,-7 -3.5,-1.5 2.5,-3 -0.5,-1.5 -3.5,-2 -0.5,-12.5 -2.5,-0.5 -1.5,5 -5,7 -1.5,-0.5 -8,9.5 1.5,3 -1,5 0.5,6 1.5,3 -3.5,0 -4,3 3.5,-5 -1,-9.5 -1,-2 -4.5,12 -2.5,1.5 -5.5,-7 -4,-0.5 4.5,-7 0.5,-9 -2,-3.5 -2.5,-0.5 -1.5,1.5 -6,-0.5 6,-4 3.5,1.5 5,-4.5 4.5,0.5 9,2.5 3,-1.5 4.5,-5 -0.5,-1 -6,-3 2,-1.5 4.5,2 4,-2.5 -11.5,-5.5 -6.5,-3.5 -5,0 3.5,3.5 -4.5,0.5 -2,-1.5 0,-3 -1,-0.5 -1.5,3 -3.5,-1 -2.5,0.5 -8,3.5 -7,4.5 -3.5,-2 -1.5,-1.5 -2.5,2 -2.5,3 0.5,4.5 -2.5,0.5 0,-2.5 1.5,-1.5 -1.5,-3 2,-3.5 -2,-1.5 -3.5,4.5 -3,0.5 -1.5,2.5 -1.5,-1.5 1.5,-4.5 -2,-4 1.5,-1.5 -2.5,-2.5 2,-2.5 -3.5,-1 -1,-2.5 2,-1 2.5,2 4.5,-1 6,-4.5 0.5,-3.5 -1,-8.5 -12.5,2 0,1.5 -3,0 -0.5,-2 -4.5,-0.5 -215.5,0 z m 229.5,29 -2,-5.5 5.5,-7 0,2.5 4.5,-4 -1,8 -7,6 z m 9,-4 1.5,-6 0,-3.5 7.5,-3.5 2.5,3 -3,2.5 -2.5,0 -6,7.5 z m 2,2.5 7,0.5 12,-7 -0.5,-2.5 -3.5,1 -2,-0.5 2.5,-2 -1,-1.5 -10.5,6 -3.5,2.5 -0.5,3.5 z m 71,167 5,4.5 2,-1.5 -1,-2 -2.5,-2 -3.5,1 z m -0.5,34.5 4.5,2.5 5,0 -6,-4.5 -3.5,2 z m 59,93 0,2.5 -2,3 3,0.5 1,-2 -1,-1 1.5,-2 -2.5,-1 z M 934,464.5 l 1.5,6 1.5,-1 -0.5,-5 -2.5,0 z m -72.5,-91.5 -1.5,2.5 3,5.5 2,-2 -3.5,-6 z m -1.5,10.5 -3.5,-3 -9,-0.5 -1.5,-1 -5,0.5 -1.5,2 -4,-0.5 -1.5,2.5 1,4.5 3.5,0.5 0.5,6.5 2,0.5 5,0 1.5,-2.5 3,0.5 -1,1.5 -1.5,2 6.5,-1 5,-7.5 0.5,-5 z m -34,-19 1,-3.5 4,3 -1,3 -4,-2.5 z m 0.5,-9 0.5,-3 -4.5,3 4,0 z m 2.5,3 4.5,-2.5 1.5,4 -3,2 -3,-3.5 z m -31.5,-12 -0.5,-5.5 3.5,0 0,4 -3,1.5 z M 663,297 l 5.5,-3 1,2.5 -4,2 -2.5,-1.5 z m 10,-3.5 -2.5,1.5 0,-2.5 2.5,1 z m 285.5,-60 -1.5,-14.5 1,-3.5 3,-1.5 2.5,0 5,3 -1.5,3.5 -2.5,4 -1,5 -2,5 -1.5,1.5 -1.5,-2.5 z"
         id="Groeland"
         style="fill:#e0e0e0;fill-opacity:1;stroke:#27aaea;stroke-width:1px;stroke-opacity:1" />
      <path
         d="m 1107.5,170 -9.5,5 -0.5,3.5 -4,-2.5 -2.5,2.5 -1.5,0 -2.5,-3.5 -1.5,-0.5 -1,2 3,3.5 -0.5,1 -5.5,2.5 -3.5,1 0,3.5 4,0.5 2,4.5 -2,1 0,3.5 3,2 -1,1.5 -5.5,3 5,3 -2,1.5 -3,0.5 -1,1.5 0,4.5 3.5,1.5 1.5,2 -5.5,2 -3.5,0 1,2 5,3.5 3,0 1.5,2 -2.5,1 -0.5,2.5 4,1.5 -0.5,2.5 -3.5,-1 -3,0.5 -4,-2.5 -4,-0.5 -11,5 -2,3.5 1,2.5 3,-1 1,0.5 6,-3 0,2 -0.5,3 -2,-0.5 -5.5,2.5 1.5,2.5 1.5,1.5 2.5,0.5 0.5,-1.5 0.5,1.5 4.5,1 -5,2.5 -0.5,1 3.5,0.5 1,2 -2,2 2,0.5 4,-4 -0.5,-3.5 6,-9.5 1.5,-2.5 1,5 3,1 2.5,-4 1,1.5 -3.5,4.5 -1.5,14.5 3.5,0 3,-7.5 -0.5,-1.5 1.5,-3.5 3.5,-0.5 2.5,2 0,-5 3.5,2 0.5,2.5 4.5,-2.5 2.5,7.5 -2.5,3 4,2.5 5.5,-11 3.5,-6.5 4.5,-3 11,-12 -1,-9.5 -3.5,-3 2,-7 0,-5.5 -5,-3.5 0.5,-11.5 -2.5,-2 0,-2.5 -3,-2 -1,-5.5 -3,-1.5 -5,-4.5 -5,-2 z"
         id="Islande"
         style="fill:#e0e0e0;fill-opacity:1;stroke:#27aaea;stroke-width:1px;stroke-opacity:1" />
      <path
         d="m 1112,808.5 2.5,2.5 -0.5,3 3,0.5 0.5,-3 -2.5,-4 -3,1 z"
         id="Saint-Pierre-et-Miquelon"
         style="fill:#e0e0e0;fill-opacity:1;stroke:#27aaea;stroke-width:1px;stroke-opacity:1" />
    </g>
    <g
       id="USA+Alaska"
       style="fill:#e0e0e0;fill-opacity:1">
      <g
         id="g3225"
         style="fill:#e0e0e0;fill-opacity:1">
        <path
           d="m 129,853 -4.5,5.5 -0.5,4 0,13.5 -3.5,8 2.5,4 -4.5,1.5 3,4.5 -1.5,3.5 -3.5,0 1,4.5 -1.5,3 -4,6 0,3.5 -5.5,6.5 0,2 -9,12.5 -1,4 -2,0 -11,17.5 -3,1 -6.5,9.5 3,125.5 846,-1 0,-15.5 -4.5,-1 -3.5,-2 2,-5 1.5,-4 3,0 1.5,-3.5 3.5,-4 6.5,-7.5 9.5,-2.5 10,-7 2.5,-3 -0.5,-3 3.5,-2 3,2 1.5,0 0,-3.5 4,-2.5 2,2 2.5,-2 6.5,-4.5 -1,-3.5 -4,-4 -2.5,1 3.5,3.5 -1,2.5 -4,0.5 -10.5,-8 -3.5,-1 5,-6 -5.5,-1.5 0,-4.5 -0.5,-1 1,-9 2.5,-9.5 5,-9 3,0 3,-5 1.5,-5 -1.5,-5 2.5,-3 2,2.5 2,0 0,-4 4,-4.5 2.5,1 2,2 7,-11 4,0.5 0.5,-6 -6.5,1.5 4,-4 -3.5,-1.5 L 971,897 937,882.5 921,953 l -53,22 -6.5,24 -5,5.5 1.5,2.5 4,1.5 0.5,2 -3,0 -0.5,2 1.5,2.5 1,4 -5.5,4 -3,5.5 -4,0 -4.5,2 -10,-1.5 -11,4 -4.5,3.5 4.5,6 0,4.5 -3,7.5 -2,1.5 -2,3 -15,13.5 -4,1.5 -9.5,7.5 -3.5,3.5 -1.5,2.5 -4.5,1 -22,0 -3.5,-4 5.5,-4 -1.5,-4.5 2,-3 2,-8.5 4.5,0 0.5,-7 -1.9375,-5.4375 -0.875,0.4375 -3.6875,-6.5 -0.5,-5.5 -4,-3 -3,-4 -5.5,4 -1,4.5 -0.5,1 -3,3.5 -4,-4 0.5,-3 5,-8.5 0,-8.5 -3.5,-7.5 2.5,-3 -1.5,-2 -4.5,-3.5 -8,-2 -4,-2 -3,0 -3,-2 -4.5,0.5 -3,4 0.5,2 2,2 -4,4 -1,8.5 -1,1.5 -2,-0.5 -0.5,-4 -0.5,-1.5 -5.5,6.5 0,1.5 -2.5,4.5 0,8.5 -1.5,5 0,9 2,10 5.75,8.0313 1.75,5.9687 -0.8125,4.875 -0.53125,0.25 -5.40625,14.5313 -21.34375,-6.375 1.71875,-6.375 -1.125,-9.9688 -3.6875,-6.3437 L 676,1055 l -1,-8 2.5,-4 0,-8.5 1.5,-7 3,-2 1,-6.5 0.5,-2 -3.5,3.5 -2,5.5 -2.5,0.5 -4.5,7 -2,1.5 -1.5,-0.5 5,-9.5 9,-19 2.5,-0.5 -0.5,-3.5 2,1.5 1,4 1.5,-0.5 1.5,-3.5 7,-4.5 4.5,-1 1.5,-2.5 9.5,0.5 4,1.5 1.5,-3 11,-0.5 0,-1 4,-3.5 -4.5,-2.5 -4,0 -6.5,-2.5 -5.5,1 -3.5,-5 -0.5,-1 -6.5,3.5 -10,0 -6.5,6.5 -6.5,0.5 -4,-2 -10,-5.5 -5,0 -2,2.5 -2,-1.5 0,-3.5 4.5,-5.5 0.5,-1.5 4,-2 0,-2.5 -3,0 -6,4 -2,3.5 -12.5,10.5 -4,0 -10,5.5 -7.5,1 -0.5,-5 0,-3 -4,0.5 -9,6 -5,0 -0.5,-1.5 5.5,-4 4,-5 13.5,-14.5 7,-0.5 7,-7 0.5,-14.5 -486.5,-94.5 2.5,8.5 -2,4 6,2 0.5,13 -6.5,6 -1,5 -5,2.5 -4.5,1.5 -3.5,-1.5 2,-2.5 7.5,-0.5 0.5,-5.5 4,-2 -1,-1.5 -5,1.5 3.5,-3 0.5,-4.5 -3,-3 -12,-6.5 -4,-4.5 -2,-6 z"
           id="path1536"
           style="fill:#e0e0e0;fill-opacity:1;fill-rule:evenodd;stroke:#27aaea;stroke-width:1px;stroke-linecap:butt;stroke-linejoin:miter;stroke-opacity:1" />
        <path
           d="m 151.5,868.5 0.5,7 3,4 1.5,-3 -1,-2.5 0,-3 1,-1 -2,-2 -3,0.5 z"
           id="path1797"
           style="fill:#e0e0e0;fill-opacity:1;fill-rule:evenodd;stroke:#27aaea;stroke-width:1px;stroke-linecap:butt;stroke-linejoin:miter;stroke-opacity:1" />
        <path
           d="m 919.5,1069 5,-5.5 12.5,-7.5 6,-7.5 -1,6.5 5,-4 1.5,1 -7,5.5 -0.5,2 -8,4.5 -10,6 -3.5,-1 z"
           id="path1803"
           style="fill:#e0e0e0;fill-opacity:1;fill-rule:evenodd;stroke:#27aaea;stroke-width:1px;stroke-linecap:butt;stroke-linejoin:miter;stroke-opacity:1" />
        <path
           d="m 643.5,963.5 0,-2.5 7.5,-5.5 1,2 -8.5,6 z"
           id="path1540"
           style="fill:#e0e0e0;fill-opacity:1;fill-rule:evenodd;stroke:#27aaea;stroke-width:1px;stroke-linecap:butt;stroke-linejoin:miter;stroke-opacity:1" />
      </g>
      <g
         id="Alaska"
         style="fill:#e0e0e0;fill-opacity:1">
        <path
           d="m 138.5,686 -7.5,2.5 -7,-0.5 -0.5,-3 4.5,-6.5 3.5,0 3,-6.5 -1,-5 1.5,-3 -2,-2.5 -6.5,0 -2,3.5 -5,1.5 -1.5,-2 10,-8.5 3,-1 -1.5,-9 1,-3 -3,-4 0.5,-6.5 -3.5,-5.5 4.5,-1 1.5,-8 2,-0.5 -0.5,-18.5 -2,-3.5 0,-3 0.5,-3 1.5,-6.5 2.5,-3.5 -1,-3.5 -4.5,6.5 0.5,4 -3.5,4 -2.5,6 -2,-4.5 -2.5,-3.5 3.5,-7 -4.5,-3.5 -1,-5 -2.5,0.5 2.5,4 0,10 -7.5,-2.5 -4,-11.5 0.5,-13 -8,-19 5.5,0.5 2.5,-4 3,1 -1.5,-3 -10,-0.5 -6.5,-10 3,-3 -5.5,-3.5 0,-4.5 -6.5,-8.5 -9,-8.5 3.5,-221.5 3,-5.5 2,-1 0.5,5.5 -4.5,6.5 1,8.5 4.5,3.5 2,-2.5 -3,-5.5 -2,-5.5 1,-1.5 5,-3 0.5,-2.5 -6,-6.5 0.5,-7 7,-6.5 5,-23 0,-4.5 1.5,-1.5 2,2 3.5,0 4.5,-2 2.5,1.5 -1.5,2.5 3.5,1 10,9.5 10,1.5 3.5,-3 5.5,0.5 3.5,1 1,-2 5,1 3.5,5.5 5.5,1.5 1.5,2.5 0,2 2.5,1 1,-5 7.5,3.5 1,4.5 7.5,5.5 4,1 5,-1.5 2,2 -1,6 -3.5,0.5 -5,-1 2.5,5 2,2 2.5,-2 3,2.5 -1,4.5 8.5,11.5 -3.5,2 0.5,4 -2.5,3 3,4 -3,4.5 8.5,0.5 4.5,3 5,10 3.5,13.5 6.5,3.5 -0.5,3.5 5,4 7.5,5 2,4.5 -0.5,11.5 3.5,3 -90,319 -7.5,-1.5 z"
           id="path1805"
           style="fill:#e0e0e0;fill-opacity:1;fill-rule:evenodd;stroke:#27aaea;stroke-width:1px;stroke-linecap:butt;stroke-linejoin:miter;stroke-opacity:1" />
        <path
           d="m 99.5,614 5.5,-5.5 1,2 -3.5,6 -3,-2.5 z"
           id="path1809"
           style="fill:#e0e0e0;fill-opacity:1;fill-rule:evenodd;stroke:#27aaea;stroke-width:1px;stroke-linecap:butt;stroke-linejoin:miter;stroke-opacity:1" />
        <path
           d="m 107,610.5 -0.5,6.5 -4,2.5 -0.5,6.5 -2,9.5 3,-0.5 5,-6.5 3.5,-7.5 0,-11 -4.5,0.5 z"
           id="path1811"
           style="fill:#e0e0e0;fill-opacity:1;fill-rule:evenodd;stroke:#27aaea;stroke-width:1px;stroke-linecap:butt;stroke-linejoin:miter;stroke-opacity:1" />
        <path
           d="m 105.5,606.5 1.5,-12.5 4.5,-4.5 5,1.5 4,10.5 -2,6.5 -4,2 -3.5,-6.5 -5.5,3 z"
           id="path1813"
           style="fill:#e0e0e0;fill-opacity:1;fill-rule:evenodd;stroke:#27aaea;stroke-width:1px;stroke-linecap:butt;stroke-linejoin:miter;stroke-opacity:1" />
        <path
           d="m 124.5,598 -2,5.5 -5.5,14.5 -3.5,5 11.5,-3.5 0,-6 3,-1.5 2,-4.5 -5.5,-9.5 z"
           id="path1815"
           style="fill:#e0e0e0;fill-opacity:1;fill-rule:evenodd;stroke:#27aaea;stroke-width:1px;stroke-linecap:butt;stroke-linejoin:miter;stroke-opacity:1" />
        <path
           d="m 103.5,642 3,2 9,-11 0,-4 -3.5,-1.5 -2.5,5.5 2,4 -4,-1.5 -4,6.5 z"
           id="path1821"
           style="fill:#e0e0e0;fill-opacity:1;fill-rule:evenodd;stroke:#27aaea;stroke-width:1px;stroke-linecap:butt;stroke-linejoin:miter;stroke-opacity:1" />
        <path
           d="m 118.5,626.5 -0.5,8 -2,4 4,4 4,-3.5 2,-5 -7.5,-7.5 z"
           id="path1823"
           style="fill:#e0e0e0;fill-opacity:1;fill-rule:evenodd;stroke:#27aaea;stroke-width:1px;stroke-linecap:butt;stroke-linejoin:miter;stroke-opacity:1" />
        <path
           d="m 123,644 2.5,-3.5 2,1.5 -4.5,2 z"
           id="path1825"
           style="fill:#e0e0e0;fill-opacity:1;fill-rule:evenodd;stroke:#27aaea;stroke-width:1px;stroke-linecap:butt;stroke-linejoin:miter;stroke-opacity:1" />
        <path
           d="m 118.5,644.5 0.5,3.5 3.5,0 -0.5,-3 -3.5,-0.5 z"
           id="path1827"
           style="fill:#e0e0e0;fill-opacity:1;fill-rule:evenodd;stroke:#27aaea;stroke-width:1px;stroke-linecap:butt;stroke-linejoin:miter;stroke-opacity:1" />
        <path
           d="m 119.5,652 3,-3.5 1.5,8 -3.5,2 -1,-6.5 z"
           id="path1829"
           style="fill:#e0e0e0;fill-opacity:1;fill-rule:evenodd;stroke:#27aaea;stroke-width:1px;stroke-linecap:butt;stroke-linejoin:miter;stroke-opacity:1" />
        <path
           d="m 127,655.5 -2,-5 2.5,-1.5 -0.5,6.5 z"
           id="path1831"
           style="fill:#e0e0e0;fill-opacity:1;fill-rule:evenodd;stroke:#27aaea;stroke-width:1px;stroke-linecap:butt;stroke-linejoin:miter;stroke-opacity:1" />
        <path
           d="m 113,641.5 -0.5,7 -7,14 3.5,5.5 -1,7.5 -0.5,4.5 1.5,2 4.5,-4 -1.5,-3 3,-0.5 -0.5,-5.5 2.5,-6 -0.5,-13.5 -0.5,-6 -3,-2 z"
           id="path1833"
           style="fill:#e0e0e0;fill-opacity:1;fill-rule:evenodd;stroke:#27aaea;stroke-width:1px;stroke-linecap:butt;stroke-linejoin:miter;stroke-opacity:1" />
        <path
           d="m 104,663 -4,4 2,11.5 1.5,0.5 -0.5,-11.5 2.5,-2 -1.5,-2.5 z"
           id="path1835"
           style="fill:#e0e0e0;fill-opacity:1;fill-rule:evenodd;stroke:#27aaea;stroke-width:1px;stroke-linecap:butt;stroke-linejoin:miter;stroke-opacity:1" />
        <path
           d="m 117.5,679.5 3,0 2,-2 -2,-1.5 -3,3.5 z"
           id="path1837"
           style="fill:#e0e0e0;fill-opacity:1;fill-rule:evenodd;stroke:#27aaea;stroke-width:1px;stroke-linecap:butt;stroke-linejoin:miter;stroke-opacity:1" />
        <path
           d="m 124.5,678 -1,-5 -3,-1.5 6,-6.5 5,-0.5 -0.5,6 -6.5,7.5 z"
           id="path1839"
           style="fill:#e0e0e0;fill-opacity:1;fill-rule:evenodd;stroke:#27aaea;stroke-width:1px;stroke-linecap:butt;stroke-linejoin:miter;stroke-opacity:1" />
      </g>
    </g>
    <g
       id="Yukon"
       style="fill:#fefee9;fill-opacity:1">
      <path
         d="m 252.5,403 -5,-5 -1.5,-4 0,-6 -1.5,-1 0.5,-6 -2.28512,-3.24728 -6.78511,-11.74727 -118.28512,162.25272 0.71488,8.25272"
         id="path1559"
         style="fill:#fefee9;fill-opacity:1;fill-rule:evenodd;stroke:#27aaea;stroke-width:1px;stroke-opacity:1" />
      <path
         d="m 113.5,539.46875 0,0.53125 24.75,20.25 36.25,25.25 34,20.5 44,22.5 0,0 -1,-17.5 3,-1 -1.5,-2.5 -9.5,-2 -3,-4 -5.5,-0.5 -4,-2 0.5,-7 4.5,-6 -3.5,-4.5 -2,-17 -4.5,0 -2,-3.5 2,-2.5 1.5,-3.5 0,-10 3.5,-3 -1.5,-6.5 5.5,-1.5 -1.5,-7 3,-3 -5,-3.5 2,-7.5 0.5,-2 -5,-5 1.5,-1 -2,-2.5 2,-3 -2.5,-4 4,-5 -0.5,-2.5 1.5,-1.5 5,-2.5 2,0.5 3.5,-11 -4.5,-0.5 -2,-3.5 -2,0 -1,-1.5 7,-10 3,-9 -8.5,-8.5 -6.5,-4.5 2,-0.5 5,-8 0.5,-3 16,-21.5 0,0"
         id="path1554"
         style="fill:#fefee9;fill-opacity:1;fill-rule:evenodd;stroke:#636363;stroke-width:1px;stroke-opacity:0.50196078" />
      <path
         d="M 235.85952,368.01089 235.5,367.5 101,521 l 3.5,4 2,-0.5 2,5 4.5,0 6,5 -5.5,1 0,3.96875"
         id="Yukon1"
         style="fill:#fefee9;fill-opacity:1;fill-rule:evenodd;stroke:#646464;stroke-width:1.875px;stroke-opacity:1" />
    </g>
    <g
       id="Territoires de Nord-Ouest"
       style="fill:#fefee9;fill-opacity:1">
      <g
         id="TdNO iles"
         style="fill:#fefee9;fill-opacity:1">
        <g
           id="g1916"
           style="fill:#fefee9;fill-opacity:1">
          <path
             d="m 489.5,279 -2.5,-0.5 -6,3 -7,0.5 -1.5,2 5.5,2.5 3,2 1.5,-1.5 1,0.5 0,1 3.5,0.5"
             id="path1908"
             style="fill:#fefee9;fill-opacity:1;stroke:#27aaea;stroke-width:1px;stroke-opacity:1" />
          <path
             d="m 490,279.5 -2.5,9.5"
             id="path1914"
             style="fill:#fefee9;fill-opacity:1;stroke:#f4e2ba;stroke-width:1px;stroke-opacity:1" />
        </g>
        <path
           d="m 458,407.5 -2,-2 0,-2.5 3,0.5"
           id="path1905"
           style="fill:#fefee9;fill-opacity:1;stroke:#27aaea;stroke-width:1px;stroke-opacity:1" />
        <path
           d="m 411.5,318 0,-6 6.5,-3 3.5,1 0.5,-4 6,0 12,-9 4.5,-0.5 3.5,3.5 1.5,-0.5 1.5,-3 2.5,0 2.5,8 -2,1.5 -2.5,-1 0.5,3.5 0,3 -1.5,0 -0.5,5.5 -6,1.5 -3.5,4 -3,-6 4,-6 -0.5,-1 -9.5,11.5 -3.5,0 0,2.5 -3,1.5 -5,-1.5 0.5,-4 -3,0.5 -6,-2 z"
           id="path1505"
           style="fill:#fefee9;fill-opacity:1;stroke:#27aaea;stroke-width:1px;stroke-opacity:1" />
        <path
           d="m 278,403 -3,-5.5 -4.5,2.5 -2.5,-1.5 -4,1.5 -6.5,0 1,1.5 1,5 1.5,1.5 4,0 13,-5 z"
           id="path1491"
           style="fill:#fefee9;fill-opacity:1;stroke:#27aaea;stroke-width:1px;stroke-opacity:1" />
        <path
           d="m 355.5,387 28.5,-27 -1.5,-7.5 3,-2.5 0,-4.5 7.5,1 4,2 8,-0.5 1.5,8.5 4,4.5 4,2 6,0.5 4.5,4 4.5,14.5 -4.5,4.5 -5.5,-0.5 -18.5,9 -4,4.5 -6.5,2 -8,13 -7.5,-1.5 -1,-2 -3.5,2.5 -8.5,0 -1,-3 2.5,-5 0.5,-2.5 -8.5,-16 z"
           id="path1493"
           style="fill:#fefee9;fill-opacity:1;stroke:#27aaea;stroke-width:1px;stroke-opacity:1" />
        <path
           d="m 457,412.5 -13,56 -53,-16 0,-1.5 14,-0.5 12.5,3 10,6.5 7,-0.5 -5.5,-7 -8,-4.5 1,-2 -10.5,0 -4.5,-1.5 -7,-4.5 -6,-2 -2.5,-6 4,-5.5 20,0 0.5,-2 -9.5,-1 -8,-1 -2.5,-3 2,-2 -1.5,-2 -2.5,-1.5 -1.5,-2 2.5,-3 2,0 4,-4 2,1 0.5,-6 10,-7.5 6,-1 2.5,1 12.5,-4.5 3,10.5 -8,6.5 5.5,0.5 5.5,-7 3.5,2 6,8.5 -0.5,4 -3.5,1 0.5,1.5 4,-0.5 6.5,-2.5 z"
           id="path1497"
           style="fill:#fefee9;fill-opacity:1;stroke:#27aaea;stroke-width:1px;stroke-opacity:1" />
        <path
           d="m 485.5,296.5 -3.5,1.5 0,9.5 -10,0 -4.5,-5 2,-3.5 0.5,-3.5 5,-2.5 12,0.5 -1.5,3 z"
           id="path1501"
           style="fill:#fefee9;fill-opacity:1;stroke:#27aaea;stroke-width:1px;stroke-opacity:1" />
        <path
           d="m 463.5,297 0.5,-3 -1.5,-4 3,-2 3,6.5 -5,2.5 z"
           id="path1503"
           style="fill:#fefee9;fill-opacity:1;stroke:#27aaea;stroke-width:1px;stroke-opacity:1" />
        <path
           d="m 426,336.5 -3,-5.5 6.5,-2.5 8,-4 0,1.5 -11.5,10.5 z"
           id="path1507"
           style="fill:#fefee9;fill-opacity:1;stroke:#27aaea;stroke-width:1px;stroke-opacity:1" />
        <path
           d="m 457,318.5 -1.5,-4 7.5,2 -1,2 -5,0 z"
           id="path1509"
           style="fill:#fefee9;fill-opacity:1;stroke:#27aaea;stroke-width:1px;stroke-opacity:1" />
        <path
           d="M 456.73093,413.65908 444,468.5 391.56337,452.68486"
           id="path1726"
           style="fill:#fefee9;fill-opacity:1;stroke:#636363;stroke-width:1px;stroke-opacity:0.50196078" />
        <path
           d="M 471.96688,347.63813 467.5,347 l 0,-5.5 -3,-2 1.5,-2 -2.5,-2.5 0,-3 -5.5,-3.5 0,-2.5 -2.5,-3.5 -7.5,-0.5 -2,2.5 -0.5,0 -5.5,6.5 4,3.5 -4.5,-1.5 -4.5,3.5 6,4 -8.5,-1 -2.5,2 6.5,7 1.5,2.5 8.5,3 2,-3.5 2.5,0.5 -1,3.5 14,0 0,3.5 -7.5,-2 -7,3 -4,0.5 -1,4.5 6.5,5.5 4,0 14.28554,-4.33245"
           id="path1513"
           style="fill:#fefee9;fill-opacity:1;stroke:#27aaea;stroke-width:1px;stroke-opacity:1" />
        <path
           d="m 472.9036,348.46821 -3.21081,15.59538"
           id="path2082"
           style="fill:#fefee9;fill-opacity:1;stroke:#f4e2ba;stroke-width:1px;stroke-opacity:1" />
      </g>
      <g
         id="TdNO"
         style="fill:#fefee9;fill-opacity:1">
        <path
           d="m 253,403.5 -16.21875,30.71875 9.95313,12.6875 8.95312,162.6875 -2.09375,19.34375 109.89063,42.10937 115.89062,23.10938 7.64063,-71.64062 -63.54492,-40.01758 -8.04492,-18.51758 -15.54493,-7.01758 L 352.15625,484.375 365.5625,453 355,441.5 l -4.5,-1 -2,2.5 -4,3 -4,-0.5 -2,-2 3,-6 -0.5,-4 5,-6 -1.5,-1.5 -7,6 -3.5,2.5 -3.5,4.5 -3,-2 -0.5,-8.5 1,-14.5 -1.5,-5.5 -3.5,1 1,6 -7,0.5 1,3.5 -4.5,1.5 0.5,-3 -12,-2.5 -4.5,2.5 -2.5,0 0,-2 -6.5,-0.5 -10,2.5 -3,3.5 -3,-3 1,-3 18,-2.5 2,1 19.5,-1.5 -3,-3.5 -3.5,-0.5 -3,-2.5 -7.5,2.5 -12.5,-3.5 -3,4.5 -5.5,-2.5 -4,2.5 -8.5,1 -2.5,-2 -3.5,2.5 -0.5,-3.5 -1.5,-3 -1.5,-1 z m 49.5,98 4.5,3 10.5,1.5 2.5,-1 2.5,1 12.5,-0.5 4.5,-1 2.5,2 5.5,-1.5 4,1 3.5,5 -4.5,-1 -7,1 -4,3 1,2 6.5,5 5.5,2 4,0 5.5,-5 1.5,0 -1.5,2.5 0,4.5 -7,5.5 -1.5,1.5 0,2.5 1.5,1.5 -2,1 -1,-1.5 -4,0 -4.5,-5.5 -3,1 -3,-0.5 -0.5,2 1.5,6 -3,-0.5 -4.5,3 -3,0 -6.5,3.5 -2.5,-1 0,-1.5 4,0.5 4,-3 6.5,-4 -3,-6 -7,0.5 -4.5,4 -1.5,3 -4,0 -8,-8 2.5,-0.5 1.5,1.5 1.5,0 0.5,-4 2.5,-0.5 2.5,-1.5 3.5,0 0.5,-0.5 0,-3.5 -1.5,-3 0,-1 5.5,3.5 5.5,1.5 -4,-8 -7.5,-2.5 -2.5,1 -2.5,-2 -3.5,0 -0.5,-3 -5.5,-0.5 -3.5,3.5 0.5,-7.5 1.5,-0.5 z m 48,96 1,3.5 1,0 2,-1.5 2.5,0 -5.5,4 1.5,4.5 6,7 4.5,3 3,6 3.5,2.5 11.5,1 6,-3.5 8,-7 4.5,-1.5 5,1 9.5,3.5 2.5,2 -0.5,1.5 -2,0.5 -5,-4.5 -6.5,-1.5 -5,1 -5.5,2.5 3,2 9.5,-2.5 0.5,1 -6.5,3 3,2 -7,0 -5,3.5 -9.5,7 -4,2.5 -4,0 -1.5,-2 -5,1 -2,3.5 -4.5,4 -12,-1 -9,-2 -3,-1.5 -3,-4.5 -5.5,-2.5 -8,-11 0.5,-3 10,13 4,-2 6,4.5 2,-3.5 3,-0.5 2.5,-4.5 6,0.5 -0.5,0 2.5,0.5 2,-3.5 -1.5,-6 -2.5,-1.5 1.5,-3.5 -4,-4 -0.5,-6.5 -1,-2 1.5,-4.5 z m 31.5,31.5 -6,0.5 0,2.5 6,-3 z m -3.5,3.5 -4.5,2 5,1 4.5,-2.5 -5,-0.5 z"
           id="TdNO2"
           style="fill:#fefee9;fill-opacity:1;stroke:#636363;stroke-width:1px;stroke-opacity:0.50196078" />
        <path
           d="m 256.5,630.96875 -4,-2.46875 0,0 -1,-17.5 3,-1 -1.5,-2.5 -9.5,-2 -3,-4 -5.5,-0.5 -4,-2 0.5,-7 4.5,-6 -3.5,-4.5 -2,-17 -4.5,0 -2,-3.5 2,-2.5 1.5,-3.5 0,-10 3.5,-3 -1.5,-6.5 5.5,-1.5 -1.5,-7 3,-3 -5,-3.5 2,-7.5 0.5,-2 -5,-5 1.5,-1 -2,-2.5 2,-3 -2.5,-4 4,-5 -0.5,-2.5 1.5,-1.5 5,-2.5 2,0.5 3.5,-11 -4.5,-0.5 -2,-3.5 -2,0 -1,-1.5 7,-10 3,-9 -8.5,-8.5 -6.5,-4.5 2,-0.5 5,-8 0.5,-3 16,-21.5 0,0"
           id="TdNO1"
           style="fill:#fefee9;fill-opacity:1;fill-rule:evenodd;stroke:#636363;stroke-width:1px;stroke-opacity:0.50196078" />
        <path
           d="M 400.13684,557.35224 352.15625,484.375 365.5625,453 l -0.49346,-0.53726"
           id="TdNO3"
           style="fill:#fefee9;fill-opacity:1;stroke:#f4e2ba;stroke-width:1px;stroke-opacity:1" />
        <path
           d="m 252.5,629 37.5,16.5 36,14 37,11.5 31,9 39.5,8 33.5,5 12.5,1 1.5,-24"
           id="TdNO4"
           style="fill:#fefee9;fill-opacity:1;fill-rule:evenodd;stroke:#f4e2ba;stroke-width:1px;stroke-opacity:1" />
        <path
           d="M 479.5,694 490,602.5 424.5,579 l -9,-17 -16,-5"
           id="TdNO5"
           style="fill:#fefee9;fill-opacity:1;fill-rule:evenodd;stroke:#f4e2ba;stroke-width:1px;stroke-opacity:1" />
      </g>
    </g>
    <g
       id="Nunavut"
       style="fill:#fefee9;fill-opacity:1">
      <g
         id="Nunavut_iles"
         style="fill:#fefee9;fill-opacity:1">
        <path
           d="M 391.56337,452.68486 444,468.5 456.73093,413.65908 476,483.5 457.5,488"
           id="Victoria_fr"
           style="fill:#fefee9;fill-opacity:1;stroke:#636363;stroke-width:1px;stroke-opacity:0.50196078" />
        <path
           d="M 392.1875,452.875 392,453 l 0,7 3.5,7.5 5,5 10.5,5 -1,4.5 3,10.5 10,4 17,2 11.5,-5 8,0.5 7,-5.5 0.5,-2.5 m 0,0 1.5,0.5 0,3.5 8.5,5.5 2,-1 -3.5,4 3,2 8,0 3,2.5 8,-0.5 4.5,-3 0.5,-6.5 -1,-2.5 -3,-1.5 -4,3.5 -2,-7.5 5.5,3 1,-3 3.5,-2.5 1.5,-2 0.5,5 5.5,-3 -1,4.5 3.5,-3 0.5,-8.5 -4,0.5 -4,-3.5 -6,-7 -2.5,0.5 -4.5,-8.5 -3,-7.5 3.5,-4 -3,-7.5 -1,-27 -8,-9.5 -2.5,1.5 -2.5,-4.5 -2,1 -3.5,27 2,6 -4.5,5 -0.5,-7 -1.5,-1.5 1.5,-3.5 -1.5,-5.5 1,-5 -1,-2 -5.5,-10.5 -1,4 0.5,2 -3,3.5 0.21875,1.15625"
           id="Victoria_N"
           style="fill:#fefee9;fill-opacity:1;stroke:#27aaea;stroke-width:1px;stroke-opacity:1" />
        <path
           d="m 667.5,478.5 5.5,-4.5 0,-2.5 -5,1.5 -2.5,0 -2.5,3 4.5,2.5 z"
           id="path1336"
           style="fill:#fefee9;fill-opacity:1;stroke:#27aaea;stroke-width:1px;stroke-opacity:1" />
        <path
           d="m 460,403 -1.5,4.5"
           id="path1879"
           style="fill:#fefee9;fill-opacity:1;stroke:#f4e2ba;stroke-width:1px;stroke-opacity:1" />
        <path
           d="m 506.5,417 4,8 1,2.5 8.5,9 3.5,7.5 0,3.5 7,5 3,-3 0.5,-5.5 1.5,0 1.5,1.5 8.5,-5.5 -0.5,-3 -0.5,-6.5 2,-4 -5,-6 0,-2.5 -1,-4 -5.5,1 0,-3 5.5,-5.5 1,-4.5 2.5,-0.5 -3.5,-6.5 -11,4 -1.5,-0.5 -1.5,-5.5 -7,1.5 0.5,6 -4,1.5 -0.5,6 5.5,4 -2,8.5 -2.5,-2 -5.5,-8.5 -4.5,7 z"
           id="path1312"
           style="fill:#fefee9;fill-opacity:1;stroke:#27aaea;stroke-width:1px;stroke-opacity:1" />
        <path
           d="m 476,508.5 3.5,2.5 1.5,-1.5 -2.5,-4 -2.5,3 z"
           id="path1316"
           style="fill:#fefee9;fill-opacity:1;stroke:#27aaea;stroke-width:1px;stroke-opacity:1" />
        <path
           d="m 498.5,506 3,3.5 2.5,-2.5 -3,-3.5 -2.5,2.5 z"
           id="path1318"
           style="fill:#fefee9;fill-opacity:1;stroke:#27aaea;stroke-width:1px;stroke-opacity:1" />
        <path
           d="m 511,502 2.5,5 2.5,-2.5 -1.5,-3.5 -3.5,1 z"
           id="path1320"
           style="fill:#fefee9;fill-opacity:1;stroke:#27aaea;stroke-width:1px;stroke-opacity:1" />
        <path
           d="m 547.5,492.5 4,3.5 2.5,-3 -4,-3.5 -2.5,3 z"
           id="path1322"
           style="fill:#fefee9;fill-opacity:1;stroke:#27aaea;stroke-width:1px;stroke-opacity:1" />
        <path
           d="m 619,517.5 4.5,-2.5 1,8.5 -2,1.5 -3.5,-7.5 z"
           id="path1324"
           style="fill:#fefee9;fill-opacity:1;stroke:#27aaea;stroke-width:1px;stroke-opacity:1" />
        <path
           d="m 612,477.5 6,0.5 0.5,-1.5 -3,-2.5 -3.5,3.5 z"
           id="path1326"
           style="fill:#fefee9;fill-opacity:1;stroke:#27aaea;stroke-width:1px;stroke-opacity:1" />
        <path
           d="m 623.5,449 2,-2.5 -11,-12.5 -4,-20 1,-8.5 6,-10 -4,-3 -9,1 -11,13.5 -1.5,7.5 -2.5,14 2.5,21.5 3.5,1.5 10,0.5 4.5,4 -5,1.5 -5.5,-3.5 -3.5,2.5 0.5,6.5 1.5,-0.5 7,6.5 0,2.5 8.5,0.5 1,-5 11,12 6.5,-7 2.5,2.5 11.5,-2 5.5,3.5 4.5,-3.5 3,3 3,-2.5 -3.5,-4.5 8.5,-1 2.5,3 7,-3 -5,-8 -3.5,0 0,-3 12.5,4 4.5,7.5 6,-2.5 1.5,3.5 -2,2 5,0.5 9,5.5 -1.5,4.5 -4,2 0.5,6.5 7,-5 1,-5 10,5 4.5,0 0,4 10,5 11,15 -1.5,1.5 -0.5,14 -8,11.5 2.5,3 8.5,4 0.5,5.5 -4,-0.5 -1,5 -4.5,0 -3,4.5 -8,1.5 -1,-1.5 -8.5,0.5 -1.5,2.5 0.5,2.5 2.5,3 -6.5,4 2,6 2.5,3.5 6,4 4.5,1 2,-3 7.5,-5.5 -2,-3.5 2.5,-2 8.5,2.5 0.5,-2 4,-6.5 2,7.5 1.5,-3.5 19,11 4.5,-1 3.5,0.5 0.5,8 5.5,3.5 2,-1.5 12.5,1.5 2,-2 3,0 2,3.5 8.5,3 10,-2.5 13.5,0 3.5,1 2.5,-5.5 -4.5,-3.5 -7.5,-4.5 -13.5,-4.5 -5,-1 -12,-8.5 4,-4 8,6.5 4.5,-1 9,4.5 9,-2.5 5.5,1.5 3,2 0.5,-2.5 -1.5,-3 -0.5,-4 -3.5,-3 -4,-5.5 6,3 0,-4.5 -7,-4.5 0,-3 -10,-3 3,-1.5 -2.5,-4.5 -3.5,2.5 -5.5,-7 -2,2 -6.5,-1.5 -11,-9.5 -4.5,2 -1,-2 -4.5,-4 1,-3.5 3,3.5 4.5,-3 -1.5,-2 -4,-1 -3,-4 4.5,0.5 -3,-4.5 5,-2.5 5.5,5 8.5,3 4,-4.5 -2,6 5.5,2 3.5,4.5 5,4.5 5,-4 5,2.5 0,-5.5 -4.5,-11 3,0.5 3.5,-6 -1.5,-8 -4.5,0 0,-4.5 4,-0.5 0.5,-1.5 -2.5,-3.5 3,-3 -11.5,-3 -6.5,6.5 -1,-9 -6,6.5 -2.5,-1.5 -3.5,-7 -6.5,-1.5 -3,3 1.5,-5.5 -1.5,-2 -7.5,8 -8,-1 -4.5,-7 -3,1 -15,1 0,-2.5 5,-0.5 2.5,-2 -2.5,-7 -3,-1 7,-1.5 3,-3.5 -1,-2.5 -10,1.5 -4.5,0.5 0.5,-3 6.5,-5.5 -8,-7.5 -2.5,0.5 0.5,5 -3,1.5 -2.5,-2 -5,4.5 -1.5,-1.5 9.5,-9.5 -1,-2 -10,-2 -3,4.5 -2,1 2,-4.5 -6,5 -0.5,-8 -3,-1 -1.5,6 -1.5,-2.5 -4,3 2,2.5 3.5,-2.5 -2,4 -3.5,-1 -1,-5.5 4.5,-4 -0.5,-2.5 -7.5,-5.5 -3,3 -1.5,7.5 -8.5,-10 -6,7.5 -1,-1 4.5,-6.5 -2.5,-6 -5,1 -0.5,-3.5 -6,-3 -2.5,2 -6,-3.5 -9.5,5 0,14.5 -1.5,0 -1,-8.5 -5,2 0.5,-3.5 -3,2 -1.5,10.5 -2.5,0 1.5,-10 -1,-6.5 -2.5,-7.5 -2.5,-1.5 -2.5,-0.5 -0.5,-4 -4,-6 -12,3 -3,5 -3,4 -1.5,7.5 -1.5,4.5 0.5,9 4.5,2 -4.5,8.5 4.5,5.5 5.5,1 0,10 -4,-1 z"
           id="path1328"
           style="fill:#fefee9;fill-opacity:1;stroke:#27aaea;stroke-width:1px;stroke-opacity:1" />
        <path
           d="m 692,481 3.5,-5 -2.5,-2.5 -4,3.5 3,4 z"
           id="path1330"
           style="fill:#fefee9;fill-opacity:1;stroke:#27aaea;stroke-width:1px;stroke-opacity:1" />
        <path
           d="m 678,491 4,-4 0,-8 -2.5,-0.5 -1.5,12.5 z"
           id="path1332"
           style="fill:#fefee9;fill-opacity:1;stroke:#27aaea;stroke-width:1px;stroke-opacity:1" />
        <path
           d="m 677,477 7,-6 -5,1 -2,5 z"
           id="path1334"
           style="fill:#fefee9;fill-opacity:1;stroke:#27aaea;stroke-width:1px;stroke-opacity:1" />
        <path
           d="m 700,497.5 0.5,17 4,3.5 6,-1.5 6,0.5 2.5,-7 -1.5,-5.5 -4,-5 1.5,-5 -8.5,-0.5 -6.5,3.5 z"
           id="path1338"
           style="fill:#fefee9;fill-opacity:1;stroke:#27aaea;stroke-width:1px;stroke-opacity:1" />
        <path
           d="m 729,496 1.5,3 -4,2 -6,0.5 -2,-3 2,-5.5 3,3 5.5,0 z"
           id="path1340"
           style="fill:#fefee9;fill-opacity:1;stroke:#27aaea;stroke-width:1px;stroke-opacity:1" />
        <path
           d="m 708.5,485 2.5,6 3.5,2 0.5,-1.5 -6.5,-6.5 z"
           id="path1342"
           style="fill:#fefee9;fill-opacity:1;stroke:#27aaea;stroke-width:1px;stroke-opacity:1" />
        <path
           d="m 724.5,602.5 -0.5,4 -3.5,3.5 -3.5,-3 -2,-1 -1,-2.5 2.5,-3 8,2 z"
           id="path1344"
           style="fill:#fefee9;fill-opacity:1;stroke:#27aaea;stroke-width:1px;stroke-opacity:1" />
        <path
           d="m 723.5,596 6.5,4 3,-1 0,-2.5 -9.5,-0.5 z"
           id="path1346"
           style="fill:#fefee9;fill-opacity:1;stroke:#27aaea;stroke-width:1px;stroke-opacity:1" />
        <path
           d="m 670.5,623 3.5,2.5 4,-3.5 6.5,-1.5 1,6.5 -6.5,9.5 1,2 -5,2 -4,0 -2,-0.5 -4,-4.5 4.5,-7 1,-5.5 z"
           id="path1348"
           style="fill:#fefee9;fill-opacity:1;stroke:#27aaea;stroke-width:1px;stroke-opacity:1" />
        <path
           d="m 703.5,637 0.5,-7 6.5,-4 3,8 0.5,10.5 -3.5,2.5 -7,-10 z"
           id="path1350"
           style="fill:#fefee9;fill-opacity:1;stroke:#27aaea;stroke-width:1px;stroke-opacity:1" />
        <path
           d="m 835.5,625.5 -1.5,5 -2,3.5 3.5,2.5 3.5,-4.5 0,-6 -3.5,-0.5 z"
           id="path1352"
           style="fill:#fefee9;fill-opacity:1;stroke:#27aaea;stroke-width:1px;stroke-opacity:1" />
        <path
           d="m 850,593.5 4,-4 3,1 3,5 -3,2 -7,-4 z"
           id="path1354"
           style="fill:#fefee9;fill-opacity:1;stroke:#27aaea;stroke-width:1px;stroke-opacity:1" />
        <path
           d="m 787,591.5 6.5,6 3.5,-1 0,-2.5 -10,-2.5 z"
           id="path1356"
           style="fill:#fefee9;fill-opacity:1;stroke:#27aaea;stroke-width:1px;stroke-opacity:1" />
        <path
           d="m 527.5,496 1,-7 5.5,-6 8.5,7 0.5,3 6.5,7 -0.5,4 3.5,0.5 1.5,2.5 -9.5,8 -21.5,-10 -3,-3.5 2,-4 4,1 1.5,-2.5 z"
           id="path1358"
           style="fill:#fefee9;fill-opacity:1;stroke:#27aaea;stroke-width:1px;stroke-opacity:1" />
        <path
           d="m 643.5,561.5 2.5,8.5 3.5,-1 -6,-7.5 z"
           id="path1360"
           style="fill:#fefee9;fill-opacity:1;stroke:#27aaea;stroke-width:1px;stroke-opacity:1" />
        <path
           d="m 649.5,559.5 5,8 6,0 0.5,-2 -4,-3 -7.5,-3 z"
           id="path1362"
           style="fill:#fefee9;fill-opacity:1;stroke:#27aaea;stroke-width:1px;stroke-opacity:1" />
        <path
           d="m 635.5,567 4.5,-2.5 7,14 2,-0.5 0.5,-5 2,-0.5 5,5 4,0 9,6 6.5,2.5 6,9.5 -3,4.5 1.5,0.5 2.5,-3 5,0.5 1.5,-3.5 5.5,5 -0.5,3.5 -7,7.5 -6,-3 -4.5,-1 -3,-3.5 -4,-1 -4,-2.5 -3.5,4.5 2,4 -4,3 -1.5,1 -4,8.5 -6.5,4 -2.5,-6.5 0,-4.5 -2.5,-1 -12.5,5.5 -1.5,-3 7,-11 1.5,-24.5 -2,-2.5 -0.5,-10 z"
           id="path1364"
           style="fill:#fefee9;fill-opacity:1;stroke:#27aaea;stroke-width:1px;stroke-opacity:1" />
        <path
           d="m 489.5,412 -8.5,-15 5,-4 6,0 5.5,6.5 -8,12.5 z"
           id="path1366"
           style="fill:#fefee9;fill-opacity:1;stroke:#27aaea;stroke-width:1px;stroke-opacity:1" />
        <path
           d="M 469.69279,364.06359 477,362 l 3,4 4,-0.5 2.5,1.5 6,-2 4,-4.5 0.5,-2.5 3,-6.5 0,-5.5 -4,-4.5 -3.5,0 -2.5,2 -4,-4 -1.5,-1 3,-2 -1.5,-5 1,-5 -0.5,-4 -2.5,-1 -3.5,5.5 -6,3.5 4,6 1,3 -3,-0.5 -2,2.5 7,9 -2.5,0.5 -6,-3"
           id="path1897"
           style="fill:#fefee9;fill-opacity:1;stroke:#27aaea;stroke-width:1px;stroke-opacity:1" />
        <path
           d="m 472.9036,348.46821 -3.21081,15.59538"
           id="tmp"
           style="fill:#fefee9;fill-opacity:1;stroke:#a5a9a2;stroke-width:1px;stroke-opacity:1" />
        <g
           id="g1920"
           style="fill:#fefee9;fill-opacity:1">
          <path
             d="m 489.5,279 4,6.5 -1,3.5 -2.5,2 -3,-1.5"
             id="path1910"
             style="fill:#fefee9;fill-opacity:1;stroke:#27aaea;stroke-width:1px;stroke-opacity:1" />
          <path
             d="m 490,279.5 -2.5,9.5"
             id="path1912"
             style="fill:#fefee9;fill-opacity:1;stroke:#a5a9a2;stroke-width:1px;stroke-opacity:1" />
        </g>
        <path
           d="m 501.5,357 3.5,0 0.5,5 2,4 -5,0.5 -3.5,-2.5 2,-3.5 0.5,-3.5 z"
           id="path1372"
           style="fill:#fefee9;fill-opacity:1;stroke:#27aaea;stroke-width:1px;stroke-opacity:1" />
        <path
           d="m 512.5,356.5 6,-7 4,3 -3.5,-6.5 0.5,-7 3,-1 4.5,10 3.5,3 -2.5,-6.5 0,-3.5 -3.5,-2.5 7,-5 1,5 2,0 2.5,-5 4,5 2,4 0,8 -1,2.5 1,5 -1,3.5 -1.5,5.5 -5.5,4 -3.5,-1.5 -4.5,2 -3.5,-8.5 6.5,-6 0.5,-2 -18,1.5 z"
           id="path1374"
           style="fill:#fefee9;fill-opacity:1;stroke:#27aaea;stroke-width:1px;stroke-opacity:1" />
        <path
           d="m 519.5,305.5 2.5,3.5 5.5,0.5 -0.5,-2 -7.5,-2 z"
           id="path1376"
           style="fill:#fefee9;fill-opacity:1;stroke:#27aaea;stroke-width:1px;stroke-opacity:1" />
        <path
           d="m 534.5,259 3.5,5.5 3,0 -0.5,-8.5 -4.5,-1.5 -1.5,4.5 z"
           id="path1378"
           style="fill:#fefee9;fill-opacity:1;stroke:#27aaea;stroke-width:1px;stroke-opacity:1" />
        <path
           d="m 546,370.5 11,9 7.5,-1 0,-14 -7.5,-8 -4.5,2 -2,5 -4.5,7 z"
           id="path1380"
           style="fill:#fefee9;fill-opacity:1;stroke:#27aaea;stroke-width:1px;stroke-opacity:1" />
        <path
           d="m 545.5,363 -2,-3.5 5,-3 3,2 -6,4.5 z"
           id="path1382"
           style="fill:#fefee9;fill-opacity:1;stroke:#27aaea;stroke-width:1px;stroke-opacity:1" />
        <path
           d="m 558,354 0,0 z"
           id="path1384"
           style="fill:#fefee9;fill-opacity:1;stroke:#27aaea;stroke-width:1px;stroke-opacity:1" />
        <path
           d="m 555,350.5 3,4 3.5,-1 -4,-4 -2.5,1 z"
           id="path1388"
           style="fill:#fefee9;fill-opacity:1;stroke:#27aaea;stroke-width:1px;stroke-opacity:1" />
        <path
           d="m 503,305 0.5,6.5 0.5,5.5 4,2.5 1.5,-1.5 -3.5,-12 -3,-1 z"
           id="path1392"
           style="fill:#fefee9;fill-opacity:1;stroke:#27aaea;stroke-width:1px;stroke-opacity:1" />
        <path
           d="m 552,308 -3.5,5.5 11,1 3,1.5 2,-6.5 -7.5,-1 -1,1 -4,-1.5 z"
           id="path1394"
           style="fill:#fefee9;fill-opacity:1;stroke:#27aaea;stroke-width:1px;stroke-opacity:1" />
        <path
           d="m 575.5,309.5 -2,3 0.5,4 4,4.5 4,0 -0.5,-5.5 -6,-6 z"
           id="path1396"
           style="fill:#fefee9;fill-opacity:1;stroke:#27aaea;stroke-width:1px;stroke-opacity:1" />
        <path
           d="m 643.5,388 8,1 5,-2 6.5,-0.5 12.5,11 1.5,3.5 -14,1 -4.5,2.5 -1,4.5 -5,1 -2.5,-8.5 -4.5,-3.5 -2.5,-7.5 0.5,-2.5 z"
           id="path1398"
           style="fill:#fefee9;fill-opacity:1;stroke:#27aaea;stroke-width:1px;stroke-opacity:1" />
        <path
           d="m 557.5,391 7.5,-2 7.5,5.5 9,-2.5 3,8.5 -5,9 0,4.5 -6,8.5 -3.5,-0.5 -4,-2.5 -2,2 2,5 -5,11 -5,-1 -1,-7.5 -4,-8.5 1,-18.5 -1,-3.5 5.5,0.5 -2,-3.5 3,-4.5 z"
           id="path1400"
           style="fill:#fefee9;fill-opacity:1;stroke:#27aaea;stroke-width:1px;stroke-opacity:1" />
        <path
           d="m 531,396 9,-3.5 -1,-1.5 -4,0 -5,2 1,3 z"
           id="path1402"
           style="fill:#fefee9;fill-opacity:1;stroke:#27aaea;stroke-width:1px;stroke-opacity:1" />
        <path
           d="m 544.5,417 -3,-2.5 2,-4 4,3.5 -3,3 z"
           id="path1404"
           style="fill:#fefee9;fill-opacity:1;stroke:#27aaea;stroke-width:1px;stroke-opacity:1" />
        <path
           d="m 504.5,333 4,-2 4.5,5 -0.5,2.5 -5.5,0 0,-2.5 -2.5,-3 z"
           id="path1406"
           style="fill:#fefee9;fill-opacity:1;stroke:#27aaea;stroke-width:1px;stroke-opacity:1" />
        <path
           d="m 506,341 9,-0.5 0,2.5 -7.5,2 -1.5,-4 z"
           id="path1408"
           style="fill:#fefee9;fill-opacity:1;stroke:#27aaea;stroke-width:1px;stroke-opacity:1" />
        <path
           d="m 509.5,351 4,-4.5 4.5,0.5 -4,4.5 -4.5,-0.5 z"
           id="path1410"
           style="fill:#fefee9;fill-opacity:1;stroke:#27aaea;stroke-width:1px;stroke-opacity:1" />
        <path
           d="m 524,335 0,0 z"
           id="path1412"
           style="fill:#fefee9;fill-opacity:1;stroke:#27aaea;stroke-width:1px;stroke-opacity:1" />
        <path
           d="m 527.5,328.5 -5.5,5.5 2,2.5 6,-5 -2.5,-3 z"
           id="path1416"
           style="fill:#fefee9;fill-opacity:1;stroke:#27aaea;stroke-width:1px;stroke-opacity:1" />
        <path
           d="m 513,294.5 -2.5,-5 3.5,-2 4,2 0.5,-2.5 -7,-10.5 0,-4.5 6.5,-3 4.5,6 1,5 4,-3 2.5,6.5 6,3.5 -1,8 2,12 -3.5,2 -5.5,-4.5 -0.5,-6 -1,-1.5 -8.5,-3 -5,0.5 z"
           id="path1418"
           style="fill:#fefee9;fill-opacity:1;stroke:#27aaea;stroke-width:1px;stroke-opacity:1" />
        <path
           d="m 545,307.5 -2.5,-6.5 3.5,0.5 -5,-5.5 1,-6.5 -1.5,-4 2,0 8,4 1.5,2.5 3,1 -1,2.5 3,7 -7,4.5 -5,0.5 z"
           id="path1420"
           style="fill:#fefee9;fill-opacity:1;stroke:#27aaea;stroke-width:1px;stroke-opacity:1" />
        <path
           d="m 565.5,219 8.5,-6.5 1.5,1.5 2.5,-5.5 3,0 2,1.5 5,-0.5 -6.5,-5 3.5,-2 0,-5 7,6 3.5,-1.5 -1.5,-2.5 0.5,-7.5 3.5,1.5 -2,-3.5 4,-5 9,1 0,-1 -2.5,-2.5 0.5,-4 9.5,1 2.5,-4 3.5,0 1,-2.5 7.5,0.5 4,-2 1,3.5 -2.5,4 3,0 3.5,-8 4.5,-0.5 4.5,5.5 4.5,-1 2,3 1,11.5 -6.5,11 -8,3.5 1.5,1 5,-2.5 -5,10.5 3,-0.5 6,-11.5 3.5,-2 2.5,2.5 -2.5,7.5 -1,6.5 -4,15.5 -2.5,1 0.5,3 -5,6.5 6.5,-3 -0.5,6.5 -4,6 -3.5,-2 1.5,4 -6.5,6.5 -3,0.5 -6,4.5 12,-3.5 3,3.5 -8.5,1 -2,4 5,-1 1.5,2 4,2 1,6 -4.5,0 4,3 1,4 -4.5,1.5 4.5,2.5 -6,5.5 -1.5,-1 -3.5,2 3.5,8.5 -7,6 -7.5,-1 -3.5,-4 1,8.5 10,-0.5 3,-2 1.5,2.5 -1.5,2.5 3.5,3 1,-1 0,-2.5 2,-1.5 3,5.5 -1.5,6 -11.5,11.5 -1.5,-1 -0.5,-7 -6.5,0 0.5,3 -3.5,2.5 -1,-3 -7,1.5 -1,2.5 1,3.5 -9,-3 -3,-2 -6,4.5 -2,-1 -6,-0.5 0.5,-2 -1,-7 5.5,-7.5 2,0.5 3,-3.5 -0.5,-1.5 -3,-1 -1,-5.5 -1,-2 0,-3.5 7,0 3.5,5.5 2,3 6.5,-0.5 4,-2 0.5,-2.5 -1.5,-3.5 -1,3.5 -2.5,2.5 -6,-4 -1.5,-4.5 1,-4.5 -2.5,1.5 -1.5,0 -2,-2 -2.5,2.5 -2.5,0 -0.5,-8.5 2,-3 0.5,-3.5 4,-3.5 9.5,-0.5 3,3 5,-5 -2.5,-1.5 -1.5,1.5 -8,-1 -0.5,-5.5 -4.5,-8.5 -6,-4 -1,-4.5 -1.5,-3 0,-3 11,0 5.5,6 2,0 3,4.5 3,0.5 -4,-4.5 1,-2.5 -6.5,-4.5 -0.5,-2.5 9.5,-6 6,-9.5 -5,-0.5 -2,4 -9.5,7 -1,-3 -2.5,0.5 -0.5,2.5 -9.5,1.5 -1,-6.5 -2,5 -8,-4 0,-2 9.5,-2 3.5,-7 -5.5,5 -11,3 -1,-3 2.5,-2.5 -4.5,-4 2.5,-4 -1.5,-0.5 -3,2.5 -3,-3.5 z"
           id="path1422"
           style="fill:#fefee9;fill-opacity:1;stroke:#27aaea;stroke-width:1px;stroke-opacity:1" />
        <path
           d="m 558,227 6,0.5 8.5,14 1,4 3,0 3.5,8.5 1.5,0 0,-5 -2,-2.5 4.5,1 0,7 2.5,2.5 2.5,7.5 7.5,4 0.5,7.5 -6.5,3.5 -4,9 0.5,3 -2,1 -0.5,6 -2,-0.5 -1,-3 -4.5,2.5 -1,2 -3.5,0.5 -7,-5.5 2.5,-3.5 -4,-0.5 -5.5,-10.5 7,-7 -10,2.5 -2.5,-4.5 0.5,-4 -3,-3 0,-9 6,4.5 -4,-6.5 -2,0.5 2,-8.5 5,-0.5 -0.5,-2 -3.5,-3.5 0.5,-5 2.5,0 2,2 3,-4 -4.5,-2.5 1,-2.5 z"
           id="path1424"
           style="fill:#fefee9;fill-opacity:1;stroke:#27aaea;stroke-width:1px;stroke-opacity:1" />
        <path
           d="m 579,328 2,11 2.5,0 -1.5,-7 -3,-4 z"
           id="path1426"
           style="fill:#fefee9;fill-opacity:1;stroke:#27aaea;stroke-width:1px;stroke-opacity:1" />
        <path
           d="m 545.5,332 7,9 1,-1.5 -1,4.5 10,-1.5 3.5,-1 1,6.5 4,4 1,6.5 -3,7.5 4,2.5 -0.5,7 2,0 3.5,4 3.5,-0.5 5.5,2 4.5,-6.5 3,1.5 -1.5,4 15.5,0 4.5,-1.5 3,-2.5 6,0 3.5,-4.5 8,4 3.5,-4 3,0 1.5,-7 2.5,-1 0,-3.5 -3.5,0 0,-2.5 2,-5 -3,-2 -4,0 0.5,-3.5 -5,-0.5 -2.5,-3 -12,3.5 -3.5,5.5 -5.5,1 -2.5,2.5 0.5,4.5 -5,-5 -7.5,1.5 0,-3 -3,0 -0.5,4.5 -1.5,-0.5 0.5,-4.5 -3.5,-4.5 -6,0 -2,-1.5 4,-4 4,-1.5 -7,-3 0,-2.5 -4.5,-3.5 -3.5,-0.5 -3,4 -1.5,-1.5 -3.5,-6 -3,0 -9,-4 -4,3 -0.5,4 z"
           id="path1428"
           style="fill:#fefee9;fill-opacity:1;stroke:#27aaea;stroke-width:1px;stroke-opacity:1" />
        <path
           d="m 746,788 7,-5 1.5,2.5 -6,4 -2.5,-1.5 z"
           id="path1581"
           style="fill:#fefee9;fill-opacity:1;stroke:#27aaea;stroke-width:1px;stroke-opacity:1" />
        <path
           d="m 740,828 -8,0 -5.5,2.5 -2,3.5 2.5,2 10,0.5 7.5,2 2.5,-1 -7,-9.5 z"
           id="path1583"
           style="fill:#fefee9;fill-opacity:1;stroke:#27aaea;stroke-width:1px;stroke-opacity:1" />
        <path
           d="m 765,845.5 4,1 -6.5,5 -0.5,-2.5 3,-3.5 z"
           id="path1585"
           style="fill:#fefee9;fill-opacity:1;stroke:#27aaea;stroke-width:1px;stroke-opacity:1" />
        <path
           d="m 747.5,747.5 0,0 z"
           id="path1587"
           style="fill:#fefee9;fill-opacity:1;stroke:#27aaea;stroke-width:1px;stroke-opacity:1" />
        <path
           d="m 751,757 -6,6.5 -2,-2.5 -4,3.5 2.5,-6.5 1,-6 1,2.5 2,-3 0,-2.5 1.5,-1 1,4.5 3,4.5 z"
           id="path1589"
           style="fill:#fefee9;fill-opacity:1;stroke:#27aaea;stroke-width:1px;stroke-opacity:1" />
        <path
           d="m 736,757 4,-3.5 -1,3 -3,0.5 z"
           id="path1591"
           style="fill:#fefee9;fill-opacity:1;stroke:#27aaea;stroke-width:1px;stroke-opacity:1" />
      </g>
      <g
         id="Nunavut_C"
         style="fill:#fefee9;fill-opacity:1">
        <path
           d="m 447,540.5 -3,-2.5 2,-7.5 -5,-10 -8,-10 -6,3 -2,-1.5 -12.5,-1 -20.5,-8.5 -1,-3.5 5.5,-4 1.5,1.5 5.5,1.5 2,-4.5 -2.5,-9.5 -7,-7 -7,0 -11.5,-7.5 0,-3.5 L 365.78125,453.3125 365,496 502,603"
           id="path1757"
           style="fill:#fefee9;fill-opacity:1;stroke:#27aaea;stroke-width:1px;stroke-opacity:1" />
        <path
           d="M 366,453 351.03125,484.96875 351,485 l 49.5,73 16,4 8,16.5 64,24 -8.90625,90.65625 0.625,0.5 0.5,0.5 L 501,696.5 532.5,698 557.28125,698.5 562,630 395,512"
           id="Nunavut_fr"
           style="fill:#fefee9;fill-opacity:1;stroke:#636363;stroke-width:1px;stroke-opacity:0.50196078" />
        <path
           d="m 557.5,698.5 2.5,-7 -0.5,-3.5 3.5,-2.5 5,-17.5 -1,-2 6,-5 -3,-2.5 13.5,-12.5 -2,-2 5.5,-1.5 -4.5,-4 1.5,-2 8,0.5 5,-5.5 1,-4.5 -12,-8 -3,1.5 -12,-7 -4,1 4,-4 11,6.5 6,-0.5 8.5,4 6,-2.5 1.5,-8 3.5,-1 6,1 8.5,-6 1,-7 2.5,-3 3,-12.5 -17.5,-1 -9.5,-8 -7.5,-2.5 0,-2 10,1 11,7.5 10.5,1 8.5,-10.5 -0.5,-1.5 2.5,-5.5 -2,-2.5 -6,-2.5 -0.5,-4.5 10,1.5 3,3.5 5.5,1 1.5,-3 5,2.5 2.5,-0.5 -3,-4 0,-3.5 3.5,3 6.5,-4 5.5,-12.5 2.5,0 -0.5,-11.5 -6,-4.5 -9,-13.5 0,-2 4.5,0.5 4.5,-7 -4,-5 1.5,-3.5 -4,-2 -4.5,0 -2.5,-3 -1,-4 -11,0.5 -5.5,-1.5 -5.5,1.5 1.5,11.5 6,4.5 -1,5.5 1.5,1 -2,1.5 -2.5,-1.5 -2,1.5 2,15 -3.5,5 -0.5,10.5 -4.5,0 1,3 -4,2.5 0.5,-2.5 -10.5,-15 0,-10 2.5,3.5 3.5,0 -2,-6.5 -8.5,-11 -3,-3 -5.5,4.5 1.5,9 -1.5,1.5 1,7.5 -3.5,0.5 -3,-14 -4.5,-7.5 4,-5.5 -2,-1.5 -6,-1 -3,3 -4.5,-5 3.5,-7 -3,-3 4,2.5 2.5,-2.5 -4.5,-4 0.5,-2.5 -5.5,-5.5 -2,-12.5 -8.5,-10.5 -2,2 -2,-4.5 -3,0.5 -0.5,3.5 -4.5,3 3.5,2.5 -2,4 -2.5,-2.5 -3.5,3.5 1.5,2 0,5.5 -2,3 4.5,3.5 -2,2 -3,3 0.5,6.5 11,11.5 2.5,-1 4,5 3,-2 1.5,4 -4,-1.5 -1.5,4.5 -3,7 3.5,3 2,-2 1,-4 1.5,0 0.5,10.5 -2,-0.5 -5.5,10 -6,1.5 -2,2.5 2,7 0,8.5 -1.5,0 -3,-3.5 -3,2 1,-4 -1.5,-2.5 1.5,-4.5 -0.5,-9 2,-2 -3,0 -8,-3.5 -4.5,-4 0,3.5 -6,1 2,4 0.5,4 5,1.5 1.5,0 3,4.5 -3,1.5 -9,-7.5 -1.5,4.5 -5.5,-1 -4,-2.5 -5,0 -2.5,3 -11,-0.5 -11.5,-11 -2,2 -4.5,-2.5 -0.5,-1.5 -5.5,-5 1,-4.5 -3.5,-8 -2.5,-0.5 -7.5,3.5 -10.5,0 -4,6.5 4.5,3 3,-2.5 3.5,1.5 8.5,-1.5 2,-3 2.5,1 0.5,3.5 -18.5,6.5 -3.5,3 2,6.5 1.5,9.5 1,5 -1.5,0 -2.5,-3 -2,4"
           id="Nunavut1"
           style="fill:#fefee9;fill-opacity:1;stroke:#636363;stroke-width:1px;stroke-opacity:0.50196078" />
        <path
           d="m 385,513 9,-7 82,63 -17,4 -74,-60 z"
           id="path1766"
           style="fill:#fefee9;fill-opacity:1" />
      </g>
    </g>
    <path
       d="m 107.5,695 -6,-1.5 -4,6.5 -5.5,-1.5 0.5,-1 5.5,-0.5 2,-3 -1.5,-3.5 -2.5,-1 -0.5,-3.5 -2,-2 -5,6.5 -1.5,4 -2.5,2.5 2.5,2.5 -1,8.5 7,0.5 4.5,-6 10,-7.5 z m -11,18 -2.5,-3.5 -9,0.5 0.5,1.5 0,6.5 2.5,17.5 3.5,0.5 0,-2.5 -1.5,-1 0,-7.5 -1.5,-5 2.5,-6.5 5.5,-0.5 z m 19.5,25 -1.5,5.5 4,0 0.5,-5 -3,-0.5 z m 10,-8.5 -6.5,7 0.5,3.5 3.5,6.5 5,-8.5 -2.5,-8.5 z m 7.5,-7.5 -5.5,2.5 1.5,-3 4,0.5 z m -13,4 1.5,-3.5 -2,-13 -1.5,1 2,15.5 z m -5.5,-1 -3.5,-9 3,-3 1,2.5 2,7 -2.5,2.5 z m 2,-15.5 3,-2 -2.5,-2.5 -4,0 3.5,4.5 z m 24,120.5 1,-4.5 5.5,8 -1.5,4 -5,-7.5 z m -35.5,-48.5 3.5,-0.5 7,6 2.5,6 17.5,17 0.5,21 9,10.5 -1,11.5 -3,5.5 -7,-4 -8.5,-11.5 2,-3 -0.5,-2.5 -4.5,1 -3.5,-5.5 1.5,-2 -1.5,-8 -3.5,0 -1.5,-3.5 0.5,-2 2,0 -0.5,-7.5 -4,-1 -2,-4 1.5,-1 -7,-6 3,-4.5 4.5,-0.5 0.5,-2.5 -6,0 -3,-5 1.5,-4 z m 8.5,29 -3.5,3.5 4.5,3 -1,-6.5 z m 10.5,-49 12,-1.5 -0.5,-2.5 -11.5,1.5 0,2.5 z"
       id="Colombie-Britannique iles"
       style="fill:#fefee9;fill-opacity:1;stroke:#27aaea;stroke-width:1px;stroke-opacity:1" />
    <path
       d="m 113,539.5 37.5,33 52,186.5 2,76 -47,17.5 -6,-2 2,-3.5 -0.5,-5.5 -3.5,-2 -1,-6 2,-0.5 -0.5,-4 -5,-1 -2.5,-8.5 2.5,-1 0,-4 -6,-7.5 -2,0 -8.5,-5.5 4.5,-5 -8,-8.5 -3,2 -4.5,-10.5 8,-7.5 -3.5,-1 2,-7 15,-3.5 0,-5 -11.5,1 -2.5,-7 2.5,-1.5 3,-3.5 -1.5,-2 0.5,-6.5 -1,-7.5 9.5,-7.5 -9.5,-1.5 -3,4.5 -1.5,-0.5 -1.5,-15.5 1.5,-2.5 -2.5,-6 14.5,-10 0,-3 3,-2.5 4,-9.5 4,-2 1,-4.5 -3.5,-2.5 -1,-5 -6,-11 -2.5,-1.5 1,-3.5 -1,-3.5 3,-3 -2,-2.5 3.5,-2.5 1.5,-27.5 1,-1.5 -2.5,-16 2,-2.5 -2,-5.5 -1,-4.5 2,0 -0.5,-8 -9,-2.5 -3.5,1.5 -2.5,4 -3,-0.5 -2,-1 -8,-0.5 3,-6.5 -2,-22.5 z"
       id="path1533"
       style="fill:#fefee9;fill-opacity:1;stroke:#27aaea;stroke-width:1px;stroke-opacity:1" />
    <path
       d="m 289,646 -51.5,125.5 0.625,-0.375 2.875,2.875 2.375,1.5625 -4.375,2.46875 5.0625,6.03125 -0.9375,1.53125 5.09375,2.53125 -1.9375,4.03125 5.59375,7.03125 -0.4375,8.53125 3.59375,2.53125 0.125,5.28125 2.59375,1.25 3.625,5.28125 0.125,5.75 4.625,1.28125 -0.375,8.75 3.59375,6.78125 2.46875,4.125 -1.0625,4.125 4.46875,7.625 4.4375,5.125 -1.0625,9.625 -3.03125,11.625 3.9375,7.625 0.5,6 -31.5,-10.5 -29.5,-11 -37,-15 -22.375,-10.75 86.75,-226.5 6.125,2.25 36.25,16 0.25,1 z"
       id="path1514"
       style="fill:#fefee9;fill-opacity:1;stroke:#a5a9a2;stroke-width:1px;stroke-opacity:1" />
    <path
       d="m 113.5,540 24.75,20.25 36.25,25.25 34,20.5 43.06682,22.02281 L 251.5,628 256.75,633.75 186,862 159.75,853.25 166.5,729.5 140,566 l -23,-9 -3.5,-17 z"
       id="path1577"
       style="fill:#fefee9;fill-opacity:1;fill-rule:evenodd;stroke:none" />
    <path
       d="m 113.5,540 24.75,20.25 36.25,25.25 34,20.5 43.06682,22.02281"
       id="path1573"
       style="fill:#fefee9;fill-opacity:1;fill-rule:evenodd;stroke:#636363;stroke-width:1px;stroke-opacity:0.50196078" />
    <path
       d="m 136,687.0625 0,-0.5625 3,-2.5 4,-9.5 4,-2 1,-4.5 -3.5,-2.5 -1,-5 -6,-11 -2.5,-1.5 1,-3.5 -1,-3.5 3,-3 -2,-2.5 3.5,-2.5 1.5,-27.5 1,-1.5 -2.5,-16 2,-2.5 -2,-5.5 -1,-4.5 2,0 -0.5,-8 -9,-2.5 -3.5,1.5 -2.5,4 -3,-0.5 -2,-1 -8,-0.5 3,-6.5 -2,-22.5 0,0 1.34623,1.18468"
       id="path1590"
       style="fill:none;stroke:#646464;stroke-width:1.875px;stroke-linecap:butt;stroke-linejoin:miter;stroke-opacity:1" />
    <g
       id="Alberta"
       style="fill:#fefee9;fill-opacity:1">
      <path
         d="m 290,645.5 -0.25,0.78125 L 289,646 237.5,771.5 238.125,771.125 241,774 l 2.375,1.5625 -4.375,2.46875 5.0625,6.03125 -0.9375,1.53125 5.09375,2.53125 -1.9375,4.03125 5.59375,7.03125 -0.4375,8.53125 3.59375,2.53125 0.125,5.28125 2.59375,1.25 3.625,5.28125 0.125,5.75 4.625,1.28125 -0.375,8.75 3.59375,6.78125 2.46875,4.125 -1.0625,4.125 4.46875,7.625 4.4375,5.125 -1.0625,9.625 -3.03125,11.625 3.9375,7.625 0.5,6 21,6 36,9.5 52,-215.5 0.5625,-6.0625 L 390.5,694 393.75,680.9375 394,680.5 l 0,-0.5 -31,-9 -37,-11.5 -36,-14 z"
         id="path2249"
         style="fill:#fefee9;fill-opacity:1;stroke:#636363;stroke-width:1px;stroke-opacity:0.50196078" />
      <path
         d="m 390,693.5 -5.5,3 -6,4.5 -1.5,2 -3,-1 -1.5,1 0.5,1.5 3,0.5 3,2 4,-4 3,-2 4,-1"
         id="path1494"
         style="fill:#c6ecff;fill-opacity:1;stroke:#27aaea;stroke-width:1px;stroke-opacity:1" />
    </g>
    <g
       id="Saskatchewan"
       style="fill:#fefee9;fill-opacity:1">
      <path
         d="M 388.88649,699.97152 337,915.5 l 22,5 28.5,5.5 27,4.5 21.5,3 26.5,3 7,-156 3.71875,-32.0625 L 475.5,734.5 l -0.65625,-0.25 -0.0625,0.65625 0.0625,-0.65625 L 479.5,694 467,693 l -33.5,-5 -39.5,-8 0,0 -3.23176,12.46538"
         id="path1701"
         style="fill:#fefee9;fill-opacity:1;stroke:#636363;stroke-width:1px;stroke-opacity:0.50196078" />
      <path
         d="m 472.5,756.5 -2,1 -1,3.5 -5,5 -4.5,3.5 -4,0.5 -1.5,-2 0.5,-2 3.5,-0.5 0.5,1.5 6,-4 1,-3.5 -0.5,-3 -4,-6.5 5,-6.5 2,0.5 2,-4 5,-4.5"
         id="lac1"
         style="fill:#c6ecff;fill-opacity:1;stroke:#27aaea;stroke-width:1px;stroke-opacity:1" />
      <path
         d="M 390.76824,692.46538 390.5,693.5 l 6.34375,-3.34375 4.76953,0.53125 0.76953,3.53125 9.26953,0.0312 13.26954,6.03125 -5.23047,0.53125 -4.73047,-1.96875 -4.73047,3.03125 L 400,699.90625 389,699.5 l -0.11351,0.47152"
         id="lac2"
         style="fill:#c6ecff;fill-opacity:1;stroke:#27aaea;stroke-width:1px;stroke-opacity:1" />
    </g>
    <g
       id="Manitoba"
       style="fill:#fefee9;fill-opacity:1">
      <path
         d="m 626.34396,763.46434 0.0935,0.004 0.34375,-0.1875 -0.15625,0.1875 L 627,763.5 626.59375,764.0625 575.5,831.5 l -22,23 -0.5,78.1875 -0.5,-0.0937 0,8.40625 -11.5,0 -42.5,-1.5 -35.34375,-2.9375 L 463,937 l -0.25,-0.46875 -0.25,-0.0312 0,-0.21875 0.0625,-1.3125 L 469.5,780.5 472.3139,756.03143 510,765"
         id="path1518"
         style="fill:#fefee9;fill-opacity:1;stroke:#636363;stroke-width:1px;stroke-opacity:0.50196078" />
      <path
         d="M 557.02735,698.37512 557,697.5 529,698 495.5,696 480.21875,694.09375 480.0625,694.0625 479.5,693 l -0.71875,7.15625 -3.96875,34.4375"
         id="path1525"
         style="fill:#fefee9;fill-opacity:1;stroke:#636363;stroke-width:1px;stroke-opacity:0.50196078" />
      <path
         d="M 626.34396,763.46434 616.5,763 l -7,-5 -9,-1.5 -10,6.5 -7,-2.5 1.5,-3 -4.5,-20.5 -4,-5 1.5,-6 -4.5,-1.5 -2.5,2 -11,-0.5 0,-3 -3.5,-4 1,-5.5 -0.47265,-15.12488 L 530.5,768.5"
         id="path1523"
         style="fill:#fefee9;fill-opacity:1;stroke:#27aaea;stroke-width:1px;stroke-opacity:1" />
      <path
         d="m 557,698.5 -1,12 -23.5,63 -60,-15 4,-26.5 40.25,-30.5 40.25,-3 z"
         id="mask1"
         style="fill:#fefee9;fill-opacity:1;stroke:none" />
      <path
         d="M 476.05944,734.94827 478,735.5 l -2,5.5 3,-1 2,0 -7.1875,9.9375 1.1875,4.5625 -2.625,1 -0.0611,0.53141"
         id="path1495"
         style="fill:#c6ecff;fill-opacity:1;fill-rule:nonzero;stroke:#27aaea;stroke-width:1px;stroke-linecap:butt;stroke-linejoin:miter;stroke-miterlimit:4;stroke-opacity:1;stroke-dasharray:none;stroke-dashoffset:0;marker:none;visibility:visible;display:inline;overflow:visible" />
      <path
         d="m 516.5,820 1.5,4.5 -2.5,1 0.5,3.5 1,1 0.5,4.5 0.5,1.5 -0.5,2.5 3.5,3.5 2.5,7.5 1.5,11.5 2.5,4.5 0.5,5 2.5,4 1,6.5 5,9.5 -1,2 -0.5,6.5 0.5,3.5 -2.5,2 -2.5,4.5 -2,-0.5 -1,-9.5 1,-4 1,-5 -1.5,-1.5 2,-6 -1,-2 -1.5,0.5 -2.5,6 -1,-1 -0.5,-6.5 1,-1.5 0,-1.5 -4.5,-3 0.5,-3 -2,0 -2.5,4.5 -2,-1 -1.5,-7 -3.5,-1.5 -1,-2.5 -0.5,-2.5 -2.5,-3 0.5,-1 -3,-3 1,-2 3.5,0 1.5,-1 0,-1 -4.5,-0.5 -2.5,1 -3,-6 7,-10.5 -0.5,-4 8.5,4 1.5,-2.5 -2.5,-2 0.5,-4 -3,-1.5 6.5,-3.5 z"
         id="path1506"
         style="fill:#c6ecff;fill-opacity:1;fill-rule:nonzero;stroke:#27aaea;stroke-width:1px;stroke-linecap:butt;stroke-linejoin:miter;stroke-miterlimit:4;stroke-opacity:1;stroke-dasharray:none;stroke-dashoffset:0;marker:none;visibility:visible;display:inline;overflow:visible" />
    </g>
    <g
       id="Ontario"
       style="fill:#fefee9;fill-opacity:1">
      <path
         d="m 741.5,992 8.5,0 2,-2 5.5,-0.5 2.5,-1.5 2,2 2.5,-1 0.5,6 -2.5,2.5 -12,-3 -8.5,0 -0.5,-2.5 z"
         id="ile"
         style="fill:#fefee9;fill-opacity:1;stroke:#27aaea;stroke-width:1px;stroke-opacity:1" />
      <path
         d="m 766.5,858.5 0.5,7.5 -0.125,0.0312 L 795,995.5 l 61.46875,6.7813 4.03125,-1.7813 3,-5.5 0.5,-3 2.5,-3 5.5,-8.5 4.125,-1.6875 3.8125,-0.78125 L 880,978 l -2,-8 -1,-4.5 -7.5,-0.5 -14,10 -3.59375,1.96875 -2.84375,0.84375 L 843,976.5 l -3,-5.5 -6.5,1 -7.5,-5 -16.5,0.5 -9.5,-5.5 -8.5,-8.5 -3.5,-8.5 -20.53125,-82.625 -0.0312,0.28125 L 767,860.53125 766.5,858.5 z"
         id="path1544"
         style="fill:#fefee9;fill-opacity:1;stroke:#f4e2ba;stroke-width:1px;stroke-opacity:1" />
      <path
         d="m 652,906.5 0,7 2,2 -0.5,8 -1,1.5 -2,1 -1.5,-1.5 -2,2 -1.5,-1.5 -0.5,-2 -2.5,1.5 -0.5,-0.5 1,-3 -3,-1.5 3.5,-4 0,-2 -1.5,-1.5 5,-4 2.5,0 2.5,-1.5 0,0 m 115.46875,-44.125 -0.0312,0.28125 -0.4375,-2.125 -0.5,-2.03125 0.5,7.5 -6,1 -8,-5 -9,-9 -2,0.5 -6,-7 -10,-10 -3,0 0.5,-9.5 -3,-9.5 -4.5,-11.5 0,-8 2,-1 -3.5,-8.5 -2,2 -4.5,0 -6,-1.5 -0.5,0.5 -24,2 -11.5,-6.5 -2.5,0.5 -8.5,-4 -6,0 -5,-1.5 -0.5,-2 -6.5,-8.5 -9.78125,-6.125 -0.60937,192.3125 L 635,959 l 3.46875,0.375 -0.0625,-0.34375 L 639,959 l 1.5,-3 0.5,-3.5 3.5,-3.5 2,2.5 2,-1.5 2.5,-8.5 2,0.5 -2,6.5 5,-7.5 -1.5,-3 1,-1.5 8,3.5 14,-1 6,3 0.5,3 9,10 7.5,0 6.5,-1.5 0,6 7,7.5 -2,6 5.5,2 -0.5,5 -1,3 6.5,-0.5 9,4.5 4.5,-1.5 11.5,0 15.5,-1 2,2 7,0 4,-3.5 10.5,11 4.5,2.5 0.5,2 7.5,8.5 -2.5,7.5 -5,0.5 -5.5,-3.5 -4.5,0 -3,-4.5 -5.5,-5 -5.5,1.5 7.5,8.5 1,6.5 -4.5,5.5 3,23 -8,7.5 -0.5,8 0.5,7.5 -9,4.5 2.5,5.5 9,0 0.5,-3.5 7,-5.5 2,-0.5 3.5,-7 3.5,-4.5 16.5,-1 3.5,-2 -4,-1 0,-2 4.5,-1.5 13,-5.5 4,0 1,-3 -2,-2 -2,-4 -4,2 -7,1.5 -3,-2 5,-8 5,-6 17.5,-9 4.5,-1 0.5,1 7,-1.5 3.5,-2.5 -4.5,-2 1,-1.5 2.5,0 3.5,-3.5 2.09375,-1.6875 2.1875,-0.2187 0.69026,-0.3063 L 798.5,993.5"
         id="path1576"
         style="fill:#fefee9;fill-opacity:1;stroke:#636363;stroke-width:1px;stroke-opacity:0.50196078" />
      <path
         d="m 627.90528,763.40764 -0.37403,-0.50139 -0.3125,0.46875 -0.0937,-0.28125 L 627,763 l -51.5,68.5 -22,23 -0.5,78.1875 0.0312,0 -0.0312,0.25 0,0.0625 5,-1 2,13.5 3,2 7.5,0.5 2.5,2 3,0.5 5,-2.5 7.5,1 6.5,6.5 -0.5,1.5 5,-3 7,5.5 5,0.5 6,-5 1.5,0 2,3 9.5,0 2,1.5 3.46875,-1.125"
         id="path1548"
         style="fill:#fefee9;fill-opacity:1;stroke:#636363;stroke-width:1px;stroke-opacity:0.50196078" />
      <path
         d="m 796,990.5 -1,5.5 54,8.5 10,-5.5 -63,-8.5 z"
         id="path1567"
         style="fill:#fefee9;fill-opacity:1;stroke:none" />
    </g>
    <g
       id="Quebec"
       style="fill:#fefee9;fill-opacity:1">
      <path
         d="m 977.5,816.5 16.5,-6 5,1 4,-2 8,1 8,0.5 3,2 -0.5,3.5 -10,1.5 -6.5,3 -12.5,0.5 -5,-3.5 -10,-1.5 z"
         id="isle1"
         style="fill:#fefee9;fill-opacity:1;stroke:#27aaea;stroke-width:1px;stroke-opacity:1" />
      <path
         d="m 1040.5,838.5 -5,7 1,6.5 2,0.5 2.5,-1.5 -2.5,-3 -0.5,-3 3,-4 -0.5,-2.5 z"
         id="isle2"
         style="fill:#fefee9;fill-opacity:1;stroke:#27aaea;stroke-width:1px;stroke-opacity:1" />
      <path
         d="m 879.5,977.5 0.34375,-0.125 L 880,977.9375 880.53125,977.125 925,961 l -0.5,-7 3.5,0 2,-3 2,2 0.5,-4.5 3,-0.5 -3,-2.5 3.5,-6.5 -1,-2 1,-1.5 -0.5,-3.5 -3,-4.5 1.5,-4.5 -1.5,-6 4,-21 3,0 0.5,3 1.0625,-1.8125 0.3125,0.59375 L 945,894.5 l 2,-5 -3,-5.5 3,-4.5 7,-3 2,1.5 2,-0.5 7,-6.5 5.5,-3.5 -4,-10 -25.03893,13.86578 L 907,957"
         id="Quebec-US"
         style="fill:#fefee9;fill-opacity:1;stroke:#f4e2ba;stroke-width:1px;stroke-opacity:1" />
      <path
         d="M 879.9375,978.03125 880,978 l -2,-8 -1,-4.5 -7.5,-0.5 -14,10 -3.59375,1.96875 -2.84375,0.84375 L 843,976.5 l -3,-5.5 -6.5,1 -7.5,-5 -16.5,0.5 L 800,962 791.5,953.5 788,945 767.46875,862.375 871,904"
         id="Quebec-Ontario"
         style="fill:#fefee9;fill-opacity:1;stroke:#636363;stroke-width:1px;stroke-opacity:0.50196078" />
      <path
         d="M 1048.2862,734.715 1041,725 l -77,47 -2,-3.5 -6.5,-4.5 -0.5,-3 4.5,-4.5 -3.5,-2 -2.5,5 0,3.5 2.5,4 1.5,7 3.5,9 -3.5,4 -4.5,-4 -4.5,2 -7,-5.5 -0.5,2.5 -6.5,1.5 -3.5,-2.5 -1.5,2.5 -2,-2.5 1.5,-2.5 -2.5,-3 0.5,-2 -5.5,-6 -2.5,3.5 2.5,4 -1,2 -8,-3 -2.5,-3 4,-2.5 -5.5,-8 -2,1 -10,-7.5 0.5,-4.5 -4.5,-3 5,-3.5 2,-4 -6,-4 -3,-4 12,4.5 -0.5,-5 -6,-6.5 8.5,3.5 10,1 7,-7 3,2.5 4,-3 3.5,1.5 5,-2 -4.5,-4.5 3,-1.5 -3,-6.5 -1,-5 -4.5,1 2,-2 -6.5,-8 1.5,-2.5 -5,1.5 -4,-6.5 2.5,0 -6.5,-5 2.5,-4.5 -3.5,-3.5 1.5,-3.5 -3,-1.5 1,-3.5 -3,-4.5 -4.5,-1 -8,-3.5 -1,-3 3,-4 -4,-5 4.5,-4.5 -1.5,-1.5 -4.5,3 -3,-0.5 -7.5,2 5,-4 -3.5,-4 -2,-5 -1.5,2.5 -3.5,-2 -1,-4 0,-3.5 -3,-0.5 1,-2 2,-2.5 -4,1.5 23,156 38.5,40 110,-81.5"
         id="Quebec-Labrador"
         style="fill:#fefee9;fill-opacity:1;stroke:#f4e2ba;stroke-width:1px;stroke-opacity:1" />
      <path
         d="m 873,618.5 -5.5,-3 0.5,15 1.5,4 2,17.5 -4,0 1,7.5 -8,11 -5.5,-4.5 -3,-0.5 -7,-4 -8.5,6.5 -2.5,4 -1.5,-0.5 -2.5,-4.5 3,1 1,-1.5 -1,-2 3,-3 -4,-5 -2,1.5 -1.5,-2.5 0,-2 -4,-8.5 -1,0 -0.5,-2 1,-0.5 -4.5,-6 -2.5,-5.5 1,-1.5 1.5,-3 -3.5,-3 -1.5,1.5 2.5,3 -4.5,0 -1,-2.5 -4.5,1 0,2.5 -13,-0.5 -2.5,-5 0.5,-2.5 -1,-1.5 -1.5,1 -9.5,-4 -3,-3.5 -12,-3.5 -9.5,11 -3,-2 -3,1.5 -20.5,-0.5 -5,6.5 1.5,6 7,9 1.5,9 -2,6 1.5,3 2,-1.5 5,11 5.5,7.5 -2.5,3 -0.5,9.5 -2,7 -4,2.5 3,5.5 4,4 5.5,1.5 10.5,6.5 10.5,11 4.5,11.5 1.5,15.5 -2.5,9 -10.5,18.5 -5,3.5 -4.5,5.5 -8,1.5 1,2.5 3.5,1 3.5,5 3.5,2.5 2.5,2.5 -0.5,3 3,9 4.5,6 2.5,5 2.5,8 2.5,0.5 2,5.5 -3,6 -0.5,4.5 4,4 0,3.5 -2.5,1.5 -1.5,-4 -4.5,-2.5 -2.5,3 1.625,7.53125 L 869,907 882.5,972.9375 908.5,960 943,874.5 l 28.5,-9.5 6,-5 2,1 5.5,0 5,-8 3.5,-6 -0.5,-8 -4,-4.5 -11.5,-1 -8.5,2 -18.5,18.5 -16.5,23 -4,8.5 -5.5,24 -2.5,5 -6,5.5 -4,7 -3,1 -8.5,8 -8.5,15 -2,11 -4,5 -3.5,2.5 5,-5.5 1.5,-8 0.5,-5.5 5,-8.5 12,-14.5 10,-11 3,-5.5 -0.5,-6.5 3,-3 4,-24.5 5.5,-15 5,-10.5 7,-3.5 0,-13 3,-9 9,-7.5 30.5,-15.5 1.5,0 19,-9.5 3.5,0 8,-6.5 11.5,-7 0.5,-1.5 0,-5.5 2,-7 2,-6.5 -1.5,-2 0,-2 2,-2 -0.5,-4 7,-5 -0.5,-2.5 2,-5 6,-2 -8,-2.5 L 930.34375,814.0625 893,774 869,622 m 11.5,121.5 -2.5,3.5 -1,1.5 2,2 3,-1.5 3.5,3.5 -6.5,0.5 2,3.5 -0.5,1.5 -1,-1 -2.5,-1 -3,-4 -6,0 -0.5,2 4.5,3 0,2.5 3.5,-1.5 0.5,1 -1,3 11,-1 0,2 -5.5,0 -3,3 1,2.5 -0.5,1 -1.5,-2 -4,-0.5 -1,-3 -3,2.5 -2,-2.5 -5.5,-2 0.5,-2 6,-2.5 -1,-2.5 -2,0 -2.5,-3.5 2,-0.5 6,-5 4,1 6.5,-3.5 z m -94,46.5 5.5,0 1.5,3 -2,2.5 -3,5 0.5,1.5 1.5,0 6,-3 1,0 1.5,2 -5.5,3 -8.5,5.5 -3.5,0.5 -1,-3 -1,-1.5 -2.5,-0.5 -0.5,-1 2,-1.5 5.5,-3.5 0,-1.5 5,-5.5 -2.5,-2 z"
         id="main"
         style="fill:#fefee9;fill-opacity:1;stroke:#636363;stroke-width:1px;stroke-opacity:0.50196078" />
      <path
         d="m 871.5,622.84375 -3.5,-0.6875 20.78125,156.53125 41.84375,42.5625 111.5625,-85.625 4.5313,-0.15625 0.5625,-1.9375 -7.375,-3.84375 -109.43755,81.03125 -35.5,-37.65625 L 871.5,622.84375 z"
         id="path1764"
         style="fill:#fefee9;fill-opacity:1;stroke:none" />
      <path
         d="m 972.5625,861.9375 -29.875,11.625 -0.4375,0.125 -0.1875,0.4375 -35.34375,83.15625 -23.46875,14.6875 -10.875,-67.40625 -104.90625,-42.65625 1.75,4.84375 98.90625,44.5 11.90625,65.875 31.40625,-15.71875 33.34375,-83.625 22.90625,-10.46875 4.875,-5.375 z"
         id="mask2"
         style="fill:#fefee9;fill-opacity:1" />
    </g>
    <g
       id="Labrador"
       style="fill:#fefee9;fill-opacity:1">
      <path
         d="m 895,638 -4.5,3 -3,-0.5 -7.5,2 5,-4 -3.5,-4 -2,-5 -1.5,2.5 -3.5,-2 -1,-4 0,-3.5 -3,-0.5 1,-2 2,-2.5"
         id="path1789"
         style="fill:#fefee9;fill-opacity:1;stroke:#b4b0a1;stroke-width:1px;stroke-opacity:1" />
      <path
         d="m 901.25,644 2,-4 -2,-5 -2.5,0.5 -6.5,-5 -3,-0.5 -2,-1.5 -8,-3.5 -4.5,-6 -0.375,-0.46875 -1.6875,-2.21875"
         id="path1785"
         style="fill:#fefee9;fill-opacity:1;stroke:#27aaea;stroke-width:1px;stroke-opacity:1" />
      <path
         d="m 895,638 1.5,1.5 -4.5,4.5 4,5 -3,4 1,3 8,3.5 4.5,1 3,4.5 -1,3.5 3,1.5 -1.5,3.5 3.5,3.5 -2.5,4.5 6.5,5 -2.5,0 4,6.5 5,-1.5 -1.5,2.5 6.5,8 -2,2 4.5,-1 1,5 3,6.5 -3,1.5 4.5,4.5 -5,2 -3.5,-1.5 -4,3 -3,-2.5 -7,7 -10,-1 -8.5,-3.5 6,6.5 0.5,5 -12,-4.5 3,4 6,4 -2,4 -5,3.5 4.5,3 -0.5,4.5 10,7.5 2,-1 5.5,8 -4,2.5 2.5,3 8,3 1,-2 -2.5,-4 2.5,-3.5 5.5,6 -0.5,2 2.5,3 -1.5,2.5 2,2.5 1.5,-2.5 3.5,2.5 6.5,-1.5 0.5,-2.5 7,5.5 4.5,-2 4.5,4 3.5,-4 -3.5,-9 -1.5,-7 -2.5,-4 0,-3.5 2.5,-5 3.5,2 -4.5,4.5 0.5,3 6.5,4.5 2,3.5 77,-47 7.2862,9.715 3.2138,-4.715 -0.5,-24.5 -9,-3 -51.5,21.5 -33,-31.5"
         id="path1734"
         style="fill:#fefee9;fill-opacity:1;stroke:#636363;stroke-width:1px;stroke-opacity:0.50196078" />
      <path
         d="m 1048.5,734.78125 3.25,-2.78125 3,-11.5 1,-9 -2.5,-4 -2,-4 -3.5,1 m 0,0 -8,-11.5 -8,-3 -6.5,-0.5 -3.5,3.5 0,5.5 -2.5,-1.5 -1,-5 -6,-5 -9,7 1.5,2 -6,8 0,6.5 -2,1 -6.5,13"
         id="path1776"
         style="fill:#fefee9;fill-opacity:1;stroke:#27aaea;stroke-width:1px;stroke-opacity:1" />
      <path
         d="m 990.25,724.5 -0.5,-13 7.5,-12 0,-4 9,-12 -0.5,-4.5 -6.5,0.5 -2.5,-2.5 -2,1.5 0,4 -4,1.5 -9,-3 -3,3 -4,-2 -3.5,4.5 -5.5,1 1,-4.5 -4,-5 -7.5,2.5 -4.5,-2 -2.5,2 0,-3 -3.5,-1.5 -3,2 -5,-4 -2,-6.5 1,-7.5 -1.5,-1.5 -5,0.5 -1,-2 -6.5,-1.5 2.5,-3.5 -2.6875,-3.9375 c -0.003,-7e-5 -0.0277,3.5e-4 -0.0312,0 C 921.04554,648.86691 916.44336,649 915.75,649 l -0.5,-3.5 -5.5,-2 -1,-2.5 -7.5,3"
         id="path1793"
         style="fill:#fefee9;fill-opacity:1;stroke:#27aaea;stroke-width:1px;stroke-opacity:1" />
      <path
         d="m 946.5,721.5 2,2.5 -0.5,2 2.5,5 -2,0 -2,2 0,2 -5,3.5 -3,-2 -4,-0.5 2,2.5 -1.5,1.5 -2,1 2.5,2.5 -3,2 -3,-1 3,6 9,1 0,2 -5.5,-0.5 -6,0 -4.5,-8 -1.5,-1 -1.5,0 -12.5,-4 -5,0.5 1.5,-7.5 2.5,4 12.5,5 1.5,-2 -3.5,-6 3,-3 6,4.5 1,-2 -1.5,-1.5 4.5,-3 -2,-6 8,6 5,2 1,-1.5 -3.5,-2 1,-2 4.5,-4 z"
         id="lake"
         style="fill:#c6ecff;fill-opacity:1;stroke:#27aaea;stroke-width:1px;stroke-opacity:1" />
    </g>
    <g
       id="Nouveau-Brunswick"
       style="fill:#fefee9;fill-opacity:1">
      <path
         d="M 941.43581,899.07264 944,899.5 l 7,-5 4,-0.5 6,4 1.5,2 8.5,18.5 3,5.5 6,0.5 1.5,4.5 3,3 4.5,0.5 2.5,-12 -17.5,-51"
         id="fr_US"
         style="fill:#fefee9;fill-opacity:1;stroke:#f4e2ba;stroke-width:1px;stroke-opacity:1" />
      <path
         d="M 943.80743,895.84459 945,894.5 l 2,-5 -3,-5.5 3,-4.5 7,-3 2,1.5 2,-0.5 7,-6.5 5.5,-3.5 0.19828,-0.49569 L 978,872"
         id="fr1"
         style="fill:#fefee9;fill-opacity:1;stroke:#c5c5b7;stroke-width:1px;stroke-opacity:1" />
      <path
         d="m 989,932.5 2.5,-2.5 2.5,0 7.5,-4 1,-4 3.5,-0.5 3,-4.5 4,-6.5 2,-2 2,-2.5 1.5,-6 3.5,-2 1,-4.5 4,-2 0.5,-3.5 -11,0 -3,1 -6.5,-6.5 -2.5,0.5 -2.5,-5.5 -3.5,-0.5 -1,1.5 -2,-0.5 2,-4 0,-2.5 -1,-7 -1.5,-3.5 -5.5,3 -2.5,5 -3,0.5 -2.5,-3.5 -10,0.5 -0.0625,0.0312 -0.8125,1.125 L 970.5,867.5"
         id="Nouveau-Brunswick2"
         style="fill:#fefee9;fill-opacity:1;stroke:#27aaea;stroke-width:1px;stroke-opacity:1" />
      <path
         d="M 1021.2462,898.43077 1022,898 l 1,-4.5 3.7125,-1.85625"
         id="fr2"
         style="fill:#fefee9;fill-opacity:1;stroke:#f4e2ba;stroke-width:1px;stroke-opacity:1" />
    </g>
    <g
       id="Nouvelle-Ecosse"
       style="fill:#fefee9;fill-opacity:1">
      <path
         d="M 1021.2462,898.43077 1022,898 l 1,-4.5 3.7125,-1.85625 21.7875,4.85625 -27.2538,1.93077 z"
         id="path1753"
         style="fill:#fefee9;fill-opacity:1;stroke:#f4e2ba;stroke-width:1px;stroke-opacity:1" />
      <path
         d="M 1027.8104,890.49529 1028,890 l 0,0 3.5,1 3,-0.5 4.5,1 0.5,-2.5 3,-1.5 6,0.5 6,-8 2,0 2,2 3.5,-3 4.5,3 0.5,1.5 7,-1 0,1 -4,3 -4.5,4.5 -10.5,15.5 -4.5,5 -4.5,3.5 1,3 -4,3.5 -3.5,-1.5 -3,3.5 2,3 1,1.5 -6,17.5 -3,3 0,3 -5.5,3.5 -0.5,-3 -4,-2 -2.5,1.5 -7,-7 1.5,-6 -3.5,-1 9.5,-16 1,-3.5 7,-9.5 1,0 1,3.5 1.5,0 1.5,-3 4,-4.5 3,-1.5 0,-1 -3.5,-0.5 -7,4 -7,5 -1.5,0.5 4,-12.5 -0.5048,-0.33654 L 1022,898.5"
         id="path1751"
         style="fill:#fefee9;fill-opacity:1;stroke:#27aaea;stroke-width:1px;stroke-opacity:1" />
      <path
         d="m 1058,871.5 1,-21 1.5,-2 -1,-3 1.5,-2 5.5,5 1.5,2.5 -0.5,8.5 4.5,-3 1.5,1 7,-2.5 -1,1 3.5,4.5 -4,2 1,7 -14,8.5 -8,-6.5 z"
         id="path1742"
         style="fill:#fefee9;fill-opacity:1;stroke:#27aaea;stroke-width:1px;stroke-opacity:1" />
    </g>
    <path
       d="m 1012.5,871.5 -1,6.5 -1,2 9,4.5 4,0 11,-0.5 1.5,3 1.5,0 0.5,-3 8,-1 1.5,-2.5 -3,-5 0,-2 2.5,-3.5 -0.5,-3 -5.5,4 -2.5,1.5 -1,-2.5 -2.5,1 -1,3 -4,1 -0.5,1.5 -6,0.5 -1.5,2 -2,-1.5 -2,-0.5 -5.5,-5.5 z"
       id="Ile-du-Prince-Edouard"
       style="fill:#fefee9;fill-opacity:1;stroke:#27aaea;stroke-width:1px;stroke-opacity:1" />
    <path
       d="m 1067,719.5 -4,0 -0.5,2 -2,0 -4,13 -0.5,13.5 1,7 5,19 -1,7 4,4.5 2,1 -3,1.5 0,8.5 1,3.5 -4,0 -3,4 3,1.5 3.5,-2.5 0.5,-1 2.5,-2 1.5,2 -1.5,1 0,8.5 -3,6 3.5,2.5 -0.5,2.5 3.5,0 3.5,-1.5 6,-6.5 4.5,-3.5 2.5,-0.5 5.5,-4 3.5,0.5 4.5,-2.5 2,-4 5.5,-5.5 1.5,-2.5 1.5,-1.5 2,1.5 0.5,4 5.5,-2.5 -1,-4 4,-4 3.5,2 -2.5,3.5 -1,8 -3,6.5 2.5,2.5 7.5,-6.5 0.5,-2 -1,-9 3.5,-4 -2.5,-10.5 1.5,-1 2.5,0 4.5,5 3.5,6.5 -0.5,3 3,3 2,-1 1,-8.5 2,-1 0,4 5.5,5 1,-3.5 2.5,-2.5 0,-2.5 -2.5,-7 -1.5,-10.5 -6,-2 -1,6.5 -2,3 -2.5,-2 0.5,-6 -1,-2.5 1,-3 -2,-1.5 -2.5,2.5 0,13 1.5,2 -1,-0.5 -5,-3 1,-2.5 -1.5,-2 -4.5,0 -0.5,-0.5 4,-5 0,-1.5 1.5,-1.5 -1,-8.5 -2,-0.5 0,2.5 -2.5,3 0.5,3.5 -4.5,2 0.5,-3.5 -2,-2 -4,0.5 -1.5,-1.5 1.5,-8 -1.5,-1.5 -4,-0.5 -10.5,5 0,2.5 -4.5,6.5 -3.5,-4 -1,2.5 -3.5,2.5 -8,-2 2,-3.5 1.5,-3.5 -1,-2.5 -2.5,2 -4,1.5 -1,-0.5 -3,0.5 1.5,5 -2,3 1.5,6 -4.5,-6.5 -1,-15.5 -4.5,-5.5 2,-1 1.5,1.5 -1,-8.5 -1,-2.5 -3,3.5 -1,-2.5 4,-4.5 -0.5,-4.5 z"
       id="Terre-Neuve"
       style="fill:#fefee9;fill-opacity:1;stroke:#27aaea;stroke-width:1px;stroke-opacity:1" />
    <g
       id="US-C"
       style="fill:#fefee9;fill-opacity:1">
      <path
         d="m 152.5,850 c 143.625,69.875 282.75509,89.93658 401.5,91.5 0.24901,0.10854 -0.5,-9 -0.5,-9"
         id="US-C1"
         style="fill:none;stroke:#646464;stroke-width:1.875px;stroke-linecap:butt;stroke-linejoin:miter;stroke-opacity:1" />
      <path
         d="M 553.0004,932.9375 553,933 l 5,-1 2,13.5 3,2 7.5,0.5 2.5,2 3,0.5 5,-2.5 7.5,1 6.5,6.5 -0.5,1.5 5,-3 7,5.5 5,0.5 6,-5 1.5,0 2,3 9.5,0 2,1.5 5.90735,-0.45441"
         id="US-C2"
         style="fill:#fefee9;fill-opacity:1;stroke:#787878;stroke-width:1.875px;stroke-linecap:butt;stroke-linejoin:miter;stroke-opacity:1" />
      <path
         d="M 855.78254,1002.5966 860.5,1000.5 l 3,-5.5 0.5,-3 2.5,-3 5.5,-8.5 7.94306,-2.48221"
         id="US-C3"
         style="fill:none;stroke:#646464;stroke-width:1.875px;stroke-linecap:butt;stroke-linejoin:miter;stroke-opacity:1" />
      <path
         d="M 879.09683,978.10225 925,961 l -0.5,-7 3.5,0 2,-3 2,2 0.5,-4.5 3,-0.5 -3,-2.5 3.5,-6.5 -1,-2 1,-1.5 -0.5,-3.5 -3,-4.5 1.5,-4.5 -1.5,-6 4,-21 3,0 0.5,3 1.36568,-1.22911"
         id="US-C4"
         style="fill:none;stroke:#646464;stroke-width:1.875px;stroke-linecap:butt;stroke-linejoin:miter;stroke-opacity:1" />
      <path
         d="M 941.43581,899.07264 944,899.5 l 7,-5 4,-0.5 6,4 1.5,2 8.5,18.5 3,5.5 6,0.5 1.5,4.5 3,3 4.5,0.5"
         id="US-C5"
         style="fill:none;stroke:#646464;stroke-width:1.875px;stroke-linecap:butt;stroke-linejoin:miter;stroke-opacity:1" />
      <path
         d="m 819.5,1036 3,5.5 1.5,1 -0.5,4"
         id="US-C6"
         style="fill:#fefee9;fill-opacity:1;stroke:#646464;stroke-width:1.875px;stroke-linecap:butt;stroke-linejoin:miter;stroke-opacity:1" />
      <path
         d="m 765.5,1053.5 0.5,3.5 -1,7"
         id="US-C7"
         style="fill:#fefee9;fill-opacity:1;stroke:#646464;stroke-width:1.875px;stroke-linecap:butt;stroke-linejoin:miter;stroke-opacity:1" />
    </g>
  </g>
</svg>
