<?xml version="1.0" encoding="UTF-8" standalone="no"?>
<svg
   xmlns:dc="http://purl.org/dc/elements/1.1/"
   xmlns:cc="http://creativecommons.org/ns#"
   xmlns:rdf="http://www.w3.org/1999/02/22-rdf-syntax-ns#"
   xmlns:svg="http://www.w3.org/2000/svg"
   xmlns="http://www.w3.org/2000/svg"
   xmlns:sodipodi="http://sodipodi.sourceforge.net/DTD/sodipodi-0.dtd"
   xmlns:inkscape="http://www.inkscape.org/namespaces/inkscape"
   version="1.1"
   id="Capa_1"
   x="0px"
   y="0px"
   width="869.198px"
   height="591.173px"
   viewBox="0 0 869.198 591.173"
   enable-background="new 0 0 869.198 591.173"
   xml:space="preserve"
   sodipodi:version="0.32"
   inkscape:version="0.46"
   sodipodi:docname="H1N1_Mexico_Map_by_confirmed_deaths.svg"
   inkscape:output_extension="org.inkscape.output.svg.inkscape">

   <metadata
   id="metadata152">
      <rdf:RDF>
      <cc:Work
   rdf:about="">
      <dc:format>image/svg+xml</dc:format>
      <dc:type
   rdf:resource="http://purl.org/dc/dcmitype/StillImage" />
      </cc:Work>
      </rdf:RDF>
   </metadata>

   <defs
   id="defs150">
     <inkscape:perspective
   sodipodi:type="inkscape:persp3d"
   inkscape:vp_x="0 : 295.58649 : 1"
   inkscape:vp_y="0 : 1000 : 0"
   inkscape:vp_z="869.198 : 295.58649 : 1"
   inkscape:persp3d-origin="434.599 : 197.05766 : 1"
   id="perspective154" />
   </defs>

   <sodipodi:namedview
   inkscape:window-height="715"
   inkscape:window-width="1024"
   inkscape:pageshadow="2"
   inkscape:pageopacity="0.0"
   guidetolerance="10.0"
   gridtolerance="10.0"
   objecttolerance="10.0"
   borderopacity="1.0"
   bordercolor="#666666"
   pagecolor="#ffffff"
   id="base"
   showgrid="false"
   inkscape:zoom="0.44255289"
   inkscape:cx="311.62214"
   inkscape:cy="303.98603"
   inkscape:window-x="-1"
   inkscape:window-y="-11"
   inkscape:current-layer="g7" />

	<g
   id="UnitedStatesOfMexico"
   fill="#ff0000"
   style="stroke:#000000;fill:#008000;fill-opacity:1;stroke-opacity:1;stroke-width:1.50000007000000000;stroke-miterlimit:4;stroke-dasharray:none;stroke-linejoin:miter;fill-rule:nonzero"> <!-- United States of Mexico -->

		<path
   fill="#000000"
   d="M712.494,584.441    c-3.96-3.672-8.136-7.632-9.288-8.856c-2.16-2.088-2.16-2.088-0.216-1.656c1.152,0.288,1.728,0.144,1.44-0.36    c-0.576-0.864-4.032-2.376-6.624-2.952c-2.736-0.504-4.68-2.016-9.576-7.272c-2.664-2.88-5.328-5.328-5.904-5.328    c-0.792,0-0.792-0.288-0.144-1.08s0.288-1.368-1.296-2.088c-1.872-0.864-2.016-0.864-1.152,0.216    c2.16,2.52-0.936,1.224-6.264-2.664c-2.952-2.088-5.76-4.032-6.264-4.32c-0.648-0.288-0.648-0.648,0.144-0.936    c1.656-0.792,1.296-2.16-0.648-2.16c-1.152,0-1.872-0.72-2.232-2.376c-0.288-1.296-1.152-3.816-1.872-5.544    c-1.296-3.096-1.224-3.528,1.512-11.736c1.512-4.752,3.096-8.928,3.456-9.432c0.36-0.504,0.864-1.944,1.152-3.24    c0.36-1.368,1.656-2.952,3.024-3.672c2.592-1.296,4.536-4.608,4.536-7.776c0-1.08,0.936-2.88,2.232-4.032    c1.584-1.512,2.088-2.736,1.8-4.32c-0.576-3.024,1.8-7.848,3.888-7.848c2.592,0,4.824,2.736,5.4,6.552    c0.792,5.904,2.016,8.28,4.32,8.28c1.152,0,2.736,0.72,3.6,1.728c0.864,0.936,2.016,1.728,2.52,1.728    c1.224-0.072,4.176-3.096,6.264-6.624c3.024-4.824,6.336-8.136,8.136-8.136c1.008,0,2.808-0.648,4.032-1.44    c2.16-1.44,2.376-1.368,6.12,1.296c2.088,1.512,4.248,2.736,4.68,2.736c1.44,0,2.592,3.096,1.584,4.176    c-1.44,1.368,0.288,3.096,4.392,4.464c1.872,0.648,3.24,1.584,3.096,2.088c-0.216,0.576,1.44,2.16,3.744,3.6    c2.304,1.368,5.76,4.248,7.776,6.408c2.376,2.448,4.176,3.6,5.04,3.312c0.72-0.288,1.296-0.216,1.296,0.216    s1.296,1.224,2.88,1.728c2.952,1.008,5.976,4.248,7.056,7.56c0.36,1.152,2.088,2.448,4.464,3.384    c3.816,1.44,3.888,1.584,2.52,3.096c-1.008,1.08-1.368,2.736-1.152,5.4l0.36,3.888l-14.4,0.576    c-7.848,0.288-16.56,0.792-19.368,1.08l-4.968,0.504l-5.112,9.72c-2.88,5.256-5.544,10.008-5.976,10.512    c-2.016,2.304-1.872,5.328,0.288,7.416c2.16,2.016,2.808,5.04,1.296,6.552c-0.72,0.72-0.936,3.024-0.936,9.864    c0,2.16-1.368,4.392-2.736,4.392C719.982,591.065,716.382,588.113,712.494,584.441z"
   id="Chiapas"
   style="fill:#b3b3b3;fill-opacity:1;stroke:#000000;stroke-opacity:1;stroke-width:1.50000007000000000;stroke-miterlimit:4;stroke-dasharray:none;stroke-linejoin:miter;fill-rule:nonzero" /> <!-- Chiapas -->

		<path
   fill="#000000"
   d="M586.494,559.673    c-0.792-0.432-3.384-1.152-5.76-1.584c-2.448-0.504-6.048-1.944-7.992-3.24c-2.736-1.8-5.112-2.52-10.656-3.024    c-3.888-0.36-8.568-0.864-10.44-1.008c-1.944-0.216-4.248-1.224-5.616-2.592c-4.248-3.96-8.208-5.832-12.528-5.832    c-2.304,0-4.176-0.216-4.176-0.576c0-0.288,0.864-1.44,1.944-2.52c1.08-1.08,2.376-2.376,2.88-2.88    c0.432-0.504,2.88-2.808,5.472-5.112l4.536-4.104l-0.792-4.248c-0.648-3.384-1.584-4.968-4.752-7.848    c-4.536-4.176-5.688-7.2-5.904-16.2c-0.216-8.064,0.936-10.368,5.256-10.368c1.656,0,4.248,0.432,5.904,1.008    c3.888,1.44,5.472,0,3.672-3.24c-1.008-1.944-1.008-2.592,0.144-4.608c1.584-2.88,4.248-3.6,4.248-1.152    c0,1.008,0.432,2.016,0.936,2.376c0.504,0.288,1.296,1.512,1.728,2.664c0.936,2.52,2.16,2.664,3.384,0.36    c0.792-1.44,1.8-1.656,7.848-1.512c5.688,0.144,7.272-0.144,9.288-1.656c2.808-2.088,7.992-11.232,8.064-14.112    c0.072-1.512,0.432-1.944,1.44-1.512c0.72,0.288,1.728,0.504,2.16,0.504c1.296,0,4.248,3.744,4.248,5.4    c0,0.864,0.432,1.512,0.936,1.512s1.368,1.224,1.872,2.736c1.008,3.024,3.528,4.248,8.712,4.248c2.304,0,3.888,0.504,4.68,1.512    c1.584,2.088,1.512,6.696-0.072,8.064c-1.368,1.08-1.152,3.96,0.576,7.56c1.368,2.808,7.92,3.672,10.512,1.44    c2.736-2.304,8.352-5.04,9-4.392c0.36,0.36,0.144,0.576-0.432,0.576c-3.6,0,2.88,8.496,7.92,10.368    c1.512,0.576,2.376,1.512,2.376,2.664c0,1.008,0.504,1.8,1.08,1.8c5.256,0,28.8,0.864,29.016,1.08    c0.144,0.144-1.512,5.04-3.672,10.872l-3.816,10.656l1.728,3.384c1.872,3.672,2.232,6.12,1.008,6.12    c-0.432,0-1.008-0.576-1.296-1.368c-0.288-0.72-1.008-1.08-1.512-0.72c-0.504,0.288-2.088-0.288-3.456-1.296    c-2.952-2.16-3.384-2.232-3.384-0.504c0,0.72,0.648,1.584,1.512,1.872c3.816,1.296,9.72,4.176,9.72,4.68    c0,0.36-2.592-0.432-5.832-1.872c-3.24-1.368-7.272-2.52-8.928-2.52c-3.744,0-6.048-1.224-3.888-2.016    c0.792-0.36,1.8-0.36,2.232-0.072c0.432,0.216,0.792,0.072,0.792-0.432c0-0.504-0.792-1.296-1.8-1.872    c-1.44-0.72-2.16-0.648-3.312,0.432c-2.016,1.8-2.664,1.728-2.664-0.432c0-2.664-2.376-3.024-4.32-0.72    c-1.944,2.448-1.512,3.672,1.08,2.88c1.296-0.36,1.656-0.288,1.008,0.36c-0.432,0.504-1.8,1.08-3.024,1.296    c-1.224,0.216-0.216,0.216,2.16,0.072c3.024-0.216,3.96-0.072,3.096,0.504c-0.72,0.504-3.744,0.864-6.624,0.864    c-5.112,0-5.544,0.216-8.712,3.456c-1.872,1.944-4.104,3.528-4.968,3.528c-0.792,0-2.448,0.576-3.672,1.368    c-1.152,0.792-3.672,1.728-5.616,2.16c-1.872,0.432-5.328,1.944-7.56,3.312c-2.304,1.44-5.544,2.808-7.2,3.024    C589.518,560.321,587.79,560.394,586.494,559.673z"
   id="Oaxaca"
   style="fill:#cccccc;fill-opacity:1;stroke:#000000;stroke-opacity:1;stroke-width:1.50000007000000000;stroke-miterlimit:4;stroke-dasharray:none;stroke-linejoin:miter;fill-rule:nonzero" /> <!-- Oaxaca -->

		<path
   fill="#000000"
   d="M526.158,540.233    c-0.216-0.72-0.864-1.296-1.296-1.296c-0.504,0-1.8-1.152-2.952-2.448c-1.656-2.016-2.808-2.52-5.976-2.592    c-2.736,0-4.464-0.576-5.904-1.872c-1.08-1.008-2.088-1.44-2.232-0.936c-0.504,1.44-2.592,1.008-4.464-1.008    c-1.296-1.368-2.376-1.728-4.32-1.296c-1.44,0.288-2.88,0.216-3.096-0.216c-0.576-1.008-3.96-1.8-3.96-1.008    c0,0.36,0.864,1.08,1.944,1.584c1.944,0.936,1.944,1.008,0.144,1.008c-1.008,0.072-2.376-0.504-3.024-1.296    c-0.648-0.72-3.096-2.376-5.544-3.6c-2.376-1.152-5.112-2.808-5.904-3.528c-1.224-1.08-1.728-1.152-2.232-0.36    c-0.648,1.08-3.6,0.576-3.6-0.648c0-0.288-1.296-0.576-2.952-0.648c-1.584-0.072-5.904-1.512-9.576-3.24    c-3.672-1.728-7.056-3.096-7.488-3.096s-0.792-0.576-0.792-1.296c0-0.72-1.8-2.304-3.96-3.528    c-2.088-1.296-3.888-2.808-3.888-3.456c0-1.368-3.6-3.816-6.768-4.464c-1.44-0.288-3.456-1.944-5.256-4.392    c-2.952-3.888-7.992-6.84-10.224-5.976c-0.864,0.288-1.224-0.36-1.224-2.52c0-2.448,0.504-3.312,2.448-4.32    c4.104-2.088,4.896-3.528,3.6-6.624c-0.936-2.232-0.864-2.808,0.504-4.32c2.016-2.232,6.048-2.232,8.208,0    c1.44,1.44,2.448,1.656,5.472,1.152c6.696-1.08,14.688-0.432,24.264,1.944c1.8,0.432,2.376,0.216,2.88-1.296    c0.288-1.008,0.432-2.88,0.288-4.176c-0.216-2.52,0.576-4.536,1.944-4.536c1.08,0,3.456,5.76,3.456,8.352    c0,1.44,0.576,2.16,2.304,2.592c1.872,0.504,2.664,0.072,4.464-2.16c1.872-2.232,2.88-2.736,5.832-2.736    c3.168,0,3.744-0.288,4.608-2.448c0.864-2.088,1.44-2.376,3.672-2.016c3.024,0.432,5.472,2.448,6.336,5.184    c0.72,2.232,3.672,3.24,5.328,1.872c0.72-0.576,1.224-0.72,1.224-0.288c0,1.08,8.496,9.864,9.504,9.864    c0.504,0,1.368,0.72,2.016,1.512c1.368,1.872,4.536,3.744,6.336,3.744c0.792,0,2.376,1.008,3.6,2.232    c2.16,2.088,2.232,2.592,1.728,8.856c-0.36,5.112-0.144,7.128,0.792,8.424c0.72,0.936,1.296,2.376,1.296,3.24    c0,0.864,0.288,1.584,0.648,1.584c0.432,0,2.16,1.224,3.816,2.808c2.448,2.232,3.24,3.672,3.6,6.84    c0.504,3.888,0.36,4.248-2.808,7.128c-1.872,1.656-4.248,3.456-5.184,4.032c-1.008,0.504-1.872,1.44-1.872,2.088    c0,0.576-1.152,1.944-2.592,3.024C527.094,541.313,526.662,541.385,526.158,540.233z"
   id="Guerrero"
   style="fill:#cccccc;fill-opacity:1;stroke:#000000;stroke-opacity:1;stroke-width:1.50000007000000000;stroke-miterlimit:4;stroke-dasharray:none;stroke-linejoin:miter;fill-rule:nonzero" /> <!-- Guerrero -->

		<path
   fill="#000000"
   d="M740.286,503.585    c-0.36-0.36-0.576-1.224-0.576-2.016c0-0.864-1.44-1.944-3.672-2.736c-3.024-1.152-3.672-1.8-3.528-3.312    c0.288-2.304-1.152-5.256-2.592-5.328c-0.576,0-2.448-1.152-4.104-2.592c-3.24-2.736-6.48-3.24-9-1.296    c-0.937,0.648-2.232,1.008-2.952,0.72c-1.296-0.504-3.744,1.944-7.56,7.56c-2.808,4.248-5.328,6.984-6.336,6.984    c-0.504,0-1.368-0.576-2.016-1.296c-0.576-0.72-1.944-1.368-3.096-1.368c-2.52,0-2.952-0.648-3.528-6.264    c-0.648-5.4-3.168-8.496-7.2-8.496c-2.088,0-2.952,0.576-4.032,2.736c-0.792,1.584-1.224,3.744-0.936,5.112    c0.36,1.8-0.072,2.88-1.584,4.32c-1.08,1.008-2.304,3.096-2.592,4.68l-0.648,2.736l-0.864-2.16c-1.8-4.536-3.24-6.552-5.04-7.488    c-3.24-1.728-7.632-7.2-8.064-10.152c-0.288-1.512-0.72-3.6-1.08-4.608c-0.432-1.368,0-2.232,1.872-3.384    c1.584-1.08,2.52-1.296,2.736-0.576c0.432,1.44,1.368,1.224,3.672-0.792c1.08-0.936,2.664-1.728,3.528-1.728    c0.864,0,1.872-0.432,2.16-1.008c0.648-0.936-0.936-0.792-5.4,0.648c-1.44,0.432-1.44,0.432,0.072-0.576    c1.8-1.152,12.6-3.384,16.128-3.384c1.584,0,1.872,0.216,1.008,0.792c-1.008,0.576-1.008,0.792,0,1.152    c0.648,0.216,1.656-0.144,2.304-0.792c0.648-0.576,2.592-1.512,4.32-2.016c1.8-0.432,4.464-1.944,5.904-3.24    c2.448-2.232,5.976-4.608,6.84-4.608c0.216,0,0.504,1.296,0.648,2.808c0.288,2.664,0.504,2.88,3.744,3.096    c4.248,0.36,5.688,2.016,5.688,6.696c0,4.392,0.432,4.968,4.896,7.272c2.016,1.008,3.888,2.232,4.176,2.736    c0.72,1.08,6.552,1.152,8.136,0.144c0.648-0.432,1.08-1.728,0.864-2.808c-0.216-1.728,0.144-2.16,2.088-2.376    c1.224-0.144,3.888,0.504,5.832,1.512c1.872,1.008,4.824,1.8,6.48,1.8c1.872,0,3.168,0.504,3.456,1.296    c0.288,0.72,0.792,6.048,1.08,11.736l0.576,10.44h-5.616C743.382,504.162,740.574,503.874,740.286,503.585z"
   id="Tabasco"
   style="fill:#e6e6e6;fill-opacity:1;stroke:#000000;stroke-opacity:1;stroke-width:1.50000007000000000;stroke-miterlimit:4;stroke-dasharray:none;stroke-linejoin:miter;fill-rule:nonzero" /> <!-- Tabasco -->
		
		<path
   fill="#000000"
   d="M528.822,489.042    c-0.936-0.648-2.952-1.44-4.464-1.8c-1.584-0.36-2.808-0.936-2.808-1.296c0-0.432-2.016-2.232-4.392-4.032l-4.32-3.312l3.6-2.016    c2.448-1.368,3.888-1.728,4.608-1.152c1.44,1.152,2.232,0.288,2.232-2.52c0-1.296,0.432-2.808,1.008-3.384    c0.864-0.792,0.864-1.44,0.072-2.736c-0.648-1.08-0.72-1.872-0.216-2.232c0.504-0.288,0.864-4.896,0.864-10.44    c0-9.144,0.144-9.936,1.584-9.936c0.936,0,2.736,1.512,4.104,3.528c1.368,1.944,3.528,4.104,4.968,4.824    c2.52,1.296,5.832,0.936,5.832-0.648c0-0.504,1.08-0.648,2.592-0.36c2.016,0.504,2.736,0.216,3.528-1.296    c0.648-1.224,1.584-1.728,2.664-1.44c0.864,0.216,2.088-0.144,2.592-0.792c0.864-1.008,0.576-1.656-1.296-3.384    c-1.296-1.224-2.88-2.16-3.6-2.16c-0.72,0-1.224-0.576-1.224-1.296c0-0.648-1.944-2.16-4.32-3.24    c-4.896-2.232-6.048-4.536-4.104-8.28c0.72-1.368,1.512-3.744,1.872-5.4c0.576-2.52,0.36-3.168-1.44-4.536    c-1.152-0.864-1.512-1.584-0.864-1.584c1.584,0,7.92-6.984,8.136-8.928c0.072-0.792,0.144-2.232,0.216-3.024    c0.072-2.088,2.952-4.824,4.464-4.248c0.648,0.288,1.152,1.368,1.008,2.376c-0.144,1.368,0.648,2.52,2.592,3.744    c3.312,2.16,3.24,3.384-0.288,3.96c-2.376,0.432-2.52,0.72-2.808,5.112c-0.216,4.176,0,4.824,2.232,6.696    c3.024,2.664,4.032,2.664,6.048-0.144l1.656-2.232l3.024,1.584c1.656,0.864,3.096,1.656,3.312,1.8    c0.144,0.072-0.504,1.224-1.368,2.592c-2.16,3.096-5.472,13.032-5.328,15.912c0.216,3.24,1.296,4.176,6.48,5.688    c5.256,1.512,5.328,2.736,0.288,3.528c-3.24,0.504-4.896,2.232-3.816,3.888c0.288,0.504-0.36,2.592-1.368,4.68    c-2.376,4.896-2.016,6.696,1.368,7.704c1.944,0.504,2.88,1.512,3.456,3.456c0.864,2.88,2.016,3.24,6.552,2.088    c1.872-0.504,2.448-0.144,3.456,1.656c1.152,2.088,1.008,2.376-1.584,4.752c-2.952,2.664-4.32,2.88-13.392,2.592    c-2.88-0.144-5.112,0.216-5.472,0.792c-0.864,1.368-4.104-2.952-3.456-4.608c1.44-3.816-4.968-1.944-7.056,2.016    c-1.224,2.52-1.224,2.952,0,4.824c1.584,2.448,0.432,3.528-2.304,2.016c-2.808-1.512-8.712-1.44-10.296,0.144    C531.774,490.266,530.766,490.337,528.822,489.042z"
   id="Puebla"
   style="fill:#cccccc;fill-opacity:1;stroke:#000000;stroke-opacity:1;stroke-width:1.50000007000000000;stroke-miterlimit:4;stroke-dasharray:none;stroke-linejoin:miter;fill-rule:nonzero" /> <!-- Puebla -->
		
		<path
   fill="#000000"
   d="M476.118,475.793    c-0.36-0.36-0.576-1.44-0.576-2.376c0-1.008-0.648-3.456-1.368-5.4c-1.368-3.528-1.368-3.744,0.864-8.208    c1.728-3.312,2.592-6.768,3.168-12.888c0.864-8.424,2.088-13.176,3.456-13.176c0.36,0,0.72-1.728,0.72-3.816    c0-2.232,0.576-4.392,1.296-5.112c0.648-0.72,1.008-1.584,0.648-1.872c-0.288-0.288,0.36-0.792,1.44-1.08    c1.152-0.288,1.8-1.008,1.512-1.729c-0.648-1.584,0.288-1.44,3.384,0.576c1.44,0.936,3.888,1.728,5.4,1.728    c3.096,0,4.104,1.224,5.04,6.336c0.576,2.952,0.864,3.24,3.456,3.24c2.088,0,2.952-0.432,3.312-1.728    c0.504-1.872,4.536-3.888,5.976-2.952c0.504,0.288,0.648,1.584,0.432,2.88c-0.504,2.304-0.432,2.376,4.464,2.304    c4.608-0.072,4.968,0.072,5.76,2.304c0.72,2.088,0.576,2.664-1.152,3.816c-1.584,1.08-1.728,1.584-0.864,2.16    c1.728,1.008,2.304,18.072,0.648,19.152c-2.16,1.296-4.248,0.864-4.248-1.008c0-0.936-0.576-1.728-1.296-1.728    c-0.936,0-1.296-0.936-1.296-3.24c0-1.8-0.576-4.248-1.224-5.472c-0.72-1.152-1.944-3.456-2.736-4.968    c-1.512-2.952-3.024-3.744-3.024-1.656c0,0.72-1.224,2.52-2.664,4.176c-2.664,2.808-2.736,2.952-1.656,7.056    c1.152,4.608,0.864,5.4-4.32,10.944c-2.304,2.52-3.096,2.808-5.616,2.376c-2.592-0.504-2.952-0.288-3.96,2.088    c-0.936,2.304-1.512,2.592-4.824,2.592c-3.168,0-4.032,0.432-5.616,2.592C478.926,476.226,477.27,476.945,476.118,475.793z"
   id="Mexico"
   style="fill:#b3b3b3;fill-opacity:1;stroke:#000000;stroke-opacity:1;stroke-width:1.50000007000000000;stroke-miterlimit:4;stroke-dasharray:none;stroke-linejoin:miter;fill-rule:nonzero" /> <!-- Mexico -->

		<path
   fill="#ff0000"
   d="M371.07,464.562    c-1.296-0.72-2.592-2.016-2.88-3.024c-0.36-0.936-1.152-1.728-1.8-1.728s-1.584-0.648-2.088-1.512c-0.792-1.44-0.864-1.44-0.864,0    c-0.072,1.872,0.072,1.872-3.96,0.144c-2.16-0.864-3.024-1.728-2.736-2.592c0.288-0.648,0-1.296-0.576-1.368    c-2.016-0.288-2.808-0.504-5.256-1.44c-1.296-0.576-2.88-1.08-3.456-1.08c-2.088-0.144,4.32-2.376,10.08-3.456    c4.392-0.864,5.976-1.584,6.336-2.808c0.432-1.368,1.08-1.584,3.528-1.152c1.584,0.36,4.536,0.072,6.408-0.504    c5.04-1.44,5.688-0.432,5.4,7.776c-0.144,3.672-0.576,6.84-0.936,7.128c-0.432,0.216-1.008,1.296-1.296,2.304    c-0.36,1.008-1.296,2.448-2.088,3.168C373.59,465.569,373.086,465.642,371.07,464.562z"
   id="Colima"
   style="fill:#88bb88;fill-opacity:1;stroke:#000000;stroke-opacity:1;stroke-width:1.50000007000000000;stroke-miterlimit:4;stroke-dasharray:none;stroke-linejoin:miter;fill-rule:nonzero" /> <!-- Colima -->

		<g
   id="Campech"
   fill="#ff0000"
   style="fill:#e6e6e6;fill-opacity:1;stroke:#000000;stroke-opacity:1;stroke-width:1.50000007000000000;stroke-miterlimit:4;stroke-dasharray:none;stroke-linejoin:miter;fill-rule:nonzero"> <!-- Campeche -->
			<path
   d="M762.318,400.481     c0,2.808,0,2.808,4.176,2.808c2.304,0,4.536-0.36,4.968-0.792c0.504-0.504,4.68,3.528,10.944,10.728l10.152,11.52l1.368,9.936     c1.512,11.088,4.536,47.52,3.96,48.024c-0.216,0.216-8.568,0.792-18.648,1.368c-10.008,0.576-20.304,1.224-22.752,1.512     l-4.464,0.504l-0.288-2.952c-0.288-2.736-0.504-2.88-4.176-3.384c-2.16-0.288-5.76-1.44-8.064-2.52     c-3.456-1.8-4.392-1.944-6.336-1.008c-1.872,0.864-2.232,1.44-1.8,3.168c0.504,2.016,0.36,2.16-2.736,2.16     c-4.032,0-12.096-4.104-12.744-6.48c-0.288-1.008-0.504-3.168-0.504-4.896c0-3.888-1.296-5.112-5.4-5.112     c-2.736,0-3.384-0.36-3.816-2.232c-1.08-4.248-0.144-4.824,7.92-4.608c4.752,0.072,7.704,0.576,8.352,1.296     c1.8,2.16-0.072,3.024-5.4,2.376c-3.744-0.432-5.112-0.288-5.112,0.504c0,0.648,0.648,0.792,1.728,0.432     c1.008-0.288,3.888,0.144,6.408,0.936c4.248,1.296,4.536,1.584,4.176,3.744l-0.432,2.304l1.8-1.728     c0.936-0.936,1.512-2.016,1.368-2.376c-0.576-0.936,2.664-0.792,5.4,0.216c2.088,0.792,2.304,0.72,1.872-0.864     c-0.36-1.296,0.144-1.872,2.448-2.664c4.248-1.368,5.904-6.048,2.88-8.136c-1.008-0.648-1.512-1.656-1.224-2.16     c0.36-0.576,0.072-0.72-0.792-0.432c-0.72,0.288-1.296,0.864-1.296,1.296c0,0.432-0.432,0.792-0.936,0.792     c-2.016,0-0.504-1.728,4.392-5.112c2.88-2.016,5.616-3.6,6.048-3.6s2.736-1.872,5.04-4.248c4.104-4.032,4.248-4.392,5.184-11.448     c0.72-5.832,1.296-7.488,2.88-8.712c1.872-1.368,2.016-2.016,1.872-10.944c-0.072-5.184,0.288-10.008,0.72-10.728l0.144-4.32     c0-1.224,0.144-1.728,0.432-1.08C762.102,395.801,762.246,398.177,762.318,400.481z"
   id="CampecheMainland"
   style="fill:#e6e6e6;fill-opacity:1;stroke:#000000;stroke-opacity:1;stroke-width:1.50000007000000000;stroke-miterlimit:4;stroke-dasharray:none;stroke-linejoin:miter;fill-rule:nonzero" /> <!-- Campeche mainland -->
			<path
   d="M727.11,458.585     c1.872-1.224,3.888-2.16,4.464-2.232c0.576,0,1.224-0.504,1.44-1.08c0.288-0.576,0.504-0.648,0.504-0.144     c0.144,1.728-4.176,4.968-7.056,5.256l-2.88,0.288L727.11,458.585z"
   id="CampecheIsland"
   style="fill:#e6e6e6;fill-opacity:1;stroke:#000000;stroke-opacity:1;stroke-width:1.50000007000000000;stroke-miterlimit:4;stroke-dasharray:none;stroke-linejoin:miter;fill-rule:nonzero" /> <!-- Campeche island -->
		</g>

		<path
   fill="#000000"
   d="M379.926,458.153    c0-0.864,0.36-3.528,0.792-5.976c0.648-3.456,0.576-4.968-0.432-6.984l-1.296-2.592l-7.56,0.216    c-6.552,0.216-7.632,0.432-8.28,1.944c-0.576,1.368-2.592,2.016-9.36,3.312c-7.92,1.44-8.64,1.44-10.008,0.144    c-0.72-0.792-2.016-1.44-2.736-1.44c-1.656,0-5.472-3.816-7.2-7.344c-0.72-1.44-2.304-3.096-3.456-3.672    c-2.088-1.008-4.32-4.104-4.392-6.192c0-1.224-3.456-6.48-4.536-6.984c-0.36-0.144-0.648-1.224-0.648-2.304    c0-1.152-0.864-3.528-1.872-5.256c-1.728-2.952-1.8-3.24-0.432-4.608c0.792-0.792,3.24-1.8,5.472-2.304    c2.232-0.504,4.464-1.584,4.968-2.448c2.16-3.528,8.064-9.288,9.576-9.288c0.864,0,2.952-0.792,4.536-1.8    c3.672-2.232,5.616-1.728,10.656,2.952l3.888,3.456l1.152-3.96c0.648-2.232,1.584-4.32,2.016-4.608    c1.296-0.72,1.08-3.816-0.432-5.256c-1.656-1.656-0.792-4.104,1.152-3.024c2.016,1.08,5.112-0.648,5.832-3.312    c0.432-1.8,0.072-2.664-1.8-4.248c-2.232-1.944-2.304-2.304-1.368-5.328c1.296-4.392,1.368-3.96-2.088-7.776l-3.024-3.384    l1.368-6.192c1.512-6.48,2.376-7.416,7.344-7.488c1.728,0,2.232-0.504,2.448-2.52c0.144-1.368-0.216-2.808-0.792-3.168    c-1.872-1.224-0.144-3.6,2.376-3.312c2.376,0.288,4.032,2.448,1.872,2.448c-1.08,0-2.52,3.96-3.888,10.8    c-0.432,1.872-0.216,2.376,0.648,2.088c1.296-0.432,2.88-3.024,4.32-7.128c0.72-2.088,1.08-2.304,2.16-1.368    c0.792,0.648,1.008,1.44,0.504,2.016c-0.432,0.576-1.08,3.168-1.44,5.904l-0.576,4.896l2.736,0.576    c3.456,0.792,5.256-0.648,5.256-4.176c0-3.528,2.088-4.896,5.832-3.888c3.384,0.936,3.384,1.224,1.008,7.776    c-1.728,4.752-2.016,5.112-4.464,4.896c-1.512-0.144-2.808,0.288-3.024,0.864c-0.216,0.576,0.216,1.08,1.008,1.08    c0.72,0,1.368,0.432,1.368,0.864c0,1.008-3.096,1.8-5.616,1.512c-1.296-0.144-1.728,0.288-1.512,1.296    c0.144,0.864-0.216,1.584-0.72,1.584s-0.72,0.648-0.432,1.584c0.288,0.936-0.216,2.16-1.296,3.168    c-0.936,0.864-2.376,3.672-3.168,6.192c-0.792,2.592-2.016,4.68-2.592,4.68c-1.944,0-1.296,2.448,0.792,3.096    c1.08,0.36,2.376,1.224,2.88,1.944c0.72,1.008,1.728,1.152,4.392,0.576c1.8-0.432,5.112-0.792,7.272-0.792    c13.104-0.288,13.464-0.36,17.712-3.672c4.536-3.528,5.328-6.696,2.304-9.432c-2.304-2.016-2.232-2.88,0.36-4.032    c1.728-0.792,2.952-0.648,6.624,0.936c5.184,2.232,7.488,1.8,11.88-2.232c1.512-1.368,3.96-3.6,5.472-4.968l2.808-2.448    l2.736,2.664c1.512,1.512,3.384,2.736,4.176,2.736c1.224,0,1.296,0.432,0.648,2.664c-0.432,1.512-1.44,3.744-2.304,5.04    c-1.008,1.512-1.44,3.456-1.296,5.832c0.288,3.24,0.072,3.672-2.304,4.608c-1.44,0.648-2.808,1.944-3.096,3.096    s-1.944,3.744-3.672,5.832c-4.608,5.472-5.112,6.984-3.384,9.648c1.368,2.16,1.368,2.376-0.504,4.896    c-1.512,2.016-2.808,2.736-5.904,3.168c-5.472,0.72-9.288,2.016-10.512,3.384c-0.504,0.648-3.6,1.656-6.84,2.232    c-6.768,1.08-7.2,1.368-8.64,4.608c-1.296,2.952-0.792,4.104,1.8,4.104c1.08-0.072,3.744,0.648,5.976,1.44    c3.816,1.368,4.032,1.584,3.24,3.6c-0.576,1.512-0.504,3.6,0.144,6.408c0.864,3.744,1.224,4.104,3.024,3.672    c1.08-0.288,2.232-0.072,2.52,0.432c0.936,1.44-2.952,5.904-5.688,6.48c-1.368,0.288-4.608,2.232-7.272,4.464    c-3.744,2.952-5.328,3.816-6.912,3.384c-1.08-0.288-3.456-0.072-5.184,0.36C380.286,459.593,379.926,459.521,379.926,458.153z"
   id="Jalisco"
   style="fill:#cccccc;fill-opacity:1;stroke:#000000;stroke-opacity:1;stroke-width:1.50000007000000000;stroke-miterlimit:4;stroke-dasharray:none;stroke-linejoin:miter;fill-rule:nonzero" /> <!-- Jalisco -->

		<path
   fill="#000000"
   d="M509.382,455.489    c-2.448-0.36-3.096-0.936-3.672-3.168c-0.648-2.376-0.36-3.096,2.304-5.976c2.736-2.952,3.096-3.168,3.6-1.656    c0.36,0.936,1.152,2.304,1.728,3.024c0.648,0.72,1.368,2.736,1.584,4.464C515.358,455.706,514.422,456.281,509.382,455.489z"
   id="Federal"
   style="fill:#b3b3b3;fill-opacity:1;stroke:#000000;stroke-opacity:1;stroke-width:1.50000007000000000;stroke-miterlimit:4;stroke-dasharray:none;stroke-linejoin:miter;fill-rule:nonzero" /> <!-- Federal -->
		
		<path
   fill="#000000"
   d="M526.23,436.553    c-1.656-5.256-1.872-5.4-6.408-5.4c-4.104,0-4.392-0.144-4.392-2.232c0-1.224-0.576-2.376-1.296-2.664    c-2.016-0.792-6.048,0.936-6.984,3.024c-1.368,3.168-4.176,2.016-5.184-2.088c-1.224-4.824-1.872-5.616-5.04-5.616    c-3.168-0.072-10.008-3.816-8.496-4.752c0.504-0.288,0.936-2.016,0.936-3.744c0-3.024,0.288-3.384,4.536-5.544    c3.096-1.512,4.464-2.664,4.32-3.672c-0.144-0.792,0.936-3.6,2.376-6.264s2.664-5.4,2.664-6.048c0-1.008,0.288-1.08,1.584-0.288    s2.088,0.72,3.888-0.648c1.224-0.864,2.664-2.52,3.168-3.6c0.792-1.8,1.08-1.872,2.88-0.792c1.08,0.72,4.032,1.44,6.624,1.728    l4.608,0.504l-0.288-2.952c-0.216-1.872,0-3.168,0.72-3.384c1.44-0.576,2.16,0.648,1.512,2.448    c-0.792,2.016,2.952,5.904,5.04,5.256c0.864-0.288,1.584-0.144,1.584,0.288c0,0.432,0.792,1.08,1.8,1.296    c1.656,0.432,1.728,0.576,0.432,3.096c-0.792,1.44-1.152,3.24-0.864,3.96c0.648,1.584,0,1.728-2.304,0.504    c-1.296-0.72-1.944-0.504-3.096,1.296c-0.792,1.224-1.944,2.16-2.592,2.16c-0.72,0-1.224,0.648-1.224,1.296    c0,0.72,0.576,1.368,1.224,1.368c1.08,0,1.08,0.36-0.072,2.592c-1.44,2.88-0.864,7.632,1.008,8.352    c1.728,0.648,4.608-1.152,8.64-5.4c3.96-4.248,5.256-4.608,6.552-2.232c0.72,1.368,0.216,2.304-2.376,5.04    c-1.8,1.8-3.816,3.312-4.464,3.312c-2.16,0.072-2.016,2.088,0.288,3.528c1.8,1.224,2.088,1.944,1.656,4.176    c-0.288,1.512-1.08,3.384-1.728,4.176c-0.648,0.72-1.152,2.52-1.152,3.888c0,1.944-0.648,2.952-2.52,4.104    C530.478,438.569,526.806,438.569,526.23,436.553z"
   id="Hidalgo"
   style="fill:#cccccc;fill-opacity:1;stroke:#000000;stroke-opacity:1;stroke-width:1.50000007000000000;stroke-miterlimit:4;stroke-dasharray:none;stroke-linejoin:miter;fill-rule:nonzero" /> <!-- Hidalgo -->

		<path
   fill="#000000"
   d="M458.334,424.961    c-0.288-1.296-1.224-1.584-4.896-1.512c-2.448,0-5.256,0.576-6.264,1.224c-1.656,1.008-2.088,0.936-3.24-0.288    c-0.72-0.864-1.44-2.664-1.584-4.104c-0.144-1.44-0.864-2.88-1.584-3.24c-2.304-1.008-5.976-0.72-7.272,0.648    c-2.016,2.016-4.824,1.584-5.976-0.864c-0.504-1.224-1.224-2.232-1.44-2.232c-0.288,0-1.08-0.36-1.728-0.72    c-0.936-0.648-0.792-1.296,0.792-3.456c1.872-2.52,1.944-2.808,0.576-4.32c-2.16-2.376-1.872-3.672,2.016-8.352    c1.872-2.304,3.672-5.112,3.96-6.192c0.288-1.08,1.584-2.448,2.952-3.024c2.664-1.08,3.744-3.6,2.952-6.696    c-0.288-1.152,0.144-2.808,1.224-4.32c0.936-1.368,1.872-3.456,2.088-4.608c0.36-2.664,3.312-3.312,6.12-1.368    c1.08,0.72,3.312,1.368,4.968,1.368c2.304,0,3.96,0.792,6.552,3.168c1.872,1.728,4.536,3.456,5.904,3.816    c2.16,0.648,2.88,0.36,4.68-1.584c2.448-2.592,7.344-3.312,8.208-1.152c0.216,0.648,2.88,1.944,5.76,2.88    c3.24,0.936,5.4,2.088,5.4,2.808c0,0.72,0.576,1.8,1.296,2.52c1.152,1.152,1.152,1.44-0.072,2.664    c-1.008,1.008-1.8,1.152-2.952,0.504c-2.52-1.368-4.392-1.008-4.392,0.792c0,0.864-0.576,2.088-1.296,2.736    c-0.72,0.576-1.224,1.8-1.224,2.664c0,1.296-0.432,1.512-2.592,1.08c-1.728-0.36-2.592-0.144-2.592,0.504    c0,0.72-1.152,0.936-3.024,0.792c-3.96-0.36-5.832,1.944-5.112,6.192c0.288,1.728,0.792,3.456,1.152,3.96    c0.36,0.432,0.936,2.088,1.296,3.672c0.36,1.8,2.088,4.176,4.824,6.624c4.752,4.248,5.328,5.76,2.232,5.76    c-1.08,0-2.952,0.72-4.104,1.656C468.918,427.266,458.982,427.266,458.334,424.961z"
   id="Guanajuato"
   style="fill:#b3b3b3;fill-opacity:1;stroke:#000000;stroke-opacity:1;stroke-width:1.50000007000000000;stroke-miterlimit:4;stroke-dasharray:none;stroke-linejoin:miter;fill-rule:nonzero" /> <!-- Guanajuato -->

		<path
   fill="#ff0000"
   d="M480.87,424.025    c-0.504-0.576-1.008-1.44-1.008-1.944s-2.16-2.808-4.752-5.04c-3.168-2.808-4.896-5.04-5.256-6.984    c-0.36-1.584-0.936-3.24-1.296-3.672c-0.936-1.224-1.224-4.968-0.504-6.624c0.36-0.864,1.8-1.44,3.816-1.512    c1.728-0.072,3.312-0.504,3.456-0.936c0.216-0.504,1.44-0.648,2.88-0.36c2.088,0.432,2.448,0.216,2.448-1.224    c0-1.008,0.576-2.232,1.296-2.808c0.72-0.648,1.296-1.872,1.296-2.808c0-1.296,0.36-1.584,1.512-1.152    c3.528,1.44,4.464,1.368,6.192-0.504c1.872-1.944,1.872-1.944,0.144-3.6c-2.016-1.872-2.016-1.656-0.864-4.536l0.792-2.16    l4.104,2.16c4.824,2.592,6.408,2.664,6.408,0.504c0-2.232,2.952-5.76,4.176-4.968c0.576,0.36,1.008,1.224,1.008,1.944    c0,0.72,1.008,3.024,2.232,5.112l2.232,3.744l-2.448,2.232c-1.368,1.296-2.592,1.872-2.736,1.368    c-0.72-2.088-3.312-0.648-4.464,2.448c-0.648,1.728-2.088,4.68-3.168,6.48c-1.152,1.728-1.8,3.744-1.584,4.392    c0.288,0.792-1.008,1.872-3.888,3.312c-4.176,1.944-4.392,2.232-4.392,5.328c0,2.16-0.504,3.528-1.296,3.816    c-0.72,0.288-1.296,1.44-1.296,2.592s-0.36,2.088-0.72,2.088c-0.36,0-1.224,1.008-1.944,2.16    C482.166,424.602,481.662,424.817,480.87,424.025z"
   id="Queretaro"
   style="fill:#cccccc;fill-opacity:1;stroke:#000000;stroke-opacity:1;stroke-width:1.50000007000000000;stroke-miterlimit:4;stroke-dasharray:none;stroke-linejoin:miter;fill-rule:nonzero" /> <!-- Queretaro -->
		
		<path
   fill="#000000"
   d="M375.318,389.609    c-0.792-0.144-1.512-0.648-1.512-1.08c0-0.432-0.792-1.008-1.872-1.296c-1.008-0.36-1.44-0.864-0.936-1.152    c0.432-0.36,1.296-2.016,1.872-3.816c0.576-1.728,1.728-4.104,2.664-5.184c2.088-2.736,4.32-8.208,3.672-9    c-0.36-0.36,0.432-0.432,1.656-0.072c4.752,1.08,11.304-7.632,11.52-15.48c0.144-3.168-0.072-3.456-2.88-4.176    c-4.248-1.152-6.984,0.504-6.984,4.176c0,3.312-1.584,4.824-4.176,4.176c-2.304-0.648-2.304-0.936-0.504-7.488    c1.368-4.824,1.368-5.112-0.216-6.336c-2.448-1.8-2.664-1.656-4.248,3.024c-0.792,2.448-1.8,4.608-2.232,4.896    c-1.008,0.576-1.008,0.792,0.792-4.536c0.864-2.448,2.232-5.112,3.024-5.904c2.592-2.664,1.584-3.6-4.608-4.176    c-1.872-0.216-2.232,0.144-2.448,2.592c-0.144,1.656,0.144,2.808,0.72,2.808c0.504,0,0.864,0.936,0.72,1.944    c-0.216,1.584-0.792,1.944-2.448,1.656c-1.224-0.144-2.52-0.72-2.88-1.296c-1.008-1.44-0.144-16.776,1.296-22.608    c0.648-2.808,1.872-5.544,2.664-6.192c0.864-0.576,1.512-1.44,1.512-1.944c0-0.576,0.936-1.008,2.16-1.008    c2.088,0,2.16-0.216,1.8-4.176c-0.504-5.976,0.216-8.496,2.88-9.864c1.224-0.648,3.024-2.088,3.96-3.24    c0.864-1.152,2.304-2.664,3.096-3.456s1.728-2.16,2.016-3.096c0.504-1.368,1.224-1.512,5.184-1.08    c2.448,0.288,6.264,0.792,8.424,1.224c2.16,0.36,6.264,0.504,9.144,0.216l5.184-0.432l0.288-5.832    c0.216-4.536-0.216-6.912-1.872-11.016c-1.152-2.88-1.872-5.472-1.656-5.688c1.008-1.008,9.432-0.432,12.816,0.864    c4.464,1.656,4.68,1.728,8.064,2.52c1.584,0.36,2.808,1.224,2.808,1.944c0,0.72,0.72,1.44,1.584,1.656    c0.864,0.216,1.944,1.296,2.376,2.304c0.72,1.656,1.368,1.872,4.968,1.656c2.52-0.216,4.104,0.072,4.104,0.648    c0,0.504,1.44,2.52,3.24,4.464c2.52,2.808,3.6,3.456,5.184,3.024c2.808-0.72,2.736,1.872-0.144,3.168    c-1.296,0.576-2.52,2.088-2.952,3.672c-0.576,2.232-1.08,2.664-2.952,2.448c-2.592-0.288-3.672,1.8-2.736,5.4    c0.504,1.872-0.432,3.312-6.264,9.72c-6.768,7.416-10.368,9.792-14.688,9.792c-2.88,0-9.648,3.096-10.224,4.68    c-0.216,0.648,0.288,1.8,1.152,2.592c1.224,1.008,1.512,2.088,1.152,3.96c-0.792,3.96,1.728,8.064,6.696,11.016    c2.52,1.44,4.536,3.312,4.824,4.464c0.72,2.736,2.808,4.32,3.456,2.664c0.288-0.792,1.152-1.152,2.016-0.936    c1.944,0.504,6.192-3.24,6.192-5.4c0-1.512,0.072-1.512,1.728,0c2.16,1.944,2.304,6.12,0.216,7.344    c-1.44,0.792-1.44,0.936,0,3.672c1.944,3.744,1.296,9.72-1.584,13.32l-2.016,2.52l-2.88-2.808c-1.656-1.584-3.6-2.736-4.608-2.592    c-2.736,0.288-5.688-2.016-5.688-4.464c0-1.368-1.44-3.744-3.816-6.336c-3.168-3.456-3.96-3.888-4.824-2.808    c-1.368,1.656-5.976,3.888-7.92,3.888c-0.864,0-2.016,0.792-2.52,1.728c-0.504,1.008-2.088,2.304-3.456,3.024    c-4.32,2.304-5.256,3.744-5.184,8.568c0,4.248,1.296,7.488,3.096,7.632c1.512,0.072,4.752,5.112,4.32,6.696    c-0.288,0.864-2.16,2.808-4.176,4.32c-3.672,2.88-7.632,3.528-17.208,3.024c-1.656-0.144-4.032,0.144-5.184,0.504    C377.838,389.609,376.182,389.826,375.318,389.609z"
   id="Zacatecas"
   style="fill:#cccccc;fill-opacity:1;stroke:#000000;stroke-opacity:1;stroke-width:1.50000007000000000;stroke-miterlimit:4;stroke-dasharray:none;stroke-linejoin:miter;fill-rule:nonzero" /> <!-- Zacatecas -->

		<path
   fill="#000000"
   d="M515.934,385.505    c-0.936-0.72-2.448-1.296-3.312-1.296c-1.152,0-2.304-1.512-3.816-4.752c-1.224-2.664-2.592-5.04-3.024-5.328    c-1.224-0.72-5.112,3.096-5.112,5.04c0,2.232-2.592,1.944-6.048-0.576c-3.024-2.232-5.256-1.8-5.256,1.008    c0,1.368-1.944,1.008-6.48-1.152c-1.368-0.648-2.952-1.224-3.6-1.224s-1.152-0.576-1.152-1.296c0-0.936-1.008-1.296-3.888-1.296    c-3.024,0-4.176,0.432-5.544,2.16c-2.376,3.096-4.608,2.736-8.856-1.44c-3.168-3.024-4.32-3.6-7.632-3.744    c-2.52-0.072-4.248-0.648-4.968-1.656c-0.792-1.08-1.728-1.296-3.384-0.936c-2.52,0.648-2.808-0.144-1.008-2.664    c1.8-2.592,2.736-11.376,1.296-13.104c-0.936-1.08-0.864-1.8,0.432-3.888c1.656-2.88,1.224-5.4-1.44-8.352    c-1.944-2.16-3.24-1.944-3.24,0.504c0,1.8-4.896,5.688-5.688,4.464c-0.864-1.44-2.16-1.008-2.232,0.648    c0,0.936-0.648,0.288-1.656-1.656c-0.936-1.728-2.808-3.6-4.248-4.176c-4.32-1.8-6.408-4.752-6.84-9.792    c-0.216-2.736-0.936-5.04-1.8-5.688c-0.72-0.576-1.152-1.224-0.936-1.368c2.592-1.872,5.472-3.24,7.056-3.24    c5.904,0,9.576-2.232,17.208-10.224c7.488-7.92,7.632-8.136,7.128-11.592c-0.432-3.312-0.288-3.528,1.368-3.096    c2.16,0.576,3.24-0.504,4.104-3.888c0.36-1.296,0.936-2.376,1.368-2.376c0.432,0,1.656-0.864,2.664-1.872l1.872-1.872l2.448,2.952    c2.088,2.52,2.448,3.744,2.448,8.496c0.072,4.176,0.504,6.12,1.944,8.136c1.584,2.304,1.872,3.744,1.8,10.944    c-0.144,10.512,0.072,11.376,3.312,11.376c1.44,0,2.52-0.432,2.52-0.936c0-1.152,4.68-0.216,5.112,1.008    c0.144,0.432,0.864,0.792,1.584,0.792c1.512,0,3.6,2.448,3.672,4.176c0,0.648-0.576,1.728-1.296,2.448    c-1.584,1.584-1.656,4.176-0.216,5.256c0.648,0.504,4.176,1.8,7.92,2.952c5.616,1.656,6.912,1.8,7.488,0.864    c1.152-1.872,4.392,0.648,5.616,4.32c0.792,2.664,1.44,3.096,4.824,3.744c2.16,0.36,6.84,0.504,10.368,0.288    c5.76-0.432,6.696-0.216,9.792,1.8c3.672,2.448,4.032,3.24,1.944,4.032c-0.72,0.288-1.152,1.08-0.936,1.656    c0.504,1.584-1.008,4.104-2.52,4.104c-0.864,0-1.08,0.432-0.648,1.08c0.36,0.648,0.72,1.296,0.72,1.512    c0.072,0.288,0.36,1.368,0.792,2.52c0.504,1.512,0.288,2.304-1.152,3.312c-2.16,1.512-2.304,3.528-0.504,6.12    c1.224,1.728,1.152,1.944-0.504,2.448c-1.44,0.432-1.656,1.008-1.224,3.096c0.576,2.52,0.504,2.52-3.24,2.52    C519.318,386.729,516.87,386.153,515.934,385.505z"
   id="SanLuisPotosi"
   style="fill:#cccccc;fill-opacity:1;stroke:#000000;stroke-opacity:1;stroke-width:1.50000007000000000;stroke-miterlimit:4;stroke-dasharray:none;stroke-linejoin:miter;fill-rule:nonzero" /> <!-- San Luis Potosi -->

		<g
   id="Veracruz"
   fill="#000000"
   style="fill:#cccccc;fill-opacity:1;stroke:#000000;stroke-opacity:1;stroke-width:1.50000007000000000;stroke-miterlimit:4;stroke-dasharray:none;stroke-linejoin:miter;fill-rule:nonzero"> <!-- Veracruz -->
			<path
   d="M637.974,508.41     c0-1.152-0.936-2.16-2.808-2.952c-1.584-0.648-4.176-2.592-5.832-4.32c-2.376-2.448-2.808-3.312-1.872-3.888     c1.44-0.864,0.648-3.528-1.08-3.528c-0.648,0-1.728,0.576-2.304,1.296c-0.576,0.72-1.656,1.296-2.448,1.296     c-0.72,0-2.376,1.008-3.672,2.232c-5.616,5.4-13.464-1.728-9-8.136c1.224-1.728,1.224-2.592,0.36-5.832     c-1.224-4.32-1.872-4.752-6.84-4.248c-2.016,0.144-3.6-0.072-3.6-0.504c0-0.504-0.792-0.864-1.728-0.864     c-1.008,0-1.728-0.576-1.728-1.296c0-0.72-0.792-2.088-1.728-3.096c-1.008-0.936-1.8-2.16-1.8-2.808     c-0.072-1.872-2.088-3.888-5.544-5.328c-4.536-1.872-5.112-1.8-4.464,1.008c0.36,1.584-0.072,3.312-1.368,5.4l-1.8,2.952     l-1.44-1.944c-1.44-1.872-1.656-1.872-4.68-0.576c-3.024,1.224-3.24,1.224-4.104-0.36c-0.504-0.936-0.936-2.232-0.936-2.952     c0-0.72-1.152-1.584-2.664-1.872c-3.456-0.792-3.96-2.376-1.728-5.544c1.008-1.44,1.8-3.744,1.8-5.184     c0-2.304,0.432-2.736,3.672-3.744c5.04-1.584,5.184-4.248,0.432-5.256c-4.824-1.008-6.408-2.088-6.912-4.68     c-0.576-3.096,3.24-13.32,6.048-16.416c1.8-1.944,2.016-2.52,1.008-3.168c-0.648-0.432-1.656-0.792-2.16-0.792     s-1.944-0.792-3.168-1.728c-2.232-1.728-4.968-1.584-4.968,0.36c0,2.232-1.872,3.024-3.456,1.368     c-0.864-0.792-1.944-1.656-2.448-1.872c-0.504-0.144-0.576-1.8-0.216-4.176c0.36-2.16,0.72-3.6,0.792-3.24     c0.072,0.432,1.224-0.072,2.664-1.08c2.952-2.16,2.736-3.384-0.792-5.4c-1.872-1.08-2.592-2.232-2.808-4.392     c-0.216-2.448-0.576-2.808-2.304-2.592c-2.448,0.36-5.4,3.096-5.4,5.04c0,1.152-0.216,1.224-1.296,0.36     c-1.008-0.936-1.8-0.648-4.32,1.224c-1.728,1.296-3.672,3.24-4.392,4.32c-0.72,1.08-2.232,2.448-3.456,2.952     c-2.016,0.936-2.304,0.792-3.096-1.224c-0.648-1.8-0.432-2.952,0.936-5.256l1.728-2.952l-1.944-0.792     c-1.296-0.576-1.512-0.792-0.504-0.864c0.72,0,1.944-0.864,2.592-1.872c1.08-1.584,1.584-1.728,3.096-0.936     c2.088,1.152,2.88,0.576,2.88-2.088c0-1.152,0.432-3.024,1.008-4.176c0.72-1.728,0.72-2.52-0.144-3.528     c-0.576-0.72-1.44-1.08-1.872-0.864c-0.432,0.288-0.72-0.144-0.72-0.936c0-1.008-0.504-1.224-1.8-0.864     c-2.376,0.792-5.112-1.656-4.536-3.96c0.216-0.864-0.36-3.168-1.368-5.112l-1.8-3.384l1.8-2.232     c1.296-1.656,1.584-2.952,1.152-4.824c-0.36-1.728-0.072-3.24,0.792-4.536c0.792-1.08,1.368-2.592,1.368-3.456     c0-0.792,0.576-1.656,1.296-1.944c2.088-0.792,1.584-2.016-1.944-4.392c-3.312-2.304-3.24-2.52,0.792-2.232     c1.296,0.072,2.592-0.288,2.88-0.792c0.936-1.512,1.8-1.152,6.264,2.52c2.304,1.944,4.608,3.528,5.112,3.528     c1.008,0,2.664,3.384,6.192,12.96c1.152,3.096,2.808,6.408,3.744,7.416c0.936,1.008,2.736,4.32,3.96,7.416     c1.296,3.312,1.944,4.392,1.584,2.592c-0.36-1.656-0.576-4.824-0.504-6.912c0.072-3.456-0.36-4.464-3.456-7.848     c-1.944-2.16-3.24-3.168-2.88-2.16c0.36,0.936,0.864,2.304,1.08,3.024c0.36,1.008,0.216,1.08-0.576,0.36     c-0.576-0.576-1.152-2.304-1.296-3.96c-0.144-1.584-1.296-4.464-2.52-6.336c-1.296-1.8-2.304-3.744-2.304-4.248     c0-1.296,0.792-0.288,4.752,5.832c1.8,2.736,4.536,5.832,6.12,6.768c3.24,1.872,4.176,4.32,2.808,7.344     c-1.152,2.592,0.504,12.672,2.88,17.424c0.936,1.8,1.656,3.816,1.656,4.464s2.232,3.384,4.968,6.12     c5.976,5.832,9.72,10.584,12.816,16.128c1.224,2.232,3.096,5.256,4.104,6.624c1.224,1.656,2.016,4.32,2.304,7.416     c0.36,4.248,0.72,5.112,3.384,7.2c1.656,1.296,3.528,3.384,4.248,4.608c0.648,1.296,1.944,2.592,2.808,2.88     c0.936,0.288,2.088,1.512,2.592,2.664c0.576,1.224,2.016,2.592,3.24,3.024c2.52,1.008,2.952,2.088,0.432,1.296     c-1.008-0.288-1.728-0.144-1.728,0.36c0,0.504,0.36,0.936,0.864,0.936c0.432,0,0.72,0.504,0.648,1.08     c-0.144,0.72,0.648,1.008,2.232,0.792c1.296-0.144,3.024,0.288,3.816,0.936c1.152,0.936,1.296,0.936,0.936-0.144     c-0.216-0.72-1.224-1.44-2.304-1.584c-1.008-0.216-1.872-0.648-1.872-1.08c0-0.432,1.512-0.216,3.456,0.432     c2.16,0.792,5.112,1.008,8.28,0.72c4.608-0.504,5.04-0.36,7.776,2.304c1.584,1.584,4.248,3.096,5.832,3.456     c1.728,0.36,3.24,1.368,3.888,2.592c0.576,1.08,1.368,2.376,1.872,2.88c0.504,0.504,0.72,1.512,0.432,2.304     s-0.216,1.152,0.216,0.792c0.36-0.36,1.296,0.144,1.944,1.152c1.224,1.656,1.8,1.8,7.56,1.224l6.264-0.576l1.008,3.456     c0.576,1.872,1.008,4.104,1.008,5.04c0,0.864,1.8,3.168,4.032,5.112c6.336,5.472,7.344,6.768,8.64,10.44     c1.584,4.608,1.656,4.32-1.872,6.408c-2.88,1.728-4.32,1.872-17.784,1.8C638.622,510.138,637.974,510.065,637.974,508.41z"
   id="VeracruzMainland"
   style="fill:#cccccc;fill-opacity:1;stroke:#000000;stroke-opacity:1;stroke-width:1.50000007000000000;stroke-miterlimit:4;stroke-dasharray:none;stroke-linejoin:miter;fill-rule:nonzero" /> <!-- Veracruz mainland -->
			<path
   d="M558.414,379.746     c-0.288-0.504-0.144-1.368,0.36-1.872c0.72-0.72,1.008-0.504,1.008,0.936C559.782,380.897,559.278,381.257,558.414,379.746z"
   id="VeracruzIsland"
   style="fill:#cccccc;fill-opacity:1;stroke:#000000;stroke-opacity:1;stroke-width:1.50000007000000000;stroke-miterlimit:4;stroke-dasharray:none;stroke-linejoin:miter;fill-rule:nonzero" /> <!-- Veracruz island -->
		</g>
		
		<g
   id="QuintanaRoo"
   fill="#ff0000"
   style="stroke:#000000;fill:#e6e6e6;fill-opacity:1;stroke-opacity:1;stroke-width:1.50000007000000000;stroke-miterlimit:4;stroke-dasharray:none;stroke-linejoin:miter;fill-rule:nonzero"> <!-- Quintana Roo -->
			<path
   d="M799.326,479.609     c-0.288-2.016-1.152-11.52-1.872-21.096c-0.792-9.576-1.944-21.024-2.592-25.416c-0.72-4.392-1.296-8.208-1.296-8.424     c0-0.216,2.952-2.52,6.48-5.04c8.712-6.264,37.872-28.152,40.104-30.24c2.952-2.664,5.616-13.392,4.824-19.224l-0.648-4.896     l3.24-0.576c1.8-0.288,3.528-0.864,3.816-1.368c1.152-1.8-0.504-2.376-4.536-1.656c-2.88,0.504-5.472,0.432-8.496-0.432     l-4.32-1.152l5.616,0.072c3.096,0,7.92-0.504,10.584-1.152c4.824-1.224,4.968-1.152,8.496,1.152     c1.944,1.224,4.032,2.304,4.752,2.304c0.936,0,1.44,1.656,1.872,5.832c1.008,9.216-1.008,14.616-8.568,22.536     c-1.728,1.872-3.456,4.608-3.744,6.192s-0.864,2.808-1.224,2.808c-1.512,0-2.664,6.192-2.232,11.448     c0.216,3.024,0.216,4.824,0,3.96c-0.792-2.592-2.016-1.656-3.312,2.664c-0.72,2.232-1.296,3.456-1.296,2.592     c-0.072-0.864-0.504-1.512-0.936-1.512c-1.296,0-1.08,2.232,0.288,3.384c0.936,0.72,1.44,0.648,2.304-0.36     c0.648-0.792,1.656-1.152,2.304-0.936c0.648,0.288,1.152-0.144,1.152-0.864c0-0.792,0.504-1.224,1.08-1.008     c2.592,0.864-1.224,9.648-3.888,9.072c-1.368-0.288-2.736,2.52-2.016,4.248c0.576,1.584,0.648,1.584,1.728,0.144     c0.648-0.864,1.944-1.512,2.952-1.512c2.304,0,2.376,0.36,0.144,2.592c-1.152,1.152-1.728,2.952-1.8,5.4     c0,2.088-0.36,5.688-0.792,8.064s-1.296,7.488-1.8,11.304c-0.936,6.264-2.52,10.944-2.52,7.128c0-0.792-0.432-1.44-0.936-1.44     c-0.432,0-0.792-0.36-0.72-0.648c0.288-1.44-1.872-5.472-2.952-5.472c-2.808-0.072-3.24-1.296-1.944-5.616     c1.512-4.824,1.656-8.28,0.504-8.28c-0.432,0-1.08,0.72-1.368,1.656s-1.296,1.944-2.304,2.304     c-1.224,0.36-1.44,0.792-0.792,1.584c1.368,1.728-1.44,7.92-4.176,9.216c-1.296,0.576-2.88,1.368-3.528,1.728     c-0.72,0.288-1.656,1.728-2.088,3.096c-0.432,1.44-1.584,3.672-2.592,5.04c-0.936,1.368-2.376,4.32-3.168,6.48     c-1.584,4.536-3.6,5.544-6.12,3.24c-2.448-2.232-4.752-1.368-5.04,1.944c-0.288,2.592-0.576,2.808-3.24,2.808     C799.902,483.281,799.758,483.138,799.326,479.609z"
   id="QuintanaRooMainland"
   style="fill:#e6e6e6;fill-opacity:1;stroke:#000000;stroke-opacity:1;stroke-width:1.50000007000000000;stroke-miterlimit:4;stroke-dasharray:none;stroke-linejoin:miter;fill-rule:nonzero" /> <!-- Quintana Roo mainland -->
			<path
   d="M850.518,429.425     c-0.288-0.504-0.144-0.864,0.36-0.864c0.576,0,0.937,0.36,0.937,0.864c0,0.432-0.145,0.864-0.36,0.864     S850.806,429.857,850.518,429.425z"
   id="QuintanaRooIsland1"
   style="fill:#e6e6e6;fill-opacity:1;stroke:#000000;stroke-opacity:1;stroke-width:1.50000007000000000;stroke-miterlimit:4;stroke-dasharray:none;stroke-linejoin:miter;fill-rule:nonzero" /> <!-- Quintana Roo island -->
			<path
   d="M861.75,396.881     c-0.72-1.944,1.296-7.488,3.024-7.992c0.792-0.288,2.088-0.864,2.952-1.296c2.016-1.08,1.872-0.36-0.936,5.256     C864.27,397.817,862.614,399.113,861.75,396.881z"
   id="QuintanaRooIsland2"
   style="fill:#e6e6e6;fill-opacity:1;stroke:#000000;stroke-opacity:1;stroke-width:1.50000007000000000;stroke-miterlimit:4;stroke-dasharray:none;stroke-linejoin:miter;fill-rule:nonzero" /> <!-- Quintana Roo island -->
			<path
   d="M866.646,371.682     c0-0.792,0.36-1.368,0.864-1.368c0.432,0,0.864,0.36,0.864,0.792s-0.432,1.08-0.864,1.368     C867.006,372.761,866.646,372.401,866.646,371.682z"
   id="QuintanaRooIsland3"
   style="fill:#e6e6e6;fill-opacity:1;stroke:#000000;stroke-opacity:1;stroke-width:1.50000007000000000;stroke-miterlimit:4;stroke-dasharray:none;stroke-linejoin:miter;fill-rule:nonzero" /> <!-- Quintana Roo island -->
			<path
   d="M866.646,365.058     c0-0.432,0.144-0.864,0.36-0.864c0.216,0,0.648,0.432,0.936,0.864c0.288,0.504,0.072,0.864-0.432,0.864     S866.646,365.562,866.646,365.058z"
   id="QuintanaRooIsland4"
   style="fill:#e6e6e6;fill-opacity:1;stroke:#000000;stroke-opacity:1;stroke-width:1.50000007000000000;stroke-miterlimit:4;stroke-dasharray:none;stroke-linejoin:miter;fill-rule:nonzero" /> <!-- Quintana Roo island -->
		</g>
		
		<path
   fill="#000000"
   d="M541.134,352.961    c-3.888-3.384-6.408-4.32-7.848-2.88c-0.36,0.36-1.872,0.648-3.384,0.72c-1.512,0-5.832,0.288-9.72,0.648    c-3.816,0.36-8.64,0.36-10.728-0.072c-3.384-0.576-4.032-1.08-4.824-3.528c-1.08-3.24-4.392-6.192-6.912-6.192    c-1.08-0.072-1.44,0.36-1.08,1.368c0.36,0.864,0.144,1.224-0.504,0.936c-1.656-0.576-10.512-3.456-11.808-3.744    c-1.224-0.36-1.512-4.68-0.216-4.68c0.432,0,1.008-0.792,1.296-1.728c0.648-2.016-2.808-7.272-4.392-6.624    c-0.648,0.288-1.008-0.648-1.008-2.664c0-2.808,0.216-3.024,2.016-2.52c1.152,0.288,2.16,0.216,2.16-0.144    s0.144-2.304,0.288-4.248c0.072-2.016,0.936-4.608,1.728-5.904c1.44-2.16,1.944-2.304,5.184-1.8    c3.096,0.432,3.888,0.216,5.328-1.44c2.088-2.448,1.872-4.464-1.008-8.208c-1.728-2.232-2.088-3.456-1.584-5.328    c1.08-4.032,0.792-7.128-0.864-8.856c-1.44-1.656-1.44-1.728,0.792-2.592c1.296-0.504,3.6-2.088,5.112-3.528    s3.456-2.592,4.32-2.592c1.728,0,3.24-2.52,3.24-5.472c0-2.16,3.096-4.464,5.328-3.96c1.44,0.36,14.328-9.216,15.552-11.52    c0.936-1.656,0.36-2.52-1.872-2.52c-1.728,0-2.376-2.52-2.664-11.232l-0.216-5.544l-3.096-0.216    c-1.656-0.144-3.456,0.144-3.96,0.576c-0.648,0.504-1.368,0.288-2.088-0.504c-0.576-0.72-2.16-1.368-3.528-1.368    c-2.448,0-3.456-1.296-3.456-4.392c0-1.008-0.576-1.656-1.584-1.656c-2.736,0-4.464-2.88-4.464-7.272c0-4.032,0-4.032-3.384-4.536    c-3.312-0.576-3.384-0.648-2.664-3.312c1.08-3.744,1.08-4.032-0.936-4.032c-1.512,0-1.656-0.36-1.224-3.384    c0.72-4.392-1.728-12.096-4.608-14.472l-2.16-1.728l3.528-2.376c3.096-2.016,3.888-2.232,5.76-1.368    c2.16,1.008,2.664,2.52,2.304,6.624c-0.072,1.08,0.288,2.808,0.864,3.888c0.576,1.08,1.008,3.24,0.936,4.752    c-0.072,1.584,0.648,4.248,1.584,5.976c0.936,1.656,1.728,4.104,1.8,5.4c0.072,2.088,0.144,2.16,0.792,0.648    c0.792-1.8,0.936-1.584,1.224,2.376c0.072,0.576,0.72,1.584,1.512,2.16s1.728,2.232,2.016,3.672    c0.432,2.016,1.08,2.592,2.664,2.592c2.736,0,6.624,1.728,8.208,3.672c0.792,0.936,3.096,1.8,5.688,2.088    c3.024,0.36,4.824,1.152,6.12,2.592c1.44,1.8,2.736,2.16,8.64,2.592c9.792,0.648,9.504,0.576,11.808,3.168    c2.88,3.168,5.688,3.888,6.408,1.728c0.504-1.584,3.816-3.168,4.752-2.304c1.152,1.224-2.016,13.608-5.04,19.512    c-1.8,3.6-3.744,8.136-4.248,10.008c-2.952,10.152-3.672,13.176-3.672,15.624c0,1.44-0.432,3.24-0.864,3.96    c-0.792,1.152-0.864,1.152-0.864,0c0.072-5.4,2.16-14.76,4.752-21.312c1.656-4.32,3.024-8.208,3.024-8.712s-0.792-1.368-1.8-2.016    c-1.008-0.648-1.584-0.72-1.224-0.216c0.288,0.576,0.288,2.232-0.072,3.744l-0.576,2.808l-1.584-1.944    c-1.872-2.376-3.096-2.448-3.672-0.144c-0.288,1.08,0,2.016,0.792,2.304c0.648,0.216,1.224,0.792,1.224,1.296    c0,0.432-0.36,0.576-0.792,0.288c-0.504-0.288-1.08-0.072-1.368,0.432c-0.288,0.432-0.144,0.864,0.432,0.864    c0.648,0,0.792,0.864,0.432,2.664c-0.36,1.584-0.216,3.096,0.432,3.888c0.792,1.008,0.792,1.368-0.216,1.728    c-0.936,0.36-1.224,1.584-0.936,5.04c0.36,4.248,0.288,4.392-1.08,2.736c-1.296-1.656-1.368-1.44-1.008,3.744    c0.432,5.04,1.512,8.712,1.512,5.04c0-1.368,0.072-1.368,1.296-0.144c1.152,1.08,1.224,1.944,0.432,4.608    c-0.504,1.8-0.936,4.824-1.008,6.768l-0.144,3.456l-0.576-3.888c-0.432-2.736-0.648-0.648-0.792,7.056    c-0.072,6.84,0.432,13.608,1.296,18.216c1.152,6.048,1.152,8.064,0.288,12.312c-0.648,2.88-1.368,4.608-1.728,4.032    c-0.648-1.008-0.792-0.648-2.232,4.608c-0.288,0.792-0.072,1.512,0.504,1.512c0.504,0,0.936-0.72,1.008-1.512    c0.072-0.864,0.432,0.792,0.72,3.672c0.36,2.88,0.504,5.328,0.432,5.472C545.238,356.345,543.366,354.905,541.134,352.961z"
   id="Tamaulipas"
   style="fill:#cccccc;fill-opacity:1;stroke:#000000;stroke-opacity:1;stroke-width:1.50000007000000000;stroke-miterlimit:4;stroke-dasharray:none;stroke-linejoin:miter;fill-rule:nonzero" /> <!-- Tamaulipas -->

		<path
   fill="#ff0000"
   d="M353.718,347.706    c-0.792-0.504-1.728-1.944-2.016-3.24c-0.36-1.296-1.08-2.664-1.656-3.024c-1.728-1.08-4.896-0.792-7.128,0.72    c-2.952,1.872-3.744,0.792-1.368-1.728c1.584-1.656,1.8-2.736,1.44-5.832c-0.288-2.16-0.72-4.464-0.936-5.256    c-0.504-1.512-9.144-4.536-11.088-3.816c-0.792,0.36-1.44-0.144-1.728-1.296c-0.288-1.08-1.152-1.728-2.304-1.728    c-1.224,0-2.376-1.224-3.96-4.32c-1.152-2.376-2.52-4.464-3.024-4.752s-0.936-1.584-0.936-2.88c0-1.296-0.504-3.168-1.224-4.176    c-0.648-0.936-1.512-4.248-1.8-7.344c-0.648-6.12-2.592-10.584-5.976-13.752c-2.088-2.016-2.52-2.088-5.76-1.08    c-3.816,1.152-6.048,0.36-6.048-2.232c0-2.52-4.68-10.368-7.92-13.392c-1.872-1.656-3.384-3.672-3.384-4.464    s-0.432-2.448-1.008-3.6c-0.648-1.44-0.72-4.68-0.36-9.576l0.648-7.488h4.68c4.536,0,8.856-1.296,10.152-3.024    c0.36-0.504,0.648-2.664,0.648-4.896c0-2.88,0.504-4.392,1.728-5.544c1.368-1.224,1.656-2.232,1.224-4.896    c-0.504-3.024-0.36-3.384,1.368-3.384c1.008,0,2.664-0.432,3.672-0.936c1.368-0.72,1.656-1.512,1.224-3.6    c-0.576-2.808,1.224-5.904,3.456-5.904c0.648,0,1.368-0.792,1.728-1.8c0.504-1.728,0.648-1.728,3.096,0.792    c1.44,1.44,3.744,2.88,5.184,3.24c1.44,0.288,3.528,1.8,4.752,3.456c2.664,3.456,7.128,5.4,7.92,3.456    c0.576-1.512,3.024-1.728,4.392-0.288c0.792,0.72,1.656,0.72,3.528-0.072c3.096-1.296,6.768-0.072,7.56,2.52    c1.008,3.24,4.032,1.728,7.92-3.888c3.024-4.248,4.248-5.328,6.84-5.832c1.872-0.432,3.888-0.288,4.824,0.144    c0.864,0.504,2.736,0.936,4.176,0.936c1.944,0,3.528,1.08,6.912,4.608c2.376,2.52,5.04,5.904,5.832,7.488    c1.44,2.736,1.44,3.024,0,6.192c-1.08,2.376-1.368,4.392-0.936,7.2c0.504,3.312,0.288,4.608-1.584,7.92    c-2.376,4.248-2.808,6.984-1.296,7.848c0.576,0.36,0.36,1.008-0.576,1.656c-1.944,1.44-1.296,3.888,2.52,10.08    c4.536,7.272,6.12,8.712,9.864,8.712c1.728,0,3.888,0.648,4.824,1.44c1.944,1.8,2.088,1.656,4.104-4.104    c0.936-2.592,1.944-4.824,2.376-4.968c1.296-0.432,4.104,7.992,4.464,13.392l0.36,5.4l-3.816,0.504    c-2.088,0.36-5.904,0.36-8.568,0.072c-14.112-1.584-15.624-1.584-16.2,0.144c-0.792,2.016-8.568,9.864-9.792,9.864    c-1.368,0-2.52,3.456-2.808,8.568c-0.216,2.88-0.72,4.464-1.44,4.464c-0.576,0-1.368,0.648-1.656,1.512    c-0.36,0.792-1.296,2.016-2.16,2.736c-2.16,1.728-3.456,8.784-3.888,21.024c-0.216,6.408-0.792,10.44-1.44,10.944    C359.694,347.994,355.23,348.569,353.718,347.706z"
   id="Durango"
   style="fill:#e6e6e6;fill-opacity:1;stroke:#000000;stroke-opacity:1;stroke-width:1.50000007000000000;stroke-miterlimit:4;stroke-dasharray:none;stroke-linejoin:miter;fill-rule:nonzero" /> <!-- Durango -->

		<path
   fill="#000000"
   d="M469.35,325.746    c-0.072-0.576,0-4.752,0.072-9.216c0.144-7.416,0-8.28-2.16-11.52c-2.088-3.096-2.304-4.248-1.944-8.424    c0.36-4.536,0.144-5.184-2.448-8.352c-2.448-3.024-2.736-4.032-2.592-7.848c0.144-2.376,0.504-4.968,0.864-5.76    c0.36-0.864,0-2.448-0.936-3.744c-1.44-2.232-1.368-2.448,0.288-4.68c1.656-2.232,2.016-2.304,8.28-2.016    c5.976,0.288,6.696,0.144,7.56-1.512c0.864-1.656,0.72-1.944-1.296-2.736c-1.224-0.432-2.736-0.864-3.384-0.864    s-1.368-0.576-1.656-1.296c-0.288-0.72-1.296-1.296-2.304-1.296c-1.152,0-1.584-0.36-1.224-0.936s-1.368-2.808-3.96-5.184    c-4.104-3.744-4.536-4.536-4.104-6.84c0.288-1.44,0.144-2.88-0.288-3.096c-0.504-0.288-0.864-1.44-0.864-2.52    c0-1.152-1.656-3.6-3.96-6.048l-3.96-4.032l5.472-4.752c4.464-3.816,5.76-4.536,7.056-3.816c0.936,0.504,1.728,0.72,1.8,0.576    c0.072-0.144,1.008-1.512,2.088-3.096c2.592-3.672,2.664-9.72,0.144-12.024c-1.44-1.296-2.088-1.44-3.456-0.576    c-2.376,1.512-3.456,1.296-3.456-0.576c0-2.592,4.608-6.696,8.28-7.344c4.32-0.648,5.688-2.088,6.264-6.624    c0.648-4.824,3.456-6.408,6.408-3.6c2.592,2.448,3.672,2.304,6.264-0.864c2.16-2.52,2.376-2.592,3.816-1.152    c1.008,1.08,1.152,1.656,0.432,1.872c-4.536,1.512-7.128,6.912-3.744,7.776c2.232,0.576,5.616,9.288,4.824,12.456    c-1.008,4.176-0.864,4.68,1.296,5.184c1.44,0.36,1.8,0.72,1.08,1.224c-0.576,0.36-1.08,1.8-1.08,3.168    c0,2.088,0.36,2.592,1.944,2.592c3.312,0,4.32,1.296,4.896,6.192c0.504,4.32,0.792,4.752,3.384,5.472    c2.232,0.648,2.808,1.296,2.808,3.096c0.072,3.312,1.152,4.536,3.672,3.888c1.728-0.432,2.52-0.072,3.6,1.44    c1.08,1.584,1.656,1.8,2.448,0.936c0.576-0.576,2.376-1.008,3.888-1.008h2.88l0.216,7.992c0.216,7.704,0.36,8.064,2.232,8.352    c1.152,0.144,1.872,0.72,1.728,1.296c-0.576,1.728-13.176,11.016-14.616,10.8c-2.592-0.36-6.048,2.088-6.048,4.32    c0,2.952-1.512,5.472-3.312,5.472c-0.792,0-3.024,1.368-4.896,3.024c-1.872,1.656-4.104,3.024-4.968,3.024    c-2.52,0-2.88,2.448-0.648,4.248c1.944,1.584,2.016,1.944,1.152,6.192c-0.864,4.248-0.792,4.68,1.512,7.92    c1.368,1.872,2.448,3.816,2.448,4.32c0,2.016-2.592,3.384-6.408,3.384c-4.752,0-6.552,2.16-7.272,8.28    c-0.36,3.168-0.72,3.816-1.944,3.456c-1.8-0.648-3.744,1.656-3.024,3.528c0.432,1.152,0.072,1.368-2.16,1.008    c-1.8-0.216-2.88,0-3.168,0.792C472.59,327.113,469.494,327.186,469.35,325.746z"
   id="NuevoLeon"
   style="fill:#cccccc;fill-opacity:1;stroke:#000000;stroke-opacity:1;stroke-width:1.50000007000000000;stroke-miterlimit:4;stroke-dasharray:none;stroke-linejoin:miter;fill-rule:nonzero" /> <!-- Nuevo Leon -->

		<path
   fill="#ff0000"
   d="M457.902,284.058    c-0.432-1.152-1.152-1.44-2.448-1.008c-2.16,0.648-5.328-2.016-6.984-5.904c-1.008-2.52-1.224-2.592-5.184-2.088    c-3.816,0.432-4.176,0.288-4.464-1.44c-0.144-1.224-0.864-1.944-1.944-1.944c-1.008,0-1.872-0.576-2.016-1.296    c-0.36-1.872-15.264-6.408-20.16-6.192c-6.84,0.36-6.552,0.072-10.08,8.568c-1.296,3.096-1.728,3.528-2.808,2.664    c-0.648-0.576-3.024-1.224-5.184-1.512c-3.888-0.432-4.032-0.576-8.136-7.416c-2.304-3.816-4.248-7.272-4.248-7.632    s1.008-0.648,2.16-0.648c2.664,0,2.736-0.576,0.288-3.168l-1.872-2.016l2.088-3.744c1.44-2.52,2.304-5.688,2.664-10.152    c0.36-3.6,0.864-7.776,1.224-9.288c0.648-3.168-0.936-5.976-6.624-12.024c-3.312-3.456-3.312-3.528-6.48-21.312l-3.24-17.856    l2.88-4.32c1.656-2.376,3.24-4.464,3.6-4.608c0.36-0.144,0.72-0.648,0.72-1.08s3.24-5.76,7.272-11.88    c4.032-6.12,7.56-12.096,7.92-13.248c0.36-1.224,1.872-3.384,3.384-4.824c3.888-3.744,6.408-7.488,7.128-10.44    c0.648-2.952,3.888-8.208,5.04-8.208c0.432,0,1.512-0.864,2.376-1.872c1.296-1.512,2.16-1.728,4.464-1.224    c2.736,0.648,9.216,1.152,20.376,1.656c5.832,0.288,8.928,2.016,8.928,5.04c0,0.936,0.648,1.584,1.512,1.584    c1.224,0,0.936,0.504-1.008,2.016c-1.8,1.512-2.232,2.232-1.368,2.736c0.648,0.432,1.368,0.216,1.872-0.504    c0.36-0.648,0.72-0.792,0.72-0.36c0,0.504,1.44,1.008,3.168,1.152c2.952,0.216,8.856,3.96,9,5.688    c0,0.432,1.008,1.944,2.232,3.312c1.152,1.44,2.16,3.24,2.16,4.104c0,0.792,0.792,2.736,1.728,4.248    c0.936,1.584,1.728,3.672,1.728,4.752c0,1.008,1.08,3.168,2.304,4.824c1.296,1.656,2.376,3.672,2.448,4.464    c0.288,2.736,2.376,5.76,5.328,7.848c1.584,1.08,2.88,2.232,2.88,2.592c0,0.288,0.936,1.584,2.016,2.808    c2.52,2.952,2.232,7.56-0.648,10.224l-1.944,1.872l-2.232-2.304c-2.016-2.088-2.448-2.16-4.608-1.08    c-1.944,0.936-2.592,2.016-3.096,4.968c-0.864,4.896-1.8,5.904-6.192,6.624c-4.32,0.72-8.352,4.824-8.352,8.496    c-0.072,1.944,0.288,2.376,2.088,2.376c1.152,0,2.376-0.432,2.664-0.936c0.36-0.576,1.152-0.432,2.232,0.576    c3.384,3.096,0.432,12.096-4.032,12.096c-2.304,0-12.456,7.92-12.528,9.864c0,0.576,1.656,2.88,3.816,5.04    c3.168,3.312,3.888,4.68,4.392,8.424c0.792,6.264,1.872,8.568,5.04,10.584c1.512,0.936,2.808,2.448,2.808,3.384    c0,0.864,0.792,2.016,1.728,2.592c0.936,0.504,1.944,1.296,2.304,1.728c0.288,0.36,1.728,0.936,3.24,1.296    c1.512,0.288,2.88,0.936,2.952,1.44c0.288,1.224-7.128,1.584-8.496,0.36c-1.656-1.296-4.392-0.36-6.48,2.376    c-2.088,2.664-2.304,5.688-0.504,7.272c1.008,0.792,1.08,1.368,0.36,2.232c-0.504,0.648-0.792,1.944-0.576,2.808    c0.216,0.864,0.216,3.168-0.144,4.968C458.622,284.777,458.334,285.209,457.902,284.058z"
   id="Coahuila"
   style="fill:#e6e6e6;fill-opacity:1;stroke:#000000;stroke-opacity:1;stroke-width:1.50000007000000000;stroke-miterlimit:4;stroke-dasharray:none;stroke-linejoin:miter;fill-rule:nonzero" /> <!-- Coahuila -->

		<g
   id="Sinaloa"
   fill="#000000"
   style="fill:#cccccc;fill-opacity:1;stroke:#000000;stroke-opacity:1;stroke-width:1.50000007000000000;stroke-miterlimit:4;stroke-dasharray:none;stroke-linejoin:miter;fill-rule:nonzero"> <!-- Sinaloa -->
			<path
   d="M320.814,343.458     c0-1.872-3.168-6.192-4.536-6.192c-0.576,0-0.504,0.504,0.216,1.296c0.576,0.72,0.864,1.584,0.576,1.8     c-0.72,0.72-5.832-5.04-6.408-7.2c-0.432-1.872-6.408-8.856-6.408-7.56c0,0.288,0.864,2.016,1.944,3.744l1.872,3.168l-2.016-1.8     c-1.08-0.936-2.592-2.88-3.312-4.32s-3.456-4.968-5.976-7.92c-2.592-2.952-4.68-5.76-4.68-6.408     c0-1.728-6.336-12.096-7.416-12.096c-0.504,0-1.872-1.008-3.024-2.232c-1.728-1.8-1.8-2.088-0.504-1.584     c1.512,0.576,1.44,0.288-0.288-2.088c-1.152-1.44-2.52-2.448-3.096-2.232c-0.576,0.216-1.512-0.216-2.16-0.936     c-0.576-0.792-1.8-1.368-2.664-1.368c-0.864,0-2.376-1.08-3.384-2.376c-0.936-1.368-2.592-3.312-3.672-4.32     c-2.592-2.592-1.44-3.528,1.584-1.224c1.656,1.296,2.592,1.584,3.24,0.936c1.584-1.512-0.648-3.96-3.384-3.6     c-1.224,0.144-2.808-0.216-3.456-0.72c-0.576-0.504-1.656-0.72-2.376-0.432c-0.648,0.288-1.944-0.288-2.88-1.296     c-1.44-1.584-1.512-2.16-0.504-4.896c0.864-2.304,0.864-3.384,0.216-4.104c-0.72-0.648-1.008-0.288-1.008,1.44     c0,1.296-0.36,2.304-0.864,2.304c-0.432,0-0.864-0.576-0.864-1.368c0-0.72-0.576-1.944-1.296-2.664     c-1.872-1.8-0.792-3.024,1.8-2.016c2.016,0.792,2.088,0.72,1.224-0.864c-0.504-1.008-1.224-1.728-1.584-1.728     c-0.36,0-2.016-1.224-3.6-2.592c-1.584-1.44-3.168-2.376-3.528-2.16c-0.36,0.216-1.44-0.504-2.304-1.656     c-0.936-1.152-2.52-2.376-3.6-2.664c-1.008-0.36-1.728-0.936-1.512-1.296c0.288-0.36-0.36-1.512-1.296-2.52     c-0.936-1.008-1.656-2.448-1.656-3.168c0-1.8-1.656-1.728-2.376,0c-0.36,1.152-0.648,1.152-1.224,0.216     c-0.576-0.864-0.72-0.792-0.72,0.36c-0.072,1.296-0.36,1.368-2.16,0.504c-2.808-1.224-3.456-3.096-1.296-3.744     c1.8-0.576,2.16-1.728,0.864-2.592c-0.432-0.216-0.936,0-1.152,0.648c-0.288,0.864-0.864,0.792-2.808-0.072     c-2.232-1.008-2.376-1.008-1.368,0.216c2.016,2.448-0.648,1.512-3.6-1.296c-2.736-2.52-2.736-2.664-0.72-2.088l2.16,0.504     l-2.016-1.8c-1.728-1.44-1.872-2.016-1.008-3.096c0.864-1.008,0.864-1.584,0-2.592c-0.792-1.008-0.648-2.016,0.864-5.112     c1.008-2.16,2.448-4.392,3.24-5.04c1.224-1.008,1.296-0.864,0.792,1.008l-0.648,2.16l1.656-2.016l1.656-2.088l0.576,2.304     c0.36,1.224,0.936,2.232,1.368,2.232c0.504,0,0.504-1.008,0.072-2.52c-0.648-2.448-0.432-2.664,5.688-6.552     c6.696-4.248,12.96-10.296,14.328-13.896c0.72-2.016,0.864-2.088,3.528-0.72c2.16,1.08,3.168,1.152,4.896,0.288     c1.224-0.504,2.52-0.648,2.88-0.288c0.792,0.936,4.104,14.544,4.752,19.512c0.648,4.968,1.512,5.76,7.488,6.624     c4.392,0.576,4.68,0.792,4.968,3.24c0.144,1.368,1.656,4.032,3.24,5.832c3.312,3.6,3.456,4.68,2.088,13.968     c-0.648,4.608-0.576,6.624,0.432,9.504c0.72,2.088,1.296,4.32,1.368,4.968c0,0.72,1.512,2.664,3.312,4.32     c2.016,1.872,4.68,5.832,6.552,9.864c3.384,7.128,3.816,7.416,8.928,5.976c2.376-0.72,3.024-0.504,4.896,1.512     c2.304,2.448,5.184,8.064,4.824,9.36c-0.432,1.656,1.224,9.504,2.376,11.16c0.72,0.936,1.224,2.808,1.224,4.104     s0.432,2.52,0.936,2.808c0.432,0.288,1.872,2.448,3.024,4.824c1.512,3.024,2.736,4.32,3.96,4.32c2.088,0,3.168,2.304,1.8,3.672     c-0.576,0.576-1.008,1.8-1.008,2.808c0,1.008-0.648,2.736-1.368,3.816c-1.44,1.944-1.368,6.336,0.072,9.864     c0.504,1.296,0.144,1.584-2.088,1.584C321.462,345.113,320.814,344.682,320.814,343.458z"
   id="SinaloaMainland"
   style="fill:#cccccc;fill-opacity:1;stroke:#000000;stroke-opacity:1;stroke-width:1.50000007000000000;stroke-miterlimit:4;stroke-dasharray:none;stroke-linejoin:miter;fill-rule:nonzero" /> <!-- Sinaloa mainland -->
			<path
   d="M253.278,271.025     c-1.584-2.52-4.536-8.856-4.32-9.072c0.504-0.504,4.536,6.12,5.112,8.208C254.646,272.321,254.286,272.682,253.278,271.025z"
   id="SinaloaIsland"
   style="fill:#cccccc;fill-opacity:1;stroke:#000000;stroke-opacity:1;stroke-width:1.50000007000000000;stroke-miterlimit:4;stroke-dasharray:none;stroke-linejoin:miter;fill-rule:nonzero" /> <!-- Sinaloa island -->
		</g>

		<path
   fill="#ff0000"
   d="M289.71,241.938    c-2.808-0.216-3.672-0.72-3.672-1.8c0-0.864-1.368-2.88-3.024-4.608c-1.656-1.728-3.024-4.104-3.24-5.616    c-0.288-2.376-0.576-2.592-5.04-3.312c-2.664-0.36-5.256-1.08-5.832-1.584c-0.576-0.432-1.296-3.024-1.584-5.76    c-0.36-2.736-1.44-8.064-2.52-11.88l-1.944-6.984l-4.392,0.288c-4.032,0.288-4.608,0.072-7.992-3.24l-3.6-3.456l0.576-6.984    c0.36-4.68,0.288-6.984-0.36-6.984c-0.432,0-1.656-1.512-2.52-3.312c-0.936-1.728-2.592-4.968-3.744-7.056    c-1.152-2.088-2.088-5.4-2.088-7.344l-0.072-3.6l6.696,0.288c7.56,0.288,7.632,0.216,5.832-6.12    c-0.504-2.016-0.576-3.888-0.144-4.824c0.432-0.864,0.576-6.264,0.288-12.168c-0.504-10.152-0.432-10.584,1.224-10.872    c1.44-0.144,1.8-1.152,2.376-6.264c1.152-10.656,1.152-24.192-0.072-26.28c-0.576-1.08-1.728-7.272-2.592-13.752    c-1.8-13.464-1.584-14.04,4.176-13.032l3.528,0.576v-7.848c0-6.048,0.216-7.92,1.152-7.92c0.576,0,9.72,0.576,20.16,1.296    c10.512,0.648,22.104,1.368,25.848,1.512l6.768,0.216l2.088,4.32c2.016,4.248,7.2,10.872,8.496,10.872    c0.72,0,4.104,3.24,4.104,3.888c0,0.216,2.592,2.952,5.688,6.192c3.096,3.168,5.616,6.12,5.616,6.48    c0,0.36,1.08,0.936,2.376,1.224c3.024,0.792,9.576,7.848,10.296,11.16c0.288,1.44,1.368,3.96,2.376,5.616    c0.936,1.656,1.728,4.392,1.656,6.048c-0.072,1.656,0.432,4.392,1.152,6.12c0.72,1.656,1.296,3.672,1.296,4.464    s2.376,3.096,5.184,5.184c2.88,2.088,5.256,4.176,5.256,4.536c0,1.656,4.032,4.968,6.696,5.544c1.584,0.36,3.24,1.368,3.744,2.232    c0.432,0.864,1.944,1.872,3.384,2.16c1.368,0.288,3.024,1.152,3.672,1.872c0.936,1.224,4.464,3.096,6.12,3.312    c1.872,0.216,0.648,2.592-8.424,16.2c-5.544,8.352-10.368,15.768-10.728,16.416c-0.432,0.792,0.432,7.704,2.16,16.992    c3.672,20.16,3.672,19.08-0.36,18.288c-10.152-2.088-10.728-1.8-16.92,6.408c-3.456,4.68-4.392,5.112-5.688,2.304    c-1.224-2.592-4.824-3.744-8.136-2.448c-1.872,0.72-2.664,0.648-3.456-0.288c-1.296-1.584-2.952-1.584-4.608,0.144    c-1.872,1.8-4.392,0.864-7.056-2.664c-1.296-1.656-3.384-3.168-4.824-3.528c-1.368-0.288-3.6-1.656-4.896-3.096    c-2.664-2.808-4.176-3.168-4.896-1.224c-0.288,0.72-1.008,1.296-1.656,1.368c-1.944,0-4.32,4.248-3.96,6.984    c0.432,2.952,0.144,3.312-3.6,3.744c-3.528,0.36-3.528,0.432-2.736,4.176c0.648,2.592,0.432,3.456-0.864,4.68    c-1.152,1.008-1.656,2.664-1.656,5.472c0,2.232-0.288,4.392-0.648,4.896c-0.72,1.008-5.184,3.096-6.12,2.88    C293.67,242.37,291.726,242.153,289.71,241.938z"
   id="Chihuahua"
   style="fill:#e6e6e6;fill-opacity:1;stroke:#000000;stroke-opacity:1;stroke-width:1.50000007000000000;stroke-miterlimit:4;stroke-dasharray:none;stroke-linejoin:miter;fill-rule:nonzero" /> <!-- Chihuahua -->

		<g
   id="BajaSur"
   fill="#ff0000"
   style="fill:#e6e6e6;fill-opacity:1;stroke:#000000;stroke-opacity:1;stroke-width:1.50000007000000000;stroke-miterlimit:4;stroke-dasharray:none;stroke-linejoin:miter;fill-rule:nonzero"> <!-- Baja Sur -->
			<path
   d="M196.47,323.801     c-1.296-1.44-2.232-3.816-2.664-6.768c-0.288-2.52-1.728-6.768-3.096-9.576c-2.016-4.248-3.24-5.544-6.768-7.488     c-2.664-1.512-4.824-3.456-5.832-5.4c-2.232-4.464-14.184-16.2-17.064-16.848c-3.744-0.792-7.128-2.232-7.128-3.024     c0-0.36,1.224-0.36,2.808,0.072l2.808,0.792l-2.376-2.088c-1.296-1.152-2.376-2.88-2.376-3.744c0-1.8-3.384-2.232-4.608-0.648     c-0.288,0.504-0.648-0.072-0.648-1.296c0-1.224-0.648-2.952-1.296-3.888c-0.72-0.864-1.368-2.448-1.368-3.456     c-0.072-1.224-0.36-1.008-0.792,0.864c-0.648,2.448-0.648,2.448-0.864,0.432c-0.144-2.016-0.216-2.088-0.792-0.432     c-0.648,1.512-0.792,1.368-1.368-1.152c-0.288-1.512-0.936-2.592-1.368-2.304c-0.432,0.288-0.792-0.144-0.792-0.864     c0-0.72,0.432-1.296,0.936-1.152c0.576,0.144,1.152-0.288,1.44-1.008c0.288-0.72,0.072-0.936-0.576-0.576     c-1.368,0.864-1.224-0.216,0.792-6.048c0.936-2.736,1.728-5.76,1.728-6.624c0-0.864,0.432-1.584,0.936-1.584     c0.72,0,0.648-0.432-0.072-1.296c-0.72-0.936-0.792-1.296-0.144-1.296s0.936-1.584,0.864-4.176l-0.072-4.104l-0.648,3.456     c-0.648,3.456-0.648,3.456-0.792-1.296c-0.216-5.904-1.944-12.816-3.168-12.456c-0.504,0.144-1.368-1.08-2.016-2.808     c-0.864-2.376-1.44-2.952-2.736-2.52c-1.008,0.288-2.304-0.144-3.24-1.08c-0.864-0.864-2.664-2.16-4.032-2.808     c-1.368-0.72-2.016-1.44-1.512-1.656c1.44-0.432,1.152-1.872-0.36-1.872c-2.16,0-5.544-2.664-5.04-3.888     c0.216-0.648-0.216-2.448-1.008-3.96c-1.152-2.232-1.224-2.952-0.288-4.104c1.008-1.152,0.864-1.296-1.008-0.648     c-2.088,0.648-2.16,0.576-0.648-1.08c1.512-1.728,2.088-5.472,0.792-5.472c-0.36,0-1.368,1.584-2.232,3.456     c-1.44,3.24-1.584,3.384-4.104,2.52c-1.656-0.648-2.448-1.368-2.16-2.16c0.288-0.648-0.072-1.224-0.792-1.224     c-0.72,0-1.296,0.72-1.296,1.584s-0.432,2.016-1.008,2.52c-1.08,1.152-3.6,0.504-2.88-0.72c0.288-0.432-0.072-1.008-0.792-1.296     c-0.792-0.288-2.16-1.8-3.168-3.456c-1.296-2.016-2.52-2.952-3.888-2.952c-1.368,0-2.592-0.936-3.888-2.952     c-1.872-3.096-3.672-4.248-5.472-3.528c-2.088,0.792-4.968-2.88-5.04-6.336c0-3.888-1.296-5.832-4.392-6.552     c-1.512-0.432-2.664-1.512-3.24-3.24c-0.504-1.44-1.44-2.592-2.088-2.592c-1.584,0-5.256-4.968-4.176-5.616     c1.08-0.72,4.176-0.072,8.208,1.584c4.176,1.8,7.488,1.8,9.72,0.144c2.304-1.728,2.952-1.656,2.952,0.432     c0,1.008,0.864,2.088,2.016,2.52c2.16,0.792,3.528,0.36,2.736-0.864c-0.288-0.432,0.144-0.792,0.864-0.792     s1.368-0.432,1.368-0.936c0-0.504-0.936-0.648-2.16-0.288c-1.872,0.432-2.088,0.288-1.584-1.008     c0.432-1.224,0.216-1.44-0.864-1.008c-1.224,0.432-1.08,0,0.432-2.088c1.872-2.448,2.016-2.52,2.304-0.864     c0.288,2.304,0.36,2.304,20.736,4.104c9.144,0.864,16.488,1.8,16.272,2.16c-0.864,1.44,4.248,10.44,6.624,11.664     c2.52,1.296,5.904,7.488,6.696,12.312c0.288,2.016,1.224,3.312,3.384,4.536c2.52,1.512,2.808,2.088,2.376,4.32     c-0.288,1.44-0.072,2.736,0.432,3.096c0.576,0.36,1.008,2.448,1.008,4.68c0,4.608,2.664,9.144,4.32,7.488     c0.648-0.648,0.432-1.584-0.864-3.168c-1.728-2.232-2.52-8.496-1.008-8.496c1.368,0,6.264,6.84,6.768,9.504     c0.288,1.44,1.08,2.664,1.728,2.664c0.792,0,1.152,1.008,1.152,2.808c-0.072,4.032,0.936,9.576,1.944,10.872     c0.576,0.648,0.504,2.088-0.216,4.176c-0.936,2.952-0.792,3.672,1.872,9.216c1.656,3.24,3.528,6.12,4.248,6.408     c0.72,0.216,1.368,1.296,1.44,2.376c0.216,5.544,1.44,10.008,3.816,13.824c3.168,5.184,3.96,8.208,2.592,9.864     c-0.792,0.936-0.864,2.952-0.432,7.128c0.792,7.344,2.88,10.656,6.768,10.728c1.512,0.072,2.304,0.288,1.728,0.504     c-1.728,0.72-1.296,2.088,0.648,2.088c1.512,0,1.728-0.432,1.296-2.88c-0.288-1.512-0.144-3.384,0.36-4.032     c0.648-1.008,1.656-0.36,5.184,3.312c2.448,2.592,4.464,5.184,4.464,5.832c0,0.72,0.864,1.224,2.16,1.224     c1.656,0,2.16,0.432,2.16,1.944c0,1.008,0.504,4.032,1.08,6.624c0.864,3.888,1.584,5.112,3.888,6.408     c4.68,2.808,4.824,10.368,0.288,15.12c-1.008,1.08-2.376,2.016-3.096,2.016c-0.648,0-2.952,0.936-5.112,2.16     c-2.16,1.152-4.032,2.16-4.248,2.16C198.702,325.961,197.622,324.954,196.47,323.801z"
   id="BajaSurMainland"
   style="fill:#e6e6e6;fill-opacity:1;stroke:#000000;stroke-opacity:1;stroke-width:1.50000007000000000;stroke-miterlimit:4;stroke-dasharray:none;stroke-linejoin:miter;fill-rule:nonzero" /> <!-- Baja Sur mainland -->
			<path
   d="M203.742,283.697     c-1.368-4.248-0.864-4.68,1.368-1.008c2.088,3.384,2.232,4.248,0.72,4.248C205.254,286.938,204.246,285.425,203.742,283.697z"
   id="BajaSurIsland1"
   style="fill:#e6e6e6;fill-opacity:1;stroke:#000000;stroke-opacity:1;stroke-width:1.50000007000000000;stroke-miterlimit:4;stroke-dasharray:none;stroke-linejoin:miter;fill-rule:nonzero" /> <!-- Baja Sur island -->
			<path
   d="M150.966,275.777     c-1.584-1.8-1.8-2.736-0.648-2.736c0.432,0,1.44,0.936,2.16,2.16C154.134,277.722,153.126,278.082,150.966,275.777z"
   id="BajaSurIsland2"
   style="fill:#e6e6e6;fill-opacity:1;stroke:#000000;stroke-opacity:1;stroke-width:1.50000007000000000;stroke-miterlimit:4;stroke-dasharray:none;stroke-linejoin:miter;fill-rule:nonzero" /> <!-- Baja Sur island -->
			<path
   d="M190.134,274.266     c-1.944-4.032-1.872-4.176,0.72-1.584c1.152,1.152,2.16,2.736,2.16,3.384C193.014,278.297,191.646,277.434,190.134,274.266z"
   id="BajaSurIsland3"
   style="fill:#e6e6e6;fill-opacity:1;stroke:#000000;stroke-opacity:1;stroke-width:1.50000007000000000;stroke-miterlimit:4;stroke-dasharray:none;stroke-linejoin:miter;fill-rule:nonzero" /> <!-- Baja Sur island -->
			<path
   d="M145.638,269.801     c-2.52-2.088-2.52-2.16-0.432-1.584c2.592,0.72,4.824,2.664,3.744,3.312C148.59,271.746,147.078,271.025,145.638,269.801z"
   id="BajaSurIsland4"
   style="fill:#e6e6e6;fill-opacity:1;stroke:#000000;stroke-opacity:1;stroke-width:1.50000007000000000;stroke-miterlimit:4;stroke-dasharray:none;stroke-linejoin:miter;fill-rule:nonzero" /> <!-- Baja Sur island -->
			<path
   d="M140.886,266.489     c-0.648-0.72-1.224-2.232-1.368-3.312c-0.288-3.096-0.36-3.168-1.728-2.664c-1.44,0.576-1.656-0.72-0.504-2.952     c0.432-0.792,1.368-2.88,2.016-4.536c0.72-1.656,1.728-4.032,2.304-5.256c0.936-2.016,0.936-1.944,0.432,0.864     c-0.288,1.728-1.08,4.176-1.8,5.616c-1.008,1.872-1.08,2.952-0.36,4.608c0.576,1.152,1.008,2.952,1.008,4.032     c0,1.08,0.432,2.376,1.008,2.952c0.576,0.576,0.792,1.296,0.576,1.512C142.182,267.642,141.462,267.209,140.886,266.489z"
   id="BajaSurIsland5"
   style="fill:#e6e6e6;fill-opacity:1;stroke:#000000;stroke-opacity:1;stroke-width:1.50000007000000000;stroke-miterlimit:4;stroke-dasharray:none;stroke-linejoin:miter;fill-rule:nonzero" /> <!-- Baja Sur island -->
			<path
   d="M185.382,262.098     c-1.08-0.792-1.944-1.8-1.944-2.304c0-0.576-0.648-1.728-1.44-2.592c-1.8-2.016-1.152-2.736,1.584-1.728     c1.368,0.576,2.448,2.016,3.168,4.176c0.504,1.8,0.864,3.384,0.72,3.528C187.326,263.321,186.39,262.817,185.382,262.098z"
   id="BajaSurIsland6"
   style="fill:#e6e6e6;fill-opacity:1;stroke:#000000;stroke-opacity:1;stroke-width:1.50000007000000000;stroke-miterlimit:4;stroke-dasharray:none;stroke-linejoin:miter;fill-rule:nonzero" /> <!-- Baja Sur island -->
			<path
   d="M182.574,249.569     c0-0.432,0.36-1.008,0.864-1.368c0.504-0.288,0.864,0.072,0.864,0.864c0,0.72-0.36,1.368-0.864,1.368     S182.574,250.001,182.574,249.569z"
   id="BajaSurIsland7"
   style="fill:#e6e6e6;fill-opacity:1;stroke:#000000;stroke-opacity:1;stroke-width:1.50000007000000000;stroke-miterlimit:4;stroke-dasharray:none;stroke-linejoin:miter;fill-rule:nonzero" /> <!-- Baja Sur island -->
			<path
   d="M142.686,242.874     c0-0.864,0.36-2.376,0.792-3.312c0.576-1.512,0.72-1.296,0.792,1.008c0,1.512-0.36,3.024-0.792,3.312     C142.974,244.169,142.614,243.737,142.686,242.874z"
   id="BajaSurIsland8"
   style="fill:#e6e6e6;fill-opacity:1;stroke:#000000;stroke-opacity:1;stroke-width:1.50000007000000000;stroke-miterlimit:4;stroke-dasharray:none;stroke-linejoin:miter;fill-rule:nonzero" /> <!-- Baja Sur island -->
			<path
   d="M181.134,237.761     c-0.288-0.792-0.144-1.8,0.36-2.232c0.576-0.576,1.008-0.144,1.296,1.368C183.222,239.273,181.998,239.994,181.134,237.761z"
   id="path52"
   style="fill:#e6e6e6;fill-opacity:1;stroke:#000000;stroke-opacity:1;stroke-width:1.50000007000000000;stroke-miterlimit:4;stroke-dasharray:none;stroke-linejoin:miter;fill-rule:nonzero" /> <!-- Baja Sur island -->
			<path
   d="M173.862,235.169     c0-0.72,0.432-1.296,0.864-1.296c0.504,0,0.864,0.576,0.864,1.296c0,0.72-0.36,1.296-0.864,1.296     C174.294,236.465,173.862,235.89,173.862,235.169z"
   id="path54"
   style="fill:#e6e6e6;fill-opacity:1;stroke:#000000;stroke-opacity:1;stroke-width:1.50000007000000000;stroke-miterlimit:4;stroke-dasharray:none;stroke-linejoin:miter;fill-rule:nonzero" /> <!-- Baja Sur island -->
			<path
   d="M169.542,228.618     c0-1.872,2.664-6.048,3.96-6.048c1.944,0,1.512,2.304-0.936,4.752C170.118,229.77,169.542,229.985,169.542,228.618z"
   id="BajaSurIsland9"
   style="fill:#e6e6e6;fill-opacity:1;stroke:#000000;stroke-opacity:1;stroke-width:1.50000007000000000;stroke-miterlimit:4;stroke-dasharray:none;stroke-linejoin:miter;fill-rule:nonzero" /> <!-- Baja Sur island -->
			<path
   d="M149.526,182.969     c0-0.72,0.432-1.08,0.864-0.792c0.504,0.288,0.864,0.864,0.864,1.368c0,0.432-0.36,0.792-0.864,0.792     C149.958,184.337,149.526,183.761,149.526,182.969z"
   id="BajaSurIsland0"
   style="fill:#e6e6e6;fill-opacity:1;stroke:#000000;stroke-opacity:1;stroke-width:1.50000007000000000;stroke-miterlimit:4;stroke-dasharray:none;stroke-linejoin:miter;fill-rule:nonzero" /> <!-- Baja Sur island -->
		</g>

		<path
   id="Michoacan"
   fill="#000000"
   d="M412.902,490.697    c-1.656-0.648-4.176-1.224-5.544-1.224c-1.368-0.072-4.32-1.224-6.552-2.592c-2.16-1.44-6.12-2.952-8.712-3.528    c-4.896-1.008-12.168-4.68-12.168-6.12c0-0.504-1.152-2.088-2.52-3.672c-3.672-4.32-3.888-5.688-1.512-8.568    c1.152-1.368,2.232-2.952,2.448-3.456c0.144-0.504,1.584-1.008,3.096-1.008c1.584-0.072,3.096-0.432,3.312-0.864    c0.288-0.432,1.8-0.504,3.384-0.216c2.448,0.432,3.456,0,7.704-3.456c2.664-2.232,5.688-3.96,6.696-3.96    c2.592,0,7.056-5.184,6.768-7.848c-0.216-1.8-0.72-2.16-2.664-2.016s-2.376-0.216-2.376-1.8c0-1.08-0.432-2.304-0.936-2.808    c-0.648-0.648-0.648-1.656,0-3.312c0.504-1.296,0.936-2.664,0.936-3.024c0-0.792-5.904-3.384-9.432-4.104    c-3.096-0.648-3.24-0.936-1.512-3.456c0.936-1.368,2.592-1.944,6.192-2.376c3.096-0.288,6.12-1.296,8.208-2.664    c2.448-1.584,4.968-2.304,9.936-2.808l6.696-0.576l2.52,2.736c2.88,3.168,4.176,3.384,6.912,1.008    c3.672-3.168,7.848-1.368,7.848,3.384c0,3.24,3.24,5.112,6.12,3.528c3.456-1.872,8.064-1.728,9.576,0.144    c1.008,1.368,2.592,1.8,6.768,1.944c4.536,0.216,5.904-0.072,8.136-1.8c3.024-2.16,6.696-2.592,8.28-0.936    c1.224,1.224,1.368,6.768,0.144,6.768c-0.432,0-0.792,0.72-0.792,1.656s-0.36,1.8-0.792,1.944    c-0.432,0.144-1.152,4.32-1.584,9.216c-0.936,9.936-4.608,20.16-7.344,20.16c-1.8,0.072-2.448,1.8-2.448,6.696    c0,3.456-0.216,3.888-1.512,3.312c-3.528-1.512-10.8-2.448-19.728-2.52c-6.696,0-9.576-0.36-9.864-1.152    c-0.576-1.8-7.488-1.368-9.288,0.648c-1.44,1.584-1.512,2.736-0.36,6.912c0.216,0.72-1.08,2.16-2.952,3.384    c-2.88,1.944-3.24,2.592-3.24,5.976c0,3.528-0.144,3.744-2.376,3.672C417.078,491.85,414.63,491.345,412.902,490.697z"
   style="fill:#e6e6e6;fill-opacity:1;stroke:#000000;stroke-opacity:1;stroke-width:1.50000007000000000;stroke-miterlimit:4;stroke-dasharray:none;stroke-linejoin:miter;fill-rule:nonzero" /> <!-- Michoacan -->

		<path
   id="Morelos"
   fill="#ff0000"
   d="M510.246,474.569    c-2.016-2.736-4.392-3.456-4.392-1.296c0,0.792-0.504,1.08-1.296,0.792c-0.72-0.288-1.296-1.08-1.296-1.728    s-0.792-1.872-1.728-2.736c-0.936-0.792-1.728-1.728-1.728-2.088c0-0.36,1.512-2.448,3.456-4.68    c1.944-2.16,3.456-4.608,3.456-5.328c0-1.08,0.648-1.224,3.312-0.792c7.488,1.296,7.992,1.512,7.992,3.168    c0,1.368,0.648,1.656,3.096,1.656c2.808,0,2.952,0.144,1.944,1.8c-0.864,1.368-0.864,2.016,0,3.456    c0.648,1.008,0.72,1.728,0.216,1.728s-0.864,1.368-0.864,3.024c0,2.88-0.144,3.024-1.872,1.944    c-1.512-0.864-1.944-0.864-2.232,0.072c-0.36,0.936-4.68,3.672-5.832,3.672C512.262,477.233,511.254,476.009,510.246,474.569z"
   style="fill:#e6e6e6;fill-opacity:1;stroke:#000000;stroke-opacity:1;stroke-width:1.50000007000000000;stroke-miterlimit:4;stroke-dasharray:none;stroke-linejoin:miter;fill-rule:nonzero" /> <!-- Morelos -->

		<path
   id="Tlaxcala"
   fill="#000000"
   d="M536.31,451.602    c-1.224-0.648-3.528-2.952-5.04-5.184c-2.088-2.88-3.384-3.888-4.824-3.744c-1.368,0.144-1.944-0.36-2.16-1.728    c-0.288-1.8,0.072-2.016,3.96-2.016c2.304,0,4.968-0.504,5.904-1.152c1.008-0.72,2.16-0.936,2.952-0.504    c0.792,0.36,2.448,0.936,3.816,1.224c1.44,0.288,3.024,1.584,3.888,3.096c0.792,1.44,2.016,2.376,2.592,2.16    c1.008-0.36,4.536,2.376,4.536,3.456c0,0.216-0.936,0.432-2.16,0.432c-1.224,0-2.664,0.792-3.24,1.656    c-0.792,1.368-1.368,1.512-2.664,0.864c-1.296-0.72-2.088-0.504-3.528,0.792C538.686,452.538,538.182,452.609,536.31,451.602z"
   style="fill:#cccccc;fill-opacity:1;stroke:#000000;stroke-opacity:1;stroke-width:1.50000007000000000;stroke-miterlimit:4;stroke-dasharray:none;stroke-linejoin:miter;fill-rule:nonzero" /> <!-- Tlaxcala -->

		<path
   id="Yucatan"
   fill="#ff0000"
   d="M782.55,411.569    c-9.144-10.44-10.368-11.52-11.592-10.368c-0.792,0.648-2.808,1.224-4.608,1.224h-3.168v-5.544c0-3.096-0.432-5.832-0.864-6.192    c-2.16-1.296-0.864-5.328,2.808-8.856c6.336-6.12,18.72-11.088,32.04-12.816c2.376-0.288,6.192-1.872,9.144-3.672    c2.808-1.656,6.84-3.528,9-4.104c6.48-1.8,22.032,0.216,26.28,3.312c0.936,0.72,1.8,3.024,2.232,5.832    c0.576,3.888,0.36,5.76-1.44,11.232l-2.088,6.48l-17.352,13.032c-9.504,7.2-20.232,15.12-23.76,17.568l-6.408,4.608    L782.55,411.569z"
   style="fill:#cccccc;fill-opacity:1;stroke:#000000;stroke-opacity:1;stroke-width:1.50000007000000000;stroke-miterlimit:4;stroke-dasharray:none;stroke-linejoin:miter;fill-rule:nonzero" /> <!-- Yucatan -->

		<path
   id="Aguascalientes"
   d="M 399.50933,372.66848 C 398.05296,371.13546 397.59306,365.76991 398.66617,363.01048 C 398.97277,362.16732 400.88904,360.63431 402.88196,359.63785 C 404.87488,358.56474 406.7145,357.18502 407.0211,356.41851 C 407.25106,355.65201 407.94091,355.0388 408.40082,355.0388 C 409.78053,355.0388 417.36896,351.43621 417.90551,350.51641 C 419.05527,348.60014 426.41375,357.87488 425.49394,360.09775 C 425.26399,360.86426 425.95384,362.01402 427.25691,362.85718 C 430.09299,364.77345 430.16964,366.91967 427.48686,367.91613 C 426.3371,368.37604 424.19088,370.06235 422.81116,371.59537 C 419.82178,375.04465 416.9857,375.27461 411.31355,372.66848 C 407.55766,370.98216 407.32771,370.98216 404.18502,372.59183 C 401.11899,374.20043 400.81239,374.20043 399.50933,372.66848 z"
   style="fill:#cccccc;fill-opacity:1;fill-rule:nonzero;stroke:#000000;stroke-width:1.50000007000000000;stroke-linejoin:miter;stroke-miterlimit:4;stroke-dasharray:none;stroke-opacity:1" /> <!-- Aguascalientes -->

		<g
   fill="#ff0000"
   id="Nayarit"
   style="fill:#e6e6e6;fill-opacity:1;stroke:#000000;stroke-opacity:1;stroke-width:1.50000007000000000;stroke-miterlimit:4;stroke-dasharray:none;stroke-linejoin:miter;fill-rule:nonzero"> <!-- Nayarit -->
			<path
   id="NayaritMainland"
   d="M329.526,401.921     c0-0.576-1.44-1.296-3.096-1.584c-1.656-0.288-3.024-0.864-3.024-1.152c0-0.36,2.016-2.592,4.392-4.968     c3.24-3.312,4.248-4.824,3.888-6.192c-0.216-1.08-0.072-3.744,0.288-5.976c0.648-3.456,0.576-4.392-0.72-5.688     c-0.864-0.792-1.944-1.656-2.376-1.8c-0.432-0.216-1.656-1.8-2.736-3.6c-1.656-2.736-1.8-3.312-0.648-3.312     c1.728,0,1.8-2.016,0.072-3.456c-1.08-0.864-1.296-0.72-1.368,1.008c-0.072,2.736-2.016-3.816-3.816-12.744     c-0.72-3.816-1.584-7.848-1.872-8.928c-0.36-1.152-0.144-1.944,0.432-1.944c0.504,0,1.008,1.008,1.008,2.232     c0,2.088,0.216,2.232,3.672,1.944c2.736-0.144,3.6-0.576,3.312-1.584c-0.144-0.648-0.72-2.664-1.224-4.392     c-0.72-2.736-0.576-3.528,1.08-5.904c1.08-1.512,1.8-3.312,1.512-3.96c-1.08-2.88,3.096-3.888,9.072-2.088     c2.952,0.864,3.456,1.44,3.888,4.104c0.288,1.728,0.648,3.816,0.792,4.68c0.144,0.864-0.648,2.232-1.872,3.24     c-4.104,3.24-0.36,5.976,3.96,2.952c2.808-1.944,6.192-0.936,6.192,1.8c0,3.024,3.528,5.184,7.344,4.536l2.88-0.432l-1.152,4.464     c-1.728,6.48-1.584,7.776,1.44,10.656c2.52,2.376,2.664,2.808,2.088,7.128c-0.504,4.248-0.36,4.752,1.584,6.336     c3.816,2.952,0.576,7.488-3.672,5.184c-0.936-0.504-1.944-0.864-2.16-0.864c-1.08,0-0.432,5.112,0.792,6.336     c1.584,1.656,1.656,2.736,0.072,3.96c-0.648,0.576-1.44,2.448-1.8,4.176l-0.576,3.096l-3.24-3.168     c-4.248-4.104-8.568-4.968-11.88-2.376c-1.296,1.008-3.24,1.872-4.248,1.872c-1.08,0-3.096,1.44-5.04,3.672     C330.966,401.202,329.526,402.425,329.526,401.921z"
   style="fill:#e6e6e6;fill-opacity:1;stroke:#000000;stroke-opacity:1;stroke-width:1.50000007000000000;stroke-miterlimit:4;stroke-dasharray:none;stroke-linejoin:miter;fill-rule:nonzero" /> <!-- Nayarit mainland -->
			<path
   id="NayaritIsland1"
   d="M304.686,378.954     c-0.792-1.296,0.144-2.016,1.8-1.368c0.72,0.288,1.152,0.936,0.864,1.368C306.63,380.105,305.406,380.105,304.686,378.954z"
   style="fill:#e6e6e6;fill-opacity:1;stroke:#000000;stroke-opacity:1;stroke-width:1.50000007000000000;stroke-miterlimit:4;stroke-dasharray:none;stroke-linejoin:miter;fill-rule:nonzero" /> <!-- Nayarit island -->
			<path
   id="NayaritIsland2"
   d="M298.206,375.713     c0.072-2.088,2.376-3.24,5.832-2.88c0.864,0.072,0.936,0.432,0,1.8C303.03,376.29,298.134,377.226,298.206,375.713z"
   style="fill:#e6e6e6;fill-opacity:1;stroke:#000000;stroke-opacity:1;stroke-width:1.50000007000000000;stroke-miterlimit:4;stroke-dasharray:none;stroke-linejoin:miter;fill-rule:nonzero" /> <!-- Nayarit island -->
			<path
   id="NayaritIsland3"
   d="M292.302,368.297     c-1.368-3.744-1.368-3.672,0.576-3.816c1.944-0.144,3.096,0.936,4.392,4.32c0.792,2.232,0.72,2.376-1.512,2.376     C293.814,371.177,293.094,370.602,292.302,368.297z"
   style="fill:#e6e6e6;fill-opacity:1;stroke:#000000;stroke-opacity:1;stroke-width:1.50000007000000000;stroke-miterlimit:4;stroke-dasharray:none;stroke-linejoin:miter;fill-rule:nonzero" /> <!-- Nayarit island -->
			<path
   id="NayaritIsland4"
   d="M286.902,361.529     c0-0.936,0.36-1.512,0.864-1.224c0.432,0.288,0.864,1.08,0.864,1.8c0,0.648-0.432,1.224-0.864,1.224     C287.262,363.33,286.902,362.538,286.902,361.529z"
   style="fill:#e6e6e6;fill-opacity:1;stroke:#000000;stroke-opacity:1;stroke-width:1.50000007000000000;stroke-miterlimit:4;stroke-dasharray:none;stroke-linejoin:miter;fill-rule:nonzero" /> <!-- Nayarit island -->
		</g>

		<g
   fill="#000000"
   id="BajaNorte"
   style="fill:#cccccc;fill-opacity:1;stroke:#000000;stroke-opacity:1;stroke-width:1.50000007000000000;stroke-miterlimit:4;stroke-dasharray:none;stroke-linejoin:miter;fill-rule:nonzero"> <!-- Baja Norte -->
			<path
   id="BajaNorteIsland1"
   d="M133.038,136.961     c-1.368-1.656,0-1.656,2.232,0c1.368,1.08,1.44,1.224,0.288,1.296C134.766,138.257,133.614,137.682,133.038,136.961z"
   style="fill:#cccccc;fill-opacity:1;stroke:#000000;stroke-opacity:1;stroke-width:1.50000007000000000;stroke-miterlimit:4;stroke-dasharray:none;stroke-linejoin:miter;fill-rule:nonzero" /> <!-- Baja Norte island -->
			<path
   id="BajaNorteMainland"
   d="M113.67,153.954     c-7.992-0.864-14.76-1.728-14.976-1.944c-0.288-0.216,0.144-1.872,0.864-3.6c1.152-2.808,1.152-3.096,0-2.664     c-1.44,0.576-1.8-1.368-0.504-2.736c0.432-0.432,1.08-2.232,1.368-3.96c0.504-2.736,0.216-3.456-2.088-5.616     c-1.44-1.368-3.456-4.32-4.392-6.624c-1.008-2.232-2.52-4.32-3.456-4.608c-0.864-0.288-2.088-1.584-2.592-2.88     c-2.664-6.408-8.856-14.112-11.376-14.112c-0.792,0-2.808-1.44-4.536-3.24c-1.728-1.8-4.68-4.608-6.696-6.264     c-2.952-2.52-3.528-3.6-3.528-6.264c0-2.016-0.504-3.312-1.368-3.672c-0.792-0.288-1.152-1.224-0.864-2.448     c1.368-6.984,1.296-9.072-0.432-10.944c-1.008-1.08-1.584-2.304-1.296-2.736c0.288-0.432,0.072-1.008-0.36-1.368     c-0.504-0.288-0.936,0.288-0.936,1.296c0,1.008-0.36,1.656-0.864,1.368c-0.432-0.36-0.864-3.24-0.864-6.552     c0-5.76-1.872-12.168-3.6-12.168c-0.432,0-0.72-1.944-0.72-4.392c0-3.24-0.648-5.544-2.664-9.072     c-1.512-2.664-3.096-5.04-3.528-5.256c-0.432-0.288-0.792-1.8-0.792-3.312c0-1.584-0.432-3.312-1.008-3.888     c-0.576-0.504-0.72-1.296-0.432-1.584c0.36-0.36,1.08-0.144,1.656,0.36c1.512,1.584,2.448,1.296,2.448-0.648     c0-1.008-0.648-1.8-1.368-1.8c-0.72,0-1.296-0.36-1.296-0.864s-0.72-1.728-1.656-2.736c-0.936-0.936-1.944-3.384-2.232-5.4     c-0.36-1.944-1.512-5.4-2.664-7.704c-1.152-2.232-2.088-4.464-2.088-4.968c0-1.224,7.848-1.152,33.408,0.432     c25.488,1.512,30.888,2.016,30.888,2.88c0,0.36-1.944,2.736-4.392,5.184c-3.384,3.528-4.176,4.896-3.6,6.048     c2.448,4.824,1.512,12.816-1.44,11.736c-1.296-0.504-1.296-0.36-0.144,1.08c0.72,0.936,2.016,2.376,2.808,3.24     c1.656,1.656,2.016,4.104,0.864,5.472c-1.368,1.584-2.88,7.848-2.88,12.168c-0.072,6.48,0.072,7.416,1.368,7.92     c1.008,0.36,1.152,3.096,0.864,14.76c-0.36,12.24-0.216,14.328,0.864,14.76c0.72,0.288,1.368,1.08,1.368,1.656     c0,0.648,0.576,1.8,1.368,2.592c0.792,0.72,1.152,1.944,0.936,2.592c-0.504,1.296,0.648,2.448,2.808,2.808     c0.72,0.072,1.656,0.864,2.088,1.728c0.504,0.792,1.728,2.376,2.808,3.456c1.08,1.008,2.88,3.168,3.96,4.752     c1.152,1.584,3.384,4.032,4.968,5.4c1.512,1.44,2.736,3.168,2.664,3.96s0.144,2.52,0.504,3.888     c0.504,1.656,0.36,2.664-0.288,3.096c-0.792,0.504-0.792,1.296-0.144,3.096c0.936,2.304,1.008,2.376,2.16,0.792     c1.368-1.872,2.664-1.08,2.664,1.656c0,1.296,0.504,1.872,1.728,1.872c1.44,0,1.728,0.648,1.872,3.744     c0.144,4.392,1.224,5.976,4.68,6.768c2.16,0.432,2.664,1.08,3.096,3.96c0.36,1.872,0.936,3.6,1.368,3.888     c0.36,0.288,0.72,2.016,0.72,3.888c0,3.384,0,3.456-3.24,3.312C129.726,155.465,121.662,154.746,113.67,153.954z"
   style="fill:#cccccc;fill-opacity:1;stroke:#000000;stroke-opacity:1;stroke-width:1.50000007000000000;stroke-miterlimit:4;stroke-dasharray:none;stroke-linejoin:miter;fill-rule:nonzero" /> <!-- Baja Norte mainland -->
			<path
   id="BajaNorteIsland2"
   d="M65.43,147.474     c-3.096-1.728-3.24-2.16-0.792-3.096c1.728-0.648,2.304-1.44,2.304-3.24c0.072-3.096,1.44-5.616,2.088-3.744     c1.152,3.816,1.296,5.904,0.36,8.496C68.238,148.985,68.238,148.985,65.43,147.474z"
   style="fill:#cccccc;fill-opacity:1;stroke:#000000;stroke-opacity:1;stroke-width:1.50000007000000000;stroke-miterlimit:4;stroke-dasharray:none;stroke-linejoin:miter;fill-rule:nonzero" /> <!-- Baja Norte island -->
			<path
   id="BajaNorteIsland3"
   d="M2.646,129.545     c-0.072-1.152-0.648-3.096-1.296-4.32c-1.656-2.88-1.656-6.48,0-7.848c1.08-0.864,1.296-0.648,1.296,1.584     c0,1.44,0.36,2.808,0.864,2.952c1.584,0.504,1.944,6.192,0.504,8.064C2.718,131.706,2.718,131.706,2.646,129.545z"
   style="fill:#cccccc;fill-opacity:1;stroke:#000000;stroke-opacity:1;stroke-width:1.50000007000000000;stroke-miterlimit:4;stroke-dasharray:none;stroke-linejoin:miter;fill-rule:nonzero" /> <!-- Baja Norte island -->
			<path
   id="BajaNorteIsland4"
   d="M125.19,121.625     c-1.944-2.088-4.248-4.536-5.112-5.544c-2.664-2.952-4.032-9.864-2.016-10.584c1.44-0.576,5.4,3.816,5.256,5.832     c-0.144,2.952,0.288,3.456,2.592,3.456c2.232,0,2.376,0.216,2.088,2.952c-0.216,1.656,0.072,3.816,0.648,4.896     C130.518,126.018,128.79,125.585,125.19,121.625z"
   style="fill:#cccccc;fill-opacity:1;stroke:#000000;stroke-opacity:1;stroke-width:1.50000007000000000;stroke-miterlimit:4;stroke-dasharray:none;stroke-linejoin:miter;fill-rule:nonzero" /> <!-- Baja Norte island -->
		</g>

		<g
   id="Sonora"
   fill="#ff0000"
   style="fill:#cccccc;fill-opacity:1;stroke:#000000;stroke-opacity:1;stroke-width:1.50000007000000000;stroke-miterlimit:4;stroke-dasharray:none;stroke-linejoin:miter;fill-rule:nonzero"> <!-- Sonora -->
			<path
   d="M141.39,136.169     c0.288-0.792,0.864-1.368,1.368-1.368c1.152,0,0.432,1.944-0.864,2.376C141.246,137.394,141.03,137.034,141.39,136.169z"
   id="SonoraIsland1"
   style="fill:#cccccc;fill-opacity:1;stroke:#000000;stroke-opacity:1;stroke-width:1.50000007000000000;stroke-miterlimit:4;stroke-dasharray:none;stroke-linejoin:miter;fill-rule:nonzero" /> <!-- Sonora island -->
			<path
   d="M145.854,133.505     c-4.176-2.16-4.248-2.232-2.376-4.536c0.936-1.224,1.728-3.312,1.728-4.68c0-2.952,4.032-5.76,5.688-3.96     c1.872,2.016,2.16,7.704,0.576,11.16C149.814,135.162,149.238,135.306,145.854,133.505z"
   id="SonoraIsland2"
   style="fill:#cccccc;fill-opacity:1;stroke:#000000;stroke-opacity:1;stroke-width:1.50000007000000000;stroke-miterlimit:4;stroke-dasharray:none;stroke-linejoin:miter;fill-rule:nonzero" /> <!-- Sonora island -->
			<path
   d="M96.678,41.273     c-2.304-4.896-0.576-6.264,2.952-2.304c1.512,1.728,1.944,1.944,1.512,0.72c-0.36-1.152-0.288-1.44,0.432-1.008     c1.368,0.792,1.296,1.872-0.36,3.456C99.27,44.082,97.83,43.865,96.678,41.273z"
   id="SonoraIsland3"
   style="fill:#cccccc;fill-opacity:1;stroke:#000000;stroke-opacity:1;stroke-width:1.50000007000000000;stroke-miterlimit:4;stroke-dasharray:none;stroke-linejoin:miter;fill-rule:nonzero" /> <!-- Sonora island -->
			<path
   d="M224.766,214.938     c0.576-3.888,0.432-4.392-1.224-4.896c-2.52-0.792-4.104-3.744-2.16-4.104c1.152-0.288,1.08-0.648-0.504-2.448     c-1.368-1.584-1.8-1.728-1.44-0.648c0.432,1.368,0.216,1.44-1.44,0.504c-1.944-1.008-1.944-1.008-0.288,0.864     c0.864,1.008,1.224,1.872,0.72,1.872c-0.576,0-1.224-0.432-1.584-0.936c-0.288-0.504-1.008-0.72-1.656-0.504     c-0.576,0.216-1.512,0.144-2.016-0.216c-1.368-0.864-5.544-10.512-4.536-10.512c0.504,0,0.864-0.432,0.864-0.864     c0-1.152-5.472-3.456-6.048-2.592c-0.288,0.36-2.808-0.432-5.688-1.8c-2.88-1.368-4.824-2.521-4.464-2.521     c0.432-0.072,0.288-0.648-0.288-1.368c-0.648-0.72-1.224-2.808-1.44-4.536c-0.144-1.8-0.648-3.384-1.152-3.528     c-1.08-0.432-1.224-3.672-0.144-3.672c0.432,0,0.792-0.864,0.792-1.944c-0.072-1.08,0.144-2.52,0.504-3.24     c0.288-0.864-0.36-1.944-1.8-3.024c-2.016-1.44-2.232-1.44-1.728-0.216c0.504,1.368,0.432,1.368-1.584,0.072     c-1.296-0.864-2.16-2.232-2.16-3.528c0-1.296-0.36-1.872-0.936-1.584c-0.504,0.36-0.72,1.08-0.504,1.656     c0.216,0.648,0.072,1.656-0.36,2.304c-0.648,1.008-1.152,0.864-2.52-0.792c-1.008-1.152-1.728-2.592-1.728-3.312     c0-0.936-0.432-1.008-1.728-0.288c-2.016,1.008-2.088,0.937-3.6-5.112c-1.08-4.32-1.512-4.824-4.896-6.264     c-2.16-0.936-3.744-2.16-3.744-3.024c0-0.72-0.936-2.664-2.16-4.248c-2.448-3.24-2.736-4.824-0.792-4.824     c0.72,0,1.08-0.432,0.792-0.936c-0.36-0.504-1.08-0.72-1.728-0.504c-1.224,0.504-6.408-4.752-6.624-6.624     c-0.072-0.576-0.216-2.088-0.36-3.384c-0.216-3.96-2.16-7.56-4.176-7.848c-1.584-0.216-1.872-0.864-1.872-4.176     c0-3.096-0.648-4.824-2.952-8.064c-1.656-2.232-3.312-4.104-3.6-4.104c-0.36,0-0.72-3.312-0.72-7.344     c-0.144-8.208-0.504-9.72-2.592-10.224c-0.936-0.288-1.872-2.088-2.592-4.824c-0.648-2.376-2.448-6.408-4.104-9     c-2.16-3.312-3.024-5.616-3.024-8.064c0-2.016-0.576-4.104-1.44-5.112c-1.44-1.584-1.44-1.728,0-2.52     c1.944-1.08,1.872-2.16-0.36-4.464l-1.872-1.944l0.648,2.016c0.648,2.16-0.792,2.736-1.656,0.576     c-0.288-0.72-0.792-1.152-1.224-0.936c-0.36,0.216-3.384-0.216-6.696-1.008c-5.688-1.368-6.048-1.656-5.832-3.744     c0.216-1.656-0.288-2.448-1.944-3.24c-1.224-0.576-2.448-1.656-2.808-2.376c-0.288-0.864-0.72-1.08-1.08-0.504     c-0.72,1.224-6.984-2.952-6.984-4.608c0-0.648-1.008-2.016-2.16-2.952c-1.944-1.44-2.088-2.016-1.296-4.248     c0.864-2.52,0.72-7.2-0.432-9.864c-0.36-0.864,0.216-2.304,1.44-3.672l2.016-2.232l14.328,7.416     c7.92,4.104,20.016,10.512,26.928,14.184c54.072,28.872,53.136,28.44,59.112,28.944c23.976,2.016,48.744,4.248,51.12,4.608     c2.448,0.36,2.664,0.648,1.944,2.088c-0.504,0.936-0.576,1.872-0.144,2.088c0.36,0.288,1.224,4.68,1.8,9.864     c0.648,5.112,1.728,11.088,2.448,13.248c1.008,3.096,1.224,6.336,0.792,15.696c-0.648,14.04-1.152,16.632-3.096,16.272     c-1.008-0.144-1.368,0.432-1.296,2.376c0.072,2.304,0.216,13.32,0.216,24.336c0,1.944,0.144,4.248,0.288,5.256     c0.216,1.584-0.144,1.728-5.832,1.44c-7.776-0.36-8.712,0.432-7.344,6.408c0.504,2.304,2.232,6.408,3.744,9     c5.04,8.64,6.264,12.672,4.824,16.344c-0.864,2.304,1.08,8.064,2.664,8.064c0.504,0,0.936,1.152,0.936,2.52     c0,3.312-5.688,9.648-13.104,14.544c-3.168,2.088-6.048,3.816-6.336,3.816c-0.36,0-0.576-1.008-0.576-2.232     c0-2.808-1.944-2.448-2.592,0.504c-0.288,1.08-1.008,2.16-1.584,2.376C224.478,219.186,224.334,218.25,224.766,214.938z"
   id="SonoraMainland"
   style="fill:#cccccc;fill-opacity:1;stroke:#000000;stroke-opacity:1;stroke-width:1.50000007000000000;stroke-miterlimit:4;stroke-dasharray:none;stroke-linejoin:miter;fill-rule:nonzero" /> <!-- Sonora mainland -->
		</g>

	</g>

</svg>