<?xml version="1.0" encoding="utf-8"?>
<!-- Generator: Adobe Illustrator 15.0.0, SVG Export Plug-In . SVG Version: 6.00 Build 0)  -->
<!DOCTYPE svg PUBLIC "-//W3C//DTD SVG 1.1//EN" "http://www.w3.org/Graphics/SVG/1.1/DTD/svg11.dtd">
<svg version="1.1"
	 id="svg2" inkscape:version="0.48.2 r9819" sodipodi:docname="AJAX1.svg" xmlns:dc="http://purl.org/dc/elements/1.1/" xmlns:cc="http://creativecommons.org/ns#" xmlns:rdf="http://www.w3.org/1999/02/22-rdf-syntax-ns#" xmlns:svg="http://www.w3.org/2000/svg" xmlns:sodipodi="http://sodipodi.sourceforge.net/DTD/sodipodi-0.dtd" xmlns:inkscape="http://www.inkscape.org/namespaces/inkscape"
	 xmlns="http://www.w3.org/2000/svg" xmlns:xlink="http://www.w3.org/1999/xlink" x="0px" y="0px" width="4000px" height="2400px"
	 viewBox="0 0 4000 2400" enable-background="new 0 0 4000 2400" xml:space="preserve">
<metadata><?xpacket begin="﻿" id="W5M0MpCehiHzreSzNTczkc9d"?>
<x:xmpmeta xmlns:x="adobe:ns:meta/" x:xmptk="Adobe XMP Core 5.0-c060 61.134777, 2010/02/12-17:32:00        ">
   <rdf:RDF xmlns:rdf="http://www.w3.org/1999/02/22-rdf-syntax-ns#">
      <rdf:Description rdf:about=""
            xmlns:xmpMM="http://ns.adobe.com/xap/1.0/mm/"
            xmlns:stRef="http://ns.adobe.com/xap/1.0/sType/ResourceRef#"
            xmlns:stEvt="http://ns.adobe.com/xap/1.0/sType/ResourceEvent#">
         <xmpMM:DerivedFrom rdf:parseType="Resource">
            <stRef:instanceID>xmp.iid:13D22CB96E91E2119883EBB4AF5B895E</stRef:instanceID>
            <stRef:documentID>xmp.did:13D22CB96E91E2119883EBB4AF5B895E</stRef:documentID>
            <stRef:originalDocumentID>xmp.did:13D22CB96E91E2119883EBB4AF5B895E</stRef:originalDocumentID>
         </xmpMM:DerivedFrom>
         <xmpMM:DocumentID>xmp.did:14D22CB96E91E2119883EBB4AF5B895E</xmpMM:DocumentID>
         <xmpMM:InstanceID>xmp.iid:14D22CB96E91E2119883EBB4AF5B895E</xmpMM:InstanceID>
         <xmpMM:OriginalDocumentID>xmp.did:13D22CB96E91E2119883EBB4AF5B895E</xmpMM:OriginalDocumentID>
         <xmpMM:History>
            <rdf:Seq>
               <rdf:li rdf:parseType="Resource">
                  <stEvt:action>saved</stEvt:action>
                  <stEvt:instanceID>xmp.iid:13D22CB96E91E2119883EBB4AF5B895E</stEvt:instanceID>
                  <stEvt:when>2013-03-20T10:59:11-04:00</stEvt:when>
                  <stEvt:softwareAgent>Adobe Illustrator CS5</stEvt:softwareAgent>
                  <stEvt:changed>/</stEvt:changed>
               </rdf:li>
               <rdf:li rdf:parseType="Resource">
                  <stEvt:action>saved</stEvt:action>
                  <stEvt:instanceID>xmp.iid:14D22CB96E91E2119883EBB4AF5B895E</stEvt:instanceID>
                  <stEvt:when>2013-03-20T11:49:11-04:00</stEvt:when>
                  <stEvt:softwareAgent>Adobe Illustrator CS5</stEvt:softwareAgent>
                  <stEvt:changed>/</stEvt:changed>
               </rdf:li>
            </rdf:Seq>
         </xmpMM:History>
      </rdf:Description>
      <rdf:Description rdf:about=""
            xmlns:dc="http://purl.org/dc/elements/1.1/">
         <dc:format>image/svg+xml</dc:format>
      </rdf:Description>
      <rdf:Description rdf:about=""
            xmlns:xmp="http://ns.adobe.com/xap/1.0/"
            xmlns:xmpGImg="http://ns.adobe.com/xap/1.0/g/img/">
         <xmp:CreatorTool>Adobe Illustrator CS5</xmp:CreatorTool>
         <xmp:CreateDate>2013-03-20T11:49:11-04:00</xmp:CreateDate>
         <xmp:MetadataDate>2013-03-20T11:49:11-04:00</xmp:MetadataDate>
         <xmp:ModifyDate>2013-03-20T11:49:11-04:00</xmp:ModifyDate>
         <xmp:Thumbnails>
            <rdf:Alt>
               <rdf:li rdf:parseType="Resource">
                  <xmpGImg:width>256</xmpGImg:width>
                  <xmpGImg:height>156</xmpGImg:height>
                  <xmpGImg:format>JPEG</xmpGImg:format>
                  <xmpGImg:image>/9j/4AAQSkZJRgABAgEASABIAAD/7QAsUGhvdG9zaG9wIDMuMAA4QklNA+0AAAAAABAASAAAAAEA&#xA;AQBIAAAAAQAB/+4ADkFkb2JlAGTAAAAAAf/bAIQABgQEBAUEBgUFBgkGBQYJCwgGBggLDAoKCwoK&#xA;DBAMDAwMDAwQDA4PEA8ODBMTFBQTExwbGxscHx8fHx8fHx8fHwEHBwcNDA0YEBAYGhURFRofHx8f&#xA;Hx8fHx8fHx8fHx8fHx8fHx8fHx8fHx8fHx8fHx8fHx8fHx8fHx8fHx8fHx8f/8AAEQgAnAEAAwER&#xA;AAIRAQMRAf/EAaIAAAAHAQEBAQEAAAAAAAAAAAQFAwIGAQAHCAkKCwEAAgIDAQEBAQEAAAAAAAAA&#xA;AQACAwQFBgcICQoLEAACAQMDAgQCBgcDBAIGAnMBAgMRBAAFIRIxQVEGE2EicYEUMpGhBxWxQiPB&#xA;UtHhMxZi8CRygvElQzRTkqKyY3PCNUQnk6OzNhdUZHTD0uIIJoMJChgZhJRFRqS0VtNVKBry4/PE&#xA;1OT0ZXWFlaW1xdXl9WZ2hpamtsbW5vY3R1dnd4eXp7fH1+f3OEhYaHiImKi4yNjo+Ck5SVlpeYmZ&#xA;qbnJ2en5KjpKWmp6ipqqusra6voRAAICAQIDBQUEBQYECAMDbQEAAhEDBCESMUEFURNhIgZxgZEy&#xA;obHwFMHR4SNCFVJicvEzJDRDghaSUyWiY7LCB3PSNeJEgxdUkwgJChgZJjZFGidkdFU38qOzwygp&#xA;0+PzhJSktMTU5PRldYWVpbXF1eX1RlZmdoaWprbG1ub2R1dnd4eXp7fH1+f3OEhYaHiImKi4yNjo&#xA;+DlJWWl5iZmpucnZ6fkqOkpaanqKmqq6ytrq+v/aAAwDAQACEQMRAD8A4zoPlPzPr7ldE0q71EIy&#xA;pK9tBJKkZf7PqMisE+nOpnkjHmQHSRgZcgnn5h/lh5l8n61qUE1hdyaNaTcLfWGgkFvJHJQx/vuI&#xA;j5UYAgH7VRleDURyAbi+5nkxGJPc9R8h/ll+VGp+T9Kv9V83x2Oo3EAe5tDd2cZjep+HhJ8Q+nOd&#xA;1sI+LLfq992X2rrcemhGGIyiBseGW6ff8qg/JT/qeov+k6w/pmLwR73P/lnX/wCoH/Szd/yqD8lP&#xA;+p6i/wCk6w/pjwR71/lnX/6gf9LN3/KoPyU/6nqL/pOsP6Y8Ee9f5Z1/+oH/AEs3f8qg/JT/AKnq&#xA;L/pOsP6Y8Ee9f5Z1/wDqB/0s3f8AKoPyU/6nqL/pOsP6Y8Ee9f5Z1/8AqB/0s2d54m4bsVdirsVd&#xA;irsVdirsVdirsVdirsVdirsVdirsVdirsVdirsVdirsVdirsVfJ35Z+cYvJ/m231+UXEqWkcpW0t&#xA;39P13aMrHHK9douZDNs3T7OfTOoxeJHhfPcU+GVpr+a35py/mCdIvLmGS0vrKGSC7tEctZk8+STQ&#xA;qzFldwxV6j9ldz2hptP4Vjp9rLNl46eh+Q4P+ceG8n6UfMNzImtGAfXlAv6CSpr/AHSFP+Bzn9bw&#xA;eLK+973suXaf5aHhAeHW30fpNp99W/5xZ/5a5fu1P/mjMX0Ofxdsdw/2H63fVv8AnFn/AJa5fu1P&#xA;/mjH0Lxdsdw/2H63fVv+cWf+WuX7tT/5ox9C8XbHcP8AYfrd9W/5xZ/5a5fu1P8A5ox9C8XbHcP9&#xA;h+t31b/nFn/lrl+7U/8AmjH0Lxdsdw/2H62d54m4bsVdirsVdirsVdirsVdirsVdirsVdirsVdir&#xA;sVdirsVdirsVdirsVdirsVeYf4p/5xo/6ku7/wCRcf8A2V57t/KE+8tH+hDN34/t/wCJd/in/nGj&#xA;/qS7v/kXH/2V4/yhPvK/6EM3fj+3/iUwg/Mf/nHuCFIY/JswjQUXlaWrGn+s1wScx55RI2ebn4ux&#xA;e0McRGOUCI5ASl/xKp/ys7/nH/8A6k2X/pCs/wDqvkeOPc2fyV2l/qw/00v+Jd/ys7/nH/8A6k2X&#xA;/pCs/wDqvjxx7l/krtL/AFYf6aX/ABLv+Vnf84//APUmy/8ASFZ/9V8eOPcv8ldpf6sP9NL/AIl3&#xA;/Kzv+cf/APqTZf8ApCs/+q+PHHuX+Su0v9WH+ml/xLv+Vnf84/8A/Umy/wDSFZ/9V8eOPcv8ldpf&#xA;6sP9NL/iWd54m4bsVdirsVdirsVdirsVdirsVdirsVdirsVdirsVdirsVdirsVdirsVdirsVY5/y&#xA;ujX/APy2d198n/ZHntviHuZ/yHj/AOUmP2f8W7/ldGv/APls7r75P+yPHxD3L/IeP/lJj9n/ABbv&#xA;+V0a/wD+Wzuvvk/7I8fEPcv8h4/+UmP2f8W7/ldGv/8Als7r75P+yPHxD3L/ACHj/wCUmP2f8W7/&#xA;AJXRr/8A5bO6++T/ALI8fEPcv8h4/wDlJj9n/Fu/5XRr/wD5bO6++T/sjx8Q9y/yHj/5SY/Z/wAW&#xA;7/ldGv8A/ls7r75P+yPHxD3L/IeP/lJj9n/Fu/5XRr//AJbO6++T/sjx8Q9y/wAh4/8AlJj9n/Fs&#xA;jzxJg7FXYq7FXYq7FXYq7FXYq7FXYq7FXYq7FXYq7FXYq7FXYq7FXYq7FXYq7FWHf8rb/PH/AKlm&#xA;y/5ET/8AZTnrH8v6X/VIuV/Img/1SXzH/Eu/5W3+eP8A1LNl/wAiJ/8Aspx/l/S/6pFf5E0H+qS+&#xA;Y/4l3/K2/wA8f+pZsv8AkRP/ANlOP8v6X/VIr/Img/1SXzH/ABLv+Vt/nj/1LNl/yIn/AOynH+X9&#xA;L/qkV/kTQf6pL5j/AIl3/K2/zx/6lmy/5ET/APZTj/L+l/1SK/yJoP8AVJfMf8S7/lbf54/9SzZf&#xA;8iJ/+ynH+X9L/qkV/kTQf6pL5j/iXf8AK2/zx/6lmy/5ET/9lOP8v6X/AFSK/wAiaD/VJfMf8S7/&#xA;AJW3+eP/AFLNl/yIn/7Kcf5f0v8AqkV/kTQf6pL5j/iWY55O4rsVdirsVdirsVdirsVdirsVdirs&#xA;VdirsVdirsVdirsVdirsVdirsVdirsVdirsVdirsVdirsVdirsVdirsVdirsVdirsVdirsVdirsV&#xA;dirsVdirsVdirsVdirsVdirsVdirsVdirsVY3/iS+/ki+5v+as9o/wCTc6D+fm/00P8AiHif9Emo&#xA;/mw+R/4p3+JL7+SL7m/5qx/5NzoP5+b/AE0P+IX/AESaj+bD5H/inf4kvv5Ivub/AJqx/wCTc6D+&#xA;fm/00P8AiF/0Saj+bD5H/inf4kvv5Ivub/mrH/k3Og/n5v8ATQ/4hf8ARJqP5sPkf+Kd/iS+/ki+&#xA;5v8AmrH/AJNzoP5+b/TQ/wCIX/RJqP5sPkf+Kd/iS+/ki+5v+asf+Tc6D+fm/wBND/iF/wBEmo/m&#xA;w+R/4p3+JL7+SL7m/wCasf8Ak3Og/n5v9ND/AIhf9Emo/mw+R/4p3+JL7+SL7m/5qx/5NzoP5+b/&#xA;AE0P+IX/AESaj+bD5H/inf4kvv5Ivub/AJqx/wCTc6D+fm/00P8AiF/0Saj+bD5H/inHzLeqCSkQ&#xA;A3JIagH/AAWP/JudB/Pzf6aH/EL/AKJNR/Nh8j/xSSj82dA4u36TsQEr1ehan++wW+P241rmIPYj&#xA;so3++ybf0of8Q2fy/qv5sPkf+KQmn/nDa3l9HatbPaCduFrcXEYSOVj9ldpGZC37IdVr067ZiaX2&#xA;U7HzZPDjlzcXvhv7vQwHtJmJIj4ZI/rfr3+DJf8AEl9/JF9zf81Ztv8Ak3Og/n5v9ND/AIhH+iTU&#xA;fzYfI/8AFO/xJffyRfc3/NWP/JudB/Pzf6aH/EL/AKJNR/Nh8j/xTv8AEl9/JF9zf81Y/wDJudB/&#xA;Pzf6aH/EL/ok1H82HyP/ABTv8SX38kX3N/zVj/ybnQfz83+mh/xC/wCiTUfzYfI/8U7/ABJffyRf&#xA;c3/NWP8AybnQfz83+mh/xC/6JNR/Nh8j/wAU7/El9/JF9zf81Y/8m50H8/N/pof8Qv8Aok1H82Hy&#xA;P/FO/wASX38kX3N/zVj/AMm50H8/N/pof8Qv+iTUfzYfI/8AFO/xJffyRfc3/NWP/JudB/Pzf6aH&#xA;/EL/AKJNR/Nh8j/xTv8AEl9/JF9zf81Y/wDJudB/Pzf6aH/EL/ok1H82HyP/ABTv8SX38kX3N/zV&#xA;j/ybnQfz83+mh/xC/wCiTUfzYfI/8U7/ABJffyRfc3/NWP8AybnQfz83+mh/xC/6JNR/Nh8j/wAU&#xA;7/El9/JF9zf81Y/8m50H8/N/pof8Qv8Aok1H82HyP/FO/wASX38kX3N/zVj/AMm50H8/N/pof8Qv&#xA;+iTUfzYfI/8AFO/xJffyRfc3/NWP/JudB/Pzf6aH/EL/AKJNR/Nh8j/xTv8AEl9/JF9zf81Y/wDJ&#xA;udB/Pzf6aH/EL/ok1H82HyP/ABTv8SX38kX3N/zVj/ybnQfz83+mh/xC/wCiTUfzYfI/8U7/ABJf&#xA;fyRfc3/NWP8AybnQfz83+mh/xC/6JNR/Nh8j/wAU7/El9/JF9zf81Y/8m50H8/N/pof8Qv8Aok1H&#xA;82HyP/FO/wASX38kX3N/zVj/AMm50H8/N/pof8Qv+iTUfzYfI/8AFO/xJffyRfc3/NWP/JudB/Pz&#xA;f6aH/EL/AKJNR/Nh8j/xSVZ37z7sVdirsVdirsVdirsVQuq6jFpumXeoTKzxWcLzuqCrERqWIHvt&#xA;kMkxGJkegZQjxEDvea3vmPV/MNjGt3JDHp81JGtbZWHMHcJLIzNzUeAVa99ts897U9os+QHEBwD7&#xA;XF1GqOORjEVIbX+ru+1RAAFBsB0Gcs6tL5ryOZ7u1ubdhbwqPWkqDSNqASkDcJyNOY+yftcaiuyw&#xA;aDKcfjYzfD0HMOwxaSfAMsDZ/H4rr0t6j5O1G61Hy3Y3V0GMzoVMrqVMqoxVJqED+9UB/pz1HQZZ&#xA;5MMZTFSI3c/IKP428vgnOZbB2KuxV2KuxV2KuxV2KuxV2KuxV2KuxV2KuxV2KuxV2KuxV2KuxV2K&#xA;uxV2KuxV2KuxVCavYfpHSb3T/UMX1yCW39UCpX1UKcqVFaVyGWHFEx7xTKEuGQPc8Al1XVorfTre&#xA;0+NjbC5uaeHEzMoHtFFJnnWHRxzTnIjqR8g5WPS48k5zkP4qHw2v5lOrTWeMiJfskQuyz2Dg7Oiz&#xA;SQFT/lB4j9BGYGs7MlCMZRGxjZ+79DrtV2YRESxi6Hq+QKZaFpF3FrHlLUYDJdW2oo8d0ZKyCOVY&#xA;nS5jZuP2H3Kq3dT7U7HR6KOOeOeMemY37rrd2hEBGYAA/Gxe6eWtItb24ZJhWCNeKwRyJFKxIoDE&#xA;r0VuH8tc3upymEdvu2+NcmjT4hM7/tXax5au7AvJEfrNqn2nClJI69PVib4k+fT3wYdVGex2P45H&#xA;qubTGG43H45hI55hEgPFpHZlSKKMcnkdzxREXuzMaAZbmzRxxMpcg14cUskhGPMtwTJNGJErQ1BD&#xA;AqwINCrKdwQdiD0yWPJGcRKO4KMmMwkYy5hM7TQ7+4jEzKttanpdXDCKP6C32v8AYg5CeojE1zPc&#xA;N2UMEiL5DvOzINL8taaFEot7jV2G5ZQbSzHzmk4s30ZhZdVPlYh/spfIOXj00edGf2R+ZSjzNZQQ&#xA;XYljktAZq8rSycyJFxAAqx7t7Zk6WZMaPFt1l1cfUwANjh36Dok2ZTjuxV2KuxV2KuxV2KuxV2Ku&#xA;xV2KuxV2KseufPWhRD9yZrp/5IomXbx5S+kn/DZpc/tBpMY+vi927CWSA5kff9yU3PnzU32tbOGD&#xA;weZ2mNPdFEVP+DOaTP7YD/Jw+Z/U0S1kByBP2frSu48wa/cgiW/kVG6xwhYQPkyASf8AD5ps/tNq&#xA;58iI+4NMtbLoAPx5pfMvrnlcs9y3807tKfvkLZq8vaGoyG5Tkfi1HU5D/Efu+50Km3blbO9s3doH&#xA;aIn5mMrXHD2jqMZuM5D4rHU5B1+e/wB6cWPm7X7QgSSJfRD9mccJKDagljAH/BIxzoNJ7WZobZAJ&#xA;j5FyIa0fxD5fq/sTy08/aa9BeW81q37ThfWjr7GOsn3oM6HTe02lyfUTA+f63JjmhLkfnt+z7U4s&#xA;9f0S8ZUtr6CSV+kPNRJ8jGaOD8xm5xarFkFwlE35tvCatH5kIYhp/kvQNE1C6vLm4jFtJcfWbOKY&#xA;rGIeUMkLxcieLx8Z24im3vmBj0mPESSRRN/Yf1uTLPKQADFdY0vy3DJaaPZ3Qm0aKKKKW4EglKiW&#xA;6kkkPNf2h6lfbbOZ7R8IanFES9AG5vlZNu70c5flskzz/UAj/wAuPM1np2l3ttqc0iFbt/SAhmkU&#xA;ngoldCiMODyhmHuTmd2b2lp9PiMMmSOxNe7o6HUGAqpDl3jl0+Qp6X5c87X81nLDpGj6nqMDOWf0&#xA;7SKW2rxAPMTUp7moyzJ2zpckrjxS8wJfey0+U1Ud/hY+5MYvzTl06Qi70iYNDHIStvJDdLCoWjGS&#xA;KKS8aIDqQOGUS7S0kjXER37ffw/pbhrOE9PgeX319jHtOun1iGbWNEeQrockLSXHM2hSS6YwoR66&#xA;otBUksaBRvXMnV9pafMBw3OI7jW7f2ZikQZQlHu7/NUlEmnW0Ws6tKkEOtS3BF1NcxyK81s/pPVl&#xA;Pp1enIFSeQFct7O1eKNxHpB33kz7RwZKEpEGtthTKdB8waXqEQe2vrc3MagSzRCGeXbYEzXU3FK/&#xA;5GZU6J9PqHv2+UR97i459+x92/zkfuTaUadcPW9lF643re6nHxHyW3D0+hsgOIfSOH+rA/pbDwn6&#xA;jxe+f6kDr1nYvYLPE+n26w19OOzE7vIWps0jqAaAEjLtPOQlR4zffWzVnhExscIrutjOZ7hOxV2K&#xA;uxV2KuxV2KuxV2KuxV2KuxV2KvJc8RdG7FXYq7FXYq7FXYqteOOReLqHU9VYVH44QSOSRIjcLPql&#xA;pSnox08OI/pl35nL/Ol8y2ePk/nH5ujtbaM1jhRD4qoB2+WVyySlzJLGWSR5klCseQll7GVSPlGy&#xA;r+PHMyMajXl973uj0xh2aY9ZQkfmCj8wHz9kOiebRpmkzWEtiuoc5PUgS6mnNtGSKE/VUdI3Y+LZ&#xA;k4tRwxqr95NfJy8Oq4IGJHF7ya/0vJBar5m1rVE9G6uONopqllCqwWyn/JhiCRj50rleTPKexO3d&#xA;0+TVl1E57E7d3IfIPWfyqE+k/lvc6pHcfUZb3U0Uzh7WJ2t4+CsIzeUg5f3lOWdF2bHhwA972nY+&#xA;Lh08fOz9v6qX/me91rH5atftdfXhY6qpSZpLSWRYGj4cJGsiYOXOQHbelMPaEeLAfJl2vj4tPMDu&#xA;v5H9Tyzy7reh2ksUWuaNbanZoxZJTHH9Zi5bMUd1ZXFCfhkBAO68Tvmj02q8M7jby5/j3vI6TWeH&#xA;tIXH7f2/H7Gfy615E0+K2m0nXbzT4dQJJFrS7SBkp8Nzp9+LoIPioGiffsKDN5/K/DR4yQfjXvHP&#xA;5F3B1uCNEHaXly/rR/akWu/mlqxeTSgljqen201be9tYpdP9UKCodoSZ07noq5kaf2lGLITKPF0s&#xA;H9e/2uLn7ShL0fwg8x1+G1IW28+6Q+11DcWhp9pk9VSfAeiZG+llGb/T+0mkyc5cJ82uOWEuRH3f&#xA;enllqenX6lrK6iuQv2vSdWK1/mAO305usWaGQXEiXubSCictQ7FXYq7FXYq7FXYq7FXYq7FXYq8l&#xA;zxF0bsVdirsVdirsVdirsVdiqhdTMoEUZ/fSfZP8o7sfll2HHxGzyDtuyOzTqcu/0R+r9XxWGFDA&#xA;YRshXgKdhSmZd72+kmIIroq28pljq20injIB2Ydf6j2zCyQ4TT5Zr9GdPmOM9OXu6KuVuG7FX0p5&#xA;At9Jk8ieW7Wy1q2iv9OJvDRo5Sss6SiSOSPmpBUXRBB3BzssEQMcQDyD6PghwQEeYEQPku8+2enx&#xA;+QvMsF7rFvNd6iReBqxw1kgSFUjjTm3In6su1aknHPEHHIXzC5occDHviR83zTnGvnDsVdirsVWN&#xA;FGzq7KPUTdH6Mp8VYbj6Msx5p4zcSQfJnDJKPI0mdl5j1+yoIrs3EY/3TdD1Rv8A8WVEtfmxHtm/&#xA;0ntPqcW0jxjz5/Nyoa0/xC/s/YzXQPMNtq8LUX0buKn1i1J5Fa9GU0HJD2an3HbO77O7Sx6uHFDn&#xA;1HUOdGQkLHJNc2CXYq7FXYq7FXYq7FXYq7FXn/8AgzzV/wBWuf8A4HPDPzGL+fH/AEw/W438jav/&#xA;AFKfyd/gzzV/1a5/+Bx/MYv58f8ATD9a/wAjav8A1Kfyd/gzzV/1a5/+Bx/MYv58f9MP1r/I2r/1&#xA;Kfyd/gzzV/1a5/8AgcfzGL+fH/TD9a/yNq/9Sn8nf4M81f8AVrn/AOBx/MYv58f9MP1r/I2r/wBS&#xA;n8nf4M81f9Wuf/gcfzGL+fH/AEw/Wv8AI2r/ANSn8nf4M81f9Wuf/gcfzGL+fH/TD9a/yNq/9Sn8&#xA;nf4M81f9Wuf/AIHH8xi/nx/0w/Wv8jav/Up/J3+DPNX/AFa5/wDgcfzGL+fH/TD9a/yNq/8AUp/J&#xA;Rl8heZZHLnTLpXIC8l5LsCSNgad8shrYR2E4fOLnaTB2lpxWOEwLuuFYfy/809FsbtQft7VJ+k/Z&#xA;/wBjkx2hD+dD5j9bnw1Pao4rxyPF/R5e79qrD5E8zRciml3FWNSWBY7bdScrnrIS5zh/pous1Wj7&#xA;Q1BByQmSP6Kp/gzzV/1a5/8Agch+Yxfz4/6YfrcX+RtX/qU/k7/Bnmr/AKtc/wDwOP5jF/Pj/ph+&#xA;tf5G1f8AqU/k4eTPNQNRpk4PjxwjVQHKcf8ATD9bOHZeuj9MMg+bj5N81mldMuDTpVcJ1cDznH/T&#xA;D9aZ9ma6X1QyH5u/wZ5q/wCrXP8A8DkfzGL+fH/TD9bX/I2r/wBSn8nf4M81f9Wuf/gcfzGL+fH/&#xA;AEw/Wv8AI2r/ANSn8nf4M81f9Wuf/gcfzGL+fH/TD9a/yNq/9Sn8nf4M81f9Wuf/AIHH8xi/nx/0&#xA;w/Wv8jav/Up/J3+DPNX/AFa5/wDgcfzGL+fH/TD9a/yNq/8AUp/J3+DPNX/Vrn/4HH8xi/nx/wBM&#xA;P1r/ACNq/wDUp/JdF5S85206XNpYTw3UX93JwqN+qsKjkrdx/GhzM0Paw02QThOPn6hv9rdg7M1m&#xA;M34U66ime6Tb6zd2SS3Ony2lyPhmgcbBh14ttyU9Qfvods9Dw+1nZ8oAyyxie6/1OyHZeoO4hL5I&#xA;z9Faj/vhst/0U9m/6tBP8lan+YXforUf98Nj/op7N/1aC/yVqf5hd+itR/3w2P8Aop7N/wBWgv8A&#xA;JWp/mF36K1H/AHw2P+ins3/VoL/JWp/mF36K1H/fDY/6Kezf9Wgv8lan+YXforUf98Nj/op7N/1a&#xA;C/yVqf5hd+itR/3w2P8Aop7N/wBWgv8AJWp/mF36K1H/AHw2P+ins3/VoL/JWp/mFl2fO76M7FXY&#xA;q7FXYq7FXYq7FXYq7FXYq7FXYq7FXYq7FXYq7FXYq7FXYq7FXYq7FXYq7FXYq7FXYq7FXYq7FXYq&#xA;7FXYq7FXYq7FXYq7FXYq7FXYq7FXYq7FXYq7FXYq7FXYq7FXYq7FXYq7FXYq7FXYq7FXYq7FXYq7&#xA;FXYq7FXYq7FXYq7FXYq7FXYq7FXYq7FXYq7FXYq7FXYq7FXYq7FXYq7FXYq7FXYq7FXYq7FXYq7F&#xA;XYq7FXYq7FXYq7FXYq7FXYq7FXYq7FXYq7FXYq7FXYq7FXYq7FXYq7FXYq7FXYq7FXYq7FXYq7FX&#xA;Yq7FXYq7FXYq7FXYq7FXYq7FXYq7FXYq7FXYq7FXYq7FXYq7FXYq7FXYq7FXYq7FXYq7FXYq7FXY&#xA;q7FXYq7FXYq7FXYq7FXYq7FXYq7FXYq7FXYq7FXYq7FXYq7FXYq7FXYq7FXYq7FXYq7FXYq7FXYq&#xA;7FXYq7FXYq7FXYq7FWU/86h/kf8AJTPQf9ZP6P8As3Uf4T5/Y7/nUP8AI/5KY/6yf0f9mv8AhPn9&#xA;jv8AnUP8j/kpj/rJ/R/2a/4T5/Y7/nUP8j/kpj/rJ/R/2a/4T5/Y7/nUP8j/AJKY/wCsn9H/AGa/&#xA;4T5/Y7/nUP8AI/5KY/6yf0f9mv8AhPn9jv8AnUP8j/kpj/rJ/R/2a/4T5/Y7/nUP8j/kpj/rJ/R/&#xA;2a/4T5/Y7/nUP8j/AJKY/wCsn9H/AGa/4T5/Y7/nUP8AI/5KY/6yf0f9mv8AhPn9jv8AnUP8j/kp&#xA;j/rJ/R/2a/4T5/Y7/nUP8j/kpj/rJ/R/2a/4T5/Y7/nUP8j/AJKY/wCsn9H/AGa/4T5/Y7/nUP8A&#xA;I/5KY/6yf0f9mv8AhPn9jv8AnUP8j/kpj/rJ/R/2a/4T5/Y7/nUP8j/kpj/rJ/R/2a/4T5/Y7/nU&#xA;P8j/AJKY/wCsn9H/AGa/4T5/Y7/nUP8AI/5KY/6yf0f9mv8AhPn9jv8AnUP8j/kpj/rJ/R/2a/4T&#xA;5/Y7/nUP8j/kpj/rJ/R/2a/4T5/Y7/nUP8j/AJKY/wCsn9H/AGa/4T5/Y7/nUP8AI/5KY/6yf0f9&#xA;mv8AhPn9jv8AnUP8j/kpj/rJ/R/2a/4T5/Y7/nUP8j/kpj/rJ/R/2a/4T5/Y7/nUP8j/AJKY/wCs&#xA;n9H/AGa/4T5/Y7/nUP8AI/5KY/6yf0f9mv8AhPn9jv8AnUP8j/kpj/rJ/R/2a/4T5/Y7/nUP8j/k&#xA;pj/rJ/R/2a/4T5/Y7/nUP8j/AJKY/wCsn9H/AGa/4T5/Y7/nUP8AI/5KY/6yf0f9mv8AhPn9jv8A&#xA;nUP8j/kpj/rJ/R/2a/4T5/Y7/nUP8j/kpj/rJ/R/2a/4T5/Y/wD/2Q==</xmpGImg:image>
               </rdf:li>
            </rdf:Alt>
         </xmp:Thumbnails>
      </rdf:Description>
      <rdf:Description rdf:about=""
            xmlns:xmpTPg="http://ns.adobe.com/xap/1.0/t/pg/"
            xmlns:stDim="http://ns.adobe.com/xap/1.0/sType/Dimensions#"
            xmlns:xmpG="http://ns.adobe.com/xap/1.0/g/">
         <xmpTPg:MaxPageSize rdf:parseType="Resource">
            <stDim:w>4000.000000</stDim:w>
            <stDim:h>2400.000000</stDim:h>
            <stDim:unit>Pixels</stDim:unit>
         </xmpTPg:MaxPageSize>
         <xmpTPg:NPages>1</xmpTPg:NPages>
         <xmpTPg:HasVisibleTransparency>False</xmpTPg:HasVisibleTransparency>
         <xmpTPg:HasVisibleOverprint>False</xmpTPg:HasVisibleOverprint>
         <xmpTPg:PlateNames>
            <rdf:Seq>
               <rdf:li>Cyan</rdf:li>
               <rdf:li>Magenta</rdf:li>
               <rdf:li>Yellow</rdf:li>
               <rdf:li>Black</rdf:li>
            </rdf:Seq>
         </xmpTPg:PlateNames>
         <xmpTPg:SwatchGroups>
            <rdf:Seq>
               <rdf:li rdf:parseType="Resource">
                  <xmpG:groupName>Default Swatch Group</xmpG:groupName>
                  <xmpG:groupType>0</xmpG:groupType>
               </rdf:li>
            </rdf:Seq>
         </xmpTPg:SwatchGroups>
      </rdf:Description>
   </rdf:RDF>
</x:xmpmeta>
                                                                                                    
                                                                                                    
                                                                                                    
                                                                                                    
                                                                                                    
                                                                                                    
                                                                                                    
                                                                                                    
                                                                                                    
                                                                                                    
                                                                                                    
                                                                                                    
                                                                                                    
                                                                                                    
                                                                                                    
                                                                                                    
                                                                                                    
                                                                                                    
                                                                                                    
                                                                                                    
                           
<?xpacket end="w"?>
	</metadata>
<sodipodi:namedview  id="namedview23" inkscape:window-height="1004" inkscape:window-width="1280" inkscape:pageshadow="2" inkscape:pageopacity="0" inkscape:cy="1839.5667" inkscape:cx="1026.9443" bordercolor="#666666" inkscape:zoom="0.14122807" pagecolor="#ffffff" guidetolerance="10" gridtolerance="10" fit-margin-left="0" objecttolerance="10" borderopacity="1" fit-margin-top="0" showgrid="false" inkscape:current-layer="svg2" inkscape:window-y="-8" inkscape:window-x="-8" fit-margin-bottom="0" fit-margin-right="0" inkscape:window-maximized="1">
	</sodipodi:namedview>
<path id="path3778" sodipodi:nodetypes="ccccc" inkscape:connector-curvature="0" fill="#FAD115" d="M0,0h4000v2400H0V0z"/>
<path id="path3042" sodipodi:nodetypes="ccccc" inkscape:connector-curvature="0" fill="#BF0A30" d="M0,0h1000v600H0V0z"/>
<path id="path3044" sodipodi:nodetypes="ccccccccccccccccccccccccc" inkscape:connector-curvature="0" fill="#FFFFFF" d="M0,54.545
	v54.545h1000V54.545H0z M0,163.636v54.545h1000v-54.545H0z M0,272.728v54.545h1000v-54.545H0z M0,381.818v54.545h1000v-54.545H0z
	 M0,490.909v54.545h1000v-54.545H0z"/>
<path id="path3046" inkscape:connector-curvature="0" fill="#002868" d="M0,0h272.727v272.728H0V0z"/>
<g id="g3048" transform="matrix(15,0,0,15,24.999993,25)">
	<g id="g3050">
		<polygon id="polygon3052" fill="#FFFFFF" points="7.424,1.97 5.739,7.157 8.332,8 		"/>
		<polygon id="polygon3054" fill="#FFFFFF" points="6.516,8 7.424,1.97 9.11,7.157 		"/>
	</g>
	<g id="g3056" transform="matrix(0.30901699,0.95105652,-0.95105652,0.30901699,0,0)">
		<polygon id="polygon3058" fill="#FFFFFF" points="10.263,-4.191 9.355,-10.221 7.67,-5.034 		"/>
		<polygon id="polygon3060" fill="#FFFFFF" points="8.447,-4.191 9.355,-10.221 11.041,-5.034 		"/>
	</g>
	<g id="g3062" transform="matrix(0.30901699,-0.95105652,0.95105652,0.30901699,0,0)">
		<polygon id="polygon3064" fill="#FFFFFF" points="-3.858,9.931 -4.767,3.901 -6.452,9.088 		"/>
		<polygon id="polygon3066" fill="#FFFFFF" points="-5.675,9.931 -4.767,3.901 -3.081,9.088 		"/>
	</g>
	<g id="g3068" transform="matrix(-0.80901699,0.58778525,-0.58778525,-0.80901699,0,0)">
		<polygon id="polygon3070" fill="#FFFFFF" points="-0.734,-9.794 -1.642,-15.825 -3.328,-10.637 		"/>
		<polygon id="polygon3072" fill="#FFFFFF" points="-2.551,-9.794 -1.642,-15.825 0.043,-10.637 		"/>
	</g>
	<g id="g3074" transform="matrix(-0.80901699,-0.58778525,0.58778525,-0.80901699,0,0)">
		<polygon id="polygon3076" fill="#FFFFFF" points="-9.462,-1.067 -10.37,-7.097 -12.056,-1.909 		"/>
		<polygon id="polygon3078" fill="#FFFFFF" points="-11.278,-1.067 -10.37,-7.097 -8.685,-1.909 		"/>
	</g>
</g>
<path id="path3047" sodipodi:nodetypes="ccccc" inkscape:connector-curvature="0" fill="#66AAEE" d="M0,800h4000v800H0V800z"/>
<g>
	<defs>
		<path id="path3047_1_" sodipodi:nodetypes="ccccc" inkscape:connector-curvature="0" d="M0,800h4000v800H0V800z"/>
	</defs>
	<clipPath id="path3047_2_">
		<use xlink:href="#path3047_1_"  overflow="visible"/>
	</clipPath>
	<path clip-path="url(#path3047_2_)" fill="#009900" d="M2925.098,1613.497c0,0-130.876-139.798-163.594-166.567
		s-306.365-104.104-377.751-118.977s-220.106-57.463-321.237-78.284c0,0-297.442-25.821-380.726-34.744
		s-229.03,11.896-359.905,23.795s-166.568,17.847-255.8,20.821s-292.092-53.693-348.007-73.335
		c-53.912-18.938-145.539-53.54-217.132-53.54c-73.558,0-309.34,58.463-353.956,67.386S51.808,1232.772,0,1232.771v380.726
		L2925.098,1613.497z"/>
	<path clip-path="url(#path3047_2_)" fill="none" stroke="#000000" stroke-width="7" stroke-miterlimit="10" d="M2925.098,1613.497
		c0,0-130.876-139.798-163.594-166.567s-306.365-104.104-377.751-118.977s-220.106-57.463-321.237-78.284
		c0,0-297.442-25.821-380.726-34.744s-229.03,11.896-359.905,23.795s-166.568,17.847-255.8,20.821s-291.494-55.488-348.007-73.335
		c-56.514-17.846-123.018-52.54-217.132-52.54c-101.025,0-309.34,57.463-353.956,66.386S51.808,1232.772,0,1232.771"/>
</g>
<g id="light_burst__x28_right_x29_">
	<path fill="#FFFFFF" d="M2268.738,1020.803l-262.154,108.062l3.477,7.344l271.283-90.283
		C2281.343,1045.926,2286.082,1032.67,2268.738,1020.803z"/>
	<path fill="#FFFFFF" d="M2306.903,1071.485l-287.627,91.457l0.087,10.431l294.843-76.329
		C2314.206,1097.044,2316.399,1081.747,2306.903,1071.485z"/>
	<path fill="#FFFFFF" d="M2033.578,1201.019l277.889-56.508c0,0,13.988,11.69,2.175,25.559l-277.499,38.903L2033.578,1201.019z"/>
	<path fill="#FFFFFF" d="M2073.219,1228.101l272.935-30.82c0,0,8.216,18.432,0.913,23.908l-272.935,13.604L2073.219,1228.101z"/>
	<path fill="#FFFFFF" d="M2274.041,1247.921l52.031-2.738c0,0,5.478,8.867,0,18.908l-52.031-10.041V1247.921z"/>
	<path fill="#FFFFFF" d="M2039.445,1272.306l3.651-7.302l145.139,65.723c0,0,4.564,18.257-11.866,25.56L2039.445,1272.306z"/>
	<path fill="#FFFFFF" d="M2094.43,1274.593l7.651-5.302l169.308,49.743c0,0,4.564,18.257-11.866,25.56L2094.43,1274.593z"/>
	<path fill="#FFFFFF" d="M2181.107,1263.004l0.216-7.867l142.924,20.82c0,0,6.39,20.995-6.39,22.821L2181.107,1263.004z"/>
</g>
<g id="lighthouse">
	<path fill="#FFFFFF" stroke="#563823" stroke-width="10" stroke-linejoin="round" stroke-miterlimit="10" d="M1810.5,1201.5
		l-53,279c0,0-4,21,125,21s109-21,109-21l-47-279H1810.5z"/>
	<rect x="1838.334" y="1368.5" fill="none" stroke="#563823" stroke-width="10" stroke-miterlimit="10" width="76" height="56"/>
	<rect x="1845.334" y="1286.5" fill="none" stroke="#563823" stroke-width="10" stroke-miterlimit="10" width="62" height="48"/>
	<rect x="1852.834" y="1207.5" fill="none" stroke="#563823" stroke-width="10" stroke-miterlimit="10" width="47" height="34"/>
	<g>
		<path fill="#FFFFFF" d="M1875.174,1157.202c-25.02,0-40.912-1.994-49.081-3.421l42.353-66.259l56.538,65.129
			C1916.057,1154.55,1899.277,1157.202,1875.174,1157.202z"/>
		<path fill="#563823" d="M1869.057,1095.852l46.413,53.465c-9.346,1.475-22.847,2.885-40.295,2.885
			c-18.404,0-31.81-1.107-40.706-2.239L1869.057,1095.852 M1867.837,1079.192l-49.842,77.976c0,0,17.262,5.034,57.18,5.034
			c38.839,0,58.912-6.694,58.912-6.694L1867.837,1079.192L1867.837,1079.192z"/>
	</g>
</g>
<g id="light_burst__x28_leftt_x29_">
	<path fill="#FFFFFF" d="M1725.297,1150.269l-0.045-15.363l-141.32-74.315c0,0-1.449-17.515,13.86-20.066l151.685,97.759
		c7.479,15.03-3.402,40.823-14.458,50.178l-186.107-44.823c0,0-5.252-11.262,4.954-19.767l169.341,53.987l2.045-17.386
		l-162.881-61.06c0,0-3.701-14.262,8.206-18.515L1725.297,1150.269z"/>
	<path fill="#FFFFFF" d="M1552.185,1178.901l64.804,10.281l-66.231-0.01C1550.758,1189.173,1543.622,1180.329,1552.185,1178.901z"/>
	<path fill="#FFFFFF" d="M1557.206,1290.046l169.618-50.164l5.97,3.646l-161.488,63.587
		C1571.307,1307.115,1545.591,1307.47,1557.206,1290.046z"/>
	<path fill="#FFFFFF" d="M1558.529,1262.976l134.935-42.493l-12.97-1.646l-133.581,25.585
		C1546.913,1244.421,1530.652,1259.168,1558.529,1262.976z"/>
</g>
<g id="tree">
	<path id="trunk" fill="#725214" stroke="#291A06" stroke-width="7" stroke-miterlimit="10" d="M1176.543,1519.934
		c0,0,8.629-28.764,27.326-46.022s57.529-83.419,67.597-117.936s21.573-67.597,27.326-128.002s11.506-176.902,11.506-176.902
		l40.271,20.135c0,0,2.876,70.474,2.876,93.485s2.877,198.476,10.068,228.678s57.529,116.495,63.282,120.811s-15.82,8.63-15.82,8.63
		v10.067c0,0-21.573-11.506-35.956-10.067s-31.641,25.888-40.271,27.326s-31.641-28.765-37.394-28.765s-18.697-4.314-25.888,1.438
		s-8.629,17.259-20.135,17.259s-14.383-21.573-28.765-21.573S1170.79,1541.507,1176.543,1519.934z"/>
	<path id="branches" fill="#009900" d="M1132.5,943.114c14-16,40-10,57-17s65-64,84-67s61,11,79,8s46.895-39.511,69-35
		c49,10,92,89,99,113c0,0,7,20,10,25c-7,10-26-3-19,11c4.025,8.05-12,23-12,23s-44-49-67-52s-30,3-30,3s53,46,62,75
		c9.265,29.853,3,90-7,83s-25-89-68-86c-7,21-2,53,2,79s27.165,54.652,29,73c2,20-6,44-19,60c-20-64-42-109-54-122s-23,3-29,0
		c-7.211-3.605-21-58-38-60s7.909,94.546-15,106c-6,3-38-94-36-117s-11.152,37.297-13,53c-2,17-7,61-7,61c-9-53-14-70-7-117
		c3.83-25.716-43,114-28,136c15,22-35-14-40-57s-2-65,6-76s-30,18-27,1s7-61,22-61c-16-1-32,10-23-9
		C1122.522,955.958,1132.5,943.114,1132.5,943.114z"/>
	<path id="branches__x28_shadow_x29_" fill="#21492A" d="M1402.5,952.5c19.696,22.545,53,46,62,75c9.265,29.853,3,90-7,83
		s-25-89-68-86c-7,21-2,53,2,79s27.165,54.652,29,73c2,20-6,44-19,60c-20-64-42-109-54-122s-23,3-29,0c-7.211-3.605-21-58-38-60
		s7.909,94.546-15,106c-6,3-38-94-36-117s-11.152,37.297-13,53c-2,17-7,61-7,61c-9-53-14-70-7-117c3.83-25.716-43,114-28,136
		s-35-14-40-57s-2-65,6-76s-30,18-27,1s7-61,22-61c-16-1-32,10-23-9c10.021-21.156,20-34,20-34s-8.266,18.862-3.038,26.704
		s22.652,11.326,22.652,11.326s-16.554,26.137-11.326,34.849s21.781,6.099,21.781,6.099s-28.75,67.085-23.523,88.866
		s20.038,37.463,20.038,37.463s20.91-108.904,41.819-120.23s10.455,39.206,10.455,39.206s13.069-44.433,23.523-52.274
		s11.326,87.123,21.781,106.29s-5.228-62.728,6.97-73.183s10.455-16.553,13.94-15.682s32.236,57.501,43.562,63.6
		s28.75-2.613,35.72,7.841s36.591,77.54,40.077,96.707s13.069,2.613,13.94-14.811s-29.622-69.698-31.364-87.123
		s-6.099-79.282,4.356-83.638s53.145,23.523,61.857,33.107S1408.257,969.818,1402.5,952.5z"/>
	
		<path id="branches__x28_stroke_x29_" fill="none" stroke="#000000" stroke-width="10" stroke-linejoin="round" stroke-miterlimit="10" d="
		M1132.5,943.114c14-16,40-10,57-17s65-64,84-67s61,11,79,8s46.895-39.511,69-35c49,10,92,89,99,113c0,0,7,20,10,25
		c-7,10-26-3-19,11c4.025,8.05-12,23-12,23s-44-49-67-52s-30,3-30,3s53,46,62,75c9.265,29.853,3,90-7,83s-25-89-68-86
		c-7,21-2,53,2,79s27.165,54.652,29,73c2,20-6,44-19,60c-20-64-42-109-54-122s-23,3-29,0c-7.211-3.605-21-58-38-60
		s7.909,94.546-15,106c-6,3-38-94-36-117s-11.152,37.297-13,53c-2,17-7,61-7,61c-9-53-14-70-7-117c3.83-25.716-43,114-28,136
		c15,22-35-14-40-57s-2-65,6-76s-30,18-27,1s7-61,22-61c-16-1-32,10-23-9C1122.522,955.958,1132.5,943.114,1132.5,943.114z"/>
</g>
</svg>
