<?xml version="1.0" encoding="UTF-8" standalone="no"?>
<svg
   xmlns:dc="http://purl.org/dc/elements/1.1/"
   xmlns:cc="http://creativecommons.org/ns#"
   xmlns:rdf="http://www.w3.org/1999/02/22-rdf-syntax-ns#"
   xmlns:svg="http://www.w3.org/2000/svg"
   xmlns="http://www.w3.org/2000/svg"
   xmlns:sodipodi="http://sodipodi.sourceforge.net/DTD/sodipodi-0.dtd"
   xmlns:inkscape="http://www.inkscape.org/namespaces/inkscape"
   width="573pt"
   height="367pt"
   viewBox="0 0 573 367"
   version="1.1"
   id="svg2"
   inkscape:version="0.47 r22583"
   sodipodi:docname="ZZ2.svg">
  <metadata
     id="metadata28">
    <rdf:RDF>
      <cc:Work
         rdf:about="">
        <dc:format>image/svg+xml</dc:format>
        <dc:type
           rdf:resource="http://purl.org/dc/dcmitype/StillImage" />
      </cc:Work>
    </rdf:RDF>
  </metadata>
  <defs
     id="defs26">
    <inkscape:perspective
       sodipodi:type="inkscape:persp3d"
       inkscape:vp_x="0 : 229.375 : 1"
       inkscape:vp_y="0 : 1000 : 0"
       inkscape:vp_z="716.25 : 229.375 : 1"
       inkscape:persp3d-origin="358.125 : 152.91667 : 1"
       id="perspective30" />
  </defs>
  <sodipodi:namedview
     pagecolor="#ffffff"
     bordercolor="#666666"
     borderopacity="1"
     objecttolerance="10"
     gridtolerance="10"
     guidetolerance="10"
     inkscape:pageopacity="0"
     inkscape:pageshadow="2"
     inkscape:window-width="1280"
     inkscape:window-height="1004"
     id="namedview24"
     showgrid="false"
     inkscape:zoom="0.51444142"
     inkscape:cx="358.125"
     inkscape:cy="229.375"
     inkscape:window-x="-8"
     inkscape:window-y="-8"
     inkscape:window-maximized="1"
     inkscape:current-layer="svg2" />
  <path
     fill="#efebf7"
     stroke="#efebf7"
     stroke-width="0.09375"
     d=" M 0.0 0.0 L 573.0 0.0 L 573.0 215.8 C 570.8 216.1 568.7 216.5 566.6 217.3 C 561.6 217.8 557.1 220.6 552.2 221.7 C 548.2 222.7 544.1 223.2 540.0 223.6 C 535.4 222.8 530.8 222.3 526.4 220.8 C 520.4 218.6 514.5 215.5 508.0 215.9 C 504.2 216.0 500.2 215.7 496.6 217.4 C 491.5 217.8 487.1 220.6 482.2 221.7 C 479.4 222.4 476.5 222.8 473.6 223.5 C 469.0 224.8 464.1 224.2 459.4 224.5 C 452.7 222.5 446.5 219.3 439.7 218.0 C 433.5 216.6 427.0 216.1 420.7 217.3 C 415.1 218.2 410.5 222.1 404.9 223.3 C 398.0 224.6 391.0 223.3 384.2 222.1 C 378.8 221.1 373.9 217.9 368.4 217.4 C 364.5 215.6 360.1 216.0 356.0 215.9 C 348.4 215.8 341.9 220.2 334.7 221.9 C 330.7 223.0 326.5 223.3 322.4 223.2 C 318.9 222.7 315.5 221.9 312.0 221.5 C 296.1 213.8 276.9 213.8 261.0 221.5 C 257.5 221.9 254.1 222.7 250.6 223.2 C 244.0 223.4 237.5 222.2 231.4 219.6 C 226.8 217.8 222.0 215.8 216.9 215.9 C 212.8 216.0 208.5 215.6 204.6 217.4 C 199.6 217.8 195.1 220.6 190.3 221.7 C 186.2 222.7 182.1 223.2 178.0 223.6 C 175.1 223.0 172.1 222.8 169.2 222.1 C 161.6 220.6 154.9 215.8 147.0 215.9 C 142.8 216.0 138.5 215.6 134.6 217.4 C 129.3 217.9 124.7 220.8 119.5 221.9 C 115.7 222.7 111.9 223.3 108.1 224.0 C 103.1 224.4 98.1 223.3 93.4 221.8 C 87.4 219.6 81.5 216.5 75.0 216.9 C 71.2 217.0 67.2 216.7 63.6 218.4 C 58.6 218.8 54.1 221.6 49.2 222.7 C 45.2 223.7 41.1 224.2 37.0 224.6 C 30.7 223.7 24.4 222.6 18.6 219.9 C 12.8 217.3 6.4 216.3 0.0 217.1 L 0.0 0.0 Z"
     id="path4"
     style="fill:#ffffff" />
  <path
     fill="#000000"
     stroke="#000000"
     stroke-width="0.09375"
     d=" M 276.4 46.4 C 279.5 45.1 282.6 43.1 286.2 43.5 C 289.9 43.3 293.3 44.9 296.6 46.4 C 306.4 53.8 312.7 64.7 316.9 76.0 C 319.9 82.1 321.3 88.7 323.4 95.1 C 326.7 110.6 329.3 126.2 331.6 141.9 C 333.5 161.9 336.5 181.9 335.9 202.0 C 329.0 204.5 321.7 202.7 314.8 201.8 C 308.3 200.0 302.0 197.4 295.3 197.0 C 294.9 196.8 294.0 196.3 293.5 196.1 C 288.9 196.0 284.2 196.0 279.6 196.2 C 272.6 197.7 265.7 199.3 258.9 201.6 C 251.7 202.7 244.2 204.6 237.1 202.0 C 236.5 189.3 238.0 176.5 239.1 163.9 C 240.4 152.2 241.2 140.4 243.4 128.8 C 246.5 110.7 248.8 92.2 256.4 75.3 C 260.6 64.3 266.8 53.6 276.4 46.4 Z"
     id="path6" />
  <path
     fill="#000000"
     stroke="#000000"
     stroke-width="0.09375"
     d=" M 203.4 91.6 C 208.0 85.1 214.3 78.1 223.0 78.7 C 229.0 78.2 233.6 82.5 237.5 86.5 C 240.7 90.6 243.7 95.0 246.4 99.6 C 243.6 121.8 238.1 143.6 237.4 166.1 C 235.6 177.7 236.5 189.7 233.8 201.2 C 227.3 199.5 220.9 196.4 214.0 197.0 C 207.1 197.6 200.2 198.3 193.8 201.0 C 188.5 203.0 182.8 203.7 177.2 204.4 C 175.4 205.4 173.4 206.4 171.6 207.5 C 168.2 205.7 165.7 201.1 167.7 197.5 C 174.4 175.2 179.6 152.5 186.5 130.3 C 190.3 116.7 195.7 103.4 203.4 91.6 Z"
     id="path8" />
  <path
     fill="#000000"
     stroke="#000000"
     stroke-width="0.09375"
     d=" M 344.6 79.7 C 348.6 78.5 353.1 78.5 357.0 80.0 C 362.6 82.5 366.4 87.5 369.8 92.4 C 377.3 103.9 382.6 116.7 386.2 130.0 C 392.5 150.3 397.5 171.1 403.3 191.5 C 404.1 194.0 404.6 196.6 406.0 198.8 C 405.9 200.5 405.4 202.1 404.5 203.6 C 403.8 204.9 403.1 206.3 402.3 207.6 C 400.1 206.5 397.9 205.3 395.7 204.2 C 389.1 203.8 382.6 202.3 376.4 199.8 C 365.5 196.7 353.2 195.2 342.6 200.2 C 341.5 200.5 340.4 200.8 339.3 201.1 C 336.9 189.5 337.3 177.6 335.8 165.9 C 335.6 158.2 334.4 150.6 333.7 142.9 C 331.8 128.4 328.4 114.1 326.8 99.6 C 331.5 92.1 336.2 83.7 344.6 79.7 Z"
     id="path10" />
  <path
     fill="#000000"
     stroke="#000000"
     stroke-width="0.09375"
     d=" M 134.6 217.4 C 138.5 215.6 142.8 216.0 147.0 215.9 C 154.9 215.8 161.6 220.6 169.2 222.1 C 172.1 222.8 175.1 223.0 178.0 223.6 C 182.1 223.2 186.2 222.7 190.3 221.7 C 195.1 220.6 199.6 217.8 204.6 217.4 C 208.5 215.6 212.8 216.0 216.9 215.9 C 222.0 215.8 226.8 217.8 231.4 219.6 C 237.5 222.2 244.0 223.4 250.6 223.2 C 254.1 222.7 257.5 221.9 261.0 221.5 C 276.9 213.8 296.1 213.8 312.0 221.5 C 315.5 221.9 318.9 222.7 322.4 223.2 C 326.5 223.3 330.7 223.0 334.7 221.9 C 341.9 220.2 348.4 215.8 356.0 215.9 C 360.1 216.0 364.5 215.6 368.4 217.4 C 373.9 217.9 378.8 221.1 384.2 222.1 C 391.0 223.3 398.0 224.6 404.9 223.3 C 410.5 222.1 415.1 218.2 420.7 217.3 C 427.0 216.1 433.5 216.6 439.7 218.0 C 446.5 219.3 452.7 222.5 459.4 224.5 C 464.1 224.2 469.0 224.8 473.6 223.5 C 476.5 222.8 479.4 222.4 482.2 221.7 C 487.1 220.6 491.5 217.8 496.6 217.4 C 500.2 215.7 504.2 216.0 508.0 215.9 C 514.5 215.5 520.4 218.6 526.4 220.8 C 530.8 222.3 535.4 222.8 540.0 223.6 C 544.1 223.2 548.2 222.7 552.2 221.7 C 557.1 220.6 561.6 217.8 566.6 217.3 C 568.7 216.5 570.8 216.1 573.0 215.8 L 573.0 237.3 C 568.3 238.6 563.3 238.7 558.7 240.6 C 549.6 244.2 539.4 246.0 529.7 243.6 C 525.4 242.8 521.9 239.9 517.8 238.7 C 509.6 235.8 500.8 237.7 492.6 239.3 C 482.0 243.2 470.6 246.4 459.2 245.2 C 450.5 242.9 442.1 239.1 433.1 238.2 C 429.5 238.0 425.9 237.8 422.3 238.1 C 415.9 239.1 410.6 243.1 404.3 244.7 C 395.7 245.3 386.8 244.6 378.7 241.5 C 370.6 238.3 361.9 237.0 353.2 237.3 C 347.9 237.9 343.0 240.1 338.5 242.8 C 330.1 245.8 321.1 244.3 312.6 242.6 C 303.7 239.6 294.5 236.4 284.9 237.0 C 276.1 237.0 267.7 240.3 259.4 242.8 C 252.0 244.1 244.2 245.7 236.8 243.4 C 232.9 242.4 229.7 239.8 225.8 238.7 C 217.6 235.8 208.8 237.7 200.6 239.3 C 193.9 241.6 187.2 244.3 180.1 244.6 C 174.2 244.7 167.9 244.6 162.6 241.7 C 158.8 239.6 154.7 238.0 150.5 237.4 C 143.5 236.9 136.6 237.9 129.9 239.5 C 122.3 242.5 114.3 244.6 106.2 245.5 C 100.1 246.1 94.0 244.4 88.8 241.3 C 79.5 236.4 68.6 238.3 58.9 240.5 C 49.0 244.4 38.1 247.2 27.5 244.9 C 22.2 243.9 18.1 240.2 12.9 239.1 C 8.7 237.7 4.3 238.5 0.0 238.4 L 0.0 217.1 C 6.4 216.3 12.8 217.3 18.6 219.9 C 24.4 222.6 30.7 223.7 37.0 224.6 C 41.1 224.2 45.2 223.7 49.2 222.7 C 54.1 221.6 58.6 218.8 63.6 218.4 C 67.2 216.7 71.2 217.0 75.0 216.9 C 81.5 216.5 87.4 219.6 93.4 221.8 C 98.1 223.3 103.1 224.4 108.1 224.0 C 111.9 223.3 115.7 222.7 119.5 221.9 C 124.7 220.8 129.3 217.9 134.6 217.4 Z"
     id="path12" />
  <path
     fill="#efebf7"
     stroke="#efebf7"
     stroke-width="0.09375"
     d=" M 129.9 239.5 C 136.6 237.9 143.5 236.9 150.5 237.4 C 154.7 238.0 158.8 239.6 162.6 241.7 C 167.9 244.6 174.2 244.7 180.1 244.6 C 187.2 244.3 193.9 241.6 200.6 239.3 C 208.8 237.7 217.6 235.8 225.8 238.7 C 229.7 239.8 232.9 242.4 236.8 243.4 C 244.2 245.7 252.0 244.1 259.4 242.8 C 267.7 240.3 276.1 237.0 284.9 237.0 C 294.5 236.4 303.7 239.6 312.6 242.6 C 321.1 244.3 330.1 245.8 338.5 242.8 C 343.0 240.1 347.9 237.9 353.2 237.3 C 361.9 237.0 370.6 238.3 378.7 241.5 C 386.8 244.6 395.7 245.3 404.3 244.7 C 410.6 243.1 415.9 239.1 422.3 238.1 C 425.9 237.8 429.5 238.0 433.1 238.2 C 442.1 239.1 450.5 242.9 459.2 245.2 C 470.6 246.4 482.0 243.2 492.6 239.3 C 500.8 237.7 509.6 235.8 517.8 238.7 C 521.9 239.9 525.4 242.8 529.7 243.6 C 539.4 246.0 549.6 244.2 558.7 240.6 C 563.3 238.7 568.3 238.6 573.0 237.3 L 573.0 255.8 C 571.2 256.3 569.4 256.8 567.7 257.4 C 562.7 257.9 558.3 260.6 553.5 261.7 C 548.1 263.0 542.6 264.1 537.2 263.1 C 528.8 262.4 521.4 257.7 513.2 256.2 C 508.1 256.1 502.6 255.4 497.7 257.4 C 491.6 258.2 486.3 261.7 480.1 262.5 C 473.5 264.1 466.6 265.0 459.7 264.3 C 454.6 263.0 449.9 260.6 444.8 259.1 C 436.0 256.7 426.3 255.4 417.5 258.6 C 413.5 260.3 409.7 262.8 405.3 263.5 C 398.7 264.8 391.9 263.3 385.4 262.2 C 379.8 261.3 375.0 258.0 369.3 257.4 C 365.4 255.7 361.1 256.1 357.0 256.0 C 349.3 255.8 342.7 260.5 335.3 262.1 C 327.5 264.3 319.1 263.2 311.4 260.9 C 297.9 255.0 282.2 254.0 268.2 259.1 C 259.0 262.9 248.5 264.7 238.8 261.8 C 231.8 260.1 225.4 255.8 218.0 256.0 C 213.9 256.1 209.6 255.7 205.7 257.4 C 203.6 257.8 201.5 258.1 199.5 258.9 C 190.5 262.8 180.2 264.9 170.5 262.3 C 162.5 260.7 155.4 255.5 147.0 256.0 C 143.2 256.1 139.2 255.8 135.7 257.4 C 133.0 257.8 130.3 258.5 127.7 259.6 C 121.7 262.3 115.1 262.9 108.7 264.0 C 98.5 265.2 89.8 258.9 80.2 257.2 C 75.1 257.1 69.6 256.4 64.7 258.4 C 62.6 258.8 60.5 259.1 58.5 259.9 C 49.5 263.8 39.2 265.9 29.5 263.3 C 22.9 261.9 17.0 258.3 10.3 257.2 C 6.9 256.9 3.4 257.1 0.0 257.1 L 0.0 238.4 C 4.3 238.5 8.7 237.7 12.9 239.1 C 18.1 240.2 22.2 243.9 27.5 244.9 C 38.1 247.2 49.0 244.4 58.9 240.5 C 68.6 238.3 79.5 236.4 88.8 241.3 C 94.0 244.4 100.1 246.1 106.2 245.5 C 114.3 244.6 122.3 242.5 129.9 239.5 Z"
     id="path14"
     style="fill:#ffffff" />
  <path
     fill="#000000"
     stroke="#000000"
     stroke-width="0.09375"
     d=" M 135.7 257.4 C 139.2 255.8 143.2 256.1 147.0 256.0 C 155.4 255.5 162.5 260.7 170.5 262.3 C 180.2 264.9 190.5 262.8 199.5 258.9 C 201.5 258.1 203.6 257.8 205.7 257.4 C 209.6 255.7 213.9 256.1 218.0 256.0 C 225.4 255.8 231.8 260.1 238.8 261.8 C 248.5 264.7 259.0 262.9 268.2 259.1 C 282.2 254.0 297.9 255.0 311.4 260.9 C 319.1 263.2 327.5 264.3 335.3 262.1 C 342.7 260.5 349.3 255.8 357.0 256.0 C 361.1 256.1 365.4 255.7 369.3 257.4 C 375.0 258.0 379.8 261.3 385.4 262.2 C 391.9 263.3 398.7 264.8 405.3 263.5 C 409.7 262.8 413.5 260.3 417.5 258.6 C 426.3 255.4 436.0 256.7 444.8 259.1 C 449.9 260.6 454.6 263.0 459.7 264.3 C 466.6 265.0 473.5 264.1 480.1 262.5 C 486.3 261.7 491.6 258.2 497.7 257.4 C 502.6 255.4 508.1 256.1 513.2 256.2 C 521.4 257.7 528.8 262.4 537.2 263.1 C 542.6 264.1 548.1 263.0 553.5 261.7 C 558.3 260.6 562.7 257.9 567.7 257.4 C 569.4 256.8 571.2 256.3 573.0 255.8 L 573.0 277.6 C 567.8 278.6 562.5 279.4 557.6 281.4 C 548.1 285.1 537.4 285.9 527.6 282.9 C 523.4 280.3 518.9 278.7 514.2 277.3 C 505.7 277.0 497.0 278.0 489.0 281.0 C 481.7 283.7 473.8 285.2 466.0 285.5 C 457.9 286.3 450.7 281.6 443.0 280.0 C 436.4 278.0 429.5 277.8 422.7 278.3 C 416.2 279.2 411.0 284.0 404.4 284.8 C 396.0 285.5 387.3 284.4 379.4 281.4 C 370.9 278.2 361.8 276.9 352.8 277.3 C 348.1 278.7 343.6 280.3 339.4 282.9 C 331.0 285.9 321.9 284.3 313.4 282.6 C 304.8 279.7 296.1 276.6 287.0 277.1 C 278.2 276.8 269.8 279.9 261.6 282.6 C 253.0 284.3 244.0 285.8 235.6 282.9 C 231.4 280.3 226.9 278.7 222.2 277.3 C 212.7 276.8 203.1 278.4 194.2 281.9 C 185.1 285.2 174.9 285.7 165.6 282.9 C 161.4 280.3 156.9 278.7 152.2 277.3 C 147.1 277.3 142.0 277.1 137.0 278.4 C 129.3 279.4 122.5 283.3 114.9 284.3 C 108.2 285.8 101.1 286.2 94.6 283.9 C 90.2 281.3 85.6 279.3 80.6 278.4 C 73.7 277.9 66.7 278.9 60.0 280.6 C 53.9 282.7 47.8 285.1 41.2 285.6 C 35.6 285.9 29.9 285.6 24.6 283.9 C 20.4 281.3 15.9 279.7 11.2 278.3 C 7.5 278.3 3.7 278.4 0.0 278.4 L 0.0 257.1 C 3.4 257.1 6.9 256.9 10.3 257.2 C 17.0 258.3 22.9 261.9 29.5 263.3 C 39.2 265.9 49.5 263.8 58.5 259.9 C 60.5 259.1 62.6 258.8 64.7 258.4 C 69.6 256.4 75.1 257.1 80.2 257.2 C 89.8 258.9 98.5 265.2 108.7 264.0 C 115.1 262.9 121.7 262.3 127.7 259.6 C 130.3 258.5 133.0 257.8 135.7 257.4 Z"
     id="path16" />
  <path
     fill="#efebf7"
     stroke="#efebf7"
     stroke-width="0.09375"
     d=" M 137.0 278.4 C 142.0 277.1 147.1 277.3 152.2 277.3 C 156.9 278.7 161.4 280.3 165.6 282.9 C 174.9 285.7 185.1 285.2 194.2 281.9 C 203.1 278.4 212.7 276.8 222.2 277.3 C 226.9 278.7 231.4 280.3 235.6 282.9 C 244.0 285.8 253.0 284.3 261.6 282.6 C 269.8 279.9 278.2 276.8 287.0 277.1 C 296.1 276.6 304.8 279.7 313.4 282.6 C 321.9 284.3 331.0 285.9 339.4 282.9 C 343.6 280.3 348.1 278.7 352.8 277.3 C 361.8 276.9 370.9 278.2 379.4 281.4 C 387.3 284.4 396.0 285.5 404.4 284.8 C 411.0 284.0 416.2 279.2 422.7 278.3 C 429.5 277.8 436.4 278.0 443.0 280.0 C 450.7 281.6 457.9 286.3 466.0 285.5 C 473.8 285.2 481.7 283.7 489.0 281.0 C 497.0 278.0 505.7 277.0 514.2 277.3 C 518.9 278.7 523.4 280.3 527.6 282.9 C 537.4 285.9 548.1 285.1 557.6 281.4 C 562.5 279.4 567.8 278.6 573.0 277.6 L 573.0 296.3 C 562.5 298.3 552.8 303.9 541.9 303.7 C 537.0 302.7 532.0 302.6 527.4 300.6 C 523.2 298.8 518.9 297.5 514.6 296.3 C 507.5 295.4 500.5 296.6 493.7 298.7 C 483.0 302.9 471.4 305.5 459.8 304.7 C 448.6 299.6 436.3 295.4 423.8 297.2 C 416.9 298.3 411.4 303.5 404.3 303.9 C 394.6 304.6 384.9 302.5 375.9 298.9 C 369.5 296.8 362.7 295.6 356.0 296.1 C 348.9 297.0 342.7 300.8 335.8 302.3 C 332.0 302.9 328.2 303.5 324.4 303.6 C 319.5 302.6 314.4 302.1 309.9 300.1 C 296.6 294.6 281.3 294.4 267.9 299.8 C 263.1 302.0 257.8 302.6 252.6 303.6 C 245.8 303.3 238.8 302.4 232.5 299.4 C 227.8 297.9 223.1 295.7 218.0 296.0 C 210.9 296.0 203.6 297.6 197.1 300.6 C 191.4 302.0 185.8 303.8 179.9 303.7 C 175.0 302.7 170.0 302.6 165.3 300.6 C 161.2 298.8 156.9 297.5 152.6 296.3 C 144.8 295.3 136.9 296.8 129.5 299.5 C 123.0 302.3 115.9 303.2 108.9 304.4 C 103.8 303.9 98.5 303.4 93.7 301.3 C 89.8 299.6 85.6 298.4 81.5 297.3 C 74.5 296.4 67.4 297.6 60.7 299.7 C 53.7 302.4 46.4 304.7 38.9 304.7 C 34.0 303.7 28.9 303.5 24.3 301.6 C 20.2 299.7 15.9 298.5 11.5 297.3 C 7.7 296.8 3.8 297.2 0.0 297.2 L 0.0 278.4 C 3.7 278.4 7.5 278.3 11.2 278.3 C 15.9 279.7 20.4 281.3 24.6 283.9 C 29.9 285.6 35.6 285.9 41.2 285.6 C 47.8 285.1 53.9 282.7 60.0 280.6 C 66.7 278.9 73.7 277.9 80.6 278.4 C 85.6 279.3 90.2 281.3 94.6 283.9 C 101.1 286.2 108.2 285.8 114.9 284.3 C 122.5 283.3 129.3 279.4 137.0 278.4 Z"
     id="path18"
     style="fill:#ffffff" />
  <path
     fill="#000000"
     stroke="#000000"
     stroke-width="0.09375"
     d=" M 129.5 299.5 C 136.9 296.8 144.8 295.3 152.6 296.3 C 156.9 297.5 161.2 298.8 165.3 300.6 C 170.0 302.6 175.0 302.7 179.9 303.7 C 185.8 303.8 191.4 302.0 197.1 300.6 C 203.6 297.6 210.9 296.0 218.0 296.0 C 223.1 295.7 227.8 297.9 232.5 299.4 C 238.8 302.4 245.8 303.3 252.6 303.6 C 257.8 302.6 263.1 302.0 267.9 299.8 C 281.3 294.4 296.6 294.6 309.9 300.1 C 314.4 302.1 319.5 302.6 324.4 303.6 C 328.2 303.5 332.0 302.9 335.8 302.3 C 342.7 300.8 348.9 297.0 356.0 296.1 C 362.7 295.6 369.5 296.8 375.9 298.9 C 384.9 302.5 394.6 304.6 404.3 303.9 C 411.4 303.5 416.9 298.3 423.8 297.2 C 436.3 295.4 448.6 299.6 459.8 304.7 C 471.4 305.5 483.0 302.9 493.7 298.7 C 500.5 296.6 507.5 295.4 514.6 296.3 C 518.9 297.5 523.2 298.8 527.4 300.6 C 532.0 302.6 537.0 302.7 541.9 303.7 C 552.8 303.9 562.5 298.3 573.0 296.3 L 573.0 317.9 C 568.0 318.4 563.1 319.5 558.4 321.3 C 548.9 325.0 538.5 325.3 528.7 322.9 C 521.0 317.6 511.3 315.9 502.2 317.8 C 497.3 318.7 492.4 319.7 487.7 321.6 C 483.1 323.6 477.9 323.5 473.1 325.1 C 467.2 325.3 461.1 325.8 455.5 323.5 C 443.9 318.9 431.0 316.2 418.6 319.3 C 413.3 322.3 407.5 325.3 401.1 324.9 C 393.5 324.7 385.8 323.5 378.8 320.7 C 374.9 319.3 370.8 318.6 366.8 317.8 C 362.5 316.9 358.0 317.2 353.7 317.3 C 349.0 318.5 344.4 320.2 340.3 322.9 C 334.6 324.4 328.8 324.5 323.0 324.0 C 319.8 323.0 316.3 323.4 313.2 322.1 C 307.6 319.9 301.8 318.4 295.9 317.3 C 291.0 317.0 286.0 317.0 281.2 317.3 C 275.3 318.4 269.4 319.9 263.8 322.1 C 260.7 323.4 257.2 323.0 254.0 324.0 C 248.2 324.5 242.3 324.4 236.7 322.9 C 229.0 317.6 219.3 315.9 210.2 317.8 C 205.6 318.7 200.9 319.5 196.4 321.3 C 187.0 325.0 176.5 325.3 166.7 322.9 C 159.0 317.6 149.3 315.9 140.2 317.8 C 134.2 318.7 128.4 320.5 122.7 322.6 C 113.9 324.4 104.6 326.6 95.7 323.9 C 91.6 321.1 87.0 319.5 82.3 318.2 C 77.9 318.2 73.5 317.9 69.2 318.8 C 64.5 319.7 59.8 320.5 55.4 322.3 C 45.9 326.0 35.5 326.3 25.7 323.9 C 18.2 318.6 8.9 317.2 0.0 318.4 L 0.0 297.2 C 3.8 297.2 7.7 296.8 11.5 297.3 C 15.9 298.5 20.2 299.7 24.3 301.6 C 28.9 303.5 34.0 303.7 38.9 304.7 C 46.4 304.7 53.7 302.4 60.7 299.7 C 67.4 297.6 74.5 296.4 81.5 297.3 C 85.6 298.4 89.8 299.6 93.7 301.3 C 98.5 303.4 103.8 303.9 108.9 304.4 C 115.9 303.2 123.0 302.3 129.5 299.5 Z"
     id="path20" />
  <path
     fill="#efebf7"
     stroke="#efebf7"
     stroke-width="0.09375"
     d=" M 140.2 317.8 C 149.3 315.9 159.0 317.6 166.7 322.9 C 176.5 325.3 187.0 325.0 196.4 321.3 C 200.9 319.5 205.6 318.7 210.2 317.8 C 219.3 315.9 229.0 317.6 236.7 322.9 C 242.3 324.4 248.2 324.5 254.0 324.0 C 257.2 323.0 260.7 323.4 263.8 322.1 C 269.4 319.9 275.3 318.4 281.2 317.3 C 286.0 317.0 291.0 317.0 295.9 317.3 C 301.8 318.4 307.6 319.9 313.2 322.1 C 316.3 323.4 319.8 323.0 323.0 324.0 C 328.8 324.5 334.6 324.4 340.3 322.9 C 344.4 320.2 349.0 318.5 353.7 317.3 C 358.0 317.2 362.5 316.9 366.8 317.8 C 370.8 318.6 374.9 319.3 378.8 320.7 C 385.8 323.5 393.5 324.7 401.1 324.9 C 407.5 325.3 413.3 322.3 418.6 319.3 C 431.0 316.2 443.9 318.9 455.5 323.5 C 461.1 325.8 467.2 325.3 473.1 325.1 C 477.9 323.5 483.1 323.6 487.7 321.6 C 492.4 319.7 497.3 318.7 502.2 317.8 C 511.3 315.9 521.0 317.6 528.7 322.9 C 538.5 325.3 548.9 325.0 558.4 321.3 C 563.1 319.5 568.0 318.4 573.0 317.9 L 573.0 367.0 L 0.0 367.0 L 0.0 318.4 C 8.9 317.2 18.2 318.6 25.7 323.9 C 35.5 326.3 45.9 326.0 55.4 322.3 C 59.8 320.5 64.5 319.7 69.2 318.8 C 73.5 317.9 77.9 318.2 82.3 318.2 C 87.0 319.5 91.6 321.1 95.7 323.9 C 104.6 326.6 113.9 324.4 122.7 322.6 C 128.4 320.5 134.2 318.7 140.2 317.8 Z"
     id="path22"
     style="fill:#ffffff" />
</svg>
