<?xml version="1.0" encoding="UTF-8"?>
<!DOCTYPE svg PUBLIC "-//W3C//DTD SVG 1.1//EN" "http://www.w3.org/Graphics/SVG/1.1/DTD/svg11.dtd">
<!-- Creator: CorelDRAW X8 -->
<svg xmlns="http://www.w3.org/2000/svg" xml:space="preserve" width="215.9mm" height="143.51mm" version="1.1" style="shape-rendering:geometricPrecision; text-rendering:geometricPrecision; image-rendering:optimizeQuality; fill-rule:evenodd; clip-rule:evenodd"
viewBox="0 0 21590 14351"
 xmlns:xlink="http://www.w3.org/1999/xlink">
 <defs>
  <style type="text/css">
   <![CDATA[
    .str3 {stroke:black;stroke-width:150}
    .str1 {stroke:black;stroke-width:30}
    .str0 {stroke:black;stroke-width:30}
    .str2 {stroke:black;stroke-width:20}
    .fil6 {fill:none}
    .fil7 {fill:black}
    .fil3 {fill:black}
    .fil2 {fill:#008E42}
    .fil1 {fill:#2B75B6}
    .fil0 {fill:#72C3F0}
    .fil4 {fill:yellow}
    .fil5 {fill:white}
   ]]>
  </style>
 </defs>
 <g id="Capa_x0020_1">
  <metadata id="CorelCorpID_0Corel-Layer"/>
  <rect class="fil0" x="-733" y="-664" width="23056" height="15679"/>
  <rect class="fil1" x="-2806" y="6783" width="27082" height="1402"/>
  <rect class="fil2" x="-1800" y="8715" width="25071" height="1402"/>
  <rect class="fil3" x="-2118" y="10646" width="25706" height="1402"/>
  <polygon class="fil4" points="9268,9261 8487,8521 9862,8431 9528,7550 10738,7986 11227,6842 11734,7955 12936,7451 12573,8431 13948,8521 13167,9261 14331,9969 8104,9969 "/>
  <polygon class="fil5" points="10635,149 10755,520 11145,519 10829,748 10950,1118 10635,889 10320,1118 10441,748 10125,519 10515,520 "/>
  <polygon class="fil5" points="12004,546 12090,811 12368,810 12142,973 12229,1237 12004,1074 11780,1237 11866,973 11641,810 11919,811 "/>
  <polygon class="fil5" points="9424,546 9510,811 9788,810 9563,973 9649,1237 9424,1074 9200,1237 9286,973 9061,810 9339,811 "/>
  <polygon class="fil5" points="13122,1262 13207,1526 13485,1526 13260,1689 13347,1953 13122,1789 12897,1953 12984,1689 12759,1526 13037,1526 "/>
  <polygon class="fil5" points="8432,1262 8518,1526 8796,1526 8570,1689 8657,1953 8432,1789 8208,1953 8294,1689 8069,1526 8347,1526 "/>
  <polygon class="fil5" points="7646,2128 7731,2393 8009,2392 7784,2555 7870,2820 7646,2656 7421,2820 7508,2555 7282,2392 7560,2393 "/>
  <polygon class="fil5" points="13863,2128 13949,2393 14227,2392 14002,2555 14088,2820 13863,2656 13639,2820 13725,2555 13500,2392 13778,2393 "/>
  <polygon class="fil5" points="7050,3333 7136,3598 7414,3597 7189,3760 7275,4024 7050,3861 6826,4024 6912,3760 6687,3597 6965,3598 "/>
  <polygon class="fil5" points="14612,4752 14698,5017 14976,5017 14751,5180 14837,5444 14612,5280 14388,5444 14474,5180 14249,5017 14527,5017 "/>
  <polygon class="fil5" points="6859,4752 6944,5017 7222,5017 6997,5180 7083,5444 6859,5280 6634,5444 6720,5180 6495,5017 6773,5017 "/>
  <polygon class="fil5" points="14386,3333 14472,3598 14750,3597 14524,3760 14611,4024 14386,3861 14161,4024 14248,3760 14023,3597 14301,3598 "/>
  <polygon class="fil5" points="6859,5927 6944,6191 7222,6191 6997,6354 7083,6618 6859,6454 6634,6618 6720,6354 6495,6191 6773,6191 "/>
  <polygon class="fil5" points="14584,5927 14670,6191 14948,6191 14723,6354 14809,6618 14584,6454 14360,6618 14446,6354 14221,6191 14499,6191 "/>
  <path class="fil6 str0" d="M10898 7612c0,0 -316,-1100 -356,-1384 -39,-284 -66,-661 139,-946 205,-284 60,-1032 -99,-1389 -159,-357 -278,-642 -291,-979 -13,-337 54,-680 54,-680 0,0 -78,-149 -68,-166 33,-56 102,-106 127,-78 19,20 53,95 97,114 14,6 5,-55 19,-74 13,-18 22,-3 25,15 3,17 1,56 -12,88 -14,37 -40,68 -46,95 -19,85 -21,160 -20,180 7,99 36,499 174,771 139,271 272,443 364,449 93,7 152,-79 159,-238 7,-158 66,-449 318,-430 251,20 224,272 198,351 -26,79 -212,298 -152,304 59,7 370,-6 483,-119 95,-95 402,-336 496,-574 18,-44 21,-122 27,-163 2,-17 -40,-64 -47,-80 -2,-5 -14,-19 -25,-40 -11,-21 -20,-49 -33,-69 -14,-23 -31,-37 -31,-38 19,-35 64,-10 74,12 15,35 44,65 49,56 12,-22 14,-94 14,-156 0,-44 -8,-93 2,-106 4,-4 13,-6 20,-2 14,8 26,150 27,161 0,14 7,21 8,7 5,-51 7,-144 16,-178 0,-1 2,-8 8,-10 9,-3 25,-2 26,10 4,54 -2,174 -3,181 0,5 3,6 4,6 3,1 6,-3 7,-7 7,-32 14,-135 27,-156 2,-3 13,-6 16,-6 37,4 -7,138 -5,177 0,8 5,14 6,14 26,-4 24,-124 55,-125 34,-2 -50,327 -56,367 -9,56 -2,118 -14,170 -33,157 -141,340 -228,457 -86,113 -207,256 -388,398 -142,111 -281,194 -385,296 -112,108 -126,240 -137,278 -33,119 -112,549 33,880 146,330 276,575 53,1283 -223,708 -182,803 -182,803"/>
  <path class="fil6 str1" d="M10594 1751c0,0 -249,122 -282,-43 -33,-166 96,-258 63,-384 -33,-126 99,66 106,106 7,40 33,-69 33,-69 0,0 40,109 27,132 -14,23 44,-43 34,-80 -10,-36 71,38 19,338z"/>
  <ellipse class="fil3 str2" cx="10446" cy="1772" rx="268" ry="21"/>
  <path class="fil3 str2" d="M10178 1772c0,0 5,92 38,112 23,14 162,63 162,63 0,0 25,504 25,504 1,12 28,25 29,35l30 -30 56 -509c0,0 62,-36 154,-60 0,0 41,-24 41,-115 0,12 -120,21 -267,21 -148,0 -268,-9 -268,-21z"/>
  <path class="fil6 str2" d="M10277 2068l99 63c0,0 30,-33 -25,-70 -54,-36 -46,-30 -46,-30"/>
  <path class="fil6 str2" d="M10327 2037l99 62c0,0 30,-33 -25,-69 -55,-36 -46,-30 -46,-30"/>
  <path class="fil6 str3" d="M11217 8325c881,0 1609,653 1729,1501l0 0 -3458 0c120,-848 849,-1501 1729,-1501z"/>
  <path class="fil7" d="M11612 9430c-34,-14 -86,-28 -133,-66 -74,-61 -161,-147 -251,-234 147,-141 283,-267 352,-275 21,1 39,-15 40,-36 1,-21 -15,-39 -36,-40 -101,8 -257,147 -412,297 -156,-150 -312,-289 -413,-297 -21,1 -37,19 -36,40 1,21 19,37 40,36 69,8 205,134 352,275 -90,87 -177,173 -251,234 -47,38 -99,52 -133,66 -64,7 -54,126 37,116 44,-15 81,-76 141,-124 82,-64 173,-151 263,-237 89,86 181,173 262,237 60,48 97,109 142,124 90,10 101,-109 36,-116z"/>
 </g>
</svg>
