<?xml version="1.0" encoding="UTF-8" standalone="no"?>
<svg
   xmlns:dc="http://purl.org/dc/elements/1.1/"
   xmlns:cc="http://creativecommons.org/ns#"
   xmlns:rdf="http://www.w3.org/1999/02/22-rdf-syntax-ns#"
   xmlns:svg="http://www.w3.org/2000/svg"
   xmlns="http://www.w3.org/2000/svg"
   xmlns:xlink="http://www.w3.org/1999/xlink"
   xmlns:sodipodi="http://sodipodi.sourceforge.net/DTD/sodipodi-0.dtd"
   xmlns:inkscape="http://www.inkscape.org/namespaces/inkscape"
   version="1.1"
   width="572.8631"
   height="601"
   viewBox="-5 -5 17.185893 18.03"
   id="svg2"
   inkscape:version="0.48.5 r10040"
   sodipodi:docname="Flag_of_Uruguay.svg">
  <metadata
     id="metadata56">
    <rdf:RDF>
      <cc:Work
         rdf:about="">
        <dc:format>image/svg+xml</dc:format>
        <dc:type
           rdf:resource="http://purl.org/dc/dcmitype/StillImage" />
      </cc:Work>
    </rdf:RDF>
  </metadata>
  <defs
     id="defs54">
    <clipPath
       clipPathUnits="userSpaceOnUse"
       id="clipPath3108">
      <g
         transform="matrix(0.01862355,0,0,0.01862355,-5.8725553,-5.7725384)"
         id="g3110">
        <g
           id="g3112">
          <path
             style="fill:#fefee9"
             inkscape:connector-curvature="0"
             id="path3114"
             d="m 193,63.3 c 0,0 4.2,1.2 5.4,4.2 2.1,4.8 -4.8,8.7 5.1,12.6 8.1,3 6.6,-7.2 13.8,-0.6 6,-1.5 3.3,1.2 4.8,3.9 l 1.5,0.3 2.4,1.2 c 2.4,-1.2 1.8,-4.8 3.6,-6.3 h 1.8 c 0.6,0.6 1.2,1.8 2.4,2.1 1.2,-0.9 2.7,-1.8 4.2,-2.4 2.1,-6 5.4,2.4 6.9,3.6 l 1.5,0.3 c 0.6,-0.9 3.9,-2.7 4.5,-1.8 9.6,4.8 9.3,-7.2 13.5,-6.9 0.6,-1.2 1.5,-2.1 2.4,-2.7 0.3,-2.1 -1.5,-3.9 -1.5,-6 0,-0.3 6.3,-10.8 6.9,-11.4 0.6,-0.9 2.1,-0.9 3,-0.9 0.6,-1.2 0,-2.7 -0.6,-3.9 l 0.3,-0.9 1.8,-0.6 1.8,2.1 0.6,-0.6 0.6,-1.2 -0.9,-1.8 c 0.6,-1.5 2.1,-2.7 3.3,-3.3 l 0.9,0.3 0.3,1.5 c 6.6,3.9 9.3,-7.5 14.1,0 3.3,0.9 8.4,-1.2 10.8,-0.6 l 8.7,0.3 h 0.6 c 3.6,-2.7 5.7,0 7.8,2.7 l 3,3.3 c 7.2,-0.3 0.3,8.1 4.8,8.4 4.8,-2.7 5.7,2.1 9.6,2.4 l 1.5,1.5 c 0.6,1.2 0.9,3.6 2.7,3.6 0,0 4.5,-0.3 5.4,-1.2 l 2.7,0.9 -2.7,2.4 c 0,0 1.5,0.9 2.4,1.5 0.3,1.5 1.8,3 3,3.6 l 0.6,1.8 c 0,0 1.2,3.6 2.1,3 3,1.8 0.3,4.5 -1.2,6.3 l 0.3,0.9 h 1.2 l 3.3,-0.9 1.5,-1.2 1.2,0.3 0.3,0.9 -0.6,1.2 0.6,0.6 c 1.2,0 2.1,1.2 2.7,2.1 h 1.2 l 1.2,-1.2 h 0.9 l 0.6,3.6 -0.6,1.2 c -0.6,0.3 -1.8,0.9 -1.8,1.8 l 0.9,3.6 c 3.6,0 4.8,-3.3 6.3,3 1.5,0.3 2.4,1.8 3.3,3 l 4.5,-1.5 h 0.6 c 0.3,1.5 0.9,3 2.1,3.9 l 0.3,0.6 c -1.2,0.9 -1.2,1.8 -0.6,3 l 2.7,2.1 2.7,-1.2 c 0.3,1.5 0.6,3.6 2.4,3.9 l 0.9,0.6 -1.5,1.8 c 0,0 3.3,6 3.9,6.6 l 3.6,1.2 c 0.6,-0.6 0.6,-1.5 0.6,-2.1 h 0.9 l 0.6,0.3 c 0.6,3.3 4.2,2.7 2.7,6.3 1.5,2.4 4.8,1.5 6.3,-0.3 l 1.2,0.3 0.3,2.4 c 0.6,0.3 5.1,5.7 5.1,6 -0.9,1.5 1.2,1.8 1.2,1.8 l 0.6,-0.3 c 1.2,0 3,-0.3 4.2,0.6 l -0.3,0.9 1.2,3.9 c 1.8,0 3.3,0.6 5.1,0.6 0.9,0.6 1.5,1.5 2.4,2.4 l -0.9,1.8 0.6,1.8 1.5,1.2 0.3,0.6 c -2.1,3.9 1.8,5.7 4.2,7.5 -3.9,6 3.3,1.5 2.1,10.5 l 0.6,0.9 c 2.1,0.3 3.6,-3.9 6.3,2.4 h 0.6 l 2.1,-1.8 0.9,-0.3 c 1.2,0.9 0.6,3 0.3,4.2 l 1.2,1.8 2.1,0.9 1.2,-0.6 h 0.6 l 0.6,1.8 1.8,2.1 c 0,1.2 1.5,3.6 1.5,3.6 v 0.6 c 2.1,0.9 2.1,2.1 1.8,3.9 7.5,4.8 -2.1,8.7 0.3,17.4 -0.6,1.2 -1.2,2.4 -2.1,3.6 l 0.3,0.9 0.9,0.3 v 3.3 l 0.9,0.9 -1.5,2.4 0.9,0.6 c -1.2,1.2 -1.5,13.5 -0.3,15.9 3,1.2 6.9,4.2 9.9,4.8 0.9,0.3 13.5,-1.2 13.8,-1.5 3,-2.1 5.4,-4.5 8.4,-6.3 0.6,-0.3 0.9,-0.6 1.5,-0.9 1.2,-1.5 2.4,-3.3 4.2,-4.5 2.1,-1.5 4.5,-2.7 6.9,-4.5 1.8,-1.8 6.9,-6.9 8.7,-7.8 2.1,-0.3 3.9,1.2 6,0.3 1.2,-0.6 2.1,-2.1 2.7,-3.3 4.2,-8.1 -3.3,-18 6.6,-18.9 1.8,-0.3 2.7,0 4.2,1.5 5.4,10.2 -0.9,2.4 9.9,10.2 3.3,2.4 3.6,7.2 5.7,8.4 1.8,1.5 6.6,2.7 8.1,4.5 1.5,2.1 0.6,5.4 2.4,7.2 2.7,3.6 8.1,0.3 13.2,11.4 1.5,3.3 2.1,12.9 4.2,14.4 1.8,1.2 4.5,2.7 5.7,4.2 0.3,0.3 7.8,18 9,18.9 2.4,2.4 7.2,2.4 10.2,4.2 7.2,4.2 14.7,15.6 25.2,6.9 2.1,-1.8 2.7,-5.1 3.3,-5.4 0.3,0 0.6,0 0.9,0 3,3.6 3.9,7.8 7.2,11.1 5.1,5.4 2.7,7.5 4.5,9.9 3,0.6 7.2,0.6 9.3,1.8 4.5,2.7 5.4,8.4 10.8,9.3 5.7,-1.8 16.2,-2.7 21.9,0.3 h 0.6 c 5.7,-0.3 13.2,0.6 18.3,0 0.3,2.1 1.5,4.5 2.4,6.6 3,1.2 10.5,4.5 12.3,6.6 3.3,4.2 6.9,24.3 6.9,29.7 6.9,3 41.7,30.3 50.4,37.2 1.5,1.2 2.4,3 3.9,3.9 3.9,3 3.9,0.9 9,6 1.2,0.6 3.3,0.3 4.5,0 7.5,-9.9 8.7,2.1 11.7,2.1 1.8,0.3 5.7,-0.3 7.2,1.5 l 0.3,0.6 -1.2,3 c 0.3,0.9 1.2,2.4 2.1,3 h 0.9 l 1.2,-1.2 0.9,1.5 c 2.1,1.2 4.2,0.3 6.6,3.3 1.2,1.2 1.5,4.5 3.9,4.5 0.6,-0.3 2.1,-0.6 2.7,-0.3 l 1.2,0.9 c 0.6,1.8 0.6,3.6 0.3,5.4 v 0.6 l 1.8,-0.3 0.3,2.1 1.2,0.6 c 0,2.1 0.6,3.6 3,3.6 1.2,1.8 3.3,2.1 5.4,1.8 1.2,0.9 5.4,2.1 6.9,2.1 0.6,0.6 1.8,2.7 2.1,3.6 l 2.7,0.9 -1.2,1.2 -0.6,0.3 -0.6,-0.9 -0.6,0.3 c 0.3,0.9 -0.3,2.4 -0.9,3.3 0,0.9 2.1,3.6 2.7,4.2 0,0.6 -1.2,1.8 -1.5,2.1 l 1.8,0.3 1.2,0.9 -0.6,2.1 1.8,1.8 -0.3,0.9 c 0.3,0.3 0.3,0.6 0.9,0.9 l 1.5,0.3 v 0.6 l -0.9,0.6 -0.3,0.6 0.3,1.2 0.9,0.3 h 1.2 c 0,1.5 2.1,4.2 3,5.1 -0.6,0.9 0,3.6 -0.3,5.1 l 0.3,0.6 c 0.9,0.3 1.8,1.2 2.1,2.1 l 1.2,0.3 0.9,2.7 1.5,0.6 c 0.3,0.9 0.3,2.4 0,3.3 l -0.6,0.6 h -1.2 v 1.2 c 2.1,1.8 2.1,4.5 3.9,6.3 l -0.9,1.5 0.3,0.9 -1.2,1.2 c -0.3,3.6 0.6,4.5 3.9,5.1 0.9,1.2 0.9,2.7 0.6,4.2 0.9,0.6 1.8,1.8 2.1,2.7 0.6,0.6 1.2,0.6 2.1,0.9 0.6,0.9 1.2,2.1 1.5,3.3 2.1,1.2 3.6,4.2 5.7,4.2 l 1.2,1.5 c 0.9,0 1.8,0.6 2.1,1.2 0.9,0.3 2.1,-0.3 2.7,-0.9 l 0.9,0.6 c 1.8,0 4.8,-0.6 6.9,-1.2 0.6,0.6 1.2,1.2 1.2,1.8 l -0.6,1.5 c 1.5,4.8 4.2,8.7 6.3,13.5 h 1.5 c 1.2,0.9 3.6,3.9 4.2,3.9 l 1.8,-0.3 1.5,-1.5 1.5,0.3 3,2.1 c 3.6,-0.3 7.8,3.6 10.2,6 l 1.2,-0.3 c 2.1,-1.2 2.1,-2.7 5.4,-2.1 0.9,0.9 2.4,3.9 2.7,5.1 1.8,1.2 4.8,2.4 6.9,2.4 1.5,1.2 2.1,3.3 3.6,4.5 l 6.9,6 c 3.9,3.3 2.4,1.8 4.5,3.9 4.2,3.9 7.5,9.6 0.9,13.2 -1.5,0.9 -4.8,0.3 -6.6,0.6 -1.5,0.3 -3.3,1.5 -4.2,2.7 -0.6,2.7 -0.9,6 -2.7,8.1 -4.8,6.9 -15.6,7.5 -20.7,13.8 -0.3,0.6 0,1.5 0.3,1.8 2.1,2.7 5.7,1.8 8.4,3 -4.5,6.3 -15.3,8.7 -20.4,14.7 -15.3,10.5 -14.4,9.9 -24,26.1 -4.2,6.6 -3.6,18.3 -3,25.8 1.2,9.9 2.7,18 2.1,27.9 -0.6,9.9 -1.5,19.5 -2.4,29.1 -0.9,8.4 0.9,16.8 -0.6,25.2 3.3,0.3 13.8,0.3 16.2,3 0.9,1.5 0.6,4.5 0.9,6.3 0.6,1.5 7.8,3 9,3.3 -8.4,6 -4.5,0 -11.4,7.8 -4.5,4.8 -9.3,14.4 -10.2,20.7 -0.6,4.5 -0.3,8.7 -1.5,13.2 -0.9,3 -3,6 -3.3,9 -0.6,3.3 0.3,8.4 -1.8,11.1 -1.5,1.8 -6,3.3 -7.8,4.8 -3.6,2.7 -5.4,6.9 -8.1,10.2 -3,3 -7.2,5.1 -10.2,8.1 -1.2,0.9 -2.4,1.8 -3,3 -0.6,1.2 -1.5,2.1 -2.1,3 -1.8,3.3 -4.5,6.3 -6,9.6 -1.2,3 -0.9,6.6 -1.8,9.6 -2.1,5.7 -4.8,5.7 0.6,11.1 2.1,5.4 -13.5,10.5 -17.1,12.3 -6.9,3.9 -13.5,8.4 -19.8,12.9 -2.4,1.5 -28.5,27.6 -28.8,28.8 -0.3,1.8 1.5,3.6 0.3,5.4 -1.5,2.1 -12.6,0.9 -18.6,4.5 l -1.2,-0.3 v -0.9 c 0.3,-1.5 2.1,-3 3.6,-3.3 l 0.3,-0.9 c -2.1,-4.5 -6,-8.7 -1.2,-12.9 l 0.3,-1.2 c 0,-0.6 -0.3,-1.5 -0.6,-2.1 -2.7,-1.8 -3,-0.6 -5.4,-0.3 -3,-0.9 -4.8,-5.1 -8.7,-3.3 v 0.9 c 2.1,1.2 5.7,2.1 7.5,4.2 0,0.6 0,1.2 -0.3,1.8 -1.5,1.5 -8.4,4.5 -10.2,6.6 -0.3,0.6 -0.6,1.8 -0.6,2.4 1.2,1.5 1.5,3 3.6,3.6 0.3,-1.2 0,-2.4 0,-3.6 3.6,-1.2 12.6,8.7 5.4,11.7 -3,1.2 -4.2,2.4 -6.9,4.2 -1.2,0.6 -3,0.9 -4.2,1.5 -9,3.3 -16.8,9.6 -25.5,13.2 -5.1,2.1 -11.1,3.6 -15.9,6.3 -1.8,0.9 -3,3.3 -5.1,4.5 -2.4,1.2 -7.5,0 -10.8,1.5 -6.9,2.7 -12.9,8.1 -19.5,11.1 -6,2.4 -13.8,3 -18.9,7.2 -1.8,1.5 -3.3,3.6 -5.1,5.1 l -1.2,-0.3 -0.6,-0.9 c 0,-1.8 1.2,-3.3 0.9,-4.8 -3,-5.1 -9.3,-4.8 -14.1,-4.8 -0.9,-0.6 -1.2,-2.1 -0.6,-3 0.6,-2.1 -2.4,-3.3 -4.2,-3.9 -15,-3.9 -23.7,5.1 -33.6,3.3 -0.6,-0.6 -1.2,-1.5 -2.1,-2.1 -0.9,0 -1.8,0 -2.4,-0.6 -0.6,-2.1 0.9,-4.8 -2.4,-5.4 l -0.9,-0.9 c 0.6,-2.1 -1.8,-2.4 -3,-3.6 -8.4,-9.3 -13.8,-7.8 -25.5,-6.9 -2.4,0.3 -4.2,-0.6 -6.3,-0.6 -1.5,-0.3 -2.4,0.6 -3.6,0.3 -1.8,0 -9,-3.6 -11.4,-4.5 -2.7,-0.9 -5.1,0 -7.5,0 -4.8,-0.3 -6.6,-2.7 -12.3,-1.5 -1.8,0.6 -3.9,2.1 -5.7,2.7 -2.4,0.6 -5.7,-0.6 -8.1,0 -4.2,0.6 -9.3,3.9 -13.2,6 -2.4,1.5 -5.4,0.6 -7.8,1.8 -6,2.4 -11.1,7.8 -16.8,11.1 -5.7,3 -14.4,3.9 -21,6 -2.4,0.9 -5.4,3.6 -7.8,3.3 -0.9,-0.6 -0.9,-1.8 -1.5,-2.7 -1.2,0 -2.7,0.3 -3.9,0.3 l -0.6,-0.6 c 0.3,-1.2 0.9,-2.1 1.2,-3 v -1.2 c -6.6,-4.2 -6.9,3.3 -10.8,3.3 -1.8,0 -3,-1.2 -4.8,-0.9 -1.5,0 -2.7,1.2 -4.5,0.6 -1.5,-0.6 -2.4,-4.5 -4.2,-5.7 -0.9,-0.6 -2.7,-1.2 -3.9,-1.8 -1.5,-0.9 -2.7,-2.7 -4.5,-3.9 -1.8,-0.9 -3.6,-1.2 -5.4,-2.1 v -0.9 c 3.6,-6 6.9,-4.8 10.2,-7.8 v -0.9 c -4.5,-2.1 -9.6,-0.3 -14.1,-3.9 l -0.6,-0.6 c -3.9,-2.7 -12.9,1.2 -18,0.6 -3.9,-0.6 -6.9,-5.7 -11.4,-7.5 -5.4,-1.8 -11.7,-2.4 -17.1,-3.6 -6,-1.5 -11.4,-3.6 -17.1,-5.4 -2.7,-0.6 -4.2,-2.7 -6.6,-3.6 -1.5,-0.9 -3.9,-0.6 -5.7,-1.8 -1.5,-0.9 -0.9,-3.9 -2.4,-5.7 -0.3,-0.3 -0.9,-0.9 -1.2,-1.2 -1.5,-1.2 -3.3,-1.8 -4.5,-2.7 -1.8,-1.8 -3.6,-3.9 -5.7,-5.7 -0.3,-0.3 -0.9,-0.9 -1.5,-1.2 -1.8,-0.9 -3.9,-1.8 -5.7,-2.7 -1.5,-0.6 -3,-1.2 -3.9,-2.4 -1.5,-1.8 -1.8,-5.4 -3.3,-7.5 -1.8,-2.7 -7.5,-10.2 -10.2,-10.5 -2.1,-0.6 -4.5,0 -6.9,-0.6 -1.8,-0.6 -3.3,-2.1 -4.8,-2.4 -7.5,-1.5 -18.3,1.2 -26.1,0.3 -1.5,0 -3,-1.2 -4.5,-1.2 -3,0 -6.3,1.5 -9.3,1.5 -3,0.3 -4.8,-1.8 -6.6,-1.5 -3.6,0.3 -6.9,4.2 -10.8,4.2 -4.8,0 -3.3,-6.6 -12.9,-4.5 -4.5,0.9 -8.4,3 -12.6,3.9 -3.6,0.9 -7.2,1.8 -10.8,2.7 -3,0.6 -5.7,0.3 -8.7,0.9 -3,0.6 -6.9,3.6 -9.9,3 -0.6,-0.3 -0.9,-0.9 -1.2,-1.5 0,-1.2 0,-2.4 -0.3,-3.6 -1.5,-2.1 -3.3,-1.2 -4.5,-3.9 -2.1,-4.5 -2.7,-10.5 -5.1,-14.7 -3.9,-6.6 -9.9,-11.7 -14.7,-17.1 -2.1,-2.4 -3,-5.1 -5.4,-7.2 -1.8,-1.5 -4.5,-2.1 -6.3,-3.6 -3,-2.4 -1.2,-6.9 -4.2,-9 -6.3,-4.8 -15.6,-2.1 -21.6,-5.7 -1.5,-1.8 0,-4.8 -0.6,-7.2 -0.6,-2.4 -5.1,-9.3 -6.6,-11.7 -1.5,-2.4 -4.5,-3.3 -6.3,-5.4 -2.1,-3 -0.9,-6 -4.8,-9.6 -4.2,-4.2 -10.2,-5.7 -14.7,-10.8 -2.4,-3 -1.5,-6.9 -2.1,-10.2 -0.6,-3.6 -2.7,-6.6 -3,-10.2 -0.6,-5.7 0,-11.4 -0.3,-17.1 -0.3,-3.3 -1.5,-6.9 -1.2,-10.2 0,-3.9 3,-7.2 2.7,-11.7 0,-6.6 -3.9,-9.6 -2.1,-17.7 1.5,-6.9 9.6,-11.7 9.6,-17.7 0,-4.8 -0.9,-6.6 -6,-7.2 0,-0.6 -0.6,-1.2 -0.9,-1.8 0.6,-2.1 2.1,-8.1 3.3,-9.6 3,-4.2 9.3,-2.1 9.3,-16.5 0,-1.8 -1.5,-3 -1.8,-4.5 -0.6,-1.8 0,-4.2 0,-6.3 -0.6,-7.5 -4.5,-13.5 1.8,-20.1 4.5,-0.6 8.4,-0.3 12.3,0 l -0.3,-2.1 c 9.9,-1.5 19.8,-3.6 23.7,-13.8 2.1,-6 2.7,-12.3 4.2,-18.6 0.6,-2.7 -0.6,-3 -1.2,-5.4 -0.6,-2.1 0.6,-4.2 0.6,-6.3 0.3,-3.9 -1.2,-8.1 -1.8,-12 -0.6,-3.3 -2.1,-6.3 -2.7,-9.9 -1.2,-7.8 -0.9,-18.9 -1.5,-27.6 -0.3,-3.3 -2.4,-5.1 -3.3,-8.1 -3.6,-11.1 -9.9,-38.1 3,-45.3 h 0.6 c 5.1,-3.3 4.8,-4.2 7.2,-9.3 5.4,-12.6 -4.5,-13.5 -3.6,-19.2 -2.4,-3.9 -9.9,-9.6 -9,-14.4 1.2,-6.3 1.8,-14.1 6.9,-18.6 1.2,-3 0.3,-6.9 -0.9,-10.2 h -5.1 c 0,-0.3 2.7,-1.8 3.3,-2.4 1.8,-5.1 -3.9,-13.5 -7.5,-16.5 -3.6,-11.4 7.5,-16.8 17.1,-15.3 8.4,-3.3 17.4,-38.4 20.7,-48.6 0.3,-0.6 -0.6,-2.7 -0.9,-3 -1.5,-2.7 -3,-6.6 -5.1,-9.3 -3.3,-4.2 -10.8,-2.7 -12,-9.3 0.6,-7.2 9.3,-10.8 15,-12.6 4.8,-1.8 1.5,-8.1 1.2,-9.3 0,-2.4 1.2,-5.4 1.8,-7.8 0.6,-3 6.3,-6 7.5,-9.3 2.1,-6.3 3.9,-12.9 5.4,-19.5 0.9,-4.8 -2.7,-6 0.6,-11.7 l 5.7,-10.8 c 5.1,-9.6 -9.3,-22.8 -7.2,-28.8 1.5,-1.8 4.8,-2.1 6.9,-1.5 0.3,0.6 1.5,0.9 2.4,1.5 5.1,2.7 6,-2.7 7.5,-6 4.8,-11.4 0.6,-8.7 1.2,-12.6 0.3,-2.1 1.8,-4.8 1.5,-6.9 -0.3,-3.3 -1.5,-6.6 -1.5,-9.6 -0.3,-2.4 0.3,-5.1 0,-7.5 -0.3,-3.3 -3.9,-6.3 -5.7,-8.7 -2.4,-2.7 0,-6.9 -1.8,-8.4 -1.2,-1.2 -6.6,-5.1 -6.6,-6.9 1.8,-3.6 1.2,-8.1 1.8,-12 0.6,-3.3 6.6,-9.9 9,-11.7 1.8,-1.2 4.8,-1.8 6.3,-3.3 3.9,-3.9 4.2,-4.5 9.6,-7.8 1.8,-1.2 5.4,-4.5 7.5,-4.8 2.1,-5.4 7.5,0.6 11.4,-15.9 0.6,-2.7 1.5,-7.2 2.7,-9.3 0.6,-3.3 -9.9,-9.3 -5.7,-13.5 l 0.9,-0.6 3,0.3 c 6.3,0.6 0,5.4 5.1,3 l 0,0 z" />
        </g>
      </g>
    </clipPath>
  </defs>
  <sodipodi:namedview
     pagecolor="#ffffff"
     bordercolor="#666666"
     borderopacity="1"
     objecttolerance="10"
     gridtolerance="10"
     guidetolerance="10"
     inkscape:pageopacity="0"
     inkscape:pageshadow="2"
     inkscape:window-width="1366"
     inkscape:window-height="716"
     id="namedview52"
     showgrid="false"
     fit-margin-top="0"
     fit-margin-left="0"
     fit-margin-right="0"
     fit-margin-bottom="0"
     inkscape:zoom="0.8"
     inkscape:cx="450.5"
     inkscape:cy="300.5"
     inkscape:window-x="-8"
     inkscape:window-y="-8"
     inkscape:window-maximized="1"
     inkscape:current-layer="svg2" />
  <title
     id="title4">Flag of Uruguay</title>
  <g
     id="g3070"
     clip-path="url(#clipPath3108)"
     transform="translate(0.01499999,0.015)">
    <rect
       id="rect6"
       height="18"
       width="27"
       y="-5"
       x="-5"
       style="fill:#ffffff" />
    <g
       id="g8"
       style="fill:#0038a8">
      <rect
         id="rect10"
         height="2"
         width="17"
         y="-3"
         x="5" />
      <rect
         id="rect12"
         height="2"
         width="17"
         y="1"
         x="5" />
      <rect
         id="rect14"
         height="2"
         width="27"
         y="5"
         x="-5" />
      <rect
         id="rect16"
         height="2"
         width="27"
         y="9"
         x="-5" />
    </g>
    <g
       id="g18"
       stroke-miterlimit="20"
       transform="scale(0.11,0.11)"
       style="fill:#fcd116;stroke:#000000;stroke-width:0.60000002;stroke-miterlimit:20">
      <g
         id="u">
        <g
           id="t">
          <g
             id="s">
            <g
               id="g23"
               transform="matrix(0.92387953,0.38268343,-0.38268343,0.92387953,0,0)">
              <path
                 id="path25"
                 d="M 1.5,9 6,12 C -2,25 7,27 0,33 3,26 -3,28 -3,16"
                 inkscape:connector-curvature="0"
                 style="stroke-linecap:square" />
              <path
                 id="path27"
                 d="M 0,11 C -2,24 4.5,28 0,33"
                 inkscape:connector-curvature="0"
                 style="fill:none" />
            </g>
            <path
               id="path29"
               d="M 0,0 H 6 L 0,33 -6,0 h 6 v 33"
               inkscape:connector-curvature="0" />
          </g>
          <use
             id="use31"
             transform="matrix(0.70710678,0.70710678,-0.70710678,0.70710678,0,0)"
             xlink:href="#s"
             x="0"
             y="0"
             width="27"
             height="18" />
        </g>
        <use
           id="use33"
           transform="matrix(0,1,-1,0,0,0)"
           xlink:href="#t"
           x="0"
           y="0"
           width="27"
           height="18" />
      </g>
      <use
         id="use35"
         transform="scale(-1,-1)"
         xlink:href="#u"
         x="0"
         y="0"
         width="27"
         height="18" />
      <circle
         d="M 11,0 C 11,6.0751322 6.0751322,11 0,11 -6.0751322,11 -11,6.0751322 -11,0 c 0,-6.0751322 4.9248678,-11 11,-11 6.0751322,0 11,4.9248678 11,11 z"
         id="circle37"
         r="11"
         cx="0"
         cy="0"
         sodipodi:cx="0"
         sodipodi:cy="0"
         sodipodi:rx="11"
         sodipodi:ry="11" />
    </g>
    <g
       id="g39"
       transform="scale(0.011,0.011)">
      <g
         id="right">
        <path
           id="path42"
           d="m 81,-44 c -7,8 -11,-6 -36,-6 -25,0 -29,15 -33,12 -4,-3 21,-21 29,-22 8,-1 31,7 40,16 m -29,9 c 7,6 1,19 -6,19 -7,0 -20,-12 -14,-20"
           inkscape:connector-curvature="0" />
        <path
           id="path44"
           d="m 19,-26 c 1,-12 11,-14 27,-14 16,0 23,12 29,15 -7,0 -13,-10 -29,-10 -16,0 -16,0 -27,10 m 3,2 c 4,-6 9,6 20,6 11,0 17,-3 24,-8 7,-5 -10,12 -21,12 -11,0 -26,-6 -23,-10"
           inkscape:connector-curvature="0" />
        <path
           id="path46"
           d="m 56,-17 c 13,-7 5,-17 0,-19 2,2 10,12 0,19 M 0,43 c 6,0 8,-2 16,-2 8,0 27,11 38,7 -23,9 -14,3 -54,3 h -5 m 63,6 c -4,-7 -3,-5 -11,-16 8,6 10,9 11,16 M 0,67 C 25,67 21,62 54,48 30,51 25,59 0,59 H -5 M 0,30 c 7,0 9,-5 17,-5 8,0 19,3 24,7 1,1 -3,-8 -11,-9 C 22,22 25,9 16,7 c 0,4 3,3 4,9 0,5 -9,5 -11,0 2,8 -4,8 -9,8"
           inkscape:connector-curvature="0" />
      </g>
      <use
         id="use48"
         transform="scale(-1,1)"
         xlink:href="#right"
         x="0"
         y="0"
         width="27"
         height="18" />
      <path
         id="path50"
         d="m 0,76 c -5,0 -18,3 0,3 18,0 5,-3 0,-3"
         inkscape:connector-curvature="0" />
    </g>
  </g>
  <g
     transform="matrix(0.01862355,0,0,0.01862355,-5.8575553,-5.7575384)"
     id="layer1"
     style="fill:none;stroke:#0038a8;stroke-width:1.61086369;stroke-miterlimit:4;stroke-opacity:1;stroke-dasharray:none">
    <g
       id="g4"
       style="fill:none;stroke:#0038a8;stroke-width:1.61086369;stroke-miterlimit:4;stroke-opacity:1;stroke-dasharray:none">
      <path
         style="fill:none;stroke:#0038a8;stroke-width:1.61086369;stroke-miterlimit:4;stroke-opacity:1;stroke-dasharray:none"
         inkscape:connector-curvature="0"
         id="Uruguay"
         d="m 193,63.3 c 0,0 4.2,1.2 5.4,4.2 2.1,4.8 -4.8,8.7 5.1,12.6 8.1,3 6.6,-7.2 13.8,-0.6 6,-1.5 3.3,1.2 4.8,3.9 l 1.5,0.3 2.4,1.2 c 2.4,-1.2 1.8,-4.8 3.6,-6.3 h 1.8 c 0.6,0.6 1.2,1.8 2.4,2.1 1.2,-0.9 2.7,-1.8 4.2,-2.4 2.1,-6 5.4,2.4 6.9,3.6 l 1.5,0.3 c 0.6,-0.9 3.9,-2.7 4.5,-1.8 9.6,4.8 9.3,-7.2 13.5,-6.9 0.6,-1.2 1.5,-2.1 2.4,-2.7 0.3,-2.1 -1.5,-3.9 -1.5,-6 0,-0.3 6.3,-10.8 6.9,-11.4 0.6,-0.9 2.1,-0.9 3,-0.9 0.6,-1.2 0,-2.7 -0.6,-3.9 l 0.3,-0.9 1.8,-0.6 1.8,2.1 0.6,-0.6 0.6,-1.2 -0.9,-1.8 c 0.6,-1.5 2.1,-2.7 3.3,-3.3 l 0.9,0.3 0.3,1.5 c 6.6,3.9 9.3,-7.5 14.1,0 3.3,0.9 8.4,-1.2 10.8,-0.6 l 8.7,0.3 h 0.6 c 3.6,-2.7 5.7,0 7.8,2.7 l 3,3.3 c 7.2,-0.3 0.3,8.1 4.8,8.4 4.8,-2.7 5.7,2.1 9.6,2.4 l 1.5,1.5 c 0.6,1.2 0.9,3.6 2.7,3.6 0,0 4.5,-0.3 5.4,-1.2 l 2.7,0.9 -2.7,2.4 c 0,0 1.5,0.9 2.4,1.5 0.3,1.5 1.8,3 3,3.6 l 0.6,1.8 c 0,0 1.2,3.6 2.1,3 3,1.8 0.3,4.5 -1.2,6.3 l 0.3,0.9 h 1.2 l 3.3,-0.9 1.5,-1.2 1.2,0.3 0.3,0.9 -0.6,1.2 0.6,0.6 c 1.2,0 2.1,1.2 2.7,2.1 h 1.2 l 1.2,-1.2 h 0.9 l 0.6,3.6 -0.6,1.2 c -0.6,0.3 -1.8,0.9 -1.8,1.8 l 0.9,3.6 c 3.6,0 4.8,-3.3 6.3,3 1.5,0.3 2.4,1.8 3.3,3 l 4.5,-1.5 h 0.6 c 0.3,1.5 0.9,3 2.1,3.9 l 0.3,0.6 c -1.2,0.9 -1.2,1.8 -0.6,3 l 2.7,2.1 2.7,-1.2 c 0.3,1.5 0.6,3.6 2.4,3.9 l 0.9,0.6 -1.5,1.8 c 0,0 3.3,6 3.9,6.6 l 3.6,1.2 c 0.6,-0.6 0.6,-1.5 0.6,-2.1 h 0.9 l 0.6,0.3 c 0.6,3.3 4.2,2.7 2.7,6.3 1.5,2.4 4.8,1.5 6.3,-0.3 l 1.2,0.3 0.3,2.4 c 0.6,0.3 5.1,5.7 5.1,6 -0.9,1.5 1.2,1.8 1.2,1.8 l 0.6,-0.3 c 1.2,0 3,-0.3 4.2,0.6 l -0.3,0.9 1.2,3.9 c 1.8,0 3.3,0.6 5.1,0.6 0.9,0.6 1.5,1.5 2.4,2.4 l -0.9,1.8 0.6,1.8 1.5,1.2 0.3,0.6 c -2.1,3.9 1.8,5.7 4.2,7.5 -3.9,6 3.3,1.5 2.1,10.5 l 0.6,0.9 c 2.1,0.3 3.6,-3.9 6.3,2.4 h 0.6 l 2.1,-1.8 0.9,-0.3 c 1.2,0.9 0.6,3 0.3,4.2 l 1.2,1.8 2.1,0.9 1.2,-0.6 h 0.6 l 0.6,1.8 1.8,2.1 c 0,1.2 1.5,3.6 1.5,3.6 v 0.6 c 2.1,0.9 2.1,2.1 1.8,3.9 7.5,4.8 -2.1,8.7 0.3,17.4 -0.6,1.2 -1.2,2.4 -2.1,3.6 l 0.3,0.9 0.9,0.3 v 3.3 l 0.9,0.9 -1.5,2.4 0.9,0.6 c -1.2,1.2 -1.5,13.5 -0.3,15.9 3,1.2 6.9,4.2 9.9,4.8 0.9,0.3 13.5,-1.2 13.8,-1.5 3,-2.1 5.4,-4.5 8.4,-6.3 0.6,-0.3 0.9,-0.6 1.5,-0.9 1.2,-1.5 2.4,-3.3 4.2,-4.5 2.1,-1.5 4.5,-2.7 6.9,-4.5 1.8,-1.8 6.9,-6.9 8.7,-7.8 2.1,-0.3 3.9,1.2 6,0.3 1.2,-0.6 2.1,-2.1 2.7,-3.3 4.2,-8.1 -3.3,-18 6.6,-18.9 1.8,-0.3 2.7,0 4.2,1.5 5.4,10.2 -0.9,2.4 9.9,10.2 3.3,2.4 3.6,7.2 5.7,8.4 1.8,1.5 6.6,2.7 8.1,4.5 1.5,2.1 0.6,5.4 2.4,7.2 2.7,3.6 8.1,0.3 13.2,11.4 1.5,3.3 2.1,12.9 4.2,14.4 1.8,1.2 4.5,2.7 5.7,4.2 0.3,0.3 7.8,18 9,18.9 2.4,2.4 7.2,2.4 10.2,4.2 7.2,4.2 14.7,15.6 25.2,6.9 2.1,-1.8 2.7,-5.1 3.3,-5.4 0.3,0 0.6,0 0.9,0 3,3.6 3.9,7.8 7.2,11.1 5.1,5.4 2.7,7.5 4.5,9.9 3,0.6 7.2,0.6 9.3,1.8 4.5,2.7 5.4,8.4 10.8,9.3 5.7,-1.8 16.2,-2.7 21.9,0.3 h 0.6 c 5.7,-0.3 13.2,0.6 18.3,0 0.3,2.1 1.5,4.5 2.4,6.6 3,1.2 10.5,4.5 12.3,6.6 3.3,4.2 6.9,24.3 6.9,29.7 6.9,3 41.7,30.3 50.4,37.2 1.5,1.2 2.4,3 3.9,3.9 3.9,3 3.9,0.9 9,6 1.2,0.6 3.3,0.3 4.5,0 7.5,-9.9 8.7,2.1 11.7,2.1 1.8,0.3 5.7,-0.3 7.2,1.5 l 0.3,0.6 -1.2,3 c 0.3,0.9 1.2,2.4 2.1,3 h 0.9 l 1.2,-1.2 0.9,1.5 c 2.1,1.2 4.2,0.3 6.6,3.3 1.2,1.2 1.5,4.5 3.9,4.5 0.6,-0.3 2.1,-0.6 2.7,-0.3 l 1.2,0.9 c 0.6,1.8 0.6,3.6 0.3,5.4 v 0.6 l 1.8,-0.3 0.3,2.1 1.2,0.6 c 0,2.1 0.6,3.6 3,3.6 1.2,1.8 3.3,2.1 5.4,1.8 1.2,0.9 5.4,2.1 6.9,2.1 0.6,0.6 1.8,2.7 2.1,3.6 l 2.7,0.9 -1.2,1.2 -0.6,0.3 -0.6,-0.9 -0.6,0.3 c 0.3,0.9 -0.3,2.4 -0.9,3.3 0,0.9 2.1,3.6 2.7,4.2 0,0.6 -1.2,1.8 -1.5,2.1 l 1.8,0.3 1.2,0.9 -0.6,2.1 1.8,1.8 -0.3,0.9 c 0.3,0.3 0.3,0.6 0.9,0.9 l 1.5,0.3 v 0.6 l -0.9,0.6 -0.3,0.6 0.3,1.2 0.9,0.3 h 1.2 c 0,1.5 2.1,4.2 3,5.1 -0.6,0.9 0,3.6 -0.3,5.1 l 0.3,0.6 c 0.9,0.3 1.8,1.2 2.1,2.1 l 1.2,0.3 0.9,2.7 1.5,0.6 c 0.3,0.9 0.3,2.4 0,3.3 l -0.6,0.6 h -1.2 v 1.2 c 2.1,1.8 2.1,4.5 3.9,6.3 l -0.9,1.5 0.3,0.9 -1.2,1.2 c -0.3,3.6 0.6,4.5 3.9,5.1 0.9,1.2 0.9,2.7 0.6,4.2 0.9,0.6 1.8,1.8 2.1,2.7 0.6,0.6 1.2,0.6 2.1,0.9 0.6,0.9 1.2,2.1 1.5,3.3 2.1,1.2 3.6,4.2 5.7,4.2 l 1.2,1.5 c 0.9,0 1.8,0.6 2.1,1.2 0.9,0.3 2.1,-0.3 2.7,-0.9 l 0.9,0.6 c 1.8,0 4.8,-0.6 6.9,-1.2 0.6,0.6 1.2,1.2 1.2,1.8 l -0.6,1.5 c 1.5,4.8 4.2,8.7 6.3,13.5 h 1.5 c 1.2,0.9 3.6,3.9 4.2,3.9 l 1.8,-0.3 1.5,-1.5 1.5,0.3 3,2.1 c 3.6,-0.3 7.8,3.6 10.2,6 l 1.2,-0.3 c 2.1,-1.2 2.1,-2.7 5.4,-2.1 0.9,0.9 2.4,3.9 2.7,5.1 1.8,1.2 4.8,2.4 6.9,2.4 1.5,1.2 2.1,3.3 3.6,4.5 l 6.9,6 c 3.9,3.3 2.4,1.8 4.5,3.9 4.2,3.9 7.5,9.6 0.9,13.2 -1.5,0.9 -4.8,0.3 -6.6,0.6 -1.5,0.3 -3.3,1.5 -4.2,2.7 -0.6,2.7 -0.9,6 -2.7,8.1 -4.8,6.9 -15.6,7.5 -20.7,13.8 -0.3,0.6 0,1.5 0.3,1.8 2.1,2.7 5.7,1.8 8.4,3 -4.5,6.3 -15.3,8.7 -20.4,14.7 -15.3,10.5 -14.4,9.9 -24,26.1 -4.2,6.6 -3.6,18.3 -3,25.8 1.2,9.9 2.7,18 2.1,27.9 -0.6,9.9 -1.5,19.5 -2.4,29.1 -0.9,8.4 0.9,16.8 -0.6,25.2 3.3,0.3 13.8,0.3 16.2,3 0.9,1.5 0.6,4.5 0.9,6.3 0.6,1.5 7.8,3 9,3.3 -8.4,6 -4.5,0 -11.4,7.8 -4.5,4.8 -9.3,14.4 -10.2,20.7 -0.6,4.5 -0.3,8.7 -1.5,13.2 -0.9,3 -3,6 -3.3,9 -0.6,3.3 0.3,8.4 -1.8,11.1 -1.5,1.8 -6,3.3 -7.8,4.8 -3.6,2.7 -5.4,6.9 -8.1,10.2 -3,3 -7.2,5.1 -10.2,8.1 -1.2,0.9 -2.4,1.8 -3,3 -0.6,1.2 -1.5,2.1 -2.1,3 -1.8,3.3 -4.5,6.3 -6,9.6 -1.2,3 -0.9,6.6 -1.8,9.6 -2.1,5.7 -4.8,5.7 0.6,11.1 2.1,5.4 -13.5,10.5 -17.1,12.3 -6.9,3.9 -13.5,8.4 -19.8,12.9 -2.4,1.5 -28.5,27.6 -28.8,28.8 -0.3,1.8 1.5,3.6 0.3,5.4 -1.5,2.1 -12.6,0.9 -18.6,4.5 l -1.2,-0.3 v -0.9 c 0.3,-1.5 2.1,-3 3.6,-3.3 l 0.3,-0.9 c -2.1,-4.5 -6,-8.7 -1.2,-12.9 l 0.3,-1.2 c 0,-0.6 -0.3,-1.5 -0.6,-2.1 -2.7,-1.8 -3,-0.6 -5.4,-0.3 -3,-0.9 -4.8,-5.1 -8.7,-3.3 v 0.9 c 2.1,1.2 5.7,2.1 7.5,4.2 0,0.6 0,1.2 -0.3,1.8 -1.5,1.5 -8.4,4.5 -10.2,6.6 -0.3,0.6 -0.6,1.8 -0.6,2.4 1.2,1.5 1.5,3 3.6,3.6 0.3,-1.2 0,-2.4 0,-3.6 3.6,-1.2 12.6,8.7 5.4,11.7 -3,1.2 -4.2,2.4 -6.9,4.2 -1.2,0.6 -3,0.9 -4.2,1.5 -9,3.3 -16.8,9.6 -25.5,13.2 -5.1,2.1 -11.1,3.6 -15.9,6.3 -1.8,0.9 -3,3.3 -5.1,4.5 -2.4,1.2 -7.5,0 -10.8,1.5 -6.9,2.7 -12.9,8.1 -19.5,11.1 -6,2.4 -13.8,3 -18.9,7.2 -1.8,1.5 -3.3,3.6 -5.1,5.1 l -1.2,-0.3 -0.6,-0.9 c 0,-1.8 1.2,-3.3 0.9,-4.8 -3,-5.1 -9.3,-4.8 -14.1,-4.8 -0.9,-0.6 -1.2,-2.1 -0.6,-3 0.6,-2.1 -2.4,-3.3 -4.2,-3.9 -15,-3.9 -23.7,5.1 -33.6,3.3 -0.6,-0.6 -1.2,-1.5 -2.1,-2.1 -0.9,0 -1.8,0 -2.4,-0.6 -0.6,-2.1 0.9,-4.8 -2.4,-5.4 l -0.9,-0.9 c 0.6,-2.1 -1.8,-2.4 -3,-3.6 -8.4,-9.3 -13.8,-7.8 -25.5,-6.9 -2.4,0.3 -4.2,-0.6 -6.3,-0.6 -1.5,-0.3 -2.4,0.6 -3.6,0.3 -1.8,0 -9,-3.6 -11.4,-4.5 -2.7,-0.9 -5.1,0 -7.5,0 -4.8,-0.3 -6.6,-2.7 -12.3,-1.5 -1.8,0.6 -3.9,2.1 -5.7,2.7 -2.4,0.6 -5.7,-0.6 -8.1,0 -4.2,0.6 -9.3,3.9 -13.2,6 -2.4,1.5 -5.4,0.6 -7.8,1.8 -6,2.4 -11.1,7.8 -16.8,11.1 -5.7,3 -14.4,3.9 -21,6 -2.4,0.9 -5.4,3.6 -7.8,3.3 -0.9,-0.6 -0.9,-1.8 -1.5,-2.7 -1.2,0 -2.7,0.3 -3.9,0.3 l -0.6,-0.6 c 0.3,-1.2 0.9,-2.1 1.2,-3 v -1.2 c -6.6,-4.2 -6.9,3.3 -10.8,3.3 -1.8,0 -3,-1.2 -4.8,-0.9 -1.5,0 -2.7,1.2 -4.5,0.6 -1.5,-0.6 -2.4,-4.5 -4.2,-5.7 -0.9,-0.6 -2.7,-1.2 -3.9,-1.8 -1.5,-0.9 -2.7,-2.7 -4.5,-3.9 -1.8,-0.9 -3.6,-1.2 -5.4,-2.1 v -0.9 c 3.6,-6 6.9,-4.8 10.2,-7.8 v -0.9 c -4.5,-2.1 -9.6,-0.3 -14.1,-3.9 l -0.6,-0.6 c -3.9,-2.7 -12.9,1.2 -18,0.6 -3.9,-0.6 -6.9,-5.7 -11.4,-7.5 -5.4,-1.8 -11.7,-2.4 -17.1,-3.6 -6,-1.5 -11.4,-3.6 -17.1,-5.4 -2.7,-0.6 -4.2,-2.7 -6.6,-3.6 -1.5,-0.9 -3.9,-0.6 -5.7,-1.8 -1.5,-0.9 -0.9,-3.9 -2.4,-5.7 -0.3,-0.3 -0.9,-0.9 -1.2,-1.2 -1.5,-1.2 -3.3,-1.8 -4.5,-2.7 -1.8,-1.8 -3.6,-3.9 -5.7,-5.7 -0.3,-0.3 -0.9,-0.9 -1.5,-1.2 -1.8,-0.9 -3.9,-1.8 -5.7,-2.7 -1.5,-0.6 -3,-1.2 -3.9,-2.4 -1.5,-1.8 -1.8,-5.4 -3.3,-7.5 -1.8,-2.7 -7.5,-10.2 -10.2,-10.5 -2.1,-0.6 -4.5,0 -6.9,-0.6 -1.8,-0.6 -3.3,-2.1 -4.8,-2.4 -7.5,-1.5 -18.3,1.2 -26.1,0.3 -1.5,0 -3,-1.2 -4.5,-1.2 -3,0 -6.3,1.5 -9.3,1.5 -3,0.3 -4.8,-1.8 -6.6,-1.5 -3.6,0.3 -6.9,4.2 -10.8,4.2 -4.8,0 -3.3,-6.6 -12.9,-4.5 -4.5,0.9 -8.4,3 -12.6,3.9 -3.6,0.9 -7.2,1.8 -10.8,2.7 -3,0.6 -5.7,0.3 -8.7,0.9 -3,0.6 -6.9,3.6 -9.9,3 -0.6,-0.3 -0.9,-0.9 -1.2,-1.5 0,-1.2 0,-2.4 -0.3,-3.6 -1.5,-2.1 -3.3,-1.2 -4.5,-3.9 -2.1,-4.5 -2.7,-10.5 -5.1,-14.7 -3.9,-6.6 -9.9,-11.7 -14.7,-17.1 -2.1,-2.4 -3,-5.1 -5.4,-7.2 -1.8,-1.5 -4.5,-2.1 -6.3,-3.6 -3,-2.4 -1.2,-6.9 -4.2,-9 -6.3,-4.8 -15.6,-2.1 -21.6,-5.7 -1.5,-1.8 0,-4.8 -0.6,-7.2 -0.6,-2.4 -5.1,-9.3 -6.6,-11.7 -1.5,-2.4 -4.5,-3.3 -6.3,-5.4 -2.1,-3 -0.9,-6 -4.8,-9.6 -4.2,-4.2 -10.2,-5.7 -14.7,-10.8 -2.4,-3 -1.5,-6.9 -2.1,-10.2 -0.6,-3.6 -2.7,-6.6 -3,-10.2 -0.6,-5.7 0,-11.4 -0.3,-17.1 -0.3,-3.3 -1.5,-6.9 -1.2,-10.2 0,-3.9 3,-7.2 2.7,-11.7 0,-6.6 -3.9,-9.6 -2.1,-17.7 1.5,-6.9 9.6,-11.7 9.6,-17.7 0,-4.8 -0.9,-6.6 -6,-7.2 0,-0.6 -0.6,-1.2 -0.9,-1.8 0.6,-2.1 2.1,-8.1 3.3,-9.6 3,-4.2 9.3,-2.1 9.3,-16.5 0,-1.8 -1.5,-3 -1.8,-4.5 -0.6,-1.8 0,-4.2 0,-6.3 -0.6,-7.5 -4.5,-13.5 1.8,-20.1 4.5,-0.6 8.4,-0.3 12.3,0 l -0.3,-2.1 c 9.9,-1.5 19.8,-3.6 23.7,-13.8 2.1,-6 2.7,-12.3 4.2,-18.6 0.6,-2.7 -0.6,-3 -1.2,-5.4 -0.6,-2.1 0.6,-4.2 0.6,-6.3 0.3,-3.9 -1.2,-8.1 -1.8,-12 -0.6,-3.3 -2.1,-6.3 -2.7,-9.9 -1.2,-7.8 -0.9,-18.9 -1.5,-27.6 -0.3,-3.3 -2.4,-5.1 -3.3,-8.1 -3.6,-11.1 -9.9,-38.1 3,-45.3 h 0.6 c 5.1,-3.3 4.8,-4.2 7.2,-9.3 5.4,-12.6 -4.5,-13.5 -3.6,-19.2 -2.4,-3.9 -9.9,-9.6 -9,-14.4 1.2,-6.3 1.8,-14.1 6.9,-18.6 1.2,-3 0.3,-6.9 -0.9,-10.2 h -5.1 c 0,-0.3 2.7,-1.8 3.3,-2.4 1.8,-5.1 -3.9,-13.5 -7.5,-16.5 -3.6,-11.4 7.5,-16.8 17.1,-15.3 8.4,-3.3 17.4,-38.4 20.7,-48.6 0.3,-0.6 -0.6,-2.7 -0.9,-3 -1.5,-2.7 -3,-6.6 -5.1,-9.3 -3.3,-4.2 -10.8,-2.7 -12,-9.3 0.6,-7.2 9.3,-10.8 15,-12.6 4.8,-1.8 1.5,-8.1 1.2,-9.3 0,-2.4 1.2,-5.4 1.8,-7.8 0.6,-3 6.3,-6 7.5,-9.3 2.1,-6.3 3.9,-12.9 5.4,-19.5 0.9,-4.8 -2.7,-6 0.6,-11.7 l 5.7,-10.8 c 5.1,-9.6 -9.3,-22.8 -7.2,-28.8 1.5,-1.8 4.8,-2.1 6.9,-1.5 0.3,0.6 1.5,0.9 2.4,1.5 5.1,2.7 6,-2.7 7.5,-6 4.8,-11.4 0.6,-8.7 1.2,-12.6 0.3,-2.1 1.8,-4.8 1.5,-6.9 -0.3,-3.3 -1.5,-6.6 -1.5,-9.6 -0.3,-2.4 0.3,-5.1 0,-7.5 -0.3,-3.3 -3.9,-6.3 -5.7,-8.7 -2.4,-2.7 0,-6.9 -1.8,-8.4 -1.2,-1.2 -6.6,-5.1 -6.6,-6.9 1.8,-3.6 1.2,-8.1 1.8,-12 0.6,-3.3 6.6,-9.9 9,-11.7 1.8,-1.2 4.8,-1.8 6.3,-3.3 3.9,-3.9 4.2,-4.5 9.6,-7.8 1.8,-1.2 5.4,-4.5 7.5,-4.8 2.1,-5.4 7.5,0.6 11.4,-15.9 0.6,-2.7 1.5,-7.2 2.7,-9.3 0.6,-3.3 -9.9,-9.3 -5.7,-13.5 l 0.9,-0.6 3,0.3 c 6.3,0.6 0,5.4 5.1,3 l 0,0 z" />
    </g>
  </g>
</svg>
