<?xml version="1.0" encoding="UTF-8" standalone="no"?>
<!-- Created with Sodipodi ("http://www.sodipodi.com/") -->

<svg
   xmlns:dc="http://purl.org/dc/elements/1.1/"
   xmlns:cc="http://creativecommons.org/ns#"
   xmlns:rdf="http://www.w3.org/1999/02/22-rdf-syntax-ns#"
   xmlns:svg="http://www.w3.org/2000/svg"
   xmlns="http://www.w3.org/2000/svg"
   xmlns:sodipodi="http://sodipodi.sourceforge.net/DTD/sodipodi-0.dtd"
   xmlns:inkscape="http://www.inkscape.org/namespaces/inkscape"
   height="1000"
   id="svg1"
   sodipodi:docname="Flag_of_Marquesas_Islands_2018.svg"
   sodipodi:version="0.32"
   width="1500"
   inkscape:version="0.92.3 (2405546, 2018-03-11)"
   version="1.0">
  <title
     id="title3390">Flag of Marquesas Islands since november 2018</title>
  <metadata
     id="metadata1">
    <rdf:RDF>
      <cc:Work
         rdf:about="">
        <dc:title>Flag of Marquesas Islands since november 2018</dc:title>
        <dc:description>Flag of Marquesas Islands (French Polynesia)</dc:description>
        <dc:subject>
          <rdf:Bag>
            <rdf:li>oceania</rdf:li>
            <rdf:li>French</rdf:li>
            <rdf:li>Polynesia</rdf:li>
            <rdf:li>France</rdf:li>
            <rdf:li>Marquesas</rdf:li>
            <rdf:li>Islands</rdf:li>
            <rdf:li>flag</rdf:li>
          </rdf:Bag>
        </dc:subject>
        <dc:publisher>
          <cc:Agent>
            <dc:title>Association MOTU HAKA</dc:title>
          </cc:Agent>
        </dc:publisher>
        <dc:creator>
          <cc:Agent>
            <dc:title>Ivan d'Hostingue (user Sémhur on Wikimedia Commons)</dc:title>
          </cc:Agent>
        </dc:creator>
        <dc:rights>
          <cc:Agent>
            <dc:title>Association MOTU HAKA</dc:title>
          </cc:Agent>
        </dc:rights>
        <dc:date>2019-03-25</dc:date>
        <dc:format>image/svg+xml</dc:format>
        <dc:type
           rdf:resource="http://purl.org/dc/dcmitype/StillImage" />
        <cc:license
           rdf:resource="http://creativecommons.org/publicdomain/zero/1.0/" />
        <dc:language />
        <dc:identifier>https://commons.wikimedia.org/wiki/File:Flag of Marquesas Islands.svg</dc:identifier>
        <dc:source>https://www.codim.pf/fr/le-drapeau-marquisien-redessine/</dc:source>
      </cc:Work>
      <cc:License
         rdf:about="http://creativecommons.org/publicdomain/zero/1.0/">
        <cc:permits
           rdf:resource="http://creativecommons.org/ns#Reproduction" />
        <cc:permits
           rdf:resource="http://creativecommons.org/ns#Distribution" />
        <cc:permits
           rdf:resource="http://creativecommons.org/ns#DerivativeWorks" />
      </cc:License>
    </rdf:RDF>
  </metadata>
  <defs
     id="defs1" />
  <sodipodi:namedview
     id="base"
     inkscape:zoom="0.684"
     inkscape:cx="525.5848"
     inkscape:cy="500"
     inkscape:window-width="1568"
     inkscape:window-height="879"
     inkscape:window-x="32"
     inkscape:window-y="21"
     inkscape:current-layer="layer3"
     showguides="true"
     inkscape:guide-bbox="true"
     width="21cm"
     height="14cm"
     units="cm"
     inkscape:document-units="cm"
     showgrid="false"
     borderlayer="true"
     inkscape:showpageshadow="false"
     inkscape:snap-page="true"
     fit-margin-top="0"
     fit-margin-left="0"
     fit-margin-right="0"
     fit-margin-bottom="0"
     inkscape:window-maximized="1"
     inkscape:snap-global="true" />
  <g
     inkscape:groupmode="layer"
     id="layer1"
     inkscape:label="rouge"
     transform="translate(115.49713,332.51791)"
     style="display:inline">
    <path
       style="fill:#ee252b;fill-opacity:1;fill-rule:evenodd;stroke:none;stroke-width:1px;stroke-linecap:butt;stroke-linejoin:miter;stroke-opacity:1"
       d="M 1384.5029,167.46671 H 633.65754 l -749.15467,500.0154 H 1384.5029 Z"
       id="path6879"
       inkscape:connector-curvature="0"
       sodipodi:nodetypes="ccccc" />
  </g>
  <g
     inkscape:groupmode="layer"
     id="layer2"
     inkscape:label="jaune"
     transform="translate(115.49713,332.51791)"
     style="display:inline">
    <path
       style="fill:#fece00;fill-opacity:1;fill-rule:evenodd;stroke:none;stroke-width:0.9978382px;stroke-linecap:butt;stroke-linejoin:miter;stroke-opacity:1"
       d="M 1384.5029,167.49748 H 633.65754 L -115.49713,-332.51791 H 1384.5029 Z"
       id="path6881"
       sodipodi:nodetypes="ccccc"
       inkscape:connector-curvature="0" />
  </g>
  <g
     inkscape:groupmode="layer"
     id="layer3"
     inkscape:label="blanc"
     style="display:inline"
     transform="translate(115.49713,332.51791)">
    <path
       style="fill:#ffffff;fill-opacity:1;fill-rule:evenodd;stroke:none;stroke-width:1px;stroke-linecap:butt;stroke-linejoin:miter;stroke-opacity:1"
       d="m -115.49713,-332.51787 v 1000 L 633.63438,167.48209 Z"
       id="path6883"
       sodipodi:nodetypes="cccc"
       inkscape:connector-curvature="0" />
  </g>
  <g
     inkscape:groupmode="layer"
     id="layer4"
     inkscape:label="matatiki"
     transform="translate(115.49713,332.51791)"
     style="display:inline">
    <path
       id="path3378"
       style="opacity:1;fill:#000000;fill-opacity:0.96449705;stroke:none;stroke-width:1;stroke-linecap:butt;stroke-linejoin:round;stroke-miterlimit:4;stroke-dasharray:none;stroke-dashoffset:0;stroke-opacity:1;paint-order:normal"
       d="m 125.32895,254.71764 c -3.58791,0.10261 -15.99179,-0.30789 -21.93746,3.59205 -5.945649,3.89995 -10.558779,7.49216 -15.171778,15.59996 -4.613021,8.10778 -7.893131,9.23664 -9.533359,8.92874 -1.640142,-0.30789 -7.175963,-1.74452 -6.97094,-8.82599 0.205023,-7.08149 3.793037,-9.95512 5.843269,-10.05775 2.050231,-0.10261 4.100333,0.61559 2.050101,2.36031 -2.050231,1.74471 -3.075152,3.69486 -3.075152,6.26061 0,2.56576 0.922539,6.05524 2.460213,6.15787 1.537674,0.10261 2.870172,-1.74471 3.485241,-5.74728 -0.205023,-12.41826 0.820028,-12.4186 -1.12767,-13.23964 -1.94772,-0.82105 -6.048162,-0.7183 -9.32851,3.6948 -3.280393,4.4131 -4.305248,10.98159 -1.947481,15.59994 1.845186,4.00258 4.100202,5.84961 4.100202,5.84961 0,0 -3.587753,3.79743 -4.920404,6.56845 -1.33265,2.77101 -0.102815,11.08404 1.229879,12.93138 1.33265,1.84734 4.715923,4.72099 7.176201,5.02888 2.460278,0.30789 3.895375,0.30795 3.895375,-4.6183 0,-4.92625 0.512492,-11.59701 -0.410112,-11.69964 -0.922582,-0.1026 -3.485372,0.61578 -3.587883,2.87364 -0.10249,2.25786 2.016271,4.4155 2.152743,6.05511 0.205023,2.46313 -1.742632,3.79713 -3.895375,2.36031 -3.146678,-2.10021 -4.10068,-5.43951 -3.793145,-8.72368 0.307513,-3.28416 2.665257,-8.41554 6.458186,-8.51817 3.792906,-0.10261 5.945866,1.95002 11.686515,8.3131 5.74067,6.36307 10.148714,12.93156 25.935474,16.31835 15.78674,3.3868 46.05191,5.42361 67.5079,5.13333 21.45601,-0.29028 69.79095,-2.21049 80.23306,-8.83916 4.59613,-2.91763 9.31824,-6.88058 12.80233,-10.66025 5.03453,-5.46162 8.37597,-10.42877 12.49571,-10.36812 5.12501,0.0754 8.50837,5.85009 8.20084,9.85267 -0.30754,4.00258 -3.58796,6.77339 -5.43316,7.38918 -1.84521,0.61578 -3.5879,-0.61559 -2.15273,-3.79713 1.43515,-3.18154 1.94784,-7.28668 -0.61495,-7.49193 -2.56278,-0.20527 -2.25549,0.41051 -2.35801,2.87363 -0.0514,1.2335 0.25609,4.57787 0.48814,7.69914 0.23134,3.1115 0.38522,6.00189 1.6646,5.95067 2.56278,-0.10261 7.84662,-2.10476 10.0461,-7.38961 1.02511,-2.46312 1.84532,-10.46808 -0.61494,-13.13647 -2.46028,-2.66838 -4.10022,-3.79713 -4.10022,-3.79713 0,0 5.43274,-5.43326 5.43274,-13.03413 -0.20503,-4.31046 -1.0248,-8.51835 -5.84284,-11.18673 -4.81803,-2.66838 -7.41622,-1.72838 -7.89336,0.10271 -0.61507,2.3605 -1.12793,6.97872 0.10217,12.11023 1.26341,5.27034 3.48544,7.18392 4.71557,4.51553 1.53692,-3.33385 1.95692,-7.60716 -0.30748,-9.23657 -3.28036,-2.3605 -2.66517,-4.72111 0.1026,-4.41322 2.7678,0.30789 6.86819,3.18152 6.76568,8.62092 -0.10249,5.43941 -3.38269,10.98172 -6.66305,10.67383 -3.28037,-0.30788 -7.27829,-4.6184 -10.76368,-10.46833 -3.48539,-5.84991 -11.48164,-15.49713 -22.96292,-17.24184 -11.48127,-1.74471 -70.7326,0.61566 -75.24311,0.61566 -4.51048,0 -52.79331,-1.64219 -56.38121,-1.53958 z m 109.13806,16.00671 c 9.50933,0.007 22.08907,0.2987 27.91939,4.51936 6.66328,4.82362 5.74065,9.33934 5.74065,9.33934 0,0 -12.19957,1.36214 -36.84502,1.50051 -25.85248,0.14514 -72.74719,-0.29028 -85.38886,0 -13.33715,0.30625 -37.36915,-0.67865 -45.57724,-1.50051 0,0 -0.717411,-4.72105 5.53577,-9.03151 6.25319,-4.31047 11.17359,-5.23407 32.90598,-4.6183 21.73241,0.61579 43.56731,0.71854 46.33512,0.82117 2.7678,0.10261 35.87925,-1.02624 45.51532,-1.02624 1.20452,0 2.50043,-0.004 3.85889,-0.004 z m 33.63798,17.68129 c 0,0 0.72505,5.66073 -4.92889,7.54756 -5.65395,1.88683 -20.87619,6.24108 -51.46548,6.24108 -30.58928,0 -73.93606,-0.14533 -83.79422,-1.30646 -9.85818,-1.16113 -28.12467,-2.46737 -27.25483,-12.33696 20.44119,1.16113 81.18465,0.87084 84.51902,0.87084 3.3344,0 36.96799,0.72577 55.52452,0.14521 18.55653,-0.58057 27.39988,-1.16127 27.39988,-1.16127 z m 61.91732,-35.22732 0.9226,12.9314 c 0,0 -4.408,0.92368 -5.33058,-3.38679 -0.9226,-4.31047 -1.33265,-5.74729 -1.33265,-5.74729 0,0 -4.20297,0 -3.89544,3.28416 0.30754,3.28417 -0.11695,11.65653 4.81805,12.82878 3.60219,0.85565 4.19353,-0.12024 6.15067,-0.41052 1.20317,2.82971 0.88413,6.269 1.23014,9.44198 0,0 -6.35572,3.59205 -7.07328,6.46569 -0.71758,2.87365 -0.41005,7.59464 0.61505,7.90253 1.02511,0.30789 1.53767,0.30789 2.05023,-1.84734 0.51256,-2.15523 0.61507,-5.64467 3.17786,-6.67096 2.56279,-1.0263 2.6653,-0.61578 2.6653,-0.61578 0.35878,0.3592 1.17887,6.97884 0.30753,8.21041 0,0 -6.04818,4.10521 -7.68836,4.31047 -1.64017,0.20526 -1.84519,0.30789 -1.84519,0.30789 0,0 -2.25525,-8.51831 -1.02512,-11.69985 1.23014,-3.18153 6.56072,-5.64465 7.17579,-7.79989 0.61507,-2.15524 0,-4.31047 -2.46028,-3.89994 -2.46025,0.41052 -6.61198,1.89865 -7.38081,6.97884 -0.89715,5.9281 -0.10249,17.34451 -0.10249,17.75503 0,0.41052 0.10249,1.74471 -2.97283,2.36049 -3.07533,0.61578 -8.97125,1.95104 -9.84109,1.69704 -0.90502,-0.17519 -2.76779,-10.62586 -1.84519,-11.96006 0.92258,-1.33418 2.46026,-2.36049 5.94565,-1.43681 3.48539,0.92366 3.58791,4.20783 3.79293,6.67095 0.20502,2.46313 2.76779,3.38681 3.07532,0.41052 0.30754,-2.97627 0.8201,-12.11035 -4.61299,-12.72614 -5.43312,-0.61578 -9.43105,0.23123 -9.53356,-2.46313 -0.0625,-1.64408 -0.50374,-6.00742 -0.20502,-6.36306 1.0424,-1.24104 4.81802,-0.41052 6.76574,-3.38681 1.94772,-2.97627 1.78248,-8.54074 1.53767,-10.5709 -0.25264,-2.09512 -2.61961,-4.18171 -3.39426,0.98078 -0.54252,3.61571 -1.34238,5.01069 -3.78153,5.0744 -1.66819,0.0436 -1.74269,-0.30789 -1.74269,-0.30789 l -0.82009,-8.72357 c 0,0 3.89541,-1.64207 7.68834,-1.84734 3.79293,-0.20526 3.99795,1.94997 3.99795,3.28417 0,1.33419 1.12763,10.77617 -0.61507,12.52088 -1.74269,1.74471 -5.94567,2.66839 -5.94567,4.00257 0,1.3342 -0.82009,2.87365 2.46028,2.77102 3.28037,-0.1026 8.40593,-1.33419 8.50844,-8.10778 0.11341,-7.49395 -3.58788,-16.11294 0.41005,-17.34451 3.99795,-1.23156 10.14862,-2.87364 10.14862,-2.87364 z m -291.213004,0 -0.922604,12.9314 c 0,0 4.407997,0.92368 5.33058,-3.38679 0.922604,-4.31047 1.33265,-5.74729 1.33265,-5.74729 0,0 4.202975,0 3.89544,3.28416 -0.307534,3.28417 0.116952,11.65653 -4.818044,12.82878 -3.602193,0.85565 -4.193529,-0.12024 -6.150673,-0.41052 -1.20317,2.82971 -0.884127,6.269 -1.230139,9.44198 0,0 6.355718,3.59205 7.073277,6.46569 0.717581,2.87365 0.410047,7.59464 -0.615047,7.90253 -1.025116,0.30789 -1.537674,0.30789 -2.050232,-1.84734 -0.512558,-2.15523 -0.615069,-5.64467 -3.177859,-6.67096 -2.562789,-1.0263 -2.665301,-0.61578 -2.665301,-0.61578 -0.358779,0.3592 -1.178872,6.97884 -0.307534,8.21041 0,0 6.048183,4.10521 7.688368,4.31047 1.640163,0.20526 1.845186,0.30789 1.845186,0.30789 0,0 2.255255,-8.51831 1.025116,-11.69985 -1.230139,-3.18153 -6.560719,-5.64465 -7.175788,-7.79989 -0.61507,-2.15524 0,-4.31047 2.460277,-3.89994 2.460257,0.41052 6.611986,1.89865 7.380812,6.97884 0.897156,5.9281 0.102512,17.34451 0.102512,17.75503 0,0.41052 -0.102512,1.74471 2.972836,2.36049 3.075325,0.61578 8.97125,1.95104 9.841089,1.69704 0.905016,-0.17519 2.767791,-10.62586 1.845187,-11.96006 -0.922583,-1.33418 -2.460256,-2.36049 -5.94565,-1.43681 -3.485394,0.92366 -3.587905,4.20783 -3.792928,6.67095 -0.205023,2.46313 -2.767791,3.38681 -3.075326,0.41052 -0.307535,-2.97627 -0.820092,-12.11035 4.612999,-12.72614 5.433114,-0.61578 9.431044,0.23123 9.533555,-2.46313 0.06254,-1.64408 0.503742,-6.00742 0.205024,-6.36306 -1.042401,-1.24104 -4.818023,-0.41052 -6.765743,-3.38681 -1.94772,-2.97627 -1.782477,-8.54074 -1.537674,-10.5709 0.252642,-2.09512 2.619615,-4.18171 3.394261,0.98078 0.542523,3.61571 1.342378,5.01069 3.781528,5.0744 1.668196,0.0436 1.742697,-0.30789 1.742697,-0.30789 l 0.820093,-8.72357 c 0,0 -3.895419,-1.64207 -7.688347,-1.84734 -3.792928,-0.20526 -3.997951,1.94997 -3.997951,3.28417 0,1.33419 -1.127628,10.77617 0.615069,12.52088 1.742697,1.74471 5.945671,2.66839 5.945671,4.00257 0,1.3342 0.820093,2.87365 -2.460277,2.77102 -3.280371,-0.1026 -8.405928,-1.33419 -8.50844,-8.10778 -0.113412,-7.49395 3.587884,-16.11294 -0.410046,-17.34451 -3.997951,-1.23156 -10.148624,-2.87364 -10.148624,-2.87364 z M 352.98867,207.10513 c 2.40395,-0.11576 4.40593,1.50538 6.13801,2.92501 1.28215,1.05087 2.18499,2.53453 2.72825,4.04764 0.49408,1.37613 1.03174,2.58292 1.34629,4.00961 0.62456,2.83275 0.98983,5.67554 0.99257,8.55536 0.003,2.99701 -0.25143,6.07564 -1.25275,8.91177 -0.63155,1.78884 -1.11314,3.55714 -1.97629,5.27768 -1.20641,2.40473 -2.98661,4.6483 -5.39711,5.68996 -1.94846,0.84199 -4.43256,0.56089 -6.26142,-0.4437 -2.5095,-1.37846 -4.11323,-3.99925 -5.34919,-6.50688 -0.9667,-1.96133 -2.19749,-5.1328 -2.62476,-7.17264 -0.28615,-1.36604 -0.71463,-2.60427 -0.58176,-4.09597 0.22283,-2.50138 0.25549,-4.9537 0.77347,-7.00967 0.44675,-1.77321 0.65034,-3.59064 1.44574,-5.18469 1.76604,-3.53931 4.1741,-7.2271 7.95784,-8.86507 0.63611,-0.27536 1.37345,-0.10532 2.06111,-0.13841 z m -4.56925,7.56411 c -1.26948,1.13812 -1.99979,2.75497 -2.69982,4.28372 -0.47298,1.03288 -0.68875,2.09563 -0.94958,3.18656 -0.8605,3.59902 -0.21155,7.40223 0.82112,10.93962 0.80113,2.7443 1.70954,5.74529 3.86691,7.67026 0.78747,0.70264 1.90394,1.39603 2.9212,1.21603 0.95795,-0.1695 1.57747,-0.79728 2.29607,-1.56037 0.66189,-0.70287 1.30712,-1.2118 1.70112,-2.05525 1.2826,-2.74559 2.56698,-5.58617 2.99676,-8.58842 0.44184,-3.08648 0.64695,-6.34287 -0.2164,-9.37968 -0.95101,-3.34518 -3.40388,-6.51819 -6.73007,-7.57812 -1.77659,-0.56614 -2.49439,0.5093 -4.00731,1.86565 z M 15.798746,207.10513 c -2.403951,-0.11576 -4.405935,1.50538 -6.1380133,2.92501 -1.2821438,1.05087 -2.1849883,2.53453 -2.7282497,4.04764 -0.4940793,1.37613 -1.0317385,2.58292 -1.3462869,4.00961 -0.6245584,2.83275 -0.9898306,5.67554 -0.9925665,8.55536 -0.00282,2.99701 0.2514259,6.07564 1.2527431,8.91177 0.6315504,1.78884 1.1131442,3.55714 1.9762956,5.27768 1.2064055,2.40473 2.9866027,4.6483 5.3971117,5.68996 1.948458,0.84199 4.432556,0.56089 6.261414,-0.4437 2.509504,-1.37846 4.113231,-3.99925 5.349189,-6.50688 0.966706,-1.96133 2.197496,-5.1328 2.624761,-7.17264 0.286147,-1.36604 0.714628,-2.60427 0.581761,-4.09597 -0.222829,-2.50138 -0.255487,-4.9537 -0.773473,-7.00967 -0.446743,-1.77321 -0.650333,-3.59064 -1.445737,-5.18469 -1.766039,-3.53931 -4.174095,-7.2271 -7.957838,-8.86507 -0.636111,-0.27536 -1.373451,-0.10532 -2.061111,-0.13841 z m 4.569246,7.56411 c 1.269485,1.13812 1.99979,2.75497 2.699826,4.28372 0.472974,1.03288 0.688745,2.09563 0.949573,3.18656 0.860502,3.59902 0.211559,7.40223 -0.821113,10.93962 -0.801136,2.7443 -1.70954,5.74529 -3.866908,7.67026 -0.787478,0.70264 -1.903944,1.39603 -2.9212,1.21603 -0.957954,-0.1695 -1.577475,-0.79728 -2.296077,-1.56037 -0.661884,-0.70287 -1.307115,-1.2118 -1.701114,-2.05525 -1.2826,-2.74559 -2.5669805,-5.58617 -2.9967648,-8.58842 -0.4418355,-3.08648 -0.6469455,-6.34287 0.2164013,-9.37968 0.9510065,-3.34518 3.4038795,-6.51819 6.7300665,-7.57812 1.776592,-0.56614 2.49439,0.5093 4.00731,1.86565 z M 108.37441,20.349463 c 0.30666,0.854444 0.27071,-1.048362 0,0 z m -0.1548,0.325237 c -7.75056,-0.01 -15.645078,0.937757 -22.794983,4.094343 -5.577142,2.069991 -11.174739,4.459 -15.580197,8.550441 -7.652192,6.545851 -14.285957,14.532244 -18.059104,23.949312 -2.374899,5.400876 -4.881102,10.771373 -6.178641,16.560742 -2.284807,9.176755 -3.100883,18.604602 -4.43527,27.940182 -0.889577,4.18253 -0.945013,8.47404 -1.738854,12.67412 -0.603582,5.80961 -0.82222,11.65532 -1.570179,17.44848 -0.888622,9.79871 -1.779241,19.61594 -3.4647,29.32118 -0.843718,4.50088 -1.112688,9.12481 -2.388144,13.53444 -0.862631,3.20084 -3.376803,5.50658 -5.99683,7.3381 -3.901324,2.96878 -9.098711,4.97783 -13.976165,3.40309 C 5.6676669,183.56458 1.443,177.68465 -0.91407142,171.74969 -4.5586935,162.74286 -4.9269404,152.87707 -5.3999355,143.29485 c -0.3251013,-7.28956 0.1602707,-14.58881 1.3161479,-21.79006 1.0114794,-7.88917 2.7087724,-16.23198 8.0204398,-22.437603 3.5989359,-3.795565 9.1633968,-5.388869 14.2739498,-4.83738 2.742082,0.446066 4.477721,2.854141 5.520578,5.235369 2.940177,5.715384 4.747169,12.007214 5.044564,18.441794 0.460574,6.06853 -0.0096,12.15783 0.842544,18.16979 0.149458,3.15302 -0.687138,6.24335 -0.777598,9.38775 -0.514708,7.03831 -1.548487,14.63206 -6.329292,20.16856 -2.225941,2.44898 -5.526701,4.85704 -9.01001,3.88417 -2.834322,-0.8509 -4.0407276,-3.87742 -5.4098359,-6.21899 -4.01719,-8.45061 -5.3754413,-18.0097 -4.8915675,-27.30343 0.3925883,-5.154 1.0779458,-10.40139 3.0560219,-15.20962 1.5665315,-3.50441 4.8235165,-6.95479 8.9303415,-6.82671 3.449218,0.46193 5.059394,4.0203 5.998805,6.9694 1.599255,5.38471 1.584011,11.0747 1.82838,16.64005 -0.02779,4.91377 -0.501809,10.00762 -2.588694,14.50705 -0.772691,1.26844 -2.765967,1.39002 -3.539982,0.0437 -1.907919,-2.46002 -1.724609,-5.76424 -2.533671,-8.64017 -0.839418,-4.35047 -0.327794,-8.84244 -0.739968,-13.19661 -0.08877,-1.30048 -1.208143,-3.15707 -2.724841,-2.66348 -1.5919804,1.546 -0.9127462,4.01495 -1.1779821,5.99752 -0.2826506,6.42863 -0.3072525,13.04255 1.8921761,19.18294 0.869361,3.0002 1.603249,6.82751 4.798262,8.201 2.690489,0.72391 5.134048,-1.67391 6.138861,-3.95847 2.896685,-6.31224 3.819463,-13.26756 4.372626,-20.11777 0.42353,-8.5261 -1.033216,-17.36374 -4.959164,-24.99772 -1.756789,-3.09765 -4.584988,-6.42578 -8.459517,-6.36677 -3.7400334,0.0274 -6.8462796,2.57331 -8.754567,5.67111 -3.2895121,4.93113 -5.10169353,10.77326 -5.43628384,16.65354 -0.90045596,8.65608 -0.70038356,17.42855 0.25906918,26.04913 0.85681091,6.35688 3.13588576,12.38198 5.62106956,18.25703 1.6590547,3.73066 4.9224881,7.31398 9.2810431,7.41344 4.800803,0.18197 8.903785,-3.18293 11.609344,-6.81301 4.171793,-5.58944 5.061979,-12.69972 6.208541,-19.39025 1.196373,-7.83237 0.888252,-15.78452 1.03467,-23.70163 0.121272,-8.33963 -0.806761,-16.67266 -2.88559,-24.76223 -1.782411,-7.174125 -3.331246,-15.015998 -8.751744,-20.425863 -2.124232,-2.043076 -4.785147,-4.340597 -7.962897,-3.718156 -3.080537,0.560511 -5.7573249,2.389219 -8.420954,3.97928 -3.389331,2.097498 -5.86483037,5.326612 -7.6185361,8.860392 -4.9008829,9.089707 -6.7789011,19.394197 -8.3222639,29.515587 -1.449406,7.52341 -2.828329,15.00584 -3.160748,22.66951 -0.640866,11.82581 -0.282976,23.71976 -0.712001,35.57177 -0.215771,12.71182 0.727874,25.45651 3.64649,37.85502 2.3455845,11.12037 4.1209608,22.67147 9.4799429,32.79664 2.8818543,5.72273 6.3654022,11.43388 11.7585191,15.04126 3.434474,1.76836 7.436508,0.73599 10.952822,-0.0267 4.379292,-1.04239 8.19895,-3.83896 10.959597,-7.34205 2.657419,-4.05646 3.27162,-9.00531 3.992501,-13.69353 1.018537,-4.84703 1.656645,-9.75174 1.538999,-14.70915 0.07309,-6.65313 -0.644927,-13.22874 -2.633621,-19.5805 -0.784872,-3.83653 -1.529618,-7.93035 -0.483461,-11.78711 1.246424,-4.18557 6.491083,-5.71206 10.306811,-4.35347 3.350897,1.29055 6.081036,3.77304 8.825875,6.02169 9.944448,8.57086 16.76339,20.23997 27.316502,28.15217 5.312883,3.47608 12.201114,3.30312 18.084141,1.66964 5.963351,-1.68906 10.879671,-5.75509 15.502521,-9.66514 4.71106,-4.39807 7.88836,-10.14744 12.45074,-14.69258 3.98291,-4.27421 9.26936,-7.4116 15.10605,-8.21035 4.20914,-0.53538 9.05691,-0.96854 12.66152,1.74508 4.64852,3.8885 8.74516,8.89081 9.92015,14.9932 0.71239,3.41045 1.29667,6.86026 1.72821,10.3142 0.1259,1.29017 -0.59162,3.5017 -2.25708,2.93818 -2.0973,-1.05169 -2.80531,-3.58167 -4.23559,-5.28579 -3.08346,-4.51554 -7.141,-9.19735 -12.80204,-10.20703 -4.36012,-0.76655 -8.69953,1.35628 -11.57265,4.53489 -4.27088,4.33508 -6.429,10.08183 -8.39273,15.7053 -0.60282,1.67532 -2.31088,3.59242 -1.09267,5.39572 1.5666,1.02958 3.64825,0.68765 5.43483,0.81029 28.65925,1.59267 57.36794,0.32912 86.0422,-0.18647 7.42278,-0.1756 14.86333,-0.10315 22.27736,-0.21155 1.75636,-0.73145 1.59072,-3.20383 1.19214,-4.75415 -2.12091,-7.15039 -4.95686,-14.83587 -11.31627,-19.29943 -3.32108,-2.47008 -8.0707,-3.28184 -11.7472,-1.17253 -3.88941,2.22175 -6.85757,5.80382 -9.34454,9.4974 -1.2307,1.63623 -1.99343,3.69617 -3.53153,5.06593 -1.03435,0.79214 -2.84236,0.34125 -2.92418,-1.1099 -0.78932,-4.05871 0.53603,-8.14449 1.48285,-12.0599 1.14137,-4.37563 3.3122,-8.4652 6.5038,-11.68881 2.09384,-2.13973 4.13315,-4.79542 7.29411,-5.27217 8.4935,-1.5293 17.3708,1.91817 23.33801,8.00297 3.85792,3.61256 6.64733,8.13447 9.84958,12.28448 5.74862,6.65823 13.48727,11.95598 22.30781,13.09542 5.61067,0.83267 11.90359,0.034 16.31503,-3.75608 8.43157,-6.61355 13.95289,-16.06978 21.78858,-23.2984 4.20368,-4.20667 8.79612,-8.86897 14.92793,-9.86524 5.56346,-0.49648 9.98438,5.76123 8.57971,10.95154 -1.78856,7.20801 -3.82803,14.37208 -3.9702,21.85268 -0.41102,6.16807 0.69176,12.26348 1.67766,18.34377 0.57772,3.45123 0.32825,7.07783 2.10443,10.22003 1.82979,4.02413 5.0306,7.47411 9.10881,9.30334 3.88151,1.68665 8.29339,2.97997 12.52761,2.00441 3.6085,-1.14157 6.37141,-4.03794 8.71357,-6.87584 5.02404,-6.62025 7.89293,-14.60234 10.3346,-22.44785 1.80554,-6.19688 2.90569,-12.56724 4.51437,-18.81542 1.21921,-5.22345 1.64716,-10.59925 2.61724,-15.86465 1.4332,-11.65114 0.55431,-23.48935 0.74,-35.23196 -0.015,-11.66401 0.15668,-23.3681 -1.72819,-34.90107 -1.66806,-10.98868 -3.54181,-22.01462 -6.83905,-32.62441 -1.73529,-4.787755 -3.94733,-9.616698 -7.34501,-13.503724 -2.74783,-2.983191 -6.58995,-4.684152 -10.35907,-6.052989 -1.94809,-0.793508 -4.25277,-0.792162 -6.11299,0.407183 -5.56521,3.401432 -8.87156,9.506358 -10.37244,15.738013 -2.33904,7.298287 -4.1524,14.814957 -4.54403,22.502057 -0.50758,8.45459 -0.34759,16.9659 -0.2971,25.44756 0.37315,7.45017 1.78176,14.871 4.29806,21.90084 2.13952,5.3283 6.20292,10.4525 11.97364,11.92893 3.53918,0.85812 7.31911,-0.71224 9.46126,-3.60273 3.34237,-4.23107 4.80995,-9.58136 6.33342,-14.66186 2.67609,-9.67272 2.80667,-19.80284 2.38826,-29.76105 -0.40564,-6.50801 -1.39053,-13.27617 -4.95424,-18.8939 -1.75219,-2.88001 -3.86069,-6.09872 -7.39956,-6.89691 -3.17392,-1.01498 -6.69034,0.67562 -8.74653,3.20929 -3.48077,4.29088 -4.98734,9.81764 -6.10662,15.10105 -1.85895,10.17663 -0.80368,20.76625 2.28377,30.58041 1.03782,2.86109 2.94666,6.09464 6.17788,6.70814 2.5808,0.22761 4.26203,-2.17034 4.79049,-4.4134 2.35007,-7.03645 3.29531,-14.50258 3.34271,-21.89219 -0.12345,-2.04034 -0.0242,-4.178 -0.68854,-6.1235 -1.11812,-1.27599 -2.9216,-0.007 -3.21044,1.35317 -0.82822,2.66523 0.13265,5.49111 -0.6216,8.18902 -0.57769,2.48032 -1.06386,4.93797 -0.9094,7.50095 -0.19137,2.46141 -0.86072,5.06199 -2.46149,6.97987 -1.46787,1.06108 -3.24886,-0.42025 -3.61037,-1.91151 -1.87814,-4.50697 -1.40125,-9.51745 -1.66111,-14.2854 0.0147,-5.94283 0.30307,-12.01713 2.13314,-17.71019 0.9834,-2.75918 3.60178,-5.42691 6.75889,-4.85691 4.05855,0.70154 6.54834,4.61586 7.95741,8.17255 1.9294,5.30953 2.12063,11.04267 2.52577,16.62082 0.38203,9.73581 -1.63426,19.73577 -6.73921,28.10744 -1.46183,2.42188 -4.54478,3.55779 -7.22414,2.66092 -4.91001,-1.59315 -7.81336,-6.44379 -9.4918,-11.04704 -2.54727,-7.5735 -2.66362,-15.68603 -2.77903,-23.59757 0.0983,-6.87719 0.24208,-13.775 0.95666,-20.6186 0.91192,-6.45761 3.04439,-12.91558 7.01252,-18.149224 1.48782,-1.719108 3.92966,-2.161558 6.05289,-1.564967 3.82928,0.403228 8.08791,0.977783 10.8395,4.00976 3.67326,3.927551 5.56269,9.154041 7.0193,14.241541 2.71858,10.56782 2.6948,21.59018 2.63173,32.42873 -0.0923,8.17173 -0.48087,16.51474 -3.41437,24.23892 -2.15619,5.78295 -5.24782,11.814 -10.96986,14.75385 -3.78014,2.22721 -8.51998,2.13556 -12.44715,0.34452 -6.21903,-2.42433 -10.89107,-8.30221 -11.76945,-14.93603 -1.13862,-6.94885 -1.2996,-13.99404 -2.55593,-20.92698 -0.97023,-6.67521 -0.96157,-13.44772 -2.05916,-20.10736 -0.45326,-3.88085 -0.31772,-7.77701 -1.11676,-11.62613 -0.62092,-3.77001 -0.77552,-7.56411 -1.59054,-11.30284 -0.32501,-3.15887 -0.3409,-6.264699 -0.97191,-9.392068 -0.72113,-5.172502 -1.20724,-10.353299 -2.25382,-15.471416 -0.61317,-4.041425 -1.31821,-8.101716 -2.96495,-11.872998 -3.3059,-7.599774 -5.35527,-15.976344 -10.74636,-22.497526 -4.25404,-5.329197 -8.51097,-10.792238 -14.09575,-14.821718 -3.6026,-2.827637 -7.56838,-5.271876 -11.90052,-6.613962 -5.36057,-1.722515 -10.74392,-3.677809 -16.37683,-3.944315 -7.18547,-0.627157 -14.57764,-0.276954 -21.42003,2.12578 -5.73251,1.897778 -11.21404,4.902428 -15.22037,9.494871 -4.30404,4.868906 -8.19639,10.133996 -11.71325,15.619348 -4.13086,6.549986 -7.1883,13.767646 -9.01338,21.3011 -1.35119,5.040121 -3.83657,9.748283 -4.4899,14.973522 -0.51562,4.207228 -1.7759,8.256121 -2.59516,12.401064 -1.6522,9.177308 -1.40746,18.617578 -1.80241,27.926718 -0.40293,13.57755 -0.47272,27.18372 -1.64644,40.72332 -0.61505,5.54049 -1.83681,11.34117 -5.64513,15.63325 -2.11112,2.68585 -5.15518,4.75316 -8.64233,4.94861 -4.14539,0.31195 -8.81849,-0.38946 -11.70925,-3.68222 -4.62555,-4.90585 -6.57201,-11.69481 -6.96434,-18.29679 -0.31698,-6.47341 -0.8461,-12.92341 -1.0437,-19.40439 -0.28919,-16.66619 0.46418,-33.4449 -2.57894,-49.900552 -1.429,-7.296695 -3.34688,-14.54441 -5.43444,-21.698363 -2.50277,-7.808391 -4.44602,-15.997198 -9.17712,-22.846041 -4.60227,-7.117875 -9.12933,-14.455233 -15.43513,-20.190215 -3.47286,-3.221465 -7.76465,-5.293176 -12.24888,-6.683934 -4.42459,-1.51535 -8.94198,-2.709191 -13.58182,-2.833728 z m -2.89957,17.024879 c 7.5183,-0.08549 15.47262,0.702863 21.87463,5.009412 8.95245,5.501715 15.93192,14.027021 19.71614,23.826143 3.26648,7.429808 5.2718,15.310677 7.6332,23.052154 1.6295,6.098204 2.11235,12.426802 3.11,18.644412 1.74784,12.53239 2.94309,25.14491 3.58291,37.78171 0.23195,7.79267 -0.76989,15.56518 -1.88484,23.26067 -0.76745,4.29202 -4.47813,7.68683 -8.75506,8.29004 -3.79792,0.6801 -7.22462,-1.80273 -9.9053,-4.19158 -5.56027,-5.39696 -8.62632,-12.6964 -12.10683,-19.48126 -5.09403,-10.30237 -9.9213,-21.13902 -18.17184,-29.35492 -3.63677,-3.43303 -7.96903,-6.76932 -13.063576,-7.33272 -6.868188,-0.84423 -14.290691,-0.0711 -20.144035,3.95149 -8.697242,5.65012 -14.21606,14.79715 -20.091835,23.1114 -2.623067,3.65701 -5.197604,7.39069 -8.227373,10.71947 -1.549725,1.29512 -4.162435,-0.0155 -3.915721,-2.07159 -0.713369,-9.09436 1.352019,-18.08721 2.214932,-27.09536 1.764953,-14.09864 3.09413,-28.449678 7.860842,-41.92892 3.490909,-9.48312 6.361494,-19.340282 11.548262,-28.090179 3.597112,-5.627882 8.744839,-10.350175 14.784141,-13.23242 5.623589,-2.497848 11.729249,-3.717554 17.787225,-4.595787 2.044018,-0.211019 4.100378,-0.267439 6.154128,-0.272165 z m 159.7324,0.206776 c 7.36902,-0.03481 14.73831,1.655672 21.54057,4.484123 9.27091,3.854935 15.78822,12.312227 19.65422,21.353633 3.10271,7.256266 5.86714,14.659035 8.3793,22.135606 2.38633,7.102095 3.33351,14.577863 4.819,21.903713 1.56186,7.70249 2.10413,15.55647 2.88383,23.36553 0.61505,6.15991 2.15439,12.24767 2.21847,18.44896 0.021,2.03171 -0.47529,4.44737 -2.059,5.77318 -1.45492,1.21797 -3.28167,-0.78061 -4.24869,-1.9952 -4.79219,-6.01911 -9.00665,-12.45903 -13.45271,-18.71574 -5.13295,-7.22332 -11.54689,-14.25187 -20.31414,-16.79755 -5.70521,-1.65657 -12.33063,-1.84923 -17.88454,0.65919 -5.37714,2.4286 -9.61624,6.89747 -13.24176,11.48122 -7.11147,8.99108 -10.98708,19.95304 -16.34591,29.9954 -2.94496,5.51881 -6.19308,11.18984 -11.30431,14.97611 -2.89827,2.14697 -4.65725,2.71356 -6.5569,2.74101 -4.28407,0.0619 -7.81153,-2.17634 -9.08351,-6.34156 -2.06018,-6.74621 -1.69034,-13.84443 -1.9725,-20.77485 -0.62627,-15.38315 0.5713,-30.82654 3.33785,-45.97692 1.11634,-6.113305 1.83173,-12.32875 3.48168,-18.322517 1.27943,-4.64776 2.94222,-9.144501 4.42307,-13.724625 2.08515,-6.449205 5.18332,-12.62842 9.16705,-18.129054 5.77649,-7.976043 14.356,-14.458251 24.23309,-16.065972 4.06203,-0.661189 8.22125,-0.454298 12.32584,-0.473687 z M 91.52488,127.47453 c 5.759865,-0.003 11.38204,2.7146 15.07721,7.12297 4.39054,4.83991 8.04822,10.31495 11.36348,15.9323 2.8252,5.02992 4.54423,10.57008 5.91896,16.14446 0.80605,2.73417 2.23424,5.71054 1.33939,8.58474 -0.95314,0.8309 -2.30911,-0.13701 -3.42953,0.10816 -5.78857,-0.32912 -11.51782,-1.13396 -17.31731,-1.22583 -8.203185,-0.57004 -16.41132,-0.70608 -24.637868,-0.54684 -9.523849,0.0333 -19.050021,0.31248 -28.569549,0.40943 -1.163586,0.0484 -2.107947,-1.00202 -1.714643,-2.15947 0.569275,-3.55709 3.800008,-5.79679 5.110097,-9.03728 4.438354,-8.51839 9.515554,-16.83529 16.398009,-23.61704 4.883316,-5.10538 10.573154,-10.17277 17.749638,-11.46677 0.895396,-0.15599 1.803126,-0.24197 2.712116,-0.24882 z m 184.71238,1.12348 c 1.94948,0.7794 4.4604,1.33623 6.62382,2.01025 3.95629,1.29468 8.24663,2.27392 11.5276,4.9775 3.75835,3.56422 6.83283,7.75542 10.1817,11.68517 3.65624,4.92707 6.52536,10.37646 9.72051,15.60146 1.38681,2.72205 3.00499,5.33819 4.29494,8.10078 0.55356,1.21541 0.0959,2.94358 -1.42074,3.08297 -2.27047,0.43619 -4.5656,-0.36167 -6.85896,-0.11518 -14.55225,-0.16235 -29.11168,-1.00139 -43.65932,-0.25393 -5.87208,0.11218 -11.69422,0.83101 -17.51578,1.64145 -1.8439,0.16304 -3.70577,0.18224 -5.5419,0.26723 -1.27259,-0.40477 -0.62449,-2.1411 -0.63917,-3.12085 0.60728,-3.57925 2.29284,-6.8431 2.99314,-10.37145 2.57792,-9.22164 7.93628,-17.33554 13.70504,-24.85222 2.28863,-2.66425 4.70529,-5.48243 7.92814,-7.01341 2.74071,-0.96728 5.68119,-1.4706 8.5506,-1.67011 z M 81.896956,178.2821 c 12.813969,-0.0588 25.415794,2.53797 37.990934,4.62424 5.59796,0.69769 11.13361,1.78831 16.72949,2.49448 7.49055,1.49405 14.99555,2.99367 22.56047,3.95423 1.21084,0.44447 3.01485,1.03288 3.1642,2.52505 -0.38638,1.23388 -2.04743,1.36916 -3.11417,1.68351 -5.402,0.76162 -10.19344,-2.6222 -15.39908,-3.1734 -4.85533,-0.61245 -9.81128,-0.73532 -14.64022,-1.64872 -6.96699,-1.14206 -14.0313,-1.22004 -21.0139,-2.32999 -3.24684,-0.31508 -6.3097,-1.55952 -9.557523,-1.41028 -5.502772,-0.46612 -10.873958,-1.83102 -16.390475,-2.08717 -6.801266,-0.52869 -13.641161,-1.28315 -20.445685,-1.28956 -3.887601,0.20839 -7.775115,0.47538 -11.661305,0.72026 -1.181999,0.13598 -2.803445,0.53559 -3.681384,-0.49819 -0.08468,-1.18206 1.649696,-0.86166 2.362239,-1.21859 5.896359,-1.46774 11.95883,-2.06042 18.02471,-2.11432 5.022394,-0.1515 10.047286,-0.20479 15.071699,-0.23155 z m 228.451684,0.17294 c 3.8491,0.12353 7.76904,1.6065 11.38783,2.84889 0.89146,0.30605 0.17505,1.43861 -0.65651,1.40157 -4.66896,-0.20792 -9.29127,-0.71224 -13.96432,-0.72434 -3.04688,-0.008 -6.09593,-0.1105 -9.13984,0.025 l -6.71224,0.29891 c -9.23348,0.41119 -18.36445,1.95625 -27.54746,3.05414 -5.84355,0.69864 -11.67418,1.75755 -17.53994,2.37173 -5.24616,0.5493 -10.43478,1.53005 -15.6747,2.15095 -6.6443,0.78731 -13.14797,2.28869 -19.67749,3.74919 -1.54864,0.34639 -4.16421,0.32132 -4.56799,-1.49966 -0.37795,-1.7046 1.95129,-2.71358 3.43841,-2.91372 4.40174,-0.5924 8.77923,-1.42671 13.16543,-2.05025 7.63502,-1.08541 15.2202,-2.52569 22.77813,-4.05776 11.5348,-2.33823 22.64796,-3.79396 34.362,-4.73999 2.61373,-0.21109 6.75476,-0.13696 9.40957,-0.11038 1.70333,0.0171 17.30873,0.0791 20.93912,0.19567 z m -241.658198,8.31042 c 8.863723,0.12729 17.585806,1.93314 26.354986,3.04227 6.522332,0.95123 13.045852,2.29033 19.507682,3.33511 2.12276,0.21198 4.94486,0.12884 6.17704,2.22613 0.19694,1.5681 -1.8489,2.04518 -2.36478,3.35004 -4.95827,7.08761 -10.91791,14.18998 -19.240172,17.31445 -5.830935,1.80403 -12.466155,1.48232 -17.862659,-1.51104 -9.285668,-5.08261 -16.068912,-13.4737 -22.84677,-21.38213 -1.331044,-1.31981 -3.658259,-2.888 -2.933925,-5.07091 0.908642,-1.60646 3.150326,-0.90641 4.631587,-1.02369 2.846938,-0.34644 5.715156,-0.27193 8.577011,-0.28023 z m 225.112208,0.10446 c 6.27568,0.26263 12.64128,-0.41624 18.84789,0.72988 1.15489,0.42758 0.7195,1.88537 -0.12087,2.40149 -6.93093,8.12157 -13.30413,17.11479 -22.53754,22.82223 -5.55548,3.60957 -12.56725,5.59301 -19.08115,3.63709 -7.37087,-2.05298 -13.11469,-7.62263 -17.52434,-13.65485 -1.83863,-2.48362 -3.87809,-4.91406 -5.24605,-7.68262 0.0729,-1.39339 1.94238,-1.06574 2.87217,-1.43964 7.76791,-1.57288 15.77537,-1.93913 23.37877,-4.17984 6.13936,-1.35545 12.42165,-1.94559 18.65644,-2.61138 0.25133,-0.0146 0.50308,-0.0164 0.75468,-0.0224 z m 60.86863,14.17161 c 2.64827,0.53011 4.70474,2.60444 6.53199,4.46969 5.00143,6.2513 7.6096,14.55079 6.30639,22.531 -0.69151,5.44756 -1.28462,11.05827 -3.53997,16.12261 -2.04217,4.41673 -6.4961,7.95236 -11.52282,7.73013 -3.7204,0.0527 -7.20953,-2.00154 -9.23946,-5.07388 -3.89848,-5.52725 -4.54681,-12.49308 -5.63276,-18.97498 -0.93917,-5.7909 0.15748,-11.77243 2.73832,-17.00872 1.38231,-2.59935 2.78736,-5.38625 5.12564,-7.25551 2.28327,-1.60497 5.33757,-1.59141 7.91033,-1.56631 0.0997,-0.63049 0.70148,-1.03951 1.32234,-0.97403 z m -336.478918,0.87382 c 4.375492,0.019 7.663962,3.70168 9.386443,7.40023 2.346215,4.26707 3.812927,9.099 3.452758,14.00897 -0.141054,6.38337 -0.571837,12.94603 -2.920766,18.94705 -1.236414,2.68995 -3.079125,5.0917 -5.098111,7.2397 -2.661761,2.44355 -6.700991,2.69225 -10.072386,1.90854 -5.1830559,-1.31462 -8.4001302,-6.33945 -9.6121597,-11.2654 -1.784735,-7.74366 -2.35869992,-15.81521 -1.4768094,-23.71889 0.9134409,-5.24515 3.8455195,-10.20308 8.1647941,-13.33686 2.474544,-1.50722 5.438738,-0.98384 8.176237,-1.18334 z"
       inkscape:connector-curvature="0" />
  </g>
</svg>
