<?xml version="1.0" encoding="UTF-8" standalone="no"?>
<!-- Created with Inkscape (http://www.inkscape.org/) -->

<svg
   xmlns:dc="http://purl.org/dc/elements/1.1/"
   xmlns:cc="http://creativecommons.org/ns#"
   xmlns:rdf="http://www.w3.org/1999/02/22-rdf-syntax-ns#"
   xmlns:svg="http://www.w3.org/2000/svg"
   xmlns="http://www.w3.org/2000/svg"
   xmlns:sodipodi="http://sodipodi.sourceforge.net/DTD/sodipodi-0.dtd"
   xmlns:inkscape="http://www.inkscape.org/namespaces/inkscape"
   width="545.89319"
   height="333.36517"
   id="svg2"
   version="1.1"
   inkscape:version="0.48.2 r9819"
   sodipodi:docname="Oost-Vlaanderen.svg">
  <title
     id="title3018">Oost-Vlanderen Flag</title>
  <defs
     id="defs4" />
  <sodipodi:namedview
     id="base"
     pagecolor="#ffffff"
     bordercolor="#666666"
     borderopacity="1.0"
     inkscape:pageopacity="0.0"
     inkscape:pageshadow="2"
     inkscape:zoom="0.7"
     inkscape:cx="280.78471"
     inkscape:cy="211.46734"
     inkscape:document-units="px"
     inkscape:current-layer="layer3"
     showgrid="false"
     inkscape:window-width="1280"
     inkscape:window-height="947"
     inkscape:window-x="0"
     inkscape:window-y="24"
     inkscape:window-maximized="1"
     fit-margin-top="0.2"
     fit-margin-right="0.2"
     fit-margin-bottom="0.2"
     fit-margin-left="0.2" />
  <metadata
     id="metadata7">
    <rdf:RDF>
      <cc:Work
         rdf:about="">
        <dc:format>image/svg+xml</dc:format>
        <dc:type
           rdf:resource="http://purl.org/dc/dcmitype/StillImage" />
        <dc:title>Oost-Vlanderen Flag</dc:title>
        <dc:date>2012-07-16</dc:date>
        <dc:creator>
          <cc:Agent>
            <dc:title>Alain Thebault</dc:title>
          </cc:Agent>
        </dc:creator>
        <dc:description>Pavillon de la province Flamande Oost Vlanderen (Belgique)</dc:description>
        <cc:license
           rdf:resource="http://creativecommons.org/licenses/by-nc-sa/3.0/" />
      </cc:Work>
      <cc:License
         rdf:about="http://creativecommons.org/licenses/by-nc-sa/3.0/">
        <cc:permits
           rdf:resource="http://creativecommons.org/ns#Reproduction" />
        <cc:permits
           rdf:resource="http://creativecommons.org/ns#Distribution" />
        <cc:requires
           rdf:resource="http://creativecommons.org/ns#Notice" />
        <cc:requires
           rdf:resource="http://creativecommons.org/ns#Attribution" />
        <cc:prohibits
           rdf:resource="http://creativecommons.org/ns#CommercialUse" />
        <cc:permits
           rdf:resource="http://creativecommons.org/ns#DerivativeWorks" />
        <cc:requires
           rdf:resource="http://creativecommons.org/ns#ShareAlike" />
      </cc:License>
    </rdf:RDF>
  </metadata>
  <g
     inkscape:groupmode="layer"
     id="layer3"
     inkscape:label="fond"
     transform="translate(-98.811619,-263.59019)">
    <g
       id="g3797">
      <path
         sodipodi:nodetypes="ccccc"
         inkscape:connector-curvature="0"
         id="rect3782"
         d="m 99.011619,263.79019 545.493201,0 0,332.96518 -545.493201,0 z"
         style="fill:#00923f;fill-opacity:1;stroke:none" />
      <path
         sodipodi:nodetypes="ccccc"
         inkscape:connector-curvature="0"
         id="rect3784"
         d="m 99.011619,367.63004 545.493201,0 0,12.05357 -545.493201,0 z"
         style="fill:#ffffff;fill-opacity:1;stroke:none" />
      <path
         sodipodi:nodetypes="ccccc"
         inkscape:connector-curvature="0"
         id="rect3786"
         d="m 99.011619,480.30862 545.493201,0 0,12.05358 -545.493201,0 z"
         style="fill:#ffffff;fill-opacity:1;stroke:none" />
      <path
         sodipodi:nodetypes="ccccc"
         inkscape:connector-curvature="0"
         id="rect3788"
         d="m 99.011619,392.09433 545.493201,0 0,12.05357 -545.493201,0 z"
         style="fill:#ffffff;fill-opacity:1;stroke:none" />
      <path
         sodipodi:nodetypes="ccccc"
         inkscape:connector-curvature="0"
         id="rect3790"
         d="m 99.011619,416.91577 545.493201,0 0,50.625 -545.493201,0 z"
         style="fill:#ffffff;fill-opacity:1;stroke:none" />
    </g>
  </g>
  <g
     inkscape:groupmode="layer"
     id="layer2"
     inkscape:label="Calque"
     transform="translate(-98.811619,-263.59019)">
    <g
       id="g4119">
      <path
         inkscape:connector-curvature="0"
         id="path4083"
         d="m 351.28055,302.57646 c 0,0 10.35406,-1.2627 13.13198,1.01015 0,0 0,5.80837 -8.5863,10.6066 l -2.27284,0.75761 -5.55584,-7.82868 z"
         style="fill:#ff0000;stroke:#ffffff;stroke-width:2;stroke-linecap:butt;stroke-linejoin:miter;stroke-miterlimit:4;stroke-opacity:1;stroke-dasharray:none" />
      <path
         inkscape:connector-curvature="0"
         id="path4085"
         d="m 330.31988,293.99016 c 0,0 -1.26269,-8.83884 1.76777,-14.64721 0,0 9.84899,1.26269 11.36422,10.35406 1.51522,9.09137 -13.13199,4.29315 -13.13199,4.29315 z"
         style="fill:#ff0000;stroke:#ffffff;stroke-width:2;stroke-linecap:butt;stroke-linejoin:miter;stroke-miterlimit:4;stroke-opacity:1;stroke-dasharray:none" />
      <path
         inkscape:connector-curvature="0"
         id="path4087"
         d="m 320.72343,299.546 c 0,0 -12.6269,-1.51523 -15.9099,4.79822 0,0 2.27284,7.57615 13.38452,6.56599 11.11168,-1.01015 2.52538,-11.36421 2.52538,-11.36421 z"
         style="fill:#ff0000;stroke:#ffffff;stroke-width:2;stroke-linecap:butt;stroke-linejoin:miter;stroke-miterlimit:4;stroke-opacity:1;stroke-dasharray:none" />
      <path
         inkscape:connector-curvature="0"
         id="path4089"
         d="m 302.54069,340.70971 c 0,0 -1.76777,-10.35406 7.3236,-14.39467 9.09138,-4.04061 7.57615,10.6066 7.57615,10.6066 0,0 -6.06092,5.55584 -14.89975,3.78807 z"
         style="fill:#ff0000;stroke:#ffffff;stroke-width:2;stroke-linecap:butt;stroke-linejoin:miter;stroke-miterlimit:4;stroke-opacity:1;stroke-dasharray:none" />
      <path
         inkscape:connector-curvature="0"
         id="path4091"
         d="m 340.67395,403.08663 c 0,0 2.77792,-11.86929 8.83883,-12.37437 0,0 6.31345,5.30331 2.77792,14.64722 -3.53553,9.34391 -11.61675,-2.27285 -11.61675,-2.27285 z"
         style="fill:#ff0000;stroke:#ffffff;stroke-width:2;stroke-linecap:butt;stroke-linejoin:miter;stroke-miterlimit:4;stroke-opacity:1;stroke-dasharray:none" />
      <path
         inkscape:connector-curvature="0"
         id="path4093"
         d="m 311.37952,405.86455 c 0,0 5.55584,-7.57614 14.64721,-4.54568 9.09138,3.03045 -3.03045,14.89975 -3.03045,14.89975 0,0 -9.59645,-2.52538 -11.61676,-10.35407 z"
         style="fill:#ff0000;stroke:#ffffff;stroke-width:2;stroke-linecap:butt;stroke-linejoin:miter;stroke-miterlimit:4;stroke-opacity:1;stroke-dasharray:none" />
      <path
         inkscape:connector-curvature="0"
         id="path4095"
         d="m 321.73359,427.07776 c 0,0 -5.80838,4.54568 -3.78808,14.89975 0,0 7.82869,2.0203 13.8896,-7.82869 6.06092,-9.84898 -10.10152,-7.07106 -10.10152,-7.07106 z"
         style="fill:#ff0000;stroke:#ffffff;stroke-width:2;stroke-linecap:butt;stroke-linejoin:miter;stroke-miterlimit:4;stroke-opacity:1;stroke-dasharray:none" />
      <path
         inkscape:connector-curvature="0"
         id="path4097"
         d="m 339.15872,450.05873 c 0,0 -1.76777,7.07106 8.83883,12.87944 0,0 5.3033,-3.03046 5.55584,-13.38452 0.25254,-10.35406 -14.39467,0.50508 -14.39467,0.50508 z"
         style="fill:#ff0000;stroke:#ffffff;stroke-width:2;stroke-linecap:butt;stroke-linejoin:miter;stroke-miterlimit:4;stroke-opacity:1;stroke-dasharray:none" />
      <path
         inkscape:connector-curvature="0"
         id="path4099"
         d="m 356.58385,525.82017 c 0,0 -3.283,-8.33376 -13.38452,-8.33376 0,0 -4.04061,10.35406 1.76776,15.15229 5.80838,4.79822 11.61676,-6.81853 11.61676,-6.81853 z"
         style="fill:#ff0000;stroke:#ffffff;stroke-width:2;stroke-linecap:butt;stroke-linejoin:miter;stroke-miterlimit:4;stroke-opacity:1;stroke-dasharray:none" />
      <path
         inkscape:connector-curvature="0"
         id="path4101"
         d="m 331.58257,532.6387 c 0,0 -8.08122,-3.78807 -14.39467,4.54568 0,0 1.76777,7.82869 12.12183,7.57615 10.35406,-0.25254 2.27284,-12.12183 2.27284,-12.12183 z"
         style="fill:#ff0000;stroke:#ffffff;stroke-width:2;stroke-linecap:butt;stroke-linejoin:miter;stroke-miterlimit:4;stroke-opacity:1;stroke-dasharray:none" />
      <path
         inkscape:connector-curvature="0"
         id="path4103"
         d="m 332.59273,558.14505 c 0,0 -3.78808,7.32361 4.29314,14.89975 0,0 7.32361,-2.02031 8.83884,-11.36422 1.51523,-9.34391 -13.13198,-3.53553 -13.13198,-3.53553 z"
         style="fill:#ff0000;stroke:#ffffff;stroke-width:2;stroke-linecap:butt;stroke-linejoin:miter;stroke-miterlimit:4;stroke-opacity:1;stroke-dasharray:none" />
      <path
         inkscape:connector-curvature="0"
         id="path4105"
         d="m 353.80593,562.69074 c 0,0 -0.50508,9.34391 7.82868,13.88959 0,0 5.05076,-4.54568 6.06092,-13.88959 1.01015,-9.34392 -13.8896,0 -13.8896,0 z"
         style="fill:#ff0000;stroke:#ffffff;stroke-width:2;stroke-linecap:butt;stroke-linejoin:miter;stroke-miterlimit:4;stroke-opacity:1;stroke-dasharray:none" />
      <path
         inkscape:connector-curvature="0"
         id="path4107"
         d="m 513.15749,528.09301 c 0,0 -8.08122,-4.54569 -14.39467,-0.75761 0,0 0.25254,7.07106 7.57614,10.35406 7.32361,3.283 6.81853,-9.59645 6.81853,-9.59645 z"
         style="fill:#ff0000;stroke:#ffffff;stroke-width:2;stroke-linecap:butt;stroke-linejoin:miter;stroke-miterlimit:4;stroke-opacity:1;stroke-dasharray:none" />
      <path
         inkscape:connector-curvature="0"
         id="path4109"
         d="m 488.40876,548.04352 c 0,0 -7.32361,2.77792 -4.29315,15.65737 0,0 6.56599,1.76777 13.38452,-8.08122 6.81853,-9.84899 -9.09137,-7.57615 -9.09137,-7.57615 z"
         style="fill:#ff0000;stroke:#ffffff;stroke-width:2;stroke-linecap:butt;stroke-linejoin:miter;stroke-miterlimit:4;stroke-opacity:1;stroke-dasharray:none" />
      <path
         inkscape:connector-curvature="0"
         id="path4111"
         d="m 502.29835,566.47881 c 0,0 -3.78807,8.08122 3.283,15.9099 0,0 8.08122,-3.53553 9.34391,-13.13198 1.26269,-9.59645 -12.62691,-2.77792 -12.62691,-2.77792 z"
         style="fill:#ff0000;stroke:#ffffff;stroke-width:2;stroke-linecap:butt;stroke-linejoin:miter;stroke-miterlimit:4;stroke-opacity:1;stroke-dasharray:none" />
      <path
         inkscape:connector-curvature="0"
         id="path4113"
         d="m 535.88593,560.16535 c 0,0 1.76776,6.81853 11.11167,6.566 0,0 5.80838,-7.32361 0.75762,-14.39468 -5.05076,-7.07107 -11.11168,4.79823 -11.11168,4.79823 z"
         style="fill:#ff0000;stroke:#ffffff;stroke-width:2;stroke-linecap:butt;stroke-linejoin:miter;stroke-miterlimit:4;stroke-opacity:1;stroke-dasharray:none" />
      <path
         inkscape:connector-curvature="0"
         id="path4062"
         d="m 386.38335,344.49779 -9.09137,-14.64722 -31.81981,-1.76776 c 0,0 -7.07107,-3.53554 -6.06091,-8.33376 1.01015,-4.79823 2.27284,-5.55584 3.53553,-3.78807 1.26269,1.76776 10.10152,6.31345 14.14214,-1.51523 0,0 -5.80838,-3.283 -3.53554,-11.86929 0,0 -0.25254,-4.54569 -4.29315,-3.78808 -4.04061,0.75762 -4.79822,2.02031 -6.56599,4.04061 -1.76777,2.02031 -2.27284,2.02031 -2.52538,0.50508 -0.25254,-1.51523 0.50508,-3.283 3.03046,-4.29315 2.52538,-1.01015 8.33376,-7.57614 1.76776,-13.13198 0,0 -11.61675,10.35406 -18.18274,1.76776 0,0 -3.53554,1.51523 -2.27284,5.05077 1.26269,3.53553 2.52538,6.56599 4.79822,7.82868 2.27284,1.26269 2.52538,2.77792 1.01015,2.77792 -1.51523,0 -6.06091,-12.87945 -13.63706,-8.33376 0,0 3.283,9.59645 -1.76776,17.93021 0,0 1.26269,4.29315 9.59645,1.26269 0,0 -7.82869,1.51523 -6.81853,3.283 1.01015,1.76776 3.28299,4.29314 3.28299,4.29314 0,0 -10.85914,-3.28299 -16.41498,3.78808 0,0 11.11168,4.79822 9.09138,12.87944 0,0 2.27284,3.78807 5.05076,2.52538 2.77792,-1.26269 4.54568,-3.28299 5.05076,-5.05076 0.50508,-1.76777 3.03046,0.75761 3.03046,0.75761 0,0 6.81853,8.83884 11.36421,10.60661 0,0 -6.06091,0.25253 -9.34391,-3.03046 0,0 1.76777,5.80837 11.36422,12.12183 0,0 -1.26269,4.29315 0.75761,7.07107 0,0 4.79823,-3.53554 7.07107,-0.50508 0,0 -0.25254,7.57614 4.29315,9.34391 0,0 -1.51523,-6.06091 3.53553,-6.56599 0,0 -0.50507,4.54569 3.78808,7.82868 4.29314,3.283 26.76904,-29.04188 26.76904,-29.04188 z"
         style="fill:#000000;stroke:#ffffff;stroke-width:2;stroke-linecap:butt;stroke-linejoin:miter;stroke-miterlimit:4;stroke-opacity:1;stroke-dasharray:none" />
      <path
         sodipodi:nodetypes="csscsscscssssccssscccssssscsccssccscsccscccccsccssscscssssscccssscscsssssccsssssccscccccccsccscscccssscccccccsssccssssccccssssccssscsccscsscscsccccsccccssccsssccccssccccccccccsccsscscccssssccsssssssssccc"
         inkscape:connector-curvature="0"
         id="path4060"
         d="m 463.66002,399.5511 c 0,0 12.62691,-1.51523 14.14213,6.06091 1.51523,7.57615 5.30331,8.5863 7.07107,9.09138 1.76777,0.50507 19.95052,9.34391 24.74874,22.98097 0,0 7.32361,0.75761 9.09137,2.77792 1.76777,2.0203 9.59645,1.51523 11.8693,-2.52538 2.27284,-4.04061 -3.283,-10.60661 -1.76777,-4.29315 0,0 -5.80838,1.51523 -5.3033,-2.52538 0.50507,-4.04061 0.50507,-4.04061 2.52538,-4.79823 0,0 -7.57615,-9.34391 -7.32361,-18.18274 0.25254,-8.83884 -0.50507,-13.38453 6.06092,-23.99113 6.56599,-10.6066 8.33376,-41.92133 8.33376,-46.97209 0,-5.05076 0.75761,-41.66879 -11.11168,-40.91118 -11.86929,0.75762 -10.10153,16.16244 -10.10153,16.16244 0,0 -0.50507,8.5863 2.52538,27.27412 0,0 0.25254,4.54569 2.02031,6.31345 1.76777,1.76777 6.06091,6.81853 5.3033,15.15229 -0.75761,8.33376 0,9.34391 -6.81853,25.00128 -6.81853,15.65736 0,26.01143 0,26.01143 0,0 -8.33376,-5.80838 -8.5863,-15.15229 0,0 -4.54568,12.12183 10.10153,25.50635 0,0 -17.67767,-3.03046 -19.44544,-20.96067 -1.76776,-17.9302 9.59645,-27.02158 10.10153,-45.45686 0.50507,-18.43528 -2.27284,-40.15356 -2.27284,-42.93148 0,-2.77792 -0.25254,-24.4962 13.88959,-25.00128 14.14214,-0.50508 15.90991,0.25254 16.41498,3.78807 0.50508,3.53554 4.54569,18.43529 4.79823,60.86169 0,0 0,14.89975 -8.08122,32.57742 -8.08122,17.67767 -7.32361,19.44544 -2.52539,31.31473 0,0 -1.01015,-6.81853 1.51523,-10.6066 0,0 2.77792,8.08122 6.81853,12.12183 4.04061,4.04061 6.81853,8.08122 6.56599,15.15229 -0.25253,7.07107 -2.77792,14.39467 -15.9099,15.65736 0,0 -1.51523,5.80838 -10.35406,3.283 0,0 2.77792,-1.26269 1.76777,-4.04061 -1.01016,-2.77792 -3.78808,-2.02031 -3.78808,-2.02031 0,0 -3.28299,-1.01015 -3.53553,2.52539 -0.25254,3.53553 -1.01015,15.15228 -11.86929,23.2335 0,0 -0.25254,11.61676 -1.76777,15.90991 0,0 15.15229,-14.39468 25.75889,-14.14214 10.6066,0.25254 11.61675,-6.06091 11.61675,-6.06091 0,0 4.04061,5.3033 0.50508,11.61675 0,0 4.04061,-0.75761 3.53553,-6.06091 0,0 5.80838,4.54568 1.51523,14.64721 0,0 2.27285,-1.26269 2.77792,-4.04061 0,0 7.07107,5.3033 6.06092,17.9302 -1.01015,12.62691 -2.77792,31.81981 5.3033,32.82996 0,0 -1.01015,4.79823 -6.31345,2.27285 0,0 0.25253,6.06091 -6.81853,6.06091 -7.07107,0 -3.03046,3.283 -1.51523,3.03046 1.51523,-0.25254 8.08122,1.01015 8.58629,4.79822 0.50508,3.78808 -2.52538,3.03046 -2.52538,3.03046 0,0 -7.82868,-0.75761 -7.82868,5.3033 0,6.06092 0.50508,6.81853 0.50508,6.81853 0,0 -2.02031,1.26269 -4.04061,1.01015 -2.02031,-0.25253 -6.566,-2.0203 -5.3033,-5.55583 1.26269,-3.53554 4.54568,-6.566 2.77791,-7.57615 -1.76776,-1.01015 -3.53553,-1.51523 -3.78807,0.25254 -0.25254,1.76777 -0.25254,5.80838 -2.52538,7.07107 -2.27284,1.26269 -6.81853,-2.77792 -6.81853,-2.77792 0,0 4.04061,10.85914 -3.28299,14.14213 0,0 -6.566,-4.04061 -15.90991,-2.77792 0,0 -4.29315,-2.0203 -2.77792,-6.31345 1.51523,-4.29315 4.54569,-6.81853 6.31346,-5.80838 1.76776,1.01016 2.0203,-0.25254 1.26269,-1.26269 -0.75762,-1.01015 -2.02031,-1.51523 -2.52538,-0.50507 -0.50508,1.01015 -2.02031,4.54568 -3.283,4.54568 -1.26269,0 -14.14214,-12.6269 -14.14214,-12.6269 0,0 0.25254,-4.29315 3.78808,-5.80838 3.53553,-1.51523 9.84898,-0.25254 10.6066,1.26269 0.75761,1.51523 2.52538,4.79822 4.29315,4.54569 1.76776,-0.25254 5.55584,1.01015 2.77792,-1.51523 -2.77792,-2.52538 -6.31346,-3.03046 -6.566,-5.80838 -0.25253,-2.77792 0.50508,-4.54569 0.50508,-4.54569 0,0 6.81853,2.02031 8.08122,-7.3236 0,0 1.01015,-3.78807 4.79823,-3.03046 3.78807,0.75761 7.57614,2.77792 7.07106,6.06091 -0.50507,3.283 -0.25253,3.53554 -2.77792,5.55584 -2.52538,2.02031 0,5.55584 4.54569,4.79823 4.54569,-0.75762 6.06092,-2.77792 7.32361,-7.07107 1.26269,-4.29315 -11.8693,-16.16244 -12.37437,-23.99112 0,0 0.25254,3.78807 -2.77792,6.56599 0,0 -1.26269,-3.53553 -3.283,-3.53553 -2.0203,0 -4.04061,2.77791 -4.04061,2.77791 l -11.86929,16.16245 c 0,0 -13.38452,2.27284 -15.15229,11.11167 0,0 -1.26269,-7.07106 -4.04061,-8.58629 0,0 3.53554,9.84898 -6.31345,14.89975 0,0 0.25254,-5.05077 -4.04061,-7.82869 0,0 1.76777,15.40483 -8.33376,21.97082 0,0 0.50508,-9.59645 -3.283,-11.11168 -3.78807,-1.51522 -12.6269,-9.34391 -15.40482,-18.18274 0,0 -2.52538,1.26269 -6.81853,0.75761 0,0 4.54568,-3.53553 3.53553,-15.15228 -1.01015,-11.61676 4.79823,-36.61803 24.4962,-48.73987 0,0 1.51523,-0.75761 0.50508,-3.78807 -1.01016,-3.03045 -2.52538,-2.52538 -2.52538,-2.52538 0,0 -3.283,13.13198 -17.93021,10.10153 l -0.75762,-3.03046 c 0,0 -2.27284,3.03046 -3.53553,6.06091 -1.26269,3.03046 -4.54569,7.07107 -10.85914,11.11168 -6.31345,4.04061 -11.11168,5.3033 -12.87944,8.83884 -1.76777,3.53553 -1.51523,6.06091 -1.51523,6.06091 0,0 1.26269,11.61676 -6.31346,25.25382 0,0 -2.0203,4.54568 -1.76776,16.92005 0,0 -0.50508,-5.05076 -5.80838,-6.81853 0,0 1.51523,4.54569 -0.75762,8.83884 0,0 -1.01015,-3.53554 -2.77792,-3.53554 0,0 -5.80837,12.62691 -14.64721,17.1726 0,0 -1.01015,-6.31346 -5.55584,-9.09138 -4.54568,-2.77792 -4.54568,-1.01015 -2.0203,1.01016 2.52538,2.0203 6.56599,5.55583 2.77792,9.09137 -3.78807,3.53553 -5.05076,5.05076 -5.05076,5.05076 0,0 -4.04061,-10.35406 -15.65737,-2.52538 0,0 -4.29315,1.76777 -2.27284,-4.04061 2.0203,-5.80838 2.27284,-6.31345 4.79822,-7.82868 2.52538,-1.51523 1.26269,-3.283 0.25254,-2.77792 -1.01015,0.50507 -1.76777,2.77792 -3.53553,2.0203 -1.76777,-0.75761 -3.03046,-1.01015 -3.03046,-1.01015 0,0 2.52538,6.56599 1.01015,11.86929 l -6.56599,0.50508 c 0,0 -1.76777,-7.82868 -13.8896,-3.283 0,0 -3.28299,-4.04061 1.01016,-8.08122 4.29314,-4.04061 2.77791,-3.28299 5.80837,-4.54568 3.03046,-1.26269 1.76777,-2.52539 0,-1.26269 -1.76776,1.26269 -4.29315,3.53553 -7.3236,2.27284 -3.03046,-1.26269 -3.03046,-3.78807 -3.283,-5.3033 0,0 5.55584,-4.79823 1.51523,-12.87945 0,0 1.01015,-3.53553 4.54569,-3.03045 3.53553,0.50507 6.31345,0.50507 8.08122,4.04061 1.76776,3.53553 2.77792,2.0203 3.03045,5.05076 0.25254,3.03046 5.3033,3.03046 5.3033,3.03046 0,0 0.75762,-2.02031 -0.75761,-1.76777 -1.51523,0.25254 -6.56599,-0.50508 -6.31345,-10.10153 0,0 8.58629,3.53554 12.37437,-5.80837 0,0 4.29314,-2.02031 6.81853,2.27284 2.52538,4.29315 -1.76777,11.36422 -1.76777,11.36422 0,0 -1.76777,3.03045 0.25254,1.51522 2.0203,-1.51522 1.76776,-3.28299 4.54568,-2.77791 2.77792,0.50507 3.03046,4.79822 3.03046,4.79822 0,0 0.75762,1.76777 3.53553,-0.25254 2.77792,-2.0203 4.04061,-1.76777 6.06092,-5.55584 0,0 1.26269,-2.0203 -0.75761,-5.05076 -2.02031,-3.03046 -2.27285,-11.61675 -2.27285,-11.61675 0,0 -1.76776,2.52538 -4.54568,2.77792 0,0 0.75761,-8.08123 -1.76777,-15.90991 0,0 -7.32361,7.82868 -19.44544,8.08122 0,0 4.04061,-4.54568 4.29315,-9.34391 0.25254,-4.79822 -3.03046,-15.65736 4.79823,-24.24366 0,0 -12.37437,-6.31345 0,-18.43528 0,0 0.25253,10.10152 5.55583,7.07106 0,0 -3.53553,-5.3033 -0.75761,-9.09137 0,0 1.51523,7.07107 6.06092,5.3033 4.54568,-1.76776 3.78807,-4.29315 10.10152,-8.33376 6.31345,-4.04061 11.61675,-8.08122 25.00128,-11.36421 0,0 6.06091,-1.51523 22.22335,0 0,0 1.76777,1.26269 2.52538,-0.75762 0.75762,-2.0203 -0.25253,-4.29314 6.81853,-4.54568 7.07107,-0.25254 19.95052,1.01015 22.98097,5.05076 3.03046,4.04061 4.54569,5.3033 4.29315,8.33376 0,0 -1.26269,-10.10153 -5.55584,-16.16244 0,0 8.08122,1.01015 14.39468,17.42513 0,0 -2.77792,-20.20305 -22.22336,-22.98097 0,0 -1.76777,-0.50508 -4.04061,1.01015 -2.27284,1.51523 -2.52538,1.76777 -6.81853,2.02031 -4.29315,0.25253 -25.50635,-9.59645 -25.50635,-9.59645 0,0 -6.06092,4.04061 1.26269,6.56599 0,0 -3.03046,6.06091 -15.65736,-0.75762 0,0 -1.01016,4.04061 4.04061,4.29315 0,0 -2.27285,5.55584 -10.35407,1.76777 0,0 -3.53553,0.50508 -2.77792,5.80838 0,0 -5.05076,1.26269 -6.56599,-3.53554 0,0 -2.77792,4.79823 -14.14213,3.03046 0,0 3.53553,-1.01015 6.81852,-7.07107 0,0 -7.07106,5.3033 -18.18274,6.31346 0,0 -1.26269,0 -0.25254,2.52538 1.01015,2.52538 2.02031,7.07106 -3.283,9.59645 0,0 -5.55583,-5.55584 -13.38452,1.01015 0,0 -3.78807,1.01015 -3.78807,-1.26269 0,-2.27285 -0.25254,-8.83884 1.51523,-10.35407 1.76777,-1.51522 5.05076,-4.54568 5.05076,-4.54568 0,0 -0.75761,-1.76777 -2.77792,-0.25254 -2.0203,1.51523 -4.04061,-0.25254 -4.04061,-0.25254 0,0 2.77792,-3.28299 2.27285,-7.57614 0,0 -1.76777,6.81853 -6.06092,9.09137 0,0 -2.0203,-8.5863 -12.12183,-9.09137 -10.10152,-0.50508 2.27284,-8.5863 4.04061,-9.09138 1.76777,-0.50507 5.80838,1.2627 6.31345,-0.25253 0.50508,-1.51523 1.76777,-1.76777 -0.25253,-1.76777 -2.02031,0 -11.61676,4.79822 -13.63706,-2.77792 0,0 10.35406,-3.78807 7.07106,-15.65736 0,0 -0.75761,-1.26269 1.51523,-1.76777 2.27285,-0.50508 9.59645,-0.50508 9.84899,5.3033 0.25254,5.80838 0,7.57614 2.02031,7.82868 2.0203,0.25254 2.27284,-1.51523 1.26269,-2.77792 -1.01016,-1.26269 -2.02031,-9.84898 2.0203,-9.84898 4.04061,0 5.05076,4.79822 12.87945,3.28299 7.82868,-1.51523 2.52538,11.61676 -2.27285,12.62691 -4.79822,1.01015 -3.53553,4.04061 -0.75761,5.80837 2.77792,1.76777 7.57614,2.27285 10.10152,-1.01015 2.52539,-3.28299 13.8896,-19.1929 13.8896,-19.1929 l 10.6066,-3.78807 z"
         style="fill:#000000;stroke:#ffffff;stroke-width:2;stroke-linecap:butt;stroke-linejoin:miter;stroke-miterlimit:4;stroke-opacity:1;stroke-dasharray:none" />
      <path
         inkscape:connector-curvature="0"
         id="path4058"
         d="m 371.73614,303.08153 c 0,0 23.48604,-10.6066 32.32488,-2.52538 8.83883,8.08122 18.18274,16.66752 28.53681,16.41498 10.35406,-0.25254 13.8896,2.27284 14.89975,4.04061 1.01015,1.76777 3.03046,5.55584 3.03046,5.55584 l -3.78808,2.0203 c 0,0 -4.79822,-7.3236 -9.84898,-7.07106 -5.05077,0.25253 -12.87945,3.53553 -18.68783,3.03045 -5.80837,-0.50507 -12.6269,-1.01015 -22.47589,-12.87944 -9.84899,-11.86929 -23.99112,-8.5863 -23.99112,-8.5863 z"
         style="fill:#ff0000;stroke:#ffffff;stroke-width:2;stroke-linecap:butt;stroke-linejoin:miter;stroke-miterlimit:4;stroke-opacity:1;stroke-dasharray:none" />
      <path
         inkscape:connector-curvature="0"
         id="path3276"
         d="m 485,293.79075 c 0,0 6.78572,-6.07143 12.14286,-3.57143 0,0 6.07143,46.78572 -7.5,76.78572 0,0 -3.21429,7.5 2.5,7.5 0,0 -2.14286,6.42857 -9.28572,6.78571 0,0 -0.35714,2.85715 2.14286,3.92857 0,0 -0.71428,5.35715 -10.35714,6.07143 0,0 0.35714,4.28572 2.14286,5.35715 0,0 -1.42858,3.92857 -14.64286,2.85714 0,0 -1.78572,4.64286 0.35714,7.5 0,0 -6.42857,1.78571 -9.28571,-1.42857 0,0 -3.21429,0.35714 -6.42858,8.21428 0,0 -6.42857,-1.07143 -10.71428,-3.92857 0,0 -3.92857,2.14286 -5.71429,7.85714 0,0 -8.21428,-2.5 -13.21428,-7.5 0,0 -3.92857,1.78572 -2.85715,7.14286 0,0 -6.42857,-0.35714 -10.71428,-6.78571 0,0 -8.21429,0.35714 -10.71429,4.28571 0,0 -6.42857,-2.14286 -6.07143,-10.71428 0,0 -5,0.35714 -9.28571,5.71428 0,0 -3.57143,-3.57143 -3.92857,-12.85714 0,0 -3.57143,-3.92857 -7.5,2.14286 0,0 -5.71429,-4.28572 -3.21429,-15.35715 0,0 -5.35714,-1.07143 -7.5,2.14286 0,0 -3.21428,-15 8.92857,-22.14286 0,0 -1.07142,-2.5 -2.85714,-1.07143 0,0 0.35714,-12.85714 13.21429,-13.57142 0,0 -2.5,-3.92858 -0.71429,-9.28572 0,0 8.57143,3.21429 17.5,-1.78571 8.92857,-5 25,-10.71429 35,-5.71429 10,5 9.28572,5 9.28572,5 0,0 -7.14286,-8.21428 0,-15 0,0 2.85714,0.35714 2.85714,1.78572 0,1.42857 -0.71429,8.21428 3.57143,7.5 4.28571,-0.71429 6.42857,-5.35715 6.07143,-10.71429 -0.35715,-5.35714 -1.78572,-12.5 -4.64286,-12.5 -2.85714,0 -2.85714,2.85714 -3.57143,5.35714 -0.71429,2.5 -4.28571,2.14286 -4.28571,2.14286 l -0.35715,-3.92857 c 0,0 -5.71428,-3.21429 -5.71428,-6.78572 0,-3.57142 2.14285,-7.5 2.14285,-7.5 0,0 -5,-0.71428 -3.92857,-3.21428 1.07143,-2.5 1.78572,-3.92857 5.35715,-3.57143 3.57142,0.35714 5.71428,-0.71429 5.71428,-0.71429 l 8.92857,-0.35714 c 0,0 -1.42857,-6.07143 3.57143,-5.71428 5,0.35714 18.92857,0.71428 18.92857,0.71428 0,0 11.07143,0.71428 14.64286,8.92857 z"
         style="fill:#000000;stroke:#ffffff;stroke-width:2;stroke-linecap:butt;stroke-linejoin:miter;stroke-miterlimit:4;stroke-opacity:1;stroke-dasharray:none" />
      <path
         inkscape:connector-curvature="0"
         id="path3278"
         d="m 448.21429,289.86218 c 0,0 5.35714,3.57143 8.21428,2.5 2.85715,-1.07143 8.92857,-1.78571 8.21429,6.78572 0,0 -3.57143,1.42857 -3.57143,-1.42858 0,-2.85714 -5.71429,-1.42857 -6.78571,-2.85714 -1.07143,-1.42857 -6.07143,-5 -6.07143,-5 z"
         style="fill:#ffffff;stroke:none" />
      <path
         inkscape:connector-curvature="0"
         id="path3280"
         d="m 459.28572,305.93361 c 0,0 -8.57143,-1.42857 -6.07143,5 2.5,6.42857 6.78571,23.21429 3.21428,24.28571 -3.57143,1.07143 -13.57143,-0.35714 -15.71428,1.07143 -2.14286,1.42857 -5,1.42857 -5,1.42857 0,0 4.28571,2.85715 11.78571,2.5 7.5,-0.35714 14.28572,-1.07142 14.28572,-5 0,-3.92857 0,-12.14285 -2.85715,-15.35714 -2.85714,-3.21428 -2.5,-14.28571 0.35715,-13.92857 z"
         style="fill:#ffffff;stroke:none" />
      <path
         inkscape:connector-curvature="0"
         id="path3282"
         d="m 494.28572,298.07647 c 0,0 -4.28572,5 -9.64286,6.78571 -5.35714,1.78572 6.78571,3.21429 9.64286,-6.78571 z"
         style="fill:#ffffff;stroke:none" />
      <path
         inkscape:connector-curvature="0"
         id="path3284"
         d="m 497.32143,297.00504 c 0,0 -1.60714,6.96428 -5.53571,11.07143 -3.92858,4.10714 7.67857,-0.89286 5.53571,-11.07143 z"
         style="fill:#ffffff;stroke:none" />
      <path
         inkscape:connector-curvature="0"
         id="path4054"
         d="m 392.19173,346.77063 c 0,0 6.06091,1.51523 2.52538,4.29315 -3.53554,2.77792 -9.34391,5.3033 -9.34391,13.38452 0,0 7.07106,-8.33376 13.63706,-11.61676 6.56599,-3.28299 4.79822,-5.80837 2.27284,-6.06091 -2.52538,-0.25254 -5.80837,-2.27284 -9.09137,0 z"
         style="fill:#ffffff;stroke:none" />
      <path
         inkscape:connector-curvature="0"
         id="path4056"
         d="m 406.33386,386.41912 c 0,0 7.57615,-9.34391 8.5863,-12.87945 1.01015,-3.53553 3.28299,7.07107 2.27284,9.59645 -1.01015,2.52538 7.57615,-10.35406 8.83884,-16.41498 1.26269,-6.06091 4.04061,6.31346 4.04061,7.57615 0,1.26269 3.28299,-6.06092 1.51523,-17.67767 0,0 31.06219,1.26269 47.98224,-20.96067 0,0 -7.07107,25.00128 -43.6891,23.99112 0,0 2.27285,15.65737 -6.81853,21.97082 l -2.52538,-5.80838 c 0,0 -4.79822,12.62691 -13.63706,14.89975 0,0 1.26269,-8.33375 0.25254,-10.35406 -1.01015,-2.0203 1.51523,2.27285 -6.81853,6.06092 z"
         style="fill:#ffffff;stroke:none" />
      <path
         inkscape:connector-curvature="0"
         id="path4115"
         d="m 500.78312,471.52447 c 0,0 -5.3033,4.29315 -11.36421,5.80838 0,0 -7.32361,29.54696 -12.62691,39.39594 0,0 12.62691,-20.96066 15.15229,-37.37564 0,0 2.77791,-0.25253 8.83883,-7.82868 z"
         style="fill:#ffffff;stroke:none" />
      <path
         sodipodi:nodetypes="cc"
         inkscape:connector-curvature="0"
         id="path4117"
         d="m 460.37702,447.78589 c 0,0 5.05077,11.11167 -6.56599,25.50635"
         style="fill:none;stroke:#ffffff;stroke-width:2;stroke-linecap:butt;stroke-linejoin:miter;stroke-miterlimit:4;stroke-opacity:1;stroke-dasharray:none" />
    </g>
  </g>
</svg>
