<?xml version="1.0"?>
<svg width="1020" height="510" viewBox="0 0 270 135" xmlns="http://www.w3.org/2000/svg">
<rect width="270" height="135" fill="#002b7f"/>
<rect width="135" height="90" fill="#ce1126"/>
<g fill="#fff">
<path d="m49.63 5.7a35.53 35.53 0 0 0-35.53 35.53 35.53 35.53 0 0 0 35.53 35.53 35.53 35.53 0 0 0 22.409-8 29.743 29.743 0 0 1-13.749 3.3843 29.743 29.743 0 0 1-29.742-29.743 29.743 29.743 0 0 1 29.742-29.743 29.743 29.743 0 0 1 20.32 8.0734 35.53 35.53 0 0 0-29-15z"/>
<path transform="matrix(.70101 -.69463 .69463 .70101 62.81 -363.37)" d="m-258.38 343.7-17.724-17.256-19.676 14.992 10.935-22.188-20.338-14.08 24.481 3.5428 7.1065-23.694 4.1958 24.378 24.73-0.56309-21.888 11.524z"/>
</g>
</svg>
