<?xml version="1.0" encoding="UTF-8" standalone="no"?>
<svg
   xmlns:dc="http://purl.org/dc/elements/1.1/"
   xmlns:cc="http://creativecommons.org/ns#"
   xmlns:rdf="http://www.w3.org/1999/02/22-rdf-syntax-ns#"
   xmlns:svg="http://www.w3.org/2000/svg"
   xmlns="http://www.w3.org/2000/svg"
   version="1.1"
   width="188"
   height="125"
   id="svg3039">
  <metadata
     id="metadata3045">
    <rdf:RDF>
      <cc:Work
         rdf:about="">
        <dc:format>image/svg+xml</dc:format>
        <dc:type
           rdf:resource="http://purl.org/dc/dcmitype/StillImage" />
        <dc:title></dc:title>
      </cc:Work>
    </rdf:RDF>
  </metadata>
  <defs
     id="defs3043" />
  <g
     id="g3057">
    <path
       d="M 0,62.5 0,0 l 94,0 94,0 0,62.5 0,62.5 -94,0 -94,0 0,-62.5 z"
       id="path3063"
       style="fill:#f8f8fe" />
    <path
       d="m 190.0643,138.95496 3.04701,-89.797538 -197.6597443,-0.709626 0.121351,86.708454 z"
       id="path3061"
       style="fill:#fafa03" />
    <path
       d="M 18.065104,125.00986 93.896514,74.677674 169.4,125 z M 0,0 l 188,0 0,113 -0.59609,0 L 94.00891,52 0.60344584,113 0,113 z M 99.529004,39.5 111,38.900192 105.78561,29.077648 111,19.374047 100.41335,19 94,9.0396883 87.586647,19 77,19.374047 82.214387,29.077648 77,38.900192 88.470996,39.5 94,48 z"
       id="path3059"
       style="fill:#0101fd" />
  </g>
</svg>
