<?xml version="1.0" encoding="utf-8"?>
<!DOCTYPE svg PUBLIC "-//W3C//DTD SVG 1.1//EN" "http://www.w3.org/Graphics/SVG/1.1/DTD/svg11.dtd">
<svg version="1.1" xmlns="http://www.w3.org/2000/svg" xmlns:xlink="http://www.w3.org/1999/xlink" x="0px" y="0px" width="361px" height="217px" viewBox="0 0 361 217" enable-background="new 0 0 361 217" xml:space="preserve">
<defs></defs>
<rect fill="#000099" width="361" height="217"/>
<rect y="31" fill="#FFFFFF" width="361" height="31"/>
<rect y="155" fill="#FFFFFF" width="361" height="31"/>
<rect y="93.11" fill="#FFFFFF" width="361" height="31"/>
<circle fill="#FF0000" cx="180.5" cy="108.5" r="77.5"/>
<polygon fill="#FFFFFF" points="215.604,73.396 217.652,86.329 223.599,74.663 236.53,76.711 227.272,67.452 233.216,55.784 221.549,61.729 212.29,52.469 214.34,65.403 202.672,71.347 "/>
<polygon fill="#FFFFFF" points="242.598,104.454 242.599,91.359 234.902,101.953 222.448,97.906 230.146,108.5 222.448,119.094 234.902,115.049 242.598,125.642 242.599,112.548 255.052,108.5 "/>
<polygon fill="#FFFFFF" points="223.598,142.339 217.652,130.671 215.604,143.604 202.671,145.652 214.338,151.599 212.289,164.53 221.548,155.272 233.216,161.216 227.271,149.549 236.53,140.29 "/>
<polygon fill="#FFFFFF" points="191.094,150.448 180.5,158.146 169.906,150.448 173.952,162.902 163.359,170.598 176.452,170.599 180.5,183.052 184.546,170.598 197.641,170.599 187.047,162.902 "/>
<polygon fill="#FFFFFF" points="145.396,143.604 143.347,130.671 137.402,142.338 124.47,140.289 133.728,149.548 127.784,161.216 139.451,155.271 148.71,164.53 146.661,151.598 158.329,145.652 "/>
<polygon fill="#FFFFFF" points="126.098,115.047 138.552,119.094 130.854,108.5 138.552,97.906 126.098,101.952 118.402,91.359 118.402,104.452 105.948,108.5 118.402,112.546 118.402,125.641 "/>
<polygon fill="#FFFFFF" points="148.71,52.47 139.452,61.729 127.784,55.784 133.729,67.451 124.47,76.71 137.402,74.661 143.347,86.329 145.396,73.396 158.329,71.347 146.662,65.402 "/>
<polygon fill="#FFFFFF" points="180.5,33.948 176.454,46.402 163.359,46.402 173.953,54.098 169.906,66.552 180.5,58.854 191.094,66.552 187.048,54.098 197.641,46.402 184.547,46.402 "/>
</svg>