<?xml version="1.0" encoding="utf-8"?>
<!-- Generator: Adobe Illustrator 12.0.0, SVG Export Plug-In . SVG Version: 6.00 Build 51448)  -->
<!DOCTYPE svg PUBLIC "-//W3C//DTD SVG 1.1//EN" "http://www.w3.org/Graphics/SVG/1.1/DTD/svg11.dtd" [
	<!ENTITY ns_svg "http://www.w3.org/2000/svg">
	<!ENTITY ns_xlink "http://www.w3.org/1999/xlink">
]>
<svg  version="1.1" id="Flag_of_RSFSR_1918" xmlns="&ns_svg;" xmlns:xlink="&ns_xlink;" width="600" height="300" viewBox="0 0 600 300"
	 overflow="visible" enable-background="new 0 0 600 300" xml:space="preserve">
<rect fill="#CC0000" width="600" height="300"/>
<g id="_148271888">
	<g id="XMLID_1_">
		<g>
			<path fill="#FFD700" d="M216.27,20.84l0.16,47.13c-12.6,6.8-23.63,16.59-33.16,29.03l-0.05,28.79h-12.97v-19.38V95.66V20.84
				H216.27z M202.44,68.61v-40.9l-19.38,0.06c0,19.3,0,38.6,0,57.9C189.52,78.25,195.98,72.06,202.44,68.61z"/>
			<path fill="#FFD700" d="M167.57,95.66c-4.44,0-9.02,0-13.45,0c-0.02-3.01-0.04-6.01-0.06-9.01c0.39-9.31-11.17-11.42-13.38,0
				c-0.71,3.67-0.45,6.69,0,9.81c1.57,2.55,3.14,5.11,4.7,7.66c2.3,4.74,2.16,9.37,0.74,13.19l-2.88-0.66
				c0.93-2.22,0.39-5.07-4.11-9.37c-4-3.22-8.44-6.12-10.14-10.14c-1.22-2.9-1.76-8.41,0-11.83c2.13-4.14,7.91-11.72,18.26-11.66
				C162.23,73.73,167.48,86.36,167.57,95.66z"/>
			<path fill="#FFD700" d="M155.33,106.41c3.94,0,8.25,0,12.19,0c-1.25,8.74-7.13,14.29-8.42,15.05c-7.9,4.63-15.77,6.82-23.66,0
				c-5.13-4.04-3.76-8.77-1.61-9.95c7.9-4.32,8.54,8.33,3.03,5.44c0,2.51,2.88,3.95,3.82,3.03c1.02-1,2.03-2.06,2.56-3.33l2.88,0.66
				c-0.39,1.05-0.87,2.04-1.43,2.96C153.14,121.4,155.42,115.28,155.33,106.41z"/>
			<path fill="#FFD700" d="M148.02,25.99c15.09,25.58-11.28,46.9-28.07,61.07l0.01,38.33h-5.95h-0.32h-6.04l0.01-38.33
				C90.62,72.89,63.85,51.57,79.17,25.99c3.85-6.43,20.74-7.86,28.46,1.31l0.04-6.86h6.02h0.32h5.93l0.04,6.86
				C127.58,18.13,144.22,19.56,148.02,25.99z M119.98,79.05c10.32-10.78,25.63-26.7,16.61-46.31h0.01
				c-2.27-4.94-16.66-4.83-16.65,1.86L119.98,79.05z M107.66,34.6c0.01-6.69-14.59-6.8-16.9-1.86c-9.15,19.61,6.4,35.53,16.87,46.31
				L107.66,34.6z"/>
			<path fill="#FFD700" d="M95.46,95.66c-4.44,0-9.02,0-13.45,0c-0.02-3.01-0.04-6.01-0.06-9.01c0.39-9.31-11.18-11.42-13.38,0
				c-0.71,3.67-0.45,6.69,0,9.81c1.57,2.55,3.13,5.11,4.7,7.66c2.3,4.74,2.16,9.37,0.74,13.19l-2.89-0.66
				c0.93-2.22,0.39-5.07-4.1-9.37c-4.01-3.22-8.44-6.12-10.14-10.14c-1.23-2.9-1.76-8.41,0-11.83c2.13-4.14,7.9-11.72,18.25-11.66
				C90.12,73.73,95.37,86.36,95.46,95.66z"/>
			<path fill="#FFD700" d="M83.21,106.41c3.95,0,8.25,0,12.2,0c-1.26,8.74-7.13,14.29-8.42,15.05c-7.91,4.63-15.78,6.82-23.66,0
				c-5.13-4.04-3.76-8.77-1.62-9.95c7.9-4.32,8.55,8.33,3.03,5.44c0,2.51,2.89,3.95,3.83,3.03c1.02-1,2.02-2.06,2.55-3.33l2.89,0.66
				c-0.39,1.05-0.87,2.04-1.43,2.96C81.03,121.4,83.3,115.28,83.21,106.41z"/>
			<path fill="#FFD700" d="M68.43,20.84l0.16,47.13C55.99,74.77,44.97,84.56,35.44,97l-0.05,28.79H22.41V20.84H68.43z M54.6,68.61
				v-40.9l-19.38,0.06c0,19.3,0,38.6,0,57.9C41.68,78.25,48.14,72.06,54.6,68.61z"/>
		</g>
		<g>
		</g>
	</g>
</g>
<polygon fill="#FFD700" points="240,150 0,150 0,141.125 231.126,141.125 231.126,0 240,0 "/>
</svg>
