<?xml version="1.0" encoding="UTF-8" standalone="no"?>
<svg xmlns="http://www.w3.org/2000/svg" xmlns:xlink="http://www.w3.org/1999/xlink" width="1500" height="1000" version="1.0">
  <path fill="#e4002b" d="M0 .00000244h250v1000H0zM1250 0h250v1000h-250z"/>
  <path fill="#fff" d="M250 0h1000v1000H250z"/>
  <g fill="#0032a0" transform="translate(.4897401 10.92927)">
    <path id="a" fill-opacity="1" fill-rule="nonzero" stroke="none" stroke-dasharray="none" stroke-linecap="square" stroke-linejoin="miter" stroke-miterlimit="4" stroke-opacity="1" stroke-width="1.25" d="M720 305.67669l24.13106 75.39546 79.16225-.34847-64.24844 46.24847 24.79391 75.1801L720 455.33992l-63.83878 46.81232 24.79391-75.18009-64.24844-46.24848 79.16225.34848z" opacity="1" transform="matrix(.9623 0 0 .9623 57.148103 -196.471)"/>
    <use id="b" width="1500" height="1000" x="0" y="0" fill-opacity="1" stroke="none" transform="translate(307.22454 229.71428)" xlink:href="#a"/>
    <use id="c" width="1500" height="1000" x="0" y="0" fill-opacity="1" stroke="none" transform="translate(-114.28571 364)" xlink:href="#b"/>
    <use id="d" width="1500" height="1000" x="0" y="0" fill-opacity="1" stroke="none" transform="translate(-383.71429)" xlink:href="#c"/>
    <use width="1500" height="1000" transform="translate(-117.42856 -364)" xlink:href="#d"/>
  </g>
  <path fill="#0032a0" fill-rule="evenodd" d="M702.69346 343.75481c-30.39026 1.08149-48.46026 38.6988-15.23231 87.46188 15.6029 22.89774 11.69002 56.42756-11.66379 75.03813-75.78511 60.39291-112.03189 89.3419-101.76902 115.38228-.079.20913-.15307.41831-.23129.6278 26.22086 54.80853 95.50771 94.00416 176.77411 94.00417 81.2664-.00003 150.55324-39.19563 176.7741-94.00417-.17004-.45538-.35502-.90104-.52867-1.35472 6.94105-26.07302-28.14188-56.70529-99.65434-114.65536-23.20089-18.80085-27.23362-52.1404-11.63074-75.03813 49.45558-72.5776-14.77493-120.4215-64.03518-59.93798-16.16351-19.84616-33.96111-28.05207-48.80287-27.5239z"/>
</svg>
