<?xml version="1.0" encoding="UTF-8" standalone="no"?>
<svg
   xmlns:dc="http://purl.org/dc/elements/1.1/"
   xmlns:cc="http://creativecommons.org/ns#"
   xmlns:rdf="http://www.w3.org/1999/02/22-rdf-syntax-ns#"
   xmlns:svg="http://www.w3.org/2000/svg"
   xmlns="http://www.w3.org/2000/svg"
   xmlns:sodipodi="http://sodipodi.sourceforge.net/DTD/sodipodi-0.dtd"
   xmlns:inkscape="http://www.inkscape.org/namespaces/inkscape"
   width="890.94135"
   height="700"
   viewBox="0 0 35.637654 28"
   id="svg2"
   version="1.1"
   inkscape:version="0.91 r13725"
   sodipodi:docname="Flag_of_Macedonia.svg">
  <metadata
     id="metadata16">
    <rdf:RDF>
      <cc:Work
         rdf:about="">
        <dc:format>image/svg+xml</dc:format>
        <dc:type
           rdf:resource="http://purl.org/dc/dcmitype/StillImage" />
        <dc:title></dc:title>
      </cc:Work>
    </rdf:RDF>
  </metadata>
  <defs
     id="defs14">
    <clipPath
       clipPathUnits="userSpaceOnUse"
       id="clipPath4160">
      <path
         inkscape:connector-curvature="0"
         style="fill:#fefee9"
         d="m 36.511313,1.1480954 c 0.04892,0.070421 0.154484,0.058161 0.159342,0.061417 0.01154,0.00766 0.01683,0.023581 0.03275,0.021968 0.02481,-0.00252 0.05543,-0.046224 0.07838,-0.014753 0.01497,0.02056 0.02178,0.045813 0.03332,0.06828 0.04161,0.080921 0.08761,0.065728 0.09622,0.1804065 0.04535,0.041473 0.136196,0.032585 0.178632,0.088664 -0.01109,0.025517 -0.04146,0.079894 -0.031,0.1076986 0.0055,0.014606 0.02206,0.01619 0.03015,0.028684 0.02015,0.031266 0.02383,0.074937 0.05144,0.1019499 0.01266,0.012436 0.04729,0.024842 0.05426,0.035049 0.0023,0.00334 0.0063,0.034433 0.01034,0.043144 0.0079,0.017041 0.02935,0.021059 0.04221,0.033025 0.01538,0.014371 -0.01,0.050711 0.06318,0.104531 0.06093,0.044816 0.05375,-7.029e-4 0.08441,0.017627 0.01446,0.00865 -0.0014,0.139756 0.01034,0.1526022 0.0097,0.01053 0.114192,-0.02933 0.139568,-0.030972 0.0042,0.072063 0.04107,0.056342 0.05975,0.097316 0.0076,0.01666 -0.0069,0.06171 -0.0012,0.084 0.01355,0.00578 0.02803,0.016073 0.02698,0.032967 0.03358,0.025869 0.107019,0.040006 0.126081,0.078252 0.01935,0.038744 -0.03598,0.081566 -0.02355,0.1048244 0.02723,0.051004 0.07644,0.087608 0.100275,0.1418382 0.01649,0.037601 0.0049,0.081331 0.02209,0.1184625 l 0.03389,0.013638 c -0.02635,0.1106607 0.07447,0.1290212 0.107133,0.206774 0.01366,0.032468 0.01726,0.071594 0.02612,0.1059093 0.005,0.019563 0.004,0.044083 -0.006,0.062326 0.0064,-0.00229 0.01451,-0.00607 0.02135,-0.00683 0.035,-0.00396 0.06998,0.011556 0.104732,0.013462 0.03406,0.00185 0.06721,-0.013697 0.09993,-0.012172 0.0043,2.048e-4 0.02803,0.012788 0.03364,0.015369 0.02109,0.00983 0.188234,0.084029 0.190833,0.086552 0.02029,0.019798 0.02083,0.049274 0.03555,0.072356 -0.0077,0.021939 -0.03749,0.06781 -0.03749,0.087373 0,0.069365 0.02506,0.083971 0.04395,0.1421611 0.01554,0.047748 0.0017,0.096583 0.0064,0.1453576 0.0059,0.059862 0.115363,0.2084751 0.161,0.2490676 -0.02866,0.00598 -0.08082,0.036457 -0.08533,0.06913 0.04798,0.064173 0.159485,0.1006592 0.188119,0.1381719 0.03412,0.044699 0.01863,0.1080506 0.07564,0.1395213 0.09104,0.050242 0.224181,0.066314 0.252786,0.082182 0.05535,0.030738 0.03492,0.095791 0.120907,0.1212781 0.01829,0.076199 0.06607,0.052119 0.08276,0.078868 0.01326,0.021322 0.01977,0.080011 0.03364,0.096465 0.01832,0.021792 0.06898,0.034991 0.09439,0.056049 0.04529,0.037572 0.111047,0.1230088 0.172629,0.1238887 0.02947,3.833e-4 0.05504,-0.020003 0.0847,-0.020179 0.03035,0.043877 0.04558,0.091245 0.07238,0.1336262 0.0188,0.029741 0.04475,0.055404 0.06467,0.088018 0.0038,0.00616 0.06573,-0.00314 0.07953,0.00323 0.03058,0.014078 0.05221,0.043232 0.08081,0.060625 l 0.08016,-0.042997 c 0.03538,0.018889 0.1606,0.047367 0.175231,0.059276 0.04181,0.034169 0.03266,0.088224 0.101475,0.088018 0.05261,0.039507 0.100361,0.1246215 0.129335,0.1466776 0.01229,0.00939 0.03892,0.00443 0.04587,0.012436 0.01612,0.018654 -0.0099,0.044141 0.0026,0.063851 0.01426,0.022466 0.05135,0.014753 0.07115,0.028039 l 0.142854,0.09582 c 0.0077,0.00516 0.03132,-0.010412 0.04203,-0.00845 0.02214,0.0041 0.05298,0.054084 0.05429,0.076228 0.01846,0.025311 0.02246,0.026016 0.04975,0.039126 l 0.02326,-0.00593 c 0.03255,0.034228 0.05098,0.022525 0.08213,-0.00188 0.01086,0.0049 0.01994,0.014606 0.0252,0.025429 0.04029,-0.058747 0.105649,0.00895 0.167459,-0.00457 0.02581,-0.029828 0.183402,-0.080363 0.221752,-0.072357 0.03472,-0.01358 0.03226,-0.034286 0.05753,-0.048277 -0.0091,0.040005 -0.0077,0.073354 -0.01097,0.1134472 0.03906,0.026338 0.06035,0.053938 0.08922,0.09057 0.01283,0.00173 0.02587,0.00252 0.03878,0.00132 l 0.01615,0.017011 c 8.77e-4,0.01223 -0.0079,0.039507 -0.0026,0.048892 l 0.08599,0.1505493 c 0.0033,0.00575 0.0399,0.011732 0.04846,0.016307 0.02058,0.010911 0.03535,0.029066 0.06012,0.030004 0.02824,0.00105 0.04116,-0.030973 0.06655,-0.037806 l 0.02072,0.011732 0.02975,-0.00977 c 0.0224,0.067546 0.07393,0.049362 0.127363,0.054729 0.02372,0.00241 0.130224,0.043026 0.155172,0.055433 l 0.0039,0.022847 c 0.01631,0.01358 0.07727,0.022349 0.09893,0.022115 l -6.44e-4,0.017627 c 0.01908,0.023933 0.06215,0.00167 0.0795,-0.014313 0.07061,0.055491 0.134196,-0.037953 0.153912,-0.050887 0.0084,-0.00552 0.01577,-0.00308 0.02323,-0.013668 0.01383,-0.019563 0.0016,-0.078193 0.02912,-0.09189 0.01489,0.068984 0.136338,0.2293287 0.182745,0.291449 0.03641,0.048775 0.07756,0.1079917 0.127539,0.1426009 0.07684,0.053233 0.243755,0.07438 0.330171,0.039008 0.04383,-0.017979 0.06069,-0.075671 0.114963,-0.069013 0.04755,0.1116577 0.124908,0.035929 0.156625,0.040974 0.01323,0.017041 0.01614,0.039214 0.0198,0.059979 0.03483,0.197682 -0.149653,0.2224948 -0.09713,0.2999252 0.0783,-0.00155 0.130364,0.083472 0.206377,0.095644 0.01301,0.078604 -0.02603,0.053439 0.0033,0.1325116 -0.01243,0.026426 -0.01511,0.1022139 -0.0058,0.1300478 -0.02658,0.086142 -0.0232,0.075964 0.04215,0.1241522 -0.0026,0.022436 -0.02857,0.1102212 -0.02726,0.1199885 0.01437,0.1068181 -0.06258,0.3410153 0.0033,0.405042 -0.05063,0.03643 -0.02403,0.066605 0.02149,0.083326 0.02218,0.036664 -0.04521,0.09846 -0.0587,0.1308697 0.102989,0.07855 0.04503,0.113711 0.08267,0.198326 0.06044,0.135973 0.118851,0.06679 0.163658,0.111659 0.0046,0.01772 0.0053,0.03666 0.01323,0.05338 l 0.01652,0.005 c 0.01694,0.0478 0.01586,0.03892 0,0.085 0.02986,0.135208 0.123734,0.08283 0.04546,0.246662 0.0091,0.02255 0.0033,0.04211 0.0066,0.06499 0.009,0.0094 0.06178,0.05027 0.0595,0.06083 -0.0032,0.01508 -0.03195,0.02144 -0.03552,0.05086 -0.0049,0.03992 0.02292,0.08629 0.03307,0.124123 0.01023,0.03819 -0.01649,0.07019 0.01295,0.108373 0.02083,0.0074 0.04615,0.02284 0.06887,0.01502 0.01449,-0.005 0.02374,-0.05837 0.06364,-0.03919 0.09959,0.04783 0.06616,0.07664 0.119823,0.137497 0.0162,0.01839 0.04115,0.03223 0.05207,0.05503 0.0084,0.01757 0.0015,0.04027 0.0124,0.05669 0.008,0.01208 0.02592,0.0098 0.03307,0.02334 0.006,0.01135 -0.01043,0.02851 -0.01154,0.0408 -0.0012,0.01232 0.02538,0.06051 0.03389,0.07083 0.03103,0.03754 7.31e-4,0.113505 0.0529,0.132481 0.0069,0.02552 0.02663,0.03878 0.05207,0.03754 -0.0022,0.0242 -0.02306,0.06965 -0.01572,0.09083 0.02095,0.06048 0.106992,0.2115835 0.100818,0.2708295 -0.0072,0.06907 -0.04895,0.132951 -0.02806,0.204164 0.0094,0.03205 0.04718,0.0376 0.05781,0.06837 0.01366,0.03936 0.0057,0.101099 0.02895,0.135795 0.02006,0.02989 0.06132,0.03669 0.07936,0.06837 -0.0028,0.07312 0.03037,0.146942 0.08181,0.196715 0.01271,0.01232 0.03361,0.03173 0.05123,0.03496 0.007,0.0013 0.02992,-0.0065 0.03058,0.0059 0.0018,0.03414 0.01126,0.149698 0.0053,0.177532 -0.0044,0.02039 -0.04338,0.03531 -0.04078,0.05411 0.0057,0.04115 0.07581,0.09512 0.110733,0.110016 0.09676,-0.07148 0.09053,0.0271 0.178546,0.01666 0.03072,-0.0037 0.05018,-0.04508 0.08347,-0.03584 0.02629,0.07664 0.02358,0.08007 0.09256,0.07332 0.05941,-0.07028 0.04947,-0.02889 0.09999,-0.02249 0.01943,0.0025 0.04543,-0.01214 0.06944,-0.0083 0.01769,0.03455 0.02743,0.138144 0.05786,0.154979 0.01208,0.04742 0.04358,0.04452 0.04795,0.06168 0.01983,0.07855 -0.04975,0.08784 0.02901,0.160815 0.01237,0.01144 0.03184,-5.3e-4 0.0456,0.0079 0.02301,0.05347 0.016,0.122803 0.04246,0.172136 0.0089,0.01654 0.02843,0.02443 0.03604,0.04138 0.02172,0.04845 0.02761,0.08312 0.05918,0.128287 -0.0024,0.125267 0.02598,0.08435 0.03764,0.134623 -0.09204,0.137205 0.01806,0.176595 0.0018,0.239126 -0.008,0.03059 -0.04864,0.03179 -0.0687,0.04637 -0.01145,0.0084 -0.01274,0.07075 -0.03352,0.07975 -0.01726,0.0075 -0.04261,-0.01431 -0.0583,-0.0039 -0.03538,0.02361 -0.03458,0.08506 -0.05901,0.118903 -0.01666,0.02299 -0.137455,0.200586 -0.134825,0.209825 0.0071,0.0251 0.0019,0.02956 -0.0095,0.05186 -0.04458,0.003 -0.07393,0.02563 -0.09339,0.06634 -0.01535,0.0065 -0.0204,0.01962 -0.02794,0.03353 l -0.01675,0.004 c -0.01298,0.02326 -0.03715,0.03625 -0.05027,0.0591 -0.02386,0.04144 -0.02094,0.100308 -0.05732,0.133274 l 0.004,0.03983 -0.03275,0.01038 c -0.0061,0.01334 -0.0061,0.03021 -7.32e-4,0.04382 -0.0056,0.01868 -0.02003,0.03543 -0.03184,0.05033 l -0.04152,0.0048 c -0.03383,0.03235 -6.15e-4,0.0803 0.02806,0.102009 -7.32e-4,0.02077 -10e-4,0.07151 -0.0079,0.08854 l -0.03112,0.01203 c -0.03721,-0.02337 -0.04898,-0.05707 -0.08859,-0.0015 l -0.02238,-0.01194 c -0.01946,-0.0012 -0.03566,0.01153 -0.0551,0.0033 -0.06518,-0.02757 -0.07587,0.0036 -0.133249,0.01147 l -0.0064,-0.02074 c -0.02257,0.01669 -0.01375,0.04684 -0.02704,0.06863 -0.01886,0.0086 -0.04198,0.01032 -0.05421,0.02965 l -0.02949,8.78e-4 c -0.02098,0.02287 8.05e-4,0.09482 -0.0102,0.122833 -0.0097,0.02458 -0.04192,0.04458 -0.03738,0.07418 0.0057,0.03707 0.08087,0.06335 0.07281,0.126587 -0.0022,0.01745 -0.0128,0.03223 -0.01592,0.04948 0.03289,0.06491 0.03012,0.05942 0.0098,0.127526 0.01469,0.06314 -0.0042,0.04819 -0.02541,0.09737 0.0134,0.04602 -0.01132,0.06878 0.01217,0.124269 -0.01592,0.02376 -0.02429,0.0523 -0.03178,0.07981 0.0232,0.03807 0.0019,0.208358 0.04907,0.248658 0.06335,0.0031 0.10902,-0.02045 0.108534,0.06828 0.03366,0.02397 0.0435,0.03895 0.06552,0.07638 -0.0017,0.01308 -0.0074,0.02549 -0.01511,0.03593 0.0013,0.01895 0.01923,0.03179 0.01923,0.051 0,0.08092 -0.0043,0.15099 0.08713,0.176741 -2.93e-4,0.01516 0.002,0.0305 -0.0015,0.04546 l 0.008,0.01988 c -0.01583,0.03575 -0.03809,0.07045 -0.05724,0.104531 0.0019,0.03713 0.01878,0.075 0.005,0.111657 0.01352,0.02722 0.02317,0.0904 -0.01183,0.102068 -0.03075,-0.01094 -0.08584,-0.0098 -0.113935,0.0082 0.0019,0.05974 -0.0069,0.08664 -0.02129,0.142747 l 0.01517,0.02704 c -0.01238,0.03687 0.06993,0.214929 0.108705,0.224549 0.01789,0.02238 0.03361,0.04672 0.04789,0.07165 -0.0031,0.01115 -0.0037,0.02402 0.0025,0.03429 -0.002,0.03719 -0.0242,0.07048 -0.01257,0.108402 -0.02944,0.04497 0.02515,0.128788 -0.118446,0.171697 l -0.05333,0.109341 c 0.01157,0.01549 0.03841,0.02552 0.04541,0.04236 -0.0072,0.01419 -0.01195,0.02927 -0.01586,0.04472 0.01012,0.02821 0.03792,0.107492 0.01998,0.133507 0.0015,0.01677 -0.0042,0.08136 0.0024,0.0911 0.012,0.01778 0.0611,0.02391 0.07964,0.04954 -0.0079,0.03443 -0.0069,0.07555 -0.02063,0.107933 -0.006,0.01423 -0.02506,0.03781 -0.02223,0.05353 0.02794,0.155184 0.343316,0.304794 0.144282,0.455608 -0.02551,0.06206 -0.05684,0.121336 -0.08613,0.181579 -0.0172,-0.0018 -0.04884,-0.01519 -0.06438,-0.0096 -0.04927,0.01789 -0.108703,0.193489 -0.153913,0.240416 0.0034,0.03862 0.02509,0.07588 0.02492,0.114297 0.01703,0.01692 0.08464,0.05007 0.08979,0.06787 0.0045,0.01572 -0.0073,0.03103 -0.0048,0.04713 0.0086,0.05437 0.03783,0.113917 0.05915,0.164364 0.0069,0.01651 0.02103,0.04391 0.01794,0.06203 -0.01012,0.05892 -0.05907,0.115383 -0.05456,0.182811 l 0.01903,0.283765 c 5.27e-4,0.0078 0.01869,0.04162 0.02175,0.05755 -0.01554,0.03605 0.0015,0.156209 -0.01366,0.212727 -0.02635,0.01607 -0.144597,0.02892 -0.172915,0.01728 -0.01763,0.0047 -0.07861,0.08685 -0.09307,0.106437 -0.109104,0.09151 -0.06573,0.137498 -0.23464,0.100132 l -0.0067,0.05227 c -0.116821,-0.02669 -0.190605,-0.06197 -0.313968,-0.03505 l 0.002,0.0161 c -0.05898,0.02595 -0.128392,0.03303 -0.190545,0.01528 -0.01426,-0.01857 -0.03229,-0.03399 -0.0442,-0.05443 -0.01583,0.03141 -0.06832,0.0117 -0.102275,0.03036 -0.01552,-0.0078 -0.03041,-0.0045 -0.04413,0.0051 -0.05307,-0.0108 -0.09662,-0.02514 -0.151486,-0.01399 -0.01677,0.0034 -0.03132,0.0065 -0.04815,0.001 -0.0084,0.01493 -0.06393,0.0398 -0.08116,0.04957 -0.01511,-0.0079 -0.04066,-0.0154 -0.05121,-0.02921 -0.04104,0.01015 -0.0841,0.03132 -0.12531,0.04461 -0.05901,-0.02508 -0.173316,0.0019 -0.222553,0.04167 -0.01543,0.0011 -0.03252,-0.0053 -0.04515,-0.01405 l -0.03307,0.0132 -0.02515,-0.0232 -0.0301,-0.008 -0.04332,-0.05843 0.009,-0.02229 c -0.02666,-0.0093 -0.0365,-0.04135 -0.05633,-0.05933 -0.05804,0.01795 -0.0081,0.07136 -0.03986,0.10805 -0.04955,-0.03103 -0.04278,-0.0069 -0.08627,-0.0019 l -0.02712,-0.02012 -0.002,-0.02927 -0.02106,0.005 c 4.68e-4,0.02394 -0.01849,0.04053 -0.03395,0.05558 l 0.01214,0.03936 c -0.04386,0.03634 -0.03175,0.05611 -0.06093,0.09098 l -0.02906,0.0092 0.0031,0.02728 c -0.04884,-0.0019 -0.05592,-0.01038 -0.06706,0.0425 -0.01666,-0.0078 -0.08779,-0.02728 -0.100362,-0.0139 l -0.128279,0.01877 -0.01606,-0.0073 0.003,0.0222 c -0.0075,0.01452 -0.0375,0.01933 -0.05101,0.03745 -0.02663,0.03566 -0.10739,0.26159 -0.116364,0.308078 -8.78e-4,0.0045 0.02821,0.156475 0.0326,0.16847 l 0.02909,0.0019 c 0.07027,0.05151 0.08227,0.08075 0.02652,0.14832 0.0087,0.0298 -0.02332,0.0486 0.0042,0.07969 l -0.01797,0.02734 -0.02604,0.01012 -0.0029,0.01721 0.01205,0.0161 c -0.03946,0.0049 -0.02671,0.03235 -0.03689,0.06063 -0.01205,0.0071 -0.02232,0.01751 -0.02998,0.02936 -2.92e-4,0.02476 0.02209,0.03115 0.03323,0.04942 -0.02349,0.05097 0.03529,0.08567 0.03238,0.108872 -0.01969,0.156971 -0.04946,0.310953 -0.06472,0.469216 -0.03195,0.331777 -0.04361,0.665255 -0.07593,0.997032 -0.0128,0.131514 0.001,0.286258 -0.03641,0.412345 -0.0094,0.03156 -0.212636,0.344126 -0.234839,0.359994 -0.0466,0.03329 -0.144481,0.02147 -0.201434,0.03376 l -0.06524,0.07784 c -0.100332,-0.04039 -0.125367,-0.191816 -0.19695,-0.261268 -0.03761,-0.03649 -0.08533,-0.05555 -0.122336,-0.08966 -0.01483,-0.01367 -0.03543,-0.08385 -0.03758,-0.105323 -0.04323,0.004 -0.0435,-0.03707 -0.06018,-0.06535 -0.0184,-0.03115 -0.09673,-0.0618 -0.0633,-0.108814 -0.01001,-0.03484 -0.03835,-0.05945 -0.04993,-0.09338 -0.02217,-0.0149 -0.04686,-0.02514 -0.06996,-0.0383 -0.0087,-0.0317 -0.0079,-0.0652 -0.01606,-0.09705 -0.04849,0.008 -0.09256,0.03282 -0.141882,0.03704 l -0.01277,0.04878 -0.01489,0.01086 c -0.01737,4.97e-4 -0.03475,-0.0091 -0.05041,-0.0087 -0.06884,0.0017 -0.07112,0.136941 -0.08824,0.17589 -0.01129,0.02566 -0.05121,0.03484 -0.05798,0.05816 -0.01378,0.04734 0.08844,0.07588 -8.05e-4,0.193576 -0.004,0.06015 -0.208005,0.288106 -0.253927,0.355123 -0.02263,0.03306 -0.03549,0.07238 -0.06253,0.102302 -0.03735,0.04129 -0.32874,0.273764 -0.370919,0.290628 -0.02549,-0.0061 -0.0509,0.0018 -0.07656,0.0017 -0.11402,-4.13e-4 -0.164914,-0.02912 -0.230353,-0.124006 -0.03867,-0.05605 -0.04927,-0.03514 -0.08036,-0.116557 -0.225754,0.0054 -0.42553,0.01566 -0.64634,0.05936 -0.02335,0.0046 -0.106048,0.02537 -0.123565,0.02042 -0.02266,0.01883 -0.22141,0.09394 -0.24227,0.086 -0.02646,0.0161 -0.05307,0.03373 -0.08136,0.04631 -0.01274,-0.005 -0.02301,-0.01472 -0.03629,-0.01842 -0.09516,0.03449 -0.10679,-0.0383 -0.200005,0.06006 l -0.02349,0.001 c -0.01974,-0.02871 -0.08773,-0.05704 -0.09493,-0.07564 l -0.01603,-0.0044 c -0.01103,0.0083 -0.025,0.01223 -0.03852,0.01293 -0.01355,-0.009 -0.0258,-0.02388 -0.04266,-0.02601 l -0.01075,0.02699 c -0.02598,0.0053 -0.05186,0.01807 -0.0685,0.03983 -0.0148,-0.0049 -0.02935,-0.01241 -0.0395,-0.02487 -0.05438,-0.01393 -0.117248,0.06936 -0.143138,-0.02505 -0.07567,-0.0045 -0.165457,0.08066 -0.231955,0.01282 -0.0013,-0.06752 -0.125164,-0.134506 -0.178173,-0.157735 -0.01426,-0.06517 0.01363,-0.08849 0.05264,-0.132688 -0.15937,-0.06532 -0.138709,-0.03528 -0.226753,0.07215 l -0.123936,-0.02059 c -0.0069,-0.03986 -0.03786,-0.03091 -0.06301,-0.0486 -0.0046,-0.03461 -0.07441,-0.03972 -0.09939,-0.03135 -0.01355,0.02235 -0.04698,0.06529 -0.05355,0.0874 l -0.0214,0.01188 c -0.05067,-0.03264 -0.133938,-0.06936 -0.194463,-0.05511 l -0.0022,0.03347 c -0.02034,0.01429 -0.03758,-0.002 -0.05664,0.0032 0.0015,0.02455 -0.0018,0.06837 -0.03749,0.06148 l -0.01494,-0.01833 c -0.02503,0.01404 -0.04975,0.0295 -0.07061,0.04966 l -0.02137,-0.0076 c -0.03329,0.01772 -0.0029,0.101188 0.0052,0.136032 -0.02915,0.0096 -0.07453,0.0079 -0.10259,-0.0054 0.0059,-0.02426 0.0089,-0.04951 -0.016,-0.06259 3.71e-4,-0.01903 -0.0033,-0.03795 -0.0085,-0.05614 0.01274,-0.0259 0.01797,-0.05476 0.03001,-0.08095 -0.03309,-0.03144 -0.02672,-0.101305 -0.03941,-0.145711 -0.0965,-0.051 -0.03769,-0.128404 -0.01049,-0.200731 l -0.01572,7.02e-4 c -0.02506,0.02015 -0.06015,0.01728 -0.08593,0.03605 -0.02846,0.02074 -0.02566,0.05024 -0.06844,0.04966 -0.08642,-0.0012 -0.08044,0.05068 -0.160342,-0.05936 -0.09679,-0.03699 -0.198149,-0.112128 -0.299366,-0.07215 -0.01232,-0.01369 -0.02746,-0.019 -0.04275,-0.02804 -0.04167,-0.02458 -0.02523,-0.08602 -0.03095,-0.126264 -0.03623,-0.03763 -0.0917,-0.04094 -0.140081,-0.03658 -0.01466,-0.0077 -0.02569,-0.02188 -0.03101,-0.03775 -0.03312,0.0016 -0.12768,0.0142 -0.152942,0.0077 l -0.0086,0.02311 -0.03555,-0.03124 c -0.03443,-0.0038 -0.09159,0.07324 -0.123878,0.05669 -0.108705,-0.05561 -0.06627,-0.01766 -0.167401,-0.02534 -0.03206,-0.02241 -0.07747,-0.03663 -0.102046,-0.06822 -0.0085,-0.01085 -0.0126,-0.02414 -0.02298,-0.03353 -0.03718,0.0159 -0.06832,0.0432 -0.104361,0.06133 -0.0072,0.02393 -0.02369,0.04303 -0.03672,0.06367 l 0,0.03581 c -0.107846,-0.03839 -0.420043,0.01484 -0.491941,0.101041 0.0023,0.04388 -0.01843,0.06136 -0.04012,0.09482 l -0.01489,0.0034 c -0.05458,0.196067 -0.06096,0.114444 -0.171916,0.231528 -0.0026,0.02493 -0.01346,0.04869 -0.01255,0.07403 -0.02566,0.02798 -0.02649,0.06764 -0.04698,0.09837 -0.0034,0.0052 -0.130651,0.06666 -0.138653,0.06726 -0.07358,0.0052 -0.07441,-0.06453 -0.135223,0.02675 -0.03052,-0.01 -0.06676,-0.02731 -0.09059,-0.04951 -0.05355,0.0096 -0.08984,-0.107114 -0.134252,-0.13744 -0.04284,-0.02921 -0.13748,-0.03655 -0.168542,-0.06218 -0.01781,-0.0147 -0.03189,-0.03584 -0.05738,-0.03458 -0.01266,0.01423 -0.02731,0.02813 -0.04584,0.03361 -0.0308,-0.01754 -0.03944,-0.0369 -0.07798,-0.02296 l -0.01723,-0.02658 c -0.0174,-0.0072 -0.02572,-0.03062 -0.02186,-0.04854 -0.01106,-0.0147 -0.02969,-0.01953 -0.04246,-0.03223 l -0.03669,0.0012 -0.01263,-0.01848 c 8.05e-4,-0.02792 0.02455,-0.04385 0.04007,-0.06365 -0.0041,-0.07139 -0.06552,-0.08723 -0.09193,-0.143275 -0.01478,-1.17e-4 -0.02917,0.0026 -0.04241,0.0094 -0.02015,-0.0025 -0.03858,-0.01115 -0.05738,-0.01833 -0.01031,-0.03713 -0.03712,-0.07541 -0.07695,-0.0808 0.0076,0.151283 -0.03046,0.27438 -0.203722,0.237543 -0.01732,0.06107 0.01632,0.04358 -0.05606,0.07643 -0.01,0.13257 -0.190376,0.09212 -0.177374,0.191288 -0.02683,0.02508 -0.129909,0.01129 -0.168487,0.01546 -0.05815,0.0063 -0.111332,0.03558 -0.169571,0.04215 -0.01189,0.01109 -0.01292,0.02513 -0.02172,0.03704 -0.01063,0.0144 -0.115934,0.01786 -0.137595,0.01938 -0.01177,0.01082 -0.02378,0.02411 -0.03938,0.029 -0.06887,-0.02394 0.0046,-0.06104 -0.144653,-0.04094 -0.01126,0.0075 -0.02661,0.0132 -0.04029,0.01058 -0.0062,-0.01584 -0.01343,-0.03191 -0.02481,-0.04461 l -0.04895,0.01352 c -0.01835,0.04083 -0.03647,0.112655 -0.07793,0.134418 -0.01189,0.0062 -0.02452,0.0063 -0.03452,0.01642 -0.02026,0.0205 -0.02049,0.05552 -0.04426,0.07347 l -0.02781,-0.0048 -0.02783,0.01446 c -0.08207,-0.02617 -0.05444,0.05437 -0.08742,0.109253 -0.0166,0.0026 -0.03172,-0.0069 -0.04792,-0.0088 -0.07416,0.04678 -0.155854,0.08089 -0.225438,0.13524 -0.01555,0.08124 -0.01317,0.04475 -0.05573,0.08318 -0.145282,0.131249 -0.187347,0.09019 -0.243584,0.138201 0.0045,0.03795 0.04104,0.08676 0.02669,0.123947 l -0.02781,0.0096 0.0134,0.01939 c 0.004,0.05584 -0.02603,0.06177 -0.04326,0.104472 -0.01331,0.03303 -0.0029,0.07028 -0.01449,0.103563 -0.0065,0.01863 -0.02212,0.03185 -0.03072,0.04933 0.04855,0.05502 0.113762,0.163688 0.07344,0.237246 0.01217,0.04434 0.05401,0.07479 0.06304,0.117114 l -0.02203,0.001 c -0.02086,0.0229 -0.02289,0.05068 -0.03935,0.07356 -0.0077,0.01067 -0.100332,0.09224 -0.11122,0.09476 l -0.0057,-0.01742 c -0.0222,0.01023 -0.02249,0.03833 -0.04218,0.05121 -0.01481,0.0097 -0.191891,-0.02581 -0.222096,-0.03205 0.02137,0.07462 0.02149,0.169673 0.02944,0.247807 -0.01892,0.0074 -0.03952,-0.0036 -0.05838,-0.0059 -0.0097,0.02871 -0.06487,0.02713 -0.0881,0.03862 0.0064,0.01657 0.0116,0.0337 0.01432,0.05136 -0.01686,0.0122 -0.03515,0.01994 -0.05361,0.029 -0.123108,-0.01763 -0.08004,0.051 -0.147426,0.03766 -0.0032,0.01581 -7.14e-4,0.03361 -0.0039,0.0484 -0.0047,0.02214 -0.06462,0.02792 -0.08042,0.04939 -0.02972,0.04027 -0.04824,0.08943 -0.07764,0.130606 0.0029,0.02261 0.01286,0.04291 0.01815,0.06485 -0.02632,0.06482 -0.01052,0.09872 -0.07496,0.150344 -0.04618,0.03699 -0.172317,-0.01898 -0.209352,0.09036 -0.01214,0.0067 -0.04055,0.03543 -0.05064,0.03681 -0.18103,0.02473 -0.194004,0.157883 -0.2513,0.142602 -0.03329,0.03191 -0.04884,0.0803 -0.0887,0.105616 0.0035,0.06233 -0.01383,0.302037 0.02944,0.328581 0.02112,0.05742 0.06687,0.120163 4e-4,0.167208 0.0045,0.01904 0.0091,0.03827 0.01731,0.05605 -0.0643,0.105147 -0.197463,0.04505 -0.209722,0.242205 l -0.03726,0.01452 c -0.0256,0.05889 -0.08379,0.02816 -0.129965,0.02065 -0.04715,0.032 -0.106047,0.01877 -0.158627,0.01499 -0.04175,0.03678 -0.108705,0.08092 -0.1652,0.05649 l -8.8e-5,-0.02417 c -0.03143,-0.04517 -0.179288,-0.09691 -0.227753,-0.09183 -0.02349,0.01895 -0.05344,0.02824 -0.08321,0.02639 -0.01172,-0.0099 -0.03212,-0.03124 -0.03364,-0.04734 -0.114506,-0.09427 -0.108334,-0.06945 -0.212008,-0.132834 -0.0104,-0.0064 -0.02463,-0.0028 -0.0354,1.47e-4 -0.02157,-0.02525 -0.0663,-0.09954 -0.107476,-0.06262 -0.01318,0.01182 -0.02241,0.03777 -0.04195,0.04279 -0.02006,0.0052 -0.04052,-0.01982 -0.06993,-0.0085 -0.0244,0.0094 -0.05281,0.02965 -0.07844,0.01284 l -0.0097,-0.01543 c -0.138823,0.04875 -0.01297,0.123009 -0.13628,0.174775 -0.03887,0.05171 -0.261474,0.315322 -0.11642,0.347968 -0.002,0.02188 -0.0023,0.04487 -0.0093,0.06584 0.0079,0.02138 0.02289,0.03907 0.03846,0.05508 -0.0064,0.04851 3.13e-4,0.09629 -0.0081,0.145212 -0.03489,0.01246 -0.03864,-0.01039 -0.06221,-0.01039 -0.02646,0 -0.04947,0.01625 -0.07653,0.01385 -0.03026,-0.0027 -0.0565,-0.02138 -0.08527,-0.02966 -0.133109,-0.03818 -0.08576,-0.0064 -0.178688,0.0491 -0.01146,0.0068 -0.03266,-0.0092 -0.04695,-0.0066 l -0.01903,0.02628 c -0.01803,0.0053 -0.03543,0.005 -0.04964,0.01951 -0.0043,0.05535 -0.04266,0.201111 -0.119992,0.131248 -0.107532,0.01405 -0.14251,0.09045 -0.204892,0.176156 -0.05444,-0.03162 -0.07153,-0.03001 -0.109905,0.01789 0.0015,0.02306 -0.01266,0.03238 -0.02083,0.05145 -0.04372,0.102125 -0.01423,0.08916 -0.104419,0.169934 -0.0232,-0.0099 -0.04258,-0.02754 -0.05949,-0.04622 -0.01718,9.51e-4 -0.03758,0.0022 -0.05075,-0.01138 -0.07761,0.02969 -0.152798,0.07611 -0.236927,0.05344 -0.02326,-0.02666 -0.01875,-0.129195 -0.03812,-0.170139 -0.01606,-0.03402 -0.139825,-0.06371 -0.17363,-0.09878 -0.05146,-0.05341 -0.04801,-0.118436 -0.06861,-0.141985 -0.02503,-0.02859 -0.06124,-0.04358 -0.08461,-0.07406 -0.01577,-0.02053 -0.111562,-0.158939 -0.115706,-0.172692 -0.0068,-0.02276 4.3e-4,-0.05059 -0.01186,-0.07156 -0.01255,-0.02144 -0.04664,-0.02297 -0.06621,-0.03452 -0.01992,-0.0117 -0.01923,-0.02355 -0.03372,-0.03464 l -0.10216,0.0364 c -0.118535,-0.051 -0.258845,-0.02763 -0.377237,-0.07895 -0.363291,0.119078 -0.345946,0.139579 -0.673344,-0.07793 l -0.01718,-0.01364 c -0.105934,-0.0043 -0.211695,-0.01235 -0.317684,-0.01496 -0.1678,0.134652 -0.315769,0.292683 -0.472767,0.439856 -0.07653,0.07174 -0.160143,0.135886 -0.233355,0.211351 -0.02058,0.02124 -0.03555,0.04783 -0.05861,0.06661 -0.06673,-0.01801 -0.292479,0.126467 -0.359148,0.121804 -0.03743,0.02716 -0.105418,0.03141 -0.150312,0.04109 -0.031,-0.02042 -0.0749,-0.01039 -0.104275,0.0084 -0.0047,0.0129 -0.01183,0.03217 -0.02406,0.03963 -0.04998,0.0305 -0.405327,0.02546 -0.482198,0.06646 -0.195148,-0.04628 -0.118364,-0.0202 -0.284249,0.07582 l -0.127914,-0.05833 c 0.0097,-0.06658 -0.05292,-0.113711 -0.06696,-0.17442 -0.04072,-0.03508 -0.28122,-0.157971 -0.323084,-0.122776 -0.06038,-0.108374 -0.160428,-0.06678 -0.251501,-0.08913 -0.008,0.01669 -0.108676,0.103593 -0.130223,0.122744 -0.09425,0.01341 -0.150053,0.0087 -0.2527,0.03883 -0.02269,0.05083 -0.03252,0.06174 -0.08013,0.08872 -0.02938,0.133186 -0.107733,0.04461 -0.188432,0.222671 -0.0711,0.03405 -0.113849,0.0012 -0.186604,0.05329 -0.0517,-0.0091 -0.104676,0.01334 -0.155599,0.0029 -0.02026,-0.0042 -0.0286,-0.01827 -0.05149,-0.01179 -0.03938,0.01115 -0.04978,0.0296 -0.09699,0.03035 -0.64817,0.01065 -1.296568,-0.01985 -1.944822,-0.01721 -0.02037,-0.185598 -0.08159,-0.610411 -0.01697,-0.77269 -0.0089,-0.04792 -0.09725,-0.08553 -0.120679,-0.131515 -0.01611,-0.03162 -0.01497,-0.104589 -0.04772,-0.121395 -0.02737,-0.01405 -0.06158,-0.01094 -0.08976,-0.0012 -0.0679,-0.0618 -0.133566,-0.25332 -0.251273,-0.205072 -0.06153,-0.117612 -0.153798,0.02513 -0.217808,0.02513 -0.05421,0 -0.09982,-0.03294 -0.15074,-0.04687 -0.04544,0.02998 -0.05721,0.08673 -0.05507,0.1387 -0.04138,-0.01144 -0.189691,-0.03617 -0.214152,-0.05426 -0.02778,-0.02044 -0.04326,-0.05388 -0.06701,-0.07846 -0.133995,-0.02461 -0.47714,-0.194513 -0.610363,-0.264875 -0.09547,0.137233 -0.195092,0.278778 -0.263103,0.433024 -0.02186,0.04951 0.01843,0.137289 -0.03952,0.168526 -0.09219,0.04969 -0.170087,0.163659 -0.279991,0.156827 -0.09999,-0.0062 -0.174944,-0.08007 -0.270418,-0.09893 -0.05047,-0.01 -0.118564,0.02041 -0.157942,-0.02408 -0.09876,0.01719 -0.183374,0.05722 -0.28002,0.0048 -0.03415,-0.01857 -0.02606,-0.05652 -0.07864,-0.04666 -0.02563,-0.01341 -0.221781,-0.11336 -0.224097,-0.121073 -0.157484,-0.521144 -0.297481,-1.065738 -0.405128,-1.600035 -0.0128,-0.06359 -0.01097,-0.129814 -0.02972,-0.192228 -0.144081,-0.479217 -0.272619,-0.963361 -0.420616,-1.441318 -0.08053,0.0037 -0.519089,0.04567 -0.552552,-0.0096 -0.01611,-0.0045 -0.02958,0.0034 -0.04555,0.0024 -0.137995,-0.0085 -0.295451,-0.03816 -0.424444,-0.08945 -0.0266,-0.04476 -0.02521,-0.09726 -0.04135,-0.145622 -0.02766,-0.08271 -0.115078,-0.128435 -0.13851,-0.212229 -0.0081,-0.02895 0.0099,-0.08397 0.04558,-0.08221 0.0016,-0.01789 0.01577,-0.03065 0.02638,-0.0435 l 0.0024,-0.02906 0.01197,-0.01686 c -0.0058,-0.01096 -0.01517,-0.03537 -0.01197,-0.0484 0.03446,-0.02792 0.07781,-0.02654 0.117506,-0.06042 0.04358,-0.03722 -0.03855,-0.11424 -0.04558,-0.149934 l 0.01677,-0.02901 c -0.01057,-0.01543 -0.03812,-0.0256 -0.05516,-0.03138 0.02069,-0.07174 -0.05141,-0.14785 -0.100703,-0.191052 -0.03095,-0.119607 0.03378,-0.09699 -0.06153,-0.208242 -0.01989,2.64e-4 -0.05444,-0.08004 -0.07276,-0.101246 l -0.0024,-0.02176 -0.05516,-0.03385 0.0072,-0.01692 c -0.03215,-0.05382 -0.05807,-0.113184 -0.08633,-0.169262 -0.0099,-0.01953 -0.05298,-0.04256 -0.06955,-0.06526 0.0053,-0.01261 0.01189,-0.02481 0.01917,-0.03631 -4.29e-4,-0.02211 -0.0046,-0.04643 0.0096,-0.06529 -0.0081,-0.02347 -0.0088,-0.05116 -0.02638,-0.07013 l 0,-0.02417 c -0.04449,-0.02129 -0.04195,0.02264 -0.06661,0.04062 -0.04647,-0.01591 -0.127649,-0.128944 -0.168313,-0.10548 l 0.0023,0.031 -0.05516,-0.0072 c -0.0087,-0.07045 -0.127017,-0.09497 -0.08155,-0.205516 l -0.0048,-0.03385 c -0.0056,-0.05878 -0.03389,-0.08931 -0.04558,-0.142688 -0.02929,-0.01238 -0.09164,-0.06409 -0.06715,-0.10151 -0.01483,-0.04742 -0.02026,-0.117143 -0.07676,-0.128142 -0.0015,-0.01757 -0.01475,-0.03229 -0.02878,-0.04109 -0.02109,-0.06145 0.03975,-0.06875 0.0072,-0.125766 l 0.01026,-0.03443 c -0.01394,-0.05411 0.11762,-0.110513 0.02806,-0.16143 -0.01695,-0.05141 -0.05116,-0.09919 -0.06473,-0.149846 0.0089,-0.02786 -0.0079,-0.04701 0.02395,-0.06535 -0.03489,-0.01584 -0.05481,-0.0613 -0.05753,-0.09914 0.04335,-0.05851 -0.06673,-0.212288 0.01197,-0.278075 0.01535,-0.09039 0.0651,-0.10764 -0.04638,-0.173895 -0.01295,-0.02678 -0.0547,-0.176594 -0.0016,-0.176682 -9.51e-4,-0.01528 -10e-4,-0.03094 0.0024,-0.04593 -0.01183,-0.01461 -0.02478,-0.02821 -0.03838,-0.04109 0.02115,-0.212435 -0.06895,-0.164833 -0.107846,-0.317993 -0.0083,-0.03288 0.01755,-0.08262 0.0072,-0.105176 -0.0089,-0.01906 -0.04023,-0.03353 -0.05996,-0.03138 -0.01698,-0.012 -0.04835,-0.05499 -0.05518,-0.075 l 0.03358,-0.0097 c 0.0013,-0.04573 0.05527,-0.04364 0.07436,-0.07737 -0.02932,-0.07042 -0.06207,-0.159201 0.04744,-0.167707 0.04307,0.02903 0.0821,0.06382 0.125222,0.09274 0.0082,0.02868 0.04807,0.06772 0.06718,0.09192 l 0.01437,0 0.04558,-0.02903 c 0.0093,-0.08421 0.10799,-0.05558 0.08156,-0.16445 l 0.01197,-0.0193 -0.0059,-0.103711 c 0.04221,-0.03039 0.09042,-0.05517 0.135622,-0.08071 0.0064,-0.01232 0.0094,-0.02654 0.0093,-0.04048 -0.009,-0.0132 -0.01334,-0.02983 -0.01197,-0.04584 0.0148,-0.02056 0.03755,-0.03963 0.05038,-0.06048 0.0068,-0.01111 -0.0036,-0.02965 0.0072,-0.03862 0.03209,-0.02687 0.0551,-0.01816 0.06438,-0.07159 0.01255,-0.0083 0.0266,-0.01437 0.04112,-0.01792 0.114963,-0.142836 -0.01266,-0.127908 -0.03835,-0.203108 0.02626,-0.04478 0.08282,-0.02255 0.05996,-0.118433 l 0.01677,-0.01455 c 0.01206,-0.05977 0.01655,-0.120662 0.05275,-0.171667 0.02835,-0.01276 0.05844,-0.02138 0.08513,-0.03786 -0.0095,-0.06001 -0.01889,-0.120046 -0.02995,-0.17979 l -0.02878,-0.02655 0.0048,-0.05077 c -0.09664,-0.04388 -0.170941,-0.130079 -0.258984,-0.188592 0.02163,-0.0464 0.05501,-0.161284 -0.01677,-0.176565 l -0.0168,0.01091 c -0.0258,-0.0037 -0.08976,-0.01076 -0.115076,-0.0012 l -0.024,-0.01208 -0.01437,-0.02179 -0.02638,-0.01208 c -0.02566,0.0032 -0.05315,0.0034 -0.06958,0.02663 -0.01635,-0.0018 -0.02612,-0.01578 -0.04075,-0.02176 l -0.02638,0.01209 c -0.01303,-0.07781 -0.06069,-0.07725 -0.06955,-0.118463 -0.01266,-0.05907 0.04786,-0.07054 0.05756,-0.120897 l -0.01917,-0.03147 0,-0.01933 c -0.01075,-0.01094 -0.02152,-0.02197 -0.03358,-0.03138 -0.01617,-0.04396 -0.05573,-0.202052 -0.08396,-0.224899 l -0.0024,-0.01692 c 0.007,-0.02109 0.01303,-0.131251 0,-0.147529 l 0.0024,-0.01686 c -0.0178,-0.01857 -0.06878,-0.157794 -0.08387,-0.192783 -0.06924,-0.160521 -0.132051,-0.07775 -0.191919,-0.124006 -0.05309,-0.16718 -0.116534,0.02604 -0.181175,-0.0491 -0.04747,-0.05523 0.08676,-0.143716 0.110334,-0.182695 -0.01423,-0.07671 -0.155226,-0.02453 -0.182774,-0.02828 -0.0198,-0.0027 -0.139625,-0.09658 -0.141625,-0.112919 -0.004,-0.03167 -0.0108,-0.04825 -0.01815,-0.07805 -0.0065,-0.0266 0.08484,-0.170582 0.113647,-0.181053 0.07556,-0.02748 0.113762,0.04831 0.172944,-0.07139 -0.006,-0.05634 -0.02275,-0.110631 -0.03266,-0.16624 -0.01549,-0.0096 -0.0051,-0.02408 -0.03158,-0.0281 l -0.0099,-0.03153 -0.07413,-0.01997 c -0.0075,-0.01663 -0.0075,-0.03484 0,-0.05142 -0.02075,-0.01778 -0.05395,-0.01686 -0.06093,-0.02326 -0.01034,-0.0094 -0.02034,-0.04253 -0.01812,-0.05649 0.0036,-0.02244 0.162743,-0.103329 0.187718,-0.109605 0.03658,-0.0092 0.112848,0.01364 0.160485,0.0057 0.01426,-0.0023 0.03246,-0.01331 0.04704,-0.0074 0.01375,0.0056 0.02061,0.01683 0.03789,0.01997 0.100246,-0.08623 0.136681,-0.04579 0.225639,-0.09133 0.08507,-0.04355 0.10679,-0.0055 0.189404,-0.0067 l 0.05432,-0.04144 0.03461,0 c 0.01846,-0.02141 0.03332,-0.04587 0.05269,-0.06649 0.05129,-0.05444 0.126964,-0.08388 0.176258,-0.139464 0.01132,-0.01273 0.01429,-0.02921 0.03455,-0.02824 0.03752,0.0018 0.07884,0.0022 0.09719,-0.0415 0.03009,-6.17e-4 0.07052,-0.01255 0.0955,-0.02995 -0.02403,-0.06088 -0.01323,-0.125735 -0.02797,-0.18765 -0.0057,-0.02399 -0.04038,-0.04837 -0.03786,-0.07306 0.01186,-0.116352 0.05816,-0.117905 -0.06753,-0.194251 -0.01875,-0.04854 0.0015,-0.10937 -0.01812,-0.149434 -0.0158,-0.03229 -0.05387,-0.05279 -0.06095,-0.08972 l -0.01812,-0.01 c 0.01015,-0.009 0.02189,-0.01557 0.03461,-0.01994 l 0.0032,-0.0232 c -0.11293,-0.100244 -0.08184,-0.181311 -0.255269,-0.227622 l -0.0099,-0.03317 c 0.06461,-0.103211 0.01514,-0.11377 0.04118,-0.184338 l -0.0214,-0.0498 c 0.0028,-0.01378 0.01132,-0.02813 0.01075,-0.04244 -4.58e-4,-0.01053 -0.06541,-0.07846 -0.07664,-0.0921 -0.01914,-0.02329 -0.04121,-0.0718 -0.06255,-0.08796 0.100903,-0.147264 0.10036,-0.225897 0.14491,-0.38199 0.01232,-0.04303 0.03746,-0.08488 0.03458,-0.131162 l -0.02304,-0.01997 c -0.02089,-0.0872 0.01334,-0.199383 -0.01486,-0.278984 -0.007,-0.02001 -0.02535,-0.03012 -0.03786,-0.04593 -0.02332,-0.02942 -0.03015,-0.06927 -0.05601,-0.0969 -0.05527,-0.05901 -0.05304,-0.06259 -0.06255,-0.146121 l -0.0214,-0.02487 c 0.0053,-0.01323 0.0053,-0.02766 0.01314,-0.03992 -0.01512,-0.02449 -0.0016,-0.10808 0.0033,-0.137732 0.01523,-0.01625 0.03589,-0.02531 0.0511,-0.04162 2.29e-4,-0.09086 -0.006,-0.20214 0.0049,-0.290569 0.0034,-0.02699 0.03306,-0.03807 0.04829,-0.05701 0.04029,-0.05012 0.06047,-0.209676 0.119679,-0.25681 0.03052,-0.02426 0.07018,-0.03807 0.06093,-0.08913 -0.0043,-0.02373 -0.06004,-0.05259 -0.05104,-0.08025 0.01149,-0.03537 0.115419,-0.05508 0.147368,-0.05071 0.06864,-0.0422 0.06838,-0.124269 0.05026,-0.195071 0.133852,0.01464 0.373465,0.192636 0.355004,-0.06358 -0.0025,-0.03472 0.02532,-0.06142 0.02124,-0.08071 -0.109732,-0.08658 -0.05504,-0.223727 -0.0897,-0.340606 -0.01935,-0.0652 -0.07009,-0.08784 -0.10539,-0.139463 -8.05e-4,-0.03681 0.02209,-0.06881 0.02635,-0.104589 0.0048,-0.04071 -0.0026,-0.07957 0,-0.1196055 0.0029,-0.04411 0.02792,-0.08151 0.02963,-0.129549 0.0058,-0.158879 -0.0827,-0.299163 -0.04067,-0.463057 0.09505,-0.01334 0.08573,-0.06637 0.146053,-0.108198 0.05415,-0.03754 0.220782,-0.0067 0.306968,-0.05115 0.04424,0.106556 0.134308,0.182872 0.204492,0.270568 0.03032,0.03783 0.150969,0.183691 0.194834,0.183485 0.01503,-5.8e-5 0.04841,-0.04083 0.0609,-0.05191 0.06155,-0.05473 0.131279,-0.09937 0.192232,-0.154831 0.07021,-0.06391 0.006,-0.09468 0.144112,-0.16363 0.35426,-0.176858 0.396068,0.241178 0.444362,0.265785 0.01363,0.0069 0.220495,-0.0723 0.245385,-0.08664 0.05606,-0.03223 0.102132,-0.07928 0.156256,-0.114444 0.04543,-0.02951 0.10979,-0.03848 0.149254,-0.07456 0.02018,-0.01845 0.03437,-0.07684 0.05258,-0.08553 0.03744,-0.01781 0.08776,0.03502 0.120106,0.0037 0.04329,-0.04198 0.01031,-0.162164 0.04587,-0.227539 0.05724,-0.105294 0.141711,-0.07092 0.173887,-0.122042 0.01397,-0.0222 0.02034,-0.04849 0.03443,-0.0706 0.0086,-0.01346 0.03338,-0.04549 0.04524,-0.05523 0.06721,-0.05508 0.118591,-0.147557 0.166456,-0.220793 0.03735,-0.05713 0.213724,-0.0611 0.228355,-0.102713 0.01511,-0.04314 -0.09882,-0.08335 -0.124136,-0.105734 -0.07467,-0.06605 -0.300966,-0.2653742 -0.300966,-0.3679408 0,-0.041324 0.180688,-0.083267 0.173487,-0.2198258 -0.0027,-0.051413 -0.142025,-0.3482874 -0.178831,-0.3860639 -0.02043,-0.020942 -0.04963,-0.033231 -0.06533,-0.058953 -0.06424,-0.1053521 0.03326,-0.5484942 0.02484,-0.586124 -0.0067,-0.029975 -0.05178,-0.194749 -0.04241,-0.2197671 0.0053,-0.014313 0.04581,-0.043525 0.05781,-0.061123 0.02046,-0.029945 0.02723,-0.067488 0.05144,-0.095116 0.03247,-0.037103 0.113133,-0.1236833 0.107504,-0.1755089 -0.04618,-0.029916 -0.11762,-0.1429237 -0.07719,-0.1719891 0.04944,-0.035577 0.115048,-0.04681 0.162885,-0.086347 0.02855,-0.02361 0.03815,-0.063147 0.06633,-0.086963 0.01326,-0.011175 0.03158,-0.01443 0.04235,-0.028948 0.04312,-0.058044 -0.0045,-0.074175 0.09756,-0.1245632 -0.05593,-0.070274 0.02337,-0.2064222 0.09836,-0.2144293 0.06081,-0.00648 0.118734,0.030885 0.137137,0.030063 0.12588,-0.00552 0.308712,-0.04241 0.42756,-0.073148 0.04092,-0.010559 0.09596,-0.2280382 0.147511,-0.2401513 0.05178,-0.012142 0.104562,0.017158 0.15357,0.00463 0.02184,-0.00557 0.04195,-0.021586 0.0651,-0.020795 0.04946,0.0017 0.0951,0.034521 0.146224,0.0293 0.05841,-0.00595 0.147026,0.025898 0.212695,0.035753 0.03244,0.00487 0.113906,-0.068016 0.130051,-0.095116 0.0086,-0.014459 0.01028,-0.033641 0.02103,-0.04681 0.02706,-0.033143 0.0723,-0.047544 0.09985,-0.081009 0.04861,-0.059012 0.07813,-0.094823 0.141111,-0.1405185 0.02469,-0.064614 0.02461,-0.1256189 0.02557,-0.1277892 0.0075,-0.017041 0.03229,-0.022526 0.04115,-0.04159 0.0087,-0.018654 -0.0077,-0.040504 0.0048,-0.058396 0.179058,0.064085 0.212036,-0.1619584 0.334314,-0.1785883 0.119821,-0.016278 0.248671,0.050535 0.353118,0.017305 0.03741,-0.011878 0.06352,-0.047074 0.103104,-0.053762 0.02295,-0.00387 0.06538,0.014371 0.08261,0.00428 0.06427,-0.037542 0.05721,-0.083385 0.150169,-0.076874 0.04426,-0.036281 0.08473,-0.015867 0.127964,-0.046224 0.02432,-0.01707 0.06913,-0.071711 0.08413,-0.07834 0.06772,-0.029858 0.16603,0.00619 0.234013,-0.034697 0.01974,-0.011908 0.01634,-0.03983 0.02998,-0.056782 0.05724,-0.071125 0.142911,-0.1089012 0.197949,-0.1869768 0.02169,-0.00393 0.04366,0.00522 0.06547,0.00463 0.02286,-0.051473 0.06064,-0.1108953 0.09573,-0.1545671 0.01617,-0.02015 0.04118,-0.032057 0.05483,-0.054319 0.01432,-0.023259 0.01532,-0.057369 0.03121,-0.078311 0.01052,-0.013931 0.02887,-0.018888 0.04201,-0.029505 0.02069,-0.016747 0.03584,-0.039536 0.05764,-0.054993 0.106162,-0.07529 0.210837,-0.039302 0.323742,-0.1634248 0.03669,-0.040358 0.0527,-0.1176121 0.08976,-0.1480271 0.01526,-0.012553 0.03527,-0.015867 0.05066,-0.028215 0.01961,-0.015691 0.02723,-0.033143 0.05407,-0.037894 0.03069,-0.00546 0.06144,0.00768 0.09236,0.00407 0.02758,-0.00323 0.06592,-0.023493 0.09245,-0.018537 0.01309,0.02276 0.02729,0.051356 0.04518,0.070245 0.05712,0.060243 0.146196,0.02801 0.217037,0.032028 0.06921,0.00393 0.130566,0.045285 0.197977,0.057984 0.05278,0.00994 0.152198,-0.0061 0.191547,0.034404 0.04138,0.042675 0.0079,0.080393 0.02797,0.1172599 0.04249,0.077841 0.0037,0.040035 0.014,0.094149 0.01117,0.058396 0.0835,0.073383 0.103818,0.1232429 0.01197,0.02933 -0.01211,0.063968 -0.0029,0.085496 0.0126,0.029653 0.04852,0.045872 0.05927,0.080041 0.005,0.016044 -0.0035,0.036017 0.0077,0.050095 0.06072,0.013697 0.04543,0.018654 0.0791,0.060361 0.01772,0.021938 0.04392,0.034727 0.05944,0.058806 0.0499,0.07746 0.05492,0.1831343 0.09919,0.2627352 0.02258,0.040563 0.156742,0.126792 0.161943,0.1684694 0.0012,0.00959 -2.9e-5,0.020414 -5.9e-5,0.030062 0.01094,-0.00302 0.03001,0.0073 0.03764,0.014343 0.03932,0.094148 0.05421,0.2577783 0.01394,0.3565607 -0.0072,0.017715 -0.02061,0.03191 -0.02601,0.050505 0.01132,0.030033 0.05535,0.1507251 0.06793,0.1684106 0.01486,0.020913 0.03326,0.00143 0.05455,0.062326 0.0095,0.026984 -0.01969,0.065083 0.01006,0.084998 0.01695,0.01135 0.07876,-0.030708 0.104303,-0.029799 0.08696,0.00311 0.196205,0.09013 0.264275,0.095057 0.06315,0.00457 0.114962,-0.060595 0.182087,-0.057398 0.03532,0.0017 0.07484,0.021147 0.10982,0.012142 0.09504,-0.02449 0.05041,-0.167795 0.332972,-0.1617237 0.02346,-0.024021 0.01734,-0.1709923 0.08764,-0.1981806 0.01889,-0.0073 0.0401,-0.00173 0.0585,0.00457 0.09279,0.031764 -0.0547,0.2265425 0.03915,0.2249586 0.03701,-6.145e-4 0.220295,-0.085467 0.214323,-0.1260884 -0.0011,-0.00754 -0.08759,-0.1161161 -0.09396,-0.1378491 -0.01363,-0.046634 0.03017,-0.045579 0.01529,-0.08359 -0.01683,-0.042968 -0.05235,-0.01182 -0.06372,-0.029154 -0.02304,-0.035049 -0.0095,-0.1152949 -0.04306,-0.1502266 -0.0204,-0.021235 -0.05835,-0.038803 -0.0745,-0.06083 -0.0088,-0.012084 0.02655,-0.046898 0.0018,-0.079454 -0.01914,-0.025282 -0.09896,-0.050741 -0.09239,-0.091685 0.0053,-0.032615 0.07324,-0.022056 0.0941,-0.042293 0.02595,-0.025224 0.02772,-0.075759 0.04584,-0.1075516 0.03632,-0.063704 0.102589,-0.1029179 0.140338,-0.1654781 0.03487,-0.057663 -0.05795,-0.120105 -0.02423,-0.1915226 0.03966,-0.084001 0.306281,-0.2714166 0.229239,-0.44936 -0.02214,-0.051181 -0.04338,-0.0884 -0.0078,-0.1407239 0.103276,-0.1520741 0.09136,0.070597 0.172745,-0.030913 0.05152,-0.064232 0.113991,-0.2250171 0.160656,-0.2663428 0.06024,-0.05338 0.150998,-0.051004 0.20375,-0.1157053 0.03509,-0.042997 0.03635,-0.1095464 0.06898,-0.1569432 0.03043,-0.044229 0.07267,-0.064701 0.106333,-0.1018618 0.0097,-0.010705 -0.01869,-0.072063 -0.0078,-0.092037 0.03249,-0.05951 0.107732,0.00795 0.153053,0.00478 0.06744,-0.00473 0.08244,-0.108813 0.232298,-0.028391 0.03755,0.020179 0.131309,0.2114667 0.222353,0.2625591 0.196549,0.110221 0.299595,0.051503 0.254159,-0.184161 -0.02141,-0.110954 -0.154713,-0.1539514 -0.158342,-0.2619138 -0.0024,-0.071477 0.133194,-0.1581456 0.160857,-0.2240493 0.03398,-0.080921 -0.08987,-0.083414 -0.05541,-0.1428941 0.08016,-0.1383774 0.19892,0.1478801 0.343288,0.060976 0.07681,-0.046253 -0.02509,-0.162721 0.07696,-0.1770046 0.256443,-0.035899 0.139824,0.1210435 0.263616,0.1568551 0.04947,0.014313 0.182689,-0.086083 0.260617,0.027189 0.03935,0.057164 0.07241,0.1268802 0.106647,0.1879445 0.04383,0.078164 0.03957,0.3138568 0.124878,0.3643333 0.123251,0.072943 0.176202,-0.088957 0.262475,-0.1137994 0.06007,-0.017305 0.07953,0.066755 0.115619,0.065523 0.06741,-0.00229 0.06553,-0.069717 0.106561,-0.095761 0.03481,-0.022056 0.07581,-0.012055 0.111792,-0.025693 0.06098,-0.023141 0.103446,-0.1830461 0.208206,-0.2041634 0.124279,-0.025077 0.172345,0.099046 0.193406,0.1027708 0.02295,0.00407 0.153141,-0.075084 0.18889,-0.076639 0.02063,-9.071e-4 0.05207,0.024461 0.07153,0.033289 0.07573,0.034404 0.166457,0.03892 0.237555,0.084088 0.0099,0.1157935 0.230497,0.04986 0.310168,0.071154 0.03963,0.010617 0.07684,0.050007 0.116249,0.065904 0.119649,0.048277 0.328314,0.045138 0.380437,0.1893523 0.01629,0.045109 0.114449,0.082622 0.134566,0.036897 0.0079,-0.018008 -0.01112,-0.070098 0.01637,-0.1042669 0.107019,-0.018507 0.08459,-0.027071 0.152828,-0.1286399 0.012,-0.1722238 0.03052,-0.170259 0.148339,-0.3217171 0.04323,-0.05558 0.389095,0.131221 0.47231,0.1051174 0.01249,-0.00393 0.02129,-0.013433 0.0338,-0.017422 0.01015,-0.015164 0.0268,-0.023552 0.03809,-0.037659 0.04529,-0.056665 0.0216,-0.1180813 0.04529,-0.1769166 0.0099,-0.024461 0.03975,-0.029858 0.04818,-0.055756 0.01009,-0.031031 0.0049,-0.063264 0.02226,-0.092829 0.09359,0.011791 0.180745,-0.071095 0.219294,-0.1500505 0.0164,-0.033641 0.0099,-0.191552 0.02803,-0.1979165 0.0731,-0.025605 0.19612,0.2267475 0.335687,0.1000432 0.07513,-0.068221 0.116049,-0.1645686 0.176174,-0.2449904 0.02614,-0.034991 0.06901,-0.05162 0.09344,-0.088458 0.05233,-0.078868 -0.06186,-0.23188019 0.08702,-0.28487909 0.03035,-0.010823 0.06432,-0.00244 0.09562,-0.00217 0.30128,0.00258 0.273676,0.33676319 0.38821,0.29361919 0.07581,-0.028596 0.107189,0.1081677 0.192661,0.1210435 0.144712,0.021821 0.427245,-0.038891 0.548952,-0.1223046 0.02649,-0.018155 0.08542,-0.1864193 0.08282,-0.21724499 -0.01252,-0.148056 -0.06473,-0.1875923 0.01409,-0.3373496 0.01575,-0.029916 0.03509,-0.059892 0.06387,-0.078076 0.0118,-0.00742 0.02632,-0.018243 0.04115,-0.014753 0.02761,0.016161 0.03989,0.046399 0.06764,0.060566 0.05672,0.028978 0.07036,0.027512 0.08213,0.031647 0.01317,0.00463 0.02403,0.016307 0.09056,0.085731 0.02238,-0.00472 0.03995,0.00549 0.04824,0.027277 0.03769,0.013814 0.05038,0.054319 0.09147,0.063382 0.0061,0.02757 0.08119,0.066813 0.106104,0.082974 0.02195,1.463e-4 0.04438,6.747e-4 0.06607,0.00437 0.04189,0.069893 0.113935,0.037777 0.161343,0.085144 l 0.0038,0.030005 c 0.02635,0.023493 0.127908,0.075759 0.134795,0.084088 0.017,0.020501 -0.0018,0.048218 0.02549,0.067722 0.03958,0.028391 0.103731,0.034873 0.126106,0.049685 0.01612,0.010647 8.05e-4,0.046135 0.05361,0.084029 l 0.0033,0.01751 c 0.01586,0.017275 0.0186,0.034404 0.04275,0.043642 0.01126,0.00428 0.03938,-0.00859 0.04227,0.00877 0.122678,0.099164 0.118964,-0.1386999 0.265245,-0.1386999 0.01806,0 0.03612,-0.00818 0.05252,0.00331 0.02797,0.019563 0.05004,0.075348 0.07581,0.1015101 0.02049,0.020824 0.0961,0.034111 0.108819,0.051854 0.101304,0.029828 0.06727,-0.068338 0.10179,-0.081859 0.05255,-0.020619 0.227353,0.029329 0.29345,0.03106 0.104389,0.00273 0.08599,-0.1538929 0.144568,-0.1980928 0.02061,-0.015545 0.07324,0.038862 0.104475,0.033847 0.07727,-0.012377 0.0408,-0.1098397 0.129936,-0.058454 0.0077,0.013726 0.01315,0.028626 0.02058,0.042558 0.05144,0.022584 0.07241,0.079513 0.142397,0.066021 0.01526,-0.00296 0.0371,-0.048218 0.05141,-0.059979 0.01314,-0.010823 0.0284,-0.020355 0.04063,-0.032234 0.0056,-0.00543 0.004,-0.033436 0.0081,-0.041473 0.02512,-0.048306 0.05147,-0.087784 0.07364,-0.13925736 0.0669,0.028392 0.0067,0.045256 0.140739,0.0661101 0.0188,0.032586 0.04344,0.00686 0.05795,0.058952 0.02698,-0.00255 0.03426,0.0047 0.03895,0.033289 0.01609,0.015222 0.03786,0.025722 0.0585,0.032761 0.03955,-0.040299 0.08573,-0.1380547 0.123392,-0.16321946 0.02557,-0.01707 0.05732,-4.972e-4 0.07636,-0.030561 0.08813,-0.1392278 -0.110361,-0.1746287 0.156999,-0.2653454 0.03355,-0.01138 0.101989,-0.045813 0.133738,-0.045226 0.03775,7.037e-4 0.02826,0.04549 0.05144,0.050711 0.02775,0.00628 0.06824,-0.00783 0.09745,-0.00927 0.01238,-0.015399 0.201521,0.011966 0.260417,-0.020736 0.02346,-0.013022 0.100989,-0.059774 0.111505,-0.081361 0.006,-0.012319 0.0064,-0.027248 0.01677,-0.037102 0.08956,-0.084939 0.0053,-0.067165 -0.06492,-0.064995 -0.07719,-0.1103968 0.0963,-0.072327 0.134251,-0.096113 0.05175,-0.032409 -0.03121,-0.1585269 0.122336,-0.1762714 0.01271,-0.013228 0.02595,-0.026074 0.03995,-0.037865 0.118478,-0.099574 0.10659,0.052647 0.168486,0.067282 0.01094,0.00258 0.0649,-0.017187 0.0655,-0.030005 0.03932,-0.021235 0.04601,-0.079396 0.0785,-0.1086078 C 35.534046,-0.004766 35.692731,-1.450039e-5 35.834784,4.349961e-5 L 35.835355,0.02658641 c -0.0396,0.025898 -0.114305,0.032116 -0.145111,0.066285 -0.03052,0.033817 -0.01072,0.059979 -0.02706,0.089514 -0.0098,0.017627 -0.02981,0.025546 -0.04115,0.042 -0.01786,0.025898 -0.01283,0.058513 -0.02166,0.087403 -0.0087,0.028596 -0.03166,0.053233 -0.03355,0.08403 -0.0012,0.019357 0.0064,0.042059 0.01514,0.058953 0.03449,0.067165 0.167086,0.1328927 0.224153,0.1883551 0.03918,0.0381 0.03218,0.085907 0.08661,0.1228326 0.05967,0.040475 0.133995,0.056987 0.185147,0.1108663 0.0258,0.027218 0.05101,0.09057 0.07847,0.1080504 0.004,0.00252 0.09307,0.018889 0.108275,0.0229651 0.12025,0.032468 0.152141,0.0652 0.246786,0.1399316 z"
         id="path4162" />
    </clipPath>
    <clipPath
       clipPathUnits="userSpaceOnUse"
       id="clipPath4164">
      <path
         inkscape:connector-curvature="0"
         style="fill:#fefee9"
         d="m 912.78282,28.702385 c 1.22301,1.760525 3.8621,1.454025 3.98356,1.535425 0.2885,0.1915 0.42075,0.589525 0.81875,0.5492 0.62025,-0.063 1.38575,-1.1556 1.9595,-0.368825 0.37425,0.514 0.5445,1.145325 0.833,1.707 1.04025,2.023025 2.19025,1.6432 2.4055,4.510163 1.13375,1.036825 3.4049,0.814624 4.4658,2.2166 -0.27725,0.637925 -1.0365,1.997349 -0.775,2.692464 0.1375,0.36515 0.5515,0.40475 0.75375,0.7171 0.50375,0.78165 0.59575,1.873425 1.286,2.548748 0.3165,0.3109 1.18225,0.62105 1.3565,0.876225 0.0575,0.0835 0.1575,0.860825 0.2585,1.0786 0.1975,0.426025 0.73375,0.526475 1.05525,0.825625 0.3845,0.359275 -0.25,1.267775 1.5795,2.613275 1.52325,1.1204 1.34375,-0.01757 2.11025,0.440675 0.3615,0.21625 -0.035,3.4939 0.2585,3.815055 0.2425,0.26325 2.8548,-0.73325 3.4892,-0.7743 0.105,1.801575 1.02675,1.40855 1.49375,2.4329 0.19,0.4165 -0.1725,1.54275 -0.03,2.1 0.33875,0.1445 0.70075,0.401825 0.6745,0.824175 0.8395,0.646725 2.67547,1.00015 3.15202,1.9563 0.48375,0.9686 -0.8995,2.03915 -0.58875,2.62061 0.68075,1.2751 1.911,2.1902 2.50688,3.545955 0.41225,0.940025 0.1225,2.033275 0.55225,2.961563 l 0.84725,0.34095 c -0.65875,2.766517 1.86175,3.22553 2.67832,5.16935 0.3415,0.8117 0.4315,1.78985 0.653,2.647732 0.125,0.489075 0.1,1.102075 -0.15,1.55815 0.16,-0.05725 0.36275,-0.15175 0.53375,-0.17075 0.875,-0.099 1.7495,0.2889 2.6183,0.33655 0.8515,0.04625 1.68025,-0.342425 2.49825,-0.3043 0.1075,0.0051 0.70075,0.3197 0.841,0.384225 0.52725,0.24575 4.70585,2.100725 4.77083,2.1638 0.50725,0.49495 0.52074,1.23185 0.88875,1.8089 -0.1925,0.548475 -0.93725,1.69525 -0.93725,2.184325 0,1.734125 0.6265,2.099275 1.09875,3.554028 0.3885,1.1937 0.0425,2.414575 0.16,3.63394 0.1475,1.49655 2.88407,5.211877 4.025,6.22669 -0.7165,0.1495 -2.0205,0.911422 -2.13325,1.728252 1.1995,1.60432 3.98712,2.51648 4.70297,3.4543 0.853,1.11747 0.46575,2.70126 1.891,3.48803 2.276,1.25605 5.60453,1.65785 6.31965,2.05455 1.38375,0.76845 0.873,2.39477 3.02268,3.03195 0.45725,1.90498 1.65175,1.30298 2.069,1.9717 0.3315,0.53305 0.49425,2.00028 0.841,2.41163 0.458,0.5448 1.7245,0.87477 2.35975,1.40122 1.13225,0.9393 2.77617,3.07522 4.31572,3.09722 0.73675,0.01 1.376,-0.50008 2.1175,-0.50448 0.75875,1.09693 1.1395,2.28113 1.8095,3.34066 0.47,0.74352 1.11875,1.3851 1.61675,2.20045 0.095,0.154 1.64325,-0.0785 1.98825,0.0808 0.7645,0.35195 1.30525,1.0808 2.02025,1.51562 l 2.00405,-1.07492 c 0.8845,0.47222 4.015,1.18417 4.3807,1.4819 1.0453,0.85422 0.8165,2.2056 2.5369,2.20045 1.3153,0.98767 2.509,3.11554 3.2334,3.66694 0.3072,0.23475 0.973,0.11075 1.1467,0.3109 0.403,0.46635 -0.2475,1.10352 0.065,1.59627 0.3565,0.56165 1.2838,0.36883 1.7788,0.70098 l 3.5713,2.3955 c 0.1925,0.129 0.783,-0.2603 1.0508,-0.21125 0.5535,0.1025 1.3245,1.3521 1.3572,1.9057 0.4615,0.63277 0.5615,0.6504 1.2438,0.97815 l 0.5815,-0.14825 c 0.8137,0.8557 1.2745,0.56312 2.0532,-0.047 0.2715,0.1225 0.4985,0.36515 0.63,0.63572 1.0073,-1.46867 2.6413,0.22375 4.1865,-0.11425 0.6453,-0.7457 4.5851,-2.00907 5.5438,-1.80892 0.868,-0.3395 0.8065,-0.85715 1.4383,-1.20693 -0.2275,1.00013 -0.1925,1.83385 -0.2743,2.83618 0.9765,0.65845 1.5088,1.34845 2.2305,2.26425 0.3208,0.0433 0.6468,0.063 0.9695,0.033 l 0.4038,0.42528 c 0.022,0.30575 -0.1975,0.98767 -0.065,1.2223 l 2.1497,3.76373 c 0.082,0.14375 0.9975,0.2933 1.2115,0.40768 0.5145,0.27277 0.8838,0.72665 1.503,0.7501 0.706,0.0263 1.029,-0.77433 1.6638,-0.94515 l 0.518,0.2933 0.7437,-0.24425 c 0.56,1.68865 1.8483,1.23405 3.1841,1.36822 0.593,0.0602 3.2556,1.07565 3.8793,1.38583 l 0.098,0.57117 c 0.4077,0.3395 1.9317,0.55873 2.4732,0.55288 l -0.016,0.44067 c 0.477,0.59833 1.5538,0.0417 1.9875,-0.35782 1.7653,1.38727 3.3549,-0.94883 3.8478,-1.27218 0.21,-0.138 0.3943,-0.077 0.5808,-0.3417 0.3457,-0.48907 0.04,-1.95482 0.728,-2.29725 0.3722,1.7246 3.4084,5.73322 4.5686,7.28623 0.9103,1.21937 1.939,2.69979 3.1885,3.56502 1.921,1.33082 6.0939,1.8595 8.2543,0.9752 1.0957,-0.44948 1.5172,-1.89178 2.874,-1.72533 1.1888,2.79145 3.1227,0.89823 3.9157,1.02435 0.3307,0.42603 0.4035,0.98035 0.495,1.49948 0.8707,4.94205 -3.7414,5.56237 -2.4283,7.49813 1.9575,-0.0388 3.2591,2.0868 5.1594,2.3911 0.3253,1.9651 -0.6507,1.33597 0.082,3.31279 -0.3107,0.66065 -0.3777,2.55535 -0.145,3.25119 -0.6645,2.15355 -0.58,1.8991 1.0538,3.10381 -0.065,0.5609 -0.7143,2.75553 -0.6815,2.99971 0.3592,2.67045 -1.5645,8.52538 0.082,10.12605 -1.2658,0.91075 -0.6008,1.66513 0.5372,2.08315 0.5545,0.9166 -1.1302,2.4615 -1.4675,3.27174 2.5748,1.96375 1.1258,2.84278 2.0668,4.95815 1.511,3.39933 2.9713,1.66975 4.0914,2.79148 0.115,0.443 0.1325,0.9165 0.3308,1.3345 l 0.413,0.125 c 0.4235,1.195 0.3965,0.973 0,2.125 0.7465,3.3802 3.0933,2.07075 1.1365,6.16655 0.2275,0.56375 0.082,1.05275 0.165,1.62475 0.225,0.235 1.5445,1.25675 1.4875,1.52075 -0.08,0.377 -0.7988,0.536 -0.888,1.2715 -0.1225,0.998 0.573,2.15725 0.8267,3.10307 0.2558,0.95475 -0.4122,1.75475 0.3238,2.70933 0.5207,0.185 1.1537,0.571 1.7217,0.3755 0.3623,-0.125 0.5935,-1.45925 1.591,-0.97975 2.4898,1.19575 1.654,1.916 2.9956,3.43742 0.405,0.45975 1.0288,0.80575 1.3018,1.37575 0.21,0.43925 0.037,1.00675 0.3099,1.41725 0.2001,0.302 0.6481,0.245 0.8268,0.5835 0.15,0.28375 -0.2607,0.71275 -0.2885,1.02 -0.03,0.308 0.6345,1.51275 0.8473,1.77075 0.7757,0.9385 0.018,2.83763 1.3225,3.31203 0.1725,0.638 0.6657,0.9695 1.3017,0.9385 -0.055,0.605 -0.5765,1.74125 -0.393,2.27075 0.5238,1.512 2.6748,5.28959 2.5205,6.77074 -0.18,1.72675 -1.2238,3.32377 -0.7016,5.1041 0.2351,0.80125 1.1795,0.94 1.4453,1.70925 0.3415,0.984 0.1425,2.52747 0.7238,3.39487 0.5015,0.74725 1.533,0.91725 1.984,1.70925 -0.07,1.828 0.7592,3.67355 2.0452,4.91788 0.3178,0.308 0.8403,0.79325 1.2808,0.874 0.1749,0.0325 0.748,-0.1625 0.7645,0.1475 0.045,0.8535 0.2815,3.74245 0.1324,4.4383 -0.1099,0.50975 -1.0844,0.88275 -1.0194,1.35275 0.1424,1.02875 1.8952,2.378 2.7683,2.7504 2.419,-1.787 2.2632,0.6775 4.4636,0.4165 0.768,-0.0925 1.2545,-1.127 2.0868,-0.896 0.6572,1.916 0.5895,2.00175 2.314,1.833 1.4852,-1.757 1.2367,-0.72225 2.4997,-0.56225 0.4858,0.0625 1.1358,-0.3035 1.736,-0.2075 0.4423,0.86375 0.6858,3.4536 1.4465,3.87447 0.302,1.1855 1.0895,1.113 1.1988,1.542 0.4957,1.96375 -1.2438,2.196 0.7252,4.02038 0.3093,0.286 0.796,-0.0133 1.14,0.1975 0.5753,1.33675 0.4,3.07007 1.0615,4.3034 0.2225,0.4135 0.7108,0.61075 0.901,1.0345 0.543,1.21125 0.6903,2.078 1.4795,3.20717 -0.06,3.13168 0.6495,2.10875 0.941,3.36558 -2.301,3.43012 0.4515,4.41487 0.045,5.97815 -0.2,0.76475 -1.216,0.79475 -1.7175,1.15925 -0.2862,0.21 -0.3185,1.76875 -0.838,1.99375 -0.4315,0.1875 -1.0652,-0.35775 -1.4575,-0.0975 -0.8845,0.59025 -0.8645,2.1265 -1.4752,2.97257 -0.4165,0.57475 -3.4364,5.01465 -3.3707,5.24563 0.1775,0.6275 0.048,0.739 -0.2375,1.2965 -1.1145,0.075 -1.8482,0.64075 -2.3347,1.6585 -0.3838,0.1625 -0.51,0.4905 -0.6985,0.83825 l -0.4188,0.1 c -0.3245,0.5815 -0.9287,0.90625 -1.2567,1.4775 -0.5965,1.036 -0.5235,2.5077 -1.433,3.33185 l 0.1,0.99575 -0.8188,0.2595 c -0.1525,0.3335 -0.1525,0.75525 -0.018,1.0955 -0.14,0.467 -0.5007,0.88575 -0.796,1.25825 l -1.038,0.12 c -0.8457,0.80875 -0.015,2.0075 0.7015,2.55022 -0.018,0.51925 -0.025,1.78775 -0.1975,2.2135 l -0.778,0.30075 c -0.9302,-0.58425 -1.2245,-1.42675 -2.2147,-0.0375 l -0.5595,-0.2985 c -0.4865,-0.03 -0.8915,0.28825 -1.3775,0.0825 -1.6295,-0.68925 -1.8968,0.09 -3.3312,0.28675 l -0.16,-0.5185 c -0.5643,0.41725 -0.3438,1.171 -0.676,1.71575 -0.4715,0.215 -1.0495,0.258 -1.3553,0.74125 l -0.7372,0.022 c -0.5245,0.57175 0.02,2.3705 -0.255,3.07083 -0.2425,0.6145 -1.048,1.1145 -0.9345,1.8545 0.1425,0.92675 2.0217,1.58375 1.8202,3.16467 -0.055,0.43625 -0.32,0.80575 -0.398,1.237 0.8223,1.62275 0.753,1.4855 0.245,3.18815 0.3673,1.5785 -0.105,1.20475 -0.6352,2.43425 0.335,1.1505 -0.283,1.7195 0.3042,3.10673 -0.398,0.594 -0.6072,1.3075 -0.7945,1.99525 0.58,0.95175 0.048,5.20895 1.2268,6.21645 1.5837,0.0775 2.7255,-0.51125 2.7133,1.707 0.8415,0.59925 1.0875,0.97375 1.638,1.9095 -0.043,0.327 -0.185,0.63725 -0.3777,0.89825 0.032,0.47375 0.4807,0.79475 0.4807,1.275 0,2.023 -0.1075,3.77475 2.1783,4.41852 -0.01,0.379 0.05,0.7625 -0.037,1.1365 l 0.2,0.497 c -0.3958,0.89375 -0.9523,1.76125 -1.431,2.61328 0.047,0.92825 0.4695,1.875 0.125,2.79142 0.338,0.6805 0.5792,2.26 -0.2958,2.5517 -0.7687,-0.2735 -2.146,-0.245 -2.8484,0.205 0.048,1.4935 -0.1725,2.166 -0.5322,3.56868 l 0.3792,0.676 c -0.3095,0.92175 1.7483,5.37322 2.7177,5.61372 0.4472,0.5595 0.8402,1.168 1.1972,1.79125 -0.078,0.27875 -0.093,0.6005 0.062,0.85725 -0.05,0.92975 -0.605,1.762 -0.3142,2.71005 -0.736,1.12425 0.6287,3.2197 -2.9612,4.29243 l -1.3332,2.73352 c 0.2892,0.38725 0.9602,0.638 1.1352,1.059 -0.18,0.35475 -0.2987,0.73175 -0.3965,1.118 0.253,0.70525 0.948,2.6873 0.4995,3.33768 0.037,0.41925 -0.105,2.034 0.06,2.2775 0.3,0.4445 1.5275,0.59775 1.991,1.2385 -0.1975,0.86075 -0.1725,1.88875 -0.5157,2.69832 -0.15,0.35575 -0.6265,0.94525 -0.5558,1.33825 0.6985,3.8796 8.5829,7.61985 3.6071,11.3902 -0.6378,1.5515 -1.421,3.0334 -2.1533,4.53948 -0.43,-0.045 -1.221,-0.37975 -1.6095,-0.24 -1.2317,0.44725 -2.7176,4.83722 -3.8478,6.0104 0.085,0.9655 0.6272,1.897 0.623,2.85742 0.4257,0.423 2.116,1.25175 2.2447,1.69675 0.1125,0.393 -0.1825,0.77575 -0.12,1.17825 0.215,1.35925 0.9458,2.84793 1.4788,4.1091 0.1725,0.41275 0.5257,1.09775 0.4485,1.55075 -0.253,1.473 -1.4768,2.88458 -1.364,4.57028 l 0.4757,7.09412 c 0.013,0.195 0.4673,1.0405 0.5438,1.43875 -0.3885,0.90125 0.037,3.90523 -0.3415,5.31818 -0.6588,0.40175 -3.6149,0.723 -4.3229,0.432 -0.4407,0.1175 -1.9652,2.17125 -2.3267,2.66092 -2.7276,2.28775 -1.6433,3.43745 -5.866,2.5033 l -0.1675,1.30675 c -2.9206,-0.66725 -4.7652,-1.54925 -7.8492,-0.87625 l 0.05,0.4025 c -1.4745,0.64875 -3.2098,0.82575 -4.7637,0.382 -0.3565,-0.46425 -0.8072,-0.84975 -1.105,-1.36075 -0.3957,0.78525 -1.708,0.2925 -2.5568,0.759 -0.388,-0.195 -0.7603,-0.1125 -1.1033,0.1275 -1.3267,-0.27 -2.4155,-0.6285 -3.7871,-0.34975 -0.4193,0.085 -0.783,0.1625 -1.2038,0.025 -0.21,0.37325 -1.5982,0.995 -2.029,1.23925 -0.3777,-0.1975 -1.0165,-0.385 -1.2802,-0.73025 -1.026,0.25375 -2.1025,0.783 -3.1328,1.11525 -1.4752,-0.627 -4.3329,0.0475 -5.5638,1.04175 -0.3858,0.0275 -0.813,-0.1325 -1.1288,-0.35125 l -0.8267,0.33 -0.6288,-0.58 -0.7525,-0.2 -1.083,-1.46075 0.225,-0.55725 c -0.6665,-0.2325 -0.9125,-1.03375 -1.4082,-1.48325 -1.451,0.44875 -0.2025,1.784 -0.9965,2.70125 -1.2388,-0.77575 -1.0695,-0.1725 -2.1568,-0.0475 l -0.678,-0.503 -0.05,-0.73175 -0.5265,0.125 c 0.012,0.5985 -0.4622,1.01325 -0.8487,1.3895 l 0.3035,0.984 c -1.0965,0.9085 -0.7938,1.40275 -1.5232,2.2745 l -0.7265,0.23 0.077,0.682 c -1.221,-0.0475 -1.398,-0.2595 -1.6765,1.0625 -0.4165,-0.195 -2.1948,-0.682 -2.5091,-0.3475 l -3.207,0.46925 -0.4015,-0.1825 0.075,0.555 c -0.1875,0.363 -0.9375,0.48325 -1.2752,0.93625 -0.6658,0.8915 -2.6848,6.53975 -2.9091,7.70195 -0.022,0.1125 0.7052,3.91188 0.815,4.21175 l 0.7272,0.0475 c 1.7568,1.28775 2.0568,2.01875 0.663,3.708 0.2175,0.745 -0.583,1.215 0.105,1.99225 l -0.4492,0.6835 -0.651,0.253 -0.072,0.43025 0.3012,0.4025 c -0.9865,0.1225 -0.6677,0.80875 -0.9222,1.51575 -0.3013,0.1775 -0.558,0.43775 -0.7495,0.734 -0.01,0.619 0.5522,0.77875 0.8307,1.2355 -0.5872,1.27425 0.8823,2.14175 0.8095,2.7218 -0.4922,3.92428 -1.2365,7.77383 -1.618,11.7304 -0.7987,8.29443 -1.0902,16.63138 -1.8982,24.9258 -0.32,3.28785 0.025,7.15645 -0.9103,10.30863 -0.235,0.789 -5.3159,8.60315 -5.8709,8.99985 -1.165,0.83225 -3.6121,0.53675 -5.0359,0.844 l -1.631,1.946 c -2.5083,-1.00975 -3.1342,-4.7954 -4.9237,-6.5317 -0.9403,-0.91225 -2.1333,-1.38875 -3.0584,-2.2415 -0.3708,-0.34175 -0.8858,-2.09625 -0.9395,-2.63308 -1.0808,0.1 -1.0875,-0.92675 -1.5045,-1.63375 -0.46,-0.77875 -2.4183,-1.545 -1.5825,-2.72035 -0.2503,-0.871 -0.9588,-1.48625 -1.2483,-2.3345 -0.5542,-0.3725 -1.1715,-0.6285 -1.749,-0.9575 -0.2175,-0.7925 -0.1975,-1.63 -0.4015,-2.42625 -1.2122,0.2 -2.314,0.8205 -3.547,0.926 l -0.3193,1.2195 -0.3723,0.2715 c -0.4342,0.0124 -0.8687,-0.2275 -1.2602,-0.2175 -1.721,0.0425 -1.778,3.42353 -2.206,4.39725 -0.2823,0.6415 -1.2802,0.871 -1.4495,1.454 -0.3445,1.1835 2.211,1.897 -0.02,4.8394 -0.1,1.50375 -5.2001,7.20265 -6.3482,8.87808 -0.5657,0.8265 -0.8872,1.8095 -1.5632,2.55755 -0.9338,1.03225 -8.21855,6.8441 -9.27302,7.2657 -0.63725,-0.1525 -1.2725,0.045 -1.914,0.0425 -2.8505,-0.0103 -4.12286,-0.728 -5.75883,-3.10015 -0.96675,-1.40125 -1.23175,-0.8785 -2.009,-2.91393 -5.64385,0.135 -10.63825,0.3915 -16.1585,1.484 -0.58375,0.115 -2.6512,0.63425 -3.08912,0.5105 -0.56651,0.47075 -5.53525,2.3485 -6.05675,2.15 -0.6615,0.4025 -1.32675,0.84325 -2.034,1.15775 -0.3185,-0.125 -0.57525,-0.368 -0.90725,-0.4605 -2.379,0.86225 -2.66975,-0.9575 -5.00013,1.5015 l -0.58725,0.025 c -0.4935,-0.71775 -2.19325,-1.426 -2.37325,-1.891 l -0.40075,-0.11 c -0.27575,0.2075 -0.625,0.30575 -0.963,0.32325 -0.33875,-0.225 -0.645,-0.597 -1.0665,-0.65025 l -0.26875,0.67475 c -0.6495,0.1325 -1.2965,0.45175 -1.7125,0.99575 -0.37,-0.1225 -0.73375,-0.31025 -0.9875,-0.62175 -1.3595,-0.34825 -2.9312,1.734 -3.57845,-0.62625 -1.89175,-0.1125 -4.13642,2.0165 -5.79887,0.3205 -0.0325,-1.688 -3.1291,-3.36265 -4.45433,-3.94337 -0.3565,-1.62925 0.34075,-2.21225 1.316,-3.3172 -3.98425,-1.633 -3.46772,-0.882 -5.66882,1.80375 l -3.0984,-0.51475 c -0.1725,-0.9965 -0.9465,-0.77275 -1.57525,-1.215 -0.115,-0.86525 -1.86025,-0.993 -2.48475,-0.78375 -0.33875,0.55875 -1.1745,1.63225 -1.33875,2.185 l -0.535,0.297 c -1.26675,-0.816 -3.34845,-1.734 -4.86158,-1.37775 l -0.055,0.83675 c -0.5085,0.35725 -0.9395,-0.05 -1.416,0.08 0.0375,0.61375 -0.045,1.70925 -0.93725,1.537 l -0.3735,-0.45825 c -0.62575,0.351 -1.24375,0.7375 -1.76525,1.2415 l -0.53425,-0.19 c -0.83225,0.443 -0.0725,2.5297 0.13,3.4008 -0.72875,0.24 -1.86325,0.1975 -2.56475,-0.135 0.1475,-0.6065 0.2225,-1.23775 -0.4,-1.56475 0.009,-0.47575 -0.0825,-0.94875 -0.2125,-1.4035 0.3185,-0.6475 0.44925,-1.369 0.75025,-2.02375 -0.82725,-0.786 -0.668,-2.53263 -0.98525,-3.64278 -2.4125,-1.275 -0.94225,-3.2101 -0.26225,-5.01827 l -0.393,0.0175 c -0.6265,0.50375 -1.50375,0.432 -2.14825,0.90125 -0.7115,0.5185 -0.6415,1.256 -1.711,1.2415 -2.1605,-0.03 -2.011,1.267 -4.00855,-1.484 -2.41975,-0.92475 -4.95372,-2.8032 -7.48415,-1.80375 -0.308,-0.34225 -0.6865,-0.475 -1.06875,-0.701 -1.04175,-0.6145 -0.63075,-2.1505 -0.77375,-3.1566 -0.90575,-0.94075 -2.2925,-1.0235 -3.50202,-0.9145 -0.3665,-0.1925 -0.64225,-0.547 -0.77525,-0.94375 -0.828,0.04 -3.192,0.355 -3.82355,0.1925 l -0.215,0.57775 -0.88875,-0.781 c -0.86075,-0.095 -2.28975,1.831 -3.09695,1.41725 -2.71763,-1.39025 -1.65675,-0.4415 -4.18503,-0.6335 -0.8015,-0.56025 -1.93675,-0.91575 -2.55115,-1.7055 -0.2125,-0.27125 -0.315,-0.6035 -0.5745,-0.83825 -0.9295,0.3975 -1.708,1.08 -2.60902,1.53325 -0.18,0.59825 -0.59225,1.07575 -0.918,1.59175 l 0,0.89525 c -2.69615,-0.95975 -10.50108,0.371 -12.29853,2.52602 0.0575,1.097 -0.46075,1.534 -1.003,2.3705 l -0.37225,0.085 c -1.3645,4.90168 -1.524,2.8611 -4.2979,5.7882 -0.065,0.62325 -0.3365,1.21725 -0.31375,1.85075 -0.6415,0.6995 -0.66225,1.691 -1.1745,2.45925 -0.085,0.13 -3.26627,1.6665 -3.46632,1.6815 -1.8395,0.13 -1.86025,-1.61325 -3.38058,0.66875 -0.763,-0.25 -1.669,-0.68275 -2.26475,-1.23775 -1.33875,0.24 -2.246,-2.67785 -3.3563,-3.436 -1.071,-0.73025 -3.437,-0.91375 -4.21355,-1.5545 -0.44525,-0.3675 -0.79725,-0.896 -1.4345,-0.8645 -0.3165,0.35575 -0.68275,0.70325 -1.146,0.84025 -0.77,-0.4385 -0.986,-0.9225 -1.9495,-0.574 l -0.43075,-0.6645 c -0.435,-0.18 -0.643,-0.7655 -0.5465,-1.2135 -0.2765,-0.3675 -0.74225,-0.48825 -1.0615,-0.80575 l -0.91725,0.03 -0.31575,-0.462 c 0.0201,-0.698 0.61375,-1.09625 1.00175,-1.59125 -0.1025,-1.78475 -1.638,-2.18075 -2.29825,-3.58187 -0.3695,-0.003 -0.72925,0.065 -1.06025,0.235 -0.50375,-0.0625 -0.9645,-0.27875 -1.4345,-0.45825 -0.25775,-0.92825 -0.928,-1.88525 -1.92375,-2.02 0.19,3.78207 -0.7615,6.8595 -5.09305,5.93857 -0.433,1.52675 0.408,1.0895 -1.4015,1.91075 -0.25,3.31425 -4.7594,2.303 -4.43435,4.7822 -0.67075,0.627 -3.24772,0.28225 -4.21217,0.3865 -1.45375,0.1575 -2.7833,0.8895 -4.23928,1.05375 -0.29725,0.27725 -0.323,0.62825 -0.543,0.926 -0.26575,0.36 -2.89835,0.4465 -3.43987,0.4845 -0.29425,0.2705 -0.5945,0.60275 -0.9845,0.725 -1.72175,-0.5985 0.115,-1.526 -3.61633,-1.0235 -0.2815,0.1875 -0.66525,0.33 -1.00725,0.2645 -0.155,-0.396 -0.33575,-0.79775 -0.62025,-1.11525 l -1.22375,0.338 c -0.45875,1.02075 -0.91175,2.81638 -1.94825,3.36045 -0.29725,0.155 -0.613,0.1575 -0.863,0.4105 -0.5065,0.5125 -0.51225,1.388 -1.1065,1.83675 l -0.69525,-0.12 -0.69575,0.3615 c -2.05175,-0.65425 -1.361,1.35925 -2.1855,2.73133 -0.415,0.065 -0.793,-0.1725 -1.198,-0.22 -1.854,1.1695 -3.89635,2.02225 -5.63595,3.381 -0.38875,2.031 -0.32925,1.11875 -1.39325,2.0795 -3.63205,3.28122 -4.68367,2.25475 -6.0896,3.45502 0.1125,0.94875 1.026,2.169 0.66725,3.09868 l -0.69525,0.24 0.335,0.48475 c 0.1,1.396 -0.65075,1.54425 -1.0815,2.6118 -0.33275,0.82575 -0.0725,1.757 -0.36225,2.58907 -0.1625,0.46575 -0.553,0.79625 -0.768,1.23325 1.21375,1.3755 2.84405,4.0922 1.836,5.93115 0.30425,1.1085 1.35025,1.86975 1.576,2.92785 l -0.55075,0.025 c -0.5215,0.5725 -0.57225,1.267 -0.98375,1.839 -0.1925,0.26675 -2.5083,2.306 -2.7805,2.369 l -0.1425,-0.4355 c -0.555,0.25575 -0.56225,0.95825 -1.0545,1.28025 -0.37025,0.2425 -4.79727,-0.64525 -5.5524,-0.80125 0.53425,1.8655 0.53725,4.24183 0.736,6.19518 -0.473,0.185 -0.988,-0.09 -1.4595,-0.1475 -0.2425,0.71775 -1.62175,0.67825 -2.2025,0.9655 0.16,0.41425 0.29,0.8425 0.358,1.284 -0.4215,0.305 -0.87875,0.4985 -1.34025,0.725 -3.0777,-0.44075 -2.001,1.275 -3.68565,0.9415 -0.08,0.39525 -0.0178,0.84025 -0.0975,1.21 -0.1175,0.5535 -1.6155,0.698 -2.0105,1.23475 -0.743,1.00675 -1.206,2.23575 -1.941,3.26515 0.0725,0.56525 0.3215,1.07275 0.45375,1.62125 -0.658,1.6205 -0.263,2.468 -1.874,3.7586 -1.1545,0.92475 -4.30792,-0.4745 -5.2338,2.259 -0.3035,0.1675 -1.01375,0.88575 -1.266,0.92025 -4.52575,0.61825 -4.8501,3.94707 -6.2825,3.56505 -0.83225,0.79775 -1.221,2.0075 -2.2175,2.6404 0.0875,1.55825 -0.34575,7.55092 0.736,8.21452 0.528,1.4355 1.67175,3.00408 0.01,4.1802 0.1125,0.476 0.2275,0.95675 0.43275,1.40125 -1.6075,2.62868 -4.93657,1.12625 -5.24305,6.05513 l -0.9315,0.363 c -0.64,1.47225 -2.09475,0.704 -3.24912,0.51625 -1.17875,0.8 -2.65118,0.46925 -3.96568,0.37475 -1.04375,0.9195 -2.71762,2.023 -4.13,1.41225 l -0.002,-0.60425 c -0.78575,-1.12925 -4.4822,-2.42275 -5.69382,-2.29575 -0.58725,0.47375 -1.336,0.706 -2.08025,0.65975 -0.293,-0.2475 -0.803,-0.781 -0.841,-1.1835 -2.86265,-2.35675 -2.70835,-1.73625 -5.3002,-3.32085 -0.26,-0.16 -0.61575,-0.07 -0.885,0.004 -0.53925,-0.63125 -1.6575,-2.4885 -2.6869,-1.5655 -0.3295,0.2955 -0.56025,0.94425 -1.04875,1.06975 -0.5015,0.13 -1.013,-0.4955 -1.74825,-0.2125 -0.61,0.235 -1.32025,0.74125 -1.961,0.321 l -0.2425,-0.38575 c -3.47058,1.21875 -0.32425,3.07523 -3.407,4.36938 -0.97175,1.29275 -6.53685,7.88305 -2.9105,8.6992 -0.05,0.547 -0.0575,1.12175 -0.2325,1.646 0.1975,0.5345 0.57225,0.97675 0.9615,1.377 -0.16,1.21275 0.008,2.40725 -0.2025,3.6303 -0.87225,0.3115 -0.966,-0.25975 -1.55525,-0.25975 -0.6615,0 -1.23675,0.40625 -1.91325,0.34625 -0.7565,-0.0675 -1.4125,-0.5345 -2.13175,-0.7415 -3.32773,-0.9545 -2.144,-0.16 -4.4672,1.2275 -0.2865,0.17 -0.8165,-0.23 -1.17375,-0.165 l -0.47575,0.657 c -0.45075,0.1325 -0.88575,0.125 -1.241,0.48775 -0.1075,1.38375 -1.0665,5.02777 -2.9998,3.2812 -2.6883,0.35125 -3.56275,2.26125 -5.1223,4.4039 -1.361,-0.7905 -1.78825,-0.75025 -2.74763,0.44725 0.0375,0.5765 -0.3165,0.8095 -0.52075,1.28625 -1.093,2.55312 -0.35575,2.229 -2.61047,4.24835 -0.58,-0.2475 -1.0645,-0.6885 -1.48725,-1.1555 -0.4295,0.0238 -0.9395,0.055 -1.26875,-0.2845 -1.94025,0.74225 -3.81995,1.90275 -5.92318,1.336 -0.5815,-0.6665 -0.46875,-3.22988 -0.953,-4.25348 -0.4015,-0.8505 -3.49562,-1.59275 -4.34075,-2.4695 -1.2865,-1.33525 -1.20025,-2.9609 -1.71525,-3.54962 -0.62575,-0.71475 -1.531,-1.0895 -2.11525,-1.8515 -0.39425,-0.51325 -2.78905,-3.97348 -2.89265,-4.3173 -0.17,-0.569 0.0108,-1.26475 -0.2965,-1.789 -0.31375,-0.536 -1.166,-0.57425 -1.65525,-0.863 -0.498,-0.2925 -0.48075,-0.58875 -0.843,-0.866 l -2.554,0.91 c -2.96337,-1.275 -6.47112,-0.69075 -9.43092,-1.97375 -9.08228,2.97695 -8.64865,3.48947 -16.8336,-1.94825 l -0.4295,-0.341 c -2.64835,-0.1075 -5.29238,-0.30875 -7.9421,-0.374 -4.195,3.3663 -7.89423,7.31707 -11.81918,10.9964 -1.91325,1.7935 -4.00357,3.39715 -5.83387,5.28377 -0.5145,0.531 -0.88875,1.19575 -1.46525,1.66525 -1.66825,-0.45025 -7.31198,3.16168 -8.9787,3.0451 -0.93575,0.679 -2.63545,0.78525 -3.7578,1.02725 -0.775,-0.5105 -1.8725,-0.25975 -2.60688,0.21 -0.1175,0.3225 -0.29575,0.80425 -0.6015,0.99075 -1.2495,0.7625 -10.13317,0.6365 -12.05495,1.6615 -4.8787,-1.157 -2.9591,-0.505 -7.10622,1.8955 l -3.19785,-1.45825 c 0.2425,-1.6645 -1.323,-2.84277 -1.674,-4.3605 -1.018,-0.877 -7.0305,-3.94927 -8.0771,-3.0694 -1.5095,-2.70935 -4.0107,-1.6695 -6.28753,-2.22825 -0.2,0.41725 -2.7169,2.58983 -3.25557,3.0686 -2.35625,0.33525 -3.75133,0.2175 -6.3175,0.97075 -0.56725,1.27075 -0.813,1.5435 -2.00325,2.218 -0.7345,3.32965 -2.69333,1.11525 -4.7108,5.56678 -1.7775,0.85125 -2.84623,0.03 -4.6651,1.33225 -1.2925,-0.2275 -2.6169,0.3335 -3.88998,0.0725 -0.5065,-0.105 -0.715,-0.45675 -1.28725,-0.29475 -0.9845,0.27875 -1.2445,0.74 -2.42475,0.75875 -16.20425,0.26625 -32.4142,-0.49625 -48.62055,-0.43025 -0.50925,-4.63995 -2.03975,-15.26028 -0.42425,-19.31725 -0.2225,-1.198 -2.43125,-2.13825 -3.01697,-3.28788 -0.40275,-0.7905 -0.37425,-2.61472 -1.193,-3.03487 -0.68425,-0.35125 -1.5395,-0.2735 -2.244,-0.03 -1.6975,-1.545 -3.33915,-6.333 -6.28183,-5.1268 -1.53825,-2.9403 -3.84495,0.62825 -5.4452,0.62825 -1.35525,0 -2.4955,-0.8235 -3.7685,-1.17175 -1.136,0.7495 -1.43025,2.16825 -1.37675,3.4675 -1.0345,-0.286 -4.74227,-0.90425 -5.3538,-1.3565 -0.6945,-0.511 -1.0815,-1.347 -1.67525,-1.9615 -3.34987,-0.61525 -11.9285,-4.86283 -15.25907,-6.62188 -2.38675,3.43083 -4.8773,6.96945 -6.57758,10.8256 -0.5465,1.23775 0.46075,3.43223 -0.988,4.21315 -2.30475,1.24225 -4.25217,4.09148 -6.99977,3.92068 -2.49975,-0.155 -4.3736,-2.00175 -6.76045,-2.47325 -1.26175,-0.25 -2.9641,0.51025 -3.94855,-0.602 -2.469,0.42975 -4.58435,1.4305 -7.0005,0.12 -0.85375,-0.46425 -0.6515,-1.413 -1.966,-1.1665 -0.64075,-0.33525 -5.54453,-2.834 -5.60243,-3.02683 -3.9371,-13.0286 -7.43702,-26.64345 -10.1282,-40.00087 -0.32,-1.58975 -0.27425,-3.24535 -0.743,-4.8057 -3.60202,-11.98043 -6.81547,-24.08403 -10.5154,-36.03295 -2.01325,0.0925 -12.97722,1.14175 -13.8138,-0.24 -0.40275,-0.1125 -0.7395,0.085 -1.13875,0.06 -3.44987,-0.2125 -7.38627,-0.954 -10.6111,-2.23625 -0.665,-1.119 -0.63025,-2.4315 -1.03375,-3.64055 -0.6915,-2.06775 -2.87695,-3.21088 -3.46275,-5.30573 -0.2025,-0.72375 0.2475,-2.09925 1.1395,-2.05525 0.04,-0.44725 0.39425,-0.76625 0.6595,-1.0875 l 0.06,-0.7265 0.29925,-0.4215 c -0.145,-0.274 -0.37925,-0.88425 -0.29925,-1.21 0.8615,-0.698 1.94525,-0.6635 2.93765,-1.5105 1.0895,-0.9305 -0.96375,-2.856 -1.1395,-3.74835 l 0.41925,-0.72525 c -0.26425,-0.38575 -0.953,-0.64 -1.379,-0.7845 0.51725,-1.7935 -1.28525,-3.69625 -2.51757,-4.7763 -0.77375,-2.99017 0.8445,-2.42475 -1.53825,-5.20605 -0.49725,0.007 -1.361,-2.001 -1.819,-2.53115 l -0.06,-0.544 -1.379,-0.84625 0.18,-0.423 c -0.80375,-1.3455 -1.45175,-2.8296 -2.15825,-4.23155 -0.2475,-0.48825 -1.3245,-1.064 -1.73875,-1.6315 0.1325,-0.31525 0.29725,-0.62025 0.47925,-0.90775 -0.0107,-0.55275 -0.115,-1.16075 0.24,-1.63225 -0.2025,-0.58675 -0.22,-1.279 -0.6595,-1.75325 l 0,-0.60425 c -1.11225,-0.53225 -1.04875,0.566 -1.66525,1.0155 -1.16175,-0.39775 -3.19123,-3.2236 -4.20783,-2.637 l 0.0575,0.775 -1.379,-0.18 c -0.2175,-1.76125 -3.17542,-2.37425 -2.03875,-5.1379 l -0.12,-0.84625 c -0.14,-1.4695 -0.84725,-2.23275 -1.1395,-3.5672 -0.73225,-0.3095 -2.291,-1.60225 -1.67875,-2.53775 -0.37075,-1.1855 -0.5065,-2.92857 -1.919,-3.20355 -0.0375,-0.43925 -0.36875,-0.80725 -0.7195,-1.02725 -0.52725,-1.53625 0.99375,-1.71875 0.18,-3.14415 l 0.2565,-0.86075 c -0.3485,-1.35275 2.9405,-2.76282 0.7015,-4.03575 -0.42375,-1.28525 -1.279,-2.47975 -1.61825,-3.74615 0.2225,-0.6965 -0.1975,-1.17525 0.59875,-1.63375 -0.87225,-0.396 -1.37025,-1.5325 -1.43825,-2.4785 1.08375,-1.46275 -1.66825,-5.3072 0.29925,-6.95187 0.38375,-2.25975 1.6275,-2.691 -1.1595,-4.34738 -0.32375,-0.6695 -1.3675,-4.41485 -0.04,-4.41705 -0.0238,-0.382 -0.025,-0.7735 0.06,-1.14825 -0.29575,-0.36525 -0.6195,-0.70525 -0.9595,-1.02725 0.52875,-5.31087 -1.72375,-4.12082 -2.69615,-7.94982 -0.2075,-0.822 0.43875,-2.0655 0.18,-2.6294 -0.2225,-0.4765 -1.00575,-0.83825 -1.499,-0.7845 -0.4245,-0.3 -1.20875,-1.37475 -1.3795,-1.875 l 0.8395,-0.2425 c 0.0325,-1.14325 1.38175,-1.091 1.859,-1.93425 -0.733,-1.7605 -1.55175,-3.98003 1.186,-4.19268 1.07675,0.72575 2.0525,1.5955 3.13055,2.3185 0.205,0.717 1.20175,1.693 1.6795,2.298 l 0.35925,0 1.1395,-0.72575 c 0.2325,-2.10525 2.69975,-1.3895 2.039,-4.11125 l 0.29925,-0.4825 -0.1475,-2.59277 c 1.05525,-0.75975 2.2605,-1.37925 3.39055,-2.01775 0.16,-0.308 0.235,-0.6635 0.2325,-1.012 -0.225,-0.33 -0.3335,-0.74575 -0.29925,-1.146 0.37,-0.514 0.93875,-0.99075 1.2595,-1.512 0.17,-0.27775 -0.09,-0.74125 0.18,-0.9655 0.80225,-0.67175 1.3775,-0.454 1.6095,-1.78975 0.31375,-0.2075 0.665,-0.35925 1.028,-0.448 2.87408,-3.5709 -0.3165,-3.1977 -0.95875,-5.0777 0.6565,-1.1195 2.0705,-0.56375 1.499,-2.96083 l 0.41925,-0.36375 c 0.3015,-1.49425 0.41375,-3.01655 1.31875,-4.29167 0.70875,-0.319 1.461,-0.5345 2.12825,-0.9465 -0.2375,-1.50025 -0.47225,-3.00115 -0.74875,-4.49475 l -0.7195,-0.66375 0.12,-1.26925 c -2.416,-1.097 -4.27352,-3.25198 -6.4746,-4.7148 0.54075,-1.16 1.37525,-4.0321 -0.41925,-4.41413 l -0.42,0.27275 c -0.645,-0.0925 -2.244,-0.269 -2.8769,-0.03 l -0.6,-0.302 -0.35925,-0.54475 -0.6595,-0.302 c -0.6415,0.08 -1.32875,0.085 -1.7395,0.66575 -0.40875,-0.045 -0.653,-0.3945 -1.01875,-0.544 l -0.6595,0.30225 c -0.32575,-1.94525 -1.51725,-1.93125 -1.73875,-2.96157 -0.3165,-1.47675 1.1965,-1.7635 1.439,-3.02243 l -0.47925,-0.78675 0,-0.48325 c -0.26875,-0.2735 -0.538,-0.54925 -0.8395,-0.7845 -0.40425,-1.099 -1.39325,-5.0513 -2.099,-5.62247 l -0.06,-0.423 c 0.175,-0.52725 0.32575,-3.28128 0,-3.68823 l 0.06,-0.4215 c -0.445,-0.46425 -1.7195,-3.94485 -2.09675,-4.81957 -1.731,-4.01303 -3.30127,-1.94375 -4.79797,-3.10015 -1.32725,-4.1795 -2.91335,0.651 -4.52938,-1.2275 -1.18675,-1.38075 2.169,-3.5929 2.75835,-4.56738 -0.35575,-1.91775 -3.88065,-0.61325 -4.56935,-0.707 -0.495,-0.0675 -3.49062,-2.4145 -3.54062,-2.82297 -0.1,-0.79175 -0.27,-1.20625 -0.45375,-1.95125 -0.1625,-0.665 2.121,-4.26455 2.84117,-4.52633 1.889,-0.687 2.84405,1.20775 4.3236,-1.78475 -0.15,-1.4085 -0.56875,-2.76577 -0.8165,-4.156 -0.38725,-0.24 -0.1275,-0.602 -0.7895,-0.7025 l -0.2475,-0.78825 -1.85325,-0.49925 c -0.1875,-0.41575 -0.1875,-0.871 0,-1.2855 -0.51875,-0.4445 -1.34875,-0.4215 -1.52325,-0.5815 -0.2585,-0.235 -0.5085,-1.06325 -0.453,-1.41225 0.09,-0.561 4.06858,-2.58322 4.69295,-2.74012 0.9145,-0.23 2.8212,0.341 4.01213,0.1425 0.3565,-0.0575 0.8115,-0.33275 1.176,-0.185 0.34375,0.14 0.51525,0.42075 0.94725,0.49925 2.50615,-2.15575 3.41702,-1.14475 5.64097,-2.28325 2.12675,-1.08875 2.66975,-0.1375 4.7351,-0.1675 l 1.358,-1.036 0.86525,0 c 0.4615,-0.53525 0.833,-1.14675 1.31725,-1.66225 1.28225,-1.361 3.1741,-2.097 4.40645,-3.4866 0.283,-0.31825 0.35725,-0.73025 0.86375,-0.706 0.938,0.045 1.971,0.055 2.42975,-1.0375 0.75225,-0.0154 1.763,-0.31375 2.3875,-0.74875 -0.60075,-1.522 -0.33075,-3.14338 -0.69925,-4.69125 -0.1425,-0.59975 -1.0095,-1.20925 -0.9465,-1.8265 0.2965,-2.9088 1.454,-2.94763 -1.68825,-4.85628 -0.46875,-1.2135 0.0375,-2.73425 -0.453,-3.73585 -0.395,-0.80725 -1.34675,-1.31975 -1.52375,-2.243 l -0.453,-0.25 c 0.25375,-0.225 0.54725,-0.38925 0.86525,-0.4985 l 0.08,-0.58 c -2.82325,-2.5061 -2.046,-4.53277 -6.38172,-5.69055 l -0.2475,-0.82925 c 1.61525,-2.58027 0.3785,-2.84425 1.0295,-4.60845 l -0.535,-1.245 c 0.07,-0.3445 0.283,-0.70325 0.26875,-1.061 -0.0115,-0.26325 -1.63525,-1.9615 -1.916,-2.3025 -0.4785,-0.58225 -1.03025,-1.795 -1.56375,-2.199 2.52257,-3.6816 2.509,-5.64742 3.62275,-9.54975 0.308,-1.07575 0.9365,-2.122 0.8645,-3.27905 l -0.576,-0.49925 c -0.52225,-2.18 0.3335,-4.98457 -0.3715,-6.9746 -0.175,-0.50025 -0.63375,-0.753 -0.9465,-1.14825 -0.583,-0.7355 -0.75375,-1.73175 -1.40025,-2.4225 -1.38175,-1.47525 -1.326,-1.56475 -1.56375,-3.65302 l -0.535,-0.62175 c 0.1325,-0.33075 0.1325,-0.6915 0.3285,-0.998 -0.378,-0.61225 -0.04,-2.702 0.0825,-3.4433 0.38075,-0.40625 0.89725,-0.63275 1.2775,-1.0405 0.006,-2.2715 -0.15,-5.0535 0.1225,-7.26423 0.085,-0.67475 0.8265,-0.95175 1.20725,-1.42525 1.00725,-1.253 1.51175,-5.2419 2.99197,-6.42025 0.763,-0.6065 1.7545,-0.95175 1.52325,-2.22825 -0.1075,-0.59325 -1.501,-1.31475 -1.276,-2.00625 0.28725,-0.88425 2.88548,-1.377 3.6842,-1.26775 1.716,-1.055 1.7095,-3.10672 1.2565,-4.87677 3.3463,0.366 9.33663,4.8159 8.8751,-1.5895 -0.0625,-0.868 0.633,-1.5355 0.531,-2.01775 -2.7433,-2.1645 -1.376,-5.59318 -2.2425,-8.51515 -0.48375,-1.63 -1.75225,-2.196 -2.63475,-3.48658 -0.0201,-0.92025 0.55225,-1.72025 0.65875,-2.61472 0.12,-1.01775 -0.065,-1.98925 0,-2.99014 0.0725,-1.10275 0.698,-2.03775 0.74075,-3.23873 0.145,-3.97197 -2.0675,-7.47907 -1.01675,-11.57642 2.37625,-0.3335 2.14325,-1.65925 3.65133,-2.70495 1.35375,-0.9385 5.51955,-0.1675 7.6742,-1.27875 1.106,2.6639 3.3577,4.5718 5.1123,6.7642 0.758,0.94575 3.77422,4.59227 4.87085,4.58712 0.37575,-0.001 1.21025,-1.02075 1.5225,-1.29775 1.53875,-1.36825 3.28197,-2.48425 4.8058,-3.87077 1.75525,-1.59775 0.15,-2.367 3.6028,-4.09075 8.8565,-4.42145 9.9017,6.02945 11.10905,6.64462 0.34075,0.1725 5.51237,-1.8075 6.13462,-2.166 1.4015,-0.80575 2.5533,-1.982 3.9064,-2.8611 1.13575,-0.73775 2.74475,-0.962 3.73135,-1.864 0.5045,-0.46125 0.85925,-1.921 1.3145,-2.13825 0.936,-0.44525 2.194,0.8755 3.00265,0.0925 1.08225,-1.0495 0.25775,-4.0541 1.14675,-5.68847 1.431,-2.63235 3.54278,-1.773 4.34718,-3.05105 0.34925,-0.555 0.5085,-1.21225 0.86075,-1.765 0.215,-0.3365 0.8345,-1.13725 1.131,-1.38075 1.68025,-1.377 2.96477,-3.68893 4.1614,-5.51983 0.93375,-1.42825 5.3431,-1.5275 5.70887,-2.56782 0.37775,-1.0785 -2.4705,-2.08375 -3.1034,-2.64335 -1.86675,-1.65125 -7.52415,-6.63436 -7.52415,-9.19852 0,-1.0331 4.5172,-2.08168 4.33718,-5.49565 -0.0675,-1.28532 -3.55063,-8.70718 -4.47078,-9.65159 -0.51075,-0.52355 -1.24075,-0.83078 -1.63325,-1.47383 -1.606,-2.6338 0.8315,-13.71235 0.621,-14.6531 -0.1675,-0.74937 -1.2945,-4.86872 -1.06025,-5.49418 0.1325,-0.35782 1.14525,-1.08812 1.44525,-1.52807 0.5115,-0.74863 0.68075,-1.6872 1.286,-2.3779 0.81175,-0.92758 2.82833,-3.09208 2.6876,-4.38772 -1.1545,-0.7479 -2.9405,-3.5731 -1.92975,-4.29973 1.236,-0.88943 2.8762,-1.17025 4.07213,-2.15868 0.71375,-0.59025 0.95375,-1.57867 1.65825,-2.17407 0.3315,-0.27938 0.7895,-0.36075 1.05875,-0.7237 1.078,-1.4511 -0.1125,-1.85438 2.439,-3.11408 -1.39825,-1.75685 0.58425,-5.16056 2.459,-5.36073 1.52025,-0.162 2.96835,0.77212 3.42842,0.75157 3.147,-0.138 7.7178,-1.06025 10.689,-1.8287 1.023,-0.26397 2.399,-5.70095 3.68778,-6.00378 1.2945,-0.30355 2.61405,0.42895 3.83925,0.11575 0.546,-0.13925 1.04875,-0.53965 1.6275,-0.51988 1.2365,0.0425 2.3775,0.86303 3.6556,0.7325 1.46025,-0.14875 3.67565,0.64745 5.31737,0.89383 0.811,0.12175 2.84765,-1.7004 3.25128,-2.3779 0.215,-0.36148 0.257,-0.84103 0.52575,-1.17025 0.6765,-0.82858 1.8075,-1.1886 2.49625,-2.02523 1.21525,-1.4753 1.95325,-2.37057 3.52777,-3.51296 0.61725,-1.61535 0.61525,-3.14047 0.63925,-3.19473 0.1875,-0.42602 0.80725,-0.56315 1.02875,-1.03975 0.2175,-0.46635 -0.1925,-1.0126 0.12,-1.4599 4.47645,1.60213 5.3009,-4.04896 8.35785,-4.46471 2.99553,-0.40695 6.21678,1.26338 8.82795,0.43263 0.93525,-0.29695 1.588,-1.17685 2.5776,-1.34405 0.57375,-0.0968 1.6345,0.35927 2.06525,0.107 1.60675,-0.93855 1.43025,-2.08463 3.75423,-1.92185 1.1065,-0.90703 2.11825,-0.39668 3.1991,-1.1556 0.608,-0.42675 1.72825,-1.79278 2.10325,-1.9585 1.693,-0.74645 4.15075,0.15475 5.85032,-0.86743 0.4935,-0.2977 0.4085,-0.99575 0.7495,-1.41955 1.431,-1.778122 3.57278,-2.722527 4.94873,-4.674417 0.54225,-0.09825 1.0915,0.1305 1.63675,0.11575 0.5715,-1.286825 1.516,-2.772383 2.39325,-3.864178 0.40425,-0.50375 1.0295,-0.801425 1.37075,-1.357975 0.358,-0.581475 0.383,-1.434225 0.78025,-1.957775 0.263,-0.348275 0.72175,-0.4722 1.05025,-0.737625 0.51725,-0.418675 0.896,-0.9884 1.441,-1.374825 2.65405,-1.88225 5.27092,-0.98255 8.09355,-4.08562 0.91725,-1.00895 1.3175,-2.940302 2.244,-3.700677 0.3815,-0.313825 0.88175,-0.396675 1.2665,-0.705375 0.49025,-0.392275 0.68075,-0.828575 1.35175,-0.94735 0.76725,-0.1365 1.536,0.192 2.309,0.10175 0.6895,-0.08075 1.648,-0.587325 2.31125,-0.463425 0.32725,0.569 0.68225,1.2839 1.1295,1.756125 1.428,1.506075 3.6549,0.70025 5.42592,0.8007 1.73025,0.09825 3.26415,1.132125 4.94943,1.4496 1.3195,0.2485 3.80495,-0.1525 4.78867,0.8601 1.0345,1.066875 0.1975,2.009825 0.69925,2.931497 1.06225,1.946025 0.0925,1.000875 0.35,2.353725 0.27925,1.4599 2.0875,1.834575 2.59545,3.081073 0.29925,0.73325 -0.30275,1.5992 -0.0725,2.1374 0.315,0.741325 1.213,1.1468 1.48175,2.001025 0.125,0.4011 -0.0875,0.900425 0.1925,1.252375 1.518,0.342425 1.13575,0.46635 1.9775,1.509025 0.443,0.54845 1.098,0.868175 1.486,1.47015 1.2475,1.936497 1.373,4.578357 2.47975,6.568377 0.5645,1.01408 3.91855,3.1698 4.04858,4.21174 0.03,0.23975 -7.3e-4,0.51035 -10e-4,0.75155 0.2735,-0.0755 0.75025,0.1825 0.941,0.35857 0.983,2.3537 1.35525,6.44446 0.3485,8.91402 -0.18,0.44288 -0.51525,0.79775 -0.65025,1.26263 0.283,0.75082 1.38375,3.76812 1.69825,4.21026 0.3715,0.52283 0.8315,0.0358 1.36375,1.55815 0.2375,0.6746 -0.49225,1.62708 0.2515,2.12495 0.42375,0.28375 1.969,-0.7677 2.60758,-0.74497 2.174,0.0778 4.90512,2.25325 6.60687,2.37642 1.57875,0.11425 2.87405,-1.51487 4.55218,-1.43495 0.883,0.0425 1.871,0.52868 2.7455,0.30355 2.376,-0.61225 1.26025,-4.19487 8.3243,-4.04309 0.5865,-0.60053 0.4335,-4.27481 2.191,-4.95452 0.47225,-0.1825 1.0025,-0.0433 1.4625,0.11425 2.31975,0.7941 -1.3675,5.66357 0.97875,5.62397 0.92525,-0.0154 5.50737,-2.13668 5.35807,-3.15221 -0.0275,-0.1885 -2.18975,-2.9029 -2.349,-3.44623 -0.34075,-1.16585 0.75425,-1.13947 0.38225,-2.08975 -0.42075,-1.0742 -1.30875,-0.2955 -1.593,-0.72885 -0.576,-0.87622 -0.2375,-2.88237 -1.0765,-3.75566 -0.51,-0.53088 -1.45875,-0.97008 -1.8625,-1.52075 -0.22,-0.3021 0.66375,-1.17245 0.045,-1.98635 -0.4785,-0.63205 -2.474,-1.26853 -2.30975,-2.29213 0.1325,-0.81537 1.831,-0.5514 2.3525,-1.05732 0.64875,-0.6306 0.693,-1.89398 1.146,-2.68879 0.908,-1.5926 2.56473,-2.57295 3.50845,-4.136957 0.87175,-1.441575 -1.44875,-3.002625 -0.60575,-4.788065 0.9915,-2.100025 7.65703,-6.785415 5.73098,-11.234 -0.5535,-1.279525 -1.0845,-2.21 -0.195,-3.518098 2.5819,-3.801852 2.284,1.764925 4.31862,-0.772825 1.288,-1.6058 2.84978,-5.625427 4.0164,-6.65857 1.506,-1.3345 3.77495,-1.2751 5.09375,-2.892632 0.87725,-1.074925 0.90875,-2.73866 1.7245,-3.92358 0.76075,-1.105725 1.81675,-1.617525 2.65833,-2.546545 0.2425,-0.267625 -0.46725,-1.801575 -0.195,-2.300925 0.81225,-1.48775 2.6933,0.19875 3.82632,0.1195 1.686,-0.11825 2.061,-2.720325 5.80745,-0.709775 0.93875,0.504475 3.28273,5.286667 5.55883,6.563977 4.91372,2.755525 7.48987,1.287575 6.35397,-4.604025 -0.53525,-2.77385 -3.86782,-3.848785 -3.95855,-6.547845 -0.06,-1.786925 3.32985,-3.95364 4.02143,-5.601232 0.8495,-2.023025 -2.24675,-2.08535 -1.38525,-3.572353 2.004,-3.459435 4.973,3.697003 8.5822,1.5244 1.92025,-1.156325 -0.62725,-4.068025 1.924,-4.425115 6.41107,-0.897475 3.4956,3.026088 6.5904,3.921378 1.23675,0.357825 4.56722,-2.152075 6.51542,0.679725 0.98375,1.4291 1.81025,3.172005 2.66618,4.698612 1.09575,1.9541 0.98925,7.84642 3.12195,9.108333 3.08127,1.823575 4.40505,-2.223925 6.56187,-2.844985 1.50175,-0.432625 1.98825,1.668875 2.89048,1.638075 1.68525,-0.05725 1.63825,-1.742925 2.66402,-2.394025 0.87025,-0.5514 1.89525,-0.301375 2.7948,-0.642325 1.5245,-0.578525 2.58615,-4.576153 5.20515,-5.104085 3.10698,-0.626925 4.30863,2.47615 4.83515,2.56927 0.57375,0.10175 3.82853,-1.8771 4.72225,-1.915975 0.51575,-0.02268 1.30175,0.611525 1.78825,0.832225 1.89325,0.8601 4.16143,0.973 5.93888,2.1022 0.2475,2.894837 5.76242,1.2465 7.7542,1.77885 0.99075,0.265425 1.921,1.250175 2.90622,1.6476 2.99123,1.206925 8.20785,1.12845 9.51093,4.733807 0.40725,1.127725 2.86122,2.06555 3.36415,0.922425 0.1975,-0.4502 -0.278,-1.75245 0.40925,-2.606672 2.67547,-0.462675 2.11475,-0.676775 3.8207,-3.215998 0.3,-4.305595 0.763,-4.256475 3.70847,-8.042927 1.08075,-1.3895 9.72738,3.280525 11.80775,2.627935 0.31225,-0.09825 0.53225,-0.335825 0.845,-0.43555 0.25375,-0.3791 0.67,-0.5888 0.95225,-0.941475 1.13225,-1.416625 0.54,-2.952033 1.13225,-4.422915 0.2475,-0.611525 0.99375,-0.74645 1.2045,-1.3939 0.25225,-0.775775 0.1225,-1.5816 0.5565,-2.320725 2.33975,0.294775 4.51863,-1.777375 5.48235,-3.751263 0.41,-0.841025 0.2475,-4.7888 0.70075,-4.947912 1.8275,-0.640125 4.903,5.668687 8.39218,2.50108 1.87825,-1.705525 2.90122,-4.114215 4.40435,-6.12476 0.6535,-0.874775 1.72525,-1.2905 2.336,-2.21145 1.30825,-1.9717 -1.5465,-5.797005 2.1755,-7.121978 0.75875,-0.270575 1.608,-0.061 2.3905,-0.05425 7.532,0.0645 6.8419,8.41908 9.70525,7.34048 1.89525,-0.7149 2.67972,2.704193 4.81652,3.026088 3.6178,0.545525 10.68113,-0.972275 13.7238,-3.057615 0.66225,-0.453875 2.1355,-4.660483 2.0705,-5.431125 -0.313,-3.7014 -1.61825,-4.689808 0.35225,-8.43374 0.39375,-0.7479 0.87725,-1.4973 1.59675,-1.9519 0.295,-0.1855 0.658,-0.456075 1.02875,-0.368825 0.69025,0.404025 0.99725,1.159975 1.691,1.51415 1.418,0.72445 1.759,0.6878 2.05325,0.791175 0.32925,0.11575 0.60075,0.407675 2.264,2.143275 0.5595,-0.118 0.99875,0.13725 1.206,0.681925 0.94225,0.34535 1.2595,1.357975 2.28675,1.58455 0.1525,0.68925 2.02975,1.670325 2.6526,2.07435 0.54875,0.0037 1.1095,0.01687 1.65175,0.10925 1.04725,1.747325 2.84838,0.944425 4.03358,2.1286 l 0.095,0.750125 c 0.65875,0.587325 3.1977,1.893975 3.36987,2.1022 0.425,0.512525 -0.045,1.20545 0.63725,1.69305 0.9895,0.709775 2.59328,0.871825 3.15265,1.242125 0.403,0.266175 0.0201,1.153375 1.34025,2.100725 l 0.0825,0.43775 c 0.3965,0.431875 0.465,0.8601 1.06875,1.09105 0.2815,0.107 0.9845,-0.21475 1.05675,0.21925 3.06695,2.4791 2.9741,-3.467498 6.63112,-3.467498 0.4515,0 0.903,-0.2045 1.31301,0.08275 0.69925,0.489075 1.251,1.8837 1.89524,2.537753 0.51225,0.5206 2.40251,0.852775 2.72048,1.29635 2.5326,0.7457 1.68175,-1.70845 2.54475,-2.046475 1.31375,-0.515475 5.68382,0.733225 7.33625,0.7765 2.60972,0.06825 2.14975,-3.847323 3.6142,-4.95232 0.51525,-0.388625 1.831,0.97155 2.61187,0.846175 1.93175,-0.309425 1.02,-2.745993 3.2484,-1.46135 0.1925,0.34315 0.32876,0.71565 0.51451,1.06395 1.28599,0.5646 1.81024,1.987825 3.55992,1.650525 0.3815,-0.074 0.9275,-1.20545 1.28525,-1.499475 0.3285,-0.270575 0.71,-0.508875 1.01575,-0.80585 0.14,-0.13575 0.1,-0.8359 0.2025,-1.036825 0.628,-1.20765 1.28675,-2.1946 1.841,-3.481435 1.6725,0.7098 0.1675,1.1314 3.51848,1.652753 0.46999,0.81465 1.08599,0.1715 1.44874,1.4738 0.67451,-0.06375 0.85651,0.1175 0.97375,0.832225 0.40225,0.38055 0.9465,0.64305 1.46251,0.819025 0.98875,-1.007475 2.14325,-3.451368 3.0848,-4.080489 0.63925,-0.42675 1.433,-0.01243 1.909,-0.764025 2.20325,-3.480695 -2.75903,-4.365718 3.92497,-6.633635 0.83875,-0.2845 2.54973,-1.145325 3.34345,-1.13065 0.94375,0.01759 0.7065,1.13725 1.286,1.267775 0.69375,0.157 1.706,-0.19575 2.43625,-0.23175 0.3095,-0.384975 5.03803,0.29915 6.51043,-0.5184 0.5865,-0.32555 2.52472,-1.49435 2.78762,-2.034025 0.15,-0.307975 0.16,-0.6812 0.41925,-0.92755 2.239,-2.123475 0.1325,-1.679125 -1.623,-1.624875 -1.92975,-2.7599202 2.4075,-1.808175 3.35628,-2.4028252 1.29375,-0.810225 -0.78025,-3.9631725 3.05839,-4.406785 0.31775,-0.3307 0.64876,-0.65185 0.99875,-0.946625 2.96196,-2.48935 2.66475,1.316175 4.21216,1.68205 0.27349,0.0645 1.62249,-0.429675 1.63749,-0.750125 0.983,-0.530875 1.15026,-1.9849 1.9625,-2.715195 2.84978,-2.56341255 6.8169,-2.44462505975 10.36823,-2.44317506 l 0.0143,0.66357351 c -0.99,0.64745005 -2.85762,0.80289995 -3.62777,1.65712505 -0.763,0.845425 -0.268,1.499475 -0.6765,2.23785 -0.245,0.4406749 -0.74525,0.6386499 -1.02875,1.0499999 -0.4465,0.64745 -0.32075,1.462825 -0.5415,2.1850751 -0.2175,0.7149 -0.7915,1.330825 -0.83875,2.10075 -0.03,0.4839247 0.16,1.0514747 0.3785,1.4738247 0.86225,1.679125 4.17715,3.322318 5.60383,4.708878 0.9795,0.9525 0.8045,2.147675 2.16525,3.070815 1.49175,1.011875 3.34987,1.424675 4.62867,2.771657 0.645,0.68045 1.27525,2.26425 1.96175,2.70126 0.1,0.063 2.32675,0.472225 2.70688,0.574128 3.00625,0.8117 3.80352,1.63 6.16965,3.49829 z"
         id="path4166" />
    </clipPath>
  </defs>
  <sodipodi:namedview
     pagecolor="#ffffff"
     bordercolor="#666666"
     borderopacity="1"
     objecttolerance="10"
     gridtolerance="10"
     guidetolerance="10"
     inkscape:pageopacity="0"
     inkscape:pageshadow="2"
     inkscape:window-width="1366"
     inkscape:window-height="716"
     id="namedview12"
     showgrid="false"
     fit-margin-top="0"
     fit-margin-left="0"
     fit-margin-right="0"
     fit-margin-bottom="0"
     inkscape:zoom="0.60117188"
     inkscape:cx="663.1357"
     inkscape:cy="350"
     inkscape:window-x="-8"
     inkscape:window-y="-8"
     inkscape:window-maximized="1"
     inkscape:current-layer="svg2" />
  <path
     d="M 0,0 0,280 700,350 0,0 Z m 700,350 700,-70 0,-280 -700,350 z m 0,0 700,350 0,-280 -700,-70 z m 0,0 L 0,420 0,700 700,350 Z M 210,0 700,337.5 1190,0 770,0 700,300 630,0 210,0 Z M 700,362.5 210,700 l 420,0 70,-300 70,300 420,0 -490,-337.5 z"
     id="rect4"
     style="fill:#d20000;fill-opacity:1"
     transform="matrix(0.04,0,0,0.04,-10.181173,0)"
     clip-path="url(#clipPath4164)"
     inkscape:connector-curvature="0" />
  <g
     id="g6"
     clip-path="url(#clipPath4160)"
     style="fill:#ffe600"
     transform="translate(-10.181173,0)">
    <path
       d="M 0,0 8.4,0 28,13.5 47.6,0 56,0 0,28 8.4,28 28,14.5 47.6,28 56,28 Z m 56,11.2 0,5.6 -56,-5.6 0,0 0,5.6 z M 25.2,0 28,12 30.8,0 Z m 0,28 2.8,-12 2.8,12 z"
       id="path8"
       inkscape:connector-curvature="0" />
    <circle
       cx="28"
       cy="14"
       r="4.5"
       id="circle10"
       style="stroke:#d20000" />
  </g>
</svg>
