<?xml version="1.0" encoding="UTF-8" standalone="no"?>
<!-- Generator: Adobe Illustrator 16.0.0, SVG Export Plug-In . SVG Version: 6.00 Build 0)  -->

<svg
   xmlns:dc="http://purl.org/dc/elements/1.1/"
   xmlns:cc="http://creativecommons.org/ns#"
   xmlns:rdf="http://www.w3.org/1999/02/22-rdf-syntax-ns#"
   xmlns:svg="http://www.w3.org/2000/svg"
   xmlns="http://www.w3.org/2000/svg"
   xmlns:sodipodi="http://sodipodi.sourceforge.net/DTD/sodipodi-0.dtd"
   xmlns:inkscape="http://www.inkscape.org/namespaces/inkscape"
   version="1.1"
   id="svg2"
   inkscape:version="0.48.2 r9819"
   sodipodi:docname="AJAX1.svg"
   x="0px"
   y="0px"
   width="4000"
   height="2400"
   viewBox="0 0 4000 2400"
   enable-background="new 0 0 4000 2400"
   xml:space="preserve"><metadata
   id="metadata44"><rdf:RDF><cc:Work
       rdf:about=""><dc:format>image/svg+xml</dc:format><dc:type
         rdf:resource="http://purl.org/dc/dcmitype/StillImage" /></cc:Work></rdf:RDF></metadata><defs
   id="defs42" /><sodipodi:namedview
   pagecolor="#ffffff"
   bordercolor="#666666"
   borderopacity="1"
   objecttolerance="10"
   gridtolerance="10"
   guidetolerance="10"
   inkscape:pageopacity="0"
   inkscape:pageshadow="2"
   inkscape:window-width="1280"
   inkscape:window-height="1004"
   id="namedview40"
   showgrid="false"
   fit-margin-top="0"
   fit-margin-left="0"
   fit-margin-right="0"
   fit-margin-bottom="0"
   inkscape:zoom="0.35355339"
   inkscape:cx="819.51636"
   inkscape:cy="1202.4307"
   inkscape:window-x="-8"
   inkscape:window-y="-8"
   inkscape:window-maximized="1"
   inkscape:current-layer="g3" />
<g
   id="g3"
   style="stroke:none"
   transform="matrix(-1,0,0,1,4000,0)">
	<path
   id="path3778"
   sodipodi:nodetypes="ccccc"
   inkscape:connector-curvature="0"
   d="M 4000,0 H 0 V 2400 H 4000 V 0 z"
   style="fill:#ff9900;fill-opacity:1;stroke:none" />
	
	
	
	
	
	
	
	
<path
   sodipodi:nodetypes="ccccc"
   inkscape:connector-curvature="0"
   id="path3860"
   d="m 4000,0 -1000,0 0,600 1000,0 z"
   style="fill:#bf0a30;stroke:none" /><path
   sodipodi:nodetypes="ccccccccccccccccccccccccc"
   inkscape:connector-curvature="0"
   id="path3862"
   d="m 4000,54.545455 0,54.545455 -1000,0 0,-54.545455 z m 0,109.090925 0,54.54546 -1000,0 0,-54.54546 z m 0,109.09091 0,54.54546 -1000,0 0,-54.54546 z m 0,109.09091 0,54.54546 -1000,0 0,-54.54546 z m 0,109.09091 0,54.54544 -1000,0 0,-54.54544 z"
   style="font-size:medium;font-style:normal;font-variant:normal;font-weight:normal;font-stretch:normal;text-indent:0;text-align:start;text-decoration:none;line-height:normal;letter-spacing:normal;word-spacing:normal;text-transform:none;direction:ltr;block-progression:tb;writing-mode:lr-tb;text-anchor:start;baseline-shift:baseline;color:#000000;fill:#ffffff;fill-opacity:1;fill-rule:nonzero;stroke:none;stroke-width:10;marker:none;visibility:visible;display:inline;overflow:visible;enable-background:accumulate;font-family:Sans;-inkscape-font-specification:Sans" /><path
   inkscape:connector-curvature="0"
   id="path3864"
   d="m 4000,0 -272.7273,0 0,272.72729 272.7273,0 z"
   style="fill:#002868;stroke:none" /><g
   transform="matrix(-81.818182,0,0,81.818182,3863.6364,136.36364)"
   id="g3866"
   style="stroke:none"><g
     id="g3868"
     style="stroke:none"><polygon
       style="fill:#ffffff;stroke:none"
       transform="matrix(0.95105652,0.30901699,-0.30901699,0.95105652,0,-1)"
       points="0,1 0.5,1 0,0 "
       id="polygon3870" /><polygon
       style="fill:#ffffff;stroke:none"
       transform="matrix(-0.95105652,0.30901699,0.30901699,0.95105652,0,-1)"
       points="0,0 0,1 0.5,1 "
       id="polygon3872" /></g><g
     id="g3874"
     transform="matrix(0.30901699,0.95105652,-0.95105652,0.30901699,0,0)"
     style="stroke:none"><polygon
       style="fill:#ffffff;stroke:none"
       transform="matrix(0.95105652,0.30901699,-0.30901699,0.95105652,0,-1)"
       points="0,0 0,1 0.5,1 "
       id="polygon3876" /><polygon
       style="fill:#ffffff;stroke:none"
       transform="matrix(-0.95105652,0.30901699,0.30901699,0.95105652,0,-1)"
       points="0,0 0,1 0.5,1 "
       id="polygon3878" /></g><g
     id="g3880"
     transform="matrix(0.30901699,-0.95105652,0.95105652,0.30901699,0,0)"
     style="stroke:none"><polygon
       style="fill:#ffffff;stroke:none"
       transform="matrix(0.95105652,0.30901699,-0.30901699,0.95105652,0,-1)"
       points="0,0 0,1 0.5,1 "
       id="polygon3882" /><polygon
       style="fill:#ffffff;stroke:none"
       transform="matrix(-0.95105652,0.30901699,0.30901699,0.95105652,0,-1)"
       points="0,0 0,1 0.5,1 "
       id="polygon3884" /></g><g
     id="g3886"
     transform="matrix(-0.80901699,0.58778525,-0.58778525,-0.80901699,0,0)"
     style="stroke:none"><polygon
       style="fill:#ffffff;stroke:none"
       transform="matrix(0.95105652,0.30901699,-0.30901699,0.95105652,0,-1)"
       points="0,0 0,1 0.5,1 "
       id="polygon3888" /><polygon
       style="fill:#ffffff;stroke:none"
       transform="matrix(-0.95105652,0.30901699,0.30901699,0.95105652,0,-1)"
       points="0,0 0,1 0.5,1 "
       id="polygon3890" /></g><g
     id="g3892"
     transform="matrix(-0.80901699,-0.58778525,0.58778525,-0.80901699,0,0)"
     style="stroke:none"><polygon
       style="fill:#ffffff;stroke:none"
       transform="matrix(0.95105652,0.30901699,-0.30901699,0.95105652,0,-1)"
       points="0,0 0,1 0.5,1 "
       id="polygon3894" /><polygon
       style="fill:#ffffff;stroke:none"
       transform="matrix(-0.95105652,0.30901699,0.30901699,0.95105652,0,-1)"
       points="0,0 0,1 0.5,1 "
       id="polygon3896" /></g></g><path
   inkscape:connector-curvature="0"
   d="m 4000,1683.361 c 0,0 -36.75,-32.333 -53.382,-38.73 -16.632,-6.397 -76.765,-88.28 -121.545,-85.722 -44.78,2.558 -44.78,23.029 -85.722,-7.677 -40.942,-30.706 -202.149,-189.354 -236.694,-188.075 -34.545,1.279 -112.59,83.162 -180.399,79.324 -67.809,-3.838 -247.258,-167.02 -353.314,-227.623 -125.975,-71.985 -227.955,-224.013 -338.849,-224.013 -129.058,0 -823.941,538.87 -1049.13,537.359 -190.63,-1.279 -458.024,-227.401 -542.477,-225.179 -97.236,2.559 -311.938,211.378 -468.271,205.987 -111.311,-3.838 -177.841,-66.53 -312.181,-124.104 C 143.329,1335.747 25.878,1287.458 0,1277.437 V 2400 h 4000 v -716.639 z"
   id="path8"
   style="fill:#ff3366;fill-opacity:1;stroke:none" /><path
   style="fill:#ffffff;stroke:#000000;stroke-width:5;stroke-miterlimit:10"
   inkscape:connector-curvature="0"
   stroke-miterlimit="10"
   d="m 587.965,960.5 c -56,0 -182,-109 -182,-133 0,-18 49,-61 49,-61 v -325 c 0,0 -54,-42 -54,-63 h 414 c 0,25 -54,63 -54,63 v 325 c 0,0 49,43 49,61 0,24 -126,133 -182,133 h -40 z"
   id="path12" /><path
   style="font-size:medium;font-style:normal;font-variant:normal;font-weight:normal;font-stretch:normal;text-indent:0;text-align:start;text-decoration:none;line-height:normal;letter-spacing:normal;word-spacing:normal;text-transform:none;direction:ltr;block-progression:tb;writing-mode:lr-tb;text-anchor:start;baseline-shift:baseline;color:#000000;fill:#000000;fill-opacity:1;fill-rule:nonzero;stroke:none;stroke-width:5;marker:none;visibility:visible;display:inline;overflow:visible;enable-background:accumulate;font-family:Sans;-inkscape-font-specification:Sans"
   d="m 543.6875,535.28125 c -11.08459,-0.15938 -21.98843,0.18972 -30.15625,0.59375 -4.08391,0.20201 -7.50011,0.43206 -9.875,0.59375 -1.18744,0.0808 -2.11267,0.13931 -2.75,0.1875 -0.31867,0.0241 -0.55288,0.0494 -0.71875,0.0625 -0.1244,0.01 -0.1548,-0.003 -0.1875,0 -0.0109,8.9e-4 -0.0625,0 -0.0625,0 -8.06035,0.41487 -15.25827,3.01202 -20.8125,8 -5.55661,4.99012 -9.38069,12.28257 -11.0625,21.75 l 0,0.0625 c -0.93198,5.28122 0.90898,9.98914 4.28125,13.4375 3.37227,3.44836 8.11205,5.90053 13.4375,7.90625 10.6509,4.01144 23.82489,6.14164 33.3125,8.25 0.0656,0.0146 1.07656,0.58584 2.1875,2.28125 1.11094,1.69541 2.36874,4.29283 3.65625,7.59375 2.57501,6.60184 5.28924,16.02021 8.0625,27.3125 5.54651,22.58459 11.2797,52.68837 16.75,83.375 5.4703,30.68663 10.67699,61.96881 15.1875,87.09375 2.25526,12.56247 4.35936,23.57241 6.21875,32.21875 1.85939,8.64634 3.4011,14.80117 4.96875,18.25 11.15475,24.54046 39.34375,42.71875 39.34375,42.71875 l 3.25,2.125 0.59375,-3.84375 c 0.24601,-1.59917 0.0391,-3.34642 -0.28125,-6.1875 -0.32036,-2.84108 -0.82593,-6.54487 -1.53125,-11 -1.41063,-8.91026 -3.54233,-20.85555 -6.15625,-34.84375 -5.22783,-27.97641 -12.4108,-64.12509 -19.6875,-100.375 -7.2767,-36.24991 -14.65921,-72.59383 -20.28125,-100.9375 -2.81102,-14.17184 -5.17427,-26.35107 -6.875,-35.5 -1.70073,-9.14893 -2.74175,-15.52431 -2.84375,-17.15625 -0.21148,-3.38363 1.33408,-6.14658 4.25,-9.0625 2.91592,-2.91592 7.11566,-5.73912 11.34375,-8.625 4.22809,-2.88588 8.52226,-5.83399 11.625,-9.53125 3.10274,-3.69726 4.94262,-8.447 3.6875,-13.78125 -0.72831,-3.09505 -3.20755,-5.26501 -6.28125,-6.84375 -3.0737,-1.57874 -6.92766,-2.69531 -11.375,-3.5625 -8.89468,-1.73438 -20.13416,-2.40312 -31.21875,-2.5625 z"
   id="path14"
   inkscape:connector-curvature="0"
   sodipodi:nodetypes="sscccccsccsscssssssscccsssssssssscsss" /><path
   style="font-size:medium;font-style:normal;font-variant:normal;font-weight:normal;font-stretch:normal;text-indent:0;text-align:start;text-decoration:none;line-height:normal;letter-spacing:normal;word-spacing:normal;text-transform:none;direction:ltr;block-progression:tb;writing-mode:lr-tb;text-anchor:start;baseline-shift:baseline;color:#000000;fill:#000000;fill-opacity:1;fill-rule:nonzero;stroke:none;stroke-width:5;marker:none;visibility:visible;display:inline;overflow:visible;enable-background:accumulate;font-family:Sans;-inkscape-font-specification:Sans"
   d="m 666.78125,412.625 c -7.80689,0.26758 -16.02609,1.91362 -23.875,4.09375 -10.46521,2.90684 -20.27547,6.83207 -27.5,10.03125 -3.61226,1.59959 -6.56018,3.00933 -8.625,4.03125 -1.03241,0.51096 -1.85382,0.93347 -2.40625,1.21875 -0.27621,0.14264 -0.48052,0.23648 -0.625,0.3125 -0.0645,0.0339 -0.0558,0.0424 -0.0937,0.0625 -7.55459,2.20392 -15.58977,6.00698 -21.84375,11.8125 -6.34917,5.89388 -10.81542,13.97901 -10.4375,23.96875 0.41718,11.01112 7.22378,17.67053 15.84375,21.5 8.61997,3.82947 19.2175,5.45122 28.71875,7.5625 -0.0236,-0.005 1.02726,0.62807 2.1875,2.46875 1.16024,1.84068 2.48063,4.65356 3.84375,8.21875 2.72624,7.13038 5.66442,17.28643 8.6875,29.46875 6.04615,24.36464 12.45962,56.82469 18.59375,89.875 6.13413,33.05031 11.99193,66.69955 17,93.59375 2.50403,13.4471 4.77725,25.21567 6.78125,34.375 2.004,9.15933 3.64098,15.56034 5.21875,19.03125 5.63209,12.38997 16.91653,23.63982 26.78125,31.96875 9.86472,8.32893 18.40625,13.6875 18.40625,13.6875 l 3.21875,2.03125 0.59375,-3.75 c 0.25485,-1.65662 0.0101,-3.47009 -0.34375,-6.46875 -0.35389,-2.99866 -0.91981,-6.90366 -1.6875,-11.65625 -1.53538,-9.50518 -3.8282,-22.30118 -6.65625,-37.3125 -5.65611,-30.02263 -13.43323,-68.89497 -21.28125,-107.875 -7.84802,-38.98003 -15.79307,-78.07672 -21.84375,-108.46875 -3.02534,-15.19601 -5.58038,-28.22159 -7.40625,-37.96875 -1.68731,-9.00747 -2.58091,-14.53401 -2.8125,-16.71875 13.89473,-7.89946 24.44679,-19.22307 30.46875,-30.90625 6.24989,-12.1254 7.8455,-24.72634 2.6875,-33.9375 -5.02658,-8.97567 -13.99665,-13.06303 -23.9375,-14.03125 -2.48521,-0.24206 -5.05395,-0.30794 -7.65625,-0.21875 z"
   id="path16"
   inkscape:connector-curvature="0"
   sodipodi:nodetypes="cssssccscscssssssssccccssssscscscc" /></g>


</svg>