<?xml version="1.0" encoding="UTF-8" standalone="no"?>
<svg
   xmlns:dc="http://purl.org/dc/elements/1.1/"
   xmlns:cc="http://creativecommons.org/ns#"
   xmlns:rdf="http://www.w3.org/1999/02/22-rdf-syntax-ns#"
   xmlns:svg="http://www.w3.org/2000/svg"
   xmlns="http://www.w3.org/2000/svg"
   xmlns:sodipodi="http://sodipodi.sourceforge.net/DTD/sodipodi-0.dtd"
   xmlns:inkscape="http://www.inkscape.org/namespaces/inkscape"
   width="4000"
   height="2400"
   viewBox="0 0 733.33332 440"
   id="svg2"
   version="1.1"
   inkscape:version="0.48.2 r9819"
   sodipodi:docname="AJAX1.svg">
  <metadata
     id="metadata27">
    <rdf:RDF>
      <cc:Work
         rdf:about="">
        <dc:format>image/svg+xml</dc:format>
        <dc:type
           rdf:resource="http://purl.org/dc/dcmitype/StillImage" />
      </cc:Work>
    </rdf:RDF>
  </metadata>
  <defs
     id="defs25" />
  <sodipodi:namedview
     pagecolor="#ffffff"
     bordercolor="#666666"
     borderopacity="1"
     objecttolerance="10"
     gridtolerance="10"
     guidetolerance="10"
     inkscape:pageopacity="0"
     inkscape:pageshadow="2"
     inkscape:window-width="1280"
     inkscape:window-height="1004"
     id="namedview23"
     showgrid="false"
     fit-margin-top="0"
     fit-margin-left="0"
     fit-margin-right="0"
     fit-margin-bottom="0"
     inkscape:zoom="0.12248861"
     inkscape:cx="2164.4959"
     inkscape:cy="-141.4288"
     inkscape:window-x="-8"
     inkscape:window-y="-8"
     inkscape:window-maximized="1"
     inkscape:current-layer="svg2"
     showguides="true"
     inkscape:guide-bbox="true" />
  <path
     sodipodi:nodetypes="ccccc"
     inkscape:connector-curvature="0"
     id="path3778"
     d="M -6.6666667e-6,0 733.33332,0 l 0,440 L -6.6666667e-6,440 z"
     style="fill:#ffffff;fill-opacity:1;stroke:none" />
  <path
     style="fill:#002868;stroke:none;fill-opacity:1"
     id="path3013"
     sodipodi:nodetypes="ccccc"
     inkscape:connector-curvature="0"
     d="M -6.6666667e-6,0 H 733.33333 V 110 H -6.6666667e-6 V 0 z" />
  <path
     style="fill:#bf0a30;stroke:none"
     id="path3039"
     sodipodi:nodetypes="ccccc"
     inkscape:connector-curvature="0"
     d="M -6.6666667e-6,0 H 183.33333 V 110 H -6.6666667e-6 V 0 z" />
  <path
     style="fill:#ffffff;stroke:none"
     id="path3041"
     sodipodi:nodetypes="ccccccccccccccccccccccccc"
     inkscape:connector-curvature="0"
     d="m -6.6666667e-6,9.9999167 0,9.9999163 183.3333366666667,0 0,-9.9999163 z m 0,20.0000163 0,9.999917 183.3333366666667,0 0,-9.999917 z m 0,20.000017 0,9.999917 183.3333366666667,0 0,-9.999917 z m 0,20.000017 0,9.999916 183.3333366666667,0 0,-9.999916 z m 0,20.000016 0,9.999917 183.3333366666667,0 0,-9.999917 z" />
  <path
     style="fill:#002868;stroke:none"
     id="path3043"
     inkscape:connector-curvature="0"
     d="M -6.6666667e-6,0 H 49.999943 V 49.99995 H -6.6666667e-6 V 0 z" />
  <g
     id="g3045"
     transform="matrix(2.75,0,0,2.75,4.5833267,4.5833306)"
     style="stroke:none">
    <g
       id="g3047"
       style="stroke:none">
      <polygon
         style="fill:#ffffff;stroke:none"
         id="polygon3049"
         points="8.332,8 7.424,1.97 5.739,7.157 " />
      <polygon
         style="fill:#ffffff;stroke:none"
         id="polygon3051"
         points="9.11,7.157 6.516,8 7.424,1.97 " />
    </g>
    <g
       id="g3053"
       transform="matrix(0.30901699,0.95105652,-0.95105652,0.30901699,0,0)"
       style="stroke:none">
      <polygon
         style="fill:#ffffff;stroke:none"
         id="polygon3055"
         points="7.67,-5.034 10.263,-4.191 9.355,-10.221 " />
      <polygon
         style="fill:#ffffff;stroke:none"
         id="polygon3057"
         points="11.041,-5.034 8.447,-4.191 9.355,-10.221 " />
    </g>
    <g
       id="g3059"
       transform="matrix(0.30901699,-0.95105652,0.95105652,0.30901699,0,0)"
       style="stroke:none">
      <polygon
         style="fill:#ffffff;stroke:none"
         id="polygon3061"
         points="-6.452,9.088 -3.858,9.931 -4.767,3.901 " />
      <polygon
         style="fill:#ffffff;stroke:none"
         id="polygon3063"
         points="-3.081,9.088 -5.675,9.931 -4.767,3.901 " />
    </g>
    <g
       id="g3065"
       transform="matrix(-0.80901699,0.58778525,-0.58778525,-0.80901699,0,0)"
       style="stroke:none">
      <polygon
         style="fill:#ffffff;stroke:none"
         id="polygon3067"
         points="-3.328,-10.637 -0.734,-9.794 -1.642,-15.825 " />
      <polygon
         style="fill:#ffffff;stroke:none"
         id="polygon3069"
         points="0.043,-10.637 -2.551,-9.794 -1.642,-15.825 " />
    </g>
    <g
       id="g3071"
       transform="matrix(-0.80901699,-0.58778525,0.58778525,-0.80901699,0,0)"
       style="stroke:none">
      <polygon
         style="fill:#ffffff;stroke:none"
         id="polygon3073"
         points="-12.056,-1.909 -9.462,-1.067 -10.37,-7.097 " />
      <polygon
         style="fill:#ffffff;stroke:none"
         id="polygon3075"
         points="-8.685,-1.909 -11.278,-1.067 -10.37,-7.097 " />
    </g>
  </g>
  <path
     style="fill:#fdbe08;stroke:none;fill-opacity:1"
     inkscape:connector-curvature="0"
     d="M 556.25844,330.57787 C 548.72821,295.20664 517.30836,268.675 479.69166,268.675 c -37.61835,0 -69.0393,26.5342 -76.56807,61.90764"
     id="path7" />
  <path
     style="fill:#fdbe08;stroke:none;fill-opacity:1"
     inkscape:connector-curvature="0"
     d="m 570.89541,330.57934 c -7.5845,-43.5006 -45.5323,-76.57101 -91.20375,-76.57101 -45.6731,0 -83.62145,33.07242 -91.20448,76.57504 h -75.81219 l 51.88334,-8.92503 c 0,0 -6.08484,-3.0338 -12.40049,-4.29367 -6.31565,-1.25987 -20.23285,-6.523 -20.23285,-6.523 0,0 16.6584,0.57933 22.36245,0.4862 5.70405,-0.0931 19.51639,1.9283 19.51639,1.9283 0,0 -18.69102,-12.06535 -26.13527,-13.37618 -13.95423,-2.4574 -30.79853,-15.93277 -30.79853,-15.93277 0,0 20.21323,5.72697 31.66936,5.7717 7.10894,0.0277 29.6439,3.3242 29.6439,3.3242 0,0 -8.492,-8.1631 -17.04761,-10.65093 -8.55562,-2.48765 -18.39402,-11.88386 -18.39402,-11.88386 0,0 14.55465,5.69049 21.86855,7.31977 6.02048,1.34109 26.03792,9.48787 26.03792,9.48787 0,0 -15.32172,-14.61937 -24.25574,-19.5393 -8.93401,-4.91994 -27.62466,-22.23449 -27.62466,-22.23449 0,0 20.65671,9.19252 27.96163,10.78055 7.7484,1.68447 24.77915,9.41912 24.77915,9.41912 0,0 -3.94313,-7.88828 -10.65533,-14.88612 -6.7122,-6.99783 -14.27819,-19.9474 -14.27819,-19.9474 0,0 11.66825,10.29289 19.2181,14.48462 7.54985,4.19173 17.99857,13.56538 17.99857,13.56538 0,0 -3.51505,-10.32313 -9.8923,-19.28116 -6.37725,-8.95804 -17.24103,-29.11884 -17.24103,-29.11884 0,0 23.37701,17.5824 28.9113,23.75652 5.53428,6.17412 17.10536,15.29348 17.10536,15.29348 0,0 -5.03708,-13.37856 -7.09738,-19.22598 -2.0603,-5.84742 -10.10662,-18.52877 -10.10662,-18.52877 0,0 13.66989,11.42625 16.94147,17.33564 3.27158,5.90938 14.38892,18.03743 14.38892,18.03743 0,0 -2.75697,-15.24013 -7.27412,-23.9591 -4.51715,-8.71897 -5.52768,-22.86827 -10.24412,-29.60595 8.75894,4.37947 15.9896,18.7858 22.3124,24.04747 6.3228,5.26166 14.07927,17.59926 14.07927,17.59926 0,0 -1.28517,-14.69893 -1.36492,-21.09818 -0.0799,-6.39925 0.81492,-22.71848 0.81492,-22.71848 0,0 4.31365,17.77893 7.61988,22.60756 3.30624,4.82864 9.24697,23.04244 9.24697,23.04244 0,0 4.18495,-14.59187 3.86815,-25.67657 -0.31643,-11.06563 6.08447,-36.33208 6.08447,-36.33208 0,0 -0.33679,23.2452 3.37791,32.78036 3.68207,9.45157 3.16965,19.51162 3.16965,19.51162 0,0 3.73432,-9.86498 7.0774,-17.43463 3.34309,-7.56965 9.60575,-20.6987 9.60575,-20.6987 0,0 0.37089,13.78575 -0.72636,23.56401 -1.09725,9.77827 -1.10697,23.91932 -1.10697,23.91932 0,0 6.78132,-13.55182 9.90513,-21.08957 3.12382,-7.53775 15.5782,-26.94376 15.5782,-26.94376 0,0 -1.914,23.74643 -3.4188,32.1882 -1.5048,8.44176 -2.26453,18.59513 -2.26453,18.59513 0,0 7.59257,-8.88745 10.10148,-13.3947 2.50892,-4.50725 11.89852,-18.68863 11.89852,-18.68863 0,0 -4.35032,19.61776 -6.10463,25.32181 -1.75432,5.70405 -6.36204,18.49485 -6.36204,18.49485 0,0 10.82675,-12.26958 17.47919,-18.38613 8.93695,-8.217 21.38748,-22.4972 21.38748,-22.4972 0,0 -5.37607,17.98592 -14.0877,30.56882 -3.0195,4.36131 -8.64563,20.76451 -8.64563,20.76451 0,0 11.35475,-8.17043 14.86136,-11.43505 3.50662,-3.26461 18.5053,-17.53161 18.5053,-17.53161 0,0 -9.8219,20.80668 -13.49773,24.38351 -3.67583,3.57684 -7.56488,16.04167 -7.56488,16.04167 0,0 15.98171,-11.94747 25.94001,-15.15983 10.4434,-3.36894 26.27717,-19.20252 26.27717,-19.20252 0,0 -8.85665,19.94007 -16.46828,27.41127 -8.79817,8.63573 -14.86192,18.74217 -14.86192,18.74217 0,0 11.64662,-4.7465 18.28805,-7.65692 6.64143,-2.91042 18.55425,-8.99269 18.55425,-8.99269 0,0 -8.84968,8.14019 -14.88447,11.21579 -6.03478,3.0756 -18.29886,12.06755 -18.29886,12.06755 l 23.37151,-4.11987 30.71182,-5.41346 -23.92243,14.57005 -20.62757,12.56328 c 0,0 14.9622,-2.41505 21.77193,-4.12188 6.80974,-1.70684 20.94474,-5.04479 20.94474,-5.04479 0,0 -13.21577,6.9619 -20.24477,8.74904 -7.029,1.78713 -16.23857,7.01763 -16.23857,7.01763 l 53.16667,14.85 -83.69625,-0.0623 z"
     id="path9" />
  <path
     d="M -6.6666667e-6,330 H 733.33333 V 440 H -6.6666667e-6 V 330 z"
     inkscape:connector-curvature="0"
     sodipodi:nodetypes="ccccc"
     id="path3909"
     style="fill:#002868;stroke:none;fill-opacity:1" />
  <path
     inkscape:connector-curvature="0"
     d="m 233.88694,307.55157 c -1.70133,-10.06702 -10.46155,-17.7342 -21.01256,-17.7342 -10.55395,0 -19.31637,7.67195 -21.01404,17.74318 l 42.0266,-0.009 z"
     id="path12"
     style="fill:#009900;fill-opacity:1;stroke:none" />
  <path
     inkscape:connector-curvature="0"
     d="m 216.90991,146.32328 c -2.74853,-4.17798 -11.00183,-3.94441 -11.00183,-3.94441 v 149.04248 h 14.11593 V 160.80313 l -0.18333,-10.36365 c -1.9e-4,0 -1.21569,-1.5092 -2.93077,-4.1162 z"
     id="path14"
     style="fill:#996600;fill-opacity:1;stroke:none" />
  <path
     inkscape:connector-curvature="0"
     d="m 218.05226,174.06932 c 0,0 3.4188,-16.50477 16.62265,-19.80587 13.20385,-3.3011 20.51316,-2.7115 29.00131,-3.89033 10.0265,-1.3926 16.03342,-10.37447 17.68379,-10.72812 1.65036,-0.35365 1.93728,17.9971 -11.08177,24.63927 -11.55348,5.89453 -27.05927,5.07613 -33.95278,7.30931 -8.37027,2.7115 -12.35502,10.85572 -16.2822,10.61024 -0.23558,-3.89052 -1.991,-8.1345 -1.991,-8.1345 z"
     id="path16"
     style="fill:#009900;fill-opacity:1;stroke:none" />
  <path
     inkscape:connector-curvature="0"
     d="m 217.81649,214.38817 c 0,-3.30092 3.18304,-13.5575 11.78925,-18.2732 7.22242,-3.95744 16.50495,-6.36625 25.11098,-6.36625 8.60604,0 14.25105,4.2053 18.74474,7.07355 5.54088,3.53686 9.66698,20.15933 7.54508,21.33835 -2.1219,1.17901 -5.06935,-1.76844 -8.25238,-4.0084 -3.18304,-2.23997 -9.34964,-4.83432 -16.38689,-7.07355 -5.18723,-1.65037 -13.89923,-1.61517 -20.15951,0.47153 -4.95147,1.65037 -14.1471,12.37867 -16.269,12.8502 0.47135,-3.5365 -2.12227,-6.01223 -2.12227,-6.01223 z"
     id="path18"
     style="fill:#009900;fill-opacity:1;stroke:none" />
  <path
     inkscape:connector-curvature="0"
     d="m 140.12588,171.35782 c -0.86809,2.39231 0.11788,4.7157 2.82938,3.53686 2.7115,-1.17883 8.1345,-6.24836 12.26078,-8.37026 4.5166,-2.32284 11.2002,-4.86897 18.62685,-4.95147 10.61024,-0.11788 24.99292,4.8334 32.30224,14.38268 1.41478,-2.0042 2.0042,-7.30931 1.65055,-9.90293 -0.35365,-2.59362 -1.88632,-7.07355 -8.60604,-11.90713 -6.71971,-4.83359 -15.67958,-7.19144 -22.51736,-7.19144 -6.83779,0 -19.39594,3.91399 -24.22952,8.27604 -4.83358,4.36205 -8.71053,6.18896 -12.31688,16.12765 z"
     id="path20"
     style="fill:#009900;fill-opacity:1;stroke:none" />
  <path
     inkscape:connector-curvature="0"
     d="m 138.94704,201.8918 c -1.06095,4.24417 1.17884,3.89052 4.7157,0.47153 2.12594,-2.05498 9.5491,-5.88115 14.50075,-7.17786 4.91315,-1.28682 11.78962,-4.01775 19.21627,-4.10025 10.61023,-0.11789 21.45623,1.49306 28.76555,11.04235 0.7073,-2.7115 2.81105,-3.4232 2.4574,-8.8462 -0.17032,-2.61214 -0.92473,-4.5936 -7.64463,-9.427 -6.7199,-4.8334 -14.73652,-7.66297 -24.16774,-7.30932 -6.83301,0.25612 -17.20931,3.9677 -22.39948,7.89873 -5.61568,4.25315 -13.87137,11.15749 -15.44382,17.44802 z"
     id="path22"
     style="fill:#009900;fill-opacity:1;stroke:none" />
  <path
     inkscape:connector-curvature="0"
     d="m 141.06894,232.66155 c -1.06095,4.24417 1.65037,4.12628 5.18724,0.7073 2.12593,-2.05498 6.5736,-5.93927 11.5929,-6.9421 6.4218,-1.28315 13.40056,-4.12207 20.8274,-4.20475 10.61023,-0.11788 20.86681,-0.053 27.35095,4.42695 -0.35365,-4.0084 2.23996,-0.35383 1.88631,-5.77683 -0.17031,-2.61195 -0.35365,-7.07355 -2.23996,-8.60604 -6.7199,-4.83358 -16.14452,-6.48395 -25.58252,-6.48395 -8.60603,0 -20.05043,5.09887 -25.11098,9.19545 -4.95147,4.0084 -12.33889,11.39362 -13.91134,17.68397 z"
     id="path24"
     style="fill:#009900;fill-opacity:1;stroke:none" />
</svg>
