<svg xmlns:rdf="http://www.w3.org/1999/02/22-rdf-syntax-ns#" xmlns="http://www.w3.org/2000/svg" height="600" width="900" version="1.1" xmlns:cc="http://creativecommons.org/ns#" xmlns:dc="http://purl.org/dc/elements/1.1/" viewBox="0 0 150 100">
 <metadata>
  <rdf:RDF>
   <cc:Work rdf:about="">
    <dc:format>image/svg+xml</dc:format>
    <dc:type rdf:resource="http://purl.org/dc/dcmitype/StillImage"/>
    <dc:title/>
   </cc:Work>
  </rdf:RDF>
 </metadata>
 <g transform="translate(-333.33333,166.66667)">
  <path d="M333.33333-166.66667h150.00004v100.000003h-150.00004z" fill="#ed2939"/>
  <g transform="matrix(2.4999999,0,0,2.4999999,168.12501,-325.20833)">
   <path d="m68.083333,65.416666,11.166667,0,0,7.666667-11.166667,0z" fill="#FFF"/>
   <path d="m71.916667,65.749998,3.500002,0,0,7.000002-3.500002,0z" fill="#FFF"/>
   <path d="m68.416667,65.749998,3.5,0,0.000001,7.000002-3.500001,0z" fill="#002395"/>
   <path fill="#ed2939" d="m75.416667,65.749998,3.500001,0,0,7.000002-3.500001,0z"/>
  </g>
  <path d="m403.75-98.695909,27.79033-16.177831-16.1778,27.790407,35.94156,0-16.17786-27.790407,27.79038,16.177831,0-35.941521-27.79038,16.17783,16.17786-27.7904-35.94156,0,16.1778,27.7904-27.79033-16.17783z" fill="#FFF"/>
 </g>
</svg>
