<?xml version="1.0" encoding="UTF-8"?>
<svg width="600" height="400" version="1.1" viewBox="0 0 600 400" xmlns="http://www.w3.org/2000/svg">
 <rect width="600" height="400" rx="0" ry="0" fill="#fff"/>
 <rect y="133.3" width="600" height="266.67" rx="0" ry="0" fill="#2d86c7"/>
 <g fill="#e51a24" stroke="#000" stroke-linecap="round" stroke-width=".5719">
  <path d="m106.2 11-16.068 27.83h-31.94l15.973 27.662-16.168 28.003h32.331l16.068 27.83 16.068-27.83h31.946l-15.973-27.662 16.168-28.003h-32.337z"/>
  <path d="m299.9 11-16.068 27.83h-31.94l15.973 27.662-16.168 28.003h32.331l16.068 27.83 16.068-27.83h31.946l-15.973-27.662 16.168-28.003h-32.337z"/>
  <path d="m493.7 11-16.068 27.83h-31.94l15.973 27.662-16.169 28.003h32.331l16.068 27.83 16.068-27.83h31.946l-15.973-27.662 16.168-28.003h-32.337z"/>
 </g>
 <g stroke="#000">
  <g fill="#f60" stroke-linecap="round">
   <rect x="251.4" y="322.3" width="3.6756" height="12.437" rx="1.2267" ry="1.2267" stroke-width="1.2067"/>
   <rect x="336.4" y="322.3" width="3.6756" height="12.437" rx="1.2267" ry="1.2267" stroke-width="1.2067"/>
   <rect x="315.1" y="313.3" width="6.5347" height="16.029" rx="2.1809" ry="1.581" stroke-width="1.0106"/>
   <rect x="269.9" y="313.3" width="6.5347" height="16.029" rx="2.1809" ry="1.581" stroke-width="1.0106"/>
  </g>
  <g stroke-width="1.6651">
   <path d="m295.8 307c19.128 15.11 43.575 35.33 61.034 21.582-1.6009-0.3822-5.2996 0.6393-5.2831-1.7025 0.023-1.836 10.589-3.7703 9.155-1.5222-19.035 28.585-43.883 47.03-64.906 47.375z" fill="#dc7849"/>
   <path d="m300.3 368.2c17.217-3.2207 36.155-16.908 57.676-39.453-19.799 15.298-37.876 21.739-57.676 20.934" fill="#0ea251" stroke-linecap="round"/>
   <path d="m300.3 349.7c19.799 0.8052 37.877-5.6361 57.676-20.934-8.6082 8.8568-30.99 10.372-57.676 3.2207" fill="#dfec22" stroke-linecap="round"/>
  </g>
  <g>
   <path d="m300.3 368.2c17.217-3.2207 36.155-16.908 59.139-41.144-17.572 26.894-42.419 45.34-63.443 45.684" fill="#3bc931" stroke-width="1.6646"/>
   <g stroke-width="1.6651">
    <path d="m296 307c19.128 15.11 43.575 35.33 61.507 21.661-8.1357 8.9352-30.517 10.45-57.203 3.2991" fill="#f60"/>
    <path d="m296.6 307c-19.128 15.11-43.575 35.33-61.034 21.582 1.6009-0.3822 5.2996 0.6393 5.2831-1.7025-0.023-1.836-10.589-3.7703-9.155-1.5222 19.035 28.585 43.883 47.03 64.906 47.375z" fill="#dc7849"/>
    <path d="m291.4 295.6h8.6082v1.6103h-8.6082z" fill="#963c00"/>
   </g>
   <path d="m218.23 296.11c26.096-2.252 52.195-4.5041 76.623-2.2047 24.427 2.2994 47.184 9.1487 69.947 15.999 4.435-24.438 8.8707-48.88 19.022-69.706 10.151-20.827 26.011-38.041 41.876-55.256-7.7971 4.0775-17.127 8.9561-21.485 10.343-4.3582 1.387-8.0205 0.63741-11.077 0.01-3.2316 2.722-6.4596 5.4408-10.211 6.6588-3.751 1.2181-8.0138 0.92889-12.279 0.63974-2.53 3.0359-5.0569 6.0683-9.0356 7.6603-3.9787 1.5921-9.3968 1.7366-14.818 1.8812-1.6429 2.9476-3.2808 5.8864-6.4539 7.0654-3.173 1.1792-7.8612 0.58257-12.555-0.0134-1.8086 3.6546-3.6125 7.2991-7.2817 9.2308-3.6692 1.9319-9.1838 2.131-14.704 2.3303-3.9153 3.9807-7.8225 7.9537-12.039 10.481-4.2167 2.5278-8.7245 3.5941-13.234 4.661-2.4576 4.0288-4.911 8.0508-8.3659 10.425-3.4549 2.3739-7.9033 3.0859-12.351 3.7978-2.3824 4.0798-4.7608 8.153-8.0722 10.888-3.3116 2.7351-7.5504 4.1192-11.788 5.5029-1.4617 4.1339-2.9203 8.2595-6.5423 11.532-3.6222 3.2727-9.3964 5.6731-15.173 8.0749z" fill="#fff" stroke-linecap="round" stroke-width=".66762"/>
   <path d="m421.8 179.6a3.3385 3.3385 0 0 0-0.8867 0.1565c-25.165 7.6911-50.426 15.408-75.956 25.753-25.529 10.345-51.269 23.297-73.36 38.656-22.092 15.359-40.323 32.989-58.417 50.47a3.3385 3.3385 0 1 0 4.6355 4.7985c18.094-17.48 36.057-34.817 57.596-49.792 21.539-14.974 46.878-27.742 72.057-37.945s50.23-17.86 75.395-25.551a3.3385 3.3385 0 0 0-1.0627-6.5458z" color="#000000" fill="#963c00" stroke-linecap="round" stroke-width=".66763"/>
  </g>
  <g stroke-width="1.6651">
   <path d="m235.6 328.6c1.6009-0.3822 5.2996 0.6393 5.2831-1.7025-0.023-1.836-10.589-3.7703-9.155-1.5222" fill="none"/>
   <path d="m292.3 368.2c-17.217-3.2207-36.155-16.908-57.676-39.453 19.799 15.298 37.876 21.739 57.676 20.934" fill="#0ea251" stroke-linecap="round"/>
   <path d="m292.3 349.7c-19.799 0.8052-37.877-5.6361-57.676-20.934 8.6082 8.8568 30.99 10.372 57.676 3.2207" fill="#dfec22" stroke-linecap="round"/>
  </g>
  <g>
   <path d="m292.3 368.2c-17.217-3.2207-36.155-16.908-59.139-41.144 17.572 26.894 42.419 45.34 63.443 45.684" fill="#3bc931" stroke-width="1.6646"/>
   <path d="m296.6 307c-19.128 15.11-43.575 35.33-61.507 21.661 8.1357 8.9352 30.517 10.45 57.203 3.2991" fill="#f60" stroke-width="1.6651"/>
   <path d="m292.6 297.1h6.3166c9.4748 24.231 0 49.444 0 75.291h-6.3166c0-25.846-9.4749-51.06 0-75.291z" fill="#963c00" stroke-width="1.4285"/>
   <path d="m295.47 392.81c-0.33475-6.6646-0.6695-13.332-2.2202-17.611s-4.319-6.1753-7.0866-8.0715l9.3069-8.2818 9.5368 7.9473c-2.6545 2.0078-5.3021 4.0101-6.8951 8.3521-1.5933 4.3419-2.1172 11-2.6417 17.665z" fill="#f60" stroke-width="1.0978"/>
   <path d="m381.82 299.79c-26.096-2.252-52.195-4.5041-76.623-2.2047-24.427 2.2994-47.184 9.1487-69.947 15.999-4.435-24.438-8.8707-48.88-19.022-69.706-10.151-20.827-26.011-38.041-41.876-55.256 7.7971 4.0775 17.127 8.9561 21.485 10.343 4.3582 1.387 8.0205 0.63741 11.077 0.01 3.2316 2.722 6.4596 5.4408 10.211 6.6588 3.751 1.2181 8.0138 0.92889 12.279 0.63974 2.53 3.0359 5.0569 6.0683 9.0356 7.6603 3.9787 1.5921 9.3968 1.7366 14.818 1.8812 1.6429 2.9476 3.2808 5.8864 6.4539 7.0654 3.173 1.1792 7.8612 0.58257 12.555-0.0134 1.8086 3.6546 3.6125 7.2991 7.2817 9.2308 3.6692 1.9319 9.1838 2.131 14.704 2.3303 3.9153 3.9807 7.8225 7.9537 12.039 10.481 4.2167 2.5278 8.7245 3.5941 13.234 4.661 2.4576 4.0288 4.911 8.0508 8.3659 10.425 3.4549 2.3739 7.9033 3.0859 12.351 3.7978 2.3824 4.0798 4.7608 8.153 8.0722 10.888 3.3116 2.7351 7.5504 4.1192 11.788 5.5029 1.4617 4.1339 2.9203 8.2595 6.5423 11.532 3.6222 3.2727 9.3964 5.6731 15.173 8.0749z" fill="#fff" stroke-linecap="round" stroke-width=".66762"/>
   <path d="m178.3 183.3a3.3385 3.3385 0 0 1 0.8867 0.1565c25.165 7.6911 50.426 15.408 75.956 25.753 25.529 10.345 51.268 23.297 73.36 38.656s40.323 32.989 58.417 50.47a3.3385 3.3385 0 1 1-4.6355 4.7985c-18.094-17.48-36.057-34.817-57.596-49.792s-46.878-27.742-72.056-37.945-50.23-17.86-75.395-25.551a3.3385 3.3385 0 0 1 1.0627-6.5458z" color="#000000" fill="#963c00" stroke-linecap="round" stroke-width=".66763"/>
  </g>
 </g>
</svg>
