<?xml version="1.0" encoding="UTF-8"?>
<svg xmlns="http://www.w3.org/2000/svg" width="700" height="370">
<rect width="700" height="370" fill="#006aa9"/>
<circle cx="350" cy="185" r="135" fill="none" stroke="#fff" stroke-width="10"/>
<path d="m350,64.271 9.071,1.1561c36.947,4.6556 63.147,25.288 70.026,58.562c6.3556,30.742 -7.6492,65.706 -39.9,77.058c-7.5603,2.6612 -12.086,5.1914 -15.117,14.499c-1.1922,3.661 -6.6238,11.287 -12.635,18.332c-3.3758,3.956 -10.89,10.646 -11.653,10.646c-0.76333,0 -4.931,-5.1886 -9.8093,-10.347c-6.0935,-6.443 -11.454,-13.971 -12.774,-18.855c-1.0573,-3.9098 -5.5159,-7.9384 -5.7899,-8.9474c-0.78693,-2.897 -14.244,-9.8447 -28.195,-13.572c-8.5656,-2.2885 -18.176,-3.6961 -32.617,-4.2726c-20.189,-0.80619 -19.695,-0.67848 -17.565,1.9101c1.964,2.3867 1.9814,2.9578 0,4.2224c-3.1115,1.9857 -9.0565,1.8561 -10.317,-0.20107c-0.56604,-0.92345 -0.13589,-2.7557 0.94705,-4.0717c1.5912,-1.9338 -0.0727,-3.8068 -2.2239,-5.391H310A40,40 0 0,1 350,145z" fill="#fff"/>
<circle cx="350" cy="185" r="30" fill="#006aa9"/>
<path d="M350,167.5 360.2862,199.1578 333.3565,179.5922H366.6435L339.7138,199.1578z" fill="#fff"/>
</svg>