<?xml version="1.0" encoding="UTF-8" standalone="no"?>
<!-- Created with Inkscape (http://www.inkscape.org/) -->

<svg
   xmlns:dc="http://purl.org/dc/elements/1.1/"
   xmlns:cc="http://creativecommons.org/ns#"
   xmlns:rdf="http://www.w3.org/1999/02/22-rdf-syntax-ns#"
   xmlns:svg="http://www.w3.org/2000/svg"
   xmlns="http://www.w3.org/2000/svg"
   xmlns:sodipodi="http://sodipodi.sourceforge.net/DTD/sodipodi-0.dtd"
   xmlns:inkscape="http://www.inkscape.org/namespaces/inkscape"
   version="1.0"
   width="900"
   height="600"
   id="svg2"
   inkscape:version="0.48.2 r9819"
   sodipodi:docname="Flag_of_Vargas_State.svg">
  <metadata
     id="metadata46">
    <rdf:RDF>
      <cc:Work
         rdf:about="">
        <dc:format>image/svg+xml</dc:format>
        <dc:type
           rdf:resource="http://purl.org/dc/dcmitype/StillImage" />
      </cc:Work>
    </rdf:RDF>
  </metadata>
  <defs
     id="defs44" />
  <sodipodi:namedview
     pagecolor="#ffffff"
     bordercolor="#666666"
     borderopacity="1"
     objecttolerance="10"
     gridtolerance="10"
     guidetolerance="10"
     inkscape:pageopacity="0"
     inkscape:pageshadow="2"
     inkscape:window-width="1280"
     inkscape:window-height="974"
     id="namedview42"
     showgrid="false"
     fit-margin-top="0"
     fit-margin-left="0"
     fit-margin-right="0"
     fit-margin-bottom="0"
     inkscape:zoom="0.5989413"
     inkscape:cx="402.88961"
     inkscape:cy="265.43278"
     inkscape:window-x="-8"
     inkscape:window-y="-8"
     inkscape:window-maximized="1"
     inkscape:current-layer="svg2" />
  <g
     id="g3210">
    <rect
       id="rect3"
       style="fill:#ffffff;stroke:#4d4d4d;stroke-opacity:1;stroke-width:0.2;stroke-miterlimit:4;stroke-dasharray:none"
       y="0"
       x="0"
       height="450"
       width="600" />
    <g
       id="g3204">
      <rect
         width="75"
         height="600"
         x="825"
         y="0"
         style="fill:#00247d;fill-opacity:1"
         id="rect7" />
      <rect
         width="75"
         height="600"
         x="750"
         y="0"
         style="fill:#ffffff"
         id="rect9" />
      <rect
         width="75"
         height="600"
         x="675"
         y="0"
         style="fill:#cf142b;fill-opacity:1"
         id="rect11" />
      <rect
         width="75"
         height="600"
         x="600"
         y="0"
         style="fill:#ffcc00;fill-opacity:1"
         id="rect13" />
    </g>
    <g
       id="g3196">
      <rect
         width="600"
         height="150"
         x="0"
         y="450"
         style="fill:#00247d;fill-opacity:1"
         id="rect5" />
      <g
         id="g3190"
         transform="matrix(0.89526928,0,0,0.89526928,31.419214,54.608593)">
        <path
           id="path15"
           style="fill:#ffffff"
           d="m 97.499994,487.50002 8.199596,26.21421 27.46501,-0.30235 -22.39737,15.89892 8.7747,26.02734 -22.041938,-16.38813 -22.041942,16.38813 8.774705,-26.02734 -22.397374,-15.89892 27.465008,0.30235 8.199605,-26.21421 z"
           inkscape:connector-curvature="0" />
        <path
           id="path17"
           style="fill:#ffffff"
           d="m 232.49999,487.50002 8.1996,26.21421 27.46501,-0.30235 -22.39737,15.89892 8.7747,26.02734 -22.04194,-16.38813 -22.04194,16.38813 8.7747,-26.02734 -22.39737,-15.89892 27.46501,0.30235 8.1996,-26.21421 z"
           inkscape:connector-curvature="0" />
        <path
           id="path19"
           style="fill:#ffffff"
           d="m 367.49999,487.50002 8.1996,26.21421 27.46501,-0.30235 -22.39737,15.89892 8.7747,26.02734 -22.04194,-16.38813 -22.04194,16.38813 8.7747,-26.02734 -22.39737,-15.89892 27.46501,0.30235 8.1996,-26.21421 z"
           inkscape:connector-curvature="0" />
        <path
           id="path21"
           style="fill:#ffffff"
           d="m 502.49999,487.50002 8.1996,26.21421 27.46501,-0.30235 -22.39737,15.89892 8.7747,26.02734 -22.04194,-16.38813 -22.04194,16.38813 8.7747,-26.02734 -22.39737,-15.89892 27.46501,0.30235 8.1996,-26.21421 z"
           inkscape:connector-curvature="0" />
      </g>
    </g>
    <g
       id="g3170">
      <path
         inkscape:connector-curvature="0"
         style="fill:#ffcc00;fill-opacity:1;fill-rule:evenodd;stroke:#cf142b;stroke-width:3.19615102;stroke-linecap:butt;stroke-linejoin:miter;stroke-miterlimit:4;stroke-opacity:1;stroke-dasharray:none"
         id="path3283"
         d="m 293.71764,114.09812 c -1e-5,1e-5 -2.32194,7.24056 -3.81555,10.16332 -1.66727,3.26263 -4.38244,3.75825 -5.61619,6.15819 -1.23375,2.39995 1.38005,8.2233 1.7286,11.05823 0.26414,2.14833 0.27927,3.94965 -2.00461,4.97617 -0.34336,0.1273 -0.69761,0.24155 -1.02898,0.36131 -0.54489,0.15049 -1.19833,0.28152 -1.93337,0.37189 -1.00038,0.123 -2.09443,0.24979 -3.20936,0.36105 -1.40401,-0.47635 -2.00441,-1.79681 -2.56176,-3.37487 -0.95124,-2.69322 -1.21964,-9.08706 -3.39355,-10.6858 -2.17393,-1.59873 -4.8358,-0.82351 -7.78223,-3.00135 -2.57813,-1.9056 -7.93551,-7.33012 -7.94691,-7.34182 -10e-6,0 0.3163,7.61773 -0.0715,10.87703 -0.43293,3.63826 -2.78329,5.04951 -3.10862,7.72832 -0.32531,2.67881 4.11749,7.22656 5.42714,9.7649 0.75713,1.46746 1.31398,2.77534 0.73916,4.10212 -0.91871,0.79832 -1.82843,1.57728 -2.67226,2.2741 -0.50758,0.41915 -0.97583,0.76964 -1.41441,1.04605 -0.45209,0.22922 -0.91444,0.43832 -1.39302,0.67443 -2.1888,0.79248 -3.44226,-0.4116 -4.77789,-2.02898 -1.81872,-2.20241 -4.23386,-8.10068 -6.82475,-8.8551 -2.59091,-0.75441 -4.85489,0.88792 -8.37026,-0.1449 -3.07592,-0.90374 -9.9579,-4.16736 -9.97264,-4.17443 -2e-5,0 2.91548,7.02148 3.67118,10.2156 0.84359,3.56549 -0.90014,5.69293 -0.28521,8.32041 0.61492,2.62749 6.37759,5.37609 8.47968,7.30987 2.1021,1.93375 3.49227,3.71418 -0.0731,7.58992 -0.77993,0.84781 -1.65945,1.77162 -2.55335,2.69556 -1.2051,0.23614 -2.38981,-0.34223 -3.65656,-1.09345 -2.45676,-1.45694 -6.73462,-6.18617 -9.42795,-6.01924 -2.69334,0.16695 -4.26426,2.46692 -7.92172,2.68473 -3.20028,0.1906 -10.7814,-0.51566 -10.79767,-0.51733 1e-5,0 5.13696,5.58924 6.92903,8.33911 2.00046,3.0696 1.08469,5.67363 2.55255,7.93797 1.46786,2.26434 7.82361,2.90609 10.45612,4.01436 1.52192,0.6407 2.77302,1.308 3.18255,2.69474 -0.19272,1.19843 -0.41376,2.39047 -0.61402,3.46343 -0.13815,0.74013 -0.28214,1.36208 -0.47049,1.90276 -0.11217,0.26003 -0.22295,0.51257 -0.34018,0.7798 -0.0116,0.0244 -0.0131,0.0463 -0.0249,0.0701 -0.0221,0.0503 -0.0606,0.0939 -0.0829,0.14437 -0.0241,0.0457 -0.0251,0.0965 -0.0499,0.1403 -0.012,0.0273 -0.0458,0.0468 -0.058,0.0742 -0.007,0.0128 -0.0214,0.0244 -0.029,0.0371 -0.003,0.008 0.007,0.0247 0.004,0.0331 -1.17149,1.94538 -2.91827,1.79542 -4.95829,1.41468 -2.80777,-0.52409 -8.45813,-3.49528 -10.93012,-2.41306 -2.47197,1.08221 -3.13817,3.799 -6.49811,5.2603 -2.93993,1.2786 -10.3227,3.21265 -10.33856,3.21668 2e-5,0 6.76409,3.48672 9.39193,5.45341 2.93342,2.19534 2.94666,4.9624 5.1032,6.58451 2.15654,1.62209 8.33765,0.0309 11.19067,0.16711 1.7965,0.0858 3.35033,0.30593 4.17551,1.7676 0.004,0.007 1e-5,0.0257 0.004,0.0331 0.1647,0.87796 0.3113,1.72665 0.44502,2.52817 0.0676,0.40582 0.14295,0.79915 0.17524,1.1525 -2.4e-4,0.009 0.004,0.0238 0.004,0.033 0.005,0.0598 -0.017,0.11092 -0.0127,0.16929 -7.2e-4,0.0189 0.009,0.047 0.009,0.0661 7.7e-4,0.0113 0.003,0.0218 0.004,0.0331 -0.001,0.0311 -0.0194,0.0718 -0.0209,0.10319 -0.0294,0.61596 -0.0565,1.25623 -0.0989,1.92416 -6.8e-4,0.0108 0.004,0.0223 0.004,0.0331 -0.003,0.0138 -0.0257,0.0234 -0.029,0.0371 -0.001,0.0216 0.01,0.0445 0.009,0.0661 -0.51623,1.99202 -2.15972,2.46059 -4.11864,2.78737 -2.81733,0.46999 -9.13937,-0.39963 -11.09073,1.46426 -1.95135,1.86389 -1.66183,4.64822 -4.31744,7.17253 -2.32366,2.20877 -8.57262,6.54767 -8.58613,6.55688 0,0 7.52817,0.99483 10.6709,1.94176 3.50815,1.05704 4.49966,3.61097 7.08153,4.39572 2.58186,0.78475 7.82724,-2.7959 10.55416,-3.64572 1.5339,-0.47804 2.9325,-0.78715 4.11728,-0.0701 0.0165,0.01 0.0208,0.0186 0.0371,0.029 0.007,0.0126 0.0295,0.0164 0.0371,0.029 0.62698,1.04315 1.24198,2.08283 1.78197,3.03467 0.27204,0.47951 0.51835,0.90906 0.69935,1.32285 0.009,0.0185 1.9e-4,0.0477 0.009,0.0661 0.0225,0.0521 0.0323,0.10999 0.0534,0.16116 0.003,0.009 3.9e-4,0.0241 0.004,0.033 0.11547,0.38031 0.26056,0.76328 0.37757,1.16117 0.006,0.0256 0.002,0.0408 0.009,0.066 0.0159,0.0542 0.0374,0.10668 0.0534,0.16116 0.004,0.0247 0.004,0.0417 0.009,0.0661 0.003,0.0107 9.5e-4,0.0224 0.004,0.033 0.006,0.0363 0.007,0.0634 0.0122,0.0991 0.31714,2.19258 -1.0806,3.23048 -2.86621,4.2435 -2.48432,1.40941 -8.7044,2.75407 -9.89653,5.17497 -1.1921,2.4209 0.0201,4.93141 -1.60643,8.21452 -1.42324,2.8727 -5.81498,9.08882 -5.82449,9.10211 -1e-5,0 7.43072,-1.66261 10.70747,-1.8532 3.65777,-0.21275 5.43732,1.90098 8.13164,1.75082 2.69432,-0.15018 6.41746,-5.37085 8.68635,-7.10591 0.99263,-0.75908 1.92884,-1.38477 2.93499,-1.50135 0.82665,0.67881 1.62602,1.36126 2.35807,1.99106 3.99213,3.43455 2.85114,5.32773 0.98835,7.49296 -1.86284,2.16523 -7.26863,5.56257 -7.57367,8.24376 -0.30505,2.68121 1.67406,4.62625 1.25108,8.26571 -0.37009,3.1845 -2.39124,10.50974 -2.39572,10.52546 1e-5,10e-6 6.41838,-4.06807 9.43851,-5.35347 3.3713,-1.43483 5.79645,-0.0682 8.28197,-1.1189 2.48549,-1.05078 4.18038,-7.19466 5.73049,-9.59371 0.88404,-1.36821 1.75765,-2.48424 3.16035,-2.66956 1.1713,0.40678 2.32423,0.80383 3.36728,1.1961 0.50061,0.18826 0.95001,0.37696 1.34507,0.57259 0.007,0.004 0.0261,-0.009 0.033,-0.004 0.053,0.0263 0.0932,0.0564 0.14436,0.0829 0.0257,0.0168 0.0484,0.041 0.0743,0.058 0.0287,0.0151 0.0793,0.0387 0.10726,0.0539 0.0389,0.0256 0.0722,0.0611 0.11133,0.0869 0.006,0.004 0.0263,-0.007 0.033,-0.004 0.21706,0.14315 0.43358,0.27423 0.65575,0.42255 0.0219,0.0158 0.0527,0.0422 0.0742,0.058 0.0402,0.0269 0.0711,0.06 0.11133,0.0869 0.0462,0.0357 0.10067,0.047 0.14437,0.0829 0.013,0.009 0.0241,0.0202 0.0371,0.029 0.007,0.006 -0.003,0.0266 0.004,0.033 0.026,0.0175 0.0483,0.0405 0.0743,0.058 1.68579,1.48792 1.25389,3.16692 0.52654,5.10103 -1.0054,2.67345 -4.89672,7.72962 -4.26191,10.35238 0.63482,2.62277 3.16644,3.75831 4.01977,7.32151 0.74664,3.11779 1.38531,10.715 1.38652,10.7313 -10e-6,2e-5 4.60514,-6.02897 6.99972,-8.27383 2.67301,-2.50588 5.39767,-2.05084 7.3708,-3.89166 1.97314,-1.84083 1.50511,-8.21115 2.13651,-10.99674 0.63139,-2.78561 1.45395,-4.85916 6.58992,-3.69502 1.12349,0.25465 2.3819,0.54649 3.62812,0.86213 0.80447,0.92781 0.881,2.24571 0.85969,3.71832 -0.0413,2.85598 -2.02371,8.91612 -0.53873,11.16928 1.48497,2.25317 4.27339,2.46971 6.28224,5.53386 1.75775,2.68112 4.90045,9.61263 4.90709,9.62756 -10e-6,0 2.322,-7.24054 3.81554,-10.16332 1.66721,-3.26265 4.38248,-3.75822 5.61619,-6.15818 1.23372,-2.39994 -1.38001,-8.2233 -1.72859,-11.05823 -0.20154,-1.63892 -0.26398,-3.07039 0.7351,-4.11565 1.14493,-0.43296 2.26726,-0.8484 3.30607,-1.21155 0.58256,-0.20365 1.10488,-0.35677 1.58667,-0.46343 0.0952,-0.0111 0.20088,-0.0256 0.2974,-0.0365 0.0185,-0.003 0.0477,-0.004 0.0661,-0.009 0.3441,-0.0391 0.6679,-0.0881 1.02438,-0.12593 0.007,-3.2e-4 0.0252,-0.004 0.033,-0.004 0.0836,-0.009 0.1802,-0.0236 0.26436,-0.0325 0.01,1.6e-4 0.0274,0.0288 0.0371,0.029 0.0421,-0.004 0.0899,-0.0119 0.13219,-0.0163 2.15857,0.11084 2.89056,1.67062 3.56067,3.58749 0.94252,2.69629 1.15869,9.08819 3.32746,10.69392 2.16877,1.60573 4.87992,0.84301 7.81934,3.03034 2.57197,1.91392 7.90249,7.33413 7.91386,7.34588 10e-6,0 -0.32277,-7.58594 0.0755,-10.84398 0.44463,-3.63686 2.84075,-5.0587 3.1747,-7.73646 0.33396,-2.67774 -4.12566,-7.22236 -5.42714,-9.76489 -0.83376,-1.62881 -1.41771,-3.0998 -0.49458,-4.56826 0.66481,-0.56674 1.33276,-1.11085 1.94827,-1.61483 0.32628,-0.26717 0.6212,-0.50917 0.9182,-0.7167 0.0174,-0.01 0.0445,-0.0318 0.062,-0.0411 0.0201,-0.0138 0.042,-0.0275 0.062,-0.0411 0.0247,-0.0131 0.037,-0.0281 0.062,-0.0412 0.006,-0.004 0.0265,3.1e-4 0.033,-0.004 0.0144,-0.007 0.0145,-0.0296 0.029,-0.0371 0.0565,-0.0375 0.10164,-0.051 0.15709,-0.0864 0.52648,-0.26872 1.1061,-0.52862 1.67822,-0.81013 0.0341,-0.0107 0.0615,-0.0357 0.095,-0.0453 0.01,-0.004 0.0234,6.8e-4 0.033,-0.004 1.98478,-0.54343 3.1684,0.6362 4.42661,2.1728 1.80953,2.20996 4.20804,8.12702 6.79577,8.8922 2.58773,0.7652 4.8633,-0.86948 8.37432,0.17795 3.07216,0.91652 9.962,4.20034 9.9767,4.20748 1e-5,-1e-5 -2.89572,-7.02244 -3.63813,-10.21967 -0.82871,-3.56898 0.9182,-5.7275 0.31419,-8.35753 -0.60399,-2.63003 -6.35261,-5.3714 -8.44664,-7.31392 -1.21062,-1.123 -2.1804,-2.19093 -2.09046,-3.63406 0.59398,-1.06499 1.18254,-2.08791 1.74051,-3.03169 0.27744,-0.46927 0.55013,-0.91436 0.8161,-1.27438 0.0174,-0.0185 0.0446,-0.0226 0.062,-0.0411 0.0351,-0.0468 0.048,-0.0994 0.0829,-0.14437 0.0269,-0.0287 0.0639,-0.0495 0.091,-0.0783 0.0298,-0.0375 0.0573,-0.0751 0.0869,-0.11132 0.0106,-0.0108 0.0188,-0.0263 0.029,-0.0371 0.0197,-0.0239 0.0383,-0.0509 0.058,-0.0743 0.19199,-0.20278 0.39737,-0.40273 0.59588,-0.60997 0.0144,-0.0134 0.0476,-0.028 0.062,-0.0411 0.0212,-0.0222 0.0367,-0.0521 0.058,-0.0743 0.0191,-0.0168 0.01,-0.0208 0.029,-0.0371 0.038,-0.0395 0.0818,-0.0757 0.11999,-0.11538 0.019,-0.0153 0.043,-0.0263 0.062,-0.0412 0.0167,-0.0174 0.0452,-0.0238 0.062,-0.0411 1.72163,-1.3068 3.26851,-0.61035 5.01652,0.42307 2.45872,1.45362 6.73484,6.1898 9.42794,6.01924 2.69309,-0.17057 4.2976,-2.46605 7.95477,-2.6888 3.20002,-0.19488 10.74836,0.51975 10.76463,0.5214 -10e-6,0 -5.10426,-5.62875 -6.90005,-8.37621 -2.0046,-3.06692 -1.11468,-5.67156 -2.58559,-7.93391 -1.47093,-2.26236 -7.81807,-2.87661 -10.45207,-3.98131 -1.32726,-0.55667 -2.47534,-1.12133 -3.01841,-2.17822 0.2106,-1.26526 0.44111,-2.50574 0.6598,-3.63679 0.99976,-5.17045 3.24227,-5.10968 6.04659,-4.56744 2.80432,0.54226 8.42626,3.54937 10.9052,2.48321 2.47894,-1.06619 3.16587,-3.79184 6.53521,-5.23131 2.94814,-1.25953 10.33489,-3.11364 10.35075,-3.11755 -3e-5,0 -6.72297,-3.57701 -9.33802,-5.56067 -2.9191,-2.21433 -2.92417,-4.95252 -5.07015,-6.58857 -2.14599,-1.63605 -8.35078,-0.11152 -11.20287,-0.26625 -1.62657,-0.0882 -3.03827,-0.27384 -3.89544,-1.39952 -0.22757,-1.21495 -0.45626,-2.41451 -0.633,-3.51137 -0.10249,-0.63636 -0.16037,-1.2125 -0.17822,-1.72237 6.2e-4,-0.01 -0.004,-0.023 -0.004,-0.0331 -4e-4,-0.0129 -0.003,-0.0202 -0.004,-0.033 7.8e-4,-0.0126 0.0282,-0.0245 0.029,-0.0371 -7.1e-4,-0.0319 -0.0118,-0.0677 -0.0122,-0.0991 0.0278,-0.44224 0.0685,-0.89296 0.10185,-1.35427 0.003,-0.0146 0.0262,-0.0226 0.029,-0.0371 7.9e-4,-0.0109 -0.005,-0.0222 -0.004,-0.0331 0.005,-0.0239 -0.0132,-0.0426 -0.009,-0.0661 0.002,-0.0238 0.0231,-0.0463 0.0249,-0.0702 0.48822,-2.10555 2.13471,-2.56754 4.13948,-2.89056 2.8199,-0.45435 9.13719,0.45487 11.09886,-1.39816 1.96168,-1.85305 1.68498,-4.63399 4.35455,-7.14356 2.33588,-2.19585 8.61375,-6.48571 8.6273,-6.49484 -2e-5,0 -7.50856,-1.04757 -10.64599,-2.01193 -3.50223,-1.07645 -4.47914,-3.66681 -7.05661,-4.46586 -2.57746,-0.79906 -7.85969,2.78203 -10.59127,3.61673 -2.73158,0.8347 -4.94478,1.13739 -6.48375,-3.89897 -0.3339,-1.09274 -0.69572,-2.30054 -1.03764,-3.52871 0.39101,-1.1902 1.48839,-1.90154 2.79685,-2.62486 2.49975,-1.38188 8.72298,-2.67233 9.94176,-5.0799 1.2188,-2.4076 0.0469,-4.92875 1.70964,-8.19367 1.45488,-2.8568 5.88904,-9.03097 5.8987,-9.04415 0,0 -7.41202,1.5626 -10.69068,1.71697 -3.65987,0.1723 -5.44395,-1.93729 -8.13975,-1.81691 -2.69579,0.12039 -6.44365,5.30095 -8.73159,7.01083 -1.32269,0.98853 -2.55142,1.74035 -3.95475,1.39194 -0.9392,-0.77502 -1.86942,-1.56711 -2.69611,-2.28495 -0.48987,-0.42538 -0.91105,-0.80564 -1.25297,-1.1877 -0.006,-0.008 0.002,-0.0247 -0.004,-0.033 -0.0517,-0.0581 -0.075,-0.12893 -0.12351,-0.18608 -0.18507,-0.25243 -0.40791,-0.50329 -0.59723,-0.76517 -1.38395,-2.16695 -0.37826,-3.67789 1.05553,-5.32909 1.87271,-2.15666 7.29345,-5.53501 7.61077,-8.21478 0.3173,-2.67978 -1.65768,-4.63231 -1.21803,-8.26978 0.38471,-3.18279 2.42421,-10.51381 2.42877,-10.52951 -2e-5,0 -6.4166,4.04889 -9.44259,5.32042 -3.37784,1.41937 -5.79571,0.0465 -8.28602,1.08586 -2.49029,1.03935 -4.23956,7.17687 -5.80065,9.56879 -0.97568,1.49494 -1.93873,2.69868 -3.59399,2.68933 -0.8611,-0.3092 -1.71585,-0.6042 -2.49241,-0.90114 -0.43425,-0.16604 -0.81371,-0.32262 -1.16766,-0.49377 -0.0208,-0.0132 -0.0492,-0.0115 -0.0701,-0.0249 -0.0154,-0.008 -0.0218,-0.0214 -0.0371,-0.029 -0.0114,-0.007 -0.0257,-0.0216 -0.0371,-0.029 -0.0233,-0.0117 -0.0512,-0.0462 -0.0743,-0.058 -0.48913,-0.31923 -1.00599,-0.63257 -1.53006,-0.98591 -0.044,-0.0388 -0.0743,-0.081 -0.11538,-0.11999 -0.0134,-0.009 -0.0238,-0.0199 -0.0371,-0.029 -1.51647,-1.46553 -1.0954,-3.10925 -0.37811,-4.9851 1.02017,-2.66789 4.95645,-7.6682 4.33613,-10.29442 -0.62034,-2.62623 -3.15717,-3.79077 -3.99079,-7.35862 -0.72942,-3.12186 -1.28221,-10.69414 -1.28332,-10.71045 -10e-6,0 -4.66701,5.98426 -7.07394,8.21587 -2.68681,2.49108 -5.42464,2.03278 -7.4079,3.86267 -1.98329,1.82991 -1.52686,8.18569 -2.17363,10.96778 -0.36884,1.58664 -0.78178,2.956 -2.03899,3.60509 -1.23875,0.0136 -2.47529,0.0213 -3.58858,0.005 -0.6445,-0.009 -1.22064,-0.0524 -1.72589,-0.12324 -0.01,-0.002 -0.023,0.006 -0.033,0.004 -0.0769,-0.011 -0.13651,-0.0624 -0.21045,-0.0748 -0.0201,-0.005 -0.0458,0.013 -0.0661,0.008 -0.0305,-0.005 -0.0402,-0.0194 -0.0702,-0.0249 -0.22433,-0.0546 -0.45998,-0.0931 -0.68933,-0.15005 -0.052,-0.0147 -0.0902,-0.0342 -0.1403,-0.0498 -0.10579,-0.0264 -0.20713,-0.0688 -0.31365,-0.0956 -2.1808,-0.81431 -2.3459,-2.54891 -2.31555,-4.64627 0.0413,-2.85598 2.02368,-8.91609 0.53874,-11.16928 -1.48496,-2.25318 -4.27343,-2.46969 -6.28224,-5.53386 -1.7577,-2.68115 -4.90045,-9.61264 -4.90709,-9.62757 z" />
      <path
         inkscape:connector-curvature="0"
         style="fill:#ffcc00;fill-opacity:1;fill-rule:evenodd;stroke:#cf142b;stroke-width:3.19615102;stroke-linecap:butt;stroke-linejoin:miter;stroke-miterlimit:4;stroke-opacity:1;stroke-dasharray:none"
         id="path3285"
         d="m 307.29122,114.15991 c -1e-5,0 -3.18817,6.90309 -5.02728,9.62175 -2.05295,3.03478 -4.80832,3.19535 -6.32571,5.4268 -1.51741,2.23145 0.36622,8.33025 0.36622,11.18653 0,2.1645 -0.20479,3.95421 -2.59687,4.69434 -0.35634,0.0845 -0.72188,0.15462 -1.06538,0.23306 -0.55918,0.0829 -1.22373,0.13317 -1.9643,0.13317 -1.00792,0 -2.10926,-0.008 -3.22945,-0.0333 -1.33537,-0.64412 -1.77015,-2.02798 -2.13077,-3.66226 -0.61547,-2.78919 -0.10163,-9.16799 -2.06418,-11.02006 -1.96258,-1.85208 -4.69916,-1.40748 -7.3578,-3.92861 -2.32632,-2.20597 -6.9817,-8.24371 -6.99158,-8.25672 -10e-6,0 -0.61567,7.59939 -1.39832,10.78701 -0.87368,3.55824 -3.37868,4.67212 -4.02848,7.29122 -0.64978,2.61909 3.20484,7.67501 4.19495,10.3542 0.5724,1.54889 0.96548,2.91494 0.23305,4.16165 -1.00927,0.68025 -2.00725,1.34237 -2.92981,1.93101 -0.55493,0.35408 -1.06245,0.64481 -1.53148,0.86563 -0.47669,0.17234 -0.96111,0.32345 -1.46491,0.49939 -2.26916,0.51946 -3.36631,-0.82859 -4.49458,-2.59687 -1.53636,-2.40788 -3.21368,-8.5568 -5.69315,-9.62174 -2.47948,-1.06495 -4.92696,0.28882 -8.29002,-1.16527 -2.94264,-1.27233 -9.37492,-5.35139 -9.38869,-5.36021 -1e-5,0 2.03685,7.32479 2.39711,10.58725 0.40219,3.64179 -1.58813,5.54054 -1.29843,8.22343 0.2897,2.68289 5.67387,6.11417 7.52427,8.29002 1.85041,2.17583 3.01292,4.11259 -0.9988,7.52427 -0.87755,0.7463 -1.86325,1.55589 -2.86322,2.36382 -1.2249,0.0873 -2.33017,-0.63129 -3.49579,-1.53149 -2.2606,-1.74585 -5.92938,-6.96177 -8.62295,-7.12475 -2.69357,-0.16298 -4.53343,1.9281 -8.19013,1.69795 -3.19963,-0.20136 -10.6379,-1.82748 -10.65384,-1.83113 1e-5,0 4.4165,6.17434 5.85961,9.12235 1.61091,3.29079 0.38421,5.76359 1.56478,8.19014 1.18057,2.42654 7.4105,3.8391 9.8881,5.26033 1.43235,0.82164 2.59267,1.63663 2.82992,3.06298 -0.33752,1.16597 -0.70239,2.32211 -1.03209,3.36262 -0.22743,0.71774 -0.44624,1.31747 -0.69916,1.83113 -0.14307,0.24439 -0.28384,0.48153 -0.43281,0.73245 -0.0145,0.0228 -0.0186,0.0443 -0.0332,0.0666 -0.028,0.0472 -0.0717,0.0858 -0.0998,0.13318 -0.0295,0.0425 -0.0368,0.0927 -0.0666,0.13317 -0.0153,0.0256 -0.0513,0.0409 -0.0666,0.0666 -0.009,0.0118 -0.0243,0.0216 -0.0332,0.0333 -0.004,0.008 0.004,0.0255 0,0.0333 -1.40013,1.78789 -3.11555,1.42589 -5.09386,0.79904 -2.72284,-0.8628 -7.96838,-4.50131 -10.55396,-3.72884 -2.58556,0.77246 -3.57832,3.38765 -7.09146,4.428 -3.07401,0.91028 -10.63761,1.92895 -10.65384,1.93101 1e-5,0 6.28804,4.2861 8.65624,6.55876 2.6436,2.53691 2.31907,5.2849 4.26154,7.15805 1.94249,1.87314 8.27157,1.04813 11.08665,1.53149 1.7726,0.30438 3.28795,0.71249 3.9286,2.26394 0.003,0.008 -0.003,0.0255 0,0.0333 0.0564,0.89151 0.0982,1.75173 0.13317,2.56358 0.0177,0.41105 0.0443,0.81062 0.0332,1.16527 -0.001,0.009 0.001,0.0241 0,0.0333 -0.002,0.06 -0.0305,0.10801 -0.0332,0.16647 -0.003,0.0187 0.003,0.0478 0,0.0666 -6.2e-4,0.0113 6.5e-4,0.022 0,0.0333 -0.005,0.0307 -0.028,0.0689 -0.0332,0.0999 -0.10441,0.60777 -0.20936,1.23994 -0.33293,1.89771 -0.002,0.0105 0.002,0.0227 0,0.0333 -0.005,0.0133 -0.0283,0.0201 -0.0332,0.0333 -0.004,0.0212 0.004,0.0453 0,0.0666 -0.75546,1.91414 -2.44384,2.17865 -4.428,2.26394 -2.85363,0.12266 -9.0223,-1.51195 -11.18653,0.0999 -2.16422,1.61183 -2.21664,4.41069 -5.16045,6.59207 -2.57583,1.90869 -9.30758,5.4526 -9.32211,5.46009 0,0 7.35051,1.90608 10.3542,3.22944 3.35293,1.47724 4.02537,4.13308 6.49218,5.22704 2.4668,1.09396 8.10992,-1.81983 10.92018,-2.33053 1.58077,-0.28728 3.00664,-0.4234 4.09507,0.43282 0.0151,0.0119 0.0183,0.021 0.0332,0.0333 0.006,0.0134 0.0273,0.0199 0.0332,0.0333 0.49499,1.11187 0.97851,2.21883 1.39832,3.22945 0.21149,0.50912 0.40353,0.96552 0.53269,1.39831 0.005,0.0194 -0.005,0.0473 0,0.0666 0.016,0.0545 0.0186,0.11311 0.0332,0.16647 0.002,0.009 -0.002,0.0239 0,0.0333 0.0682,0.39156 0.16547,0.78936 0.23305,1.19856 0.003,0.0261 -0.002,0.0408 0,0.0666 0.01,0.0558 0.0241,0.11045 0.0332,0.16647 0.002,0.025 -0.001,0.0419 0,0.0666 0.002,0.011 -0.002,0.0224 0,0.0332 0.002,0.0369 -7.6e-4,0.0637 0,0.0998 0.0472,2.2149 -1.46674,3.07447 -3.36262,3.86202 -2.63775,1.0957 -8.97544,1.67127 -10.45407,3.9286 -1.47863,2.25733 -0.58184,4.897 -2.59688,7.95709 -1.76315,2.67755 -6.88063,8.31128 -6.8917,8.32331 -1e-5,0 7.57809,-0.74341 10.8536,-0.5327 3.6564,0.23521 5.1647,2.55031 7.85721,2.73005 2.69251,0.17974 7.02491,-4.54756 9.48857,-5.99278 1.07785,-0.63229 2.08342,-1.13905 3.09627,-1.13197 0.73764,0.77461 1.44775,1.54951 2.09747,2.26394 3.54317,3.89604 2.17969,5.63584 0.0666,7.55756 -2.11315,1.92173 -7.89312,4.63399 -8.52307,7.25793 -0.62996,2.62394 1.09699,4.79596 0.23305,8.3566 -0.75594,3.11554 -3.65589,10.13939 -3.66225,10.15444 1e-5,1e-5 6.86684,-3.25442 10.02126,-4.16166 3.5212,-1.0127 5.76144,0.63971 8.35661,-0.0998 2.59514,-0.73961 5.02712,-6.63075 6.8584,-8.82271 1.0444,-1.2501 2.04767,-2.25119 3.4625,-2.26394 1.11291,0.54667 2.20876,1.08146 3.19615,1.59807 0.47391,0.24795 0.89692,0.49008 1.26514,0.73246 0.006,0.005 0.027,-0.005 0.0332,0 0.0493,0.0326 0.0857,0.0673 0.13318,0.0998 0.0234,0.0198 0.043,0.0467 0.0666,0.0666 0.0265,0.0185 0.0739,0.048 0.0998,0.0666 0.0355,0.0301 0.0642,0.0696 0.0998,0.0998 0.006,0.004 0.0271,-0.004 0.0332,0 0.19797,0.16856 0.39686,0.32508 0.59928,0.4994 0.0199,0.0183 0.0472,0.0484 0.0666,0.0666 0.0365,0.0315 0.0632,0.0682 0.0998,0.0998 0.0415,0.041 0.0943,0.0589 0.13317,0.0998 0.0118,0.0106 0.0215,0.023 0.0332,0.0332 0.006,0.007 -0.006,0.026 0,0.0332 0.0237,0.0205 0.0429,0.046 0.0666,0.0666 1.49161,1.68251 0.85805,3.29626 -0.0998,5.12716 -1.32413,2.53078 -5.80339,7.07428 -5.49338,9.75492 0.31,2.68063 2.68415,4.11663 3.09627,7.75732 0.36059,3.1856 0.0674,10.80397 0.0666,10.8203 -1e-5,1e-5 5.30646,-5.42194 7.95709,-7.3578 2.95884,-2.16096 5.60759,-1.37683 7.79062,-2.9631 2.18303,-1.58629 2.49588,-7.96611 3.46249,-10.65384 0.96661,-2.68774 2.03606,-4.64541 6.99158,-2.86322 1.08402,0.38985 2.29741,0.83307 3.4958,1.29844 0.68524,1.01904 0.60036,2.33643 0.39951,3.79543 -0.38951,2.8296 -3.09663,8.60252 -1.89771,11.02006 1.19892,2.41755 3.94007,2.97274 5.55997,6.25913 1.41744,2.87559 3.69079,10.13881 3.69555,10.15444 -10e-6,0 3.18822,-6.90307 5.02728,-9.62175 2.0529,-3.03481 4.80834,-3.19533 6.32572,-5.4268 1.51736,-2.23145 -0.3662,-8.33024 -0.36623,-11.18652 -3e-5,-1.65127 0.11267,-3.07966 1.23185,-3.99519 1.1892,-0.29 2.35385,-0.56538 3.4292,-0.79904 0.60306,-0.13104 1.14017,-0.21929 1.63137,-0.26635 0.0959,6e-4 0.2025,-8.4e-4 0.29964,0 0.0189,-10e-4 0.0479,0.001 0.0666,0 0.3463,0.003 0.67366,-0.006 1.03209,0 0.007,6.4e-4 0.0256,-6.7e-4 0.0332,0 0.0842,0.001 0.18174,-10e-4 0.26634,0 0.01,0.001 0.0237,0.0319 0.0332,0.0332 0.0423,7.8e-4 0.0908,-8.1e-4 0.13318,0 2.12891,0.37343 2.6651,2.01087 3.09627,3.99519 0.60645,2.79116 0.041,9.16166 1.99759,11.02006 1.95661,1.85839 4.74059,1.43221 7.3911,3.9619 2.31919,2.21347 6.94843,8.24367 6.95829,8.25672 10e-6,0 0.60537,-7.56864 1.39832,-10.75371 0.88512,-3.55542 3.43684,-4.67424 4.09506,-7.29122 0.65823,-2.61699 -3.21347,-7.67185 -4.19494,-10.3542 -0.62876,-1.71838 -1.02886,-3.24963 0.0666,-4.59447 0.729,-0.48138 1.45836,-0.93991 2.13077,-1.36502 0.35645,-0.22535 0.67869,-0.42955 0.9988,-0.59928 0.0183,-0.007 0.048,-0.0262 0.0666,-0.0332 0.0217,-0.0113 0.0451,-0.0222 0.0666,-0.0332 0.0261,-0.01 0.0402,-0.0233 0.0666,-0.0332 0.007,-0.003 0.0263,0.003 0.0332,0 0.0152,-0.005 0.018,-0.0276 0.0332,-0.0332 0.0606,-0.0304 0.10709,-0.0383 0.16646,-0.0666 0.55533,-0.20245 1.16235,-0.38968 1.76454,-0.59927 0.0351,-0.006 0.0654,-0.028 0.0998,-0.0332 0.0106,-0.003 0.0231,0.003 0.0332,0 2.03626,-0.29716 3.06708,1.0181 4.12836,2.69675 1.52632,2.41426 3.18484,8.57979 5.65985,9.65504 2.47502,1.07527 4.93306,-0.26951 8.29002,1.19856 2.93736,1.28456 9.37497,5.38463 9.38869,5.3935 2e-5,-10e-6 -2.01712,-7.32332 -2.36382,-10.58725 -0.38699,-3.64344 1.61028,-5.57265 1.33173,-8.25672 -0.27852,-2.68409 -5.64964,-6.10648 -7.49098,-8.29002 -1.06453,-1.26234 -1.89674,-2.44064 -1.63136,-3.86202 0.7195,-0.98454 1.42849,-1.92799 2.09747,-2.79663 0.33262,-0.43191 0.65759,-0.84038 0.9655,-1.16526 0.0195,-0.0163 0.047,-0.0169 0.0666,-0.0332 0.0405,-0.0422 0.0598,-0.0928 0.0998,-0.13318 0.0303,-0.0251 0.0695,-0.0413 0.0998,-0.0666 0.0341,-0.0336 0.0661,-0.0675 0.0998,-0.0998 0.0114,-0.01 0.0218,-0.0239 0.0332,-0.0332 0.0225,-0.0212 0.0442,-0.0459 0.0666,-0.0666 0.21529,-0.17784 0.44354,-0.35124 0.66586,-0.5327 0.016,-0.0115 0.0507,-0.022 0.0666,-0.0332 0.0238,-0.0194 0.0427,-0.0472 0.0666,-0.0666 0.021,-0.0144 0.0124,-0.0194 0.0332,-0.0332 0.0425,-0.0346 0.0905,-0.0652 0.13318,-0.0998 0.0208,-0.0129 0.0459,-0.0209 0.0666,-0.0332 0.0187,-0.0152 0.0477,-0.018 0.0666,-0.0332 1.86824,-1.08694 3.31857,-0.20692 4.9274,1.03209 2.26296,1.7428 5.92916,6.96539 8.62295,7.12475 2.69377,0.15935 4.5664,-1.92316 8.22343,-1.69795 3.19989,0.19707 10.60461,1.82751 10.62054,1.83113 -10e-6,0 -4.37922,-6.20957 -5.82631,-9.15564 -1.61535,-3.28863 -0.41424,-5.7652 -1.59808,-8.19014 -1.18384,-2.42495 -7.40859,-3.80916 -9.88809,-5.22704 -1.24942,-0.71448 -2.32001,-1.41502 -2.73005,-2.53029 0.36344,-1.2301 0.7436,-2.43318 1.09868,-3.52908 1.62324,-5.00982 3.84158,-4.67584 6.55877,-3.79543 2.71718,0.88042 7.93014,4.55112 10.52066,3.79543 2.59052,-0.75571 3.60494,-3.37716 7.12476,-4.39471 3.07981,-0.89035 10.63761,-1.82918 10.65383,-1.83113 -3e-5,0 -6.23621,-4.37069 -8.58965,-6.65864 -2.62707,-2.55401 -2.29795,-5.27235 -4.22825,-7.15805 -1.93029,-1.8857 -8.27476,-1.12976 -11.08664,-1.63137 -1.60365,-0.28607 -2.98215,-0.64255 -3.69555,-1.86442 -0.0776,-1.23365 -0.1582,-2.45215 -0.19976,-3.56238 -0.0241,-0.64412 -0.0112,-1.22301 0.0332,-1.73125 0.002,-0.01 -0.002,-0.0234 0,-0.0333 10e-4,-0.0129 -0.001,-0.0205 0,-0.0333 0.002,-0.0124 0.031,-0.0209 0.0332,-0.0333 0.003,-0.0318 -0.003,-0.0686 0,-0.0999 0.0816,-0.43555 0.17697,-0.87793 0.26634,-1.33173 0.004,-0.0142 0.0288,-0.0193 0.0332,-0.0333 0.002,-0.0107 -0.002,-0.0226 0,-0.0333 0.007,-0.0232 -0.007,-0.0438 0,-0.0666 0.004,-0.0234 0.0287,-0.0431 0.0332,-0.0666 0.74152,-2.03023 2.43208,-2.28785 4.4613,-2.36382 2.85427,-0.10682 9.01339,1.56651 11.18653,-0.0333 2.17314,-1.59981 2.23788,-4.39374 5.19374,-6.55877 2.58638,-1.89439 9.34083,-5.38609 9.3554,-5.3935 -2e-5,0 -7.32461,-1.95603 -10.3209,-3.29603 -3.3447,-1.4958 -3.9982,-4.18601 -6.45889,-5.29363 -2.4607,-1.10761 -8.14045,1.80212 -10.95348,2.29723 -2.81302,0.49512 -5.04662,0.52547 -5.95949,-4.66105 -0.19806,-1.12531 -0.40978,-2.36824 -0.59928,-3.62896 0.53333,-1.13359 1.70933,-1.7057 3.09627,-2.26394 2.6497,-1.06651 8.9839,-1.58787 10.48738,-3.82873 1.50349,-2.24086 0.648,-4.88618 2.69675,-7.92379 1.79262,-2.65792 6.94708,-8.24482 6.95829,-8.25672 0,0 -7.54732,0.64641 -10.82031,0.39952 -3.65354,-0.27561 -5.16685,-2.58714 -7.8572,-2.79663 -2.69034,-0.20949 -7.04238,4.47499 -9.52187,5.8929 -1.43344,0.81973 -2.74474,1.41598 -4.09507,0.89892 -0.8376,-0.88383 -1.6642,-1.78352 -2.39711,-2.59688 -0.4343,-0.48198 -0.80593,-0.91079 -1.09868,-1.33173 -0.005,-0.009 0.005,-0.0243 0,-0.0333 -0.0442,-0.0639 -0.0587,-0.13711 -0.0998,-0.19976 -0.1529,-0.27313 -0.34345,-0.5493 -0.4994,-0.83233 -1.10917,-2.31964 0.0734,-3.69656 1.69795,-5.16045 2.12191,-1.91201 7.91439,-4.60361 8.55636,-7.22463 0.64195,-2.62103 -1.08001,-4.79997 -0.19975,-8.35661 0.77024,-3.11205 3.68911,-10.1394 3.69555,-10.15444 -2e-5,0 -6.86273,3.23562 -10.02127,4.12837 -3.5258,0.99657 -5.75808,-0.66111 -8.3566,0.0666 -2.59852,0.7277 -5.0837,6.60587 -6.925,8.78942 -1.15081,1.3647 -2.25357,2.44192 -3.89531,2.23064 -0.81694,-0.41196 -1.6293,-0.80907 -2.36382,-1.19855 -0.41073,-0.2178 -0.76826,-0.41951 -1.09867,-0.63257 -0.019,-0.0156 -0.0475,-0.0175 -0.0666,-0.0333 -0.0144,-0.009 -0.0191,-0.0239 -0.0332,-0.0333 -0.0106,-0.009 -0.0229,-0.0246 -0.0332,-0.0333 -0.0217,-0.0145 -0.0452,-0.0521 -0.0666,-0.0666 -0.44652,-0.37654 -0.92128,-0.75062 -1.39831,-1.16526 -0.0389,-0.0438 -0.0638,-0.0894 -0.0998,-0.13318 -0.0121,-0.0105 -0.0211,-0.0227 -0.0332,-0.0333 -1.3263,-1.63964 -0.70779,-3.21968 0.23305,-4.99399 1.33811,-2.52345 5.85518,-7.00603 5.55997,-9.68833 -0.29521,-2.6823 -2.67097,-4.14771 -3.06297,-7.79062 -0.343,-3.18754 0.0324,-10.77069 0.0332,-10.78701 -1e-5,0 -5.3624,5.37002 -8.02367,7.29122 -2.97073,2.14459 -5.63217,1.35561 -7.82392,2.92981 -2.19176,1.5742 -2.51434,7.93817 -3.49579,10.62054 -0.55971,1.52979 -1.13666,2.83851 -2.4637,3.32933 -1.23113,-0.13768 -2.45937,-0.28097 -3.56237,-0.43282 -0.63855,-0.0879 -1.20512,-0.201 -1.69796,-0.33293 -0.01,-0.004 -0.0236,0.004 -0.0332,0 -0.075,-0.0204 -0.12789,-0.0786 -0.19976,-0.0999 -0.0194,-0.007 -0.0471,0.007 -0.0666,0 -0.0296,-0.009 -0.0375,-0.0241 -0.0666,-0.0333 -0.216,-0.0815 -0.44519,-0.14852 -0.66587,-0.23305 -0.0499,-0.021 -0.0853,-0.045 -0.13317,-0.0666 -0.10174,-0.0391 -0.19718,-0.0936 -0.29964,-0.13317 -2.06513,-1.07435 -2.01731,-2.81613 -1.73125,-4.89411 0.38955,-2.82959 3.09661,-8.60251 1.89772,-11.02006 -1.1989,-2.41755 -3.9401,-2.97272 -5.55997,-6.25913 -1.41739,-2.87561 -3.69078,-10.13881 -3.69555,-10.15444 z" />
      <g
         id="g2941"
         style="fill:#cf142b;fill-opacity:1;stroke:#cf142b;stroke-opacity:1">
        <path
           inkscape:connector-curvature="0"
           style="fill:#cf142b;fill-opacity:1;fill-rule:evenodd;stroke:#cf142b;stroke-width:1.59807551;stroke-linecap:butt;stroke-linejoin:miter;stroke-miterlimit:4;stroke-opacity:1;stroke-dasharray:none;stroke-dashoffset:0;marker:none;visibility:visible;display:inline;overflow:visible"
           id="path3289"
           d="m 292.25453,252.11456 c 0,0 -5.42791,5.55414 7.32134,5.68036 12.74927,0.12624 8.7099,-5.68036 8.7099,-5.68036 0,0 3.78691,3.02953 -7.57382,3.02953 -11.36072,0 -8.3312,-2.77706 -8.45742,-3.02953 z" />
        <path
           inkscape:connector-curvature="0"
           style="fill:#cf142b;fill-opacity:1;fill-rule:evenodd;stroke:#cf142b;stroke-width:1.59807551;stroke-linecap:butt;stroke-linejoin:miter;stroke-miterlimit:4;stroke-opacity:1;stroke-dasharray:none;stroke-dashoffset:0;marker:none;visibility:visible;display:inline;overflow:visible"
           id="path3291"
           d="m 284.66369,248.83258 c 0,0 1.51476,-2.65084 16.15748,-2.65084 14.64271,0 14.51648,2.77706 14.51648,2.77706 0,0 -5.17544,-1.00983 -8.45743,-1.00983 -3.28199,0 -3.78691,1.51476 -5.55413,1.51476 -1.76723,0 -1.76723,-1.641 -4.92298,-1.641 -3.15576,0 -11.86565,1.38854 -11.73942,1.00985 z" />
        <g
           id="g2954"
           style="fill:#cf142b;fill-opacity:1;stroke:#cf142b;stroke-opacity:1">
          <path
             inkscape:connector-curvature="0"
             style="fill:#cf142b;fill-opacity:1;fill-rule:evenodd;stroke:#cf142b;stroke-width:1.59807551;stroke-linecap:butt;stroke-linejoin:miter;stroke-miterlimit:4;stroke-opacity:1;stroke-dasharray:none;stroke-dashoffset:0;marker:none;visibility:visible;display:inline;overflow:visible"
             id="path3295"
             d="m 295.45633,236.46201 c 0.0788,2.11435 2.52461,2.58772 4.79675,2.65084 2.27215,0.0631 4.29183,-1e-5 4.29183,-2.39839 0,-2.39837 -2.5246,0.63116 -4.1656,0.63116 -1.64099,0 -4.99717,-2.87191 -4.92298,-0.88361 z" />
          <g
             id="g2988"
             style="fill:#cf142b;fill-opacity:1;stroke:#cf142b;stroke-opacity:1">
            <path
               inkscape:connector-curvature="0"
               style="fill:#cf142b;fill-opacity:1;fill-rule:evenodd;stroke:#cf142b;stroke-width:1.59807551;stroke-linecap:butt;stroke-linejoin:miter;stroke-miterlimit:4;stroke-opacity:1;stroke-dasharray:none;stroke-dashoffset:0;marker:none;visibility:visible;display:inline;overflow:visible"
               id="path3299"
               d="m 289.98841,227.34247 c 0,0 -5.30167,2.27214 -5.55413,5.80659 -0.25246,3.53444 4.03937,4.1656 5.55413,4.1656 1.51476,0 1.13607,-1.13607 1.13607,-1.89345 0,-0.75739 -4.29182,-0.25247 -4.1656,-1.76723 0.12624,-1.51476 2.9033,-6.43774 3.02953,-6.31151 z" />
            <path
               inkscape:connector-curvature="0"
               style="fill:#cf142b;fill-opacity:1;fill-rule:evenodd;stroke:#cf142b;stroke-width:1.59807551;stroke-linecap:butt;stroke-linejoin:miter;stroke-miterlimit:4;stroke-opacity:1;stroke-dasharray:none;stroke-dashoffset:0;marker:none;visibility:visible;display:inline;overflow:visible"
               id="path3301"
               d="m 310.01161,227.34247 c 0,0 5.30167,2.27214 5.55414,5.80659 0.25245,3.53444 -4.03937,4.1656 -5.55414,4.1656 -1.51476,0 -1.13607,-1.13607 -1.13607,-1.89345 0,-0.75739 4.29183,-0.25247 4.1656,-1.76723 -0.12624,-1.51476 -2.9033,-6.43774 -3.02953,-6.31151 z" />
          </g>
        </g>
      </g>
      <path
         inkscape:connector-curvature="0"
         style="fill:#cf142b;fill-opacity:1;fill-rule:evenodd;stroke:#cf142b;stroke-width:1.59807551;stroke-linecap:butt;stroke-linejoin:miter;stroke-miterlimit:4;stroke-opacity:1;stroke-dasharray:none;stroke-dashoffset:0;marker:none;visibility:visible;display:inline;overflow:visible"
         id="path3303"
         d="m 313.03431,162.20842 c -0.0525,0.009 -0.11645,0.0475 -0.16646,0.0666 -0.48503,4.74214 -2.36038,5.50119 -6.72524,5.26033 -4.70839,-1.70854 -14.41093,-8.25271 -13.61693,0.69916 -6.27012,2.86683 -18.53729,-2.35285 -20.10912,1.09868 3.84568,3.65256 -4.81485,9.01977 -10.22103,9.18893 -1.57681,0.2953 -5.69432,1.77214 -6.82511,3.26274 -0.0267,0.0364 -0.0769,0.0968 -0.0998,0.13317 -0.0552,0.0909 -0.10302,0.20903 -0.13317,0.29964 -0.0137,0.0453 -0.0263,0.12138 -0.0332,0.16647 -0.004,0.036 -8e-5,0.0973 0,0.13317 0.001,0.0358 -0.006,0.0976 0,0.13317 0.007,0.0356 0.0211,0.0979 0.0332,0.13317 0.0134,0.0352 0.0479,0.0982 0.0666,0.13318 0.0149,0.0261 0.0486,0.0739 0.0666,0.0999 0.0252,0.0345 0.069,0.099 0.0998,0.13317 0.0242,0.0256 0.0725,0.0746 0.0998,0.0999 0.34161,0.30302 0.92747,0.60874 1.79783,0.86562 0.56317,8.5123 -11.25581,8.88532 -14.38268,15.64783 0.68301,2.1584 5.45285,1.69876 3.56238,5.82631 -1.37957,5.39644 -10.74368,11.14159 -7.79062,16.24711 8.01447,-0.56361 2.24585,10.81321 1.29844,15.28159 -0.42437,1.60564 -0.5887,4.93126 0.43281,5.75973 0.006,0.005 0.0272,0.0288 0.0332,0.0333 0.006,0.004 0.0269,0.0292 0.0332,0.0333 0.0128,0.008 0.0535,0.0261 0.0666,0.0333 0.0265,0.0137 0.0719,0.0226 0.0998,0.0333 0.0142,0.005 0.0521,0.0291 0.0666,0.0333 0.0146,0.004 0.0516,-0.003 0.0666,0 0.0151,0.003 0.051,0.0315 0.0666,0.0333 0.0157,0.001 0.0505,-5.3e-4 0.0666,0 0.0244,1.6e-4 0.0747,0.002 0.0998,0 0.034,-0.003 0.0977,-0.0265 0.13318,-0.0333 0.0448,-0.01 0.11927,-0.0178 0.16646,-0.0333 0.0763,-0.0266 0.1838,-0.0909 0.26635,-0.13318 0.37507,-0.19939 0.81844,-0.56514 1.33173,-1.13197 7.65344,3.76844 2.09924,14.21966 6.3923,20.30888 2.21073,0.48772 4.16249,-3.90073 6.79182,-0.19976 3.98364,3.89295 4.28972,14.88679 10.18773,14.88208 3.51911,-7.22264 10.48728,3.47079 13.88328,6.52548 1.17146,1.16348 3.95461,2.93825 5.19375,2.49699 0.0288,-0.011 0.0729,-0.0197 0.0998,-0.0332 0.0132,-0.007 0.0538,-0.0256 0.0666,-0.0332 0.006,-0.004 0.0272,-0.0291 0.0332,-0.0332 0.0726,-0.0524 0.14551,-0.1222 0.19976,-0.19976 0.009,-0.0133 0.025,-0.0525 0.0332,-0.0666 0.007,-0.0144 0.0259,-0.0515 0.0332,-0.0666 0.1985,-0.43476 0.19792,-1.16488 -0.16646,-2.29724 7.09032,-4.74378 13.32174,5.30104 20.74169,4.62776 1.52774,-1.67069 -1.25707,-5.5662 3.26273,-5.99278 5.36323,-1.5035 15.03342,3.71186 17.97835,-1.39832 -4.49538,-6.65892 8.24142,-7.34243 12.58485,-8.75612 1.59333,-0.43277 4.5235,-1.93569 4.76093,-3.22944 0.002,-0.0152 -0.002,-0.0515 0,-0.0666 10e-4,-0.0151 0.0328,-0.0516 0.0332,-0.0666 10e-5,-0.015 -0.0326,-0.0517 -0.0332,-0.0666 -10e-4,-0.0149 0.002,-0.0518 0,-0.0666 -0.002,-0.0148 0.003,-0.0519 0,-0.0666 -0.003,-0.0146 -0.0289,-0.0521 -0.0332,-0.0666 -0.0122,-0.0362 -0.0154,-0.0976 -0.0332,-0.13318 -0.0151,-0.0283 -0.0477,-0.0719 -0.0666,-0.0998 -0.0247,-0.0347 -0.0691,-0.0992 -0.0998,-0.13317 -0.0576,-0.0608 -0.15493,-0.14174 -0.23305,-0.19976 -0.3577,-0.25639 -0.93395,-0.48686 -1.76455,-0.66587 -0.56317,-8.5123 11.2558,-8.88532 14.38268,-15.64782 -0.683,-2.15839 -5.45283,-1.69878 -3.56237,-5.82632 1.37956,-5.39644 10.74366,-11.14157 7.79062,-16.2471 -8.01452,0.56365 -2.24587,-10.81322 -1.29844,-15.2816 0.41693,-1.57747 0.59657,-4.82778 -0.36623,-5.72644 -0.0232,-0.0207 -0.0753,-0.0486 -0.0998,-0.0666 -0.006,-0.004 -0.027,-0.0291 -0.0332,-0.0333 -0.0448,-0.0278 -0.11761,-0.0479 -0.16647,-0.0666 -0.007,-0.002 -0.0261,-0.031 -0.0332,-0.0333 -0.0145,-0.004 -0.0518,0.003 -0.0666,0 -0.015,-0.003 -0.0512,-0.0311 -0.0666,-0.0333 -0.0233,-0.003 -0.0758,7.9e-4 -0.0998,0 -0.0244,-1.6e-4 -0.0747,-0.002 -0.0998,0 -0.0255,0.002 -0.0735,0.0289 -0.0998,0.0333 -0.0443,0.009 -0.11975,0.019 -0.16647,0.0333 -0.0755,0.0247 -0.18459,0.0596 -0.26634,0.0999 -0.38181,0.19559 -0.83747,0.58268 -1.36503,1.16526 -7.65341,-3.76846 -2.06598,-14.21964 -6.35901,-20.30888 -2.21106,-0.48577 -4.19629,3.86963 -6.82511,0.16647 -4.01039,-4.09076 -4.19463,-14.34543 -10.15444,-15.08184 -3.248,7.87323 -10.06246,-3.3839 -13.81669,-5.92619 -2.53141,-1.41891 -5.29837,-5.93451 -6.925,-5.65985 z m -13.38388,7.69074 c 0.11849,-7.6e-4 0.24755,0 0.36623,0 30.38009,0 55.03372,24.65363 55.03372,55.03373 10e-6,30.3801 -24.65363,55.06702 -55.03372,55.06702 -30.3801,-10e-6 -55.06702,-24.68692 -55.06702,-55.06702 1e-5,-30.26143 24.4842,-54.84214 54.70079,-55.03373 z" />
      <g
         id="g2966"
         style="fill:#cf142b;fill-opacity:1;stroke:#cf142b;stroke-opacity:1">
        <g
           id="g2976"
           style="fill:#cf142b;fill-opacity:1;stroke:#cf142b;stroke-opacity:1">
          <path
             inkscape:connector-curvature="0"
             style="fill:#cf142b;fill-opacity:1;fill-rule:evenodd;stroke:#cf142b;stroke-width:1.50999272;stroke-linecap:butt;stroke-linejoin:miter;stroke-miterlimit:4;stroke-opacity:1;stroke-dasharray:none"
             id="path3309"
             d="m 287.28476,207.66056 c -2.80432,-2.56922 -2.01968,-5.0492 -10.35088,-5.42789 -8.3312,-0.37869 -11.2345,2.65083 -11.2345,3.53444 0,0.88362 0.8205,1.1992 0.8205,1.1992 0,0 0.48891,0.31939 0.56804,-0.94674 0.12623,-2.01968 6.09062,-3.85002 8.45743,-3.09264 -3.12421,1.19919 -2.65954,6.12217 1.00983,6.12217 3.15577,0 2.39839,-5.93282 2.39839,-5.93282 0,0 4.66052,0.14335 8.33119,4.54428 z" />
          <path
             inkscape:connector-curvature="0"
             style="fill:#cf142b;fill-opacity:1;fill-rule:evenodd;stroke:#cf142b;stroke-width:1.50999272;stroke-linecap:butt;stroke-linejoin:miter;stroke-miterlimit:4;stroke-opacity:1;stroke-dasharray:none;stroke-dashoffset:0;marker:none;visibility:visible;display:inline;overflow:visible"
             id="path3311"
             d="m 268.22399,196.17361 c 0,0 2.01969,-3.66068 9.5935,-3.40822 7.57383,0.25246 10.09842,5.04922 10.09842,5.04922 0,0 -4.41805,-3.53446 -10.22464,-3.15577 -5.8066,0.37869 -9.34104,1.51477 -9.46728,1.51477 z" />
        </g>
        <g
           id="g2982"
           style="fill:#cf142b;fill-opacity:1;stroke:#cf142b;stroke-opacity:1">
          <path
             inkscape:connector-curvature="0"
             style="fill:#cf142b;fill-opacity:1;fill-rule:evenodd;stroke:#cf142b;stroke-width:1.50999272;stroke-linecap:butt;stroke-linejoin:miter;stroke-miterlimit:4;stroke-opacity:1;stroke-dasharray:none"
             id="path3315"
             d="m 312.71526,207.66056 c 2.80432,-2.56922 2.01968,-5.0492 10.35088,-5.42789 8.3312,-0.37869 11.2345,2.65083 11.2345,3.53444 0,0.88362 -0.8205,1.1992 -0.8205,1.1992 0,0 -0.48891,0.31939 -0.56804,-0.94674 -0.12623,-2.01968 -6.09062,-3.85002 -8.45743,-3.09264 3.12421,1.19919 2.65954,6.12217 -1.00983,6.12217 -3.15577,0 -2.39839,-5.93282 -2.39839,-5.93282 0,0 -4.66052,0.14335 -8.33119,4.54428 z" />
          <path
             inkscape:connector-curvature="0"
             style="fill:#cf142b;fill-opacity:1;fill-rule:evenodd;stroke:#cf142b;stroke-width:1.50999272;stroke-linecap:butt;stroke-linejoin:miter;stroke-miterlimit:4;stroke-opacity:1;stroke-dasharray:none;stroke-dashoffset:0;marker:none;visibility:visible;display:inline;overflow:visible"
             id="path3317"
             d="m 331.77603,196.17361 c 0,0 -2.01969,-3.66068 -9.5935,-3.40822 -7.57383,0.25246 -10.09842,5.04922 -10.09842,5.04922 0,0 4.41805,-3.53446 10.22464,-3.15577 5.8066,0.37869 9.34104,1.51477 9.46728,1.51477 z" />
        </g>
      </g>
    </g>
  </g>
</svg>
