<svg xmlns="http://www.w3.org/2000/svg" height="600" width="840"><path d="M 0,0 H 840 V 600 H 0 Z" fill="#ce1126" fill-rule="evenodd"/><path d="m 316.66666,176.66668 a 133.33333,133.33333 0 1 1 -266.666659,0 133.33333,133.33333 0 1 1 266.666659,0 z" fill="#fff"/><path d="m 0,399.99994 h 840 v 200 H 0 Z" fill="#3d8e33" fill-rule="evenodd"/><path d="m 349.99999,205.00001 a 125,125 0 1 1 -249.99999,0 125,125 0 1 1 249.99999,0 z" fill="#ce1126"/><g fill="#fff" fill-rule="evenodd"><path d="m 136.0874,105.37045 12.45956,7.93704 11.68739,-9.0356 -3.69836,14.30244 12.20497,8.32322 -14.74528,0.90234 -4.14432,14.17964 -5.41471,-13.74475 -14.76629,0.44026 11.39878,-9.39707 z" transform="scale(2)"/><path d="m 86.902395,110.9124 12.45956,7.93704 11.687395,-9.0356 -3.69836,14.30243 12.20497,8.32323 -14.74528,0.90233 -4.14432,14.17964 -5.414707,-13.74474 -14.766298,0.44026 11.39879,-9.39707 z" transform="scale(2)"/><path d="m 72.202256,63.662119 12.45956,7.937039 11.687398,-9.035596 -3.698364,14.302435 12.20497,8.323224 -14.745275,0.902336 -4.144323,14.179643 -5.414708,-13.74475 -14.766298,0.440258 11.39879,-9.397069 z" transform="scale(2)"/><path d="m 123.65253,58.412119 12.45956,7.937039 11.6874,-9.035596 -3.69836,14.302436 12.20497,8.323223 -14.74528,0.902336 -4.14432,14.179639 -5.41471,-13.744746 -14.7663,0.440258 11.39879,-9.397068 z" transform="scale(2)"/></g></svg>