<?xml version="1.0" encoding="UTF-8" standalone="no"?>
<!-- Created with Inkscape (http://www.inkscape.org/) -->
<svg
   xmlns:svg="http://www.w3.org/2000/svg"
   xmlns="http://www.w3.org/2000/svg"
   xmlns:xlink="http://www.w3.org/1999/xlink"
   version="1.0"
   width="324"
   height="216"
   id="svg2">
  <defs
     id="defs5" />
  <rect
     width="324"
     height="216"
     x="0"
     y="5.7220459e-006"
     style="fill:red;fill-opacity:1;fill-rule:nonzero;stroke:none;stroke-width:5;stroke-miterlimit:4;stroke-dasharray:none;stroke-opacity:1"
     id="rect3701" />
  <rect
     width="324"
     height="72"
     x="0"
     y="72.000008"
     style="fill:white;fill-opacity:1;fill-rule:nonzero;stroke:none;stroke-width:5;stroke-miterlimit:4;stroke-dasharray:none;stroke-opacity:1"
     id="rect3703" />
  <g
     style="fill:#00a;fill-opacity:1"
     id="g2800">
    <path
       d="M -6.1948178,90.184945 L -28.579613,73.928514 L -50.81017,90.395236 L -42.266668,64.082518 L -64.797072,48.028499 L -37.132102,48.022774 L -28.8261,21.634123 L -20.27171,47.943304 L 7.3920848,47.688239 L -14.985981,63.953931 L -6.1948178,90.184945 z "
       transform="matrix(0.363578,0,0,0.363578,146.5588,71.13432)"
       style="fill:#00a;fill-opacity:1;fill-rule:nonzero;stroke:none;stroke-width:5;stroke-miterlimit:4;stroke-dasharray:none;stroke-opacity:1"
       id="path1873" />
    <path
       d="M -6.1948178,90.184945 L -28.579613,73.928514 L -50.81017,90.395236 L -42.266668,64.082518 L -64.797072,48.028499 L -37.132102,48.022774 L -28.8261,21.634123 L -20.27171,47.943304 L 7.3920848,47.688239 L -14.985981,63.953931 L -6.1948178,90.184945 z "
       transform="matrix(0.363578,0,0,0.363578,117.5588,71.13432)"
       style="fill:#00a;fill-opacity:1;fill-rule:nonzero;stroke:none;stroke-width:5;stroke-miterlimit:4;stroke-dasharray:none;stroke-opacity:1"
       id="path2760" />
    <path
       d="M -6.1948178,90.184945 L -28.579613,73.928514 L -50.81017,90.395236 L -42.266668,64.082518 L -64.797072,48.028499 L -37.132102,48.022774 L -28.8261,21.634123 L -20.27171,47.943304 L 7.3920848,47.688239 L -14.985981,63.953931 L -6.1948178,90.184945 z "
       transform="matrix(0.363578,0,0,0.363578,204.5588,71.13432)"
       style="fill:#00a;fill-opacity:1;fill-rule:nonzero;stroke:none;stroke-width:5;stroke-miterlimit:4;stroke-dasharray:none;stroke-opacity:1"
       id="path2768" />
    <path
       d="M -6.1948178,90.184945 L -28.579613,73.928514 L -50.81017,90.395236 L -42.266668,64.082518 L -64.797072,48.028499 L -37.132102,48.022774 L -28.8261,21.634123 L -20.27171,47.943304 L 7.3920848,47.688239 L -14.985981,63.953931 L -6.1948178,90.184945 z "
       transform="matrix(0.363578,0,0,0.363578,175.5588,71.13432)"
       style="fill:#00a;fill-opacity:1;fill-rule:nonzero;stroke:none;stroke-width:5;stroke-miterlimit:4;stroke-dasharray:none;stroke-opacity:1"
       id="path2770" />
    <path
       d="M -6.1948178,90.184945 L -28.579613,73.928514 L -50.81017,90.395236 L -42.266668,64.082518 L -64.797072,48.028499 L -37.132102,48.022774 L -28.8261,21.634123 L -20.27171,47.943304 L 7.3920848,47.688239 L -14.985981,63.953931 L -6.1948178,90.184945 z "
       transform="matrix(0.363578,0,0,0.363578,261.5588,71.13432)"
       style="fill:#00a;fill-opacity:1;fill-rule:nonzero;stroke:none;stroke-width:5;stroke-miterlimit:4;stroke-dasharray:none;stroke-opacity:1"
       id="path2784" />
    <path
       d="M -6.1948178,90.184945 L -28.579613,73.928514 L -50.81017,90.395236 L -42.266668,64.082518 L -64.797072,48.028499 L -37.132102,48.022774 L -28.8261,21.634123 L -20.27171,47.943304 L 7.3920848,47.688239 L -14.985981,63.953931 L -6.1948178,90.184945 z "
       transform="matrix(0.363578,0,0,0.363578,232.5588,71.13432)"
       style="fill:#00a;fill-opacity:1;fill-rule:nonzero;stroke:none;stroke-width:5;stroke-miterlimit:4;stroke-dasharray:none;stroke-opacity:1"
       id="path2786" />
    <path
       d="M -6.1948178,90.184945 L -28.579613,73.928514 L -50.81017,90.395236 L -42.266668,64.082518 L -64.797072,48.028499 L -37.132102,48.022774 L -28.8261,21.634123 L -20.27171,47.943304 L 7.3920848,47.688239 L -14.985981,63.953931 L -6.1948178,90.184945 z "
       transform="matrix(0.363578,0,0,0.363578,319.5588,71.13432)"
       style="fill:#00a;fill-opacity:1;fill-rule:nonzero;stroke:none;stroke-width:5;stroke-miterlimit:4;stroke-dasharray:none;stroke-opacity:1"
       id="path2788" />
    <path
       d="M -6.1948178,90.184945 L -28.579613,73.928514 L -50.81017,90.395236 L -42.266668,64.082518 L -64.797072,48.028499 L -37.132102,48.022774 L -28.8261,21.634123 L -20.27171,47.943304 L 7.3920848,47.688239 L -14.985981,63.953931 L -6.1948178,90.184945 z "
       transform="matrix(0.363578,0,0,0.363578,290.5588,71.13432)"
       style="fill:#00a;fill-opacity:1;fill-rule:nonzero;stroke:none;stroke-width:5;stroke-miterlimit:4;stroke-dasharray:none;stroke-opacity:1"
       id="path2790" />
  </g>
  <use
     transform="translate(0,32.99996)"
     id="use2810"
     x="0"
     y="0"
     width="324"
     height="216"
     xlink:href="#g2800" />
  <rect
     width="92"
     height="216"
     x="0"
     y="-7.6293945e-006"
     style="fill:#00a;fill-opacity:1;fill-rule:nonzero;stroke:none;stroke-width:5;stroke-miterlimit:4;stroke-dasharray:none;stroke-opacity:1"
     id="rect3697" />
</svg>
