<!--Flag of the State of Selangor Darul Ehsan (Abode of Sincerity)-->
<!--Illustration by Ahmad Ali Karim (ahmadalikarim.wordpress.com)-->
<!--(c) 2020, Ahmad Ali Karim. All Rights Reserved.-->

<!--Bendera Negeri Selangor Darul Ehsan-->
<!--Ilustrasi oleh Ahmad Ali Karim (ahmadalikarim.wordpress.com)-->
<!--(c) 2020, Ahmad Ali Karim. Hak Cipta Terpelihara.-->

<!--Generated by BRoman Vector Illustration Systems v.1.6-->

<svg
   xmlns:dc="http://purl.org/dc/elements/1.1/"
   xmlns:cc="http://creativecommons.org/ns#"
   xmlns:rdf="http://www.w3.org/1999/02/22-rdf-syntax-ns#"
   xmlns:svg="http://www.w3.org/2000/svg"
   xmlns="http://www.w3.org/2000/svg"
   viewBox="0 0 1440 720"
   height="720"
   width="1440"
   xml:space="preserve"
   id="svg2"
   version="1.1"><metadata
     id="metadata8"><rdf:RDF><cc:Work
         rdf:about=""><dc:format>image/svg+xml</dc:format><dc:type
           rdf:resource="http://purl.org/dc/dcmitype/StillImage" /></cc:Work></rdf:RDF></metadata><defs
     id="defs6"><clipPath
       id="clipPath18"
       clipPathUnits="userSpaceOnUse"><path
         style="clip-rule:evenodd"
         id="path16"
         d="M 0,1.2207e-4 H 1080 V 540.00012 H 0 Z" /></clipPath><clipPath
       id="clipPath28"
       clipPathUnits="userSpaceOnUse"><path
         style="clip-rule:evenodd"
         id="path26"
         d="M 0,1.2207e-4 H 1080 V 540.00012 H 0 Z" /></clipPath><clipPath
       id="clipPath38"
       clipPathUnits="userSpaceOnUse"><path
         style="clip-rule:evenodd"
         id="path36"
         d="M 0,1.2207e-4 H 1080 V 540.00012 H 0 Z" /></clipPath><clipPath
       id="clipPath48"
       clipPathUnits="userSpaceOnUse"><path
         style="clip-rule:evenodd"
         id="path46"
         d="M 0,1.2207e-4 H 1080 V 540.00012 H 0 Z" /></clipPath><clipPath
       id="clipPath62"
       clipPathUnits="userSpaceOnUse"><path
         style="clip-rule:evenodd"
         id="path60"
         d="M 6.1035e-5,540 H 1080 V 2.4414e-4 L 9.1553e-5,1.8311e-4" /></clipPath></defs><g
     transform="matrix(1.3333333,0,0,-1.3333333,0,720)"
     id="g10"><g
       id="g12"><g
         clip-path="url(#clipPath18)"
         id="g14"><path
           id="path20"
           style="fill:#ffffff;fill-opacity:1;fill-rule:evenodd;stroke:none"
           d="M 0,6.1035e-5 H 1080 V 540.00006 H 0 Z" /></g></g><g
       id="g22"><g
         clip-path="url(#clipPath28)"
         id="g24"><path
           id="path30"
           style="fill:#fcd116;fill-opacity:1;fill-rule:evenodd;stroke:none"
           d="m 540,270 h 540 V 540 H 540 Z" /></g></g><g
       id="g32"><g
         clip-path="url(#clipPath38)"
         id="g34"><path
           id="path40"
           style="fill:#fcd116;fill-opacity:1;fill-rule:evenodd;stroke:none"
           d="M 0,6.1035e-5 H 540 V 270.00006 H 0 Z" /></g></g><g
       id="g42"><g
         clip-path="url(#clipPath48)"
         id="g44"><path
           id="path50"
           style="fill:#da251d;fill-opacity:1;fill-rule:evenodd;stroke:none"
           d="m 540,6.1035e-5 h 540 V 270.00006 H 540 Z" /></g></g><path
       id="path52"
       style="fill:#da251d;fill-opacity:1;fill-rule:evenodd;stroke:none"
       d="M 0,270 H 540 V 540 H 0 Z" /><path
       id="path54"
       style="fill:#ffffff;fill-opacity:1;fill-rule:evenodd;stroke:none"
       d="m 262.74,513.48 c 7.48,0 14.79,-0.76 21.85,-2.2 l 7.25,-2.26 -8.62,-0.87 C 235.26,498.34 199.19,455.88 199.19,405 c 0,-50.88 36.07,-93.34 84.03,-103.15 l 8.62,-0.87 -7.25,-2.26 c -7.06,-1.44 -14.37,-2.2 -21.85,-2.2 -59.88,0 -108.42,48.57 -108.42,108.48 0,59.91 48.54,108.48 108.42,108.48 z" /><g
       id="g56"><g
         clip-path="url(#clipPath62)"
         id="g58"><path
           id="path64"
           style="fill:#ffffff;fill-opacity:1;fill-rule:evenodd;stroke:none"
           d="M 346.04,466.32 V 419.84 L 390,405.48 346.04,391.12 v -46.48 l -27.16,37.6 -43.96,-14.36 27.17,37.6 -27.17,37.6 43.96,-14.36 z" /></g></g></g></svg>