<?xml version="1.0" encoding="UTF-8" standalone="no"?>
<svg
   xmlns:dc="http://purl.org/dc/elements/1.1/"
   xmlns:cc="http://creativecommons.org/ns#"
   xmlns:rdf="http://www.w3.org/1999/02/22-rdf-syntax-ns#"
   xmlns:svg="http://www.w3.org/2000/svg"
   xmlns="http://www.w3.org/2000/svg"
   xmlns:sodipodi="http://sodipodi.sourceforge.net/DTD/sodipodi-0.dtd"
   xmlns:inkscape="http://www.inkscape.org/namespaces/inkscape"
   width="3999.9998"
   height="2400"
   viewBox="0 0 733.33329 440.00001"
   id="svg2"
   version="1.1"
   inkscape:version="0.48.2 r9819"
   sodipodi:docname="AJAX1.svg">
  <metadata
     id="metadata27">
    <rdf:RDF>
      <cc:Work
         rdf:about="">
        <dc:format>image/svg+xml</dc:format>
        <dc:type
           rdf:resource="http://purl.org/dc/dcmitype/StillImage" />
      </cc:Work>
    </rdf:RDF>
  </metadata>
  <defs
     id="defs25" />
  <sodipodi:namedview
     pagecolor="#ffffff"
     bordercolor="#666666"
     borderopacity="1"
     objecttolerance="10"
     gridtolerance="10"
     guidetolerance="10"
     inkscape:pageopacity="0"
     inkscape:pageshadow="2"
     inkscape:window-width="1280"
     inkscape:window-height="1004"
     id="namedview23"
     showgrid="false"
     fit-margin-top="0"
     fit-margin-left="0"
     fit-margin-right="0"
     fit-margin-bottom="0"
     inkscape:zoom="0.14122807"
     inkscape:cx="1977.642"
     inkscape:cy="576.68509"
     inkscape:window-x="-8"
     inkscape:window-y="-8"
     inkscape:window-maximized="1"
     inkscape:current-layer="svg2" />
  <path
     sodipodi:nodetypes="ccccc"
     inkscape:connector-curvature="0"
     id="path3778"
     d="M -7.6204422e-6,0 733.33332,0 l 0,440 L -7.6204422e-6,440 z"
     style="fill:#002868;fill-opacity:1;stroke:none" />
  <path
     sodipodi:nodetypes="ccccc"
     inkscape:connector-curvature="0"
     id="path3152"
     d="M -7.6204422e-6,0 183.33332,0 l 0,110 L -7.6204422e-6,110 z"
     style="fill:#bf0a30;stroke:none" />
  <path
     sodipodi:nodetypes="ccccccccccccccccccccccccc"
     inkscape:connector-curvature="0"
     id="path3154"
     d="m -7.6204422e-6,10 0,10 L 183.33332,20 l 0,-10 z m 0,20 0,10 L 183.33332,40 l 0,-10 z m 0,20 0,10 L 183.33332,60 l 0,-10 z m 0,20 0,10 L 183.33332,80 l 0,-10 z m 0,20 0,10 L 183.33332,100 l 0,-10 z"
     style="font-size:medium;font-style:normal;font-variant:normal;font-weight:normal;font-stretch:normal;text-indent:0;text-align:start;text-decoration:none;line-height:normal;letter-spacing:normal;word-spacing:normal;text-transform:none;direction:ltr;block-progression:tb;writing-mode:lr-tb;text-anchor:start;baseline-shift:baseline;color:#000000;fill:#ffffff;fill-opacity:1;fill-rule:nonzero;stroke:none;stroke-width:10;marker:none;visibility:visible;display:inline;overflow:visible;enable-background:accumulate;font-family:Sans;-inkscape-font-specification:Sans" />
  <path
     inkscape:connector-curvature="0"
     id="path3156"
     d="M -7.6204422e-6,0 49.999993,0 l 0,50 L -7.6204422e-6,50 z"
     style="fill:#002868;stroke:none" />
  <g
     transform="matrix(15,0,0,15,24.999993,25)"
     id="g3158"
     style="stroke:none">
    <g
       id="g3160"
       style="stroke:none">
      <polygon
         style="fill:#ffffff;stroke:none"
         transform="matrix(0.95105652,0.30901699,-0.30901699,0.95105652,0,-1)"
         points="0,0 0,1 0.5,1 "
         id="polygon3162" />
      <polygon
         style="fill:#ffffff;stroke:none"
         transform="matrix(-0.95105652,0.30901699,0.30901699,0.95105652,0,-1)"
         points="0.5,1 0,0 0,1 "
         id="polygon3164" />
    </g>
    <g
       id="g3166"
       transform="matrix(0.30901699,0.95105652,-0.95105652,0.30901699,0,0)"
       style="stroke:none">
      <polygon
         style="fill:#ffffff;stroke:none"
         transform="matrix(0.95105652,0.30901699,-0.30901699,0.95105652,0,-1)"
         points="0.5,1 0,0 0,1 "
         id="polygon3168" />
      <polygon
         style="fill:#ffffff;stroke:none"
         transform="matrix(-0.95105652,0.30901699,0.30901699,0.95105652,0,-1)"
         points="0.5,1 0,0 0,1 "
         id="polygon3170" />
    </g>
    <g
       id="g3172"
       transform="matrix(0.30901699,-0.95105652,0.95105652,0.30901699,0,0)"
       style="stroke:none">
      <polygon
         style="fill:#ffffff;stroke:none"
         transform="matrix(0.95105652,0.30901699,-0.30901699,0.95105652,0,-1)"
         points="0.5,1 0,0 0,1 "
         id="polygon3174" />
      <polygon
         style="fill:#ffffff;stroke:none"
         transform="matrix(-0.95105652,0.30901699,0.30901699,0.95105652,0,-1)"
         points="0.5,1 0,0 0,1 "
         id="polygon3176" />
    </g>
    <g
       id="g3178"
       transform="matrix(-0.80901699,0.58778525,-0.58778525,-0.80901699,0,0)"
       style="stroke:none">
      <polygon
         style="fill:#ffffff;stroke:none"
         transform="matrix(0.95105652,0.30901699,-0.30901699,0.95105652,0,-1)"
         points="0.5,1 0,0 0,1 "
         id="polygon3180" />
      <polygon
         style="fill:#ffffff;stroke:none"
         transform="matrix(-0.95105652,0.30901699,0.30901699,0.95105652,0,-1)"
         points="0.5,1 0,0 0,1 "
         id="polygon3182" />
    </g>
    <g
       id="g3184"
       transform="matrix(-0.80901699,-0.58778525,0.58778525,-0.80901699,0,0)"
       style="stroke:none">
      <polygon
         style="fill:#ffffff;stroke:none"
         transform="matrix(0.95105652,0.30901699,-0.30901699,0.95105652,0,-1)"
         points="0.5,1 0,0 0,1 "
         id="polygon3186" />
      <polygon
         style="fill:#ffffff;stroke:none"
         transform="matrix(-0.95105652,0.30901699,0.30901699,0.95105652,0,-1)"
         points="0.5,1 0,0 0,1 "
         id="polygon3188" />
    </g>
  </g>
  <path
     sodipodi:nodetypes="ccccc"
     inkscape:connector-curvature="0"
     id="path4132"
     d="m 733.33333,366.66666 0,-146.48332 -366.66666,0 0,146.48332 z"
     style="color:#000000;fill:#ffffff;fill-opacity:1;fill-rule:nonzero;stroke:none;stroke-width:1.5;marker:none;visibility:visible;display:inline;overflow:visible;enable-background:accumulate" />
  <path
     style="color:#000000;fill:#bf0a30;fill-opacity:1;fill-rule:nonzero;stroke:none;stroke-width:1.5;marker:none;visibility:visible;display:inline;overflow:visible;enable-background:accumulate"
     d="m 733.33333,330 0,-36.66666 -366.66667,0 0,36.66666 z"
     id="path4146"
     inkscape:connector-curvature="0"
     sodipodi:nodetypes="ccccc" />
  <path
     style="color:#000000;fill:#bf0a30;fill-opacity:1;fill-rule:nonzero;stroke:none;stroke-width:1.5;marker:none;visibility:visible;display:inline;overflow:visible;enable-background:accumulate"
     d="m 733.33333,256.66666 0,-36.66666 -366.66667,0 0,36.66666 z"
     id="path4150"
     inkscape:connector-curvature="0"
     sodipodi:nodetypes="ccccc" />
</svg>
