<svg height="600" width="1200" xmlns="http://www.w3.org/2000/svg" xmlns:xlink="http://www.w3.org/1999/xlink"><clipPath id="a"><path d="m-15-7.5h30v15h-30z"/></clipPath><path d="m0 0h1200v600h-1200z" fill="#00247d"/><g clip-path="url(#a)" transform="matrix(20 0 0 20 300 150)"><circle fill="#00247d" r="20"/><path d="m-20-10 40 20m-40 0 40-20" stroke="#fff" stroke-width="3"/><path d="m-20-10 40 20m-40 0 40-20" stroke="#cf142b" stroke-width="2"/><path d="m0 0 20 10h-3l-20-10m3 0 20-10h3l-20 10m-3 0-20 10h-3l20-10m3 0-20-10h3l20 10" fill="#fff"/><path d="m-20 0h40m-20-10v20" stroke="#fff" stroke-width="5"/><path d="m-20 0h40m-20-10v20" stroke="#cf142b" stroke-width="3"/></g><path d="m795.112 166.004v194.768c0 11.189 10.593 19.29 24.183 26.975l80.705 46.25 80.69-46.25c13.59-7.686 24.199-15.786 24.199-26.975v-194.768c-69.927.85-139.85.387-209.777 0z" stroke="#fed100" stroke-width="2.00744"/><path d="m891.16 339.434-1.88 1.917 1.208 58.075.5.186c.64-23.328 1.377-52.676.766-53.871-.315-.612-.753-1.258-1.138-1.886-.405-.67-.743-1.322-.792-1.862-.043-.573.235-1.03 1.072-1.303 0 0 .754-.174 1.952-.396a72.413 72.413 0 0 1 5.863-.855c5.43-.54 11.682-.346 11.627 3.407-.407.746-.676 1.596-.846 2.483a13.001 13.001 0 0 0 -.227 2.616c.014 2.265-.07 34.493.351 58.558l.835.308 3.138-66.94-12.292-1.593-10.136 1.156z" fill="none"/><g stroke="#000"><g fill="#fed100" stroke-width=".981348"><path d="m909.266 347.943c-.008-.847.056-1.746.228-2.616.17-.886.438-1.736.845-2.483.055-3.752-6.196-3.946-11.627-3.406a72.516 72.516 0 0 0 -5.862.854c-1.198.224-1.953.396-1.953.396-.836.274-1.116.73-1.072 1.304.048.539.386 1.19.793 1.862.383.628.821 1.273 1.138 1.885.61 1.193-.127 30.544-.767 53.87l18.63 6.89c-.423-24.063-.338-56.29-.353-58.556z"/><path d="m909.253 407.898c-1.366 2.818-6.48 3.047-11.422.5-4.954-2.538-7.866-6.881-6.507-9.706 1.37-2.814 6.488-3.035 11.435-.495 4.942 2.545 7.853 6.882 6.494 9.701z"/><path d="m904.529 407.196c-1.639.015-3.564-.497-5.43-1.458-4.179-2.148-5.495-5.09-5.187-5.722.093-.194.736-.605 2.147-.618 1.626-.016 3.548.496 5.401 1.457 2.923 1.5 4.68 3.567 5.135 4.96.131.404.122.66.084.762-.106.188-.756.606-2.15.62z"/></g><path d="m890.063 340.087c.27.601 1.19 1.02 2.49 1.318 1.572.354 3.678.522 5.845.584 4.113.13 8.407-.113 9.462-.123.875-.008 1.746-.431 2.336-1.062.52-.574.807-1.31.64-2.083-.086-.382-.294-.777-.64-1.163-1.787-1.922-.748-81.209-.773-84.8-.008-.856.064-1.753.215-2.616.158-.893.402-1.742.78-2.487.05-3.75-6.593-3.93-11.557-3.403-2.09.224-4.746 1.298-6.085 1.57-1.105.223-1.782.394-1.782.394-.773.277-1.02.735-.984 1.3.04.546.351 1.196.726 1.865.352.63.757 1.272 1.044 1.882.92 1.933-.649 76.743-.605 81.41.03 3.339-1.174 4.307-1.42 5.57-.097.513-.038 1.066.308 1.844z" fill="none" stroke-width=".408895"/><path d="m890.063 340.087c.27.601 1.19 1.02 2.49 1.318 1.572.354 3.678.522 5.845.584 4.113.13 8.407-.113 9.462-.123.875-.008 1.746-.431 2.336-1.062.52-.574.807-1.31.64-2.083-.086-.382-.294-.777-.64-1.163-1.787-1.922-.748-81.209-.773-84.8-.008-.856.064-1.753.215-2.616.158-.893.402-1.742.78-2.487.05-3.75-6.593-3.93-11.557-3.403-2.09.224-4.746 1.298-6.085 1.57-1.105.223-1.782.394-1.782.394-.773.277-1.02.735-.984 1.3.04.546.351 1.196.726 1.865.352.63.757 1.272 1.044 1.882.92 1.933-.649 76.743-.605 81.41.03 3.339-1.174 4.307-1.42 5.57-.097.513-.038 1.066.308 1.844z" fill="#fed100" stroke-width=".981348"/></g><path d="m908.514 239.967c.315.61.755 1.258 1.135 1.882.412.674.745 1.33.793 1.869.04.565-.225 1.023-1.07 1.3 0 0-.749.164-1.944.395-1.466.267-3.596.625-5.879.85-5.423.539-11.68.347-11.618-3.4.402-.752.675-1.607.852-2.49.163-.864.235-1.761.227-2.618-.02-2.268.066-34.632-.36-58.71l-.833-.153-3.143 66.926 12.29 1.607 10.144-1.151 1.88-1.922-.91-61.76-.697-.128c-.657 23.787-1.507 56.243-.867 57.503z" fill="none"/><g fill="#fed100"><g stroke="#000"><g stroke-width=".981348"><path d="m891.01 237.76c.008.855-.064 1.752-.227 2.617-.177.884-.45 1.738-.852 2.491-.062 3.745 6.195 3.937 11.618 3.4 2.282-.225 4.411-.583 5.88-.85 1.194-.232 1.944-.395 1.944-.395.846-.277 1.112-.735 1.069-1.3-.046-.54-.381-1.196-.793-1.869-.38-.624-.818-1.271-1.135-1.882-.64-1.258.209-33.714.868-57.498l-18.734-3.42c.428 24.074.343 56.437.362 58.706z"/><path d="m890.744 178.56c.63-2.736 5.289-4.014 10.414-2.853 5.13 1.151 8.781 4.315 8.154 7.052-.616 2.734-5.293 4.02-10.414 2.853-5.124-1.16-8.782-4.318-8.154-7.052z"/><path d="m895.252 178.174c1.501-.364 3.394-.322 5.325.111 4.339.982 6.208 3.268 6.062 3.878-.036.18-.545.675-1.838.992-1.5.36-3.387.322-5.304-.128-3.032-.673-5.112-2.097-5.842-3.21-.214-.324-.26-.547-.239-.646.04-.196.555-.698 1.836-.997z"/></g><g stroke-width=".981136"><path d="m844.91 301.857c.848-.008 1.746.056 2.616.228.887.17 1.737.438 2.483.845 3.753.055 3.946-6.196 3.407-11.626a72.512 72.512 0 0 0 -.855-5.863c-.223-1.198-.395-1.952-.395-1.952-.275-.837-.73-1.117-1.304-1.072-.54.047-1.19.385-1.862.792-.628.384-1.273.822-1.886 1.138-.847.433-15.913.187-32.931-.222l-6.232 17.834c18.35-.132 35.337-.091 36.96-.102z"/><path d="m806.027 301.844c-2.818-1.366-3.047-6.48-.5-11.422 2.538-4.953 6.88-7.866 9.705-6.507 2.815 1.37 3.036 6.488.496 11.435-2.545 4.942-6.882 7.853-9.701 6.494z"/><path d="m806.729 297.12c-.015-1.639.496-3.564 1.457-5.429 2.148-4.18 5.09-5.496 5.722-5.187.194.093.606.735.62 2.146.014 1.626-.498 3.548-1.459 5.402-1.5 2.922-3.566 4.68-4.959 5.134-.404.132-.661.123-.763.084-.187-.106-.605-.756-.618-2.15zm46.037-14.466c-.6.27-1.02 1.19-1.318 2.49-.353 1.572-.522 3.679-.583 5.845-.13 4.113.112 8.408.122 9.462.008.875.432 1.747 1.062 2.336.574.52 1.311.807 2.083.64.382-.085.778-.294 1.164-.64 1.921-1.787 81.207-.747 84.798-.773.856-.008 1.753.064 2.616.215.893.158 1.743.402 2.487.78 3.75.05 3.93-6.592 3.403-11.557-.224-2.09-1.297-4.746-1.57-6.084-.223-1.105-.394-1.783-.394-1.783-.277-.772-.734-1.02-1.3-.984-.546.04-1.196.352-1.864.726-.63.353-1.272.758-1.883 1.045-1.933.919-76.742-.65-81.41-.606-3.338.031-4.306-1.174-5.569-1.419-.513-.098-1.065-.039-1.844.307z"/><path d="m955.09 283.592a13.013 13.013 0 0 1 -2.616-.228c-.887-.17-1.736-.438-2.483-.845-3.752-.055-3.946 6.196-3.407 11.627a72.512 72.512 0 0 0 1.25 7.814c.275.837.73 1.117 1.305 1.073.539-.048 1.19-.386 1.862-.793.627-.384 1.273-.821 1.885-1.138.848-.433 15.913-.187 32.932.222l6.231-17.834c-18.35.132-35.337.091-36.96.102z"/><path d="m993.974 283.605c2.817 1.366 3.047 6.48.5 11.422-2.538 4.954-6.882 7.866-9.706 6.507-2.814-1.37-3.035-6.488-.495-11.435 2.544-4.942 6.881-7.853 9.7-6.494z"/><path d="m993.272 288.329c.015 1.639-.497 3.564-1.458 5.43-2.148 4.179-5.09 5.495-5.722 5.187-.194-.093-.606-.736-.619-2.147-.015-1.626.497-3.548 1.458-5.401 1.5-2.923 3.566-4.68 4.959-5.135.404-.131.661-.122.763-.084.187.106.606.757.619 2.15z"/></g></g><path d="m991.117 343.443c-7.659-5.407-16.104-4.193-23.762-6.269-2.776-6.786-5.43-13.576-12.273-20.366-6.456 6.876-10.092 13.753-13.838 20.629-7.31 1.158-14.623 1.143-21.935 4.179 3.624 6.354 5.293 12.709 14.102 19.06-1.018 7.923-3.125 15.845-1.567 23.761 9.907-.67 15.876-4.497 22.455-7.829 7.426 2.958 8.547 5.914 22.455 8.874 3.5-8.094-1.031-16.187-1.566-24.283 5.47-5.181 13.005-8.124 15.93-17.756z"/></g><path d="m976.677 385.844c-13.86-2.948-15.174-5.94-22.36-8.837-6.495 3.307-12.528 7.129-22.45 7.798l-.327.024-.063-.32c-.403-2.046-.564-4.088-.564-6.119.002-5.887 1.34-11.735 2.1-17.54-8.74-6.37-10.464-12.806-14.027-19.05l-.208-.364.386-.167c7.34-3.043 14.628-3.045 21.837-4.17 3.717-6.821 7.365-13.683 13.81-20.543l.26-.28.27.27c6.844 6.784 9.536 13.596 12.288 20.32 7.502 1.996 15.956.82 23.699 6.272l-.212.308.212-.308.22.157-.08.257c-2.958 9.723-10.53 12.76-15.899 17.795.41 5.733 2.862 11.557 2.871 17.474 0 2.26-.364 4.536-1.346 6.81l-.123.28zm-22.24-9.59c7.472 2.987 8.52 5.868 22.092 8.797.85-2.072 1.168-4.142 1.168-6.231.007-5.77-2.48-11.64-2.88-17.596l-.013-.178.127-.117c5.514-5.199 12.824-8.077 15.748-17.336-7.457-5.143-15.727-3.988-23.422-6.057l-.18-.05-.068-.17c-2.744-6.704-5.335-13.327-11.92-19.973-6.254 6.744-9.822 13.488-13.52 20.271l-.088.163-.18.03c-7.222 1.142-14.361 1.15-21.46 3.994 3.509 6.288 5.23 12.398 13.786 18.573l.178.13-.027.22c-.762 5.93-2.12 11.82-2.12 17.667 0 1.887.138 3.766.487 5.653 9.621-.732 15.453-4.46 21.983-7.774l.15-.075.158.06z"/><path d="m955.688 320.093c1.545 8.47.419 21.058-.112 31.215.975.864 2.633-1.426 3.88-1.058 7.433-2.655 16.761-3.312 29.226-5.992-7.35 4.526-18.975 5.527-28.648 8.729-.367.496.181 2.987-.007 3.74 4.54 6.318 9 15.161 14.83 26.001-6.22-5.647-10.953-16.524-16.62-24.805-.711-.13-1.253 3.378-3.832 1.881-5.814 8.427-16.975 18.1-20.957 23.217 6.042-11.19 16.648-19.05 21.267-25.437.093-1.298-1.292-2.634-1.68-3.596-9.607-2.385-23.379-6.835-30.67-10.61 12.55 1.737 23.225 8.263 30.816 10.351.442-8.22 1.465-21.457 2.507-33.636z"/><path d="m940.068 377.017c-1.215 1.359-1.767 3.12-.605 5.666.932 2.04 3.873 3.165 5.417 3.453 3.623.679 6.852-2.244 10.33-2.244 3.483 0 6.712 2.923 10.332 2.244 1.546-.288 4.486-1.412 5.419-3.453 1.161-2.547.56-4.26-.605-5.666-1.187-1.423-2.919-2.558-4.044-3.837-1.132-1.293-.152-3.794-.044-3.484-.149-.035 2.527-.28 3.453 1.166.918 1.439 1.523 3.418 2.566 4.954 1.023 1.508 2.506 2.565 5.27 2.156 2.225-.328 4.12-2.84 4.825-4.245 1.657-3.29-.25-7.205.718-10.547.967-3.343 4.668-5.633 5.023-9.304.154-1.562-.108-4.699-1.812-6.166-2.12-1.818-3.938-1.716-5.606-.99-1.702.744-3.271 2.094-4.815 2.82-1.556.725-3.686-.913-3.218-.837-.263-.12.469-2.507 2.25-2.742 1.625-.208 3.573-.368 5.286-.863 1.683-.486 3.09-1.533 3.55-4.206.369-2.149-1.354-4.658-2.421-5.736-2.507-2.53-6.646-1.955-9.405-3.864-2.76-1.91-3.736-6.015-6.973-7.457-1.38-.616-4.32-1.328-6.167-.2-2.297 1.405-2.751 3.107-2.587 4.87.167 1.795.927 3.65 1.123 5.297.199 1.655-1.933 3.122-1.972 2.913-1.127-.244-2.254-1.424-2.254-2.913.002-1.646.958-3.5 1.125-5.297.162-1.763-.29-3.467-2.587-4.87-1.847-1.126-4.786-.415-6.166.2-3.239 1.442-4.215 5.547-6.974 7.457-2.761 1.91-6.9 1.334-9.405 3.864-1.07 1.078-2.79 3.587-2.425 5.736.46 2.673 1.868 3.72 3.548 4.206 1.715.493 3.676.583 5.289.863 1.8.315 2.493 2.798 2.25 2.742.47-.076-1.663 1.562-3.217.837-1.544-.728-3.113-2.076-4.815-2.82-1.67-.726-3.488-.828-5.605.99-1.706 1.467-1.967 4.604-1.815 6.166.357 3.671 4.058 5.961 5.026 9.304.967 3.342-.939 7.257.718 10.547.705 1.405 2.602 3.917 4.825 4.245 2.764.409 4.246-.648 5.269-2.156 1.042-1.536 1.647-3.515 2.567-4.954.927-1.444 3.557-1.357 3.453-1.166.673 1.208.792 2.396-.045 3.484-1.146 1.483-2.806 2.45-4.05 3.837z" fill="#fed100"/><path d="m955.212 384.161c-2.988-.02-5.905 2.323-9.213 2.343-.384 0-.773-.03-1.168-.1-1.594-.31-4.585-1.414-5.613-3.613-.46-1.004-.666-1.904-.664-2.718-.003-1.304.536-2.365 1.313-3.235 1.287-1.429 2.936-2.396 4.031-3.822.373-.491.53-.982.532-1.49 0-.523-.168-1.075-.483-1.648a1.687 1.687 0 0 0 -.318-.02c-.746-.015-2.16.277-2.698 1.15-.893 1.387-1.498 3.376-2.57 4.957-.895 1.33-2.215 2.372-4.357 2.362-.367 0-.756-.025-1.174-.086-2.397-.38-4.286-2.946-5.027-4.392-.58-1.145-.74-2.355-.74-3.565.002-1.61.284-3.242.28-4.776 0-.776-.07-1.533-.277-2.254-.895-3.212-4.63-5.512-5.034-9.35-.027-.252-.04-.542-.04-.852.007-1.705.396-4.199 1.944-5.542 1.287-1.113 2.507-1.555 3.652-1.55.789 0 1.532.205 2.239.514 1.752.77 3.326 2.124 4.82 2.82a1.8 1.8 0 0 0 .777.16c.942.035 2.036-.683 2.142-.814.002-.016.007-.016.007-.016l.169.105h.004l-.014-.07-.192-.08.076.031h-.087s-.002 0 .001-.016c.01-.335-.729-2.181-2.075-2.365-1.59-.279-3.558-.368-5.317-.874-1.746-.485-3.283-1.66-3.74-4.414a3.94 3.94 0 0 1 -.054-.663c.012-2.13 1.552-4.295 2.55-5.312 2.65-2.633 6.826-2.047 9.443-3.898 2.656-1.793 3.634-5.94 7.02-7.484.882-.392 2.344-.815 3.81-.818.913 0 1.835.172 2.604.638 2.09 1.263 2.756 2.865 2.745 4.473 0 .216-.008.434-.03.652-.18 1.865-1.13 3.724-1.122 5.273-.008 1.344 1.033 2.432 2.026 2.645.005 0 .013 0 .02-.015.056-.03.136-.076.223-.143.179-.125.405-.32.618-.555.434-.465.813-1.103.81-1.722 0-.063-.001-.126-.01-.185-.186-1.59-.946-3.45-1.121-5.3a6.146 6.146 0 0 1 -.033-.653c-.01-1.607.655-3.209 2.746-4.474.77-.468 1.688-.637 2.605-.637 1.467 0 2.93.429 3.813.818 3.386 1.544 4.364 5.69 7.017 7.484 2.62 1.85 6.793 1.263 9.445 3.898.994 1.017 2.538 3.182 2.549 5.312 0 .22-.014.439-.054.658-.456 2.757-1.992 3.933-3.74 4.417-1.752.506-3.712.663-5.327.875-1.335.125-2.09 1.905-2.067 2.315v.017l-.16.05-.031.096.152-.095.007.016a.853.853 0 0 0 .12.105c.112.09.288.204.5.31.42.218.985.413 1.521.411.272 0 .535-.045.778-.161 1.494-.696 3.07-2.049 4.821-2.82.704-.31 1.448-.514 2.237-.514 1.147 0 2.365.439 3.652 1.548 1.548 1.344 1.939 3.839 1.945 5.544 0 .312-.013.599-.04.851-.405 3.837-4.139 6.14-5.034 9.353-.21.718-.282 1.472-.282 2.247-.001 1.536.28 3.168.282 4.781 0 1.212-.16 2.417-.735 3.564-.741 1.447-2.63 4.013-5.028 4.392-.418.058-.807.09-1.175.09-2.143 0-3.464-1.032-4.358-2.364-1.069-1.583-1.677-3.57-2.572-4.958-.544-.887-2.025-1.09-2.772-1.078h-.062l.088.213-.417-.143c-.033.079-.075.18-.11.306a4.28 4.28 0 0 0 -.18 1.196c0 .555.129 1.105.478 1.498 1.083 1.243 2.822 2.38 4.047 3.847.746.896 1.293 1.962 1.292 3.277.001.8-.198 1.682-.648 2.668-1.026 2.199-4.018 3.302-5.615 3.612-.394.07-.783.105-1.167.105-3.302-.025-6.219-2.371-9.206-2.35zm9.213 1.804a5.92 5.92 0 0 0 1.069-.097c1.493-.266 4.384-1.412 5.222-3.3.423-.937.597-1.738.6-2.446-.003-1.165-.471-2.09-1.17-2.93-1.146-1.39-2.877-2.517-4.038-3.838-.469-.533-.61-1.224-.61-1.854.002-.77.203-1.46.375-1.804.096-.108.033-.226.364-.301.028.002.053 0 .073.016.017 0 .032-.002.047 0 .09 0 .21-.016.36-.016.805.016 2.441.143 3.226 1.33.947 1.483 1.55 3.457 2.565 4.943.85 1.244 1.943 2.12 3.907 2.126.336 0 .702-.03 1.099-.081 2.048-.28 3.951-2.74 4.62-4.1.525-1.044.68-2.16.68-3.323 0-1.55-.281-3.177-.281-4.78 0-.81.072-1.617.3-2.403 1.041-3.475 4.709-5.751 5.018-9.25a8.6 8.6 0 0 0 .036-.799c.006-1.628-.425-4.01-1.757-5.136-1.221-1.044-2.298-1.412-3.303-1.417-.696 0-1.363.18-2.023.467-1.65.72-3.215 2.063-4.806 2.817-.327.15-.674.21-1.006.21-.997 0-1.915-.5-2.354-.831-.141-.15-.253-.136-.31-.439 0-.031.004-.069.021-.105a.625.625 0 0 1 -.004-.075c.023-.698.777-2.575 2.534-2.851 1.633-.213 3.569-.372 5.25-.856 1.617-.483 2.896-1.403 3.355-3.99.031-.185.047-.375.047-.571.012-1.859-1.46-3.998-2.395-4.93-2.36-2.429-6.465-1.87-9.365-3.836-2.862-2.016-3.839-6.088-6.93-7.433-.816-.363-2.234-.772-3.595-.77-.851 0-1.672.159-2.323.554-1.957 1.21-2.476 2.549-2.486 4.014 0 .202.007.401.029.599.158 1.741.915 3.594 1.123 5.291.01.088.013.171.013.25-.003.838-.472 1.565-.951 2.089-.522.528-.903.846-1.27.898-.02.001-.072-.016-.122-.032-1.248-.294-2.423-1.554-2.431-3.17.012-1.746.973-3.599 1.125-5.325.019-.199.027-.396.027-.598-.011-1.467-.53-2.806-2.488-4.014-.649-.395-1.473-.555-2.32-.555-1.363 0-2.781.406-3.595.77-3.092 1.346-4.067 5.418-6.93 7.433-2.9 1.967-7.005 1.408-9.366 3.836-.937.932-2.407 3.072-2.395 4.93 0 .195.016.383.047.571.461 2.588 1.74 3.508 3.36 3.99 1.67.482 3.617.574 5.256.858 1.776.356 2.492 2.309 2.52 2.909v.016a.22.22 0 0 1 .02.105c-.059.302-.17.288-.313.439a4 4 0 0 1 -.58.359c-.478.246-1.108.471-1.77.471-.336 0-.68-.06-1.007-.21-1.59-.754-3.155-2.098-4.807-2.816-.658-.287-1.328-.467-2.022-.467-1.006 0-2.082.37-3.303 1.417-1.333 1.128-1.763 3.507-1.755 5.136 0 .296.013.56.038.8.31 3.498 3.976 5.773 5.017 9.248.225.787.3 1.594.3 2.405 0 1.6-.281 3.227-.281 4.775 0 1.165.156 2.278.681 3.325.671 1.362 2.574 3.82 4.621 4.1.393.053.76.081 1.097.081 1.964 0 3.058-.887 3.91-2.126 1.015-1.486 1.618-3.461 2.565-4.944.755-1.15 2.307-1.387 3.15-1.396.262 0 .44.015.6.08.038.023.139.053.18.194.347.636.559 1.282.559 1.93.003.626-.204 1.245-.643 1.817-1.186 1.536-2.854 2.505-4.056 3.856-.718.804-1.174 1.72-1.177 2.875.001.72.18 1.542.614 2.495.839 1.889 3.729 3.034 5.223 3.3.356.067.711.098 1.067.098 3.049.022 5.962-2.32 9.213-2.345 3.252.025 6.166 2.367 9.215 2.345zm-26.762-37.032.08-.124zm35.102 0-.096-.138h-.001zm.11-.204h-.184.183z"/><path d="m966.82 382.209c.547.017 1.41-.073 1.918-.315.816-.39 1.129-1.134 1.377-1.836.244-.693-.057-1.578-.057-1.578-.746.124-.594.94-2.004 1.837-.638.407-1.565.522-2.406.257-1.345-.416-2.536-.792-3.638-1.72-1.102-.923-2.213-1.94-3.668-2.606-1.012-.466-2.27-.572-3.12-.572-.853 0-2.08.106-3.095.572-1.454.666-2.59 1.683-3.694 2.606-1.103.928-2.236 1.306-3.581 1.72-.842.265-2.574.152-3.064-.428l-1.406-1.666s-.215.884.03 1.578c.247.7.446 1.445 1.261 1.836 1.022.485 2.558.327 3.524.025 1.542-.477 2.719-1.41 3.838-2.347 1.116-.937 2.17-2.128 3.466-2.72.8-.369 1.968-.488 2.724-.488.752 0 1.948.119 2.747.487 1.295.593 2.35 1.784 3.467 2.721 1.12.938 2.295 1.87 3.839 2.347.476.152.998.274 1.542.29zm17.918-29.494c.17-.483.325-1.275.232-1.797-.149-.826-.776-1.3-1.38-1.705-.596-.396-1.527-.356-1.527-.356-.091.698.735.776 1.207 2.268.211.673.06 1.533-.424 2.217-.774 1.094-1.468 2.058-2.664 2.807-1.196.746-2.478 1.475-3.522 2.6-.729.785-1.182 1.88-1.42 2.643-.237.761-.473 1.885-.309 2.909.235 1.473.895 2.752 1.477 3.98.581 1.223.631 2.336.658 3.645.016.82-.572 2.34-1.263 2.625l-1.99.826s.787.422 1.521.383c.743-.041 1.514-.027 2.113-.652.754-.79 1.026-2.2 1.006-3.141-.031-1.505-.597-2.797-1.188-4.04-.59-1.24-1.439-2.487-1.65-3.799-.129-.809.076-1.882.29-2.558.208-.675.658-1.714 1.231-2.332.93-1 2.366-1.638 3.579-2.393 1.21-.756 2.435-1.566 3.323-2.822.274-.393.53-.827.7-1.308zm-22.117-26.683c-.404-.312-1.108-.707-1.628-.786-.834-.12-1.48.322-2.054.769-.567.44-.823 1.336-.823 1.336.634.306.967-.452 2.532-.429.707.013 1.471.43 1.968 1.105.792 1.08 1.49 2.044 1.82 3.415.33 1.372.616 2.82 1.353 4.166.514.94 1.409 1.714 2.056 2.182.649.467 1.641 1.049 2.666 1.216 1.47.24 2.894.022 4.24-.14 1.348-.167 2.414.14 3.664.53.784.24 2.041 1.28 2.094 2.029l.152 2.15s.65-.613.844-1.32c.196-.717.453-1.445.048-2.21-.508-.966-1.763-1.672-2.66-1.95-1.435-.446-2.843-.32-4.208-.151-1.364.167-2.818.575-4.127.36-.809-.133-1.763-.67-2.334-1.084-.573-.413-1.418-1.165-1.824-1.906-.658-1.2-.804-2.762-1.138-4.152-.334-1.386-.718-2.803-1.627-4.044a5.092 5.092 0 0 0 -1.014-1.086z"/><path d="m925.764 352.715c-.168-.483-.325-1.275-.23-1.797.147-.826.775-1.3 1.379-1.705.597-.396 1.528-.356 1.528-.356.092.698-.735.776-1.206 2.268-.213.673-.06 1.533.422 2.217.774 1.094 1.469 2.058 2.663 2.807 1.196.746 2.48 1.475 3.523 2.6.73.785 1.182 1.88 1.42 2.643.237.761.472 1.885.31 2.909-.236 1.473-.896 2.752-1.477 3.98-.582 1.223-.63 2.336-.658 3.645-.015.82.572 2.34 1.263 2.625l1.992.826s-.787.422-1.522.383c-.741-.041-1.512-.027-2.113-.652-.754-.79-1.025-2.2-1.006-3.141.03-1.505.599-2.797 1.188-4.04.59-1.24 1.439-2.487 1.65-3.799.129-.809-.081-1.882-.288-2.558-.21-.675-.658-1.714-1.232-2.332-.93-1-2.367-1.638-3.578-2.393-1.212-.756-2.434-1.566-3.321-2.822-.281-.393-.54-.827-.707-1.308zm22.114-26.683c.404-.312 1.108-.707 1.63-.786.832-.12 1.48.322 2.051.769.57.44.823 1.336.823 1.336-.633.306-.965-.452-2.531-.429-.708.013-1.473.43-1.97 1.105-.793 1.08-1.49 2.044-1.82 3.415-.329 1.372-.613 2.82-1.351 4.166-.514.94-1.41 1.714-2.06 2.182-.647.467-1.637 1.049-2.662 1.216-1.472.24-2.895.022-4.242-.14-1.346-.167-2.412.14-3.664.53-.784.24-2.04 1.28-2.093 2.029l-.152 2.15s-.649-.613-.843-1.32c-.197-.717-.455-1.445-.05-2.21.508-.966 1.763-1.672 2.658-1.95 1.436-.446 2.843-.32 4.207-.151 1.364.167 2.82.575 4.13.36.807-.133 1.763-.67 2.334-1.084.573-.413 1.415-1.165 1.823-1.906.656-1.2.802-2.762 1.136-4.152.334-1.386.718-2.803 1.627-4.044.287-.39.616-.771 1.019-1.086z"/><path d="m974.295 360.386c-4.072 2.873-8.558 2.229-12.629 3.33-1.476 3.607-2.884 7.214-6.522 10.825-3.432-3.654-5.363-7.31-7.354-10.962-3.887-.618-7.77-.607-11.658-2.221 1.925-3.376 2.814-6.75 7.492-10.13-.539-4.209-1.66-8.419-.832-12.628 5.266.358 8.439 2.391 11.936 4.16 3.946-1.571 4.542-3.143 11.934-4.715 1.86 4.302-.55 8.605-.833 12.905 2.908 2.75 6.91 4.315 8.466 9.436z" fill="#fed100"/><path d="m954.945 374.723c-3.42-3.643-5.362-7.292-7.329-10.901-3.815-.591-7.684-.598-11.587-2.217l-.282-.119.152-.265c1.882-3.297 2.807-6.731 7.44-10.119-.406-3.068-1.11-6.162-1.113-9.29 0-1.087.086-2.178.303-3.264l.045-.232.238.016c5.275.358 8.49 2.387 11.93 4.133 3.772-1.52 4.509-3.123 11.863-4.684l.215-.044.088.201c.528 1.216.722 2.436.722 3.646-.008 3.152-1.302 6.236-1.523 9.257 2.837 2.652 6.865 4.282 8.445 9.468l-.257.079.257-.079.058.187-.16.108c-4.13 2.909-8.625 2.291-12.582 3.338-1.459 3.561-2.898 7.184-6.532 10.79l-.198.198-.193-.206zm-7.114-11.412.132.02.062.114c1.957 3.59 3.84 7.146 7.126 10.702 3.451-3.503 4.813-6.988 6.265-10.535l.05-.126.13-.034c4.095-1.099 8.457-.496 12.382-3.177-1.552-4.848-5.395-6.367-8.335-9.133l-.091-.09.006-.127c.216-3.183 1.538-6.297 1.531-9.346 0-1.083-.161-2.155-.589-3.229-7.147 1.554-7.691 3.068-11.67 4.659l-.115.043-.107-.05c-3.462-1.76-6.536-3.72-11.593-4.12a16.58 16.58 0 0 0 -.246 2.928c0 3.097.719 6.22 1.126 9.379l.02.158-.13.094c-4.496 3.248-5.42 6.451-7.264 9.777 3.727 1.481 7.492 1.49 11.31 2.093z"/><path d="m947.165 342.563c-.648-.722-.937-1.661-.321-3.009.496-1.083 2.059-1.682 2.88-1.834 1.927-.36 3.641 1.191 5.49 1.191s3.563-1.551 5.49-1.19c.82.151 2.382.75 2.882 1.833.615 1.348.295 2.265-.324 3.01-.63.76-1.552 1.363-2.15 2.042-.601.686-.08 2.015-.021 1.85-.08.016 1.342.147 1.834-.62.486-.766.808-1.817 1.363-2.635.543-.799 1.331-1.36 2.8-1.145 1.183.175 2.19 1.509 2.565 2.255.881 1.75-.133 3.83.38 5.605.514 1.779 2.48 2.994 2.67 4.945.08.832-.057 2.502-.963 3.276-1.126.968-2.091.915-2.98.525-.904-.392-1.74-1.108-2.558-1.494-.827-.387-1.96.48-1.71.444-.141.062.248 1.329 1.194 1.454.864.112 1.899.195 2.81.458.894.255 1.642.813 1.886 2.235.196 1.141-.72 2.476-1.287 3.05-1.33 1.342-3.53 1.036-4.998 2.052-1.467 1.012-1.986 3.2-3.707 3.964-.733.326-2.294.708-3.276.11-1.22-.75-1.463-1.654-1.374-2.59.086-.954.492-1.94.596-2.813.106-.883-1.027-1.663-1.05-1.55-.598.128-1.197.753-1.197 1.55 0 .873.51 1.859.598 2.813.089.936-.154 1.84-1.375 2.59-.981.598-2.542.217-3.277-.11-1.721-.762-2.242-2.952-3.709-3.964-1.465-1.016-3.664-.71-4.997-2.052-.567-.574-1.484-1.91-1.286-3.05.243-1.423.99-1.98 1.885-2.235.912-.265 1.953-.31 2.81-.458.957-.164 1.325-1.484 1.195-1.454.25.034-.884-.833-1.712-.444-.82.386-1.655 1.102-2.558 1.494-.887.39-1.852.443-2.98-.525-.907-.776-1.043-2.445-.963-3.276.19-1.95 2.157-3.165 2.67-4.945.515-1.774-.5-3.856.383-5.605.375-.746 1.38-2.08 2.564-2.255 1.469-.215 2.256.346 2.8 1.145.554.818.877 1.869 1.365 2.635.492.767 1.89.72 1.834.62.359-.645.423-1.272-.024-1.85-.603-.786-1.484-1.301-2.147-2.043z" fill="#fed100"/><path d="m957.006 371.105c-1.125-.675-1.498-1.558-1.487-2.43 0-.118.005-.234.016-.35.094-.996.504-1.985.595-2.814a.696.696 0 0 0 .006-.098c.032-.527-.63-1.123-.827-1.23-.495.115-1.022.67-1.016 1.35-.01.798.496 1.785.596 2.792.01.119.015.236.015.35.008.872-.36 1.755-1.49 2.43-.42.257-.92.347-1.41.347a5.422 5.422 0 0 1 -2.052-.44c-1.833-.842-2.351-3.054-3.74-3.982-1.357-.972-3.585-.657-5.027-2.077-.539-.551-1.362-1.708-1.371-2.87a2.1 2.1 0 0 1 .028-.357c.241-1.484 1.088-2.14 2.028-2.398.945-.27 1.994-.317 2.834-.462.62-.077 1.005-.922 1.047-1.157l-.01-.036a.34.34 0 0 1 -.012-.036 1.687 1.687 0 0 0 -.25-.16c-.219-.11-.512-.209-.783-.209a.876.876 0 0 0 -.387.082c-.785.365-1.619 1.081-2.564 1.497-.38.166-.784.276-1.216.276-.624 0-1.287-.24-1.977-.836-.846-.738-1.05-2.073-1.055-2.989 0-.166.007-.324.02-.457.225-2.079 2.218-3.304 2.678-4.981.108-.375.144-.77.144-1.184 0-.809-.149-1.674-.149-2.537 0-.65.086-1.301.401-1.922.402-.776 1.405-2.154 2.715-2.365a4.11 4.11 0 0 1 .633-.046c1.157-.015 1.884.56 2.365 1.28.574.85.898 1.91 1.364 2.634.263.434.997.593 1.386.585.054 0 .098-.002.13 0 .155-.29.235-.565.235-.818a1.192 1.192 0 0 0 -.27-.751c-.57-.751-1.447-1.264-2.14-2.03l.151-.138.152-.136c.63.71 1.517 1.225 2.16 2.053.24.31.356.654.356 1.002-.003.363-.122.722-.325 1.089h-.006c-.075.157-.158.095-.202.128a1.097 1.097 0 0 1 -.24.022c-.46 0-1.3-.128-1.726-.77-.506-.803-.827-1.849-1.359-2.63-.45-.651-1.006-1.098-2.03-1.103-.178 0-.368.016-.571.047-1.054.134-2.065 1.431-2.414 2.146-.276.54-.359 1.122-.359 1.735 0 .818.149 1.682.15 2.538 0 .434-.039.87-.16 1.294-.568 1.878-2.51 3.086-2.664 4.91a4.045 4.045 0 0 0 -.019.418c-.004.857.23 2.11.914 2.682.64.55 1.193.736 1.712.736.36 0 .711-.09 1.053-.243.868-.373 1.699-1.089 2.552-1.492.183-.086.374-.124.562-.124.55 0 1.043.275 1.287.458.077.085.146.058.188.279 0 .02-.005.04-.01.055l.002.016c-.023.35-.4 1.395-1.392 1.603-.874.152-1.907.2-2.786.455-.847.257-1.499.714-1.742 2.076a1.53 1.53 0 0 0 -.023.287c-.01.96.765 2.097 1.255 2.582 1.221 1.264 3.395.974 4.967 2.028 1.543 1.097 2.063 3.257 3.673 3.946.426.188 1.177.405 1.888.405.444 0 .869-.082 1.2-.287 1.026-.635 1.286-1.32 1.294-2.083 0-.102-.005-.209-.014-.312-.077-.898-.591-1.882-.599-2.83.006-.878.627-1.557 1.304-1.736.052-.031.09-.03.113-.031.25.04.428.21.721.498.257.287.517.679.522 1.15 0 .048-.003.09-.008.142-.113.912-.514 1.896-.595 2.81-.013.1-.015.205-.015.31.007.762.267 1.449 1.292 2.084.33.202.757.286 1.202.286.71 0 1.46-.213 1.886-.404 1.612-.691 2.13-2.85 3.674-3.947 1.573-1.053 3.744-.763 4.97-2.028.489-.486 1.263-1.622 1.254-2.581 0-.1-.007-.195-.024-.289-.244-1.359-.895-1.816-1.74-2.075-.884-.254-1.909-.338-2.782-.454-.98-.162-1.38-1.168-1.4-1.574.002-.016.004-.02.004-.03a.146.146 0 0 1 -.01-.066c.044-.22.11-.194.188-.28.08-.063.19-.132.319-.196.257-.132.6-.257.967-.257.186 0 .379.036.562.12.856.403 1.687 1.12 2.552 1.493a2.6 2.6 0 0 0 1.052.243c.518 0 1.073-.187 1.714-.737.687-.58.917-1.825.913-2.682 0-.155-.007-.3-.016-.42-.154-1.821-2.097-3.031-2.665-4.906a4.562 4.562 0 0 1 -.164-1.296c.001-.856.152-1.72.15-2.538 0-.612-.08-1.194-.354-1.736-.348-.713-1.362-2.011-2.414-2.144a3.424 3.424 0 0 0 -.572-.049c-1.025.016-1.581.453-2.028 1.105-.533.78-.854 1.826-1.359 2.628-.443.662-1.33.725-1.768.732-.111 0-.16 0-.218-.015h-.036c-.243-.06-.188-.135-.247-.195a1.514 1.514 0 0 1 -.096-.249 2.667 2.667 0 0 1 -.11-.738c0-.34.075-.724.34-1.024.627-.71 1.544-1.308 2.146-2.034.365-.444.605-.922.607-1.523 0-.364-.09-.783-.312-1.273-.427-.969-1.952-1.583-2.734-1.72a2.934 2.934 0 0 0 -.555-.05c-1.592-.017-3.139 1.23-4.894 1.245-1.762-.016-3.31-1.264-4.9-1.245-.185 0-.37.016-.555.05-.782.137-2.307.753-2.733 1.72-.228.498-.322.926-.322 1.3 0 .598.237 1.068.612 1.49l-.152.136-.153.138c-.42-.47-.716-1.052-.714-1.762 0-.442.11-.93.359-1.47.567-1.202 2.167-1.784 3.028-1.953.211-.039.421-.058.63-.058 1.787.017 3.337 1.265 4.9 1.248 1.554.017 3.106-1.23 4.894-1.248.207 0 .416.02.632.058.859.17 2.46.75 3.028 1.953.242.531.35 1.011.35 1.442 0 .718-.3 1.298-.7 1.785-.66.787-1.585 1.392-2.153 2.043-.17.196-.24.473-.238.755-.008.292.081.604.138.748l.288-.035-.033.065c.41-.016 1.09-.137 1.333-.548.468-.724.79-1.783 1.366-2.634.482-.72 1.206-1.289 2.366-1.28.195 0 .407.016.634.046 1.31.212 2.314 1.59 2.715 2.365.31.621.397 1.273.397 1.922 0 .864-.153 1.729-.15 2.538 0 .413.038.808.148 1.183.458 1.675 2.45 2.903 2.677 4.981.013.136.02.292.02.458-.004.912-.208 2.247-1.053 2.989-.693.595-1.357.837-1.981.835-.428 0-.834-.111-1.212-.276-.943-.415-1.78-1.131-2.564-1.497a.882.882 0 0 0 -.389-.08c-.268-.015-.567.1-.785.214l.242.04-.511.226c.045.274.434 1.063 1.04 1.113.856.114 1.902.196 2.84.465.944.259 1.792.913 2.03 2.398.022.12.032.24.032.358-.01 1.161-.837 2.318-1.373 2.87-1.44 1.42-3.668 1.105-5.027 2.076-1.39.927-1.91 3.14-3.74 3.983a5.458 5.458 0 0 1 -2.053.439c-.502 0-1-.092-1.422-.35z"/><path d="m961.381 339.805c.289-.01.748.04 1.02.168.435.208.598.602.731.976.132.369-.03.836-.03.836-.396-.064-.316-.495-1.067-.977-.337-.216-.83-.276-1.278-.134-.714.219-1.346.421-1.934.915-.586.492-1.177 1.033-1.95 1.384-.537.246-1.203.306-1.66.306-.45 0-1.103-.058-1.642-.306-.771-.351-1.376-.892-1.964-1.384-.586-.494-1.186-.696-1.903-.915-.448-.142-1.368-.082-1.63.224l-.747.887s-.115-.466.017-.836c.128-.373.237-.768.67-.976.543-.262 1.358-.176 1.87-.013.819.251 1.447.746 2.041 1.246.594.497 1.152 1.134 1.842 1.446.423.194 1.045.26 1.443.26.403 0 1.04-.065 1.463-.26.688-.312 1.249-.949 1.843-1.446.596-.5 1.22-.995 2.04-1.246.261-.081.538-.144.825-.155zm9.522 15.676c.09.256.172.679.124.953-.08.442-.412.693-.735.906-.317.212-.814.19-.814.19-.047-.373.392-.41.644-1.205.113-.36.033-.814-.225-1.178-.412-.583-.78-1.094-1.416-1.492-.634-.398-1.318-.788-1.873-1.384-.385-.42-.628-.998-.752-1.404-.125-.401-.252-1.003-.166-1.545.127-.786.476-1.463.787-2.115.309-.652.334-1.24.348-1.939.01-.435-.303-1.244-.671-1.395l-1.058-.435s.42-.228.809-.206c.393.02.804.014 1.122.347.401.418.545 1.17.536 1.669-.017.8-.32 1.486-.633 2.147-.314.659-.765 1.323-.878 2.02-.069.43.04.999.154 1.358.11.359.35.907.653 1.24.495.531 1.257.87 1.901 1.27.646.404 1.295.835 1.768 1.504.15.207.286.437.375.694zm-11.753 14.179c-.214.166-.587.378-.866.417-.443.067-.785-.171-1.09-.406-.302-.237-.437-.707-.437-.707.336-.168.515.237 1.345.224.378-.008.784-.224 1.047-.586.422-.577.793-1.09.966-1.817.175-.725.327-1.498.72-2.214.274-.499.75-.908 1.093-1.157.343-.248.872-.558 1.417-.644.78-.132 1.538-.014 2.252.075.715.084 1.284-.075 1.949-.284.417-.128 1.083-.679 1.111-1.078l.083-1.144s.345.327.448.705c.1.378.24.766.024 1.174-.27.51-.936.887-1.414 1.036-.762.237-1.51.168-2.235.08-.724-.09-1.498-.307-2.194-.19-.428.07-.936.354-1.24.574-.304.218-.752.619-.969 1.016-.35.636-.426 1.467-.605 2.205-.175.736-.378 1.489-.862 2.149a2.878 2.878 0 0 1 -.544.572z"/><path d="m939.561 355.481c-.09.256-.17.679-.12.953.076.442.412.693.731.906.317.212.814.19.814.19.049-.373-.392-.41-.643-1.205-.113-.36-.031-.814.226-1.178.414-.583.78-1.094 1.417-1.492.635-.398 1.315-.788 1.873-1.384.386-.42.628-.998.752-1.404.126-.401.251-1.003.166-1.545-.127-.786-.476-1.463-.786-2.115s-.336-1.24-.348-1.939c-.01-.435.302-1.244.669-1.395l1.06-.435s-.42-.228-.81-.206c-.394.02-.803.014-1.122.347-.4.418-.545 1.17-.536 1.669.018.8.319 1.486.632 2.147.315.659.767 1.323.878 2.02.07.43-.041.999-.154 1.358-.111.359-.35.907-.655 1.24-.494.531-1.257.87-1.9 1.27-.644.404-1.294.835-1.768 1.504a2.79 2.79 0 0 0 -.376.694zm11.756 14.179c.213.166.586.378.865.417.442.067.787-.171 1.089-.406.303-.237.436-.707.436-.707-.334-.168-.513.237-1.345.224-.375-.008-.784-.224-1.047-.586-.422-.577-.792-1.09-.966-1.817-.174-.725-.327-1.498-.719-2.214-.273-.499-.748-.908-1.094-1.157-.343-.248-.871-.558-1.415-.644-.78-.132-1.536-.014-2.253.075-.714.084-1.282-.075-1.948-.284-.417-.128-1.083-.679-1.111-1.078l-.082-1.144s-.344.327-.45.705c-.103.378-.24.766-.023 1.174.27.51.936.887 1.412 1.036.762.237 1.511.168 2.237.08.724-.09 1.497-.307 2.194-.19.43.07.936.354 1.24.574.304.218.754.619.97 1.016.347.636.426 1.467.605 2.205.179.736.38 1.489.864 2.149.149.202.326.407.54.572z"/><path d="m948.543 354.403a6.876 6.876 0 0 1 13.75 0 6.878 6.878 0 0 1 -6.876 6.876 6.878 6.878 0 0 1 -6.874-6.876z" fill="#fed100"/><path d="m948.292 354.403a7.126 7.126 0 0 1 14.25 0 7.123 7.123 0 0 1 -7.125 7.122 7.123 7.123 0 0 1 -7.125-7.122zm.5 0a6.633 6.633 0 0 0 6.625 6.622c3.66 0 6.618-2.967 6.627-6.622a6.638 6.638 0 0 0 -6.627-6.628c-3.658 0-6.617 2.967-6.625 6.628z"/><path d="m955.408 359.154c2.762 0 4.859-2.155 4.859-4.738 0-2.582-2.107-4.773-4.86-4.773-2.752 0-4.856 2.191-4.856 4.773 0 2.581 2.094 4.738 4.857 4.738z" fill="#fed100" stroke="#000" stroke-width=".481183"/><path d="m880.924 220.397c-7.659-5.406-16.104-4.193-23.762-6.268-2.776-6.786-5.43-13.577-12.273-20.367-6.456 6.876-10.092 13.753-13.838 20.63-7.31 1.157-14.623 1.142-21.935 4.178 3.624 6.354 5.293 12.71 14.102 19.06-1.018 7.923-3.125 15.845-1.567 23.761 9.907-.67 15.876-4.497 22.455-7.829 7.426 2.958 8.547 5.914 22.455 8.874 3.5-8.093-1.032-16.187-1.566-24.283 5.47-5.18 13.005-8.123 15.93-17.756z" fill="#fed100"/><path d="m866.483 262.798c-13.858-2.947-15.173-5.94-22.359-8.836-6.495 3.306-12.528 7.128-22.45 7.798l-.327.024-.063-.321c-.403-2.046-.564-4.088-.564-6.119.002-5.886 1.339-11.734 2.1-17.54-8.74-6.37-10.464-12.806-14.027-19.05l-.208-.364.386-.167c7.339-3.043 14.628-3.045 21.837-4.17 3.717-6.82 7.365-13.683 13.81-20.543l.26-.28.27.27c6.843 6.785 9.536 13.596 12.288 20.32 7.502 1.996 15.956.82 23.699 6.273l-.212.308.212-.308.22.157-.08.257c-2.958 9.723-10.53 12.759-15.9 17.795.41 5.732 2.863 11.556 2.872 17.473 0 2.26-.364 4.536-1.346 6.81l-.123.28zm-22.24-9.59c7.473 2.987 8.52 5.868 22.093 8.797.849-2.071 1.167-4.142 1.167-6.23.008-5.77-2.48-11.641-2.88-17.597l-.012-.178.127-.117c5.514-5.198 12.824-8.076 15.747-17.336-7.457-5.143-15.726-3.987-23.421-6.057l-.18-.05-.068-.17c-2.744-6.703-5.335-13.327-11.92-19.973-6.254 6.744-9.822 13.488-13.52 20.272l-.088.162-.18.03c-7.222 1.143-14.361 1.15-21.46 3.994 3.509 6.288 5.23 12.398 13.786 18.573l.178.13-.027.22c-.762 5.93-2.12 11.82-2.12 17.667 0 1.887.138 3.766.487 5.653 9.62-.731 15.453-4.46 21.983-7.773l.15-.075.158.059z"/><path d="m845.495 197.047c1.544 8.47.419 21.058-.112 31.216.975.864 2.633-1.426 3.88-1.06 7.432-2.654 16.761-3.31 29.226-5.99-7.35 4.525-18.975 5.526-28.648 8.728-.367.497.181 2.987-.007 3.74 4.54 6.318 9 15.161 14.83 26.001-6.22-5.646-10.953-16.524-16.62-24.805-.711-.13-1.254 3.378-3.832 1.882-5.814 8.427-16.975 18.099-20.957 23.217 6.041-11.192 16.648-19.05 21.267-25.438.093-1.297-1.292-2.633-1.68-3.595-9.607-2.386-23.379-6.835-30.67-10.612 12.55 1.738 23.225 8.265 30.816 10.352.442-8.22 1.465-21.456 2.507-33.636z"/><path d="m829.875 253.971c-1.215 1.36-1.767 3.121-.605 5.666.932 2.041 3.873 3.165 5.416 3.453 3.624.679 6.853-2.244 10.331-2.244 3.483 0 6.711 2.923 10.332 2.244 1.546-.288 4.486-1.412 5.419-3.453 1.16-2.547.56-4.26-.605-5.666-1.187-1.423-2.919-2.558-4.044-3.837-1.132-1.293-.152-3.794-.044-3.484-.15-.034 2.526-.279 3.453 1.166.918 1.44 1.523 3.419 2.566 4.955 1.023 1.508 2.506 2.564 5.27 2.155 2.225-.328 4.12-2.84 4.825-4.245 1.657-3.29-.25-7.205.718-10.546.967-3.344 4.667-5.634 5.023-9.304.154-1.563-.108-4.7-1.812-6.166-2.12-1.818-3.938-1.717-5.606-.99-1.702.744-3.271 2.093-4.815 2.819-1.556.725-3.687-.912-3.218-.837-.263-.12.469-2.506 2.25-2.742 1.625-.208 3.573-.368 5.286-.863 1.683-.486 3.09-1.533 3.55-4.205.368-2.15-1.354-4.659-2.421-5.737-2.507-2.53-6.646-1.954-9.405-3.864-2.76-1.91-3.736-6.015-6.973-7.457-1.38-.616-4.32-1.328-6.168-.2-2.296 1.405-2.75 3.107-2.586 4.87.166 1.795.927 3.651 1.123 5.297.199 1.655-1.933 3.122-1.972 2.914-1.127-.245-2.254-1.425-2.254-2.914.001-1.646.958-3.5 1.125-5.296.162-1.764-.29-3.467-2.587-4.87-1.847-1.127-4.786-.416-6.166.199-3.239 1.442-4.215 5.547-6.974 7.457-2.761 1.91-6.9 1.334-9.406 3.864-1.068 1.078-2.79 3.588-2.424 5.737.46 2.672 1.868 3.719 3.548 4.205 1.715.494 3.676.583 5.289.863 1.8.316 2.493 2.798 2.25 2.742.469-.075-1.663 1.562-3.217.837-1.544-.727-3.113-2.075-4.815-2.82-1.67-.726-3.488-.827-5.605.99-1.706 1.468-1.967 4.604-1.815 6.167.357 3.67 4.058 5.96 5.026 9.304.967 3.341-.939 7.257.718 10.546.705 1.405 2.602 3.917 4.824 4.245 2.765.409 4.246-.647 5.27-2.155 1.042-1.536 1.647-3.516 2.567-4.955.927-1.443 3.557-1.357 3.453-1.166.673 1.209.792 2.397-.045 3.484-1.146 1.483-2.806 2.45-4.05 3.837z" fill="#fed100"/><path d="m845.019 261.115c-2.988-.02-5.905 2.323-9.213 2.344-.384 0-.773-.03-1.168-.1-1.594-.311-4.585-1.414-5.613-3.613-.46-1.005-.666-1.905-.664-2.718-.004-1.304.536-2.365 1.313-3.235 1.287-1.43 2.936-2.397 4.031-3.823.373-.49.53-.981.532-1.49 0-.523-.168-1.074-.483-1.648a1.687 1.687 0 0 0 -.318-.019c-.746-.015-2.16.276-2.698 1.15-.893 1.386-1.498 3.375-2.57 4.957-.895 1.329-2.215 2.371-4.358 2.362-.366 0-.755-.025-1.173-.087-2.397-.379-4.286-2.946-5.027-4.391-.58-1.146-.74-2.356-.74-3.566.002-1.61.284-3.241.28-4.776 0-.776-.07-1.533-.277-2.254-.895-3.211-4.63-5.512-5.034-9.35-.027-.251-.04-.541-.04-.852.007-1.705.396-4.199 1.944-5.542 1.287-1.113 2.506-1.555 3.652-1.55.789 0 1.532.205 2.238.514 1.753.771 3.326 2.124 4.822 2.82a1.8 1.8 0 0 0 .776.161c.942.035 2.036-.683 2.142-.815.002-.016.006-.016.006-.016l.17.105h.004l-.014-.07-.193-.08.077.031h-.087s-.002 0 .001-.015c.01-.336-.729-2.182-2.075-2.366-1.59-.278-3.558-.368-5.317-.874-1.746-.484-3.283-1.66-3.741-4.414a3.94 3.94 0 0 1 -.053-.663c.012-2.13 1.551-4.294 2.55-5.312 2.65-2.633 6.826-2.047 9.443-3.898 2.655-1.793 3.633-5.94 7.019-7.484.882-.392 2.345-.815 3.812-.818.912 0 1.834.172 2.603.638 2.09 1.263 2.756 2.865 2.745 4.473 0 .216-.008.434-.03.652-.18 1.865-1.13 3.724-1.122 5.273-.008 1.345 1.033 2.432 2.026 2.646.005 0 .013 0 .02-.016.055-.03.135-.075.223-.143.179-.125.405-.32.618-.555.434-.465.813-1.103.81-1.722 0-.063-.001-.126-.01-.185-.186-1.59-.946-3.45-1.122-5.3a6.146 6.146 0 0 1 -.032-.653c-.01-1.607.655-3.208 2.746-4.473.77-.469 1.688-.638 2.605-.638 1.467 0 2.929.43 3.813.818 3.385 1.544 4.364 5.691 7.017 7.484 2.62 1.85 6.793 1.263 9.445 3.898.994 1.017 2.538 3.182 2.549 5.312 0 .221-.015.439-.054.658-.456 2.757-1.992 3.933-3.741 4.417-1.75.506-3.712.663-5.326.875-1.335.125-2.09 1.906-2.067 2.315v.017l-.16.05-.032.096.153-.094.007.015a.853.853 0 0 0 .12.105c.112.09.288.204.5.31.42.219.985.413 1.521.411.272 0 .535-.045.778-.161 1.493-.696 3.07-2.049 4.821-2.82.704-.31 1.448-.514 2.237-.514 1.147 0 2.365.44 3.652 1.549 1.548 1.343 1.938 3.838 1.945 5.544 0 .311-.013.598-.04.85-.405 3.838-4.139 6.14-5.034 9.353-.21.718-.282 1.472-.282 2.248-.002 1.536.28 3.167.282 4.78 0 1.212-.16 2.417-.735 3.564-.741 1.447-2.63 4.013-5.028 4.392-.419.058-.807.091-1.176.091-2.142 0-3.463-1.033-4.357-2.365-1.069-1.583-1.677-3.57-2.572-4.958-.544-.887-2.025-1.089-2.773-1.078h-.06l.087.213-.417-.142c-.033.078-.075.18-.11.305a4.28 4.28 0 0 0 -.18 1.196c0 .555.129 1.105.478 1.498 1.083 1.243 2.821 2.38 4.047 3.847.746.896 1.293 1.962 1.292 3.277.001.8-.198 1.682-.648 2.668-1.026 2.199-4.018 3.302-5.616 3.613-.393.07-.782.105-1.166.105-3.302-.025-6.219-2.372-9.206-2.351zm9.213 1.804a5.92 5.92 0 0 0 1.069-.097c1.493-.266 4.383-1.412 5.222-3.3.423-.936.597-1.737.6-2.446-.003-1.164-.471-2.089-1.17-2.93-1.146-1.39-2.877-2.516-4.038-3.838-.469-.532-.61-1.224-.61-1.854.002-.77.202-1.46.375-1.804.095-.108.033-.226.363-.3.029 0 .054 0 .074.015.017 0 .031-.002.047 0 .09 0 .21-.016.36-.016.805.016 2.441.143 3.226 1.33.947 1.484 1.55 3.457 2.565 4.943.85 1.244 1.943 2.12 3.907 2.127.335 0 .702-.03 1.099-.082 2.048-.28 3.951-2.74 4.62-4.1.525-1.044.68-2.16.68-3.323 0-1.55-.282-3.177-.282-4.78 0-.809.073-1.616.301-2.403 1.041-3.475 4.709-5.75 5.018-9.25a8.6 8.6 0 0 0 .036-.798c.006-1.629-.425-4.01-1.757-5.137-1.221-1.044-2.298-1.412-3.303-1.417-.696 0-1.364.18-2.023.467-1.65.72-3.215 2.063-4.806 2.817-.328.15-.674.21-1.006.21-.997 0-1.916-.5-2.354-.83-.141-.151-.253-.137-.31-.44 0-.03.004-.069.021-.105a.625.625 0 0 1 -.004-.075c.023-.697.777-2.575 2.534-2.85 1.633-.214 3.569-.372 5.25-.857 1.617-.482 2.896-1.402 3.355-3.99.031-.185.047-.375.047-.57.012-1.86-1.461-3.999-2.395-4.932-2.36-2.427-6.466-1.868-9.365-3.835-2.862-2.016-3.839-6.088-6.931-7.432-.815-.364-2.234-.773-3.594-.772-.851 0-1.672.16-2.323.555-1.958 1.21-2.476 2.549-2.486 4.014 0 .202.007.402.028.599.159 1.741.916 3.594 1.124 5.291.01.088.013.171.013.25-.003.838-.472 1.565-.952 2.089-.522.528-.902.846-1.27.898-.02.002-.071-.016-.121-.031-1.248-.295-2.424-1.555-2.431-3.171.012-1.746.973-3.599 1.125-5.324.019-.2.027-.397.027-.6-.011-1.466-.53-2.805-2.488-4.013-.649-.395-1.473-.555-2.321-.555-1.362 0-2.78.406-3.594.771-3.092 1.345-4.067 5.417-6.931 7.433-2.9 1.967-7.005 1.407-9.365 3.835-.937.933-2.407 3.072-2.395 4.93 0 .195.016.383.047.571.46 2.588 1.74 3.508 3.359 3.99 1.67.482 3.617.575 5.257.858 1.776.356 2.492 2.309 2.52 2.91v.015a.22.22 0 0 1 .02.105c-.059.303-.17.288-.313.439a4 4 0 0 1 -.58.359c-.478.246-1.108.472-1.77.472-.336 0-.68-.06-1.007-.21-1.59-.754-3.155-2.1-4.807-2.817-.659-.287-1.328-.467-2.022-.467-1.006 0-2.082.37-3.303 1.417-1.333 1.128-1.763 3.508-1.755 5.136 0 .296.012.561.038.8.31 3.498 3.976 5.774 5.017 9.249.225.786.299 1.594.299 2.404 0 1.6-.28 3.227-.28 4.776 0 1.164.156 2.277.681 3.324.671 1.362 2.574 3.82 4.62 4.1.394.054.761.082 1.098.082 1.964 0 3.058-.887 3.91-2.127 1.015-1.486 1.618-3.46 2.565-4.944.755-1.15 2.307-1.387 3.15-1.396.262 0 .44.016.6.08.038.023.139.053.18.194.347.636.559 1.282.559 1.931.003.626-.204 1.245-.643 1.817-1.186 1.536-2.854 2.504-4.056 3.855-.718.805-1.174 1.72-1.177 2.875.001.721.18 1.542.614 2.495.839 1.889 3.729 3.035 5.223 3.301.355.066.711.097 1.067.097 3.049.022 5.962-2.32 9.213-2.344 3.252.025 6.166 2.366 9.215 2.344zm-26.762-37.032.08-.124zm35.102 0-.096-.138h-.002zm.11-.204h-.184.183z"/><path d="m856.627 259.163c.547.017 1.409-.072 1.918-.315.815-.39 1.129-1.133 1.377-1.836.244-.692-.057-1.578-.057-1.578-.746.124-.594.94-2.005 1.837-.638.408-1.564.522-2.406.257-1.344-.415-2.536-.791-3.637-1.72-1.102-.922-2.213-1.94-3.668-2.606-1.013-.465-2.27-.572-3.12-.572-.853 0-2.08.107-3.095.572-1.454.666-2.59 1.684-3.694 2.607-1.103.928-2.237 1.305-3.581 1.72-.842.264-2.574.151-3.065-.429l-1.406-1.666s-.214.884.032 1.578c.246.701.445 1.446 1.26 1.836 1.022.486 2.558.327 3.523.025 1.543-.477 2.72-1.41 3.839-2.346 1.116-.938 2.17-2.129 3.465-2.721.801-.369 1.969-.488 2.724-.488.753 0 1.949.12 2.748.488 1.295.592 2.35 1.783 3.467 2.72 1.12.938 2.295 1.87 3.839 2.347.476.152.998.274 1.542.29zm17.918-29.494c.17-.483.325-1.274.232-1.796-.149-.826-.776-1.301-1.38-1.706-.596-.396-1.527-.355-1.527-.355-.091.697.735.775 1.206 2.268.212.672.062 1.533-.423 2.216-.774 1.094-1.468 2.058-2.664 2.807-1.196.746-2.478 1.475-3.522 2.6-.729.786-1.182 1.881-1.42 2.643-.237.762-.474 1.885-.309 2.909.235 1.473.895 2.752 1.476 3.981.582 1.223.632 2.335.659 3.644.015.82-.572 2.34-1.264 2.626l-1.989.826s.787.421 1.52.382c.744-.04 1.515-.027 2.114-.652.754-.79 1.026-2.2 1.006-3.141-.031-1.505-.597-2.796-1.188-4.04-.591-1.24-1.439-2.487-1.65-3.798-.13-.81.076-1.883.29-2.558.208-.676.658-1.715 1.231-2.333.93-1 2.365-1.638 3.579-2.393 1.21-.756 2.435-1.566 3.322-2.821.275-.394.532-.828.701-1.31zm-22.117-26.683c-.404-.312-1.108-.707-1.629-.785-.833-.12-1.48.321-2.053.768-.567.44-.823 1.337-.823 1.337.633.305.967-.453 2.532-.43.706.013 1.471.43 1.968 1.105.792 1.08 1.49 2.044 1.82 3.416.33 1.371.616 2.82 1.353 4.166.514.94 1.409 1.713 2.056 2.181.649.468 1.641 1.049 2.666 1.217 1.47.24 2.893.022 4.24-.141 1.348-.166 2.414.14 3.664.531.784.24 2.041 1.279 2.094 2.028l.152 2.15s.65-.612.844-1.32c.196-.717.453-1.444.048-2.21-.508-.966-1.763-1.671-2.66-1.949-1.435-.447-2.843-.321-4.208-.152-1.364.168-2.818.575-4.127.36-.809-.133-1.763-.67-2.334-1.084-.573-.412-1.418-1.165-1.824-1.906-.658-1.199-.804-2.762-1.138-4.152-.334-1.386-.718-2.802-1.627-4.044a5.092 5.092 0 0 0 -1.014-1.086z"/><path d="m815.57 229.669c-.167-.483-.324-1.274-.23-1.796.147-.826.776-1.301 1.38-1.706.597-.396 1.528-.355 1.528-.355.092.697-.735.775-1.206 2.268-.213.672-.06 1.533.422 2.216.774 1.094 1.469 2.058 2.663 2.807 1.196.746 2.48 1.475 3.523 2.6.73.786 1.182 1.881 1.42 2.643.237.762.472 1.885.31 2.909-.236 1.473-.896 2.752-1.477 3.981-.582 1.223-.63 2.335-.659 3.644-.014.82.572 2.34 1.264 2.626l1.992.826s-.787.421-1.522.382c-.741-.04-1.513-.027-2.113-.652-.754-.79-1.025-2.2-1.006-3.141.03-1.505.599-2.796 1.188-4.04.59-1.24 1.439-2.487 1.65-3.798.129-.81-.081-1.883-.288-2.558-.21-.676-.658-1.715-1.232-2.333-.93-1-2.367-1.638-3.578-2.393-1.212-.756-2.434-1.566-3.322-2.821-.28-.394-.539-.828-.706-1.31zm22.115-26.683c.404-.312 1.108-.707 1.63-.785.832-.12 1.48.321 2.051.768.57.44.823 1.337.823 1.337-.633.305-.965-.453-2.531-.43-.709.013-1.473.43-1.97 1.105-.793 1.08-1.49 2.044-1.82 3.416-.33 1.371-.613 2.82-1.351 4.166-.514.94-1.41 1.713-2.06 2.181-.647.468-1.638 1.049-2.663 1.217-1.471.24-2.895.022-4.24-.141-1.347-.166-2.413.14-3.665.531-.784.24-2.04 1.279-2.093 2.028l-.152 2.15s-.649-.612-.843-1.32c-.198-.717-.455-1.444-.05-2.21.508-.966 1.763-1.671 2.658-1.949 1.436-.447 2.843-.321 4.207-.152 1.363.168 2.82.575 4.13.36.807-.133 1.763-.67 2.334-1.084.573-.412 1.415-1.165 1.823-1.906.656-1.199.802-2.762 1.136-4.152.334-1.386.718-2.802 1.627-4.044.287-.39.616-.77 1.019-1.086z"/><path d="m864.101 237.34c-4.072 2.873-8.557 2.23-12.628 3.33-1.476 3.607-2.884 7.214-6.522 10.825-3.432-3.653-5.363-7.31-7.354-10.962-3.887-.618-7.77-.607-11.658-2.221 1.925-3.376 2.814-6.75 7.492-10.13-.539-4.208-1.66-8.418-.832-12.628 5.266.359 8.439 2.392 11.935 4.161 3.947-1.572 4.543-3.144 11.934-4.716 1.86 4.302-.548 8.605-.832 12.906 2.908 2.749 6.91 4.315 8.465 9.435z" fill="#fed100"/><path d="m844.752 251.677c-3.42-3.643-5.362-7.291-7.329-10.901-3.815-.591-7.685-.597-11.587-2.216l-.282-.12.152-.264c1.882-3.298 2.807-6.732 7.44-10.12-.406-3.068-1.11-6.162-1.113-9.29 0-1.087.086-2.178.303-3.264l.045-.232.238.016c5.274.359 8.49 2.387 11.93 4.133 3.772-1.519 4.509-3.122 11.863-4.683l.215-.044.087.2c.529 1.217.723 2.436.723 3.646-.008 3.152-1.302 6.237-1.523 9.257 2.836 2.652 6.865 4.282 8.445 9.468l-.258.079.258-.079.058.187-.16.108c-4.13 2.91-8.626 2.292-12.582 3.339-1.459 3.56-2.898 7.183-6.532 10.79l-.198.197-.193-.205zm-7.114-11.412.132.02.062.115c1.956 3.589 3.84 7.145 7.126 10.702 3.451-3.503 4.813-6.99 6.264-10.536l.05-.125.13-.035c4.096-1.099 8.458-.495 12.383-3.177-1.552-4.848-5.395-6.367-8.335-9.133l-.091-.09.006-.126c.216-3.184 1.538-6.298 1.531-9.347 0-1.083-.161-2.155-.589-3.228-7.147 1.553-7.691 3.067-11.67 4.658l-.115.044-.107-.05c-3.462-1.76-6.536-3.72-11.594-4.121a16.58 16.58 0 0 0 -.246 2.928c0 3.097.72 6.22 1.127 9.379l.02.158-.13.094c-4.496 3.248-5.42 6.452-7.264 9.778 3.727 1.48 7.492 1.489 11.31 2.092z"/><path d="m836.972 219.518c-.648-.723-.938-1.662-.322-3.01.497-1.083 2.06-1.681 2.881-1.833 1.927-.361 3.641 1.19 5.49 1.19s3.563-1.551 5.49-1.19c.82.152 2.382.75 2.882 1.833.614 1.348.295 2.265-.324 3.01-.63.76-1.552 1.363-2.15 2.042-.601.686-.08 2.016-.021 1.85-.08.017 1.341.147 1.834-.62.485-.766.808-1.816 1.363-2.634.543-.8 1.33-1.36 2.8-1.146 1.183.175 2.19 1.51 2.565 2.255.881 1.75-.133 3.831.38 5.605.514 1.78 2.48 2.994 2.67 4.945.08.833-.058 2.502-.963 3.276-1.126.969-2.091.915-2.98.525-.904-.392-1.74-1.108-2.558-1.494-.828-.387-1.96.48-1.71.444-.141.063.248 1.33 1.194 1.455.864.11 1.898.194 2.81.457.894.256 1.642.814 1.886 2.235.196 1.141-.72 2.477-1.287 3.05-1.33 1.342-3.53 1.036-4.998 2.052-1.467 1.013-1.986 3.2-3.707 3.964-.733.326-2.294.708-3.276.11-1.22-.75-1.464-1.654-1.374-2.59.086-.954.492-1.94.595-2.813.107-.882-1.026-1.663-1.048-1.55-.599.128-1.198.754-1.198 1.55 0 .873.51 1.859.598 2.813.089.936-.154 1.84-1.375 2.59-.981.598-2.542.218-3.277-.11-1.721-.762-2.242-2.951-3.709-3.964-1.465-1.016-3.664-.71-4.997-2.052-.567-.573-1.484-1.91-1.286-3.05.243-1.423.99-1.98 1.885-2.235.912-.265 1.953-.31 2.81-.457.957-.165 1.325-1.485 1.195-1.455.249.034-.884-.832-1.712-.444-.82.386-1.655 1.102-2.558 1.494-.887.39-1.852.444-2.98-.525-.907-.776-1.043-2.445-.963-3.276.19-1.95 2.156-3.164 2.67-4.945.515-1.774-.5-3.856.383-5.605.375-.746 1.38-2.08 2.564-2.255 1.469-.215 2.256.346 2.8 1.146.554.818.877 1.868 1.365 2.634.492.767 1.89.72 1.834.62.358-.645.423-1.272-.024-1.85-.603-.785-1.484-1.3-2.147-2.042z" fill="#fed100"/><path d="m846.813 248.06c-1.125-.676-1.498-1.558-1.487-2.43 0-.119.004-.235.015-.351.095-.995.505-1.984.596-2.813a.696.696 0 0 0 .006-.1c.032-.526-.63-1.121-.827-1.228-.496.114-1.022.67-1.016 1.35-.01.797.495 1.785.596 2.791.01.12.015.237.015.351.008.872-.36 1.754-1.49 2.43-.42.257-.92.346-1.41.346a5.422 5.422 0 0 1 -2.053-.439c-1.832-.843-2.35-3.055-3.74-3.983-1.357-.971-3.584-.656-5.026-2.076-.539-.552-1.362-1.709-1.371-2.87a2.1 2.1 0 0 1 .028-.358c.241-1.484 1.088-2.14 2.028-2.398.945-.27 1.994-.316 2.834-.462.62-.077 1.005-.922 1.047-1.157l-.01-.036a.34.34 0 0 1 -.012-.036 1.687 1.687 0 0 0 -.25-.16c-.219-.11-.512-.208-.783-.208a.876.876 0 0 0 -.387.081c-.785.365-1.62 1.082-2.564 1.497-.38.166-.784.276-1.217.276-.623 0-1.286-.24-1.976-.835-.846-.739-1.05-2.074-1.055-2.99 0-.166.006-.324.02-.457.225-2.078 2.218-3.304 2.678-4.981.108-.375.144-.77.144-1.184 0-.808-.15-1.674-.15-2.537 0-.649.087-1.301.402-1.922.401-.776 1.405-2.153 2.715-2.365a4.11 4.11 0 0 1 .633-.045c1.157-.016 1.884.56 2.365 1.279.574.85.898 1.91 1.364 2.634.263.435.997.593 1.385.585.055 0 .1-.002.13 0 .156-.29.236-.564.236-.818a1.192 1.192 0 0 0 -.27-.75c-.57-.752-1.447-1.264-2.141-2.03l.152-.139.152-.136c.63.71 1.517 1.226 2.16 2.053.24.31.356.654.356 1.002-.003.363-.123.722-.325 1.09h-.006c-.075.156-.158.095-.202.128a1.097 1.097 0 0 1 -.24.022c-.46 0-1.3-.129-1.726-.772-.506-.802-.827-1.847-1.359-2.628-.451-.652-1.006-1.099-2.03-1.103-.178 0-.368.015-.571.047-1.054.133-2.065 1.43-2.414 2.145-.276.541-.36 1.123-.36 1.735 0 .819.15 1.682.151 2.538 0 .434-.039.87-.16 1.295-.569 1.877-2.51 3.086-2.664 4.91a4.045 4.045 0 0 0 -.019.417c-.005.857.23 2.11.914 2.682.64.55 1.193.737 1.711.737.36 0 .712-.09 1.054-.243.868-.373 1.699-1.09 2.551-1.493.184-.086.375-.123.563-.123.55 0 1.042.274 1.287.457.077.085.146.058.188.28 0 .02-.005.04-.01.054l.002.016c-.023.35-.4 1.395-1.392 1.603-.874.152-1.907.2-2.786.455-.847.257-1.499.715-1.742 2.077a1.53 1.53 0 0 0 -.023.286c-.01.96.765 2.098 1.255 2.582 1.221 1.265 3.395.975 4.967 2.028 1.542 1.097 2.063 3.257 3.672 3.947.427.188 1.178.404 1.89.404.443 0 .867-.081 1.2-.287 1.025-.635 1.285-1.32 1.293-2.083 0-.102-.005-.208-.014-.312-.077-.898-.591-1.882-.599-2.829.006-.88.627-1.558 1.304-1.736.052-.032.09-.03.113-.032.25.04.428.21.72.499.258.286.518.678.523 1.148 0 .05-.003.091-.008.143-.113.912-.514 1.897-.596 2.81-.012.1-.014.206-.014.31.007.762.267 1.449 1.292 2.084.33.202.757.287 1.202.287.71 0 1.46-.214 1.886-.405 1.612-.691 2.13-2.85 3.673-3.946 1.574-1.054 3.745-.764 4.97-2.029.49-.485 1.264-1.622 1.254-2.581 0-.1-.006-.194-.023-.288-.245-1.36-.895-1.817-1.74-2.076-.884-.254-1.909-.338-2.782-.454-.98-.162-1.38-1.168-1.4-1.574.002-.015.004-.02.004-.03a.146.146 0 0 1 -.01-.065c.044-.221.11-.195.188-.281.08-.063.19-.132.318-.196.257-.132.6-.257.968-.257.186 0 .379.036.562.12.856.404 1.687 1.12 2.552 1.493a2.6 2.6 0 0 0 1.052.243c.518 0 1.073-.187 1.714-.737.687-.58.917-1.824.912-2.682 0-.155-.006-.3-.015-.42-.154-1.821-2.097-3.031-2.665-4.906a4.562 4.562 0 0 1 -.164-1.296c.001-.856.152-1.72.15-2.537 0-.613-.08-1.195-.354-1.737-.348-.713-1.362-2.01-2.414-2.144a3.424 3.424 0 0 0 -.572-.049c-1.025.016-1.581.453-2.028 1.105-.533.78-.854 1.826-1.359 2.629-.444.661-1.33.724-1.768.732-.111 0-.16 0-.218-.016-.012.002-.023 0-.036 0-.243-.06-.188-.135-.248-.194a1.514 1.514 0 0 1 -.095-.25 2.667 2.667 0 0 1 -.11-.738c0-.34.075-.724.34-1.023.627-.71 1.544-1.309 2.146-2.035.365-.443.605-.921.607-1.523 0-.364-.09-.782-.312-1.273-.427-.969-1.952-1.583-2.734-1.72a2.934 2.934 0 0 0 -.555-.05c-1.592-.017-3.14 1.23-4.895 1.245-1.761-.016-3.31-1.263-4.9-1.244-.184 0-.37.015-.554.05-.782.136-2.307.752-2.734 1.72-.227.498-.32.925-.32 1.3 0 .597.236 1.067.61 1.489l-.152.136-.152.138c-.42-.47-.716-1.051-.714-1.761 0-.442.11-.931.359-1.47.567-1.203 2.167-1.784 3.028-1.954.211-.039.421-.058.63-.058 1.787.018 3.337 1.265 4.9 1.248 1.554.017 3.106-1.23 4.894-1.248.207 0 .416.02.632.058.859.17 2.46.751 3.028 1.953.242.532.35 1.011.35 1.442 0 .718-.3 1.298-.701 1.786-.658.786-1.585 1.391-2.152 2.042-.17.196-.24.473-.238.755-.008.292.081.604.138.748l.288-.034-.033.064c.41-.016 1.09-.137 1.332-.547.47-.724.79-1.784 1.367-2.635.481-.72 1.206-1.288 2.365-1.279.196 0 .408.016.635.046 1.31.211 2.314 1.589 2.715 2.365.31.62.396 1.272.396 1.921 0 .864-.152 1.73-.15 2.538 0 .414.04.809.149 1.183.458 1.676 2.45 2.903 2.677 4.981.012.137.02.292.02.458-.004.912-.208 2.248-1.053 2.989-.693.596-1.357.837-1.981.835-.428 0-.834-.11-1.212-.275-.943-.416-1.78-1.132-2.564-1.497a.882.882 0 0 0 -.389-.08c-.268-.016-.567.098-.785.213l.241.04-.51.226c.045.275.434 1.063 1.04 1.113.856.115 1.901.196 2.84.466.944.258 1.792.912 2.03 2.398.022.119.031.24.031.357-.009 1.162-.837 2.318-1.373 2.87-1.44 1.42-3.667 1.105-5.026 2.077-1.39.926-1.91 3.14-3.74 3.982a5.458 5.458 0 0 1 -2.053.44c-.502 0-1-.093-1.422-.35z"/><path d="m851.188 216.76c.289-.01.748.039 1.02.167.435.209.598.602.73.977.133.368-.029.835-.029.835-.396-.064-.317-.495-1.067-.976-.337-.217-.831-.276-1.278-.135-.714.22-1.346.421-1.934.915-.586.492-1.177 1.033-1.95 1.384-.537.246-1.203.306-1.66.306-.45 0-1.103-.058-1.642-.306-.771-.35-1.376-.892-1.964-1.384-.586-.494-1.187-.696-1.903-.915-.448-.141-1.368-.082-1.63.224l-.748.887s-.114-.465.018-.835c.128-.373.236-.768.67-.977.543-.262 1.358-.175 1.87-.012.819.25 1.447.746 2.041 1.246.594.497 1.152 1.133 1.842 1.445.423.194 1.045.26 1.443.26.403 0 1.04-.064 1.463-.26.688-.312 1.249-.948 1.843-1.445.596-.5 1.22-.996 2.04-1.246.26-.082.538-.145.825-.156zm9.522 15.676c.09.255.172.678.124.953-.08.442-.413.692-.735.906-.317.211-.814.19-.814.19-.047-.374.392-.411.644-1.206.113-.36.033-.814-.225-1.177-.413-.583-.78-1.094-1.416-1.492-.634-.398-1.318-.789-1.873-1.384-.385-.42-.628-.999-.752-1.405-.125-.401-.252-1.003-.166-1.545.127-.785.476-1.462.787-2.115.308-.652.333-1.24.348-1.938.009-.436-.303-1.245-.671-1.395l-1.058-.436s.42-.227.809-.205c.393.02.804.014 1.122.346.401.419.545 1.17.536 1.67-.017.799-.32 1.485-.633 2.147-.314.658-.765 1.322-.878 2.018-.07.431.04 1 .153 1.36.112.358.352.907.654 1.239.495.531 1.257.87 1.901 1.271.646.403 1.295.834 1.768 1.503.15.207.286.438.375.695zm-11.754 14.178c-.213.166-.586.378-.865.417-.444.067-.785-.17-1.09-.406-.302-.237-.437-.707-.437-.707.336-.168.514.237 1.345.224.378-.008.784-.224 1.047-.586.422-.577.793-1.09.966-1.816.175-.726.327-1.499.72-2.215.273-.499.75-.908 1.093-1.157.343-.248.872-.558 1.417-.644.78-.132 1.538-.014 2.252.075.715.085 1.284-.075 1.949-.284.417-.128 1.083-.678 1.11-1.078l.084-1.144s.345.327.448.705c.1.378.24.767.024 1.174-.27.511-.936.887-1.414 1.036-.762.237-1.51.168-2.235.08-.724-.09-1.499-.307-2.194-.19-.428.07-.936.355-1.24.574-.304.218-.753.62-.969 1.016-.35.636-.426 1.467-.605 2.205-.175.737-.378 1.49-.862 2.149a2.878 2.878 0 0 1 -.544.572z"/><path d="m829.368 232.436c-.09.255-.17.678-.12.953.076.442.412.692.731.906.317.211.814.19.814.19.048-.374-.392-.411-.643-1.206-.113-.36-.031-.814.226-1.177.414-.583.78-1.094 1.417-1.492.635-.398 1.315-.789 1.873-1.384.385-.42.628-.999.752-1.405.126-.401.25-1.003.166-1.545-.127-.785-.476-1.462-.787-2.115-.308-.652-.335-1.24-.347-1.938-.01-.436.302-1.245.669-1.395l1.06-.436s-.42-.227-.81-.205c-.394.02-.803.014-1.122.346-.4.419-.545 1.17-.536 1.67.018.799.318 1.485.632 2.147.315.658.766 1.322.878 2.018.07.431-.041 1-.154 1.36-.111.358-.35.907-.655 1.239-.494.531-1.257.87-1.9 1.271-.644.403-1.294.834-1.768 1.503a2.79 2.79 0 0 0 -.376.695zm11.755 14.178c.214.166.587.378.866.417.442.067.786-.17 1.089-.406.302-.237.436-.707.436-.707-.334-.168-.513.237-1.345.224-.375-.008-.784-.224-1.047-.586-.422-.577-.792-1.09-.966-1.816s-.327-1.499-.72-2.215c-.272-.499-.747-.908-1.093-1.157-.343-.248-.872-.558-1.415-.644-.781-.132-1.536-.014-2.253.075-.715.085-1.282-.075-1.948-.284-.417-.128-1.083-.678-1.111-1.078l-.082-1.144s-.345.327-.45.705c-.103.378-.241.767-.023 1.174.27.511.936.887 1.412 1.036.762.237 1.511.168 2.237.08.724-.09 1.497-.307 2.194-.19.43.07.936.355 1.24.574.304.218.754.62.97 1.016.346.636.426 1.467.605 2.205.179.737.38 1.49.864 2.149.149.202.326.407.54.572z"/><path  d="m838.35 231.357a6.876 6.876 0 0 1 13.75 0 6.878 6.878 0 0 1 -6.876 6.876 6.878 6.878 0 0 1 -6.874-6.876z" fill="#fed100"/><path d="m838.099 231.357a7.126 7.126 0 0 1 14.25 0 7.123 7.123 0 0 1 -7.125 7.122 7.123 7.123 0 0 1 -7.125-7.122zm.5 0a6.633 6.633 0 0 0 6.625 6.622c3.66 0 6.618-2.967 6.627-6.622a6.638 6.638 0 0 0 -6.627-6.628c-3.658 0-6.617 2.967-6.625 6.628z"/><path d="m845.215 236.108c2.761 0 4.859-2.155 4.859-4.738 0-2.582-2.107-4.773-4.86-4.773-2.752 0-4.857 2.191-4.857 4.773 0 2.581 2.094 4.738 4.858 4.738z" fill="#fed100" stroke="#000" stroke-width=".481183"/><path d="m944.894 245.608c.447-3.216.204-9.282-2.035-12.041-.752-.93-2.604-2.015-4.053-1.969-1.431.045-3.386.365-4.06 1.316-.616.868-1.017 2.74-.876 3.72.204 1.362 2.323 4.16 2.323 4.16s-7.58-1.15-10.141-2.628c-2.545-1.462-5.281-4.236-6.09-6.57-.276-.795-1.361-3.389.013-6.492.786-1.8 3.176-4.211 5.024-5.414 4.834-3.138 14.207-2.225 16.123-1.444 2.532 1.03 5.625 3.225 6.665 5.254.803 1.573 2.487 6.222 2.9 7.879.836 3.39 1.08 4.666 1.446 8.1.256 2.358.949 4.475.288 6.788-.351 1.246-.796 4.103-1.764 5.988-.966 1.892-2.46 2.807-3.742 3.645-2.623 1.71-11.013 2.628-11.013 2.628s4.607-4.395 5.794-6.35c1.412-2.326 2.836-4.03 3.198-6.57zm20.548 0c-.458-3.216-.215-9.282 2.03-12.041.75-.93 2.61-2.015 4.052-1.969 1.426.045 3.387.365 4.065 1.316.61.868 1.012 2.74.859 3.72-.2 1.362-2.317 4.16-2.317 4.16s7.58-1.15 10.145-2.628c2.544-1.462 5.274-4.236 6.09-6.57.275-.795 1.355-3.389-.006-6.492-.793-1.8-3.184-4.211-5.033-5.414-4.832-3.138-14.205-2.225-16.121-1.444-2.533 1.03-5.62 3.225-6.665 5.254-.808 1.573-2.487 6.222-2.9 7.879-.837 3.39-1.08 4.666-1.446 8.1-.254 2.358-.956 4.475-.294 6.788.362 1.246.802 4.103 1.764 5.988.972 1.892 2.46 2.807 3.742 3.645 2.623 1.71 11.023 2.628 11.023 2.628s-4.614-4.395-5.8-6.35c-1.413-2.326-2.832-4.03-3.188-6.57z" fill="#fed100"/><path d="m974.367 240.645s4.314-1.374 5.597-2.48c1.368-1.176 2.283-3.273 2.696-4.808.317-1.156-.44-3.61-1.158-4.664-1.07-1.588-2.379-2.506-4.624-3.059-1.544-.379-3.884-.43-5.4 0-1.575.44-3.786 1.48-4.826 2.477-1.566 1.507-2.494 3.236-3.086 5.103-.362 1.147-1.187 4.647-1.153 5.827.023 1.048.192 4.372.192 4.372m-26.632-2.776s-4.307-1.374-5.595-2.476c-1.369-1.176-2.29-3.273-2.703-4.81-.31-1.157.453-3.61 1.159-4.662 1.068-1.588 2.38-2.506 4.63-3.062 1.538-.379 3.885-.427 5.405 0 1.571.443 3.782 1.48 4.823 2.48 1.565 1.506 2.486 3.236 3.08 5.099.368 1.148 1.194 4.65 1.158 5.828-.029 1.051-.186 4.372-.186 4.372" fill="none" stroke="#000" stroke-width=".842064"/><path d="m935.504 258.284s1.146-1.093 2.442-2.43c1.288-1.33 2.735-2.922 3.284-3.837 1.431-2.353 2.804-4.006 3.142-6.448.125-.826.194-1.851.194-2.958.011-3.127-.595-6.947-2.143-8.84-.626-.81-2.42-1.82-3.533-1.784h-.033v-.114l-.034.114c-1.363.025-3.177.397-3.63 1.107-.462.639-.847 2.126-.836 3.08 0 .155.006.298.028.416.08.577.64 1.615 1.188 2.469.55.852 1.063 1.543 1.063 1.543l.566.74-1.109-.17c-.033-.017-7.563-1.117-10.35-2.696-2.641-1.53-5.409-4.318-6.275-6.778-.177-.493-.69-1.757-.69-3.422 0-.978.175-2.1.707-3.29.853-1.914 3.249-4.322 5.183-5.588 2.742-1.778 6.74-2.29 10.158-2.292 2.98.006 5.472.376 6.54.799 2.64 1.084 5.767 3.288 6.904 5.455.825 1.628 2.49 6.244 2.914 7.952.845 3.385 1.092 4.701 1.46 8.14.175 1.61.571 3.142.571 4.743 0 .7-.08 1.416-.289 2.153-.35 1.213-.79 4.092-1.785 6.05-1.012 1.98-2.617 2.967-3.889 3.795-2.905 1.848-11.227 2.695-11.272 2.72l-1.277.139.8-.768zm6.665-5.945c-.933 1.516-3.68 4.288-5.055 5.64.82-.109 1.96-.277 3.188-.502 2.397-.426 5.127-1.107 6.28-1.87 1.296-.845 2.669-1.69 3.598-3.49.931-1.813 1.383-4.65 1.745-5.932a7.4 7.4 0 0 0 .262-1.991c.005-1.502-.38-3.013-.565-4.68-.369-3.432-.606-4.677-1.441-8.063-.396-1.613-2.087-6.29-2.873-7.81-.943-1.89-4.002-4.076-6.428-5.056-.724-.304-3.226-.714-6.053-.706-3.284-.005-7.064.522-9.491 2.106-1.764 1.14-4.144 3.553-4.88 5.246a7.379 7.379 0 0 0 -.655 3.044c.005 1.549.481 2.71.66 3.228.753 2.203 3.462 4.96 5.904 6.356 1.14.67 3.668 1.34 5.86 1.803 1.161.246 2.235.442 2.986.574-.649-.93-1.672-2.516-1.847-3.553a3.496 3.496 0 0 1 -.03-.508c.006-1.097.362-2.584.962-3.443.894-1.19 2.997-1.455 4.437-1.517.09-.007.136-.003.159-.007 1.753.033 3.55 1.148 4.41 2.16 1.745 2.18 2.277 6.037 2.29 9.243 0 1.134-.069 2.182-.188 3.041-.38 2.638-1.851 4.393-3.235 6.687zm32.182 6.568c-.05-.022-8.372-.867-11.277-2.717-1.266-.828-2.878-1.814-3.884-3.795-1.001-1.957-1.44-4.836-1.786-6.047a7.612 7.612 0 0 1 -.289-2.153c0-1.604.39-3.134.566-4.746.368-3.439.622-4.755 1.458-8.14.43-1.705 2.091-6.324 2.922-7.952 1.131-2.167 4.262-4.369 6.902-5.455 1.064-.421 3.556-.793 6.54-.799 3.416.003 7.412.514 10.16 2.292 1.927 1.266 4.324 3.674 5.183 5.589a8.093 8.093 0 0 1 .701 3.29c0 1.66-.515 2.93-.685 3.42-.863 2.461-3.64 5.25-6.274 6.78-2.793 1.578-10.318 2.679-10.356 2.698l-1.103.167.56-.74s.519-.69 1.062-1.543c.549-.848 1.107-1.892 1.194-2.466.017-.12.028-.264.028-.418.006-.956-.379-2.445-.843-3.08-.445-.71-2.267-1.083-3.667-1.108h-.03c-1.113-.034-2.9.974-3.528 1.785-1.554 1.89-2.158 5.71-2.147 8.833 0 1.11.074 2.136.186 2.964l-.502.04-.508.042c-.125-.86-.2-1.91-.2-3.047.013-3.206.544-7.058 2.291-9.238.859-1.011 2.66-2.126 4.41-2.16h.033c.023 0 .056 0 .08.005 1.487.064 3.594.33 4.488 1.52.593.859.95 2.346.955 3.442 0 .179-.006.346-.028.503-.17 1.04-1.193 2.626-1.843 3.559.752-.132 1.82-.329 2.985-.574 2.188-.463 4.714-1.134 5.87-1.804 2.434-1.396 5.143-4.152 5.894-6.356.182-.518.65-1.678.65-3.228 0-.906-.156-1.945-.65-3.044-.73-1.692-3.114-4.105-4.879-5.246-2.426-1.583-6.201-2.108-9.487-2.105-2.832-.008-5.336.402-6.053.706-2.43.978-5.476 3.166-6.432 5.055-.781 1.52-2.477 6.198-2.873 7.81-.836 3.387-1.068 4.632-1.44 8.063-.18 1.667-.57 3.179-.57 4.683 0 .659.08 1.315.263 1.99.37 1.28.816 4.118 1.747 5.93.927 1.803 2.308 2.647 3.6 3.49 1.148.764 3.885 1.444 6.276 1.871 1.227.225 2.374.393 3.193.503-1.374-1.35-4.125-4.124-5.054-5.64-1.385-2.295-2.86-4.05-3.227-6.69l.508-.042.502-.04c.345 2.443 1.72 4.096 3.15 6.448.554.915 1.995 2.507 3.289 3.839 1.295 1.336 2.436 2.43 2.436 2.43l.814.763z"/><path d="m955.127 269.5s5.115-4.192 5.957-8.94c.762-4.269-2.628-9.269-2.887-11.282-1.024-8.04 1.154-18.755 1.346-19.628.78-3.48 1.764-4.965 2.287-6.108.373-.82 1.45-2.452 2.521-4.03.62-.907 1.993-2.597 2.69-4.313.74-1.822.792-3.674.806-4.665.017-1.683-.303-3.117-.749-4.49-.424-1.304-1.808-3.434-3.816-4.663-2.165-1.322-3.917-2.383-4.58-2.807-2.197-1.391-3.551-5.965-3.577-5.965-.03 0-1.38 4.574-3.583 5.965-.663.424-2.334 1.485-4.496 2.807-2.007 1.229-3.392 3.36-3.819 4.663-.446 1.374-.766 2.807-.745 4.49.011.99.062 2.843.803 4.665.7 1.718 2.074 3.409 2.687 4.313 1.074 1.578 2.147 3.21 2.526 4.03.524 1.141 1.503 2.629 2.282 6.108.198.873 2.373 11.588 1.349 19.628-.258 2.014-3.726 7.013-2.965 11.281.846 4.75 5.963 8.94 5.963 8.94z" fill="#fed100"/><path d="m954.73 193.234h.774l.009 76.265h-.778z"/><path d="m954.876 269.803c-.017-.03-5.19-4.215-6.094-9.172-.085-.449-.116-.9-.116-1.351.013-4.09 2.905-8.436 3.075-10.049.195-1.5.273-3.103.273-4.718 0-6.926-1.455-14.093-1.613-14.777-.772-3.442-1.713-4.844-2.256-6.029-.344-.763-1.42-2.405-2.49-3.976-.599-.885-1.997-2.596-2.73-4.387-.77-1.9-.819-3.805-.83-4.789-.006-.061 0-.116 0-.157 0-1.673.321-3.115.766-4.472.468-1.408 1.874-3.58 3.983-4.877 2.16-1.318 3.827-2.382 4.497-2.8 1.845-1.134 3.22-5.15 3.395-5.702.026-.062-.009-.023.064-.15.042-.01-.02-.116.323-.175.35.062.28.167.324.176.02.03.026.036.026.05l.02.034c.006.017.009.03.017.05l.054.15c.042.127.1.308.184.528.164.444.401 1.049.704 1.693.597 1.295 1.48 2.735 2.456 3.344.658.416 2.411 1.48 4.577 2.8 2.105 1.298 3.518 3.47 3.981 4.88.441 1.349.767 2.79.767 4.467v.143c-.014 1.002-.06 2.907-.831 4.807-.731 1.79-2.132 3.502-2.727 4.387-1.072 1.57-2.149 3.213-2.493 3.976-.543 1.185-1.484 2.587-2.255 6.03-.157.68-1.615 7.851-1.615 14.776 0 1.615.081 3.218.273 4.718.172 1.613 2.988 5.94 3 10.025 0 .46-.034.918-.117 1.374-.905 4.96-6.077 9.145-6.094 9.174l-.248.202zm.247-.299.249-.302zm-.624-74.273c-.635 1.35-1.525 2.887-2.748 3.669-.666.422-2.334 1.488-4.503 2.81-1.907 1.152-3.264 3.25-3.653 4.454-.426 1.312-.73 2.658-.73 4.233 0 .048 0 .084.003.132.01.978.066 2.781.775 4.523.668 1.646 2.017 3.312 2.65 4.243 1.079 1.588 2.15 3.204 2.554 4.086.507 1.094 1.527 2.664 2.311 6.185.165.732 1.628 7.913 1.631 14.946 0 1.639-.083 3.271-.276 4.819-.295 2.013-3.086 6.151-3.072 9.949 0 .41.03.814.1 1.215.402 2.254 1.849 4.455 3.214 6.069 1.001 1.184 1.934 2.046 2.368 2.428a24.449 24.449 0 0 0 2.37-2.428c1.362-1.614 2.81-3.815 3.209-6.069.074-.407.105-.82.105-1.24.011-3.794-2.706-7.921-2.994-9.924-.199-1.544-.279-3.177-.279-4.82.006-7.033 1.467-14.213 1.63-14.945.787-3.52 1.809-5.091 2.311-6.185.408-.882 1.476-2.498 2.556-4.086.635-.93 1.983-2.598 2.65-4.243.71-1.74.767-3.544.775-4.518v-.14c-.002-1.577-.303-2.92-.73-4.23-.38-1.203-1.74-3.302-3.648-4.454-2.163-1.322-3.913-2.382-4.582-2.81-1.199-.765-2.073-2.251-2.706-3.573a23.15 23.15 0 0 1 -.67-1.57 18.83 18.83 0 0 1 -.621 1.474z"/><path d="m966.613 243.703-2.46-3.409h-17.971l-2.47 3.41 2.47 3.394h17.97z" fill="#fed100"/><path d="m945.984 247.484-2.754-3.78 2.754-3.797h18.367l2.578 3.57-.317.226.317-.226.163.226-2.741 3.781zm-1.79-3.78 2.187 3.007h17.574l2.177-3.008-2.177-3.021h-17.574l-2.188 3.021z"/><path d="m834.701 368.654c.446-3.216.204-9.282-2.035-12.041-.752-.93-2.605-2.016-4.053-1.97-1.431.046-3.386.366-4.06 1.317-.616.867-1.018 2.74-.876 3.72.204 1.362 2.323 4.16 2.323 4.16s-7.58-1.15-10.141-2.628c-2.545-1.463-5.282-4.236-6.09-6.57-.276-.795-1.361-3.389.013-6.492.786-1.8 3.176-4.212 5.024-5.414 4.833-3.139 14.207-2.225 16.123-1.445 2.532 1.03 5.625 3.225 6.665 5.255.802 1.573 2.487 6.221 2.9 7.879.836 3.389 1.08 4.666 1.446 8.1.255 2.358.949 4.475.288 6.787-.351 1.247-.796 4.104-1.764 5.989-.966 1.892-2.46 2.807-3.742 3.645-2.623 1.709-11.013 2.628-11.013 2.628s4.606-4.395 5.794-6.35c1.412-2.326 2.836-4.03 3.198-6.57zm20.548 0c-.458-3.216-.215-9.282 2.03-12.041.75-.93 2.61-2.016 4.052-1.97 1.426.046 3.387.366 4.065 1.317.61.867 1.012 2.74.859 3.72-.2 1.362-2.317 4.16-2.317 4.16s7.58-1.15 10.145-2.628c2.544-1.463 5.274-4.236 6.09-6.57.275-.795 1.355-3.389-.006-6.492-.793-1.8-3.185-4.212-5.033-5.414-4.832-3.139-14.205-2.225-16.121-1.445-2.533 1.03-5.62 3.225-6.665 5.255-.808 1.573-2.487 6.221-2.9 7.879-.837 3.389-1.08 4.666-1.447 8.1-.254 2.358-.955 4.475-.293 6.787.362 1.247.802 4.104 1.764 5.989.971 1.892 2.46 2.807 3.742 3.645 2.623 1.709 11.022 2.628 11.022 2.628s-4.613-4.395-5.8-6.35c-1.412-2.326-2.83-4.03-3.187-6.57z" fill="#fed100"/><path d="m864.174 363.69s4.314-1.373 5.597-2.479c1.368-1.176 2.283-3.273 2.696-4.808.317-1.157-.44-3.61-1.158-4.664-1.07-1.588-2.379-2.506-4.624-3.06-1.544-.378-3.884-.429-5.4 0-1.575.441-3.786 1.48-4.826 2.478-1.566 1.507-2.494 3.236-3.086 5.103-.362 1.146-1.187 4.646-1.154 5.827.024 1.048.193 4.371.193 4.371m-26.632-2.776s-4.307-1.374-5.595-2.475c-1.369-1.176-2.29-3.273-2.703-4.811-.31-1.157.453-3.61 1.159-4.661 1.068-1.589 2.38-2.507 4.63-3.062 1.538-.38 3.884-.427 5.404 0 1.572.443 3.783 1.479 4.824 2.48 1.565 1.505 2.485 3.236 3.08 5.098.368 1.148 1.193 4.65 1.158 5.829-.03 1.05-.186 4.371-.186 4.371" fill="none" stroke="#000" stroke-width=".842064"/><path d="m825.31 381.33s1.147-1.093 2.443-2.43c1.288-1.331 2.735-2.923 3.284-3.838 1.431-2.352 2.804-4.005 3.142-6.447.125-.827.194-1.851.194-2.959.011-3.126-.595-6.947-2.143-8.838-.626-.812-2.42-1.82-3.533-1.786h-.033v-.113l-.034.113c-1.363.026-3.177.398-3.63 1.108-.463.638-.847 2.126-.836 3.08 0 .155.006.298.028.416.08.577.64 1.615 1.188 2.468.55.852 1.063 1.544 1.063 1.544l.566.74-1.109-.17c-.033-.017-7.563-1.117-10.35-2.696-2.641-1.53-5.409-4.318-6.275-6.779-.177-.492-.69-1.757-.69-3.421 0-.978.175-2.1.707-3.29.853-1.914 3.249-4.322 5.183-5.588 2.742-1.779 6.74-2.29 10.158-2.292 2.98.005 5.472.376 6.54.798 2.64 1.085 5.767 3.289 6.903 5.456.826 1.628 2.492 6.243 2.915 7.951.845 3.385 1.092 4.702 1.46 8.14.175 1.611.571 3.143.571 4.744 0 .7-.08 1.416-.289 2.153-.35 1.212-.79 4.092-1.785 6.05-1.012 1.98-2.618 2.967-3.89 3.795-2.904 1.848-11.227 2.694-11.271 2.72l-1.278.139.802-.768zm6.666-5.945c-.934 1.516-3.68 4.288-5.056 5.64.82-.109 1.961-.277 3.19-.502 2.396-.427 5.126-1.107 6.28-1.87 1.295-.846 2.667-1.69 3.596-3.491.932-1.812 1.384-4.65 1.746-5.931a7.4 7.4 0 0 0 .261-1.991c.006-1.502-.38-3.014-.564-4.68-.369-3.432-.606-4.677-1.441-8.064-.396-1.612-2.087-6.29-2.873-7.81-.943-1.889-4.003-4.075-6.428-5.055-.724-.305-3.226-.714-6.053-.706-3.284-.006-7.065.522-9.491 2.105-1.764 1.141-4.144 3.554-4.88 5.246a7.379 7.379 0 0 0 -.655 3.044c.005 1.55.481 2.71.66 3.228.753 2.204 3.462 4.96 5.904 6.356 1.14.671 3.668 1.34 5.86 1.804 1.161.245 2.235.442 2.985.574-.648-.93-1.671-2.517-1.846-3.554a3.496 3.496 0 0 1 -.03-.508c.006-1.096.362-2.583.961-3.442.894-1.19 2.998-1.456 4.438-1.517.09-.007.136-.003.159-.007 1.753.033 3.549 1.148 4.41 2.16 1.745 2.179 2.277 6.037 2.29 9.242 0 1.134-.07 2.183-.188 3.042-.38 2.638-1.852 4.392-3.235 6.687zm32.182 6.568c-.05-.022-8.372-.867-11.277-2.717-1.266-.828-2.878-1.815-3.884-3.795-1.001-1.958-1.44-4.836-1.786-6.047a7.612 7.612 0 0 1 -.289-2.153c0-1.604.39-3.134.566-4.746.368-3.439.622-4.755 1.458-8.14.43-1.706 2.091-6.324 2.922-7.952 1.131-2.167 4.262-4.37 6.902-5.455 1.064-.421 3.556-.793 6.54-.799 3.416.003 7.412.514 10.16 2.292 1.926 1.266 4.324 3.674 5.182 5.588a8.093 8.093 0 0 1 .702 3.29c0 1.662-.515 2.93-.685 3.422-.863 2.46-3.64 5.248-6.275 6.778-2.792 1.579-10.318 2.68-10.355 2.699l-1.104.167.56-.74s.52-.69 1.063-1.543c.549-.848 1.107-1.892 1.194-2.466.017-.121.028-.264.028-.419.006-.955-.379-2.444-.843-3.08-.445-.71-2.267-1.082-3.667-1.107h-.03c-1.113-.034-2.9.974-3.528 1.785-1.554 1.889-2.159 5.709-2.147 8.833 0 1.11.074 2.136.186 2.964l-.502.04-.508.041c-.125-.858-.2-1.91-.2-3.046.013-3.206.544-7.058 2.29-9.238.86-1.012 2.662-2.126 4.41-2.16h.034c.023 0 .056 0 .08.005 1.486.064 3.594.33 4.488 1.52.593.858.95 2.346.955 3.442 0 .178-.006.345-.028.503-.17 1.04-1.193 2.625-1.843 3.559.752-.132 1.82-.329 2.985-.574 2.188-.464 4.714-1.134 5.87-1.804 2.434-1.396 5.143-4.153 5.894-6.356.182-.518.65-1.678.65-3.228 0-.906-.156-1.945-.65-3.044-.73-1.692-3.115-4.105-4.879-5.246-2.426-1.583-6.201-2.108-9.487-2.105-2.832-.009-5.336.401-6.053.706-2.43.978-5.476 3.166-6.432 5.055-.782 1.52-2.477 6.198-2.873 7.81-.836 3.387-1.068 4.631-1.441 8.063-.18 1.667-.57 3.179-.57 4.683 0 .658.08 1.315.264 1.989.37 1.281.815 4.119 1.747 5.93.927 1.804 2.308 2.648 3.6 3.491 1.148.764 3.885 1.444 6.276 1.87 1.227.225 2.373.394 3.193.503-1.374-1.35-4.125-4.123-5.054-5.64-1.385-2.295-2.86-4.05-3.228-6.689l.508-.042.503-.04c.345 2.443 1.72 4.096 3.15 6.448.554.915 1.995 2.507 3.289 3.838 1.295 1.337 2.436 2.43 2.436 2.43l.814.763z"/><path d="m844.934 392.545s5.115-4.19 5.957-8.94c.762-4.268-2.628-9.268-2.887-11.28-1.024-8.041 1.154-18.756 1.346-19.63.78-3.478 1.764-4.965 2.286-6.107.374-.82 1.45-2.452 2.522-4.03.62-.907 1.993-2.597 2.69-4.313.74-1.822.792-3.675.806-4.665.017-1.683-.303-3.118-.75-4.49-.423-1.304-1.807-3.434-3.815-4.664-2.166-1.322-3.917-2.383-4.58-2.807-2.197-1.39-3.552-5.964-3.577-5.964-.03 0-1.38 4.574-3.583 5.964-.664.424-2.334 1.485-4.496 2.807-2.007 1.23-3.393 3.362-3.82 4.664-.445 1.374-.765 2.807-.744 4.49.01.99.061 2.843.802 4.665.7 1.717 2.075 3.408 2.688 4.312 1.074 1.58 2.147 3.211 2.526 4.031.524 1.141 1.503 2.629 2.282 6.108.198.873 2.373 11.588 1.349 19.628-.258 2.014-3.726 7.013-2.966 11.281.847 4.75 5.964 8.94 5.964 8.94z" fill="#fed100"/><path d="m844.542 392.545-.006-76.266h.775l.009 76.266z"/><path d="m844.683 392.849c-.017-.03-5.19-4.215-6.094-9.172-.085-.449-.116-.9-.116-1.351.012-4.09 2.905-8.436 3.075-10.049.195-1.5.273-3.103.273-4.718 0-6.926-1.455-14.094-1.614-14.777-.771-3.443-1.712-4.845-2.255-6.03-.344-.763-1.42-2.405-2.491-3.975-.598-.886-1.996-2.596-2.73-4.387-.769-1.9-.818-3.805-.83-4.789-.005-.062 0-.116 0-.157 0-1.673.322-3.116.767-4.473.468-1.407 1.874-3.578 3.983-4.877 2.16-1.317 3.827-2.381 4.497-2.8 1.845-1.133 3.22-5.15 3.395-5.702.026-.061-.009-.022.064-.148.042-.012-.02-.117.323-.176.35.062.28.167.324.176.02.029.025.036.025.05.013.018.016.027.021.034.006.017.009.03.017.05l.054.15c.042.127.1.308.184.528.164.444.4 1.049.704 1.693.596 1.295 1.48 2.735 2.456 3.344.658.416 2.411 1.48 4.577 2.8 2.105 1.298 3.518 3.47 3.981 4.88.44 1.348.766 2.79.766 4.467v.143c-.014 1.002-.058 2.906-.83 4.807-.732 1.79-2.132 3.501-2.727 4.387-1.072 1.57-2.149 3.212-2.493 3.976-.543 1.184-1.485 2.586-2.255 6.029-.157.68-1.615 7.852-1.615 14.777 0 1.615.081 3.218.273 4.718.171 1.613 2.988 5.94 3 10.025 0 .46-.034.918-.117 1.374-.905 4.96-6.077 9.145-6.094 9.174l-.248.202zm.247-.3.248-.301-.248.302zm-.625-74.272c-.634 1.349-1.524 2.887-2.747 3.669-.666.422-2.334 1.487-4.503 2.81-1.907 1.152-3.264 3.25-3.653 4.454-.426 1.312-.73 2.658-.73 4.233 0 .047 0 .084.003.132.01.978.066 2.781.775 4.523.668 1.646 2.017 3.312 2.65 4.242 1.079 1.59 2.15 3.204 2.554 4.087.506 1.093 1.527 2.664 2.311 6.185.164.731 1.628 7.913 1.631 14.945 0 1.64-.083 3.272-.276 4.82-.295 2.012-3.087 6.151-3.073 9.949 0 .41.031.814.102 1.215.4 2.254 1.848 4.455 3.213 6.068 1.001 1.185 1.934 2.047 2.368 2.428a24.449 24.449 0 0 0 2.369-2.428c1.363-1.613 2.811-3.814 3.21-6.068.074-.407.105-.82.105-1.24.011-3.794-2.706-7.922-2.994-9.924-.199-1.544-.279-3.178-.279-4.82.006-7.034 1.467-14.214 1.63-14.945.787-3.521 1.808-5.092 2.31-6.185.41-.883 1.477-2.498 2.557-4.087.635-.93 1.983-2.597 2.65-4.242.71-1.74.767-3.544.775-4.518v-.14c-.002-1.578-.303-2.92-.73-4.23-.38-1.203-1.74-3.302-3.648-4.455-2.163-1.322-3.913-2.381-4.583-2.81-1.198-.764-2.072-2.25-2.705-3.572a23.15 23.15 0 0 1 -.67-1.57 18.83 18.83 0 0 1 -.622 1.474z"/><path d="m856.42 366.749-2.46-3.409h-17.971l-2.47 3.409 2.47 3.395h17.97l2.46-3.395z" fill="#fed100"/><path d="m835.79 370.53-2.753-3.781 2.754-3.796h18.367l2.578 3.57-.317.226.317-.226.163.226-2.741 3.78h-18.368zm-1.79-3.781 2.188 3.008h17.574l2.177-3.008-2.177-3.022h-17.574l-2.188 3.023z"/></svg>