<?xml version="1.0" encoding="utf-8"?>
<!-- Generator: Adobe Illustrator 15.0.0, SVG Export Plug-In . SVG Version: 6.00 Build 0)  -->
<!DOCTYPE svg PUBLIC "-//W3C//DTD SVG 1.1//EN" "http://www.w3.org/Graphics/SVG/1.1/DTD/svg11.dtd">
<svg version="1.1" xmlns="http://www.w3.org/2000/svg" xmlns:xlink="http://www.w3.org/1999/xlink" x="0px" y="0px" width="4000px"
	 height="2400px" viewBox="0 0 4000 2400" enable-background="new 0 0 4000 2400" xml:space="preserve">
<metadata><?xpacket begin="﻿" id="W5M0MpCehiHzreSzNTczkc9d"?>
<x:xmpmeta xmlns:x="adobe:ns:meta/" x:xmptk="Adobe XMP Core 5.0-c060 61.134777, 2010/02/12-17:32:00        ">
   <rdf:RDF xmlns:rdf="http://www.w3.org/1999/02/22-rdf-syntax-ns#">
      <rdf:Description rdf:about=""
            xmlns:xmp="http://ns.adobe.com/xap/1.0/"
            xmlns:xmpGImg="http://ns.adobe.com/xap/1.0/g/img/">
         <xmp:CreatorTool>Adobe Illustrator CS5</xmp:CreatorTool>
         <xmp:CreateDate>2013-03-20T12:23:26-04:00</xmp:CreateDate>
         <xmp:Thumbnails>
            <rdf:Alt>
               <rdf:li rdf:parseType="Resource">
                  <xmpGImg:width>256</xmpGImg:width>
                  <xmpGImg:height>156</xmpGImg:height>
                  <xmpGImg:format>JPEG</xmpGImg:format>
                  <xmpGImg:image>/9j/4AAQSkZJRgABAgEASABIAAD/7QAsUGhvdG9zaG9wIDMuMAA4QklNA+0AAAAAABAASAAAAAEA&#xA;AQBIAAAAAQAB/+4ADkFkb2JlAGTAAAAAAf/bAIQABgQEBAUEBgUFBgkGBQYJCwgGBggLDAoKCwoK&#xA;DBAMDAwMDAwQDA4PEA8ODBMTFBQTExwbGxscHx8fHx8fHx8fHwEHBwcNDA0YEBAYGhURFRofHx8f&#xA;Hx8fHx8fHx8fHx8fHx8fHx8fHx8fHx8fHx8fHx8fHx8fHx8fHx8fHx8fHx8f/8AAEQgAnAEAAwER&#xA;AAIRAQMRAf/EAaIAAAAHAQEBAQEAAAAAAAAAAAQFAwIGAQAHCAkKCwEAAgIDAQEBAQEAAAAAAAAA&#xA;AQACAwQFBgcICQoLEAACAQMDAgQCBgcDBAIGAnMBAgMRBAAFIRIxQVEGE2EicYEUMpGhBxWxQiPB&#xA;UtHhMxZi8CRygvElQzRTkqKyY3PCNUQnk6OzNhdUZHTD0uIIJoMJChgZhJRFRqS0VtNVKBry4/PE&#xA;1OT0ZXWFlaW1xdXl9WZ2hpamtsbW5vY3R1dnd4eXp7fH1+f3OEhYaHiImKi4yNjo+Ck5SVlpeYmZ&#xA;qbnJ2en5KjpKWmp6ipqqusra6voRAAICAQIDBQUEBQYECAMDbQEAAhEDBCESMUEFURNhIgZxgZEy&#xA;obHwFMHR4SNCFVJicvEzJDRDghaSUyWiY7LCB3PSNeJEgxdUkwgJChgZJjZFGidkdFU38qOzwygp&#xA;0+PzhJSktMTU5PRldYWVpbXF1eX1RlZmdoaWprbG1ub2R1dnd4eXp7fH1+f3OEhYaHiImKi4yNjo&#xA;+DlJWWl5iZmpucnZ6fkqOkpaanqKmqq6ytrq+v/aAAwDAQACEQMRAD8A4zoPlPzPr7ldE0q71EIy&#xA;pK9tBJKkZf7PqMisE+nOpnkjHmQHSRgZcgnn5h/lh5l8n61qUE1hdyaNaTcLfWGgkFvJHJQx/vuI&#xA;j5UYAgH7VRleDURyAbi+5nkxGJPc9R8h/ll+VGp+T9Kv9V83x2Oo3EAe5tDd2cZjep+HhJ8Q+nOd&#xA;1sI+LLfq992X2rrcemhGGIyiBseGW6ff8qg/JT/qeov+k6w/pmLwR73P/lnX/wCoH/Szd/yqD8lP&#xA;+p6i/wCk6w/pjwR71/lnX/6gf9LN3/KoPyU/6nqL/pOsP6Y8Ee9f5Z1/+oH/AEs3f8qg/JT/AKnq&#xA;L/pOsP6Y8Ee9f5Z1/wDqB/0s3f8AKoPyU/6nqL/pOsP6Y8Ee9f5Z1/8AqB/0s3y9nZvlrsVdirsV&#xA;dirsVdirsVdirsVdirsVdirsVdirsVdirsVdirsVdirsVV7aznuGpGu3dzsBmPqNVDEPUfh1dn2b&#xA;2RqNZKscdusj9I+P6BunNppcEFGb95J/Meg+QzntV2jPLsPTF9K7J9mdPpKlL95k7zyHuH6eaL/L&#xA;PzjF5P8ANtvr8ouJUtI5Stpbv6fru0ZWOOV67RcyGbZun2c6PUYvEjwvk2KfDK01/Nb805fzBOkX&#xA;lzDJaX1lDJBd2iOWsyefJJoVZiyu4Yq9R+yu57Q02n8Kx0+1lmy8dPQ/IcH/ADjw3k/Sj5huZE1o&#xA;wD68oF/QSVNf7pCn/A5z+t4PFlfe972XLtP8tDwgPDrb6P0m0++rf84s/wDLXL92p/8ANGYvoc/i&#xA;7Y7h/sP1u+rf84s/8tcv3an/AM0Y+heLtjuH+w/W76t/ziz/AMtcv3an/wA0Y+heLtjuH+w/W76t&#xA;/wA4s/8ALXL92p/80Y+heLtjuH+w/W76t/ziz/y1y/dqf/NGPoXi7Y7h/sP1vl7OzfLXYq7FXYq7&#xA;FXYq7FXYq7FXYq7FXYq7FXYq7FXYq7FXYq7FXYquSN5GCIpZj0AyM5iIsmg24ME8shCAMpHoE1tN&#xA;GAo9yan/AH2P4nNHqu1umP5vfdk+xwFT1Jv+gP0n9A+aaKqqoVQFUdANhmllIyNncvd48UccRGIE&#xA;YjoF2Bm9g/xT/wA40f8AUl3f/IuP/srzYfyhPvL57/oQzd+P7f8AiXf4p/5xo/6ku7/5Fx/9leP8&#xA;oT7yv+hDN34/t/4lMIPzH/5x7ghSGPybMI0FF5Wlqxp/rNcEnMeeUSNnm5+LsXtDHERjlAiOQEpf&#xA;8Sqf8rO/5x//AOpNl/6QrP8A6r5Hjj3Nn8ldpf6sP9NL/iXf8rO/5x//AOpNl/6QrP8A6r48ce5f&#xA;5K7S/wBWH+ml/wAS7/lZ3/OP/wD1Jsv/AEhWf/VfHjj3L/JXaX+rD/TS/wCJd/ys7/nH/wD6k2X/&#xA;AKQrP/qvjxx7l/krtL/Vh/ppf8S7/lZ3/OP/AP1Jsv8A0hWf/VfHjj3L/JXaX+rD/TS/4l8vZ2b5&#xA;a7FXYq7FXYq7FXYq7FXYq7FXYq7FXYq7FXYq7FXYq7FXYqj7TSZ5qNJ+7j9+p+QzW6rtOGPaPql9&#xA;j1XZPsrn1NSyfu8f+yPuH6T9qcW9rBbrxiWnie5+Zzn8+pnlNyL6RoOzMGkjw4o13nqfefwFbKHP&#xA;dirsVfRn/K6Nf/8ALZ3X3yf9keX+Ie54f+Q8f/KTH7P+Ld/yujX/APy2d198n/ZHj4h7l/kPH/yk&#xA;x+z/AIt3/K6Nf/8ALZ3X3yf9kePiHuX+Q8f/ACkx+z/i3f8AK6Nf/wDLZ3X3yf8AZHj4h7l/kPH/&#xA;AMpMfs/4t3/K6Nf/APLZ3X3yf9kePiHuX+Q8f/KTH7P+Ld/yujX/APy2d198n/ZHj4h7l/kPH/yk&#xA;x+z/AIt3/K6Nf/8ALZ3X3yf9kePiHuX+Q8f/ACkx+z/i3f8AK6Nf/wDLZ3X3yf8AZHj4h7l/kPH/&#xA;AMpMfs/4t8jZ2T5s7FXYq7FXYq7FXYq7FXYq7FXYq7FXYq7FXYq7FXYqr21nPcNSNdu7nYDMfUaq&#xA;GIeo/Dq7Ps3sjUayVY47dZH6R8f0DdObTS4IKM37yT+Y9B8hnPartGeXYemL6V2T7M6fSVKX7zJ3&#xA;nkPcP080bmvekdirsVdirsVeq/8AQ1nnD/lm0j/kVc/9lGbD8tn/AJrwP5Xsn/Vz8x/xLv8Aoazz&#xA;h/yzaR/yKuf+yjH8tn/mr+V7J/1c/Mf8S7/oazzh/wAs2kf8irn/ALKMfy2f+av5Xsn/AFc/Mf8A&#xA;Eu/6Gs84f8s2kf8AIq5/7KMfy2f+av5Xsn/Vz8x/xLv+hrPOH/LNpH/Iq5/7KMfy2f8Amr+V7J/1&#xA;c/Mf8S7/AKGs84f8s2kf8irn/sox/LZ/5q/leyf9XPzH/Eu/6Gs84f8ALNpH/Iq5/wCyjH8tn/mr&#xA;+V7J/wBXPzH/ABLv+hrPOH/LNpH/ACKuf+yjH8tn/mr+V7J/1c/Mf8S+fc6l88dirsVdirsVdirs&#xA;VdirsVdirsVdirsVdirsVXJG8jBEUsx6AZGcxEWTQbcGCeWQhAGUj0Ca2mjAUe5NT/vsfxOaPVdr&#xA;dMfze+7J9jgKnqTf9AfpP6B800VVVQqgKo6AbDNLKRkbO5e7x4o44iMQIxHQLsDN2KuxV2KuxV2K&#xA;sSzuX5+dirsVdirsVdirsVdirsVdirsVdirsVTvyz5O1/wAyXJh0u3LohpNcv8MMdf5n/gKn2xJY&#xA;ymBzetaD+RGg2yK+s3Mt/PQcooz6MIPcbfGfnyHyyBk0SzHoyy3/AC58jQJwTRbYjxkX1D97ljgs&#xA;tfiS73XH5c+Rp04PotsB4xr6Z+9Cpxsr4ku9ievfkRoNyjPo1zLYT0PGKQ+tCT2G/wAY+fI/LCJN&#xA;kcx6vJfM3k7X/LdyIdUtyiOaQ3KfFDJT+V/4Gh9smC3xmDySTFk7FXYqj7TSZ5qNJ+7j9+p+QzW6&#xA;rtOGPaPql9j1XZPsrn1NSyfu8f8Asj7h+k/anFvawW68Ylp4nufmc5/PqZ5Tci+kaDszBpI8OKNd&#xA;56n3n8BWyhz3Yq7FXYq7FXYq7FXYqxLO5fn52KuxV2KuxV2KuxV2KuxV2KuxV2Ksw/LnyDceatRL&#xA;S8otJtSPrc42ZidxHHUH4j38B9GAmmvJPhD27V9T0/yhpVtaafYUhoUgjQcYlI/nberHr4nNL2t2&#xA;p+UiDwmRl8vif0Ouz5+HfmkFp+aF8gb63ZRzEmqmNzFQeBqJK5z2H2qyD64CXuNfrcSOsPUI3T/z&#xA;OtpbkJe2ht4WNPVRvU4/6y8V2+WZen9qYSlWSHDHvBv9DOOsBO4ZrFLHLGssTB43AZHU1BB3BBzq&#xA;oTEgCDYLmg2vySoXUtMsNTspbK/gS4tZhxkicVB9x4EdiNxikGnzr+YvkC58qaiGiLTaTck/VJ23&#xA;YEbmOSgA5Dt4j6csBty8c+IMWtrOe4aka7d3OwGUajVQxD1H4dXb9m9kajWSrHHbrI/SPj+gbpza&#xA;aXBBRm/eSfzHoPkM57Vdozy7D0xfSuyfZnT6SpS/eZO88h7h+nmjc170jsVdirsVdirsVdirsVdi&#xA;rsVYlncvz87FXYq7FXYq7FXYq7FXYq7FXYqr2VncXt5BZ2y87i5kWKFPF3IVR95xUmn0xBp0PlHy&#xA;YLWweKOSzi5epINpZurkioJLmtPozW9o6g4sMpxIEgNr+74utz5DRLFZPzE1Ge1kt7yytblXHwh1&#xA;PGvUFlJYGn0ZxsvaTLOBjOEJX5fodedUSKIBY9rN+l/Dbrb2kNjLE/OWSEMBJ7FSdh7Zrc2thMAe&#xA;HGPfXVytFrsWIy8TGJiQ+1P/AC95h8uw3Z/SGlQQq2yzxh5Av+skjSfePuzZdm9paWM/3mKMfMWa&#xA;+BJ+YcXFlgDuHpVjdWd1bJNZyJJbkURo6cdtqbdKeGdzgywyQEsZBj5OxjIEbK+XJdiqWeZNBste&#xA;0e40y7QNHMvwMf2JBujingcjIEg0aLfpskYZIykOKIIsd46h8/XFnJZXEtpKnpyW7tG6DsyGhGch&#xA;k4uI8XN+gtIcZxROIAYyAY1tsVmQch2KuxV2KuxV2KuxV2KuxV2KuxViWdy/PzsVdirsVdirsVdi&#xA;rsVdirsVdirPvyU0tL3zqk7iq2EElwK9OZpEv/Jyv0YJcmrMai931fRdP1a2+r3qFlU1RlJVlalK&#xA;j+3MDWaHHqYcOQfscHJjExRecazpHlTTbk25vrm4kAJIgWJwpr9lmLLvnDa3R6PBPh45yP8AR4TX&#xA;kdw67JjxxNWUiP1D9KRFfUGl819YPQzFK/EQVotae2a2JweINpeHfldM8UtPREhO+hBFfLh/SyNb&#xA;r8vK8EsL2Z60Xf7R7dJB+rNuMvZnIY8hP3/7JHFh7iz/AMvw2kelQm1szYxSjn9XYfECdqtXckgD&#xA;rnY9nQhHCOCHhg711+LnYgOHYUhPMnmRtD9GSS1M9tNyX1FahWQbhSCKUYZj9p9pnSUTHijLz6/t&#xA;Y5s3B02YpY/mPffpb1b1ANPccTBGKmMV2YE7sfHOd0/tNk8a8g/dnoOnn5+bix1Z4t+TOtL1jTtU&#xA;gaaxl9WNG4MeLLRqVpRgPHOu0usxaiPFjNge/wDS5sMgkLDyT809PW180tMgot5Ekx8OQrGf+IVz&#xA;S9p4+HLfeH2b2K1Ry6ERP+TkY/D6v0sQzXvXOxV2KuxV2KuxV2KuxV2KuxV2KsSzuX5+dirsVdir&#xA;sVdirsVdirsVdirsVes/84/Kn6S1hifjEMQVfEF2qfwGRk0Z+Qe1EV2PTIOMxDUvIXlt7lpPrLWZ&#xA;k+IQh0CD/VDCtPpzmdT7P6UzJ4jC+livhbiS00L50880fTbm683/AOHbqRUPqTRm4QV2iRnDAV3D&#xA;BfxznsPZQnqPBJrc7+4W7/Wdg4BpvGxykNhzo86Hk9W0zy/oPly1kuiQDGpaa9nIqF70PRR8s7LR&#xA;9mYNHEyHPrI/jZ1Gn0u4ERcilug/mXousa3JpiK0AY0sp5DQTEdRSnwE/sg9fntkdL2xjzZTAbdx&#xA;7/1eTutV2Plw4hM7947v1+ah598vateKb+G4ae3gWpsyKcABuyU+1713zWe0HZubKPEjLijH+Hu8&#xA;x3/e85qcMpbjfyYJ5d0vUPMF7Jb6fGPShFZrmQlY1r9kbBj8VNs5vRdk5dQajW3fyc3N2FPFhE8k&#xA;hGcuUf1no9f8vaSNK0mCzIT1VFZmjBoznq2+5z0Ds7Sfl8MYbX1rqWrFDhjTz785FX69prA/GYpA&#xA;R7BhT9ZzA7X+qL6p/wAD8nwso6cUfuLzvNQ+guxV2KuxV2KuxV2KuxV2KuxV2KsSzuX5+dirsVdi&#xA;rsVdirsVdirsVdirsVej/kVqKW/m6a0c0F7ausY8XjYSD/hA2Rk05hszX8wfzGuNOvn0fSxxliA+&#xA;t3PQgsKhE+g7nOW7Z7UnEnFjPCep/QP1uy0fYhz4uMy4b5dXn36dSZy9xzMjGrOTzJPuTvnGzwyJ&#xA;smy4Wo9k843hKM/fsf0/e3o3mH9GeZ7fWBH6iQNRk7lChianvxO2bLQZzgyRnz4f7Hp8HZpGiGCR&#xA;9VfbfF970HzZ588l6z5durQSvJcNGXto2jkWkwU8KkbbE+NM6TXdp6bNhMb3rbY83WaHszU4cwlW&#xA;177jk858rSaXH5gsn1UhbBXrMx5UHwnifg+L7VM53RHGM0Tk+jq9FrRkOGQx/X0eqeZ/zK8tJo95&#xA;Dp959ZvpYmjhWNHoGcFeRZgF+Hr1zqdb2xhGOQhK5Ebc3ltF2PmOSJnGog78nmPl7VbmzSRILp7Z&#xA;i3KsbmMmop2I8M4iebLA3CUo+4kfcx9qdNllOE4CRFVte34t6j5Qg87LdxveyM2nOC0huHEpO23D&#xA;4mcH8M6jsfH2gJg5CfD68Rv5b3+h5rDHKJerl5sU/Nq9WbzHFbKai1gVXHg7kv8A8RK5k9qzvJXc&#xA;H2j2F05hozM/xzPyG332wnNY9o7FXYq7FXYq7FXYq7FXYq7FXYqxLO5fn52KuxV2KuxV2KuxV2Ku&#xA;xV2KuxVH6Dq8+j6zZ6pBvJaSrJxrTkAfiX/ZLUYlEhYp9Gf4P8k+YEXWjZ+udQVZ/W9WZCeYHVQ4&#xA;APiKZqcnZmnySMjGyfM/rbI9o6rAPDvh4elD9IWxflf5KjbkbEv4BppafgwyuPYumH8P2n9bKXbW&#xA;pP8AF9g/Ur/8q68l/wDVrT/g5P8AmrLP5J038z7/ANbD+VtT/P8Au/Uozflj5LlYN9QMdBSiSygf&#xA;8SyEuxtMf4ftLKPbOpH8X2BT/wCVV+S/+WR/+R0n/NWR/kTTfzftLL+W9T/O+wO/5VX5L/5ZH/5H&#xA;S/8ANWP8iab+b9pX+W9T/O+wIr/lXXkv/q1p/wAHL/zVlv8AJOm/mff+tr/lbU/z/u/UirXRvLXl&#xA;m2ur61tktI1jLXEgLMSqb0HIn7h1y3HpsOnBlEcPexGTUazJHHfFImh8Xhur6lLqep3N/Ls9zIz8&#xA;etAT8K/7EbZzeXIZyMj1fdtBpI6bBDFHlCNfrPxO6Eyty3Yq7FXYq7FXYq7FXYq7FXYq7FWJZ3L8&#xA;/OxV2KuxV2KuxV2KuxV2KuxVXtrOe4aka7d3OwGY+o1UMQ9R+HV2fZvZGo1kqxx26yP0j4/oG6c2&#xA;mlwQUZv3kn8x6D5DOe1XaM8uw9MX0rsn2Z0+kqUv3mTvPIe4fp5vR/y587Jpcn6K1F+OnytWCU9I&#xA;nY7g/wCQ34H6cs7P1nB6JfT9zq/a32dOpHj4R+9iPUP5w/4ofaPcHrgIIBBqDuCM6B8nIpvFDsVd&#xA;irsVaJABJNANyTikC3kf5jedk1ST9Fac/Kwias8o6SuDsB4ov4n6M5/tDWcZ4I/T976x7Jezp0w8&#xA;fMP3suQ/mj9Z+wfFguat7h2KuxV2KuxV2KuxV2KuxV2KuxV2KsSzuX5+dirsVdirsVdirsVdiq5I&#xA;3kYIilmPQDIzmIiyaDbgwTyyEIAykegTW00YCj3Jqf8AfY/ic0eq7W6Y/m992T7HAVPUm/6A/Sf0&#xA;D5poqqqhVAVR0A2GaWUjI2dy93jxRxxEYgRiOgXYGbsVZZ5V/MPVNEVbWcfXNOXZYmNHjH/Fbb7f&#xA;5J2+WZ+l18sex3i8r237KYNYTOP7vL39D/WH6efvemaR568s6oq+leJBKf8AdFwRE9fD4jxb/Yk5&#xA;usWtxT5Gve+ba/2a1umPqgZR/nR9Q/WPiAnwIYAqag9CMy3REVzcSFBLGgHUnFQL5JDq/nryzpat&#xA;6t4k8o/3RbkSvXw+E8V/2RGYmXW4oczfud7oPZrW6k+mBjH+dL0j9Z+ALzPzV+Yeqa2rWsA+p6c2&#xA;zRKavIP+LG22/wAkbfPNLqtfLJsNovpPYnspg0ZE5fvMvf0H9Ufp5+5ieYD1TsVdirsVdirsVdir&#xA;sVdirsVdirsVdirEs7l+fnYq7FXYq7FXYq7FUfaaTPNRpP3cfv1PyGa3Vdpwx7R9Uvseq7J9lc+p&#xA;qWT93j/2R9w/SftTi3tYLdeMS08T3PzOc/n1M8puRfSNB2Zg0keHFGu89T7z+ArZQ57sVdirsVdi&#xA;rsVVIbq5h/uZXir14MV/VhEiORa8mGE/qiD7w6a6uZv76V5adObFv14mRPMrjwwh9MQPcFPA2OxV&#xA;2KuxV2KuxV2KuxV2KuxV2KuxV2KuxV2KsSzuX5+dirsVdirsVV7aznuGpGu3dzsBmPqNVDEPUfh1&#xA;dn2b2RqNZKscdusj9I+P6BunNppcEFGb95J/Meg+QzntV2jPLsPTF9K7J9mdPpKlL95k7zyHuH6e&#xA;aNzXvSOxV2KuxV2KuxV2KuxV2KuxV2KuxV2KuxV2KuxV2KuxV2KuxV2KuxV2KuxV2KsSzuX5+dir&#xA;sVXJG8jBEUsx6AZGcxEWTQbcGCeWQhAGUj0Ca2mjAUe5NT/vsfxOaPVdrdMfze+7J9jgKnqTf9Af&#xA;pP6B800VVVQqgKo6AbDNLKRkbO5e7x4o44iMQIxHQLsDN2KuxV2KuxV2KuxV2KuxV2KuxV2KuxV2&#xA;KuxV2KuxV2KuxV2KuxV2KuxV2KuxV2KsSzuX5+diqPtNJnmo0n7uP36n5DNbqu04Y9o+qX2PVdk+&#xA;yufU1LJ+7x/7I+4fpP2pxb2sFuvGJaeJ7n5nOfz6meU3IvpGg7MwaSPDijXeep95/AVsoc92KuxV&#xA;2KuxV2KuxV2KuxV2KuxV2KuxV2KuxV2KuxV2KuxV2KuxV2KuxV2KuxV2KuxV2KsZtrOe4aka7d3O&#xA;wGdjqNVDEPUfh1fEezeyNRrJVjjt1kfpHx/QN05tNLggozfvJP5j0HyGc9qu0Z5dh6YvpXZPszp9&#xA;JUpfvMneeQ9w/TzRua96R2KuxV2KuxV2KuxV2KuxV2KuxV2KuxV2KuxV2KuxV2KuxV2KuxV2KuxV&#xA;2KuxV2KuxV2KuxV2KvfI/wDoVDgPT4cP2eP6Wp9FMzMn1Hi+rzfP9N/KXhjwvo6cPBXwpd/1ip7f&#xA;9zfIenybv9d/6X+xd/1ip7f9zfH0+S/67/0v9i7/AKxU9v8Aub4+nyX/AF3/AKX+xd/1ip7f9zfH&#xA;0+S/67/0v9i7/rFT2/7m+Pp8l/13/pf7F3/WKnt/3N8fT5L/AK7/ANL/AGLv+sVPb/ub4+nyX/Xf&#xA;+l/sXf8AWKnt/wBzfH0+S/67/wBL/Yu/6xU9v+5vj6fJf9d/6X+xd/1ip7f9zfH0+S/67/0v9i7/&#xA;AKxU9v8Aub4+nyX/AF3/AKX+xd/1ip7f9zfH0+S/67/0v9i7/rFT2/7m+Pp8l/13/pf7F3/WKnt/&#xA;3N8fT5L/AK7/ANL/AGLv+sVPb/ub4+nyX/Xf+l/sXf8AWKnt/wBzfH0+S/67/wBL/Yu/6xU9v+5v&#xA;j6fJf9d/6X+xd/1ip7f9zfH0+S/67/0v9i7/AKxU9v8Aub4+nyX/AF3/AKX+xd/1ip7f9zfH0+S/&#xA;67/0v9i7/rFT2/7m+Pp8l/13/pf7F3/WKnt/3N8fT5L/AK7/ANL/AGLv+sVPb/ub4+nyX/Xf+l/s&#xA;Xf8AWKnt/wBzfH0+S/67/wBL/Yu/6xU9v+5vj6fJf9d/6X+xd/1ip7f9zfH0+S/67/0v9i7/AKxU&#xA;9v8Aub4+nyX/AF3/AKX+xd/1ip7f9zfH0+S/67/0v9i7/rFT2/7m+Pp8l/13/pf7F3/WKnt/3N8f&#xA;T5L/AK7/ANL/AGLv+sVPb/ub4+nyX/Xf+l/sX//Z</xmpGImg:image>
               </rdf:li>
            </rdf:Alt>
         </xmp:Thumbnails>
      </rdf:Description>
      <rdf:Description rdf:about=""
            xmlns:xmpTPg="http://ns.adobe.com/xap/1.0/t/pg/"
            xmlns:stDim="http://ns.adobe.com/xap/1.0/sType/Dimensions#"
            xmlns:xmpG="http://ns.adobe.com/xap/1.0/g/">
         <xmpTPg:MaxPageSize rdf:parseType="Resource">
            <stDim:w>4000.000000</stDim:w>
            <stDim:h>2400.000000</stDim:h>
            <stDim:unit>Pixels</stDim:unit>
         </xmpTPg:MaxPageSize>
         <xmpTPg:NPages>1</xmpTPg:NPages>
         <xmpTPg:HasVisibleTransparency>False</xmpTPg:HasVisibleTransparency>
         <xmpTPg:HasVisibleOverprint>False</xmpTPg:HasVisibleOverprint>
         <xmpTPg:PlateNames>
            <rdf:Seq>
               <rdf:li>Cyan</rdf:li>
               <rdf:li>Magenta</rdf:li>
               <rdf:li>Yellow</rdf:li>
               <rdf:li>Black</rdf:li>
            </rdf:Seq>
         </xmpTPg:PlateNames>
         <xmpTPg:SwatchGroups>
            <rdf:Seq>
               <rdf:li rdf:parseType="Resource">
                  <xmpG:groupName>Default Swatch Group</xmpG:groupName>
                  <xmpG:groupType>0</xmpG:groupType>
               </rdf:li>
            </rdf:Seq>
         </xmpTPg:SwatchGroups>
      </rdf:Description>
      <rdf:Description rdf:about=""
            xmlns:dc="http://purl.org/dc/elements/1.1/">
         <dc:format>image/svg+xml</dc:format>
      </rdf:Description>
   </rdf:RDF>
</x:xmpmeta>
                                                                                                    
                                                                                                    
                                                                                                    
                                                                                                    
                                                                                                    
                                                                                                    
                                                                                                    
                                                                                                    
                                                                                                    
                                                                                                    
                                                                                                    
                                                                                                    
                                                                                                    
                                                                                                    
                                                                                                    
                                                                                                    
                                                                                                    
                                                                                                    
                                                                                                    
                                                                                                    
                           
<?xpacket end="w"?>
	</metadata>
<g id="svg2" inkscape:version="0.48.2 r9819" sodipodi:docname="AJAX1.svg" xmlns:dc="http://purl.org/dc/elements/1.1/" xmlns:cc="http://creativecommons.org/ns#" xmlns:rdf="http://www.w3.org/1999/02/22-rdf-syntax-ns#" xmlns:svg="http://www.w3.org/2000/svg" xmlns:sodipodi="http://sodipodi.sourceforge.net/DTD/sodipodi-0.dtd" xmlns:inkscape="http://www.inkscape.org/namespaces/inkscape">
	
		<sodipodi:namedview  id="namedview23" inkscape:window-height="1004" inkscape:window-width="1280" inkscape:pageshadow="2" inkscape:pageopacity="0" inkscape:cy="577.18969" inkscape:cx="43.475725" bordercolor="#666666" inkscape:zoom="0.14122807" pagecolor="#ffffff" guidetolerance="10" gridtolerance="10" fit-margin-left="0" objecttolerance="10" borderopacity="1" fit-margin-top="0" showgrid="false" inkscape:current-layer="svg2" inkscape:window-y="-8" inkscape:window-x="-8" fit-margin-bottom="0" fit-margin-right="0" inkscape:window-maximized="1">
		</sodipodi:namedview>
	<path id="path3778" sodipodi:nodetypes="ccccc" inkscape:connector-curvature="0" fill="#002868" d="M0,0h4000v2400H0V0z"/>
	<path id="path3042" sodipodi:nodetypes="ccccc" inkscape:connector-curvature="0" fill="#BF0A30" d="M0,0h1000v600H0V0z"/>
	<path id="path3044" sodipodi:nodetypes="ccccccccccccccccccccccccc" inkscape:connector-curvature="0" fill="#FFFFFF" d="M0,54.545
		v54.545h1000V54.545H0z M0,163.636v54.545h1000v-54.545H0z M0,272.728v54.545h1000v-54.545H0z M0,381.818v54.545h1000v-54.545H0z
		 M0,490.909v54.545h1000v-54.545H0z"/>
	<path id="path3046" inkscape:connector-curvature="0" fill="#002868" d="M0,0h272.727v272.728H0V0z"/>
	<g id="g3048" transform="matrix(15,0,0,15,24.999993,25)">
		<g id="g3050">
			<polygon id="polygon3052" fill="#FFFFFF" points="7.424,1.97 5.739,7.157 8.332,8 			"/>
			<polygon id="polygon3054" fill="#FFFFFF" points="6.516,8 7.424,1.97 9.11,7.157 			"/>
		</g>
		<g id="g3056" transform="matrix(0.30901699,0.95105652,-0.95105652,0.30901699,0,0)">
			<polygon id="polygon3058" fill="#FFFFFF" points="10.263,-4.191 9.355,-10.221 7.67,-5.034 			"/>
			<polygon id="polygon3060" fill="#FFFFFF" points="8.447,-4.191 9.355,-10.221 11.041,-5.034 			"/>
		</g>
		<g id="g3062" transform="matrix(0.30901699,-0.95105652,0.95105652,0.30901699,0,0)">
			<polygon id="polygon3064" fill="#FFFFFF" points="-3.858,9.931 -4.767,3.901 -6.452,9.088 			"/>
			<polygon id="polygon3066" fill="#FFFFFF" points="-5.675,9.931 -4.767,3.901 -3.081,9.088 			"/>
		</g>
		<g id="g3068" transform="matrix(-0.80901699,0.58778525,-0.58778525,-0.80901699,0,0)">
			<polygon id="polygon3070" fill="#FFFFFF" points="-0.734,-9.794 -1.642,-15.825 -3.328,-10.637 			"/>
			<polygon id="polygon3072" fill="#FFFFFF" points="-2.551,-9.794 -1.642,-15.825 0.043,-10.637 			"/>
		</g>
		<g id="g3074" transform="matrix(-0.80901699,-0.58778525,0.58778525,-0.80901699,0,0)">
			<polygon id="polygon3076" fill="#FFFFFF" points="-9.462,-1.067 -10.37,-7.097 -12.056,-1.909 			"/>
			<polygon id="polygon3078" fill="#FFFFFF" points="-11.278,-1.067 -10.37,-7.097 -8.685,-1.909 			"/>
		</g>
	</g>
	<path id="path3037" sodipodi:nodetypes="cccc" inkscape:connector-curvature="0" fill="#BF0A30" d="M4000,0v2400H0L4000,0z"/>
	<path id="path5931" sodipodi:nodetypes="sssssss" inkscape:connector-curvature="0" fill="#7FC6F2" d="M2000,644.651
		c-307.663,0-555.349,247.686-555.349,555.35l0,0c0,307.663,247.686,555.349,555.349,555.349
		c307.665,0,555.35-247.686,555.35-555.349l0,0C2555.35,892.336,2307.665,644.651,2000,644.651L2000,644.651z"/>
	<g id="trees">
		<path fill="#663300" d="M1527.834,1404.674l167.336,2.942l0.511-5.097l224.945-1.241l11.672,5.924l308.295,1.653l14.448-7.306
			l176.461-3.091c0,0,29.831-12.188,18.645-17.159s-62.851,2.2-86.851-21.8c-18.687-18.687-60-88-60-88s-6-25,16.307-47.063
			c18.789-18.583,39.805-32.318,39.805-32.318s-13.673-53.449-54.692-33.561s-53.449,42.263-53.449,62.15
			s-16.159,99.439-31.075,113.113c-16.391,15.025-52.207,12.916-73.338,16.646c-20.846,3.68-31.075,3.243-51.72-7.944l-0.486-68.365
			l23.649-0.158v-14.5l-72.5-74l-85.5,74.5v15.5l21,0.5l0.994,65.28l-91.497,2.486c0,0-50.963-32.318-49.72-70.852
			s-1.757-103.169-1.757-103.169l11.701-77.066l3.729-82.039l26.104-69.608c0,0-21.131-39.777-12.43-68.366
			s-49.72-21.131-49.72-21.131s6.214,65.879,1.243,90.739s-27.346,89.497-27.346,89.497s1.243,24.86-3.729,38.533
			s-45.547,62.669-50.519,80.072s11.815,25.112,20.872,42.578c11.688,22.542,17.532,43.413,19.202,62.615
			c0,0-1.669,64.284-20.629,71.038c-17.392-20.521-93.888-44.52-171.535-30.075c-21.131,11.188-48.437,36.658-55.935,62.15
			C1524.105,1379.814,1527.834,1404.674,1527.834,1404.674z"/>
		<path fill="#009900" d="M1573.907,1303.087c0,0,71.997-61.497,139.493-59.997c61.5,1.367,61.497,13.499,61.497,13.499
			s3,77.996-22.499,79.496S1636.903,1303.087,1573.907,1303.087z"/>
		<path fill="#009900" d="M1635.404,1118.596c10.499-3,19.499,0,28.499-7.5s6.5-29.999,21.499-29.999c0,0,71.496,0,78.996-4.5
			s19.5-7.5,26.999-13.5s25.499-4.5,32.998,4.5s19.499,9,26.999,9s16.499,16.5,22.499,13.5s12-10.5,23.999-10.5s67.497,6,86.996-1.5
			c0,0,29.999-19.499,38.998-7.5s-3,41.998-23.999,43.498s-56.997,26.999-71.996,37.498s-45.051,28.451-67.497,29.999
			c-43.498,3-59.431-26.208-97.835-15.354c-10.019,3.339-19.16,7.854-37.159,7.854s-50.998,0-65.997-9s-40.498-18-35.998-32.999
			S1624.905,1121.596,1635.404,1118.596z"/>
		<path fill="#009900" d="M1593.295,990.5c-7.486,2.994-27,15-24,25s38,15,45,23s39,17,70,16s99-6,109-7s53.076,0.105,68-6
			c22-9,104-7,122-9s48-15,57-19c9-4,1-20-18-30c-9.5-5-28.25-9.75-44.875-19.25s-31.125-23.75-40.125-27.75c0,0-25-15-44-14
			c0,0-19,7-26,17s-19,13-35,2s-10-20-10-20s-18,15-34,13s-17-14-37-14s-18,14-37,14s-37-11-60-13s-62-6-59,3s6,22,13,30
			S1613.295,982.5,1593.295,990.5z"/>
		<path fill="#009900" d="M1681.901,848.609c-3.254,14.642,32.998,31.499,44.998,38.998s44.998,10.5,59.997,10.5
			s35.733,1.393,35.066-4.607c-0.524-4.713-5.333-11.667-4.254-15.042c14.254,0.709,33.31,12.524,45.684,18.149
			c16.5,7.5,79.496,3,91.496,0c0,0-4.5-13.499,13.5-13.499s50.997,1.5,47.997-10.5s-69.997-63.997-96.995-63.997
			c0,0-88.996,14.499-115.994-2s-32.999-13.499-65.997,3S1684.901,835.11,1681.901,848.609z"/>
		<path fill="#009900" d="M2370.295,1364.5c0,0,7-21,26-20s53-1,68-20s12-26-15-39s-43-20-63-19c0,0-15,6-32,1s-52-8-52-8
			s-1.675,37.123,6,61c9,28,10.411,32.843,19,40C2339.295,1370.5,2370.295,1364.5,2370.295,1364.5z"/>
		<path fill="#009900" d="M2235.374,1075.098c11.953-1.839,43.499-23.999,53.998-32.999s16.5-19.499,20.999-14.999
			s19.499,34.498,34.498,43.498s20.998,19.499,28.498,22.499s49.498-7.5,50.998,6s-1.5,35.999-17.999,44.998s-12,20.999-12,20.999
			s15,19.499,7.5,23.999s-17.999,3-22.499,12c-4.5,9-22.498,9-28.498-1.5c-6-10.5-18-13.5-34.499-13.5s-61.496,29.999-65.996,47.998
			s-15-5.999-29.999-20.998c-14.999-15-29.999-29.999-41.998-31.499s-35.997,0-26.998-10.5s49.497-38.998,55.497-44.998
			s-2.999-25.499-13.499-32.999s-27-26.999-16.5-32.999S2215.875,1078.098,2235.374,1075.098z"/>
	</g>
</g>
<g id="Layer_2">
</g>
</svg>
