<svg xmlns:rdf="http://www.w3.org/1999/02/22-rdf-syntax-ns#" xmlns="http://www.w3.org/2000/svg" height="600" width="900" version="1.1" xmlns:cc="http://creativecommons.org/ns#" xmlns:dc="http://purl.org/dc/elements/1.1/" viewBox="0 0 150 100">
 <metadata>
  <rdf:RDF>
   <cc:Work rdf:about="">
    <dc:format>image/svg+xml</dc:format>
    <dc:type rdf:resource="http://purl.org/dc/dcmitype/StillImage"/>
    <dc:title/>
   </cc:Work>
  </rdf:RDF>
 </metadata>
 <g transform="matrix(2.7649769,0,0,2.7649769,0,-176.49768)">
  <path d="M0,63.833328h54.250016v36.166667h-54.250016z" fill="#ed2939"/>
  <g transform="matrix(0.9041666,0,0,0.9041666,-59.750338,6.4940938)">
   <path d="m68.083333,65.416666,11.166667,0,0,7.666667-11.166667,0z" fill="#FFF"/>
   <path d="m71.916667,65.749998,3.500002,0,0,7.000002-3.500002,0z" fill="#FFF"/>
   <path d="m68.416667,65.749998,3.5,0,0.000001,7.000002-3.500001,0z" fill="#002395"/>
   <path fill="#ed2939" d="m75.416667,65.749998,3.500001,0,0,7.000002-3.500001,0z"/>
  </g>
  <path fill="#000" d="m54.250016,63.833328,0,36.166667-54.250016,0z"/>
  <g transform="translate(-38.37504,143.08329)">
   <g transform="translate(9.0833738,-99.999971)">
    <g transform="translate(29.291667,-43.083322)">
     <path d="M17.00561,94.429361,30.007885,67.770748,29.391025,67.469886,16.454923,93.992782c0.176401,0.148499,0.382657,0.312322,0.550669,0.436571z" fill="#f5e105"/>
     <path fill="#f5e105" d="m37.244389,94.429361-13.002275-26.658613,0.61686-0.300862,12.936102,26.522896c-0.176401,0.148499-0.382657,0.312322-0.550669,0.436571z"/>
     <path d="m16.392638,93.941526,12.927859-26.506039,0.143934,0.0702-12.944906,26.54099z" fill="#000"/>
     <path d="M17.068709,94.477944,30.078001,67.804946,29.934067,67.734745,16.938815,94.378961z" fill="#000"/>
     <path fill="#000" d="m37.857361,93.941526-12.927859-26.506039-0.143934,0.0702,12.944906,26.54099z"/>
     <path fill="#000" d="m37.18129,94.477944-13.009292-26.672998,0.143934-0.0702,12.995252,26.644216z"/>
     <g stroke-linejoin="round" transform="matrix(0.60172484,-1.2337187,1.2337187,0.60172484,-11.062141,198.42325)" stroke="#000" stroke-linecap="butt" stroke-dasharray="none" stroke-miterlimit="4">
      <path d="m98.100003-16.02501,1.61338,0.94167-1.61338,0.94167-2.083343-0.941663z" stroke-width="0.25" fill="#f5e105"/>
      <path d="m96.14216-15.083333,1.95784-0.475,0.913333,0.474993l-0.913333,0.475007z" stroke-width="0.11666667" fill="none"/>
     </g>
     <g stroke-linejoin="round" transform="matrix(-0.60172484,-1.2337187,-1.2337187,0.60172484,65.31214,198.42325)" stroke="#000" stroke-linecap="butt" stroke-dasharray="none" stroke-miterlimit="4">
      <path d="m98.100003-16.02501,1.61338,0.94167-1.61338,0.94167-2.083343-0.941663z" stroke-width="0.25" fill="#f5e105"/>
      <path d="m96.14216-15.083333,1.95784-0.475,0.913333,0.474993l-0.913333,0.475007z" stroke-width="0.11666667" fill="none"/>
     </g>
     <g fill="#000">
      <path d="m18.354875,90.085864,1.830248-3.752565s0.05967,0.194544,0.245198,0.285032c0.185531,0.09049,0.375569,0.01774,0.375569,0.01774l-1.830248,3.752565z"/>
      <path d="m35.895124,90.085864-1.830248-3.752565s-0.05967,0.194544-0.245198,0.285032c-0.185531,0.09049-0.375569,0.01774-0.375569,0.01774l1.830248,3.752565z"/>
      <path d="m27.033255,71.521322c0.166161-0.340679,0.577034-0.482146,0.917716-0.315985,0.340683,0.166162,0.482163,0.577031,0.316003,0.91771-0.05006,0.102645-0.120596,0.185793-0.20643,0.249305-0.0059-0.248292-0.146733-0.485193-0.385351-0.601574-0.238616-0.116381-0.507716-0.07941-0.707006,0.0688-0.0028-0.106746,0.01504-0.215649,0.06508-0.318245z"/>
      <path d="m27.685856,70.183292c-0.166166,0.340692-0.02469,0.751561,0.315997,0.917722,0.340683,0.166162,0.751555,0.02469,0.917722-0.315997,0.05006-0.102645,0.07215-0.209404,0.06936-0.316145-0.1993,0.148201-0.472675,0.183088-0.711293,0.06671-0.238616-0.11638-0.375157-0.351197-0.381064-0.599484-0.08585,0.06351-0.160666,0.144609-0.210705,0.247205z"/>
      <path d="m18.087333,89.080289c-0.24924,0.511019-0.03703,1.12734,0.473993,1.376582,0.511021,0.249242,1.12734,0.03702,1.37658-0.473997,0.04675-0.09586,0.07524-0.195745,0.09061-0.29585-0.301116,0.316626-0.783273,0.417369-1.19688,0.21564-0.413664-0.201758-0.635973-0.646001-0.571768-1.078267-0.0694,0.07366-0.12581,0.160067-0.172546,0.255889z"/>
      <path d="m16.488953,92.357453c-0.24924,0.511019-0.03703,1.12734,0.473993,1.376582,0.511021,0.249242,1.12734,0.03702,1.37658-0.473997,0.04675-0.09586,0.07524-0.195745,0.09061-0.295838-0.30111,0.316614-0.783267,0.417357-1.196873,0.215628-0.413665-0.201758-0.635974-0.646001-0.571775-1.078255-0.0694,0.07366-0.12581,0.160067-0.17254,0.255877z"/>
      <path d="m20.175153,85.190993c-0.06255,0.128245-0.08593,0.263882-0.0824,0.397276,0.249104-0.185242,0.595953-0.250207,0.894223-0.104731s0.460617,0.458793,0.468008,0.769136c0.107275-0.07932,0.199778-0.181276,0.262327-0.309521,0.207703-0.425855,0.04026-0.958733-0.385591-1.166435-0.425853-0.207702-0.948854-0.01158-1.156557,0.414279z"/>
      <path d="m21.033917,83.430266c0.06255-0.128245,0.155046-0.230185,0.262333-0.309533,0.0074,0.310355,0.169733,0.623673,0.468003,0.769149s0.645118,0.08051,0.894228-0.104744c0.0035,0.13337-0.01986,0.269044-0.08241,0.397289-0.207704,0.425855-0.730705,0.621981-1.156557,0.414279-0.425853-0.207702-0.593295-0.74058-0.385592-1.166435z"/>
      <path d="m23.584929,78.199916c-0.06255,0.128257-0.08593,0.263894-0.08241,0.397289,0.24911-0.185254,0.595959-0.25022,0.894229-0.104744s0.460617,0.458793,0.468002,0.769149c0.107275-0.07932,0.199778-0.181276,0.262333-0.309534,0.207704-0.425855,0.04026-0.95872-0.385597-1.166423-0.425853-0.207702-0.948848-0.01159-1.156551,0.414267z"/>
      <path d="m24.443687,76.439202c0.06255-0.128257,0.155046-0.230185,0.262333-0.309533,0.0074,0.310355,0.169739,0.62366,0.468009,0.769136s0.645112,0.08052,0.894222-0.104732c0.0035,0.13337-0.01985,0.269032-0.08241,0.397289-0.207698,0.425843-0.730699,0.621969-1.156551,0.414267-0.425853-0.207702-0.593295-0.74058-0.385598-1.166423z"/>
      <path d="m25.289814,74.704384c-0.06255,0.128245-0.08593,0.263894-0.08241,0.397289,0.24911-0.185255,0.595959-0.25022,0.894229-0.104744s0.460617,0.458793,0.468002,0.769148c0.107275-0.07932,0.199784-0.181288,0.262333-0.309533,0.207704-0.425855,0.04026-0.958733-0.385591-1.166435-0.425853-0.207702-0.948854-0.01158-1.156557,0.414279z"/>
      <path d="m17.31696,91.051157c-0.06255,0.128245-0.08593,0.263894-0.08241,0.397288,0.24911-0.185254,0.595959-0.250219,0.894229-0.104743s0.460617,0.458793,0.468002,0.769148c0.107275-0.07932,0.199784-0.181288,0.262333-0.309533,0.207703-0.425855,0.04026-0.958733-0.385591-1.166435-0.425853-0.207703-0.948854-0.01158-1.156557,0.414279z"/>
      <path d="m23.776214,79.76476c0.369073,0.180009,0.522339,0.625123,0.342327,0.994203-0.180006,0.369067-0.625127,0.522343-0.9942,0.342334-0.369072-0.180008-0.522333-0.625135-0.342327-0.994202,0.180012-0.36908,0.625128-0.522343,0.9942-0.342335z"/>
      <path d="m23.036604,81.281186c0.369073,0.180009,0.522339,0.625123,0.342327,0.994202-0.180006,0.369067-0.625121,0.522331-0.994194,0.342322-0.369072-0.180008-0.522339-0.625123-0.342333-0.99419,0.180012-0.369079,0.625128-0.522343,0.9942-0.342334z"/>
      <path d="m37.761046,92.357453c0.24924,0.511019,0.03703,1.12734-0.473993,1.376582-0.511021,0.249242-1.12734,0.03702-1.37658-0.473997-0.04675-0.09586-0.07524-0.195745-0.09061-0.295838,0.30111,0.316614,0.783267,0.417357,1.196873,0.215628,0.413665-0.201758,0.635974-0.646001,0.571775-1.078255,0.0694,0.07366,0.12581,0.160067,0.17254,0.255877z"/>
      <path d="m36.933039,91.051157c0.06255,0.128245,0.08593,0.263894,0.08241,0.397288-0.24911-0.185254-0.595959-0.250219-0.894229-0.104743s-0.460617,0.458793-0.468002,0.769148c-0.107275-0.07932-0.199784-0.181288-0.262333-0.309533-0.207703-0.425855-0.04026-0.958733,0.385591-1.166435,0.425853-0.207703,0.948854-0.01158,1.156557,0.414279z"/>
      <path d="m36.162666,89.080289c0.24924,0.511019,0.03703,1.12734-0.473993,1.376582-0.511021,0.249242-1.12734,0.03702-1.37658-0.473997-0.04675-0.09586-0.07524-0.195745-0.09061-0.29585,0.301116,0.316626,0.783273,0.417369,1.19688,0.21564,0.413664-0.201758,0.635973-0.646001,0.571768-1.078267,0.06941,0.07366,0.12581,0.160067,0.172546,0.255889z"/>
      <path d="m34.074846,85.190993c0.06255,0.128245,0.08593,0.263882,0.0824,0.397276-0.249104-0.185242-0.595953-0.250207-0.894223-0.104731s-0.460617,0.458793-0.468008,0.769136c-0.107275-0.07932-0.199778-0.181276-0.262327-0.309521-0.207703-0.425855-0.04026-0.958733,0.385591-1.166435,0.425853-0.207702,0.948854-0.01158,1.156557,0.414279z"/>
      <path d="m33.216082,83.430266c-0.06255-0.128245-0.155046-0.230185-0.262333-0.309533-0.0074,0.310355-0.169733,0.623673-0.468003,0.769149s-0.645118,0.08051-0.894228-0.104744c-0.0035,0.13337,0.01986,0.269044,0.08241,0.397289,0.207704,0.425855,0.730705,0.621981,1.156557,0.414279,0.425853-0.207702,0.593295-0.74058,0.385592-1.166435z"/>
      <path d="m31.213395,81.281186c-0.369073,0.180009-0.522339,0.625123-0.342327,0.994202,0.180006,0.369067,0.625121,0.522331,0.994194,0.342322,0.369072-0.180008,0.522339-0.625123,0.342333-0.99419-0.180012-0.369079-0.625128-0.522343-0.9942-0.342334z"/>
      <path d="m30.473785,79.76476c-0.369073,0.180009-0.522339,0.625123-0.342327,0.994203,0.180006,0.369067,0.625127,0.522343,0.9942,0.342334,0.369072-0.180008,0.522333-0.625135,0.342327-0.994202-0.180012-0.36908-0.625128-0.522343-0.9942-0.342335z"/>
      <path d="m30.66507,78.199916c0.06255,0.128257,0.08593,0.263894,0.08241,0.397289-0.24911-0.185254-0.595959-0.25022-0.894229-0.104744s-0.460617,0.458793-0.468002,0.769149c-0.107275-0.07932-0.199778-0.181276-0.262333-0.309534-0.207704-0.425855-0.04026-0.95872,0.385597-1.166423,0.425853-0.207702,0.948848-0.01159,1.156551,0.414267z"/>
      <path d="m29.806312,76.439202c-0.06255-0.128257-0.155046-0.230185-0.262333-0.309533-0.0074,0.310355-0.169739,0.62366-0.468009,0.769136s-0.645112,0.08052-0.894222-0.104732c-0.0035,0.13337,0.01985,0.269032,0.08241,0.397289,0.207698,0.425843,0.730699,0.621969,1.156551,0.414267,0.425853-0.207702,0.593295-0.74058,0.385598-1.166423z"/>
      <path d="m28.960185,74.704384c0.06255,0.128245,0.08593,0.263894,0.08241,0.397289-0.24911-0.185255-0.595959-0.25022-0.894229-0.104744s-0.460617,0.458793-0.468002,0.769148c-0.107275-0.07932-0.199784-0.181288-0.262333-0.309533-0.207704-0.425855-0.04026-0.958733,0.385591-1.166435,0.425853-0.207702,0.948854-0.01158,1.156557,0.414279z"/>
      <path d="m27.216744,71.521322c-0.166161-0.340679-0.577034-0.482146-0.917716-0.315985-0.340683,0.166162-0.482163,0.577031-0.316003,0.91771,0.05006,0.102645,0.120596,0.185793,0.20643,0.249305,0.0059-0.248292,0.146733-0.485193,0.385351-0.601574,0.238616-0.116381,0.507716-0.07941,0.707006,0.0688,0.0028-0.106746-0.01504-0.215649-0.06508-0.318245z"/>
      <path d="m26.564143,70.183292c0.166166,0.340692,0.02468,0.751561-0.315997,0.917722-0.340683,0.166162-0.751555,0.02469-0.917722-0.315997-0.05006-0.102645-0.07215-0.209404-0.06936-0.316145,0.1993,0.148201,0.472675,0.183088,0.711293,0.06671,0.238616-0.11638,0.375157-0.351197,0.381064-0.599484,0.08585,0.06351,0.160666,0.144609,0.210705,0.247205z"/>
     </g>
    </g>
    <path fill="#f5e105" d="m40.3225,38.83333c0.000003,8.888563,7.205642,16.094182,16.094212,16.094182,8.888544,0.000001,16.09412-7.205614,16.094121-16.094188-0.000001-8.888562-7.205608-16.094167-16.094154-16.094169-8.888585-0.000007-16.094174,7.205601-16.094179,16.094175z"/>
   </g>
   <g transform="translate(38.375017,-143.08326)">
    <path fill="#f5e105" d="M17.00561,94.429361,30.007885,67.770748,29.391025,67.469886,16.454923,93.992782c0.176401,0.148499,0.382657,0.312322,0.550669,0.436571z"/>
    <path d="m37.244389,94.429361-13.002275-26.658613,0.61686-0.300862,12.936102,26.522896c-0.176401,0.148499-0.382657,0.312322-0.550669,0.436571z" fill="#f5e105"/>
    <path fill="#000" d="m16.392638,93.941526,12.927859-26.506039,0.143934,0.0702-12.944906,26.54099z"/>
    <path fill="#000" d="M17.068709,94.477944,30.078001,67.804946,29.934067,67.734745,16.938815,94.378961z"/>
    <path d="m37.857361,93.941526-12.927859-26.506039-0.143934,0.0702,12.944906,26.54099z" fill="#000"/>
    <path d="m37.18129,94.477944-13.009292-26.672998,0.143934-0.0702,12.995252,26.644216z" fill="#000"/>
    <g stroke-linejoin="round" transform="matrix(0.60172484,-1.2337187,1.2337187,0.60172484,-11.062141,198.42325)" stroke="#000" stroke-linecap="butt" stroke-dasharray="none" stroke-miterlimit="4">
     <path d="m98.100003-16.02501,1.61338,0.94167-1.61338,0.94167-2.083343-0.941663z" stroke-width="0.25" fill="#f5e105"/>
     <path d="m96.14216-15.083333,1.95784-0.475,0.913333,0.474993l-0.913333,0.475007z" stroke-width="0.11666667" fill="none"/>
    </g>
    <g stroke-linejoin="round" transform="matrix(-0.60172484,-1.2337187,-1.2337187,0.60172484,65.31214,198.42325)" stroke="#000" stroke-linecap="butt" stroke-dasharray="none" stroke-miterlimit="4">
     <path d="m98.100003-16.02501,1.61338,0.94167-1.61338,0.94167-2.083343-0.941663z" stroke-width="0.25" fill="#f5e105"/>
     <path d="m96.14216-15.083333,1.95784-0.475,0.913333,0.474993l-0.913333,0.475007z" stroke-width="0.11666667" fill="none"/>
    </g>
    <g fill="#000">
     <path d="m18.354875,90.085864,1.830248-3.752565s0.05967,0.194544,0.245198,0.285032c0.185531,0.09049,0.375569,0.01774,0.375569,0.01774l-1.830248,3.752565z"/>
     <path d="m35.895124,90.085864-1.830248-3.752565s-0.05967,0.194544-0.245198,0.285032c-0.185531,0.09049-0.375569,0.01774-0.375569,0.01774l1.830248,3.752565z"/>
     <path d="m27.033255,71.521322c0.166161-0.340679,0.577034-0.482146,0.917716-0.315985,0.340683,0.166162,0.482163,0.577031,0.316003,0.91771-0.05006,0.102645-0.120596,0.185793-0.20643,0.249305-0.0059-0.248292-0.146733-0.485193-0.385351-0.601574-0.238616-0.116381-0.507716-0.07941-0.707006,0.0688-0.0028-0.106746,0.01504-0.215649,0.06508-0.318245z"/>
     <path d="m27.685856,70.183292c-0.166166,0.340692-0.02469,0.751561,0.315997,0.917722,0.340683,0.166162,0.751555,0.02469,0.917722-0.315997,0.05006-0.102645,0.07215-0.209404,0.06936-0.316145-0.1993,0.148201-0.472675,0.183088-0.711293,0.06671-0.238616-0.11638-0.375157-0.351197-0.381064-0.599484-0.08585,0.06351-0.160666,0.144609-0.210705,0.247205z"/>
     <path d="m18.087333,89.080289c-0.24924,0.511019-0.03703,1.12734,0.473993,1.376582,0.511021,0.249242,1.12734,0.03702,1.37658-0.473997,0.04675-0.09586,0.07524-0.195745,0.09061-0.29585-0.301116,0.316626-0.783273,0.417369-1.19688,0.21564-0.413664-0.201758-0.635973-0.646001-0.571768-1.078267-0.0694,0.07366-0.12581,0.160067-0.172546,0.255889z"/>
     <path d="m16.488953,92.357453c-0.24924,0.511019-0.03703,1.12734,0.473993,1.376582,0.511021,0.249242,1.12734,0.03702,1.37658-0.473997,0.04675-0.09586,0.07524-0.195745,0.09061-0.295838-0.30111,0.316614-0.783267,0.417357-1.196873,0.215628-0.413665-0.201758-0.635974-0.646001-0.571775-1.078255-0.0694,0.07366-0.12581,0.160067-0.17254,0.255877z"/>
     <path d="m20.175153,85.190993c-0.06255,0.128245-0.08593,0.263882-0.0824,0.397276,0.249104-0.185242,0.595953-0.250207,0.894223-0.104731s0.460617,0.458793,0.468008,0.769136c0.107275-0.07932,0.199778-0.181276,0.262327-0.309521,0.207703-0.425855,0.04026-0.958733-0.385591-1.166435-0.425853-0.207702-0.948854-0.01158-1.156557,0.414279z"/>
     <path d="m21.033917,83.430266c0.06255-0.128245,0.155046-0.230185,0.262333-0.309533,0.0074,0.310355,0.169733,0.623673,0.468003,0.769149s0.645118,0.08051,0.894228-0.104744c0.0035,0.13337-0.01986,0.269044-0.08241,0.397289-0.207704,0.425855-0.730705,0.621981-1.156557,0.414279-0.425853-0.207702-0.593295-0.74058-0.385592-1.166435z"/>
     <path d="m23.584929,78.199916c-0.06255,0.128257-0.08593,0.263894-0.08241,0.397289,0.24911-0.185254,0.595959-0.25022,0.894229-0.104744s0.460617,0.458793,0.468002,0.769149c0.107275-0.07932,0.199778-0.181276,0.262333-0.309534,0.207704-0.425855,0.04026-0.95872-0.385597-1.166423-0.425853-0.207702-0.948848-0.01159-1.156551,0.414267z"/>
     <path d="m24.443687,76.439202c0.06255-0.128257,0.155046-0.230185,0.262333-0.309533,0.0074,0.310355,0.169739,0.62366,0.468009,0.769136s0.645112,0.08052,0.894222-0.104732c0.0035,0.13337-0.01985,0.269032-0.08241,0.397289-0.207698,0.425843-0.730699,0.621969-1.156551,0.414267-0.425853-0.207702-0.593295-0.74058-0.385598-1.166423z"/>
     <path d="m25.289814,74.704384c-0.06255,0.128245-0.08593,0.263894-0.08241,0.397289,0.24911-0.185255,0.595959-0.25022,0.894229-0.104744s0.460617,0.458793,0.468002,0.769148c0.107275-0.07932,0.199784-0.181288,0.262333-0.309533,0.207704-0.425855,0.04026-0.958733-0.385591-1.166435-0.425853-0.207702-0.948854-0.01158-1.156557,0.414279z"/>
     <path d="m17.31696,91.051157c-0.06255,0.128245-0.08593,0.263894-0.08241,0.397288,0.24911-0.185254,0.595959-0.250219,0.894229-0.104743s0.460617,0.458793,0.468002,0.769148c0.107275-0.07932,0.199784-0.181288,0.262333-0.309533,0.207703-0.425855,0.04026-0.958733-0.385591-1.166435-0.425853-0.207703-0.948854-0.01158-1.156557,0.414279z"/>
     <path d="m23.776214,79.76476c0.369073,0.180009,0.522339,0.625123,0.342327,0.994203-0.180006,0.369067-0.625127,0.522343-0.9942,0.342334-0.369072-0.180008-0.522333-0.625135-0.342327-0.994202,0.180012-0.36908,0.625128-0.522343,0.9942-0.342335z"/>
     <path d="m23.036604,81.281186c0.369073,0.180009,0.522339,0.625123,0.342327,0.994202-0.180006,0.369067-0.625121,0.522331-0.994194,0.342322-0.369072-0.180008-0.522339-0.625123-0.342333-0.99419,0.180012-0.369079,0.625128-0.522343,0.9942-0.342334z"/>
     <path d="m37.761046,92.357453c0.24924,0.511019,0.03703,1.12734-0.473993,1.376582-0.511021,0.249242-1.12734,0.03702-1.37658-0.473997-0.04675-0.09586-0.07524-0.195745-0.09061-0.295838,0.30111,0.316614,0.783267,0.417357,1.196873,0.215628,0.413665-0.201758,0.635974-0.646001,0.571775-1.078255,0.0694,0.07366,0.12581,0.160067,0.17254,0.255877z"/>
     <path d="m36.933039,91.051157c0.06255,0.128245,0.08593,0.263894,0.08241,0.397288-0.24911-0.185254-0.595959-0.250219-0.894229-0.104743s-0.460617,0.458793-0.468002,0.769148c-0.107275-0.07932-0.199784-0.181288-0.262333-0.309533-0.207703-0.425855-0.04026-0.958733,0.385591-1.166435,0.425853-0.207703,0.948854-0.01158,1.156557,0.414279z"/>
     <path d="m36.162666,89.080289c0.24924,0.511019,0.03703,1.12734-0.473993,1.376582-0.511021,0.249242-1.12734,0.03702-1.37658-0.473997-0.04675-0.09586-0.07524-0.195745-0.09061-0.29585,0.301116,0.316626,0.783273,0.417369,1.19688,0.21564,0.413664-0.201758,0.635973-0.646001,0.571768-1.078267,0.06941,0.07366,0.12581,0.160067,0.172546,0.255889z"/>
     <path d="m34.074846,85.190993c0.06255,0.128245,0.08593,0.263882,0.0824,0.397276-0.249104-0.185242-0.595953-0.250207-0.894223-0.104731s-0.460617,0.458793-0.468008,0.769136c-0.107275-0.07932-0.199778-0.181276-0.262327-0.309521-0.207703-0.425855-0.04026-0.958733,0.385591-1.166435,0.425853-0.207702,0.948854-0.01158,1.156557,0.414279z"/>
     <path d="m33.216082,83.430266c-0.06255-0.128245-0.155046-0.230185-0.262333-0.309533-0.0074,0.310355-0.169733,0.623673-0.468003,0.769149s-0.645118,0.08051-0.894228-0.104744c-0.0035,0.13337,0.01986,0.269044,0.08241,0.397289,0.207704,0.425855,0.730705,0.621981,1.156557,0.414279,0.425853-0.207702,0.593295-0.74058,0.385592-1.166435z"/>
     <path d="m31.213395,81.281186c-0.369073,0.180009-0.522339,0.625123-0.342327,0.994202,0.180006,0.369067,0.625121,0.522331,0.994194,0.342322,0.369072-0.180008,0.522339-0.625123,0.342333-0.99419-0.180012-0.369079-0.625128-0.522343-0.9942-0.342334z"/>
     <path d="m30.473785,79.76476c-0.369073,0.180009-0.522339,0.625123-0.342327,0.994203,0.180006,0.369067,0.625127,0.522343,0.9942,0.342334,0.369072-0.180008,0.522333-0.625135,0.342327-0.994202-0.180012-0.36908-0.625128-0.522343-0.9942-0.342335z"/>
     <path d="m30.66507,78.199916c0.06255,0.128257,0.08593,0.263894,0.08241,0.397289-0.24911-0.185254-0.595959-0.25022-0.894229-0.104744s-0.460617,0.458793-0.468002,0.769149c-0.107275-0.07932-0.199778-0.181276-0.262333-0.309534-0.207704-0.425855-0.04026-0.95872,0.385597-1.166423,0.425853-0.207702,0.948848-0.01159,1.156551,0.414267z"/>
     <path d="m29.806312,76.439202c-0.06255-0.128257-0.155046-0.230185-0.262333-0.309533-0.0074,0.310355-0.169739,0.62366-0.468009,0.769136s-0.645112,0.08052-0.894222-0.104732c-0.0035,0.13337,0.01985,0.269032,0.08241,0.397289,0.207698,0.425843,0.730699,0.621969,1.156551,0.414267,0.425853-0.207702,0.593295-0.74058,0.385598-1.166423z"/>
     <path d="m28.960185,74.704384c0.06255,0.128245,0.08593,0.263894,0.08241,0.397289-0.24911-0.185255-0.595959-0.25022-0.894229-0.104744s-0.460617,0.458793-0.468002,0.769148c-0.107275-0.07932-0.199784-0.181288-0.262333-0.309533-0.207704-0.425855-0.04026-0.958733,0.385591-1.166435,0.425853-0.207702,0.948854-0.01158,1.156557,0.414279z"/>
     <path d="m27.216744,71.521322c-0.166161-0.340679-0.577034-0.482146-0.917716-0.315985-0.340683,0.166162-0.482163,0.577031-0.316003,0.91771,0.05006,0.102645,0.120596,0.185793,0.20643,0.249305,0.0059-0.248292,0.146733-0.485193,0.385351-0.601574,0.238616-0.116381,0.507716-0.07941,0.707006,0.0688,0.0028-0.106746-0.01504-0.215649-0.06508-0.318245z"/>
     <path d="m26.564143,70.183292c0.166166,0.340692,0.02468,0.751561-0.315997,0.917722-0.340683,0.166162-0.751555,0.02469-0.917722-0.315997-0.05006-0.102645-0.07215-0.209404-0.06936-0.316145,0.1993,0.148201,0.472675,0.183088,0.711293,0.06671,0.238616-0.11638,0.375157-0.351197,0.381064-0.599484,0.08585,0.06351,0.160666,0.144609,0.210705,0.247205z"/>
    </g>
   </g>
   <g>
    <path d="m64.733625-45.090799,0.766388-2.648367,0.766388,2.648368s-0.320993,0.0183-0.766388,0.0183-0.766388-0.0183-0.766388-0.0183z" fill="#32641e"/>
    <path d="m56.962976-49.6353c-0.146868-0.07164-0.369443-0.12319-0.397127-0.06642-0.02768,0.05677,0.149972,0.200414,0.29684,0.272046l7.393708,3.606151c0.146868,0.07164,0.369436,0.12321,0.397127,0.06642,0.02768-0.05676-0.149972-0.200411-0.29684-0.272046z" fill="#326e1e"/>
    <path d="m57.163552-50.046539c-0.14687-0.07164-0.369444-0.123191-0.397127-0.06642-0.02768,0.05677,0.149971,0.200413,0.296839,0.272044l7.207366,3.515268c0.146867,0.07164,0.369434,0.123209,0.397126,0.06642,0.02769-0.05676-0.149972-0.20041-0.296839-0.272043z" fill="#326e1e"/>
    <path d="m57.364126-50.45778c-0.146869-0.07164-0.369443-0.123191-0.397127-0.06642-0.02768,0.05677,0.149971,0.200415,0.29684,0.272049l7.027448,3.427514c0.146867,0.07164,0.369434,0.123209,0.397126,0.06642,0.02769-0.05676-0.149971-0.20041-0.29684-0.272046z" fill="#326e1e"/>
    <path d="m57.564701-50.869016c-0.146868-0.07164-0.369443-0.123191-0.397128-0.06642-0.02768,0.05677,0.149972,0.200411,0.29684,0.272045l6.847531,3.339763c0.146868,0.07164,0.369434,0.123197,0.397127,0.06642,0.02769-0.05676-0.149972-0.200412-0.296839-0.272044z" fill="#326e1e"/>
    <path d="m57.765276-51.280257c-0.146869-0.07164-0.369443-0.123191-0.397127-0.06642-0.02769,0.05677,0.149971,0.200411,0.296839,0.272045l6.667614,3.252014c0.146868,0.07164,0.369434,0.123197,0.397126,0.06642,0.02769-0.05676-0.149971-0.200412-0.296838-0.272049z" fill="#326e1e"/>
    <path d="m57.965851-51.691497c-0.146869-0.07164-0.369444-0.123191-0.397127-0.06642-0.02769,0.05677,0.14997,0.200411,0.296839,0.272045l6.48127,3.161127c0.146869,0.07164,0.369436,0.12321,0.397128,0.06642,0.02769-0.05676-0.149973-0.200412-0.296839-0.272046z" fill="#326e1e"/>
    <path d="m58.166425-52.102736c-0.146868-0.07164-0.369443-0.12319-0.397126-0.06642-0.02768,0.05677,0.14997,0.200413,0.296839,0.272045l6.301354,3.073377c0.146868,0.07164,0.369434,0.123197,0.397126,0.06642,0.02769-0.05676-0.149972-0.200412-0.296838-0.272044z" fill="#326e1e"/>
    <path d="m58.367-52.513976c-0.146868-0.07164-0.369442-0.123191-0.397127-0.06642-0.02768,0.05677,0.149971,0.200412,0.29684,0.272048l6.121436,2.985624c0.146868,0.07164,0.369435,0.123209,0.397127,0.06642,0.02769-0.05676-0.149972-0.200413-0.296839-0.272047z" fill="#326e1e"/>
    <path d="m58.567575-52.925213c-0.14687-0.07164-0.369443-0.12319-0.397127-0.06642-0.02768,0.05677,0.149972,0.200412,0.296839,0.272044l5.94152,2.897879c0.146868,0.07164,0.369435,0.123209,0.397127,0.06642,0.02769-0.05676-0.149972-0.200412-0.296839-0.272044l-5.941519-2.897883z" fill="#326e1e"/>
    <path d="m58.76815-53.336453c-0.146869-0.07164-0.369443-0.123191-0.397127-0.06642-0.02768,0.05677,0.14997,0.200413,0.29684,0.272047l5.761601,2.810121c0.146868,0.07162,0.369434,0.123197,0.397127,0.06642,0.02769-0.05676-0.149972-0.200412-0.29684-0.272043z" fill="#326e1e"/>
    <path d="m58.968724-53.747696c-0.146868-0.07164-0.369442-0.12319-0.397126-0.06642-0.02768,0.05677,0.14997,0.200412,0.296839,0.272048l5.581681,2.722368c0.146868,0.07164,0.369434,0.123209,0.397127,0.06642,0.02769-0.05676-0.149972-0.200413-0.296839-0.272044z" fill="#326e1e"/>
    <path d="m59.1693-54.158932c-0.146869-0.07163-0.369442-0.12319-0.397128-0.06643-0.02768,0.05677,0.149972,0.20041,0.29684,0.272044l5.395342,2.631486c0.146868,0.07164,0.369434,0.123209,0.397126,0.06642,0.02769-0.05676-0.149971-0.200412-0.296839-0.272045z" fill="#326e1e"/>
    <path d="m59.369874-54.570173c-0.146869-0.07164-0.369443-0.123191-0.397127-0.06642-0.02768,0.05677,0.14997,0.200411,0.29684,0.272046l5.215425,2.54373c0.146868,0.07164,0.369434,0.123209,0.397127,0.06642,0.02769-0.05676-0.149971-0.200412-0.296839-0.272043z" fill="#326e1e"/>
    <path d="m59.570448-54.981412c-0.146868-0.07164-0.369443-0.12319-0.397125-0.06642-0.02769,0.05677,0.14997,0.200411,0.296839,0.272044l5.035508,2.455984c0.146866,0.07164,0.369434,0.123208,0.397125,0.06642,0.02769-0.05676-0.149971-0.200412-0.296839-0.272043z" fill="#326e1e"/>
    <path d="m59.771024-55.392651c-0.146868-0.07164-0.369443-0.12319-0.397128-0.06642-0.02769,0.05677,0.149972,0.200411,0.29684,0.272044l4.855591,2.36823c0.146867,0.07164,0.369435,0.123209,0.397127,0.06642,0.02769-0.05676-0.149971-0.200412-0.29684-0.272045z" fill="#326e1e"/>
    <path d="m59.971599-55.803888c-0.146868-0.07164-0.369443-0.123191-0.397127-0.06642-0.02768,0.05677,0.149971,0.200412,0.296839,0.272045l4.675673,2.280478c0.146869,0.07162,0.369435,0.123198,0.397126,0.06642,0.02769-0.05676-0.149969-0.200415-0.296837-0.272046l-4.675674-2.280473z" fill="#326e1e"/>
    <path d="m60.172174-56.215129c-0.14687-0.07162-0.369444-0.123191-0.397127-0.06642-0.02768,0.05677,0.14997,0.200412,0.29684,0.272044l4.489329,2.189594c0.146868,0.07164,0.369436,0.123209,0.397127,0.06642,0.02769-0.05676-0.149971-0.200412-0.296839-0.272045l-4.48933-2.18959z" fill="#326e1e"/>
    <path d="m60.372748-56.626369c-0.146868-0.07164-0.369443-0.123191-0.397126-0.06642-0.02768,0.05677,0.14997,0.200413,0.296838,0.272045l4.309415,2.101842c0.146868,0.07164,0.369434,0.123209,0.397125,0.06642,0.02769-0.05676-0.149971-0.200411-0.296838-0.272043z" fill="#326e1e"/>
    <path d="m60.573323-57.037608c-0.146868-0.07162-0.369442-0.123179-0.397127-0.06642-0.02768,0.05677,0.149971,0.200412,0.296839,0.272044l4.129496,2.014091c0.146868,0.07164,0.369435,0.123209,0.397128,0.06642,0.02769-0.05676-0.149972-0.200413-0.29684-0.272046z" fill="#326e1e"/>
    <path d="m60.773898-57.448847c-0.14687-0.07162-0.369444-0.123191-0.397127-0.06642-0.02768,0.05677,0.149972,0.200413,0.296839,0.272045l3.949579,1.926339c0.146868,0.07164,0.369435,0.123198,0.397127,0.06642,0.02769-0.05676-0.149971-0.200413-0.296839-0.272045z" fill="#326e1e"/>
    <path d="m60.974472-57.860086c-0.146869-0.07162-0.369443-0.123191-0.397126-0.06642-0.02768,0.05677,0.14997,0.200412,0.29684,0.272045l3.76966,1.838587c0.146868,0.07164,0.369436,0.123209,0.397127,0.06642,0.02769-0.05676-0.149972-0.200413-0.296839-0.272046z" fill="#326e1e"/>
    <path d="m61.175047-58.271326c-0.146868-0.07164-0.369443-0.12319-0.397127-0.06642-0.02768,0.05677,0.149971,0.200411,0.29684,0.272043l3.583318,1.747702c0.146868,0.07164,0.369436,0.123209,0.397127,0.06642,0.02769-0.05676-0.149972-0.200413-0.296839-0.272045l-3.583317-1.747701z" fill="#326e1e"/>
    <path d="m61.375622-58.682564c-0.146869-0.07162-0.369443-0.123191-0.397127-0.06642-0.02768,0.05677,0.149972,0.200413,0.296839,0.272045l3.409828,1.663087c0.146868,0.07164,0.369436,0.12321,0.397127,0.06642,0.02768-0.05676-0.149972-0.200413-0.29684-0.272045z" fill="#326e1e"/>
    <path d="m61.576197-59.093803c-0.146869-0.07164-0.369444-0.123192-0.397126-0.06642-0.02768,0.05677,0.149969,0.200413,0.296839,0.272045l3.223484,1.572198c0.146868,0.07164,0.369435,0.123209,0.397127,0.06642,0.02769-0.05676-0.149971-0.200412-0.296839-0.272044z" fill="#326e1e"/>
    <path d="m61.776771-59.505043c-0.146868-0.07164-0.369442-0.12319-0.397126-0.06642-0.02768,0.05677,0.14997,0.200412,0.29684,0.272045l3.043567,1.484453c0.146868,0.07164,0.369434,0.123208,0.397127,0.06642,0.02768-0.05676-0.149973-0.200413-0.29684-0.272045z" fill="#326e1e"/>
    <path d="m61.977346-59.916282c-0.146868-0.07164-0.369443-0.123191-0.397127-0.06642-0.02768,0.05677,0.149972,0.200413,0.29684,0.272045l2.86365,1.396697c0.146868,0.07164,0.369435,0.123209,0.397128,0.06642,0.02768-0.05676-0.149973-0.200411-0.29684-0.272046z" fill="#326e1e"/>
    <path d="m62.177922-60.327521c-0.14687-0.07163-0.369444-0.123191-0.397127-0.06642-0.02768,0.05677,0.149971,0.200412,0.296839,0.272045l2.683734,1.308943c0.146868,0.07164,0.369435,0.123209,0.397127,0.06642,0.02768-0.05676-0.149972-0.200412-0.29684-0.272044z" fill="#326e1e"/>
    <path d="m62.378497-60.738761c-0.146869-0.07164-0.369444-0.123191-0.397128-0.06642-0.02768,0.05677,0.149971,0.200412,0.29684,0.272045l2.503816,1.221192c0.146867,0.07164,0.369434,0.123209,0.397127,0.06642,0.02768-0.05676-0.149973-0.200413-0.29684-0.272045z" fill="#326e1e"/>
    <path d="m62.579071-61.15c-0.146869-0.07162-0.369443-0.123191-0.397128-0.06642-0.02768,0.05677,0.149971,0.200412,0.29684,0.272045l2.317474,1.130306c0.146868,0.07164,0.369435,0.123198,0.397126,0.06642,0.02769-0.05676-0.149972-0.200412-0.296839-0.272045z" fill="#326e1e"/>
    <path d="m62.779646-61.561239c-0.146869-0.07164-0.369444-0.123191-0.397127-0.06642-0.02769,0.05677,0.149971,0.200412,0.29684,0.272045l2.137555,1.042559c0.146868,0.07164,0.369435,0.12321,0.397127,0.06642,0.02769-0.05676-0.149972-0.200412-0.29684-0.272045l-2.137555-1.042564z" fill="#326e1e"/>
    <path d="m62.980221-61.972478c-0.146869-0.07164-0.369444-0.123192-0.397127-0.06642-0.02769,0.05677,0.14997,0.200412,0.296839,0.272044l1.957642,0.954812c0.146868,0.07164,0.369436,0.12321,0.397128,0.06642,0.02769-0.05676-0.149973-0.200411-0.29684-0.272045z" fill="#326e1e"/>
    <path d="m63.180795-62.383717c-0.146868-0.07164-0.369443-0.123191-0.397127-0.06642-0.02768,0.05677,0.149971,0.200411,0.29684,0.272043l1.777721,0.867052c0.146868,0.07164,0.369435,0.123209,0.397127,0.06642,0.02769-0.05676-0.149971-0.200412-0.296839-0.272045z" fill="#326e1e"/>
    <path d="m63.38137-62.794957c-0.146868-0.07164-0.369443-0.123191-0.397127-0.06642-0.02768,0.05677,0.149972,0.200412,0.296839,0.272044l1.597805,0.779303c0.146869,0.07164,0.369434,0.123197,0.397127,0.06642,0.02769-0.05676-0.149971-0.200413-0.296839-0.272045z" fill="#326e1e"/>
    <path d="m63.581945-63.206196c-0.14687-0.07164-0.369444-0.123192-0.397127-0.06642-0.02768,0.05677,0.14997,0.200412,0.296839,0.272045l1.417889,0.69155c0.146867,0.07164,0.369434,0.123209,0.397126,0.06642,0.02769-0.05676-0.149972-0.200413-0.29684-0.272046z" fill="#326e1e"/>
    <path d="m63.782519-63.617435c-0.146868-0.07164-0.369443-0.123191-0.397126-0.06642-0.02768,0.05677,0.14997,0.200411,0.296839,0.272044l1.231545,0.600677c0.146868,0.07164,0.369435,0.123209,0.397127,0.06642,0.02769-0.05676-0.149972-0.200413-0.29684-0.272046z" fill="#326e1e"/>
    <path d="m63.983094-64.028675c-0.146869-0.07162-0.369443-0.12319-0.397127-0.06642-0.02768,0.05677,0.149972,0.200411,0.296839,0.272044l1.051624,0.512908c0.146868,0.07164,0.369434,0.123208,0.397125,0.06642,0.02769-0.05676-0.149972-0.200408-0.29684-0.272044l-1.051616-0.512905z" fill="#326e1e"/>
    <path d="m64.18367-64.439914c-0.14687-0.07162-0.369444-0.123191-0.397128-0.06642-0.02768,0.05677,0.149972,0.200412,0.29684,0.272045l0.87171,0.425159c0.146868,0.07164,0.369433,0.123197,0.397127,0.06642,0.02769-0.05676-0.149973-0.20041-0.296839-0.272044z" fill="#326e1e"/>
    <path d="m64.384244-64.851153c-0.146871-0.07164-0.369444-0.123191-0.397127-0.06642-0.02768,0.05677,0.14997,0.200412,0.29684,0.272044l0.691792,0.337407c0.146868,0.07164,0.369435,0.12321,0.397127,0.06642,0.02769-0.05676-0.149973-0.200411-0.29684-0.272045z" fill="#326e1e"/>
    <path d="m64.584818-65.262392c-0.146872-0.07162-0.369443-0.123191-0.397126-0.06642-0.02768,0.05677,0.14997,0.200413,0.296839,0.272045l0.511877,0.249658c0.146869,0.07164,0.369435,0.12321,0.397127,0.06642,0.02769-0.05676-0.149973-0.200409-0.296839-0.272046l-0.511882-0.249657z" fill="#326e1e"/>
    <path d="m64.785393-65.673632c-0.146874-0.07162-0.369443-0.12319-0.397127-0.06642-0.02768,0.05677,0.149972,0.200412,0.29684,0.272044l0.331945,0.16187c0.146868,0.07164,0.369435,0.123209,0.397128,0.06642,0.02769-0.05676-0.149976-0.200403-0.29684-0.272045z" fill="#326e1e"/>
    <path d="m64.985969-66.084871c-0.146879-0.07161-0.369445-0.123191-0.397128-0.06642-0.02768,0.05677,0.149971,0.200411,0.29684,0.272043l0.152079,0.07426c0.146867,0.07164,0.369435,0.123209,0.397126,0.06642,0.02769-0.05676-0.149991-0.200374-0.296839-0.272044z" fill="#326e1e"/>
    <path d="m65.128712-66.524317c-0.145397-0.06925-0.312017-0.09415-0.339295-0.03821-0.02729,0.05595,0.09489,0.171925,0.239009,0.243839,0.002,0.001,0.07916,0.03859,0.0814,0.03971,0.145415,0.06925,0.312006,0.09418,0.339296,0.03822,0.02728-0.05594-0.09492-0.171925-0.239009-0.24384-0.0022-0.0011-0.07916-0.03859-0.0814-0.03971z" fill="#326e1e"/>
    <path d="m65.22656-66.949766c-0.100807-0.04806-0.216374-0.06528-0.235289-0.02651-0.01893,0.03881,0.06581,0.119223,0.165745,0.16909,0.0015,0.000742,0.07794,0.03791,0.07932,0.03874,0.100823,0.04806,0.216367,0.06531,0.235289,0.02651,0.01892-0.03879-0.06583-0.119225-0.165746-0.169091-0.0015-0.000743-0.07797-0.03807-0.07932-0.03874z" fill="#326e1e"/>
    <path d="m74.037019-49.6353c0.146868-0.07164,0.369443-0.12319,0.397127-0.06642,0.02768,0.05677-0.149972,0.200414-0.29684,0.272046l-7.393708,3.606151c-0.146868,0.07164-0.369436,0.12321-0.397127,0.06642-0.02768-0.05676,0.149972-0.200411,0.29684-0.272046z" fill="#326e1e"/>
    <path d="m73.836443-50.046539c0.14687-0.07164,0.369444-0.123191,0.397127-0.06642,0.02769,0.05677-0.149971,0.200413-0.296839,0.272044l-7.207366,3.515268c-0.146867,0.07164-0.369434,0.123209-0.397126,0.06642-0.02769-0.05676,0.149972-0.20041,0.296839-0.272043z" fill="#326e1e"/>
    <path d="m73.635869-50.45778c0.146869-0.07164,0.369443-0.123191,0.397127-0.06642,0.02768,0.05677-0.149971,0.200415-0.29684,0.272049l-7.027448,3.427514c-0.146867,0.07164-0.369434,0.123209-0.397126,0.06642-0.02769-0.05676,0.149971-0.20041,0.29684-0.272046z" fill="#326e1e"/>
    <path d="m73.435294-50.869016c0.146868-0.07164,0.369443-0.123191,0.397128-0.06642,0.02768,0.05677-0.149972,0.200411-0.29684,0.272045l-6.847531,3.339763c-0.146868,0.07164-0.369434,0.123197-0.397127,0.06642-0.02769-0.05676,0.149972-0.200412,0.296839-0.272044z" fill="#326e1e"/>
    <path d="m73.234719-51.280257c0.146869-0.07164,0.369443-0.123191,0.397127-0.06642,0.02769,0.05677-0.149971,0.200411-0.296839,0.272045l-6.667614,3.252014c-0.146868,0.07164-0.369434,0.123197-0.397126,0.06642-0.02769-0.05676,0.149971-0.200412,0.296838-0.272049z" fill="#326e1e"/>
    <path d="m73.034144-51.691497c0.146869-0.07164,0.369444-0.123191,0.397127-0.06642,0.02769,0.05677-0.14997,0.200411-0.296839,0.272045l-6.48127,3.161127c-0.146869,0.07164-0.369436,0.12321-0.397128,0.06642-0.02769-0.05676,0.149973-0.200412,0.296839-0.272046z" fill="#326e1e"/>
    <path d="m72.83357-52.102736c0.146868-0.07164,0.369443-0.12319,0.397126-0.06642,0.02769,0.05677-0.14997,0.200413-0.296839,0.272045l-6.301354,3.073377c-0.146868,0.07164-0.369434,0.123197-0.397126,0.06642-0.02769-0.05676,0.149972-0.200412,0.296838-0.272044z" fill="#326e1e"/>
    <path d="m72.632995-52.513976c0.146868-0.07164,0.369442-0.123191,0.397127-0.06642,0.02768,0.05677-0.149971,0.200412-0.29684,0.272048l-6.121436,2.985624c-0.146868,0.07164-0.369435,0.123209-0.397127,0.06642-0.02769-0.05676,0.149972-0.200413,0.296839-0.272047z" fill="#326e1e"/>
    <path d="m72.43242-52.925213c0.14687-0.07164,0.369443-0.12319,0.397127-0.06642,0.02768,0.05677-0.149972,0.200412-0.296839,0.272044l-5.94152,2.897879c-0.146868,0.07164-0.369435,0.123209-0.397127,0.06642-0.02769-0.05676,0.149972-0.200412,0.296839-0.272044l5.941519-2.897883z" fill="#326e1e"/>
    <path d="m72.231845-53.336453c0.146869-0.07164,0.369443-0.123191,0.397127-0.06642,0.02768,0.05677-0.14997,0.200413-0.29684,0.272047l-5.761601,2.810121c-0.146868,0.07162-0.369434,0.123197-0.397127,0.06642-0.02769-0.05676,0.149972-0.200412,0.29684-0.272043z" fill="#326e1e"/>
    <path d="m72.031271-53.747696c0.146868-0.07164,0.369442-0.12319,0.397126-0.06642,0.02768,0.05677-0.14997,0.200412-0.296839,0.272048l-5.581681,2.722368c-0.146868,0.07164-0.369434,0.123209-0.397127,0.06642-0.02769-0.05676,0.149972-0.200413,0.296839-0.272044z" fill="#326e1e"/>
    <path d="m71.830695-54.158932c0.146869-0.07163,0.369442-0.12319,0.397128-0.06643,0.02768,0.05677-0.149972,0.20041-0.29684,0.272044l-5.395342,2.631486c-0.146868,0.07164-0.369434,0.123209-0.397126,0.06642-0.02769-0.05676,0.149971-0.200412,0.296839-0.272045z" fill="#326e1e"/>
    <path d="m71.630121-54.570173c0.146869-0.07164,0.369443-0.123191,0.397127-0.06642,0.02768,0.05677-0.14997,0.200411-0.29684,0.272046l-5.215425,2.54373c-0.146868,0.07164-0.369434,0.123209-0.397127,0.06642-0.02769-0.05676,0.149971-0.200412,0.296839-0.272043z" fill="#326e1e"/>
    <path d="m71.429547-54.981412c0.146868-0.07164,0.369443-0.12319,0.397125-0.06642,0.02768,0.05677-0.14997,0.200411-0.296839,0.272044l-5.035508,2.455984c-0.146866,0.07164-0.369434,0.123208-0.397125,0.06642-0.02769-0.05676,0.149971-0.200412,0.296839-0.272043z" fill="#326e1e"/>
    <path d="m71.228971-55.392651c0.146868-0.07164,0.369443-0.12319,0.397128-0.06642,0.02769,0.05677-0.149972,0.200411-0.29684,0.272044l-4.855591,2.36823c-0.146867,0.07164-0.369435,0.123209-0.397127,0.06642-0.02769-0.05676,0.149971-0.200412,0.29684-0.272045z" fill="#326e1e"/>
    <path d="m71.028396-55.803888c0.146868-0.07164,0.369443-0.123191,0.397127-0.06642,0.02769,0.05677-0.149971,0.200412-0.296839,0.272045l-4.675673,2.280478c-0.146869,0.07162-0.369435,0.123198-0.397126,0.06642-0.02769-0.05676,0.149969-0.200415,0.296837-0.272046l4.675674-2.280473z" fill="#326e1e"/>
    <path d="m70.827821-56.215129c0.14687-0.07162,0.369444-0.123191,0.397127-0.06642,0.02769,0.05677-0.14997,0.200412-0.29684,0.272044l-4.489329,2.189594c-0.146868,0.07164-0.369436,0.123209-0.397127,0.06642-0.02769-0.05676,0.149971-0.200412,0.296839-0.272045l4.48933-2.18959z" fill="#326e1e"/>
    <path d="m70.627247-56.626369c0.146868-0.07164,0.369443-0.123191,0.397126-0.06642,0.02769,0.05677-0.14997,0.200413-0.296838,0.272045l-4.309415,2.101842c-0.146868,0.07164-0.369434,0.123209-0.397125,0.06642-0.02769-0.05676,0.149971-0.200411,0.296838-0.272043z" fill="#326e1e"/>
    <path d="m70.426672-57.037608c0.146868-0.07162,0.369442-0.123179,0.397127-0.06642,0.02769,0.05677-0.149971,0.200412-0.296839,0.272044l-4.129496,2.014091c-0.146868,0.07164-0.369435,0.123209-0.397128,0.06642-0.02769-0.05676,0.149972-0.200413,0.29684-0.272046z" fill="#326e1e"/>
    <path d="m70.226097-57.448847c0.14687-0.07162,0.369444-0.123191,0.397127-0.06642,0.02768,0.05677-0.149972,0.200413-0.296839,0.272045l-3.949579,1.926339c-0.146868,0.07164-0.369435,0.123198-0.397127,0.06642-0.02769-0.05676,0.149971-0.200413,0.296839-0.272045z" fill="#326e1e"/>
    <path d="m70.025523-57.860086c0.146869-0.07162,0.369443-0.123191,0.397126-0.06642,0.02768,0.05677-0.14997,0.200412-0.29684,0.272045l-3.76966,1.838587c-0.146868,0.07164-0.369436,0.123209-0.397127,0.06642-0.02769-0.05676,0.149972-0.200413,0.296839-0.272046z" fill="#326e1e"/>
    <path d="m69.824948-58.271326c0.146868-0.07164,0.369443-0.12319,0.397127-0.06642,0.02768,0.05677-0.149971,0.200411-0.29684,0.272043l-3.583318,1.747702c-0.146868,0.07164-0.369436,0.123209-0.397127,0.06642-0.02769-0.05676,0.149972-0.200413,0.296839-0.272045l3.583317-1.747701z" fill="#326e1e"/>
    <path d="m69.624373-58.682564c0.146869-0.07162,0.369443-0.123191,0.397127-0.06642,0.02768,0.05677-0.149972,0.200413-0.296839,0.272045l-3.409828,1.663087c-0.146868,0.07164-0.369436,0.12321-0.397127,0.06642-0.02768-0.05676,0.149972-0.200413,0.29684-0.272045z" fill="#326e1e"/>
    <path d="m69.423798-59.093803c0.146869-0.07164,0.369444-0.123192,0.397126-0.06642,0.02768,0.05677-0.149969,0.200413-0.296839,0.272045l-3.223484,1.572198c-0.146868,0.07164-0.369435,0.123209-0.397127,0.06642-0.02769-0.05676,0.149971-0.200412,0.296839-0.272044z" fill="#326e1e"/>
    <path d="m69.223224-59.505043c0.146868-0.07164,0.369442-0.12319,0.397126-0.06642,0.02768,0.05677-0.14997,0.200412-0.29684,0.272045l-3.043567,1.484453c-0.146868,0.07164-0.369434,0.123208-0.397127,0.06642-0.02768-0.05676,0.149973-0.200413,0.29684-0.272045z" fill="#326e1e"/>
    <path d="m69.022649-59.916282c0.146868-0.07164,0.369443-0.123191,0.397127-0.06642,0.02768,0.05677-0.149972,0.200413-0.29684,0.272045l-2.86365,1.396697c-0.146868,0.07164-0.369435,0.123209-0.397128,0.06642-0.02768-0.05676,0.149973-0.200411,0.29684-0.272046z" fill="#326e1e"/>
    <path d="m68.822073-60.327521c0.14687-0.07163,0.369444-0.123191,0.397127-0.06642,0.02769,0.05677-0.149971,0.200412-0.296839,0.272045l-2.683734,1.308943c-0.146868,0.07164-0.369435,0.123209-0.397127,0.06642-0.02768-0.05676,0.149972-0.200412,0.29684-0.272044z" fill="#326e1e"/>
    <path d="m68.621498-60.738761c0.146869-0.07164,0.369444-0.123191,0.397128-0.06642,0.02768,0.05677-0.149971,0.200412-0.29684,0.272045l-2.503816,1.221192c-0.146867,0.07164-0.369434,0.123209-0.397127,0.06642-0.02768-0.05676,0.149973-0.200413,0.29684-0.272045z" fill="#326e1e"/>
    <path d="m68.420924-61.15c0.146869-0.07162,0.369443-0.123191,0.397128-0.06642,0.02769,0.05677-0.149971,0.200412-0.29684,0.272045l-2.317474,1.130306c-0.146868,0.07164-0.369435,0.123198-0.397126,0.06642-0.02769-0.05676,0.149972-0.200412,0.296839-0.272045z" fill="#326e1e"/>
    <path d="m68.220349-61.561239c0.146869-0.07164,0.369444-0.123191,0.397127-0.06642,0.02769,0.05677-0.149971,0.200412-0.29684,0.272045l-2.137555,1.042559c-0.146868,0.07164-0.369435,0.12321-0.397127,0.06642-0.02769-0.05676,0.149972-0.200412,0.29684-0.272045l2.137555-1.042564z" fill="#326e1e"/>
    <path d="m68.019774-61.972478c0.146869-0.07164,0.369444-0.123192,0.397127-0.06642,0.02769,0.05677-0.14997,0.200412-0.296839,0.272044l-1.957642,0.954812c-0.146868,0.07164-0.369436,0.12321-0.397128,0.06642-0.02769-0.05676,0.149973-0.200411,0.29684-0.272045z" fill="#326e1e"/>
    <path d="m67.8192-62.383717c0.146868-0.07164,0.369443-0.123191,0.397127-0.06642,0.02768,0.05677-0.149971,0.200411-0.29684,0.272043l-1.777721,0.867052c-0.146868,0.07164-0.369435,0.123209-0.397127,0.06642-0.02769-0.05676,0.149971-0.200412,0.296839-0.272045z" fill="#326e1e"/>
    <path d="m67.618625-62.794957c0.146868-0.07164,0.369443-0.123191,0.397127-0.06642,0.02768,0.05677-0.149972,0.200412-0.296839,0.272044l-1.597805,0.779303c-0.146869,0.07164-0.369434,0.123197-0.397127,0.06642-0.02769-0.05676,0.149971-0.200413,0.296839-0.272045z" fill="#326e1e"/>
    <path d="m67.41805-63.206196c0.14687-0.07164,0.369444-0.123192,0.397127-0.06642,0.02768,0.05677-0.14997,0.200412-0.296839,0.272045l-1.417889,0.69155c-0.146867,0.07164-0.369434,0.123209-0.397126,0.06642-0.02768-0.05676,0.149972-0.200413,0.29684-0.272046z" fill="#326e1e"/>
    <path d="m67.217476-63.617435c0.146868-0.07164,0.369443-0.123191,0.397126-0.06642,0.02768,0.05677-0.14997,0.200411-0.296839,0.272044l-1.231545,0.600677c-0.146868,0.07164-0.369435,0.123209-0.397127,0.06642-0.02769-0.05676,0.149972-0.200413,0.29684-0.272046z" fill="#326e1e"/>
    <path d="m67.016901-64.028675c0.146869-0.07162,0.369443-0.12319,0.397127-0.06642,0.02768,0.05677-0.149972,0.200411-0.296839,0.272044l-1.051624,0.512908c-0.146868,0.07164-0.369434,0.123208-0.397125,0.06642-0.02769-0.05676,0.149972-0.200408,0.29684-0.272044l1.051616-0.512905z" fill="#326e1e"/>
    <path d="m66.816325-64.439914c0.14687-0.07162,0.369444-0.123191,0.397128-0.06642,0.02768,0.05677-0.149972,0.200412-0.29684,0.272045l-0.87171,0.425159c-0.146868,0.07164-0.369433,0.123197-0.397127,0.06642-0.02769-0.05676,0.149973-0.20041,0.296839-0.272044z" fill="#326e1e"/>
    <path d="m66.615751-64.851153c0.146871-0.07164,0.369444-0.123191,0.397127-0.06642,0.02768,0.05677-0.14997,0.200412-0.29684,0.272044l-0.691792,0.337407c-0.146868,0.07164-0.369435,0.12321-0.397127,0.06642-0.02769-0.05676,0.149973-0.200411,0.29684-0.272045z" fill="#326e1e"/>
    <path d="m66.415177-65.262392c0.146872-0.07162,0.369443-0.123191,0.397126-0.06642,0.02768,0.05677-0.14997,0.200413-0.296839,0.272045l-0.511877,0.249658c-0.146869,0.07164-0.369435,0.12321-0.397127,0.06642-0.02769-0.05676,0.149973-0.200409,0.296839-0.272046l0.511882-0.249657z" fill="#326e1e"/>
    <path d="m66.214602-65.673632c0.146874-0.07162,0.369443-0.12319,0.397127-0.06642,0.02768,0.05677-0.149972,0.200412-0.29684,0.272044l-0.331945,0.16187c-0.146868,0.07164-0.369435,0.123209-0.397128,0.06642-0.02769-0.05676,0.149976-0.200403,0.29684-0.272045z" fill="#326e1e"/>
    <path d="m66.014026-66.084871c0.146879-0.07161,0.369445-0.123191,0.397128-0.06642,0.02768,0.05677-0.149971,0.200411-0.29684,0.272043l-0.152079,0.07426c-0.146867,0.07164-0.369435,0.123209-0.397126,0.06642-0.02769-0.05676,0.149991-0.200374,0.296839-0.272044z" fill="#326e1e"/>
    <path d="m65.871283-66.524317c0.145397-0.06925,0.312017-0.09415,0.339295-0.03821,0.02729,0.05595-0.09489,0.171925-0.239009,0.243839-0.002,0.001-0.07916,0.03859-0.0814,0.03971-0.145415,0.06925-0.312006,0.09418-0.339296,0.03822-0.02727-0.05594,0.09492-0.171925,0.239009-0.24384,0.0022-0.0011,0.07916-0.03859,0.0814-0.03971z" fill="#326e1e"/>
    <path d="m65.773435-66.949766c0.100807-0.04806,0.216374-0.06528,0.235289-0.02651,0.01893,0.03881-0.06581,0.119223-0.165745,0.16909-0.0015,0.000742-0.07794,0.03791-0.07932,0.03874-0.100823,0.04806-0.216367,0.06531-0.235289,0.02651-0.01892-0.03879,0.06583-0.119225,0.165746-0.169091,0.0015-0.000743,0.07797-0.03807,0.07932-0.03874z" fill="#326e1e"/>
    <path d="m65.579355-67.394699c-0.001-0.111671-0.03618-0.223092-0.07932-0.223096-0.04318-0.000002-0.07831,0.11141-0.07932,0.223095,0.000004,0.0017,0.00009,0.08667-0.000048,0.08827,0.001,0.111689,0.03615,0.223099,0.07932,0.223097,0.04316-0.000004,0.0783-0.111435,0.07932-0.223097-0.000003-0.0017,0.000033-0.08677,0.000048-0.08827z" fill="#326e1e"/>
   </g>
  </g>
 </g>
</svg>
