<?xml version="1.0" encoding="UTF-8" standalone="no"?>
<!-- Generator: Adobe Illustrator 13.0.0, SVG Export Plug-In  -->

<svg
   xmlns:dc="http://purl.org/dc/elements/1.1/"
   xmlns:cc="http://creativecommons.org/ns#"
   xmlns:rdf="http://www.w3.org/1999/02/22-rdf-syntax-ns#"
   xmlns:svg="http://www.w3.org/2000/svg"
   xmlns="http://www.w3.org/2000/svg"
   xmlns:sodipodi="http://sodipodi.sourceforge.net/DTD/sodipodi-0.dtd"
   xmlns:inkscape="http://www.inkscape.org/namespaces/inkscape"
   version="1.1"
   x="0px"
   y="0px"
   width="361px"
   height="216px"
   viewBox="0 0 361 216"
   enable-background="new 0 0 361 216"
   xml:space="preserve"
   id="svg2"
   inkscape:version="0.47 r22583"
   sodipodi:docname="ZZ2.svg"><metadata
   id="metadata22"><rdf:RDF><cc:Work
       rdf:about=""><dc:format>image/svg+xml</dc:format><dc:type
         rdf:resource="http://purl.org/dc/dcmitype/StillImage" /></cc:Work></rdf:RDF></metadata><sodipodi:namedview
   pagecolor="#ffffff"
   bordercolor="#666666"
   borderopacity="1"
   objecttolerance="10"
   gridtolerance="10"
   guidetolerance="10"
   inkscape:pageopacity="0"
   inkscape:pageshadow="2"
   inkscape:window-width="1280"
   inkscape:window-height="1004"
   id="namedview20"
   showgrid="false"
   inkscape:zoom="1.0925926"
   inkscape:cx="180.5"
   inkscape:cy="108"
   inkscape:window-x="-8"
   inkscape:window-y="-8"
   inkscape:window-maximized="1"
   inkscape:current-layer="svg2" />
<defs
   id="defs4"><inkscape:perspective
   sodipodi:type="inkscape:persp3d"
   inkscape:vp_x="0 : 108 : 1"
   inkscape:vp_y="0 : 1000 : 0"
   inkscape:vp_z="361 : 108 : 1"
   inkscape:persp3d-origin="180.5 : 72 : 1"
   id="perspective24" />
</defs>
<rect
   fill="#05257C"
   width="361"
   height="216"
   id="rect6" />
<path
   fill="#F1EDFB"
   d="M214,93c-7.864-22.868-12.625-47.306-12.625-68c0-2.781,0.277-6.816,0.692-10.781L101.569,143.551  l139.818-4.6C229.37,129.591,220.878,112.998,214,93z"
   id="path8"
   style="fill:#ffffff" />
<polygon
   fill="#F1EDFB"
   points="31.5,11.443 33.375,17.216 39.445,17.216 34.535,20.783 36.409,26.557 31.5,22.989 26.591,26.557   28.465,20.783 23.555,17.216 29.625,17.216 "
   id="polygon10"
   style="fill:#ffffff" />
<polygon
   fill="#F1EDFB"
   points="61.75,17.818 63.625,23.591 69.695,23.591 64.785,27.158 66.659,32.932 61.75,29.364 56.841,32.932   58.715,27.158 53.805,23.591 59.875,23.591 "
   id="polygon12"
   style="fill:#ffffff" />
<polygon
   fill="#F1EDFB"
   points="40.5,50.318 42.375,56.091 48.445,56.091 43.535,59.658 45.409,65.432 40.5,61.864 35.591,65.432   37.465,59.658 32.555,56.091 38.625,56.091 "
   id="polygon14"
   style="fill:#ffffff" />
<polygon
   fill="#F1EDFB"
   points="81.5,59.068 83.375,64.841 89.445,64.841 84.535,68.408 86.409,74.182 81.5,70.614 76.591,74.182   78.465,68.408 73.555,64.841 79.625,64.841 "
   id="polygon16"
   style="fill:#ffffff" />
<path
   fill="#970051"
   d="M159,154.75c-28.574,0-47.311-1.03-69.248-3.241c-0.036,0.711-0.056,1.414-0.05,2.105  c0,8.246,4.173,14.621,11.298,18.886c8.069,4.83,20.5,9.25,73.5,9.25c57.771,0,78.57-7.569,88.625-17.625  c4.556-4.557,5.25-8.889,5.25-11.625c0-2.199-0.229-3.811-0.577-5.089C234.406,153.404,202.562,154.75,159,154.75z"
   id="path18" />
</svg>