<?xml version="1.0" encoding="UTF-8"?>
 <!DOCTYPE svg PUBLIC "-//W3C//DTD SVG 1.1//EN"
   "http://www.w3.org/Graphics/SVG/1.1/DTD/svg11.dtd">
 <svg xmlns="http://www.w3.org/2000/svg" version="1.1"
   xmlns:xlink="http://www.w3.org/1999/xlink" width="1000" height="500">
  <rect width="1000" height="500" x="0" y="0" style="fill:#0073cf;fill-opacity:1;fill-rule:nonzero;stroke:none" />
  <path d="m 532.5994,177.6482 a 32.6014,32.6014 0 0 1 -65.2028,0 32.6014,32.6014 0 1 1 65.2028,0 z" style="fill:#fecb00;fill-opacity:1;fill-rule:nonzero;stroke:none" />
  <path d="M 447.29685,56.274098 C 392.30003,57.305712 335.67718,189.48931 467.82953,256.50689 l 0,187.22354 16.84933,0 0,-191.18117 c -13.95442,-4.57754 -61.79396,-35.45296 -61.79396,-75.90038 0,-16.9206 10.5687,-44.81737 30.72065,-57.67958 12.33035,-7.86998 24.45113,-15.98979 24.45113,-32.601506 0,-16.611714 -13.48198,-30.093696 -30.0937,-30.093696 -0.2156,0 -0.45046,-0.004 -0.66613,0 z m 103.76055,0 c -16.16353,0.512482 -29.11408,13.80643 -29.11408,30.093696 0,16.611716 12.12078,24.731526 24.45113,32.601506 20.15195,12.86221 30.72065,40.75898 30.72065,57.67958 0,40.44742 -47.83954,71.32284 -61.79396,75.90038 l 0,191.18117 16.84933,0 0,-187.22354 c 132.67058,-67.2804 75.06315,-200.232792 19.86655,-200.232792 -0.32445,0 -0.65764,-0.01021 -0.97962,0 z M 359.83704,103.2955 c -14.70132,0.63276 -24.72542,11.40339 -24.72542,28.21284 0,31.19569 54.10269,113.24338 109.63823,133.77588 l 0,178.44621 16.81016,0 0,-185.96963 c -30.53183,-17.05218 -55.59097,-39.05476 -67.5149,-64.61524 -11.30466,-24.233 -11.48106,-41.27713 -11.48106,-50.19535 2e-5,-12.06598 1.05798,-11.0827 1.05798,-18.73019 0,-19.28847 -16.67205,-20.92452 -23.43233,-20.92452 -0.11633,0.004 -0.2369,-0.005 -0.35266,0 z m 278.79772,0 c -7.34023,0.21444 -22.2568,2.69089 -22.2568,20.92452 0,7.64749 1.05797,6.66421 1.05799,18.73019 0,8.91822 -0.1764,25.96235 -11.48106,50.19535 -11.92393,25.56048 -36.98307,47.56306 -67.5149,64.61524 l 0,185.96963 16.81015,0 0,-178.44621 c 55.53555,-20.5325 109.63824,-102.58019 109.63824,-133.77588 0,-16.94181 -10.18717,-27.73606 -25.07808,-28.21284 -0.36971,0 -0.75089,-0.0124 -1.17554,0 z m -316.72831,47.33487 c -8.08983,0.41038 -15.63462,6.50693 -15.63462,17.86814 0,3.73602 -0.26254,8.9465 9.83531,21.39473 28.64909,35.31746 91.54371,78.55494 105.52386,81.6605 l 0,172.17669 16.84933,0 0,-177.19231 c -32.37766,-14.31219 -78.97285,-59.95639 -99.3327,-105.01446 -3.46142,-7.6604 -10.53819,-11.23331 -17.24118,-10.89329 z m 354.46298,0 c -6.15668,0.3038 -12.35402,3.89328 -15.51706,10.89329 -20.35985,45.05807 -66.95504,90.70227 -99.33271,105.01446 l 0,177.19231 16.84934,0 0,-172.17669 c 13.98015,-3.10556 76.87477,-46.34304 105.52386,-81.6605 10.09785,-12.44823 9.83531,-17.65871 9.83531,-21.39473 0,-12.17273 -8.64645,-18.29802 -17.35874,-17.86814 z m -374.643,38.75347 c -8.03074,0.55878 -13.63621,9.10958 -13.63621,14.22398 0,18.14818 83.18015,72.90156 107.75738,75.46934 l 0,164.65327 19.51388,0 0,-170.92279 c -19.12987,-8.38365 -80.36281,-52.67982 -98.39228,-74.80321 -5.4791,-6.72323 -10.73772,-8.93405 -15.24277,-8.62059 z m 394.90139,0 c -4.12068,0.27815 -8.77303,2.70123 -13.59702,8.62059 -18.02947,22.12339 -79.26241,66.41956 -98.39228,74.80321 l 0,170.92279 19.51388,0 0,-164.65327 c 24.57723,-2.56778 107.75738,-57.32116 107.75738,-75.46934 0,-5.45743 -6.37927,-14.8249 -15.28196,-14.22398 z m -205.67944,63.75319 0,190.5934 9.05162,0 9.05162,0 0,-190.5934 -9.05162,0 -9.05162,0 z" style="fill:#ffffff;fill-opacity:1;fill-rule:nonzero;stroke:none" />
 </svg>
