<?xml version="1.0" encoding="UTF-8" standalone="no"?>
<!-- Creator: CorelDRAW -->

<svg
   xmlns:dc="http://purl.org/dc/elements/1.1/"
   xmlns:cc="http://creativecommons.org/ns#"
   xmlns:rdf="http://www.w3.org/1999/02/22-rdf-syntax-ns#"
   xmlns:svg="http://www.w3.org/2000/svg"
   xmlns="http://www.w3.org/2000/svg"
   xmlns:sodipodi="http://sodipodi.sourceforge.net/DTD/sodipodi-0.dtd"
   xmlns:inkscape="http://www.inkscape.org/namespaces/inkscape"
   xml:space="preserve"
   x="-132.87421"
   y="88.58268"
   width="900"
   height="600.10156"
   viewBox="-1476 0 9997.4256 6666.1012"
   id="svg2"
   version="1.1"
   inkscape:version="0.48.4 r9939"
   sodipodi:docname="中華奧委會.svg"><metadata
   id="metadata41"><rdf:RDF><cc:Work
       rdf:about=""><dc:format>image/svg+xml</dc:format><dc:type
         rdf:resource="http://purl.org/dc/dcmitype/StillImage" /></cc:Work></rdf:RDF></metadata><sodipodi:namedview
   pagecolor="#ffffff"
   bordercolor="#666666"
   borderopacity="1"
   objecttolerance="10"
   gridtolerance="10"
   guidetolerance="10"
   inkscape:pageopacity="0"
   inkscape:pageshadow="2"
   inkscape:window-width="1920"
   inkscape:window-height="1028"
   id="namedview39"
   showgrid="false"
   inkscape:zoom="1"
   inkscape:cx="404.82558"
   inkscape:cy="339.98977"
   inkscape:window-x="-8"
   inkscape:window-y="-8"
   inkscape:window-maximized="1"
   inkscape:current-layer="svg2"
   fit-margin-top="0"
   fit-margin-left="0"
   fit-margin-right="0"
   fit-margin-bottom="0" />
 <defs
   id="defs4">
  <style
   type="text/css"
   id="style6">
   
    .fil6 {fill:#009240}
    .fil4 {fill:#1F1A17}
    .fil2 {fill:#DA251D}
    .fil0 {fill:#FFFFFF}
    .fil3 {fill:#0077BD}
    .fil1 {fill:#29166F}
    .fil5 {fill:#F1A737}
   
  </style>
 
  
  
  
  
  
  
  
  
  
  
  
  
  
  
  
 </defs>
 <g
   id="g3813"
   transform="matrix(3.3855264,0,0,3.3855264,3521.032,0)"><rect
     id="74923296"
     class="fil0"
     x="-1476"
     y="0"
     width="2953"
     height="1969"
     style="fill:#ffffff" /><g
     style="fill:#29166f;fill-opacity:1"
     id="g10">
   <ellipse
   id="74923384"
   class="fil1"
   cx="0"
   cy="631"
   rx="433"
   ry="433"
   sodipodi:cx="0"
   sodipodi:cy="631"
   sodipodi:rx="433"
   sodipodi:ry="433"
   style="fill:#29166f;fill-opacity:1"
   d="m 433,631 c 0,239.1393 -193.8607,433 -433,433 -239.1393,0 -433,-193.8607 -433,-433 0,-239.1393 193.8607,-433 433,-433 239.1393,0 433,193.8607 433,433 z" />
   <path
   id="74923472"
   class="fil1"
   d="m -784,767 c 74,-226 319,-351 546,-278 226,74 351,319 278,546 -74,227 -319,352 -546,278 -227,-74 -352,-319 -278,-546 z"
   inkscape:connector-curvature="0"
   style="fill:#29166f;fill-opacity:1" />
   <path
   id="74923560"
   class="fil1"
   d="m -485,1689 c -193,-140 -236,-412 -95,-605 140,-193 412,-236 604,-96 193,141 236,412 96,605 -140,193 -412,236 -605,96 z"
   inkscape:connector-curvature="0"
   style="fill:#29166f;fill-opacity:1" />
   <path
   id="74923648"
   class="fil1"
   d="m 485,1689 c -193,140 -465,97 -605,-96 -140,-193 -97,-464 96,-605 192,-140 464,-97 604,96 141,193 98,465 -95,605 z"
   inkscape:connector-curvature="0"
   style="fill:#29166f;fill-opacity:1" />
   <path
   id="74923736"
   class="fil1"
   d="M 784,767 C 858,994 733,1239 506,1313 279,1387 34,1262 -40,1035 -113,808 12,563 238,489 465,416 710,541 784,767 z"
   inkscape:connector-curvature="0"
   style="fill:#29166f;fill-opacity:1" />
  </g><g
     id="g17">
   <ellipse
   id="74923912"
   class="fil0"
   cx="0"
   cy="631"
   rx="366"
   ry="366"
   sodipodi:cx="0"
   sodipodi:cy="631"
   sodipodi:rx="366"
   sodipodi:ry="366"
   style="fill:#ffffff"
   d="M 366,631 C 366,833.13622 202.13622,997 0,997 -202.13622,997 -366,833.13622 -366,631 -366,428.86378 -202.13622,265 0,265 c 202.13622,0 366,163.86378 366,366 z" />
   <path
   id="74924000"
   class="fil0"
   d="m -720,788 c 62,-192 269,-297 461,-235 192,62 297,270 235,461 -62,192 -270,298 -461,235 -192,-62 -298,-269 -235,-461 z"
   inkscape:connector-curvature="0"
   style="fill:#ffffff" />
   <path
   id="74924088"
   class="fil0"
   d="m -445,1635 c -163,-118 -200,-348 -81,-511 118,-164 348,-200 511,-81 163,118 200,348 81,511 -118,163 -348,200 -511,81 z"
   inkscape:connector-curvature="0"
   style="fill:#ffffff" />
   <path
   id="74924176"
   class="fil0"
   d="m 445,1635 c -163,119 -393,82 -511,-81 -119,-163 -82,-393 81,-511 163,-119 393,-83 511,81 119,163 82,393 -81,511 z"
   inkscape:connector-curvature="0"
   style="fill:#ffffff" />
   <path
   id="74924264"
   class="fil0"
   d="M 720,788 C 783,980 677,1187 485,1249 294,1312 86,1206 24,1014 -38,823 67,615 259,553 451,491 658,596 720,788 z"
   inkscape:connector-curvature="0"
   style="fill:#ffffff" />
  </g><path
     id="74924440"
     class="fil2"
     d="m 692,797 c 51,157 -22,325 -165,396 73,142 34,321 -99,418 -133,97 -316,79 -428,-35 -112,114 -295,132 -428,35 -133,-97 -172,-276 -99,-418 -143,-71 -216,-239 -165,-396 51,-156 209,-249 367,-223 23,-158 160,-280 325,-280 165,0 302,122 325,280 158,-26 316,67 367,223 z"
     inkscape:connector-curvature="0"
     style="fill:#da251d;fill-opacity:1" /><path
     id="74924528"
     class="fil0"
     d="m 650,811 c 48,149 -34,310 -183,359 -2,1 -4,1 -6,2 1,2 2,4 4,5 92,127 63,306 -63,398 -127,92 -306,64 -398,-63 -1,-2 -3,-4 -4,-6 -1,2 -3,4 -4,6 -92,127 -271,155 -398,63 -126,-92 -155,-271 -63,-398 2,-1 3,-3 4,-5 -2,-1 -4,-1 -6,-2 -149,-49 -231,-210 -183,-359 49,-149 210,-231 359,-183 2,1 4,2 6,3 0,-3 0,-5 0,-7 0,-157 128,-285 285,-285 157,0 285,128 285,285 0,2 0,4 0,6 2,0 4,-1 6,-2 149,-48 310,34 359,183 z"
     inkscape:connector-curvature="0"
     style="fill:#ffffff" /><ellipse
     id="74924616"
     class="fil1"
     cx="0"
     cy="787"
     rx="231"
     ry="231"
     sodipodi:cx="0"
     sodipodi:cy="787"
     sodipodi:rx="231"
     sodipodi:ry="231"
     style="fill:#29166f;fill-opacity:1"
     d="m 231,787 c 0,127.57778 -103.42222,231 -231,231 -127.57778,0 -231,-103.42222 -231,-231 0,-127.57778 103.42222,-231 231,-231 127.57778,0 231,103.42222 231,231 z" /><g
     id="g27">
   <ellipse
   id="74924704"
   class="fil0"
   cx="0"
   cy="787"
   rx="103"
   ry="103"
   sodipodi:cx="0"
   sodipodi:cy="787"
   sodipodi:rx="103"
   sodipodi:ry="103"
   style="fill:#ffffff"
   d="m 103,787 c 0,56.88533 -46.114671,103 -103,103 -56.885329,0 -103,-46.11467 -103,-103 0,-56.88533 46.114671,-103 103,-103 56.885329,0 103,46.11467 103,103 z" />
   <path
   id="74924792"
   class="fil0"
   d="m 0,581 24,92 c -7,-2 -16,-3 -24,-3 -8,0 -17,1 -24,3 L 0,581 z m 36,95 67,-68 -25,92 C 66,690 52,681 36,676 z m 51,33 92,-25 -68,67 C 106,735 98,721 87,709 z m 28,54 92,24 -92,25 c 1,-8 2,-16 2,-25 0,-8 -1,-16 -2,-24 z m -4,60 68,68 -92,-25 c 11,-12 19,-27 24,-43 z m -33,51 25,92 -67,-67 c 16,-5 30,-14 42,-25 z M 24,902 0,994 -24,902 c 7,2 16,2 24,2 8,0 17,0 24,-2 z m -60,-3 -67,67 25,-92 c 12,11 26,20 42,25 z m -51,-33 -92,25 68,-68 c 5,16 13,31 24,43 z m -28,-54 -92,-25 92,-24 c -1,8 -2,16 -2,24 0,9 1,17 2,25 z m 4,-61 -68,-67 92,25 c -11,12 -19,26 -24,42 z m 33,-51 -25,-92 67,68 c -16,5 -30,14 -42,24 z"
   inkscape:connector-curvature="0"
   style="fill:#ffffff" />
  </g><path
     id="74922944"
     class="fil3"
     d="m -305,1076 c 77,0 140,63 140,139 0,77 -63,140 -140,140 -77,0 -140,-63 -140,-140 0,-76 63,-139 140,-139 z"
     inkscape:connector-curvature="0"
     style="fill:#0077bd" /><path
     id="74922856"
     class="fil0"
     d="m -305,1105 c 61,0 110,50 110,110 0,61 -49,111 -110,111 -61,0 -110,-50 -110,-111 0,-60 49,-110 110,-110 z"
     inkscape:connector-curvature="0"
     style="fill:#ffffff" /><path
     id="74922416"
     class="fil4"
     d="m 0,1076 c 77,0 140,63 140,139 0,77 -63,140 -140,140 -77,0 -140,-63 -140,-140 0,-76 63,-139 140,-139 z"
     inkscape:connector-curvature="0"
     style="fill:#000000" /><path
     id="74922328"
     class="fil0"
     d="m 0,1105 c 61,0 110,50 110,110 0,61 -49,111 -110,111 -61,0 -110,-50 -110,-111 0,-60 49,-110 110,-110 z"
     inkscape:connector-curvature="0"
     style="fill:#ffffff" /><path
     id="74921888"
     class="fil2"
     d="m 306,1076 c 77,0 140,63 140,139 0,77 -63,140 -140,140 -77,0 -140,-63 -140,-140 0,-76 63,-139 140,-139 z"
     inkscape:connector-curvature="0"
     style="fill:#da251d" /><path
     id="74921800"
     class="fil0"
     d="m 306,1105 c 60,0 110,50 110,110 0,61 -50,111 -110,111 -61,0 -110,-50 -110,-111 0,-60 49,-110 110,-110 z"
     inkscape:connector-curvature="0"
     style="fill:#ffffff" /><path
     id="74925232"
     class="fil5"
     d="m -153,1202 c 71,0 130,54 139,123 -12,-2 -22,-5 -32,-9 -12,-49 -55,-85 -107,-85 -5,0 -9,0 -13,1 0,-5 1,-11 1,-17 0,-4 -1,-8 -1,-13 4,0 9,0 13,0 z m 139,153 c -7,70 -67,126 -139,126 -77,0 -140,-63 -140,-140 0,-62 41,-115 98,-133 0,3 0,5 0,7 0,9 -1,18 -3,26 -38,17 -65,56 -65,100 0,61 49,111 110,111 58,0 106,-46 110,-104 9,3 19,6 29,7 z"
     inkscape:connector-curvature="0"
     style="fill:#f1a737" /><path
     id="74925320"
     class="fil6"
     d="m 153,1202 c 72,0 131,54 139,123 -11,-2 -22,-5 -32,-9 -11,-49 -55,-85 -107,-85 -5,0 -9,1 -14,1 0,-5 1,-11 1,-17 0,-4 0,-8 -1,-13 5,0 9,0 14,0 z m 139,153 c -6,70 -66,126 -139,126 -77,0 -140,-63 -140,-140 0,-61 41,-114 97,-132 0,2 0,4 0,6 0,9 -1,18 -3,26 -38,18 -64,56 -64,100 0,61 49,111 110,111 59,0 106,-46 110,-103 10,3 19,5 29,6 z"
     inkscape:connector-curvature="0"
     style="fill:#009240;fill-opacity:1" /></g>
</svg>