<?xml version="1.0" encoding="utf-8"?>
<!DOCTYPE svg PUBLIC "-//W3C//DTD SVG 1.1//EN" "http://www.w3.org/Graphics/SVG/1.1/DTD/svg11.dtd">
<svg version="1.1" xmlns="http://www.w3.org/2000/svg" xmlns:xlink="http://www.w3.org/1999/xlink" x="0px" y="0px" width="571px" height="326px" viewBox="0 0 571 326" enable-background="new 0 0 571 326" xml:space="preserve">
<defs></defs>
<rect x="0" y="217.2" fill="#000080" width="570.945" height="108.6"/>
<rect x="0" y="108.601" fill="#231F20" width="570.945" height="108.6"/>
<rect x="0" fill="#008000" width="570.945" height="108.601"/>
<polygon fill="#FFFFFF" points="285.473,108.601 298.951,150.081 342.567,150.081 307.281,175.719 320.759,217.2 285.473,191.563 250.187,217.2 263.664,175.719 228.378,150.081 271.994,150.081 "/>
<polygon fill="#FFFFFF" points="171.284,108.601 184.762,150.081 228.378,150.081 193.092,175.72 206.57,217.2 171.284,191.563 135.998,217.2 149.475,175.72 114.189,150.081 157.805,150.081 "/>
<polygon fill="#FFFFFF" points="57.095,108.601 70.573,150.081 114.189,150.081 78.903,175.718 92.381,217.2 57.095,191.563 21.809,217.2 35.286,175.718 0,150.081 43.616,150.081 "/>
<polygon fill="#FFFFFF" points="399.662,108.601 413.141,150.081 456.756,150.081 421.471,175.718 434.947,217.2 399.662,191.563 364.375,217.2 377.854,175.718 342.566,150.081 386.184,150.081 "/>
<polygon fill="#FFFFFF" points="513.852,108.601 527.33,150.081 570.945,150.081 535.66,175.72 549.137,217.2 513.852,191.563 478.564,217.2 492.043,175.72 456.756,150.081 500.373,150.081 "/>
</svg>