<?xml version="1.0" encoding="utf-8"?>
<!-- Generator: Adobe Illustrator 15.0.0, SVG Export Plug-In . SVG Version: 6.00 Build 0)  -->
<!DOCTYPE svg PUBLIC "-//W3C//DTD SVG 1.1//EN" "http://www.w3.org/Graphics/SVG/1.1/DTD/svg11.dtd">
<svg version="1.1"
	 id="svg2" inkscape:version="0.48.2 r9819" sodipodi:docname="AJAX1.svg" xmlns:dc="http://purl.org/dc/elements/1.1/" xmlns:cc="http://creativecommons.org/ns#" xmlns:rdf="http://www.w3.org/1999/02/22-rdf-syntax-ns#" xmlns:svg="http://www.w3.org/2000/svg" xmlns:sodipodi="http://sodipodi.sourceforge.net/DTD/sodipodi-0.dtd" xmlns:inkscape="http://www.inkscape.org/namespaces/inkscape"
	 xmlns="http://www.w3.org/2000/svg" xmlns:xlink="http://www.w3.org/1999/xlink" x="0px" y="0px" width="4000px" height="2400px"
	 viewBox="0 0 4000 2400" enable-background="new 0 0 4000 2400" xml:space="preserve">
<metadata><?xpacket begin="﻿" id="W5M0MpCehiHzreSzNTczkc9d"?>
<x:xmpmeta xmlns:x="adobe:ns:meta/" x:xmptk="Adobe XMP Core 5.0-c060 61.134777, 2010/02/12-17:32:00        ">
   <rdf:RDF xmlns:rdf="http://www.w3.org/1999/02/22-rdf-syntax-ns#">
      <rdf:Description rdf:about=""
            xmlns:xmpTPg="http://ns.adobe.com/xap/1.0/t/pg/"
            xmlns:stDim="http://ns.adobe.com/xap/1.0/sType/Dimensions#"
            xmlns:xmpG="http://ns.adobe.com/xap/1.0/g/">
         <xmpTPg:MaxPageSize rdf:parseType="Resource">
            <stDim:w>4000.000000</stDim:w>
            <stDim:h>2400.000000</stDim:h>
            <stDim:unit>Pixels</stDim:unit>
         </xmpTPg:MaxPageSize>
         <xmpTPg:NPages>1</xmpTPg:NPages>
         <xmpTPg:HasVisibleTransparency>False</xmpTPg:HasVisibleTransparency>
         <xmpTPg:HasVisibleOverprint>False</xmpTPg:HasVisibleOverprint>
         <xmpTPg:PlateNames>
            <rdf:Seq>
               <rdf:li>Cyan</rdf:li>
               <rdf:li>Magenta</rdf:li>
               <rdf:li>Yellow</rdf:li>
               <rdf:li>Black</rdf:li>
            </rdf:Seq>
         </xmpTPg:PlateNames>
         <xmpTPg:SwatchGroups>
            <rdf:Seq>
               <rdf:li rdf:parseType="Resource">
                  <xmpG:groupName>Default Swatch Group</xmpG:groupName>
                  <xmpG:groupType>0</xmpG:groupType>
               </rdf:li>
            </rdf:Seq>
         </xmpTPg:SwatchGroups>
      </rdf:Description>
      <rdf:Description rdf:about=""
            xmlns:dc="http://purl.org/dc/elements/1.1/">
         <dc:format>image/svg+xml</dc:format>
      </rdf:Description>
      <rdf:Description rdf:about=""
            xmlns:xmp="http://ns.adobe.com/xap/1.0/"
            xmlns:xmpGImg="http://ns.adobe.com/xap/1.0/g/img/">
         <xmp:CreatorTool>Adobe Illustrator CS5</xmp:CreatorTool>
         <xmp:CreateDate>2013-03-20T13:26:14-04:00</xmp:CreateDate>
         <xmp:Thumbnails>
            <rdf:Alt>
               <rdf:li rdf:parseType="Resource">
                  <xmpGImg:width>256</xmpGImg:width>
                  <xmpGImg:height>156</xmpGImg:height>
                  <xmpGImg:format>JPEG</xmpGImg:format>
                  <xmpGImg:image>/9j/4AAQSkZJRgABAgEASABIAAD/7QAsUGhvdG9zaG9wIDMuMAA4QklNA+0AAAAAABAASAAAAAEA&#xA;AQBIAAAAAQAB/+4ADkFkb2JlAGTAAAAAAf/bAIQABgQEBAUEBgUFBgkGBQYJCwgGBggLDAoKCwoK&#xA;DBAMDAwMDAwQDA4PEA8ODBMTFBQTExwbGxscHx8fHx8fHx8fHwEHBwcNDA0YEBAYGhURFRofHx8f&#xA;Hx8fHx8fHx8fHx8fHx8fHx8fHx8fHx8fHx8fHx8fHx8fHx8fHx8fHx8fHx8f/8AAEQgAnAEAAwER&#xA;AAIRAQMRAf/EAaIAAAAHAQEBAQEAAAAAAAAAAAQFAwIGAQAHCAkKCwEAAgIDAQEBAQEAAAAAAAAA&#xA;AQACAwQFBgcICQoLEAACAQMDAgQCBgcDBAIGAnMBAgMRBAAFIRIxQVEGE2EicYEUMpGhBxWxQiPB&#xA;UtHhMxZi8CRygvElQzRTkqKyY3PCNUQnk6OzNhdUZHTD0uIIJoMJChgZhJRFRqS0VtNVKBry4/PE&#xA;1OT0ZXWFlaW1xdXl9WZ2hpamtsbW5vY3R1dnd4eXp7fH1+f3OEhYaHiImKi4yNjo+Ck5SVlpeYmZ&#xA;qbnJ2en5KjpKWmp6ipqqusra6voRAAICAQIDBQUEBQYECAMDbQEAAhEDBCESMUEFURNhIgZxgZEy&#xA;obHwFMHR4SNCFVJicvEzJDRDghaSUyWiY7LCB3PSNeJEgxdUkwgJChgZJjZFGidkdFU38qOzwygp&#xA;0+PzhJSktMTU5PRldYWVpbXF1eX1RlZmdoaWprbG1ub2R1dnd4eXp7fH1+f3OEhYaHiImKi4yNjo&#xA;+DlJWWl5iZmpucnZ6fkqOkpaanqKmqq6ytrq+v/aAAwDAQACEQMRAD8A4zoPlPzPr7ldE0q71EIy&#xA;pK9tBJKkZf7PqMisE+nOpnkjHmQHSRgZcgnn5h/lh5l8n61qUE1hdyaNaTcLfWGgkFvJHJQx/vuI&#xA;j5UYAgH7VRleDURyAbi+5nkxGJPc9R8h/ll+VGp+T9Kv9V83x2Oo3EAe5tDd2cZjep+HhJ8Q+nOd&#xA;1sI+LLfq992X2rrcemhGGIyiBseGW6ff8qg/JT/qeov+k6w/pmLwR73P/lnX/wCoH/Szd/yqD8lP&#xA;+p6i/wCk6w/pjwR71/lnX/6gf9LN3/KoPyU/6nqL/pOsP6Y8Ee9f5Z1/+oH/AEs3f8qg/JT/AKnq&#xA;L/pOsP6Y8Ee9f5Z1/wDqB/0s3f8AKoPyU/6nqL/pOsP6Y8Ee9f5Z1/8AqB/0s3nP5uf+TK8wf8xT&#xA;f8RGVz5u87G/xTH/AFWI5F2bsVdirsVdirsVdirsVdirsVdirsVdirsVdirsVdirsVdirsVdirsV&#xA;diq38s/OMXk/zbb6/KLiVLSOUraW7+n67tGVjjleu0XMhm2bp9nOz1GLxI8L4FinwytNfzW/NOX8&#xA;wTpF5cwyWl9ZQyQXdojlrMnnySaFWYsruGKvUfsrue0NNp/CsdPtZZsvHT0PyHB/zjw3k/Sj5huZ&#xA;E1owD68oF/QSVNf7pCn/AAOc/reDxZX3ve9ly7T/AC0PCA8Otvo/SbT76t/ziz/y1y/dqf8AzRmL&#xA;6HP4u2O4f7D9bvq3/OLP/LXL92p/80Y+heLtjuH+w/W76t/ziz/y1y/dqf8AzRj6F4u2O4f7D9bv&#xA;q3/OLP8Ay1y/dqf/ADRj6F4u2O4f7D9bvq3/ADiz/wAtcv3an/zRj6F4u2O4f7D9bzn83P8AyZXm&#xA;D/mKb/iIyufN3nY3+KY/6rEci7N2KuxV2KuxV2KuxV2KuxV2KuxV2KuxV2KuxV2KuxV2KuxV2Kux&#xA;V2KuxV7B/in/AJxo/wCpLu/+Rcf/AGV5sP5Qn3l89/0IZu/H9v8AxLv8U/8AONH/AFJd3/yLj/7K&#xA;8f5Qn3lf9CGbvx/b/wASmEH5j/8AOPcEKQx+TZhGgovK0tWNP9Zrgk5jzyiRs83Pxdi9oY4iMcoE&#xA;RyAlL/iVT/lZ3/OP/wD1Jsv/AEhWf/VfI8ce5s/krtL/AFYf6aX/ABLv+Vnf84//APUmy/8ASFZ/&#xA;9V8eOPcv8ldpf6sP9NL/AIl3/Kzv+cf/APqTZf8ApCs/+q+PHHuX+Su0v9WH+ml/xLv+Vnf84/8A&#xA;/Umy/wDSFZ/9V8eOPcv8ldpf6sP9NL/iXf8AKzv+cf8A/qTZf+kKz/6r48ce5f5K7S/1Yf6aX/Ev&#xA;Ofzc/wDJleYP+Ypv+IjK583edjf4pj/qsRyLs3Yq7FXYq7FXYq7FXYq7FXYq7FXYq7FXYq7FXYq7&#xA;FXYq7FXYq7FXYq7FX0Z/yujX/wDy2d198n/ZHl/iHueH/kPH/wApMfs/4t3/ACujX/8Ay2d198n/&#xA;AGR4+Ie5f5Dx/wDKTH7P+Ld/yujX/wDy2d198n/ZHj4h7l/kPH/ykx+z/i3f8ro1/wD8tndffJ/2&#xA;R4+Ie5f5Dx/8pMfs/wCLd/yujX//AC2d198n/ZHj4h7l/kPH/wApMfs/4t3/ACujX/8Ay2d198n/&#xA;AGR4+Ie5f5Dx/wDKTH7P+Ld/yujX/wDy2d198n/ZHj4h7l/kPH/ykx+z/i3f8ro1/wD8tndffJ/2&#xA;R4+Ie5f5Dx/8pMfs/wCLeQ/m5/5MrzB/zFN/xEZVPm9L2N/imP8AqsRyLs3Yq7FXYq7FXYq7FXYq&#xA;7FXYq7FXYq7FXYq7FXYq7FXYq7FXYq7FXYq7FX0J/wArQ/Pf/qWbD/kXL/2VZfxy7niv5K7O/wBU&#xA;n9n/ABLv+Vofnv8A9SzYf8i5f+yrHjl3L/JXZ3+qT+z/AIl3/K0Pz3/6lmw/5Fy/9lWPHLuX+Suz&#xA;v9Un9n/Eu/5Wh+e//Us2H/IuX/sqx45dy/yV2d/qk/s/4l3/ACtD89/+pZsP+Rcv/ZVjxy7l/krs&#xA;7/VJ/Z/xLv8AlaH57/8AUs2H/IuX/sqx45dy/wAldnf6pP7P+Jd/ytD89/8AqWbD/kXL/wBlWPHL&#xA;uX+Suzv9Un9n/Eu/5Wh+e/8A1LNh/wAi5f8Asqx45dy/yV2d/qk/s/4l5R+bLo/5j6+6MGU3RowN&#xA;QfhHcZVPm9H2OK0uP+qxLIuydirsVdirsVVrGxvtQkMVhazXjqaOLeN5eJ/yygIX/ZZOGKUuQcDV&#xA;dqabBtkmAe7mfkN0+g/LjzxLQnSXiU/tSTW428aCQt+GXjRZC6iftZpI8uM+4frIdP8Alx54iqRp&#xA;LyqP2o5rc7eNDIG/DE6LIFh7WaSXPjHvH6iUhvrG+0+QRX9rNZuxoguI3i5H/ILgBv8AY5RPFKPM&#xA;O30vammz7Y5gnu5H5HdRyDnuxV2KuxV2KuxV2KuxV2KuxV2KuxV2KuxV2KuxV2KuxV2KuxV2KuxV&#xA;2KuxV2KuxVUtra5u7mK0tImuLqc8YYIxVmNK7fIbknYDc7ZKEDI0HF1esx6eBnkND7/IPVvK35RW&#xA;NuqXXmAi9ueosVJ+rJ7P0Mp+fw/5J65tcOjjHeW5fO+0vaTPqCYwPh4/Lmfef1PQbe2t7aBILeJI&#xA;YIxxjijUIijwVRQDMynnVTFViTwPI8SSK0kdPUQEFlr05DtXBaofVZNNi064k1P0/wBHqhNyJgGj&#xA;KeDKQeVfCm+CcgBZ5K81vPy70rzDpEeueWEfTJJ+bLptxQRMEdk2Cl/SLcduJK0/ZHXME6eGWPFD&#xA;a3ouzPaTNgIjM+Jj8+Y9x/W85uba5tLmW0u4mt7qA8ZoJBRlNK7/ADG4I2I3G2a6cDE0X0TSazHq&#xA;ICeM2Pu8ip5FynYq7FXYq7FXYq7FXYq7FXYq7FXYq+k/+hYPKP8A1ddQ++H/AKp5keCHhP8ARXn/&#xA;AJsPt/W7/oWDyj/1ddQ++H/qnj4IX/RXn/mw+39bv+hYPKP/AFddQ++H/qnj4IX/AEV5/wCbD7f1&#xA;u/6Fg8o/9XXUPvh/6p4+CF/0V5/5sPt/W7/oWDyj/wBXXUPvh/6p4+CF/wBFef8Amw+39bv+hYPK&#xA;P/V11D74f+qePghf9Fef+bD7f1u/6Fg8o/8AV11D74f+qePghf8ARXn/AJsPt/W7/oWDyj/1ddQ+&#xA;+H/qnj4IX/RXn/mw+39bv+hYPKP/AFddQ++H/qnj4IX/AEV5/wCbD7f1u/6Fg8o/9XXUPvh/6p4+&#xA;CF/0V5/5sPt/W7/oWDyj/wBXXUPvh/6p4+CF/wBFef8Amw+39aC1v/nHnyDouk3Wq6jrV/FZ2iF5&#xA;XrBU9lVRw3ZmIVR3JpgOMAWSo9qs5/gj9v63kPl7W7jy3qFxdaXFFMk54lLtebiINUIkqemVNOp4&#xA;0J349ANbi7YOORqIMftcHtEz1ZEshojoOQepeVPPWna+7WvptaakiGR7VzzVkBALxyAAMASK1AI8&#xA;KUOdDo9fjzj08+55/PppYzuyXM1oYv8AmDq95p+kwxWcphmvZvReZah0iEbO5Rv2WPELXqK1G+41&#xA;vauqlhwmUfqOzDJLhFvMktYI3WSNfTmQkrMhKygk1JEgIepPU13ziRqcglxCRv3uF4kru24llige&#xA;ziKpp8kkdw9uopWaMMobY0NQ4J26quXDXT8E475m2Xinhpnf5f8Ama1W3j0G9kEVzEWFg7UCzRkl&#xA;gin/AH5H0491oRX4qdT2Pro5cYgfri5OKfEEz86+SrDzDBFMylb+1NY5IyqNJHWrQszBhRv2SR8L&#xA;b9Kg7LPgGQebtuze08ukycUOR5joUdo//OOvkXV9Nt9RstY1Bre4XkvL0QykEqyOvp/C6MCrKehB&#xA;Gas4Q9H/AKK8382H2/rRn/QsHlH/AKuuoffD/wBU8fBCf9Fef+bD7f1u/wChYPKP/V11D74f+qeP&#xA;ghf9Fef+bD7f1u/6Fg8o/wDV11D74f8Aqnj4IX/RXn/mw+39bv8AoWDyj/1ddQ++H/qnj4IX/RXn&#xA;/mw+39bv+hYPKP8A1ddQ++H/AKp4+CF/0V5/5sPt/W7/AKFg8o/9XXUPvh/6p4+CF/0V5/5sPt/W&#xA;7/oWDyj/ANXXUPvh/wCqePghf9Fef+bD7f1u/wChYPKP/V11D74f+qePghf9Fef+bD7f1u/6Fg8o&#xA;/wDV11D74f8Aqnj4IX/RXn/mw+39bv8AoWDyj/1ddQ++H/qnj4IX/RXn/mw+39bv+hYPKP8A1ddQ&#xA;++H/AKp4+CF/0V5/5sPt/W9ly15Z2KuxV2KuxV2KuxV2KuxV2KuxV4T/AM5E+bne6tPK9s9IoQLu&#xA;/KnrI1RFGaGo4rViDseSntmq7Uz1EQHX7nN0eOzxdzxTNE7FMfLNw9t5m0mdDRhdxR/ROfQb/hZD&#xA;mx7KmY6iPns4utjeIvd87d59jH5hfokaJEdRSZ2+sILP6uypIJirCoLgpQR868gR9NMwO0jiGE+I&#xA;LixnVb8nm0axPIyLdLCnWM36PE1P8p7ZLmL6Twr/AC5yo0enyH0ZOEd0nG8OB5Fi915vuY5/TS1Q&#xA;FZWiKszFpCKheHwrQMwFCexrlf5EC/VfmOTl4uzxIfULTixvrDWLNioDoDxljPVWG4II+hlYfPMS&#xA;cJ4ZDoejhZMcsUqPN695Bvby78swPdzPcyxPLCLiQ1d1jkZV5N+0QBxJ6mm++d32fmlkwRlLmXLi&#xA;bALOvImomx1yfSn2tNTVrq28EuogBMg/4yx0cKO6O3U46mFG3JxS6PQcxm12KuxV2KuxV2KuxV2K&#xA;uxV2KuxV2KuxV2KuxV2KuxV2KuxV2KuxV2Kvjzz7q0mrectYv2cSLLdSCFx3hRuEPTwjVRnM6+fF&#xA;lPls7fTRqASHMNvcGlRlkhcxTRsskMq9UdCGRhXwYA5ZiyGEhIcwxnASBB6vbPJ3mJ9e0VLyaIQ3&#xA;SOYblEJKeooB5JXfiysDQ9Om9K53ek1IzYxMbW85nxeHIxTPUdOsdRs5LO+iWe2lFHRvbcEEUKkH&#xA;cEbjtl84CQoiw1PA7q9nsdTubBLm3vVgkZYWEi1kiJrG4kjLq1VIrRdjsd84bW6OOPIQL4ehG4/H&#xA;xbo9mwyRuEqPcVQ6hptzC8N6FiDfC8NxQA/6pPwt9BzCGOUTcd/c4GXS5cUtwyL8vdP8kXcNxot1&#xA;FbGW2JuYLuO4aGeVJ3PNZHjdGbgQAN6UptUVPT9nyx58fDmiLj39XIiZZRchunFz50t9LZbLTo+F&#xA;vbKY0hT4I1+FgOtSTUqW6/EDueVcxc/bHhy4YDl8uv7PiDR3e70Ps5injBlKIuuu/Mf8eA8pCwDF&#xA;OvL3neO4vLG7U8HsbyCTk5HJITIIZqk0BrbPJ3qSTtQZnaXtEZ4kfj8fpPcHU9q9kDTEEEH3de+v&#xA;d8gAN7NPobL3TuxV2KuxV2KuxV2KuxV2KuxV2KuxV2KuxV2KuxV2KuxV2KuxV2KuxV8PsasSWLVP&#xA;2iak+5J65yWo/vJf1j97u8X0j3NZUzdir0X8qtbsEtrjRpXEV80zTwhjQTIyqDwr+0nGhXwofGnX&#xA;di6iBxcH8QdJ2hikJ8XQs61Kxi1DTrqwmJWK7hkgkZftBZFKGla70ObiUbBHe4Dxq/02ezu59N1G&#xA;NGntzRtqpIpHwSKD+y69uxqO2ef63Sy0+Qx+TgZIGJSu402yVlS3YWtw9RFHGKhyO3oj7Xvx398r&#xA;xGczVGf3/NytNrMsD6TY7mY+R/y8hv4G1HXo5aqzR2lqUe3HHasxDH1Pi6KDQDf7VQc6XQdkwMLy&#xA;A2ejs5doTlRAplf/ACrjyn/yzP8A8jZP65m/yNp+77Sx/P5e9B6v5C8s2mk3t1DA8c0EEsscglk+&#xA;FkQsD17EY/yTgj6gNx5lfzuQ7E830XkVdirsVdirsVdirsVdirsVdirsVdirsVdirsVdirsVdirs&#xA;VdirsVdir4y806YNL8y6ppyqUjtLqaGMEUqiSFVYDwYCozl9bDhyy9/3u408rgErzFbnYqtZFYCo&#xA;6EEHoQRuCD2I8clGZibBooMQRRek/lp5r1G8uZtG1K4NyyQ+tZTSGsxRCEkR2/b48lIJ+LrUnOt7&#xA;I10swMZ84ul1unGMgx5FMfPvlqK5hm1wXn1SSytW9flF6yvFDykUBQ8RDVZu/fplvaXZ8M44pGuF&#xA;10sQmQGJ/lNps8/mS51KcB3trbjLJ0/ezsOCp/kqkbile/ic1/YWO5SkPpGwdhqcUcMBCPvL1zOk&#xA;cF2KobUIPrUUVjSov54LNxQE8LiZYpDQ9eMbMx9hleU1EsoDd7Fmtcp2KuxV2KuxV2KuxV2KuxV2&#xA;KuxV2KuxV2KuxV2KuxV2KuxV2KuxV2KvnL/nIbyzJp/meDXIInkg1hAsnAFqXMChCCfsoGjCkVO5&#xA;5Zpu1MPKfwLlYdVHFE8XJ5WINQfZbbgfGV1A/wCE9Q/hmn9Pf+PsYz7ZxDkCVIvcpIYJLdzcfsrG&#xA;CysP5lc8Vp48qU+6suEHcHZtx9qYjDiJryVfSvf+WST/AIKL/mvI+nvH2/qYfyxh8/kr6bPcWWra&#xA;ffTWsyR2l1DNJInB2WNZB6lFjZnNYywIUbjbMzQZY480ZGW3xas/aWHJAxHNmX5g+e9F1LRYbDSb&#xA;tLhLlvWviAVeKKBg4SSNgrozvx2Zfsg50HamticXDA2Z7MNDiuXEeQZJ5QtLDyv5bt11W4hsru9Y&#xA;3Nz68ix/vXA+D4iATHGFQ08K5n6PCMGIRPx97j6jJ4kyWV5mNLsVR3lGw/SXmuOYittoiGd2/wCX&#xA;q4Roolr0PGFpGZe3JDmJqZ9G7EOr0vMRudirsVdirsVdirsVdirsVdirsVef/wDK/fyh/wCpjh/5&#xA;FXH/AFTzK/JZf5rT+Yh3u/5X7+UP/Uxw/wDIq4/6p4/ksv8ANX8xDvd/yv38of8AqY4f+RVx/wBU&#xA;8fyWX+av5iHe7/lfv5Q/9THD/wAirj/qnj+Sy/zV/MQ73f8AK/fyh/6mOH/kVcf9U8fyWX+av5iH&#xA;e7/lfv5Q/wDUxw/8irj/AKp4/ksv81fzEO93/K/fyh/6mOH/AJFXH/VPH8ll/mr+Yh3u/wCV+/lD&#xA;/wBTHD/yKuP+qeP5LL/NX8xDvd/yv38of+pjh/5FXH/VPH8ll/mr+Yh3u/5X7+UP/Uxw/wDIq4/6&#xA;p4/ksv8ANX8xDvd/yv38of8AqY4f+RVx/wBU8fyWX+av5iHeknnL81PyV8z6BcaVceZIEd/3lrcG&#xA;C4YxTrXg4HpjbejAEVUkVFcry9nZJxMTHYsZ5schRLwy3urW5RntpknjVmT1IySpKmhpUKfcVA2z&#xA;itXpJ4MhhMbuqlGiq5isXYqoXs5t7OecDkYY3kCnoSqk0ycI8UgO9njjxSA7yxi0i9W5ZAxdZZEi&#xA;dh8JciQtKSRvUqrNt2IpmfKXCAeo393d+h6TLk8PFPh2jEcI97LZuU7u9w73Eko4ySTO0rMvTiWc&#xA;sae2YubVZMhuUiXm5TJ5lTig9I8lmn9T0xCZTNKZDCAAIi5bkY9h8BPH2yw6/MTfEeVMjml3ppp3&#xA;nPVfLllDawz2cWmLLRFu45Pg9VqlUeNwQtSW+w1B7DN12T2jnmRiEePzbcWa9j83snlj83vyd0PS&#xA;Y7MeZ4Z7l2M17dehcKZp3pzenpmi7BUFTxUBa7ZvpaTMTZDnDPjHVNv+V+/lD/1McP8AyKuP+qeD&#xA;8ll/mp/MQ73f8r9/KH/qY4f+RVx/1Tx/JZf5q/mId7v+V+/lD/1McP8AyKuP+qeP5LL/ADV/MQ73&#xA;f8r9/KH/AKmOH/kVcf8AVPH8ll/mr+Yh3u/5X7+UP/Uxw/8AIq4/6p4/ksv81fzEO93/ACv38of+&#xA;pjh/5FXH/VPH8ll/mr+Yh3u/5X7+UP8A1McP/Iq4/wCqeP5LL/NX8xDvd/yv38of+pjh/wCRVx/1&#xA;Tx/JZf5q/mId7v8Alfv5Q/8AUxw/8irj/qnj+Sy/zV/MQ73f8r9/KH/qY4f+RVx/1Tx/JZf5q/mI&#xA;d7v+V+/lD/1McP8AyKuP+qeP5LL/ADV/MQ73w1nROodirsVdirsVdirsVdirsVdirsVdiqO0jV7v&#xA;S7n1oDyRqCaFvsuo8fAjse3yqDr+0ezceqhwy5jke5IPez3Sdc0/U0/cPxmAJe3egcAbE07jpuP1&#xA;7Z53r+y82mPrHp7+iDFMc1zFogEUO4OFVAWFoLlLkRgSooRCCQAACB8I+HYMRWmT8SVV0bfGlw8N&#xA;+lEZW1Jdq2uafpifv35TEApbpQuQdgadh13P69s2Og7Lzak+genv6MhFgWr6vd6pc+tOeKLUQwr9&#xA;lFPh4k9z3+VAPROzuzcelhwx5nme9JPcgc2CHYq7FXYq7FXYq7FXYq7FXYq7FXYq7FXYq7FXYq7F&#xA;XYq7FXYq7FXYq7FXYq7FW1ZlYMpKspBVhsQR0IOCURIURYSDSc2fm7W7ZQpkW4UAACdSxAH+UpVi&#xA;fdic0ep9ndNk3A4D5fqTY6hMv8fyBQP0eGbufWIH3emf15qp+yX83J8x+1FB3+P5CCP0eFbsfWJH&#xA;3emP14w9kv52T7P2rQS2883a3cqVEi26kEEQKVJB/wApizA+6kZtdN7O6bHuRxnz/Umx0CTMzMxZ&#xA;iWZiSzHcknqSc3kYiIoCggm2sKHYq7FXYq7FXYq7FXYq7FXYq7FXYq7FXYq7FXYq7FXYq7FXYq7F&#xA;XYq7FXYq7FXYq7FXYq7FXYq7FXYq7FXYq7FXYq7FXYq7FXYq7FXYq7FXYq7FXYq7FXYq7FXYq7FX&#xA;Yq7FXYq7FXYq7FXYq7FXYq7FXYq7FXYq7FXYq7FXYq7FXYq7FXYq7FXYq7FXYq7FXYq7FXYq7FXY&#xA;q7FXYq7FXYq7FXYq7FXYq7FXYq7FXYq7FXYq7FXYq7FXYq7FXYq7FXYq7FXYq7FXYq7FXYq7FXYq&#xA;7FXYq7FXYq7FXYq7FXYq7FXYq7FXYq7FXYq7FXYq7FXYq7FXYq7FXYq7FXYq7FXYq7FXYq7FX1L/&#xA;ANYh/wDLn/3MM0/+Fef2Ow/cfi3f9Yh/8uf/AHMMf8K8/sX9x+Ld/wBYh/8ALn/3MMf8K8/sX9x+&#xA;Ld/1iH/y5/8Acwx/wrz+xf3H4t3/AFiH/wAuf/cwx/wrz+xf3H4t3/WIf/Ln/wBzDH/CvP7F/cfi&#xA;3f8AWIf/AC5/9zDH/CvP7F/cfi3f9Yh/8uf/AHMMf8K8/sX9x+Ld/wBYh/8ALn/3MMf8K8/sX9x+&#xA;Ld/1iH/y5/8Acwx/wrz+xf3H4t3/AFiH/wAuf/cwx/wrz+xf3H4t3/WIf/Ln/wBzDH/CvP7F/cfi&#xA;3f8AWIf/AC5/9zDH/CvP7F/cfi3f9Yh/8uf/AHMMf8K8/sX9x+Ld/wBYh/8ALn/3MMf8K8/sX9x+&#xA;Ld/1iH/y5/8Acwx/wrz+xf3H4t3/AFiH/wAuf/cwx/wrz+xf3H4t3/WIf/Ln/wBzDH/CvP7F/cfi&#xA;3f8AWIf/AC5/9zDH/CvP7F/cfi3f9Yh/8uf/AHMMf8K8/sX9x+Ld/wBYh/8ALn/3MMf8K8/sX9x+&#xA;Ld/1iH/y5/8Acwx/wrz+xf3H4t3/AFiH/wAuf/cwx/wrz+xf3H4t3/WIf/Ln/wBzDH/CvP7F/cfi&#xA;3f8AWIf/AC5/9zDH/CvP7F/cfi3f9Yh/8uf/AHMMf8K8/sX9x+Ld/wBYh/8ALn/3MMf8K8/sX9x+&#xA;Ld/1iH/y5/8Acwx/wrz+xf3H4t3/AFiH/wAuf/cwx/wrz+xf3H4t3/WIf/Ln/wBzDH/CvP7F/cfi&#xA;3f8AWIf/AC5/9zDH/CvP7F/cfi3f9Yh/8uf/AHMMf8K8/sX9x+Lf/9k=</xmpGImg:image>
               </rdf:li>
            </rdf:Alt>
         </xmp:Thumbnails>
         <xmp:MetadataDate>2013-03-20T13:26:14-04:00</xmp:MetadataDate>
         <xmp:ModifyDate>2013-03-20T13:26:14-04:00</xmp:ModifyDate>
      </rdf:Description>
      <rdf:Description rdf:about=""
            xmlns:xmpMM="http://ns.adobe.com/xap/1.0/mm/"
            xmlns:stEvt="http://ns.adobe.com/xap/1.0/sType/ResourceEvent#">
         <xmpMM:DerivedFrom rdf:parseType="Resource"/>
         <xmpMM:DocumentID>xmp.did:17D22CB96E91E2119883EBB4AF5B895E</xmpMM:DocumentID>
         <xmpMM:InstanceID>xmp.iid:17D22CB96E91E2119883EBB4AF5B895E</xmpMM:InstanceID>
         <xmpMM:OriginalDocumentID>xmp.did:17D22CB96E91E2119883EBB4AF5B895E</xmpMM:OriginalDocumentID>
         <xmpMM:History>
            <rdf:Seq>
               <rdf:li rdf:parseType="Resource">
                  <stEvt:action>saved</stEvt:action>
                  <stEvt:instanceID>xmp.iid:17D22CB96E91E2119883EBB4AF5B895E</stEvt:instanceID>
                  <stEvt:when>2013-03-20T13:26:14-04:00</stEvt:when>
                  <stEvt:softwareAgent>Adobe Illustrator CS5</stEvt:softwareAgent>
                  <stEvt:changed>/</stEvt:changed>
               </rdf:li>
            </rdf:Seq>
         </xmpMM:History>
      </rdf:Description>
   </rdf:RDF>
</x:xmpmeta>
                                                                                                    
                                                                                                    
                                                                                                    
                                                                                                    
                                                                                                    
                                                                                                    
                                                                                                    
                                                                                                    
                                                                                                    
                                                                                                    
                                                                                                    
                                                                                                    
                                                                                                    
                                                                                                    
                                                                                                    
                                                                                                    
                                                                                                    
                                                                                                    
                                                                                                    
                                                                                                    
                           
<?xpacket end="w"?>
	</metadata>
<sodipodi:namedview  id="namedview23" inkscape:window-height="1004" inkscape:window-width="1280" inkscape:pageshadow="2" inkscape:pageopacity="0" inkscape:cy="1375.9244" inkscape:cx="1105.4623" bordercolor="#666666" inkscape:zoom="0.19972665" pagecolor="#ffffff" guidetolerance="10" gridtolerance="10" fit-margin-left="0" objecttolerance="10" borderopacity="1" fit-margin-top="0" showgrid="false" inkscape:current-layer="svg2" inkscape:window-y="-8" inkscape:window-x="-8" fit-margin-bottom="0" fit-margin-right="0" inkscape:window-maximized="1" inkscape:guide-bbox="true" showguides="true">
	</sodipodi:namedview>
<path id="path3778" sodipodi:nodetypes="ccccc" inkscape:connector-curvature="0" fill="#FFFFFF" d="M0,0h4000v2400H0V0z"/>
<path id="path3050" sodipodi:nodetypes="ccccc" inkscape:connector-curvature="0" fill="#BF0A30" d="M0,800h4000V0H0V800z"/>
<path id="path3002" sodipodi:nodetypes="ccccc" inkscape:connector-curvature="0" fill="#002868" d="M0,2400h4000v-800H0V2400z"/>
<path id="path3004" sodipodi:nodetypes="ccccc" inkscape:connector-curvature="0" fill="#FFFFFF" d="M0,0h1020v620H0V0z"/>
<path id="path3006" sodipodi:nodetypes="ccccc" inkscape:connector-curvature="0" fill="#BF0A30" d="M0,0h1000v600H0V0z"/>
<path id="path3008" sodipodi:nodetypes="ccccccccccccccccccccccccc" inkscape:connector-curvature="0" fill="#FFFFFF" d="M0,54.545
	v54.545h1000V54.545H0z M0,163.636v54.545h1000v-54.545H0z M0,272.728v54.545h1000v-54.545H0z M0,381.818v54.545h1000v-54.545H0z
	 M0,490.909v54.545h1000v-54.545H0z"/>
<path id="path3010" inkscape:connector-curvature="0" fill="#002868" d="M0,0h272.727v272.728H0V0z"/>
<g id="g3012" transform="matrix(15,0,0,15,24.999993,25)">
	<g id="g3014">
		<polygon id="polygon3016" fill="#FFFFFF" points="7.424,1.97 5.739,7.157 8.332,8 		"/>
		<polygon id="polygon3018" fill="#FFFFFF" points="6.516,8 7.424,1.97 9.11,7.157 		"/>
	</g>
	<g id="g3020" transform="matrix(0.30901699,0.95105652,-0.95105652,0.30901699,0,0)">
		<polygon id="polygon3022" fill="#FFFFFF" points="10.263,-4.191 9.355,-10.221 7.67,-5.034 		"/>
		<polygon id="polygon3024" fill="#FFFFFF" points="8.447,-4.191 9.355,-10.221 11.041,-5.034 		"/>
	</g>
	<g id="g3026" transform="matrix(0.30901699,-0.95105652,0.95105652,0.30901699,0,0)">
		<polygon id="polygon3028" fill="#FFFFFF" points="-3.858,9.931 -4.767,3.901 -6.452,9.088 		"/>
		<polygon id="polygon3030" fill="#FFFFFF" points="-5.675,9.931 -4.767,3.901 -3.081,9.088 		"/>
	</g>
	<g id="g3032" transform="matrix(-0.80901699,0.58778525,-0.58778525,-0.80901699,0,0)">
		<polygon id="polygon3034" fill="#FFFFFF" points="-0.734,-9.794 -1.642,-15.825 -3.328,-10.637 		"/>
		<polygon id="polygon3036" fill="#FFFFFF" points="-2.551,-9.794 -1.642,-15.825 0.043,-10.637 		"/>
	</g>
	<g id="g3038" transform="matrix(-0.80901699,-0.58778525,0.58778525,-0.80901699,0,0)">
		<polygon id="polygon3040" fill="#FFFFFF" points="-9.462,-1.067 -10.37,-7.097 -12.056,-1.909 		"/>
		<polygon id="polygon3042" fill="#FFFFFF" points="-11.278,-1.067 -10.37,-7.097 -8.685,-1.909 		"/>
	</g>
</g>
<path id="path5931" sodipodi:nodetypes="sssssss" inkscape:connector-curvature="0" d="M2000,580.102
	c-343.424,0-619.898,276.476-619.898,619.899l0,0c0,343.423,276.475,619.897,619.898,619.897s619.899-276.475,619.899-619.897l0,0
	C2619.899,856.577,2343.424,580.102,2000,580.102L2000,580.102z"/>
<path id="path5931_2_" sodipodi:nodetypes="sssssss" inkscape:connector-curvature="0" fill="#ADBDDE" d="M2000,589.369
	c-338.29,0-610.631,272.342-610.631,610.632l0,0c0,338.288,272.341,610.63,610.631,610.63c338.289,0,610.631-272.342,610.631-610.63
	l0,0C2610.631,861.711,2338.29,589.369,2000,589.369L2000,589.369z"/>
<g>
	<defs>
		<path id="path5931_3_" sodipodi:nodetypes="sssssss" inkscape:connector-curvature="0" d="M2000,589.369
			c-338.29,0-610.631,272.342-610.631,610.632l0,0c0,338.288,272.341,610.63,610.631,610.63
			c338.289,0,610.631-272.342,610.631-610.63l0,0C2610.631,861.711,2338.29,589.369,2000,589.369L2000,589.369z"/>
	</defs>
	<clipPath id="path5931_1_">
		<use xlink:href="#path5931_3_"  overflow="visible"/>
	</clipPath>
	<path clip-path="url(#path5931_1_)" fill="#7B5208" stroke="#000000" stroke-width="6" stroke-miterlimit="10" d="
		M1468.819,798.121l-146.776,351.215l90.861,337.236l421.108,41.936l145.029-59.409c0,0,5.242-62.904-5.242-75.136
		s-24.463-17.474-29.705-33.199s-3.494-40.189-17.473-55.915s-94.356-54.167-115.324-78.63s-29.705-36.694-29.705-48.925
		s10.484-87.609-5.242-101.587c0,0-34.946-22.473-43.683-53.925s-8.737-111.829-22.716-136.292s-20.968-33.2-41.936-47.178
		s-104.84-47.178-124.061-47.178S1468.819,798.121,1468.819,798.121z"/>
	<path clip-path="url(#path5931_1_)" fill="#428C10" stroke="#000000" stroke-width="6" stroke-miterlimit="10" d="
		M1430.377,1484.823c0,0,61.156-24.462,92.608-24.462s99.598-15.727,103.093-20.969s31.453,12.231,45.431,31.452
		s19.22,20.969,34.946,8.737s36.694-24.463,83.872-24.463s159.008,8.736,171.239,8.736s71.641,17.473,85.62,33.199
		c13.979,15.727,99.598,36.694,113.576,22.716s69.893-40.189,78.63-27.958s15.727,38.441,29.705,38.441s27.957-27.957,40.188-27.957
		s19.221,22.716,31.452,22.716s41.936-24.464,52.42-20.969s3.495,33.2,17.474,40.189s89.113,12.231,97.851,27.957
		s-148.523,206.186-148.523,206.186l-414.118,94.356l-379.172-174.734L1430.377,1484.823z"/>
	<g id="red_sun" clip-path="url(#path5931_1_)">
		<path fill="#E72900" d="M2561.833,1136.5c0-36.819-37.458-66.667-83.667-66.667c-46.208,0-83.666,29.848-83.666,66.667H2561.833z"
			/>
		<polyline fill="none" stroke="#E72900" stroke-width="12" stroke-miterlimit="10" points="2417.833,1030.5 2452.5,1093.834 
			2435.833,1105.167 2389.167,1054.5 		"/>
		<polyline fill="none" stroke="#E72900" stroke-width="12" stroke-miterlimit="10" points="2451.167,1022.5 2471.833,1083.167 
			2419.833,1119.167 2376.5,1087.834 		"/>
		<polyline fill="none" stroke="#E72900" stroke-width="12" stroke-miterlimit="10" points="2503.833,1022.5 2489.167,1079.834 
			2528.5,1105.167 2569.167,1057.834 		"/>
		<polyline fill="none" stroke="#E72900" stroke-width="12" stroke-miterlimit="10" points="2539.833,1040.5 2511.833,1089.834 
			2539.833,1119.167 2585.833,1087.834 		"/>
	</g>
	<rect x="2288.5" y="1118.5" clip-path="url(#path5931_1_)" fill="#7B5208" width="416" height="38"/>
</g>
<g id="Tree">
	<path fill="#7B5208" stroke="#000000" stroke-width="6" stroke-miterlimit="10" d="M2040.5,1498.5c20-10,44-30,44-30l-4,64
		c0,0-42,8-48,38s-14,62-32,58s-16-42-8-58S2020.5,1508.5,2040.5,1498.5z"/>
	<path fill="#7B5208" stroke="#000000" stroke-width="6" stroke-miterlimit="10" d="M2060.5,1652.5c19.118,11.068,29-28,35-68
		c0,0,17-90,33-118s56-120,66-154s14-98,14-98s60-28,74-28s44-24,48-48s-28-26-56-24c-7.294,0.521-5.837-19.516-20.666-28.667
		c18-53.333,54-115.333,72-135.333c-64.667-76.667-188-41.333-188-41.333s5.333,76.667-3.334,112
		c-27.752-0.342-110.157,1.009-118,13.333c-14,22,26,86,74,98c41.114,10.278,30,24,34,90s12,64,4,92s-26,80-34,100
		s-28.089,52.356-32,68c-8,32,6,68,0,84S2022.5,1630.5,2060.5,1652.5z"/>
	<path fill="none" stroke="#000000" stroke-width="12" stroke-miterlimit="10" d="M2312.5,971.167
		c-18.667-2.667-64,84.667-64,84.667s-25.333-2-14.666-25.333s58-80,58-80s-1.334-30.667-22.667-29.333s-62.667,122-68,96
		s21.333-116,21.333-116s-48-10.667-46,18s-14,86.667-14,86.667l-15.333-2.667c0,0,9.333-36-2-74"/>
	<path fill="#428C10" stroke="#000000" stroke-width="6" stroke-miterlimit="10" d="M2074.5,1299.5c20,18,70,8,80-16s52-47,84-49
		s42-4,48-24s-8-26-26-26s-54-36-112-50s-92.947-11.932-116-16c-34-6-64,24-26,64s42,55,46,81S2074.5,1299.5,2074.5,1299.5z"/>
	<path fill="#428C10" stroke="#000000" stroke-width="6" stroke-miterlimit="10" d="M2212.5,994.5c-23.255-11.627-116-6-140-18
		s-78.818-29.11-95-24c-19,6-21,41-9,49s42,37,60,45s114,28,130,48s102,32,147,26c12-22,11-41-21-67
		C2259.471,1033.164,2248.5,1012.5,2212.5,994.5z"/>
	<path fill="#428C10" stroke="#000000" stroke-width="6" stroke-miterlimit="10" d="M1957.167,891.834
		c-7.658-16.167-1.334-72,9.333-88s62.667-59.333,82.667-56c20,3.333,68.667,29.333,74.667,18.667s38-24.667,48-1.333
		s8.666,54,21.333,48.667s18.667-45.334,30-60.667s37.333-46,47.333-49.333s-11.332,48-4.666,72s40.666,68,52.666,77.333
		s80.666,54,84,68.667s7.334,60.666,0.667,71.333s-30.667,38-50.667,34s-39.999-11.333-56.666-35.333s-52.666-54.667-76-58
		s-27.333,5.333-44,11.333s-46.667,10.667-62.667,0c-16.77-11.18-51.333,6.667-72-9.333
		C2006.128,908.707,1969.167,917.167,1957.167,891.834z"/>
</g>
</svg>
