<?xml version="1.0" encoding="UTF-8"?>
<svg xmlns="http://www.w3.org/2000/svg" xmlns:xlink="http://www.w3.org/1999/xlink" width="4000" height="2400">
<rect width="4000" height="2400" fill="#bf0a30"/>
<rect width="4000" height="1200" fill="#063"/>
<g transform="scale(0.90909091)">
<rect width="1100" height="660" fill="#bf0a30"/>
<path d="M0,90H1100M0,210H1100M0,330H1100M0,450H1100M0,570H1100" stroke="#fff" stroke-width="60"/>
<rect width="300" height="300" fill="#002868"/>
<path d="M150,60 202.900673,222.811529 64.404914,122.188471H235.595086L97.099327,222.811529z" fill="#fff"/>
</g>
<g fill="#fff">
<path d="M3163.208,1464.778c-97.997,204.341-306.805,345.438-548.568,345.438c-241.884,0-450.78-141.24-548.715-345.746l-2.421-8.896l1105.046-1.535L3163.208,1464.778z"/>
<path fill="#063" d="M3222.682,1202.174c0,93.649-20.475,186.904-56.848,259.788l-1100.857,0.521c-37.436-78.909-58.38-167.163-58.38-260.309H3222.682z"/>
<path fill="#002868" d="M3222.682,1202.174H2006.597c0-335.813,272.23-608.042,608.042-608.042C2950.453,594.132,3222.682,866.361,3222.682,1202.174z"/>
<path fill="#9e6218" d="M2938.5,1258.5c-12-12-95.573-302.816-119-377c-24-76-102-156-208-156h-1c-106,0-184,80-208,156c-23.427,74.184-109.5,367.5-119,377H2938.5z"/>
<rect fill="#063" x="2594.5" y="1031.5" width="33" height="268"/>
<circle fill="#063" cx="2611" cy="1006" r="103.5"/>
<path d="M2488.204,869.752c-42.025,35.722-32.045,76.171-18.912,89.304c13.133,13.132,40.209,25.444,40.209,25.444s19.678-28.597,36.487-45.407c16.81-16.81,54.513-34.593,54.513-34.593s-11.436-28.445-20.892-37.901C2570.153,857.144,2526.128,837.515,2488.204,869.752z"/>
<path d="M2471.512,1125.355c34.822,42.774,75.475,33.654,88.883,20.803c13.408-12.852,25.105-41.658,25.105-41.658s-26.986-18.283-43.437-35.445c-16.449-17.163-32.563-51.555-32.563-51.555s-29.346,12.747-39,22C2460.847,1048.753,2440.086,1086.755,2471.512,1125.355z"/>
<path d="M2752.055,883.55c-36.942-40.958-76.172-32.045-89.306-18.912c-13.132,13.133-30.249,40.862-30.249,40.862s33.402,19.025,50.213,35.835c16.81,16.81,30.787,57.165,30.787,57.165s32.251-14.088,41.706-23.544S2793.5,929.5,2752.055,883.55z"/>
<path d="M2752.469,1124.901c36.664-41.208,21.166-79.881,6.338-91.064c-14.828-11.183-42.307-20.337-42.307-20.337s-16.563,31.769-30.878,50.749c-14.314,18.98-47.122,41.251-47.122,41.251s13.209,27.155,23.886,35.207C2673.063,1148.758,2719.385,1162.089,2752.469,1124.901z"/>
</g>
</svg>