<svg width="900" height="599.9" xmlns="http://www.w3.org/2000/svg">
 <style type="text/css">.st0{fill:#007FFF;}
	.st1{fill:#FFCC00;}
	.st2{fill:#008033;}
	.st3{fill:none;stroke:#000000;stroke-width:7.0098;}
	.st4{fill:#008033;stroke:#32530B;}
	.st5{fill:#9E5F08;stroke:#713506;}
	.st6{fill:none;stroke:#32530B;}
	.st7{fill:#E86C10;}
	.st8{fill:#5C8E0B;stroke:#157232;stroke-width:0.5;}
	.st9{fill:#CCCCCC;stroke:#000000;stroke-width:0.5;}
	.st10{stroke:#000000;}
	.st11{fill:#9C580B;stroke:#714F0C;stroke-width:0.6938;}
	.st12{fill:#72570F;stroke:#634911;stroke-miterlimit:10;}
	.st13{fill:#983F0A;stroke:#331A00;stroke-width:0.4;stroke-miterlimit:10;}
	.st14{fill:#2D2714;stroke:#000000;}
	.st15{fill:#983F0A;stroke:#190D00;stroke-width:0.4;stroke-miterlimit:10;}
	.st16{fill:#E9E1E6;stroke:#000000;stroke-width:0.5;}
	.st17{fill:#93866B;}
	.st18{fill:#E1E0E6;stroke:#2D2714;stroke-width:0.6938;}
	.st19{fill:#714F0C;}
	.st20{fill:#4D330A;stroke:#2D2714;stroke-width:0.3543;}
	.st21{fill:#FFFFFF;}
	.st22{fill:#9C580B;}</style>

 <g>
  <title>background</title>
 </g>
 <g>
  <title>Layer 1</title>
  <g transform="matrix(0.99986113,0,0,0.99986113,-989.36259,436.01909) " id="g3703">
   <rect height="210" width="902" class="st0" y="-436.377056" x="988.499792" id="rect5621-740"/>
   <rect height="210" width="902" class="st1" y="-236.377056" x="988.499792" id="rect5623-94"/>
   <rect height="213" width="902" class="st2" y="-36.377056" x="988.499792" id="rect5625-8"/>
   <path d="m1419.299792,-301.577056c26.4,0 13.5,14.1 23.5,17c10.9,3.2 24.3,1.6 32.3,5.9c8.8,4.7 8.8,15.3 12.3,18.8c3.5,3.5 12.9,8.2 11.1,15.8s3.5,19.9 9.4,23.5c5.9,3.5 8.2,7.6 2.3,12.9c-5.9,5.3 -18.8,14.7 -15.3,22.3s7.6,11.7 19.4,12.9c11.8,1.2 19.4,-0.6 25.2,7.6c5.9,8.2 35.8,22.9 37,31.7s1.2,19.4 7,20.5c5.9,1.2 29.3,-4.7 33.4,0.6s-3.5,7 -2.9,12.9s4.7,13.5 11.1,14.7s32.3,5.9 32.8,12.9c0.6,7 2.9,17.6 -8.8,19.9c-11.7,2.3 -26.4,4.7 -31.1,1.2c-4.7,-3.5 -5.9,-9.4 -17,-5.3s-15.3,21.1 -34,22.3c-18.8,1.2 -30.5,-7.6 -39.9,0.6s-11.7,28.2 -22.9,29.9c-11.1,1.8 -27,4.1 -34.6,-2.9s-2.9,-13.5 -8.2,-13.5c-5.3,0 -14.1,4.1 -24,8.8c-10,4.7 -17.6,1.2 -18.8,8.2c-1.2,7 19.4,10.6 10,14.7s0.6,12.9 -8.8,12.9s-31.1,17.6 -43.4,12.9s-15.3,-14.7 -24.6,-17.6c-9.4,-2.9 -25.2,-7 -31.7,-7s-21.1,-1.8 -21.7,-12.3c-0.6,-10.6 5.9,-18.8 11.1,-25.8c5.3,-7 26.4,-29.3 28.7,-42.8c2.3,-13.5 -2.9,-35.2 5.3,-36.4c8.2,-1.2 42.2,2.3 46.9,-2.9c4.7,-5.3 1.8,-17.6 -4.1,-22.9s-17,-9.4 -17,-12.9s3.5,-11.1 -3.5,-14.1c-7,-2.9 -22.9,0 -29.3,-6.5s-18.8,-22.9 -10.6,-27c8.2,-4.1 14.1,-7 6.5,-14.1c-7.6,-7 -16.4,-15.3 -24.6,-15.3s-21.1,11.7 -28.7,4.1s-2.3,-15.8 -2.9,-21.7s-5.9,-11.1 -5.9,-15.8c0,-4.7 0.6,-14.1 10,-14.1s11.7,-8.2 17.6,-11.1s7.6,-8.2 19.9,-5.9s63.9,10 71.6,4.7c7.6,-5.3 12.7,-20.6 18.5,-21.6c3.4,-0.6 9,-0.8 11.4,-0.7l0.6,0l-0.3,0l-0.3,0l0,0z" class="st3" id="path1349"/>
   <g transform="matrix(1.0865463,0,0,1.0865463,127.48227,-148.08517) " id="g3594">
    <g transform="matrix(-0.693762,0,0,0.693762,1635.0222,-331.34944) " id="g2294">
     <path d="m1083.963894,327.145828" class="st4" id="path2296_2_"/>
    </g>
    <g transform="matrix(-0.693762,0,0,0.693762,1635.0222,-331.34944) " id="g2302">
     <path d="m971.963894,217.645828" class="st4" id="path2304_2_"/>
     <path d="m983.363894,191.045828" class="st4" id="path2308_3_"/>
     <path d="m986.863894,201.945828" class="st4" id="path2308_2_"/>
     <path d="m977.963894,204.245828" class="st4" id="path2310_3_"/>
    </g>
    <g transform="matrix(0.693762,0,0,0.693762,171.6485,-331.34944) " id="g2277">
     <path d="m1120.636106,207.745828" class="st5" id="path2265_4_"/>
     <path d="m974.936106,295.245828" class="st5" id="path2265_2_"/>
    </g>
   </g>
  </g>
  <g transform="matrix(1.0865463,0,0,1.0865463,127.48227,-148.08517) " id="g3594_3_">
   <g transform="matrix(-0.693762,0,0,0.693762,1635.0222,-331.34944) " id="g2294_3_">
    <path d="m2396.048625,908.075594" class="st4" id="path2296_3_"/>
   </g>
   <g transform="matrix(-0.693762,0,0,0.693762,1635.0222,-331.34944) " id="g2302_3_">
    <path d="m2284.048625,798.575594" class="st4" id="path2304_3_"/>
    <path d="m2295.448625,771.975594" class="st4" id="path2308_5_"/>
    <path d="m2298.948625,782.875594" class="st4" id="path2308_4_"/>
    <path d="m2290.048625,785.175594" class="st4" id="path2310_2_"/>
   </g>
   <g transform="matrix(0.693762,0,0,0.693762,171.6485,-331.34944) " id="g2277_3_">
    <path d="m-191.448625,788.675594" class="st5" id="path2265_5_"/>
    <path d="m-337.148625,876.175594" class="st5" id="path2265_3_"/>
   </g>
  </g>
  <g id="svg_1_1_">
   <g transform="matrix(1.0865463,0,0,1.0865463,127.48227,-148.08517) " id="g3594_2_">
    <g transform="matrix(0.693762,0,0,0.693762,171.6485,-331.34944) " id="g2233_2_">
     <path d="m-226.948625,905.275594l-1.7,2.8c0,0 -12.2,-3.1 -14.6,-3.8c-2.4,-0.7 -24.8,-9.6 -24.8,-9.6l-6.6,-0.2c0,0 -1.5,3.2 -9,2.8c-7.5,-0.4 -16.1,-4.3 -16.1,-4.3l6.7,-0.6l0.2,-2.2c0,0 -4,-2.7 -6.6,-3.4s-7.3,-3.8 -7.3,-3.8s2.2,-1.5 4.1,-1.5s3.9,0.1 3.9,0.1l-12.1,-14.6c0,0 17.6,6.5 21.1,9.5c3.4,3 7.6,6.5 7.6,6.5l6.9,0.8l0.2,0.6l-2,-5.3c0,0 9.9,4.6 12.4,7.9c2.5,3.3 5.1,8 5.1,8l9.5,4.5c0,0 14.8,3.7 17.3,3.8s6.7,0.7 6.7,0.7l-0.9,1.3l0,0l0,0l0,0l0,0l0,0z" class="st4" id="path2227_1_"/>
     <path d="m-281.948625,890.975594c0,0 -9.6,-4.1 -11,-4.7c-1.4,-0.6 -5.9,-4.9 -5.9,-4.9" class="st4" id="path2229_1_"/>
     <path d="m-270.548625,891.275594c0,0 -2.2,-2.4 -3,-3.5s-2,-3.7 -2,-3.7" class="st4" id="path2231_1_"/>
    </g>
    <g transform="matrix(0.693762,0,0,0.693762,171.6485,-331.34944) " id="g2246_2_">
     <path d="m-311.448625,856.275594c-0.7,-0.4 -17.6,-12.8 -19.3,-17c-1.7,-4.3 -7.6,-18.7 -7.6,-18.7s5.6,3.9 6.5,5.1c0.9,1.2 4.7,5.2 4.7,5.2l0.4,-3.1c0,0 -6.3,-4.3 -9.8,-11.5s-4,-17.7 -4,-17.7s6.6,6 7.6,7.2c0.9,1.2 4,4.3 4,4.3l-0.2,-4.5c0,0 -6.7,-3.9 -10.5,-12.5c-3.8,-8.6 -1.8,-18 -1.8,-18s4.5,4.7 4.5,5.9s2.5,3.9 2.5,3.9s-0.9,-9.3 -0.8,-12.1c0.1,-2.8 -0.6,-11.6 -0.6,-11.6s4.3,2.8 4.5,5.2s2,4.6 2,4.6s0.7,-5.4 2.8,-8s3.2,-10.8 3.2,-10.8s3.9,12.9 2.7,18.8c-1.2,5.9 -3.5,16.1 -3.5,16.1l2.8,0.2c0,0 -0.7,-3.9 0.5,-7.3c1.2,-3.4 3,-8.5 3,-8.5s4.5,10.5 4.1,17.3s-3.9,14.8 -3.9,14.8s0.6,5.1 -0.2,9.3c-0.8,4.3 -3.5,8.8 -3.5,8.8s2.5,1.2 3.1,2s1.2,3 1.2,3s-0.8,-1.7 1.4,-4.9c2.2,-3.2 3.5,-4.9 2.2,-3.4c-1.3,1.4 2.7,-2.1 2.7,-1.7s2.2,5 2.4,8.4c0.1,3.4 -2.7,11.8 -2.7,11.8l2,-4.9c0,0 3.8,2.7 5.3,6s-0.7,14.3 -0.7,14.3l-7,4l0,0l0,0l0,0l0,0l0,0z" class="st4" id="path2238_1_"/>
     <path d="m-319.648625,845.275594c0,0 -2.6,-1.5 -4,-5.4s-1.5,-25.8 -1.5,-25.8s8.4,14 8.8,17c0.4,3.1 4.5,13.4 4.5,13.4" class="st6" id="path2240_1_"/>
     <path d="m-325.648625,782.875594c0,0 -0.7,-2.8 -0.9,-5.2s-2.6,-5.7 -2.6,-5.7" class="st6" id="path2242_1_"/>
     <path d="m-327.548625,795.775594c0,0 -2.5,-3.8 -3.2,-6.3s-3.9,-4.4 -3.9,-4.4" class="st6" id="path2244_1_"/>
    </g>
    <g transform="matrix(-0.693762,0,0,0.693762,1635.0222,-331.34944) " id="g2294_2_">
     <path d="m2397.948625,905.275594l-1.7,2.8c0,0 -12.2,-3.1 -14.6,-3.8c-2.4,-0.7 -24.8,-9.6 -24.8,-9.6l-6.6,-0.2c0,0 -1.5,3.2 -9,2.8s-16.1,-4.3 -16.1,-4.3l6.7,-0.6l0.2,-2.2c0,0 -4,-2.7 -6.6,-3.4s-7.3,-3.8 -7.3,-3.8s2.2,-1.5 4.1,-1.5s3.9,0.1 3.9,0.1l-12.1,-14.6c0,0 17.6,6.5 21.1,9.5c3.4,3 7.6,6.5 7.6,6.5l6.9,0.8l0.2,0.6l-2,-5.3c0,0 9.9,4.6 12.4,7.9c2.5,3.3 5.1,8 5.1,8l9.5,4.5c0,0 14.8,3.7 17.3,3.8s6.7,0.7 6.7,0.7l-0.9,1.3l0,0l0,0l0,0l0,0l0,0z" class="st4" id="path2296_1_"/>
     <path d="m2342.948625,890.975594c0,0 -9.6,-4.1 -11,-4.7c-1.4,-0.6 -5.9,-4.9 -5.9,-4.9" class="st4" id="path2298_1_"/>
     <path d="m2354.448625,891.275594c0,0 -2.2,-2.4 -3,-3.5c-0.7,-1.2 -2,-3.7 -2,-3.7" class="st4" id="path2300_1_"/>
    </g>
    <g transform="matrix(-0.693762,0,0,0.693762,1635.0222,-331.34944) " id="g2302_2_">
     <path d="m2313.448625,856.275594c-0.7,-0.4 -17.6,-12.8 -19.3,-17s-7.6,-18.7 -7.6,-18.7s5.6,3.9 6.5,5.1c0.9,1.2 4.7,5.2 4.7,5.2l0.4,-3.1c0,0 -6.3,-4.3 -9.8,-11.5s-4,-17.7 -4,-17.7s6.6,6 7.6,7.2c0.9,1.2 4,4.3 4,4.3l-0.2,-4.5c0,0 -6.7,-3.9 -10.5,-12.5c-3.8,-8.6 -1.8,-18 -1.8,-18s4.5,4.7 4.5,5.9s2.5,3.9 2.5,3.9s-0.9,-9.3 -0.8,-12.1c0.1,-2.7 -0.6,-11.6 -0.6,-11.6s4.3,2.8 4.5,5.2s2,4.6 2,4.6s0.7,-5.4 2.8,-8s3.2,-10.8 3.2,-10.8s3.9,12.9 2.7,18.8c-1.2,5.9 -3.5,16.1 -3.5,16.1l2.8,0.2c0,0 -0.7,-3.9 0.5,-7.3c1.2,-3.4 3,-8.5 3,-8.5s4.5,10.5 4.1,17.3c-0.4,6.7 -3.9,14.8 -3.9,14.8s0.6,5.1 -0.2,9.3c-0.8,4.3 -3.5,8.8 -3.5,8.8s2.5,1.2 3.1,2s1.2,3 1.2,3s-0.8,-1.7 1.4,-4.9s3.5,-4.9 2.2,-3.4s2.7,-2.1 2.7,-1.7s2.2,5 2.4,8.4s-2.7,11.8 -2.7,11.8l2,-4.9c0,0 3.8,2.7 5.3,6s-0.7,14.3 -0.7,14.3l-7,4l0,0l0,0l0,0l0,0l0,0z" class="st4" id="path2304_1_"/>
     <path d="m2305.348625,845.275594c0,0 -2.6,-1.5 -4,-5.4s-1.5,-25.8 -1.5,-25.8s8.4,14 8.8,17c0.4,3.1 4.5,13.4 4.5,13.4" class="st4" id="path2306_1_"/>
     <path d="m2299.248625,782.875594c0,0 -0.7,-2.8 -0.9,-5.2s-2.6,-5.7 -2.6,-5.7" class="st4" id="path2308_1_"/>
     <path d="m2297.348625,795.775594c0,0 -2.5,-3.8 -3.2,-6.3s-3.9,-4.4 -3.9,-4.4" class="st4" id="path2310_1_"/>
    </g>
    <g transform="matrix(-0.693762,0,0,0.693762,1635.0222,-331.34944) " id="g2312_2_">
     <path d="m2298.548625,854.475594c0,0 1.2,2.7 -0.7,6.7s-3.3,7 -3.3,7s-3.6,-3.4 -7.2,-0.2c-1.9,1.7 -3.1,4.3 0.2,8.2c1.9,2.2 4.4,3.9 7.8,0.7c3.1,-2.8 1.8,-5 1.8,-5l13.8,2c0,0 2.6,2.2 4.7,1.2s2.4,-3.8 2.4,-3.8l106.1,-60.2c0,0 1.1,1.4 3.7,0.4c2.6,-1.1 2.6,-1.1 2.6,-1.1l-0.5,-2.4l4.3,-1.5c0,0 1.5,1.4 3.9,-0.1s2.6,-5.7 1.5,-7.3c-1.1,-1.7 -6.5,-10.3 -6.5,-10.3s-2.4,-2.6 -5,-1.1s-2.7,4.1 -2.7,4.1l-3.7,2.1c0,0 -0.6,-2 -3.5,-0.6c-3,1.4 -2,3.7 -2,3.7l-111.7,54.3c0,0 -1.5,-2.2 -4.1,-1.2s-3,2.8 -1.9,4.4l0,0l0,0l0,0l0,0l0,0z" class="st5" id="path2314_1_"/>
     <path d="m2298.748625,855.475594l12.2,18.5" class="st5" id="path2316_1_"/>
     <path d="m2304.348625,851.575594l13.6,20.1" class="st5" id="path2318_1_"/>
     <path d="m2416.448625,796.975594l7.8,14.2" class="st5" id="path2320_1_"/>
     <path d="m2421.748625,793.675594l8.3,14.7" class="st5" id="path2322_1_"/>
     <path d="m2425.748625,791.575594l8.8,15.1" class="st5" id="path2324_1_"/>
    </g>
    <g transform="matrix(0.693762,0,0,0.693762,171.6485,-331.34944) " id="g2277_2_">
     <path d="m-326.348625,854.475594c0,0 1.2,2.7 -0.7,6.7s-3.3,7 -3.3,7s-3.6,-3.4 -7.2,-0.2c-1.9,1.7 -3.1,4.3 0.2,8.2c1.9,2.2 4.4,3.9 7.8,0.7c3.1,-2.8 1.8,-5 1.8,-5l13.8,2c0,0 2.6,2.2 4.7,1.2c2.1,-1.1 2.4,-3.8 2.4,-3.8l106.1,-60.2c0,0 1.1,1.4 3.7,0.4c2.6,-1.1 2.6,-1.1 2.6,-1.1l-0.5,-2.4l4.3,-1.5c0,0 1.5,1.4 3.9,-0.1s2.6,-5.7 1.5,-7.3c-1.1,-1.7 -6.5,-10.3 -6.5,-10.3s-2.4,-2.6 -5,-1.1s-2.7,4.1 -2.7,4.1l-3.7,2.1c0,0 -0.6,-2 -3.5,-0.6c-3,1.4 -2,3.7 -2,3.7l-111.7,54.3c0,0 -1.5,-2.2 -4.1,-1.2c-2.6,1.1 -3,2.8 -1.9,4.4l0,0l0,0l0,0l0,0l0,0z" class="st5" id="path2265_1_"/>
     <path d="m-326.148625,855.475594l12.2,18.5" class="st5" id="path2267_1_"/>
     <path d="m-320.548625,851.575594l13.6,20.1" class="st5" id="path2269_1_"/>
     <path d="m-208.548625,796.975594l7.8,14.2" class="st5" id="path2271_1_"/>
     <path d="m-203.148625,793.675594l8.3,14.7" class="st5" id="path2273_1_"/>
     <path d="m-199.148625,791.575594l8.8,15.1" class="st5" id="path2275_1_"/>
    </g>
    <path d="m-43.195397,201.085312c-1,-1.4 20.6,-23.8 34.3,-24.6c15.7,-0.1 36.9,24.9 36.9,24.9l-4.8,5.3l-0.2,25.6l-61.5,0l0.3,-25.1l-5,-6.1l0,0l0,0l0,0l0,0l0,0z" class="st7" id="path2371_1_"/>
    <g transform="matrix(0.693762,0,0,0.693762,171.6485,-331.34944) " id="g2217_2_">
     <g id="g2201_2_">
      <rect height="33.7" width="87.9" class="st0" y="811.975594" x="-302.448625" id="rect1326_1_"/>
      <path d="m-301.748625,840.675594c9.2,1.9 13.3,0 14.7,-0.2c1.4,-0.2 18.1,0.4 24.1,2.4c6,2 13.4,-1.6 17.5,-2c3.8,0.8 5.3,2.7 8.5,2.6c3.2,-0.1 8.8,-3.7 13.3,-3.3c1.4,0.1 2.7,0.2 4,0.3c2.9,0.2 5,2.7 4.9,5.6l0,0c-0.1,1.5 -2.5,1.4 -3.6,2.4l-8.1,8c-1.1,0.9 -1.6,2.7 -3,2.5l-4.6,-0.4c-0.5,0 -1,0 -1.5,0.1l-12.3,2.4c-0.5,0.1 -1,0.3 -1.4,0.5l-7.3,3.7c-1.4,0.7 -3,0.8 -4.5,0.2l-13.5,-5.5c-0.4,-0.2 -0.9,-0.3 -1.4,-0.4l-9.7,-1.2c-0.5,-0.1 -1.1,-0.2 -1.6,-0.4l-3,-1.4c-0.3,-0.1 -0.6,-0.3 -0.8,-0.5l-9.1,-6.3c-1.7,-1.2 -2.6,-3.3 -2.2,-5.3l0.6,-3.1l0,-0.7l0,0l0,0l0,0l0,0l0,0z" class="st8" id="path1324_1_"/>
     </g>
     <path d="m-266.848625,853.175594l4.7,0.2l0.5,-15.9l-4.9,1.2l-0.3,14.5l0,0l0,0l0,0l0,0z" class="st9" id="path2207_1_"/>
     <path d="m-235.348625,850.475594l-2.5,0c0,0 0.6,-6.9 0.2,-7.8c-0.4,-0.9 -4,-6.5 -4,-6.5l6.7,-0.5l0.9,14.7l-1.3,0.1l0,0l0,0l0,0l0,0l0,0z" class="st9" id="path2211_1_"/>
     <path d="m-283.448625,814.875594c0,0 0.4,1.8 1.1,2.2c0.7,0.5 2.8,1.8 2.8,1.8l-2.7,1.2c0,0 -1.7,-1.4 -1.7,-2.5s0.5,-2.6 0.5,-2.7l0,0l0,0l0,0l0,0l0,0z" class="st10" id="path2215_1_"/>
     <path d="m-232.148625,827.175594c0,0 1.5,0.1 1.5,1.9c0,1.8 -1.2,4.7 -0.5,9s1.2,7.3 2.1,7.3c0.9,0 1.1,-6.2 1.1,-9.5s-0.2,-8.5 -1.5,-10.1c-1.3,-1.5 -3.1,-4.1 -6.2,-4.5c-3.1,-0.4 -12.2,0.7 -16.7,0.7c-4.5,0 -13.4,-1.4 -18.6,-2.5s-8.8,-2.1 -10.4,-1.2c-1.7,0.9 -8.2,6.5 -7.6,8.8c0.6,2.2 2.5,3.5 3.8,3.5s2.2,-1.4 2.8,-1.1s4.4,5.7 5.9,7.2s7.1,5.8 7.1,5.8l0,-5.7l0.5,18.8l3.8,-0.2l0.5,-11.7c0,0 1.5,0.7 4.1,-0.7s7.2,-4.3 8.5,-3.9c1.3,0.4 1.9,1.2 3.3,0.9c1.4,-0.2 1.7,-2 2.7,-2s3.9,-0.7 4,-0.2s0.4,1.4 1.4,2c1.1,0.6 4.6,0.9 4.7,3c0.1,2 0.2,8.4 0.2,8.4l-0.9,1.4l4.4,0.1l0,-11.1l-0.8,-0.9l0,-7.3c0,0 1.1,-2.7 1.2,-3.5c0.3,-1.1 -0.3,-2.7 -0.4,-2.7l0,0l0,0l0,0l0,0l0,0z" class="st9" id="path2205_1_"/>
     <path d="m-282.048625,818.875594c0,0 -5,-0.5 -5,-1.9s0,-1.7 0,-1.7l-0.4,3.4l5.4,2.4l1.3,-1.2l-1.3,-1l0,0z" class="st10" id="path2213_1_"/>
    </g>
    <path d="m-40.195397,206.985312c0,0 -0.4,-1.1 -1.1,-1.3c-0.7,-0.2 -2.5,0.4 -3.3,-0.4s-0.6,-1.3 -0.5,-2.4s1,-2.2 1.7,-2.2s0.7,0 0.7,0s2.1,0.4 2.8,1.1c0.7,0.6 0.7,0.7 0.7,0.7l0,0c0,0 1.2,0.9 1.5,2.5l0.4,2.3l-2.9,-0.3l0,0l0,0l0,0l0,0l0,0z" class="st11" id="path2367_1_"/>
    <path d="m29.204603,205.385312c-0.8,0.8 -2.6,0.2 -3.3,0.4c-0.7,0.2 -1.1,1.3 -1.1,1.3l-3,0.3l0.4,-2.3c0.3,-1.6 1.4,-2.5 1.4,-2.5l0,0c0,0 0.1,-0.1 0.8,-0.7c0.8,-0.6 2.8,-1.2 2.8,-1.2s0,0 0.7,0s1.6,1.2 1.7,2.2c0.2,1.2 0.4,1.7 -0.4,2.5z" class="st11" id="svg_2_1_"/>
    <path d="m-7.795397,270.685312c0,0 0.1,0 0,0c0.1,0 4,-2.1 8.8,-4.4s10.2,-0.9 13,-2.4s7.8,-6.1 9.3,-9.3c1.5,-3.1 0.9,-6.4 0.9,-6.4s-0.2,-38.3 0.1,-39.8c0.3,-1.3 1.1,-2.3 1.2,-2.9c0,0 0,0 0,-0.1l0,0l0,0l0,0l0,0l0,0l0,0l0,0l0,0l0,0l0,0c0,0 0,0 -0.1,0l-0.1,-0.1c-0.4,-0.2 -1,-0.3 -1.5,-0.3s-1,0.2 -1.2,0.5c-0.7,0.8 -1.1,2.1 -0.9,4.4s0,38.8 0,38.8s0.3,2 -0.1,4.2c-0.5,2.2 -7.5,8.4 -7.5,8.4s-1,1.4 -3.3,1.4c-2.2,0 -3.8,-0.1 -6.3,0.5c-2.4,0.6 -12.1,4.5 -12.1,4.5l-0.1,0c0,0 -9.6,-4 -12.1,-4.5c-2.4,-0.6 -4.1,-0.5 -6.3,-0.5c-2,0 -3.1,-1.2 -3.2,-1.4l0,0c0,0 -7.1,-6.2 -7.5,-8.4c-0.4,-2.2 -0.1,-4.2 -0.1,-4.2s-0.2,-36.4 0,-38.8c0.2,-2.3 -0.2,-3.6 -0.9,-4.4c-0.3,-0.4 -1,-0.5 -1.6,-0.5c-0.4,0 -0.8,0.1 -1.1,0.3c-0.1,0 -0.2,0.1 -0.2,0.2l-0.1,0.1l0,0l0,0l0,0l0,0l0,0l0,0c0,0 0,0 0,0.1c0.1,0.6 0.9,1.6 1.2,2.9c0.3,1.5 0.1,39.8 0.1,39.8s-0.6,3.3 0.9,6.4s6.5,7.8 9.3,9.3s8.2,0.1 13,2.4c4.6,2.1 8.5,4.2 8.5,4.2l0,0l0,0l0,0l0,0l0,0z" class="st11" id="path2362_1_"/>
    <g transform="matrix(0.693762,0,0,0.693762,171.83276,-331.34944) " id="g2417_2_">
     <rect height="6.4" width="20.6" class="st12" y="778.875594" x="-269.148625" id="rect2408_1_"/>
     <g id="g2384_2_">
      <path d="m-270.748625,783.775594l0,5.2c0.1,0 0.8,0.1 1.9,0.7c0.1,0.1 0.3,0.2 0.4,0.3c0.8,1 1.1,2.8 1.1,2.8s-4,13.6 -4.7,15.6l12.1,1.1l0,0.3l1.5,-0.2l1.5,0.2l0,-0.3l12.1,-1.1c-0.7,-2 -4.7,-15.6 -4.7,-15.6s0.3,-2.5 1.5,-3.2c1,-0.6 1.7,-0.7 1.9,-0.7l0,0l0,-5.1l-10.8,0l-3.1,0l-10.7,0l0,0l0,0l0,0l0,0l0,0z" class="st13" id="path2379_1_"/>
      <path d="m-255.748625,808.275594l0,-10.4c0,0 0.3,-3 -2.8,-3c-2.9,0 -2.8,3.1 -2.8,3.1l0,10.5l5.6,-0.2l0,0l0,0l0,0l0,0z" class="st14" id="path2377_1_"/>
      <rect height="5.2" width="35.5" class="st15" y="807.075594" x="-276.648625" id="rect2375_1_"/>
     </g>
     <g id="g2410_2_">
      <path d="m-286.048625,759.775594c-2.4,0 -3.9,0.2 -3.9,0.2s9.1,6.7 14.1,9.9s8.9,4.6 9.6,4.7c0.7,0.1 1.1,-0.2 1.2,-0.3c0,0 -0.5,4.4 0.8,5.6c1.3,1.2 3.6,0 3.6,0l1.9,-0.1l2,0.1c0,0 2.2,1.2 3.5,0s0.8,-5.6 0.8,-5.6s0.1,0 0.1,0.1c0.2,0.1 0.6,0.3 1.1,0.2c0.7,-0.1 4.6,-1.6 9.6,-4.7c5,-3.2 14.1,-9.9 14.1,-9.9s-14.8,-0.9 -21.1,1.7c-6.3,2.6 -7.9,6.2 -7.9,6.2s-0.1,-3.6 -0.1,-5.1c0,-0.5 -0.4,-0.8 -0.8,-1.1c0,0 -0.5,-0.5 -1.2,-0.4l-0.1,0l-1.2,0.4c-0.2,0.1 -0.4,0.2 -0.5,0.3c-0.2,0.2 -0.3,0.4 -0.3,0.7c0,1.5 -0.1,5 -0.1,5.1c-0.2,-0.4 -2,-3.7 -7.9,-6.1c-4.4,-1.8 -12.5,-2 -17.3,-1.9l0,0l0,0l0,0l0,0l0,0z" class="st16" id="path2389_1_"/>
      <path d="m-261.148625,769.675594c0,0 0.6,-2 -5.6,-5.9s-20.4,-3.2 -20.4,-3.2s12.4,1.5 16.4,3.7c4.2,2.1 9.5,5.6 9.6,5.4l0,0z" class="st17" id="path2396_1_"/>
      <path d="m-256.448625,769.675594c0,0 -0.6,-2 5.6,-5.9s20.4,-3.2 20.4,-3.2s-12.4,1.5 -16.4,3.7c-4.1,2.1 -9.4,5.6 -9.6,5.4l0,0z" class="st17" id="path2400_1_"/>
      <path d="m-261.248625,778.775594c0,0 -0.1,-4.1 0.4,-4.1s0.5,4.4 0.5,4.4l-0.9,-0.3l0,0l0,0l0,0l0,0l0,0z" class="st17" id="path2402_1_"/>
      <path d="m-257.148625,778.775594c0,0 -0.1,-4.1 0.4,-4.1s0.5,4.4 0.5,4.4l-0.9,-0.3l0,0l0,0l0,0l0,0l0,0z" class="st17" id="path2406_1_"/>
     </g>
    </g>
    <path d="m-51.095397,258.285312l7,-3.3c0,0 14.5,11.6 20.2,14.9c8.7,4.9 12.2,5.4 17.6,5.3c5.5,-0.1 13.2,-3.7 16.8,-5.9c3.6,-2.2 15.3,-12 15.3,-12s2.3,-1.6 3.6,-1.6s5.9,2.8 5.9,2.8s-6,4.8 -9.1,7.3c-3,2.6 -13.6,10.7 -18.2,12.3c-4.6,1.6 -9.9,3 -14.4,3.1c-4.5,0.1 -14.2,-2.3 -18.3,-4.3c-4.2,-2 -15.6,-10.1 -16.8,-11.4c-1.3,-1.3 -7,-5.5 -7.8,-5.9c-0.8,-0.4 -1.8,-1.4 -1.8,-1.3l0,0z" class="st18" id="path2360_1_"/>
    <rect height="1.8" width="58.3" class="st19" y="230.885312" x="-36.695397" id="rect2495_1_"/>
    <g transform="matrix(0.693762,0,0,0.693762,103.81864,-326.09523) " id="g2562_2_">
     <g id="g2525_2_">
      <path d="m-192.148625,759.175594c-2.1,0.2 -3.7,2.3 -3.7,4.8c0,2.7 1.8,4.8 4.1,4.8s4.1,-2.2 4.1,-4.8c0,-2.7 -1.8,-4.8 -4.1,-4.8c-0.2,0 -0.3,0 -0.4,0l0,0l0,0l0,0l0,0zm0.2,2.5c0.1,0 0.1,0 0,0c1.2,0 2.1,1.1 2.1,2.3c0,1.3 -0.9,2.3 -2,2.3s-2,-1.1 -2,-2.3c0.1,-1.2 0.9,-2.2 1.9,-2.3z" class="st20" id="path2497_1_"/>
      <path d="m-192.148625,766.275594c-2.1,0.2 -3.7,2.3 -3.7,4.8c0,2.7 1.8,4.8 4.1,4.8s4.1,-2.2 4.1,-4.8s-1.8,-4.8 -4.1,-4.8c-0.2,0 -0.3,-0.1 -0.4,0l0,0l0,0l0,0l0,0zm0.2,2.4c0.1,0 0.1,0 0,0c1.2,0 2.1,1.1 2.1,2.3c0,1.3 -0.9,2.3 -2,2.3s-2,-1.1 -2,-2.3c0.1,-1.1 0.9,-2.2 1.9,-2.3z" class="st20" id="path2502_1_"/>
      <path d="m-192.148625,773.275594c-2.1,0.2 -3.7,2.3 -3.7,4.8c0,2.7 1.8,4.8 4.1,4.8s4.1,-2.2 4.1,-4.8s-1.8,-4.8 -4.1,-4.8c-0.2,0 -0.3,0 -0.4,0l0,0l0,0l0,0l0,0zm0.2,2.5c0.1,0 0.1,0 0,0c1.2,0 2.1,1.1 2.1,2.3c0,1.3 -0.9,2.3 -2,2.3s-2,-1.1 -2,-2.3c0.1,-1.2 0.9,-2.2 1.9,-2.3z" class="st20" id="path2504_1_"/>
      <path d="m-192.148625,780.375594c-2.1,0.2 -3.7,2.3 -3.7,4.8c0,2.7 1.8,4.8 4.1,4.8s4.1,-2.2 4.1,-4.8s-1.8,-4.8 -4.1,-4.8c-0.2,0 -0.3,0 -0.4,0l0,0l0,0l0,0l0,0zm0.2,2.5c0.1,0 0.1,0 0,0c1.2,0 2.1,1.1 2.1,2.3c0,1.3 -0.9,2.3 -2,2.3s-2,-1.1 -2,-2.3c0.1,-1.2 0.9,-2.2 1.9,-2.3z" class="st20" id="path2506_1_"/>
      <path d="m-192.148625,787.475594c-2.1,0.2 -3.7,2.3 -3.7,4.8c0,2.7 1.8,4.8 4.1,4.8s4.1,-2.2 4.1,-4.8s-1.8,-4.8 -4.1,-4.8c-0.2,0 -0.3,0 -0.4,0l0,0l0,0l0,0l0,0zm0.2,2.5c0.1,0 0.1,0 0,0c1.2,0 2.1,1.1 2.1,2.3c0,1.3 -0.9,2.3 -2,2.3s-2,-1.1 -2,-2.3c0.1,-1.2 0.9,-2.2 1.9,-2.3z" class="st20" id="path2508_1_"/>
      <path d="m-192.248625,794.575594c-2,0.3 -3.6,2.4 -3.6,4.8c0,0.1 0,0.2 0,0.2l2.1,0c0,-0.1 0,-0.2 0,-0.2c0,-1.2 0.8,-2.3 1.8,-2.3l0,0l0.1,0c1.1,0 2,1.1 2,2.3c0,0.1 0,0.2 0,0.2l2.1,0c0,-0.1 0,-0.2 0,-0.2c0,-2.7 -1.8,-4.8 -4.1,-4.8c-0.1,0 -0.2,0 -0.4,0c0.1,0 0.1,0 0,0l0,0l0,0l0,0l0,0l0,0z" class="st20" id="path2510_1_"/>
      <rect height="3.7" width="2.1" class="st20" y="765.675594" x="-192.848625" id="rect2512_1_"/>
      <rect height="3.7" width="2.1" class="st20" y="773.075594" x="-192.848625" id="rect2514_1_"/>
      <rect height="3.7" width="2.1" class="st20" y="779.775594" x="-192.848625" id="rect2516_1_"/>
      <rect height="3.7" width="2.1" class="st20" y="787.175594" x="-192.848625" id="rect2518_1_"/>
      <rect height="3.7" width="2.1" class="st20" y="794.475594" x="-192.848625" id="rect2520_1_"/>
     </g>
     <g id="g2538_2_">
      <path d="m-130.148625,759.175594c-2.1,0.2 -3.7,2.3 -3.7,4.8c0,2.7 1.8,4.8 4.1,4.8c2.3,0 4.1,-2.2 4.1,-4.8c0,-2.7 -1.8,-4.8 -4.1,-4.8c-0.2,0 -0.3,0 -0.4,0l0,0l0,0l0,0l0,0zm0.2,2.5c0.1,0 0.1,0 0,0c1.2,0 2.1,1.1 2.1,2.3c0,1.3 -0.9,2.3 -2,2.3s-2,-1.1 -2,-2.3s0.9,-2.2 1.9,-2.3z" class="st20" id="path2540_1_"/>
      <path d="m-130.148625,766.275594c-2.1,0.2 -3.7,2.3 -3.7,4.8c0,2.7 1.8,4.8 4.1,4.8c2.3,0 4.1,-2.2 4.1,-4.8s-1.8,-4.8 -4.1,-4.8c-0.2,0 -0.3,-0.1 -0.4,0l0,0l0,0l0,0l0,0zm0.2,2.4c0.1,0 0.1,0 0,0c1.2,0 2.1,1.1 2.1,2.3c0,1.3 -0.9,2.3 -2,2.3s-2,-1.1 -2,-2.3c0,-1.1 0.9,-2.2 1.9,-2.3z" class="st20" id="path2542_1_"/>
      <path d="m-130.148625,773.275594c-2.1,0.2 -3.7,2.3 -3.7,4.8c0,2.7 1.8,4.8 4.1,4.8c2.3,0 4.1,-2.2 4.1,-4.8s-1.8,-4.8 -4.1,-4.8c-0.2,0 -0.3,0 -0.4,0l0,0l0,0l0,0l0,0zm0.2,2.5c0.1,0 0.1,0 0,0c1.2,0 2.1,1.1 2.1,2.3c0,1.3 -0.9,2.3 -2,2.3s-2,-1.1 -2,-2.3s0.9,-2.2 1.9,-2.3z" class="st20" id="path2544_1_"/>
      <path d="m-130.148625,780.375594c-2.1,0.2 -3.7,2.3 -3.7,4.8c0,2.7 1.8,4.8 4.1,4.8c2.3,0 4.1,-2.2 4.1,-4.8s-1.8,-4.8 -4.1,-4.8c-0.2,0 -0.3,0 -0.4,0l0,0l0,0l0,0l0,0zm0.2,2.5c0.1,0 0.1,0 0,0c1.2,0 2.1,1.1 2.1,2.3c0,1.3 -0.9,2.3 -2,2.3s-2,-1.1 -2,-2.3s0.9,-2.2 1.9,-2.3z" class="st20" id="path2546_1_"/>
      <path d="m-130.148625,787.475594c-2.1,0.2 -3.7,2.3 -3.7,4.8c0,2.7 1.8,4.8 4.1,4.8c2.3,0 4.1,-2.2 4.1,-4.8s-1.8,-4.8 -4.1,-4.8c-0.2,0 -0.3,0 -0.4,0l0,0l0,0l0,0l0,0zm0.2,2.5c0.1,0 0.1,0 0,0c1.2,0 2.1,1.1 2.1,2.3c0,1.3 -0.9,2.3 -2,2.3s-2,-1.1 -2,-2.3s0.9,-2.2 1.9,-2.3z" class="st20" id="path2548_1_"/>
      <path d="m-130.248625,794.575594c-2,0.3 -3.6,2.4 -3.6,4.8c0,0.1 0,0.2 0,0.2l2.1,0c0,-0.1 0,-0.2 0,-0.2c0,-1.2 0.8,-2.3 1.8,-2.3l0,0l0.1,0c1.1,0 2,1.1 2,2.3c0,0.1 0,0.2 0,0.2l2.1,0c0,-0.1 0,-0.2 0,-0.2c0,-2.7 -1.8,-4.8 -4.1,-4.8c-0.1,0 -0.2,0 -0.4,0c0.1,0 0.1,0 0,0l0,0l0,0l0,0l0,0l0,0z" class="st20" id="path2550_1_"/>
      <rect height="3.7" width="2.1" class="st20" y="765.675594" x="-130.848625" id="rect2552_1_"/>
      <rect height="3.7" width="2.1" class="st20" y="773.075594" x="-130.848625" id="rect2554_1_"/>
      <rect height="3.7" width="2.1" class="st20" y="779.775594" x="-130.848625" id="rect2556_1_"/>
      <rect height="3.7" width="2.1" class="st20" y="787.175594" x="-130.848625" id="rect2558_1_"/>
      <rect height="3.7" width="2.1" class="st20" y="794.475594" x="-130.848625" id="rect2560_1_"/>
     </g>
    </g>
   </g>
   <path d="m144.363574,57.354512c-1.5,-3.1 -12.8,-14.5 -25.9,-14.5c-13.1,0 -23,11 -25.1,13.3c-2.4,2.5 12.7,7.2 25.8,7.2c13.1,0 25.7,-4.9 25.2,-6z" class="st1" id="svg_3_1_"/>
   <g id="svg_4_1_">
    <g id="svg_5_1_">
     <path d="m100.663574,147.854512c-0.3,-0.2 -0.5,-0.3 -0.8,-0.4c0.1,-0.1 0.1,-0.2 0.1,-0.3c0.8,0.4 1.2,0.6 2,1c-0.1,0.1 -0.1,0.2 -0.1,0.3c-0.3,-0.2 -0.5,-0.3 -0.8,-0.4c-0.4,0.9 -0.6,1.3 -1.1,2.1c-0.1,-0.1 -0.2,-0.1 -0.4,-0.2c0.5,-0.8 0.7,-1.2 1.1,-2.1l0,0l0,0l0,0l0,0z" id="svg_6_1_"/>
     <path d="m102.663574,148.554512c-0.3,0.6 -0.4,0.9 -0.7,1.5c-0.3,0.5 -0.1,0.9 0.3,1.1c0.4,0.2 0.8,0.1 1.1,-0.4c0.2,-0.6 0.4,-0.9 0.6,-1.5c0.2,0.1 0.2,0.1 0.4,0.2c-0.2,0.6 -0.4,0.9 -0.6,1.5c-0.3,0.8 -0.9,0.9 -1.6,0.5c-0.6,-0.3 -0.9,-0.8 -0.6,-1.6c0.3,-0.6 0.4,-0.9 0.7,-1.4c0.2,0 0.3,0 0.4,0.1l0,0l0,0l0,0l0,0z" id="svg_7_1_"/>
     <path d="m107.163574,152.154512c0.1,-0.4 0.2,-0.8 0.3,-1.1l0,0c-0.2,0.3 -0.4,0.5 -0.7,0.8c-0.4,0.4 -0.6,0.6 -1,1c-0.1,0 -0.2,-0.1 -0.3,-0.1c0,-0.6 -0.1,-0.9 -0.1,-1.4c0,-0.4 0,-0.8 0,-1.1l0,0c-0.1,0.3 -0.3,0.7 -0.5,1.1c-0.2,0.4 -0.3,0.6 -0.5,1c-0.2,-0.1 -0.2,-0.1 -0.4,-0.2c0.5,-1 0.7,-1.5 1.2,-2.4c0.2,0.1 0.3,0.1 0.5,0.2c0,0.6 0,0.9 0.1,1.4c0,0.4 0,0.7 0,1l0,0c0.2,-0.2 0.4,-0.5 0.6,-0.7c0.4,-0.4 0.6,-0.6 1,-1c0.2,0.1 0.3,0.1 0.5,0.2c-0.2,1.1 -0.4,1.6 -0.6,2.6c-0.2,-0.1 -0.2,-0.1 -0.4,-0.1c0.1,-0.5 0.2,-0.8 0.3,-1.2z" id="svg_8_1_"/>
     <path d="m108.663574,151.054512c0.2,0 0.5,0.1 0.7,0.2c0.4,0.1 0.6,0.3 0.8,0.5c0.1,0.1 0.2,0.3 0.1,0.5c-0.1,0.3 -0.3,0.4 -0.7,0.4l0,0c0.3,0.2 0.6,0.5 0.5,0.9c-0.1,0.2 -0.2,0.4 -0.4,0.4c-0.3,0.1 -0.6,0.1 -1.2,-0.1c-0.3,-0.1 -0.5,-0.2 -0.6,-0.2c0.4,-1 0.5,-1.5 0.8,-2.6l0,0l0,0l0,0l0,0zm0.1,1.2c0.1,0 0.2,0.1 0.4,0.1c0.4,0.1 0.7,0 0.8,-0.2c0.1,-0.3 -0.2,-0.5 -0.6,-0.6c-0.2,-0.1 -0.3,-0.1 -0.4,-0.1c0,0.3 -0.1,0.5 -0.2,0.8zm-0.3,1.3c0.1,0 0.2,0.1 0.3,0.1c0.4,0.1 0.9,0.1 0.9,-0.3c0.1,-0.4 -0.2,-0.6 -0.7,-0.8c-0.1,0 -0.2,-0.1 -0.3,-0.1c-0.1,0.5 -0.1,0.7 -0.2,1.1z" id="svg_9_1_"/>
     <path d="m111.263574,153.754512c-0.2,0.3 -0.3,0.4 -0.5,0.7c-0.2,0 -0.3,-0.1 -0.4,-0.1c0.7,-0.9 1,-1.4 1.6,-2.4c0.2,0 0.3,0.1 0.5,0.1c0.2,1.2 0.3,1.7 0.5,2.9c-0.2,0 -0.3,0 -0.4,-0.1c-0.1,-0.4 -0.1,-0.5 -0.2,-0.9c-0.5,0 -0.7,-0.1 -1.1,-0.2zm1,0c-0.1,-0.3 -0.1,-0.5 -0.1,-0.8c0,-0.2 0,-0.4 -0.1,-0.5l0,0c-0.1,0.1 -0.2,0.3 -0.2,0.4c-0.2,0.3 -0.3,0.4 -0.5,0.7c0.4,0.1 0.5,0.1 0.9,0.2l0,0l0,0l0,0l0,0z" id="svg_10_1_"/>
     <path d="m114.663574,152.654512c0.2,0 0.5,0 0.8,0c0.5,0.1 0.8,0.2 1.1,0.4c0.2,0.2 0.3,0.6 0.3,1s-0.2,0.8 -0.5,1s-0.7,0.3 -1.3,0.3c-0.3,0 -0.5,-0.1 -0.7,-0.1c0.1,-1.1 0.2,-1.6 0.3,-2.6l0,0l0,0l0,0l0,0zm0.1,2.4c0.1,0 0.2,0 0.4,0.1c0.8,0.1 1.3,-0.3 1.3,-1c0.1,-0.6 -0.3,-1.1 -1,-1.1c-0.2,0 -0.3,0 -0.4,0c-0.2,0.7 -0.2,1.1 -0.3,2z" id="svg_11_1_"/>
     <path d="m118.663574,154.354512c-0.4,0 -0.6,0 -1,0c0,0.4 0,0.6 -0.1,1c0.5,0 0.7,0 1.2,0.1c0,0.1 0,0.2 0,0.3c-0.6,0 -0.9,0 -1.6,-0.1c0.1,-1.1 0.1,-1.6 0.2,-2.7c0.6,0 0.8,0.1 1.4,0.1c0,0.1 0,0.2 0,0.3c-0.4,0 -0.6,0 -1.1,0c0,0.3 0,0.5 0,0.9c0.4,0 0.6,0 1,0.1c0,-0.2 0,-0.1 0,0l0,0l0,0l0,0l0,0z" id="svg_12_1_"/>
     <path d="m119.963574,155.154512c0.2,0.1 0.4,0.2 0.6,0.2c0.4,0 0.6,-0.2 0.5,-0.5c0,-0.3 -0.2,-0.4 -0.5,-0.5c-0.4,-0.1 -0.7,-0.4 -0.7,-0.8c0,-0.4 0.3,-0.7 0.8,-0.7c0.3,0 0.4,0 0.6,0.1c0,0.1 0,0.2 -0.1,0.3c-0.1,0 -0.3,-0.1 -0.5,-0.1c-0.3,0 -0.5,0.2 -0.5,0.4c0,0.3 0.2,0.4 0.5,0.5c0.4,0.2 0.7,0.4 0.7,0.8c0,0.4 -0.3,0.8 -0.9,0.8c-0.3,0 -0.5,-0.1 -0.7,-0.2c0.2,-0.1 0.2,-0.1 0.2,-0.3z" id="svg_13_1_"/>
     <path d="m122.163574,152.854512c0,0.6 0.1,1 0.1,1.6s0.3,0.8 0.7,0.8s0.6,-0.3 0.6,-0.9c-0.1,-0.6 -0.1,-1 -0.2,-1.6c0.1,0 0.2,0 0.3,0c0.1,0.6 0.1,0.9 0.2,1.6c0.1,0.8 -0.3,1.2 -0.9,1.3s-1,-0.2 -1,-1.1c0,-0.6 -0.1,-1 -0.1,-1.6c0.1,-0.1 0.2,-0.1 0.3,-0.1z" id="svg_14_1_"/>
     <path d="m124.563574,154.854512c0.2,0.1 0.4,0.1 0.7,0.1c0.4,-0.1 0.5,-0.3 0.5,-0.5s-0.2,-0.4 -0.6,-0.4c-0.5,-0.1 -0.8,-0.3 -0.8,-0.7c-0.1,-0.4 0.2,-0.8 0.7,-0.9c0.3,0 0.5,0 0.6,0c0,0.1 0,0.2 0,0.3c-0.1,0 -0.3,-0.1 -0.5,0c-0.4,0.1 -0.5,0.3 -0.4,0.5c0,0.2 0.2,0.3 0.6,0.4c0.5,0.1 0.8,0.3 0.8,0.7c0.1,0.4 -0.2,0.8 -0.8,0.9c-0.3,0 -0.6,0 -0.7,-0.1c-0.2,-0.1 -0.2,-0.2 -0.1,-0.3z" id="svg_15_1_"/>
     <path d="m127.463574,152.354512c-0.3,0.1 -0.5,0.1 -0.8,0.2c0,-0.1 0,-0.2 -0.1,-0.3c0.8,-0.2 1.2,-0.3 2,-0.5c0,0.1 0,0.2 0.1,0.3c-0.3,0.1 -0.5,0.1 -0.8,0.2c0.2,0.9 0.3,1.4 0.5,2.3c-0.2,0 -0.2,0.1 -0.4,0.1c-0.2,-0.9 -0.3,-1.4 -0.5,-2.3z" id="svg_16_1_"/>
     <path d="m129.163574,151.554512c0.3,1 0.4,1.6 0.7,2.6c-0.1,0 -0.2,0.1 -0.4,0.1c-0.3,-1 -0.4,-1.6 -0.7,-2.6c0.2,0 0.3,-0.1 0.4,-0.1l0,0z" id="svg_17_1_"/>
     <path d="m129.763574,151.454512c0.2,-0.1 0.4,-0.2 0.6,-0.3c0.3,-0.1 0.6,-0.1 0.8,0c0.2,0.1 0.3,0.2 0.4,0.4c0.1,0.3 0,0.6 -0.3,0.8l0,0c0.2,0 0.4,0.1 0.6,0.4c0.2,0.3 0.4,0.5 0.4,0.6c-0.1,0.1 -0.2,0.1 -0.4,0.1c-0.1,-0.1 -0.2,-0.3 -0.4,-0.5c-0.2,-0.3 -0.4,-0.4 -0.7,-0.3c-0.1,0 -0.2,0.1 -0.3,0.1c0.1,0.4 0.2,0.7 0.3,1.1c-0.1,0 -0.2,0.1 -0.4,0.1c-0.2,-1 -0.3,-1.5 -0.6,-2.5l0,0l0,0l0,0l0,0zm0.7,1c0.1,0 0.2,-0.1 0.3,-0.1c0.4,-0.1 0.5,-0.4 0.4,-0.7s-0.4,-0.4 -0.7,-0.3c-0.2,0.1 -0.3,0.1 -0.3,0.1c0.1,0.5 0.2,0.7 0.3,1z" id="svg_18_1_"/>
     <path d="m132.763574,152.254512c0,0.4 0,0.5 0,0.9c-0.1,0.1 -0.2,0.1 -0.3,0.1c0,-1.2 0,-1.7 -0.1,-2.9c0.1,-0.1 0.2,-0.1 0.4,-0.2c0.7,0.9 1.1,1.3 1.8,2.1c-0.1,0.1 -0.2,0.1 -0.3,0.2c-0.2,-0.3 -0.4,-0.4 -0.6,-0.7c-0.4,0.3 -0.5,0.4 -0.9,0.5l0,0l0,0l0,0l0,0zm0.7,-0.6c-0.2,-0.2 -0.3,-0.4 -0.5,-0.6c-0.1,-0.1 -0.2,-0.3 -0.3,-0.4l0,0c0,0.2 0,0.3 0.1,0.5c0,0.3 0,0.5 0,0.8c0.3,-0.1 0.4,-0.2 0.7,-0.3z" id="svg_19_1_"/>
     <path d="m134.963574,152.254512c-0.4,-1 -0.6,-1.5 -1.1,-2.5c0.1,-0.1 0.2,-0.1 0.3,-0.2c0.5,0.4 0.8,0.5 1.3,0.9c0.3,0.2 0.6,0.4 0.8,0.6l0,0c-0.2,-0.3 -0.3,-0.6 -0.5,-1s-0.3,-0.6 -0.5,-1c0.1,-0.1 0.2,-0.1 0.3,-0.2c0.5,1 0.7,1.4 1.2,2.4c-0.1,0.1 -0.2,0.1 -0.3,0.2c-0.6,-0.3 -0.8,-0.5 -1.4,-0.8c-0.3,-0.2 -0.6,-0.4 -0.8,-0.6l0,0c0.2,0.3 0.3,0.6 0.5,1s0.3,0.6 0.5,1.1c-0.1,0 -0.2,0 -0.3,0.1z" id="svg_20_1_"/>
     <path d="m138.763574,148.454512c0.5,0.8 0.2,1.5 -0.4,1.9c-0.7,0.4 -1.4,0.2 -1.7,-0.6c-0.4,-0.8 -0.2,-1.5 0.4,-1.9c0.6,-0.3 1.3,0 1.7,0.6l0,0zm-1.8,1.2c0.3,0.5 0.8,0.8 1.3,0.5s0.5,-0.9 0.2,-1.5c-0.3,-0.5 -0.8,-0.8 -1.3,-0.5c-0.5,0.4 -0.5,1 -0.2,1.5z" id="svg_21_1_"/>
     <path d="m139.663574,149.054512c0.2,0 0.4,-0.1 0.7,-0.2c0.3,-0.2 0.4,-0.5 0.3,-0.7s-0.4,-0.2 -0.8,-0.1c-0.5,0.1 -0.8,0.1 -1,-0.2c-0.2,-0.4 -0.1,-0.8 0.4,-1.1c0.2,-0.2 0.5,-0.2 0.6,-0.2c0,0.1 0,0.2 0.1,0.3c-0.1,0 -0.3,0.1 -0.5,0.2c-0.3,0.2 -0.3,0.5 -0.2,0.6c0.1,0.2 0.3,0.2 0.8,0.1c0.5,-0.1 0.9,-0.1 1.1,0.2s0.1,0.8 -0.5,1.2c-0.2,0.2 -0.5,0.3 -0.7,0.3c-0.3,-0.2 -0.3,-0.3 -0.3,-0.4l0,0l0,0l0,0l0,0z" id="svg_22_1_"/>
    </g>
   </g>
  </g>
  <path d="m110.463574,27.654512" class="st21" id="svg_1"/>
  <polyline points="118.26356506347656,25.95451307296753 118.66355895996094,42.854501247406006 119.26356506347656,45.554513454437256 119.86357116699219,42.95450735092163 119.86357116699219,25.95451307296753 119.06358337402344,23.45451307296753 " class="st1" id="svg_2"/>
  <polyline points="112.76356506347656,26.55450963973999 115.86357116699219,43.054513454437256 117.06358337402344,45.554513454437256 117.16355895996094,42.95450735092163 114.36357116699219,26.45451307296753 113.16355895996094,24.054511547088623 " class="st1" id="svg_3"/>
  <polyline points="107.96357727050781,27.454511165618896 113.26356506347656,43.354501247406006 114.66355895996094,45.65450429916382 114.46357727050781,43.054513454437256 109.56356811523438,27.05450963973999 108.06356811523438,24.854514598846436 " class="st1" id="svg_4"/>
  <polyline points="103.46357727050781,29.054507732391357 110.56356811523438,44.25451040267944 112.26356506347656,46.45450735092163 111.66357421875,43.854501247406006 104.96357727050781,28.554507732391357 103.16357421875,26.45451307296753 " class="st1" id="svg_5"/>
  <polyline points="99.36357116699219,31.65450429916382 108.36357116699219,45.854501247406006 110.26356506347656,47.75451040267944 109.46357727050781,45.25451040267944 100.76356506347656,30.95450735092163 98.76356506347656,29.15450620651245 " class="st1" id="svg_6"/>
  <polyline points="95.36357116699219,34.554513454437256 106.16357421875,47.45450735092163 108.36357116699219,49.15450429916382 107.16357421875,46.75451040267944 96.66357421875,33.65450429916382 94.46357727050781,32.15450429916382 " class="st1" id="svg_7"/>
  <polyline points="91.86357116699219,37.854501247406006 104.26356506347656,49.25451040267944 106.66357421875,50.65450429916382 105.16357421875,48.45450735092163 93.06356811523438,36.75451040267944 90.56356811523438,35.554513454437256 " class="st1" id="svg_8"/>
  <polyline points="88.66357421875,41.45450735092163 102.36357116699219,51.45450735092163 104.86357116699219,52.45450735092163 103.16357421875,50.554513454437256 89.76356506347656,40.25451040267944 87.16357421875,39.354501247406006 " class="st1" id="svg_9"/>
  <polyline points="85.96357727050781,45.65450429916382 100.96357727050781,53.354501247406006 103.66357421875,54.054513454437256 101.66357421875,52.354501247406006 86.76356506347656,44.25451040267944 84.16357421875,43.75451040267944 " class="st1" id="svg_10"/>
  <polyline points="83.96357727050781,50.054513454437256 99.96357727050781,55.854501247406006 102.66357421875,56.25451040267944 100.46357727050781,54.75451040267944 84.66357421875,48.65450429916382 81.96357727050781,48.45450735092163 " class="st1" id="svg_11"/>
  <polyline points="83.66357421875,54.65450429916382 100.26356506347656,58.354501247406006 101.96357727050781,58.354501247406006 99.56356811523438,57.25451040267944 83.16357421875,53.15450429916382 80.46357727050781,53.354501247406006 " class="st1" id="svg_12"/>
  <polyline points="124.86357116699219,26.654508113861084 122.46357727050781,43.15450429916382 121.46357727050781,45.75451040267944 121.26356506347656,43.054513454437256 123.26356506347656,26.45451307296753 124.36357116699219,24.054511547088623 " class="st1" id="svg_14"/>
  <polyline points="130.36358642578125,27.75451421737671 125.26356506347656,43.75451040267944 123.76356506347656,46.054513454437256 124.06358337402344,43.554513454437256 128.76358032226562,27.354512691497803 130.26358032226562,25.154510021209717 " class="st1" id="svg_15"/>
  <polyline points="135.0635986328125,29.754512310028076 127.46358489990234,44.65450429916382 125.76356506347656,46.75451040267944 126.36357879638672,44.25451040267944 133.66357421875,29.054507732391357 135.46359252929688,27.154508113861084 " class="st1" id="svg_16"/>
  <polyline points="139.16357421875,32.45450735092163 129.66357421875,46.354501247406006 127.66356658935547,48.15450429916382 128.5635986328125,45.75451040267944 137.76358032226562,31.65450429916382 139.76358032226562,29.85451078414917 " class="st1" id="svg_17"/>
  <polyline points="142.96359252929688,35.45450735092163 131.76358032226562,48.054513454437256 129.5635986328125,49.554513454437256 130.76358032226562,47.25451040267944 141.66357421875,34.45450735092163 143.96359252929688,33.054505825042725 " class="st1" id="svg_18"/>
  <polyline points="146.36358642578125,38.854501247406006 133.66357421875,49.854501247406006 131.16357421875,51.15450429916382 132.76358032226562,49.054513454437256 145.26358032226562,37.75451040267944 147.66357421875,36.554513454437256 " class="st1" id="svg_19"/>
  <polyline points="149.46359252929688,42.554513454437256 135.46359252929688,52.054513454437256 132.86358642578125,53.054513454437256 134.66357421875,51.15450429916382 148.46359252929688,41.354501247406006 150.96359252929688,40.45450735092163 " class="st1" id="svg_20"/>
  <polyline points="152.0635986328125,46.75451040267944 136.76358032226562,54.054513454437256 134.0635986328125,54.65450429916382 136.16357421875,53.054513454437256 151.26358032226562,45.354501247406006 153.96359252929688,44.95450735092163 " class="st1" id="svg_21"/>
  <polyline points="153.86358642578125,51.354501247406006 137.76358032226562,56.554513454437256 134.96359252929688,56.854501247406006 137.26358032226562,55.45450735092163 153.26358032226562,49.854501247406006 155.96359252929688,49.75451040267944 " class="st1" id="svg_22"/>
  <polyline points="155.0635986328125,55.95450735092163 138.36358642578125,59.15450429916382 135.66357421875,59.054513454437256 138.0635986328125,57.95450735092163 154.5635986328125,54.45450735092163 157.36358642578125,54.65450429916382 " class="st1" id="svg_24"/>
  <path d="m92.663574,57.154512l0.4,-0.4c0,0 13.8,5.6 26.1,5.5c12.2,-0.1 23,-3 23.8,-3.8c1,-0.9 2.2,-0.5 2.2,-0.5l2.2,2c0,0 -1.6,-0.6 -2.4,-0.3c-1,0.4 -2.2,1.3 -4.6,2s-11.7,2.4 -21.6,2.6c-9.9,0.2 -23.7,-4.1 -25,-4.5c-1,-0.4 -1.6,-0.6 -1.6,-0.6l-2.9,0.9l0.8,-0.8l1,-0.9l0.7,-0.7l0.9,-0.5z" class="st22" id="path2373_2_"/>
 </g>
 <g>
  <title>background</title>
  <rect fill="none" id="canvas_background" height="402" width="582" y="-1" x="-1"/>
 </g>
</svg>