<?xml version="1.0" encoding="UTF-8" standalone="no"?>
<!-- Created with Inkscape (http://www.inkscape.org/) -->
<svg
   xmlns:dc="http://purl.org/dc/elements/1.1/"
   xmlns:cc="http://web.resource.org/cc/"
   xmlns:rdf="http://www.w3.org/1999/02/22-rdf-syntax-ns#"
   xmlns:svg="http://www.w3.org/2000/svg"
   xmlns="http://www.w3.org/2000/svg"
   xmlns:sodipodi="http://sodipodi.sourceforge.net/DTD/sodipodi-0.dtd"
   xmlns:inkscape="http://www.inkscape.org/namespaces/inkscape"
   id="svg2"
   sodipodi:version="0.32"
   inkscape:version="0.45pre1"
   width="600"
   height="400"
   version="1.0"
   sodipodi:docbase="C:\Documents and Settings\Flanker\Desktop"
   sodipodi:docname="Flag_of_Umbria.png"
   sodipodi:modified="true">
  <metadata
     id="metadata7">
    <rdf:RDF>
      <cc:Work
         rdf:about="">
        <dc:format>image/svg+xml</dc:format>
        <dc:type
           rdf:resource="http://purl.org/dc/dcmitype/StillImage" />
      </cc:Work>
    </rdf:RDF>
  </metadata>
  <defs
     id="defs5" />
  <sodipodi:namedview
     inkscape:window-height="573"
     inkscape:window-width="791"
     inkscape:pageshadow="2"
     inkscape:pageopacity="0.0"
     guidetolerance="10.0"
     gridtolerance="10.0"
     objecttolerance="10.0"
     borderopacity="1.0"
     bordercolor="#666666"
     pagecolor="#ffffff"
     id="base"
     inkscape:showpageshadow="false"
     inkscape:zoom="0.52342475"
     inkscape:cx="288.28937"
     inkscape:cy="133.14985"
     inkscape:window-x="154"
     inkscape:window-y="168"
     inkscape:current-layer="svg2" />
  <rect
     style="opacity:1;fill:#00943a;fill-opacity:1;fill-rule:nonzero;stroke:#395475;stroke-width:0.60000002;stroke-linecap:round;stroke-linejoin:miter;stroke-miterlimit:4;stroke-dasharray:none;stroke-dashoffset:0;stroke-opacity:1"
     id="rect2194"
     width="599.40002"
     height="399.39999"
     x="0.30000001"
     y="0.30000001" />
  <g
     id="g2196"
     transform="matrix(0.8130378,0,0,0.8130378,512.80567,181.6026)">
    <rect
       y="-125.62203"
       x="-357.99142"
       height="296.5"
       width="192.50003"
       id="rect2179"
       style="fill:#b2b2b2;fill-opacity:1;fill-rule:nonzero;stroke:#ffffff;stroke-width:4.30484343;stroke-linecap:round;stroke-linejoin:miter;stroke-miterlimit:4;stroke-dasharray:none;stroke-dashoffset:0;stroke-opacity:1" />
    <path
       sodipodi:nodetypes="csccccccccsccccccccccccccscccccccscc"
       id="path4129"
       d="M -320.00704,-125.57203 C -322.1896,-124.49139 -324.34871,-121.40269 -324.34871,-119.19006 C -324.34871,-116.97743 -322.1896,-113.88872 -320.00704,-112.80809 L -327.53468,-84.042072 L -327.53468,-82.030022 L -327.53468,-79.640714 L -327.53468,-15.72671 L -327.53468,-13.71466 L -327.53468,-11.32536 L -320.00704,17.44066 C -322.1896,18.52129 -324.34871,21.61 -324.34871,23.82263 C -324.34871,26.03526 -322.1896,29.12397 -320.00704,30.2046 L -327.53468,58.97061 L -327.53468,60.98266 L -327.53468,127.28597 L -327.53468,129.29802 L -320.00704,158.06404 C -320.00704,158.06405 -320.00704,170.82797 -320.00704,170.82797 L -303.73359,170.82797 C -303.73359,170.82798 -303.73359,158.06404 -303.73359,158.06404 L -296.17472,129.29802 L -296.17472,127.28597 L -296.17472,60.98266 L -296.17472,58.97061 L -303.73359,30.2046 C -301.55103,29.12397 -299.36069,26.03526 -299.36069,23.82263 C -299.36069,21.61 -301.55103,18.52129 -303.73359,17.44066 L -296.17472,-11.32536 L -296.17472,-13.71466 L -296.17472,-79.640714 L -296.17472,-82.030022 L -296.17472,-84.042072 L -303.73359,-112.80809 C -301.55103,-113.88872 -299.36069,-116.97743 -299.36069,-119.19006 C -299.36069,-121.40269 -301.55103,-124.49139 -303.73359,-125.57203 L -320.00704,-125.57203 z "
       style="fill:#ff0000;fill-opacity:1;fill-rule:evenodd;stroke:#ffffff;stroke-width:4.4278388;stroke-linecap:butt;stroke-linejoin:miter;stroke-miterlimit:4;stroke-dasharray:none;stroke-opacity:1" />
    <path
       style="fill:#ff0000;fill-opacity:1;fill-rule:evenodd;stroke:#ffffff;stroke-width:4.4278388;stroke-linecap:butt;stroke-linejoin:miter;stroke-miterlimit:4;stroke-dasharray:none;stroke-opacity:1"
       d="M -271.17292,-125.57203 C -273.35548,-124.49139 -275.51459,-121.40269 -275.51459,-119.19006 C -275.51459,-116.97743 -273.35548,-113.88872 -271.17292,-112.80809 L -278.70056,-84.042072 L -278.70056,-82.030022 L -278.70056,-79.640714 L -278.70056,-15.72671 L -278.70056,-13.71466 L -278.70056,-11.32536 L -271.17292,17.44066 C -273.35548,18.52129 -275.51459,21.61 -275.51459,23.82263 C -275.51459,26.03526 -273.35548,29.12397 -271.17292,30.2046 L -278.70056,58.97061 L -278.70056,60.98266 L -278.70056,127.28597 L -278.70056,129.29802 L -271.17292,158.06404 C -271.17292,158.06405 -271.17292,170.82797 -271.17292,170.82797 L -254.89948,170.82797 C -254.89948,170.82798 -254.89948,158.06404 -254.89948,158.06404 L -247.34061,129.29802 L -247.34061,127.28597 L -247.34061,60.98266 L -247.34061,58.97061 L -254.89948,30.2046 C -252.71692,29.12397 -250.52658,26.03526 -250.52658,23.82263 C -250.52658,21.61 -252.71692,18.52129 -254.89948,17.44066 L -247.34061,-11.32536 L -247.34061,-13.71466 L -247.34061,-79.640714 L -247.34061,-82.030022 L -247.34061,-84.042072 L -254.89948,-112.80809 C -252.71692,-113.88872 -250.52658,-116.97743 -250.52658,-119.19006 C -250.52658,-121.40269 -252.71692,-124.49139 -254.89948,-125.57203 L -271.17292,-125.57203 z "
       id="path5117"
       sodipodi:nodetypes="csccccccccsccccccccccccccscccccccscc" />
    <path
       sodipodi:nodetypes="csccccccccsccccccccccccccscccccccscc"
       id="path5119"
       d="M -222.33881,-125.57203 C -224.52137,-124.49139 -226.68047,-121.40269 -226.68047,-119.19006 C -226.68047,-116.97743 -224.52137,-113.88872 -222.33881,-112.80809 L -229.86645,-84.042072 L -229.86645,-82.030022 L -229.86645,-79.640714 L -229.86645,-15.72671 L -229.86645,-13.71466 L -229.86645,-11.32536 L -222.33881,17.44066 C -224.52137,18.52129 -226.68047,21.61 -226.68047,23.82263 C -226.68047,26.03526 -224.52137,29.12397 -222.33881,30.2046 L -229.86645,58.97061 L -229.86645,60.98266 L -229.86645,127.28597 L -229.86645,129.29802 L -222.33881,158.06404 C -222.33881,158.06405 -222.33881,170.82797 -222.33881,170.82797 L -206.06537,170.82797 C -206.06537,170.82798 -206.06537,158.06404 -206.06537,158.06404 L -198.50649,129.29802 L -198.50649,127.28597 L -198.50649,60.98266 L -198.50649,58.97061 L -206.06537,30.2046 C -203.88281,29.12397 -201.69247,26.03526 -201.69247,23.82263 C -201.69247,21.61 -203.88281,18.52129 -206.06537,17.44066 L -198.50649,-11.32536 L -198.50649,-13.71466 L -198.50649,-79.640714 L -198.50649,-82.030022 L -198.50649,-84.042072 L -206.06537,-112.80809 C -203.88281,-113.88872 -201.69247,-116.97743 -201.69247,-119.19006 C -201.69247,-121.40269 -203.88281,-124.49139 -206.06537,-125.57203 L -222.33881,-125.57203 z "
       style="fill:#ff0000;fill-opacity:1;fill-rule:evenodd;stroke:#ffffff;stroke-width:4.4278388;stroke-linecap:butt;stroke-linejoin:miter;stroke-miterlimit:4;stroke-dasharray:none;stroke-opacity:1" />
    <path
       id="path3152"
       d="M -357.79299,-83.921154 L -165.68985,-83.921154"
       style="fill:none;fill-rule:evenodd;stroke:#ffffff;stroke-width:4.4278388;stroke-linecap:butt;stroke-linejoin:miter;stroke-miterlimit:4;stroke-dasharray:none;stroke-opacity:1" />
    <path
       id="path3154"
       d="M -165.88831,-11.25228 L -357.59453,-11.25228"
       style="fill:none;fill-rule:evenodd;stroke:#ffffff;stroke-width:4.4278388;stroke-linecap:butt;stroke-linejoin:miter;stroke-miterlimit:4;stroke-dasharray:none;stroke-opacity:1" />
    <path
       style="fill:none;fill-rule:evenodd;stroke:#ffffff;stroke-width:4.4278388;stroke-linecap:butt;stroke-linejoin:miter;stroke-miterlimit:4;stroke-dasharray:none;stroke-opacity:1"
       d="M -165.88831,59.4311 L -357.59453,59.4311"
       id="path4125" />
    <path
       id="path4127"
       d="M -165.88831,128.92318 L -357.59453,128.92318"
       style="fill:none;fill-rule:evenodd;stroke:#ffffff;stroke-width:4.4278388;stroke-linecap:butt;stroke-linejoin:miter;stroke-miterlimit:4;stroke-dasharray:none;stroke-opacity:1" />
  </g>
</svg>
