<?xml version="1.0" encoding="UTF-8" standalone="no"?>
<svg
   xmlns:dc="http://purl.org/dc/elements/1.1/"
   xmlns:cc="http://creativecommons.org/ns#"
   xmlns:rdf="http://www.w3.org/1999/02/22-rdf-syntax-ns#"
   xmlns:svg="http://www.w3.org/2000/svg"
   xmlns="http://www.w3.org/2000/svg"
   xmlns:sodipodi="http://sodipodi.sourceforge.net/DTD/sodipodi-0.dtd"
   xmlns:inkscape="http://www.inkscape.org/namespaces/inkscape"
   width="4000"
   height="2400"
   viewBox="0 0 733.33332 440"
   id="svg2"
   version="1.1"
   inkscape:version="0.48.2 r9819"
   sodipodi:docname="AJAX1.svg">
  <metadata
     id="metadata27">
    <rdf:RDF>
      <cc:Work
         rdf:about="">
        <dc:format>image/svg+xml</dc:format>
        <dc:type
           rdf:resource="http://purl.org/dc/dcmitype/StillImage" />
      </cc:Work>
    </rdf:RDF>
  </metadata>
  <defs
     id="defs25" />
  <sodipodi:namedview
     pagecolor="#ffffff"
     bordercolor="#666666"
     borderopacity="1"
     objecttolerance="10"
     gridtolerance="10"
     guidetolerance="10"
     inkscape:pageopacity="0"
     inkscape:pageshadow="2"
     inkscape:window-width="1280"
     inkscape:window-height="1004"
     id="namedview23"
     showgrid="false"
     fit-margin-top="0"
     fit-margin-left="0"
     fit-margin-right="0"
     fit-margin-bottom="0"
     inkscape:zoom="0.14122807"
     inkscape:cx="1958.4732"
     inkscape:cy="1774.3192"
     inkscape:window-x="-8"
     inkscape:window-y="-8"
     inkscape:window-maximized="1"
     inkscape:current-layer="svg2"
     showguides="true"
     inkscape:guide-bbox="true" />
  <path
     sodipodi:nodetypes="ccccc"
     inkscape:connector-curvature="0"
     id="path3778"
     d="M -6.6666667e-6,0 733.33332,0 l 0,440 L -6.6666667e-6,440 z"
     style="fill:#ffffff;fill-opacity:1;stroke:none" />
  <path
     sodipodi:nodetypes="ccccc"
     inkscape:connector-curvature="0"
     id="path3050"
     d="M -6.6666667e-6,146.66667 733.33333,146.66667 733.33333,0 -6.6666666e-6,0 z"
     style="fill:#0099ff;fill-opacity:1;stroke:none" />
  <path
     style="fill:#bf0a30;stroke:none"
     d="M -6.6666667e-6,0 183.33332,0 l 0,110 L -6.6666667e-6,110 z"
     id="path3074"
     inkscape:connector-curvature="0"
     sodipodi:nodetypes="ccccc" />
  <path
     style="font-size:medium;font-style:normal;font-variant:normal;font-weight:normal;font-stretch:normal;text-indent:0;text-align:start;text-decoration:none;line-height:normal;letter-spacing:normal;word-spacing:normal;text-transform:none;direction:ltr;block-progression:tb;writing-mode:lr-tb;text-anchor:start;baseline-shift:baseline;color:#000000;fill:#ffffff;fill-opacity:1;fill-rule:nonzero;stroke:none;stroke-width:10;marker:none;visibility:visible;display:inline;overflow:visible;enable-background:accumulate;font-family:Sans;-inkscape-font-specification:Sans"
     d="m -6.6666667e-6,10 0,10 L 183.33332,20 l 0,-10 z m 0,20.000003 0,10 183.3333266666667,0 0,-10 z m 0,20 0,10 183.3333266666667,0 0,-10 z m 0,20 0,10 183.3333266666667,0 0,-10 z m 0,20 0,9.999997 L 183.33332,100 l 0,-9.999997 z"
     id="path3076"
     inkscape:connector-curvature="0"
     sodipodi:nodetypes="ccccccccccccccccccccccccc" />
  <path
     style="fill:#002868;stroke:none"
     d="M -6.6666667e-6,0 49.999993,0 l 0,50.000003 -49.9999996666667,0 z"
     id="path3078"
     inkscape:connector-curvature="0" />
  <g
     style="stroke:none"
     id="g3080"
     transform="matrix(15,0,0,15,24.999993,25)">
    <g
       style="stroke:none"
       id="g3082">
      <polygon
         id="polygon3084"
         points="0,0 0,1 0.5,1 "
         transform="matrix(0.95105652,0.30901699,-0.30901699,0.95105652,0,-1)"
         style="fill:#ffffff;stroke:none" />
      <polygon
         id="polygon3086"
         points="0.5,1 0,0 0,1 "
         transform="matrix(-0.95105652,0.30901699,0.30901699,0.95105652,0,-1)"
         style="fill:#ffffff;stroke:none" />
    </g>
    <g
       style="stroke:none"
       transform="matrix(0.30901699,0.95105652,-0.95105652,0.30901699,0,0)"
       id="g3088">
      <polygon
         id="polygon3090"
         points="0.5,1 0,0 0,1 "
         transform="matrix(0.95105652,0.30901699,-0.30901699,0.95105652,0,-1)"
         style="fill:#ffffff;stroke:none" />
      <polygon
         id="polygon3092"
         points="0.5,1 0,0 0,1 "
         transform="matrix(-0.95105652,0.30901699,0.30901699,0.95105652,0,-1)"
         style="fill:#ffffff;stroke:none" />
    </g>
    <g
       style="stroke:none"
       transform="matrix(0.30901699,-0.95105652,0.95105652,0.30901699,0,0)"
       id="g3094">
      <polygon
         id="polygon3096"
         points="0.5,1 0,0 0,1 "
         transform="matrix(0.95105652,0.30901699,-0.30901699,0.95105652,0,-1)"
         style="fill:#ffffff;stroke:none" />
      <polygon
         id="polygon3098"
         points="0.5,1 0,0 0,1 "
         transform="matrix(-0.95105652,0.30901699,0.30901699,0.95105652,0,-1)"
         style="fill:#ffffff;stroke:none" />
    </g>
    <g
       style="stroke:none"
       transform="matrix(-0.80901699,0.58778525,-0.58778525,-0.80901699,0,0)"
       id="g3100">
      <polygon
         id="polygon3102"
         points="0.5,1 0,0 0,1 "
         transform="matrix(0.95105652,0.30901699,-0.30901699,0.95105652,0,-1)"
         style="fill:#ffffff;stroke:none" />
      <polygon
         id="polygon3104"
         points="0.5,1 0,0 0,1 "
         transform="matrix(-0.95105652,0.30901699,0.30901699,0.95105652,0,-1)"
         style="fill:#ffffff;stroke:none" />
    </g>
    <g
       style="stroke:none"
       transform="matrix(-0.80901699,-0.58778525,0.58778525,-0.80901699,0,0)"
       id="g3106">
      <polygon
         id="polygon3108"
         points="0.5,1 0,0 0,1 "
         transform="matrix(0.95105652,0.30901699,-0.30901699,0.95105652,0,-1)"
         style="fill:#ffffff;stroke:none" />
      <polygon
         id="polygon3110"
         points="0.5,1 0,0 0,1 "
         transform="matrix(-0.95105652,0.30901699,0.30901699,0.95105652,0,-1)"
         style="fill:#ffffff;stroke:none" />
    </g>
  </g>
  <path
     style="fill:#ef7300;stroke:none"
     d="m 618.77048,126.51448 c 0,13.32266 -10.80015,24.12281 -24.12282,24.12281 -13.32264,0 -24.12281,-10.80015 -24.12281,-24.12281 0,-13.32266 10.80017,-24.12282 24.12281,-24.12282 13.32267,0 24.12282,10.80016 24.12282,24.12282 z"
     id="circle12"
     inkscape:connector-curvature="0" />
  <path
     style="fill:#ef7300;stroke:none"
     inkscape:connector-curvature="0"
     d="m 610.8584,97.625002 c 0,0 12.28333,-34.833333 17.96667,-29.883333 5.68333,4.95 -17.96667,29.883333 -17.96667,29.883333 z"
     id="path14" />
  <path
     style="fill:#ef7300;stroke:none"
     inkscape:connector-curvature="0"
     d="m 617.66813,104.6177 c 0,0 18.99334,-31.677981 23.57337,-25.692699 4.58022,5.985467 -23.57337,25.692699 -23.57337,25.692699 z"
     id="path16" />
  <path
     style="fill:#ef7300;stroke:none"
     inkscape:connector-curvature="0"
     d="m 626.67163,110.27739 c 0,0 18.90735,-25.939838 22.69575,-19.424722 3.78804,6.515484 -22.69575,19.424722 -22.69575,19.424722 z"
     id="path18" />
  <path
     style="fill:#ef7300;stroke:none"
     inkscape:connector-curvature="0"
     d="m 636.09552,120.91072 c 0,0 19.24486,-18.42995 21.87955,-11.36905 2.63431,7.06145 -21.87955,11.36905 -21.87955,11.36905 z"
     id="path20" />
  <path
     style="fill:#ef7300;stroke:none"
     inkscape:connector-curvature="0"
     d="m 604.33888,88.515718 c 0,0 2.18772,-34.152432 8.90285,-30.730882 6.71532,3.421733 -8.90285,30.730882 -8.90285,30.730882 z"
     id="path22" />
  <path
     style="fill:#ef7300;stroke:none"
     inkscape:connector-curvature="0"
     d="m 589.07602,92.676102 c 0,0 -6.29915,-37.553633 1.06168,-35.934433 7.36065,1.6192 -1.06168,35.934433 -1.06168,35.934433 z"
     id="path24" />
  <path
     style="fill:#ef7300;stroke:none"
     inkscape:connector-curvature="0"
     d="m 574.42402,93.973368 c 0,0 -17.60422,-32.763499 -10.13265,-33.748366 7.47266,-0.984866 10.13265,33.748366 10.13265,33.748366 z"
     id="path26" />
  <path
     style="fill:#ef7300;stroke:none"
     inkscape:connector-curvature="0"
     d="m 562.87402,100.74167 c 0,0 -29.07264,-25.545852 -22.40462,-29.058335 6.66838,-3.512483 22.40462,29.058335 22.40462,29.058335 z"
     id="path28" />
  <path
     style="fill:#ef7300;stroke:none"
     inkscape:connector-curvature="0"
     d="m 555.57588,114.24564 c 10.80585,6.05293 -39.1853,-17.525939 -29.41748,-26.515688 7.06328,-6.501184 29.41748,26.515688 29.41748,26.515688 z"
     id="path30" />
  <path
     style="fill:#006633;fill-opacity:1;stroke:none"
     inkscape:connector-curvature="0"
     id="Mountain"
     d="M -6.6666667e-6,278.39166 C 33.85781,268.87262 177.09192,280.59166 191.75859,281.32499 c 14.66667,0.73333 28.99398,-19.32737 52.91807,-16.85237 23.92408,2.475 40.42298,19.24927 50.59743,18.97427 22.20588,-0.31552 94.26303,-69.62193 112.41487,-74.02285 18.15183,-4.40055 25.62835,-2.69848 32.22798,-5.7233 6.59963,-3.02481 20.6239,-17.87408 28.59853,-21.7239 7.97464,-3.84981 43.34294,-11.75185 50.3096,-16.51851 6.96667,-4.76667 13.93334,-10.81667 18.51667,-14.66667 4.58333,-3.85 15.21667,-8.43333 19.61667,-11 4.4,-2.56666 10.63333,-9.53333 14.48333,-9.16667 3.85,0.36667 17.23333,-2.56666 28.41667,5.31667 11.18333,7.88334 17.6,19.25 26.4,27.31667 17.78333,15.4 26.21666,12.83333 33.91666,18.7 7.7,5.86666 13.75,24.93333 22,31.9 8.25,6.96666 19.25,4.76666 24.75,8.25 4.85284,3.0734 22.10515,18.56396 26.00355,22.16719 0.51993,0.48052 0.80942,0.74947 0.80942,0.74947 l 0,194.97501 -733.7380466666666,0 0,-161.60834 z"
     sodipodi:nodetypes="cssccssssssscssscccccc" />
</svg>
