<?xml version="1.0" encoding="UTF-8"?>
<svg xmlns="http://www.w3.org/2000/svg" width="900" height="450" viewBox="0 0 672 336">
<rect width="672" height="336" fill="#003573"/>
<rect width="672" height="224" fill="#fff"/>
<rect width="672" height="112" fill="#dc221f"/>
<g fill="#fc0" transform="scale(0.75)">
<path d="M92.9328,186.667 84.8375,128.969 51.4749,177.254 69.8349,121.842 18.3075,151.22 59.4863,109.07 0,113.721 55.8416,93.1802 0.17824,72.1836 59.6226,77.3209 18.807,34.8355 70.0804,64.6333 52.1966,9.07325 85.1437,57.6298 93.7338,0 101.829,57.698 135.192,9.41254 116.832,64.8243 168.359,35.4466 127.18,77.5971 186.667,72.9458 130.825,93.4867 186.488,114.483 127.044,109.346 167.86,151.831 116.586,122.034 134.47,177.593 101.523,129.037 92.9328,186.667z" transform="translate(420.933, 130.667)"/>
<path stroke="#ffd100" d="M182.509 25.7038C182.509 25.7038 134.691 6.52303 98.7685 23.4903C63.0233 40.374 36.5512 74.5975 40.2188 118.474C44.9447 175.013 83.7356 198.193 102.89 206.796C138.873 222.955 181.69 203.207 181.69 203.207C181.69 203.207 151.637 226.602 113.558 226.916C63.0898 227.331 4.23866 184.013 1.9823 116.594C0 57.9901 52.5767 5.30892 103.528 2.51116C149.261 0 182.509 25.7038 182.509 25.7038z" transform="translate(286.359, 109.509)"/>
</g>
</svg>