<?xml version="1.0" encoding="UTF-8"?>
<svg xmlns="http://www.w3.org/2000/svg" width="630" height="360">
<title>Flag of the Northern Province</title>
<rect width="630" height="360" fill="#090"/>
<rect width="410" height="360" fill="#fff"/>
<rect width="220" height="360" fill="#f00"/>
<path d="M0,0H630V360H0zM30,30V330H600V30z" fill="#23f"/>
<path d="M315,100 307.875,124.90625 294.28125,102.71875 293.84375,128.59375 275,110.6875 281.21875,135.75 258.4375,123.40625 271.0625,146.09375 245.71875,139.96875 263.75,158.625 237.71875,159.28125 259.875,172.59375 235.0625,179.96875 259.96875,187.09375 237.78125,200.6875 263.65625,201.125 245.75,219.96875 270.8125,213.75 258.46875,236.53125 281.125,223.96875 275.03125,249.25 293.65625,231.21875 294.3125,257.25 307.71875,234.75 315,260 322.21875,234.9375 335.71875,257.28125 336.1875,231.1875 355,249.25 348.71875,223.9375 371.5625,236.5625 358.96875,213.71875 384.28125,219.96875 366.15625,201.15625 392.28125,200.6875 369.9375,187.21875 395.0625,179.96875 370,172.75 392.3125,159.28125 366.21875,158.78125 384.3125,139.96875 359,146.21875 371.59375,123.40625 348.75,136.03125 355.03125,110.6875 336.21875,128.78125 335.71875,102.6875 322.375,124.84375z" fill="#fc0"/>
<circle cx="315" cy="180" r="53" fill="none" stroke="#fff" stroke-width="5"/>
</svg>