<svg height="600" width="1200" xmlns="http://www.w3.org/2000/svg" xmlns:xlink="http://www.w3.org/1999/xlink"><clipPath id="a"><path d="m-15-7.5h30v15h-30z"/></clipPath><path d="m0 0h1200v600h-1200z" fill="#00247d" stroke-width="40"/><g clip-path="url(#a)" transform="matrix(20 0 0 20 300 150)"><circle fill="#00247d" r="20"/><path d="m-20-10 40 20m-40 0 40-20" stroke="#fff" stroke-width="3"/><path d="m-20-10 40 20m-40 0 40-20" stroke="#cf142b" stroke-width="2"/><path d="m0 0 20 10h-3l-20-10m3 0 20-10h3l-20 10m-3 0-20 10h-3l20-10m3 0-20-10h3l20 10" fill="#fff"/><path d="m-20 0h40m-20-10v20" stroke="#fff" stroke-width="5"/><path d="m-20 0h40m-20-10v20" stroke="#cf142b" stroke-width="3"/></g><g transform="translate(-519.45432 -470.961616)"><path d="m1554.455 770.96163c0 74.5585-60.4417 135.00011-135.0002 135.00011-74.5584 0-135.0001-60.44161-135.0001-135.00011s60.4417-135.00011 135.0001-135.00011c74.5585 0 135.0002 60.44161 135.0002 135.00011z" fill="#91d7ff"/><path d="m1544.4296 822.10811c-20.1973 49.10854-68.583 83.85363-124.9748 83.85363-56.4564 0-104.8187-34.65552-124.9746-83.85363z" fill="#c89650"/><path d="m1544.0179 822.1081h-249.1261" fill="none" stroke="#000" stroke-width="1.361345"/><path d="m1414.8149 763.76287c-.1156 1.14457.2276 1.84775 1.3024 2.24186.9162.33239 1.9009.48287 2.8557.71121.1818.0431.3636.0582.653.10764-.1585.78173-.2553 1.55837-.4872 2.29645-.1425.45601-.6487.45233-1.0733.43631-.4494-.015-.8974-.10033-1.3374-.0582-.3875.039-.8275.12365-1.1249.34836-1.229.92713-2.6274 1.21655-4.1195 1.25585-3.9.0924-7.6872-.49522-11.3006-1.99397-.8268-.34469-1.6231-.83114-2.33-1.3838-1.2136-.94682-1.1016-2.29578.1972-3.1306.9817-.62976 2.1022-.86536 3.2345-1.02391 2.7517-.38608 5.507-.30104 8.2667-.12361 1.5729.1011 3.1415.18982 4.7144.28216.1818.0118.3635.0231.549.0345" fill="#fed100"/><path d="m1554.455 770.96163c0 74.5585-60.4417 135.00011-135.0002 135.00011-74.5584 0-135.0001-60.44161-135.0001-135.00011s60.4417-135.00011 135.0001-135.00011c74.5585 0 135.0002 60.44161 135.0002 135.00011z" fill="none" stroke="#00247d" stroke-linecap="round" stroke-width="2.268752"/><g transform="matrix(.45378161 0 0 .45378161 -410.15753 500.36734)"><path d="m3893.7002 808.67664 2.2787 1.23743c1.9566 1.06256 3.747 1.44559 5.3711 1.14907 1.624-.2965 2.8523-1.21145 3.6851-2.74487.8839-1.62783 1.0765-3.05974.5776-4.29575-.4989-1.23598-1.7983-2.42417-3.8983-3.56459l-2.7424-1.48923zm-1.4826 2.73017-5.7212 10.53546-3.4354-1.86555 13.9582-25.70374 7.1531 3.8844c2.6618 1.44553 4.3693 3.23313 5.1223 5.36281.7529 2.1297.4782 4.39369-.8241 6.79196-1.0961 2.0185-2.905 3.32644-5.4265 3.9238-2.5216.59737-5.344.048-8.4672-1.64799z"/><path d="m3909.8431 819.77446 6.8476 3.14266 1.7618-12.70775zm8.9872-14.13061 3.2737 1.50239-3.5028 30.57483-3.7658-1.72829 1.2906-10.09643-8.1788-3.75358-6.8292 7.55454-3.4465-1.58173z"/><path d="m3937.6541 827.70345 3.6725 18.30412-3.775-1.36989-2.8901-14.71151-11.2553 9.57849-3.6246-1.3153 14.032-11.36265-3.1139-15.79081 3.7674 1.36712 2.2985 12.30959 10.0209-7.83916 3.6289 1.31688z"/><path d="m3983.8964 829.72323-11.8739-2.50283-1.8505 8.77944 9.4705 1.99623-.6446 3.05811-9.4705-1.99624-2.1957 10.41686 12.4071 2.61524-.6709 3.18293-16.2323-3.42153 6.0327-28.62026 15.699 3.30912z"/><path d="m4008.9233 833.18932-8.7923-1.09207-3.1908 25.68986-3.8795-.48186 3.1909-25.68986-8.7555-1.0875.4144-3.33624 21.4272 2.66143z"/><path d="m4039.9376 850.3892c.01 3.67228-.7289 6.23615-2.2047 7.69163-1.4758 1.45547-3.661 2.18557-6.5555 2.1903-3.8339.006-6.508-2.07408-8.0224-6.241l3.5022-1.42516c1.094 2.88503 2.7083 4.32579 4.8429 4.3223 1.3607-.002 2.4569-.40081 3.2886-1.19577.8317-.79495 1.2455-2.47657 1.2413-5.04485l-.033-20.12717 3.908-.006z"/><path d="m4047.6467 830.206 1.481 17.64608c.3115 3.71181 1.1146 6.00468 2.4091 6.87862s3.065 1.21664 5.3115 1.02808c2.4483-.20548 4.2357-.84737 5.3621-1.92567 1.1263-1.07828 1.5364-3.44212 1.2301-7.09153l-1.4886-17.73623 3.8782-.3255 1.4719 17.53746c.4036 4.80887-.299 8.10305-2.1078 9.88255-1.8089 1.77951-4.5546 2.8238-8.2371 3.13288-3.6209.3039-6.3823-.29486-8.2841-1.79629-1.9019-1.50142-3.0504-4.60532-3.4454-9.31172l-1.4765-17.59178z"/><path d="m4074.3365 850.30647c1.1772.8301 2.4157 1.48836 3.7154 1.97477 1.2996.48642 2.7131.59906 4.2402.33793 1.7413-.29773 3.0519-.93086 3.9318-1.89938.8799-.9685 1.1915-2.20376.9346-3.70577-.2494-1.45856-.9084-2.46512-1.9769-3.01969-1.0686-.55455-2.6436-1.02605-4.7249-1.4145l-1.6952-.39134c-2.3266-.40061-4.3588-1.14491-6.0967-2.23291-1.7378-1.08796-2.7975-2.74798-3.1792-4.98005-.3888-2.27394.1799-4.23103 1.7062-5.87127 1.5262-1.64019 3.597-2.6839 6.2124-3.13113 1.9943-.34097 3.7154-.32447 5.1633.0495 1.4479.37404 2.8708 1.09841 4.2687 2.1731l-1.7393 2.7704c-1.1059-.6054-2.1986-1.10015-3.278-1.48425-1.0794-.38405-2.3442-.4521-3.7944-.20416-1.5409.2635-2.7541.83959-3.6399 1.72828-.8857.88875-1.2347 1.88178-1.0471 2.97911.2355 1.37705 1.0011 2.36518 2.297 2.96439 1.2958.59926 2.6529 1.03761 4.0714 1.31506l2.848.65893c2.9025.55786 4.9712 1.3675 6.206 2.42892 1.2349 1.06145 2.0225 2.5874 2.3628 4.57787.4549 2.66033-.1322 4.87685-1.7613 6.64955-1.6291 1.77271-3.8027 2.89146-6.521 3.35624-1.1095.18973-2.1317.28607-3.0665.28905-.9348.003-1.8354-.0932-2.7018-.28864-.8663-.19539-1.7035-.49186-2.5115-.8894s-1.6584-.97999-2.5512-1.74736z"/><path d="m4110.2205 822.71075-8.582 2.20149 6.4324 25.07538-3.7866.97136-6.4325-25.07538-8.546 2.19227-.8354-3.25644 20.9147-5.36512z"/><path d="m4121.61 846.06269-8.967-27.84073 3.721-1.19846 8.967 27.84073z"/><path d="m4141.1021 811.34209-8.2499 3.23072 9.4397 24.10482-3.64 1.4255-9.4397-24.10483-8.2153 3.21719-1.2259-3.1304 20.1052-7.8734z"/><path d="m4154.353 833.54106-12.2011-26.58279 3.5528-1.63072 12.2012 26.58279z"/><path d="m4161.2807 816.18858 6.6645-3.51439-9.0023-9.14057zm-5.7275-15.73663 3.1861-1.68011 22.108 21.40859-3.6651 1.93272-7.2189-7.17576-7.9601 4.19757 1.8284 10.01832-3.3543 1.76882z"/></g><path d="m1468.7549 730.92702c-.4116.014-.8249.045-1.2383.09-2.474.2662-4.8006.9655-6.9101 2.3144-1.2879.8188-2.3035 1.8544-2.7442 3.3692-.077.2625-.2118.51-.3281.7617-.2313.4944-.5671.8343-1.1699.8223-.2742-.01-.5539.054-.8281.066-1.202.043-2.1744.5338-2.9278 1.4609-1.3268 1.6384-1.2804 3.8493.092 5.6426.7301.9584 1.747 1.5421 2.7403 2.1718.7651.4865 1.5401.9855 2.1894 1.6036 1.3992 1.3372 1.9017 3.0601 1.8867 4.9609-.01.7694 0 1.536 0 2.3555.2938 0 .4605-.0005.627.01.6792.015 1.359.011 2.0352.064.8268.065 1.5033.3665 1.8828 1.1933.3011.6566.6485 1.2995 1.039 1.9024.3549.5489.923.6875 1.5528.5683.8006-.1542 1.4501-.5913 2.0566-1.1054.669-.5679 1.3302-1.1404 1.957-1.6778.877 1.5372 2.414 2.7491 4.0371 3.9278-.1309.069-.208.1193-.289.1543-1.8944.7846-3.7687 1.6149-5.6856 2.3457-3.9145 1.4915-8.0456 2.2051-12.08 3.2675-1.0902.2909-1.9138-.022-2.5704-.9414-1.1672-1.6231-2.5395-3.0678-4.0703-4.3593-1.1592-.9774-2.3261-1.941-3.4511-2.9532-1.6732-1.4958-3.0098-3.2227-3.6446-5.4218-.2233-.7846-.4862-1.5573-.7422-2.334-.4945-1.5074-.9799-3.0223-1.83-4.3828-.7264-1.1592-1.6741-2.0122-3.0586-2.2871-.1426-.027-.3032.023-.5235.043-1.3875-1.6866-3.2046-2.3081-5.4531-1.6973-.058 2.1606-.1707 4.2906.1777 6.4082.4174 2.535 1.4836 4.7919 3.1758 6.6855 2.1918 2.4535 3.9463 5.1699 5.4414 8.0801.7883 1.5337 1.6066 3.0612 2.4727 4.5527 1.314 2.2681 2.7947 4.4091 4.8476 6.0977.1738.1389.3437.2838.5801.4766-.2472 0-.4023.016-.5449-.012-1.546-.2858-3.1195-.4754-4.627-.8965-3.1458-.877-6.252-1.881-9.3789-2.8242-1.7627-.533-3.514-1.112-5.0019-2.2325-1.1126-.8313-2.1836-1.7225-3.2344-2.6308-1.2093-1.0471-2.4255-2.0763-4.0254-2.4668-.909-.2232-1.8446-.3535-2.7637-.5274-.9475-.1789-1.9554-.1789-2.6855-.9628-.05-.054-.1582-.076-.2402-.076-1.0318-.035-2.0641-.033-3.0879-.098-3.0528-.2002-6.1013-.4219-9.1621-.2481-1.666.097-3.3211.2779-4.8868.9199-.7839.32-1.4877.7539-1.9902 1.4571-.9541 1.3446-.6486 2.9554.7774 4.1386 1.2253 1.0123 2.647 1.6577 4.1464 2.086 1.8049.5141 3.6376.9207 5.5079 1.3847l.4082-.035c2.4463.1854 4.8753.3604 7.2597-.3086.4291.7926.8879 1.1889 1.959 1.6485.7338.3127 1.4834.5623 2.2441.7558 1.0399.2625 2.0991.4326 3.1739.5489 1.21.1309 2.3792.4005 3.3965 1.0957 3.54 2.4165 7.3201 4.41618 11.0957 6.42178 3.2418 1.7197 6.6239 2.9749 10.3457 3.1836 3.644.2051 7.2232-.1284 10.6738-1.3457 3.4206-1.2028 6.7047-2.732 9.9473-4.3515.1353-.069.3641-.1033.4804-.033 1.1585.7068 2.3131 1.4181 3.4453 2.1679 1.6849 1.1169 3.1197 2.4893 4.0352 4.3204 1.2406 2.4892 2.1401 5.0943 2.3066 7.8926.05.8654-.073 1.7394-.123 2.6621-.7461-.189-1.325-.3435-1.9082-.4824-2.2456-.5294-4.5307-.7343-6.8301-.8731-3.5479-.2173-7.0871-.5189-10.6387-.2324-1.5417.1193-3.0602.3789-4.5175.9199-2.2637.8384-3.7331 2.3521-4.0996 4.8027-.2516 1.6537-.1487 3.3124.2265 4.9239.5526 2.3532 1.1831 4.6907 1.8594 7.0097.7032 2.4194 1.3022 4.8541 1.4062 7.3848.1396 3.2425-.6067 6.3043-2.0058 9.2188-.3745.7759-.8291 1.51451-1.1738 2.30271-.6379 1.4639-.2562 3.1106.9335 3.957.5759.4138.9862.9161 1.2989 1.5313.1549.301.3301.5909.4922.8926.8312 1.5148 1.9818 2.5894 3.8906 2.6933-.1934.2364-.3086.4448-.4824.5801-.6647.4988-1.3295 1.0007-2.0254 1.4531-1.0319.6726-1.9018 1.4679-2.4043 2.6699.1854.034.3633.053.5371.1.421.12.8769.1857 1.2558.3828.8159.4246 1.5573 1.0139 2.3965 1.3731 2.0056.8501 4.1576 1.0642 6.3028 1.0742 2.8986.012 5.8015-.2053 8.7031-.1933 2.6825.012 5.2796-.4135 7.8691-1.0352 1.2289-.2974 2.4735-.3403 3.7032.043.8691.2742 1.7331.5475 2.6035.8144 1.5373.4715 3.1154.7455 4.6992.3907 1.2101-.2785 2.3817-.7309 3.5605-1.1367 1.3955-.4755 2.8133-.8082 4.2618-.3907.9861.2865 1.9476.6846 2.8828 1.1172 1.9438.8967 3.9197 1.2394 5.9609.4199 1.6689-.6683 3.3423-.5552 5.0469-.2265 1.8819.3556 3.7783.6146 5.7031.5176.3288-.02.6527-.055 1.0352-.086-.1077-.1655-.1651-.2495-.2227-.3418-1.1285-1.7537-2.6743-3.1057-4.2734-4.4004-1.8238-1.4762-3.261-3.2077-4.1075-5.4336-.3323-.8661-.8546-1.6759-1.3847-2.4453-.5716-.8268-1.3985-1.3336-2.418-1.4805-.1469-.023-.3165-.1692-.3945-.3008-.6683-1.1475-1.3017-2.3112-1.9707-3.45511-.9003-1.546-1.9323-3.0271-2.709-4.6269-1.4377-2.9568-1.6551-5.9977-.2246-9.0664.3672-.7926.7103-1.626.8652-2.4805.2633-1.4492.4286-2.9258.5176-4.3984.1316-2.1605.063-4.3199-.2617-6.4688-.4137-2.7363-1.1861-5.384-1.9395-8.039-.8581-3.0296-1.6548-6.0717-1.7988-9.2364-.069-1.5111-.075-3.0294-.2344-4.5332-.4087-3.92608-1.4962-7.67928-3.1347-11.26948-1.9509-4.2788-4.3965-8.2803-6.9512-12.2188-1.5649-2.4157-3.2943-4.7111-5.4082-6.6855-.7731-.7228-1.6308-1.3612-2.4649-2.0528.86-1.1243 1.0191-2.427.8496-3.8261-.1628-1.3337-.7598-2.4567-1.4863-3.5469-.4602-.6915-.9398-1.3791-1.3223-2.1172-.6101-1.1715-.6537-2.4939-.8203-3.7774-.3431-2.6237-1.7387-4.356-4.2773-5.1406-1.2059-.3709-2.431-.4845-3.666-.4433z" fill="#231f20"/><g transform="translate(182.00141 -574.00054)"><g fill="#231f20"><path d="m1310.3336 1416.049c1.3186.9541 2.6166 1.9242 3.3932 3.42.01.012.016.023.027.035l-.1746.096c-.1541-.1468-.2311-.2465-.3323-.3083-.7883-.5141-1.5606-1.0515-2.3758-1.5227-.9591-.5527-1.9525-1.0552-2.9371-1.5693-1.983-1.0355-3.3865-2.7052-4.8198-4.3479-1.3016-1.4914-2.5546-3.0179-3.3581-4.854-.066-.1549-.1201-.3083-.1782-.4632 1.0479.9002 1.983 1.8623 2.9371 2.8011 1.3883 1.3642 2.7401 2.7757 4.2054 4.0512 1.1242.9766 2.4033 1.7809 3.6126 2.6623"/><path d="m1312.1117 1403.8249c.4327.6341.8268 1.2988 1.3104 1.8944 1.9205 2.3568 3.7989 4.7529 5.843 7.0021 1.0043 1.1017 2.3307 1.9169 3.524 2.8448 1.1984.9272 2.4084 1.8514 3.2548 3.1298.3745.5687.6254 1.2173.9309 1.8281-.039.019-.077.039-.12.058-.3781-.4406-.6916-.9663-1.1431-1.3067-1.2021-.9119-2.4623-1.7503-3.7029-2.6084-1.1126-.773-2.3299-1.4304-3.3349-2.3227-2.0252-1.7969-3.6018-3.9879-4.9078-6.3455-.669-1.2056-1.1133-2.5313-1.6544-3.8024-.05-.1091-.058-.2356-.084-.3527.027-.01.058-.011.084-.019"/></g><path d="m1313.7661 1407.999c1.306 2.3576 2.8826 4.5486 4.9078 6.3455 1.005.8923 2.2222 1.5497 3.3349 2.3226 1.2406.8581 2.5008 1.6966 3.7029 2.6085.4515.3403.765.866 1.1431 1.3067.043-.019.082-.039.12-.058-.3054-.6108-.5563-1.2595-.9309-1.8281-.8465-1.2784-2.0564-2.2027-3.2548-3.1299-1.1933-.9279-2.5198-1.743-3.524-2.8447-2.0441-2.2492-3.9225-4.6453-5.843-7.0021-.4836-.5956-.8777-1.2603-1.3104-1.8944-.027.01-.058.012-.084.019.027.1171.034.2436.084.3527.541 1.2712.9854 2.5968 1.6543 3.8025zm-14.2646 11.9376c-1.5264-.2705-2.9255.07-4.3166.3978-1.9438.464-3.8956.7345-5.9056.7534-2.4804.024-4.9659.1941-7.4508.2479-2.2107.047-4.4133-.077-6.5695-.6421-1.4922-.3898-2.0638-.6836-3.8185-2.0434.5105-.3527.9934-.6996 1.4922-1.0203.8574-.557 1.6733-1.1329 2.3219-1.9561 1.2879-1.6304 1.794-3.4702 1.7591-5.5143-.035-1.9671-.232-3.9116-.789-5.8044-.097-.3324-.2429-.6538-.3818-1.021-.3796.1978-.6995.3636-1.0398.541.7534 1.9285.9737 3.9152 1.0275 5.9244.027 1.1403-.049 2.2805-.4247 3.3815-.1469.429-.4138.5177-.8428.5069-1.3293-.039-2.2223-.7265-2.8601-1.8246-.2355-.4021-.4668-.7999-.6835-1.2093-.3825-.7381-.8654-1.3642-1.5729-1.8435-.8312-.5642-1.0276-1.6812-.5367-2.7051.3941-.8195.8574-1.6034 1.2406-2.4274 1.3911-2.9836 2.1095-6.1134 1.9779-9.4178-.104-2.6862-.738-5.2671-1.4878-7.8377-.6835-2.3648-1.2944-4.7536-1.8623-7.1526-.3018-1.2792-.3214-2.5975-.1818-3.9152.224-2.1416 1.4609-3.4236 3.4083-4.1275 2.0056-.7265 4.0883-.9701 6.1949-.9273 2.9292.062 5.8554.2437 8.7845.3513 2.5547.097 5.0664.4407 7.5316 1.133 3.1225.8733 6.0138 2.2142 8.5605 4.2468.035.027.077.043.1585.089.2319-.2778.4632-.5563.738-.8843-2.2295-1.8246-4.7339-3.116-7.4551-4.0701.7577-3.8374-.3665-7.3308-1.8471-10.7704-1.5729-3.6403-4.7536-5.5652-8.015-7.4705.3715-.3439.7388-.6065 1.0093-.9468.6567-.8348 1.2748-1.7009 1.8849-2.5699.1396-.2007.2436-.3323.5141-.3672 1.4224-.1818 2.8448-.3745 4.2592-.6029 2.6004-.4173 4.5871-1.8041 6.091-3.9297 1.6347-2.3117 3.0178-4.7463 3.5857-7.5518.2364-1.1599.3556-2.3424.5258-3.5131 0-.01.046.027.073.07 2.5779 4.1043 5.1558 8.2085 7.0531 12.6917 1.8659 4.4126 2.8091 9.0157 2.8404 13.8159.015 2.7938.5984 5.5063 1.3176 8.1962.7068 2.6476 1.4261 5.2946 2.0907 7.954.661 2.6462.6763 5.3477.6261 8.0573-.043 2.4542-.4828 4.8031-1.5337 7.0377-.2632.5679-.4217 1.1933-.5802 1.8006-.6261 2.3917-.1506 4.6838.6995 6.9257.7381 1.9511 1.9554 3.6323 3.0303 5.3979.8151 1.3417 1.5067 2.7561 2.2724 4.124.065.1193.2625.2363.3978.2319.9584-.039 1.7467.3054 2.2724 1.0901.4713.6996.9388 1.4297 1.2363 2.2143.9082 2.4034 2.4964 4.2584 4.4482 5.8662.9432.7731 1.8122 1.6311 2.7125 2.4543.055.049.097.1113.2435.2894-.7722-.069-1.4216-.1083-2.0667-.197-1.4034-.1891-2.8105-.3978-4.2089-.6145-1.0247-.1586-1.9903.081-2.9604.3483-.8305.2232-1.666.4632-2.5161.5796-.989.1352-1.9133-.2392-2.8208-.5992-1.1751-.4596-2.3415-.9395-3.5319-1.3446-.472-.1628-1.005-.1316-1.5075-.2087-.1193-.016-.2858-.051-.3593-.12-.012-.012-.02-.023-.027-.035-.7766-1.4958-2.0746-2.4659-3.3931-3.42-1.2093-.8813-2.4884-1.6856-3.6126-2.6622-1.4654-1.2755-2.8172-2.687-4.2054-4.0512-.9541-.9388-1.8892-1.9009-2.9371-2.8011.058.1549.1127.3083.1781.4632.8035 1.8361 2.0565 3.3625 3.3582 4.854 1.4333 1.6427 2.8368 3.3124 4.8198 4.3479.9847.5141 1.978 1.0166 2.9371 1.5693.8152.4712 1.5876 1.0085 2.3758 1.5227.1011.062.1781.1614.3323.3083-.2894.039-.5134.039-.7221.1011-1.0784.309-2.1917.5447-3.2193.9737-2.3306.9701-4.6336 1.0013-6.9831.1389-.6807-.2465-1.3992-.3971-2.0639-.6755-.2472-.1048-.4748-.2946-.6726-.5033-.062-.073-.1236-.1425-.1818-.2167-1.5569-1.978-3.0717-3.9879-4.6373-5.9622-2.2834-2.8797-4.6147-5.7237-6.8945-8.6071-1.5148-1.9125-2.9568-3.8868-3.9225-6.1483-.3941-.9272-.6421-1.9199-.9432-2.8405-.1076.704-.069 1.4922.086 2.2805.4588 2.3416 1.5569 4.4089 2.8171 6.4 1.7503 2.7589 3.8876 5.2285 6.0168 7.6944 1.623 1.8813 3.281 3.7364 4.9623 5.5645.6843.7461 1.4755 1.3911 2.2798 2.1372" fill="#fff"/><path d="m913.83398 272.85742c-.27393-.02181-.56069-.01248-.85742.02344 0 .8697.01 1.7168 0 2.5625-.012 3.0608.80331 5.85434 2.72461 8.27734.8609 1.0893 1.80027 2.11687 2.63867 3.22657 1.7002 2.2485 2.92984 4.78442 4.24024 7.26562 1.3169 2.5037 2.70589 4.96171 4.58789 7.09961 2.1757 2.4652 4.89675 3.77937 8.18945 3.92188 2.4805.1083 4.93894-.13459 7.36914-.58399 4.4447-.8232 8.87309-1.68791 13.36719-2.22461 2.0878-.2473 3.91088-1.09849 5.27148-2.77539 2.8062-3.4622 4.46677-7.35085 4.50977-11.87695.01-.8304-.17763-1.4626-.70703-2.0625-.4057-.4632-.75229-.98123-1.14649-1.45313-1.3766-1.6573-2.84574-3.21561-4.68554-4.38281-.2858-.1821-.54821-.26708-.90821-.20508-.3861.066-.81925.07275-1.18945-.03125-.7846-.2167-1.55355-.50143-2.31055-.79883-.8545-.3367-1.61332-.20453-2.26562.41797-.4719.4443-.9012.93145-1.3418 1.40625-.1077.12-.17281.269-.25781.4043-.059-.035-.11583-.07203-.17383-.11133.309-1.9867.26594-3.90986-.94336-5.66015-1.4878.6952-2.98324.59329-4.49804.1875-1.2718-.34401-2.5534-.62618-3.8711-.20508-1.2136.3905-2.42476.77827-3.63476 1.16797 0 .01.0324.04721.0664.07421 2.0324 1.5772 3.18532 3.60081 3.19531 6.22461.01.5454.06266 1.09454.09766 1.67774.2479 0 .44383-.01.64453 0 .9861 0 1.95949.09604 2.77539.71094.3628.2744.65304.23022.93164-.01368.309-.2749.5756-.60087.8418-.91797.1316-.1585.23218-.34958.35938-.55468.3519.2131.66139.39632.96679.57812-.4182.9431-.93691 1.4927-2.09961 2.2461.2392.4604.47906.92446.72266 1.38476.1658.3166.43718.40799.73828.24219.4712-.256.96558-.4981 1.36328-.8457 1.2137-1.0559 2.19022-2.28965 2.76172-3.84375.3753.048.73885.09102 1.15625.14062-.1156.3441-.15441.67312-.32031.91602-.3672.5418-.22439 1.00466.10351 1.47656.1244.1774.23248.363.36329.5332.9898 1.3183 2.28965 2.28814 3.62695 3.21094.2501.174.44669.18105.71289.06055.6959-.3163 1.40692-.60332 2.14062-.91602.1549.3941.2906.73015.4375 1.09375-.5912.2508-1.1509.46797-1.6875.73047-.3673.1818-.70897.42865-1.07617.65625-.2277.043-.5203.04999-.77929.15039-2.4731.9933-4.88883 2.16464-7.42383 2.96094-3.4782 1.0901-7.06162 1.85115-10.57032 2.84375-1.9831.5599-3.44217.07706-4.60937-1.61914-.6071-.8842-1.33063-1.71912-2.11524-2.44922-1.4914-1.3875-3.07916-2.67534-4.60546-4.02344-1.8282-1.6159-3.38872-3.42767-4.16602-5.79687-.2894-.8923-.57223-1.78864-.86523-2.68164-.4989-1.5228-.9478-3.07286-1.875-4.41016-.3054-.4407-.71132-.81511-1.07422-1.22461-.066.03-.13508.05698-.20508.08398v2.52735c-.046 0-.09297-.00028-.13867.01172-.232-.4327-.42912-.88378-.69532-1.29688-.54899-.8508-1.0597-1.74456-1.7207-2.50586-.54986-.63169-1.26142-.95992-2.08398-1.02539zm30.11914 3.22852c1.37905-.01641 2.7756.15489 4.17969.32617.00272-.00102.0051-.00289.00781-.00391v.00196c-.00135.0005-.00254.00144-.0039.00195.00129.00016.00261-.00016.0039 0-.94309.352-1.86717.75717-2.83007 1.04297-.6953.205-1.30975.4219-1.56055 1.1875-.055.1623-.20454.30434-.33984.43164-.5759.541-.83156.51422-1.37696-.04688-.6988-.7184-1.42596-1.41443-2.16406-2.14453 1.3373-.57775 2.70241-.78044 4.08398-.79687z" fill="#fdd3af" transform="translate(337.45291 1044.9622)"/><path d="m1288.2249 1349.3146c-.549.9621-1.1787 1.7592-1.9939 2.3656-.789.5839-1.6078 1.1708-2.4972 1.5729-2.8594 1.2944-5.723 2.6085-8.6601 3.7211-3.3778 1.2835-6.925 1.5424-10.5269 1.3184-3.548-.2247-6.752-1.4922-9.836-3.1306-3.6476-1.9438-7.3083-3.8723-10.7282-6.2146-1.2552-.8609-2.6856-1.1933-4.1778-1.3562-1.7539-.1934-3.4738-.5367-5.0852-1.29-.2895-.136-.5644-.3178-.8276-.4989-.3243-.2246-.2893-.4639-.011-.7191.4051-.3746.8612-.4677 1.4065-.4247.5796.042 1.1745.053 1.7394-.054.6793-.128 1.1431-.592 1.3097-1.2915.1003-.4175.1818-.8421.2589-1.2632.136-.7075.2626-1.4187.3985-2.1648-1.6579-.5251-3.5908-.1818-5.0481-1.402.016-.058.031-.1172.047-.1782.4369.092.8734.2007 1.317.2778.986.1709 1.9794.3134 2.9647.4952 1.6768.309 2.9335 1.3445 4.201 2.4077 1.3831 1.1548 2.8019 2.2798 4.2861 3.3 1.4369.9897 3.1458 1.4028 4.7915 1.9096 3.0644.9352 6.1178 1.9125 9.2062 2.7662 2.4107.6647 4.8838 1.0443 7.4035 1.005.147-.01.3098.023.4487.078 2.3343.9112 4.761.9425 7.2108.7883 3.6912-.232 7.2814-1.0937 10.9065-1.7555.4676-.084.9388-.1657 1.4958-.2625" fill="#fdd3af"/><g fill="#fed100"><path d="m1232.8144 1337.7633c-.1157 1.1445.2276 1.8477 1.3024 2.2418.9161.3324 1.9009.4829 2.8557.7112.1818.043.3636.058.653.1077-.1585.7817-.2553 1.5583-.4872 2.2964-.1425.456-.6487.4524-1.0733.4363-.4494-.015-.8974-.1003-1.3374-.058-.3875.039-.8275.1237-1.1249.3484-1.229.9271-2.6274 1.2165-4.1195 1.2558-3.9.092-7.6872-.4952-11.3006-1.9939-.8268-.3447-1.6231-.8312-2.33-1.3838-1.2136-.9468-1.1016-2.2958.1972-3.1306.9817-.6298 2.1022-.8654 3.2345-1.0239 2.7517-.3861 5.507-.3011 8.2667-.1236 1.5729.1011 3.1415.1898 4.7144.2821.1818.012.3635.023.549.034"/><path d="m1286.9355 1306.041h.029c.87.01 1.8949.057 2.8145.3301 1.2072.3582 2.0629.85 2.6641 1.5254.6011.6754.974 1.5563 1.1347 2.789.1618 1.2394.1677 2.6496.8555 3.9727.4034.7763.9801 1.6727 1.4453 2.3711.7179 1.0776 1.1319 1.7705 1.2813 2.998.1642 1.3506.1297 2.1157-.6407 3.1329-.1401.1857-.1294.3136-.1406.4394-.2572-.017-.5337-.1024-.7539-.064-.2734.047-.5237.011-.8594-.082-.7511-.2087-1.0377-.3618-1.8105-.666-.9872-.3883-2.3278-.5304-3.2363.3262-.096.09-.1703.1883-.2559.2812-.067-1.453-.4382-2.8044-1.3789-4.166l-.2871-.416-.4453.2363c-1.3414.7083-2.6198.7117-4.045.3282-1.2848-.3462-2.7918-.724-4.3046-.2715-1.4109.4219-2.9698.8836-4.1915 1.289l-.7343.2442c-.9374-.5491-1.626-.9086-2.2461-1.6172-1.3542-1.5476-1.3682-3.1396-.4883-4.291.6728-.8807 1.1441-1.1976 2.1113-1.2305.3422-.012.8993-.082 1.2285-.1133 1.0456-.099 1.6248-.9037 1.8926-1.4785.098-.209.2953-.5235.4063-.9023.402-1.3799 1.0614-1.9488 2.2031-2.668 1.989-1.2529 3.7025-1.8645 5.998-2.1093.6538-.07 1.3894-.1932 1.7539-.1856z"/></g></g><g transform="translate(202.6302 -451.43687)"><path d="m1157.5812 1121.6101c-.541.205-1.1362.3273-1.6191.6328-2.9058 1.8238-5.1177 4.271-6.2617 7.5449-.9126 2.604-.3982 5.0153 1.3027 7.1758.2814.3592.6033.6955.916 1.0547-.6836 1.0596-.8309 2.2258-.5371 3.4199.4566 1.8391 1.4112 3.3201 3.3594 3.8262.637.1619 1.3514.023 2.0547.023-.1121 2.0557-.6615 4.0502-1.8359 5.8515-1.1403 1.743-2.6585 3.1214-4.254 4.4238-1.4995 1.2173-2.9957 2.4342-4.2246 3.9454-1.9787 2.431-3.1884 5.2294-4.0117 8.2168-1.8587 6.7592-2.8667 13.6653-3.5117 20.6289-.317 3.444-.5465 6.894-.8359 10.3379-.3636 4.3515-.7226 8.7076-1.1211 13.0547-.3011 3.2738-.8416 6.5108-1.5332 9.7265-.6305 2.9298-1.1782 5.8761-1.0625 8.8946.097 2.4848.6799 4.7915 2.5117 6.6269.5716.5716 1.0362 1.2392 1.1562 2.0703.078.5331.1231 1.0751.1231 1.6133.01 1.2093.3082 2.3203 1.0273 3.3027.4902.6718.9936 1.3373 1.5157 1.9903.8573 1.0711 1.766 2.1151 2.3222 3.3906.5265 1.1977.8578 2.4386.6797 3.7715-.043.3127-.3701.649.07.9355.029.019.0005.1458-.01.2188-.1237 1.5969-.5094 3.1306-1.0469 4.6308-.073.1963-.259.3484-.3906.5215-.1585.6726-.3131 1.3796-.5996 2.0254-.9541 2.156-1.944 4.2971-2.9453 6.4336-1.9903 4.2395-3.9559 8.4944-6.0117 12.707-1.6812 3.4469-3.5437 6.8049-5.0782 10.334-1.0085 2.3146-2.134 4.5839-3.3047 6.8223-.9315 1.7816-2.1368 3.3883-3.5781 4.8027v.092c1.2289 0 2.4755.1333 3.6856-.029 1.7467-.2356 3.4791-.6352 5.1953-1.0527 1.975-.4828 3.9342-1.0348 5.9863-1.0508.9584-.01 1.8244.2432 2.5625.8809 1.0741.9352 2.2989 1.5392 3.7402 1.6425.054 0 .1082.047.1622.074h3.3398c.9468-.093 1.893-.1862 2.8398-.2792 3.1182-.3011 6.2329-.6453 9.3555-.8809 1.7968-.135 3.6058-.1453 5.4063-.1113 1.666.035 3.3289.2577 4.9941.3047 2.1918.058 4.3865.021 6.582.031h2.461c-.1271-.5491-.2083-.9907-.3399-1.4161-.2938-.97-.8578-1.7814-1.5566-2.4882-.9629-.9817-1.9951-1.8919-2.9492-2.8809-2.1569-2.2383-3.4089-4.8625-3.2344-8.0469.1193-2.1917.4625-4.3527.9766-6.4863.8428-3.5167 2.068-6.9098 3.3398-10.2832 1.8006-4.7814 2.6927-9.7306 3.0098-14.8086.1273-2.0333.2515-4.0688.3984-6.0977.1934-2.6513.4408-5.2944.5957-7.9414.1927-3.2382.3509-6.4786.4512-9.7168.1079-3.5211.1664-7.041.1894-10.5664.023-3.4738-.02-6.9523-.035-10.4297-.012-3.0302-.015-6.0596-.035-9.0898-.01-1.5569-.043-3.1184-.055-4.6797-.02-1.1984-.01-2.3962-.01-3.6367.1782.046.2938.074.4102.1093 1.7307.56 3.4347.456 5.0273-.3984 1.1206-.5985 2.233-1.2808 3.2031-2.0996 2.0485-1.7358 4.0004-3.5854 5.9981-5.3867 2.2026-1.9823 4.3786-3.9922 6.3769-6.1992 1.5227-1.6813 3.1379-3.2772 4.7188-4.9083.9468-.9773 2.0829-1.6178 3.4355-1.873.4952-.097.9813-.2634 1.4649-.4219 2.1052-.7039 3.0407-1.9669 3.0957-4.1972.033-1.0007.01-1.9972.01-3.0254.077 0 .1669-.0003.2559.01 1.09.1279 2.1719.3059 3.2656.3789 1.2246.081 2.4835.2344 3.6855.057 2.1256-.3127 4.2219-.8491 6.4551-1.3203-.2204-.5454-.394-1.1523-.7031-1.6817-.4713-.8115-1.2321-1.3457-2.0742-1.7246-.9162-.413-1.8712-.7521-2.8028-1.123.1157.019.2516.031.3789.065 1.8434.4988 3.6624.4057 5.4629-.2168.8159-.2821 1.6164-.6178 2.4512-.8301 1.1206-.2895 2.2678-.4913 3.416-.7305-.2284-.3171-.4837-.6994-.7695-1.0586-.9119-1.1599-2.0709-1.9715-3.5391-2.1875-1.0318-.1514-2.0912-.1431-3.1347-.2011-.2203-.012-.4438 0-.6641 0-.01-.046-.017-.092-.027-.1348.533-.1774 1.0507-.394 1.5918-.5293 1.9328-.4903 3.9161-.4874 5.8867-.5644 2.1445-.085 4.2888-.144 6.4297-.2989 1.2748-.089 2.5047-.4522 3.6602-1.0703-.5912-1.2987-1.5602-2.1557-2.8321-2.6894-1.6383-.6879-3.3708-.8499-5.1211-.8809-.1746 0-.3437-.013-.5175-.023 0-.051-.01-.097-.016-.1465.6574-.1549 1.3014-.3672 1.9668-.4492 2.4652-.3054 4.9348-.5827 7.4043-.8379 2.0369-.2123 3.8486-.947 5.4609-2.1992.5061-.3906.9396-.8534.7891-1.5567-.1505-.6959-.7504-.9057-1.3379-1.0605-1.6616-.4412-3.3304-.4017-5-.047-.3789.082-.754.1669-1.1329.2519-.023-.046-.045-.096-.068-.1425.7991-.541 1.5833-1.1051 2.3985-1.6192 1.554-.9811 3.1647-1.8745 4.6758-2.9101 3.237-2.2179 4.6455-5.3318 4.3144-9.2989-.3527.1375-.6899.2684-1.0234.4024-2.1176.8537-4.1812 1.8117-6.1446 2.9941-2.6551 1.5918-4.6189 3.8306-6.207 6.4434-.104.1695-.2161.3305-.3594.5508.1192-1.1635.2782-2.2287.3282-3.3028.051-1.082-.01-2.1695-.018-3.3476-.232.1353-.3381.1977-.4414.2597-1.9561 1.109-3.2777 2.7847-4.2559 4.7598-.7148 1.4529-1.3949 2.9223-2.125 4.3672-.2749.5374-.6425 1.0288-.9668 1.543.023-2.578-.3852-5.0285-1.1699-7.4668-.1083.073-.1705.1162-.2285.1582-1.5649 1.1322-2.4377 2.7211-2.9161 4.5449-.4334 1.6544-.7861 3.3278-1.2304 4.9785-.1658.6218-.4875 1.2057-.7383 1.8086-.047-.015-.092-.028-.1387-.043v-8.7383c-.058.069-.096.1103-.1308.1563-1.5729 1.9743-2.5809 4.2137-3.2578 6.6367-.4946 1.7779-1.0983 3.5251-1.6582 5.2871-.039.1164-.1199.2168-.2247.4023-.3475-2.5081-.8771-4.8231-2.914-6.5-.07.1731-.1353.3241-.1973.4747-.6494 1.5649-.9506 3.2192-1.2051 4.8808-.232 1.5074-.4477 3.032-1.2011 4.3926-.3134.5635-.7231 1.0762-1.086 1.6172-.05-.023-.098-.043-.1445-.064-.1506-2.0681-.6449-4.0162-1.9902-5.6895-.062.07-.1122.1237-.1582.1817-.8813 1.1242-1.3987 2.4167-1.8321 3.7656-.4908 1.5228-1.027 3.0296-1.5644 4.5371-.1083.2974-.3208.5546-.5528.9531-.077-.4712-.1273-.7875-.1933-1.2129-.1353.2284-.2244.3413-.2774.4649-.5454 1.2362-1.5086 2.0083-2.707 2.5879-2.071 1.005-3.5694 2.5934-4.3809 4.7539-.3484.9316-.6185 1.9128-.7734 2.8945-.2706 1.7038-1.0476 2.9961-2.5703 3.8418-.9316.5185-1.7938 1.1636-2.7363 1.6465-2.7712 1.418-5.3409 3.084-7.4317 5.4336-.4137.4639-.9686.8067-1.498 1.1543-.6341.4174-1.3682.5696-2.0801.3027-.7883-.2974-1.5756-.6411-2.2715-1.1015-1.7002-1.1286-3.0544-2.6433-4.4258-4.1348-.456-.4945-.8436-.9667-1.0254-1.7012-.7068-2.8637-1.7721-5.6106-3.0781-8.2539-1.5729-3.1844-3.394-6.207-5.8984-8.7617-.4866-.4944-.9891-.9705-1.4727-1.4453.046-.089.063-.1389.09-.1699 1.7663-2.0529 3.1153-4.3286 3.8614-6.9493.031-.1041.2824-.2478.3828-.2207.4865.1395.9684.3094 1.4316.5137.677.2982 1.3178.6771 2.002.9512 1.89.7578 3.4251.1975 4.4257-1.5762.1434-.2552.2931-.5185.3711-.7969.2509-.8967.468-1.8037.7305-2.832.5483.085 1.1909.1849 1.8672.2852.035-.4596-.0001-.9994.1269-1.4903.2048-.7766.2093-1.5433-.019-2.2851-.4166-1.3831-.8819-2.7589-1.3574-4.1231-.5256-1.4959-.6093-2.9653.027-4.4648.5876-1.3795.9472-2.8227.9942-4.3418.089-2.6353-1.318-4.7612-3.8028-5.6309-1.3721-.4792-2.794-.6004-4.2011-.3066-1.2595.2626-2.492.6765-3.7129 1.0859-.9469.3169-1.8478.4181-2.7793-.037-1.4762-.7192-2.9299-1.5072-4.5567-1.8554z" fill="#231f20"/><g transform="translate(-40.41033 -66.3165)"><path d="m1250.3032 1219.0263c.058-.1665.1476-.325.2712-.5839.904 2.0368.9657 4.0584.6989 6.2102 1.2638-.8537 2.3539-1.7307 3.1575-2.9291.9279-1.3795 1.3293-2.9335 1.6114-4.5406.232-1.3177.4908-2.6361.7388-3.9537.011-.069.046-.1353.1033-.3011.7308 1.3177 1.1446 2.6506 1.2137 4.0498.07 1.3758-.031 2.7633-.053 4.0969.015-.016.07-.062.1156-.1083 2.1648-2.2725 3.1654-5.1013 3.9188-8.0617.3251-1.2791.7577-2.5313 1.1403-3.7988.047.01.089.015.1316.023.058 2.3226.112 4.6409.1694 7.0683 1.0791-.7229 1.8943-1.5111 2.4433-2.559.6836-1.298.989-2.7161 1.2981-4.1312.3243-1.4914.6028-2.9946 1.3176-4.3667.1746-.3287.3942-.6378.6575-1.0588.6915 3.0338.8886 5.8975-.4757 8.7961 2.002-1.245 3.5015-2.7481 4.4716-4.7457.7031-1.4421 1.3751-2.895 2.0979-4.3246.576-1.1519 1.3032-2.2027 2.3772-3.1189.027 1.959-.2167 3.7908-.7846 5.5688-.5607 1.7584-1.1788 3.4935-1.6813 5.31 1.117-1.445 2.2608-2.871 3.3393-4.3399.6842-.9352 1.2907-1.9242 1.9009-2.9102 1.735-2.8136 4.2206-4.761 7.1344-6.2139.9927-.4945 2.01-.9431 3.0149-1.4108.1346-.066.2815-.1083.4713-.1817-.1011 1.6849-.5839 3.1655-1.5773 4.4671-.9352 1.2253-2.1489 2.1263-3.4389 2.9298-1.6005.9934-3.2273 1.9438-4.8082 2.9641-1.6347 1.0515-2.8942 2.4848-4.0039 4.201.6-.1745 1.1169-.3324 1.6391-.472 1.4144-.3745 2.8171-.7962 4.2468-1.0973 1.1868-.2509 2.3961-.1389 3.5792.1505.1585.039.3091.12.5403.2123-.2312.2051-.4021.3789-.5948.5186-1.3562.9657-2.8397 1.5998-4.5137 1.7699-2.2877.232-4.5799.4371-6.856.757-1.1169.155-2.2259.4756-3.3043.8312-1.0159.3404-1.6187 1.1322-1.8624 2.2143.6341 0 1.2559-.01 1.8784 0 1.9321.012 3.8606.031 5.7077.7192.6647.2509 1.2755.5912 1.754 1.1206-.01.058-.01.112-.01.1701-1.168.1623-2.3315.4015-3.5058.4677-2.2188.1236-4.4447.1309-6.667.2043-1.9008.066-3.7872.24-5.5833.9359-1.2486.4828-2.2115 1.3133-3.0382 2.4499.6959.042 1.3336.104 1.9714.1236 1.3911.042 2.7822.035 4.1653.1084.8974.047 1.7162.3745 2.4274.9352.1236.1003.2393.2123.4291.386-1.9795.5797-3.8534 1.1752-5.7507 1.6661-1.1322.2938-2.2644-.02-3.3887-.24-.9781-.1927-1.975-.3789-2.9684-.413-1.8551-.066-2.6324.4981-3.3858 2.303 1.8013-.097 3.5633-.027 5.2874.3941 1.7271.4174 3.4389.893 4.5755 2.3226-3.969 1.6464-8.0311 1.4952-12.1543.6029-.031-.3789-.066-.8385-.1047-1.3097-1.2755-.3054-2.4339-.078-3.497.6334-.5214.3556-1.013.7577-1.5344 1.1206-.2589.1818-.5483.3207-.8269.4829-.035-.023-.073-.046-.1083-.069.073-.3324.1469-.6647.2167-.997.1731-.8625.3396-1.7242.5251-2.5816.02-.1003.1199-.1854.1934-.2705.2516-.3098.5294-.6028.757-.9279.9977-1.4296 1.4529-3.0833 1.9438-4.7259.256-.8546.557-1.6966.8428-2.5431" fill="#419d5f"/><path d="m1217.4814 1247.9293c.9236-.6683 1.0166-.6298 1.9983-.097.6952.3788 1.4413.7155 2.2027.9198 1.4377.3869 2.6819-.1621 3.7596-1.0777.8239-.6959 1.6158-1.4376 2.3583-2.2223 1.2784-1.3526 2.9015-2.1758 4.4823-3.084 1.4028-.8079 2.7714-1.6733 4.1705-2.4892 1.6187-.9424 2.4696-2.3611 2.8172-4.1849.2311-1.2021.5759-2.3998 1.0391-3.532.5796-1.4224 1.6696-2.4696 2.9873-3.2542.6341-.3752 1.2907-.7112 2.0369-1.1206-.3171 1.5497-.6181 3.0178-.9199 4.4984 1.1867.2393 2.1408-.01 3.007-.6341.4871-.3556.9584-.7301 1.4529-1.0748.5213-.3665 1.0973-.6065 1.8005-.6297.1469 1.8827.4334 3.7334.074 5.5921-.1586.8115-.6153 1.4187-1.3687 1.7583-.5446.2436-1.1052.5105-1.6884.6072-2.0289.3323-3.6368 1.3759-5.0242 2.8288-1.5461 1.6231-3.1226 3.2113-4.614 4.8809-2.0565 2.2957-4.3945 4.2933-6.6473 6.3804-1.8085 1.6776-3.6483 3.3312-5.5419 4.9158-.808.6763-1.7432 1.229-2.6863 1.7118-1.7351.8886-3.4854.7534-5.182-.1774-1.7009-.9352-3.0454-2.3037-4.406-3.652-.077-.078-.1236-.2632-.089-.3672.781-2.2259 1.7161-4.3675 3.4476-6.0561.1621-.1621.3432-.309.533-.4407" fill="#fdd3af"/><path d="m855.57422 210.20312c-.1782-.0116-.45425.07379-.53125.20899-.4604.7847-1.17334 1.15607-2.02344 1.32617-1.2872.2557-2.58039.12825-3.87109.03125-.4639-.0349-.73566.04645-.84766.56055-.2007.9468-.43982 1.88881-.70312 2.82031-.3206 1.1432-.86906 2.14569-1.93946 2.77539-.5491.3207-.55314.664-.02734 1 1.0435.669 1.51283 1.62475 1.42383 2.87695-.9934.2778-1.98378.30739-2.98438.17579-.8429-.1165-1.68101-.28478-2.50781.07812-.2516.1119-.36772.24682-.38672.54492-.0924 1.6231-.34083 3.22297-.99023 4.73047-.1395.3279-.08528.5223.16992.75.9388.8267 1.85501 1.68101 2.79101 2.50781.7802.6879 1.58508 1.35703 2.38868 2.04493.1549-.1782.27453-.31774.39453-.46094 1.7045-2.0289 2.90462-4.31715 3.51172-6.90235.0735-.3092.19848-.38253.49218-.39453.9039-.0349 1.73867.19417 2.54297.57227.8115.3789 1.60688.78912 2.42578 1.13672 1.2522.5293 2.51273-.16218 2.95704-1.79688-1.2021-.5868-2.38457-1.16712-3.60547-1.76562.2429-.4174.4355-.73801.6289-1.07032 1.109.6144 2.13789 1.29637 3.46289 1.60547v-2.61914c.7388.1469 1.4193.28242 2.2461.44532.015-.7461.15697-1.37278.01367-1.92188-.3708-1.41-.84091-2.79823-1.31641-4.17773-.5338-1.5388-.78098-3.07587-.26758-4.66407h.00391c.013-.0503-.00977-.11161-.00977-.09961-1.17079-.112-2.3055-.23335-3.4414-.31836zm1.16211 1.34571c.33567.01214.69413.03749 1.08008.07422-.00027.00192.00027.00393 0 .00586-.11973.85245-.23975 1.69994-.35938 2.54882-.00027.00192.00027.00395 0 .00586-.042.3287-.25533.42188-.55273.42188-.5723-.01-1.14499-.01024-1.71289.00976-1.109.023-2.21257.05885-3.32227.08985h-.23242v-.00781-.00586c1.52889-2.61704 2.74988-3.22754 5.09961-3.14258z" fill="#fdd3af" transform="translate(357.23445 988.71499)"/><path d="m1209.2074 1231.3777c1.3948 2.5851 2.5045 5.2903 3.3815 8.0922.019.055.031.112.077.3017-.7148-.6923-1.3445-1.2871-1.967-1.8979-2.1336-2.0827-4.2352-4.201-5.9979-6.6196-.4712-.6458-.9199-1.3177-1.306-2.0216-.3789-.68-.661-1.4144-1.0166-2.1874-.3054.073-.6727.1585-1.0552.2472.3331 1.3489.9628 2.5125 1.6929 3.6251 1.3141 1.9939 2.8797 3.7872 4.5486 5.4837 3.084 3.1422 6.1913 6.2612 9.2906 9.3873.2203.2167.4559.4138.6799.6189-.01.039-.01.084-.027.092-1.9867 1.117-3.0993 2.9604-4.0694 4.9158-1.1824 2.3765-1.8398 4.9122-1.9903 7.5548-.1309 2.2616-.1389 4.5333-.2007 6.8022-.01.1504 0 .3054 0 .5526-.4371-.2203-.8268-.3941-1.1984-.6028-2.0478-1.1439-3.7138-2.7437-5.0278-4.6497-1.5264-2.2063-2.9866-4.4671-4.313-6.7978-1.4297-2.5074-3.188-4.726-5.2132-6.7585-1.453-1.4537-2.8943-2.9182-4.0498-4.638-1.2522-1.8624-1.967-3.8949-2.0056-6.1557 0-.058-.012-.12-.023-.2167-.3672 0-.7302 0-1.1599 0-.01 1.5918.3018 3.1145.893 4.6067-1.874 1.4064-2.3459 3.4775-2.4463 5.6147-.12 2.6324.035 5.2794-.046 7.9148-.063 1.9561-.256 3.9115-.4996 5.8517-.4865 3.9494-1.1781 7.8798-1.2748 11.8677-.046 1.8551-.012 3.7095-.1084 5.5609-.1541 2.988-.3628 5.9746-.5912 8.9626-.1083 1.3984-.3134 2.7902-.4755 4.185-.015.1164-.042.3287-.084.3323-.4799.065-.2945.429-.3134.68-.062.8275-.031 1.6659-.1702 2.4775-.2974 1.7539-1.4493 2.8476-3.0026 3.5632-.5563.2545-1.1555.4291-1.7314.6451-.7112.2705-1.3177.6726-1.8282 1.3838-.1621-.7505-.3781-1.4958-.4791-2.2529-.3171-2.4157-.019-4.8074.4093-7.181.5185-2.852 1.1366-5.688 1.5737-8.5481.3897-2.5779.6297-5.1783.877-7.7715.2748-2.8913.4908-5.7819.7184-8.6761.1782-2.2456.3098-4.4984.4989-6.744.2123-2.4885.4247-4.9813.7148-7.4625.3018-2.5582.6414-5.1128 1.0551-7.6558.5876-3.6207 1.3643-7.2072 2.4347-10.7203 1.2326-4.0424 3.54-7.3235 6.9098-9.8854 1.8478-1.4035 3.5669-2.9648 4.8969-4.8969.1658-.2393.3207-.4865.5098-.7767.2857.2633.5454.5178.8151.7577 1.9445 1.7199 3.9152 3.4128 5.8321 5.1595 2.4616 2.2412 4.2897 4.9696 5.8626 7.8799" fill="#fff"/><path d="m1189.679 1242.2332c1.4108 2.5888 3.4396 4.6293 5.4918 6.6393 2.1794 2.1335 3.7756 4.6686 5.2561 7.3039 1.4682 2.6128 3.0448 5.1631 5.0897 7.3817 1.546 1.6733 3.3116 3.0448 5.4487 3.9028 1.4923.5993 2.4428.3869 3.5088-.842.9395-1.0864 1.5656-2.3613 2.1648-3.6528.1389-.301.2815-.5984.4211-.9002.042.01.085.016.1236.023v2.2841c.01 3.1378.015 6.2764.027 9.4142.02 4.6489.062 9.3023.062 13.9512-.01 2.6121-.046 5.2212-.12 7.8297-.097 3.2884-.189 6.5774-.3781 9.8585-.2364 4.1472-.5643 8.2856-.8661 12.4248-.1854 2.5888-.3403 5.179-.6065 7.7562-.3788 3.729-1.3176 7.3272-2.5895 10.8555-1.1286 3.1423-2.1757 6.3186-3.1422 9.5183-.7919 2.6208-1.186 5.3252-1.2631 8.0696-.089 3.3153 1.2478 6.056 3.4781 8.4092.9541 1.005 2.0173 1.9133 2.9757 2.9183.5098.5366.8959 1.1903 1.3409 1.7932-.031.049-.066.1004-.1003.1505-.2204 0-.4407 0-.6647 0-2.4695-.012-4.9434-.01-7.4166-.039-.9548-.011-1.9089-.1112-2.8673-.1461-.3861-.016-.5796-.2749-.653-.557-.1978-.7418-.4254-1.4916-.4676-2.2485-.12-2.2652-.12-4.5377-.2356-6.8065-.086-1.5846-.2865-3.1604-.4371-4.7413-.012-.1047-.055-.2051-.1621-.3214-.1003.4334-.2051.866-.2938 1.2987-.097.4523-.1934.9047-.2632 1.3614-.3243 2.1597-.5294 4.3318-.2662 6.5075.1426 1.1861.3825 2.3721.7148 3.5204.1934.6683.6494 1.2639 1.0283 1.967-.8195-.1701-1.6813-.2588-2.4776-.5337-1.7852-.6065-3.5669-1.186-5.4641-1.3373-.3868-.031-.7621-.2277-1.1322-.3665-.4407-.1622-.6959-.4254-.6843-.9584.015-.5571-.3636-.8924-.877-1.0588-.7461-.24-1.4842-.2008-2.3001.1505 4.3129-5.5027 6.7629-11.814 8.9081-18.2445 2.1677-6.5004 2.9684-13.2058 2.4928-20.0538-.1622 1.3526-.2749 2.7132-.4989 4.0541-.4828 2.871-.9504 5.747-1.5452 8.5954-1.0399 4.9805-2.8485 9.7233-4.6955 14.4413-1.1635 2.9764-2.3852 5.928-3.9923 8.6914-.5795.997-1.2988 1.9133-1.9671 2.8564-.1003.1469-.2596.2894-.4217.3476-1.3024.456-2.6157.901-3.9305 1.3293-.1847.062-.3941.062-.5948.062-.885.01-1.2748-.4095-1.1825-1.3061.058-.5483.1665-1.0893.2553-1.6579-1.9016-.2008-3.625.3831-5.4103 1.2289.023-.058.042-.1156.065-.1702.2356-.6108.4326-1.1475.6493-1.6725 1.4261-3.436 3.3197-6.6168 5.3718-9.7044 2.1328-3.2157 4.305-6.408 6.4458-9.6193 3.652-5.4954 5.9747-11.5587 7.5977-17.9201.8741-3.4237 1.5228-6.8909 1.9249-10.4033.4981-4.3362.5759-8.6913.4712-13.0465-.1004-4.2591-.3054-8.5176-.4748-12.7731-.043-1.0631-.1236-2.1256-.2284-3.1888-.046 1.4464-.1047 2.8877-.1352 4.3326-.07 3.6331-.077 7.2617-.2007 10.8905-.1164 3.5014-.2436 7.0072-.5454 10.497-.5018 5.8386-1.7424 11.5354-3.4237 17.1537-1.6732 5.5928-4.2278 10.7443-7.3235 15.6601-2.0485 3.2534-4.081 6.5156-6.0131 9.8352-1.8093 3.0957-3.2928 6.3462-4.2011 9.8389-.01.027-.015.051-.027.078-.073.1738-.248.3433-.4102.4524-.6647.4479-1.3911.8115-2.0208 1.298-.7033.5454-1.4181.8697-2.3227 1.0282-1.9518.344-3.8643.9119-5.8044 1.341-1.0981.2472-2.2107.4094-3.3197.5948-.2356.039-.4835.01-.8042.01.2166-.2938.3905-.5374.5686-.7846 1.882-2.6245 3.2578-5.5267 4.5057-8.4827.4676-1.1017 1.0901-1.8864 2.1721-2.5045 3.7291-2.1328 6.3419-5.3528 8.3009-9.124 1.9169-3.6876 3.0492-7.6254 3.7371-11.71.4523-2.6666.6842-5.3522.781-8.058.015-.4596.2392-.9156.3941-1.3642.7381-2.1402 1.2014-4.3283 1.2253-6.608.015-1.6348.2509-3.2658.2393-4.9006-.02-2.1408-.1935-4.2817-.2858-6.4269-.035-.7723 0-1.5453-.047-2.3147-.128-2.0942-.2741-4.1886-.4254-6.2836-.1236-1.7082-.3512-3.4163-.3745-5.1245-.015-1.1439.2626-2.2914.3825-3.4433.2436-2.2841.5563-4.5682.6807-6.8596.2043-3.8686.2239-7.7482.4399-11.6176.1433-2.5851.4596-5.1631.7498-7.7365.3127-2.7903.773-5.5653 1.0013-8.3627.1426-1.7126-.039-3.455-.055-5.1828-.015-2.1292-.1076-4.2664.4755-6.3534.224-.792.5294-1.5497 1.1402-2.1372.084-.085.1855-.1542.3012-.2509" fill="#fff"/><path d="m1198.1563 1189.0225c.3674-.1191.8114-.096 1.2851.014 1.5076.3486 2.701 1.0514 4.2012 1.7832 1.1008.537 2.3635.4979 3.4297.1406 1.2252-.4107 2.3364-.7993 3.5508-1.0527 1.3544-.2826 2.2517-.2945 3.5351.1543 1.1639.407 1.9973.9825 2.5391 1.7285.5418.7459.8152 1.6832.7754 2.9043-.042 1.2958-.3405 2.2448-.7774 3.4394-.066-.01-.1372-.016-.2207-.023-1.1695-.1113-2.5266-.2443-3.6738-.3281-.3692-.027-.6588.095-.8965.2226-.1189.064-.2241.1318-.3164.2051-.092.073-.1678.1232-.2637.2891-.2111.3668-.5377.705-1.1269.8223-1.1794.2343-2.4184.1172-3.7188.019-1.0417-.078-1.8498.5383-2.0156 1.3125-.1992.9312-.4877 2.0899-.7461 3.0078-.2934 1.0425-.6952 1.5788-1.6758 2.1543-.4754.2791-.6846.7956-.6855 1.2657-.0009.47.1845.9542.6015 1.2714.4911.3736.7767.5891.9239.7832.056.074.071.2759.1113.375-.5732.059-1.1165.1116-1.8438.014-.8361-.1125-1.7691-.2663-2.7597.1699-.17.075-.3815.1885-.5918.3555-.088.07-.1249.2462-.211.3457l-.4765.1035c-.5893.1301-1.1388.093-1.7266-.039-1.2446-.2797-2.0782-1.3045-2.5019-3.0176-.2815-1.1379-.022-1.8619.623-2.8613l.2305-.3575-.2793-.3222c-.3216-.3696-.6319-.6981-.9082-1.0176-1.4426-1.6679-2.2491-3.856-1.4121-6.2481 1.1068-3.1635 2.8983-5.2468 5.7226-7.0214.4485-.2818.7746-.4238 1.2989-.5938z" fill="#fed100"/></g></g><g transform="translate(-.0003 -.000228)"><path d="m1398.3311 771.21832c-.4669.0209-.946.097-1.4453.21289.1549.16572.2862.29982.4258.43945.8268.82239 1.5348 1.73412 2.041 2.79297.6225 1.29433.9694 2.67355 1.0508 4.09961.089 1.63102.1152 3.26104.1699 4.93359h-7.9707c-.1157.24001-.193.44322-.2969.625-1.1636 2.03689-2.3368 4.06077-3.5039 6.09766-.062.10396-.1122.27681-.1973.29687-.3207.0763-.2832.29414-.2832.52539.01 2.08776 0 4.18055 0 6.26758 0 .15056.01.30065.014.43946h4.0547l.014 28.34765c0 .20874-.1284.47689-.2832.62305-1.4305 1.3642-2.875 2.71281-4.3242 4.05664-.3905.36362-.8045.70123-1.2481 1.0918v13.17382c.1695.0122.3072.0286.4395.0137.4167-.0494.835-.16993 1.248-.16993 14.5773-.008 29.1552-.0137 43.7325-.0137.1388 0 .2769-.009.4121.0137.4058.0699.8166.15588 1.2617.24024v-13.30078c-.1934-.15855-.3865-.27521-.5254-.42578-1.4143-1.51109-2.8052-3.03405-4.2246-4.53711-.243-.25526-.3418-.51832-.3418-.86524v-28.24804h3.8437v-7.00586c-.3126-.20883-.5741-.33802-.7792-.52344-1.4145-1.29078-2.8201-2.58873-4.2266-3.88672-.8893-.8159-1.8019-1.60071-2.6367-2.4668-.3017-.30894-.5796-.37504-.9512-.36914-2.0557.006-4.1121 0-6.168 0-1.0588 0-1.1092-.0116-1.291-1.0625-.062-.37156-.073-.79717.043-1.14843.1892-.56066.4717-1.0958.7656-1.61719.3825-.6843.8572-1.32784 1.2207-2.02735.5833-1.11344.5654-2.30026.2832-3.51757-2.6091.73081-4.7792 2.11821-6.6503 4.09765-.3636-1.42242-.7555-2.73522-1.5176-3.91406-.7803-1.20565-1.8567-2.02754-3.2754-2.36719l-.4121.043c-.1504 1.76204.0007 3.6577-.5098 5.60156-.1585-.28216-.2491-.47482-.3691-.65234-.8115-1.19771-1.5217-2.47684-2.4532-3.57422-1.385-1.62949-3.1096-2.43046-5.1328-2.33984z" fill="#231f20"/><path d="m829.65625 897.33398c.019.066.0172.10035.0332.12305 1.6732 2.39248 2.14478 5.10151 2.17578 7.94922.0153 1.4762.09 2.96511.28711 4.42969.1622 1.21364.43199 2.41985 1.01259 2.93277.5806.51291.82399.6821 1.11049.82899-.004.0157-.006.0349-.0156.0508 1.33-.25162 2.53451.45868 3.88281.51758.9969.0422 3.84588.48242 4.26758-.46875 1.2013.11639 2.13614.71651 3.37304.50781-.0383-.0996-.0762-.2019-.11523-.30664.0931-.0494.15398-.0839.20898-.11524l-.004-.002c.0102-.003.0179-.01.0293-.0156.0997-.0502.18844-.10029.27344-.15039l-.002-.004c.77982-.46679.98849-1.02269.67969-1.98633-.2589-.81885-.66498-1.5932-.95508-2.40039-.2356-.66533-.48827-1.33973-.57227-2.03125-.1433-1.10972.34774-2.07178.93164-2.98438.3746-.58756.79228-1.14916 1.10938-1.76367.2473-.47561.37093-1.01493.55273-1.52539-.0546-.0235-.10625-.0474-.15625-.0742-2.604.86899-4.3278 2.92927-6.2832 4.77344-.1585-.74683-.28476-1.41169-.44336-2.06836-.3555-1.47619-.77738-2.92863-1.79688-4.10742-.3018-.34682-.69341-.61448-1.04101-.91992-.0423.0268-.0849.0548-.12695.082.007 2.33357-.16908 4.62921-1.51368 6.70898-.6537-1.20279-1.26908-2.38108-1.92578-3.52929-.7068-1.24059-1.5117-2.41213-2.625-3.33204-.6836-.56355-1.43966-.98318-2.35156-1.11914z" fill="#f24328" transform="translate(569.80249 -124.86305)"/><path d="m810.33203 826.77148c-1.8398.0189-3.67973.008-5.51953.008-.1622 0-.31983.0164-.48633.0234.2014.59918.42486 1.14076.56445 1.70508.4174 1.67328-.43868 3.14214-1.98828 3.45117-.0923-.23633-.18434-.47315-.27734-.71679l-5.68164-2.29102-5.82031 1.6875.1582.0293c-.0602.008-.11898.008-.17969.0195-.0539.15782-.1052.31147-.1582.4707-.0662.18111-.13489.36362-.21289.57227-2.1831-.97005-2.57078-2.97127-2.98828-4.94922-2.3881 0-4.73439-.006-7.08399.0137-.1505 0-.35354.16216-.43554.30469-1.0239 1.76271-2.02851 3.53248-3.03711 5.29883-.0569.10105-.10144.20944-.14844.31054h40.35547c-.2124-.16653-.32869-.24949-.42969-.34179-1.8857-1.73145-3.7796-3.46252-5.6543-5.21289-.293-.2749-.58246-.38882-.97656-.38282zm-33.75781 7.17774v4.67187h41.69922v-4.67187zm4.08398 5.89258v33.88086h33.72657v-33.88086zm-1.22851 30.36328c-1.2755 1.19481-2.48376 2.32757-3.75196 3.51367h3.75196zm36.19726.15625v3.34961h3.11914c-1.0559-1.13296-2.05674-2.20577-3.11914-3.34961zm-40.86133 4.5957v10.81641h44.73243v-10.81641z" fill="#fed100" transform="translate(612.95443 -41.904275)"/><g stroke="#000" stroke-width="1.134454"><path d="m1421.9966 811.55636c-3.545-2.60784-7.6106-3.78508-11.52-3.77687-3.9094-.008-7.9749 1.16903-11.52 3.77687" fill="none" stroke-linecap="round"/><g stroke-linejoin="round"><path d="m1409.9207 813.31213c-2.8283.0913-6.0498.93198-9.2463 4.33266 3.4096 3.6274 6.8423 4.33262 9.8021 4.33262 2.9597 0 6.3925-.70522 9.8021-4.33262-3.4096-3.62743-6.8424-4.33266-9.8021-4.33266-.185 0-.3672-.006-.5558 0z" fill="none"/><path d="m1414.0134 817.64344c0 1.95331-1.5835 3.53676-3.5368 3.53676s-3.5368-1.58345-3.5368-3.53676c0-1.95332 1.5835-3.53685 3.5368-3.53685s3.5368 1.58353 3.5368 3.53685z" stroke-linecap="round"/></g></g><path d="m1412.0934 817.64341c0 .89294-.7238 1.61681-1.6168 1.61681s-1.6168-.72387-1.6168-1.61681c0-.89295.7238-1.61686 1.6168-1.61686s1.6168.72391 1.6168 1.61686z" fill="#fff" stroke-width=".377418"/><path d="m839.31445 902.67188c-.3908.97731-.34425 1.63805-.40625 2.70117-.0662 1.05879-.86653 1.48391-.99023.0957-.7766.56069-.40076 3.51062-2.10156 1.59375-.4363-.49085-.47085-1.26038-.87305-1.86328-.4792-.72283-.96366-1.11738-1.06836-2.0293-.3124.7963-.16976 1.81103-.28906 2.68946-.1128.80283-.44752 1.49532-.47852 2.31054-.0313.91187.43294 1.63832.55664 2.51172.1081.73077-.0553 1.44336-.058 1.82968-.003.38632-.004.44053-.004.49463l-.0684.0859c.2123.18978.45569.35897.74219.50586-.004.0157-.008.0349-.0176.0508 1.33-.25162 2.53647.45868 3.88477.51758.9969.0422 3.84588.48242 4.26758-.46875 1.2013.11639 2.13614.71456 3.37304.50585-.0383-.0996-.0782-.19994-.11718-.30468.0931-.0494.15593-.0839.21093-.11524l-.004-.002c.0102-.003.0179-.01.0293-.0156.0997-.0502.18844-.10029.27344-.15039l-.0195-.0312c-.004-.95553-.20105-3.77263-1.62695-3.49414-.0895-1.60344-.84694-3.0186-.24414-4.61914l-.006-.002c-.8384.42905-1.10166 1.79331-1.78516 2.01367 0-.2705-.17108-.52265-.20508-.7539-.4865.32867-.73446 1.54197-1.25586 1.63867-.9242.17017-.52251-1.07039-.60351-1.62305-.2044-1.36058-.67104-2.83969-1.11524-4.07226z" fill="#f68712" transform="translate(569.80249 -124.86305)"/><path d="m1414.8099 787.15497c.4137.37088.9969 1.1439.8587 1.75836l.01.006c-.055.0313-.1163.0662-.2094.11562.039.10474.078.20579.1163.30544-1.2369.2087-2.1721-.38975-3.3734-.50614-.4217.95117-3.2702.5105-4.2671.46834-1.3483-.0589-2.554-.76938-3.884-.51776.01-.0159.012-.0349.016-.0506-.2865-.14689-.5301-.31633-.7424-.50611l.07-.0851c0-.0541 0-.10832.01-.16214.7075-.50252.2938-1.04352.5912-1.7467.1432-.33235.5759-.63411.7613-.99332.2052-.39057-.2624-.86178.464-.85811.023.58756.6493 1.71979 1.2486 1.14821.2471-.23561.092-.74175.2356-1.03186.1853-.36724.6378-.50251.7687-.97808.9548-.29741.9591 1.20207 1.5344 1.7045.8966.78032 1.0245.0924.978-.93148.1432-.0431.3977-.0466.5447-.008.9038 1.41149 1.743 2.10668 3.3815 1.0668.085 1.25221.01 1.00494.9002 1.80487" fill="#f2f359"/></g></g></svg>