<svg version="1.1" id="Layer_1" xmlns="http://www.w3.org/2000/svg" width="188px" height="125px" viewBox="0 0 188 125" enable-background="new 0 0 188 125" xml:space="preserve">
<rect fill="#FFFFFF" width="188" height="125"/>
<rect fill="#0000FF" width="188" height="41.667"/>
<path fill="#0000FF" d="M188,79.617c-23.502,0-23.502,8-47.003,8s-23.501-8-47.003-8c-23.498,0-23.498,8-46.996,8c-23.499,0-23.499-8-46.998-8v19.015c23.499,0,23.499,8,46.998,8c23.498,0,23.498-8,46.996-8c23.502,0,23.502,8,47.003,8s23.501-8,47.003-8V79.617z"/>
<path fill="#0000FF" d="M188,115.951c-23.502,0-23.502,8-47.003,8s-23.501-8-47.003-8c-23.498,0-23.498,8-46.996,8c-23.499,0-23.499-8-46.998-8v19.015c23.499,0,23.499,8,46.998,8c23.498,0,23.498-8,46.996-8c23.502,0,23.502,8,47.003,8s23.501-8,47.003-8V115.951z"/>
<path fill="#0000FF" d="M188,43.588c-23.502,0-23.502,8-47.003,8s-23.501-8-47.003-8c-23.498,0-23.498,8-46.996,8c-23.499,0-23.499-8-46.998-8v19.015c23.499,0,23.499,8,46.998,8c23.498,0,23.498-8,46.996-8c23.502,0,23.502,8,47.003,8s23.501-8,47.003-8V43.588z"/>
<polygon fill="#F7F708" points="78.041,30.5 94,2.858 109.959,30.5 "/>
<polygon fill="#F7F708" points="78.041,10.857 94,38.5 109.959,10.857 "/>
</svg>
