<?xml version="1.0" encoding="UTF-8"?>
<svg width="600" height="400" version="1.1" viewBox="0 0 600 400" xmlns="http://www.w3.org/2000/svg">
 <defs>
  <style type="text/css"><![CDATA[
    .str0 {stroke:#1F1A17;stroke-width:0.0762}
    .fil0 {fill:#1F1A17}
   ]]></style>
 </defs>
 <rect width="600" height="400" fill="#efa500" fill-rule="evenodd" style="paint-order:normal"/>
 <path d="m249.4 241.98v-19.346h-18.229v-9.2721h18.229v-12.077h-18.229v-9.2722h18.229v-12.048h-18.229v-9.2721h18.229v-12.077h-18.229v-9.2722h18.229v-12.077h-18.229v-9.2721h18.229v-12.077h-18.229v-9.2721h18.229v-12.077h-18.229v-9.2721h18.229v-19.489h9.2435v19.489h13.708v-19.489h9.2435v19.489h13.708v-19.489h9.2435v19.489h13.679v-19.489h9.2721v19.489h13.679v-19.489h9.2721v19.489h18.802v9.2721h-18.802v12.077h18.802v9.2721h-18.802v12.077h18.802v9.2721h-18.802v12.077h18.802v9.2722h-18.802v12.077h18.802v9.2721h-18.802v12.048h18.802v9.2722h-18.802v12.077h18.802v9.2721h-18.802v19.346h-9.2721v-19.346h-13.679v19.346h-9.2721v-19.346h-13.679v19.346h-9.2435v-19.346h-13.708v19.346h-9.2435v-19.346h-13.708v19.346zm9.2435-28.618h13.708v-12.077h-13.708zm22.951 0h13.708v-12.077h-13.708zm22.951 0h13.679v-12.077h-13.679zm22.951 0h13.679v-12.077h-13.679zm-68.854-21.349h13.708v-12.048h-13.708zm22.951 0h13.708v-12.048h-13.708zm22.951 0h13.679v-12.048h-13.679zm22.951 0h13.679v-12.048h-13.679zm-68.854-21.32h13.708v-12.077h-13.708zm22.951 0h13.708v-12.077h-13.708zm22.951 0h13.679v-12.077h-13.679zm22.951 0h13.679v-12.077h-13.679zm-68.854-21.349h13.708v-12.077h-13.708zm22.951 0h13.708v-12.077h-13.708zm22.951 0h13.679v-12.077h-13.679zm22.951 0h13.679v-12.077h-13.679zm-68.854-21.349h13.708v-12.077h-13.708zm22.951 0h13.708v-12.077h-13.708zm22.951 0h13.679v-12.077h-13.679zm22.951 0h13.679v-12.077h-13.679zm-68.854-21.349h13.708v-12.077h-13.708zm22.951 0h13.708v-12.077h-13.708zm22.951 0h13.679v-12.077h-13.679zm22.951 0h13.679v-12.077h-13.679z" fill="#666" stroke="#1a1a1a" stroke-width="2.704"/>
 <path d="m299.71 315.89c-14.752 0-26.729-11.977-26.729-26.729 0-13.158 9.5372-24.087 22.064-26.3v-15.961h-67.795v-185.01h144.92v185.01h-67.795v15.961c12.527 2.2129 22.064 13.142 22.064 26.3 0 14.752-11.977 26.729-26.729 26.729zm-0.91577-8.8143c0.30539 0.0155 0.60655 0 0.91577 0 9.895 0 17.943-8.0197 17.943-17.915 0-9.895-8.0483-17.915-17.943-17.915-9.895 0-17.915 8.0197-17.915 17.915 0 9.5858 7.5319 17.434 16.999 17.915zm-63.217-70.792h128.26v-163.75h-128.26z" fill="#666" stroke="#1a1a1a" stroke-width="2.7473"/>
 <path d="m235.58 301.6c-4.3882-4.5493-8.9939-10.484-13.741-17.839-4.7474-7.3558-8.3789-13.584-10.894-18.684-0.592-1.2004-1.7018-3.4503-3.3294-6.75-4.4393-9.0001-8.9257-16.204-13.459-21.615s-7.6142-9.7654-9.2418-13.065c-1.1836-2.3998-2.4758-5.5861-3.8751-9.5578-1.3995-3.9718-2.5421-7.2318-3.4253-9.7797-6.3219-20.38-8.2285-41.259-5.7196-62.638 2.0373-17.044 6.3797-31.68 13.029-43.911 1.6684-4.18 3.2988-8.2474 4.8906-12.203 1.5916-3.956 2.6239-8.1016 3.0966-12.437 0.76-2.2392 1.4056-3.9563 1.9353-5.1505 0.53-1.1942 1.097-2.3132 1.7013-3.3569 0.4439 0.89988 1.0375 1.7262 1.7816 2.478 0.7321 2.9958 1.2438 5.1676 1.5354 6.516 0.5678 5.6881 0.533 12.046-0.1034 19.073-0.6362 7.0277-1.7171 13.155-3.241 18.383-3.5209 14.791-3.445 35.361 0.2265 61.71 3.6717 26.349 10.318 49.274 19.936 68.774 8.2862 16.799 23.809 37.304 46.566 61.512 16.51 17.592 31.616 31.961 45.319 43.105 3.4235 3.1605 7.9593 8.1962 13.606 15.108 0.8923 1.052 2.0794 2.7044 3.5634 4.9559-0.5996 0.2957-1.9437-0.1618-4.0316-1.3683-3.8009-2.6012-7.2638-5.4624-10.313-8.6206-3.0499-3.1575-6.624-6.2438-10.721-9.2582-4.0227-3.0512-8.3838-5.8417-13.008-8.4101-5.596-2.4613-14.58-7.821-26.802-16.152-12.222-8.3318-20.674-15.259-25.282-20.819z" clip-rule="evenodd" fill="#088640" fill-rule="evenodd" image-rendering="optimizeQuality" shape-rendering="geometricPrecision" stroke="#1f1a17" stroke-width=".13822"/>
 <path d="m364.42 301.6c4.3882-4.5493 8.9938-10.484 13.741-17.839 4.7474-7.3558 8.3789-13.584 10.894-18.684 0.592-1.2004 1.7018-3.4503 3.3293-6.75 4.4394-9.0001 8.9257-16.204 13.459-21.615 4.5333-5.4106 7.6142-9.7654 9.2418-13.065 1.1836-2.3998 2.4758-5.5861 3.8751-9.5578 1.3995-3.9718 2.5421-7.2318 3.4253-9.7797 6.3219-20.38 8.2284-41.259 5.7196-62.638-2.0373-17.044-6.3797-31.68-13.029-43.911-1.6684-4.18-3.2988-8.2474-4.8907-12.203-1.5915-3.956-2.6238-8.1016-3.0965-12.437-0.76-2.2392-1.4056-3.9563-1.9353-5.1505-0.53-1.1942-1.097-2.3132-1.7013-3.3569-0.4439 0.89988-1.0375 1.7262-1.7816 2.478-0.7322 2.9958-1.2438 5.1676-1.5354 6.516-0.5678 5.6881-0.533 12.046 0.1034 19.073 0.6362 7.0277 1.7171 13.155 3.241 18.383 3.5209 14.791 3.445 35.361-0.2265 61.71-3.6717 26.349-10.318 49.274-19.936 68.774-8.2862 16.799-23.809 37.304-46.566 61.512-16.51 17.592-31.616 31.961-45.319 43.105-3.4235 3.1605-7.9593 8.1962-13.606 15.108-0.8923 1.052-2.0794 2.7044-3.5634 4.9559 0.5996 0.2957 1.9437-0.1618 4.0316-1.3683 3.8009-2.6012 7.2638-5.4624 10.313-8.6206 3.0499-3.1575 6.624-6.2438 10.721-9.2582 4.0227-3.0512 8.3838-5.8417 13.008-8.4101 5.596-2.4613 14.58-7.821 26.802-16.152 12.222-8.3318 20.674-15.259 25.282-20.819z" clip-rule="evenodd" fill="#088640" fill-rule="evenodd" image-rendering="optimizeQuality" shape-rendering="geometricPrecision" stroke="#1f1a17" stroke-width=".13822"/>
</svg>
