<?xml version="1.0" encoding="UTF-8" standalone="no"?>
<!-- Generator: Adobe Illustrator 15.0.2, SVG Export Plug-In . SVG Version: 6.00 Build 0)  -->

<svg
   xmlns:dc="http://purl.org/dc/elements/1.1/"
   xmlns:cc="http://creativecommons.org/ns#"
   xmlns:rdf="http://www.w3.org/1999/02/22-rdf-syntax-ns#"
   xmlns:svg="http://www.w3.org/2000/svg"
   xmlns="http://www.w3.org/2000/svg"
   xmlns:sodipodi="http://sodipodi.sourceforge.net/DTD/sodipodi-0.dtd"
   xmlns:inkscape="http://www.inkscape.org/namespaces/inkscape"
   version="1.1"
   x="0px"
   y="0px"
   width="900px"
   height="600px"
   viewBox="150 0 900 600"
   enable-background="new 150 0 900 600"
   xml:space="preserve"
   id="svg2"
   inkscape:version="0.48.1 "
   sodipodi:docname="AJAX.svg"><metadata
   id="metadata250"><rdf:RDF><cc:Work
       rdf:about=""><dc:format>image/svg+xml</dc:format><dc:type
         rdf:resource="http://purl.org/dc/dcmitype/StillImage" /></cc:Work></rdf:RDF></metadata><defs
   id="defs248" /><sodipodi:namedview
   pagecolor="#ffffff"
   bordercolor="#666666"
   borderopacity="1"
   objecttolerance="10"
   gridtolerance="10"
   guidetolerance="10"
   inkscape:pageopacity="0"
   inkscape:pageshadow="2"
   inkscape:window-width="1280"
   inkscape:window-height="1004"
   id="namedview246"
   showgrid="false"
   showguides="true"
   inkscape:guide-bbox="true"
   inkscape:zoom="0.62308719"
   inkscape:cx="282.79995"
   inkscape:cy="247.40347"
   inkscape:window-x="-8"
   inkscape:window-y="-8"
   inkscape:window-maximized="1"
   inkscape:current-layer="Layer_1"><sodipodi:guide
     orientation="0,1"
     position="-279.25466,881.09659"
     id="guide3995" /></sodipodi:namedview>
<g
   id="Layer_1">
	<rect
   x="600"
   y="-0.179"
   fill="#51B5E0"
   width="450"
   height="600"
   id="rect5" />
	<rect
   x="150"
   y="-0.179"
   fill="#FFFFFF"
   width="450"
   height="600"
   id="rect7" />
	<g
   id="shield">
		<path
   fill="#FF0000"
   stroke="#000000"
   stroke-width="1.4179"
   stroke-miterlimit="10"
   d="M599.996,226.222    c-57.655,0-96.878-19.853-113.871-30.565c-8.57,9.413-25.21,27.732-33.663,37.043c12.802,16.963,19.174,36.319,19.174,59.928    c0,18.545-3.876,39.651-11.498,64.268c-3.591,11.552-5.561,24.806-5.561,38.503c0,41.928,18.32,88.103,64.241,102.441    c44.16,13.809,68.738,35.244,81.175,49.891c12.465-14.646,37.035-36.082,81.203-49.891    c45.922-14.339,64.221-60.514,64.221-102.441c0-13.727-1.938-26.951-5.534-38.503c-7.645-24.616-11.504-45.724-11.504-64.268    c0-23.628,6.345-42.965,19.157-59.928c-8.48-9.311-25.117-27.63-33.653-37.043C696.882,206.369,657.684,226.222,599.996,226.222z"
   id="path10"
   style="stroke:none" />
	</g>
	<g
   id="bird">
		<g
   id="g13">
			<path
   id="path2003"
   fill="#00A651"
   d="M535.708,318.896c0,0-8.375-3.808-12.189-1.015c-3.816,2.798-3.292,6.86-6.598,6.597     c0,0,12.698,2.796,15.485-0.509c2.786-3.29,3.304-4.318,3.304-4.318" />
			<path
   id="path2005"
   d="M522.957,317.113l-3.508,4.313c-0.913,1.627-1.287,2.192-2.442,2.097l-0.287,1.884     c1.355,0.297,13.343,2.813,16.418-0.827l3.426-4.5c0,0-0.635-0.307-1.128-0.569c0.17-0.38,0.667-1.479,0.667-1.479     C535.741,317.856,527.162,314.029,522.957,317.113z M521.114,322.343l2.967-3.703c2.553-1.862,8.009-0.177,10.548,0.89     c-0.408,0.521-2.956,3.828-2.956,3.828c-1.453,1.717-7.109,1.405-11.721,0.672C520.372,323.507,520.768,322.944,521.114,322.343z     " />
			<path
   id="path2007"
   fill="#00A651"
   d="M537.227,322.419c0,0-5.512,7.366-3.608,11.681c1.901,4.327,5.982,4.687,5.018,7.866     c0,0,5.457-11.796,2.835-15.234c-2.623-3.421-3.495-4.137-3.495-4.137" />
			<path
   id="path2009"
   d="M537.775,322.83c-0.328-0.248-1.309-0.983-1.309-0.983c-0.239,0.322-5.821,7.878-3.722,12.642l3.458,4.349     c1.394,1.243,1.86,1.721,1.52,2.836l1.778,0.674c0.587-1.256,5.626-12.428,2.728-16.196l-3.654-4.323     C538.577,321.84,538.131,322.387,537.775,322.83z M537.467,337.413l-2.977-3.7c-0.223-0.496-0.313-1.071-0.313-1.685     c0-2.925,2.15-6.565,3.438-8.418c0.427,0.516,3.104,3.694,3.104,3.694c0.369,0.491,0.533,1.247,0.533,2.196     c0,2.527-1.185,6.138-2.417,9.305C538.422,338.32,537.953,337.854,537.467,337.413z" />
			<path
   id="path2011"
   fill="#00A651"
   d="M527.958,301.999c0,0-8.798,2.728-9.78,7.337c-1.008,4.613,2.077,7.312-0.552,9.315     c0,0,11.339-6.35,11.232-10.686c-0.108-4.321-0.392-5.412-0.392-5.412" />
			<path
   id="path2013"
   d="M517.249,309.139l0.229,5.552c0.405,1.832,0.499,2.51-0.428,3.196l1.044,1.603     c1.213-0.669,11.84-6.779,11.72-11.534l-0.419-5.629c0,0-0.684,0.177-1.239,0.312c-0.119-0.4-0.48-1.549-0.48-1.549     C527.286,301.198,518.339,304.036,517.249,309.139z M519.332,314.281l-0.221-4.738c0.658-3.094,5.855-5.477,8.461-6.376     c0.045,0.64,0.334,4.872,0.334,4.881c0,2.241-4.373,5.748-8.276,8.245C519.611,315.623,519.485,314.954,519.332,314.281z" />
			<path
   id="path2015"
   fill="#00A651"
   d="M533.118,305.04c0,0,4.169-8.22,1.544-12.132c-2.62-3.948-6.713-3.608-6.315-6.882     c0,0-3.351,12.549-0.176,15.491c3.185,2.91,4.182,3.483,4.182,3.483" />
			<path
   id="path2017"
   d="M527.537,302.21c0,0.014,4.351,3.617,4.351,3.617s0.345-0.6,0.637-1.101     c0.358,0.182,1.439,0.738,1.439,0.738c0.183-0.355,4.396-8.763,1.491-13.1l-4.153-3.704c-1.597-0.981-2.138-1.37-2-2.528     l-1.861-0.369C527.073,287.125,524.034,298.981,527.537,302.21z M528.824,300.818c-0.771-0.717-1.064-2.347-1.064-4.344     c0-2.301,0.422-4.931,0.919-7.371c0.495,0.43,1.028,0.828,1.615,1.195l3.575,3.138c0.497,0.762,0.702,1.74,0.702,2.832     c0,2.728-1.209,5.882-2.038,7.653C532.021,303.497,528.824,300.818,528.824,300.818z" />
			<path
   id="path2019"
   fill="#00A651"
   d="M524.492,302.043c0,0,0.199-9.188-3.869-11.59c-4.065-2.406-7.608-0.336-8.669-3.477     c0,0,2.432,12.769,6.576,14.045c4.137,1.25,5.278,1.322,5.278,1.322" />
			<path
   id="path2021"
   d="M511.019,287.148c0.255,1.367,2.667,13.392,7.225,14.784l5.493,1.364c0,0,0.054-0.709,0.096-1.265     c0.417,0.006,1.607,0.032,1.607,0.032c0.011-0.412,0.167-9.788-4.334-12.437c-0.004,0-5.348-1.534-5.348-1.534     c-1.865-0.192-2.534-0.318-2.903-1.418L511.019,287.148z M518.809,300.11c-2.162-0.654-4.124-6.011-5.274-10.539     c0.652,0.18,1.327,0.343,2.02,0.415l4.575,1.277c2.708,1.597,3.337,7.276,3.392,10.036     C522.922,301.153,518.809,300.11,518.809,300.11z" />
			<path
   id="path2023"
   d="M537.066,322.569c0,0.223,1.005,8.094,1.005,8.094l1.361-0.176l-1.02-7.876     c0.039,0.008,3.298-17.309,3.298-17.309l-1.346-0.251L537.066,322.569z" />
			<path
   id="path2025"
   fill="#FFFFFF"
   d="M637.695,321.818c7.194-4.034,8.638-18.159,8.638-18.159     c-1.72,5.195-14.967,10.374-14.967,10.374c9.785-6.063,21.581-33.385,21.581-33.385c-3.16,9.781-28.772,17.84-45.188,27.051     c-16.412,9.201-7.77,35.699-7.77,35.699c-4.6-3.169-13.525-17.264-15.245-29.657c-1.74-12.378-6.628-17.256-17.856-18.7     c-11.224-1.438-17.844,11.216-17.844,11.216l-16.688,8.646l16.971,0.564c0,0,12.104,4.038,12.104,13.539     c0,9.504-10.645,47.489,6.904,68.804c12.215,14.806,57.287,23.307,57.287,23.307" />
			<path
   id="path2027"
   d="M651.642,280.246c-2.041,6.192-14.997,12.157-27.527,17.921l-17.018,8.354     c-8.592,4.814-10.79,13.856-10.79,21.84c0,3.951,0.539,7.625,1.114,10.419c-4.402-5.492-10.014-15.768-11.333-25.211     c-1.779-12.772-7.124-18.35-19.026-19.868c-11.476-1.477-18.12,9.988-18.976,11.538c-0.64,0.323-20.994,10.867-20.994,10.867     s22.18,0.744,22.19,0.744c-0.003,0-0.003,0-0.003,0c0,0.061,10.782,3.887,10.782,12.17l-0.993,8.78     c-0.915,6.543-2.194,15.501-2.194,24.981c0,12.534,2.232,25.97,10.407,35.898c12.385,15.009,56.227,23.426,58.083,23.777     l0.508-2.674c-0.445-0.077-44.737-8.584-56.485-22.825c-7.668-9.311-9.782-22.119-9.782-34.177     c0-9.305,1.252-18.168,2.167-24.601l1.016-9.16c0-10.369-12.498-14.643-13.03-14.834c-0.243-0.041-7.128-0.282-12.16-0.446     c4.833-2.511,12.455-6.464,12.455-6.464l0.199-0.377c0.061-0.122,6.331-11.793,16.469-10.499     c10.693,1.364,15.058,5.966,16.668,17.54c1.733,12.428,10.804,27.13,15.829,30.584l3.304,2.279l-1.245-3.822     c-0.036-0.131-2.173-6.86-2.173-14.528c0-7.277,1.914-15.376,9.32-19.549l16.815-8.237c8.778-4.04,16.917-7.981,22.494-12.17     c-4.237,8.445-11.121,20.699-17.091,24.405l1.223,2.431c1.007-0.41,7.685-3.147,12.091-6.734     c-1.021,4.228-2.976,9.839-6.938,12.046l1.328,2.385c7.737-4.326,9.28-18.587,9.329-19.188l-2.652-0.569     c-0.617,1.87-3.503,4.004-6.759,5.894c8.085-10.063,15.534-27.063,15.923-27.956l-0.032-0.008     c0.017-0.044,0.062-0.072,0.069-0.11l-2.543-0.963C651.702,280.106,651.649,280.228,651.642,280.246z" />
			<path
   id="path2029"
   fill="#FFFFFF"
   d="M604.603,351.168c0,0,3.453-16.992,14.676-16.417c11.224,0.578,14.394-12.655,21.014-14.68     c6.62-2.01,40.875-11.21,44.621-27.631c0,0-3.167,27.063-34.537,40.596c0,0,25.315-8.359,28.206-13.82     c0,0-11.235,24.182-38.58,27.917c0,0,25.617-2.011,29.36-8.916c0,0-11.517,15.253-30.507,17.269c0,0,17.555,7.193,22.164,1.146     c0,0-9.504,11.218-21.308,12.08l3.175,0.87c0,0-11.227,13.245-23.609,4.319c-12.374-8.925-12.666,2.313-12.666,2.313" />
			<path
   id="path2031"
   d="M641.246,318.365l-1.356,0.403c-3.011,0.921-5.232,3.651-7.59,6.545     c-3.372,4.128-6.836,8.395-12.958,8.091c-12.253-0.641-15.935,16.756-16.082,17.491l2.67,0.535     c0.026-0.162,3.363-15.827,13.278-15.32c7.478,0.39,11.763-4.873,15.201-9.074c2.094-2.568,4.055-4.978,6.275-5.655l1.332-0.397     c7.895-2.331,28.345-8.487,38.533-18.938c-3.793,8.873-12.214,21.75-30.729,29.736l0.965,2.542     c1.911-0.631,14.52-4.882,22.581-9.383c-5.24,7.246-15.939,18.432-33.546,20.848l0.291,2.705     c1.736-0.133,12.157-1.066,20.451-3.65c-5.109,3.995-12.568,8.308-21.856,9.294l-5.354,0.563l4.985,2.05     c1.329,0.539,9.932,3.868,16.732,3.553c-3.736,3.084-9.184,6.604-15.456,7.063l-0.257,2.67c0,0,0.531,0.153,0.896,0.254     c-3.283,3.023-11.354,8.86-20.178,2.511c-4.756-3.428-8.549-4.474-11.267-3.128c-3.405,1.689-3.56,6.312-3.571,6.504l2.729,0.066     c0.028-0.889,0.453-3.368,2.054-4.137c1.701-0.84,4.716,0.188,8.471,2.898c13.231,9.546,25.309-4.39,25.434-4.549l1.381-1.614     c0,0-0.268-0.068-0.394-0.108c9.627-2.975,16.806-10.818,17.139-11.212l-0.009-0.018c0.009-0.03,0.044-0.03,0.056-0.048     l-2.12-1.714c0,0-0.061,0.064-0.064,0.064c-2.428,3.141-10.138,1.702-15.76,0.029c16.215-3.859,25.855-16.23,26.295-16.813     l-0.034-0.023c0.034-0.058,0.117-0.092,0.139-0.153l-2.274-1.473c-0.008,0.005-0.149,0.177-0.186,0.228     c-1.303,2.267-5.97,4.117-11.552,5.511c15.878-8.367,23.014-22.823,23.236-23.279c0,0,0,0,0-0.006l0.037-0.062l-2.438-1.203     c-1.063,2.009-6.495,4.83-12.725,7.526c18.544-14.064,21.472-32.52,21.579-33.359l0,0l0,0c0-0.023,0.029-0.145,0.029-0.145     l-2.675-0.467C681.352,301.915,667.11,310.727,641.246,318.365z" />
			<path
   id="path2033"
   fill="#FFFFFF"
   d="M630.15,376.78c0,0,14.456,24.186,15.898,37.135c0,0,27.64,30.521,37.998,32.229     c0,0-4.896,2.011-13.821-5.465c0,0,7.482,7.764,8.931,8.064c1.435,0.294-6.048-0.579-7.203-2.595c0,0,3.173,4.611,5.185,5.189     c2.019,0.57-2.012-0.578-2.012-0.578s-3.753-0.571-5.476-2.017c-1.728-1.436-0.575,3.733-0.575,3.733s-4.322-1.144-5.75-2.59     c-1.446-1.433,0.574,3.174,0.574,3.174l-3.74-0.866l-2.583,1.723c0,0-0.295,1.728-2.035,0.293c-1.716-1.428-4.886,0-4.886,0     s-2.313,2.018-3.453,0.572c-1.145-1.434-5.51,5.533-5.51,5.533l-18.125-43.755" />
			<path
   id="path2035"
   d="M628.986,377.483c0.144,0.241,14.317,24.082,15.706,36.58l0.052,0.433l0.298,0.327     c0.801,0.882,14.235,15.584,25.902,24.969c-0.266,0.289-1.697,1.828-1.697,1.828c1.203,1.244,2.502,2.545,3.771,3.772     c-0.09,0.062-2.25,1.417-2.25,1.417c0.017,0.044,0.072,0.055,0.09,0.077l-0.037,0.029c0.17,0.228,0.549,0.767,1.048,1.394     c-0.478-0.201-1.03-0.361-1.345-0.632c-1.07-0.89-1.932-0.527-2.259-0.329c-0.313,0.196-0.938,0.584-0.938,2.331     c0,0.183,0.088,0.57,0.107,0.794c-1.305-0.456-2.607-1.007-3.157-1.565l-0.801-0.806l-1.397,0.383     c-0.429,0.295-0.644,0.668-0.644,1.272c0,0.295,0.334,1.006,0.442,1.417c-0.668-0.154-1.991-0.444-1.991-0.444l-3.398,2.257     c0,0-0.052,0.104-0.068,0.179l-0.009-0.019c-2.311-1.917-5.918-0.383-6.326-0.2c-0.856,0.667-1.583,1.013-1.83,0.99l-0.438-0.491     l-1.143-0.21c-1.168,0.061-2.791,1.767-4.651,4.335c-1.659-3.993-17.212-41.545-17.212-41.545l-2.514,1.051l19.143,46.188     l1.402-2.252c1.489-2.384,3.306-4.623,4.014-5.011c0.542,0.301,1.153,0.627,1.153,0.627l3.526-1.428     c0.444-0.133,2.321-0.634,3.126,0.045c0.996,0.81,1.921,1.066,2.783,0.748c0.898-0.325,1.337-1.211,1.447-1.861l-0.579,0.906     c0,0,1.453-0.977,2.101-1.394c0.813,0.183,5.597,1.289,5.597,1.289s-0.879-2.418-0.887-2.431     c1.643,0.713,3.299,1.208,3.593,1.272l1.92,0.518c0,0-0.337-3.007-0.417-3.852c1.993,1.013,4.352,1.596,4.687,1.633     c-0.009,0-0.009,0-0.009,0c0,0.006,3.153,0.912,3.153,0.912l0.938-1.145c0.076-0.257,0.117-0.462,0.117-0.646     c0-0.482-0.6-0.789-1.61-1.144l0.009-0.051c-0.046-0.022-0.118-0.117-0.162-0.139c1.153,0.206,2.078,0.289,2.35,0.206     l3.739-1.073l-3.933-1.601c-0.035-0.011-0.104-0.071-0.131-0.09c3.048,0.751,4.862,0.191,5.184,0.067l4.431-1.821l-4.723-0.791     c-8.044-1.338-29.208-22.991-36.964-31.535c-1.732-13.18-15.389-36.199-15.976-37.188L628.986,377.483z" />
			
				<rect
   id="rect2037"
   x="612.433"
   y="432.351"
   transform="matrix(0.4651 0.8853 -0.8853 0.4651 724.7419 -331.9697)"
   width="49.258"
   height="2.715" />
			
				<rect
   id="rect2039"
   x="619.422"
   y="428.892"
   transform="matrix(0.6661 0.7459 -0.7459 0.6661 537.5663 -340.2821)"
   width="58.833"
   height="2.731" />
			
				<rect
   id="rect2041"
   x="624.468"
   y="426.153"
   transform="matrix(0.7315 0.6818 -0.6818 0.7315 467.3285 -331.8295)"
   width="61.132"
   height="2.727" />
			<path
   id="path2043"
   d="M548.423,306.549c0,0,1.601,3.317,1.62,3.378c-0.164,0.009-1.807,5.352-1.807,5.352l1.311,0.406     l1.777-5.818c-0.033-0.5-1.667-3.89-1.667-3.89L548.423,306.549z" />
			<path
   id="path2045"
   d="M564.224,308.939c0,0-2.918-5.224-5.461-3.258c-2.534,1.957-3.992,2.313-4.431,2.181     c0,0,2.546,0.143,3.992-1.239C559.785,305.233,562.252,306.104,564.224,308.939z" />
			<path
   id="path2047"
   d="M563.558,308.141c0,0-2.178,2.548-5.156,1.821c-2.969-0.732-2.969-0.732-2.969-0.732     s2.53,0.147,4.206,0.223C561.303,309.516,563.483,308.651,563.558,308.141z" />
			<path
   id="path2049"
   d="M562.834,308.651c0,0-2.678-2.834-4.502-2.036c0,0,3.199-1.02,5.021,1.725L562.834,308.651z" />
			<path
   id="path2051"
   d="M562.396,308.141c0,0-3.049,2.096-6.398-0.215l-0.205-0.161l0.437-0.14     C556.232,307.633,560.438,309.371,562.396,308.141z" />
			<circle
   id="circle2053"
   cx="559.78"
   cy="307.636"
   r="0.909" />
			<path
   id="path2055"
   d="M562.238,388.041c0,0-2.362,4.341-1.124,6.962c1.248,2.61,6.853,3.966,7.598,7.456     c0.753,3.494,2.624,3.494,5.236,3.005c2.62-0.503,3.114-0.626,3.114-0.626s-10.962-5.869-13.826-15.319L562.238,388.041z" />
			<path
   id="path2057"
   d="M665.687,371.441" />
			<path
   id="path2059"
   d="M528.31,320.024l-0.449,1.287c4.611,1.612,11.048-3.449,11.321-3.663l-0.854-1.059     C538.267,316.629,532.216,321.409,528.31,320.024z" />
			<line
   id="line2061"
   fill="none"
   x1="540.781"
   y1="308.988"
   x2="519.206"
   y2="298.077" />
			
				<rect
   id="rect2063"
   x="518.022"
   y="302.79"
   transform="matrix(0.8924 0.4512 -0.4512 0.8924 194.1046 -206.5292)"
   width="24.183"
   height="1.908" />
			<line
   id="line2065"
   fill="none"
   x1="528.334"
   y1="302.389"
   x2="524.025"
   y2="306.696" />
			
				<rect
   id="rect2067"
   x="525.216"
   y="301.443"
   transform="matrix(0.7079 0.7063 -0.7063 0.7079 368.7808 -282.6998)"
   width="1.9"
   height="6.105" />
			<line
   id="line2069"
   fill="none"
   x1="533.168"
   y1="304.923"
   x2="528.604"
   y2="295.026" />
			
				<rect
   id="rect2071"
   x="525.436"
   y="298.946"
   transform="matrix(0.419 0.908 -0.908 0.419 580.7815 -307.8013)"
   width="10.917"
   height="1.906" />
			<path
   id="path2073"
   fill="#00A651"
   d="M539.516,317.37c0,0,9.643-3.312,10.407,7.107c0.764,10.41-0.509,6.86-0.509,6.86     s-5.079-11.177-10.661-12.953L539.516,317.37z" />
			<path
   id="path2075"
   d="M539.203,316.474l-0.273,0.09l-1.739,2.316l1.27,0.411c5.117,1.623,10.036,12.329,10.085,12.424     c0.422,1.207,1.188,1.199,1.483,1.128c0.947-0.205,1.411-0.666,0.836-8.453c-0.248-3.42-1.436-5.858-3.531-7.246     C543.909,314.89,539.388,316.401,539.203,316.474z M546.297,318.757c1.573,1.038,2.47,2.993,2.67,5.789     c0.15,1.952,0.191,3.222,0.22,4.23c-1.692-3.169-5.146-8.57-9.071-10.593C540.771,317.997,543.917,317.173,546.297,318.757z" />
			<path
   id="path2077"
   d="M538.692,317.428l0.122,1.906c5.868-0.399,7.298,3.4,7.307,3.445l1.872-0.391     C547.771,321.305,545.419,316.979,538.692,317.428z" />
		</g>
	</g>
	<g
   id="guides">
	</g>
	<g
   id="crown">
		<g
   id="g55">
			<g
   id="g57">
				<path
   fill="#EF0010"
   d="M601.03,85.118c-13.167,2.802-39.769,1.506-48.926,30.719c-9.158,29.213-5.573,45.674-5.917,50.542      c-0.343,4.87,105.154-0.205,106.66-0.914c2.435-7.316-3.477-54.498-10.317-60.41C635.693,99.144,620.623,80.945,601.03,85.118z"
   id="path59" />
				<g
   id="g61">
					<g
   id="g63">
						
							<linearGradient
   id="SVGID_1_"
   gradientUnits="userSpaceOnUse"
   x1="567.1929"
   y1="417.2932"
   x2="670.0435"
   y2="420.26"
   gradientTransform="matrix(1 0 0 -1 -20.96 603.4009)">
							<stop
   offset="0.0056"
   style="stop-color:#754C24"
   id="stop66" />
							<stop
   offset="0.1828"
   style="stop-color:#CE6331"
   id="stop68" />
							<stop
   offset="0.5012"
   style="stop-color:#CE6331"
   id="stop70" />
							<stop
   offset="0.7579"
   style="stop-color:#CE3500"
   id="stop72" />
							<stop
   offset="1"
   style="stop-color:#603813"
   id="stop74" />
						</linearGradient>
						<path
   fill="url(#SVGID_1_)"
   stroke="#000000"
   stroke-width="1.4179"
   stroke-miterlimit="10"
   d="M650.512,184.535        c-7.678,6.35-27.979,8.158-52.011,8.158c-24.023,0-44.626-1.803-52.313-8.158c7.687-6.364,28.136-8.013,52.159-8.013        C622.378,176.523,642.834,178.177,650.512,184.535z"
   id="path76" />
						
							<linearGradient
   id="SVGID_2_"
   gradientUnits="userSpaceOnUse"
   x1="560.6509"
   y1="432.8088"
   x2="678.4355"
   y2="432.8088"
   gradientTransform="matrix(1 0 0 -1 -20.96 603.4009)">
							<stop
   offset="0.0056"
   style="stop-color:#FCCB00"
   id="stop79" />
							<stop
   offset="0.2528"
   style="stop-color:#FFFAD2"
   id="stop81" />
							<stop
   offset="0.2982"
   style="stop-color:#FAF1C1"
   id="stop83" />
							<stop
   offset="0.3885"
   style="stop-color:#EDD894"
   id="stop85" />
							<stop
   offset="0.5138"
   style="stop-color:#D8B14C"
   id="stop87" />
							<stop
   offset="0.5955"
   style="stop-color:#C9961A"
   id="stop89" />
							<stop
   offset="0.8142"
   style="stop-color:#E9CD76"
   id="stop91" />
							<stop
   offset="0.8708"
   style="stop-color:#F2DC8E"
   id="stop93" />
							<stop
   offset="1"
   style="stop-color:#FFFAD2"
   id="stop95" />
						</linearGradient>
						
							<path
   fill="url(#SVGID_2_)"
   stroke="#000000"
   stroke-width="1.4179"
   stroke-linecap="round"
   stroke-linejoin="round"
   stroke-miterlimit="10"
   d="        M650.512,184.535c-0.871-0.651-12.624-7.813-50.921-8.013c-43.739-0.23-54.003,8.717-53.413,8.009l-6.487-19.104        c0,0,29.426-8.816,59.566-8.816c28.526,0,58.218,8.816,58.218,8.816L650.512,184.535z"
   id="path97" />
						
							<linearGradient
   id="SVGID_3_"
   gradientUnits="userSpaceOnUse"
   x1="559.0083"
   y1="444.5793"
   x2="679.7451"
   y2="444.5793"
   gradientTransform="matrix(1 0 0 -1 -20.96 603.4009)">
							<stop
   offset="0.0056"
   style="stop-color:#FCCB00"
   id="stop100" />
							<stop
   offset="0.2528"
   style="stop-color:#FFFAD2"
   id="stop102" />
							<stop
   offset="0.2982"
   style="stop-color:#FAF1C1"
   id="stop104" />
							<stop
   offset="0.3885"
   style="stop-color:#EDD894"
   id="stop106" />
							<stop
   offset="0.5138"
   style="stop-color:#D8B14C"
   id="stop108" />
							<stop
   offset="0.5955"
   style="stop-color:#C9961A"
   id="stop110" />
							<stop
   offset="0.8142"
   style="stop-color:#E9CD76"
   id="stop112" />
							<stop
   offset="0.8708"
   style="stop-color:#F2DC8E"
   id="stop114" />
							<stop
   offset="1"
   style="stop-color:#FFFAD2"
   id="stop116" />
						</linearGradient>
						<path
   fill="url(#SVGID_3_)"
   stroke="#000000"
   stroke-width="1.4179"
   stroke-linecap="round"
   stroke-miterlimit="10"
   d="        M657.476,165.427c-0.872-0.651-28.598-8.816-58.787-8.816c-31.907,0-59.588,9.523-59,8.816l-1.641-4.208        c0,0,30.39-9.042,60.53-9.042c28.524,0,60.207,8.463,60.207,8.463L657.476,165.427z"
   id="path118" />
						
							<line
   fill="none"
   stroke="#000000"
   stroke-width="1.4179"
   stroke-linecap="round"
   stroke-linejoin="round"
   stroke-miterlimit="10"
   x1="572.49"
   y1="154.093"
   x2="572.49"
   y2="158.536"
   id="line120" />
						
							<line
   fill="none"
   stroke="#000000"
   stroke-width="1.4179"
   stroke-linecap="round"
   stroke-linejoin="round"
   stroke-miterlimit="10"
   x1="598.579"
   y1="152.178"
   x2="598.579"
   y2="156.612"
   id="line122" />
						
							<line
   fill="none"
   stroke="#000000"
   stroke-width="1.4179"
   stroke-linecap="round"
   stroke-linejoin="round"
   stroke-miterlimit="10"
   x1="625.258"
   y1="154.396"
   x2="625.258"
   y2="158.536"
   id="line124" />
						
							<linearGradient
   id="SVGID_4_"
   gradientUnits="userSpaceOnUse"
   x1="610.3828"
   y1="436.3918"
   x2="633.3466"
   y2="436.2279"
   gradientTransform="matrix(1 0 0 -1 -20.96 603.4009)">
							<stop
   offset="0"
   style="stop-color:#BF0C42"
   id="stop127" />
							<stop
   offset="0.0222"
   style="stop-color:#C01145"
   id="stop129" />
							<stop
   offset="0.0468"
   style="stop-color:#C51E4E"
   id="stop131" />
							<stop
   offset="0.0726"
   style="stop-color:#CC345E"
   id="stop133" />
							<stop
   offset="0.0993"
   style="stop-color:#D65373"
   id="stop135" />
							<stop
   offset="0.1265"
   style="stop-color:#E37B8E"
   id="stop137" />
							<stop
   offset="0.154"
   style="stop-color:#F3ACB0"
   id="stop139" />
							<stop
   offset="0.1588"
   style="stop-color:#F6B5B6"
   id="stop141" />
							<stop
   offset="0.2092"
   style="stop-color:#EF9FA7"
   id="stop143" />
							<stop
   offset="0.3145"
   style="stop-color:#DC6582"
   id="stop145" />
							<stop
   offset="0.463"
   style="stop-color:#BF0B47"
   id="stop147" />
							<stop
   offset="0.713"
   style="stop-color:#F6B5B6"
   id="stop149" />
							<stop
   offset="0.8724"
   style="stop-color:#F6B5B6"
   id="stop151" />
							<stop
   offset="0.8795"
   style="stop-color:#E9A3A7"
   id="stop153" />
							<stop
   offset="0.9002"
   style="stop-color:#C8767F"
   id="stop155" />
							<stop
   offset="0.9209"
   style="stop-color:#AD4F5E"
   id="stop157" />
							<stop
   offset="0.9414"
   style="stop-color:#973245"
   id="stop159" />
							<stop
   offset="0.9616"
   style="stop-color:#881D33"
   id="stop161" />
							<stop
   offset="0.9813"
   style="stop-color:#7F1028"
   id="stop163" />
							<stop
   offset="1"
   style="stop-color:#7C0C24"
   id="stop165" />
						</linearGradient>
						
							<rect
   x="588.901"
   y="164.468"
   fill="url(#SVGID_4_)"
   stroke="#000000"
   stroke-width="0.7089"
   stroke-linecap="round"
   stroke-linejoin="round"
   stroke-miterlimit="10"
   width="19.363"
   height="5.216"
   id="rect167" />
					</g>
					
						<linearGradient
   id="SVGID_5_"
   gradientUnits="userSpaceOnUse"
   x1="558.9629"
   y1="482.6213"
   x2="679.9619"
   y2="482.6213"
   gradientTransform="matrix(1 0 0 -1 -20.96 603.4009)">
						<stop
   offset="0.0056"
   style="stop-color:#FCCB00"
   id="stop170" />
						<stop
   offset="0.2528"
   style="stop-color:#FFFAD2"
   id="stop172" />
						<stop
   offset="0.2982"
   style="stop-color:#FAF1C1"
   id="stop174" />
						<stop
   offset="0.3885"
   style="stop-color:#EDD894"
   id="stop176" />
						<stop
   offset="0.5138"
   style="stop-color:#D8B14C"
   id="stop178" />
						<stop
   offset="0.5955"
   style="stop-color:#C9961A"
   id="stop180" />
						<stop
   offset="0.8142"
   style="stop-color:#E9CD76"
   id="stop182" />
						<stop
   offset="0.8708"
   style="stop-color:#F2DC8E"
   id="stop184" />
						<stop
   offset="1"
   style="stop-color:#FFFAD2"
   id="stop186" />
					</linearGradient>
					<path
   fill="url(#SVGID_5_)"
   stroke="#000000"
   stroke-width="0.7089"
   stroke-miterlimit="10"
   d="M658.782,160.642       c-4.095-1.125-5.507-1.321-8.861-2.106c3.132-33.908-17.916-62.405-32.076-68.9c4,7.304,13.348,41.33,12.107,65.187       c-2.176-0.321-7.399-1.001-10.383-1.369c0.867-19.475-8.908-59.811-14.473-63.636c0,4.521-0.009,62.362-0.009,62.362       l-2.546,0.021v0.035l-9.286,0.035c0,0,1.872-57.932,1.872-62.454c-5.564,3.826-19.03,44.238-18.161,63.713       c-2.984,0.368-8.355,1.146-10.531,1.468c-1.233-23.857,11.943-58.056,15.941-65.36c-14.16,6.497-35.854,34.728-32.726,68.636       c-3.359,0.785-7.512,1.829-11.607,2.949c-0.167-2.26-1.691-69.756,46.038-80.883h32.056       C663.867,91.464,658.957,158.383,658.782,160.642z"
   id="path188" />
				</g>
			</g>
			
				<linearGradient
   id="SVGID_6_"
   gradientUnits="userSpaceOnUse"
   x1="606.2578"
   y1="527.9661"
   x2="643.8494"
   y2="527.6976"
   gradientTransform="matrix(1 0 0 -1 -20.96 603.4009)">
				<stop
   offset="0.0056"
   style="stop-color:#FCCB00"
   id="stop191" />
				<stop
   offset="0.2528"
   style="stop-color:#FFFAD2"
   id="stop193" />
				<stop
   offset="0.2982"
   style="stop-color:#FAF1C1"
   id="stop195" />
				<stop
   offset="0.3885"
   style="stop-color:#EDD894"
   id="stop197" />
				<stop
   offset="0.5138"
   style="stop-color:#D8B14C"
   id="stop199" />
				<stop
   offset="0.5955"
   style="stop-color:#C9961A"
   id="stop201" />
				<stop
   offset="0.8142"
   style="stop-color:#E9CD76"
   id="stop203" />
				<stop
   offset="0.8708"
   style="stop-color:#F2DC8E"
   id="stop205" />
				<stop
   offset="1"
   style="stop-color:#FFFAD2"
   id="stop207" />
			</linearGradient>
			
				<rect
   x="584.446"
   y="70.751"
   fill="url(#SVGID_6_)"
   stroke="#000000"
   stroke-width="0.7089"
   stroke-miterlimit="10"
   width="31.694"
   height="9.585"
   id="rect209" />
			
				<radialGradient
   id="SVGID_7_"
   cx="621.4141"
   cy="527.8577"
   r="3.6064"
   gradientTransform="matrix(1 0 0 -1 -20.96 603.4009)"
   gradientUnits="userSpaceOnUse">
				<stop
   offset="0"
   style="stop-color:#F6B5B6"
   id="stop212" />
				<stop
   offset="0.1294"
   style="stop-color:#EC96A1"
   id="stop214" />
				<stop
   offset="0.4111"
   style="stop-color:#D2466D"
   id="stop216" />
				<stop
   offset="0.6073"
   style="stop-color:#BF0B47"
   id="stop218" />
				<stop
   offset="0.837"
   style="stop-color:#7C0C24"
   id="stop220" />
			</radialGradient>
			<path
   fill="url(#SVGID_7_)"
   stroke="#000000"
   stroke-width="0.3545"
   stroke-miterlimit="10"
   d="M600.295,71.766     c2.087,0,3.778,1.69,3.778,3.777c0,2.085-1.69,3.777-3.778,3.777c-2.092,0-3.783-1.692-3.783-3.777     C596.512,73.456,598.204,71.766,600.295,71.766z"
   id="path222" />
			
				<linearGradient
   id="SVGID_8_"
   gradientUnits="userSpaceOnUse"
   x1="609.4258"
   y1="548.6477"
   x2="633.0801"
   y2="548.6477"
   gradientTransform="matrix(1 0 0 -1 -20.96 603.4009)">
				<stop
   offset="0.0056"
   style="stop-color:#FCCB00"
   id="stop225" />
				<stop
   offset="0.2528"
   style="stop-color:#FFFAD2"
   id="stop227" />
				<stop
   offset="0.2982"
   style="stop-color:#FAF1C1"
   id="stop229" />
				<stop
   offset="0.3885"
   style="stop-color:#EDD894"
   id="stop231" />
				<stop
   offset="0.5138"
   style="stop-color:#D8B14C"
   id="stop233" />
				<stop
   offset="0.5955"
   style="stop-color:#C9961A"
   id="stop235" />
				<stop
   offset="0.8142"
   style="stop-color:#E9CD76"
   id="stop237" />
				<stop
   offset="0.8708"
   style="stop-color:#F2DC8E"
   id="stop239" />
				<stop
   offset="1"
   style="stop-color:#FFFAD2"
   id="stop241" />
			</linearGradient>
			<polygon
   fill="url(#SVGID_8_)"
   stroke="#000000"
   stroke-width="0.3545"
   stroke-miterlimit="10"
   points="612.12,48.493      612.12,52.667 602.384,52.667 602.384,70.751 598.204,70.751 598.204,52.667 588.465,52.667 588.465,48.493 598.204,48.493      598.204,38.756 602.384,38.756 602.384,48.493    "
   id="polygon243" />
		</g>
	</g>
</g>
<g
   id="Layer_2">
</g>
</svg>