<?xml version="1.0" encoding="UTF-8" standalone="no"?>
<!-- Created with Inkscape (http://www.inkscape.org/) -->
<svg
   xmlns:svg="http://www.w3.org/2000/svg"
   xmlns="http://www.w3.org/2000/svg"
   version="1.0"
   width="300"
   height="200"
   id="svg2">
  <defs
     id="defs4" />
  <g
     transform="translate(262.85715,-392.36218)"
     id="layer1">
    <g
       id="g2300">
      <rect
         width="300"
         height="200"
         x="-262.85715"
         y="392.36218"
         style="fill:#215b33;fill-opacity:1;stroke:none;stroke-width:1;stroke-miterlimit:4;stroke-dasharray:none;stroke-opacity:1"
         id="rect2170" />
      <rect
         width="300"
         height="100"
         x="-262.85715"
         y="442.36218"
         style="fill:#fcd116;fill-opacity:1;stroke:none;stroke-width:1;stroke-miterlimit:4;stroke-dasharray:none;stroke-opacity:1"
         id="rect2172" />
      <path
         d="M -198.10626,484.68992 L -188.70482,481.67221 L -178.96039,512.03015 L -188.36183,515.04786 L -198.10626,484.68992 M -161.15552,496.02193 L -151.98981,493.97248 C -151.55068,495.44425 -150.96072,496.52506 -150.21995,497.2149 C -149.01527,498.33026 -147.48215,498.7402 -145.62055,498.4447 C -144.23155,498.22423 -143.21587,497.73269 -142.5735,496.9701 C -141.91913,496.19093 -141.66012,495.37174 -141.79648,494.51254 C -141.92606,493.69632 -142.39998,493.02284 -143.21824,492.49208 C -144.03653,491.96135 -145.79423,491.61643 -148.49134,491.45731 C -152.91095,491.17525 -156.1562,490.38379 -158.22712,489.08295 C -160.31236,487.78441 -161.55046,485.90363 -161.94141,483.4406 C -162.19826,481.82248 -161.97494,480.22355 -161.27145,478.6438 C -160.55592,477.04751 -159.32498,475.69235 -157.57864,474.57833 C -155.82026,473.44778 -153.30146,472.62223 -150.02221,472.10168 C -145.99835,471.463 -142.81458,471.72837 -140.47089,472.89779 C -138.11518,474.05068 -136.47772,476.22774 -135.5585,479.42899 L -144.64511,481.42184 C -145.11359,480.04284 -145.79276,479.09364 -146.68262,478.57424 C -147.55819,478.05262 -148.68331,477.90089 -150.05801,478.11907 C -151.18928,478.29867 -152.00267,478.67735 -152.49817,479.25511 C -152.99596,479.81861 -153.1903,480.44403 -153.08119,481.13135 C -153.00164,481.63257 -152.69377,482.04614 -152.15756,482.37206 C -151.63342,482.71463 -150.48374,482.92851 -148.70853,483.01372 C -144.31009,483.25514 -141.11938,483.70291 -139.13641,484.35706 C -137.14143,484.99465 -135.61842,485.94203 -134.56736,487.1992 C -133.50204,488.45413 -132.83298,489.94078 -132.5602,491.65914 C -132.23973,493.67825 -132.50272,495.62847 -133.34915,497.50981 C -134.19563,499.39117 -135.55079,500.93487 -137.41461,502.14091 C -139.28076,503.33265 -141.73888,504.17058 -144.78898,504.65473 C -150.1446,505.50483 -154.01709,505.06251 -156.40645,503.32776 C -158.79582,501.59303 -160.37884,499.15775 -161.15552,496.02193 M -107.97226,469.67651 L -98.164952,470.61534 L -100.45503,494.53823 L -85.148706,496.00347 L -85.896867,503.819 L -111.0105,501.41494 L -107.97226,469.67651 M -60.701298,476.47806 L -50.82955,479.4481 L -50.567359,503.48778 L -37.188211,483.55228 L -27.608034,486.4346 L -48.123471,513.55755 L -58.349269,510.48098 L -60.701298,476.47806"
         style="font-size:44.54122925px"
         id="text2202" />
    </g>
  </g>
</svg>
