<?xml version="1.0" encoding="UTF-8" standalone="no"?>
<!-- Created with Inkscape (http://www.inkscape.org/) -->
<svg
   xmlns:dc="http://purl.org/dc/elements/1.1/"
   xmlns:cc="http://web.resource.org/cc/"
   xmlns:rdf="http://www.w3.org/1999/02/22-rdf-syntax-ns#"
   xmlns:svg="http://www.w3.org/2000/svg"
   xmlns="http://www.w3.org/2000/svg"
   xmlns:sodipodi="http://sodipodi.sourceforge.net/DTD/sodipodi-0.dtd"
   xmlns:inkscape="http://www.inkscape.org/namespaces/inkscape"
   width="657.81799"
   height="369.48447"
   id="svg3693"
   sodipodi:version="0.32"
   inkscape:version="0.45"
   version="1.0"
   sodipodi:docbase="C:\Dokumente und Einstellungen\Wassily\Desktop"
   sodipodi:docname="Karaganda_p.svg"
   inkscape:output_extension="org.inkscape.output.svg.inkscape"
   sodipodi:modified="true">
  <defs
     id="defs3695" />
  <sodipodi:namedview
     id="base"
     pagecolor="#ffffff"
     bordercolor="#666666"
     borderopacity="1.0"
     gridtolerance="10000"
     guidetolerance="10"
     objecttolerance="10"
     inkscape:pageopacity="0.0"
     inkscape:pageshadow="2"
     inkscape:zoom="1.4831476"
     inkscape:cx="339.3631"
     inkscape:cy="196.12568"
     inkscape:document-units="px"
     inkscape:current-layer="layer1"
     inkscape:window-width="1280"
     inkscape:window-height="744"
     inkscape:window-x="-4"
     inkscape:window-y="-4"
     showguides="true"
     inkscape:guide-bbox="true" />
  <metadata
     id="metadata3698">
    <rdf:RDF>
      <cc:Work
         rdf:about="">
        <dc:format>image/svg+xml</dc:format>
        <dc:type
           rdf:resource="http://purl.org/dc/dcmitype/StillImage" />
      </cc:Work>
    </rdf:RDF>
  </metadata>
  <g
     inkscape:label="Layer 1"
     inkscape:groupmode="layer"
     id="layer1"
     transform="translate(-36.80527,-304.7628)">
    <path
       style="fill:#ffaaaa;fill-opacity:1;fill-rule:evenodd;stroke:none;stroke-width:1px;stroke-linecap:butt;stroke-linejoin:miter;stroke-opacity:1"
       d="M 352.62842,351.27994 C 352.43137,351.5598 352.51114,343.77548 353.30267,339.81783 C 353.91907,336.73582 353.30267,332.85895 353.30267,329.7042 C 353.30267,325.80884 354.65115,321.76118 354.65115,317.56785 C 354.65115,313.07291 354.65115,308.57796 354.65115,304.08302 C 354.65115,300.26232 354.65115,296.44161 354.65115,292.62091 C 354.65115,290.56354 351.21668,286.91788 349.93146,285.20425 C 348.17946,282.86825 349.25721,277.30485 349.25721,274.41638 C 349.25721,271.04517 349.25721,267.67397 349.25721,264.30276 C 349.25721,260.93155 349.25721,257.56034 349.25721,254.18913 C 349.25721,250.6985 348.58297,247.74189 348.58297,244.07551 C 348.58297,237.69357 355.0359,237.40546 360.71932,235.9846 C 365.07162,234.89653 370.19057,236.53037 374.20416,237.33309 C 378.97113,238.28648 384.0305,238.00733 389.03748,238.00733 C 393.53242,238.00733 398.02737,238.00733 402.52231,238.00733 C 405.21928,238.00733 407.91625,238.00733 410.61321,238.00733 C 412.95454,235.666 435.33531,238.68157 438.93136,238.68157 C 447.26205,238.68157 453.91754,239.8772 459.15862,234.63612 C 461.64983,232.14491 461.18134,228.3792 461.18134,224.5225 C 461.18134,221.15129 461.18134,217.78008 461.18134,214.40887 C 461.18134,209.96376 464.0794,208.24015 467.92376,206.31797 C 470.79985,204.87992 476.94225,206.42319 480.06011,205.64373 C 482.73778,204.97431 486.77764,204.31391 489.49949,202.27252 C 492.01532,200.38565 494.88266,200.24979 498.26464,200.24979 C 502.31009,200.24979 506.35554,200.24979 510.40099,200.24979 C 514.67119,200.24979 518.94138,200.24979 523.21158,200.24979 C 524.95323,200.24979 528.60491,203.78941 530.62824,204.29524 C 534.63546,205.29705 538.20894,205.06791 541.41611,206.99221 C 542.27797,207.50933 543.21408,207.8912 544.11307,208.34069 C 549.151,210.85966 551.74729,210.35803 556.24943,213.73463 C 559.4885,216.16393 563.17903,218.21079 566.36305,219.8028 C 568.49518,220.86887 571.66128,228.6658 572.43123,230.59067 C 573.52004,233.3127 573.10547,236.87658 573.10547,240.03005 C 573.10547,243.40126 573.10547,246.77247 573.10547,250.14368 C 573.10547,253.45742 573.1971,257.25262 573.77971,259.58307 C 574.60663,262.89075 575.12819,265.42513 575.12819,269.69669 C 575.12819,273.0679 575.12819,276.43911 575.12819,279.81032 C 575.12819,284.55575 574.7389,286.26779 571.75698,289.2497 C 570.60745,290.39924 563.83073,290.85298 562.99184,291.27243 C 562.05846,291.73912 554.29194,286.92248 553.55246,286.55273 C 550.53641,285.04471 547.78085,285.20425 544.11307,285.20425 C 540.32414,285.20425 535.10892,286.55273 530.62824,286.55273 C 525.65169,286.55273 524.14298,285.03742 521.18886,283.85577 C 517.73558,282.47446 510.73479,283.18153 507.02978,283.18153 C 502.96741,283.18153 501.18123,281.1588 496.91615,281.1588 C 493.09643,281.1588 490.94414,280.48456 486.80253,280.48456 C 482.75815,280.48456 477.6708,280.40764 474.66618,281.1588 C 470.44103,282.21509 468.74521,282.09656 465.22679,283.85577 C 463.25355,284.84239 460.3657,288.68151 457.81013,290.59818 C 454.73926,292.90134 450.19338,293.96939 446.34802,293.96939 C 442.34694,293.96939 440.30408,294.64363 436.2344,294.64363 C 432.04284,294.64363 427.22708,295.99212 422.74956,295.99212 C 418.60839,295.99212 414.78857,296.6014 411.9617,298.01484 C 409.41168,299.28985 407.32542,302.50342 405.21928,304.08302 C 400.92861,307.30102 403.19655,312.1781 403.19655,316.89361 C 403.19655,321.7802 403.18905,323.64353 400.49959,326.333 C 398.33755,328.49503 393.2435,327.68148 389.71172,327.68148 C 386.01157,327.68148 385.02975,330.97724 383.64354,333.74966 C 381.97804,337.08066 380.70293,338.95664 378.92385,342.5148 C 376.44058,347.48134 375.55264,347.34925 375.55264,353.30267 C 375.55264,357.39796 372.72198,358.15606 370.15871,360.71932 C 369.15113,361.7269 361.64714,360.71932 360.04508,360.71932 C 357.92756,360.71932 353.22888,352.78109 352.62842,351.27994 z "
       id="path5117"
       transform="translate(36.80527,304.7628)" />
    <path
       style="fill:#fdd99b;fill-opacity:1;fill-rule:evenodd;stroke:none;stroke-width:1px;stroke-linecap:butt;stroke-linejoin:round;stroke-opacity:1"
       d="M 259.58307,108.55292 C 259.58307,107.87868 259.58307,107.20443 259.58307,106.53019 C 259.58307,102.27454 250.71207,92.443612 248.7952,87.651425 C 248.42191,86.718212 247.89621,85.853447 247.44671,84.954458 C 245.22068,80.502382 244.74975,78.996602 244.74975,73.492348 C 244.74975,65.725854 249.60637,61.756372 252.84065,55.287822 C 254.24179,52.485535 256.18768,50.616476 257.56034,47.871163 C 260.06291,42.866032 261.79289,43.057922 266.99972,40.454504 C 272.06117,37.923779 272.82834,36.409053 279.13608,36.409053 C 283.43747,36.409053 288.07752,36.116009 291.94667,37.083295 C 298.00505,38.59789 303.46666,39.809203 308.80271,42.477229 C 316.63983,46.395789 327.96101,48.446727 336.44662,50.56813 C 348.04644,53.468083 362.33405,51.242371 374.20416,51.242371 C 380.94658,51.242371 387.68899,51.242371 394.43141,51.242371 C 400.49959,51.242371 406.56776,51.242371 412.63594,51.242371 C 420.23917,51.242371 423.64591,51.075789 428.81774,47.196921 C 432.79622,44.213056 441.06517,45.174196 445.67378,45.174196 L 463.87831,21.575735 C 467.93,23.19641 470.76307,16.110628 474.66618,14.159076 C 484.42689,9.2787173 485.19485,9.8544344 490.84798,15.50756 C 492.74668,17.406266 491.52222,25.66014 491.52222,28.318153 C 491.52222,32.363603 491.52222,36.409053 491.52222,40.454504 C 491.52222,46.153878 490.8372,49.241192 488.82525,53.265096 C 488.37576,54.164085 487.92626,55.063074 487.47677,55.962063 C 485.77361,59.368378 486.80253,65.030027 486.80253,68.772656 C 486.80253,71.346542 488.73274,75.145007 489.49949,78.21204 C 490.61084,82.657419 499.60168,83.605974 502.98433,83.605974 C 511.2452,83.605974 517.99174,87.651425 526.58279,87.651425 C 532.47018,87.651425 538.08011,88.999908 543.43883,88.999908 C 543.43883,90.252151 556.50899,87.858762 556.92367,87.651425 C 559.58742,86.319549 564.27169,84.954458 567.71153,84.954458 C 571.75698,84.954458 575.80244,84.954458 579.84789,84.954458 C 584.98046,84.954458 590.48936,84.412177 595.35545,85.628699 C 600.8194,86.994688 602.09786,90.023152 602.09786,95.068084 C 602.09786,98.996184 595.72946,97.671548 592.65848,98.439292 C 588.55576,99.464971 584.26474,99.602073 581.19637,101.13626 C 577.64716,102.91086 576.81582,104.49936 575.80244,108.55292 C 575.26058,110.72035 566.65449,106.14739 572.43123,111.92413 C 573.75329,113.24619 579.59015,115.50359 581.87061,116.64382 C 585.10187,118.25945 588.44972,117.9923 592.65848,117.9923 C 598.72665,117.9923 604.79483,117.9923 610.863,117.9923 C 618.14741,117.9923 625.22695,118.66654 632.43874,118.66654 C 637.65676,118.66654 643.90085,116.60792 643.90085,122.71199 C 643.90085,126.0832 643.90085,129.45441 643.90085,132.82562 C 643.90085,137.69321 642.94392,138.78494 641.20388,142.265 C 639.07343,146.52592 636.48419,147.49925 636.48419,152.37863 C 636.48419,156.2387 637.15843,157.9638 637.15843,161.81801 C 637.15843,165.41397 637.15843,169.00993 637.15843,172.60588 C 637.15843,174.37757 628.18658,177.99982 626.37056,177.99982 C 622.77461,177.99982 617.83017,173.95437 614.23421,173.95437 C 610.63826,173.95437 611.76199,181.37103 608.16604,181.37103 C 607.77857,181.37103 603.34885,184.25474 603.44635,184.74223 C 604.13683,188.19464 605.46907,190.5722 605.46907,194.85586 C 605.46907,196.99872 601.69932,200.64833 600.74938,201.59828 C 597.46486,204.88279 595.03512,202.87956 594.00696,206.99221 C 593.85042,207.61836 597.15929,214.20757 597.37817,215.08311 C 598.39646,219.15627 595.344,220.98559 591.98424,221.82553 C 589.45804,222.45708 586.54555,222.49977 583.89334,222.49977 C 580.102,223.44761 576.54486,223.84825 572.43123,223.84825 C 567.71153,223.84825 562.99184,223.84825 558.27215,223.84825 C 553.77377,223.84825 549.04395,224.23817 544.78732,223.17401 C 539.07203,221.74519 534.8834,218.55917 530.62824,216.43159 C 527.15989,214.69742 525.64923,211.45259 523.88582,209.68918 C 521.49382,207.29718 521.58593,204.01808 518.49189,200.92403 C 515.85205,198.2842 516.68813,201.59828 511.74947,201.59828 C 507.84392,201.59828 505.32789,202.27252 501.63585,202.27252 C 499.25274,202.27252 493.15869,200.24979 489.49949,200.24979 C 487.50017,200.24979 482.24264,201.72689 480.06011,202.27252 C 475.76582,203.34609 475.07023,204.56543 472.64345,206.99221 C 470.49326,209.1424 469.66883,211.98955 467.92376,213.73463 C 466.20369,215.45469 464.68136,218.87095 463.87831,220.47704 C 462.81582,222.60203 463.87831,228.15225 463.87831,230.59067 C 463.87831,232.34442 461.18134,236.54815 461.18134,240.03005 C 461.18134,244.24925 456.8439,242.72702 453.09044,242.72702 C 449.00428,242.72702 444.81547,242.43592 440.95409,243.40126 C 440.0551,243.62601 439.15611,243.85076 438.25712,244.07551 C 433.5052,245.26349 430.96482,246.37317 427.46926,248.12096 C 419.98551,251.86283 420.39026,251.49216 411.9617,251.49216 C 405.12112,251.49216 401.69855,249.46944 395.77989,249.46944 C 390.49169,249.46944 383.76296,249.48934 379.59809,248.7952 C 376.41185,248.26416 374.52313,246.77247 370.15871,246.77247 C 365.66376,246.77247 361.16882,246.77247 356.67387,246.77247 C 349.71907,246.77247 353.18254,244.14913 354.65115,251.49216 C 355.4093,255.28292 354.7947,257.84743 355.99963,260.25731 C 357.54431,263.34667 357.34812,266.62151 357.34812,270.37093 C 357.34812,274.0466 358.02236,276.987 358.02236,280.48456 C 358.02236,283.85577 358.02236,287.22698 358.02236,290.59818 C 358.02236,293.99923 350.95072,290.77069 347.90873,289.2497 C 344.2289,287.40979 341.94114,288.0018 339.14359,285.20425 C 336.9165,282.97716 332.87243,280.95582 331.05269,279.13608 C 328.99518,277.07857 328.30046,273.52109 327.68148,271.04517 C 326.90213,267.92779 324.98451,267.17451 324.98451,262.95427 C 324.70657,261.8425 324.53502,260.7068 324.31027,259.58307 C 323.77773,256.92034 326.48752,252.06801 327.00724,249.46944 C 327.70884,245.96143 327.00724,241.58737 327.00724,238.00733 C 327.00724,233.96188 327.00724,229.91643 327.00724,225.87098 C 327.00724,221.83037 326.24639,220.39044 324.31027,218.45432 C 321.28792,215.43197 319.83265,213.91618 316.89361,211.7119 C 313.45433,209.13244 311.79981,207.59247 310.15119,204.29524 C 308.88892,201.7707 303.97526,196.48758 300.71181,194.85586 C 291.4547,190.2273 282.57766,183.07138 280.48456,172.60588 C 279.1645,166.00557 276.07964,158.40211 273.0679,152.37863 C 270.01585,146.27452 269.20482,140.48544 264.977,134.84835 C 260.98024,129.51933 255.53761,127.76217 255.53761,120.68927 C 255.53761,117.24416 255.5783,113.78411 256.21186,111.24989 C 256.87886,108.58186 255.78443,108.55292 259.58307,108.55292 z "
       id="path4146"
       transform="translate(36.80527,304.7628)"
       sodipodi:nodetypes="csssssssssssssssccsssssssssscsssssssssssssssssssssssssssscssssssssssssssssssssssssssssssssscsssssssssssssc" />
    <g
       id="g3171"
       style="fill:#07c44c;fill-opacity:1;stroke:none">
      <path
         transform="translate(36.80527,304.7628)"
         id="path3163"
         d="M 122.71199,66.075689 C 122.71199,68.772656 122.71199,71.469623 122.71199,74.16659 C 122.71199,77.537799 122.71199,80.909007 122.71199,84.280216 C 122.71199,87.651425 122.71199,91.022633 122.71199,94.393842 C 122.71199,97.989798 122.71199,101.58575 122.71199,105.18171 C 122.71199,109.25141 122.82157,113.50857 122.03775,116.64382 C 121.26546,119.73298 121.36351,123.27175 121.36351,126.75744 C 121.36351,130.12865 121.36351,133.49986 121.36351,136.87107 C 121.36351,142.10204 118.52359,140.91652 113.94685,140.91652 C 112.5632,140.91652 104.86944,141.69018 104.50747,140.24228 C 104.13937,138.76987 104.80536,132.74717 103.83323,130.8029 C 102.25038,127.63719 97.869592,126.75744 94.393842,126.75744 C 91.43978,126.75744 85.063873,125.86437 83.605974,128.78017 C 81.052107,133.8879 81.028061,132.38949 83.605974,137.54531 C 84.77515,139.88366 84.954458,142.4108 84.954458,146.31045 C 84.954458,149.35901 85.689492,153.48394 84.954458,156.42408 C 83.66435,161.58451 81.469369,162.49226 75.515073,162.49226 C 70.997781,162.49226 66.910031,163.1665 62.704481,163.1665 C 56.585087,163.1665 48.626074,163.08583 44.499954,167.21195 C 42.096114,169.61579 39.780262,171.4187 39.780262,175.30285 C 39.780262,179.39335 39.780262,185.73737 39.780262,186.09072 C 40.903998,187.4392 42.027734,188.78768 43.151471,190.13617 C 46.814356,194.53163 56.959817,192.83313 64.727206,192.83313 C 68.772656,192.83313 72.818107,192.83313 76.863557,192.83313 C 81.019317,192.83313 83.087785,194.85586 86.977183,194.85586 C 91.178832,194.85586 93.929345,197.94238 97.76505,198.90131 C 101.09863,199.7347 101.00768,203.25174 105.18171,204.29524 C 109.25792,205.3143 112.74013,209.01494 117.31806,209.01494 C 120.9643,209.01494 124.32937,209.14938 126.75744,210.36342 C 129.87216,211.92077 132.83194,212.05218 136.19683,213.73463 C 139.89866,215.58554 144.03625,217.42291 146.31045,219.12856 C 149.93062,221.84369 145.28536,224.43478 151.03015,225.87098 C 154.28006,226.68346 157.84866,227.91273 160.46953,228.56795 C 164.38253,229.5462 169.36617,232.0049 173.28012,233.96188 C 178.26901,236.45632 184.83497,238.68157 190.13617,238.68157 C 194.3294,238.68157 199.75686,241.46069 204.29524,240.7043 C 204.51999,239.80531 204.74474,238.90632 204.96949,238.00733 C 205.74798,234.89336 204.96949,230.4582 204.96949,227.21946 C 204.96949,222.75167 205.427,222.04827 209.01494,221.15129 C 212.09847,220.3804 215.64249,220.47704 219.12856,220.47704 C 222.98393,220.47704 226.53621,221.14903 229.24219,221.82553 C 233.5471,222.90176 235.6532,223.19689 236.65885,227.21946 C 237.11721,229.05291 243.06132,230.84281 244.74975,231.26491 C 247.76709,232.01925 252.46142,235.45787 254.86337,236.65885 C 258.57569,238.51501 259.75121,238.89217 264.30276,240.03005 C 269.49289,241.32759 269.95676,241.50857 275.09062,244.07551 C 281.09234,247.07636 285.23168,251.91317 291.27243,255.53761 C 295.1968,257.89224 295.118,259.58307 300.71181,259.58307 C 305.26806,259.58307 309.57135,260.3045 313.5224,262.28003 C 317.07748,264.05757 321.28533,263.37796 324.98451,264.30276 C 327.71054,264.98426 326.333,264.4253 326.333,258.90882 C 326.333,254.34038 327.68148,253.59546 327.68148,249.46944 C 327.68148,248.9231 320.12376,245.01634 319.59058,244.74975 C 315.92928,242.9191 314.82761,241.3569 310.82544,239.35581 C 306.97432,237.43025 305.18369,233.03982 303.40878,231.26491 C 300.94369,228.79982 297.99911,226.52948 295.99212,224.5225 C 293.81324,222.34362 289.58103,220.64271 287.90122,219.8028 C 284.50822,218.1063 281.27457,219.18644 277.11335,217.10584 C 274.08044,215.58938 271.89894,214.58839 269.69669,212.38614 C 266.76867,209.45812 264.98935,208.85564 261.60579,206.31797 C 257.3031,203.09095 256.23992,203.67713 254.18913,199.57555 C 252.4515,196.10028 249.92123,195.75255 253.51489,192.15889 C 255.45363,190.22015 256.39101,188.36099 259.58307,186.76496 C 261.91973,185.59663 267.7127,186.76496 270.37093,186.76496 C 276.03791,186.76496 276.59761,188.60236 279.13608,192.83313 C 280.53367,195.16246 279.37239,200.04818 280.48456,202.27252 C 281.4876,204.27861 293.86515,208.98887 296.66636,209.68918 C 302.26013,211.08762 304.39257,213.73463 310.82544,213.73463 C 315.70958,213.73463 314.19664,210.62905 314.19664,206.31797 C 314.19664,202.94676 314.19664,199.57555 314.19664,196.20434 C 314.19664,191.87233 312.48126,191.4251 310.82544,188.11344 C 309.21158,184.88574 307.6865,182.97435 306.77999,179.3483 C 306.24647,177.21423 300.43808,174.35488 299.36333,173.28012 C 294.36418,168.28098 295.31788,171.23702 295.31788,165.18922 C 295.31788,162.83112 289.68341,159.55476 288.57546,158.44681 C 285.92988,155.80123 284.81771,154.68906 282.50728,152.37863 C 279.20546,149.0768 277.24894,147.93012 275.09062,143.61349 C 273.42838,140.289 274.56269,136.57845 275.76487,134.1741 C 277.29321,131.11742 281.1559,130.1301 283.85577,128.78017 C 284.75476,128.33068 285.65375,127.88118 286.55273,127.43169 C 287.36096,127.02757 280.71851,117.55201 279.81032,116.64382 C 276.85567,113.68917 274.49673,108.87429 273.74214,105.85595 C 273.11579,103.35054 275.91716,99.48318 277.11335,97.090809 C 279.51027,92.296961 285.25104,92.277534 287.22698,88.325666 C 289.03755,84.704527 291.6456,83.10841 293.29515,80.909007 C 295.42073,78.074899 293.57294,73.373679 292.62091,71.469623 C 291.6885,69.604808 281.6421,72.239334 280.48456,72.818107 C 277.61179,74.254491 274.52088,75.436704 271.71942,77.537799 C 269.75182,79.013498 265.94671,80.424154 263.62852,81.583249 C 259.99041,83.402304 260.53076,85.628699 255.53761,85.628699 C 253.12837,85.628699 247.8513,87.213156 246.09823,87.651425 C 242.98452,88.429852 242.21269,85.470585 240.7043,85.628699 C 233.36692,86.397825 235.66195,83.605974 232.61339,83.605974 C 227.66895,83.605974 221.37603,83.605974 216.43159,83.605974 C 212.11972,83.605974 206.83881,83.904746 202.94676,82.931733 C 198.58079,81.840241 190.36673,79.922444 186.09072,78.21204 C 179.20338,75.457107 170.42356,76.703963 165.18922,71.469623 C 160.54437,66.824772 154.18735,65.631564 148.33318,62.704481 C 143.88416,60.47997 140.65597,60.681755 135.52259,60.681755 C 131.56054,60.681755 129.60719,62.5517 127.43169,64.727206 C 126.1929,65.965994 124.40409,66.075689 122.71199,66.075689 z "
         style="fill:#ccff99;fill-opacity:1;fill-rule:evenodd;stroke:none;stroke-width:1px;stroke-linecap:butt;stroke-linejoin:miter;stroke-opacity:1"
         sodipodi:nodetypes="cssssssssssssssssssscsssssssssssssscssssssssssssssssssssssssssssssssssssssssssssssssssssssssssssssssc" />
      <path
         transform="translate(36.80527,304.7628)"
         id="path3165"
         d="M 53.939338,120.68927 C 53.939338,118.17087 52.098149,114.41365 49.219646,110.57564 C 46.981607,107.59159 45.848437,104.7314 45.848437,101.13626 C 45.848437,99.003406 55.524045,99.113534 57.310547,99.113534 C 60.53134,99.113534 64.549469,99.23766 66.749931,99.787776 C 68.483713,100.22122 72.523653,101.13626 76.189315,101.13626 C 79.52456,101.13626 79.560524,104.36497 79.560524,107.87868 C 79.560524,112.73525 78.89862,113.60356 75.515073,115.29534 C 71.866813,117.11947 69.697983,119.82671 66.749931,122.03775 C 63.742313,124.29347 56.713188,122.35358 53.939338,120.68927 z "
         style="fill:#ccff99;fill-opacity:1;fill-rule:evenodd;stroke:none;stroke-width:1px;stroke-linecap:butt;stroke-linejoin:miter;stroke-opacity:1" />
      <path
         sodipodi:nodetypes="csssc"
         transform="translate(36.80527,304.7628)"
         id="path3167"
         d="M 133.49986,256.8861 C 137.80429,256.16869 143.42543,255.15348 147.65894,256.21186 C 153.12764,257.57903 149.41192,248.92995 149.00742,248.12096 C 147.70134,245.5088 141.68799,245.42399 138.8938,245.42399 C 137.58331,245.42399 134.1741,255.76236 133.49986,256.8861 z "
         style="fill:#ccff99;fill-opacity:1;fill-rule:evenodd;stroke:none;stroke-width:1px;stroke-linecap:butt;stroke-linejoin:miter;stroke-opacity:1" />
      <path
         sodipodi:nodetypes="cssssc"
         transform="translate(36.80527,304.7628)"
         id="path3169"
         d="M 94.393842,262.95427 C 91.199584,262.95427 95.883885,267.10589 98.439292,269.02245 C 101.8317,271.56676 106.86408,269.52975 110.57564,267.67397 C 114.23904,265.84227 112.19969,260.1342 111.24989,258.23458 C 109.49812,254.73105 102.24753,256.1026 99.113534,256.8861 C 95.824792,257.70828 97.422457,259.92566 94.393842,262.95427 z "
         style="fill:#ccff99;fill-opacity:1;fill-rule:evenodd;stroke:none;stroke-width:1px;stroke-linecap:butt;stroke-linejoin:miter;stroke-opacity:1" />
    </g>
    <path
       style="fill:none;fill-opacity:0.75;fill-rule:evenodd;stroke:#b1b4f9;stroke-width:1px;stroke-linecap:butt;stroke-linejoin:miter;stroke-opacity:1"
       d="M 674.5352,445.8286 L 669.31082,447.6725 L 664.70108,451.3603 L 661.3206,455.35541 L 657.32548,456.89199 L 654.55964,456.58468 L 639.50114,447.36519 L 641.65235,443.67739 L 639.19382,442.14081 L 637.96455,439.68228 L 637.34992,436.60911 L 637.0426,434.15058 L 637.0426,431.69205 L 640.11577,429.84815 L 645.03283,426.16036 L 646.56941,424.31646 L 644.72551,421.85793 L 640.42308,419.09208 L 631.81823,416.32623 L 625.36458,414.78965 L 621.67679,411.71649 L 615.53046,409.87259 L 610.30608,405.87748 L 606.00365,408.02869 L 602.00854,407.10674 L 591.8671,406.18479 L 585.41345,407.10674 L 581.72566,408.64332 L 577.11591,406.49211 L 571.2769,406.49211 L 566.05252,404.03358 L 562.05741,404.95553 L 558.67693,405.57016 L 552.22329,402.18968 L 548.84281,400.03846 L 544.23306,393.2775 L 542.08185,391.12629 L 539.316,388.66776 L 535.93552,386.82386 L 534.39894,386.20923 L 533.47699,379.14095 L 531.01846,378.219 L 527.33066,377.60437 L 524.56481,374.53121 L 524.87213,370.22878 L 522.10628,366.54098 L 519.34044,362.85318 L 516.26727,357.93612 L 510.12094,353.94101 L 506.12583,353.32638 L 500.28682,345.95078 L 496.29171,342.5703 L 493.52586,339.18982 L 493.52586,337.03861"
       id="path8316" />
    <path
       style="fill:none;fill-opacity:0.75;fill-rule:evenodd;stroke:#b1b4f9;stroke-width:1px;stroke-linecap:butt;stroke-linejoin:miter;stroke-opacity:1"
       d="M 409.62849,650.19399 L 404.71143,646.81351 L 399.48705,646.19888 L 397.33584,643.74034 L 399.17974,638.51597 L 399.48705,631.75501 L 399.48705,623.45746 L 402.56022,618.84772 L 402.86753,609.62823 L 400.71632,605.01848 L 397.95047,601.02337 L 394.56999,598.56484 L 390.57488,591.80388 L 388.73098,589.34535 L 388.73098,585.35023 L 380.12612,577.05269 L 372.44321,577.66733 L 371.82858,573.67221 L 365.37493,566.29662 L 359.22861,560.76493 L 354.92618,557.38445 L 350.00912,553.69665 L 342.94084,553.38933 L 334.02866,546.32106 L 332.18477,542.94058 L 327.2677,540.48204 L 327.2677,536.17962 L 322.04333,534.95035 L 315.897,537.40888 L 311.59457,534.33572 L 308.21409,534.33572 L 306.98482,532.49182 L 295.3068,533.72108 L 292.54096,531.56987 L 293.77022,528.49671 L 291.31169,524.19428 L 285.78,524.19428 L 280.86293,524.50159 L 280.86293,522.6577"
       id="path9191" />
    <path
       style="fill:none;fill-opacity:1;fill-rule:evenodd;stroke:#8a8a8a;stroke-width:3;stroke-linecap:round;stroke-linejoin:round;stroke-miterlimit:4;stroke-dasharray:none;stroke-dashoffset:0;stroke-opacity:1;opacity:1"
       d="M 292.90936,588.30311 L 279.36263,569.8565 L 278.78617,565.24484 L 238.72242,532.67503 L 193.47057,541.61011 L 181.6532,628.36686 L 172.14167,628.36686 L 168.97115,622.02584 L 164.93596,614.24367 L 165.22418,609.92024 L 153.40682,599.25579 L 138.70717,598.96756 L 133.80729,599.54402 L 127.75449,603.00276 L 124.58398,605.59682 L 122.56638,606.4615 L 118.81941,609.34379 L 116.51359,611.36139 L 87.11429,536.13377 L 91.14949,490.30546 L 86.53783,486.27026 L 79.90858,480.50569 L 78.75567,478.19987 L 79.90858,476.18227 L 82.50264,476.4705 L 84.80846,479.06455 L 86.82606,479.35278 L 89.13189,478.19987 L 87.97898,475.89404 L 86.53783,473.29998 L 85.67315,469.55302 L 84.52023,461.48262 L 81.92618,458.60034 L 81.92618,454.27691 L 79.62035,451.68285 L 77.60275,450.24171 L 73.56756,450.24171 L 70.39704,446.49474 L 68.9559,448.51234 L 67.80299,449.95348 L 64.9207,447.93589 L 64.9207,443.90069 L 64.9207,441.88309 L 66.9383,440.44195 L 66.9383,435.83029 L 58.86791,429.48927 L 66.36185,419.11305 L 70.9735,417.96013 L 72.70287,414.50139 L 72.41464,412.19556 L 69.53236,410.17797 L 74.14401,398.07237 L 79.0439,398.07237 L 81.63795,396.05477 L 81.92618,391.44312 L 83.94378,388.84907 L 87.40252,387.40792 L 89.70835,389.13729 L 93.16709,396.63123 L 93.74354,402.10757 L 96.62583,405.27808 L 102.10217,404.12517 L 105.27268,404.12517 L 105.56091,400.08997 L 103.54331,396.91946 L 103.83154,387.11969 L 107.86673,388.27261 L 111.90193,385.96678 L 117.09004,385.1021 L 117.09004,379.0493 L 120.26055,379.0493 L 124.29575,380.49044 L 127.46626,378.18461 L 132.07792,378.18461 L 134.38375,375.0141 L 137.84249,372.42005 L 139.57186,371.26713 L 141.013,368.38485 L 141.87768,370.40245 L 147.0658,370.40245 L 149.65985,376.74347 L 154.84796,376.74347 L 158.3067,373.57296 L 163.78304,372.9965 L 166.08887,379.91399 L 175.88863,381.35513 L 179.05915,382.21981 L 180.78852,384.23741 L 181.07675,388.84907 L 184.82371,390.86666 L 187.706,394.03718 L 187.99423,397.78415 L 191.45297,399.51352 L 189.43537,404.4134 L 190.30005,407.00745 L 193.47057,407.29568 L 194.33525,404.70163 L 194.33525,401.24289 L 192.02942,398.64883 L 194.62348,395.19009 L 197.21754,397.20769 L 200.96451,400.66643 L 208.17021,409.60151 L 215.66415,406.431 L 217.1053,402.97226 L 221.14049,402.3958 L 223.44632,399.51352 L 232.66963,400.3782 L 235.26368,404.98985 L 239.58711,404.98985 L 242.46939,400.95466 L 248.52219,401.53111 L 253.42207,402.97226 L 253.7103,408.73682 L 258.89841,414.21316 L 264.37475,413.92494 L 267.54526,416.51899 L 270.71578,418.24836 L 273.30983,415.07785 L 274.17452,411.33088 L 277.34503,410.75442 L 278.49794,414.21316 L 284.55074,414.78962 L 292.33291,413.92494 L 296.65633,411.61911 L 298.96216,402.97226 L 299.25039,399.80174 L 295.50342,396.63123 L 290.89176,396.63123 L 290.02708,393.46072 L 283.39783,393.46072 L 282.53314,391.15489 L 283.68605,389.13729 L 279.0744,385.96678 L 279.0744,384.23741 L 283.39783,381.35513 L 289.45062,379.62576 L 293.19759,376.16702 L 292.33291,371.55536 L 288.87417,367.23194 L 292.33291,363.77319 L 295.50342,360.60268 L 298.3857,360.60268 L 302.70913,362.04382 L 307.60901,362.04382 L 309.91484,360.31445 L 310.20307,358.00863 L 306.74433,356.27926 L 301.55621,354.26166 L 296.07988,353.6852 L 296.07988,350.80292 L 299.25039,350.22646 L 303.86204,347.92063 L 302.13267,346.47949 L 297.80925,346.47949 L 294.35051,345.03835 L 296.94456,342.44429 L 298.09747,340.13847 L 295.50342,338.4091 L 297.80925,335.52681 L 301.55621,335.23858 L 303.86204,336.96795 L 308.18547,337.25618 L 314.23826,337.25618 L 315.96763,337.25618 L 325.47917,336.3915 L 328.93791,334.66213 L 336.72008,333.50921 L 340.75528,331.20339 L 353.72555,332.3563 L 355.45492,331.49161 L 355.45492,327.45642 L 360.06658,325.15059 L 365.54292,323.42122 L 369.57812,324.2859 L 380.24257,321.11539 L 392.34816,316.21551 L 396.95981,316.21551 L 397.53627,313.045 L 401.57147,309.29803 L 406.18312,306.41574 L 408.77718,305.26283 L 415.1182,306.9922 L 424.62974,311.31563 L 427.80025,307.56866 L 432.41191,306.70397 L 435.29419,312.18031 L 435.87065,318.52134 L 439.32939,322.26831 L 438.4647,326.59173 L 438.4647,329.47402 L 435.87065,331.49161 L 439.61762,336.10327 L 442.78813,332.93276 L 444.5175,335.52681 L 447.97624,332.06807 L 452.58789,329.18579 L 456.62309,333.50921 L 456.62309,338.69732 L 459.21715,338.12087 L 460.08183,335.81504 L 460.65829,332.93276 L 464.40526,332.93276 L 466.99931,336.3915 L 471.32274,336.96795 L 473.9168,334.08567 L 477.08731,336.96795 L 476.22262,339.56201 L 473.05211,339.56201 L 470.45805,343.02075 L 469.01691,347.05595 L 472.18742,348.49709 L 475.35794,346.19126 L 479.10491,343.88544 L 482.85188,346.19126 L 485.44593,346.76772 L 486.59884,341.86784 L 491.49873,338.98555 L 496.11038,336.96795 L 499.28089,331.20339 L 503.31609,330.3387 L 508.21597,326.59173 L 508.5042,324.2859 L 511.96294,324.2859 L 515.70991,321.69185 L 518.01574,320.53894 L 518.30397,324.2859 L 516.5746,328.03287 L 513.69231,328.03287 L 511.67472,328.03287 L 514.557,332.93276 L 527.81551,340.13847 L 533.58007,344.46189 L 540.49755,352.24406 L 576.23788,400.08997 L 579.40839,396.91946 L 582.00244,394.03718 L 581.13776,390.57844 L 581.42599,388.27261 L 584.5965,386.25501 L 590.07284,387.11969 L 591.22575,389.42552 L 592.09044,392.30781 L 596.12563,393.17249 L 597.56678,396.63123 L 602.75489,396.63123 L 606.21363,393.74895 L 611.68997,394.03718 L 616.01339,389.13729 L 620.04859,389.13729 L 622.64265,385.39032 L 627.54253,385.39032 L 633.59533,387.69615 L 635.90115,389.42552 L 642.53041,399.80174 L 652.33017,401.24289 L 655.78891,406.71923 L 660.11234,410.46619 L 665.01222,410.75442 L 674.81199,410.75442 L 677.9825,406.431 L 680.57655,403.83694 L 682.59415,403.54871 L 683.17061,407.29568 L 687.78226,409.60151 L 688.93518,412.19556 L 694.12329,412.48379 L 693.83506,415.07785 L 689.79986,415.65431 L 687.20581,417.38368 L 685.47644,419.40127 L 688.35872,423.7247 L 688.64695,428.91281 L 685.18821,431.50687 L 682.0177,433.81269 L 677.40604,436.11852 L 674.52376,437.55966 L 673.9473,447.0712 L 676.25313,455.1416 L 680.28833,463.21199 L 678.84718,467.53542 L 678.84718,470.12947 L 673.37084,471.28239 L 671.35325,474.16467 L 669.33565,477.04695 L 666.45336,477.04695 L 664.14754,473.58821 L 658.38297,475.31758 L 653.77131,477.04695 L 646.85383,476.4705 L 641.66572,474.16467 L 638.78344,474.16467 L 635.3247,515.0931 L 634.74824,517.68716 L 641.66572,517.68716 L 641.08926,525.75755 L 635.3247,522.87527 L 631.86596,525.46932 L 628.69544,525.46932 L 625.81316,522.29881 L 619.76036,524.31641 L 600.16083,534.69263 L 598.14323,538.72783 L 598.43146,540.74543 L 599.00792,541.03366 L 608.51946,540.16897 L 606.21363,547.66291 L 608.51946,556.02153 L 618.60745,570.72118 L 617.45454,574.46815 L 620.33682,575.62106 L 620.33682,578.79158 L 616.01339,578.79158 L 613.9958,581.38563 L 615.14871,582.82677 L 616.87808,583.97969 L 613.9958,585.99729 C 613.9958,585.99729 611.40174,585.99729 611.40174,587.43843 C 611.40174,588.87957 611.40174,591.76185 611.40174,591.76185 L 613.9958,594.06768 L 614.57225,597.81465 L 612.26643,598.67934 L 610.53705,598.39111 L 609.67236,597.52642 L 608.23122,597.2382 L 605.63717,595.50882 L 597.56678,596.08528 L 595.26095,593.77945 L 593.24335,590.89717 L 584.02004,591.47363 L 581.42599,589.74426 L 576.5261,591.47363 L 562.97937,592.05008 L 559.80886,592.91477 L 555.48543,591.1854 L 550.87378,592.05008 L 546.83858,594.64414 L 533.58007,594.64414 L 532.13893,597.81465 L 521.47448,597.81465 L 516.28637,595.50882 L 511.38649,592.62654 L 507.63952,590.60894 L 504.46901,590.60894 L 500.14558,593.49123 L 496.11038,595.50882 L 494.38101,600.69694 L 493.51633,606.4615 L 495.2457,610.78493 L 492.65164,611.64961 L 489.1929,609.05556 L 484.58125,608.76733 L 480.54605,605.88505 L 476.22262,605.88505 L 470.16983,604.15568 L 464.40526,603.86745 L 459.7936,605.02036 L 453.74081,605.59682 L 453.45258,609.92024 L 450.28207,613.09076 L 450.28207,617.99064 L 449.99384,620.87292 L 446.24687,621.73761 L 444.80573,626.06103 L 440.77053,623.75521 L 437.88825,626.92572 L 433.56482,632.69029 L 426.35911,634.70789 L 422.61214,638.74308 L 419.44163,640.47245 L 416.55934,644.21942 L 413.96529,647.67816 L 409.64186,652.28982 L 409.64186,659.49553 L 404.74198,659.49553 L 399.26564,654.30742 L 401.28324,650.27222 L 395.51867,645.37234 L 390.33056,646.23702 L 375.34268,646.81348 L 371.30749,626.63749 L 362.94886,626.06103 L 364.67823,601.84985 L 361.50772,603.86745 L 358.62544,605.59682 L 355.74315,597.23819 L 354.01378,594.06768 L 349.1139,591.76185 L 343.34933,583.97969 L 335.85539,588.87957 L 324.90272,587.43843 L 318.84992,587.43843 L 313.95004,585.1326 L 292.90936,588.30311 z "
       id="pathBorderKazakistan" />
    <g
       id="gLakes"
       style="fill:#bbebeb;fill-opacity:1;stroke:#c3c5fa;stroke-opacity:1"
       transform="translate(6.122104,290.5229)">
      <path
         id="path1308"
         d="M 32.841119,383.22439 L 126.08644,383.22439 L 123.67112,379.99998 L 123.00765,377.34609 L 121.14993,375.35568 L 119.29221,375.09029 L 117.03641,375.09029 L 115.97485,373.36526 L 116.77102,371.50754 L 117.30179,370.31329 L 119.5576,368.32288 L 119.95568,370.57868 L 122.60957,370.71137 L 123.00765,370.57868 L 123.93651,371.37484 L 125.52884,371.24215 L 126.05962,370.31329 L 125.52884,369.51712 L 123.93651,367.92479 L 122.60957,366.59785 L 123.27304,364.34205 L 125.13076,363.28049 L 125.13076,361.82085 L 122.07879,361.42277 L 119.5576,359.96313 L 116.77102,359.83044 L 115.04599,358.90158 L 113.71905,358.90158 L 115.17868,362.88241 L 112.79019,358.90158 L 111.99402,355.71691 L 112.79019,354.92075 L 112.5248,350.93992 L 113.05558,347.62256 L 114.64791,345.36675 L 115.70946,344.03981 L 116.37293,340.85515 L 117.69988,340.05898 L 118.76143,337.53779 L 118.89413,332.4954 L 119.82299,332.4954 L 121.28262,337.13971 L 122.21148,340.45706 L 125.79423,342.31479 L 127.78465,343.64173 L 129.64237,342.18209 L 130.96931,340.72245 L 132.16356,340.72245 L 131.76548,345.23406 L 133.09242,347.22448 L 138.1348,347.09178 L 139.19636,345.89753 L 141.58486,345.89753 L 142.64641,347.35717 L 143.84066,347.09178 L 142.64641,344.96867 L 142.24833,342.31479 L 145.83108,342.18209 L 147.42341,344.57059 L 150.0773,344.57059 L 151.27154,343.77442 L 151.93502,342.71287 L 151.93502,338.46665 L 141.71755,327.18763 L 141.18677,323.60488 L 142.38102,322.14525 L 142.64641,320.55291 L 141.31947,318.96058 L 140.656,316.83747 L 141.31947,312.85664 L 140.25791,311.5297 L 138.53289,311.5297 L 136.40978,310.46814 L 132.69434,310.46814 L 130.57123,311.397 L 128.44812,310.60084 L 126.32501,311.5297 L 124.06921,313.38742 L 122.47687,315.90861 L 120.75185,318.03172 L 122.07879,319.88944 L 121.41532,322.41063 L 120.61915,324.00297 L 119.5576,326.12608 L 119.15951,327.9838 L 117.56718,325.32991 L 115.70946,322.80872 L 114.9133,320.951 L 116.37293,320.02214 L 116.50563,318.16442 L 114.9133,317.10286 L 113.58635,316.04131 L 115.57677,313.9182 L 115.97485,312.19317 L 114.9133,307.28348 L 117.96527,304.3642 L 120.22107,301.04685 L 122.34418,298.52565 L 122.74226,295.2083 L 121.8134,292.95249 L 119.82299,291.36016 L 119.15951,290.16591 L 115.97485,289.90052 L 114.38252,288.57358 L 109.60552,288.0428 L 108.41127,283.66389 L 107.48241,280.08114 L 99.918836,279.55036 L 101.24578,277.16187 L 102.17464,275.43684 L 101.90925,269.86368 L 99.918836,266.01554 L 99.786141,261.76932 L 98.724587,258.85005 L 97.663032,256.19616 L 97.663032,251.94994 L 93.549508,249.82683 L 89.303289,247.83642 L 89.701372,242.79403 L 91.691787,240.67092 L 95.407228,241.73248 L 98.326504,242.92673 L 101.24578,243.05942 L 104.69583,247.17295 L 106.55355,247.17295 L 107.48241,246.37678 L 110.26899,248.49989 L 112.65749,248.10181 L 109.07475,244.65175 L 103.89967,238.01704 L 104.29775,235.49584 L 106.28816,234.69968 L 109.20744,234.43429 L 111.46324,229.78999 L 113.05558,227.93227 L 113.98444,228.72843 L 117.03641,228.72843 L 119.29221,227.26879 L 121.41532,228.46304 L 143.17719,237.35356 L 146.89263,236.95548 L 148.08688,238.9459 L 150.87346,238.14973 L 156.57932,238.28242 L 156.9774,241.33439 L 154.98699,242.39595 L 151.80232,243.05942 L 151.93502,244.38636 L 152.86388,245.58061 L 154.5889,245.9787 L 158.17165,245.18253 L 159.63129,246.11139 L 161.22362,244.78445 L 159.89668,241.59978 L 158.83512,239.74206 L 158.83512,236.15932 L 160.16206,235.36315 L 159.63129,233.77082 L 157.24279,232.17849 L 154.45621,235.09776 L 150.34268,236.02662 L 147.42341,235.89393 L 145.56569,233.24004 L 143.17719,233.24004 L 141.85025,229.25921 L 141.05408,226.73802 L 142.51372,224.8803 L 142.38102,223.55335 L 146.36185,218.51097 L 147.6888,214.53014 L 148.48496,213.73397 L 148.21957,205.10884 L 147.15802,204.71076 L 147.42341,197.94335 L 144.10605,195.28946 L 141.18677,194.2279 L 138.93097,193.03366 L 137.07325,194.49329 L 134.81745,195.82024 L 133.35781,196.88179 L 131.76548,195.68754 L 127.65195,193.16635 L 124.99807,190.51246 L 122.07879,187.85858 L 119.95568,187.3278 L 117.96527,186.53163 L 112.25941,187.85858 L 109.47283,188.92013 L 106.68625,189.98169 L 96.336089,193.56443 L 94.212979,195.02407 L 88.10904,194.3606 L 84.393598,194.75868 L 80.545463,199.1376 L 77.493493,201.79148 L 73.778051,201.65879 L 72.053025,203.7819 L 66.214474,205.10884 L 63.02981,206.83387 L 57.323954,206.96656 L 52.414263,208.4262 L 48.698822,212.14164 L 46.310324,216.38786 L 44.05452,217.8475 L 40.869856,221.82833 L 37.552497,223.95144 L 33.173584,225.54377 L 31.183169,229.25921 L 31.581252,232.17849 L 35.429388,234.03621 L 35.960165,237.35356 L 37.685192,238.54781 L 38.215969,241.99787 L 39.410218,243.85559 L 39.940995,247.70372 L 40.604467,249.95953 L 40.604467,251.41916 L 38.879441,251.68455 L 38.215969,253.27688 L 37.685192,255.79808 L 37.419803,260.97316 L 35.694777,262.69818 L 35.827471,265.48476 L 34.500528,266.54632 L 34.765916,268.13865 L 37.817886,271.85409 L 37.552497,274.1099 L 37.817886,277.16187 L 39.675607,278.48881 L 39.808301,283.00042 L 42.064105,284.85814 L 43.258354,290.16591 L 44.585297,295.87177 L 47.769961,299.05643 L 51.618097,308.47773 L 53.873901,313.9182 L 54.006595,321.87986 L 58.783591,327.9838 L 57.456648,329.31074 L 57.456648,331.30116 L 61.437478,334.22043 L 66.347169,334.48582 L 70.99147,340.05898 L 70.327999,343.24365 L 66.877946,340.45706 L 64.091365,340.19168 L 62.233644,338.99743 L 59.314369,340.85515 L 55.333539,341.38592 L 52.679652,344.17251 L 52.546957,347.09178 L 51.352708,348.28603 L 50.423848,350.67453 L 50.423848,353.06303 L 47.637267,354.38997 L 46.310324,356.24769 L 47.10649,358.90158 L 48.03535,361.15738 L 45.779546,361.29008 L 44.187214,364.20935 L 42.860271,366.73054 L 41.00255,368.19018 L 41.135244,363.28049 L 39.144829,362.21894 L 38.746746,364.34205 L 37.419803,366.86324 L 37.154414,368.45557 L 35.163999,370.1806 L 33.837056,376.15184 L 32.841119,383.22439 z "
         style="fill:#bbebeb;fill-opacity:1;fill-rule:evenodd;stroke:#c3c5fa;stroke-width:1px;stroke-linecap:butt;stroke-linejoin:miter;stroke-opacity:1" />
      <g
         id="g1318"
         style="fill:#bbebeb;fill-opacity:1;stroke:#c3c5fa;stroke-opacity:1">
        <path
           style="fill:#bbebeb;fill-opacity:1;fill-rule:evenodd;stroke:#c3c5fa;stroke-width:1px;stroke-linecap:butt;stroke-linejoin:miter;stroke-opacity:1"
           d="M 238.13627,245.85641 L 235.10636,245.5794 L 234.64446,248.19683 L 235.26032,252.04598 L 233.87463,253.89358 L 235.58641,255.02681 C 235.89499,255.74525 242.95576,255.71344 236.51021,257.18234 L 238.64725,258.30918 L 237.02757,262.29382 L 237.54462,265.34221 L 237.39065,268.12604 L 234.50227,272.11673 L 226.17632,269.2902 L 224.32872,268.21243 L 224.02079,266.05691 L 226.79218,264.05535 L 225.09855,261.74585 L 225.40649,256.511 L 228.79374,251.89202 L 228.94771,249.27459 L 232.33496,245.73337 L 233.10479,242.96198 L 234.95239,240.80645 L 234.95239,237.8811 L 237.41585,235.1097 L 245.07717,232.20922 L 246.44438,232.67717 L 246.65382,234.95574 L 245.73002,236.18747 L 244.80622,237.4192 L 242.03483,237.4192 L 244.49829,238.65093 L 244.65226,240.80645 L 250.25018,238.36786 L 248.81573,235.99686 L 246.62354,232.22166 L 250.23235,231.69185 L 250.23235,231.156 L 251.82715,229.91184 L 250.96488,226.79554 L 255.27592,227.25743 L 255.27592,231.10658 L 255.27592,233.41608 L 258.66318,233.41608 L 261.65006,232.3447 L 264.93881,232.81265 L 270.52431,231.53184 L 272.96927,233.23151 L 268.89858,236.9573 L 264.66786,238.65093 L 261.43457,237.57316 L 258.20128,236.4954 L 255.42989,236.4954 L 254.19816,238.80489 L 254.0442,240.65249 L 252.50453,241.42232 L 252.81247,244.80957 L 254.96799,245.11751 L 255.89179,244.19371 L 258.35525,245.5794 L 258.35525,249.50554 L 258.35525,253.43168 L 257.97033,253.8166 L 257.58542,254.20151 L 257.12352,267.9045 L 255.89179,271.75366 L 255.89179,274.21711 L 251.2728,278.52817 L 251.11884,280.83766 L 248.65538,278.8361 L 245.42209,278.8361 L 244.19036,274.52505 L 237.48408,271.15023 L 237.21918,268.40338 L 238.22903,265.02856 L 236.87426,262.39264 L 241.57326,257.41631 L 246.34589,254.50944 L 246.80778,250.96822 L 246.19192,246.9651 L 245.42209,242.19215 L 243.88243,240.96042 L 242.6507,238.34299 L 240.95707,239.11283 L 239.84232,243.68846 L 238.13627,245.85641 z "
           id="path1310"
           sodipodi:nodetypes="cccccccccccccccccccccccccccccccccccccccccccccccccccccccccccccccccccccccccccccccccccccc" />
        <path
           style="fill:#bbebeb;fill-opacity:1;fill-rule:evenodd;stroke:#c3c5fa;stroke-width:1px;stroke-linecap:butt;stroke-linejoin:miter;stroke-opacity:1"
           d="M 275.00754,233.31453 L 272.01983,232.01602 L 269.95616,231.87333 L 270.54623,226.70224 L 269.82924,227.7379 L 267.99692,228.85323 L 265.4476,227.02091 L 265.2086,225.18859 L 263.45595,226.54291 L 259.39297,225.82592 L 258.19798,223.67493 L 258.43698,222.32061 L 260.5083,221.20528 L 262.97795,219.45262 L 265.6866,220.96628 L 266.80192,222.87827 L 269.9089,222.87827 L 270.70556,220.24929 L 268.79358,219.13396 L 268.79358,218.0983 L 270.30723,218.17797 L 271.66156,221.12561 L 271.50223,223.2766 L 273.65321,225.10892 L 275.64487,225.50725 L 277.31785,226.46324 L 278.75185,226.22425 L 280.66383,223.83426 L 279.54851,227.7379 L 279.07051,229.25156 L 278.11452,230.20755 L 276.52119,231.00422 L 275.00754,233.31453 z "
           id="path1312"
           sodipodi:nodetypes="ccccccccccccccccccccccccccccccccc" />
      </g>
      <path
         sodipodi:nodetypes="cccccccccccccccccccccccccccccccccccccccccccccccccccccccccccccccccccccccccccc"
         id="path1314"
         d="M 493.56307,257.48533 L 490.89294,252.35046 L 488.839,251.93967 L 486.57966,248.24257 L 483.90953,245.57244 L 481.2394,244.54547 L 482.47177,241.46455 L 481.85558,239.41061 L 484.11492,236.53508 L 485.75808,235.30272 L 483.70413,232.42719 L 484.32032,230.16785 L 489.66057,228.73009 L 489.66057,226.05996 L 492.12531,224.6222 L 496.02781,220.7197 L 497.46557,216.20102 L 499.51951,214.76326 L 501.98425,214.76326 L 505.68135,213.73629 L 510.81621,214.76326 L 512.87016,215.99563 L 513.69174,213.5309 L 516.77265,212.50392 L 520.46976,212.09313 L 523.34528,211.27156 L 526.63159,213.12011 L 529.09633,214.55787 L 531.76645,212.50393 L 534.64198,213.73629 L 537.5175,213.5309 L 539.98224,214.55787 L 543.67934,213.73629 L 549.0196,211.68234 L 554.77064,211.68234 L 557.23538,212.70932 L 559.9055,213.3255 L 560.93248,209.01222 L 565.04037,207.36906 L 567.7105,207.98524 L 566.47813,205.7259 L 570.17523,205.31511 L 572.84536,205.31511 L 574.48852,208.39603 L 571.81839,209.01222 L 571.20221,213.5309 L 569.14826,215.58484 L 563.808,215.99563 L 561.54866,215.79024 L 557.02998,218.04958 L 553.94906,218.04958 L 552.92209,217.0226 L 546.76026,217.0226 L 544.70631,216.20102 L 541.00921,216.81721 L 537.92829,217.84418 L 535.25816,217.0226 L 525.39922,217.228 L 522.11291,218.46036 L 518.41581,218.46036 L 515.33489,218.87115 C 514.24134,218.05193 512.69943,216.67226 513.69174,218.46036 L 511.02161,219.28194 L 509.58385,220.7197 L 506.09214,222.56826 L 503.21661,222.97904 L 502.18964,229.75706 L 499.72491,233.04338 L 496.43859,232.63259 L 493.97386,233.86495 L 493.97386,235.9189 L 495.41162,239.8214 L 494.59004,242.90231 L 492.74149,245.98323 L 492.94689,250.29652 L 493.56307,257.48533 z "
         style="fill:#bbebeb;fill-opacity:1;fill-rule:evenodd;stroke:#c3c5fa;stroke-width:1px;stroke-linecap:butt;stroke-linejoin:miter;stroke-opacity:1" />
      <path
         id="path1316"
         d="M 649.41572,166.12526 L 645.24389,165.15183 L 641.76736,164.87371 L 638.56895,162.09249 L 631.05965,162.64873 L 628.41749,161.39718 L 626.88781,160.00657 L 628.41749,159.1722 L 629.66904,158.19878 L 639.68144,157.92065 L 641.6283,159.03314 L 644.27046,159.86751 L 649.83291,159.86751 L 651.6407,161.53624 L 649.41572,166.12526 z "
         style="fill:#bbebeb;fill-opacity:1;fill-rule:evenodd;stroke:#c3c5fa;stroke-width:1px;stroke-linecap:butt;stroke-linejoin:miter;stroke-opacity:1" />
    </g>
  </g>
</svg>
