<?xml version="1.0" encoding="utf-8"?>
<!-- Generator: Adobe Illustrator 14.0.0, SVG Export Plug-In . SVG Version: 6.00 Build 43363)  -->
<!DOCTYPE svg PUBLIC "-//W3C//DTD SVG 1.1//EN" "http://www.w3.org/Graphics/SVG/1.1/DTD/svg11.dtd">
<svg version="1.1" id="Calque_1" xmlns="http://www.w3.org/2000/svg" xmlns:xlink="http://www.w3.org/1999/xlink" x="0px" y="0px"
	 width="1316px" height="762px" viewBox="0 0 1316 762" enable-background="new 0 0 1316 762" xml:space="preserve">
<g>
	<rect x="0.167" fill="#66B5D8" width="1315.833" height="762.041"/>
	<polyline fill="#AFAFAF" points="102.404,762.041 147.933,680.903 308.128,685.604 458.108,662.535 515.351,667.286 
		526.85,682.286 522.093,690.181 487.354,729.29 455.109,739.04 446.11,762.041 	"/>
	<path fill="#AFAFAF" d="M1277.505,640.533l11.749-1.038L1316,624.784v137.257H713.326l-18.747-19.501l7.249-9.25l-19.661-15.231
		l2.663-5.77l-6-24.752l0.782-8.616l-26.278-19.885l-13.749-48.503l-13.498-84.005l1.5-30.001l29.996-26.502l14.998,7l4.749,3.501
		l2.751,8.249l7.165,5.207c0,0,8.333,14.044,8.082,14.795c-0.25,0.75,17.748,17.502,17.748,17.502l5.124,10.251l42.62,9.666
		l2.25-6.417l26.856-3.415l1.14,6.082l56.326-47.839l28.506-15.627l26.473,18.741l5.181,29.307l3.999,37.502l22.747,15.252
		l-1.249,10.249l9.748,18.252l-1.749,6.251l6.749,9.249l3.999,14.751l19.248,7l8.749,6.751l49.993,5.001l6.749,16.751l22.998,17.25
		l24.996,9.501l23.747,6.75l19.997,5.251l17.498,0.249l28.496-7.5h12.249l13.748-9.5l52.743-15l32.246,0.749l-0.75-24.252
		l-10.498-11.001L1277.505,640.533z"/>
	<polygon fill="#AFAFAF" points="523.438,690.085 531.099,689.537 545.597,670.036 561.596,672.369 573.592,673.213 
		615.338,683.037 633.244,675.024 647.834,680.286 643.38,688.293 640.835,700.788 652.819,700.25 660.245,692.551 667.415,689.037 
		677.747,689.037 678.83,689.037 684.83,712.289 681.83,718.789 701.828,733.29 694.579,742.54 713.326,762.041 446.11,762.041 
		455.109,739.04 487.521,729.291 520.871,691.556 523.1,690.121 	"/>
	<polyline fill="none" stroke="#020202" points="446.11,762.041 455.109,739.04 487.354,729.29 520.871,691.556 522.291,689.853 	
		"/>
	<polyline fill="none" stroke="#020202" points="678.83,689.037 684.83,712.289 681.83,718.789 701.828,733.29 694.579,742.54 
		713.326,762.041 	"/>
	<path fill="#AFAFAF" d="M27.663,0l3.5,9.5l-3.5,11.751l-10.562,9.813c0,0-0.145,7.656,0,7.763
		c0.145,0.107,16.619,12.348,16.619,12.348h16.065l29.372-26.173l32.495,0.585l16.108-13.882l15.888-4.704l18.497,7h28.497
		l-1.757-11.542L190.643,0H27.663z"/>
	<polygon fill="#AFAFAF" points="672.439,475.524 687.08,473.192 693.911,467.359 703.91,479.858 703.91,482.859 719.576,489.86 
		735.906,483.859 748.071,497.027 745.405,503.027 751.071,509.693 758.237,524.862 763.07,542.197 783.567,541.363 784.4,543.53 
		791.066,541.53 788.234,528.695 784.067,527.362 784.234,516.695 788.234,514.362 789.233,512.028 784.067,509.527 
		781.067,497.027 788.234,491.859 778.235,484.86 768.402,489.86 761.903,487.193 751.071,470.026 742.905,469.359 740.24,459.525 
		730.197,452.191 742.739,445.358 748.405,436.025 734.073,431.523 731.753,425.025 726.741,423.356 717.242,415.355 
		719.243,407.355 716.909,400.854 711.077,397.022 719.408,383.188 711.576,372.688 697.245,372.688 692.246,362.854 699.41,361.52 
		687.08,350.687 676.081,354.353 665.582,352.02 651.417,357.02 634.252,357.687 612.422,363.521 592.93,362.792 607.923,374.854 
		615.338,401.272 604.473,411.903 605.09,424.689 613.255,441.358 613.589,447.774 629.92,452.025 644.585,449.858 659.083,456.526 
		670.582,467.359 	"/>
	<polygon fill="#AFAFAF" points="1316,287.516 1290.837,255.848 1249.842,232.512 1221.66,233.846 1211.514,234.846 
		1173.991,256.514 1146.269,283.852 1146.269,271.967 1140.522,260.014 1143.021,244.013 1157.521,219.512 1157.521,203.512 
		1137.522,195.511 1116.525,199.011 1099.027,193.51 1088.528,178.51 1063.744,174.047 1075.53,160.009 1067.847,154.115 
		1064.031,146.008 1056.633,144.475 1048.034,133.007 1036.025,105.822 1029.036,93.505 992.541,79.504 997.672,68.307 
		1023.537,60.503 1032.87,68.17 1071.531,65.503 1042.868,41.836 1030.203,43.002 1046.789,20.57 1053.033,17.001 1053.513,8.137 
		1058.033,0 1316,0 	"/>
	<polyline fill="none" stroke="#020202" points="763.07,542.197 783.567,541.363 784.4,543.53 791.066,541.53 	"/>
	<polygon fill="#FFC7C7" points="673.354,476.524 685.955,472.526 694.643,468.274 705.271,480.651 703.91,483.527 718.2,489.305 
		737.211,483.9 747.851,497.526 746.305,504.127 756.983,522.208 763.836,542.165 760.07,546.196 716.576,536.195 713.076,525.777 
		698.242,513.744 687.455,493.402 678.705,487.722 676.331,479.401 673.331,479.025 	"/>
	<path fill="#FFC7C7" d="M687.246,349.853l10.625,11.417l-5.625,1.584l4.999,9.833l15.269,1.333l6.187,10.342l-8.457,11.325
		l8.204,9.45l-0.247,11.024l14.251,10.815l3.782,5.322l10.53,3.79l-3.765,8.84l-12.802,7.261l9.636,7.038l4.091,10.213l8.002,1.938
		l9.978,15.813l7.709,2.052l8.623-4.385l9.999,6.999l-6.719,4.845c0,0,2.339,11.934,2.445,12.38
		c0.106,0.443,5.272,2.944,5.272,2.944l-4.999,4.667l-0.158,10.081l5.157,3.878l2.115,10.709l21.84-12.585l20.907-19.936
		l18.813-18.992l25.021-11.075l12.87,8.13l11.768,11.933l-13.712,14.189l18.862,15.002l-23.496,12.167l2.342,8.864l15.808,6.136
		l-4.344,6.115l14.142,4.85l9.473,9.43l8.282,5.107l3.624-0.667l6.5-5.5l1-14.001l-6.999-17.001l9.998-9.5l-2.999-11.126v-13.875
		l16.872,6.498l1.625-12.5h10.498l-9.998-17.5l8.375-28.377l-2.85-20.326l4.142-7.35l14.985-8.46l-0.517-5.343l18.249-4.091
		l11.639,0.216l7.094,0.726l-13.373-13.85l-26.942,0.35l-5.304-8l-4.874-2.752l-3.624-10.749c0,0-5,0.225-5.375-0.138
		c-0.375-0.362-3.623-8.718-3.623-8.718l-12.001-11.145l2.198-10.462l-9.572-13.914l-12.411-12.741l-7.21-15.386l-10.961-7.047
		l-18.286,26.548l-13.248-0.009c0,0-5.625,24.511-5.625,25.261c0,0.75-15.873,2.75-15.873,2.75l-4.871-6.73l-9.001,1.854
		c0,0-15.593-24.284-15.734-24.509c-0.143-0.226-15.054,1.375-15.054,1.375l-12.866-22.222l-23.463-6.937l-10.248,25.293
		l21.622,15.376l11.102,14.668l-9.977,13.083l-45.661-9.751l-13.828-15.167l-20.501-2.833L687.246,349.853z"/>
	<path fill="#CDFFB6" d="M476.761,324.508l15.254-15.062l1.554-13.056l-3.589-12.54l-1.439-17.75l-7.31-13.462l-3.547-22.98
		l-9.432-7.275l-7.394-0.622l-17.563-25.584l-31.452-8.028l-19.117-18.568l2.141-7.906v-7.167l38.243,3.667l20.597,14.667
		l20.667,3.38l15.088,11.87l27.323,1.651l16.113-6.4l11.873,9.219l21.586,1.666l22.236,22.451l26.83,5.333l-3.583,16.001
		l21.248,4.251l34.995-17.501l9.167,14.746l11.581-11.245l7.727-0.75l12.515,15.564l27.785,2.372l-8.24,26.851l45.453,23.05
		l-10.832,24.167l23.656,18.115l9.096,12.32l-9.588,13.734l-44.463-9.447c0,0-14.355-15.721-14.859-15.721
		c-0.503,0-20.501-2.834-20.501-2.834l-19.497,15.002l-9.299,3.1l-12.532-1.434c0,0-11.896,3.984-12.341,4.141
		c-0.444,0.157-19.027,1.526-19.027,1.526l-23.296,5.432l-17.656-0.659l-3.838-5.689l-10.165-3.251l-2.833-9.167l-9.832-7.667
		l-6.999-14.834l-16.998,0.666l-5.999,11.834l-26.164-8.667l-12.401,2.623l-0.598,4.128l-6.666,1.417l-3.833-8.167l-7.332-0.085
		L476.761,324.508z"/>
	<path fill="#EC9FFF" d="M225.138,0l-0.5,3.5l-15.601,2.438l-2.603,2.636l18.704,6.927l17.998,13l-2,10.5l14.999,16.501l8.999-0.5
		l3.25-3.5l12.413,9.589l20.833,23.414l13.145-2.394l13.681,14.049l1.67,5.845l18.867,12.5l0.631,9l9.99,4.345l32.504,41.158
		l2.75-7.334v-8.917l36.791,5.278l22.049,14.806l19.204,2.167l15.96,12.617l27.915,2.116l14.89-5.914l14.667,8.804l20.014,1.595
		l18.875,20.785l29.108,6.75l-2.5,16.25l21.248,4.251l33.795-16.901l10.366,14.146l11.581-11.245l8.764,0.539l10.824,13.462
		l28.438,3.185l-6.987,27.487l44.2,22.414l23.463,6.937l12.866,22.222l14.665-1.991l16.83,27.002l7.666-4.5l5.499,7.5l15.999-1.833
		l5.499-26.178l13.93-0.267l17.604-26.272l-26.035-20.454v-15.501l-22.497-19.501v-6l-8.826-11.279l-0.173-12.222l-14.978-7.022
		l-2.463-14.433l4.942-41.548l6.717-21.024l-7.384,4.022l-8.954-4.295c0,0-7.504-9.59-7.747-9.9
		c-0.243-0.311-14.628-11.806-14.628-11.806v-8.5l-13.742-7.789l-9.254-13.713l5.593-10.124l24.699-23.644l0.203-14.735L829.062,0
		H225.138z"/>
	<path fill="#E27171" d="M1146.269,283.852v4.831l27.249,24.834l-1.5,8l5.833,13.126l-0.333,25.875l-5.999,35.276l6.499,29.728
		l44.494,2.334l2.5,12.667c0,0,12.666,14.133,12.402,13.836c-0.264-0.294-27.4,8.166-27.4,8.166l-5,17.001l13.896-5.271l8.151,7.772
		l19.948,12.499l9.205,3.221l6.241,16.261l-4.326,33.732l4.326,16.456l1.689,14.3l-2.438,20.973l4.443,20.045l7.355,11.021
		l1.472,7.154l2.861,1.806h13.998L1316,624.784V288.85l-2.912-4.998l-22.251-28.004l-40.417-23.006l-38.906,2.005l-37.522,21.667
		l-27.137,27.002L1146.269,283.852z"/>
	<polygon fill="none" stroke="#020202" stroke-width="3" points="673.363,475.376 687.466,472.863 693.911,467.359 703.91,479.858 
		703.91,483.527 719.576,489.86 735.906,483.859 748.071,497.027 745.405,503.027 751.356,510.297 758.434,525.566 763.07,542.197 
		760.57,546.196 732.74,539.528 716.576,536.195 712.743,525.362 698.578,514.361 687.58,494.193 678.914,488.693 677.081,480.193 
		673.331,479.025 	"/>
	<path fill="none" stroke="#020202" stroke-width="3" d="M933.548,580.031l-5.332,0.667l-11.8-9.167l-5.01-6.333l-13.773-4.001
		l4.738-6.001l-16.316-6.334c0,0-1.833-8.166-1.833-8.666c0-0.499,23.496-12.167,23.496-12.167l-18.862-15.669l14.196-14
		l-15.33-14.335l-12.498-5.332l-24.331,12.166l-21.483,23.001l-19.178,16.335l-19.165,11.335l-2.832-12.835l-4.167-1.333
		l0.167-10.667l5.833-5.168l-6-2l-3-12.5l7.167-5.168l-9.999-6.999l-9.833,5l-6.499-2.667l-10.832-17.167l-8.166-0.667
		l-3.551-10.479l-9.157-6.688l13.284-8.057l4.596-7.573l-14.004-5.038l-1.844-5.165L718.2,416.163l1.043-8.808l-2.013-5.604
		l-6.987-6.063l8.782-11.865l-6.972-10.495l-15.081-1.175l-4.727-9.299l6.575-1.853l-11.575-11.149l19.331-13.834l20.501,2.833
		l13.828,15.167l45.494,9.667l10.666-13.667l-11.499-14l-21.665-16.227l10.166-24.442l23.164,6.421l13.165,22.737l14.665-1.991
		l16.498,26.168l7.998-3.667l5.832,7.166l15.666-1.499l5.499-26.178l13.165,0.842l18.709-27.163"/>
	<polyline fill="none" stroke="#020202" stroke-width="3" points="592.93,362.792 612.422,363.521 635.346,357.645 651.417,357.02 
		665.582,352.02 677.083,354.019 687.08,350.687 	"/>
	<path fill="none" stroke="#000000" stroke-width="3" d="M773.725,296.175l0.344-0.826l-45.453-23.05l8.999-26.787l-29.288-2.5
		l-11.77-14.751c0,0-6.978,0.5-7.728,0s-11.998,11-11.998,11l-8.75-14.501l-34.995,17.501l-21.248-4.251l2.5-16.25l-29.108-6.75
		l-19.526-21.502l-22.062-1l-10.534-9.251l-18.257,7.25l-26.247-2.5l-15.694-13.001l-18.617-1.75l-21.417-15.25l-38.009-4.5v10
		l-2.75,5.5"/>
	<polyline fill="none" stroke="#000000" stroke-width="3" points="1146.269,283.852 1173.991,256.514 1211.514,234.846 
		1250.42,232.841 1290.837,255.848 1316,287.516 	"/>
	<polyline fill="none" stroke="#000000" stroke-width="3" points="1276.581,639.495 1290.503,639.495 1316,624.784 	"/>
	<path fill="#FFE49F" d="M477.031,325.932h8.907l5.666,8.086l5.5-1.25v-4l13.248-2.835l26.247,8.086l5.75-11.501h17.498
		l7.249,14.251l8.249,8.5l4,9.25l10.499,3.5l5.499,8.501l12.999,7.875c0,0,2.25,8.876,2.5,9.875c0.25,1.001,4.5,17.002,4.5,17.002
		l-11.499,11.249l2.5,13.001l5.999,15.251l1.25,7.001l16.498,4.249l14.248-2.75l13.749,7.252l11.999,9.749l3.249,12.751l-9.999-4
		l-5.749,12.501l-3.999,15.751l-23.997,3.75l1.75,8.251l9.999,11.75l-2.25,15.251l9.249,4.5l2.25,9.75l-7.25,6.75l7.25,10.752
		l-1,12.751c0,0,9.499,0.75,10.249,1.249c0.75,0.5,1.249,9.501,1.249,9.501l-7.249,5l2.5,10.751l-8.999,4.001l-2,9.499l10.998,7.001
		l3.5,8.501l10.999,2.499l2.499,6.502l-11.248,12.249l16.747,9.751l1.251,9l2.999,6.751h-16.248l-7.499,4.001l-6.999,7.75h-11.999
		l3.25-13.501l4.25-7.001l-15.248-5.5l-17.248,8.251l-42.495-10.001h-12.248l-14.999-3l-14.498,19.501l-10.499,0.75l-8.999-16.25
		l-21.498,6.749l-7.499,6.751l-29.747,1.001l-18.248,3.5l-20.998-8.001c0,0-23.497,11.5-24.497,11.75
		c-1,0.251-26.247,14.501-26.247,14.501l-31.996,10.001h-26.747l-25.747-8.75l-17.998-13.501l-19.248-2.251l-33.746,15.002
		l-19.498,1.248l-12.249-6l-2.5,6.252l-6.75-5.001l1.75-4.75l-17.998-9.001l-13.749,13.751v16.75l10.499,12.252l-2,5.25
		l-24.247-1.999v16.5l-10.999,4.25l-2,1.75H91.405l-2.671-6.006l1.921-1.494l-0.146-18.777l-4.353-8.225l1.5-8.501l24.497-9.75
		l6.249-4.751l0.25-19.501l-7.999-6.999H99.654l-25.497,12.25v5.25l-5.5,7.001l-10.999-5.5H47.16l-2.195-7.906l-15.303-11.095
		H14.665l-14.498,10V250.514l15.373,1.75l18.623,4.75l9.999,5l7.677-0.611l25.068,0.611l0.625-5.438l3.75-3.438l3.875,2.625l-2,8.5
		l13.748,21.001l9,2.25l1.25,4l4.25,1.25l2.25,3.75l14.623-1l1.375-4.25l3.5,0.5l-0.75,2.5l6.249-4.875l5.249,4.124v15.501l5.5,7
		l1.75,2.25l4.5,4l2,4.266l8.499,3.485l9.188-8.358l21.308,6.107l1,9.5l13.498,6.251l7.749,1.75l4.999,5l3.5,2.25l3.5,4.5
		l2.777-1.03l0.972-7.346l5-1.75l10.499,5.625v3.75l6.249,1.25v2.75l6.249-0.5l3.375,2.875l7.874,1.125l2.625,2.25l5,2l7.499,1.375
		l8.374-0.625l6.125-6.625l23.122-4.126l23.497-0.125l9.749,3.625l5.999,2.625l2.375,2.75l15.873,3l5.625,4.625l7.124-2.375
		l5.63-5.552l8.993-3.949l16.498,0.125l7.249-10.75l34.996-15.626L477.031,325.932z"/>
	<polyline fill="none" stroke="#000000" stroke-width="2" points="477.031,325.932 486.855,325.932 491.604,334.018 
		497.104,332.768 497.104,328.768 510.352,325.932 536.599,334.018 542.348,322.517 559.846,322.517 567.095,336.768 
		575.344,345.269 579.343,354.519 589.967,358.212 595.341,366.52 608.429,374.75 615.338,401.272 603.84,412.521 606.34,425.522 
		612.339,440.773 613.51,447.333 630.087,452.023 644.335,449.273 658.083,456.525 670.082,466.274 673.331,479.025 
		663.292,475.112 657.718,487.233 653.584,503.277 629.587,507.027 631.336,515.278 641.335,527.028 639.085,542.279 
		648.334,546.779 650.584,556.529 643.335,563.279 650.584,574.031 649.584,586.782 659.833,588.031 661.082,597.532 
		653.932,602.951 656.333,613.283 647.334,617.284 645.335,626.783 656.333,633.784 659.833,642.285 670.832,644.784 
		673.331,651.286 662.083,663.535 678.83,673.286 680.081,682.286 683.08,689.037 666.832,689.037 659.333,693.038 652.334,700.788 
		640.835,700.788 643.585,687.287 647.834,680.286 632.586,674.786 615.338,683.037 572.844,673.036 560.596,673.036 
		545.597,670.036 531.099,689.537 520.601,690.287 511.602,674.037 490.104,680.786 482.218,687.55 452.859,688.538 
		434.611,692.038 413.614,684.037 385.154,697.854 362.871,710.288 330.875,720.289 304.128,720.289 278.381,711.539 
		260.384,698.038 241.644,695.848 208.017,710.509 187.893,712.037 175.644,706.037 173.145,712.289 166.395,707.288 
		168.145,702.538 150.147,693.537 136.399,707.663 136.399,724.038 146.898,736.29 144.898,741.54 120.651,739.541 120.651,756.041 
		109.652,760.291 107.653,762.041 	"/>
	<line fill="none" stroke="#000000" stroke-width="2" x1="91.405" y1="762.041" x2="88.734" y2="756.035"/>
	<path fill="none" stroke="#1E1E7C" stroke-width="3" d="M0.167,250.514l15.373,1.75l15.873,4.375l10.874,4.5l5.125,1.5l5.374-1.5
		l24.122,0.875l0.625-4c0,0,0.25-1.125,0-1.438c-0.25-0.313,3.75-3.438,3.75-3.438l4.125,2.75l-2.25,8.626l13.624,21.626
		l9.374,1.625l0.875,4.125l4.25,1l1.375,3.375l15.623-0.75l1.375-4.25l3.375,0.25v2.125l5.625-4.25l5.375,4.625v16.376l5.124,6
		l0.875,2.625l6.75,3v4.125l9.248,4.125l9.874-9.125l20.498,7l1.5,8.625l6.499,3c0,0,7.374,4,7.749,3.875
		c0.375-0.125,6.499,1.875,6.499,1.875l5,5l3.75,1.25c0,0,0.875,4.25,0.875,4.625c0,0.375,5.249,0.75,5.249,0.75l1.125-8.501l5-1.75
		l10.499,5.5v4.75h5.25l0.75,2.375h6.499l3,3l7.874,1c0,0,0.875,2.625,1.5,2.625c0.625,0,5.875,0.625,5.875,0.625l1.125,2.5h14.248
		l7.25-7.125l9.374-2.25l4.25-0.75l14.748-0.75l18.623-1.375l4.625,3.375l9.499,1.75l1.375,4.375l9.624,1l8.749,2.5l4,4.375h6.5
		l5.124-6.375l8.999-5.125l18.748-0.125l8.999-10.876l13.499-6.125l10.998-4.5l10.124-5.126l3.624-7.875l5.375-6.125l7.374-8.876
		l5.75-5.125l1-14.25l-4.125-10.251l-0.875-12.125c0,0-1.125-7.251-1.5-7.5c-0.375-0.251-7.375-10.626-7.375-10.626l-3.125-25.377
		l-10.249-6.25h-6.374l-6.374-11.5l-10.999-13.001l-17.873-4.75l-14.998-4.751l-6-7l-12.499-11.75l-22.747-29.501l-8.249-11.001
		l-11.499-5l-1-9.5l-18.498-12l-2-7l-14.498-14l-11.999,3.5l-27.997-31.002l-5-4l-3.5,5.5l-8.999,0.5l-14.999-16.501l2-10.5
		l-17.998-13L205.641,9.5l3-3.5l15.998-2.5l0.5-3.5"/>
	<polyline fill="none" stroke="#1E1E7C" stroke-width="3" points="190.643,0 188.143,3.5 190.643,14.001 162.146,14.001 
		143.648,7.001 128.65,11.001 116.651,20.501 111.152,25.002 78.656,25.002 68.158,34.002 50.16,51.502 34.162,51.502 
		16.665,38.502 16.665,31.502 26.663,21.501 31.163,9.5 27.663,0 	"/>
	<polyline fill="none" stroke="#1E1E7C" stroke-width="3" points="829.062,0 813.563,28.501 813.563,43.002 804.065,54.003 
		789.066,66.004 786.066,72.504 783.068,77.004 791.066,90.005 806.064,98.506 806.064,108.506 820.063,118.007 829.062,129.507 
		836.561,134.007 845.56,128.507 838.061,150.009 833.062,191.01 834.561,205.511 850.559,213.012 850.559,225.012 859.558,236.513 
		859.558,242.513 872.056,254.514 882.055,262.014 882.055,277.516 905.053,296.016 919.051,305.016 926.549,321.017 
		940.048,334.519 948.547,347.519 946.046,357.519 960.045,370.52 960.045,377.521 967.045,377.521 969.544,388.021 
		975.543,391.021 980.543,399.021 1001.039,399.021 1008.539,399.021 1025.036,415.022 1008.039,410.022 990.041,415.022 
		984.042,415.022 985.541,422.023 968.544,430.024 965.045,438.023 968.044,457.524 961.045,477.525 960.045,485.526 
		970.043,503.026 959.545,503.026 958.546,516.527 941.048,509.028 941.048,524.028 944.047,534.029 934.049,543.529 
		941.048,560.53 940.048,574.531 933.548,580.031 933.049,590.031 942.547,607.033 941.048,614.033 947.047,622.534 
		951.046,639.034 969.544,644.035 977.042,651.535 987.041,654.035 1030.536,657.535 1036.535,673.536 1059.533,691.537 
		1080.029,699.538 1113.025,709.538 1142.022,714.039 1170.519,706.037 1185.017,705.038 1202.015,695.537 1238.51,685.537 
		1254.508,680.536 1284.504,682.537 1284.504,675.037 1284.504,670.536 1284.504,659.036 1274.006,646.534 1277.505,640.533 
		1273.505,636.034 1273.505,629.034 1265.006,618.033 1261.007,595.532 1264.507,576.531 1258.007,548.53 1262.007,522.527 
		1262.507,513.027 1257.008,498.027 1247.009,494.526 1227.512,483.026 1219.513,474.024 1205.014,479.526 1210.014,462.525 
		1231.511,456.023 1238.01,455.024 1225.012,440.523 1224.012,426.523 1178.018,425.522 1175.018,409.522 1170.519,395.021 
		1177.518,360.519 1178.018,335.018 1172.018,321.517 1173.518,313.517 1161.52,300.516 1146.521,287.516 1145.521,273.015 
		1140.522,260.014 1143.021,244.013 1157.521,219.512 1157.521,203.512 1137.522,195.511 1116.525,199.011 1099.027,193.51 
		1088.528,178.51 1063.532,174.009 1075.53,160.009 1068.032,154.509 1064.031,146.008 1057.032,145.008 1048.034,133.007 
		1039.535,112.005 1029.036,93.505 1014.038,87.505 1000.54,83.005 992.541,79.504 998.04,67.504 1023.537,60.503 1033.785,68.004 
		1054.033,67.504 1071.531,65.503 1054.033,53.003 1042.034,41.002 1031.036,43.502 1046.034,21.001 1053.033,17.001 1053.033,9 
		1058.033,0 	"/>
	<polyline fill="none" stroke="#1E1E7C" stroke-width="3" points="0.167,688.037 14.665,678.037 29.663,678.037 35.662,683.037 
		44.661,688.037 47.16,697.038 57.659,697.038 68.658,702.538 74.157,695.537 74.157,690.287 81.656,687.038 99.654,678.037 
		110.652,678.037 118.651,685.036 118.651,705.038 111.152,710.038 87.656,719.038 86.156,727.539 90.655,736.039 90.655,754.541 
		86.156,758.04 84.156,762.041 	"/>
	<path fill="none" stroke="#12B500" stroke-width="4" d="M968.419,434.733c0,0-26.017-14.211-32.193-6.21
		c-6.177,7.999-42.071-8.001-47.37-15.001c-5.301-7.001-142.508-20.501-151.646-33.002c-9.136-12.5-116.853-92.523-163.232-56.012
		c-46.379,36.511-67.017,148.523-126.564,155.626c-59.547,7.103-181.282,5.56-204.779,17.477
		c-23.497,11.916-117.985,53.838-134.983,178.136"/>
	<path fill="none" stroke="#FC5B5B" stroke-width="4" d="M968.419,434.733c0,0-26.538-21.538-34.871-10.375
		c-8.331,11.165-43.727-12.862-44.692-14.517c-0.968-1.652-115.613-16.241-149.501-35.447
		c-33.889-19.206-43.276-41.543-43.276-41.543s7.833-36.827-44.161-31.081c-51.993,5.745-158.349-10.143-158.349-10.143"/>
	<path fill="none" stroke="#BA9F00" stroke-width="4" d="M968.42,434.733c0,0-21.118-6.926-29.653,0
		c-8.535,6.925-46.213-8.229-54.212-13.72c-7.999-5.491-117.136-7.08-142.8-32.744c-25.666-25.665-44.432-54.371-76.467-56.228
		c-32.035-1.857-75.363-39.859-117.357,35.478c-41.995,75.339-53.575,136.094-170.436,119.717"/>
	<path fill="none" stroke="#BA9F00" stroke-width="4" stroke-dasharray="12" d="M377.495,487.236c0,0-94.824,3.125-117.175,10.375
		C237.97,504.86-5.333,315.043-5.333,315.043"/>
	<line fill="none" stroke="#BA9F00" stroke-width="4" stroke-dasharray="12" x1="1190.666" y1="424.358" x2="968.42" y2="434.733"/>
	<path fill="none" stroke="#4A85DD" stroke-width="4" d="M968.419,434.733c0,0-16.203,4.437-10.372-13.72
		c5.831-18.158,24.328-8.721,20.746-16.107c-3.583-7.386-76.422-100.306-76.422-100.306l-38.052-43.486l-38.424-57.602v-10.668
		l-45.994-73.336c0,0-125.975-20.001-178.64,16C548.597,171.509,443.294,19.501,443.294,19.501L273.632,53.503"/>
	<circle cx="377.495" cy="487.237" r="10.373"/>
	<circle cx="494.479" cy="294.227" r="10.373"/>
	<circle cx="273.507" cy="53.714" r="10.373"/>
	<circle cx="968.42" cy="434.734" r="10.373"/>
	<circle cx="107.653" cy="675.748" r="10.373"/>
	<polygon fill="#F9CF00" stroke="#020202" points="674.081,302.167 677.709,309.521 685.823,310.701 679.953,316.425 
		681.339,324.508 674.081,320.692 666.823,324.508 668.209,316.425 662.339,310.701 670.453,309.521 	"/>
	<polygon fill="#F9CF00" stroke="#020202" points="1001.039,398.672 1004.668,406.026 1012.782,407.206 1006.912,412.931 
		1008.298,421.014 1001.039,417.198 993.782,421.014 995.167,412.931 989.297,407.206 997.411,406.026 	"/>
	<polygon fill="#F9CF00" stroke="#020202" points="1188.017,413.189 1191.645,420.543 1199.759,421.722 1193.889,427.447 
		1195.273,435.529 1188.017,431.714 1180.759,435.529 1182.144,427.447 1176.273,421.722 1184.388,420.543 	"/>
	<g>
		<path fill="#FDFFFF" d="M74.947,170.067c1.68-0.35,3.884-0.56,6.195-0.56c2.485,0,4.27,0.314,5.845,1.225
			c1.575,0.805,2.729,2.345,2.729,4.341c0,2.976-2.17,4.866-4.759,5.601v0.105c2.274,0.7,3.709,2.555,3.709,5.146
			c0,2.555-1.365,4.376-3.22,5.601c-1.995,1.365-4.97,1.925-8.89,1.925c-2.661,0-4.795-0.174-5.95-0.42L74.947,170.067z
			 M76.207,189.426c0.594,0.07,1.19,0.07,1.925,0.07c2.729,0,5.215-1.086,5.215-3.71c0-2.347-1.959-3.046-4.305-3.046h-1.575
			L76.207,189.426z M78.237,179.064h1.68c2.765,0,4.654-1.191,4.654-3.22c0-1.68-1.365-2.416-3.29-2.416
			c-0.875,0-1.61,0.07-1.995,0.14L78.237,179.064z"/>
		<path fill="#FDFFFF" d="M98.918,169.683h5.04l-3.64,19.183h9.065l-0.841,4.411H94.439L98.918,169.683z"/>
		<path fill="#FDFFFF" d="M122.016,187.15l-2.765,6.126h-5.39l11.479-23.594h6.475l2.765,23.594h-5.32l-0.455-6.126H122.016z
			 M128.595,183.299l-0.49-5.076c-0.07-1.295-0.21-3.186-0.315-4.621h-0.07c-0.596,1.435-1.26,3.256-1.89,4.621l-2.345,5.076
			H128.595z"/>
		<path fill="#FDFFFF" d="M157.292,192.611c-1.259,0.56-3.36,1.015-6.195,1.015c-6.265,0-10.43-3.815-10.43-10.011
			c0-5.286,2.38-9.417,5.95-11.797c2.45-1.68,5.32-2.485,8.645-2.485c2.555,0,4.479,0.594,5.18,0.98l-1.4,4.094
			c-0.665-0.314-2.24-0.77-4.27-0.77c-2.03,0-3.955,0.63-5.39,1.821c-1.96,1.645-3.255,4.306-3.255,7.596
			c0,3.746,2.135,6.266,6.265,6.266c1.68,0,3.325-0.28,4.48-0.771L157.292,192.611z"/>
		<path fill="#FDFFFF" d="M168,169.683h4.97l-1.995,10.537h0.105c0.7-1.015,1.435-1.856,2.1-2.695l6.544-7.842h6.3l-9.555,10.187
			l5.46,13.407h-5.46l-3.955-10.257l-2.52,2.38l-1.505,7.877h-4.97L168,169.683z"/>
		<path fill="#FDFFFF" d="M198.62,187.815c1.399,0.84,3.395,1.505,5.564,1.505c1.96,0,3.745-0.911,3.745-2.73
			c0-1.365-1.015-2.206-3.186-3.361c-2.484-1.33-4.864-3.186-4.864-6.231c0-4.795,4.13-7.666,9.274-7.666
			c2.87,0,4.55,0.629,5.565,1.154l-1.575,4.202c-0.77-0.42-2.45-1.051-4.375-1.016c-2.38,0-3.604,1.156-3.604,2.451
			c0,1.365,1.435,2.24,3.429,3.36c2.87,1.47,4.69,3.396,4.69,6.232c0,5.25-4.34,7.946-9.59,7.946
			c-3.29-0.035-5.635-0.876-6.755-1.68L198.62,187.815z"/>
		<path fill="#FDFFFF" d="M234.282,183.265h-8.365l-1.085,5.706h9.415l-0.804,4.306h-14.49l4.48-23.594h13.964l-0.839,4.305h-8.89
			l-0.98,5.041h8.435L234.282,183.265z"/>
		<path fill="#FDFFFF" d="M247.054,187.15l-2.765,6.126h-5.39l11.479-23.594h6.475l2.765,23.594h-5.32l-0.455-6.126H247.054z
			 M253.634,183.299l-0.49-5.076c-0.07-1.295-0.21-3.186-0.315-4.621h-0.07c-0.595,1.435-1.26,3.256-1.89,4.621l-2.345,5.076
			H253.634z"/>
	</g>
	<g>
		<path fill="#FFFFFF" d="M965.759,283.187c-1.26,0.56-3.359,1.015-6.194,1.015c-6.265,0-10.431-3.815-10.431-10.012
			c0-5.286,2.382-9.417,5.951-11.796c2.449-1.68,5.319-2.486,8.644-2.486c2.557,0,4.48,0.595,5.181,0.98l-1.4,4.095
			c-0.665-0.314-2.24-0.77-4.27-0.77c-2.03,0-3.954,0.63-5.391,1.821c-1.959,1.645-3.254,4.306-3.254,7.596
			c0,3.746,2.134,6.266,6.265,6.266c1.68,0,3.324-0.28,4.479-0.771L965.759,283.187z"/>
		<path fill="#FFFFFF" d="M978.741,277.725l-2.766,6.126h-5.39l11.48-23.594h6.474l2.766,23.594h-5.319l-0.456-6.126H978.741z
			 M985.321,273.875l-0.49-5.076c-0.071-1.294-0.21-3.185-0.315-4.62h-0.069c-0.596,1.436-1.261,3.255-1.891,4.62l-2.345,5.076
			H985.321z"/>
		<path fill="#FFFFFF" d="M998.373,278.391c1.399,0.84,3.394,1.505,5.564,1.505c1.96,0,3.745-0.91,3.745-2.73
			c0-1.365-1.016-2.206-3.186-3.36c-2.484-1.33-4.864-3.186-4.864-6.231c0-4.796,4.13-7.667,9.274-7.667
			c2.87,0,4.551,0.63,5.565,1.155l-1.575,4.201c-0.771-0.42-2.449-1.05-4.375-1.016c-2.38,0-3.604,1.156-3.604,2.451
			c0,1.365,1.435,2.24,3.429,3.361c2.871,1.471,4.69,3.396,4.69,6.23c0,5.251-4.34,7.947-9.589,7.947
			c-3.29-0.035-5.636-0.875-6.756-1.68L998.373,278.391z"/>
		<path fill="#FFFFFF" d="M1023.08,260.678c1.539-0.385,3.885-0.595,6.159-0.595c2.135,0,4.55,0.349,6.266,1.54
			c1.609,1.085,2.555,2.766,2.555,5.041c0,2.94-1.364,5.215-3.185,6.616c-1.926,1.505-4.69,2.206-7.561,2.206
			c-0.841,0-1.541-0.105-2.064-0.14l-1.61,8.506h-4.936L1023.08,260.678z M1026.02,271.214c0.524,0.105,1.086,0.175,1.96,0.175
			c3.01,0,5.005-1.925,5.005-4.305c0-2.241-1.645-2.976-3.57-2.976c-0.945,0-1.645,0.07-2.065,0.139L1026.02,271.214z"/>
		<path fill="#FFFFFF" d="M1051.355,260.258l-4.479,23.594h-5.04l4.48-23.594H1051.355z"/>
		<path fill="#FFFFFF" d="M1061.539,277.725l-2.765,6.126h-5.391l11.479-23.594h6.476l2.765,23.594h-5.32l-0.454-6.126H1061.539z
			 M1068.119,273.875l-0.49-5.076c-0.07-1.294-0.21-3.185-0.314-4.62h-0.069c-0.597,1.436-1.262,3.255-1.891,4.62l-2.346,5.076
			H1068.119z"/>
		<path fill="#FFFFFF" d="M1080.156,283.852l4.48-23.594h5.914l3.115,8.996c0.943,3.01,1.575,5.461,2.134,8.051h0.105
			c0.105-2.416,0.456-5.006,1.085-8.472l1.611-8.576h4.725l-4.48,23.594h-5.215l-3.29-9.417c-1.051-3.185-1.68-5.355-2.311-8.227
			h-0.104c-0.246,2.311-0.805,5.671-1.505,9.382l-1.575,8.261H1080.156z"/>
		<path fill="#FFFFFF" d="M994.506,320.393c1.398,0.84,3.394,1.505,5.564,1.505c1.96,0,3.745-0.911,3.745-2.73
			c0-1.366-1.017-2.206-3.187-3.361c-2.484-1.329-4.863-3.186-4.863-6.231c0-4.795,4.129-7.666,9.273-7.666
			c2.871,0,4.551,0.629,5.565,1.154l-1.574,4.202c-0.771-0.42-2.45-1.051-4.376-1.016c-2.379,0-3.604,1.155-3.604,2.451
			c0,1.365,1.435,2.24,3.43,3.36c2.87,1.47,4.69,3.396,4.69,6.231c0,5.251-4.341,7.946-9.59,7.946
			c-3.29-0.035-5.635-0.875-6.755-1.68L994.506,320.393z"/>
		<path fill="#FFFFFF" d="M1030.167,315.841h-8.365l-1.085,5.706h9.415l-0.806,4.306h-14.489l4.48-23.593h13.965l-0.841,4.305h-8.89
			l-0.979,5.041h8.435L1030.167,315.841z"/>
		<path fill="#FFFFFF" d="M1042.939,319.728l-2.766,6.125h-5.39l11.479-23.593h6.475l2.766,23.593h-5.319l-0.456-6.125H1042.939z
			 M1049.52,315.877l-0.49-5.076c-0.071-1.295-0.21-3.186-0.315-4.62h-0.07c-0.595,1.434-1.26,3.255-1.89,4.62l-2.345,5.076H1049.52
			z"/>
	</g>
	<g>
		<path d="M269.42,593.313h-9.1v-6.401h25.898v6.401h-9.199v27.304h-7.599V593.313z"/>
		<path d="M297.866,586.911v19.353c0,5.851,2.25,8.8,6.099,8.8c4,0,6.2-2.799,6.2-8.8v-19.353h7.599v18.902
			c0,10.401-5.249,15.352-14.049,15.352c-8.499,0-13.449-4.75-13.449-15.451v-18.803H297.866z"/>
		<path d="M324.361,587.362c2.45-0.402,6.05-0.7,10.149-0.7c5,0,8.5,0.75,10.899,2.65c2.05,1.599,3.149,4,3.149,7.101
			c0,4.251-3.049,7.201-5.949,8.251v0.148c2.35,0.952,3.65,3.151,4.5,6.252c1.049,3.851,2.049,8.251,2.7,9.552h-7.8
			c-0.5-1-1.35-3.701-2.299-7.853c-0.95-4.249-2.4-5.351-5.55-5.4h-2.25v13.253h-7.549V587.362z M331.91,601.863h3
			c3.799,0,6.049-1.901,6.049-4.851c0-3.051-2.1-4.65-5.6-4.65c-1.85,0-2.899,0.101-3.45,0.25V601.863z"/>
		<path d="M354.007,586.911h7.549v14.903h0.1c0.75-1.302,1.55-2.501,2.35-3.701l7.6-11.202h9.399l-11.149,14.352l11.699,19.354
			h-8.85l-8.3-14.553l-2.849,3.552v11.001h-7.549V586.911z"/>
		<path d="M404.751,606.363h-12.399v8.002h13.849v6.251h-21.449v-33.705h20.749v6.251h-13.149v7.001h12.399V606.363z"/>
		<path d="M419.199,620.616v-13.802l-10.649-19.903h8.749l3.4,8.102c1.05,2.45,1.8,4.251,2.6,6.45h0.1
			c0.75-2.099,1.55-4.051,2.55-6.45l3.4-8.102h8.549l-11.099,19.653v14.052H419.199z"/>
	</g>
	<g>
		<path d="M801.264,455.961l-1.37,4.941h-4.482l5.853-19.244h5.709l5.994,19.244h-4.709l-1.485-4.941H801.264z M806.145,452.708
			l-1.198-4.083c-0.343-1.142-0.686-2.57-0.971-3.711h-0.058c-0.284,1.141-0.57,2.598-0.885,3.711l-1.143,4.083H806.145z"/>
		<path d="M814.48,458.561l9.162-13.19v-0.113h-8.335v-3.599h13.959v2.512l-8.964,13.021v0.113h9.106v3.599H814.48V458.561z"/>
		<path d="M843.596,452.765h-7.078v4.568h7.906v3.569h-12.246v-19.244h11.847v3.569h-7.507v3.997h7.078V452.765z"/>
		<path d="M847.393,441.916c1.398-0.229,3.455-0.399,5.795-0.399c2.854,0,4.853,0.428,6.223,1.513
			c1.171,0.914,1.799,2.284,1.799,4.054c0,2.427-1.741,4.111-3.396,4.712v0.085c1.341,0.542,2.083,1.799,2.568,3.569
			c0.6,2.197,1.171,4.71,1.542,5.453h-4.453c-0.286-0.572-0.771-2.113-1.314-4.482c-0.541-2.428-1.369-3.056-3.168-3.084h-1.284
			v7.566h-4.311V441.916z M851.703,450.195h1.713c2.17,0,3.453-1.085,3.453-2.77c0-1.742-1.198-2.654-3.196-2.654
			c-1.057,0-1.655,0.057-1.97,0.143V450.195z"/>
		<path d="M864.319,441.916c1.143-0.201,3.427-0.399,5.625-0.399c2.654,0,4.281,0.256,5.709,1.084
			c1.342,0.714,2.283,2.027,2.283,3.798c0,1.684-0.999,3.255-3.169,4.083v0.058c2.198,0.569,3.825,2.254,3.825,4.71
			c0,1.769-0.799,3.14-1.998,4.111c-1.398,1.112-3.739,1.741-7.564,1.741c-2.141,0-3.739-0.144-4.711-0.285V441.916z
			 M868.63,449.281h1.429c2.312,0,3.51-0.942,3.51-2.369c0-1.457-1.113-2.227-3.083-2.227c-0.97,0-1.513,0.057-1.855,0.114V449.281z
			 M868.63,457.819c0.429,0.057,0.943,0.057,1.686,0.057c1.97,0,3.71-0.772,3.71-2.799c0-1.913-1.74-2.684-3.911-2.684h-1.484
			V457.819z"/>
		<path d="M885.93,455.961l-1.37,4.941h-4.482l5.853-19.244h5.709l5.994,19.244h-4.709l-1.484-4.941H885.93z M890.811,452.708
			l-1.199-4.083c-0.342-1.142-0.685-2.57-0.97-3.711h-0.058c-0.285,1.141-0.57,2.598-0.884,3.711l-1.143,4.083H890.811z"/>
		<path d="M904.54,441.658v19.244h-4.338v-19.244H904.54z"/>
		<path d="M912.077,441.658h4.339v12.164c0,5.481-2.627,7.394-6.823,7.394c-1.026,0-2.34-0.172-3.196-0.456l0.485-3.513
			c0.6,0.2,1.37,0.343,2.227,0.343c1.827,0,2.969-0.827,2.969-3.796V441.658z"/>
		<path d="M924.522,455.961l-1.37,4.941h-4.481l5.852-19.244h5.709l5.994,19.244h-4.709l-1.484-4.941H924.522z M929.403,452.708
			l-1.199-4.083c-0.342-1.142-0.684-2.57-0.97-3.711h-0.057c-0.286,1.141-0.572,2.598-0.886,3.711l-1.142,4.083H929.403z"/>
		<path d="M938.767,460.902v-19.244h5.081l3.997,7.053c1.142,2.027,2.255,4.424,3.14,6.595h0.057
			c-0.256-2.541-0.343-5.14-0.343-8.052v-5.596h3.997v19.244h-4.567l-4.11-7.424c-1.142-2.056-2.427-4.538-3.339-6.796h-0.115
			c0.144,2.57,0.199,5.283,0.199,8.423v5.797H938.767z"/>
	</g>
	<g>
		<path d="M710.771,517.567l-1.289,4.641h-4.21l5.499-18.081h5.363l5.633,18.081h-4.426l-1.395-4.641H710.771z M715.356,514.508
			l-1.127-3.837c-0.322-1.072-0.644-2.412-0.912-3.485h-0.054c-0.268,1.073-0.536,2.439-0.831,3.485l-1.073,3.837H715.356z"/>
		<path d="M723.184,520.008l8.61-12.394v-0.106h-7.832v-3.381h13.115v2.361l-8.422,12.232v0.107h8.556v3.38h-14.027V520.008z"/>
		<path d="M739.354,520.034c0-1.476,0.992-2.494,2.415-2.494c1.394,0,2.359,0.992,2.386,2.494c0,1.422-0.966,2.468-2.439,2.468
			C740.347,522.502,739.354,521.456,739.354,520.034z"/>
	</g>
	<g>
		<path d="M512.88,271.064c-1.528,0.521-4.421,1.235-7.315,1.235c-3.999,0-6.892-1.008-8.908-2.927
			c-1.983-1.918-3.088-4.78-3.088-7.999c0.032-7.284,5.332-11.446,12.517-11.446c2.829,0,5.007,0.553,6.08,1.04l-1.041,4
			c-1.203-0.553-2.666-0.944-5.071-0.944c-4.129,0-7.283,2.31-7.283,7.09c0,4.553,2.861,7.187,6.925,7.187
			c1.105,0,2.016-0.13,2.406-0.293v-4.618h-3.382v-3.869h8.161V271.064z"/>
		<path d="M529.79,262.805h-8.063v5.203h9.006v4.065h-13.948v-21.918h13.492v4.065h-8.55v4.552h8.063V262.805z"/>
		<path d="M554.176,260.887c0,7.219-4.324,11.544-10.762,11.544c-6.47,0-10.306-4.911-10.306-11.188
			c0-6.568,4.227-11.478,10.664-11.478C550.502,249.765,554.176,254.805,554.176,260.887z M538.343,261.146
			c0,4.325,2.016,7.35,5.332,7.35c3.349,0,5.267-3.187,5.267-7.447c0-3.967-1.854-7.349-5.267-7.349
			C540.293,253.7,538.343,256.886,538.343,261.146z"/>
		<path d="M557.43,250.448c1.594-0.261,3.935-0.455,6.6-0.455c3.251,0,5.527,0.488,7.088,1.723c1.333,1.041,2.049,2.602,2.049,4.618
			c0,2.763-1.984,4.682-3.869,5.365v0.097c1.528,0.618,2.373,2.049,2.926,4.065c0.683,2.504,1.333,5.366,1.755,6.211h-5.071
			c-0.325-0.651-0.878-2.407-1.496-5.105c-0.618-2.765-1.561-3.479-3.608-3.512h-1.463v8.617h-4.91V250.448z M562.34,259.877h1.95
			c2.472,0,3.934-1.235,3.934-3.153c0-1.984-1.365-3.024-3.641-3.024c-1.203,0-1.885,0.065-2.243,0.162V259.877z"/>
		<path d="M594.887,271.064c-1.528,0.521-4.421,1.235-7.315,1.235c-4,0-6.893-1.008-8.909-2.927
			c-1.983-1.918-3.088-4.78-3.088-7.999c0.032-7.284,5.332-11.446,12.517-11.446c2.828,0,5.007,0.553,6.08,1.04l-1.041,4
			c-1.203-0.553-2.666-0.944-5.071-0.944c-4.13,0-7.283,2.31-7.283,7.09c0,4.553,2.861,7.187,6.925,7.187
			c1.105,0,2.016-0.13,2.406-0.293v-4.618h-3.381v-3.869h8.161V271.064z"/>
		<path d="M603.733,250.155v21.918h-4.942v-21.918H603.733z"/>
		<path d="M613.129,266.447l-1.561,5.626h-5.104l6.665-21.918h6.503l6.828,21.918h-5.365l-1.69-5.626H613.129z M618.689,262.74
			l-1.366-4.65c-0.39-1.301-0.78-2.927-1.105-4.228h-0.065c-0.325,1.301-0.65,2.959-1.008,4.228l-1.301,4.65H618.689z"/>
	</g>
	<g>
		<path d="M548.247,29.75c2.45-0.4,6.049-0.7,10.149-0.7c5,0,8.5,0.75,10.9,2.65c2.05,1.6,3.149,4,3.149,7.1
			c0,4.25-3.05,7.201-5.95,8.251v0.151c2.35,0.949,3.65,3.149,4.5,6.25c1.05,3.851,2.049,8.251,2.7,9.551h-7.8
			c-0.5-1-1.35-3.701-2.299-7.851c-0.95-4.25-2.4-5.351-5.55-5.401h-2.25v13.251h-7.549V29.75z M555.796,44.252h3
			c3.799,0,6.05-1.9,6.05-4.851c0-3.051-2.1-4.651-5.6-4.651c-1.85,0-2.899,0.1-3.45,0.25V44.252z"/>
		<path d="M585.242,29.299v19.352c0,5.851,2.25,8.801,6.099,8.801c4,0,6.2-2.8,6.2-8.801V29.299h7.6v18.902
			c0,10.401-5.249,15.352-14.049,15.352c-8.5,0-13.449-4.751-13.449-15.452V29.299H585.242z"/>
		<path d="M611.988,55.153c2,1.05,5.2,2.1,8.45,2.1c3.5,0,5.35-1.45,5.35-3.65c0-2.101-1.6-3.3-5.65-4.701
			c-5.6-2-9.299-5.1-9.299-10.001c0-5.75,4.85-10.101,12.749-10.101c3.85,0,6.6,0.75,8.6,1.7l-1.7,6.101
			c-1.3-0.65-3.75-1.601-7-1.601c-3.3,0-4.9,1.55-4.9,3.25c0,2.15,1.851,3.101,6.25,4.751c5.95,2.2,8.699,5.301,8.699,10.051
			c0,5.651-4.3,10.451-13.549,10.451c-3.849,0-7.649-1.049-9.55-2.1L611.988,55.153z"/>
		<path d="M638.984,55.153c2,1.05,5.199,2.1,8.449,2.1c3.5,0,5.35-1.45,5.35-3.65c0-2.101-1.6-3.3-5.649-4.701
			c-5.6-2-9.3-5.1-9.3-10.001c0-5.75,4.85-10.101,12.75-10.101c3.85,0,6.6,0.75,8.6,1.7l-1.701,6.101
			c-1.299-0.65-3.749-1.601-7-1.601c-3.3,0-4.899,1.55-4.899,3.25c0,2.15,1.85,3.101,6.25,4.751c5.95,2.2,8.699,5.301,8.699,10.051
			c0,5.651-4.299,10.451-13.549,10.451c-3.85,0-7.649-1.049-9.549-2.1L638.984,55.153z"/>
		<path d="M673.38,29.299v33.704h-7.6V29.299H673.38z"/>
		<path d="M687.828,54.353l-2.401,8.651h-7.849l10.25-33.704h9.998l10.499,33.704h-8.249l-2.6-8.651H687.828z M696.378,48.651
			l-2.102-7.15c-0.6-2-1.199-4.5-1.699-6.501h-0.1c-0.5,2.001-1,4.55-1.551,6.501l-2,7.15H696.378z"/>
	</g>
	<text transform="matrix(0.5258 0.8507 -0.8505 0.5259 1185.7422 284.6899)" font-family="'MyriadPro-Bold'" font-size="26.9991">TURKMENISTAN</text>
	<g>
		<path d="M133.576,680.782c-0.62,0.322-1.92,0.64-3.56,0.64c-3.801,0-6.641-2.4-6.641-6.841c0-4.242,2.86-7.083,7.041-7.083
			c1.66,0,2.741,0.361,3.2,0.603l-0.439,1.419c-0.641-0.319-1.581-0.56-2.701-0.56c-3.161,0-5.26,2.02-5.26,5.561
			c0,3.321,1.899,5.421,5.16,5.421c1.08,0,2.16-0.219,2.86-0.56L133.576,680.782z"/>
		<path d="M136.474,676.683c0.04,2.379,1.54,3.36,3.32,3.36c1.26,0,2.04-0.22,2.68-0.5l0.319,1.26
			c-0.62,0.281-1.699,0.619-3.24,0.619c-2.98,0-4.76-1.979-4.76-4.9s1.72-5.202,4.54-5.202c3.181,0,4,2.763,4,4.543
			c0,0.358-0.02,0.619-0.06,0.82H136.474z M141.634,675.421c0.02-1.101-0.46-2.841-2.44-2.841c-1.8,0-2.56,1.621-2.7,2.841H141.634z
			"/>
		<path d="M146.152,671.521l2.1,5.721c0.24,0.641,0.48,1.4,0.64,1.98h0.04c0.18-0.58,0.38-1.32,0.62-2.02l1.92-5.682h1.861
			l-2.64,6.902c-1.26,3.32-2.121,5.001-3.32,6.061c-0.88,0.739-1.72,1.041-2.161,1.121l-0.439-1.461
			c0.439-0.14,1.02-0.42,1.54-0.861c0.48-0.379,1.061-1.06,1.48-1.96c0.081-0.178,0.141-0.318,0.141-0.419s-0.04-0.241-0.141-0.461
			l-3.56-8.922H146.152z"/>
		<path d="M154.931,666.999h1.76v6.062h0.04c0.28-0.5,0.72-0.959,1.26-1.261c0.52-0.3,1.14-0.48,1.8-0.48
			c1.3,0,3.381,0.802,3.381,4.121v5.762h-1.76v-5.562c0-1.559-0.58-2.86-2.24-2.86c-1.14,0-2.02,0.8-2.36,1.74
			c-0.1,0.261-0.12,0.521-0.12,0.841v5.841h-1.76V666.999z"/>
		<path d="M172.83,678.882c0,0.841,0.04,1.66,0.14,2.32h-1.581l-0.14-1.22h-0.06c-0.541,0.76-1.58,1.439-2.96,1.439
			c-1.96,0-2.96-1.379-2.96-2.78c0-2.342,2.081-3.62,5.821-3.6v-0.202c0-0.778-0.221-2.239-2.201-2.22c-0.92,0-1.86,0.26-2.54,0.721
			l-0.4-1.18c0.8-0.501,1.98-0.842,3.2-0.842c2.96,0,3.681,2.021,3.681,3.941V678.882z M171.13,676.26
			c-1.92-0.039-4.101,0.303-4.101,2.183c0,1.16,0.76,1.681,1.64,1.681c1.28,0,2.1-0.802,2.38-1.62c0.061-0.2,0.081-0.4,0.081-0.562
			V676.26z"/>
		<path d="M175.668,674.142c0-1.021-0.02-1.821-0.08-2.621h1.56l0.1,1.6h0.04c0.48-0.898,1.601-1.801,3.2-1.801
			c1.34,0,3.42,0.802,3.42,4.121v5.762h-1.76v-5.581c0-1.56-0.58-2.86-2.241-2.86c-1.14,0-2.04,0.819-2.36,1.8
			c-0.081,0.221-0.12,0.521-0.12,0.82v5.821h-1.76V674.142z"/>
	</g>
	<g>
		<path d="M350.791,506.206h-5.221v4.861h5.841v1.46h-7.601v-13.483h7.3v1.46h-5.541v4.261h5.221V506.206z"/>
		<path d="M353.608,505.866c0-1.142-0.02-2.122-0.08-3.021h1.54l0.08,1.92h0.061c0.44-1.299,1.521-2.119,2.7-2.119
			c0.18,0,0.32,0.02,0.48,0.04v1.66c-0.18-0.04-0.36-0.04-0.6-0.04c-1.24,0-2.12,0.92-2.36,2.241c-0.04,0.239-0.06,0.539-0.06,0.82
			v5.16h-1.76V505.866z"/>
		<path d="M359.227,511.508l4.361-5.702c0.439-0.539,0.839-1,1.28-1.521v-0.04h-5.241v-1.4h7.361v1.102l-4.32,5.619
			c-0.42,0.542-0.8,1.04-1.24,1.521v0.04h5.641v1.4h-7.841V511.508z"/>
		<path d="M376.986,509.868c0,1.019,0.02,1.899,0.081,2.659h-1.561l-0.1-1.58h-0.04c-0.44,0.78-1.48,1.801-3.201,1.801
			c-1.521,0-3.34-0.86-3.34-4.24v-5.663h1.76v5.342c0,1.841,0.58,3.102,2.16,3.102c1.18,0,2-0.821,2.32-1.622
			c0.101-0.239,0.161-0.559,0.161-0.899v-5.922h1.76V509.868z"/>
		<path d="M379.904,505.866c0-1.142-0.02-2.122-0.08-3.021h1.54l0.08,1.92h0.06c0.44-1.299,1.52-2.119,2.7-2.119
			c0.18,0,0.32,0.02,0.48,0.04v1.66c-0.18-0.04-0.36-0.04-0.6-0.04c-1.24,0-2.12,0.92-2.36,2.241c-0.04,0.239-0.06,0.539-0.06,0.82
			v5.16h-1.76V505.866z"/>
		<path d="M394.544,509.868c0,1.019,0.02,1.899,0.08,2.659h-1.56l-0.1-1.58h-0.04c-0.441,0.78-1.48,1.801-3.201,1.801
			c-1.521,0-3.34-0.86-3.34-4.24v-5.663h1.76v5.342c0,1.841,0.58,3.102,2.161,3.102c1.18,0,2-0.821,2.32-1.622
			c0.1-0.239,0.16-0.559,0.16-0.899v-5.922h1.76V509.868z"/>
		<path d="M397.462,505.466c0-1.021-0.04-1.821-0.08-2.621h1.54l0.08,1.581h0.06c0.54-0.92,1.44-1.78,3.061-1.78
			c1.3,0,2.3,0.8,2.72,1.94h0.04c0.3-0.56,0.7-0.962,1.1-1.261c0.581-0.44,1.2-0.68,2.12-0.68c1.3,0,3.201,0.84,3.201,4.2v5.682
			h-1.72v-5.461c0-1.881-0.7-2.98-2.1-2.98c-1.021,0-1.78,0.74-2.101,1.58c-0.08,0.26-0.14,0.56-0.14,0.881v5.98h-1.721v-5.802
			c0-1.54-0.68-2.64-2.02-2.64c-1.08,0-1.9,0.88-2.18,1.76c-0.101,0.24-0.14,0.561-0.14,0.859v5.822h-1.72V505.466z"/>
	</g>
	<g>
		<path d="M433.335,300.046c0.78,0.5,1.9,0.88,3.1,0.88c1.78,0,2.821-0.941,2.821-2.301c0-1.24-0.72-1.979-2.54-2.66
			c-2.201-0.8-3.561-1.961-3.561-3.841c0-2.101,1.741-3.662,4.361-3.662c1.36,0,2.38,0.32,2.96,0.66l-0.48,1.42
			c-0.42-0.259-1.32-0.639-2.54-0.639c-1.841,0-2.541,1.1-2.541,2.021c0,1.26,0.82,1.88,2.68,2.601
			c2.281,0.88,3.421,1.98,3.421,3.961c0,2.08-1.521,3.901-4.701,3.901c-1.3,0-2.72-0.401-3.44-0.881L433.335,300.046z"/>
		<path d="M451.455,299.506c0,1.021,0.02,1.901,0.08,2.662h-1.561l-0.099-1.581h-0.04c-0.441,0.781-1.48,1.801-3.201,1.801
			c-1.521,0-3.34-0.861-3.34-4.242v-5.662h1.76v5.342c0,1.841,0.58,3.101,2.16,3.101c1.18,0,2-0.82,2.32-1.621
			c0.1-0.24,0.161-0.56,0.161-0.899v-5.922h1.76V299.506z"/>
		<path d="M454.373,295.645c0-1.24-0.04-2.24-0.08-3.161h1.56l0.1,1.661h0.04c0.701-1.18,1.86-1.861,3.441-1.861
			c2.36,0,4.12,1.98,4.12,4.902c0,3.48-2.14,5.202-4.42,5.202c-1.28,0-2.4-0.56-2.98-1.521h-0.04v5.261h-1.74V295.645z
			 M456.113,298.226c0,0.26,0.02,0.5,0.08,0.72c0.32,1.22,1.381,2.061,2.641,2.061c1.86,0,2.94-1.521,2.94-3.741
			c0-1.92-1.02-3.582-2.88-3.582c-1.2,0-2.341,0.84-2.66,2.161c-0.061,0.219-0.12,0.479-0.12,0.7V298.226z"/>
		<path d="M465.511,300.387c0.54,0.319,1.46,0.68,2.34,0.68c1.26,0,1.86-0.621,1.86-1.44c0-0.84-0.5-1.28-1.78-1.761
			c-1.76-0.64-2.58-1.581-2.58-2.741c0-1.562,1.28-2.841,3.34-2.841c0.98,0,1.84,0.26,2.36,0.601l-0.42,1.28
			c-0.38-0.239-1.08-0.58-1.98-0.58c-1.041,0-1.6,0.6-1.6,1.321c0,0.8,0.56,1.16,1.82,1.661c1.66,0.62,2.541,1.459,2.541,2.9
			c0,1.721-1.34,2.922-3.601,2.922c-1.06,0-2.04-0.281-2.72-0.681L465.511,300.387z"/>
		<path d="M480.471,299.847c0,0.839,0.04,1.66,0.14,2.32h-1.581l-0.139-1.221h-0.061c-0.54,0.76-1.58,1.441-2.96,1.441
			c-1.96,0-2.96-1.38-2.96-2.781c0-2.34,2.08-3.621,5.82-3.602v-0.2c0-0.78-0.22-2.242-2.201-2.221c-0.919,0-1.86,0.261-2.54,0.721
			l-0.4-1.181c0.8-0.5,1.98-0.84,3.201-0.84c2.959,0,3.68,2.021,3.68,3.941V299.847z M478.771,297.226
			c-1.92-0.04-4.101,0.3-4.101,2.18c0,1.16,0.76,1.681,1.64,1.681c1.28,0,2.1-0.8,2.38-1.622c0.06-0.199,0.08-0.399,0.08-0.559
			V297.226z"/>
	</g>
	<g>
		<path d="M971.527,457.07c0.78,0.501,1.901,0.881,3.102,0.881c1.78,0,2.82-0.941,2.82-2.301c0-1.241-0.721-1.98-2.541-2.66
			c-2.2-0.801-3.56-1.962-3.56-3.841c0-2.102,1.739-3.662,4.36-3.662c1.36,0,2.38,0.321,2.96,0.661l-0.479,1.421
			c-0.421-0.261-1.32-0.642-2.541-0.642c-1.84,0-2.54,1.102-2.54,2.022c0,1.259,0.821,1.88,2.681,2.6
			c2.28,0.88,3.42,1.98,3.42,3.962c0,2.079-1.52,3.9-4.7,3.9c-1.3,0-2.72-0.4-3.44-0.881L971.527,457.07z"/>
		<path d="M988.408,456.872c0,0.84,0.039,1.659,0.139,2.32h-1.58l-0.139-1.222h-0.061c-0.541,0.761-1.58,1.441-2.96,1.441
			c-1.961,0-2.961-1.38-2.961-2.78c0-2.342,2.08-3.622,5.82-3.602v-0.2c0-0.78-0.219-2.24-2.199-2.221
			c-0.921,0-1.86,0.261-2.541,0.721l-0.4-1.182c0.801-0.499,1.98-0.84,3.201-0.84c2.96,0,3.681,2.021,3.681,3.941V456.872z
			 M986.708,454.25c-1.921-0.04-4.101,0.3-4.101,2.182c0,1.159,0.76,1.681,1.64,1.681c1.279,0,2.101-0.802,2.38-1.62
			c0.06-0.2,0.081-0.402,0.081-0.562V454.25z"/>
		<path d="M991.245,452.13c0-1.021-0.02-1.82-0.08-2.62h1.561l0.101,1.599h0.039c0.48-0.899,1.601-1.8,3.201-1.8
			c1.34,0,3.42,0.8,3.42,4.122v5.762h-1.761v-5.582c0-1.561-0.58-2.86-2.24-2.86c-1.141,0-2.039,0.819-2.359,1.8
			c-0.08,0.221-0.12,0.521-0.12,0.82v5.822h-1.761V452.13z"/>
		<path d="M1010.624,457.772c0,2.239-0.459,3.579-1.38,4.439c-0.96,0.861-2.32,1.16-3.539,1.16c-1.16,0-2.441-0.279-3.222-0.799
			l0.439-1.361c0.641,0.421,1.642,0.779,2.841,0.779c1.801,0,3.121-0.939,3.121-3.4v-1.06h-0.04c-0.521,0.9-1.58,1.62-3.081,1.62
			c-2.4,0-4.12-2.041-4.12-4.722c0-3.281,2.141-5.121,4.38-5.121c1.681,0,2.581,0.86,3.021,1.661h0.039l0.06-1.46h1.562
			c-0.062,0.68-0.081,1.479-0.081,2.64V457.772z M1008.864,453.33c0-0.3-0.02-0.56-0.101-0.78c-0.319-1.04-1.16-1.88-2.46-1.88
			c-1.679,0-2.879,1.42-2.879,3.66c0,1.9,0.979,3.482,2.859,3.482c1.1,0,2.079-0.683,2.439-1.803
			c0.101-0.299,0.141-0.64,0.141-0.939V453.33z"/>
		<path d="M1020.322,456.872c0,0.84,0.04,1.659,0.141,2.32h-1.58l-0.141-1.222h-0.061c-0.539,0.761-1.579,1.441-2.96,1.441
			c-1.96,0-2.96-1.38-2.96-2.78c0-2.342,2.08-3.622,5.821-3.602v-0.2c0-0.78-0.221-2.24-2.2-2.221c-0.921,0-1.86,0.261-2.54,0.721
			l-0.4-1.182c0.8-0.499,1.979-0.84,3.2-0.84c2.96,0,3.68,2.021,3.68,3.941V456.872z M1018.623,454.25
			c-1.921-0.04-4.101,0.3-4.101,2.182c0,1.159,0.76,1.681,1.64,1.681c1.28,0,2.101-0.802,2.381-1.62c0.06-0.2,0.08-0.402,0.08-0.562
			V454.25z"/>
		<path d="M1030.063,458.853c-0.461,0.219-1.479,0.56-2.781,0.56c-2.92,0-4.82-1.981-4.82-4.942c0-2.979,2.041-5.161,5.2-5.161
			c1.041,0,1.961,0.261,2.44,0.521l-0.4,1.34c-0.418-0.22-1.078-0.459-2.04-0.459c-2.22,0-3.42,1.66-3.42,3.659
			c0,2.243,1.44,3.623,3.36,3.623c1,0,1.66-0.24,2.16-0.461L1030.063,458.853z"/>
		<path d="M1032.12,444.988h1.76v6.061h0.041c0.279-0.499,0.719-0.96,1.26-1.26c0.52-0.3,1.141-0.48,1.8-0.48
			c1.301,0,3.381,0.8,3.381,4.122v5.762h-1.762v-5.563c0-1.56-0.579-2.86-2.238-2.86c-1.141,0-2.021,0.8-2.36,1.74
			c-0.102,0.261-0.121,0.521-0.121,0.841v5.842h-1.76V444.988z"/>
		<path d="M1050.019,456.872c0,0.84,0.04,1.659,0.14,2.32h-1.58l-0.139-1.222h-0.061c-0.541,0.761-1.58,1.441-2.96,1.441
			c-1.961,0-2.96-1.38-2.96-2.78c0-2.342,2.079-3.622,5.82-3.602v-0.2c0-0.78-0.22-2.24-2.2-2.221c-0.92,0-1.86,0.261-2.541,0.721
			l-0.4-1.182c0.801-0.499,1.98-0.84,3.201-0.84c2.96,0,3.68,2.021,3.68,3.941V456.872z M1048.319,454.25
			c-1.921-0.04-4.101,0.3-4.101,2.182c0,1.159,0.76,1.681,1.64,1.681c1.28,0,2.101-0.802,2.38-1.62
			c0.061-0.2,0.081-0.402,0.081-0.562V454.25z"/>
		<path d="M1052.856,444.988h1.761v14.204h-1.761V444.988z"/>
		<path d="M1063.615,447.188h-4.1v-1.479h9.98v1.479h-4.12v12.005h-1.761V447.188z"/>
		<path d="M1070.495,454.672c0.04,2.378,1.54,3.36,3.32,3.36c1.261,0,2.04-0.22,2.68-0.501l0.32,1.26
			c-0.62,0.28-1.7,0.621-3.239,0.621c-2.98,0-4.762-1.981-4.762-4.902c0-2.92,1.721-5.201,4.54-5.201
			c3.181,0,4.001,2.762,4.001,4.543c0,0.358-0.02,0.618-0.059,0.82H1070.495z M1075.655,453.41c0.021-1.101-0.46-2.841-2.44-2.841
			c-1.801,0-2.561,1.62-2.699,2.841H1075.655z"/>
		<path d="M1079.532,452.53c0-1.141-0.02-2.12-0.079-3.021h1.54l0.08,1.92h0.06c0.441-1.301,1.521-2.121,2.7-2.121
			c0.181,0,0.32,0.02,0.48,0.04v1.66c-0.18-0.039-0.36-0.039-0.6-0.039c-1.24,0-2.12,0.92-2.36,2.239
			c-0.041,0.241-0.06,0.542-0.06,0.821v5.162h-1.762V452.53z"/>
		<path d="M1086.151,452.13c0-1.021-0.04-1.82-0.079-2.62h1.541l0.079,1.579h0.061c0.54-0.92,1.439-1.78,3.06-1.78
			c1.301,0,2.301,0.8,2.72,1.941h0.041c0.3-0.561,0.699-0.961,1.1-1.262c0.581-0.438,1.201-0.68,2.12-0.68
			c1.301,0,3.201,0.84,3.201,4.201v5.683h-1.721v-5.461c0-1.882-0.699-2.981-2.101-2.981c-1.02,0-1.779,0.74-2.1,1.58
			c-0.08,0.26-0.14,0.561-0.14,0.879v5.983h-1.721v-5.802c0-1.541-0.68-2.641-2.02-2.641c-1.081,0-1.9,0.88-2.182,1.76
			c-0.099,0.24-0.139,0.561-0.139,0.86v5.822h-1.722V452.13z"/>
		<path d="M1104.79,446.788c0,0.601-0.42,1.082-1.119,1.082c-0.641,0-1.061-0.481-1.061-1.082c0-0.6,0.44-1.101,1.101-1.101
			C1104.35,445.688,1104.79,446.169,1104.79,446.788z M1102.829,459.192v-9.683h1.761v9.683H1102.829z"/>
		<path d="M1107.51,452.13c0-1.021-0.02-1.82-0.081-2.62h1.56l0.102,1.599h0.04c0.479-0.899,1.6-1.8,3.199-1.8
			c1.341,0,3.421,0.8,3.421,4.122v5.762h-1.761v-5.582c0-1.561-0.579-2.86-2.239-2.86c-1.142,0-2.041,0.819-2.361,1.8
			c-0.079,0.221-0.119,0.521-0.119,0.82v5.822h-1.76V452.13z"/>
		<path d="M1125.409,456.872c0,0.84,0.04,1.659,0.14,2.32h-1.58l-0.14-1.222h-0.061c-0.54,0.761-1.58,1.441-2.96,1.441
			c-1.96,0-2.961-1.38-2.961-2.78c0-2.342,2.081-3.622,5.821-3.602v-0.2c0-0.78-0.22-2.24-2.199-2.221
			c-0.922,0-1.86,0.261-2.542,0.721l-0.399-1.182c0.8-0.499,1.979-0.84,3.2-0.84c2.961,0,3.681,2.021,3.681,3.941V456.872z
			 M1123.709,454.25c-1.921-0.04-4.1,0.3-4.1,2.182c0,1.159,0.76,1.681,1.639,1.681c1.28,0,2.1-0.802,2.381-1.62
			c0.06-0.2,0.08-0.402,0.08-0.562V454.25z"/>
		<path d="M1128.246,444.988h1.762v14.204h-1.762V444.988z"/>
	</g>
	<g>
		<path d="M289.557,63.732V50.249h1.92l4.3,6.821c0.98,1.581,1.78,3.001,2.4,4.382l0.06-0.021c-0.16-1.801-0.2-3.441-0.2-5.542
			v-5.641h1.641v13.484h-1.76l-4.281-6.842c-0.94-1.501-1.84-3.042-2.5-4.501l-0.061,0.019c0.1,1.701,0.12,3.322,0.12,5.562v5.762
			H289.557z"/>
		<path d="M311.416,58.811c0,3.581-2.5,5.142-4.82,5.142c-2.601,0-4.641-1.92-4.641-4.981c0-3.221,2.14-5.122,4.8-5.122
			C309.536,53.849,311.416,55.869,311.416,58.811z M303.755,58.911c0,2.12,1.2,3.721,2.92,3.721c1.681,0,2.94-1.581,2.94-3.761
			c0-1.64-0.82-3.701-2.9-3.701C304.655,55.169,303.755,57.09,303.755,58.911z"/>
		<path d="M314.174,54.049l1.9,5.422c0.32,0.899,0.58,1.7,0.78,2.5h0.06c0.22-0.8,0.5-1.601,0.82-2.5l1.88-5.422h1.84l-3.8,9.683
			h-1.68l-3.68-9.683H314.174z"/>
		<path d="M331.673,58.811c0,3.581-2.5,5.142-4.82,5.142c-2.6,0-4.641-1.92-4.641-4.981c0-3.221,2.14-5.122,4.8-5.122
			C329.793,53.849,331.673,55.869,331.673,58.811z M324.013,58.911c0,2.12,1.2,3.721,2.92,3.721c1.68,0,2.941-1.581,2.941-3.761
			c0-1.64-0.82-3.701-2.901-3.701C324.913,55.169,324.013,57.09,324.013,58.911z"/>
		<path d="M333.892,57.07c0-1.141-0.021-2.12-0.081-3.021h1.54l0.08,1.92h0.06c0.44-1.301,1.521-2.121,2.7-2.121
			c0.18,0,0.32,0.021,0.48,0.041v1.661c-0.18-0.041-0.36-0.041-0.6-0.041c-1.24,0-2.12,0.92-2.36,2.241
			c-0.04,0.24-0.06,0.541-0.06,0.82v5.162h-1.76V57.07z"/>
		<path d="M348.991,58.811c0,3.581-2.5,5.142-4.82,5.142c-2.601,0-4.641-1.92-4.641-4.981c0-3.221,2.14-5.122,4.8-5.122
			C347.111,53.849,348.991,55.869,348.991,58.811z M341.33,58.911c0,2.12,1.2,3.721,2.92,3.721c1.68,0,2.94-1.581,2.94-3.761
			c0-1.64-0.82-3.701-2.901-3.701C342.23,55.169,341.33,57.09,341.33,58.911z"/>
		<path d="M350.969,61.952c0.54,0.32,1.46,0.68,2.34,0.68c1.26,0,1.86-0.62,1.86-1.44c0-0.841-0.5-1.28-1.78-1.76
			c-1.76-0.64-2.58-1.581-2.58-2.741c0-1.561,1.28-2.841,3.34-2.841c0.98,0,1.84,0.261,2.36,0.601l-0.42,1.281
			c-0.38-0.24-1.08-0.581-1.98-0.581c-1.04,0-1.6,0.6-1.6,1.32c0,0.801,0.56,1.161,1.82,1.661c1.66,0.62,2.54,1.46,2.54,2.9
			c0,1.721-1.34,2.921-3.6,2.921c-1.061,0-2.04-0.28-2.72-0.68L350.969,61.952z"/>
		<path d="M358.888,61.952c0.54,0.32,1.46,0.68,2.34,0.68c1.26,0,1.86-0.62,1.86-1.44c0-0.841-0.5-1.28-1.78-1.76
			c-1.76-0.64-2.58-1.581-2.58-2.741c0-1.561,1.28-2.841,3.34-2.841c0.98,0,1.84,0.261,2.36,0.601l-0.42,1.281
			c-0.38-0.24-1.08-0.581-1.98-0.581c-1.04,0-1.6,0.6-1.6,1.32c0,0.801,0.56,1.161,1.82,1.661c1.66,0.62,2.54,1.46,2.54,2.9
			c0,1.721-1.34,2.921-3.6,2.921c-1.061,0-2.04-0.28-2.72-0.68L358.888,61.952z"/>
		<path d="M369.007,51.329c0,0.599-0.42,1.08-1.121,1.08c-0.64,0-1.06-0.48-1.06-1.08c0-0.601,0.44-1.101,1.1-1.101
			C368.567,50.229,369.007,50.708,369.007,51.329z M367.047,63.732v-9.683h1.76v9.683H367.047z"/>
		<path d="M372.366,54.049l2.1,5.721c0.24,0.64,0.48,1.401,0.64,1.981h0.041c0.18-0.58,0.38-1.321,0.62-2.021l1.92-5.681h1.86
			l-2.64,6.901c-1.26,3.321-2.12,5.002-3.32,6.063c-0.88,0.74-1.72,1.04-2.16,1.12l-0.44-1.46c0.44-0.14,1.02-0.42,1.54-0.86
			c0.481-0.381,1.061-1.061,1.48-1.961c0.08-0.18,0.14-0.321,0.14-0.421c0-0.099-0.04-0.239-0.14-0.459l-3.561-8.922H372.366z"/>
		<path d="M380.784,61.952c0.54,0.32,1.46,0.68,2.34,0.68c1.26,0,1.86-0.62,1.86-1.44c0-0.841-0.5-1.28-1.781-1.76
			c-1.76-0.64-2.58-1.581-2.58-2.741c0-1.561,1.28-2.841,3.34-2.841c0.98,0,1.84,0.261,2.36,0.601l-0.419,1.281
			c-0.38-0.24-1.08-0.581-1.98-0.581c-1.04,0-1.6,0.6-1.6,1.32c0,0.801,0.56,1.161,1.82,1.661c1.66,0.62,2.54,1.46,2.54,2.9
			c0,1.721-1.34,2.921-3.6,2.921c-1.06,0-2.04-0.28-2.72-0.68L380.784,61.952z"/>
		<path d="M390.684,58.49h0.04c0.24-0.339,0.56-0.76,0.841-1.1l2.859-3.341h2.101l-3.72,3.981l4.26,5.702h-2.16l-3.32-4.642
			l-0.9,1.001v3.641h-1.74V49.528h1.74V58.49z"/>
	</g>
	<g>
		<path d="M694.994,305.245h-4.798v-2.574h12.721v2.574h-4.849v14.272h-3.074V305.245z"/>
		<path d="M704.52,301.771h3.073v7.248h0.051c0.749-1.174,2.073-1.949,3.897-1.949c2.974,0,5.099,2.474,5.074,6.174
			c0,4.375-2.775,6.548-5.522,6.548c-1.576,0-2.975-0.599-3.85-2.1h-0.051l-0.149,1.825h-2.624c0.051-0.825,0.101-2.174,0.101-3.424
			V301.771z M707.593,314.493c0,0.25,0.025,0.5,0.075,0.725c0.325,1.249,1.398,2.149,2.724,2.149c1.925,0,3.099-1.525,3.099-3.999
			c0-2.149-1.024-3.899-3.073-3.899c-1.25,0-2.398,0.899-2.725,2.25c-0.049,0.225-0.1,0.5-0.1,0.8V314.493z"/>
		<path d="M722.416,303.945c0,0.901-0.675,1.65-1.749,1.65c-1.024,0-1.7-0.75-1.7-1.65c0-0.95,0.701-1.674,1.725-1.674
			C721.741,302.271,722.392,302.995,722.416,303.945z M719.142,319.517v-12.172h3.074v12.172H719.142z"/>
		<path d="M725.542,301.771h3.073v17.746h-3.073V301.771z"/>
		<path d="M735.238,303.945c0,0.901-0.675,1.65-1.749,1.65c-1.024,0-1.699-0.75-1.699-1.65c0-0.95,0.7-1.674,1.724-1.674
			C734.563,302.271,735.214,302.995,735.238,303.945z M731.965,319.517v-12.172h3.073v12.172H731.965z"/>
		<path d="M738.239,316.668c0.674,0.424,1.999,0.899,3.1,0.899c1.349,0,1.948-0.575,1.948-1.375c0-0.825-0.5-1.225-1.999-1.775
			c-2.375-0.8-3.35-2.1-3.35-3.55c0-2.149,1.775-3.799,4.599-3.799c1.35,0,2.524,0.325,3.249,0.725l-0.625,2.149
			c-0.499-0.3-1.499-0.7-2.574-0.7c-1.1,0-1.699,0.549-1.699,1.299c0,0.774,0.575,1.125,2.124,1.7
			c2.225,0.775,3.224,1.9,3.249,3.699c0,2.225-1.724,3.825-4.947,3.825c-1.475,0-2.801-0.351-3.699-0.85L738.239,316.668z"/>
		<path d="M752.062,303.945c0,0.901-0.676,1.65-1.75,1.65c-1.025,0-1.699-0.75-1.699-1.65c0-0.95,0.699-1.674,1.725-1.674
			C751.386,302.271,752.036,302.995,752.062,303.945z M748.787,319.517v-12.172h3.073v12.172H748.787z"/>
	</g>
	<g>
		<path d="M999.587,377.758c0.975-0.201,2.749-0.375,4.498-0.375c2.249,0,3.674,0.3,4.799,1.075c1.05,0.624,1.749,1.725,1.749,3.175
			c0,1.548-0.975,2.948-2.799,3.625v0.075c1.774,0.448,3.399,1.849,3.399,4.148c0,1.5-0.651,2.674-1.6,3.499
			c-1.2,1.025-3.175,1.549-6.272,1.549c-1.7,0-2.975-0.123-3.774-0.223V377.758z M1002.637,384.405h1.574
			c2.148,0,3.323-0.998,3.323-2.423c0-1.601-1.2-2.325-3.149-2.325c-0.898,0-1.425,0.05-1.748,0.125V384.405z M1002.637,392.129
			c0.399,0.076,0.924,0.076,1.624,0.076c1.974,0,3.748-0.726,3.748-2.8c0-1.974-1.725-2.773-3.848-2.773h-1.524V392.129z"/>
		<path d="M1023.382,391.431c0,1.1,0.05,2.173,0.199,2.925h-2.773l-0.226-1.351h-0.074c-0.726,0.949-1.999,1.624-3.599,1.624
			c-2.449,0-3.823-1.774-3.823-3.624c0-3.049,2.724-4.623,7.222-4.599v-0.199c0-0.801-0.325-2.125-2.474-2.125
			c-1.2,0-2.449,0.374-3.274,0.9l-0.6-2.002c0.899-0.548,2.474-1.072,4.397-1.072c3.899,0,5.024,2.473,5.024,5.147V391.431z
			 M1020.383,388.406c-2.174-0.025-4.249,0.424-4.249,2.273c0,1.2,0.775,1.75,1.75,1.75c1.249,0,2.123-0.8,2.424-1.676
			c0.075-0.225,0.075-0.448,0.075-0.674V388.406z"/>
		<path d="M1029.707,387.53h0.05c0.302-0.475,0.65-0.999,0.95-1.425l2.975-3.924h3.697l-4.522,4.974l5.147,7.2h-3.773l-3.498-5.376
			l-1.025,1.226v4.15h-3.073v-17.748h3.073V387.53z"/>
		<path d="M1050.253,390.704c0,1.45,0.05,2.649,0.099,3.651h-2.673l-0.15-1.825h-0.075c-0.524,0.85-1.724,2.099-3.924,2.099
			c-2.198,0-4.223-1.325-4.223-5.297v-7.15h3.073v6.623c0,2.025,0.649,3.324,2.274,3.324c1.25,0,2.049-0.849,2.35-1.648
			c0.124-0.25,0.175-0.601,0.175-0.951v-7.348h3.074V390.704z"/>
	</g>
	<g>
		<path d="M1097.679,393.972h-4.798v-2.574h12.721v2.574h-4.849v14.272h-3.074V393.972z"/>
		<path d="M1117.1,404.595c0,1.449,0.049,2.649,0.099,3.649h-2.673l-0.15-1.825h-0.074c-0.525,0.851-1.724,2.1-3.924,2.1
			c-2.199,0-4.224-1.324-4.224-5.298v-7.149h3.074v6.624c0,2.023,0.649,3.323,2.274,3.323c1.249,0,2.049-0.85,2.349-1.649
			c0.125-0.249,0.175-0.6,0.175-0.951v-7.347h3.074V404.595z"/>
		<path d="M1120.426,399.995c0-1.649-0.023-2.85-0.099-3.924h2.649l0.124,2.299h0.074c0.6-1.699,2.024-2.575,3.35-2.575
			c0.299,0,0.475,0.025,0.724,0.075v2.875c-0.273-0.05-0.549-0.074-0.924-0.074c-1.45,0-2.474,0.924-2.749,2.323
			c-0.05,0.276-0.075,0.601-0.075,0.927v6.323h-3.074V399.995z"/>
		<path d="M1132.398,401.42h0.05c0.301-0.476,0.65-1,0.949-1.425l2.975-3.924h3.699l-4.524,4.974l5.148,7.199h-3.773l-3.499-5.374
			l-1.024,1.225v4.149h-3.074v-17.748h3.074V401.42z"/>
		<path d="M1142.373,399.695c0-1.399-0.05-2.574-0.101-3.624h2.624l0.15,1.8h0.074c0.575-0.949,1.675-2.076,3.749-2.076
			c1.6,0,2.85,0.901,3.374,2.251h0.05c0.425-0.675,0.925-1.174,1.475-1.525c0.7-0.475,1.475-0.726,2.498-0.726
			c2.001,0,4.05,1.376,4.05,5.276v7.173h-3v-6.725c0-2.024-0.699-3.224-2.174-3.224c-1.049,0-1.824,0.749-2.148,1.624
			c-0.101,0.276-0.15,0.675-0.15,1.024v7.3h-2.998v-7.048c0-1.701-0.676-2.9-2.1-2.9c-1.148,0-1.924,0.899-2.225,1.725
			c-0.099,0.325-0.15,0.675-0.15,1.024v7.199h-2.998V399.695z"/>
		<path d="M1165.744,403.021c0.075,2.198,1.774,3.149,3.749,3.149c1.425,0,2.424-0.227,3.373-0.55l0.451,2.099
			c-1.05,0.45-2.5,0.773-4.249,0.773c-3.949,0-6.273-2.424-6.273-6.147c0-3.374,2.05-6.55,5.948-6.55
			c3.949,0,5.248,3.25,5.248,5.925c0,0.575-0.05,1.025-0.101,1.301H1165.744z M1171.093,400.869
			c0.025-1.124-0.476-2.974-2.524-2.974c-1.899,0-2.699,1.725-2.824,2.974H1171.093z"/>
		<path d="M1176.469,399.695c0-1.399-0.05-2.574-0.101-3.624h2.673l0.151,1.824h0.075c0.549-0.948,1.874-2.101,3.897-2.101
			c2.124,0,4.323,1.376,4.323,5.225v7.225h-3.073v-6.873c0-1.751-0.648-3.075-2.324-3.075c-1.224,0-2.073,0.874-2.398,1.799
			c-0.101,0.251-0.15,0.625-0.15,0.977v7.173h-3.073V399.695z"/>
		<path d="M1190.767,390.496h3.072v7.25h0.051c0.75-1.176,2.075-1.951,3.899-1.951c2.973,0,5.098,2.476,5.073,6.176
			c0,4.373-2.774,6.548-5.524,6.548c-1.574,0-2.973-0.6-3.848-2.1h-0.051l-0.149,1.825h-2.624c0.051-0.826,0.101-2.176,0.101-3.425
			V390.496z M1193.839,403.221c0,0.248,0.026,0.499,0.076,0.724c0.325,1.25,1.398,2.15,2.725,2.15c1.923,0,3.098-1.524,3.098-3.999
			c0-2.15-1.024-3.899-3.073-3.899c-1.249,0-2.399,0.899-2.724,2.249c-0.051,0.225-0.102,0.499-0.102,0.801V403.221z"/>
		<path d="M1214.836,405.32c0,1.099,0.05,2.173,0.199,2.924h-2.774l-0.224-1.351h-0.076c-0.725,0.951-1.998,1.625-3.598,1.625
			c-2.448,0-3.824-1.775-3.824-3.625c0-3.049,2.725-4.622,7.224-4.598v-0.201c0-0.8-0.325-2.124-2.476-2.124
			c-1.199,0-2.448,0.375-3.273,0.899l-0.6-1.998c0.9-0.551,2.475-1.077,4.398-1.077c3.898,0,5.023,2.476,5.023,5.149V405.32z
			 M1211.836,402.295c-2.174-0.025-4.248,0.426-4.248,2.275c0,1.199,0.775,1.749,1.749,1.749c1.251,0,2.124-0.801,2.426-1.675
			c0.073-0.225,0.073-0.449,0.073-0.676V402.295z"/>
		<path d="M1217.962,405.394c0.675,0.426,1.999,0.901,3.099,0.901c1.35,0,1.949-0.575,1.949-1.376c0-0.824-0.499-1.225-1.998-1.773
			c-2.375-0.801-3.35-2.101-3.35-3.551c0-2.15,1.774-3.8,4.598-3.8c1.35,0,2.524,0.326,3.249,0.726l-0.624,2.15
			c-0.5-0.301-1.5-0.7-2.574-0.7c-1.101,0-1.699,0.55-1.699,1.3c0,0.774,0.574,1.126,2.124,1.698c2.224,0.776,3.224,1.901,3.249,3.7
			c0,2.225-1.725,3.823-4.948,3.823c-1.475,0-2.799-0.348-3.699-0.849L1217.962,405.394z"/>
		<path d="M1230.46,396.071l2.174,6.523c0.249,0.751,0.525,1.676,0.7,2.35h0.075c0.175-0.674,0.399-1.599,0.648-2.375l1.899-6.498
			h3.274l-3.05,8.298c-1.673,4.55-2.798,6.574-4.223,7.825c-1.225,1.05-2.474,1.447-3.223,1.549l-0.7-2.576
			c0.523-0.124,1.149-0.398,1.773-0.849c0.6-0.376,1.274-1.1,1.699-1.925c0.125-0.225,0.176-0.399,0.176-0.549
			c0-0.126-0.025-0.302-0.15-0.601l-4.474-11.173H1230.46z"/>
	</g>
	<text transform="matrix(0.9998 0 0 1 81.5122 363.519)"><tspan x="0" y="0" fill="#BA9F00" font-family="'MyriadPro-Regular'" font-size="16.0009">Nabucco gas pipeline</tspan><tspan x="13.28" y="19.201" fill="#BA9F00" font-family="'MyriadPro-Regular'" font-size="16.0009">to Central Europe</tspan><tspan x="39.481" y="38.402" fill="#BA9F00" font-family="'MyriadPro-Regular'" font-size="16.0009">(planned)</tspan></text>
	<text transform="matrix(0.9998 0 0 1 314.2178 444.9873)"><tspan x="0" y="0" fill="#12B500" font-family="'MyriadPro-Regular'" font-size="16.0009">Baku-Tbilisi-Ceyhan</tspan><tspan x="28.577" y="19.201" fill="#12B500" font-family="'MyriadPro-Regular'" font-size="16.0009">oil pipeline</tspan></text>
	<text transform="matrix(0.9998 0 0 1 432.7358 504.127)"><tspan x="0" y="0" fill="#BA9F00" font-family="'MyriadPro-Regular'" font-size="16.0009">Baku-Tbilisi-Erzurum</tspan><tspan x="28.161" y="19.201" fill="#BA9F00" font-family="'MyriadPro-Regular'" font-size="16.0009">gas pipeline</tspan></text>
	<text transform="matrix(0.9998 0 0 1 1002.7773 493.5254)"><tspan x="0" y="0" fill="#BA9F00" font-family="'MyriadPro-Regular'" font-size="16.0009">Trans-Caspian gas pipeline</tspan><tspan x="52.242" y="19.201" fill="#BA9F00" font-family="'MyriadPro-Regular'" font-size="16.0009">(proposed)</tspan></text>
	<text transform="matrix(0.9998 0 0 1 657.8262 263.3809)"><tspan x="0" y="0" fill="#FC5B5B" font-family="'MyriadPro-Regular'" font-size="16.0009">Baku-Supsa</tspan><tspan x="1.697" y="19.201" fill="#FC5B5B" font-family="'MyriadPro-Regular'" font-size="16.0009">oil pipeline</tspan></text>
	<text transform="matrix(0.9998 0 0 1 623.2251 156.1162)"><tspan x="0" y="0" fill="#4A85DD" font-family="'MyriadPro-Regular'" font-size="16.0009">Baku-Novorossiysk</tspan><tspan x="25.569" y="19.201" fill="#4A85DD" font-family="'MyriadPro-Regular'" font-size="16.0009">oil pipeline</tspan></text>
</g>
</svg>
