<?xml version="1.0" encoding="utf-8"?>
<!-- Generator: Adobe Illustrator 16.0.0, SVG Export Plug-In . SVG Version: 6.00 Build 0)  -->
<!DOCTYPE svg PUBLIC "-//W3C//DTD SVG 1.1//EN" "http://www.w3.org/Graphics/SVG/1.1/DTD/svg11.dtd">
<svg version="1.1"
	 id="Layer_1" xmlns:cc="http://creativecommons.org/ns#" xmlns:inkscape="http://www.inkscape.org/namespaces/inkscape" xmlns:sodipodi="http://sodipodi.sourceforge.net/DTD/sodipodi-0.dtd" xmlns:dc="http://purl.org/dc/elements/1.1/" xmlns:svg="http://www.w3.org/2000/svg" xmlns:rdf="http://www.w3.org/1999/02/22-rdf-syntax-ns#" inkscape:version="0.91 r13725" sodipodi:docname="EXAMPLE.svg"
	 xmlns="http://www.w3.org/2000/svg" xmlns:xlink="http://www.w3.org/1999/xlink" x="0px" y="0px" width="1900px" height="1900px"
	 viewBox="0 0 1900 1900" enable-background="new 0 0 1900 1900" xml:space="preserve">
<sodipodi:namedview  id="namedview812" objecttolerance="10" pagecolor="#ffffff" guidetolerance="10" bordercolor="#666666" gridtolerance="10" showgrid="false" inkscape:cy="950" borderopacity="1" inkscape:zoom="0.12421053" inkscape:cx="950" inkscape:window-y="0" inkscape:window-x="0" inkscape:pageshadow="2" inkscape:pageopacity="0" inkscape:window-width="686" inkscape:window-height="480" inkscape:window-maximized="0" inkscape:current-layer="Layer_1">
	</sodipodi:namedview>
<text id="text719" transform="matrix(1 0 0 1 388.5757 109.4434)" font-family="'Arial-BoldMT'" font-size="51.3758">Benin map of Köppen climate classification</text>
<g>
	
		<rect id="rect12069_68_" x="-1019.225" y="257.57" fill="#1300FC" stroke="#000000" stroke-width="0.5" stroke-miterlimit="10" width="45.803" height="41.047"/>
	<text id="text722" transform="matrix(1 0 0 1 -967.7734 292.8921)" font-family="'Arial-BoldMT'" font-size="42.6543">Equatorial climate (Af)</text>
</g>
<g>
	
		<rect id="rect12069_67_" x="-1019.225" y="325.193" fill="#0E73FC" stroke="#000000" stroke-width="0.5" stroke-miterlimit="10" width="45.803" height="41.046"/>
	<text id="text725" transform="matrix(1 0 0 1 -967.7734 360.519)" font-family="'Arial-BoldMT'" font-size="42.6543">Monsoon climate (Am)</text>
</g>
<g>
	
		<rect id="rect12069_65_" x="-1011.476" y="555.963" fill="#FD0000" stroke="#000000" stroke-width="0.5" stroke-miterlimit="10" width="45.799" height="41.052"/>
	<text id="text729" transform="matrix(1 0 0 1 -960.0215 591.2949)" font-family="'Arial-BoldMT'" font-size="42.6543">Warm desert climate (BWh)</text>
</g>
<g>
	
		<rect id="rect12069_64_" x="-1011.476" y="623.594" fill="#FE9594" stroke="#000000" stroke-width="0.5" stroke-miterlimit="10" width="45.799" height="41.047"/>
	<text id="text732" transform="matrix(1 0 0 1 -960.0215 658.918)" font-family="'Arial-BoldMT'" font-size="42.6543">Cold desert climate (BWk)</text>
</g>
<g>
	
		<rect id="rect12069_63_" x="-1011.476" y="692.25" fill="#F6A200" stroke="#000000" stroke-width="0.5" stroke-miterlimit="10" width="45.799" height="41.048"/>
	<text id="text735" transform="matrix(1 0 0 1 -960.0215 727.5781)" font-family="'Arial-BoldMT'" font-size="42.6543">Warm semi-arid climate (BSh)</text>
</g>
<g>
	
		<rect id="rect12069_1_" x="130.984" y="411.2" fill="#F6A200" stroke="#000000" stroke-width="0.5" stroke-miterlimit="10" width="45.799" height="41.048"/>
	<g enable-background="new    ">
		<path d="M189.874,446.528l-7.29-30.533h6.311l4.603,20.974l5.582-20.974h7.331l5.353,21.327l4.686-21.327h6.207l-7.414,30.533
			h-6.54l-6.082-22.827l-6.061,22.827H189.874z"/>
		<path d="M228.55,431.158l-5.311-0.958c0.597-2.139,1.625-3.722,3.083-4.749c1.458-1.027,3.624-1.541,6.498-1.541
			c2.61,0,4.554,0.309,5.832,0.927c1.277,0.618,2.176,1.402,2.697,2.354c0.521,0.951,0.781,2.697,0.781,5.238l-0.063,6.831
			c0,1.944,0.094,3.377,0.281,4.301s0.538,1.913,1.052,2.968h-5.79c-0.153-0.389-0.34-0.965-0.562-1.729
			c-0.098-0.347-0.167-0.576-0.208-0.688c-1,0.972-2.069,1.701-3.208,2.187c-1.139,0.486-2.354,0.729-3.645,0.729
			c-2.277,0-4.072-0.618-5.384-1.854c-1.313-1.236-1.968-2.798-1.968-4.687c0-1.25,0.298-2.364,0.896-3.343
			c0.597-0.979,1.434-1.729,2.51-2.249c1.076-0.521,2.627-0.976,4.655-1.364c2.735-0.514,4.63-0.993,5.686-1.438v-0.583
			c0-1.125-0.278-1.927-0.833-2.405c-0.555-0.479-1.604-0.719-3.145-0.719c-1.042,0-1.854,0.205-2.437,0.614
			C229.383,429.412,228.911,430.13,228.55,431.158z M236.381,435.906c-0.75,0.25-1.937,0.549-3.562,0.896
			c-1.625,0.348-2.687,0.688-3.187,1.021c-0.764,0.542-1.146,1.229-1.146,2.063c0,0.819,0.305,1.527,0.916,2.124
			s1.389,0.896,2.333,0.896c1.055,0,2.062-0.347,3.02-1.041c0.708-0.527,1.173-1.174,1.395-1.938c0.153-0.5,0.229-1.45,0.229-2.854
			V435.906z"/>
		<path d="M253.5,446.528h-5.853V424.41h5.436v3.145c0.93-1.485,1.767-2.465,2.51-2.937c0.743-0.472,1.586-0.708,2.53-0.708
			c1.333,0,2.617,0.368,3.853,1.104l-1.812,5.103c-0.986-0.639-1.903-0.958-2.75-0.958c-0.819,0-1.514,0.226-2.083,0.677
			c-0.57,0.451-1.018,1.268-1.343,2.447c-0.327,1.181-0.49,3.652-0.49,7.415V446.528z"/>
		<path d="M264.06,424.41h5.395v3.02c1.93-2.347,4.228-3.52,6.894-3.52c1.417,0,2.646,0.291,3.687,0.874
			c1.042,0.584,1.896,1.466,2.562,2.646c0.972-1.18,2.02-2.062,3.145-2.646c1.125-0.583,2.325-0.874,3.603-0.874
			c1.625,0,2.999,0.33,4.124,0.989c1.125,0.659,1.965,1.628,2.52,2.905c0.403,0.944,0.604,2.472,0.604,4.582v14.142h-5.852v-12.643
			c0-2.193-0.202-3.609-0.604-4.248c-0.542-0.833-1.375-1.25-2.5-1.25c-0.819,0-1.59,0.25-2.312,0.75
			c-0.722,0.5-1.243,1.232-1.562,2.197s-0.479,2.488-0.479,4.571v10.622h-5.852v-12.121c0-2.152-0.104-3.541-0.313-4.166
			c-0.208-0.625-0.531-1.09-0.969-1.396c-0.437-0.305-1.031-0.458-1.781-0.458c-0.902,0-1.715,0.243-2.437,0.729
			c-0.722,0.485-1.239,1.187-1.552,2.104c-0.313,0.916-0.469,2.437-0.469,4.561v10.747h-5.853V424.41z"/>
		<path d="M312.212,440.217l5.874-0.896c0.25,1.139,0.756,2.003,1.521,2.593c0.763,0.591,1.833,0.885,3.207,0.885
			c1.514,0,2.652-0.277,3.416-0.833c0.513-0.389,0.771-0.909,0.771-1.562c0-0.444-0.139-0.813-0.417-1.104
			c-0.292-0.277-0.944-0.534-1.958-0.771c-4.721-1.041-7.713-1.992-8.977-2.853c-1.75-1.194-2.624-2.854-2.624-4.979
			c0-1.916,0.756-3.526,2.27-4.832c1.513-1.305,3.86-1.957,7.04-1.957c3.027,0,5.276,0.493,6.748,1.479
			c1.472,0.986,2.485,2.444,3.041,4.374l-5.519,1.021c-0.236-0.861-0.684-1.521-1.344-1.979c-0.66-0.459-1.6-0.688-2.822-0.688
			c-1.542,0-2.645,0.215-3.312,0.646c-0.445,0.306-0.667,0.701-0.667,1.188c0,0.416,0.194,0.771,0.583,1.062
			c0.527,0.389,2.35,0.938,5.467,1.646c3.117,0.708,5.293,1.576,6.529,2.604c1.222,1.041,1.833,2.492,1.833,4.353
			c0,2.027-0.847,3.771-2.541,5.229c-1.694,1.457-4.201,2.187-7.519,2.187c-3.013,0-5.397-0.611-7.154-1.833
			C313.903,443.973,312.754,442.314,312.212,440.217z"/>
		<path d="M350.806,439.488l5.832,0.979c-0.75,2.138-1.934,3.767-3.551,4.884c-1.618,1.118-3.642,1.677-6.071,1.677
			c-3.846,0-6.692-1.257-8.539-3.77c-1.458-2.014-2.187-4.555-2.187-7.623c0-3.666,0.958-6.536,2.874-8.612
			c1.916-2.075,4.339-3.113,7.269-3.113c3.291,0,5.887,1.086,7.79,3.259c1.902,2.174,2.812,5.502,2.729,9.987h-14.663
			c0.042,1.735,0.514,3.086,1.416,4.051c0.903,0.965,2.027,1.447,3.374,1.447c0.917,0,1.687-0.25,2.312-0.75
			C350.015,441.405,350.486,440.599,350.806,439.488z M351.139,433.574c-0.042-1.694-0.479-2.982-1.312-3.864
			c-0.833-0.881-1.847-1.322-3.041-1.322c-1.277,0-2.333,0.466-3.166,1.396c-0.833,0.931-1.243,2.194-1.229,3.791H351.139z"/>
		<path d="M361.282,424.41h5.395v3.02c1.93-2.347,4.228-3.52,6.894-3.52c1.417,0,2.646,0.291,3.687,0.874
			c1.042,0.584,1.896,1.466,2.562,2.646c0.972-1.18,2.02-2.062,3.145-2.646c1.125-0.583,2.325-0.874,3.603-0.874
			c1.625,0,2.999,0.33,4.124,0.989c1.125,0.659,1.965,1.628,2.52,2.905c0.403,0.944,0.604,2.472,0.604,4.582v14.142h-5.852v-12.643
			c0-2.193-0.202-3.609-0.604-4.248c-0.542-0.833-1.375-1.25-2.5-1.25c-0.819,0-1.59,0.25-2.312,0.75
			c-0.722,0.5-1.243,1.232-1.562,2.197s-0.479,2.488-0.479,4.571v10.622h-5.852v-12.121c0-2.152-0.104-3.541-0.313-4.166
			c-0.208-0.625-0.531-1.09-0.969-1.396c-0.437-0.305-1.031-0.458-1.781-0.458c-0.902,0-1.715,0.243-2.437,0.729
			c-0.722,0.485-1.239,1.187-1.552,2.104c-0.313,0.916-0.469,2.437-0.469,4.561v10.747h-5.853V424.41z"/>
		<path d="M399.646,421.41v-5.415h5.853v5.415H399.646z M399.646,446.528V424.41h5.853v22.118H399.646z"/>
		<path d="M410.83,438.384v-5.853h11.497v5.853H410.83z"/>
		<path d="M430.075,431.158l-5.311-0.958c0.597-2.139,1.625-3.722,3.083-4.749c1.458-1.027,3.624-1.541,6.498-1.541
			c2.61,0,4.554,0.309,5.832,0.927c1.277,0.618,2.176,1.402,2.697,2.354c0.521,0.951,0.781,2.697,0.781,5.238l-0.063,6.831
			c0,1.944,0.094,3.377,0.281,4.301s0.538,1.913,1.052,2.968h-5.79c-0.153-0.389-0.34-0.965-0.562-1.729
			c-0.098-0.347-0.167-0.576-0.208-0.688c-1,0.972-2.069,1.701-3.208,2.187c-1.139,0.486-2.354,0.729-3.645,0.729
			c-2.277,0-4.072-0.618-5.384-1.854c-1.313-1.236-1.968-2.798-1.968-4.687c0-1.25,0.298-2.364,0.896-3.343
			c0.597-0.979,1.434-1.729,2.51-2.249c1.076-0.521,2.627-0.976,4.655-1.364c2.735-0.514,4.63-0.993,5.686-1.438v-0.583
			c0-1.125-0.278-1.927-0.833-2.405c-0.555-0.479-1.604-0.719-3.145-0.719c-1.042,0-1.854,0.205-2.437,0.614
			C430.908,429.412,430.436,430.13,430.075,431.158z M437.906,435.906c-0.75,0.25-1.937,0.549-3.562,0.896
			c-1.625,0.348-2.687,0.688-3.187,1.021c-0.764,0.542-1.146,1.229-1.146,2.063c0,0.819,0.305,1.527,0.916,2.124
			s1.389,0.896,2.333,0.896c1.055,0,2.062-0.347,3.02-1.041c0.708-0.527,1.173-1.174,1.395-1.938c0.153-0.5,0.229-1.45,0.229-2.854
			V435.906z"/>
		<path d="M455.025,446.528h-5.853V424.41h5.436v3.145c0.93-1.485,1.767-2.465,2.51-2.937c0.743-0.472,1.586-0.708,2.53-0.708
			c1.333,0,2.617,0.368,3.853,1.104l-1.812,5.103c-0.986-0.639-1.903-0.958-2.75-0.958c-0.819,0-1.514,0.226-2.083,0.677
			c-0.57,0.451-1.018,1.268-1.343,2.447c-0.327,1.181-0.49,3.652-0.49,7.415V446.528z"/>
		<path d="M466.022,421.41v-5.415h5.853v5.415H466.022z M466.022,446.528V424.41h5.853v22.118H466.022z"/>
		<path d="M498.159,446.528h-5.436v-3.249c-0.903,1.264-1.968,2.204-3.197,2.822c-1.229,0.617-2.468,0.927-3.718,0.927
			c-2.541,0-4.717-1.024-6.529-3.072s-2.718-4.904-2.718-8.57c0-3.749,0.881-6.599,2.645-8.55c1.763-1.95,3.992-2.926,6.686-2.926
			c2.471,0,4.61,1.027,6.415,3.082v-10.997h5.852V446.528z M482.539,434.99c0,2.36,0.326,4.068,0.979,5.123
			c0.944,1.527,2.263,2.291,3.958,2.291c1.347,0,2.492-0.572,3.437-1.718c0.944-1.146,1.416-2.856,1.416-5.134
			c0-2.541-0.458-4.37-1.375-5.488c-0.917-1.117-2.09-1.677-3.52-1.677c-1.389,0-2.552,0.552-3.489,1.656
			C483.007,431.147,482.539,432.795,482.539,434.99z"/>
		<path d="M535.065,430.949l-5.769,1.042c-0.195-1.152-0.635-2.021-1.323-2.604c-0.687-0.583-1.58-0.875-2.676-0.875
			c-1.458,0-2.621,0.504-3.488,1.51c-0.868,1.007-1.302,2.69-1.302,5.051c0,2.624,0.44,4.478,1.322,5.561s2.065,1.625,3.551,1.625
			c1.11,0,2.02-0.315,2.729-0.947c0.708-0.632,1.208-1.719,1.5-3.26l5.748,0.979c-0.597,2.639-1.743,4.631-3.437,5.978
			s-3.964,2.021-6.811,2.021c-3.235,0-5.814-1.021-7.737-3.062c-1.923-2.041-2.884-4.866-2.884-8.477
			c0-3.652,0.965-6.495,2.895-8.529c1.93-2.034,4.54-3.051,7.831-3.051c2.693,0,4.835,0.58,6.425,1.739
			S534.371,428.575,535.065,430.949z"/>
		<path d="M539.501,446.528v-30.533h5.853v30.533H539.501z"/>
		<path d="M551.352,421.41v-5.415h5.853v5.415H551.352z M551.352,446.528V424.41h5.853v22.118H551.352z"/>
		<path d="M562.765,424.41h5.395v3.02c1.93-2.347,4.228-3.52,6.894-3.52c1.417,0,2.646,0.291,3.687,0.874
			c1.042,0.584,1.896,1.466,2.562,2.646c0.972-1.18,2.02-2.062,3.145-2.646c1.125-0.583,2.325-0.874,3.603-0.874
			c1.625,0,2.999,0.33,4.124,0.989c1.125,0.659,1.965,1.628,2.52,2.905c0.403,0.944,0.604,2.472,0.604,4.582v14.142h-5.852v-12.643
			c0-2.193-0.202-3.609-0.604-4.248c-0.542-0.833-1.375-1.25-2.5-1.25c-0.819,0-1.59,0.25-2.312,0.75
			c-0.722,0.5-1.243,1.232-1.562,2.197s-0.479,2.488-0.479,4.571v10.622h-5.852v-12.121c0-2.152-0.104-3.541-0.313-4.166
			c-0.208-0.625-0.531-1.09-0.969-1.396c-0.437-0.305-1.031-0.458-1.781-0.458c-0.902,0-1.715,0.243-2.437,0.729
			c-0.722,0.485-1.239,1.187-1.552,2.104c-0.313,0.916-0.469,2.437-0.469,4.561v10.747h-5.853V424.41z"/>
		<path d="M605.503,431.158l-5.311-0.958c0.597-2.139,1.625-3.722,3.083-4.749c1.458-1.027,3.624-1.541,6.498-1.541
			c2.61,0,4.554,0.309,5.832,0.927c1.277,0.618,2.176,1.402,2.697,2.354c0.521,0.951,0.781,2.697,0.781,5.238l-0.063,6.831
			c0,1.944,0.094,3.377,0.281,4.301s0.538,1.913,1.052,2.968h-5.79c-0.153-0.389-0.34-0.965-0.562-1.729
			c-0.098-0.347-0.167-0.576-0.208-0.688c-1,0.972-2.069,1.701-3.208,2.187c-1.139,0.486-2.354,0.729-3.645,0.729
			c-2.277,0-4.072-0.618-5.384-1.854c-1.313-1.236-1.968-2.798-1.968-4.687c0-1.25,0.298-2.364,0.896-3.343
			c0.597-0.979,1.434-1.729,2.51-2.249c1.076-0.521,2.627-0.976,4.655-1.364c2.735-0.514,4.63-0.993,5.686-1.438v-0.583
			c0-1.125-0.278-1.927-0.833-2.405c-0.555-0.479-1.604-0.719-3.145-0.719c-1.042,0-1.854,0.205-2.437,0.614
			C606.336,429.412,605.864,430.13,605.503,431.158z M613.334,435.906c-0.75,0.25-1.937,0.549-3.562,0.896
			c-1.625,0.348-2.687,0.688-3.187,1.021c-0.764,0.542-1.146,1.229-1.146,2.063c0,0.819,0.305,1.527,0.916,2.124
			s1.389,0.896,2.333,0.896c1.055,0,2.062-0.347,3.02-1.041c0.708-0.527,1.173-1.174,1.395-1.938c0.153-0.5,0.229-1.45,0.229-2.854
			V435.906z"/>
		<path d="M634.994,424.41v4.665h-3.999v8.914c0,1.805,0.038,2.856,0.115,3.155c0.076,0.299,0.25,0.545,0.521,0.739
			c0.271,0.194,0.601,0.292,0.989,0.292c0.542,0,1.326-0.188,2.354-0.563l0.5,4.54c-1.361,0.583-2.902,0.875-4.624,0.875
			c-1.056,0-2.007-0.177-2.854-0.531c-0.847-0.354-1.468-0.813-1.864-1.375c-0.396-0.562-0.67-1.322-0.822-2.28
			c-0.125-0.68-0.188-2.055-0.188-4.124v-9.643h-2.687v-4.665h2.687v-4.395l5.873-3.416v7.811H634.994z"/>
		<path d="M651.864,439.488l5.832,0.979c-0.75,2.138-1.934,3.767-3.551,4.884c-1.618,1.118-3.642,1.677-6.071,1.677
			c-3.846,0-6.692-1.257-8.539-3.77c-1.458-2.014-2.187-4.555-2.187-7.623c0-3.666,0.958-6.536,2.874-8.612
			c1.916-2.075,4.339-3.113,7.269-3.113c3.291,0,5.887,1.086,7.79,3.259c1.902,2.174,2.812,5.502,2.729,9.987h-14.663
			c0.042,1.735,0.514,3.086,1.416,4.051c0.903,0.965,2.027,1.447,3.374,1.447c0.917,0,1.687-0.25,2.312-0.75
			C651.073,441.405,651.544,440.599,651.864,439.488z M652.197,433.574c-0.042-1.694-0.479-2.982-1.312-3.864
			c-0.833-0.881-1.847-1.322-3.041-1.322c-1.277,0-2.333,0.466-3.166,1.396c-0.833,0.931-1.243,2.194-1.229,3.791H652.197z"/>
		<path d="M684.334,455.504h-4.02c-2.125-3.207-3.742-6.54-4.853-9.997s-1.666-6.804-1.666-10.039c0-4.013,0.688-7.81,2.062-11.393
			c1.194-3.109,2.708-5.978,4.54-8.602h3.999c-1.902,4.207-3.211,7.786-3.926,10.736c-0.715,2.951-1.073,6.079-1.073,9.383
			c0,2.277,0.211,4.61,0.635,6.998c0.423,2.389,1.003,4.658,1.739,6.811C682.258,450.818,683.112,452.852,684.334,455.504z"/>
		<path d="M688.895,415.995H701.1c2.416,0,4.217,0.102,5.404,0.303c1.188,0.201,2.25,0.621,3.187,1.26
			c0.938,0.639,1.718,1.489,2.343,2.552c0.625,1.062,0.938,2.253,0.938,3.571c0,1.431-0.386,2.742-1.156,3.937
			s-1.815,2.09-3.134,2.687c1.86,0.542,3.291,1.465,4.291,2.771c1,1.305,1.5,2.839,1.5,4.603c0,1.389-0.323,2.738-0.969,4.051
			s-1.527,2.36-2.645,3.145c-1.118,0.785-2.496,1.268-4.134,1.448c-1.027,0.111-3.506,0.181-7.435,0.208h-10.393V415.995z
			 M695.06,421.077v7.061h4.041c2.402,0,3.895-0.034,4.478-0.104c1.055-0.124,1.885-0.489,2.489-1.093
			c0.604-0.604,0.906-1.398,0.906-2.385c0-0.944-0.26-1.711-0.781-2.302c-0.521-0.59-1.295-0.947-2.322-1.072
			c-0.611-0.069-2.368-0.104-5.27-0.104H695.06z M695.06,433.219v8.164h5.707c2.221,0,3.631-0.063,4.228-0.188
			c0.917-0.166,1.663-0.572,2.239-1.218c0.576-0.646,0.864-1.511,0.864-2.594c0-0.916-0.222-1.693-0.667-2.332
			s-1.086-1.104-1.926-1.396c-0.84-0.292-2.663-0.438-5.467-0.438H695.06z"/>
		<path d="M718.116,436.593l5.999-0.583c0.361,2.014,1.093,3.492,2.197,4.436c1.104,0.945,2.593,1.417,4.467,1.417
			c1.985,0,3.481-0.42,4.488-1.261c1.007-0.84,1.51-1.822,1.51-2.946c0-0.722-0.212-1.337-0.635-1.844
			c-0.424-0.507-1.163-0.947-2.218-1.322c-0.722-0.25-2.368-0.694-4.936-1.333c-3.305-0.819-5.624-1.825-6.957-3.02
			c-1.874-1.681-2.812-3.729-2.812-6.145c0-1.555,0.441-3.01,1.323-4.363c0.881-1.354,2.152-2.385,3.811-3.093
			s3.662-1.063,6.009-1.063c3.833,0,6.717,0.841,8.654,2.521s2.954,3.923,3.051,6.727l-6.165,0.271
			c-0.264-1.569-0.83-2.697-1.697-3.385c-0.868-0.688-2.17-1.031-3.905-1.031c-1.791,0-3.194,0.368-4.207,1.104
			c-0.653,0.472-0.979,1.104-0.979,1.895c0,0.723,0.305,1.341,0.917,1.854c0.777,0.652,2.666,1.333,5.665,2.041
			s5.217,1.44,6.654,2.197s2.562,1.791,3.374,3.103c0.813,1.313,1.218,2.934,1.218,4.863c0,1.75-0.486,3.389-1.458,4.916
			c-0.972,1.527-2.347,2.662-4.124,3.405c-1.777,0.742-3.992,1.114-6.644,1.114c-3.86,0-6.824-0.893-8.893-2.677
			C719.754,442.609,718.519,440.009,718.116,436.593z"/>
		<path d="M753.918,415.995v11.227c1.888-2.208,4.145-3.312,6.769-3.312c1.347,0,2.562,0.25,3.645,0.749
			c1.083,0.5,1.898,1.139,2.447,1.917c0.548,0.777,0.923,1.638,1.125,2.582c0.201,0.944,0.302,2.409,0.302,4.395v12.976h-5.853
			v-11.685c0-2.318-0.111-3.79-0.333-4.415c-0.222-0.625-0.614-1.121-1.177-1.489c-0.563-0.367-1.267-0.552-2.114-0.552
			c-0.972,0-1.84,0.236-2.604,0.708c-0.764,0.473-1.323,1.184-1.677,2.135s-0.531,2.357-0.531,4.218v11.08h-5.852v-30.533H753.918z"
			/>
		<path d="M772.517,455.504c1.152-2.472,1.965-4.367,2.437-5.686c0.472-1.319,0.909-2.84,1.312-4.562
			c0.402-1.722,0.701-3.356,0.896-4.905c0.194-1.548,0.292-3.134,0.292-4.759c0-3.304-0.354-6.432-1.062-9.383
			c-0.708-2.95-2.014-6.529-3.916-10.736h3.978c2.096,2.985,3.725,6.151,4.884,9.497c1.159,3.347,1.739,6.741,1.739,10.185
			c0,2.902-0.458,6.013-1.375,9.331c-1.042,3.721-2.756,7.394-5.145,11.018H772.517z"/>
	</g>
</g>
<g>
	
		<rect id="rect12069_62_" x="-1011.476" y="759.875" fill="#FDDA62" stroke="#000000" stroke-width="0.5" stroke-miterlimit="10" width="45.799" height="41.047"/>
	<text id="text738" transform="matrix(1 0 0 1 -960.0215 795.2012)" font-family="'Arial-BoldMT'" font-size="42.6543">Cold semi-arid climate (BSk)</text>
</g>
<g>
	
		<rect id="rect12069_61_" x="2026.329" y="1562.429" fill="#94FE97" stroke="#000000" stroke-width="0.5" stroke-miterlimit="10" width="45.801" height="41.042"/>
	<text id="text741" transform="matrix(1 0 0 1 2077.7783 1597.75)" font-family="'Arial-BoldMT'" font-size="42.6543">Humid subtropical climate (Cwa)</text>
</g>
<g>
	
		<rect id="rect12069_60_" x="2026.329" y="1630.049" fill="#5FC765" stroke="#000000" stroke-width="0.5" stroke-miterlimit="10" width="45.801" height="41.047"/>
	<text id="text744" transform="matrix(1 0 0 1 2077.7783 1665.373)" enable-background="new    "><tspan x="0" y="0" font-family="'Arial-BoldMT'" font-size="42.6543">Humid subtropical climate/</tspan><tspan x="0" y="51.186" font-family="'Arial-BoldMT'" font-size="42.6543">Subtropical oceanic highland climate (Cwb)</tspan></text>
</g>
<g>
	
		<rect id="rect12069_59_" x="2023.505" y="1775.415" fill="#369633" stroke="#000000" stroke-width="0.5" stroke-miterlimit="10" width="45.801" height="41.05"/>
	<text id="text747" transform="matrix(1 0 0 1 2074.9541 1810.7344)" font-family="'Arial-BoldMT'" font-size="42.6543">Oceanic subpolar climate (Cwc)</text>
</g>
<g>
	
		<rect id="rect12069_55_" x="2019.26" y="849.916" fill="#C5FE4B" stroke="#000000" stroke-width="0.5" stroke-miterlimit="10" width="45.803" height="41.044"/>
	<text id="text750" transform="matrix(1 0 0 1 2070.7168 885.2363)" enable-background="new    "><tspan x="0" y="0" font-family="'Arial-BoldMT'" font-size="42.6543">Warm oceanic climate/</tspan><tspan x="0" y="51.186" font-family="'Arial-BoldMT'" font-size="42.6543">Humid subtropical climate (Cfa)</tspan></text>
</g>
<g>
	
		<rect id="rect12069_54_" x="2016.433" y="1025.387" fill="#63FD32" stroke="#000000" stroke-width="0.5" stroke-miterlimit="10" width="45.803" height="41.051"/>
	<text id="text753" transform="matrix(1 0 0 1 2067.8887 1060.7148)" font-family="'Arial-BoldMT'" font-size="42.6543">Temperate oceanic climate (Cfb)</text>
</g>
<g>
	
		<rect id="rect12069_53_" x="2019.26" y="1201.323" fill="#35C600" stroke="#000000" stroke-width="0.5" stroke-miterlimit="10" width="45.803" height="41.052"/>
	<text id="text756" transform="matrix(1 0 0 1 2070.7168 1236.6484)" font-family="'Arial-BoldMT'" font-size="42.6543">Cool oceanic climate (Cfc)</text>
</g>
<g>
	
		<rect id="rect12069_52_" x="2044.987" y="125.863" fill="#FC00FB" stroke="#000000" stroke-width="0.5" stroke-miterlimit="10" width="45.8" height="41.046"/>
	<text id="text759" transform="matrix(1 0 0 1 2096.4414 161.1904)" enable-background="new    "><tspan x="0" y="0" font-family="'Arial-BoldMT'" font-size="42.6543">Warm continental climate/</tspan><tspan x="0" y="51.186" font-family="'Arial-BoldMT'" font-size="42.6543">Mediterranean continental climate (Dsa)</tspan></text>
</g>
<g>
	
		<rect id="rect12069_51_" x="2047.814" y="244.928" fill="#C900C4" stroke="#000000" stroke-width="0.5" stroke-miterlimit="10" width="45.8" height="41.042"/>
	<text id="text762" transform="matrix(1 0 0 1 2099.2686 280.2476)" enable-background="new    "><tspan x="0" y="0" font-family="'Arial-BoldMT'" font-size="42.6543">Temperate continental climate/</tspan><tspan x="0" y="51.186" font-family="'Arial-BoldMT'" font-size="42.6543">Mediterranean continental climate (Dsb)</tspan></text>
</g>
<g>
	
		<rect id="rect12069_50_" x="2050.642" y="333.529" fill="#983396" stroke="#000000" stroke-width="0.5" stroke-miterlimit="10" width="45.8" height="41.047"/>
	<text id="text765" transform="matrix(1 0 0 1 2102.0957 368.8506)" font-family="'Calibri-Bold'" font-size="42.6543">Cool continental climate (Dsc)</text>
</g>
<g>
	
		<rect id="rect12069_36_" x="2050.642" y="401.151" fill="#8E5D92" stroke="#000000" stroke-width="0.5" stroke-miterlimit="10" width="45.8" height="41.049"/>
	<text id="text768" transform="matrix(1 0 0 1 2102.0957 436.4766)" font-family="'Calibri-Bold'" font-size="42.6543">Cold continental climate (Dsd)</text>
</g>
<g>
	
		<rect id="rect12069_35_" x="1051.246" y="-781.542" fill="#A5AFFF" stroke="#000000" stroke-width="0.5" stroke-miterlimit="10" width="45.801" height="41.047"/>
	<text id="text771" transform="matrix(1 0 0 1 1104.4746 -746.2153)" enable-background="new    "><tspan x="0" y="0" font-family="'Arial-BoldMT'" font-size="42.6543">Warm continental climate/</tspan><tspan x="0" y="51.186" font-family="'Arial-BoldMT'" font-size="42.6543">Humid continental climate (Dwa)</tspan></text>
</g>
<g>
	
		<rect id="rect12069_32_" x="1047.533" y="-557.112" fill="#4A78E3" stroke="#000000" stroke-width="0.5" stroke-miterlimit="10" width="45.801" height="41.051"/>
	<text id="text774" transform="matrix(1 0 0 1 1100.7617 -521.7871)" enable-background="new    "><tspan x="0" y="0" font-family="'Arial-BoldMT'" font-size="42.6543">Temperate continental climate/</tspan><tspan x="0" y="51.186" font-family="'Arial-BoldMT'" font-size="42.6543">Humid continental climate (Dwb) </tspan></text>
</g>
<g>
	
		<rect id="rect12069_31_" x="1047.533" y="-370.032" fill="#484EB4" stroke="#000000" stroke-width="0.5" stroke-miterlimit="10" width="45.801" height="41.041"/>
	<text id="text777" transform="matrix(1 0 0 1 1100.7617 -334.7173)" enable-background="new    "><tspan x="0" y="0" font-family="'Arial-BoldMT'" font-size="42.6543">Cool continental climate/</tspan><tspan x="0" y="51.186" font-family="'Arial-BoldMT'" font-size="42.6543">Subarctic climate (Dwc)</tspan></text>
</g>
<g>
	
		<rect id="rect12069_30_" x="1047.533" y="-180.407" fill="#30008A" stroke="#000000" stroke-width="0.5" stroke-miterlimit="10" width="45.801" height="41.053"/>
	<text id="text780" transform="matrix(1 0 0 1 1100.7617 -145.0781)" enable-background="new    "><tspan x="0" y="0" font-family="'Arial-BoldMT'" font-size="42.6543">Cold continental climate/</tspan><tspan x="0" y="51.186" font-family="'Arial-BoldMT'" font-size="42.6543">Subarctic climate (Dwd)</tspan></text>
</g>
<g>
	
		<rect id="rect12069_29_" x="-835.586" y="1302.248" fill="#00FCFD" stroke="#000000" stroke-width="0.5" stroke-miterlimit="10" width="45.802" height="41.052"/>
	<text id="text783" transform="matrix(1 0 0 1 -782.356 1337.5781)" enable-background="new    "><tspan x="0" y="0" font-family="'Arial-BoldMT'" font-size="42.6543">Warm continental climate/</tspan><tspan x="0" y="51.186" font-family="'Arial-BoldMT'" font-size="42.6543">Humid continental climate (Dfa)</tspan></text>
</g>
<g>
	
		<rect id="rect12069_28_" x="-888.817" y="1424.959" fill="#3DC6FA" stroke="#000000" stroke-width="0.5" stroke-miterlimit="10" width="45.802" height="41.047"/>
	<text id="text786" transform="matrix(1 0 0 1 -835.5864 1460.2861)" enable-background="new    "><tspan x="0" y="0" font-family="'Arial-BoldMT'" font-size="42.6543">Temperate continental climate/</tspan><tspan x="0" y="51.186" font-family="'Arial-BoldMT'" font-size="42.6543">Humid continental climate (Dfb)</tspan></text>
</g>
<g>
	
		<rect id="rect12069_27_" x="-915.431" y="1565.267" fill="#007E7E" stroke="#000000" stroke-width="0.5" stroke-miterlimit="10" width="45.802" height="41.043"/>
	<text id="text789" transform="matrix(1 0 0 1 -862.2007 1600.5908)" enable-background="new    "><tspan x="0" y="0" font-family="'Arial-BoldMT'" font-size="42.6543">Cool continental climate/</tspan><tspan x="0" y="51.186" font-family="'Arial-BoldMT'" font-size="42.6543">Subarctic climate (Dfc)</tspan></text>
</g>
<g>
	
		<rect id="rect12069_26_" x="-942.046" y="1734.369" fill="#004660" stroke="#000000" stroke-width="0.5" stroke-miterlimit="10" width="45.802" height="41.047"/>
	<text id="text792" transform="matrix(1 0 0 1 -888.8159 1769.6973)" enable-background="new    "><tspan x="0" y="0" font-family="'Arial-BoldMT'" font-size="42.6543">Cold continental climate/</tspan><tspan x="0" y="51.186" font-family="'Arial-BoldMT'" font-size="42.6543">Subarctic climate (Dfd)</tspan></text>
</g>
<g>
	
		<rect id="rect12069_25_" x="33.529" y="-206.979" fill="#AEB0AD" stroke="#000000" stroke-width="0.5" stroke-miterlimit="10" width="45.801" height="41.046"/>
	<text id="text795" transform="matrix(1 0 0 1 86.7563 -171.6567)" font-family="'Arial-BoldMT'" font-size="42.6543">Tundra climate (ET)</text>
</g>
<g>
	
		<rect id="rect12069_24_" x="33.529" y="-139.354" fill="#686967" stroke="#000000" stroke-width="0.5" stroke-miterlimit="10" width="45.801" height="41.042"/>
	<text id="text798" transform="matrix(1 0 0 1 86.7563 -104.0327)" font-family="'Arial-BoldMT'" font-size="42.6543">Ice cap climate (EF)</text>
</g>
<g>
	
		<rect id="rect12069_23_" x="-993.5" y="921.099" fill="#FCFE04" stroke="#000000" stroke-width="0.5" stroke-miterlimit="10" width="45.803" height="41.045"/>
	<text id="text801" transform="matrix(1 0 0 1 -942.0464 956.4238)" font-family="'Arial-BoldMT'" font-size="42.6543">Warm mediterranean climate (Csa)</text>
</g>
<g>
	
		<rect id="rect12069_22_" x="-993.5" y="988.726" fill="#CECC08" stroke="#000000" stroke-width="0.5" stroke-miterlimit="10" width="45.803" height="41.043"/>
	<text id="text804" transform="matrix(1 0 0 1 -942.0464 1024.0547)" font-family="'Arial-BoldMT'" font-size="42.6543">Temperate mediterranean climate (Csb)</text>
</g>
<g>
	
		<rect id="rect12069_66_" x="-1019.225" y="393.854" fill="#3AAAFC" stroke="#000000" stroke-width="0.5" stroke-miterlimit="10" width="45.803" height="41.047"/>
	<text transform="matrix(1 0 0 1 -967.7734 429.1782)" font-family="'Arial-BoldMT'" font-size="42.6543">Tropical savanna climate (Aw</text>
	<text transform="matrix(1 0 0 1 -370.4053 429.1782)" font-family="'Arial-BoldMT'" font-size="42.6543">)</text>
</g>
<g>
	
		<rect id="rect12069_3_" x="127.85" y="1498.577" fill="#3AAAFC" stroke="#000000" stroke-width="0.5" stroke-miterlimit="10" width="45.803" height="41.047"/>
	<g enable-background="new    ">
		<path d="M189.277,1533.901v-25.367h-9.06v-5.166h24.264v5.166h-9.039v25.367H189.277z"/>
		<path d="M211.667,1533.901h-5.853v-22.117h5.436v3.145c0.93-1.486,1.767-2.465,2.51-2.938c0.743-0.471,1.586-0.707,2.53-0.707
			c1.333,0,2.617,0.367,3.853,1.104l-1.812,5.102c-0.986-0.639-1.903-0.957-2.75-0.957c-0.819,0-1.514,0.225-2.083,0.676
			c-0.57,0.451-1.018,1.268-1.343,2.447c-0.327,1.182-0.49,3.652-0.49,7.416V1533.901z"/>
		<path d="M221.31,1522.53c0-1.943,0.479-3.824,1.437-5.645c0.958-1.818,2.315-3.207,4.072-4.166
			c1.756-0.957,3.718-1.436,5.884-1.436c3.346,0,6.088,1.086,8.227,3.258c2.138,2.174,3.208,4.92,3.208,8.238
			c0,3.346-1.08,6.119-3.239,8.32c-2.159,2.201-4.877,3.301-8.154,3.301c-2.027,0-3.961-0.457-5.8-1.375
			c-1.84-0.916-3.239-2.26-4.197-4.029S221.31,1525.071,221.31,1522.53z M227.308,1522.843c0,2.193,0.521,3.873,1.562,5.039
			c1.042,1.168,2.326,1.75,3.853,1.75s2.808-0.582,3.843-1.75c1.034-1.166,1.552-2.859,1.552-5.08c0-2.166-0.518-3.834-1.552-5
			c-1.035-1.166-2.315-1.748-3.843-1.748s-2.812,0.582-3.853,1.748S227.308,1520.649,227.308,1522.843z"/>
		<path d="M248.552,1511.784h5.457v3.248c0.708-1.111,1.667-2.014,2.875-2.707c1.208-0.695,2.547-1.041,4.02-1.041
			c2.568,0,4.749,1.006,6.54,3.02c1.792,2.014,2.687,4.818,2.687,8.414c0,3.693-0.903,6.564-2.708,8.611
			c-1.805,2.049-3.992,3.072-6.561,3.072c-1.222,0-2.33-0.242-3.322-0.729s-2.038-1.318-3.134-2.5v11.143h-5.853V1511.784z
			 M254.342,1522.468c0,2.486,0.493,4.322,1.479,5.508c0.986,1.188,2.187,1.781,3.603,1.781c1.361,0,2.492-0.545,3.395-1.635
			c0.902-1.09,1.354-2.877,1.354-5.363c0-2.318-0.465-4.039-1.396-5.164c-0.931-1.125-2.083-1.688-3.458-1.688
			c-1.43,0-2.617,0.553-3.562,1.656S254.342,1520.302,254.342,1522.468z"/>
		<path d="M274.773,1508.784v-5.416h5.853v5.416H274.773z M274.773,1533.901v-22.117h5.853v22.117H274.773z"/>
		<path d="M305.91,1518.323l-5.769,1.041c-0.195-1.152-0.635-2.02-1.323-2.604c-0.687-0.582-1.58-0.875-2.676-0.875
			c-1.458,0-2.621,0.504-3.488,1.51c-0.868,1.008-1.302,2.691-1.302,5.051c0,2.625,0.44,4.479,1.322,5.561
			c0.882,1.084,2.065,1.625,3.551,1.625c1.11,0,2.02-0.314,2.729-0.947c0.708-0.631,1.208-1.719,1.5-3.26l5.748,0.979
			c-0.597,2.639-1.743,4.631-3.437,5.979c-1.694,1.346-3.964,2.02-6.811,2.02c-3.235,0-5.814-1.02-7.737-3.061
			c-1.923-2.041-2.884-4.867-2.884-8.477c0-3.652,0.965-6.496,2.895-8.529c1.93-2.035,4.54-3.051,7.831-3.051
			c2.693,0,4.835,0.58,6.425,1.738C304.073,1514.183,305.215,1515.948,305.91,1518.323z"/>
		<path d="M314.72,1518.532l-5.311-0.959c0.597-2.139,1.625-3.721,3.083-4.748c1.458-1.027,3.624-1.541,6.498-1.541
			c2.61,0,4.554,0.309,5.832,0.926c1.277,0.619,2.176,1.402,2.697,2.354c0.521,0.951,0.781,2.697,0.781,5.238l-0.063,6.832
			c0,1.943,0.094,3.377,0.281,4.301s0.538,1.912,1.052,2.967h-5.79c-0.153-0.389-0.34-0.965-0.562-1.729
			c-0.098-0.346-0.167-0.576-0.208-0.688c-1,0.973-2.069,1.701-3.208,2.188s-2.354,0.729-3.645,0.729
			c-2.277,0-4.072-0.617-5.384-1.854c-1.313-1.236-1.968-2.797-1.968-4.686c0-1.25,0.298-2.365,0.896-3.344
			c0.597-0.979,1.434-1.729,2.51-2.248c1.076-0.521,2.627-0.977,4.655-1.365c2.735-0.514,4.63-0.992,5.686-1.438v-0.582
			c0-1.125-0.278-1.928-0.833-2.406s-1.604-0.719-3.145-0.719c-1.042,0-1.854,0.205-2.437,0.615S315.081,1517.505,314.72,1518.532z
			 M322.551,1523.28c-0.75,0.25-1.937,0.549-3.562,0.895c-1.625,0.348-2.687,0.688-3.187,1.021
			c-0.764,0.541-1.146,1.229-1.146,2.063c0,0.818,0.305,1.527,0.916,2.123c0.611,0.598,1.389,0.896,2.333,0.896
			c1.055,0,2.062-0.348,3.02-1.041c0.708-0.527,1.173-1.174,1.395-1.938c0.153-0.5,0.229-1.451,0.229-2.854V1523.28z"/>
		<path d="M334.068,1533.901v-30.533h5.853v30.533H334.068z"/>
		<path d="M355.708,1527.591l5.874-0.895c0.25,1.139,0.756,2.002,1.521,2.592c0.763,0.592,1.833,0.885,3.207,0.885
			c1.514,0,2.652-0.277,3.416-0.832c0.513-0.389,0.771-0.91,0.771-1.563c0-0.443-0.139-0.813-0.417-1.104
			c-0.292-0.277-0.944-0.535-1.958-0.771c-4.721-1.041-7.713-1.992-8.977-2.852c-1.75-1.195-2.624-2.854-2.624-4.979
			c0-1.916,0.756-3.527,2.27-4.832c1.513-1.305,3.86-1.957,7.04-1.957c3.027,0,5.276,0.492,6.748,1.479s2.485,2.443,3.041,4.373
			l-5.519,1.021c-0.236-0.861-0.684-1.521-1.344-1.979c-0.66-0.459-1.6-0.688-2.822-0.688c-1.542,0-2.645,0.215-3.312,0.645
			c-0.445,0.307-0.667,0.701-0.667,1.188c0,0.416,0.194,0.771,0.583,1.063c0.527,0.389,2.35,0.938,5.467,1.645
			c3.117,0.709,5.293,1.576,6.529,2.604c1.222,1.041,1.833,2.492,1.833,4.354c0,2.027-0.847,3.77-2.541,5.229
			c-1.694,1.457-4.201,2.186-7.519,2.186c-3.013,0-5.397-0.611-7.154-1.832C357.398,1531.347,356.249,1529.688,355.708,1527.591z"/>
		<path d="M385.866,1518.532l-5.311-0.959c0.597-2.139,1.625-3.721,3.083-4.748c1.458-1.027,3.624-1.541,6.498-1.541
			c2.61,0,4.554,0.309,5.832,0.926c1.277,0.619,2.176,1.402,2.697,2.354c0.521,0.951,0.781,2.697,0.781,5.238l-0.063,6.832
			c0,1.943,0.094,3.377,0.281,4.301s0.538,1.912,1.052,2.967h-5.79c-0.153-0.389-0.34-0.965-0.562-1.729
			c-0.098-0.346-0.167-0.576-0.208-0.688c-1,0.973-2.069,1.701-3.208,2.188s-2.354,0.729-3.645,0.729
			c-2.277,0-4.072-0.617-5.384-1.854c-1.313-1.236-1.968-2.797-1.968-4.686c0-1.25,0.298-2.365,0.896-3.344
			c0.597-0.979,1.434-1.729,2.51-2.248c1.076-0.521,2.627-0.977,4.655-1.365c2.735-0.514,4.63-0.992,5.686-1.438v-0.582
			c0-1.125-0.278-1.928-0.833-2.406s-1.604-0.719-3.145-0.719c-1.042,0-1.854,0.205-2.437,0.615S386.227,1517.505,385.866,1518.532z
			 M393.697,1523.28c-0.75,0.25-1.937,0.549-3.562,0.895c-1.625,0.348-2.687,0.688-3.187,1.021
			c-0.764,0.541-1.146,1.229-1.146,2.063c0,0.818,0.305,1.527,0.916,2.123c0.611,0.598,1.389,0.896,2.333,0.896
			c1.055,0,2.062-0.348,3.02-1.041c0.708-0.527,1.173-1.174,1.395-1.938c0.153-0.5,0.229-1.451,0.229-2.854V1523.28z"/>
		<path d="M411.296,1533.901l-8.914-22.117h6.144l4.166,11.287l1.208,3.77c0.319-0.957,0.521-1.59,0.604-1.895
			c0.194-0.625,0.402-1.25,0.625-1.875l4.207-11.287h6.019l-8.789,22.117H411.296z"/>
		<path d="M433.311,1518.532l-5.311-0.959c0.597-2.139,1.625-3.721,3.083-4.748c1.458-1.027,3.624-1.541,6.498-1.541
			c2.61,0,4.554,0.309,5.832,0.926c1.277,0.619,2.176,1.402,2.697,2.354c0.521,0.951,0.781,2.697,0.781,5.238l-0.063,6.832
			c0,1.943,0.094,3.377,0.281,4.301s0.538,1.912,1.052,2.967h-5.79c-0.153-0.389-0.34-0.965-0.562-1.729
			c-0.098-0.346-0.167-0.576-0.208-0.688c-1,0.973-2.069,1.701-3.208,2.188s-2.354,0.729-3.645,0.729
			c-2.277,0-4.072-0.617-5.384-1.854c-1.313-1.236-1.968-2.797-1.968-4.686c0-1.25,0.298-2.365,0.896-3.344
			c0.597-0.979,1.434-1.729,2.51-2.248c1.076-0.521,2.627-0.977,4.655-1.365c2.735-0.514,4.63-0.992,5.686-1.438v-0.582
			c0-1.125-0.278-1.928-0.833-2.406s-1.604-0.719-3.145-0.719c-1.042,0-1.854,0.205-2.437,0.615S433.671,1517.505,433.311,1518.532z
			 M441.142,1523.28c-0.75,0.25-1.937,0.549-3.562,0.895c-1.625,0.348-2.687,0.688-3.187,1.021
			c-0.764,0.541-1.146,1.229-1.146,2.063c0,0.818,0.305,1.527,0.916,2.123c0.611,0.598,1.389,0.896,2.333,0.896
			c1.055,0,2.062-0.348,3.02-1.041c0.708-0.527,1.173-1.174,1.395-1.938c0.153-0.5,0.229-1.451,0.229-2.854V1523.28z"/>
		<path d="M472.778,1533.901h-5.853v-11.287c0-2.389-0.125-3.934-0.375-4.635c-0.25-0.701-0.656-1.246-1.219-1.635
			c-0.562-0.389-1.239-0.584-2.03-0.584c-1.014,0-1.923,0.279-2.729,0.834c-0.806,0.555-1.357,1.291-1.656,2.207
			c-0.299,0.916-0.448,2.611-0.448,5.082v10.018h-5.853v-22.117h5.436v3.248c1.93-2.5,4.359-3.748,7.29-3.748
			c1.291,0,2.471,0.232,3.541,0.697c1.069,0.465,1.877,1.059,2.426,1.781c0.548,0.721,0.93,1.541,1.146,2.457
			s0.323,2.229,0.323,3.936V1533.901z"/>
		<path d="M498.833,1533.901h-5.853v-11.287c0-2.389-0.125-3.934-0.375-4.635c-0.25-0.701-0.656-1.246-1.219-1.635
			c-0.562-0.389-1.239-0.584-2.03-0.584c-1.014,0-1.923,0.279-2.729,0.834c-0.806,0.555-1.357,1.291-1.656,2.207
			c-0.299,0.916-0.448,2.611-0.448,5.082v10.018h-5.853v-22.117h5.436v3.248c1.93-2.5,4.359-3.748,7.29-3.748
			c1.291,0,2.471,0.232,3.541,0.697c1.069,0.465,1.877,1.059,2.426,1.781c0.548,0.721,0.93,1.541,1.146,2.457
			s0.323,2.229,0.323,3.936V1533.901z"/>
		<path d="M509.143,1518.532l-5.311-0.959c0.597-2.139,1.625-3.721,3.083-4.748c1.458-1.027,3.624-1.541,6.498-1.541
			c2.61,0,4.554,0.309,5.832,0.926c1.277,0.619,2.176,1.402,2.697,2.354c0.521,0.951,0.781,2.697,0.781,5.238l-0.063,6.832
			c0,1.943,0.094,3.377,0.281,4.301s0.538,1.912,1.052,2.967h-5.79c-0.153-0.389-0.34-0.965-0.562-1.729
			c-0.098-0.346-0.167-0.576-0.208-0.688c-1,0.973-2.069,1.701-3.208,2.188s-2.354,0.729-3.645,0.729
			c-2.277,0-4.072-0.617-5.384-1.854c-1.313-1.236-1.968-2.797-1.968-4.686c0-1.25,0.298-2.365,0.896-3.344
			c0.597-0.979,1.434-1.729,2.51-2.248c1.076-0.521,2.627-0.977,4.655-1.365c2.735-0.514,4.63-0.992,5.686-1.438v-0.582
			c0-1.125-0.278-1.928-0.833-2.406s-1.604-0.719-3.145-0.719c-1.042,0-1.854,0.205-2.437,0.615S509.503,1517.505,509.143,1518.532z
			 M516.974,1523.28c-0.75,0.25-1.937,0.549-3.562,0.895c-1.625,0.348-2.687,0.688-3.187,1.021
			c-0.764,0.541-1.146,1.229-1.146,2.063c0,0.818,0.305,1.527,0.916,2.123c0.611,0.598,1.389,0.896,2.333,0.896
			c1.055,0,2.062-0.348,3.02-1.041c0.708-0.527,1.173-1.174,1.395-1.938c0.153-0.5,0.229-1.451,0.229-2.854V1523.28z"/>
		<path d="M559.628,1518.323l-5.769,1.041c-0.195-1.152-0.635-2.02-1.323-2.604c-0.687-0.582-1.58-0.875-2.676-0.875
			c-1.458,0-2.621,0.504-3.488,1.51c-0.868,1.008-1.302,2.691-1.302,5.051c0,2.625,0.44,4.479,1.322,5.561
			c0.882,1.084,2.065,1.625,3.551,1.625c1.11,0,2.02-0.314,2.729-0.947c0.708-0.631,1.208-1.719,1.5-3.26l5.748,0.979
			c-0.597,2.639-1.743,4.631-3.437,5.979c-1.694,1.346-3.964,2.02-6.811,2.02c-3.235,0-5.814-1.02-7.737-3.061
			c-1.923-2.041-2.884-4.867-2.884-8.477c0-3.652,0.965-6.496,2.895-8.529c1.93-2.035,4.54-3.051,7.831-3.051
			c2.693,0,4.835,0.58,6.425,1.738C557.792,1514.183,558.934,1515.948,559.628,1518.323z"/>
		<path d="M564.064,1533.901v-30.533h5.853v30.533H564.064z"/>
		<path d="M575.915,1508.784v-5.416h5.853v5.416H575.915z M575.915,1533.901v-22.117h5.853v22.117H575.915z"/>
		<path d="M587.328,1511.784h5.395v3.02c1.93-2.348,4.228-3.52,6.894-3.52c1.417,0,2.646,0.291,3.687,0.873
			c1.042,0.584,1.896,1.467,2.562,2.646c0.972-1.18,2.02-2.063,3.145-2.646c1.125-0.582,2.325-0.873,3.603-0.873
			c1.625,0,2.999,0.33,4.124,0.988c1.125,0.66,1.965,1.629,2.52,2.906c0.403,0.943,0.604,2.471,0.604,4.582v14.141h-5.852v-12.643
			c0-2.193-0.202-3.609-0.604-4.248c-0.542-0.832-1.375-1.25-2.5-1.25c-0.819,0-1.59,0.25-2.312,0.75
			c-0.722,0.5-1.243,1.232-1.562,2.197s-0.479,2.488-0.479,4.572v10.621H600.7v-12.121c0-2.152-0.104-3.541-0.313-4.166
			c-0.208-0.625-0.531-1.09-0.969-1.395c-0.437-0.305-1.031-0.459-1.781-0.459c-0.902,0-1.715,0.244-2.437,0.73
			c-0.722,0.484-1.239,1.186-1.552,2.104c-0.313,0.916-0.469,2.436-0.469,4.561v10.746h-5.853V1511.784z"/>
		<path d="M630.066,1518.532l-5.311-0.959c0.597-2.139,1.625-3.721,3.083-4.748c1.458-1.027,3.624-1.541,6.498-1.541
			c2.61,0,4.554,0.309,5.832,0.926c1.277,0.619,2.176,1.402,2.697,2.354c0.521,0.951,0.781,2.697,0.781,5.238l-0.063,6.832
			c0,1.943,0.094,3.377,0.281,4.301s0.538,1.912,1.052,2.967h-5.79c-0.153-0.389-0.34-0.965-0.562-1.729
			c-0.098-0.346-0.167-0.576-0.208-0.688c-1,0.973-2.069,1.701-3.208,2.188s-2.354,0.729-3.645,0.729
			c-2.277,0-4.072-0.617-5.384-1.854c-1.313-1.236-1.968-2.797-1.968-4.686c0-1.25,0.298-2.365,0.896-3.344
			c0.597-0.979,1.434-1.729,2.51-2.248c1.076-0.521,2.627-0.977,4.655-1.365c2.735-0.514,4.63-0.992,5.686-1.438v-0.582
			c0-1.125-0.278-1.928-0.833-2.406s-1.604-0.719-3.145-0.719c-1.042,0-1.854,0.205-2.437,0.615S630.427,1517.505,630.066,1518.532z
			 M637.897,1523.28c-0.75,0.25-1.937,0.549-3.562,0.895c-1.625,0.348-2.687,0.688-3.187,1.021
			c-0.764,0.541-1.146,1.229-1.146,2.063c0,0.818,0.305,1.527,0.916,2.123c0.611,0.598,1.389,0.896,2.333,0.896
			c1.055,0,2.062-0.348,3.02-1.041c0.708-0.527,1.173-1.174,1.395-1.938c0.153-0.5,0.229-1.451,0.229-2.854V1523.28z"/>
		<path d="M659.557,1511.784v4.664h-3.999v8.914c0,1.805,0.038,2.857,0.115,3.156c0.076,0.299,0.25,0.545,0.521,0.738
			c0.271,0.195,0.601,0.293,0.989,0.293c0.542,0,1.326-0.188,2.354-0.563l0.5,4.539c-1.361,0.584-2.902,0.875-4.624,0.875
			c-1.056,0-2.007-0.176-2.854-0.531c-0.847-0.354-1.468-0.813-1.864-1.375c-0.396-0.561-0.67-1.322-0.822-2.279
			c-0.125-0.68-0.188-2.055-0.188-4.125v-9.643h-2.687v-4.664h2.687v-4.395l5.873-3.416v7.811H659.557z"/>
		<path d="M676.427,1526.862l5.832,0.979c-0.75,2.139-1.934,3.768-3.551,4.885s-3.642,1.676-6.071,1.676
			c-3.846,0-6.692-1.256-8.539-3.77c-1.458-2.014-2.187-4.555-2.187-7.623c0-3.666,0.958-6.535,2.874-8.611s4.339-3.113,7.269-3.113
			c3.291,0,5.887,1.086,7.79,3.258c1.902,2.174,2.812,5.502,2.729,9.988h-14.663c0.042,1.734,0.514,3.086,1.416,4.051
			c0.903,0.965,2.027,1.447,3.374,1.447c0.917,0,1.687-0.25,2.312-0.75S676.107,1527.974,676.427,1526.862z M676.76,1520.948
			c-0.042-1.695-0.479-2.982-1.312-3.865c-0.833-0.881-1.847-1.322-3.041-1.322c-1.277,0-2.333,0.467-3.166,1.396
			s-1.243,2.193-1.229,3.791H676.76z"/>
		<path d="M708.897,1542.878h-4.02c-2.125-3.207-3.742-6.539-4.853-9.996s-1.666-6.805-1.666-10.039
			c0-4.014,0.688-7.811,2.062-11.393c1.194-3.109,2.708-5.979,4.54-8.602h3.999c-1.902,4.207-3.211,7.785-3.926,10.736
			c-0.715,2.951-1.073,6.078-1.073,9.383c0,2.277,0.211,4.609,0.635,6.998c0.423,2.389,1.003,4.658,1.739,6.811
			C706.821,1538.192,707.675,1540.226,708.897,1542.878z"/>
		<path d="M740.971,1533.901h-6.706l-2.666-6.936h-12.205l-2.521,6.936h-6.54l11.893-30.533h6.519L740.971,1533.901z
			 M729.62,1521.821l-4.207-11.33l-4.124,11.33H729.62z"/>
		<path d="M747.553,1533.901l-6.998-22.117h5.686l4.145,14.494l3.811-14.494h5.645l3.687,14.494l4.228-14.494h5.77l-7.102,22.117
			h-5.624l-3.812-14.225l-3.749,14.225H747.553z"/>
	</g>
	<g enable-background="new    ">
		<path d="M778.106,1542.878c1.152-2.471,1.965-4.367,2.437-5.686c0.472-1.318,0.909-2.84,1.312-4.561
			c0.402-1.723,0.701-3.357,0.896-4.906c0.194-1.547,0.292-3.133,0.292-4.758c0-3.305-0.354-6.432-1.062-9.383
			s-2.014-6.529-3.916-10.736h3.978c2.096,2.984,3.725,6.15,4.884,9.496c1.159,3.348,1.739,6.742,1.739,10.186
			c0,2.902-0.458,6.012-1.375,9.33c-1.042,3.721-2.756,7.395-5.145,11.018H778.106z"/>
	</g>
</g>
<sodipodi:namedview  id="namedview27" objecttolerance="10" pagecolor="#ffffff" guidetolerance="10" bordercolor="#666666" gridtolerance="10" showgrid="false" inkscape:cy="250" borderopacity="1" inkscape:zoom="0.472" inkscape:cx="250" inkscape:window-y="0" inkscape:window-x="0" inkscape:pageshadow="2" inkscape:pageopacity="0" inkscape:window-width="686" inkscape:window-height="480" inkscape:window-maximized="0" inkscape:current-layer="Layer_1">
	</sodipodi:namedview>
<g>
	<g>
		<path fill="#3AAAFC" d="M1698.424,353.031L1698.424,353.031c0.709-1.361,1.449-2.719,2.132-4.077l0,0
			C1699.873,350.282,1699.133,351.67,1698.424,353.031z"/>
	</g>
	<g>
		<path fill="#3AAAFC" d="M1693.544,343.766c-0.029,0.034-0.029,0.063-0.095,0.125c0.68,0.756,1.423,1.358,2.041,2.147
			c1.667,1.959,2.531,4.339,2.9,6.963c0.68-1.361,1.451-2.718,2.1-4.093C1698.3,347.396,1695.983,345.698,1693.544,343.766z"/>
	</g>
	<g>
		<polygon fill="#3AAAFC" points="1700.556,348.908 1700.556,348.908 1700.556,348.908 		"/>
	</g>
	<g>
		<path fill="#3AAAFC" d="M1564.943,1030.601c-19.637,21.999-63.668,2.424-75.956,24.393c-2.688,5.126-5.034,10.345-7.165,15.624
			l0,0c2.102-5.279,4.477-10.498,7.165-15.624C1501.275,1033.055,1545.307,1052.631,1564.943,1030.601
			c0.647-0.709,0.928-1.468,1.542-2.194l0,0C1565.871,1029.133,1565.591,1029.859,1564.943,1030.601z"/>
	</g>
	<g>
		<path fill="#3AAAFC" d="M1566.485,1028.406L1566.485,1028.406c17.324-20.16,16.212-41.666,17.601-63.046c0,0,0,0,0-0.034
			C1582.697,986.74,1583.84,1008.276,1566.485,1028.406z"/>
	</g>
	<g>
		<path fill="#3AAAFC" d="M1584.056,965.326c0.124-1.852,0.185-3.688,0.4-5.556C1584.271,961.639,1584.116,963.505,1584.056,965.326
			z"/>
	</g>
	<g>
		<path fill="#3AAAFC" d="M1564.943,1030.601c0.647-0.741,0.928-1.468,1.542-2.194c-7.285,5.576-17.601,10.099-32.542,13.188
			c-29.396,4.875-46.562-4.927-51.441,24.404c-0.307,1.56-0.431,3.072-0.68,4.618c2.102-5.279,4.477-10.498,7.165-15.624
			C1501.275,1033.024,1545.307,1052.631,1564.943,1030.601z"/>
	</g>
	<g>
		<path fill="#3AAAFC" d="M1655.444,839.599c6.203-2.887,12.874-6.685,19.512-10.946c-15.684,6.993-32.39,13.06-40.634,26.846
			c-14.696,22-14.696,39.104-34.273,63.668c-10.774,12.119-14.232,25.521-15.469,38.95c1.605-14.542,5.744-28.945,19.421-42.64
			C1628.549,891.038,1626.077,854.264,1655.444,839.599z"/>
	</g>
	<g>
		<path fill="#3AAAFC" d="M1655.444,839.599c-29.396,14.666-26.927,51.439-51.443,75.848
			c-13.708,13.679-17.815,28.066-19.421,42.641c0,0,0,0,0,0.03c1.605-14.542,5.744-28.945,19.421-42.64
			C1628.549,891.068,1626.077,854.295,1655.444,839.599c6.267-2.887,12.935-6.715,19.605-11.006c-0.033,0-0.063,0.03-0.094,0.03
			C1668.348,832.914,1661.679,836.712,1655.444,839.599z"/>
	</g>
	<g>
		<path fill="#3AAAFC" d="M1584.456,959.801c0,0,0-0.03,0-0.061c0.063-0.54,0.063-1.082,0.124-1.576c0,0,0,0,0-0.047
			C1584.519,958.658,1584.519,959.229,1584.456,959.801z"/>
	</g>
	<g>
		<path fill="#3AAAFC" d="M1584.056,965.326C1584.056,965.36,1584.056,965.36,1584.056,965.326c0.124-1.852,0.185-3.72,0.4-5.619
			c0,0.033,0,0.033,0,0.063C1584.24,961.639,1584.18,963.505,1584.056,965.326z"/>
	</g>
	<g>
		<path fill="#3AAAFC" d="M1469.288,1258.055c0.124,31.893-2.161,63.42-12.104,93.26l0,0
			C1467.096,1321.475,1469.412,1289.947,1469.288,1258.055z"/>
	</g>
	<g>
		<path fill="#3AAAFC" d="M1469.288,1258.055c0.124,31.893-2.161,63.42-12.104,93.26c19.638,27.48,28.654,71.141,32.851,115.602
			c2.101-36.232-19.885-84.479-22.23-121.729c-2.406-66.108,9.82-132.26,9.82-198.306c0-25.487,0.185-50.808,4.261-76.234
			c-11.486,28.808-14.729,59.794-15.007,91.704C1466.603,1193.797,1469.163,1226.11,1469.288,1258.055z"/>
	</g>
	<g>
		<polygon fill="#3AAAFC" points="1704.165,712.712 1704.165,712.712 1704.135,712.587 		"/>
	</g>
	<g>
		<path fill="#3AAAFC" d="M1675.05,828.623c12.227-5.451,23.868-11.41,30.291-22.141c2.809-4.197,4.598-8.351,5.895-12.488
			C1702.807,807.749,1689.159,819.545,1675.05,828.623z"/>
	</g>
	<g>
		<path fill="#3AAAFC" d="M1711.235,793.994c5.313-8.722,8.646-18.142,8.368-28.099c0.278,9.927-3.056,19.313-8.368,28.038
			C1711.235,793.963,1711.235,793.963,1711.235,793.994z"/>
	</g>
	<g>
		<path fill="#3AAAFC" d="M1674.956,828.653c0.031,0,0.061-0.03,0.094-0.03c14.078-9.077,27.757-20.874,36.186-34.628v-0.031
			C1702.807,807.749,1689.098,819.576,1674.956,828.653z"/>
	</g>
	<g>
		<path fill="#3AAAFC" d="M1704.165,712.712c0.526-3.042,1.576-6.067,2.872-9.141c-1.696,2.749-2.81,5.697-2.902,9.016
			C1704.135,712.618,1704.165,712.682,1704.165,712.712z"/>
	</g>
	<g>
		<path fill="#3AAAFC" d="M1716.733,751.507c1.82,4.894,2.746,9.696,2.87,14.42C1719.479,761.172,1718.524,756.37,1716.733,751.507
			c-6.083-14.667-12.783-28.112-12.535-38.795l0,0C1703.919,723.395,1710.62,736.841,1716.733,751.507z"/>
	</g>
	<g>
		<path fill="#3AAAFC" d="M1704.165,712.712c-4.662,26.522,15.901,53.277,7.07,81.251c5.313-8.724,8.616-18.11,8.368-28.035
			c-0.124-4.725-1.05-9.526-2.87-14.42C1710.62,736.841,1703.919,723.395,1704.165,712.712z"/>
	</g>
	<g>
		<path fill="#3AAAFC" d="M1584.056,965.36c-1.389,21.38-0.278,42.886-17.57,63.046
			C1586.681,1013.018,1583.067,989.55,1584.056,965.36z"/>
	</g>
	<g>
		<path fill="#3AAAFC" d="M1584.58,958.117c-0.062,0.541-0.062,1.083-0.124,1.59C1584.456,959.2,1584.519,958.658,1584.58,958.117z"
			/>
	</g>
	<g>
		<path fill="#3AAAFC" d="M1466.848,1162.352c-0.276,31.445,2.285,63.759,2.409,95.703
			C1469.163,1226.11,1466.603,1193.797,1466.848,1162.352z"/>
	</g>
	<g>
		<path fill="#3AAAFC" d="M1466.848,1162.352c0.279-31.91,3.491-62.896,14.975-91.704l0,0
			C1470.339,1099.455,1467.127,1130.441,1466.848,1162.352z"/>
	</g>
	<g>
		<path fill="#3AAAFC" d="M1185.932,1690.447c2.594,4.771,5.59,9.433,8.522,14.112c-15.405-28.839-18.679-56.196-25.439-87.614
			c-2.07-13.692,2.13-25.548,7.377-37.886c-3.952,3.506-8.614,6.069-15.006,6.069
			C1173.736,1619.432,1166.358,1658.584,1185.932,1690.447z"/>
	</g>
	<g>
		<path fill="#3AAAFC" d="M1176.392,1579.06c19.082-16.719,14.515-65.921,14.515-82.098c-1.547-36.051-2.658-72.038-3.613-108.086
			c0.186,44.017,0.895,88.093,3.674,132.507C1192.387,1545.234,1183.463,1562.589,1176.392,1579.06z"/>
	</g>
	<g>
		<path fill="#3AAAFC" d="M980.357,713.407c3.487,3.535,8.274,7.179,13.832,10.869c-0.493-0.403-1.078-0.79-1.576-1.19
			c-38.719-31.309-22.569-72.282-29.208-108.702C953.895,649.722,953.03,686.111,980.357,713.407z"/>
	</g>
	<g>
		<path fill="#3AAAFC" d="M1108.155,814.682c-0.185-1.932-0.245-3.892-0.494-5.791c-4.261-31.94-76.819-60.103-113.501-84.649
			C1028.741,753.329,1086.788,772.811,1108.155,814.682z"/>
	</g>
	<g>
		<path fill="#3AAAFC" d="M1733.899,690.202c-15.222,2.547-23.125,7.242-26.862,13.369l0,0
			C1710.742,697.474,1718.615,692.749,1733.899,690.202c23.898-4.585,31.588-18.495,31.435-35.353
			C1765.487,671.707,1757.768,685.587,1733.899,690.202z"/>
	</g>
	<g>
		<path fill="#3AAAFC" d="M1751.87,671.738c-12.259,19.559-34.272,9.864-44.123,29.457c-0.401,0.803-0.401,1.589-0.71,2.376
			c3.705-6.127,11.609-10.822,26.862-13.369c23.868-4.615,31.588-18.495,31.435-35.353c0-3.535-0.465-7.242-1.083-10.979
			C1763.202,652.071,1759.649,660.853,1751.87,671.738z"/>
	</g>
	<g>
		<path fill="#3AAAFC" d="M963.405,614.384c0.186-0.77,0.403-1.527,0.618-2.286c-0.308,0.279-0.493,0.604-0.772,0.897
			C963.314,613.426,963.314,613.937,963.405,614.384z"/>
	</g>
	<g>
		<path fill="#3AAAFC" d="M1704.135,712.587c0.093-3.319,1.206-6.268,2.902-9.016l0,0
			C1705.341,706.289,1704.228,709.268,1704.135,712.587z"/>
	</g>
	<g>
		<path fill="#3AAAFC" d="M1765.334,654.85c0-3.535-0.465-7.242-1.083-10.979l0,0
			C1764.869,647.607,1765.334,651.314,1765.334,654.85z"/>
	</g>
	<g>
		<path fill="#3AAAFC" d="M1673.813,419.802c0-23.206,13.463-45.111,24.577-66.771l0,0
			C1687.276,374.66,1673.813,396.596,1673.813,419.802z"/>
	</g>
	<g>
		<path fill="#3AAAFC" d="M1726.46,506.532c-12.228-19.637-31.868-36.743-44.124-56.38c-6.112-10.405-8.553-20.486-8.553-30.35
			c-0.03,9.864,2.409,19.945,8.553,30.35C1694.626,469.789,1714.263,486.896,1726.46,506.532
			c14.695,21.969,4.876,44.045,12.318,68.548c4.014,13.369,21.059,42.809,25.473,68.76l0,0
			c-4.414-25.952-21.459-55.391-25.473-68.76C1731.369,550.578,1741.155,528.47,1726.46,506.532z"/>
	</g>
	<g>
		<path fill="#3AAAFC" d="M1682.336,450.152c12.29,19.637,31.927,36.744,44.152,56.38c14.697,21.938,4.881,44.045,12.29,68.548
			c4.014,13.369,21.12,42.809,25.501,68.76c2.286-17.6-7.964-31.957-19.696-55.361c-14.76-26.939,2.409-58.712-19.575-88.183
			c-17.168-26.895-56.349-53.865-46.563-88.154c2.069-12.736,22.569-41.976,20.009-59.111
			c-11.117,21.659-24.576,43.565-24.576,66.771C1673.813,429.666,1676.254,439.747,1682.336,450.152z"/>
	</g>
	<g>
		<path fill="#3AAAFC" d="M1284.585,413.733c13.215-5.372,26.244-13.06,38.101-22.353c-1.111,0.061-2.191,0.185-3.366,0.292
			C1308.978,399.438,1297.182,406.971,1284.585,413.733z"/>
	</g>
	<g>
		<path fill="#3AAAFC" d="M1693.544,343.766c2.41,1.932,4.725,3.63,7.012,5.142l0,0
			C1698.33,347.396,1696.015,345.665,1693.544,343.766C1693.574,343.766,1693.574,343.766,1693.544,343.766z"/>
	</g>
	<g>
		<path fill="#3AAAFC" d="M1694.656,342.3c-0.402,0.478-0.648,1.019-1.051,1.466c2.409,1.932,4.725,3.66,6.95,5.142
			c0.305-0.585,0.554-1.22,0.833-1.822C1699.193,345.665,1697.002,344.108,1694.656,342.3z"/>
	</g>
	<g>
		<path fill="#3AAAFC" d="M1701.354,347.085c-0.309,0.602-0.555,1.237-0.799,1.822l0,0
			C1700.86,348.323,1701.078,347.718,1701.354,347.085L1701.354,347.085z"/>
	</g>
	<g>
		<path fill="#3AAAFC" d="M1493.864,1574.506c-2.469,8.57-3.273,16.534-3.056,24.225
			C1490.591,1591.04,1491.396,1583.076,1493.864,1574.506L1493.864,1574.506z"/>
	</g>
	<g>
		<path fill="#3AAAFC" d="M1501.12,1667.49c0,31.742-22.013,61.151-19.573,93.002l0,0
			C1479.107,1728.673,1501.12,1699.279,1501.12,1667.49L1501.12,1667.49z"/>
	</g>
	<g>
		<path fill="#3AAAFC" d="M1490.035,1466.949L1490.035,1466.949c3.708,38.595,3.829,77.809,3.829,107.557l0,0
			C1493.864,1544.758,1493.743,1505.514,1490.035,1466.949z"/>
	</g>
	<g>
		<path fill="#3AAAFC" d="M1457.185,1351.314L1457.185,1351.314c19.638,27.511,28.654,71.141,32.851,115.602l0,0
			C1485.839,1422.455,1476.822,1378.795,1457.185,1351.314z"/>
	</g>
	<g>
		<path fill="#3AAAFC" d="M1490.809,1598.73c0.68,22.927,10.312,43.088,10.312,68.793l0,0
			C1501.12,1641.787,1491.488,1621.623,1490.809,1598.73z"/>
	</g>
	<g>
		<path fill="#3AAAFC" d="M1457.185,1351.314L1457.185,1351.314c9.911-29.84,12.228-61.367,12.104-93.26
			c-0.125-31.944-2.686-64.258-2.409-95.703c0.277-31.91,3.46-62.896,15.007-91.704c0.246-1.543,0.37-3.058,0.65-4.617
			c4.846-29.362,22.011-19.528,51.438-24.407c14.976-3.087,25.255-7.611,32.574-13.183c17.322-20.164,16.18-41.7,17.567-63.08
			c0.063-1.855,0.219-3.69,0.402-5.56c0.062-0.572,0.062-1.143,0.124-1.684c1.234-13.43,4.692-26.831,15.47-38.95
			c19.574-24.53,19.574-41.636,34.273-63.668c8.244-13.787,24.946-19.853,40.631-26.846c14.111-9.077,27.853-20.904,36.281-34.72
			c8.8-27.974-11.731-54.698-7.1-81.251c0-0.031-0.033-0.064-0.033-0.125c0.093-3.32,1.205-6.268,2.872-9.017
			c0.371-0.787,0.371-1.59,0.74-2.376c9.82-19.593,31.866-9.897,44.093-29.457c7.842-10.885,11.332-19.7,12.409-27.867
			c-4.381-25.952-21.487-55.391-25.501-68.76c-7.38-24.502,2.407-46.61-12.29-68.548c-12.226-19.637-31.862-36.743-44.152-56.38
			c-6.082-10.405-8.553-20.486-8.522-30.35c0-23.206,13.463-45.142,24.577-66.771c-0.369-2.625-1.233-5.035-2.9-6.963
			c-0.649-0.787-1.361-1.391-2.041-2.147c-16.887,19.825-40.2,26.045-78.794,9.51c-119.988-51.438-122.458-41.699-178.714,7.273
			c-19.36,17.614-62.311,27.202-113.256,30.707c-11.856,9.293-24.886,16.951-38.101,22.355
			c-40.389,21.566-89.358,34.626-125.422,18.078c-61.289-29.396-85.714,51.378-117.608,83.259
			c-14.698,17.105-31.865,12.304-46.501,31.863c-16.889,19.253-12.566,47.998-31.03,65.198c-0.248,0.756-0.464,1.512-0.648,2.285
			c6.638,36.387-9.54,77.36,29.209,108.699c0.463,0.403,1.081,0.789,1.576,1.189c36.682,24.547,109.24,52.707,113.501,84.649
			c0.249,1.899,0.31,3.859,0.494,5.788c1.512,2.934,3.303,5.682,4.446,8.845c19.637,56.289-7.287,110.185,31.864,164.033
			c41.685,56.412,44.124,117.595,44.124,183.73c0,73.103-1.636,145.26-1.267,217.633c0.925,36.034,2.1,72.021,3.583,108.07
			c0,16.179,4.601,65.349-14.452,82.099c-5.248,12.368-9.51,24.225-7.41,37.887c6.763,31.385,10.005,58.742,25.441,87.612
			c7.379,11.794,14.821,23.62,21.243,36.018c0.711,1.279,1.36,2.654,2.04,4.013c1.48,3.088,2.9,6.16,4.137,9.387
			c2.101,5.188,3.583,10.622,4.63,16.242c0.246,1.233,0.804,2.284,0.989,3.552c-0.061,0-0.155,0.031-0.216,0.031
			c0.155,0.785,0.462,1.542,0.524,2.345c-17.166,0-31.865,4.862-44.122,14.728c53.848-7.333,107.758-14.637,159.2-24.501
			c34.272-7.271,85.712,2.457,115.074-12.212c51.441-24.5,12.29-144.485,17.171-181.229c4.846-34.272,9.849-66.076,14.694-100.426
			c0.249-1.79,0.125-3.689,0.249-5.558C1485.839,1422.455,1476.822,1378.825,1457.185,1351.314L1457.185,1351.314z"/>
	</g>
	<g>
		<path fill="#FF9900" d="M1676.47,328.592c5.743,5.525,11.052,10.266,16.116,14.387
			C1687.646,337.499,1682.273,332.729,1676.47,328.592z"/>
	</g>
	<g>
		<path fill="#FF9900" d="M1361.25,348.121c-5.219,7.303-10.653,14.078-15.933,19.993c-6.668,7.611-15.591,15.684-25.998,23.558
			c1.175-0.077,2.255-0.201,3.366-0.292C1338.432,379.043,1352.173,364.099,1361.25,348.121z"/>
	</g>
	<g>
		<path fill="#FF9900" d="M1676.407,328.562c-19.823-14.206-42.855-22.479-59.252-38.859
			c-19.576-19.638-31.863-41.606-51.379-61.212c-22.755-22.772-48.999-59.253-83.149-49.527
			c-6.114,5.791-11.425,12.398-19.854,15.19c-3.428,1.297-7.689,2.117-12.259,2.843c-14.822,6.917-31.803,7.549-48.909,9.447
			c-2.84,0.387-4.631,1.327-6.731,2.131c-2.16,1.451-4.076,3.149-5.555,5.172c-0.743,1.049-0.989,3.132-0.989,5.418
			c0.834,15.129,10.745,45.991,10.127,62.341c0.029,0.571,0.154,1.297,0.154,1.805c-0.125,6.825-1.976,11.255-6.887,11.255
			c-0.863,0-2.101-0.847-3.148-1.203c-5,18.649-15.53,38.101-27.387,54.729c-9.077,15.977-22.818,30.953-38.566,43.256
			c50.948-3.472,93.897-13.09,113.255-30.707c56.258-48.999,58.729-58.711,178.716-7.269c38.596,16.535,61.904,10.344,78.796-9.511
			c-0.249-0.323-0.554-0.571-0.804-0.85C1687.586,338.889,1682.15,334.15,1676.407,328.562z"/>
	</g>
	<g>
		<path fill="#FF9900" d="M1692.649,343.042c0.247,0.276,0.586,0.555,0.8,0.848c0.065-0.031,0.065-0.091,0.095-0.125
			C1693.296,343.504,1692.956,343.289,1692.649,343.042z"/>
	</g>
	<g>
		<path fill="#FF9900" d="M1391.725,292.188c-0.738,0-1.79-0.756-2.594-0.975c-0.186,0.696-0.309,1.422-0.555,2.147
			c1.048,0.356,2.285,1.203,3.18,1.203c4.909,0,6.762-4.43,6.887-11.255c0-0.508-0.125-1.233-0.156-1.805
			C1398.303,287.958,1396.48,292.188,1391.725,292.188z"/>
	</g>
	<g>
		<path fill="#FF9900" d="M1391.756,294.564c-0.895,0-2.132-0.847-3.18-1.203l0,0
			C1389.624,293.718,1390.861,294.564,1391.756,294.564c4.909,0,6.762-4.43,6.887-11.255
			C1398.518,290.135,1396.696,294.564,1391.756,294.564z"/>
	</g>
	<g>
		<path fill="#FF9900" d="M1692.586,342.979c0,0,0.063,0.03,0.063,0.063c0.307,0.246,0.646,0.494,0.895,0.723c0.03,0,0.03,0,0.03,0
			C1693.266,343.473,1692.896,343.228,1692.586,342.979z"/>
	</g>
	<g>
		<path fill="#FF9900" d="M1676.47,328.592c0,0-0.031,0-0.063-0.031c5.743,5.589,11.179,10.328,16.242,14.481
			c0,0-0.063-0.033-0.063-0.063C1687.521,338.858,1682.213,334.117,1676.47,328.592z"/>
	</g>
	<g>
		<path fill="#FF9900" d="M1389.348,211.414c0.463-0.663,1.205-1.048,1.759-1.65c-20.069,11.315,0.68,45.558,0.68,62.802
			c0,5.975-1.109,12.259-2.655,18.648c0.804,0.218,1.855,0.975,2.594,0.975c4.756,0,6.548-4.262,6.762-10.684
			c-0.339-17.352-10.034-47.521-10.344-61.491c0-0.417,0.188-0.511,0.188-0.88C1388.112,215.645,1388.33,212.805,1389.348,211.414z"
			/>
	</g>
	<g id="bj_3_">
		<path d="M1156.754,1802.53l22.017-17.802c11.331-9.154,24.701-14.542,39.86-16.07c-3.672-15.869-12.844-30.149-21.736-44.016
			l-5.126-8.025c-16.581-26.909-21.427-52.074-26.586-78.721c-1.202-6.282-2.437-12.691-3.858-19.281
			c-2.81-18.343,3.768-33.396,10.097-47.953c6.301-14.435,12.813-29.38,11.671-48.77c-5.186-84.061-4.167-168.432-3.21-250.006
			c0.4-33.425,0.805-66.926,0.805-100.629c0-68.791-3.119-125.668-42.58-179.035c-24.486-33.688-24.732-67.373-24.95-99.949
			c-0.185-22.71-0.34-44.152-8.026-66.168c-10.374-29.796-41.931-48.539-72.406-66.677c-16.643-9.897-32.391-19.253-45.296-30.445
			c-30.074-24.271-30.012-54.775-29.951-81.699c0.032-11.517,0.064-22.385-2.006-32.747l-0.895-4.476l3.456-3.011
			c8.586-7.518,11.672-18.632,15.008-30.412c3.365-11.998,6.853-24.378,16.119-34.954c8.582-11.517,18.524-15.731,27.292-19.435
			c7.164-3.042,13.369-5.653,19.146-12.368c8.335-8.368,15.993-19.885,24.143-32.095c18.773-28.236,40.11-60.24,74.289-60.24
			c9.141,0,18.743,2.393,28.563,7.101c9.662,4.447,21.119,6.715,33.869,6.715c54.157,0,117.826-39.768,142.958-68.482
			c22.171-24.778,44.526-62.28,44.526-90.315c0-4.323-2.04-11.302-4.016-18.031c-4.322-14.821-9.232-31.618-1.295-43.847
			c4.353-6.638,11.733-10.714,22.043-12.088l9.391-0.941c17.937-1.697,34.888-3.304,47.795-14.357
			c12.043-9.387,24.146-14.034,36.188-14.034c27.018,0,47.98,22.432,66.505,42.209c3.707,3.997,7.352,7.872,10.903,11.424
			c10.155,10.173,18.399,20.964,26.397,31.402c8.029,10.465,15.595,20.363,25.011,29.827c9.077,9.107,20.779,15.654,33.161,22.601
			c16.023,9,32.605,18.326,45.698,34.289c11.453,13.678,1.108,35.338-7.998,54.45c-3.335,6.994-6.762,14.233-7.38,17.939
			c-6.083,21.351,9.695,39.476,26.368,58.651c6.794,7.811,13.833,15.87,19.021,23.975c13.338,17.816,13.586,36.928,13.833,53.772
			c0.185,12.612,0.34,24.516,5.989,34.874c2.5,4.957,4.816,9.262,6.98,13.322c13.893,26.028,23.897,44.834-0.188,78.351
			c-7.348,11.779-18.154,14.989-26.799,17.583c-8.677,2.594-13.339,4.245-16.642,10.808c-6.642,13.306-2.998,26.924,1.203,42.685
			c5.125,19.176,10.898,40.896-4.107,63.437c-8.429,14.047-23.897,20.779-38.843,27.278c-13.309,5.804-25.904,11.271-31.958,21.415
			c-6.174,9.262-9.571,17.352-13.152,25.905c-4.91,11.749-9.973,23.885-21.737,38.628c-14.202,16.007-14.357,34.088-14.511,53.214
			c-0.246,28.391-0.495,60.563-56.196,72.05c-8.582,1.436-15.748,1.715-22.045,1.946c-16.704,0.647-20.69,0.786-23.22,16.024
			c-4.756,26.384-4.756,52.228-4.756,79.585c0,30.413-2.595,61.167-5.095,90.917c-2.964,35.184-6.02,71.568-4.726,107.095
			c0.989,15.607,5.744,33.561,10.809,52.583c7.01,26.229,14.235,53.337,11.147,76.032c-2.44,17.385-4.971,34.087-7.44,50.777
			c-2.439,16.364-4.881,32.729-7.29,49.695c-1.296,9.789,1.177,28.3,3.798,47.89c7.135,53.308,15.963,119.661-25.41,139.361
			c-18.772,9.417-44.896,9.588-70.151,9.756c-17.137,0.125-33.345,0.232-46.623,3.072c-50.143,9.649-103.222,16.892-154.535,23.897
			L1156.754,1802.53z M971.743,615.758c1.606,10.529,1.574,21.196,1.544,31.557c-0.062,25.643-0.125,49.866,24.267,69.534
			c12.105,10.468,27.234,19.468,43.229,28.992c32.945,19.576,67.002,39.815,79.289,75.045c8.522,24.502,8.708,48.276,8.893,71.264
			c0.218,31.464,0.434,61.181,21.924,90.731c42.178,57.09,45.606,119.092,45.606,188.377c0,33.765-0.403,67.342-0.804,100.814
			c-0.958,81.296-1.945,165.356,3.18,248.88c1.357,23.188-6.238,40.632-12.97,56.04c-5.929,13.632-11.053,25.428-9.047,38.766
			c1.36,6.238,2.625,12.752,3.86,19.143c5.065,26.277,9.449,48.97,24.454,73.379l5.005,7.827
			c11.422,17.785,23.279,36.188,25.564,59.206l0.06,0.401c35.694-5.05,71.449-10.527,105.661-17.121
			c14.696-3.133,32.481-3.258,49.681-3.382c23.435-0.153,47.703-0.323,63.326-8.148c31.124-14.821,22.756-77.378,16.674-123.077
			c-2.901-21.552-5.37-40.17-3.828-52.117c2.439-17.077,4.88-33.473,7.349-49.884c2.472-16.656,4.94-33.315,7.411-50.622
			c2.655-19.513-4.17-45.063-10.745-69.779c-5.063-18.928-10.252-38.503-11.365-55.871c-1.326-36.682,1.792-73.549,4.788-109.209
			c2.472-29.427,5.032-59.842,5.032-89.59c0-26.848,0-54.622,5.001-82.288c4.634-27.833,20.937-28.451,38.165-29.113
			c5.806-0.219,12.351-0.464,19.76-1.685c42.889-8.846,43.044-28.901,43.289-56.644c0.155-20.223,0.37-43.133,18.219-63.266
			c10.126-12.704,14.572-23.311,19.267-34.552c3.705-8.875,7.533-18.061,14.356-28.25c8.46-14.158,23.992-20.919,38.998-27.464
			c13.276-5.759,25.78-11.208,31.804-21.243c11.269-16.907,7.04-32.652,2.19-50.901c-4.601-17.291-9.387-35.169-0.061-53.848
			c6.514-12.969,17.445-16.242,26.244-18.867c7.689-2.299,13.771-4.107,18.248-11.252c18.589-25.938,12.566-37.27-0.679-62.093
			c-2.224-4.171-4.57-8.616-7.01-13.433c-7.441-13.54-7.626-28.005-7.811-41.976c-0.249-15.855-0.434-30.831-11.022-45.02
			c-4.88-7.596-11.21-14.868-17.94-22.584c-17.846-20.521-38.101-43.77-29.856-72.471c0.77-5.031,4.353-12.579,8.52-21.303
			c5.652-11.81,15.101-31.601,10.099-37.546c-11.241-13.738-26.522-22.308-41.313-30.599c-12.72-7.163-25.937-14.559-36.588-25.226
			c-10.16-10.203-18.373-20.964-26.368-31.385c-8.028-10.482-15.593-20.393-25.041-29.843c-3.646-3.644-7.413-7.656-11.241-11.78
			c-16.303-17.445-34.796-37.206-54.958-37.206c-8.586,0-17.169,3.428-26.216,10.469c-16.395,14.078-36.649,15.993-56.289,17.862
			l-8.953,0.894c-5.339,0.712-8.984,2.41-10.684,5.018c-4.014,6.146,0,19.807,3.213,30.784c2.376,8.167,4.631,15.872,4.631,22.463
			c0,34.426-26.123,75.818-48.539,100.797c-30.999,35.462-99.051,73.809-154.754,73.809c-15.065,0-28.714-2.763-40.57-8.21
			c-7.811-3.738-15.13-5.606-21.861-5.606c-25.721,0-43.721,27.047-61.134,53.2c-8.585,12.875-16.673,25.027-25.72,34.071
			c-7.751,9.08-16.706,12.844-24.548,16.182c-7.968,3.35-14.82,6.25-21.212,14.834c-7.287,8.337-10.16,18.51-13.185,29.272
			C984.834,593.097,981.315,605.646,971.743,615.758z"/>
	</g>
</g>
</svg>
