<?xml version="1.0" encoding="utf-8"?>
<!DOCTYPE svg PUBLIC "-//W3C//DTD SVG 1.1//EN" "http://www.w3.org/Graphics/SVG/1.1/DTD/svg11.dtd" [
	<!ENTITY ns_extend "http://ns.adobe.com/Extensibility/1.0/">
	<!ENTITY ns_ai "http://ns.adobe.com/AdobeIllustrator/10.0/">
	<!ENTITY ns_graphs "http://ns.adobe.com/Graphs/1.0/">
	<!ENTITY ns_vars "http://ns.adobe.com/Variables/1.0/">
	<!ENTITY ns_imrep "http://ns.adobe.com/ImageReplacement/1.0/">
	<!ENTITY ns_sfw "http://ns.adobe.com/SaveForWeb/1.0/">
	<!ENTITY ns_custom "http://ns.adobe.com/GenericCustomNamespace/1.0/">
	<!ENTITY ns_adobe_xpath "http://ns.adobe.com/XPath/1.0/">
]>
<svg version="1.1" xmlns:x="&ns_extend;" xmlns:i="&ns_ai;" xmlns:graph="&ns_graphs;"
	 xmlns="http://www.w3.org/2000/svg" xmlns:xlink="http://www.w3.org/1999/xlink" x="0px" y="0px" width="874.072px"
	 height="570.494px" viewBox="0 0 874.072 570.494" enable-background="new 0 0 874.072 570.494" xml:space="preserve">
<metadata>
	<sfw  xmlns="&ns_sfw;">
		<slices></slices>
		<sliceSourceBounds  x="258.414" y="201.906" width="875.063" height="571.509" bottomLeftOrigin="true"></sliceSourceBounds>
	</sfw>
</metadata>
<g id="Hilfslinien_anzeigen" display="none">
</g>
<g id="Land">
	<rect fill-rule="evenodd" clip-rule="evenodd" fill="#E0E0E0" width="874.072" height="570.494"/>
	<path fill-rule="evenodd" clip-rule="evenodd" fill="#F5F5F5" d="M123.192,245.088l7.639,0.327l2.625,6l-2.75,4.5l-3.375,1.375
		l-1,2.625c0,0-2.25,1-3.125,0.75c-0.496-0.142-2.875,0-2.875,0s0.375,2.375-0.75,3.375s0.25,1.875-1.625,2
		c-1.247,0.083-2.375-0.25-2.375-0.25l-5.375,2.625l-2.25,0.125c0,0-2.125-0.75-3-0.25s-1.75,1.5-3.75,0.875s-3,1.75-3,1.75
		s-2,1.75-3,1.5s-4.182,1.904-4.182,1.904c-0.35-0.599-0.092-1.867-0.318-3.904c-0.25-2.25-0.625-7.875-0.625-7.875
		s2.625-0.875,3.5-2.25c1.382-2.171,0.5-4.25,0.5-4.25s2.125-4.75,3.875-5l4.5-0.75c0,0,1.375-2.75,3.375-4s3.5-2.625,4.75-3.375
		s3.5-1.5,3.5-1.5L123.192,245.088z"/>
	<path fill-rule="evenodd" clip-rule="evenodd" fill="#F5F5F5" d="M287.15,71.512l1.556,6.028l5.375-2.375l6.375,0.25l6.25,11.375
		c0,0,5.375-1.625,6.375-1.875l3,4l3,0.625c0,0,0.875-2,1.375-3.25s2.5-1.75,4.5-2s4,2.5,4.5,3.75s2.75,2.125,2.75,2.125
		s3.5,1.75,4,4s-0.875,2,2.125,3.75s3.375,0.125,3.875-1.125s2.125-3.125,2.125-3.125l5.875-0.25c0,0,2.875,4.125,4.625,4.625
		s4.664,0.484,5.375-2.125c0.375-1.375-0.125-4.625-0.625-6.125s0-2.375,0-2.375s4.375-2.125,6.625-1.125s3.625,1,5.125,1.75
		s3.625,1.75,3.625,4.25s2.5,1.875,3.5,2.375s5.25,1.5,6.75,2s6.625,0.5,6.625,0.5l2.375-3.75l6.125,0.5c0,0,0.25,3.75,0.75,5
		s2.25,2.5,3.5,2.5s4.125,0.75,4.125,0.75l4.5,4.5c1.25,1.25,2.75,2.5,3.25,4.5s1.5,5.25,1.75,6.25s2.25,2.75,4,2.25s3.25-3,3.25-3
		l7.75,2.25l2.143,1.607l1.357-4.357c0,0,1-1.75,1-3s3-0.25,4.25-0.25s2.25-2.5,2.25-2.5s1-1.5,2.75-2s2.25-2.25,1.75-3.25
		s-3.75-5.25-3.75-5.25s1.5-0.75,3-1s3.5-2.75,3.5-2.75s5-1.5,6.5-2s2.5-1.25,2.5-1.25l1.5-4.75l2.25-2.25l1.75-4c0,0,5.75-1,6.5-2
		s1.875-3.5,1.875-3.5l1.5-2.375l-2.25-2.25l-3.625,1.875c0,0-2.5-0.375-3.5-1.375s-3-1.875-4.5-1.625s-7.75-1.5-9-1.5
		s-3.75-0.25-6.25-0.5s-3.75-1.75-4.25-2.75s-1-2.25-2-3s-3-1.75-3.75-2.75s-3.5-2.5-3.5-2.5s-2.5,1.75-4,3
		s-3.625,2.125-3.625,2.125s-3.375-2.625-4.625-2.875s-0.625-2.5-0.125-4.25s-1.875-3-1.875-3s-2.375,0.625-4.875,0.625
		s-3.125,4.625-3.125,4.625l-2.5,6.25l-4,1c0,0-5.25-1.5-6.5-1.75s-4-1-5.25-2.25s-1.25-2-0.75-3s1.5-8.75,1.5-8.75l-1.25-2.25
		l-1.5-2.5c0,0-1.5-1.75-3-3.25s-7-1-7-1l-3.75,4.5l-1.75,2.75l-1.25,3.5c0,0-1.5,0.5-2.5,0.75s-4,0.5-4,0.5l-3-3.5
		c0,0-2.5-1.5-4.75-1.75s-3-1.5-3-1.5s-1.75,1.25-2.75,2.25s-2.75,0.25-2.75,0.25s-1.5-0.75-3-0.75s-1.5-0.75-2.5-2
		s-2.5-0.25-4,0.25s-7.75,2.5-10.25,2.5s-3,1.75-3,1.75l-3,1c0,0-2.937-0.074-3.75,0.875c-1.5,1.75-5.875,3.125-7.875,2.875
		s-5.125-0.5-5.125-0.5s-2,0-6.25-0.25s-5,2.25-5,2.25s-3.75,8.25-5,9.25S287.15,71.512,287.15,71.512z"/>
	<path fill-rule="evenodd" clip-rule="evenodd" fill="#FEFEE9" d="M123.192,245.088l7.639,0.327l2.625,6l-2.75,4.5l-3.375,1.375
		l-1,2.625c0,0-2.25,1-3.125,0.75c-0.496-0.142-2.875,0-2.875,0s0.375,2.375-0.75,3.375s0.25,1.875-1.625,2
		c-1.247,0.083-2.375-0.25-2.375-0.25l-5.375,2.625l-2.25,0.125c0,0-2.125-0.75-3-0.25s-1.75,1.5-3.75,0.875s-3,1.75-3,1.75
		s-2,1.75-3,1.5s-3.875,1.875-3.875,1.875s-1.5,1.375-3.469,2.747s-0.656,3.878-0.656,5.128s-0.75,1.375-1.75,2.875
		s-1,3.875,0.5,6.375s0.625,6,0.625,6s1.46,3.217,1.875,5.125c0.625,2.875,1,4.5,1,6.75s2.25,2.75,3.5,3.5s1.625,2.75,2.375,4.75
		s2.25,3.25-1.25,3.25s-4,2.125-5.25,3.875s-2.625,0.25-3.625-1s-1.75-3.25-3.25-5.75s-4.25-0.75-5,0.25s-2,10-2,10
		s-1.125,1-1.375,2.5s-1.875,2.875-1.875,2.875l-5,2.875l-9,1.25l-3.75,3l-5.5,0.75c0,0-0.5,6.75-0.5,8.75s-2.75,5.75-2.75,5.75
		l-1,3.5c0,0-3.5,0.75-5.75,2.5s-1.125,5-1.125,5l-2.5,2.375l4.875,1.625c0,0,3.5,0,4.5-0.25s3.625-1,3.625-1l5.625,5
		c1,1.5,2.875,1.5,4.125,2.5s3.125,1,5.625,1s1,5.125,1.75,8.875s2,8.5,2,9.5s-2.25,7.875-2.25,9.125s0.25,8.625,0,10.625
		s0.75,6.5,0.75,6.5l3.5-3.625l8.25-10.625l7,7.625c0,0,0.5,1.5,0.5,4.25s-1.25,2.75-1.25,2.75v3.5l8.75,3l8.75-5.5l2.75,4.75
		l2.5-0.5l1.75,2l-0.75,4.5l4.25-1l6.75,3.75l-0.75,5l3,2.75l-0.75,4.75l2.75,5l2.75,0.5l2,3.75c0,0,5.75-1.25,7-1.75s3.5-1.5,5,0
		s5.25,0.5,6.5,0s5.25-0.75,6.75,0s6.25,0,6.5-1s1-2,2-2.5s9.75-6.75,9.75-6.75l2.25,2.75c0,0,7.25-3,8.75-4.25s3.25,0,3.5,1.75
		s3,3.5,4.25,3.5s3.25,0,4.25,0.75s2.75,1,4.75-0.25s3,2.75,3,5s2.75,4,2.75,4l8,0.5c0,0,1.75-0.5,3-2s6.25-1.25,7.75-0.5
		s4.25-0.25,4.25-0.25l1.75,4.25c0,0,8.5,2.5,10,3.25s3.25,2,4.5,1.25s3,0,4,0.75s2,2.25,0.75,3.5s-1,3.75-1,3.75s-1.25,2.25-4.25,3
		s-2.5,3-1.75,4.25s2.25,2,3.25,0.75s2.75-0.25,4,1s4-2.75,4-4.75s1.25-2.25,2.5-1.5s3.25,2,4.25,1s2.5,1,2.5,1l3.5,2.5
		c0,0,5-2.25,6.25-3.25s2.75,0,2.75,1.75s-0.75,3.25-0.75,3.25l2,4l5.25-0.75c0,0,4.25-1.5,5.75-2s11.25,2.5,11.25,2.5v-6
		c0-2.25,1-3.25,2.75-2.75s4.75,3,4.75,3s9.75-0.25,12.25-0.5s9.5,0.25,11-0.5s4.75-1.25,6.5-1.25s7.75,0,9-0.25s31.25-11,31.25-11
		l-0.5-9c0,0,3.5-9.5,5-10.75s5.5-4.25,8.5-3.75s12.5,3.5,12.5,3.5l10.75-6.75l2-7.25l15.5-0.75l16.75,12.75l12.25,10.25l21,5
		l3,5.75l7.25-2c0,0,1.25,1,2.25,2s7,1.75,8.75,0.75s4.75-1,5.75-1s32.75-2.25,32.75-2.25s19-1.5,20.75-1.75s13.25,1,15,1.25
		s9-0.75,9-0.75l7-8.5c0,0,4.5,0.25,7.75,1.25s4.75,1.25,6,1.25s17.207,0.002,19.707,0.002s4.25,0,8.25,3.25s12.75,3.25,14.75,3.25
		s6.75,0,8-0.75s9.25-13.25,9.25-13.25s14.75,9.75,16.5,10.75s6.25,1,8.75,0.5s15-2.75,16.25-2.75s6.5-2.75,7.5-3.5
		s3.918,0.373,6.668,0.873s10.25,2.5,10.25,2.5l8.668-1.377l23.25-14l6.332-11.123l6-1.5c0,0,3.75,1,5,1.75s10.5,5.25,12.5,6.5
		s5.5,7.75,5.5,7.75s7.25,1.5,12.25,2s7.5-1,7.5-1l7.5-3.75c0,0,3.125-2.375,3.125-3.375s0.5-2.75,2-3.75s1.75-4.75,1.25-6.5
		s-0.5-3.5,0.5-4.75s-1-5.25-0.5-6.25s1.25-2.5,1-3.75s-3.75-3.25-3.75-3.25s-0.5-4.75-1-6.75s-5.625-3-5.625-3l0.5-6.125
		c0,0-5.125-2.5-6.125-2.75s-3.125-3.125-3.125-3.125s-1.25-3-2-5.25s-0.5-5.25-1.75-7.25s1.375-4,4.125-6.5s-0.75-6.75-1.75-8.75
		s0.75-4.625,4.25-5.875s2.125-5.375,2.125-5.375s1.875-5.875,1.875-7.875s-2.625-4.625-5.625-6.375s3.25-4.375,5.25-5.125
		s2-0.5,3.5,1.25s5.75,0.375,6.75,0.125s2.75-0.5,3-3s-6-5.75-6-5.75s-3.75-1.75-5-2.5s-3.5-4.25-3.75-6s-1-4.75-2.75-7
		s0.5-4,0.5-8.25s-1-3.75-2-4.75s-0.75-3.25-0.75-5.25s-1.5-2.25-3.5-3.5s-0.977-2.75-0.977-3.75s-7.648-4.75-7.648-4.75
		l-2.875,1.75c0,0-3.375,0.125-3.625,1.125s-4.375,0.25-4.375,0.25s-2-3-4.25-2.5s-4-0.125-5.75-1.375s-3.75-1.5-6.25-1
		s-5.25-1.5-5.25-1.5l-2,2.25l-2.875-3.375l-3.375,0.125c0,0-1.125,2.25-2.125,3.5s-3.25,1.25-3.25,1.25s-2.5,1-4.75,1.5
		s-1.25-1.75-1.25-1.75s-0.75-0.5-1.25-2.5s-3.5,0-4.5,1.25s-4,1.25-6.25-0.25s-0.375-4.75-0.375-4.75s-3.075-0.024-4-1.875
		c-1-2-2-1.375-2.5-0.125s-1.75,2.75-3.75,2.5s-3,2.125-3,2.125l-1.625-0.875l-1.25-4.75c0,0-0.75-1.5-3-2.75s-4.25-2.75-4.25-4.75
		s-2-2.625-4-2.625s-3.25-3.375-3.25-4.875s-1-3-3.25-5.25s0-4.5,0-4.5l2-4.25c0,0-1.75-1-3-2.25s-0.75-6.5-0.75-6.5l1.75-4.25
		c0,0,2.25-1.75,3.5-2.25s2-1.25,2.75-2.5s3.75-3.5,4.75-4s2.25-3,2.25-4.25s1.5-7.25,1.5-8.25s0.25-2.25,1.5-4.25s0.25-4-1.25-6
		s-1.75-3.25-2.25-5.75s-1-3.25-2.25-4.5s-4.25-2.5-4.25-2.5s-2.25,2.5-3.25,3.25s-4,0.75-4.5-0.25s-1.5-5.25-2.75-8.25
		s0.75-2.75,2-2s1.5,1.25,1.5,1.25s0.75-1.75,0.75-3.25s1-2,2.25-1.5s2.5,3,2.5,3l1.25-3l3.25,1.625c0,0,0.5,0.375,1.75-0.875
		s-1.375-7.5-3.375-8.75s-2.5-5.375-2.5-5.375s-4.75,2.25-5.75,3.25s-3.625,0.75-3.625-0.25s-2.375-5.125-2.375-5.125l-5-0.875
		l-2.75-3.25c0,0-1.75-0.75-3-0.5s-2.75-0.5-3.25-1.5s-0.625-2.25,0.625-4.75s-0.5-4.75-4-6.5c-4.081-2.04-1.5-3-1.5-4.25
		s-0.75-2.75-3.5-2.5s-3.375,1.375-3.375,1.375l-1.875-3.875l-4.75,0.25c0,0-3.25-3.75-5-3.75s-3.25-1.75-4.25-3
		s-2.875-1.875-3.875-1.625s-1.875-0.75-2.375-2s-9.5-2.375-10.75-1.625s-5.25-0.375-6.75-1.375s-10.125,0.125-10.125,0.125l-3.5,2
		l0.125,9.625c0,1.5-1.375,2.375-0.625,4.375s-0.25,4.75-1.25,5s-3.125,0.375-6.375-2.125c-4.081-3.139-4.125-3-4.125-3l0.5,3.375
		c0,0-2.5,2-4.5,0.75s-4.125-1.125-8.625-1.125s-7.125-1.875-7.125-1.875l-1.125,2.625l-3.25-0.25l-2-4.25l-1.125-1.125
		c0,0-5.125-2.125-8.125-1.875s-4.75,1.25-4.75,3.25s-2.75,2.75-4.25,1.75s-4-2.5-4.5-5s0.375-1.875-3.375-4.375s-5,2.75-5,2.75
		l-6.25,0.25l0.75-3.75c0,0-4.375,0.625-6.375-0.875s-4.125-0.875-4.125-0.875s-2.5,0-4.75,0.5s-6.5,0.75-6.5,0.75l-5.75-1.25
		c0,0-10.375-2.375-12.875-3.875s-4.75-1-5.5,0.25s-4.75,3.125-7.5,1.125s-6.625,1.875-6.625,1.875s-8.875-0.625-10.125-0.875
		s-5.75-1.125-9.5-0.5c-2.959,0.493-6.625-1.125-10.125-2.875c-2.073-1.037-7.266,3.095-7.266,3.095l-3.109,1.405l-5.5-1.75
		l-0.857-0.643l-2.143-1.607l-7.75-2.25c0,0-1.5,2.5-3.25,3s-3.75-1.25-4-2.25s-1.25-4.25-1.75-6.25s-2-3.25-3.25-4.5l-4.5-4.5
		c0,0-2.875-0.75-4.125-0.75s-3-1.25-3.5-2.5s-0.75-5-0.75-5l-6.125-0.5l-2.375,3.75c0,0-5.125,0-6.625-0.5s-5.75-1.5-6.75-2
		s-3.5,0.125-3.5-2.375s-2.125-3.5-3.625-4.25s-2.875-0.75-5.125-1.75s-6.625,1.125-6.625,1.125s-0.5,0.875,0,2.375
		s1,4.75,0.625,6.125c-0.711,2.609-3.625,2.625-5.375,2.125s-4.625-4.625-4.625-4.625l-5.875,0.25c0,0-1.625,1.875-2.125,3.125
		s-0.875,2.875-3.875,1.125s-1.625-1.5-2.125-3.75s-4-4-4-4s-2.25-0.875-2.75-2.125s-2.5-4-4.5-3.75s-4,0.75-4.5,2
		s-1.375,3.25-1.375,3.25l-3-0.625l-3-4c-1,0.25-6.375,1.875-6.375,1.875l-6.25-11.375l-6.375-0.25l-5.375,2.375l-1.493-6.028
		l-2.132-0.097l-2.75-2.125c0,0-1.75,4.75-5.25,5.375c-2.424,0.433-0.125,3,0.375,5s-1,4.5-2,5.5s-2.625,0-3.625-0.125
		c-2.481-0.31-4.375,1-4.625,2.5s-2.5,2.625-3.75,1.125s-1.875-2-6.125-2.25s-3.625,1.125-4.375,2.375s-5,3-6.25,1.75
		s-1.625-0.875-2.375,0.375s-2.5,1-3.75,0s-3.875-0.125-3.875-0.125l-0.5,3.375l-7.25,9.125l-3,0.5l-0.75,3.25l-3.75,5
		c0,0,0,0.75-4-1s-3.5,3.125-3.5,3.125l-6.5,8.125l-3.875,4.5c0,0,1.625,1.75,2.375,2.75s0.375,3.5-2.125,3.75s-2,2.5-2,2.5v6.25
		c0,1-0.25,1.75-1.25,2.75s-1.25,1.75-1.5,3.5s-3.75,2.5-4.75,2.75s-2.75,2.25-2.25,4.25s-2.25,2.5-2.25,2.5s-1.25,3.75-2.25,6.5
		s-0.75,1.75-2,2.25s-2.75,4.5-2.75,4.5l-7.5,2.75l-2.5,2.25l-6.5-0.25c0,0-2.75,1.25-4.5,3.25s-4,4.5-4,4.5l0.5,3l-4.5,3.75
		l-3.125-0.25l-0.875,6.875l-1.75,2.5c0,0,0.125,5.5,0.375,6.75s0.875,1.75,0.375,4s-7.5,1.875-7.5,1.875l-4,11l-1.75,3.625
		l-7.75,7.375l-1.625,7.625L123.192,245.088z"/>
	
		<path fill-rule="evenodd" clip-rule="evenodd" fill="none" stroke="#646464" stroke-width="2.8346" stroke-linejoin="round" stroke-miterlimit="3.8637" d="
		M76.331,319.665c-1.554-0.703-2.451,0.798-4.5-0.875c-1.518-1.239-1.925-2.677-3-4l-1.086-3.15l-1.039-0.725
		c-0.449-1.013-3.341-1.108-3.922-2.03c-0.024-0.038-0.499-1.827-0.612-1.923c-5.303,0.153-3.989,0.479-7.966-3.547
		c-0.999-1.212-1.959-2.285-2.808-3.403c-0.937-1.233-1.659-2.882-2.428-4.218c-0.34-0.591-0.614-0.885-0.872-1.517
		c-0.492-1.206-1.201-2.01-1.621-3.261c-0.426-1.267-2.462-5.126-3.021-6.352c-1.43-3.133,0.518-5.524,0.627-8.778l0.25-7.342
		c-0.763-1.107-0.291-2.943-0.876-4.13c-0.028-0.058-3.225-8.76-3.25-8.875c-0.007-0.034,0.167-1.187,0.182-1.298
		c1.218-1.125,3.316,0.883,4.318-0.327c0.105-0.127,0.962-1.833,1.125-2.125c0.462-0.827,1.369-0.402,1.782-1.242
		c0.053-0.108,1.753-4.725,1.766-4.784c0.023-0.11,0.018-3.222,0.02-3.539c0.005-0.871,0.498-5.588,0.932-6.56
		c0.95-0.586,3.534-1.928,4.278-2.641l2.722-2.609c0.271-0.319,0.499-0.447,0.693-0.817c0.013-0.025,0.681-2.748,0.69-2.837
		c0.013-0.123-0.75-4.371-0.8-4.664l0.984-2.513l-1.717-3.403l0.058-1.185l0.842-0.956c1.893-2.148,1.66-1.184,2.555-3.625
		c0.066-0.174,0.575-1.492,0.586-1.569c0.012-0.087,0.034-2.944,0.025-2.996c-0.015-0.088,0.168-2.856,0.084-3.06
		c-0.774-1.923-1.193,0.37-1.44-1.752c-0.049-0.425-0.168-0.664-0.127-1.089c0.106-1.093,0.209-4.055,0.341-5.152
		c0.242-2.01,1.378-2.365,1.6-4.381c0.009-0.081-0.761-3.687-0.688-3.882c0.257-0.686,4.425-3.209,4.619-3.328
		c0.496-1.299,0.951-1.341,0.874-2.729c-0.054-0.962,0.431-3.72,0.32-4.687c-0.328-2.852,1.285-9.233-0.875-11
		c-2.75-2.25-1.086-5.136-2.5-6.75c-0.282-0.322-0.682-1.468-1.625-1.75c-1.605-0.48-4.012-0.081-4.5-0.625
		c-0.031-0.035-0.962-1.653-1-1.75c0.466-1.959,0.656-2.88,0.892-4.84c0.142-1.182,0.062-2.597,0.092-3.778l0.079-3.149
		c-0.17-1.98-1.115-5.019-1.115-6.867c0-1.413,1.593-3.632,1.024-5.479l-0.932-1.348l-1.864-2.696
		c-1.004-1.086-2.636-2.146-3.801-3.094c-1.721-1.4-2.856-3.805-4.271-5.516c-1.541-1.863-3.523-2.065-5.288-3.154
		c-0.5-0.308-2.897-2.423-3.177-2.543c-0.406-0.174-9.546-3.728-10.041-3.829c-1.743-0.355-4.531,0.618-6.435,0.47
		c-0.064-0.005-1.337,0.266-1.483,0.294l-1.135,1.819l-1.397-0.196l-1.443-4.195c-1.155-0.689-5.02-3.292-5.583-4.603
		c-0.81-1.885-0.831-5.496-3.374-6.165L5.11,95.258l-1.148,0.936l2.237,3.048c-0.765,1.999-1.573,2.903-2.972,4.347l-0.72,0.108
		l-1.439,0.216c-0.379,0.155-0.765,0.397-1.154,0.66"/>
	
		<path fill-rule="evenodd" clip-rule="evenodd" fill="none" stroke="#646464" stroke-width="2.8346" stroke-linejoin="round" stroke-miterlimit="3.8637" d="
		M17.934,570.136c-0.152-0.49,0.377-0.485-0.323-0.703l2.355-1.313l-0.341-1.577c-0.939,0.3-3.444,0.925-4.437,0.582l-3.929-3.396
		l-0.506-1.961l-0.701-0.476l-4.03-0.203c-0.566-3.407-1.173-7.198-0.991-10.67l-0.681-0.725l-4.226-0.468"/>
	
		<path fill-rule="evenodd" clip-rule="evenodd" fill="none" stroke="#646464" stroke-width="2.8346" stroke-linejoin="round" stroke-miterlimit="3.8637" d="
		M104.332,570.267l-2.593-1.422c-1.244-0.682-2.791-2.206-3.943-3.116c-1.832-0.242-3.563-0.569-5.374-0.868l0.865-2.702
		l-1.24-0.626l-2.676,1.66l-0.519-6.271l-1.451-1.147l-2.649-0.015l-0.375-2.15l-0.867,0.392l-1.101,1.623l-1.299,0.559l1.024,3.554
		l-1.608,0.725l-0.872,1.758l-2.959-2.287l0.597,2.611l1.096,1.14l0.315,1.667c-2.67,2.045-2.965,1.78-6.47,1.645l-1.103,1.562
		l3.267,0.928l-0.135,0.978"/>
	
		<path fill-rule="evenodd" clip-rule="evenodd" fill="none" stroke="#646464" stroke-width="2.8346" stroke-linejoin="round" stroke-miterlimit="3.8637" d="
		M719.206,200.165l9.709-1.516c1.406-0.288,3.162-0.846,4.572-0.936c2.562-0.162,5.375,0.097,7.953,0.144
		c2,0.036,5.701-0.111,7.546,0.136c1.891,0.253,5.445,1.372,7.428,1.872l0.501-0.003c0,0,2.378-3.432,2.414-3.447
		c2.234-0.901,5.024-2.004,7.125-1.625c1.033,0.553,7.185,4.426,7.892,5.059c3.55,3.177,6.67,9.279,10.233,12.441
		c0.858,0.126,5.42-4.189,5.964-4.857l0.419-0.151c0.165-0.056,1.891-0.657,1.943-0.656c0.47,0,0.722,0.135,1.183,0.221l2.366,0.443
		c2.667,0.834,5.694,2.731,8.375,3.5c1.886,0.541,4.636,0.012,6.5-0.5c0.613-0.168,2.258-1.922,2.875-2.125
		c0.8-0.262,1.571-2.12,2.375-2.375c2.332-0.74,3.229-1.199,4.957-2.897l0.223-0.219c1.129-1.109,2.582-2.292,3.57-3.509
		c0.524-0.646,1.739-2.461,2.25-3.125c0.863-1.122,3.882-4.645,4.88-5.539c0.58-0.519,0.47-1.908,1.12-2.336
		c2.482-1.639,4.424-1.117,7.25-2.125c1.494-0.533,2.131-1.525,3.616-2.075l6.571-2.767c2.193-0.923,5.196-0.566,6.938-2.283
		c0.044-0.043,2.04-1.101,2.125-1.25c0.022-0.039,1.651-0.933,1.75-1c1.941-1.33,1.696-4.495,3.706-5.708
		c1.298-0.784,2.87-1.411,4.239-2.083c0.504-0.248,1.213-0.705,1.739-0.853c0.618-0.173,1.633-0.344,2.592-0.396"/>
	
		<path fill-rule="evenodd" clip-rule="evenodd" fill="none" stroke="#646464" stroke-width="2.8346" stroke-linejoin="round" stroke-miterlimit="3.8637" d="
		M123.581,245.04l2.625-3.375l1.625-7.625l7.75-7.375l1.75-3.625l4-11c0,0,7,0.375,7.5-1.875s-0.125-2.75-0.375-4
		s-0.375-6.75-0.375-6.75l1.75-2.5l0.875-6.875l3.125,0.25l4.5-3.75l-0.5-3c0,0,2.25-2.5,4-4.5s4.5-3.25,4.5-3.25l6.5,0.25l2.5-2.25
		l7.5-2.75c0,0,1.5-4,2.75-4.5s1,0.5,2-2.25s2.25-6.5,2.25-6.5s2.75-0.5,2.25-2.5s1.25-4,2.25-4.25s4.5-1,4.75-2.75s0.5-2.5,1.5-3.5
		s1.25-1.75,1.25-2.75v-6.25c0,0-0.5-2.25,2-2.5s2.875-2.75,2.125-3.75s-2.375-2.75-2.375-2.75l3.875-4.5l6.5-8.125
		c0,0-0.5-4.875,3.5-3.125s4,1,4,1l3.75-5l0.75-3.25l3-0.5l7.25-9.125l0.5-3.375c0,0,2.625-0.875,3.875,0.125s3,1.25,3.75,0
		s1.125-1.625,2.375-0.375s5.5-0.5,6.25-1.75s0.125-2.625,4.375-2.375s4.875,0.75,6.125,2.25s3.5,0.375,3.75-1.125
		s2.144-2.81,4.625-2.5c1,0.125,2.625,1.125,3.625,0.125s2.5-3.5,2-5.5s-2.799-4.567-0.375-5c3.5-0.625,5.25-5.375,5.25-5.375
		l2.75,2.125l2.132,0.097"/>
	
		<path fill-rule="evenodd" clip-rule="evenodd" fill="none" stroke="#646464" stroke-width="2.8346" stroke-miterlimit="3.8637" stroke-dasharray="14.1732,5.1024" d="
		M91.024,274.319c-0.35-0.599-0.092-1.867-0.318-3.904c-0.25-2.25-0.625-7.875-0.625-7.875s2.625-0.875,3.5-2.25
		c1.382-2.171,0.5-4.25,0.5-4.25s2.125-4.75,3.875-5l4.5-0.75c0,0,1.375-2.75,3.375-4s3.5-2.625,4.75-3.375s3.5-1.5,3.5-1.5
		l9.5,3.625"/>
	
		<path fill-rule="evenodd" clip-rule="evenodd" fill="none" stroke="#646464" stroke-width="2.8346" stroke-linejoin="round" stroke-miterlimit="3.8637" d="
		M435.349,120.522l0.857,0.643l5.5,1.75l3.109-1.405c0,0,5.192-4.131,7.266-3.095c3.5,1.75,7.166,3.368,10.125,2.875
		c3.75-0.625,8.25,0.25,9.5,0.5s10.125,0.875,10.125,0.875s3.875-3.875,6.625-1.875s6.75,0.125,7.5-1.125s3-1.75,5.5-0.25
		s12.875,3.875,12.875,3.875l5.75,1.25c0,0,4.25-0.25,6.5-0.75s4.75-0.5,4.75-0.5s2.125-0.625,4.125,0.875s6.375,0.875,6.375,0.875
		l-0.75,3.75l6.25-0.25c0,0,1.25-5.25,5-2.75s2.875,1.875,3.375,4.375s3,4,4.5,5s4.25,0.25,4.25-1.75s1.75-3,4.75-3.25
		s8.125,1.875,8.125,1.875l1.125,1.125l2,4.25l3.25,0.25l1.125-2.625c0,0,2.625,1.875,7.125,1.875s6.625-0.125,8.625,1.125
		s4.5-0.75,4.5-0.75l-0.5-3.375c0,0,0.044-0.139,4.125,3c3.25,2.5,5.375,2.375,6.375,2.125s2-3,1.25-5s0.625-2.875,0.625-4.375
		l-0.125-9.625l3.5-2c0,0,8.625-1.125,10.125-0.125s5.5,2.125,6.75,1.375s10.25,0.375,10.75,1.625s1.375,2.25,2.375,2
		s2.875,0.375,3.875,1.625s2.5,3,4.25,3s5,3.75,5,3.75l4.75-0.25l1.875,3.875c0,0,0.625-1.125,3.375-1.375s3.5,1.25,3.5,2.5
		s-2.581,2.21,1.5,4.25c3.5,1.75,5.25,4,4,6.5s-1.125,3.75-0.625,4.75s2,1.75,3.25,1.5s3,0.5,3,0.5l2.75,3.25l5,0.875
		c0,0,2.375,4.125,2.375,5.125s2.625,1.25,3.625,0.25s5.75-3.25,5.75-3.25s0.5,4.125,2.5,5.375s4.625,7.5,3.375,8.75
		s-1.75,0.875-1.75,0.875l-3.25-1.625l-1.25,3c0,0-1.25-2.5-2.5-3s-2.25,0-2.25,1.5s-0.75,3.25-0.75,3.25s-0.25-0.5-1.5-1.25
		s-3.25-1-2,2s2.25,7.25,2.75,8.25s3.5,1,4.5,0.25s3.25-3.25,3.25-3.25s3,1.25,4.25,2.5s1.75,2,2.25,4.5s0.75,3.75,2.25,5.75
		s2.5,4,1.25,6s-1.5,3.25-1.5,4.25s-1.5,7-1.5,8.25s-1.25,3.75-2.25,4.25s-4,2.75-4.75,4s-1.5,2-2.75,2.5s-3.5,2.25-3.5,2.25
		l-1.75,4.25c0,0-0.5,5.25,0.75,6.5s3,2.25,3,2.25l-2,4.25c0,0-2.25,2.25,0,4.5s3.25,3.75,3.25,5.25s1.25,4.875,3.25,4.875
		s4,0.625,4,2.625s2,3.5,4.25,4.75s3,2.75,3,2.75l1.25,4.75l1.625,0.875c0,0,1-2.375,3-2.125s3.25-1.25,3.75-2.5
		s1.5-1.875,2.5,0.125c0.925,1.851,4,1.875,4,1.875s-1.875,3.25,0.375,4.75s5.25,1.5,6.25,0.25s4-3.25,4.5-1.25s1.25,2.5,1.25,2.5
		s-1,2.25,1.25,1.75s4.75-1.5,4.75-1.5s2.25,0,3.25-1.25s2.125-3.5,2.125-3.5l3.375-0.125l2.875,3.375l2-2.25c0,0,2.75,2,5.25,1.5
		s4.5-0.25,6.25,1s3.5,1.875,5.75,1.375s4.25,2.5,4.25,2.5s4.125,0.75,4.375-0.25s3.625-1.125,3.625-1.125l2.875-1.75
		c0,0,7.648,3.75,7.648,4.75s-1.023,2.5,0.977,3.75s3.5,1.5,3.5,3.5s-0.25,4.25,0.75,5.25s2,0.5,2,4.75s-2.25,6-0.5,8.25
		s2.5,5.25,2.75,7s2.5,5.25,3.75,6s5,2.5,5,2.5s6.25,3.25,6,5.75s-2,2.75-3,3s-5.25,1.625-6.75-0.125s-1.5-2-3.5-1.25
		s-8.25,3.375-5.25,5.125s5.625,4.375,5.625,6.375s-1.875,7.875-1.875,7.875s1.375,4.125-2.125,5.375s-5.25,3.875-4.25,5.875
		s4.5,6.25,1.75,8.75s-5.375,4.5-4.125,6.5s1,5,1.75,7.25s2,5.25,2,5.25s2.125,2.875,3.125,3.125s6.125,2.75,6.125,2.75l-0.5,6.125
		c0,0,5.125,1,5.625,3s1,6.75,1,6.75s3.5,2,3.75,3.25s-0.5,2.75-1,3.75s1.5,5,0.5,6.25s-1,3-0.5,4.75s0.25,5.5-1.25,6.5
		s-2,2.75-2,3.75s-3.125,3.375-3.125,3.375l-7.5,3.75c0,0-2.5,1.5-7.5,1s-12.25-2-12.25-2s-3.5-6.5-5.5-7.75s-11.25-5.75-12.5-6.5
		s-5-1.75-5-1.75l-6,1.5l-6.332,11.123l-23.25,14l-8.668,1.377c0,0-7.5-2-10.25-2.5s-5.668-1.623-6.668-0.873s-6.25,3.5-7.5,3.5
		s-13.75,2.25-16.25,2.75s-7,0.5-8.75-0.5s-16.5-10.75-16.5-10.75s-8,12.5-9.25,13.25s-6,0.75-8,0.75s-10.75,0-14.75-3.25
		s-5.75-3.25-8.25-3.25s-18.457-0.002-19.707-0.002s-2.75-0.25-6-1.25s-7.75-1.25-7.75-1.25l-7,8.5c0,0-7.25,1-9,0.75
		s-13.25-1.5-15-1.25s-20.75,1.75-20.75,1.75s-31.75,2.25-32.75,2.25s-4,0-5.75,1s-7.75,0.25-8.75-0.75s-2.25-2-2.25-2l-7.25,2
		l-3-5.75l-21-5l-12.25-10.25l-16.75-12.75l-15.5,0.75l-2,7.25l-10.75,6.75c0,0-9.5-3-12.5-3.5s-7,2.5-8.5,3.75s-5,10.75-5,10.75
		l0.5,9c0,0-30,10.75-31.25,11s-7.25,0.25-9,0.25s-5,0.5-6.5,1.25s-8.5,0.25-11,0.5s-12.25,0.5-12.25,0.5s-3-2.5-4.75-3
		s-2.75,0.5-2.75,2.75v6c0,0-9.75-3-11.25-2.5s-5.75,2-5.75,2l-5.25,0.75l-2-4c0,0,0.75-1.5,0.75-3.25s-1.5-2.75-2.75-1.75
		s-6.25,3.25-6.25,3.25l-3.5-2.5c0,0-1.5-2-2.5-1s-3-0.25-4.25-1s-2.5-0.5-2.5,1.5s-2.75,6-4,4.75s-3-2.25-4-1s-2.5,0.5-3.25-0.75
		s-1.25-3.5,1.75-4.25s4.25-3,4.25-3s-0.25-2.5,1-3.75s0.25-2.75-0.75-3.5s-2.75-1.5-4-0.75s-3-0.5-4.5-1.25s-10-3.25-10-3.25
		l-1.75-4.25c0,0-2.75,1-4.25,0.25s-6.5-1-7.75,0.5s-3,2-3,2l-8-0.5c0,0-2.75-1.75-2.75-4s-1-6.25-3-5s-3.75,1-4.75,0.25
		s-3-0.75-4.25-0.75s-4-1.75-4.25-3.5s-2-3-3.5-1.75s-8.75,4.25-8.75,4.25l-2.25-2.75c0,0-8.75,6.25-9.75,6.75s-1.75,1.5-2,2.5
		s-5,1.75-6.5,1s-5.5-0.5-6.75,0s-5,1.5-6.5,0s-3.75-0.5-5,0s-7,1.75-7,1.75l-2-3.75l-2.75-0.5l-2.75-5l0.75-4.75l-3-2.75l0.75-5
		l-6.75-3.75l-4.25,1l0.75-4.5l-1.75-2l-2.5,0.5l-2.75-4.75l-8.75,5.5l-8.75-3v-3.5c0,0,1.25,0,1.25-2.75s-0.5-4.25-0.5-4.25
		l-7-7.625l-8.25,10.625l-3.5,3.625c0,0-1-4.5-0.75-6.5s0-9.375,0-10.625s2.25-8.125,2.25-9.125s-1.25-5.75-2-9.5
		s0.75-8.875-1.75-8.875s-4.375,0-5.625-1s-3.125-1-4.125-2.5l-5.625-5c0,0-2.625,0.75-3.625,1s-4.5,0.25-4.5,0.25l-4.875-1.625
		l2.5-2.375c0,0-1.125-3.25,1.125-5s5.75-2.5,5.75-2.5l1-3.5c0,0,2.75-3.75,2.75-5.75s0.5-8.75,0.5-8.75l5.5-0.75l3.75-3l9-1.25
		l5-2.875c0,0,1.625-1.375,1.875-2.875s1.375-2.5,1.375-2.5s1.25-9,2-10s3.5-2.75,5-0.25s2.25,4.5,3.25,5.75s2.375,2.75,3.625,1
		s1.75-3.875,5.25-3.875s2-1.25,1.25-3.25s-1.125-4-2.375-4.75s-3.5-1.25-3.5-3.5s-0.375-3.875-1-6.75
		c-0.415-1.908-1.875-5.125-1.875-5.125s0.875-3.5-0.625-6s-1.5-4.875-0.5-6.375s1.75-1.625,1.75-2.875s-1.313-3.756,0.656-5.128
		s3.163-2.718,3.163-2.718"/>
	
		<path fill-rule="evenodd" clip-rule="evenodd" fill="none" stroke="#646464" stroke-width="2.8346" stroke-miterlimit="3.8637" stroke-dasharray="14.1732,5.1024" d="
		M287.15,71.512l1.556,6.028l5.375-2.375l6.375,0.25l6.25,11.375c0,0,5.375-1.625,6.375-1.875l3,4l3,0.625c0,0,0.875-2,1.375-3.25
		s2.5-1.75,4.5-2s4,2.5,4.5,3.75s2.75,2.125,2.75,2.125s3.5,1.75,4,4s-0.875,2,2.125,3.75s3.375,0.125,3.875-1.125
		s2.125-3.125,2.125-3.125l5.875-0.25c0,0,2.875,4.125,4.625,4.625s4.664,0.484,5.375-2.125c0.375-1.375-0.125-4.625-0.625-6.125
		s0-2.375,0-2.375s4.375-2.125,6.625-1.125s3.625,1,5.125,1.75s3.625,1.75,3.625,4.25s2.5,1.875,3.5,2.375s5.25,1.5,6.75,2
		s6.625,0.5,6.625,0.5l2.375-3.75l6.125,0.5c0,0,0.25,3.75,0.75,5s2.25,2.5,3.5,2.5s4.125,0.75,4.125,0.75l4.5,4.5
		c1.25,1.25,2.75,2.5,3.25,4.5s1.5,5.25,1.75,6.25s2.25,2.75,4,2.25s3.25-3,3.25-3l7.75,2.25l2.143,1.607"/>
	
		<path fill-rule="evenodd" clip-rule="evenodd" fill="none" stroke="#646464" stroke-width="1.1339" stroke-linejoin="round" stroke-miterlimit="3.8637" d="
		M201.831,135.79c0,0,2.5,1,5,0.75s3,0.25,3.5,1.75s1.75,3.125,3.5,3.125s3.5,0,3.5,0l2.25,0.75c0,0,1.5,4,1.25,5.75s-1,4.25-1,4.25
		l0.625,4.625l6.375,1.875c0,0,2.5,0.25,4.25,0.25s4.25,3.125,1,3.125s-5,0.875-5.5,2.625s-1.5,3.25-2.5,4s-3,2.25-3,2.25
		l-2.25,3.75l-0.5,2.25l-1.625,2.625c0,0,2.25,8.625,2.25,10.625s-1.25,3-1.25,3s-0.625,1-1.875,1.5s-2.25,0.75-2.25,0.75
		s1.5,3.5,2.5,4.5s3,1.25,3,1.25s3-0.25,3-1.75s0.25-3,0.25-3s2,0.5,2.25-0.75s2.25-1.75,2.25-1.75l4,0.5c0,0,0,4,1.75,5.75
		s2.25,2.25,1.75,3.75s0.5,3.25,0.5,3.25l2,1.25l4,0.25l3.5,2.25l1.5-3.5c0,0,5,0.5,6,0s3.5-0.5,4.25,0.5s5.625,4,7.625,5.25
		s4.75-1.5,4.75-1.5s-2-2.25-0.25-2.5s1.75-1.25,2.25-2.25s1.5-2.5,4.25-1.75s3.75-3.125,3.75-3.125l4.125-2.5l3.125-6.375l2-1
		l1.75-3.5l2.375-0.5c0,0,1.75-7,3.5-8.75s6.125-3.5,8.375-3.5s4-0.75,4-0.75l4.5-2.5l8.125,6.25l4.375,1.375l8,4l1.375,1.75
		l4.125,0.375c0,0,0.625-5.125,0.875-6.625s0.75-3.25,2.25-3.25s4.625-1.125,6.375-1.375s5.5,1.25,5.5,1.25h2.625l3.625-4.375
		l2.875-7.625c0,0,8-12,8.5-13s1.75-2.5,2-4s0.25-4.5,2.75-5s8.5-1,10-1.75s4.375-1.125,5.125,0.125s3.25,1.625,4.5,2.375
		s1.25,2.5,0.5,3.75s-0.5,4.25-0.5,4.25s2.5,5,4,5.75s2.25,2.625,2.25,2.625s1.75,0.375,2.5,2.125s2.5,1,2.5,1l2.875-4.25
		c0,0,3.125,0.25,4.125,1.75s2.75,1.25,3.5,0.25s2.75-3.125,3-1.375s2,1.5,2.5,0.5s1-2.5,0.5-3.75s-1.25-2.25-0.5-3.75s1-2.5,0-3.75
		s-2.25-2-1.25-3s1.5-2,0.25-2.75s-3.125-1.375-3.125-2.625s0.75-5.875,2.5-6.125s4.25,0.625,4.25,0.625s5.875,0.75,5.875-1.25
		s1.375-4.75,2.875-5s2.625-2.75,2.625-2.75l1.75-3.5"/>
	
		<path fill-rule="evenodd" clip-rule="evenodd" fill="none" stroke="#646464" stroke-width="1.1339" stroke-linejoin="round" stroke-miterlimit="3.8637" d="
		M274.956,281.165l-1.375-1.5l-3.75-4c0,0-4.75-4.75-5.625-5.5s-1.5-2.25-1.5-2.25l-0.734-4.5c0,0-1.766-3.25-2.016-4.25
		s-1-1.25-1-1.25s-2.5,0-3-2s-2.25-7-2.25-7l-2.75-2.75c0,0-3.75-5-2.25-7s-0.375-4-0.375-5.25s0.625-2.5,1.125-3.75s0-4.75,0-4.75
		l0.875-3.5l-1-3.75l-3.5-1.875l-1.5-5.375"/>
	
		<path fill-rule="evenodd" clip-rule="evenodd" fill="none" stroke="#646464" stroke-width="1.1339" stroke-linejoin="round" stroke-miterlimit="3.8637" d="
		M408.081,359.415c0,0,0.175-2.426,0-3.125s-0.397-2.652,1-3.875s5.189-4.365,5.189-4.365v-3.145c0,0,3.145-2.585,3.843-3.458
		c0.699-0.873,1.363-1.048,1.188-2.445s-0.175-2.62,0.175-3.319c0.349-0.698,0-2.76,0-2.76l-2.76-2.096c0,0,0.349-2.305-0.175-3.493
		s-1.397-2.585-1.048-3.633c0.35-1.048,0.524-0.874-0.349-2.271c-0.874-1.397-2.096-3.284-2.096-3.284s-6.253-4.192-6.952-5.24
		c-0.699-1.048-1.572-2.934-1.048-3.808s0.362-3.186,0.362-3.186l-2.935-3.668l-0.524-2.935c0,0-2.271-1.921-2.969-2.969
		c-0.699-1.048-1.223-2.236-0.35-3.808c0.874-1.572,0.874-3.144,0.699-4.367s-1.048-2.271-1.048-2.271s-2.306-1.363-3.145-2.236
		c-0.838-0.874-1.362-1.747-1.362-2.62c0-0.874-1.712-2.131-0.175-3.668s0.839-1.188,2.411-1.188c1.572,0,6.067-0.545,6.73-0.894
		c0.664-0.35,1.886-2.446,1.886-2.446s0.699-4.017,3.319-4.017s5.206-0.175,5.206-0.175l1.223-1.712l2.969,2.585
		c0,0,0.489-2.411,2.236-3.109s4.018-2.096,2.62-3.843S419.896,261,418.882,261s-4.157-0.349-4.157-0.349l-1.223-4.507
		c0,0-1.886-4.157-2.585-5.205c-0.698-1.048-2.096-3.179-1.572-4.891c0.524-1.712,0-1.887-0.524-2.935s-3.319-4.367-3.319-4.367
		s-0.524-1.887,0.874-2.935c1.397-1.048,3.144-1.048,3.668-3.668c0.524-2.62,1.039-4.34,2.087-6.61
		c1.048-2.271-0.016-4.22-0.016-4.22l2.795-2.096l1.921,1.572l5.745,0.376l3.493-1.711l1.887,2.585c0,0,5.24,0.14,6.113-1.223
		c0.874-1.362,1.712-2.76,5.206-2.76c3.493,0,5.582-1.944,5.931-2.643s0.426-4.088,1.125-5.625s1.75-6.125,1.75-6.125l1.473-10.135
		l-0.349-5.589l-1.397-1.013l-0.874-2.096c0,0-0.699-4.891,1.397-4.542s5.205-1.013,5.555-1.887c0.349-0.873,2.62-7.476,2.62-7.476
		s0-7.476-0.175-8.35c-0.175-0.873-0.524-1.572-1.048-2.445c-0.524-0.874-1.048-2.096-1.048-2.969c0-0.874-0.349-3.983-1.397-4.332
		c-1.048-0.349-5.555-1.397-5.555-1.397s-0.175-1.921-0.35-2.62s0.35-2.411-1.223-3.284c-1.572-0.874-2.027-1.643-0.63-2.865
		s2.027-1.851,2.027-1.851s-0.175-1.362,0.524-2.411c0.699-1.048,1.074-2.238,0.949-4.238c-0.124-1.988-1.537-3.801-2.375-4.5
		s-0.25-3.375-0.25-3.375l-1-4.25"/>
	
		<path fill-rule="evenodd" clip-rule="evenodd" fill="none" stroke="#646464" stroke-width="1.1339" stroke-linejoin="round" stroke-miterlimit="3.8637" d="
		M449.206,195.79c0,0,3.182,0.807,4.909,0.807c1.728,0,4.978,0.216,6.057,2.806c1.08,2.591,3.454,6.489,3.238,7.568
		c-0.216,1.08-0.216,2.159,0.432,3.022c0.647,0.864,0.863,2.603,0.863,3.466c0,0.864,0,2.807-0.863,3.67
		c-0.864,0.863-1.296,1.727-0.432,2.375s0.648,1.308-0.432,1.523s-2.591,0.216-2.591,1.943v7.784c0,0.864-1.091,1.727-1.091,3.022
		s2.603,1.295,2.603,1.295s-0.216,2.819,0.216,4.114c0.432,1.295,0.432,3.226,0.432,4.318s0.716,3.569,0.716,3.569l1.943,0.216
		l0.636,8.637c0,0,1.511,1.715,1.511,3.886s0.228,3.035,1.092,3.898c0.863,0.864,1.511,2.591,1.295,3.67
		c-0.216,1.079,0,2.171,0.864,3.466s0.864,4.965,0,5.613c-0.864,0.648-0.647,2.819,0.216,5.625c0.864,2.807,3.01,2.807,4.318,2.807
		s3.898-1.523,5.193,0.647s0.851,3.682,3.238,3.682s4.33,1.08,4.33,1.08l4.546,1.943l2.375,3.466l3.454,3.022
		c0,0,0.635,1.08,1.295,1.727c0.66,0.648,5.409,5.41,5.409,5.41s2.651,7.71,1.788,9.87c-0.864,2.159-1.94,7.118-4.619,9.128
		c-1.092,0.819-0.432,2.603-0.216,3.682c0.216,1.08,0.432,4.737,0.216,5.829s-2.375,3.25-2.375,3.25s-3.88,3.874-5.391,3.874
		s-4.938,0.353-4.938,0.353l-10.217,4.421l-1.727,1.727c0,0,4.306,6.261,5.829,8.864s3.898,5.625,3.898,5.625
		s-1.313,0.699-2.609-0.165c-1.295-0.863-3.825-0.216-4.473,0c-0.647,0.216-1.931,1.943-3.67,1.295s-2.874-0.915-2.874-0.915
		l-1.943-2.807c0,0-1.727-1.511-2.807-0.647c-1.08,0.863-1.092,1.943-3.035,1.943s-2.807,0.863-2.159,2.159
		c0.647,1.295,0.793,3.245-1.365,3.029c-2.159-0.216-3.022-0.216-3.022-0.216s-3.43,2.855-3.565,4.121"/>
	
		<path fill-rule="evenodd" clip-rule="evenodd" fill="none" stroke="#646464" stroke-width="1.1339" stroke-linejoin="round" stroke-miterlimit="3.8637" d="
		M504.979,305.87c0,0,2.216-0.534,2.432-1.397s1.091-1.739,2.818-1.739s4.09,0,4.966,0c0.875,0,2.387,0.432,2.387,0.432
		s2.159,2.603,4.102,4.33c1.943,1.727,1.295,3.238,1.295,3.238l2.819,3.898l2.159,1.08c0,0,3.01-1.727,3.67-0.647
		c0.66,1.079,2.818,1.511,3.682,0.216c0.864-1.295,4.148-3.489,4.148-3.489h5.75c0,0,0.216-0.66,0.432-1.739
		s1.499-1.317,2.591-0.454c1.092,0.863,2.637,0.102,2.853-2.057s1.045-4,2.772-4s3.035,0,3.035,0l1.511,4.114v4.762l2.807,1.079
		c0,0-0.863,6.705,0.647,8c1.511,1.295,1.08,2.159,1.08,3.238c0,1.08,1.08,2.159,1.08,2.159l0.875,4.33c0,0,1.511,1.943,3.022,2.807
		c1.511,0.864,2.591,2.171,2.375,3.898c-0.216,1.727-1.08,5.613-1.08,5.613l3.875,3.898c0,0-0.432,8.216-0.432,9.079
		c0,0.864-0.228,2.579-0.875,3.67c-0.648,1.092-2.807,3.683-2.807,3.683s-1.295,2.362-0.432,4.533c0.863,2.171,0,3.898-0.216,4.546
		c-0.216,0.648-0.863,2.591-0.863,2.591l2.807,2.603l2.819,0.863l1.295,4.318l1.08,1.955l-0.647,5.829c0,0,3.784,1.091,4.647,1.307
		s3.193,1.546,3.193,1.546l5.362,3.965l-0.228,6.489l1.523,3.022c0,0-0.864,1.955-0.432,3.25c0.432,1.295,2.159,1.943,3.022,1.943
		c0.864,0,4.546-0.216,4.546-0.216l3.454,2.375v3.035c0,0,7.568,5.397,9.08,6.261c1.511,0.864,0.647,2.387-0.216,2.603
		c-0.864,0.216-1.943-0.432-1.943,2.159c0,2.591-2.375,2.171-1.295,4.978c1.079,2.807-1.657,6.272-1.657,6.272l-3.035-0.432
		c0,0-1.08,1.931-1.727,2.591c-0.647,0.66-3.682,0.863-4.33,0c-0.647-0.864-3.022-2.591-3.022-2.591l-3.454,2.375l-1.092-2.159
		c0,0-3.238,2.387-4.102,2.819s-3.898,1.943-4.762,2.159c-0.864,0.216-2.375,0.216-3.022-0.216c-0.647-0.432-0.863-0.432-2.159,0
		s-2.171,1.295-2.171,2.159c0,0.863-1.943,1.727-1.943,1.727s-0.863,1.091-0.216,2.171s0.863,1.511-0.216,1.943
		c-1.08,0.432-1.727,1.08-1.727,1.08s1.443,3.455,1.443,4.318s2,6.25,2,6.25"/>
	
		<path fill-rule="evenodd" clip-rule="evenodd" fill="none" stroke="#646464" stroke-width="1.1339" stroke-linejoin="round" stroke-miterlimit="3.8637" d="
		M647.171,242.719l-1.59,3.446l-2.852,4.841c0,0,1.08,1.079,1.727,2.159s-0.728,4.647-0.728,4.647l-5.397,2.375l-1.524,3.022
		c0,0-1.943,1.092-2.806,1.308c-0.864,0.216-1.511,3.022-1.295,3.886c0.216,0.863,0.863,3.466,0.863,3.466l3.238,4.102
		c0,0-0.432,2.59-0.647,3.898s-0.647,2.159-1.727,3.022s-1.727,6.273-1.727,6.273l-4.114,0.216c0,0-1.727,3.034-3.886,3.034
		s-4.546,1.715-4.978,2.579c-0.432,0.863-1.511,1.091-3.454,0.875s-3.25,3.454-3.25,3.454l-3.455-4.546c0,0-0.432-1.295-0.432-3.022
		c0-1.728-1.511-2.807-3.238-2.807s-3-1.284-4.943-1.284s-7.125-1.25-7.125-1.25l-7.375,4l-4,3.25c0,0-1.192,3.034-2.5,3.25
		s-1.455,4.682-1.455,4.682h-2.807l-4.114-2.159l-4.965-0.216l-0.432,1.727l-5.409-0.647l-0.864,2.591l-3.022,0.647"/>
	
		<path fill-rule="evenodd" clip-rule="evenodd" fill="none" stroke="#646464" stroke-width="1.1339" stroke-linejoin="round" stroke-miterlimit="3.8637" d="
		M520.956,124.665c0,0,0.488,2.955-0.375,4.25s-0.443,2.75,0.42,4.046c0.864,1.295,1.727,1.943,0.648,3.238
		c-1.08,1.295-1.08,1.943-0.432,3.022c0.647,1.079,0.647,2.387,0.432,3.466s-0.864,1.727-1.727,1.943
		c-0.864,0.216-2.387,1.08-2.387,1.08s-2.807,1.523-1.943,3.035c0.863,1.511,0,2.375,0,2.375s-1.943,2.146-1.295,3.886
		c0.647,1.739,4.909,3.409,4.909,3.409l8.5,3c0,0-1.727,4.625,0,6.137c1.727,1.511,0.085,0.698,1.75,1.363
		c1.25,0.5,2.625,0.75,2.625,0.75l0.75,2.75c0,0-1.295,2.159,0,2.375s0.488,3.784,0.488,3.784l3.25,2.819
		c0,0,0.648,4.75,2.375,4.965c1.728,0.216,4.114,0.648,4.114,0.648l2.375,2.387l2.59,0.864l0.216,3.454l1.956,1.511
		c0,0-0.432,2.603,0.432,4.546c0.863,1.943,2.375,3.874,1.727,4.533c-0.647,0.66-2.159,1.092-2.159,1.092s-1.092,2.159-1.092,3.238
		c0,1.08,1.092,1.511,2.171,1.511c1.08,0,5.068,1.841,5.068,1.841s3.898,3.682,5.625,5.625c1.727,1.943,2.806,2.603,2.806,4.762
		c0,2.159-0.647,4.102-0.647,4.102v3.022l1.308,1.307c0,0,1.079,4.318,1.079,4.966c0,0.647-1.739,2.818-1.739,2.818
		s0.216,1.728-1.08,3.022c-1.295,1.295-1.943,2.591-1.079,3.454c0.863,0.864,0.432,1.956-0.216,2.819
		c-0.648,0.864-2.375,1.727-1.727,3.238c0.647,1.511,3.238,6.273,3.238,6.273s-0.648,1.943-0.648,3.022s1.08,2.819,1.08,2.819
		s-1.295,0.647-1.943,1.295c-0.648,0.647-1.08,1.715-0.216,3.886c0.863,2.171,1.943,2.171,1.943,2.171l3.682,0.864l3.022,4.965
		c0,0-2.807,2.819-3.022,4.114c-0.216,1.295-2.819,6.057-2.819,6.057s-0.863,0.864-1.511,1.08c-0.647,0.216-1.079,0.864-1.079,2.591
		s1.943,2.159,1.943,2.159l1.308,1.511l0.965,5.296"/>
	
		<path fill-rule="evenodd" clip-rule="evenodd" fill="none" stroke="#646464" stroke-width="1.1339" stroke-linejoin="round" stroke-miterlimit="3.8637" d="
		M609.611,424.706c0,0-0.527-2.109-1.055-3.295c-0.527-1.187-0.923-3.205,0-3.691c0.923-0.486,3.65-1.804,3.65-1.804l0.527-5.537
		c0,0,3.427-2.727,3.955-3.65s-0.264-3.032,1.187-3.955c1.45-0.923,1.582-1.541,1.582-2.595s-0.437-1.846,0.618-2.505
		c1.055-0.659,1.714-0.527,1.978-1.713s-0.527-2.727,1.054-2.859c1.582-0.132,4.177-0.264,5.1-1.187s3.295-0.264,4.086-0.659
		s2.282-1.318,3.032-1.978c0.75-0.659,1.937-1.054,2.596-1.054s1.318-0.791,1.45-1.318s2.769-0.923,3.56-0.923
		c0.791,0,2.2,0,2.595-0.264s1.186-1.277,1.186-1.277s0.182-1.323,0.973-3.432c0.791-2.109,1.714-3.691,1.714-3.691
		s0.132-1.936,1.318-2.595c1.187-0.659,3.296-1.582,2.241-3.559s-1.318-2.463-1.318-3.518s-0.354-1.978,0.923-2.9
		c1.277-0.923,1.541-2.769,1.541-3.296s1.978-0.923,1.978-0.923s-0.452-2.916-0.188-3.574c0.264-0.66,1.186-2.241,2.241-2.373
		s1.45-0.791,1.45-0.791s-0.866-1.352-0.734-2.802c0.132-1.45,0.923-3.164,0.923-3.164s-0.791-2.109-0.791-2.637
		c0-0.527,0.132-2.332,0.923-2.991c0.791-0.659,3.782-3.732,4.177-5.009c0.396-1.277,2.373-3.518,3.164-3.781
		s3.857-0.543,3.857-0.543s1.318-1.845,2.373-2.109c1.055-0.264,1.714-0.173,2.109-1.714s2.97-0.991,3.761-1.518
		s2.241-1.845,2.636-2.241s1.978-1.055,1.978-2.241s0.166-4.369-0.625-5.688s-2.241-1.846-1.45-2.768
		c0.791-0.923-0.571-1.663-1.362-2.544s-1.57-1.639-2.625-1.375s-3.202,0.131-4.125-1.188s-1.951-3.451-2.438-3.938
		s-0.744-1.386-1.535-1.65s-3.84-1.85-3.84-1.85s1.723-0.966,2.25-1.625s0.272-3.602,0.536-3.998
		c0.263-0.396-0.286-2.627-0.286-2.627"/>
	
		<path fill-rule="evenodd" clip-rule="evenodd" fill="none" stroke="#646464" stroke-width="1.1339" stroke-linejoin="round" stroke-miterlimit="3.8637" d="
		M690.413,402.042c0,0,1.25-2.25,1.875-3.5s2.918-6.252,2.918-6.252l1.677-3.209c0,0-1.625,0-2.375-0.125s-1.875-0.875-1.875-0.875
		l-1.75-1.75l-4,1.125c0,0,0-2.5,0-3s-2-3.125-2-3.125l-0.25-3.625c0,0-3-1.875-3.625-2.625s-2.625-4-2.625-4l-0.927-4.791l1.5-2.5
		c0,0-1.698-1.709-2.323-3.334s-2.941-0.462-2.941-0.462l-3.236,0.546c-0.963,0.021-3.054,0.402-3.439,0.658
		c-0.396,0.264-1.488-1.197-2.279-1.065s-3.511-0.496-3.907,0.032s-1.055,0.396-1.582,0.132s-3.17,0.231-3.17,0.231"/>
	
		<path fill-rule="evenodd" clip-rule="evenodd" fill="none" stroke="#646464" stroke-width="1.1339" stroke-linejoin="round" stroke-miterlimit="3.8637" d="
		M148.081,199.415l5,5.75l2.125,1.5l2.375-0.125l2,1.875l2.25,2.25l2.75,0.5l2.625,0.875c0,0,2.25,0.625,3.5,0.125
		s1.625-0.75,1.625-2.25s0.125-2,1.125-2.5s5.25-1.125,5.25-1.125s0.375,1.625,1.125,2.625s2.75,0.375,2.75,0.375l1.625-3.25l6.5-3
		l1.75,1.375l-0.375,5.5l-1,2.125l1,3.125l-0.875,3.125l2.125,1.875c0,0,1,1.25,1.25,3.5s-1.5,3-3,3.5s-2,1.75-3,3.5
		s2.25,1.75,3,0.75s3.5-0.75,3.5-0.75l1.25,3l6.125,9.25l4.875,5.25c0,0,0.125,3.75,1.25,4.25c1.615,0.718,5,1.125,6,1.125
		l2.75,0.375c0,0,2.375,3.625,2.875,4.625s-0.5,4.25-0.5,4.25l-7,2.375c0,0-2.255,2.54-1.625,3.875l-1.375,4l0.625,4.25
		c0,0-1.25,1.75-1.875,3s-0.125,5.5-0.125,6.125s0.75,6.375,0.75,6.375s4.125,2.125,5,2.625s2.75,0.875,2.75,0.875
		s1.625,2.625,1.625,4s-1.875,2.875-1.875,2.875l-1.125,3.125l0.75,3l2.125,1l7.125,5.875l-1.375,6c-0.016,0.021-0.875,5-1.125,6.75
		s-0.375,2.875-2.375,4.625s-1.875,4.625-1.875,6.375s-0.875,3.875-1.875,5.125s-0.625,3.75-0.125,5.25s1.125,2.375,1.125,2.375
		l-2.125,3.375l-2.375-0.75l-8.25-1.25c0,0-3.375-2-4.375-2.75s-4.75-1.875-7-2.125s-9-0.25-10-0.25s-8,0.75-8,0.75s1,4.125,2,5.875
		s1.875,3.125,2.875,3.625s0.25,2.25-1,3.75s-3.375,4.125-3.375,4.125l-1.25,3l0.75,3.875l-4,1.375l-2.5,2.875c0,0-0.25,3.5,0.25,5
		s1.5,2.25,1,3.75s0.375,5.5,1.375,6.75s2.875,3.25,0.75,6c-0.979,1.267-4,7.375-4.5,8.375s-3.875,5.125-3.875,5.125
		s-1.625,2.125-3.625,2.375s-4.125,1-3.375,2.25s1.5,5.375,1.5,6.375s0,0.875,1.25,2.875s2,1.75,2.75,0.5s0.5-2.25,2-0.75
		s2.75,2.25,2.75,2.25l5.25,3.125c0,0-1,2.75,0,3.75s2.25,2,1,3s-1.25,3.25,0,3s5.5-2.75,6.75-2.75s2.25-0.75,2.5,1
		s-0.25,5.25-0.25,5.25"/>
	
		<path fill-rule="evenodd" clip-rule="evenodd" fill="none" stroke="#646464" stroke-width="1.1339" stroke-linejoin="round" stroke-miterlimit="3.8637" d="
		M224.081,322.165c0,0,4.456,2.917,4.75,4.75s1.125,3.125,1.125,3.125l1,5.625c0,0,4.5-0.875,5.75,0.625s2,1,4.25,1s2.125,3,2.125,3
		s-2.625,2.125-3.625,2.875s-2.75,1.625-3.75,1.875s-1.25,1.625-2.5,2.875s-0.5,3-0.5,4.5s0.25,2.75-1.25,3.75s-1.75,2.75-1.75,2.75
		l1.375,1.25c0,0-0.5,1.25,1.25,2.75s3.75,1.375,4.25,2.875s3,2.125,3,2.125s4.375,0.75,5.375-0.5s0.25-2.25,0.25-2.25s2.5-3,1.75-4
		s-1.375-2.75-0.125-4s0.875-2.5,0.875-3.5l0.75-4c0,0,1.375-3.25,4.125-3s2.235-1.217,3.5-1.375c2-0.25,2.875-2.125,2.875-2.125
		s2.75-0.5,3-2.25s1-3,1-3l1.75-1.875c0,0,1.766-3.061,2.125-5.625c0.389-2.778-0.625-5.1-0.625-5.75
		c0-1.25-0.552-6.577-0.375-8.875c0.125-1.625,1.375-3.5,1.375-3.5s-1.625,0-2.625-1s-3.25-3.625-3.25-3.625s2.75-2,3.25-3
		s3.75-2.25,3.75-2.25l4-3.5c0,0,4.375-1.625,3.125-3.375s-2.125-4.25-2.125-4.25l0.375-2.375l1.25-7.75
		c0,0,3.625-0.125,5.625-1.875s4-1.25,5-0.25s2.625-2,3.875-1.25s5.375,1.125,5.875-0.625s1.5-2.25,1.5-2.25l6.25,0.25
		c0,0-0.75-1.75,1.75-1.5s0.5-1.25,0-2.5c-0.229-0.573-0.853-0.466-1.375-2c0,0,5-0.125,6.125,0.5s2.875-1.625,4.125-1.875
		s2.25-1.25,2.25-1.25l-0.875-2.125l-0.125-3.125c1.082-1.083,1.028-1.304,2.5-2.25c1.75-1.125,3.056-1.293,3-2.75
		c-0.125-3.25-0.221-3.003,1-3.875c0.875-0.625,1-1.875,2.25-1.875s1.375-3.25,5.25-4.5c1.064-0.343,4-4.125,4.25-5.125s2-3.5,2-3.5
		l0.625-1.125l5.75-0.25l1.625-3.625c0,0,1-1.75,2.75-2.75s-1-4-2.5-5.25s-4.5-5.75-4.5-5.75s-3,0-4.5,0.75s-2.5,0.75-3.75-0.25
		s-3-2-3-2l0.25-3.75c0,0,0.25-6.25,2-7.75s2.875-1.125,2.875-1.125l1.125-2.875l4.25-2.5c0,0,1-2.25,1-4.25s-1-8.5-1-8.5"/>
	
		<path fill-rule="evenodd" clip-rule="evenodd" fill="none" stroke="#646464" stroke-width="1.1339" stroke-linejoin="round" stroke-miterlimit="3.8637" d="
		M558.706,463.79c0,0-2.766-3.5-3.266-4.75s-1.25-0.75-1.5,0.25s-2,0.25-2,0.25l0.25-4.25l2.25-2l-0.75-2.75l-3,1.5
		c0,0-2.25,1.25-4.25,1.25s-7.75-0.25-7.75-0.25l-8-0.25l-2.234-1.125l-5.266,2.875c0,0-0.5,0.75-0.5,1.75s-2.5,2-2.5,2l-8.5,0.5
		l-1.25-4c0,0-2.234,2.375-4.734,2.625s-7.016,1.125-7.016,1.125s-3.984-2.125-4.234-3.375s-1.5-2.75-1.5-2.75l-4.75-2.25l-4.5-0.25
		c0,0-2.25-0.5-3.5-1.25s-1.875-0.125-1.875-0.125l-0.125-5l-0.5-3.75l4.75-2.375l0.5-2l3.5-3.5l0.25-3.625l1.5-2l2-1.75l5.25-6.5
		l-3-2.75l-0.25-3.5l2.5-4l-1.25-1.75l0.25-6.25l-3.75-2.25c0,0,0-1.75,0-3.25s0.75-3.25,0.75-3.25l-2-3.5l-2.75-0.5l-3-2l-2.5,0.75
		c0,0-1.75,0.75-2.25,1.75s-2.75,1-4.5-0.5l-2.25-0.188l-0.75-1.5l-3.5-0.125l-3.75-3.562l-2.938-0.375l0.313-3.557
		c0,0-1.956-1.079-3.683-2.171c-0.864-0.546-1.579-4.005-1.443-5.272l-7.625-3l-3.25,1.625l-1.25-1.625c0,0-2.125-0.625-2.75-0.812
		s-2-2.125-2.438-2.375s-2.812-1.688-2.812-1.688l-1-1.5c0,0-2.812-2.938-3.062-3.25s-1.125-1.125-2-1.375s-3.688-1.688-4.312-2.125
		s-3.562-2.875-3.562-2.875s-4.375-2.125-4.938-2.312s-1.875-1.312-2.5-0.938"/>
	
		<path fill-rule="evenodd" clip-rule="evenodd" fill="none" stroke="#646464" stroke-width="1.1339" stroke-linejoin="round" stroke-miterlimit="3.8637" d="
		M264.706,336.04c0,0,2.129,1.026,3.5,0.5c1.231-0.472,1.701-2.476,2-2.875c0.632-0.843,3.5-1.75,3.5-1.75l6-0.75
		c1.054,0,2.204,1.407,2.625,2.25s1.625,2.125,1.625,2.125s2.743-0.875,3.375-0.875c0.632,0,2.954-0.696,3.375-1.75
		s2.032-0.146,2.875,1.75s1.157,1.375,2,1.375s1.679,1.475,2.101,2.528c0.421,1.054,1.896,3.371,1.896,3.371s2.45,1.469,3.503,2.101
		c1.054,0.632,4,1.25,4,1.25s1.064,2.958,1.486,4.222s1.264,2.528,1.264,2.528l0.5,2.5l2.75,3l1.25,5.25
		c0,0,1.493,0.493,2.125,1.125c0.632,0.632,1.375,0.986,1.375,2.25s0.532,2.086,1.375,1.875s3.136-0.925,3.136-0.925l1.896,1.047
		l3.792-0.421c0,0,1.89-0.204,1.89,0.632s2.107,2.107,2.95,2.317c0.843,0.211,1.896,1.475,1.896,1.475h6.314
		c1.475,0,2.743,1.986,3.375,3.25c0.632,1.264,3.125,1.125,3.125,1.125l-0.671,5.76c0,0,0.875,2.311,1.296,3.365
		s0.468,1.782-0.375,2.625s-1.421,2.361-1,3.625s1.875,1,1.875,1s-0.812,5.764-1.233,6.396c-0.421,0.632,0,6.314,0,6.314
		s-1.475,3.582-1.053,5.05s0.843,2.528,0.843,3.793c0,1.264-1.264,2.317-1.264,2.317s-0.421,2.311-0.632,3.786
		c-0.21,1.475-4.839,5.682-4.839,5.682s0.101,1.936-0.321,3.411s-2.064,2.135-3.111,1.082c-1.047-1.054-1.475,0.21-1.896,1.053
		s-1.896,1.89-1.475,2.733c0.421,0.843,0.632,2.107,0.632,3.16c0,1.054-0.21,1.264-1.686,1.264c-1.475,0-0.421,0.843,0.211,1.679
		c0.503,0.666-0.392,1.977-0.425,2.278c0,0,2.579,0.407,3,1.25s-0.046,0.264-1.311,1.739c-1.264,1.475,0,1.686,0.421,2.317
		c0.421,0.632,0.246,2.875,0.667,3.508c0.421,0.632,2.732,3.582,2.732,3.582s2.318-0.843,3.161-0.843s2.95,1.475,3.997,2.317
		s3.239-0.575,4.082-0.996s1.875-1.375,1.875-1.375v-2.75l3.097-2.879l2.317,0.836c0,0,1.265,0.421,2.318,0.421
		c1.054,0,1.475-1.468,1.475-1.468l4.293-0.536c0,0,0.046-4.196-0.375-5.25s-0.179-2.618,0.875-3.25
		c1.054-0.632,0.632-1.896,0.421-2.95c-0.21-1.054,3.079-3.925,3.079-3.925l1.807-1.564l1.318-3.186l2.686-2.292h1.686
		c0,0,3.597-1.357,2.754-2.833s-0.625-4.875-0.625-4.875s1.025-1.55,2.079-2.393c1.053-0.843,0.632-1.053,1.264-2.739
		c0.632-1.686,2.318-0.632,2.318-0.632s2.311-2.943,2.943-3.997c0.632-1.054,2.482-2.482,2.271-3.114
		c-0.211-0.632,0.25-4.875,0.25-4.875v-3.375c0,0-0.033-0.38,0.639-1.693c0.861-1.682,3.611-1.932,3.486-3.557
		c-0.048-0.63-0.671-3.493-0.25-4.125c0.421-0.632,1.414-2.243,1.625-2.875c0.211-0.632,1.843-2.446,1-3.5s-0.277-3.1,0-4
		c0.5-1.625,1.75-1.625,2.139-1.518c0.837,0.23,2.528-3.792,2.528-3.792s4.607-3.314,6.083-3.939c1.475-0.625,4.125,1.25,4.125,1.25
		s0.789-1.993,1-2.625c0.211-0.632,1.468-2.782,0.625-3.625s-1.5-2.625-1.5-2.625l-2.75-0.75c0,0-3.375,0.739-3.586,2.003
		c-0.21,1.264-4.828,0.99-5.039,1.622c-0.211,0.632-1.525,2.421-3,2c-1.475-0.421-2.618-1.054-3.25,0c-0.632,1.054,0.5,2-1.25,2.625
		c-1.545,0.552-2.329-0.6-2.75,0.875s-1.368,0.843-2,0c-0.632-0.843-1.125-3.375-1.125-3.375s-1.446-2.157-2.5-3
		s-3.5-2.125-3.5-2.125l-3,1.25l-3.375,0.25c0,0-1.854-0.211-3.75,0s-3.282,1.157-4.125,2s-1.504,1.851-2.25,0.875
		c-1.625-2.125-1.193-0.686-1.193-0.686l-11.557-8.564l-3.375,2.125c0,0-0.5,8.128-0.079,9.393s0.21,1.89-0.421,2.732
		c-0.632,0.843-0.304,3.028-0.304,3.661c0,0.632,0.421,2.107,0.421,2.107l0.507,1.357"/>
	
		<path fill-rule="evenodd" clip-rule="evenodd" fill="none" stroke="#646464" stroke-width="1.1339" stroke-linejoin="round" stroke-miterlimit="3.8637" d="
		M333.206,480.04l2.75-6.25l1.625-5.25c0,0,1.875,2,2.875,2.375s2.5,0.25,2.625-0.875s0-5.25,0-5.75s0.25-2.625-0.25-3.375
		s-2.125-6.25-2.125-6.25"/>
	
		<path fill-rule="evenodd" clip-rule="evenodd" fill="none" stroke="#646464" stroke-width="1.1339" stroke-linejoin="round" stroke-miterlimit="3.8637" d="
		M244.956,367.415l3.542,6l0.958,4.125c0,0,1.329,2.65,1.75,4.125s0.236,2.489,0.236,2.489v2.521c0,0.632,1.875,0.832,3.139-0.011
		s3.368-0.607,4,1.5c0.632,2.107,0.625,3.375,0.625,3.375l-1.375,1.625c0,0-1.304,3.071-0.25,4.125s2.282,1.007,3.125,0.375
		c0.843-0.632,4.486-1.961,5.75-1.75s3.361,0.836,4.625,0.625s1.857,1.089,1.857,1.089s0.625,3.365,1.89,4.84
		c1.264,1.475,4.003,4.22,4.003,6.321s-0.018,8.411,0.825,10.307c0.504,1.134,2.028,1.561,2.05,2.818l3.5,2.375
		c0,0-0.5,2.375-1.125,3.375s0.25,3.125,0.75,3.875s3,3.375,3.625,4s1.125,1.625,1.5,2.5s-1.75,1.375-2.25,1.625
		s-2.25-0.375-2.25-0.375l-5.125-0.5c0.35,1.68,0.583,5.782,0.583,5.782s-1.468,1.264-1.258,2.739
		c0.211,1.475-1.264,1.257-1.475,2.311c-0.211,1.053,1.896,2.739,0.843,3.582c-1.054,0.843-2.318,2.529-2.318,2.529v3.786
		c0,0-2.318-0.632-2.318,0.632s0.205,2.528-1.264,2.528c-1.468,0-1.89,0.217-2.1,1.686c-0.211,1.468-2.739,4.629-2.95,5.261
		c-0.21,0.632,0.421,2.943,0.632,4.207s1.475,5.9,1.475,5.9"/>
	
		<path fill-rule="evenodd" clip-rule="evenodd" fill="none" stroke="#646464" stroke-width="1.1339" stroke-linejoin="round" stroke-miterlimit="3.8637" d="
		M663.788,450.667l-4.707-4.627c0.19-0.111,0.402-0.206,0.658-0.259c1.277-0.264,3.123-0.964,2.727-2.637
		c-0.396-1.672-0.071-3.423-0.071-4.873c0-1.45-0.396-2.991,1.055-3.914s0.659-2.637,2.109-2.769
		c1.45-0.132,3.348-0.659,3.612-1.713c0.263-1.055,0.527-1.978,0.659-2.505s0.396-1.409,1.582-2.332s1.318-2.768,0.791-3.559
		s-1.187-2.241-1.187-2.241s0.264-2.727,0.264-3.518s0.434-2.9,1.225-3.823s1.055-1.145,1.977-1.804
		c0.923-0.659,1.45-1.45,1.582-2.241s0-2.373,0.132-2.9s0.222-2.637,2.463-1.714s2.505-0.486,2.769-1.277s-0.486-1.978,1.845-1.714
		c1.902,0.215,3.129,0.342,3.517,0.382c0,0,1.124,2.786,2.874,1.786s4.418-1.377,4.418-1.377s2.5-0.75,3.25-2s2.5-2.75,4.25-3.25
		s6-1.5,6-1.5l1-3c0,0,1.75,1,3,1s1.75-0.5,2.75,1s4.25,1,5.25,0.75s4.5,0,5.25-1.75s-0.5-2,3-3s4.25,0,6.25-1.5s4.5-1,4.5-1
		s2.5-2.25,5-1.75s9.125-1.75,9.125-1.75l0.875-3l1.75-0.75l1.25-4c0,0,4.5-5,6.25-6.25s4.25-2.5,4.25-2.5s3-2.25,4.25-2.5
		s7.5,0.625,7.5,0.625l0.375-1.75l1.875,0.25l5.375,1.5c0,0-0.875-5.5-0.625-7.25s0.75-3.25,0.5-5.75s-0.125-7.5-0.125-7.5
		s0.25-3.5,2.5-4s4,0.75,4,2.25s0.25,4.875,0.25,4.875l2,3.75l0.75,3.25c0,0,1.25,1.5,3.5,2.5s7.25,1.125,7.25,1.125l2.5-0.5
		l3.75,0.25"/>
	
		<path fill-rule="evenodd" clip-rule="evenodd" fill="none" stroke="#646464" stroke-width="1.1339" stroke-linejoin="round" stroke-miterlimit="3.8637" d="
		M133.456,251.415l0.105,0.168l7.895-0.293l4.5,4l3.875-2.375l1.375,2.125l0.75,5.875l2.25,3.875c0,0,1,3.625,1,5.375s1.75,7,1.75,7
		l3.25,2.375l3.875,3.375l-0.375,4c0,0,1.625,1,2.625,2.5c0.809,1.213-0.25,1.875,1.25,3.375s2.25,0.5,2.5,1.75
		s1.875,4.75,2.375,5.75s1.875,4.125,3.125,6.125s1.25,2.875,2.5,2.875s3,1.75,3,3.75s1.125,3.5,2.375,5s2.625,2.75,2.625,2.75
		s-1.25,1.75-2.5,2.75s-2.125,2.75-2.125,2.75s-2,2.125-3,2.125l-3.125,0.5l-2.5,3.125c0,0,0.875,4.875,1.125,6.125
		s-0.125,3.75-0.375,5s-0.125,3.75,0.625,5s1.5,1.5,1.5,1.5"/>
	
		<path fill-rule="evenodd" clip-rule="evenodd" fill="none" stroke="#646464" stroke-width="1.1339" stroke-linejoin="round" stroke-miterlimit="3.8637" d="
		M72.581,333.04c0,0,7.5,2,9.5,2.75s2.375,4.75,2.875,6s1.5,2.125,3.5,4.625s2.75,3.75,3.5,4.75s1.5,6.25,0.5,8.75
		s-0.75,5.625-0.75,5.625l-0.375,3.875l-0.625,5.375l1.875,3.5l3.625,0.375l4,1.5l2.25,1.5l4.25,2.75l3.375,2.875l0.875,3.125
		l10.125,7.125l0.875,4.25l7,0.125c0,0,4.25,0,4.25-3s1.125-5,1.125-5l2.25-1.875c0,0,1.25-1,2,0.25s2.5,3.125,4.5,4.625
		s2.5,4.25,3,5.75s1.375,3,2.875,3s1.25-0.75,2-2s1.5-4.5,1.75-5.5s1.75-4.75,2.75-5s3,0.75,5.5,1.25s10.875-0.75,10.875-0.75"/>
	
		<path fill-rule="evenodd" clip-rule="evenodd" fill="none" stroke="#646464" stroke-width="2.8346" stroke-miterlimit="3.8637" stroke-dasharray="14.1732,5.1024" d="
		M287.206,71.165c0,0,4-4.75,5.25-5.75s5-9.25,5-9.25s0.75-2.5,5-2.25s6.25,0.25,6.25,0.25s3.125,0.25,5.125,0.5
		s6.375-1.125,7.875-2.875c0.813-0.949,3.75-0.875,3.75-0.875l3-1c0,0,0.5-1.75,3-1.75s8.75-2,10.25-2.5s3-1.5,4-0.25s1,2,2.5,2
		s3,0.75,3,0.75s1.75,0.75,2.75-0.25s2.75-2.25,2.75-2.25s0.75,1.25,3,1.5s4.75,1.75,4.75,1.75l3,3.5c0,0,3-0.25,4-0.5
		s2.5-0.75,2.5-0.75l1.25-3.5l1.75-2.75l3.75-4.5c0,0,5.5-0.5,7,1s3,3.25,3,3.25l1.5,2.5l1.25,2.25c0,0-1,7.75-1.5,8.75
		s-0.5,1.75,0.75,3s4,2,5.25,2.25s6.5,1.75,6.5,1.75l4-1l2.5-6.25c0,0,0.625-4.625,3.125-4.625s4.875-0.625,4.875-0.625
		s2.375,1.25,1.875,3s-1.125,4,0.125,4.25s4.625,2.875,4.625,2.875s2.125-0.875,3.625-2.125s4-3,4-3s2.75,1.5,3.5,2.5
		s2.75,2,3.75,2.75s1.5,2,2,3s1.75,2.5,4.25,2.75s5,0.5,6.25,0.5s7.5,1.75,9,1.5s3.5,0.625,4.5,1.625s3.5,1.375,3.5,1.375
		l3.625-1.875l2.25,2.25l-1.5,2.375c0,0-1.125,2.5-1.875,3.5s-6.5,2-6.5,2l-1.75,4l-2.25,2.25l-1.5,4.75c0,0-1,0.75-2.5,1.25
		s-6.5,2-6.5,2s-2,2.5-3.5,2.75s-3,1-3,1s3.25,4.25,3.75,5.25s0,2.75-1.75,3.25s-2.75,2-2.75,2s-1,2.5-2.25,2.5s-4.25-1-4.25,0.25
		s-1,3-1,3l-1.5,4.5"/>
	
		<path fill-rule="evenodd" clip-rule="evenodd" fill="none" stroke="#646464" stroke-width="2.8346" stroke-miterlimit="3.8637" stroke-dasharray="14.1732,5.1024" d="
		M123.192,245.088l7.639,0.327l2.625,6l-2.75,4.5l-3.375,1.375l-1,2.625c0,0-2.25,1-3.125,0.75c-0.496-0.142-2.875,0-2.875,0
		s0.375,2.375-0.75,3.375s0.25,1.875-1.625,2c-1.247,0.083-2.375-0.25-2.375-0.25l-5.375,2.625l-2.25,0.125c0,0-2.125-0.75-3-0.25
		s-1.75,1.5-3.75,0.875s-3,1.75-3,1.75s-2,1.75-3,1.5s-3.875,1.875-3.875,1.875"/>
	
		<path fill-rule="evenodd" clip-rule="evenodd" fill="none" stroke="#646464" stroke-width="1.1339" stroke-linejoin="round" stroke-miterlimit="3.8637" d="
		M748.722,279.415l-2.823,5.988l-3.466,1.295l-2.375-0.864h-2.375l-3.898,2.591l-3.886,0.444l-1.943,1.295l-3.898,0.216
		l-3.238,3.886h-8l-1.727,1.943l-4.978,6.057l-1.534,0.703l-4.625,1.946l-3.807,0.441l-4.33-2.603l-4.546-1.295l-6.477-1.295
		l-4.091-2.498l-3.693-1.832l-4.557-2.043l1.511-1.511l0.216-2.59c0,0,1.91-0.558,2.773-0.773s0.432-1.523,0.432-1.523l-1.511-2.807
		l-0.171-4.32l-1.727-1.08l-0.772-3.52l-2.25-1.877c0,0-0.216-0.432-0.647-1.955c-0.432-1.523-4.114-7.353-4.114-7.353
		s-2.591-2.159-3.886-3.454c-1.295-1.295-2.102-4.736-2.102-4.736l-1.625-0.875l-1.251-2.173l-0.863-3.886l-1.193-2.307
		l-3.022-2.603l-1.08-1.727l0.648-4.102c0,0,1.943-2.171,2.159-2.819c0.216-0.648,1.08-1.727,0-3.454
		c-1.08-1.728-0.864-2.171-0.216-3.035c0.647-0.864-0.513-6.379-0.729-7.471s-0.648-4.534-0.648-4.534l2.159-2.159l-0.216-3.25
		l-1.943-3.454l0.689-6.799l1.511-1.943c0,0,1.511-2.807,2.159-4.114c0.648-1.308-0.017-3.077-0.88-4.804
		c-0.863-1.727,0.88-3.627,1.312-4.707c0.432-1.079,1.511-4.102,1.511-4.965c0-0.863-0.92-3.245-1.352-4.54s0.488-4.983,1.352-6.278
		c0.863-1.295,0.432-3.022,0.432-4.534s1.091-5.194,1.091-5.194l-0.982-3.043l0.982-2.582l3.886-0.647l2.921-2.143
		c0,0,4.923-5.432,6.002-7.159c1.079-1.727,2.758-1.505,3.622-0.858c0.863,0.647,2.59,0.432,3.238-0.432
		c0.647-0.864,3.022-2.591,3.022-2.591"/>
</g>
<g id="Linien_korr">
</g>
</svg>
