<?xml version="1.0" encoding="utf-8"?>
<!-- Generator: Adobe Illustrator 16.0.0, SVG Export Plug-In . SVG Version: 6.00 Build 0)  -->
<!DOCTYPE svg PUBLIC "-//W3C//DTD SVG 1.1//EN" "http://www.w3.org/Graphics/SVG/1.1/DTD/svg11.dtd">
<svg version="1.1"
	 id="Layer_1" xmlns:cc="http://creativecommons.org/ns#" xmlns:inkscape="http://www.inkscape.org/namespaces/inkscape" xmlns:sodipodi="http://sodipodi.sourceforge.net/DTD/sodipodi-0.dtd" xmlns:dc="http://purl.org/dc/elements/1.1/" xmlns:svg="http://www.w3.org/2000/svg" xmlns:rdf="http://www.w3.org/1999/02/22-rdf-syntax-ns#" inkscape:version="0.91 r13725" sodipodi:docname="EXAMPLE.svg"
	 xmlns="http://www.w3.org/2000/svg" xmlns:xlink="http://www.w3.org/1999/xlink" x="0px" y="0px" width="1900px" height="1900px"
	 viewBox="0 0 1900 1900" enable-background="new 0 0 1900 1900" xml:space="preserve">
<sodipodi:namedview  id="namedview812" objecttolerance="10" pagecolor="#ffffff" guidetolerance="10" bordercolor="#666666" gridtolerance="10" showgrid="false" inkscape:cy="950" borderopacity="1" inkscape:zoom="0.12421053" inkscape:cx="950" inkscape:window-y="0" inkscape:window-x="0" inkscape:pageshadow="2" inkscape:pageopacity="0" inkscape:window-width="686" inkscape:window-height="480" inkscape:window-maximized="0" inkscape:current-layer="Layer_1">
	</sodipodi:namedview>
<text id="text719" transform="matrix(1 0 0 1 385.5757 109.4434)" font-family="'Arial-BoldMT'" font-size="51.3758">Botswana map of Köppen climate classification</text>
<g>
	
		<rect id="rect12069_68_" x="-1019.225" y="257.57" fill="#1300FC" stroke="#000000" stroke-width="0.5" stroke-miterlimit="10" width="45.803" height="41.047"/>
	<text id="text722" transform="matrix(1 0 0 1 -967.7734 292.8921)" font-family="'Arial-BoldMT'" font-size="42.6543">Equatorial climate (Af)</text>
</g>
<g>
	
		<rect id="rect12069_67_" x="-1019.225" y="325.193" fill="#0E73FC" stroke="#000000" stroke-width="0.5" stroke-miterlimit="10" width="45.803" height="41.046"/>
	<text id="text725" transform="matrix(1 0 0 1 -967.7734 360.519)" font-family="'Arial-BoldMT'" font-size="42.6543">Monsoon climate (Am)</text>
</g>
<g>
	
		<rect id="rect12069_65_" x="-1011.476" y="555.963" fill="#FD0000" stroke="#000000" stroke-width="0.5" stroke-miterlimit="10" width="45.799" height="41.052"/>
	<text id="text729" transform="matrix(1 0 0 1 -960.0215 591.2949)" font-family="'Arial-BoldMT'" font-size="42.6543">Warm desert climate (BWh)</text>
</g>
<g>
	
		<rect id="rect12069_2_" x="114.863" y="1773.813" fill="#FD0000" stroke="#000000" stroke-width="0.5" stroke-miterlimit="10" width="45.799" height="41.053"/>
	<g enable-background="new    ">
		<path d="M173.753,1809.146l-7.289-30.533h6.311l4.602,20.973l5.582-20.973h7.332l5.352,21.326l4.687-21.326h6.206l-7.414,30.533
			h-6.539l-6.082-22.828l-6.061,22.828H173.753z"/>
		<path d="M212.429,1793.774l-5.311-0.957c0.597-2.139,1.625-3.723,3.082-4.75c1.458-1.027,3.624-1.541,6.498-1.541
			c2.611,0,4.555,0.309,5.832,0.928c1.277,0.617,2.176,1.402,2.697,2.354c0.521,0.951,0.781,2.697,0.781,5.238l-0.063,6.83
			c0,1.945,0.094,3.377,0.281,4.301s0.537,1.914,1.051,2.969h-5.789c-0.153-0.389-0.341-0.965-0.563-1.729
			c-0.098-0.348-0.167-0.576-0.209-0.688c-0.999,0.971-2.068,1.701-3.207,2.186c-1.139,0.486-2.354,0.73-3.645,0.73
			c-2.277,0-4.072-0.619-5.384-1.854c-1.313-1.236-1.968-2.799-1.968-4.688c0-1.25,0.298-2.363,0.895-3.342
			c0.598-0.979,1.434-1.729,2.51-2.25c1.076-0.52,2.628-0.975,4.655-1.363c2.735-0.514,4.63-0.994,5.687-1.438v-0.584
			c0-1.125-0.279-1.926-0.834-2.404c-0.555-0.48-1.604-0.719-3.145-0.719c-1.041,0-1.854,0.205-2.438,0.613
			C213.263,1792.028,212.79,1792.747,212.429,1793.774z M220.261,1798.522c-0.75,0.25-1.938,0.549-3.563,0.896
			c-1.624,0.348-2.687,0.688-3.186,1.02c-0.765,0.543-1.146,1.23-1.146,2.063c0,0.82,0.306,1.527,0.916,2.125
			c0.611,0.596,1.389,0.895,2.334,0.895c1.055,0,2.061-0.346,3.02-1.041c0.708-0.527,1.173-1.174,1.395-1.938
			c0.153-0.5,0.23-1.449,0.23-2.854V1798.522z"/>
		<path d="M237.38,1809.146h-5.853v-22.119h5.437v3.145c0.93-1.484,1.766-2.465,2.51-2.936c0.742-0.473,1.586-0.709,2.529-0.709
			c1.334,0,2.617,0.369,3.854,1.104l-1.812,5.104c-0.986-0.639-1.903-0.959-2.749-0.959c-0.82,0-1.514,0.227-2.083,0.678
			s-1.018,1.268-1.343,2.447c-0.327,1.18-0.49,3.652-0.49,7.414V1809.146z"/>
		<path d="M247.939,1787.026h5.395v3.02c1.93-2.346,4.228-3.52,6.894-3.52c1.416,0,2.646,0.291,3.687,0.875
			c1.042,0.584,1.896,1.465,2.562,2.645c0.973-1.18,2.021-2.061,3.146-2.645c1.124-0.584,2.325-0.875,3.603-0.875
			c1.625,0,3,0.33,4.124,0.99c1.125,0.658,1.965,1.627,2.521,2.904c0.402,0.945,0.604,2.473,0.604,4.582v14.143h-5.852v-12.643
			c0-2.193-0.202-3.609-0.604-4.248c-0.542-0.834-1.375-1.25-2.499-1.25c-0.82,0-1.59,0.25-2.313,0.75
			c-0.722,0.5-1.242,1.232-1.563,2.197c-0.318,0.965-0.479,2.488-0.479,4.57v10.623h-5.852v-12.121c0-2.152-0.105-3.541-0.313-4.166
			c-0.209-0.625-0.531-1.09-0.969-1.396c-0.438-0.305-1.031-0.457-1.781-0.457c-0.902,0-1.715,0.242-2.437,0.729
			s-1.239,1.188-1.552,2.104s-0.469,2.438-0.469,4.561v10.748h-5.853V1787.026z"/>
		<path d="M318.439,1809.146h-5.436v-3.25c-0.903,1.264-1.968,2.205-3.197,2.822c-1.229,0.617-2.468,0.928-3.718,0.928
			c-2.541,0-4.717-1.025-6.529-3.072c-1.813-2.049-2.718-4.904-2.718-8.57c0-3.75,0.882-6.6,2.646-8.551
			c1.763-1.949,3.991-2.926,6.686-2.926c2.471,0,4.609,1.027,6.414,3.082v-10.996h5.853V1809.146z M302.819,1797.606
			c0,2.361,0.326,4.068,0.979,5.123c0.944,1.527,2.264,2.291,3.957,2.291c1.348,0,2.492-0.572,3.438-1.717
			c0.943-1.146,1.416-2.857,1.416-5.135c0-2.541-0.459-4.369-1.375-5.488c-0.916-1.117-2.09-1.676-3.52-1.676
			c-1.389,0-2.552,0.551-3.488,1.656C303.288,1793.765,302.819,1795.413,302.819,1797.606z"/>
		<path d="M337.019,1802.104l5.831,0.98c-0.75,2.137-1.934,3.766-3.552,4.883c-1.617,1.119-3.641,1.678-6.07,1.678
			c-3.847,0-6.693-1.258-8.539-3.77c-1.459-2.014-2.188-4.555-2.188-7.623c0-3.666,0.959-6.537,2.875-8.613
			c1.916-2.074,4.338-3.113,7.268-3.113c3.291,0,5.888,1.086,7.79,3.26c1.901,2.174,2.812,5.502,2.729,9.986h-14.663
			c0.042,1.736,0.514,3.086,1.416,4.051c0.903,0.965,2.027,1.447,3.375,1.447c0.916,0,1.687-0.25,2.312-0.75
			C336.227,1804.022,336.698,1803.216,337.019,1802.104z M337.351,1796.19c-0.041-1.693-0.479-2.982-1.312-3.863
			s-1.847-1.322-3.041-1.322c-1.277,0-2.333,0.465-3.165,1.395c-0.834,0.932-1.243,2.195-1.229,3.791H337.351z"/>
		<path d="M345.869,1802.835l5.874-0.896c0.25,1.139,0.756,2.004,1.52,2.594s1.833,0.885,3.207,0.885
			c1.514,0,2.652-0.277,3.416-0.834c0.514-0.389,0.771-0.908,0.771-1.561c0-0.445-0.14-0.813-0.417-1.105
			c-0.292-0.277-0.944-0.533-1.958-0.77c-4.721-1.041-7.713-1.992-8.977-2.854c-1.75-1.193-2.624-2.854-2.624-4.979
			c0-1.916,0.757-3.525,2.271-4.832c1.513-1.305,3.859-1.957,7.039-1.957c3.027,0,5.276,0.494,6.748,1.479
			c1.472,0.986,2.485,2.445,3.041,4.375l-5.52,1.02c-0.236-0.861-0.684-1.52-1.344-1.979c-0.659-0.459-1.6-0.688-2.821-0.688
			c-1.542,0-2.646,0.215-3.312,0.646c-0.445,0.305-0.666,0.701-0.666,1.188c0,0.416,0.193,0.77,0.582,1.061
			c0.527,0.389,2.351,0.938,5.468,1.646c3.116,0.707,5.294,1.576,6.529,2.604c1.222,1.041,1.833,2.492,1.833,4.352
			c0,2.027-0.848,3.771-2.541,5.229c-1.694,1.457-4.201,2.188-7.52,2.188c-3.012,0-5.396-0.611-7.153-1.834
			C347.56,1806.591,346.411,1804.931,345.869,1802.835z"/>
		<path d="M384.462,1802.104l5.832,0.98c-0.75,2.137-1.934,3.766-3.551,4.883c-1.618,1.119-3.643,1.678-6.072,1.678
			c-3.846,0-6.691-1.258-8.539-3.77c-1.457-2.014-2.186-4.555-2.186-7.623c0-3.666,0.957-6.537,2.873-8.613
			c1.916-2.074,4.34-3.113,7.27-3.113c3.291,0,5.887,1.086,7.789,3.26s2.812,5.502,2.729,9.986h-14.662
			c0.041,1.736,0.514,3.086,1.416,4.051s2.027,1.447,3.373,1.447c0.917,0,1.688-0.25,2.313-0.75
			C383.671,1804.022,384.143,1803.216,384.462,1802.104z M384.796,1796.19c-0.042-1.693-0.479-2.982-1.313-3.863
			s-1.847-1.322-3.041-1.322c-1.277,0-2.332,0.465-3.166,1.395c-0.832,0.932-1.242,2.195-1.229,3.791H384.796z"/>
		<path d="M400.979,1809.146h-5.853v-22.119h5.436v3.145c0.931-1.484,1.768-2.465,2.51-2.936c0.743-0.473,1.586-0.709,2.531-0.709
			c1.332,0,2.617,0.369,3.853,1.104l-1.812,5.104c-0.986-0.639-1.902-0.959-2.75-0.959c-0.818,0-1.514,0.227-2.082,0.678
			c-0.57,0.451-1.018,1.268-1.344,2.447s-0.489,3.652-0.489,7.414V1809.146z"/>
		<path d="M422.118,1787.026v4.666h-3.999v8.914c0,1.805,0.038,2.855,0.114,3.154s0.25,0.545,0.521,0.74
			c0.271,0.193,0.6,0.291,0.988,0.291c0.542,0,1.326-0.188,2.354-0.563l0.5,4.541c-1.36,0.582-2.902,0.875-4.623,0.875
			c-1.056,0-2.007-0.178-2.854-0.531c-0.848-0.355-1.469-0.813-1.864-1.375s-0.67-1.322-0.822-2.281
			c-0.125-0.68-0.188-2.055-0.188-4.123v-9.643h-2.687v-4.666h2.687v-4.395l5.873-3.416v7.811H422.118z"/>
		<path d="M457.316,1793.565l-5.769,1.043c-0.195-1.152-0.636-2.021-1.323-2.604c-0.687-0.584-1.579-0.875-2.677-0.875
			c-1.457,0-2.621,0.504-3.488,1.51s-1.301,2.689-1.301,5.051c0,2.623,0.439,4.477,1.322,5.561c0.881,1.082,2.064,1.625,3.551,1.625
			c1.11,0,2.02-0.316,2.729-0.947c0.708-0.633,1.207-1.719,1.5-3.26l5.748,0.979c-0.598,2.639-1.743,4.631-3.438,5.977
			c-1.693,1.348-3.964,2.021-6.811,2.021c-3.234,0-5.814-1.021-7.736-3.063c-1.924-2.041-2.885-4.865-2.885-8.477
			c0-3.652,0.965-6.494,2.895-8.529c1.93-2.033,4.541-3.051,7.832-3.051c2.693,0,4.834,0.58,6.424,1.74
			C455.479,1789.425,456.622,1791.192,457.316,1793.565z"/>
		<path d="M461.753,1809.146v-30.533h5.852v30.533H461.753z"/>
		<path d="M473.603,1784.026v-5.414h5.854v5.414H473.603z M473.603,1809.146v-22.119h5.854v22.119H473.603z"/>
		<path d="M485.017,1787.026h5.395v3.02c1.93-2.346,4.228-3.52,6.893-3.52c1.417,0,2.646,0.291,3.688,0.875s1.895,1.465,2.562,2.645
			c0.972-1.18,2.021-2.061,3.146-2.645c1.124-0.584,2.324-0.875,3.603-0.875c1.624,0,2.999,0.33,4.124,0.99
			c1.125,0.658,1.965,1.627,2.52,2.904c0.402,0.945,0.604,2.473,0.604,4.582v14.143h-5.852v-12.643c0-2.193-0.201-3.609-0.604-4.248
			c-0.542-0.834-1.375-1.25-2.5-1.25c-0.819,0-1.59,0.25-2.313,0.75c-0.721,0.5-1.242,1.232-1.562,2.197s-0.479,2.488-0.479,4.57
			v10.623h-5.852v-12.121c0-2.152-0.104-3.541-0.313-4.166c-0.209-0.625-0.531-1.09-0.969-1.396
			c-0.438-0.305-1.031-0.457-1.781-0.457c-0.902,0-1.715,0.242-2.436,0.729c-0.723,0.486-1.24,1.188-1.553,2.104
			s-0.469,2.438-0.469,4.561v10.748h-5.852V1787.026z"/>
		<path d="M527.755,1793.774l-5.312-0.957c0.597-2.139,1.624-3.723,3.083-4.75c1.457-1.027,3.623-1.541,6.498-1.541
			c2.609,0,4.553,0.309,5.831,0.928c1.277,0.617,2.177,1.402,2.697,2.354s0.78,2.697,0.78,5.238l-0.063,6.83
			c0,1.945,0.094,3.377,0.281,4.301s0.539,1.914,1.053,2.969h-5.791c-0.152-0.389-0.34-0.965-0.562-1.729
			c-0.098-0.348-0.167-0.576-0.208-0.688c-1,0.971-2.069,1.701-3.208,2.186c-1.139,0.486-2.354,0.73-3.645,0.73
			c-2.277,0-4.071-0.619-5.384-1.854c-1.313-1.236-1.969-2.799-1.969-4.688c0-1.25,0.299-2.363,0.896-3.342
			c0.596-0.979,1.434-1.729,2.51-2.25c1.075-0.52,2.627-0.975,4.654-1.363c2.735-0.514,4.631-0.994,5.686-1.438v-0.584
			c0-1.125-0.277-1.926-0.833-2.404c-0.556-0.48-1.604-0.719-3.145-0.719c-1.042,0-1.854,0.205-2.437,0.613
			C528.587,1792.028,528.115,1792.747,527.755,1793.774z M535.585,1798.522c-0.75,0.25-1.937,0.549-3.561,0.896
			c-1.625,0.348-2.688,0.688-3.188,1.02c-0.764,0.543-1.145,1.23-1.145,2.063c0,0.82,0.305,1.527,0.916,2.125
			c0.61,0.596,1.389,0.895,2.332,0.895c1.055,0,2.063-0.346,3.021-1.041c0.708-0.527,1.173-1.174,1.396-1.938
			c0.152-0.5,0.229-1.449,0.229-2.854V1798.522z"/>
		<path d="M557.245,1787.026v4.666h-3.998v8.914c0,1.805,0.037,2.855,0.114,3.154c0.076,0.299,0.25,0.545,0.521,0.74
			c0.271,0.193,0.601,0.291,0.989,0.291c0.542,0,1.325-0.188,2.354-0.563l0.5,4.541c-1.36,0.582-2.902,0.875-4.624,0.875
			c-1.055,0-2.006-0.178-2.854-0.531c-0.847-0.355-1.468-0.813-1.863-1.375c-0.396-0.563-0.67-1.322-0.822-2.281
			c-0.125-0.68-0.188-2.055-0.188-4.123v-9.643h-2.688v-4.666h2.688v-4.395l5.873-3.416v7.811H557.245z"/>
		<path d="M574.116,1802.104l5.831,0.98c-0.75,2.137-1.934,3.766-3.552,4.883c-1.617,1.119-3.641,1.678-6.07,1.678
			c-3.847,0-6.693-1.258-8.539-3.77c-1.459-2.014-2.188-4.555-2.188-7.623c0-3.666,0.959-6.537,2.875-8.613
			c1.916-2.074,4.338-3.113,7.268-3.113c3.291,0,5.888,1.086,7.79,3.26c1.901,2.174,2.812,5.502,2.729,9.986h-14.663
			c0.042,1.736,0.514,3.086,1.416,4.051c0.903,0.965,2.027,1.447,3.375,1.447c0.916,0,1.687-0.25,2.312-0.75
			C573.324,1804.022,573.796,1803.216,574.116,1802.104z M574.448,1796.19c-0.041-1.693-0.479-2.982-1.312-3.863
			s-1.847-1.322-3.041-1.322c-1.277,0-2.333,0.465-3.165,1.395c-0.834,0.932-1.243,2.195-1.229,3.791H574.448z"/>
		<path d="M606.585,1818.122h-4.02c-2.124-3.207-3.742-6.541-4.853-9.998s-1.666-6.803-1.666-10.039
			c0-4.012,0.688-7.809,2.062-11.393c1.194-3.109,2.708-5.977,4.541-8.602h3.998c-1.902,4.207-3.211,7.787-3.926,10.736
			c-0.715,2.951-1.072,6.08-1.072,9.383c0,2.277,0.211,4.611,0.635,6.998c0.424,2.389,1.004,4.658,1.74,6.811
			C604.51,1813.435,605.363,1815.47,606.585,1818.122z"/>
		<path d="M611.146,1778.612h12.205c2.415,0,4.218,0.102,5.404,0.303c1.188,0.201,2.249,0.621,3.187,1.26s1.719,1.488,2.344,2.551
			s0.938,2.254,0.938,3.572c0,1.43-0.387,2.742-1.156,3.936c-0.771,1.195-1.816,2.09-3.135,2.688c1.86,0.541,3.291,1.465,4.291,2.77
			c0.999,1.305,1.499,2.84,1.499,4.604c0,1.389-0.323,2.738-0.969,4.051s-1.527,2.359-2.646,3.145
			c-1.117,0.785-2.496,1.268-4.134,1.447c-1.027,0.111-3.506,0.182-7.435,0.209h-10.394V1778.612z M617.312,1783.694v7.061h4.041
			c2.401,0,3.895-0.035,4.477-0.105c1.056-0.123,1.886-0.488,2.49-1.092c0.604-0.605,0.905-1.398,0.905-2.385
			c0-0.945-0.261-1.711-0.78-2.303c-0.521-0.59-1.295-0.947-2.322-1.072c-0.611-0.068-2.368-0.104-5.27-0.104H617.312z
			 M617.312,1795.837v8.164h5.707c2.221,0,3.631-0.063,4.228-0.188c0.917-0.166,1.663-0.572,2.239-1.219s0.863-1.51,0.863-2.594
			c0-0.916-0.222-1.693-0.666-2.332s-1.086-1.104-1.926-1.395c-0.841-0.293-2.663-0.438-5.468-0.438H617.312z"/>
		<path d="M646.262,1809.146l-7.29-30.533h6.311l4.604,20.973l5.582-20.973h7.33l5.354,21.326l4.686-21.326h6.207l-7.414,30.533
			h-6.541l-6.081-22.828l-6.061,22.828H646.262z"/>
		<path d="M687.978,1778.612v11.227c1.889-2.209,4.146-3.313,6.77-3.313c1.347,0,2.563,0.25,3.645,0.75
			c1.084,0.5,1.898,1.139,2.447,1.916s0.924,1.639,1.125,2.582c0.201,0.945,0.302,2.41,0.302,4.395v12.977h-5.853v-11.686
			c0-2.318-0.111-3.789-0.333-4.414s-0.614-1.121-1.177-1.49c-0.563-0.367-1.268-0.551-2.113-0.551
			c-0.973,0-1.841,0.236-2.604,0.707c-0.764,0.473-1.323,1.184-1.678,2.135c-0.354,0.951-0.531,2.357-0.531,4.219v11.08h-5.852
			v-30.533H687.978z"/>
		<path d="M706.577,1818.122c1.152-2.473,1.965-4.367,2.438-5.686c0.471-1.32,0.908-2.84,1.312-4.563
			c0.402-1.721,0.701-3.355,0.896-4.904s0.291-3.135,0.291-4.76c0-3.303-0.354-6.432-1.062-9.383
			c-0.708-2.949-2.014-6.529-3.915-10.736h3.978c2.097,2.986,3.725,6.152,4.884,9.498s1.739,6.74,1.739,10.184
			c0,2.902-0.458,6.014-1.374,9.332c-1.042,3.721-2.757,7.393-5.145,11.018H706.577z"/>
	</g>
</g>
<g>
	
		<rect id="rect12069_64_" x="-1011.476" y="623.594" fill="#FE9594" stroke="#000000" stroke-width="0.5" stroke-miterlimit="10" width="45.799" height="41.047"/>
	<text id="text732" transform="matrix(1 0 0 1 -960.0215 658.918)" font-family="'Arial-BoldMT'" font-size="42.6543">Cold desert climate (BWk)</text>
</g>
<g>
	
		<rect id="rect12069_63_" x="-1011.476" y="692.25" fill="#F6A200" stroke="#000000" stroke-width="0.5" stroke-miterlimit="10" width="45.799" height="41.048"/>
	<text id="text735" transform="matrix(1 0 0 1 -960.0215 727.5781)" font-family="'Arial-BoldMT'" font-size="42.6543">Warm semi-arid climate (BSh)</text>
</g>
<g>
	
		<rect id="rect12069_1_" x="1087.505" y="1773.787" fill="#F6A200" stroke="#000000" stroke-width="0.5" stroke-miterlimit="10" width="45.799" height="41.049"/>
	<g enable-background="new    ">
		<path d="M1146.395,1809.115l-7.29-30.533h6.311l4.604,20.974l5.582-20.974h7.33l5.354,21.327l4.686-21.327h6.207l-7.414,30.533
			h-6.541l-6.081-22.827l-6.061,22.827H1146.395z"/>
		<path d="M1185.071,1793.745l-5.312-0.958c0.597-2.139,1.624-3.722,3.083-4.749c1.457-1.027,3.623-1.541,6.498-1.541
			c2.609,0,4.553,0.309,5.831,0.927c1.277,0.618,2.177,1.402,2.697,2.354s0.78,2.697,0.78,5.238l-0.063,6.831
			c0,1.944,0.094,3.377,0.281,4.301s0.539,1.913,1.053,2.968h-5.791c-0.152-0.389-0.34-0.965-0.562-1.729
			c-0.098-0.347-0.167-0.576-0.208-0.688c-1,0.972-2.069,1.701-3.208,2.187c-1.139,0.486-2.354,0.729-3.645,0.729
			c-2.277,0-4.071-0.618-5.384-1.854c-1.313-1.236-1.969-2.798-1.969-4.687c0-1.25,0.299-2.364,0.896-3.343
			c0.596-0.979,1.434-1.729,2.51-2.249c1.075-0.521,2.627-0.976,4.654-1.364c2.735-0.514,4.631-0.993,5.686-1.438v-0.583
			c0-1.125-0.277-1.927-0.833-2.405c-0.556-0.479-1.604-0.719-3.145-0.719c-1.042,0-1.854,0.205-2.437,0.614
			C1185.903,1791.999,1185.432,1792.718,1185.071,1793.745z M1192.901,1798.493c-0.75,0.25-1.937,0.549-3.561,0.896
			c-1.625,0.348-2.688,0.688-3.188,1.021c-0.764,0.542-1.145,1.229-1.145,2.063c0,0.819,0.305,1.527,0.916,2.124
			c0.61,0.597,1.389,0.896,2.332,0.896c1.055,0,2.063-0.347,3.021-1.041c0.708-0.527,1.173-1.174,1.396-1.938
			c0.152-0.5,0.229-1.45,0.229-2.854V1798.493z"/>
		<path d="M1210.021,1809.115h-5.853v-22.118h5.436v3.145c0.931-1.485,1.768-2.465,2.51-2.937c0.743-0.472,1.586-0.708,2.531-0.708
			c1.332,0,2.617,0.368,3.853,1.104l-1.812,5.103c-0.986-0.639-1.902-0.958-2.75-0.958c-0.818,0-1.514,0.226-2.082,0.677
			c-0.57,0.451-1.018,1.268-1.344,2.447c-0.326,1.181-0.489,3.652-0.489,7.415V1809.115z"/>
		<path d="M1220.581,1786.997h5.395v3.02c1.93-2.347,4.229-3.52,6.894-3.52c1.417,0,2.646,0.291,3.687,0.874
			c1.041,0.584,1.896,1.466,2.563,2.646c0.971-1.18,2.02-2.062,3.145-2.646c1.125-0.583,2.325-0.874,3.604-0.874
			c1.624,0,2.998,0.33,4.123,0.989s1.965,1.628,2.52,2.905c0.403,0.944,0.604,2.472,0.604,4.582v14.142h-5.853v-12.643
			c0-2.193-0.201-3.609-0.604-4.248c-0.541-0.833-1.375-1.25-2.5-1.25c-0.818,0-1.59,0.25-2.312,0.75s-1.243,1.232-1.562,2.197
			c-0.32,0.965-0.479,2.488-0.479,4.571v10.622h-5.853v-12.121c0-2.152-0.104-3.541-0.313-4.166
			c-0.208-0.625-0.531-1.09-0.969-1.396c-0.437-0.305-1.03-0.458-1.78-0.458c-0.902,0-1.715,0.243-2.437,0.729
			c-0.723,0.485-1.239,1.187-1.552,2.104c-0.313,0.916-0.469,2.437-0.469,4.561v10.747h-5.853V1786.997z"/>
		<path d="M1268.733,1802.805l5.873-0.896c0.25,1.139,0.757,2.003,1.521,2.593c0.763,0.591,1.832,0.885,3.207,0.885
			c1.514,0,2.652-0.277,3.416-0.833c0.513-0.389,0.77-0.909,0.77-1.562c0-0.444-0.139-0.813-0.416-1.104
			c-0.291-0.277-0.944-0.534-1.958-0.771c-4.721-1.041-7.713-1.992-8.977-2.853c-1.749-1.194-2.624-2.854-2.624-4.979
			c0-1.916,0.756-3.526,2.27-4.832c1.514-1.305,3.86-1.957,7.04-1.957c3.026,0,5.276,0.493,6.748,1.479
			c1.472,0.986,2.485,2.444,3.041,4.374l-5.519,1.021c-0.236-0.861-0.685-1.521-1.344-1.979c-0.66-0.459-1.601-0.688-2.822-0.688
			c-1.541,0-2.645,0.215-3.312,0.646c-0.444,0.306-0.667,0.701-0.667,1.188c0,0.416,0.195,0.771,0.584,1.062
			c0.527,0.389,2.35,0.938,5.467,1.646s5.293,1.576,6.529,2.604c1.222,1.041,1.832,2.492,1.832,4.353
			c0,2.027-0.846,3.771-2.54,5.229c-1.694,1.457-4.2,2.187-7.519,2.187c-3.014,0-5.398-0.611-7.154-1.833
			C1270.424,1806.561,1269.274,1804.901,1268.733,1802.805z"/>
		<path d="M1307.327,1802.075l5.832,0.979c-0.75,2.138-1.934,3.767-3.552,4.884c-1.618,1.118-3.642,1.677-6.071,1.677
			c-3.846,0-6.692-1.257-8.539-3.77c-1.458-2.014-2.187-4.555-2.187-7.623c0-3.666,0.958-6.536,2.874-8.612
			c1.916-2.075,4.339-3.113,7.269-3.113c3.291,0,5.888,1.086,7.79,3.259c1.901,2.174,2.811,5.502,2.729,9.987h-14.663
			c0.042,1.735,0.514,3.086,1.416,4.051c0.903,0.965,2.027,1.447,3.374,1.447c0.916,0,1.688-0.25,2.313-0.75
			C1306.536,1803.992,1307.007,1803.187,1307.327,1802.075z M1307.66,1796.161c-0.042-1.694-0.479-2.982-1.312-3.864
			c-0.834-0.881-1.848-1.322-3.041-1.322c-1.277,0-2.333,0.466-3.166,1.396c-0.833,0.931-1.242,2.194-1.229,3.791H1307.66z"/>
		<path d="M1317.803,1786.997h5.395v3.02c1.93-2.347,4.228-3.52,6.894-3.52c1.416,0,2.646,0.291,3.687,0.874
			c1.042,0.584,1.896,1.466,2.562,2.646c0.973-1.18,2.021-2.062,3.146-2.646c1.124-0.583,2.325-0.874,3.603-0.874
			c1.625,0,3,0.33,4.124,0.989c1.125,0.659,1.965,1.628,2.521,2.905c0.402,0.944,0.604,2.472,0.604,4.582v14.142h-5.852v-12.643
			c0-2.193-0.202-3.609-0.604-4.248c-0.542-0.833-1.375-1.25-2.499-1.25c-0.82,0-1.59,0.25-2.313,0.75
			c-0.722,0.5-1.242,1.232-1.563,2.197c-0.318,0.965-0.479,2.488-0.479,4.571v10.622h-5.852v-12.121
			c0-2.152-0.105-3.541-0.313-4.166c-0.209-0.625-0.531-1.09-0.969-1.396c-0.438-0.305-1.031-0.458-1.781-0.458
			c-0.902,0-1.715,0.243-2.437,0.729c-0.722,0.485-1.239,1.187-1.552,2.104c-0.313,0.916-0.469,2.437-0.469,4.561v10.747h-5.853
			V1786.997z"/>
		<path d="M1356.167,1783.997v-5.415h5.852v5.415H1356.167z M1356.167,1809.115v-22.118h5.852v22.118H1356.167z"/>
		<path d="M1367.351,1800.972v-5.853h11.497v5.853H1367.351z"/>
		<path d="M1386.596,1793.745l-5.312-0.958c0.598-2.139,1.625-3.722,3.083-4.749s3.624-1.541,6.498-1.541
			c2.61,0,4.554,0.309,5.831,0.927s2.177,1.402,2.697,2.354c0.521,0.951,0.781,2.697,0.781,5.238l-0.063,6.831
			c0,1.944,0.094,3.377,0.281,4.301s0.538,1.913,1.052,2.968h-5.79c-0.152-0.389-0.34-0.965-0.563-1.729
			c-0.098-0.347-0.166-0.576-0.208-0.688c-0.999,0.972-2.069,1.701-3.208,2.187c-1.139,0.486-2.354,0.729-3.645,0.729
			c-2.277,0-4.071-0.618-5.383-1.854c-1.313-1.236-1.969-2.798-1.969-4.687c0-1.25,0.299-2.364,0.896-3.343s1.434-1.729,2.51-2.249
			c1.075-0.521,2.628-0.976,4.655-1.364c2.734-0.514,4.63-0.993,5.686-1.438v-0.583c0-1.125-0.278-1.927-0.834-2.405
			c-0.555-0.479-1.604-0.719-3.145-0.719c-1.041,0-1.854,0.205-2.437,0.614C1387.429,1791.999,1386.956,1792.718,1386.596,1793.745z
			 M1394.427,1798.493c-0.75,0.25-1.938,0.549-3.562,0.896c-1.624,0.348-2.687,0.688-3.187,1.021
			c-0.764,0.542-1.146,1.229-1.146,2.063c0,0.819,0.306,1.527,0.916,2.124s1.389,0.896,2.333,0.896c1.055,0,2.062-0.347,3.02-1.041
			c0.709-0.527,1.174-1.174,1.396-1.938c0.153-0.5,0.229-1.45,0.229-2.854V1798.493z"/>
		<path d="M1411.546,1809.115h-5.852v-22.118h5.436v3.145c0.93-1.485,1.767-2.465,2.51-2.937c0.742-0.472,1.586-0.708,2.53-0.708
			c1.333,0,2.617,0.368,3.853,1.104l-1.811,5.103c-0.986-0.639-1.903-0.958-2.75-0.958c-0.819,0-1.514,0.226-2.082,0.677
			c-0.57,0.451-1.018,1.268-1.344,2.447c-0.326,1.181-0.49,3.652-0.49,7.415V1809.115z"/>
		<path d="M1422.543,1783.997v-5.415h5.853v5.415H1422.543z M1422.543,1809.115v-22.118h5.853v22.118H1422.543z"/>
		<path d="M1454.68,1809.115h-5.436v-3.249c-0.903,1.264-1.968,2.204-3.197,2.822c-1.229,0.617-2.468,0.927-3.718,0.927
			c-2.541,0-4.717-1.024-6.529-3.072s-2.718-4.904-2.718-8.57c0-3.749,0.882-6.599,2.646-8.55c1.763-1.95,3.991-2.926,6.686-2.926
			c2.471,0,4.609,1.027,6.414,3.082v-10.997h5.853V1809.115z M1439.06,1797.577c0,2.36,0.326,4.068,0.979,5.123
			c0.944,1.527,2.264,2.291,3.957,2.291c1.348,0,2.492-0.572,3.438-1.718c0.943-1.146,1.416-2.856,1.416-5.134
			c0-2.541-0.459-4.37-1.375-5.488c-0.916-1.117-2.09-1.677-3.52-1.677c-1.389,0-2.552,0.552-3.488,1.656
			C1439.528,1793.734,1439.06,1795.383,1439.06,1797.577z"/>
		<path d="M1491.586,1793.536l-5.769,1.042c-0.195-1.152-0.636-2.021-1.323-2.604c-0.687-0.583-1.579-0.875-2.677-0.875
			c-1.457,0-2.621,0.504-3.488,1.51c-0.867,1.007-1.301,2.69-1.301,5.051c0,2.624,0.439,4.478,1.322,5.561
			c0.881,1.083,2.064,1.625,3.551,1.625c1.11,0,2.02-0.315,2.729-0.947c0.708-0.632,1.207-1.719,1.5-3.26l5.748,0.979
			c-0.598,2.639-1.743,4.631-3.438,5.978c-1.693,1.347-3.964,2.021-6.811,2.021c-3.234,0-5.814-1.021-7.736-3.062
			c-1.924-2.041-2.885-4.866-2.885-8.477c0-3.652,0.965-6.495,2.895-8.529s4.541-3.051,7.832-3.051c2.693,0,4.834,0.58,6.424,1.739
			S1490.892,1791.162,1491.586,1793.536z"/>
		<path d="M1496.022,1809.115v-30.533h5.852v30.533H1496.022z"/>
		<path d="M1507.872,1783.997v-5.415h5.854v5.415H1507.872z M1507.872,1809.115v-22.118h5.854v22.118H1507.872z"/>
		<path d="M1519.286,1786.997h5.395v3.02c1.93-2.347,4.228-3.52,6.893-3.52c1.417,0,2.646,0.291,3.688,0.874
			c1.041,0.584,1.895,1.466,2.562,2.646c0.972-1.18,2.021-2.062,3.146-2.646c1.124-0.583,2.324-0.874,3.603-0.874
			c1.624,0,2.999,0.33,4.124,0.989s1.965,1.628,2.52,2.905c0.402,0.944,0.604,2.472,0.604,4.582v14.142h-5.852v-12.643
			c0-2.193-0.201-3.609-0.604-4.248c-0.542-0.833-1.375-1.25-2.5-1.25c-0.819,0-1.59,0.25-2.313,0.75
			c-0.721,0.5-1.242,1.232-1.562,2.197s-0.479,2.488-0.479,4.571v10.622h-5.852v-12.121c0-2.152-0.104-3.541-0.313-4.166
			c-0.209-0.625-0.531-1.09-0.969-1.396c-0.438-0.305-1.031-0.458-1.781-0.458c-0.902,0-1.715,0.243-2.436,0.729
			c-0.723,0.485-1.24,1.187-1.553,2.104c-0.313,0.916-0.469,2.437-0.469,4.561v10.747h-5.852V1786.997z"/>
		<path d="M1562.024,1793.745l-5.312-0.958c0.597-2.139,1.624-3.722,3.083-4.749c1.457-1.027,3.623-1.541,6.498-1.541
			c2.609,0,4.553,0.309,5.831,0.927c1.277,0.618,2.177,1.402,2.697,2.354s0.78,2.697,0.78,5.238l-0.063,6.831
			c0,1.944,0.094,3.377,0.281,4.301s0.539,1.913,1.053,2.968h-5.791c-0.152-0.389-0.34-0.965-0.562-1.729
			c-0.098-0.347-0.167-0.576-0.208-0.688c-1,0.972-2.069,1.701-3.208,2.187c-1.139,0.486-2.354,0.729-3.645,0.729
			c-2.277,0-4.071-0.618-5.384-1.854c-1.313-1.236-1.969-2.798-1.969-4.687c0-1.25,0.299-2.364,0.896-3.343
			c0.596-0.979,1.434-1.729,2.51-2.249c1.075-0.521,2.627-0.976,4.654-1.364c2.735-0.514,4.631-0.993,5.686-1.438v-0.583
			c0-1.125-0.277-1.927-0.833-2.405c-0.556-0.479-1.604-0.719-3.145-0.719c-1.042,0-1.854,0.205-2.437,0.614
			C1562.856,1791.999,1562.385,1792.718,1562.024,1793.745z M1569.854,1798.493c-0.75,0.25-1.937,0.549-3.561,0.896
			c-1.625,0.348-2.688,0.688-3.188,1.021c-0.764,0.542-1.145,1.229-1.145,2.063c0,0.819,0.305,1.527,0.916,2.124
			c0.61,0.597,1.389,0.896,2.332,0.896c1.055,0,2.063-0.347,3.021-1.041c0.708-0.527,1.173-1.174,1.396-1.938
			c0.152-0.5,0.229-1.45,0.229-2.854V1798.493z"/>
		<path d="M1591.515,1786.997v4.665h-3.998v8.914c0,1.805,0.037,2.856,0.114,3.155c0.076,0.299,0.25,0.545,0.521,0.739
			c0.271,0.194,0.601,0.292,0.989,0.292c0.542,0,1.325-0.188,2.354-0.563l0.5,4.54c-1.36,0.583-2.902,0.875-4.624,0.875
			c-1.055,0-2.006-0.177-2.854-0.531c-0.847-0.354-1.468-0.813-1.863-1.375c-0.396-0.562-0.67-1.322-0.822-2.28
			c-0.125-0.68-0.188-2.055-0.188-4.124v-9.643h-2.688v-4.665h2.688v-4.395l5.873-3.416v7.811H1591.515z"/>
		<path d="M1608.386,1802.075l5.831,0.979c-0.75,2.138-1.934,3.767-3.552,4.884c-1.617,1.118-3.641,1.677-6.07,1.677
			c-3.847,0-6.693-1.257-8.539-3.77c-1.459-2.014-2.188-4.555-2.188-7.623c0-3.666,0.959-6.536,2.875-8.612
			c1.916-2.075,4.338-3.113,7.268-3.113c3.291,0,5.888,1.086,7.79,3.259c1.901,2.174,2.812,5.502,2.729,9.987h-14.663
			c0.042,1.735,0.514,3.086,1.416,4.051c0.903,0.965,2.027,1.447,3.375,1.447c0.916,0,1.687-0.25,2.312-0.75
			C1607.594,1803.992,1608.065,1803.187,1608.386,1802.075z M1608.718,1796.161c-0.041-1.694-0.479-2.982-1.312-3.864
			c-0.833-0.881-1.847-1.322-3.041-1.322c-1.277,0-2.333,0.466-3.165,1.396c-0.834,0.931-1.243,2.194-1.229,3.791H1608.718z"/>
		<path d="M1640.854,1818.092h-4.02c-2.124-3.207-3.742-6.54-4.853-9.997s-1.666-6.804-1.666-10.039
			c0-4.013,0.688-7.81,2.062-11.393c1.194-3.109,2.708-5.978,4.541-8.602h3.998c-1.902,4.207-3.211,7.786-3.926,10.736
			c-0.715,2.951-1.072,6.079-1.072,9.383c0,2.277,0.211,4.61,0.635,6.998c0.424,2.389,1.004,4.658,1.74,6.811
			C1638.779,1813.405,1639.633,1815.439,1640.854,1818.092z"/>
		<path d="M1645.416,1778.582h12.205c2.415,0,4.218,0.102,5.404,0.303c1.188,0.201,2.249,0.621,3.187,1.26s1.719,1.489,2.344,2.552
			c0.625,1.062,0.938,2.253,0.938,3.571c0,1.431-0.387,2.742-1.156,3.937c-0.771,1.194-1.816,2.09-3.135,2.687
			c1.86,0.542,3.291,1.465,4.291,2.771c0.999,1.305,1.499,2.839,1.499,4.603c0,1.389-0.323,2.738-0.969,4.051
			s-1.527,2.36-2.646,3.145c-1.117,0.785-2.496,1.268-4.134,1.448c-1.027,0.111-3.506,0.181-7.435,0.208h-10.394V1778.582z
			 M1651.581,1783.664v7.061h4.041c2.401,0,3.895-0.034,4.477-0.104c1.056-0.124,1.886-0.489,2.49-1.093
			c0.604-0.604,0.905-1.398,0.905-2.385c0-0.944-0.261-1.711-0.78-2.302c-0.521-0.59-1.295-0.947-2.322-1.072
			c-0.611-0.069-2.368-0.104-5.27-0.104H1651.581z M1651.581,1795.807v8.164h5.707c2.221,0,3.631-0.063,4.228-0.188
			c0.917-0.166,1.663-0.572,2.239-1.218c0.576-0.646,0.863-1.511,0.863-2.594c0-0.916-0.222-1.693-0.666-2.332
			s-1.086-1.104-1.926-1.396c-0.841-0.292-2.663-0.438-5.468-0.438H1651.581z"/>
		<path d="M1674.637,1799.181l5.999-0.583c0.36,2.014,1.093,3.492,2.197,4.436c1.104,0.945,2.592,1.417,4.467,1.417
			c1.985,0,3.481-0.42,4.488-1.261c1.007-0.84,1.51-1.822,1.51-2.946c0-0.722-0.211-1.337-0.635-1.844s-1.163-0.947-2.219-1.322
			c-0.722-0.25-2.367-0.694-4.936-1.333c-3.305-0.819-5.623-1.825-6.957-3.02c-1.873-1.681-2.811-3.729-2.811-6.145
			c0-1.555,0.44-3.01,1.322-4.363c0.881-1.354,2.152-2.385,3.811-3.093c1.66-0.708,3.662-1.063,6.01-1.063
			c3.832,0,6.717,0.841,8.653,2.521s2.954,3.923,3.052,6.727l-6.166,0.271c-0.264-1.569-0.829-2.697-1.697-3.385
			c-0.867-0.688-2.17-1.031-3.904-1.031c-1.791,0-3.194,0.368-4.207,1.104c-0.653,0.472-0.979,1.104-0.979,1.895
			c0,0.723,0.306,1.341,0.917,1.854c0.777,0.652,2.666,1.333,5.664,2.041c3,0.708,5.218,1.44,6.654,2.197
			c1.438,0.757,2.563,1.791,3.375,3.103c0.813,1.313,1.218,2.934,1.218,4.863c0,1.75-0.485,3.389-1.458,4.916
			c-0.972,1.527-2.346,2.662-4.123,3.405c-1.777,0.742-3.992,1.114-6.645,1.114c-3.859,0-6.824-0.893-8.893-2.677
			C1676.274,1805.196,1675.04,1802.597,1674.637,1799.181z"/>
		<path d="M1710.438,1778.582v11.227c1.889-2.208,4.146-3.312,6.77-3.312c1.347,0,2.563,0.25,3.645,0.749
			c1.084,0.5,1.898,1.139,2.447,1.917c0.549,0.777,0.924,1.638,1.125,2.582s0.302,2.409,0.302,4.395v12.976h-5.853v-11.685
			c0-2.318-0.111-3.79-0.333-4.415s-0.614-1.121-1.177-1.489c-0.563-0.367-1.268-0.552-2.113-0.552
			c-0.973,0-1.841,0.236-2.604,0.708c-0.764,0.473-1.323,1.184-1.678,2.135c-0.354,0.951-0.531,2.357-0.531,4.218v11.08h-5.852
			v-30.533H1710.438z"/>
		<path d="M1729.038,1818.092c1.152-2.472,1.965-4.367,2.437-5.686c0.472-1.319,0.909-2.84,1.312-4.562s0.701-3.356,0.896-4.905
			c0.193-1.548,0.291-3.134,0.291-4.759c0-3.304-0.354-6.432-1.063-9.383c-0.707-2.95-2.014-6.529-3.915-10.736h3.978
			c2.097,2.985,3.725,6.151,4.885,9.497c1.158,3.347,1.738,6.741,1.738,10.185c0,2.902-0.458,6.013-1.374,9.331
			c-1.042,3.721-2.757,7.394-5.145,11.018H1729.038z"/>
	</g>
</g>
<g>
	
		<rect id="rect12069_62_" x="-1011.476" y="759.875" fill="#FDDA62" stroke="#000000" stroke-width="0.5" stroke-miterlimit="10" width="45.799" height="41.047"/>
	<text id="text738" transform="matrix(1 0 0 1 -960.0215 795.2012)" font-family="'Arial-BoldMT'" font-size="42.6543">Cold semi-arid climate (BSk)</text>
</g>
<g>
	
		<rect id="rect12069_61_" x="2026.329" y="1562.429" fill="#94FE97" stroke="#000000" stroke-width="0.5" stroke-miterlimit="10" width="45.801" height="41.042"/>
	<text id="text741" transform="matrix(1 0 0 1 2077.7783 1597.75)" font-family="'Arial-BoldMT'" font-size="42.6543">Humid subtropical climate (Cwa)</text>
</g>
<g>
	
		<rect id="rect12069_60_" x="2026.329" y="1630.049" fill="#5FC765" stroke="#000000" stroke-width="0.5" stroke-miterlimit="10" width="45.801" height="41.047"/>
	<text id="text744" transform="matrix(1 0 0 1 2077.7783 1665.373)" enable-background="new    "><tspan x="0" y="0" font-family="'Arial-BoldMT'" font-size="42.6543">Humid subtropical climate/</tspan><tspan x="0" y="51.186" font-family="'Arial-BoldMT'" font-size="42.6543">Subtropical oceanic highland climate (Cwb)</tspan></text>
</g>
<g>
	
		<rect id="rect12069_59_" x="2023.505" y="1775.415" fill="#369633" stroke="#000000" stroke-width="0.5" stroke-miterlimit="10" width="45.801" height="41.05"/>
	<text id="text747" transform="matrix(1 0 0 1 2074.9541 1810.7344)" font-family="'Arial-BoldMT'" font-size="42.6543">Oceanic subpolar climate (Cwc)</text>
</g>
<g>
	
		<rect id="rect12069_55_" x="2019.26" y="849.916" fill="#C5FE4B" stroke="#000000" stroke-width="0.5" stroke-miterlimit="10" width="45.803" height="41.044"/>
	<text id="text750" transform="matrix(1 0 0 1 2070.7168 885.2363)" enable-background="new    "><tspan x="0" y="0" font-family="'Arial-BoldMT'" font-size="42.6543">Warm oceanic climate/</tspan><tspan x="0" y="51.186" font-family="'Arial-BoldMT'" font-size="42.6543">Humid subtropical climate (Cfa)</tspan></text>
</g>
<g>
	
		<rect id="rect12069_54_" x="2016.433" y="1025.387" fill="#63FD32" stroke="#000000" stroke-width="0.5" stroke-miterlimit="10" width="45.803" height="41.051"/>
	<text id="text753" transform="matrix(1 0 0 1 2067.8887 1060.7148)" font-family="'Arial-BoldMT'" font-size="42.6543">Temperate oceanic climate (Cfb)</text>
</g>
<g>
	
		<rect id="rect12069_53_" x="2019.26" y="1201.323" fill="#35C600" stroke="#000000" stroke-width="0.5" stroke-miterlimit="10" width="45.803" height="41.052"/>
	<text id="text756" transform="matrix(1 0 0 1 2070.7168 1236.6484)" font-family="'Arial-BoldMT'" font-size="42.6543">Cool oceanic climate (Cfc)</text>
</g>
<g>
	
		<rect id="rect12069_52_" x="2044.987" y="125.863" fill="#FC00FB" stroke="#000000" stroke-width="0.5" stroke-miterlimit="10" width="45.8" height="41.046"/>
	<text id="text759" transform="matrix(1 0 0 1 2096.4414 161.1904)" enable-background="new    "><tspan x="0" y="0" font-family="'Arial-BoldMT'" font-size="42.6543">Warm continental climate/</tspan><tspan x="0" y="51.186" font-family="'Arial-BoldMT'" font-size="42.6543">Mediterranean continental climate (Dsa)</tspan></text>
</g>
<g>
	
		<rect id="rect12069_51_" x="2047.814" y="244.928" fill="#C900C4" stroke="#000000" stroke-width="0.5" stroke-miterlimit="10" width="45.8" height="41.042"/>
	<text id="text762" transform="matrix(1 0 0 1 2099.2686 280.2476)" enable-background="new    "><tspan x="0" y="0" font-family="'Arial-BoldMT'" font-size="42.6543">Temperate continental climate/</tspan><tspan x="0" y="51.186" font-family="'Arial-BoldMT'" font-size="42.6543">Mediterranean continental climate (Dsb)</tspan></text>
</g>
<g>
	
		<rect id="rect12069_50_" x="2050.642" y="333.529" fill="#983396" stroke="#000000" stroke-width="0.5" stroke-miterlimit="10" width="45.8" height="41.047"/>
	<text id="text765" transform="matrix(1 0 0 1 2102.0957 368.8506)" font-family="'Calibri-Bold'" font-size="42.6543">Cool continental climate (Dsc)</text>
</g>
<g>
	
		<rect id="rect12069_36_" x="2050.642" y="401.151" fill="#8E5D92" stroke="#000000" stroke-width="0.5" stroke-miterlimit="10" width="45.8" height="41.049"/>
	<text id="text768" transform="matrix(1 0 0 1 2102.0957 436.4766)" font-family="'Calibri-Bold'" font-size="42.6543">Cold continental climate (Dsd)</text>
</g>
<g>
	
		<rect id="rect12069_35_" x="1051.246" y="-781.542" fill="#A5AFFF" stroke="#000000" stroke-width="0.5" stroke-miterlimit="10" width="45.801" height="41.047"/>
	<text id="text771" transform="matrix(1 0 0 1 1104.4746 -746.2153)" enable-background="new    "><tspan x="0" y="0" font-family="'Arial-BoldMT'" font-size="42.6543">Warm continental climate/</tspan><tspan x="0" y="51.186" font-family="'Arial-BoldMT'" font-size="42.6543">Humid continental climate (Dwa)</tspan></text>
</g>
<g>
	
		<rect id="rect12069_32_" x="1047.533" y="-557.112" fill="#4A78E3" stroke="#000000" stroke-width="0.5" stroke-miterlimit="10" width="45.801" height="41.051"/>
	<text id="text774" transform="matrix(1 0 0 1 1100.7617 -521.7871)" enable-background="new    "><tspan x="0" y="0" font-family="'Arial-BoldMT'" font-size="42.6543">Temperate continental climate/</tspan><tspan x="0" y="51.186" font-family="'Arial-BoldMT'" font-size="42.6543">Humid continental climate (Dwb) </tspan></text>
</g>
<g>
	
		<rect id="rect12069_31_" x="1047.533" y="-370.032" fill="#484EB4" stroke="#000000" stroke-width="0.5" stroke-miterlimit="10" width="45.801" height="41.041"/>
	<text id="text777" transform="matrix(1 0 0 1 1100.7617 -334.7173)" enable-background="new    "><tspan x="0" y="0" font-family="'Arial-BoldMT'" font-size="42.6543">Cool continental climate/</tspan><tspan x="0" y="51.186" font-family="'Arial-BoldMT'" font-size="42.6543">Subarctic climate (Dwc)</tspan></text>
</g>
<g>
	
		<rect id="rect12069_30_" x="1047.533" y="-180.407" fill="#30008A" stroke="#000000" stroke-width="0.5" stroke-miterlimit="10" width="45.801" height="41.053"/>
	<text id="text780" transform="matrix(1 0 0 1 1100.7617 -145.0781)" enable-background="new    "><tspan x="0" y="0" font-family="'Arial-BoldMT'" font-size="42.6543">Cold continental climate/</tspan><tspan x="0" y="51.186" font-family="'Arial-BoldMT'" font-size="42.6543">Subarctic climate (Dwd)</tspan></text>
</g>
<g>
	
		<rect id="rect12069_29_" x="-835.586" y="1302.248" fill="#00FCFD" stroke="#000000" stroke-width="0.5" stroke-miterlimit="10" width="45.802" height="41.052"/>
	<text id="text783" transform="matrix(1 0 0 1 -782.356 1337.5781)" enable-background="new    "><tspan x="0" y="0" font-family="'Arial-BoldMT'" font-size="42.6543">Warm continental climate/</tspan><tspan x="0" y="51.186" font-family="'Arial-BoldMT'" font-size="42.6543">Humid continental climate (Dfa)</tspan></text>
</g>
<g>
	
		<rect id="rect12069_28_" x="-888.817" y="1424.959" fill="#3DC6FA" stroke="#000000" stroke-width="0.5" stroke-miterlimit="10" width="45.802" height="41.047"/>
	<text id="text786" transform="matrix(1 0 0 1 -835.5864 1460.2861)" enable-background="new    "><tspan x="0" y="0" font-family="'Arial-BoldMT'" font-size="42.6543">Temperate continental climate/</tspan><tspan x="0" y="51.186" font-family="'Arial-BoldMT'" font-size="42.6543">Humid continental climate (Dfb)</tspan></text>
</g>
<g>
	
		<rect id="rect12069_27_" x="-915.431" y="1565.267" fill="#007E7E" stroke="#000000" stroke-width="0.5" stroke-miterlimit="10" width="45.802" height="41.043"/>
	<text id="text789" transform="matrix(1 0 0 1 -862.2007 1600.5908)" enable-background="new    "><tspan x="0" y="0" font-family="'Arial-BoldMT'" font-size="42.6543">Cool continental climate/</tspan><tspan x="0" y="51.186" font-family="'Arial-BoldMT'" font-size="42.6543">Subarctic climate (Dfc)</tspan></text>
</g>
<g>
	
		<rect id="rect12069_26_" x="-942.046" y="1734.369" fill="#004660" stroke="#000000" stroke-width="0.5" stroke-miterlimit="10" width="45.802" height="41.047"/>
	<text id="text792" transform="matrix(1 0 0 1 -888.8159 1769.6973)" enable-background="new    "><tspan x="0" y="0" font-family="'Arial-BoldMT'" font-size="42.6543">Cold continental climate/</tspan><tspan x="0" y="51.186" font-family="'Arial-BoldMT'" font-size="42.6543">Subarctic climate (Dfd)</tspan></text>
</g>
<g>
	
		<rect id="rect12069_25_" x="33.529" y="-206.979" fill="#AEB0AD" stroke="#000000" stroke-width="0.5" stroke-miterlimit="10" width="45.801" height="41.046"/>
	<text id="text795" transform="matrix(1 0 0 1 86.7563 -171.6567)" font-family="'Arial-BoldMT'" font-size="42.6543">Tundra climate (ET)</text>
</g>
<g>
	
		<rect id="rect12069_24_" x="33.529" y="-139.354" fill="#686967" stroke="#000000" stroke-width="0.5" stroke-miterlimit="10" width="45.801" height="41.042"/>
	<text id="text798" transform="matrix(1 0 0 1 86.7563 -104.0327)" font-family="'Arial-BoldMT'" font-size="42.6543">Ice cap climate (EF)</text>
</g>
<g>
	
		<rect id="rect12069_23_" x="-993.5" y="921.099" fill="#FCFE04" stroke="#000000" stroke-width="0.5" stroke-miterlimit="10" width="45.803" height="41.045"/>
	<text id="text801" transform="matrix(1 0 0 1 -942.0464 956.4238)" font-family="'Arial-BoldMT'" font-size="42.6543">Warm mediterranean climate (Csa)</text>
</g>
<g>
	
		<rect id="rect12069_22_" x="-993.5" y="988.726" fill="#CECC08" stroke="#000000" stroke-width="0.5" stroke-miterlimit="10" width="45.803" height="41.043"/>
	<text id="text804" transform="matrix(1 0 0 1 -942.0464 1024.0547)" font-family="'Arial-BoldMT'" font-size="42.6543">Temperate mediterranean climate (Csb)</text>
</g>
<g>
	
		<rect id="rect12069_66_" x="-1019.225" y="393.854" fill="#3AAAFC" stroke="#000000" stroke-width="0.5" stroke-miterlimit="10" width="45.803" height="41.047"/>
	<text transform="matrix(1 0 0 1 -967.7734 429.1782)" font-family="'Arial-BoldMT'" font-size="42.6543">Tropical savanna climate (Aw</text>
	<text transform="matrix(1 0 0 1 -370.4053 429.1782)" font-family="'Arial-BoldMT'" font-size="42.6543">)</text>
</g>
<sodipodi:namedview  id="namedview27" objecttolerance="10" pagecolor="#ffffff" guidetolerance="10" bordercolor="#666666" gridtolerance="10" showgrid="false" inkscape:cy="250" borderopacity="1" inkscape:zoom="0.472" inkscape:cx="250" inkscape:window-y="0" inkscape:window-x="0" inkscape:pageshadow="2" inkscape:pageopacity="0" inkscape:window-width="686" inkscape:window-height="480" inkscape:window-maximized="0" inkscape:current-layer="Layer_1">
	</sodipodi:namedview>
<sodipodi:namedview  id="namedview27" objecttolerance="10" pagecolor="#ffffff" guidetolerance="10" bordercolor="#666666" gridtolerance="10" showgrid="false" inkscape:cy="250" borderopacity="1" inkscape:zoom="0.472" inkscape:cx="250" inkscape:window-y="0" inkscape:window-x="0" inkscape:pageshadow="2" inkscape:pageopacity="0" inkscape:window-width="686" inkscape:window-height="480" inkscape:window-maximized="0" inkscape:current-layer="Layer_1">
	</sodipodi:namedview>
<g>
	<g>
		<g>
			<g>
				<g>
					<path fill="#FF9900" d="M1711.012,926.065c1.391-0.26,2.729-0.396,4.119-0.596c-15.013-13.098-17.397-8.51-36.46-16.685
						c-2.277-1.004-3.795-2.096-5.258-3.224c-0.85-0.761-1.771-1.5-2.476-2.313c-0.344-0.389-0.597-0.777-0.85-1.167
						c-0.632-0.829-1.047-1.717-1.536-2.627c-3.161-9.234,6.776-19.847,1.536-25.043c-12.358-13.496-37.509-18.337-64.611-21.464
						c-12.72-3.496-25.728-6.513-41.267-8.528c-9.701-1.779-24.283-1.391-37.075-3.144c-7.987-1.111-15.284-3.036-20.255-6.901
						c-3.27-2.277-5.942-5.259-8.402-8.512c-11.471-15.229-15.627-39.188-27.426-54.546c-14.327-17.228-15.792-31.511-10.047-50.156
						c11.979-38.43-10.242-53.652-45.564-52.541c-5.097,0.162-10.482,0.658-16.082,1.498c-1.898,0.272-3.794,0.515-5.729,0.888
						c11.455-67.349-37.256-64.468-88.857-91.715c-47.319-25.792-91.712-63.02-108.931-110.322
						c-8.602-21.501-1.393-31.511-20.056-51.603c-18.609-18.609-28.656-42.965-45.856-63.02
						c-17.183-20.073-32.956-42.992-44.411-65.938c-1.211-3.714-3.541-20.219-5.998-26.515c1.553,0.227,3.179,0.389,4.624,0.704
						c-1.95-1.238-3.937-2.664-5.907-4.164l-1.97,0.505c-11.165-2.33-59.985,4.047-65.262,7.997
						c-0.288,0.217-0.613,0.515-0.903,0.749l-1.336,0.1l-28.459,20.641l-7.624,5.521c-3.124-0.707-6.522-2.375-10.388-5.521
						c-0.38-0.298-0.795-0.386-1.176-0.623c-16.982-11.807-40.109,0.697-62.895,19.089c-0.252,0.19-0.469,0.389-0.723,0.551
						c0.272,0.616,0.577,1.121,0.833,1.743c0,0.038,0.036,0.074,0.036,0.109h-0.036l-2.495-0.46
						c-0.271,0.224-0.541,0.441-0.829,0.668c-0.382,0.334-0.761,0.632-1.157,0.958c-19.44,16.306-38.251,35.854-52.343,47.166
						c-4.065,2.547-8.185,4.906-12.595,6.73c-15.754-24.347-25.763-57.311-55.865-73.058c-18.447-9.828-58.937,2.439-84.558,8.846
						c-4.138,0.901-8.221,1.824-12.358,2.771c-71.333,12.874-141.274,29.93-214.014,29.93c-25.821,0-38.721,0-38.721,24.357
						c0,4.507,0.198,8.953,0.398,13.389c-1.844,17.119,0.651,38.231,2.439,53.769c-0.038,62.66-0.887,126.35-1.175,190.156
						c-0.072,10.715-0.217,21.374-0.217,32.062c0,77.448-1.481,154.823,4.3,230.771c5.709,60.167-120.421,4.257-153.36,30.066
						c-4.336,4.329-5.781,14.825-5.927,26.868c-0.866,13.045,1.736,28.917,1.736,44.826c0,14.192,0.233,28.348,0.379,42.541
						c0.813-0.026,1.643-0.046,2.476-0.046c37.309-0.197,78.738,9.494,115.958,36.308c71.658,51.594,84.522,128.97,363.996,176.244
						c0,0,136.739,101.037,157.589,222.3c9.396,2.142,16.405,6.539,25.854,14.111c3.632,2.962,7.319,5.204,11.022,7.145
						c5.764,2.991,11.563,4.941,17.452,5.917c30.662,5.259,62.824-12.375,93.342-10.207c44.427,4.273,74.529-10.01,87.429-47.294
						c8.602-24.329,22.911-48.737,27.211-74.483c0.181-0.778,0.181-1.41,0.308-2.152c1.371-8.6-0.091-15.021,0.107-19.629
						c0.777-3.271,4.552-4.771,18.304-8.194c7.21-1.799,20-4.147,32.992-7.182c1.409-0.317,2.78-0.625,4.154-0.976
						c2.783-0.669,5.602-1.373,8.294-2.187c0.306-0.09,0.597-0.191,0.921-0.262c13.01-3.678,24.393-8.14,28.112-13.742
						c0.292-0.441,0.651-0.82,0.959-1.237c3.234-2.674,6.307-5.573,9.09-8.943c2.691-3.27,5.346-6.16,8.003-8.988
						c15.41-12.748,33.209-23.127,42.151-41.022c9.181-17.464,9.596-35.541,13.986-53.428c6.396-14.04,15.556-21.429,27.57-38.431
						c3-4.183,6.487-7.607,10.246-10.695c11.13-6.082,23.07-10.544,36.242-18.016c5.44-1.869,10.987-3.685,16.532-5.664
						c6.435-2.846,9.27-8.156,12.468-13.324c6.107-4.437,12.177-9.098,18.104-13.895c34.365-12.061,50.266-59.661,76.067-80.809
						c1.228-0.723,2.385-1.555,3.721-2.186c19.784-8.121,42.389-10.788,64.033-16.063c16.587-2.141,31.692-5.737,40.581-17.001
						c20.054-24.383,27.247-41.53,70.248-37.257C1715.601,928.858,1713.396,927.413,1711.012,926.065z M1051.062,864.49
						c-4.264,15.764-60.184,104.586-126.077,100.314c-65.93-4.346-61.594,18.554-95.995-23.002
						c-5.762-7.154-7.19-224.973,127.562-196.245C1091.209,774.224,1055.417,850.091,1051.062,864.49z"/>
				</g>
				<g>
					<path fill="#FF0000" d="M754.44,1234.17c-279.474-47.293-292.337-124.643-363.995-176.244
						c-37.218-26.813-78.648-36.507-115.959-36.307c-0.832,0-1.646,0.026-2.475,0.045c0.379,43.164,1.102,86.282,1.102,129.43
						c0.198,17.118,0.236,34.249,0.344,51.341c-0.036,16.568,0.146,33.1,0.272,49.658c0.036,25.775,0,51.529-0.074,77.357
						c18.719,21.015,48.296,31.087,65.281,52.343c20.054,25.811,31.511,58.759,44.392,87.422
						c3.651,8.139,7.245,16.407,10.265,24.719c4.372,20.2,0.198,38.456-5.783,56.28c-5.654,16.759-12.575,33.174-15.285,50.454
						c-4.626,16.071-3.687,32.306,7.985,54.854c10.624-10.623,26.634-12.881,44.718-11.935c3.94,0.777,8.042,1.483,12.559,1.763
						c1.842,0.127,3.795,0.02,5.674,0.056c20.055,0.479,42.152-2.783,63.127-1.501c14.329,1.445,31.51,1.445,37.294-12.899
						c-1.448-5.657,1.462-10.012,5.781-14.267c15.754-5.735,27.211,0,40.111-11.428c1.951-1.652,3.723-3.423,5.385-5.24
						c12.954-14.001,18.538-32.133,37.544-43.532c17.235-10.01,35.847-15.748,45.892-32.931c9.18-15.744,14.455-32.36,20.092-48.812
						c6.413-18.699,13.424-37.127,27.028-53.706c0.579-0.685,0.978-1.407,1.574-2.094c30.099-34.356,84.538-12.893,116.03,10.045
						c18.663,12.919,25.82,27.218,51.565,25.809c6.83,0,12.287,0.544,17.147,1.672C891.144,1335.205,754.44,1234.17,754.44,1234.17z
						"/>
				</g>
				<g>
					<path fill="#FF0000" d="M956.515,745.541c-134.752-28.728-133.307,189.107-127.562,196.245
						c34.385,41.556,30.065,18.656,95.995,23c65.93,4.273,121.814-84.548,126.062-100.312
						C1055.417,850.091,1091.209,774.224,956.515,745.541z"/>
				</g>
				<g>
					<path fill="#CECC08" d="M898.407,309.29c-0.035-0.035-0.035-0.071-0.071-0.109c-0.217-0.622-0.544-1.127-0.797-1.743
						c-0.56,0.453-1.121,0.914-1.662,1.374l2.459,0.46h0.071V309.29z"/>
				</g>
			</g>
		</g>
	</g>
	<g id="bw_3_">
		<path d="M379.279,1659.018l-2.998-5.888c-17.834-34.881-7.39-63.825,2.709-91.812c9.413-26.11,18.32-50.762,5.745-80.468
			l-1.245-3.043c-12.378-30.373-26.434-64.792-45.551-92.084c-7.625-10.353-19.532-18.447-32.144-27.03
			c-12.196-8.292-24.788-16.866-34.852-28.385l-1.121-1.273l-0.036-1.679c-1.426-75.643-1.426-152.35,0-227.991
			c0-9.134,0.091-18.439,0.182-27.781c0.253-28.067,0.525-57.093-1.607-84.927c-0.019-3.27-0.47-8.366-1.03-14.616
			c-2.676-30.319-4.3-58.325,5.204-67.874c7.625-6.017,18.538-8.645,34.781-8.645c12.754,0,27.445,1.636,41.663,3.217
			c14.004,1.553,28.459,3.16,40.779,3.16c15.757,0,25.837-2.673,30.825-8.166c3.36-3.687,4.662-8.898,3.994-15.936
			c-4.825-63.229-4.607-128.473-4.39-191.566c0.036-13.207,0.071-26.424,0.071-39.641c0-38.158,0.36-76.327,0.723-114.307
			c0.343-37.59,0.687-74.999,0.687-112.038c0-10.589-0.723-21.077-1.41-31.213c-0.706-10.29-1.446-20.922-1.446-31.818
			c0-28.981,18.176-28.981,43.345-28.981c57.637,0,114.821-11.04,170.109-21.726c14.634-2.819,29.27-5.654,43.996-8.301
			c5.292-0.995,12.232-2.783,19.964-4.789c17.924-4.634,40.237-10.407,58.035-10.407c8.817,0,15.683,1.383,20.994,4.219
			c23.469,12.287,34.998,33.788,46.145,54.565c3.146,5.864,6.144,11.447,9.325,16.696c13.965-6.759,26.378-17.979,38.394-28.854
			c9.231-8.34,18.754-16.966,28.981-23.598c3.774-2.511,7.335-5.321,10.877-8.104c8.473-6.675,17.254-13.586,29.143-16.804
			c12.287-3.069,17.996,1.817,21.988,5.719c2.277,2.214,3.921,3.814,7.012,4.203l1.03,0.026c10.207,0,20.543-9.863,29.668-18.573
			c3.648-3.496,7.1-6.785,10.333-9.231c6.324-4.708,45.856-9.442,61.053-9.442c8.075,0,10.732,1.011,12.375,2.638
			c2.494,2.511,3.885,7.987,6.578,22.16c0.705,3.759,1.301,6.976,1.732,8.341c10.59,21.084,25.73,43.562,43.546,64.384
			c7.913,9.225,14.345,19.341,20.598,29.133c7.768,12.189,15.104,23.706,25.005,33.627c12.9,13.894,14.527,23.703,16.225,34.101
			c0.939,5.728,1.898,11.664,4.86,19.053c18.663,51.315,68.405,87.035,106.837,107.974c11.889,6.279,23.524,10.877,34.762,15.333
			c33.932,13.424,63.418,25.096,57.385,74.863c30.279-4.436,52.903,0.885,63.236,14.951c7.554,10.255,8.6,24.438,3.072,42.162
			c-5.71,18.485-3.234,30.905,9.179,45.821c6.468,8.42,10.622,18.864,14.634,28.964c5.421,13.641,10.553,26.521,20.274,33.254
			c7.841,6.095,23.234,6.909,36.821,7.615c6.883,0.36,13.389,0.704,18.719,1.679c23.777,3.081,42.205,8.583,61.682,14.409
			c7.754,2.304,15.813,4.718,24.665,7.119c14.507,4.248,19.225,6.632,21.139,10.625c1.607,3.334,0.344,6.406-0.687,8.881
			c-1.409,3.405-3.017,7.281-0.162,14.887c2.926,8.013,15.104,13.569,26.865,18.954c7.861,3.587,15.991,7.308,21.882,12.005
			l12.231,9.767l-15.573-1.546c-34.997-3.558-43.925,7.4-59.461,27.111c-2.116,2.702-4.339,5.538-6.76,8.474
			c-12.304,15.621-34.816,17.951-56.588,20.209c-19.081,1.979-38.791,4.031-51.458,14.782c-10.227,8.055-18.79,20.56-27.859,33.796
			c-14.673,21.463-29.868,43.649-54.206,50.21c-6.775,1.835-9.413,6.151-12.754,11.607c-3.071,5.032-6.577,10.741-13.804,13.969
			c-3.849,1.371-7.354,2.557-10.842,3.729c-20.018,6.749-38.938,13.117-50.301,29.081c-4.698,6.639-8.998,11.843-12.792,16.431
			c-10.137,12.262-16.84,20.363-20.778,43.284c-4.156,29.088-18.537,42.658-35.197,58.366c-7.498,7.093-15.266,14.429-23.126,24.033
			c-21.463,26.017-56.535,30.39-90.448,34.616c-11.888,1.383-11.817,2.213-11.146,10.2c0.379,4.391,0.865,10.417-0.706,17.733
			c-2.854,17.118-10.081,33.734-17.093,49.796c-3.775,8.699-7.353,16.92-10.297,25.258c-13.156,38.024-44.34,54.899-92.221,50.356
			c-1.553-0.109-3.251-0.172-4.913-0.172c-11.927,0-23.994,2.719-36.786,5.593c-12.812,2.881-26.055,5.853-39.172,5.853
			c-16.696,0-30.896-4.951-43.436-15.148c-13.803-11.059-21.537-14.743-40.074-14.743c-1.012,0.062-2.242,0.098-3.435,0.098
			c-18.428,0-28.112-8.212-38.339-16.911c-3.813-3.234-7.734-6.577-12.43-9.82c-23.417-17.048-50.12-27.192-71.532-27.192
			c-15.955,0-28.854,5.511-38.394,16.388c-15.287,17.734-22.079,37.662-29.272,58.766c-5.094,14.96-10.353,30.436-18.934,45.133
			c-8.311,14.238-22.007,21.25-35.25,28.035c-4.102,2.086-8.223,4.199-12.306,6.567c-11.166,6.701-17.326,15.988-23.849,25.828
			c-5.132,7.768-10.462,15.8-18.43,22.484c-8.872,7.861-17.436,8.6-25.711,9.315c-4.715,0.405-9.557,0.82-14.834,2.583
			c-4.028,4.199-4.462,6.623-3.83,9.105l0.379,1.464l-0.558,1.409c-4.445,11.04-14.564,16.406-30.95,16.406
			c-3.742,0-7.498-0.272-11.095-0.632c-10.715-0.625-22.928,0.045-34.437,0.758c-11.798,0.723-23.362,1.419-34.221,0.696
			c-7.319-0.434-13.787-1.862-19.496-3.117c-5.547-1.221-10.333-2.268-14.851-2.268c-5.096,0-11.383,1.147-19.298,9.666
			L379.279,1659.018z M279.003,1325.467c9.141,10.028,20.76,17.932,31.998,25.575c13.282,9.044,25.838,17.572,34.457,29.289
			c19.766,28.223,34.04,63.156,46.615,93.98l1.211,2.99c13.949,32.982,4.011,60.518-5.583,87.15
			c-9.27,25.675-18.051,50.003-5.836,78.793c6.523-5.428,13.389-7.994,21.23-7.994c5.528,0,11.021,1.201,16.839,2.485
			c5.636,1.237,11.472,2.527,18.084,2.916c10.553,0.687,21.7-0.009,33.083-0.694c11.727-0.731,23.978-1.444,35.74-0.741
			c3.468,0.344,6.938,0.597,10.353,0.597c11.652,0,18.627-3,21.825-9.413c-1.14-7.453,3.27-12.974,7.353-17.021l1.662-1.056
			c6.794-2.466,12.829-2.981,18.159-3.441c7.715-0.671,13.787-1.192,20.472-7.103c7.028-5.907,11.743-13.045,16.765-20.589
			c6.795-10.262,13.823-20.876,26.849-28.691c4.264-2.473,8.566-4.67,12.792-6.838c12.611-6.461,24.538-12.557,31.475-24.454
			c8.113-13.904,13.227-28.929,18.175-43.454c7.157-21.013,14.564-42.739,31.041-61.848c11.383-12.999,26.632-19.576,45.37-19.576
			c34.528,0,67.591,22.124,76.878,28.899c4.987,3.443,9.286,7.092,13.081,10.316c10.732,9.118,18.177,15.414,35.522,14.617
			c0.017,0,0.036,0,0.036,0c21.68,0,31.33,4.951,46.108,16.787c10.984,8.943,22.929,13.098,37.618,13.098
			c12.087,0,24.824-2.864,37.147-5.628c14.6-3.271,29.829-6.676,44.482-5.619c44.43,4.192,70.954-10.126,82.716-44.185
			c3.072-8.681,6.902-17.436,10.569-25.901c6.775-15.547,13.785-31.626,16.478-47.833c1.318-6.189,0.924-10.995,0.58-15.232
			c-0.886-10.715-0.036-17.905,19.24-20.155c33.572-4.183,65.316-8.129,84.415-31.303c8.239-10.045,16.587-17.932,23.938-24.879
			c16.026-15.123,28.673-27.065,32.396-53.092c4.391-25.478,12.105-34.81,22.785-47.729c3.721-4.507,7.857-9.493,12.374-15.898
			c13.117-18.412,33.427-25.249,54.891-32.494c3.45-1.157,6.901-2.323,10.372-3.551c4.282-1.916,6.632-5.755,9.36-10.2
			c3.685-6.054,7.877-12.917,18.21-15.71c21.05-5.673,35.271-26.434,49.002-46.507c9.466-13.839,18.428-26.91,29.63-35.729
			c14.708-12.502,35.885-14.698,56.374-16.82c20.759-2.158,40.362-4.192,50.317-16.813c2.439-2.962,4.607-5.745,6.704-8.399
			c12.809-16.272,23.109-29.353,48.963-31.077c-1.517-0.707-3.071-1.41-4.624-2.126c-13.498-6.169-27.464-12.546-31.692-24.156
			c-4.118-10.984-1.371-17.652,0.291-21.626c0.288-0.723,0.704-1.717,0.739-2.051c-0.288,0.081-3.036-1.465-15.158-5.022
			c-8.853-2.395-16.985-4.825-24.79-7.157c-19.947-5.962-37.202-11.111-60.454-14.128c-4.986-0.913-11.201-1.237-17.779-1.581
			c-14.96-0.787-31.909-1.671-41.845-9.403c-11.781-8.178-17.672-22.974-23.381-37.285c-3.795-9.511-7.696-19.351-13.263-26.612
			c-14.254-17.128-17.416-32.911-10.786-54.332c4.607-14.77,4.03-26.188-1.68-33.939c-7.733-10.524-23.776-12.73-35.882-12.73
			c-7.446,0-15.722,0.813-24.574,2.43l-6.504,1.186l1.12-6.516c8.131-47.781-15.305-57.039-50.754-71.068
			c-10.929-4.329-23.325-9.234-35.72-15.774c-39.894-21.745-91.495-58.937-111.099-112.834c-3.289-8.194-4.39-14.925-5.365-20.858
			c-1.592-9.75-2.855-17.455-13.732-29.181c-10.516-10.515-18.466-22.99-26.162-35.069c-6.072-9.514-12.342-19.36-19.84-28.086
			c-18.285-21.402-33.859-44.521-45.025-66.879c-0.759-2.177-1.48-5.845-2.295-10.136c-0.885-4.636-2.618-13.849-3.901-16.92
			c-0.849-0.146-2.602-0.353-5.962-0.353c-18.376,0-51.585,5.258-55.596,7.66c-2.709,2.042-5.962,5.149-9.413,8.447
			c-10.317,9.874-23.47,22.277-38.034,21.058c-6.36-0.794-9.773-4.111-12.501-6.775c-3.506-3.432-6.144-5.158-13.21-3.389
			c-9.974,2.702-17.65,8.735-25.747,15.125c-3.739,2.936-7.498,5.88-11.525,8.563c-9.649,6.26-18.502,14.254-27.86,22.721
			c-13.605,12.313-27.682,25.051-44.557,32.143l-3.577,1.498l-2.097-3.25c-4.228-6.523-8.094-13.732-11.853-20.715
			c-10.479-19.551-21.32-39.767-42.297-50.754c-3.921-2.094-9.521-3.153-16.675-3.153c-16.623,0-38.305,5.611-55.722,10.119
			c-7.987,2.061-15.106,3.895-20.599,4.922c-14.707,2.647-29.341,5.476-43.922,8.295c-55.722,10.758-113.34,21.888-171.862,21.888
			c-27.571,0-34.094,0.723-34.094,19.73c0,10.58,0.722,21.051,1.426,31.187c0.706,10.289,1.428,20.942,1.428,31.845
			c0,37.065-0.343,74.503-0.687,112.12c-0.363,37.962-0.723,76.093-0.723,114.225c0,13.227-0.035,26.453-0.071,39.669
			c-0.217,62.913-0.434,127.964,4.372,190.75c0.904,9.559-1.229,17.31-6.36,22.947c-6.957,7.634-18.936,11.192-37.69,11.192
			c-12.828,0-27.552-1.633-41.809-3.214c-13.947-1.555-28.401-3.163-40.633-3.163c-13.858,0-23.236,2.061-28.638,6.296
			c-6.85,6.921-3.651,42.875-2.132,60.148c0.577,6.613,1.047,12.006,1.047,15.088c2.151,27.878,1.879,57.103,1.626,85.36
			c-0.091,9.325-0.181,18.593-0.181,27.791C277.629,1174.491,277.613,1250.495,279.003,1325.467z"/>
	</g>
</g>
</svg>
