<?xml version="1.0" encoding="UTF-8"?>
<!DOCTYPE svg PUBLIC '-//W3C//DTD SVG 1.1//EN' 'http://www.w3.org/Graphics/SVG/1.1/DTD/svg11.dtd'>
<svg width="501.66" height="248.74" viewBox="0 0 5016.6 2487.4" font-family="DejaVu Sans,Bitstream Vera Sans,Liberation Sans,Arial" xmlns="http://www.w3.org/2000/svg">
 <path d="M16.35 2471.1h5000.3V16.4H16.35z" fill="#c8f6ff"/>
 <path d="M4.4 2483h5004V4.4H4.4z" fill="none" stroke="#000" stroke-linejoin="round" stroke-width="8.8"/>
 <path d="m3906.2 1068h-50v-12.5l12.5-12.5 37.5-12.5h12.5l87.5-50 75-25 37.5-37.5h25l25 12.5 12.5 12.5v12.5l-87.5 50-100 25zm-262.4-50 25-12.5h25l12.5 12.5v12.5l-12.5 12.5h-37.5l-100 37.5h-25l-62.5 37.5h-37.5v-25l62.5-25 25-25 87.5-12.5zm-2550 887.5-75-25h-25l-12.5-12.5h-12.5l-50 25h-37.5v-25l25-112.5-12.5-37.5-12.5-25-25-12.5h-37.5l12.5-25 12.5-12.5 37.5-12.5 50 12.5v25l-12.5-12.5-12.5 12.5v12.5l37.5 75-25 25h12.5v12.5l12.5 12.5v12.5l25 25h37.5l62.5-25v-12.5l12.5-25 37.5-12.5 12.5 12.5h12.5v-12.5l-12.5-25h-12.5l12.5-25h-25l12.5-12.5v-25l50 37.5 37.5 12.5 25-12.5 100 12.5h37.5l50-12.5 12.5 12.5 37.5-12.5 12.5 12.5 12.5 37.5-12.5 37.5-37.5 37.5h-62.5l-62.5-25-37.5 25h-62.5l-50 25v12.5l-25 12.5z" fill="#f0be01"/>
 <path d="m3906.2 1068h-50v-12.5l12.5-12.5 37.5-12.5h12.5l87.5-50 75-25 37.5-37.5h25l25 12.5 12.5 12.5v12.5l-87.5 50-100 25zm-262.4-50 25-12.5h25l12.5 12.5v12.5l-12.5 12.5h-37.5l-100 37.5h-25l-62.5 37.5h-37.5v-25l62.5-25 25-25 87.5-12.5zm-2550 887.5-75-25h-25l-12.5-12.5h-12.5l-50 25h-37.5v-25l25-112.5-12.5-37.5-12.5-25-25-12.5h-37.5l12.5-25 12.5-12.5 37.5-12.5 50 12.5v25l-12.5-12.5-12.5 12.5v12.5l37.5 75-25 25h12.5v12.5l12.5 12.5v12.5l25 25h37.5l62.5-25v-12.5l12.5-25 37.5-12.5 12.5 12.5h12.5v-12.5l-12.5-25h-12.5l12.5-25h-25l12.5-12.5v-25l50 37.5 37.5 12.5 25-12.5 100 12.5h37.5l50-12.5 12.5 12.5 37.5-12.5 12.5 12.5 12.5 37.5-12.5 37.5-37.5 37.5h-62.5l-62.5-25-37.5 25h-62.5l-50 25v12.5l-25 12.5z" fill="none" stroke="#ababab" stroke-linejoin="round" stroke-width="6.3"/>
 <path d="M1093.8 1905.5l-75-25h-25l-12.5-12.5h-12.5l-50 25h-37.5v-25l25-112.5-12.5-37.5-12.5-25-25-12.5h-37.5l12.5-25 12.5-12.5 37.5-12.5 50 12.5v25l-12.5-12.5-12.5 12.5v12.5l37.5 75-25 25h12.5v12.5l12.5 12.5v12.5l25 25h37.5l62.5-25v-12.5l12.5-25 37.5-12.5 12.5 12.5h12.5V1768l-12.5-25h-12.5l12.5-25h-25l12.5-12.5v-25l50 37.5 37.5 12.5 25-12.5 100 12.5h37.5l50-12.5 12.5 12.5 37.5-12.5 12.5 12.5 12.5 37.5-12.5 37.5-37.5 37.5h-62.5l-62.5-25-37.5 25h-62.5l-50 25v12.5l-25 12.5zM3906.2 1068h-50v-12.5l12.5-12.5 37.5-12.5h12.5l87.5-50 75-25 37.5-37.5h25l25 12.5 12.5 12.5v12.5l-87.5 50-100 25zm-262.4-50l25-12.5h25l12.5 12.5v12.5l-12.5 12.5h-37.5l-100 37.5h-25l-62.5 37.5h-37.5v-25l62.5-25 25-25 87.5-12.5z" fill="none" stroke="#a08c46" stroke-linejoin="round" stroke-width="12.5"/>
 <path d="m1243.8 1743h25l50 12.5 12.5 12.5m-0.1 0-25 50" fill="none" stroke="red" stroke-linejoin="round" stroke-width="6.3"/>
 <path d="M1306.2 1818h50l25 12.5h62.5l25-12.5 25-37.5-12.5-25V1743h-87.5l-37.5 12.5h-25v12.5m-25 50h-12.5l-25 12.5h-62.5l-25 12.5-37.5 37.5h-100l-75-25-50 25h-12.5V1868l12.5-37.5V1743l-12.5-37.5-12.5-12.5-37.5-12.5V1668l12.5-12.5h37.5" fill="none" stroke="red" stroke-linejoin="round" stroke-width="6.3"/>
 <path d="M4.4 2483h5004V4.4H4.4z" fill="none" stroke="#000" stroke-linejoin="round" stroke-width="8.8"/>
 <path d="M917.8 1883.5l-34.05-19.46-36.15 15.65 8.93-36.82-26.82-27.87 39.57-3.3 19.58-32.88 15.52 34.78 38.92 7.55-29.97 24.79 4.47 37.55zm254.4-.5c0 4.44-3.8 8.04-8.48 8.04s-8.48-3.6-8.48-8.04 3.8-8.04 8.48-8.04 8.48 3.6 8.48 8.04zm289.8-48.3c0 4.44-3.8 8.04-8.48 8.04s-8.48-3.6-8.48-8.04 3.8-8.04 8.48-8.04 8.48 3.6 8.48 8.04zm-630.39-158c0 4.44-3.8 8.04-8.48 8.04s-8.48-3.6-8.48-8.04 3.8-8.04 8.48-8.04 8.48 3.6 8.48 8.04zm94.64-17.9c0 4.44-3.8 8.04-8.48 8.04s-8.48-3.6-8.48-8.04 3.8-8.04 8.48-8.04 8.48 3.6 8.48 8.04zm-17.85 34c0 4.44-3.8 8.04-8.48 8.04s-8.48-3.6-8.48-8.04 3.8-8.04 8.48-8.04 8.48 3.6 8.48 8.04zm456.3 41.3c0 4.44-3.8 8.04-8.48 8.04s-8.48-3.6-8.48-8.04 3.8-8.04 8.48-8.04 8.48 3.6 8.48 8.04zm-215.3 132.6c0 4.44-3.8 8.04-8.48 8.04s-8.48-3.6-8.48-8.04 3.8-8.04 8.48-8.04 8.48 3.6 8.48 8.04zm-101.6 18.3c0 4.44-3.8 8.04-8.48 8.04s-8.48-3.6-8.48-8.04 3.8-8.04 8.48-8.04 8.48 3.6 8.48 8.04zm-17.7-19c0 4.44-3.8 8.04-8.48 8.04s-8.48-3.6-8.48-8.04 3.8-8.04 8.48-8.04 8.48 3.6 8.48 8.04zm2464.8-755.7c0 4.44-3.8 8.04-8.48 8.04s-8.48-3.6-8.48-8.04 3.8-8.04 8.48-8.04 8.48 3.6 8.48 8.04zm637.6-190.65c0 4.44-3.8 8.04-8.48 8.04s-8.48-3.6-8.48-8.04 3.8-8.04 8.48-8.04 8.48 3.6 8.48 8.04zM3885 1056c0 4.44-3.8 8.04-8.48 8.04s-8.48-3.6-8.48-8.04 3.8-8.04 8.48-8.04 8.48 3.6 8.48 8.04zM889.6 1628.1c0 4.44-3.8 8.04-8.48 8.04s-8.48-3.6-8.48-8.04 3.8-8.04 8.48-8.04 8.48 3.6 8.48 8.04zm-7.08-12.3v-21.48h9.52c1.91 0 3.37.19 4.37.58s1.79 1.07 2.39 2.04c.6.98.89 2.06.89 3.24 0 1.52-.49 2.81-1.48 3.85s-2.51 1.71-4.57 1.99c.75.36 1.32.72 1.71 1.07.83.76 1.62 1.71 2.36 2.86l3.74 5.84h-3.57l-2.84-4.47c-.83-1.29-1.51-2.28-2.05-2.96s-1.02-1.16-1.44-1.44a4.37 4.37 0 0 0-1.3-.57c-.32-.07-.85-.1-1.58-.1h-3.3v9.54h-2.84zm2.84-12h6.11c1.3 0 2.31-.13 3.05-.4.73-.27 1.29-.7 1.67-1.29s.57-1.23.57-1.93c0-1.02-.37-1.85-1.11-2.5s-1.9-.98-3.49-.98h-6.8zm28.65 12v-2.29c-1.21 1.76-2.86 2.64-4.94 2.64-.92 0-1.77-.18-2.57-.53s-1.39-.79-1.77-1.33-.66-1.18-.81-1.96c-.11-.52-.16-1.34-.16-2.46v-9.64h2.64v8.63c0 1.38.05 2.3.16 2.78.17.69.52 1.24 1.05 1.63s1.2.59 1.99.59 1.53-.2 2.23-.61c.69-.41 1.18-.96 1.47-1.66s.43-1.71.43-3.04v-8.34h2.64v15.56h-2.36zm6.5 0v-15.56h2.36v2.18a5.65 5.65 0 0 1 1.95-1.84c.81-.46 1.73-.7 2.77-.7 1.15 0 2.1.24 2.83.72s1.26 1.15 1.56 2.01c1.23-1.82 2.83-2.72 4.8-2.72 1.54 0 2.73.43 3.56 1.28s1.25 2.17 1.25 3.95v10.68h-2.62v-9.8c0-1.05-.09-1.81-.26-2.28-.17-.46-.48-.84-.93-1.12s-.98-.42-1.58-.42c-1.09 0-2 .36-2.72 1.09s-1.08 1.89-1.08 3.49v9.04h-2.64v-10.11c0-1.17-.21-2.05-.64-2.64s-1.13-.88-2.11-.88c-.74 0-1.43.2-2.06.59s-1.09.96-1.37 1.71-.42 1.84-.42 3.25v8.07h-2.64zm33.68 0v-21.48h8.1c1.43 0 2.51.07 3.27.21 1.05.18 1.94.51 2.65 1s1.29 1.18 1.72 2.07.65 1.87.65 2.93c0 1.83-.58 3.37-1.74 4.64-1.16 1.26-3.26 1.9-6.3 1.9h-5.51v8.73zm2.84-11.27h5.55c1.84 0 3.14-.34 3.91-1.03s1.16-1.65 1.16-2.89c0-.9-.23-1.67-.68-2.31s-1.05-1.06-1.79-1.27c-.48-.13-1.36-.19-2.65-.19h-5.49v7.68zm15.88 3.49c0-2.88.8-5.01 2.4-6.4 1.34-1.15 2.97-1.73 4.89-1.73 2.14 0 3.89.7 5.24 2.1s2.04 3.34 2.04 5.81c0 2-.3 3.58-.9 4.72-.6 1.15-1.47 2.04-2.62 2.67s-2.4.95-3.76.95c-2.18 0-3.94-.7-5.28-2.09s-2.01-3.41-2.01-6.04zm2.71 0c0 1.99.43 3.48 1.3 4.48s1.96 1.49 3.28 1.49c1.31 0 2.4-.5 3.27-1.49.87-1 1.3-2.51 1.3-4.56 0-1.92-.44-3.38-1.31-4.37s-1.96-1.49-3.26-1.49c-1.32 0-2.41.49-3.28 1.48s-1.3 2.48-1.3 4.47zm14.99-10.66v-3.03h2.64v3.03zm0 18.44v-15.56h2.64v15.56zm6.67 0v-15.56h2.37v2.21c1.14-1.71 2.79-2.56 4.95-2.56.94 0 1.8.17 2.59.51s1.37.78 1.77 1.33c.39.55.66 1.2.82 1.95.1.49.15 1.34.15 2.56v9.57h-2.64v-9.46c0-1.07-.1-1.88-.31-2.41s-.57-.96-1.09-1.27c-.52-.32-1.14-.48-1.84-.48-1.12 0-2.09.36-2.91 1.07s-1.22 2.07-1.22 4.06v8.5h-2.64zm22.46-2.36l.38 2.33a9.5 9.5 0 0 1-1.99.23c-.96 0-1.7-.15-2.23-.45s-.9-.7-1.11-1.19-.32-1.53-.32-3.11v-8.95h-1.93v-2.05h1.93v-3.85l2.62-1.58v5.43h2.65v2.05h-2.65v9.1c0 .75.05 1.24.14 1.45s.24.39.45.51c.21.13.51.19.9.19.29 0 .68-.03 1.16-.1z"/>
 <path d="m3524.5 1037.2c0 4.44-3.8 8.04-8.48 8.04s-8.48-3.6-8.48-8.04 3.8-8.04 8.48-8.04 8.48 3.6 8.48 8.04z"/>
 <path d="M923.97 1881s27.1 2.99 27.96 4.83c.94 1.93-5.75 12.7-5.75 12.66l-12.76 7.09s7.98 1.03 11.06 2.59c3.65 1.85 9.84 7.72 9.84 7.72l-1.89-13.37s5.78-11.7 7.04-11.05c7.43 3.99 19.7 18.1 19.68 18.12l-14.19-33.85s8.75-16.8 7.77-20.11c-1-3.36-.54-2.7-4.07-3.26-3.51-.55-9.63 18.4-9.63 18.39L923.96 1881zm3014.5-867.8s27.1 2.99 27.96 4.83c.94 1.93-5.75 12.7-5.75 12.66l-12.76 7.09s7.98 1.03 11.06 2.59c3.65 1.85 9.84 7.72 9.84 7.72l-1.89-13.37s5.78-11.7 7.04-11.05c7.43 3.99 19.7 18.1 19.68 18.12l-14.19-33.85s8.75-16.8 7.77-20.11c-1-3.36-.54-2.7-4.07-3.26-3.51-.55-9.63 18.4-9.63 18.39l-35.07 10.24zm-515.7 79.9s27.1 2.99 27.96 4.83c.94 1.93-5.75 12.7-5.75 12.66l-12.76 7.09s7.98 1.03 11.06 2.59c3.65 1.85 9.84 7.72 9.84 7.72l-1.89-13.37s5.78-11.7 7.04-11.05c7.43 3.99 19.7 18.1 19.68 18.12l-14.19-33.85s8.75-16.8 7.77-20.11c-1-3.36-.54-2.7-4.07-3.26-3.51-.55-9.63 18.4-9.63 18.39l-35.07 10.24z" fill="#00f"/>
 <path d="m4087.2 930.85-39.13 61.95 71.73-3.26z" fill-rule="evenodd" stroke="#000" stroke-width="10"/>
 <path d="M4124.3 1039.6l5.29-25.37h-9.39l.68-3.26h22.54l-.68 3.26h-9.32l-5.29 25.37zm16.7 0l5.98-28.63h3.54l-2.29 11c1.32-1.28 2.54-2.19 3.67-2.74s2.3-.83 3.5-.83c1.72 0 3.05.45 4 1.36s1.43 2.1 1.43 3.58c0 .73-.21 2.07-.63 4.02l-2.56 12.25h-3.54l2.64-12.56c.38-1.82.57-2.97.57-3.44 0-.68-.23-1.23-.7-1.66s-1.15-.64-2.03-.64c-1.28 0-2.49.34-3.65 1.01s-2.07 1.59-2.72 2.75c-.66 1.17-1.26 3.04-1.81 5.63l-1.86 8.91H4141zm37.5-7.05l3.44.35c-.49 1.71-1.63 3.33-3.41 4.86-1.78 1.54-3.9 2.3-6.36 2.3-1.54 0-2.95-.35-4.23-1.06s-2.26-1.74-2.93-3.1c-.67-1.35-1.01-2.9-1.01-4.63 0-2.27.52-4.46 1.57-6.59s2.41-3.71 4.07-4.75c1.67-1.04 3.47-1.55 5.41-1.55 2.47 0 4.45.77 5.93 2.3 1.48 1.54 2.22 3.63 2.22 6.29 0 1.02-.09 2.06-.27 3.13h-15.27a9.03 9.03 0 0 0-.08 1.09c0 1.94.45 3.42 1.34 4.44s1.98 1.53 3.27 1.53c1.21 0 2.4-.4 3.57-1.19s2.08-1.94 2.73-3.44zm-10.27-5.14h11.64c.01-.36.02-.63.02-.78 0-1.77-.44-3.13-1.33-4.07s-2.02-1.42-3.42-1.42c-1.51 0-2.89.52-4.13 1.56s-2.17 2.61-2.78 4.71zm28.81 12.19l6-28.63h8.87c1.61 0 2.81.07 3.59.2 1.28.22 2.35.61 3.23 1.16s1.56 1.31 2.04 2.27.72 2.02.72 3.17c0 1.58-.43 2.96-1.3 4.16s-2.19 2.11-3.97 2.73c1.55.51 2.71 1.27 3.48 2.29s1.15 2.22 1.15 3.58c0 1.58-.45 3.09-1.36 4.53-.91 1.45-2.1 2.56-3.59 3.35s-3.15 1.18-4.99 1.18h-13.87zm7.27-16.41h5.8c2.77 0 4.77-.44 5.99-1.33s1.83-2.17 1.83-3.87c0-.81-.19-1.5-.57-2.09s-.88-1.01-1.51-1.28-1.82-.4-3.56-.4h-6.09zm-2.75 13.16h6.52c1.73 0 2.9-.06 3.5-.18 1.21-.21 2.19-.56 2.95-1.06s1.35-1.16 1.78-1.98.64-1.68.64-2.58c0-1.34-.42-2.36-1.26-3.06s-2.44-1.04-4.79-1.04h-7.27zm21.52 3.24l5.98-28.63h3.54l-5.98 28.63zm23.34-3.75c-2.49 2.81-5.03 4.22-7.64 4.22-1.6 0-2.89-.46-3.88-1.38-.98-.92-1.47-2.04-1.47-3.37 0-.87.22-2.37.66-4.49l2.5-11.97h3.54l-2.77 13.26c-.23 1.11-.35 1.97-.35 2.58 0 .78.24 1.39.71 1.83.48.44 1.18.65 2.1.65.99 0 1.96-.24 2.9-.72s1.76-1.13 2.44-1.95 1.24-1.79 1.67-2.91c.29-.72.62-1.97 1-3.77l1.88-8.96h3.54l-4.34 20.74h-3.26l.78-3.75zm8.59 3.75l3.77-18.01h-3.16l.57-2.73h3.16l.61-2.95c.31-1.47.63-2.53.97-3.18.33-.65.87-1.19 1.62-1.61s1.77-.63 3.06-.63c.9 0 2.2.19 3.91.57l-.64 3.09c-1.2-.31-2.2-.47-3.01-.47-.69 0-1.21.17-1.57.52s-.67 1.16-.93 2.45l-.47 2.23h3.95l-.57 2.73h-3.95l-3.77 18.01zm11.09 0l3.77-18.01h-3.16l.57-2.73h3.16l.61-2.95c.31-1.47.63-2.53.97-3.18.33-.65.87-1.19 1.62-1.61s1.77-.63 3.06-.63c.9 0 2.2.19 3.91.57l-.64 3.09c-1.2-.31-2.2-.47-3.01-.47-.69 0-1.21.17-1.57.52s-.67 1.16-.93 2.45l-.47 2.23h3.95l-.57 2.73h-3.95l-3.77 18.01zm26.82 8.42c-2.04-4.48-3.07-9.08-3.07-13.81 0-3.15.41-6.08 1.24-8.8.83-2.71 2.09-5.4 3.78-8.06 1.12-1.77 2.91-4.06 5.37-6.88h2.75c-1.52 1.63-3.13 3.92-4.83 6.88s-2.93 5.86-3.7 8.71-1.15 5.72-1.15 8.59c0 4.3.75 8.75 2.25 13.36h-2.64zm18.87-8.42l1.54-7.3h-11.68l.74-3.5 16.04-17.83h2.89l-3.81 18.2h4.02l-.64 3.13h-4.02l-1.54 7.3zm2.19-10.43l2.5-11.95-10.66 11.95zm10.31 2.93l3.44-.43c.26 2.01.84 3.44 1.73 4.31s2.06 1.3 3.51 1.3c1.74 0 3.25-.63 4.52-1.88s1.9-2.68 1.9-4.3c0-1.41-.48-2.57-1.43-3.49s-2.23-1.38-3.83-1.38c-.18 0-.56.03-1.13.08l.61-2.95c.34.05.66.08.98.08 2.02 0 3.57-.49 4.66-1.47s1.63-2.19 1.63-3.62c0-1.32-.45-2.42-1.34-3.32s-1.98-1.35-3.27-1.35c-1.26 0-2.4.46-3.41 1.38s-1.66 2.22-1.94 3.9l-3.48-.7c.57-2.36 1.67-4.18 3.3-5.47s3.55-1.93 5.78-1.93c2.34 0 4.24.71 5.69 2.13s2.18 3.16 2.18 5.23c0 1.51-.39 2.83-1.18 3.96s-1.97 2.06-3.54 2.8c1.12.66 1.96 1.46 2.51 2.4s.83 2.01.83 3.22c0 2.57-.96 4.79-2.88 6.67s-4.22 2.82-6.88 2.82c-2.59 0-4.68-.73-6.28-2.18s-2.48-3.39-2.67-5.81zm32.48 7.5l4.34-20.74h3.54l-.72 3.42c1.32-1.47 2.49-2.49 3.53-3.05s2.16-.84 3.37-.84c1.29 0 2.37.34 3.23 1.03.87.68 1.44 1.64 1.71 2.86 1.05-1.3 2.16-2.28 3.33-2.92s2.39-.97 3.68-.97c1.73 0 3.03.41 3.9 1.23s1.3 1.97 1.3 3.46c0 .64-.15 1.69-.45 3.16l-2.79 13.36h-3.54l2.85-13.71c.25-1.12.37-1.92.37-2.4 0-.68-.21-1.21-.64-1.6s-1.04-.59-1.82-.59c-1.05 0-2.13.32-3.22.96s-1.94 1.47-2.55 2.51-1.14 2.63-1.59 4.78l-2.11 10.06h-3.54l2.93-14c.21-.95.31-1.63.31-2.03 0-.68-.21-1.22-.63-1.64s-.97-.63-1.65-.63c-1 0-2.05.32-3.15.96s-2 1.53-2.69 2.67-1.26 2.76-1.7 4.87l-2.05 9.8h-3.54zm39.98-29.12c2.06 4.48 3.09 9.08 3.09 13.79 0 3.16-.41 6.1-1.24 8.81s-2.09 5.4-3.78 8.07c-1.13 1.77-2.92 4.06-5.37 6.88h-2.75c1.51-1.64 3.12-3.94 4.82-6.89 1.71-2.96 2.94-5.86 3.7-8.7.76-2.85 1.14-5.71 1.14-8.6 0-4.3-.75-8.74-2.25-13.34h2.64z"/>
 <text x="3463.4" y="984" font-family="Liberation Sans,Arial" font-size="30" stroke-width="10">Jackson<tspan x="3463.4" y="1021.5">Point</tspan></text>
 <text transform="scale(.1)" x="729" y="3508" font-size="3200" stroke-width="13">Cayman Islands </text>
 <text transform="scale(.1)" x="11025" y="5914" font-size="1800" stroke-width="13">(UK) </text>
 <text transform="scale(.09571 .10448)" x="12424.8" y="15743.75" font-size="1706" font-style="italic" font-weight="bold" stroke-width="13">Grand Cayman </text>
 <text transform="scale(.0826 .12108)" x="35582.21" y="10811.06" font-size="1384" font-style="italic" font-weight="bold" stroke-width="12">Little Cayman </text>
 <text transform="scale(.06874 .14547)" x="55585.31" y="8873.89" font-size="1452" font-style="italic" font-weight="bold" stroke-width="13">Cayman Brac </text>
 <text transform="scale(.09495 .10532)" x="2924.99" y="11156.96" fill="#2a7fff" font-size="2316" stroke-width="13">Caribbean Sea </text>
 <text transform="scale(.1)" x="5839" y="20196" font-size="1e3" font-weight="bold" stroke-width="13">GEORGE TOWN </text>
 <text transform="scale(.09495 .10532)" x="34179.87" y="20584.92" fill="#2a7fff" font-size="2316" stroke-width="13">Caribbean Sea </text>
 <text transform="scale(.1)" x="10919" y="19232" font-size="400" stroke-width="13">Bodden Town </text>
 <text transform="scale(.1)" x="13728" y="18855" font-size="400" stroke-width="13">East End </text>
 <text transform="scale(.1)" x="5853" y="17247" font-size="400" stroke-width="13">Coral Gables </text>
 <text transform="scale(.1)" x="9222" y="16714" font-size="400" stroke-width="13">Mount Pleasant </text>
 <text transform="scale(.1)" x="9278" y="17069" font-size="400" stroke-width="13">West Bay </text>
 <text transform="scale(.1)" x="12585" y="17772" font-size="400" stroke-width="13">Old Man Bay </text>
 <text transform="scale(.1)" x="10812" y="18568" font-size="400" stroke-width="13">Pedro </text>
 <text transform="scale(.1)" x="9618" y="18031" font-size="400" stroke-width="13">Prospect<tspan x="9618" y="18531">Park</tspan></text>
 <text transform="scale(.1)" x="9688" y="19250" font-size="400" stroke-width="13">Spotts </text>
 <text transform="scale(.1)" x="38054" y="11131" font-size="400" stroke-width="13">West End </text>
 <text transform="scale(.1)" x="40503" y="9009" font-size="400" stroke-width="13">Spot Bay </text>
 <text transform="scale(.1)" x="34493" y="11535" font-size="400" stroke-width="13">South Town </text>
</svg>
