<svg xmlns="http://www.w3.org/2000/svg" xmlns:xlink="http://www.w3.org/1999/xlink" width="536.58" height="536.395" version="1"><defs><clipPath id="p"><path d="M0 0z"/></clipPath><clipPath id="q"><path d="M0 0z"/></clipPath><clipPath id="r"><path d="M0 0z"/></clipPath><linearGradient x1="52.778" y1="-13.239" x2="22.014" y2="51.987" id="a" gradientUnits="userSpaceOnUse"><stop offset="0" stop-color="#ffe1b8"/><stop offset="1" stop-color="#ff8b00"/></linearGradient><linearGradient x1="-52.251" y1="457.03" x2="-52.251" y2="361.422" id="n" gradientUnits="userSpaceOnUse" gradientTransform="matrix(1.68 0 0 -1.68 899.213 789.76)"><stop offset="0" stop-color="#fff"/><stop offset="1" stop-color="#94caff"/><midPointStop offset=".5" stop-color="#fff"/></linearGradient><linearGradient x1="141.272" y1="70.428" x2="141.272" y2="158.071" id="i" gradientUnits="userSpaceOnUse" gradientTransform="matrix(1.68 0 0 1.68 -86.7 -86.7)"><stop offset="0" stop-color="#fff"/><stop offset="1" stop-color="#00a200"/><midPointStop offset=".5" stop-color="#fff"/></linearGradient><linearGradient x1="127.662" y1="63.215" x2="127.662" y2="183.368" id="f" gradientUnits="userSpaceOnUse" gradientTransform="matrix(1.68 0 0 1.68 599.333 -89.72)"><stop offset="0" stop-color="#006a00"/><stop offset=".2" stop-color="#009800"/><stop offset="1" stop-color="#00d000"/><midPointStop offset=".5" stop-color="#006a00"/><midPointStop offset=".5" stop-color="#033"/></linearGradient><linearGradient x1="-117.002" y1="397.34" x2="12.991" y2="397.34" id="d" gradientUnits="userSpaceOnUse" gradientTransform="matrix(1.68 0 0 -1.68 899.21 789.763)"><stop offset="0" stop-color="#0053bd"/><stop offset=".994" stop-color="#0032a4"/><midPointStop offset=".5" stop-color="#0053bd"/></linearGradient><radialGradient cx="-57.022" cy="439.632" r="97.988" fx="-57.022" fy="439.632" id="e" gradientUnits="userSpaceOnUse" gradientTransform="matrix(1.68 0 0 -1.68 899.213 789.76)"><stop offset="0" stop-color="#fff"/><stop offset=".596" stop-color="#57adff"/><stop offset=".994" stop-color="#c9e6ff"/><midPointStop offset=".5" stop-color="#fff"/><midPointStop offset=".5" stop-color="#57adff"/></radialGradient><linearGradient x1="-52.251" y1="457.03" x2="-52.251" y2="361.422" id="g" gradientUnits="userSpaceOnUse" gradientTransform="matrix(1.68 0 0 -1.68 899.213 789.76)"><stop offset="0" stop-color="#fff"/><stop offset="1" stop-color="#94caff"/><midPointStop offset=".5" stop-color="#fff"/></linearGradient><linearGradient x1="141.272" y1="70.428" x2="141.272" y2="158.071" id="h" gradientUnits="userSpaceOnUse" gradientTransform="matrix(1.68 0 0 1.68 -86.7 -86.7)"><stop offset="0" stop-color="#fff"/><stop offset=".497" stop-color="#00a100"/><stop offset=".994"/><midPointStop offset=".5" stop-color="#fff"/></linearGradient><linearGradient id="j"><stop offset="0" stop-color="#b5b5b5"/><stop offset="1" stop-color="#b5b5b5" stop-opacity="0"/></linearGradient><linearGradient id="c"><stop offset="0" stop-color="#676767"/><stop offset="1" stop-color="#656565" stop-opacity="0"/></linearGradient><clipPath id="s"><path d="M0 0z"/></clipPath><linearGradient gradientTransform="matrix(1.68 0 0 1.68 599.333 -89.72)" gradientUnits="userSpaceOnUse" id="m" y2="183.368" x2="127.662" y1="63.215" x1="127.662"><stop offset="0" stop-color="#6a0000"/><stop offset=".573" stop-color="#569b0f"/><stop offset="1" stop-color="#4ce72c"/><midPointStop offset=".5" stop-color="#006a00"/><midPointStop offset=".5" stop-color="#033"/></linearGradient><linearGradient id="k"><stop offset="0" stop-opacity="0"/><stop offset=".567" stop-opacity=".176"/><stop offset="1" stop-opacity=".319"/></linearGradient><linearGradient id="l"><stop offset="0" stop-opacity="0"/><stop offset=".415" stop-opacity=".004"/><stop offset=".568" stop-opacity=".027"/><stop offset=".772" stop-opacity=".078"/><stop offset=".889" stop-opacity=".176"/><stop offset="1" stop-opacity=".319"/></linearGradient><linearGradient id="b"><stop offset="0" stop-opacity="0"/><stop offset=".493" stop-opacity=".024"/><stop offset=".571" stop-opacity=".035"/><stop offset=".636" stop-opacity=".067"/><stop offset=".696" stop-opacity=".149"/><stop offset=".73" stop-opacity=".213"/><stop offset="1" stop-opacity=".546"/></linearGradient><radialGradient xlink:href="#b" id="o" gradientUnits="userSpaceOnUse" gradientTransform="matrix(-.21405 1.37577 -1.24566 -.19403 303.111 18.169)" cx="99.958" cy="139.375" fx="99.958" fy="139.375" r="45.07"/><radialGradient gradientUnits="userSpaceOnUse" fy="189.75" fx="265.1" r="349.8" cy="189.75" cx="265.1" id="t"><stop offset="0" stop-opacity="0"/><stop offset=".49" stop-opacity=".023"/><stop offset=".57" stop-opacity=".035"/><stop offset=".64" stop-opacity=".067"/><stop offset=".7" stop-opacity=".149"/><stop offset=".73" stop-opacity=".213"/><stop offset="1" stop-opacity=".546"/></radialGradient></defs><path transform="matrix(5.83306 1.28954 -1.28906 5.83088 -206.048 -727.013)" d="M158.392 145.58a44.901 44.901 0 1 1-89.803 0 44.901 44.901 0 1 1 89.803 0z" opacity=".259" fill="url(#o)" fill-rule="evenodd"/><path d="M535.774 268.188c.836-94.49-52.964-187.186-135.828-232.722-81.819-47.567-188.99-46.022-269.577 3.567C48.155 87.335-3.593 182.659 1.079 277.997c2.39 96.32 62.075 188.73 149.203 230.046 83.805 42.642 190.092 35.24 267.497-18.13 73.075-48.321 118.533-134.122 117.995-221.725z" fill="#fff"/><path d="M276.601 16.448l1.781.594 3.25-.594h-2.656zm-1.5.281l.312.594-1.78-.281-1.22.875-.875-.594-2.25.625 3.75.281 3.25-1.187zm-5.813 1.22l-.437-.032.031.125zm-.406.093l-.625.187h-.594l-.593-.593-9.813 4.156-3.25.875-2.094 1.781h2.375v.594l-7.125 4.781-2.968.875 1.781-1.187-2.688-.282h3.282l2.093-.906.594-2.094-2.094.594 1.5-1.469-4.468 1.47.281.593-.875-.281.281.593h-2.375l-.875 1.188 2.063.594-1.782 1.187v-.875l-.593.875-.594-.594-2.063.907.875-.594h-1.78l-.595-.594-2.375.594-1.78-.594-6.25 1.781h-2.97l-.593.594-.594.594h-1.781l.593-.594.875.594.313-1.188-9.219.282-1.187.593 3.562.313-2.375.281.313.594-1.782-.875-2.093.281 2.687 1.781-2.969-1.187-1.812.312-.281.875v-1.187l-2.375.594.531-.532.344-.062h-2.063l.875-.875-1.594.219 2.188-.813-1.781-.312-1.188.312.563.844-4.719.625.594-1.469-1.782 1.781-1.468-.312-1.5-1.188-.594 1.5-.313-.312-1.468.312 1.187-1.187-.312-.313-2.657.907.875-1.188-2.968.281-.282 1.5-.593-.593-1.782.875 2.063-1.188-4.156.594.593-1.188-.593.907-.907-.313-1.187 1.781.312-2.062h-1.187l-.594.875.594-1.188-1.781.907 1.468-.907-2.656 1.5 1.781-1.5-3.28 1.782.593-.594-1.188.312-1.78.594v.594l-.282-.313-1.188.594.282.594-.594-.594-1.469 1.188.281-1.188h-.28l-1.813.594V36.948h-.594l-1.188.281.594-.875-1.469 1.47-1.5-.595-2.062.907-3.281-.594h1.781v-.906l.906.906 5.344-2.969-4.469.281-.875.594-.594-.875-.375.25-4.968-1.75-3.875.594-.907-.594-4.437 1.188-3.875 1.5-2.094 1.468-1.781.594 2.094-.875-1.188.281-8.906 4.157-.906.312-2.094 1.188-5.031 3.28-4.469 2.97-10.094 6.25-.594.28-.312.313-6.531 4.782-.313.28v.282l-1.125.656-2.719 2.313-.906.594-3.656 3.406 3.656-3.125 1.5-1.188 7.438-5.625 4.156-2.687-6.25 5.062-3.563 2.375-2.968 2.063-4.469 3.875-1.781 1.5-.907.875-5.343 5.062h-.282l-4.468 4.438-.875.625-7.75 8.312-4.157 4.75-.5.688-.687.5-7.125 9.219-4.156 5.343-2.188 3.063-.062.094-.125.125h-.032l-.187.343-.375.532-.5.78-.063.095-.062.03-.125.282-.844 1.281-.5.5-.531 1.094-.063.094v.03l-5.406 8.563 7.781-11.25 1.188-1.5 2.969-3.25 1.187-.906-.594.906-.28.282.874-.282 2.969-2.968 1.187-.907-.875 2.094 1.188-1.187-1.5 2.062v-.281l-.594 2.375 1.188-.594-1.407 1.719-.656 1.531-2.687 5.063-.282.906-3 4.437v.907l-.875 1.187.875-.906-.593 1.5v.875l.906-1.469-5.063 13.375-.28.281-.595.594v2.094l-.312.594-.594 1.468v.032l-.281.593-3.281 5.625-2.063 1.188v1.187h-.906l-1.5 2.375-.281.907-2.375 3.28-1.188 2.97-.906.593-.281 1.782-.313.593 3.281-2.093 7.72-10.407 3.28-3.562 1.782.906.593-.906-.593 1.188.875.906 1.812 2.062 1.469 5.375.594-2.093.593.875.907-2.063-.907 2.969.594.906.906-1.187h-.593l.875-.625v-2.063l.906.875-.906 1.813 1.781-1.813-2.656 3 3.25-3.594 1.5-3.562-.594 2.094.344-.594h.843l.157-.313h.718l1.782-4.156.906-.281-2.375 3.844 3.875-3.25.594 1.78-2.094-.312-2.688 3.875-2.375.875h3.563l3.875-3.843-2.375 3.562 2.094.594 2.375-1.781 1.468.875.594 5.656 1.188-.875-.875 1.469.281 2.968 1.5-.875-1.188-.312 2.063-3.25 4.469-.313v1.188l1.187-.594-.594 1.781 2.375-.28-1.187.593.906 1.187-.594.875 1.47 2.094 1.5-1.5-.595 2.375 3.563 3.875-2.094-.312.594 3.875-1.469-.875.875-1.782-2.969-2.687-2.375 1.187-.906 2.688 3.875.875-.281 2.094.875-.594 2.687 5.031.594.594 1.469-3.563-1.188-3.25 1.5-5.062 2.657-1.781-.282-1.782h2.688l-.906-1.78.906-.907.281-2.656.313 3.843 1.781 1.5 2.062-2.093v-4.157l-2.062-3.875-6.563-4.437 3.282 1.781 1.781-1.187 3.875 4.75 2.375.28h1.187l2.063 15.782.312.281 4.157.594 1.5 3.563 3.25 1.5.906-2.094.594 1.187-.313-2.375.594 1.782.594-1.47 2.093-.312 1.188-2.656-1.781-1.187 2.062-.594.313-3-3.563-2.375-1.5-1.188 1.781 1.188 3.282 2.094-1.5-2.375 3.281 3.843.312-2.062h.594l-.906-2.094 1.187-.594-.875-.593h1.188l-2.375-.594 2.062.312-.593-1.187h.906l-.313-.313-1.468-.875 3.25-.906-.875-.281.875-.313v-2.968l1.187.593v-1.5l.313.907.281-1.782.594.875.593-2.062-.28 2.062 2.062-.28.906-3.282.875 1.187.906-2.375h.875l-.875-1.187 2.063.594-.875-1.782 1.781.907 1.5-1.188-.594-1.781.875.875 2.969-3.875 1.187.312.313-1.187-2.688-.313-1.468 1.5-.594-1.187-.594 1.187-1.187-1.187-2.094 1.187 2.094-1.78-3.282-1.188 2.063-1.5-2.375-.594 3.281-.281-.312-3.875 1.218.312-.906.875h2.094v-.875l2.656-.906.313-2.375v2.375l4.156-1.188-1.188-.28 1.47-3.595 1.78-.593v-1.188l3.875-3.562-1.468-.875 2.656-5.657-1.188-1.187-2.968 1.781-2.969-.594v1.188l-3.281 1.5-5.032-1.5-3 3.875-6.53 2.656h.593l-1.781 1.5.312-1.5h.875l-3.844-1.187-1.5-3.844-2.093 2.062-7.407 3.563-1.5-.875-2.375 1.187 2.094-1.78-1.812-.313.312-.594.906-1.781 1.47-.282 5.343-5.375 8.344-2.062 2.062-5.938 12.188-12.5.312-3.875 1.188.907 5.937-1.782 1.188-1.78h-1.5l3.281-1.5 5.062.593 2.97 2.375 1.187-.594.875 3 1.5-.906-.907 1.781.907 1.188 2.687-1.782v-1.187l.594.594 2.062-2.688 1.188.313-5.344 4.75 2.094 1.187-1.188 2.688 3.25 1.78 5.657-5.937-.313 1.782-4.437 3.562 2.656 2.063 2.094-1.188-2.969 4.469 3.562-2.375-.593 2.062-2.375.907 3.562 2.687 4.75-2.094.313 1.782 1.468-1.188 1.188.906 2.094-2.687.281.906 1.781-3.875-5.031 1.188.594-1.188-5.657-1.187-.312-1.5 8.031-.875 1.781-1.188-3.843-1.5 5.625-1.187-.282 1.5 2.375-3.282 1.188.594.906.313-.906 1.187 9.219-2.375-3.282-3.281-1.187.875-2.375-.875-.594-.313-3.875 3.282.313-1.188-2.094-.594.594.875-2.063.313-.594-2.688-3.562-.28 2.062-1.5 2.97 1.187-.595-1.188.907.594 1.468-.875.594-1.781-1.75.218.563-.218-1.188-.907.906-1.468 2.094-2.688 2.656-.875 1.782-1.812 3.875-.594.281-3.844-1.469 1.469-.594 2.375-.312-3.563-3.25.594-1.188-.281 1.47-.906h-2.97l4.157-.594v.906l4.75-1.5.906-2.375 4.469-3.25 1.468.281-1.187 1.782 2.969-.282 2.375-2.093 5.343-1.782 3.282-.906 2.093-2.656 1.782 1.187.593.282-.312-.594-.594-1.781 3.563.312 3 .281-2.094-.593.594-.594 2.375-3.563.312 2.375v.594l.875-1.187 2.094-2.97 1.469-.905 1.5.906 1.187-2.094-2.094-.875 8.625-.312h5.938l12.5-1.47 2.062.282-.28.906 2.968-.593 1.5.875 1.187-1.188-.312 1.188 1.187.593 2.094-1.468 2.656-.313.313-1.187.281.312.313.281 2.656-.593.906-.875 2.688-2.688h3.843l1.5-1.187-4.468-2.063-.594-1.5-3.875-.281-.281-1.219-2.375-.281h2.468l-.687-.594h5.062l.875 1.188 7.438-1.5-3.563-1.47h1.782l-1.188-1.5-6.25-.874v.594l-.594-.594-2.093 1.187-2.063-.593 1.469-.594-1.469-1.188.875-.906 2.406.313 2.375-1.188 2.063.594 4.469-3.281-1.188-1.188h-1.781l.875-.281-3.844-.625 2.656-.281-.593-1.5-4.75.593-1.5-2.062 1.5-.906-4.157.593-.906-.28-2.656-.907-.906 1.5-.875-.906-3.282.906 1.782-1.5-.594-1.469 6.531-2.094.906-.28zm2.156 21.875l1.688 1.5-1.5-1.5zM49.195 128.198l-1.782 2.063v.906zm7.218-14.625l.22-.531-.282.594zm-15.28 13.688l-.845 1.218-.625 1.125zm-1.47 2.343l-1.75 2.75-1.187 2.094 2.375-3.875zm-2.937 4.844l-2.375 4.156-.313.282-1.187 2.093-1.469 2.938.281-.281-1.78 3.593.593-1.5-4.156 8.313-1.782 3.875-3.28 7.719.312-1.188-1.5 4.469-.594 1.469.312-1.47-2.093 5.97v.28l-.313.626-1.75 5V180.198l-.156.594-.063.187-.093.407-.063.062-.031.031-.188.22-.187.905-.031.063-.094.5-.281.906-.313.594-.281.906-.313.875 2.375-4.75 1.188-2.687 2.687-7.72 3.844-10.405 1.219-2.97h.281l1.781-2.687.594-1.187v.312l-1.187 2.063 1.5-1.469.593-1.187 1.188-.313 2.375-5.344 2.062-5.937-1.78 2.062v-.875l1.5-3.28zm-23.188 52l-.28.594v.344l-.313 1.156.312-.906v-.032l.281-.843zM98.008 61.98l1.124-.937v-.031l-1.469 1.187zM252.82 20.292l-2.969 1.5.875.281h-1.781l.312.594h2.375l.281-.594 1.188.313-.875-.907 2.375.313.594-.594-1.782-.312-.906.312zm-2.094 2.687l-2.063.875 2.375-.28zm32.094 2.97l-1.469.28 1.187.907h2.97zm-2.969.874l-2.063.594 1.188.312 1.781-.312zm-85.594 1.813l-5.344.875 3.563-.282-.594.594 2.063-.594v1.782l.906-1.782v.875l2.687-.593zm78.156.28l.032.063.28-.062 1.188.906 2.97.594-3.845-.594-.593-.844-.438.094-3.437 1.344.281.875-.594.594v-.594l.313-1.469 3.437-.75zm-72.812 1.782l-2.375.313h-1.469l.875.875 2.094-.594-1.188.594 4.75-.282-1.78-.593-.907.28zm3.281 0l.875 1.188h1.188zm-25.875.594l-1.781 1.187-.875.313h-.313l-.156.094h-.062l-4.532.78-1.468 1.5-.594-.905-5.063 2.687 7.72-1.781 1.5-.313 8.312-3.562-1.5.312-1.469.875zm32.406 0l.594.594-2.375.312h2.688l-2.094.281v.313l3.562-.906zm-3.562.312l-.594 1.188 1.469.875 2.094-.281zm-21.094.594l-.312.594h1.5zm11.875 0l-.875.281.281.594h.594zm-.594.875l-.593-.594-.875.594zm92.438.313l-2.063.28 5.938 2.095.281-.907zm-106.688 1.78l-.312.876 1.781-.875-2.375 1.469-4.156 1.78 1.187-1.187 2.97-.593zm38.938 0l1.781.282-.594.906v-.312zm-11.313.282l.907 1.5 1.781-.906-1.5.906.906.594-2.969-1.188zm83.22 1.781l1.78 1.188-2.375.312-.593.875 1.5.907-3.282-1.188.313.875-1.5-.594-2.063.907 2.97 2.375 3.25 1.187 2.093.313-.313-2.375.594 3.843 5.969 5.344 4.437 3.875 4.47 1.5 2.062 1.469.906.906h.594l1.187-.906-.281-1.781 1.781-.282 2.063 2.657-.594 1.5h2.094l5.343 3.843h2.97l-.876 2.688h-.312l-.875 2.375 2.656 2.969 4.469 2.687.593 4.75-1.78-.906v2.094l1.187 1.187 4.156.594-2.688.906 1.188-.906-2.656-.281 2.656 6.218.906-.593 1.781.906h.313v-.313l.281.313.594-.313h.906l.594-.28h.594l.281-.313.906 2.093h2.063l-.875 2.375 2.062 2.375-1.469 1.5 6.22 1.188-4.438 3.844-1.188-1.47-.906 1.47-.875-1.188-2.094.906.906 2.657-1.78 2.093 4.75 1.47.28 3.28-.875 1.782-1.5-.594-.28 3.281 2.655 2.656-3.562.313 1.5.594-1.781.593.281 1.782 1.5.593v-1.5l2.062 5.375 1.782 1.47-3.844-2.376-7.156-8.031-2.657.906 1.188-.906-1.188-.594-4.156 2.094 1.188 4.156-1.782-1.187-1.187 2.968-1.188-2.062-1.78 1.469 2.655 2.968 2.688.907-.313.875-.28.906 2.374-.313-1.187.594 1.187 3.594-1.187-.906-.907 2.687.907.594.281-1.188.594 8 2.093 1.188-1.5.312 4.75 1.188-2.656 7.125 4.469 2.375 5.031-.875 6.531 4.156.907-1.781-.875 1.781.875.594-1.469.312-.594 1.188h-.031l.594-1.219h-.875l-2.969-2.375 1.188 1.781-3.875-4.156-1.188 1.781-2.375.907-2.375.593v1.47l1.781.312-1.781 2.093h5.656l-2.968 1.782-7.157-3.594 2.688 1.812.875 4.157 4.187 1.187 1.782 2.063 2.656 2.968 1.781-2.656 2.969-1.187 2.687 1.468 1.188 2.094 2.375-.594-2.656 1.188-4.782-2.969-1.187 2.656 3.875 3.282 2.375 7.718-5.063 2.375 2.094-4.156-3.281-6.812-2.656-.594-3.563-3.281-3-2.97-2.969-.905-3.562-4.438-1.781.281-2.063 1.782 3.563 5.343v2.97l3.562 3.874 1.5 1.5 1.469-1.187 3.281.593 1.469 3.844-3.781-.531 3.906 3.062.625.375.625 4.907-1.125 6.625-1.5 6.03 7.25 10.032-.25.5v1.25l1.031 1 1.875 3.406 1.625 4.375 2.5 6.657-.625 1.75.25 3 1.25 1h2.125l1.156.5.75 1.625-.75 2.406-2.906 2.75-.375 1.25 1.125 1.125 4.281 2 .5-.375h1l.875-1.5 1-2.125.875-.75 1.375.125.625.875.375 4.5 1 1v.531l.5.5 1.532.125 3.5 1-.125 1.125 1.125.125.5.5 1.125-.625 1 .5.75-.875.625.375 1.03 2.25-.655.875-1.5 1.5-1.25-.25-.22 1.25v.063l.47.875h-.032l-.437-.875-.156.812-.5-.625-1.375 1-1.375-.25-.375-.875-.875.25-.875 1-2.282.125-1.5.906-2.625.625-2.875 1-2.25 1.75-1.656 1.375-1.625 1.125-2.125 2v1.375l1 3.157 4.531 3.875.75 2.875.5 2.156 1.125 1 1 1.25v1.031l3.907-1.375 1.187.875.906 5.344h1.782l-5.344 2.406-.313 2.969 2.375.594-3.875 1.187.313 1.188h2.094l2.968 3.843 5.032-.281v2.969l3 3.562-1.22-3.875 1.813-1.781 5.032 2.688-2.063 3.28-3.281-.593.594 3.844 1.78 1.5-.874-.906 2.062-.875 1.5 1.78h-1.78l.593 2.063.875-1.187 1.781.906 3.563 8.625-6.22 4.438h-10.124l-2.969-4.75.906-2.657-.558-3.88 2.154-1.93-3.005-.123-1.125-.617-4.287-.37-3.468-.441-2.246.302-.877.062-1.319.116-2.422.497-1.745-.06-6.837.006-6.404-.313-3.305.003 5.365 2.357 2.736 3.204-.907 2.375-3.562 3.25h-.281v.594l.28.906-.312-.906v-.594l-5.625 1.782h-6.843l-5.344-2.657-5.656 1.47-6.532 5.655-7.125.282.594 1.812 2.375.281-3.281.594v1.5l-7.719.594-2.094 2.375-.28 2.062 3.25-.875-.595 4.157 1.782.906-1.782.875-.875-1.781-.593 2.093 3.843.875-.875 1.5 2.375 1.47-1.187 1.5 3.875-.907-3.281 2.094 3.875-1.5 4.75 2.968 2.656-.875.593-2.969 2.094-.312 6.25 2.687 4.156-1.781 2.063-2.969 2.687.594 2.688-2.094-.594 5.938 1.781 4.156-4.468 15.187-8.032 2.657-1.187-1.782-3.25.313-7.438 4.437-8.625-1.78-6.843.312-1.188-1.782-6.531-.593-.906-1.782-5.344-1.218-6.531 3.28v5.657l-.313.281-4.156 2.094-4.438-2.687-8.343-2.375-2.063-4.438-6.844-2.687-4.156-.313-7.75-5.031-.594-1.781 4.782-4.157-2.094-4.187 2.375-3.844-2.375 1.188-2.094-2.97-7.125.876-5.344-2.063-4.156 1.188-5.062-2.375-10.407-.594-4.437 1.469v1.187l-.313.594.282-.594v-1.187l-3.25-.281-4.157 1.468-3.28-1.187v-1.469l-6.25-1.187-1.782-4.188h-1.781l-5.032 5.969-10.406 2.375-3.281 3.844-.906 5.562-.282.094-2.687 2.094-5.625 1.78-5.375-1.187-4.156 3.563-3.25.281-3.282 4.75-3.656.969-6.75 5.281-1.187 3.281.906-.906 1.469 5.063-2.063 2.093.594 6.813-2.688 4.469 1.188-.594 6.844 3.562 2.656 3.563 2.094 4.75-5.063-8.313-6.531-3.28-1.188.312-.875 1.468-4.187 1.22 2.969 5.03-.282 1.782 3.563 1.5-2.969-.594-1.187-1.5-.907 2.687 2.094 1.188-2.094-.594 2.688 1.781h-1.5l1.812 1.5-.312.594 3.875 1.469-2.375-.594 1.781 1.5h-2.094l.907 1.781 1.187-.312-.594.906 1.47.281.593 3.282 1.5 1.468 2.969 1.5-2.969-1.468 1.781 1.78-.906.282 1.5 1.5.281 2.969 1.188.594-1.782-.594 2.97 3.844-.282.906 5.062 4.469 9.5 10.687 5.063 3.563 5.625.312 8.937 2.656 8.625 4.75H183.257l11 1.5-2.062.313 4.75 1.187 2.656 2.375 2.094.875-1.5-.28.906.874 1.187-.281-1.5.875 2.97 2.969 3.28.593v-.593l.594.906-.281-1.188.875 1.188.312-1.188 1.188 1.188 4.437.594-.28-1.188 1.468 1.469 1.187-.594 1.782 2.688h2.406l.281.875-1.187-.282 2.093 2.375-2.968 5.063 1.468.594v1.468l-1.78-.28 3.28 1.187h-2.375l-.593-.907-1.219 2.688-1.781-.313 4.187 5.063 9.781 6.25 2.094 3.25 2.375.906-1.781.281 5.344 5.375-1.782 1.188 1.782 2.062 2.375 2.094-.875 2.094-5.063 1.781-2.969 3.563.594 2.968 12.469 6.844 2.687 3.25 9.813 2.688h7.437l.594.28H271.538l.594-.28h9.219l.594-.313h4.468l.594-.281h3.844l.594-.313h2.687l.594-.28h2.656l.594-.313h2.094l.593-.282h1.5l.594-.312h1.781l.594-.281h1.469l.594-.313h1.5l.593-.281h1.782l.593-.313h.313l1.781-.593 5.031-1.188 3.282-2.062-.594.28h-1.188l13.375-4.155.875-1.782-2.968-1.187.312-1.188h.875l6.563-2.375 2.656-2.093 13.375-5.657.906-.593 4.156-3.25-1.187-2.688.875-.594-.594-2.375 1.5-1.5-2.687-.28h-1.188l-.594.312h-.593l-.594.28.594-.312h.593l.594-.28-1.469-2.97.875-1.187-1.187.281 1.781-2.062-3.25-1.188 2.063-3.875 3.562-4.75.906-1.187 3.563-2.375-.906-.594 2.406-.594 9.781-10.406 10.125-8.625 8.031-9.219 10.094-20.5v-2.969l1.781-1.5-1.5.907.625-5.063-2.093.281-5.063 4.782-8.312 4.156-3.563 3.25-2.687.312-5.032 3.875-6.25-2.093-2.687 1.187 3.281-2.687-.312-1.782-9.813-4.156h-4.437l-.907-.875-.593-.594-.594 1.782-6.25-9.532-5.031-1.468-2.375-8.625.875.312-2.375-3.281-5.344-2.375-1.188-3.563 1.188-.312-2.969-1.781-8.031-12.188-4.469-3.875-.875-3.844 3.563 5.344 4.468 2.375 2.063-8.031-.875 6.25 2.656-.281 9.531 9.5 1.47 3.28 4.468 1.188 3.562 4.438.875 5.062 3.875 1.5 3.563 1.47 9.531 8.624.281 5.344 4.75 7.719 6.563-2.657 2.062-3.28 11.907-7.438 2.375-3.25 10.406-8.625.594-3.563 8.906-7.125.875-3.594 3.281-2.375.906-3.843 3.25-3.282-1.187-4.156.906-2.094h1.188l2.375-9.5-4.75-2.375-5.969 1.782-2.375-.594-2.656-3.563v-3.28l-5.938 13.093-5.375 2.656-1.469 2.094h-3.28l-.595-6.844-2.062.906.281 5.344-3.875-3.562-.281-2.97-5.656-1.5-4.75-5.655-1.188.593 1.5-1.468-1.187-1.5h-.031l-.282-.282 3.282-1.187v-1.5l2.375.312 1.78-1.5.595.594 6.53 5.938 4.157-.594 5.344 1.187 4.187-1.187 5.344-6.531 3.844 3.875 9.531-3.875 5.938-2.97 13.375-13.374 1.78 2.062 1.782-1.187 1.781 2.375.594-.594-.281-7.719-3.563-3.562 3.563 3.281v.281l.281 6.844h.875l.906-.906.594 1.781.906-2.656-.593 2.375 3.28.281 3.25-3.844-.28 2.063-2.97 4.187 7.407.282 2.688-5.344-.907-4.156 1.5-1.5-.593 2.093.593.875.875-1.187-.281 2.375 1.5.906.594 3.844 6.531 9.812 10.688 8.032 1.78 2.375 1.5 2.375 2.97-.875 1.187-2.375v-2.688l2.063-3.875-.875.594.28-2.375v-1.469l1.5-1.781-1.5-3.875v-3.563l-.28-.593.312.593v-3.28l-2.406-4.438-.281-2.375 1.468-2.407v-2.968l2.094-4.157-.594-1.468 2.094-9.813.281-6.25 1.5-5.937v-4.75l-1.187-1.5.875-3.875-.281-2.375 1.187 1.187v-2.656h1.188l-.594-1.5.875.594-.281-2.063h.875l-.875-2.094 1.468.594-.875-3.562 1.188 1.5v-.907l-1.188-1.5 1.188-2.375 5.937 2.97-.281-2.376.594 1.781 1.187-2.062 1.188.594-.594 2.062 1.469-.281-.594-1.781 2.969 3.25 1.781 5.968v-2.375l.313 2.063v-1.469l.875-.312-.282-1.782h.875l-.593-2.375.593-2.687-.875-.281.875-.313v-2.375l-.875-2.062 1.782 1.187.28-1.5 2.095 4.469 1.78 2.375-.28-1.5 1.78 1.5.595 3.281.593-.906.282 4.469.906 1.78v-.312l-.313-1.468.313 1.187.875 6.219.312-1.781 2.063-.282h.312l1.188 4.47 1.187 1.187 1.469-4.188.313-2.656v-.594l-.594-.906-.594-4.438-.312-1.187-1.782 2.062-.875 3.282-1.5-2.688-.593-.875-.282 2.375-.593-1.781-.313-.906-.875-8.032-.312-.593v-.282l-.282-.312-.906-2.063.594-4.156.906 2.656.594-3.562 1.187-1.781 1.469 1.78-.281-2.374.594 1.781v-1.5l1.187-2.969v.313l.875 4.156.313-1.781-.313-5.063-.594-.28-.875.874-1.781-2.969.875 1.188-.281-4.156v-1.782l-2.969-5.937-.594.875-.312-2.063-1.469.594.875-1.187 1.5.875.875 2.375.906.312v1.188l1.188 2.656v.312l.281 5.657 1.188 1.187.593-2.969v-1.187l-.281-.906.281-1.188-.593-9.219-1.188-4.156v-.906l-2.969-5.031h-1.187l-1.188 2.656h-3.25l-1.5-3.563-.312-3.562-.875-1.188.281-.593-.594-.282v-2.406l-.593-2.969v-2.656l-.594-.906.906-.875-.594-2.688.282-.593 1.187 2.687.906.594v-1.188l-1.781-3.28.281.312-.593-5.063-.594-.906v-2.063l-.281-.906v-1.469l-1.188-1.5.875.313-.594-1.5.313-.281-1.781-1.5 1.468-1.5-.593-.282-.594-2.687.312.312-.906-2.375.594-.312-.875-3.844-.906-1.5-.282.594-.593-3.281-.594-1.188.281-.281-1.469-2.969-.312.594-.594-2.969-.594-.594-.281-1.5-.625-.28v-1.188l-.875-1.188.281-.625-1.468-.875-.907-2.375.313 1.188-.313-.907-.593.313v-1.5l-3.25-5.031-.313.28-1.187-3.562h-.594l-.875-1.78-.313.593-.594-2.094-.593-.594.593 2.094-1.468-3.281v1.187l.281.594-.313-.594v-.593l-.28 1.5 1.187 3.843-3.282-7.125-1.187 1.782.312 2.093-.906-5.343-1.187 1.78-3.844-1.5-.313.907v1.781l-.875-.593-2.375-3.563h-.03l-.032-.031-.844-1.469h-.593l-.313-1.5-1.187-1.187-2.063-4.157v-1.468l-1.781-1.188.281 5.031 1.5 2.688 1.469 3.281-2.656-.906v2.969l-2.094-1.188-.875-4.156-2.969-4.156h-.031l-.031-.032-2.938-4.125-1.469-2.687 1.47-.313 3.874 4.47-.594-2.063 2.688 3.562-5.375-9.219-1.188-5.062 2.688 2.375.281-.875.906 1.781 1.5 1.781-.625-1.78.907.874-.594-1.469-.313-.593-.28-2.094 2.374.594-.281.593 1.187 1.5.594-.312-.906-.594 1.5.906-.594-1.187 3.563 3.25.875-.281.312 1.187.594-.312-2.094-2.969.594.312-1.188-1.187.313-.594-.906-.312-.282-1.782-1.187-1.187-.313-1.188-2.968-2.687-2.688-1.188-2.969.907-.593 2.062-1.47-1.187-5.655-7.407-2.688-1.187-2.656-3-1.188-.281-.312-1.5-2.969-2.063.313-2.687-5.375-5.938-12.47-9.219-9.812-5.343-1.78-.907-3.25-.28h-.032l-2.375-.313-5.938-2.375-2.062 1.781-.313-1.188-1.187-.593-.594 2.968-.281.313 1.469 2.375h1.187l2.969 2.687-2.969-.906 2.969 1.781-2.969-.28 1.5 2.374-.594.875-8.625-5.937-6.25-2.969-8.625-3.875-5.03-5.031.28-.907-1.5-.28-2.968-4.188-2.375-.282-2.969-4.75 2.375 1.782.594-.594-7.438-5.063-.594.594 1.5 1.188h-1.187l-8.906-1.469-6.563-3.281-.594.312-.875.281-.593.313-.907.594.907-.625.593-.282.875-.312.594-.281-.594-.594h1.782l.593-.313.313-.28h.594l-.907-.595 1.5-.312-6.53-1.188-1.782-.875-2.094 1.188-2.687-.906-.594-1.188 2.406.906 4.156-1.78 4.438 1.78 6.843.594 5.938.875 3.281 2.094h4.75l4.75-.313 8.938-4.437-7.75-2.094-1.469.594-3.563-2.375-.312.312h-.594l-.281.282h-.594l-.594.312-5.968-2.687-3.25 1.5-2.688-1.5-1.187 2.093-2.375-.312 2.375 2.094-8.313.28-1.781-.874v-.594l-4.469-.594 1.5-1.187-2.687.281-4.75-2.062-.907-2.094-1.468.594-8.344-.313-8.594-1.187-3.594-1.782-1.468.313v4.469l.281-.594.594 1.469 3 .593-.594.313 2.062.875-8.312-2.656-1.188.28-2.093.595-.875 1.78-1.782-.28 1.188-2.094-3.563-.875-1.187-2.094-3-1.781-.875.594v-.907zm238.374 217l-.594 3.25.594-.28.594-1.188-.594-.313v-.281l.313-.313v-.28h-.313l.313-1.5zm-405.5 114.188l.094-.063-.906.282zm8.719-327.313l-.594.313h-1.187v-.031h1.187zm14.562 0l.594.282h1.781l.594.312-.594-.281h-1.78zm34.782.594l-3.282.313-.406.28h.094l-3.25 2.095 3.156-2.094-3.469-.281zm-22.907 1.781h.594l.625.313h-.312zm2.094.594h.281l.907.313h-.313zm2.063.594h.593l.625.312h-.312zm182.812 0l2.063.906 1.812-.312zm-179.844.906h.313l.594.281.906.313.594.281h-.313l-.594-.281-.906-.313zm5.657 2.063h.312l.875.312.594.281.906.313.594.281.312.219-.625-.219-.593-.281-.875-.313-.594-.28zm60.343.593l.313.907h-.031zm151.875 1.188l3.563 1.187-2.375-1.187zm-151 .312h.032l.593 1.188.594.875-.625-.875zm-53.156 1.313l1.469.469.281.28-.875-.28-.625-.313zm29.406.156l.063.063.219-.063.5.625.687.563 5.656.312 2.97-1.5H224.287l1.782 2.375-2.969-2.375-5.969 2.094-4.75-.594-.687-.875-.719-.562-7.5 1.718-1.781-.593 1.781.312zm-25.53 1.594l.562.187.281.313-.375-.219-2.281 2.313-1.782.593 4.032-2.906-.188-.094zm-70.5.187l-.282.907-.906.312-.594.594-1.781.875 1.5-.875zm72.53.875l.907.313.343.344-.937-.313zm-65.968 1.22l-3.282 1.78.907-.593h-.594zm68.343 0l.594.312.281.187-.562-.187zm11.594 0l-.594 2.093 1.5-.313-2.093 1.782 3.281-1.47 1.781-2.093 1.188.594-5.344 5.656-.313.281-1.468.594.593-1.469-.593-.312-2.094 1.187-.281 1.5-2.688-1.5 2.969-1.78-1.469-.595.281-.875.907-1.78.875 2.062.906-2.657zm-19.594.593l-3.28 2.094 1.187 1.187-1.188 1.469 4.75-.875-6.531 2.656-.625 2.938.031.03-.062.095-.25 1.093-2.657 2.407 1.657-2-1.063.78 1.188-1.468-1.188 1.188.875-1.782v-5.062l1.5-1.781zm-5.718 9.594l.03-.125-.562-.563-.562 2zm118.062-9.594l2.656 1.781.594-.281 2.406-1.188h-1.5zm-102.281.5l.312.094.313.312zm-2.656 1.281l-.594.906-2.375.282zm127.218 1.5l-1.187.281 1.5 1.188zM108.07 60.136l-.594 1.78-.906-.312zm55.875 1.78v3.25l-6.25 5.376 4.468-5.375.282-2.656zm250.25.282l2.093 2.094 4.47 2.375zM330.1 63.386l.875.593 1.5 1.782h2.656l.469.156 3.125.156-.906.594-2.219-.75-3.125-.156-1.5-1.47zm-203.625.312l-2.969 3.844h-.875l1.188-.594 1.468-2.969zm26.156 0l-1.781.594.312.875 2.97-.594-2.376 1.188-1.781-1.47zm-18.125.281l-.875 1.782.594.593-1.5.594zm55 1.188l-4.156 2.094-.906-.594zm-7.719.906v.875l-1.812.625zm40.125 0l-1.187.594-4.469-.313-1.781 2.688.875 1.187v.313l-.281 6.219 4.156-.282.875-1.5h1.5l2.375-.28 2.687-2.376-2.687-.906zm-50.843.281l.312 2.094-1.781-1.781zm19.031.594l-1.188.313h1.782l-.594.906-1.5-.906zm137.625 0l.875.594v.031zm-175.094.625l.594 1.781H151.757zm29.156 0l-1.812 2.063.594-1.782zm239.844 0l.594.875 2.375 1.188 1.187.593zm-92.437.563l.593.312-.593-.281zm-200.625.312l-.282.594h-.03zm-38.282.188l-1.25 1-.28.312zm113.188.125l-4.75 2.062-2.094-.281-3.875 4.75.313 3.562-3.563.875-2.687 3.875h2.375l-.875-1.468 2.656.28-1.469.907.594 1.469-1.5.312 1.187.282.594.312 6.25-2.969 7.125 1.47 2.969-.595.594-1.468-5.938-1.782h6.844l.594-.906-2.688.281 1.5-.593-.906-.875 1.219-.907.593 1.5 2.375-.906.282-2.062 2.375 1.468 1.5-4.75-1.5-2.062-1.782.875-.28-.875-2.97 2.969 2.063-3.563-2.063-.312-3.875 3.562-3.875 1.781 5.657-5.937h-.313zm-25.281.28l-.282 1.782-3.562 1.5zm8.031 0l-5.063 1.5-.593-.593zm239.562.595l1.22 1.125.28.062zm1.22 1.125l-2.688-.532 2.062 1.5 1.5 2.375-.594 3.563 7.125 2.062 1.782 2.688.593-.281 1.782 1.468.593.594 2.375.313-2.656-3.282.281 2.094-1.187-.906v-.875l-2.375-1.813-1.188-3.562-3.843-2.063zm-338.563-.532l-4.625 4.25.156-.093zm-4.625 4.25l-.438.22-2.062 2.062zM413.6 70.542l-2.969 1.187-2.969 1.782-8.312.875.875.906 1.187-.906 2.375 1.78 3.594.313 2.969-1.187 3.562.281 11.875 1.5-2.968-1.187-.875-2.094 1.468.312-1.468-.593-2.094 1.78-4.75-1.187-2.094-2.093zm-249.969 1.781l1.5 1.188-1.5.593zm-43.969.281l-.906 1.782-1.781.906-.281.594-.907.28-2.093 2.376 2.093-2.969 2.094-.875zm38.344 0h.281l.907.907-2.094.28zm-8.344.594l1.782.594-.282 1.187-2.093-.593zm-5.625.594l1.782.594-1.188-.282v1.188l2.969-.594.594 2.375-3.563-.594zm14.563 0h.281l2.375.312h-1.187l-.282.875zm-2.375 2.375l1.187.906h-2.687zm72.5.906l-.594 1.469H226.07l1.187 3.281-2.094-.594 1.782 2.97 1.781-.595 1.187-1.468-.28-1.188zm-98.969.594h.906l-.593 1.187-1.219.875-.875.625h-4.156l3.843-.625h.594zm204.5 0l5.469 1.156 1.062-.281-.875.312-.187-.03-.125.03zm-202.719.281l-.28 1.188 1.78.312h-1.5v.906l-.28-.625h-.907l-2.094 1.22 1.219-1.22zm7.438.313l.875.593-2.375.875zm23.187 0l1.188.28-.594.907zm62.72 0l-.907 1.187 1.187.906zm186.062 0l1.187 1.468.281.313 2.094 1.781 4.469 3.875h1.187l.282.594 1.187.594 5.344 2.968 5.969 6.532 3.843 3.562 2.97 4.156-5.032-5.937 1.187 3.281-1.5-3.281-8.625-8.625-2.375-1.469-.28.594-1.032-1.031-.156-.157v-.312h-.313v-.094l-1.781-.5-8.313-6.844h-2.968l-.313.625-.594-.625h.907l.593-.875 1.782.594.875.281-1.469-.593 1.187.312zm-245.532.28l.313 2.407-2.375-.906zm57.094 0l-2.687.907.281 2.094-1.469-.906-1.781 2.687.875-3.594-2.656.907-.594 3.875-2.094 2.062 2.688 1.781 1.468-.593-1.468-.875 1.468-.594 4.47.875-.907-1.469-4.156-.594 2.093-1.5 5.938-.593.312-1.188-1.5.594.907-1.781-1.782 1.187 1.188-2.375-1.5 1.781zm-116.812.907v1.188l4.75-.907-6.844 1.813zm11 .875h2.656v.031h-2.688zm268.375 0h2.968v.031h-2.968l-.594.282zm-244.032.031l-.28 1.47 1.187 1.5-1.782-.313zm10.72 0h.28l.907.282 1.468.312-.28 2.063-1.188-1.47-1.188.595 1.188-.907h-2.375zm-37.75.282l-.907.312h-.875l-.906.281.906-.312h.875zm46.968 0l1.187.593-1.5.313h-.875l.282-.313zm220.531 0l-.594.312h-2.062l-.594.281.594-.312h2.062zm61.531 0l-3.562.312 1.187 1.469.875-.281.313 1.78 1.781 1.188.594.282 2.094 1.187-.594-.875v-.312l.594.312.875.281 4.156 2.688 7.437 7.125v.906l-2.062-1.781 1.469 1.781 5.343 3.844 4.75 8.344 6.563 8.312.875.594-1.781-3.563-1.469-1.5h.281l-3.875-5.656-1.781-3.25 2.406 1.781-.312-1.5-.907-.875-2.968-3.28v.593l-1.469-1.188h.594l-.907-.593-.28-.875 1.187 1.187-2.094-3.281-2.375-2.063 1.187.282-2.062-1.5-.906-1.47-1.188-.905-.281-.282-.313-.312 1.188.594.312.312h.282l-3.563-2.969h-.594l-2.687-1.78-2.656-.907-1.5-1.469zm-319.53.312l.312.594-1.844.656-.25.219-4.438 1.5 4.688-1.719zm52.03 0l-1.5 2.375-1.187 2.063v-1.782l.312-.28zm-46.687.281l1.5.594-2.094 2.094 2.688-.313-1.469.594-11.594 3.563-2.094-.594 4.157-.281v-1.188l2.687-.594v-1.187l4.156-2.094v.906zm33 .313h.594l.906.281h-.594zm7.75 0l-.594 1.187-2.406 4.157V84.51l2.094-2.094zm150.375 1.469l1.781 4.156 1.781-1.469-.593-1.781zm-112.344.593l-3.281.907v.28l1.5 1.188 2.094-1.78zm-47.562.594l.593 1.188-2.375.312zm-59.75.313l-3.844 2.375 2.375-2.094zm64.5.593l-.875 1.47-.594-.595zm61.25.875l-1.782 1.188 1.188 1.5 2.062-1.781zm-53.219.594l1.187.906-1.78.282zm28.531 0l-5.937 1.5-1.782.594-.593 1.187.875.125-.282 1.344 3.563 1.188 2.375-1.47 1.781 2.063 2.375-2.656.594-.906h-2.063l1.188-1.188-2.094 1.188-.875-.281-.594-.313 2.657-1.469zm130.5 0l-.906 2.094 3.281 1.187.281.282v-.282l-1.468-2.968zm-147.719.313l-3.875 2.656.594 2.094 6.25-2.97zm-4.812.437l-.25 1.031-1.781-.28zm49.094.156l-1.5 2.657 1.781-.282zm94.5.282v4.156h2.687l-.594.594-.906 1.5 3.594.906 2.375-1.813-1.188-1.78-2.687-2.97-.563.5zm56.187.593l8.906.594.313.906-.594-.906h-2.969l-5.625-.281.032.281.53 3.281h-.28l-.25-3.28-.063-.282h.031zm-30.031.594l.625.906.594 1.188h-.031l-.594-1.188zm-222.313.906l1.188.594-1.188 1.781zm-2.093.282l.593.312-1.468 1.188zm87.687 0l-1.469 2.343h-.062l-.25-.25-.281-.906-2.094.313-.906 1.78h.03l.876.907 5.937.594-.875-.906.594-.594.875-.906-2.812.28 3.125-.874h-2.97zm-103.125.906l1.469 1.187.594-1.187.312 1.187-2.969 1.5zm241.625.594h.031l.282.875zm27.375.593h.281l2.375 5.938 4.157-.875 5.062 2.656 5.656 8.344 1.188 5.031.875 1.5 1.5-.594-.813 1.282-.687-.688-1.188-1.187-.875-5.344-8.343-9.531-5.625-.594-2.688 4.75 2.969 2.094-.281 2.687v-2.687l-2.094-1.5-2.375 2.687-9.5 1.5-11.313-3.594-2.062-.28-2.375-2.376 2.375 2.063 2.062.593 10.407 2.97 9.531-1.188 4.156-5.938zm-220.844.282l-1.5 1.5.313-1.188zm65.97.312l-.282 1.188-3 1.5-.875.28 3.281.313h1.188l4.156-2.093-2.094-.907-1.187 1.22zm-30.032.906l.906 1.782 1.781-.594-1.187 2.375 3.875 2.656 2.969-5.031zm-121.563.282l-1.78.906v-.031zm134.657.593l-2.969 2.375h4.469zm-94.219.313l-2.094 2.062.594 1.5h-1.469l.594-1.5zm-6.25.594h.906l-2.969 2.375zm108.5.875l-3.563.312-.593 2.063-6.25-.282-2.969 1.782 1.187 1.78-2.375.595-.906 3.875 1.5.28-2.375 1.5.875 1.782.313.594.593-.594h1.188l.875.594.594-.594 1.5-1.5-.594-4.75 2.062-1.781-.875-.313 2.657-.593-.282-1.188.907 1.188 1.187-1.188-.906 2.094 1.781-1.781.594.593V98.48l2.094.282zm4.75.593l-1.5.907 1.781 1.468 3-1.78zm-2.375.594l-1.781 1.781h1.187zm-28.531 1.188l-2.375 3.562-.594 2.375 3.25-1.187h3.282l3.874 1.78 1.188-1.78-1.782-2.97zm.593 4.75l-2.375 1.78-2.687-.28 1.187-.313 1.5-5.344-2.687.594-1.781 1.188.593 1.78-2.375.595-.312.312-1.781 5.063.593-.594v.281l-1.468 1.188 1.187-.594-.312 1.781-.875 1.781.593-.28-.312 1.187-1.188.593.907.594h-1.5v1.188l-2.063 1.187-2.094-1.187 1.188 1.468-2.375 2.094.594.594-5.938 3.281-2.094-.906-.593 1.781.312-1.781-2.375-1.469-2.969 2.063-.593-3.563 1.187-2.687-4.187-.282-.875 5.938 2.093-.875-2.406 2.375h1.188l-3.25 2.062-1.188 2.688-.594-1.5-1.5 1.187-4.437 11.594 7.125-7.719-1.5 2.688 1.5-.906-4.156 6.843 4.75-2.687-2.094 2.375 2.969-1.469 1.187-2.094.594.907 1.812-1.782-1.218-.593 1.812-1.188-1.5.281 4.156-2.093-1.187-1.188 2.687-.875v1.781l2.375-1.78v1.78l-2.093 1.782 1.5.312h-2.094l2.094 1.781-2.969-.906-3.281 4.469 4.468-1.5-1.187 1.781 2.375-1.469-.313 1.782 1.188-1.782v2.063l1.187-1.469.594 1.188 1.188-1.5-1.782-.594 1.5-.594-.906-1.187 2.375.312-2.062-.594h1.468l-1.187-1.5 1.187.907.313-1.5v1.5l2.094-1.5-.844-.844-.375-.063 1.5-1.187h-1.5l1.812-.281-1.187-.313 1.469-.281-.875-.594 1.781-.906-.313-.875.907 1.469 1.468-4.438v2.375l1.5-.906-.906-.875 1.188.875.593-1.469-.593 3.563 1.187-1.188v-3.875l.906 3.563 1.188-.282h.281l1.188-1.5-1.469-.875.875.282-.594-1.782 2.094 2.094 1.187-1.781-1.5-1.188 1.782.594-3.563-1.5h2.094l-.313-.875 2.688 1.188-1.781-2.094 2.687 1.187 1.781-1.78-2.687-1.188 3.281-.313-2.375-1.469 2.063.282v-.875l1.781 1.187-.594-2.375 2.375 1.188 1.781-2.97-1.468-.905-1.5 1.78.906-2.062-2.375 1.47 3.562-2.657-.312-.313-.906-.687 2.406.406 4.75-1.5-.594-3.562-2.094 1.187.907-1.781-1.782 1.469 1.188-1.782-4.469 1.5 1.5-1.187zm.875 9.53v1.782l3.282-1.781 1.187-2.688.594-.875-3.563.594-.312.281-1.188.907zm-22.812 20.25l1.437.25-1.5-.312zm275.156-33.937l2.688 2.094h-1.782zm-371.812.594l-.313 1.188-.594.312zm28.218 0l2.094 5.656-.594 1.188 1.188.312h-1.188l.282.594 1.187-.312-2.375 4.468-2.969 2.375-1.187 2.375-4.938 2.313-.406.969-.125.093.438-1 .093-.062.47-1.125h.03l.875-.313 1.188-5.625 1.781-1.5v-1.468l1.781-.907-.28-3.875.874-1.187h.906zm124.563 0l-1.781 3.281.281-2.687-2.688 1.187v-.875l-1.468.282-.907 1.78h2.094l-2.375.595 3.563.906-1.782.281 2.063 2.375 1.812-.594v-1.187l3.844.594-1.187-.594 6.843-1.781-1.78-1.782-1.782.594.281-1.781-2.375.906 1.5-1.187-.906-.313-1.469 1.188zm-158.438.906l-.28.594h-.032zm149.813.282l-1.781.593 1.468.594zm-4.75.593l-1.188.907 1.782.28-2.375.595h1.468l-1.78.593 1.5.313-2.095 1.187 1.5.907-1.5.875 1.782-.282-2.063.875 2.063-.28-3.563 1.468.594.906.594 1.469 2.093.312.813-1.687h.031l1.688.062-.75 1.032 2.656.28-.281 1.782 1.187-.594.594 1.188.875-1.188v1.5l2.687-2.968-.593 2.968 1.78-2.375.282 3.25 1.813-.875-.907 2.063 1.782.312.593-1.187v1.469l1.5-.594-.906.906 5.063 2.375-1.782-2.969 2.063 1.782.906-1.782-.312 2.063 2.093 1.5 1.782.594 1.78-1.782-1.187-2.375 1.782.875.906-4.75-.906-1.468-.594-1.188-3.281.594 2.687-2.094-.906-.875-1.781.875 1.78-1.781-1.187-2.375-.875 1.187-.906-.593v1.78l-1.469-1.78v3.28l-.593-3-1.782.907 1.47 3.281-1.188-2.093-.875-.594.875 2.094-.594.593-.875-.906v1.5l.875.594h-1.188l-.593-2.094-3.844 1.5 3.562-2.094.875-1.468-6.25 1.468v-.875l-.28 2.063-.595-1.188-1.5.594 2.094-1.781-.312-1.5-2.657-.875.875 1.469h-1.468l2.062.906-4.75-.594 1.781 2.094-2.968-1.781 3.562-2.688-3.25.875zm-145.969.313h.031v.594h-.03zm90.656 0l-.28 2.375-2.688.875 3.281 3.281-2.375 1.188-1.5 2.375 1.187 1.5 1.5-1.5v-1.782h2.094l5.031-4.468-.875-.594 3.25-1.188-7.125-.593zm-49.312 2.656l.281.594.594.594-1.188 1.218h-.28l-1.5-.593zm58.25 1.188l-1.781.625-.594 1.187zm-107.313.593v.032l-.593.28zm413.47.032l.593 1.78 2.375 2.97h-.313l3.282 3.843-.907-1.187 1.5.312-1.187-1.5-2.094-2.375-.281-1.468-2.375-2.375zm-321.313 1.187l-1.5.594 2.375 2.656.312-1.781zm-44.282 1.781l-.593 1.188-.313.875.281-.875zm73.094.594l-.594 1.188.907.593-.313-.906zm-89.469 2.063l2.688 1.187-1.188 1.5.594 2.063-1.781 4.468 1.625-1.343-4 9.375-2.969 3.28-1.187 1.188-.907-.312v-.281l.907-2.407 2.656-2.968-2.375 2.093-3.844.594-.625-1.5h.031l3.563-2.375v-2.656l1.469.875 2.968-1.469 2.97-4.781-2.97-.281 1.5-.594-.906-1.188-5.344 2.063-2.968.312v-1.78l5.343-3.282h4.157zm15.47 0l-.876 1.78v.595l-.312.593.281-.593v-.594zm40.437 2.968l.875.907 1.781-.594zm70.125.594l-3.25 3.281.593 2.375-1.5.313v-2.406l-.593 2.406-.282-4.188-1.78 3.282-1.22-1.5-1.468 1.218-.907 2.063 1.5-.875-.906 1.781 1.781 1.469-.593 2.687-1.188 1.188-5.531 5.25-1.281-.188.718.72-.53.468-.032.031-4.312 2.031h-.032l-2.062 2.688-.594-1.5v1.187h-2.094l1.782.594-2.97-.875-.28 2.969 3.843-1.5-2.375 1.5.375 1.156-.343.344-1.22-.625.595 1.187-.375.375-1.094-.375.719.72-.063.062-.656-.47v1.095l-.156.125-.157-.625-2.375 2.968.907-3.562-1.188-1.781-1.781 3.843 1.094 2.47-.22.218-3.562.594.282 1.5-1.188.28.594-1.468-2.375 1.781-1.781-.312-.594 2.094-.281-4.75-.313 2.375-.281-1.782-2.688.282 3.282 2.093-1.188-.593 1.469 2.656-3.844-4.156.875 3.562-2.062-2.969-.313 2.97-1.5-1.47v1.782l-.594-1.782-.593 1.188-1.188-.313 5.063 2.094v1.188l-5.344-2.97 1.187 2.657-2.093-1.469-1.188 1.782 2.688.875v1.5l-2.97-2.375.595.875-2.375.906 1.468.875-1.78-.594-2.063 1.188 3.25.906 1.5-1.5-2.375 4.187v-1.187l-2.094-1.781.906 2.656-1.5-2.063v1.188l-1.469-.313.594 1.782-1.187-.875.593 2.062-.906-1.469.313 1.782-2.094.593 1.5.594-2.406.281-.282 2.094-1.5.281 1.188 1.188-1.469-.594 1.188.594-1.5.312.312 1.188-.906-.906.594 1.5-1.188-.907.906 2.094-1.78 1.781 3.562 3.282-2.688-.594 1.781.594-2.062.28 1.469.595-1.47 1.187h1.782l-2.687.906h2.375l-2.375 1.188h1.78v2.375l.907-3.281 1.188 2.375.28-1.782 1.782.594-.594-1.781.907 1.781v-1.781l1.5.906-.313-1.187 1.188.875-.282-1.188 1.782.594.875-2.656.312 1.468.281-2.375 1.782 1.782 1.187-1.782v1.782l.906-2.063.282 1.781.312-1.187 1.188.875v-1.781l.593 1.78 1.47-1.187-.595-1.78 1.5 1.5 2.375-3.563.313 1.78 1.781-.905h.031l.938.156 1.406 1.625 2.063-1.125 1.406.187.093.344-2.093.594v.906l1.187-.906-.594.906 2.375 1.188.907-1.5.875 1.78h.03l5.47-2.093 4.437.656 1.375 1.157 1.031-.813h.032l.093.031-.28 1.375 5.062 1.469 8.625-.875h.875l-2.657-4.156-3.562-.313-.594-.593 1.375-.532h.031l1.563.25-.688-.625.125-.062 2.344 1.281.875-2.094-1.375.094.969-.375h1.312l-.25-.406 1-.407.438 1.407-1.5 4.156 2.406-.906-1.187 1.5 1.187.593.594-2.375 2.062-1.187-1.187-.594 1.781-.312-1.781-.594 1.5-.594-.438-2.625.75-.281.875 2.312.875-2.968-.03-.031.25-.094.968 1.312v-1.5l-.219-.093 1.188-.47h.03l2.563.563 1.188-1.468-.219-.532 1.313-.5.125.125-.032-.156.313-.125.312.281 1.47-.28-.876-.907 1.781-2.375.282.594 1.78-2.063-.28-.594.875-1.187h.312l1.781-2.094 1.47.594 1.187-1.781-.875-1.188.593-.906.875.312-.28-.906 3.28-3.562 4.75-2.657-2.093-.312.906-1.188 3.562.313-2.375-1.813h.282l3.875.907 3.28-2.375-1.812-1.782-2.062 1.188-.594-.906-.781-2.375.781-.594-.969.062-.718-2.125.78.875 3.282-.28-1.781-2.095 1.781-.875-5.656-2.687 2.375-.313 3.562 2.407-3.25-4.782-3.187 1.47-.094-.282.906-2.656h-1.78l.218 1.968.031.032.031.375-.062-.407-1.125-1.218v-.75l-.281.437-.594-.656v-.375l-.156.219-1.188-1.282.156-.437-.375.219-1.25-1.344.125-.063-2.093-2.062h-.875l-.313-.906-3.562.906.593-1.188-2.062.594 1.781-.906-3.875-1.5-1.187.312.593 2.094-5.062-.594-.281-2.093zm-37.75 36.281l-.282-2.375-2.093-.906zm300.5-36.28l-.594 1.78 3.281 5.063.281-.594v.594l1.188.594-1.188-1.782h-.593l-.875-1.468 1.187.593 3.563 3.563v-1.188l-1.5-1.5 1.812 1.5-1.812-2.687zm-77.282.312l2.97 3.843-2.657 2.094 2.375-2.375zm-249.062.28l-1.5 1.188 1.187.313zm15.437 0l.313 2.376h2.687l1.47-2.375zm174.782.595l.312 1.5 1.188-.594zm-229.469 1.187l-1.781 3.594 2.093-1.813zm57.687.906l-1.218 2.094 1.218-.594zm-47.875.907l.313 1.468 2.062-.593zm.313 1.468h-.906l2.093.313zm299-.593l.594.28h.593l.594.313-.594-.28h-.593zm-98.375.593l-3.281.594 1.5 1.188-2.688-.594 6.25 3.281zm-234.531 1.782l-2.063 3.875.875.28zm228 .593v.313l-1.5.281.906 1.188-1.5-.594 1.781 4.156 3.281-1.469.875-2.687h.313l-.75-.219h-.063l-.093-.062h-.094zm-4.188.313l-3.25.594 3.563 4.156 1.781-.906-.281-2.657zm27.344.281h.031l1.188 3.281 1.187 1.188-1.5 1.187 2.688.594-1.782-.312-.312.593-.875.594-.313-.875v-.906h-2.687l2.687-.594-.312-3.25-1.469-.312zm-200.625.594l.312 2.687-1.5.594zm-86.5.594h.031l-.312.593zm106.125.312l-3.563 3.25.282-2.656zm-106.719.875h.031v.344l-.03.062zm82.344 0l.594.906-1.469 2.063zm214.312.594h.282l2.968 4.156 2.094-.281-1.781.594 1.187 2.968.313.594-.594-.594zm-272.875.594l2.375.906-1.187 1.187v-1.5l-.875.594.594 2.969-.907 4.187.594-1.187v1.187l.313 2.375h-1.188l-.594-1.78-1.187-3.563zm49.344 0l1.5 2.093-.906-.906-.594.906zm189.656 0l-1.187 1.5 1.781.593.281-1.187zm-226.812 1.78V131.762l-.875.906.594-1.5zm403.062.313l1.47 2.375v-.593zm-369.75.594l.594.594-1.5 1.187zm-18.156.875l-.594 1.813-.875-1.22zm-4.437.313h.875l.906.28-1.188.907h-.312zm355.468.28h.594v.032h-.594zm-10.687.313l2.094 2.97-2.688-2.376zm11.594 0l.593.282h.594v.03h-.594zm-106.719.594l.594.281h.312l1.188.625-1.188-.593h-.312zm108.781.281h.313l.593.313-.593-.281h-.282zm2.094.907l.594.28v.032zm-381.344 1.78l1.5.907-.906 5.344.594.594.312-2.094.594 4.156 2.656 3.281 4.156 4.75-.28.313-6.532-8.344-.906-.875-1.782 1.469-.906-1.781zm22.875.907l-.594 1.469-1.187-.594zm-10.687.875l.875.313-2.375 1.187zm11.875 1.781l1.187 2.375h-.281l-4.156-1.468zm-8.907.313l1.188 1.469-1.781 2.093 1.187-2.687zm50.22 1.469l-.876 1.5h1.188zm277.624.312l5.656 3.25 2.375 3.281.594-.593 3.563 7.718 2.093 2.094.594 3.281-.906 2.063-.594-3.875-2.687-4.75-4.157-5.938-6.812-5.656zm-306.75.875l1.188.594-.875.906zm262.156.594l3.594 1.781h.875l3.563 1.781h.593l4.75 2.407-4.75-2.375h-.593l-3.563-1.782h-.875zm-323.656.312l.594.282-.906.906zm129.875 0l-.906.282-1.781.593.593 2.094h-1.468l2.062 1.781 1.5-2.062.594-.906zm33 1.47v.03l-1.187.594v-.031zm264.219.312l.594.28v.032zm-421.156.875v.03l-.594.282zm155.156 0v.03l-1.781.876zm-109.094.312v1.188l-1.187.312zm5.063 1.188l1.781 1.187-1.781.313zm-5.375 1.5v2.968l-3.844.594zm255.031 0l-1.469 3.562-.312-1.781zm-263.625.28l1.781.907-2.094 2.375 1.188-2.094zm21.094.595l-3.875 4.75.593.906.313-.313.281 1.5 2.094-1.5-2.375 2.688v1.781l-.906-2.094.906-1.78-1.5-.876-1.188 1.469v-1.188l1.782-.593 2.375-3.844zm3.281 0l.875.593h-.281l-.907.907zm243.719 0l-.594 3.562-1.188.594zm-263.344 1.5l-2.375 1.78-1.188.876 1.188-1.469.594-.906zm254.125.593l2.375 1.188h-2.063l-.312-.906zm-233.625.282l.594 1.187-1.188.313zm374.219 2.093l.593 1.782h-.312l-.281.28-.313-.593-.594-1.187zm-4.469.282l.344.125-.031-.125.093.156.5.156.281.875-.78-1.031-.063-.031.25 1.375zm-73.125.593l2.094.594 5.937 2.375-1.187.313.906.312h2.375l1.781 1.781-2.375-.906-.312.906v-.906l-8.625-3.875-.282 2.375 1.688.656.094-.03.062.093 2.031.781h-1.5l-.53-.781-.157-.063-2 .844-.281-2.687zm-63.875.313h2.062l11.438 6.75 1.656-1.094 2.406.719.25-1.906 2.094-.594-2.094.875v1.5l6.844 5.031 2.094 2.094-8.625-6.844-.563-.156-.03.156-2.376-.875-1.5 1.188-.156-.094-.125.094-11.312-6.563-2.657 1.781zm136.406.594l1.188.28.562 1.845.031-.063.313 1.219-.344-1.156-.25.562v-1.219h-.594l-.312-1.187zm-422.656.28v3.876l1.187.594zm41.906 1.782l-1.469 1.813v-1.188zm300.219 0l5.937 3-5.937-2.969zm-379.563.313l-.593 2.093-.313 1.188v2.656l-.875 2.969-.312 1.187.312-1.468-.906 1.468-2.094 7.157-1.187 4.75-1.782 4.156-.593 3.562-.594 1.188-.594-1.188-1.187 9.813.312 2.094 1.188-6.563.875-.875.906-4.75 4.469-13.687.281-.875 1.187-4.47 2.094-8.905-1.156.593zm164.063.593l-.594.313v-.031zm156.031.594h.031l-.906 1.781zm-20.781.594l-.906 1.187 1.187 1.188.594-1.188zm-293.375.594v.906l-.906.875zm463.094.906l.593.281.594 2.094zm-3.282.281l.282 1.781h-.594zm11.282 0l-.282.906 4.47 8.313.874 1.781 1.5-.594zm-278.782.906l-1.78 1.188 1.468.875zm-129.906 1.47l-2.062 7.75h.875l.906-3zm-70.125.593l-.906 1.187-.281 1.188zm471.688 4.75l.312.594v.062l.594 1.125v.031l-.313 1.156v.032l-.875 3.25-.312-2.063.906-.906.25-.531-.031-.125-.219-.22v-.843zm-65.969.906l1.781.281 2.063 2.688zm68.062.313l.875 1.468-.875 1.188-1.156-2.031 1.156 1.125zm-414.937.28l-1.5 5.345 1.781 1.5-.594-5.344 1.782-1.219zm90.062.282l-1.187.625v-.031zm-71.625.594v.031l-1.218.594v-.031zm70.125.594v.03l-1.187.595zm259.782 0l1.781.906-1.781-.875zm-401.844.03l-1.188 2.376-.906.281-.594 1.188 1.5-.875zm-3.281 1.782l-.875.281-.907 2.375h.594zm487.468.875l1.47 5.656 3.28 6.25.313 1.188V189.136l.219.218.375.97.875 1.187.312.28v-.28l-.594-1.5v-.875l1.188 3.25-.313-2.063-.875-2.375v-1.187l-.593-1.782v-.625l-.407-1.687-.625-1.219.125.531.594 1.5-.594-.312.594 2.094.594.906v.875l-.875-1.188-3-7.437-.875-.875zm4.625 6l-.156-.656-.312-.281zm-494.156-3.625l-.312.594h.312zm493.688.594v.594l.906 2.968v-.406zm.906 3.156l.281 1-.281-1.187zM26.32 178.448l-.594 1.156h.312zm2.375.281l-1.469 3.25-.906.907 1.187-.907zm384.031.594h.875l.312 3.563 2.375.593 2.094 2.094-4.187-1.219zm-309.719.281l-2.687 1.5-2.063.875-.312-1.187-1.469 1.781.281-1.469-2.656-.593.594 2.375-2.688-1.5-.875 1.5 1.188 1.468v4.188l2.375 1.781-2.094.281 1.781 2.97-3.25-1.188.875 1.78 3.875.595-1.5 1.78-2.375.595 2.094.593-2.094 1.188.313 1.219 3.562-.907.875-1.187-1.469-.594 2.375-.594h-2.687l.906-1.78.875.28.313-1.187 1.781 1.5-1.5-2.688 3.562-.593-.875-2.375 1.188-.594-2.688-.875 2.094-.594-1.187-2.094 2.375.313-.907-1.813h.313l.594-.28-.594-.313-.219-.188-.031-.094 4.406-.906.907-1.469.28 1.47.595-1.47zm-18.437.594L83.1 181.98l2.062 2.375.313.313.281-.594.594-1.5-2.375.313-.281-.907 2.375.594 2.375-1.781zm436.937 2.094l.594 2.062.312.625v-.625l-.312-.28v-.313zm-173.875 1.469v2.093l-2.344 1.47.032.25.53 2.155 2.376 4.157 4.75 3.843 1.5 4.188 10.094 1.187 8.312-8.03 6.844-3.563 5.344 1.187 1.187-.906 2.375-1.188 7.75-.593 2.969.593h-5.063l-7.437 1.782-1.781.312-4.438-.906-5.969 2.687-8.312 8.625 2.094.594-14.282-1.781-1.78-4.469-4.157-3.281-2.688-4.438-.218-2.156-.063-.219.031-.03-.03-.282zm154.25.312l.594 2.688-.281.593zm-49.625.875l.594.313-.594-.282zm70.156.625v.281l.875 1.782zm.875 2.063v.312l.22.188.093.406.281.875.188.687-.47-1.28.282.905.906 2.657V192.698l.188.406.094.47.468 1.374-.156-.781-.437-1.313-.094-.5-.375-1.437-.5-1.406-.094-.438v-.25l-.125-.25v-.031l-.156-.594-.313-.594-.593-1.5.593 1.657zm2.25 7.312l.125.719v-.313zm.125.719l-.875-2.969-.906-2.969-.594-1.187.594 1.469.594 2.375zM12.851 188.76l-.188.375v.218zm-.188.625l-.25.78-.03.063v.063l.28-.563zm4.438.343l-1.188 3.25-.28 2.688-.313 2.969.906-3.875zm-4.75.594l-.281.875-.594 1.781-.125.782.125-.47.281-.905.313-.594v-.469zm-1 3.438l-1.375 4.593 1.187-3.593zm-1.375 4.593l-.5 2.532.5-1.657-.313.907zm-.5 2.532l-.406 1.312.312-.875zm420.781-10.563h1.781l.313 2.375-1.781-.312zm93.344.281l.594 3.563.281-.281.312.593-.312-1.187zm-87.094 1.5v1.47l-1.5.312zm-48.156 1.47l.312.593h-.03zm79.062 2.687l.313.593h-.031zm-28.843.875l.906 2.687-1.781-2.375zm-44.875 1.5l.593.28v.032zm76.093 0l.594.28v.032zm-39.812.312l-1.188 2.375-.312.875.281-.875zm-410.781.875l-.313 2.094.594-.313zM9.07 202.23l-.282.563-.312 1.5v.594l-.281.593-.594 2.375-.313 2.094-.875 4.156v1.188h-.312l-1.469 7.719-.594 2.968-.312 2.375v.594l-.094.156-.094 1.063.063-.969-.156.344v1.5l-.313.594v2.062l-.281.594v1.219l-.313.875v1.5l-.28.875v2.093l-.313.875v2.688l-.282.875v2.687l-.593 8.032-.313 8.03v12.782l.313.594v2.656l.25 3.781.031.094v-.594l2.375 20.813 1.5 10.375.25 1.094-.25-.782-.906-3.562v.875l.312.594v1.187l.281.594v.906l.313.594v1.5l.281.594v.593l.313.594v.875l.281.594v1.187l.312.313V323.479l.282.594v.281l.312.907v.875l.125.125.031.03.125.438V327.323l.313.594v.906l.281.594v.312l.313.594v.875l.281.594v.593l.312.594v.313l.282.593v.875l.312.594v.594l.281.594v.593l.313.594v.313l.312.593v.594l.282.594v.281l.312.594v.625l.281.875.313.594v.593l.281.594V344.573l.156.125v.031l.157.5v.25l.281.594v.594l.312.28v.595l.282.593.312.907.281.593v.594l.313.594v.281l.281.906.313.594v.281l.156.157v.03l.125.407v.313l.594 1.187v.313l.312.593v.594l.281.875.313.594.281.906.313.594.281.875.312.594.282.906.312.594.594 1.78.281.595.313.875.281.593.312.907.282.593.593 1.782.313.593.281.907.313.593.281.875.312.594.282.906.593.875.313.594.281.906.313.594.593 1.781.313.594.594.875.281.594.594 1.812.593.594v.594l.313.281.594 1.188-.719-1.625 2.469 5.156.031.062v.282l.281.593.313.282.281.593v.313l.312.594.594.593v.594l.281.281.313.594.281.313v.28l.313.595.281.312.312.594v.312l.282.594.593.594.313.594v.28l.281.595.594.593v.594l.312.313.282.593.593.594v.594l.313.281.281.594.625.594v.593l.594.594.281.594.313.312.281.594v.281l.312.313.282.594.312.28.594.907.594.906h-.313l.344.344 1.156 2.031.406.532.188.343.375.375.219.22.062.155-.281-.375.812 1.407-.312-.594-.188-.438.782 1.032.593 1.5 2.094 2.656.281.594.594.906 1.031 1.437.157.344.187.156.063.094.062.063v.28l.281.157.063.031-.656-1.062.312.281-4.469-8.906.313-.312.875 1.78.594.595H51.6l-.313-2.375-1.78-5.344-1.188-2.094-3.875-5.344-3.844-7.437-3.563-7.125v2.969l.282.593-.313-.593v-2.97l-.281-.28-5.063-7.438-2.375-5.062-2.656-2.375v-1.47l.594.595-1.188-2.094.875.875-.593-2.969-.875-.281-.313-1.5-.281-.281.281-.313-.594-.594-.593-2.062-.282.281v-1.187h-.312l-1.781-4.75-.313.312-1.187-3-.594.594.594 1.812-.594-.906-.281-1.5-1.188-.281.281-1.188-2.062-3.562 2.656 4.437.594-1.468-3.25-7.438-.594.906v-1.5l-.594-.28v-1.5l-.593-.313.281-.875 2.375 1.78-.281-.905.281-.875-1.188-3.875-.28-8.032-.313-1.187-.282.594-.03-.125-.563-4.625-.813-3.688-1.281-5.812-3.563-10.688-.593-7.437H7.6l.594-1.782v-3.875l-.594-5.062v-1.188l-.594-2.375.594-2.062v-4.188l-.594-2.375-.594 3.875.282 1.782-.594-2.094-1.469-5.031-.312-2.094 1.781 7.125.312-.594.594-2.969v-1.187l.281-2.375.907 2.687-1.5-8.625v2.688l-.875-4.188v-5.937l-.313-6.531.313-2.97.281-5.343.156-.906-.156.312v-1.5l-.563-3.406.875-3.437.282 1.78.593-2.968-.875-2.969.282-3.562-.282.594.282-2.688v-.594H6.1v.313l-.594 1.781.313-2.687-.594 2.375 1.469-7.125.906-5.344.594-2.688.281-.875.312-2.375zm-2.813 35.938l.156-.281v-.532zm.156-.813l.282-1.562-.282.594zm43.438 185.282h.031l-.094-.188zm-9.25-14.157l-.313-.312.313.625zM29.57 388.823l-.563-1.125v.281l.281.594zM4.32 311.292l-.282-1.188v.594zm.906 3.562v-.312l-.219-.813zm-1.5-10.687l-1.469-11-.906-8.344v.313l.312 3.25.25 3.53.032.063v.282l.25 2.843.062.125v.625l.156 1.782.125.28v1.188l.188 1.188v.031l.125.25v.688l.156 1.156.031.031.094.219v.531l.219 1.469.094.094v.593l.281 1.782.25 1.968v.032l.062.062v.313l.594 2.656zm0 2.969v1.468l.187.375zm0 0l-.281-1.125v.53zm-2.375-22v2.656l.281.531zm2.281-56.032l.094-.75v-.593zm3.969-21.25l-.594 2.375v.282l.281-1.188zm519.25-5.343l.594 1.78v.282l.312.906.875 2.97v-.313l-1.187-4.438zm1.781 5.937v.594l.719 2.594zm.719 3.188l1.656 7.218-.875-4.468zm1.656 7.218l.594 2.72.312 2.03.282 1.188-.282-.906 1.188 7.156.281.875-.594-2.969-.593-5.062v.312l-.282-1.187-.03-.25-.282-1.844zm2.094 12.188l.281 2.375v-.594l.313 1.781v-.593zm.594 3.562v.875l.218 1.438zm.218 2.313l.375 3.937v-1.5zm.375 3.937v.282l.063.375zm.063.657l.531 6.75.313 3.78v-2.593l-.313-4.156zm.844 10.53v.407l.468 5.969-.187-3zm.468 6.376l.125 1.75v-.313zm-3.75-34.813l-.312-1.78v.593zM15.32 203.386l-.875 3.28v5.938l-1.188 3.875h.594l.594.875-.313 7.75.594.282.594-5.938.593 1.188v-2.094l.594-1.781.594-11-.281-1.782-.594 3.282-.594.593-.906 2.97.906-7.126zm463.093 1.5l2.063.28-1.188 1.782-.593.594-.282-1.469zm-75.5 2.062l.313.594h-.031zm-4.156 2.094l.281 2.094-1.468 1.187v-1.812zm-50.25 2.062l.594.313-.594-.281zm171.219 1.22v6.218l.906 3.875 1.469 1.187.312-1.78-.593-4.157-1.5-4.75zm-34.469.28l.594.282v.03zm-61.531.594l.281 1.5 2.094-.906.281 3.562h1.5l-.312 1.5 2.687-1.5v1.5l-3.281 1.188-.594-2.688-.594-2.656-2.656.281zm-7.438 6.844l.313.594h-.031zm1.47 1.469h.03l.282.593zm77 .906l.312.594h-.031zm-75.782.594l.594.28v.032zm11.875 5.343l2.375 1.5-2.063.594zm20.5 0l.906.313-.906 1.781zm-447.625.907l-.281 2.062.125-1.125zm491.625.28l-.281.595v.312l-.313.594.281-.594v-.312zm-480.625.313l-.594 1.188.313 4.437.593.313zm479.719 2.375h.03v.594h-.03zm-68.344 1.188l-.313 3.25-6.218 5.062-.594 5.063 2.656 3.844-3.562-1.47-.282-3.874.594-3.25 6.813-5.656zm-420.656.312l-.532 3.25-.28 1.5-.313.875v-1.78l.593-3.563zm424.218.563l.313.594h-.031zm2.375 2.969l.594.312-.594-.281zm88.875 4.468l-.28 3.875-.313-1.78zm-79.062 6.844l.312.594h-.03zm-5.938.594l-.312 3.281-3.25 2.375 2.656-5.375zm-45.78.875v.031l-.595.281zm52.905.031l.313.563.562.312h.032l.593 1.188h-.03l-.595-1.188-.593-.281zm42.22.594v3.25l-.907-1.188zm-96.907.875l-.594.312v-.03zm-374.219 3.562l-.281 1.5.594.875.281-1.78zm475.563 1.188l-.282 2.094-.906-1.188zm-111.469 1.187h.031l.594 1.188zM3.132 260.167l.594 1.469-1.188-.282zm373.031.281v.031l-.593.282zm159.625 0l-.312 3.563v.03l.312 5.345v-5.657zm-161.125.906l-.593.313v-.031zm-1.187.875v.032l-.875.28-.594.313v-.03l.594-.282zm-2.063 1.188v.031l-.906.281zm110.844.312h.031v.594h-.03zm52.625 0v1.5l.313.282zm-52.906.907l-.281.593-.313.282.281-.313zm-.906 1.78h.03l-.312.595zm-24.969.595h.031l.281.593zm24.375.28h.031v.595h-.031zm-23.781.595h.03l.595 1.187h-.032zm-66.563.593l-.312 3.875.906 1.782 3.875.593-.594 2.063-.312 4.187 1.781.875-2.375 2.688-.594.594-1.469-1.188-3 2.375-2.656-4.156-.594-4.75 2.063-1.5-1.188-1.781h1.5v-.907l-.312-2.062 2.375-.594zm67.469.907l.312.593h-.03zM8.195 270.854l-.313 1.782-.281-.875.594 3.25.593-1.782zm-3.282 3.282l.313.875-.594 2.093zm491.938 2.968l-3 1.782-1.188-.875zm-32.719 2.063l.594.312-.594-.28zM1.07 280.386v2.968l.218.5zm467.812 5.937h.031l-.312.594zM1.663 290.198v1.188l.125.218zm532.625 1.188l-.312.875-.281 3.28v-2.093l-.313 1.5-1.187 1.188v1.78l-.875.595h-.313l-1.469 3.562v-1.5l-1.187.906-2.688 7.438.907 1.469 1.781-2.375 1.187.593.875-2.375.594 2.688.594-1.188.312-.312.594 1.5.594-2.688v-.875l.281-.593v-.907l.313-1.78v-1.5l.281-.282.906-8.625v-.281l-.312 2.656-.282 1.187.282-1.78-.282 1.187.282-2.063-.594 3.25zm-.906 3.562l.25-1.656-.25.469v-.313l-.281.594zm.25-1.656l.063-.125v-.313zm-531.687.469v.875l.093.125zm515.687 2.968v1.47l.313.312zM2.538 299.604v.375l.063.125zm455.063.97l-.281.593-.594.625-.313.562.282-.593.593-.594zm-1.781 2.374v.031l-.594.282-.281.593h-.031l.312-.593zm74.906.031l-.313 1.47-.28-.282zm-76.406 1.47h.03l-.312.593zm26.156 2.374h.031l.281.594zm-76.375.313l.312.593h-.03zm76.969 1.187h.03l.282.594zm42.531 1.188l-.594.593.281.594zm-513.344 1.78l.594.282v1.5zm519.563 0l-.594.876-.281 1.187h.281l.594-.593zm.906 1.47l-.313 2.093.594-.906zm-2.688.312l-.593.594-.282 1.187zm-83.53 1.469h.03l-.593.625-.313.562v.032l-.594.28.594-.312.281-.593zm-438.97 1.344l1.157 4.625.593 1.187.907 3.844.593.594.563 1.718-1.156-2.312-.907-3.563-.875-1.78zm436.907.75l-.594.312-.281.594-.625.594.593-.625.313-.563v-.031zm5.343 3.875v.28l-2.375 5.657zM7.882 321.979l.906 2.97.282 1.5zm329.938 3.282l.312.593v.594l.281.594-.312-.594v-.594zm13.968 2.656l-.906 3.281-3.25.313zm-342.406.031l.063.188.312.875.531 1.593.282 1.782v.093l-.282-.906-.312 1.406v-2.531l-.094-.25-.031-.094-.063-.218zm348.938.875l2.968 2.969-1.187 1.5-2.969-3.563zm69.562 0l-.281.594h-.031l-.563.312-.625.594-.593.281.593-.312.594-.594.594-.281zm-2.375 2.063v.03l-.594.282zM10.57 332.542l.25.812-.25-.375zm.281.875l.312.469 1.782 3.562-1.188-2.094-.594-.875zm305.281 3.125l1.188 2.969-1.5-.875zm-24.969 2.687l-1.78.594 1.78 1.188 1.188-.313zm-274.937 1.782l.594 2.375h.593zm-1.781 1.187l.593 1.313v-.125l.094.343.781 1.75h-.28l.28 1.188-.78-2.938-.095-.218v.78zm179.218 5.344l-.28.594v.593l-.313.594.281-.594v-.593zm303.47 1.781l-.595.906 1.188-.593-.875.875v1.187l.281.906v.594l.313.594v.875l.281.625v.875l.312.594v.906l.282.594.906 2.062 2.375-4.156.875-4.156-2.063-2.688zm-370.345.313l.282 1.78 2.687-1.187zm66.282.875l-.282.593v.594l-.312.594.281-.594v-.594zm129.875.312l-8 4.156 2.968 2.094 3.844-2.687-.875-1.188zm46.687 0l1.188 1.781-1.188-1.5-2.969 1.188-5.062-.875 3.875.594zm-70.437.594l-2.094 1.469.875.593zm-168.532 1.187l-.906.875 1.781.313zm8.907.282l-1.782.593 1.47.313zm-2.094.906l-2.969 1.5 1.781.594zm271.969 2.375l-2.969 3.281 2.094-1.781zm-53.782 11l-.593.312h-.594v-.03h.594zm-1.5.594l-.593.312h-.594v-.031h.594zm-2.062.593l-.594.313h-.594v-.031h.594zm-328.469 6.25h.031v.594l.282.594-.313-.594zm66.313 5.625l-.313 1.22.906.874zM28.1 385.886v.312l.312.594.282.281zm322.5.906l.312.594v1.187l.282.594-.313-.594v-1.187zm-27.938 14.25l1.188 4.156-4.156 1.5-3.875 5.344 2.375-4.75 3.562-1.5zm-280.562 9.844l.281.28v.188zm374.187.28l-4.75 2.376 2.97-.594zm-234.218.282l-.282.594v1.5l-.312.594.281-.594v-1.5zm-.594 4.156l-.281.594v1.781h-.031v-1.78zm-19.313 3.282l1.188 2.093-.906-.312zm18.72 1.187l-.282.594v2.094l-.313.562.282-.594v-2.062zm-56.782 2.063l2.375 1.187v.031l-2.375-1.187zm-74.219.53l.219.376.906 1.5-.812-1.406.218.218-.312-.593-.188-.094zm306.063 1.563l.312.907 2.063-.313-2.063-.594zm-207.75 9.22l1.781.874v.031zm5.625 2.374l1.812.875h.594l1.781.906-1.781-.875h-.594zm192.906 3.875l-.281 2.375-1.782-1.5zm-192.313 2.656l-1.187 1.782.594.906 1.187-.313-.594 1.5-1.78-2.093zm85.032 0l.875 2.375 1.781-.28v1.187l4.187.593-5.375 1.47-3.25-5.032zm-61.25 2.094h.03v.594l-.312.875.282-.875zm18.437.281l2.688 2.094-.907 2.688-.28.593-.313-.593h-.282l-.593-.313.593.281h.282l-.594-1.468 1.781-1.188zm-23.469.907l4.438 5.656.312.281.875-3.562-.03.28.062-.28-.719 5.156.094.187-.157.22-.437 3.062v-.907l-.281-.28-2.969-2.095 2.969 1.5V453.948l.093-.187.063-.532.062-1.062v-.031l-2.906-.844h2.688l-2.97-1.781-.593-2.094-3.281-.906 2.969.625zm14.25 1.187l.594.281h.594l.594.313-.594-.281h-.594zm2.094.594l.594.281h.594l.593.313-.593-.282h-.594zm2.375.594l.594.28h.594v.032h-.594zm2.688.593l.593.282h.594l.594.312-.594-.281h-.594zm11.281 7.125l1.781 2.97-1.5 7.155 1.188-7.437zm153.375 2.688l.281.875v.625l-.281-.906zm-16.656 7.125l2.093 5.937-3.562-2.656zm16.937.594l.313.906v.281l-.313-.875zm-142.656 6.53l-2.094.907 1.188.594zm104.625 3.595l-.906 2.062-3.563 2.688v-1.5zm9.219.593l-1.75.625.843.563-3.25.281 2.407-.844-.032-.03zm-.594 3.25l.594.594 2.375-.594 1.187 1.5 2.063-1.187.312.281-3.281 1.5-.594 2.656-3.25 2.094 2.656-.281-1.78 1.187-2.376.282.594.906-1.469.594.594-1.188-3-.312-1.781 1.78-.875-1.78 1.781-5.344 2.969-1.5 1.5.312zm-70.156.313l-2.094 7.719 3.281-3.875 7.125-2.063.906-.312 10.688-.875 9.812 3.843-10.406-3.562-11 1.5-3.25.594-4.156 1.468.281 2.407-10.406 5.03-.281 2.376-.313-2.063.594-.312 6.844-3.844zm161.406 3.562l-.906.875 1.5-.875zm-107 .594l-2.406 1.5.625-1.219zm-92.75 1.5l1.5.594-1.5.281zm174.781.875l-2.687 2.094v1.469l-2.375 1.78-1.5.313.312.875-1.187.313-1.5 2.062.312-.593-2.094 1.5.594.28-1.469.595.594-.875-2.094 1.468-.28.594-1.188.313-7.157 3.562-2.968 2.688.906 2.656-5.063 2.969-1.78 1.812 1.187 1.469 3.281-.875 8.625-3.594 14.25-12.469.906-1.5 1.781-1.187v-1.781l.875-.875.907.593 1.468-1.5-.875-3.25h-2.375zm-85.906 1.781l1.187.907-2.375 1.468zm45.781.594l-.594 1.188 1.47.312-.595-.906zm57.656 0l-1.5.906 1.5-.593zm-152.468 2.094l-1.188.875 1.469.594-1.781 1.187-.907-2.375zm49.906 1.469l3 5.656-1.188 1.187 3.844.907 2.375 3.25h-2.969l-1.468-2.375-4.188-2.094.313-4.75-.907.906zm65.406 2.375l-1.187.593h1.187zm-4.469.312l-.875.875h1.188zm-17.53 2.969l-.595.312h-.593l-.594.282.594-.313h.593zm-31.813 2.375l2.687.594-2.687.312zm9.218 2.094l2.094.593v.282l1.781 2.375-1.5 2.093 1.782 2.657-2.969.312-1.781-2.687 1.5-1.47-1.188-2.968-.312-.594h.312zm-17.53 1.187l-2.97 1.469 1.188-1.188zm-4.47.875l-1.78 2.094-2.063.281.281-.875zm3.282 4.156v.594l-1.469.594zm-5.063 10.125l-3.844.875-5.062 2.094 3.562-1.781zm-13.656 12.782l-.906.28h-.594z" fill="#b9b9b9"/><path d="M296.788 142.448l-1.187 1.188.906.906.281.281zm0 2.969l-1.78.625 1.5.875zm-6.812.906l-.906 3.875 1.781-2.375zm23.469 5.063l-.594 4.437-2.969 2.375v1.5l-1.5 5.344 2.375 1.5-.594 2.656h1.782l-1.782.313-.593 2.375 2.687-.907-.906 2.094 3-1.187-1.781-1.5 1.781-.594-1.781-.281 1.468-.313-1.468-1.187h1.468l-1.78-1.782 1.5-.28-.313-1.782-.282-2.688 2.657-7.718zm-45.469 1.468v1.782h-1.5l.594 1.78 1.187-.28 1.5-.313-1.5 1.5 3.281 1.188 2.375-3.563-1.78-1.5-1.5 1.188-.282-1.782-.313 2.375-1.78-1.78zm-2.688 2.094v4.75l-1.468-3.875-.594 2.094-1.5-1.5 1.5-.875-2.688.875 1.188 5.969 2.375-2.375v1.468l.906-.875.875 1.188-3.844 1.469.282 1.5 2.968-.907-2.375 1.188 1.5.906-2.375-.594 1.47 2.375 1.5 2.063 2.374-8 .875-.594 1.5-.594-1.5-1.78v-.032l-1.469-2.063-.593 1.188zm4.47 5.938l-1.5.593.905 1.188zm1.187 1.5l-1.782.875v2.687l1.47-.594.312 1.47 1.187-1.782zm43.406 10.093l-2.094.594-1.5 1.5 1.219.594-1.219 1.469 1.813-.594-.907 4.75 1.5 1.187 1.782-1.468 2.656 2.656 4.469-2.375-5.938-2.656-1.781-2.688zm22.875 6.532l-8.625 2.093v1.782l3.281 1.78-1.187 1.5.593 1.47-2.687-1.782-.875 3.282-2.688 1.78v1.782l-2.375 1.188-.906-2.688.906-1.469-.906.594-.594 3.844-.875-1.188-3.875 5.375 1.5.875-2.093 1.188.906 2.969-2.375 1.187-2.688-1.781 2.094-2.656-.906-1.188-6.25-.594 2.375 1.188 3.875 10.094-4.156-1.5-1.782 3.28-.906 2.095-.187.75 1.093 1.625 1.47 2.062h-4.157l-.594 1.188.594-1.47-3.25-.593-.313 2.063 3.563 1.187-.594 2.688-5.937-2.094-2.094-3.844.594-2.375-3.844-.906 1.187-.875-3.875-2.688 13.97 1.5 1.187-2.093 1.5-3.563-3.782-2.875-.093-.094-.594-.593-8.625-2.97-2.656.282-.594 2.094.281-2.375-2.062.281-.594-1.469h1.781l-1.781-.906-1.188 2.094-1.812-1.188-.875 1.188-1.5-1.5-.594-.594h2.688l1.187-1.781-3.562-1.5-1.5 2.094.906-2.375-1.5-.594-.594 2.969-.875.593v-2.687l-1.781 4.187.594-3.593-1.782-.594-1.5 4.781-2.937-1.844.281 1.844.594 1.188-1.5-1.188-2.094 2.969-.281.281.281-.594.594-2.656-.594 1.188-.594 1.468v-1.78l-1.187.905.906 1.782-2.094-1.188-.875 3.563-2.093.593 2.375.594h-2.657v2.656l-.593-2.062-1.5.875 1.187.594h-1.781l1.5 1.5-2.688 1.187 1.782.875-3.563.625.875.594-2.062 2.656 2.062-.281-2.969.875.907 1.187-.907-.593-1.468 2.968h1.781l-3.563 1.5 1.782-.312-1.782 1.187.875 1.188-1.468.594-.313-1.47-3.562 3.876 1.781.594 2.375-2.094-1.188 2.969-2.375.312-.28-1.5-2.407.594-.281 2.687-1.5-1.187 1.187 1.781-2.969-1.781 2.094 1.469-3.875-.282 1.5 2.657-.906-1.188-.594.906-1.187-.593.593.875-2.375-1.188v1.188l3.282.906-3.282-.594-.875 1.188 1.782.875-2.094-.282 1.5.594-1.188 1.188h2.97l.593-.907 1.187 1.5.875-1.5v1.188l-1.78 1.5-.595-1.5-3.843-.281 1.187 1.187h-1.5l.594 1.188 1.187-.594-1.78 1.5.312 1.187 1.187-1.187-1.187 2.375 4.156-2.094-5.063 3.563.594 1.187 2.375-.875-2.062 1.781 1.781.594-.906.875-1.469-1.187-.313 2.093 2.688 3.25h2.969l3.843-4.156 2.094.594 1.188-3.844.218 4.844h-.062l.156 2.594 1.125-.25s-.188.929-.312 1.53l-.219.782.625-.937c.258-.383.5-.782.5-.782l-.813 2.563-.03.062 2.343 5.532-1.156 1.062-.281.219v.031l.562 4.438 3.625.343 1.719-3.562 3.062.531 2.344-6.219-.125-1.5-.031-.28-.156-2.938.437-.063h.75l-.937-.469-.72-.406.782-.156 2.344-.438.094-.53.28-1.063.532 1.593.781-.78 1.313-1.188-.094-.063.063-.062-.688-.407-.125-.093h-.031l-.563-.407.125-.093.125-.063.22-.156 1.843-1.156-1.406-2.25-.125-.22-.813-1.374-2.094-.625 1.47-10.594.718.625.469.469 3.78-3.219.063-.062 1.5-1.47.032-.093 1.75-2.875-.032-.062-.812-4 .5.312.062.031.594.438-.125-1.094-.156-1.531.375.219 1.062.656v-.031h.032l.03-.219.032-.094v-.062l.312-1.406 3.47.312 2.093 3.563-8.313 10.656-.03.031 1.5 5.969-.594 4.156 2.687 1.781.219-.156.031-.031.031-.031.875-.563-.062.563-.22 2 .063-.032 12.72-5.312.312 1.781 4.156 1.188-5.063 1.468-.28 1.688v.031l-2.688-.219-.532-.062h-.03l-2.126-.25-4.25 2-.875.406.938 4.188 2.125.062-.313 4.781-.75.657-.906.593-1.375-1.562-.094-.125-1.312-1.781-2.375 1.187-.219.625-.094.188-.062.187-1.531 3.75.562 4.188.219 1.375.219 1.875h-1.782l1.344-3.25-1.344 2.656-1.5.594v1.5l1.188-.313-1.094.875h-.219l-.03.156-1.626 1.063 1.5-1.781-2.969 1.187-2.375-2.375-8.937 3.25-.281 2.094-4.157-4.156-5.969 1.468.907-2.062h-2.688l-1.469-2.688.875-3.875 4.157-2.969-2.063-1.468 2.063-4.47-5.625 2.095-2.688 10.687 1.188-.281.593 1.781-1.187.594 2.969 4.156-2.969-2.094-.875 2.375-1.188-1.78h-2.375l.594 1.78-4.187-1.468-1.782 1.187.907 2.375-1.782.875-.906-3.25-2.969 4.156 1.5 1.5h-3.562l2.062 1.47-7.718.312-.594 3.25-1.188.312-4.75 2.063-4.78-3.563v5.344l-3.845-.594-.593-2.062h-5.344l1.469 1.78-1.469-.593v2.375l5.344 3.281.593 5.032 1.782 1.5-1.188 2.656.281.625-4.156 8.906-16.656-6.531-1.469-2.094-5.937.906 1.187 4.157-3.875 8.906-4.156 4.75h1.781l-1.5 1.781 1.813.906h-.594l-2.406 5.344 7.156 1.781 2.656 7.125 5.063-1.468 7.718 2.968 3.282-2.687 2.656.312 1.5-2.968 1.781-.594 1.188-.313-.594-.875-.875-1.187.875-2.688.906-.593 4.438-3.875 8.031-1.782v-4.437l1.781-1.813 2.688-.593 6.531 3.875 9.5-4.75 4.469 2.968 2.093 7.438 15.157 12.187 1.781 5.344-2.375 3.563 1.469.593 2.093-3.875 2.375-.875-2.375-3.28 1.47-2.97 3.28.594 1.782 2.375.593-1.469-8.906-6.562.875-1.781-4.75-1.188-3.25-7.125-3.875-3.25-.312-5.656 4.468-1.188.344 1.407.563 3.218 2.343-2.218 4.188 8.562 2.906.563 2.594 2.28.25.563 3.875 1.782 2.531 2.843-1.219 6.532 2.157 2.53.562.75v-.218l2.531 3.406 1.532-.406-1.25 1.031 1.25 2.032 7.718.687-1.125.813-5.593-.75-.875 1.406 2.031 4.75 1.719-1.094 1.25 2.781.562-1.875 2.031 1.5-1.562-4.812 2.781.5-1.906-2.063 1.969-.843 1.781 1.593.125-2.093-5.719-2.782 1.656-.906-.125-1.5 1.313.5-2.844-5.5 1.281-.594 3.594 2.75-.75-1.78 2.281.624-2.593-2.531 5.062-1.406 3.344.656v-.031l2.625.53-2.094 2.97 4.469-4.75 5.031-.594-3.5-4.156-1.531-1.844-1.125.281 3.531-5.344.125-3.406.125-3.219.531.875.063.157 2.094-1.188-.594-4.469.469.938v.031l.125.219.406-.781 1.687-1.875.594-2.375 3.563-2.094 1.781 1.5-3.281.281 1.781.313-.594.875 5.938-.594.312 1.5-3.281 2.656 2.094-.594 1.187 3.875 2.094.282 7.719-6.22-3.563 1.188h-1.781l-2.094-2.093 1.781-3.25-.28 2.062 2.374-3.281 9.5-5.344-1.187 3.281-2.688.594 2.094 1.5-1.5 4.438-2.656 1.78 12.344 4.503 6.277.354 3.391.141c1.336.132 2.678.18 4.02.245l4.418-.183 2.494-.564c.87-.116 1.744-.215 2.617-.313 1.532-.141 2.59-.209 4.001.085.84-.078 1.434.117 2.213.303l1.258.007 2.385.349-1.1-.7-.8-.496-5.768-4.325-1.782-5.062-.312 1.812-3.844-3.875.281-5.656 3.875-2.063.282-3.875 4.156-4.75 1.156-.406v-1.031l-1-1.25-1.125-1-.5-2.156-.75-2.875-4.531-3.875-1-3.157v-1.375l2.125-2 1.625-1.125 1.656-1.375 2.25-1.75 2.875-1 2.625-.625 1.5-.906 2.281-.125.875-1 .875-.25.375.875 1.375.25 1.375-1 .5.625.157-.844-1.344-2.656 1.344 2.625.218-1.25 1.25.25 1.5-1.5.657-.875-1.032-2.25-.625-.375-.75.875-1-.5-1.125.625-.5-.5-1.125-.125.125-1.125-3.5-1-1.53-.125-.5-.5v-.531l-1-1-.376-4.5-.625-.875-1.375-.125-.875.75-1 2.125-.875 1.5h-1l-.5.375-4.281-2-1.125-1.125.375-1.25 2.906-2.75.75-2.406-.75-1.625-1.156-.5h-2.125l-1.25-1-.25-3 .625-1.75-2.5-6.657-1.625-4.375-1.875-3.406-1.031-1v-1.25l.25-.5-7.25-10.031 1.5-6.031 1.125-6.625-.625-4.907-.625-.375-3.907-3.062-2.437-.344zm-12.781 1.78l.906 1.782h2.656l-.281-1.187-.313-.282h-.593zm-129.282 10.72l-.906 2.968-.281-2.375-1.219 2.063-.875-1.469-.312 1.469-1.188-.875 3.875 3.25h-2.094l.907 1.5-3.875-2.094 2.687 5.063-3.562.593 2.656 1.188 1.187 2.375 1.188 2.375 3.875.312 4.469.282 3.562-1.47-.594-1.187 1.47.594-.282-5.656 1.781-.594-2.094.313-.28-2.407-1.5 1.5-2.376-1.78-1.187 2.093.312-2.688-2.094 1.188-.28-1.5-.313-.875-3.25 2.687 1.781-3.28zm118.875 0l-.593 2.375 1.781.875 1.187-2.375zm10.094 1.78l-1.469 3.845 4.75 8.625 3.282-2.063.875-5.062-.594 5.343-3.563 1.782-5.062-8.625zm11.906 0l.313.595h-.031zm-71.937 7.438l-1.188 2.375 2.094-1.78zm18.719 0l-.594 2.657h-2.063zm-22.563 2.375l-1.5 1.47.875.593zm.594.282l-1.219 2.968 1.5-1.187zm30 .906l.906 3.562-1.187.875zm-11.875 2.656h3.25l-.594 1.188zm10.094 7.438l.593 1.5-1.468-.594zm22.312 6.25l2.375 2.656 7.719 2.406v.281l-7.719-2.687-2.375-2.375zm-29.437 2.375l2.968 1.78-2.687-.28zm15.75.875l2.687 1.5h-1.5l.594 2.687zm49.937 0l3.25 3.875-.594 1.78.532.345.062-.032.375.282.531.312 1.5-.594-.906.875 1.781 1.5-2.906-2.093-.437-.25-1.719.562 1.187-1.781h-1.78l.593-2.094zm-51.125 2.093l1.188 1.188h-1.5zm-13.969 1.5l5.063 5.032-2.406-1.47.312 2.376h2.969l-.281-2.094 1.468.594v2.812l-.187.344-2.781 2.5 1.281.281-.063.094-2.125.531-1.468-2.093 1.781.593 1.781-1.78-3.875-2.688.594-2.063zm16.657.875l2.968 1.5 2.657 5.344-.875 1.781-2.375-.312 1.468-.875-3.562-2.688-1.5-2.968 2.094 2.093-1.188-2.687 2.094 2.375.875-1.188zm-18.438 1.5l.594 3.25.281-2.375 1.188 1.188-.875-1.469 1.468.594-2.656 4.156v3.281l1.781-.906-.593 2.375-2.094-2.375 1.187-4.156-.28-2.375-1.188-.594zm7.719 3.844l-1.188.594.907.906.593-1.5zm-12.188.594h2.375v1.5l-2.062.594v2.093l2.062-2.093-1.468 2.375 1.187 1.187-1.781-1.469v.282zm16.063.594l5.344 4.187-2.969 4.156-4.469-5.656zm59.75.312l.594.594-2.407 3.281zm-43.125 2.969l.594.906-1.782.281zm-102.531 1.781l-2.688 1.781-.281.907 1.469-.313zm2.968.594l-1.468 3.562-1.813-.875-.281 3.563-2.375.875 2.656 1.187-4.156 5.375 2.094-1.78 1.781-1.188.281 1.78-.875-.593-2.375 4.438.281 1.187.313-.875 4.75.875-2.375 1.781.594 2.375 1.187-.593-1.781 3 .906 1.187-4.187-.906-2.063 1.5h2.063l-.282 1.781-4.75 1.781 4.438 3.844 3.281-.875-2.687 2.063-3.25-1.188-5.657 3.563 5.938 1.218 1.187-1.812 9.532 2.687 4.437-.593.313-.875-2.969-1.5h1.781l3.25-3.282-.594-2.375-3.25-.875h-.312l.906-2.687v-.281l-.312-.594-1.469-.594 2.062.281.313-1.468-2.375-3-.313-6.813-3.843-2.375 3.25.594-1.782-1.188 2.375-.312 3.282-3.875-6.25-1.781 5.062-3.844zm102.25 2.094l-1.5 1.187 1.188.281 2.687 1.5-.875 2.657-4.187-2.375 2.687.312-2.093-2.687zm-107.593.875l.281 3.28.594-1.187zm121.562 2.093l.313 5.657-1.813-4.188zm21.094.594l.594.875.906-.875-5.063 6.531v1.188l-.28 1.781 1.468 1.188 1.781-1.782-.594 3.282 2.375-.313-2.375 2.094.594-1.188-3.562-2.375.593-5.062-1.187-1.188-4.156-1.5-3.282.313-2.25 1.594-1.593 1.375-.219-.063-.094.063-3.562-1.47 3.656 1.407 1.813-1.312 2.25-1.907 3.562-.28 3.875 1.78.906.594-.312-1.5 1.5.594 2.656-2.375zm-94.813.875l2.375.313-.875 2.656-3.875 1.5.594-2.688 1.781.313zm-48.156 1.5l-1.469 1.188h1.782zm82.938.281v2.688l-1.782-2.094zm-12.469.594l-.906.313.906 1.187 1.469-.906zm21.375.313l1.5 1.187-2.375.313zm75.5 1.78l1.781 1.188-1.187 1.188zm-98.375.313l.594 2.657 2.968-2.657zm-76.094.594l-2.969 1.469 1.782.906-1.782 1.469-3.875-1.781.594 2.375-2.375.906 2.969 2.375-3.844 1.781 3.25.875-5.031-.281 1.469 1.187-2.063.594 2.063.906-2.063.282 2.063.312-1.469.875 5.344.313 5.062.28 2.656-8.03 2.97-.875-.282-4.157h-3.281l1.5-.593-.907-1.188-1.468 1.469zm69.25 2.063l-2.375 1.78.313 2.376zm-25.25 1.78l2.063.595-1.782.312.313 1.781-.594-1.5-1.5.907zm7.719 5.657l-.875 2.094-.594-1.813-2.406.907 2.094 5.937v-2.062l2.375-2.688zm-6.25 1.781l-.594 1.782 2.094.593v-2.375zm101.062 4.157l-1.78 3.343.562 2.72.062.218 2.344 1.75-1.781 1.5v.281l-.594 7.438.312-7.438.282-2.094-.563-1.437-.031-.031-.031-.188-.844-2.187.281-.532v-.062zm-91.843 1.5l-1.469.875 1.469.593zm73.125 4.437l.312.594.281.906-.312-.906zm24.968.906l-.593.313-.907.281.907-.312zm-11.593 7.125l1.781 1.188v2.375l-.594 5.062-2.687 1.5-.282-2.093h1.782l-.594-2.97 1.5-.312.594-2.656zm-35.375 6.844l-.875.313h-1.782l-.906.28.906-.312h1.782zm-94.5.594l-.594 1.187v.594l-.313.594.282-.594v-.594zm90.031 0l-.594.312h-1.781l-.875.282.875-.313h1.781zm4.469.281l11 4.188 1.5-.907 1.187 5.344-3.875.906-.594 2.657-3.28 1.78 2.687-1.78.593-3.25 3.282-.594v-3.281zm-9.5.313l-.594.312h-1.781l-.907.281.907-.312h1.781zm-85.907 2.375l-.28.593v.907l-.626 1.187.594-1.187v-.907zm25.25 28.843l-3.25 2.375.875 4.157 2.375-2.375zm-1.468 7.72l-3.875.905-.282 8.907 4.438-.907 1.187-5.343zm-21.688 1.5l-3.281.874 1.781 1.781 2.094-1.187zm71.031 11.28l-1.5.594 5.657 3.563-.907-2.657zm-9.812 2.688l-.906 1.187 1.781.282zm-18.125.281l-11.594.313.594 2.062 8.312 4.469zm29.719 11.906v1.782l4.468.875 5.344-.594.594-1.469-2.094 1.188zm-34.407.032l.344 1.187 1.219.125-.125-1.187z" fill="#346733" fill-rule="evenodd"/><g clip-path="url(#p)" transform="matrix(1.23846 0 0 -1.23846 -88.407 624.863)"><text transform="matrix(1 0 0 -1 47.37 20.402)"><tspan style="-inkscape-font-specification:Times-Roman" x="0 3.96 7.9200001 11.88 15.84 17.82 20.900881 24.86088 28.820881 30.80088 34.76088 38.720879 40.700878 44.660881 48.62088 50.822639 54.782639 58.742641 60.944401 64.904404" y="0" font-size="7.92" font-weight="400" fill="#fff" font-family="Times">2008 Jun 12 03:54:25</tspan></text></g><g clip-path="url(#q)" transform="matrix(1.23846 0 0 -1.23846 -88.407 624.863)"><text transform="matrix(1 0 0 -1 134.161 20.88)"><tspan style="-inkscape-font-specification:Times-Roman" x="0 5.0251198 11.21256 15.85488 17.594879 19.91256 21.652559 27.84 30.930241 33.247921 35.1828 37.11768 40.597679 42.337681 48.907921 51.998161 53.933041 57.41304 60.503281 62.43816" y="0" font-size="6.96" font-weight="400" font-family="Times">OMC - Martin Weinelt</tspan></text></g><path d="M352.978 152.268v-.297.297z" fill="#137ac9"/><path d="M327.119 66.666h-.297.297zM231.708 121.654v-.297.297zM226.952 159.402h.298-.298zM213.874 267.296V267v.297zM526.56 284.536v-.297.297zM531.613 312.474v.892-.892zM531.316 255.11v-.297.297zM531.613 312.474v.892-.892zM7.002 210.526v-.298.298zM5.219 314.853v.297-.594.297z" fill="#fcc407"/><g clip-path="url(#r)" transform="matrix(1.23846 0 0 -1.23846 -88.407 624.863)"><text transform="matrix(1 0 0 -1 408.315 40.076)"><tspan style="-inkscape-font-specification:Times-Roman" x="0 6.96" y="0" font-size="13.92" font-weight="400" font-family="Times">km</tspan></text></g><g clip-path="url(#p)" transform="matrix(.65284 0 0 -.65284 -722.886 510.06)"><text transform="matrix(1 0 0 -1 47.37 20.402)"><tspan style="-inkscape-font-specification:Times-Roman" x="0 3.96 7.9200001 11.88 15.84 17.82 20.900881 24.86088 28.820881 30.80088 34.76088 38.720879 40.700878 44.660881 48.62088 50.822639 54.782639 58.742641 60.944401 64.904404" y="0" font-size="7.92" font-weight="400" fill="#fff" font-family="Times">2008 Jun 12 04:45:24</tspan></text></g><g clip-path="url(#q)" transform="matrix(.65284 0 0 -.65284 -722.886 510.06)"><text transform="matrix(1 0 0 -1 134.161 20.88)"><tspan style="-inkscape-font-specification:Times-Roman" x="0 5.0251198 11.21256 15.85488 17.594879 19.91256 21.652559 27.84 30.930241 33.247921 35.1828 37.11768 40.597679 42.337681 48.907921 51.998161 53.933041 57.41304 60.503281 62.43816" y="0" font-size="6.96" font-weight="400" font-family="Times">OMC - Martin Weinelt</tspan></text></g><g clip-path="url(#s)" transform="matrix(.65284 0 0 -.65284 -722.886 510.06)"><text transform="matrix(1 0 0 -1 408.315 40.076)"><tspan style="-inkscape-font-specification:Times-Roman" x="0 6.96" y="0" font-size="13.92" font-weight="400" font-family="Times">km</tspan></text></g><g stroke="#000" stroke-opacity=".468"><path d="M188.907 523.211c8.21 2.557 16.573 4.462 24.967 6.24 8.081 1.371 16.11 2.96 24.372 3.568a192.925 192.925 0 0 0 26.155 1.486c5.556.822 11.242-.435 16.94 0 5.729-.572 11.538-.804 17.24-1.486 8.122-.78 16.096-2.183 24.074-3.567 7.999-1.893 15.962-3.465 23.778-5.943 7.339-2.178 14.614-4.516 21.697-7.431 6.339-2.257 12.436-5.34 18.725-8.025 4.12-2.253 8.327-4.36 12.483-6.54M137.189 501.514c6.143 3.148 12.157 6.44 18.428 9.212 6.037 2.794 12.482 5.328 18.724 7.728 4.882 1.62 9.742 3.364 14.565 4.756M446.308 70.233c-4.384-4.75-9.401-8.876-14.32-13.058-3.42-2.895-7.082-5.466-10.641-8.182-3.189-2.172-6.282-4.49-9.638-6.406-2.794-1.896-5.467-4.014-8.624-5.285-1.291-.732-2.577-1.513-3.737-2.438" fill="none" stroke-width=".29723039999999995" stroke-miterlimit="10"/><path d="M306.61 533.02c7.743-5.676 6.291-20.544 7.728-30.713 1.619-69.889-6.962-137.782-15.158-206.172-8.458-60.73-18.043-121.616-30.91-181.303M419.855 488.733c23.948-18.661 22.018-53.654 17.833-80.547-8.918-54.135-33.39-104.811-61.227-153.959-30.63-50.987-66.653-98.819-108.187-139.396" fill="none" stroke-width=".2975" stroke-miterlimit="10"/><path d="M512.59 376.677c13.646-29.323 5.55-63.59-7.727-89.76-19.138-37.776-49.537-68.211-82.627-94.218-45.377-34.521-99.043-61.727-153.959-77.872" fill="none" stroke-width=".2975" stroke-miterlimit="10"/><path d="M529.83 212.012c-8.348-39.193-43.47-66.333-77.871-80.25-56.15-23.474-122.392-25.71-183.682-16.94M455.225 76.772c-26.134-24.267-66.72-18.087-96.596-8.322-31.586 10.038-62.19 26.912-90.354 46.365M344.655 11.976c-14.763-2.312-25.387 14.313-34.179 24.966-17.334 24.818-30.024 50.674-42.205 77.87M229.925 3.356c9.182 3.218 11.33 16.385 15.753 25.56 9.784 29.013 16.319 56.989 22.588 85.897M116.68 47.644c22.824-14.393 52.86-3.455 75.197 8.618 28.257 15.065 53.611 36.33 76.385 58.552M23.944 159.7c13.295-31.128 45.953-48.302 75.792-55.582 54.918-13.371 115.075-5.19 168.523 10.7" fill="none" stroke-width=".2975" stroke-miterlimit="10"/><path d="M6.705 324.365c-6.69-32.125 5.727-64.342 24.669-88.87 36.137-48.055 91.48-78.07 147.718-98.972 29.116-9.862 58.764-17.547 89.165-21.698" fill="none" stroke-width=".2975" stroke-miterlimit="10"/><path d="M81.31 459.604c-24.048-24.476-19.744-64.345-11.294-93.922 16.504-56.901 52.624-110.265 91.84-155.445 31.637-36.03 67.033-68.373 106.404-95.407M191.88 524.4c-13.161-5.736-12.979-24.237-14.861-37.45-1.48-60.403 11.416-117.149 24.669-174.764 17.254-66.972 38.437-133.698 66.577-197.352" fill="none" stroke-width=".2975" stroke-miterlimit="10"/><path d="M176.72 474.168c58.045 17.243 123.597 17.627 181.6.298 47.48-13.684 93.194-40.305 125.427-76.386 32.15-35.597 52.21-81.896 52.014-129.884M.76 268.188c-.174 45.133 17.317 87.898 45.773 122.751 33.388 40.117 80.186 68.223 130.181 83.22" fill="none" stroke-width=".2975" stroke-miterlimit="10"/><path d="M188.907 369.84c52.33 15.607 112.964 15.35 164.66-2.08 55.905-17.564 107.955-56.705 131.964-110.566 12.497-26.838 17.057-57.904 12.78-88.57-5.552-36.75-24.39-71.91-52.013-98.38M137.189 34.863c-38 21.554-70.504 53.733-87.382 93.623-11.38 25.84-15.807 55.235-11.59 84.41 5.499 43.869 31.536 84.744 66.278 112.645 24.603 20.525 54.34 35.133 84.41 44.286" fill="none" stroke-width=".2975" stroke-miterlimit="10"/><path d="M222.494 238.167c52.757 16.022 115.891 3.464 153.959-38.34 24.513-26.37 33.305-67.87 17.834-100.758-19.653-46.34-71.7-72.195-121.265-73.116-44.734-1.845-92.094 16.377-119.483 52.906-21.657 28.487-25.534 69.58-7.43 100.757 15.564 29.205 44.338 49.09 76.385 58.55z" fill="none" stroke-width=".2975" stroke-miterlimit="10"/></g><path d="M535.774 268.188c.733-91.966-49.963-181.96-128.993-228.858C327.087-9.9 221.398-12.113 139.67 33.64 58.22 77.407 3.055 166.385 1.079 258.973c-4.724 97.56 50.063 194.942 135.532 241.935 81.108 47.094 187.217 46.152 267.495-2.378 80.653-46.41 132.349-137.248 131.668-230.343z" fill="none" stroke="#aaa" stroke-width="1.48625" stroke-miterlimit="10"/><g transform="translate(0 -.185) scale(.9756)" fill-rule="evenodd"><circle r="275" cx="275" cy="275" opacity=".26" fill="url(#t)"/></g></svg>