<?xml version="1.0" encoding="UTF-8" standalone="no"?>
<svg xmlns:dc="http://purl.org/dc/elements/1.1/" xmlns:cc="http://creativecommons.org/ns#" xmlns:rdf="http://www.w3.org/1999/02/22-rdf-syntax-ns#" xmlns:svg="http://www.w3.org/2000/svg" xmlns="http://www.w3.org/2000/svg" xmlns:sodipodi="http://sodipodi.sourceforge.net/DTD/sodipodi-0.dtd" xmlns:inkscape="http://www.inkscape.org/namespaces/inkscape" version="1.1" x="0px" y="0px" width="619.43652" height="1000.0001" viewBox="0 0 619.43654 1000" id="svg2" inkscape:version="0.91 r13725" sodipodi:docname="FATA_Districts.svg">
  <metadata id="metadata164">
    <rdf:RDF>
      <cc:Work rdf:about="">
        <dc:format>image/svg+xml</dc:format>
        <dc:type rdf:resource="http://purl.org/dc/dcmitype/StillImage" />
        <dc:title />
      </cc:Work>
    </rdf:RDF>
  </metadata>
  <defs id="defs162">
    <inkscape:perspective sodipodi:type="inkscape:persp3d" inkscape:vp_x="0 : 400 : 1" inkscape:vp_y="0 : 1000 : 0" inkscape:vp_z="1000 : 400 : 1" inkscape:persp3d-origin="500 : 266.66667 : 1" id="perspective166" />
    <clipPath clipPathUnits="userSpaceOnUse" id="clipPath3140">
      <rect y="-1.4743698e-05" style="fill:#e0e0e0;fill-opacity:1" height="244.90001" width="151.7" x="3.9204751e-16" id="rect3142" />
    </clipPath>
    <clipPath clipPathUnits="userSpaceOnUse" id="clipPath3144">
      <rect y="126.69998" style="fill:#e0e0e0;fill-opacity:1" height="244.90001" width="151.7" x="421.29999" id="rect3146" />
    </clipPath>
    <clipPath clipPathUnits="userSpaceOnUse" id="clipPath3148">
      <rect y="-1.4743698e-05" style="fill:#e0e0e0;fill-opacity:1" height="244.90001" width="151.7" x="3.9204751e-16" id="rect3150" />
    </clipPath>
    <clipPath clipPathUnits="userSpaceOnUse" id="clipPath3152">
      <rect y="126.69998" style="fill:#e0e0e0;fill-opacity:1" height="244.90001" width="151.7" x="421.29999" id="rect3154" />
    </clipPath>
    <clipPath clipPathUnits="userSpaceOnUse" id="clipPath3156">
      <rect y="-1.4743698e-05" style="fill:#e0e0e0;fill-opacity:1" height="244.90001" width="151.7" x="3.9204751e-16" id="rect3158" />
    </clipPath>
    <clipPath clipPathUnits="userSpaceOnUse" id="clipPath3160">
      <rect y="126.69998" style="fill:#e0e0e0;fill-opacity:1" height="244.90001" width="151.7" x="421.29999" id="rect3162" />
    </clipPath>
    <clipPath clipPathUnits="userSpaceOnUse" id="clipPath3164">
      <rect y="-1.4743698e-05" style="fill:#e0e0e0;fill-opacity:1" height="244.90001" width="151.7" x="3.9204751e-16" id="rect3166" />
    </clipPath>
    <clipPath clipPathUnits="userSpaceOnUse" id="clipPath3168">
      <rect y="126.69998" style="fill:#e0e0e0;fill-opacity:1" height="244.90001" width="151.7" x="421.29999" id="rect3170" />
    </clipPath>
    <clipPath clipPathUnits="userSpaceOnUse" id="clipPath3172">
      <rect y="-1.4743698e-05" style="fill:#e0e0e0;fill-opacity:1" height="244.90001" width="151.7" x="3.9204751e-16" id="rect3174" />
    </clipPath>
  </defs>
  <sodipodi:namedview pagecolor="#ffffff" bordercolor="#666666" borderopacity="1" objecttolerance="10" gridtolerance="10" guidetolerance="10" inkscape:pageopacity="0" inkscape:pageshadow="2" inkscape:window-width="1440" inkscape:window-height="818" id="namedview160" showgrid="false" borderlayer="true" inkscape:showpageshadow="false" inkscape:zoom="0.59255548" inkscape:cx="10.113121" inkscape:cy="448.04703" inkscape:window-x="0" inkscape:window-y="1" inkscape:window-maximized="1" inkscape:current-layer="svg2" fit-margin-top="0" fit-margin-left="0" fit-margin-right="0" fit-margin-bottom="0" />
  <rect id="Outer_Areas" x="-4.8322296" width="161.09782" height="254.65395" style="fill:#e0e0e0;fill-opacity:1;stroke-width:0.2449;stroke-linecap:round;stroke-linejoin:round;stroke-miterlimit:4;stroke-dasharray:none" y="-3.7882619" clip-path="url(#clipPath3172)" transform="matrix(4.0832992,0,0,4.0832992,3.452289e-5,1.1171587e-4)" />
  <g id="Balochistan" style="fill:#f6e1b9;fill-opacity:1;stroke:#d0c0a0;stroke-width:0.2449;stroke-linecap:round;stroke-linejoin:round;stroke-miterlimit:4;stroke-dasharray:none" transform="matrix(4.0832992,0,0,4.0832992,-1720.2939,-517.35394)" clip-path="url(#clipPath3168)">
    <path d="m 406.5,361.9 19.4,-1.3 8.1,6.1 5.8,-1.2 -5.4,11.6 13.6,4.3 9.4,-13.2 0.2,-18.3 10.5,2.8 2.5,-6.1 -17,-10.1 -10.7,-13.9 -13.1,-6.2 -3.9,8.4 -5,4.4 -3.6,-1.1 z" id="Zhob" style="fill:#f6e1b9;fill-opacity:1;stroke-width:0.2449;stroke-linecap:round;stroke-linejoin:round;stroke-miterlimit:4;stroke-dasharray:none" inkscape:connector-curvature="0" sodipodi:nodetypes="ccccccccccccccccc" />
    <path d="m 453.6,336.5 17,10.1 -1.3,-8.4 -4.3,-2.6 1.2,-21.9 -3.8,2.6 -1.5,-1.6 1.9,-4.1 -3.6,-2.3 1.5,-4.8 -8.4,2.3 -5.3,5.8 -10.9,-0.5 -6.3,5.3 13.1,6.2 z" id="Sheerani" style="fill:#f6e1b9;fill-opacity:1;stroke-width:0.2449;stroke-linecap:round;stroke-linejoin:round;stroke-miterlimit:4;stroke-dasharray:none" inkscape:connector-curvature="0" />
    <path d="m 457.6,349.9 -0.2,18.3 -9.4,13.2 33,-8.6 0.6,-11.7 -1.2,-2.5 2,-12.4 -0.7,-8.5 -8.3,4 -2.8,4.9 -2.5,6.1 z" id="Musakhel" style="fill:#f6e1b9;fill-opacity:1;stroke-width:0.2449;stroke-linecap:round;stroke-linejoin:round;stroke-miterlimit:4;stroke-dasharray:none" inkscape:connector-curvature="0" sodipodi:nodetypes="cccccccccccc" />
    <path d="M 406.19666,378.73127 406.5,361.9 l 19.4,-1.3 8.1,6.1 5.8,-1.2 -5.4,11.6 z" id="Killa_Saifullah" style="fill:#f6e1b9;fill-opacity:1;stroke-width:0.2449;stroke-linecap:round;stroke-linejoin:round;stroke-miterlimit:4;stroke-dasharray:none" inkscape:connector-curvature="0" sodipodi:nodetypes="ccccccc" />
  </g>
  <path style="fill:none;stroke:#a08070;stroke-width:0.2449;stroke-linecap:round;stroke-linejoin:round;stroke-miterlimit:4;stroke-dasharray:none" d="m 60.3,234.40001 -1.2,-2.5 2,-12.4 -0.7,-8.5 -8.3,4 -2.8,4.9 -1.3,-8.4 -4.3,-2.6 1.2,-21.9 -3.8,2.6 -1.5,-1.6 1.9,-4.1 -3.6,-2.3 1.5,-4.8 -8.4,2.3 -5.3,5.8 -10.9,-0.5 -6.2999999,5.3 -3.9,8.4 -5.00000006,4.4 L -1.7720682,249.1074 59.7,246.10001 z" id="Balochistan_Border" inkscape:connector-curvature="0" sodipodi:nodetypes="ccccccccccccccccccccccc" clip-path="url(#clipPath3164)" transform="matrix(4.0832992,0,0,4.0832992,3.452289e-5,1.1171587e-4)" />
  <g id="Punjab" style="fill:#f6e1b9;fill-opacity:1;stroke:#d0c0a0;stroke-width:0.2449;stroke-linecap:round;stroke-linejoin:round;stroke-miterlimit:4;stroke-dasharray:none" transform="matrix(4.0832992,0,0,4.0832992,-1720.2939,-517.35394)" clip-path="url(#clipPath3160)">
    <path d="m 555.6,298.8 -29.4,0.5 5.5,-10.9 5,-1.9 0.3,-9.4 -4.8,1.8 0.1,-5.3 -3.8,0 -3.2,-9.5 1.8,-9.8 6.4,-4 7.6,-0.8 1.1,-3.7 -3.1,-9.2 9.2,1.1 2.4,6.3 5.4,2.3 -1.8,6.4 5.4,-1.1 6,9.9 -3.4,4.9 1.2,11.6 -5.8,5.2 2,3.8 -4.6,6.4 z" id="Mianwali" style="fill:#f6e1b9;fill-opacity:1;stroke-width:0.2449;stroke-linecap:round;stroke-linejoin:round;stroke-miterlimit:4;stroke-dasharray:none" inkscape:connector-curvature="0" />
    <path d="m 551.2,385 9.1,-15.3 -2.3,-14.3 -9.6,-4.1 -5.1,5.2 -7,0.5 -6.7,-10.8 -17.6,-3.8 -3.8,7.2 1.2,23.4 z" id="Layyah" style="fill:#f6e1b9;fill-opacity:1;stroke-width:0.2449;stroke-linecap:round;stroke-linejoin:round;stroke-miterlimit:4;stroke-dasharray:none" inkscape:connector-curvature="0" sodipodi:nodetypes="ccccccccccc" />
    <path d="m 568,336.3 8.4,-11.3 -2.9,-52.5 -10,5.5 -5.8,5.2 2,3.8 -4.6,6.4 0.5,5.4 0.8,8 -7.3,9.9 6.6,10.6 z" id="Khushab" style="fill:#f6e1b9;fill-opacity:1;stroke-width:0.2449;stroke-linecap:round;stroke-linejoin:round;stroke-miterlimit:4;stroke-dasharray:none" inkscape:connector-curvature="0" sodipodi:nodetypes="cccccccccccc" />
    <path d="m 579.7,381.1 -3.3,-56.1 -8.4,11.3 -0.2,15 -5.3,-0.9 -4.5,5 2.3,14.3 -9.1,15.3 z" id="Jhang" style="fill:#f6e1b9;fill-opacity:1;stroke-width:0.2449;stroke-linecap:round;stroke-linejoin:round;stroke-miterlimit:4;stroke-dasharray:none" inkscape:connector-curvature="0" sodipodi:nodetypes="ccccccccc" />
    <path d="m 509.4,373 -1.2,-23.4 -3.6,-3 -6.8,-0.8 -8.3,6.9 -6.7,3.2 0.3,5 -1.5,0.2 -0.6,11.7 z" id="Dera_Ghazi_Khan" style="fill:#f6e1b9;fill-opacity:1;stroke-width:0.2449;stroke-linecap:round;stroke-linejoin:round;stroke-miterlimit:4;stroke-dasharray:none" inkscape:connector-curvature="0" sodipodi:nodetypes="cccccccccc" />
    <path d="m 573.5,272.5 2,-4.2 2.4,-24.1 -3.2,2.8 -3.6,-1.3 -11.4,5.9 6,9.9 -3.4,4.9 1.2,11.6 z" id="Chakwal" style="fill:#f6e1b9;fill-opacity:1;stroke-width:0.2449;stroke-linecap:round;stroke-linejoin:round;stroke-miterlimit:4;stroke-dasharray:none" inkscape:connector-curvature="0" sodipodi:nodetypes="cccccccccc" />
    <path d="m 548.4,351.3 9.6,4.1 4.5,-5 5.3,0.9 0.2,-15 -12.3,-9 -6.6,-10.6 7.3,-9.9 -0.8,-8 -29.4,0.5 -4.9,15.3 -7.9,11.6 -2.2,8.3 3,0.5 -2.2,7.4 17.6,3.8 6.7,10.8 7,-0.5 z" id="Bhakkar" style="fill:#f6e1b9;fill-opacity:1;stroke-width:0.2449;stroke-linecap:round;stroke-linejoin:round;stroke-miterlimit:4;stroke-dasharray:none" inkscape:connector-curvature="0" />
    <path d="m 555.4,234.7 1.2,-4.7 7,-3.2 4.6,-7 3.9,-12.6 10.5,-1.1 -7.9,40.9 -3.6,-1.3 -11.4,5.9 -5.4,1.1 1.8,-6.4 2.1,-6.4 z" id="Attock" style="fill:#f6e1b9;fill-opacity:1;stroke-width:0.2449;stroke-linecap:round;stroke-linejoin:round;stroke-miterlimit:4;stroke-dasharray:none" inkscape:connector-curvature="0" sodipodi:nodetypes="ccccccccccccc" />
  </g>
  <path style="fill:none;stroke:#a08070;stroke-width:0.2449;stroke-linecap:round;stroke-linejoin:round;stroke-miterlimit:4;stroke-dasharray:none" d="m 161.3,79.400005 -10.5,1.1 -3.9,12.599995 -4.6,7 -7,3.2 -1.2,4.7 2.8,5.20001 -2.1,6.4 -5.4,-2.3 -2.4,-6.3 -9.2,-1.10001 3.1,9.20001 -1.1,3.7 -7.6,0.8 -6.4,4 -1.8,9.8 3.2,9.49999 3.8,0 -0.1,5.3 4.8,-1.8 -0.3,9.4 -5,1.9 -5.5,10.90001 -4.9,15.3 -7.9,11.6 -2.2,8.3 3,0.5 -2.2,7.4 -3.8,7.2 -3.6,-3 -6.8,-0.8 -8.3,6.9 -6.7,3.2 0.3,5 -1.5,0.2 -0.6,11.7 95.57351,2.85822 z" id="Punjab_Border" inkscape:connector-curvature="0" sodipodi:nodetypes="cccccccccccccccccccccccccccccccccccccc" clip-path="url(#clipPath3156)" transform="matrix(4.0832992,0,0,4.0832992,3.452289e-5,1.1171587e-4)" />
  <g id="FATA" style="fill:#ffffd0;fill-opacity:1;stroke:#d0c0a0;stroke-width:0.2449;stroke-linecap:round;stroke-linejoin:round;stroke-miterlimit:4;stroke-dasharray:none" transform="matrix(4.0832992,0,0,4.0832992,-1720.2939,-517.35394)" clip-path="url(#clipPath3152)">
    <path style="fill:#ffffd0;fill-opacity:1;stroke-width:0.2449;stroke-linecap:round;stroke-linejoin:round;stroke-miterlimit:4;stroke-dasharray:none" d="m 493.2,272.1 6,6.6 -1.3,3.1 -5,-3 -4.7,7.2 -15.1,10.5 -1,-17.1 12.4,-4.4 z" id="FR_Tank" inkscape:connector-curvature="0" />
    <path style="fill:#ffffd0;fill-opacity:1;stroke-width:0.2449;stroke-linecap:round;stroke-linejoin:round;stroke-miterlimit:4;stroke-dasharray:none" d="m 560,211.5 2.5,-2.5 -0.7,-2.1 -5.1,-3.4 -2.1,3.6 -5.3,1.9 11.7,5.5 z" id="FR_Peshawar" inkscape:connector-curvature="0" />
    <path style="fill:#ffffd0;fill-opacity:1;stroke-width:0.2449;stroke-linecap:round;stroke-linejoin:round;stroke-miterlimit:4;stroke-dasharray:none" d="m 484.5,275 8.7,-2.9 -3.7,-4 -1.3,-7.5 -6.8,8.1 z" id="FR_Lakki" inkscape:connector-curvature="0" />
    <path style="fill:#ffffd0;fill-opacity:1;stroke-width:0.2449;stroke-linecap:round;stroke-linejoin:round;stroke-miterlimit:4;stroke-dasharray:none" d="m 550.1,220.5 -1.5,-2.7 2.1,-2.4 -9.2,-1.8 3.1,-6.1 4.7,1.5 11.7,5.5 -6.9,5.6 z" id="FR_Kohat" inkscape:connector-curvature="0" />
    <path style="fill:#ffffd0;fill-opacity:1;stroke-width:0.2449;stroke-linecap:round;stroke-linejoin:round;stroke-miterlimit:4;stroke-dasharray:none" d="m 471.5,311.4 4.1,-4.2 3.4,1.7 1.3,13.6 9.2,30.2 -6.7,3.2 0.3,5 -1.5,0.2 -1.2,-2.5 2,-12.4 -0.7,-8.5 -8.3,4 -2.8,4.9 -1.3,-8.4 -4.3,-2.6 1.2,-21.9 -3.8,2.6 -1.5,-1.6 1.9,-4.1 3.8,-1.7 z" id="FR_D_I_Khan" inkscape:connector-curvature="0" />
    <path style="fill:#ffffd0;fill-opacity:1;stroke-width:0.2449;stroke-linecap:round;stroke-linejoin:round;stroke-miterlimit:4;stroke-dasharray:none" d="m 480.1,258.9 1.3,9.8 6.8,-8.1 8.1,-13.5 8.6,0.4 7.9,-8.2 -6.6,-2.6 -5.4,-2.1 -11.4,10.7 z" id="FR_Bannu" inkscape:connector-curvature="0" />
    <path style="fill:#ffffd0;fill-opacity:1;stroke-width:0.2449;stroke-linecap:round;stroke-linejoin:round;stroke-miterlimit:4;stroke-dasharray:none" d="m 451.9,276.9 0.8,-4.8 11.2,0 17.5,-3.4 3.1,6.3 -12.4,4.4 1,17.1 2.5,10.7 -4.1,4.2 -4.9,-2.5 -3.8,1.7 -3.6,-2.3 1.5,-4.8 -8.4,2.3 -5.3,5.8 -10.9,-0.5 -2.3,-9.6 0.4,-13.8 -2.4,-5.5 2.4,-5.1 5,-2 6,3.5 z" id="South_Waziristan" inkscape:connector-curvature="0" />
    <path style="fill:#ffffd0;fill-opacity:1;stroke-width:0.2449;stroke-linecap:round;stroke-linejoin:round;stroke-miterlimit:4;stroke-dasharray:none" d="m 528.1,208.7 -3,0.3 -1.2,7.9 -8.3,1.5 -8.5,-1.4 -8.5,-9.1 6.6,2.2 18.3,-9.7 11.6,7.1 9.5,0 -3.1,6.1 -5.1,0.9 z" id="Orakzai" inkscape:connector-curvature="0" />
    <path style="fill:#ffffd0;fill-opacity:1;stroke-width:0.2449;stroke-linecap:round;stroke-linejoin:round;stroke-miterlimit:4;stroke-dasharray:none" d="m 489.4,245.3 -9.3,13.6 1.3,9.8 -17.5,3.4 -11.2,0 -0.8,4.8 -6.7,1.7 -6,-3.5 3.2,-5.5 -2.9,-5.7 3.6,-4.9 3.5,-1.2 -2.1,-4.3 0.8,-5 3.6,-3.9 7.1,0.2 3.2,-1.9 4.5,1.8 7.3,-2.7 2.3,-4.1 4.4,-0.4 8.5,-6.9 12.2,1.1 2.4,2.9 z" id="North_Waziristan" inkscape:connector-curvature="0" />
    <path style="fill:#ffffd0;fill-opacity:1;stroke-width:0.2449;stroke-linecap:round;stroke-linejoin:round;stroke-miterlimit:4;stroke-dasharray:none" d="m 542.9,181.2 -4.9,6.5 -12,-9.7 2.4,-6.2 -4.6,-1.9 -3.6,-3.7 -0.1,-6.1 4.1,-1.4 1.4,-6.9 6.3,5.5 9.2,-2.7 3.5,9.2 6.7,-1.7 2.5,4.4 z" id="Mohmand" inkscape:connector-curvature="0" />
    <path style="fill:#ffffd0;fill-opacity:1;stroke-width:0.2449;stroke-linecap:round;stroke-linejoin:round;stroke-miterlimit:4;stroke-dasharray:none" d="m 486.2,230.6 -1.9,-5.2 -5.7,-5.4 0.8,-6.6 -3.3,-4.7 -5.9,-0.7 -7.3,-11.9 1.9,-5 5.7,-1.2 11.3,4.3 7.7,1.2 9.1,12.5 8.5,9.1 -1.6,5 -11.7,4.1 4.6,5.6 z" id="Kurram" inkscape:connector-curvature="0" />
    <path style="fill:#ffffd0;fill-opacity:1;stroke-width:0.2449;stroke-linecap:round;stroke-linejoin:round;stroke-miterlimit:4;stroke-dasharray:none" d="m 523.5,200.4 -18.3,9.7 -6.6,-2.2 -9.1,-12.5 18.8,-0.1 14.9,-5.6 3,-6.4 -0.2,-5.3 12,9.7 2.5,13 4,2.3 0.1,4.5 -9.5,0 z" id="Khyber" inkscape:connector-curvature="0" />
    <path style="fill:#ffffd0;fill-opacity:1;stroke-width:0.2449;stroke-linecap:round;stroke-linejoin:round;stroke-miterlimit:4;stroke-dasharray:none" d="m 541.1,154.6 3.5,9.2 6.7,-1.7 1.9,-5 4.3,-2.5 0.2,-6.8 -7.8,-2.1 -5,-8.5 -9.4,5.1 -4.7,7.4 -5.2,2.1 6.3,5.5 z" id="Bajur" inkscape:connector-curvature="0" />
  </g>
  <path style="fill:none;stroke:#a08070;stroke-width:0.2449;stroke-linecap:round;stroke-linejoin:round;stroke-miterlimit:4;stroke-dasharray:none" d="m 141.2,82.300005 -0.7,-2.1 -5.1,-3.4 -2.1,3.6 -5.3,1.9 -4.7,-1.5 -0.1,-4.5 -4,-2.3 -2.5,-13 4.9,-6.5 10.9,-14.7 -2.5,-4.4 1.9,-5 4.3,-2.5 0.2,-6.8 -7.8,-2.100001 -5,-8.5 -9.4,5.1 -4.7,7.400001 -5.2,2.1 -1.4,6.9 -4.1,1.4 0.1,6.1 3.6,3.7 4.6,1.9 -2.4,6.2 0.2,5.3 -3,6.4 -14.9,5.6 -18.8,0.1 -7.7,-1.2 -11.3,-4.3 -5.7,1.2 -1.9,5 7.3,11.9 5.9,0.7 3.3,4.7 -0.8,6.599995 5.7,5.4 1.9,5.2 -8.5,6.90001 -4.4,0.4 -2.3,4.1 -7.3,2.7 -4.5,-1.8 -3.2,1.9 -7.1,-0.2 -3.6,3.9 -0.8,5 2.1,4.3 -3.5,1.2 -3.6,4.9 2.9,5.7 -3.2,5.49999 -5,2 -2.4,5.1 2.4,5.5 -0.4,13.80001 2.3,9.6 10.9,0.5 5.3,-5.8 8.4,-2.3 -1.5,4.8 3.6,2.3 -1.9,4.1 1.5,1.6 3.8,-2.6 -1.2,21.9 4.3,2.6 1.3,8.4 2.8,-4.9 8.3,-4 0.7,8.5 -2,12.4 1.2,2.5 1.5,-0.2 -0.3,-5 6.7,-3.2 -9.2,-30.2 -1.3,-13.6 -3.4,-1.7 -2.5,-10.7 15.1,-10.50001 4.7,-7.2 5,3 1.3,-3.1 -6,-6.6 -3.7,-3.99999 -1.3,-7.5 8.1,-13.5 8.6,0.4 7.9,-8.2 L 84.9,110 l -5.4,-2.1 -2.4,-2.9 -4.6,-5.6 11.7,-4.1 1.6,-5 8.5,1.4 8.3,-1.5 1.2,-7.899995 3,-0.3 8.3,5.8 5.1,-0.9 9.2,1.8 -2.1,2.399995 1.5,2.7 4,-0.4 6.9,-5.599995 -1,-3 z" id="FATA_Border" clip-path="url(#clipPath3148)" inkscape:connector-curvature="0" transform="matrix(4.0832992,0,0,4.0832992,3.452289e-5,1.1171587e-4)" />
  <g id="Khyber_Pakhtunkhwah" style="fill:#f6e1b9;fill-opacity:1;stroke:#d0c0a0;stroke-width:0.2449;stroke-linecap:round;stroke-linejoin:round;stroke-miterlimit:4;stroke-dasharray:none" transform="matrix(4.0832992,0,0,4.0832992,-1720.2939,-517.35394)" clip-path="url(#clipPath3144)">
    <path style="fill:#f6e1b9;fill-opacity:1;stroke-width:0.2449;stroke-linecap:round;stroke-linejoin:round;stroke-miterlimit:4;stroke-dasharray:none" d="m 547.6,134 15.6,-1.8 6.2,9.8 6.3,0.1 0.14845,-17.91169 L 553.6,123.9 546.7,130 z" id="Upper_Dir" inkscape:connector-curvature="0" sodipodi:nodetypes="cccccccc" />
    <path style="fill:#f6e1b9;fill-opacity:1;stroke-width:0.2449;stroke-linecap:round;stroke-linejoin:round;stroke-miterlimit:4;stroke-dasharray:none" d="m 479,308.9 -3.4,-1.7 -2.5,-10.7 15.1,-10.5 4.7,-7.2 5,3 1.3,-3.1 6.5,5.7 -1.9,8.6 -6.8,9.4 z" id="Tank" inkscape:connector-curvature="0" />
    <path style="fill:#f6e1b9;fill-opacity:1;stroke-width:0.2449;stroke-linecap:round;stroke-linejoin:round;stroke-miterlimit:4;stroke-dasharray:none" d="m 540.5,200.7 4,2.3 0.1,4.5 4.7,1.5 5.3,-1.9 2.1,-3.6 1.7,-7.5 -2.7,-8.6 -12.8,-6.2 -4.9,6.5 z" id="Peshawar" inkscape:connector-curvature="0" />
    <path style="fill:#f6e1b9;fill-opacity:1;stroke-width:0.2449;stroke-linecap:round;stroke-linejoin:round;stroke-miterlimit:4;stroke-dasharray:none" d="m 566.2,184.3 -3.2,6.4 -7.3,-3.3 2.7,8.6 -1.7,7.5 5.1,3.4 0.7,2.1 9.6,-1.8 10.5,-1.1 -6,-19 z" id="Nowshera" inkscape:connector-curvature="0" sodipodi:nodetypes="ccccccccccc" />
    <path style="fill:#f6e1b9;fill-opacity:1;stroke-width:0.2449;stroke-linecap:round;stroke-linejoin:round;stroke-miterlimit:4;stroke-dasharray:none" d="m 566.2,184.3 10.4,2.8 3.9,-25 -10.6,0.9 -7.8,7.9 -1.2,4.2 z" id="Mardan" inkscape:connector-curvature="0" sodipodi:nodetypes="ccccccc" />
    <path style="fill:#f6e1b9;fill-opacity:1;stroke-width:0.2449;stroke-linecap:round;stroke-linejoin:round;stroke-miterlimit:4;stroke-dasharray:none" d="m 562.1,170.9 -8.3,-4.4 -2.5,-4.4 1.9,-5 4.3,-2.5 18.4,-1.2 4.6,8.7 -10.6,0.9 z" id="Malakand" inkscape:connector-curvature="0" sodipodi:nodetypes="ccccccccc" />
    <path style="fill:#f6e1b9;fill-opacity:1;stroke-width:0.2449;stroke-linecap:round;stroke-linejoin:round;stroke-miterlimit:4;stroke-dasharray:none" d="m 575.7,142.1 -6.3,-0.1 -6.2,-9.8 -15.6,1.8 -2.7,3.2 5,8.5 7.8,2.1 -0.2,6.8 18.4,-1.2 z" id="Lower_Dir" inkscape:connector-curvature="0" sodipodi:nodetypes="cccccccccc" />
    <path style="fill:#f6e1b9;fill-opacity:1;stroke-width:0.2449;stroke-linecap:round;stroke-linejoin:round;stroke-miterlimit:4;stroke-dasharray:none" d="m 503.8,293 28.4,-14.1 0.1,-5.3 -3.8,0 -3.2,-9.5 -7.9,-5.4 -9.2,5.4 -8.9,-2.6 -9.8,6.6 3.7,4 6,6.6 6.5,5.7 z" id="Lakki_Marwat" inkscape:connector-curvature="0" />
    <path style="fill:#f6e1b9;fill-opacity:1;stroke-width:0.2449;stroke-linecap:round;stroke-linejoin:round;stroke-miterlimit:4;stroke-dasharray:none" d="m 525.2,229.9 13.9,6.7 9.2,1.1 2.4,6.3 5.4,2.3 2.1,-6.4 -2.8,-5.2 1.2,-4.7 7,-3.2 4.6,-7 3.9,-12.6 -9.6,1.8 -2.5,2.5 1,3 -6.9,5.6 -4,0.4 -1.5,-2.7 2.1,-2.4 -9.2,-1.8 -5.1,0.9 -8.3,-5.8 -3,0.3 -1.2,7.9 8.3,1.3 z" id="Kohat" inkscape:connector-curvature="0" />
    <path style="fill:#f6e1b9;fill-opacity:1;stroke-width:0.2449;stroke-linecap:round;stroke-linejoin:round;stroke-miterlimit:4;stroke-dasharray:none" d="m 517.4,258.7 7.9,5.4 1.8,-9.8 6.4,-4 7.6,-0.8 1.1,-3.7 -3.1,-9.2 -13.9,-6.7 -10.7,2.1 -8.3,4.7 6.6,2.6 -7.9,8.2 10.3,2.9 z" id="Karak" inkscape:connector-curvature="0" />
    <path style="fill:#f6e1b9;fill-opacity:1;stroke-width:0.2449;stroke-linecap:round;stroke-linejoin:round;stroke-miterlimit:4;stroke-dasharray:none" d="m 506.2,236.7 -5.4,-2.1 -2.4,-2.9 -4.6,-5.6 11.7,-4.1 1.6,-5 8.5,1.4 8.3,-1.5 8.3,1.3 -7,11.7 -10.7,2.1 z" id="Hangu" inkscape:connector-curvature="0" />
    <path style="fill:#f6e1b9;fill-opacity:1;stroke-width:0.2449;stroke-linecap:round;stroke-linejoin:round;stroke-miterlimit:4;stroke-dasharray:none" d="m 489.5,352.7 8.3,-6.9 6.8,0.8 3.6,3 3.8,-7.2 2.2,-7.4 -3,-0.5 2.2,-8.3 7.9,-11.6 4.9,-15.3 5.5,-10.9 5,-1.9 0.3,-9.4 -4.8,1.8 -28.4,14.1 -6.8,9.4 -18,6.5 1.3,13.6 z" id="Dera_Ismail_Khan" inkscape:connector-curvature="0" />
    <path style="fill:#f6e1b9;fill-opacity:1;stroke-width:0.2449;stroke-linecap:round;stroke-linejoin:round;stroke-miterlimit:4;stroke-dasharray:none" d="m 553.8,166.5 8.3,4.4 -1.2,4.2 5.3,9.2 -3.2,6.4 -7.3,-3.3 -12.8,-6.2 z" id="Charsadda" inkscape:connector-curvature="0" />
    <path style="fill:#f6e1b9;fill-opacity:1;stroke-width:0.2449;stroke-linecap:round;stroke-linejoin:round;stroke-miterlimit:4;stroke-dasharray:none" d="m 508.2,264.1 9.2,-5.4 -2.2,-8.3 -10.3,-2.9 -8.6,-0.4 -8.1,13.5 1.3,7.5 9.8,-6.6 z" id="Bannu" inkscape:connector-curvature="0" />
  </g>
  <path style="fill:none;stroke:#a08070;stroke-width:0.2449;stroke-linecap:round;stroke-linejoin:round;stroke-miterlimit:4;stroke-dasharray:none" d="M 157.41838,-2.6028651 132.3,-2.7999956 l -6.9,6.0999996 0.9,4 -2.7,3.2 5,8.5 7.8,2.100001 -0.2,6.8 -4.3,2.5 -1.9,5 2.5,4.4 -10.9,14.7 -4.9,6.5 2.5,13 4,2.3 0.1,4.5 4.7,1.5 5.3,-1.9 2.1,-3.6 5.1,3.4 0.7,2.1 -2.5,2.5 1,3 -6.9,5.599995 -4,0.4 -1.5,-2.7 2.1,-2.399995 -9.2,-1.8 -5.1,0.9 -8.3,-5.8 -3,0.3 -1.2,7.899995 -8.3,1.5 -8.5,-1.4 -1.6,5 -11.7,4.1 7,8.5 5.4,2.1 6.6,2.60001 -7.9,8.2 -8.6,-0.4 -8.1,13.5 1.3,7.5 3.7,3.99999 6,6.6 -1.3,3.1 -5,-3 -4.7,7.2 -15.1,10.50001 2.5,10.7 3.4,1.7 1.3,13.6 9.2,30.2 8.3,-6.9 6.8,0.8 3.6,3 3.8,-7.2 2.2,-7.4 -3,-0.5 2.2,-8.3 7.9,-11.6 4.9,-15.3 5.5,-10.90001 5,-1.9 0.3,-9.4 -4.8,1.8 0.1,-5.3 -3.8,0 -3.2,-9.49999 1.8,-9.8 6.4,-4 7.6,-0.8 1.1,-3.7 -3.1,-9.20001 9.2,1.10001 2.4,6.3 5.4,2.3 2.1,-6.4 -2.8,-5.20001 1.2,-4.7 7,-3.2 4.6,-7 3.9,-12.599995 10.5,-1.1 z" id="Khyber_Pakhtunkhwah_Border" inkscape:connector-curvature="0" sodipodi:nodetypes="ccccccccccccccccccccccccccccccccccccccccccccccccccccccccccccccccccccccccccccccccccccc" clip-path="url(#clipPath3140)" transform="matrix(4.0832992,0,0,4.0832992,3.452289e-5,1.1171587e-4)" />
  <text xml:space="preserve" style="color:#000000;font-style:normal;font-variant:normal;font-weight:normal;font-stretch:normal;font-size:24px;line-height:125%;font-family:'DejaVu Sans';-inkscape-font-specification:'DejaVu Sans';text-indent:0;text-align:start;text-decoration:none;text-decoration-line:none;letter-spacing:0px;word-spacing:0px;text-transform:none;direction:ltr;block-progression:tb;writing-mode:lr-tb;text-anchor:start;display:inline;overflow:visible;visibility:visible;fill:#000000;fill-opacity:1;fill-rule:nonzero;stroke:none;stroke-width:1px;marker:none;enable-background:accumulate" x="491.85324" y="101.73463" id="text3944" sodipodi:linespacing="125%"><tspan sodipodi:role="line" id="tspan3946" x="491.85324" y="101.73463">1</tspan></text>
  <text xml:space="preserve" style="color:#000000;font-style:normal;font-variant:normal;font-weight:normal;font-stretch:normal;font-size:24px;line-height:125%;font-family:'DejaVu Sans';-inkscape-font-specification:'DejaVu Sans';text-indent:0;text-align:start;text-decoration:none;text-decoration-line:none;letter-spacing:0px;word-spacing:0px;text-transform:none;direction:ltr;block-progression:tb;writing-mode:lr-tb;text-anchor:start;display:inline;overflow:visible;visibility:visible;fill:#000000;fill-opacity:1;fill-rule:nonzero;stroke:none;stroke-width:1px;marker:none;enable-background:accumulate" x="427.90198" y="287.42398" id="text3948" sodipodi:linespacing="125%"><tspan sodipodi:role="line" id="tspan3950" x="427.90198" y="287.42398">2</tspan></text>
  <text xml:space="preserve" style="color:#000000;font-style:normal;font-variant:normal;font-weight:normal;font-stretch:normal;font-size:24px;line-height:125%;font-family:'DejaVu Sans';-inkscape-font-specification:'DejaVu Sans';text-indent:0;text-align:start;text-decoration:none;text-decoration-line:none;letter-spacing:0px;word-spacing:0px;text-transform:none;direction:ltr;block-progression:tb;writing-mode:lr-tb;text-anchor:start;display:inline;overflow:visible;visibility:visible;fill:#000000;fill-opacity:1;fill-rule:nonzero;stroke:none;stroke-width:1px;marker:none;enable-background:accumulate" x="260.73718" y="344.74594" id="text3952" sodipodi:linespacing="125%"><tspan sodipodi:role="line" id="tspan3954" x="260.73718" y="344.74594">3</tspan></text>
  <text xml:space="preserve" style="color:#000000;font-style:normal;font-variant:normal;font-weight:normal;font-stretch:normal;font-size:24px;line-height:125%;font-family:'DejaVu Sans';-inkscape-font-specification:'DejaVu Sans';text-indent:0;text-align:start;text-decoration:none;text-decoration-line:none;letter-spacing:0px;word-spacing:0px;text-transform:none;direction:ltr;block-progression:tb;writing-mode:lr-tb;text-anchor:start;display:inline;overflow:visible;visibility:visible;fill:#000000;fill-opacity:1;fill-rule:nonzero;stroke:none;stroke-width:1px;marker:none;enable-background:accumulate" x="464.95117" y="179.36449" id="text3956" sodipodi:linespacing="125%"><tspan sodipodi:role="line" id="tspan3958" x="464.95117" y="179.36449">4</tspan></text>
  <text xml:space="preserve" style="color:#000000;font-style:normal;font-variant:normal;font-weight:normal;font-stretch:normal;font-size:24px;line-height:125%;font-family:'DejaVu Sans';-inkscape-font-specification:'DejaVu Sans';text-indent:0;text-align:start;text-decoration:none;text-decoration-line:none;letter-spacing:0px;word-spacing:0px;text-transform:none;direction:ltr;block-progression:tb;writing-mode:lr-tb;text-anchor:start;display:inline;overflow:visible;visibility:visible;fill:#000000;fill-opacity:1;fill-rule:nonzero;stroke:none;stroke-width:1px;marker:none;enable-background:accumulate" x="186.50793" y="528.64221" id="text3960" sodipodi:linespacing="125%"><tspan sodipodi:role="line" id="tspan3962" x="186.50793" y="528.64221">5</tspan></text>
  <text xml:space="preserve" style="color:#000000;font-style:normal;font-variant:normal;font-weight:normal;font-stretch:normal;font-size:24px;line-height:125%;font-family:'DejaVu Sans';-inkscape-font-specification:'DejaVu Sans';text-indent:0;text-align:start;text-decoration:none;text-decoration-line:none;letter-spacing:0px;word-spacing:0px;text-transform:none;direction:ltr;block-progression:tb;writing-mode:lr-tb;text-anchor:start;display:inline;overflow:visible;visibility:visible;fill:#000000;fill-opacity:1;fill-rule:nonzero;stroke:none;stroke-width:1px;marker:none;enable-background:accumulate" x="382.20187" y="353.18399" id="text3964" sodipodi:linespacing="125%"><tspan sodipodi:role="line" id="tspan3966" x="382.20187" y="353.18399">6</tspan></text>
  <text xml:space="preserve" style="color:#000000;font-style:normal;font-variant:normal;font-weight:normal;font-stretch:normal;font-size:24px;line-height:125%;font-family:'DejaVu Sans';-inkscape-font-specification:'DejaVu Sans';text-indent:0;text-align:start;text-decoration:none;text-decoration-line:none;letter-spacing:0px;word-spacing:0px;text-transform:none;direction:ltr;block-progression:tb;writing-mode:lr-tb;text-anchor:start;display:inline;overflow:visible;visibility:visible;fill:#000000;fill-opacity:1;fill-rule:nonzero;stroke:none;stroke-width:1px;marker:none;enable-background:accumulate" x="134.16484" y="673.83295" id="text3968" sodipodi:linespacing="125%"><tspan sodipodi:role="line" id="tspan3970" x="134.16484" y="673.83295">7</tspan></text>
  <text xml:space="preserve" style="color:#000000;font-style:normal;font-variant:normal;font-weight:normal;font-stretch:normal;font-size:24px;line-height:125%;font-family:'DejaVu Sans';-inkscape-font-specification:'DejaVu Sans';text-indent:0;text-align:start;text-decoration:none;text-decoration-line:none;letter-spacing:0px;word-spacing:0px;text-transform:none;direction:ltr;block-progression:tb;writing-mode:lr-tb;text-anchor:start;display:inline;overflow:visible;visibility:visible;fill:#000000;fill-opacity:1;fill-rule:nonzero;stroke:none;stroke-width:1px;marker:none;enable-background:accumulate" x="321.47736" y="476.37921" id="text3972" sodipodi:linespacing="125%"><tspan sodipodi:role="line" id="tspan3974" x="321.47736" y="476.37921">8</tspan></text>
  <text xml:space="preserve" style="color:#000000;font-style:normal;font-variant:normal;font-weight:normal;font-stretch:normal;font-size:24px;line-height:125%;font-family:'DejaVu Sans';-inkscape-font-specification:'DejaVu Sans';text-indent:0;text-align:start;text-decoration:none;text-decoration-line:none;letter-spacing:0px;word-spacing:0px;text-transform:none;direction:ltr;block-progression:tb;writing-mode:lr-tb;text-anchor:start;display:inline;overflow:visible;visibility:visible;fill:#000000;fill-opacity:1;fill-rule:nonzero;stroke:none;stroke-width:1px;marker:none;enable-background:accumulate" x="205.05989" y="824.02594" id="text3976" sodipodi:linespacing="125%"><tspan sodipodi:role="line" id="tspan3978" x="205.05989" y="824.02594">9</tspan></text>
  <text xml:space="preserve" style="color:#000000;font-style:normal;font-variant:normal;font-weight:normal;font-stretch:normal;font-size:24px;line-height:125%;font-family:'DejaVu Sans';-inkscape-font-specification:'DejaVu Sans';text-indent:0;text-align:start;text-decoration:none;text-decoration-line:none;letter-spacing:0px;word-spacing:0px;text-transform:none;direction:ltr;block-progression:tb;writing-mode:lr-tb;text-anchor:start;display:inline;overflow:visible;visibility:visible;fill:#000000;fill-opacity:1;fill-rule:nonzero;stroke:none;stroke-width:1px;marker:none;enable-background:accumulate" x="528.01782" y="370.06003" id="text3980" sodipodi:linespacing="125%"><tspan sodipodi:role="line" id="tspan3982" x="528.01782" y="370.06003">10</tspan></text>
  <text xml:space="preserve" style="color:#000000;font-style:normal;font-variant:normal;font-weight:normal;font-stretch:normal;font-size:24px;line-height:125%;font-family:'DejaVu Sans';-inkscape-font-specification:'DejaVu Sans';text-indent:0;text-align:start;text-decoration:none;text-decoration-line:none;letter-spacing:0px;word-spacing:0px;text-transform:none;direction:ltr;block-progression:tb;writing-mode:lr-tb;text-anchor:start;display:inline;overflow:visible;visibility:visible;fill:#000000;fill-opacity:1;fill-rule:nonzero;stroke:none;stroke-width:1px;marker:none;enable-background:accumulate" x="249.66637" y="591.14026" id="text3984" sodipodi:linespacing="125%"><tspan sodipodi:role="line" id="tspan3986" x="249.66637" y="591.14026">11</tspan></text>
  <text xml:space="preserve" style="color:#000000;font-style:normal;font-variant:normal;font-weight:normal;font-stretch:normal;font-size:24px;line-height:125%;font-family:'DejaVu Sans';-inkscape-font-specification:'DejaVu Sans';text-indent:0;text-align:start;text-decoration:none;text-decoration-line:none;letter-spacing:0px;word-spacing:0px;text-transform:none;direction:ltr;block-progression:tb;writing-mode:lr-tb;text-anchor:start;display:inline;overflow:visible;visibility:visible;fill:#000000;fill-opacity:1;fill-rule:nonzero;stroke:none;stroke-width:1px;marker:none;enable-background:accumulate" x="539.96576" y="344.80261" id="text3988" sodipodi:linespacing="125%"><tspan sodipodi:role="line" id="tspan3990" x="539.96576" y="344.80261">12</tspan></text>
  <text xml:space="preserve" style="color:#000000;font-style:normal;font-variant:normal;font-weight:normal;font-stretch:normal;font-size:24px;line-height:125%;font-family:'DejaVu Sans';-inkscape-font-specification:'DejaVu Sans';text-indent:0;text-align:start;text-decoration:none;text-decoration-line:none;letter-spacing:0px;word-spacing:0px;text-transform:none;direction:ltr;block-progression:tb;writing-mode:lr-tb;text-anchor:start;display:inline;overflow:visible;visibility:visible;fill:#000000;fill-opacity:1;fill-rule:nonzero;stroke:none;stroke-width:1px;marker:none;enable-background:accumulate" x="228.52246" y="647.24927" id="text3992" sodipodi:linespacing="125%"><tspan sodipodi:role="line" id="tspan3994" x="228.52246" y="647.24927">13</tspan></text>
</svg>
