<?xml version="1.0" encoding="UTF-8" standalone="no"?>
<svg xmlns:dc="http://purl.org/dc/elements/1.1/" xmlns:cc="http://creativecommons.org/ns#" xmlns:rdf="http://www.w3.org/1999/02/22-rdf-syntax-ns#" xmlns:svg="http://www.w3.org/2000/svg" xmlns="http://www.w3.org/2000/svg" xmlns:sodipodi="http://sodipodi.sourceforge.net/DTD/sodipodi-0.dtd" xmlns:inkscape="http://www.inkscape.org/namespaces/inkscape" version="1.1" x="0px" y="0px" width="1000.0001" height="669.96429" viewBox="0 0 1000.0001 669.96432" id="svg2" inkscape:version="0.91 r13725" sodipodi:docname="Gilgit-Baltistan_Districts.svg" style="display:inline">
  <metadata id="metadata164">
    <rdf:RDF>
      <cc:Work rdf:about="">
        <dc:format>image/svg+xml</dc:format>
        <dc:type rdf:resource="http://purl.org/dc/dcmitype/StillImage" />
        <dc:title />
      </cc:Work>
    </rdf:RDF>
  </metadata>
  <defs id="defs162">
    <inkscape:perspective sodipodi:type="inkscape:persp3d" inkscape:vp_x="0 : 400 : 1" inkscape:vp_y="0 : 1000 : 0" inkscape:vp_z="1000 : 400 : 1" inkscape:persp3d-origin="500 : 266.66667 : 1" id="perspective166" />
    <clipPath clipPathUnits="userSpaceOnUse" id="clipPath3151">
      <rect y="7.8462281e-06" style="fill:#e0e0e0;fill-opacity:1" height="169.3" width="252.70001" x="0" id="rect3153" />
    </clipPath>
    <clipPath clipPathUnits="userSpaceOnUse" id="clipPath3155">
      <rect y="7.8462281e-06" style="fill:#e0e0e0;fill-opacity:1" height="169.3" width="252.70001" x="0" id="rect3157" />
    </clipPath>
    <clipPath clipPathUnits="userSpaceOnUse" id="clipPath3159">
      <rect y="3.6999962" style="fill:#e0e0e0;fill-opacity:1" height="169.3" width="252.70001" x="585.09998" id="rect3161" />
    </clipPath>
    <clipPath clipPathUnits="userSpaceOnUse" id="clipPath3163">
      <rect y="7.8462281e-06" style="fill:#e0e0e0;fill-opacity:1" height="169.3" width="252.70001" x="0" id="rect3165" />
    </clipPath>
    <clipPath clipPathUnits="userSpaceOnUse" id="clipPath3167">
      <rect y="3.6999962" style="fill:#e0e0e0;fill-opacity:1" height="169.3" width="252.70001" x="585.09998" id="rect3169" />
    </clipPath>
    <clipPath clipPathUnits="userSpaceOnUse" id="clipPath3171">
      <rect y="7.8462281e-06" style="fill:#e0e0e0;fill-opacity:1" height="169.3" width="252.70001" x="0" id="rect3173" />
    </clipPath>
    <clipPath clipPathUnits="userSpaceOnUse" id="clipPath3175">
      <rect y="3.6999962" style="fill:#e0e0e0;fill-opacity:1" height="169.3" width="252.70001" x="585.09998" id="rect3177" />
    </clipPath>
    <clipPath clipPathUnits="userSpaceOnUse" id="clipPath3179">
      <rect y="7.8462281e-06" style="fill:#e0e0e0;fill-opacity:1" height="169.3" width="252.70001" x="0" id="rect3181" />
    </clipPath>
    <clipPath clipPathUnits="userSpaceOnUse" id="clipPath3179-3">
      <rect y="7.8462281e-06" style="fill:#e0e0e0;fill-opacity:1" height="169.3" width="252.70001" x="0" id="rect3181-6" />
    </clipPath>
    <clipPath clipPathUnits="userSpaceOnUse" id="clipPath3175-2">
      <rect y="3.6999962" style="fill:#e0e0e0;fill-opacity:1" height="169.3" width="252.70001" x="585.09998" id="rect3177-1" />
    </clipPath>
    <clipPath clipPathUnits="userSpaceOnUse" id="clipPath3171-2">
      <rect y="7.8462281e-06" style="fill:#e0e0e0;fill-opacity:1" height="169.3" width="252.70001" x="0" id="rect3173-5" />
    </clipPath>
    <clipPath clipPathUnits="userSpaceOnUse" id="clipPath3167-3">
      <rect y="3.6999962" style="fill:#e0e0e0;fill-opacity:1" height="169.3" width="252.70001" x="585.09998" id="rect3169-9" />
    </clipPath>
    <clipPath clipPathUnits="userSpaceOnUse" id="clipPath3163-1">
      <rect y="7.8462281e-06" style="fill:#e0e0e0;fill-opacity:1" height="169.3" width="252.70001" x="0" id="rect3165-8" />
    </clipPath>
    <clipPath clipPathUnits="userSpaceOnUse" id="clipPath3159-8">
      <rect y="3.6999962" style="fill:#e0e0e0;fill-opacity:1" height="169.3" width="252.70001" x="585.09998" id="rect3161-7" />
    </clipPath>
    <clipPath clipPathUnits="userSpaceOnUse" id="clipPath3155-0">
      <rect y="7.8462281e-06" style="fill:#e0e0e0;fill-opacity:1" height="169.3" width="252.70001" x="0" id="rect3157-5" />
    </clipPath>
    <clipPath clipPathUnits="userSpaceOnUse" id="clipPath3151-2">
      <rect y="7.8462281e-06" style="fill:#e0e0e0;fill-opacity:1" height="169.3" width="252.70001" x="0" id="rect3153-7" />
    </clipPath>
  </defs>
  <sodipodi:namedview pagecolor="#ffffff" bordercolor="#666666" borderopacity="1" objecttolerance="10" gridtolerance="10" guidetolerance="10" inkscape:pageopacity="0" inkscape:pageshadow="2" inkscape:window-width="1440" inkscape:window-height="818" id="namedview160" showgrid="false" borderlayer="true" inkscape:showpageshadow="false" inkscape:zoom="0.62932496" inkscape:cx="258.56005" inkscape:cy="295.92675" inkscape:window-x="0" inkscape:window-y="1" inkscape:window-maximized="1" inkscape:current-layer="layer1" fit-margin-top="0" fit-margin-left="0" fit-margin-right="0" fit-margin-bottom="0" inkscape:snap-global="true" inkscape:object-paths="true" inkscape:snap-intersection-paths="true" inkscape:object-nodes="true" inkscape:snap-smooth-nodes="true" />
  <g inkscape:groupmode="layer" id="layer1" inkscape:label="Layer" style="opacity:1;display:inline">
    <rect id="Outer_Areas" x="-7.5343747" width="263.72308" height="178.28162" style="fill:#e0e0e0;fill-opacity:1;stroke-width:0.25270003000000002;stroke-linecap:round;stroke-linejoin:round;stroke-miterlimit:4;stroke-dasharray:none" y="-2.5066426" clip-path="url(#clipPath3179-3)" transform="matrix(3.9572612,0,0,3.9572612,1.262044e-4,-3.661598e-5)" />
    <g id="Khyber_Pakhtunkhwah" style="fill:#f6e1b9;fill-opacity:1;stroke:#d0c0a0;stroke-width:0.25270003000000002;stroke-linecap:round;stroke-linejoin:round;stroke-miterlimit:4;stroke-dasharray:none" transform="matrix(3.9572612,0,0,3.9572612,-2315.3934,-14.641857)" clip-path="url(#clipPath3175-2)">
      <path style="fill:#f6e1b9;fill-opacity:1;stroke-width:0.25270003000000002;stroke-linecap:round;stroke-linejoin:round;stroke-miterlimit:4;stroke-dasharray:none" d="m 584.5,122.1 3.1,-14.5 -7.3,-12 z" id="Upper_Dir" inkscape:connector-curvature="0" sodipodi:nodetypes="cccc" />
      <path style="fill:#f6e1b9;fill-opacity:1;stroke-width:0.25270003000000002;stroke-linecap:round;stroke-linejoin:round;stroke-miterlimit:4;stroke-dasharray:none" d="m 580.8,93.5 -0.5,2.1 7.3,12 -3.1,14.5 -3.8,36.4 13.9,-7.7 3.3,-16.7 6.4,-9.7 3.5,-9.9 -2.3,-3.2 5.7,-25.4 -7.7,2.2 -7.9,-4.7 -6.6,9.6 z" id="Swat" inkscape:connector-curvature="0" sodipodi:nodetypes="ccccccccccccccc" />
      <path style="fill:#f6e1b9;fill-opacity:1;stroke-width:0.25270003000000002;stroke-linecap:round;stroke-linejoin:round;stroke-miterlimit:4;stroke-dasharray:none" d="m 609,179.9 -3.9,-9 -8.5,8.8 -6,-1.8 4,-8.1 -3.5,-1.1 -5.1,7.3 c -10.06733,23.039 1.60531,19.87998 23,3.9 z" id="Swabi" inkscape:connector-curvature="0" sodipodi:nodetypes="cccccccc" />
      <path style="fill:#f6e1b9;fill-opacity:1;stroke-width:0.25270003000000002;stroke-linecap:round;stroke-linejoin:round;stroke-miterlimit:4;stroke-dasharray:none" d="m 603.9,151.5 1.6,8.1 4,-3 -1.1,-4.5 1.8,-7.1 2.6,1.6 2.3,-7.8 -1.8,-4.7 -4.4,0.5 -4.6,-10.2 -6.4,9.7 -3.3,16.7 3.8,3.6 z" id="Shangla" inkscape:connector-curvature="0" />
      <path style="fill:#f6e1b9;fill-opacity:1;stroke-width:0.25270003000000002;stroke-linecap:round;stroke-linejoin:round;stroke-miterlimit:4;stroke-dasharray:none" d="m 581.1,177.3 4.9,-1.3 5.1,-7.3 -9.4,-3 z" id="Mardan" inkscape:connector-curvature="0" sodipodi:nodetypes="ccccc" />
      <path style="fill:#f6e1b9;fill-opacity:1;stroke-width:0.25270003000000002;stroke-linecap:round;stroke-linejoin:round;stroke-miterlimit:4;stroke-dasharray:none" d="m 606.5,167.7 6.2,2.3 5.5,5 10.1,-1.7 7.9,-8 5.5,-1 1.5,-4.5 8.3,0.5 4.5,-11.7 12.7,-5.5 5.7,-9.3 -1.4,-2.1 3.3,-3.7 -10.6,-4.7 -8,7.1 -10.2,1.4 -5.1,5.8 -6,11.4 -7.1,-3 -6,9.2 -8.6,0.2 -1.9,-8.8 -2.6,-1.6 -1.8,7.1 1.1,4.5 -4,3 -1.5,3.5 z" id="Mansehra" inkscape:connector-curvature="0" />
      <path style="fill:#f6e1b9;fill-opacity:1;stroke-width:0.25270003000000002;stroke-linecap:round;stroke-linejoin:round;stroke-miterlimit:4;stroke-dasharray:none" d="m 607.8,114.5 -3.5,9.9 4.6,10.2 4.4,-0.5 1.8,4.7 6,-3.5 21.3,2.3 5.1,-5.8 10.2,-1.4 8,-7.1 -9.3,-0.8 -1.5,-5.6 0.7,-5.7 4.7,-5 -26.5,-6.5 -8,-7 0.3,-5.8 -2.4,-1.5 -4.9,1.8 -7.6,-1.3 -5.7,25.4 z" id="Kohistan" inkscape:connector-curvature="0" />
      <path style="fill:#f6e1b9;fill-opacity:1;stroke-width:0.25270003000000002;stroke-linecap:round;stroke-linejoin:round;stroke-miterlimit:4;stroke-dasharray:none" d="m 609,179.9 9.2,-4.9 -5.5,-5 -6.2,-2.3 -1.4,3.2 z" id="Haripur" inkscape:connector-curvature="0" sodipodi:nodetypes="cccccc" />
      <path style="fill:#f6e1b9;fill-opacity:1;stroke-width:0.25270003000000002;stroke-linecap:round;stroke-linejoin:round;stroke-miterlimit:4;stroke-dasharray:none" d="m 580.8,93.5 1.2,-59.2 12.7,-1.4 7.1,-4.1 14.3,0.2 2.2,-1.6 2.9,0.8 5.9,-2 10.6,0.8 14.3,-1.3 4.2,4.1 6.4,2.7 -0.3,4.5 -13.1,0 -10.7,-2.4 -16.2,4.3 1.3,3.9 -5.8,7.8 -3.7,0.7 -1.4,4.3 -15.4,9.2 -1.3,8.7 2.2,3.7 -2.6,6.2 -6.6,9.6 z" id="Chitral" inkscape:connector-curvature="0" sodipodi:nodetypes="cccccccccccccccccccccccccc" />
      <path style="fill:#f6e1b9;fill-opacity:1;stroke-width:0.25270003000000002;stroke-linecap:round;stroke-linejoin:round;stroke-miterlimit:4;stroke-dasharray:none" d="m 590.6,177.9 4,-8.1 -3.5,-1.1 -9.4,-3 -1.2,-3.6 0.2,-3.6 13.9,-7.7 3.8,3.6 5.5,-2.9 1.6,8.1 -1.5,3.5 2.5,4.6 -1.4,3.2 -8.5,8.8 z" id="Buner" inkscape:connector-curvature="0" />
      <path style="fill:#f6e1b9;fill-opacity:1;stroke-width:0.25270003000000002;stroke-linecap:round;stroke-linejoin:round;stroke-miterlimit:4;stroke-dasharray:none" d="m 629.3,146 -6,9.2 -8.6,0.2 -1.9,-8.8 2.3,-7.8 6,-3.5 21.3,2.3 -6,11.4 z" id="Battagram" inkscape:connector-curvature="0" />
      <path style="fill:#f6e1b9;fill-opacity:1;stroke-width:0.25270003000000002;stroke-linecap:round;stroke-linejoin:round;stroke-miterlimit:4;stroke-dasharray:none" d="m 645.6,192 -5.7,-22.3 1.8,-5.4 -5.5,1 -7.9,8 -10.1,1.7 z" id="Abbotabad" inkscape:connector-curvature="0" sodipodi:nodetypes="ccccccc" />
    </g>
    <path style="fill:none;stroke:#a08070;stroke-width:0.25270003000000002;stroke-linecap:round;stroke-linejoin:round;stroke-miterlimit:4;stroke-dasharray:none" d="m 91.2,124.30001 -10.6,-4.7 -9.3,-0.8 -1.5,-5.6 0.7,-5.7 4.7,-4.99999 -26.5,-6.50001 -8,-6.999998 0.3,-5.8 -2.4,-1.5 -4.9,1.8 -7.6,-1.3 -7.699999,2.2 -7.9,-4.7 2.6,-6.2 -2.2,-3.7 1.3,-8.7 15.399999,-9.2 1.4,-4.3 3.7,-0.7 5.8,-7.8 -1.3,-3.9 16.2,-4.3 10.7,2.4 13.1,0 0.3,-4.5 -6.4,-2.7 -4.2,-4.1 -14.3,1.3 -10.6,-0.8 -5.9,2 -2.9,-0.8 -2.2,1.6 -14.299999,-0.2 -7.1000002,4.1 -12.7000004,1.4 L -1.9033409,173.01194 60.5,188.30001 l -5.7,-22.3 1.8,-5.4 1.5,-4.5 8.3,0.5 4.5,-11.7 12.7,-5.5 5.7,-9.3 -1.4,-2.1 z" id="Khyber_Pakhtunkhwah_Border" inkscape:connector-curvature="0" sodipodi:nodetypes="ccccccccccccccccccccccccccccccccccccccccccccccc" clip-path="url(#clipPath3171-2)" transform="matrix(3.9572612,0,0,3.9572612,1.262044e-4,-3.661598e-5)" />
    <g id="Gilgit_Baltistan" style="fill:#ffffd0;fill-opacity:1;stroke:#d0c0a0;stroke-width:0.25270003000000002;stroke-linecap:round;stroke-linejoin:round;stroke-miterlimit:4;stroke-dasharray:none" transform="matrix(3.9572612,0,0,3.9572612,-2315.3934,-14.641857)" clip-path="url(#clipPath3167-3)">
      <path style="fill:#ffffd0;fill-opacity:1;stroke-width:0.25270003000000002;stroke-linecap:round;stroke-linejoin:round;stroke-miterlimit:4;stroke-dasharray:none" d="m 674.7,53 -2.4,10.3 4.3,5.9 -1.8,10.2 -7.2,7.1 -22.7,-1.3 -9.9,-4.2 -8.9,5.9 -2.4,-1.4 -4.9,1.7 -7.6,-1.3 -7.7,2.2 -7.9,-4.7 2.6,-6.2 -2.2,-3.7 1.3,-8.7 15.4,-9.2 1.4,-4.3 3.7,-0.7 5.8,-7.8 -1.3,-3.9 16.2,-4.3 10.7,2.4 13.1,0 0.3,-4.5 -6.4,-2.7 -4.2,-4.1 9.6,-0.2 6,3.5 4.5,0.5 15,12.7 z" id="_x34_" inkscape:connector-curvature="0" />
      <path style="fill:#ffffd0;fill-opacity:1;stroke-width:0.25270003000000002;stroke-linecap:round;stroke-linejoin:round;stroke-miterlimit:4;stroke-dasharray:none" d="m 707.8,114 -6,-15.4 -7.4,3.8 -11.8,-4.4 -15,-11.5 -22.7,-1.3 -9.9,-4.2 -8.9,5.9 -0.3,5.8 8,7 26.5,6.5 -4.7,5 -0.7,5.7 1.5,5.6 9.3,0.8 10.6,4.7 5.3,2.8 12.3,-4.2 4,-5.4 z" id="_x32_" inkscape:connector-curvature="0" />
      <path style="fill:#ffffd0;fill-opacity:1;stroke-width:0.25270003000000002;stroke-linecap:round;stroke-linejoin:round;stroke-miterlimit:4;stroke-dasharray:none" d="m 732,128.2 2.9,-3.4 -4.3,-5.3 -4.2,-7.6 -13,-11.1 1.7,-5.3 -7,-2.4 -0.7,-6.8 -4.5,1 -1.1,11.3 6,15.4 -9.9,7.2 -4,5.4 4.6,4.9 2,8 16.9,7.6 3.5,-3.2 2.8,1.3 2.8,-4.3 5.5,-4.3 z" id="_x31_" inkscape:connector-curvature="0" />
      <path style="fill:#ffffd0;fill-opacity:1;stroke-width:0.25270003;stroke-linecap:round;stroke-linejoin:round;stroke-miterlimit:4;stroke-dasharray:none" d="m 761.8,76.9 4.9,-3.7 -0.4,-3.8 4.1,-1.8 -0.9,-2.9 2.6,-0.3 -3.5,-6.7 1.3,-6 -4,-6.7 -0.6,-3.5 -9.4,-7.3 -9.2,-1.1 -0.7,2.5 -3.9,0.1 -3.2,-10.9 0.7,-1.8 -11.9,-2.7 -0.9,-1.8 -5.9,0.4 -5.4,4.5 -3.6,-3.2 -1.1,-4.2 -3.9,2.4 -3.3,-4.2 -3.6,0.7 -2,2.8 -0.4,4 -2.3,-2 -4.9,0.2 -8.3,5.4 -5.1,-0.5 -1.2,3.6 -3.7,1.1 15,12.7 -12.4,10.8 4.20773,10.941028 8.03478,7.40037 10.82033,-2.330864 7.44034,4.392272 L 714.7,75.5 l 6.1,-3.2 2.8,3.8 8.4,-9.8 7.2,-2.1 9.1,6.2 8.8,1 z" id="_x35_" inkscape:connector-curvature="0" sodipodi:nodetypes="ccccccccccccccccccccccccccccccccccccccccccccccc" />
      <path style="fill:#ffffd0;fill-opacity:1;stroke-width:0.25270003000000002;stroke-linecap:round;stroke-linejoin:round;stroke-miterlimit:4;stroke-dasharray:none" d="M 705.20318,73.402806 714.7,75.5 l 4.5,10.4 -11.1,7.2 -0.7,-6.8 -4.5,1 -1.1,11.3 -7.4,3.8 -11.8,-4.4 -15,-11.5 7.2,-7.1 1.8,-10.2 -4.3,-5.9 2.4,-10.3 4.20773,10.941028 8.03478,7.40037 10.82033,-2.330864 z" id="_x37_" inkscape:connector-curvature="0" sodipodi:nodetypes="cccccccccccccccccc" />
      <path style="fill:#ffffd0;fill-opacity:1;stroke-width:0.25270003000000002;stroke-linecap:round;stroke-linejoin:round;stroke-miterlimit:4;stroke-dasharray:none" d="m 790.7,96.7 -16.8,10.2 -6.7,14.1 15.8,9 10.6,3.1 -0.5,13.4 4.4,2.1 6.3,-0.3 3.4,-9.6 12.1,-0.5 0.8,-5.5 7.2,-1.2 -8.6,-15.9 -11,-12.8 -5.8,6.3 z" id="_x33_" inkscape:connector-curvature="0" />
      <path style="fill:#ffffd0;fill-opacity:1;stroke-width:0.25270003000000002;stroke-linecap:round;stroke-linejoin:round;stroke-miterlimit:4;stroke-dasharray:none" d="m 732,136.6 -5.5,4.3 5.1,4.9 1.3,5.7 -2.2,3.4 8.5,5.7 17.7,1.9 15,-9.1 4.5,1.8 16.7,-8.7 0.5,-13.4 -10.6,-3.1 -15.8,-9 6.7,-14.1 16.8,-10.2 11.2,12.4 5.8,-6.3 -0.1,-6.7 -4.4,-4.6 -4,-2 -0.4,-6.9 -1.6,-0.7 -8.5,2.9 -2.4,1.9 -8.1,0 -0.8,-5.6 -3.4,-4.8 -4.5,-0.2 -2.8,-2.9 -4.9,3.7 -4.7,-5.5 -8.8,-1 -9.1,-6.2 -7.2,2.1 -8.4,9.8 -2.8,-3.8 -6.1,3.2 4.5,10.4 -11.1,7.2 7,2.4 -1.7,5.3 13,11.1 4.2,7.6 4.3,5.3 -2.9,3.4 z" id="_x36_" inkscape:connector-curvature="0" />
    </g>
    <path style="fill:none;stroke:#a08070;stroke-width:0.25270003000000002;stroke-linecap:round;stroke-linejoin:round;stroke-miterlimit:4;stroke-dasharray:none" d="m 233.6,111.90001 -11,-12.8 -0.1,-6.7 -4.4,-4.599998 -4,-2 -0.4,-6.9 -1.6,-0.7 -8.5,2.9 -2.4,1.9 -8.1,0 -0.8,-5.6 -3.4,-4.8 -4.5,-0.2 -2.8,-2.9 -0.4,-3.8 4.1,-1.8 -0.9,-2.9 2.6,-0.3 -3.5,-6.7 1.3,-6 -4,-6.7 -0.6,-3.5 -9.4,-7.3 -9.2,-1.1 -0.7,2.5 -3.9,0.1 -3.2,-10.9 0.7,-1.799999 -11.9,-2.7 -0.9,-1.8 -5.9,0.4 -5.4,4.5 -3.6,-3.2 -1.1,-4.2 -3.9,2.4 -3.3,-4.2 -3.6,0.7 -2,2.8 -0.4,4 -2.3,-2 -4.9,0.2 -8.3,5.399999 -5.1,-0.5 -1.2,3.6 -3.7,1.1 -4.5,-0.5 -6,-3.5 -9.6,0.2 4.2,4.1 6.4,2.7 -0.3,4.5 -13.1,0 -10.7,-2.4 -16.2,4.3 1.3,3.9 -5.8,7.8 -3.7,0.7 -1.4,4.3 -15.399999,9.2 -1.3,8.7 2.2,3.7 -2.6,6.2 7.9,4.7 7.699999,-2.2 7.6,1.3 4.9,-1.7 2.4,1.4 -0.3,5.8 8,6.999998 26.5,6.50001 -4.7,4.99999 -0.7,5.7 1.5,5.6 9.3,0.8 10.6,4.7 5.3,2.8 12.3,-4.2 4.6,4.9 2,8 16.9,7.6 3.5,-3.2 2.8,1.3 2.8,-4.3 5.1,4.9 1.3,5.7 -2.2,3.4 8.5,5.7 17.7,1.9 15,-9.1 4.5,1.8 16.7,-8.7 4.4,2.1 6.3,-0.3 3.4,-9.6 12.1,-0.5 0.8,-5.5 7.2,-1.2 z" id="Gilgit_Baltistan_Border" clip-path="url(#clipPath3163-1)" inkscape:connector-curvature="0" transform="matrix(3.9572612,0,0,3.9572612,1.262044e-4,-3.661598e-5)" />
    <g id="Kashmir" transform="matrix(3.9572612,0,0,3.9572612,-2315.3934,-14.641857)" clip-path="url(#clipPath3159-8)" style="stroke-width:0.25270003000000002;stroke-linecap:round;stroke-linejoin:round;stroke-miterlimit:4;stroke-dasharray:none">
      <path style="fill:#a08070;fill-opacity:0.50196078000000000;stroke:#a08070;stroke-width:0.25270003000000002;stroke-linecap:round;stroke-linejoin:round;stroke-miterlimit:4;stroke-dasharray:none" d="m 769.9,51.7 -1.3,6 3.5,6.7 -2.6,0.3 0.9,2.9 -4.1,1.8 0.4,3.8 2.8,2.9 4.5,0.2 3.4,4.8 0.8,5.6 8.1,0 2.4,-1.9 8.5,-2.9 1.6,0.7 0.4,6.9 4,2 4.4,4.6 4.4,-0.1 6.1,4 4.1,0.2 6.5,4 7.4,0.3 3.4,3.2 5,-5.2 -2.8,-5.9 -5.5,-2.2 -7.8,-0.5 -8.7,-6.2 -7.8,-2.2 -4.3,-2.8 0.8,-9.8 -6.7,-5.5 -7.1,-0.7 z" id="Shaksgam_Valley" inkscape:connector-curvature="0" />
      <path style="fill:#a08070;fill-opacity:0.50196078000000000;stroke:#a08070;stroke-width:0.25270003000000002;stroke-linecap:round;stroke-linejoin:round;stroke-miterlimit:4;stroke-dasharray:none" d="m 667.4,152.2 -0.6,7 -2.6,1.6 0.1,2.9 -6,4.6 -0.2,3.8 3.4,0.6 2.9,-1.2 4.1,7.2 175.28472,-0.72698 L 861.5,105.7 l -34.2,25.8 -7.2,1.2 -0.8,5.5 -12.1,0.5 -3.4,9.6 -6.3,0.3 -4.4,-2.1 -16.7,8.7 -4.5,-1.8 -15,9.1 -17.7,-1.9 -8.5,-5.7 -10.3,0.4 -5.8,-2.4 -11.6,-1 -4.6,-4 -13.6,-1.7 -7.9,6 z" id="IHK" inkscape:connector-curvature="0" sodipodi:nodetypes="cccccccccccccccccccccccccccccc" />
      <path style="fill:#a08070;fill-opacity:1;stroke:#a08070;stroke-width:0.25270003000000002;stroke-linecap:round;stroke-linejoin:round;stroke-miterlimit:4;stroke-dasharray:none" d="m 807.6,96.1 0.1,6.7 11,12.8 8.6,15.9 34.2,-25.8 -22,2 -3.4,-3.2 -7.4,-0.3 -6.5,-4 -4.1,-0.2 -6.1,-4 z" id="Siachin" inkscape:connector-curvature="0" />
    </g>
    <path style="fill:#f6e1b9;fill-opacity:1;stroke:#a08070;stroke-width:0.25270003000000002;stroke-linecap:round;stroke-linejoin:round;stroke-miterlimit:4;stroke-dasharray:none" d="m 141.4,137.20001 -2.8,4.3 -2.8,-1.3 -3.5,3.2 -16.9,-7.6 -2,-8 -4.6,-4.9 -12.3,4.2 -5.3,-2.8 -3.3,3.7 1.4,2.1 -5.7,9.3 -12.7,5.5 -4.5,11.7 -8.3,-0.5 -1.5,4.5 -1.8,5.4 5.7,22.3 22.9,-13.3 -4.1,-7.2 -2.9,1.2 -3.4,-0.6 0.2,-3.8 6,-4.6 -0.1,-2.9 2.6,-1.6 0.6,-7 9.5,0 7.9,-6 13.6,1.7 4.6,4 11.6,1 5.8,2.4 10.3,-0.4 2.2,-3.4 -1.3,-5.7 z" id="AJK" inkscape:connector-curvature="0" sodipodi:nodetypes="ccccccccccccccccccccccccccccccccccccc" clip-path="url(#clipPath3155-0)" transform="matrix(3.9572612,0,0,3.9572612,1.262044e-4,-3.661598e-5)" />
    <path id="International_Borders" d="M -23.9,34.400012 0.6000005,17.200013 17.900001,14.700013 23.4,4.5000127 36.5,-3.6999883 m 73.7,0 -4.3,13.0000012 6.9,4.7000001" style="fill:none;stroke:#a08070;stroke-width:0.25270003000000002;stroke-linecap:round;stroke-linejoin:round;stroke-miterlimit:4;stroke-dasharray:none" inkscape:connector-curvature="0" sodipodi:nodetypes="cccccccc" clip-path="url(#clipPath3151-2)" transform="matrix(3.9572612,0,0,3.9572612,1.262044e-4,-3.661598e-5)" />
    <text xml:space="preserve" style="color:#000000;font-style:normal;font-variant:normal;font-weight:normal;font-stretch:normal;font-size:24px;line-height:125%;font-family:'DejaVu Sans';-inkscape-font-specification:'DejaVu Sans';text-indent:0;text-align:start;text-decoration:none;text-decoration-line:none;letter-spacing:0px;word-spacing:0px;text-transform:none;direction:ltr;block-progression:tb;writing-mode:lr-tb;text-anchor:start;display:inline;overflow:visible;visibility:visible;fill:#000000;fill-opacity:1;fill-rule:nonzero;stroke:none;stroke-width:1px;marker:none;enable-background:accumulate" x="844.32397" y="474.25479" id="text4022" sodipodi:linespacing="125%"><tspan sodipodi:role="line" id="tspan4024" x="844.32397" y="474.25479">1</tspan></text>
    <text xml:space="preserve" style="color:#000000;font-style:normal;font-variant:normal;font-weight:normal;font-stretch:normal;font-size:24px;line-height:125%;font-family:'DejaVu Sans';-inkscape-font-specification:'DejaVu Sans';text-indent:0;text-align:start;text-decoration:none;text-decoration-line:none;letter-spacing:0px;word-spacing:0px;text-transform:none;direction:ltr;block-progression:tb;writing-mode:lr-tb;text-anchor:start;display:inline;overflow:visible;visibility:visible;fill:#000000;fill-opacity:1;fill-rule:nonzero;stroke:none;stroke-width:1px;marker:none;enable-background:accumulate" x="649.0542" y="444.11646" id="text4026" sodipodi:linespacing="125%"><tspan sodipodi:role="line" id="tspan4028" x="649.0542" y="444.11646">2</tspan></text>
    <text xml:space="preserve" style="color:#000000;font-style:normal;font-variant:normal;font-weight:normal;font-stretch:normal;font-size:24px;line-height:125%;font-family:'DejaVu Sans';-inkscape-font-specification:'DejaVu Sans';text-indent:0;text-align:start;text-decoration:none;text-decoration-line:none;letter-spacing:0px;word-spacing:0px;text-transform:none;direction:ltr;block-progression:tb;writing-mode:lr-tb;text-anchor:start;display:inline;overflow:visible;visibility:visible;fill:#000000;fill-opacity:1;fill-rule:nonzero;stroke:none;stroke-width:1px;marker:none;enable-background:accumulate" x="510.71906" y="486.96292" id="text4030" sodipodi:linespacing="125%"><tspan sodipodi:role="line" id="tspan4032" x="510.71906" y="486.96292">3</tspan></text>
    <text xml:space="preserve" style="color:#000000;font-style:normal;font-variant:normal;font-weight:normal;font-stretch:normal;font-size:24px;line-height:125%;font-family:'DejaVu Sans';-inkscape-font-specification:'DejaVu Sans';text-indent:0;text-align:start;text-decoration:none;text-decoration-line:none;letter-spacing:0px;word-spacing:0px;text-transform:none;direction:ltr;block-progression:tb;writing-mode:lr-tb;text-anchor:start;display:inline;overflow:visible;visibility:visible;fill:#000000;fill-opacity:1;fill-rule:nonzero;stroke:none;stroke-width:1px;marker:none;enable-background:accumulate" x="361.3663" y="424.99567" id="text4034" sodipodi:linespacing="125%"><tspan sodipodi:role="line" id="tspan4036" x="361.3663" y="424.99567">4</tspan></text>
    <text xml:space="preserve" style="color:#000000;font-style:normal;font-variant:normal;font-weight:normal;font-stretch:normal;font-size:24px;line-height:125%;font-family:'DejaVu Sans';-inkscape-font-specification:'DejaVu Sans';text-indent:0;text-align:start;text-decoration:none;text-decoration-line:none;letter-spacing:0px;word-spacing:0px;text-transform:none;direction:ltr;block-progression:tb;writing-mode:lr-tb;text-anchor:start;display:inline;overflow:visible;visibility:visible;fill:#000000;fill-opacity:1;fill-rule:nonzero;stroke:none;stroke-width:1px;marker:none;enable-background:accumulate" x="234.25768" y="234.25853" id="text4038" sodipodi:linespacing="125%"><tspan sodipodi:role="line" id="tspan4040" x="234.25768" y="234.25853">5</tspan></text>
    <text xml:space="preserve" style="color:#000000;font-style:normal;font-variant:normal;font-weight:normal;font-stretch:normal;font-size:24px;line-height:125%;font-family:'DejaVu Sans';-inkscape-font-specification:'DejaVu Sans';text-indent:0;text-align:start;text-decoration:none;text-decoration-line:none;letter-spacing:0px;word-spacing:0px;text-transform:none;direction:ltr;block-progression:tb;writing-mode:lr-tb;text-anchor:start;display:inline;overflow:visible;visibility:visible;fill:#000000;fill-opacity:1;fill-rule:nonzero;stroke:none;stroke-width:1px;marker:none;enable-background:accumulate" x="408.9798" y="320.11749" id="text4042" sodipodi:linespacing="125%"><tspan sodipodi:role="line" id="tspan4044" x="408.9798" y="320.11749">6</tspan></text>
    <text xml:space="preserve" style="color:#000000;font-style:normal;font-variant:normal;font-weight:normal;font-stretch:normal;font-size:24px;line-height:125%;font-family:'DejaVu Sans';-inkscape-font-specification:'DejaVu Sans';text-indent:0;text-align:start;text-decoration:none;text-decoration-line:none;letter-spacing:0px;word-spacing:0px;text-transform:none;direction:ltr;block-progression:tb;writing-mode:lr-tb;text-anchor:start;display:inline;overflow:visible;visibility:visible;fill:#000000;fill-opacity:1;fill-rule:nonzero;stroke:none;stroke-width:1px;marker:none;enable-background:accumulate" x="520.2511" y="178.70001" id="text4046" sodipodi:linespacing="125%"><tspan sodipodi:role="line" id="tspan4048" x="520.2511" y="178.70001">7</tspan></text>
  </g>
</svg>
