<?xml version="1.0" encoding="UTF-8" standalone="no"?>
<!-- Created with Inkscape (http://www.inkscape.org/) -->
<svg
   xmlns:dc="http://purl.org/dc/elements/1.1/"
   xmlns:cc="http://web.resource.org/cc/"
   xmlns:rdf="http://www.w3.org/1999/02/22-rdf-syntax-ns#"
   xmlns:svg="http://www.w3.org/2000/svg"
   xmlns="http://www.w3.org/2000/svg"
   xmlns:sodipodi="http://sodipodi.sourceforge.net/DTD/sodipodi-0.dtd"
   xmlns:inkscape="http://www.inkscape.org/namespaces/inkscape"
   version="1.0"
   width="677.48706"
   height="1003.3441"
   id="svg4760"
   sodipodi:version="0.32"
   inkscape:version="0.44"
   sodipodi:docname="Governorates of Bahrain.svg"
   sodipodi:docbase="C:\Documents and Settings\Anis.TITANIUM\Bureau">
  <metadata
     id="metadata10">
    <rdf:RDF>
      <cc:Work
         rdf:about="">
        <dc:format>image/svg+xml</dc:format>
        <dc:type
           rdf:resource="http://purl.org/dc/dcmitype/StillImage" />
      </cc:Work>
    </rdf:RDF>
  </metadata>
  <sodipodi:namedview
     inkscape:window-height="712"
     inkscape:window-width="1024"
     inkscape:pageshadow="2"
     inkscape:pageopacity="0.0"
     guidetolerance="10.0"
     gridtolerance="10.0"
     objecttolerance="10.0"
     borderopacity="1.0"
     bordercolor="#666666"
     pagecolor="#ffffff"
     id="base"
     inkscape:zoom="0.36365101"
     inkscape:cx="-28.669924"
     inkscape:cy="430.5658"
     inkscape:window-x="-4"
     inkscape:window-y="-4"
     inkscape:current-layer="g2122"
     showguides="true"
     inkscape:guide-bbox="true" />
  <defs
     id="defs4763" />
  <g
     id="g2122">
    <path
       d="M 537.1338,514.49816 L 434.38851,1001.8441"
       style="fill:none;fill-rule:evenodd;stroke:#000000;stroke-width:3;stroke-linecap:butt;stroke-linejoin:miter;stroke-miterlimit:4;stroke-dasharray:none;stroke-opacity:1"
       id="path4833" />
    <path
       style="fill:#f4e2ba;stroke:#000000;stroke-width:3;stroke-miterlimit:4;stroke-dasharray:none;stroke-opacity:1"
       d="M 619.4375 777.3125 C 618.65872 777.3561 618.14017 777.66006 617.3125 778.25 C 613.01442 781.31339 611.70154 781.97361 609.21875 782.4375 C 607.77505 782.70728 606.1854 783.27606 605.6875 783.6875 C 604.61686 784.57223 604.5127 789.90322 605.5 792.5 C 605.88189 793.5044 606.68233 797.18462 607.28125 800.6875 C 608.33878 806.872 608.45461 807.15856 611.8125 810.15625 C 614.80753 812.83005 615.15542 813.41021 614.375 814.5 C 611.8621 818.0091 611.74552 818.93453 613.25 822.84375 C 614.05072 824.92435 615.04005 827.58622 615.46875 828.78125 C 616.59958 831.93345 619.55302 838.75837 620.28125 839.90625 C 621.22464 841.39325 625.78252 840.40019 627.5625 838.3125 C 629.67974 835.8294 641.88931 829.67843 646.53125 828.75 C 648.93471 828.2693 649.80553 828.97897 650.9375 832.40625 C 651.53196 834.20625 652.03542 834.57661 653.8125 834.5 C 654.99229 834.4492 657.88723 833.45668 660.25 832.3125 C 664.53882 830.2357 664.52797 830.2368 664.34375 827.25 C 664.17514 824.5159 664.51295 823.88368 668.15625 820 C 670.3998 817.6085 672.15624 815.08305 672.15625 814.21875 C 672.15625 812.85015 668.06056 807.00318 664.78125 803.6875 C 664.11082 803.0096 663.01493 801.6642 662.375 800.6875 C 661.3418 799.1107 660.50803 798.83959 654.90625 798.375 C 651.43663 798.0871 647.75199 797.42389 646.6875 796.875 C 645.41356 796.218 642.68856 795.90271 638.71875 796 C 634.18304 796.1112 631.96466 795.83294 629.8125 794.84375 C 627.20364 793.64465 627.08665 793.47432 628.375 792.78125 C 630.3889 791.69765 630.30492 791.81802 630.53125 788.8125 C 630.67371 786.92136 630.14322 784.96728 628.8125 782.5 C 627.04499 779.22288 626.55328 778.83557 623 777.9375 C 621.23923 777.49249 620.21628 777.2689 619.4375 777.3125 z "
       id="path1892" />
    <path
       style="fill:#f4e2ba;stroke:#000000;stroke-width:3;stroke-miterlimit:4;stroke-dasharray:none;stroke-opacity:1"
       d="M 637.21875 639.21875 C 634.9372 639.57223 632.53355 642.0776 632.03125 645.21875 C 631.6411 647.65875 631.24241 648.14136 629.21875 648.65625 C 627.92721 648.98488 626.56353 649.94416 626.1875 650.78125 C 625.51859 652.27021 621.6419 653.90628 618.75 653.90625 C 616.76949 653.90625 609.87501 659.63625 609.875 661.28125 C 609.875 662.01288 610.24482 663.20981 610.71875 663.96875 C 611.39454 665.05087 611.3703 665.60189 610.625 666.5 C 609.2522 668.15411 608.60292 667.95681 605.84375 665.03125 C 604.09123 663.17305 602.9985 662.55906 602.09375 662.90625 C 601.39246 663.17534 598.71906 663.57325 596.125 663.78125 C 589.44959 664.31653 588.05018 665.02691 584.0625 669.96875 C 582.11762 672.37907 579.67888 675.34593 578.65625 676.59375 C 575.95881 679.88541 570.74997 687.53333 570.75 688.1875 C 570.75 689.35733 560.56863 702.40623 559.65625 702.40625 C 559.12965 702.40625 557.35253 703.57481 555.6875 705 C 553.55171 706.82815 552.63538 708.16593 552.625 709.53125 C 552.61501 710.8486 550.77711 713.78872 546.84375 718.71875 L 541.0625 725.9375 L 541.0625 730.65625 C 541.06026 735.0277 540.82651 735.72575 537.75 740.40625 C 535.9278 743.17843 533.79743 745.90083 533.03125 746.4375 C 531.25035 747.68493 531.26147 750.16108 533.0625 753.625 C 536.30826 759.86775 535.27466 772.42296 530.875 780.21875 C 529.6955 782.30876 528.75001 785.10439 528.75 786.4375 C 528.75 789.70107 532.19519 794.95366 538.75 801.71875 C 545.7335 808.92615 546.59642 810.36812 547.59375 816.28125 C 548.53027 821.83325 548.35505 824.86734 546.53125 832.78125 C 544.79792 840.30235 544.72756 843.37304 546.15625 853.90625 C 547.58199 864.41805 547.18237 868.73329 544.21875 874.3125 C 543.19627 876.2373 542.24515 878.86406 542.125 880.15625 C 541.98848 881.62525 540.53828 884.32052 538.25 887.34375 C 533.64868 893.42295 532.80814 896.42434 533.28125 905.21875 C 533.65445 912.15625 534.92184 916.58674 537.28125 919.21875 C 539.34686 921.52295 547.01109 926.17832 550.0625 927 C 551.64004 927.4248 556.05418 929.38877 559.875 931.34375 C 563.6958 933.29875 567.64542 934.90193 568.625 934.90625 C 571.10198 934.91715 576.39001 936.60387 581.78125 939.09375 C 584.28799 940.25155 587.57769 941.59575 589.09375 942.09375 C 591.38068 942.84505 592.49319 944.00687 595.65625 948.90625 C 599.58881 954.99755 603.6236 958.78124 606.15625 958.78125 C 608.63685 958.78125 610.88648 959.96595 614.84375 963.34375 C 619.95363 967.70545 625.68557 970.67163 632.625 972.53125 C 635.78081 973.37695 638.63173 974.24851 638.9375 974.4375 C 641.92536 976.2841 655.50003 996.30991 655.5 998.875 C 655.5 999.3746 655.86573 1000.1783 656.34375 1000.6563 C 657.47262 1001.7852 658.01363 1001.7637 659.0625 1000.5 C 661.03265 998.12608 656.69538 989.94892 645.46875 974.875 C 640.06287 967.6166 633.23162 960.97418 631.15625 960.96875 C 630.43259 960.96685 623.07 956.23146 619.6875 953.59375 C 611.25407 947.01725 599.16813 939.66694 585.96875 933.09375 C 572.75019 926.51115 565.81431 922.77672 564.0625 921.28125 C 562.36118 919.82885 562.46546 916.87051 564.28125 914.9375 C 565.09595 914.0703 567.35452 910.81948 569.3125 907.71875 C 573.10434 901.71385 574.11567 897.97087 573.375 892.71875 C 572.95103 889.71215 573.02482 889.56973 576.375 887.09375 C 578.26144 885.69955 581.4354 883.2326 583.4375 881.625 C 585.43952 880.0173 588.20991 878.26978 589.59375 877.71875 C 593.44505 876.18515 595.31308 873.57045 595.34375 869.65625 C 595.36265 867.24625 594.99796 865.96273 593.96875 865.03125 C 593.18708 864.32385 592.16522 862.63416 591.71875 861.28125 C 590.89398 858.78225 588.00597 856.68753 585.40625 856.6875 C 584.66433 856.6875 583.11364 857.64875 581.96875 858.84375 C 580.82387 860.03875 579.22795 861.02866 578.40625 861.03125 C 577.58453 861.03385 575.94503 861.67733 574.75 862.46875 C 573.555 863.26025 571.4763 863.90367 570.15625 863.90625 L 567.75 863.90625 L 569.40625 861 C 570.30591 859.3993 573.08205 856.01773 575.59375 853.46875 C 578.10534 850.91985 580.15626 848.56115 580.15625 848.21875 C 580.15625 847.87625 579.2049 846.74873 578.03125 845.71875 C 573.30579 841.57235 574.39287 836.37765 580.90625 831.84375 C 582.40304 830.80185 582.71875 829.97706 582.71875 827.15625 C 582.71875 822.76285 583.59051 822.60237 590.40625 825.59375 L 595.65625 827.875 L 597.34375 825.9375 C 600.50122 822.2667 599.27121 816.7632 594.5625 813.5 C 591.5175 811.3898 591.26842 810.68651 592.875 808.5625 C 594.48071 806.4395 594.18059 805.43611 591.125 802.5 C 589.27181 800.7193 588.17202 798.92371 587.84375 797.125 C 587.29195 794.1009 584.69551 792.21874 581.0625 792.21875 C 578.19617 792.21875 577.28127 791.00514 577.28125 787.28125 C 577.28125 783.84653 575.23444 779.85877 570.96875 774.90625 C 567.90072 771.34429 567.09063 765.94614 568.96875 761.78125 C 569.87318 759.77561 570.71881 758.88612 571.78125 758.875 C 574.05001 758.85124 579.39223 756.24562 579.90625 754.90625 C 580.21355 754.10538 580.89678 753.87152 582.03125 754.15625 C 582.94328 754.38518 585.91152 754.10009 588.625 753.53125 C 592.8172 752.65253 593.96584 752.04477 596.28125 749.5625 C 598.67335 746.99804 598.99997 746.21841 599 743.0625 L 599 739.46875 L 604.96875 737.5 C 611.59875 735.31098 613.26152 735.21764 616.40625 736.84375 C 618.03029 737.68358 618.56249 738.4615 618.5625 740.03125 C 618.5625 742.12315 617.48733 742.96876 614.9375 742.96875 C 613.15652 742.96875 612.44316 745.16189 613.78125 746.5 C 614.74087 747.45962 615.36601 747.42317 619.34375 746.21875 C 621.81015 745.47198 625.11573 743.78185 626.6875 742.46875 C 628.25924 741.15562 629.91494 740.06252 630.34375 740.0625 C 632.23264 740.0625 633.75001 737.62208 633.75 734.59375 C 633.75 729.5442 632.89725 728.29019 627.6875 725.75 C 625.0651 724.47135 622.65746 723.40625 622.3125 723.40625 C 621.96755 723.40625 621.1498 722.84305 620.5 722.125 C 619.59115 721.12077 619.41651 719.97263 619.75 717.15625 C 620.13798 713.88027 619.98843 713.34565 618.46875 712.28125 C 615.50928 710.20839 610.59375 711.20675 610.59375 713.875 C 610.59375 715.55831 609.22073 716.88671 607.96875 716.40625 C 605.92407 715.62163 607.32792 708.01207 609.84375 706.25 C 610.65287 705.68323 611.3125 704.45778 611.3125 703.5 C 611.3125 702.03602 611.88783 701.56186 614.9375 700.65625 C 621.1956 698.79779 624.34372 696.14268 624.34375 692.71875 C 624.34375 691.46859 628.6766 684.89667 630.28125 683.71875 C 632.84789 681.83469 633.29827 679.76143 633.40625 669.28125 L 633.53125 658.96875 L 636.59375 656.125 C 639.66606 653.28867 639.68105 653.26273 639.1875 649.3125 C 638.86275 646.71352 638.94478 645.19881 639.46875 644.875 C 640.55757 644.20204 640.49239 640.35712 639.375 639.65625 C 638.71176 639.24024 637.97927 639.10092 637.21875 639.21875 z M 657.3125 727.78125 C 656.13741 728.15182 655.36078 729.54541 655.90625 731.71875 C 656.1375 732.63999 655.83334 734.37403 655.21875 735.5625 C 653.97849 737.96089 650.95591 739.41114 644.46875 740.75 C 642.18529 741.22126 640.07964 741.97402 639.8125 742.40625 C 639.5454 742.83855 639.21928 744.82406 639.0625 746.8125 C 638.9057 748.80097 638.29754 751.55217 637.71875 752.9375 C 635.97521 757.11043 636.37842 759.87525 639.21875 763.375 C 640.61777 765.09884 642.30779 767.43058 643 768.5625 C 643.69216 769.69442 645.1712 772.08196 646.28125 773.875 C 647.6841 776.14064 648.62863 777.01722 649.40625 776.71875 C 650.02164 776.48265 650.67711 776.28125 650.84375 776.28125 C 651.01032 776.28125 651.15623 775.60408 651.15625 774.78125 C 651.15625 773.08204 652.40674 770.40317 653.59375 769.59375 C 654.03199 769.29492 655.71919 768.70285 657.3125 768.28125 C 662.26573 766.97074 670.26587 763.83726 671.59375 762.6875 C 672.45234 761.94414 672.87498 760.53211 672.875 758.3125 C 672.875 756.51037 673.58085 752.84738 674.4375 750.1875 L 676 745.34375 L 670.875 740.375 C 668.06704 737.62911 664.99915 734.69283 664.0625 733.875 C 663.12584 733.05711 661.80357 731.3671 661.125 730.09375 C 660.05501 728.08579 658.48759 727.41068 657.3125 727.78125 z M 594.65625 764.625 C 593.75333 764.42507 592.96951 764.41952 592.46875 764.6875 C 591.68382 765.10756 590.82692 766.35351 590.5625 767.4375 C 590.29801 768.5214 589.31022 770.34276 588.375 771.46875 C 587.43971 772.59472 586.6875 774.43738 586.6875 775.59375 C 586.6875 778.44545 588.73461 783.62475 590.46875 785.15625 C 591.76912 786.30475 592.09519 786.29853 594.53125 785.28125 C 598.38428 783.67227 602.82425 780.98373 604.15625 779.4375 C 606.17797 777.09059 606.26962 775.70347 604.5625 773.59375 C 603.66734 772.48754 602.52984 770.70606 602.0625 769.625 C 601.1895 767.6055 597.365 765.2248 594.65625 764.625 z "
       id="path1890" />
    <path
       style="fill:#f4e2ba;stroke:#000000;stroke-width:3;stroke-miterlimit:4;stroke-dasharray:none;stroke-opacity:1"
       d="M 583.46875 595.21875 C 578.84433 595.21875 567.86889 603.12651 567.875 606.4375 C 567.87862 608.42659 569.90809 611.59902 573.59375 615.375 C 576.90108 618.76344 579.18183 619.16586 580.5 616.59375 C 581.04789 615.52477 581.83758 615.21306 583.5 615.375 C 585.09992 615.53083 586.43588 615.02497 588.0625 613.65625 C 591.67342 610.61784 591.91578 609.68411 590.5 604.21875 C 589.04515 598.60244 586.38718 595.21873 583.46875 595.21875 z M 609.03125 596.03125 C 607.67011 595.9076 606.93819 596.3569 606.625 597.34375 C 606.32046 598.30317 605.09677 598.98332 602.6875 599.5 C 598.63096 600.36998 594.24449 602.74171 593.59375 604.4375 C 592.45212 607.41245 592.3628 613.72953 593.4375 615.15625 C 594.39633 616.42903 594.80375 616.49642 596.78125 615.75 C 599.02104 614.90459 599.03096 614.90405 598.875 617.21875 C 598.78889 618.49776 598.98285 619.95468 599.28125 620.4375 C 600.05699 621.69266 602.13798 621.52515 609.53125 619.65625 C 617.31308 617.68913 623.38108 614.12998 623.875 611.25 C 624.85664 605.52602 623.46291 600.31247 620.96875 600.3125 C 620.41123 600.3125 617.823 599.31998 615.1875 598.125 C 612.38733 596.85534 610.39239 596.1549 609.03125 596.03125 z "
       id="path1888" />
    <path
       style="fill:#f4e2ba;stroke:#000000;stroke-width:3;stroke-miterlimit:4;stroke-dasharray:none;stroke-opacity:1"
       d="M 454.6875 366.6875 L 431.65625 353.90625 L 410.28125 309.15625 L 394.71875 320.84375 L 266.40625 280 L 270.28125 293.625 L 258.625 309.15625 L 268.34375 318.90625 L 280 439.4375 L 220.3125 453.875 C 222.13538 455.99207 223.125 458.76837 223.125 462.28125 C 223.125 464.66479 222.04212 467.53824 218.4375 474.65625 C 215.85544 479.75498 213.23899 484.44988 212.65625 485.09375 C 210.92285 487.00915 208.67334 492.57763 208.65625 494.96875 C 208.64597 496.41198 207.99095 497.83229 206.78125 498.96875 C 205.75434 499.93347 203.7299 502.60418 202.3125 504.9375 C 199.74753 509.15996 199.75046 509.20817 200.34375 514.71875 C 200.67154 517.76388 200.94746 523.19628 200.96875 526.78125 L 201 533.3125 L 195.9375 543.375 C 192.48127 550.25192 189.62564 554.85576 186.90625 557.90625 C 177.19773 568.79672 175.96906 570.35332 175.59375 572.0625 C 175.37517 573.05834 174.49608 575.47711 173.65625 577.46875 C 171.70398 582.09884 171.65869 588.62225 173.4375 599.21875 C 174.34186 604.60639 174.62056 608.94892 174.34375 612.625 C 174.11858 615.61468 174.27056 619.34632 174.6875 620.9375 C 175.10445 622.52866 175.79215 625.79753 176.1875 628.1875 C 176.58286 630.5775 177.24292 633.90506 177.65625 635.59375 C 178.41786 638.70576 185.53185 650.10214 190.4375 656.0625 C 191.91278 657.855 194.40707 661.12168 195.96875 663.3125 C 197.5305 665.50333 200.87807 669.37117 203.40625 671.90625 C 208.49607 677.01 212.76342 678.89801 217.40625 678.125 C 219.99592 677.69384 220.1452 677.81035 233.6875 691.3125 C 241.20397 698.80673 248.56817 706.83355 250.0625 709.125 C 257.23177 720.1181 281.38648 746.25327 283.59375 745.40625 C 285.17571 744.79919 284.91493 742.64426 282.96875 740.3125 C 279.14512 735.73146 276.71997 727.74999 279.15625 727.75 C 279.81321 727.75 280.66035 728.51001 281.03125 729.40625 C 281.40213 730.3025 283.56424 735.57961 285.8125 741.15625 C 293.20715 759.49811 295.39241 763.6528 307.5 782.09375 C 309.98451 785.87791 312.73028 790.41866 313.625 792.1875 C 314.51973 793.9564 317.61781 798.68059 320.5 802.6875 C 326.75245 811.3801 327.04591 811.88838 331.25 823 C 334.65118 831.9895 336.84037 843.81895 337.90625 858.84375 C 338.59848 868.60115 339.73108 875.29186 341.65625 881.21875 C 343.93812 888.24355 348.323 898.69772 349.65625 900.25 C 350.22196 900.9086 351.12808 903.63857 351.6875 906.3125 C 352.67131 911.0145 355.76035 917.4763 360.0625 923.875 C 361.20434 925.5734 362.84661 929.30501 363.71875 932.1875 C 364.59081 935.07 365.76452 938.52346 366.3125 939.84375 C 367.07686 941.68545 367.67821 942.17458 368.90625 942 C 370.18931 941.8175 370.48221 941.33014 370.40625 939.53125 C 370.35411 938.29735 369.79738 936.16777 369.1875 934.8125 C 367.24617 930.4993 366.33667 924.7792 366.6875 919.3125 C 366.98633 914.6561 367.39911 913.39539 370.0625 909.0625 C 374.34567 902.0944 378.56402 896.90104 384.875 890.90625 C 387.87901 888.05275 392.70737 882.70532 395.59375 879 C 401.61843 871.266 409.28475 862.21737 412.125 859.53125 C 414.05597 857.70515 418.19583 850.92568 421.59375 844.03125 C 422.56517 842.06035 424.98053 838.96943 426.9375 837.15625 C 428.89455 835.34305 431.9854 832.48761 433.8125 830.8125 L 437.125 827.78125 L 435.125 824.15625 C 431.09909 816.92245 430.08529 809.6521 431.71875 799.8125 C 432.11549 797.4225 432.36812 792.37792 432.3125 788.59375 C 432.02664 769.13722 432.33913 763.14144 434.34375 749.5 C 435.36812 742.52918 436.26663 734.04206 436.34375 730.65625 C 436.43928 726.46623 436.90365 723.76314 437.75 722.15625 C 438.43397 720.85783 438.9352 718.72821 438.875 717.4375 C 438.81482 716.14679 439.01853 713.7302 439.3125 712.0625 C 439.83939 709.07379 439.79219 708.99709 437.03125 707.6875 C 434.6356 706.55121 434.26304 706.0638 434.375 704.21875 C 434.61031 700.34347 435.84961 695.63287 438.03125 690.46875 C 442.09164 680.85749 445.46874 670.3689 445.46875 667.3125 C 445.46875 665.62728 445.03565 663.31286 444.5 662.15625 C 443.75034 660.53764 443.64939 658.45193 444.125 653.15625 C 444.46481 649.37209 444.89769 635.87163 445.09375 623.125 C 445.41792 602.04536 445.58956 599.66618 446.875 597.03125 C 450.07724 590.4674 451.3882 584.29499 451.78125 573.875 C 452.02416 567.43477 452.54651 562.79756 453.21875 561.1875 C 453.80083 559.79334 454.89565 554.47214 455.65625 549.375 C 456.41692 544.27786 457.50331 539.23751 458.0625 538.15625 C 458.62162 537.07498 460.27083 532.64017 461.71875 528.3125 C 464.27757 520.66446 464.36262 519.99289 465.09375 504.28125 L 465.84375 488.125 L 470.75 483.125 C 476.42509 477.34766 480.06782 470.88508 478.875 468.65625 C 478.41663 467.79974 475.35418 466.19122 471.03125 464.5625 C 467.13157 463.09325 462.85299 460.99447 461.53125 459.90625 C 459.16617 457.95906 459.11918 457.84357 458.84375 451.09375 C 458.68978 447.3215 458.05085 442.08917 457.4375 439.5 C 455.20488 430.07605 454.72474 425.99823 455.53125 423.09375 C 455.95406 421.57121 456.31025 419.49961 456.3125 418.5 C 456.31749 416.25619 458.61686 414.70651 461.03125 415.3125 C 462.50718 415.68294 462.9524 415.41716 463.5625 413.8125 C 463.96966 412.74157 464.12816 411.5779 463.90625 411.21875 C 463.68427 410.85961 463.17896 408.72039 462.8125 406.46875 C 462.05523 401.81577 461.12796 400.55199 455.78125 397 C 453.23778 395.31036 451.8317 393.84402 451.5625 392.5625 C 451.34088 391.50751 451.02546 389.89625 450.84375 389 C 450.26247 386.13375 451.24998 383.75001 453.03125 383.75 C 453.92214 383.75 455.23719 383.08961 455.96875 382.28125 C 457.145 380.98154 457.21227 380.3984 456.46875 377.375 C 456.0064 375.4946 455.43035 372.19082 455.1875 370 C 455.10655 369.26972 454.84509 367.79455 454.6875 366.6875 z "
       id="path1886" />
    <path
       style="fill:#eaca83;stroke:#000000;stroke-width:3;stroke-miterlimit:4;stroke-dasharray:none;stroke-opacity:1"
       d="M 356.34375 173.25 C 347.92447 173.87271 339.41497 174.30402 330.9375 174.78125 C 326.13585 175.05156 321.363 175.35182 316.625 175.78125 C 311.887 176.21068 307.20857 176.76261 302.59375 177.5 C 297.97893 178.23739 293.4321 179.14957 289 180.34375 C 286.78395 180.94084 284.59671 181.60456 282.4375 182.34375 C 280.27829 183.08294 278.15743 183.9126 276.0625 184.8125 C 273.96757 185.7124 271.8982 186.70204 269.875 187.78125 C 267.8518 188.86046 265.85029 190.03538 263.90625 191.3125 C 261.96221 192.58962 260.07618 193.94386 258.21875 195.4375 C 256.36132 196.93114 254.54463 198.55249 252.78125 200.28125 L 250.84375 252.78125 L 262.5 270.28125 L 262.5 283.90625 L 268.34375 286.84375 L 266.40625 280 L 394.71875 320.84375 L 410.28125 309.15625 L 431.65625 353.90625 L 454.6875 366.6875 C 454.37231 364.4734 454.07584 362.24022 453.6875 360.0625 C 452.47034 353.23671 452.83471 351.98453 457.625 346.65625 C 461.62114 342.21137 466.15913 339.56249 469.8125 339.5625 C 471.60703 339.5625 473.34723 339.12156 474 338.46875 C 475.00416 337.46465 474.86726 336.94234 472.75 333.21875 C 471.45672 330.9442 469.43369 327.33733 468.25 325.21875 C 467.06637 323.10016 463.94744 318.05555 461.3125 314 C 458.67749 309.94443 455.77472 304.49543 454.875 301.90625 C 453.97528 299.31709 452.01548 294.57765 450.5 291.375 C 448.98452 288.17235 447.49591 284.58525 447.21875 283.40625 C 446.77103 281.50211 446.84961 281.37878 447.8125 282.34375 C 449.19008 283.7243 453.35431 291.96382 456.21875 299 C 461.18937 311.20969 466.53774 320.42502 475.5625 332.15625 C 478.94551 336.55373 482.33151 334.64216 481 329.09375 C 480.56604 327.28542 479.87674 324.30176 479.4375 322.46875 C 478.75889 319.63676 478.8112 318.78339 479.90625 316.75 C 481.11189 314.51125 481.12353 314.24595 480 312.53125 C 479.3395 311.52319 477.91532 310.27692 476.8125 309.75 C 473.54002 308.18641 473.64557 301.1079 476.96875 299.59375 C 480.09371 298.16994 479.83935 296.7908 475.75 293.03125 L 471.90625 289.5 L 476.71875 284.84375 C 482.23117 279.49128 485.00114 278.73624 486.78125 282.0625 C 488.74235 285.72678 489.72683 285.64335 498.5 281.125 C 503.59432 278.50134 506.7543 276.43073 506.90625 275.625 C 507.0398 274.91697 505.47934 271.10006 503.4375 267.125 L 499.71875 259.90625 L 501.375 259.25 C 502.29015 258.88906 506.29085 257.14321 510.25 255.375 L 517.4375 252.15625 L 519.1875 254.21875 C 521.24341 256.66205 522.7344 256.7967 526.5625 254.84375 C 528.12411 254.04708 530.82248 253.38375 532.53125 253.375 C 537.96538 253.34718 544.38597 249.28862 542.875 246.84375 C 542.21609 245.77762 540.69327 245.98507 538.03125 247.5 C 536.71392 248.2497 534.07409 249.07474 532.1875 249.3125 C 528.95731 249.71958 528.75004 249.61822 528.3125 247.875 C 528.05496 246.84877 528.24388 245.25821 528.75 244.3125 C 529.87561 242.20927 529.26552 240.34374 527.4375 240.34375 C 526.68422 240.34375 517.62549 244.44796 507.3125 249.46875 C 477.55392 263.95655 472.59368 266.31067 470.71875 266.78125 C 469.22384 267.15645 468.7385 266.82902 467.6875 264.625 C 467.00569 263.19529 466.46875 260.56023 466.46875 258.78125 C 466.46875 255.70076 466.5777 255.5625 468.5625 255.5625 C 472.2528 255.5625 472.72754 254.04192 471.0625 247.71875 C 469.71128 242.58703 469.65717 241.64236 470.53125 235.65625 C 471.46886 229.2353 471.47732 229.14776 469.6875 226.09375 C 468.69283 224.39641 465.92479 220.56911 463.53125 217.59375 L 459.15625 212.1875 L 461.6875 208.875 C 463.07971 207.0511 464.45171 204.39224 464.71875 202.96875 C 465.22529 200.26863 464.17013 195.48108 462.46875 192.8125 C 461.02961 190.55522 455.09149 189.98989 447.625 191.40625 C 437.56746 193.31415 435.34149 194.76943 429.15625 203.40625 C 427.96125 205.07489 424.46209 208.4349 421.375 210.875 C 418.28792 213.31511 415.78125 215.81869 415.78125 216.4375 C 415.78125 217.05629 416.67862 218.70841 417.8125 220.09375 C 420.73851 223.66873 421.31959 224.97877 421.875 229.5625 C 422.14543 231.79427 422.83012 235.1793 423.40625 237.09375 C 423.98246 239.00819 424.46331 241.90163 424.46875 243.53125 C 424.48519 248.45719 425.061 249.43254 428.875 251.15625 C 431.68325 252.42541 432.43751 253.15206 432.4375 254.5 C 432.4375 256.2767 434.80888 258.46874 436.75 258.46875 C 437.36228 258.46875 438.2733 259.08041 438.75 259.84375 C 439.22677 260.60708 441.37842 261.74008 443.5625 262.375 C 447.76614 263.59704 450.53126 266.32384 450.53125 269.25 C 450.53125 271.42359 447.61024 271.25025 445.4375 268.9375 C 438.72031 261.78737 432.27693 259.39503 429.8125 263.15625 C 428.38487 265.33511 427.27004 265.44929 425.5625 263.5625 C 423.63971 261.43784 417.35743 260.23568 414 261.34375 C 409.30988 262.89162 408.65494 268.22093 412.84375 270.625 C 414.03563 271.30904 415.06828 272.61112 415.25 273.65625 C 415.42505 274.66331 415.80325 276.14085 416.09375 276.9375 C 416.87427 279.07777 413.68146 275.31006 411.40625 271.40625 C 410.41042 269.69761 408.56469 267.10714 407.28125 265.65625 C 405.11193 263.20371 404.96354 262.75561 405.375 259.28125 C 405.80606 255.64179 405.90346 255.5625 408.1875 255.5625 C 411.37503 255.5625 412.38637 254.11281 411.78125 250.53125 C 411.07548 246.35375 407.78656 242.28265 402.71875 239.3125 C 400.28776 237.88772 398.13308 236.71875 397.90625 236.71875 C 397.67942 236.71875 395.47178 235.29821 393.03125 233.5625 C 390.59063 231.82681 387.49625 229.84428 386.15625 229.15625 L 383.71875 227.90625 L 386.125 225.4375 C 388.12036 223.3788 388.52411 222.41568 388.5625 219.5625 C 388.60429 216.45558 388.40758 216.06584 386.5625 215.40625 C 385.10351 214.88467 384.19601 214.92802 383.3125 215.5625 C 379.46128 218.32822 378.94438 218.32971 375.71875 215.21875 C 374.03902 213.59877 371.60333 211.74286 370.3125 211.09375 C 367.05392 209.45515 365.94564 207.43493 363.96875 199.65625 C 363.0252 195.9436 361.42693 191.30334 360.40625 189.34375 C 359.3855 187.38416 358.5625 184.99278 358.5625 184.03125 C 358.5625 183.06972 357.87581 179.68551 357.0625 176.5 C 356.72493 175.17785 356.52167 174.19788 356.34375 173.25 z "
       id="path1900" />
    <path
       style="fill:#c09a53;stroke:#000000;stroke-width:3;stroke-miterlimit:4;stroke-dasharray:none;stroke-opacity:1"
       d="M 340.15625 174.21875 C 339.96103 172.779 339.79331 171.31242 339.5 169.90625 C 338.66671 165.91139 337.50538 162.18532 336.40625 159.4375 C 335.54793 157.29168 334.28786 154.94594 332.8125 152.5 C 331.33714 150.05406 329.62169 147.52205 327.8125 145.0625 C 326.00331 142.60295 324.10982 140.2179 322.25 138.03125 C 320.39018 135.8446 318.56473 133.84598 316.9375 132.21875 C 315.76908 131.05033 314.52656 130.15109 313.21875 129.46875 C 311.91094 128.78641 310.54452 128.33894 309.15625 128.0625 C 307.76798 127.78606 306.34731 127.66946 304.9375 127.71875 C 303.52769 127.76804 302.12242 127.95517 300.75 128.25 C 299.37758 128.54483 298.05736 128.94605 296.78125 129.40625 C 295.50514 129.86645 294.27712 130.39212 293.15625 130.9375 C 290.9145 132.02826 289.0485 133.20582 287.78125 134.15625 C 287.15839 134.6234 286.33574 134.85815 285.34375 134.90625 C 284.35176 134.95435 283.1966 134.84069 281.9375 134.5625 C 279.4193 134.00612 276.47462 132.86744 273.5 131.5625 C 267.55075 128.95263 261.50355 125.58892 258.625 124.4375 C 258.20521 124.26958 257.9451 123.70822 257.8125 122.8125 C 257.6799 121.91678 257.66082 120.69907 257.75 119.28125 C 257.92836 116.44562 258.48329 112.75225 259.15625 109.0625 C 260.04172 104.20764 260.65106 101.75336 261.34375 98.71875 C 258.64778 98.597186 255.71148 98.527212 253.65625 98.40625 C 246.86591 98.00661 240.39604 98.022846 237 98.4375 C 233.94565 98.81044 228.02626 99.435159 223.84375 99.84375 C 211.87667 101.01282 205.45734 102.42927 199.78125 105.15625 C 195.70058 107.11675 193.68369 107.65427 190.875 107.5625 C 186.18177 107.40918 183.57729 109.23426 183.0625 113.03125 C 182.68567 115.81085 178.48462 121.31006 171.78125 127.75 C 168.77753 130.63564 168.47506 130.74292 166.15625 130.03125 C 163.96897 129.35995 163.36181 129.50474 160.65625 131.40625 C 158.98804 132.5787 157.40029 134.35549 157.125 135.34375 C 156.20348 138.65308 156.48642 148.86442 157.625 153.90625 L 158.75 158.90625 L 163.3125 161.25 C 170.17006 164.80545 171.26906 166.30554 171.1875 171.75 C 171.15042 174.22669 170.91361 178.42716 170.625 181.09375 C 170.22819 184.76015 170.36665 186.78238 171.25 189.375 C 172.73318 193.72772 172.73893 196.5322 171.21875 202 C 170.08205 206.08847 167.17521 209.85828 164.5 210.75 C 164.0572 210.8976 163.49776 213.19037 163.25 215.84375 L 162.8125 220.6875 L 156.9375 221.40625 C 150.08284 222.2788 139.57192 223.43549 129.34375 224.4375 C 125.36042 224.82773 120.34187 225.53651 118.21875 226 L 114.375 226.84375 L 111.5 223.46875 C 108.49896 219.95777 104.63572 218.44362 102.25 219.8125 C 101.61636 220.17609 98.927188 220.35905 96.28125 220.21875 L 91.46875 219.96875 L 90.625 216.9375 C 89.767 213.87308 84.118783 207.28709 79.4375 203.875 C 76.00481 201.37294 63.356419 196.39442 55.8125 194.59375 C 53.11188 193.94914 43.697941 192.58611 35.53125 191.65625 C 34.12325 191.49593 33.681501 191.81481 33.5 193.09375 C 33.17417 195.38951 36.593581 196.69817 44.28125 197.1875 C 51.82655 197.66779 56.636373 198.90049 67.625 203.15625 C 74.84764 205.9535 76.869703 207.07879 80.53125 210.46875 C 82.91574 212.67638 85.198354 215.14022 85.625 215.9375 C 86.37328 217.33571 86.345618 217.32639 84.34375 215.84375 C 83.20227 214.99832 81.433338 213.67398 80.4375 212.875 C 78.33409 211.18737 75.910086 210.94593 74.75 212.34375 C 74.30343 212.88185 73.722446 214.83701 73.46875 216.6875 L 73 220.0625 L 69.65625 217.6875 C 67.81812 216.3733 64.67916 214.53941 62.6875 213.625 C 60.69583 212.71058 57.10875 211.05397 54.71875 209.9375 C 42.25043 204.11302 35.79187 202.88803 15.4375 202.46875 L 1.5 202.15625 L 1.5 203.78125 C 1.5 205.27317 1.9374098 205.42794 7.125 205.84375 C 10.21208 206.09121 17.442921 206.34251 23.21875 206.40625 C 28.99457 206.46997 36.024171 206.99936 38.8125 207.5625 C 46.53632 209.12244 67.943191 219.16506 71.1875 222.75 C 72.36272 224.04856 72.284713 224.24382 69.375 227.15625 C 61.78046 234.75785 62.078539 234.56249 58.625 234.5625 C 54.64145 234.5625 53.494191 235.42285 51.875 239.625 C 51.18429 241.41749 50.164312 243.37125 49.59375 243.96875 C 46.57055 247.13479 44.206809 250.9367 43.84375 253.28125 C 43.61894 254.73303 43.12917 257.82746 42.71875 260.15625 C 42.30825 262.48504 42.193401 266.49122 42.46875 269.0625 C 42.88208 272.92228 43.391879 274.27038 45.4375 276.71875 C 48.98744 280.9678 49.417209 281.95923 48.59375 284.125 C 47.39462 287.279 48.52297 292.50753 51.28125 296.59375 C 53.9466 300.54241 53.966592 300.93048 52.5 309.3125 L 52.03125 312.03125 L 57 314.3125 C 60.67958 315.9893 63.261069 316.62271 66.90625 316.78125 C 69.84892 316.90923 72.514243 317.46938 73.5625 318.15625 C 76.36894 319.9951 78.249409 319.5103 81.96875 316.03125 C 85.95737 312.30039 85.714673 312.31611 98.75 313.78125 C 105.33821 314.52177 107.67576 315.07724 108.90625 316.1875 C 112.29229 319.24278 116.36562 321.46876 118.59375 321.46875 C 121.1903 321.46875 123.1875 319.87544 123.1875 317.8125 C 123.1875 315.70179 120.98027 309.67679 119.6875 308.21875 C 118.62844 307.02433 118.62884 306.71687 119.71875 304.59375 C 120.3731 303.31915 121.29902 300.39082 121.75 298.09375 C 122.46541 294.44947 122.40292 293.57801 121.25 291.21875 C 120.15009 288.9679 119.36933 288.37076 116.65625 287.71875 L 113.40625 286.9375 L 112.875 279.03125 C 112.58559 274.68202 112.53243 266.57665 112.75 261 C 113.10306 251.94944 113.33989 250.4725 115 247.3125 C 116.68755 244.10032 116.81711 243.25214 116.40625 238.25 C 116.15719 235.21793 115.73951 232.04151 115.5 231.1875 C 115.10406 229.77556 115.42138 229.6121 118.9375 229.1875 C 121.06416 228.93069 128.17751 228.04193 134.75 227.25 C 141.32249 226.45806 150.44264 225.35831 155 224.78125 C 159.55744 224.20417 163.41012 223.84761 163.5625 224 C 163.92513 224.36265 161.73079 228.58353 159.875 231.09375 L 158.40625 233.0625 L 160.09375 243.40625 C 161.02063 249.09101 162.20021 254.97418 162.71875 256.46875 C 163.23731 257.96332 164.03572 261.14297 164.46875 263.53125 C 164.90184 265.91952 166.23351 270.17072 167.4375 273 C 168.64148 275.8293 169.41242 278.36886 169.15625 278.625 C 168.90015 278.88112 166.50187 280.57461 163.84375 282.375 C 158.10638 286.26104 157.65299 287.67408 160.875 291.34375 C 163.66159 294.51747 165.09557 294.60574 168.3125 291.78125 C 169.6735 290.58626 171.15258 289.59374 171.5625 289.59375 C 171.97242 289.59375 173.10983 290.5748 174.125 291.78125 C 175.62433 293.56312 175.96702 294.64101 175.84375 297.53125 C 175.71238 300.60946 176.27164 302.24926 180.03125 309.59375 C 185.32676 319.93876 188.15399 324.37499 189.5 324.375 C 190.80501 324.375 190.80469 325.17119 189.46875 326.9375 C 187.50446 329.53453 188.14764 331.51786 192.53125 336.1875 C 196.67405 340.60064 197.426 341.72634 199.5 346.9375 C 200.14168 348.54975 201.4411 350.05701 202.78125 350.75 C 204.00087 351.3807 205.42412 352.78634 205.96875 353.875 C 209.11492 360.16391 213.79897 379.19691 214.28125 387.71875 C 214.43899 390.50708 214.81415 393.13291 215.125 393.53125 C 216.39684 395.16122 216.56789 399.88788 215.625 407 C 215.0761 411.13992 214.69216 417.30166 214.78125 420.6875 C 214.92733 426.24149 215.22868 427.34858 217.65625 431.90625 C 220.54612 437.33163 220.43602 436.3814 219.0625 448.09375 C 218.67952 451.3593 218.84625 452.16814 220.09375 453.5 C 220.19221 453.60512 220.21887 453.76626 220.3125 453.875 L 280 439.4375 L 268.34375 318.90625 L 258.625 309.15625 L 270.28125 293.625 L 268.34375 286.84375 L 262.5 283.90625 L 262.5 270.28125 L 250.84375 252.78125 L 252.78125 200.28125 C 254.54463 198.55249 256.36132 196.93114 258.21875 195.4375 C 260.07618 193.94386 261.96221 192.58962 263.90625 191.3125 C 265.85029 190.03538 267.8518 188.86046 269.875 187.78125 C 271.8982 186.70204 273.96757 185.7124 276.0625 184.8125 C 278.15743 183.9126 280.27829 183.08294 282.4375 182.34375 C 284.59671 181.60456 286.78395 180.94084 289 180.34375 C 293.4321 179.14957 297.97893 178.23739 302.59375 177.5 C 307.20857 176.76261 311.887 176.21068 316.625 175.78125 C 321.363 175.35182 326.13585 175.05156 330.9375 174.78125 C 334.01372 174.60808 337.07744 174.39117 340.15625 174.21875 z "
       id="path1921" />
    <path
       style="fill:#ffe400;stroke:#000000;stroke-width:3;stroke-miterlimit:4;stroke-dasharray:none;stroke-opacity:1"
       d="M 421.5625 75.6875 C 418.27676 77.892106 413.5585 79.554433 408.875 79.9375 C 402.46728 80.4616 400.00533 81.373608 393.8125 85.46875 C 391.49391 87.00195 389.41051 88.250002 389.1875 88.25 C 388.96451 88.25 387.27757 89.315959 385.4375 90.625 C 382.33767 92.83023 373.7747 96.9375 372.28125 96.9375 C 371.9234 96.9375 367.96411 98.768823 363.46875 101 L 355.28125 105.0625 L 344.625 105.21875 C 332.4765 105.39456 333.28671 105.74121 328.875 98.40625 C 322.46039 87.74138 316.94267 83.906254 308.03125 83.90625 C 299.82321 83.90625 294.31875 87.414709 290.53125 95.03125 L 288.21875 99.65625 L 276.5 99.34375 C 272.21862 99.234024 266.65911 98.958424 261.34375 98.71875 C 260.65106 101.75336 260.04172 104.20764 259.15625 109.0625 C 258.48329 112.75225 257.92836 116.44562 257.75 119.28125 C 257.66082 120.69907 257.6799 121.91678 257.8125 122.8125 C 257.9451 123.70822 258.20521 124.26958 258.625 124.4375 C 261.50355 125.58892 267.55075 128.95263 273.5 131.5625 C 276.47462 132.86744 279.4193 134.00612 281.9375 134.5625 C 283.1966 134.84069 284.35176 134.95435 285.34375 134.90625 C 286.33574 134.85815 287.15839 134.6234 287.78125 134.15625 C 289.0485 133.20582 290.9145 132.02826 293.15625 130.9375 C 294.27712 130.39212 295.50514 129.86645 296.78125 129.40625 C 298.05736 128.94605 299.37758 128.54483 300.75 128.25 C 302.12242 127.95517 303.52769 127.76804 304.9375 127.71875 C 306.34731 127.66946 307.76798 127.78606 309.15625 128.0625 C 310.54452 128.33894 311.91094 128.78641 313.21875 129.46875 C 314.52656 130.15109 315.76908 131.05033 316.9375 132.21875 C 318.56473 133.84598 320.39018 135.8446 322.25 138.03125 C 324.10982 140.2179 326.00331 142.60295 327.8125 145.0625 C 329.62169 147.52205 331.33714 150.05406 332.8125 152.5 C 334.28786 154.94594 335.54793 157.29168 336.40625 159.4375 C 337.50538 162.18532 338.66671 165.91139 339.5 169.90625 C 339.79331 171.31242 339.96103 172.779 340.15625 174.21875 C 345.56206 173.91602 350.97957 173.64675 356.34375 173.25 C 355.63822 169.49127 356.18719 168.16012 358.5625 166.46875 C 362.49404 163.66921 379.09829 162.82489 386.90625 165.03125 C 389.4353 165.74589 395.12397 169.59438 402.125 175.34375 C 406.08653 178.59704 411.14778 180.31012 414.5 179.53125 C 417.38676 178.86054 424.25001 175.54319 430.03125 172.03125 C 433.36993 170.00313 435.07468 169.44945 437.59375 169.5 C 442.82683 169.60505 446.13254 167.51329 454.09375 159.125 C 459.93222 152.97329 461.40626 151.00052 461.40625 149.3125 C 461.40625 145.57566 460.10857 144.75695 450.75 142.59375 C 445.92561 141.47862 441.65291 140.37403 441.25 140.125 C 440.84704 139.87596 440.29169 138.68586 440.03125 137.5 C 439.77074 136.31414 439.22473 135.12975 438.8125 134.875 C 438.17676 134.48206 430.63108 133.32919 426.4375 132.96875 C 425.65699 132.90167 425.18751 132.2405 425.1875 131.28125 C 425.1875 130.4245 424.55836 128.92549 423.78125 127.9375 C 422.38542 126.163 422.37634 126.10597 423.75 123.3125 C 424.95253 120.86706 425.03183 119.85225 424.4375 115.78125 C 424.05952 113.19208 423.75798 109.71025 423.75 108.03125 C 423.74196 106.35226 423.21341 103.48134 422.59375 101.65625 L 421.46875 98.34375 L 423.6875 96.25 C 426.04382 94.04886 426.56618 91.608422 424.875 90.65625 C 424.30922 90.33771 423.65648 89.250367 423.40625 88.25 C 423.00038 86.62751 423.40311 86.168967 427.125 84.03125 L 431.1875 81.6875 C 430.67799 80.748275 430.14769 79.890325 429.71875 79.71875 C 427.8311 78.963691 424.61244 77.268014 421.5625 75.6875 z "
       id="path1929" />
    <path
       style="fill:#fcf5e3;stroke:#000000;stroke-width:3;stroke-miterlimit:4;stroke-dasharray:none;stroke-opacity:1"
       d="M 421.5625 75.6875 C 424.61244 77.268014 427.8311 78.963691 429.71875 79.71875 C 430.14769 79.890325 430.67799 80.748275 431.1875 81.6875 L 431.28125 81.625 L 434.21875 84.9375 C 437.29757 88.41685 441.60855 90.693852 446.625 91.4375 C 450.30364 91.98283 454.14577 89.7204 455.125 86.4375 C 455.47778 85.25483 456.18532 83.464582 456.6875 82.46875 C 457.18961 81.47292 458.15227 78.250418 458.8125 75.3125 C 459.47271 72.37458 460.63218 68.787489 461.40625 67.34375 L 462.8125 64.71875 L 462.40625 67.6875 C 462.00314 70.50047 462.18363 70.875362 466.03125 75.1875 C 470.38437 80.06611 470.4065 80.10653 469.40625 81.6875 C 468.35508 83.34903 469.85136 85.374997 472.15625 85.375 C 474.72224 85.375 478.85836 90.244862 479.46875 94 C 479.78728 95.95948 480.22649 96.593751 481.3125 96.59375 C 482.41473 96.59375 482.82067 96.031749 483 94.15625 C 483.15238 92.56247 484.09994 90.823102 485.71875 89.15625 C 487.08402 87.75052 488.18751 86.142661 488.1875 85.59375 C 488.1875 83.80874 485.95782 83.688323 483.71875 85.34375 L 481.5625 86.9375 L 479.84375 85.34375 C 478.39201 83.97988 478.26714 83.506132 479 82.1875 C 479.47271 81.33701 479.8894 80.551988 479.9375 80.4375 C 479.98566 80.323 480.87065 80.621899 481.90625 81.09375 C 483.43092 81.78844 484.40817 81.715964 486.9375 80.75 C 488.6554 80.09391 491.193 79.562497 492.59375 79.5625 C 495.78657 79.5625 496.87499 78.498401 496.875 75.375 L 496.875 72.9375 L 499.96875 73.4375 C 506.37568 74.50435 510.18722 76.962462 507.75 78.46875 C 506.65719 79.14413 506.82362 95.657993 507.9375 97.15625 C 508.43542 97.82601 510.62166 99.300621 512.8125 100.40625 L 516.8125 102.40625 L 516.53125 113.625 C 516.38408 119.79282 515.93919 125.2171 515.5625 125.6875 C 514.22584 127.35675 514.02083 134.22927 515.21875 136.84375 C 515.84131 138.20245 516.63296 141.26625 517 143.65625 C 517.36697 146.04624 519.37937 153.49107 521.46875 160.1875 C 524.93272 171.28977 525.20187 172.64097 524.5 175.40625 C 523.76619 178.2972 523.94314 178.92527 528.34375 188.9375 C 533.69104 201.10338 533.79524 201.1655 540.6875 197.4375 C 544.45261 195.40096 545.0559 194.7888 545.125 192.90625 C 545.16881 191.71125 545.72176 189.5122 546.375 188.03125 C 547.92053 184.5273 547.87957 182.52034 546.15625 178.5 C 545.08249 175.99494 544.25931 175.09031 542.71875 174.75 C 541.60385 174.50371 538.09291 173.39553 534.90625 172.28125 L 529.125 170.25 L 526.46875 162.03125 L 523.8125 153.8125 L 525.5625 152.46875 C 526.52226 151.73844 527.31251 150.7144 527.3125 150.1875 C 527.3125 149.58914 528.64805 149.05629 530.875 148.75 L 534.4375 148.25 L 541.375 154.28125 L 548.3125 160.28125 L 547.875 163.625 C 547.46602 166.70766 547.77493 167.68134 551.9375 175.8125 C 554.42259 180.66684 557.10221 184.96142 557.875 185.375 C 558.99721 185.97558 559.94009 185.68402 562.625 183.9375 C 565.09285 182.33222 566.22816 181.96848 566.90625 182.53125 C 568.45663 183.81796 569.85382 182.66667 570.25 179.75 C 570.56345 177.44254 569.99314 175.77972 566.96875 169.75 C 561.09211 158.03356 560.78019 157.60423 558.15625 158.03125 C 554.13005 158.68647 550.75904 156.94733 543.3125 150.375 C 538.64896 146.25895 535.53782 144.03087 534.4375 144.03125 C 533.50577 144.03158 530.31346 144.54323 527.375 145.15625 C 524.43654 145.76928 521.84196 146.06005 521.59375 145.8125 C 521.34555 145.56495 521.02914 136.21763 520.90625 125.0625 C 520.71447 107.65776 520.84392 104.54078 521.8125 103.0625 C 522.70679 101.69763 522.94186 99.109038 522.9375 90.625 C 522.93047 76.86375 522.08124 71.396043 519.3125 67.5 C 517.2553 64.60524 517.19756 64.377691 517.9375 60.375 C 518.75125 55.9729 518.42813 38.957911 517.40625 32.9375 C 516.51775 27.70283 515.22551 26.95409 500.5 23.34375 C 491.32582 21.09446 490.93202 20.87098 488.375 15.78125 C 487.08983 13.22312 486.04065 10.40836 486.03125 9.53125 C 486.01988 8.47422 484.9374 7.19043 482.84375 5.75 C 479.12046 3.1883225 476.07041 1.857183 473.1875 1.5625 C 472.22653 1.4642723 471.28541 1.49593 470.34375 1.625 C 466.17111 2.19691 455.40033 5.3786502 451.625 7.15625 C 450.03167 7.90646 447.30532 8.7045703 445.5625 8.9375 C 440.40627 9.62663 439.65625 10.29232 439.65625 14.40625 C 439.65625 17.91288 439.52406 18.175571 434.375 23.375 C 430.74575 27.0398 428.20842 30.421008 426.3125 34.15625 L 423.5625 39.59375 L 424.03125 51.8125 C 424.29893 58.51954 424.88813 65.542959 425.34375 67.4375 C 426.08458 70.51784 426.02129 71.097981 424.71875 72.875 C 423.98454 73.876646 422.8598 74.817062 421.5625 75.6875 z "
       id="path4815" />
    <path
       style="font-size:75px;font-family:Bitstream Vera Serif"
       d="M 374.27176,155.55724 L 374.27176,151.6754 L 383.79324,151.6754 L 383.79324,106.19201 L 372.77029,113.33312 L 372.77029,108.53576 L 386.10037,99.893178 L 391.15408,99.893178 L 391.15408,151.6754 L 400.67557,151.6754 L 400.67557,155.55724 L 374.27176,155.55724 z "
       id="text1957" />
    <path
       style="font-size:75px;font-family:Bitstream Vera Serif"
       d="M 326.54259,220.86463 L 322.44103,220.86463 L 322.44103,211.12342 C 325.05332,209.73187 327.68394,208.66986 330.33287,207.93738 C 332.98178,207.20502 335.57577,206.83881 338.11485,206.83875 C 343.8033,206.83881 348.29549,208.2182 351.59142,210.97693 C 354.88728,213.73577 356.53523,217.48333 356.53527,222.21961 C 356.53523,227.56632 352.79988,233.9628 345.32921,241.40906 C 344.74325,241.97061 344.30379,242.39785 344.01085,242.6908 L 330.2047,256.49695 L 353.01964,256.49695 L 353.01964,249.75867 L 357.30431,249.75867 L 357.30431,262.50281 L 322.03819,262.50281 L 322.03819,258.51111 L 338.62755,241.95838 C 342.28963,238.29629 344.90194,234.93326 346.46446,231.86927 C 348.02693,228.80534 348.80818,225.58879 348.80821,222.21961 C 348.80818,218.53313 347.84993,215.65227 345.93346,213.57703 C 344.01693,211.50189 341.37411,210.46429 338.00499,210.46424 C 334.51376,210.46429 331.81601,211.33099 329.91173,213.06434 C 328.00742,214.79778 326.88438,217.39788 326.54259,220.86463 L 326.54259,220.86463 z "
       id="text1961" />
    <path
       style="font-size:75px;font-family:Bitstream Vera Serif"
       d="M 450.62571,13.743657 C 453.48215,12.669497 456.22262,11.851627 458.84715,11.290047 C 461.47164,10.728577 463.93136,10.447817 466.2263,10.447757 C 471.57295,10.447817 475.74775,11.601377 478.75071,13.908457 C 481.7536,16.215627 483.25507,19.419977 483.25511,23.521487 C 483.25507,26.817427 482.21747,29.570107 480.14231,31.779547 C 478.06708,33.989047 475.12519,35.484407 471.31663,36.265627 C 475.80879,36.900427 479.29389,38.530067 481.77195,41.154547 C 484.24994,43.779077 485.48895,47.178737 485.48899,51.353517 C 485.48895,56.456067 483.77387,60.368417 480.34373,63.090577 C 476.91352,65.812747 471.97578,67.173837 465.5305,67.173837 C 462.67403,67.173837 459.88473,66.868657 457.16258,66.258307 C 454.4404,65.647957 451.73654,64.720217 449.05101,63.475107 L 449.05101,52.854987 L 453.15257,52.854987 C 453.3967,56.370617 454.58078,59.031747 456.70481,60.838387 C 458.82882,62.645027 461.81954,63.548347 465.67698,63.548347 C 469.41231,63.548347 472.3603,62.468027 474.52098,60.307377 C 476.68159,58.146737 477.76191,55.186537 477.76194,51.426767 C 477.76191,47.129907 476.65107,43.876737 474.42942,41.667237 C 472.20771,39.457797 468.94844,38.353057 464.65159,38.353037 L 461.17259,38.353037 L 461.17259,34.617677 L 463.00364,34.617677 C 467.27608,34.617717 470.48042,33.732707 472.61668,31.962647 C 474.75288,30.192667 475.82099,27.525437 475.82103,23.960947 C 475.82099,20.762747 474.94209,18.315237 473.18431,16.618417 C 471.42647,14.921687 468.89961,14.073297 465.60374,14.073247 C 462.30782,14.073297 459.75045,14.854547 457.93162,16.416997 C 456.11276,17.979547 455.04465,20.298877 454.72728,23.375007 L 450.62571,23.375007 L 450.62571,13.743657 z "
       id="text1965" />
    <path
       style="font-size:75px;font-family:Bitstream Vera Serif"
       d="M 210.90828,242.02809 L 210.90828,212.95094 L 192.23152,242.02809 L 210.90828,242.02809 z M 227.02156,260.55836 L 202.11922,260.55836 L 202.11922,256.67652 L 210.90828,256.67652 L 210.90828,245.94654 L 187.03133,245.94654 L 187.03133,241.95484 L 210.98152,204.8943 L 218.2325,204.8943 L 218.2325,242.02809 L 228.66951,242.02809 L 228.66951,245.94654 L 218.2325,245.94654 L 218.2325,256.67652 L 227.02156,256.67652 L 227.02156,260.55836 z "
       id="text1969" />
    <path
       style="font-size:75px;font-family:Bitstream Vera Serif"
       d="M 333.27845,520.88643 L 333.27845,526.89229 L 308.22962,526.89229 L 308.22962,542.56612 C 309.49914,541.68725 310.98229,541.02807 312.67908,540.58858 C 314.37584,540.14916 316.27403,539.92944 318.37366,539.9294 C 324.28184,539.92944 328.94492,541.56518 332.36292,544.83663 C 335.78085,548.10814 337.48983,552.57591 337.48988,558.23995 C 337.48983,564.02609 335.76254,568.53658 332.30799,571.77144 C 328.85337,575.0063 324.00108,576.62373 317.75111,576.62374 C 315.23644,576.62373 312.66076,576.31856 310.02406,575.70821 C 307.38732,575.09786 304.68957,574.17012 301.93079,572.92501 L 301.93079,562.30489 L 306.06898,562.30489 C 306.28869,565.77169 307.39343,568.42062 309.38319,570.25167 C 311.37292,572.08272 314.16222,572.99825 317.75111,572.99825 C 321.6085,572.99825 324.57481,571.72872 326.65003,569.18965 C 328.72519,566.6506 329.76279,563.0007 329.76283,558.23995 C 329.76279,553.50364 328.7313,549.87205 326.66834,547.34517 C 324.60533,544.81835 321.63292,543.55492 317.75111,543.55489 C 315.55382,543.55492 313.61901,543.94554 311.94666,544.72676 C 310.27428,545.50804 308.79113,546.71654 307.4972,548.35225 L 304.34779,548.35225 L 304.34779,520.88643 L 333.27845,520.88643 z "
       id="text1973" />
  </g>
</svg>
