<?xml version="1.0" encoding="UTF-8" standalone="no"?>
<!DOCTYPE svg PUBLIC "-//W3C//DTD SVG 1.1//EN" 
	"http://www.w3.org/Graphics/SVG/1.1/DTD/svg11.dtd">
<svg xmlns="http://www.w3.org/2000/svg" 
	width="300" height="500" viewBox="0 0 480 800">
<title>Administrative divisions of Greenland since 2009/01/01</title>
<desc>

	Outer Greenland contour based on a Public Domain map
	http://commons.wikimedia.org/wiki/Image:Greenland_stub.svg The
	remainder of the document is own work by Algkalv and is released
	into Public Domain.

</desc>
<style type="text/css">
path {
	stroke: #3d537f;
	stroke-width: 0.8;
	fill: #d6e1f5;
} 
#separator {
	fill: none;
	stroke: #000;
	stroke-width: 3;
}
circle {fill: black;}
text {
	font-family: "Dejavu Sans", sans-serif;
	font-size: 18px;
	fill: black;
}
.number {
	font-family: "Dejavu Sans", sans-serif;
	font-size: 26px;
	fill: black;
}
</style>

<path id="park"
	d="M 117,76 117,73 118,72
	C 118,71 120,67 120,64
	C 122,58 125,55 128,57
	C 130,58 131,60 131,61
	C 132,64 140,77 140,75
	C 140,74 139,71 138,69
	C 137,67 136,64 136,63
	C 136,62 135,60 134,60
	C 130,57 139,51 148,51
	C 150,51 154,50 155,49
	C 157,47 158,47 159,51
	C 160,54 160,59 158,67
	C 158,70 158,69 160,66
	C 163,61 163,61 167,62
	C 169,63 171,64 171,65
	C 171,65 172,66 173,65
	C 176,64 176,61 173,57
	C 171,54 171,44 174,44
	C 179,44 192,57 197,66
	C 200,71 201,69 201,62
	C 201,57 201,54 202,54
	C 203,54 204,54 205,54
	C 205,54 204,50 201,46
	L 197,39
	L 201,37
	C 207,35 211,37 211,42
	C 211,44 211,45 212,43
	C 213,41 214,41 216,43
	C 220,45 220,45 220,42
	C 220,39 212,35 207,35
	C 204,35 203,34 203,33
	C 204,33 203,31 201,31
	C 196,29 197,27 202,24
	C 204,23 205,22 205,21
	C 205,18 209,20 215,25
	C 219,28 222,31 222,31
	C 224,31 226,22 224,22
	C 222,20 223,14 226,13
	C 227,13 228,12 229,11
	C 241,3 255,2 269,4
	C 274,5 274,12 269,15
	C 266,17 266,17 269,17
	C 271,17 273,16 274,15
	C 276,12 279,12 279,16
	C 279,19 280,20 284,20
	C 287,20 289,20 290,19
	C 291,18 293,19 295,21
	C 298,25 298,25 297,31
	C 296,36 294,38 290,41
	C 285,44 278,46 271,48
	C 266,48 266,49 267,50
	C 268,51 268,53 268,54
	C 266,56 268,55 272,53
	C 274,51 279,50 284,49
	C 291,48 291,48 292,51
	C 293,53 292,56 289,59
	C 284,68 286,71 292,62
	C 295,58 296,56 296,50
	C 296,44 296,43 298,42
	C 302,39 303,40 306,47
	C 309,53 310,56 309,66
	C 309,72 310,80 310,82
	C 312,87 312,87 312,78
	C 312,74 313,65 314,60
	C 317,51 317,50 320,50
	C 324,51 325,49 322,46
	L 319,43
	L 322,41
	C 324,39 326,37 326,35
	C 327,33 329,32 330,31
	C 332,31 335,29 338,28
	C 344,26 348,27 351,32
	C 354,37 354,43 351,49
	C 350,53 349,55 350,55
	C 354,56 350,70 346,70
	C 343,70 337,75 338,76
	C 339,77 341,76 344,74
	C 351,69 355,74 352,83
	C 351,86 349,87 344,88
	C 338,90 337,91 337,94
	C 337,96 337,97 338,97
	C 339,97 340,99 340,101
	C 340,103 340,103 341,99
	C 342,95 348,89 351,89
	C 355,89 356,98 351,102
	C 348,106 348,106 350,112
	C 351,115 353,118 354,118
	C 356,118 356,132 354,135
	C 353,136 352,137 352,138
	C 353,143 356,153 357,154
	C 358,155 359,158 359,160
	C 360,163 361,164 361,163
	C 362,163 364,161 366,160
	C 370,159 371,159 376,162
	C 378,164 380,167 380,168
	C 380,170 376,172 372,170
	C 369,168 369,168 368,172
	C 367,174 368,175 371,176
	C 374,177 378,178 381,178
	C 385,178 386,177 385,176
	C 385,174 386,173 388,173
	C 390,173 392,174 394,179
	L 397,187
	L 394,189
	C 392,191 389,192 386,192
	C 383,192 379,192 377,193
	C 375,195 375,195 377,196
	C 378,197 379,199 379,201
	C 378,203 377,203 373,203
	C 369,203 369,203 369,206
	C 370,208 372,209 375,208
	C 379,208 379,208 379,211
	C 377,216 385,218 392,214
	C 397,212 396,212 397,214
	C 398,216 398,217 397,218
	C 396,220 396,220 397,220
	C 400,220 412,234 413,238
	C 414,242 411,245 408,242
	C 406,241 404,241 403,242
	C 401,243 401,243 402,244
	C 405,246 404,248 400,253
	C 397,255 396,257 397,257
	C 398,257 400,255 402,253
	C 404,251 406,249 407,249
	C 408,249 412,258 411,260
	C 410,261 416,260 421,258
	C 424,257 425,258 426,263
	C 427,266 426,268 424,270
	C 421,273 421,273 417,270
	C 412,267 410,267 407,271
	C 404,274 404,284 406,286
	C 408,287 408,287 409,286
	C 409,285 412,284 417,284
	C 423,284 424,285 424,287
	C 424,288 425,291 426,293
	C 427,297 427,298 422,303
	C 419,306 416,310 415,311
	C 414,313 413,313 409,311
	C 406,310 402,309 400,309
	C 397,309 394,306 394,303
	C 394,302 397,302 401,303
	C 405,303 408,303 408,302
	C 409,301 406,301 400,301
	C 391,301 391,301 392,304
	C 393,309 390,310 385,307
	C 383,306 381,305 381,305
	C 381,306 383,307 386,309
	C 390,312 392,313 396,312
	C 399,312 403,312 404,313
	C 407,315 397,319 390,319
	C 386,319 385,319 384,321
	C 384,324 383,324 380,324
	C 378,323 376,324 375,324
	C 373,325 373,325 375,325
	C 377,325 377,327 373,329
	C 371,330 370,332 370,332
	C 371,333 373,332 376,330
	C 380,327 386,326 391,328
	C 394,329 393,330 389,335
	C 386,338 384,339 382,339
	C 379,338 377,340 379,341
	C 383,343 386,343 387,339
	C 388,337 390,336 395,337
	C 400,337 400,337 401,341
	C 401,345 400,345 397,347
	C 393,349 393,349 394,350
	C 396,350 397,351 397,353
	C 397,356 397,356 399,353
	C 400,352 401,350 401,348
	C 401,347 402,346 402,345
	C 404,344 414,348 414,350
	C 415,351 416,351 417,350
	L 420,351
	C 417,379 397,374 395,377
	C 394,379 388,379 387,377
	C 386,376 385,376 384,376
	C 383,376 380,375 378,373
	C 375,371 374,371 374,371
	C 374,372 376,374 379,375
	L 381,378
	L 381,381
	L 390,383
	L 380,395
	L 210,430
	L 210,200
	L 117,105
	L 117,80
	z 

	M 397,328
	C 397,328 398,326 399,326
	C 402,323 415,319 419,319
	C 422,319 423,319 423,323
	C 424,325 424,328 423,329
	C 422,330 422,329 422,328
	C 422,327 420,327 418,327
	C 416,328 414,328 413,327
	C 411,326 410,326 407,327
	C 402,330 397,330 397,328 z 

	M 417,241
	C 414,235 414,233 417,233
	C 419,233 421,232 421,231
	C 422,228 424,229 424,233
	C 424,237 425,237 428,236
	C 435,235 434,239 427,242
	C 420,246 419,246 417,241 z 

	M 401,210
	C 397,206 395,203 397,203
	C 398,203 397,202 395,200
	C 393,198 393,197 393,195
	C 395,190 399,193 404,204
	C 410,216 409,218 401,210 z 

	M 383,161
	C 382,158 382,157 384,155
	C 385,153 386,153 388,157
	C 390,160 390,161 389,162
	C 386,165 385,165 383,161 z 

	M 365,148
	C 364,147 364,146 365,145
	C 366,144 367,144 368,146
	C 369,149 368,150 365,148 z 

	M 367,138
	C 366,137 364,136 362,136
	C 358,136 356,133 359,131
	C 361,128 361,129 363,131
	C 364,132 366,133 366,133
	C 367,132 366,131 365,130
	C 364,128 364,128 367,128
	C 370,128 372,134 370,138
	C 369,140 368,140 367,138 z 

	M 364,121
	C 361,118 363,113 366,115
	C 368,117 369,121 367,123
	C 366,123 365,122 364,121 z 

	M 194,54
	C 191,51 187,43 188,41
	C 190,39 195,40 197,43
	C 201,47 201,50 200,53
	C 198,57 197,57 194,54 z 

	M 184,35
	C 184,32 186,32 189,33
	C 191,35 190,37 186,37
	C 184,37 183,37 184,35 z 

	M 192,33
	C 190,31 190,30 192,28
	C 194,26 195,26 196,28
	C 199,33 196,37 192,33 z 

	M 218,26
	C 216,23 216,18 218,18
	C 221,18 224,22 223,25
	C 222,28 220,29 218,26 z
"/>

<path id="avannaata"
	d="M 136,500
	L 133,495
	L 125,495
	C 125,490 126,489 128,489
	C 132,490 136,487 133,485
	C 132,484 132,484 131,485
	C 130,486 129,486 128,486
	C 125,486 127,480 131,476
	C 132,475 133,474 132,474
	C 130,474 130,470 132,469
	C 133,469 133,469 131,469
	C 130,469 129,470 128,471
	C 128,472 127,472 126,472
	C 124,471 124,465 127,463
	C 129,461 129,462 131,464
	C 133,467 136,466 136,463
	C 136,460 134,459 126,458
	C 117,458 113,456 110,450
	C 108,448 104,444 101,443
	C 96,440 92,435 92,431
	C 92,430 94,429 97,428
	C 101,427 102,427 104,429
	C 105,431 107,431 109,431
	C 110,430 113,432 118,438
	C 124,444 126,445 129,445
	C 133,445 133,445 132,443
	C 130,442 130,441 131,440
	C 132,439 133,437 133,435
	C 134,433 134,433 131,433
	C 128,434 128,434 128,432
	C 129,430 128,429 127,429
	C 125,429 125,429 126,427
	C 128,425 127,424 125,423
	C 122,421 122,420 124,418
	C 126,416 126,415 123,414
	C 121,413 120,412 120,411
	C 120,410 120,410 118,410
	C 115,410 114,408 117,406
	C 120,403 120,402 116,401
	C 113,399 112,398 114,397
	C 116,395 116,393 113,394
	C 112,395 111,395 112,393
	C 112,392 112,390 111,389
	C 110,387 110,387 108,392
	C 107,396 106,399 105,400
	C 104,400 103,403 103,404
	C 102,409 98,409 91,406
	C 84,403 82,397 86,394
	C 88,392 90,391 91,390
	C 92,390 92,389 91,389
	C 89,387 91,381 94,381
	C 95,381 96,380 96,379
	C 96,377 97,376 97,376
	C 98,376 98,375 98,374
	C 97,373 98,372 99,372
	C 100,372 100,371 99,370
	C 98,369 98,368 99,366
	C 103,362 103,358 99,354
	C 94,349 94,349 97,345
	C 100,341 100,341 97,338
	C 96,335 95,332 95,330
	C 95,329 94,327 93,326
	C 90,325 90,323 93,323
	C 95,323 95,323 93,324
	C 92,325 92,325 94,325
	C 97,325 97,325 96,322
	C 95,318 92,314 90,314
	C 87,314 86,312 89,311
	C 94,309 96,306 95,303
	C 94,302 94,300 94,299
	C 95,297 94,295 92,293
	C 90,292 89,289 89,287
	C 89,285 88,283 87,282
	C 84,281 83,274 86,270
	C 89,266 88,262 84,259
	C 83,257 81,255 81,254
	C 81,254 80,253 79,253
	C 78,253 77,252 77,251
	C 77,250 76,248 74,248
	C 73,247 72,245 72,243
	C 73,242 73,241 72,241
	C 70,242 56,231 56,229
	C 56,228 55,228 53,230
	C 48,235 47,235 48,231
	C 48,228 48,228 47,229
	C 44,231 35,231 35,228
	C 35,225 34,224 32,226
	C 29,227 29,227 29,225
	C 29,223 29,223 27,225
	C 26,227 25,228 26,228
	C 28,229 28,233 26,233
	C 24,233 15,227 15,226
	C 15,225 14,221 12,217
	C 8,209 7,201 10,200
	C 11,200 11,201 11,203
	C 11,205 12,207 12,207
	C 20,207 24,207 24,206
	C 24,205 23,204 21,204
	C 19,204 13,198 13,195
	C 13,195 14,194 15,193
	C 16,192 17,191 16,191
	C 16,190 14,191 12,192
	L 8,195
	L 9,191
	C 9,189 9,187 8,187
	C 8,186 7,185 7,183
	C 7,181 8,181 13,181
	C 16,182 21,183 23,184
	C 26,185 28,185 28,185
	C 28,181 40,185 43,189
	C 44,190 44,190 44,189
	C 44,187 45,186 45,186
	C 47,186 47,182 45,180
	C 44,179 42,179 39,179
	C 35,180 34,179 33,178
	C 32,176 31,176 28,177
	C 23,179 21,176 25,172
	C 28,169 27,167 24,167
	C 23,167 22,166 22,165
	C 22,164 22,163 21,163
	C 20,163 18,162 17,160
	C 12,155 14,140 20,137
	C 22,136 27,136 36,136
	C 47,136 48,136 48,134
	C 48,131 52,131 61,133
	C 66,134 68,134 69,133
	C 69,132 70,132 70,132
	C 70,133 74,129 79,123
	C 80,122 81,119 82,117
	C 83,112 86,109 90,108
	C 91,108 90,107 86,107
	C 78,107 74,104 74,97
	C 75,93 76,91 89,85
	C 91,84 94,82 96,81
	C 101,78 104,79 103,84
	C 103,87 103,87 105,85
	C 106,83 107,81 107,79
	C 107,75 110,75 112,78
	C 114,82 117,82 117,78
	C 117,76 117,73 118,72
	L 117,105
	L 210,200
	L 210,500 z 

	M 85,437
	C 84,437 84,435 84,435
	C 86,432 88,433 89,436
	C 91,439 89,440 85,437 z 

	M 100,417
	C 100,415 101,413 103,413
	C 107,411 107,412 106,417
	C 105,422 100,423 100,417 z 

	M 110,416
	C 109,414 111,411 113,411
	C 115,411 118,416 117,417
	C 115,419 111,418 110,416 z 

	M 13,176
	C 13,174 13,173 14,172
	C 16,170 20,174 19,176
	C 17,179 14,178 13,176 z 

	M 4,174
	C 2,173 3,169 5,168
	C 8,167 12,170 11,173
	C 10,175 6,176 4,174 z 
"/>

<path id="qeqertalik"
	d="M 
	122,536 123,536 124,536
	C 124,536 124,537 123,536
	C 122,534 121,533 122,532
	C 122,532 122,531 121,529
	C 120,528 119,527 120,525
	C 121,523 121,522 120,520
	C 119,519 119,517 121,514
	C 124,510 124,509 121,510
	C 120,511 119,512 119,513
	C 119,516 113,519 110,517
	C 108,516 106,515 106,515
	C 105,515 103,514 102,513
	C 101,512 99,511 98,511
	C 97,510 97,509 99,508
	C 100,506 102,506 103,506
	C 107,507 106,504 103,502
	C 99,499 101,497 106,497
	C 109,497 110,498 111,501
	C 114,506 119,507 123,503
	C 126,500 126,499 125,498
	L 125,495
	L 133,495
	L 136,500
	L 210,500
	L 210,536 z 

	M 86,532
	C 87,530 88,528 88,526
	C 88,523 88,523 91,524
	C 94,524 95,524 96,522
	C 96,521 97,521 99,521
	C 101,522 101,521 101,520
	C 99,516 104,516 109,519
	C 112,521 115,522 116,522
	C 119,522 119,524 118,528
	C 116,530 115,531 113,531
	C 112,530 110,530 109,530
	C 107,530 107,529 107,528
	C 108,527 107,525 106,524
	C 105,523 104,523 104,525
	C 104,527 101,529 98,529
	C 96,529 94,530 92,531
	C 91,533 88,534 86,534
	C 83,534 83,534 86,532 z 

	M 90,476
	C 88,473 88,473 91,472
	C 92,472 94,472 95,472
	C 95,472 96,472 96,471
	C 96,469 93,468 86,465
	C 84,465 84,463 84,459
	C 84,456 85,454 86,455
	C 87,455 87,454 87,451
	C 86,448 87,447 90,445
	C 93,442 94,442 98,445
	C 101,446 104,449 105,451
	C 107,453 110,457 113,460
	C 117,464 117,466 117,470
	C 116,473 115,474 110,475
	C 106,476 102,477 101,477
	C 99,478 97,478 95,479
	C 93,479 92,478 90,476 z 
"/>

<path id="qeqqata"
	d="M 97,625 95,623 95,618
	C 95,616 94,613 93,612
	C 91,611 91,609 92,608
	C 93,607 93,605 92,604
	C 91,603 91,601 91,600
	C 92,599 90,598 88,598
	C 84,597 83,597 85,594
	C 87,591 89,591 93,591
	C 96,590 114,582 112,580
	C 111,579 98,587 87,589
	C 86,589 85,589 85,588
	C 83,584 84,580 86,580
	C 89,578 88,577 85,576
	C 81,576 80,570 83,568
	C 85,567 86,565 87,564
	C 87,562 89,561 90,562
	C 91,562 93,561 94,560
	C 96,557 96,557 92,557
	C 88,557 84,555 86,553
	C 86,552 86,551 85,551
	C 83,550 83,550 84,549
	C 88,545 103,542 103,545
	C 103,547 115,547 117,544
	C 118,542 118,542 115,543
	C 107,545 106,545 105,543
	C 104,540 95,540 91,543
	C 86,545 84,545 83,543
	C 82,541 96,530 101,530
	C 103,530 106,531 109,533
	C 111,534 115,535 117,535
	C 119,535 121,536 121,537
	C 122,536 123,536 124,536
	C 124,536 124,537 123,536
	L 210,536 
	L 210,610 
	L 130,610 z
"/>

<path id="kujalleq"
	d="M 214,795
	C 214,794 215,791 218,789
	C 221,786 221,784 220,784
	C 219,784 217,782 216,781
	C 214,779 213,780 209,785
	C 205,789 204,790 202,788
	C 201,787 200,785 200,783
	C 201,780 196,772 192,771
	C 182,768 173,765 173,763
	C 174,761 173,761 170,761
	C 169,761 167,760 167,759
	C 165,757 156,759 152,762
	L 149,765
	L 150,761
	L 145,749
	L 210,705
	C 234,703 234,704 237,705
	C 238,706 240,707 241,707
	C 244,707 245,710 242,710
	C 239,710 239,715 242,716
	C 243,717 244,719 243,724
	C 243,732 241,736 238,738
	C 237,739 237,740 238,741
	C 239,741 239,743 238,746
	C 237,748 237,751 237,752
	C 238,755 235,758 230,758
	C 227,758 226,758 227,759
	C 229,760 229,760 227,761
	C 226,761 226,762 228,762
	C 229,762 230,763 229,764
	C 229,765 229,765 231,764
	C 233,764 234,764 234,765
	C 234,765 233,766 232,766
	C 230,766 230,766 231,767
	C 232,768 233,769 232,770
	C 231,771 224,771 223,770
	C 223,769 222,769 221,770
	C 221,771 222,772 225,774
	C 230,777 231,781 229,785
	C 228,787 227,789 227,789
	C 228,790 227,790 225,791
	C 223,792 222,793 222,794
	C 222,796 216,797 214,795 z 
"/>


<path id="sermersooq"
	d="M 
	145,750 144,749 143,749
	C 140,751 138,751 138,748
	C 138,741 137,738 135,736
	C 132,734 131,728 134,723
	C 136,720 135,720 130,721
	C 124,721 120,719 123,716
	C 125,715 125,714 124,713
	C 123,713 121,711 119,710
	C 115,707 112,698 115,698
	C 118,698 116,690 114,689
	C 111,688 110,684 113,684
	C 114,684 113,683 110,682
	C 106,680 103,676 106,676
	C 107,676 107,675 106,674
	C 106,673 106,671 107,670
	C 108,668 108,668 107,668
	C 105,668 104,668 104,669
	C 102,671 101,671 100,668
	C 99,667 100,665 101,663
	C 102,661 103,658 103,656
	C 103,650 109,642 115,641
	C 118,640 121,639 122,639
	C 124,639 125,635 124,632
	C 123,630 122,630 120,631
	C 118,632 117,632 117,631
	C 117,630 115,630 112,632
	C 110,633 107,634 106,635
	C 104,636 103,637 102,639
	C 100,643 95,646 93,645
	C 93,645 92,641 92,638
	C 92,631 93,630 102,623

	L 130,610
	L 210,610
	L 210,430
	L 380,395

	L 390,382

	C 405,380 408,381 409,382
	C 409,383 409,385 407,387
	C 406,388 405,390 405,391
	C 405,392 404,394 403,395
	C 409,391 411,390 410,392
	C 409,393 410,394 410,394
	C 411,394 412,396 413,398
	C 415,403 415,404 413,406
	C 408,412 406,414 406,414
	C 405,413 403,414 400,415
	C 397,417 393,418 392,419
	C 389,420 389,419 389,416
	C 389,413 389,411 390,411
	C 391,411 391,410 390,407
	C 389,404 389,404 391,405
	C 393,406 394,406 394,405
	C 393,404 393,403 394,402
	C 395,402 394,401 391,399
	C 385,396 383,399 387,405
	L 389,410
	L 385,414
	C 382,417 380,419 380,420
	C 380,420 384,421 389,421
	C 394,421 397,421 398,423
	C 400,425 400,425 398,425
	C 395,425 392,430 394,431
	C 401,431 402,431 402,426
	C 402,422 402,421 405,421
	C 407,421 410,418 413,415
	C 418,410 419,410 421,411
	C 425,413 443,411 451,408
	C 457,405 458,407 453,412
	C 451,414 449,417 449,419
	C 449,421 448,422 447,423
	C 446,423 445,425 446,427
	C 446,429 446,431 444,431
	C 443,432 442,433 442,434
	C 442,436 441,439 439,441
	C 437,444 436,447 436,448
	C 437,449 436,451 435,452
	C 434,453 432,456 432,459
	C 431,463 426,469 421,471
	C 420,472 419,474 419,475
	C 419,476 417,477 415,478
	C 414,478 411,480 410,481
	C 408,482 407,484 406,484
	C 405,484 403,485 402,486
	C 402,488 400,489 398,489
	C 397,489 395,490 394,492
	C 392,494 392,494 390,492
	C 387,489 385,491 387,495
	C 389,497 387,499 384,498
	C 383,498 382,498 382,499
	C 382,503 378,505 372,505
	C 368,505 367,505 367,503
	C 367,501 366,500 364,500
	C 363,500 360,498 359,496
	C 356,493 356,493 356,495
	C 356,497 357,499 359,500
	C 360,501 361,502 361,502
	C 360,503 361,504 362,506
	C 365,510 365,510 359,515
	C 354,521 349,532 351,534
	C 352,534 353,538 353,542
	C 354,549 353,550 351,550
	C 350,550 350,549 350,549
	C 352,547 352,542 351,542
	C 350,542 348,546 347,550
	C 346,554 344,558 343,558
	C 343,558 342,560 342,562
	C 342,564 341,567 339,570
	C 336,573 334,574 331,573
	C 328,573 327,573 328,574
	C 328,575 328,578 326,581
	C 323,588 323,588 321,585
	C 320,583 319,583 317,584
	C 316,585 315,587 314,589
	C 313,592 311,592 311,589
	C 311,586 308,587 307,591
	C 306,598 305,599 303,600
	C 300,601 297,598 298,596
	C 298,594 299,591 299,589
	C 299,587 300,583 302,581
	C 304,576 304,576 300,576
	C 299,576 297,577 297,578
	C 297,579 296,579 296,577
	C 294,573 294,578 296,583
	C 297,586 297,587 295,588
	C 292,590 292,594 294,595
	C 296,596 296,599 294,600
	C 292,601 289,600 290,598
	C 290,597 289,597 287,597
	C 286,597 285,597 285,598
	C 286,599 285,601 283,602
	C 281,604 280,605 279,603
	C 279,602 272,600 273,602
	C 273,603 273,603 272,604
	C 271,607 272,609 274,611
	C 277,613 277,613 275,615
	C 274,616 272,618 272,618
	C 272,621 270,622 264,622
	C 257,623 256,624 261,628
	C 263,629 264,631 264,633
	C 263,634 264,635 265,636
	C 271,638 263,649 255,649
	C 252,649 252,649 254,651
	C 256,654 257,654 258,652
	C 260,649 260,650 262,652
	C 263,654 264,656 264,658
	C 263,659 263,662 263,664
	C 263,666 262,666 262,665
	C 261,663 259,665 259,668
	C 259,669 257,672 255,674
	C 251,677 249,680 252,678
	C 253,678 254,678 254,679
	C 255,680 255,681 256,681
	C 258,680 259,683 257,685
	C 256,687 255,687 254,685
	C 252,683 251,683 249,686
	C 246,688 245,692 248,690
	C 249,690 249,690 249,692
	C 248,695 248,695 249,694
	C 250,694 250,695 248,696
	C 246,698 244,699 243,699
	C 242,699 239,700 237,701
	C 234,703 234,704 237,705
	L 210,705 z 

	M 419,350 428,352 429,356
	C 430,360 432,360 433,358
	C 435,355 437,357 437,363
	C 437,367 437,369 437,367
	C 438,365 444,362 446,364
	C 446,364 446,367 446,370
	C 447,373 448,376 449,377
	C 451,379 452,381 452,382
	C 452,384 453,386 454,387
	C 455,388 457,391 456,393
	C 456,397 450,397 448,393
	C 447,391 446,389 446,389
	C 444,389 444,390 446,394
	C 447,396 447,397 446,399
	C 444,401 442,401 438,400
	C 433,399 430,398 425,391 
	C 421,387 417,383 417,382
	C 417,379 397,374 395,377 z

	M 358,545
	C 358,540 358,536 359,537
	C 360,539 360,553 359,554
	C 358,554 358,550 358,545 z 

"/>

<!-- legend -->
<text x="343" y="638" class="number">&#9312;</text>
<text x="370" y="635">Ilulissat</text>

<text x="343" y="673" class="number">&#9313;</text>
<text x="370" y="670">Aasiaat</text>

<text x="343" y="708" class="number">&#9314;</text>
<text x="370" y="705">Sisimiut</text>

<text x="343" y="743" class="number">&#9315;</text>
<text x="370" y="740">Nuuk</text>

<text x="343" y="778" class="number">&#9316;</text>
<text x="370" y="775">Qaqortoq</text>

<!-- Northeast Greenland National Park -->
<text x="252" y="210">Northeast</text>
<text x="250" y="230">Greenland</text>
<text x="240" y="250">National Park</text>

<!-- Avannaata | Ilulissat -->
<text x="80" y="220">Avannaata</text>
<circle cx="130" cy="479" r="6"/>
<text x="140" y="485" class="number">&#9312;</text>

<!-- Qeqertalik | Aasiaat -->
<text x="125" y="523">Qeqertalik</text>
<circle cx="102" cy="498" r="6"/>
<text x="70" y="498" class="number">&#9313;</text>

<!-- Sermersooq | Nuuk -->
<text x="130" y="680">Sermersooq</text>
<circle cx="105" cy="655" r="6"/>
<text x="115" y="665" class="number">&#9315;</text>

<!-- Kujalleq | Qaqortoq -->
<text x="164" y="750">Kujalleq</text>
<circle cx="190" cy="770" r="6"/>
<text x="197" y="778" class="number">&#9316;</text>

<!-- Qeqqata | Sisimiut -->
<text x="120" y="590">Qeqqata</text>
<circle cx="87" cy="570" r="6"/>
<text x="95" y="575" class="number">&#9314;</text>

<path id="separator" d="M 83,446 94,438 122,462 116,485"/>

</svg>
