<?xml version="1.0" encoding="UTF-8" standalone="no"?>
<!-- Created with Inkscape (http://www.inkscape.org/) -->
<svg
   xmlns:dc="http://purl.org/dc/elements/1.1/"
   xmlns:cc="http://web.resource.org/cc/"
   xmlns:rdf="http://www.w3.org/1999/02/22-rdf-syntax-ns#"
   xmlns:svg="http://www.w3.org/2000/svg"
   xmlns="http://www.w3.org/2000/svg"
   xmlns:sodipodi="http://sodipodi.sourceforge.net/DTD/sodipodi-0.dtd"
   xmlns:inkscape="http://www.inkscape.org/namespaces/inkscape"
   version="1.0"
   x="0.0000000"
   y="0.0000000"
   width="729.12"
   height="678.54498"
   id="svg1216"
   sodipodi:version="0.32"
   inkscape:version="0.44"
   sodipodi:docname="Map_-_DR_Congo,_major_languages.svg"
   sodipodi:docbase="C:\Documents and Settings\Risto\Omat tiedostot"
   inkscape:r_cx="true"
   inkscape:r_cy="true">
  <metadata
     id="metadata109">
    <rdf:RDF>
      <cc:Work
         rdf:about="">
        <dc:format>image/svg+xml</dc:format>
        <dc:type
           rdf:resource="http://purl.org/dc/dcmitype/StillImage" />
      </cc:Work>
    </rdf:RDF>
  </metadata>
  <sodipodi:namedview
     id="base"
     pagecolor="#ffffff"
     bordercolor="#666666"
     borderopacity="1.0"
     inkscape:pageopacity="0.0"
     inkscape:pageshadow="2"
     inkscape:zoom="0.96782122"
     inkscape:cx="364.73092"
     inkscape:cy="332.51821"
     inkscape:window-width="1280"
     inkscape:window-height="904"
     inkscape:window-x="-4"
     inkscape:window-y="-4"
     inkscape:current-layer="svg1216"
     width="729.12px"
     height="678.545px" />
  <defs
     id="defs3" />
  <rect
     style="opacity:1;color:black;fill:white;fill-opacity:1;fill-rule:nonzero;stroke:#7d7d7d;stroke-width:1;stroke-linecap:butt;stroke-linejoin:round;marker:none;marker-start:none;marker-mid:none;marker-end:none;stroke-miterlimit:4;stroke-dasharray:none;stroke-dashoffset:0;stroke-opacity:1;visibility:visible;display:inline;overflow:visible"
     id="rect1951"
     width="728.42273"
     height="675.42761"
     x="1.0391195"
     y="2.078239" />
  <path
     inkscape:r_cy="true"
     inkscape:r_cx="true"
     style="opacity:1;fill:#ff8333;fill-opacity:1;fill-rule:evenodd;stroke:none;stroke-width:0.25pt;stroke-linecap:butt;stroke-linejoin:miter;stroke-opacity:1"
     d="M 479.34375,0.010619 C 471.33326,0.5230239 473.65099,7.2157731 470.46875,11.073119 C 470.38876,11.522866 470.30226,11.968312 470.21875,12.416869 L 469.28125,12.854369 C 469.2816,12.677754 469.34762,12.398884 469.34375,12.229369 C 458.12402,17.952491 448.79485,15.231311 439.53125,9.416869 C 431.32674,18.397606 410.44816,18.887065 402.03125,26.916869 C 392.64277,18.662802 378.87234,20.299077 376,32.073119 C 370.16739,53.252227 351.43583,36.885956 337.28125,38.760619 C 324.55251,40.87216 314.09076,30.654371 301.25,32.229369 C 294.94316,18.581925 279.20027,10.099277 265.40625,8.073119 C 246.38808,7.934501 241.71065,31.288931 229.65625,38.354369 C 229.64946,55.152019 236.22948,74.651016 225.0625,89.323119 C 212.16956,104.84503 210.87884,123.43176 210.1875,142.88562 C 197.48003,156.37066 212.49954,173.96467 203.03125,187.88562 C 194.85027,199.97995 202.44685,218.81506 185.90625,226.01062 C 168.48785,232.23587 161.693,249.04787 152.21875,263.04187 C 136.63891,271.32059 147.09973,289.83189 144.09375,303.26062 C 144.5009,320.53195 134.78715,336.14537 118.5625,340.88562 C 115.30618,347.22283 101.00507,349.07286 115.59375,353.63562 C 127.64411,359.83943 137.09406,356.35608 149.9315,359.96338 L 192.73401,313.26989 L 288.84375,357.26062 L 292,358.32312 C 297.00668,351.47668 301.97379,344.58018 306.96875,337.69812 L 313.34375,276.13562 L 350.28125,276.13562 C 354.04099,270.58643 357.69169,264.98241 361.375,259.38562 L 393.0625,261.69812 L 426.21875,251.44812 L 427.0625,252.32312 L 427.09375,252.32312 L 455.75,254.82312 L 437.25,203.29187 L 461.03125,172.88562 L 439.90625,138.54187 L 475.5625,106.82312 L 546.90625,127.97937 L 615.625,101.54187 L 646,59.260619 L 649.875,49.229369 C 641.98702,44.320812 634.93331,36.186398 635.34375,28.823119 C 631.88272,27.730074 625.36499,23.211764 621.6875,25.604369 C 618.28786,27.816253 618.86896,33.983546 613.75,34.948119 C 608.29431,35.976225 601.69055,28.031906 595.59375,29.666869 C 590.36117,31.070268 587.12266,39.145322 580.59375,37.823119 C 563.99115,34.460964 561.17241,15.745995 546.71875,8.948119 C 535.34209,3.5976826 528.9715,11.096419 517.5625,10.791869 C 512.75622,10.663563 509.02864,5.9581364 504.28125,5.104369 C 499.8548,4.3082439 496.41282,6.8680829 491.84375,5.198119 C 488.13223,3.8415791 483.26259,-0.2400207 479.34375,0.010619 z M 5.1875,113.79187 C 5.1875,122.70574 5.1875002,131.628 5.1875,140.54187 C 13.464663,140.54187 21.754086,140.54187 30.03125,140.54187 C 30.03125,131.628 30.03125,122.70574 30.03125,113.79187 C 21.754087,113.79187 13.464664,113.79187 5.1875,113.79187 z "
     id="path1876"
     sodipodi:nodetypes="ccccccccccccccccccccccccccccccccccccccccccsssssssscccccc" />
  <path
     inkscape:r_cy="true"
     inkscape:r_cx="true"
     d="M 129.21354,345.87848 C 129.21354,349.04327 126.64798,351.60883 123.4832,351.60883 C 120.31841,351.60883 117.75285,349.04327 117.75285,345.87848 C 117.75285,342.7137 120.31841,340.14814 123.4832,340.14814 C 126.64798,340.14814 129.21354,342.7137 129.21354,345.87848 L 129.21354,345.87848 z "
     style="fill:black;fill-opacity:1"
     id="path3173" />
  <path
     inkscape:r_cy="true"
     inkscape:r_cx="true"
     d="M 226.62942,202.61982 C 226.62942,205.78461 224.06386,208.35017 220.89908,208.35017 C 217.73429,208.35017 215.16873,205.78461 215.16873,202.61982 C 215.16873,199.45504 217.73429,196.88948 220.89908,196.88948 C 224.06386,196.88948 226.62942,199.45504 226.62942,202.61982 L 226.62942,202.61982 z "
     style="fill:black;fill-opacity:1"
     id="path3178" />
  <path
     inkscape:r_cy="true"
     inkscape:r_cx="true"
     d="M 467.41795,13.254222 C 465.32937,14.097553 462.82085,14.409745 460.23457,14.661577 C 462.81858,14.413594 465.33036,14.095869 467.41795,13.254222 z "
     style="opacity:0.5;fill:#f3ff00;fill-opacity:1;stroke:none"
     id="path3337" />
  <path
     inkscape:r_cy="true"
     inkscape:r_cx="true"
     d="M 282.76118,14.954776 C 283.57403,15.1191 284.40756,15.37921 285.22405,15.687774 C 284.39494,15.37257 283.58635,15.121614 282.76118,14.954776 z "
     style="opacity:0.5;fill:#f3ff00;fill-opacity:1;stroke:none"
     id="path3336" />
  <path
     inkscape:r_cy="true"
     inkscape:r_cx="true"
     d="M 236.37708,34.628433 C 233.34735,34.493327 231.58121,35.121455 230.60106,36.270348 C 231.57896,35.122342 233.34735,34.493327 236.37708,34.628433 z "
     style="opacity:0.5;fill:#f3ff00;fill-opacity:1;stroke:none"
     id="path3335" />
  <path
     inkscape:r_cy="true"
     inkscape:r_cx="true"
     d="M 230.6597,58.934636 C 230.74969,62.996412 231.3434,67.073006 231.48066,71.043757 C 231.34477,67.074843 230.74831,62.994575 230.6597,58.934636 z "
     style="opacity:0.5;fill:#f3ff00;fill-opacity:1;stroke:none"
     id="path3334" />
  <path
     inkscape:r_cy="true"
     inkscape:r_cx="true"
     d="M 692.53619,60.312671 L 693.38646,61.162948 L 692.53619,60.312671 z "
     style="opacity:0.5;fill:#f3ff00;fill-opacity:1;stroke:none"
     id="path3333" />
  <path
     inkscape:r_cy="true"
     inkscape:r_cx="true"
     d="M 167.6219,238.2845 C 163.56726,242.76394 161.47468,248.51386 158.73797,253.94133 C 161.47542,248.5174 163.56682,242.76186 167.6219,238.2845 z "
     style="opacity:0.5;fill:#f3ff00;fill-opacity:1;stroke:none"
     id="path3332" />
  <path
     inkscape:r_cy="true"
     inkscape:r_cx="true"
     d="M 154.98502,260.18647 C 154.20914,261.22071 153.23142,262.16195 152.19963,263.05982 C 153.2393,262.15601 154.20491,261.22634 154.98502,260.18647 z "
     style="opacity:0.5;fill:#f3ff00;fill-opacity:1;stroke:none"
     id="path3331" />
  <path
     inkscape:r_cy="true"
     inkscape:r_cx="true"
     d="M 130.85474,335.15747 C 128.85679,336.10824 126.56305,336.37059 124.37504,336.97531 C 126.56601,336.36433 128.8537,336.11306 130.85474,335.15747 z "
     style="opacity:0.5;fill:#f3ff00;fill-opacity:1;stroke:none"
     id="path3330" />
  <path
     inkscape:r_cy="true"
     inkscape:r_cx="true"
     d="M 119.62522,339.52614 C 118.33711,340.84225 117.79136,342.34152 117.07439,343.60161 C 117.79394,342.34104 118.33598,340.84246 119.62522,339.52614 z "
     style="opacity:0.5;fill:#f3ff00;fill-opacity:1;stroke:none"
     id="path3329" />
  <path
     inkscape:r_cy="true"
     inkscape:r_cx="true"
     d="M 115.13927,345.68332 C 114.6907,345.94223 114.15167,346.16529 113.49736,346.29904 C 114.16193,346.1632 114.6859,345.94795 115.13927,345.68332 z "
     style="opacity:0.5;fill:#f3ff00;fill-opacity:1;stroke:none"
     id="path3328" />
  <path
     inkscape:r_cy="true"
     inkscape:r_cx="true"
     d="M 13.076678,375.53098 C 11.821531,378.68929 11.656048,382.80204 11.815922,386.96575 C 11.656064,382.80163 11.821531,378.68929 13.076678,375.53098 z "
     style="opacity:0.5;fill:#f3ff00;fill-opacity:1;stroke:none"
     id="path3327" />
  <path
     inkscape:r_cy="true"
     inkscape:r_cx="true"
     d="M 142.8759,403.91265 C 138.05954,404.2544 133.14586,405.02822 129.38875,404.79225 C 133.14586,405.02822 138.05946,404.25581 142.8759,403.91265 z "
     style="opacity:0.5;fill:#f3ff00;fill-opacity:1;stroke:none"
     id="path3326" />
  <path
     inkscape:r_cy="true"
     inkscape:r_cx="true"
     d="M 129.38875,404.79225 C 122.12117,404.33547 114.93672,404.73673 107.77998,405.26137 C 114.94595,404.73948 122.11132,404.33484 129.38875,404.79225 z "
     style="opacity:0.5;fill:#f3ff00;fill-opacity:1;stroke:none"
     id="path3325" />
  <path
     inkscape:r_cy="true"
     inkscape:r_cx="true"
     d="M 33.541973,404.55769 C 31.002776,404.53436 28.50186,404.59831 26.681115,405.05613 C 28.50186,404.59831 31.009502,404.53395 33.541973,404.55769 z "
     style="opacity:0.5;fill:#f3ff00;fill-opacity:1;stroke:none"
     id="path3324" />
  <path
     inkscape:r_cy="true"
     inkscape:r_cx="true"
     d="M 294.45982,442.67357 C 294.25832,443.28068 293.95792,443.78433 293.60954,444.22752 C 293.95853,443.78789 294.25887,443.27902 294.45982,442.67357 z "
     style="opacity:0.5;fill:#f3ff00;fill-opacity:1;stroke:none"
     id="path3323" />
  <path
     inkscape:r_cy="true"
     inkscape:r_cx="true"
     d="M 293.60954,444.22752 C 293.40101,444.49281 293.132,444.68881 292.87654,444.90188 C 292.75915,444.99944 292.65115,445.10755 292.5247,445.19508 C 292.92937,444.92044 293.30387,444.6126 293.60954,444.22752 z "
     style="opacity:0.5;fill:#f3ff00;fill-opacity:1;stroke:none"
     id="path3322" />
  <path
     inkscape:r_cy="true"
     inkscape:r_cx="true"
     d="M 291.05871,445.78148 C 290.42314,446.02085 289.76006,446.22889 289.00632,446.33856 C 289.76572,446.23589 290.41757,446.01433 291.05871,445.78148 z "
     style="opacity:0.5;fill:#f3ff00;fill-opacity:1;stroke:none"
     id="path3321" />
  <path
     inkscape:r_cy="true"
     inkscape:r_cx="true"
     d="M 289.00632,446.33856 C 287.76488,446.5192 286.33591,446.51118 284.90153,446.48516 C 286.37875,446.54609 287.74446,446.50916 289.00632,446.33856 z "
     style="opacity:0.5;fill:#f3ff00;fill-opacity:1;stroke:none"
     id="path3320" />
  <path
     inkscape:r_cy="true"
     inkscape:r_cx="true"
     d="M 272.00077,446.104 C 271.87395,446.11829 271.77337,446.17479 271.64893,446.19196 C 271.83329,446.16326 272.01636,446.12628 272.20601,446.104 C 272.14301,446.11036 272.06322,446.09696 272.00077,446.104 z "
     style="opacity:0.5;fill:#f3ff00;fill-opacity:1;stroke:none"
     id="path3319" />
  <path
     inkscape:r_cy="true"
     inkscape:r_cx="true"
     d="M 269.6845,446.60244 C 268.77262,446.90332 267.959,447.30826 267.30959,447.92183 C 267.95247,447.31442 268.7942,446.9151 269.6845,446.60244 z "
     style="opacity:0.5;fill:#f3ff00;fill-opacity:1;stroke:none"
     id="path3318" />
  <path
     inkscape:r_cy="true"
     inkscape:r_cx="true"
     d="M 345.71101,457.86128 C 346.16501,458.54165 346.44064,459.27534 346.64925,460.03095 C 346.43699,459.27825 346.16431,458.54061 345.71101,457.86128 z "
     style="opacity:0.5;fill:#f3ff00;fill-opacity:1;stroke:none"
     id="path3317" />
  <path
     inkscape:r_cy="true"
     inkscape:r_cx="true"
     d="M 346.79585,460.64667 C 346.89468,461.1507 346.95356,461.673 346.97177,462.20063 C 346.95023,461.67036 346.89823,461.15343 346.79585,460.64667 z "
     style="opacity:0.5;fill:#f3ff00;fill-opacity:1;stroke:none"
     id="path3316" />
  <path
     inkscape:r_cy="true"
     inkscape:r_cx="true"
     d="M 176.97495,461.61423 C 178.74206,463.75145 180.50965,465.91473 181.84206,468.38713 C 180.50966,465.91473 178.74816,463.75559 176.97495,461.61423 z "
     style="opacity:0.5;fill:#f3ff00;fill-opacity:1;stroke:none"
     id="path3315" />
  <path
     inkscape:r_cy="true"
     inkscape:r_cx="true"
     d="M 346.82517,463.9305 C 346.69695,465.28745 346.50134,466.67814 346.12149,468.09393 C 346.49503,466.67074 346.70602,465.2944 346.82517,463.9305 z "
     style="opacity:0.5;fill:#f3ff00;fill-opacity:1;stroke:none"
     id="path3314" />
  <path
     inkscape:r_cy="true"
     inkscape:r_cx="true"
     d="M 345.68169,469.64788 C 345.1679,471.39031 344.7122,473.08975 344.30366,474.74955 C 344.7078,473.1038 345.18307,471.37056 345.68169,469.64788 z "
     style="opacity:0.5;fill:#f3ff00;fill-opacity:1;stroke:none"
     id="path3313" />
  <path
     inkscape:r_cy="true"
     inkscape:r_cx="true"
     style="opacity:1;fill:#fcffc0;fill-opacity:1;stroke:none"
     d="M 635.34375,28.823119 C 635.27477,30.06068 635.49126,31.310968 635.8125,32.573119 C 635.49465,31.312603 635.27505,30.055577 635.34375,28.823119 z M 636.125,33.635619 C 636.29927,34.159739 636.55044,34.676231 636.78125,35.198119 C 636.55463,34.680169 636.2964,34.155342 636.125,33.635619 z M 639.1875,39.416869 C 639.4085,39.723037 639.60764,40.021357 639.84375,40.323119 C 639.61089,40.022721 639.40553,39.721561 639.1875,39.416869 z M 649.875,49.229369 L 646,59.260619 L 615.625,101.54187 L 546.90625,127.97937 L 475.5625,106.82312 L 439.90625,138.54187 L 461.03125,172.88562 L 437.25,203.29187 L 455.75,254.82312 L 427.09375,252.32312 L 455.1875,280.85437 L 445.59375,325.22937 C 446.18074,325.45104 446.67036,325.72292 447.25,325.94812 L 445.71875,326.76062 L 485.15625,411.54187 L 423.78125,468.51062 L 346.34375,469.97937 L 344.15625,474.91687 L 344.25,475.01062 C 343.90279,476.45388 343.58204,477.8978 343.625,479.16687 C 343.84976,485.79947 349.59331,492.01424 349.9375,499.07312 C 350.7304,515.3149 335.18097,544.41518 359.96875,551.32312 C 358.5953,559.44526 363.42829,567.21785 363.15625,575.38562 C 362.99864,580.10316 357.96828,582.01634 359.09375,586.97937 C 361.09671,595.81563 367.07192,601.19438 373.25,591.13562 C 379.03494,593.24396 390.3844,594.07039 396.46875,592.44812 C 399.46615,591.64858 401.63069,589.19658 404.75,588.69812 C 408.43166,588.11091 411.89025,590.06488 415.53125,590.26062 C 419.60768,590.47957 421.86315,588.78215 425.5,587.79187 L 426.3125,585.32312 C 429.36214,587.66861 437.13931,591.25005 438.65625,594.54187 C 440.19724,597.88595 435.92607,601.61468 439.125,604.47937 C 444.18009,609.00616 449.33603,602.55597 453.75,600.79187 C 459.51172,598.48864 466.55782,599.01189 472.75,596.91687 L 472.75,612.69812 C 480.56692,615.1025 488.21816,619.29531 495.96875,621.41687 C 500.72529,622.71898 506.06487,621.41518 510.9375,622.19812 C 517.30716,623.22078 522.60661,626.18219 529.15625,623.88562 C 537.19049,621.06985 530.63569,611.24895 539.96875,610.19812 C 539.99943,618.95721 546.04656,618.77819 549.875,625.35437 C 552.35647,629.61656 551.48389,634.32842 557.375,636.22937 C 564.41398,638.49939 575.40054,637.15521 581.8125,642.22937 C 586.46035,645.90853 586.4239,652.24264 588.03125,657.47937 L 593.84375,655.82312 C 597.65475,663.29086 602.66227,678.39913 612.9375,676.51062 C 618.6296,675.46479 622.76238,670.55965 628.6875,669.91687 C 625.86595,674.51908 630.45537,681.85363 634.46875,676.88562 C 636.5107,674.35765 635.34375,668.01352 635.34375,664.94812 C 635.34375,653.92067 637.59553,639.86983 634.46875,629.29187 C 627.94149,630.55748 619.87929,630.64608 621.21875,639.22937 C 617.3165,638.11635 610.50397,638.4166 607.3125,636.69812 C 604.61118,635.24335 603.47716,631.37859 601.21875,629.29187 C 593.53371,622.19149 583.29956,618.41353 583.46875,606.07312 C 583.54835,600.23092 587.73205,587.80372 590.4375,582.41687 C 591.43193,580.43795 593.63122,579.17528 594.0625,576.91687 C 594.64308,573.87631 592.62462,570.86061 592.28125,567.88562 C 590.93681,556.23947 594.8805,547.52593 590.4375,536.47937 C 588.49588,531.65155 589.5726,529.26441 583.90625,527.26062 L 583.90625,525.60437 C 594.72556,521.3961 605.35323,509.88802 602.96875,498.22937 L 669.3125,489.10437 C 667.75491,480.30295 662.71463,474.60878 659.3125,466.69812 C 655.57699,458.01113 653.73915,449.47366 647.4375,441.88562 C 644.07929,437.84155 639.33836,437.06219 635.40625,433.97937 C 629.94062,429.69312 626.03825,421.14181 624.53125,414.47937 C 623.10307,408.16526 629.49447,404.10627 628.59375,398.72937 C 626.96735,389.01397 618.88655,380.1184 618.6875,370.29187 C 618.56309,364.14613 625.442,353.65348 619.5625,349.79187 L 614.71875,331.51062 L 614.6875,303.44812 L 607.15625,295.19812 L 607.9375,288.41687 C 603.01012,288.88133 598.67422,285.70306 602.1875,280.35437 C 604.87306,276.26549 610.07133,276.39856 611.75,270.97937 C 614.1312,263.2943 609.14121,259.17262 615.78125,251.97937 C 620.00696,247.40201 627.80969,246.3035 631.15625,241.13562 L 627.84375,241.13562 L 628.78125,221.22937 L 627.84375,213.76062 C 629.82517,208.54297 629.27378,202.5786 631.03125,197.16687 C 633.39085,189.90147 638.67287,182.7661 640.5,175.60437 C 641.37333,172.18484 639.13448,168.27756 641.125,165.01062 C 642.64444,162.51667 645.958,162.55502 647.8125,160.41687 C 649.62227,158.33179 649.53934,155.12341 651.5,153.26062 C 653.37357,151.47993 656.1981,151.54 658.25,150.01062 C 662.56196,146.79675 665.65275,141.4129 669.46875,137.60437 C 676.41981,130.66574 684.97313,125.18606 689.21875,115.91687 C 685.815,113.47849 676.67183,103.6985 673.46875,108.41687 C 662.60959,103.23156 672.9391,98.187544 673.625,90.979369 C 674.0016,87.029016 669.78311,84.226994 670.4375,80.229369 C 671.04382,76.5212 680.92607,65.173536 671,66.135619 C 669.81315,61.839411 667.69835,61.299275 663.5,61.979369 L 661.875,53.698119 C 658.25436,53.50266 653.95757,51.769886 649.875,49.229369 z M 5.0625,192.10437 L 5.0625,218.85437 L 29.875,218.85437 L 29.875,192.10437 L 5.0625,192.10437 z M 486.5625,348.32312 C 489.71764,351.00466 492.51426,353.82809 495.125,356.72937 C 492.51883,353.8282 489.72032,351.00041 486.5625,348.32312 z M 496.65625,358.41687 C 497.34085,359.22212 498.01345,360.03278 498.65625,360.85437 C 498.01486,360.03294 497.33938,359.22199 496.65625,358.41687 z M 501.28125,364.47937 C 501.74037,365.146 502.22366,365.80263 502.65625,366.47937 C 502.22323,365.80132 501.7406,365.14742 501.28125,364.47937 z "
     id="path617" />
  <path
     inkscape:r_cy="true"
     inkscape:r_cx="true"
     d="M 345.05652,114.75455 C 345.05652,117.91933 342.49096,120.4849 339.32618,120.4849 C 336.16139,120.4849 333.59583,117.91933 333.59583,114.75455 C 333.59583,111.58976 336.16139,109.0242 339.32618,109.0242 C 342.49096,109.0242 345.05652,111.58976 345.05652,114.75455 L 345.05652,114.75455 z "
     style="fill:black;fill-opacity:1"
     id="path3179" />
  <path
     inkscape:r_cy="true"
     inkscape:r_cx="true"
     d="M 476.85432,162.50741 C 476.85432,165.6722 474.28876,168.23776 471.12398,168.23776 C 467.95919,168.23776 465.39363,165.6722 465.39363,162.50741 C 465.39363,159.34263 467.95919,156.77707 471.12398,156.77707 C 474.28876,156.77707 476.85432,159.34263 476.85432,162.50741 L 476.85432,162.50741 z "
     style="fill:black;fill-opacity:1"
     id="path3181" />
  <path
     inkscape:r_cy="true"
     inkscape:r_cx="true"
     d="M 497.86562,296.21538 C 497.86562,299.38017 495.30006,301.94573 492.13528,301.94573 C 488.97049,301.94573 486.40493,299.38017 486.40493,296.21538 C 486.40493,293.0506 488.97049,290.48504 492.13528,290.48504 C 495.30006,290.48504 497.86562,293.0506 497.86562,296.21538 L 497.86562,296.21538 z "
     style="fill:black;fill-opacity:1"
     id="path3182" />
  <path
     inkscape:r_cy="true"
     inkscape:r_cx="true"
     d="M 154.98502,260.18647 C 154.20914,261.22071 153.23142,262.16195 152.19963,263.05982 C 153.2393,262.15601 154.20491,261.22634 154.98502,260.18647 z "
     style="fill:#ff004d;fill-opacity:1;stroke:none"
     id="path3126" />
  <path
     inkscape:r_cy="true"
     inkscape:r_cx="true"
     d="M 115.13927,345.68332 C 114.6907,345.94223 114.15167,346.16529 113.49736,346.29904 C 114.16193,346.1632 114.6859,345.94795 115.13927,345.68332 z "
     style="fill:#ff004d;fill-opacity:1;stroke:none"
     id="path3308" />
  <path
     inkscape:r_cy="true"
     inkscape:r_cx="true"
     d="M 294.45982,442.67357 C 294.25832,443.28068 293.95792,443.78433 293.60954,444.22752 C 293.95864,443.78781 294.25887,443.27902 294.45982,442.67357 z "
     style="fill:#ff004d;fill-opacity:1;stroke:none"
     id="path3306" />
  <path
     inkscape:r_cy="true"
     inkscape:r_cx="true"
     d="M 293.19906,444.638 C 292.99189,444.84333 292.76621,445.02791 292.5247,445.19508 C 292.76836,445.02984 292.99029,444.84207 293.19906,444.638 z "
     style="fill:#ff004d;fill-opacity:1;stroke:none"
     id="path3305" />
  <path
     inkscape:r_cy="true"
     inkscape:r_cx="true"
     d="M 291.08803,445.78148 C 290.44483,446.02514 289.7701,446.22742 289.00632,446.33856 C 289.77828,446.23514 290.43789,446.01883 291.08803,445.78148 z "
     style="fill:#ff004d;fill-opacity:1;stroke:none"
     id="path3304" />
  <path
     inkscape:r_cy="true"
     inkscape:r_cx="true"
     d="M 285.69317,446.5438 C 286.00265,446.55045 286.30103,446.54611 286.60208,446.5438 C 286.30362,446.54871 286.00013,446.54795 285.69317,446.5438 z "
     style="fill:#ff004d;fill-opacity:1;stroke:none"
     id="path3303" />
  <path
     inkscape:r_cy="true"
     inkscape:r_cx="true"
     style="fill:#ff004d;fill-opacity:1;stroke:none"
     d="M 5.0625,76.541869 L 5.0625,103.29187 L 29.875,103.29187 L 29.875,76.541869 L 5.0625,76.541869 z M 192.73401,312.23664 L 148.9295,359.93213 C 133.54827,355.5864 122.67731,357.83681 108.1875,349.66687 L 98.8125,359.76062 L 92.0625,367.51062 L 82.125,367.19812 C 81.112316,359.68141 81.351425,358.87552 84.625,352.29187 L 81.3125,346.47937 L 65.1875,352.76062 L 54.75,353.10437 L 52.28125,364.69812 L 51.4375,364.69812 C 48.311636,362.76732 46.549313,365.38728 44.8125,368.01062 L 43.96875,368.01062 C 42.170483,365.44535 38.118458,358.34484 34.75,357.91687 C 32.708557,357.65809 30.691509,359.87152 29.03125,360.76062 C 22.843718,364.07482 15.871704,368.47387 13.0625,375.54187 C 10.552204,381.85848 12.46875,391.97487 12.46875,398.72937 L 0,399.54187 C 0.8802248,401.36819 1.7182233,403.3134 2.9375,404.94812 C 10.951916,415.69197 17.296308,407.4023 26.6875,405.04187 C 30.328991,404.12623 36.640127,404.84101 40.65625,404.57312 C 55.867228,403.55963 71.033303,406.59549 86.25,406.47937 C 100.62322,406.36907 114.82015,403.87706 129.375,404.79187 C 136.88922,405.26382 149.02316,401.70047 155.8125,405.60437 C 163.22552,409.86657 162.8434,426.20099 165.21875,433.54187 C 166.46781,437.40346 170.00885,440.76038 170.90625,444.38562 C 171.83019,448.11535 169.91025,451.18521 172.0625,454.94812 C 174.79781,459.7295 179.17894,463.44083 181.84375,468.38562 C 184.09138,472.55493 189.20797,482.40452 193.59375,484.44812 C 196.77112,485.92856 200.74523,483.65031 204.03125,483.76062 C 207.71536,483.88417 210.97578,485.74874 214.8125,485.79187 L 214.8125,481.63562 L 233.0625,479.41687 L 239.75,481.51062 L 259.59375,481.63562 L 260.4375,466.72937 C 270.47469,463.77512 261.13856,453.74909 267.3125,447.91687 C 269.62456,445.73241 273.84668,445.82337 278.21875,446.13562 L 278.21875,376.88562 L 278.28125,376.76062 L 278.40625,376.60437 L 291.875,358.29187 L 290.34375,357.82312 L 290.1875,357.76062 L 192.73401,312.23664 z "
     id="path3307"
     sodipodi:nodetypes="cccccccccccccccccccsssccssssssssssssccccccscccccccc" />
  <path
     inkscape:r_cy="true"
     inkscape:r_cx="true"
     style="opacity:1;fill:#ffe180;fill-opacity:1;stroke:none"
     d="M 5.0625,153.91687 L 5.0625,180.66687 L 29.875,180.66687 L 29.875,153.91687 L 5.0625,153.91687 z M 426.21875,251.44812 L 393.0625,261.69812 L 361.28125,259.38562 L 349.75,276.13562 L 313.34375,276.13562 L 307.03125,337.29187 C 301.98215,344.28994 296.917,351.28996 291.875,358.29187 C 291.65716,358.59438 291.43672,358.89564 291.21875,359.19812 C 287.53032,364.31665 283.88146,369.44186 280.125,374.54187 C 280.05143,374.54988 279.97965,374.56629 279.90625,374.57312 L 278.28125,376.76062 L 278.21875,376.19812 L 278.21875,446.13562 C 285.21069,446.63762 292.7375,447.88308 294.46875,442.66687 L 302.71875,442.66687 C 301.56758,446.69434 296.29434,455.22128 303.59375,455.88562 C 313.64422,456.80042 324.15556,455.94812 334.25,455.94812 C 337.44729,455.94814 343.64281,454.74252 345.71875,457.85437 C 348.73747,462.37835 345.87988,468.70043 344.4375,474.29187 L 346.34375,469.97937 L 423.78125,468.51062 L 485.15625,411.54187 L 445.71875,326.76062 L 447.21875,325.97937 C 446.63843,325.75433 446.15018,325.48212 445.5625,325.26062 L 455.1875,280.85437 L 426.21875,251.44812 z M 449.875,327.10437 C 454.15954,328.84565 458.35504,330.63613 462.21875,332.57312 C 458.34977,330.63359 454.16801,328.8462 449.875,327.10437 z M 462.21875,332.57312 C 466.90333,334.92164 471.28677,337.41363 475.34375,340.04187 C 471.28985,337.41273 466.90235,334.92102 462.21875,332.57312 z M 475.34375,340.04187 C 479.38801,342.66187 483.12041,345.40259 486.53125,348.29187 C 483.12527,345.40115 479.38435,342.66239 475.34375,340.04187 z M 487.03125,348.79187 C 491.93862,353.01245 496.23851,357.49462 499.78125,362.26062 C 496.24425,357.48702 491.936,353.01847 487.03125,348.79187 z M 499.78125,362.29187 C 500.99784,363.92973 502.1344,365.59173 503.1875,367.29187 C 502.13879,365.5935 500.99282,363.92822 499.78125,362.29187 z M 506.875,374.19812 C 507.45102,375.42562 508.03417,376.62964 508.53125,377.88562 C 508.03804,376.63707 507.44606,375.41862 506.875,374.19812 z M 508.53125,377.88562 C 509.25541,379.71536 509.91316,381.5901 510.46875,383.47937 C 509.91141,381.57683 509.25907,379.72807 508.53125,377.88562 z "
     id="path3124" />
  <path
     inkscape:r_cy="true"
     inkscape:r_cx="true"
     d="M 379.43852,393.63128 C 379.43852,396.79607 376.87296,399.36163 373.70818,399.36163 C 370.54339,399.36163 367.97783,396.79607 367.97783,393.63128 C 367.97783,390.4665 370.54339,387.90094 373.70818,387.90094 C 376.87296,387.90094 379.43852,390.4665 379.43852,393.63128 L 379.43852,393.63128 z "
     style="fill:black;fill-opacity:1"
     id="path3183" />
  <path
     inkscape:r_cy="true"
     inkscape:r_cx="true"
     d="M 431.01162,412.73238 C 431.01162,415.89717 428.44606,418.46273 425.28128,418.46273 C 422.11649,418.46273 419.55093,415.89717 419.55093,412.73238 C 419.55093,409.5676 422.11649,407.00204 425.28128,407.00204 C 428.44606,407.00204 431.01162,409.5676 431.01162,412.73238 L 431.01162,412.73238 z "
     style="fill:black;fill-opacity:1"
     id="path3184" />
  <path
     inkscape:r_cy="true"
     inkscape:r_cx="true"
     d="M 625.84332,407.00208 C 625.84332,410.16687 623.27776,412.73243 620.11298,412.73243 C 616.94819,412.73243 614.38263,410.16687 614.38263,407.00208 C 614.38263,403.8373 616.94819,401.27174 620.11298,401.27174 C 623.27776,401.27174 625.84332,403.8373 625.84332,407.00208 L 625.84332,407.00208 z "
     style="fill:black;fill-opacity:1"
     id="path3185" />
  <path
     inkscape:r_cy="true"
     inkscape:r_cx="true"
     d="M 604.83192,282.84458 C 604.83192,286.00937 602.26636,288.57493 599.10158,288.57493 C 595.93679,288.57493 593.37123,286.00937 593.37123,282.84458 C 593.37123,279.6798 595.93679,277.11424 599.10158,277.11424 C 602.26636,277.11424 604.83192,279.6798 604.83192,282.84458 L 604.83192,282.84458 z "
     style="fill:black;fill-opacity:1"
     id="path3188" />
  <path
     inkscape:r_cy="true"
     inkscape:r_cx="true"
     d="M 622.02312,248.46268 C 622.02312,251.62747 619.45756,254.19303 616.29278,254.19303 C 613.12799,254.19303 610.56243,251.62747 610.56243,248.46268 C 610.56243,245.2979 613.12799,242.73234 616.29278,242.73234 C 619.45756,242.73234 622.02312,245.2979 622.02312,248.46268 L 622.02312,248.46268 z "
     style="fill:black;fill-opacity:1"
     id="path3189" />
  <path
     inkscape:r_cy="true"
     inkscape:r_cx="true"
     d="M 662.13542,133.8557 C 662.13542,137.02049 659.56986,139.58605 656.40508,139.58605 C 653.24029,139.58605 650.67473,137.02049 650.67473,133.8557 C 650.67473,130.69092 653.24029,128.12536 656.40508,128.12536 C 659.56986,128.12536 662.13542,130.69092 662.13542,133.8557 L 662.13542,133.8557 z "
     style="fill:black;fill-opacity:1"
     id="path3193" />
  <path
     inkscape:r_cy="true"
     inkscape:r_cx="true"
     d="M 560.89942,99.473654 C 560.89942,102.63844 558.33386,105.204 555.16908,105.204 C 552.00429,105.204 549.43873,102.63844 549.43873,99.473654 C 549.43873,96.308869 552.00429,93.743304 555.16908,93.743304 C 558.33386,93.743304 560.89942,96.308869 560.89942,99.473654 L 560.89942,99.473654 z "
     style="fill:black;fill-opacity:1"
     id="path3195" />
  <path
     inkscape:r_cy="true"
     inkscape:r_cx="true"
     d="M 555.16912,614.24958 C 555.16912,617.41437 552.60356,619.97993 549.43878,619.97993 C 546.27399,619.97993 543.70843,617.41437 543.70843,614.24958 C 543.70843,611.0848 546.27399,608.51924 549.43878,608.51924 C 552.60356,608.51924 555.16912,611.0848 555.16912,614.24958 L 555.16912,614.24958 z "
     style="fill:black;fill-opacity:1"
     id="path3196" />
  <path
     inkscape:r_cy="true"
     inkscape:r_cx="true"
     d="M 50.898795,398.40658 C 50.898795,401.57137 48.33323,404.13693 45.168445,404.13693 C 42.003661,404.13693 39.438096,401.57137 39.438096,398.40658 C 39.438096,395.2418 42.003661,392.67624 45.168445,392.67624 C 48.33323,392.67624 50.898795,395.2418 50.898795,398.40658 L 50.898795,398.40658 z "
     style="fill:black;fill-opacity:1"
     id="path3197" />
  <text
     inkscape:r_cy="true"
     inkscape:r_cx="true"
     x="37.527935"
     y="97.563423"
     style="font-size:22.51768875px;font-style:normal;font-variant:normal;font-weight:normal;font-stretch:normal;writing-mode:lr-tb;text-anchor:start;fill:black;fill-opacity:1;stroke:none;stroke-width:1pt;stroke-linecap:butt;stroke-linejoin:miter;stroke-opacity:1;font-family:Bitstream Vera Sans"
     id="text3266"
     xml:space="preserve"><tspan
       inkscape:r_cy="true"
       inkscape:r_cx="true"
       x="37.527935"
       y="97.563423"
       id="tspan3267">Kikongo</tspan></text>
  <text
     inkscape:r_cy="true"
     inkscape:r_cx="true"
     x="37.67453"
     y="134.81065"
     style="font-size:22.51768875px;font-style:normal;font-variant:normal;font-weight:normal;font-stretch:normal;writing-mode:lr-tb;text-anchor:start;fill:black;fill-opacity:1;stroke:none;stroke-width:1pt;stroke-linecap:butt;stroke-linejoin:miter;stroke-opacity:1;font-family:Bitstream Vera Sans"
     id="text3270"
     xml:space="preserve"><tspan
       inkscape:r_cy="true"
       inkscape:r_cx="true"
       x="37.67453"
       y="134.81065"
       id="tspan3271">Lingála</tspan></text>
  <text
     inkscape:r_cy="true"
     inkscape:r_cx="true"
     x="37.527935"
     y="174.92305"
     style="font-size:22.51768875px;font-style:normal;font-variant:normal;font-weight:normal;font-stretch:normal;writing-mode:lr-tb;text-anchor:start;fill:black;fill-opacity:1;stroke:none;stroke-width:1pt;stroke-linecap:butt;stroke-linejoin:miter;stroke-opacity:1;font-family:Bitstream Vera Sans"
     id="text3274"
     xml:space="preserve"><tspan
       inkscape:r_cy="true"
       inkscape:r_cx="true"
       x="37.527935"
       y="174.92305"
       id="tspan3275">Tshiluba</tspan></text>
  <text
     inkscape:r_cy="true"
     inkscape:r_cx="true"
     x="37.527935"
     y="213.12535"
     style="font-size:22.51768875px;font-style:normal;font-variant:normal;font-weight:normal;font-stretch:normal;writing-mode:lr-tb;text-anchor:start;fill:black;fill-opacity:1;stroke:none;stroke-width:1pt;stroke-linecap:butt;stroke-linejoin:miter;stroke-opacity:1;font-family:Bitstream Vera Sans"
     id="text3278"
     xml:space="preserve"><tspan
       inkscape:r_cy="true"
       inkscape:r_cx="true"
       x="37.527935"
       y="213.12535"
       id="tspan3279">Swahili</tspan></text>
  <text
     inkscape:r_cy="true"
     inkscape:r_cx="true"
     x="82.186646"
     y="336.78015"
     style="font-size:22.51768875px;font-style:normal;font-variant:normal;font-weight:normal;font-stretch:normal;writing-mode:lr-tb;text-anchor:start;fill:black;fill-opacity:1;stroke:none;stroke-width:1pt;stroke-linecap:butt;stroke-linejoin:miter;stroke-opacity:1;font-family:Bitstream Vera Sans"
     id="text3198"
     xml:space="preserve"><tspan
       inkscape:r_cy="true"
       inkscape:r_cx="true"
       x="82.186646"
       y="336.78015"
       id="tspan3199">Kinshasa</tspan></text>
  <text
     inkscape:r_cy="true"
     inkscape:r_cx="true"
     x="53.948074"
     y="402.38275"
     style="font-size:22.51768875px;font-style:normal;font-variant:normal;font-weight:normal;font-stretch:normal;writing-mode:lr-tb;text-anchor:start;fill:black;fill-opacity:1;stroke:none;stroke-width:1pt;stroke-linecap:butt;stroke-linejoin:miter;stroke-opacity:1;font-family:Bitstream Vera Sans"
     id="text3202"
     xml:space="preserve"><tspan
       inkscape:r_cy="true"
       inkscape:r_cx="true"
       x="53.948074"
       y="402.38275"
       id="tspan3203">Matadi</tspan></text>
  <text
     inkscape:r_cy="true"
     inkscape:r_cx="true"
     x="229.67857"
     y="215.81758"
     style="font-size:22.51768875px;font-style:normal;font-variant:normal;font-weight:normal;font-stretch:normal;writing-mode:lr-tb;text-anchor:start;fill:black;fill-opacity:1;stroke:none;stroke-width:1pt;stroke-linecap:butt;stroke-linejoin:miter;stroke-opacity:1;font-family:Bitstream Vera Sans"
     id="text3205"
     xml:space="preserve"><tspan
       inkscape:r_cy="true"
       inkscape:r_cx="true"
       x="229.67857"
       y="215.81758"
       id="tspan3206">Mbandaka</tspan></text>
  <text
     inkscape:r_cy="true"
     inkscape:r_cx="true"
     x="485.63388"
     y="169.97488"
     style="font-size:22.51768875px;font-style:normal;font-variant:normal;font-weight:normal;font-stretch:normal;writing-mode:lr-tb;text-anchor:start;fill:black;fill-opacity:1;stroke:none;stroke-width:1pt;stroke-linecap:butt;stroke-linejoin:miter;stroke-opacity:1;font-family:Bitstream Vera Sans"
     id="text3208"
     xml:space="preserve"><tspan
       inkscape:r_cy="true"
       inkscape:r_cx="true"
       x="485.63388"
       y="169.97488"
       id="tspan3209">Kisangani</tspan></text>
  <text
     inkscape:r_cy="true"
     inkscape:r_cx="true"
     x="500.91489"
     y="305.59296"
     style="font-size:22.51768875px;font-style:normal;font-variant:normal;font-weight:normal;font-stretch:normal;writing-mode:lr-tb;text-anchor:start;fill:black;fill-opacity:1;stroke:none;stroke-width:1pt;stroke-linecap:butt;stroke-linejoin:miter;stroke-opacity:1;font-family:Bitstream Vera Sans"
     id="text3211"
     xml:space="preserve"><tspan
       inkscape:r_cy="true"
       inkscape:r_cx="true"
       x="500.91489"
       y="305.59296"
       id="tspan3212">Kindu</tspan></text>
  <text
     inkscape:r_cy="true"
     inkscape:r_cx="true"
     x="558.21826"
     y="628.4024"
     style="font-size:22.51768875px;font-style:normal;font-variant:normal;font-weight:normal;font-stretch:normal;writing-mode:lr-tb;text-anchor:start;fill:black;fill-opacity:1;stroke:none;stroke-width:1pt;stroke-linecap:butt;stroke-linejoin:miter;stroke-opacity:1;font-family:Bitstream Vera Sans"
     id="text3214"
     xml:space="preserve"><tspan
       inkscape:r_cy="true"
       inkscape:r_cx="true"
       x="558.21826"
       y="628.4024"
       id="tspan3215">Lubumbashi</tspan></text>
  <text
     inkscape:r_cy="true"
     inkscape:r_cx="true"
     x="435.97107"
     y="424.02011"
     style="font-size:22.51768875px;font-style:normal;font-variant:normal;font-weight:normal;font-stretch:normal;writing-mode:lr-tb;text-anchor:start;fill:black;fill-opacity:1;stroke:none;stroke-width:1pt;stroke-linecap:butt;stroke-linejoin:miter;stroke-opacity:1;font-family:Bitstream Vera Sans"
     id="text3217"
     xml:space="preserve"><tspan
       inkscape:r_cy="true"
       inkscape:r_cx="true"
       x="435.97107"
       y="424.02011"
       id="tspan3218">Mbuji Mayi</tspan></text>
  <text
     inkscape:r_cy="true"
     inkscape:r_cx="true"
     x="382.48776"
     y="398.87555"
     style="font-size:22.51768875px;font-style:normal;font-variant:normal;font-weight:normal;font-stretch:normal;writing-mode:lr-tb;text-anchor:start;fill:black;fill-opacity:1;stroke:none;stroke-width:1pt;stroke-linecap:butt;stroke-linejoin:miter;stroke-opacity:1;font-family:Bitstream Vera Sans"
     id="text3220"
     xml:space="preserve"><tspan
       inkscape:r_cy="true"
       inkscape:r_cx="true"
       x="382.48776"
       y="398.87555"
       id="tspan3221">Kananga</tspan></text>
  <text
     inkscape:r_cy="true"
     inkscape:r_cx="true"
     x="630.80267"
     y="418.28973"
     style="font-size:22.51768875px;font-style:normal;font-variant:normal;font-weight:normal;font-stretch:normal;writing-mode:lr-tb;text-anchor:start;fill:black;fill-opacity:1;stroke:none;stroke-width:1pt;stroke-linecap:butt;stroke-linejoin:miter;stroke-opacity:1;font-family:Bitstream Vera Sans"
     id="text3223"
     xml:space="preserve"><tspan
       inkscape:r_cy="true"
       inkscape:r_cx="true"
       x="630.80267"
       y="418.28973"
       id="tspan3224">Kalemie</tspan></text>
  <text
     inkscape:r_cy="true"
     inkscape:r_cx="true"
     x="609.79138"
     y="294.13226"
     style="font-size:22.51768875px;font-style:normal;font-variant:normal;font-weight:normal;font-stretch:normal;writing-mode:lr-tb;text-anchor:start;fill:black;fill-opacity:1;stroke:none;stroke-width:1pt;stroke-linecap:butt;stroke-linejoin:miter;stroke-opacity:1;font-family:Bitstream Vera Sans"
     id="text3232"
     xml:space="preserve"><tspan
       inkscape:r_cy="true"
       inkscape:r_cx="true"
       x="609.79138"
       y="294.13226"
       id="tspan3233">Bukavu</tspan></text>
  <text
     inkscape:r_cy="true"
     inkscape:r_cx="true"
     x="626.98248"
     y="261.66028"
     style="font-size:22.51768875px;font-style:normal;font-variant:normal;font-weight:normal;font-stretch:normal;writing-mode:lr-tb;text-anchor:start;fill:black;fill-opacity:1;stroke:none;stroke-width:1pt;stroke-linecap:butt;stroke-linejoin:miter;stroke-opacity:1;font-family:Bitstream Vera Sans"
     id="text3235"
     xml:space="preserve"><tspan
       inkscape:r_cy="true"
       inkscape:r_cx="true"
       x="626.98248"
       y="261.66028"
       id="tspan3236">Goma</tspan></text>
  <text
     inkscape:r_cy="true"
     inkscape:r_cx="true"
     x="667.09479"
     y="145.14328"
     style="font-size:22.51768875px;font-style:normal;font-variant:normal;font-weight:normal;font-stretch:normal;writing-mode:lr-tb;text-anchor:start;fill:black;fill-opacity:1;stroke:none;stroke-width:1pt;stroke-linecap:butt;stroke-linejoin:miter;stroke-opacity:1;font-family:Bitstream Vera Sans"
     id="text3247"
     xml:space="preserve"><tspan
       inkscape:r_cy="true"
       inkscape:r_cx="true"
       x="667.09479"
       y="145.14328"
       id="tspan3248">Bunia</tspan></text>
  <text
     inkscape:r_cy="true"
     inkscape:r_cx="true"
     x="563.94867"
     y="110.76118"
     style="font-size:22.51768875px;font-style:normal;font-variant:normal;font-weight:normal;font-stretch:normal;writing-mode:lr-tb;text-anchor:start;fill:black;fill-opacity:1;stroke:none;stroke-width:1pt;stroke-linecap:butt;stroke-linejoin:miter;stroke-opacity:1;font-family:Bitstream Vera Sans"
     id="text3253"
     xml:space="preserve"><tspan
       inkscape:r_cy="true"
       inkscape:r_cx="true"
       x="563.94867"
       y="110.76118"
       id="tspan3254">Isiro</tspan></text>
  <text
     inkscape:r_cy="true"
     inkscape:r_cx="true"
     x="350.01578"
     y="126.04218"
     style="font-size:22.51768875px;font-style:normal;font-variant:normal;font-weight:normal;font-stretch:normal;writing-mode:lr-tb;text-anchor:start;fill:black;fill-opacity:1;stroke:none;stroke-width:1pt;stroke-linecap:butt;stroke-linejoin:miter;stroke-opacity:1;font-family:Bitstream Vera Sans"
     id="text3256"
     xml:space="preserve"><tspan
       inkscape:r_cy="true"
       inkscape:r_cx="true"
       x="350.01578"
       y="126.04218"
       id="tspan3257">Bumba</tspan></text>
  <path
     inkscape:r_cy="true"
     inkscape:r_cx="true"
     d="M 241.31105,379.93611 C 241.31105,383.1009 238.74549,385.66646 235.5807,385.66646 C 232.41592,385.66646 229.85035,383.1009 229.85035,379.93611 C 229.85035,376.77133 232.41592,374.20577 235.5807,374.20577 C 238.74549,374.20577 241.31105,376.77133 241.31105,379.93611 L 241.31105,379.93611 z "
     style="fill:black;fill-opacity:1"
     id="path1954" />
  <text
     inkscape:r_cy="true"
     inkscape:r_cx="true"
     x="247.15717"
     y="386.83023"
     style="font-size:22.51768875px;font-style:normal;font-variant:normal;font-weight:normal;font-stretch:normal;writing-mode:lr-tb;text-anchor:start;fill:black;fill-opacity:1;stroke:none;stroke-width:1pt;stroke-linecap:butt;stroke-linejoin:miter;stroke-opacity:1;font-family:Bitstream Vera Sans"
     id="text1956"
     xml:space="preserve"><tspan
       inkscape:r_cy="true"
       inkscape:r_cx="true"
       x="247.15717"
       y="386.83023"
       id="tspan1958">Kikwit</tspan></text>
  <text
     xml:space="preserve"
     style="font-size:12px;font-style:normal;font-weight:normal;fill:black;fill-opacity:1;stroke:none;stroke-width:1px;stroke-linecap:butt;stroke-linejoin:miter;stroke-opacity:1;font-family:Bitstream Vera Sans"
     x="201.48349"
     y="546.28912"
     id="text1960"><tspan
       sodipodi:role="line"
       id="tspan1962"
       x="201.48349"
       y="546.28912"></tspan></text>
  <text
     inkscape:r_cy="true"
     inkscape:r_cx="true"
     x="203.34402"
     y="330.05661"
     style="font-size:22.51768875px;font-style:normal;font-variant:normal;font-weight:normal;font-stretch:normal;writing-mode:lr-tb;text-anchor:start;fill:black;fill-opacity:1;stroke:none;stroke-width:1pt;stroke-linecap:butt;stroke-linejoin:miter;stroke-opacity:1;font-family:Bitstream Vera Sans"
     id="text1964"
     xml:space="preserve"><tspan
       inkscape:r_cy="true"
       inkscape:r_cx="true"
       x="203.34402"
       y="330.05661"
       id="tspan1966">Bandundu</tspan></text>
  <path
     inkscape:r_cy="true"
     inkscape:r_cx="true"
     d="M 199.9811,322.14068 C 199.9811,325.30547 197.41554,327.87103 194.25075,327.87103 C 191.08597,327.87103 188.5204,325.30547 188.5204,322.14068 C 188.5204,318.9759 191.08597,316.41034 194.25075,316.41034 C 197.41554,316.41034 199.9811,318.9759 199.9811,322.14068 L 199.9811,322.14068 z "
     style="fill:black;fill-opacity:1"
     id="path1968" />
</svg>
