<?xml version="1.0" encoding="UTF-8" standalone="no"?>
<!-- Created with Inkscape (http://www.inkscape.org/) -->
<svg
   xmlns:dc="http://purl.org/dc/elements/1.1/"
   xmlns:cc="http://creativecommons.org/ns#"
   xmlns:rdf="http://www.w3.org/1999/02/22-rdf-syntax-ns#"
   xmlns:svg="http://www.w3.org/2000/svg"
   xmlns="http://www.w3.org/2000/svg"
   xmlns:sodipodi="http://sodipodi.sourceforge.net/DTD/sodipodi-0.dtd"
   xmlns:inkscape="http://www.inkscape.org/namespaces/inkscape"
   width="1551.178"
   height="1401.9678"
   id="svg4732"
   sodipodi:version="0.32"
   inkscape:version="0.46"
   version="1.0"
   sodipodi:docname="123.svg"
   inkscape:output_extension="org.inkscape.output.svg.inkscape">
  <defs
     id="defs4734">
    <inkscape:perspective
       sodipodi:type="inkscape:persp3d"
       inkscape:vp_x="0 : 526.18109 : 1"
       inkscape:vp_y="0 : 1000 : 0"
       inkscape:vp_z="744.09448 : 526.18109 : 1"
       inkscape:persp3d-origin="372.04724 : 350.78739 : 1"
       id="perspective4740" />
  </defs>
  <sodipodi:namedview
     id="base"
     pagecolor="#ffffff"
     bordercolor="#666666"
     borderopacity="1.0"
     gridtolerance="10000"
     guidetolerance="10"
     objecttolerance="10"
     inkscape:pageopacity="0.0"
     inkscape:pageshadow="2"
     inkscape:zoom="4"
     inkscape:cx="27.266648"
     inkscape:cy="130.53711"
     inkscape:document-units="px"
     inkscape:current-layer="layer1"
     showgrid="false"
     inkscape:window-width="1024"
     inkscape:window-height="712"
     inkscape:window-x="-4"
     inkscape:window-y="-4" />
  <metadata
     id="metadata4737">
    <rdf:RDF>
      <cc:Work
         rdf:about="">
        <dc:format>image/svg+xml</dc:format>
        <dc:type
           rdf:resource="http://purl.org/dc/dcmitype/StillImage" />
      </cc:Work>
    </rdf:RDF>
  </metadata>
  <g
     inkscape:label="Layer 1"
     inkscape:groupmode="layer"
     id="layer1"
     transform="translate(543.44615,368.62177)">
    <g
       transform="matrix(5.4171437,0,0,5.4171437,-8587.3355,-2756.2277)"
       class="landxx coastxx ye"
       id="ye"
       style="fill:#2b0000">
      <path
         d="M 1625.188,684.288 C 1625.284,683.957 1625.306,683.621 1625.257,683.28 C 1624.155,683.457 1624.604,683.897 1625.188,684.288"
         id="path2190"
         style="fill:#2b0000" />
      <path
         d="M 1698.268,699.552 C 1698.226,698.774 1697.266,699.048 1696.829,699.12 C 1697.308,699.264 1697.788,699.408 1698.268,699.552"
         id="path2192"
         style="fill:#2b0000" />
      <path
         d="M 1708.918,698.112 C 1710.603,697.725 1713.527,697.91 1714.389,696.024 C 1713.377,695.417 1712.039,694.487 1710.791,694.768 C 1710.2,694.902 1709.69,695.289 1709.057,695.228 C 1708.387,695.165 1707.812,694.58 1707.116,694.706 C 1706.356,694.843 1705.68,696.323 1706.308,696.877 C 1706.963,697.458 1708.045,697.987 1708.918,698.112"
         id="path2194"
         style="fill:#2b0000" />
      <path
         class="landxx ye"
         d="M 1702.658,660.279 C 1700.232,660.189 1701.6044,655.21807 1699.1984,654.93507 C 1700.2778,653.2208 1696.2761,647.90196 1695.5873,646.026 L 1692.7797,639.53725 C 1685.6548,640.93734 1678.4965,642.47056 1671.4847,643.41794 C 1665.6343,645.22282 1662.6822,648.13037 1661.359,651.297 C 1660.138,653.121 1659.485,657.727 1656.558,657.55 C 1654.566,657.43 1654.783,654.443 1652.867,654.669 C 1650.452,654.954 1648.476,654.909 1646.028,654.565 C 1644.639,654.37 1643.215,653.381 1641.854,653.381 C 1640.347,653.381 1638.846,653.526 1637.348,653.668 C 1635.509,653.842 1633.956,654.668 1632.05,654.563 C 1631.002,654.505 1630.613,653.339 1629.542,653.206 C 1628.518,653.078 1627.73,653.769 1627.301,654.635 C 1626.832,655.58 1626.682,656.726 1626.859,657.764 C 1626.973,658.436 1627.915,659.103 1627.403,659.792 C 1626.919,660.445 1626.535,661.116 1626.037,661.796 C 1625.771,662.168 1625.436,662.461 1625.033,662.676 C 1624.073,663.156 1624.562,663.521 1624.76,664.574 C 1625.072,666.242 1624.444,667.015 1624.147,668.535 C 1623.872,669.942 1625.053,671.165 1624.919,672.564 C 1624.652,672.324 1623.218,672.287 1623.457,672.846 C 1623.406,672.729 1624.904,673.572 1624.901,673.568 C 1625.703,674.424 1626.003,675.31 1626.276,676.43 C 1626.814,678.626 1626.856,681.074 1627.546,683.21 C 1627.829,684.087 1628.533,684.743 1628.867,685.598 C 1629.268,686.629 1628.889,687.747 1628.869,688.802 C 1628.828,690.889 1631.352,692.645 1630.669,694.765 C 1631.59,694.836 1632.211,694.319 1633.143,694.691 C 1634.135,695.087 1634.817,695.414 1635.91,695.197 C 1638.165,694.75 1639.168,693.174 1641.519,694.407 C 1641.398,693.767 1642.08,693.117 1642.31,694.048 C 1642.699,693.62 1642.925,693.123 1643.239,692.647 C 1643.735,691.894 1644.54,691.911 1645.204,691.409 C 1646.684,690.291 1646.852,689.164 1648.89,688.696 C 1650.791,688.259 1652.806,688.176 1654.745,688.354 C 1655.887,688.458 1657.802,687.148 1658.946,686.824 C 1660.653,686.341 1661.498,684.864 1663,684.032 C 1663.461,683.777 1664.111,683.2 1664.61,683.051 C 1665.161,683.069 1665.686,683.2 1666.186,683.442 C 1666.75,683.469 1667.302,683.401 1667.84,683.239 C 1671.468,682.655 1672.284,678.901 1675.545,677.3 C 1677.06,676.556 1678.398,676.368 1680.017,676.085 C 1682.012,675.737 1683.666,674.399 1685.629,673.931 C 1686.994,673.605 1688.377,673.348 1689.701,672.87 C 1691.024,672.392 1691.494,671.338 1692.612,670.767 C 1693.54,670.293 1695.542,670.352 1695.827,669.092 C 1696.158,667.632 1695.144,666.304 1695.674,664.815 C 1696.742,661.806 1700.416,661.925 1702.658,660.279"
         id="path2592"
         style="fill:#2b0000" />
    </g>
    <path
       class="landxx jo"
       d="M -134.91725,226.36513 C -135.66475,213.28813 -130.39925,200.83408 -130.27475,187.83296 C -130.1285,172.88701 -123.45988,161.80358 -121.65069,147.57813 C -120.89225,141.65188 -122.60394,135.60626 -122.13819,129.58783 C -121.69394,123.89983 -119.80069,118.30388 -119.58944,112.76221 C -119.156,101.14783 -120.74644,87.198457 -121.17444,75.475757 C -121.53194,65.524382 -109.11538,68.585457 -103.44363,72.507332 C -94.098925,78.964707 -85.65205,88.747207 -73.08975,86.277007 C -60.440675,83.785132 -48.8008,71.889832 -38.340375,64.917957 C -24.9708,56.012207 -11.623,46.163882 2.4074499,38.368582 C 6.7357499,52.236382 12.41295,65.622207 17.1962,79.327632 C 12.37495,79.836882 15.522325,86.418582 18.626375,87.215007 C 23.545125,88.477207 29.751075,87.703457 21.79325,96.051257 C -3.1717501,111.31251 -28.175675,119.40188 -58.183925,126.88721 L -13.441425,173.83826 C -17.466425,175.81546 -28.1085,175.57438 -30.974125,179.18221 C -34.267675,183.33171 -30.536425,191.70938 -34.05755,195.85888 C -39.967675,202.82001 -54.886,196.89233 -62.5458,204.20546 C -71.283625,212.54796 -74.141125,228.23188 -86.62225,233.14513 C -97.91705,237.58188 -123.47081,229.32826 -134.91725,226.36513"
       id="jo"
       style="fill:#2b0000" />
    <g
       transform="matrix(5.4171437,0,0,5.4171437,-8587.3355,-2756.2277)"
       class="landxx coastxx ae"
       id="ae"
       style="fill:#2b0000">
      <path
         d="M 1703.018,595.872 C 1703.518,595.905 1703.901,595.713 1704.168,595.296 C 1703.515,594.756 1702.689,594.883 1702.298,595.656 C 1702.538,595.729 1702.777,595.8 1703.018,595.872"
         id="path2704"
         style="fill:#2b0000" />
      <path
         class="landxx ae"
         d="M 1686.389,594.576 C 1686.878,594.253 1687.069,594.445 1686.958,595.152 C 1687.192,594.93 1687.433,594.714 1687.678,594.504 C 1688.145,595.186 1687.731,596.172 1688.258,596.808 C 1688.768,597.423 1689.948,597.281 1690.639,597.241 C 1691.537,597.188 1692.294,597.046 1692.985,596.425 C 1693.299,596.143 1693.662,595.318 1694.089,595.225 C 1694.552,595.122 1695.706,595.819 1696.275,595.831 C 1697.208,595.852 1698.137,595.96 1699.069,595.927 C 1701.602,595.837 1703.349,597.003 1705.83,595.513 C 1705.605,595.166 1705.365,594.83 1705.11,594.505 C 1705.891,594.21 1705.783,595.15 1706.4,595.081 C 1707.298,594.981 1708.06,593.898 1708.426,593.18 C 1709.422,591.222 1709.549,590.107 1711.292,588.652 C 1712.989,587.235 1713.681,584.68 1715.285,583.357 C 1717.061,581.893 1718.127,581.502 1718.639,579.097 C 1719.933,579.163 1719.375,581.035 1719.385,581.825 C 1719.403,583.319 1721.026,582.562 1721.22,584.222 C 1721.414,585.887 1722.5508,588.06395 1721.241,589.35238 C 1718.4456,592.10212 1719.3453,590.17771 1718.9098,588.99806 C 1718.4848,587.84664 1717.605,589.9561 1717.738,590.666 C 1717.8388,591.20367 1717.5921,591.20968 1717.675,591.787 C 1717.7638,592.405 1718.1646,593.32199 1718.1723,594.04706 C 1718.1937,596.0626 1720.2136,595.15403 1719.4013,596.49938 C 1718.7548,597.57 1716.643,596.629 1715.826,597.602 C 1717.7078,598.64969 1714.9144,603.56628 1714.553,606.589 C 1714.681,608.567 1713.672,609.019 1711.949,608.615 C 1709.829,608.118 1707.637,607.918 1705.485,607.599 C 1703.228,607.265 1700.972,606.934 1698.708,606.652 C 1697.045,606.444 1695.051,606.774 1693.936,605.294 C 1692.804,603.791 1691.725,602.267 1690.535,600.803 C 1689.704,599.78 1688.853,598.775 1688.015,597.758 C 1687.172,596.729 1687.038,595.666 1686.389,594.576"
         id="path2784"
         style="fill:#2b0000" />
    </g>
    <g
       transform="matrix(5.4171437,0,0,5.4171437,-8587.3355,-2756.2277)"
       class="landxx tr"
       id="tr"
       style="fill:#2b0000">
      <path
         d="M 1489.389,452.376 C 1490.137,452.02 1491.167,450.999 1491.392,450.188 C 1491.742,448.924 1490.771,447.975 1492.524,447.184 C 1493.482,446.751 1493.133,446.745 1492.892,445.738 C 1492.75,445.147 1492.514,444.556 1491.878,444.348 C 1489.581,443.597 1492.414,443.235 1492.284,442.315 C 1492.248,442.059 1494.743,441.348 1495.148,441.216 C 1496.472,440.785 1497.25,440.341 1498.211,441.431 C 1499.108,442.448 1499.611,441.796 1500.748,441.683 C 1501.278,441.63 1501.901,441.686 1502.331,442.042 C 1503.063,442.648 1501.965,442.858 1502.482,443.523 C 1504.409,446.004 1506.66,447.082 1509.72,448 C 1510.901,448.354 1509.919,450.077 1509.188,450.348 C 1507.788,450.866 1505.756,449.51 1504.332,449.427 C 1503.627,449.386 1503.196,449.877 1502.614,450.175 C 1501.899,450.541 1501.151,449.906 1500.33,450.152 C 1499.337,450.45 1498.928,451.52 1498.244,452.265 C 1497.133,453.475 1495.636,453.817 1494.356,454.751 C 1493.27,455.543 1492.223,457.753 1491.046,458.208 C 1490.691,456.806 1491.284,455.348 1492.665,454.857 C 1492.913,454.769 1495.561,453.968 1494.688,453.25 C 1493.273,452.083 1490.078,455.21 1489.389,452.376"
         id="path3456"
         style="fill:#2b0000" />
      <path
         d="M 1490.328,463.248 C 1490.428,462.503 1490.52,458.816 1491.071,458.605 C 1492.437,458.084 1492.875,456.104 1494.288,455.399 C 1495.041,455.024 1496.006,455.686 1496.704,455.197 C 1497.579,454.585 1497.957,455.051 1498.725,455.511 C 1499.826,456.172 1503.387,455.891 1501.128,454.535 C 1501.845,454.243 1502.622,454.281 1503.358,454.463 C 1502.993,454.595 1502.814,454.829 1502.822,455.164 C 1503.244,455.754 1505.385,455.406 1505.93,455.356 C 1507.607,455.203 1510.024,456.181 1511.427,454.967 C 1510.757,454.312 1509.893,454.886 1509.188,454.32 C 1510.092,452.016 1514.236,452.884 1516.108,452.448 C 1514.492,451.653 1512.185,452.321 1510.83,450.931 C 1509.309,449.371 1510.84,448.077 1512.471,448.231 C 1514.261,448.4 1516.047,449.233 1517.868,448.836 C 1520.298,448.307 1522.271,449.632 1524.748,449.387 C 1525.892,449.274 1526.061,448.687 1526.485,447.793 C 1526.953,446.808 1528.7,446.377 1529.589,445.856 C 1532.155,444.352 1534.198,443.03 1537.1,442.245 C 1540.126,441.426 1542.446,441.863 1545.518,441.863 C 1546.757,441.863 1548.071,442.373 1549.298,442.007 C 1549.865,441.837 1550.053,441.16 1550.598,440.999 C 1551.154,440.836 1551.636,441.166 1552.178,441.215 C 1551.26,442.322 1552.833,443.827 1553.834,444.132 C 1554.594,444.363 1555.379,444.554 1556.179,444.449 C 1557.054,444.335 1557.798,443.35 1557.798,444.599 C 1557.999,442.743 1559.192,445.001 1559.366,445.532 C 1559.596,446.234 1561.513,448.609 1562.265,447.802 C 1563.257,446.736 1564.319,446.971 1565.386,447.825 C 1566.686,448.866 1568.285,449.054 1569.739,449.781 C 1570.557,450.193 1570.698,448.502 1571.822,449.736 C 1572.725,450.728 1574.48,450.704 1575.718,450.828 C 1577.439,451.001 1579.201,449.811 1580.928,449.641 C 1582.404,449.495 1583.214,449.301 1584.626,449.807 C 1586.605,450.516 1588.074,451 1590.111,450.046 C 1592.555,448.901 1594.792,447.596 1596.88,445.915 C 1597.716,445.242 1598.492,446.381 1599.337,446.399 C 1599.854,446.411 1599.812,445.702 1600.417,445.823 C 1600.81,445.901 1601.2,445.99 1601.592,446.07 C 1602.16,446.187 1603.778,446.825 1604.124,446.059 C 1604.548,445.121 1606.59,444.339 1605.957,445.751 C 1606.602,445.63 1607.161,446.043 1607.62,446.427 C 1607.95,446.727 1608.295,447.01 1608.654,447.274 C 1609.233,447.346 1609.366,447.614 1609.05,448.08 C 1609.317,448.886 1610.408,448.101 1610.852,448.76 C 1611.141,449.189 1611.3277,450.46127 1611.755,450.80664 C 1613.1181,451.90827 1614.232,453.008 1613.451,454.133 C 1612.68,455.244 1614.76,456.894 1613.666,457.631 C 1615.42,458.516 1616.317,458.314 1618.153,458.382 C 1619.722,458.44 1621.924,460.524 1622.515,461.879 C 1621.661,461.175 1620.36,460.154 1620,461.879 C 1619.889,462.411 1620.027,462.97 1619.864,463.5 C 1619.652,464.186 1617.836,463.823 1617.264,464.039 C 1617.685,464.537 1618.528,465.821 1618.691,466.446 C 1618.962,467.489 1619.423,468.032 1619.793,468.998 C 1620.336,470.419 1619.841,472.496 1621.655,473.111 C 1621.04,473.692 1620.68,474.857 1620.487,475.653 C 1620.099,477.251 1621.754,477.017 1622.594,477.791 C 1623.44,478.568 1623.271,479.593 1623.539,480.609 C 1623.674,481.117 1624.573,481.342 1624.925,481.655 C 1625.315,482.001 1624.971,482.822 1625.185,483.262 C 1623.508,482.079 1622.815,485.019 1621.853,484.701 C 1620.608,484.289 1621.627,482.649 1620.714,482.038 C 1620.258,481.733 1619.501,481.761 1619.088,482.134 C 1618.343,482.806 1617.248,482.649 1616.369,482.373 C 1614.936,481.923 1613.832,481.45 1612.317,481.472 C 1611.242,481.488 1610.569,481.189 1610.006,482.134 C 1609.325,483.278 1607.964,484.306 1607.498,482.6 C 1607.093,481.113 1605.216,482.902 1604.394,483.168 C 1602.283,483.852 1600.513,483.832 1598.37,483.549 C 1594.521,483.041 1591.196,486.915 1587.3,487.186 C 1585.745,487.294 1582.938,487.678 1581.632,486.69 C 1580.207,485.612 1579.315,484.993 1577.556,485.847 C 1575.677,486.759 1571.589,488.91 1569.972,486.906 C 1569.161,485.901 1567.438,485.552 1567.191,487.134 C 1566.948,488.69 1567.491,489.779 1568.155,491.111 C 1567.449,491.151 1566.7,491.352 1565.995,491.182 C 1565.88,491.798 1566.292,492.449 1566.075,493.054 C 1565.819,493.772 1564.866,493.923 1564.636,494.71 C 1564.095,494.347 1563.55,493.937 1562.906,493.774 C 1563.525,492.967 1562.672,491.918 1562.184,491.314 C 1561.275,490.188 1562.259,489.525 1563.197,488.71 C 1564.161,487.873 1564.786,487.283 1563.847,486.016 C 1563.472,485.51 1562.686,484.885 1562.151,485.578 C 1561.41,486.536 1560.661,486.385 1559.736,487.078 C 1561.269,486.922 1559.696,488.465 1558.559,488.257 C 1557.148,487.999 1555.892,487.169 1554.629,486.536 C 1551.622,485.029 1550.06,489.451 1548.646,491.254 C 1548.431,491.013 1548.214,490.773 1547.996,490.534 C 1547.454,491.103 1547.097,492.115 1546.217,491.782 C 1545.453,491.493 1543.293,492.024 1542.573,492.384 C 1541.265,493.038 1539.732,492.94 1538.456,492.377 C 1536.498,491.512 1535.795,489.341 1533.931,488.429 C 1531.883,487.427 1529.814,486.282 1527.558,485.881 C 1526.371,485.671 1523.947,485.191 1523.947,487.078 C 1523.947,488.161 1524.148,490.13 1523.356,490.995 C 1522.924,491.466 1522.351,490.593 1521.943,490.537 C 1520.899,490.394 1519.822,491.63 1518.79,491.803 C 1517.6,492.003 1515.789,491.235 1514.808,490.606 C 1514.062,490.128 1514.028,488.565 1513.007,488.517 C 1513.801,487.397 1511.951,486.181 1511.717,487.654 C 1510.944,486.98 1508.995,486.727 1508.757,485.565 C 1508.575,486.405 1506.548,487.789 1505.877,488.301 C 1506.114,487.798 1505.947,487.487 1505.377,487.365 C 1505.944,487.243 1506.305,486.791 1506.308,486.213 C 1505.576,486.826 1502.141,487.56 1501.198,487.293 C 1501.947,486.377 1503.344,486.322 1504.423,486.35 C 1505.514,486.378 1505.399,486.667 1505.844,485.823 C 1506.155,485.236 1506.827,484.97 1507.248,484.485 C 1505.92,483.892 1501.358,483.815 1500.268,484.917 C 1498.622,482.984 1501.752,484.005 1501.987,483.506 C 1502.182,483.091 1502.157,482.511 1501.923,482.117 C 1501.372,481.194 1500.76,482.475 1501.06,481.029 C 1499.473,483.058 1499.589,478.876 1498.11,478.941 C 1499.136,478.384 1500.305,477.847 1499.426,476.455 C 1498.792,475.451 1496.984,475.971 1496.548,475.225 C 1496.097,474.453 1495.639,473.372 1494.963,474.723 C 1494.663,475.322 1492.529,473.711 1492.489,473.181 C 1494.635,473.695 1492.778,471.422 1492.856,470.536 C 1492.919,469.803 1494.075,470.338 1494.294,470.698 C 1494.749,471.444 1494.595,472.667 1495.299,473.253 C 1495.144,471.657 1497.629,473.654 1498.32,472.029 C 1496.888,471.852 1496.305,471.157 1495.44,470.085 C 1496.188,469.671 1496.574,468.764 1497.46,468.573 C 1497.067,467.405 1495.857,468.617 1495.969,467.295 C 1496.08,465.981 1495.385,465.812 1494.43,464.973 C 1495.067,464.24 1495.801,463.596 1496.38,462.813 C 1494.328,461.768 1492.391,463.923 1490.328,463.248"
         id="path3458"
         style="fill:#2b0000" />
    </g>
    <path
       class="landxx iq"
       d="M 2.4019999,38.368582 C 26.03545,26.778132 46.79495,15.465007 67.817325,1.0247068 C 74.499825,-3.5656182 81.708375,-9.2462432 85.549825,-15.109543 C 92.9262,-26.368918 87.04545,-41.252493 88.51775,-45.465618 C 88.673875,-62.969868 93.394325,-65.134993 92.3895,-73.545793 C 91.267,-82.947493 77.88825,-99.452368 88.21495,-107.49892 C 94.123375,-112.10267 101.45995,-111.90999 107.55857,-116.99937 C 112.67932,-121.27312 126.45245,-132.46187 122.36682,-136.97892 C 120.499,-139.04374 124.24325,-136.78499 127.044,-137.63549 C 131.67025,-139.03312 133.17887,-143.38267 135.19245,-147.07112 C 137.1692,-150.69124 157.77275,-147.34362 162.289,-145.60842 C 165.86432,-144.23487 169.47212,-142.93779 173.237,-142.16312 C 179.42887,-140.88467 181.2815,-144.89142 186.66607,-145.89017 C 200.24482,-148.40862 190.97607,-130.61592 198.67587,-131.31267 C 204.28587,-131.82017 206.51232,-140.31487 212.68795,-140.08187 C 220.5265,-139.78937 220.24807,-126.46967 223.68795,-121.85967 C 225.31857,-119.67124 227.44637,-120.05579 228.80607,-117.31467 C 230.4637,-113.96687 228.26432,-109.20404 231.08337,-106.44904 C 237.02387,-100.64329 250.08295,-94.923118 244.74982,-84.896418 C 253.56462,-86.868293 257.18482,-78.953743 261.11495,-77.466243 C 268.63025,-74.621418 268.74232,-80.582043 284.94495,-76.296118 C 283.5312,-70.207168 276.45857,-71.618918 273.91795,-66.911418 C 269.6167,-58.959043 281.7695,-53.045793 282.46825,-45.819243 C 283.38387,-36.279668 271.72607,-46.767168 272.062,-37.097668 C 272.20825,-32.742368 267.49525,-33.475793 266.29275,-29.374993 C 264.93307,-24.737993 267.219,-21.284993 268.01545,-17.010918 C 265.06837,-17.027168 262.33825,-17.807168 259.83012,-19.356543 C 259.16962,-15.433918 256.44387,-12.449993 259.53857,-9.2048682 C 262.91137,-5.6677932 265.44275,-4.1570432 263.58087,1.6413818 C 261.80462,7.1725068 256.85057,8.4279568 261.61232,12.734707 C 265.69137,16.418257 269.27587,20.824507 273.86045,23.904832 C 278.44012,26.981707 302.29712,47.426082 288.70337,51.245132 C 294.00357,52.537832 292.65857,58.706882 297.02962,57.690457 C 303.31137,56.229707 306.82982,60.226707 311.86275,63.068582 C 321.10932,68.289507 327.01837,80.151582 339.81637,81.148757 C 345.884,81.621582 357.06775,101.38971 362.42637,106.12513 C 370.53212,113.28813 365.56182,120.68751 363.52495,130.54126 C 362.54995,135.24876 362.79482,148.61408 369.77212,149.11233 C 372.22057,149.29108 376.31607,148.78188 378.2337,151.22501 C 380.70932,154.36138 380.69795,160.68483 380.134,164.51763 C 378.88045,173.03263 383.3242,175.52783 392.84262,182.38658 C 397.64212,185.84533 396.55712,196.57763 403.3595,198.22096 C 399.8437,198.48638 378.88262,195.49826 378.4167,191.66296 C 381.304,198.47763 369.317,193.01063 364.6312,192.80483 C 357.85432,192.51221 349.0915,194.11296 346.02232,200.63376 C 339.36995,214.76701 340.56275,242.92376 317.98857,240.34138 L 261.0142,233.82358 C 241.94432,231.09563 241.2287,221.07201 223.78432,210.10826 C 175.542,174.62563 129.3317,132.10513 75.315125,108.44283 C 55.90545,99.940132 38.6687,100.66326 21.130125,96.794832 C 32.1242,84.881082 18.882625,90.131582 15.5862,85.063257 C 14.76775,83.804507 14.085125,81.295957 14.794825,80.028257 C 17.552125,76.864707 14.821825,73.645957 13.0992,69.030632 C 9.2693249,58.813882 5.6468249,48.769507 2.4019999,38.368582"
       id="iq"
       style="fill:#2b0000" />
    <g
       transform="matrix(5.4171437,0,0,5.4171437,-8587.3355,-2756.2277)"
       class="landxx coastxx ir"
       id="ir"
       style="fill:#2b0000">
      <path
         d="M 1697.328,572.904 C 1697.554,572.789 1697.794,572.741 1698.048,572.759 C 1697.569,572.465 1697.065,572.417 1696.538,572.615 C 1696.802,572.712 1697.064,572.809 1697.328,572.904"
         id="path4560"
         style="fill:#2b0000" />
      <path
         d="M 1703.088,575.496 C 1703.222,574.895 1702.982,574.848 1702.368,575.352 C 1702.608,575.4 1702.848,575.448 1703.088,575.496"
         id="path4562"
         style="fill:#2b0000" />
      <path
         d="M 1716.048,571.68 C 1714.867,572.667 1714.052,574.374 1712.158,574.056 C 1711.989,575.827 1714.672,574.021 1715.283,573.751 C 1715.921,573.47 1716.656,573.69 1717.297,573.388 C 1718.199,572.963 1718.355,571.562 1719.428,571.464 C 1718.224,570.287 1717.285,572.238 1716.048,571.68"
         id="path4564"
         style="fill:#2b0000" />
      <path
         class="landxx ir"
         d="M 1617.268,464.04 C 1619.2613,463.36074 1619.9745,464.83238 1619.9318,461.685 C 1619.9133,460.31952 1621.1097,460.82725 1621.972,461.461 C 1622.8201,462.08434 1623.285,463.077 1624.058,463.78 C 1624.805,464.459 1625.658,465.008 1626.403,465.688 C 1627.929,467.08 1628.593,467.854 1630.788,468.193 C 1632.148,468.403 1634.079,468.549 1635.408,468.155 C 1636.141,467.938 1638.612,465.796 1638.864,465.109 C 1639.155,464.317 1640.247,464.146 1640.847,463.631 C 1641.542,463.034 1642.145,462.323 1642.904,461.8 C 1644.886,460.435 1646.659,462.516 1647.869,463.967 C 1645.225,464.962 1648.807,467.185 1647.331,467.52 C 1644.591,468.142 1647.433,469.752 1648.602,470.48 C 1649.426,470.993 1650.163,471.785 1651.047,472.191 C 1651.404,472.354 1652.482,472.144 1652.592,472.368 C 1653.691,474.601 1653.529,478.281 1656.001,479.577 C 1658.103,480.681 1660.603,480.162 1662.728,481.071 C 1664.109,481.663 1664.573,483.204 1665.689,484.097 C 1666.91,485.075 1668.759,485.765 1670.188,486.401 C 1672.875,487.597 1676.48,488.43 1679.363,487.565 C 1682.828,486.527 1687.178,484.849 1690.849,485.421 C 1690.109,485.699 1689.317,485.614 1688.549,485.709 C 1689.078,486.104 1691.146,486.878 1691.44,485.802 C 1691.697,484.86 1690.2279,482.27069 1689.9449,481.30769 C 1691.6569,481.64637 1692.9529,481.61624 1694.5699,480.93325 C 1696.414,480.15437 1695.1478,479.47687 1695.9798,478.19687 C 1696.8068,476.92487 1698.7449,475.66587 1700.1359,475.14087 C 1702.1599,474.37587 1704.1159,475.54987 1706.1449,475.10787 C 1705.4469,473.96187 1706.9742,473.84914 1707.855,473.774 C 1708.9657,473.67924 1710.2418,474.08601 1711.3255,473.97487 C 1712.8761,473.81587 1712.8893,474.01694 1713.6473,475.42094 C 1714.3693,476.75694 1716.3838,476.72681 1717.7268,476.96981 C 1719.2238,477.23881 1720.262,478.742 1721.839,478.867 C 1723.596,479.006 1724.99,478.715 1726.704,479.354 C 1728.393,479.984 1728.9383,480.667 1729.8593,482.089 C 1730.7973,483.537 1732.9222,483.33187 1734.2462,484.22587 C 1735.4212,485.01887 1735.8061,486.4832 1737.0057,487.21169 C 1738.3643,488.03665 1741.8026,486.45036 1742.8501,487.582 C 1743.7267,488.5289 1743.9159,491.16666 1744.0971,492.18831 C 1744.3027,493.34772 1743.363,492.923 1744.276,493.712 C 1744.84,494.2 1745.365,496.269 1745.452,497.001 C 1745.59,498.154 1744.544,498.946 1744.754,500.176 C 1745.039,501.851 1745.618,505.442 1743.121,505.726 C 1743.345,506.041 1744.204,506.747 1744.131,507.166 C 1744.013,507.836 1742.484,508.04 1742.195,508.911 C 1741.677,510.474 1742.583,514.15 1744.488,514.279 C 1746.933,514.445 1744.7199,516.37499 1744.3475,517.603 C 1743.8043,519.39394 1746.3705,523.40851 1746.8773,525.42091 C 1747.4546,527.7133 1747.2633,529.9375 1748.8345,531.6845 C 1750.0876,533.07772 1752.821,532.348 1754.453,533.165 C 1756.158,534.02 1756.0493,536.652 1755.6163,538.101 C 1755.1713,539.591 1753.8016,540.82494 1753.0497,542.16214 C 1752.4257,543.27203 1750.8501,545.79127 1750.2211,546.23673 C 1751.0135,547.03673 1751.6595,547.65748 1752.0382,547.99514 C 1755.6483,551.21431 1756.8984,555.90408 1759.803,557.497 C 1760.6826,557.97936 1761.5715,558.27473 1762.4835,558.71973 C 1763.3385,559.13773 1764.379,559.88377 1765.348,559.94677 C 1766.697,560.03377 1767.1539,564.69724 1767.2095,565.8939 C 1767.4038,570.08186 1768.1675,568.93749 1770.5717,568.95968 C 1771.7151,568.97023 1771.0649,571.96005 1770.9839,573.14205 C 1770.8199,575.53105 1763.13,573.34 1764.36,576.573 C 1763.637,576.411 1762.3475,576.88371 1761.9556,577.43346 C 1760.635,579.28582 1760.8109,582.36288 1760.6816,584.80946 C 1760.6459,585.48492 1760.875,586.942 1759.68,586.508 C 1760.236,588.393 1756.126,586.709 1755.476,586.507 C 1754.747,586.28 1753.072,586.434 1752.879,585.417 C 1752.611,584.013 1750.979,584.851 1751.691,585.5 C 1751.368,585.561 1747.709,585.452 1747.404,585.207 C 1746.231,584.269 1743.963,584.408 1742.653,584.811 C 1741.548,585.152 1740.748,584.54 1739.895,583.933 C 1738.756,583.123 1737.815,583.616 1736.583,583.284 C 1735.602,583.019 1734.748,583.822 1733.76,583.412 C 1732.852,583.035 1732.63,581.746 1731.6,582.908 C 1731.871,581.502 1728.859,581.904 1728.021,581.12 C 1726.261,579.473 1725.742,575.82 1725.34,573.557 C 1724.836,570.711 1722.268,569.143 1719.473,569.357 C 1718.199,569.455 1717.29,570.52 1716.099,570.865 C 1715.106,571.153 1713.839,571.349 1714.412,572.503 C 1714.779,573.242 1712.196,572.912 1712.022,572.954 C 1710.736,573.265 1710.24,574.602 1709.14,575.15 C 1707.287,576.074 1705.596,573.548 1703.804,573.548 C 1701.601,573.548 1700.367,573.979 1699.003,571.954 C 1698.321,570.943 1696.803,570.616 1695.773,570.046 C 1694.429,569.304 1693.121,568.494 1691.719,567.86 C 1693.071,566.576 1689.767,565.382 1688.999,565.032 C 1688.302,564.713 1687.678,564.092 1686.939,563.914 C 1685.901,563.664 1684.508,564.075 1683.641,563.422 C 1681.724,561.979 1681.257,560.662 1679.989,558.654 C 1679.389,557.705 1679.796,556.405 1678.844,555.638 C 1678.195,555.115 1677.17,554.826 1677.168,553.819 C 1678.352,553.934 1678.18,552.894 1677.3,552.698 C 1676.713,552.567 1675.241,552.682 1675.838,551.634 C 1676.61,550.279 1674.344,548.798 1673.638,548.087 C 1672.448,546.889 1671.582,545.613 1670.979,544.05 C 1669.945,541.373 1667.855,546.058 1666.719,544.457 C 1665.956,543.384 1664.809,544.147 1664.302,543.133 C 1664.059,542.648 1662.577,542.388 1662.118,541.651 C 1662.865,541.602 1663.609,541.894 1664.347,541.651 C 1664.103,540.653 1662.934,540.383 1662.118,540.859 C 1662.306,541.081 1662.499,541.297 1662.698,541.506 C 1660.557,541.226 1664.048,546.133 1660.318,544.603 C 1660.574,545.352 1659.927,545.548 1659.353,545.295 C 1658.547,544.941 1658.512,544.01 1658.226,543.292 C 1657.637,541.81 1655.551,541.688 1655.304,539.854 C 1655.148,538.688 1655.68,536.367 1654.028,536.418 C 1651.429,536.499 1652.239,532.938 1652.591,531.172 C 1653.061,528.825 1651.9,528.394 1650.528,526.745 C 1649.133,525.068 1649.399,524.102 1647.134,523.673 C 1645.406,523.346 1644.267,521.497 1642.898,520.553 C 1642.151,520.038 1641.277,519.39 1640.321,519.47 C 1638.72,519.602 1639.678,518.7 1638.508,518.249 C 1641.071,517.467 1636.026,513.478 1635.21,512.783 C 1634.613,512.274 1634.09,511.667 1633.507,511.14 C 1632.642,510.359 1633.436,510.178 1633.793,509.201 C 1634.119,508.311 1633.942,507.877 1633.213,507.307 C 1632.487,506.74 1633.059,505.9 1633.178,505.216 C 1633.641,505.501 1634.145,505.645 1634.689,505.649 C 1634.57,505.011 1634.256,504.418 1634.188,503.769 C 1634.068,502.646 1635.311,502.828 1635.399,501.996 C 1635.527,500.782 1635.574,501.126 1636.593,501.132 C 1637.552,501.137 1637.442,500.266 1637.12,499.715 C 1636.582,498.789 1635.28,497.902 1635.61,496.672 C 1635.894,495.61 1637.514,495.882 1637.788,494.706 C 1637.093,494.908 1636.592,494.385 1635.913,494.454 C 1635.087,494.538 1634.193,494.936 1633.389,494.49 C 1632.172,493.816 1631.975,492.83 1630.368,493.194 C 1631.468,490.656 1627.357,489.923 1627.523,488.226 C 1627.62,487.237 1627.543,486.887 1626.606,486.493 C 1626.365,486.391 1624.9056,483.19814 1625.0068,482.772 C 1625.3706,481.241 1624.3474,481.85162 1623.597,480.809 C 1622.8541,479.77684 1623.2184,478.05105 1622.378,477.69 C 1621.9375,477.50076 1620.2359,476.96781 1620.3019,476.28281 C 1620.4009,475.25781 1620.881,473.84 1621.658,473.106 C 1619.5033,472.66258 1620.4923,469.81964 1619.5287,468.72694 C 1618.9894,468.11537 1619.1704,467.56884 1618.8262,466.85375 C 1618.6356,466.45778 1617.7786,464.84978 1617.268,464.04"
         id="path4606"
         style="fill:#2b0000" />
    </g>
    <path
       class="landxx sy"
       d="M -122.02975,43.048882 C -118.63269,38.745332 -112.09038,29.790007 -106.04925,28.617632 C -115.26925,20.015332 -102.09475,14.603582 -94.353625,16.916707 C -101.15756,8.6501318 -91.0183,7.6457568 -88.675375,-0.25454324 C -87.376925,-4.6324932 -92.81725,-13.487168 -97.83475,-14.417168 C -103.55631,-15.477668 -92.66175,-23.688118 -101.528,-21.201543 C -116.30288,-17.058293 -117.39113,-26.479043 -118.07538,-34.123618 C -118.69725,-41.070793 -114.20206,-53.760793 -120.44256,-58.874543 C -125.44256,-62.975293 -121.55738,-73.876743 -121.74706,-79.873418 C -121.88788,-84.375168 -113.51944,-77.300493 -111.9105,-76.504043 C -111.78225,-75.909243 -109.86175,-80.501418 -106.30706,-82.650493 C -101.92019,-85.302368 -104.88456,-91.269043 -104.11538,-95.413293 C -100.29631,-94.492368 -96.2388,-95.586543 -92.41425,-95.797793 C -95.4685,-102.06549 -97.464125,-103.69062 -98.340688,-111.23124 C -98.65975,-113.97549 -98.411,-121.72749 -94.564875,-122.68642 C -91.67205,-123.41217 -88.7663,-123.43904 -86.464125,-122.22562 C -80.256,-118.95924 -79.03725,-113.41329 -72.63955,-114.41017 C -64.8335,-115.62892 -59.65675,-116.55424 -52.208175,-119.77187 C -44.57005,-123.07092 -38.974125,-127.65392 -30.3988,-126.42424 C -24.066125,-125.51954 -20.34455,-121.01999 -14.98705,-118.51187 C -8.8873751,-115.65174 3.0563749,-116.84237 9.6652499,-117.41112 C 26.532625,-118.86249 38.58045,-128.49799 53.854,-134.60624 C 69.295125,-140.78142 86.164,-132.11874 102.0092,-138.44374 C 110.09807,-141.67249 121.97182,-154.03217 123.15012,-134.70374 C 123.42482,-130.20217 112.44587,-121.07424 109.28232,-117.94312 C 103.54545,-112.26049 97.14775,-112.66142 90.685125,-108.86937 C 76.817325,-100.72749 91.346075,-83.099993 92.43495,-73.370793 C 93.0795,-67.617793 89.601825,-60.559368 89.184625,-54.611243 C 88.57245,-45.754243 89.1862,-31.426243 89.14075,-22.655918 C 89.033575,-2.1382932 2.6468249,37.106882 -41.195175,67.117332 C -53.1335,75.289382 -72.446625,94.945132 -87.97225,84.078457 C -93.62225,80.129382 -97.691625,77.093132 -103.51944,73.087007 C -113.62944,66.136707 -118.17331,71.339382 -119.84988,71.097832 C -120.20144,69.824832 -116.19663,45.595007 -122.02975,43.048882"
       id="sy"
       style="fill:#2b0000" />
    <g
       transform="matrix(5.4171437,0,0,5.4171437,-8587.3355,-2756.2277)"
       class="landxx coastxx om"
       id="om"
       style="fill:#2b0000">
      <path
         d="M 1741.968,630.145 C 1742.639,629.55 1742.871,628.756 1743.193,627.955 C 1743.376,627.714 1743.59,627.509 1743.839,627.337 C 1744.112,627.016 1743.415,626.015 1743.338,625.68 C 1742.967,627.242 1741.335,628.403 1741.968,630.145"
         id="path4692"
         style="fill:#2b0000" />
      <path
         class="landxx om"
         d="M 1718.639,579.096 C 1718.846,578.517 1719.109,577.966 1719.428,577.441 C 1720.108,578.201 1720.762,577.167 1720.439,576.504 C 1721.023,576.82 1722.196,578.807 1720.729,578.448 C 1721.672,579.103 1720.983,583.117 1719.942,582.932 C 1718.528,582.682 1720.443,579.188 1718.639,579.096"
         id="path4696"
         style="fill:#2b0000" />
      <path
         class="landxx om"
         d="M 1692.715,639.39554 C 1703.2427,636.97556 1709.833,634.43977 1714.601,631.85039 C 1716.551,628.13128 1714.4532,633.98886 1715.386,629.847 C 1716.148,626.46378 1716.6753,623.08694 1717.443,619.863 C 1717.9742,617.63248 1719.219,614.828 1717.929,612.704 C 1717,611.176 1715.116,609.87 1714.53,608.182 C 1713.793,606.06 1717.8,598.757 1715.829,597.601 C 1716.714,596.547 1718.451,597.459 1719.219,596.45 C 1720.062,595.343 1718.706,595.712 1718.429,595.154 C 1717.693,593.668 1717.105,590.405 1718.096,588.898 C 1718.558,588.194 1719.499,589.276 1719.353,589.833 C 1718.894,591.57 1720.648,589.687 1720.926,589.423 C 1721.784,588.605 1721.776,588.743 1722.31,589.897 C 1723.198,591.815 1724.36,593.628 1725.775,595.2 C 1728.012,597.685 1731.142,598.578 1734.328,599.218 C 1735.819,599.517 1737.086,600.104 1738.604,600.274 C 1740.634,600.502 1741.744,602.974 1742.906,604.354 C 1743.844,605.467 1744.481,606.811 1745.416,607.876 C 1746.389,608.985 1746.903,609.031 1748.188,609.544 C 1751.201,610.748 1747.793,615.024 1747.193,616.791 C 1746.059,620.129 1742.483,621.871 1741.514,625.447 C 1741.285,626.291 1740.974,628.732 1739.636,628.33 C 1738.577,628.013 1738.783,625.993 1737.429,626.834 C 1735.814,627.812 1735.902,631.327 1735.486,632.772 C 1734.941,634.661 1735.557,636.125 1736.056,637.955 C 1736.463,639.451 1736.719,640.582 1734.902,640.637 C 1731.982,640.724 1728.77,641.585 1728.051,644.733 C 1727.769,645.97 1727.544,647.33 1726.767,648.375 C 1725.8,649.676 1723.873,649.605 1722.344,649.72 C 1720.492,649.858 1719.75,650.159 1718.663,651.618 C 1717.61,653.03 1718.294,653.299 1718.206,654.912 C 1718.136,656.195 1716.825,657.126 1715.792,657.629 C 1715.294,657.87 1714.793,658.194 1714.284,657.793 C 1713.405,657.1 1712.68,657.289 1711.589,657.289 C 1708.43,657.289 1705.6655,660.35419 1702.4805,660.26419 C 1700.4175,660.20519 1701.344,655.155 1699.129,654.913 C 1700.068,653.933 1697.776,650.487 1697.31,649.624 C 1695.68,646.612 1693.7511,642.61967 1692.6831,639.36367"
         id="path4786"
         style="fill:#2b0000" />
    </g>
    <path
       class="landxx eg"
       d="M -541.31675,196.33251 C -549.03613,183.97596 -533.13675,171.03063 -535.09238,158.35826 C -537.19206,144.75438 -549.58706,135.25546 -530.00038,119.10563 C -529.58863,129.01908 -518.03381,125.47076 -512.04256,123.68858 C -501.09444,120.43283 -492.12363,124.06233 -481.246,125.15658 C -469.34456,126.34846 -457.92519,128.99733 -446.403,132.06888 C -441.533,133.36908 -440.75831,138.66701 -435.81238,140.19471 C -431.41913,141.54888 -428.07675,141.00171 -423.72131,140.54126 C -420.79613,140.22721 -419.44175,144.79921 -416.14288,145.48171 C -412.52956,146.22938 -408.8405,146.24563 -405.19475,146.60858 C -393.47738,147.76783 -385.65506,155.11888 -374.66363,156.95533 C -364.03519,158.73201 -353.87269,151.57608 -346.25081,145.07546 C -342.29631,141.70596 -338.61269,138.04408 -334.9885,134.32251 C -331.88456,136.74388 -329.54425,139.23576 -325.61694,138.61283 C -327.85956,137.48608 -327.37206,136.84138 -330.32987,137.05263 C -326.48912,135.01576 -322.65381,131.31596 -321.71663,126.91171 C -315.0805,130.87721 -308.84006,123.75358 -302.21488,123.80233 C -306.66769,125.85001 -310.94194,128.39608 -314.34381,131.98763 C -313.16831,131.29421 -286.2885,123.16858 -299.12163,122.23671 C -289.62538,119.09483 -283.46069,129.96701 -274.33819,128.67233 C -269.98288,128.05483 -265.87663,123.74813 -261.25581,125.36251 C -256.96006,126.85763 -254.93394,133.08188 -251.12581,135.49796 C -254.98269,132.80013 -258.93194,126.87388 -264.0185,126.53263 C -262.51256,130.57376 -268.08144,138.21733 -261.50506,139.78826 C -254.35444,141.49471 -257.70225,143.26608 -253.076,147.58908 C -253.076,145.99638 -240.3185,140.61171 -249.55475,136.27796 C -239.728,138.56408 -236.46163,147.63233 -224.93381,146.62483 C -221.196,146.29971 -210.16131,139.39826 -212.12238,147.58908 C -204.97706,143.04951 -196.95975,145.69846 -189.28363,143.38533 C -182.523,141.35388 -175.75644,138.70701 -170.33394,133.99951 L -137.40038,220.94096 C -145.72663,231.53138 -143.86631,251.11608 -149.16425,263.66221 C -152.26288,270.99701 -152.13288,275.56908 -152.05163,283.32096 C -151.98113,289.95158 -160.41019,296.36546 -158.3355,302.82813 C -162.36038,299.10658 -167.74506,297.42721 -172.18706,294.31783 C -177.82644,290.36876 -181.77006,284.61563 -185.63256,279.05221 C -190.52413,271.99921 -204.83081,267.39451 -202.75613,256.80408 C -200.66506,246.13233 -210.95769,238.73251 -216.21769,231.21346 C -223.49288,220.82876 -228.68256,208.73233 -231.62944,196.34876 C -236.51569,201.59796 -241.71613,213.04983 -236.61863,219.04108 C -227.90238,229.30658 -228.80706,241.90688 -221.49944,252.51376 C -215.17225,261.70108 -208.75831,272.94721 -200.84925,280.78576 C -197.34975,284.25263 -193.35738,287.23751 -190.16663,291.01326 C -188.49819,292.99063 -181.62381,304.32326 -189.91206,298.14233 C -183.20569,303.37533 -188.75269,310.03826 -184.50038,314.35033 C -178.79069,320.13596 -175.75706,326.26813 -172.76675,333.55951 C -171.29881,337.14576 -168.87725,340.21721 -166.79163,343.44046 C -165.19894,345.90533 -168.36269,349.04721 -168.5035,351.45783 C -168.6985,354.68096 -163.433,359.46438 -161.99756,362.24326 C -158.6985,368.60313 -155.10144,374.81108 -151.76988,381.16001 C -140.83269,402.01596 -129.79256,422.50358 -119.44038,443.67921 C -115.38831,451.96201 -109.43488,457.89388 -104.34819,465.33701 C -99.613625,472.26546 -91.31455,474.41076 -86.92675,481.45846 C -91.0763,481.68046 -95.263625,480.96001 -99.001438,479.11826 C -101.73725,490.43471 -100.41644,507.71263 -94.640675,514.38376 C -89.14175,520.73483 -101.83413,533.48796 -109.57581,533.86388 C -113.41113,534.05013 -114.86788,531.25813 -118.7335,535.57001 C -121.7785,538.96658 -123.38413,544.79033 -124.77081,549.14563 C -126.3635,554.17813 -128.73081,558.62563 -134.28881,559.92033 C -138.78506,560.96576 -146.87613,560.04596 -149.26506,565.20313 C -153.63131,574.64513 -150.96706,585.66408 -164.27706,584.60733 C -179.78363,583.37608 -187.66769,570.80326 -195.83725,571.14533 C -222.75238,572.27251 -238.201,574.72701 -259.30019,571.16626 C -258.6935,569.04826 -256.24488,564.56826 -257.75631,562.39063 C -261.56456,556.88126 -264.48444,566.87046 -265.74663,568.67438 C -270.80081,575.90096 -296.0555,571.55638 -304.14881,571.55638 L -521.31663,571.08658 L -529.05769,277.55721 C -529.87038,263.83546 -529.53444,249.44221 -531.4305,235.85046 C -533.0555,224.16033 -536.05663,206.86876 -541.31675,196.33251"
       id="eg"
       style="fill:#2b0000" />
    <g
       transform="matrix(5.4171437,0,0,5.4171437,-8587.3355,-2756.2277)"
       class="landxx coastxx sa"
       id="sa"
       style="fill:#2b0000">
      <path
         d="M 1619.718,661.32 C 1619.677,660.509 1619.342,659.753 1618.639,659.303 C 1618.623,659.568 1618.596,659.832 1618.559,660.095 C 1617.621,660.132 1617.284,659.141 1616.479,658.871 C 1617.259,660.169 1619.268,660.143 1619.718,661.32"
         id="path3234"
         style="fill:#2b0000" />
      <path
         class="landxx sa"
         d="M 1624.548,662.653 C 1624.645,661.745 1624.091,659.593 1623.274,659.073 C 1622.858,658.808 1620.843,654.574 1620.959,656.617 C 1620.772,652.958 1618.236,652.017 1616.218,649.54 C 1615.454,648.602 1614.376,647.248 1614.018,646.101 C 1613.555,644.621 1612.72,644.199 1611.962,642.996 C 1611.518,642.29 1611.896,641.674 1611.384,640.949 C 1611.019,640.434 1610.409,638.795 1610.168,638.134 C 1609.942,637.515 1609.805,636.861 1609.515,636.266 C 1609.248,635.719 1608.691,635.642 1608.423,635.161 C 1608.167,634.699 1608.418,634.069 1608.064,633.664 C 1607.705,633.255 1607.119,633.198 1606.73,632.836 C 1605.753,631.927 1604.622,631.008 1603.759,629.995 C 1602.712,628.765 1601.485,629.28 1600.304,628.41 C 1598.345,626.964 1597.042,624.279 1595.811,622.223 C 1595.094,621.026 1595.3,620.341 1595.24,619.078 C 1595.174,617.71 1594.184,616.578 1594.082,615.195 C 1593.948,613.38 1594.699,611.575 1594.338,609.767 C 1594.173,608.943 1593.723,608.246 1593.281,607.551 C 1593.049,607.185 1591.642,605.37 1593.23,606.611 C 1592.881,605.699 1592.088,605.689 1591.882,604.69 C 1591.697,603.797 1591.259,602.82 1590.91,601.977 C 1589.944,599.642 1588.059,598.051 1586.292,596.371 C 1585.003,595.147 1583.726,594.954 1582.154,594.524 C 1581.484,594.341 1581.164,593.066 1580.967,592.522 C 1580.545,591.356 1579.729,590.556 1578.998,589.584 C 1581.528,588.662 1578.004,584.509 1577.178,583.504 C 1576.621,582.829 1575.058,581.599 1575.125,580.708 C 1575.242,579.173 1573.265,578.286 1572.6,576.905 C 1570.584,572.715 1567.402,569.234 1565.168,565.123 C 1564.487,563.871 1563.727,561.94 1562.226,561.517 C 1561.544,561.325 1558.862,560.879 1558.809,562.138 C 1557.912,561.318 1559.362,559.163 1559.614,558.302 C 1560.142,556.497 1559.72,554.61929 1560.015,552.797 C 1560.3887,550.48848 1560.0286,551.9254 1560.3535,550.54963 C 1562.0765,551.0622 1566.817,552.33479 1568.536,551.96 C 1571.951,551.21544 1571.897,546.25 1575.106,545.744 C 1576.309,545.554 1579.2619,545.85807 1579.133,544.236 C 1578.8389,540.53658 1580.4483,541.64719 1582.6876,540.89194 C 1579.765,538.09245 1576.9846,535.17277 1574.3111,532.13794 C 1579.5036,531.05316 1582.9504,529.88325 1589.0711,526.61336 C 1591.6638,527.11059 1596.2881,527.39321 1599.1306,528.70914 C 1608.682,533.13084 1616.549,539.891 1624.84,546.2 C 1626.596,547.537 1628.305,548.864 1629.944,550.337 C 1631.811,552.014 1633.1087,551.93027 1635.5687,552.16827 C 1638.4047,552.44227 1641.393,552.843 1644.23,553.105 C 1645.271,553.202 1645.785,552.671 1646.915,552.915 C 1648.442,553.244 1650.026,553.43 1651.581,553.571 C 1653.229,553.719 1653.359,555.635 1653.885,556.848 C 1654.664,558.65 1657.289,557.512 1658.779,557.643 C 1660.32,557.779 1660.521,558.614 1661.025,559.875 C 1661.57,561.24 1664.28,562.979 1663.859,564.51 C 1663.72,564.269 1663.55,564.053 1663.348,563.863 C 1662.887,564.96 1663.993,564.835 1663.859,565.803 C 1663.878,565.818 1668.491,566.245 1666.729,567.6 C 1667.405,567.814 1668.84,571.275 1669.529,569.325 C 1669.069,571.061 1673.235,573.011 1674.199,574.066 C 1673.685,573.912 1673.302,573.6 1673.049,573.132 C 1673.073,575.046 1674.233,575.074 1674.645,576.61 C 1674.886,577.51 1674.79,579.409 1673.48,578.234 C 1673.599,579.255 1673.269,579.458 1674.197,579.646 C 1674.34,579.674 1675.556,582.311 1675.64,582.617 C 1675.37,582.384 1675.107,582.144 1674.849,581.898 C 1675.646,583.067 1677.069,583.724 1677.699,585.018 C 1678.338,586.326 1678.532,587.526 1679.3,588.797 C 1679.89,589.775 1680.743,591.451 1681.965,591.751 C 1682.524,591.888 1684.552,591.358 1684.26,592.461 C 1684.474,591.901 1684.959,591.696 1685.481,592.029 C 1684.798,592.863 1684.1808,595.13714 1686.4878,594.54814 C 1686.3358,594.58714 1687.668,597.18459 1687.796,597.36759 C 1690.4559,600.38582 1694.0439,605.69524 1695.4539,606.26755 C 1704.2175,607.24656 1708.2698,607.72271 1713.0378,608.78434 C 1713.6593,608.63552 1714.2039,608.26213 1714.4029,607.85982 C 1715.467,610.31957 1717.884,611.60687 1718.2902,613.20382 C 1718.6572,614.64673 1718.5549,615.60485 1718.1767,617.08865 C 1716.9105,622.05712 1716.2131,631.00532 1714.378,631.99405 C 1701.8839,638.72558 1686.2472,641.0812 1671.399,643.541 C 1669.473,644.223 1667.6204,645.09378 1665.8625,646.11109 C 1663.2191,647.64081 1660.6488,652.23604 1659.7912,654.97914 C 1659.3949,656.2468 1657.9032,657.63486 1656.5082,657.64086 C 1655.0502,657.64686 1654.7807,655.27666 1653.5925,654.87681 C 1652.2423,654.42243 1651.2454,655.11243 1650.0813,654.96995 C 1648.2762,654.749 1645.8635,655.03267 1644.241,654.19782 C 1642.292,653.19496 1640.8559,653.6552 1638.6969,653.65946 C 1636.8059,653.66318 1634.8091,654.82094 1632.9264,654.797 C 1630.5887,654.76728 1630.247,652.98814 1629.0304,653.308 C 1627.3999,653.73668 1626.9674,655.87719 1626.8766,657.23027 C 1626.787,658.56544 1628.4577,659.34178 1627.0426,660.30627 C 1626.7712,660.49129 1626.4881,662.38272 1624.4535,663.05554 C 1624.4405,662.87654 1624.558,662.828 1624.548,662.653"
         id="path3380"
         style="fill:#2b0000" />
      <path
         d="M 1617.268,657.504 C 1617.799,657.636 1617.918,657.804 1617.628,658.008 C 1617.508,657.84 1617.388,657.672 1617.268,657.504"
         id="path5480"
         style="fill:#2b0000" />
      <path
         d="M 1617.628,658.008 C 1617.847,658.318 1617.893,658.654 1617.768,659.016 C 1617.504,658.943 1617.265,658.823 1617.048,658.657 C 1617.241,658.44 1617.435,658.224 1617.628,658.008"
         id="path5482"
         style="fill:#2b0000" />
      <path
         d="M 1668.889,568.368 C 1669.244,567.829 1669.799,567.973 1670.189,568.368 C 1669.755,568.451 1669.322,568.451 1668.889,568.368"
         id="path5488"
         style="fill:#2b0000" />
    </g>
    <path
       class="landxx il"
       d="M -168.0755,139.77751 C -166.19038,137.19358 -155.93038,124.81533 -160.65413,121.83596 C -152.59881,108.41763 -150.68644,92.832507 -147.76663,77.762007 C -146.86738,73.152007 -146.73738,65.573457 -143.01038,62.252832 C -140.21519,59.766257 -144.46756,54.381707 -141.91613,51.629707 C -139.5705,49.105332 -133.87706,51.656882 -131.16319,51.992632 C -124.74381,52.783582 -125.59425,46.152957 -123.60081,42.268882 C -114.25019,42.748132 -121.24113,78.447007 -120.44738,88.880457 C -121.57319,84.716257 -128.20756,79.217332 -133.22538,77.876882 C -139.22163,76.275007 -141.09163,83.835457 -142.26831,88.481082 C -143.58569,93.683132 -146.43944,112.13826 -138.91506,111.16421 C -123.17288,109.12626 -145.66756,119.80626 -142.603,131.07221 C -140.88956,137.37233 -124.65706,125.30108 -121.27675,125.26326 C -122.06175,130.95876 -121.80506,134.53313 -121.54394,143.60971 C -121.311,151.70908 -124.58769,162.22951 -127.0005,169.32501 C -131.69881,183.14108 -128.24331,206.88158 -137.63113,220.50921 L -168.0755,139.77751"
       id="il"
       style="fill:#2b0000" />
    <g
       transform="matrix(5.4171437,0,0,5.4171437,-8425.3538,-2512.0528)"
       id="lb"
       style="fill:#2b0000">
      <path
         class="landxx lb"
         d="M 1529.1163,473.25355 C 1530.7063,471.39955 1530.6543,468.05455 1532.0043,465.97055 C 1532.6733,464.93855 1531.8893,463.54455 1532.6573,462.54955 C 1533.2563,461.77555 1534.8933,460.91955 1534.3663,459.71755 C 1534.9833,459.84755 1535.9173,460.11055 1536.5083,459.75855 C 1537.8673,458.94855 1536.9073,460.49055 1537.1073,460.95455 C 1537.0813,460.89255 1538.0023,461.23655 1538.0983,461.32955 C 1538.7833,461.98855 1538.3973,461.84255 1538.9153,462.79255 C 1540.0193,464.81355 1536.4923,465.13755 1537.8963,466.84455 C 1536.4673,466.41755 1534.0353,467.41655 1535.7373,469.00455 C 1535.1033,469.15055 1532.9513,471.23855 1532.8563,471.88455 C 1532.7003,471.80155 1532.5803,471.68155 1532.4973,471.52455 C 1532.2603,471.98955 1532.2462,472.54105 1531.9923,473.01555 C 1531.4541,474.02142 1529.8989,472.62259 1529.1163,473.25355"
         id="lb-"
         style="fill:#2b0000" />
    </g>
    <g
       transform="matrix(5.4171437,0,0,5.4171437,-8425.3538,-2512.0528)"
       id="kw"
       style="fill:#2b0000">
      <g
         transform="translate(-29.90172,-45.07447)"
         class="landxx coastxx kw"
         id="kw-"
         style="fill:#2b0000">
        <path
           d="M 1657.008,545.256 C 1657.149,545.569 1655.306,548.614 1657.588,548.388 C 1659.563,548.192 1657.552,545.925 1657.008,545.256"
           id="path5440"
           style="fill:#2b0000" />
        <path
           class="landxx kw"
           d="M 1645.708,552.815 C 1648.9117,551.6484 1647.4237,545.15368 1650.765,544.538 C 1652.0568,544.29996 1653.8993,544.17961 1655.596,545.58 C 1656.0351,545.94243 1657.164,548.288 1656.718,548.856 C 1655.766,547.521 1654.412,549.785 1653.908,550.44 C 1655.37,550.246 1656.997,550.814 1657.358,552.394 C 1657.798,554.315 1659.2662,556.02658 1659.9132,557.96658 C 1658.6748,557.25551 1655.5893,558.45287 1654.375,557.601 C 1653.4273,556.93614 1653.3114,555.49621 1652.936,554.501 C 1652.4342,553.17055 1647.646,553.52796 1645.708,552.815"
           id="path5486"
           style="fill:#2b0000" />
      </g>
      <path
         class="circlexx kw"
         d="M 1623.295,511.16096 C 1631.0176,511.16096 1631.0176,499.13485 1623.295,499.13485 C 1615.5669,499.13485 1615.5669,511.16096 1623.295,511.16096"
         id="kw."
         style="fill:#2b0000" />
    </g>
    <g
       transform="matrix(5.4171437,0,0,5.4171437,-8425.3538,-2512.0528)"
       id="qa"
       style="fill:#2b0000">
      <path
         class="landxx qa"
         d="M 1649.7863,540.78955 C 1649.7423,540.39955 1649.1783,538.00355 1650.2863,539.13355 C 1650.2233,538.74555 1649.9693,536.59155 1650.6563,538.41355 C 1650.7113,536.59755 1651.3583,531.80455 1653.8603,534.44755 C 1654.4873,535.11055 1655.6913,535.57555 1655.6973,536.61555 C 1655.7023,537.34155 1655.3433,537.80155 1655.1783,538.46455 C 1655.0343,539.03855 1655.3853,539.78455 1655.4413,540.35755 C 1655.4963,540.93055 1656.1053,540.94155 1656.2653,541.43755 C 1656.5293,542.24655 1656.3333,542.98055 1656.0063,543.72755 C 1655.4403,545.02055 1655.6263,545.96455 1654.2083,546.38955 C 1653.0303,546.74355 1651.9693,547.68055 1651.1803,545.95055 C 1650.4603,544.37255 1650.1603,542.47355 1649.7863,540.78955"
         id="qa-"
         style="fill:#2b0000" />
    </g>
    <g
       transform="matrix(5.4171437,0,0,5.4171437,-8425.3538,-2512.0528)"
       id="cy"
       style="fill:#2b0000">
      <path
         class="landxx coastxx cy"
         d="M 1507.5863,456.76555 C 1507.4893,456.50155 1507.3933,456.23755 1507.2963,455.97355 C 1508.2793,456.94155 1509.7283,455.09855 1510.8523,455.17455 C 1512.5813,455.29155 1511.2823,453.55455 1512.8873,453.59255 C 1514.6093,453.63455 1516.1403,453.94155 1517.8673,453.47655 C 1519.8083,452.95455 1521.5443,450.93655 1523.5763,450.93255 C 1522.2893,451.74255 1521.1353,453.63755 1519.7043,454.08655 C 1518.1413,454.57655 1519.7063,456.07455 1520.3263,456.76455 C 1519.6583,456.84655 1518.1403,456.71355 1517.6273,457.17555 C 1517.0573,457.68955 1516.8643,458.41855 1516.0823,458.68855 C 1515.3983,458.92355 1512.7053,459.21255 1513.1263,460.43655 C 1510.8693,459.29655 1508.6503,459.63455 1507.5863,456.76555"
         id="cy-"
         style="fill:#2b0000" />
    </g>
  </g>
</svg>
