<?xml version="1.0" standalone="no"?><!DOCTYPE svg PUBLIC "-//W3C//DTD SVG 1.0//EN" "http://www.w3.org/TR/2001/REC-SVG-20010904/DTD/svg10.dtd">
<svg xmlns:xlink="http://www.w3.org/1999/xlink" enable-background="new 0 0 501.377 487.581" width="501.377"
    xml:space="preserve" viewBox="0 0 501.377 487.581" height="487.581" xmlns="http://www.w3.org/2000/svg"
    overflow="visible">                              
    <polygon fill="#FCF5E3" id="vert" stroke-width="0.3729" points="415.368,365.209 417.172,375.042 
        417.172,384.156 417.172,388.473 414.079,392.07 400.421,408.379 386.503,413.655 
        379.674,419.291 370.524,419.291 345.269,434.04 302.746,460.661 297.849,463.42 
        279.294,471.213 251.718,476.011 241.667,479.848 197.855,475.291 179.042,471.214 
        152.755,464.26 139.611,461.381 124.148,454.426 112.036,445.312 93.48,440.517 49.411,408.858 
        49.411,405.021 46.962,402.742 23.381,377.92 19,365.448 19,360.412 19,353.697 12.042,354.177 
        7.79,350.22 3.666,320.601 1.733,313.646 0.187,306.45 0.187,304.532 0.187,274.313 
        0.187,265.44 3.022,252.969 7.403,238.819 9.207,234.502 14.104,221.791 23.639,205.243 
        36.782,189.414 70.286,162.073 75.698,156.557 105.851,134.732 109.974,128.497 139.096,105.953 
        143.735,98.518 154.559,91.563 166.671,79.331 177.109,69.619 188.062,57.507 213.061,33.165 
        221.05,21.532 237.544,6.903 262.284,0.188 300.427,2.106 310.735,3.785 367.689,5.705 
        396.038,14.818 409.182,24.891 427.479,32.326 430.057,38.321 444.488,47.675 456.085,59.186 
        474.899,81.25 481.085,85.088 488.301,104.754 491.909,108.111 494.229,124.899 496.29,130.416 
        499.897,138.81 501.187,152.96 497.836,160.155 498.223,166.15 495.773,170.467 495.773,173.105 
        483.405,188.694 466.137,207.161 458.921,210.279 449.387,220.592 436.5,241.217 
        436.758,245.055 432.892,252.01 419.232,299.496 413.434,314.006 414.207,327.316" stroke="#000000"/>                  
    <g fill="none" id="districts" stroke="#787878">                                                 
        <polyline points="491.909,108.352 458.405,109.791 446.68,121.902 443.457,121.902 
            442.556,122.741 439.206,121.062 436.629,122.981 432.118,120.583 429.412,125.38 
            426.319,125.979 421.295,130.656 420.264,137.011 410.6,142.887 398.873,137.611 
            398.873,134.253 395.651,134.253 391.657,136.412 386.503,135.212 383.539,137.971 
            376.322,140.129 376.322,142.887 381.799,147.983 379.415,150.442 363.566,150.442 
            355.061,155.838 347.974,157.037 346.17,160.515 349.907,171.427 354.546,175.744 
            364.854,174.904 367.432,175.983 365.112,180.78 367.174,182.699 366.272,188.575 
            370.138,188.335 372.78,190.793 376.645,187.555 381.349,191.932 385.472,191.932 
            387.662,188.694 405.058,187.256 407.894,191.093 412.146,191.093 426.578,196.849 
            430.572,191.933 439.206,191.933 441.782,194.331 456.73,190.613 468.586,192.412 
            476.316,196.249"/>                                                 
        <polyline points="415.946,368.986 405.123,368.986 402.224,367.638 381.832,367.638 
            376.902,364.4 367.915,363.68 362.261,358.42 361.247,351.898 363.855,348.392 
            363.855,340.657 358.83,335.081 346.846,332.383 341.58,327.481 338.245,327.481 
            337.762,322.76 333.896,320.69 317.758,320.69 315.341,322.939 312.538,323.299 
            304.71,333.103 302.197,333.103 296.302,327.616 296.302,324.558 289.247,324.558 
            281.226,319.521 273.204,319.341 270.788,310.259 272.237,300.365 263.54,293.35 
            263.54,274.554 268.855,269.337 268.855,258.455 266.825,254.048 279.583,243.256 
            285.574,243.256 288.571,236.331 288.571,231.294 284.802,229.766 283.642,223.38 
            286.831,216.905 293.982,211.239 293.982,202.065 300.265,198.377 302.681,188.305 
            305.387,192.892 311.669,196.129 314.471,190.913 319.303,190.913 319.303,187.585 
            322.686,187.585 321.235,182.099 313.505,179.761 309.639,171.217 314.084,170.678 
            315.631,173.825 321.235,174.635 325.103,182.01 326.696,180.525 334.187,183.268 
            341.338,184.078 346.557,182.549 345.301,175.714 349.907,171.427"/>                                                 
        <polyline points="395.266,14.698 393.848,20.934 389.338,26.689 387.921,40 384.956,40.72 
            384.956,45.396 389.596,53.79 385.729,58.107 384.055,54.87 375.679,55.469 371.812,54.03 
            361.117,56.188 361.117,61.225 363.76,63.684 360.603,66.621 359.829,73.096 355.577,82.57 
            363.953,86.527 363.953,88.806 357.896,89.165 357.252,102.476 353.644,109.071 
            357.896,120.463 354.739,123.401 348.103,126.099 345.913,134.733 350.294,140.249 
            348.232,143.846 335.088,143.247 332.124,144.566 332.124,149.602 321.042,147.803 
            318.466,153.2 321.944,156.078 320.397,159.315 316.79,160.155 312.215,164.412 
            307.383,162.313 309.188,166.63 309.639,171.217"/>                                                 
        <polyline points="194.89,474.572 195.406,468.455 197.21,464.858 193.086,448.55 
            197.726,437.638 196.179,431.521 199.787,423.248 200.174,417.013 205.715,409.817 
            204.555,401.783 205.715,393.029 201.14,388.773 198.241,371.206 193.473,369.047 
            196.824,362.931 191.089,357.595 199.271,349.021 193.473,349.021 192.7,345.303 
            202.236,343.984 226.203,326.956 249.397,319.402 267.181,316.044 273.204,319.341"/>                                                 
        <polyline points="49.152,404.901 66.676,387.873 126.467,369.046 130.075,369.046 
            147.213,361.852 157.908,360.412 192.7,345.303"/>                                                 
        <polyline points="18.741,353.697 21.189,351.659 25.442,350.34 35.364,349.74 45.673,341.586 
            69.898,336.43 76.857,336.07 89.484,333.312 88.969,340.626 86.521,346.862 88.067,352.139 
            92.448,352.139 95.992,348.841 117.06,356.576 126.467,369.046"/>                                                 
        <polyline points="14.489,221.312 34.591,224.909 80.98,236.78 83.782,239.389 83.01,242.716 
            84.894,244.47 84.894,254.408 76.148,273.295 71.509,275.273 74.408,280.13 73.441,293.62 
            66.097,295.599 67.256,301.895 63.391,309.089 77.114,311.067 89.484,333.312"/>                                                 
        <polyline points="76.148,156.377 85.232,167.889 92.77,170.587 97.603,170.587 99.729,174.365 
            114.805,182.999 115.578,193.611 128.142,205.303 135.293,205.303 141.092,206.922 
            141.092,210.339 138.096,213.127 141.286,218.434 146.504,218.434 148.727,220.502 
            155.202,221.312 158.294,228.146 147.471,230.305 135.68,228.506 132.491,231.475 
            125.822,232.823 121.377,242.177 111.906,240.917 109.393,240.917 107.653,245.954 
            101.855,245.954 95.283,242.356 87.165,242.356 83.782,239.389"/>                                                 
        <polyline points="266.825,254.048 257.258,253.509 247.593,257.825 241.602,256.746 
            233.87,259.624 229.231,247.753 229.231,239.838 221.886,231.024 210.482,231.744 
            207.583,223.65 201.398,222.571 195.599,227.967 184.582,231.024 178.396,229.226 
            172.984,230.845 160.614,230.845 158.294,228.146"/>                                                 
        <polyline points="279.583,243.256 277.939,234.622 270.015,231.204 267.694,220.952 
            256.872,219.513 252.329,215.286 246.82,215.286 230.391,208.9 229.424,204.043 
            234.836,194.51 237.542,194.51 234.836,184.078 229.618,181.2 226.815,183.808 
            220.533,181.739 218.214,179.581 212.029,179.581 210.482,175.804 195.986,170.947 
            195.986,167.35 197.918,162.313 194.633,157.277 188.834,156.197 176.464,147.923 
            174.144,136.592 168.539,135.692 161.677,129.307 157.135,117.345 139.159,105.654"/>                                                 
        <polyline points="166.606,79.212 196.952,115.367 210.289,119.684 214.735,123.82 
            215.121,130.656 212.608,132.994 220.437,140.279 224.399,140.279 228.651,146.484 
            234.644,147.923 234.644,154.939 236.77,156.558 235.803,161.594 238.702,167.709 
            241.215,165.371 246.047,166.99 255.132,165.371 264.023,173.645 268.662,186.056 
            271.562,197.029 278.713,199.727 285.671,199.727 289.054,196.579 291.663,201.346 
            294.755,201.346"/>                                                 
        <polyline points="213.575,32.445 225.945,41.979 225.945,52.411 236.576,55.829 236.576,58.527 
            242.955,59.786 243.921,64.283 253.779,71.838 254.166,78.853 260.834,85.417 262.38,85.778 
            268.082,92.882 265.763,101.517 262.283,103.315 264.217,107.812 263.83,118.424 
            267.694,123.281 272.721,127.958 278.133,127.958 280.452,132.634 287.41,134.793 
            291.663,133.354 295.143,138.57 300.941,142.167 304.807,149.003 307.383,162.313"/>                                                 
        <polyline points="321.042,147.803 319.109,143.786 315.631,142.348 315.631,139.11 
            311.378,137.311 312.538,129.217 308.479,128.857 305.193,130.116 305.193,126.519 
            314.953,116.716 314.953,111.949 310.847,108.126 310.847,102.596 307.054,99.066 
            307.706,85.328 323.362,79.572 325.778,77.324 328.58,78.133 334.959,75.435 342.111,75.435 
            343.657,72.197 347.909,72.197 347.909,65.542 334.573,63.384 320.077,56.548 
            318.529,49.533 313.505,46.655 310.798,46.655 306.933,43.058 303.646,43.058 
            302.487,37.662 299.686,35.054 302.294,30.467 300.361,9.961 301.521,4.925 300.361,1.867"/>     </g>                                    
    <g fill="#545454" id="legende">                                                     
        <text font-family="'Myriad-Roman'" font-size="14" transform="matrix(1 0 0 1 213.3535 108.75)">BAITI</text>                              
        <text font-family="'Myriad-Roman'" font-size="14" transform="matrix(1 0 0 1 272.6865 68.75)">EWA</text>                              
        <text font-family="'Myriad-Roman'" font-size="14" transform="matrix(1 0 0 1 318.2373 43.252)">ANETAN</text>                              
        <text font-family="'Myriad-Roman'" font-size="14" transform="matrix(1 0 0 1 378.6865 97.4165)">ANABAR</text>                              
        <text font-family="'Myriad-Roman'" font-size="14" transform="matrix(0.724 0.6898 -0.6898 0.724 180.748 126.7725)">UABOE</text>                              
        <text font-family="'Myriad-Roman'" font-size="14" transform="matrix(1 0 0 1 138.02 184.083)">NIBOK</text>                              
        <text font-family="'Myriad-Roman'" font-size="14" transform="matrix(1 0 0 1 33.355 214.75)">DENIGOMODU</text>                              
        <text font-family="'Myriad-Roman'" font-size="14" transform="matrix(1 0 0 1 152.521 292.4951)">BUADA</text>                              
        <text font-family="'Myriad-Roman'" font-size="14" transform="matrix(1 0 0 1 428.9355 166.3311)">IJUW</text>                              
        <text font-family="'Myriad-Roman'" font-size="14" transform="matrix(1 0 0 1 340.2695 260.999)">ANIBARE</text>                              
        <text font-family="'Myriad-Roman'" font-size="14" transform="matrix(1 0 0 1 248.019 412.9141)">MENENG</text>                              
        <text font-family="'Myriad-Roman'" font-size="14" transform="matrix(1 0 0 1 114.3545 415.7471)">YAREN</text>                              
        <text font-family="'Myriad-Roman'" font-size="14" transform="matrix(1 0 0 1 16.3535 289.0811)">AIWO</text>                              
        <text font-family="'Myriad-Roman'" font-size="14" transform="matrix(1 0 0 1 49.5127 367.5752)">BOE</text>     </g>                                    
    <g id="expand">                                           
        <polygon stroke-width="0.4578" points="379.771,456.601 360.74,456.601 370.478,443.578"
            stroke="#000000"/>                                                 
        <rect x="317.214" width="93.492" y="474.083" height="3.721"/>                                                  
        <rect x="340.587" fill="#FFFFFF" width="22.987" y="474.704" height="2.48"/>                                                  
        <g>                                                              
            <path d=
                "M360.252,466.174v-7.414h0.987l2.211,3.751c0.504,0.869,0.914,1.639,1.233,2.409l0.03-0.011 
                c-0.082-0.99-0.102-1.893-0.102-3.036v-3.113h0.842v7.414h-0.904l-2.2-3.763c-0.483-0.824-0.946-1.672-1.285-2.475 
                l-0.03,0.012c0.051,0.935,0.061,1.826,0.061,3.058v3.168H360.252z"/>                                                              
            <path d=
                "M369.002,466.295c-1.337,0-2.386-1.056-2.386-2.739c0-1.781,1.101-2.826,2.469-2.826 
                c1.429,0,2.395,1.11,2.395,2.728c0,1.979-1.285,2.838-2.467,2.838H369.002z 
                M369.033,465.569c0.863,0,1.511-0.869,1.511-2.08 
                c0-0.901-0.421-2.034-1.49-2.034c-1.059,0-1.521,1.056-1.521,2.067c0,1.166,0.617,2.047,1.49,2.047H369.033z"/>                                                              
            <path d="M372.632,462.511c0-0.627-0.011-1.166-0.041-1.66h0.791l0.041,1.045h0.031 
                c0.227-0.716,0.781-1.166,1.389-1.166c0.092,0,0.164,0.01,0.246,0.032v0.902c-0.104-0.011-0.195-0.022-0.318-0.022 
                c-0.638,0-1.09,0.518-1.214,1.232c-0.021,0.143-0.03,0.297-0.03,0.462v2.838h-0.905L372.632,462.511z"/>                                                              
            <path d=
                "M380.221,458.364v6.435c0,0.474,0.011,1.013,0.041,1.375h-0.812l-0.041-0.924h-0.021 
                c-0.277,0.594-0.873,1.045-1.686,1.045c-1.203,0-2.139-1.089-2.139-2.706c-0.011-1.782,1.027-2.859,2.23-2.859 
                c0.771,0,1.285,0.385,1.502,0.803h0.02v-3.168H380.221z 
                M379.315,463.017c0-0.132-0.01-0.285-0.041-0.418 
                c-0.133-0.605-0.627-1.111-1.305-1.111c-0.937,0-1.492,0.881-1.492,2.047c0,1.089,0.504,1.979,1.471,1.979 
                c0.607,0,1.162-0.44,1.326-1.155c0.031-0.131,0.041-0.264,0.041-0.418V463.017z"/>      </g>                                                 
        <g>                                                              
            <path d="M404.3,466.229h-0.02l-1.131,0.609l-0.17-0.67l1.42-0.76h0.75v6.5h-0.85V466.229z"/>                                                              
            <path d=
                "M408.68,469.289h0.021c0.119-0.17,0.279-0.39,0.42-0.55l1.43-1.67h1.05l-1.87,1.99l2.131,2.85h-1.07 
                l-1.66-2.33l-0.45,0.51v1.82h-0.88v-7.1h0.88V469.289z"/>                                                              
            <path d="M412.668,468.38c0-0.511-0.021-0.91-0.04-1.311h0.77l0.041,0.779h0.029 
                c0.27-0.459,0.721-0.89,1.53-0.89c0.649,0,1.149,0.4,1.36,0.97h0.02c0.15-0.279,0.35-0.479,0.551-0.629 
                c0.289-0.221,0.6-0.341,1.059-0.341c0.65,0,1.601,0.421,1.601,2.101v2.85h-0.86v-2.74c0-0.939-0.35-1.49-1.049-1.49 
                c-0.511,0-0.891,0.371-1.051,0.791c-0.04,0.129-0.07,0.289-0.07,0.439v3h-0.859v-2.9c0-0.779-0.34-1.33-1.01-1.33 
                c-0.541,0-0.951,0.44-1.09,0.881c-0.051,0.129-0.07,0.279-0.07,0.43v2.92h-0.86V468.38z"/>      </g>                                                 
        <g>                                                              
            <path d=
                "M354.36,481.711h-2.48l-0.25,1.649c0.15-0.02,0.29-0.039,0.529-0.039c0.511,0,1,0.109,1.4,0.35 
                c0.51,0.279,0.93,0.85,0.93,1.689c0,1.271-1.01,2.221-2.42,2.221c-0.709,0-1.299-0.2-1.619-0.4l0.22-0.67 
                c0.271,0.16,0.8,0.359,1.399,0.359c0.82,0,1.541-0.539,1.53-1.42c0-0.859-0.569-1.449-1.86-1.449 
                c-0.379,0-0.67,0.029-0.91,0.07l0.421-3.101h3.11V481.711z"/>                                                              
            <path d="M357.68,487.581c-1.271,0-2.14-1.19-2.16-3.34c0-2.19,0.95-3.381,2.271-3.381 
                c1.359,0,2.149,1.221,2.149,3.291c0,2.209-0.829,3.43-2.25,3.43H357.68z 
                M357.72,486.901c0.891,0,1.32-1.051,1.32-2.711 
                c0-1.6-0.4-2.65-1.32-2.65c-0.801,0-1.32,1.021-1.32,2.65c-0.02,1.69,0.5,2.711,1.311,2.711H357.72z"/>                                                              
            <path d="M362.81,487.581c-1.27,0-2.141-1.19-2.16-3.34c0-2.19,0.95-3.381,2.27-3.381 
                c1.361,0,2.15,1.221,2.15,3.291c0,2.209-0.83,3.43-2.25,3.43H362.81z 
                M362.85,486.901c0.89,0,1.319-1.051,1.319-2.711 
                c0-1.6-0.399-2.65-1.319-2.65c-0.8,0-1.319,1.021-1.319,2.65c-0.021,1.69,0.5,2.711,1.309,2.711H362.85z"/>                                                              
            <path d="M368.269,483.94c0-0.51-0.02-0.91-0.039-1.31h0.77l0.04,0.78h0.03 
                c0.27-0.461,0.72-0.891,1.529-0.891c0.65,0,1.15,0.4,1.36,0.971h0.021c0.149-0.28,0.35-0.48,0.549-0.631 
                c0.291-0.22,0.601-0.34,1.061-0.34c0.65,0,1.6,0.42,1.6,2.1v2.851h-0.859v-2.74c0-0.94-0.35-1.489-1.051-1.489 
                c-0.51,0-0.889,0.369-1.049,0.789c-0.041,0.131-0.07,0.291-0.07,0.44v3h-0.86v-2.899c0-0.781-0.34-1.33-1.01-1.33 
                c-0.54,0-0.95,0.439-1.09,0.879c-0.05,0.131-0.07,0.281-0.07,0.431v2.92h-0.86V483.94z"/>      </g>                                                 
        <g>                                                              
            <path d=
                "M328.546,471.909v-0.541l0.689-0.67c1.66-1.58,2.42-2.42,2.42-3.399c0-0.66-0.311-1.271-1.28-1.271 
                c-0.59,0-1.079,0.301-1.38,0.551l-0.279-0.621c0.439-0.369,1.09-0.659,1.84-0.659c1.39,0,1.979,0.96,1.979,1.89 
                c0,1.2-0.87,2.17-2.239,3.49l-0.511,0.48v0.02h2.91v0.73H328.546z"/>                                                              
            <path d=
                "M337.556,466.149h-2.48l-0.25,1.649c0.15-0.021,0.29-0.04,0.529-0.04c0.511,0,1,0.109,1.4,0.35 
                c0.51,0.28,0.93,0.85,0.93,1.69c0,1.271-1.01,2.22-2.42,2.22c-0.709,0-1.3-0.199-1.619-0.4l0.22-0.67 
                c0.271,0.16,0.8,0.36,1.399,0.36c0.82,0,1.541-0.54,1.53-1.42c0-0.86-0.569-1.45-1.86-1.45c-0.379,0-0.67,0.03-0.91,0.07 
                l0.421-3.1h3.11V466.149z"/>                                                              
            <path d="M340.875,472.019c-1.271,0-2.14-1.189-2.16-3.34c0-2.189,0.95-3.38,2.271-3.38 
                c1.359,0,2.149,1.22,2.149,3.29c0,2.21-0.829,3.43-2.25,3.43H340.875z 
                M340.915,471.339c0.891,0,1.32-1.051,1.32-2.71 
                c0-1.601-0.4-2.65-1.32-2.65c-0.801,0-1.32,1.021-1.32,2.65c-0.02,1.69,0.5,2.71,1.311,2.71H340.915z"/>                                                              
            <path d="M346.335,468.379c0-0.511-0.021-0.91-0.041-1.31h0.771l0.04,0.779h0.029 
                c0.271-0.46,0.721-0.891,1.531-0.891c0.649,0,1.149,0.4,1.359,0.971h0.02c0.15-0.279,0.351-0.48,0.551-0.63 
                c0.289-0.22,0.6-0.341,1.06-0.341c0.65,0,1.601,0.421,1.601,2.101v2.851h-0.86v-2.74c0-0.94-0.351-1.49-1.05-1.49 
                c-0.51,0-0.891,0.37-1.051,0.79c-0.039,0.13-0.069,0.29-0.069,0.44v3h-0.86v-2.9c0-0.78-0.34-1.33-1.01-1.33 
                c-0.54,0-0.95,0.439-1.09,0.88c-0.051,0.13-0.07,0.28-0.07,0.431v2.92h-0.859V468.379z"/>      </g>     </g>    </svg>