<?xml version="1.0" encoding="UTF-8" standalone="no"?>
<svg
   xmlns:dc="http://purl.org/dc/elements/1.1/"
   xmlns:cc="http://creativecommons.org/ns#"
   xmlns:rdf="http://www.w3.org/1999/02/22-rdf-syntax-ns#"
   xmlns:svg="http://www.w3.org/2000/svg"
   xmlns="http://www.w3.org/2000/svg"
   xmlns:sodipodi="http://sodipodi.sourceforge.net/DTD/sodipodi-0.dtd"
   xmlns:inkscape="http://www.inkscape.org/namespaces/inkscape"
   version="1.1"
   x="0px"
   y="0px"
   width="1000px"
   height="800px"
   viewBox="0 0 1000 800"
   id="svg82"
   sodipodi:docname="PAK_AU_T1_v2.svg"
   inkscape:version="0.92.4 (5da689c313, 2019-01-14)">
  <metadata
     id="metadata88">
    <rdf:RDF>
      <cc:Work
         rdf:about="">
        <dc:format>image/svg+xml</dc:format>
        <dc:type
           rdf:resource="http://purl.org/dc/dcmitype/StillImage" />
        <dc:title></dc:title>
      </cc:Work>
    </rdf:RDF>
  </metadata>
  <defs
     id="defs86" />
  <sodipodi:namedview
     pagecolor="#ffffff"
     bordercolor="#666666"
     borderopacity="1"
     objecttolerance="10"
     gridtolerance="10"
     guidetolerance="10"
     inkscape:pageopacity="0"
     inkscape:pageshadow="2"
     inkscape:window-width="1366"
     inkscape:window-height="705"
     id="namedview84"
     showgrid="false"
     inkscape:zoom="0.8032733"
     inkscape:cx="560.63954"
     inkscape:cy="518.70449"
     inkscape:window-x="-4"
     inkscape:window-y="-4"
     inkscape:window-maximized="1"
     inkscape:current-layer="svg82" />
  <rect
     id="Outer_Areas"
     width="1000"
     height="800"
     fill="#f6e1b9" />
  <g
     fill="#ffffd0"
     stroke="#a08070"
     id="g9">
    <path
       id="Sindh"
       d="m 520.9,742.9 -1.5,-9.7 4.8,-5.2 -7,-13.2 -3.5,-13.2 -10.5,-14 0.3,-15.8 -3,-2.7 -10.1,2.1 -6.7,-1.8 -3.3,-4.8 -5.4,-7.9 -1.1,-7.2 4.6,-10.8 -0.2,-17.5 -5.1,-2.8 -9.3,1 -19.5,-10.5 1.1,-14.4 3.7,-9.4 11.9,-12.3 10,-10.3 4.2,-11.3 4.9,-6.7 -9,-4.2 -6.5,-8.9 -3.1,-12.3 -5.8,-8.4 -11.8,-3.1 -4.8,2.2 -17.5,0.6 -28.2,1 -5.9,7.1 -16.3,10.7 -5.3,7.6 -13,5.7 -13.8,3 -7.9,16.8 -4.8,14.6 0.7,36.7 4,13.4 11.4,19.9 -0.3,14.8 -3.6,10.9 -10.4,13.6 -1.7,9.1 -5.3,5.4 -0.2,3.6 -4,4.7 -3.4,0.3 -8.5,7.3 -2.5,3.8 10.2,-1.7 4.9,2.9 -0.1,-2.1 6,4.3 0.1,-1.8 5.3,2.5 2.5,-1.2 1.1,2.1 -3,1.5 -2.5,4 0.5,2 2.8,-0.2 2,1.6 -3,1.6 1.9,1.9 1.4,6.3 1.4,-1.3 -0.4,4.5 4.1,0.9 -3.6,1.7 2.5,12.8 9.9,2 0.1,6.7 -1.9,3.7 5.7,1.6 1.6,-4.7 1.5,7.8 3.3,-0.2 -1.1,-2.6 5.9,1.8 1,-5.8 8.3,8.3 -0.7,-9.8 2.8,1.2 1.7,6.3 -2.5,4.8 2.3,1.4 0.5,-1.9 2.2,2.5 0.4,-12.1 1.9,7.2 2.3,-7.2 6.4,-4.8 19,1.1 0.7,-18.2 3.1,-1.7 1.5,6.1 3.4,-5.4 3.5,4.1 4.9,-2.5 5.4,1.9 5.5,-2.4 6.6,0.4 7.4,-0.9 6.7,6.4 15,0.3 4.3,-6.6 13,-4 10.2,-3.8 1,1.7 -1.6,1.9 0.6,6 5,1.7 6.6,0.1 4.9,-2.5 -1.9,-1.9 5.7,-3.7 1.7,0.6 5.5,-3.3 z" />
    <path
       id="Balochistan"
       d="m 481.6,361.1 -1.2,-2.5 2,-12.4 -0.7,-8.5 -8.3,4 -2.8,4.9 -1.3,-8.4 -4.3,-2.6 1.2,-21.9 -3.8,2.6 -1.5,-1.6 1.9,-4.1 -3.6,-2.3 1.5,-4.8 -8.4,2.3 -5.3,5.8 -10.9,-0.5 -6.3,5.3 -3.9,8.4 -5,4.4 -3.6,-1.1 -2.6,2.5 -4.6,-0.5 -4.4,-4.9 -0.7,-4.3 -3.1,-0.3 -3.5,-3 -6.9,3.7 -7.3,0.4 -5.9,-4.5 -5.2,7.8 -10,6 -7.5,4.6 -8,-0.8 3,7.4 7.7,-0.8 0.9,4 -21,8 -3.4,-0.3 -12.1,-1.1 -2,-5.4 -14.3,6.4 -2.4,7.9 -6,5.6 -8.6,2.1 -5.5,21.4 3.7,8.5 -5.6,21.1 5.9,4.8 -5.3,6.6 -59.4,18.4 -21.7,-2.6 -18.3,3.3 -8.1,8.5 -25.7,-6.5 -56.7,5.8 -78.9,-27.2 24.1,30.3 6.4,18.9 15.8,21.1 15.6,8.9 13.2,2.9 10.6,10.3 10,-1.2 -1,14.9 4,26.9 -3.4,18.1 8,2.4 12,-2.8 6.7,5.9 -3.1,3.2 1.3,12 -4.5,1.8 -1.1,11.3 -18.3,-0.3 -26.5,7.5 1,9.9 -7.1,-2.1 -1.4,3.8 -14.1,5.2 -3.6,24.6 -4,0.2 1.4,7.3 -5.1,27 8.3,0.7 -2.3,8.5 5.4,0.5 0.8,-3.1 12.4,-1 -1.9,-2.7 1.8,-3 5.9,-1 4.3,2.1 -1.2,4.8 5.3,0 -2.6,-2.8 7.3,-3.6 -0.9,-1.5 13.5,-1.2 13.5,2.6 5,-2.2 20.1,3.5 0.7,-1.2 -2.6,-4.1 5,-4.4 8.8,-1.4 9.1,2.9 7.1,-0.4 -1.8,-4.2 -1.3,1.5 -1.6,-1.6 3.1,-2 5.7,0.2 -0.9,1.5 -2.7,1.2 2,4.3 6.7,0.7 8.9,4.8 5.4,-2.3 4.5,3.6 -1.5,2 2.2,0.6 3,-0.9 -2.3,-2.3 1.2,-3.7 5.2,-2.3 14.7,0.8 4.3,0.9 3.5,-4.6 2.9,0.5 2.6,-1.5 2,1.6 3.4,-1.1 10.6,2.2 9.5,-4.3 22.2,-2.9 9.5,4 0.9,-0.4 -2.4,-3 1.4,-1.3 -2.1,-0.7 -1.2,0.7 -4.2,-4.1 -3.8,0.5 -2.5,3.1 -3.9,-1 1.2,-3.2 5.6,-2.6 2.2,0.7 3.1,-1.5 6.8,6.6 0.8,-0.8 2.8,7.9 -1.7,0.2 1.2,2.7 7.8,7.8 -2.5,17.2 1.2,0.4 8.5,-7.3 3.4,-0.3 4,-4.7 0.2,-3.6 5.3,-5.4 1.7,-9.1 10.4,-13.6 3.6,-10.9 0.3,-14.8 -11.4,-19.9 -4,-13.4 -0.7,-36.7 4.8,-14.6 7.9,-16.8 13.8,-3 13,-5.7 5.3,-7.6 16.3,-10.7 5.9,-7.1 33.2,-1.2 12.5,-0.4 -2.5,-6 5.6,-3.2 4.3,-10.1 -1.9,-5.4 10.5,-10.9 2.3,-12 -2.7,1.5 -2.4,-3.3 1.1,-3.5 -5.3,-1.7 2.1,-13.4 6.7,-2.7 7.8,-11.4 4.1,-11.9 3.8,-7.6 -4.8,1.9 -1.8,-3.5 2.1,-8.7 5.3,-10.4 -0.5,-4.6 6,-6.6 3.1,-0.4 -1.1,-3.1 z" />
    <path
       id="Punjab"
       d="m 735.5,287.9 -6.2,-4.6 -3,0.2 -3.9,-4.1 -3.9,2.6 -3.7,-1.4 -4,-1.4 -6,0.6 -3.2,-6.2 0.8,-7.2 2.4,-7 -8.3,5.7 -4.2,-4.6 -6.4,0.2 -15.4,-7.5 -4.5,-5 -5.8,1.5 -8.8,-4.9 1.6,-3.6 -1.3,-3.5 -3.3,-8.9 3.1,-8.9 -3.1,-5.6 1.5,-4.3 -4.3,-18 -6.6,3 -2.3,4.7 -8.3,4.6 5.3,3.9 1.4,-0.1 1.6,2.1 -3.9,3.9 -0.8,4.5 -5.6,3.6 -3,-2.4 1.9,-1.5 -3.4,-5.1 -9,4.4 -3.2,-6.9 5.9,-1.8 -5.4,-2.1 2.6,-2.4 -1.3,-4.5 -4.3,-2.9 -3.5,3.7 -3.6,-1.3 1.3,-2.7 -8.6,-4.7 -10.2,4.7 0,9.4 -10.5,1.1 -3.9,12.6 -4.6,7 -7,3.2 -1.2,4.7 2.8,5.2 -2.1,6.4 -5.4,-2.3 -2.4,-6.3 -9.2,-1.1 3.1,9.2 -1.1,3.7 -7.6,0.8 -6.4,4 -1.8,9.8 3.2,9.5 3.8,0 -0.1,5.3 4.8,-1.8 -0.3,9.4 -5,1.9 -5.5,10.9 -4.9,15.3 -7.9,11.6 -2.2,8.3 3,0.5 -2.2,7.4 -3.8,7.2 -3.6,-3 -6.8,-0.8 -8.3,6.9 -6.7,3.2 0.3,5 -1.5,0.2 -0.6,11.7 1.1,3.1 -3.1,0.4 -6,6.6 0.5,4.6 -5.3,10.4 -2.1,8.7 1.8,3.5 4.8,-1.9 -3.8,7.6 -4.1,11.9 -7.8,11.4 -6.7,2.7 -2.1,13.4 5.3,1.7 -1.1,3.5 2.4,3.3 2.7,-1.5 -2.3,12 -10.5,10.9 1.9,5.4 -4.3,10.1 -5.6,3.2 2.5,6 4.8,-2.2 11.8,3.1 5.8,8.4 3.1,12.3 6.5,8.9 9,4.2 8,-7.2 9.8,-0.6 5.5,6 1.6,6.6 2.7,4.8 6.4,0.6 17.9,-8.2 25.1,-3.5 7.7,-3.1 1.1,-8.7 13.1,-14 5.9,-17.6 4.7,-6.4 10.4,-5.8 17.3,-9.8 15.4,-27.6 6.9,-23.7 20.4,-7.6 8.1,-6.9 -1.1,-6.6 -3.4,-3.2 2.8,-5.6 5.4,-4.4 1.9,0.8 1.1,-5 6.6,-6.4 6.7,-9.6 9.1,-6.1 0.3,-4.1 4.3,2.4 2.4,-2.5 -1.2,-2.4 -5.9,-1.5 0.2,-9.3 4.5,-9.8 -6.2,-17 9.7,-11.4 4.6,0.7 6.5,-6.5 3.3,1.8 10.7,-5.2 1.1,2 7.4,-10.2 z" />
    <g
       id="g927">
      <path
         d="M 652,25.699219 637.69922,27 l -10.59961,-0.800781 -5.90039,2 -2.89844,-0.798828 L 616.09961,29 601.80078,28.800781 594.69922,32.900391 582,34.300781 l -2.30078,3.5 0.90039,1.59961 -5.59961,1 -0.30078,2.90039 -8,2.09961 -1.39844,3.199218 H 561.5 l -0.69922,3.59961 L 563,53 562.09961,55.599609 552.30078,49.900391 548,56 l -0.0996,2.900391 -15.70117,11.699218 -2.19922,5 8.69922,4.701172 4.60156,6.798828 0.59961,4.201172 3.29883,2.398438 -2.29883,5.40039 5.59961,3.099611 -0.90039,4.30078 2.70117,2.59961 -4.70117,9 6,5.80078 -6.90039,6.09961 0.90039,4 -2.69922,3.19922 -9.40039,5.10156 -4.69922,7.39844 -5.20117,2.10156 -1.40039,6.89844 -4.09961,1.40039 0.0996,6.09961 3.60156,3.70117 4.59961,1.90039 L 526,178 l 0.19922,5.30078 -3,6.39844 -14.89844,5.60156 -18.80078,0.0996 -7.69922,-1.20117 -11.30078,-4.29883 -5.69922,1.19922 -1.90039,5 7.29883,11.90039 5.90039,0.69922 3.30078,4.70117 -0.80078,6.59961 5.70117,5.40039 1.89844,5.19922 -8.5,6.90039 -4.39844,0.40039 L 471,242 l -7.30078,2.69922 -4.5,-1.79883 -3.19922,1.90039 -7.09961,-0.20117 -3.59961,3.90039 -0.80078,5 2.09961,4.30078 -3.5,1.19922 -3.59961,4.90039 2.90039,5.69922 -3.20117,5.5 -5,2 -2.39844,5.09961 2.39844,5.5 -0.39844,13.80078 2.29883,9.59961 10.90039,0.5 5.30078,-5.79883 8.39844,-2.30078 -1.5,4.80078 3.60156,2.29883 -1.90039,4.09961 1.5,1.60156 3.79883,-2.60156 -1.19922,21.90039 4.30078,2.59961 1.29883,8.40039 2.80078,-4.90039 8.29883,-4 0.70117,8.5 -2,12.40039 1.19922,2.5 1.5,-0.19922 -0.29883,-5 6.69922,-3.20117 8.30078,-6.89844 6.79883,0.79883 3.59961,3 L 512,342.40039 514.19922,335 l -3,-0.5 2.20117,-8.30078 7.90039,-11.59961 4.89844,-15.29883 5.5,-10.90039 5,-1.90039 0.30078,-9.40039 -4.80078,1.80078 0.10156,-5.30078 H 528.5 l -3.19922,-9.5 1.79883,-9.79883 6.40039,-4 7.59961,-0.80078 1.09961,-3.69922 -3.09961,-9.20117 9.20117,1.09961 2.39844,6.30078 5.40039,2.30078 2.09961,-6.40039 -2.79883,-5.20117 1.19922,-4.69922 7,-3.19922 4.59961,-7 3.90039,-12.60156 10.5,-1.09961 v -9.40039 L 592.80078,192 l 8.59961,4.69922 -1.30078,2.70117 3.59961,1.29883 3.5,-3.69922 4.30078,2.90039 1.30078,4.5 -2.60156,2.40039 5.40039,2.09961 12.80078,-4.59961 8.29883,-4.60156 L 639,195 l 6.59961,-3 -5.69922,-22.30078 1.79883,-5.39844 1.5,-4.5 8.30078,0.5 4.5,-11.70117 12.69922,-5.5 5.70117,-9.29883 L 673,131.69922 676.30078,128 665.69922,123.30078 656.40039,122.5 l -1.5,-5.59961 0.69922,-5.70117 4.70117,-5 -26.5,-6.500001 -8,-7 0.29883,-5.798828 -2.40039,-1.5 -4.89844,1.798828 -7.60156,-1.298828 -7.69922,2.199218 -7.90039,-4.699218 2.59961,-6.201172 L 596,73.5 l 1.30078,-8.699219 15.39844,-9.201172 1.40039,-4.298828 3.70117,-0.701172 5.79883,-7.798828 -1.29883,-3.90039 L 638.5,34.599609 649.19922,37 h 13.10156 l 0.29883,-4.5 -6.40039,-2.699219 z"
         id="Khyber_Pakhtunkhwah"
         inkscape:connector-curvature="0"
         sodipodi:nodetypes="ccccccccccccccccccccccccccccccccccccccccccccccccccccccccccccccccccccccccccccccccccccccccccccccccccccccccccccccccccccccccccccccccccccccccccccccccccccccccccccccccccccccccccccccccccc" />
    </g>
    <path
       id="Islamabad"
       d="m 609.7,210.7 3.2,6.9 9,-4.4 3.4,5.1 -1.9,1.5 3,2.4 5.6,-3.6 0.8,-4.5 3.9,-3.9 -1.6,-2.1 -1.4,0.1 -5.3,-3.9 z" />
  </g>
  <g
     fill="#d0c0a0"
     fill-opacity="0.5"
     stroke="#a08070"
     id="g13">
    <path
       id="Gilgit_Baltistan"
       d="m 818.7,115.6 -11,-12.8 -0.1,-6.7 -4.4,-4.6 -4,-2 -0.4,-6.9 -1.6,-0.7 -8.5,2.9 -2.4,1.9 -8.1,0 -0.8,-5.6 -3.4,-4.8 -4.5,-0.2 -2.8,-2.9 -0.4,-3.8 4.1,-1.8 -0.9,-2.9 2.6,-0.3 -3.5,-6.7 1.3,-6 -4,-6.7 -0.6,-3.5 -9.4,-7.3 -9.2,-1.1 -0.7,2.5 -3.9,0.1 -3.2,-10.9 0.7,-1.8 -11.9,-2.7 -0.9,-1.8 -5.9,0.4 -5.4,4.5 -3.6,-3.2 -1.1,-4.2 -3.9,2.4 -3.3,-4.2 -3.6,0.7 -2,2.8 -0.4,4 -2.3,-2 -4.9,0.2 -8.3,5.4 -5.1,-0.5 -1.2,3.6 -3.7,1.1 -4.5,-0.5 -6,-3.5 -9.6,0.2 4.2,4.1 6.4,2.7 -0.3,4.5 -13.1,0 -10.7,-2.4 -16.2,4.3 1.3,3.9 -5.8,7.8 -3.7,0.7 -1.4,4.3 -15.4,9.2 -1.3,8.7 2.2,3.7 -2.6,6.2 7.9,4.7 7.7,-2.2 7.6,1.3 4.9,-1.7 2.4,1.4 -0.3,5.8 8,7 26.5,6.5 -4.7,5 -0.7,5.7 1.5,5.6 9.3,0.8 10.6,4.7 5.3,2.8 12.3,-4.2 4.6,4.9 2,8 16.9,7.6 3.5,-3.2 2.8,1.3 2.8,-4.3 5.1,4.9 1.3,5.7 -2.2,3.4 8.5,5.7 17.7,1.9 15,-9.1 4.5,1.8 16.7,-8.7 4.4,2.1 6.3,-0.3 3.4,-9.6 12.1,-0.5 0.8,-5.5 7.2,-1.2 z" />
    <path
       id="Azad_Kashmir"
       d="m 726.5,140.9 -2.8,4.3 -2.8,-1.3 -3.5,3.2 -16.9,-7.6 -2,-8 -4.6,-4.9 -12.3,4.2 -5.3,-2.8 -3.3,3.7 1.4,2.1 -5.7,9.3 -12.7,5.5 -4.5,11.7 -8.3,-0.5 -1.5,4.5 -1.8,5.4 5.7,22.3 4.3,18 -1.5,4.3 3.1,5.6 -3.1,8.9 3.3,8.9 1.3,3.5 -1.6,3.6 8.8,4.9 5.8,-1.5 4.5,5 15.4,7.5 6.4,-0.2 -1.9,-5 -5.1,-1.2 1.4,-5.7 -7,-1.4 -9.7,-11.2 7.9,-6.2 0.8,-7 -4.9,-6.1 -3,0 -3.6,-8.4 5.6,-5.8 5.1,-1.1 4.6,-4.9 -2.3,-6.5 -16.6,-0.7 4.9,-10.6 -4.1,-7.2 -2.9,1.2 -3.4,-0.6 0.2,-3.8 6,-4.6 -0.1,-2.9 2.6,-1.6 0.6,-7 9.5,0 7.9,-6 13.6,1.7 4.6,4 11.6,1 5.8,2.4 10.3,-0.4 2.2,-3.4 -1.3,-5.7 z" />
  </g>
  <g
     id="g19"
     stroke="#a08070"
     fill-opacity="0.5"
     fill="#a08070">
    <path
       id="Shaksgam_Valley"
       d="m 769.9,51.7 -1.3,6 3.5,6.7 -2.6,0.3 0.9,2.9 -4.1,1.8 0.4,3.8 2.8,2.9 4.5,0.2 3.4,4.8 0.8,5.6 8.1,0 2.4,-1.9 8.5,-2.9 1.6,0.7 0.4,6.9 4,2 4.4,4.6 4.4,-0.1 6.1,4 4.1,0.2 6.5,4 7.4,0.3 3.4,3.2 5,-5.2 -2.8,-5.9 -5.5,-2.2 -7.8,-0.5 -8.7,-6.2 -7.8,-2.2 -4.3,-2.8 0.8,-9.8 -6.7,-5.5 -7.1,-0.7 z" />
    <path
       id="Ladakh"
       d="m 928.7,238.7 0.1,3.6 -1.9,3.1 0.6,3.5 4.9,1.7 1,5.3 -1.5,3.5 2.1,2.8 -1.2,6.6 1.1,-0.2 -1.6,8.5 2,2 8.3,-6 3.3,-0.3 1.7,-4.1 -1.2,-4.5 -3.5,-3.4 -0.6,-3.7 -5.3,-6.2 3,-11.2 z" />
    <path
       id="Aksai_Chin"
       d="m 861.5,105.7 2.3,4.3 3.7,-2.9 5.9,-0.7 1.4,1.6 -4.4,2.8 -1.3,4 3.2,9.2 3.4,3.2 -2.1,2.7 8.2,22.2 7.8,3.1 1.6,2.3 5.9,-0.7 22,18.1 -4.2,6.9 -10.2,6.2 3.2,3.1 -2.6,3 0,4.4 3.3,6.9 -3.8,5.8 5.8,10.7 5.9,5.4 0.3,-6.6 -2.4,-5.1 9.3,-2.3 -9,-18.3 0.4,-3.3 4.4,-1 6,2 6.8,-1.5 6,0.9 6.6,-7.9 3.6,-10.1 -2.9,-8.7 8.4,2.4 2.5,-1.3 0.1,-5.1 6.9,-6.1 8.9,-1.9 6.3,-12.9 0.3,-9.5 4.1,-8.7 0.4,-7.1 2.7,-4.8 -1.1,-4.3 -5.8,-3.4 -3.8,7.1 -4.3,1.3 -5.4,-10.6 -3.7,0.8 -3.5,-4.1 -5.1,-1.2 -2.3,-6.8 -5.3,-5.3 -3.8,0.4 -1.5,-6.1 -6.4,-0.2 -2.8,3.1 -22.1,-0.7 -31.3,17.4 -1.8,5.1 -6.8,-1.9 -2.4,1.7 -0.3,3 z" />
    <path
       id="Jammu_Kashmir"
       d="m 667.4,152.2 -0.6,7 -2.6,1.6 0.1,2.9 -6,4.6 -0.2,3.8 3.4,0.6 2.9,-1.2 4.1,7.2 -4.9,10.6 16.6,0.7 2.3,6.5 -4.6,4.9 -5.1,1.1 -5.6,5.8 3.6,8.4 3,0 4.9,6.1 -0.8,7 -7.9,6.2 9.7,11.2 7,1.4 -1.4,5.7 5.1,1.2 1.9,5 4.2,4.6 8.3,-5.7 -2.4,7 -0.8,7.2 3.2,6.2 6,-0.6 4,1.4 3.7,1.4 3.9,-2.6 3.9,4.1 3,-0.2 6.2,4.6 8.5,0 -0.7,3.7 1.4,0.6 4.3,-5.5 9.7,-5.3 6.5,-7.7 -0.6,-11.5 -5.5,-7.5 4.3,-0.9 4.2,2.6 7.8,-7 8.1,-3.4 0.9,-3.2 6.2,-3.2 15.5,0.6 2.2,-1.6 12.6,13.2 17.4,7.6 17.4,-9.3 9.9,13.1 -0.1,4.5 6,6.4 3.5,-3.9 5.8,-0.6 7.5,-5.2 0.1,6.5 -4.5,9.6 1.8,1.2 4.2,-4.4 6.3,-5.1 4.8,-0.1 5.7,-4.9 1.5,11.8 10.1,8.5 4.5,-2.4 1.4,1 1.1,-4.8 7,-4.2 1.6,-8.5 -1.1,0.2 1.2,-6.6 -2.1,-2.8 1.5,-3.5 -1,-5.3 -4.9,-1.7 -0.6,-3.5 1.9,-3.1 -0.1,-3.6 -5.5,-2.1 -0.1,-3.2 -6.6,-6.1 -5.9,-5.4 -5.8,-10.7 3.8,-5.8 -3.3,-6.9 0,-4.4 2.6,-3 -3.2,-3.1 10.2,-6.2 4.2,-6.9 -22,-18.1 -5.9,0.7 -1.6,-2.3 -7.8,-3.1 -8.2,-22.2 2.1,-2.7 -3.4,-3.2 -3.2,-9.2 1.3,-4 4.4,-2.8 -1.4,-1.6 -5.9,0.7 -3.7,2.9 -2.3,-4.3 -34.2,25.8 -7.2,1.2 -0.8,5.5 -12.1,0.5 -3.4,9.6 -6.3,0.3 -4.4,-2.1 -16.7,8.7 -4.5,-1.8 -15,9.1 -17.7,-1.9 -8.5,-5.7 -10.3,0.4 -5.8,-2.4 -11.6,-1 -4.6,-4 -13.6,-1.7 -7.9,6 z" />
  </g>
  <path
     id="Siachin"
     fill="#a08070"
     stroke="#a08070"
     d="m 807.6,96.1 0.1,6.7 11,12.8 8.6,15.9 34.2,-25.8 -22,2 -3.4,-3.2 -7.4,-0.3 -6.5,-4 -4.1,-0.2 -6.1,-4 z" />
  <path
     id="Sea"
     fill="#c6ecff"
     stroke="#0978ab"
     d="m 0,694.2 28.1,5.8 2.6,3.2 11,2.4 3.6,-6 1.6,-0.8 -0.6,-1.3 0.6,-1.9 1.6,1.4 -0.2,1.3 2.4,0.4 8.3,0.7 -2.3,8.5 5.4,0.5 0.8,-3.1 12.4,-1 -1.9,-2.7 1.8,-3 5.9,-1 4.3,2.1 -1.2,4.8 5.3,0 -2.6,-2.8 7.3,-3.6 -0.9,-1.5 13.5,-1.2 13.5,2.6 5,-2.2 20.1,3.5 0.7,-1.2 -2.6,-4.1 5,-4.4 8.8,-1.4 9.1,2.9 7.1,-0.4 -1.8,-4.2 -1.3,1.5 -1.6,-1.6 3.1,-2 5.7,0.2 -0.9,1.5 -2.7,1.2 2,4.3 6.7,0.7 8.9,4.8 5.4,-2.3 4.5,3.6 -1.5,2 2.2,0.6 3,-0.9 -2.3,-2.3 1.2,-3.7 5.2,-2.3 14.7,0.8 4.3,0.9 3.5,-4.6 2.9,0.5 2.6,-1.5 2,1.6 3.4,-1.1 10.6,2.2 9.5,-4.3 22.2,-2.9 9.5,4 0.9,-0.4 -2.4,-3 1.4,-1.3 -2.1,-0.7 -1.2,0.7 -4.2,-4.1 -3.8,0.5 -2.5,3.1 -3.9,-1 1.2,-3.2 5.6,-2.6 2.2,0.7 3.1,-1.5 6.8,6.6 0.8,-0.8 2.8,7.9 -1.7,0.2 1.2,2.7 7.8,7.8 -2.5,17.2 1.2,0.4 -2.5,3.8 10.2,-1.7 4.9,2.9 -0.1,-2.1 6,4.3 0.1,-1.8 5.3,2.5 2.5,-1.2 1.1,2.1 -3,1.5 -2.5,4 0.5,2 2.8,-0.2 2,1.6 -3,1.6 1.9,1.9 1.4,6.3 1.4,-1.3 -0.4,4.5 4.1,0.9 -3.6,1.7 2.5,12.8 9.9,2 0.1,6.7 -1.9,3.7 5.7,1.6 1.6,-4.7 1.5,7.8 3.3,-0.2 -1.1,-2.6 5.9,1.8 1,-5.8 8.3,8.3 -0.7,-9.8 2.8,1.2 1.7,6.3 -2.5,4.8 2.3,1.4 0.5,-1.9 2.2,2.5 0.4,-12.1 1.9,7.2 3.2,5.8 -3.9,-0.1 -3,3.4 5.9,1.5 18,-13.9 10,-2.9 -17.9,13.2 1.2,1.9 -3.4,-0.7 -0.7,5.5 1.7,2.1 0.2,-3 2.3,1.5 -3,4.8 L 0,800 z" />
  <path
     id="Borders"
     fill="none"
     stroke="#a08070"
     d="M544.9,0l-4.1,16.5l6.7,17.2l13.7,4.4l24.5-17.2l17.3-2.5l5.5-10.2L621.6,0 M695.3,0L691,13l6.9,4.7 M0,213.6l2.7,5.1l11.8,0.1 l2.2,2.4l-4.1,0.5l0.3,3.5L0,241.5l13.3,54.3l-1,40.7l41.1,6.1l8.3,19.8l-2.1,11.5l-45.8,56.8 M33.2,99.4L31.1,110l-2.3,1.6L29,118 l-4.2,0.5l-0.7,6.7l2.5,2l-7.3,28.6l-12.6,6.3l8.6,12.7l-12-0.1L0,179.1 M320.9,0l12.4,9l11.6-5l13.6,4.4l0.2,5.8l11,9.5l12.7-4.2 l3.3-6.3l16.2-6l1.5-3.5l14-3.8L431.9,14l10.3-8.2L437,0 M33.2,99.4l4.6-0.6l0.9,3.6l10.6,7.2l22.9-0.1l12.2,17l0.4-0.1l7.9-8.1 l7.6,4l23.8-12.3L124,99l7.5-3.9l-6.5-9.3l36.5-9.8l11,1l0.4-5.9l10.8-2.8l15-13.2l0.8-14l9.5-17.8l-1.9-9.8l23.6-8.3l14.8,0.9 l6.3-6.2 M0,40.7L26.4,39l2.5,7.6l-1.3,7.9L30.8,70l-5.2,9l6.2,4.2l-1.4,11.7l2.9,4.5 M1000,394.3l-19.6-5.4l-1-5.6l2.6-4.2 l-3.9-3.3l-6.8-0.4l-7.7-8.9l-5.7-1.7l-7.2,3.4l-12-9.3l-19.2-0.7l-6.9-11l-4.5-0.4l1.1-7.3l-3.9-4.1l6.1-5.9l-7.2-9.3l4-10.8 L893.6,294h-0.1l0.1-11.1l-3.8-5.7 M1000,504.5l-10.2-3.9l-1.8,0.5l-12.9-11.5l-2,0.3l-0.9-5.3l6-12.6l4.6-0.2l-1.4-4.5l2.1,1.3 l1.5-6.7l-3.9-5.6l8.3-10.4l-2-8.9l3-3.2l9.4-0.4" />
  <g
     font-size="20"
     text-anchor="middle"
     font-family="Arial"
     id="g40">
    <text
       x="248.06094"
       y="517.091"
       id="text24">Balochistan</text>
    <text
       x="414.63437"
       y="653.85822"
       id="text26">Sindh</text>
    <text
       x="587.49353"
       y="378.40372"
       id="text28">Punjab</text>
    <text
       x="514.37476"
       y="127.11129"
       id="text32">Khyber Pakhtunkhwa</text>
    <text
       x="687.68768"
       y="75.583199"
       id="text34">Gilgit-Baltistan</text>
    <text
       x="804.08984"
       y="202.76425"
       id="text36">Azad Jammu &amp; Kashmir</text>
    <text
       x="723.68524"
       y="251.70459"
       id="text38">Islamabad Capital Territory</text>
  </g>
  <rect
     x="650.80267"
     y="562.97302"
     width="328.94736"
     height="216.77701"
     rx="9.575"
     ry="9.575"
     id="rect42"
     stroke-opacity="0.75"
     stroke-width="0.5"
     stroke="#000000"
     fill-opacity="0.75"
     fill="#ffffff" />
  <text
     x="669.01947"
     y="597.42401"
     font-size="20"
     font-weight="bold"
     font-family="Arial"
     id="text44">Legend:</text>
  <g
     font-family="Arial"
     font-size="14"
     fill="#666666"
     id="g60">
    <text
       x="669.16394"
       y="635.52795"
       id="text46">Pakistani Territory</text>
    <text
       x="669.16394"
       y="655.52795"
       id="text48">Pakistani Territory (Disputed)</text>
    <text
       x="669.16394"
       y="675.52795"
       id="text50">Foreign Territory</text>
    <text
       x="669.16394"
       y="695.52795"
       id="text52">Foreign Territory (Disputed)</text>
    <text
       x="669.16394"
       y="715.52795"
       id="text54">Conflict Zone</text>
    <text
       x="669.16394"
       y="735.52795"
       id="text56">Salt Water Body</text>
    <text
       x="669.16394"
       y="755.52795"
       id="text58">Provincial/Territorial Boundry</text>
  </g>
  <g
     stroke="#000000"
     stroke-width="0.5"
     stroke-opacity="0.75"
     id="g74">
    <rect
       x="910.17566"
       y="623.83942"
       width="50"
       height="16"
       fill="#ffffd0"
       id="rect62" />
    <rect
       x="910.17566"
       y="643.83942"
       width="50"
       height="16"
       fill="#e3d0ac"
       id="rect64" />
    <rect
       x="910.17566"
       y="663.83942"
       width="50"
       height="16"
       fill="#f6e1b9"
       id="rect66" />
    <rect
       x="910.17566"
       y="683.83942"
       width="50"
       height="16"
       fill="#cbb094"
       id="rect68" />
    <rect
       x="910.17566"
       y="703.83942"
       width="50"
       height="16"
       fill="#a08070"
       id="rect70" />
    <rect
       x="910.17566"
       y="723.83942"
       width="50"
       height="16"
       fill="#c6ecff"
       id="rect72" />
  </g>
  <rect
     x="910.06097"
     y="750.55389"
     width="50"
     height="2"
     fill="#a08070"
     id="rect76" />
  <path
     fill="none"
     stroke="#000000"
     d="m 696.2128,195.65 -23.9921,0"
     id="path78" />
  <path
     fill="none"
     stroke="#000000"
     d="m 627.2,212.63968 0,24.00716"
     id="path80" />
  <text
     xml:space="preserve"
     style="font-style:normal;font-weight:normal;font-size:17.04145622px;line-height:1.25;font-family:sans-serif;letter-spacing:0px;word-spacing:0px;fill:#000000;fill-opacity:1;stroke:none;stroke-width:0.42603639"
     x="821.07538"
     y="50.321785"
     id="text3774"
     transform="scale(0.96795619,1.0331046)"><tspan
       sodipodi:role="line"
       id="tspan3772"
       x="821.07538"
       y="50.321785"
       style="font-style:normal;font-variant:normal;font-weight:normal;font-stretch:normal;font-size:20px;line-height:0;font-family:Arial;-inkscape-font-specification:Arial;stroke-width:0.42603639">Shaksgam</tspan><tspan
       sodipodi:role="line"
       x="821.07538"
       y="71.623604"
       id="tspan3776"
       style="font-style:normal;font-variant:normal;font-weight:normal;font-stretch:normal;font-size:20px;line-height:0;font-family:Arial;-inkscape-font-specification:Arial;stroke-width:0.42603639">Valley</tspan></text>
  <text
     xml:space="preserve"
     style="font-style:normal;font-weight:normal;font-size:27.42699432px;line-height:1;font-family:sans-serif;letter-spacing:0px;word-spacing:0px;fill:#000000;fill-opacity:1;stroke:none;stroke-width:0.68567485"
     x="860.62683"
     y="110.12119"
     id="text3890"
     transform="scale(0.99245987,1.0075974)"><tspan
       sodipodi:role="line"
       id="tspan3888"
       x="860.62683"
       y="110.12119"
       style="font-style:normal;font-variant:normal;font-weight:normal;font-stretch:normal;font-size:20px;line-height:1;font-family:Arial;-inkscape-font-specification:Arial;stroke-width:0.68567485">Siachen</tspan><tspan
       sodipodi:role="line"
       x="860.62683"
       y="137.54817"
       id="tspan3892"
       style="font-style:normal;font-variant:normal;font-weight:normal;font-stretch:normal;font-size:20px;line-height:1;font-family:Arial;-inkscape-font-specification:Arial;stroke-width:0.68567485">Glacier</tspan></text>
  <path
     inkscape:connector-curvature="0"
     style="fill:none;stroke:#000000;stroke-width:0.86207116"
     d="M 794.6,66.7 H 776.76987"
     id="path78-7" />
  <path
     inkscape:connector-curvature="0"
     style="fill:none;stroke:#000000"
     d="M 852.6921,104.2 H 828.7"
     id="path78-4" />
  <text
     xml:space="preserve"
     style="font-style:normal;font-weight:normal;font-size:40px;line-height:1.25;font-family:sans-serif;letter-spacing:0px;word-spacing:0px;fill:#000000;fill-opacity:1;stroke:none"
     x="713.90851"
     y="177.64084"
     id="text3917"><tspan
       sodipodi:role="line"
       id="tspan3915"
       x="713.90851"
       y="177.64084"
       style="font-style:normal;font-variant:normal;font-weight:normal;font-stretch:normal;font-size:20px;font-family:Arial;-inkscape-font-specification:Arial">Jammu &amp; Kashmir</tspan></text>
</svg>
