<?xml version="1.0" encoding="utf-8"?>
<!-- Generator: Adobe Illustrator 16.0.0, SVG Export Plug-In . SVG Version: 6.00 Build 0)  -->
<!DOCTYPE svg PUBLIC "-//W3C//DTD SVG 1.1//EN" "http://www.w3.org/Graphics/SVG/1.1/DTD/svg11.dtd">
<svg version="1.1"
	 id="Layer_1" xmlns:cc="http://creativecommons.org/ns#" xmlns:inkscape="http://www.inkscape.org/namespaces/inkscape" xmlns:sodipodi="http://sodipodi.sourceforge.net/DTD/sodipodi-0.dtd" xmlns:dc="http://purl.org/dc/elements/1.1/" xmlns:svg="http://www.w3.org/2000/svg" xmlns:rdf="http://www.w3.org/1999/02/22-rdf-syntax-ns#" sodipodi:docname="EXAMPLE.svg" inkscape:version="0.91 r13725"
	 xmlns="http://www.w3.org/2000/svg" xmlns:xlink="http://www.w3.org/1999/xlink" x="0px" y="0px" width="1900px" height="1900px"
	 viewBox="0 0 1900 1900" enable-background="new 0 0 1900 1900" xml:space="preserve">
<sodipodi:namedview  inkscape:cx="950" inkscape:zoom="0.12421053" borderopacity="1" inkscape:cy="950" showgrid="false" gridtolerance="10" bordercolor="#666666" guidetolerance="10" pagecolor="#ffffff" objecttolerance="10" id="namedview812" inkscape:current-layer="Layer_1" inkscape:window-maximized="0" inkscape:window-x="0" inkscape:window-height="480" inkscape:window-y="0" inkscape:window-width="686" inkscape:pageopacity="0" inkscape:pageshadow="2">
	</sodipodi:namedview>
<text id="text719" transform="matrix(0.9897 0 0 1 406.1401 109.9004)" font-family="'Arial-BoldMT'" font-size="51.9092">Senegal map of Köppen climate classification</text>
<g>
	
		<rect id="rect12069_68_" x="-999.154" y="55.109" fill="#1300FC" stroke="#000000" stroke-width="0.5" stroke-miterlimit="10" width="45.803" height="41.047"/>
	<text id="text722" transform="matrix(1 0 0 1 -947.7026 90.4316)" font-family="'Arial-BoldMT'" font-size="42.6543">Equatorial climate (Af)</text>
</g>
<g>
	
		<rect id="rect12069_67_" x="-999.154" y="122.732" fill="#0E73FC" stroke="#000000" stroke-width="0.5" stroke-miterlimit="10" width="45.803" height="41.046"/>
	<text id="text725" transform="matrix(1 0 0 1 -947.7026 158.0586)" font-family="'Arial-BoldMT'" font-size="42.6543">Monsoon climate (Am)</text>
</g>
<g>
	
		<rect id="rect12069_65_" x="-1019.227" y="486.45" fill="#FD0000" stroke="#000000" stroke-width="0.5" stroke-miterlimit="10" width="45.799" height="41.052"/>
	<text id="text729" transform="matrix(1 0 0 1 -967.7729 521.7813)" font-family="'Arial-BoldMT'" font-size="42.6543">Warm desert climate (BWh)</text>
</g>
<g>
	
		<rect id="rect12069_64_" x="-1011.476" y="623.594" fill="#FE9594" stroke="#000000" stroke-width="0.5" stroke-miterlimit="10" width="45.799" height="41.047"/>
	<text id="text732" transform="matrix(1 0 0 1 -960.0215 658.918)" font-family="'Arial-BoldMT'" font-size="42.6543">Cold desert climate (BWk)</text>
</g>
<g>
	
		<rect id="rect12069_63_" x="-1019.227" y="563.445" fill="#F6A200" stroke="#000000" stroke-width="0.5" stroke-miterlimit="10" width="45.799" height="41.047"/>
	<text id="text735" transform="matrix(1 0 0 1 -967.7729 598.7725)" font-family="'Arial-BoldMT'" font-size="42.6543">Warm semi-arid climate (BSh)</text>
</g>
<g>
	
		<rect id="rect12069_2_" x="184.978" y="1708.458" fill="#FD0000" stroke="#000000" stroke-width="0.5" stroke-miterlimit="10" width="45.799" height="41.052"/>
	<g enable-background="new    ">
		<path d="M243.868,1743.789l-7.29-30.533h6.311l4.603,20.974l5.582-20.974h7.331l5.353,21.327l4.686-21.327h6.207l-7.414,30.533
			h-6.54l-6.082-22.827l-6.061,22.827H243.868z"/>
		<path d="M282.544,1728.419l-5.311-0.958c0.597-2.139,1.625-3.722,3.083-4.749c1.458-1.027,3.624-1.541,6.498-1.541
			c2.61,0,4.554,0.309,5.832,0.927c1.277,0.618,2.176,1.402,2.697,2.354c0.521,0.951,0.781,2.697,0.781,5.238l-0.063,6.831
			c0,1.944,0.094,3.377,0.281,4.301s0.538,1.913,1.052,2.968h-5.79c-0.153-0.389-0.34-0.965-0.562-1.729
			c-0.098-0.347-0.167-0.576-0.208-0.688c-1,0.972-2.069,1.701-3.208,2.187c-1.139,0.486-2.354,0.729-3.645,0.729
			c-2.277,0-4.072-0.618-5.384-1.854c-1.313-1.236-1.968-2.798-1.968-4.687c0-1.25,0.298-2.364,0.896-3.343
			c0.597-0.979,1.434-1.729,2.51-2.249c1.076-0.521,2.627-0.976,4.655-1.364c2.735-0.514,4.63-0.993,5.686-1.438v-0.583
			c0-1.125-0.278-1.927-0.833-2.405c-0.555-0.479-1.604-0.719-3.145-0.719c-1.042,0-1.854,0.205-2.437,0.614
			C283.377,1726.673,282.905,1727.392,282.544,1728.419z M290.375,1733.167c-0.75,0.25-1.937,0.549-3.562,0.896
			c-1.625,0.348-2.687,0.688-3.187,1.021c-0.764,0.542-1.146,1.229-1.146,2.063c0,0.819,0.305,1.527,0.916,2.124
			s1.389,0.896,2.333,0.896c1.055,0,2.062-0.347,3.02-1.041c0.708-0.527,1.173-1.174,1.395-1.938c0.153-0.5,0.229-1.45,0.229-2.854
			V1733.167z"/>
		<path d="M307.495,1743.789h-5.853v-22.118h5.436v3.145c0.93-1.485,1.767-2.465,2.51-2.937c0.743-0.472,1.586-0.708,2.53-0.708
			c1.333,0,2.617,0.368,3.853,1.104l-1.812,5.103c-0.986-0.639-1.903-0.958-2.75-0.958c-0.819,0-1.514,0.226-2.083,0.677
			c-0.57,0.451-1.018,1.268-1.343,2.447c-0.327,1.181-0.49,3.652-0.49,7.415V1743.789z"/>
		<path d="M318.054,1721.671h5.395v3.02c1.93-2.347,4.228-3.52,6.894-3.52c1.417,0,2.646,0.291,3.687,0.874
			c1.042,0.584,1.896,1.466,2.562,2.646c0.972-1.18,2.02-2.062,3.145-2.646c1.125-0.583,2.325-0.874,3.603-0.874
			c1.625,0,2.999,0.33,4.124,0.989c1.125,0.659,1.965,1.628,2.52,2.905c0.403,0.944,0.604,2.472,0.604,4.582v14.142h-5.852v-12.643
			c0-2.193-0.202-3.609-0.604-4.248c-0.542-0.833-1.375-1.25-2.5-1.25c-0.819,0-1.59,0.25-2.312,0.75
			c-0.722,0.5-1.243,1.232-1.562,2.197s-0.479,2.488-0.479,4.571v10.622h-5.852v-12.121c0-2.152-0.104-3.541-0.313-4.166
			c-0.208-0.625-0.531-1.09-0.969-1.396c-0.437-0.305-1.031-0.458-1.781-0.458c-0.902,0-1.715,0.243-2.437,0.729
			c-0.722,0.485-1.239,1.187-1.552,2.104c-0.313,0.916-0.469,2.437-0.469,4.561v10.747h-5.853V1721.671z"/>
		<path d="M388.554,1743.789h-5.436v-3.249c-0.903,1.264-1.968,2.204-3.197,2.822c-1.229,0.617-2.468,0.927-3.718,0.927
			c-2.541,0-4.717-1.024-6.529-3.072s-2.718-4.904-2.718-8.57c0-3.749,0.881-6.599,2.645-8.55c1.763-1.95,3.992-2.926,6.686-2.926
			c2.471,0,4.61,1.027,6.415,3.082v-10.997h5.852V1743.789z M372.934,1732.251c0,2.36,0.326,4.068,0.979,5.123
			c0.944,1.527,2.263,2.291,3.958,2.291c1.347,0,2.492-0.572,3.437-1.718c0.944-1.146,1.416-2.856,1.416-5.134
			c0-2.541-0.458-4.37-1.375-5.488c-0.917-1.117-2.09-1.677-3.52-1.677c-1.389,0-2.552,0.552-3.489,1.656
			C373.402,1728.408,372.934,1730.057,372.934,1732.251z"/>
		<path d="M407.133,1736.749l5.832,0.979c-0.75,2.138-1.934,3.767-3.551,4.884c-1.618,1.118-3.642,1.677-6.071,1.677
			c-3.846,0-6.692-1.257-8.539-3.77c-1.458-2.014-2.187-4.555-2.187-7.623c0-3.666,0.958-6.536,2.874-8.612
			c1.916-2.075,4.339-3.113,7.269-3.113c3.291,0,5.887,1.086,7.79,3.259c1.902,2.174,2.812,5.502,2.729,9.987h-14.663
			c0.042,1.735,0.514,3.086,1.416,4.051c0.903,0.965,2.027,1.447,3.374,1.447c0.917,0,1.687-0.25,2.312-0.75
			C406.341,1738.666,406.813,1737.86,407.133,1736.749z M407.466,1730.835c-0.042-1.694-0.479-2.982-1.312-3.864
			c-0.833-0.881-1.847-1.322-3.041-1.322c-1.277,0-2.333,0.466-3.166,1.396c-0.833,0.931-1.243,2.194-1.229,3.791H407.466z"/>
		<path d="M415.984,1737.479l5.874-0.896c0.25,1.139,0.756,2.003,1.521,2.593c0.763,0.591,1.833,0.885,3.207,0.885
			c1.514,0,2.652-0.277,3.416-0.833c0.513-0.389,0.771-0.909,0.771-1.562c0-0.444-0.139-0.813-0.417-1.104
			c-0.292-0.277-0.944-0.534-1.958-0.771c-4.721-1.041-7.713-1.992-8.977-2.853c-1.75-1.194-2.624-2.854-2.624-4.979
			c0-1.916,0.756-3.526,2.27-4.832c1.513-1.305,3.86-1.957,7.04-1.957c3.027,0,5.276,0.493,6.748,1.479
			c1.472,0.986,2.485,2.444,3.041,4.374l-5.519,1.021c-0.236-0.861-0.684-1.521-1.344-1.979c-0.66-0.459-1.6-0.688-2.822-0.688
			c-1.542,0-2.645,0.215-3.312,0.646c-0.445,0.306-0.667,0.701-0.667,1.188c0,0.416,0.194,0.771,0.583,1.062
			c0.527,0.389,2.35,0.938,5.467,1.646c3.117,0.708,5.293,1.576,6.529,2.604c1.222,1.041,1.833,2.492,1.833,4.353
			c0,2.027-0.847,3.771-2.541,5.229c-1.694,1.457-4.201,2.187-7.519,2.187c-3.013,0-5.397-0.611-7.154-1.833
			C417.674,1741.234,416.525,1739.575,415.984,1737.479z"/>
		<path d="M454.577,1736.749l5.832,0.979c-0.75,2.138-1.934,3.767-3.551,4.884c-1.618,1.118-3.642,1.677-6.071,1.677
			c-3.846,0-6.692-1.257-8.539-3.77c-1.458-2.014-2.187-4.555-2.187-7.623c0-3.666,0.958-6.536,2.874-8.612
			c1.916-2.075,4.339-3.113,7.269-3.113c3.291,0,5.887,1.086,7.79,3.259c1.902,2.174,2.812,5.502,2.729,9.987h-14.663
			c0.042,1.735,0.514,3.086,1.416,4.051c0.903,0.965,2.027,1.447,3.374,1.447c0.917,0,1.687-0.25,2.312-0.75
			C453.786,1738.666,454.257,1737.86,454.577,1736.749z M454.91,1730.835c-0.042-1.694-0.479-2.982-1.312-3.864
			c-0.833-0.881-1.847-1.322-3.041-1.322c-1.277,0-2.333,0.466-3.166,1.396c-0.833,0.931-1.243,2.194-1.229,3.791H454.91z"/>
		<path d="M471.093,1743.789h-5.853v-22.118h5.436v3.145c0.93-1.485,1.767-2.465,2.51-2.937c0.743-0.472,1.586-0.708,2.53-0.708
			c1.333,0,2.617,0.368,3.853,1.104l-1.812,5.103c-0.986-0.639-1.903-0.958-2.75-0.958c-0.819,0-1.514,0.226-2.083,0.677
			c-0.57,0.451-1.018,1.268-1.343,2.447c-0.327,1.181-0.49,3.652-0.49,7.415V1743.789z"/>
		<path d="M492.233,1721.671v4.665h-3.999v8.914c0,1.805,0.038,2.856,0.115,3.155c0.076,0.299,0.25,0.545,0.521,0.739
			c0.271,0.194,0.601,0.292,0.989,0.292c0.542,0,1.326-0.188,2.354-0.563l0.5,4.54c-1.361,0.583-2.902,0.875-4.624,0.875
			c-1.056,0-2.007-0.177-2.854-0.531c-0.847-0.354-1.468-0.813-1.864-1.375c-0.396-0.562-0.67-1.322-0.822-2.28
			c-0.125-0.68-0.188-2.055-0.188-4.124v-9.643h-2.687v-4.665h2.687v-4.395l5.873-3.416v7.811H492.233z"/>
		<path d="M527.431,1728.21l-5.769,1.042c-0.195-1.152-0.635-2.021-1.323-2.604c-0.687-0.583-1.58-0.875-2.676-0.875
			c-1.458,0-2.621,0.504-3.488,1.51c-0.868,1.007-1.302,2.69-1.302,5.051c0,2.624,0.44,4.478,1.322,5.561s2.065,1.625,3.551,1.625
			c1.11,0,2.02-0.315,2.729-0.947c0.708-0.632,1.208-1.719,1.5-3.26l5.748,0.979c-0.597,2.639-1.743,4.631-3.437,5.978
			s-3.964,2.021-6.811,2.021c-3.235,0-5.814-1.021-7.737-3.062c-1.923-2.041-2.884-4.866-2.884-8.477
			c0-3.652,0.965-6.495,2.895-8.529c1.93-2.034,4.54-3.051,7.831-3.051c2.693,0,4.835,0.58,6.425,1.739
			S526.737,1725.836,527.431,1728.21z"/>
		<path d="M531.867,1743.789v-30.533h5.853v30.533H531.867z"/>
		<path d="M543.718,1718.671v-5.415h5.853v5.415H543.718z M543.718,1743.789v-22.118h5.853v22.118H543.718z"/>
		<path d="M555.131,1721.671h5.395v3.02c1.93-2.347,4.228-3.52,6.894-3.52c1.417,0,2.646,0.291,3.687,0.874
			c1.042,0.584,1.896,1.466,2.562,2.646c0.972-1.18,2.02-2.062,3.145-2.646c1.125-0.583,2.325-0.874,3.603-0.874
			c1.625,0,2.999,0.33,4.124,0.989c1.125,0.659,1.965,1.628,2.52,2.905c0.403,0.944,0.604,2.472,0.604,4.582v14.142h-5.852v-12.643
			c0-2.193-0.202-3.609-0.604-4.248c-0.542-0.833-1.375-1.25-2.5-1.25c-0.819,0-1.59,0.25-2.312,0.75
			c-0.722,0.5-1.243,1.232-1.562,2.197s-0.479,2.488-0.479,4.571v10.622h-5.852v-12.121c0-2.152-0.104-3.541-0.313-4.166
			c-0.208-0.625-0.531-1.09-0.969-1.396c-0.437-0.305-1.031-0.458-1.781-0.458c-0.902,0-1.715,0.243-2.437,0.729
			c-0.722,0.485-1.239,1.187-1.552,2.104c-0.313,0.916-0.469,2.437-0.469,4.561v10.747h-5.853V1721.671z"/>
		<path d="M597.869,1728.419l-5.311-0.958c0.597-2.139,1.625-3.722,3.083-4.749c1.458-1.027,3.624-1.541,6.498-1.541
			c2.61,0,4.554,0.309,5.832,0.927c1.277,0.618,2.176,1.402,2.697,2.354c0.521,0.951,0.781,2.697,0.781,5.238l-0.063,6.831
			c0,1.944,0.094,3.377,0.281,4.301s0.538,1.913,1.052,2.968h-5.79c-0.153-0.389-0.34-0.965-0.562-1.729
			c-0.098-0.347-0.167-0.576-0.208-0.688c-1,0.972-2.069,1.701-3.208,2.187c-1.139,0.486-2.354,0.729-3.645,0.729
			c-2.277,0-4.072-0.618-5.384-1.854c-1.313-1.236-1.968-2.798-1.968-4.687c0-1.25,0.298-2.364,0.896-3.343
			c0.597-0.979,1.434-1.729,2.51-2.249c1.076-0.521,2.627-0.976,4.655-1.364c2.735-0.514,4.63-0.993,5.686-1.438v-0.583
			c0-1.125-0.278-1.927-0.833-2.405c-0.555-0.479-1.604-0.719-3.145-0.719c-1.042,0-1.854,0.205-2.437,0.614
			C598.702,1726.673,598.23,1727.392,597.869,1728.419z M605.7,1733.167c-0.75,0.25-1.937,0.549-3.562,0.896
			c-1.625,0.348-2.687,0.688-3.187,1.021c-0.764,0.542-1.146,1.229-1.146,2.063c0,0.819,0.305,1.527,0.916,2.124
			s1.389,0.896,2.333,0.896c1.055,0,2.062-0.347,3.02-1.041c0.708-0.527,1.173-1.174,1.395-1.938c0.153-0.5,0.229-1.45,0.229-2.854
			V1733.167z"/>
		<path d="M627.36,1721.671v4.665h-3.999v8.914c0,1.805,0.038,2.856,0.115,3.155c0.076,0.299,0.25,0.545,0.521,0.739
			c0.271,0.194,0.601,0.292,0.989,0.292c0.542,0,1.326-0.188,2.354-0.563l0.5,4.54c-1.361,0.583-2.902,0.875-4.624,0.875
			c-1.056,0-2.007-0.177-2.854-0.531c-0.847-0.354-1.468-0.813-1.864-1.375c-0.396-0.562-0.67-1.322-0.822-2.28
			c-0.125-0.68-0.188-2.055-0.188-4.124v-9.643h-2.687v-4.665h2.687v-4.395l5.873-3.416v7.811H627.36z"/>
		<path d="M644.23,1736.749l5.832,0.979c-0.75,2.138-1.934,3.767-3.551,4.884c-1.618,1.118-3.642,1.677-6.071,1.677
			c-3.846,0-6.692-1.257-8.539-3.77c-1.458-2.014-2.187-4.555-2.187-7.623c0-3.666,0.958-6.536,2.874-8.612
			c1.916-2.075,4.339-3.113,7.269-3.113c3.291,0,5.887,1.086,7.79,3.259c1.902,2.174,2.812,5.502,2.729,9.987h-14.663
			c0.042,1.735,0.514,3.086,1.416,4.051c0.903,0.965,2.027,1.447,3.374,1.447c0.917,0,1.687-0.25,2.312-0.75
			C643.439,1738.666,643.911,1737.86,644.23,1736.749z M644.563,1730.835c-0.042-1.694-0.479-2.982-1.312-3.864
			c-0.833-0.881-1.847-1.322-3.041-1.322c-1.277,0-2.333,0.466-3.166,1.396c-0.833,0.931-1.243,2.194-1.229,3.791H644.563z"/>
		<path d="M676.7,1752.766h-4.02c-2.125-3.207-3.742-6.54-4.853-9.997s-1.666-6.804-1.666-10.039c0-4.013,0.688-7.81,2.062-11.393
			c1.194-3.109,2.708-5.978,4.54-8.602h3.999c-1.902,4.207-3.211,7.786-3.926,10.736c-0.715,2.951-1.073,6.079-1.073,9.383
			c0,2.277,0.211,4.61,0.635,6.998c0.423,2.389,1.003,4.658,1.739,6.811C674.625,1748.079,675.478,1750.113,676.7,1752.766z"/>
		<path d="M681.261,1713.256h12.205c2.416,0,4.217,0.102,5.404,0.303c1.188,0.201,2.25,0.621,3.187,1.26
			c0.938,0.639,1.718,1.489,2.343,2.552c0.625,1.062,0.938,2.253,0.938,3.571c0,1.431-0.386,2.742-1.156,3.937
			s-1.815,2.09-3.134,2.687c1.86,0.542,3.291,1.465,4.291,2.771c1,1.305,1.5,2.839,1.5,4.603c0,1.389-0.323,2.738-0.969,4.051
			s-1.527,2.36-2.645,3.145c-1.118,0.785-2.496,1.268-4.134,1.448c-1.027,0.111-3.506,0.181-7.435,0.208h-10.393V1713.256z
			 M687.426,1718.338v7.061h4.041c2.402,0,3.895-0.034,4.478-0.104c1.055-0.124,1.885-0.489,2.489-1.093
			c0.604-0.604,0.906-1.398,0.906-2.385c0-0.944-0.26-1.711-0.781-2.302c-0.521-0.59-1.295-0.947-2.322-1.072
			c-0.611-0.069-2.368-0.104-5.27-0.104H687.426z M687.426,1730.48v8.164h5.707c2.221,0,3.631-0.063,4.228-0.188
			c0.917-0.166,1.663-0.572,2.239-1.218c0.576-0.646,0.864-1.511,0.864-2.594c0-0.916-0.222-1.693-0.667-2.332
			s-1.086-1.104-1.926-1.396c-0.84-0.292-2.663-0.438-5.467-0.438H687.426z"/>
		<path d="M716.376,1743.789l-7.29-30.533h6.311l4.603,20.974l5.582-20.974h7.331l5.353,21.327l4.686-21.327h6.207l-7.414,30.533
			h-6.54l-6.082-22.827l-6.061,22.827H716.376z"/>
		<path d="M758.093,1713.256v11.227c1.888-2.208,4.145-3.312,6.769-3.312c1.347,0,2.562,0.25,3.645,0.749
			c1.083,0.5,1.898,1.139,2.447,1.917c0.548,0.777,0.923,1.638,1.125,2.582c0.201,0.944,0.302,2.409,0.302,4.395v12.976h-5.853
			v-11.685c0-2.318-0.111-3.79-0.333-4.415c-0.222-0.625-0.614-1.121-1.177-1.489c-0.563-0.367-1.267-0.552-2.114-0.552
			c-0.972,0-1.84,0.236-2.604,0.708c-0.764,0.473-1.323,1.184-1.677,2.135s-0.531,2.357-0.531,4.218v11.08h-5.852v-30.533H758.093z"
			/>
		<path d="M776.692,1752.766c1.152-2.472,1.965-4.367,2.437-5.686c0.472-1.319,0.909-2.84,1.312-4.562
			c0.402-1.722,0.701-3.356,0.896-4.905c0.194-1.548,0.292-3.134,0.292-4.759c0-3.304-0.354-6.432-1.062-9.383
			c-0.708-2.95-2.014-6.529-3.916-10.736h3.978c2.096,2.985,3.725,6.151,4.884,9.497c1.159,3.347,1.739,6.741,1.739,10.185
			c0,2.902-0.458,6.013-1.375,9.331c-1.042,3.721-2.756,7.394-5.145,11.018H776.692z"/>
	</g>
</g>
<g>
	
		<rect id="rect12069_1_" x="184.978" y="1785.453" fill="#F6A200" stroke="#000000" stroke-width="0.5" stroke-miterlimit="10" width="45.799" height="41.047"/>
	<g enable-background="new    ">
		<path d="M243.868,1820.78l-7.29-30.533h6.311l4.603,20.974l5.582-20.974h7.331l5.353,21.327l4.686-21.327h6.207l-7.414,30.533
			h-6.54l-6.082-22.827l-6.061,22.827H243.868z"/>
		<path d="M282.544,1805.41l-5.311-0.958c0.597-2.139,1.625-3.722,3.083-4.749c1.458-1.027,3.624-1.541,6.498-1.541
			c2.61,0,4.554,0.309,5.832,0.927c1.277,0.618,2.176,1.402,2.697,2.354c0.521,0.951,0.781,2.697,0.781,5.238l-0.063,6.831
			c0,1.944,0.094,3.377,0.281,4.301s0.538,1.913,1.052,2.968h-5.79c-0.153-0.389-0.34-0.965-0.562-1.729
			c-0.098-0.347-0.167-0.576-0.208-0.688c-1,0.972-2.069,1.701-3.208,2.187c-1.139,0.486-2.354,0.729-3.645,0.729
			c-2.277,0-4.072-0.618-5.384-1.854c-1.313-1.236-1.968-2.798-1.968-4.687c0-1.25,0.298-2.364,0.896-3.343
			c0.597-0.979,1.434-1.729,2.51-2.249c1.076-0.521,2.627-0.976,4.655-1.364c2.735-0.514,4.63-0.993,5.686-1.438v-0.583
			c0-1.125-0.278-1.927-0.833-2.405c-0.555-0.479-1.604-0.719-3.145-0.719c-1.042,0-1.854,0.205-2.437,0.614
			C283.377,1803.664,282.905,1804.383,282.544,1805.41z M290.375,1810.158c-0.75,0.25-1.937,0.549-3.562,0.896
			c-1.625,0.348-2.687,0.688-3.187,1.021c-0.764,0.542-1.146,1.229-1.146,2.063c0,0.819,0.305,1.527,0.916,2.124
			s1.389,0.896,2.333,0.896c1.055,0,2.062-0.347,3.02-1.041c0.708-0.527,1.173-1.174,1.395-1.938c0.153-0.5,0.229-1.45,0.229-2.854
			V1810.158z"/>
		<path d="M307.495,1820.78h-5.853v-22.118h5.436v3.145c0.93-1.485,1.767-2.465,2.51-2.937c0.743-0.472,1.586-0.708,2.53-0.708
			c1.333,0,2.617,0.368,3.853,1.104l-1.812,5.103c-0.986-0.639-1.903-0.958-2.75-0.958c-0.819,0-1.514,0.226-2.083,0.677
			c-0.57,0.451-1.018,1.268-1.343,2.447c-0.327,1.181-0.49,3.652-0.49,7.415V1820.78z"/>
		<path d="M318.054,1798.662h5.395v3.02c1.93-2.347,4.228-3.52,6.894-3.52c1.417,0,2.646,0.291,3.687,0.874
			c1.042,0.584,1.896,1.466,2.562,2.646c0.972-1.18,2.02-2.062,3.145-2.646c1.125-0.583,2.325-0.874,3.603-0.874
			c1.625,0,2.999,0.33,4.124,0.989c1.125,0.659,1.965,1.628,2.52,2.905c0.403,0.944,0.604,2.472,0.604,4.582v14.142h-5.852v-12.643
			c0-2.193-0.202-3.609-0.604-4.248c-0.542-0.833-1.375-1.25-2.5-1.25c-0.819,0-1.59,0.25-2.312,0.75
			c-0.722,0.5-1.243,1.232-1.562,2.197s-0.479,2.488-0.479,4.571v10.622h-5.852v-12.121c0-2.152-0.104-3.541-0.313-4.166
			c-0.208-0.625-0.531-1.09-0.969-1.396c-0.437-0.305-1.031-0.458-1.781-0.458c-0.902,0-1.715,0.243-2.437,0.729
			c-0.722,0.485-1.239,1.187-1.552,2.104c-0.313,0.916-0.469,2.437-0.469,4.561v10.747h-5.853V1798.662z"/>
		<path d="M366.207,1814.47l5.874-0.896c0.25,1.139,0.756,2.003,1.521,2.593c0.763,0.591,1.833,0.885,3.207,0.885
			c1.514,0,2.652-0.277,3.416-0.833c0.513-0.389,0.771-0.909,0.771-1.562c0-0.444-0.139-0.813-0.417-1.104
			c-0.292-0.277-0.944-0.534-1.958-0.771c-4.721-1.041-7.713-1.992-8.977-2.853c-1.75-1.194-2.624-2.854-2.624-4.979
			c0-1.916,0.756-3.526,2.27-4.832c1.513-1.305,3.86-1.957,7.04-1.957c3.027,0,5.276,0.493,6.748,1.479
			c1.472,0.986,2.485,2.444,3.041,4.374l-5.519,1.021c-0.236-0.861-0.684-1.521-1.344-1.979c-0.66-0.459-1.6-0.688-2.822-0.688
			c-1.542,0-2.645,0.215-3.312,0.646c-0.445,0.306-0.667,0.701-0.667,1.188c0,0.416,0.194,0.771,0.583,1.062
			c0.527,0.389,2.35,0.938,5.467,1.646c3.117,0.708,5.293,1.576,6.529,2.604c1.222,1.041,1.833,2.492,1.833,4.353
			c0,2.027-0.847,3.771-2.541,5.229c-1.694,1.457-4.201,2.187-7.519,2.187c-3.013,0-5.397-0.611-7.154-1.833
			C367.897,1818.226,366.748,1816.566,366.207,1814.47z"/>
		<path d="M404.8,1813.74l5.832,0.979c-0.75,2.138-1.934,3.767-3.551,4.884c-1.618,1.118-3.642,1.677-6.071,1.677
			c-3.846,0-6.692-1.257-8.539-3.77c-1.458-2.014-2.187-4.555-2.187-7.623c0-3.666,0.958-6.536,2.874-8.612
			c1.916-2.075,4.339-3.113,7.269-3.113c3.291,0,5.887,1.086,7.79,3.259c1.902,2.174,2.812,5.502,2.729,9.987h-14.663
			c0.042,1.735,0.514,3.086,1.416,4.051c0.903,0.965,2.027,1.447,3.374,1.447c0.917,0,1.687-0.25,2.312-0.75
			C404.009,1815.657,404.48,1814.852,404.8,1813.74z M405.133,1807.826c-0.042-1.694-0.479-2.982-1.312-3.864
			c-0.833-0.881-1.847-1.322-3.041-1.322c-1.277,0-2.333,0.466-3.166,1.396c-0.833,0.931-1.243,2.194-1.229,3.791H405.133z"/>
		<path d="M415.276,1798.662h5.395v3.02c1.93-2.347,4.228-3.52,6.894-3.52c1.417,0,2.646,0.291,3.687,0.874
			c1.042,0.584,1.896,1.466,2.562,2.646c0.972-1.18,2.02-2.062,3.145-2.646c1.125-0.583,2.325-0.874,3.603-0.874
			c1.625,0,2.999,0.33,4.124,0.989c1.125,0.659,1.965,1.628,2.52,2.905c0.403,0.944,0.604,2.472,0.604,4.582v14.142h-5.852v-12.643
			c0-2.193-0.202-3.609-0.604-4.248c-0.542-0.833-1.375-1.25-2.5-1.25c-0.819,0-1.59,0.25-2.312,0.75
			c-0.722,0.5-1.243,1.232-1.562,2.197s-0.479,2.488-0.479,4.571v10.622h-5.852v-12.121c0-2.152-0.104-3.541-0.313-4.166
			c-0.208-0.625-0.531-1.09-0.969-1.396c-0.437-0.305-1.031-0.458-1.781-0.458c-0.902,0-1.715,0.243-2.437,0.729
			c-0.722,0.485-1.239,1.187-1.552,2.104c-0.313,0.916-0.469,2.437-0.469,4.561v10.747h-5.853V1798.662z"/>
		<path d="M453.64,1795.662v-5.415h5.853v5.415H453.64z M453.64,1820.78v-22.118h5.853v22.118H453.64z"/>
		<path d="M464.824,1812.637v-5.853h11.497v5.853H464.824z"/>
		<path d="M484.069,1805.41l-5.311-0.958c0.597-2.139,1.625-3.722,3.083-4.749c1.458-1.027,3.624-1.541,6.498-1.541
			c2.61,0,4.554,0.309,5.832,0.927c1.277,0.618,2.176,1.402,2.697,2.354c0.521,0.951,0.781,2.697,0.781,5.238l-0.063,6.831
			c0,1.944,0.094,3.377,0.281,4.301s0.538,1.913,1.052,2.968h-5.79c-0.153-0.389-0.34-0.965-0.562-1.729
			c-0.098-0.347-0.167-0.576-0.208-0.688c-1,0.972-2.069,1.701-3.208,2.187c-1.139,0.486-2.354,0.729-3.645,0.729
			c-2.277,0-4.072-0.618-5.384-1.854c-1.313-1.236-1.968-2.798-1.968-4.687c0-1.25,0.298-2.364,0.896-3.343
			c0.597-0.979,1.434-1.729,2.51-2.249c1.076-0.521,2.627-0.976,4.655-1.364c2.735-0.514,4.63-0.993,5.686-1.438v-0.583
			c0-1.125-0.278-1.927-0.833-2.405c-0.555-0.479-1.604-0.719-3.145-0.719c-1.042,0-1.854,0.205-2.437,0.614
			C484.902,1803.664,484.43,1804.383,484.069,1805.41z M491.9,1810.158c-0.75,0.25-1.937,0.549-3.562,0.896
			c-1.625,0.348-2.687,0.688-3.187,1.021c-0.764,0.542-1.146,1.229-1.146,2.063c0,0.819,0.305,1.527,0.916,2.124
			s1.389,0.896,2.333,0.896c1.055,0,2.062-0.347,3.02-1.041c0.708-0.527,1.173-1.174,1.395-1.938c0.153-0.5,0.229-1.45,0.229-2.854
			V1810.158z"/>
		<path d="M509.02,1820.78h-5.853v-22.118h5.436v3.145c0.93-1.485,1.767-2.465,2.51-2.937c0.743-0.472,1.586-0.708,2.53-0.708
			c1.333,0,2.617,0.368,3.853,1.104l-1.812,5.103c-0.986-0.639-1.903-0.958-2.75-0.958c-0.819,0-1.514,0.226-2.083,0.677
			c-0.57,0.451-1.018,1.268-1.343,2.447c-0.327,1.181-0.49,3.652-0.49,7.415V1820.78z"/>
		<path d="M520.016,1795.662v-5.415h5.853v5.415H520.016z M520.016,1820.78v-22.118h5.853v22.118H520.016z"/>
		<path d="M552.153,1820.78h-5.436v-3.249c-0.903,1.264-1.968,2.204-3.197,2.822c-1.229,0.617-2.468,0.927-3.718,0.927
			c-2.541,0-4.717-1.024-6.529-3.072s-2.718-4.904-2.718-8.57c0-3.749,0.881-6.599,2.645-8.55c1.763-1.95,3.992-2.926,6.686-2.926
			c2.471,0,4.61,1.027,6.415,3.082v-10.997h5.852V1820.78z M536.533,1809.242c0,2.36,0.326,4.068,0.979,5.123
			c0.944,1.527,2.263,2.291,3.958,2.291c1.347,0,2.492-0.572,3.437-1.718c0.944-1.146,1.416-2.856,1.416-5.134
			c0-2.541-0.458-4.37-1.375-5.488c-0.917-1.117-2.09-1.677-3.52-1.677c-1.389,0-2.552,0.552-3.489,1.656
			C537.001,1805.399,536.533,1807.048,536.533,1809.242z"/>
		<path d="M589.059,1805.201l-5.769,1.042c-0.195-1.152-0.635-2.021-1.323-2.604c-0.687-0.583-1.58-0.875-2.676-0.875
			c-1.458,0-2.621,0.504-3.488,1.51c-0.868,1.007-1.302,2.69-1.302,5.051c0,2.624,0.44,4.478,1.322,5.561s2.065,1.625,3.551,1.625
			c1.11,0,2.02-0.315,2.729-0.947c0.708-0.632,1.208-1.719,1.5-3.26l5.748,0.979c-0.597,2.639-1.743,4.631-3.437,5.978
			s-3.964,2.021-6.811,2.021c-3.235,0-5.814-1.021-7.737-3.062c-1.923-2.041-2.884-4.866-2.884-8.477
			c0-3.652,0.965-6.495,2.895-8.529c1.93-2.034,4.54-3.051,7.831-3.051c2.693,0,4.835,0.58,6.425,1.739
			S588.365,1802.827,589.059,1805.201z"/>
		<path d="M593.495,1820.78v-30.533h5.853v30.533H593.495z"/>
		<path d="M605.346,1795.662v-5.415h5.853v5.415H605.346z M605.346,1820.78v-22.118h5.853v22.118H605.346z"/>
		<path d="M616.759,1798.662h5.395v3.02c1.93-2.347,4.228-3.52,6.894-3.52c1.417,0,2.646,0.291,3.687,0.874
			c1.042,0.584,1.896,1.466,2.562,2.646c0.972-1.18,2.02-2.062,3.145-2.646c1.125-0.583,2.325-0.874,3.603-0.874
			c1.625,0,2.999,0.33,4.124,0.989c1.125,0.659,1.965,1.628,2.52,2.905c0.403,0.944,0.604,2.472,0.604,4.582v14.142h-5.852v-12.643
			c0-2.193-0.202-3.609-0.604-4.248c-0.542-0.833-1.375-1.25-2.5-1.25c-0.819,0-1.59,0.25-2.312,0.75
			c-0.722,0.5-1.243,1.232-1.562,2.197s-0.479,2.488-0.479,4.571v10.622h-5.852v-12.121c0-2.152-0.104-3.541-0.313-4.166
			c-0.208-0.625-0.531-1.09-0.969-1.396c-0.437-0.305-1.031-0.458-1.781-0.458c-0.902,0-1.715,0.243-2.437,0.729
			c-0.722,0.485-1.239,1.187-1.552,2.104c-0.313,0.916-0.469,2.437-0.469,4.561v10.747h-5.853V1798.662z"/>
		<path d="M659.497,1805.41l-5.311-0.958c0.597-2.139,1.625-3.722,3.083-4.749c1.458-1.027,3.624-1.541,6.498-1.541
			c2.61,0,4.554,0.309,5.832,0.927c1.277,0.618,2.176,1.402,2.697,2.354c0.521,0.951,0.781,2.697,0.781,5.238l-0.063,6.831
			c0,1.944,0.094,3.377,0.281,4.301s0.538,1.913,1.052,2.968h-5.79c-0.153-0.389-0.34-0.965-0.562-1.729
			c-0.098-0.347-0.167-0.576-0.208-0.688c-1,0.972-2.069,1.701-3.208,2.187c-1.139,0.486-2.354,0.729-3.645,0.729
			c-2.277,0-4.072-0.618-5.384-1.854c-1.313-1.236-1.968-2.798-1.968-4.687c0-1.25,0.298-2.364,0.896-3.343
			c0.597-0.979,1.434-1.729,2.51-2.249c1.076-0.521,2.627-0.976,4.655-1.364c2.735-0.514,4.63-0.993,5.686-1.438v-0.583
			c0-1.125-0.278-1.927-0.833-2.405c-0.555-0.479-1.604-0.719-3.145-0.719c-1.042,0-1.854,0.205-2.437,0.614
			C660.33,1803.664,659.858,1804.383,659.497,1805.41z M667.328,1810.158c-0.75,0.25-1.937,0.549-3.562,0.896
			c-1.625,0.348-2.687,0.688-3.187,1.021c-0.764,0.542-1.146,1.229-1.146,2.063c0,0.819,0.305,1.527,0.916,2.124
			s1.389,0.896,2.333,0.896c1.055,0,2.062-0.347,3.02-1.041c0.708-0.527,1.173-1.174,1.395-1.938c0.153-0.5,0.229-1.45,0.229-2.854
			V1810.158z"/>
		<path d="M688.988,1798.662v4.665h-3.999v8.914c0,1.805,0.038,2.856,0.115,3.155c0.076,0.299,0.25,0.545,0.521,0.739
			c0.271,0.194,0.601,0.292,0.989,0.292c0.542,0,1.326-0.188,2.354-0.563l0.5,4.54c-1.361,0.583-2.902,0.875-4.624,0.875
			c-1.056,0-2.007-0.177-2.854-0.531c-0.847-0.354-1.468-0.813-1.864-1.375c-0.396-0.562-0.67-1.322-0.822-2.28
			c-0.125-0.68-0.188-2.055-0.188-4.124v-9.643h-2.687v-4.665h2.687v-4.395l5.873-3.416v7.811H688.988z"/>
		<path d="M705.858,1813.74l5.832,0.979c-0.75,2.138-1.934,3.767-3.551,4.884c-1.618,1.118-3.642,1.677-6.071,1.677
			c-3.846,0-6.692-1.257-8.539-3.77c-1.458-2.014-2.187-4.555-2.187-7.623c0-3.666,0.958-6.536,2.874-8.612
			c1.916-2.075,4.339-3.113,7.269-3.113c3.291,0,5.887,1.086,7.79,3.259c1.902,2.174,2.812,5.502,2.729,9.987H697.34
			c0.042,1.735,0.514,3.086,1.416,4.051c0.903,0.965,2.027,1.447,3.374,1.447c0.917,0,1.687-0.25,2.312-0.75
			C705.067,1815.657,705.539,1814.852,705.858,1813.74z M706.191,1807.826c-0.042-1.694-0.479-2.982-1.312-3.864
			c-0.833-0.881-1.847-1.322-3.041-1.322c-1.277,0-2.333,0.466-3.166,1.396c-0.833,0.931-1.243,2.194-1.229,3.791H706.191z"/>
		<path d="M738.328,1829.757h-4.02c-2.125-3.207-3.742-6.54-4.853-9.997s-1.666-6.804-1.666-10.039c0-4.013,0.688-7.81,2.062-11.393
			c1.194-3.109,2.708-5.978,4.54-8.602h3.999c-1.902,4.207-3.211,7.786-3.926,10.736c-0.715,2.951-1.073,6.079-1.073,9.383
			c0,2.277,0.211,4.61,0.635,6.998c0.423,2.389,1.003,4.658,1.739,6.811C736.252,1825.07,737.106,1827.104,738.328,1829.757z"/>
		<path d="M742.889,1790.247h12.205c2.416,0,4.217,0.102,5.404,0.303c1.188,0.201,2.25,0.621,3.187,1.26
			c0.938,0.639,1.718,1.489,2.343,2.552c0.625,1.062,0.938,2.253,0.938,3.571c0,1.431-0.386,2.742-1.156,3.937
			s-1.815,2.09-3.134,2.687c1.86,0.542,3.291,1.465,4.291,2.771c1,1.305,1.5,2.839,1.5,4.603c0,1.389-0.323,2.738-0.969,4.051
			s-1.527,2.36-2.645,3.145c-1.118,0.785-2.496,1.268-4.134,1.448c-1.027,0.111-3.506,0.181-7.435,0.208h-10.393V1790.247z
			 M749.054,1795.329v7.061h4.041c2.402,0,3.895-0.034,4.478-0.104c1.055-0.124,1.885-0.489,2.489-1.093
			c0.604-0.604,0.906-1.398,0.906-2.385c0-0.944-0.26-1.711-0.781-2.302c-0.521-0.59-1.295-0.947-2.322-1.072
			c-0.611-0.069-2.368-0.104-5.27-0.104H749.054z M749.054,1807.472v8.164h5.707c2.221,0,3.631-0.063,4.228-0.188
			c0.917-0.166,1.663-0.572,2.239-1.218c0.576-0.646,0.864-1.511,0.864-2.594c0-0.916-0.222-1.693-0.667-2.332
			s-1.086-1.104-1.926-1.396c-0.84-0.292-2.663-0.438-5.467-0.438H749.054z"/>
		<path d="M772.11,1810.846l5.999-0.583c0.361,2.014,1.093,3.492,2.197,4.436c1.104,0.945,2.593,1.417,4.467,1.417
			c1.985,0,3.481-0.42,4.488-1.261c1.007-0.84,1.51-1.822,1.51-2.946c0-0.722-0.212-1.337-0.635-1.844
			c-0.424-0.507-1.163-0.947-2.218-1.322c-0.722-0.25-2.368-0.694-4.936-1.333c-3.305-0.819-5.624-1.825-6.957-3.02
			c-1.874-1.681-2.812-3.729-2.812-6.145c0-1.555,0.441-3.01,1.323-4.363c0.881-1.354,2.152-2.385,3.811-3.093
			s3.662-1.063,6.009-1.063c3.833,0,6.717,0.841,8.654,2.521s2.954,3.923,3.051,6.727l-6.165,0.271
			c-0.264-1.569-0.83-2.697-1.697-3.385c-0.868-0.688-2.17-1.031-3.905-1.031c-1.791,0-3.194,0.368-4.207,1.104
			c-0.653,0.472-0.979,1.104-0.979,1.895c0,0.723,0.305,1.341,0.917,1.854c0.777,0.652,2.666,1.333,5.665,2.041
			s5.217,1.44,6.654,2.197s2.562,1.791,3.374,3.103c0.813,1.313,1.218,2.934,1.218,4.863c0,1.75-0.486,3.389-1.458,4.916
			c-0.972,1.527-2.347,2.662-4.124,3.405c-1.777,0.742-3.992,1.114-6.644,1.114c-3.86,0-6.824-0.893-8.893-2.677
			C773.748,1816.861,772.513,1814.262,772.11,1810.846z"/>
		<path d="M807.912,1790.247v11.227c1.888-2.208,4.145-3.312,6.769-3.312c1.347,0,2.562,0.25,3.645,0.749
			c1.083,0.5,1.898,1.139,2.447,1.917c0.548,0.777,0.923,1.638,1.125,2.582c0.201,0.944,0.302,2.409,0.302,4.395v12.976h-5.853
			v-11.685c0-2.318-0.111-3.79-0.333-4.415c-0.222-0.625-0.614-1.121-1.177-1.489c-0.563-0.367-1.267-0.552-2.114-0.552
			c-0.972,0-1.84,0.236-2.604,0.708c-0.764,0.473-1.323,1.184-1.677,2.135s-0.531,2.357-0.531,4.218v11.08h-5.852v-30.533H807.912z"
			/>
		<path d="M826.511,1829.757c1.152-2.472,1.965-4.367,2.437-5.686c0.472-1.319,0.909-2.84,1.312-4.562
			c0.402-1.722,0.701-3.356,0.896-4.905c0.194-1.548,0.292-3.134,0.292-4.759c0-3.304-0.354-6.432-1.062-9.383
			c-0.708-2.95-2.014-6.529-3.916-10.736h3.978c2.096,2.985,3.725,6.151,4.884,9.497c1.159,3.347,1.739,6.741,1.739,10.185
			c0,2.902-0.458,6.013-1.375,9.331c-1.042,3.721-2.756,7.394-5.145,11.018H826.511z"/>
	</g>
</g>
<g>
	
		<rect id="rect12069_62_" x="-1011.476" y="759.875" fill="#FDDA62" stroke="#000000" stroke-width="0.5" stroke-miterlimit="10" width="45.799" height="41.047"/>
	<text id="text738" transform="matrix(1 0 0 1 -960.0215 795.2012)" font-family="'Arial-BoldMT'" font-size="42.6543">Cold semi-arid climate (BSk)</text>
</g>
<g>
	
		<rect id="rect12069_16_" x="2026.332" y="1087.532" fill="#94FE97" stroke="#000000" stroke-width="0.5" stroke-miterlimit="10" width="45.801" height="41.042"/>
	<text id="text741_1_" transform="matrix(1 0 0 1 2077.7813 1122.8535)" font-family="'Arial-BoldMT'" font-size="42.6543">Humid subtropical climate (Cwa)</text>
</g>
<g>
	
		<rect id="rect12069_15_" x="2026.332" y="1147.222" fill="#5FC765" stroke="#000000" stroke-width="0.5" stroke-miterlimit="10" width="45.801" height="41.048"/>
	<text transform="matrix(1 0 0 1 2077.7813 1182.5459)" font-family="'Arial-BoldMT'" font-size="42.6543">Humid subtropical climate/</text>
	<text transform="matrix(1 0 0 1 2077.7813 1233.7314)" font-family="'Arial-BoldMT'" font-size="42.6543">Subtropical oceanic highland climate (Cwb)</text>
</g>
<g>
	
		<rect id="rect12069_14_" x="2023.508" y="1263.875" fill="#369633" stroke="#000000" stroke-width="0.5" stroke-miterlimit="10" width="45.801" height="41.05"/>
	<text id="text747_1_" transform="matrix(1 0 0 1 2074.957 1299.1943)" font-family="'Arial-BoldMT'" font-size="42.6543">Oceanic subpolar climate (Cwc)</text>
</g>
<g>
	
		<rect id="rect12069_13_" x="2023.504" y="1334.182" fill="#C5FE4B" stroke="#000000" stroke-width="0.5" stroke-miterlimit="10" width="45.803" height="41.043"/>
	<text transform="matrix(1 0 0 1 2074.96 1369.501)" font-family="'Arial-BoldMT'" font-size="42.6543">Warm oceanic climate/</text>
	<text transform="matrix(1 0 0 1 2074.96 1420.6865)" font-family="'Arial-BoldMT'" font-size="42.6543">Humid subtropical climate (Cfa)</text>
</g>
<g>
	
		<rect id="rect12069_12_" x="2023.508" y="1442.262" fill="#63FD32" stroke="#000000" stroke-width="0.5" stroke-miterlimit="10" width="45.803" height="41.051"/>
	<text id="text753_2_" transform="matrix(1 0 0 1 2074.9639 1477.5879)" font-family="'Arial-BoldMT'" font-size="42.6543">Temperate oceanic climate (Cfb)</text>
</g>
<g>
	
		<rect id="rect12069_6_" x="2042.159" y="979.234" fill="#35C600" stroke="#000000" stroke-width="0.5" stroke-miterlimit="10" width="45.803" height="41.053"/>
	<text id="text756_1_" transform="matrix(1 0 0 1 2093.6152 1014.5605)" font-family="'Arial-BoldMT'" font-size="42.6543">Cool oceanic climate (Cfc)</text>
</g>
<g>
	
		<rect id="rect12069_52_" x="2044.987" y="125.863" fill="#FC00FB" stroke="#000000" stroke-width="0.5" stroke-miterlimit="10" width="45.8" height="41.046"/>
	<text transform="matrix(1 0 0 1 2096.4414 161.1904)" font-family="'Arial-BoldMT'" font-size="42.6543">Warm continental climate/</text>
	<text transform="matrix(1 0 0 1 2096.4414 212.377)" font-family="'Arial-BoldMT'" font-size="42.6543">Mediterranean continental climate (Dsa)</text>
</g>
<g>
	
		<rect id="rect12069_51_" x="2047.814" y="244.928" fill="#C900C4" stroke="#000000" stroke-width="0.5" stroke-miterlimit="10" width="45.8" height="41.042"/>
	<text transform="matrix(1 0 0 1 2099.2686 280.248)" font-family="'Arial-BoldMT'" font-size="42.6543">Temperate continental climate/</text>
	<text transform="matrix(1 0 0 1 2099.2686 331.4336)" font-family="'Arial-BoldMT'" font-size="42.6543">Mediterranean continental climate (Dsb)</text>
</g>
<g>
	
		<rect id="rect12069_50_" x="2050.643" y="333.529" fill="#983396" stroke="#000000" stroke-width="0.5" stroke-miterlimit="10" width="45.802" height="41.047"/>
	<text id="text765" transform="matrix(1 0 0 1 2102.0957 368.8506)" font-family="'Arial-BoldMT'" font-size="42.6543">Cool continental climate (Dsc)</text>
</g>
<g>
	
		<rect id="rect12069_36_" x="2050.643" y="401.151" fill="#8E5D92" stroke="#000000" stroke-width="0.5" stroke-miterlimit="10" width="45.802" height="41.049"/>
	<text id="text768" transform="matrix(1 0 0 1 2102.0957 436.4766)" font-family="'Calibri-Bold'" font-size="42.6543">Cold continental climate (Dsd)</text>
</g>
<g>
	
		<rect id="rect12069_35_" x="1051.246" y="-781.542" fill="#A5AFFF" stroke="#000000" stroke-width="0.5" stroke-miterlimit="10" width="45.801" height="41.047"/>
	<text transform="matrix(1 0 0 1 1104.4746 -746.2148)" font-family="'Arial-BoldMT'" font-size="42.6543">Warm continental climate/</text>
	<text transform="matrix(1 0 0 1 1104.4746 -695.0293)" font-family="'Arial-BoldMT'" font-size="42.6543">Humid continental climate (Dwa)</text>
</g>
<g>
	
		<rect id="rect12069_32_" x="1047.533" y="-557.112" fill="#4A78E3" stroke="#000000" stroke-width="0.5" stroke-miterlimit="10" width="45.801" height="41.051"/>
	<text transform="matrix(1 0 0 1 1100.7617 -521.7871)" font-family="'Arial-BoldMT'" font-size="42.6543">Temperate continental climate/</text>
	<text transform="matrix(1 0 0 1 1100.7617 -470.6016)" font-family="'Arial-BoldMT'" font-size="42.6543">Humid continental climate (Dwb) </text>
</g>
<g>
	
		<rect id="rect12069_11_" x="1038.869" y="-320.878" fill="#484EB4" stroke="#000000" stroke-width="0.5" stroke-miterlimit="10" width="45.801" height="41.041"/>
	<text transform="matrix(1 0 0 1 1092.0977 -285.5625)" font-family="'Arial-BoldMT'" font-size="42.6543">Cool continental climate/</text>
	<text transform="matrix(1 0 0 1 1092.0977 -234.377)" font-family="'Arial-BoldMT'" font-size="42.6543">Subarctic climate (Dwc)</text>
</g>
<g>
	
		<rect id="rect12069_10_" x="1042.583" y="-208.542" fill="#30008A" stroke="#000000" stroke-width="0.5" stroke-miterlimit="10" width="45.801" height="41.053"/>
	<text transform="matrix(1 0 0 1 1095.8115 -173.2129)" font-family="'Arial-BoldMT'" font-size="42.6543">Cold continental climate/</text>
	<text transform="matrix(1 0 0 1 1095.8115 -122.0273)" font-family="'Arial-BoldMT'" font-size="42.6543">Subarctic climate (Dwd)</text>
</g>
<g>
	
		<rect id="rect12069_18_" x="-947.703" y="1726.426" fill="#00FCFD" stroke="#000000" stroke-width="0.5" stroke-miterlimit="10" width="45.801" height="41.053"/>
	<text transform="matrix(1 0 0 1 -894.4731 1761.7559)" font-family="'Arial-BoldMT'" font-size="42.6543">Warm continental climate/</text>
	<text transform="matrix(1 0 0 1 -894.4731 1812.9414)" font-family="'Arial-BoldMT'" font-size="42.6543">Humid continental climate (Dfa)</text>
</g>
<g>
	
		<rect id="rect12069_17_" x="-947.703" y="1883.73" fill="#3DC6FA" stroke="#000000" stroke-width="0.5" stroke-miterlimit="10" width="45.802" height="41.048"/>
	<text transform="matrix(1 0 0 1 -894.4722 1919.0566)" font-family="'Arial-BoldMT'" font-size="42.6543">Temperate continental climate/</text>
	<text transform="matrix(1 0 0 1 -894.4722 1970.2422)" font-family="'Arial-BoldMT'" font-size="42.6543">Humid continental climate (Dfb)</text>
</g>
<g>
	
		<rect id="rect12069_27_" x="-974.318" y="1333.312" fill="#007E7E" stroke="#000000" stroke-width="0.5" stroke-miterlimit="10" width="45.802" height="41.043"/>
	<text transform="matrix(1 0 0 1 -921.0874 1368.6357)" font-family="'Arial-BoldMT'" font-size="42.6543">Cool continental climate/</text>
	<text transform="matrix(1 0 0 1 -921.0874 1419.8213)" font-family="'Arial-BoldMT'" font-size="42.6543">Subarctic climate (Dfc)</text>
</g>
<g>
	
		<rect id="rect12069_26_" x="-1000.933" y="1502.414" fill="#004660" stroke="#000000" stroke-width="0.5" stroke-miterlimit="10" width="45.802" height="41.047"/>
	<text transform="matrix(1 0 0 1 -947.7026 1537.7422)" font-family="'Arial-BoldMT'" font-size="42.6543">Cold continental climate/</text>
	<text transform="matrix(1 0 0 1 -947.7026 1588.9277)" font-family="'Arial-BoldMT'" font-size="42.6543">Subarctic climate (Dfd)</text>
</g>
<g>
	
		<rect id="rect12069_24_" x="33.529" y="-139.354" fill="#686967" stroke="#000000" stroke-width="0.5" stroke-miterlimit="10" width="45.801" height="41.042"/>
	<text id="text798" transform="matrix(1 0 0 1 86.7563 -104.0332)" font-family="'Arial-BoldMT'" font-size="42.6543">Ice cap climate (EF)</text>
</g>
<g>
	
		<rect id="rect12069_23_" x="-993.5" y="921.099" fill="#FCFE04" stroke="#000000" stroke-width="0.5" stroke-miterlimit="10" width="45.803" height="41.045"/>
	<text id="text801" transform="matrix(1 0 0 1 -942.0464 956.4238)" font-family="'Arial-BoldMT'" font-size="42.6543">Warm mediterranean climate (Csa)</text>
</g>
<g>
	
		<rect id="rect12069_22_" x="-993.5" y="988.726" fill="#CECC08" stroke="#000000" stroke-width="0.5" stroke-miterlimit="10" width="45.803" height="41.044"/>
	<text id="text804" transform="matrix(1 0 0 1 -942.0464 1024.0547)" font-family="'Arial-BoldMT'" font-size="42.6543">Temperate mediterranean climate (Csb)</text>
</g>
<sodipodi:namedview  inkscape:cx="250" inkscape:zoom="0.472" borderopacity="1" inkscape:cy="250" showgrid="false" gridtolerance="10" bordercolor="#666666" guidetolerance="10" pagecolor="#ffffff" objecttolerance="10" id="namedview27" inkscape:current-layer="Layer_1" inkscape:window-maximized="0" inkscape:window-x="0" inkscape:window-height="480" inkscape:window-y="0" inkscape:window-width="686" inkscape:pageopacity="0" inkscape:pageshadow="2">
	</sodipodi:namedview>
<sodipodi:namedview  inkscape:cx="250" inkscape:zoom="0.472" borderopacity="1" inkscape:cy="250" showgrid="false" gridtolerance="10" bordercolor="#666666" guidetolerance="10" pagecolor="#ffffff" objecttolerance="10" id="namedview27" inkscape:current-layer="Layer_1" inkscape:window-maximized="0" inkscape:window-x="0" inkscape:window-height="480" inkscape:window-y="0" inkscape:window-width="686" inkscape:pageopacity="0" inkscape:pageshadow="2">
	</sodipodi:namedview>
<sodipodi:namedview  inkscape:cx="250" inkscape:zoom="0.472" borderopacity="1" inkscape:cy="250" showgrid="false" gridtolerance="10" bordercolor="#666666" guidetolerance="10" pagecolor="#ffffff" objecttolerance="10" id="namedview27" inkscape:current-layer="Layer_1" inkscape:window-maximized="0" inkscape:window-x="0" inkscape:window-height="480" inkscape:window-y="0" inkscape:window-width="686" inkscape:pageopacity="0" inkscape:pageshadow="2">
	</sodipodi:namedview>
<sodipodi:namedview  inkscape:cx="250" inkscape:zoom="0.472" borderopacity="1" inkscape:cy="250" showgrid="false" gridtolerance="10" bordercolor="#666666" guidetolerance="10" pagecolor="#ffffff" objecttolerance="10" id="namedview27" inkscape:current-layer="Layer_1" inkscape:window-maximized="0" inkscape:window-x="0" inkscape:window-height="480" inkscape:window-y="0" inkscape:window-width="686" inkscape:pageopacity="0" inkscape:pageshadow="2">
	</sodipodi:namedview>
<g>
	
		<rect id="rect12069_66_" x="-988.577" y="220.854" fill="#3AAAFC" stroke="#000000" stroke-width="0.5" stroke-miterlimit="10" width="45.803" height="41.048"/>
	<text transform="matrix(1 0 0 1 -937.125 256.1777)" font-family="'Arial-BoldMT'" font-size="42.6543">Tropical savanna climate (Aw</text>
	<text transform="matrix(1 0 0 1 -339.7568 256.1777)" font-family="'Arial-BoldMT'" font-size="42.6543">)</text>
</g>
<g>
	
		<rect id="rect12069_3_" x="1054.846" y="1709.265" fill="#3AAAFC" stroke="#000000" stroke-width="0.5" stroke-miterlimit="10" width="45.805" height="41.049"/>
	<g enable-background="new    ">
		<path d="M1116.274,1744.589v-25.367h-9.06v-5.166h24.264v5.166h-9.039v25.367H1116.274z"/>
		<path d="M1138.664,1744.589h-5.853v-22.118h5.437v3.145c0.93-1.485,1.766-2.465,2.51-2.937c0.742-0.472,1.586-0.708,2.529-0.708
			c1.334,0,2.617,0.368,3.854,1.104l-1.812,5.103c-0.986-0.639-1.903-0.958-2.749-0.958c-0.82,0-1.514,0.226-2.083,0.677
			s-1.018,1.268-1.343,2.447c-0.327,1.181-0.49,3.652-0.49,7.415V1744.589z"/>
		<path d="M1148.307,1733.217c0-1.943,0.479-3.824,1.438-5.644s2.314-3.208,4.072-4.166c1.756-0.958,3.717-1.437,5.883-1.437
			c3.346,0,6.089,1.086,8.227,3.259c2.139,2.174,3.208,4.919,3.208,8.237c0,3.347-1.08,6.12-3.239,8.32
			c-2.158,2.201-4.877,3.302-8.153,3.302c-2.027,0-3.961-0.458-5.8-1.375c-1.841-0.916-3.239-2.26-4.197-4.03
			C1148.786,1737.914,1148.307,1735.758,1148.307,1733.217z M1154.305,1733.529c0,2.194,0.521,3.874,1.563,5.04
			c1.041,1.167,2.326,1.75,3.854,1.75s2.808-0.583,3.842-1.75c1.035-1.166,1.553-2.859,1.553-5.081c0-2.166-0.518-3.833-1.553-4.999
			c-1.034-1.166-2.314-1.749-3.842-1.749s-2.813,0.583-3.854,1.749S1154.305,1731.336,1154.305,1733.529z"/>
		<path d="M1175.549,1722.471h5.457v3.249c0.709-1.111,1.666-2.014,2.875-2.708c1.207-0.694,2.547-1.041,4.02-1.041
			c2.568,0,4.748,1.007,6.539,3.02c1.791,2.014,2.688,4.818,2.688,8.414c0,3.694-0.903,6.564-2.708,8.612
			c-1.806,2.048-3.992,3.072-6.561,3.072c-1.222,0-2.329-0.243-3.322-0.729c-0.993-0.485-2.038-1.318-3.134-2.499v11.143h-5.854
			V1722.471z M1181.34,1733.154c0,2.486,0.492,4.322,1.479,5.509c0.985,1.188,2.187,1.781,3.603,1.781
			c1.36,0,2.492-0.545,3.396-1.635c0.902-1.09,1.354-2.878,1.354-5.363c0-2.318-0.465-4.04-1.396-5.165s-2.083-1.688-3.458-1.688
			c-1.43,0-2.617,0.553-3.561,1.656C1181.811,1729.354,1181.34,1730.988,1181.34,1733.154z"/>
		<path d="M1201.771,1719.471v-5.415h5.853v5.415H1201.771z M1201.771,1744.589v-22.118h5.853v22.118H1201.771z"/>
		<path d="M1232.907,1729.01l-5.769,1.042c-0.195-1.152-0.636-2.021-1.323-2.604c-0.687-0.583-1.579-0.875-2.677-0.875
			c-1.457,0-2.621,0.504-3.488,1.51c-0.867,1.007-1.301,2.69-1.301,5.051c0,2.624,0.439,4.478,1.322,5.561
			c0.881,1.083,2.064,1.625,3.551,1.625c1.11,0,2.02-0.315,2.729-0.947c0.708-0.632,1.207-1.719,1.5-3.26l5.748,0.979
			c-0.598,2.639-1.743,4.631-3.438,5.978c-1.693,1.347-3.964,2.021-6.811,2.021c-3.234,0-5.814-1.021-7.736-3.062
			c-1.924-2.041-2.885-4.866-2.885-8.477c0-3.652,0.965-6.495,2.895-8.529s4.541-3.051,7.832-3.051c2.693,0,4.834,0.58,6.424,1.739
			S1232.213,1726.636,1232.907,1729.01z"/>
		<path d="M1241.718,1729.219l-5.312-0.958c0.598-2.139,1.625-3.722,3.083-4.749s3.624-1.541,6.498-1.541
			c2.61,0,4.554,0.309,5.831,0.927s2.177,1.402,2.697,2.354c0.521,0.951,0.781,2.697,0.781,5.238l-0.063,6.831
			c0,1.944,0.094,3.377,0.281,4.301s0.538,1.913,1.052,2.968h-5.79c-0.152-0.389-0.34-0.965-0.563-1.729
			c-0.098-0.347-0.166-0.576-0.208-0.688c-0.999,0.972-2.069,1.701-3.208,2.187c-1.139,0.486-2.354,0.729-3.645,0.729
			c-2.277,0-4.071-0.618-5.383-1.854c-1.313-1.236-1.969-2.798-1.969-4.687c0-1.25,0.299-2.364,0.896-3.343s1.434-1.729,2.51-2.249
			c1.075-0.521,2.628-0.976,4.655-1.364c2.734-0.514,4.63-0.993,5.686-1.438v-0.583c0-1.125-0.278-1.927-0.834-2.405
			c-0.555-0.479-1.604-0.719-3.145-0.719c-1.041,0-1.854,0.205-2.437,0.614C1242.551,1727.473,1242.078,1728.191,1241.718,1729.219z
			 M1249.549,1733.967c-0.75,0.25-1.938,0.549-3.562,0.896c-1.624,0.348-2.687,0.688-3.187,1.021
			c-0.764,0.542-1.146,1.229-1.146,2.063c0,0.819,0.306,1.527,0.916,2.124s1.389,0.896,2.333,0.896c1.055,0,2.062-0.347,3.02-1.041
			c0.709-0.527,1.174-1.174,1.396-1.938c0.153-0.5,0.229-1.45,0.229-2.854V1733.967z"/>
		<path d="M1261.066,1744.589v-30.533h5.852v30.533H1261.066z"/>
		<path d="M1282.705,1738.278l5.873-0.896c0.25,1.139,0.757,2.003,1.521,2.593c0.763,0.591,1.832,0.885,3.207,0.885
			c1.514,0,2.652-0.277,3.416-0.833c0.513-0.389,0.77-0.909,0.77-1.562c0-0.444-0.139-0.813-0.416-1.104
			c-0.291-0.277-0.944-0.534-1.958-0.771c-4.721-1.041-7.713-1.992-8.977-2.853c-1.749-1.194-2.624-2.854-2.624-4.979
			c0-1.916,0.756-3.526,2.27-4.832c1.514-1.305,3.86-1.957,7.04-1.957c3.026,0,5.276,0.493,6.748,1.479
			c1.472,0.986,2.485,2.444,3.041,4.374l-5.519,1.021c-0.236-0.861-0.685-1.521-1.344-1.979c-0.66-0.459-1.601-0.688-2.822-0.688
			c-1.541,0-2.645,0.215-3.312,0.646c-0.444,0.306-0.667,0.701-0.667,1.188c0,0.416,0.195,0.771,0.584,1.062
			c0.527,0.389,2.35,0.938,5.467,1.646s5.293,1.576,6.529,2.604c1.222,1.041,1.832,2.492,1.832,4.353
			c0,2.027-0.846,3.771-2.54,5.229c-1.694,1.457-4.2,2.187-7.519,2.187c-3.014,0-5.398-0.611-7.154-1.833
			C1284.396,1742.034,1283.246,1740.375,1282.705,1738.278z"/>
		<path d="M1312.863,1729.219l-5.311-0.958c0.597-2.139,1.625-3.722,3.082-4.749c1.458-1.027,3.624-1.541,6.498-1.541
			c2.611,0,4.555,0.309,5.832,0.927s2.176,1.402,2.697,2.354c0.521,0.951,0.781,2.697,0.781,5.238l-0.063,6.831
			c0,1.944,0.094,3.377,0.281,4.301s0.537,1.913,1.051,2.968h-5.789c-0.153-0.389-0.341-0.965-0.563-1.729
			c-0.098-0.347-0.167-0.576-0.209-0.688c-0.999,0.972-2.068,1.701-3.207,2.187c-1.139,0.486-2.354,0.729-3.645,0.729
			c-2.277,0-4.072-0.618-5.384-1.854c-1.313-1.236-1.968-2.798-1.968-4.687c0-1.25,0.298-2.364,0.895-3.343
			c0.598-0.979,1.434-1.729,2.51-2.249s2.628-0.976,4.655-1.364c2.735-0.514,4.63-0.993,5.687-1.438v-0.583
			c0-1.125-0.279-1.927-0.834-2.405c-0.555-0.479-1.604-0.719-3.145-0.719c-1.041,0-1.854,0.205-2.438,0.614
			C1313.697,1727.473,1313.225,1728.191,1312.863,1729.219z M1320.695,1733.967c-0.75,0.25-1.938,0.549-3.563,0.896
			c-1.624,0.348-2.687,0.688-3.186,1.021c-0.765,0.542-1.146,1.229-1.146,2.063c0,0.819,0.306,1.527,0.916,2.124
			c0.611,0.597,1.389,0.896,2.334,0.896c1.055,0,2.061-0.347,3.02-1.041c0.708-0.527,1.173-1.174,1.395-1.938
			c0.153-0.5,0.23-1.45,0.23-2.854V1733.967z"/>
		<path d="M1338.293,1744.589l-8.914-22.118h6.145l4.166,11.288l1.207,3.77c0.32-0.958,0.521-1.59,0.604-1.896
			c0.194-0.624,0.402-1.249,0.625-1.874l4.207-11.288h6.019l-8.789,22.118H1338.293z"/>
		<path d="M1360.309,1729.219l-5.312-0.958c0.597-2.139,1.624-3.722,3.083-4.749c1.457-1.027,3.623-1.541,6.498-1.541
			c2.609,0,4.553,0.309,5.831,0.927c1.277,0.618,2.177,1.402,2.697,2.354s0.78,2.697,0.78,5.238l-0.063,6.831
			c0,1.944,0.094,3.377,0.281,4.301s0.539,1.913,1.053,2.968h-5.791c-0.152-0.389-0.34-0.965-0.562-1.729
			c-0.098-0.347-0.167-0.576-0.208-0.688c-1,0.972-2.069,1.701-3.208,2.187c-1.139,0.486-2.354,0.729-3.645,0.729
			c-2.277,0-4.071-0.618-5.384-1.854c-1.313-1.236-1.969-2.798-1.969-4.687c0-1.25,0.299-2.364,0.896-3.343
			c0.596-0.979,1.434-1.729,2.51-2.249c1.075-0.521,2.627-0.976,4.654-1.364c2.735-0.514,4.631-0.993,5.686-1.438v-0.583
			c0-1.125-0.277-1.927-0.833-2.405c-0.556-0.479-1.604-0.719-3.145-0.719c-1.042,0-1.854,0.205-2.437,0.614
			C1361.141,1727.473,1360.669,1728.191,1360.309,1729.219z M1368.139,1733.967c-0.75,0.25-1.937,0.549-3.561,0.896
			c-1.625,0.348-2.688,0.688-3.188,1.021c-0.764,0.542-1.145,1.229-1.145,2.063c0,0.819,0.305,1.527,0.916,2.124
			c0.61,0.597,1.389,0.896,2.332,0.896c1.055,0,2.063-0.347,3.021-1.041c0.708-0.527,1.173-1.174,1.396-1.938
			c0.152-0.5,0.229-1.45,0.229-2.854V1733.967z"/>
		<path d="M1399.775,1744.589h-5.853v-11.288c0-2.389-0.125-3.933-0.374-4.635c-0.25-0.7-0.656-1.246-1.219-1.635
			s-1.24-0.583-2.031-0.583c-1.014,0-1.923,0.278-2.729,0.833c-0.805,0.556-1.357,1.291-1.655,2.208
			c-0.299,0.916-0.448,2.61-0.448,5.082v10.018h-5.852v-22.118h5.436v3.249c1.93-2.5,4.359-3.749,7.289-3.749
			c1.291,0,2.472,0.232,3.541,0.697c1.068,0.466,1.877,1.06,2.426,1.781s0.931,1.541,1.146,2.457
			c0.215,0.917,0.322,2.229,0.322,3.937V1744.589z"/>
		<path d="M1425.83,1744.589h-5.852v-11.288c0-2.389-0.125-3.933-0.375-4.635c-0.25-0.7-0.656-1.246-1.219-1.635
			s-1.239-0.583-2.03-0.583c-1.015,0-1.923,0.278-2.729,0.833c-0.806,0.556-1.357,1.291-1.655,2.208
			c-0.299,0.916-0.448,2.61-0.448,5.082v10.018h-5.853v-22.118h5.436v3.249c1.93-2.5,4.359-3.749,7.29-3.749
			c1.291,0,2.472,0.232,3.54,0.697c1.069,0.466,1.878,1.06,2.427,1.781c0.548,0.722,0.931,1.541,1.146,2.457
			c0.215,0.917,0.322,2.229,0.322,3.937V1744.589z"/>
		<path d="M1436.141,1729.219l-5.312-0.958c0.597-2.139,1.624-3.722,3.083-4.749c1.457-1.027,3.623-1.541,6.498-1.541
			c2.609,0,4.553,0.309,5.831,0.927c1.277,0.618,2.177,1.402,2.697,2.354s0.78,2.697,0.78,5.238l-0.063,6.831
			c0,1.944,0.094,3.377,0.281,4.301s0.539,1.913,1.053,2.968h-5.791c-0.152-0.389-0.34-0.965-0.562-1.729
			c-0.098-0.347-0.167-0.576-0.208-0.688c-1,0.972-2.069,1.701-3.208,2.187c-1.139,0.486-2.354,0.729-3.645,0.729
			c-2.277,0-4.071-0.618-5.384-1.854c-1.313-1.236-1.969-2.798-1.969-4.687c0-1.25,0.299-2.364,0.896-3.343
			c0.596-0.979,1.434-1.729,2.51-2.249c1.075-0.521,2.627-0.976,4.654-1.364c2.735-0.514,4.631-0.993,5.686-1.438v-0.583
			c0-1.125-0.277-1.927-0.833-2.405c-0.556-0.479-1.604-0.719-3.145-0.719c-1.042,0-1.854,0.205-2.437,0.614
			C1436.973,1727.473,1436.501,1728.191,1436.141,1729.219z M1443.971,1733.967c-0.75,0.25-1.937,0.549-3.561,0.896
			c-1.625,0.348-2.688,0.688-3.188,1.021c-0.764,0.542-1.145,1.229-1.145,2.063c0,0.819,0.305,1.527,0.916,2.124
			c0.61,0.597,1.389,0.896,2.332,0.896c1.055,0,2.063-0.347,3.021-1.041c0.708-0.527,1.173-1.174,1.396-1.938
			c0.152-0.5,0.229-1.45,0.229-2.854V1733.967z"/>
		<path d="M1486.625,1729.01l-5.769,1.042c-0.194-1.152-0.636-2.021-1.323-2.604c-0.687-0.583-1.579-0.875-2.676-0.875
			c-1.458,0-2.621,0.504-3.488,1.51c-0.868,1.007-1.302,2.69-1.302,5.051c0,2.624,0.44,4.478,1.322,5.561s2.065,1.625,3.552,1.625
			c1.109,0,2.02-0.315,2.729-0.947c0.707-0.632,1.207-1.719,1.499-3.26l5.748,0.979c-0.597,2.639-1.743,4.631-3.437,5.978
			s-3.965,2.021-6.811,2.021c-3.235,0-5.814-1.021-7.737-3.062s-2.884-4.866-2.884-8.477c0-3.652,0.965-6.495,2.895-8.529
			s4.54-3.051,7.831-3.051c2.693,0,4.835,0.58,6.425,1.739S1485.932,1726.636,1486.625,1729.01z"/>
		<path d="M1491.062,1744.589v-30.533h5.853v30.533H1491.062z"/>
		<path d="M1502.912,1719.471v-5.415h5.853v5.415H1502.912z M1502.912,1744.589v-22.118h5.853v22.118H1502.912z"/>
		<path d="M1514.326,1722.471h5.395v3.02c1.93-2.347,4.228-3.52,6.893-3.52c1.417,0,2.646,0.291,3.688,0.874
			c1.041,0.584,1.895,1.466,2.562,2.646c0.972-1.18,2.021-2.062,3.146-2.646c1.124-0.583,2.324-0.874,3.603-0.874
			c1.624,0,2.999,0.33,4.124,0.989s1.965,1.628,2.52,2.905c0.402,0.944,0.604,2.472,0.604,4.582v14.142h-5.852v-12.643
			c0-2.193-0.201-3.609-0.604-4.248c-0.542-0.833-1.375-1.25-2.5-1.25c-0.819,0-1.59,0.25-2.313,0.75
			c-0.721,0.5-1.242,1.232-1.562,2.197s-0.479,2.488-0.479,4.571v10.622h-5.852v-12.121c0-2.152-0.104-3.541-0.313-4.166
			c-0.209-0.625-0.531-1.09-0.969-1.396c-0.438-0.305-1.031-0.458-1.781-0.458c-0.902,0-1.715,0.243-2.436,0.729
			c-0.723,0.485-1.24,1.187-1.553,2.104c-0.313,0.916-0.469,2.437-0.469,4.561v10.747h-5.852V1722.471z"/>
		<path d="M1557.063,1729.219l-5.312-0.958c0.598-2.139,1.625-3.722,3.083-4.749s3.624-1.541,6.498-1.541
			c2.61,0,4.554,0.309,5.831,0.927s2.177,1.402,2.697,2.354c0.521,0.951,0.781,2.697,0.781,5.238l-0.063,6.831
			c0,1.944,0.094,3.377,0.281,4.301s0.538,1.913,1.052,2.968h-5.79c-0.152-0.389-0.34-0.965-0.563-1.729
			c-0.098-0.347-0.166-0.576-0.208-0.688c-0.999,0.972-2.069,1.701-3.208,2.187c-1.139,0.486-2.354,0.729-3.645,0.729
			c-2.277,0-4.071-0.618-5.383-1.854c-1.313-1.236-1.969-2.798-1.969-4.687c0-1.25,0.299-2.364,0.896-3.343s1.434-1.729,2.51-2.249
			c1.075-0.521,2.628-0.976,4.655-1.364c2.734-0.514,4.63-0.993,5.686-1.438v-0.583c0-1.125-0.278-1.927-0.834-2.405
			c-0.555-0.479-1.604-0.719-3.145-0.719c-1.041,0-1.854,0.205-2.437,0.614C1557.896,1727.473,1557.424,1728.191,1557.063,1729.219z
			 M1564.895,1733.967c-0.75,0.25-1.938,0.549-3.562,0.896c-1.624,0.348-2.687,0.688-3.187,1.021
			c-0.764,0.542-1.146,1.229-1.146,2.063c0,0.819,0.306,1.527,0.916,2.124s1.389,0.896,2.333,0.896c1.055,0,2.062-0.347,3.02-1.041
			c0.709-0.527,1.174-1.174,1.396-1.938c0.153-0.5,0.229-1.45,0.229-2.854V1733.967z"/>
		<path d="M1586.555,1722.471v4.665h-3.999v8.914c0,1.805,0.038,2.856,0.114,3.155s0.25,0.545,0.521,0.739
			c0.271,0.194,0.6,0.292,0.988,0.292c0.542,0,1.326-0.188,2.354-0.563l0.5,4.54c-1.36,0.583-2.902,0.875-4.623,0.875
			c-1.056,0-2.007-0.177-2.854-0.531c-0.848-0.354-1.469-0.813-1.864-1.375c-0.396-0.562-0.67-1.322-0.822-2.28
			c-0.125-0.68-0.188-2.055-0.188-4.124v-9.643h-2.687v-4.665h2.687v-4.395l5.873-3.416v7.811H1586.555z"/>
		<path d="M1603.425,1737.549l5.831,0.979c-0.75,2.138-1.934,3.767-3.551,4.884c-1.617,1.118-3.642,1.677-6.071,1.677
			c-3.847,0-6.692-1.257-8.539-3.77c-1.458-2.014-2.187-4.555-2.187-7.623c0-3.666,0.958-6.536,2.874-8.612
			c1.916-2.075,4.339-3.113,7.269-3.113c3.291,0,5.887,1.086,7.789,3.259c1.902,2.174,2.813,5.502,2.729,9.987h-14.662
			c0.041,1.735,0.514,3.086,1.416,4.051s2.027,1.447,3.374,1.447c0.917,0,1.687-0.25,2.312-0.75
			C1602.633,1739.466,1603.105,1738.66,1603.425,1737.549z M1603.758,1731.635c-0.041-1.694-0.479-2.982-1.313-3.864
			c-0.832-0.881-1.846-1.322-3.041-1.322c-1.277,0-2.332,0.466-3.165,1.396c-0.833,0.931-1.243,2.194-1.229,3.791H1603.758z"/>
		<path d="M1635.895,1753.565h-4.02c-2.125-3.207-3.742-6.54-4.854-9.997c-1.11-3.457-1.666-6.804-1.666-10.039
			c0-4.013,0.688-7.81,2.063-11.393c1.193-3.109,2.707-5.978,4.54-8.602h3.999c-1.902,4.207-3.211,7.786-3.926,10.736
			c-0.715,2.951-1.072,6.079-1.072,9.383c0,2.277,0.211,4.61,0.635,6.998c0.424,2.389,1.003,4.658,1.739,6.811
			C1633.818,1748.879,1634.672,1750.913,1635.895,1753.565z"/>
		<path d="M1667.969,1744.589h-6.707l-2.666-6.936h-12.204l-2.521,6.936h-6.539l11.893-30.533h6.518L1667.969,1744.589z
			 M1656.617,1732.509l-4.207-11.33l-4.123,11.33H1656.617z"/>
		<path d="M1674.551,1744.589l-6.998-22.118h5.686l4.145,14.495l3.811-14.495h5.645l3.688,14.495l4.227-14.495h5.77l-7.102,22.118
			h-5.623l-3.813-14.225l-3.748,14.225H1674.551z"/>
	</g>
	<g enable-background="new    ">
		<path d="M1705.104,1753.565c1.152-2.472,1.965-4.367,2.438-5.686c0.471-1.319,0.908-2.84,1.312-4.562
			c0.402-1.722,0.701-3.356,0.896-4.905c0.194-1.548,0.291-3.134,0.291-4.759c0-3.304-0.354-6.432-1.062-9.383
			c-0.708-2.95-2.014-6.529-3.915-10.736h3.978c2.097,2.985,3.725,6.151,4.884,9.497c1.159,3.347,1.739,6.741,1.739,10.185
			c0,2.902-0.458,6.013-1.374,9.331c-1.042,3.721-2.757,7.394-5.145,11.018H1705.104z"/>
	</g>
</g>
<g>
	
		<rect id="rect12069_25_" x="29.816" y="-221.453" fill="#AEB0AD" stroke="#000000" stroke-width="0.5" stroke-miterlimit="10" width="45.801" height="41.046"/>
	<text id="text795" transform="matrix(1 0 0 1 83.0435 -186.1309)" font-family="'Arial-BoldMT'" font-size="42.6543">Tundra climate (ET)</text>
</g>
<sodipodi:namedview  inkscape:cx="250" inkscape:zoom="0.472" borderopacity="1" inkscape:cy="250" showgrid="false" gridtolerance="10" bordercolor="#666666" guidetolerance="10" pagecolor="#ffffff" objecttolerance="10" id="namedview27" inkscape:current-layer="Layer_1" inkscape:window-maximized="0" inkscape:window-x="0" inkscape:window-height="480" inkscape:window-y="0" inkscape:window-width="686" inkscape:pageopacity="0" inkscape:pageshadow="2">
	</sodipodi:namedview>
<sodipodi:namedview  inkscape:cx="250" inkscape:zoom="0.472" borderopacity="1" inkscape:cy="250" showgrid="false" gridtolerance="10" bordercolor="#666666" guidetolerance="10" pagecolor="#ffffff" objecttolerance="10" id="namedview27" inkscape:current-layer="Layer_1" inkscape:window-maximized="0" inkscape:window-x="0" inkscape:window-height="480" inkscape:window-y="0" inkscape:window-width="686" inkscape:pageopacity="0" inkscape:pageshadow="2">
	</sodipodi:namedview>
<g>
	<g>
		<g>
			<g>
				<g>
					<path fill="#FE0000" d="M315.718,498.375c-0.352,0.315-0.915,0.985-1.83,1.935l0,0c-5.207,5.666-16.922,20.55-10.381,32.618
						l0,0c1.442,2.672,3.555,5.17,7.041,7.424c0.068,0.036,0.14,0,0.207,0.036c3.381-1.55,7.005-3.062,11.225-4.293
						C318.04,523.778,316.282,510.865,315.718,498.375z"/>
				</g>
				<g>
					<path fill="none" d="M590.656,323.89c13.861-1.585,27.515-3.625,41.061-6.016"/>
				</g>
				<g>
					<path fill="#FE0000" d="M343.021,532.963c28.71-1.338,69.245,9.289,123.783,51.687c125.541,97.639,195.349-27.903,415.82,0
						c118.789,15.024,309.775,58.231,511.172,79.344c2.219,0.209,4.365,0.493,6.547,0.737c2.182,0.211,4.362,0.493,6.58,0.705l0,0
						c-5.315-10.168-10.593-20.373-16.539-30.367c-7.388-10.376-32.686-25.401-54.115-40.18
						c-14.776-14.355-24.346-29.908-32.262-46.868c-0.849-23.083-14.043-52.286-33.499-77.056
						c-11.224-24.736-24.522-46.586-56.788-46.586c-3.94-0.141-7.036-0.527-10.624-0.739c-0.811-0.104-1.618-0.563-2.395-0.667
						c-8.654-0.775-16.503-1.654-23.788-2.676c-0.279-0.033-0.491-0.069-0.771-0.141c-6.934-0.983-13.368-2.11-19.213-3.34
						c-31.065-8.904-45.776-26.18-74.346-56.65c-27.902-27.867-64.146-55.805-100.49-75.334
						c-19.705-10.519-44.367-11.68-70.196-10.905c-30.048-7.742-61.221-13.09-89.16-14.216
						c-36.098-1.408-66.782,4.292-82.545,20.866c-0.42,0.456-1.232,0.879-1.687,1.371c-2.992,2.851-7.248,5.596-12.455,8.375l0,0
						l0,0l0,0c-24.807,7.46-49.54,16.679-74.734,23.996c-6.334,1.374-13.055,2.357-19.635,3.555
						c-13.511,2.392-27.165,4.431-41.026,6.016c-6.05,0.703-12.243,1.618-18.262,2.146c-11.715,1.021-23.223,1.724-34.164,1.9
						c-8.728,0.14-17.066,0-24.878-0.457c-5.91-0.318-11.504-0.879-16.747-1.548c-15.727-2.11-28.147-5.909-35.502-11.821
						c-1.97-1.549-3.941-2.71-5.946-3.871c-4.644-2.781-9.218-4.539-13.722-5.418c-1.619-0.316-3.273-0.775-4.855-0.845
						c-8.127-0.386-16.043,2.111-23.715,6.86c-9.817,3.483-18.685,8.198-25.159,15.764c-7.988,8.021-19.139,25.828-29.413,45.706
						c-14.357,26.705-27.234,58.302-28.783,76.211c0.704,0.282,1.479,0.282,2.006,0.739c-5.77,15.729-11.156,31.351-16.011,46.234
						v0.037c0.036,0.982,0.212,1.933,0.248,2.919c0.595,12.491,2.321,25.404,6.226,37.754
						C328.034,534.406,335.174,533.315,343.021,532.963z M1240.953,441.374c0.389,0.282,0.739,0.703,1.199,1.055
						C1241.692,442.077,1241.342,441.689,1240.953,441.374z M1115.799,402.143C1115.763,402.143,1115.763,402.143,1115.799,402.143
						c-0.036,0-0.036-0.036-0.07-0.036C1115.729,402.107,1115.763,402.143,1115.799,402.143
						C1115.763,402.143,1115.763,402.143,1115.799,402.143z"/>
				</g>
				<g>
					<path fill="none" d="M1240.953,441.374c0.389,0.282,0.739,0.703,1.199,1.055"/>
				</g>
				<g>
					<line fill="none" x1="1115.763" y1="402.143" x2="1115.729" y2="402.107"/>
				</g>
				<g>
					<line fill="none" x1="1115.799" y1="402.143" x2="1115.763" y2="402.143"/>
				</g>
				<g>
					<line fill="none" x1="726.051" y1="290.358" x2="726.051" y2="290.323"/>
				</g>
				<g>
					<path fill="none" d="M1176.883,420.297c-0.319-0.033-0.531-0.069-0.811-0.141"/>
				</g>
				<g>
					<path fill="none" d="M1115.905,1260.066c3.657-1.756,7.143-3.587,9.639-5.769"/>
				</g>
				<g>
					<path fill="none" d="M1127.691,1251.132c-0.809,1.021-1.092,2.251-2.147,3.166"/>
				</g>
				<g>
					<path fill="none" d="M1113.652,1261.442c0.916-0.388,1.407-0.916,2.253-1.376"/>
				</g>
				<g>
					<path fill="none" d="M953.419,1274.811c-6.053-0.878-12.176-1.617-18.192-2.848"/>
				</g>
				<g>
					<path fill="none" d="M999.087,1278.894c-10.835-0.142-21.533-0.844-32.158-1.971"/>
				</g>
				<g>
					<path fill="none" d="M935.227,1271.963c-1.335-0.247-2.601-0.67-3.904-0.915"/>
				</g>
				<g>
					<path fill="none" d="M966.894,1276.923c-4.504-0.526-8.973-1.442-13.475-2.112"/>
				</g>
				<g>
					<path fill="#3AAAFC" d="M868.339,1169.01c-2.601-0.108-5.242-0.317-7.848-0.424h-0.031c-3.873-0.176-7.777-0.388-11.685-0.563
						c1.69,1.339,3.029,3.028,4.927,4.118c14.636,8.374,29.273-0.457,43.911-1.937
						C887.832,1169.816,878.049,1169.433,868.339,1169.01L868.339,1169.01z"/>
				</g>
				<g>
					<path fill="none" d="M1594.567,1562.665c3.025-0.531,5.806-1.549,8.726-2.289"/>
				</g>
				<g>
					<path fill="none" d="M1594.567,1562.665c-8.021,1.442-16.501,2.109-25.616,1.651"/>
				</g>
				<g>
					<line fill="none" x1="1664.797" y1="1174.885" x2="1664.656" y2="1174.709"/>
				</g>
				<g>
					<path fill="none" d="M1631.02,1551.896c1.691-0.667,3.447-1.231,5.207-1.863"/>
				</g>
				<g>
					<line fill="none" x1="1664.833" y1="1174.92" x2="1664.797" y2="1174.885"/>
				</g>
				<g>
					<path fill="none" d="M504.03,1476.283c-4.575-2.04-8.902-4.292-12.915-6.686"/>
				</g>
				<g>
					<line fill="none" x1="291.439" y1="1433.357" x2="291.403" y2="1433.393"/>
				</g>
				<g>
					<path fill="#3AAAFC" d="M1784.427,1261.334c-11.575-12.77-23.223-21.498-32.649-19.279c-6.333,1.513-11.646,7.777-15.344,20.9
						c-1.83-0.423-2.885-1.022-4.359-1.548c-5.774-4.785-11.72-10.663-17.701-17.734c-2.214-9.675-1.862-20.513-16.994-28.08
						c-4.08-3.236-7.813-6.788-11.329-10.448c-8.588-8.901-15.412-18.753-19.424-28.642c-0.702-0.599-1.195-1.055-1.829-1.583l0,0
						l0,0c-0.067-0.035-0.067-0.103-0.141-0.176c-9.782-8.021-14.672-15.061-14.636-20.865c0,0,0,0-0.036,0
						c-233.807,15.729-496.642,25.229-735.13,16.96l0,0c-2.885-0.107-5.77-0.176-8.654-0.282c2.042,0.316,4.08,0.738,6.121,1.62
						c22.31,8.303,16.783,39.089,41.872,47.394c25.016,8.339,58.548-8.305,83.635-13.969c18.472-5.523,55.066-4.681,77.02,7.742
						c13.374,12.632,18.649,22.622,17.35,30.435c-0.071,0.525-0.319,0.949-0.424,1.408c-0.6,2.287-2.464,4.08-4.047,6.017
						c-0.844,1.02-1.055,2.25-2.183,3.202c-2.462,2.146-5.981,3.977-9.639,5.734c-0.846,0.458-1.337,0.984-2.253,1.371
						c-9.569,4.188-22.096,7.282-35.678,9.818c-27.195,5.594-53.342,8.023-78.888,7.671c-10.835-0.143-21.533-0.845-32.158-1.971
						c-4.502-0.531-8.971-1.443-13.473-2.113c-6.053-0.879-12.176-1.618-18.194-2.849c-1.334-0.245-2.601-0.668-3.868-0.914
						c-19.671-4.188-39.164-9.784-58.619-16.82c-20.903-8.831-41.346-17.733-60.134-25.474c-0.035,0-0.071,0-0.071-0.072
						c0-0.033-0.033,0-0.069-0.033c-5.666-2.742-11.364-5.981-17.029-8.9c-6.298-3.31-12.491-6.406-18.826-9.888
						c-16.746-9.782-27.55-13.087-35.151-12.384c-9.255,0.807-13.686,7.669-18.261,15.973
						c-16.819,18.154-27.583,28.185-41.553,33.564c-9.535,1.761-19.352,2.396-29.45,2.184c-12.175-0.247-24.562-1.302-36.77-1.653
						c-24.454-0.669-48.133,1.406-67.661,18.12c-31.316,29.238-18.93,42.855-43.348,47.886
						c-30.297-0.175-80.296-1.545-128.076,0.669c-8.022-0.35-16.15-0.42-23.926-1.02c-11.86-0.74-23.4-1.231-34.201-0.95
						c-18.437,0.492-34.588,3.8-47.146,12.455c-0.072,0-0.211-0.032-0.284-0.067c-4.503-0.496-8.935,3.833-13.091,10.587
						c-2.037,3.346-3.976,7.216-5.838,11.474c-8.939,20.334-15.939,48.624-18.896,58.124c-1.583,5.068-1.091,10.027,0.036,14.815
						c0,0.033,0.036,0.067,0.036,0.104c2.46,9.817,9.042,18.402,15.128,22.201c0.107,0.069,0.036,0.211,0.176,0.283
						c3.66,2.461,3.448,7.035,1.902,11.893c0,0,0,0,0,0.035c-1.97,6.018-5.982,12.242-8.727,15.796c0,0,0,0-0.036,0
						c-0.104,0.177-0.316,0.528-0.456,0.706c-1.055,1.335-0.847,3.658-0.212,6.367v0.035c1.02,4.047,3.165,9.042,4.996,13.969
						c2.605,7.003,4.29,13.617-0.212,16.222c-2.25,1.3-3.587,3.623-4.359,6.368c0,0,0,0,0,0.035
						c-2.569,9.006,1.407,22.906,1.407,22.906h8.723l-3.236,10.838l0,0l-2.534,8.583l12.636,4.996h0.031l1.375,0.53l1.757,2.354l0,0
						c22.309-13.335,55.136-10.801,79.872-13.545c46.337-7.354,77.793-27.514,122.339-30.577c6.368-0.42,13.017-0.528,19.951-0.176
						c14.673,0.705,28.957,1.375,42.958,1.551c10.558,0.104,20.904-0.035,31.176-0.703c7.741-0.53,15.341-1.305,22.977-2.5
						c22.765-3.519,45.108-10.52,67.522-23.47c21.709-12.633,39.23-21.919,56.788-28.323c5.843-2.182,11.681-3.94,17.663-5.452
						c14.429-3.59,29.733-5.42,48.134-5.703c7.004-0.068,14.428,0.035,22.448,0.388c34.904,1.407,69.953,2.114,105.136,2.356
						c102.388,0.775,205.414-2.074,307.133-2.25c3.023,0,6.088-0.106,9.077-0.106c4.611,0,9.607-0.067,14.708-0.176
						c10.311,0.738,22.517,2.183,37.402,4.398c11.188,1.902,54.606,3.764,81.455,10.592c2.954,1.512,6.052,2.918,8.724,4.75
						c4.963,4.854-0.879,46.057,20.06,43.207c2.988-0.387,6.51-1.688,10.728-4.116c1.478-0.951,3.098-1.479,4.716-2.183
						c2.113-0.984,4.29-1.794,6.581-2.321c2.357-0.6,4.68-1.161,7.14-1.372c4.647-0.387,9.643-0.106,14.78,0.704
						c1.231,0.176,2.602,0.702,3.868,0.948c3.94,0.774,7.884,1.586,12.002,2.888c0.599,0.175,1.267,0.492,1.863,0.702
						c4.855,1.584,9.813,3.379,14.882,5.488c2.71,1.092,5.489,2.429,8.199,3.661c3.025,1.371,6.054,2.637,9.146,4.115
						c11.473,7.847,21.534,15.551,27.412,19.459c-0.812-0.847,6.79,0.353,17.557,2.427c-7.388-3.414-14.988-7.213-22.52-10.979
						c7.531,3.766,15.132,7.529,22.52,10.979l0,0c1.406,0.635,2.746,1.125,4.08,1.76c12.879,5.806,25.406,10.627,36.841,12.735
						c0.036,0,0.069,0,0.104,0c4.189,0.776,8.237,1.196,12.068,1.196l0,0c9.115,0.458,17.558-0.209,25.618-1.651
						c3.024-0.531,5.806-1.549,8.728-2.289c4.783-1.16,9.673-2.218,14.247-3.729c0,0,0.069,0,0.069-0.034
						c24.141-6.299,46.271-14.287,78.854-10.449c33.528,1.653,68.045-9.643,102.353-14.779c7.456-0.913,14.918-1.549,22.341-1.549
						c12.776,0,25.51,1.761,38.108,6.652l0,0c0.42-0.916,0.42-2.041,0.809-3.063c1.97-5.559,2.744-11.609,2.568-18.05
						c0-2.284,0-4.608-0.212-7.001c-1.69-16.115-6.824-33.954-9.571-51.722c1.833-21.957,7.638-44.334,12.033-57.563
						C1872.604,1377.729,1822.357,1289.062,1784.427,1261.334z M539.569,1487.438c-2.745,0.458-5.314,0.738-8.516,1.514
						c-3.448,1.019-6.756,1.653-9.853,1.902c-21.746,1.825-35.537-13.091-59.922-13.091l0,0c-27.232,0-59.111,17.275-88.7,17.661
						c-9.853,0.106-19.46-1.618-28.538-6.473c-0.739-0.422-1.299-0.669-1.971-1.056c3.096-2.675,6.334-5.383,9.642-8.128
						c13.474,3.554,27.794,5.876,41.729,6.157c8.622,0.177,17.066-0.351,25.018-1.761c5.91-1.088,11.612-2.638,16.82-4.748
						c15.69-6.298,27.514-17.453,31.63-35.117c3.133,9.397,12.14,18.088,24.207,25.299c4.013,2.358,8.339,4.646,12.915,6.686
						C515.042,1481.246,527.394,1485.081,539.569,1487.438z M291.439,1433.357C291.439,1433.393,291.403,1433.393,291.439,1433.357
						C291.403,1433.393,291.439,1433.393,291.439,1433.357z M275.535,1468.965c3.237-5.665,6.055-11.646,8.443-17.979
						c2.394-1.336,5.211-2.286,8.658-2.286c1.196,0,2.075,0.456,3.165,0.632c3.134,4.293,7.565,8.445,13.442,12.352
						c1.231,4.75,0.632,9.814-1.69,14.145c-2.532-0.142-5.066-0.283-7.423-0.071c-6.193,0.563-11.964,2.64-17.698,5.523
						C278.42,1478.36,276.099,1473.893,275.535,1468.965z M1631.02,1551.896c1.691-0.667,3.447-1.231,5.207-1.863
						C1634.467,1550.665,1632.711,1551.229,1631.02,1551.896z"/>
				</g>
				<g>
					<path fill="none" d="M1398.937,1509.604c2.321-0.6,4.679-1.161,7.108-1.372"/>
				</g>
				<g>
					<path fill="none" d="M1420.893,1508.937c-5.174-0.773-10.133-1.091-14.78-0.704"/>
				</g>
				<g>
					<path fill="none" d="M1436.798,1512.772c-4.118-1.302-8.097-2.113-12-2.888"/>
				</g>
				<g>
					<path fill="none" d="M1453.508,1518.929c-5.031-2.146-9.957-3.905-14.882-5.488"/>
				</g>
				<g>
					<path fill="none" d="M1461.707,1522.624c-2.71-1.232-5.489-2.569-8.199-3.661"/>
				</g>
				<g>
					<path fill="none" d="M1420.893,1508.937c1.231,0.176,2.602,0.702,3.868,0.948"/>
				</g>
				<g>
					<path fill="none" d="M1438.658,1513.44c-0.595-0.211-1.229-0.493-1.86-0.704"/>
				</g>
				<g>
					<path fill="none" d="M1556.779,1563.12c-11.399-2.108-23.962-6.897-36.877-12.735"/>
				</g>
				<g>
					<line fill="none" x1="1556.883" y1="1563.12" x2="1556.779" y2="1563.12"/>
				</g>
				<g>
					<path fill="none" d="M1515.822,1548.625c1.406,0.635,2.746,1.125,4.08,1.76"/>
				</g>
				<g>
					<line fill="none" x1="1515.822" y1="1548.625" x2="1515.822" y2="1548.625"/>
				</g>
				<g>
					<path fill="none" d="M1515.822,1548.625c-7.388-3.414-14.988-7.213-22.52-10.979"/>
				</g>
				<g>
					<path fill="#3AAAFC" d="M374.688,1098.075l-53.625-7.495l0,0c-0.914,11.296,0.212,22.943,3.344,35.504
						c-5.595-2.078-10.624-3.133-15.128-3.203c-11.788-0.246-19.635,6.51-24.386,17.662l0,0l16.643,5.14l0.811,5.242l0,0
						l4.575,29.099l0,0l0.735,4.642c11.576,0,23.261,0.424,34.837,0.739c8.479,0.213,16.922,0.213,25.401,0.493c0,0,0,0,0.035,0
						c0.036,0,0.072,0,0.108,0c0.948,0.071,2.006,0.107,2.886,0.211c25.261,1.654,50.807,2.464,76.456,2.921
						c15.271,0.563,30.613,1.23,45.88,1.515c20.902,0.386,41.8,0.386,62.771-0.284c6.054-0.384,11.579-0.737,16.75-1.091
						c32.442-2.248,47.323-5.91,64.142-32.369c1.338-2.251,2.781-3.658,4.119-5.522l0,0
						C539.357,1139.24,448.368,1122.038,374.688,1098.075z"/>
				</g>
				<g>
					<path fill="#3AAAFC" d="M271.104,1083.615c-1.023,3.904-1.763,7.951-2.501,11.963l-6.157-5.313l0,0l-1.443-1.268
						c0,0-2.989,4.854-4.431,10.168v0.035c-1.127,4.082-1.443,8.445,1.69,11.224c2.213,1.9,4.854,3.131,7.564,4.011
						c-0.073,0.775-0.249,1.618-0.284,2.323c1.337-0.387,2.254-1.161,3.483-1.548c5.172,0.914,9.958,0.14,11.013-2.922
						c0.212-0.631-0.068-1.3-0.14-1.971c11.504-5.521,21.709-12.314,29.589-21.356l0,0L271.104,1083.615z"/>
				</g>
				<g>
					<path fill="none" d="M1607.094,839.144c1.408,1.341,2.531,2.71,3.798,4.084"/>
				</g>
				<g>
					<path fill="none" d="M1615.22,847.872c0.883,1.091,1.653,2.286,2.5,3.413"/>
				</g>
				<g>
					<line fill="none" x1="1607.094" y1="839.144" x2="1607.094" y2="839.11"/>
				</g>
				<g>
					<path fill="#FF9900" d="M1609.382,835.344c-0.601,0.107-1.055,0.107-1.618,0.284c0.738,0.279,1.51,0.596,2.285,0.842
						C1609.837,836.084,1609.625,835.768,1609.382,835.344z"/>
				</g>
				<g>
					<path fill="#FF9900" d="M914.854,1170.805c238.488,8.23,501.323-1.269,735.13-16.962c0,0,0,0,0.036,0
						c0-7.457,7.811-12.983,23.75-16.079c0.456-0.104,0.738-0.209,1.23-0.317c0.492-0.388,0.667-0.981,1.126-1.371
						c8.867-7.387,11.614-19.985,11.293-34.693c-0.102-4.116-0.527-8.374-1.054-12.771c-0.105-0.842-0.068-1.619-0.176-2.498
						c0-0.035,0-0.106,0-0.14c-4.152-29.594-16.258-63.3-19.494-82.512c-0.49-2.531-1.548-4.503-2.252-6.789
						c1.267-0.071,2.606-0.177,3.871-0.246c1.516-0.107,2.989-0.213,4.469-0.317c-5.807-9.184-13.933-18.719-25.546-29.628
						c-0.56-0.528-1.09-1.02-1.686-1.51c-2.746-2.781-5.384-5.596-8.48-8.271c-3.591-3.061-7.532-6.087-11.612-9.183
						c-1.16-0.843-2.146-1.688-3.306-2.603c-22.73-18.156-1.48-38.106,5.909-55.453c1.689-3.976,2.956-7.882,2.393-11.541
						c-1.723-9.921-6.474-18.612-12.667-26.635c-0.879-1.127-1.619-2.322-2.535-3.413c-1.37-1.583-2.883-3.062-4.326-4.61
						c-1.266-1.372-2.426-2.744-3.763-4.083c0,0,0,0-0.071-0.036c-0.597-1.125-1.125-1.969-1.797-3.164
						c0.881-0.176,1.657-0.176,2.499-0.352c-2.321-0.881-4.608-1.796-6.894-2.676c-5.701-5.032-11.824-9.85-18.085-14.602
						c-10.206-7.813-20.69-15.446-29.981-23.467c-3.48-6.088-6.121-12.597-9.532-18.614c-3.767-6.721-8.62-12.878-16.924-17.029
						c-4.152-2.112-8.272-4.013-12.387-5.982c0,0-0.071,0-0.071-0.037c0,0,0-0.036-0.068-0.036c-2.255-1.51-4.963-2.708-7.461-4.079
						c-7.812-4.258-16.187-8.024-24.982-11.541c-12.383-6.124-24.49-12.527-35.958-20.198c-3.729-2.321-6.687-4.924-9.818-7.458
						c-11.576-13.229-20.371-28.57-28.674-44.508l0,0c-2.182-0.211-4.398-0.459-6.582-0.705c-2.216-0.209-4.362-0.493-6.508-0.739
						c-201.471-21.112-392.457-64.319-511.209-79.343c-220.47-27.9-290.247,97.641-415.821,0
						c-54.502-42.397-95.037-53.025-123.818-51.686c-7.812,0.352-14.921,1.442-20.97,3.2c-4.224,1.234-7.812,2.746-11.224,4.294
						c-4.503,2.076-8.479,4.293-11.612,6.439l0,0c-6.158,19.843-10.873,34.692-13.861,40.674
						c-30.717,66.993-78.111,139.51-136.731,192.569c-4.223,3.767-9.957,7.282-16.466,10.73l0,0l-0.176,0.213l-3.592,2.708
						c-0.843,0.036-1.406-0.104-2.389,0.036h-0.038c-12.491,1.864-34.484,11.295-66.043,30.679
						c-14.813,9.08-19,14.745-18.226,18.261l0,0c0.808,4.014,8.02,5.316,13.723,5.667l-9.043,6.791l0,0
						c10.169-5.136,22.729-8.234,35.291-8.234c94.475,28.887,154.393,161.572,156.574,244.504l8.726-5.487h0.073l7.667-4.787
						l13.303,1.865l0,0l3.165,0.458l38.315,5.35l0,0l11.612,1.616l0,0l53.588,7.496c73.679,23.961,164.669,41.201,266.387,53.164
						l0,0c24.351-33.707,53.872-17.381,90.814-27.973c12.598-4.188,30.72-7.634,47.782-6.967
						c17.102,0.706,33.146,5.595,41.521,18.156c6.685,11.013,22.098,30.542,39.268,34.132c0,0,0,0,0.031,0
						c2.641,0.103,5.247,0.28,7.848,0.418l0,0c9.71,0.425,19.424,0.812,29.238,1.199c2.854,0.104,5.738,0.175,8.551,0.316
						C909.084,1170.628,911.97,1170.697,914.854,1170.805L914.854,1170.805z"/>
				</g>
			</g>
		</g>
	</g>
	<g id="sn_4_">
		<path d="M256.852,1577.23l-4.468-8.866c-1.266-2.535-3.872-5.843-6.789-9.605c-10.102-13.124-26.987-35.081-11.084-51.054
			l2.498-2.323c1.545-1.443,3.061-2.886,4.611-4.258l-3.485,0.493l-2.708-6.369c-5.174-12.031-7.285-28.572,5.874-45.529
			c-5.662-2.184-9.254-5.735-11.432-8.938c-12.986-18.472-2.006-53.27,10.342-87.261c13.969-44.543,50.564-50.386,84.588-50.386
			c9.079,0,18.505,0.46,28.218,1.057c36.136,2.742,74.24,2.742,111.15,2.742c45.285,0,46.727-2.951,52.145-13.859
			c3.836-7.671,9.57-19.282,25.369-34.026c21.394-18.331,46.657-20.653,66.289-20.653c8.375,0,16.817,0.423,25.301,0.913
			c19.456,1.058,38.596,1.375,51.898-1.968c17.097-3.8,22.8-14.426,28.813-25.647c5.594-10.419,12.563-23.4,29.557-23.4
			c9.678,0,21.673,4.361,37.685,13.72c113.015,62.843,199.008,80.015,295.066,60.345c36.451-6.792,45.739-14.392,47.147-19.525
			c0.703-2.606,0.386-10.346-17.77-26.251c-23.646-19.634-46.621-13.828-72.693-3.133c-16.923,6.967-36.311,14.956-58.654,13.689
			c-28.288-1.512-41.306-19.494-51.723-33.922c-13.511-18.61-22.098-25.72-45.038-16.957c-3.728,1.408-7.667,2.111-11.611,2.111
			c-27.092,0-48.343-32.723-52.354-39.305c-7.636-11.434-25.054-13.897-38.316-13.897c-12.915,0-28.043,2.464-40.465,6.547
			c-14.39,4.15-27.34,4.502-38.809,4.855c-22.308,0.598-37.017,1.018-51.303,24.732c-21.389,33.78-42.22,35.083-83.668,37.615
			l-4.364,0.282c-49.189,1.618-97.184-0.494-144.33-2.534c-35.22-1.477-71.638-3.062-107.352-3.062h-14.638l6.583-13.052
			c6.193-12.244,5.347-17.279,4.292-19.178c-1.898-3.412-8.971-5.911-19.424-6.86l-10.869-0.987l3.024-10.483
			c5.875-20.371,19.879-30.962,38.951-28.994c-0.67-4.645-1.058-9.113-1.197-13.476c-13.97,14.109-32.231,25.086-58.547,28.817
			l-7.006,0.984l-2.637-6.545c-2.074-5.172-2.145-11.047-0.212-17.627l-5.279,0.388l-1.897-0.494l-2.605,0.211l-4.468-0.315
			l4.468,0.315l-4.504,0.283l0.141-2.217c4.363-79.905-56.189-218.783-148.902-248.234c-13.865,0.283-28.29,4.857-37.861,12.139
			l-12.386,9.36l-2.038-15.377c-4.435-33.849,35.887-51.055,71.461-66.219c17.698-7.599,34.409-14.707,43.171-22.59
			c51.794-46.866,100.84-115.97,134.549-189.579c3.025-6.122,8.587-23.855,14.952-44.403c36.771-118.329,81.14-244.54,142.68-244.54
			c10.904,0,21.602,4.046,31.879,12.07c5.663,4.539,21.461,11.997,65.092,11.997c81.489,0,184.44-25.475,201.822-44.475
			c15.13-15.972,41.661-23.995,78.887-23.995c84.025,0,200.137,41.343,232.72,73.96c9.497,9.501,17.624,18.015,24.977,25.757
			c39.55,41.448,54.328,56.929,131.28,63.789c26.492,2.782,55.414,22.873,79.517,55.207c18.965,25.403,37.261,62.983,31.775,92.186
			c0.631,7.707,29.201,26.636,44.541,36.805c18.156,12.033,33.886,22.449,40.393,31.595c5.703,9.466,10.488,18.615,15.201,27.691
			c10.099,19.389,19.632,37.754,34.098,52.109c9.321,8.236,23.151,13.795,37.789,19.635c20.582,8.198,41.833,16.678,52.881,35.185
			c8.653,15.131,25.544,27.832,43.419,41.273c25.969,19.564,52.851,39.794,58.231,70.653c1.513,10.66-4.185,20.336-9.747,29.694
			c-9.674,16.397-12.314,23.401-1.827,31.775c24.138,18.154,41.798,33.495,47.78,63.896c1.338,7.809,4.296,18.508,7.459,29.836
			c11.473,41.236,25.759,92.538-2.636,113.156l-3.695,1.584c-13.795,2.499-17.63,6.158-17.873,7.285
			c-0.317,1.126,1.546,6.544,13.44,15.796l1.897,1.478l0.915,2.288c4.996,12.314,14.921,24.876,28.044,35.396
			c15.235,7.388,17.557,19.915,19.212,29.063c1.302,7.071,2.073,11.188,8.619,14.144c6.685-15.516,16.466-19.068,24.03-19.068
			c21.605,0,47.891,29.343,85.256,95.142l1.865,3.235c17.206,28.465,29.662,53.306,20.408,90.356
			c-5,17.416-0.564,37.472,3.728,56.86c4.962,22.447,9.605,43.629,1.304,61.927l-3.553,7.739l-7.919-3.095
			c-22.59-8.796-51.579-5.771-81.701-0.669c-23.29,3.939-48.695,7.492-70.021,3.905c-25.261-4.013-45.666,3.412-67.201,11.332
			c-20.409,7.526-41.448,15.303-68.54,13.86c0,0-0.037,0-0.072,0c-23.927,0-51.863-13.934-81.491-28.71
			c-36.134-17.981-74.379-35.433-94.505-22.907c-6.618,3.871-12.244,5.666-17.521,5.666c-20.691,0-23.085-25.123-24.351-38.635
			c-0.245-2.533-0.565-5.77-0.916-7.707c-23.784-15.093-61.432-17.063-91.832-17.063c-8.093,0-15.975,0.142-23.504,0.246
			c-6.969,0.107-13.582,0.247-19.704,0.247c-46.376,0-93.031,0.632-139.826,1.23c-47.078,0.597-94.229,1.231-141.234,1.231
			c-52.781,0-98.769-0.81-140.603-2.462c-60.096-2.604-86.065,6.403-140.177,37.859c-42.503,24.628-84.236,27.938-119.527,27.938
			c-15.619,0-31.56-0.776-47.923-1.549c-4.891-0.209-7.563-0.281-10.236-0.281c-28.151,0-50.668,7.495-74.559,15.411
			c-17.734,5.91-36.067,11.963-57.74,15.444c-7.038,0.775-14.146,1.127-21.499,1.515c-20.371,0.987-41.448,2.043-56.049,11.188
			L256.852,1577.23z M1410.372,1499.048c25.577,0,55.594,14.956,84.621,29.418c26.46,13.192,53.831,26.843,73.994,26.843
			c2.286,0.108,4.049,0.177,5.806,0.177c20.831,0,37.931-6.333,56.051-12.946c22.555-8.305,46.129-16.959,76.315-12.21
			c19.073,3.204,41.239-0.035,64.147-3.906c27.545-4.643,57.807-8.232,82.051-1.405c2.005-11.965-1.304-27.061-4.785-42.857
			c-4.751-21.568-9.713-43.911-3.557-65.375c7.532-30.189-2.424-49.893-18.508-76.564l-1.969-3.483
			c-44.122-77.653-63.403-86.027-69.633-86.027c-5.065,0-8.479,10.271-9.71,14.671l-2.286,8.269l-8.375-1.898
			c-25.404-5.842-28.078-20.339-29.976-30.893c-1.479-7.985-2.394-12.811-11.193-17.206c-16.254-12.772-27.76-27.126-34.128-41.52
			c-14.637-11.857-20.548-22.625-18.014-32.826c3.448-14.146,21.39-18.648,29.905-20.303c16.115-14.743,3.133-61.401-5.559-92.574
			c-3.412-12.313-6.368-22.94-7.812-31.455c-4.716-23.996-18.648-36.029-41.097-52.919c-23.923-19.071-11.116-40.78-2.602-55.135
			c3.728-6.369,8.022-13.618,7.461-17.77c-4.154-23.539-27.062-40.779-51.304-59.041c-18.576-13.932-37.717-28.393-48.134-46.585
			c-7.813-13.09-25.402-20.126-44.016-27.551c-15.446-6.159-31.421-12.56-43.453-23.256c-16.783-16.679-27.444-37.121-37.721-56.896
			c-4.571-8.76-9.147-17.559-14.287-26.142c-4.188-5.842-20.685-16.785-35.29-26.46c-30.717-20.337-57.244-37.895-52.111-55.946
			c3.381-18.225-8.054-49.609-28.71-77.266c-20.759-27.901-45.739-45.846-66.782-48.063c-83.601-7.389-102.104-26.812-142.572-69.28
			c-7.28-7.636-15.339-16.08-24.699-25.438c-29.975-29.979-142.006-68.684-219.978-68.684c-31.667,0-54.396,6.299-65.692,18.228
			c-24.666,26.986-138.875,50.244-215.017,50.244c-37.437,0-63.122-5.348-76.248-15.867c-7.073-5.527-13.827-8.199-20.723-8.199
			c-53.413,0-103.941,162.486-125.474,231.871c-7.176,23.012-12.347,39.691-15.904,46.797
			c-20.267,44.265-65.408,128.848-138.736,195.244c-11.012,9.888-29.062,17.557-48.169,25.721
			c-20.759,8.867-43.419,18.542-54.256,30.47c9.218-3.203,19.352-4.961,29.346-4.961l2.673,0.389
			c92.54,28.322,152.143,148.2,161.748,234.402c25.933-31.278,75.824-66.322,107.352-66.322c4.927,0,9.431,0.809,13.442,2.356
			l30.821,11.929l-32.649,5.313c-24,3.941-84.378,48.065-101.16,77.83c-1.198,2.11-2.042,3.941-2.642,5.524
			c27.728-7.072,43.704-25.018,58.412-49.508l15.971,8.164c-7.072,16.572-7.812,33.744-2.322,55.734l4.084,16.572l-15.976-5.981
			c-4.714-1.76-8.974-2.64-12.666-2.64c-3.909,0-9.007,0.846-13.091,6.685c10.557,2.569,17.594,7.25,21.394,14.076
			c4.08,7.389,3.517,15.553,1.338,23.045c31.771,0.316,63.754,1.692,94.79,3.025c46.864,2.008,95.21,4.189,142.677,2.502
			l4.187-0.283c40.743-2.463,53.057-3.236,69.42-29.063c19.248-31.983,43.067-32.652,66.112-33.286
			c10.873-0.316,22.096-0.635,33.992-4.047c14.002-4.646,30.82-7.353,45.776-7.353c25.297,0,43.803,7.668,53.517,22.236
			c10.484,17.24,28.782,35.186,42.431,30.012c8.763-3.343,16.539-4.962,23.715-4.962c21.814,0,32.655,14.992,42.225,28.219
			c9.887,13.654,18.438,25.406,38.068,26.461l3.731,0.105c16.886,0,32.302-6.298,47.146-12.419
			c14.567-5.983,29.59-12.174,45.741-12.174c15.904,0,30.754,5.98,45.529,18.226c19.424,17.029,27.023,31.596,23.438,44.755
			c-5.352,19.493-33.887,27.34-61.082,32.441c-25.37,5.208-50.95,7.847-75.791,7.847c-72.834,0-144.261-21.639-231.625-70.265
			c-12.951-7.531-22.59-11.331-28.783-11.331c-5.522,0-7.74,2.814-13.686,13.933c-6.616,12.247-15.623,29.102-40.533,34.623
			c-14.885,3.765-35.678,3.59-57.037,2.43c-8.127-0.46-16.291-0.882-24.313-0.882c-24.911,0-41.13,4.786-54.257,16.047
			c-13.159,12.278-17.661,21.356-21.25,28.64c-9.642,19.352-17.066,23.855-68.296,23.855c-37.225,0-75.718,0-112.347-2.816
			c-9.218-0.527-18.294-0.982-27.021-0.982c-39.97,0-58.76,10.238-66.923,36.521c-7.073,19.492-21.956,60.414-13.301,72.764
			c0.879,1.268,5.63,4.645,16.642,2.215l22.696-5.066c1.127-2.708,3.377-6.051,6.475-9.146l7.037,6.121l6.969-1.582l-4.787,3.448
			l4.362,3.8c-1.757,2.321-3.272,4.924-4.643,7.602c0.068,0.562,1.055,3.447,3.656,6.753c11.895,15.309,53.34,32.372,93.734,32.372
			c19.987,0,54.503-4.507,61.577-34.694l7.247-31.104l10.063,30.329c4.787,14.429,31.667,30.049,62.879,36.734
			c15.655-2.675,27.547-0.634,38.384,2.182c5.63-0.915,10.345-2.499,13.722-4.645c12.035-7.353,13.866-18.015,15.975-30.364
			c3.168-18.543,7.109-41.626,49.825-43.594l83.881-3.839l-81.172,21.57c-16.151,4.257-24.067,23.504-31.775,42.117
			c-8.16,19.739-16.571,40.146-36.59,40.146c-2.956,0-6.017-0.492-9.149-1.479l-5.911-1.618
			c-11.188,1.198-23.892,0.422-37.333-2.111c-1.583,0.283-3.273,0.705-4.959,1.127c-5.138,1.512-10.417,2.322-15.764,2.322
			c-11.151,0-20.268-3.484-29.134-6.827c-8.655-3.307-16.854-6.438-27.126-6.438c-12.211,0-26.001,3.976-40.57,8.199
			c-27.621,8.057-58.269,14.145-80.925,1.9c-40.429-23.786-56.509-9.854-90.638,21.742l-2.217,2.043
			c-4.504,4.539,6.369,18.682,12.878,27.126c1.266,1.655,2.497,3.238,3.588,4.753c17.346-7.812,38.245-8.866,56.965-9.783
			c6.964-0.351,13.722-0.669,19.983-1.337c19.775-3.166,37.405-9.043,54.467-14.707c26.46-8.762,54.152-17.804,89.231-16.115
			c18.157,0.845,33.776,1.616,49.153,1.616c32.897,0,71.709-3.025,110.448-25.472c54.748-31.81,84.446-43.033,149.961-40.324
			c41.589,1.69,87.366,2.465,139.897,2.465c46.935,0,94.017-0.637,140.985-1.232c46.869-0.598,93.632-1.232,140.075-1.232
			c6.05,0,12.526-0.14,19.352-0.243c41.237-0.635,94.155-2.045,128.077,21.426c5.064,4.785,5.629,10.626,6.472,19.422
			c0.635,6.686,2.11,22.309,6.406,22.309c1.123,0,3.621-0.422,8.231-3.062C1390.738,1501.513,1399.99,1499.048,1410.372,1499.048z
			 M277.965,1441.942l-9.538,6.825c-17.59,12.599-20.123,23.752-18.648,32.37c14.392-4.748,19.635-16.644,26.357-34.375
			C276.731,1445.144,277.366,1443.525,277.965,1441.942z M291.016,1458.303c-1.475,3.767-3.093,7.602-4.995,11.401
			c4.643-1.618,9.429-2.676,14.426-3.028C296.822,1464.003,293.621,1461.19,291.016,1458.303z"/>
	</g>
</g>
</svg>
