<?xml version="1.0" encoding="UTF-8" standalone="no"?>
<!-- Created with Inkscape (http://www.inkscape.org/) -->

<svg
   xmlns:i="http://ns.adobe.com/AdobeIllustrator/10.0/"
   xmlns:dc="http://purl.org/dc/elements/1.1/"
   xmlns:cc="http://creativecommons.org/ns#"
   xmlns:rdf="http://www.w3.org/1999/02/22-rdf-syntax-ns#"
   xmlns:svg="http://www.w3.org/2000/svg"
   xmlns="http://www.w3.org/2000/svg"
   xmlns:sodipodi="http://sodipodi.sourceforge.net/DTD/sodipodi-0.dtd"
   xmlns:inkscape="http://www.inkscape.org/namespaces/inkscape"
   width="710.79004"
   height="250.00002"
   id="svg13343"
   sodipodi:version="0.32"
   inkscape:version="0.48.0 r9654"
   version="1.0"
   sodipodi:docname="Society kingdoms.svg"
   inkscape:output_extension="org.inkscape.output.svg.inkscape">
  <sodipodi:namedview
     id="base"
     pagecolor="#ffffff"
     bordercolor="#666666"
     borderopacity="1.0"
     inkscape:pageopacity="0.0"
     inkscape:pageshadow="2"
     inkscape:zoom="0.68755017"
     inkscape:cx="590.63194"
     inkscape:cy="202.9898"
     inkscape:document-units="px"
     inkscape:current-layer="g12613"
     showgrid="false"
     inkscape:window-width="1280"
     inkscape:window-height="782"
     inkscape:window-x="0"
     inkscape:window-y="22"
     fit-margin-top="0"
     fit-margin-left="0"
     fit-margin-right="0"
     fit-margin-bottom="0"
     inkscape:window-maximized="0" />
  <defs
     id="defs13345">
    <marker
       style="overflow:visible"
       id="Arrow1Lstart"
       refX="0"
       refY="0"
       orient="auto"
       inkscape:stockid="Arrow1Lstart">
      <path
         transform="matrix(0.8,0,0,0.8,10,0)"
         style="fill-rule:evenodd;stroke:#000000;stroke-width:1pt;marker-start:none"
         d="M 0,0 5,-5 -12.5,0 5,5 0,0 z"
         id="path8206"
         inkscape:connector-curvature="0" />
    </marker>
    <inkscape:perspective
       sodipodi:type="inkscape:persp3d"
       inkscape:vp_x="0 : 526.18109 : 1"
       inkscape:vp_y="0 : 1000 : 0"
       inkscape:vp_z="744.09448 : 526.18109 : 1"
       inkscape:persp3d-origin="372.04724 : 350.78739 : 1"
       id="perspective13351" />
  </defs>
  <metadata
     id="metadata13348">
    <rdf:RDF>
      <cc:Work
         rdf:about="">
        <dc:format>image/svg+xml</dc:format>
        <dc:type
           rdf:resource="http://purl.org/dc/dcmitype/StillImage" />
        <dc:title></dc:title>
      </cc:Work>
    </rdf:RDF>
  </metadata>
  <g
     inkscape:label="Calque 1"
     inkscape:groupmode="layer"
     id="layer1"
     transform="translate(-1280.8471,-13.408094)">
    <path
       id="path3063"
       style="fill:none;stroke:#404040;stroke-width:0.58187485px;stroke-linecap:butt;stroke-linejoin:miter;stroke-opacity:1;display:inline;enable-background:new"
       d="m 1779.7525,-311.4277 -14.462,1386.4417 M 1109.008,-319.09249 1099.9451,1071.7038 M 437.75205,-322.15301 433.54401,1068.6665 m -664.20821,-694.73731 1335.0623,4.12583 1340.1629,14.23865"
       inkscape:connector-curvature="0" />
    <g
       transform="matrix(7.6028251e-4,0,0,7.6028251e-4,1054.4804,6403.0538)"
       style="display:inline;enable-background:new"
       id="g12325" />
    <g
       style="display:inline;enable-background:new"
       id="g12613"
       transform="matrix(7.6028251e-4,0,0,7.6028251e-4,2214.0001,5056.1085)">
      <rect
         style="fill:#daf0fd;fill-opacity:1;stroke:#000000;stroke-width:3275.16455078;stroke-linecap:round;stroke-linejoin:round;stroke-miterlimit:4;stroke-opacity:1;stroke-dasharray:none;stroke-dashoffset:0;display:inline;enable-background:new"
         id="rect12323"
         width="931627.31"
         height="325549.97"
         x="-1225739"
         y="-6631029" />
      <path
         style="fill:none;fill-opacity:0.48387098000000001;stroke:#ff8200;stroke-width:3288.25136329999990000;stroke-linecap:butt;stroke-linejoin:miter;stroke-miterlimit:4;stroke-opacity:1;stroke-dasharray:3288.25136329999990000, 3288.25136329999990000;stroke-dashoffset:0;display:inline;enable-background:new"
         d="m -710024.87,-6507081.6 c -12350.1,10000.9 -7591.3,20943.5 -185.3,40859.7 2029,4734.5 18937.9,29083.4 21643.4,33141.5 2705.4,4058.1 14879.8,47344.9 16908.9,55461.2 2029,8116.3 10145.3,23672.5 16232.5,24348.9 6087.2,676.3 18938,-3381.8 20290.7,-8792.7 1352.7,-5410.8 -676.3,-20967 -676.3,-23672.5 0,-2705.4 -676.4,-16908.9 -6763.6,-25701.5 -6087.2,-8792.6 -21643.4,-44639.5 -21643.4,-44639.5 l -14676.3,-27659.2 c -3551.8,-4051.8 -2393.3,-8972.4 -3206.1,-13365.2 -2619.4,-13702.7 -16278.8,-18894.6 -27924.5,-9980.7 z"
         id="path3597-1"
         inkscape:connector-curvature="0"
         sodipodi:nodetypes="ccsssssscccc" />
      <path
         style="fill:none;fill-opacity:0.48235294000000001;stroke:#ff0000;stroke-width:3288.25136329999990000;stroke-linecap:butt;stroke-linejoin:miter;stroke-miterlimit:4;stroke-opacity:1;stroke-dasharray:3288.25136329999990000, 3288.25136329999990000;stroke-dashoffset:0"
         d="m -741358.86,-6482389.8 c -2019.98,-8969 -4477.64,-32627.1 -10355.08,-39646.5 -10127.58,-8143.2 -9380.45,-260.5 -15680.95,-4273.2 -12461.94,-8455.5 -10147.4,16056.9 -8238.84,24386.7 2101.36,13490.1 2020.97,27667.3 5968.64,40718.4 8025.35,10843.5 20417.32,3039.2 27921.4,-2795.3 3290.97,-3686.5 2267.32,-9772.3 1244.9,-14566.3 -282.23,-1272.2 -571.54,-2542.5 -860.07,-3823.8 z"
         id="path3597"
         inkscape:connector-curvature="0"
         sodipodi:nodetypes="sccccccs" />
      <path
         style="fill:none;fill-opacity:0.48235294000000001;stroke:#00008c;stroke-width:2.50000008999999990;stroke-linecap:butt;stroke-linejoin:miter;stroke-miterlimit:4;stroke-opacity:1;stroke-dasharray:2.50000008999999990, 2.50000008999999990;stroke-dashoffset:0;display:inline;enable-background:new"
         d="M 53.78125 7.3125 C 53.253386 7.307026 52.701294 7.3326523 52.125 7.375 C 38.56635 8.64528 22.819223 15.360482 20.25 30.34375 C 12.358039 45.319947 7.2394329 62.004189 9.25 79 C 12.436876 93.875307 26.476143 102.34359 36.65625 112.25 C 48.866691 120.87533 64.599608 117.31921 78.5625 119.53125 C 92.524328 117.69676 105.89337 129.45305 119.40625 122 C 119.51482 121.96391 119.6122 121.9125 119.71875 121.875 C 123.43152 121.28379 128.82921 119.96091 134.53125 116.90625 C 144.71232 111.4521 166.17377 106.38902 172.71875 103.84375 C 179.26373 101.29848 197.7903 101.2754 205.0625 99.09375 C 212.33469 96.912091 221.08587 98.744159 229.8125 96.5625 C 238.53914 94.380841 251.62558 92.195969 259.625 91.46875 C 263.73075 91.0955 271.30695 90.93218 277.78125 90.84375 C 278.95714 90.913336 280.05246 90.941732 280.96875 90.9375 C 297.36993 92.207856 314.00178 96.659338 330.375 95.28125 C 345.23259 87.674623 339.33942 68.411035 334.46875 56.40625 C 331.00792 50.796049 323.58886 50.326028 317.6875 50.25 C 316.11852 50.24445 314.55004 50.249468 312.96875 50.25 C 301.89973 50.253345 290.64184 50.740563 280.84375 56.59375 C 273.02903 61.84952 262.7094 64.106819 256.0625 70.5625 C 252.76159 73.039562 253.53118 75.565868 243.625 78.75 C 233.44392 82.022488 228.71816 84.193341 220.71875 86.375 C 212.71933 88.556659 204.33441 93.659171 193.0625 94.75 C 181.7906 95.84083 158.9118 100.1875 157.09375 100.1875 C 155.2757 100.1875 135.26694 100.90625 133.8125 100.90625 L 120 100.90625 C 118.59925 100.58016 117.05078 100.42678 115.34375 100.53125 C 96.434308 99.98225 75.2997 99.297921 60.03125 86.625 C 47.142181 73.798122 52.494603 54.003159 59.46875 39.625 C 63.672124 30.089917 70.146179 7.4837156 53.78125 7.3125 z "
         transform="matrix(1315.3005,0,0,1315.3005,-1227376.6,-6632666.6)"
         id="path3597-7" />
      <g
         transform="matrix(1315.3024,0,0,1315.3024,-1224750.2,-7772283)"
         style="display:inline;overflow:visible;enable-background:new"
         id="g12"
         i:knockout="Off">
        <path
           id="polyline14"
           d="m 48.727001,882.99597 c 0.522553,-0.49007 1.030021,-1.43644 0.112,-1.66797 0.342796,-0.8711 -1.877008,-1.10597 -1.522999,-0.22302 0.58586,-0.56605 1.281578,0.19739 1.299999,0.66803 0.66442,0.22782 -0.17434,1.23585 -0.663002,1.474 -0.701948,-0.38001 -0.323986,-0.22575 -0.332001,0.33301 -0.334655,0.91779 1.081286,-0.27181 1.108002,-0.58301"
           style="fill:#fefee4;stroke:#0978ab"
           inkscape:connector-curvature="0" />
        <path
           id="polyline16"
           d="m 46.994999,881.42603 c -0.165958,0.42187 -0.740073,-0.75965 -0.183998,-0.34803 -0.154575,-0.66385 0.213052,0.35442 0.183998,0.34699"
           style="fill:#fefee4;stroke:#0978ab"
           inkscape:connector-curvature="0" />
        <path
           id="polyline18"
           d="m 46.200001,881.52301 c 0.267954,-0.46048 0.781289,0.75519 0.111999,0.16602 -0.05784,-0.0396 -0.101003,-0.10346 -0.111999,-0.16602 z"
           style="fill:#fefee4;stroke:#0978ab"
           inkscape:connector-curvature="0" />
        <path
           id="polyline20"
           d="m 46.478001,881.94 c -0.624682,-0.54317 -0.08468,0.38119 -0.605999,0.25 -0.666094,0.421 0.420903,1.29593 0.445999,0.38898 0.01052,-0.44482 0.964197,-0.56471 0.170997,-0.63995"
           style="fill:#fefee4;stroke:#0978ab"
           inkscape:connector-curvature="0" />
        <path
           id="polyline22"
           d="m 47.195999,881.23401 c -0.44514,-0.56043 0.01673,-0.5958 0,0 z"
           style="fill:#fefee4;stroke:#0978ab"
           inkscape:connector-curvature="0" />
      </g>
      <g
         transform="matrix(1315.3024,0,0,1315.3024,-1224750.2,-7772283)"
         style="display:inline;overflow:visible;enable-background:new"
         id="g24"
         i:knockout="Off">
        <path
           id="polyline26"
           d="m 30.979,949.16199 c 0.337188,0.28981 0.951172,0.13317 1.104,0.50103 0.408585,-0.20595 0.44648,0.1733 0.800999,0.13898 0.472343,0.081 0.02033,0.61129 0.664001,0.52802 0.54775,0.0757 0.0608,0.2566 0.578999,0.41797 0.489516,0.46552 1.128049,0.5863 1.132999,1.22198 1.024313,0.45899 0.481539,-1.31477 -0.359996,-1.30597 -1.15845,-0.80228 -2.40979,-1.37732 -3.638003,-2.00299 -0.201913,0.12156 -0.175371,0.33832 -0.275999,0.50098"
           style="fill:#fefee4;stroke:#0978ab"
           inkscape:connector-curvature="0" />
        <path
           id="polyline28"
           d="m 34.978001,952.44 c -0.422031,1.17957 0.721152,1.93856 1.186,2.698 0.314422,0.99978 1.852729,0.3013 1.608998,1.39002 -0.121076,0.41615 -0.300846,1.28695 0.389,1.02801 0.25843,-0.89968 0.266589,-2.40071 -0.913998,-2.27905 -0.820597,-0.32584 -1.40971,-1.21463 -1.849003,-1.94696 -0.217705,-0.41056 0.154058,-1.12125 -0.414997,-0.89002"
           style="fill:#fefee4;stroke:#0978ab"
           inkscape:connector-curvature="0" />
        <path
           id="polyline30"
           d="m 36.311001,958.41199 c 0.199769,0.12135 0.757183,0.57462 0.633999,0.056 -0.302246,-0.27156 -0.103486,-0.42394 -0.633999,-0.056 z"
           style="fill:#fefee4;stroke:#0978ab"
           inkscape:connector-curvature="0" />
        <path
           id="polyline32"
           d="m 29.106001,950.24402 c -0.460558,-0.17081 -1.100138,0.89374 -1.317001,1.39197 -1.005094,1.50239 0.137137,3.2725 -0.469,4.95099 -0.06563,0.63098 0.100726,1.70371 0.496999,1.807 -0.103367,-0.89254 -0.35008,-2.03879 -0.137998,-3.00397 -0.143941,-1.32701 -0.452018,-2.98769 0.578998,-4.08801 0.212641,-0.38407 0.546413,-0.70153 0.850001,-1.05603"
           style="fill:#fefee4;stroke:#0978ab"
           inkscape:connector-curvature="0" />
        <path
           id="polyline34"
           d="m 28.684999,958.91602 c -0.385323,-0.55335 -0.0759,0.0868 -0.232,0.44097 0.107234,0.64594 0.198543,-0.26785 0.235001,-0.44097"
           style="fill:#fefee4;stroke:#0978ab"
           inkscape:connector-curvature="0" />
      </g>
      <g
         transform="matrix(1315.3024,0,0,1315.3024,-1224750.2,-7772283)"
         style="display:inline;overflow:visible;enable-background:new"
         id="g44"
         i:knockout="Off">
        <path
           id="polyline46"
           d="m 104.99,977.57898 c -1.0202,0.0542 -0.45477,1.07218 0.238,0.63904 1.19558,0.57148 0.32884,1.91113 1.162,2.69598 0.33505,0.68735 0.71435,1.31199 1.19,1.94702 0.59147,0.63615 -1.22652,1.28603 0.157,1.30097 0.13413,-0.0264 -0.87737,1.28916 -0.01,0.49304 1.10203,-1.2364 -0.062,-2.4177 -0.664,-3.37805 -0.42309,-0.87824 -0.94185,-1.55956 -0.778,-2.52997 -0.39519,-0.3614 -0.75064,-1.08244 -1.294,-1.16699"
           style="fill:#fefee4;stroke:#0978ab"
           inkscape:connector-curvature="0" />
        <path
           id="polyline48"
           d="m 103.894,978.41199 c -0.23946,-0.0379 -0.55155,-0.4808 -0.415,-0.52802 0.72493,-0.10309 0.74396,-0.11506 0.415,0.52802 z"
           style="fill:#fefee4;stroke:#0978ab"
           inkscape:connector-curvature="0" />
        <path
           id="polyline50"
           d="m 102.766,979.08002 c -0.32543,-0.96324 -0.20253,0.32557 0.002,0"
           style="fill:#fefee4;stroke:#0978ab"
           inkscape:connector-curvature="0" />
        <path
           id="polyline52"
           d="m 102.589,979.60699 c 0.51651,-0.70588 -0.53453,-0.20792 0,0 z"
           style="fill:#fefee4;stroke:#0978ab"
           inkscape:connector-curvature="0" />
        <path
           id="polyline54"
           d="m 102.478,979.80103 c 0.0628,-0.56522 -0.66943,-0.0936 -0.359,0.056 0.0926,-0.3594 0.23551,0.0629 0.359,-0.055"
           style="fill:#fefee4;stroke:#0978ab"
           inkscape:connector-curvature="0" />
        <path
           id="polyline56"
           d="m 102.255,980.66199 c 0.37754,-0.37342 -0.79925,-0.70659 -0.293,-0.27802 -0.75294,-0.34673 0.13415,0.46208 0.296,0.27802"
           style="fill:#fefee4;stroke:#0978ab"
           inkscape:connector-curvature="0" />
        <path
           id="polyline58"
           d="m 101.617,981.74597 c 0.20883,-0.3737 0.52153,-0.88671 -0.25,-0.55694 -0.47829,-0.35209 -0.97092,0.42562 -0.3,0.362 0.19833,-0.009 0.39307,0.2787 0.55,0.19494 z"
           style="fill:#fefee4;stroke:#0978ab"
           inkscape:connector-curvature="0" />
      </g>
      <g
         transform="matrix(1315.3024,0,0,1315.3024,-1224750.2,-7772283)"
         style="display:inline;overflow:visible;enable-background:new"
         id="g12101"
         i:knockout="Off">
        <path
           id="path12103"
           d="m 271.478,946.63397 c 0.71871,-0.14012 0.64519,-1.05181 0.19201,-1.41894 -0.22524,-0.69158 -0.36717,-1.98142 0.74799,-1.94605 0.5162,0.2195 1.69455,-0.0651 0.99499,-0.69501 -0.87638,0.44099 -2.55594,0.0237 -2.51599,1.50104 -0.21572,0.8723 -1.12418,2.99841 0.581,2.55701"
           style="fill:#fefee4;stroke:#0978ab"
           inkscape:connector-curvature="0" />
        <path
           id="path12105"
           d="m 275.20001,948.91199 c 0.65878,-0.0776 -0.13248,-1.38398 -0.11001,-0.36096 -0.0502,0.0782 0.004,0.33904 0.11001,0.36096 z"
           style="fill:#fefee4;stroke:#0978ab"
           inkscape:connector-curvature="0" />
        <path
           id="path12107"
           d="m 275.53299,947.44 c 0.23671,0.42673 0.005,1.26757 0.22101,1.39002 0.48678,-0.51277 0.33718,-1.13689 -0.22101,-1.39002 z"
           style="fill:#fefee4;stroke:#0978ab"
           inkscape:connector-curvature="0" />
        <path
           id="path12109"
           d="m 275.03299,946.27301 c 0.24148,-0.70712 0.63645,-1.89233 -0.38998,-2.11401 -0.52934,0.0321 -0.73987,-0.0786 -1.05201,0.47302 -0.5604,0.11048 -0.43697,1.00771 -1.05099,0.94598 0.18883,0.9989 1.28651,-0.49136 1.57699,0.44501 0.31415,-8.7e-4 0.56903,0.3892 0.91599,0.25 z"
           style="fill:#fefee4;stroke:#0978ab"
           inkscape:connector-curvature="0" />
        <path
           id="path12111"
           d="m 276.005,945.80103 c 1.12406,-4.5e-4 0.84367,-1.34275 0.66401,-2.11304 -0.36655,-0.59748 -1.27894,-1.01314 -1.853,-1.47296 -0.75436,-0.3256 -0.62784,1.55915 -0.057,0.612 0.66976,0.21641 1.30674,0.78613 1.685,1.36297 0.4097,0.80119 -0.70621,1.09261 -0.44299,1.61103"
           style="fill:#fefee4;stroke:#0978ab"
           inkscape:connector-curvature="0" />
        <path
           id="path12113"
           d="m 274.005,943.05103 c -0.73442,-0.49276 0.72377,-1.28867 0,0 z"
           style="fill:#fefee4;stroke:#0978ab"
           inkscape:connector-curvature="0" />
      </g>
      <g
         transform="matrix(1315.3024,0,0,1315.3024,-1224750.2,-7772283)"
         style="display:inline;overflow:visible;enable-background:new"
         id="g12115"
         i:knockout="Off">
        <path
           id="path12117"
           d="m 355.03299,967.66302 c 0.41738,-0.7342 0.30067,-1.03489 -0.61298,-1.057 -0.17677,-0.30674 0.57106,-0.58605 -0.053,-1.00104 -0.96174,-0.40571 -1.85519,-0.4359 -2.84899,-0.69598 -0.10516,-0.66244 -0.67525,-0.30313 -0.88501,-0.27802 0.28773,-0.54913 0.85972,-0.73222 1.216,-0.16699 0.56981,0.4194 1.52888,-0.69541 1.85501,-0.13898 0.12027,0.75457 0.90835,0.78354 1.495,1.05701 0.10524,-0.5877 0.64229,-0.42856 0.496,-0.94702 0.40037,-0.63166 -1.04193,-0.51089 -1.495,-0.61103 -0.40147,-1.09728 0.69894,-0.28009 1.18198,-0.33398 0.563,0.28749 1.34691,0.29398 1.108,-0.52698 0.31465,-0.62255 0.0439,-1.14698 -0.60898,-0.97302 -0.59315,-0.14826 -0.95687,-0.5406 -0.19501,-0.77801 0.0617,-0.69639 -1.00065,-0.39984 -1.27401,-0.83497 -0.61596,0.11522 -0.64745,-0.62591 -0.77399,-0.89001 -0.43618,-0.35745 -0.98203,-0.17627 -0.71799,0.33398 -0.19116,0.42433 -0.75996,-2.0012 -0.96701,-0.557 -0.54662,0.93507 0.0582,-0.95775 -0.74801,-0.55597 -0.62728,0.44909 -1.08229,-0.10741 -1.76899,-0.083 -0.53305,-0.67943 -1.40673,-0.0593 -1.79501,0.41699 0.0298,0.77614 -0.80323,0.003 -1.02298,0.64002 -0.60989,0.34307 -0.5213,1.14126 -0.88602,1.362 -0.79067,0.0816 -0.48324,1.01634 0.16501,1.02801 0.007,0.53647 -1.35437,0.32013 -0.72201,1.16797 -0.11342,0.68036 0.16176,0.95841 0.71902,0.77802 -0.92393,0.17126 -0.26997,1.18795 0.46698,1.11199 0.38264,0.54392 0.90643,-0.17786 1.38202,-0.029 0.24998,-0.14921 1.37645,-0.76408 0.77698,-0.10998 -0.37329,0.47207 -1.23958,0.63802 -1.35098,1.05694 0.48889,0.24847 0.95728,1.22296 1.38098,0.44501 0.32912,0.41868 0.14026,1.57758 1.052,1.25104 0.1346,0.62002 0.96308,0.77302 0.776,-10e-4 0.46331,-0.58639 -0.40982,-1.4176 -0.19299,-1.77997 0.27362,0.5757 0.63346,0.66375 0.91101,0.138 0.40224,0.3499 -0.12937,1.21325 0.38598,1.27997 0.38931,-0.065 0.16985,1.13622 0.168,1.50104 -0.12183,0.65637 0.77919,-0.58688 1.13202,9.8e-4 0.51153,-0.11983 1.08618,0.0144 1.43698,-0.5 0.66731,-0.0416 -0.54532,-1.22138 0.27301,-0.80701 0.10283,0.0766 0.50436,0.44244 0.525,0.083"
           style="fill:#fefee4;stroke:#0978ab"
           inkscape:connector-curvature="0" />
        <path
           id="path12119"
           d="m 343.39499,961.63397 c -0.31043,-0.45875 -0.28032,-0.78555 0.13901,-1.19494 0.60862,0.40805 -0.0675,0.59139 -0.082,0.66796 0.491,0.17998 0.41409,0.57603 -0.053,0.52802"
           style="fill:#fefee4;stroke:#0978ab"
           inkscape:connector-curvature="0" />
        <path
           id="path12121"
           d="m 348.117,956.69 c -0.608,0.13545 -1.50746,0.40926 -1.66,-0.22198 -0.79606,0.0788 0.24843,-0.72231 0.69101,-0.41699 0.83923,0.0813 1.89161,-0.15945 2.71298,-0.056 0.4178,-0.10701 1.52281,0.2844 1,0.47198 -0.008,-0.14475 -0.42914,-0.20175 -0.526,0.055 -0.0737,0.13286 -0.25895,-0.71416 -0.272,-0.138 0.0234,0.43521 -0.91196,0.31149 -0.608,-0.19494 -0.36821,0.10681 -0.23502,0.48303 -0.499,0.028 -0.13474,0.7932 -0.14746,0.19407 -0.333,-0.029 0.0788,0.92455 -0.43864,-0.24573 -0.60798,0.13904 0.30318,0.0739 0.18644,0.24383 0.111,0.362"
           style="fill:#fefee4;stroke:#0978ab"
           inkscape:connector-curvature="0" />
        <path
           id="path12123"
           d="m 351.228,956.41302 c -0.26493,-0.84483 0.54897,0.22498 0.002,-10e-4"
           style="fill:#fefee4;stroke:#0978ab"
           inkscape:connector-curvature="0" />
        <path
           id="path12125"
           d="m 352.06201,956.49597 c 0.45104,-0.17117 -0.17654,-0.4717 -0.002,10e-4"
           style="fill:#fefee4;stroke:#0978ab"
           inkscape:connector-curvature="0" />
        <path
           id="path12127"
           d="m 352.31201,956.55103 c 0.70361,0.39745 0.056,-0.78616 9.8e-4,9.7e-4"
           style="fill:#fefee4;stroke:#0978ab"
           inkscape:connector-curvature="0" />
        <path
           id="path12129"
           d="m 352.75601,956.60699 c 0.82015,0.43703 0.17363,-0.74273 0.003,0"
           style="fill:#fefee4;stroke:#0978ab"
           inkscape:connector-curvature="0" />
        <path
           id="path12131"
           d="m 353.45001,956.80103 c 0.41844,-0.49554 -0.30973,-0.54767 0,9.7e-4"
           style="fill:#fefee4;stroke:#0978ab"
           inkscape:connector-curvature="0" />
        <path
           id="path12133"
           d="m 353.83899,956.74597 c 0.60398,0.27045 0.20189,-0.8538 -0.002,0"
           style="fill:#fefee4;stroke:#0978ab"
           inkscape:connector-curvature="0" />
        <path
           id="path12135"
           d="m 354.59,957.05103 c 0.37357,-0.29762 0.11621,-0.62763 0.49899,-0.44501 -0.27353,-0.4141 -0.9894,-0.25346 -0.414,0.056 -0.084,0.1297 -0.23487,0.25375 -0.082,0.38904"
           style="fill:#fefee4;stroke:#0978ab"
           inkscape:connector-curvature="0" />
        <path
           id="path12137"
           d="m 355.03299,957.32898 c 0.28732,0.324 0.8046,1.41812 0.83002,0.50104 -0.33889,-0.38002 -0.61922,-1.55766 -1.08002,-0.724 0.15429,0.18353 0.73029,-0.1141 0.24802,0.22296"
           style="fill:#fefee4;stroke:#0978ab"
           inkscape:connector-curvature="0" />
        <path
           id="path12139"
           d="m 356.20001,958.88397 c 0.68532,-0.082 -0.42889,-0.69718 -0.11001,-0.19397 l 0.11099,0.11103 0,0.0829"
           style="fill:#fefee4;stroke:#0978ab"
           inkscape:connector-curvature="0" />
        <path
           id="path12141"
           d="m 357.811,960.13397 c 0.73833,-0.062 -0.18042,-0.52945 0,10e-4"
           style="fill:#fefee4;stroke:#0978ab"
           inkscape:connector-curvature="0" />
        <path
           id="path12143"
           d="m 357.31201,965.10699 c -0.20382,0.67751 0.46279,-0.11743 0.002,0"
           style="fill:#fefee4;stroke:#0978ab"
           inkscape:connector-curvature="0" />
        <path
           id="path12145"
           d="m 357.39499,965.77301 c -0.80821,-0.73434 -0.0417,0.55736 10e-4,0"
           style="fill:#fefee4;stroke:#0978ab"
           inkscape:connector-curvature="0" />
        <path
           id="path12147"
           d="m 351.228,968.19 c 0.57507,-0.63879 -0.55253,-0.51511 -0.001,0"
           style="fill:#fefee4;stroke:#0978ab"
           inkscape:connector-curvature="0" />
      </g>
      <g
         transform="matrix(1315.3024,0,0,1315.3024,-1224750.2,-7772283)"
         style="display:inline;overflow:visible;enable-background:new"
         id="g12149"
         i:knockout="Off">
        <path
           id="path12151"
           d="m 357.811,974.77301 c -0.24995,-0.51264 -0.73889,0.1895 0,0 z"
           style="fill:#fefee4;stroke:#0978ab"
           inkscape:connector-curvature="0" />
        <path
           id="path12153"
           d="m 357.53299,975.10699 c -0.0505,0.73099 0.64361,-0.16788 -9.8e-4,0"
           style="fill:#fefee4;stroke:#0978ab"
           inkscape:connector-curvature="0" />
        <path
           id="path12155"
           d="m 360.84,979.57898 c 0.39927,0.57589 1.33528,-0.69807 0.44299,-0.13898 -0.1752,0.20741 -0.31876,0.0732 -0.44199,0.13898"
           style="fill:#fefee4;stroke:#0978ab"
           inkscape:connector-curvature="0" />
        <path
           id="path12157"
           d="m 361.70001,980.05103 c 0.30997,0.35776 0.47017,-0.47805 9.8e-4,0"
           style="fill:#fefee4;stroke:#0978ab"
           inkscape:connector-curvature="0" />
        <path
           id="path12159"
           d="m 357.97699,992.52301 c 0.021,-0.84019 -1.6996,0.1766 -0.63098,-0.027 0.24528,-0.12884 0.40351,-0.008 0.63498,0.028"
           style="fill:#fefee4;stroke:#0978ab"
           inkscape:connector-curvature="0" />
        <path
           id="path12161"
           d="m 357.478,991.38397 c 0.68358,-0.3686 -0.46834,-1.32051 -0.16599,-0.41699 0.12089,0.10627 0.0148,0.31993 0.16498,0.41803"
           style="fill:#fefee4;stroke:#0978ab"
           inkscape:connector-curvature="0" />
        <path
           id="path12163"
           d="m 352.95001,989.52301 c 0.41509,0.20802 0.99567,-0.86905 0.358,-0.30603 -0.0769,0.16733 -0.318,0.11654 -0.36001,0.30603"
           style="fill:#fefee4;stroke:#0978ab"
           inkscape:connector-curvature="0" />
        <path
           id="path12165"
           d="m 353.09,988.71802 c 0.58175,-0.33136 -0.34493,-0.27531 0,-10e-4"
           style="fill:#fefee4;stroke:#0978ab"
           inkscape:connector-curvature="0" />
        <path
           id="path12167"
           d="m 352.70001,988.05103 c 0.23822,0.44639 0.41899,-0.64406 0.002,9.7e-4"
           style="fill:#fefee4;stroke:#0978ab"
           inkscape:connector-curvature="0" />
        <path
           id="path12169"
           d="m 352.95001,987.71802 c -0.068,-0.71088 -1.21494,-0.13941 -0.005,0"
           style="fill:#fefee4;stroke:#0978ab"
           inkscape:connector-curvature="0" />
        <path
           id="path12171"
           d="m 351.005,983.46802 c 0.0218,0.47722 0.80377,0.4003 0.10499,-0.056 l -0.077,0.028 -0.028,0.028 z"
           style="fill:#fefee4;stroke:#0978ab"
           inkscape:connector-curvature="0" />
        <path
           id="path12173"
           d="m 351.05301,985.74103 c 0.34422,0.082 0.42532,-0.70039 -0.002,0"
           style="fill:#fefee4;stroke:#0978ab"
           inkscape:connector-curvature="0" />
        <path
           id="path12175"
           d="m 355.00601,972.88397 c 0.1878,0.0473 0.40586,0.16971 0.46698,0.39002 0.70309,0.22326 0.49086,0.92036 1.07901,1.057 -0.22158,0.41048 -0.42027,0.8369 0.082,1.02802 0.26996,0.30222 0.25761,0.45531 0.582,0.83398 0.4829,0.5653 0.90227,1.18656 0.41501,1.89002 0.10252,0.93457 0.96941,-0.58747 1.13199,0.33502 -0.55338,0.60665 0.1824,0.64473 0.47199,0.91699 -0.38172,0.62966 0.28077,1.00744 0.82702,0.88996 -0.70439,0.93939 -1.83099,1.80634 -2.078,2.69799 0.78536,-0.25643 1.36712,-1.35032 1.935,-1.55694 0.5691,0.093 0.76401,0.29079 0.30297,0.83496 -0.10387,0.62832 0.67985,0.19254 0.63602,0.862 0.15896,0.91729 0.8693,-0.69942 1.38001,0.13904 0.69567,-0.13519 0.96636,0.5292 0.277,0.80694 0.2463,0.79627 1.43718,-0.38817 1.74598,0.38904 -0.0321,0.63613 -1.5896,0.38669 -1.18998,0.974 0.50501,-0.0953 1.10614,0.016 1.63199,-0.13904 0.34743,1.07258 -0.5845,2.2715 -1.466,2.66901 0.0819,-0.31558 -0.29331,-0.46512 -0.27301,-0.028 0.55626,0.52587 -0.52029,0.63654 -0.414,0.10999 -0.26063,0.54385 -1.37763,0.22769 -0.69199,1.00201 -0.26041,0.20389 -1.24227,-0.68917 -1.07998,0.11096 0.28734,0.36335 -0.42715,0.91007 -0.85502,0.64002 -0.46103,0.13066 -0.93183,-0.0968 -1.38601,-0.16699 -0.11616,0.27197 0.16521,1.00433 -0.305,0.41797 -0.22259,-0.34285 -0.47367,-1.92057 -1.02899,-1.11097 -0.29431,0.45421 0.7219,1.01358 -0.13601,1.16797 -0.73237,-0.12941 -0.12707,0.66519 -0.336,0.97303 -0.048,0.38146 -0.36895,0.72849 -0.638,0.50097 -0.49956,0.44961 -0.85959,1.23826 -1.57898,0.72302 -0.70972,0.32151 -0.15948,-0.6434 -0.63501,-0.64001 0.202,-0.81918 -0.92557,0.32461 -0.86099,-0.44501 0.32582,-0.57565 0.27547,-1.29207 0.94,-1.50195 0.37288,-0.43254 -0.42043,-0.6351 -0.552,-1.112 -0.25744,-0.38604 -0.49456,-1.02667 -0.551,-1.39203 0.49785,-0.18581 0.77736,-0.95992 0,-0.80603 -0.55705,0.15943 -1.11203,0.80454 -1.10501,-0.19495 0.94986,-0.47027 -0.46038,-0.91679 0.16501,-1.307 -0.56458,-0.52085 0.39062,-1.03225 -0.083,-1.58405 0.64689,-0.2447 0.30123,-1.23119 -0.11099,-0.63897 -0.40715,-0.50838 -0.33627,-1.13611 -0.775,-1.69599 0.39731,-0.53584 -0.74187,-0.92977 0.053,-1.36401 0.2697,-0.80664 -0.32508,-1.57195 -0.21899,-2.25299 -0.007,-0.5412 1.02467,-1.12148 0.116,-0.805 -0.27089,-0.24429 0.11956,-1.20118 0.22,-1.44598 0.385,0.10978 1.05518,0.55146 0.46801,-0.16705 -0.56772,-0.61823 0.28416,-0.5837 0.16398,-0.97296 0.009,-0.85211 1.01717,0.49637 0.61001,-0.33503 -0.46025,-0.35042 0.63893,-0.57718 0.883,-0.75097 0.41735,-0.17598 0.97088,0.0809 1.466,0 0.1024,0.035 0.17261,0.18899 0.27499,0.055"
           style="fill:#fefee4;stroke:#0978ab"
           inkscape:connector-curvature="0" />
      </g>
      <g
         transform="matrix(1315.3024,0,0,1315.3024,-1224750.2,-7772283)"
         style="display:inline;overflow:visible;enable-background:new"
         id="g12177"
         i:knockout="Off">
        <path
           id="path12179"
           d="m 317.728,927.19 c -0.54613,1.20231 -0.74725,2.95273 0.66201,3.72699 1.12314,-0.15645 0.55444,-1.64129 0.93799,-2.336 -0.29348,-0.483 0.45087,-1.34478 -0.11001,-1.58599 -0.3608,0.37445 -0.18412,0.89185 -0.25,1.50201 -0.0783,0.62564 -0.85768,1.77742 -1.18799,0.66797 -0.10998,-0.64941 0.19928,-1.34283 -0.055,-1.974"
           style="fill:#fefee4;stroke:#0978ab"
           inkscape:connector-curvature="0" />
        <path
           id="path12181"
           d="m 319.83899,926.35699 c 0.53047,-0.56458 1.16802,-0.209 1.71402,9.8e-4 0.49906,-0.62813 -0.98033,-1.26128 -1.413,-1.66797 -0.98918,-0.55247 -1.96814,-0.8262 -3.04101,-1.02899 -0.62519,0.60004 -1.37528,1.43762 -0.77799,2.25299 -0.21922,0.65497 0.78695,1.87073 1.107,1.08399 -0.95043,-0.56791 -0.66152,-2.53536 0.466,-2.75397 0.86735,0.24623 2.57564,0.61052 1.87998,1.919 -0.0654,0.10173 -0.0815,0.16582 0.054,0.19495"
           style="fill:#fefee4;stroke:#0978ab"
           inkscape:connector-curvature="0" />
        <path
           id="path12183"
           d="m 319.64401,926.88397 c 0.71834,-0.90951 -0.99963,0.22902 -0.032,0.056 -0.0314,-0.0594 0.062,0.006 0.028,-0.056"
           style="fill:#fefee4;stroke:#0978ab"
           inkscape:connector-curvature="0" />
      </g>
      <g
         transform="matrix(1315.3024,0,0,1315.3024,-1224750.2,-7772283)"
         style="display:inline;overflow:visible;enable-background:new"
         id="g12185"
         i:knockout="Off">
        <path
           id="path12187"
           d="m 322.311,946.57898 c 0.74,0.19517 1.07066,1.05933 0.58301,1.64099 0.13434,0.44942 -0.19324,0.0932 -0.49701,0.388 -1.10742,-0.3546 -0.84932,-1.26701 -0.194,-1.862 0.0561,-0.0334 0.0185,-0.17419 0.10999,-0.16797"
           style="fill:#fefee4;stroke:#0978ab"
           inkscape:connector-curvature="0" />
        <path
           id="path12189"
           d="m 323.117,946.27301 c -0.49043,-0.52855 -0.34267,0.16905 -0.747,0.16797 0.0881,-0.48622 0.85118,-0.82917 0.747,-0.16699"
           style="fill:#fefee4;stroke:#0978ab"
           inkscape:connector-curvature="0" />
        <path
           id="path12191"
           d="m 322.978,946.69 c -0.80045,-0.39116 0.27019,-0.33606 0,0 z"
           style="fill:#fefee4;stroke:#0978ab"
           inkscape:connector-curvature="0" />
        <path
           id="path12193"
           d="m 323.561,945.63397 c 0.005,0.59869 -1.18302,0.008 -0.36099,-0.22198 0.0807,0.16738 0.26415,0.0919 0.35999,0.22198"
           style="fill:#fefee4;stroke:#0978ab"
           inkscape:connector-curvature="0" />
        <path
           id="path12195"
           d="m 323.75601,945.71802 c -0.42468,-0.43935 0.44546,-0.38679 0,0 z"
           style="fill:#fefee4;stroke:#0978ab"
           inkscape:connector-curvature="0" />
        <path
           id="path12197"
           d="m 323.70001,945.30103 c -0.76157,-0.27806 0.7821,-1.53846 1.02399,-0.612 0.60702,0.74527 1.31444,0.6047 2.10101,0.75097 1.19016,1.28316 2.63515,2.26877 4.065,3.14099 -0.10143,0.55151 -0.34961,1.36171 -0.77401,1.586 -0.43064,-0.29017 0.26754,-0.76476 0.418,-1.11297 0.20092,-0.86686 -1.31714,-0.81214 -1.68601,-1.47303 -1.05074,-0.53825 -1.75479,-2.06027 -2.98999,-1.94598 0.002,-0.18793 -0.49208,0.13685 -0.798,-0.25104 -0.46891,-0.11748 -1.19182,0.0852 -1.29801,-0.61096 -0.20634,0.094 0.16829,0.49162 -0.056,0.52802"
           style="fill:#fefee4;stroke:#0978ab"
           inkscape:connector-curvature="0" />
        <path
           id="path12199"
           d="m 326.58801,955.19 c -0.40263,-0.42458 -0.63993,-1.30368 -1.33001,-0.88897 -0.14516,-0.81265 0.83229,-0.804 1.27002,-1.39002 0.45321,-0.34922 -0.10217,-0.41067 -0.054,-0.72504 -0.20526,-0.15255 -0.47132,0.17694 -0.77301,0.083 -0.47177,-0.44851 -1.39053,-0.89606 -0.858,-1.50097 -0.60119,-0.10623 -1.27709,-0.50178 -0.775,-1.167 -0.0228,-1.01771 0.87847,0.74859 1.35401,-0.027 0.62368,-0.34573 -0.54668,-0.56452 -0.69001,-0.91796 -0.4938,-0.15561 -1.70937,-0.82042 -0.55099,-1.05701 0.46264,0.0514 0.64465,-0.69937 1.27301,-0.5 0.45316,-0.3602 -0.37241,1.1385 0.61099,0.94702 0.0999,0.45296 0.66047,-0.2683 0.664,0.44501 0.52067,0.29402 1.17044,-0.28171 1.52399,0.47198 -0.69783,0.37365 1.0323,0.90228 0.058,0.75098 -1.27842,-0.39025 -0.12161,0.61895 -0.33099,1.16803 -0.28389,0.49916 0.0106,1.04636 0.029,1.58496 -0.72806,0.27243 -0.4108,0.97595 -0.11001,1.16803 -0.46914,-0.29054 -0.72556,-0.13084 -0.99298,0.27899 -0.65104,0.0437 -0.34023,1.01282 -0.331,0.97199 -0.19839,0.0776 0.23208,0.20404 0.029,0.30603"
           style="fill:#fefee4;stroke:#0978ab"
           inkscape:connector-curvature="0" />
        <path
           id="path12201"
           d="m 327.64401,954.69 c 0.62464,-0.41805 0.34036,0.48079 0.002,0"
           style="fill:#fefee4;stroke:#0978ab"
           inkscape:connector-curvature="0" />
        <path
           id="path12203"
           d="m 327.45001,954.71802 c -0.62659,0.1181 0.005,-0.7722 -0.001,-10e-4"
           style="fill:#fefee4;stroke:#0978ab"
           inkscape:connector-curvature="0" />
        <path
           id="path12205"
           d="m 323.75601,953.91302 c -0.43466,-0.40899 -0.74567,-0.48736 -0.944,-1.057 0.1043,-0.59328 0.50033,-1.08696 0.388,-1.64002 0.82573,-0.16464 0.0577,1.28177 0.469,1.75098 -0.0981,0.3221 0.35458,0.72508 0.083,0.94604"
           style="fill:#fefee4;stroke:#0978ab"
           inkscape:connector-curvature="0" />
        <path
           id="path12207"
           d="m 322.505,949.69 c -0.48153,-0.60572 0.4523,-0.18795 -0.002,9.8e-4"
           style="fill:#fefee4;stroke:#0978ab"
           inkscape:connector-curvature="0" />
        <path
           id="path12209"
           d="m 330.20001,950.27399 c -0.52319,1.22401 -0.17068,2.72462 0.29999,4.00403 0.31982,0.66352 -0.19331,1.03379 -0.71799,0.83496 -0.71639,0.19242 -0.46704,-0.51018 0.084,-0.55597 0.77682,-0.76366 -0.89299,-1.50808 -0.16599,-2.33704 -0.12059,-0.61118 0.30906,-1.57191 -0.19302,-1.75098 0.47995,-0.0122 -0.30013,-0.35581 0.24701,-0.30597 0.12006,0.21653 0.26094,-0.0171 0.444,0.11097"
           style="fill:#fefee4;stroke:#0978ab"
           inkscape:connector-curvature="0" />
        <path
           id="path12211"
           d="m 323.41599,945.18597 c -0.51655,-0.21144 0.37944,0.48495 0,0 z"
           style="fill:#fefee4;stroke:#0978ab"
           inkscape:connector-curvature="0" />
      </g>
      <g
         transform="matrix(1315.3024,0,0,1315.3024,-1224750.2,-7772283)"
         style="display:inline;overflow:visible;enable-background:new"
         id="g12213"
         i:knockout="Off">
        <path
           id="path12215"
           d="m 399.034,977.44501 c 0.24352,-0.63224 -0.52198,-1.30307 -0.53,-1.75501 0.29609,0.59718 0.78734,0.23232 1.19101,0.083 -0.78666,-0.29021 0.16454,-0.69859 0.33099,-0.13098 0.4565,0.29255 0.62017,0.14354 0.99799,-0.13904 0.54151,-0.0396 1.04017,-0.31983 1.5,-0.47296 -0.77444,-0.28983 -0.2362,-2.01382 -1.32798,-1.362 -0.88786,0.22426 0.265,-0.2833 0.46698,-0.53003 -0.45179,-0.33694 -0.22515,-1.65099 0.223,-0.94501 0.52325,-0.71505 0.11828,-1.46259 -0.026,-2.25299 -0.76543,-0.58065 -1.35294,-1.33388 -2.31699,-0.867 -1.29184,-0.0359 -2.72802,0.13774 -3.32102,1.39099 -0.66881,0.58099 0.0265,1.45984 0.37201,1.77301 0.0816,0.51007 0.4493,0.67991 -0.14398,0.53601 -0.70901,0.5787 0.45542,1.44826 0.387,1.80896 -0.60283,-0.56499 -1.13022,-1.21474 -1.387,-0.0829 -0.28067,0.50159 0.28874,0.96749 -0.10901,1.39099 -0.28097,0.53816 0.38613,1.01329 0.083,1.39002 0.14661,0.51299 1.05769,1.25547 0.996,0.33496 -0.34138,-0.63129 0.50898,-1.20824 0.88498,-1.112 -0.19591,0.76453 0.83752,1.52916 1.439,0.88904 0.0885,0.14216 0.17379,0.10385 0.28,0.059"
           style="fill:#fefee4;stroke:#0978ab"
           inkscape:connector-curvature="0" />
        <path
           id="path12217"
           d="m 396.62,978.21002 c -0.51508,-0.0915 0.57212,0.64807 0.11499,0.048 l -0.03,-0.008 -0.085,-0.04 z"
           style="fill:#fefee4;stroke:#0978ab"
           inkscape:connector-curvature="0" />
        <path
           id="path12219"
           d="m 399.03699,977.44299 0.052,0.053"
           style="fill:#fefee4;stroke:#0978ab"
           inkscape:connector-curvature="0" />
        <path
           id="path12221"
           d="m 399.366,969.38397 c -0.56158,-0.01 -0.8874,0.56898 -1.521,0.30603 -0.49453,0.38055 -0.0394,1.43509 0.57901,0.94599 0.75588,0.0545 1.36421,-0.60065 2.16,-0.13196 0.34161,-0.14054 1.39614,0.2842 0.60798,-0.41705 -0.62055,-0.14298 -1.04864,-0.004 -1.35999,-0.70197 -0.16194,-0.0614 -0.32915,0.0596 -0.466,-10e-4 z"
           style="fill:#c6ecff;stroke:#0978ab"
           inkscape:connector-curvature="0" />
        <path
           id="path12223"
           d="m 399.08899,977.49597 c -0.54264,0.36603 -0.69479,0.31897 -1.13699,0.91705 -0.58262,-0.50425 -0.89161,0.55155 -0.279,0.58399 0.32688,-0.75161 1.09095,0.17216 0.224,0.084 -0.60865,0.50053 0.59237,1.1124 1.02201,0.862 0.40049,-0.31602 -0.34934,-1.56907 0.41699,-1.02801 0.8655,0.40053 0.17558,1.2859 -0.41699,1.33301 0.31632,0.4633 0.84325,1.00622 1.14199,1.33203 0.80482,-0.45912 1.11105,0.53502 1.21799,1.08398 0.66857,0.48268 0.9022,-0.6693 0.52402,-1.00201 0.70626,-0.18891 1.65386,-1.23852 0.642,-1.612 0.6129,-0.19517 1.10953,0.22619 1.54699,-0.41699 0.65541,-0.97832 0.0195,-2.37945 -0.716,-3.00202 -0.33326,0.55503 -0.36808,0.25675 -0.16299,-0.13995 -0.0754,-0.43364 -0.98834,0.16448 -0.27802,-0.52802 -1.07624,-0.64685 -1.4262,1.16923 -2.466,1.08399 -0.40682,0.23156 -0.93731,0.10444 -1.28,0.44897 z"
           style="fill:#fefee4;stroke:#0978ab"
           inkscape:connector-curvature="0" />
        <path
           id="path12225"
           d="m 402.47,982.53101 c 0.62611,0.527 0.34015,-1.51904 -0.055,-0.39002 0.0307,0.14532 -0.0189,0.25657 0.055,0.39002 z"
           style="fill:#fefee4;stroke:#0978ab"
           inkscape:connector-curvature="0" />
        <path
           id="path12227"
           d="m 403.38699,975.97498 c -0.38723,0.25848 0.76272,0.88562 1.10602,1.14001 0.79978,0.17471 -0.004,1.56871 0.80298,1.08398 0.29545,-0.78439 -0.61908,-1.47803 -1.327,-1.83599 -0.21369,-0.18724 -0.29814,-0.42663 -0.582,-0.38898"
           style="fill:#fefee4;stroke:#0978ab"
           inkscape:connector-curvature="0" />
        <path
           id="path12229"
           d="m 402.44299,973.72498 c 0.3678,0.26058 0.44854,0.40151 0.057,0.80603 1.13336,0.84547 0.57151,-1.97928 -0.30099,-1.39002 0.0345,0.21735 0.32656,0.32796 0.25,0.58399"
           style="fill:#fefee4;stroke:#0978ab"
           inkscape:connector-curvature="0" />
        <path
           id="path12231"
           d="m 401.99799,972.36401 c -0.58122,0.10269 0.32113,0.95217 0.33102,0.30597 -0.005,-0.12526 -0.21123,-0.25948 -0.332,-0.30499"
           style="fill:#fefee4;stroke:#0978ab"
           inkscape:connector-curvature="0" />
      </g>
      <path
         style="fill:none;fill-opacity:0.48235294000000001;stroke:#ff00ff;stroke-width:3288.25136329999990000;stroke-linecap:butt;stroke-linejoin:miter;stroke-miterlimit:4;stroke-opacity:1;stroke-dasharray:3288.25136329999990000, 3288.25136329999990000;stroke-dashoffset:0;display:inline;enable-background:new"
         d="m -515219.5,-6466874.2 c -6702.7,421.1 -12962.7,5266.6 -17674.3,10481.3 -11196,9965.7 -21385.7,21416.7 -26676,35677.5 -1555,3498.8 -3130.7,6982.6 -4685.7,10481.3 -4864.6,9044.7 -6795.2,20304.1 1233.1,28320.1 11769.9,16691.1 32421.2,22783.4 47885.1,35019.8 11119,7278.2 25078.3,4588.7 37403.9,8179.6 13494.4,3036.2 25638.1,6361.7 39582.3,7110.8 38979.5,4239.2 71220.9,-5857.4 110403.04,-3863.7 13047.68,7138.7 22992.99,5920.8 23264.38,-2877.2 -680.09,-8448.2 -3456.61,-16957.2 -14016.17,-14632.7 -29653.35,-1835.9 -63790.55,9655 -93221.95,4932.4 -10353.5,-1091 -18513.2,-2949.7 -25936.1,-14262.8 -8041.4,-9513.6 -15701.2,-19393.3 -24949.6,-27785.8 -6937.1,-15609.3 -4555.7,-34319.2 -13728.4,-49241.5 -6893.5,-11020.3 -16067.7,-22526.2 -29594.3,-24990.7 -3122.5,-1994.6 -6242.6,-2739.9 -9289.3,-2548.4 z"
         id="path3597-3"
         inkscape:connector-curvature="0"
         sodipodi:nodetypes="scccccccccccccccs" />
      <g
         transform="matrix(1315.3024,0,0,1315.3024,-1224750.2,-7772283)"
         style="display:inline;overflow:visible;enable-background:new"
         id="g12241"
         i:knockout="Off">
        <path
           id="path12243"
           d="m 568.90002,1078.491 c 0.92462,-0.8799 -0.95123,-1.3728 -0.86602,-2.136 0.37246,-0.3962 -0.75288,-0.7487 -1.13001,-0.9719 -0.49456,-0.7605 0.90336,-0.8668 1.24799,-1.0841 -0.40293,-0.2728 -0.86258,-0.1268 -0.57697,-0.7551 -0.72717,-0.1258 -0.52876,0.9283 -1.19501,0.6152 0.64861,0.7151 -0.73954,0.1328 -0.13702,0.8619 0.12829,0.7825 -0.63634,1.3071 -1.27301,1.14 -0.66121,0.7888 -1.65649,0.6184 -2.43298,0.417 -0.43586,0.4762 -1.03083,-0.2652 -1.63898,0.22 -0.11439,0.5884 -0.52132,1.2291 -1.15503,0.697 -0.58523,0.3625 -1.00487,0.7495 -1.68799,0.361 -0.88405,0.1043 -1.78268,-0.1596 -2.58001,0.361 -0.62086,0.8537 -1.67011,0.066 -2.44599,0.2229 -0.89662,0.5748 -0.74103,-1.3619 -1.85602,-0.9779 -0.99759,-0.6289 -2.29423,-0.2886 -3.20398,-0.893 -0.0391,-0.8266 -1.21802,-0.2751 -1.69299,-0.654 -0.56469,0.2577 -1.0513,-0.3693 -1.62201,0.024 -0.71845,-0.3296 -1.28518,-0.9878 -2.13098,-1.139 -0.59466,-0.097 -0.16728,-0.825 -0.52301,-1.1979 -0.0971,-1.3017 -0.51859,-2.35 -0.44,-3.667 -0.051,-1.3702 -1.10317,-2.2903 -1.37799,-3.6161 -0.30439,-0.9615 -1.0415,-1.5917 -1.68799,-2.309 0.62899,-0.6704 -0.14805,-1.3528 -0.03,-1.9451 0.32668,-0.5352 0.26804,-1.3805 0.336,-1.9729 -0.15569,-0.5999 -0.40427,-1.0786 -0.49396,-1.668 -0.0121,-0.1692 -0.505,-1.0596 0.16296,-0.751 0.18519,-0.3807 -0.85357,-0.9401 -0.03,-1.142 0.17728,-0.426 0.25104,-1.1176 0.88598,-0.611 0.79243,-0.7764 1.70809,-0.8617 2.69898,-0.862 0.91242,-0.01 1.54609,-0.9123 0.58502,-1.289 -0.54661,-0.2805 0.57665,0.7098 -0.211,0.794 -0.17118,-0.1804 -0.32524,-0.3264 -0.27002,-0.672 -1.00177,0.5751 0.78494,-0.9236 1.21002,-1.054 0.001,0.221 -1.17223,0.886 -0.22601,0.6809 0.54805,-0.1511 0.89084,-0.3763 1.51099,-0.5089 0.57925,0.4177 0.96089,-0.1045 1.367,-0.257 0.58497,0.5013 1.14717,0.169 1.60803,-0.056 0.28198,0.5662 0.85177,0.1125 1.36896,0.018 0.6238,-0.3321 0.2834,-0.871 0.849,-0.962 0.63901,-0.179 0.99215,-1.134 0.88,-1.701 0.51324,0.1695 0.99942,0.6348 1.547,0.656 0.85992,1.0339 2.28762,0.4389 3.43201,0.687 1.06646,0.103 2.16728,-0.1578 2.88702,0.637 0.96697,0.146 2.06384,0.3824 2.66101,1.195 0.77808,0.3632 1.27086,1.4356 2.32996,1.28 0.63597,0.1326 1.52816,-0.1366 2.16504,0.389 0.62233,0.067 0.91517,0.7753 1.43597,0.9459 0.0341,0.6796 0.61754,1.6085 1.46698,1.8081 0.51293,0.4935 0.7551,1.0187 0.61902,1.595 0.89432,0.1274 -0.14113,0.303 0.284,0.687 0.3746,0.8497 0.99372,1.6815 0.34204,2.609 0.15176,0.8531 -0.29552,1.6004 -0.68604,2.139 0.19441,0.6566 -0.47538,1.2508 -0.095,1.997 0.10733,0.4642 0.32675,1.3852 0.70801,1.605 -0.10823,0.8884 -0.0327,2.0021 0.053,2.983 -0.79641,1.1907 0.35786,2.502 1.69397,2.333 1.21076,0.6245 2.64459,1.2428 3.89801,0.418 0.51759,0.3957 1.51453,-0.3649 2.13501,0.286 0.91688,-0.5067 0.45876,1.1079 1.63098,0.745 0.97462,-0.5949 0.43125,0.3337 1.29401,0.3631 0.93996,0.495 1.94707,0.2389 2.82702,0.495 0.304,-0.622 0.91011,-1.4428 0.97498,-0.1081 0.42787,0.665 1.24218,1.0876 1.91504,1.704 0.15289,0.6313 1.21692,0.9009 1.07696,1.63 -0.42023,0.7779 0.16096,1.5482 0.19904,2.129 -1.06847,0.5752 0.68621,1.2209 -0.023,2.005 -0.53581,0.7161 -0.26452,1.6424 -0.69104,2.462 -0.21222,0.6658 -0.99819,0.9703 -0.92298,1.685 -0.91365,0.8218 -2.01881,1.7586 -3.26001,1.0501 -0.65248,-0.032 -1.20611,0.1243 -1.71698,-0.5291 -0.68428,0.5758 -1.1165,-0.6819 -1.87902,-0.555 -0.48323,-0.423 -0.8908,-0.282 -1.409,-0.113 -0.59047,-0.3411 -1.24018,-0.5534 -1.92999,-0.417 -0.58174,-0.085 -0.80061,-0.6314 -1.388,-0.805 -0.11447,-0.8631 -1.37399,-0.057 -1.21302,-1.002 -0.71742,-0.4758 -1.2303,-1.3846 -1.80298,-1.8339 -0.95298,0.197 -0.9028,-1.0412 -0.41497,-1.474 -0.11681,-0.5802 -0.60992,-1.138 -0.49903,-1.8351 -0.13722,-0.7341 -1.30119,-1.0604 -1.32702,-1.423"
           style="fill:#fefee4;stroke:#0978ab"
           inkscape:connector-curvature="0" />
      </g>
      <g
         transform="matrix(1315.3024,0,0,1315.3024,-1224750.2,-7772283)"
         style="display:inline;overflow:visible;enable-background:new"
         id="g12245"
         i:knockout="Off">
        <path
           id="path12247"
           d="m 522.97803,1048.829 c 0.89955,0.3576 -0.13649,0.7712 -0.056,0.056 l 0.055,-0.056"
           style="fill:#fefee4;stroke:#0978ab"
           inkscape:connector-curvature="0" />
        <path
           id="path12249"
           d="m 515.88702,1059.0389 c -0.13954,-0.562 -1.06168,0.8541 -1.09802,-0.2099 -0.0598,-0.9731 -0.66374,0.099 -1.05603,-0.778 -0.85712,-0.3653 -0.70411,-1.7057 -1.62994,-1.9179 -0.71326,-1.097 -2.47952,-1.1438 -2.68802,-2.5381 -0.68745,-0.5296 -0.52109,-1.2022 -0.90802,-1.8531 -0.22987,-0.9049 0.10888,-2.3074 1.27301,-2.0289 0.61899,0.4542 0.88896,-0.6631 1.24802,0.111 0.49511,-0.4259 1.27458,0.3411 1.414,-0.027 0.87557,-0.1444 1.83087,0.9557 1.77099,1.834 0.25332,0.2978 0.79454,1.2389 0.89801,0.336 -0.71021,-0.9334 -0.40646,-2.3751 0.542,-2.863 0.70686,0.033 1.96944,-0.2955 1.79699,0.885 0.28604,0.4464 0.17474,1.9442 0.77497,0.929 0.22954,-0.8687 -0.52773,-1.9194 0.77099,-2.11 1.16376,-0.1174 2.55545,-0.2667 3.64801,-0.866 0.99456,0.3722 0.92748,1.7359 2.08801,1.857 0.4079,0.6954 -1.01787,0.5609 -1.19299,1.056 -0.4669,0.6453 -0.38628,1.9942 -1.56299,1.8399 0.0889,0.4883 0.61908,0.034 0.59699,0.7721 0.47202,0.7181 0.0798,1.7301 -0.83002,1.946 -0.56693,0.2834 -0.71574,0.4518 -0.57996,1.14 -0.33666,0.4814 -0.38091,0.7688 -0.51202,1.109 -0.40131,0.5366 -0.38046,1.6693 -1.28998,1.588 0.41987,0.3037 -0.0451,0.844 -0.55499,0.583 -0.87492,0.1691 -1.69462,-0.059 -2.58301,0 -0.31898,-0.273 -0.18895,-0.4136 -0.31201,-0.7891"
           style="fill:#fefee4;stroke:#0978ab"
           inkscape:connector-curvature="0" />
        <path
           id="path12251"
           d="m 508.423,1049.5229 c -0.3676,-0.4731 -0.68164,0.7089 0.027,0.25 0.46623,-0.1292 0.24681,-0.1594 -0.026,-0.25"
           style="fill:#fefee4;stroke:#0978ab"
           inkscape:connector-curvature="0" />
        <path
           id="path12253"
           d="m 508.83899,1049.218 c -1.00744,0.4441 0.95888,0.3239 -9.8e-4,0"
           style="fill:#fefee4;stroke:#0978ab"
           inkscape:connector-curvature="0" />
      </g>
      <g
         transform="matrix(1315.3024,0,0,1315.3024,-1224750.2,-7772283)"
         style="display:inline;overflow:visible;enable-background:new"
         id="g12255"
         i:knockout="Off">
        <path
           id="path12257"
           d="m 543.97699,999.49597 c 0.17496,0.0901 0.6694,0.21744 0.93903,0.27704 0.59941,-0.15979 0.96388,0.18061 0.82995,0.69499 1.34598,0.1263 0.25306,-1.19176 -0.41797,-1.11198 -0.47121,0.0973 -1.25662,-0.61703 -1.35498,0.13995"
           style="fill:#fefee4;stroke:#0978ab"
           inkscape:connector-curvature="0" />
        <path
           id="path12259"
           d="m 541.979,1000.634 c 0.1392,-0.7349 0.81613,-1.46835 1.54902,-1.08401 0.63905,-0.11239 0.0576,-0.38407 0.028,-0.5 -1.02136,-0.4102 -2.74754,0.67005 -1.95404,1.89801 0.19309,0.2707 0.45319,-0.1277 0.37701,-0.314 z"
           style="fill:#fefee4;stroke:#0978ab"
           inkscape:connector-curvature="0" />
        <path
           id="path12261"
           d="m 541.17297,1001.218 c -0.26683,0.7456 1.28365,0.7215 0.48603,0.154 -0.23094,0.1049 -0.34899,-0.02 -0.48603,-0.154 z"
           style="fill:#fefee4;stroke:#0978ab"
           inkscape:connector-curvature="0" />
        <path
           id="path12263"
           d="m 541.47803,1001.996 c -0.66565,-0.3398 -1.71618,1.2326 -0.58002,1.001 0.33593,-0.06 0.39096,-0.8414 0.57697,-1.002"
           style="fill:#fefee4;stroke:#0978ab"
           inkscape:connector-curvature="0" />
        <path
           id="path12265"
           d="m 543.784,1002.357 c -0.12759,0.4966 0.4673,0.9648 0.15503,1.573 0.73931,0.3765 1.15198,-1.0075 0.263,-1.016 -0.27148,-0.088 -0.12019,-0.668 -0.41504,-0.556"
           style="fill:#fefee4;stroke:#0978ab"
           inkscape:connector-curvature="0" />
        <path
           id="path12267"
           d="m 545.33801,1003.524 c -0.60204,-0.2808 -0.13571,0.4966 -0.001,0"
           style="fill:#fefee4;stroke:#0978ab"
           inkscape:connector-curvature="0" />
        <path
           id="path12269"
           d="m 545.422,1004.913 c -0.64326,0.5799 0.44993,1.0096 0.16803,0.167 -0.0607,-0.089 -0.0107,-0.2398 -0.16504,-0.167"
           style="fill:#fefee4;stroke:#0978ab"
           inkscape:connector-curvature="0" />
        <path
           id="path12271"
           d="m 546.61798,1001.579 c -0.12631,-0.4328 -0.87091,-0.1542 -0.17096,-0.055 0.004,0.061 0.12916,0.1292 0.16596,0.056"
           style="fill:#fefee4;stroke:#0978ab"
           inkscape:connector-curvature="0" />
      </g>
      <path
         id="polyline248"
         d="m -312221.01,-6339959.4 c 434.04,-754.6 730.69,-1915.1 -486.65,-2147.8 -650.67,-270.7 -789.51,766.7 -1408.68,611.5 478.97,600 171.51,1898.6 1002.23,1429.6 303.58,28.9 579.89,156.2 893.1,109.2"
         style="fill:#fefee4;stroke:#0978ab;stroke-width:1315.30236816;display:inline;overflow:visible;enable-background:new"
         transform="translate(2.7512957e-4,-0.05543)"
         inkscape:connector-curvature="0" />
      <text
         xml:space="preserve"
         style="font-size:23675.44335938px;font-style:normal;font-variant:normal;font-weight:normal;text-align:start;line-height:124.00000095%;text-anchor:start;fill:#000000;fill-opacity:1;stroke:none;display:inline;overflow:visible;enable-background:new;font-family:Arial"
         x="-543968.06"
         y="-6468684"
         id="text8737"
         sodipodi:linespacing="124%"
         transform="translate(2.7512957e-4,-0.05543)"><tspan
           sodipodi:role="line"
           id="tspan8739"
           x="-543968.06"
           y="-6468684"
           style="font-size:23675.44335938px;font-style:normal;font-variant:normal;font-weight:normal;text-align:start;line-height:124.00000095%;text-anchor:start;font-family:Arial">Tetiaroa</tspan></text>
      <text
         xml:space="preserve"
         style="font-size:23675.44335938px;font-style:normal;font-variant:normal;font-weight:normal;text-align:start;line-height:124.00000095%;text-anchor:start;fill:#000000;fill-opacity:1;stroke:none;display:inline;overflow:visible;enable-background:new;font-family:Arial"
         x="-615325.44"
         y="-6402549.5"
         id="text8741"
         sodipodi:linespacing="124%"><tspan
           sodipodi:role="line"
           id="tspan8743"
           x="-615325.44"
           y="-6402549.5"
           style="font-size:23675.44335938px;font-style:normal;font-variant:normal;font-weight:normal;text-align:start;line-height:124.00000095%;text-anchor:start;font-family:Arial">Moorea</tspan></text>
      <text
         xml:space="preserve"
         style="font-size:23675.44335938px;font-style:normal;font-variant:normal;font-weight:normal;text-align:start;line-height:124.00000095%;text-anchor:start;fill:#000000;fill-opacity:1;stroke:none;display:inline;overflow:visible;enable-background:new;font-family:Arial"
         x="-634074"
         y="-6354495"
         id="text8745"
         sodipodi:linespacing="124%"><tspan
           sodipodi:role="line"
           id="tspan8747"
           x="-634074"
           y="-6354495"
           style="font-size:23675.44335938px;font-style:normal;font-variant:normal;font-weight:normal;text-align:start;line-height:124.00000095%;text-anchor:start;font-family:Arial">Maiao</tspan></text>
      <text
         xml:space="preserve"
         style="font-size:23675.44335938px;font-style:normal;font-variant:normal;font-weight:normal;text-align:start;line-height:124.00000095%;text-anchor:start;fill:#000000;fill-opacity:1;stroke:none;display:inline;overflow:visible;enable-background:new;font-family:Arial"
         x="-680529.63"
         y="-6491654"
         id="text8749"
         sodipodi:linespacing="124%"><tspan
           sodipodi:role="line"
           id="tspan8751"
           x="-680529.63"
           y="-6491654"
           style="font-size:23675.44335938px;font-style:normal;font-variant:normal;font-weight:normal;text-align:start;line-height:124.00000095%;text-anchor:start;font-family:Arial">Huahine</tspan></text>
      <text
         xml:space="preserve"
         style="font-size:23675.44335938px;font-style:normal;font-variant:normal;font-weight:normal;text-align:start;line-height:124.00000095%;text-anchor:start;fill:#000000;fill-opacity:1;stroke:none;display:inline;overflow:visible;enable-background:new;font-family:Arial"
         x="-799754.5"
         y="-6437620.5"
         id="text8753"
         sodipodi:linespacing="124%"
         transform="translate(2.7512957e-4,-0.05543)"><tspan
           sodipodi:role="line"
           id="tspan8755"
           x="-799754.5"
           y="-6437620.5"
           style="font-size:23675.44335938px;font-style:normal;font-variant:normal;font-weight:normal;text-align:start;line-height:124.00000095%;text-anchor:start;font-family:Arial">Raiatea</tspan></text>
      <text
         xml:space="preserve"
         style="font-size:23675.44335938px;font-style:normal;font-variant:normal;font-weight:normal;text-align:start;line-height:124.00000095%;text-anchor:start;fill:#000000;fill-opacity:1;stroke:none;display:inline;overflow:visible;enable-background:new;font-family:Arial"
         x="-758966.06"
         y="-6519545.5"
         id="text8757"
         sodipodi:linespacing="124%"
         transform="translate(2.7512957e-4,-0.05543)"><tspan
           sodipodi:role="line"
           id="tspan8759"
           x="-758966.06"
           y="-6519545.5"
           style="font-size:23675.44335938px;font-style:normal;font-variant:normal;font-weight:normal;text-align:start;line-height:124.00000095%;text-anchor:start;font-family:Arial">Tahaa</tspan></text>
      <text
         xml:space="preserve"
         style="font-size:23675.44335938px;font-style:normal;font-variant:normal;font-weight:normal;text-align:start;line-height:124.00000095%;text-anchor:start;fill:#000000;fill-opacity:1;stroke:none;display:inline;overflow:visible;enable-background:new;font-family:Arial"
         x="-898699.13"
         y="-6492222"
         id="text8761"
         sodipodi:linespacing="124%"
         transform="translate(2.7512957e-4,-0.05543)"><tspan
           sodipodi:role="line"
           id="tspan8763"
           x="-898699.13"
           y="-6492222"
           style="font-size:23675.44335938px;font-style:normal;font-variant:normal;font-weight:normal;text-align:start;line-height:124.00000095%;text-anchor:start;font-family:Arial">Bora-Bora</tspan></text>
      <text
         xml:space="preserve"
         style="font-size:23675.44335938px;font-style:normal;font-variant:normal;font-weight:normal;text-align:start;line-height:124.00000095%;text-anchor:start;fill:#000000;fill-opacity:1;stroke:none;display:inline;overflow:visible;enable-background:new;font-family:Arial"
         x="-838026.25"
         y="-6564815.5"
         id="text8765"
         sodipodi:linespacing="124%"
         transform="translate(2.7512957e-4,-0.05543)"><tspan
           sodipodi:role="line"
           id="tspan8767"
           x="-838026.25"
           y="-6564815.5"
           style="font-size:23675.44335938px;font-style:normal;font-variant:normal;font-weight:normal;text-align:start;line-height:124.00000095%;text-anchor:start;font-family:Arial">Tupai</tspan></text>
      <text
         xml:space="preserve"
         style="font-size:23675.44335938px;font-style:normal;font-variant:normal;font-weight:normal;text-align:start;line-height:124.00000095%;text-anchor:start;fill:#000000;fill-opacity:1;stroke:none;display:inline;overflow:visible;enable-background:new;font-family:Arial"
         x="-933039.81"
         y="-6543159"
         id="text8769"
         sodipodi:linespacing="124%"
         transform="translate(2.7512957e-4,-0.05543)"><tspan
           sodipodi:role="line"
           id="tspan8771"
           x="-933039.81"
           y="-6543159"
           style="font-size:23675.44335938px;font-style:normal;font-variant:normal;font-weight:normal;text-align:start;line-height:124.00000095%;text-anchor:start;font-family:Arial">Maupiti</tspan></text>
      <text
         xml:space="preserve"
         style="font-size:23675.44335938px;font-style:normal;font-variant:normal;font-weight:normal;text-align:start;line-height:124.00000095%;text-anchor:start;fill:#000000;fill-opacity:1;stroke:none;display:inline;overflow:visible;enable-background:new;font-family:Arial"
         x="-1120242.4"
         y="-6449759.5"
         id="text8773"
         sodipodi:linespacing="124%"
         transform="translate(2.7512957e-4,-0.05543)"><tspan
           sodipodi:role="line"
           id="tspan8775"
           x="-1120242.4"
           y="-6449759.5"
           style="font-size:23675.44335938px;font-style:normal;font-variant:normal;font-weight:normal;text-align:start;line-height:124.00000095%;text-anchor:start;font-family:Arial">Maupihaa</tspan></text>
      <text
         xml:space="preserve"
         style="font-size:23675.44335938px;font-style:normal;font-variant:normal;font-weight:normal;text-align:start;line-height:124.00000095%;text-anchor:start;fill:#000000;fill-opacity:1;stroke:none;display:inline;overflow:visible;enable-background:new;font-family:Arial"
         x="-1201994.1"
         y="-6532464.5"
         id="text8777"
         sodipodi:linespacing="124%"
         transform="translate(2.7512957e-4,-0.05543)"><tspan
           sodipodi:role="line"
           id="tspan8779"
           x="-1201994.1"
           y="-6532464.5"
           style="font-size:23675.44335938px;font-style:normal;font-variant:normal;font-weight:normal;text-align:start;line-height:124.00000095%;text-anchor:start;font-family:Arial">Manuae</tspan></text>
      <text
         xml:space="preserve"
         style="font-size:23675.44335938px;font-style:normal;font-variant:normal;font-weight:normal;text-align:start;line-height:124.00000095%;text-anchor:start;fill:#000000;fill-opacity:1;stroke:none;display:inline;overflow:visible;enable-background:new;font-family:Arial"
         x="-1150020.8"
         y="-6604916.5"
         id="text8781"
         sodipodi:linespacing="124%"
         transform="translate(2.7512957e-4,-0.05543)"><tspan
           sodipodi:role="line"
           id="tspan8783"
           x="-1150020.8"
           y="-6604916.5"
           style="font-size:23675.44335938px;font-style:normal;font-variant:normal;font-weight:normal;text-align:start;line-height:124.00000095%;text-anchor:start;font-family:Arial">Motu One</tspan></text>
      <text
         xml:space="preserve"
         style="font-size:23675.44335938px;font-style:normal;font-variant:normal;font-weight:normal;text-align:start;line-height:124.00000095%;text-anchor:start;fill:#000000;fill-opacity:1;stroke:none;display:inline;overflow:visible;enable-background:new;font-family:Arial"
         x="-483928.72"
         y="-6398637.5"
         id="text12315"
         sodipodi:linespacing="124%"
         transform="translate(2.7512957e-4,-0.05543)"><tspan
           sodipodi:role="line"
           id="tspan12317"
           x="-483928.72"
           y="-6398637.5"
           style="font-size:23675.44335938px;font-style:normal;font-variant:normal;font-weight:normal;text-align:start;line-height:124.00000095%;text-anchor:start;font-family:Arial">Tahiti</tspan></text>
      <text
         xml:space="preserve"
         style="font-size:23675.44335938px;font-style:normal;font-variant:normal;font-weight:normal;text-align:start;line-height:124.00000095%;text-anchor:start;fill:#000000;fill-opacity:1;stroke:none;display:inline;overflow:visible;enable-background:new;font-family:Arial"
         x="-386066.06"
         y="-6315273"
         id="text12319"
         sodipodi:linespacing="124%"
         transform="translate(2.7512957e-4,-0.05543)"><tspan
           sodipodi:role="line"
           id="tspan12321"
           x="-386066.06"
           y="-6315273"
           style="font-size:23675.44335938px;font-style:normal;font-variant:normal;font-weight:normal;text-align:start;line-height:124.00000095%;text-anchor:start;font-family:Arial">Mehetia</tspan></text>
      <text
         xml:space="preserve"
         style="font-size:23675.44335938px;font-style:normal;font-variant:normal;font-weight:normal;text-align:start;line-height:124.00000095%;text-anchor:start;fill:#000000;fill-opacity:1;stroke:none;display:inline;overflow:visible;enable-background:new;font-family:Arial"
         x="-1062059.6"
         y="-6342173.5"
         id="text12465"
         sodipodi:linespacing="124%"><tspan
           sodipodi:role="line"
           id="tspan12467"
           x="-1062059.6"
           y="-6342173.5"
           style="font-size:23675.44335938px;font-style:normal;font-variant:normal;font-weight:normal;text-align:start;line-height:124.00000095%;text-anchor:start;font-family:Arial">LEEWARD ISLANDS</tspan></text>
      <text
         xml:space="preserve"
         style="font-size:23675.44335938px;font-style:normal;font-variant:normal;font-weight:normal;text-align:start;line-height:124.00000095%;text-anchor:start;fill:#000000;fill-opacity:1;stroke:none;display:inline;overflow:visible;enable-background:new;font-family:Arial"
         x="-545982.63"
         y="-6504913"
         id="text12469"
         sodipodi:linespacing="124%"><tspan
           sodipodi:role="line"
           id="tspan12471"
           x="-545982.63"
           y="-6504913"
           style="font-size:23675.44335938px;font-style:normal;font-variant:normal;font-weight:normal;text-align:start;line-height:124.00000095%;text-anchor:start;font-family:Arial">WINDWARD ISLANDS</tspan></text>
      <path
         id="path12463"
         d="m -746452.75,-6305612.4 282804.22,-325519.9"
         style="fill:none;stroke:#000000;stroke-width:3288.25146484;stroke-linecap:butt;stroke-linejoin:miter;stroke-miterlimit:4;stroke-opacity:1;stroke-dasharray:9864.75410868, 9864.75410868;stroke-dashoffset:0"
         inkscape:connector-curvature="0"
         sodipodi:nodetypes="cc" />
      <g
         transform="matrix(1315.3024,0,0,1315.3024,-1224750.2,-7772283)"
         style="display:inline;overflow:visible;enable-background:new"
         id="g12233"
         i:knockout="Off">
        <path
           id="path12235"
           d="m 438.599,1065.64 c 0.70091,0.7125 0.28908,1.414 0.33899,2.244 -0.81161,-0.1455 -1.15486,1.105 -1.79199,0.696 -0.18889,-0.4531 -0.32262,-1.3178 -0.64399,-1.084 -0.21153,-0.8442 -1.23523,-0.1672 -1.57202,-0.25 -0.54285,-0.6269 0.59486,-0.7106 0.202,-0.9731 0.53564,0.043 0.55345,-0.899 0.604,-1.1959 0.42425,-0.5783 1.22421,-1.851 1.784,-0.651 0.33244,0.4425 0.55498,0.9358 1.086,1.211"
           style="fill:#fefee4;stroke:#0978ab"
           inkscape:connector-curvature="0" />
        <path
           id="path12237"
           d="m 437.54901,1066.287 c 0.31737,-0.1129 0.71704,-0.3604 0.84799,-0.013 0.51832,0 0.26187,0.5073 -0.19101,0.1399 -0.6915,0.5295 1.10896,0.9005 0.097,1.328 -0.60663,-0.1043 -0.78126,0.1477 -0.629,0.3381 -0.30295,0.485 -0.91047,-0.6109 -0.276,-0.057 -0.0611,-0.144 0.0561,-0.7463 0.16599,-1.0549 -0.15454,-0.2122 -0.24011,-0.4811 -0.014,-0.682"
           style="fill:#c6ecff;stroke:#0978ab"
           inkscape:connector-curvature="0" />
        <path
           id="path12239"
           d="m 437.07001,1064.546 c 0.49099,0.2482 0.5711,0.9605 -0.12,0.895 -0.27488,0.6926 -0.8657,0.1949 -0.44501,-0.3339 0.0611,-0.2903 0.32849,-0.4114 0.56199,-0.5621"
           style="fill:#c6ecff;stroke:#0978ab"
           inkscape:connector-curvature="0" />
      </g>
      <text
         sodipodi:linespacing="124%"
         id="text3933"
         y="-6524916"
         x="-1103993.3"
         style="font-size:23675.44335938px;font-style:normal;font-variant:normal;font-weight:normal;text-align:start;line-height:124.00000095%;text-anchor:start;fill:#00008c;fill-opacity:1;stroke:none;display:inline;overflow:visible;enable-background:new;font-family:Arial"
         xml:space="preserve"><tspan
           style="font-size:26306.01171875px;font-style:normal;font-variant:normal;font-weight:normal;text-align:start;line-height:124.00000095%;text-anchor:start;fill:#00008c;fill-opacity:1;font-family:Arial"
           y="-6524916"
           x="-1103993.3"
           id="tspan3935"
           sodipodi:role="line">Bora-Bora</tspan></text>
      <text
         sodipodi:linespacing="124%"
         id="text3937"
         y="-6582566.5"
         x="-763250.81"
         style="font-size:26306.01171875px;font-style:normal;font-variant:normal;font-weight:normal;text-align:start;line-height:124.00000095%;text-anchor:start;fill:#ff0000;fill-opacity:1;stroke:none;display:inline;overflow:visible;enable-background:new;font-family:Arial"
         xml:space="preserve"><tspan
           style="font-size:26306.01171875px;font-style:normal;font-variant:normal;font-weight:normal;text-align:start;line-height:124.00000095%;text-anchor:start;fill:#ff0000;fill-opacity:1;font-family:Arial"
           y="-6582566.5"
           x="-763250.81"
           id="tspan3939"
           sodipodi:role="line" /><tspan
           style="font-size:26306.01171875px;font-style:normal;font-variant:normal;font-weight:normal;text-align:start;line-height:124.00000095%;text-anchor:start;fill:#ff0000;fill-opacity:1;font-family:Arial"
           y="-6549947"
           x="-763250.81"
           sodipodi:role="line"
           id="tspan3949">Raiatea</tspan></text>
      <text
         sodipodi:linespacing="124%"
         id="text3941"
         y="-6376128.5"
         x="-788991"
         style="font-size:26306.01171875px;font-style:normal;font-variant:normal;font-weight:normal;text-align:start;line-height:124.00000095%;text-anchor:start;fill:#ff8200;fill-opacity:1;stroke:none;display:inline;overflow:visible;enable-background:new;font-family:Arial"
         xml:space="preserve"><tspan
           style="font-size:26306.01171875px;font-style:normal;font-variant:normal;font-weight:normal;text-align:start;line-height:124.00000095%;text-anchor:start;fill:#ff8200;fill-opacity:1;font-family:Arial"
           y="-6376128.5"
           x="-788991"
           id="tspan3943"
           sodipodi:role="line">Huahine</tspan></text>
      <text
         sodipodi:linespacing="124%"
         id="text3945"
         y="-6317291"
         x="-585946.81"
         style="font-size:26306.01171875px;font-style:normal;font-variant:normal;font-weight:normal;text-align:start;line-height:124.00000095%;text-anchor:start;fill:#ff00ff;fill-opacity:1;stroke:none;display:inline;overflow:visible;enable-background:new;font-family:Arial"
         xml:space="preserve"><tspan
           style="font-size:26306.01171875px;font-style:normal;font-variant:normal;font-weight:normal;text-align:start;line-height:124.00000095%;text-anchor:start;fill:#ff00ff;fill-opacity:1;font-family:Arial"
           y="-6317291"
           x="-585946.81"
           id="tspan3947"
           sodipodi:role="line">Tahiti</tspan></text>
    </g>
    <g
       style="display:inline;enable-background:new"
       id="g12941"
       transform="matrix(7.6028251e-4,0,0,7.6028251e-4,1110.3809,6748.029)">
      <rect
         height="118273.7"
         x="234299.36"
         y="-8657809"
         width="116021.28"
         id="rect3532"
         style="font-size:12px;fill:#daf0fd;fill-rule:evenodd;stroke:#000000;stroke-width:732.14587402;stroke-dashoffset:0;display:inline" />
      <g
         transform="matrix(945.55025,0,0,945.55025,229461.14,-9387026.6)"
         id="g3396">
        <rect
           style="fill:none;stroke:#f07568;stroke-width:2.89284039;stroke-miterlimit:4;stroke-opacity:1;stroke-dasharray:none;display:inline"
           id="rect2932"
           width="13.742815"
           y="826.97668"
           x="58.59203"
           height="13.742815" />
        <path
           style="fill:#f4e2ba;stroke:#0978ab;stroke-width:0.79037201;stroke-opacity:1"
           id="path11249"
           sodipodi:nodetypes="ccccccccccccccccccccccccccccccccccccccccccccccccccccccccccccccccccccssccccccccccccccccccccccccccccccccccccccccccccccccccccccccccccccccccccccccccccccccccccccccccccccccccccccccc"
           d="m 119.50129,817.45503 c -0.4417,1.98773 1.10291,2.46183 1.98888,2.82262 -1.66725,-5.20716 -4.61641,-13.79809 -8.33894,-18.21553 -1.09398,-0.96079 -3.50084,-2.52019 -5.14904,-1.09449 -1.14746,1.67373 0.89522,3.20479 1.34283,4.74803 0.26388,0.56302 1.17293,2.24525 1.67635,0.86284 0.50343,-1.3824 3.10714,3.31441 1.76403,1.57712 -1.34312,-1.73729 4.68361,10.26142 6.71589,9.29941 z m -98.027797,16.24442 c -1.29142,-2.17228 -0.11052,-3.49474 2.35796,-2.13489 2.46847,1.35984 -1.06653,4.30718 -2.35796,2.13489 z m -2.3804,-5.62606 c 1.2035,1.08747 -0.25694,1.72843 -1.70134,3.4374 -1.44441,1.70897 1.72733,2.24583 1.44208,3.73874 -0.62181,1.83813 -3.83282,0.9723 -3.66583,3.3475 0.167,2.37521 -5.6968604,-2.52444 -6.0413004,-0.9793 -0.34444,1.54513 3.5150604,4.84233 4.9940704,3.52909 0.08281,-0.27656 -0.06479,-0.56411 -0.24299,-0.76569 -0.1782,-0.20157 1.38619,0.22236 4.02026,3.23671 2.63407,3.01435 5.98022,5.69429 7.13373,9.69599 1.08985,3.17283 1.50671,6.56254 2.93039,9.62221 2.17997,0.50627 0.68,4.67492 -1.15572,2.89852 -1.39832,-1.45443 -3.1718,-2.46006 -4.95356,-3.33863 -1.48057,-1.33146 -4.08541,0.19485 -2.85545,2.10159 3.61432,7.2484 9.8493,12.78574 16.47307,17.25424 1.69214,1.20819 3.54344,2.14371 5.25619,3.3171 0.56192,0.29244 1.6367,0.90105 1.83467,-0.12569 0.04683,-2.2628 2.46401,-3.35585 4.41646,-3.55712 3.00473,-0.67752 6.54923,-0.53463 8.88315,1.72734 1.52968,1.29725 3.62615,1.53261 5.52419,1.09724 4.00568,-0.65478 7.87738,-2.31471 12.00512,-2.04147 3.40099,0.0489 6.65457,1.16681 9.99451,1.62703 3.47114,0.25192 6.7025,-1.6989 10.19065,-1.19774 2.76591,0.47139 5.00991,-1.71587 6.645987,-3.65399 1.95425,-2.43446 5.06771,-3.46708 7.26351,-5.63156 1.15397,-1.78502 -1.97373,-2.14073 -2.21196,-0.38243 -1.02091,1.62024 -2.95785,2.27954 -4.09099,3.76162 -0.31052,1.54728 -3.535937,2.80826 -3.138657,0.44239 0.79285,-1.37889 2.171687,-2.29669 3.065937,-3.61528 5.31653,-6.29911 11.94677,-11.67978 15.61785,-19.21589 2.40464,-4.97502 2.45281,-10.61801 2.45544,-16.02499 0.0186,-4.5008 0.12456,-9.01291 0.69475,-13.48034 0.0621,-2.22142 -1.4768,-3.92945 -2.6342,-5.65304 -1.61301,-2.7634 -2.91438,-5.8215 -5.43968,-7.91227 -2.11034,-2.00474 -5.03486,-2.96133 -6.86592,-5.28388 -1.77789,-2.07176 -3.40119,-4.41422 -5.908137,-5.67061 -1.54466,-0.89238 -2.97117,-1.99994 -4.067,-3.41555 -3.94409,-3.95651 -8.58646,-7.23398 -11.94553,-11.7552 -1.80169,-2.51181 -4.99473,-3.08017 -7.65264,-4.26525 -3.66597,-1.99146 -8.02848,-1.85074 -12.01552,-1.11036 -4.83171,0.92431 -9.5882,2.26575 -14.48405,2.83609 -0.96012,1.65826 -2.36149,-1.7403 -0.41083,-1.05053 1.44228,-0.24892 4.57672,0.75066 4.62355,-1.3626 -1.25352,-1.44026 -3.09797,0.28761 -4.57797,0.46591 -2.81321,0.72673 -5.16109,2.4982 -7.80539,3.61998 -2.42242,1.06087 -4.72982,2.37717 -6.77557,4.05862 -5.75886,4.14608 -11.56272,8.78358 -14.79446,15.26354 -1.07641,2.0707 -2.57695,3.87202 -3.77082,5.86351 -1.49051,2.69204 -2.43867,5.63435 -3.37393,8.55285 -1.65842,0.94016 -0.39475,3.37074 1.2092,2.5876 1.18458,1.5872 -1.9592,1.95868 -2.26642,3.30893 -0.8794,1.70586 -1.8408704,4.2828 0.03956,5.69343 1.05645,1.2352 4.31825,1.91967 3.65123,-0.65433 -0.1106,-2.19178 3.27681,-2.02889 4.48031,-0.94143 z m 50.66422,4.97934 c 1.13295,0.97034 1.62877,1.72332 -0.16728,1.66047 -2.36697,-0.11042 -0.58506,-1.82202 0.16728,-1.66047 z m 4.70555,3.24552 c -2.62818,-0.86393 -0.33834,-3.88526 0.81803,-2.26437 0.46355,0.64978 0.43615,2.67664 -0.81803,2.26437 z m -22.57472,53.85764 c -20.54803,-4.84565 -37.54772,-22.28629 -41.70187,-43.00938 -3.4615304,-16.09848 -0.3171004,-33.75556 9.43569,-47.14846 10.41305,-14.28352 27.80226,-23.02185 45.43358,-23.27696 13.68631,-0.31147 27.55163,4.30217 37.925407,13.32318 12.7298,10.83492 20.63078,27.32052 20.47963,44.09875 0.073,14.69485 -5.48155,29.49942 -15.84788,40.01646 -11.481147,11.91955 -28.196067,18.91633 -44.800797,17.7646 -3.68694,-0.23559 -7.34991,-0.833 -10.92376,-1.76819 z m 34.04419,-2.80359 c 2.20482,-0.81628 4.40332,-1.69835 6.40951,-2.93819 -3.20826,-0.11742 -5.98477,1.8131 -9.05361,2.41048 -1.08458,0.54253 -3.14462,0.73078 -3.55363,1.7122 1.6723,1.43731 3.55931,-0.62539 5.3145,-0.86304 0.29841,-0.0956 0.59481,-0.19857 0.88323,-0.32145 z m -36.59644,-7.25961 0.04363,0.0124 -0.04363,-0.0124 z m -10.3409,-13.966 c -1.07333,-2.26778 -0.31864,-4.85108 0.56792,-7.04512 0.38082,-1.48965 -2.92167,-3.83397 -0.17774,-4.39579 1.7264,0.29021 3.25014,2.04955 3.29372,3.80256 -0.30561,1.90214 -1.50248,3.52764 -1.29292,5.54704 -0.10811,1.17084 -1.09902,2.44826 -2.39098,2.09131 z m 8.15092,-4.52539 c 0.60216,-0.24398 -0.18422,0.67332 0,0 z m -19.14428,-18.37615 c -1.50307,-1.87288 3.71024,-1.80876 2.29511,-3.82712 -0.74275,-0.91177 -3.3227,-2.94111 -1.15888,-3.28352 1.76356,0.90917 0.87712,3.55441 2.20172,4.94612 0.78366,1.77844 -1.35071,4.07573 -2.99789,2.69088 -0.15197,-0.14596 -0.27084,-0.32703 -0.34006,-0.52636 z m -4.56688,-0.59278 c 1.00432,-0.61511 0.09006,1.57026 0,0 z m 41.09934,-2.37111 c 0.31174,-1.20044 1.25915,1.11383 0.06697,0.0462 l -0.06697,-0.0462 z m 13.30458,-0.52694 c 0.62782,-2.02333 3.12054,1.41401 0.74015,1.05149 -0.46327,-0.0865 -0.94091,-0.54766 -0.74015,-1.05149 z m -37.80611,-0.26344 c -0.86189,-1.52366 -3.99043,-0.35899 -3.95212,-2.58781 0.3205,-2.27269 3.80097,-2.14884 4.51228,-0.17392 0.39804,0.73347 1.16706,3.32739 -0.56016,2.76173 z m 2.7663,-0.74372 c -0.07922,-2.40249 3.85482,0.15822 1.34927,0.90454 -0.59086,0.17835 -1.52896,-0.13006 -1.34927,-0.90454 z m 33.25802,0.41438 c 0.7392,-0.67591 -0.1654,0.34265 0,0 z m -18.63614,-2.04177 c 0.83969,-1.17483 1.03746,1.74994 0.07126,0.29364 -0.06166,-0.0834 -0.04363,-0.19767 -0.07126,-0.29364 z m 18.63614,-0.54613 c -0.59567,-1.18686 1.76541,-0.0758 0,0 l 0,0 z m -11.10472,-1.79412 c -0.28478,-2.03871 3.28017,0.0677 1.00269,0.59636 -0.41081,0.0711 -0.93688,-0.14023 -1.00269,-0.59636 z m -38.22419,-1.34817 c -1.40338,-1.97779 3.32217,-1.84509 1.45496,0.0453 -0.38601,0.3751 -1.16024,0.52725 -1.45496,-0.0453 z m 17.65164,-0.94421 c 0.16651,-1.85718 2.89025,0.84228 0.7034,0.5575 -0.28722,-0.1051 -0.52165,-0.3172 -0.7034,-0.5575 z m -22.92079,-4.06146 c 0.43738,0.0689 -0.34855,0.25989 0,0 z m 13.82712,-0.7952 c -0.03295,-2.46763 3.85073,0.37034 1.24163,0.947 -0.57629,0.10797 -1.30907,-0.28616 -1.24163,-0.947 z m 40.36981,-0.4468 c -0.87244,-2.20225 3.44251,-0.73642 1.11093,0.41444 -0.39829,0.2002 -1.02483,0.0991 -1.11093,-0.41444 z m 39.066957,-1.17577 c 1.29905,-2.09802 2.78094,2.3834 0.37229,1.14813 -0.38529,-0.21465 -0.67351,-0.74683 -0.37229,-1.14813 z m -82.060907,-4.15374 c -1.36851,-0.115 -1.96053,-3.4903 -0.24762,-2.59242 0.46186,0.77963 2.08359,3.29062 0.39604,3.21802 -0.21624,-0.12218 -0.27112,-0.4177 -0.14842,-0.6256 z m -14.14463,-1.5298 c -1.89243,-0.44577 1.34593,-2.64829 0.72532,-0.45191 -0.09554,0.28541 -0.40898,0.56505 -0.72532,0.45191 z m -3.77651,-0.59278 c 1.27766,-1.93824 1.81608,2.4467 0.01957,0.23845 l -0.01957,-0.23845 0,0 z m 5.92778,-1.60554 c 0.6385,-0.84605 0.38648,1.10073 0,0 z m 7.48864,-1.24678 c 0.98271,-1.91512 -2.96338,-3.353 -1.18601,-5.02698 2.08791,-0.68108 2.36087,2.16459 2.06025,3.58562 -0.03698,0.58442 -0.29285,1.21334 -0.87424,1.44136 z m -12.98123,-1.09954 c 0.44962,-2.02688 1.10021,-4.00206 1.79206,-5.9573 0.67417,2.13213 -0.37072,4.38428 -1.79206,5.9573 z m 14.96627,-0.59278 c -1.73263,-1.58185 2.7489,-2.26324 1.19464,-0.18456 -0.27146,0.34935 -0.84904,0.556 -1.19464,0.18456 z m 25.69788,-0.98796 c 0.60215,-0.24399 -0.18421,0.67331 0,0 z m 4.10513,-13.71709 c -2.19996,-0.99533 1.87723,-3.32241 1.404,-0.75458 -0.09103,0.61508 -0.81863,1.43298 -1.404,0.75458 z m -2.52439,-21.05928 c -0.89315,-0.0542 0.51502,0.90276 0,0 z"
           inkscape:connector-curvature="0" />
      </g>
    </g>
  </g>
</svg>
