<?xml version="1.0" encoding="utf-8"?>
<!-- Generator: Adobe Illustrator 16.0.0, SVG Export Plug-In . SVG Version: 6.00 Build 0)  -->
<!DOCTYPE svg PUBLIC "-//W3C//DTD SVG 1.1//EN" "http://www.w3.org/Graphics/SVG/1.1/DTD/svg11.dtd">
<svg version="1.1"
	 id="Layer_1" xmlns:cc="http://creativecommons.org/ns#" xmlns:inkscape="http://www.inkscape.org/namespaces/inkscape" xmlns:sodipodi="http://sodipodi.sourceforge.net/DTD/sodipodi-0.dtd" xmlns:dc="http://purl.org/dc/elements/1.1/" xmlns:svg="http://www.w3.org/2000/svg" xmlns:rdf="http://www.w3.org/1999/02/22-rdf-syntax-ns#" sodipodi:docname="EXAMPLE.svg" inkscape:version="0.91 r13725"
	 xmlns="http://www.w3.org/2000/svg" xmlns:xlink="http://www.w3.org/1999/xlink" x="0px" y="0px" width="1900px" height="1900px"
	 viewBox="0 0 1900 1900" enable-background="new 0 0 1900 1900" xml:space="preserve">
<sodipodi:namedview  inkscape:cx="950" inkscape:zoom="0.12421053" borderopacity="1" inkscape:cy="950" showgrid="false" gridtolerance="10" bordercolor="#666666" guidetolerance="10" pagecolor="#ffffff" objecttolerance="10" id="namedview812" inkscape:current-layer="Layer_1" inkscape:window-maximized="0" inkscape:window-x="0" inkscape:window-height="480" inkscape:window-y="0" inkscape:window-width="686" inkscape:pageopacity="0" inkscape:pageshadow="2">
	</sodipodi:namedview>
<text id="text719" transform="matrix(0.9897 0 0 1 392.1353 109.9004)" font-family="'Arial-BoldMT'" font-size="51.9092">Somalia map of Köppen climate classification</text>
<g>
	
		<rect id="rect12069_68_" x="-999.154" y="55.109" fill="#1300FC" stroke="#000000" stroke-width="0.5" stroke-miterlimit="10" width="45.803" height="41.047"/>
	<text id="text722" transform="matrix(1 0 0 1 -947.7026 90.4316)" font-family="'Arial-BoldMT'" font-size="42.6543">Equatorial climate (Af)</text>
</g>
<g>
	
		<rect id="rect12069_67_" x="-999.154" y="122.732" fill="#0E73FC" stroke="#000000" stroke-width="0.5" stroke-miterlimit="10" width="45.803" height="41.046"/>
	<text id="text725" transform="matrix(1 0 0 1 -947.7026 158.0586)" font-family="'Arial-BoldMT'" font-size="42.6543">Monsoon climate (Am)</text>
</g>
<g>
	
		<rect id="rect12069_65_" x="-1019.227" y="486.45" fill="#FD0000" stroke="#000000" stroke-width="0.5" stroke-miterlimit="10" width="45.799" height="41.052"/>
	<text id="text729" transform="matrix(1 0 0 1 -967.7729 521.7813)" font-family="'Arial-BoldMT'" font-size="42.6543">Warm desert climate (BWh)</text>
</g>
<g>
	
		<rect id="rect12069_64_" x="-1011.476" y="623.594" fill="#FE9594" stroke="#000000" stroke-width="0.5" stroke-miterlimit="10" width="45.799" height="41.047"/>
	<text id="text732" transform="matrix(1 0 0 1 -960.0215 658.918)" font-family="'Arial-BoldMT'" font-size="42.6543">Cold desert climate (BWk)</text>
</g>
<g>
	
		<rect id="rect12069_63_" x="-1019.227" y="563.445" fill="#F6A200" stroke="#000000" stroke-width="0.5" stroke-miterlimit="10" width="45.799" height="41.047"/>
	<text id="text735" transform="matrix(1 0 0 1 -967.7729 598.7725)" font-family="'Arial-BoldMT'" font-size="42.6543">Warm semi-arid climate (BSh)</text>
</g>
<g>
	
		<rect id="rect12069_2_" x="86.756" y="766.925" fill="#FD0000" stroke="#000000" stroke-width="0.5" stroke-miterlimit="10" width="45.799" height="41.052"/>
	<g enable-background="new    ">
		<path d="M145.646,802.256l-7.29-30.533h6.311l4.603,20.974l5.582-20.974h7.331l5.353,21.327l4.686-21.327h6.207l-7.414,30.533
			h-6.54l-6.082-22.827l-6.061,22.827H145.646z"/>
		<path d="M184.322,786.886l-5.311-0.958c0.597-2.139,1.625-3.722,3.083-4.749c1.458-1.027,3.624-1.541,6.498-1.541
			c2.61,0,4.554,0.309,5.832,0.927c1.277,0.618,2.176,1.402,2.697,2.354c0.521,0.951,0.781,2.697,0.781,5.238l-0.063,6.831
			c0,1.944,0.094,3.377,0.281,4.301s0.538,1.913,1.052,2.968h-5.79c-0.153-0.389-0.34-0.965-0.562-1.729
			c-0.098-0.347-0.167-0.576-0.208-0.688c-1,0.972-2.069,1.701-3.208,2.187c-1.139,0.486-2.354,0.729-3.645,0.729
			c-2.277,0-4.072-0.618-5.384-1.854c-1.313-1.236-1.968-2.798-1.968-4.687c0-1.25,0.298-2.364,0.896-3.343
			c0.597-0.979,1.434-1.729,2.51-2.249c1.076-0.521,2.627-0.976,4.655-1.364c2.735-0.514,4.63-0.993,5.686-1.438v-0.583
			c0-1.125-0.278-1.927-0.833-2.405c-0.555-0.479-1.604-0.719-3.145-0.719c-1.042,0-1.854,0.205-2.437,0.614
			C185.155,785.14,184.683,785.858,184.322,786.886z M192.153,791.634c-0.75,0.25-1.937,0.549-3.562,0.896
			c-1.625,0.348-2.687,0.688-3.187,1.021c-0.764,0.542-1.146,1.229-1.146,2.063c0,0.819,0.305,1.527,0.916,2.124
			s1.389,0.896,2.333,0.896c1.055,0,2.062-0.347,3.02-1.041c0.708-0.527,1.173-1.174,1.395-1.938c0.153-0.5,0.229-1.45,0.229-2.854
			V791.634z"/>
		<path d="M209.273,802.256h-5.853v-22.118h5.436v3.145c0.93-1.485,1.767-2.465,2.51-2.937c0.743-0.472,1.586-0.708,2.53-0.708
			c1.333,0,2.617,0.368,3.853,1.104l-1.812,5.103c-0.986-0.639-1.903-0.958-2.75-0.958c-0.819,0-1.514,0.226-2.083,0.677
			c-0.57,0.451-1.018,1.268-1.343,2.447c-0.327,1.181-0.49,3.652-0.49,7.415V802.256z"/>
		<path d="M219.833,780.138h5.395v3.02c1.93-2.347,4.228-3.52,6.894-3.52c1.417,0,2.646,0.291,3.687,0.874
			c1.042,0.584,1.896,1.466,2.562,2.646c0.972-1.18,2.02-2.062,3.145-2.646c1.125-0.583,2.325-0.874,3.603-0.874
			c1.625,0,2.999,0.33,4.124,0.989c1.125,0.659,1.965,1.628,2.52,2.905c0.403,0.944,0.604,2.472,0.604,4.582v14.142h-5.852v-12.643
			c0-2.193-0.202-3.609-0.604-4.248c-0.542-0.833-1.375-1.25-2.5-1.25c-0.819,0-1.59,0.25-2.312,0.75
			c-0.722,0.5-1.243,1.232-1.562,2.197s-0.479,2.488-0.479,4.571v10.622h-5.852v-12.121c0-2.152-0.104-3.541-0.313-4.166
			c-0.208-0.625-0.531-1.09-0.969-1.396c-0.437-0.305-1.031-0.458-1.781-0.458c-0.902,0-1.715,0.243-2.437,0.729
			c-0.722,0.485-1.239,1.187-1.552,2.104c-0.313,0.916-0.469,2.437-0.469,4.561v10.747h-5.853V780.138z"/>
		<path d="M290.333,802.256h-5.436v-3.249c-0.903,1.264-1.968,2.204-3.197,2.822c-1.229,0.617-2.468,0.927-3.718,0.927
			c-2.541,0-4.717-1.024-6.529-3.072s-2.718-4.904-2.718-8.57c0-3.749,0.881-6.599,2.645-8.55c1.763-1.95,3.992-2.926,6.686-2.926
			c2.471,0,4.61,1.027,6.415,3.082v-10.997h5.852V802.256z M274.712,790.718c0,2.36,0.326,4.068,0.979,5.123
			c0.944,1.527,2.263,2.291,3.958,2.291c1.347,0,2.492-0.572,3.437-1.718c0.944-1.146,1.416-2.856,1.416-5.134
			c0-2.541-0.458-4.37-1.375-5.488c-0.917-1.117-2.09-1.677-3.52-1.677c-1.389,0-2.552,0.552-3.489,1.656
			C275.181,786.875,274.712,788.523,274.712,790.718z"/>
		<path d="M308.911,795.216l5.832,0.979c-0.75,2.138-1.934,3.767-3.551,4.884c-1.618,1.118-3.642,1.677-6.071,1.677
			c-3.846,0-6.692-1.257-8.539-3.77c-1.458-2.014-2.187-4.555-2.187-7.623c0-3.666,0.958-6.536,2.874-8.612
			c1.916-2.075,4.339-3.113,7.269-3.113c3.291,0,5.887,1.086,7.79,3.259c1.902,2.174,2.812,5.502,2.729,9.987h-14.663
			c0.042,1.735,0.514,3.086,1.416,4.051c0.903,0.965,2.027,1.447,3.374,1.447c0.917,0,1.687-0.25,2.312-0.75
			C308.12,797.133,308.591,796.327,308.911,795.216z M309.244,789.302c-0.042-1.694-0.479-2.982-1.312-3.864
			c-0.833-0.881-1.847-1.322-3.041-1.322c-1.277,0-2.333,0.466-3.166,1.396c-0.833,0.931-1.243,2.194-1.229,3.791H309.244z"/>
		<path d="M317.762,795.945l5.874-0.896c0.25,1.139,0.756,2.003,1.521,2.593c0.763,0.591,1.833,0.885,3.207,0.885
			c1.514,0,2.652-0.277,3.416-0.833c0.513-0.389,0.771-0.909,0.771-1.562c0-0.444-0.139-0.813-0.417-1.104
			c-0.292-0.277-0.944-0.534-1.958-0.771c-4.721-1.041-7.713-1.992-8.977-2.853c-1.75-1.194-2.624-2.854-2.624-4.979
			c0-1.916,0.756-3.526,2.27-4.832c1.513-1.305,3.86-1.957,7.04-1.957c3.027,0,5.276,0.493,6.748,1.479
			c1.472,0.986,2.485,2.444,3.041,4.374l-5.519,1.021c-0.236-0.861-0.684-1.521-1.344-1.979c-0.66-0.459-1.6-0.688-2.822-0.688
			c-1.542,0-2.645,0.215-3.312,0.646c-0.445,0.306-0.667,0.701-0.667,1.188c0,0.416,0.194,0.771,0.583,1.062
			c0.527,0.389,2.35,0.938,5.467,1.646c3.117,0.708,5.293,1.576,6.529,2.604c1.222,1.041,1.833,2.492,1.833,4.353
			c0,2.027-0.847,3.771-2.541,5.229c-1.694,1.457-4.201,2.187-7.519,2.187c-3.013,0-5.397-0.611-7.154-1.833
			C319.453,799.701,318.304,798.042,317.762,795.945z"/>
		<path d="M356.355,795.216l5.832,0.979c-0.75,2.138-1.934,3.767-3.551,4.884c-1.618,1.118-3.642,1.677-6.071,1.677
			c-3.846,0-6.692-1.257-8.539-3.77c-1.458-2.014-2.187-4.555-2.187-7.623c0-3.666,0.958-6.536,2.874-8.612
			c1.916-2.075,4.339-3.113,7.269-3.113c3.291,0,5.887,1.086,7.79,3.259c1.902,2.174,2.812,5.502,2.729,9.987h-14.663
			c0.042,1.735,0.514,3.086,1.416,4.051c0.903,0.965,2.027,1.447,3.374,1.447c0.917,0,1.687-0.25,2.312-0.75
			C355.564,797.133,356.036,796.327,356.355,795.216z M356.688,789.302c-0.042-1.694-0.479-2.982-1.312-3.864
			c-0.833-0.881-1.847-1.322-3.041-1.322c-1.277,0-2.333,0.466-3.166,1.396c-0.833,0.931-1.243,2.194-1.229,3.791H356.688z"/>
		<path d="M372.872,802.256h-5.853v-22.118h5.436v3.145c0.93-1.485,1.767-2.465,2.51-2.937c0.743-0.472,1.586-0.708,2.53-0.708
			c1.333,0,2.617,0.368,3.853,1.104l-1.812,5.103c-0.986-0.639-1.903-0.958-2.75-0.958c-0.819,0-1.514,0.226-2.083,0.677
			c-0.57,0.451-1.018,1.268-1.343,2.447c-0.327,1.181-0.49,3.652-0.49,7.415V802.256z"/>
		<path d="M394.011,780.138v4.665h-3.999v8.914c0,1.805,0.038,2.856,0.115,3.155c0.076,0.299,0.25,0.545,0.521,0.739
			c0.271,0.194,0.601,0.292,0.989,0.292c0.542,0,1.326-0.188,2.354-0.563l0.5,4.54c-1.361,0.583-2.902,0.875-4.624,0.875
			c-1.056,0-2.007-0.177-2.854-0.531c-0.847-0.354-1.468-0.813-1.864-1.375c-0.396-0.562-0.67-1.322-0.822-2.28
			c-0.125-0.68-0.188-2.055-0.188-4.124v-9.643h-2.687v-4.665h2.687v-4.395l5.873-3.416v7.811H394.011z"/>
		<path d="M429.209,786.677l-5.769,1.042c-0.195-1.152-0.635-2.021-1.323-2.604c-0.687-0.583-1.58-0.875-2.676-0.875
			c-1.458,0-2.621,0.504-3.488,1.51c-0.868,1.007-1.302,2.69-1.302,5.051c0,2.624,0.44,4.478,1.322,5.561s2.065,1.625,3.551,1.625
			c1.11,0,2.02-0.315,2.729-0.947c0.708-0.632,1.208-1.719,1.5-3.26l5.748,0.979c-0.597,2.639-1.743,4.631-3.437,5.978
			s-3.964,2.021-6.811,2.021c-3.235,0-5.814-1.021-7.737-3.062c-1.923-2.041-2.884-4.866-2.884-8.477
			c0-3.652,0.965-6.495,2.895-8.529c1.93-2.034,4.54-3.051,7.831-3.051c2.693,0,4.835,0.58,6.425,1.739
			S428.515,784.303,429.209,786.677z"/>
		<path d="M433.646,802.256v-30.533h5.853v30.533H433.646z"/>
		<path d="M445.496,777.138v-5.415h5.853v5.415H445.496z M445.496,802.256v-22.118h5.853v22.118H445.496z"/>
		<path d="M456.909,780.138h5.395v3.02c1.93-2.347,4.228-3.52,6.894-3.52c1.417,0,2.646,0.291,3.687,0.874
			c1.042,0.584,1.896,1.466,2.562,2.646c0.972-1.18,2.02-2.062,3.145-2.646c1.125-0.583,2.325-0.874,3.603-0.874
			c1.625,0,2.999,0.33,4.124,0.989c1.125,0.659,1.965,1.628,2.52,2.905c0.403,0.944,0.604,2.472,0.604,4.582v14.142h-5.852v-12.643
			c0-2.193-0.202-3.609-0.604-4.248c-0.542-0.833-1.375-1.25-2.5-1.25c-0.819,0-1.59,0.25-2.312,0.75
			c-0.722,0.5-1.243,1.232-1.562,2.197s-0.479,2.488-0.479,4.571v10.622h-5.852v-12.121c0-2.152-0.104-3.541-0.313-4.166
			c-0.208-0.625-0.531-1.09-0.969-1.396c-0.437-0.305-1.031-0.458-1.781-0.458c-0.902,0-1.715,0.243-2.437,0.729
			c-0.722,0.485-1.239,1.187-1.552,2.104c-0.313,0.916-0.469,2.437-0.469,4.561v10.747h-5.853V780.138z"/>
		<path d="M499.647,786.886l-5.311-0.958c0.597-2.139,1.625-3.722,3.083-4.749c1.458-1.027,3.624-1.541,6.498-1.541
			c2.61,0,4.554,0.309,5.832,0.927c1.277,0.618,2.176,1.402,2.697,2.354c0.521,0.951,0.781,2.697,0.781,5.238l-0.063,6.831
			c0,1.944,0.094,3.377,0.281,4.301s0.538,1.913,1.052,2.968h-5.79c-0.153-0.389-0.34-0.965-0.562-1.729
			c-0.098-0.347-0.167-0.576-0.208-0.688c-1,0.972-2.069,1.701-3.208,2.187c-1.139,0.486-2.354,0.729-3.645,0.729
			c-2.277,0-4.072-0.618-5.384-1.854c-1.313-1.236-1.968-2.798-1.968-4.687c0-1.25,0.298-2.364,0.896-3.343
			c0.597-0.979,1.434-1.729,2.51-2.249c1.076-0.521,2.627-0.976,4.655-1.364c2.735-0.514,4.63-0.993,5.686-1.438v-0.583
			c0-1.125-0.278-1.927-0.833-2.405c-0.555-0.479-1.604-0.719-3.145-0.719c-1.042,0-1.854,0.205-2.437,0.614
			C500.48,785.14,500.008,785.858,499.647,786.886z M507.479,791.634c-0.75,0.25-1.937,0.549-3.562,0.896
			c-1.625,0.348-2.687,0.688-3.187,1.021c-0.764,0.542-1.146,1.229-1.146,2.063c0,0.819,0.305,1.527,0.916,2.124
			s1.389,0.896,2.333,0.896c1.055,0,2.062-0.347,3.02-1.041c0.708-0.527,1.173-1.174,1.395-1.938c0.153-0.5,0.229-1.45,0.229-2.854
			V791.634z"/>
		<path d="M529.139,780.138v4.665h-3.999v8.914c0,1.805,0.038,2.856,0.115,3.155c0.076,0.299,0.25,0.545,0.521,0.739
			c0.271,0.194,0.601,0.292,0.989,0.292c0.542,0,1.326-0.188,2.354-0.563l0.5,4.54c-1.361,0.583-2.902,0.875-4.624,0.875
			c-1.056,0-2.007-0.177-2.854-0.531c-0.847-0.354-1.468-0.813-1.864-1.375c-0.396-0.562-0.67-1.322-0.822-2.28
			c-0.125-0.68-0.188-2.055-0.188-4.124v-9.643h-2.687v-4.665h2.687v-4.395l5.873-3.416v7.811H529.139z"/>
		<path d="M546.009,795.216l5.832,0.979c-0.75,2.138-1.934,3.767-3.551,4.884c-1.618,1.118-3.642,1.677-6.071,1.677
			c-3.846,0-6.692-1.257-8.539-3.77c-1.458-2.014-2.187-4.555-2.187-7.623c0-3.666,0.958-6.536,2.874-8.612
			c1.916-2.075,4.339-3.113,7.269-3.113c3.291,0,5.887,1.086,7.79,3.259c1.902,2.174,2.812,5.502,2.729,9.987H537.49
			c0.042,1.735,0.514,3.086,1.416,4.051c0.903,0.965,2.027,1.447,3.374,1.447c0.917,0,1.687-0.25,2.312-0.75
			C545.217,797.133,545.689,796.327,546.009,795.216z M546.342,789.302c-0.042-1.694-0.479-2.982-1.312-3.864
			c-0.833-0.881-1.847-1.322-3.041-1.322c-1.277,0-2.333,0.466-3.166,1.396c-0.833,0.931-1.243,2.194-1.229,3.791H546.342z"/>
		<path d="M578.479,811.232h-4.02c-2.125-3.207-3.742-6.54-4.853-9.997s-1.666-6.804-1.666-10.039c0-4.013,0.688-7.81,2.062-11.393
			c1.194-3.109,2.708-5.978,4.54-8.602h3.999c-1.902,4.207-3.211,7.786-3.926,10.736c-0.715,2.951-1.073,6.079-1.073,9.383
			c0,2.277,0.211,4.61,0.635,6.998c0.423,2.389,1.003,4.658,1.739,6.811C576.403,806.546,577.256,808.58,578.479,811.232z"/>
		<path d="M583.04,771.723h12.205c2.416,0,4.217,0.102,5.404,0.303c1.188,0.201,2.25,0.621,3.187,1.26
			c0.938,0.639,1.718,1.489,2.343,2.552c0.625,1.062,0.938,2.253,0.938,3.571c0,1.431-0.386,2.742-1.156,3.937
			s-1.815,2.09-3.134,2.687c1.86,0.542,3.291,1.465,4.291,2.771c1,1.305,1.5,2.839,1.5,4.603c0,1.389-0.323,2.738-0.969,4.051
			s-1.527,2.36-2.645,3.145c-1.118,0.785-2.496,1.268-4.134,1.448c-1.027,0.111-3.506,0.181-7.435,0.208H583.04V771.723z
			 M589.205,776.805v7.061h4.041c2.402,0,3.895-0.034,4.478-0.104c1.055-0.124,1.885-0.489,2.489-1.093
			c0.604-0.604,0.906-1.398,0.906-2.385c0-0.944-0.26-1.711-0.781-2.302c-0.521-0.59-1.295-0.947-2.322-1.072
			c-0.611-0.069-2.368-0.104-5.27-0.104H589.205z M589.205,788.947v8.164h5.707c2.221,0,3.631-0.063,4.228-0.188
			c0.917-0.166,1.663-0.572,2.239-1.218c0.576-0.646,0.864-1.511,0.864-2.594c0-0.916-0.222-1.693-0.667-2.332
			s-1.086-1.104-1.926-1.396c-0.84-0.292-2.663-0.438-5.467-0.438H589.205z"/>
		<path d="M618.155,802.256l-7.29-30.533h6.311l4.603,20.974l5.582-20.974h7.331l5.353,21.327l4.686-21.327h6.207l-7.414,30.533
			h-6.54l-6.082-22.827l-6.061,22.827H618.155z"/>
		<path d="M659.871,771.723v11.227c1.888-2.208,4.145-3.312,6.769-3.312c1.347,0,2.562,0.25,3.645,0.749
			c1.083,0.5,1.898,1.139,2.447,1.917c0.548,0.777,0.923,1.638,1.125,2.582c0.201,0.944,0.302,2.409,0.302,4.395v12.976h-5.853
			v-11.685c0-2.318-0.111-3.79-0.333-4.415c-0.222-0.625-0.614-1.121-1.177-1.489c-0.563-0.367-1.267-0.552-2.114-0.552
			c-0.972,0-1.84,0.236-2.604,0.708c-0.764,0.473-1.323,1.184-1.677,2.135s-0.531,2.357-0.531,4.218v11.08h-5.852v-30.533H659.871z"
			/>
		<path d="M678.47,811.232c1.152-2.472,1.965-4.367,2.437-5.686c0.472-1.319,0.909-2.84,1.312-4.562
			c0.402-1.722,0.701-3.356,0.896-4.905c0.194-1.548,0.292-3.134,0.292-4.759c0-3.304-0.354-6.432-1.062-9.383
			c-0.708-2.95-2.014-6.529-3.916-10.736h3.978c2.096,2.985,3.725,6.151,4.884,9.497c1.159,3.347,1.739,6.741,1.739,10.185
			c0,2.902-0.458,6.013-1.375,9.331c-1.042,3.721-2.756,7.394-5.145,11.018H678.47z"/>
	</g>
</g>
<g>
	
		<rect id="rect12069_1_" x="86.756" y="894.92" fill="#F6A200" stroke="#000000" stroke-width="0.5" stroke-miterlimit="10" width="45.799" height="41.047"/>
	<g enable-background="new    ">
		<path d="M145.646,930.247l-7.29-30.533h6.311l4.603,20.974l5.582-20.974h7.331l5.353,21.327l4.686-21.327h6.207l-7.414,30.533
			h-6.54l-6.082-22.827l-6.061,22.827H145.646z"/>
		<path d="M184.322,914.877l-5.311-0.958c0.597-2.139,1.625-3.722,3.083-4.749c1.458-1.027,3.624-1.541,6.498-1.541
			c2.61,0,4.554,0.309,5.832,0.927c1.277,0.618,2.176,1.402,2.697,2.354c0.521,0.951,0.781,2.697,0.781,5.238l-0.063,6.831
			c0,1.944,0.094,3.377,0.281,4.301s0.538,1.913,1.052,2.968h-5.79c-0.153-0.389-0.34-0.965-0.562-1.729
			c-0.098-0.347-0.167-0.576-0.208-0.688c-1,0.972-2.069,1.701-3.208,2.187c-1.139,0.486-2.354,0.729-3.645,0.729
			c-2.277,0-4.072-0.618-5.384-1.854c-1.313-1.236-1.968-2.798-1.968-4.687c0-1.25,0.298-2.364,0.896-3.343
			c0.597-0.979,1.434-1.729,2.51-2.249c1.076-0.521,2.627-0.976,4.655-1.364c2.735-0.514,4.63-0.993,5.686-1.438v-0.583
			c0-1.125-0.278-1.927-0.833-2.405c-0.555-0.479-1.604-0.719-3.145-0.719c-1.042,0-1.854,0.205-2.437,0.614
			C185.155,913.131,184.683,913.85,184.322,914.877z M192.153,919.625c-0.75,0.25-1.937,0.549-3.562,0.896
			c-1.625,0.348-2.687,0.688-3.187,1.021c-0.764,0.542-1.146,1.229-1.146,2.063c0,0.819,0.305,1.527,0.916,2.124
			s1.389,0.896,2.333,0.896c1.055,0,2.062-0.347,3.02-1.041c0.708-0.527,1.173-1.174,1.395-1.938c0.153-0.5,0.229-1.45,0.229-2.854
			V919.625z"/>
		<path d="M209.273,930.247h-5.853v-22.118h5.436v3.145c0.93-1.485,1.767-2.465,2.51-2.937c0.743-0.472,1.586-0.708,2.53-0.708
			c1.333,0,2.617,0.368,3.853,1.104l-1.812,5.103c-0.986-0.639-1.903-0.958-2.75-0.958c-0.819,0-1.514,0.226-2.083,0.677
			c-0.57,0.451-1.018,1.268-1.343,2.447c-0.327,1.181-0.49,3.652-0.49,7.415V930.247z"/>
		<path d="M219.833,908.129h5.395v3.02c1.93-2.347,4.228-3.52,6.894-3.52c1.417,0,2.646,0.291,3.687,0.874
			c1.042,0.584,1.896,1.466,2.562,2.646c0.972-1.18,2.02-2.062,3.145-2.646c1.125-0.583,2.325-0.874,3.603-0.874
			c1.625,0,2.999,0.33,4.124,0.989c1.125,0.659,1.965,1.628,2.52,2.905c0.403,0.944,0.604,2.472,0.604,4.582v14.142h-5.852v-12.643
			c0-2.193-0.202-3.609-0.604-4.248c-0.542-0.833-1.375-1.25-2.5-1.25c-0.819,0-1.59,0.25-2.312,0.75
			c-0.722,0.5-1.243,1.232-1.562,2.197s-0.479,2.488-0.479,4.571v10.622h-5.852v-12.121c0-2.152-0.104-3.541-0.313-4.166
			c-0.208-0.625-0.531-1.09-0.969-1.396c-0.437-0.305-1.031-0.458-1.781-0.458c-0.902,0-1.715,0.243-2.437,0.729
			c-0.722,0.485-1.239,1.187-1.552,2.104c-0.313,0.916-0.469,2.437-0.469,4.561v10.747h-5.853V908.129z"/>
		<path d="M267.985,923.937l5.874-0.896c0.25,1.139,0.756,2.003,1.521,2.593c0.763,0.591,1.833,0.885,3.207,0.885
			c1.514,0,2.652-0.277,3.416-0.833c0.513-0.389,0.771-0.909,0.771-1.562c0-0.444-0.139-0.813-0.417-1.104
			c-0.292-0.277-0.944-0.534-1.958-0.771c-4.721-1.041-7.713-1.992-8.977-2.853c-1.75-1.194-2.624-2.854-2.624-4.979
			c0-1.916,0.756-3.526,2.27-4.832c1.513-1.305,3.86-1.957,7.04-1.957c3.027,0,5.276,0.493,6.748,1.479
			c1.472,0.986,2.485,2.444,3.041,4.374l-5.519,1.021c-0.236-0.861-0.684-1.521-1.344-1.979c-0.66-0.459-1.6-0.688-2.822-0.688
			c-1.542,0-2.645,0.215-3.312,0.646c-0.445,0.306-0.667,0.701-0.667,1.188c0,0.416,0.194,0.771,0.583,1.062
			c0.527,0.389,2.35,0.938,5.467,1.646c3.117,0.708,5.293,1.576,6.529,2.604c1.222,1.041,1.833,2.492,1.833,4.353
			c0,2.027-0.847,3.771-2.541,5.229c-1.694,1.457-4.201,2.187-7.519,2.187c-3.013,0-5.397-0.611-7.154-1.833
			C269.675,927.692,268.526,926.033,267.985,923.937z"/>
		<path d="M306.579,923.207l5.832,0.979c-0.75,2.138-1.934,3.767-3.551,4.884c-1.618,1.118-3.642,1.677-6.071,1.677
			c-3.846,0-6.692-1.257-8.539-3.77c-1.458-2.014-2.187-4.555-2.187-7.623c0-3.666,0.958-6.536,2.874-8.612
			c1.916-2.075,4.339-3.113,7.269-3.113c3.291,0,5.887,1.086,7.79,3.259c1.902,2.174,2.812,5.502,2.729,9.987H298.06
			c0.042,1.735,0.514,3.086,1.416,4.051c0.903,0.965,2.027,1.447,3.374,1.447c0.917,0,1.687-0.25,2.312-0.75
			C305.787,925.124,306.259,924.318,306.579,923.207z M306.912,917.293c-0.042-1.694-0.479-2.982-1.312-3.864
			c-0.833-0.881-1.847-1.322-3.041-1.322c-1.277,0-2.333,0.466-3.166,1.396c-0.833,0.931-1.243,2.194-1.229,3.791H306.912z"/>
		<path d="M317.054,908.129h5.395v3.02c1.93-2.347,4.228-3.52,6.894-3.52c1.417,0,2.646,0.291,3.687,0.874
			c1.042,0.584,1.896,1.466,2.562,2.646c0.972-1.18,2.02-2.062,3.145-2.646c1.125-0.583,2.325-0.874,3.603-0.874
			c1.625,0,2.999,0.33,4.124,0.989c1.125,0.659,1.965,1.628,2.52,2.905c0.403,0.944,0.604,2.472,0.604,4.582v14.142h-5.852v-12.643
			c0-2.193-0.202-3.609-0.604-4.248c-0.542-0.833-1.375-1.25-2.5-1.25c-0.819,0-1.59,0.25-2.312,0.75
			c-0.722,0.5-1.243,1.232-1.562,2.197s-0.479,2.488-0.479,4.571v10.622h-5.852v-12.121c0-2.152-0.104-3.541-0.313-4.166
			c-0.208-0.625-0.531-1.09-0.969-1.396c-0.437-0.305-1.031-0.458-1.781-0.458c-0.902,0-1.715,0.243-2.437,0.729
			c-0.722,0.485-1.239,1.187-1.552,2.104c-0.313,0.916-0.469,2.437-0.469,4.561v10.747h-5.853V908.129z"/>
		<path d="M355.418,905.129v-5.415h5.853v5.415H355.418z M355.418,930.247v-22.118h5.853v22.118H355.418z"/>
		<path d="M366.603,922.104v-5.853h11.497v5.853H366.603z"/>
		<path d="M385.847,914.877l-5.311-0.958c0.597-2.139,1.625-3.722,3.083-4.749c1.458-1.027,3.624-1.541,6.498-1.541
			c2.61,0,4.554,0.309,5.832,0.927c1.277,0.618,2.176,1.402,2.697,2.354c0.521,0.951,0.781,2.697,0.781,5.238l-0.063,6.831
			c0,1.944,0.094,3.377,0.281,4.301s0.538,1.913,1.052,2.968h-5.79c-0.153-0.389-0.34-0.965-0.562-1.729
			c-0.098-0.347-0.167-0.576-0.208-0.688c-1,0.972-2.069,1.701-3.208,2.187c-1.139,0.486-2.354,0.729-3.645,0.729
			c-2.277,0-4.072-0.618-5.384-1.854c-1.313-1.236-1.968-2.798-1.968-4.687c0-1.25,0.298-2.364,0.896-3.343
			c0.597-0.979,1.434-1.729,2.51-2.249c1.076-0.521,2.627-0.976,4.655-1.364c2.735-0.514,4.63-0.993,5.686-1.438v-0.583
			c0-1.125-0.278-1.927-0.833-2.405c-0.555-0.479-1.604-0.719-3.145-0.719c-1.042,0-1.854,0.205-2.437,0.614
			C386.68,913.131,386.208,913.85,385.847,914.877z M393.678,919.625c-0.75,0.25-1.937,0.549-3.562,0.896
			c-1.625,0.348-2.687,0.688-3.187,1.021c-0.764,0.542-1.146,1.229-1.146,2.063c0,0.819,0.305,1.527,0.916,2.124
			s1.389,0.896,2.333,0.896c1.055,0,2.062-0.347,3.02-1.041c0.708-0.527,1.173-1.174,1.395-1.938c0.153-0.5,0.229-1.45,0.229-2.854
			V919.625z"/>
		<path d="M410.798,930.247h-5.853v-22.118h5.436v3.145c0.93-1.485,1.767-2.465,2.51-2.937c0.743-0.472,1.586-0.708,2.53-0.708
			c1.333,0,2.617,0.368,3.853,1.104l-1.812,5.103c-0.986-0.639-1.903-0.958-2.75-0.958c-0.819,0-1.514,0.226-2.083,0.677
			c-0.57,0.451-1.018,1.268-1.343,2.447c-0.327,1.181-0.49,3.652-0.49,7.415V930.247z"/>
		<path d="M421.794,905.129v-5.415h5.853v5.415H421.794z M421.794,930.247v-22.118h5.853v22.118H421.794z"/>
		<path d="M453.931,930.247h-5.436v-3.249c-0.903,1.264-1.968,2.204-3.197,2.822c-1.229,0.617-2.468,0.927-3.718,0.927
			c-2.541,0-4.717-1.024-6.529-3.072s-2.718-4.904-2.718-8.57c0-3.749,0.881-6.599,2.645-8.55c1.763-1.95,3.992-2.926,6.686-2.926
			c2.471,0,4.61,1.027,6.415,3.082v-10.997h5.852V930.247z M438.311,918.709c0,2.36,0.326,4.068,0.979,5.123
			c0.944,1.527,2.263,2.291,3.958,2.291c1.347,0,2.492-0.572,3.437-1.718c0.944-1.146,1.416-2.856,1.416-5.134
			c0-2.541-0.458-4.37-1.375-5.488c-0.917-1.117-2.09-1.677-3.52-1.677c-1.389,0-2.552,0.552-3.489,1.656
			C438.779,914.866,438.311,916.515,438.311,918.709z"/>
		<path d="M490.837,914.668l-5.769,1.042c-0.195-1.152-0.635-2.021-1.323-2.604c-0.687-0.583-1.58-0.875-2.676-0.875
			c-1.458,0-2.621,0.504-3.488,1.51c-0.868,1.007-1.302,2.69-1.302,5.051c0,2.624,0.44,4.478,1.322,5.561s2.065,1.625,3.551,1.625
			c1.11,0,2.02-0.315,2.729-0.947c0.708-0.632,1.208-1.719,1.5-3.26l5.748,0.979c-0.597,2.639-1.743,4.631-3.437,5.978
			s-3.964,2.021-6.811,2.021c-3.235,0-5.814-1.021-7.737-3.062c-1.923-2.041-2.884-4.866-2.884-8.477
			c0-3.652,0.965-6.495,2.895-8.529c1.93-2.034,4.54-3.051,7.831-3.051c2.693,0,4.835,0.58,6.425,1.739
			S490.143,912.294,490.837,914.668z"/>
		<path d="M495.273,930.247v-30.533h5.853v30.533H495.273z"/>
		<path d="M507.124,905.129v-5.415h5.853v5.415H507.124z M507.124,930.247v-22.118h5.853v22.118H507.124z"/>
		<path d="M518.537,908.129h5.395v3.02c1.93-2.347,4.228-3.52,6.894-3.52c1.417,0,2.646,0.291,3.687,0.874
			c1.042,0.584,1.896,1.466,2.562,2.646c0.972-1.18,2.02-2.062,3.145-2.646c1.125-0.583,2.325-0.874,3.603-0.874
			c1.625,0,2.999,0.33,4.124,0.989c1.125,0.659,1.965,1.628,2.52,2.905c0.403,0.944,0.604,2.472,0.604,4.582v14.142h-5.852v-12.643
			c0-2.193-0.202-3.609-0.604-4.248c-0.542-0.833-1.375-1.25-2.5-1.25c-0.819,0-1.59,0.25-2.312,0.75
			c-0.722,0.5-1.243,1.232-1.562,2.197s-0.479,2.488-0.479,4.571v10.622h-5.852v-12.121c0-2.152-0.104-3.541-0.313-4.166
			c-0.208-0.625-0.531-1.09-0.969-1.396c-0.437-0.305-1.031-0.458-1.781-0.458c-0.902,0-1.715,0.243-2.437,0.729
			c-0.722,0.485-1.239,1.187-1.552,2.104c-0.313,0.916-0.469,2.437-0.469,4.561v10.747h-5.853V908.129z"/>
		<path d="M561.275,914.877l-5.311-0.958c0.597-2.139,1.625-3.722,3.083-4.749c1.458-1.027,3.624-1.541,6.498-1.541
			c2.61,0,4.554,0.309,5.832,0.927c1.277,0.618,2.176,1.402,2.697,2.354c0.521,0.951,0.781,2.697,0.781,5.238l-0.063,6.831
			c0,1.944,0.094,3.377,0.281,4.301s0.538,1.913,1.052,2.968h-5.79c-0.153-0.389-0.34-0.965-0.562-1.729
			c-0.098-0.347-0.167-0.576-0.208-0.688c-1,0.972-2.069,1.701-3.208,2.187c-1.139,0.486-2.354,0.729-3.645,0.729
			c-2.277,0-4.072-0.618-5.384-1.854c-1.313-1.236-1.968-2.798-1.968-4.687c0-1.25,0.298-2.364,0.896-3.343
			c0.597-0.979,1.434-1.729,2.51-2.249c1.076-0.521,2.627-0.976,4.655-1.364c2.735-0.514,4.63-0.993,5.686-1.438v-0.583
			c0-1.125-0.278-1.927-0.833-2.405c-0.555-0.479-1.604-0.719-3.145-0.719c-1.042,0-1.854,0.205-2.437,0.614
			C562.108,913.131,561.636,913.85,561.275,914.877z M569.106,919.625c-0.75,0.25-1.937,0.549-3.562,0.896
			c-1.625,0.348-2.687,0.688-3.187,1.021c-0.764,0.542-1.146,1.229-1.146,2.063c0,0.819,0.305,1.527,0.916,2.124
			s1.389,0.896,2.333,0.896c1.055,0,2.062-0.347,3.02-1.041c0.708-0.527,1.173-1.174,1.395-1.938c0.153-0.5,0.229-1.45,0.229-2.854
			V919.625z"/>
		<path d="M590.767,908.129v4.665h-3.999v8.914c0,1.805,0.038,2.856,0.115,3.155c0.076,0.299,0.25,0.545,0.521,0.739
			c0.271,0.194,0.601,0.292,0.989,0.292c0.542,0,1.326-0.188,2.354-0.563l0.5,4.54c-1.361,0.583-2.902,0.875-4.624,0.875
			c-1.056,0-2.007-0.177-2.854-0.531c-0.847-0.354-1.468-0.813-1.864-1.375c-0.396-0.562-0.67-1.322-0.822-2.28
			c-0.125-0.68-0.188-2.055-0.188-4.124v-9.643h-2.687v-4.665h2.687v-4.395l5.873-3.416v7.811H590.767z"/>
		<path d="M607.637,923.207l5.832,0.979c-0.75,2.138-1.934,3.767-3.551,4.884c-1.618,1.118-3.642,1.677-6.071,1.677
			c-3.846,0-6.692-1.257-8.539-3.77c-1.458-2.014-2.187-4.555-2.187-7.623c0-3.666,0.958-6.536,2.874-8.612
			c1.916-2.075,4.339-3.113,7.269-3.113c3.291,0,5.887,1.086,7.79,3.259c1.902,2.174,2.812,5.502,2.729,9.987h-14.663
			c0.042,1.735,0.514,3.086,1.416,4.051c0.903,0.965,2.027,1.447,3.374,1.447c0.917,0,1.687-0.25,2.312-0.75
			C606.845,925.124,607.317,924.318,607.637,923.207z M607.97,917.293c-0.042-1.694-0.479-2.982-1.312-3.864
			c-0.833-0.881-1.847-1.322-3.041-1.322c-1.277,0-2.333,0.466-3.166,1.396c-0.833,0.931-1.243,2.194-1.229,3.791H607.97z"/>
		<path d="M640.106,939.224h-4.02c-2.125-3.207-3.742-6.54-4.853-9.997s-1.666-6.804-1.666-10.039c0-4.013,0.688-7.81,2.062-11.393
			c1.194-3.109,2.708-5.978,4.54-8.602h3.999c-1.902,4.207-3.211,7.786-3.926,10.736c-0.715,2.951-1.073,6.079-1.073,9.383
			c0,2.277,0.211,4.61,0.635,6.998c0.423,2.389,1.003,4.658,1.739,6.811C638.031,934.537,638.884,936.571,640.106,939.224z"/>
		<path d="M644.667,899.714h12.205c2.416,0,4.217,0.102,5.404,0.303c1.188,0.201,2.25,0.621,3.187,1.26
			c0.938,0.639,1.718,1.489,2.343,2.552c0.625,1.062,0.938,2.253,0.938,3.571c0,1.431-0.386,2.742-1.156,3.937
			s-1.815,2.09-3.134,2.687c1.86,0.542,3.291,1.465,4.291,2.771c1,1.305,1.5,2.839,1.5,4.603c0,1.389-0.323,2.738-0.969,4.051
			s-1.527,2.36-2.645,3.145c-1.118,0.785-2.496,1.268-4.134,1.448c-1.027,0.111-3.506,0.181-7.435,0.208h-10.393V899.714z
			 M650.833,904.796v7.061h4.041c2.402,0,3.895-0.034,4.478-0.104c1.055-0.124,1.885-0.489,2.489-1.093
			c0.604-0.604,0.906-1.398,0.906-2.385c0-0.944-0.26-1.711-0.781-2.302c-0.521-0.59-1.295-0.947-2.322-1.072
			c-0.611-0.069-2.368-0.104-5.27-0.104H650.833z M650.833,916.938v8.164h5.707c2.221,0,3.631-0.063,4.228-0.188
			c0.917-0.166,1.663-0.572,2.239-1.218c0.576-0.646,0.864-1.511,0.864-2.594c0-0.916-0.222-1.693-0.667-2.332
			s-1.086-1.104-1.926-1.396c-0.84-0.292-2.663-0.438-5.467-0.438H650.833z"/>
		<path d="M673.888,920.313l5.999-0.583c0.361,2.014,1.093,3.492,2.197,4.436c1.104,0.945,2.593,1.417,4.467,1.417
			c1.985,0,3.481-0.42,4.488-1.261c1.007-0.84,1.51-1.822,1.51-2.946c0-0.722-0.212-1.337-0.635-1.844
			c-0.424-0.507-1.163-0.947-2.218-1.322c-0.722-0.25-2.368-0.694-4.936-1.333c-3.305-0.819-5.624-1.825-6.957-3.02
			c-1.874-1.681-2.812-3.729-2.812-6.145c0-1.555,0.441-3.01,1.323-4.363c0.881-1.354,2.152-2.385,3.811-3.093
			s3.662-1.063,6.009-1.063c3.833,0,6.717,0.841,8.654,2.521s2.954,3.923,3.051,6.727l-6.165,0.271
			c-0.264-1.569-0.83-2.697-1.697-3.385c-0.868-0.688-2.17-1.031-3.905-1.031c-1.791,0-3.194,0.368-4.207,1.104
			c-0.653,0.472-0.979,1.104-0.979,1.895c0,0.723,0.305,1.341,0.917,1.854c0.777,0.652,2.666,1.333,5.665,2.041
			s5.217,1.44,6.654,2.197s2.562,1.791,3.374,3.103c0.813,1.313,1.218,2.934,1.218,4.863c0,1.75-0.486,3.389-1.458,4.916
			c-0.972,1.527-2.347,2.662-4.124,3.405c-1.777,0.742-3.992,1.114-6.644,1.114c-3.86,0-6.824-0.893-8.893-2.677
			C675.526,926.328,674.291,923.729,673.888,920.313z"/>
		<path d="M709.69,899.714v11.227c1.888-2.208,4.145-3.312,6.769-3.312c1.347,0,2.562,0.25,3.645,0.749
			c1.083,0.5,1.898,1.139,2.447,1.917c0.548,0.777,0.923,1.638,1.125,2.582c0.201,0.944,0.302,2.409,0.302,4.395v12.976h-5.853
			v-11.685c0-2.318-0.111-3.79-0.333-4.415c-0.222-0.625-0.614-1.121-1.177-1.489c-0.563-0.367-1.267-0.552-2.114-0.552
			c-0.972,0-1.84,0.236-2.604,0.708c-0.764,0.473-1.323,1.184-1.677,2.135s-0.531,2.357-0.531,4.218v11.08h-5.852v-30.533H709.69z"
			/>
		<path d="M728.289,939.224c1.152-2.472,1.965-4.367,2.437-5.686c0.472-1.319,0.909-2.84,1.312-4.562
			c0.402-1.722,0.701-3.356,0.896-4.905c0.194-1.548,0.292-3.134,0.292-4.759c0-3.304-0.354-6.432-1.062-9.383
			c-0.708-2.95-2.014-6.529-3.916-10.736h3.978c2.096,2.985,3.725,6.151,4.884,9.497c1.159,3.347,1.739,6.741,1.739,10.185
			c0,2.902-0.458,6.013-1.375,9.331c-1.042,3.721-2.756,7.394-5.145,11.018H728.289z"/>
	</g>
</g>
<g>
	
		<rect id="rect12069_62_" x="-1011.476" y="759.875" fill="#FDDA62" stroke="#000000" stroke-width="0.5" stroke-miterlimit="10" width="45.799" height="41.047"/>
	<text id="text738" transform="matrix(1 0 0 1 -960.0215 795.2012)" font-family="'Arial-BoldMT'" font-size="42.6543">Cold semi-arid climate (BSk)</text>
</g>
<g>
	
		<rect id="rect12069_16_" x="2026.332" y="1087.532" fill="#94FE97" stroke="#000000" stroke-width="0.5" stroke-miterlimit="10" width="45.801" height="41.042"/>
	<text id="text741_1_" transform="matrix(1 0 0 1 2077.7813 1122.8535)" font-family="'Arial-BoldMT'" font-size="42.6543">Humid subtropical climate (Cwa)</text>
</g>
<g>
	
		<rect id="rect12069_15_" x="2026.332" y="1147.222" fill="#5FC765" stroke="#000000" stroke-width="0.5" stroke-miterlimit="10" width="45.801" height="41.048"/>
	<text transform="matrix(1 0 0 1 2077.7813 1182.5459)" font-family="'Arial-BoldMT'" font-size="42.6543">Humid subtropical climate/</text>
	<text transform="matrix(1 0 0 1 2077.7813 1233.7314)" font-family="'Arial-BoldMT'" font-size="42.6543">Subtropical oceanic highland climate (Cwb)</text>
</g>
<g>
	
		<rect id="rect12069_14_" x="2023.508" y="1263.875" fill="#369633" stroke="#000000" stroke-width="0.5" stroke-miterlimit="10" width="45.801" height="41.05"/>
	<text id="text747_1_" transform="matrix(1 0 0 1 2074.957 1299.1943)" font-family="'Arial-BoldMT'" font-size="42.6543">Oceanic subpolar climate (Cwc)</text>
</g>
<g>
	
		<rect id="rect12069_13_" x="2023.504" y="1334.182" fill="#C5FE4B" stroke="#000000" stroke-width="0.5" stroke-miterlimit="10" width="45.803" height="41.043"/>
	<text transform="matrix(1 0 0 1 2074.96 1369.501)" font-family="'Arial-BoldMT'" font-size="42.6543">Warm oceanic climate/</text>
	<text transform="matrix(1 0 0 1 2074.96 1420.6865)" font-family="'Arial-BoldMT'" font-size="42.6543">Humid subtropical climate (Cfa)</text>
</g>
<g>
	
		<rect id="rect12069_12_" x="2023.508" y="1442.262" fill="#63FD32" stroke="#000000" stroke-width="0.5" stroke-miterlimit="10" width="45.803" height="41.051"/>
	<text id="text753_2_" transform="matrix(1 0 0 1 2074.9639 1477.5879)" font-family="'Arial-BoldMT'" font-size="42.6543">Temperate oceanic climate (Cfb)</text>
</g>
<g>
	
		<rect id="rect12069_6_" x="2042.159" y="979.234" fill="#35C600" stroke="#000000" stroke-width="0.5" stroke-miterlimit="10" width="45.803" height="41.053"/>
	<text id="text756_1_" transform="matrix(1 0 0 1 2093.6152 1014.5605)" font-family="'Arial-BoldMT'" font-size="42.6543">Cool oceanic climate (Cfc)</text>
</g>
<g>
	
		<rect id="rect12069_52_" x="2044.987" y="125.863" fill="#FC00FB" stroke="#000000" stroke-width="0.5" stroke-miterlimit="10" width="45.8" height="41.046"/>
	<text transform="matrix(1 0 0 1 2096.4414 161.1904)" font-family="'Arial-BoldMT'" font-size="42.6543">Warm continental climate/</text>
	<text transform="matrix(1 0 0 1 2096.4414 212.377)" font-family="'Arial-BoldMT'" font-size="42.6543">Mediterranean continental climate (Dsa)</text>
</g>
<g>
	
		<rect id="rect12069_51_" x="2047.814" y="244.928" fill="#C900C4" stroke="#000000" stroke-width="0.5" stroke-miterlimit="10" width="45.8" height="41.042"/>
	<text transform="matrix(1 0 0 1 2099.2686 280.248)" font-family="'Arial-BoldMT'" font-size="42.6543">Temperate continental climate/</text>
	<text transform="matrix(1 0 0 1 2099.2686 331.4336)" font-family="'Arial-BoldMT'" font-size="42.6543">Mediterranean continental climate (Dsb)</text>
</g>
<g>
	
		<rect id="rect12069_50_" x="2050.643" y="333.529" fill="#983396" stroke="#000000" stroke-width="0.5" stroke-miterlimit="10" width="45.802" height="41.047"/>
	<text id="text765" transform="matrix(1 0 0 1 2102.0957 368.8506)" font-family="'Arial-BoldMT'" font-size="42.6543">Cool continental climate (Dsc)</text>
</g>
<g>
	
		<rect id="rect12069_36_" x="2050.643" y="401.151" fill="#8E5D92" stroke="#000000" stroke-width="0.5" stroke-miterlimit="10" width="45.802" height="41.049"/>
	<text id="text768" transform="matrix(1 0 0 1 2102.0957 436.4766)" font-family="'Calibri-Bold'" font-size="42.6543">Cold continental climate (Dsd)</text>
</g>
<g>
	
		<rect id="rect12069_35_" x="1014.111" y="-692.057" fill="#A5AFFF" stroke="#000000" stroke-width="0.5" stroke-miterlimit="10" width="45.801" height="41.047"/>
	<text transform="matrix(1 0 0 1 1067.3398 -656.7295)" font-family="'Arial-BoldMT'" font-size="42.6543">Warm continental climate/</text>
	<text transform="matrix(1 0 0 1 1067.3398 -605.5439)" font-family="'Arial-BoldMT'" font-size="42.6543">Humid continental climate (Dwa)</text>
</g>
<g>
	
		<rect id="rect12069_32_" x="1010.398" y="-467.627" fill="#4A78E3" stroke="#000000" stroke-width="0.5" stroke-miterlimit="10" width="45.801" height="41.051"/>
	<text transform="matrix(1 0 0 1 1063.627 -432.3018)" font-family="'Arial-BoldMT'" font-size="42.6543">Temperate continental climate/</text>
	<text transform="matrix(1 0 0 1 1063.627 -381.1162)" font-family="'Arial-BoldMT'" font-size="42.6543">Humid continental climate (Dwb) </text>
</g>
<g>
	
		<rect id="rect12069_11_" x="1038.869" y="-320.878" fill="#484EB4" stroke="#000000" stroke-width="0.5" stroke-miterlimit="10" width="45.801" height="41.041"/>
	<text transform="matrix(1 0 0 1 1092.0977 -285.5625)" font-family="'Arial-BoldMT'" font-size="42.6543">Cool continental climate/</text>
	<text transform="matrix(1 0 0 1 1092.0977 -234.377)" font-family="'Arial-BoldMT'" font-size="42.6543">Subarctic climate (Dwc)</text>
</g>
<g>
	
		<rect id="rect12069_10_" x="1042.583" y="-208.542" fill="#30008A" stroke="#000000" stroke-width="0.5" stroke-miterlimit="10" width="45.801" height="41.053"/>
	<text transform="matrix(1 0 0 1 1095.8115 -173.2129)" font-family="'Arial-BoldMT'" font-size="42.6543">Cold continental climate/</text>
	<text transform="matrix(1 0 0 1 1095.8115 -122.0273)" font-family="'Arial-BoldMT'" font-size="42.6543">Subarctic climate (Dwd)</text>
</g>
<g>
	
		<rect id="rect12069_18_" x="-947.703" y="1726.426" fill="#00FCFD" stroke="#000000" stroke-width="0.5" stroke-miterlimit="10" width="45.801" height="41.053"/>
	<text transform="matrix(1 0 0 1 -894.4731 1761.7559)" font-family="'Arial-BoldMT'" font-size="42.6543">Warm continental climate/</text>
	<text transform="matrix(1 0 0 1 -894.4731 1812.9414)" font-family="'Arial-BoldMT'" font-size="42.6543">Humid continental climate (Dfa)</text>
</g>
<g>
	
		<rect id="rect12069_17_" x="-947.703" y="1883.73" fill="#3DC6FA" stroke="#000000" stroke-width="0.5" stroke-miterlimit="10" width="45.802" height="41.048"/>
	<text transform="matrix(1 0 0 1 -894.4722 1919.0566)" font-family="'Arial-BoldMT'" font-size="42.6543">Temperate continental climate/</text>
	<text transform="matrix(1 0 0 1 -894.4722 1970.2422)" font-family="'Arial-BoldMT'" font-size="42.6543">Humid continental climate (Dfb)</text>
</g>
<g>
	
		<rect id="rect12069_27_" x="-974.318" y="1333.312" fill="#007E7E" stroke="#000000" stroke-width="0.5" stroke-miterlimit="10" width="45.802" height="41.043"/>
	<text transform="matrix(1 0 0 1 -921.0874 1368.6357)" font-family="'Arial-BoldMT'" font-size="42.6543">Cool continental climate/</text>
	<text transform="matrix(1 0 0 1 -921.0874 1419.8213)" font-family="'Arial-BoldMT'" font-size="42.6543">Subarctic climate (Dfc)</text>
</g>
<g>
	
		<rect id="rect12069_26_" x="-1000.933" y="1502.414" fill="#004660" stroke="#000000" stroke-width="0.5" stroke-miterlimit="10" width="45.802" height="41.047"/>
	<text transform="matrix(1 0 0 1 -947.7026 1537.7422)" font-family="'Arial-BoldMT'" font-size="42.6543">Cold continental climate/</text>
	<text transform="matrix(1 0 0 1 -947.7026 1588.9277)" font-family="'Arial-BoldMT'" font-size="42.6543">Subarctic climate (Dfd)</text>
</g>
<g>
	
		<rect id="rect12069_24_" x="33.529" y="-139.354" fill="#686967" stroke="#000000" stroke-width="0.5" stroke-miterlimit="10" width="45.801" height="41.042"/>
	<text id="text798" transform="matrix(1 0 0 1 86.7563 -104.0332)" font-family="'Arial-BoldMT'" font-size="42.6543">Ice cap climate (EF)</text>
</g>
<g>
	
		<rect id="rect12069_23_" x="-993.5" y="921.099" fill="#FCFE04" stroke="#000000" stroke-width="0.5" stroke-miterlimit="10" width="45.803" height="41.045"/>
	<text id="text801" transform="matrix(1 0 0 1 -942.0464 956.4238)" font-family="'Arial-BoldMT'" font-size="42.6543">Warm mediterranean climate (Csa)</text>
</g>
<g>
	
		<rect id="rect12069_22_" x="-993.5" y="988.726" fill="#CECC08" stroke="#000000" stroke-width="0.5" stroke-miterlimit="10" width="45.803" height="41.044"/>
	<text id="text804" transform="matrix(1 0 0 1 -942.0464 1024.0547)" font-family="'Arial-BoldMT'" font-size="42.6543">Temperate mediterranean climate (Csb)</text>
</g>
<sodipodi:namedview  inkscape:cx="250" inkscape:zoom="0.472" borderopacity="1" inkscape:cy="250" showgrid="false" gridtolerance="10" bordercolor="#666666" guidetolerance="10" pagecolor="#ffffff" objecttolerance="10" id="namedview27" inkscape:current-layer="Layer_1" inkscape:window-maximized="0" inkscape:window-x="0" inkscape:window-height="480" inkscape:window-y="0" inkscape:window-width="686" inkscape:pageopacity="0" inkscape:pageshadow="2">
	</sodipodi:namedview>
<sodipodi:namedview  inkscape:cx="250" inkscape:zoom="0.472" borderopacity="1" inkscape:cy="250" showgrid="false" gridtolerance="10" bordercolor="#666666" guidetolerance="10" pagecolor="#ffffff" objecttolerance="10" id="namedview27" inkscape:current-layer="Layer_1" inkscape:window-maximized="0" inkscape:window-x="0" inkscape:window-height="480" inkscape:window-y="0" inkscape:window-width="686" inkscape:pageopacity="0" inkscape:pageshadow="2">
	</sodipodi:namedview>
<sodipodi:namedview  inkscape:cx="250" inkscape:zoom="0.472" borderopacity="1" inkscape:cy="250" showgrid="false" gridtolerance="10" bordercolor="#666666" guidetolerance="10" pagecolor="#ffffff" objecttolerance="10" id="namedview27" inkscape:current-layer="Layer_1" inkscape:window-maximized="0" inkscape:window-x="0" inkscape:window-height="480" inkscape:window-y="0" inkscape:window-width="686" inkscape:pageopacity="0" inkscape:pageshadow="2">
	</sodipodi:namedview>
<sodipodi:namedview  inkscape:cx="250" inkscape:zoom="0.472" borderopacity="1" inkscape:cy="250" showgrid="false" gridtolerance="10" bordercolor="#666666" guidetolerance="10" pagecolor="#ffffff" objecttolerance="10" id="namedview27" inkscape:current-layer="Layer_1" inkscape:window-maximized="0" inkscape:window-x="0" inkscape:window-height="480" inkscape:window-y="0" inkscape:window-width="686" inkscape:pageopacity="0" inkscape:pageshadow="2">
	</sodipodi:namedview>
<g>
	
		<rect id="rect12069_66_" x="-988.577" y="220.854" fill="#3AAAFC" stroke="#000000" stroke-width="0.5" stroke-miterlimit="10" width="45.803" height="41.048"/>
	<text transform="matrix(1 0 0 1 -937.125 256.1777)" font-family="'Arial-BoldMT'" font-size="42.6543">Tropical savanna climate (Aw</text>
	<text transform="matrix(1 0 0 1 -339.7568 256.1777)" font-family="'Arial-BoldMT'" font-size="42.6543">)</text>
</g>
<g>
	
		<rect id="rect12069_25_" x="29.816" y="-221.453" fill="#AEB0AD" stroke="#000000" stroke-width="0.5" stroke-miterlimit="10" width="45.801" height="41.046"/>
	<text id="text795" transform="matrix(1 0 0 1 83.0435 -186.1309)" font-family="'Arial-BoldMT'" font-size="42.6543">Tundra climate (ET)</text>
</g>
<sodipodi:namedview  inkscape:cx="250" inkscape:zoom="0.472" borderopacity="1" inkscape:cy="250" showgrid="false" gridtolerance="10" bordercolor="#666666" guidetolerance="10" pagecolor="#ffffff" objecttolerance="10" id="namedview27" inkscape:current-layer="Layer_1" inkscape:window-maximized="0" inkscape:window-x="0" inkscape:window-height="480" inkscape:window-y="0" inkscape:window-width="686" inkscape:pageopacity="0" inkscape:pageshadow="2">
	</sodipodi:namedview>
<sodipodi:namedview  inkscape:cx="250" inkscape:zoom="0.472" borderopacity="1" inkscape:cy="250" showgrid="false" gridtolerance="10" bordercolor="#666666" guidetolerance="10" pagecolor="#ffffff" objecttolerance="10" id="namedview27" inkscape:current-layer="Layer_1" inkscape:window-maximized="0" inkscape:window-x="0" inkscape:window-height="480" inkscape:window-y="0" inkscape:window-width="686" inkscape:pageopacity="0" inkscape:pageshadow="2">
	</sodipodi:namedview>
<g>
	<g>
		<path fill="#FE0000" d="M577.449,1628.873c0,0-13.879,117.665,6.472,126.703c20.347,9.04,42.704-40.301,41.482-71.082
			c-1.217-30.782-21.58-78.307-21.58-78.307"/>
	</g>
	<g>
		<path fill="#FE0000" d="M781.079,1138.674c0,0-26.374,2.765-38.152,16.351c-11.776,13.59-82.987,83.596-82.987,83.596
			s-58.853,45.75-62.477,77.194c-3.62,31.449,5.432,130.121,39.835,144.609c34.404,14.483,391.263-241.747,390.889-295.907
			c-0.375-54.164-32.691-75.326-94.528-80.453c-61.841-5.129-78.541,2.572-93.796,15.106
			c-15.251,12.525-34.458,28.986-34.458,28.986"/>
	</g>
	<g>
		<path fill="#FE0000" d="M849.263,318.144c0,0-51.336,12.47-46.236,42.629c5.1,30.16,124.535,139.31,137.887,112.842
			c13.353-26.467-33.794-115.361-59.144-133.12"/>
	</g>
	<g>
		<path fill="#FE0000" d="M1762.511,515.494c0,0,26.411-74.279-8.601-102.155c-35.012-27.868-94.155,19.225-94.155,39.142"/>
	</g>
	<g>
		<path fill="#FF9900" d="M698.354,1765.692c1.201-1.491,26.325-0.396,22.93-29.813"/>
	</g>
	<g>
		<path fill="#FE0000" d="M1431.277,1091.332c0,0,38.371-73.354-29.359-150.356c-67.74-77.003-97.926-145.654-129.663-110.38
			c-31.737,35.273,60.1,182.588,58.869,185.297"/>
	</g>
	<g>
		<path fill="#FE0000" d="M1192.196,654.394c0,0-205.421-130.702-253.702-166.916c-48.28-36.214-43.386-111.045-1.754-87.288
			c41.631,23.758,328.286,139.953,356.343,166.129"/>
	</g>
	<g>
		<g>
			<g>
				<g>
					<path fill="#FE0000" d="M817.235,321.419c0.667,3.551,1.478,7.73,2.334,12.194c1.535-0.792,3.127-1.578,5.1-2.171
						c-1.027-5.361-2-10.404-2.78-14.556c0.621-0.757,1.216-1.641,1.824-2.525l-0.783-0.722c-1.132,1.478-2.298,2.985-3.141,4.3
						C818.947,319.241,818.092,320.372,817.235,321.419z"/>
				</g>
				<g>
					<path fill="#FE0000" d="M1423.674,688.944c0.015,0,0.026-0.014,0.043-0.014c0.304-0.275,0.594-0.565,0.911-0.855
						c-0.799,0-1.576,0.027-2.363,0.042c0.814-0.757,1.591-1.506,2.404-2.25c-26.594,0-54.334,4.548-81.161,4.229
						c-3.746-0.099-7.49-0.262-11.224-0.502c-0.999-0.07-2.03-0.12-3.028-0.205c-1.946-0.148-3.855-0.431-5.779-0.637
						c-3.678-0.48-7.347-0.983-10.971-1.782c-38.936-7.766-77.836-25.462-115.663-37.79l-56.032-97.954L911.802,414.442
						c-0.934,1.854-1.972,3.679-3.077,5.489l227.451,135.843l56.032,97.954c32.346,10.545,65.49,24.975,98.761,33.794
						c5.968,1.316,11.196,2.518,14.613,3.473c0.771,0.164,1.527,0.382,2.29,0.524c2.477,0.551,4.98,0.856,7.491,1.216
						c14.96,0.927,47.48-0.07,66.704-0.274c12.471-0.999,24.896-1.967,37.098-2.017
						C1420.619,689.97,1421.933,689.595,1423.674,688.944z"/>
				</g>
				<g>
					<path fill="#FE0000" d="M1188.892,654.394c1.33,1.592,2.478,2.886,3.305,3.593c0,0,5.574-1.506,9.483,1.506
						c3.912,3.013,46.83,16.699,47.659,16.976c0.828,0.275-2.999-0.983,2.433,1.726c2.03,1.01,9.216,2.736,17.861,4.66
						c-25.826-7.546-51.063-17.435-76.107-26.813C1191.977,655.482,1190.442,654.973,1188.892,654.394z"/>
				</g>
				<g>
					<path fill="#FE0000" d="M1796.053,405.375l4.533-2.533C1795.89,403.565,1796.053,405.375,1796.053,405.375z"/>
				</g>
				<g>
					<path fill="#FE0000" d="M1827.193,394.816c-4.646-2.215-12.689-5.85-14.692-5.596c-0.315,0.042-0.592,0.121-0.549,0.411
						c0.188,1.096-0.862,2.999-2.081,4.837c-1.78,2.737-4.031,5.418-4.031,5.418l-3.183,1.783l-2.088,1.174
						c0.349-0.063,0.735-0.106,1.155-0.148c2.361-0.233,5.637-0.247,10.445,0.276c5.197,0.565,8.806,0.085,11.5-0.75
						c5.957-1.874,6.84-5.786,6.84-5.786S1829.129,395.742,1827.193,394.816z"/>
				</g>
				<g>
					<path fill="#FE0000" d="M1438.754,1072.137l-147.078-257.13c-1.535,1.506-3.111,2.999-4.645,4.519l147.895,258.566l0.814,1.406
						c-1.133,1.133-1.133,1.133-1.133,1.133c-0.305,0.491-0.609,0.985-0.913,1.488l2.059,1.957l0,0
						c0.029-0.013,5.906-5.028,8.947-14.386c0.617-1.896,1.076-3.968,1.394-6.226c-2.171,3.347-4.385,6.691-6.508,10.081
						L1438.754,1072.137z"/>
				</g>
				<g>
					<path fill="#FF9900" d="M1435.726,1079.498l-0.813-1.406c-0.68,1.091-1.351,2.188-2.029,3.274
						c-14.974,24.204-29.086,48.947-48.755,70.123c-4.521,4.504-8.969,10.087-13.474,14.604c0,0-57.235-6.739-108.859-30.307
						c-4.521,0-10.093,0-14.571,0c-10.137,0-19.104,1.132-28.073,1.132c-1.132,0-1.132,0-1.132,0
						c-4.455,1.091-7.864,1.091-11.18,1.091h-1.126c-2.223,1.123-5.608,1.123-7.839,1.123
						c-51.603,13.489-113.292,42.65-160.442,28.058c-56.641-17.498-38.837,4.586-91.884-10.741
						c-4.732-1.366-9.832-2.93-15.815-4.959c-36.999,6.739-71.804,16.848-105.437,35.909
						c-54.675,31.086-102.36,101.256-121.91,171.278c-6.549,23.433-9.938,46.86-9.378,68.808
						c10.128,50.493,31.439,72.929,68.479,114.435c29.169,32.521,6.733,37.038-16.834,39.267
						c-8.968,7.865-16.833,15.701-24.669,28.045c-1.131,2.279-2.235,3.375-3.361,5.638c11.196,39.254-16.818,89.736-47.133,83.003
						c-32.536-6.742-34.75,26.926-48.237,38.137c-3.525,2.536-7.987,3.19-12.621,2.695c-5.679-0.609-11.619-2.959-16.556-6.058
						c-4.315,6.203-7.505,12.43-9.607,19.154c-0.565,1.799-1.024,3.65-1.414,5.533c3.029,7.489,7.673,15.106,15.392,23.496
						c1.555,1.752,3.339,3.647,5.072,5.515c2.928,3.828,6.075,7.604,9.59,11.347c4.548,4.823,9.59,9.95,14.316,15.292
						c3.238,3.976,6.301,8.014,9.018,12.121c3.672,11.939,6.449,20.881,8.206,26.482l-2.224-16.105l12.038,14.097
						c6.896-6.053,12.493-13.983,17.329-22.57c9.026-15.992,15.264-34.416,21.03-48.541c0.26-0.651,0.623-1.217,0.912-1.838
						c1.31-2.958,2.872-5.695,4.655-8.228c9.661-13.893,25.391-22.89,38.194-34.813c1.895-1.812,3.705-3.719,5.58-5.559
						c22.479-22.061,43.195-45.889,62.879-70.752c0.928-1.189,1.973-2.242,2.914-3.416c19.643-24.232,42.848-44.815,61.053-68.354
						c1.092-1.131,2.216-2.262,3.347-2.262c12.355-14.571,26.899-28.047,41.476-40.374c15.702-13.467,37.035-22.437,48.236-41.524
						c1.125-1.09,2.26-2.222,3.36-2.222c0,0,0,0,0-1.126c11.425-8.735,23.362-16.514,35.485-23.946
						c27.232-16.688,55.41-31.52,81.247-50.051c1.09-0.775,2.224-1.505,3.302-2.283c19.793-14.386,41.175-26.566,61.933-39.547
						c18.093-11.315,35.719-23.233,51.392-37.854c2.228-2.255,4.492-2.255,5.617-1.124l44.632-44.63l47.74-47.759l35.507-35.521
						c0-0.939,0.135-1.943,0.871-2.928c0.117-0.141,0.117-0.289,0.261-0.431c2.49-3.315,5.128-5.97,8.085-8.495
						c1.027-0.889,1.965-1.812,3.126-2.688c16.643-14.881,29.854-29.84,42.345-46.355c3.501-4.633,6.961-9.358,10.426-14.28
						c14.21-18.574,26.293-38.256,38.328-57.954c0.306-0.512,0.625-1.005,0.913-1.494
						C1434.594,1080.631,1434.594,1080.631,1435.726,1079.498z"/>
				</g>
				<g>
					<path fill="#FE0000" d="M1305.568,690.982c-4.866-1.013-9.746-2.171-14.612-3.473c-33.272-8.82-66.415-23.25-98.76-33.796
						c-0.348-0.119-0.716-0.247-1.048-0.346c-1.436-0.467-2.836-0.962-4.258-1.421c-12.327-15.413-39.297-53.438-69.095-73.269
						c-21.73-14.443-129.4-93.851-210.486-156.539c-9.329,13.77-24.062,22.767-45.342,1.358l-33.357-37.24
						c-0.708-5.17-1.494-10.404-2.349-15.603l-12.094-7.228c-4.435-9.634-5.475-17.994-1.409-24.077
						c1.507-2.256,3.785-4.187,6.811-5.75c-0.857-4.463-1.656-8.643-2.334-12.193c0.871-1.048,1.711-2.179,2.535-3.508
						c0.84-1.316,2.028-2.823,3.145-4.3c5.432-7.145,13.313-15.802,18.052-24.246c2.185-3.232,4.137-6.522,6.01-9.839
						c-0.495-0.261-0.898-0.622-1.393-0.884c-0.332,0.666-0.791,1.302-1.146,1.966c-1.675,3.191-3.459,6.353-5.502,9.492
						c-6.36,9.775-14.225,19.31-22.131,28.872c-2.142,2.604-4.279,5.228-6.401,7.837c-0.769,0.941-1.514,1.881-2.263,2.822
						l-0.013,0.015c-5.575,6.925-10.781,13.906-15.286,21.035l1.296,0.764c-2.746,4.795-5.206,9.633-6.939,14.649
						c-9.592,25.887,6.239,47.657,23.639,66.033c2.793,5.12,5.833,9.973,9.242,14.315c2.01,2.574,4.125,5.028,6.444,7.187
						c4.922,4.922,8.558,8.049,11.707,11.033c5.737,8.445,10.977,17.166,17.406,27.089c6.74,11.225,12.371,32.55,28.071,35.91
						c0.73,0.177,1.31,0.347,1.975,0.523c6.274,3.317,12.838,6.168,18.646,9.689c2.488,2.158,5.155,4.647,8.557,7.717
						c3.276,3.049,6.649,5.744,10.037,8.375c8.374,8.29,16.934,16.324,29.274,19.734c5.086,1.619,10.087,3.317,15.159,4.951
						c17.638,7.116,36.467,12.802,56.603,19.698c45.982,15.702,90.867,31.404,136.878,45.996c9.355,3.112,18.7,6.564,28.057,10.037
						c1.551,0.58,3.085,1.068,4.634,1.648c25.045,9.379,50.296,19.267,76.107,26.814c8.168,2.391,16.387,4.561,24.682,6.386
						c5.087,1.238,10.186,2.108,15.299,2.83c1.346,0.198,2.695,0.359,4.039,0.537c1.726,0.212,3.467,0.488,5.186,0.664
						c-1.176-0.147-2.313-0.395-3.474-0.565c-2.511-0.36-5.015-0.665-7.491-1.217
						C1307.098,691.364,1306.338,691.144,1305.568,690.982z"/>
				</g>
				<g>
					<path fill="#FE0000" d="M1419.154,690.43c-12.201,0.049-24.615,1.018-37.098,2.016c-14.458,1.174-28.943,2.363-43.183,2.186
						c21.027,0.566,42.135-0.891,63.057-1.604c2.462-0.086,4.924-0.128,7.369-0.178c2.765-0.071,5.561-0.184,8.331-0.198
						c0.809-0.758,1.593-1.507,2.406-2.249C1419.748,690.402,1419.443,690.43,1419.154,690.43z"/>
				</g>
				<g>
					<path fill="#FE0000" d="M1787.097,397.609c0.799-0.764,1.669-1.492,2.446-2.271c-0.098-0.036-0.197-0.05-0.305-0.078l0,0
						c1.438-1.011,2.42-2.243,3.652-3.374c13.833-17.817,9.355-44.581,6.465-63.904c-4.479-32.535,2.254-50.5,13.495-80.787
						c0.479-1.451,0.714-2.872,0.714-4.231c0-0.013,0-0.013,0-0.013c0.013-0.148-0.059-0.276-0.059-0.425
						c-0.396-12.746-20.313-21.854-39.707-25.244c-7.779-1.365-15.454-1.846-21.741-1.217c-3.388,0.332-6.39,0.983-8.762,1.966
						c-0.626,0.263-1.148,0.637-1.729,0.941c-1.372,0.666-2.638,1.465-3.855,2.32c-1.139,0.855-2.255,1.712-3.315,2.667
						c-0.574,0.679-1.127,1.463-1.692,2.171c-5.765,7.299-10.92,15.844-18.489,22.803c-1.149,1.316-2.559,2.462-3.832,3.693
						c7.838-7.505,13.079-16.692,19.38-24.133c-7.384,6.691-12.618,16.24-19.932,24.67c-0.248,0.212-0.453,0.446-0.692,0.651
						c-1.309,1.189-2.708,2.299-4.188,3.374c-1.783,1.302-3.784,2.448-5.899,3.515c-0.636,0.325-1.081,0.771-1.769,1.061
						c-28.072,12.371-58.331,7.851-85.271,16.833c-1.132,0.39-2.249,0.87-3.373,1.273c-24.481,9.082-47.327,23.292-76.297,21.134
						c-0.249-0.015-0.467-0.056-0.708-0.071c-17.547-1.259-29.842-8.855-48.634-5.517c-1.444,0.283-2.821,0.722-4.257,1.054
						c-14.698,3.444-28.641,9.096-42.53,14.11c-0.488,0.17-0.985,0.36-1.493,0.551c-13.481,3.94-24.451,5.616-35.139,5.326
						c-10.618-0.29-20.99-2.532-33.299-6.458c-21.743-6.521-61.311,25.873-80.067,37.084c-0.608,0.36-1.244,0.764-1.809,1.082
						c-17.485,9.591-30.431,12.646-43.697,12.618c-13.113-0.028-26.54-3.084-44.957-5.877c-4.313-0.686-8.198-1.309-11.782-1.86
						c-26.284-4.011-35.621-3.848-62.251,11.924c-16.826,11.226-42.629,25.831-61.702,31.434
						c-12.662,3.663-25.253,5.764-37.51,6.302c-36.616,1.605-70.235-10.807-93.759-37.735
						c-18.424-21.784-32.578-50.988-53.976-72.342c-1.335-1.33-2.821-2.489-4.229-3.748c-2.228-2.044-4.436-4.117-6.839-5.97
						c-2.298-1.769-4.853-3.246-7.341-4.81c-1.614-1.011-3.07-2.199-4.768-3.111c-0.016,0.028-0.03,0.057-0.043,0.07
						c-1.019,1.812-2.172,3.564-3.26,5.348c-0.897,1.478-1.705,2.97-2.694,4.413c-5.709,10.199-16.268,20.851-21.192,28.553
						c-0.233,0.361-0.48,0.637-0.706,0.969c-0.609,0.884-1.203,1.782-1.826,2.525c0.778,4.152,1.747,9.194,2.779,14.556
						c4.024-1.231,9.195-1.91,15.165-2.229l36.836,33.95l34.55,21.311l8.906,7.357c0,0-2.65,11.373-8.324,22.625l229.008,136.785
						l56.033,97.954c37.817,12.341,76.741,30.024,115.665,37.79c3.619,0.799,7.291,1.302,10.968,1.782
						c1.938,0.206,3.848,0.496,5.779,0.637c0.997,0.085,2.028,0.135,3.028,0.205c3.748,0.262,7.492,0.404,11.225,0.502
						c26.828,0.305,54.568-4.229,81.162-4.229c-0.813,0.757-1.592,1.506-2.404,2.25c0.783,0,1.563-0.042,2.363-0.042
						c-0.305,0.29-0.61,0.58-0.915,0.855c-1.337,1.217-2.639,2.476-3.938,3.706c-0.729,0-1.449,0.029-2.143,0.029
						c-44.588,41.15-88.611,82.626-131.834,124.703c-53.832,52.425-106.356,105.833-156.354,161.384
						c-8.75,9.761-17.024,19.77-25.351,29.813c-11.302,12.426-22.484,24.926-33.404,37.586c-0.623,0.712-1.26,1.42-1.883,2.128
						c-26.883,31.405-95.342,7.837-134.612,12.344c-34.247,4.375-59.943,14.979-83.291,30.724
						c44.63,5.072,138.219,15.865,141.636,17.57l-37.041,48.195c0,0-3.622-0.496-9.966-0.652
						c53.045,15.327,35.244-6.754,91.884,10.745c47.149,14.606,108.853-14.571,160.437-28.058c2.234,0,5.624,0,7.837-1.126h1.132
						c3.317,0,6.734,0,11.182-1.09c0,0,0,0,1.132,0c8.97,0,17.931-1.132,28.073-1.132c4.477,0,10.049,0,14.571,0
						c51.61,23.567,108.858,30.31,108.858,30.31c4.507-4.521,8.955-10.101,13.467-14.607c19.677-21.178,33.781-45.915,48.762-70.12
						l-70.699-67.577c-17.749-12.605-81.595-181.471-80.033-189.414c1.634-1.604,3.225-3.239,4.851-4.851
						c1.535-1.521,3.113-3.014,4.649-4.52l147.073,257.132l0.808,1.406c2.117-3.389,4.328-6.733,6.508-10.078
						c4.604-7.102,9.356-14.111,14.514-20.845c26.897-34.77,54.971-68.46,74.031-107.729c19.049-38.145,21.313-78.531,44.88-115.566
						c17.958-28.072,42.629-51.611,54.971-81.876c5.638-13.495,0-26.912,6.733-39.269c0.928-1.726,2.016-3.211,3.147-4.591
						c6.14-7.461,14.804-10.644,22.712-17.152c1.115-0.913,2.228-1.867,3.315-2.957c24.7-24.663,23.567-61.705,42.628-87.506
						c16.836-21.333,35.912-41.498,44.908-67.3c10.064-30.3,7.838-61.719,10.064-93.15c0.305-5.39,1.813-9.202,3.914-12.188
						c2.678-3.819,6.435-6.152,10.954-7.355c0.459-0.361,1.053-0.566,1.563-0.884c2.709-1.712,5.764-2.914,9.272-3.522
						c0.127-0.015,0.239-0.071,0.374-0.1c-2.822-0.177-5.868-0.735-9.066-1.691C1785.702,399.087,1786.39,398.352,1787.097,397.609z
						"/>
				</g>
				<g>
					<path fill="#FE0000" d="M625.686,1264.799c9.804-11.925,18.625-27.585,27.897-43.515c-9.388,13.892-19.141,27.523-30.174,40.14
						c-11.664,13.249-22.713,23.752-31.361,35.153C602.621,1285.77,616.774,1276.148,625.686,1264.799z"/>
				</g>
				<g>
					<path fill="#FE0000" d="M581.92,1309.67c-4.056,7.229-5.532,16.11-5.894,25.348c1.938-15.687,7.78-27.577,16.021-38.454
						C587.988,1300.722,584.416,1305.021,581.92,1309.67z"/>
				</g>
				<g>
					<path fill="#FE0000" d="M907.296,422.139c0.488-0.729,0.956-1.486,1.415-2.222l-18.552-11.098
						C895.674,413.156,901.427,417.598,907.296,422.139z"/>
				</g>
				<g>
					<path fill="#FE0000" d="M653.595,1221.284c9.55-14.139,18.745-28.481,28.279-42.487
						C671.299,1191.353,662.247,1206.404,653.595,1221.284z"/>
				</g>
				<g>
					<path fill="#FE0000" d="M576.26,1695.577c-0.248-24.19-0.333-48.323-0.382-72.427c-0.156-83.128,0.701-165.77,1.571-248.412
						c0-11.399-1.96-25.97-1.423-39.721c-0.333,2.71-0.771,5.333-0.856,8.305c-1.116,89.72,0,179.52-1.116,268.151
						c0,1.612-0.043,3.204-0.057,4.795c-0.374,39.114-4.951,77.038,2.06,112.686C575.955,1719.061,576.664,1708.344,576.26,1695.577
						z"/>
				</g>
				<g>
					<path fill="#FE0000" d="M576.057,1728.969c0.099,9.952,1.214,19.063,4.984,28.364c0.376-1.883,0.849-3.734,1.415-5.533
						C579.662,1744.297,577.562,1736.693,576.057,1728.969z"/>
				</g>
				<g>
					<path fill="#FE0000" d="M781.631,1141.426c13.254-2.555,21.481-9.028,28.58-16.947c-11.279,9.01-23.799,13.28-36.804,15.99
						c-5.824,1.203-11.735,2.145-17.677,3.043c5.114-0.088,10.2-0.262,15.201-0.68
						C774.566,1142.525,778.144,1142.117,781.631,1141.426z"/>
				</g>
			</g>
		</g>
	</g>
	<g>
		<path fill="#FE0000" d="M612.227,1297.377c2.969-5.172,95.894-94.46,158.716-154.53c-5,0.415-10.085,0.594-15.199,0.677
			c-15.887,2.395-31.985,4.698-47.05,12.47c-10.136,5.377-18.9,13.404-26.836,22.82c-9.519,14.004-18.729,28.346-28.275,42.486
			c-9.273,15.928-18.107,31.587-27.897,43.512c-8.911,11.354-23.064,20.986-33.638,31.78c-8.241,10.863-14.083,22.752-16.021,38.454
			c-0.538,13.736,1.423,28.321,1.423,39.723c-0.887,82.641-1.727,165.282-1.571,248.409c11.784,42.929,22.931,82.033,32.727,115.537
			c4.633,0.494,9.095-0.154,12.618-2.694c13.481-11.196,15.703-44.878,48.231-38.139c30.322,6.733,58.337-43.76,47.14-82.999
			c1.124-2.25,2.228-3.346,3.359-5.638c7.837-12.343,15.702-20.18,24.67-28.045c23.567-2.228,46.004-6.747,16.826-39.271
			c-37.032-41.503-58.331-63.938-68.471-114.432c-0.56-21.948,2.841-45.372,9.377-68.805
			C618.457,1542.151,607.833,1305.038,612.227,1297.377z"/>
	</g>
	<g id="so_5_">
		<path d="M649.423,1857.279l-7.242-0.296c0.882-21.008-21.016-44.342-38.613-63.099c-3.529-3.762-6.88-7.335-9.846-10.666
			c-22.159-24.054-21.714-42.962-21.156-66.896c0.15-6.345,0.305-13.148,0.071-20.645c-1.074-107.779,0.08-216.174,1.189-320.986
			l7.242,0.071c-1.11,104.786-2.263,213.136-1.187,320.765c0.239,7.562,0.077,14.501-0.079,20.965
			c-0.558,24.034-0.934,39.919,19.295,61.868c2.963,3.34,6.266,6.86,9.756,10.573
			C627.377,1808.673,650.426,1833.237,649.423,1857.279z"/>
	</g>
	<g id="so_3_">
		<path d="M648.459,1859.559l-5.344-4.883c30.645-33.546,46.185-64.436,46.185-91.801v-32.979l7.157,32.197
			c0.455,2.057,1.132,3.09,1.598,3.203c4.931,0.963,20.423-17.399,26.193-24.393c2.051-2.493,3.847-4.662,5.239-6.233
			c7.231-7.789,14.006-16.268,20.569-24.466c6.67-8.354,13.574-16.99,20.986-24.961c15.043-16.155,30.908-32.577,46.242-48.457
			c15.554-16.104,31.639-32.762,46.866-49.13c21.354-22.851,46.328-44.191,70.478-64.822c11.646-9.95,23.169-19.79,34.09-29.637
			c29.571-26.326,64.535-46.795,103.86-68.938c79.011-45.155,146.232-98.93,217.938-174.356
			c22.287-23.002,43.922-46.419,64.857-69.067c10.859-11.754,21.723-23.512,32.707-35.252c16.72-17.971,29.629-39.071,42.112-59.476
			c9.117-14.904,18.545-30.322,29.464-44.561c5.865-7.915,11.939-15.814,18.037-23.737c20.187-26.248,41.066-53.386,55.617-83.361
			c7.417-15.731,12.427-32.261,17.271-48.245c6.819-22.506,13.869-45.776,27.804-67.695c6.805-11.332,15.179-22.097,23.285-32.507
			c11.896-15.286,24.197-31.086,31.426-48.803c2.439-5.355,2.552-11.219,2.673-17.422c0.148-7.369,0.298-14.987,4.25-22.215
			c4.562-8.34,11.663-12.838,18.539-17.188c4.138-2.618,8.042-5.093,11.252-8.304c12.853-12.844,18.32-28.992,24.105-46.08
			c4.803-14.196,9.775-28.872,19.366-41.13l3.025-3.572c16.991-20.016,33.039-38.929,41.295-62.68
			c8.769-23.688,9.117-47.678,9.485-73.084c0.09-6.316,0.181-12.647,0.408-18.971c0.425-14.309,7.674-20.462,16.828-23.071
			c-0.264-0.079-0.532-0.156-0.794-0.241l-7.002-2.15l5.956-4.258c21.119-15.072,16.672-44.772,13.416-66.45l-0.274-1.868
			c-4.696-32.862,2.589-52.631,13.631-82.556c1.563-4.103,0.423-7.922-3.469-11.706c-12.497-12.18-48.287-18.249-61.308-12.916
			c-8.133,3.345-13.113,10.383-18.885,18.538c-6.465,9.146-13.8,19.514-27.082,25.208c-15.038,5.991-30.519,7.639-45.493,9.237
			c-14.069,1.499-27.351,2.915-39.94,7.639c-6.472,2.426-12.683,5.106-18.801,7.751c-19.839,8.573-38.591,16.586-62.411,14.896
			c-6.304-0.792-11.715-2.051-16.955-3.268c-10.426-2.412-19.424-4.498-31.49-2.406c-9.653,1.932-19.223,5.503-28.473,8.948
			c-6.346,2.37-12.901,4.817-19.391,6.676c-26.424,7.717-43.582,7.456-70.565-1.131c-14.628-4.413-40.72,13.072-59.753,25.81
			c-7.679,5.149-14.321,9.591-19.401,12.13c-31.849,16.982-48.639,14.11-76.423,9.421c-4.447-0.757-9.203-1.563-14.377-2.349
			l-8.164-1.301c-28.949-4.674-36.716-5.919-63.381,10.886c-16.615,11.041-43.047,26.037-62.616,31.814
			c-53.303,15.413-103.776,3.247-135.031-32.493c-8.063-9.521-15.377-20.562-22.449-31.242
			c-14.401-21.721-29.261-44.156-51.818-57.058c-7.425,14.047-18.297,27.082-28.829,39.722
			c-13.522,16.225-26.29,31.546-32.146,48.506c-9.945,26.807,9.301,49.072,31.666,71.409c12.753,13.672,20.363,25.76,29.183,39.757
			c2.285,3.629,4.646,7.385,7.208,11.324c1.732,2.9,3.337,6.281,5.037,9.86c4.949,10.461,10.565,22.308,20.75,24.479
			c13.827,3.19,18.567,7.539,27.168,15.434l3.677,3.353c26.283,24.423,56.505,34.382,91.498,45.91
			c5.99,1.974,12.101,3.989,18.326,6.125l27.803,9.52c35.563,12.208,72.334,24.827,108.995,36.447
			c14.964,4.994,30.145,10.716,44.815,16.247c28.621,10.793,58.223,21.955,88.346,28.575c29.269,7.108,59.642,5.722,89.014,4.364
			c11.784-0.545,23.971-1.104,35.89-1.104h9.293l-6.846,6.288c-79.968,73.481-161.448,153.448-242.165,237.674
			c-45.33,46.681-78.855,82.966-108.725,117.681c-19.197,22.436-57.688,18.679-91.646,15.325c-16.803-1.634-32.684-3.195-45.3-1.746
			c-52.349,6.684-83.958,27.774-117.98,59.639c-18.281,16.926-40.165,20.217-61.33,23.392c-15.099,2.269-30.725,4.619-44.939,11.959
			c-23.879,12.647-40.162,40.692-55.897,67.817c-8.628,14.859-16.778,28.906-25.959,40.081
			c-5.467,6.966-12.887,13.326-20.066,19.473c-9.095,7.787-18.496,15.844-23.312,24.824c-7.08,12.592-5.856,31.081-4.775,47.396
			c0.384,5.694,0.736,11.113,0.736,15.963h-7.242c0-4.702-0.354-9.965-0.714-15.48c-1.153-17.327-2.455-36.963,5.649-51.364
			c5.42-10.115,15.343-18.615,24.948-26.843c6.91-5.91,14.053-12.03,19.125-18.503c8.862-10.784,16.869-24.576,25.343-39.183
			c16.252-28.002,33.059-56.959,58.804-70.597c15.32-7.908,31.537-10.347,47.226-12.703c21-3.16,40.832-6.141,57.469-21.537
			c34.084-31.928,67.893-54.608,122.044-61.528c13.466-1.526,29.699,0.063,46.872,1.733c33.788,3.325,68.687,6.728,85.449-12.837
			c29.974-34.835,63.594-71.218,109.008-117.991c78.475-81.884,157.686-159.758,235.538-231.584
			c-8.735,0.191-17.563,0.594-26.164,0.99c-29.883,1.386-60.799,2.794-90.98-4.541c-30.554-6.712-60.402-17.972-89.267-28.858
			c-14.612-5.509-29.713-11.203-44.502-16.133c-36.691-11.628-73.504-24.268-109.102-36.482l-27.798-9.521
			c-6.202-2.128-12.285-4.131-18.248-6.097c-35.804-11.798-66.719-21.99-94.121-47.452l-3.683-3.36
			c-8.438-7.746-11.932-10.949-23.844-13.694c-13.629-2.907-20.335-17.066-25.724-28.455c-1.59-3.353-3.084-6.521-4.641-9.124
			c-2.511-3.861-4.894-7.646-7.185-11.295c-8.623-13.687-16.07-25.505-28.264-38.59c-19.211-19.182-45.635-45.578-33.28-78.878
			c6.259-18.143,20.058-34.693,33.398-50.699c11.097-13.312,22.571-27.083,29.587-41.625l1.613-3.353l3.303,1.705
			c26.057,13.417,42.17,37.727,57.744,61.245c7.277,10.984,14.153,21.36,21.903,30.513c29.32,33.532,76.985,44.856,127.514,30.266
			c18.771-5.546,44.438-20.131,60.713-30.938c29.055-18.319,38.979-16.713,68.468-11.96l8.112,1.293
			c5.199,0.786,10.002,1.599,14.486,2.363c27.18,4.611,42.133,7.144,71.889-8.713c4.754-2.377,11.219-6.707,18.693-11.714
			c21.376-14.309,47.991-32.14,65.92-26.707c25.434,8.077,41.575,8.339,66.423,1.089c6.226-1.79,12.364-4.074,18.865-6.5
			c9.519-3.551,19.366-7.222,29.675-9.28c13.567-2.384,23.725-0.028,34.459,2.468c5.061,1.174,10.293,2.384,16.036,3.113
			c21.927,1.635,39.827-6.14,58.813-14.337c6.23-2.694,12.553-5.425,19.139-7.886c13.445-5.05,27.81-6.578,41.709-8.057
			c14.492-1.549,29.473-3.141,43.49-8.735c11.324-4.853,17.739-13.92,23.943-22.69c5.886-8.318,11.969-16.919,22.047-21.056
			c15.752-6.451,54.165-0.128,69.117,14.422c7.596,7.391,7.01,14.654,5.183,19.436c-10.636,28.857-17.673,47.941-13.238,78.976
			l0.274,1.833c3.043,20.313,7.513,50.125-10.679,68.579c5.199,0.75,9.285,0.226,11.458-1.641c1.816-1.577,2.441-4.364,1.84-8.29
			l-1.247-8.127l6.841,4.569c5.586,3.742,13.009,5.822,20.18,7.829l5.777,1.643l-0.906,3.43
			c-3.109,11.876-16.629,11.727-29.805,11.578c-19.486-0.225-31.291,0.877-31.785,17.91c-0.227,6.295-0.318,12.576-0.41,18.843
			c-0.362,24.896-0.73,50.642-9.908,75.426c-8.681,24.96-25.152,44.369-42.588,64.923l-2.936,3.458
			c-8.741,11.168-13.297,24.628-18.121,38.873c-5.8,17.132-11.798,34.842-25.843,48.882c-3.778,3.784-8.213,6.585-12.499,9.301
			c-6.373,4.031-12.4,7.844-16.063,14.549c-3.104,5.665-3.227,12.08-3.36,18.877c-0.127,6.67-0.262,13.566-3.269,20.158
			c-7.553,18.497-20.166,34.7-32.358,50.374c-7.972,10.242-16.212,20.829-22.837,31.871c-13.454,21.155-20.358,43.944-27.034,65.983
			c-4.923,16.232-10.007,33.023-17.669,49.271c-14.889,30.682-36,58.12-56.414,84.65c-6.062,7.885-12.114,15.75-17.992,23.679
			c-10.717,13.99-20.047,29.239-29.072,43.986c-12.667,20.71-25.766,42.121-42.988,60.636
			c-10.984,11.742-21.833,23.477-32.685,35.225c-20.963,22.676-42.634,46.13-64.95,69.166
			c-72.195,75.937-139.926,130.108-219.596,175.644c-38.971,21.947-73.58,42.203-102.599,68.028
			c-10.951,9.872-22.516,19.756-34.221,29.756c-23.999,20.506-48.81,41.704-69.88,64.259
			c-15.271,16.409-31.375,33.086-46.949,49.213c-15.576,16.127-31.151,32.254-46.152,48.364
			c-7.229,7.772-14.046,16.298-20.64,24.544c-6.633,8.304-13.501,16.891-20.865,24.819c-1.294,1.459-3.021,3.56-4.999,5.963
			c-13.123,15.928-24.679,28.858-33.478,26.835c-0.121-0.028-0.242-0.065-0.36-0.102C692.95,1799.004,677,1828.323,648.459,1859.559
			z M1808.662,401.655c9.109,0.029,15.582-0.291,18.734-3.042c-4.773-1.351-9.831-2.886-14.475-5.043
			C1812.29,397.559,1810.432,400.092,1808.662,401.655z"/>
	</g>
</g>
</svg>
