<?xml version="1.0" encoding="utf-8"?>
<!-- Generator: Adobe Illustrator 16.0.0, SVG Export Plug-In . SVG Version: 6.00 Build 0)  -->
<!DOCTYPE svg PUBLIC "-//W3C//DTD SVG 1.1//EN" "http://www.w3.org/Graphics/SVG/1.1/DTD/svg11.dtd">
<svg version="1.1" id="Layer_1" xmlns="http://www.w3.org/2000/svg" xmlns:xlink="http://www.w3.org/1999/xlink" x="0px" y="0px"
	 width="1900px" height="1189px" viewBox="0 0 1900 1189" enable-background="new 0 0 1900 1189" xml:space="preserve">
<text id="text719" transform="matrix(0.9897 0 0 1 345.0464 85.9004)" font-family="'Arial-BoldMT'" font-size="51.9092">Turkmenistan map of Köppen climate classification</text>
<g>
	
		<rect id="rect12069_2_" x="347.441" y="887.097" fill="#FE9594" stroke="#000000" stroke-width="0.5" stroke-miterlimit="10" width="45.799" height="41.047"/>
	<g enable-background="new    ">
		<path d="M421.535,911.195l5.978,1.895c-0.917,3.333-2.44,5.808-4.572,7.426c-2.131,1.617-4.835,2.426-8.112,2.426
			c-4.055,0-7.387-1.385-9.998-4.155c-2.61-2.77-3.916-6.557-3.916-11.361c0-5.081,1.313-9.028,3.937-11.84
			c2.625-2.812,6.075-4.218,10.351-4.218c3.735,0,6.769,1.104,9.102,3.312c1.388,1.306,2.43,3.18,3.124,5.624l-6.102,1.457
			c-0.361-1.582-1.114-2.832-2.26-3.748c-1.146-0.917-2.538-1.375-4.176-1.375c-2.264,0-4.1,0.813-5.509,2.437
			c-1.409,1.625-2.114,4.256-2.114,7.894c0,3.86,0.694,6.609,2.083,8.248c1.389,1.639,3.194,2.457,5.416,2.457
			c1.638,0,3.047-0.521,4.228-1.562S421.021,913.431,421.535,911.195z"/>
		<path d="M431.408,911.049c0-1.943,0.479-3.824,1.437-5.644s2.315-3.208,4.072-4.166c1.756-0.958,3.718-1.437,5.884-1.437
			c3.346,0,6.088,1.086,8.227,3.259c2.138,2.174,3.208,4.919,3.208,8.237c0,3.347-1.08,6.12-3.239,8.32
			c-2.159,2.201-4.877,3.302-8.154,3.302c-2.027,0-3.961-0.458-5.8-1.375c-1.84-0.916-3.239-2.26-4.197-4.03
			C431.887,915.746,431.408,913.59,431.408,911.049z M437.406,911.361c0,2.194,0.521,3.874,1.562,5.04
			c1.042,1.167,2.326,1.75,3.853,1.75s2.808-0.583,3.843-1.75c1.034-1.166,1.552-2.859,1.552-5.081c0-2.166-0.518-3.833-1.552-4.999
			c-1.035-1.166-2.315-1.749-3.843-1.749s-2.812,0.583-3.853,1.749S437.406,909.168,437.406,911.361z"/>
		<path d="M458.816,922.421v-30.533h5.853v30.533H458.816z"/>
		<path d="M490.952,922.421h-5.436v-3.249c-0.903,1.264-1.968,2.204-3.197,2.822c-1.229,0.617-2.468,0.927-3.718,0.927
			c-2.541,0-4.717-1.024-6.529-3.072s-2.718-4.904-2.718-8.57c0-3.749,0.881-6.599,2.645-8.55c1.763-1.95,3.992-2.926,6.686-2.926
			c2.471,0,4.61,1.027,6.415,3.082v-10.997h5.852V922.421z M475.332,910.883c0,2.36,0.326,4.068,0.979,5.123
			c0.944,1.527,2.263,2.291,3.958,2.291c1.347,0,2.492-0.572,3.437-1.718c0.944-1.146,1.416-2.856,1.416-5.134
			c0-2.541-0.458-4.37-1.375-5.488c-0.917-1.117-2.09-1.677-3.52-1.677c-1.389,0-2.552,0.552-3.489,1.656
			C475.8,907.04,475.332,908.688,475.332,910.883z"/>
		<path d="M528.858,922.421h-5.436v-3.249c-0.903,1.264-1.968,2.204-3.197,2.822c-1.229,0.617-2.468,0.927-3.718,0.927
			c-2.541,0-4.717-1.024-6.529-3.072s-2.718-4.904-2.718-8.57c0-3.749,0.881-6.599,2.645-8.55c1.763-1.95,3.992-2.926,6.686-2.926
			c2.471,0,4.61,1.027,6.415,3.082v-10.997h5.852V922.421z M513.238,910.883c0,2.36,0.326,4.068,0.979,5.123
			c0.944,1.527,2.263,2.291,3.958,2.291c1.347,0,2.492-0.572,3.437-1.718c0.944-1.146,1.416-2.856,1.416-5.134
			c0-2.541-0.458-4.37-1.375-5.488c-0.917-1.117-2.09-1.677-3.52-1.677c-1.389,0-2.552,0.552-3.489,1.656
			C513.706,907.04,513.238,908.688,513.238,910.883z"/>
		<path d="M547.437,915.381l5.832,0.979c-0.75,2.138-1.934,3.767-3.551,4.884c-1.618,1.118-3.642,1.677-6.071,1.677
			c-3.846,0-6.692-1.257-8.539-3.77c-1.458-2.014-2.187-4.555-2.187-7.623c0-3.666,0.958-6.536,2.874-8.612
			c1.916-2.075,4.339-3.113,7.269-3.113c3.291,0,5.887,1.086,7.79,3.259c1.902,2.174,2.812,5.502,2.729,9.987h-14.663
			c0.042,1.735,0.514,3.086,1.416,4.051c0.903,0.965,2.027,1.447,3.374,1.447c0.917,0,1.687-0.25,2.312-0.75
			C546.645,917.298,547.117,916.492,547.437,915.381z M547.77,909.467c-0.042-1.694-0.479-2.982-1.312-3.864
			c-0.833-0.881-1.847-1.322-3.041-1.322c-1.277,0-2.333,0.466-3.166,1.396c-0.833,0.931-1.243,2.194-1.229,3.791H547.77z"/>
		<path d="M556.288,916.11l5.874-0.896c0.25,1.139,0.756,2.003,1.521,2.593c0.763,0.591,1.833,0.885,3.207,0.885
			c1.514,0,2.652-0.277,3.416-0.833c0.513-0.389,0.771-0.909,0.771-1.562c0-0.444-0.139-0.813-0.417-1.104
			c-0.292-0.277-0.944-0.534-1.958-0.771c-4.721-1.041-7.713-1.992-8.977-2.853c-1.75-1.194-2.624-2.854-2.624-4.979
			c0-1.916,0.756-3.526,2.27-4.832c1.513-1.305,3.86-1.957,7.04-1.957c3.027,0,5.276,0.493,6.748,1.479
			c1.472,0.986,2.485,2.444,3.041,4.374l-5.519,1.021c-0.236-0.861-0.684-1.521-1.344-1.979c-0.66-0.459-1.6-0.688-2.822-0.688
			c-1.542,0-2.645,0.215-3.312,0.646c-0.445,0.306-0.667,0.701-0.667,1.188c0,0.416,0.194,0.771,0.583,1.062
			c0.527,0.389,2.35,0.938,5.467,1.646c3.117,0.708,5.293,1.576,6.529,2.604c1.222,1.041,1.833,2.492,1.833,4.353
			c0,2.027-0.847,3.771-2.541,5.229c-1.694,1.457-4.201,2.187-7.519,2.187c-3.013,0-5.397-0.611-7.154-1.833
			C557.978,919.866,556.829,918.207,556.288,916.11z"/>
		<path d="M594.881,915.381l5.832,0.979c-0.75,2.138-1.934,3.767-3.551,4.884c-1.618,1.118-3.642,1.677-6.071,1.677
			c-3.846,0-6.692-1.257-8.539-3.77c-1.458-2.014-2.187-4.555-2.187-7.623c0-3.666,0.958-6.536,2.874-8.612
			c1.916-2.075,4.339-3.113,7.269-3.113c3.291,0,5.887,1.086,7.79,3.259c1.902,2.174,2.812,5.502,2.729,9.987h-14.663
			c0.042,1.735,0.514,3.086,1.416,4.051c0.903,0.965,2.027,1.447,3.374,1.447c0.917,0,1.687-0.25,2.312-0.75
			C594.089,917.298,594.561,916.492,594.881,915.381z M595.214,909.467c-0.042-1.694-0.479-2.982-1.312-3.864
			c-0.833-0.881-1.847-1.322-3.041-1.322c-1.277,0-2.333,0.466-3.166,1.396c-0.833,0.931-1.243,2.194-1.229,3.791H595.214z"/>
		<path d="M611.396,922.421h-5.853v-22.118h5.436v3.145c0.93-1.485,1.767-2.465,2.51-2.937c0.743-0.472,1.586-0.708,2.53-0.708
			c1.333,0,2.617,0.368,3.853,1.104l-1.812,5.103c-0.986-0.639-1.903-0.958-2.75-0.958c-0.819,0-1.514,0.226-2.083,0.677
			c-0.57,0.451-1.018,1.268-1.343,2.447c-0.327,1.181-0.49,3.652-0.49,7.415V922.421z"/>
		<path d="M632.537,900.303v4.665h-3.999v8.914c0,1.805,0.038,2.856,0.115,3.155c0.076,0.299,0.25,0.545,0.521,0.739
			c0.271,0.194,0.601,0.292,0.989,0.292c0.542,0,1.326-0.188,2.354-0.563l0.5,4.54c-1.361,0.583-2.902,0.875-4.624,0.875
			c-1.056,0-2.007-0.177-2.854-0.531c-0.847-0.354-1.468-0.813-1.864-1.375c-0.396-0.562-0.67-1.322-0.822-2.28
			c-0.125-0.68-0.188-2.055-0.188-4.124v-9.643h-2.687v-4.665h2.687v-4.395l5.873-3.416v7.811H632.537z"/>
		<path d="M667.734,906.842l-5.769,1.042c-0.195-1.152-0.635-2.021-1.323-2.604c-0.687-0.583-1.58-0.875-2.676-0.875
			c-1.458,0-2.621,0.504-3.488,1.51c-0.868,1.007-1.302,2.69-1.302,5.051c0,2.624,0.44,4.478,1.322,5.561s2.065,1.625,3.551,1.625
			c1.11,0,2.02-0.315,2.729-0.947c0.708-0.632,1.208-1.719,1.5-3.26l5.748,0.979c-0.597,2.639-1.743,4.631-3.437,5.978
			s-3.964,2.021-6.811,2.021c-3.235,0-5.814-1.021-7.737-3.062c-1.923-2.041-2.884-4.866-2.884-8.477
			c0-3.652,0.965-6.495,2.895-8.529c1.93-2.034,4.54-3.051,7.831-3.051c2.693,0,4.835,0.58,6.425,1.739
			S667.04,904.468,667.734,906.842z"/>
		<path d="M672.171,922.421v-30.533h5.853v30.533H672.171z"/>
		<path d="M684.021,897.303v-5.415h5.853v5.415H684.021z M684.021,922.421v-22.118h5.853v22.118H684.021z"/>
		<path d="M695.435,900.303h5.395v3.02c1.93-2.347,4.228-3.52,6.894-3.52c1.417,0,2.646,0.291,3.687,0.874
			c1.042,0.584,1.896,1.466,2.562,2.646c0.972-1.18,2.02-2.062,3.145-2.646c1.125-0.583,2.325-0.874,3.603-0.874
			c1.625,0,2.999,0.33,4.124,0.989c1.125,0.659,1.965,1.628,2.52,2.905c0.403,0.944,0.604,2.472,0.604,4.582v14.142h-5.852v-12.643
			c0-2.193-0.202-3.609-0.604-4.248c-0.542-0.833-1.375-1.25-2.5-1.25c-0.819,0-1.59,0.25-2.312,0.75
			c-0.722,0.5-1.243,1.232-1.562,2.197s-0.479,2.488-0.479,4.571v10.622h-5.852V910.3c0-2.152-0.104-3.541-0.313-4.166
			c-0.208-0.625-0.531-1.09-0.969-1.396c-0.437-0.305-1.031-0.458-1.781-0.458c-0.902,0-1.715,0.243-2.437,0.729
			c-0.722,0.485-1.239,1.187-1.552,2.104c-0.313,0.916-0.469,2.437-0.469,4.561v10.747h-5.853V900.303z"/>
		<path d="M738.173,907.051l-5.311-0.958c0.597-2.139,1.625-3.722,3.083-4.749c1.458-1.027,3.624-1.541,6.498-1.541
			c2.61,0,4.554,0.309,5.832,0.927c1.277,0.618,2.176,1.402,2.697,2.354c0.521,0.951,0.781,2.697,0.781,5.238l-0.063,6.831
			c0,1.944,0.094,3.377,0.281,4.301s0.538,1.913,1.052,2.968h-5.79c-0.153-0.389-0.34-0.965-0.562-1.729
			c-0.098-0.347-0.167-0.576-0.208-0.688c-1,0.972-2.069,1.701-3.208,2.187c-1.139,0.486-2.354,0.729-3.645,0.729
			c-2.277,0-4.072-0.618-5.384-1.854c-1.313-1.236-1.968-2.798-1.968-4.687c0-1.25,0.298-2.364,0.896-3.343
			c0.597-0.979,1.434-1.729,2.51-2.249c1.076-0.521,2.627-0.976,4.655-1.364c2.735-0.514,4.63-0.993,5.686-1.438v-0.583
			c0-1.125-0.278-1.927-0.833-2.405c-0.555-0.479-1.604-0.719-3.145-0.719c-1.042,0-1.854,0.205-2.437,0.614
			C739.006,905.305,738.534,906.023,738.173,907.051z M746.004,911.799c-0.75,0.25-1.937,0.549-3.562,0.896
			c-1.625,0.348-2.687,0.688-3.187,1.021c-0.764,0.542-1.146,1.229-1.146,2.063c0,0.819,0.305,1.527,0.916,2.124
			s1.389,0.896,2.333,0.896c1.055,0,2.062-0.347,3.02-1.041c0.708-0.527,1.173-1.174,1.395-1.938c0.153-0.5,0.229-1.45,0.229-2.854
			V911.799z"/>
		<path d="M767.664,900.303v4.665h-3.999v8.914c0,1.805,0.038,2.856,0.115,3.155c0.076,0.299,0.25,0.545,0.521,0.739
			c0.271,0.194,0.601,0.292,0.989,0.292c0.542,0,1.326-0.188,2.354-0.563l0.5,4.54c-1.361,0.583-2.902,0.875-4.624,0.875
			c-1.056,0-2.007-0.177-2.854-0.531c-0.847-0.354-1.468-0.813-1.864-1.375c-0.396-0.562-0.67-1.322-0.822-2.28
			c-0.125-0.68-0.188-2.055-0.188-4.124v-9.643h-2.687v-4.665h2.687v-4.395l5.873-3.416v7.811H767.664z"/>
		<path d="M784.534,915.381l5.832,0.979c-0.75,2.138-1.934,3.767-3.551,4.884c-1.618,1.118-3.642,1.677-6.071,1.677
			c-3.846,0-6.692-1.257-8.539-3.77c-1.458-2.014-2.187-4.555-2.187-7.623c0-3.666,0.958-6.536,2.874-8.612
			c1.916-2.075,4.339-3.113,7.269-3.113c3.291,0,5.887,1.086,7.79,3.259c1.902,2.174,2.812,5.502,2.729,9.987h-14.663
			c0.042,1.735,0.514,3.086,1.416,4.051c0.903,0.965,2.027,1.447,3.374,1.447c0.917,0,1.687-0.25,2.312-0.75
			C783.743,917.298,784.214,916.492,784.534,915.381z M784.867,909.467c-0.042-1.694-0.479-2.982-1.312-3.864
			c-0.833-0.881-1.847-1.322-3.041-1.322c-1.277,0-2.333,0.466-3.166,1.396c-0.833,0.931-1.243,2.194-1.229,3.791H784.867z"/>
		<path d="M817.004,931.397h-4.02c-2.125-3.207-3.742-6.54-4.853-9.997s-1.666-6.804-1.666-10.039c0-4.013,0.688-7.81,2.062-11.393
			c1.194-3.109,2.708-5.978,4.54-8.602h3.999c-1.902,4.207-3.211,7.786-3.926,10.736c-0.715,2.951-1.073,6.079-1.073,9.383
			c0,2.277,0.211,4.61,0.635,6.998c0.423,2.389,1.003,4.658,1.739,6.811C814.928,926.711,815.782,928.745,817.004,931.397z"/>
		<path d="M821.565,891.888h12.205c2.416,0,4.217,0.102,5.404,0.303c1.188,0.201,2.25,0.621,3.187,1.26
			c0.938,0.639,1.718,1.489,2.343,2.552c0.625,1.062,0.938,2.253,0.938,3.571c0,1.431-0.386,2.742-1.156,3.937
			s-1.815,2.09-3.134,2.687c1.86,0.542,3.291,1.465,4.291,2.771c1,1.305,1.5,2.839,1.5,4.603c0,1.389-0.323,2.738-0.969,4.051
			s-1.527,2.36-2.645,3.145c-1.118,0.785-2.496,1.268-4.134,1.448c-1.027,0.111-3.506,0.181-7.435,0.208h-10.393V891.888z
			 M827.73,896.97v7.061h4.041c2.402,0,3.895-0.034,4.478-0.104c1.055-0.124,1.885-0.489,2.489-1.093
			c0.604-0.604,0.906-1.398,0.906-2.385c0-0.944-0.26-1.711-0.781-2.302c-0.521-0.59-1.295-0.947-2.322-1.072
			c-0.611-0.069-2.368-0.104-5.27-0.104H827.73z M827.73,909.112v8.164h5.707c2.221,0,3.631-0.063,4.228-0.188
			c0.917-0.166,1.663-0.572,2.239-1.218c0.576-0.646,0.864-1.511,0.864-2.594c0-0.916-0.222-1.693-0.667-2.332
			s-1.086-1.104-1.926-1.396c-0.84-0.292-2.663-0.438-5.467-0.438H827.73z"/>
		<path d="M856.68,922.421l-7.29-30.533h6.311l4.603,20.974l5.582-20.974h7.331l5.353,21.327l4.686-21.327h6.207l-7.414,30.533
			h-6.54l-6.082-22.827l-6.061,22.827H856.68z"/>
		<path d="M892.357,922.421v-30.533h5.852v16.204l6.853-7.789h7.206l-7.56,8.081l8.102,14.037h-6.311l-5.561-9.935l-2.729,2.854
			v7.081H892.357z"/>
		<path d="M914.663,931.397c1.152-2.472,1.965-4.367,2.437-5.686c0.472-1.319,0.909-2.84,1.312-4.562
			c0.402-1.722,0.701-3.356,0.896-4.905c0.194-1.548,0.292-3.134,0.292-4.759c0-3.304-0.354-6.432-1.062-9.383
			c-0.708-2.95-2.014-6.529-3.916-10.736h3.978c2.096,2.985,3.725,6.151,4.884,9.497c1.159,3.347,1.739,6.741,1.739,10.185
			c0,2.902-0.458,6.013-1.375,9.331c-1.042,3.721-2.756,7.394-5.145,11.018H914.663z"/>
	</g>
</g>
<g>
	
		<rect id="rect12069_1_" x="347.441" y="995.144" fill="#FDDA62" stroke="#000000" stroke-width="0.5" stroke-miterlimit="10" width="45.799" height="41.047"/>
	<g enable-background="new    ">
		<path d="M421.535,1019.244l5.978,1.895c-0.917,3.333-2.44,5.808-4.572,7.426c-2.131,1.617-4.835,2.426-8.112,2.426
			c-4.055,0-7.387-1.385-9.998-4.155c-2.61-2.77-3.916-6.557-3.916-11.361c0-5.081,1.313-9.028,3.937-11.84
			c2.625-2.812,6.075-4.218,10.351-4.218c3.735,0,6.769,1.104,9.102,3.312c1.388,1.306,2.43,3.18,3.124,5.624l-6.102,1.457
			c-0.361-1.582-1.114-2.832-2.26-3.748c-1.146-0.917-2.538-1.375-4.176-1.375c-2.264,0-4.1,0.813-5.509,2.437
			c-1.409,1.625-2.114,4.256-2.114,7.894c0,3.86,0.694,6.609,2.083,8.248c1.389,1.639,3.194,2.457,5.416,2.457
			c1.638,0,3.047-0.521,4.228-1.562S421.021,1021.479,421.535,1019.244z"/>
		<path d="M431.408,1019.098c0-1.943,0.479-3.824,1.437-5.644s2.315-3.208,4.072-4.166c1.756-0.958,3.718-1.437,5.884-1.437
			c3.346,0,6.088,1.086,8.227,3.259c2.138,2.174,3.208,4.919,3.208,8.237c0,3.347-1.08,6.12-3.239,8.32
			c-2.159,2.201-4.877,3.302-8.154,3.302c-2.027,0-3.961-0.458-5.8-1.375c-1.84-0.916-3.239-2.26-4.197-4.03
			C431.887,1023.795,431.408,1021.639,431.408,1019.098z M437.406,1019.41c0,2.194,0.521,3.874,1.562,5.04
			c1.042,1.167,2.326,1.75,3.853,1.75s2.808-0.583,3.843-1.75c1.034-1.166,1.552-2.859,1.552-5.081c0-2.166-0.518-3.833-1.552-4.999
			c-1.035-1.166-2.315-1.749-3.843-1.749s-2.812,0.583-3.853,1.749S437.406,1017.217,437.406,1019.41z"/>
		<path d="M458.816,1030.47v-30.533h5.853v30.533H458.816z"/>
		<path d="M490.952,1030.47h-5.436v-3.249c-0.903,1.264-1.968,2.204-3.197,2.822c-1.229,0.617-2.468,0.927-3.718,0.927
			c-2.541,0-4.717-1.024-6.529-3.072s-2.718-4.904-2.718-8.57c0-3.749,0.881-6.599,2.645-8.55c1.763-1.95,3.992-2.926,6.686-2.926
			c2.471,0,4.61,1.027,6.415,3.082v-10.997h5.852V1030.47z M475.332,1018.932c0,2.36,0.326,4.068,0.979,5.123
			c0.944,1.527,2.263,2.291,3.958,2.291c1.347,0,2.492-0.572,3.437-1.718c0.944-1.146,1.416-2.856,1.416-5.134
			c0-2.541-0.458-4.37-1.375-5.488c-0.917-1.117-2.09-1.677-3.52-1.677c-1.389,0-2.552,0.552-3.489,1.656
			C475.8,1015.089,475.332,1016.737,475.332,1018.932z"/>
		<path d="M506.51,1024.159l5.874-0.896c0.25,1.139,0.756,2.003,1.521,2.593c0.763,0.591,1.833,0.885,3.207,0.885
			c1.514,0,2.652-0.277,3.416-0.833c0.513-0.389,0.771-0.909,0.771-1.562c0-0.444-0.139-0.813-0.417-1.104
			c-0.292-0.277-0.944-0.534-1.958-0.771c-4.721-1.041-7.713-1.992-8.977-2.853c-1.75-1.194-2.624-2.854-2.624-4.979
			c0-1.916,0.756-3.526,2.27-4.832c1.513-1.305,3.86-1.957,7.04-1.957c3.027,0,5.276,0.493,6.748,1.479
			c1.472,0.986,2.485,2.444,3.041,4.374l-5.519,1.021c-0.236-0.861-0.684-1.521-1.344-1.979c-0.66-0.459-1.6-0.688-2.822-0.688
			c-1.542,0-2.645,0.215-3.312,0.646c-0.445,0.306-0.667,0.701-0.667,1.188c0,0.416,0.194,0.771,0.583,1.062
			c0.527,0.389,2.35,0.938,5.467,1.646c3.117,0.708,5.293,1.576,6.529,2.604c1.222,1.041,1.833,2.492,1.833,4.353
			c0,2.027-0.847,3.771-2.541,5.229c-1.694,1.457-4.201,2.187-7.519,2.187c-3.013,0-5.397-0.611-7.154-1.833
			C508.201,1027.915,507.052,1026.256,506.51,1024.159z"/>
		<path d="M545.104,1023.43l5.832,0.979c-0.75,2.138-1.934,3.767-3.551,4.884c-1.618,1.118-3.642,1.677-6.071,1.677
			c-3.846,0-6.692-1.257-8.539-3.77c-1.458-2.014-2.187-4.555-2.187-7.623c0-3.666,0.958-6.536,2.874-8.612
			c1.916-2.075,4.339-3.113,7.269-3.113c3.291,0,5.887,1.086,7.79,3.259c1.902,2.174,2.812,5.502,2.729,9.987h-14.663
			c0.042,1.735,0.514,3.086,1.416,4.051c0.903,0.965,2.027,1.447,3.374,1.447c0.917,0,1.687-0.25,2.312-0.75
			C544.312,1025.347,544.784,1024.541,545.104,1023.43z M545.437,1017.516c-0.042-1.694-0.479-2.982-1.312-3.864
			c-0.833-0.881-1.847-1.322-3.041-1.322c-1.277,0-2.333,0.466-3.166,1.396c-0.833,0.931-1.243,2.194-1.229,3.791H545.437z"/>
		<path d="M555.58,1008.352h5.395v3.02c1.93-2.347,4.228-3.52,6.894-3.52c1.417,0,2.646,0.291,3.687,0.874
			c1.042,0.584,1.896,1.466,2.562,2.646c0.972-1.18,2.02-2.062,3.145-2.646c1.125-0.583,2.325-0.874,3.603-0.874
			c1.625,0,2.999,0.33,4.124,0.989c1.125,0.659,1.965,1.628,2.52,2.905c0.403,0.944,0.604,2.472,0.604,4.582v14.142h-5.852v-12.643
			c0-2.193-0.202-3.609-0.604-4.248c-0.542-0.833-1.375-1.25-2.5-1.25c-0.819,0-1.59,0.25-2.312,0.75
			c-0.722,0.5-1.243,1.232-1.562,2.197s-0.479,2.488-0.479,4.571v10.622h-5.852v-12.121c0-2.152-0.104-3.541-0.313-4.166
			c-0.208-0.625-0.531-1.09-0.969-1.396c-0.437-0.305-1.031-0.458-1.781-0.458c-0.902,0-1.715,0.243-2.437,0.729
			c-0.722,0.485-1.239,1.187-1.552,2.104c-0.313,0.916-0.469,2.437-0.469,4.561v10.747h-5.853V1008.352z"/>
		<path d="M593.943,1005.352v-5.415h5.853v5.415H593.943z M593.943,1030.47v-22.118h5.853v22.118H593.943z"/>
		<path d="M605.127,1022.326v-5.853h11.497v5.853H605.127z"/>
		<path d="M624.373,1015.1l-5.311-0.958c0.597-2.139,1.625-3.722,3.083-4.749c1.458-1.027,3.624-1.541,6.498-1.541
			c2.61,0,4.554,0.309,5.832,0.927c1.277,0.618,2.176,1.402,2.697,2.354c0.521,0.951,0.781,2.697,0.781,5.238l-0.063,6.831
			c0,1.944,0.094,3.377,0.281,4.301s0.538,1.913,1.052,2.968h-5.79c-0.153-0.389-0.34-0.965-0.562-1.729
			c-0.098-0.347-0.167-0.576-0.208-0.688c-1,0.972-2.069,1.701-3.208,2.187c-1.139,0.486-2.354,0.729-3.645,0.729
			c-2.277,0-4.072-0.618-5.384-1.854c-1.313-1.236-1.968-2.798-1.968-4.687c0-1.25,0.298-2.364,0.896-3.343
			c0.597-0.979,1.434-1.729,2.51-2.249c1.076-0.521,2.627-0.976,4.655-1.364c2.735-0.514,4.63-0.993,5.686-1.438v-0.583
			c0-1.125-0.278-1.927-0.833-2.405c-0.555-0.479-1.604-0.719-3.145-0.719c-1.042,0-1.854,0.205-2.437,0.614
			C625.206,1013.354,624.733,1014.072,624.373,1015.1z M632.204,1019.848c-0.75,0.25-1.937,0.549-3.562,0.896
			c-1.625,0.348-2.687,0.688-3.187,1.021c-0.764,0.542-1.146,1.229-1.146,2.063c0,0.819,0.305,1.527,0.916,2.124
			s1.389,0.896,2.333,0.896c1.055,0,2.062-0.347,3.02-1.041c0.708-0.527,1.173-1.174,1.395-1.938c0.153-0.5,0.229-1.45,0.229-2.854
			V1019.848z"/>
		<path d="M649.323,1030.47h-5.853v-22.118h5.436v3.145c0.93-1.485,1.767-2.465,2.51-2.937c0.743-0.472,1.586-0.708,2.53-0.708
			c1.333,0,2.617,0.368,3.853,1.104l-1.812,5.103c-0.986-0.639-1.903-0.958-2.75-0.958c-0.819,0-1.514,0.226-2.083,0.677
			c-0.57,0.451-1.018,1.268-1.343,2.447c-0.327,1.181-0.49,3.652-0.49,7.415V1030.47z"/>
		<path d="M660.32,1005.352v-5.415h5.853v5.415H660.32z M660.32,1030.47v-22.118h5.853v22.118H660.32z"/>
		<path d="M692.457,1030.47h-5.436v-3.249c-0.903,1.264-1.968,2.204-3.197,2.822c-1.229,0.617-2.468,0.927-3.718,0.927
			c-2.541,0-4.717-1.024-6.529-3.072s-2.718-4.904-2.718-8.57c0-3.749,0.881-6.599,2.645-8.55c1.763-1.95,3.992-2.926,6.686-2.926
			c2.471,0,4.61,1.027,6.415,3.082v-10.997h5.852V1030.47z M676.836,1018.932c0,2.36,0.326,4.068,0.979,5.123
			c0.944,1.527,2.263,2.291,3.958,2.291c1.347,0,2.492-0.572,3.437-1.718c0.944-1.146,1.416-2.856,1.416-5.134
			c0-2.541-0.458-4.37-1.375-5.488c-0.917-1.117-2.09-1.677-3.52-1.677c-1.389,0-2.552,0.552-3.489,1.656
			C677.305,1015.089,676.836,1016.737,676.836,1018.932z"/>
		<path d="M729.362,1014.891l-5.769,1.042c-0.195-1.152-0.635-2.021-1.323-2.604c-0.687-0.583-1.58-0.875-2.676-0.875
			c-1.458,0-2.621,0.504-3.488,1.51c-0.868,1.007-1.302,2.69-1.302,5.051c0,2.624,0.44,4.478,1.322,5.561s2.065,1.625,3.551,1.625
			c1.11,0,2.02-0.315,2.729-0.947c0.708-0.632,1.208-1.719,1.5-3.26l5.748,0.979c-0.597,2.639-1.743,4.631-3.437,5.978
			s-3.964,2.021-6.811,2.021c-3.235,0-5.814-1.021-7.737-3.062c-1.923-2.041-2.884-4.866-2.884-8.477
			c0-3.652,0.965-6.495,2.895-8.529c1.93-2.034,4.54-3.051,7.831-3.051c2.693,0,4.835,0.58,6.425,1.739
			S728.668,1012.517,729.362,1014.891z"/>
		<path d="M733.799,1030.47v-30.533h5.853v30.533H733.799z"/>
		<path d="M745.649,1005.352v-5.415h5.853v5.415H745.649z M745.649,1030.47v-22.118h5.853v22.118H745.649z"/>
		<path d="M757.063,1008.352h5.395v3.02c1.93-2.347,4.228-3.52,6.894-3.52c1.417,0,2.646,0.291,3.687,0.874
			c1.042,0.584,1.896,1.466,2.562,2.646c0.972-1.18,2.02-2.062,3.145-2.646c1.125-0.583,2.325-0.874,3.603-0.874
			c1.625,0,2.999,0.33,4.124,0.989c1.125,0.659,1.965,1.628,2.52,2.905c0.403,0.944,0.604,2.472,0.604,4.582v14.142h-5.852v-12.643
			c0-2.193-0.202-3.609-0.604-4.248c-0.542-0.833-1.375-1.25-2.5-1.25c-0.819,0-1.59,0.25-2.312,0.75
			c-0.722,0.5-1.243,1.232-1.562,2.197s-0.479,2.488-0.479,4.571v10.622h-5.852v-12.121c0-2.152-0.104-3.541-0.313-4.166
			c-0.208-0.625-0.531-1.09-0.969-1.396c-0.437-0.305-1.031-0.458-1.781-0.458c-0.902,0-1.715,0.243-2.437,0.729
			c-0.722,0.485-1.239,1.187-1.552,2.104c-0.313,0.916-0.469,2.437-0.469,4.561v10.747h-5.853V1008.352z"/>
		<path d="M799.801,1015.1l-5.311-0.958c0.597-2.139,1.625-3.722,3.083-4.749c1.458-1.027,3.624-1.541,6.498-1.541
			c2.61,0,4.554,0.309,5.832,0.927c1.277,0.618,2.176,1.402,2.697,2.354c0.521,0.951,0.781,2.697,0.781,5.238l-0.063,6.831
			c0,1.944,0.094,3.377,0.281,4.301s0.538,1.913,1.052,2.968h-5.79c-0.153-0.389-0.34-0.965-0.562-1.729
			c-0.098-0.347-0.167-0.576-0.208-0.688c-1,0.972-2.069,1.701-3.208,2.187c-1.139,0.486-2.354,0.729-3.645,0.729
			c-2.277,0-4.072-0.618-5.384-1.854c-1.313-1.236-1.968-2.798-1.968-4.687c0-1.25,0.298-2.364,0.896-3.343
			c0.597-0.979,1.434-1.729,2.51-2.249c1.076-0.521,2.627-0.976,4.655-1.364c2.735-0.514,4.63-0.993,5.686-1.438v-0.583
			c0-1.125-0.278-1.927-0.833-2.405c-0.555-0.479-1.604-0.719-3.145-0.719c-1.042,0-1.854,0.205-2.437,0.614
			C800.634,1013.354,800.162,1014.072,799.801,1015.1z M807.632,1019.848c-0.75,0.25-1.937,0.549-3.562,0.896
			c-1.625,0.348-2.687,0.688-3.187,1.021c-0.764,0.542-1.146,1.229-1.146,2.063c0,0.819,0.305,1.527,0.916,2.124
			s1.389,0.896,2.333,0.896c1.055,0,2.062-0.347,3.02-1.041c0.708-0.527,1.173-1.174,1.395-1.938c0.153-0.5,0.229-1.45,0.229-2.854
			V1019.848z"/>
		<path d="M829.292,1008.352v4.665h-3.999v8.914c0,1.805,0.038,2.856,0.115,3.155c0.076,0.299,0.25,0.545,0.521,0.739
			c0.271,0.194,0.601,0.292,0.989,0.292c0.542,0,1.326-0.188,2.354-0.563l0.5,4.54c-1.361,0.583-2.902,0.875-4.624,0.875
			c-1.056,0-2.007-0.177-2.854-0.531c-0.847-0.354-1.468-0.813-1.864-1.375c-0.396-0.562-0.67-1.322-0.822-2.28
			c-0.125-0.68-0.188-2.055-0.188-4.124v-9.643h-2.687v-4.665h2.687v-4.395l5.873-3.416v7.811H829.292z"/>
		<path d="M846.162,1023.43l5.832,0.979c-0.75,2.138-1.934,3.767-3.551,4.884c-1.618,1.118-3.642,1.677-6.071,1.677
			c-3.846,0-6.692-1.257-8.539-3.77c-1.458-2.014-2.187-4.555-2.187-7.623c0-3.666,0.958-6.536,2.874-8.612
			c1.916-2.075,4.339-3.113,7.269-3.113c3.291,0,5.887,1.086,7.79,3.259c1.902,2.174,2.812,5.502,2.729,9.987h-14.663
			c0.042,1.735,0.514,3.086,1.416,4.051c0.903,0.965,2.027,1.447,3.374,1.447c0.917,0,1.687-0.25,2.312-0.75
			C845.371,1025.347,845.842,1024.541,846.162,1023.43z M846.495,1017.516c-0.042-1.694-0.479-2.982-1.312-3.864
			c-0.833-0.881-1.847-1.322-3.041-1.322c-1.277,0-2.333,0.466-3.166,1.396c-0.833,0.931-1.243,2.194-1.229,3.791H846.495z"/>
		<path d="M878.632,1039.446h-4.02c-2.125-3.207-3.742-6.54-4.853-9.997s-1.666-6.804-1.666-10.039c0-4.013,0.688-7.81,2.062-11.393
			c1.194-3.109,2.708-5.978,4.54-8.602h3.999c-1.902,4.207-3.211,7.786-3.926,10.736c-0.715,2.951-1.073,6.079-1.073,9.383
			c0,2.277,0.211,4.61,0.635,6.998c0.423,2.389,1.003,4.658,1.739,6.811C876.556,1034.76,877.41,1036.794,878.632,1039.446z"/>
		<path d="M883.193,999.937h12.205c2.416,0,4.217,0.102,5.404,0.303c1.188,0.201,2.25,0.621,3.187,1.26
			c0.938,0.639,1.718,1.489,2.343,2.552c0.625,1.062,0.938,2.253,0.938,3.571c0,1.431-0.386,2.742-1.156,3.937
			s-1.815,2.09-3.134,2.687c1.86,0.542,3.291,1.465,4.291,2.771c1,1.305,1.5,2.839,1.5,4.603c0,1.389-0.323,2.738-0.969,4.051
			s-1.527,2.36-2.645,3.145c-1.118,0.785-2.496,1.268-4.134,1.448c-1.027,0.111-3.506,0.181-7.435,0.208h-10.393V999.937z
			 M889.358,1005.019v7.061h4.041c2.402,0,3.895-0.034,4.478-0.104c1.055-0.124,1.885-0.489,2.489-1.093
			c0.604-0.604,0.906-1.398,0.906-2.385c0-0.944-0.26-1.711-0.781-2.302c-0.521-0.59-1.295-0.947-2.322-1.072
			c-0.611-0.069-2.368-0.104-5.27-0.104H889.358z M889.358,1017.161v8.164h5.707c2.221,0,3.631-0.063,4.228-0.188
			c0.917-0.166,1.663-0.572,2.239-1.218c0.576-0.646,0.864-1.511,0.864-2.594c0-0.916-0.222-1.693-0.667-2.332
			s-1.086-1.104-1.926-1.396c-0.84-0.292-2.663-0.438-5.467-0.438H889.358z"/>
		<path d="M912.414,1020.535l5.999-0.583c0.361,2.014,1.093,3.492,2.197,4.436c1.104,0.945,2.593,1.417,4.467,1.417
			c1.985,0,3.481-0.42,4.488-1.261c1.007-0.84,1.51-1.822,1.51-2.946c0-0.722-0.212-1.337-0.635-1.844
			c-0.424-0.507-1.163-0.947-2.218-1.322c-0.722-0.25-2.368-0.694-4.936-1.333c-3.305-0.819-5.624-1.825-6.957-3.02
			c-1.874-1.681-2.812-3.729-2.812-6.145c0-1.555,0.441-3.01,1.323-4.363c0.881-1.354,2.152-2.385,3.811-3.093
			s3.662-1.063,6.009-1.063c3.833,0,6.717,0.841,8.654,2.521s2.954,3.923,3.051,6.727l-6.165,0.271
			c-0.264-1.569-0.83-2.697-1.697-3.385c-0.868-0.688-2.17-1.031-3.905-1.031c-1.791,0-3.194,0.368-4.207,1.104
			c-0.653,0.472-0.979,1.104-0.979,1.895c0,0.723,0.305,1.341,0.917,1.854c0.777,0.652,2.666,1.333,5.665,2.041
			s5.217,1.44,6.654,2.197s2.562,1.791,3.374,3.103c0.813,1.313,1.218,2.934,1.218,4.863c0,1.75-0.486,3.389-1.458,4.916
			c-0.972,1.527-2.347,2.662-4.124,3.405c-1.777,0.742-3.992,1.114-6.644,1.114c-3.86,0-6.824-0.893-8.893-2.677
			C914.052,1026.551,912.816,1023.951,912.414,1020.535z"/>
		<path d="M942.176,1030.47v-30.533h5.852v16.204l6.853-7.789h7.205l-7.56,8.081l8.102,14.037h-6.311l-5.561-9.935l-2.729,2.854
			v7.081H942.176z"/>
		<path d="M964.481,1039.446c1.152-2.472,1.965-4.367,2.437-5.686c0.473-1.319,0.91-2.84,1.313-4.562s0.701-3.356,0.896-4.905
			c0.194-1.548,0.292-3.134,0.292-4.759c0-3.304-0.354-6.432-1.063-9.383c-0.708-2.95-2.014-6.529-3.916-10.736h3.979
			c2.096,2.985,3.725,6.151,4.884,9.497c1.159,3.347,1.739,6.741,1.739,10.185c0,2.902-0.459,6.013-1.375,9.331
			c-1.041,3.721-2.756,7.394-5.145,11.018H964.481z"/>
	</g>
</g>
<g>
	<g>
		<g>
			<path fill="#FE9594" d="M1811.158,850.374c8.563,2.317,16.762,3.835,23.41,3.835c8.016,0,10.617-2.23,11.486-4.203
				C1834.044,849.94,1822.357,850.037,1811.158,850.374z"/>
			<path fill="#FE9594" d="M84.517,264.846c7.413-4.047,15.728-8.551,22.083-11.985C99.081,256.492,91.711,260.487,84.517,264.846z"
				/>
			<path fill="#FE9594" d="M1127.66,839.525c5.979-7.176,21.521-27.486,25.09-46.59c0,0,0.021,0.012,0.026,0.015
				c0.001-0.005,0.002-0.01,0.003-0.015c0,0,37.051,20.34,56.164,31.092c16.405,9.207,9.869,28.144,26.658,27.998
				c2.747-0.026,6.117-0.563,10.314-1.738c8.992-2.516,15.527-4.195,20.77-5.301c-0.119-0.604-0.408-1.252-0.482-1.854
				c0,0,0.015,0.001,0.031,0.002c0,0,0-0.001,0-0.002c0,0,3.428,0.219,8.929,0.474c2.241-0.184,4.08-0.102,5.741,0.156
				c0.24,0.035,0.488,0.063,0.723,0.106c6.872,0.246,15.734,0.458,25.891,0.46c44.04,0.006,112.425-3.949,148.617-26.272
				c56.104-33.451,117.037-69.279,80.018-115.887c-24.47-30.777-41.563-49.583-43.492-73.6c-11.073-6.834-21.557-14.349-31.9-21.766
				c-12.32-8.824-23.947-17.16-36.387-24.314c-7.893-4.391-17.803-8.931-28.285-13.735c-32.922-15.092-70.244-32.186-79.732-58.79
				c-1.717-5.489-2.83-10.678-3.914-15.701c-2.832-13.095-5.271-24.398-16.477-34.029c-13.074-9.474-20.814-19.308-27.367-34.881
				c-1.25-3.148-2.455-6.349-3.689-9.609c-10.83-28.75-22.02-58.474-64.398-58.474l-1.566-0.052c-5.213,0-7.547,2.266-10.77,5.406
				c-3.916,3.818-8.811,8.578-19.338,8.578c-2.545,0-5.377-0.286-8.404-0.837c-6.115-1.076-11.822-2.469-17.426-3.841
				c-12.816-3.147-24.715-6.084-40.061-4.479c-2.111,0.263-4.941,0.405-8.209,0.405c-18.707,0-63.375-5.429-74.311-21.581
				c-2.906-4.285-3.418-9.119-1.461-13.978l0.936-2.417c5-12.839,5.182-13.343-0.738-24.172c-2.379-4.202-2.756-7.824-1.068-10.716
				c1.881-3.224,5.871-4.805,12.227-4.841c-2.107-4.195-5.646-6.703-9.592-9.505c-6.553-4.646-13.977-9.911-13.977-23.366
				c0-16.74-9.082-25.009-28.617-26.025c-5.285,0.007-10.887,0.399-16.506,0.791c-12.486,0.857-25.105,1.228-34.294-0.881
				c-10.738-2.298-13.945-9.21-16.537-14.775c-2.078-4.451-3.855-8.298-9.201-10.512c-5.06-1.959-10.649-3.11-16.553-4.322
				c-11.173-2.305-22.725-4.692-31.265-13.231c-8.584-8.599-13.991-10.406-17.018-10.406c-1.719,0-4.293,0.503-6.809,4.826
				c-3.312,5.791-13.915,6.084-30.935,6.084c-6.325,0-15.271,0-19.487,0.927c5.269,5.294,18.884,17.261,27.591,24.911
				c6.686,5.865,12.229,10.761,13.856,12.395l9.728,9.797l-13.404-3.336c-4.352-1.091-10.3-4.886-17.846-9.699
				c-11.552-7.38-25.949-16.566-36.402-16.566c-4.038,0-9.73,1.212-12.756,11.664c-7.938,27.765-28.03,27.998-47.458,28.232
				c-12.545,0.149-25.528,0.301-36.598,7.388c-45.03,28.893-41.838,41.122-32.364,77.41l1.761,6.756
				c0.361,1.257,1.566,3.351,2.712,5.384c2.983,5.234,6.371,11.175,3.465,16.198c-2.742,4.706-9.31,5.249-14.009,5.249
				c-2.318,0-5.043-0.159-8.237-0.513c-17.471-1.581-34.776-2.085-53.073-2.628c-8.813-0.264-17.697-0.527-26.704-0.911
				c-13.313-0.782-29.669-0.58-44.55-0.24c-6.989,0.164-13.794,0.323-20.392,0.323c-35.543,0-61.748-5.045-82.398-30.145
				c-5.587-6.657-10.844-13.51-16.069-20.339c-18.223-23.804-35.438-46.282-66.118-59.83c-28.435-12.417-59.37-18.713-91.99-18.713
				c-10.376,0-20.696,0.647-30.916,1.9c-0.089,0.011-0.178,0.023-0.267,0.034c-8.605,1.064-17.137,2.567-25.569,4.495
				l-36.398,11.205c-6.022,2.354-11.962,4.942-17.816,7.747c-6.706,3.622-15.77,8.529-23.638,12.832
				c-13.737,8.394-26.832,18.097-39.108,29.049c7.003,5.414,10.135,12.078,12.951,18.065c2.485,5.263,4.625,9.819,9.068,12.446
				l2.199,1.868c9.789,8.69,16.265,14.429,18.734,28.239c1.116,5.558,4.172,10.896,7.14,16.056
				c2.892,5.082,5.904,10.338,7.197,16.031c1.913,6.785-1.19,15.347-4.185,23.623c-1.175,3.246-2.336,6.4-3.044,9.231
				c-2.257,10.152-6.113,20.152-9.865,29.82c-4.382,11.327-8.508,22.021-10.376,33.165c-0.155,1.403-0.282,2.76-0.379,4.079
				c-0.031,0.419-0.057,0.832-0.081,1.242c-0.471,8.099,0.437,14.655,4.618,20.446c1.687,2.824,9.368,8.587,13.585,10.295
				c-0.361-1.092-1.025-2.711-2.245-5.06l-5.587-10.618l10.723,5.376c5.934,2.975,15.905,3.389,25.799,3.389l15.076-0.111
				c13.947,0,28.103,0.67,34.67,8.613c3.148,3.833,4.156,8.878,2.966,15.009c-0.165,0.819-0.42,1.89-0.738,3.133
				c-0.247,1.015-0.606,2.497-0.956,4.156c-0.046,0.218-0.092,0.433-0.137,0.657c-0.873,4.3-1.585,9.55-0.17,11.339
				c0.089,0.106,0.433,0.286,1.055,0.349c0.062,0.006,0.125,0.012,0.193,0.016c0.513,0.028,1.185-0.019,2.05-0.237l1.205-0.182
				c2.907,0,4.294,2.373,5.769,4.888c1.746,2.967,4.155,7.034,8.343,8.08h0.029c0.905,0,2.201,0.158,3.132,0.361l34.521,7.621
				h-33.656h-0.183h-1.525c-1.446,0-2.845-0.165-4.185-0.505c-2.125-0.075-5.98-0.082-10.303-0.082h-2.516
				c-6.855,0-13.072-0.065-18.426-0.419c8.771,2.653,19.028,5.712,19.678,5.712c1.142,0,17.293-3.205,18.974-3.539l0.001,0.001
				c0,0-17.923,3.568-19.128,3.568c-0.661,0-11.05-3.101-19.857-5.766c-6.23-0.429-11.266-1.265-14.732-2.869
				c-0.01-0.004-0.02-0.009-0.03-0.013c-1.89-0.879-3.315-1.987-4.207-3.386c-4.293,4.588-7.168,9.852-8.314,15.415
				c-0.728,3.579-0.668,7.111,0.127,10.448c0.019,0.081,0.046,0.159,0.066,0.24c0.454,1.817,1.115,3.578,2.005,5.249
				c4.323-5,9.686-7.524,15.996-7.524c10.512,0,21.176,7.25,29.308,13.569c3.314,2.898,6.356,7.004,9.309,10.973
				c2.093,2.809,5.39,7.266,7.303,8.721c0.105-0.227,0.211-0.512,0.332-0.873c-0.044-0.693,0.347-2.342,0.979-4l7.394,2.063
				c-0.3,1.732-0.662,3.178-1.052,4.361c-0.256,4.504,5.856,8.313,14.563,13.109c4.502,2.471,8.734,4.813,11.717,7.764
				c8.906,8.241,7.066,19.714,3.233,30.998c-0.04,0.117-0.081,0.233-0.121,0.35c-1.038,3.023-2.21,6.03-3.353,8.955
				c-3.059,7.811-6.207,15.891-5.813,21.908c0.39,3.221,0.621,6.467,0.739,9.727c0.019,0.527,0.041,1.054,0.054,1.582
				c0.287,11.587-0.864,23.337-1.998,34.791c-0.163,1.663-0.326,3.333-0.486,5.007l-0.116,1.981l-0.948,34.258
				c0.094,1.085,0.2,2.167,0.328,3.244c0.226,2.395,0.361,5.104,0.514,8.072c0.083,1.619,0.17,3.342,0.279,5.13l6.213,28.989
				c1.257,2.157,2.771,3.979,4.607,5.311c4.91,3.17,12.771,4.842,23.192,4.834c19.534,0,41.327-5.947,47.548-7.771
				c6.732-1.928,19.202-5.504,26.069-11.205c5.422-4.428,6.145-8.924,6.988-14.135c0.935-5.875,2.019-12.537,9.927-18.277
				l3.238-2.221c29.534-20.121,57.411-39.135,95.152-45.061c15.213-2.711,32.984-0.957,48.932,1.205
				c5.459,0.741,10.748,1.451,16.017,1.947c7.163-20.587,18.057-40.473,38.158-55.422c16.099-11.973,29.029-19.254,41.583-22.51
				c27.572-7.218,53.273,4.99,106.675,29.633c77.64,34.641,107.474,35.83,137.387,62.127c20.29,17.834,41.709,30.818,64.57,48.502
				c0.395,0.126,0.787,0.245,1.184,0.377c26.78,8.932,33.842,20.098,44.521,36.998l4.066,6.379
				c7.26,10.857,21.867,14.344,37.352,18.033c12.377,2.953,25.182,6.002,34.639,13.246c6.822,5.377,12.063,12.982,17.139,20.342
				c8.09,11.754,15.738,22.861,29.068,25.533c6.397,1.278,14.782,1.332,23.714,0.825c6.438-8.007,11.825-16.121,14.69-23.296
				C1112.162,894.475,1121.711,846.68,1127.66,839.525z M327.325,365.614c-0.285,0.089-0.387,0.185-0.492,0.175
				C326.932,365.744,327.075,365.673,327.325,365.614z M123.452,247.019c-0.77,0.301-1.492,0.723-2.245,1.032
				C121.959,247.742,122.667,247.32,123.452,247.019z M155.107,410.88l-1.205-1.174c-1.158-1.19-2.363-3.578-1.158-4.799
				l-4.231-0.646l-1.493-0.233l-9.833-1.505l-27.532,1.814l-8.162,0.546l0.013-0.036l8.313-0.557l27.533-1.821l9.836,1.513
				l1.475,0.233l4.247,0.646c-1.205,1.206,0,3.593,1.16,4.798l1.22,1.167c1.34,1.332,3.011,1.667,4.58,1.315
				C158.249,412.563,156.5,412.263,155.107,410.88z M203.905,429.292c-2.017-0.031-4.232-0.158-6.957-0.513
				c-3.073-0.618-5.077-1.234-6.688-1.858c-4.487-1.779-4.188-3.721-3.389-6.191c0.588-1.771,1.326-3.81,0.497-6.288
				c-2.303-6.899-4.604-18.178-4.778-19.039l0.17-0.103c0,0,2.38,11.921,4.773,19.09c0.828,2.484,0.091,4.526-0.497,6.294
				c-0.812,2.471-1.084,4.413,3.406,6.184c1.596,0.633,3.583,1.249,6.671,1.867c2.727,0.354,4.955,0.482,6.958,0.512
				c3.25,0.046,5.636-0.272,7.384-0.749C209.688,429,207.255,429.34,203.905,429.292z M222.526,423.502
				c3.297-0.857,6.847-1.748,7.845-1.874c0.015,0.017,0.026,0.029,0.026,0.029C229.788,421.657,226.039,422.591,222.526,423.502z
				 M243.544,414.472c-2.768,0.37-4.992,0.797-6.778,1.255c1.817-0.475,4.097-0.918,6.96-1.3
				c12.922-1.717,21.432-2.809,25.211-3.275c1.446-0.181,2.26-0.286,2.26-0.286l24.935-1.185l-0.056,0.041l-25.046,1.19
				c0,0-0.826,0.105-2.272,0.286C264.992,411.663,256.469,412.755,243.544,414.472z M479.096,598.26
				c-26.545,28.35-113.292,108.527-175.542,116.666c-0.216,0.028-0.431,0.051-0.647,0.077c-0.414,0.052-0.828,0.104-1.239,0.148
				c-18.275,1.976-34.33-2.469-45.968-16.542c-2.363-3.576,25.076-25.092,46.583-29.889
				c21.506-4.797,120.666-88.384,140.955-126.616c4.491-8.962,10.746-12.672,17.247-12.624
				C481.713,529.633,505.572,569.897,479.096,598.26z"/>
			<path fill="#FE9594" d="M125.192,244.746l36.269-11.164C149.128,236.405,137.008,240.133,125.192,244.746z"/>
			<path fill="#FDDA62" d="M694.073,709.324c-53.401-24.643-79.103-36.851-106.675-29.633
				c-12.506,3.274-25.397,10.545-41.433,22.465c-20.09,14.961-30.983,34.872-38.173,55.479c4.267,0.399,8.522,0.66,12.841,0.66
				c4.006,0,7.802-0.219,11.476-0.67c-1.173-3.863-0.888-7.342,0.875-10.369c4.156-7.154,16.039-10.482,37.424-10.482
				c13.33,0,27.938,1.266,39.684,2.289c10.665,0.926,19.566,1.16,19.88,1.092c28.435-5.625,37.248,8.916,42.729,25.258
				c4.279,12.107,28.029,14.947,48.994,17.447c9.216,1.1,17.92,2.139,24.788,3.938c10.635,2.674,19.219,7.803,27.533,12.766
				c10.964,6.559,21.326,12.748,36.146,13.387c31.752,2.36,56.678-2.252,85.504,6.888c0.121,0.038,0.241,0.077,0.362,0.116
				c-22.86-17.684-44.28-30.668-64.57-48.502C801.547,745.154,771.713,743.965,694.073,709.324z"/>
			<path fill="#FDDA62" d="M1599.316,968.055c3.045-18.344,7.938-27.803,15.334-42.117c1.625-3.17,3.402-6.611,5.33-10.49
				c2.049-4.398,2.426-9.127,2.803-13.705c0.799-9.955,1.715-21.236,20.92-27.645c16.039-6.182,34.805-6.182,51.387-6.182
				c18.148,0,29.475-0.732,33.285-15.061c0.436-1.326,9.201-27.133,22.229-27.133c2.334,0,4.533,0.797,6.582,2.379
				c4.963,3.855,30.73,15.968,53.878,22.247c11.235-0.341,22.96-0.438,35.004-0.373c0.384-0.889,0.42-1.722,0.444-2.272
				c0-5.188-1.07-10.414-2.215-15.949c-2.004-9.744-4.066-19.813,0.061-30.641c1.43-3.818,4.143-7.229,6.775-10.52
				c5.287-6.643,7.17-9.699,4.52-13.24c-12.381-15.723-70.711-34.262-94.551-31.92c-37.684,3.893-59.203-10.648-81.99-26.123
				c-6.178-4.201-12.563-8.555-19.461-12.637c-4.818-2.869-9.85-5.918-15.031-9.066c-29.607-18.027-63.164-38.451-96.057-45.422
				c-21.023-4.495-39.122-13.264-55.867-23.594c1.945,24.006,19.023,42.811,43.488,73.578
				c37.02,46.592-23.918,82.436-80.002,115.887c-36.215,22.329-104.62,26.28-148.664,26.272c-10.156-0.002-19.019-0.214-25.891-0.46
				c-0.234-0.043-0.482-0.071-0.723-0.106c-1.665-0.246-3.488-0.326-5.727-0.155c-0.005,0-0.01,0-0.015-0.001
				c-5.501-0.255-8.929-0.474-8.929-0.474c0,0.001,0,0.002,0,0.002c0.077,0.602,0.359,1.249,0.48,1.852
				c-5.211,1.09-11.762,2.785-20.768,5.301c-4.212,1.178-7.593,1.715-10.346,1.738c-16.789,0.146-10.253-18.791-26.658-27.998
				c-19.113-10.752-56.164-31.092-56.164-31.092c-0.001,0.005-0.002,0.01-0.003,0.015c-3.573,19.099-19.11,39.415-25.089,46.575
				c-5.961,7.154-15.512,54.949-25.104,78.822c-2.857,7.185-8.277,15.311-14.726,23.33c6.077-0.349,12.402-0.952,18.534-1.615
				c6.07-0.654,12.004-1.285,17.531-1.625c4.744-0.295,9.443-0.588,13.842-0.588c7.682,0,17.199,0.762,22.771,6.703
				c3.344,3.547,4.85,8.494,4.459,14.691c0,5.029,0.902,11.854,1.836,19.074c2.02,15.301,4.293,32.637-1.041,43.307l-2.512,5.242
				c-0.77,1.604-1.479,3.041-2.004,4.201c2.814,1.197,5.738,3.879,8.223,10.123c2.094,6.301,1.854,12.973,1.613,18.861
				c-0.063,1.809-0.121,3.576-0.121,5.279l-0.031,1.883c-0.031,2.695-0.09,6.762,0.979,7.84c0.799,0.836,2.727,0.354,4.803-0.258
				c2.984-0.992,5.289-1.475,7.156-1.475c6.131,0,7.004,5.135,7.318,7.063c0.332,1.998,0.514,2.508,1.492,2.998
				c21.416,9.291,34.791,11.152,55.063,13.969c5.061,0.709,10.557,1.475,16.701,2.424c20.408,3.209,34.883,14.955,39.957,31.982
				c11.129-8.9,28.42-12.906,45.227-16.809c12.457-2.891,24.203-5.617,33.15-10.084c10.918-5.172,15.842-13.041,20.604-20.654
				c3.645-5.805,7.379-11.762,13.553-15.936c-7.137-6.248-11.295-13.072-12.348-20.354l-0.693-4.947l4.955,0.564
				c4.381,0.504,8.916,0.752,13.449,0.752c35.391,0,70.303-15.217,104.084-29.932c10.602-4.615,21.566-9.398,32.289-13.578
				C1575.117,994.629,1597.133,984.568,1599.316,968.055z"/>
			<path fill="#FDDA62" d="M1523.303,1024.123c4.265-1.796,8.487-3.637,12.659-5.508c-2.166,0.94-4.324,1.881-6.466,2.814
				C1527.436,1022.327,1525.371,1023.226,1523.303,1024.123z"/>
			<path fill="#FDDA62" d="M479.081,598.26c26.485-28.359,2.636-68.619-18.597-68.778c-6.501-0.049-12.756,3.662-17.247,12.624
				c-20.289,38.231-119.449,121.819-140.955,126.616c-21.508,4.797-48.947,26.313-46.583,29.889
				c11.638,14.073,27.692,18.518,45.968,16.542c0.411-0.044,0.826-0.097,1.239-0.148c0.216-0.026,0.431-0.049,0.647-0.077
				C365.802,706.778,452.537,626.619,479.081,598.26z"/>
			<path fill="none" stroke="#FDDA62" stroke-width="0" stroke-linecap="round" stroke-linejoin="round" d="M303.554,714.926
				c-0.216,0.028-0.431,0.051-0.647,0.077"/>
			<path d="M1852.083,802.662c0.169-0.342,0.354-0.685,0.554-1.03c1.187-2.049,2.869-4.168,4.521-6.235
				c4.715-5.91,11.176-14.014,4.609-22.74c-14.188-18.021-74.58-37.547-101.42-34.896c-35.061,3.539-54.279-9.459-76.9-24.828
				c-6.264-4.27-12.77-8.682-19.85-12.885c-4.818-2.854-9.803-5.896-14.955-9.029c-30.137-18.342-64.295-39.135-98.467-46.379
				c-33.359-7.131-59.582-25.928-84.928-44.1c-11.928-8.544-24.266-17.385-37.082-24.766c-8.207-4.555-18.25-9.156-28.885-14.029
				c-29.971-13.735-67.262-30.829-75.605-54.227c-1.566-5.015-2.65-10.029-3.705-14.88c-2.982-13.848-5.814-26.937-19.217-38.442
				c-12.08-8.765-19.1-17.688-25.018-31.763c-1.219-3.034-2.395-6.19-3.613-9.405c-10.646-28.276-23.887-63.459-71.344-63.459
				h-0.029c-9.609-0.595-14.037,3.728-17.953,7.53c-3.525,3.435-6.566,6.395-13.961,6.395c-2.08,0-4.443-0.241-7.051-0.716
				c-5.963-1.048-11.504-2.409-16.941-3.742c-13.42-3.307-25.754-6.463-42.771-4.646c-1.945,0.241-4.43,0.353-7.336,0.353
				c-23.223,0-60.289-6.919-67.924-18.193c-1.461-2.16-1.672-4.314-0.68-6.837l0.965-2.44c5.455-14.045,6.236-17.117-1.205-30.715
				c-1.234-2.186-1.113-3.059-1.143-3.065c0.059-0.068,1.143-1.032,5.768-1.032c1.461,0,3.057,0.09,4.805,0.264l5.105,0.511
				l-0.949-5.052c-1.943-10.467-8.494-15.12-14.277-19.225c-5.994-4.247-10.738-7.606-10.738-17.079
				c0-21.139-12.094-32.486-36.131-33.729c-5.662,0-11.445,0.4-17.229,0.798c-11.719,0.821-23.631,1.236-32.112-0.714
				c-7.018-1.499-8.78-5.272-11.205-10.499c-2.29-4.901-5.12-11.008-13.313-14.42c-5.754-2.222-11.913-3.486-17.864-4.714
				c-10.527-2.168-20.483-4.224-27.38-11.13c-8.404-8.404-15.948-12.666-22.469-12.666c-3.841,0-9.309,1.506-13.435,8.607
				c-2.078,2.304-16.551,2.304-24.309,2.304c-16.084,0-27.695,0-28.812,8.027c0,2.095,0,2.997,17.2,18.374
				c-8.269-4.486-16.792-7.974-24.353-7.974c-6.929,0-16.025,2.988-20.166,17.236c-6.371,22.259-21.267,22.433-40.139,22.659
				c-12.996,0.15-27.742,0.331-40.663,8.607c-49.761,31.922-45.332,48.818-35.664,85.854l1.777,6.836
				c0.662,2.254,2.016,4.64,3.462,7.17c1.237,2.192,4.158,7.32,3.465,8.511c0,0.014-0.994,1.407-7.321,1.407
				c-2.077,0-4.517-0.151-7.47-0.475c-17.77-1.605-35.182-2.116-53.616-2.666c-8.763-0.256-17.621-0.521-26.537-0.903
				c-13.433-0.783-30.03-0.603-45.121-0.249c-6.93,0.166-13.676,0.324-20.212,0.324c-33.313,0-57.713-4.571-76.479-27.357
				c-5.527-6.598-10.708-13.367-15.873-20.1c-18.013-23.531-36.627-47.855-69.129-62.2c-29.428-12.854-61.418-19.369-95.093-19.369
				c-67.096,0-131.933,25.784-182.569,72.608l-3.855,3.569l4.564,2.612c8.028,4.587,10.996,10.875,14.128,17.531
				c2.771,5.882,5.631,11.959,11.505,15.354l1.611,1.445c9.503,8.42,14.279,12.651,16.297,23.902
				c1.355,6.868,4.729,12.757,7.996,18.457c2.757,4.797,5.346,9.33,6.43,14.097c1.296,4.586-1.504,12.297-3.976,19.097
				c-1.264,3.509-2.499,6.929-3.283,10.084c-2.154,9.684-5.919,19.413-9.548,28.818c-4.337,11.184-8.811,22.75-10.815,34.889
				c-1.113,9.918-1.687,21.341,5.316,31.04c2.636,4.458,14.987,14.271,21.943,14.271c2.29,0,4.217-1.017,5.301-2.793
				c0.964-1.591,1.176-3.54,0.603-6.07c5.797,1.166,12.771,1.468,20.89,1.468l15.076-0.112c12.411,0,24.488,0.707,28.706,5.813
				c1.658,1.995,2.092,4.819,1.355,8.621c-0.135,0.716-0.361,1.673-0.632,2.779c-2.139,8.706-3.885,17.629,0.121,22.743
				c1.387,1.761,3.721,4.11,9.277,3.207c0.121,0.241,0.271,0.504,0.438,0.776c0.661,1.12,1.46,2.469,2.469,3.854h-2.169
				c-7.817,0-28.599,0-31.085-2.53c0.014-0.083,0.496-2.055,7.229-6.551l-3.855-6.656c-13.871,6.911-23.298,18.064-25.875,30.603
				c-2.001,9.722,0.408,19.209,6.765,26.709l3.523,4.158l2.742-4.707c3.342-5.707,7.5-8.486,12.71-8.486
				c8.163,0,17.426,6.385,24.399,11.801c2.513,2.205,5.316,5.979,8.026,9.631c5.513,7.416,9.504,13.502,15.287,12.094
				c3.253,6.023,10.527,10.029,16.718,13.441c4.006,2.205,7.771,4.285,10.074,6.574c7.094,6.566,3.782,16.904-2.092,31.928
				c-3.344,8.6-6.824,17.494-6.28,25.432c1.763,14.547,0.256,29.842-1.205,44.633c-1.49,15.15-3.027,30.82-1.22,46.055
				c0.211,2.199,0.332,4.797,0.482,7.652c0.782,15.309,1.837,36.279,14.429,45.4c6.369,4.104,15.631,6.188,27.56,6.182
				c20.001,0,41.433-5.656,49.702-8.08c10.03-2.877,21.355-6.461,28.826-12.658c7.652-6.258,8.78-13.246,9.683-18.85
				c0.86-5.256,1.521-9.404,6.764-13.207l3.148-2.148c28.781-19.631,55.979-38.162,92.081-43.832
				c14.444-2.592,31.191-0.867,46.614,1.24c15.722,2.141,32.984,3.879,47.742,1.139l5.346-0.986l-2.695-4.715
				c-1.898-3.328-2.348-5.896-1.355-7.627c1.446-2.486,7.365-6.643,30.769-6.643c12.998,0,27.426,1.252,39.023,2.26
				c11.355,1.002,19.263,1.625,22.14,0.957c19.037-3.773,27.229,0.504,33.841,20.219c5.887,16.693,32.185,19.826,55.377,22.598
				c8.946,1.063,17.397,2.07,23.766,3.75c9.58,2.402,17.32,7.025,25.484,11.914c11.326,6.762,23.013,13.75,39.669,14.473
				c32.682,2.402,57.292-2.252,85.063,6.996c24.188,8.057,30.303,17.742,40.454,33.797l4.141,6.498
				c8.961,13.42,25.741,17.426,42.004,21.297c11.582,2.762,23.572,5.617,31.689,11.836c5.875,4.625,10.541,11.426,15.512,18.623
				c8.615,12.5,17.516,25.43,33.887,28.723c11.779,2.387,28.977,1.023,44.76-0.695c5.936-0.639,11.75-1.264,17.23-1.596
				c4.533-0.285,9.068-0.572,13.314-0.572c8.975,0,14.43,1.355,17.168,4.262c1.84,1.975,2.621,4.895,2.352,9.182
				c0,5.775,0.934,12.838,1.912,20.316c1.852,14.201,3.977,30.303-0.332,38.924l-2.545,5.279c-3.916,8.133-4.607,9.594-3.299,11.973
				c1.115,2.027,3.178,2.268,4.064,2.365c1.012,0.119,2.908,0.338,5.168,5.973c1.596,4.758,1.369,10.436,1.16,15.926
				c-0.076,1.906-0.135,3.773-0.135,5.572l-0.033,1.777c-0.059,4.684-0.119,9.984,3.195,13.359
				c2.756,2.793,6.627,3.471,12.621,1.688c2.199-0.738,3.523-1.01,4.441-1.086c0.047,0.195,0.076,0.414,0.105,0.596
				c0.375,2.213,1.055,6.324,5.846,8.705c22.559,9.795,36.355,11.715,57.246,14.623c5.045,0.701,10.496,1.453,16.582,2.402
				c19.578,3.072,32.682,15.234,35.029,32.516l1.205,8.834l5.604-6.928c8.613-10.625,27.771-15.061,46.281-19.361
				c12.334-2.861,25.09-5.82,34.777-10.654c12.875-6.107,18.674-15.348,23.764-23.496c4.338-6.904,8.072-12.869,15.467-15.828
				l6.537-2.613l-5.723-4.096c-6.25-4.48-10.453-9.189-12.561-14.053c2.859,0.189,5.77,0.287,8.66,0.287
				c34.782,0,68.393-13.743,100.979-27.881c2.068-0.897,4.133-1.796,6.193-2.693c2.142-0.934,4.3-1.874,6.466-2.814
				c8.479-3.682,17.097-7.358,25.493-10.635c18.223-6.822,42.771-18.291,45.484-38.789c2.83-17.02,7.258-25.566,14.547-39.715
				c1.656-3.201,3.449-6.68,5.455-10.686c2.65-5.746,3.117-11.426,3.521-16.426c0.783-9.729,1.297-16.158,15.844-21.008
				c14.852-5.73,32.111-5.73,48.783-5.73c16.506,0,35.213,0,40.678-20.559c2.518-7.553,9.838-21.635,14.836-21.635
				c0.227,0,0.857,0,1.852,0.76c8.736,6.793,56.57,27.729,82.113,27.729c16.582,0,19.428-8.699,19.654-14.053
				c0-6.137-1.205-12.004-2.367-17.674c-1.865-9.053-3.629-17.605-0.299-26.348C1851.704,803.457,1851.886,803.061,1852.083,802.662
				z M1526.408,1014.359c-33.781,14.715-68.693,29.932-104.084,29.932c-4.533,0-9.068-0.248-13.449-0.752l-4.955-0.564l0.693,4.947
				c1.053,7.281,5.211,14.105,12.348,20.354c-6.174,4.174-9.908,10.131-13.553,15.936c-4.762,7.613-9.686,15.482-20.604,20.654
				c-8.947,4.467-20.693,7.193-33.15,10.084c-16.807,3.902-34.098,7.908-45.227,16.809c-5.074-17.027-19.549-28.773-39.957-31.982
				c-6.145-0.949-11.641-1.715-16.701-2.424c-20.271-2.816-33.646-4.678-55.063-13.969c-0.979-0.49-1.16-1-1.492-2.998
				c-0.314-1.928-1.188-7.063-7.318-7.063c-1.867,0-4.172,0.482-7.156,1.475c-2.076,0.611-4.004,1.094-4.803,0.258
				c-1.068-1.078-1.01-5.145-0.979-7.84l0.031-1.883c0-1.703,0.059-3.471,0.121-5.279c0.24-5.889,0.48-12.561-1.613-18.861
				c-2.484-6.244-5.408-8.926-8.223-10.123c0.525-1.16,1.234-2.598,2.004-4.201l2.512-5.242c5.334-10.67,3.061-28.006,1.041-43.307
				c-0.934-7.221-1.836-14.045-1.836-19.074c0.391-6.197-1.115-11.145-4.459-14.691c-5.572-5.941-15.09-6.703-22.771-6.703
				c-4.398,0-9.098,0.293-13.842,0.588c-5.527,0.34-11.461,0.971-17.531,1.625c-6.132,0.663-12.457,1.267-18.534,1.615
				c-0.049,0.003-0.098,0.006-0.146,0.009c-8.932,0.507-17.316,0.453-23.714-0.825c-13.33-2.672-20.979-13.779-29.068-25.533
				c-5.076-7.359-10.316-14.965-17.139-20.342c-9.457-7.244-22.262-10.293-34.639-13.246c-15.484-3.689-30.092-7.176-37.352-18.033
				l-4.066-6.379c-10.679-16.9-17.741-28.066-44.521-36.998c-0.396-0.132-0.789-0.251-1.184-0.377
				c-0.121-0.039-0.242-0.078-0.362-0.116c-28.826-9.14-53.752-4.527-85.504-6.888c-14.82-0.639-25.182-6.828-36.146-13.387
				c-8.314-4.963-16.898-10.092-27.533-12.766c-6.868-1.799-15.572-2.838-24.788-3.938c-20.965-2.5-44.715-5.34-48.994-17.447
				c-5.481-16.342-14.294-30.883-42.729-25.258c-0.314,0.068-9.216-0.166-19.88-1.092c-11.746-1.023-26.354-2.289-39.684-2.289
				c-21.385,0-33.269,3.328-37.424,10.482c-1.763,3.027-2.048,6.506-0.875,10.369c-3.674,0.451-7.47,0.67-11.476,0.67
				c-4.319,0-8.574-0.261-12.841-0.66c-0.045-0.004-0.09-0.008-0.135-0.012c-5.269-0.496-10.558-1.206-16.017-1.947
				c-15.948-2.162-33.718-3.916-48.932-1.205c-37.742,5.926-65.619,24.939-95.152,45.061l-3.238,2.221
				c-7.908,5.74-8.992,12.402-9.927,18.277c-0.844,5.211-1.566,9.707-6.988,14.135c-6.868,5.701-19.337,9.277-26.069,11.205
				c-6.221,1.824-28.014,7.771-47.548,7.771c-10.421,0.008-18.282-1.664-23.192-4.834c-1.836-1.332-3.35-3.153-4.607-5.311
				c-4.393-7.538-5.618-19.235-6.213-28.989c-0.109-1.788-0.197-3.511-0.279-5.13c-0.153-2.969-0.288-5.678-0.514-8.072
				c-0.128-1.077-0.234-2.159-0.328-3.244c-1.031-11.869-0.088-24.173,1.063-36.239c0.16-1.674,0.323-3.344,0.486-5.007
				c1.134-11.454,2.285-23.204,1.998-34.791c-0.013-0.528-0.035-1.055-0.054-1.582c-0.118-3.26-0.349-6.506-0.739-9.727
				c-0.394-6.018,2.754-14.098,5.813-21.908c1.143-2.925,2.315-5.932,3.353-8.955c0.04-0.116,0.082-0.232,0.121-0.35
				c3.833-11.284,5.673-22.757-3.233-30.998c-2.983-2.951-7.215-5.293-11.717-7.764c-8.707-4.797-14.819-8.605-14.563-13.109
				c0.391-1.184,0.752-2.629,1.052-4.361l-7.394-2.063c-0.632,1.658-1.023,3.307-0.979,4c-0.12,0.361-0.226,0.646-0.332,0.873
				c-1.913-1.455-5.21-5.912-7.303-8.721c-2.953-3.969-5.995-8.074-9.309-10.973c-8.132-6.318-18.796-13.569-29.308-13.569
				c-6.31,0-11.672,2.523-15.996,7.524c-0.89-1.671-1.551-3.432-2.005-5.249c-0.02-0.081-0.047-0.159-0.066-0.24
				c-0.795-3.336-0.855-6.869-0.127-10.448c1.146-5.563,4.021-10.827,8.314-15.415c0.891,1.399,2.316,2.507,4.207,3.386
				c0.01,0.004,0.02,0.009,0.03,0.013c3.466,1.604,8.501,2.44,14.732,2.869c0.111,0.008,0.221,0.016,0.333,0.023
				c5.354,0.354,11.57,0.419,18.426,0.419h2.516c4.323,0,8.178,0.007,10.303,0.082c1.34,0.34,2.739,0.505,4.185,0.505h1.525h0.183
				h33.656l-34.521-7.621c-0.932-0.203-2.228-0.361-3.132-0.361h-0.029c-4.188-1.046-6.598-5.113-8.343-8.08
				c-1.475-2.515-2.862-4.888-5.769-4.888l-1.205,0.182c-0.865,0.218-1.537,0.265-2.05,0.237c-0.067-0.004-0.131-0.009-0.193-0.016
				c-0.622-0.063-0.966-0.243-1.055-0.349c-1.415-1.789-0.703-7.039,0.17-11.339c0.045-0.224,0.091-0.439,0.137-0.657
				c0.35-1.66,0.709-3.141,0.956-4.156c0.318-1.243,0.573-2.313,0.738-3.133c1.19-6.131,0.182-11.176-2.966-15.009
				c-6.567-7.943-20.723-8.613-34.67-8.613l-15.076,0.111c-9.894,0-19.865-0.414-25.799-3.389l-10.723-5.376l5.587,10.618
				c1.22,2.349,1.884,3.968,2.245,5.06c-4.217-1.708-11.899-7.471-13.585-10.295c-4.181-5.791-5.088-12.348-4.618-20.446
				c0.024-0.411,0.05-0.823,0.081-1.242c0.097-1.319,0.224-2.676,0.379-4.079c1.869-11.145,5.995-21.838,10.376-33.165
				c3.752-9.668,7.608-19.668,9.865-29.82c0.708-2.831,1.869-5.985,3.044-9.231c2.995-8.276,6.098-16.838,4.185-23.623
				c-1.293-5.693-4.305-10.949-7.197-16.031c-2.968-5.159-6.024-10.498-7.14-16.056c-2.469-13.811-8.946-19.549-18.734-28.239
				l-2.199-1.868c-4.443-2.627-6.583-7.184-9.068-12.446c-2.816-5.987-5.948-12.651-12.951-18.065
				c12.276-10.953,25.372-20.656,39.108-29.049c0.281-0.171,0.565-0.335,0.846-0.505c7.194-4.359,14.564-8.354,22.083-11.985
				c0.236-0.114,0.472-0.229,0.708-0.342c5.854-2.805,11.793-5.394,17.816-7.747c0.023-0.009,0.045-0.018,0.067-0.027
				c11.816-4.613,23.936-8.341,36.269-11.164c0.021-0.004,0.041-0.009,0.062-0.014c8.432-1.928,16.964-3.431,25.569-4.495
				c0.089-0.011,0.178-0.023,0.267-0.034c10.22-1.253,20.54-1.9,30.916-1.9c32.62,0,63.555,6.296,91.99,18.713
				c30.68,13.548,47.895,36.026,66.118,59.83c5.225,6.829,10.482,13.682,16.069,20.339c20.65,25.1,46.854,30.145,82.398,30.145
				c6.598,0,13.403-0.159,20.392-0.323c14.881-0.34,31.238-0.542,44.55,0.24c9.007,0.384,17.891,0.647,26.704,0.911
				c18.297,0.543,35.603,1.047,53.073,2.628c3.194,0.354,5.918,0.513,8.237,0.513c4.699,0,11.267-0.543,14.009-5.249
				c2.906-5.023-0.482-10.964-3.465-16.198c-1.146-2.033-2.351-4.127-2.712-5.384l-1.761-6.756
				c-9.474-36.288-12.666-48.518,32.364-77.41c11.07-7.087,24.053-7.238,36.598-7.388c19.428-0.234,39.52-0.468,47.458-28.232
				c3.026-10.452,8.719-11.664,12.756-11.664c10.453,0,24.85,9.187,36.402,16.566c7.546,4.813,13.494,8.608,17.846,9.699
				l13.404,3.336l-9.728-9.797c-1.627-1.634-7.17-6.529-13.856-12.395c-8.707-7.65-22.322-19.617-27.591-24.911
				c4.217-0.927,13.163-0.927,19.487-0.927c17.02,0,27.623-0.293,30.935-6.084c2.516-4.323,5.09-4.826,6.809-4.826
				c3.027,0,8.434,1.808,17.018,10.406c8.54,8.539,20.092,10.927,31.265,13.231c5.904,1.212,11.493,2.363,16.553,4.322
				c5.346,2.214,7.124,6.061,9.201,10.512c2.592,5.565,5.798,12.478,16.537,14.775c9.189,2.108,21.808,1.738,34.294,0.881
				c5.619-0.392,11.221-0.784,16.506-0.791c19.535,1.017,28.617,9.285,28.617,26.025c0,13.455,7.424,18.72,13.977,23.366
				c3.945,2.802,7.484,5.31,9.592,9.505c-6.355,0.036-10.346,1.617-12.227,4.841c-1.688,2.892-1.311,6.514,1.068,10.716
				c5.92,10.829,5.738,11.333,0.738,24.172l-0.936,2.417c-1.957,4.858-1.445,9.692,1.461,13.978
				c10.936,16.152,55.604,21.581,74.311,21.581c3.268,0,6.098-0.143,8.209-0.405c15.346-1.604,27.244,1.332,40.061,4.479
				c5.604,1.372,11.311,2.765,17.426,3.841c3.027,0.551,5.859,0.837,8.404,0.837c10.527,0,15.422-4.76,19.338-8.578
				c3.223-3.141,5.557-5.406,10.77-5.406l1.566,0.052c42.379,0,53.568,29.724,64.398,58.474c1.234,3.261,2.439,6.461,3.689,9.609
				c6.553,15.573,14.293,25.407,27.367,34.881c11.205,9.631,13.645,20.935,16.477,34.029c1.084,5.023,2.197,10.212,3.914,15.701
				c9.488,26.604,46.811,43.698,79.732,58.79c10.482,4.805,20.393,9.345,28.285,13.735c12.439,7.154,24.066,15.49,36.387,24.314
				c10.344,7.417,20.827,14.932,31.9,21.766c0.012,0.007,0.023,0.014,0.035,0.021c16.745,10.33,34.844,19.099,55.867,23.594
				c32.893,6.971,66.449,27.395,96.057,45.422c5.182,3.148,10.213,6.197,15.031,9.066c6.898,4.082,13.283,8.436,19.461,12.637
				c22.787,15.475,44.307,30.016,81.99,26.123c23.84-2.342,82.17,16.197,94.551,31.92c2.65,3.541,0.768,6.598-4.52,13.24
				c-2.633,3.291-5.346,6.701-6.775,10.52c-4.127,10.828-2.064,20.896-0.061,30.641c1.145,5.535,2.215,10.762,2.215,15.949
				c-0.024,0.551-0.061,1.384-0.444,2.272c-0.004,0.01-0.008,0.021-0.013,0.03c-0.869,1.973-3.471,4.203-11.486,4.203
				c-6.648,0-14.848-1.518-23.41-3.835c-0.031-0.009-0.063-0.018-0.095-0.025c-23.147-6.279-48.915-18.392-53.878-22.247
				c-2.049-1.582-4.248-2.379-6.582-2.379c-13.027,0-21.793,25.807-22.229,27.133c-3.811,14.328-15.137,15.061-33.285,15.061
				c-16.582,0-35.348,0-51.387,6.182c-19.205,6.408-20.121,17.689-20.92,27.645c-0.377,4.578-0.754,9.307-2.803,13.705
				c-1.928,3.879-3.705,7.32-5.33,10.49c-7.396,14.314-12.289,23.773-15.334,42.117c-2.184,16.514-24.199,26.574-40.619,32.727
				C1547.975,1004.961,1537.01,1009.744,1526.408,1014.359z"/>
		</g>
	</g>
</g>
</svg>
