<?xml version="1.0" encoding="UTF-8" standalone="no"?>
<!-- Creator: CorelDRAW -->

<svg
   xmlns:dc="http://purl.org/dc/elements/1.1/"
   xmlns:cc="http://creativecommons.org/ns#"
   xmlns:rdf="http://www.w3.org/1999/02/22-rdf-syntax-ns#"
   xmlns:svg="http://www.w3.org/2000/svg"
   xmlns="http://www.w3.org/2000/svg"
   xmlns:sodipodi="http://sodipodi.sourceforge.net/DTD/sodipodi-0.dtd"
   xmlns:inkscape="http://www.inkscape.org/namespaces/inkscape"
   xml:space="preserve"
   width="305.59375"
   height="337.9375"
   style="fill-rule:evenodd"
   viewBox="0 0 305.59375 337.9375"
   sodipodi:version="0.32"
   inkscape:version="0.48.2 r9819"
   sodipodi:docname="Arms_of_Moldova.svg"
   inkscape:output_extension="org.inkscape.output.svg.inkscape"
   version="1.0"
   id="svg2"><metadata
   id="metadata85"><rdf:RDF><cc:Work
       rdf:about=""><dc:format>image/svg+xml</dc:format><dc:type
         rdf:resource="http://purl.org/dc/dcmitype/StillImage" /><dc:title /></cc:Work></rdf:RDF></metadata><sodipodi:namedview
   pagecolor="#ffffff"
   bordercolor="#666666"
   borderopacity="1"
   objecttolerance="10"
   gridtolerance="10"
   guidetolerance="10"
   inkscape:pageopacity="0"
   inkscape:pageshadow="2"
   inkscape:window-width="1920"
   inkscape:window-height="1138"
   id="namedview83"
   showgrid="false"
   fit-margin-left="1"
   fit-margin-right="1"
   fit-margin-bottom="2"
   fit-margin-top="0"
   inkscape:zoom="1.21"
   inkscape:cx="-1.8600221"
   inkscape:cy="77.152928"
   inkscape:window-x="-8"
   inkscape:window-y="-8"
   inkscape:window-maximized="1"
   inkscape:current-layer="Layer_x0020_1" />
 <defs
   id="defs4"><style
     type="text/css"
     id="style6">
   
    .fil1 {fill:black}
    .fil6 {fill:#CC092F}
    .fil5 {fill:#097754}
    .fil4 {fill:#0B45BB}
    .fil0 {fill:#B07F55}
    .fil3 {fill:#D10429}
    .fil2 {fill:#F5D402}
   
  </style></defs>
 <g
   id="Layer_x0020_1"
   transform="translate(-106.0625,-109.75)">
  <metadata
   id="CorelCorpID_0Corel-Layer" />
  <sodipodi:namedview
   id="base"
   pagecolor="#ffffff"
   bordercolor="#666666"
   borderopacity="1.0"
   gridtolerance="10000"
   guidetolerance="10"
   objecttolerance="10"
   inkscape:pageopacity="0.0"
   inkscape:pageshadow="2"
   inkscape:zoom="1.3650794"
   inkscape:cx="150"
   inkscape:cy="189"
   inkscape:document-units="px"
   inkscape:current-layer="layer1"
   inkscape:window-width="1024"
   inkscape:window-height="712"
   inkscape:window-x="-4"
   inkscape:window-y="-4"
   showguides="true"
   inkscape:guide-bbox="true"
   width="300px"
   height="378px" />
  
  
  
  
  
  
  
  
  <path
   id="rect2189"
   class="fil2"
   d="m 107.66739,110.74461 c 0,0 12.30114,9.2301 12.30114,18.59621 l 0,193.92175 0,29.3801 c 0,5.88274 1.81741,9.7139 4.70339,13.45805 2.88459,4.03308 9.03237,9.60451 15.41152,13.74835 19.70408,12.79624 52.64596,26.28932 77.56953,37.62708 20.7698,9.44746 29.21744,13.25894 40.01392,26.62735 10.79789,-13.36829 19.31702,-17.17845 40.08682,-26.62735 24.92072,-11.33777 57.86402,-24.83096 77.5681,-37.62708 6.38198,-4.14387 12.52839,-9.7153 15.41152,-13.74835 2.88598,-3.7442 4.63047,-7.57534 4.63047,-13.45805 l 0,-29.3801 0,-193.92175 c 0,-9.36611 12.30114,-18.59621 12.30114,-18.59621 l -13.0977,0 -7.66931,0 -129.23407,0 -129.23051,0 -7.67071,0 -13.0977,0 0.001,0 10e-4,0 z"
   inkscape:connector-curvature="0"
   style="fill:#d10429;fill-opacity:1"
   sodipodi:nodetypes="cscscccccccscscccccccccc" />
  
  
  
  
  
  
  
  
  
  
  <path
   sodipodi:nodetypes="cscscccccccscscccccccccc"
   style="fill:#d10429;fill-opacity:1;stroke:#594726;stroke-width:2;stroke-miterlimit:4;stroke-opacity:1;stroke-dasharray:none"
   inkscape:connector-curvature="0"
   d="m 107.66739,110.74461 c 0,0 12.30114,9.2301 12.30114,18.59621 l 0,193.92175 0,29.3801 c 0,5.88274 1.81741,9.7139 4.70339,13.45805 2.88459,4.03308 9.03237,9.60451 15.41152,13.74835 19.70408,12.79624 52.64596,26.28932 77.56953,37.62708 20.7698,9.44746 29.21744,13.25894 40.01392,26.62735 10.79789,-13.36829 19.31702,-17.17845 40.08682,-26.62735 24.92072,-11.33777 57.86402,-24.83096 77.5681,-37.62708 6.38198,-4.14387 12.52839,-9.7153 15.41152,-13.74835 2.88598,-3.7442 4.63047,-7.57534 4.63047,-13.45805 l 0,-29.3801 0,-193.92175 c 0,-9.36611 12.30114,-18.59621 12.30114,-18.59621 l -13.0977,0 -7.66931,0 -129.23407,0 -129.23051,0 -7.67071,0 -13.0977,0 0.001,0 10e-4,0 z"
   class="fil2"
   id="path3772" />
  <path
   style="fill:#0b45bb;fill-opacity:1"
   d="m 13.3125,145.28125 0,67.25 0,29.375 c 0,5.88274 1.80152,9.69335 4.6875,13.4375 2.88459,4.03308 9.0271,9.60616 15.40625,13.75 19.70408,12.79624 52.67018,26.28724 77.59375,37.625 20.7698,9.44746 29.20352,13.25659 40,26.625 10.79789,-13.36829 19.32395,-17.1761 40.09375,-26.625 24.92072,-11.33777 57.85842,-24.82888 77.5625,-37.625 6.38198,-4.14387 12.52312,-9.71695 15.40625,-13.75 2.88598,-3.7442 4.625,-7.55479 4.625,-13.4375 l 0,-29.375 0,-67.25 -275.375,0 z"
   transform="translate(106.66494,110.74461)"
   id="rect2999"
   inkscape:connector-curvature="0" /><g
   id="g3774"><polygon
     style="fill:#f5d402"
     transform="matrix(1.1873003,0,0,1.1873003,-20.165671,-83.180699)"
     sodipodi:nodetypes="cccccccccccccccccccccccccccccccccccccccccccccccc"
     points="234.513,263.989 222.216,256.506 212.057,263.456 205.644,259.178 194.419,257.575 181.589,244.212 178.916,220.156 194.419,177.391 175.174,192.892 158.602,215.344 158.602,244.744 170.365,264.523 191.746,278.421 197.626,280.026 187.469,298.737 205.109,304.082 214.196,313.169 219.008,331.344 217.938,370.368 212.593,379.457 200.833,387.476 200.298,394.959 213.129,402.978 224.354,412.065 240.931,412.599 255.363,402.443 267.652,395.494 264.448,384.801 251.623,374.647 248.944,343.641 252.684,312.635 271.402,300.875 281.023,297.669 270.866,278.421 286.37,273.078 303.47,258.11 311.494,228.174 306.684,209.998 294.92,195.031 275.141,178.459 279.952,195.565 287.431,217.481 288.502,238.33 279.952,253.297 264.448,259.714 255.899,262.385 245.741,257.04 "
     class="fil2"
     id="path2762" /><polygon
     style="fill:#f5d402"
     transform="matrix(1.1873003,0,0,1.1873003,-20.165671,-83.180699)"
     points="129.201,284.838 146.841,277.889 159.138,268.266 167.689,277.354 184.798,284.304 170.896,292.322 158.602,303.013 147.912,294.996 "
     class="fil2"
     id="path2756" /><polygon
     style="fill:#f5d402"
     transform="matrix(1.1873003,0,0,1.1873003,-20.165671,-83.180699)"
     points="308.816,268.801 300.802,277.354 283.691,284.304 299.731,294.459 309.887,303.548 321.116,294.459 339.287,285.373 320.58,277.889 "
     class="fil2"
     id="path2758" /><polygon
     style="fill:#f5d402"
     transform="matrix(1.1873003,0,0,1.1873003,-20.165671,-83.180699)"
     points="233.975,240.468 239.859,224.431 254.291,230.848 247.873,216.413 262.841,211.068 248.409,204.652 254.828,189.151 239.859,196.635 233.975,181.131 228.63,197.17 213.129,189.684 220.077,205.188 205.109,211.068 220.077,216.413 213.663,231.915 228.096,224.431 "
     class="fil2"
     id="path2760" /><polygon
     style="fill:#f5d402"
     transform="matrix(1.1873003,0,0,1.1873003,-20.165671,-83.180699)"
     points="201.902,312.367 209.383,319.852 202.437,326.802 195.22,319.585 "
     class="fil2"
     id="path2764" /><polygon
     style="fill:#f5d402"
     transform="matrix(1.1873003,0,0,1.1873003,-20.165671,-83.180699)"
     points="266.323,311.565 258.834,319.318 265.52,326.535 273.534,319.585 "
     class="fil2"
     id="path2766" /><polygon
     style="fill:#f5d402"
     transform="matrix(1.1873003,0,0,1.1873003,-20.165671,-83.180699)"
     points="258.299,334.554 254.828,342.305 254.559,363.687 260.173,375.715 267.652,378.921 266.591,350.857 271.67,331.344 "
     class="fil2"
     id="path2768" /><polygon
     style="fill:#f5d402"
     transform="matrix(1.1873003,0,0,1.1873003,-20.165671,-83.180699)"
     points="201.366,355.401 201.366,378.387 208.049,373.576 212.593,363.151 213.394,344.978 209.921,334.018 196.556,331.612 "
     class="fil2"
     id="path2770" /><polygon
     style="fill:#f5d402"
     transform="matrix(1.1873003,0,0,1.1873003,-20.165671,-83.180699)"
     points="305.344,353.798 319.24,350.59 303.737,343.106 288.77,346.312 281.023,355.401 280.22,370.102 291.181,382.93 293.848,383.733 293.581,369.834 "
     class="fil2"
     id="path2772" /><polygon
     style="fill:#f5d402"
     transform="matrix(1.1873003,0,0,1.1873003,-20.165671,-83.180699)"
     points="139.358,362.885 143.367,367.695 148.98,369.568 152.189,369.3 149.516,375.981 151.652,382.664 158.335,386.406 165.82,384.536 169.83,377.05 176.242,381.327 183.992,379.724 189.072,371.972 185.596,364.756 181.856,361.814 187.2,358.876 189.341,350.055 182.122,341.769 175.174,342.839 171.699,345.511 170.095,339.098 161.809,334.285 154.86,336.958 151.385,344.174 153.256,350.59 146.039,349.788 140.159,355.401 "
     class="fil2"
     id="path2774" /><path
     style="fill:#321d06;fill-opacity:1"
     inkscape:connector-curvature="0"
     d="m 211.35669,121.38164 c -1.32659,9.296 -48.11653,28.62284 -48.11653,67.5822 0,49.88204 46.67076,61.65032 46.67076,61.65032 l -1.95625,3.54508 -11.35882,20.69405 c 0,0 19.28615,0.9648 29.52306,9.69706 12.34329,10.52725 11.14286,32.83253 11.14286,49.05889 0,12.78497 -1.61548,26.27531 -8.17555,31.83698 -8.80799,7.46878 -14.7636,8.0213 -14.7636,16.78867 0,7.31311 5.62191,8.77854 14.7636,13.60396 11.71361,6.18145 11.1681,14.47058 28.57938,14.47058 17.41544,0 16.94005,-8.28913 28.65502,-14.47058 9.14175,-4.82539 14.7623,-6.29082 14.7623,-13.60396 0,-8.76733 -5.95566,-9.31985 -14.7623,-16.78867 -6.56007,-5.56301 -8.17555,-19.05332 -8.17555,-31.83698 0,-16.22624 -1.20038,-38.53157 11.14286,-49.05889 10.23697,-8.73086 29.52175,-9.69706 29.52306,-9.69706 l -11.36162,-20.69405 -1.95203,-3.54508 c 0,0 46.67075,-11.76829 46.67075,-61.65032 0,-38.95936 -46.78996,-58.28612 -48.11926,-67.5822 -4.57297,16.08602 15.63033,38.30444 15.63033,64.6162 0,34.04417 -25.10855,35.67374 -25.10855,35.67374 -5.87573,0 -8.25547,4.19576 -10.56511,4.19576 -4.94319,-0.51606 -7.26963,-6.80268 -12.15676,-6.80268 -4.58981,0 -8.11385,7.09155 -14.18171,7.09155 -6.06645,0 -9.51897,-7.09155 -14.11023,-7.09155 -4.88429,0 -7.21215,6.28662 -12.15535,6.80268 -2.30963,0 -4.69077,-4.19576 -10.5665,-4.19576 0,0 -25.10725,-1.6295 -25.10725,-35.67374 0,-26.31176 20.20465,-48.53161 15.62891,-64.6162 l 0,0 z m 96.09142,132.77697 c 0,0 31.35873,13.83252 39.58198,25.61624 17.84179,-13.49877 41.31389,-24.09614 41.31389,-24.09614 0,0 -22.49744,-5.86732 -41.31389,-22.79331 -10.76283,14.22801 -39.58198,21.27321 -39.58198,21.27321 l 0,0 z m -99.49208,0 c 0,0 -28.81637,-7.04527 -39.57913,-21.27321 -18.81776,16.92745 -41.31805,22.79331 -41.31805,22.79331 0,0 23.47352,10.59736 41.31805,24.09614 8.22181,-11.78231 39.57913,-25.61624 39.57913,-25.61624 l 0,0 z m 49.71095,-129.30531 -8.10542,23.01214 -22.06978,-10.49359 10.49219,22.0712 -23.00929,8.17555 23.00929,8.17695 -10.49219,21.99687 22.06978,-10.49218 8.10542,23.00928 8.17695,-23.00928 22.06978,10.49218 -10.49079,-21.99687 23.00929,-8.17695 -23.00929,-8.17555 10.49079,-22.0712 -22.06978,10.49359 -8.17695,-23.01214 z m -53.11019,10.63662 c 1.91838,4.13265 -15.63034,29.61151 -15.63034,50.50752 0,25.62324 13.66429,40.73746 31.90988,40.73746 3.48058,0 7.28648,4.70339 10.56511,4.70339 5.34566,0 8.90195,-5.93322 12.15677,-5.93322 4.13685,0 6.92607,6.51239 14.10881,6.51239 7.1841,0 10.04484,-6.51239 14.18313,-6.51239 3.25339,0 6.80968,5.93322 12.15534,5.93322 3.28004,0 7.08454,-4.70339 10.56511,-4.70339 18.2456,0 31.91131,-15.11422 31.91131,-40.73746 0,-20.89601 -17.54866,-46.37488 -15.63034,-50.50752 0,0 34.22512,24.55052 34.22512,53.47339 0,46.59216 -47.24992,58.10529 -47.24992,58.10529 l 10.63662,23.94892 c 0,0 -14.64582,2.19604 -23.58845,9.40819 -11.92821,9.61853 -12.08517,35.60642 -12.08517,53.18309 0,20.70391 0.76987,29.47687 8.24987,35.09458 7.88667,5.92622 13.81994,7.20233 13.81994,13.24208 0,5.26292 -6.14078,7.41548 -14.11023,10.9255 -9.06463,3.99522 -9.96772,10.9269 -23.08219,10.9269 -13.11599,0 -13.94615,-6.93168 -23.01071,-10.9269 -7.968,-3.51142 -14.11023,-5.66258 -14.11023,-10.9255 0,-6.03981 5.93182,-7.31592 13.81994,-13.24208 7.47999,-5.61771 8.24846,-14.39067 8.24846,-35.09458 0,-17.57667 -0.15566,-43.56454 -12.08387,-53.18309 -8.94402,-7.21355 -23.58845,-9.40819 -23.58845,-9.40819 l 10.63522,-23.94892 c 0,0 -47.2485,-11.51307 -47.2485,-58.10529 0,-28.92287 34.22512,-53.47339 34.22512,-53.47339 l 0.003,0 z m 53.18309,4.84783 5.20964,14.69071 14.03721,-6.72975 -6.65682,14.1088 14.6178,5.21104 -14.6178,5.20964 6.65682,14.03721 -14.03721,-6.65682 -5.28255,14.61638 -5.20964,-14.61638 -14.03721,6.65682 6.65683,-14.03721 -14.61638,-5.20964 14.61638,-5.21104 -6.65683,-14.1088 14.03721,6.72975 5.28255,-14.69071 z m -89.79777,99.64061 c 9.51056,10.88764 24.60371,15.04975 24.60371,15.04975 -0.003,0 -15.71024,8.23303 -24.16904,17.94557 0,0.0196 0,0.57775 0,0.57775 -0.0841,-0.0771 -0.20194,-0.13743 -0.29168,-0.21736 -0.16688,0.19492 -0.34638,0.38143 -0.50624,0.57916 0,0 0,-0.95498 0,-1.01248 -8.94963,-7.9105 -26.77172,-16.78723 -26.77172,-16.78723 0,0 17.08453,-5.88976 27.13491,-16.13648 l 0,0.001 0,0 0,0 z m 179.52217,0 c 10.05185,10.24537 27.13492,16.13518 27.13492,16.13518 0,0 -17.82209,8.8767 -26.77457,16.78724 10e-4,0.0575 0,1.01247 0,1.01247 -0.15987,-0.19632 -0.33937,-0.38283 -0.50484,-0.57916 -0.0869,0.0813 -0.20614,0.13883 -0.28888,0.21736 0,0 -0.001,-0.55812 0,-0.57775 -8.46021,-9.71249 -24.16761,-17.94557 -24.16761,-17.94557 0,0 15.09035,-4.16209 24.60098,-15.04974 l 0,0 z m -127.71433,44.86167 -11.21578,11.21438 11.21578,11.21579 11.21579,-11.21579 -11.21579,-11.21438 z m 75.90494,0 -11.21438,11.21438 11.21438,11.21579 11.21579,-11.21579 -11.21579,-11.21438 z m -75.90494,5.35407 5.86172,5.85891 -5.86172,5.93464 -5.93322,-5.93464 5.93322,-5.85891 z m 75.90494,0 5.93464,5.85891 -5.93464,5.93464 -5.86031,-5.93464 5.86031,-5.85891 z m -86.24988,17.07611 c 2.22829,5.51113 7.52346,22.58304 7.52346,43.05412 0,14.17043 -1.37428,21.63498 -1.37428,21.63498 0,0 15.81116,-4.65431 18.9594,-20.69405 1.47525,-7.51925 3.12017,-35.22078 -4.48743,-39.94232 0,0 -20.62115,-4.05272 -20.62115,-4.05272 l 0,0 z m 96.59768,0 c 0,0 -20.624,4.05412 -20.624,4.05412 -7.6062,4.72022 -5.96128,32.42173 -4.48604,39.94232 3.14821,16.03972 18.95798,20.69405 18.95798,20.69405 0,0 -1.37427,-7.46597 -1.37427,-21.63498 0,-20.47108 5.29657,-37.54446 7.52627,-43.05412 l 0,0 0,0 0,-10e-4 z m -135.01979,4.48744 c -0.88346,0.0379 -1.78937,0.13883 -2.67844,0.36039 -7.11118,1.78375 -11.4079,9.02535 -9.62274,16.13648 0.27346,1.0882 0.7222,2.09367 1.22985,3.03884 -1.03632,-0.34497 -2.11751,-0.57355 -3.2562,-0.65208 -0.45716,-0.0308 -0.92553,-0.0154 -1.37428,0 -6.72974,0.22577 -12.33901,5.51674 -12.8074,12.37404 -0.50063,7.31312 5.05818,13.60955 12.37404,14.11023 1.09101,0.0729 2.15256,0.0337 3.18187,-0.14584 -0.62964,0.86383 -1.17375,1.78515 -1.59023,2.82148 -2.73734,6.80267 0.57775,14.63039 7.38042,17.36782 6.80127,2.73454 14.55606,-0.65208 17.29208,-7.45334 0.41789,-1.03913 0.65208,-2.053 0.79652,-3.11176 0.62684,0.86944 1.37988,1.66596 2.24231,2.38675 5.62472,4.7034 14.03721,3.95876 18.7407,-1.66315 4.7048,-5.62332 3.95876,-13.96574 -1.66456,-18.66911 -0.85121,-0.71238 -1.79497,-1.27191 -2.74855,-1.73607 1.02229,-0.32815 2.01513,-0.77969 2.96591,-1.37428 6.21229,-3.89425 8.09141,-12.16793 4.19716,-18.38024 -2.67703,-4.27008 -7.38043,-6.46471 -12.08387,-6.15058 -2.13854,0.14303 -4.2813,0.80914 -6.22351,2.02635 -0.94797,0.59459 -1.79077,1.25508 -2.53119,2.02495 0.001,-1.06857 -0.0897,-2.16798 -0.3618,-3.25479 -1.56079,-6.22351 -7.28086,-10.32531 -13.45947,-10.05887 l 0,0 0.001,0.001 0,10e-4 z m 45.6568,1.73467 c 0,0 11.07134,2.31663 11.07134,2.31663 4.09479,5.65136 3.39923,14.78747 3.39923,27.49811 0,12.81584 -9.62274,17.72675 -9.62274,17.72675 0,-30.80486 -3.17626,-38.21053 -4.84783,-47.54021 l 0,0 0,-0.001 z m 82.12568,0 c -1.67438,9.33106 -4.84643,16.73677 -4.84643,47.54021 0,0 -9.62415,-4.91094 -9.62415,-17.72675 0,-12.71064 -0.69555,-21.84537 3.40063,-27.4968 0,0 11.06994,-2.31664 11.06994,-2.31664 l 0,0 0,0 z m -126.9877,3.83676 c 4.79595,-0.20615 9.20486,2.97573 10.41926,7.81374 0.28888,1.15271 0.31973,2.28719 0.21596,3.40203 -0.0841,0.92413 -0.33095,1.76412 -0.65068,2.60412 -1.60145,-0.58477 -3.33472,-0.86944 -5.13811,-0.86944 -4.465,0 -8.46302,1.96465 -11.21578,5.06659 -0.7222,-0.63946 -1.35044,-1.34624 -1.88052,-2.1708 -0.59318,-0.91712 -1.09522,-1.92119 -1.37568,-3.03884 -1.3883,-5.53077 1.99411,-11.13164 7.52487,-12.51854 0.68994,-0.17529 1.41354,-0.26083 2.09928,-0.29028 l 0,0.001 10e-4,0 z m 165.33869,4.26867 c -16.98635,0 -29.41798,13.0907 -27.71135,29.15986 1.43738,13.55066 12.44979,24.90386 26.04818,28.14745 -2.32226,-3.7975 -3.86621,-8.03111 -4.34159,-12.51712 -1.70383,-16.07058 10.72496,-29.0898 27.71408,-29.0898 2.67703,0 5.27133,0.33094 7.81374,0.94236 -5.98932,-9.81907 -17.26536,-16.64275 -29.52305,-16.64275 l 0.001,10e-4 -0.001,0 0,-10e-4 z m -144.64404,3.68951 c 3.31789,0.11079 6.49836,1.82864 8.3915,4.84783 3.03042,4.83101 1.57621,11.2256 -3.25479,14.25461 -1.00968,0.63245 -2.08946,1.05175 -3.18608,1.30276 -0.91291,0.21034 -1.84125,0.19071 -2.74855,0.14444 0.004,-0.14725 0,-0.28468 0,-0.43472 0,-6.14779 -3.69653,-11.46259 -8.97206,-13.81994 0.37302,-0.9017 0.81195,-1.76131 1.4458,-2.5326 0.68153,-0.82456 1.50189,-1.56919 2.46249,-2.1708 1.81179,-1.13588 3.8676,-1.65894 5.86031,-1.59163 l 0,0 0.001,0 z m 144.64404,2.31664 c 5.31761,0 10.42627,1.6281 14.83377,4.34159 -16.57827,3.20571 -28.50922,17.8488 -26.77315,34.95008 -5.28395,-4.37665 -9.14875,-10.27061 -9.8401,-16.78724 -1.34483,-12.69105 7.87404,-22.50444 21.7809,-22.50444 l -0.001,0 0,0 0,0 z m -178.00125,6.22211 c 1.2032,0.0827 2.28158,0.41508 3.32772,0.86663 0.83719,0.36601 1.60987,0.83579 2.31524,1.37568 -2.00953,2.57326 -3.18327,5.82385 -3.18327,9.33387 0,2.75416 0.73902,5.30639 2.02495,7.52627 -0.87365,0.5469 -1.79077,0.97882 -2.82008,1.23124 -0.99985,0.2426 -2.03337,0.3618 -3.11316,0.28888 -5.68782,-0.38985 -10.01118,-5.30919 -9.62273,-10.99843 0.38984,-5.68922 5.38351,-10.01398 11.07133,-9.62415 l 0,0 0,0 0,0 z m 17.51078,1.51871 c 5.52235,0 9.98595,4.53512 9.98595,10.06027 0,5.52234 -4.4636,9.98594 -9.98595,9.98594 -5.52515,0 -9.98734,-4.4636 -9.98734,-9.98594 0,-5.52515 4.4636,-10.06027 9.98734,-10.06027 z m 14.97685,11.50465 c 0.98863,0.11079 1.94362,0.34778 2.89298,0.7236 0.98724,0.39265 1.96465,0.87225 2.82148,1.59164 4.37385,3.66006 4.8885,10.16964 1.23124,14.5449 -3.66006,4.37385 -10.17105,4.96142 -14.5449,1.30275 -0.92273,-0.77268 -1.59304,-1.69962 -2.1708,-2.67844 -0.45856,-0.77829 -0.75585,-1.60706 -1.01248,-2.45967 5.82245,-1.68138 10.18086,-6.81529 10.78247,-13.02338 l 0,-0.001 0,0 0,0 z m -27.49681,6.94851 c 2.70227,4.00224 7.31732,6.65683 12.51996,6.65683 1.09241,0 2.15397,-0.14024 3.18187,-0.36321 0.21736,0.94938 0.35058,1.90857 0.29028,2.89581 -0.0659,1.07137 -0.22858,2.13153 -0.65208,3.18467 -2.12732,5.28956 -8.16853,7.8432 -13.45947,5.71586 -5.28957,-2.12732 -7.91751,-8.16713 -5.78879,-13.45947 0.43051,-1.06717 1.0265,-1.99691 1.73748,-2.82148 0.62544,-0.7264 1.37568,-1.30275 2.1708,-1.80899 l 0.001,0 -0.001,0 0,0 z m 75.68624,24.60098 c -9.28198,0 -15.19412,1.95905 -15.19412,4.77631 0,2.81867 5.9136,4.70339 15.19412,4.70339 2.47369,0 5.28254,-1.44018 5.28254,-4.70339 0,-3.26321 -2.81025,-4.77631 -5.28254,-4.77631 z m 35.81954,0 c -2.47369,0 -5.28255,1.51311 -5.28255,4.77631 -10e-4,3.26321 2.80886,4.70339 5.28255,4.70339 9.28338,0 15.19412,-1.88472 15.19412,-4.70339 0,-2.81868 -5.9122,-4.77631 -15.19412,-4.77631 z"
     class="fil1"
     id="path2169" /></g>
  
  
  
  
  
  
  
  
  
  
  
  
  
  
  
  
  
  
  
  
  
  
  
  
  
  
  
  
  
  
  
  
  
  
  
  
  
  
  
  
  
  
  
  
  
  
  
  
  
  
  
 </g>
</svg>