<?xml version="1.0" encoding="UTF-8" standalone="no"?>
<!-- Created with Inkscape (http://www.inkscape.org/) -->
<svg id="Bayern" xmlns:rdf="http://www.w3.org/1999/02/22-rdf-syntax-ns#" xmlns="http://www.w3.org/2000/svg" xml:space="preserve" height="326.38" width="300" version="1.0" xmlns:cc="http://creativecommons.org/ns#" xmlns:dc="http://purl.org/dc/elements/1.1/" viewBox="0 0 150 163.1875"><metadata id="metadata2374"><rdf:RDF><cc:Work rdf:about=""><dc:format>image/svg+xml</dc:format><dc:type rdf:resource="http://purl.org/dc/dcmitype/StillImage"/><dc:title/></cc:Work></rdf:RDF></metadata>
<path id="path3868" d="m149.56 123.41s-1.6858 39.35-44.666 39.35h-29.909-29.887c-44.092 0-44.665-39.35-44.665-39.35v-122.96l149.13 0.00069-0.00099 122.96z" fill="#fff"/><g id="g3870" fill="#2b96f6" transform="matrix(.99655 0 0 .99655 -13.017 -143.97)"><rect id="rect94" transform="rotate(198.79)" height=".0028490" width="51.535" y="-216.85" x="-241.81"/><path id="path96" d="m14.395 275.02c1.9601 9.1795 8.2115 25.141 28.105 30.749l-10.175-24.66-17.93-6.09z"/><polygon id="polygon116" transform="matrix(.71225 0 0 .71225 3.8331 88.617)" points="13.571 203.63 13.571 206.24 39.989 270.23 39.99 270.23 39.99 270.23 40.004 270.26 40.007 270.27 40.048 270.29 108.55 293.58 80.869 226.52 80.868 226.52 80.867 226.52"/><path id="path124" d="m81.156 297.73 4.1517 10.058h1.1275 1.8754 2.1887 20.229l-29.573-10.058z"/><polygon id="polygon126" transform="matrix(.71225 0 0 .71225 3.8331 88.617)" points="80.852 226.48 80.852 226.48 149.39 249.79 121.73 182.78 53.182 159.46 80.854 226.49 80.867 226.52 80.868 226.52 80.869 226.52"/><polygon id="polygon130" transform="matrix(.71225 0 0 .71225 3.8331 88.617)" points="108.55 293.58 108.55 293.59 108.55 293.59 108.56 293.59 108.56 293.59"/><polygon id="polygon132" transform="matrix(.71225 0 0 .71225 3.8331 88.617)" points="108.55 293.58 108.55 293.59 108.55 293.59 108.56 293.59 108.56 293.59"/><path id="path146" d="m110.29 266.58-0.0399-0.0135 16.771 40.629c18.855-2.6681 27.889-13.937 32.203-23.667l-0.14458-0.34971-48.789-16.598z"/><path id="path164" d="m139.36 235.4-0.003-0.001 19.717 47.769 0.002 0.00071-0.0128-0.0299 0.2849 0.0969c3.4964-8.0335 3.7949-14.938 3.7949-14.938v-24.807l-23.783-8.0897z"/><polygon id="polygon180" transform="matrix(.71225 0 0 .71225 3.8331 88.617)" points="53.178 159.46 25.497 92.394 25.497 92.394 13.571 88.338 13.571 145.98"/><polygon id="polygon188" transform="matrix(.71225 0 0 .71225 3.8331 88.617)" points="25.485 92.357 94.027 115.67 94.027 115.67 78.912 79.049 19.991 79.048"/><rect id="rect192" height=".0021368" width=".0014245" y="202.19" x="41.71"/><rect id="rect194" height=".0021368" width=".0014245" y="202.19" x="41.71"/><rect id="rect204" height=".00071225" width=".0014245" y="218.81" x="90.566"/><rect id="rect206" height=".00071225" width=".0014245" y="218.81" x="90.566"/><polygon id="polygon232" transform="matrix(.71225 0 0 .71225 3.8331 88.617)" points="190.27 206.09 190.28 206.09 162.59 139.03 162.59 139.03 94.048 115.71 94.048 115.71 121.71 182.74 121.73 182.78 121.73 182.78 121.77 182.79 121.78 182.79"/><polygon id="polygon250" transform="matrix(.71225 0 0 .71225 3.8331 88.617)" points="155.73 79.049 137.84 79.049 162.58 138.99 162.59 139.02 162.59 139.02 162.59 139.03 162.58 138.99 223.67 159.77 223.67 144.26 203.46 95.287 203.45 95.283 203.45 95.278"/><polygon id="polygon284" transform="matrix(.71225 0 0 .71225 3.8331 88.617)" points="203.45 95.278 203.45 95.278 203.45 95.283 203.46 95.287 203.5 95.299 223.67 102.16 223.67 79.049 196.75 79.049 203.43 95.238"/></g><rect id="rect196" height="0" width=".0021294" stroke="#000" y="57.509" x="28.571" stroke-width=".70980" fill="#fff"/><rect id="rect198" height="0" width=".0021294" stroke="#000" y="57.509" x="28.571" stroke-width=".70980" fill="#fff"/>
<path id="Wappenschild_1_" d="m149.56 123.41s-1.6858 39.35-44.666 39.35h-29.909-29.887c-44.092 0-44.665-39.35-44.665-39.35v-122.96l149.13 0.00069-0.00099 122.96z" stroke="#1d3a69" stroke-width=".875" fill="none"/></svg>
