<?xml version="1.0" encoding="UTF-8" standalone="no"?>
<svg
   xmlns:dc="http://purl.org/dc/elements/1.1/"
   xmlns:cc="http://creativecommons.org/ns#"
   xmlns:rdf="http://www.w3.org/1999/02/22-rdf-syntax-ns#"
   xmlns:svg="http://www.w3.org/2000/svg"
   xmlns="http://www.w3.org/2000/svg"
   xmlns:xlink="http://www.w3.org/1999/xlink"
   xmlns:sodipodi="http://sodipodi.sourceforge.net/DTD/sodipodi-0.dtd"
   xmlns:inkscape="http://www.inkscape.org/namespaces/inkscape"
   height="660"
   width="600"
   version="1.0"
   id="svg2"
   sodipodi:version="0.32"
   inkscape:version="0.46"
   sodipodi:docname="Blason_Limburg_povince_Blegique.svg"
   sodipodi:docbase="D:\Mes documents\Renaud-Notre Lapin"
   inkscape:export-filename="/Users/olivier/Desktop/Blason Rouge/Blason_Vide_3D.png"
   inkscape:export-xdpi="144"
   inkscape:export-ydpi="144"
   inkscape:output_extension="org.inkscape.output.svg.inkscape">
  <metadata
     id="metadata49">
    <rdf:RDF>
      <cc:Work
         rdf:about="">
        <dc:format>image/svg+xml</dc:format>
        <dc:type
           rdf:resource="http://purl.org/dc/dcmitype/StillImage" />
        <dc:title>Blason Limburg Province (Belgique)</dc:title>
        <dc:date>16 Juin 2009</dc:date>
        <dc:creator>
          <cc:Agent>
            <dc:title>Zorlot</dc:title>
          </cc:Agent>
        </dc:creator>
        <cc:license
           rdf:resource="http://creativecommons.org/licenses/by-sa/3.0/" />
        <dc:language>fr</dc:language>
        <dc:subject>
          <rdf:Bag />
        </dc:subject>
      </cc:Work>
      <cc:License
         rdf:about="http://creativecommons.org/licenses/by-sa/3.0/">
        <cc:permits
           rdf:resource="http://creativecommons.org/ns#Reproduction" />
        <cc:permits
           rdf:resource="http://creativecommons.org/ns#Distribution" />
        <cc:requires
           rdf:resource="http://creativecommons.org/ns#Notice" />
        <cc:requires
           rdf:resource="http://creativecommons.org/ns#Attribution" />
        <cc:permits
           rdf:resource="http://creativecommons.org/ns#DerivativeWorks" />
        <cc:requires
           rdf:resource="http://creativecommons.org/ns#ShareAlike" />
      </cc:License>
    </rdf:RDF>
  </metadata>
  <sodipodi:namedview
     inkscape:window-height="964"
     inkscape:window-width="1280"
     inkscape:pageshadow="2"
     inkscape:pageopacity="0.0"
     guidetolerance="10.0"
     gridtolerance="10.0"
     objecttolerance="10.0"
     borderopacity="1.0"
     bordercolor="#666666"
     pagecolor="#ffffff"
     id="base"
     showgrid="false"
     height="660px"
     inkscape:zoom="0.3166819"
     inkscape:cx="82.115739"
     inkscape:cy="329.99986"
     inkscape:window-x="-4"
     inkscape:window-y="-4"
     inkscape:current-layer="layer4"
     showguides="true"
     inkscape:guide-bbox="true" />
  <desc
     id="desc4">Flag of Canton of Valais (Wallis)</desc>
  <defs
     id="defs6">
    <linearGradient
       id="linearGradient2893">
      <stop
         style="stop-color:white;stop-opacity:0.3137255;"
         offset="0"
         id="stop2895" />
      <stop
         id="stop2897"
         offset="0.19"
         style="stop-color:white;stop-opacity:0.25098041;" />
      <stop
         style="stop-color:#6b6b6b;stop-opacity:0.1254902;"
         offset="0.60000002"
         id="stop2901" />
      <stop
         style="stop-color:black;stop-opacity:0.1254902;"
         offset="1"
         id="stop2899" />
    </linearGradient>
    <radialGradient
       inkscape:collect="always"
       xlink:href="#linearGradient2893"
       id="radialGradient3163"
       gradientUnits="userSpaceOnUse"
       gradientTransform="matrix(1.353218,0,0,1.348928,-77.62935,-85.74693)"
       cx="221.44487"
       cy="226.33101"
       fx="221.44487"
       fy="226.33101"
       r="300" />
  </defs>
  <g
     inkscape:groupmode="layer"
     id="layer3"
     inkscape:label="Fond écu"
     style="display:inline">
    <path
       id="path2855"
       style="fill:#ffffff;fill-opacity:1;fill-rule:evenodd;stroke:none;stroke-width:1px;stroke-linecap:butt;stroke-linejoin:miter;stroke-opacity:1"
       d="M 300,658.5 C 300,658.5 598.50001,546.17969 598.50001,260.72817 C 598.50001,-24.723354 598.50001,2.1764765 598.50001,2.1764765 L 1.5,2.1764765 L 1.5,260.72817 C 1.5,546.17969 300,658.5 300,658.5 z "
       sodipodi:nodetypes="cccccc" />
  </g>
  <g
     inkscape:groupmode="layer"
     id="layer4"
     inkscape:label="Meubles">
    <g
       transform="matrix(0.7863937,0,0,0.7863937,636.96425,63.219634)"
       inkscape:label="Meubles"
       id="g6897"
       style="fill:#e20909" />
    <g
       transform="matrix(0.7863937,0,0,0.7863937,636.96425,63.219634)"
       inkscape:label="Reflet final"
       id="g6899"
       style="fill:#e20909" />
    <g
       transform="matrix(0.7863937,0,0,0.7863937,636.96425,63.219634)"
       inkscape:label="Contour final"
       id="g6901"
       style="fill:#e20909" />
    <g
       id="g24756"
       transform="matrix(1.1506915,0,0,1.1506915,-65.334831,4.633618)">
      <g
         transform="matrix(1.0903703,0,0,1.0903703,-11.998051,-46.2406)"
         style="stroke:#000000;stroke-opacity:1"
         id="g7728">
        <path
           sodipodi:nodetypes="ccccsccccccccscsccsccsccccccccccccccccccccccccsccccccccccccccccccccccccccccccsccccccccccccccccccccccccccccsccccccsccccccccccscccccc"
           d="M 363.16461,151.1109 C 363.20779,151.02073 363.18291,150.95722 363.18291,150.95722 C 363.26049,150.56056 363.38789,150.29089 363.48971,149.95798 C 363.508,149.80431 363.54977,149.71469 363.52489,149.65119 C 363.69475,149.29163 363.82216,149.02195 363.99268,148.66213 C 364.5447,147.49357 365.34781,146.37314 366.42898,145.36354 C 366.47144,145.27364 366.60614,145.22087 366.6479,145.13125 C 367.57677,144.32783 368.50436,143.5249 369.68504,142.76932 C 371.94251,141.59187 374.38875,141.29277 376.93156,141.83487 C 379.6734,142.88501 380.8839,144.38862 380.51333,146.21862 C 380.53821,146.28212 380.56309,146.34563 380.51998,146.43578 C 380.42775,146.39866 380.37799,146.27164 380.28575,146.23452 C 378.60747,144.32817 375.9798,143.96583 372.28619,145.04664 C 370.76147,145.71725 369.58215,146.4723 368.81286,147.28646 C 368.15401,147.9841 367.74699,148.7296 367.49947,149.48585 C 367.43942,149.72913 367.44671,149.94604 367.38671,150.1893 C 367.32666,150.43258 367.38371,150.7765 367.37341,151.14681 C 368.36996,155.07832 370.43234,157.56673 373.58556,158.67547 C 377.63608,160.09195 381.66343,159.46641 385.71002,156.70899 C 389.75726,153.9513 393.43257,153.02417 396.83026,153.96388 C 396.8976,153.9375 396.8976,153.9375 396.8976,153.9375 C 399.63945,154.98764 402.03491,156.53976 404.04029,158.68424 C 402.03491,156.53976 399.63945,154.98764 396.8976,153.9375 L 396.87272,153.87399 C 396.10674,149.33937 397.24467,145.30413 400.10259,141.69385 C 402.33819,139.8657 405.04223,138.44004 408.35598,137.5813 L 408.35598,137.5813 C 413.05011,136.47477 416.54001,137.45161 418.7832,140.60171 C 420.35965,142.84097 420.46482,145.29039 418.98156,147.84932 C 418.02616,149.17593 416.59368,149.88365 414.54488,149.80729 C 417.22698,147.73095 417.61515,145.74754 415.61642,143.82022 C 414.4351,143.18425 412.79698,143.16675 410.70996,143.9844 C 408.78193,144.81301 407.55649,146.24541 407.00875,148.21808 C 406.78152,151.6035 407.32288,154.17504 408.77489,156.09678 C 409.30037,156.84321 410.00302,157.44697 410.81543,157.93447 C 419.61746,163.34967 426.36104,170.45036 431.13842,179.27368 C 434.67307,186.31301 436.83036,191.62112 437.81226,195.11885 C 438.21764,196.35184 438.48838,197.63759 438.87617,199.02398 C 439.48488,201.56912 440.08335,204.48455 440.68905,207.6169 C 441.57944,212.46905 441.80334,219.77993 441.36563,229.76808 C 441.28969,234.92558 440.25127,239.21483 438.09166,242.62478 C 437.39765,243.62923 436.88056,244.49035 436.32124,245.44202 C 434.69235,248.42429 434.12498,251.13793 434.65911,253.49252 C 434.79112,250.65719 436.1716,248.43078 438.77635,246.75174 C 439.22261,246.50293 439.64383,246.19213 440.11591,246.00717 C 442.3485,244.76622 444.80485,244.09617 447.36843,243.89832 C 448.89948,243.44427 450.31373,242.89019 451.49394,242.13552 C 453.85396,240.62489 455.51137,238.51049 456.42367,235.88221 C 457.08716,232.61888 455.27608,230.17927 451.08398,228.59777 C 454.67507,227.85013 457.54431,228.6306 459.91854,230.92358 C 461.61205,233.26349 462.4395,235.5757 462.2935,237.977 C 461.18051,242.07573 458.81455,244.76073 455.17095,245.96919 C 454.90156,246.07473 454.69952,246.15388 454.42948,246.25968 C 454.74838,246.28051 455.02532,246.39251 455.34487,246.41309 C 458.27437,246.95093 461.52552,246.92178 465.09927,246.32817 C 463.38251,248.68559 460.57804,249.85684 456.68865,249.84303 C 462.78866,251.33561 465.8977,254.51275 466.10802,259.41158 C 465.6771,264.85465 462.9787,268.4757 457.80354,270.13695 L 457.73549,270.16361 C 457.64332,270.12646 457.57597,270.15285 457.44193,270.20536 C 456.94542,270.3259 456.51605,270.4216 456.02044,270.54251 C 451.40736,270.66427 448.97737,269.41868 448.59578,266.85854 C 450.96571,268.34742 453.60345,268.33882 456.33196,266.97756 C 459.3008,264.64165 460.1387,261.8235 458.70293,258.35706 C 457.47781,256.41969 455.91298,255.20141 454.05069,254.61173 C 451.84463,253.9377 449.12101,254.12572 446.02388,255.33911 C 438.75537,258.99327 435.01144,263.31621 434.86013,268.28347 C 434.94306,273.45197 436.29159,277.68511 439.04565,281.14783 C 443.19833,285.60093 449.07601,287.91387 456.65307,288.02124 L 443.12001,292.73719 C 432.72863,289.40973 424.94826,281.25088 419.85556,268.44819 C 418.71535,266.33103 417.34229,265.4039 415.66899,265.69319 C 414.38151,265.97784 412.98191,266.9657 411.40943,268.90033 C 409.40705,266.16865 410.46134,263.70452 414.55469,261.6613 L 414.62203,261.63491 C 414.66515,261.54477 414.79984,261.492 414.86655,261.46587 C 417.73439,260.85508 420.16009,261.29656 422.14358,262.79032 C 422.47003,263.02868 422.79642,263.26709 423.0804,263.59535 C 422.79642,263.26709 422.47003,263.02868 422.14358,262.79032 C 420.15984,261.29593 417.73439,260.85508 414.86655,261.46587 C 414.77432,261.42875 414.63962,261.48152 414.57227,261.5079 C 405.5622,257.34627 401.23008,253.62276 401.66574,250.3747 C 401.85479,247.88326 402.83215,245.81554 404.78077,244.24632 C 403.01948,248.673 405.3513,251.05585 411.75063,251.33162 C 417.33116,250.90337 421.92175,253.50007 425.38046,258.95758 C 424.81153,253.53996 425.29631,249.02736 426.88528,245.54868 C 428.90566,241.38676 430.23724,235.66482 431.02115,228.54513 C 431.20463,223.85829 430.59458,219.92186 429.20793,216.58269 C 428.88449,215.75712 428.45188,215.04757 428.01862,214.33827 L 427.99373,214.27476 C 426.67642,212.30024 425.09402,211.23537 423.17193,210.8896 C 420.58601,210.43764 418.09495,211.41359 415.80664,213.70191 C 415.17698,215.26716 415.64242,216.25687 417.20288,216.67106 C 414.27563,217.52488 412.70781,216.89381 412.61,214.66128 C 412.74764,214.02133 412.97757,213.41847 413.20743,212.81564 C 414.69368,209.66949 417.89628,207.53575 422.89197,206.60409 C 422.98419,206.6412 423.05154,206.61482 423.18624,206.56205 C 423.34511,206.57305 423.59756,206.62066 423.75648,206.63165 C 427.10077,206.63998 429.70492,208.33011 431.74675,211.55909 L 431.74675,211.55909 C 430.89856,203.24751 428.47884,194.89233 424.39681,186.45588 C 422.17654,181.97824 418.31506,178.07033 412.72826,174.91163 C 406.25435,172.46675 401.50318,171.83755 398.25241,173.25763 C 395.0697,174.65106 392.41248,176.7909 390.17158,179.79319 C 387.99667,182.76962 388.07824,186.54683 390.23124,191.05084 C 391.80535,193.87704 394.6533,195.39839 398.73534,195.70371 C 398.96227,195.68806 399.07873,195.78894 399.23896,195.79943 C 399.94456,195.816 400.80972,195.84331 401.71737,195.78074 C 402.07898,195.71231 402.46542,195.70742 402.82704,195.63899 C 404.55009,195.47671 405.9424,194.27195 406.96886,192.33149 C 407.50624,190.72914 407.01164,188.87182 405.61969,186.70679 C 409.91901,188.75833 411.31531,191.72744 409.7163,195.57705 C 408.45767,198.70727 405.7785,200.19643 401.82087,200.20864 C 400.9557,200.18133 399.9983,200.11689 398.92379,199.95184 C 399.9983,200.11689 400.9557,200.18133 401.82087,200.20864 C 407.45879,203.49382 406.89481,207.01116 399.96208,210.53306 C 399.24619,210.88678 398.46296,211.26689 397.58749,211.60988 C 402.79347,208.83775 403.4686,206.5954 399.66254,205.0099 C 399.08364,204.72393 398.4381,204.46406 397.59046,204.28338 C 396.97045,204.08677 396.41643,203.86429 395.7533,203.75784 C 385.11077,201.77409 379.23369,196.09198 378.07958,186.80143 C 377.96749,180.76532 379.98683,175.21272 384.34688,170.2814 C 385.04818,169.49387 385.84171,168.74346 386.65283,167.83966 C 388.6051,167.0748 390.44896,166.42566 392.27382,165.93048 C 394.01446,165.6148 395.42571,165.64792 396.61797,165.91336 C 395.42636,165.64767 394.01517,165.61452 392.27382,165.93048 C 390.44826,166.42593 388.6051,167.0748 386.65283,167.83966 C 385.53286,168.35169 384.34559,168.89009 383.15761,169.42876 C 380.37965,170.66363 377.60626,170.72464 374.93247,169.64782 C 370.28912,167.51131 366.77598,164.49248 364.43558,160.50143 C 363.18153,157.69707 362.73533,154.57548 363.16461,151.1109 z"
           id="path6845"
           style="fill:#e20909;fill-opacity:1;stroke:#000000;stroke-width:2;stroke-miterlimit:4;stroke-dasharray:none;stroke-opacity:1" />
        <g
           style="fill:#e20909;stroke:#000000;stroke-opacity:1;display:inline"
           id="g6768"
           transform="matrix(0.7863937,0,0,0.7863937,132.76548,81.200843)">
          <g
             transform="translate(-78.626335,-28.088767)"
             style="fill:#e20909;stroke:#000000;stroke-opacity:1;display:inline"
             inkscape:label="Fond écu"
             id="g6770">
            <g
               id="g26026"
               style="fill:#e20909;stroke:#000000;stroke-opacity:1">
              <path
                 d="M 503.89204,48.91241 C 503.75937,48.788618 503.75937,48.664816 503.75937,48.664816 C 503.36564,48.045849 502.97179,47.674464 502.57932,47.179288 C 502.44666,46.931695 502.31674,46.807903 502.31674,46.684112 C 501.79161,46.188936 501.39776,45.817552 500.87136,45.322376 C 499.16478,43.713046 497.06573,42.351309 494.57019,41.360957 C 494.4389,41.237166 494.17634,41.237166 494.04642,41.113364 C 491.94474,40.370605 489.84557,39.627836 487.35002,39.13266 C 482.75543,38.637484 478.4234,39.751638 474.4851,42.351309 C 470.54681,45.941343 469.49666,49.283794 471.33452,52.131059 C 471.33452,52.25485 471.33452,52.378641 471.46707,52.502443 C 471.59835,52.378641 471.59835,52.131059 471.72964,52.007267 C 473.30367,47.674464 477.50441,45.322376 484.46201,44.703397 C 487.48269,44.8272 489.97558,45.322376 491.81471,46.188936 C 493.39001,46.931695 494.57144,47.922058 495.49044,49.036201 C 495.753,49.407585 495.88429,49.77897 496.14674,50.150344 C 496.40931,50.521729 496.54059,51.140707 496.80317,51.759674 C 497.72204,59.063533 495.88429,64.634271 491.28958,68.595689 C 485.38226,73.671253 478.16209,75.280583 469.49792,73.299877 C 460.83248,71.319163 454.00756,72.185723 448.88782,76.023353 C 448.75654,76.023353 448.75654,76.023353 448.75654,76.023353 C 444.81824,79.61338 441.79768,83.82238 439.82853,88.77415 C 441.79768,83.82238 444.81824,79.61338 448.75654,76.023353 L 448.75654,75.899553 C 447.04869,67.729129 442.45398,61.663215 435.23393,57.454214 C 430.24549,55.844884 424.7319,55.225917 418.56327,55.968675 L 418.56327,55.968675 C 409.89784,57.20662 404.64683,61.168039 402.94162,67.976722 C 401.76007,72.80469 403.20407,77.013703 407.40494,80.35614 C 409.89784,81.96547 412.78723,82.21305 416.19902,80.72752 C 410.2917,78.9944 408.32254,75.899553 410.42423,71.319163 C 411.99953,69.46225 414.75626,68.348107 418.82458,68.348107 C 422.63147,68.471898 425.65077,70.081228 427.88248,73.052284 C 430.50794,78.62302 431.29564,83.32721 430.1142,87.53621 C 429.72036,89.14554 428.93265,90.63107 427.88248,91.9928 C 416.59287,106.97191 409.89784,123.43654 407.66612,141.5105 C 406.35339,155.74684 406.22211,166.14556 406.87854,172.70665 C 407.00982,175.05874 407.40356,177.41084 407.66612,180.01051 C 408.32254,184.71469 409.24142,190.03784 410.2917,195.73238 C 411.99953,204.52177 416.46158,217.02499 423.81429,233.61465 C 427.35735,242.28025 431.95207,248.84135 437.85939,253.17414 C 439.69725,254.41209 441.14125,255.525 442.71655,256.76294 C 447.44381,260.72436 450.19928,264.93461 450.85558,269.2674 C 448.75527,264.56322 444.94826,261.71471 439.43469,260.60179 C 438.51581,260.47677 437.59819,260.23042 436.67794,260.23042 C 432.08335,259.61145 427.48863,260.1054 423.02532,261.46837 C 420.13731,261.71471 417.38045,261.71471 414.88629,261.22077 C 409.89784,260.23042 405.69698,257.75454 402.4151,253.91691 C 399.13324,248.84135 400.57862,243.51943 406.61597,238.07125 C 400.05222,239.18539 395.72008,242.40404 393.22592,247.85099 C 391.91319,252.92656 392.04574,257.38191 393.88233,261.34333 C 398.47693,267.53305 404.25297,270.50411 411.21056,270.13396 C 411.7357,270.13396 412.12955,270.13396 412.65595,270.13396 C 412.13081,270.38031 411.73696,270.75293 411.21056,270.99928 C 406.61597,273.84779 401.10238,275.95106 394.66992,277.31403 C 399.13197,280.16129 404.64683,280.28385 411.21056,277.6854 C 401.89008,284.2465 398.7395,291.67415 401.62752,300.09217 C 405.95954,309.00536 412.91714,313.33815 422.76276,312.71918 L 422.89542,312.71918 C 423.02659,312.59539 423.15787,312.59539 423.41917,312.59539 C 424.33805,312.47035 425.12702,312.3478 426.04463,312.224 C 433.9211,309.37551 437.20296,305.66167 436.15281,301.08252 C 433.1335,305.16774 428.67019,306.89961 423.15787,306.40567 C 416.59412,304.42373 413.31226,300.21597 413.44354,293.40727 C 414.23124,289.32208 416.0691,286.22722 418.82585,283.99768 C 422.10771,281.39801 426.83497,279.91247 432.87232,279.91247 C 447.57509,281.27544 456.76429,286.10217 460.30873,294.39639 C 463.5906,303.18578 464.11435,311.23242 461.75274,318.90765 C 457.68328,329.18258 449.28167,336.98286 436.54793,342.18097 C 428.67146,344.78189 421.1901,345.771 414.23124,345.771 C 407.27365,345.52342 400.7099,344.03789 394.54002,341.19063 C 386.926,336.36388 379.18208,331.90605 371.82937,327.69828 C 371.82937,327.57325 371.5668,327.57325 371.5668,327.57325 C 362.11642,321.38353 354.23984,312.84297 347.9374,301.94783 C 344.52424,295.75813 342.02996,289.32208 340.97981,283.00732 C 340.97981,282.88353 340.97981,282.88353 340.97981,282.75974 C 340.06082,274.9607 338.4869,267.16166 335.99136,259.36386 L 336.38521,258.99249 C 340.32338,262.33368 344.26167,263.94425 348.06868,263.81922 C 341.76739,258.37351 337.30408,252.05876 334.80854,245.00249 C 334.67726,244.38352 334.67726,243.88958 334.67726,243.14558 L 334.02221,243.26937 C 330.60905,245.00126 326.53948,245.74526 321.94488,245.49767 C 316.69386,245.00249 312.49312,243.39316 308.95,240.5459 C 305.27299,237.69863 302.51753,233.73721 300.67837,228.53786 C 298.31542,230.02339 295.95247,231.13878 293.59084,232.00409 C 293.59084,232.25168 293.45956,232.37671 293.32827,232.62306 C 288.4711,240.17576 281.90735,245.74649 273.37448,249.33529 C 271.27408,250.20184 269.04241,250.94586 266.81074,251.56482 C 268.38604,250.07929 269.56751,248.46997 270.61772,246.8594 C 272.84938,243.14558 273.50576,239.18539 272.71811,235.22399 C 269.1737,236.09055 266.15437,237.45227 263.52887,239.43175 C 262.47866,240.17576 261.55973,241.16486 260.64081,242.15523 C 255.38982,247.47838 255.38982,252.92533 260.37828,258.74365 C 256.57129,259.23759 253.81452,258.37227 251.84539,256.02017 C 251.18902,255.15361 250.66391,254.28705 250.27009,253.2967 C 250.13881,252.92533 250.13881,252.80277 250.00754,252.55393 C 248.30096,247.47714 249.87627,242.40281 254.73344,237.32725 C 255.65237,236.33565 256.57129,235.47033 257.62149,234.60377 C 249.21989,237.57361 244.36272,242.40281 243.31252,249.33405 C 243.96889,252.67649 245.41293,255.89638 247.6446,258.74365 C 247.6446,258.86745 247.90715,259.11503 248.03843,259.23759 C 248.82606,260.22919 249.87627,261.3421 250.92646,262.33245 C 251.05774,262.45747 251.05774,262.45747 251.05774,262.45747 C 244.10017,260.97194 238.45534,257.38068 234.25455,251.316 C 232.02287,247.47714 231.76033,242.6504 233.59818,236.58448 C 233.59818,236.58448 233.59818,236.58448 233.72945,236.46069 C 234.12328,234.72756 234.91093,232.99444 235.69857,231.01374 L 225.59041,237.69863 C 221.3896,239.80313 216.26987,240.91728 210.3625,240.79349 L 210.23123,240.79349 C 207.08062,241.16486 204.0613,241.9064 201.30453,242.89798 C 196.18481,244.62987 191.85273,247.60217 188.17704,251.68738 C 185.42026,249.70667 184.76389,246.73561 186.33918,243.14558 C 187.12683,242.03267 187.91449,240.91728 188.83341,239.80437 L 183.97623,241.04231 L 150.50112,271.99087 C 148.92581,273.35261 148.66327,274.83814 149.58219,275.95106 C 144.06864,276.32367 139.73658,277.68417 136.71725,280.65647 C 135.4045,282.01822 134.22302,283.25615 132.64772,284.61665 C 129.1033,287.95909 124.50867,290.80636 119.38895,293.65487 C 116.89473,294.76778 114.26923,295.26419 111.64374,295.26419 C 109.93716,295.13916 108.23058,294.89281 106.39273,294.39764 L 105.99891,294.27384 L 98.778786,292.91085 C 94.84054,292.66327 92.477581,293.40604 91.821212,295.38676 C 91.689932,295.88192 91.689932,296.3771 91.821212,296.87228 C 92.083751,297.86264 92.871411,298.4816 94.577979,298.85299 C 99.041325,299.47195 101.40428,300.58611 101.7981,302.32046 C 102.97958,305.41532 102.19192,307.51859 99.566424,308.63397 C 100.7479,313.46194 104.16106,316.43301 109.6746,317.79474 C 109.93716,313.7083 112.03755,311.10985 115.97581,309.99447 L 121.09553,315.56521 L 127.26545,310.1195 C 129.6284,307.51859 130.41605,304.42373 129.75968,300.83494 C 130.41605,304.42373 129.6284,307.51859 127.26545,310.1195 L 121.09553,315.56521 C 118.47002,319.03268 116.89473,322.49892 116.23835,325.96393 L 118.86385,330.9157 C 120.04533,327.94463 122.67082,326.83048 126.87162,327.20187 C 130.94115,328.43981 133.17283,330.9157 133.56666,334.38194 C 136.32342,336.36388 140.6555,336.73403 146.43159,335.61988 C 143.67483,333.144 141.96825,330.42052 141.1806,327.32567 C 141.04933,327.20187 141.04933,327.20187 141.04933,327.20187 C 140.78677,325.84014 140.52422,324.23081 140.52422,322.62148 C 140.52422,324.23081 140.78677,325.84137 141.04933,327.20187 L 142.36208,326.95428 C 146.30031,324.3546 150.63239,323.61184 155.09574,324.84977 C 160.60929,319.52662 163.75989,314.20346 164.54754,309.12915 C 164.67881,309.12915 164.67881,309.12915 164.67881,309.00411 C 167.43559,316.67937 173.73679,318.53628 183.97623,314.45106 C 176.23101,315.19383 174.65571,312.59415 179.64415,306.89837 C 179.77545,307.02341 179.90672,307.02341 180.16925,307.02341 C 184.76389,305.16649 187.25812,302.69062 187.38939,299.59575 C 187.38939,299.22437 187.38939,298.85174 187.38939,298.4816 C 187.52066,298.7292 187.78321,299.10058 187.78321,299.34816 C 187.78321,299.34816 187.78321,299.34816 187.91449,299.47195 C 189.88361,303.55841 191.72147,305.04269 193.16548,304.29993 C 194.0844,297.11987 196.31608,291.92051 199.72923,288.94945 C 199.46668,297.49125 201.82964,302.07288 207.08062,302.93943 C 207.86828,297.98767 208.91848,293.77866 210.23123,290.18739 C 210.3625,290.0636 210.3625,289.81601 210.49378,289.69345 C 212.33163,284.98926 214.82585,281.77061 217.84517,279.54233 C 218.10773,283.50373 216.92625,287.58895 214.16949,291.55036 C 219.42048,289.56841 223.62128,286.59859 226.90315,282.51338 C 229.39737,278.67452 230.44758,274.46675 230.31629,269.88638 C 235.69857,279.41852 235.43603,288.33048 229.65992,296.62594 L 245.67547,284.61789 C 247.25078,283.50498 248.95734,282.38959 250.66391,281.39924 C 257.62149,277.19024 265.23544,274.96194 273.50576,274.59054 C 265.23544,274.96194 257.62149,277.19024 250.66391,281.39924 C 248.95734,282.38959 247.25078,283.50373 245.67547,284.61789 C 246.85695,291.79919 245.67547,296.99731 242.26232,300.58734 C 248.1697,301.20631 252.63304,297.74007 255.38982,290.43621 C 255.65237,289.81724 255.78364,289.32331 256.0462,288.70434 C 254.60216,295.26542 256.17747,299.84582 260.77208,302.69309 C 270.35515,306.90086 280.33206,309.74936 290.57151,311.23365 C 292.01553,311.60627 293.45956,311.97766 294.77231,312.4716 C 295.8225,312.84421 296.74143,313.33815 297.79162,313.83457 C 298.97179,314.20595 300.022,314.82492 301.07351,315.56645 C 305.92936,318.53751 309.86761,322.62271 313.28209,328.0709 C 314.46227,325.09984 314.33224,321.38601 312.88824,317.05322 C 310.91912,314.08338 308.55486,311.6075 305.92936,309.37797 C 304.22278,308.14004 302.51622,307.02712 300.81095,306.15932 C 302.51753,307.02589 304.22411,308.14004 305.92936,309.37797 C 308.55486,311.6075 310.91912,314.08338 312.88824,317.05322 C 314.33224,321.38601 314.46227,325.09984 313.28209,328.0709 C 313.14954,328.0709 313.01952,328.1947 313.14954,328.3185 C 311.04909,331.9073 309.86761,335.62112 309.47379,339.83137 C 309.34251,340.45033 309.34251,341.19309 309.34251,341.81207 C 309.34251,344.41299 309.47379,347.13523 309.8663,349.85869 C 311.70415,353.69756 312.49185,357.16255 312.098,360.3812 C 311.70415,363.35226 310.39141,366.19953 308.15972,368.67542 C 307.89718,368.92301 307.76591,369.17059 307.37208,369.54198 C 299.88941,375.60665 294.37585,381.67381 290.43761,387.73973 C 286.49936,394.67222 284.13641,401.72848 283.21748,408.65972 C 282.69238,415.71599 282.42983,421.78315 282.29856,426.60988 C 282.42983,429.21081 281.51091,431.43786 279.41051,433.29477 C 277.31011,435.02666 274.29079,436.51343 270.08998,437.50254 C 266.41429,438.36911 263.00114,438.36911 260.11308,437.50254 C 256.83122,436.38963 254.59954,434.53272 253.28679,431.80801 C 252.7617,431.06524 252.49914,429.9511 252.23659,428.96074 C 251.31766,424.13277 253.28679,419.30479 258.27523,414.59938 C 253.02424,415.59096 248.69216,417.94182 245.27903,421.53309 C 242.91607,426.23727 242.2597,430.57007 243.44117,434.40645 C 243.57245,434.90162 243.83499,435.273 243.96627,435.76942 C 246.06666,440.59615 249.08599,444.06364 253.02424,446.29194 C 260.37564,448.89162 268.12087,449.26175 275.73481,447.1585 C 275.86609,447.1585 276.12864,447.1585 276.25991,447.03346 C 280.19815,445.17655 283.48003,442.94825 286.23681,440.47236 C 286.36808,440.22478 286.63064,440.10098 286.76191,439.8534 C 286.89318,439.7296 287.02445,439.48201 287.15574,439.35822 C 288.46849,437.99648 289.64996,436.51095 290.56888,435.02542 C 291.61909,433.1685 292.538,431.1878 293.19437,429.08329 C 292.538,431.1878 291.61909,433.1685 290.56888,435.02542 C 288.3372,441.09134 287.02445,446.66208 286.36808,451.73765 C 286.36808,451.73765 286.36808,451.73765 286.36808,451.86268 C 289.64996,448.14885 293.0631,445.54792 296.34498,444.18743 C 298.18283,452.60545 298.44669,459.29033 297.13394,463.99451 C 295.29609,469.93663 293.0631,474.39323 290.43761,476.86911 C 291.61909,477.11546 292.80057,476.86911 293.98202,476.62152 L 293.98202,476.62152 C 297.39518,475.63118 301.07088,472.78267 304.74658,467.8309 C 308.15972,463.74569 309.73503,458.67136 309.60375,452.85178 C 309.47117,449.63315 308.94737,446.78587 308.15842,444.55758 C 307.89586,443.93861 307.63462,443.31964 307.37077,442.70067 C 306.84567,441.8341 306.32056,440.96878 305.66419,440.34982 C 306.32056,440.96878 306.84435,441.8341 307.37077,442.70067 C 307.76459,443.31964 308.15842,443.81481 308.68352,444.43379 C 312.88433,449.26052 317.87278,451.73641 323.51753,451.61385 C 323.7801,451.61385 324.04268,451.61385 324.43653,451.49006 C 324.96028,451.36502 325.3554,451.36502 325.88053,451.36502 C 326.01308,451.36502 326.01308,451.36502 326.14311,451.36502 C 329.42497,450.87108 332.18171,450.12708 334.41342,449.01417 C 331.13155,449.13796 328.11225,448.76658 325.48668,447.90002 C 321.81095,446.90967 318.66037,444.92896 316.1662,442.20548 C 318.65911,444.92772 321.81095,446.90967 325.48668,447.90002 C 328.11225,448.76658 331.13155,449.13796 334.41342,449.01417 C 337.95786,447.28105 340.05818,444.55634 341.23973,441.09134 C 340.05818,444.55758 337.95786,447.28105 334.41342,449.01417 C 332.18171,450.12708 329.42497,450.87108 326.14311,451.36502 C 326.01181,451.36502 326.01181,451.36502 325.88053,451.36502 C 325.35678,451.36502 324.96166,451.36502 324.43653,451.49006 C 330.08128,462.01257 341.23973,468.20228 357.77899,470.18299 C 359.48695,470.30678 361.4561,470.55436 363.29258,470.67816 C 361.4561,470.55313 359.48695,470.30554 357.77899,470.18299 C 349.11494,481.44826 343.60135,492.46596 340.97579,503.73122 C 339.00676,510.16853 337.43146,516.97722 336.51385,523.91093 C 335.85744,524.65368 335.06847,525.27266 334.14959,526.0142 C 333.49317,526.38681 332.96941,526.63316 332.31299,526.88075 C 330.47513,527.62475 328.11225,528.11869 325.3554,528.36629 C 322.46738,528.11869 319.70927,526.88075 317.34638,524.65245 C 314.32708,524.28108 310.91519,524.28108 307.1069,524.65245 C 305.13778,525.39522 304.48139,526.63316 305.13778,528.36629 C 307.36945,528.98525 308.94476,530.59457 309.86368,533.07046 C 310.52005,535.67139 310.25881,538.02223 309.33989,540.37432 C 309.2073,540.62192 309.2073,540.74571 309.07734,540.99329 L 309.07734,540.99329 C 307.76459,544.58209 307.89586,547.92577 309.33989,550.77179 C 316.82251,549.41007 320.89209,545.69624 321.67841,539.50653 C 322.33483,543.09656 324.04268,544.95347 326.53557,545.32485 C 326.66824,545.32485 326.66824,545.32485 326.92942,545.32485 C 329.03112,541.11585 332.44301,537.64962 336.90759,535.04992 C 337.43146,534.55476 338.08777,534.18337 338.74418,533.93579 C 339.53315,533.56441 340.31948,533.19301 340.97579,532.94543 C 340.31948,533.19301 339.53178,533.56441 338.74418,533.93579 C 338.08777,534.18337 337.43146,534.55476 336.90759,535.04992 C 332.44428,537.64962 329.03112,541.11461 326.92942,545.32485 L 328.37482,550.40042 C 330.60642,549.78145 332.96941,549.53386 335.20101,549.65765 C 337.95786,551.14319 339.92701,553.0001 341.50231,555.10335 C 341.63359,555.10335 341.63359,555.2284 341.76476,555.2284 C 342.55246,556.46635 343.33879,557.70428 343.7339,559.18981 L 344.25777,559.56119 C 350.55894,558.32326 352.9232,555.84737 351.08397,552.25733 C 350.95269,552.25733 350.95269,552.00974 350.82152,551.88595 C 350.55894,551.51458 350.29764,551.14319 350.03381,550.77179 L 346.35808,547.30556 L 350.03381,550.77179 C 350.29638,551.14442 350.55757,551.51581 350.82152,551.88595 C 350.95406,552.00974 350.95406,552.25733 351.08397,552.25733 L 351.6091,551.88595 C 354.10201,550.52421 356.33498,549.16248 358.0403,547.55316 C 360.2719,545.44865 361.8472,543.09656 362.76745,540.49688 C 363.02875,536.65925 361.0596,534.05958 356.99141,532.69785 C 361.06087,534.05958 363.03001,536.65925 362.76745,540.49688 C 361.84857,543.0978 360.27327,545.44865 358.0403,547.55316 L 358.43415,548.04833 C 358.43415,548.29468 358.69661,548.6673 358.82927,549.03867 C 359.74688,550.77056 361.32217,551.88595 363.68506,552.62747 C 367.88592,551.26574 370.64403,549.65765 372.08666,547.6757 C 371.43036,544.95347 372.34923,542.47759 374.71222,540.37308 C 376.94382,538.88756 379.43811,538.02099 381.93227,538.02099 C 383.50757,538.02099 385.08298,538.88756 386.52698,540.49688 C 386.52698,540.49688 386.52698,540.49688 386.65826,540.49688 C 388.6273,540.1255 389.54629,539.25893 389.15244,538.02099 C 389.54629,535.67015 389.15244,533.44061 388.49601,531.21231 C 388.36484,530.96472 388.36484,530.71836 388.23356,530.59334 C 387.70969,529.48043 387.18329,528.36504 386.52698,527.2509 C 386.26441,527.00454 386.00185,526.63193 385.73928,526.38557 C 385.73928,526.26055 385.60673,526.01295 385.47672,525.8904 C 385.34417,525.7666 385.34417,525.7666 385.34417,525.7666 C 381.66844,522.79554 377.4677,520.6898 373.13556,519.45186 C 377.4677,520.6898 381.66844,522.7943 385.34417,525.7666 C 385.34417,525.7666 385.34417,525.7666 385.47672,525.8904 L 385.47672,525.8904 C 385.608,526.0142 385.73928,526.13799 385.73928,526.38557 C 386.00058,526.38557 386.13313,526.63193 386.3957,526.75696 C 387.31331,527.12833 387.96961,527.62352 388.88861,527.9949 C 389.28246,528.24248 389.67757,528.36629 390.07004,528.48884 C 393.08935,529.60299 398.47039,529.23285 406.21684,527.2509 C 399.52181,525.51901 395.71491,523.04313 394.53336,519.82324 C 392.95945,516.48203 392.30302,512.89076 392.56433,509.05438 C 392.56433,508.68176 392.56433,508.18782 392.56433,507.44382 C 392.43305,506.82485 392.30302,505.95952 392.17048,505.09296 C 391.1202,503.85502 388.88861,502.49205 385.34417,501.13155 C 388.88861,502.49328 391.1202,503.85502 392.17048,505.09296 C 392.95945,505.71193 393.74577,506.33091 394.53336,507.07368 C 397.29147,510.04473 399.78437,514.25373 401.62223,519.82447 C 405.56054,514.25373 406.87325,508.43665 405.42924,502.49328 C 405.42924,502.36949 405.42924,502.36949 405.29659,502.24694 C 405.16542,501.62796 405.03414,501.009 404.77283,500.39003 C 404.24781,498.16049 403.06499,496.30357 401.35841,494.44666 C 399.65183,492.58975 397.15754,491.10544 394.27091,489.74247 C 397.15754,491.10544 399.65309,492.58975 401.35841,494.44666 C 403.06361,496.30357 404.24643,498.16049 404.77283,500.39003 C 405.03414,501.009 405.16668,501.62796 405.29659,502.24694 C 405.42924,502.37073 405.42924,502.37073 405.42924,502.49328 C 409.8913,504.35019 414.22332,504.84538 418.55673,503.85626 C 423.41263,501.87431 426.95696,499.64725 428.92611,497.04758 C 425.9068,497.54152 423.15132,497.54152 420.78707,497.54152 C 420.65579,497.29516 420.65579,497.29516 420.65579,497.54152 C 416.58633,497.04758 413.17317,495.80963 410.15386,493.95272 C 410.02258,493.82769 409.76001,493.58133 409.62873,493.45754 C 409.49745,493.33375 409.49745,493.33375 409.36742,493.33375 L 409.36742,493.33375 C 408.316,492.46719 407.52968,491.60063 406.87325,490.73284 C 404.64154,488.13314 403.59138,485.16209 403.72267,481.5733 L 403.98524,481.07812 C 410.54898,482.68744 416.19373,487.14404 421.05089,494.4479 C 423.93903,488.38322 419.34433,480.21155 407.00454,469.81408 C 411.99425,470.68064 415.8,472.28996 418.16288,474.88965 C 420.26457,472.90893 420.52714,470.68188 419.34433,468.20599 C 416.98143,462.8816 412.91186,459.16778 407.39839,456.93947 C 413.17317,459.16778 418.81793,460.65331 424.46405,461.64366 C 426.03808,462.01629 427.61338,462.26263 429.31996,462.38766 C 438.37798,462.51145 444.02274,459.78675 445.86186,454.34103 C 443.36769,455.0838 441.0047,455.70277 439.03567,456.19795 C 438.90438,456.19795 438.7731,456.19795 438.64182,456.19795 C 438.50915,456.19795 438.50915,456.19795 438.37924,456.19795 C 433.25951,457.06451 429.32122,456.81692 426.30191,455.45395 C 426.03935,455.33016 425.90806,455.08256 425.64561,455.08256 C 420.13203,452.48289 416.4563,448.76906 414.61982,443.81729 C 418.29554,441.21637 422.36374,440.5974 426.69576,441.96038 C 432.07933,444.31122 435.88496,447.40608 437.85411,451.36873 C 440.34839,445.30405 438.24934,439.97966 431.68548,435.40052 C 431.29037,435.02789 430.89652,434.90534 430.50404,434.65652 C 423.02142,431.43786 415.01355,431.06772 406.61207,433.78995 C 415.4074,430.32371 421.97115,425.86836 426.30329,420.5452 C 427.87859,417.32532 427.48473,414.60184 425.25302,412.251 C 420.39586,417.94553 413.17581,421.41053 403.72393,423.02109 C 397.68532,423.02109 392.82816,422.02951 388.88987,419.8012 C 396.76634,417.94429 400.9672,413.4877 401.4936,406.80281 C 401.09848,407.05039 400.96845,407.29799 400.70463,407.66937 C 400.44205,407.91696 400.18087,408.04076 399.78575,408.41213 C 396.11003,411.50699 391.77789,413.11755 386.65826,413.11755 C 386.52698,413.11755 386.52698,413.11755 386.39696,413.11755 C 386.00185,413.11755 385.74066,413.11755 385.4781,413.11755 C 384.29654,412.99253 382.98381,412.86997 381.80237,412.62237 C 375.49982,409.40373 371.95676,405.07092 371.03776,399.37639 C 374.84351,403.7092 379.96451,406.06128 386.00185,406.31011 C 389.67884,405.93748 392.3044,404.82458 393.74703,402.96767 C 394.0096,402.59628 394.27217,402.22366 394.40345,401.72972 C 392.04045,401.97731 389.80886,401.72972 387.70843,401.11075 C 379.30683,398.63486 372.47924,389.84424 366.83564,374.98891 C 366.83564,374.98891 366.83564,374.74258 366.83564,374.61754 C 366.83564,374.61754 366.83564,374.61754 366.83564,374.74258 C 366.83564,374.86637 366.83564,374.86637 366.96692,374.98891 C 371.56164,382.17023 377.46896,385.38764 384.16525,384.14971 C 381.01466,380.80726 378.38921,376.47445 376.42007,371.27509 C 374.31964,366.07698 373.00691,360.00982 372.35061,353.07857 C 372.08804,350.97408 371.95676,348.74578 371.82546,346.3937 L 371.82546,341.8133 C 372.61443,342.55731 373.40076,343.29883 374.31964,344.16539 C 375.36991,345.03195 376.42007,346.0223 377.46896,346.88887 C 387.31458,354.56288 399.52445,358.03035 414.22597,357.41138 C 414.22597,357.41138 414.48854,357.41138 414.62108,357.41138 C 414.88239,357.41138 415.01494,357.41138 415.2775,357.41138 C 415.40879,357.41138 415.53869,357.41138 415.53869,357.41138 C 415.80125,357.41138 416.06383,357.41138 416.19511,357.41138 C 433.6599,357.65526 449.15039,352.3321 462.54044,341.19063 C 477.89826,328.6874 485.64482,309.74811 485.77473,284.74045 C 486.29987,280.40764 488.00644,277.93176 491.02575,277.31278 C 493.39001,276.9414 496.40931,277.68417 500.3476,279.91247 C 501.92289,273.97034 498.50975,270.50411 490.23942,269.76133 L 490.10813,269.76133 C 489.97558,269.63754 489.71302,269.63754 489.583,269.63754 C 484.3321,270.50411 480.52509,272.8562 478.16209,276.69382 C 477.76824,277.31278 477.37451,277.93176 477.11193,278.67452 C 477.37451,277.93176 477.76824,277.31278 478.16209,276.69382 C 480.52509,272.85497 484.3321,270.50411 489.583,269.63754 C 489.71428,269.51375 489.97685,269.51375 490.10813,269.51375 C 502.57932,256.51536 507.4351,247.35459 504.54835,242.15398 C 502.57932,238.06877 499.55863,235.22151 495.2266,233.85977 C 501.13393,240.17451 498.77093,245.74526 488.13899,250.4482 C 478.42466,253.41927 472.38605,260.84692 470.15434,272.35978 C 467.52889,262.82762 463.72189,255.52252 458.73343,250.69579 C 452.56354,245.00001 446.52482,236.21186 440.48622,224.69899 C 437.07306,216.89996 435.49776,209.84369 435.63031,203.28259 C 435.63031,201.67327 435.89161,200.18774 436.15418,198.7022 L 436.15418,198.57841 C 437.07306,194.36941 439.04221,191.52213 442.0615,189.66522 C 446.13234,187.18934 450.98825,187.18934 456.37044,189.54143 C 458.47087,191.76973 458.33958,193.75043 455.9767,195.48355 C 461.48891,194.98838 463.72062,192.88387 462.40778,189.04625 C 461.75147,188.0559 460.96376,187.18934 460.17618,186.32278 C 455.58147,181.98998 448.75654,180.50445 439.69725,182.23757 C 439.56597,182.36136 439.43469,182.36136 439.17211,182.36136 C 438.91092,182.48515 438.51581,182.73275 438.25451,182.85654 C 432.60837,185.08483 429.3265,189.66522 428.01378,196.4739 L 428.01378,196.4739 C 423.94419,181.86619 422.50156,166.14431 423.81429,149.18451 C 424.60187,140.14753 428.54018,130.98675 435.89024,121.94977 C 445.21209,113.53176 452.82473,109.32276 459.25857,109.57034 C 465.55975,109.81794 471.46707,111.67485 477.24184,115.26488 C 482.88797,118.85492 485.25097,125.29221 484.59455,134.3292 C 483.80558,140.14753 479.99995,144.60412 473.30367,147.82277 C 472.90982,147.94656 472.77979,148.19415 472.51597,148.31795 C 471.33452,148.81312 469.89051,149.43209 468.31521,149.92728 C 467.6588,150.05107 467.00249,150.29865 466.34607,150.42245 C 463.32677,151.28901 460.17618,150.17486 457.15677,147.57518 C 455.18773,145.22309 454.79387,141.75685 455.71275,137.17646 C 449.80543,143.48997 449.41158,149.43209 454.66259,154.87904 C 458.86208,159.33563 464.37567,160.0784 471.07195,157.47872 C 472.51597,156.85975 474.09125,156.11698 475.79783,155.12663 C 474.09125,156.11698 472.51597,156.85975 471.07195,157.47872 C 463.71924,166.76329 467.00111,172.33403 481.04885,173.69577 C 482.49286,173.81956 484.06815,173.94336 485.77473,173.94336 C 475.14153,172.70541 472.51597,169.36296 477.89826,164.16361 C 478.68723,163.29705 479.6061,162.43049 480.91894,161.56393 C 481.83655,160.82117 482.62552,160.0784 483.67568,159.45943 C 500.3476,149.06072 506.5175,135.56714 502.31674,119.1025 C 498.50975,108.82758 491.42086,100.78096 480.78765,95.33401 C 479.08109,94.46745 477.24322,93.72468 475.27408,92.73433 C 471.46844,92.73433 467.92263,92.85812 464.51085,93.2295 C 461.36026,93.84848 458.99726,94.83883 457.15814,96.07678 C 458.996,94.83883 461.35888,93.84848 464.51085,93.2295 C 467.924,92.85812 471.46844,92.73433 475.27408,92.73433 C 477.50579,92.85812 479.86867,92.98192 482.23293,93.10571 C 487.74514,93.35331 492.4724,91.62018 496.27802,88.03015 C 502.71049,81.34526 506.64878,73.917613 507.9615,65.623389 C 508.22406,60.053885 506.91135,54.483147 503.89204,48.91241 z"
                 id="path3707"
                 style="fill:#e20909;fill-opacity:1;stroke:#000000;stroke-width:3;stroke-miterlimit:4;stroke-dasharray:none;stroke-opacity:1" />
              <path
                 sodipodi:nodetypes="ccccccccccccccccccccccscccsccccccccscccccsccccccccccccccscscccccccscccccccscsccccccccccccccccccccccccsccccccccsccccccccccccccccccscscsccccccccccssccccscccccccccccccccsccccscccsccccccccccsccccccccsccccccccscccscccccccscccccccsccccscccccsccsccsccsccsccccccccccccccccccccccccccccccscscscccscccccccccsccccccccccccccccscccsscsccscccccccccccccccccsccccscscccscc"
                 d="M 306.84828,48.664816 C 300.54709,51.388289 290.83275,53.121411 277.70525,54.111763 C 277.31142,54.235554 276.9176,54.235554 276.65505,54.359356 L 276.52377,54.359356 C 256.04488,56.959038 240.68571,60.42527 230.57753,65.005655 C 227.95203,66.11981 225.72036,67.233953 223.88252,68.471898 C 224.14505,71.814339 225.58908,73.795053 228.34586,74.414023 C 228.34586,74.537813 228.34586,74.537813 228.34586,74.537813 L 228.34586,74.537813 L 233.07176,71.938141 L 233.07176,69.833635 L 233.07176,71.938141 L 228.34586,74.537813 L 228.34586,74.537813 C 227.82076,77.632673 227.82076,80.35614 228.21459,82.70823 C 232.28411,90.25968 238.45403,95.70663 246.72436,98.92528 C 246.72436,98.92528 246.72436,98.92528 246.85562,98.92528 C 246.85562,98.92528 246.85562,98.92528 246.98691,99.04908 C 250.66261,98.92528 254.20703,98.92528 257.35763,99.17287 C 261.6897,99.42045 265.62796,99.91563 269.0411,100.53461 C 269.0411,100.53461 269.0411,100.53461 269.17238,100.53461 C 272.58552,101.15357 275.47357,102.02013 278.09907,103.13429 C 282.69369,105.11499 286.50067,107.34329 289.38873,109.81917 C 290.83275,111.05711 292.01423,112.41885 293.06441,113.78059 C 296.21501,118.60857 296.34629,122.56998 293.19569,125.66483 C 292.93315,125.78864 292.80186,125.91243 292.6706,126.03622 C 290.83275,127.39795 287.81342,128.38831 283.2188,128.38831 C 274.94847,128.38831 268.12218,127.39795 263.00245,125.54104 C 262.34607,125.29345 261.55842,125.16966 260.77078,124.92207 C 257.22636,123.93172 252.89428,123.56034 248.0371,123.68413 C 246.59307,123.80792 244.88651,123.93172 243.31121,124.05551 C 240.94826,126.53139 241.07953,129.00728 243.44248,131.48316 C 240.68571,136.31114 235.30344,137.67288 227.42693,135.32079 C 230.31498,140.02497 233.85942,142.25327 238.32276,142.00567 C 242.26101,141.5105 246.46181,140.14876 250.40005,137.42529 C 250.66261,137.3015 250.92515,137.1777 251.1877,137.0539 C 250.92515,137.1777 250.66261,137.3015 250.66261,137.67288 C 246.59307,141.5105 243.96758,145.10053 242.78611,148.19539 C 242.78611,148.19539 242.78611,148.19539 242.78611,148.31918 C 242.65483,148.31918 242.65483,148.31918 242.65483,148.44298 C 242.12973,150.0523 241.86719,151.53784 242.26101,152.89957 C 242.65483,151.41404 243.44248,150.0523 244.62396,148.81436 C 248.0371,145.22433 254.20703,142.87223 263.13373,142.00567 C 262.7399,145.34812 259.72057,148.81436 254.3383,152.40439 C 264.8403,151.04265 271.92915,147.57642 275.73613,142.25327 C 276.65505,147.57642 279.67438,150.29989 284.92536,150.67128 C 283.2188,146.70986 283.74389,143.36741 286.3694,140.89153 C 290.17637,147.70021 296.60884,151.90921 305.92805,153.14716 C 301.20216,149.55712 298.97048,144.85295 299.3643,138.91083 C 303.43515,142.62465 306.84697,144.23397 309.73503,143.98639 C 309.20993,138.91083 310.91651,134.33043 314.72345,130.24522 C 316.03618,134.94941 321.54977,137.67288 331.26548,138.16806 C 324.04531,132.22593 320.89472,126.16001 321.2872,119.9703 C 321.81233,113.6568 322.8625,108.82882 324.3065,105.36257 C 328.24479,105.85776 330.87025,108.82882 332.44565,114.64715 C 333.49581,104.49603 329.29632,97.81113 319.71191,94.46868 C 322.47002,95.08766 325.22549,95.58284 327.85094,95.58284 C 329.55752,95.58284 331.13281,95.58284 332.83939,95.33524 C 338.35297,94.59248 341.37228,90.13589 341.37228,81.96547 C 341.37228,80.35614 341.37228,78.87061 340.97843,77.632673 C 340.97843,77.508883 340.97843,77.508883 340.97843,77.508883 C 340.05955,73.795053 337.69655,71.319163 334.02094,69.957426 C 333.88966,69.833635 333.62709,69.833635 333.49581,69.833635 C 333.49581,69.709843 333.2345,69.709843 333.2345,69.709843 C 332.44565,69.46225 331.78923,69.338459 330.87025,69.214668 C 330.21394,69.090865 329.42624,69.090865 328.63991,68.967074 C 324.04531,69.090865 320.89472,70.205019 319.31806,72.680899 C 320.89334,70.205019 324.04531,69.090865 328.63991,68.967074 C 329.42762,69.090865 330.21394,69.090865 330.87025,69.214668 C 331.78923,69.338459 332.44565,69.46225 333.2345,69.709843 C 333.2345,69.709843 333.49581,69.709843 333.49581,69.833635 C 333.62836,69.833635 333.89093,69.833635 334.02094,69.957426 C 337.69655,71.319163 340.05955,73.795053 340.97843,77.508883 C 340.97843,77.508883 340.97843,77.508883 340.97843,77.632673 C 341.37228,78.87061 341.37228,80.35614 341.37228,81.96547 C 341.37228,90.13589 338.35297,94.59248 332.83939,95.33524 C 331.13281,95.58284 329.55752,95.58284 327.85094,95.58284 C 325.22549,95.58284 322.46875,95.08766 319.71191,94.46868 C 329.29632,97.81113 333.49581,104.49603 332.44565,114.64715 C 330.87025,108.82882 328.24479,105.85776 324.3065,105.36257 C 322.8625,108.82882 321.8136,113.6568 321.2872,119.9703 C 320.89334,126.16001 324.04531,132.22593 331.26548,138.16806 C 321.55102,137.67288 316.03618,134.94941 314.72345,130.24522 C 310.91782,134.33043 309.20993,138.91083 309.73503,143.98639 C 306.84697,144.23397 303.43384,142.62465 299.3643,138.91083 C 298.97048,144.85295 301.20216,149.55712 305.92805,153.14716 C 296.60753,151.90921 290.17506,147.70021 286.3694,140.89153 C 283.74389,143.36741 283.2188,146.70986 284.92536,150.67128 C 279.67438,150.29989 276.65505,147.57642 275.73613,142.25327 C 271.92915,147.57642 264.8403,151.04265 254.3383,152.40439 C 259.72057,148.81436 262.7399,145.34812 263.13373,142.00567 C 254.20703,142.87223 248.0371,145.22433 244.62396,148.81436 C 247.77455,150.42369 249.48113,152.15681 249.74368,153.88993 C 250.00623,155.99442 248.95603,157.23237 246.72436,157.72754 C 244.88651,157.10858 243.04865,156.6134 241.2108,156.24202 C 234.51579,154.75649 227.95203,154.63269 221.38829,155.62305 C 221.12574,155.62305 220.99446,155.62305 220.86319,155.74684 C 220.33809,155.74684 219.81299,155.74684 219.41917,155.87063 C 212.98668,153.39475 209.83609,149.18574 209.44227,143.24362 C 203.92872,145.59571 201.30323,149.06195 202.09086,153.76613 C 205.63529,161.19379 212.33032,164.90761 222.43849,165.279 C 222.56977,165.279 222.83231,165.279 223.09486,165.279 C 222.83231,165.279 222.56977,165.279 222.43849,165.279 C 208.91717,167.38349 200.51557,172.95424 197.23369,181.99122 C 193.42672,187.93334 187.91317,187.31438 180.82432,180.13431 C 181.21814,181.12466 181.87452,182.2388 182.39962,183.10536 C 184.23747,186.32401 186.33788,189.17129 188.56955,191.77096 C 188.56955,191.77096 188.56955,191.77096 188.70082,191.77096 C 191.72014,195.11341 195.00202,197.83688 198.809,200.18897 C 198.67772,195.60859 200.25302,192.01855 203.53489,189.29508 C 204.19126,188.67611 204.84764,188.18093 205.76657,187.68575 C 204.84764,188.18093 204.19126,188.67611 203.53489,189.29508 C 200.25302,192.01855 198.67772,195.60859 198.809,200.18897 C 198.41517,205.01695 196.18349,208.60699 191.98269,211.08287 C 187.7819,213.68255 184.23747,213.43495 181.21814,210.71148 C 180.82432,210.3401 180.56176,209.96872 180.16795,209.72113 C 179.24901,208.48318 178.98647,207.12145 179.77412,205.51213 L 176.09842,204.27418 C 175.1795,205.26453 174.52313,206.50248 173.99803,207.98801 C 173.6042,210.3401 173.6042,212.4446 173.99803,214.17772 C 174.6544,216.9012 176.22971,218.8819 178.59264,220.49123 C 179.51157,220.98641 180.56176,221.48158 181.87452,221.97676 C 183.44982,222.34813 185.02513,222.84332 186.46915,223.09091 C 186.73169,223.2147 187.12552,223.2147 187.38807,223.33726 C 188.04444,223.46229 188.8321,223.46229 189.61975,223.58486 C 191.32632,223.70988 193.03289,223.70988 194.73947,223.46105 C 195.92094,223.21347 197.23369,222.96587 198.54644,222.59449 C 198.809,222.4707 199.07155,222.3469 199.33409,222.3469 C 199.99048,221.97553 200.51557,221.60414 201.30323,221.35655 C 202.87851,220.48999 204.58509,219.37584 206.02911,218.01411 C 208.12952,216.0334 209.83609,213.6813 211.4114,210.71025 C 213.51178,206.50125 216.13728,203.77776 219.41917,202.53983 C 216.13728,203.77776 213.51178,206.50125 211.4114,210.71025 C 209.83609,213.6813 208.12952,216.0334 206.02911,218.01411 C 204.58509,219.37708 202.87851,220.48999 201.30323,221.35655 C 200.51557,221.60414 199.99048,221.97553 199.33409,222.3469 C 199.07155,222.3469 198.809,222.47194 198.54644,222.59449 L 198.2839,222.96587 C 197.10242,223.46105 195.92094,223.83244 194.87074,224.08002 C 194.60819,224.20382 194.34564,224.20382 194.34564,224.20382 C 192.63907,224.32886 191.06376,224.20382 189.61975,223.58486 C 188.8321,223.46105 188.04444,223.46105 187.38807,223.33726 C 187.12552,223.21347 186.73169,223.21347 186.46915,223.09091 C 186.60042,223.2147 186.60042,223.46229 186.73169,223.58486 C 186.73169,223.83244 186.99425,224.20382 187.12552,224.45141 C 187.12552,224.5752 187.2568,224.82279 187.38807,224.94659 C 187.38807,225.07038 187.38807,225.19293 187.51935,225.31797 C 189.75101,228.90676 192.90161,231.1363 196.83986,232.00161 C 199.33409,230.26975 201.82831,228.66042 204.71636,227.29744 C 207.07932,226.0595 209.70482,225.19293 212.46158,224.32761 C 220.60063,222.22311 225.72036,217.89032 227.55821,211.20419 C 225.72036,217.88907 220.60063,222.22187 212.46158,224.32761 C 209.70482,225.19293 207.07932,226.0595 204.71636,227.29744 C 201.82831,228.66042 199.33409,230.26849 196.83986,232.00161 C 193.95182,234.23116 191.32632,236.82959 188.8321,239.80189 C 187.91317,240.9148 187.12552,242.03019 186.33788,243.1431 C 184.76257,246.73313 185.41895,249.70543 188.17573,251.6849 C 191.85141,247.59969 196.18349,244.62863 201.30323,242.89551 C 204.05999,241.90392 207.07932,241.16238 210.22992,240.79101 L 210.36119,240.79101 C 216.26857,240.9148 221.38829,239.80066 225.58908,237.69615 L 235.69727,231.01127 C 234.90961,232.99321 234.12196,234.7251 233.72813,236.45822 C 233.59686,236.58201 233.59686,236.58201 233.59686,236.58201 C 231.75901,242.64792 232.02156,247.4759 234.25323,251.31352 C 238.45403,257.3782 244.09886,260.96948 251.05643,262.45499 C 251.05643,262.45499 251.05643,262.45499 250.92515,262.32997 C 249.87495,261.33962 248.82476,260.22671 248.0371,259.23511 C 247.90582,259.11132 247.64328,258.86373 247.64328,258.74117 C 245.41161,255.89392 243.96758,252.67526 243.31121,249.33158 C 244.3614,242.3991 249.21857,237.57112 257.62018,234.60131 C 258.01399,234.47626 258.40782,234.3537 258.67037,234.22991 C 258.40782,234.3537 258.01399,234.47626 257.62018,234.60131 C 256.56998,235.46786 255.65106,236.33317 254.73213,237.32477 C 249.87495,242.40033 248.29965,247.47467 250.00623,252.55146 C 250.1375,252.79905 250.1375,252.92285 250.26878,253.29422 C 250.66261,254.28459 251.1877,255.15114 251.84407,256.01771 C 253.81321,258.3698 256.56998,259.23636 260.37695,258.74117 C 255.3885,252.92285 255.3885,247.47467 260.6395,242.15275 C 261.55842,241.16238 262.47734,240.17204 263.52755,239.42927 C 266.15305,237.44856 269.17238,236.08807 272.7168,235.22151 C 273.50445,239.18293 272.84807,243.1431 270.61639,246.85694 C 269.56621,248.46749 268.38473,250.07682 266.80942,251.56236 C 269.0411,250.94337 271.27277,250.19937 273.37317,249.33282 C 281.90606,245.74402 288.4698,240.17328 293.32698,232.62058 C 293.45824,232.37424 293.58951,232.24921 293.58951,232.00161 C 293.45824,232.12666 293.19569,232.12666 293.19569,232.24921 C 293.06441,232.24921 293.06441,232.24921 293.06441,232.24921 C 289.25744,233.36336 285.58174,233.85853 281.90606,233.36336 L 281.77476,233.36336 C 281.77476,233.36336 281.77476,233.36336 281.90606,233.36336 L 281.90606,233.36336 C 284.26899,231.63024 286.23811,229.77333 287.81342,227.79261 C 288.07597,227.54503 288.20725,227.29744 288.4698,227.04861 C 289.25744,225.9357 289.91382,224.82031 290.43892,223.7074 C 291.48912,221.6029 292.1455,219.37461 292.40803,217.02251 C 292.1455,219.37461 291.48912,221.6029 290.43892,223.7074 C 289.91382,224.82031 289.25744,225.9357 288.4698,227.04861 C 288.20725,227.2962 288.07597,227.54379 287.81342,227.79261 C 286.23811,229.77333 284.26899,231.63024 281.90606,233.36336 L 281.90606,233.36336 C 281.77476,233.36336 281.77476,233.36336 281.77476,233.36336 L 281.90606,233.36336 C 285.58174,233.85729 289.25744,233.36336 293.06441,232.24921 C 293.06441,232.24921 293.06441,232.24921 293.19569,232.24921 C 293.19569,232.12542 293.45824,232.12542 293.58951,232.00161 C 295.95247,231.1363 298.31542,230.02091 300.67705,228.53538 C 300.41582,226.30708 300.28324,224.20258 300.54578,221.97428 C 300.93961,216.52733 303.17127,211.82316 307.37208,207.73795 C 303.17127,211.82316 300.93961,216.52733 300.54578,221.97428 C 300.28324,224.20258 300.41451,226.30708 300.67705,228.53538 C 302.51491,233.73473 305.27168,237.69615 308.94869,240.54342 C 312.49185,243.39069 316.6926,245.00001 321.94362,245.49519 C 326.53821,245.74278 330.60905,245.00001 334.02094,243.26689 C 334.15211,243.14187 334.41468,243.0193 334.67726,242.89551 L 334.80854,242.89551 C 334.80854,242.77048 335.07111,242.64792 335.20366,242.5229 C 335.46496,242.3991 335.99136,242.1515 336.12126,242.02896 C 335.72752,241.90392 335.20366,241.78136 334.67726,241.65757 C 328.63865,240.66599 323.6502,237.94374 319.18677,233.23831 C 316.6926,230.14347 316.95516,227.04861 319.71064,223.82996 L 319.71064,223.82996 L 319.71064,223.82996 C 321.28594,222.09684 322.46875,220.23993 323.64882,218.25922 C 325.35678,215.04057 326.53696,211.57433 327.06335,207.86051 C 326.53821,211.57433 325.35678,215.04057 323.64882,218.25922 C 322.46875,220.23993 321.28594,222.09684 319.71064,223.82996 C 326.14311,222.46822 330.86898,219.99234 334.15086,216.5261 C 334.41342,216.27975 334.67599,215.90713 334.93982,215.66077 C 334.93982,215.66077 334.93982,215.66077 335.07111,215.53575 C 335.20366,215.28816 335.46496,215.04181 335.59624,214.79298 C 335.59624,214.79298 335.59624,214.79298 335.72752,214.79298 L 335.59624,214.79298 C 335.72752,214.66794 335.72752,214.66794 335.85869,214.54539 C 338.08915,211.57433 339.40187,208.47947 339.92827,205.01323 C 340.05955,204.51805 340.05955,204.14667 340.05955,203.65149 C 340.05955,203.40391 340.05955,203.28012 340.05955,203.03253 L 340.05955,203.03253 C 340.05955,202.90873 340.05955,202.66114 340.05955,202.53735 C 340.05955,201.547 340.05955,200.55665 339.92827,199.56628 C 339.79698,199.56628 339.79698,199.56628 339.92827,199.56628 C 339.6657,198.08076 339.40313,196.59523 338.74683,195.23349 C 339.40313,196.59523 339.6657,198.08076 339.92827,199.56628 C 339.79698,199.56628 339.79698,199.56628 339.92827,199.56628 C 340.05955,200.55665 340.05955,201.547 340.05955,202.53735 C 340.05955,202.66114 340.05955,202.90873 340.05955,203.03253 L 340.05955,203.03253 C 340.05955,203.28012 340.05955,203.40391 340.05955,203.65149 C 340.05955,204.14667 340.05955,204.51805 339.92827,205.01323 C 339.40313,208.47947 338.0904,211.57433 335.85869,214.54539 C 335.72614,214.66919 335.72614,214.66919 335.72614,214.79298 C 335.59486,214.79298 335.59486,214.79298 335.59486,214.79298 C 335.46232,215.04057 335.20101,215.28692 335.06973,215.53575 C 334.93856,215.66077 334.93856,215.66077 334.93856,215.66077 C 335.06973,215.78458 335.20101,215.78458 335.33229,215.78458 C 335.72614,215.90837 336.12,216.15595 336.51385,216.15595 C 338.74418,216.89996 341.23973,217.3939 343.7339,217.64149 C 348.72235,218.01287 353.84082,217.3939 359.35429,215.53698 C 364.99916,214.17525 369.20002,211.45177 371.5629,207.49035 C 367.62461,209.47107 362.89873,210.21383 357.64771,209.71865 C 353.05312,209.22348 349.63996,207.24277 347.27708,203.52895 L 347.53964,203.40514 L 347.67219,203.40514 L 347.54355,203.40514 C 347.54355,203.40514 347.54355,203.40514 347.28098,203.52895 L 352.27069,202.53858 L 347.9374,203.40514 L 347.6761,202.53858 C 354.76371,192.13987 360.01461,192.51125 363.56043,203.40514 C 366.97359,197.21544 366.31716,190.90193 361.46,184.46462 C 369.33647,189.2926 378.13055,191.14951 388.10882,190.03537 C 394.93513,188.05466 399.39844,184.83601 401.63015,180.7508 C 398.74203,182.73151 394.14742,183.47427 387.71497,183.10289 C 379.8385,182.36013 372.87964,180.00804 367.23477,175.79903 C 366.97221,175.79903 366.84092,175.67524 366.84092,175.55144 C 362.64018,172.45659 359.09574,168.61896 356.07643,163.91478 C 373.40466,156.23954 378.13055,158.71543 370.38537,171.21864 C 370.38537,171.34243 370.38537,171.34243 370.25282,171.46623 C 378.39185,167.38103 382.59259,163.41961 382.59259,159.58198 C 382.59259,155.74436 378.12928,150.29742 369.20254,143.48873 C 364.34538,142.25079 361.58864,139.65111 360.66977,135.5659 C 361.58864,139.65111 364.34538,142.25079 369.20254,143.48873 C 369.99151,143.61252 370.64793,143.86012 371.43425,143.86012 C 378.39185,143.86012 383.3803,141.38423 386.3996,136.43246 C 383.77415,137.6704 381.40989,138.66075 379.31073,139.03214 C 379.17945,139.03214 379.17945,139.03214 379.17945,139.15593 C 379.17945,139.15593 379.0469,139.15593 378.91698,139.15593 C 378.65442,139.27973 378.39185,139.27973 378.39185,139.40352 C 376.16014,139.65111 374.19099,139.52731 372.61708,139.03214 C 372.61708,138.90835 372.48441,138.90835 372.35451,138.90835 C 367.62724,136.43246 364.47804,132.71863 363.42777,127.39548 C 366.97094,122.93889 371.82811,125.29098 377.73543,134.57554 C 381.54244,126.65272 379.44201,120.58679 371.30435,116.00641 C 366.57709,113.40673 362.90275,110.80705 360.14589,108.08358 L 359.88333,107.95978 C 359.62087,107.7122 359.48959,107.4646 359.22702,107.21702 C 358.43806,106.35046 357.78163,105.4839 357.12533,104.49355 C 357.78163,105.4839 358.43806,106.35046 359.22702,107.21702 C 359.48959,107.4646 359.62087,107.7122 359.88333,107.95978 L 360.14589,108.08358 C 362.37623,110.18808 365.0018,111.54981 368.02247,112.04499 C 368.94009,112.29258 369.99151,112.41637 370.90912,112.29258 C 373.9298,112.29258 376.4227,111.05464 378.5244,108.82634 C 381.14996,105.73148 381.80626,102.63663 380.361,99.29418 C 378.65442,103.13181 375.76629,105.11251 371.96065,105.23631 C 368.94009,105.36011 366.70964,104.49355 364.87178,102.63663 C 364.34676,101.89387 363.82162,101.1511 363.42777,100.40834 C 361.45862,96.94209 359.88333,91.99032 358.43806,85.30543 C 357.65035,81.34402 354.89488,77.753993 350.30028,74.411543 C 357.38778,73.544983 361.19617,71.316685 361.71992,67.602859 C 358.30677,69.21219 354.89488,69.831157 351.35056,69.088398 C 348.46242,63.889034 343.86782,59.803824 337.43399,57.080351 C 333.89093,55.966208 330.08265,55.718615 326.01446,56.337582 C 325.35803,56.461384 324.56907,56.708966 323.91276,56.708966 C 324.56907,56.708966 325.35803,56.461384 326.01446,56.337582 C 368.97612,56.71281 323.74212,43.276582 306.84828,48.664816 z M 325.75189,77.880263 C 323.6502,78.87061 321.68105,79.242 320.23831,79.11819 C 321.68232,79.242 323.65146,78.87061 325.75189,77.880263 C 326.01446,77.756463 326.14574,77.632673 326.27564,77.632673 C 328.24479,76.642313 330.21394,75.280583 332.18308,73.423669 C 330.21394,75.280583 328.24479,76.642313 326.27564,77.632673 C 328.24479,78.87061 329.82009,80.23235 331.39538,82.21305 C 330.87025,85.06033 329.82009,86.91724 327.85094,88.27898 C 329.82009,86.91724 330.87025,85.06033 331.39538,82.21305 C 329.82009,80.23235 328.24479,78.87061 326.27564,77.632673 C 326.14574,77.632673 326.01446,77.756463 325.75189,77.880263 z M 278.4929,66.98637 C 280.46202,66.98637 282.16859,67.233953 284.00644,67.852931 C 284.26899,67.976722 284.66282,68.224305 285.05665,68.348107 C 289.78255,71.07158 293.85207,74.166443 297.26521,77.632673 L 302.38494,75.775753 L 298.52095,76.448493 L 286.8945,78.87061 C 286.3694,78.87061 285.97557,78.87061 285.58174,78.9944 C 284.26899,79.11819 283.08751,79.11819 281.90606,78.9944 C 281.24968,78.87061 280.46202,78.87061 279.80565,78.87061 C 277.18015,77.756463 275.73613,76.023353 275.47357,73.547463 C 275.07975,71.195371 276.12994,68.967074 278.4929,66.98637 C 278.09907,66.98637 277.44269,66.98637 276.9176,66.98637 C 275.73613,67.110161 274.42338,67.233953 273.11062,67.605337 C 273.11062,65.129458 274.55465,63.148743 277.70525,61.787006 C 274.55465,63.148743 273.11062,65.129458 273.11062,67.605337 C 274.42338,67.233953 275.73613,67.110161 276.9176,66.98637 C 277.44269,66.98637 278.09907,66.98637 278.4929,66.98637 z M 305.92936,118.97995 C 305.14171,116.00889 303.96025,113.03782 302.25367,109.94297 C 303.96025,113.03782 305.14171,116.00889 305.92936,118.97995 C 306.58574,123.68413 303.56642,128.01693 296.8727,131.73076 C 303.56642,128.01693 306.58574,123.68413 305.92936,118.97995 z M 295.42736,100.78219 C 292.01423,97.43975 287.94469,95.08766 283.35007,93.35454 C 279.41183,92.11659 275.47357,91.86901 271.27277,92.48798 C 275.47357,91.86901 279.41183,92.11659 283.35007,93.35454 C 287.94469,95.08766 292.01423,97.43975 295.42736,100.78219 z"
                 id="path3709"
                 style="fill:#e20909;fill-opacity:1;stroke:#000000;stroke-width:3;stroke-miterlimit:4;stroke-dasharray:none;stroke-opacity:1" />
              <path
                 sodipodi:nodetypes="ccccc"
                 d="M 285.58174,78.9944 C 285.97557,78.87061 286.3694,78.87061 286.8945,78.87061 L 296.63736,77.632673 C 293.22421,74.166443 289.78255,71.07158 285.05665,68.348107 C 274.30337,61.590119 268.73059,80.68153 285.58174,78.9944 z"
                 id="path3713"
                 style="fill:#e20909;fill-opacity:1;stroke:#000000;stroke-width:3;stroke-miterlimit:4;stroke-dasharray:none;stroke-opacity:1" />
              <path
                 d="M 256.17615,107.96226 L 257.35763,99.17287 C 254.20703,98.92528 250.66261,98.92528 246.98691,99.04908 C 246.85562,98.92528 246.85562,98.92528 246.85562,98.92528 C 246.72436,98.92528 246.72436,98.92528 246.72436,98.92528 L 246.72436,99.04908 L 246.72436,99.17287 L 251.1877,108.45743 L 253.02555,111.05711 L 253.02555,111.05711 L 256.17615,107.96226 z"
                 style="fill:#e20909;fill-opacity:1;stroke:#000000;stroke-width:3;stroke-miterlimit:4;stroke-dasharray:none;stroke-opacity:1"
                 id="path3715" />
              <path
                 sodipodi:nodetypes="cccccccccccccccccc"
                 d="M 252.86577,112.91403 L 257.22636,119.9703 C 265.3654,119.59892 273.50445,119.72271 281.90606,120.46548 C 286.8945,120.83686 290.70148,122.56998 293.19569,125.66483 C 296.34629,122.56998 296.21501,118.60857 293.06441,113.78059 C 292.01423,112.41885 290.83275,111.05711 289.38873,109.81917 C 283.87517,108.58124 278.36163,107.96226 272.97934,107.96226 C 267.72835,108.08605 262.2148,108.08605 256.17615,107.96226 L 253.02555,111.05711 L 253.02555,111.05711 L 251.1877,108.45743 C 243.70503,108.45743 236.61618,108.45743 229.92116,108.33364 C 225.72036,107.96226 221.65084,104.8674 217.71259,99.29666 C 215.87474,101.40117 215.21836,104.24843 215.74346,107.46708 C 217.58132,112.91403 221.12574,116.38027 226.37674,117.74201 C 233.33431,119.8465 240.55443,120.83686 248.29965,120.58927 C 248.5622,120.46548 248.82476,120.46548 249.0873,120.46548 L 252.86577,112.91403 z"
                 style="fill:#fcef3c;fill-opacity:1;stroke:#000000;stroke-width:3;stroke-miterlimit:4;stroke-dasharray:none;stroke-opacity:1"
                 id="path3717" />
              <path
                 d="M 257.22636,119.9703 L 252.2379,112.91403 L 249.0873,120.46548 L 248.0371,123.68413 C 252.89428,123.56034 257.22636,123.93172 260.77078,124.92207 L 257.22636,119.9703 z"
                 style="fill:#e20909;fill-opacity:1;stroke:#000000;stroke-width:3;stroke-miterlimit:4;stroke-dasharray:none;stroke-opacity:1"
                 id="path3719" />
              <path
                 d="M 160.08288,85.44666 C 159.9516,85.44666 159.82032,85.19906 159.68905,85.19906 C 155.35697,85.57045 151.41873,84.08492 147.8743,80.24729 C 145.90518,77.152443 144.59244,74.057593 143.67351,70.715141 C 143.41096,69.477195 143.14842,68.363052 143.01713,67.125107 C 144.85497,62.544721 144.32987,58.211929 141.70438,54.25051 C 138.42251,53.755334 136.58466,54.25051 135.66574,55.859829 C 135.53445,55.859829 135.53445,55.859829 135.53445,55.983631 C 137.24103,59.945039 136.97849,63.658875 135.00936,67.001316 L 135.00936,67.001316 C 132.51514,67.744085 130.54601,67.125107 128.83944,65.391985 C 128.83944,65.268194 128.83944,65.144403 128.70816,65.020612 C 126.60776,64.525425 125.03246,65.144403 124.24481,66.753722 C 122.27568,70.219965 121.35677,73.314823 121.48803,76.162083 C 122.40695,77.400033 123.45716,78.39038 124.76991,79.25694 C 126.47649,80.24729 128.18307,80.86627 130.28346,80.86627 C 130.67729,83.58975 129.23326,85.81803 125.82011,87.92254 C 125.68884,87.92254 125.68884,87.92254 125.68884,88.04633 C 130.41474,91.63636 136.05955,92.9981 142.75459,92.25534 C 136.05955,92.9981 130.41474,91.63636 125.68884,88.04633 C 125.68884,87.92254 125.68884,87.92254 125.82011,87.92254 C 124.24481,86.68459 121.88186,85.69424 118.86254,85.19906 C 115.18684,85.57045 112.16751,86.43701 109.93583,87.67496 C 108.75437,88.54152 108.22927,89.03669 108.22927,89.53187 C 108.098,89.90324 108.49182,90.15083 109.14819,90.39843 C 112.95516,90.15083 115.71194,91.0174 117.41851,93.1219 C 119.25636,97.5785 117.41851,101.41611 111.77368,104.26338 C 110.32966,106.73927 110.46093,108.96757 111.90497,110.70068 C 114.39919,112.18621 116.76214,112.92897 118.99382,112.68139 C 121.75058,109.83413 123.45716,106.98685 124.37609,104.13959 C 125.68884,107.35824 125.68884,110.2055 124.37609,112.80518 C 128.70816,114.5383 132.38385,114.16692 135.53445,111.44344 C 136.05955,111.07206 136.58466,110.45309 137.10976,109.83413 C 136.58466,110.45309 136.05955,111.07206 135.53445,111.44344 C 133.04023,114.16692 131.46494,117.13798 130.93984,120.23284 C 131.46494,120.10904 131.99004,120.10904 132.51514,120.10904 C 138.02868,119.49007 142.22948,120.72802 144.7237,123.32769 L 144.59244,123.94667 L 132.64642,123.82287 C 132.77769,127.78428 134.87808,130.63156 138.81634,132.48847 C 142.75459,134.22158 148.53068,135.08814 156.01335,134.96435 C 148.53068,135.08814 142.75459,134.22158 138.81634,132.48847 C 132.25259,137.81162 129.62709,144.00133 130.80857,150.93381 C 132.25259,148.82931 134.48426,147.46758 137.24103,147.09619 C 137.50359,146.9724 137.76613,146.9724 138.02868,146.9724 C 138.15996,146.8486 138.42251,146.8486 138.55378,146.8486 C 138.68505,146.8486 138.81634,146.8486 138.81634,146.8486 C 144.06734,146.35342 151.41873,148.21033 160.87053,152.29554 C 154.56933,155.76179 147.21793,155.5142 138.81634,151.80037 C 143.14842,159.47561 151.0249,162.32289 162.44582,160.58977 L 162.57711,160.96115 C 155.75081,162.94185 150.23726,166.28429 145.64263,171.11227 L 145.64263,171.23606 C 145.51135,171.35986 145.38008,171.48366 145.38008,171.48366 L 145.38008,171.60745 C 145.51135,171.48366 145.7739,171.48366 145.7739,171.48366 L 145.90518,171.48366 C 154.04423,169.00777 162.70838,168.88398 172.29145,170.86468 C 161.65818,172.22642 154.83188,174.20713 151.68128,177.0544 C 149.84343,178.66373 149.31833,180.52064 149.97471,182.74894 C 158.9014,179.53029 168.8783,180.89202 179.64284,186.71034 L 179.51157,186.95794 L 179.24901,187.5769 C 169.53467,186.58655 164.1524,187.8245 162.83965,191.29074 C 163.88986,191.29074 164.80878,191.41453 165.85898,191.53832 C 173.21038,192.65247 178.98647,195.00457 183.58109,198.4708 C 178.33009,200.5753 172.16017,199.58495 165.07133,195.74732 C 167.17172,200.5753 170.84742,204.28913 176.09842,206.51743 C 177.54246,204.7843 179.64284,203.79395 182.39962,203.54637 C 182.39962,203.42257 182.39962,203.42257 182.5309,203.54637 C 182.79345,203.42257 183.18727,203.42257 183.44982,203.42257 C 183.05599,203.67016 182.66217,204.04155 182.39962,204.41293 C 182.26834,204.53672 182.0058,204.66051 182.0058,204.66051 C 180.95559,205.65086 180.16795,206.76502 179.77412,207.75537 C 180.16795,207.87916 180.56176,208.00295 181.08687,208.12676 C 181.21814,208.25055 181.34942,208.25055 181.4807,208.25055 C 184.6313,208.86951 188.17573,209.2409 192.11397,209.2409 C 187.2568,209.73607 183.31855,210.60264 180.16795,211.96437 C 180.56176,212.21197 180.82432,212.58335 181.21814,212.95472 C 184.23747,215.6782 187.7819,215.92579 191.98269,213.32611 C 196.18349,210.85023 198.41517,207.2602 198.809,202.43222 C 195.00202,200.08013 191.72014,197.35665 188.70082,194.01421 C 188.56955,194.01421 188.56955,194.01421 188.56955,194.01421 C 186.33788,191.41453 184.23747,188.56726 182.39962,185.34861 C 181.87452,184.48205 181.21814,183.3679 180.82432,182.37755 C 187.91317,189.55762 193.42672,190.17659 197.23369,184.23446 C 200.51557,175.19748 208.91717,169.62675 222.43849,167.52224 L 222.43849,167.52224 C 212.33032,167.15085 205.63529,163.43703 202.09086,156.00938 C 201.30323,151.30519 203.92872,147.83896 209.44227,145.48686 C 209.83609,151.42898 212.98668,155.63799 219.41917,158.11387 C 219.81299,157.99008 220.33809,157.99008 220.86319,157.99008 L 220.20682,153.90487 C 217.84386,150.31484 215.21836,146.72481 212.72415,143.38237 C 202.48469,129.26982 191.19504,115.28107 178.98647,101.5399 C 173.6042,95.47399 167.30299,90.15083 160.08288,85.44666 z"
                 id="path3725"
                 style="fill:#e20909;fill-opacity:1;stroke:#000000;stroke-width:3;stroke-miterlimit:4;stroke-dasharray:none;stroke-opacity:1" />
              <path
                 d="M 175.57332,50.150344 C 175.96715,49.036201 176.22971,47.922058 176.36098,46.931695 C 176.62353,43.836848 175.57332,40.74199 173.34165,37.647132 C 173.21038,37.523341 173.21038,37.399538 173.21038,37.275747 C 168.09064,31.209834 162.70838,28.733943 156.93228,29.848097 C 152.86276,30.96224 150.63109,33.066746 149.97471,36.037802 C 155.35697,35.542626 159.16395,36.409186 161.5269,38.885077 C 163.6273,41.237166 164.1524,43.836848 162.83965,46.560321 C 162.97093,46.560321 163.10221,46.560321 163.36475,46.684112 C 164.41496,50.150344 166.90918,52.626235 170.84742,54.111763 C 173.6042,53.492795 175.1795,52.25485 175.57332,50.150344 z"
                 style="fill:#fcef3c;fill-opacity:1;stroke:#000000;stroke-width:3;stroke-miterlimit:4;stroke-dasharray:none;stroke-opacity:1"
                 id="path3721" />
              <path
                 d="M 176.36098,46.931695 C 176.22971,47.922058 175.96715,49.036201 175.57332,50.150344 C 175.1795,52.25485 173.6042,53.492795 170.84742,54.111763 C 166.90918,52.626235 164.41496,50.150344 163.36475,46.684112 C 163.10221,46.560321 162.97093,46.560321 162.83965,46.560321 C 159.29522,45.074782 156.801,45.446167 155.61954,47.798255 C 153.91296,51.264498 153.51913,55.473499 154.56933,60.42527 C 151.68128,65.624634 148.13686,68.348107 143.80479,68.471898 L 143.67351,68.471898 C 144.59244,71.814339 145.90518,74.909193 147.8743,78.00405 C 151.41873,81.84168 155.35697,83.32721 159.68905,82.95582 C 159.82032,82.95582 159.9516,83.2034 160.08288,83.2034 L 160.60798,82.33685 C 165.59642,75.775753 170.05978,68.719481 173.86675,61.539424 C 175.44205,58.444566 178.19883,55.59729 182.13707,52.997619 C 182.66217,50.893113 182.0058,48.664816 180.56176,46.684112 L 176.36098,46.931695 z"
                 id="path3723"
                 style="fill:#e20909;fill-opacity:1;stroke:#000000;stroke-width:3;stroke-miterlimit:4;stroke-dasharray:none;stroke-opacity:1" />
              <path
                 d="M 135.53445,53.740378 C 135.40318,53.616587 135.40318,53.492795 135.40318,53.369004 C 133.95916,49.77897 131.07111,47.674464 126.73903,46.807903 C 122.01315,46.931695 117.54979,48.16964 113.08643,50.769322 C 110.32966,52.997619 108.62309,55.844884 107.83544,59.434918 C 111.90497,57.330412 116.23704,56.34006 120.7004,56.587653 C 124.90118,57.94939 127.52669,60.053885 128.70816,62.777358 C 128.83944,62.90116 128.83944,63.024952 128.83944,63.148743 C 130.54601,64.881864 132.51514,65.500831 135.00936,64.758073 L 135.00936,64.758073 C 136.97849,61.415622 137.24103,57.701796 135.53445,53.740378 z"
                 style="fill:#fcef3c;fill-opacity:1;stroke:#000000;stroke-width:3;stroke-miterlimit:4;stroke-dasharray:none;stroke-opacity:1"
                 id="path3727" />
              <path
                 d="M 117.41851,90.87865 C 115.71194,88.77415 112.95516,87.90759 109.14819,88.15517 C 108.49182,87.90759 108.098,87.66 108.22927,87.28861 L 107.83544,87.7838 C 105.47249,87.7838 103.24082,88.52656 101.00914,90.0121 C 96.020687,94.09731 92.607551,98.4301 91.163511,103.13429 C 91.032241,106.22914 91.426071,108.58124 92.34499,110.19055 C 94.051569,113.03782 96.414517,114.52336 99.433844,114.77094 C 98.514915,109.81917 99.958933,105.48638 104.02847,101.89634 C 107.83544,100.03943 110.46093,100.16322 111.77368,102.02013 C 117.41851,99.17287 119.25636,95.33524 117.41851,90.87865 z"
                 style="fill:#fcef3c;fill-opacity:1;stroke:#000000;stroke-width:3;stroke-miterlimit:4;stroke-dasharray:none;stroke-opacity:1"
                 id="path3729" />
              <path
                 d="M 178.59264,220.49123 C 176.22971,218.8819 174.6544,216.90243 173.99803,214.17772 C 172.554,215.9096 171.63507,218.01534 171.24125,220.2424 C 170.71615,224.82279 173.73548,227.42371 180.43049,228.41406 C 176.7548,225.3192 176.22971,222.71953 178.59264,220.49123 z"
                 id="path3731"
                 style="fill:#e20909;fill-opacity:1;stroke:#000000;stroke-width:3;stroke-miterlimit:4;stroke-dasharray:none;stroke-opacity:1" />
              <path
                 d="M 110.98603,264.93335 C 111.37986,267.16166 110.85476,269.26617 109.54202,271.37066 C 106.39142,273.72152 102.45316,275.33085 97.858546,276.1974 C 96.020687,277.68292 95.626878,279.41729 96.677066,281.02538 C 100.22149,281.27296 102.97826,282.01574 105.34122,283.25367 L 110.72349,282.13953 L 105.34122,283.25367 C 105.99759,283.74885 106.78524,284.36782 107.44161,284.98678 C 110.06711,289.072 111.51114,292.41446 111.64241,295.26171 C 114.26791,295.26171 116.89342,294.76654 119.38765,293.65239 C 124.50736,290.80388 129.10199,287.95662 132.64642,284.61418 C 128.05178,282.63347 124.24481,279.29102 120.96294,274.71064 C 120.56911,271.24439 118.99382,267.77815 116.23704,264.31315 C 114.13664,263.32404 112.43006,263.57163 110.98603,264.93335 z"
                 id="path3733"
                 style="fill:#e20909;fill-opacity:1;stroke:#000000;stroke-width:3;stroke-miterlimit:4;stroke-dasharray:none;stroke-opacity:1" />
              <path
                 d="M 109.54202,271.37066 C 110.85476,269.26617 111.37986,267.16166 110.98603,264.93335 C 110.72349,264.18936 110.46093,263.32404 109.93583,262.45747 C 104.4223,260.97194 98.514915,260.60056 92.47627,261.71347 C 86.437626,262.70507 82.893199,265.6749 81.843,270.50411 C 80.792801,275.45587 81.843,278.42571 84.862317,279.54109 C 86.700165,274.71311 89.850762,272.23723 94.051569,272.23723 C 97.595996,272.7324 98.777475,274.09415 97.858546,276.19864 C 102.45316,275.33208 106.39142,273.72275 109.54202,271.37066 z"
                 style="fill:#fcef3c;fill-opacity:1;stroke:#000000;stroke-width:3;stroke-miterlimit:4;stroke-dasharray:none;stroke-opacity:1"
                 id="path3735" />
              <path
                 d="M 94.576668,298.85299 C 92.87009,298.4816 92.082451,297.86264 91.819891,296.87228 C 86.962726,297.49125 83.287029,299.96713 81.055351,304.29993 C 79.480052,309.2517 79.873871,313.46071 82.49938,317.05074 C 84.074667,321.13595 87.093995,323.85942 91.426071,325.09737 C 89.588223,321.50858 89.063124,317.79474 89.850762,313.7083 C 90.638422,310.86102 92.607551,309.62309 95.233048,309.74811 C 97.070897,309.50053 98.514915,309.12915 99.565125,308.63397 C 102.19062,307.51983 102.97826,305.41532 101.79679,302.32046 C 101.40297,300.58611 99.040014,299.47195 94.576668,298.85299 z"
                 style="fill:#fcef3c;fill-opacity:1;stroke:#000000;stroke-width:3;stroke-miterlimit:4;stroke-dasharray:none;stroke-opacity:1"
                 id="path3737" />
              <path
                 d="M 133.95916,344.16168 C 132.51514,341.31442 132.25259,337.97198 133.56533,334.38194 C 133.17152,330.9157 130.93984,328.43981 126.87032,327.20187 C 122.66951,326.83048 120.04402,327.94463 118.86254,330.9157 C 117.81234,334.62952 118.07489,337.97198 119.65019,341.06683 C 121.75058,346.14238 125.16374,349.48483 129.75836,351.46431 C 131.85877,352.33087 134.09043,352.57846 136.19083,352.08327 C 139.99781,351.21795 142.36076,349.98001 143.54223,348.24565 C 139.34143,348.1231 136.19083,346.88515 133.95916,344.16168 z"
                 style="fill:#fcef3c;fill-opacity:1;stroke:#000000;stroke-width:3;stroke-miterlimit:4;stroke-dasharray:none;stroke-opacity:1"
                 id="path3739" />
              <path
                 d="M 188.56955,367.93018 C 187.65063,372.75692 187.91317,376.59578 189.48848,379.19545 C 190.01358,380.06202 190.66994,380.68099 191.45759,381.29995 C 193.16417,382.5379 195.26457,383.15687 198.02134,383.28066 C 202.09086,383.28066 207.34186,382.29031 213.90561,380.06202 C 209.17971,383.77584 204.71636,386.25172 200.25302,387.36463 C 199.46537,387.48967 198.809,387.73725 198.15262,387.73725 C 194.08309,388.35622 190.27613,387.73725 186.60042,386.25172 C 184.76257,385.50772 182.92472,384.39481 181.21814,383.28066 C 180.69305,382.78673 180.16795,382.16775 179.3803,381.79514 C 179.77412,382.41411 180.16795,383.03308 180.43049,383.65205 C 185.81277,393.55558 191.98269,396.77547 199.07155,393.43179 C 199.07155,393.308 199.07155,393.308 199.07155,393.1842 C 199.85919,392.81283 200.51557,392.44144 201.17193,392.19385 C 201.4345,392.07004 201.69703,391.94625 202.09086,391.82246 C 205.63529,390.21313 209.44227,389.71797 212.98668,390.21313 C 209.44227,389.71797 205.63529,390.21313 202.09086,391.82246 C 201.69703,391.94625 201.4345,392.07004 201.17193,392.19385 C 200.51557,392.44144 199.85919,392.81283 199.07155,393.1842 C 199.07155,393.30923 199.07155,393.30923 199.07155,393.43179 C 196.57732,400.98323 189.09465,405.81121 176.7548,407.91572 C 189.61975,412.49611 199.20282,409.89642 205.63529,400.11668 L 206.16039,400.48806 C 205.50401,403.58292 204.58509,406.55274 203.27234,409.27746 C 199.72792,417.0765 193.55799,423.51379 185.1564,428.83694 C 191.72014,429.82854 197.36497,429.08453 201.69703,426.73367 C 206.29167,424.25779 209.83609,419.925 211.9365,413.85908 C 211.67394,421.53432 209.17971,427.72403 204.58509,432.55201 C 205.63529,434.16258 206.81676,435.7719 208.26079,437.1324 C 209.70482,438.49537 211.28012,439.73332 212.85542,440.84623 C 216.39984,443.19832 220.46936,444.93144 225.19526,446.29317 C 219.28788,446.66456 214.95581,446.29317 212.46158,444.68385 C 211.80521,444.31122 211.4114,443.93985 211.01757,443.69226 C 210.88629,443.69226 210.88629,443.69226 210.88629,443.69226 C 210.09865,443.19832 209.57354,442.82693 209.44227,442.7019 C 207.47314,441.95915 206.16039,441.58899 205.50401,441.34016 C 204.84764,441.21513 204.19126,441.09257 203.27234,441.09257 C 200.64685,440.96878 196.70859,441.46396 191.32632,442.57811 C 184.36875,445.42538 176.22971,447.28229 166.51536,448.02381 C 164.28367,447.90002 162.31455,447.40484 160.4767,446.53952 C 158.63885,445.67297 156.93228,444.43503 155.35697,442.8257 C 154.96314,437.50131 153.38786,431.55917 150.4998,425.24691 C 148.92451,424.13277 146.56155,423.76138 143.41096,424.00897 C 141.96694,423.76138 141.17928,424.13277 140.78546,425.3707 C 140.78546,425.49574 140.78546,425.49574 140.78546,425.6183 C 140.78546,425.6183 140.78546,425.6183 140.78546,425.74209 C 146.29901,433.66492 145.38008,437.25619 137.63486,436.63722 C 135.79701,436.76102 132.77769,437.25619 128.70816,438.24654 C 124.50736,440.22726 123.32589,442.45431 125.03246,444.93019 L 125.42628,445.30282 C 125.68884,445.54917 125.82011,445.92179 126.08266,446.29317 C 126.21393,446.41696 126.21393,446.41696 126.34521,446.54077 C 128.18307,448.89162 130.93984,450.74853 134.35299,452.1115 C 139.60398,453.84338 146.56155,454.3398 155.35697,453.34944 C 150.36853,456.93824 142.88586,457.80604 132.64642,455.70029 C 129.62709,454.70994 125.95138,453.10062 121.75058,450.74853 L 119.25636,452.97683 C 123.45716,457.30962 125.68884,461.51863 126.21393,465.60383 C 125.68884,468.45111 123.85099,470.92699 120.7004,473.15653 C 120.7004,473.40287 120.7004,473.5279 120.56911,473.65047 C 119.51892,476.12635 120.30657,477.98327 122.66951,479.09742 L 129.23326,478.97237 C 133.04023,476.86911 134.87808,474.0206 135.00936,470.43181 C 135.14063,474.0206 136.05955,476.00255 137.50359,476.49649 C 140.78546,477.11546 143.80479,476.74409 146.56155,475.87751 C 149.05578,474.7646 151.55001,474.63958 153.91296,475.25855 C 157.71993,473.40163 159.9516,471.29837 160.87053,468.5749 C 159.9516,471.29837 157.71993,473.40163 153.91296,475.25855 C 151.55001,474.63958 149.05578,474.7646 146.56155,475.87751 C 145.7739,476.12512 144.98627,476.62152 144.1986,477.11546 L 137.63486,482.31482 L 140.12909,485.28589 C 140.12909,485.28589 140.12909,485.28589 140.26036,485.28589 C 146.03645,486.77142 150.36853,489.49366 153.12531,493.4563 C 153.91296,495.18942 153.78169,496.42737 152.46893,497.17012 C 152.33765,497.29516 152.33765,497.29516 152.33765,497.29516 C 151.94384,499.02704 152.99403,500.0174 155.61954,500.51382 C 158.50757,501.62796 161.0018,501.87555 162.97093,500.63761 C 167.43427,497.91538 169.92849,494.07651 170.4536,489.24978 C 168.22192,486.02989 169.53467,481.94592 174.6544,476.87036 C 169.53467,481.94592 168.22192,486.02989 170.4536,489.24978 C 171.37253,490.61151 173.07909,492.9636 175.31078,496.30481 C 178.98647,490.24013 182.39962,486.27748 185.6815,484.54437 C 182.39962,488.87716 181.21814,493.20996 182.0058,497.54275 C 182.0058,497.54275 182.0058,497.54275 182.0058,497.66778 L 182.0058,497.54275 C 188.17573,491.47807 195.52711,488.13439 204.32253,487.39286 C 201.56576,494.82051 194.73947,499.7723 183.97492,502.49452 C 183.84365,502.49452 183.84365,502.49452 183.71237,502.61955 C 185.94405,508.19029 191.45759,510.0472 200.51557,508.31409 C 207.07932,505.96324 211.4114,502.00058 213.77434,496.67867 L 214.43071,496.80246 C 214.82453,493.46001 216.79366,490.61276 219.94426,488.26067 C 216.79366,490.61276 214.82453,493.46001 214.43071,496.80246 C 214.29943,497.29765 214.16816,497.66902 214.16816,498.1642 C 213.11796,510.66867 220.73192,516.60954 236.87873,516.2394 C 237.14128,516.2394 237.27255,516.2394 237.66638,516.2394 C 237.40383,516.11436 237.27255,516.11436 237.27255,516.11436 C 237.14128,515.86801 237.01001,515.86801 236.87873,515.86801 C 230.97136,513.2671 227.95203,508.81174 228.34586,502.74458 L 228.34586,502.497 C 228.21459,499.03076 230.44626,495.06934 235.17217,490.61276 C 240.16061,496.92625 242.91738,503.73494 243.57376,510.915 C 249.34985,502.74334 251.45025,493.58381 250.26878,483.43269 C 250.40005,483.80406 250.40005,484.05166 250.53132,484.29924 C 250.53132,484.5456 250.53132,484.67062 250.66261,484.91822 C 251.05643,486.40251 251.58153,488.01306 252.2379,489.49737 C 256.83253,499.77353 266.15305,504.97165 280.0682,504.84786 C 271.92915,499.7723 266.15305,492.9636 262.7399,484.5456 C 261.95225,483.80283 261.1646,482.81371 260.37695,481.82336 C 261.1646,482.81371 261.95225,483.80406 262.7399,484.5456 C 267.72835,489.62239 274.29209,492.22083 282.29987,492.59223 C 284.40027,492.46844 286.3694,492.09829 288.20725,491.47931 C 291.48912,490.11634 294.11461,487.88927 296.08374,484.79443 L 295.8225,484.54683 L 296.34629,483.92787 C 295.8225,484.30048 295.16482,484.67187 294.63972,484.91945 C 291.35785,486.77636 288.4698,487.64169 286.23811,487.39533 C 277.83652,486.28119 273.11062,481.20563 272.06042,472.54003 C 272.7168,465.60631 276.12994,459.78798 282.03732,455.0838 C 283.35007,453.97088 284.66282,452.97931 286.23811,452.11397 L 286.23811,451.86639 L 286.3694,451.74136 C 287.02577,446.66579 288.33852,441.09505 290.57019,435.02913 C 289.65127,436.51467 288.4698,438.00019 287.15705,439.36193 C 287.02577,439.48697 286.8945,439.73455 286.76322,439.85711 C 286.63194,440.1047 286.3694,440.22849 286.23811,440.47607 C 283.48134,442.95196 280.19948,445.18026 276.26123,447.03717 C 276.12994,447.16221 275.8674,447.16221 275.73613,447.16221 C 268.12218,449.26547 260.37695,448.89409 253.02555,446.29565 C 249.0873,444.06735 246.06798,440.59988 243.96758,435.77313 C 243.83631,435.27797 243.57376,434.90658 243.44248,434.41016 C 242.26101,430.57254 242.91738,426.23974 245.28033,421.5368 C 248.69347,417.94676 253.02555,415.59467 258.27656,414.60309 C 253.28811,419.3085 251.31898,424.13523 252.2379,428.96445 C 252.50046,429.95481 252.763,431.06896 253.28811,431.81172 C 254.60086,434.5352 256.83253,436.39211 260.1144,437.50625 C 263.00245,438.37282 266.4156,438.37282 270.09131,437.50625 C 274.29209,436.51591 277.31142,435.03037 279.41183,433.29848 C 281.51223,431.44157 282.43114,429.21329 282.29987,426.61359 C 282.43114,421.78686 282.69369,415.7197 283.2188,408.66343 C 284.13772,401.73095 286.50067,394.67468 290.43892,387.74345 C 294.37717,381.67753 299.89071,375.61038 307.37338,369.54569 C 307.76721,369.17431 307.89718,368.92672 308.16104,368.67913 C 310.39271,366.20325 311.70541,363.35597 312.09927,360.38492 C 312.49312,357.16626 311.70541,353.70127 309.86761,349.8624 C 309.47379,347.13894 309.34383,344.4167 309.34383,341.81578 L 308.4249,339.83508 C 292.01553,340.94799 278.49421,346.02478 267.86094,354.93797 C 263.26631,354.4428 258.80297,354.07141 254.20835,353.82383 C 245.67547,353.82383 238.06152,355.80453 231.76033,359.76595 C 224.93403,367.31864 219.02665,372.02158 213.77566,373.87849 C 213.25056,374.00228 212.85673,374.24987 212.33163,374.37244 C 207.737,375.61038 203.66748,374.62002 200.38561,371.6502 C 196.70991,368.4303 197.89139,363.97494 204.19258,358.4042 C 195.52711,358.15043 190.40739,361.36908 188.56955,367.93018 z"
                 id="path3741"
                 style="fill:#e20909;fill-opacity:1;stroke:#000000;stroke-width:3;stroke-miterlimit:4;stroke-dasharray:none;stroke-opacity:1" />
              <path
                 d="M 338.6168,224.70023 C 340.06082,222.22434 341.76739,219.87225 343.73654,217.64397 C 341.24238,217.39637 338.74683,216.9012 336.51637,216.15843 L 334.15211,216.52981 C 330.87025,219.99729 326.14436,222.47318 319.71191,223.83367 C 316.95516,227.05232 316.6926,230.14718 319.18814,233.24204 C 323.6502,237.94746 328.63991,240.6697 334.67863,241.66128 C 334.80991,236.0893 335.99136,230.39477 338.6168,224.70023 z"
                 id="path3743"
                 style="fill:#e20909;fill-opacity:1;stroke:#000000;stroke-width:3;stroke-miterlimit:4;stroke-dasharray:none;stroke-opacity:1" />
              <path
                 d="M 296.21501,316.67937 C 294.63972,317.29833 293.58951,318.0411 292.40803,318.90765 C 290.43892,320.27062 289.12617,322.62148 288.4698,325.96393 C 300.022,326.21151 306.98087,330.66812 309.34251,339.4575 C 309.47379,339.5813 309.47379,339.5813 309.47379,339.82889 C 309.86761,335.61988 311.04909,331.90605 313.14954,328.31602 C 313.01825,328.19098 313.14954,328.06842 313.28209,328.06842 C 309.86761,322.62148 305.92936,318.53628 301.07351,315.56398 C 299.23434,315.81279 297.65904,316.18418 296.21501,316.67937 z"
                 id="path3747"
                 style="fill:#e20909;fill-opacity:1;stroke:#000000;stroke-width:3;stroke-miterlimit:4;stroke-dasharray:none;stroke-opacity:1" />
              <path
                 d="M 305.14171,528.36752 C 301.72857,529.11029 298.70924,530.47203 296.08374,532.57652 C 293.19569,535.1762 291.22657,538.02223 290.30895,541.24213 C 289.25876,545.32733 289.25876,549.28875 290.04641,553.00257 C 291.6217,557.33537 295.16613,560.3052 300.81095,562.03955 C 298.57928,558.57332 297.92291,554.85948 298.57928,550.4029 C 300.81095,545.69871 304.22411,542.48131 308.95,540.99453 C 309.08127,540.74694 309.21124,540.62315 309.34383,540.37556 C 310.26275,538.02347 310.52399,535.67139 309.86761,533.0717 C 308.94869,530.59582 307.37338,528.9865 305.14171,528.36752 z"
                 style="fill:#fcef3c;fill-opacity:1;stroke:#000000;stroke-width:3;stroke-miterlimit:4;stroke-dasharray:none;stroke-opacity:1"
                 id="path3749" />
              <path
                 d="M 335.20366,549.66013 C 332.97205,549.53509 330.60905,549.78393 328.37734,550.4029 C 327.06461,550.77427 326.01446,551.1469 324.70173,551.76587 C 324.30788,556.5926 324.83301,561.29679 326.53948,565.87718 C 327.98486,568.72444 329.95401,571.07654 332.44691,572.68586 C 336.77894,574.17139 340.06082,574.41897 342.42508,573.30483 C 345.18192,572.31448 347.15107,571.20033 348.5937,570.08618 C 344.65552,570.45756 341.63611,569.46721 339.40451,567.36271 C 336.64766,564.14406 336.38521,560.92541 338.4869,557.70676 L 340.58721,555.72481 L 341.5062,555.10583 C 339.92953,553.00257 337.9605,551.14566 335.20366,549.66013 z"
                 style="fill:#fcef3c;fill-opacity:1;stroke:#000000;stroke-width:3;stroke-miterlimit:4;stroke-dasharray:none;stroke-opacity:1"
                 id="path3751" />
              <path
                 d="M 386.53215,540.49935 C 385.08814,538.89003 383.51284,538.02347 381.93756,538.02347 C 379.44338,538.02347 376.9491,538.89003 374.71751,540.37556 C 372.35451,542.48006 371.43552,544.95595 372.09193,547.67818 C 374.45494,548.29715 375.89894,549.4113 376.42397,551.14566 C 377.21294,553.00257 377.47424,554.73446 376.81782,556.22122 C 375.37381,559.06849 372.61833,560.43023 368.28494,560.30644 C 369.20392,563.1537 372.09193,564.63923 376.81782,565.01062 C 383.64413,564.02027 387.05866,561.42183 387.31985,556.964 C 387.97628,551.64084 387.84499,546.19513 386.66343,540.74694 C 386.66343,540.62315 386.66343,540.62315 386.53215,540.49935 z"
                 style="fill:#fcef3c;fill-opacity:1;stroke:#000000;stroke-width:3;stroke-miterlimit:4;stroke-dasharray:none;stroke-opacity:1"
                 id="path3753" />
              <path
                 d="M 128.70816,438.2453 C 132.77769,437.25496 135.79701,436.75978 137.63486,436.63599 C 145.38008,437.25496 146.29901,433.66492 140.78546,425.74085 C 140.65419,425.61706 140.65419,425.61706 140.52291,425.49449 C 140.39163,425.49449 140.39163,425.24691 140.39163,425.24691 C 136.84721,422.52345 132.38385,421.2855 127.26413,421.65688 C 119.65019,422.27584 114.39919,424.13277 111.51114,426.98003 C 107.96672,430.32247 106.52269,433.66492 107.44161,437.0086 C 112.56134,433.41856 118.33744,431.68545 124.63863,431.68545 C 128.70816,433.54237 129.88963,435.89322 128.05178,438.49414 L 130.02092,437.75013 C 129.49582,437.87392 129.10199,438.12151 128.70816,438.2453 z"
                 style="fill:#fcef3c;fill-opacity:1;stroke:#000000;stroke-width:3;stroke-miterlimit:4;stroke-dasharray:none;stroke-opacity:1"
                 id="path3755" />
              <path
                 d="M 119.25636,452.97683 C 111.90497,455.08132 107.0478,459.41412 104.55357,465.60383 C 103.63464,471.05078 104.02847,475.75497 105.60377,479.71639 C 108.36055,484.04918 112.16751,486.15368 116.76214,486.27748 C 114.66174,483.92538 113.74282,480.95433 114.26791,477.11669 C 115.44939,474.64081 117.54979,473.40287 120.56911,473.65047 C 120.7004,473.52666 120.7004,473.40287 120.7004,473.15653 C 123.85099,470.92699 125.68884,468.45111 126.21393,465.60383 C 125.68884,461.51863 123.45716,457.30962 119.25636,452.97683 z"
                 style="fill:#fcef3c;fill-opacity:1;stroke:#000000;stroke-width:3;stroke-miterlimit:4;stroke-dasharray:none;stroke-opacity:1"
                 id="path3757" />
              <path
                 d="M 140.26036,485.28712 C 140.12909,485.28712 140.12909,485.28712 140.12909,485.28712 C 135.66574,490.36269 133.43405,496.05721 133.30278,502.49328 C 134.2217,511.77785 139.99781,515.1203 150.76236,512.39682 C 146.16772,509.67459 144.1986,505.71317 144.98627,500.63637 C 146.56155,497.54152 148.92451,496.30357 152.20638,497.29516 C 152.33765,497.29516 152.33765,497.29516 152.33765,497.29516 C 152.33765,497.17012 152.33765,497.17012 152.46893,497.17012 C 153.78169,496.42737 153.91296,495.18942 153.12531,493.4563 C 150.36853,489.49613 146.03645,486.77265 140.26036,485.28712 z"
                 style="fill:#fcef3c;fill-opacity:1;stroke:#000000;stroke-width:3;stroke-miterlimit:4;stroke-dasharray:none;stroke-opacity:1"
                 id="path3759" />
              <path
                 d="M 480.78765,177.90601 L 480.65637,178.2774 L 480.78765,177.90601 L 480.78765,177.90601 z"
                 id="path3761"
                 style="fill:#e20909;fill-opacity:1;stroke:#000000;stroke-width:3;stroke-miterlimit:4;stroke-dasharray:none;stroke-opacity:1" />
            </g>
          </g>
          <g
             transform="translate(-78.626335,-28.088767)"
             inkscape:label="Meubles"
             id="g6799"
             style="fill:#e20909;stroke:#000000;stroke-opacity:1" />
          <g
             transform="translate(-78.626335,-28.088767)"
             inkscape:label="Reflet final"
             id="g6801"
             style="fill:#e20909;stroke:#000000;stroke-opacity:1" />
          <g
             transform="translate(-78.626335,-28.088767)"
             inkscape:label="Contour final"
             id="g6803"
             style="fill:#e20909;stroke:#000000;stroke-opacity:1" />
        </g>
        <path
           d="M 400.94225,212.64039 L 401.08424,212.80453 L 400.94225,212.64039 L 400.94225,212.64039 z"
           id="path6895"
           style="fill:#e20909;fill-opacity:1;stroke:#000000;stroke-width:2;stroke-miterlimit:4;stroke-dasharray:none;stroke-opacity:1" />
      </g>
      <g
         transform="matrix(1.0773415,0.1680548,-0.1680548,1.0773415,-24.324762,73.074365)"
         id="g24749">
        <path
           style="fill:#ffd600;stroke:#000000;stroke-width:2;stroke-miterlimit:4;stroke-dasharray:none;stroke-opacity:1"
           id="path24569"
           d="M 318.99098,-96.050252 L 332.6786,-69.727908 L 350.5778,-93.944464 L 354.78937,-67.622121 L 380.05882,-87.627102 L 361.10673,-49.722927 C 361.10673,-47.396937 341.59734,-54.007117 318.33746,-54.007117 C 295.07757,-54.007117 276.87523,-47.396937 276.87523,-49.722927 L 257.92315,-87.627102 L 283.1926,-67.622121 L 287.40417,-93.944464 L 305.30336,-69.727908 L 318.99098,-96.050252 z"
           sodipodi:nodetypes="ccccccscccccc" />
        <path
           id="path24571"
           d="M 359.79969,-49.722924 C 359.79969,-52.048914 340.94382,-53.934504 317.68394,-53.934504 C 294.42405,-53.934504 275.56819,-52.048914 275.56819,-49.722924 M 360.85259,-51.828714 C 360.85259,-54.154704 341.52533,-56.040284 317.68394,-56.040284 C 293.84255,-56.040284 274.5153,-54.154704 274.5153,-51.828714 M 365.06416,-60.251864 C 365.06416,-63.740834 343.85132,-66.569224 317.68394,-66.569224 C 291.51656,-66.569224 270.30372,-63.740834 270.30372,-60.251864 M 366.11706,-62.357654 C 366.11706,-65.846624 344.43281,-68.675014 317.68394,-68.675014 C 290.93507,-68.675014 269.25083,-65.846624 269.25083,-62.357654"
           style="fill:none;stroke:#000000;stroke-width:2;stroke-miterlimit:4;stroke-dasharray:none;stroke-opacity:1" />
        <rect
           style="fill:#ffd600;stroke:#000000;stroke-width:2;stroke-miterlimit:4;stroke-dasharray:none;stroke-opacity:1"
           id="rect24573"
           rx="0.39850804"
           width="12.634725"
           height="6.3173623"
           y="-64.463478"
           x="312.67365"
           ry="0.39850804" />
        <path
           style="fill:#ffd600;stroke:#000000;stroke-width:2;stroke-miterlimit:4;stroke-dasharray:none;stroke-opacity:1"
           d="M 336.91124,-60.767782 C 336.6796,-56.745728 347.10325,-56.22981 347.5244,-59.988641 C 347.94091,-63.705882 337.1426,-64.785162 336.91124,-60.767782 z M 359.23258,-58.661995 C 358.42179,-56.536413 364.56397,-52.51059 366.20274,-56.019232 C 367.84525,-59.535897 360.01172,-60.704609 359.23258,-58.661995 z"
           id="stl" />
        <use
           style="fill:#ffd600;stroke:#000000;stroke-width:0.94976348;stroke-miterlimit:4;stroke-dasharray:none;stroke-opacity:1"
           id="use24576"
           transform="matrix(-1,0,0,1,637.98193,9.0923362e-6)"
           xlink:href="#stl"
           x="0"
           y="0"
           width="600"
           height="660" />
      </g>
    </g>
    <g
       id="g11974"
       transform="translate(-676.5083,-533.24219)">
      <g
         style="stroke:#000000;stroke-width:2;stroke-miterlimit:4;stroke-dasharray:none;stroke-opacity:1"
         transform="translate(181.90045,311.31222)"
         id="g11968">
        <path
           id="path11970"
           style="fill:#e20909;fill-opacity:1;fill-rule:evenodd;stroke:#000000;stroke-width:2;stroke-linecap:butt;stroke-linejoin:miter;stroke-miterlimit:4;stroke-dasharray:none;stroke-opacity:1"
           d="M 794.60787,660.33496 C 794.60787,660.33496 893.11287,623.26926 893.11287,529.07026 C 893.11287,434.87125 893.11287,443.7482 893.11287,443.7482 L 696.10287,443.7482 L 696.10287,529.07026 C 696.10287,623.26926 794.60787,660.33496 794.60787,660.33496 z"
           sodipodi:nodetypes="cccccc" />
      </g>
      <path
         id="path8926"
         d="M 877.9927,754.83718 L 877.9927,776.49343 L 1075.0239,776.49343 C 1075.0239,775.77319 1075.0239,754.82263 1075.0239,754.83718 L 877.9927,754.83718 z M 877.9927,798.21218 L 877.9927,819.86843 L 1075.0239,819.86843 C 1075.0239,806.66256 1075.0239,803.3477 1075.0239,798.21218 L 877.9927,798.21218 z M 878.02395,841.58718 C 878.12151,849.17686 878.87455,856.39433 880.14895,863.24343 L 1072.8677,863.24343 C 1074.1421,856.39433 1074.8951,849.17686 1074.9927,841.58718 L 878.02395,841.58718 z M 886.3052,884.96218 C 889.33194,892.76238 893.05174,899.97101 897.2427,906.61843 L 1055.7739,906.61843 C 1059.9649,899.97101 1063.6847,892.76238 1066.7114,884.96218 L 886.3052,884.96218 z M 914.08645,928.30593 C 922.17206,936.91247 930.7544,944.07336 938.89895,949.96218 L 1014.1177,949.96218 C 1022.2589,944.07486 1030.8483,936.90851 1038.9302,928.30593 L 914.08645,928.30593 z"
         style="fill:#fcef3c;fill-opacity:1;fill-rule:evenodd;stroke:#000000;stroke-width:2;stroke-linecap:butt;stroke-linejoin:miter;stroke-miterlimit:4;stroke-dasharray:none;stroke-opacity:1" />
    </g>
  </g>
  <g
     inkscape:groupmode="layer"
     id="layer2"
     inkscape:label="Reflet final"
     sodipodi:insensitive="true">
    <path
       sodipodi:nodetypes="cccccc"
       d="M 300.00001,658.5 C 300.00001,658.5 598.50001,546.17969 598.50001,260.72817 C 598.50001,-24.723334 598.50001,2.1764865 598.50001,2.1764865 L 1.5,2.1764865 L 1.5,260.72817 C 1.5,546.17969 300.00001,658.5 300.00001,658.5 z "
       style="opacity:1;fill:url(#radialGradient3163);fill-opacity:1;fill-rule:evenodd;stroke:none;stroke-width:1px;stroke-linecap:butt;stroke-linejoin:miter;stroke-opacity:1"
       id="path2875"
       inkscape:export-xdpi="144"
       inkscape:export-ydpi="144" />
  </g>
  <g
     inkscape:groupmode="layer"
     id="layer1"
     inkscape:label="Contour final"
     sodipodi:insensitive="true">
    <path
       sodipodi:nodetypes="cccccc"
       d="M 299.99999,658.50028 C 299.99999,658.50028 1.5,546.17992 1.5,260.72828 C 1.5,-24.723336 1.5,2.1764957 1.5,2.1764957 L 598.49999,2.1764957 L 598.49999,260.72828 C 598.49999,546.17992 299.99999,658.50028 299.99999,658.50028 z "
       style="opacity:1;fill:none;fill-opacity:1;fill-rule:evenodd;stroke:#000000;stroke-width:3.00000048;stroke-linecap:butt;stroke-linejoin:miter;stroke-miterlimit:4;stroke-dasharray:none;stroke-opacity:1"
       id="path1411"
       inkscape:export-xdpi="144"
       inkscape:export-ydpi="144" />
  </g>
</svg>
