<?xml version="1.0" encoding="UTF-8" standalone="no"?>
<!-- Created with Inkscape (http://www.inkscape.org/) -->
<svg
   xmlns:svg="http://www.w3.org/2000/svg"
   xmlns="http://www.w3.org/2000/svg"
   version="1.0"
   width="445.73999"
   height="547.789"
   viewBox="0 0 445.74 547.789"
   id="Ebene_1"
   xml:space="preserve"><defs
   id="defs1320" />
<path
   d="M 2.546,2.546 L 2.546,321.244 C 2.546,441.6 100.274,545.243 223.05,545.243 C 345.821,545.243 443.195,441.6 443.195,321.244 L 443.195,2.546 L 2.546,2.546 z "
   style="fill:#d6071c;stroke:#000000;stroke-width:5.09229994"
   id="Schildrand_1_" />
<text
   transform="translate(21.3293,45.8184)"
   style="font-size:12px;font-family:Myriad-Roman"
   id="text1367_1_">David Liuzzo 2006</text>

<text
   transform="translate(21.3293,31.418)"
   style="font-size:12px;font-family:Myriad-Roman"
   id="text1369_1_">Kleines Wappen von Bremen</text>

<path
   d="M 15.095,14.25 L 15.095,317.499 C 15.095,432.024 107.215,530.64 222.945,530.64 C 338.675,530.64 430.457,432.028 430.457,317.499 L 430.457,14.25 L 15.095,14.25 z "
   style="fill:#d6071c;stroke:#000000;stroke-width:4.24350023"
   id="Schildkörper_1_" />
<path
   d="M 346.71248,411.063 C 346.05848,410.625 346.338,411.03 346.012,410.751 C 350.996,403.193 344.198,393.581 335.393,395.636 C 336.413,391.153 331.225,388.589 327.602,390.449 L 326.313,391.515 C 314.048,374.14 318.048,335.825 329.596,317.084 L 330.286,317.347 C 333.847,319.534 338.274,316.45 337.761,312.394 C 347.166,315.626 354.008,305.06 348.568,297.288 L 348.426,296.836 C 355.564,293.204 358.237,292.844 363.007,289.334 C 373.114,281.896 372.946,270.678 365.517,263.055 C 355.147,252.417 337.393,258.717 333.096,273.961 C 332.913,274.598 332.642,276.904 331.479,277.209 L 329.721,276.421 C 322.613,272.583 314.273,278.936 315.44,286.768 C 311.368,285.487 308.203,289.886 309.564,293.555 L 310.134,295.073 C 286.778,307.999 256.431,305.444 234.36,290.971 L 235.031,289.925 C 237.275,285.86 233.663,281.864 229.571,281.593 C 231.8,273.528 224.008,266.547 216.217,267.316 C 216.393,264.804 214.913,262.309 212.755,260.861 C 210.172,258.847 205.16,261.751 205.16,261.751 L 50.201,107.146 L 31.594,123.787 L 183.674,282.191 C 182.791,283.795 182.386,284.527 182.386,284.527 C 180.676,288.667 184.144,292.003 188.027,292.585 L 187.567,297.459 C 188.238,304.135 195.167,308.094 201.38,307.288 C 200.39,311.633 204.709,314.986 208.787,313.809 L 209.892,313.42 C 224.633,333.956 227.205,362.777 216.851,385.492 L 215.913,384.959 C 212.335,382.632 207.882,385.527 207.992,389.626 C 198.575,387.059 191.705,397.704 197.411,405.412 C 191.251,408.786 186.359,409.879 181.871,413.65 C 162.897,429.588 187.458,453.112 204.957,440.806 C 209.693,437.474 212.611,429.868 214.581,424.906 L 217.144,426.201 C 224.123,429.888 231.885,422.447 230.481,415.257 C 234.661,416.534 237.812,411.981 236.311,408.268 L 236.345,406.2 C 258.539,396.929 286.469,398.666 306.647,411.747 L 306.298,412.373 C 304.171,416.106 307.255,420.683 311.545,419.825 C 309.143,430.081 320.493,434.809 328.108,429.177 C 331.884,440.977 345.684,456.619 359.414,446.807 C 372.678,437.326 368.02748,412.402 346.71248,411.063 z M 290.333,368.021 C 285.916,375.079 275.395,367.644 271.23,362.597 C 266.769,367.699 255.882,375.209 251.174,366.538 C 249.835,360.638 254.411,355.712 258.344,352.102 C 254.128,348.08 245.029,335.018 252.923,331.68 C 259.674,328.826 265.291,338.219 270.483,341.065 C 274.64,336.338 282.29,329.985 288.192,333.752 C 295.846,338.636 288.595,349.211 282.303,352.94 C 286.926,356.376 293.808,362.468 290.333,368.021 z "
   style="fill:#f3f2f2;stroke:#000000;stroke-width:3.5"
   id="Schlüsselkörper_1_" />
<path
   d="M 164.032,218.759 C 173.553,208.696 183.763,198.936 193.47,189.132 C 187.845,182.633 174.983,170.637 174.983,170.637 L 165.299,180.118 L 175.528,191.242 L 167.367,199.492 L 149.017,181.663 L 176.519,154.649 L 210.957,188.624 C 210.957,188.624 185.282,214.207 172.844,227.23 M 117.335,172.455 C 145.168,143.999 174.014,115.982 202.387,88.159 C 190.741,75.779 165.652,51.805 165.652,51.805 L 138.964,78.333 L 157.657,96.607 L 166.678,87.777 L 156.356,76.433 L 163.419,69.349 L 183.622,88.974 L 158.684,113.58 L 121.856,77.44 L 163.941,35.764 L 164.451,35.679 L 264.892,135.167 L 222.801,177.075 L 188.273,142.936 L 213.163,118.32 L 231.488,136.231 L 224.197,143.455 L 212.655,133.291 L 203.675,142.282 L 222.289,160.636 C 222.289,160.636 240.388,142.881 249.126,134.098 C 237.309,121.679 212.311,97.856 212.311,97.856 L 126.915,181.852 M 71.353,126.76 L 110.319,89.131 L 146.96,125.305 L 119.458,152.316 L 99.38,132.67 L 107.602,124.439 L 119.295,134.632 L 128.945,125.338 L 109.957,106.637 L 80.402,135.687"
   style="fill:#f3f2f2;stroke:#000000;stroke-width:2.75"
   id="path1355" />
<path
   d="M 325.341,311.585 C 308.816,336.82 306.277,370.856 320.869,397.397 M 229.622,295.65 C 255,312.72 288.327,314.517 315.526,300.249 M 221.482,391.271 C 234.32,365.007 232.468,332.842 215.399,308.782 M 311.37,407.229 C 287.686,391.16 255.98,388.067 230.268,401.145"
   style="fill:none;stroke:#000000;stroke-width:2.5;stroke-linecap:round"
   id="path1357" />
<path
   d="M 216.083,385.723 L 236.443,408.541 M 306.043,413.559 L 328.446,389.794 M 214.299,424.252 L 197.409,405.41 M 207.992,389.626 L 230.48,415.257 M 349.357,298.531 L 331.681,277.517 M 315.436,286.762 L 337.757,312.395 M 311.545,419.824 L 335.392,395.636 M 327.37,429.396 L 346.203,410.229 M 201.375,307.286 L 229.564,281.591 M 188.327,292.381 L 216.215,267.313 M 330.125,316.854 L 309.869,293.5 M 208.772,313.548 L 234.405,289.79 M 183.272,283.154 L 205.576,261.573"
   style="fill:none;stroke:#000000;stroke-width:3;stroke-linecap:round"
   id="Kreuzpunkte_1_" />
<g
   id="g1315">
	<path
   d="M 306.259,389.291 C 304.468,388.393 302.73,387.582 301.039,386.852 C 299.348,386.122 297.703,385.466 296.101,384.877 C 294.497,384.287 292.935,383.765 291.406,383.296 C 289.876,382.827 288.38,382.416 286.91,382.052 C 285.441,381.689 283.999,381.371 282.577,381.098 C 281.154,380.826 279.752,380.596 278.362,380.404 C 276.971,380.212 275.596,380.059 274.226,379.941 C 272.855,379.824 271.489,379.744 270.123,379.697 C 268.758,379.651 267.39,379.64 266.015,379.665 C 264.639,379.69 263.255,379.752 261.857,379.851 C 260.458,379.951 259.044,380.087 257.607,380.266 C 256.169,380.444 254.71,380.663 253.22,380.929 C 251.73,381.195 250.209,381.506 248.652,381.872 C 247.095,382.238 245.503,382.659 243.863,383.141 C 242.224,383.622 240.541,384.166 238.804,384.785 C 237.067,385.404 235.28,386.095 233.432,386.873 C 234.336,385.094 235.149,383.368 235.885,381.689 C 236.62,380.009 237.281,378.378 237.873,376.786 C 238.466,375.194 238.993,373.641 239.464,372.122 C 239.936,370.603 240.35,369.119 240.716,367.66 C 241.082,366.202 241.399,364.769 241.673,363.357 C 241.948,361.944 242.18,360.55 242.371,359.17 C 242.563,357.789 242.717,356.422 242.833,355.061 C 242.949,353.699 243.03,352.34 243.074,350.983 C 243.118,349.625 243.127,348.265 243.099,346.898 C 243.072,345.532 243.01,344.158 242.91,342.767 C 242.808,341.377 242.669,339.971 242.489,338.543 C 242.308,337.114 242.089,335.664 241.821,334.185 C 241.553,332.706 241.238,331.196 240.869,329.65 C 240.5,328.104 240.078,326.521 239.593,324.893 C 239.107,323.266 238.561,321.594 237.939,319.87 C 237.316,318.145 236.619,316.369 235.836,314.534 C 237.629,315.432 239.367,316.242 241.059,316.972 C 242.751,317.702 244.397,318.358 246,318.947 C 247.604,319.537 249.167,320.06 250.696,320.529 C 252.226,320.998 253.721,321.411 255.191,321.775 C 256.66,322.138 258.101,322.454 259.523,322.727 C 260.946,322.999 262.347,323.228 263.736,323.42 C 265.126,323.612 266.501,323.768 267.87,323.886 C 269.24,324.003 270.604,324.082 271.969,324.129 C 273.333,324.175 274.701,324.185 276.075,324.159 C 277.45,324.135 278.832,324.072 280.23,323.973 C 281.629,323.874 283.043,323.738 284.481,323.559 C 285.919,323.381 287.378,323.162 288.869,322.896 C 290.36,322.63 291.878,322.318 293.436,321.953 C 294.994,321.587 296.589,321.167 298.229,320.685 C 299.868,320.204 301.551,319.659 303.288,319.04 C 305.025,318.421 306.813,317.731 308.661,316.953 C 307.757,318.732 306.945,320.457 306.209,322.136 C 305.474,323.816 304.813,325.447 304.22,327.039 C 303.627,328.631 303.101,330.184 302.63,331.703 C 302.158,333.222 301.745,334.705 301.379,336.164 C 301.013,337.622 300.694,339.054 300.42,340.466 C 300.145,341.879 299.914,343.273 299.723,344.653 C 299.531,346.034 299.377,347.401 299.261,348.762 C 299.145,350.124 299.064,351.483 299.02,352.84 C 298.976,354.198 298.967,355.558 298.995,356.925 C 299.022,358.291 299.084,359.666 299.184,361.057 C 299.286,362.447 299.424,363.853 299.604,365.281 C 299.785,366.71 300.007,368.161 300.276,369.64 C 300.545,371.119 300.858,372.628 301.227,374.174 C 301.596,375.72 302.02,377.304 302.505,378.932 C 302.991,380.559 303.538,382.233 304.159,383.956 C 304.781,385.681 305.477,387.456 306.259,389.291 z "
   style="fill:none;stroke:#000000;stroke-width:3;stroke-linecap:round"
   id="path1317" />
</g>
</svg>