<?xml version="1.0" encoding="utf-8"?>
<!-- Generator: Adobe Illustrator 16.0.3, SVG Export Plug-In . SVG Version: 6.00 Build 0)  -->
<!DOCTYPE svg PUBLIC "-//W3C//DTD SVG 1.1//EN" "http://www.w3.org/Graphics/SVG/1.1/DTD/svg11.dtd">
<svg version="1.1" id="Layer_1" xmlns="http://www.w3.org/2000/svg" xmlns:xlink="http://www.w3.org/1999/xlink" x="0px" y="0px"
	 width="1664px" height="2250px" viewBox="0 0 1664 2250" enable-background="new 0 0 1664 2250" xml:space="preserve">
<path fill-rule="evenodd" clip-rule="evenodd" fill="#FE0405" d="M1564.674,1411.987c0,405.405-654.133,706.55-701.674,727.899V2194
	h-62v-53.903c-42.967-19.551-692.676-321.877-692.676-726.21c0-240.511,88.349-324.979,88.349-518.699
	c0-110.156-81.227-250.325-81.227-250.325s357.418-140.601,717.729-532.477c375.973,391.876,724.377,532.477,724.377,532.477
	s-81.227,140.604-81.227,251.275C1474.426,1085.723,1564.674,1169.782,1564.674,1411.987L1564.674,1411.987z"/>
<path fill-rule="evenodd" clip-rule="evenodd" fill="#FFFFFF" d="M831.968,426.999c0,0,18.452,0.447,43.54,12.277
	c64.945,30.625,181.49,85.583,181.49,85.583c0.002,0,0,139.442,0,204.142c0,30.787-23.998,32.268-23.998,32.268
	c0,28.275,0,101.597,0,173.203c0,66.51,0,157.566,0,157.566s-0.004,12.318-12.5,11.903c-9.959-0.142-12.309,2.451-21.078-7.344
	c-23.775-26.534-105.906-118.205-145.602-162.511v-75.241c0,0-10.957-9.131-21.911-9.131c-10.957,0-21.91,9.131-21.91,9.131v75.44
	c-39.686,44.297-121.366,135.465-145.282,162.16c-8.86,10.11-11.063,7.177-19.717,7.495c-11.478,0.689-13.001-13.539-13.001-13.539
	s0-90.467,0-155.463c0-71.754,0-145.333,0-173.67c0,0-24-1.378-24-31.769c0-64.271,0-203.671,0-203.671
	s118.404-56.078,183.439-86.881C816.059,427.285,831.968,426.999,831.968,426.999L831.968,426.999z M742,606.712
	c0,52.923,0,115.903,0,115.903h180.104c0,0,0-62.98,0-115.903c0-77.64-81.713-81.712-90.052-81.712
	C823.712,525,742,529.072,742,606.712L742,606.712z M832,1216.999c16.334-40.999,86.719-54,104-54c96.043,0,127.998,0,127.998,0
	L1229.002,1373c0,0-113.584,0-293.002,0c-77.799,0-86.4,47.999-104,47.999c-17.38,0-27.258-47.999-104-47.999
	c-179.289,0-292.001,0-292.001,0l163.5-210.001c0,0,31.968-0.999,128.501-0.999C745.071,1162,815.335,1175.688,832,1216.999
	L832,1216.999z"/>
<path fill-rule="evenodd" clip-rule="evenodd" fill="#030281" d="M1603.002,1427.001c0,431.259-703.24,750.608-740.002,766.999
	c0,0,0-402.452,0-679.111c0.498-72.955,77.932-76.451,77.932-76.451h98.916c0,0,79.434-1.002,105.41,0
	c25.977,0.998,80.859,15.957,107.408,59.96c17.482,28.983,9.99,77.453-2,88.944c-17.598,16.871-33.813-25.793-112.9-27.982
	c-47.945-1.326-72.428,6.852-84.93,15.268v25.71h146.877c0,0,0.305,42.825-27.977,59.96c-27.129,16.437-46.619,21.759-118.9,26.041
	v327.481C1249.949,1893.181,1527,1677.235,1527,1416.45c0-233.045-95.801-314.033-93.998-496.452
	C1433.002,768.515,1495,659,1495,659s-424.816-216.447-661.152-493C595.868,444.053,181,656,181,656s59.999,110.513,59.999,263
	c0,186.392-93.999,267.863-93.999,499.278c0,257.544,269.801,472.072,464,593.13v-325.351c-72.343-4.288-91.848-9.61-119-26.057
	c-28.308-17.148-28.002-60.003-28.002-60.003H611v-25.722c-12.512-8.423-37.017-16.604-85-15.277
	c-79.156,2.189-95.387,44.883-112.999,28.002c-12.003-11.501-19.501-60.003-2.002-89.003c26.572-44.032,81.5-58.997,107.502-59.999
	c25.999-0.998,105.5,0,105.5,0h99c0,0,77.498,3.5,78,76.5c0,408.779,0,679.501,0,679.501c-21.449-9.64-731-331.486-731-765
	c0-253.171,92.998-342.086,92.998-545.999c0-115.954-85.502-263.5-85.502-263.5S453.728,471.501,833.002,59
	c395.762,412.501,762.5,560.501,762.5,560.501S1510,767.504,1510,883.999C1508.002,1083.565,1603.002,1172.049,1603.002,1427.001
	L1603.002,1427.001z M979.4,1507.6c0-11.98-9.711-21.691-21.691-21.691h-1.08c-11.98,0-21.691,9.711-21.691,21.691v1.085
	c0,11.98,9.711,21.694,21.691,21.694h1.08c11.98,0,21.691-9.714,21.691-21.694V1507.6L979.4,1507.6z M684.499,1508.292
	c0,11.99,9.72,21.707,21.708,21.707h1.085c11.99,0,21.707-9.717,21.707-21.707v-1.085c0-11.987-9.717-21.707-21.707-21.707h-1.085
	c-11.987,0-21.708,9.72-21.708,21.707V1508.292L684.499,1508.292z"/>
</svg>
