<svg xmlns="http://www.w3.org/2000/svg" width="1000" height="600"><path fill="#fff" d="M0 0h1000v600H0z"/><path fill="#0047ab" d="M0 0h1000v200H0zM0 400h1000v200H0z"/><path style="line-height:100%;text-align:center" d="M164.427 320.366h4.762c2.424 0 4.124-.175 5.099-.525a4.62 4.62 0 0 0 2.324-1.8c1-1.5 1.712-3.55 2.137-6.151.425-2.626.638-6.814.638-12.565 0-5.601-.25-9.677-.75-12.227-.5-2.55-1.35-4.476-2.55-5.776-.625-.65-1.437-1.1-2.437-1.35-.975-.275-2.512-.413-4.611-.413h-4.612v40.807m-10.535 8.514v-57.76h17.284c3.524 0 6.323.3 8.398.9 2.1.6 3.824 1.575 5.174 2.926 2.024 1.975 3.45 4.476 4.274 7.501.85 3 1.275 7.676 1.275 14.027 0 8.202-.288 14.003-.863 17.404-.575 3.375-1.55 6.25-2.924 8.626-1.325 2.376-3.174 4.038-5.549 4.988-2.35.926-6.436 1.388-12.26 1.388h-14.809m45.14 0v-57.76h10.76v57.76h-10.76M229.401 300c0 9.502.55 15.49 1.65 17.966 1.124 2.45 3.186 3.675 6.186 3.675 2.949 0 4.961-1.2 6.036-3.6 1.1-2.426 1.65-8.44 1.65-18.04 0-9.603-.55-15.629-1.65-18.08-1.1-2.45-3.137-3.675-6.111-3.675-2.975 0-5.012 1.226-6.112 3.676-1.1 2.45-1.65 8.476-1.65 18.078m-10.984 0c0-6.126.287-11.014.862-14.665.575-3.676 1.475-6.439 2.7-8.289 1.674-2.625 3.674-4.5 5.998-5.626 2.325-1.125 5.386-1.688 9.186-1.688 3.799 0 6.86.563 9.185 1.688s4.337 3 6.036 5.626c1.225 1.9 2.112 4.676 2.662 8.327.575 3.65.863 8.526.863 14.627 0 6.076-.288 10.952-.863 14.628-.575 3.65-1.462 6.426-2.662 8.326-1.7 2.626-3.711 4.501-6.036 5.626-2.324 1.125-5.386 1.688-9.185 1.688-3.8 0-6.861-.563-9.186-1.688-2.324-1.125-4.324-3-5.999-5.626-1.224-1.85-2.124-4.6-2.699-8.251-.575-3.676-.862-8.577-.862-14.703m45.215 8.59h10.76v3.712c0 3.55.438 5.976 1.312 7.277.9 1.275 2.437 1.912 4.612 1.912 2.274 0 3.999-.575 5.174-1.725 1.2-1.15 1.8-2.85 1.8-5.1 0-1.726-.413-3.201-1.238-4.427-.825-1.25-2.612-2.85-5.361-4.8l-5.511-3.901c-4.75-3.3-7.774-6.026-9.074-8.177-1.274-2.15-1.912-4.85-1.912-8.101 0-4.85 1.438-8.651 4.312-11.402 2.874-2.75 6.836-4.126 11.885-4.126 5.349 0 9.448 1.463 12.297 4.389 2.85 2.925 4.274 7.126 4.274 12.602 0 .55-.013.975-.037 1.275 0 .3-.013.563-.037.788H286.69v-1.538c0-3.126-.513-5.364-1.538-6.714-1.024-1.35-2.712-2.025-5.061-2.025-1.725 0-3.087.512-4.087 1.538-.974 1-1.462 2.4-1.462 4.2 0 2.426 2.212 5.114 6.636 8.064.05.025.087.05.113.075l5.923 4.013c4.224 2.801 7.086 5.451 8.586 7.952 1.5 2.475 2.25 5.638 2.25 9.49 0 5.25-1.5 9.3-4.5 12.151-2.999 2.85-7.285 4.276-12.86 4.276-5.798 0-10.122-1.5-12.971-4.5-2.825-3.001-4.237-7.577-4.237-13.728 0-.65.05-1.726.15-3.226v-.225m62.424-37.469h10.76v38.932c0 4.45.538 7.476 1.612 9.076 1.1 1.576 3.037 2.363 5.812 2.363 2.749 0 4.649-.8 5.698-2.4 1.075-1.6 1.613-4.663 1.613-9.19V271.12h10.61v39.87c0 3.875-.225 6.713-.675 8.514-.425 1.775-1.15 3.338-2.175 4.688-1.55 2.025-3.599 3.55-6.148 4.576-2.55 1-5.574 1.5-9.073 1.5-6.599 0-11.26-1.425-13.985-4.276-2.7-2.875-4.049-7.876-4.049-15.002v-39.87m45.89 57.76v-57.76h11.06l15.035 40.395-.3-40.395h10.16v57.76h-10.985l-15.147-40.47.3 40.47h-10.123m45.74 0v-57.76h10.76v57.76h-10.76M448.055 300c0 9.502.55 15.49 1.65 17.966 1.124 2.45 3.186 3.675 6.186 3.675 2.949 0 4.961-1.2 6.036-3.6 1.1-2.426 1.65-8.44 1.65-18.04 0-9.603-.55-15.629-1.65-18.08-1.1-2.45-3.137-3.675-6.111-3.675-2.975 0-5.012 1.226-6.111 3.676-1.1 2.45-1.65 8.476-1.65 18.078m-10.985 0c0-6.126.287-11.014.862-14.665.575-3.676 1.475-6.439 2.7-8.289 1.674-2.625 3.674-4.5 5.998-5.626 2.325-1.125 5.387-1.688 9.186-1.688 3.799 0 6.86.563 9.185 1.688s4.337 3 6.036 5.626c1.225 1.9 2.112 4.676 2.662 8.327.575 3.65.863 8.526.863 14.627 0 6.076-.288 10.952-.863 14.628-.575 3.65-1.462 6.426-2.662 8.326-1.7 2.626-3.711 4.501-6.036 5.626-2.324 1.125-5.386 1.688-9.185 1.688-3.8 0-6.861-.563-9.186-1.688-2.324-1.125-4.324-3-5.999-5.626-1.224-1.85-2.124-4.6-2.699-8.251-.575-3.676-.862-8.577-.862-14.703m46.302 28.88v-57.76h11.06l15.035 40.395-.3-40.395h10.16v57.76h-10.985l-15.147-40.47.3 40.47h-10.123m64.936 0v-57.76h10.76v47.933h19.421v9.827h-30.18m37.491 0v-57.76h10.76v57.76H585.8m31.006-8.214h4.424c2.775 0 4.724-.675 5.849-2.025 1.125-1.375 1.687-3.75 1.687-7.126 0-3.501-.612-5.914-1.837-7.24-1.225-1.324-3.524-1.987-6.899-1.987h-3.224v18.378m0-26.104h3.6c2.699 0 4.56-.588 5.586-1.763 1.025-1.175 1.537-3.338 1.537-6.489 0-2.825-.525-4.75-1.575-5.776-1.025-1.05-2.974-1.575-5.848-1.575h-3.3v15.603m-10.46 34.318v-57.76h17.284c4.949 0 8.623 1.15 11.022 3.45 2.425 2.301 3.637 5.84 3.637 10.615 0 3.826-.6 6.789-1.8 8.89-1.174 2.1-2.949 3.362-5.323 3.787 2.699.375 4.799 1.726 6.298 4.05 1.525 2.301 2.287 5.352 2.287 9.153 0 6.126-1.287 10.626-3.861 13.502-2.55 2.875-6.536 4.313-11.96 4.313h-17.584m41.841 0v-57.76h29.656v9.602h-18.97v13.352h17.658v9.152h-17.659v15.902h19.421v9.752h-30.106m48.477-33.343h6.186c3.125 0 5.287-.625 6.486-1.876 1.225-1.25 1.837-3.488 1.837-6.713 0-2.876-.662-4.889-1.987-6.039-1.324-1.15-3.736-1.725-7.235-1.725h-5.287v16.353M686.28 328.88v-57.76h19.27c5.824 0 10.011 1.188 12.56 3.563 2.575 2.35 3.862 6.201 3.862 11.552 0 3.75-.687 6.714-2.062 8.89-1.375 2.15-3.4 3.412-6.074 3.787 5.1 1.35 7.761 5.664 7.986 12.94v.75l.3 7.652c.1 2.175.375 3.925.825 5.25a8.757 8.757 0 0 0 2.1 3.376h-12.748c-.3-.975-.525-2.113-.675-3.413-.15-1.325-.25-3.188-.3-5.588l-.15-6.039v-1.538c0-3.35-.712-5.65-2.137-6.9-1.424-1.251-4.324-1.876-8.698-1.876h-3.674v25.354H686.28m52.601 0v-48.233h-12.372v-9.527h35.505v9.527H749.64v48.233h-10.76m40.042-23.179h9.147l-4.611-24.23-4.536 24.23m-15.447 23.18l13.01-57.761h14.434l13.122 57.76h-11.585l-2.85-14.515h-12.372l-2.774 14.515h-10.985m56.763-8.514h4.761c2.424 0 4.124-.175 5.099-.525a4.62 4.62 0 0 0 2.325-1.8c1-1.5 1.712-3.55 2.136-6.151.425-2.626.638-6.814.638-12.565 0-5.601-.25-9.677-.75-12.227-.5-2.55-1.35-4.476-2.55-5.776-.624-.65-1.437-1.1-2.436-1.35-.975-.275-2.512-.413-4.612-.413h-4.611v40.807m-10.536 8.514v-57.76h17.284c3.524 0 6.324.3 8.398.9 2.1.6 3.824 1.575 5.174 2.926 2.025 1.975 3.45 4.476 4.274 7.501.85 3 1.275 7.676 1.275 14.027 0 8.202-.287 14.003-.862 17.404-.575 3.375-1.55 6.25-2.925 8.626-1.324 2.376-3.174 4.038-5.548 4.988-2.35.926-6.437 1.388-12.26 1.388h-14.81" font-weight="700" font-size="46.088" font-family="Swis721 Cn BT" text-anchor="middle" fill="#fc0"/></svg>