<svg xmlns:rdf="http://www.w3.org/1999/02/22-rdf-syntax-ns#" xmlns="http://www.w3.org/2000/svg" height="300" width="260" version="1.1" xmlns:cc="http://creativecommons.org/ns#" xmlns:xlink="http://www.w3.org/1999/xlink" xmlns:dc="http://purl.org/dc/elements/1.1/">
 <defs>
  <pattern id="Hatch-8" width="4" patternUnits="userSpaceOnUse" patternTransform="translate(70)" height="64">
   <g transform="translate(-64)">
    <rect height="65" width="4" y="0" x="64" fill="#fff"/>
    <rect y="0" width="2" height="65" x="67"/>
   </g>
  </pattern>
  <pattern id="HatchH-91" xlink:href="#Hatch-8" patternTransform="translate(0,2)rotate(90)"/>
  <pattern id="pattern7489-0" width="11.729427" patternUnits="userSpaceOnUse" patternTransform="translate(1.49 -16.738)" height="11.159601">
   <g transform="translate(-57.271 .15960)">
    <rect height="11" width="9" y="0" x="60" fill="#fff"/>
    <rect y="-.1596" x="59.244" height="5" width="1"/>
    <rect y="5" x="65" height="5" width="1"/>
    <rect transform="rotate(90)" height="5" width="1" y="-67.857" x="1.3953"/>
    <rect transform="rotate(90)" height="5" width="1" y="-62.271" x="7.1409"/>
   </g>
  </pattern>
  <pattern id="Hatch-3-0" width="4" patternUnits="userSpaceOnUse" patternTransform="translate(70)" height="64">
   <g transform="translate(-64)">
    <rect height="65" width="4" y="0" x="64" fill="#fff"/>
    <rect y="0" width="2" height="65" x="67"/>
   </g>
  </pattern>
  <pattern id="HatchV-9" xlink:href="#Hatch-3-0" patternTransform="translate(26)"/>
  <pattern id="XHatch-5" width="4" patternUnits="userSpaceOnUse" patternTransform="translate(70)" height="4">
   <g transform="translate(-64)">
    <rect y="0" width="5" height="5" x="64"/>
    <rect height="3" width="3" y="0" x="64" fill="#fff"/>
   </g>
  </pattern>
  <pattern id="XHatchD-3" xlink:href="#XHatch-5" patternTransform="translate(27,2)rotate(45)"/>
  <pattern id="Dotted-93" width="8" patternUnits="userSpaceOnUse" patternTransform="translate(60)" height="8">
   <g transform="translate(-60)">
    <rect height="9" width="9" y="0" x="60" fill="#fff"/>
    <rect y="5" width="1" height="1" x="61"/>
    <rect y="1" width="1" height="1" x="65"/>
   </g>
  </pattern>
  <pattern id="DottedT-6" xlink:href="#Dotted-93" patternTransform="translate(28,7)"/>
  <pattern id="DashDotHatch-6-9" width="8" patternUnits="userSpaceOnUse" patternTransform="translate(60)" height="10">
   <g transform="translate(-60)">
    <rect height="11" width="9" y="0" x="60" fill="#fff"/>
    <rect y="0" width="1" height="5" x="61"/>
    <rect y="7" width="1" height="1" x="61"/>
    <rect y="2" width="1" height="1" x="65"/>
    <rect y="5" width="1" height="5" x="65"/>
   </g>
  </pattern>
  <pattern id="DashDotHatchT-2-2" xlink:href="#DashDotHatch-6-9" patternTransform="translate(28,8)"/>
  <pattern id="Hatch-4-8" width="4" patternUnits="userSpaceOnUse" patternTransform="translate(70)" height="64">
   <g transform="translate(-64)">
    <rect height="65" width="4" y="0" x="64" fill="#fff"/>
    <rect y="0" width="2" height="65" x="67"/>
   </g>
  </pattern>
  <pattern id="HatchU-3" xlink:href="#Hatch-4-8" patternTransform="translate(57.5) rotate(45)"/>
  <pattern id="XHatch-7-1" width="4" patternUnits="userSpaceOnUse" patternTransform="translate(70)" height="4">
   <g transform="translate(-64)">
    <rect y="0" width="5" height="5" x="64"/>
    <rect height="3" width="3" y="0" x="64" fill="#fff"/>
   </g>
  </pattern>
  <pattern id="XHatchT-2" xlink:href="#XHatch-7-1" patternTransform="translate(30,2)"/>
  <pattern id="XHatch-6-6" width="4" patternUnits="userSpaceOnUse" patternTransform="translate(70)" height="4">
   <g transform="translate(-64)">
    <rect y="0" width="5" height="5" x="64"/>
    <rect height="3" width="3" y="0" x="64" fill="#fff"/>
   </g>
  </pattern>
  <pattern id="HatchHD-78" xlink:href="#XHatch-6-6" patternTransform="translate(3,2)skewX(45)"/>
  <pattern id="Hatch-32-6" width="4" patternUnits="userSpaceOnUse" patternTransform="translate(70)" height="64">
   <g transform="translate(-64)">
    <rect height="65" width="4" y="0" x="64" fill="#fff"/>
    <rect y="0" width="2" height="65" x="67"/>
   </g>
  </pattern>
  <pattern id="HatchD-0" xlink:href="#Hatch-32-6" patternTransform="translate(28,0.5)rotate(135)"/>
  <style type="text/css"/>
  <pattern id="HatchD-6" xlink:href="#Hatch-32-5" patternTransform="translate(28,0.5)rotate(135)"/>
  <pattern id="Hatch-32-5" width="4" patternUnits="userSpaceOnUse" patternTransform="translate(70)" height="64">
   <g transform="translate(-64)">
    <rect height="65" width="4" y="0" x="64" fill="#fff"/>
    <rect y="0" x="67" height="65" width="2"/>
   </g>
  </pattern>
  <pattern id="HatchHD-7" xlink:href="#XHatch-6-4" patternTransform="translate(3,2)skewX(45)"/>
  <pattern id="XHatch-6-4" width="4" patternUnits="userSpaceOnUse" patternTransform="translate(70)" height="4">
   <g transform="translate(-64)">
    <rect y="0" x="64" height="5" width="5"/>
    <rect height="3" width="3" y="0" x="64" fill="#fff"/>
   </g>
  </pattern>
  <pattern id="XHatchT-6" xlink:href="#XHatch-7-4" patternTransform="translate(30,2)"/>
  <pattern id="XHatch-7-4" width="4" patternUnits="userSpaceOnUse" patternTransform="translate(70)" height="4">
   <g transform="translate(-64)">
    <rect y="0" x="64" height="5" width="5"/>
    <rect height="3" width="3" y="0" x="64" fill="#fff"/>
   </g>
  </pattern>
  <pattern id="HatchU-4" xlink:href="#Hatch-4-6" patternTransform="translate(57.5) rotate(45)"/>
  <pattern id="Hatch-4-6" width="4" patternUnits="userSpaceOnUse" patternTransform="translate(70)" height="64">
   <g transform="translate(-64)">
    <rect height="65" width="4" y="0" x="64" fill="#fff"/>
    <rect y="0" x="67" height="65" width="2"/>
   </g>
  </pattern>
  <pattern id="DashDotHatchT-2-5" xlink:href="#DashDotHatch-6-3" patternTransform="translate(28,8)"/>
  <pattern id="DashDotHatch-6-3" width="8" patternUnits="userSpaceOnUse" patternTransform="translate(60)" height="10">
   <g transform="translate(-60)">
    <rect height="11" width="9" y="0" x="60" fill="#fff"/>
    <rect y="0" x="61" height="5" width="1"/>
    <rect y="7" x="61" height="1" width="1"/>
    <rect y="2" x="65" height="1" width="1"/>
    <rect y="5" x="65" height="5" width="1"/>
   </g>
  </pattern>
  <pattern id="DottedT-2" xlink:href="#Dotted-7" patternTransform="translate(28,7)"/>
  <pattern id="Dotted-7" width="8" patternUnits="userSpaceOnUse" patternTransform="translate(60)" height="8">
   <g transform="translate(-60)">
    <rect height="9" width="9" y="0" x="60" fill="#fff"/>
    <rect y="5" x="61" height="1" width="1"/>
    <rect y="1" x="65" height="1" width="1"/>
   </g>
  </pattern>
  <pattern id="XHatchD-4" xlink:href="#XHatch-3" patternTransform="translate(27,2)rotate(45)"/>
  <pattern id="XHatch-3" width="4" patternUnits="userSpaceOnUse" patternTransform="translate(70)" height="4">
   <g transform="translate(-64)">
    <rect y="0" x="64" height="5" width="5"/>
    <rect height="3" width="3" y="0" x="64" fill="#fff"/>
   </g>
  </pattern>
  <pattern id="HatchV-4" xlink:href="#Hatch-3-3" patternTransform="translate(26)"/>
  <pattern id="Hatch-3-3" width="4" patternUnits="userSpaceOnUse" patternTransform="translate(70)" height="64">
   <g transform="translate(-64)">
    <rect height="65" width="4" y="0" x="64" fill="#fff"/>
    <rect y="0" x="67" height="65" width="2"/>
   </g>
  </pattern>
  <pattern id="pattern7489-6" width="11.729427" patternUnits="userSpaceOnUse" patternTransform="translate(1.49 -16.738)" height="11.159601">
   <g transform="translate(-57.271 .15960)">
    <rect height="11" width="9" y="0" x="60" fill="#fff"/>
    <rect y="-.1596" width="1" height="5" x="59.244"/>
    <rect y="5" width="1" height="5" x="65"/>
    <rect transform="rotate(90)" height="5" width="1" y="-67.857" x="1.3953"/>
    <rect transform="rotate(90)" height="5" width="1" y="-62.271" x="7.1409"/>
   </g>
  </pattern>
  <pattern id="HatchH-9" xlink:href="#Hatch-0" patternTransform="translate(0,2)rotate(90)"/>
  <pattern id="Hatch-0" width="4" patternUnits="userSpaceOnUse" patternTransform="translate(70)" height="64">
   <g transform="translate(-64)">
    <rect height="65" width="4" y="0" x="64" fill="#fff"/>
    <rect y="0" x="67" height="65" width="2"/>
   </g>
  </pattern>
  <pattern id="HatchD" xlink:href="#Hatch-32" patternTransform="translate(28,0.5)rotate(135)"/>
  <pattern id="Hatch-32" width="4" patternUnits="userSpaceOnUse" patternTransform="translate(70)" height="64">
   <g transform="translate(-64)">
    <rect height="65" width="4" y="0" x="64" fill="#fff"/>
    <rect y="0" width="2" height="65" x="67"/>
   </g>
  </pattern>
  <pattern id="HatchHD" xlink:href="#XHatch-6" patternTransform="translate(3,2)skewX(45)"/>
  <pattern id="XHatch-6" width="4" patternUnits="userSpaceOnUse" patternTransform="translate(70)" height="4">
   <g transform="translate(-64)">
    <rect y="0" width="5" height="5" x="64"/>
    <rect height="3" width="3" y="0" x="64" fill="#fff"/>
   </g>
  </pattern>
  <pattern id="XHatchT" xlink:href="#XHatch-7" patternTransform="translate(30,2)"/>
  <pattern id="XHatch-7" width="4" patternUnits="userSpaceOnUse" patternTransform="translate(70)" height="4">
   <g transform="translate(-64)">
    <rect y="0" width="5" height="5" x="64"/>
    <rect height="3" width="3" y="0" x="64" fill="#fff"/>
   </g>
  </pattern>
  <pattern id="HatchU" xlink:href="#Hatch-4" patternTransform="translate(57.5) rotate(45)"/>
  <pattern id="Hatch-4" width="4" patternUnits="userSpaceOnUse" patternTransform="translate(70)" height="64">
   <g transform="translate(-64)">
    <rect height="65" width="4" y="0" x="64" fill="#fff"/>
    <rect y="0" width="2" height="65" x="67"/>
   </g>
  </pattern>
  <pattern id="DashDotHatchT-2" xlink:href="#DashDotHatch-6" patternTransform="translate(28,8)"/>
  <pattern id="DashDotHatch-6" width="8" patternUnits="userSpaceOnUse" patternTransform="translate(60)" height="10">
   <g transform="translate(-60)">
    <rect height="11" width="9" y="0" x="60" fill="#fff"/>
    <rect y="0" width="1" height="5" x="61"/>
    <rect y="7" width="1" height="1" x="61"/>
    <rect y="2" width="1" height="1" x="65"/>
    <rect y="5" width="1" height="5" x="65"/>
   </g>
  </pattern>
  <pattern id="DottedT" xlink:href="#Dotted" patternTransform="translate(28,7)"/>
  <pattern id="Dotted" width="8" patternUnits="userSpaceOnUse" patternTransform="translate(60)" height="8">
   <g transform="translate(-60)">
    <rect height="9" width="9" y="0" x="60" fill="#fff"/>
    <rect y="5" width="1" height="1" x="61"/>
    <rect y="1" width="1" height="1" x="65"/>
   </g>
  </pattern>
  <pattern id="XHatchD" xlink:href="#XHatch" patternTransform="translate(27,2)rotate(45)"/>
  <pattern id="XHatch" width="4" patternUnits="userSpaceOnUse" patternTransform="translate(70)" height="4">
   <g transform="translate(-64)">
    <rect y="0" width="5" height="5" x="64"/>
    <rect height="3" width="3" y="0" x="64" fill="#fff"/>
   </g>
  </pattern>
  <pattern id="HatchV" xlink:href="#Hatch-3" patternTransform="translate(26)"/>
  <pattern id="Hatch-3" width="4" patternUnits="userSpaceOnUse" patternTransform="translate(70)" height="64">
   <g transform="translate(-64)">
    <rect height="65" width="4" y="0" x="64" fill="#fff"/>
    <rect y="0" width="2" height="65" x="67"/>
   </g>
  </pattern>
  <pattern id="pattern7489" width="11.729427" patternUnits="userSpaceOnUse" patternTransform="translate(1.49 -16.738)" height="11.159601">
   <g transform="translate(-57.271 .15960)">
    <rect height="11" width="9" y="0" x="60" fill="#fff"/>
    <rect y="-.1596" x="59.244" height="5" width="1"/>
    <rect y="5" x="65" height="5" width="1"/>
    <rect transform="rotate(90)" height="5" width="1" y="-67.857" x="1.3953"/>
    <rect transform="rotate(90)" height="5" width="1" y="-62.271" x="7.1409"/>
   </g>
  </pattern>
  <pattern id="HatchH" xlink:href="#Hatch" patternTransform="translate(0,2)rotate(90)"/>
  <pattern id="Hatch" width="4" patternUnits="userSpaceOnUse" patternTransform="translate(70)" height="64">
   <g transform="translate(-64)">
    <rect height="65" width="4" y="0" x="64" fill="#fff"/>
    <rect y="0" width="2" height="65" x="67"/>
   </g>
  </pattern>
  <radialGradient id="radialGradient7531" gradientUnits="userSpaceOnUse" cy="31.7" cx="27" gradientTransform="matrix(1,0,0,1.1808,0,-5.7304)" r="26">
   <stop stop-color="#fff" offset="0"/>
   <stop stop-color="#e0e0e0" offset="1"/>
  </radialGradient>
  <radialGradient id="radialGradient7533" gradientUnits="userSpaceOnUse" cy="31.7" cx="27" gradientTransform="matrix(1,0,0,1.1808,0,-5.7304)" r="26">
   <stop stop-color="#ff0" offset="0"/>
   <stop stop-color="#ffe000" offset="1"/>
  </radialGradient>
 </defs>
 <path d="m6.5 6.5v162.33c0 68.85 55.293 124.67 123.5 124.67s123.5-55.815 123.5-124.67v-162.33h-247z" fill="#f5f5f5"/>
 <path stroke="#000000" d="m6.5 77.469v54h247v-54h-247zm1.0938 108c2.6252 19.87 9.8872 38.26 20.656 54.03h203.5c10.769-15.769 18.031-34.155 20.656-54.031h-244.81z" fill="#dd4538"/>
 <path stroke="#000000" stroke-width="3" d="m6.5 6.5v162.33c0 68.85 55.293 124.67 123.5 124.67s123.5-55.815 123.5-124.67v-162.33h-247z" fill="none"/>
 <use xlink:href="#Shield1" transform="translate(-16030 3485.7)" height="1" width="1" y="0" x="0" fill="url(#radialGradient7531)"/>
 <use xlink:href="#Shield1R" transform="translate(-16030 3485.7)" height="1" width="1" y="0" x="0" fill="#ffffff"/>
 <use xlink:href="#Shield1" transform="translate(-16030 3485.7)" height="1" width="1" stroke="#000000" y="0" x="0" fill="none"/>
 <use xlink:href="#Shield1-2" transform="translate(-16107 3380.9)" height="1" width="1" y="0" x="0" fill="#0000ff"/>
 <use xlink:href="#Shield1R-3" transform="translate(-16107 3380.9)" height="1" width="1" y="0" x="0" fill="url(#HatchH)"/>
 <use xlink:href="#Shield1-2" transform="translate(-16107 3380.9)" height="1" width="1" stroke="#000000" y="0" x="0" fill="none"/>
 <use xlink:href="#Shield1-8" transform="translate(-16107 3482.5)" height="1" width="1" y="0" x="0" fill="#808080"/>
 <use xlink:href="#Shield1-8" transform="translate(-16107 3482.5)" height="1" width="1" stroke="#000000" y="0" x="0" fill="none"/>
 <use xlink:href="#Shield1R-0" transform="translate(-16107 3482.6)" height="64" width="54" y="0" x="0" fill="#ffffff"/>
 <use xlink:href="#Shield1R-0" transform="translate(-16106 3482.4)" height="64" width="54" y="0" x="0" fill="url(#pattern7489)"/>
 <use xlink:href="#Shield1-88" transform="translate(-16107 3584.2)" height="1" width="1" y="0" x="0" fill="#ff0000"/>
 <use xlink:href="#Shield1R-7" transform="translate(-16107 3584.2)" height="1" width="1" y="0" x="0" fill="url(#HatchV)"/>
 <use xlink:href="#Shield1-88" transform="translate(-16107 3584.2)" height="1" width="1" stroke="#000000" y="0" x="0" fill="none"/>
 <use xlink:href="#Shield1-21" transform="translate(-16107 3685.9)" height="1" width="1" y="0" x="0" fill="#800040"/>
 <use xlink:href="#Shield1R-72" transform="translate(-16107 3685.9)" height="1" width="1" y="0" x="0" fill="url(#XHatchD)"/>
 <use xlink:href="#Shield1-21" transform="translate(-16107 3685.9)" height="1" width="1" stroke="#000000" y="0" x="0" fill="none"/>
 <use xlink:href="#Shield1-7" transform="translate(-16107 3787.5)" height="1" width="1" y="0" x="0" fill="url(#radialGradient7533)"/>
 <use xlink:href="#Shield1R-08" transform="translate(-16107 3787.5)" height="1" width="1" y="0" x="0" fill="url(#DottedT)"/>
 <use xlink:href="#Shield1-7" transform="translate(-16107 3787.5)" height="1" width="1" stroke="#000000" y="0" x="0" fill="none"/>
 <use xlink:href="#Shield1-3" transform="translate(-16028 3778.9)" height="1" width="1" y="0" x="0" fill="#ff8000"/>
 <use xlink:href="#Shield1R-6" transform="translate(-16028 3778.9)" height="1" width="1" y="0" x="0" fill="url(#DashDotHatchT-2)"/>
 <use xlink:href="#Shield1-3" transform="translate(-16028 3778.9)" height="1" width="1" stroke="#000000" y="0" x="0" fill="none"/>
 <use xlink:href="#Shield1-0" transform="translate(-16025 3681.2)" height="1" width="1" y="0" x="0" fill="#800080"/>
 <use xlink:href="#Shield1R-00" transform="translate(-16025 3681.2)" height="1" width="1" y="0" x="0" fill="url(#HatchU)"/>
 <use xlink:href="#Shield1-0" transform="translate(-16025 3681.2)" height="1" width="1" stroke="#000000" y="0" x="0" fill="none"/>
 <use xlink:href="#Shield1-09" transform="translate(-16198 3490.1)" height="1" width="1" y="0" x="0"/>
 <use xlink:href="#Shield1R-34" transform="translate(-16198 3490.1)" height="1" width="1" y="0" x="0" fill="url(#XHatchT)"/>
 <use xlink:href="#Shield1-09" transform="translate(-16198 3490.1)" height="1" width="1" stroke="#000000" y="0" x="0" fill="none"/>
 <use xlink:href="#Shield1-9" transform="translate(-16021 3583.3)" height="1" width="1" y="0" x="0" fill="#c00000"/>
 <use xlink:href="#Shield1R-2" transform="translate(-16021 3583.3)" height="1" width="1" y="0" x="0" fill="url(#HatchHD)"/>
 <use xlink:href="#Shield1-9" transform="translate(-16021 3583.3)" height="1" width="1" stroke="#000000" y="0" x="0" fill="none"/>
 <use xlink:href="#Shield1-1" transform="translate(-16097 3895.5)" height="1" width="1" y="0" x="0" fill="#00c000"/>
 <use xlink:href="#Shield1R-9" transform="translate(-16097 3895.5)" height="1" width="1" y="0" x="0" fill="url(#HatchD)"/>
 <use xlink:href="#Shield1-1" transform="translate(-16097 3895.5)" height="1" width="1" stroke="#000000" y="0" x="0" fill="none"/>
 <use xlink:href="#Shield1" transform="translate(-8755.6 2149.5)" height="1" width="1" y="0" x="0" fill="url(#radialGradient7531)"/>
 <use xlink:href="#Shield1R" transform="translate(-8755.6 2149.5)" height="1" width="1" y="0" x="0" fill="#ffffff"/>
 <use xlink:href="#Shield1" transform="translate(-8755.6 2149.5)" height="1" width="1" stroke="#000000" y="0" x="0" fill="none"/>
 <use xlink:href="#Shield1-2" transform="translate(-8833.4 2044.7)" height="1" width="1" y="0" x="0" fill="#0000ff"/>
 <use xlink:href="#Shield1R-3" transform="translate(-8833.4 2044.7)" height="1" width="1" y="0" x="0" fill="url(#HatchH-91)"/>
 <use xlink:href="#Shield1-2" transform="translate(-8833.4 2044.7)" height="1" width="1" stroke="#000000" y="0" x="0" fill="none"/>
 <use xlink:href="#Shield1-8" transform="translate(-8833.6 2146.3)" height="1" width="1" y="0" x="0" fill="#808080"/>
 <use xlink:href="#Shield1-8" transform="translate(-8833.6 2146.3)" height="1" width="1" stroke="#000000" y="0" x="0" fill="none"/>
 <use xlink:href="#Shield1R-0" transform="translate(-8833.4 2146.4)" height="64" width="54" y="0" x="0" fill="#ffffff"/>
 <use xlink:href="#Shield1R-0" transform="translate(-8832.8 2146.2)" height="64" width="54" y="0" x="0" fill="url(#pattern7489-0)"/>
 <use xlink:href="#Shield1-88" transform="translate(-8833.4 2248)" height="1" width="1" y="0" x="0" fill="#ff0000"/>
 <use xlink:href="#Shield1R-7" transform="translate(-8833.4 2248)" height="1" width="1" y="0" x="0" fill="url(#HatchV-9)"/>
 <use xlink:href="#Shield1-88" transform="translate(-8833.4 2248)" height="1" width="1" stroke="#000000" y="0" x="0" fill="none"/>
 <use xlink:href="#Shield1-21" transform="translate(-8833.4 2349.7)" height="1" width="1" y="0" x="0" fill="#800040"/>
 <use xlink:href="#Shield1R-72" transform="translate(-8833.4 2349.7)" height="1" width="1" y="0" x="0" fill="url(#XHatchD-3)"/>
 <use xlink:href="#Shield1-21" transform="translate(-8833.4 2349.7)" height="1" width="1" stroke="#000000" y="0" x="0" fill="none"/>
 <use xlink:href="#Shield1-7" transform="translate(-8833.4 2451.3)" height="1" width="1" y="0" x="0" fill="url(#radialGradient7533)"/>
 <use xlink:href="#Shield1R-08" transform="translate(-8833.4 2451.3)" height="1" width="1" y="0" x="0" fill="url(#DottedT-6)"/>
 <use xlink:href="#Shield1-7" transform="translate(-8833.4 2451.3)" height="1" width="1" stroke="#000000" y="0" x="0" fill="none"/>
 <use xlink:href="#Shield1-3" transform="translate(-8754.2 2442.7)" height="1" width="1" y="0" x="0" fill="#ff8000"/>
 <use xlink:href="#Shield1R-6" transform="translate(-8754.2 2442.7)" height="1" width="1" y="0" x="0" fill="url(#DashDotHatchT-2-2)"/>
 <use xlink:href="#Shield1-3" transform="translate(-8754.2 2442.7)" height="1" width="1" stroke="#000000" y="0" x="0" fill="none"/>
 <use xlink:href="#Shield1-0" transform="translate(-8751.4 2345)" height="1" width="1" y="0" x="0" fill="#800080"/>
 <use xlink:href="#Shield1R-00" transform="translate(-8751.4 2345)" height="1" width="1" y="0" x="0" fill="url(#HatchU-3)"/>
 <use xlink:href="#Shield1-0" transform="translate(-8751.4 2345)" height="1" width="1" stroke="#000000" y="0" x="0" fill="none"/>
 <use xlink:href="#Shield1-09" transform="translate(-8923.9 2153.9)" height="1" width="1" y="0" x="0"/>
 <use xlink:href="#Shield1R-34" transform="translate(-8923.9 2153.9)" height="1" width="1" y="0" x="0" fill="url(#XHatchT-2)"/>
 <use xlink:href="#Shield1-09" transform="translate(-8923.9 2153.9)" height="1" width="1" stroke="#000000" y="0" x="0" fill="none"/>
 <use xlink:href="#Shield1-9" transform="translate(-8747.1 2247.1)" height="1" width="1" y="0" x="0" fill="#c00000"/>
 <use xlink:href="#Shield1R-2" transform="translate(-8747.1 2247.1)" height="1" width="1" y="0" x="0" fill="url(#HatchHD-78)"/>
 <use xlink:href="#Shield1-9" transform="translate(-8747.1 2247.1)" height="1" width="1" stroke="#000000" y="0" x="0" fill="none"/>
 <use xlink:href="#Shield1-1" transform="translate(-8823.5 2559.3)" height="1" width="1" y="0" x="0" fill="#00c000"/>
 <use xlink:href="#Shield1R-9" transform="translate(-8823.5 2559.3)" height="1" width="1" y="0" x="0" fill="url(#HatchD-0)"/>
 <g fill="none">
  <use xlink:href="#Shield1-1" transform="translate(-8823.5 2559.3)" height="1" width="1" stroke="#000000" y="0" x="0"/>
  <text font-size="31.883px" stroke-width="0" transform="matrix(-.99188 .027453 -.017892 -1.0077 0 0)" y="-688.09485" x="-8787.6953" font-family="Georgia">
   <tspan rotate="187"/>
  </text>
  <text font-size="31.883px" stroke-width="0" transform="matrix(-.99188 .027453 -.017892 -1.0077 0 0)" y="-690.4278" x="-8834.3535" font-family="Georgia">
   <tspan rotate="537"/>
  </text>
 </g>
 <circle r="0" cy="243.71" cx="8665.9" stroke-width="0" fill="#191919"/>
 <circle cy="242.71" cx="8665.9" r="0" fill="#ffffff"/>
 <circle r="0" cy="240.71" cx="8803.7" stroke-width="0" fill="#191919"/>
 <circle cy="240.71" cx="8803.7" r="0" fill="#ffffff"/>
 <circle r="0" cy="363.53" cx="8733.8" stroke-width="0" fill="#191919"/>
 <circle cy="362.54" cx="8733.8" r="0" fill="#ffffff"/>
 <use xlink:href="#Shield1" transform="translate(-1018.9 1771.7)" height="1" width="1" y="0" x="0" fill="url(#radialGradient7531)"/>
 <use xlink:href="#Shield1R" transform="translate(-1018.9 1771.7)" height="1" width="1" y="0" x="0" fill="#ffffff"/>
 <use xlink:href="#Shield1" transform="translate(-1018.9 1771.7)" height="1" width="1" stroke="#000000" y="0" x="0" fill="none"/>
 <use xlink:href="#Shield1-2" transform="translate(-1096.7 1666.9)" height="1" width="1" y="0" x="0" fill="#0000ff"/>
 <use xlink:href="#Shield1R-3" transform="translate(-1096.7 1666.9)" height="1" width="1" y="0" x="0" fill="url(#HatchH-9)"/>
 <use xlink:href="#Shield1-2" transform="translate(-1096.7 1666.9)" height="1" width="1" stroke="#000000" y="0" x="0" fill="none"/>
 <use xlink:href="#Shield1-8" transform="translate(-1096.9 1768.5)" height="1" width="1" y="0" x="0" fill="#808080"/>
 <use xlink:href="#Shield1-8" transform="translate(-1096.9 1768.5)" height="1" width="1" stroke="#000000" y="0" x="0" fill="none"/>
 <use xlink:href="#Shield1R-0" transform="translate(-1096.7 1768.6)" height="64" width="54" y="0" x="0" fill="#ffffff"/>
 <use xlink:href="#Shield1R-0" transform="translate(-1096.1 1768.4)" height="64" width="54" y="0" x="0" fill="url(#pattern7489-6)"/>
 <use xlink:href="#Shield1-88" transform="translate(-1096.7 1870.2)" height="1" width="1" y="0" x="0" fill="#ff0000"/>
 <use xlink:href="#Shield1R-7" transform="translate(-1096.7 1870.2)" height="1" width="1" y="0" x="0" fill="url(#HatchV-4)"/>
 <use xlink:href="#Shield1-88" transform="translate(-1096.7 1870.2)" height="1" width="1" stroke="#000000" y="0" x="0" fill="none"/>
 <use xlink:href="#Shield1-21" transform="translate(-1096.7 1971.8)" height="1" width="1" y="0" x="0" fill="#800040"/>
 <use xlink:href="#Shield1R-72" transform="translate(-1096.7 1971.8)" height="1" width="1" y="0" x="0" fill="url(#XHatchD-4)"/>
 <use xlink:href="#Shield1-21" transform="translate(-1096.7 1971.8)" height="1" width="1" stroke="#000000" y="0" x="0" fill="none"/>
 <use xlink:href="#Shield1-7" transform="translate(-1096.7 2073.5)" height="1" width="1" y="0" x="0" fill="url(#radialGradient7533)"/>
 <use xlink:href="#Shield1R-08" transform="translate(-1096.7 2073.5)" height="1" width="1" y="0" x="0" fill="url(#DottedT-2)"/>
 <use xlink:href="#Shield1-7" transform="translate(-1096.7 2073.5)" height="1" width="1" stroke="#000000" y="0" x="0" fill="none"/>
 <use xlink:href="#Shield1-3" transform="translate(-1017.5 2064.9)" height="1" width="1" y="0" x="0" fill="#ff8000"/>
 <use xlink:href="#Shield1R-6" transform="translate(-1017.5 2064.9)" height="1" width="1" y="0" x="0" fill="url(#DashDotHatchT-2-5)"/>
 <use xlink:href="#Shield1-3" transform="translate(-1017.5 2064.9)" height="1" width="1" stroke="#000000" y="0" x="0" fill="none"/>
 <use xlink:href="#Shield1-0" transform="translate(-1014.7 1967.1)" height="1" width="1" y="0" x="0" fill="#800080"/>
 <use xlink:href="#Shield1R-00" transform="translate(-1014.7 1967.1)" height="1" width="1" y="0" x="0" fill="url(#HatchU-4)"/>
 <use xlink:href="#Shield1-0" transform="translate(-1014.7 1967.1)" height="1" width="1" stroke="#000000" y="0" x="0" fill="none"/>
 <use xlink:href="#Shield1-09" transform="translate(-1187.2 1776.1)" height="1" width="1" y="0" x="0"/>
 <use xlink:href="#Shield1R-34" transform="translate(-1187.2 1776.1)" height="1" width="1" y="0" x="0" fill="url(#XHatchT-6)"/>
 <use xlink:href="#Shield1-09" transform="translate(-1187.2 1776.1)" height="1" width="1" stroke="#000000" y="0" x="0" fill="none"/>
 <use xlink:href="#Shield1-9" transform="translate(-1010.4 1869.2)" height="1" width="1" y="0" x="0" fill="#c00000"/>
 <use xlink:href="#Shield1R-2" transform="translate(-1010.4 1869.2)" height="1" width="1" y="0" x="0" fill="url(#HatchHD-7)"/>
 <use xlink:href="#Shield1-9" transform="translate(-1010.4 1869.2)" height="1" width="1" stroke="#000000" y="0" x="0" fill="none"/>
 <use xlink:href="#Shield1-1" transform="translate(-1086.8 2181.5)" height="1" width="1" y="0" x="0" fill="#00c000"/>
 <use xlink:href="#Shield1R-9" transform="translate(-1086.8 2181.5)" height="1" width="1" y="0" x="0" fill="url(#HatchD-6)"/>
 <use xlink:href="#Shield1-1" transform="translate(-1086.8 2181.5)" height="1" width="1" stroke="#000000" y="0" x="0" fill="none"/>
 <g transform="matrix(.92374 0 0 .94295 -2276.2 -468.63)">
  <g transform="translate(-60.774,-125.21)"></g>
 </g>
 <g transform="matrix(.92374 0 0 .94295 -2476.9 -974.46)">
  <g transform="translate(-60.774,-125.21)"></g>
 </g>
 <g transform="matrix(.92374 0 0 .94295 -3980.1 -347.57)"></g>
 <g transform="matrix(.15565 0 0 .15888 -1917.4 161.43)"></g>
 <g transform="matrix(.92374 0 0 .94295 -2541.4 -770.04)"></g>
 <g transform="matrix(.92374 0 0 .94295 -2742.2 -1275.9)"></g>
 <path stroke-linejoin="round" d="m32.444 17.926c1.6719 2.5608 1.621 7.3918 2.3633 13.613l7.5822 6.9668 7.6068 3.5695-1.0339-8.3456-4.3081-9.3547c-5.687-2.629-10.291-4.069-12.21-6.45zm17.551 24.15 7.6068-3.5695 7.5822-6.9668c0.74228-6.2217 0.69144-11.053 2.3633-13.613-1.9188 2.3813-6.5225 3.8213-12.21 6.4498l-4.3081 9.3547-1.032 8.3456zm0 0 5.7359 6.1297 8.9852 5.0466c6.1465-1.2166 10.736-2.7435 13.687-1.9448-2.8577-1.089-5.6634-5.0284-9.9211-9.6257l-10.241-1.2062-8.2479 1.6007zm0 0-4.0619 7.3607-2.0186 10.093c3.0565 5.4698 5.9279 9.3531 6.0806 12.407 0.15262-3.0544 3.0241-6.9375 6.0806-12.407l-2.017-10.094-4.065-7.361zm0 0-8.2471-1.6001-10.241 1.2062c-4.2575 4.5971-7.0632 8.5362-9.9211 9.6257 2.9521-0.79871 7.5409 0.72814 13.687 1.9448l8.9884-5.0472 5.7349-6.1296z" stroke="#000000" stroke-linecap="round" fill="#009a3d"/>
 <path stroke="#000000" d="m56.447 14.725c-2.6667-0.04263-4.4542 1.5509-6.4498 1.5509s-3.7818-1.5706-6.4498-1.5263c-0.8893 0.01479-1.8805 0.195-3.0033 0.68929-4.4914 1.9772-4.1909 8.1494-1.797 9.9211 2.9724 2.1993 3.2836 4.6242 3.7665 6.4252-1.5636-1.0157-3.775-2.057-4.9481-5.5636-0.94476-2.824-6.7018-5.0392-9.9699-1.3786-3.2684 3.6606-1.3195 6.7256-2.1418 9.2562-0.61668 1.898-2.6642 3.111-3.4465 5.662-0.26076 0.85039-0.39392 1.8566-0.27079 3.0772 0.4925 4.8826 6.4627 6.5052 8.8868 4.7758 2.9855-2.1298 5.382-1.7022 7.2376-1.6001-1.4435 1.1733-3.1184 2.9468-6.7945 2.9787-2.9777 0.02585-6.8534 4.8443-4.3819 9.0837 2.4714 4.2395 5.9957 3.3103 8.1486 4.8743 1.6145 1.173 2.1482 3.4896 4.3327 5.022 0.72818 0.51078 1.6321 0.94618 2.8311 1.2062 4.7957 1.0404 8.1825-4.1268 7.2868-6.9668-1.112-3.5263 0.04601-5.6691 0.71391-7.4099 0.66791 1.7408 1.826 3.8835 0.71391 7.4099-0.89561 2.84 2.4911 8.0068 7.2868 6.9668 4.7957-1.0404 5.011-4.6643 7.1638-6.2282 1.6145-1.173 3.9728-0.95611 6.1052-2.5602 0.71079-0.53469 1.4254-1.2542 2.0433-2.3141 2.4714-4.2395-1.4042-9.0577-4.3819-9.0837-3.6761-0.03191-5.351-1.8055-6.7945-2.9787 1.8556-0.10206 4.252-0.52965 7.2376 1.6001 2.4242 1.7294 8.3944 0.1067 8.8868-4.7758 0.4925-4.8826-2.895-6.2087-3.7173-8.7394-0.61668-1.898 0.32505-4.0738-0.54159-6.5975-0.28888-0.84125-0.78307-1.7436-1.6001-2.6587-3.2684-3.6606-9.0254-1.4454-9.9699 1.3786-1.1731 3.5066-3.3845 4.5478-4.9481 5.5636 0.48286-1.8009 0.79406-4.226 3.7665-6.4252 2.3939-1.7712 2.6943-7.9438-1.797-9.9211-1.1229-0.4943-2.1144-0.6997-3.0033-0.71391z" fill="#dd4538"/>
 <path d="m59.622 21.571s-0.02647-0.3886-0.30678-0.92948c-0.14014-0.27046-0.34887-0.57543-0.64144-0.86244-0.29256-0.28704-0.66944-0.55564-1.1086-0.74121-0.9602-0.40464-2.2244-0.46067-3.2494 0.0035-0.73319 0.32847-1.4912 0.62342-2.2294 0.8218-0.73822 0.19839-1.4565 0.29802-2.0931 0.3019-0.000228 0.000001-0.000456 0.000002-0.000685 0.000004-0.6368-0.0039-1.3552-0.10346-2.0936-0.30188-0.73834-0.19841-1.4964-0.49342-2.2297-0.82187-1.0249-0.46422-2.2889-0.40843-3.2489-0.0036-0.439 0.18563-0.81565 0.45431-1.108 0.74141-0.29234 0.2871-0.50088 0.59211-0.64085 0.8626-0.27994 0.54092-0.30628 0.9294-0.30628 0.9294s-0.01623-0.3873 0.21659-0.97037c0.11642-0.29153 0.30108-0.62916 0.58044-0.96044 0.27936-0.33127 0.65413-0.65565 1.1167-0.89947 0.49759-0.26318 1.087-0.44843 1.7131-0.50433 0.62603-0.05591 1.2867 0.01854 1.9043 0.24597 0.74014 0.27062 1.4817 0.51238 2.1787 0.66991 0.69698 0.15754 1.3492 0.22872 1.9173 0.22488 0.000205 0.000002 0.000409 0.000003 0.000614 0.000004 0.56791 0.0038 1.2201-0.06742 1.9169-0.22496 0.69687-0.15754 1.4384-0.39925 2.1784-0.66988 0.61781-0.22737 1.2785-0.30173 1.9046-0.24577 0.6261 0.05595 1.2156 0.2412 1.7133 0.50429 0.46277 0.2437 0.83779 0.56801 1.1174 0.89923 0.27958 0.33122 0.46446 0.66884 0.58105 0.96036 0.23318 0.58308 0.21708 0.97052 0.21708 0.97052z"/>
 <path d="m33.468 26.583s-0.37763-0.095-0.97856 0.0041c-0.30048 0.04954-0.65501 0.15362-1.0184 0.34294-0.3634 0.18932-0.73533 0.46452-1.0476 0.82471-0.68162 0.78784-1.1253 1.9729-1.0005 3.0909 0.08583 0.79895 0.13216 1.6111 0.0927 2.3746-0.03947 0.76352-0.16673 1.4775-0.35985 2.0843v0.000001c-0.000008 0.000005-0.000008 0.00001-0.000008 0.000015-0.20042 0.60441-0.51716 1.2569-0.93405 1.8977-0.41688 0.6409-0.93169 1.2707-1.4708 1.8666-0.7582 0.83125-1.0958 2.0507-1.0074 3.0887 0.04088 0.47487 0.18003 0.91609 0.36273 1.2829 0.18271 0.36676 0.40835 0.65933 0.62232 0.87607 0.42794 0.4334 0.78926 0.57852 0.78926 0.57852s-0.37336-0.10424-0.8559-0.50585c-0.24128-0.20081-0.50533-0.48077-0.73405-0.84882-0.22874-0.36805-0.42143-0.82471-0.51033-1.3401-0.09653-0.55457-0.09058-1.1724 0.04971-1.7851 0.14028-0.61268 0.41524-1.218 0.82242-1.7351 0.48612-0.62032 0.94524-1.251 1.3104-1.8651 0.36522-0.61419 0.63448-1.2125 0.80636-1.7539v-0.000015c0.17917-0.539 0.31303-1.1813 0.37859-1.8928 0.06554-0.71155 0.06483-1.4916 0.03608-2.2792-0.02544-0.65777 0.10792-1.3091 0.35455-1.8872 0.24662-0.57812 0.60496-1.0814 1.009-1.4734 0.74964-0.7293 1.6668-0.99818 2.2933-1.0395 0.62648-0.04127 0.98982 0.09387 0.98982 0.09387z"/>
 <path d="m30.152 53.005s-0.20704 0.32979-0.29851 0.93192c-0.04569 0.30108-0.05633 0.67041 0.01142 1.0745 0.06775 0.40411 0.21456 0.84291 0.4606 1.251 0.26933 0.44586 0.64415 0.86867 1.0971 1.2059 0.45293 0.33723 0.98242 0.58736 1.5334 0.70077 0.78633 0.16525 1.573 0.37216 2.287 0.64562 0.71396 0.27346 1.3537 0.61513 1.8711 0.98628 0.000008 0.000008 0.000016 0.000016 0.000023 0.000016 0.5129 0.37738 1.0355 0.88025 1.5163 1.4748 0.48071 0.59452 0.92058 1.2788 1.3208 1.9756 0.27812 0.48897 0.67963 0.91522 1.1403 1.2418 0.46069 0.32656 0.97864 0.55238 1.486 0.67075 0.46425 0.10786 0.92688 0.11189 1.3322 0.05144 0.40526-0.06042 0.75324-0.1846 1.0254-0.32114 0.54443-0.27306 0.79406-0.57188 0.79406-0.57188s-0.2145 0.32288-0.74558 0.65771c-0.26554 0.16742-0.61339 0.33202-1.0341 0.43581-0.42071 0.1038-0.91459 0.14593-1.4322 0.07121-0.55726-0.07956-1.143-0.27615-1.6823-0.5989-0.53933-0.32274-1.03-0.77128-1.3961-1.3184-0.43974-0.65401-0.89758-1.2855-1.3689-1.8226-0.47127-0.53714-0.95713-0.97809-1.4189-1.3089-0.000008 0-0.000016-0.000008-0.000024-0.000008-0.45726-0.33696-1.0268-0.66275-1.6832-0.945-0.65648-0.28222-1.3986-0.52252-2.1564-0.73862-0.63342-0.17909-1.2117-0.50717-1.6853-0.92034-0.47361-0.41321-0.84157-0.90955-1.0895-1.4149-0.23098-0.46915-0.3435-0.95186-0.37479-1.3841-0.03127-0.43221 0.01772-0.81392 0.09494-1.1182 0.15435-0.60856 0.39514-0.91231 0.39514-0.91231z"/>
 <path d="m54.257 64.315s0.24967 0.29881 0.79406 0.57189c0.27222 0.13654 0.6202 0.26073 1.0255 0.32116 0.40526 0.06042 0.86796 0.0564 1.3322-0.05144 0.50726-0.11837 1.0252-0.3442 1.4859-0.67077 0.46068-0.32657 0.86221-0.75287 1.1403-1.2418 0.40015-0.69678 0.84007-1.381 1.3208-1.9756 0.48072-0.59451 1.0034-1.0974 1.5163-1.4747h0.000008c0.5174-0.37117 1.1571-0.71284 1.8711-0.98628 0.71397-0.27347 1.5007-0.48038 2.287-0.64562 0.55098-0.11341 1.0805-0.36354 1.5334-0.70076 0.45294-0.33723 0.82778-0.76007 1.0971-1.2059 0.24605-0.40821 0.39285-0.847 0.4606-1.2511 0.06775-0.40411 0.05719-0.77343 0.01142-1.0745-0.09148-0.60217-0.29852-0.93192-0.29852-0.93192s0.2408 0.30378 0.39514 0.91231c0.0772 0.30428 0.12623 0.68598 0.09494 1.1182-0.03128 0.43221-0.14382 0.91491-0.37479 1.3841-0.24787 0.50539-0.61584 1.0017-1.0895 1.4149-0.47361 0.4132-1.0518 0.74128-1.6853 0.92034-0.75789 0.21608-1.5 0.4564-2.1564 0.73862-0.65648 0.28222-1.226 0.60802-1.6833 0.945l-0.000008 0.000008c-0.46177 0.33075-0.9476 0.7717-1.4189 1.3088-0.47128 0.53713-0.92917 1.1686-1.3689 1.8226-0.36605 0.54709-0.85677 0.99565-1.3961 1.3184-0.53933 0.32276-1.1251 0.51936-1.6823 0.59893-0.51757 0.07468-1.0114 0.03253-1.4322-0.07129-0.42072-0.1038-0.76858-0.26841-1.0341-0.43583-0.53568-0.33086-0.74838-0.65384-0.74838-0.65384z"/>
 <path d="m72.471 44.895s0.36135-0.14511 0.78926-0.57852c0.21397-0.2167 0.43961-0.50928 0.62232-0.87607 0.18271-0.36676 0.32185-0.80801 0.36273-1.2829 0.08836-1.038-0.24922-2.2575-1.0074-3.0887-0.53904-0.59589-1.0539-1.2257-1.4708-1.8666-0.41688-0.6409-0.73361-1.2934-0.93405-1.8977 0-0.000007 0-0.000012-0.000008-0.000017v-0.000001c-0.19312-0.60677-0.32038-1.3208-0.35984-2.0843-0.03947-0.76352 0.0071-1.5757 0.09269-2.3746 0.12481-1.1182-0.31887-2.3031-1.0005-3.0909-0.31221-0.36015-0.68413-0.63536-1.0476-0.82471-0.36339-0.18932-0.71791-0.2934-1.0184-0.34294-0.60097-0.09909-0.97856-0.0041-0.97856-0.0041s0.36332-0.13513 0.98982-0.09386c0.62648 0.04127 1.5437 0.31011 2.2933 1.0395 0.40406 0.39191 0.76239 0.89529 1.009 1.4734 0.24662 0.57812 0.37997 1.2295 0.35455 1.8872-0.02867 0.78757-0.02946 1.5676 0.03608 2.2792 0.06554 0.71156 0.19941 1.3538 0.37858 1.8928 0 0.000005 0 0.00001 0.000008 0.000015 0.17188 0.54138 0.44114 1.1397 0.80635 1.7539 0.36522 0.6142 0.82432 1.2448 1.3104 1.8651 0.4072 0.5172 0.68215 1.1225 0.82242 1.7351 0.14029 0.61268 0.14625 1.2305 0.04971 1.7851-0.0889 0.51532-0.28159 0.97202-0.51033 1.3401-0.22873 0.36805-0.49277 0.64802-0.73405 0.84881-0.48258 0.40162-0.8559 0.50585-0.8559 0.50585z"/>
 <g fill="#000000">
  <path d="m49.993 22.603c-0.37379 1.3867 0.05161 12.04-1.4909 11.844l1.4909 6.5898 1.4909-6.5898c-1.5425 0.19554-1.1171-10.457-1.4909-11.844z"/>
  <path d="m31.475 36.061c1.2034 0.78402 11.466 3.6714 10.804 5.078l6.728 0.61843-5.8066-3.4543c-0.29 1.527-10.29-2.169-11.725-2.242z"/>
  <path d="m38.552 57.83c1.1175-0.90219 7.035-9.7706 8.168-8.7058l2.6672-6.2076-5.0796 4.4549c1.3628 0.74847-5.2429 9.1168-5.7556 10.458z"/>
  <path d="m61.444 57.827c-0.5127-1.3416-7.1185-9.71-5.7556-10.458l-5.0796-4.4549 2.6672 6.2076c1.133-1.0649 7.0505 7.8036 8.168 8.7058z"/>
  <path d="m68.514 36.055c-1.4344 0.07303-11.434 3.7695-11.725 2.2421l-5.8066 3.4543 6.728-0.61844c-0.66262-1.4066 9.6004-4.294 10.804-5.078z"/>
 </g>
 <path stroke="#000000" d="m57.716 42.075a7.7232 7.7232 0 1 1 -15.446 0 7.7232 7.7232 0 1 1 15.446 0z" fill="#fee79b"/>
 <path d="m51.012 42.068a1.0308 1.0308 0 0 1 -2.0616 0 1.0308 1.0308 0 1 1 2.0616 0z"/>
 <path d="m47.491 38.547a1.0308 1.0308 0 1 1 -2.0616 0 1.0308 1.0308 0 1 1 2.0616 0z"/>
 <path d="m54.533 38.547a1.0308 1.0308 0 0 1 -2.0616 0 1.0308 1.0308 0 1 1 2.0616 0z"/>
 <path d="m54.533 45.589a1.0308 1.0308 0 0 1 -2.0616 0 1.0308 1.0308 0 1 1 2.0616 0z"/>
 <path d="m47.491 45.589a1.0308 1.0308 0 1 1 -2.0616 0 1.0308 1.0308 0 1 1 2.0616 0z"/>
 <path stroke-linejoin="round" d="m192.44 17.926c1.6719 2.5608 1.621 7.3918 2.3633 13.613l7.5822 6.9668 7.6068 3.5695-1.0339-8.3456-4.3081-9.3547c-5.6878-2.6285-10.291-4.0685-12.21-6.4498zm17.551 24.15 7.6068-3.5695 7.5822-6.9668c0.74228-6.2217 0.69145-11.053 2.3633-13.613-1.9188 2.3813-6.5225 3.8213-12.21 6.4498l-4.3081 9.3547-1.032 8.3456zm0 0 5.7359 6.1297 8.9852 5.0466c6.1465-1.2166 10.736-2.7435 13.687-1.9448-2.8577-1.089-5.6634-5.0284-9.9211-9.6257l-10.241-1.2062-8.2479 1.6007zm0 0-4.0619 7.3607-2.0186 10.093c3.0565 5.4698 5.9279 9.3531 6.0806 12.407 0.15262-3.0544 3.0241-6.9375 6.0806-12.407l-2.0186-10.093-4.0649-7.3609zm0 0-8.2471-1.6001-10.241 1.2062c-4.2575 4.5971-7.0632 8.5362-9.9211 9.6257 2.9521-0.79871 7.5409 0.72814 13.687 1.9448l8.9884-5.0472 5.7349-6.1296z" stroke="#000000" stroke-linecap="round" fill="#009a3d"/>
 <path stroke="#000000" d="m216.45 14.725c-2.6667-0.04263-4.4542 1.5509-6.4498 1.5509s-3.7818-1.5706-6.4498-1.5263c-0.88931 0.01479-1.8805 0.195-3.0034 0.68929-4.4914 1.9772-4.1909 8.1494-1.797 9.9211 2.9724 2.1993 3.2836 4.6242 3.7665 6.4252-1.5636-1.0157-3.775-2.057-4.9481-5.5636-0.94477-2.824-6.7018-5.0392-9.9699-1.3786-3.2684 3.6606-1.3195 6.7256-2.1418 9.2562-0.61668 1.898-2.6642 3.111-3.4465 5.662-0.26075 0.85039-0.39392 1.8566-0.27079 3.0772 0.4925 4.8826 6.4627 6.5052 8.8868 4.7758 2.9855-2.1298 5.382-1.7022 7.2376-1.6001-1.4435 1.1733-3.1184 2.9468-6.7945 2.9787-2.9777 0.02585-6.8534 4.8443-4.3819 9.0837 2.4714 4.2395 5.9957 3.3103 8.1486 4.8743 1.6145 1.173 2.1482 3.4896 4.3327 5.022 0.72818 0.51078 1.6321 0.94618 2.8311 1.2062 4.7958 1.0404 8.1825-4.1268 7.2868-6.9668-1.112-3.5263 0.046-5.6691 0.71391-7.4099 0.66792 1.7408 1.826 3.8835 0.71391 7.4099-0.89561 2.84 2.4911 8.0068 7.2868 6.9668 4.7958-1.0404 5.011-4.6643 7.1638-6.2282 1.6145-1.173 3.9728-0.95611 6.1052-2.5602 0.71079-0.53469 1.4254-1.2542 2.0433-2.3141 2.4714-4.2395-1.4042-9.0577-4.3819-9.0837-3.6761-0.03191-5.351-1.8055-6.7944-2.9787 1.8556-0.10206 4.252-0.52965 7.2376 1.6001 2.4242 1.7294 8.3944 0.1067 8.8868-4.7758 0.4925-4.8826-2.895-6.2087-3.7173-8.7394-0.61668-1.898 0.32505-4.0738-0.54159-6.5975-0.28888-0.84125-0.78307-1.7436-1.6001-2.6587-3.2684-3.6606-9.0254-1.4454-9.9699 1.3786-1.1731 3.5066-3.3846 4.5478-4.9481 5.5636 0.48286-1.8009 0.79407-4.226 3.7664-6.4252 2.3939-1.7712 2.6943-7.9438-1.797-9.9211-1.1229-0.4943-2.1144-0.6997-3.0034-0.71391z" fill="#dd4538"/>
 <path d="m219.62 21.571s-0.0265-0.3886-0.30678-0.92948c-0.14013-0.27046-0.34887-0.57543-0.64143-0.86244-0.29256-0.28704-0.66944-0.55564-1.1086-0.74121-0.96021-0.40464-2.2244-0.46067-3.2494 0.0035-0.73318 0.32847-1.4912 0.62342-2.2294 0.8218-0.73822 0.19839-1.4565 0.29802-2.0931 0.3019-0.00023 0.000001-0.00046 0.000002-0.00069 0.000004-0.6368-0.0039-1.3552-0.10346-2.0936-0.30188-0.73834-0.19841-1.4964-0.49342-2.2297-0.82187-1.0249-0.46422-2.2889-0.40843-3.2489-0.0036-0.43899 0.18563-0.81565 0.45431-1.108 0.74141-0.29234 0.2871-0.50088 0.59211-0.64085 0.8626-0.27994 0.54092-0.30628 0.9294-0.30628 0.9294s-0.0162-0.3873 0.21659-0.97037c0.11641-0.29153 0.30108-0.62916 0.58044-0.96044 0.27935-0.33127 0.65412-0.65565 1.1167-0.89947 0.49759-0.26318 1.087-0.44843 1.7131-0.50433 0.62603-0.05591 1.2866 0.01854 1.9043 0.24597 0.74014 0.27062 1.4817 0.51238 2.1787 0.66991 0.69698 0.15754 1.3492 0.22872 1.9173 0.22488 0.00021 0.000002 0.00041 0.000003 0.00062 0.000004 0.56791 0.0038 1.2201-0.06742 1.9169-0.22496 0.69687-0.15754 1.4384-0.39925 2.1784-0.66988 0.61781-0.22737 1.2785-0.30173 1.9046-0.24577 0.6261 0.05595 1.2156 0.2412 1.7133 0.50429 0.46277 0.2437 0.83779 0.56801 1.1174 0.89923 0.27958 0.33122 0.46447 0.66884 0.58106 0.96036 0.23318 0.58308 0.21707 0.97052 0.21707 0.97052z"/>
 <path d="m193.47 26.583s-0.37763-0.095-0.97856 0.0041c-0.30049 0.04954-0.65501 0.15362-1.0184 0.34294-0.3634 0.18932-0.73533 0.46452-1.0476 0.82471-0.68162 0.78784-1.1253 1.9729-1.0005 3.0909 0.0858 0.79895 0.13216 1.6111 0.0927 2.3746-0.0395 0.76352-0.16673 1.4775-0.35985 2.0843v0.000001c-0.00001 0.000005-0.00001 0.00001-0.00001 0.000015-0.20042 0.60441-0.51716 1.2569-0.93405 1.8977-0.41688 0.6409-0.93169 1.2707-1.4708 1.8666-0.75819 0.83125-1.0958 2.0507-1.0074 3.0887 0.0409 0.47487 0.18003 0.91609 0.36274 1.2829 0.18271 0.36676 0.40835 0.65933 0.62232 0.87607 0.42795 0.4334 0.78926 0.57852 0.78926 0.57852s-0.37336-0.10424-0.8559-0.50585c-0.24129-0.20081-0.50533-0.48077-0.73406-0.84882s-0.42143-0.82471-0.51033-1.3401c-0.0965-0.55457-0.0906-1.1724 0.0497-1.7851 0.14029-0.61268 0.41525-1.218 0.82243-1.7351 0.48612-0.62032 0.94523-1.251 1.3104-1.8651 0.36522-0.61419 0.63448-1.2125 0.80635-1.7539v-0.000015c0.17917-0.539 0.31304-1.1813 0.3786-1.8928 0.0655-0.71155 0.0648-1.4916 0.0361-2.2792-0.0255-0.65777 0.10792-1.3091 0.35454-1.8872 0.24663-0.57812 0.60496-1.0814 1.009-1.4734 0.74963-0.7293 1.6668-0.99818 2.2933-1.0395 0.62647-0.04127 0.98982 0.09387 0.98982 0.09387z"/>
 <path d="m190.15 53.005s-0.20704 0.32979-0.29851 0.93192c-0.0457 0.30108-0.0563 0.67041 0.0114 1.0745 0.0677 0.40411 0.21456 0.84291 0.4606 1.251 0.26933 0.44586 0.64415 0.86867 1.0971 1.2059 0.45293 0.33723 0.98242 0.58736 1.5334 0.70077 0.78633 0.16525 1.573 0.37216 2.287 0.64562 0.71397 0.27346 1.3537 0.61513 1.8711 0.98628 0 0.000008 0.00001 0.000016 0.00002 0.000016 0.5129 0.37738 1.0355 0.88025 1.5163 1.4748 0.4807 0.59452 0.92058 1.2788 1.3208 1.9756 0.27812 0.48897 0.67963 0.91522 1.1403 1.2418 0.46069 0.32656 0.97863 0.55238 1.486 0.67075 0.46426 0.10786 0.92689 0.11189 1.3322 0.05144 0.40527-0.06042 0.75324-0.1846 1.0254-0.32114 0.54443-0.27306 0.79407-0.57188 0.79407-0.57188s-0.2145 0.32288-0.74558 0.65771c-0.26554 0.16742-0.61339 0.33202-1.0341 0.43581-0.42071 0.1038-0.91459 0.14593-1.4322 0.07121-0.55726-0.07956-1.143-0.27615-1.6824-0.5989-0.53932-0.32274-1.03-0.77128-1.3961-1.3184-0.43975-0.65401-0.89758-1.2855-1.3689-1.8226-0.47127-0.53714-0.95713-0.97809-1.4189-1.3089-0.00001 0-0.00001-0.000008-0.00002-0.000008-0.45726-0.33696-1.0268-0.66275-1.6832-0.945-0.65649-0.28222-1.3986-0.52252-2.1564-0.73862-0.63341-0.17909-1.2117-0.50717-1.6853-0.92034-0.47361-0.41321-0.84157-0.90955-1.0895-1.4149-0.23098-0.46915-0.3435-0.95186-0.37479-1.3841-0.0313-0.43221 0.0177-0.81392 0.0949-1.1182 0.15435-0.60856 0.39514-0.91231 0.39514-0.91231z"/>
 <path d="m214.26 64.315s0.24968 0.29881 0.79407 0.57189c0.27222 0.13654 0.6202 0.26073 1.0255 0.32116 0.40526 0.06042 0.86796 0.0564 1.3322-0.05144 0.50726-0.11837 1.0252-0.3442 1.4859-0.67077 0.46068-0.32657 0.8622-0.75287 1.1403-1.2418 0.40015-0.69678 0.84007-1.381 1.3208-1.9756 0.48071-0.59451 1.0034-1.0974 1.5163-1.4747h0.00001c0.5174-0.37117 1.1572-0.71284 1.8711-0.98628 0.71396-0.27347 1.5007-0.48038 2.287-0.64562 0.55098-0.11341 1.0805-0.36354 1.5334-0.70076 0.45294-0.33723 0.82778-0.76007 1.0971-1.2059 0.24605-0.40821 0.39285-0.847 0.4606-1.2511 0.0677-0.40411 0.0572-0.77343 0.0114-1.0745-0.0915-0.60217-0.29852-0.93192-0.29852-0.93192s0.2408 0.30378 0.39514 0.91231c0.0772 0.30428 0.12623 0.68598 0.0949 1.1182-0.0313 0.43221-0.14382 0.91491-0.37479 1.3841-0.24787 0.50539-0.61584 1.0017-1.0895 1.4149-0.47361 0.4132-1.0518 0.74128-1.6853 0.92034-0.75789 0.21608-1.5 0.4564-2.1564 0.73862-0.65648 0.28222-1.226 0.60802-1.6833 0.945l-0.00001 0.000008c-0.46177 0.33075-0.9476 0.7717-1.4189 1.3088-0.47128 0.53713-0.92917 1.1686-1.3689 1.8226-0.36605 0.54709-0.85677 0.99565-1.3961 1.3184-0.53933 0.32276-1.1251 0.51936-1.6824 0.59893-0.51757 0.07468-1.0114 0.03253-1.4322-0.07129-0.42072-0.1038-0.76858-0.26841-1.0341-0.43583-0.53568-0.33086-0.74837-0.65384-0.74837-0.65384z"/>
 <path d="m232.47 44.895s0.36135-0.14511 0.78926-0.57852c0.21397-0.2167 0.43961-0.50928 0.62232-0.87607 0.18271-0.36676 0.32185-0.80801 0.36274-1.2829 0.0884-1.038-0.24923-2.2575-1.0074-3.0887-0.53904-0.59589-1.0539-1.2257-1.4708-1.8666-0.41688-0.6409-0.73361-1.2934-0.93405-1.8977 0-0.000007 0-0.000012-0.00001-0.000017v-0.000001c-0.19312-0.60677-0.32038-1.3208-0.35984-2.0843-0.0395-0.76352 0.007-1.5757 0.0927-2.3746 0.12481-1.1182-0.31887-2.3031-1.0005-3.0909-0.31221-0.36015-0.68413-0.63536-1.0476-0.82471-0.36339-0.18932-0.71791-0.2934-1.0184-0.34294-0.60097-0.09909-0.97856-0.0041-0.97856-0.0041s0.36333-0.13513 0.98983-0.09386c0.62647 0.04127 1.5437 0.31011 2.2933 1.0395 0.40406 0.39191 0.76239 0.89529 1.009 1.4734 0.24662 0.57812 0.37997 1.2295 0.35455 1.8872-0.0287 0.78757-0.0295 1.5676 0.0361 2.2792 0.0655 0.71156 0.19941 1.3538 0.37858 1.8928 0 0.000005 0 0.00001 0.00001 0.000015 0.17188 0.54138 0.44114 1.1397 0.80635 1.7539 0.36522 0.6142 0.82432 1.2448 1.3104 1.8651 0.40719 0.5172 0.68214 1.1225 0.82242 1.7351 0.14029 0.61268 0.14625 1.2305 0.0497 1.7851-0.0889 0.51532-0.2816 0.97202-0.51033 1.3401-0.22873 0.36805-0.49277 0.64802-0.73405 0.84881-0.48258 0.40162-0.85591 0.50585-0.85591 0.50585z"/>
 <g fill="#000000">
  <path d="m209.99 22.603c-0.37379 1.3867 0.0516 12.04-1.4909 11.844l1.4909 6.5898 1.4909-6.5898c-1.5425 0.19554-1.1171-10.457-1.4909-11.844z"/>
  <path d="m191.48 36.061c1.2034 0.78402 11.466 3.6714 10.804 5.078l6.728 0.61843-5.8066-3.4543c-0.2907 1.5274-10.291-2.1691-11.725-2.2421z"/>
  <path d="m198.55 57.83c1.1175-0.90219 7.035-9.7706 8.168-8.7058l2.6672-6.2076-5.0796 4.4549c1.3628 0.74847-5.2429 9.1168-5.7556 10.458z"/>
  <path d="m221.44 57.827c-0.5127-1.3416-7.1185-9.71-5.7556-10.458l-5.0796-4.4549 2.6672 6.2076c1.133-1.0649 7.0505 7.8036 8.168 8.7058z"/>
  <path d="m228.51 36.055c-1.4344 0.07303-11.434 3.7695-11.725 2.2421l-5.8066 3.4543 6.728-0.61844c-0.66263-1.4066 9.6004-4.294 10.804-5.078z"/>
 </g>
 <path stroke="#000000" d="m217.72 42.075a7.7232 7.7232 0 1 1 -15.446 0 7.7232 7.7232 0 1 1 15.446 0z" fill="#fee79b"/>
 <path d="m211.01 42.068a1.0308 1.0308 0 0 1 -2.0616 0 1.0308 1.0308 0 1 1 2.0616 0z"/>
 <path d="m207.49 38.547a1.0308 1.0308 0 1 1 -2.0616 0 1.0308 1.0308 0 1 1 2.0616 0z"/>
 <path d="m214.53 38.547a1.0308 1.0308 0 0 1 -2.0616 0 1.0308 1.0308 0 1 1 2.0616 0z"/>
 <path d="m214.53 45.589a1.0308 1.0308 0 0 1 -2.0616 0 1.0308 1.0308 0 1 1 2.0616 0z"/>
 <path d="m207.49 45.589a1.0308 1.0308 0 1 1 -2.0616 0 1.0308 1.0308 0 1 1 2.0616 0z"/>
 <path stroke-linejoin="round" d="m112.44 17.926c1.6719 2.5608 1.621 7.3918 2.3633 13.613l7.5822 6.9668 7.6068 3.5695-1.0339-8.3456-4.3081-9.3547c-5.6878-2.6285-10.291-4.0685-12.21-6.4498zm17.551 24.15 7.6068-3.5695 7.5822-6.9668c0.74228-6.2217 0.69145-11.053 2.3633-13.613-1.9188 2.3813-6.5225 3.8213-12.21 6.4498l-4.3081 9.3547-1.032 8.3456zm0 0 5.7359 6.1297 8.9852 5.0466c6.1465-1.2166 10.736-2.7435 13.687-1.9448-2.8577-1.089-5.6634-5.0284-9.9211-9.6257l-10.241-1.2062-8.2479 1.6007zm0 0-4.0619 7.3607-2.0186 10.093c3.0565 5.4698 5.9279 9.3531 6.0806 12.407 0.15262-3.0544 3.0241-6.9375 6.0806-12.407l-2.0186-10.093-4.0649-7.3609zm0 0-8.2471-1.6001-10.241 1.2062c-4.2575 4.5971-7.0632 8.5362-9.9211 9.6257 2.9521-0.79871 7.5409 0.72814 13.687 1.9448l8.9884-5.0472 5.7349-6.1296z" stroke="#000000" stroke-linecap="round" fill="#009a3d"/>
 <path stroke="#000000" d="m136.45 14.725c-2.6667-0.04263-4.4542 1.5509-6.4498 1.5509s-3.7818-1.5706-6.4498-1.5263c-0.88931 0.01479-1.8805 0.195-3.0034 0.68929-4.4914 1.9772-4.1909 8.1494-1.797 9.9211 2.9724 2.1993 3.2836 4.6242 3.7665 6.4252-1.5636-1.0157-3.775-2.057-4.9481-5.5636-0.94477-2.824-6.7018-5.0392-9.9699-1.3786-3.2684 3.6606-1.3195 6.7256-2.1418 9.2562-0.61668 1.898-2.6642 3.111-3.4465 5.662-0.26075 0.85039-0.39392 1.8566-0.27079 3.0772 0.4925 4.8826 6.4627 6.5052 8.8868 4.7758 2.9855-2.1298 5.382-1.7022 7.2376-1.6001-1.4435 1.1733-3.1184 2.9468-6.7945 2.9787-2.9777 0.02585-6.8534 4.8443-4.3819 9.0837 2.4714 4.2395 5.9957 3.3103 8.1486 4.8743 1.6145 1.173 2.1482 3.4896 4.3327 5.022 0.72818 0.51078 1.6321 0.94618 2.8311 1.2062 4.7958 1.0404 8.1825-4.1268 7.2868-6.9668-1.112-3.5263 0.046-5.6691 0.71391-7.4099 0.66792 1.7408 1.826 3.8835 0.71391 7.4099-0.89561 2.84 2.4911 8.0068 7.2868 6.9668 4.7958-1.0404 5.011-4.6643 7.1638-6.2282 1.6145-1.173 3.9728-0.95611 6.1052-2.5602 0.71079-0.53469 1.4254-1.2542 2.0433-2.3141 2.4714-4.2395-1.4042-9.0577-4.3819-9.0837-3.6761-0.03191-5.351-1.8055-6.7944-2.9787 1.8556-0.10206 4.252-0.52965 7.2376 1.6001 2.4242 1.7294 8.3944 0.1067 8.8868-4.7758 0.4925-4.8826-2.895-6.2087-3.7173-8.7394-0.61668-1.898 0.32505-4.0738-0.54159-6.5975-0.28888-0.84125-0.78307-1.7436-1.6001-2.6587-3.2684-3.6606-9.0254-1.4454-9.9699 1.3786-1.1731 3.5066-3.3846 4.5478-4.9481 5.5636 0.48286-1.8009 0.79407-4.226 3.7664-6.4252 2.3939-1.7712 2.6943-7.9438-1.797-9.9211-1.1229-0.4943-2.1144-0.6997-3.0034-0.71391z" fill="#dd4538"/>
 <path d="m139.62 21.571s-0.0265-0.3886-0.30678-0.92948c-0.14013-0.27046-0.34887-0.57543-0.64143-0.86244-0.29256-0.28704-0.66944-0.55564-1.1086-0.74121-0.96021-0.40464-2.2244-0.46067-3.2494 0.0035-0.73318 0.32847-1.4912 0.62342-2.2294 0.8218-0.73822 0.19839-1.4565 0.29802-2.0931 0.3019-0.00023 0.000001-0.00046 0.000002-0.00069 0.000004-0.6368-0.0039-1.3552-0.10346-2.0936-0.30188-0.73834-0.19841-1.4964-0.49342-2.2297-0.82187-1.0249-0.46422-2.2889-0.40843-3.2489-0.0036-0.43899 0.18563-0.81565 0.45431-1.108 0.74141-0.29234 0.2871-0.50088 0.59211-0.64085 0.8626-0.27994 0.54092-0.30628 0.9294-0.30628 0.9294s-0.0162-0.3873 0.21659-0.97037c0.11641-0.29153 0.30108-0.62916 0.58044-0.96044 0.27935-0.33127 0.65412-0.65565 1.1167-0.89947 0.49759-0.26318 1.087-0.44843 1.7131-0.50433 0.62603-0.05591 1.2866 0.01854 1.9043 0.24597 0.74014 0.27062 1.4817 0.51238 2.1787 0.66991 0.69698 0.15754 1.3492 0.22872 1.9173 0.22488 0.00021 0.000002 0.00041 0.000003 0.00062 0.000004 0.56791 0.0038 1.2201-0.06742 1.9169-0.22496 0.69687-0.15754 1.4384-0.39925 2.1784-0.66988 0.61781-0.22737 1.2785-0.30173 1.9046-0.24577 0.6261 0.05595 1.2156 0.2412 1.7133 0.50429 0.46277 0.2437 0.83779 0.56801 1.1174 0.89923 0.27958 0.33122 0.46447 0.66884 0.58106 0.96036 0.23318 0.58308 0.21707 0.97052 0.21707 0.97052z"/>
 <path d="m113.47 26.583s-0.37763-0.095-0.97856 0.0041c-0.30049 0.04954-0.65501 0.15362-1.0184 0.34294-0.3634 0.18932-0.73533 0.46452-1.0476 0.82471-0.68162 0.78784-1.1253 1.9729-1.0005 3.0909 0.0858 0.79895 0.13216 1.6111 0.0927 2.3746-0.0395 0.76352-0.16673 1.4775-0.35985 2.0843v0.000001c-0.00001 0.000005-0.00001 0.00001-0.00001 0.000015-0.20042 0.60441-0.51716 1.2569-0.93405 1.8977-0.41688 0.6409-0.93169 1.2707-1.4708 1.8666-0.75819 0.83125-1.0958 2.0507-1.0074 3.0887 0.0409 0.47487 0.18003 0.91609 0.36274 1.2829 0.18271 0.36676 0.40835 0.65933 0.62232 0.87607 0.42795 0.4334 0.78926 0.57852 0.78926 0.57852s-0.37336-0.10424-0.8559-0.50585c-0.24129-0.20081-0.50533-0.48077-0.73406-0.84882s-0.42143-0.82471-0.51033-1.3401c-0.0965-0.55457-0.0906-1.1724 0.0497-1.7851 0.14029-0.61268 0.41525-1.218 0.82243-1.7351 0.48612-0.62032 0.94523-1.251 1.3104-1.8651 0.36522-0.61419 0.63448-1.2125 0.80635-1.7539v-0.000015c0.17917-0.539 0.31304-1.1813 0.3786-1.8928 0.0655-0.71155 0.0648-1.4916 0.0361-2.2792-0.0254-0.65777 0.10792-1.3091 0.35454-1.8872 0.24663-0.57812 0.60496-1.0814 1.009-1.4734 0.74963-0.7293 1.6668-0.99818 2.2933-1.0395 0.62647-0.04127 0.98982 0.09387 0.98982 0.09387z"/>
 <path d="m110.15 53.005s-0.20704 0.32979-0.29851 0.93192c-0.0457 0.30108-0.0563 0.67041 0.0114 1.0745 0.0678 0.40411 0.21456 0.84291 0.4606 1.251 0.26933 0.44586 0.64415 0.86867 1.0971 1.2059 0.45293 0.33723 0.98242 0.58736 1.5334 0.70077 0.78633 0.16525 1.573 0.37216 2.287 0.64562 0.71397 0.27346 1.3537 0.61513 1.8711 0.98628 0 0.000008 0.00001 0.000016 0.00002 0.000016 0.5129 0.37738 1.0355 0.88025 1.5163 1.4748 0.4807 0.59452 0.92058 1.2788 1.3208 1.9756 0.27812 0.48897 0.67963 0.91522 1.1403 1.2418 0.46069 0.32656 0.97863 0.55238 1.486 0.67075 0.46426 0.10786 0.92689 0.11189 1.3322 0.05144 0.40527-0.06042 0.75324-0.1846 1.0254-0.32114 0.54443-0.27306 0.79407-0.57188 0.79407-0.57188s-0.2145 0.32288-0.74558 0.65771c-0.26554 0.16742-0.61339 0.33202-1.0341 0.43581-0.42071 0.1038-0.91459 0.14593-1.4322 0.07121-0.55726-0.07956-1.143-0.27615-1.6824-0.5989-0.53932-0.32274-1.03-0.77128-1.3961-1.3184-0.43975-0.65401-0.89758-1.2855-1.3689-1.8226-0.47127-0.53714-0.95713-0.97809-1.4189-1.3089-0.00001 0-0.00001-0.000008-0.00002-0.000008-0.45726-0.33696-1.0268-0.66275-1.6832-0.945-0.65649-0.28222-1.3986-0.52252-2.1564-0.73862-0.63341-0.17909-1.2117-0.50717-1.6853-0.92034-0.47361-0.41321-0.84157-0.90955-1.0895-1.4149-0.23098-0.46915-0.3435-0.95186-0.37479-1.3841-0.0313-0.43221 0.0177-0.81392 0.0949-1.1182 0.15435-0.60856 0.39514-0.91231 0.39514-0.91231z"/>
 <path d="m134.26 64.315s0.24968 0.29881 0.79407 0.57189c0.27222 0.13654 0.6202 0.26073 1.0255 0.32116 0.40526 0.06042 0.86796 0.0564 1.3322-0.05144 0.50726-0.11837 1.0252-0.3442 1.4859-0.67077 0.46068-0.32657 0.8622-0.75287 1.1403-1.2418 0.40015-0.69678 0.84007-1.381 1.3208-1.9756 0.48071-0.59451 1.0034-1.0974 1.5163-1.4747h0.00001c0.5174-0.37117 1.1572-0.71284 1.8711-0.98628 0.71396-0.27347 1.5007-0.48038 2.287-0.64562 0.55098-0.11341 1.0805-0.36354 1.5334-0.70076 0.45294-0.33723 0.82778-0.76007 1.0971-1.2059 0.24605-0.40821 0.39285-0.847 0.4606-1.2511 0.0677-0.40411 0.0572-0.77343 0.0114-1.0745-0.0915-0.60217-0.29852-0.93192-0.29852-0.93192s0.2408 0.30378 0.39514 0.91231c0.0772 0.30428 0.12623 0.68598 0.0949 1.1182-0.0313 0.43221-0.14382 0.91491-0.37479 1.3841-0.24787 0.50539-0.61584 1.0017-1.0895 1.4149-0.47361 0.4132-1.0518 0.74128-1.6853 0.92034-0.75789 0.21608-1.5 0.4564-2.1564 0.73862-0.65648 0.28222-1.226 0.60802-1.6833 0.945l-0.00001 0.000008c-0.46177 0.33075-0.9476 0.7717-1.4189 1.3088-0.47128 0.53713-0.92917 1.1686-1.3689 1.8226-0.36605 0.54709-0.85677 0.99565-1.3961 1.3184-0.53933 0.32276-1.1251 0.51936-1.6824 0.59893-0.51757 0.07468-1.0114 0.03253-1.4322-0.07129-0.42072-0.1038-0.76858-0.26841-1.0341-0.43583-0.53568-0.33086-0.74837-0.65384-0.74837-0.65384z"/>
 <path d="m152.47 44.895s0.36135-0.14511 0.78926-0.57852c0.21397-0.2167 0.43961-0.50928 0.62232-0.87607 0.18271-0.36676 0.32185-0.80801 0.36274-1.2829 0.0884-1.038-0.24923-2.2575-1.0074-3.0887-0.53904-0.59589-1.0539-1.2257-1.4708-1.8666-0.41688-0.6409-0.73361-1.2934-0.93405-1.8977 0-0.000007 0-0.000012-0.00001-0.000017v-0.000001c-0.19312-0.60677-0.32038-1.3208-0.35984-2.0843-0.0395-0.76352 0.007-1.5757 0.0927-2.3746 0.12481-1.1182-0.31887-2.3031-1.0005-3.0909-0.31221-0.36015-0.68413-0.63536-1.0476-0.82471-0.36339-0.18932-0.71791-0.2934-1.0184-0.34294-0.60097-0.09909-0.97856-0.0041-0.97856-0.0041s0.36333-0.13513 0.98983-0.09386c0.62647 0.04127 1.5437 0.31011 2.2933 1.0395 0.40406 0.39191 0.76239 0.89529 1.009 1.4734 0.24662 0.57812 0.37997 1.2295 0.35455 1.8872-0.0287 0.78757-0.0295 1.5676 0.0361 2.2792 0.0655 0.71156 0.19941 1.3538 0.37858 1.8928 0 0.000005 0 0.00001 0.00001 0.000015 0.17188 0.54138 0.44114 1.1397 0.80635 1.7539 0.36522 0.6142 0.82432 1.2448 1.3104 1.8651 0.40719 0.5172 0.68214 1.1225 0.82242 1.7351 0.14029 0.61268 0.14625 1.2305 0.0497 1.7851-0.0889 0.51532-0.2816 0.97202-0.51033 1.3401-0.22873 0.36805-0.49277 0.64802-0.73405 0.84881-0.48258 0.40162-0.85591 0.50585-0.85591 0.50585z"/>
 <g fill="#000000">
  <path d="m129.99 22.603c-0.37379 1.3867 0.0516 12.04-1.4909 11.844l1.4909 6.5898 1.4909-6.5898c-1.5425 0.19554-1.1171-10.457-1.4909-11.844z"/>
  <path d="m111.48 36.061c1.2034 0.78402 11.466 3.6714 10.804 5.078l6.728 0.61843-5.8066-3.4543c-0.2907 1.5274-10.291-2.1691-11.725-2.2421z"/>
  <path d="m118.55 57.83c1.1175-0.90219 7.035-9.7706 8.168-8.7058l2.6672-6.2076-5.0796 4.4549c1.3628 0.74847-5.2429 9.1168-5.7556 10.458z"/>
  <path d="m141.44 57.827c-0.5127-1.3416-7.1185-9.71-5.7556-10.458l-5.0796-4.4549 2.6672 6.2076c1.133-1.0649 7.0505 7.8036 8.168 8.7058z"/>
  <path d="m148.51 36.055c-1.4344 0.07303-11.434 3.7695-11.725 2.2421l-5.8066 3.4543 6.728-0.61844c-0.66263-1.4066 9.6004-4.294 10.804-5.078z"/>
 </g>
 <path stroke="#000000" d="m137.72 42.075a7.7232 7.7232 0 1 1 -15.446 0 7.7232 7.7232 0 1 1 15.446 0z" fill="#fee79b"/>
 <path d="m131.01 42.068a1.0308 1.0308 0 0 1 -2.0616 0 1.0308 1.0308 0 1 1 2.0616 0z"/>
 <path d="m127.49 38.547a1.0308 1.0308 0 1 1 -2.0616 0 1.0308 1.0308 0 1 1 2.0616 0z"/>
 <path d="m134.53 38.547a1.0308 1.0308 0 0 1 -2.0616 0 1.0308 1.0308 0 1 1 2.0616 0z"/>
 <path d="m134.53 45.589a1.0308 1.0308 0 0 1 -2.0616 0 1.0308 1.0308 0 1 1 2.0616 0z"/>
 <path d="m127.49 45.589a1.0308 1.0308 0 1 1 -2.0616 0 1.0308 1.0308 0 1 1 2.0616 0z"/>
</svg>
