<?xml version="1.0" encoding="UTF-8" standalone="no"?>
<!-- Generator: Adobe Illustrator 15.0.2, SVG Export Plug-In . SVG Version: 6.00 Build 0)  -->

<svg
   xmlns:dc="http://purl.org/dc/elements/1.1/"
   xmlns:cc="http://creativecommons.org/ns#"
   xmlns:rdf="http://www.w3.org/1999/02/22-rdf-syntax-ns#"
   xmlns:svg="http://www.w3.org/2000/svg"
   xmlns="http://www.w3.org/2000/svg"
   xmlns:sodipodi="http://sodipodi.sourceforge.net/DTD/sodipodi-0.dtd"
   xmlns:inkscape="http://www.inkscape.org/namespaces/inkscape"
   version="1.1"
   id="Layer_2"
   x="0px"
   y="0px"
   width="457.37695"
   height="460.37534"
   viewBox="0 0 457.37695 460.37534"
   enable-background="new 0 0 469.768 468.991"
   xml:space="preserve"
   inkscape:version="0.48.2 r9819"
   sodipodi:docname="AJAX.svg"><metadata
   id="metadata207"><rdf:RDF><cc:Work
       rdf:about=""><dc:format>image/svg+xml</dc:format><dc:type
         rdf:resource="http://purl.org/dc/dcmitype/StillImage" /></cc:Work></rdf:RDF></metadata><defs
   id="defs205" /><sodipodi:namedview
   pagecolor="#ffffff"
   bordercolor="#666666"
   borderopacity="1"
   objecttolerance="10"
   gridtolerance="10"
   guidetolerance="10"
   inkscape:pageopacity="0"
   inkscape:pageshadow="2"
   inkscape:window-width="1280"
   inkscape:window-height="1004"
   id="namedview203"
   showgrid="false"
   fit-margin-top="0.05"
   fit-margin-left="0.05"
   fit-margin-right="0.05"
   fit-margin-bottom="0.05"
   inkscape:zoom="1"
   inkscape:cx="290.45335"
   inkscape:cy="175.02487"
   inkscape:window-x="-8"
   inkscape:window-y="-8"
   inkscape:window-maximized="1"
   inkscape:current-layer="Layer_2"
   showguides="true"
   inkscape:guide-bbox="true" />
<line
   x1="229.76234"
   y1="97.776123"
   x2="229.76234"
   y2="395.83508"
   id="line3"
   style="fill:none;stroke:#ce1126;stroke-width:6.88660002;stroke-opacity:1" />
<path
   d="m 183.63135,444.62609 c 0,0 -15.5,11.852 -18.052,12.218 -2.552,0.365 0.365,3.1 0.365,3.1 0,0 16.593,-0.182 17.687,0.365 1.094,0.548 18.599,-12.948 18.599,-12.948 0,0 -14.405,-5.289 -18.599,-2.735 z"
   id="path5"
   inkscape:connector-curvature="0"
   style="fill:#07a64f;stroke:none" />
<path
   d="m 275.89235,444.62609 c 0,0 15.502,11.852 18.053,12.218 2.554,0.365 -0.365,3.1 -0.365,3.1 0,0 -16.594,-0.182 -17.688,0.365 -1.094,0.548 -18.598,-12.948 -18.598,-12.948 0,0 14.403,-5.289 18.598,-2.735 z"
   id="path7"
   inkscape:connector-curvature="0"
   style="fill:#07a64f;stroke:none" />
<path
   d="m 268.72835,67.801133 c 79.897,16.79 139.63,84.119957 139.63,164.624957 0,93.144 -79.96,168.65 -178.596,168.65 -98.637,0 -178.597004,-75.506 -178.597004,-168.65 0,-80.467 59.678004,-147.772957 139.519004,-164.601957"
   id="path9"
   inkscape:connector-curvature="0"
   style="fill:none;stroke:#ce1126;stroke-width:6.88660002;stroke-linecap:round;stroke-linejoin:round;stroke-opacity:1" />
<ellipse
   cx="236.278"
   cy="236.91499"
   rx="142.80499"
   ry="137.972"
   id="ellipse11"
   sodipodi:cx="236.278"
   sodipodi:cy="236.91499"
   sodipodi:rx="142.80499"
   sodipodi:ry="137.972"
   style="fill:none;stroke:#ce1126;stroke-width:6.88660002;stroke-opacity:1"
   transform="translate(-6.5156633,-1.1638709)" />
<line
   x1="51.165363"
   y1="230.91812"
   x2="408.35834"
   y2="230.91812"
   id="line13"
   style="fill:none;stroke:#ce1126;stroke-width:6.88660002;stroke-opacity:1" />
<line
   x1="342.89136"
   y1="102.94112"
   x2="113.91134"
   y2="361.76309"
   id="line15"
   style="fill:none;stroke:#ce1126;stroke-width:6.88660002;stroke-opacity:1" />
<line
   x1="360.10733"
   y1="347.41608"
   x2="100.13834"
   y2="116.14114"
   id="line17"
   style="fill:none;stroke:#ce1126;stroke-width:6.88660002;stroke-opacity:1" />
<path
   d="m 229.45035,117.98609 c 20.922,-0.317 43.986,9.437 59.544,10.51 15.556,1.074 36.998,-10.276 36.998,-10.276 l 34.654,28.098 c 0,0 -30.908,32.782 -20.605,75.866 10.303,43.084 57.133,110.52 -51.513,145.175 -45.895,13.113 -58.914,33.718 -58.914,33.718 h -0.018 c 0,0 -13.02,-20.604 -58.914,-33.718 -108.646004,-34.655 -61.816,-102.091 -51.514,-145.175 10.303,-43.084 -20.60501,-75.866 -20.60501,-75.866 l 34.65401,-28.098 c 0,0 21.442,11.35 36.999,10.276 15.557,-1.074 38.623,-10.828 59.545,-10.51 h -0.311 z"
   id="path19"
   style="fill:#ffffff;stroke:#0b295e;stroke-width:6.88660002;stroke-opacity:1"
   inkscape:connector-curvature="0" />
<polygon
   points="227.743,49.587 227.743,88.611 246.107,88.611 246.107,49.587 272.157,49.587 272.157,33.805 246.107,33.805 246.107,11.137 227.743,11.137 227.743,33.805 201.695,33.805 201.695,49.587 "
   id="polygon21"
   style="fill:none;stroke:#ce1126;stroke-width:3.94370008;stroke-opacity:1"
   transform="translate(-6.5156633,-4.2634679)" />
<g
   id="g23"
   transform="translate(-6.5156633,-1.1638709)">
	<path
   d="m 112.74,402.686 c -7.035,-4.221 -28.334,-47.513 -28.334,-47.513 0,0 36.399,25.063 39.886,47.948 0,0 -10.461,0.22 -11.552,-0.435 z"
   id="path25"
   inkscape:connector-curvature="0"
   style="fill:#07a64f;stroke:none" />
	<path
   d="m 100.316,385.467 c 0,0 -28.77,-6.321 -33.783,-11.551 0,0 3.488,18.745 42.284,30.731 0,0 11.115,1.744 4.359,-7.629 -6.757,-9.372 -6.321,-9.589 -12.86,-11.551 z"
   id="path27"
   inkscape:connector-curvature="0"
   style="fill:#07a64f;stroke:none" />
	<path
   d="m 54.111,313.761 c 0,0 7.191,15.04 6.974,20.707 -0.217,5.667 1.962,11.986 1.962,11.986 0,0 -29.642,-14.603 -34,-21.142 0,0 9.155,22.017 32.693,33.349 0,0 16.128,11.114 18.526,13.075 0,0 1.961,-36.616 -26.155,-57.975 z"
   id="path29"
   inkscape:connector-curvature="0"
   style="fill:#07a64f;stroke:none" />
	<path
   d="m 37.982,267.337 c 0,0 -3.27,18.961 -0.872,28.333 0,0 -22.668,-13.078 -27.898,-25.064 0,0 0,18.963 22.014,41.194 22.014,22.231 17.218,17.653 17.218,17.653 0,0 1.308,-32.693 1.09,-37.488 -0.219,-4.795 -5.013,-18.089 -11.552,-24.628 z"
   id="path31"
   inkscape:connector-curvature="0"
   style="fill:#07a64f;stroke:none" />
	<path
   d="m 8.558,208.488 c 0,0 6.483,19.125 8.064,21.359 1.581,2.234 5.013,14.166 5.013,14.166 0,0 5.014,-9.587 8.064,-13.73 3.051,-4.142 6.102,-10.025 6.102,-12.641 0,0 4.143,20.924 -0.871,34.872 -5.014,13.948 -7.847,27.244 -7.847,27.244 0,0 -19.616,-28.768 -20.269,-42.064 -0.653,-13.295 0,-23.321 1.744,-29.206 z"
   id="path33"
   inkscape:connector-curvature="0"
   style="fill:#07a64f;stroke:none" />
	<path
   d="m 31.881,150.73 c 0,0 1.962,31.603 0,35.309 0,0 20.488,-14.385 21.142,-17.436 0,0 -1.961,28.99 -21.142,44.246 0,0 -6.102,8.064 -5.884,12.423 0,0 -20.27,-32.042 5.884,-74.542 z"
   id="path35"
   inkscape:connector-curvature="0"
   style="fill:#07a64f;stroke:none" />
	<path
   d="m 61.959,105.614 c 0,0 -7.411,25.938 -7.411,30.515 0,0 20.271,-3.924 23.758,-8.937 0,0 -12.205,21.36 -27.026,31.168 -14.821,9.808 -14.167,15.692 -14.167,15.692 0,0 -7.411,-45.989 24.846,-68.438 z"
   id="path37"
   inkscape:connector-curvature="0"
   style="fill:#07a64f;stroke:none" />
	<path
   d="m 61.305,127.628 c 0,0 6.757,-39.886 49.258,-44.681 0,0 -15.041,33.565 -49.258,44.681 z"
   id="path39"
   inkscape:connector-curvature="0"
   style="fill:#07a64f;stroke:none" />
</g>
<g
   id="g41"
   transform="translate(-6.5156633,-1.1638709)">
	<path
   d="m 357.667,402.686 c 7.034,-4.221 28.335,-47.513 28.335,-47.513 0,0 -36.398,25.063 -39.887,47.948 10e-4,0 10.463,0.22 11.552,-0.435 z"
   id="path43"
   inkscape:connector-curvature="0"
   style="fill:#07a64f;stroke:none" />
	<path
   d="m 370.09,385.467 c 0,0 28.771,-6.321 33.783,-11.551 0,0 -3.488,18.745 -42.283,30.731 0,0 -11.114,1.744 -4.358,-7.629 6.757,-9.372 6.319,-9.589 12.858,-11.551 z"
   id="path45"
   inkscape:connector-curvature="0"
   style="fill:#07a64f;stroke:none" />
	<path
   d="m 416.297,313.761 c 0,0 -7.191,15.04 -6.975,20.707 0.218,5.667 -1.961,11.986 -1.961,11.986 0,0 29.64,-14.603 34,-21.142 0,0 -9.155,22.017 -32.693,33.349 0,0 -16.129,11.114 -18.525,13.075 0,0 -1.962,-36.616 26.154,-57.975 z"
   id="path47"
   inkscape:connector-curvature="0"
   style="fill:#07a64f;stroke:none" />
	<path
   d="m 432.426,267.337 c 0,0 3.269,18.961 0.872,28.333 0,0 22.669,-13.078 27.898,-25.064 0,0 0,18.963 -22.014,41.194 -22.014,22.231 -17.219,17.653 -17.219,17.653 0,0 -1.31,-32.693 -1.09,-37.488 0.219,-4.795 5.014,-18.089 11.553,-24.628 z"
   id="path49"
   inkscape:connector-curvature="0"
   style="fill:#07a64f;stroke:none" />
	<path
   d="m 461.849,208.488 c 0,0 -6.483,19.125 -8.063,21.359 -1.583,2.234 -5.013,14.166 -5.013,14.166 0,0 -5.015,-9.587 -8.065,-13.73 -3.051,-4.142 -6.103,-10.025 -6.103,-12.641 0,0 -4.143,20.924 0.872,34.872 5.013,13.948 7.847,27.244 7.847,27.244 0,0 19.617,-28.769 20.27,-42.064 0.654,-13.295 -10e-4,-23.321 -1.745,-29.206 z"
   id="path51"
   inkscape:connector-curvature="0"
   style="fill:#07a64f;stroke:none" />
	<path
   d="m 438.526,150.73 c 0,0 -1.961,31.603 0,35.309 0,0 -20.486,-14.385 -21.142,-17.436 0,0 1.962,28.99 21.142,44.246 0,0 6.103,8.064 5.885,12.423 0,0 20.269,-32.042 -5.885,-74.542 z"
   id="path53"
   inkscape:connector-curvature="0"
   style="fill:#07a64f;stroke:none" />
	<path
   d="m 408.449,105.614 c 0,0 7.411,25.938 7.411,30.515 0,0 -20.271,-3.924 -23.758,-8.937 0,0 12.204,21.36 27.026,31.168 14.82,9.808 14.168,15.692 14.168,15.692 0,0 7.41,-45.989 -24.847,-68.438 z"
   id="path55"
   inkscape:connector-curvature="0"
   style="fill:#07a64f;stroke:none" />
	<path
   d="m 409.104,127.628 c 0,0 -6.757,-39.886 -49.258,-44.681 0,0 15.04,33.565 49.258,44.681 z"
   id="path57"
   inkscape:connector-curvature="0"
   style="fill:#07a64f;stroke:none" />
</g>
<line
   x1="204.17435"
   y1="1.2275336"
   x2="213.83136"
   y2="14.058522"
   id="line59"
   style="fill:none;stroke:#ce1126;stroke-width:2.29550004;stroke-linecap:round;stroke-linejoin:round;stroke-opacity:1" />
<line
   x1="215.15337"
   y1="22.128517"
   x2="197.42834"
   y2="5.9895363"
   id="line61"
   style="fill:none;stroke:#ce1126;stroke-width:2.29550004;stroke-linecap:round;stroke-linejoin:round;stroke-opacity:1" />
<line
   x1="207.61334"
   y1="22.656517"
   x2="194.78334"
   y2="13.794526"
   id="line63"
   style="fill:none;stroke:#ce1126;stroke-width:2.29550004;stroke-linecap:round;stroke-linejoin:round;stroke-opacity:1" />
<line
   x1="208.01035"
   y1="51.757584"
   x2="193.85735"
   y2="61.413586"
   id="line65"
   style="fill:none;stroke:#ce1126;stroke-width:2.29550004;stroke-linecap:round;stroke-linejoin:round;stroke-opacity:1" />
<line
   x1="214.35936"
   y1="52.153584"
   x2="198.08934"
   y2="68.688568"
   id="line67"
   style="fill:none;stroke:#ce1126;stroke-width:2.29550004;stroke-linecap:round;stroke-linejoin:round;stroke-opacity:1" />
<line
   x1="214.09535"
   y1="60.09058"
   x2="204.43935"
   y2="73.979568"
   id="line69"
   style="fill:none;stroke:#ce1126;stroke-width:2.29550004;stroke-linecap:round;stroke-linejoin:round;stroke-opacity:1" />
<line
   x1="255.34933"
   y1="1.2275336"
   x2="245.69334"
   y2="14.058522"
   id="line71"
   style="fill:none;stroke:#ce1126;stroke-width:2.29550004;stroke-linecap:round;stroke-linejoin:round;stroke-opacity:1" />
<line
   x1="244.37134"
   y1="22.128517"
   x2="262.09631"
   y2="5.9895363"
   id="line73"
   style="fill:none;stroke:#ce1126;stroke-width:2.29550004;stroke-linecap:round;stroke-linejoin:round;stroke-opacity:1" />
<line
   x1="251.90933"
   y1="22.656517"
   x2="264.7413"
   y2="13.794526"
   id="line75"
   style="fill:none;stroke:#ce1126;stroke-width:2.29550004;stroke-linecap:round;stroke-linejoin:round;stroke-opacity:1" />
<line
   x1="251.51334"
   y1="51.757584"
   x2="265.66733"
   y2="61.413586"
   id="line77"
   style="fill:none;stroke:#ce1126;stroke-width:2.29550004;stroke-linecap:round;stroke-linejoin:round;stroke-opacity:1" />
<line
   x1="245.16434"
   y1="52.153584"
   x2="261.4353"
   y2="68.688568"
   id="line79"
   style="fill:none;stroke:#ce1126;stroke-width:2.29550004;stroke-linecap:round;stroke-linejoin:round;stroke-opacity:1" />
<line
   x1="245.42935"
   y1="60.09058"
   x2="255.08435"
   y2="73.979568"
   id="line81"
   style="fill:none;stroke:#ce1126;stroke-width:2.29550004;stroke-linecap:round;stroke-linejoin:round;stroke-opacity:1" />
<g
   id="g83"
   transform="translate(-6.5156633,-1.1638709)">
	<g
   id="g85">
		<g
   id="g87">
			<g
   id="g89">
				<path
   d="m 435.025,371.004 c 0.307,0.201 0.592,0.352 0.876,0.502 l -0.094,0.208 c 10.583,4.757 19.292,10.387 19.021,12.289 -0.028,0.191 -0.596,0.751 -2.864,1.065 -4.136,0.571 -10.14,0.767 -16.492,0.975 -1.574,0.052 -3.047,0.105 -4.468,0.159 0.88,-3.324 3.328,-12.578 4.021,-15.198 z m -22.07,24.08 2.213,1.441 c 5.1,3.31 11.448,7.43 10.953,9.285 -0.211,0.792 -2.201,2.708 -16.104,3.466 -0.896,0.05 -1.791,0.054 -2.686,0.076 l 4.146,-15.367 c 0.481,0.413 0.998,0.786 1.478,1.099 z M 65.224,409.353 c -0.896,-0.022 -1.789,-0.026 -2.686,-0.076 -13.903,-0.758 -15.894,-2.674 -16.104,-3.463 -0.495,-1.858 5.852,-5.977 10.953,-9.288 l 2.215,-1.441 c 0.48,-0.313 0.997,-0.686 1.475,-1.096 l 4.147,15.364 z m -47.497,-25.35 c -0.273,-1.902 8.437,-7.529 19.02,-12.289 l -0.093,-0.208 c 0.284,-0.15 0.569,-0.301 0.876,-0.502 0.693,2.62 3.141,11.874 4.02,15.198 -1.42,-0.054 -2.892,-0.107 -4.467,-0.159 -6.354,-0.208 -12.355,-0.403 -16.492,-0.975 -2.269,-0.314 -2.836,-0.874 -2.864,-1.065 z m 18.923,39.28 c -1.104,-0.951 -1.664,-1.998 -1.664,-3.114 0,-5.046 -11.201,-25.222 -15.615,-32.976 0.359,0.067 0.684,0.116 0.905,0.148 4.256,0.589 10.315,0.786 16.731,0.995 8.014,0.262 22.93,0.751 23.463,2.807 0,0.004 -0.041,0.654 -2.127,2.021 l -2.207,1.435 c -7.457,4.841 -12.846,8.335 -11.922,11.803 0.082,0.306 0.222,0.592 0.398,0.865 l -0.249,0.11 c 0.069,0.159 4.363,9.996 7.718,19.297 -6.046,0.527 -12.453,-0.822 -15.431,-3.391 z m 377.614,17.385 c -0.031,0.554 -0.332,1.056 -0.922,1.54 -5.817,4.779 -32.076,3.434 -44.843,1.651 l -5.421,-0.791 c -14.277,-2.125 -38.172,-5.678 -54.802,-2.706 l -9.429,1.733 c -18.875,3.506 -44.725,8.31 -62.562,8.166 -18.521,-0.147 -45.201,-5.017 -64.682,-8.569 l -7.327,-1.33 c -16.629,-2.972 -40.521,0.581 -54.8,2.706 l -5.423,0.791 c -12.766,1.782 -39.025,3.128 -44.844,-1.651 -0.587,-0.484 -0.889,-0.986 -0.92,-1.54 -0.374,-6.616 -7.561,-24.185 -10.55,-31.241 2.883,1.085 7.606,1.758 14.671,2.141 13.36,0.727 26.333,-1.426 40.065,-3.703 15.553,-2.58 31.636,-5.248 50.731,-4.369 18.724,0.863 34.457,3.701 48.338,6.205 13.053,2.354 24.326,4.388 34.754,4.172 9.811,-0.204 20.322,-2.024 32.495,-4.132 14.443,-2.499 30.816,-5.335 50.551,-6.245 19.095,-0.879 35.177,1.789 50.728,4.369 13.735,2.277 26.706,4.43 40.066,3.703 7.064,-0.383 11.79,-1.056 14.673,-2.141 -2.988,7.056 -10.175,24.625 -10.547,31.241 z m 23.303,-20.499 c 0,1.116 -0.561,2.163 -1.663,3.114 -2.981,2.568 -9.387,3.918 -15.433,3.392 3.356,-9.301 7.649,-19.138 7.719,-19.297 l -0.249,-0.11 c 0.175,-0.273 0.316,-0.56 0.396,-0.865 0.926,-3.468 -4.463,-6.962 -11.921,-11.803 l -2.206,-1.435 c -2.087,-1.367 -2.125,-2.018 -2.125,-2.024 0.533,-2.053 15.447,-2.542 23.462,-2.804 6.413,-0.209 12.475,-0.406 16.729,-0.995 0.222,-0.032 0.545,-0.081 0.906,-0.148 -4.416,7.753 -15.615,27.929 -15.615,32.975 z"
   id="path91"
   inkscape:connector-curvature="0"
   style="fill:#ffffff;stroke:none" />
			</g>
		</g>
	</g>
</g>
<g
   id="g93"
   transform="translate(-6.5156633,-1.1638709)">
	<path
   d="m 455.774,384.983 c 0,0 -17.06,29.397 -17.06,35.186 0,5.789 -10.967,8.835 -20.105,7.463"
   id="path95"
   inkscape:connector-curvature="0"
   style="fill:none;stroke:#000000;stroke-width:2.29999995;stroke-miterlimit:4;stroke-opacity:1;stroke-dasharray:none" />
	<path
   d="m 436.735,370.665 c 0,0 -2.284,-1.069 -2.284,-1.981 l -4.876,18.432"
   id="path97"
   inkscape:connector-curvature="0"
   style="fill:none;stroke:#010101;stroke-width:2.29999995;stroke-miterlimit:4;stroke-dasharray:none" />
	<g
   id="g99">
		<line
   x1="61.563"
   y1="391.383"
   x2="66.741997"
   y2="410.57401"
   id="line101"
   style="fill:none;stroke:#010101;stroke-width:2.29999995;stroke-miterlimit:4;stroke-dasharray:none" />
		<g
   id="g103">
			<path
   d="m 16.78,384.983 c 0,0 17.06,29.397 17.06,35.186 0,5.789 10.966,8.835 20.106,7.463"
   id="path105"
   inkscape:connector-curvature="0"
   style="fill:none;stroke:#000000;stroke-width:2.29999995;stroke-miterlimit:4;stroke-opacity:1;stroke-dasharray:none" />
			<path
   d="m 35.82,370.665 c 0,0 2.284,-1.069 2.284,-1.981 l 4.875,18.432"
   id="path107"
   inkscape:connector-curvature="0"
   style="fill:none;stroke:#010101;stroke-width:2.29999995;stroke-miterlimit:4;stroke-dasharray:none" />
			<path
   d="m 436.278,370.667 c 0,0 30.162,13.559 15.842,15.538 -14.317,1.979 -51.333,-0.458 -38.537,7.92 12.796,8.377 24.524,14.772 -3.504,16.297 -28.028,1.525 -54.38,-9.749 -90.785,-8.072 -36.406,1.677 -61.69,9.934 -83.016,10.375 -21.326,0.441 -46.61,-8.698 -83.016,-10.375 -36.406,-1.677 -62.758,9.597 -90.787,8.072 -28.029,-1.525 -16.298,-7.92 -3.503,-16.297 12.796,-8.378 -24.219,-5.94 -38.539,-7.92 -14.319,-1.979 15.842,-15.538 15.842,-15.538"
   id="path109"
   inkscape:connector-curvature="0"
   style="fill:none;stroke:#000000;stroke-width:2.29999995;stroke-miterlimit:4;stroke-opacity:1;stroke-dasharray:none" />
			<path
   d="m 427.138,406.918 c 0,0 -11.273,25.74 -11.729,33.814 -0.457,8.075 -33.969,6.093 -47.069,4.264 -13.099,-1.829 -41.125,-6.853 -59.861,-3.504 -18.736,3.35 -51.028,10.088 -72.201,9.918 -21.173,-0.171 -53.466,-6.568 -72.202,-9.918 -18.736,-3.349 -46.762,1.675 -59.862,3.504 -13.1,1.829 -46.612,3.812 -47.068,-4.264 -0.457,-8.074 -11.73,-33.814 -11.73,-33.814"
   id="path111"
   inkscape:connector-curvature="0"
   style="fill:none;stroke:#000000;stroke-width:2.29999995;stroke-miterlimit:4;stroke-opacity:1;stroke-dasharray:none" />
		</g>
		<line
   x1="410.991"
   y1="391.383"
   x2="405.81299"
   y2="410.57401"
   id="line113"
   style="fill:none;stroke:#010101;stroke-width:2.29999995;stroke-miterlimit:4;stroke-dasharray:none" />
	</g>
</g>
<path
   d="m 141.64135,177.59009 h 29.223 c -7.308,0 -14.617,-6.336 -14.617,-6.336 0,0 -7.302,6.336 -14.606,6.336 z m -11.443,0 h 11.443 c -6.306,0 -12.601,-4.708 -14.213,-6.002 l 2.77,6.002 z m 40.666,0 h 29.229 c -7.307,0 -14.615,-6.336 -14.615,-6.336 0,0 -7.307,6.336 -14.614,6.336 z m 29.229,0 h 29.229 c -7.306,0 -14.612,-6.336 -14.612,-6.336 0,0 -7.307,6.336 -14.617,6.336 z m 86.472,0 h 29.224 c -7.309,0 -14.616,-6.336 -14.616,-6.336 0,0 -7.305,6.336 -14.608,6.336 z m 29.223,0 h 12.388 l 2.004,-6.151 c -1.229,1.01 -7.802,6.151 -14.392,6.151 z m -57.835,-0.032 c -7.104,-0.342 -14.006,-6.304 -14.006,-6.304 0,0 -7.313,6.336 -14.625,6.336 h 57.243 c -7.308,0 -14.62,-6.336 -14.62,-6.336 0,0 -6.896,5.962 -13.992,6.304 z"
   id="path115"
   inkscape:connector-curvature="0"
   style="fill:#07a64f" />
<path
   d="m 327.10935,185.27309 c -7.306,0 -10.675,-6.336 -10.675,-6.336 0,0 -7.309,6.336 -14.614,6.336 -7.308,0 -14.616,-6.336 -14.616,-6.336 0,0 -7.304,6.336 -14.606,6.336 -7.309,0 -14.621,-6.336 -14.621,-6.336 0,0 -7.308,6.336 -14.616,6.336 h 1.253 c -7.318,0 -14.634,-6.336 -14.634,-6.336 0,0 -7.313,6.336 -14.625,6.336 -7.306,0 -14.612,-6.336 -14.612,-6.336 0,0 -7.306,6.336 -14.616,6.336 -7.307,0 -14.615,-6.336 -14.615,-6.336 0,0 -7.308,6.336 -14.614,6.336 -7.308,0 -14.617,-6.336 -14.617,-6.336 0,0 -2.987,6.336 -10.291,6.336 h 195.119 z"
   id="path117"
   inkscape:connector-curvature="0"
   style="fill:#07a64f" />
<path
   d="m 327.10935,200.76709 c -7.306,0 -10.675,-6.336 -10.675,-6.336 0,0 -7.309,6.336 -14.614,6.336 -7.308,0 -14.616,-6.336 -14.616,-6.336 0,0 -7.304,6.336 -14.606,6.336 -7.309,0 -14.621,-6.336 -14.621,-6.336 0,0 -7.308,6.336 -14.616,6.336 h 1.253 c -7.318,0 -14.634,-6.336 -14.634,-6.336 0,0 -7.313,6.336 -14.625,6.336 -7.306,0 -14.612,-6.336 -14.612,-6.336 0,0 -7.306,6.336 -14.616,6.336 -7.307,0 -14.615,-6.336 -14.615,-6.336 0,0 -7.308,6.336 -14.614,6.336 -7.308,0 -14.617,-6.336 -14.617,-6.336 0,0 -2.987,6.336 -10.291,6.336 h 195.119 z"
   id="path119"
   inkscape:connector-curvature="0"
   style="fill:#07a64f" />
<path
   d="m 142.33435,192.22409 h 29.113 c -7.28,0 -14.563,-6.336 -14.563,-6.336 0,0 -7.275,6.336 -14.55,6.336 z m -6.826,-0.287 6.826,0.287 c -6.283,0 -12.554,-4.708 -9.587,-6.289 l 2.761,6.002 z m 35.939,0.287 h 29.12 c -7.28,0 -14.56,-6.336 -14.56,-6.336 0,0 -7.281,6.336 -14.56,6.336 z m 29.12,0 h 29.12 c -7.279,0 -14.559,-6.336 -14.559,-6.336 0,0 -7.277,6.336 -14.561,6.336 z m 86.148,0 h 29.115 c -7.281,0 -14.563,-6.336 -14.563,-6.336 0,0 -7.276,6.336 -14.552,6.336 z m 29.115,0 h 8.624 l 1.997,-6.151 c 2.493,1.01 -4.054,6.151 -10.621,6.151 z m -57.619,-0.033 c -7.077,-0.342 -13.955,-6.304 -13.955,-6.304 0,0 -7.283,6.336 -14.568,6.336 h 57.027 c -7.279,0 -14.564,-6.336 -14.564,-6.336 0,0 -6.872,5.963 -13.94,6.304 z"
   id="path121"
   inkscape:connector-curvature="0"
   style="fill:#07a64f" />
<line
   x1="130.84036"
   y1="178.12012"
   x2="327.10934"
   y2="178.12012"
   id="line123"
   style="fill:none;stroke:#07a64f;stroke-width:1.14779997" />
<line
   x1="130.84036"
   y1="185.00713"
   x2="327.10934"
   y2="185.00713"
   id="line125"
   style="fill:none;stroke:#07a64f;stroke-width:1.14779997" />
<line
   x1="133.93335"
   y1="191.60712"
   x2="324.01532"
   y2="191.60712"
   id="line127"
   style="fill:none;stroke:#07a64f;stroke-width:1.12950003" />
<line
   x1="133.93335"
   y1="200.21512"
   x2="324.01532"
   y2="200.21512"
   id="line129"
   style="fill:none;stroke:#07a64f;stroke-width:1.12950003" />
<path
   d="m 263.01335,137.35609 c 8.918,2.237 17.34,4.35 25.033,4.881 12.662,0.874 27.016,-4.095 35.955,-7.899 5.492,4.454 10.259,8.317 17.641,14.302 -7.687,11.741 -17.492,31.464 -17.492,55.702 0,6.696 0.749,13.735 2.495,21.045 1.84,7.688 4.593,15.652 7.508,24.084 5.438,15.742 11.004,31.844 11.004,46.745 0,7.202 -1.3,14.123 -4.539,20.588 -7.714,15.388 -26.646,27.981 -56.274,37.433 l 0.401,-0.123 c -28.06,8.019 -45.225,18.837 -55.139,27.181 -9.915,-8.344 -27.079,-19.162 -55.139,-27.181 l 0.401,0.123 c -29.629,-9.451 -48.562,-22.045 -56.274,-37.433 -3.24,-6.465 -4.541,-13.386 -4.541,-20.588 0,-14.903 5.565,-31.003 11.006,-46.745 2.914,-8.433 5.667,-16.396 7.505,-24.084 1.749,-7.311 2.496,-14.351 2.496,-21.045 0,-24.238 -9.805,-43.96 -17.492,-55.702 7.382,-5.984 12.148,-9.849 17.64,-14.302 8.94,3.804 23.295,8.773 35.956,7.899 7.693,-0.531 16.116,-2.644 25.034,-4.881 11.245,-2.82 22.87,-5.735 33.252,-5.599 h 0.312 c 10.381,-0.137 22.007,2.778 33.251,5.599 z"
   id="path131"
   style="fill:none;stroke:#0b295e;stroke-width:3.44330001;stroke-opacity:1"
   inkscape:connector-curvature="0" />
<g
   id="g133"
   transform="translate(-6.5156633,-1.1638709)">
	<path
   d="m 238.457,165.319 c 0,0 9.185,-5.931 18.174,1.148 0,0 -5.741,-8.035 -13.393,-7.843 0,0 6.887,-7.459 19.321,-1.53 0,0 -6.889,-8.991 -20.469,-4.974 0,0 10.903,-6.504 17.79,-2.87 0,0 -8.034,-5.548 -13.39,-3.443 0,0 1.15,-5.164 6.122,-7.651 0,0 -12.433,1.912 -15.495,6.503 0,0 -2.104,-4.783 -8.035,-6.887 0,0 3.061,6.122 1.914,8.992 0,0 -10.522,-10.33 -20.278,-5.356 0,0 -2.678,2.295 -2.678,5.165 0,0 7.651,-4.208 11.86,0.574 0,0 -9.564,-1.148 -14.921,8.608 0,0 13.965,-5.738 23.147,0.192 0,0 -13.774,0.19 -15.304,10.138 0,0 12.509,-6.482 17.982,-1.339 0,0 4.019,4.59 7.653,0.573 z"
   id="path135"
   inkscape:connector-curvature="0"
   style="fill:#07a64f;stroke:none" />
	<rect
   x="232.511"
   y="167.44901"
   width="6.974"
   height="31.287001"
   id="rect137"
   style="fill:#995037;stroke:none" />
	<path
   d="m 239.794,162.642 c 0,2.454 -3.251,4.442 -3.251,4.442 0,0 -3.252,-1.988 -3.252,-4.442 0,-2.454 1.456,-4.442 3.252,-4.442 1.796,0 3.251,1.988 3.251,4.442 z"
   id="path139"
   style="fill:#f6c906;fill-opacity:1;stroke:#754438;stroke-width:0.80339998"
   inkscape:connector-curvature="0" />
	<path
   d="m 235.214,170.104 c -1.165,2.16 -4.97,2.367 -4.97,2.367 0,0 -1.919,-3.294 -0.754,-5.454 1.165,-2.159 3.39,-3.218 4.971,-2.366 1.581,0.853 1.917,3.293 0.753,5.453 z"
   id="path141"
   style="fill:#f6c906;fill-opacity:1;stroke:#754438;stroke-width:0.80339998"
   inkscape:connector-curvature="0" />
	<path
   d="m 242.191,165.635 c 1.955,1.483 1.576,5.275 1.576,5.275 0,0 -3.551,1.39 -5.506,-0.093 -1.955,-1.482 -2.659,-3.844 -1.574,-5.275 1.086,-1.432 3.549,-1.39 5.504,0.093 z"
   id="path143"
   style="fill:#f6c906;fill-opacity:1;stroke:#754438;stroke-width:0.80339998"
   inkscape:connector-curvature="0" />
</g>
<path
   d="m 284.74435,354.11409 c -0.104,0.028 -0.199,0.061 -0.305,0.089 -0.031,0.012 -0.063,0.022 -0.097,0.034 l 0.402,-0.123 z m 49.408,-104.642 c -2.915,-8.433 -5.668,-16.396 -7.508,-24.084 -1.233,-5.163 -1.946,-10.181 -2.273,-15.047 l -0.448,-0.643 c -72.789,10.309 -94.161,-15.476 -94.161,-15.476 -41.719,32.13 -94.426,15.476 -94.426,15.476 -0.139,-0.04 -0.292,-0.057 -0.435,-0.089 -0.299,5.091 -1.04,10.36 -2.336,15.779 -1.838,7.688 -4.591,15.652 -7.505,24.084 -5.44,15.742 -11.006,31.842 -11.006,46.745 0,7.202 1.3,14.123 4.541,20.588 7.704,15.369 26.605,27.952 56.177,37.398 27.876,8.01 44.957,18.779 54.835,27.092 9.878,-8.313 26.96,-19.082 54.834,-27.092 29.573,-9.446 48.473,-22.029 56.178,-37.398 3.239,-6.465 4.539,-13.386 4.539,-20.588 -0.002,-14.902 -5.567,-31.003 -11.006,-46.745 z m -159.284,104.765 c -0.034,-0.012 -0.064,-0.022 -0.098,-0.034 -0.103,-0.028 -0.199,-0.061 -0.304,-0.089 l 0.402,0.123 z"
   id="path145"
   style="fill:#0b295e;fill-opacity:1;stroke:none"
   inkscape:connector-curvature="0" />
<polygon
   points="169.396,276.156 154.515,265.194 172.828,265.487 178.376,247.751 184.033,265.456 202.34,265.055 187.526,276.103 193.29,293.193 178.48,282.716 163.729,293.28 "
   id="polygon147"
   style="fill:#ffffff"
   transform="translate(-6.5156633,-1.1638709)" />
<polygon
   points="227.311,231.584 212.43,220.622 230.743,220.916 236.291,203.179 241.947,220.884 260.255,220.483 245.442,231.53 251.206,248.621 236.395,238.143 221.645,248.708 "
   id="polygon149"
   style="fill:#ffffff"
   transform="translate(-6.5156633,-1.1638709)" />
<polygon
   points="227.311,347.414 212.43,336.452 230.743,336.745 236.291,319.009 241.947,336.714 260.255,336.313 245.442,347.36 251.206,364.451 236.395,353.974 221.645,364.538 "
   id="polygon151"
   style="fill:#ffffff"
   transform="translate(-6.5156633,-1.1638709)" />
<polygon
   points="294.323,262.513 279.442,251.551 297.754,251.845 303.303,234.108 308.958,251.813 327.267,251.412 312.454,262.459 318.217,279.55 303.406,269.072 288.656,279.638 "
   id="polygon153"
   style="fill:#ffffff"
   transform="translate(-6.5156633,-1.1638709)" />
<polygon
   points="258.195,299.511 246.408,290.826 260.914,291.059 265.308,277.008 269.789,291.034 284.291,290.716 272.555,299.468 277.124,313.006 265.391,304.707 253.705,313.075 "
   id="polygon155"
   style="fill:#ffffff"
   transform="translate(-6.5156633,-1.1638709)" />
<g
   id="g157"
   transform="translate(-6.5156633,-1.1638709)">
	<path
   d="m 66.369,417.421 11.91,0.635 -0.215,4.044 -6.931,-0.37 -0.184,3.438 6.52,0.348 -0.214,4.018 -6.52,-0.348 -0.375,7.041 -4.978,-0.265 0.987,-18.541 z"
   id="path159"
   inkscape:connector-curvature="0"
   style="fill:#ce1126;fill-opacity:1;stroke:none" />
	<path
   d="m 83.766,432.03 -0.828,4.345 -5.144,0.262 4.448,-18.816 6.602,-0.337 6.474,18.262 -5.365,0.273 -1.401,-4.232 -4.786,0.243 z m 3.912,-3.893 -1.022,-3.287 c -0.328,-1.031 -0.763,-2.526 -1.095,-3.613 l -0.055,0.005 c -0.218,1.113 -0.416,2.667 -0.638,3.728 l -0.629,3.343 3.439,-0.176 z"
   id="path161"
   inkscape:connector-curvature="0"
   style="fill:#ce1126;fill-opacity:1;stroke:none" />
	<path
   d="m 99.5,415.957 c -0.621,2.923 -1.543,5.629 -2.73,8.198 l -2.93,0.571 c 0.639,-2.757 1.068,-5.409 1.197,-8.029 l 4.463,-0.74 z"
   id="path163"
   inkscape:connector-curvature="0"
   style="fill:#ce1126;fill-opacity:1;stroke:none" />
	<path
   d="m 106.248,429.849 -0.406,4.403 -5.096,0.755 2.624,-19.157 6.541,-0.967 8.194,17.556 -5.314,0.786 -1.801,-4.077 -4.742,0.701 z m 3.521,-4.252 -1.333,-3.172 c -0.426,-0.996 -1.002,-2.441 -1.436,-3.491 l -0.055,0.007 c -0.111,1.13 -0.157,2.697 -0.277,3.773 l -0.306,3.387 3.407,-0.504 z"
   id="path165"
   inkscape:connector-curvature="0"
   style="fill:#ce1126;fill-opacity:1;stroke:none" />
	<path
   d="m 123.676,431.766 -7.874,-17.817 5.423,-0.592 2.736,7.044 c 0.826,1.988 1.54,3.961 2.238,6.295 l 0.055,-0.005 c 0.218,-2.324 0.504,-4.518 0.837,-6.548 l 1.198,-7.558 5.258,-0.573 -4.039,19.117 -5.832,0.637 z"
   id="path167"
   inkscape:connector-curvature="0"
   style="fill:#ce1126;fill-opacity:1;stroke:none" />
	<path
   d="m 141.374,425.967 -0.95,4.319 -5.15,0.114 4.981,-18.683 6.609,-0.147 5.952,18.436 -5.37,0.121 -1.281,-4.269 -4.791,0.109 z m 4.021,-3.784 -0.928,-3.313 c -0.299,-1.04 -0.691,-2.547 -0.992,-3.641 h -0.055 c -0.25,1.107 -0.491,2.656 -0.743,3.71 l -0.724,3.322 3.442,-0.078 z"
   id="path169"
   inkscape:connector-curvature="0"
   style="fill:#ce1126;fill-opacity:1;stroke:none" />
	<path
   d="m 168.349,424.761 -6.574,-1.105 -0.567,3.369 7.362,1.237 -0.676,4.02 -12.278,-2.064 3.078,-18.309 11.898,2 -0.671,3.994 -6.98,-1.174 -0.498,2.961 6.574,1.105 -0.668,3.966 z"
   id="path171"
   inkscape:connector-curvature="0"
   style="fill:#ce1126;fill-opacity:1;stroke:none" />
	
	<path
   d="m 187.81092,416.855 -3.099,18.306 -4.917,-0.832 3.099,-18.306 4.917,0.832 z"
   id="path175"
   inkscape:connector-curvature="0"
   style="fill:#ce1126;fill-opacity:1;stroke:none" />
	<path
   d="m 199.0184,418.81326 4.939,0.685 -1.978,14.271 7.067,0.979 -0.572,4.12 -12.006,-1.663 2.55,-18.392 z"
   id="path177"
   inkscape:connector-curvature="0"
   style="fill:#ce1126;fill-opacity:1;stroke:none" />
	<path
   d="m 223.6064,432.80326 -6.639,-0.599 -0.307,3.402 7.435,0.668 -0.365,4.063 -12.4,-1.119 1.665,-18.489 12.017,1.08 -0.363,4.033 -7.05,-0.635 -0.27,2.991 6.64,0.598 -0.363,4.007 z"
   id="path179"
   inkscape:connector-curvature="0"
   style="fill:#ce1126;fill-opacity:1;stroke:none" />
	<path
   d="m 241.263,436.76 -0.749,4.36 -5.138,0.354 4.104,-18.894 6.595,-0.457 6.804,18.14 -5.357,0.372 -1.478,-4.205 -4.781,0.33 z m 3.84,-3.965 -1.083,-3.267 c -0.347,-1.024 -0.809,-2.511 -1.158,-3.591 l -0.057,0.002 c -0.197,1.118 -0.367,2.677 -0.569,3.739 l -0.569,3.354 3.436,-0.237 z"
   id="path181"
   inkscape:connector-curvature="0"
   style="fill:#ce1126;fill-opacity:1;stroke:none" />
	<path
   d="m 255.025,425.339 -4.698,0.614 -0.541,-4.123 14.422,-1.892 0.54,4.125 -4.779,0.625 1.874,14.284 -4.945,0.65 -1.873,-14.283 z"
   id="path183"
   inkscape:connector-curvature="0"
   style="fill:#ce1126;fill-opacity:1;stroke:none" />
	<path
   d="m 271.103,418.779 1.757,10.377 c 0.471,2.769 1.688,4.184 3.616,3.855 1.955,-0.329 2.663,-1.93 2.17,-4.837 l -1.758,-10.375 4.917,-0.832 1.71,10.102 c 0.957,5.649 -1.383,8.98 -6.517,9.85 -5.023,0.853 -8.124,-1.445 -9.122,-7.339 l -1.689,-9.967 4.916,-0.834 z"
   id="path185"
   inkscape:connector-curvature="0"
   style="fill:#ce1126;fill-opacity:1;stroke:none" />
	<path
   d="m 291.928,429.585 -0.244,4.416 -5.064,0.941 1.919,-19.241 6.499,-1.208 8.835,17.243 -5.282,0.982 -1.947,-4.009 -4.716,0.876 z m 3.363,-4.379 -1.447,-3.122 c -0.462,-0.978 -1.092,-2.401 -1.563,-3.435 l -0.057,0.009 c -0.069,1.135 -0.059,2.701 -0.137,3.779 l -0.182,3.396 3.386,-0.627 z"
   id="path187"
   inkscape:connector-curvature="0"
   style="fill:#ce1126;fill-opacity:1;stroke:none" />
	<path
   d="m 312.701,425.363 c 1.143,0.554 3.001,1.09 4.846,1.049 1.706,-0.035 2.521,-0.634 2.5,-1.569 -0.021,-0.91 -0.858,-1.414 -2.966,-2.084 -3.165,-1.031 -5.269,-2.722 -5.328,-5.477 -0.072,-3.275 2.625,-5.871 7.308,-5.975 2.23,-0.049 3.809,0.329 5.06,0.854 l -0.96,3.987 c -0.805,-0.341 -2.194,-0.834 -4.066,-0.791 -1.515,0.034 -2.329,0.601 -2.311,1.428 0.02,0.938 1.02,1.301 3.38,2.13 3.36,1.139 4.914,2.896 4.971,5.483 0.071,3.194 -2.374,6.003 -7.8,6.124 -2.23,0.05 -4.42,-0.509 -5.479,-1.037 l 0.845,-4.122 z"
   id="path189"
   inkscape:connector-curvature="0"
   style="fill:#ce1126;fill-opacity:1;stroke:none" />
	<path
   d="m 333.576,426.354 -1.413,4.191 -5.133,-0.443 6.98,-18.032 6.586,0.569 3.916,18.976 -5.353,-0.464 -0.81,-4.383 -4.773,-0.414 z m 4.407,-3.322 -0.563,-3.395 c -0.184,-1.066 -0.41,-2.606 -0.589,-3.73 l -0.057,-0.004 c -0.37,1.073 -0.775,2.587 -1.141,3.606 l -1.081,3.224 3.431,0.299 z"
   id="path191"
   inkscape:connector-curvature="0"
   style="fill:#ce1126;fill-opacity:1;stroke:none" />
	<path
   d="m 363.812,427.727 c 0.253,-2.107 0.558,-4.566 1.006,-7.425 l -0.083,-0.014 c -0.928,2.343 -2.094,4.983 -2.99,6.911 l -2.767,6.138 -3.842,-0.564 -0.619,-6.604 c -0.17,-2.058 -0.343,-4.869 -0.383,-7.436 l -0.054,-0.007 c -0.489,2.571 -1,5.281 -1.391,7.368 l -1.234,6.528 -4.524,-0.664 3.813,-18.205 6.622,0.971 0.502,5.114 c 0.19,2.116 0.377,4.648 0.431,6.94 l 0.107,0.016 c 0.848,-2.159 1.827,-4.661 2.656,-6.515 l 2.083,-4.706 6.485,0.951 -1.769,18.505 -4.798,-0.703 0.749,-6.599 z"
   id="path193"
   inkscape:connector-curvature="0"
   style="fill:#ce1126;fill-opacity:1;stroke:none" />
	<path
   d="m 389.264,426.886 c -0.289,5.97 -4.051,9.595 -9.773,9.316 -5.75,-0.28 -8.705,-4.755 -8.454,-9.899 0.263,-5.392 4.02,-9.512 9.687,-9.236 5.971,0.288 8.782,4.867 8.54,9.819 z m -12.969,-0.41 c -0.168,3.468 1.24,5.687 3.634,5.804 2.395,0.116 3.912,-2.154 4.073,-5.483 0.155,-3.192 -1.158,-5.683 -3.553,-5.8 -2.365,-0.115 -3.988,2.066 -4.154,5.479 z"
   id="path195"
   inkscape:connector-curvature="0"
   style="fill:#ce1126;fill-opacity:1;stroke:none" />
	<path
   d="m 396.26,431.983 -0.986,4.311 -5.151,0.074 5.139,-18.641 6.61,-0.094 5.797,18.487 -5.371,0.076 -1.244,-4.281 -4.794,0.068 z m 4.051,-3.748 -0.898,-3.32 c -0.291,-1.043 -0.67,-2.554 -0.962,-3.652 l -0.054,0.003 c -0.26,1.104 -0.514,2.651 -0.775,3.701 l -0.751,3.317 3.44,-0.049 z"
   id="path197"
   inkscape:connector-curvature="0"
   style="fill:#ce1126;fill-opacity:1;stroke:none" />
</g>
<g
   id="g199"
   transform="translate(-6.5156633,-4.2634679)">
	<path
   d="m 242.665,14.58 c 0,4.953 0,22.668 0,22.668 0,0 20.861,0 26.049,0 0,3.034 0,5.861 0,8.896 -5.188,0 -26.049,0 -26.049,0 0,0 0,33.182 0,39.024 -3.497,0 -7.981,0 -11.478,0 0,-5.842 0,-39.024 0,-39.024 0,0 -20.862,0 -26.048,0 0,-3.034 0,-5.861 0,-8.896 5.186,0 26.048,0 26.048,0 0,0 0,-17.715 0,-22.668 3.497,0 7.98,0 11.478,0 z"
   id="path201"
   style="fill:#0b295e;fill-opacity:1;stroke:#ffffff;stroke-width:2.29550004"
   inkscape:connector-curvature="0" />
</g>
</svg>