<?xml version="1.0" encoding="utf-8"?>
<!-- Generator: Adobe Illustrator 14.0.0, SVG Export Plug-In . SVG Version: 6.00 Build 43363)  -->
<!DOCTYPE svg PUBLIC "-//W3C//DTD SVG 1.1//EN" "http://www.w3.org/Graphics/SVG/1.1/DTD/svg11.dtd">
<svg version="1.1" id="Layer_1" xmlns="http://www.w3.org/2000/svg" xmlns:xlink="http://www.w3.org/1999/xlink" x="0px" y="0px"
	 width="366px" height="433px" viewBox="0 0 366 433" enable-background="new 0 0 366 433" xml:space="preserve">
<path id="path2470" fill="#0075BE" stroke="#000000" stroke-width="4" d="M205.193,425.232
	c45.885-6.508,88.602-31.898,116.938-69.508c14.096-18.703,25.287-42.629,30.762-65.766c4.764-20.125,4.553-13.32,4.863-155.985
	L358.035,3.82H180.5H2.965l0.282,130.154c0.256,118,0.4,130.969,1.581,138.887c7.756,52.109,35.402,96.008,78.464,124.59
	c25.305,16.805,52.562,26.207,84.669,29.215C174.674,427.295,196.609,426.447,205.193,425.232z"/>
<g>
	<polygon fill="#FFFFFF" stroke="#000000" points="294,310.547 294,192.046 278.402,192.046 276.652,98.046 286.652,91.046 
		286.652,71.463 272.984,71.463 272.984,83.629 260.902,83.629 260.902,71.463 249.32,71.463 249.32,83.629 239.152,83.629 
		239.152,71.463 227.07,71.463 226.652,91.046 234.902,96.796 234.902,98.046 232.902,192.046 219.5,192.046 214,63.796 222,54.296 
		222,31.546 210.5,31.546 210.5,45.546 198.75,45.546 198.75,31.546 186.5,31.546 186.5,45.546 175,45.546 175,31.546 
		162.75,31.546 162.75,45.546 150.75,45.546 150.75,31.546 139.5,31.546 139.5,54.296 147.5,63.796 142.25,192.046 127.75,192.046 
		126,98.046 136,91.046 136,71.463 122.333,71.463 122.333,83.629 110.25,83.629 110.25,71.463 98.667,71.463 98.667,83.629 
		88.5,83.629 88.5,71.463 76.417,71.463 76,91.046 84.25,96.796 84.25,98.046 82.25,192.046 66.5,192.046 66.5,310.547 
		44.055,360.447 316.977,361.176 	"/>
	<polygon fill="#FFFFFF" stroke="#000000" points="293.869,155.132 293.869,169.415 278.418,169.296 278.418,155.88 262.252,155.88 
		262.252,169.296 248.834,169.296 248.834,155.213 232.336,155.213 232.336,169.296 218.502,169.296 218.502,155.213 
		202.586,155.213 202.586,169.713 188.252,169.713 188.252,155.213 172.669,155.213 172.669,169.296 158.336,169.296 
		158.336,155.213 142.419,155.213 142.419,169.296 128.585,169.296 128.585,155.213 112.335,155.213 112.335,169.296 
		98.252,169.296 98.252,155.213 82.419,155.213 82.419,169.296 68.104,169.296 68.104,156.046 58.752,156.046 58.752,178.796 
		66.433,191 294.236,191 303.5,178.213 303.5,155.213 	"/>
</g>
<g>
	<line fill="none" stroke="#000000" stroke-width="2" x1="66.5" y1="310.547" x2="294" y2="310.547"/>
	<line fill="none" stroke="#000000" x1="66.5" y1="293.215" x2="294" y2="292.881"/>
	<line fill="none" stroke="#000000" x1="66.5" y1="276.215" x2="294" y2="276.215"/>
	<line fill="#FFFF00" stroke="#000000" x1="294" y1="259.547" x2="66.5" y2="260.547"/>
	<line fill="none" stroke="#000000" x1="66.5" y1="241.881" x2="294" y2="241.881"/>
	<line fill="none" stroke="#000000" x1="294" y1="224.215" x2="66.5" y2="224.215"/>
	<line fill="none" stroke="#000000" x1="66.5" y1="208.213" x2="294" y2="207.88"/>
	<line fill="none" stroke="#000000" stroke-width="2" x1="66.5" y1="192.046" x2="294" y2="192.046"/>
	<line fill="none" stroke="#000000" x1="86.833" y1="207.88" x2="86.833" y2="224.215"/>
	<line fill="none" stroke="#000000" x1="104.167" y1="192.046" x2="104.167" y2="207.88"/>
	<line fill="none" stroke="#000000" x1="104.167" y1="224.215" x2="104.167" y2="241.881"/>
	<line fill="none" stroke="#000000" x1="104.167" y1="260.547" x2="104.167" y2="276.215"/>
	<line fill="none" stroke="#000000" x1="104.167" y1="293.215" x2="104.167" y2="310.547"/>
	<line fill="none" stroke="#000000" x1="86.833" y1="276.215" x2="86.833" y2="292.881"/>
	<line fill="none" stroke="#000000" x1="86.833" y1="241.881" x2="86.833" y2="260.047"/>
	<line fill="none" stroke="#000000" x1="121.5" y1="208.213" x2="121.5" y2="224.215"/>
	<line fill="none" stroke="#000000" x1="138.5" y1="192.046" x2="138.5" y2="207.88"/>
	<line fill="none" stroke="#000000" x1="223.166" y1="192.046" x2="223.166" y2="207.88"/>
	<line fill="none" stroke="#000000" x1="256.5" y1="192.046" x2="256.5" y2="207.88"/>
	<line fill="none" stroke="#000000" x1="256.5" y1="224.215" x2="256.5" y2="241.881"/>
	<line fill="none" stroke="#000000" x1="256.5" y1="259.547" x2="256.5" y2="276.215"/>
	<line fill="none" stroke="#000000" x1="256.5" y1="294.896" x2="256.5" y2="310.547"/>
	<line fill="none" stroke="#000000" x1="274.5" y1="208.213" x2="274.5" y2="224.215"/>
	<line fill="none" stroke="#000000" x1="274.5" y1="241.881" x2="274.5" y2="260.047"/>
	<line fill="none" stroke="#000000" x1="274.5" y1="276.215" x2="274.5" y2="292.881"/>
	<line fill="none" stroke="#000000" x1="128.585" y1="155.213" x2="82.419" y2="155.213"/>
	<line fill="none" stroke="#000000" x1="83.331" y1="141.217" x2="126.815" y2="141.862"/>
	<line fill="none" stroke="#000000" x1="83.629" y1="127.216" x2="126.543" y2="127.207"/>
	<line fill="none" stroke="#000000" x1="83.984" y1="110.542" x2="126.239" y2="110.879"/>
	<line fill="none" stroke="#000000" x1="84.25" y1="98.046" x2="126" y2="98.046"/>
	<line fill="none" stroke="#000000" x1="76" y1="91.046" x2="136" y2="91.046"/>
	<line fill="none" stroke="#000000" x1="232.336" y1="155.213" x2="278.418" y2="155.88"/>
	<line fill="none" stroke="#000000" x1="277.457" y1="141.217" x2="233.984" y2="141.217"/>
	<line fill="none" stroke="#000000" x1="234.281" y1="127.207" x2="277.195" y2="127.207"/>
	<line fill="none" stroke="#000000" x1="277.457" y1="110.879" x2="234.629" y2="110.879"/>
	<line fill="none" stroke="#000000" x1="276.652" y1="98.046" x2="234.902" y2="98.046"/>
	<line fill="none" stroke="#000000" x1="226.652" y1="91.046" x2="286.652" y2="91.046"/>
	<line fill="none" stroke="#000000" x1="91.833" y1="98.046" x2="91.5" y2="110.542"/>
	<line fill="none" stroke="#000000" x1="91.833" y1="127.214" x2="91.833" y2="141.217"/>
	<line fill="none" stroke="#000000" x1="106" y1="155.213" x2="106" y2="141.862"/>
	<line fill="none" stroke="#000000" x1="118.5" y1="141.217" x2="118.5" y2="127.207"/>
	<line fill="none" stroke="#000000" x1="118.5" y1="110.542" x2="118.5" y2="98.046"/>
	<line fill="none" stroke="#000000" x1="242.166" y1="110.542" x2="242.166" y2="98.046"/>
	<line fill="none" stroke="#000000" x1="242.166" y1="127.207" x2="242.166" y2="141.217"/>
	<line fill="none" stroke="#000000" x1="255.377" y1="141.862" x2="255.377" y2="155.88"/>
	<line fill="none" stroke="#000000" x1="268.166" y1="141.217" x2="268.166" y2="127.214"/>
	<line fill="none" stroke="#000000" x1="268.166" y1="110.542" x2="268.166" y2="98.046"/>
	<line fill="none" stroke="#000000" x1="143.758" y1="155.213" x2="218.502" y2="155.213"/>
	<line fill="none" stroke="#000000" x1="217.09" y1="135.855" x2="144.551" y2="135.841"/>
	<line fill="none" stroke="#000000" x1="145.355" y1="116.18" x2="216.232" y2="115.863"/>
	<line fill="none" stroke="#000000" x1="215.373" y1="95.829" x2="146.173" y2="96.227"/>
	<line fill="none" stroke="#000000" x1="146.869" y1="79.201" x2="214.658" y2="79.164"/>
	<line fill="none" stroke="#000000" x1="147.5" y1="63.796" x2="214" y2="63.796"/>
	<line fill="none" stroke="#000000" x1="222" y1="54.296" x2="139.5" y2="54.296"/>
	<line fill="none" stroke="#000000" x1="160.167" y1="63.796" x2="160.167" y2="79.201"/>
	<line fill="none" stroke="#000000" x1="160.167" y1="95.644" x2="160.167" y2="115.863"/>
	<line fill="none" stroke="#000000" x1="160.167" y1="135.855" x2="160.167" y2="155.546"/>
	<line fill="none" stroke="#000000" x1="200.5" y1="155.213" x2="200.5" y2="135.855"/>
	<line fill="none" stroke="#000000" x1="200.5" y1="116.18" x2="200.5" y2="96.227"/>
	<line fill="none" stroke="#000000" x1="200.5" y1="79.164" x2="200.5" y2="63.796"/>
	<line fill="none" stroke="#000000" x1="180.82" y1="115.863" x2="180.82" y2="135.855"/>
	<line fill="none" stroke="#000000" stroke-width="2" x1="58.752" y1="179.916" x2="303.5" y2="179.333"/>
	<line fill="none" stroke="#000000" x1="240.346" y1="208.213" x2="240.346" y2="223.951"/>
</g>
<g>
	<circle stroke="#000000" stroke-linecap="round" cx="104.833" cy="128.384" r="6.167"/>
	<circle stroke="#000000" stroke-linecap="round" cx="180.82" cy="98.546" r="6.167"/>
	<circle stroke="#000000" stroke-linecap="round" cx="255.776" cy="128.785" r="6.167"/>
	<g>
		<line fill="none" stroke="#000000" stroke-width="3" stroke-linecap="round" x1="180.82" y1="72.88" x2="180.82" y2="98.546"/>
	</g>
	<g>
		
			<line fill="none" stroke="#000000" stroke-width="3" stroke-linecap="round" x1="255.629" y1="104.294" x2="255.629" y2="129.96"/>
	</g>
	<g>
		
			<line fill="none" stroke="#000000" stroke-width="3" stroke-linecap="round" x1="105.378" y1="104.294" x2="105.378" y2="129.96"/>
	</g>
</g>
<polygon fill="#F5DF03" stroke="#000000" points="52.539,82.898 45.423,58.284 20.352,63.572 38.111,45.101 20.996,26.034 
	45.871,32.178 53.826,7.822 60.942,32.437 86.014,27.149 68.254,45.619 85.369,64.686 60.494,58.542 "/>
<path fill="#FFFFFF" stroke="#000000" d="M307.361,11.421c-7.057,0-13.764,2.51-19.004,6.492c1.994-0.565,4.088-0.867,6.248-0.867
	c13.381,0,24.229,11.557,24.229,25.813s-10.848,25.813-24.229,25.813c-2.617,0-5.137-0.442-7.498-1.26
	c5.42,4.529,12.676,7.51,20.254,7.51c17.32,0,31.361-14.215,31.361-31.75S324.682,11.421,307.361,11.421z"/>
<g>
	<ellipse stroke="#000000" stroke-linecap="round" cx="180.079" cy="262.854" rx="38.912" ry="53.974"/>
	<rect x="143.758" y="243.484" stroke="#000000" width="73.332" height="87.729"/>
	<rect x="143.126" y="226.796" fill="#C5C500" stroke="#000000" width="74.026" height="3.75"/>
	<rect x="141.169" y="243.62" fill="#C5C500" stroke="#000000" width="79.583" height="3.75"/>
	<rect x="165.625" y="206.671" fill="#C5C500" stroke="#000000" width="3.75" height="45.625"/>
	<rect x="178.641" y="206.671" fill="#C5C500" stroke="#000000" width="3.75" height="45.625"/>
	<rect x="191.625" y="206.671" fill="#C5C500" stroke="#000000" width="3.75" height="45.625"/>
	<rect x="191.625" y="206.671" fill="#C5C500" stroke="#000000" width="3.75" height="45.625"/>
	<rect x="204.5" y="217.482" fill="#C5C500" stroke="#000000" width="3.75" height="34.814"/>
	<rect x="152.5" y="217.482" fill="#C5C500" stroke="#000000" width="3.75" height="34.814"/>
	<path fill="#FFFFFF" stroke="#000000" stroke-linecap="round" d="M179.82,199.963c-20.616,0-38.063,15.081-45.57,36.74l8.719,9.875
		c5.02-21.756,19.76-37.699,37.109-37.699c17.76,0,32.742,16.503,37.406,39.058l9.236-7.639
		C219.965,216.814,201.518,199.963,179.82,199.963z"/>
	<path fill="#F5DF03" stroke="#000000" d="M252.629,331.047l-0.25-113.25c-15.703,0-35.5,17.008-35.5,30.5l-0.25,82.75H252.629z"/>
	<path fill="#F5DF03" stroke="#000000" d="M111,331.047l0.25-113.25c15.705,0,35.5,17.008,35.5,30.5l0.25,82.75H111z"/>
	<g>
		<g>
			<path fill="#F5DF03" stroke="#000000" stroke-width="0.5" d="M145.981,301.723l-13.824,0.053
				c0.266,0.559,0.354,1.049,0.354,1.709c0,2.395-1.93,4.313-4.313,4.313c-2.382,0-3.912-1.932-3.912-4.313l-0.012,0.426l-0.4-12.25
				l0.004,0.188c-0.003-0.063-0.004-0.125-0.004-0.188c0-2.381,1.931-4.313,4.313-4.313s4.313,1.932,4.313,4.313
				c0,0.568-0.062,0.939-0.262,1.438h13.743"/>
			<circle fill="#F5DF03" stroke="#000000" stroke-width="0.5" cx="123.125" cy="297.41" r="4.313"/>
			<path fill="#F5DF03" stroke="#000000" stroke-width="0.5" d="M145.981,267.547l-13.824,0.053
				c0.266,0.559,0.354,1.049,0.354,1.709c0,2.395-1.93,4.313-4.313,4.313c-2.382,0-3.912-1.932-3.912-4.313l-0.012,0.426l-0.4-12.25
				l0.004,0.188c-0.003-0.063-0.004-0.125-0.004-0.188c0-2.381,1.931-4.313,4.313-4.313s4.313,1.932,4.313,4.313
				c0,0.568-0.062,0.939-0.262,1.438h13.743"/>
			<circle fill="#F5DF03" stroke="#000000" stroke-width="0.5" cx="123.125" cy="263.234" r="4.313"/>
			<line fill="#F5DF03" stroke="#000000" x1="115.75" y1="217.797" x2="115.75" y2="327.123"/>
		</g>
	</g>
	<line fill="none" stroke="#000000" x1="247.461" y1="219.012" x2="247.461" y2="327.068"/>
	<g>
		<g>
			<path fill="#F5DF03" stroke="#000000" d="M217.891,267.547l13.424,0.053c-0.266,0.559-0.355,1.049-0.355,1.709
				c0,2.395,1.93,4.313,4.313,4.313s3.912-1.932,3.912-4.313l0.012,0.426l0.4-12.25l-0.004,0.188
				c0.004-0.063,0.004-0.125,0.004-0.188c0-2.381-1.93-4.313-4.313-4.313s-4.313,1.932-4.313,4.313c0,0.568,0.063,0.939,0.262,1.438
				h-13.342"/>
			<circle fill="#F5DF03" stroke="#000000" cx="240.346" cy="263.234" r="4.313"/>
		</g>
	</g>
	<g>
		<g>
			<path fill="#F5DF03" stroke="#000000" d="M217.49,301.723l13.824,0.053c-0.266,0.559-0.355,1.049-0.355,1.709
				c0,2.395,1.93,4.313,4.313,4.313s3.912-1.932,3.912-4.313l0.012,0.426l0.4-12.25l-0.004,0.188
				c0.004-0.063,0.004-0.125,0.004-0.188c0-2.381-1.93-4.313-4.313-4.313s-4.313,1.932-4.313,4.313c0,0.568,0.063,0.939,0.262,1.438
				H217.49"/>
			<circle fill="#F5DF03" stroke="#000000" cx="240.346" cy="297.41" r="4.313"/>
		</g>
	</g>
	<line fill="none" stroke="#000000" x1="138" y1="263.396" x2="141.167" y2="263.396"/>
	<line fill="none" stroke="#000000" x1="138" y1="297.572" x2="141.167" y2="297.572"/>
	<line fill="none" stroke="#000000" x1="221.131" y1="263.396" x2="224.299" y2="263.396"/>
	<line fill="none" stroke="#000000" x1="221.131" y1="297.572" x2="224.299" y2="297.572"/>
</g>
<path fill="#009900" stroke="#000000" d="M316.576,360.575c-32.186,38.465-81.092,64.711-136.18,64.711
	c-55.021,0-104.161-26.66-135.941-65.439c19.093-23.773,72.848-40.9,136.176-40.9C244.762,318.946,298.135,336.331,316.576,360.575z
	"/>
<g>
	<polygon fill="#FFFFFF" stroke="#000000" stroke-linecap="round" points="185.898,209.556 185.902,209.551 185.9,209.55 	"/>
	<polygon fill="#FFFFFF" stroke="#000000" stroke-linecap="round" points="173.95,209.556 173.937,209.519 173.935,209.519 	"/>
	<path fill="#FFFFFF" stroke="#000000" stroke-linecap="round" d="M167.5,192.046l6.437,17.072c1.335-0.476,3.498-0.385,5.938-0.385
		c2.496,0,4.697-0.077,6.025,0.416l6.447-17.104H167.5z"/>
</g>
</svg>
