<?xml version="1.0" encoding="UTF-8"?>
<!DOCTYPE svg PUBLIC "-//W3C//DTD SVG 1.1//EN" "http://www.w3.org/Graphics/SVG/1.1/DTD/svg11.dtd">
<!-- Creator: CorelDRAW -->
<svg xmlns="http://www.w3.org/2000/svg" xml:space="preserve" width="101.6mm" height="119.38mm" style="shape-rendering:geometricPrecision; text-rendering:geometricPrecision; image-rendering:optimizeQuality; fill-rule:evenodd; clip-rule:evenodd"
viewBox="0 0 101.6 119.38"
 xmlns:xlink="http://www.w3.org/1999/xlink">
 <defs>
  <style type="text/css">
   <![CDATA[
    .str5 {stroke:#0A0B0C;stroke-width:0.3526;stroke-linecap:round;stroke-linejoin:round}
    .str4 {stroke:#1F1A17;stroke-width:0.3527;stroke-linejoin:round}
    .str0 {stroke:black;stroke-width:0.3527}
    .str6 {stroke:#0A0B0C;stroke-width:0.3527;stroke-linejoin:round}
    .str3 {stroke:#0A0B0C;stroke-width:0.3527;stroke-linecap:round;stroke-linejoin:round}
    .str1 {stroke:#0A0B0C;stroke-width:0.3528;stroke-linejoin:round}
    .str2 {stroke:#0A0B0C;stroke-width:0.3528;stroke-linecap:round;stroke-linejoin:round}
    .fil3 {fill:none}
    .fil0 {fill:#D62612}
    .fil2 {fill:#FED018}
    .fil1 {fill:white}
   ]]>
  </style>
 </defs>
 <g id="Layer_x0020_1">
  <metadata id="CorelCorpID_0Corel-Layer"/>
  <g id="_39989232">
   <path id="_42362528" class="fil0" d="M18.2904 97.9677c4.9855,4.8373 18.6366,15.3257 32.5239,17.3486 13.8871,-2.0229 27.5536,-12.5067 32.537,-17.3439l5.4173 0c6.8442,-17.353 8.0469,-23.3548 8.3593,-38.6691 -5.5743,-9.6363 -7.7322,-24.8836 -1.0565,-42.3914 -3.6345,-4.8108 -3.8303,-5.175 -7.6176,-10.0996 -7.5481,1.0179 -16.3057,-0.0633 -23.4175,-2.5129 -2.6414,-1.5175 -4.3027,-0.5237 -4.1139,-0.594 2.4185,-0.6064 4.4239,0.7177 4.2036,2.8037 -0.1663,1.5686 -1.9893,3.0095 -3.8013,3.086 -1.0048,0.0426 -1.9175,-0.1801 -2.6903,-0.58 -2.6189,-0.3914 -5.0645,-1.1169 -7.807,-1.0991 -2.7172,0.0178 -5.4241,0.7596 -8.101,1.2315 -0.71,0.3123 -1.5238,0.481 -2.4071,0.443 -1.8121,-0.0764 -3.6351,-1.5175 -3.8013,-3.0862 -0.2228,-2.0859 1.785,-3.4099 4.2035,-2.8028 0.1887,0.0695 -1.4726,-0.9242 -4.1138,0.5932 -7.1119,2.4503 -15.8695,3.5316 -23.4175,2.5131 -3.7876,4.9251 -3.9832,5.2911 -7.6178,10.0995 6.6734,17.5083 4.5156,32.7574 -1.0565,42.3915 0.3126,15.3165 1.5152,21.3159 8.3595,38.6689l5.415 0z"/>
   <path id="_42376848" class="fil1 str0" d="M65.4314 95.0928c-2.396,0.8293 -3.25,2.4549 -2.2297,5.2463 1.2251,-1.7262 3.3762,-1.9552 5.7389,-1.8407 0,0 -3.6058,-3.4504 -3.5092,-3.4056l0 0z"/>
   <path id="_42381128" class="fil1" d="M14.8579 5.7558c1.2791,-0.328 1.9851,0.4517 2.2861,1.4069 0.6251,-1.1619 1.0296,-2.7667 -0.836,-3.9538 -1.349,0.4517 -1.7983,1.3103 -1.4501,2.5469l0 0z"/>
   <path id="_42375520" class="fil2 str1" d="M41.987 9.2689c2.9174,-0.4519 5.8735,-1.335 8.8404,-1.3529 2.8393,-0.0202 5.3614,0.7596 8.0856,1.1393 -2.0008,-0.8941 -3.1852,-2.6924 -2.8975,-4.4435 0.2539,-1.549 1.4949,-3.2236 3.8595,-3.9337 -7.3593,1.0116 -10.9177,1.0227 -18.2838,0.0087 2.3495,0.7151 3.583,2.3828 3.8369,3.9274 0.3123,1.9033 -1.117,3.8634 -3.4411,4.6547z"/>
   <path id="_42384360" class="fil2 str0" d="M50.8165 118.913c-15.0535,-2.1487 -29.912,-13.2863 -35.3153,-18.425l-5.8712 0c-7.4204,-18.4387 -8.7244,-24.8135 -9.0633,-41.0875 6.0422,-10.2389 8.6403,-24.3619 1.4046,-42.9647 3.9424,-5.1118 5.595,-7.2943 9.7014,-12.5274 9.3917,1.243 17.0095,-0.4787 25.9644,-3.338 5.0559,-1.1758 7.5281,1.5691 7.8743,4.0055 0.3597,2.5268 -1.9421,5.152 -5.1921,5.015 -1.8121,-0.0765 -3.6351,-1.5175 -3.8013,-3.0862 -0.2228,-2.0859 1.785,-3.4099 4.2035,-2.8051 0.1887,0.0718 -1.4726,-0.9219 -4.1138,0.5955 -7.1119,2.448 -15.8695,3.5315 -23.4175,2.5131 -3.7876,4.9251 -3.9832,5.2887 -7.6178,10.0995 6.6734,17.5061 4.5156,32.7552 -1.0565,42.3915 0.3126,15.3142 1.5152,21.3159 8.3595,38.6689l5.415 0c4.9855,4.8372 18.6366,15.3257 32.5239,17.3485 13.8871,-2.0228 27.5536,-12.5089 32.5393,-17.3439l5.415 0c6.8442,-17.3529 8.0469,-23.3547 8.3593,-38.669 -5.5743,-9.6363 -7.7322,-24.8854 -1.0565,-42.3915 -3.6345,-4.8107 -3.8303,-5.1749 -7.6176,-10.0995 -7.5481,1.0179 -16.3057,-0.0651 -23.4175,-2.5129 -2.6414,-1.5198 -4.3027,-0.5237 -4.1139,-0.5956 2.4185,-0.6048 4.4239,0.7193 4.2036,2.8053 -0.1663,1.5685 -1.9893,3.0095 -3.8013,3.0837 -3.2502,0.1368 -5.5519,-2.4859 -5.1924,-5.0125 0.3465,-2.4365 2.8169,-5.1813 7.8745,-4.0058 8.9549,2.8593 16.5727,4.5811 25.9643,3.338 4.1065,5.2332 5.759,7.4159 9.7014,12.5269 -7.2356,18.6011 -4.6393,32.7258 1.403,42.9647 -0.3373,16.2723 -1.6411,22.6493 -9.0615,41.0882l-5.8713 -0.0001c-5.4034,5.1381 -20.2728,16.2717 -35.3262,18.4204z"/>
   <path id="_42404096" class="fil2 str2" d="M21.1589 72.8775c-0.5801,7.3752 8.2921,6.5726 11.3828,3.5586l-4.0102 -4.1519 -7.3726 0.5933z"/>
   <path id="_42404120" class="fil2 str2" d="M33.0088 41.062c-1.9598,1.5266 -4.1017,2.7696 -6.9115,3.0009 0.4361,1.9127 2.2027,3.1131 5.9114,3.2639 2.6212,-0.56 5.2424,-1.117 7.8653,-1.6769 -1.1371,-1.3241 -2.2725,-2.6459 -3.4101,-3.9694 -1.1509,-0.2048 -2.3041,-0.4114 -3.4551,-0.6185l0 0z"/>
   <path id="_42408040" class="fil1 str0" d="M20.7831 47.1696c-1.3552,-2.2931 -2.8772,-3.6396 -4.9989,-1.6163 1.2275,0.3867 2.3017,0.962 2.2995,2.8414 0.8989,-0.409 1.7984,-0.8182 2.6994,-1.225l0 -0.0001z"/>
   <path id="_42417288" class="fil1 str2" d="M16.4742 50.6805c-2.5986,0.2698 -5.0328,0.9822 -5.1698,2.8972 1.3776,-0.2405 2.8139,-0.092 4.1943,0.1128 0.3437,-0.706 0.6313,-2.304 0.9755,-3.01l0 0z"/>
   <path id="_42420944" class="fil1 str2" d="M16.8183 57.9229c-2.7449,-0.0403 -3.0659,1.6141 -3.0436,3.5137 1.3484,-0.8746 2.8053,-1.1175 4.309,-0.5035 -0.4023,-0.9467 -0.8631,-2.0614 -1.2654,-3.0102l0 0z"/>
   <path id="_42424224" class="fil1 str3" d="M29.6869 57.0328c1.427,1.877 1.7332,3.5113 0.4022,4.7921 -0.7078,-1.1146 -1.6453,-1.7822 -2.814,-2.0048 0.8046,-0.9304 1.609,-1.8587 2.4118,-2.7873l0 0z"/>
   <path id="_42430752" class="fil1 str2" d="M25.4523 84.4358c-2.6615,-2.5199 -4.961,-2.8479 -6.3506,-1.1285 1.8685,0.3108 2.5491,1.3914 2.3898,3.0481 1.0697,-0.618 2.8905,-1.3034 3.9606,-1.9196l0.0002 0z"/>
   <path id="_42434032" class="fil1 str2" d="M20.0598 89.6015c-2.7697,-0.533 -4.885,-0.0921 -4.3699,2.9152 1.2521,-0.7844 2.5015,-0.8293 3.7535,0.3308 0.1825,-0.9714 0.4339,-2.2753 0.6164,-3.246l0 0z"/>
   <path id="_42437296" class="fil1 str2" d="M23.883 94.2389c-3.5964,0.4852 -3.9384,2.1845 -2.8005,4.4367 -0.0675,-1.0156 0.6828,-1.6786 3.8927,-0.9282 -0.4333,-1.2361 -0.6606,-2.2724 -1.0922,-3.5085l0 0z"/>
   <path id="_42440576" class="fil1 str2" d="M35.6951 95.0976c1.8098,1.6474 2.7201,4.0751 -0.0696,5.1674 0.3262,-1.5912 -1.2701,-2.0992 -3.1402,-2.4503 1.0703,-0.9057 2.1401,-1.8115 3.2098,-2.7171l0 0z"/>
   <path id="_42443840" class="fil1 str2" d="M63.3726 84.9639c-4.0909,-0.7572 -5.3902,0.8097 -5.6128,2.3427 1.6141,-0.5507 3.3675,-0.4856 4.0867,1.0474 0.3867,-0.9261 1.1393,-2.4612 1.5261,-3.3901l0 0z"/>
   <path id="_42447104" class="fil1 str2" d="M62.3477 91.5952c-2.4254,-0.6294 -5.2648,0.0134 -4.4125,3.2681 1.5665,-1.3506 3.4821,-1.4425 4.7922,-0.0922 -0.1887,-0.9056 -0.1887,-2.27 -0.3797,-3.1756l0 -0.0003z"/>
   <path id="_42450400" class="fil1 str2" d="M81.3683 93.1601c2.2529,-1.4636 3.5654,-1.8772 4.5547,-0.6434 0.6002,-2.0838 0.1029,-3.5178 -4.7435,-3.268 -0.047,1.3351 0.2367,2.578 0.1888,3.9114l0 0z"/>
   <path id="_42398328" class="fil2" d="M60.7515 43.1773c-0.328,3.3719 2.1578,10.3376 3.8238,11.7384 1.2745,1.072 3.5107,2.6972 5.797,2.3281 10.9017,-1.762 4.8261,-13.6845 3.0365,-20.111 -1.7711,-6.357 -3.1442,-11.3627 -3.1153,-16.202 0.0274,-5.1803 2.8223,-8.5787 8.2886,-8.9947 4.0391,-0.3074 8.0329,1.6286 7.7091,6.641l0.5531 2.1511 -5.0444 0 0.5513 -2.2771c0.049,-6.0284 -8.7445,-3.5177 -8.1511,2.1603 0.2273,2.1492 0.7935,9.6833 3.1425,16.5732 2.7788,8.1459 8.4588,23.0694 -7.7345,23.6558 -1.9537,0.2859 -5.9478,-0.7977 -6.8064,-2.3778 3.23,4.3988 2.2184,8.4717 3.6121,11.1624 1.3464,2.601 4.2708,2.5153 6.9524,-0.4447 4.4775,-4.9384 7.0428,0.3394 6.9952,1.8632 2.2279,-2.5601 6.0984,-0.4719 7.7505,-3.6098 1.0295,0.4223 2.021,3.6886 -0.5933,5.9294 -0.8723,0.7486 -4.5338,0.7355 -5.6802,1.2476 2.6391,-0.7239 4.1111,-0.5081 5.7815,-1.2562 0.591,2.5509 0.7216,5.3946 -5.4937,5.8574 -0.0224,1.9805 0.3303,1.8863 0.0379,4.6529 -1.3822,-0.2876 -4.8054,2.1827 -4.5131,4.3089 1.9577,-1.1797 3.4837,-0.9729 4.5541,1.0791 -0.2613,1.1692 -0.5847,2.4369 0.2336,3.2351 -1.6366,6.0893 -8.9418,1.1416 -8.436,-0.6209 0.4875,9.6052 -5.9076,7.5596 -7.299,6.6359 -0.1236,-2.2884 -1.3982,-2.6095 -2.9846,-2.6753 -1.0975,-0.1144 -1.5578,-1.0449 -2.0188,-1.6049 0.0426,-1.3125 0.0294,-2.0472 -0.7371,-2.9623 0.0473,-0.6181 0.2515,-1.2969 0.6429,-1.9173 -0.3736,-0.4678 -0.4271,-0.9939 -0.1665,-1.6297 0.8201,-0.7509 0.8563,-1.7872 0.5439,-2.9134 0.0874,-0.9438 2.7465,-1.9979 4.626,-0.4023 4.8573,5.732 7.6492,3.9315 5.2663,-5.9499 -2.3351,2.1262 -13.7789,2.1693 -14.799,-5.1117 0.1793,1.7487 1.0565,3.1338 3.2546,4.7745 -0.6628,2.2947 -4.8262,4.909 -5.7947,4.3605 2.281,-5.9741 -3.5228,-5.2099 -3.516,-13.936 -14.3543,-2.5383 -14.2823,8.0402 -5.5541,7.6983 2.9291,-0.1144 5.0685,2.5654 2.5401,5.6313 5.451,2.407 5.451,5.5449 2.5422,6.8265 0.6359,2.0294 -0.8995,3.1602 -3.2483,4.284 -0.8765,-2.2792 -2.4952,-3.4099 -4.5132,-3.7696 -0.4771,0.8724 -1.2252,1.6366 -2.1626,2.3086 -1.7217,-0.7733 -3.738,-0.9574 -5.5655,-0.1461 3.567,1.9829 2.6908,3.6885 1.8113,5.0713 -1.6451,0.1462 -2.3691,0.8695 -2.7333,1.7558 -3.1557,0.5839 -5.7452,-0.5081 -4.4348,-4.3902 -0.465,1.1487 -0.3683,2.0543 -0.1031,3.1334 -0.9559,2.3604 -3.7427,2.8972 -6.103,0.5392 0.852,-2.3329 -1.0248,-3.401 -2.4682,-2.2787 -1.4496,-0.1803 -2.2654,-1.0836 -2.1152,-2.7698 0.8004,-1.5755 0.7935,-2.5307 -0.1239,-3.0837 0.4207,-1.194 1.0503,-1.6233 2.2214,-1.8346 -0.2878,-0.6133 -0.3984,-1.5623 0.6968,-1.8453 1.0179,-0.4787 2.6724,-1.7356 2.3783,-2.2839 5.5835,-2.09 3.0591,5.0309 7.197,4.291 4.1989,-0.7505 5.5184,-3.1672 6.6833,-6.5495 -6.5326,-1.4658 -9.8524,-3.9454 -10.628,-6.7259 -8.8427,3.4682 -10.8863,-2.54 -11.129,-4.2685 3.6932,1.5962 8.996,-0.5105 10.5668,-3.7042 2.7806,-5.6538 14.8896,-7.5147 21.6084,-6.4986 0.0045,-0.8119 -0.5307,-1.6658 -2.0388,-2.6343 -0.3148,-0.4903 1.0479,-0.9759 0.7757,-1.457 -1.5468,-0.0379 -2.1332,-0.9708 -2.1781,-1.2499 -0.6903,0.068 -1.1376,-0.0085 -1.7671,-0.0626 -2.7714,2.7447 -6.6919,1.5956 -9.0362,-0.9891 -1.8339,0.7082 -3.124,1.0833 -3.9424,1.1917 0.4673,1.6721 0.3886,2.7241 -0.0672,3.2794 -1.441,0.4424 -2.0256,1.1145 -2.113,2.1625 -1.9311,1.2089 -4.145,0.004 -4.4464,-0.1871 -1.461,2.612 -5.2193,2.3961 -6.6331,0.6542 0.3349,-1.3913 -0.5846,-2.2567 -1.2949,-2.6163 -0.6386,-0.9663 -0.0114,-1.9036 0.1751,-2.185 -0.5371,-0.6226 -1.025,-1.3707 -1.0791,-2.2501 0.5962,-0.3906 0.5082,-1.9466 0.2158,-2.8501 0.3914,-0.4919 0.8368,-1.151 2.2731,-1.56 -0.0835,-0.9933 0.1973,-1.5825 0.9597,-1.8276 1.0112,-0.2539 1.3978,-0.4539 1.8496,-1.4588 3.6667,-1.2026 4.9791,2.9221 4.9159,4.2577 3.7092,-1.5553 9.0747,-5.3613 14.3929,-7.0923 7.7778,-3.5827 16.1239,-4.698 21.4059,0.1261l0 0z"/>
   <path id="_42453704" class="fil3 str1" d="M60.7515 43.1773c-0.328,3.3719 2.1578,10.3376 3.8238,11.7384 1.2745,1.072 3.5107,2.6972 5.797,2.3281 10.9017,-1.762 4.8261,-13.6845 3.0365,-20.111 -1.7711,-6.357 -3.1442,-11.3626 -3.1153,-16.202 0,-5.0549 2.6586,-8.4008 7.9565,-8.9645 4.149,-0.4416 8.3739,1.4612 8.0412,6.6108l0.5531 2.1511 -5.0444 0 0.5513 -2.2771c0.049,-6.0284 -8.7445,-3.5177 -8.1511,2.1603 0.2273,2.1492 0.7935,9.6833 3.1425,16.5732 2.7788,8.1459 8.4588,23.0694 -7.7345,23.6558 -1.9537,0.2859 -5.9478,-0.7977 -6.8064,-2.3778 3.23,4.3988 2.2184,8.4717 3.6121,11.1624 1.3464,2.601 4.2708,2.5153 6.9524,-0.4447 4.4775,-4.9384 7.0428,0.3394 6.9952,1.8632 2.2279,-2.5601 6.0984,-0.4719 7.7505,-3.6098 1.0295,0.4223 2.021,3.6886 -0.5933,5.9294 -0.8723,0.7486 -4.5338,0.7355 -5.6802,1.2476 2.6391,-0.7239 4.1111,-0.5081 5.7815,-1.2562 0.591,2.5509 0.7216,5.3946 -5.4937,5.8574 -0.0224,1.9805 0.3303,1.8863 0.0379,4.6529 -1.3822,-0.2876 -4.8054,2.1827 -4.5131,4.3089 1.9577,-1.1797 3.4837,-0.9729 4.5541,1.0791 -0.2613,1.1692 -0.5847,2.4369 0.2336,3.2351 -1.6366,6.0893 -8.9418,1.1416 -8.436,-0.6209 0.4875,9.6052 -5.9076,7.5596 -7.299,6.6359 -0.1236,-2.2884 -1.3982,-2.6095 -2.9846,-2.6753 -1.0975,-0.1144 -1.5578,-1.0449 -2.0188,-1.6049 0.0426,-1.3125 0.0294,-2.0472 -0.7371,-2.9623 0.0473,-0.6178 0.2515,-1.2969 0.6429,-1.9173 -0.3736,-0.4678 -0.4271,-0.9939 -0.1665,-1.6297 0.8201,-0.7509 0.8563,-1.7872 0.5439,-2.9134 0.0874,-0.9438 2.7465,-1.9979 4.626,-0.4023 4.8573,5.732 7.6492,3.9315 5.2663,-5.9499 -2.3351,2.1262 -13.7789,2.1693 -14.799,-5.1117 0.1793,1.7487 1.0565,3.1338 3.2546,4.7745 -0.6628,2.2947 -4.8262,4.909 -5.7947,4.3605 2.281,-5.9741 -3.516,-5.2099 -3.516,-13.936 -14.3543,-2.5383 -14.2823,8.0402 -5.5541,7.6983 2.9291,-0.1144 5.0685,2.5654 2.5401,5.6313 5.451,2.407 5.451,5.5448 2.5422,6.8265 0.6359,2.0294 -0.8995,3.1602 -3.2483,4.284 -0.8765,-2.2792 -2.4952,-3.4099 -4.5132,-3.7696 -0.4771,0.8724 -1.2252,1.6366 -2.1626,2.3086 -1.7217,-0.7733 -3.738,-0.9574 -5.5655,-0.1461 3.567,1.9829 2.6908,3.6885 1.8113,5.0713 -1.6451,0.1462 -2.3691,0.8695 -2.7333,1.7558 -3.1557,0.5839 -5.7452,-0.5081 -4.4348,-4.3902 -0.465,1.1487 -0.3683,2.0543 -0.1031,3.1334 -0.9559,2.3604 -3.7427,2.8972 -6.103,0.5392 0.852,-2.3329 -1.0248,-3.401 -2.4682,-2.2787 -1.4496,-0.1803 -2.2654,-1.0836 -2.1152,-2.7698 0.8004,-1.5755 0.7935,-2.5307 -0.1239,-3.0837 0.4207,-1.194 1.0503,-1.6233 2.2214,-1.8346 -0.2878,-0.6133 -0.3984,-1.5622 0.6968,-1.8453 1.0179,-0.4787 2.6724,-1.7356 2.3783,-2.2839 5.5835,-2.09 3.0591,5.0309 7.197,4.291 4.1989,-0.7505 5.5184,-3.1672 6.6833,-6.5495 -6.5326,-1.4658 -9.8524,-3.9454 -10.628,-6.7259 -8.8427,3.4682 -10.8863,-2.54 -11.129,-4.2685 3.6932,1.5962 8.996,-0.5105 10.5668,-3.7042 2.7806,-5.6538 14.8896,-7.5147 21.6084,-6.4986 0,-0.8118 -0.5307,-1.6658 -2.0388,-2.6343 -0.3148,-0.4903 1.0479,-0.9759 0.7757,-1.457 -1.5468,-0.0379 -2.1332,-0.9708 -2.1781,-1.2499 -0.6903,0.068 -1.1376,-0.0085 -1.7671,-0.0626 -2.7714,2.7447 -6.6919,1.5956 -9.0362,-0.9891 -1.8339,0.7082 -3.124,1.0835 -3.9424,1.1917 0.4673,1.6721 0.3886,2.7241 -0.0672,3.2794 -1.441,0.4424 -2.0256,1.1145 -2.113,2.1625 -1.9311,1.2089 -4.145,0.004 -4.4464,-0.1871 -1.461,2.612 -5.2193,2.3961 -6.6331,0.6542 0.3349,-1.3913 -0.5846,-2.2567 -1.2949,-2.6163 -0.6386,-0.9663 -0.0114,-1.9036 0.1751,-2.185 -0.5371,-0.6226 -1.025,-1.3707 -1.0791,-2.2501 0.5962,-0.3906 0.5082,-1.9466 0.2158,-2.8501 0.3914,-0.4919 0.8368,-1.151 2.2731,-1.56 -0.0835,-0.9933 0.1973,-1.5825 0.9597,-1.8276 1.0112,-0.2539 1.3978,-0.4539 1.8496,-1.4588 3.6667,-1.2026 4.9791,2.9221 4.9159,4.2577 3.7092,-1.5553 9.0747,-5.3613 14.3929,-7.0923 7.7778,-3.5827 16.1239,-4.698 21.4059,0.1261l0 0z"/>
   <path id="_42475856" class="fil2 str2" d="M80.5167 20.9508c-7.1975,3.356 -2.8864,11.7943 1.0024,14.5168 1.1285,0.7888 1.0702,3.7357 0.1328,5.1179 2.0723,0.3463 3.4302,-0.6923 4.0754,-3.1108 1.2948,-0.2112 2.4318,-0.8138 2.4727,-4.1472 0.98,-0.389 1.6249,-1.533 1.5353,-4.3406 2.9893,-2.1464 0.8741,-7.0941 -2.4705,-8.0361l-6.7481 0z"/>
   <path id="_42486272" class="fil2" d="M81.6474 18.004l5.0105 0c0.6606,0 1.2026,0.5237 1.2026,1.1664l0 0.9087c0,0.6404 -0.5422,1.1665 -1.2028,1.1665l-5.0103 -0.0003c-0.6611,0 -1.2026,-0.5258 -1.2026,-1.1662l0 -0.9087c0,-0.6427 0.5415,-1.1663 1.2026,-1.1663l0 -0.0001z"/>
   <path id="_42483152" class="fil3 str2" d="M81.6474 18.004l5.0105 0c0.6606,0 1.2026,0.5237 1.2026,1.1664l0 0.9087c0,0.6404 -0.5422,1.1665 -1.2028,1.1665l-5.0103 -0.0003c-0.6611,0 -1.2026,-0.5258 -1.2026,-1.1662l0 -0.9087c0,-0.6427 0.5415,-1.1663 1.2026,-1.1663l0 -0.0001zm5.2843 6.056c-0.0674,2.4185 2.5693,3.7111 2.7851,4.9067m-4.6887 -1.8369c0.2947,2.264 2.4727,2.1178 3.147,6.2068m-5.3296 -3.2144c0.2945,2.2609 3.3962,3.185 2.8456,7.3904"/>
   <path id="_42508352" class="fil1 str2" d="M28.2823 20.5757c2.171,-2.075 0.6945,-3.6145 -1.4657,-4.8781 0.6629,1.594 0.2964,2.5424 -0.9961,3.455 0.7147,0.3395 1.7442,1.0836 2.4618,1.4231l0 0z"/>
   <path id="_42511584" class="fil1 str2" d="M22.8357 17.5274c-0.4184,-1.9217 -1.7085,-2.9041 -4.0846,-1.9799 1.0659,0.8447 1.4502,2.1825 1.2591,3.7064 0.8362,-0.5081 1.9871,-1.2181 2.8255,-1.7262l0 -0.0003z"/>
   <path id="_42514824" class="fil1 str0" d="M16.8678 22.2006c-2.3156,-2.0318 -4.2036,-1.8276 -4.9229,0.2026 1.8857,-0.2698 2.7759,0.5593 3.4032,2.1845 0.3844,-0.6762 1.1352,-1.7103 1.5197,-2.3869l0 -0.0002z"/>
   <path id="_42521352" class="fil1 str2" d="M17.8093 28.8027c-1.0112,1.3552 -2.2161,1.7782 -3.5085,1.7782 0.935,1.6088 2.7309,1.6769 4.9222,1.1191 -0.4717,-0.9822 -0.9413,-1.915 -1.4137,-2.8973l0 0z"/>
   <path id="_42503896" class="fil2" d="M41.0496 30.9065c-4.4373,-0.8027 -8.6898,-3.2028 -12.9071,-5.9385 3.2391,-2.0861 2.4075,-3.7991 0.9937,-5.4557 -0.4409,0.2675 -1.324,0 -2.6482,-0.8022 -0.881,-1.1801 -1.8989,-2.1964 -3.8883,-2.086 -0.634,0.881 -1.4881,1.335 -2.5629,1.3644 -0.717,0.7999 -0.8834,1.6026 -0.4967,2.4048 -2.0411,-0.4541 -3.448,0 -3.7224,1.0455 0.3038,1.3374 -0.22,1.7914 -0.8271,2.4071 0.1371,2.3 1.1849,3.5045 2.6459,3.4509 -0.4407,0.5076 -0.8003,1.2563 -0.5777,2.407 0.9375,0.5081 1.3235,1.2298 1.1573,2.1672 1.5174,1.1239 3.3087,1.3103 5.7071,-0.5623 4.1093,1.724 6.9772,3.383 7.1148,4.896 3.3376,-1.7667 6.6733,-3.5315 10.0116,-5.2982l0 0z"/>
   <path id="_42524712" class="fil3 str2" d="M41.0496 30.9065c-4.4373,-0.8027 -8.6898,-3.2028 -12.9071,-5.9385 3.2391,-2.0861 2.4075,-3.7991 0.9937,-5.4557 -0.4409,0.2675 -1.324,0 -2.6482,-0.8022 -0.881,-1.1801 -1.8989,-2.1964 -3.8883,-2.086 -0.634,0.881 -1.4881,1.335 -2.5629,1.3644 -0.717,0.7999 -0.8834,1.6026 -0.4967,2.4048 -2.0411,-0.4541 -3.448,0 -3.7224,1.0455 0.3038,1.3374 -0.22,1.7914 -0.8271,2.4071 0.1371,2.3 1.1849,3.5045 2.6459,3.4509 -0.4407,0.5076 -0.8003,1.2563 -0.5777,2.407 0.9375,0.5081 1.3235,1.2298 1.1573,2.1672 1.5174,1.1239 3.3087,1.3103 5.7071,-0.5623 4.1093,1.724 6.9772,3.383 7.1148,4.896 3.3376,-1.7667 6.6733,-3.5315 10.0116,-5.2982l0 0zm-14.4062 60.0933c-4.3786,-0.816 -5.8913,0.8406 -5.5974,4.1875m46.4629 -3.3514c-3.3992,-0.1462 -3.7743,1.4633 -3.6621,3.9941m-42.8836 -8.2989c1.1038,-0.2584 2.3443,0.0764 3.8324,1.3016m36.7608 0.6047c0.2987,-0.7394 2.261,-0.9327 3.756,-0.3774m-19.2704 -3.3745c2.2656,0.2924 3.8457,1.6482 4.5271,3.0125m-2.185 -28.7093c-2.8433,2.9112 -3.0033,5.7677 0.5237,8.2472m2.0078 0.3711c-0.9444,-2.2683 -1.3939,-3.7138 -0.2879,-6.7659 1.0024,-2.7672 -1.2025,-4.7721 -3.3946,-6.0399 -1.1307,0.1323 -1.9081,-0.4229 -2.335,-1.2026m-5.3027 -2.486c3.0342,3.565 6.896,3.4049 9.3124,-0.7895 -2.387,0.0588 -3.5648,-0.3976 -3.9154,-1.2044 3.7737,-1.8926 6.75,-1.6612 9.5033,-0.8343 0.5756,1.198 1.3065,2.1269 3.3924,2.0859 -0.5553,0.0433 -1.0497,-0.0829 -1.4812,-0.157 0.1121,1.7378 1.6228,2.4819 3.7736,2.6119m-29.1763 -1.5958c2.4834,-0.4004 4.4728,-1.0407 5.9723,-1.9195m-6.7746 4.4123c-0.369,-1.1508 -1.0052,-1.8793 -2.0078,-2.1082m-5.3786 3.7985c-0.2095,1.0719 -0.5104,2.1175 0.7913,3.6056m-4.9074 -5.7931c-1.1123,0.0881 -2.1285,0.4974 -2.9266,1.6119m1.4456 -6.6693c1.1416,-0.229 3.6056,0.6767 4.5677,2.5243m4.3491 -22.1946c2.3605,2.014 4.5184,3.3737 6.231,3.295m-8.3349 -4.5518c0.7914,0.5259 0.6607,2.3421 -0.1615,3.0776m-6.1999 -4.0035c0.8522,0.0783 1.6251,-0.2158 2.219,-0.7216m2.1194 -3.8486c-0.7597,-1.1324 -1.5778,-1.98 -2.5084,-2.3241m6.9162 -1.7264c0.1911,1.0093 0.207,2.1627 -0.2221,3.9763"/>
   <path id="_42530432" class="fil2 str2" d="M57.9871 14.4725c0.1817,0.1754 0.3619,0.3534 0.5437,0.5282 1.2793,-0.4022 2.8524,-0.5707 4.3499,0.4386 1.5259,1.0294 2.1556,2.6839 3.0791,3.7358 0.8633,0.9822 2.2166,1.4137 3.4441,1.5376 -0.495,3.1895 -2.6436,3.0549 -4.8464,2.8144 -2.3853,-1.3782 -4.7721,-2.7535 -7.1597,-4.1316 0.198,-1.6413 0.3935,-3.2818 0.5892,-4.9229l0.0001 -0.0001z"/>
   <path id="_42542024" class="fil2" d="M57.9871 19.7914c0.1817,0.1748 -0.0903,-1.2747 0.0921,-1.0998 1.2786,-0.4022 3.5762,0.4858 5.073,1.4951 1.5244,1.0294 1.8392,3.9584 2.7627,5.0104 0.8631,0.9798 2.2615,0.71 3.489,0.8338 -0.495,3.1896 -2.6436,3.055 -4.8464,2.8122 -2.3853,-1.3759 -4.7721,-2.7536 -7.1597,-4.1295 0.198,-1.6405 0.3935,-3.2816 0.5892,-4.9222l0.0001 0z"/>
   <path id="_42547536" class="fil3 str2" d="M57.9871 19.7914c0.1817,0.1748 -0.0903,-1.2747 0.0921,-1.0998 5.0047,-1.5744 5.8128,4.2013 7.8357,6.5055 0.8631,0.9798 2.2615,0.71 3.489,0.8338 -0.495,3.1896 -2.6436,3.055 -4.8464,2.8122 -2.3853,-1.3759 -4.7721,-2.7536 -7.1597,-4.1294 0.198,-1.6406 0.3935,-3.2817 0.5892,-4.9223l0.0001 0z"/>
   <path id="_42551616" class="fil2 str2" d="M56.9778 25.0732c0.1818,0.1756 0.919,-0.8717 1.1014,-0.6968 0.6391,-0.2011 1.5509,0.0405 2.481,0.4699 3.3639,1.5531 3.8782,5.5915 6.5774,6.8267 1.2027,0.5484 1.8098,0.6653 3.0367,0.5709 -0.4966,3.1897 -3.8232,3.7582 -6.0238,3.5159 -2.3874,-1.3781 -4.3651,-3.4998 -6.7527,-4.8779 0.198,-1.6414 -0.6158,-4.1673 -0.42,-5.8087l0 0z"/>
   <path id="_42555832" class="fil2 str2" d="M55.9528 30.1803c0.182,0.1755 0.629,-0.5616 1.854,-0.2267 0.3198,-0.1007 0.6909,-0.0853 1.0897,0.0116 4.3753,1.063 4.405,5.6666 7.5646,7.1073 1.2004,0.5507 2.4863,0.447 3.7132,0.3527 -0.3504,4.093 -6.1249,3.8053 -8.4244,2.9445 -2.3876,-1.3777 -1.9645,-2.9308 -4.3521,-4.3066 0.198,-1.6412 -1.6406,-4.2415 -1.445,-5.8828l0 0z"/>
   <path id="_42560064" class="fil2 str2" d="M32.0985 34.1814c-3.4388,2.7063 -6.5161,3.8818 -9.2295,3.5292 0.2429,2.0727 1.6975,3.2638 4.3653,3.574 2.4705,-0.8384 4.9407,-1.6768 7.4111,-2.5152 1.2878,-1.1014 2.5763,-2.2051 3.8641,-3.3089 -2.1377,-0.4245 -4.2731,-0.8516 -6.411,-1.2791l0 0z"/>
   <path id="_42567912" class="fil2 str2" d="M36.0547 36.6518c-3.9539,0.0431 -9.081,5.0891 -13.9135,4.6328 0.8245,3.264 5.4482,4.2192 12.8236,-0.0448 0.9374,-1.5152 0.1507,-3.073 1.0899,-4.588l0 0z"/>
   <path id="_42571296" class="fil2 str2" d="M37.7362 36.2989c-3.0459,1.8524 -5.2125,2.6483 -7.0468,2.3831 -0.6359,2.8092 5.008,5.0373 13.2574,-0.5307 -1.5307,-0.6163 -4.68,-1.2343 -6.2106,-1.8524l0 0z"/>
   <path id="_42574576" class="fil1 str2" d="M42.6435 20.151c-0.1622,1.7889 0.0783,3.2657 1.2004,4.0592 0.0968,-1.6096 0.721,-2.7916 1.5888,-3.7784 -0.9305,-0.0944 -1.861,-0.1865 -2.7892,-0.2808l0 0z"/>
   <path id="_42577840" class="fil1 str2" d="M42.4772 28.4092c-0.1599,-1.7891 0.0805,-3.2663 1.2021,-4.0599 0.0967,1.6095 0.7216,2.7921 1.5894,3.779 -0.9306,0.0944 -1.8609,0.1864 -2.7915,0.2809l0 0z"/>
   <path id="_42564224" class="fil2" d="M50.5287 24.6755c-0.798,0.1526 -1.5762,0.5216 -2.4997,-0.1391 -2.239,-1.5985 -4.0373,-1.0029 -5.9161,-0.8856 -4.2754,0.2653 -6.1186,-1.6503 -4.3767,-5.6467 -2.9399,0.0897 -3.6166,1.481 -3.7515,3.0797 -0.279,3.3358 3.4079,3.4952 5.869,3.5469 3.1649,0.0628 5.3971,-0.3911 7.0199,0.8858 1.1014,0.8652 1.4276,1.8501 1.7803,2.7062 0.5934,-0.297 1.1849,-0.591 1.7782,-0.8878 0.0334,-0.8857 0.0651,-1.7713 0.0966,-2.6591l0 -0.0003z"/>
   <path id="_42581144" class="fil3 str2" d="M50.5287 24.6755c-0.798,0.1526 -1.5762,0.5216 -2.4997,-0.1391 -2.239,-1.5985 -4.0373,-1.0029 -5.9161,-0.8856 -4.2754,0.2653 -6.1186,-1.6503 -4.3767,-5.6467 -2.9399,0.0897 -3.6166,1.481 -3.7515,3.0797 -0.279,3.3358 3.4079,3.4952 5.869,3.5471 3.1649,0.0626 5.3971,-0.3913 7.0199,0.8856 1.1014,0.8652 1.4276,1.8501 1.7803,2.7062 0.5934,-0.297 1.1849,-0.591 1.7782,-0.8878 0.0334,-0.8857 0.0651,-1.7713 0.0966,-2.6591l0 -0.0003z"/>
   <path id="_42585232" class="fil2 str2" d="M44.8619 30.1648c-0.4409,-0.3078 -2.8209,-0.3488 -3.2616,-0.6565 -2.4682,0.706 -5.06,0.5869 -7.7731,-0.3529 -0.2134,1.16 0.061,2.2639 0.8182,3.3066 3.2392,-0.0697 7.4561,-1.6205 10.2164,-2.2972l0.0001 0z"/>
   <path id="_42589880" class="fil2" d="M46.9347 12.3555c-0.2746,0.2135 -0.5508,0.4271 -0.8253,0.6405 0.1082,1.6002 -1.1618,1.2568 -2.1447,1.3867 -1.4001,0.1841 -1.9058,0.96 -1.5393,2.1873 0.6969,-0.0178 1.3937,-0.0363 2.0906,-0.054 -1.1019,0.0045 -2.4216,-0.1981 -3.0257,0.6946 -0.4724,0.6945 -0.1036,3.2414 0.2267,3.6596 0.3534,0.4449 2.956,0.6945 3.7273,0.4 1.5823,-0.6071 2.949,-1.3149 3.7448,0.6877 0.5144,1.2947 0.1973,2.823 0.0535,4.161 -0.1639,1.5191 -1.2924,1.8903 -3.2431,1.7056 -1.8144,-0.1705 -3.2979,-0.5322 -4.233,-1.2809 0.0202,1.0317 -0.3481,2.0859 -1.0249,2.9738 2.9871,0.2854 5.93,0.6877 8.8855,1.1866 3.0187,0.5128 4.7093,1.5848 6.0622,4.1679 0.5151,0.427 2.2776,0.5283 2.7898,0.9529 0.2204,-2.6837 -0.6048,-4.356 -2.1442,-5.3343 2.8053,-0.011 4.217,-1.2314 4.6755,-3.093 -1.8436,-0.0535 -3.181,-0.4448 -3.41,-1.9197 1.888,0.0519 3.1896,-0.6761 3.9043,-2.1866 -2.4479,-0.3597 -3.3265,-1.9876 -3.1333,-4.4804 2.1511,-1.1618 1.7797,-3.9965 1.2631,-5.0145 -0.5599,-1.1059 -2.4115,-0.9688 -3.7945,-0.7462 -0.2922,0.1236 -0.5862,0.1955 -0.8787,0.3187 -0.2766,-0.3552 -0.5507,-0.7101 -0.8251,-1.0652 -2.4007,0.0155 -4.8009,0.0335 -7.2018,0.0519l0.0003 0z"/>
   <path id="_42593528" class="fil3 str2" d="M46.9347 12.3555c-0.2746,0.2135 -0.5508,0.4271 -0.8253,0.6405 0.1082,1.6002 -1.1618,1.2568 -2.1447,1.3867 -1.4001,0.1841 -1.9058,0.96 -1.5393,2.1873 0.6969,-0.0178 1.3937,-0.0363 2.0906,-0.054 -1.1019,0.0045 -2.4216,-0.1981 -3.0257,0.6946 -0.4724,0.6945 -0.1036,3.2414 0.2267,3.6598 0.3534,0.4447 2.956,0.6946 3.7273,0.3998 1.5823,-0.607 2.949,-1.3149 3.7448,0.6877 0.5144,1.2948 0.1973,2.823 0.0535,4.161 -0.1639,1.5191 -1.2924,1.8903 -3.2431,1.7056 -1.8144,-0.1705 -3.2979,-0.5322 -4.233,-1.2809 0.0202,1.0317 -0.3481,2.0859 -1.0249,2.9738 2.9871,0.2854 5.93,0.6877 8.8855,1.1866 3.0187,0.5128 4.7093,1.5848 6.0622,4.1679 0.5151,0.427 2.2776,0.5283 2.7898,0.9529 0.2204,-2.6837 -0.6048,-4.356 -2.1442,-5.3343 2.8053,-0.011 4.217,-1.2314 4.6755,-3.093 -1.8436,-0.0535 -3.181,-0.4448 -3.41,-1.9197 1.888,0.0519 3.1896,-0.6761 3.9043,-2.1866 -2.4479,-0.3597 -3.3265,-1.9876 -3.1333,-4.4804 2.1511,-1.1618 1.7797,-3.9965 1.2631,-5.0143 -0.5599,-1.1061 -2.4115,-0.969 -3.7945,-0.7464 -0.2922,0.1236 -0.5862,0.1955 -0.8787,0.3187 -0.2766,-0.3549 -0.5507,-0.7101 -0.8251,-1.0652 -2.4007,0.0155 -4.8009,0.0335 -7.2018,0.0519l0.0003 0z"/>
   <path id="_42598592" class="fil2 str1" d="M48.4676 30.9176c-1.9739,-1.2471 -4.0218,-1.9462 -6.7754,-0.7057 -4.875,2.1982 -7.9146,1.861 -11.095,1.8974 0.0518,2.5354 1.3311,3.875 4.4125,3.3512 4.4844,-1.5127 8.9711,-3.0279 13.4578,-4.5429l0.0001 0z"/>
   <path id="_40341488" class="fil3 str2" d="M50.1916 30.4619c2.8208,-0.8864 4.0257,-2.9251 3.8951,-5.9255"/>
   <path id="_42613712" class="fil2 str2" d="M56.4673 34.9324c-0.8229,-2.2207 -2.3041,-4.0599 -4.7721,-4.6306 -2.922,-0.6767 -5.0708,0.6922 -7.2742,1.6745 -5.462,2.4416 -8.0648,1.8029 -10.5035,1.5019 -0.1438,2.4611 0.888,4.0799 4.5023,3.837 6.0151,-0.7959 12.0325,-1.5893 18.0475,-2.3828l0 0z"/>
   <path id="_42617192" class="fil2 str2" d="M44.2391 38.7694c-6.2307,1.0162 -6.9794,-1.1082 -7.503,-2.9986 6.6306,0.3278 8.3934,-1.7288 14.0039,-2.2926 8.3036,-0.8384 11.4839,4.6617 11.819,8.9958 -5.9098,-0.7648 -12.4099,-2.9404 -18.3199,-3.7046l0 0z"/>
   <path id="_42621016" class="fil2 str4" d="M52.6032 37.7555c-3.6523,-1.3484 -7.3437,-0.3821 -10.9558,1.4115 -3.219,1.5963 -6.0104,2.5422 -8.094,1.6318 0.7526,2.8595 2.9305,4.4103 7.3661,2.8238 3.169,-1.1353 6.1181,-2.4841 8.9572,-2.6482 0.9082,-1.072 1.8162,-2.1464 2.7265,-3.2189l0 0z"/>
   <path id="_42628232" class="fil2 str4" d="M47.6492 43.71c3.2167,-3.2235 7.9797,-4.0573 12.4618,0.2113 5.2308,4.9833 9.9533,3.3156 11.3603,-1.4455 -9.7755,1.7626 -9.2675,-4.6416 -14.867,-5.381 -9.5916,-1.2677 -9.542,3.264 -8.9551,6.6153l0 -0.0001z"/>
   <path id="_42632448" class="fil3 str5" d="M59.3537 13.4523c-1.6975,0.2042 -2.9963,1.0882 -2.8795,4.397 -0.8994,0.0852 -1.5104,-0.2545 -1.9785,-0.6907"/>
   <path id="_42639296" class="fil3 str5" d="M53.8376 16.3543c-0.3194,-0.5871 0.2358,-2.322 1.1346,-3.0078"/>
   <path id="_42641928" class="fil3 str5" d="M46.7837 16.3674c0.4449,-0.3729 1.7086,-0.1501 2.5918,-0.1346 -0.6203,-0.8027 -1.5869,-1.1957 -2.7896,-1.3062 0.1598,0.0161 0.3194,0.0494 0.4811,0.0633 -0.0675,0.4115 -0.0381,0.8245 0.0402,1.2206"/>
   <path id="_42645536" class="fil2 str6" d="M55.656 11.6518c2.8703,-3.3987 0.8292,-6.5008 -4.7181,-3.6817 -5.5818,-2.7921 -7.9238,0.3233 -4.9477,3.7421l9.6658 -0.0604z"/>
   <polygon id="_40367872" class="fil2 str2" points="48.4876,11.4607 48.4876,11.4607 "/>
   <path id="_42438656" class="fil3 str2" d="M48.4876 11.4607c-1.9126,-3.1045 -0.8654,-4.2122 1.2563,-3.9631"/>
   <path id="_42655424" class="fil3 str3" d="M53.6807 11.3543c1.9149,-3.1044 0.8113,-4.2393 -1.3127,-3.99"/>
   <path id="_42657984" class="fil3 str2" d="M50.9581 5.697l0 5.984m-1.0433 -5.2354l2.1718 0"/>
   <path id="_42658008" class="fil2 str0" d="M46.1186 11.6271c3.3397,-0.5779 6.3385,-0.6049 9.6788,0 0.1733,0.0378 0.2384,0.1122 0.2832,0.2899 0.0743,0.2947 -0.0334,0.8092 -0.0651,1.072 -0.0155,0.1353 -0.164,0.1508 -0.3596,0.1617 -2.5175,-0.4965 -5.424,-0.4378 -9.5373,0.027 -0.1956,-0.0108 -0.2297,0.0634 -0.3148,-0.146 -0.0857,-0.2068 -0.0294,-0.8316 -0.0294,-0.9753 0.0001,-0.2269 0.1122,-0.3148 0.3442,-0.4293l0 0z"/>
   <line id="_42669128" class="fil3 str1" x1="1.9713" y1="16.4354" x2="5.5724" y2= "16.9071" />
   <line id="_42672312" class="fil3 str1" x1="99.6749" y1="16.4393" x2="96.0715" y2= "16.9119" />
   <line id="_42675320" class="fil3 str1" x1="0.5667" y1="59.4001" x2="4.5159" y2= "59.2988" />
   <line id="_42678464" class="fil3 str1" x1="101.107" y1="59.3884" x2="97.1597" y2= "59.2872" />
   <line id="_42681608" class="fil3 str1" x1="12.8754" y1="97.9677" x2="9.63" y2= "100.488" />
   <line id="_42684752" class="fil3 str1" x1="88.627" y1="97.8487" x2="91.8724" y2= "100.371" />
   <line id="_42687896" class="fil3 str1" x1="18.2904" y1="97.9677" x2="15.5012" y2= "100.488" />
   <line id="_42691040" class="fil3 str1" x1="83.3784" y1="98.053" x2="86.1698" y2= "100.573" />
   <line id="_42694184" class="fil3 str1" x1="50.8143" y1="115.315" x2="50.8165" y2= "118.913" />
   <line id="_42697328" class="fil3 str1" x1="11.6727" y1="3.908" x2="13.1902" y2= "6.8076" />
   <line id="_42700472" class="fil3 str1" x1="89.9102" y1="4.0293" x2="88.3932" y2= "6.9268" />
  </g>
 </g>
</svg>
