<?xml version="1.0" encoding="utf-8"?>
<svg version="1.1" id="CoA" xmlns="http://www.w3.org/2000/svg" xmlns:xlink="http://www.w3.org/1999/xlink" x="0px" y="0px"
	 viewBox="0 0 480 600" style="enable-background:new 0 0 480 600;" xml:space="preserve">
<style type="text/css">
	.st0{fill:#EE1C25;}
	.st1{fill:#FFFFFF;}
	.st2{fill:#0B4EA2;}
</style>
<path id="Shield_1_" class="st0" d="M239.997,600C141.249,552.467,0,458.124,0,271.498S8.928,0,8.928,0h231.068h231.072
	c0,0,8.931,84.873,8.931,271.498S338.751,552.467,239.997,600z"/>
<path id="Cross" class="st1" d="M261.102,369.354V266.275c30.109-0.382,82.69-0.085,125.27,14.163c0,0-1.226-16.61-1.226-35.964
	c0-19.35,1.226-35.961,1.226-35.961c-46.42,15.533-98.551,14.486-125.27,14.055v-64.735c24.353-0.216,59.447,0.947,99.126,14.225
	c0,0-1.226-16.611-1.226-35.964c0-19.351,1.226-35.962,1.226-35.962c-39.621,13.257-74.671,14.438-99.018,14.227
	c1.251-40.991,13.193-92.66,13.193-92.66S249.825,23.616,240,23.616s-34.403-1.918-34.403-1.918s11.943,51.669,13.193,92.66
	c-24.346,0.211-59.397-0.971-99.018-14.227c0,0,1.226,16.611,1.226,35.962c0,19.353-1.226,35.964-1.226,35.964
	c39.679-13.278,74.773-14.441,99.126-14.225v64.735c-26.72,0.432-78.85,1.478-125.27-14.055c0,0,1.226,16.611,1.226,35.961
	c0,19.355-1.226,35.964-1.226,35.964c42.58-14.248,95.161-14.545,125.27-14.163v103.078h42.204V369.354z"/>
<path id="Peaks" class="st2" d="M432.249,441.551c-12.85-22.624-33.105-47.128-60.578-47.128c-40.55,0-55.349,32.692-55.349,32.692
	S289.699,358.202,240,358.202s-76.322,68.914-76.322,68.914s-14.799-32.692-55.349-32.692c-27.473,0-47.728,24.504-60.578,47.128
	C97.703,520.902,177.385,569.865,239.996,600C302.611,569.865,382.296,520.902,432.249,441.551z"/>
</svg>