<?xml version="1.0" encoding="UTF-8"?>
<svg xmlns="http://www.w3.org/2000/svg" xmlns:xlink="http://www.w3.org/1999/xlink" width="600" height="800" viewBox="15 5 60 80">
<clipPath id="cp">
<path id="shield" d="M20,27V38C30,34 30,47 20,43C20,68 42,66 45,80C55,80 70,61 70,45V10z" fill="none"/>
</clipPath>
<use xlink:href="#shield" stroke="#fee600" stroke-width="2"/>
<g clip-path="url(#cp)">
<rect width="90" height="90" fill="#002395"/>
<path id="wave" d="m43,44s2.5,-1 4,0s2.5,1 4,0s2.5,-1 4,0s2.5,1 4,0s2.5,-1 4,0s2.5,1 4,0s2.5,-1 4,0" fill="none" stroke="#fee600" stroke-width="1.5"/>
<use xlink:href="#wave" y="6"/>
<use xlink:href="#wave" y="12"/>
<use xlink:href="#wave" y="18"/>
<use xlink:href="#wave" y="24"/>
<g stroke="#002395" stroke-width="3">
<use xlink:href="#shield"/>
<path d="M45,0V90"/>
</g>
<rect width="45" height="90" fill="#fee600"/>
<path id="star" d="M31,31 35.1459,32.3471V36.7063L37.7082,33.1796 41.8541,34.5267 39.2918,31 41.8541,27.4733 37.7082,28.8204 35.1459,25.2937V29.6529z" fill="none" stroke="#002395" stroke-width="0.5"/>
<use xlink:href="#star" y="14"/>
<use xlink:href="#star" y="28"/>
<g fill="#fee600">
<path d="M54.4,33.9C53.5,33.9 53.5,35 54.4,35H55.8C56.8,35 56.2,36.4 55.7,37C56.8,38 56.4,39 57,39C57.8,39 57.2,38 58.3,37C58,36.4 57.2,35 58.2,35H59.6C60.3,35 60.3,33.9 59.6,33.9z"/>
<path d="M56.4,34C56.4,31 55,28.4 55,26C55,24.6 56,23.6 57,23C58,23.6 59,24.6 59,26C59,28.4 57.6,31 57.6,34z"/>
<path id="leaf" d="M56.2,34C56.2,31.8 55,29.2 53.4,29.2C50.8,29.2 49.8,32.4 53,34C52.4,33 52.6,32 53.8,32C54.2,32 55.2,32.6 55.8,34z"/>
<use xlink:href="#leaf" transform="matrix(-1,0,0,1,114,0)"/>
</g>
</g>
<use xlink:href="#shield" stroke="#002395" stroke-width="0.5"/>
</svg>