<?xml version="1.0" encoding="utf-8"?>
<!-- Generator: Adobe Illustrator 16.0.2, SVG Export Plug-In . SVG Version: 6.00 Build 0)  -->
<!DOCTYPE svg PUBLIC "-//W3C//DTD SVG 1.1//EN" "http://www.w3.org/Graphics/SVG/1.1/DTD/svg11.dtd">
<svg version="1.1" id="Ebene_1" xmlns="http://www.w3.org/2000/svg" xmlns:xlink="http://www.w3.org/1999/xlink" x="0px" y="0px"
	 width="408.272px" height="494.945px" viewBox="-176.966 -215.01 408.272 494.945"
	 enable-background="new -176.966 -215.01 408.272 494.945" xml:space="preserve">
<g>
	<path fill="#FFFFFF" d="M27.034-213.491h202.75V84.49c0,107.102-90.704,193.906-202.605,193.906
		c-111.918,0-202.625-86.813-202.625-193.906v-297.98L27.034-213.491L27.034-213.491z"/>
	<path fill="#E8423F" d="M180.917-103.768c-0.055-2.266-0.219-4.543-0.531-6.848c-0.836-6.32-2.961-13.113-6.258-19.891
		c4.656-2.285,7.883-6.965,7.883-12.391c0-7.672-6.461-13.887-14.391-13.887c-3.672,0-6.969,1.313-9.508,3.48
		c-7.18-7.48-15.953-14.145-26.211-19.168c0.914-1.832,1.469-3.867,1.469-6.027c0-7.672-6.438-13.902-14.422-13.902
		c-7.047,0-12.938,4.938-14.148,11.441c-10.25-1.578-21.359-1.594-33.359,0.367c-1.5-6.146-7.18-10.729-13.984-10.729
		c-7.984,0-14.406,6.223-14.406,13.896c0,1.59,0.281,3.121,0.781,4.535c-1.031,0.426-2.063,0.832-3.094,1.266
		c-8.703,3.605-17.512,8.598-25.926,14.926c-2.609-2.695-6.328-4.398-10.465-4.398c-7.977,0-14.414,6.215-14.414,13.887
		c0,3.898,1.664,7.426,4.359,9.953c-7.113,8.406-13.441,18.07-18.543,29.031c-1.801-0.758-3.785-1.176-5.832-1.176
		c-8.066,0-14.609,6.313-14.609,14.09c0,6.688,4.801,12.262,11.273,13.719c-2.512,10.68-4.008,22.254-4.113,34.75h79.184
		c-0.367-31.734,6.938-55.199,19.82-68.23c14.914-15.07,36.75-16.703,54.281-9.328c18.422,7.738,26.422,26.281,19.289,40.383
		c-5.523,10.977-20.984,19.273-42.945,17.723c13.469,16.375,27.914,22.871,41.156,22.559c1.016,6.738,6.984,11.902,14.219,11.902
		c7.969,0,14.422-6.215,14.422-13.887c0-3.031-1.031-5.816-2.719-8.098c7.016-5.766,12.781-13.605,16.594-22.652
		c1.078,0.223,2.164,0.383,3.313,0.383c7.961,0,14.375-6.223,14.375-13.91C193.456-97.065,187.995-102.889,180.917-103.768"/>
	<polygon fill="#E8423F" points="2.245,237.099 28.299,135.787 73.917,215.083 47.604,-10.338 -43.38,-10.338 -69.435,215.083 
		-24.052,135.787 	"/>
	<path fill="none" stroke="#010202" stroke-width="3.048" d="M180.917-103.768c-0.055-2.266-0.219-4.543-0.531-6.848
		c-0.836-6.32-2.961-13.113-6.258-19.891c4.656-2.285,7.883-6.965,7.883-12.391c0-7.672-6.461-13.887-14.391-13.887
		c-3.672,0-6.969,1.313-9.508,3.48c-7.18-7.48-15.953-14.145-26.211-19.168c0.914-1.832,1.469-3.867,1.469-6.027
		c0-7.672-6.438-13.902-14.422-13.902c-7.047,0-12.938,4.938-14.148,11.441c-10.25-1.578-21.359-1.594-33.359,0.367
		c-1.5-6.146-7.18-10.729-13.984-10.729c-7.984,0-14.406,6.223-14.406,13.896c0,1.59,0.281,3.121,0.781,4.535
		c-1.031,0.426-2.063,0.832-3.094,1.266c-8.703,3.605-17.512,8.598-25.926,14.926c-2.609-2.695-6.328-4.398-10.465-4.398
		c-7.977,0-14.414,6.215-14.414,13.887c0,3.898,1.664,7.426,4.359,9.953c-7.113,8.406-13.441,18.07-18.543,29.031
		c-1.801-0.758-3.785-1.176-5.832-1.176c-8.066,0-14.609,6.313-14.609,14.09c0,6.688,4.801,12.262,11.273,13.719
		c-2.512,10.68-4.008,22.254-4.113,34.75h79.184c-0.367-31.734,6.938-55.199,19.82-68.23c14.914-15.07,36.75-16.703,54.281-9.328
		c18.422,7.738,26.422,26.281,19.289,40.383c-5.523,10.977-20.984,19.273-42.945,17.723c13.469,16.375,27.914,22.871,41.156,22.559
		c1.016,6.738,6.984,11.902,14.219,11.902c7.969,0,14.422-6.215,14.422-13.887c0-3.031-1.031-5.816-2.719-8.098
		c7.016-5.766,12.781-13.605,16.594-22.652c1.078,0.223,2.164,0.383,3.313,0.383c7.961,0,14.375-6.223,14.375-13.91
		C193.456-97.065,187.995-102.889,180.917-103.768z"/>
	<path fill="none" stroke="#010202" stroke-width="3.048" stroke-linecap="round" stroke-linejoin="round" d="M1.627-46.85
		c-0.352-31.734,8.68-52.461,18.137-68.07c10.969-18.176,36.816-45.777,92.832-33.832c62.781,13.375,56.281,105.855-16.75,84.168"/>
	<path fill="#040304" d="M47.604-10.338H-43.38l-26.055,225.406l1.512-2.641l2.328-4.063l41.527-72.578L0.651,230.99l0.824,3.172
		l0.762,2.938l0.766-2.938l0.809-3.141l24.48-95.234l41.789,72.594l2.328,4.047l1.516,2.641L47.604-10.338z M-40.669-7.288h85.57
		l24.258,207.996l-38.234-66.453l-3.73-6.484l-1.863,7.25L2.209,224.904l-23.328-89.883l-1.871-7.25l-3.711,6.508l-38.016,66.414
		L-40.669-7.288z"/>
	<line fill="none" stroke="#040304" stroke-width="3.048" x1="2.573" y1="-9.209" x2="2.573" y2="228.591"/>
	<rect x="-65.486" y="-48.522" fill="#E8423F" width="139.121" height="40.641"/>
	<rect x="-65.486" y="-48.522" fill="none" stroke="#010202" stroke-width="3.048" width="139.121" height="40.641"/>
	<rect x="-82.478" y="-36.713" fill="#E8423F" width="173.129" height="17.082"/>
	<g>
		<g>
			<g>
				<g>
					<defs>
						<rect id="SVGID_1_" x="-176.966" y="-215.01" width="408.272" height="494.945"/>
					</defs>
					<clipPath id="SVGID_2_">
						<use xlink:href="#SVGID_1_"  overflow="visible"/>
					</clipPath>
					<path clip-path="url(#SVGID_2_)" fill="none" stroke="#010202" stroke-width="3.048" d="M27.034-213.491h202.75V84.49
						c0,107.102-90.704,193.906-202.605,193.906c-111.918,0-202.625-86.813-202.625-193.906v-297.98L27.034-213.491L27.034-213.491z
						 M90.651-19.631H-82.47v-17.082H90.651V-19.631z"/>
				</g>
			</g>
		</g>
	</g>
</g>
</svg>
