<?xml version="1.0" encoding="UTF-8"?>
<svg xmlns="http://www.w3.org/2000/svg" width="600" height="600" viewBox="257.25 122.25 85.5 85.5">
<g fill="#fff" stroke="#000">
<circle cx="300" cy="165" r="42.175" stroke-width="1.15"/>
<circle cx="300" cy="165" r="34.83" stroke-width="0.545"/>
<circle cx="300" cy="165" r="26.39" stroke-width="0.545"/>
</g>
<g fill="#000">
<path d="m269.74,161.24c-1.4723-0.30337-2.7681-0.589-2.8796-0.63474-0.1168-0.0479-0.18048-0.16195-0.15023-0.26902,0.0289-0.10222,0.10919-0.49341,0.17848-0.8693,0.2655-1.4404,0.61124-2.7479,0.81758-3.0919,0.54029-0.90063,2.2509-0.97775,3.0162-0.13598,0.52942,0.5823,0.61866,1.0485,0.45846,2.395l-0.0906,0.76182,0.43547,0.12441c0.2395,0.0684,0.74743,0.18694,1.1287,0.26336l0.69326,0.13894-0.18067,0.91127c-0.16567,0.83557-0.20433,0.9132-0.46545,0.9345-0.15662,0.0128-1.4894-0.22497-2.9616-0.52834zm0.0626-2.4466c0.13233-0.70541-0.13475-1.206-0.64348-1.206-0.3877,0-0.64936,0.34008-0.69664,0.90541-0.031,0.37132-0.0105,0.39394,0.48015,0.52745,0.75232,0.20474,0.78038,0.19734,0.85997-0.22691z"/>
<path d="m272.41,154.26c-0.94038-0.95724-2.0134-2.059-2.3844-2.4482l-0.67467-0.70782,0.448-0.96777c0.38886-0.84,0.48637-0.96838,0.73861-0.97234,0.6169-0.01,6.3208,0.58276,6.404,0.66516,0.0483,0.0479-0.0771,0.46053-0.27871,0.91703l-0.3666,0.83001-0.55406-0.0532-0.55405-0.0532-0.51356,1.0226-0.51355,1.0226,0.34961,0.34181c0.19229,0.188,0.34962,0.40083,0.34962,0.47295,0,0.0721-0.1666,0.4776-0.37021,0.90107l-0.3702,0.76995-1.7098-1.7404zm0.97629-2.3805c0.16081-0.31523,0.20169-0.50686,0.12456-0.58399-0.11072-0.11072-1.9639-0.4557-2.0399-0.37974-0.0539,0.0539,1.4674,1.4329,1.5808,1.4329,0.0523,0,0.20283-0.21114,0.33448-0.46919z"/>
<path d="m276.72,149.18-0.46822-0.42047-0.24461-2.1643c-0.13454-1.1904-0.28204-2.2869-0.32777-2.4368-0.078-0.25554-0.14265-0.20763-1.0382,0.76888-0.52525,0.57277-1.0098,1.0406-1.0767,1.0397-0.0669-0.001-0.32374-0.17261-0.57066-0.3815l-0.44895-0.37981,1.6584-1.9252c2.1939-2.5468,1.9865-2.3889,2.5332-1.928l0.44595,0.37607,0.26582,2.3705c0.1462,1.3038,0.30957,2.4142,0.36305,2.4677,0.0537,0.0537,0.59897-0.46636,1.218-1.1617,0.61642-0.69242,1.1494-1.257,1.1844-1.2547,0.035,0.002,0.26535,0.17691,0.5119,0.3879l0.44826,0.38363-0.89723,1.1214c-0.96109,1.2012-2.8565,3.4137-3.0009,3.503-0.0481,0.0297-0.29823-0.13512-0.55575-0.36638z"/>
<path d="m285.48,140.77c-0.24716-0.42612-0.53125-0.93565-0.63133-1.1323-0.14415-0.28326-0.54361-0.55245-1.9227-1.2957-2.2606-1.2183-2.1928-1.1698-1.9401-1.3888,0.10967-0.095,0.44483-0.31404,0.74481-0.48671,0.66608-0.38342,0.88963-0.35234,1.9776,0.2749,0.44174,0.25469,0.83648,0.46306,0.8772,0.46306,0.0407,0,0.0747-0.44851,0.0756-0.9967,0.00086-0.54818,0.0304-1.1043,0.0657-1.2357,0.0411-0.1531,0.38859-0.41189,0.96667-0.7199l0.9025-0.48087,0.00028,0.43513c0.00015,0.23932-0.0562,1.2306-0.12522,2.2028l-0.12557,1.7676,0.63076,1.1881,0.63075,1.1881-0.30619,0.18494c-0.16841,0.10173-0.54587,0.32485-0.83881,0.49585l-0.53261,0.31089-0.44938-0.77475z"/>
<path d="m293.83,137.94c-0.18781-0.10232-0.43674-0.27219-0.55319-0.37749-0.24445-0.22106-0.6431-0.96214-0.6431-1.1955,0-0.0987,0.3126-0.25146,0.82583-0.40358,0.45421-0.13462,0.85873-0.24461,0.89893-0.24441s0.10508,0.12786,0.14419,0.28369c0.0872,0.34741,0.53536,0.65981,0.80057,0.55803,0.39782-0.15265,0.41619-0.55351,0.12109-2.6416-0.15654-1.1077-0.28462-2.1005-0.28462-2.2061,0-0.14108,0.16594-0.22655,0.62482-0.32181,0.34365-0.0713,0.76654-0.11342,0.93974-0.0935,0.31088,0.0357,0.31817,0.0553,0.56731,1.517,0.13881,0.81445,0.28451,1.9678,0.32378,2.5629,0.0701,1.0621,0.0651,1.0918-0.26795,1.6068-0.45513,0.7037-1.1117,1.0178-2.2746,1.0882-0.67717,0.041-0.96043,0.0103-1.2228-0.13267z"/>
<path d="m301.75,137.71c-1.3814-0.3813-2.0507-1.2159-2.05-2.5562,0.00043-0.7641,0.18015-3.0666,0.29228-3.7439l0.0628-0.37928,0.87593,0.0786c0.48176,0.0432,0.91422,0.11381,0.96103,0.15684,0.0468,0.043,0.005,0.99303-0.0925,2.1111-0.13488,1.5442-0.14665,2.1076-0.0489,2.3434,0.24419,0.58953,1.1368,0.75439,1.6578,0.3062,0.28667-0.24658,0.31973-0.38337,0.57122-2.3636,0.14681-1.156,0.26904-2.1147,0.27161-2.1304,0.01-0.0609,1.3295-0.0214,1.587,0.0475,0.27162,0.0727,0.27216,0.0761,0.19852,1.2799-0.0406,0.66387-0.15047,1.7196-0.24413,2.3461-0.19687,1.3169-0.51077,1.8869-1.2703,2.3068-0.61989,0.34271-1.9116,0.43438-2.7724,0.19676z"/>
<path d="m309.38,139.41c-0.91666-0.33093-1.7043-0.91556-1.9436-1.4426-0.22104-0.48693-0.30242-1.501-0.12906-1.6081,0.0519-0.0321,0.4876,0.05,0.96823,0.18244l0.87387,0.24076,0.003,0.40885c0.004,0.5795,0.30804,0.92366,0.8856,1.0011,0.54418,0.073,0.8205-0.0868,0.8205-0.47439,0-0.17765-0.31177-0.52091-1.0478-1.1536-0.57627-0.4954-1.1452-1.068-1.2644-1.2725-0.42901-0.73625-0.17621-1.6374,0.60968-2.1733,0.5668-0.38649,1.7232-0.30845,2.7404,0.18496,1.1969,0.58059,1.582,1.0365,1.582,1.8729,0,0.49341-0.0247,0.5442-0.26447,0.5442-0.14547,0-0.506-0.0823-0.80118-0.18287-0.42033-0.14322-0.58345-0.27452-0.75237-0.60564-0.29169-0.57176-0.49069-0.71442-0.93682-0.6716-0.28648,0.0275-0.38613,0.0958-0.41281,0.28312-0.0273,0.19181,0.15051,0.3855,0.79736,0.86851,0.45789,0.3419,1.0095,0.80784,1.2259,1.0354,0.34608,0.36407,0.3986,0.49921,0.43714,1.1249,0.0371,0.60225,0.003,0.77055-0.22247,1.0993-0.47523,0.69285-0.81008,0.86053-1.7833,0.893-0.58531,0.0195-1.044-0.0318-1.385-0.15489z"/>
<path d="m315.04,142.2c-0.4927-0.29562-0.74209-0.51123-0.691-0.5974,0.044-0.0742,0.63437-0.96668,1.312-1.9834,0.67764-1.0167,1.2321-1.8956,1.2321-1.953,0-0.0575-0.24888-0.26423-0.55307-0.45942-0.30418-0.1952-0.64187-0.45304-0.75041-0.57297-0.18865-0.20845-0.18062-0.24363,0.18206-0.79763,0.23199-0.35436,0.43877-0.55678,0.53219-0.52093,0.1938,0.0744,4.0641,2.6987,4.5127,3.0599l0.33533,0.27003-0.37568,0.58544c-0.20663,0.32199-0.40878,0.58529-0.44924,0.5851-0.0404-0.00014-0.40674-0.20442-0.81396-0.45385l-0.74041-0.4535-0.39868,0.43743c-0.21927,0.24059-0.83438,1.0836-1.3669,1.8733s-1.0195,1.4375-1.0821,1.4396c-0.0627,0.002-0.46084-0.20433-0.88486-0.45873z"/>
<path d="m319.01,145.41-0.67179-0.67886,1.3771-1.4585c0.75743-0.8022,1.756-1.8324,2.2191-2.2893l0.84197-0.83073,0.73281,0.68071,0.7328,0.68072-2.2801,2.2874-2.2801,2.2874-0.67178-0.67887z"/>
<path d="m323.52,150.85c-0.60299-0.29847-1.391-1.3172-1.671-2.1603-0.43378-1.306,0.16076-2.7303,1.4963-3.5846,0.7976-0.51022,1.7993-0.77122,2.4225-0.63119,1.4488,0.32553,2.6623,1.7712,2.681,3.1941,0.009,0.7105-0.31884,1.7203-0.55907,1.7203-0.0844,0-0.4208-0.24578-0.7475-0.54618-0.53021-0.48754-0.57999-0.57235-0.46357-0.78988,0.0717-0.13402,0.13041-0.42115,0.13041-0.63805,0-0.30884-0.0873-0.47105-0.40264-0.7479-0.67316-0.59104-1.4625-0.39895-2.5185,0.6129-0.49933,0.47844-0.52391,0.5306-0.46325,0.98284,0.0993,0.73994,0.49866,1.0693,1.2967,1.0693,0.63032,0,0.64304,0.007,0.77776,0.39869,0.0753,0.21927,0.17137,0.58462,0.21342,0.81188,0.0676,0.36508,0.0463,0.42129-0.18237,0.48256-0.57201,0.15326-1.5132,0.0716-2.0101-0.17435z"/>
<path d="m325.16,154.71c-0.0904-0.1383-0.27333-0.49798-0.40646-0.79929-0.36534-0.8269-0.46218-0.76127,3.4146-2.3141,1.7537-0.70241,2.1275-0.81682,2.2544-0.68991,0.21659,0.21659,0.71634,1.4864,0.62103,1.578-0.0686,0.0659-1.5525,0.71082-4.8928,2.1265l-0.82638,0.35024-0.16442-0.25145z"/>
<path d="m327.04,162.07c-0.0667-0.23775-0.15266-0.69275-0.19105-1.0111-0.0689-0.5715-0.0646-0.58192,0.34229-0.82199,0.47372-0.2795,0.48913-0.37985,0.23189-1.5108-0.1936-0.85123-0.34835-1.0182-0.9437-1.0182-0.22696,0-0.36123-0.0669-0.40026-0.19934-0.12719-0.43178-0.3094-1.6501-0.25494-1.7046,0.0602-0.0602,6.5776,0.85506,6.6574,0.93487,0.0764,0.0764,0.35328,1.4618,0.35754,1.7891,0.003,0.24911-0.13119,0.40375-0.70793,0.81439-0.59986,0.4271-3.0139,1.9678-4.5496,2.9037l-0.42039,0.25619-0.12125-0.43226zm2.9273-3.3528c0.98332-0.5428,0.95483-0.60283-0.34207-0.72067-0.80971-0.0736-0.88274-0.0629-0.88215,0.12884,0.00086,0.287,0.22278,1.0634,0.30394,1.0634,0.0363,0,0.45046-0.21219,0.92028-0.47154z"/>
</g>
<g>
<path fill="#ed1c24" stroke="#000" stroke-width="0.837" d="m490.31,95.791a12.013,4.8816,0,1,1,-24.025,0,12.013,4.8816,0,1,1,24.025,0z" fill-rule="nonzero" transform="matrix(0.3465349,-0.13402367,0.12878059,0.36064347,122.04621,179.91659)"/>
<rect fill="#784421" stroke="#000" stroke-width="0.33" width="0.91" height="42.3" x="300" y="142.9" rx="0.33" ry="0.516"/>
<g fill="none" stroke="#000">
<path d="m299.3,148.34,0,4.1092" stroke-width="0.03638813"/>
<path d="m299.64,148.16,0,4.2113" stroke-width="0.01819406"/>
<path d="m298.96,148.34,0,4.2081" stroke-width="0.05458219"/>
<path d="m298.62,148.56,0,4.0057" stroke-width="0.07277625"/>
<path d="m298.28,148.63,0,3.9977" stroke-width="0.09097032"/>
<path d="m297.94,148.85,0,3.7745" stroke-width="0.10916439"/>
<path d="m297.6,149.04,0,3.5974" stroke-width="0.12735842"/>
<path d="m297.26,149.29,0,3.3026" stroke-width="0.1455525"/>
<path d="m296.92,149.48,0,3.0714" stroke-width="0.16374657"/>
<path d="m296.58,149.81,0,2.6441" stroke-width="0.20013469"/>
<path d="m296.24,149.99,0,2.3029" stroke-width="0.21832874"/>
<path d="m301.13,151.9,0-3.463" stroke-width="0.03209215"/>
<path d="m300.81,152.3,0-3.8013" stroke-width="0.01604608"/>
<path d="m301.45,151.79,0-3.4733" stroke-width="0.04813823"/>
<path d="m301.77,151.65,0-3.3913" stroke-width="0.06418431"/>
<path d="m302.08,151.48,0-3.2878" stroke-width="0.08023039"/>
<path d="m302.4,151.32,0-3.1514" stroke-width="0.09627648"/>
<path d="m302.72,151.14,0-2.9144" stroke-width="0.11232253"/>
<path d="m303.04,150.92,0-2.7541" stroke-width="0.12836862"/>
<path d="m303.36,150.75,0-2.5859" stroke-width="0.14441469"/>
<path d="m303.68,150.25,0-2.0279" stroke-width="0.17650686"/>
<path d="m304,149.85,0-1.5294" stroke-width="0.19255292"/>
</g>
<g fill="#ed1c24" stroke="#000" stroke-width="0.315">
<path d="m295.91,151.4-0.13551-2.6312s-0.31813-0.30296-0.39067-0.50228c-0.34378-0.94463-0.26864-2.0208-0.11161-3.0137,0.12687-0.80219,0.363-1.6288,0.83713-2.2882,0.69539-0.96712,1.6583-1.8621,2.7904-2.2324,0.79379-0.25961,1.7414-0.2356,2.5032,0.10664,0.68687,0.30857,1.2782,0.92963,1.5708,1.6234,0.24593,0.58303,0.24707,1.2943,0.0558,1.8975-0.11245,0.35466-0.66971,0.89294-0.66971,0.89294s0.67378,0.71266,0.94876,1.1162c0.33275,0.48832,0.6316,1.0086,0.83713,1.5626,0.0597,0.1608,0.11162,0.37329,0.11162,0.37329l0.043,0.44278s-0.9796-0.37286-1.4483-0.34764c-0.61469,0.0331-1.2263,0.15097-1.8197,0.31469-0.74933,0.20675-1.4806,0.49088-2.1766,0.83714-0.72561,0.36101-1.4118,0.80374-2.0649,1.2836-0.32082,0.23572-0.88093,0.56448-0.88093,0.56448z"/>
<path d="m297.27,148.65c1.7501-1.4437,3.9348-1.8732,6.2995-1.8828" stroke-linecap="round"/>
<path d="m300.2,144.56c0.42631,0.39933,0.60228,0.92383,2.2039,0.73549" stroke-linecap="round"/>
</g>
</g>
<g fill="#eac102" stroke="#000">
<g stroke-width="0.192">
<path d="m303.24,173.39c-0.11701,0.85176-0.31376,2.41-0.22619,2.6727,0.12162,0.36485,0.36873,0.29953,0.55115,1.5157,0.068,0.45318,0.17746,0.96273,0.29526,1.4566-0.12161,0.30403-0.48226,0.97435-0.48226,0.97435s0.35357,0.0791,0.55116,0.0197c-0.15493,0.32068-0.374,0.70862-0.374,0.70862s0.26355,0.0594,0.46257,0.0394c-0.15015,0.33129-0.4232,0.84641-0.4232,0.84641s0.36628,0.0866,0.56099,0.0197c-0.15405,0.33155-0.41336,0.7972-0.41336,0.7972s0.43382,0.0999,0.6102,0c-0.0547,0.89137-0.26603,2.5143,0.30617,2.618,0.48645,0,3.2173,0.36415,3.2173,0.36415l1.1023-0.54131,0.78735-0.37399s-0.33199-0.84397-0.63602-1.0264c-0.30404-0.18242-1.0069-0.73357-1.3717-0.79438-0.36484-0.0608-0.84641-0.17822-0.84641-0.48226,0-0.30403-0.18875-2.2531-0.12794-2.618,0.0608-0.36484,0.0671-1.6457,0.12794-2.2538,0.0508-0.50791,0.43561-2.5432,0.561-3.1999"/>
<path d="m307.74,182.69s0.74461,0.0925,0.98784,0.3357c0.24323,0.24323,0.47381,0.26959,0.66887,0.45605,0.21978,0.21009,0.54727,0.57767,0.54727,0.72968,0,0.15202-0.15202,0.51686-0.33444,0.51686s-0.72969-0.0608-0.72969-0.0608l-0.79049-0.39525-0.69927-0.18242"/>
<path d="m307.79,183.6c0.24323,0.24323,0.5209,0.1906,0.72968,0.36485,0.23343,0.1948,0.54727,0.57766,0.54727,0.72968s-0.15202,0.51686-0.33445,0.51686c-0.18241,0-0.72968-0.0608-0.72968-0.0608l-0.79049-0.39524-0.69928-0.18243"/>
<path d="m306.27,183.72s0.27363,0.15202,0.51686,0.39524c0.24322,0.24323,0.5209,0.1906,0.72968,0.36485,0.23342,0.1948,0.54726,0.57766,0.54726,0.72968s-0.15202,0.51686-0.33444,0.51686-0.72968-0.0608-0.72968-0.0608l-0.79049-0.39525-0.69928-0.18242"/>
<path d="m291.31,174.5s0.94473,0.52081,1.0337,0.18242c0.18194-0.69191,1.1874-1.7507,2.1282-2.0066,0.70218-0.19105,1.561,0.0306,2.1282,0.48646,0.96117,0.77243,1.4403,2.1194,1.581,3.3444,0.0875,0.76227-0.23181,1.5261-0.48645,2.2499-0.25571,0.72681-0.79049,1.7634-1.0337,2.0674-0.24323,0.30404-1.2161,1.885-1.2161,1.885s0.66888,0.18242,1.0945,0.18242c0.42565,0,0.9121,0.30403,1.0337,0.54726,0.12162,0.24323,0.36485,0.60807,0,0.66887-0.36484,0.0608-0.91101,0.55388-0.91101,0.55388s-1.3388,0.35823-1.5821,0.35823c-0.24323,0-0.48646,0.24323-1.2161,0-0.72968-0.24323-0.60807-0.24323-1.1553-0.24323h-1.3986s-1.0337,0.12162-1.3986,0.0608c-0.36484-0.0608-0.97291-0.12162-1.0337-0.60807-0.0608-0.48646-0.0608-0.79049-0.0608-0.97291s0-0.36484,0.12162-0.60807c0.12161-0.24323,0.48645-0.97291,0.48645-0.97291l-0.42564-1.581"/>
<path d="m296.64,182.9s0.79426,0.08,1.0375,0.32328c0.24323,0.24323,0.47381,0.26959,0.66887,0.45605,0.21978,0.21009,0.54727,0.57767,0.54727,0.72968,0,0.15202-0.15202,0.51686-0.33444,0.51686s-0.72969-0.0608-0.72969-0.0608l-0.79049-0.39525-0.69927-0.18242"/>
<path d="m296.74,183.8c0.24323,0.24323,0.5209,0.1906,0.72968,0.36485,0.23343,0.1948,0.54727,0.57766,0.54727,0.72968s-0.15202,0.51686-0.33445,0.51686c-0.18241,0-0.72968-0.0608-0.72968-0.0608l-1.0293-0.36871-0.16863-0.63347"/>
<path d="m295.73,184.32c0.24322,0.24323,0.5209,0.1906,0.72968,0.36485,0.23342,0.1948,0.54726,0.57766,0.54726,0.72968s-0.15202,0.51686-0.33444,0.51686-0.72968-0.0608-0.72968-0.0608l-0.79049-0.39525-1.1632-0.41855"/>
<path d="m310.65,158.01s-0.60128-1.0287-2.0231,0.1607c-2.0261,1.6948-3.2807,4.9893-5.1207,6.3991-0.83042,0.63628-3.8272,2.5298-4.5569,2.773-0.72969,0.24323-1.543,0.56065-2.3107,0.8513-0.73219,0.27722-1.4733,0.53401-2.189,0.8513-0.99442,0.44082-2.0503,0.80433-2.9187,1.4594-0.52684,0.3974-0.88137,0.98272-1.3378,1.4594-0.55507,0.57973-1.1938,1.0819-1.7026,1.7026-0.46332,0.56517-0.84933,1.1921-1.2161,1.8242-0.31848,0.5488-0.68843,1.0893-0.85129,1.7026-0.18758,0.70632-0.20486,1.463-0.12162,2.189,0.11544,1.0068,0.12397,2.213,0.8513,2.9187,0.40574,0.3937,1.0877,0.31342,1.6418,0.42565,0.68269,0.13828,1.3713,0.27942,2.0674,0.30404,1.0766,0.0381,2.2437,0.20622,3.2228-0.24323,0.83363-0.38269,1.3643-1.2365,1.9458-1.9458,0.556-0.67819,0.62987-1.9044,1.4594-2.189,0.48501-0.16641,0.95794,0.37921,1.4594,0.48646,0.39839,0.0852,0.80892,0.10915,1.2161,0.12161,1.0543,0.0323,2.1269,0.0813,3.162-0.12161,0.93124-0.18258,1.8121-0.5791,2.6755-0.97291,0.75946-0.34641,1.591-0.6338,2.189-1.2161,0.74217-0.72269,1.2512-1.6935,1.581-2.6755,0.97349-2.8988,1.046-9.114,1.046-9.114z"/>
<path d="m301.25,174.34c-0.11701,0.85176-0.31376,2.41-0.22619,2.6727,0.12162,0.36485,0.36873,0.29953,0.55115,1.5157,0.068,0.45318,0.17746,0.96273,0.29526,1.4566-0.12161,0.30403-0.48226,0.97435-0.48226,0.97435s0.35357,0.0791,0.55116,0.0197c-0.15493,0.32068-0.374,0.70862-0.374,0.70862s0.26355,0.0594,0.46257,0.0394c-0.15015,0.33129-0.4232,0.84641-0.4232,0.84641s0.36628,0.0866,0.56099,0.0197c-0.15405,0.33155-0.41336,0.7972-0.41336,0.7972s0.43382,0.0999,0.6102,0c-0.0547,0.89137-0.26603,2.5143,0.30617,2.618,0.48645,0,3.2173,0.36415,3.2173,0.36415l1.1023-0.54131,0.78735-0.37399s-0.33199-0.84397-0.63602-1.0264c-0.30404-0.18242-1.0069-0.73357-1.3717-0.79438-0.36484-0.0608-0.84641-0.17822-0.84641-0.48226,0-0.30403-0.18875-2.2531-0.12794-2.618,0.0608-0.36484,0.0671-1.6457,0.12794-2.2538,0.0508-0.50791,0.43561-2.5432,0.561-3.1999"/>
<path d="m305.72,183.64s0.78185,0.0925,1.0251,0.3357c0.24323,0.24323,0.47381,0.26959,0.66887,0.45605,0.21978,0.21009,0.54727,0.57767,0.54727,0.72968,0,0.15202-0.15202,0.51686-0.33444,0.51686s-0.72969-0.0608-0.72969-0.0608l-0.79049-0.39525-0.69927-0.18242"/>
<path d="m305.8,184.55c0.24323,0.24323,0.5209,0.1906,0.72968,0.36485,0.23343,0.1948,0.54727,0.57766,0.54727,0.72968s-0.15202,0.51686-0.33445,0.51686c-0.18241,0-0.72968-0.0608-0.72968-0.0608l-0.79049-0.39524-0.69928-0.18243"/>
<path d="m304.8,185.07c0.24322,0.24323,0.5209,0.1906,0.72968,0.36485,0.23342,0.1948,0.54726,0.57766,0.54726,0.72968s-0.15202,0.51686-0.33444,0.51686-0.72968-0.0608-0.72968-0.0608l-0.79049-0.39525-0.76135-0.15759"/>
<path d="m289.44,175.61s0.94473,0.52081,1.0337,0.18242c0.18194-0.69191,1.1951-1.7241,2.1282-2.0066,0.92831-0.28109,2.0959-0.0994,2.8688,0.48646,0.98269,0.74485,1.4403,2.1194,1.581,3.3444,0.0875,0.76227-0.14507,1.5627-0.48645,2.2499-0.40406,0.8133-1.5311,1.7634-1.7743,2.0674-0.24323,0.30404-1.2161,1.885-1.2161,1.885s0.66888,0.18242,1.0945,0.18242c0.42565,0,0.9121,0.30403,1.0337,0.54726,0.12162,0.24323,0.36485,0.60807,0,0.66887-0.36484,0.0608-0.91101,0.55388-0.91101,0.55388s-1.3388,0.35823-1.5821,0.35823c-0.24323,0-0.48646,0.24323-1.2161,0-0.72968-0.24323-0.60807-0.24323-1.1553-0.24323h-1.3986s-1.0337,0.12162-1.3986,0.0608c-0.36484-0.0608-0.97291-0.12162-1.0337-0.60807-0.0608-0.48646-0.0608-0.79049-0.0608-0.97291s0-0.36484,0.12162-0.60807c0.12161-0.24323,0.48645-0.97291,0.48645-0.97291l-0.42564-1.581"/>
<path d="m294.78,184.01s0.79426,0.08,1.0375,0.32328c0.24323,0.24323,0.47381,0.26959,0.66887,0.45605,0.21978,0.21009,0.54727,0.57767,0.54727,0.72968,0,0.15202-0.15202,0.51686-0.33444,0.51686s-0.72969-0.0608-0.72969-0.0608l-0.79049-0.39525-0.69927-0.18242"/>
<path d="m294.87,184.91c0.24323,0.24323,0.5209,0.1906,0.72968,0.36485,0.23343,0.1948,0.54727,0.57766,0.54727,0.72968s-0.15202,0.51686-0.33445,0.51686c-0.18241,0-0.72968-0.0608-0.72968-0.0608l-1.0293-0.36871-0.16863-0.63347"/>
<path d="m293.87,185.43c0.24322,0.24323,0.5209,0.1906,0.72968,0.36485,0.23342,0.1948,0.54726,0.57766,0.54726,0.72968s-0.15202,0.51686-0.33444,0.51686-0.72968-0.0608-0.72968-0.0608l-0.79049-0.39525-1.1632-0.41855"/>
<path d="m288.23,180.81s0.63808,1.122,1.1709,1.4325c0.62186,0.36241,1.4098,0.40861,2.1282,0.36484,0.63367-0.0386,1.2473-0.28239,1.8242-0.54726,0.54675-0.251,1.0865-0.55596,1.5202-0.97291,0.58775-0.56505,1.0372-1.2758,1.3986-2.0066,0.23582-0.47692,0.37696-0.99952,0.48646-1.5202,0.0797-0.37895,0.16352-0.77037,0.12161-1.1553-0.0694-0.6372-0.30563-1.2591-0.60807-1.8242-0.43619-0.81503-1.0986-1.4893-1.7026-2.189-0.42154-0.48834-0.9013-0.92351-1.3378-1.3986-0.31089-0.33839-0.58958-0.70638-0.9121-1.0337-0.42296-0.42928-0.90726-0.79441-1.3378-1.2161-0.37895-0.37123-0.75828-0.74502-1.0945-1.1553-0.26734-0.32622-0.52273-0.66621-0.72968-1.0337-0.42312-0.75138-0.79387-1.5432-1.0337-2.3715-0.1483-0.51215-0.26083-1.0481-0.24323-1.581,0.0185-0.56031,0.0631-1.1693,0.36485-1.6418,0.23346-0.36559,0.63116-0.62888,1.0337-0.79049,0.34066-0.13676,0.74609-0.23713,1.0945-0.12161,0.39475,0.13087,0.63424,0.54185,0.9121,0.85129,0.20313,0.22622,0.41789,0.45455,0.54726,0.72969,0.22174,0.47159,0.48029,1.012,0.36485,1.5202-0.0926,0.40748-0.38259,1.0636-0.7905,0.97291-0.4079-0.0906-0.17063-0.82014-0.30403-1.2161-0.14784-0.43887-0.1688-1.0101-0.54726-1.277-0.26556-0.18725-0.69913-0.23581-0.97291-0.0608-0.32984,0.21083-0.40944,0.7034-0.42565,1.0945-0.0236,0.57029,0.29361,1.1046,0.48645,1.6418,0.24549,0.68386,0.46104,1.3938,0.8513,2.0066,0.43941,0.69005,1.0787,1.2307,1.6418,1.8242,0.63133,0.66544,1.3045,1.29,1.9458,1.9458,0.45107,0.46121,0.92626,0.90173,1.3378,1.3986,0.55609,0.67142,1.0572,1.3895,1.5202,2.1282,0.40458,0.64561,0.88007,1.2755,1.0945,2.0066,0.16015,0.54597,0.14542,1.1341,0.12162,1.7026-0.0275,0.65591-0.11845,1.3161-0.30404,1.9458-0.11287,0.38297-0.28208,0.75155-0.48645,1.0945-0.32614,0.54733-0.74999,1.032-1.1666,1.5141-0.36049,0.41705-0.71439,0.85069-1.1501,1.1883-0.56941,0.44122-1.1957,0.83931-1.8789,1.0676-0.60088,0.20081-1.2515,0.24402-1.885,0.24323-0.77686-0.00095-1.5903-0.0132-2.3107-0.30404-0.53756-0.217-0.94705-0.67012-1.3986-1.0337-0.83202-0.67002-1.0536-1.929-1.1144-2.233"/>
<path d="m310.98,162.73c0.9044-0.18384,1.1342,0.11011,1.5977,0.405,0.47721,0.30356,0.64065,0.95037,1.0747,1.313,0.16757,0.14001,0.35473,0.30434,0.57266,0.31815,0.22798,0.0145,0.50903,0,0.63629-0.25451,0.12726-0.25452,0.12726-0.6363,0.25451-0.38178,0.12726,0.25452,0.23563,0.88203,0,1.209-0.2353,0.32647-0.75654,0.4857-1.1453,0.38178-0.49347-0.13191-0.64896-0.79223-1.0181-1.1453-0.31596-0.30225-0.61382-0.66054-1.0181-0.82718-0.39413-0.16247-1.2726-0.12725-1.2726-0.12725z"/>
</g>
<g stroke-width="0.258">
<path d="m306.11,172.49s-0.60196,1.5049-0.60196,2.1498c0,0.64496,0.086,1.8059,0.043,1.9779-0.043,0.17199,0.42997-0.77394,0.77395-1.1179,0.34397-0.34398,0.68795-0.60196,0.85994-1.0319,0.17199-0.42997,0.17199-1.1179,0.21498-1.3759,0.043-0.25798,0.30098-0.043-0.043-0.73095s-1.2469,0.12899-1.2469,0.12899z"/>
<path d="m306.8,170.21s-0.086,0.77395-0.086,1.5049,0.17199,0.64496,0.25798,1.3759c0.086,0.73095,0.17199,1.7199,0.17199,1.7199s0.64496-0.64496,0.85994-0.90294c0.21499-0.25798,0.73095-1.5479,0.73095-1.5479l-1.3329-1.8919-0.38697-0.25798z"/>
<path d="m308.69,174.64s-0.38697,1.1179-0.47296,1.4619c-0.086,0.34397-0.25799,0.64495-0.21499,1.1179,0.043,0.47297-0.17199,1.4619-0.17199,1.4619l0.47297-0.25798c0.086-0.25799,0.98893-1.8059,0.98893-1.8059l0.086-1.3329z"/>
<path d="m308.91,172.23s-0.77395,0.85994-0.98893,1.2469c-0.21499,0.38697-0.25798,0.90294-0.25798,1.2899,0,0.38697,0.043,0.64496,0.17198,1.4189,0.12899,0.77395,0.47297,0.38698,0.68795,0,0.21499-0.38697,0.60196-0.77394,0.60196-1.2039,0-0.42997,0-1.6339-0.043-2.0208-0.043-0.38698-0.17199-0.73095-0.17199-0.73095z"/>
<path d="m305.34,171.29c0,0.25799-0.129,2.1069-0.043,2.4938,0.086,0.38697-0.086,1.8489,0,1.5479,0.086-0.30098,1.2899-2.0209,1.3329-2.1928,0.043-0.17198-0.086-1.6769-0.086-1.6769z"/>
<path d="m304.65,170.43v1.0319c0,0.47297,0.086,0.38698,0,1.2469-0.086,0.85994-0.25798,1.2469-0.25798,1.2469s0.81694-0.25798,0.94594-0.55896c0.12899-0.30098,0.47297-0.47297,0.47297-1.0319v-1.4619z"/>
<path d="m304.05,167.5s-0.25799,1.3329-0.34398,1.5479c-0.086,0.21498-0.086,1.0319-0.21498,1.5049-0.129,0.47297-0.38698,1.3759-0.38698,1.3759s1.0319-0.60196,1.1609-0.77395c0.12899-0.17198,0.68795-0.51596,0.81694-0.85994,0.12899-0.34397,0.17199-1.2469,0.17199-1.2469l-0.42997-1.2469z"/>
<path d="m305.38,169.82c0.043,0.30098,0.086,1.3329,0.55897,1.9349,0.47296,0.60196,0.81694,1.0319,0.81694,1.2039,0,0.17198,0.25798-0.55896,0.30098-0.98893s0.17199-1.1179,0.043-1.4189c-0.12899-0.30098-0.68795-0.94593-0.68795-0.94593z"/>
<path d="m304.99,167.63s-0.17199,0.85994-0.17199,1.3759c0,0.51597-0.043,0.81694,0.17199,1.2899,0.21498,0.47297,0.60196,0.90294,0.68795,1.0749,0.086,0.17199,0.25799,0.60196,0.25799,0.60196s0.043-0.68796,0.12898-0.94594c0.086-0.25798,0.086-1.9779,0.086-1.9779l-0.25798-1.8059z"/>
<path d="m304.52,165.82s-0.17198,1.5049-0.086,1.8059c0.086,0.30098,0.30098,1.6339,0.30098,1.6339s0.17199-0.60195,0.42997-1.2039c0.25798-0.60196,0.51596-1.3759,0.47296-1.5909-0.043-0.21499-0.94593-0.77395-1.1179-0.64496z"/>
<path d="m304.95,164.75c0,0.17199-0.086,1.1609,0,1.4189,0.086,0.25798,0.47297,1.3329,0.60196,1.5049,0.12899,0.17198,0.42997,0.85994,0.42997,0.85994s0.21499-0.68796,0.38698-1.1179c0.17198-0.42997,0.30097-1.0749,0.30097-1.4189,0-0.34397-0.17198-1.1179-0.21498-1.4189-0.043-0.30098-0.73095-1.1179-0.73095-1.1179z"/>
<path d="m303.7,166.25s-0.42997,0.85995-0.42997,1.2039c0,0.34398-0.60196,1.1609-0.60196,1.1609s-0.086,0.17199,0.34398,0.043c0.42997-0.12899,0.90294-0.25799,1.0749-0.55896,0.17199-0.30098,0.51597-1.2469,0.55896-1.4189,0.043-0.172-0.94593-0.42998-0.94593-0.42998z"/>
<path d="m304.82,162.94s-0.73095,0.90294-0.85994,1.2469c-0.12899,0.34397-0.17199,0.60196-0.17199,1.0749,0,0.47297,0.129,1.8489,0.129,1.8489l0.21498,0.77394s0.30098-0.90294,0.68795-1.4619,0.68795-1.3329,0.81694-1.6339c0.129-0.30098,0.172-1.3759,0.172-1.3759z"/>
<path d="m303.83,162.69s-0.51596,0.81695-0.64495,1.1179c-0.12899,0.30097-0.30098,1.0749-0.30098,1.4189v0.94593c0,0.55896,0.34397,1.7199,0.34397,1.8919,0,0.17199,0.25799-0.12899,0.34398-0.34398,0.086-0.21498,0.34398-2.1928,0.34398-2.1928l0.30097-1.6769,0.55897-1.4619z"/>
<path d="m309.21,173.26s-0.42997,1.5909-0.42997,2.0638c0,0.47297,0.42997,1.5909,0.42997,1.5909l0.77394,0.98893s-0.043-0.55896-0.043-1.0749c0-0.51597,0.30099-1.5049,0.30099-1.5049v-0.94593z"/>
<path d="m308.52,169.65s-0.47296,1.1609-0.47296,1.4189c0,0.25798,0.34397,1.7629,0.34397,1.7629s0.64496,1.3759,0.73095,1.6339c0.086,0.25798,0.086,1.2469,0.17199,0.51596,0.086-0.73094,0.34398-1.5049,0.42997-1.7199,0.086-0.21499-0.086-1.4619-0.12899-1.6769-0.043-0.21498-0.25798-1.2899-0.25798-1.2899z"/>
<path d="m307.49,168.06s-0.55896,1.5909-0.55896,1.8489c0,0.25798,0.55896,1.4189,0.55896,1.4189l1.1609,1.2469s0.086-1.0319,0.086-1.3759c0-0.34398,0.086-1.3329,0-1.5049-0.086-0.17198-1.2469-1.6339-1.2469-1.6339z"/>
<path d="m306.02,167.72c-0.043,0.60196-0.17199,1.8919,0.043,2.3648,0.21499,0.47296,1.0319,1.2039,1.1179,1.3759,0.086,0.17199,0.043,0.12899,0.086-0.38697,0.043-0.51597,0.086-0.94594,0.17199-1.5049,0.086-0.55896,0.17199-0.85994,0.086-1.2899-0.086-0.42997-0.55896-0.90294-0.55896-0.90294z"/>
<path d="m307.74,166c-0.043,0.17199-0.55896,1.0749-0.60196,1.4189-0.043,0.34398,0.17199,1.1609,0.30098,1.3329,0.12899,0.17199,0.77395,1.0319,0.77395,0.85994,0-0.17199,0.25798-1.3329,0.25798-1.5479,0-0.21499-0.086-0.68796-0.12899-1.3329-0.043-0.64495,0.12899-1.1609,0.12899-1.1609z"/>
<path d="m308.48,165.87s-0.60196,0.90294-0.60196,1.3759,0,1.4189,0.086,1.6339c0.086,0.21499,0.38698,1.4189,0.42997,1.6769,0.043,0.25799,0.34398-0.12899,0.51597-0.51596s0.51596-0.73095,0.51596-1.2039c0-0.47296-0.17199-1.3759-0.17199-1.6339,0-0.25799-0.12899-1.1179-0.12899-1.1179z"/>
<path d="m307.91,163.28s-0.12161,1.0337-0.0912,1.3378c0.0304,0.30403,0.15201,1.1249,0.15201,1.1249s0.12162,0.79049,0.15202,0.9121,0.0304,0.18242,0.0304,0.18242,0.45605-0.21282,0.48645-0.33443c0.0304-0.12162,0.27363-1.0033,0.42565-1.2161,0.15202-0.21283,0.57767-0.8513,0.57767-0.8513s0.0912-0.15202,0.15201-0.39525c0.0608-0.24323,0.12162-1.0641,0.12162-1.0641l-0.66888-0.57766z"/>
<path d="m303.49,161.53s-0.55896,0.64496-0.64496,0.85994c-0.086,0.21499-0.38697,0.55896-0.47297,0.90294-0.086,0.34397,0,0.21499-0.21498,0.68795-0.21499,0.47297-0.81695,1.2039-0.81695,1.2039l-0.85994,0.21498s0.64496,0.34398,0.94594,0.34398,1.2899-0.42997,1.4189-0.60196c0.12899-0.17199,0.73095-1.0749,0.85994-1.4189,0.12899-0.34397-0.21498-2.1928-0.21498-2.1928z"/>
<path d="m304.05,159.72s-0.68796,0.51596-0.73095,0.90294c-0.043,0.38697-0.086,0.73095-0.086,1.1179,0,0.38697,0,1.0319,0.086,1.3329,0.086,0.30099,0.12899,0.77395,0.12899,0.77395s0.55896-0.47296,0.73095-0.64495,0.30098-0.60196,0.47296-0.98894c0.17199-0.38697,0.086-0.94593,0.17199-1.2039,0.086-0.25798,0.21499-1.2469,0.21499-1.2469z"/>
<path d="m305.21,159.58s-0.76009,1.429-0.76009,1.5506c0,0.12161-0.0304,0.39524,0.18242,0.36484,0.21283-0.0304,0.76009-0.48646,0.94251-0.63847,0.18242-0.15202,0.54726-0.36485,0.72968-0.63847,0.18242-0.27364,0.21283-0.18243,0.24323-0.45606s0.15202-0.79049,0.0304-0.79049c-0.12161,0-0.27363-0.12161-0.60807,0.0304-0.33444,0.15202-0.76008,0.57767-0.76008,0.57767z"/>
<path d="m305.59,157.74s-0.77395-0.17199-0.94594-0.043c-0.17198,0.12899-0.38697,0.086-0.55896,0.55896-0.17198,0.47297-0.47296,1.5049-0.47296,1.5049l-0.30098,0.38698-0.60196,0.38697s0.25798,0.25798,0.51596,0.25798c0.25799,0,1.1609-0.25798,1.3759-0.38697,0.21498-0.12899,0.68795-0.77394,0.73095-0.98893s0.086-0.60196,0.12899-0.90294c0.043-0.30098,0.12899-0.77394,0.12899-0.77394z"/>
<path d="m306.18,157.75c-0.36484,0.18243-0.94251,0.8209-1.1249,1.2466-0.18242,0.42564-0.30403,1.0033-0.51686,1.1249-0.21282,0.12161-0.72968,0.24322-0.21282,0.27363,0.51686,0.0304,1.0033-0.21283,1.2465-0.33444,0.24323-0.12162,0.79049-1.1553,0.79049-1.1553l0.21283-0.63848z"/>
<path d="m307.49,156.17s-0.36548-0.0215-0.55896,0.0215c-0.19349,0.043-0.47297-0.0645-0.73095,0.17199-0.25798,0.23648-0.40848,0.40847-0.51597,0.53746s-0.17199,0.12899-0.42997,0.47296c-0.25798,0.34398-0.043,0.129-0.32248,0.49447s-0.45146,0.70945-0.53746,0.79545-0.34397,0.30097-0.60196,0.34397c-0.47425,0.22248,0.50542,0.21846,0.88144,0.24656,0.25798,0.0215,0.49573-0.0126,0.71071-0.0341,0.21499-0.0215,0.27823-0.19091,0.49321-0.25541,0.21499-0.0645,0.30098-0.043,0.34398-0.12899,0.043-0.086,0.47296-0.40847,0.62345-0.58046s0.21499-0.32248,0.34398-0.45147,0.10749-0.21498,0.38697-0.32247c0.27948-0.1075,0.36548-0.15049,0.45147-0.27948,0.086-0.129,0.043-0.60196,0.043-0.60196z"/>
<path d="m306.45,164.79s-0.42997,1.0319-0.42997,1.3329c0,0.30098,0.21498,1.3329,0.21498,1.3329l0.129,1.1179s0.47296-0.38697,0.68795-0.73095c0.21498-0.34397,0.55896-1.4189,0.55896-1.4189v-1.1179l-0.34398-0.85994z"/>
<path d="m306.63,162.94s-0.60196,0.73095-0.60196,1.1609c0,0.42997,0.30098,1.6339,0.30098,1.6339s0,1.0749,0.086,0.77394c0.086-0.30097,0.34398-0.77394,0.64496-1.2899,0.30098-0.51597,0.42997-1.0749,0.42997-1.2469,0-0.17198-0.85994-1.0319-0.85994-1.0319z"/>
<path d="m307.58,162.36s-0.44357,1.2743-0.40058,1.9188c0.043,0.6445,0.30098,2.2558,0.47297,2.4169,0.17199,0.16113,0.47297-0.21483,0.47297-0.80562s-0.043-1.9335-0.043-2.202c0-0.26854,0.42997-2.3094,0.42997-2.3094z"/>
<path d="m308.99,159.74s-0.64063,0.79352-0.72663,1.0515c-0.086,0.25799-0.086,0.98893-0.086,1.2899,0,0.30098,0.12899,1.3759,0.12899,1.3759s1.0967-0.72346,1.0798-0.80287c0.0373-0.0625-0.0614-0.031-0.043-0.72965,0.0203-0.76744,0.71556-1.471,0.71556-1.471z"/>
<path d="m310.28,169.35s-0.85994,0.77394-0.85994,1.2899-0.043,1.6339-0.043,1.8919c0,0.25798-0.086,1.2469,0.043,1.6769,0.12899,0.42997,1.5049,2.1498,1.5049,2.1498s0.51596,0.12899,0.34397-0.17199c-0.17198-0.30098-0.64495-1.0319-0.64495-1.7199,0-0.68795,0.086-1.9349,0.086-1.9349l0.21499-1.3759z"/>
<path d="m309.38,168.79s-0.25798,0.73095-0.25798,1.3759c0,0.64496-0.12899,0.64496,0.086,1.0749,0.21498,0.42998,0.12899,1.6339,0.30098,1.2469,0.17199-0.38697,0.38697-1.5049,0.38697-1.8919,0-0.38697,0.12899-1.2039,0.21499-1.4619,0.086-0.25798-0.73096-0.34397-0.73096-0.34397z"/>
<path d="m311.44,171.46s-0.25798,0.81694,0,1.3329,0.25798,0.98893,0.38697,1.1609c0.129,0.17198,0.21499,0.55896-0.30097,0.21498-0.51597-0.34397-0.98893-0.64495-1.1179-1.1609-0.12899-0.51596-0.30097-1.1179-0.17198-1.5479,0.12899-0.42997,0.17198-1.5479,0.17198-1.5479l1.1609,1.8059z"/>
<path d="m309.98,163.19s-0.36484,0.69927-0.48645,0.9121c-0.12162,0.21282-0.36484,0.79049-0.36484,0.79049s-0.15202,0.79049-0.15202,1.0033v0.82089c0,0.21282-0.0912,1.4594-0.0912,1.4594s0.0608,0.72968,0.0608,1.0033v0.54726s0.39524-0.15202,0.48645-0.27363c0.0912-0.12161,0.39525-0.33444,0.48646-0.76008,0.0912-0.42565,0.18242-0.69929,0.18242-1.0945,0-0.39525-0.0608-1.277-0.0608-1.277s-0.0608-0.51686,0.0608-0.76008c0.12161-0.24323,0.24322-0.60807,0.33443-0.79049,0.0912-0.18243,0.21283-0.8513,0.21283-0.8513z"/>
<path d="m310.5,169.35c-0.043,0.17199,0.086,1.7629,0.25798,2.4078,0.17199,0.64496,0.21498,1.3759,0.21498,1.5909,0,0.21498,0.34398,0,0.47297-0.38697,0.12899-0.38698,0.30098-1.4189,0.38697-1.7199,0.086-0.30097,0.043-1.5479,0.043-1.5479l-0.55896-1.1609z"/>
<path d="m310.11,166.56s-0.30099,1.3759-0.30099,1.8919c0,0.51597,0.34398,2.1928,0.34398,2.1928s0.086,0.34398,0.30098-0.21499c0.21499-0.55896,0.51596-1.1609,0.51596-1.5479,0-0.38697-0.38697-1.9349-0.38697-1.9349z"/>
<path d="m310.41,164.19s-0.51596,0.77394-0.55896,1.0104c-0.043,0.23648-0.0215,0.90293-0.0215,0.90293s0.043,0.85995,0.12899,0.94594c0.086,0.086,0.32248,0.66645,0.32248,0.66645s0.15049-0.12899,0.23648-0.40847c0.086-0.27948,0.34398-0.81694,0.34398-0.81694l0.32248-0.75245s0.0215-0.58046,0.0215-0.66645c0-0.086-0.70946-0.81695-0.79545-0.88144z"/>
<path d="m312.04,167.16c0.21498,0.25798,0.51596,1.1179,0.51596,1.3759,0,0.25798-0.12899,0.51596-0.30098,0.98893-0.17198,0.47296-0.17198,1.4189-0.17198,1.4189s-0.51597-0.55896-0.51597-0.81695c0-0.25798-0.17199-1.7199-0.17199-1.7199z"/>
<path d="m311.16,165.37s-0.42997,0.70945-0.49446,0.88143c-0.0645,0.17199-0.086,0.90294-0.0645,1.1179,0.0215,0.21499,0.27948,1.7629,0.27948,1.8489s-0.043,0.51596-0.043,0.51596,0.34398-0.30098,0.47297-0.45147,0.55896-0.68795,0.55896-0.68795,0.10749-0.49446,0.15049-0.66645,0.10749-1.1394,0.10749-1.1394z"/>
<path d="m307.02,160.31s-0.45993,0.86533-0.64264,1.0889c-0.18271,0.22355-0.17956,0.93982-0.13657,1.4988,0.043,0.55896,0.17199,1.0749,0.17199,1.0749s0.61394-0.29556,0.71448-0.74967c0.10055-0.4541,0.42196-1.6322,0.54771-1.7736,0.12575-0.14138-0.65497-1.1394-0.65497-1.1394z"/>
<path d="m306.57,157.11s-0.89871,0.96243-1.0611,1.1033c-0.16237,0.14091-0.58515,0.86079-0.56371,1.161,0.0214,0.30021,0.0765,1.0722,0.0765,1.0722l0.62497-0.90674s0.64099-0.87495,0.66563-1.1486c0.0246-0.27368,0.25765-1.2812,0.25765-1.2812z"/>
<path d="m308.35,158.3-0.94594,0.73095s-0.30098,0.77394-0.38697,1.2469c-0.086,0.47297-0.043,0.98893-0.12899,1.2899-0.086,0.30098,0.73095,0,0.73095,0l0.62018-0.67592,0.74293-1.1667z"/>
<path d="m307.55,161.59s-0.49478,1.6546-0.45179,1.9126c0.043,0.25798,0.64496-0.21499,0.85994-0.81695,0.21499-0.60196,0.43583-2.0445,0.43583-2.0445z"/>
<path d="m305.79,160.76s-0.71379,0.33745-0.88577,0.42345c-0.17199,0.086-0.51597,0.34397-0.55896,0.51596-0.043,0.17199-0.043,1.3329-0.043,1.3329l0.42997,1.2899,0.66944-0.51641s0.0905-1.2845,0.22179-1.4585c0.13126-0.17393,0.16653-1.5874,0.16653-1.5874z"/>
<path d="m307.33,159.21s-0.96496,0.89599-1.137,1.025c-0.17199,0.12899-0.64496,0.81695-0.64496,1.1179v1.0749l0.68795-0.85994s0.70167-0.82709,0.74574-1.0983c0.0441-0.27124,0.34822-1.2596,0.34822-1.2596z"/>
<path d="m307.5,156.8s-0.45992,0.86533-0.64263,1.0889c-0.18271,0.22355-0.17957,0.93982-0.13657,1.4988,0.043,0.55896,0.17199,1.0749,0.17199,1.0749s0.61393-0.29556,0.71448-0.74967c0.10054-0.4541,0.42195-1.6322,0.54771-1.7736,0.12575-0.14138-0.65498-1.1394-0.65498-1.1394z"/>
<path d="m307.79,158.2s-0.49478,1.6546-0.45178,1.9126c0.043,0.25797,0.64495-0.21499,0.85994-0.81695,0.21498-0.60196,0.43583-2.0445,0.43583-2.0445z"/>
<path d="m306.16,161.66s-0.69844,0.67957-0.74144,1.2385c-0.043,0.55896,0,1.8489,0,1.8489s1.0011-0.64126,0.93476-1.0211c-0.0663-0.37983-0.13986-1.2483-0.13986-1.2483z"/>
<path d="m313.34,158.16s-0.66749-1.0033-1.1797-1.2715c-0.17957-0.094-0.42997-0.043-0.60196-0.086s-1.2039-0.34398-0.90294,0c0.30098,0.34398,0.94593,0.73095,1.1179,1.1609,0.17199,0.42997,0.56645,0.7737,0.56645,0.7737l0.46548,0.21523z"/>
<path d="m307.09,157.07s-0.82777,0.51421-0.98948,1.051c-0.16172,0.53678-0.39597,1.806-0.39597,1.806s1.1152-0.41197,1.1318-0.79721c0.0165-0.38524,0.13071-1.2492,0.13071-1.2492z"/>
<path d="m309.44,157.08-0.80819-0.44092s-1.1285,0.13839-1.1284,0.14224c0.00017,0.004-1.2018,0.1685-1.4488,0.24308-0.24696,0.0746-0.39062,0.34254-0.39062,0.34254s0.68693,0.0895,1.0298,0.13815c0.41001,0.0582,0.85364,0.008,1.2287,0.184,0.46978,0.22005,1.1873,0.99226,1.1624,1.0349-0.025,0.0426,0.47416,0.38617,0.47416,0.38617l0.70769-1.5044z"/>
<path d="m311.1,157.14-0.64622-0.65574-1.4009-0.39505s-0.91967,0.0189-1.1776,0.0189c-0.25798,0-0.47297,0.21498-0.47297,0.21498s0.64496,0.25799,0.94594,0.42997c0.30098,0.17199,0.94593,0.73095,0.94593,0.73095s1.0268,1.0936,0.99063,1.1271c-0.0362,0.0336,0.34228,0.50676,0.34228,0.50676l1.1124-1.2356z"/>
<path d="m312.19,157.77s-0.67135-0.99606-1.1797-1.2715c-0.24551-0.13302-0.65359-0.0989-0.82558-0.1419s-0.80976,0.0186-0.80976,0.0186,1.0764,0.76822,1.2484,1.1982c0.17199,0.42997,0.56645,0.7737,0.56645,0.7737l0.46548,0.21523z"/>
<path d="m309.69,157.78s-0.67165,0.18362-0.78254,0.30407c-0.1109,0.12046-0.23537,0.10563-0.40156,0.62793-0.1662,0.5223-0.26426,0.56631-0.26751,0.87411-0.003,0.3078,0.0923,0.78331,0.10792,0.87057,0.0156,0.0873-0.27028,0.71041-0.27028,0.71041s0.046,0.05,0.22254-0.0292c0.17652-0.0792,0.49916-0.20043,0.7061-0.31688,0.20695-0.11645,0.42672-0.30933,0.60048-0.55226,0.17374-0.24292,0.46795-0.37495,0.57606-0.65912,0.10812-0.28416,0.16821-0.57033,0.21346-0.73203,0.0453-0.16169,0.13978-0.58115,0.13978-0.58115z"/>
<path d="m309.44,158.32s-0.38511,0.6727-0.50098,1.3072c-0.11588,0.63446-0.24277,0.61128-0.10853,1.0729,0.13424,0.4616-0.16666,1.6305,0.072,1.2807,0.23872-0.34978,0.65105-1.4109,0.72058-1.7916,0.0695-0.38068,0.34319-1.1612,0.47413-1.3995,0.13095-0.23833-0.65725-0.4697-0.65725-0.4697z"/>
<path d="m291.41,161.2c0.40978-0.52594,1.4237,0.18753,1.885,0.66888,0.38151,0.39807,0.38508,1.039,0.48646,1.581,0.1046,0.55928,0.61587,1.4207,0.12161,1.7026-0.27839,0.15876-0.63611-0.26642-0.79049-0.54726-0.2443-0.44441,0.1496-1.0588-0.0608-1.5202-0.19632-0.43054-0.72821-0.61157-1.0337-0.97292-0.23591-0.27904-0.83264-0.62386-0.60807-0.9121z"/>
<path d="m292.26,163.94c-0.3734,0.34316-0.093,1.0369,0.0608,1.5202,0.14665,0.46071,0.44252,0.88046,0.79049,1.2161,0.4253,0.41028,0.93649,0.81983,1.5202,0.91211,0.26711,0.0422,0.75601,0.0858,0.79049-0.18242,0.0613-0.47658-1.0041-0.27335-1.2769-0.66888-0.28979-0.4201-0.0116-1.0393-0.18242-1.5202-0.15249-0.4292-0.34521-0.9111-0.72969-1.1553-0.27587-0.17524-0.73227-0.34277-0.97291-0.12162z"/>
<path d="m290.93,163.67c-0.34831,0.40012,0.0883,1.0838,0.32705,1.5575,0.27791,0.55138,0.88457,0.87309,1.2308,1.3844,0.16072,0.23735,0.11367,0.86258,0.38465,0.76912,0.79144-0.27297-0.30429-1.6473-0.5002-2.4612-0.095-0.39462-0.0124-0.91651-0.327-1.1729-0.28886-0.23542-0.87061-0.35787-1.1153-0.0768z"/>
<path d="m291.41,161.63c-0.33621,0.29571-0.0296,0.91631,0.12162,1.3378,0.18229,0.50799,0.6781,0.85142,0.9121,1.3378,0.11954,0.24843-0.0318,0.77205,0.24323,0.79049,0.28956,0.0194,0.29586-0.5086,0.36484-0.79049,0.1013-0.41391,0.15316-0.86094,0.0608-1.2769-0.0943-0.42485-0.26228-0.8911-0.60807-1.1553-0.29697-0.22693-0.81389-0.49006-1.0945-0.24323z"/>
<path d="m290.92,161.69c-0.49736,0.18451-0.21323,1.0514-0.18242,1.581,0.0411,0.70677,0.20454,1.418,0.48645,2.0674,0.0582,0.13408,0.10006,0.39423,0.24323,0.36484,0.54521-0.1119,0.26342-1.0867,0.30404-1.6418,0.04-0.54618,0.16808-1.1443-0.0608-1.6418-0.14988-0.32577-0.45429-0.85441-0.79049-0.72968z"/>
</g>
<g fill="#e6e6e6" stroke-width="0.189">
<path d="m314.82,163.2-1.1404,0.90141,0.51848-1.5174z"/>
<path d="m312.18,166.05,1.0663-1.0423-0.49184,1.5747z"/>
<path d="m308.54,184.42s0.57581,0.4298,0.68517,0.75037c0.0476,0.13941-0.0364,0.44039-0.0364,0.44039s-0.2444-0.30013-0.39812-0.41441c-0.20575-0.15296-0.68466-0.35047-0.68466-0.35047-0.0115-0.24907,0.0987-0.41467,0.43402-0.42589z" stroke-linecap="round"/>
<path d="m309.52,183.97s0.57582,0.4298,0.68517,0.75038c0.0476,0.13941-0.0364,0.44039-0.0364,0.44039s-0.24439-0.30013-0.39812-0.41441c-0.20575-0.15297-0.68466-0.35048-0.68466-0.35048-0.0115-0.24906,0.0987-0.41467,0.43403-0.42588z" stroke-linecap="round"/>
<path d="m297.49,184.62s0.57581,0.4298,0.68517,0.75037c0.0476,0.13941-0.0364,0.44039-0.0364,0.44039s-0.2444-0.30013-0.39812-0.41441c-0.20575-0.15296-0.68466-0.35047-0.68466-0.35047-0.0115-0.24907,0.0987-0.41467,0.43402-0.42589z" fill-rule="nonzero" stroke-linecap="round"/>
<path d="m298.46,184.17s0.57582,0.4298,0.68517,0.75038c0.0476,0.13941-0.0364,0.44039-0.0364,0.44039s-0.24439-0.30013-0.39812-0.41441c-0.20575-0.15297-0.68466-0.35048-0.68466-0.35048-0.0115-0.24906,0.0987-0.41467,0.43403-0.42588z" fill-rule="nonzero" stroke-linecap="round"/>
<path d="m305.54,185.96s0.57582,0.4298,0.68517,0.75037c0.0476,0.13941-0.0364,0.4404-0.0364,0.4404s-0.24439-0.30013-0.39812-0.41441c-0.20575-0.15297-0.68466-0.35048-0.68466-0.35048-0.0115-0.24906,0.0987-0.41467,0.43403-0.42588z" stroke-linecap="round"/>
<path d="m306.55,185.38s0.57581,0.4298,0.68517,0.75037c0.0476,0.13941-0.0364,0.44039-0.0364,0.44039s-0.2444-0.30013-0.39812-0.41441c-0.20575-0.15296-0.68466-0.35047-0.68466-0.35047-0.0115-0.24907,0.0987-0.41467,0.43402-0.42589z" stroke-linecap="round"/>
<path d="m307.53,184.92s0.57582,0.4298,0.68517,0.75038c0.0476,0.13941-0.0364,0.44039-0.0364,0.44039s-0.24439-0.30013-0.39812-0.41441c-0.20575-0.15297-0.68466-0.35048-0.68466-0.35048-0.0115-0.24906,0.0987-0.41467,0.43403-0.42588z" stroke-linecap="round"/>
<path d="m294.61,186.31s0.57582,0.4298,0.68517,0.75037c0.0476,0.13941-0.0364,0.4404-0.0364,0.4404s-0.24439-0.30013-0.39812-0.41441c-0.20575-0.15297-0.68466-0.35048-0.68466-0.35048-0.0115-0.24906,0.0987-0.41467,0.43403-0.42588z" fill-rule="nonzero" stroke-linecap="round"/>
<path d="m295.63,185.73s0.57581,0.4298,0.68517,0.75037c0.0476,0.13941-0.0364,0.44039-0.0364,0.44039s-0.2444-0.30013-0.39812-0.41441c-0.20575-0.15296-0.68466-0.35047-0.68466-0.35047-0.0115-0.24907,0.0987-0.41467,0.43402-0.42589z" fill-rule="nonzero" stroke-linecap="round"/>
<path d="m296.6,185.28s0.57582,0.4298,0.68517,0.75038c0.0476,0.13941-0.0364,0.44039-0.0364,0.44039s-0.24439-0.30013-0.39812-0.41441c-0.20575-0.15297-0.68466-0.35048-0.68466-0.35048-0.0115-0.24906,0.0987-0.41467,0.43403-0.42588z" fill-rule="nonzero" stroke-linecap="round"/>
</g>
<path stroke-width="0.1925" d="m311.88,157.62c-0.16944-0.005-0.33751,0.006-0.4975,0.0358-0.2555,0.0473-0.55625,0.23236-0.82469,0.43476-0.95687-1.1446-1.9575,0.24184-1.5104,1.0891,0.13925,0.26392,0.43383,0.38392,0.63645,0.62748-0.005,0.31016-0.0177,0.59752-0.11653,0.76642-0.21739,0.26404-0.32735,0.61482-0.39442,0.95019-0.0671,0.33537-0.0786,0.69351,0,1.0264,0.0811,0.34352,0.30406,0.63449,0.47061,0.9457,0.20017,0.37401,0.63196,1.107,0.63196,1.107v1.1026l0.63196-0.39441c0.18943,0.75943,0.49386,1.4414,1.0264,1.9721,0,0,0.79343-0.0178,0.9457-0.31374,0.16374-0.31818-0.31374-1.0264-0.31374-1.0264l-0.9457-0.9457c-0.25901-0.37949-0.61152-0.80786-0.55577-1.2639,0.0524-0.4283,0.43191-0.78391,0.78884-1.0264,0.31686-0.21525,0.72416-0.30231,1.107-0.31374,0.1089-0.003,0.67418-0.36106,0.68126-0.21962,0.007,0.12992-0.0353,0.26797,0.0269,0.37649,0.20689,0.36087,1.0264,0.70815,1.0264,0.70815s0.71068-0.39518,1.0264-0.63196c0.3157-0.23678,0.451-1.1382,0.15687-1.5777-0.15278-0.22827-0.55303-0.0967-0.78883-0.23755-0.51107-0.30526-1.1805-1.0227-1.2594-1.2594-0.0789-0.23678-0.1746-1.0848-0.55577-1.4208-0.36619-0.32276-0.88559-0.49527-1.3939-0.51095z"/>
<path stroke-width="0.4303" d="m312.01,158.57s0.70483,0.009,0.94875,0.22323c0.11933,0.10499,0.16742,0.44647,0.16742,0.44647" stroke-linecap="round"/>
<path stroke-width="0.1925" d="m314.28,161.36c-0.26816,0.1239-0.36664,0.14097-0.47924,0.2899-0.12595,0.16657-0.10294,0.27036-0.1659,0.60411"/>
<path stroke-width="0.1721" d="m309.62,158.36c0.11771-0.0632,0.44552-0.10335,0.60777,0.1425m-0.30211,0.86271c-0.0942-0.17539-0.0886-0.60813,0.27775-0.8499" stroke-linecap="round"/>
<path fill="#e6e6e6" stroke="#e6e6e6" stroke-width="0.1916" d="m312.44,159.4c-0.27161,0.0679-0.95746,0.3443-0.95746,0.3443l1.0892,0.51788-0.012-0.11974c0.0122,0.0189,0.0338,0.0359,0.0479,0.0359,0.0563,0,0.0958-0.17693,0.0958-0.38319s-0.0395-0.37122-0.0958-0.37122c-0.0562,0-0.10777,0.16496-0.10777,0.37122l-0.0599-0.39517z"/>
<path fill="none" stroke-width="0.23" d="m313.05,159.05s-0.33951,0.27161-0.61112,0.33952c-0.11055,0.0276-0.36135-0.01-0.57364,0.053-0.30932,0.0919-0.58071,0.28648-0.58071,0.28648s0.37993,0.30911,0.60039,0.40951c0.32276,0.14699,1.0293,0.26952,1.0293,0.26952" stroke-linecap="round"/>
<path fill="#000" stroke="none" d="m519.63,125.24a0.27888,0.83802,0,1,1,-0.55777,0,0.27888,0.83802,0,1,1,0.55777,0z" fill-rule="nonzero" transform="matrix(0.96598594,0,0,0.59521219,-189.21248,85.237335)"/>
<path fill="#000" stroke="none" d="m315.06,161.11c0,0.0564-0.0387,0.15717,0.0473,0.17126,0.086,0.0141,0.29163,0.12591,0.33463,0.23861,0.043,0.11269,0.36768,0.18592,0.47516,0.27044,0.035,0.0276,0.0538-0.19866,0.0843-0.00095,0.2686-0.19807,0.15675-0.55007-0.11657-0.81763-0.15278-0.14957-0.55155-0.0689-0.78736-0.16122-0.003,0.15982,0.023,0.10617-0.0374,0.29958z"/>
</g>
</svg>