<?xml version="1.0" encoding="UTF-8"?>
<svg xmlns="http://www.w3.org/2000/svg" xmlns:xlink="http://www.w3.org/1999/xlink" width="500" height="540" viewBox="-2 -2 50 54">
<clipPath id="cp">
<path d="M0,25C0,35 7,45 23,50C39,45 46,35 46,25V0H0z" id="shield"/>
</clipPath>
<g clip-path="url(#cp)">
<use xlink:href="#shield" fill="#009"/>
<path d="M1,42.5H45V33C23,36 23,30 1,33z" fill="#090"/>
<path d="M1,36.5C23,33 23,40 45,36.5" fill="none" stroke="#009" stroke-width="0.4"/>
<g fill="#fff">
<path d="M17,27H0V18H46V27H29V22C29,18 17,18 17,22z"/>
<path d="M0,28.5H46M0,16.5H46" stroke="#fff"/>
<path id="castle" d="m0.5,14h3v2.5h-3zm6,0h3v2.5h-3zm6,0h3v2.5h-3zm6,0h3v2.5h-3z"/>
<use xlink:href="#castle" x="24"/>
</g>
<g stroke="#009">
<path d="M7.5,21v3"/>
<path d="M11,20v3"/>
<path d="M35,20v3"/>
<path d="M38.5,21v3"/>
</g>
<g id="star">
<path id="hs" fill="#fc0" d="M23,3 21.5775,7 23,11 24.4225,7zM19,7 23,8.4225 27,7 23,5.5775z"/>
<use xlink:href="#hs" transform="rotate(45,23,7)"/>
</g>
<use xlink:href="#star" transform="translate(9,2.5)"/>
<use xlink:href="#star" transform="translate(-9,2.5)"/>
<use xlink:href="#shield" fill="none" stroke="#fff" stroke-width="2.4"/>
</g>
<use xlink:href="#shield" fill="none" stroke="#fc0" stroke-width="0.8"/>
</svg>