<?xml version="1.0" encoding="UTF-8" standalone="no"?>
<!-- Created with Inkscape (http://www.inkscape.org/) -->

<svg
   xmlns:dc="http://purl.org/dc/elements/1.1/"
   xmlns:cc="http://creativecommons.org/ns#"
   xmlns:rdf="http://www.w3.org/1999/02/22-rdf-syntax-ns#"
   xmlns:svg="http://www.w3.org/2000/svg"
   xmlns="http://www.w3.org/2000/svg"
   xmlns:xlink="http://www.w3.org/1999/xlink"
   xmlns:sodipodi="http://sodipodi.sourceforge.net/DTD/sodipodi-0.dtd"
   xmlns:inkscape="http://www.inkscape.org/namespaces/inkscape"
   version="1.1"
   width="220.58942"
   height="249.80356"
   viewBox="0 0 220.58943 249.80357"
   id="svg2"
   xml:space="preserve"
   style="overflow: visible;"
   inkscape:version="0.48.2 r9819"
   sodipodi:docname="AJAX1.svg"><metadata
   id="metadata148"><rdf:RDF><cc:Work
       rdf:about=""><dc:format>image/svg+xml</dc:format><dc:type
         rdf:resource="http://purl.org/dc/dcmitype/StillImage" /></cc:Work></rdf:RDF></metadata><sodipodi:namedview
   pagecolor="#ffffff"
   bordercolor="#666666"
   borderopacity="1"
   objecttolerance="10"
   gridtolerance="10"
   guidetolerance="10"
   inkscape:pageopacity="0"
   inkscape:pageshadow="2"
   inkscape:window-width="1280"
   inkscape:window-height="1004"
   id="namedview146"
   showgrid="false"
   inkscape:zoom="2"
   inkscape:cx="155.66426"
   inkscape:cy="105.69654"
   inkscape:window-x="-8"
   inkscape:window-y="-8"
   inkscape:window-maximized="1"
   inkscape:current-layer="svg2" /><defs
   id="defs542"><inkscape:perspective
     sodipodi:type="inkscape:persp3d"
     inkscape:vp_x="0 : 124.90178 : 1"
     inkscape:vp_y="0 : 1000 : 0"
     inkscape:vp_z="220.58942 : 124.90178 : 1"
     inkscape:persp3d-origin="110.29471 : 83.267853 : 1"
     id="perspective146" /></defs>
<g
   transform="translate(-4.28645, 2.93589)"
   id="Layer_1">
</g>
<g
   id="g6"
   transform="matrix(1.12519,0,0,1.12519,-18.6962,-11.9819)">
		<path
   style="fill:#b3e2ee;fill-opacity:1;stroke:#000000;stroke-width:1px;stroke-linecap:butt;stroke-linejoin:miter;stroke-opacity:1"
   id="path3080"
   transform="matrix(0.888735,0,0,0.888735,15.1163,8.71435)"
   d="m 72.65625,145.4375 c -0.159053,7.16356 -0.324501,14.45624 -0.40625,16.71875 -0.239666,6.62177 3.197143,24.23959 11.78125,38.1875 8.584107,13.94791 27.90625,23.34375 27.90625,23.34375 0,0 11.53039,-6.44757 17.96875,-11.8125 6.43836,-5.36493 16.09332,-18.52562 19.3125,-28.71875 3.21918,-10.19201 2.15625,-25.46762 2.15625,-25.46875 l 0.15625,-12.0625 -78.875,-0.1875 z" /><rect
   style="fill:#3790c0;fill-opacity:1"
   id="rect8"
   y="113.333"
   x="79.306999"
   height="25.271"
   width="71.759003" />
		<rect
   style="fill:none"
   id="rect10"
   y="138.604"
   x="79.306999"
   height="1.908"
   width="71.518997" />
		<path
   style="fill:#fcfb00;fill-opacity:1;stroke:#000000;stroke-width:0.44436799999999999;stroke-miterlimit:4;stroke-dasharray:none;stroke-opacity:1"
   id="path12"
   d="m 84.313,128.829 c 0,0 0,-3.336 1.431,-3.336 1.431,0 3.099,1.191 3.099,1.906 0,0.715 1.67,2.146 0.954,3.576 -0.716,1.43 -3.337,2.621 -4.053,1.668 -0.716,-0.953 -0.478,0.24 -0.478,0.24 0,0 1.192,1.906 2.861,1.906 1.669,0 1.669,0 1.669,0 0,0 0.477,-0.238 1.192,1.43 0.715,1.67 0.715,0.717 0.715,0.717 l 1.191,-2.146 v -0.477 c 0,0 0.716,0.477 1.908,0.477 1.191,0 3.099,-1.193 3.099,-2.385 0,0 -1.669,0.715 -2.622,0.238 -0.953,-0.477 -1.43,-2.859 -0.715,-4.529 0.715,-1.668 1.191,-2.621 2.383,-2.383 1.192,0.238 2.385,1.668 1.908,2.859 0,0 2.622,-1.43 2.622,-3.098 0,-1.67 -0.478,-3.577 -2.622,-3.577 -2.146,0 -4.768,0.477 -5.245,2.622 0,0 0.477,-2.384 0.477,-4.052 0,-1.668 -1.431,-4.768 -2.146,-4.768 -0.715,0 -2.146,2.385 -2.146,3.815 0,1.43 0,5.005 0,5.005 0,0 -3.337,-3.813 -4.769,-3.098 -1.43,0.715 -3.963,2.089 -3.412,4.143 0.553,2.055 1.984,3.247 2.699,3.247 z" />
		<rect
   style="fill:#fcfb00;fill-opacity:1;stroke:#000000;stroke-width:0.44436799999999999;stroke-miterlimit:4;stroke-dasharray:none;stroke-opacity:1"
   id="rect14"
   y="129.159"
   x="88.650002"
   height="1.4859999"
   width="6.6750002" />
		<path
   style="fill:#fac908;stroke:#000000;stroke-width:1;fill-opacity:1"
   id="path16"
   d="m 102.909,119.771 c 0,0 0.715,0.953 1.668,0.953 0.954,0 3.338,0 3.338,0 0,0 -4.291,3.099 -4.291,4.291 0,1.193 1.669,1.432 1.669,1.432 0,0 -0.238,3.338 -0.238,4.529 0,1.191 0.238,1.668 1.192,1.668 0.953,0 -1.192,1.67 -1.192,1.67 l 0.238,0.953 0.954,1.432 2.383,-1.432 h 9.537 l 0.477,-1.43 0.55,0.367 0.165,0.109 0.716,-0.238 0.715,1.668 0.953,1.193 0.954,-2.861 0.715,0.953 c 0,0 1.193,-10.252 0.478,-12.397 -0.716,-2.146 -2.861,-5.483 -5.007,-5.96 -2.146,-0.477 -5.961,-1.669 -8.344,-0.954 -2.385,0.715 -4.769,0.239 -5.007,1.431 -0.238,1.192 0.954,1.43 0.954,1.43 0,0 -2.386,1.431 -3.577,1.193 z" />
		<path
   style="fill:none;stroke:#000000;stroke-width:1"
   id="path18"
   d="m 111.967,118.102 c 0,0 0.953,3.813 2.623,4.768 1.669,0.954 2.622,2.385 2.622,4.292 0,1.908 0.238,4.291 0.238,4.291 l 1.192,2.385" />
		<path
   style="fill:none;stroke:#000000;stroke-width:1"
   id="path20"
   d="m 119.358,125.731 c 0,0 -1.046,8.602 -0.165,8.473" />
		<path
   style="fill:none;stroke:#000000;stroke-width:1"
   id="path22"
   d="m 105.292,126.446 c 0,0 2.384,0 3.337,-0.953" />
		<polyline
   style="fill:none;stroke:#000000;stroke-width:1"
   id="polyline24"
   points="109.345,121.439 111.491,123.108 109.583,122.869" />
		<path
   style="fill:#ad8b05;fill-opacity:1"
   id="path26"
   d="m 115.305,128.352 c 0,0 -1.906,-0.715 -2.622,0.477 -0.716,1.193 -1.431,1.67 -1.431,1.67 l 5.245,-0.477 c 0,0 1.191,-3.1 0.477,-4.053 -0.715,-0.955 -1.669,2.383 -1.669,2.383 z" />
		<polyline
   style="fill:none;stroke:#000000;stroke-width:1"
   id="polyline28"
   points="106.247,132.643 108.869,132.405 109.107,134.551" />
		<path
   style="fill:#ad8b05;fill-opacity:1"
   id="path30"
   d="m 118.881,116.671 c 0,0 -1.67,1.908 -3.1,2.146 -1.43,0.238 -1.669,1.193 -0.238,2.384 1.431,1.191 3.338,3.098 3.576,3.813 0.238,0.717 0.403,7.502 0.238,8.346 -0.165,0.844 1.431,1.43 1.431,1.43 l 0.953,2.146 0.954,-2.861 0.715,0.953 c 0,0 1.432,-8.582 0.716,-10.967 -0.715,-2.383 -1.192,-6.675 -5.245,-7.39 z" />
		<path
   style="fill:#faf2ec;stroke:#000000;stroke-width:1"
   id="path32"
   d="m 128.656,123.585 c 0,0 -0.954,-2.146 0.238,-3.814 1.192,-1.668 1.908,-1.669 2.623,-2.146 0.715,-0.477 1.907,-1.43 2.86,-1.192 0.953,0.238 2.146,0.477 2.146,0.477 0,0 1.906,-0.954 2.622,-0.715 0.716,0.239 1.67,0 2.385,1.192 0.715,1.192 2.146,2.384 2.146,2.384 0,0 1.191,1.668 0.953,2.622 -0.238,0.954 -0.238,0.954 -0.238,0.954 0,0 0.953,0.476 1.191,1.429 0.238,0.955 0.717,2.861 -0.238,4.053 -0.953,1.193 -0.953,0.955 -1.191,2.385 -0.238,1.43 -2.861,1.67 -2.861,1.67 0,0 -0.001,1.906 -0.716,1.906 -0.715,0 -3.1,0.477 -4.053,0.477 -0.953,0 -2.384,0.238 -3.1,-0.238 -0.716,-0.476 -1.43,-1.906 -1.43,-1.906 0,0 -2.385,-0.002 -3.1,-0.955 -0.715,-0.953 -1.192,-1.906 -1.431,-3.576 -0.238,-1.668 -0.477,-2.861 -0.477,-3.576 0,-0.715 0.956,-1.193 1.671,-1.431 z" />
		<line
   style="fill:none;stroke:#000000;stroke-width:0.444368;stroke-miterlimit:4;stroke-dasharray:none"
   id="line34"
   y2="132.64301"
   x2="137.23801"
   y1="129.30701"
   x1="136.761" />
		<line
   style="fill:none;stroke:#000000;stroke-width:0.465397;stroke-miterlimit:4;stroke-dasharray:none"
   id="line36"
   y2="127.86449"
   x2="143.42749"
   y1="127.40952"
   x1="140.41621" />
		<path
   style="fill:none;stroke:#000000;stroke-width:0.444368;stroke-miterlimit:4;stroke-dasharray:none"
   id="path38"
   d="m 139.384,123.108 c 0,0 1.429,-1.908 1.668,-2.623" />
		<line
   style="fill:none;stroke:#000000;stroke-width:0.444368;stroke-miterlimit:4;stroke-dasharray:none"
   id="line40"
   y2="120.962"
   x2="132.23199"
   y1="122.631"
   x1="134.377" />
		<line
   style="fill:none;stroke:#000000;stroke-width:0.444368;stroke-miterlimit:4;stroke-dasharray:none"
   id="line42"
   y2="128.114"
   x2="131.03999"
   y1="126.446"
   x1="133.901" />
		<path
   style="fill:#f8341d;fill-opacity:1;stroke:none"
   id="path44"
   d="m 115.305,146.709 -30.941287,27.84229 c 0,0 4.002287,9.82571 4.717287,11.01771 0.716,1.191 26.225,-23.363 26.225,-23.363 l 24.794,23.363 c 0,0 6.436,-9.059 6.436,-10.25 l -31.231,-28.61 z" />
		<path
   style="fill:#f8341d;fill-opacity:1;stroke:#000000;stroke-width:0.44436799999999999;stroke-miterlimit:4;stroke-dasharray:none"
   id="path46"
   d="m 92.418,143.848 0.238,4.291 c 0,0 1.908,0.24 1.908,-0.953 0,-1.191 -1.193,-2.859 -0.716,-4.053 0.478,-1.191 3.814,-1.906 5.007,-0.477 1.191,1.43 1.906,2.383 1.668,3.338 -0.238,0.953 -1.669,1.668 -2.384,1.668 -0.715,0 -1.431,-0.953 -2.146,0.238 -0.715,1.193 3.814,1.432 3.814,1.432 0,0 -2.861,-0.238 -3.576,0.238 -0.715,0.476 -1.192,1.906 0,1.668 1.192,-0.238 0,1.668 1.669,0.477 1.669,-1.191 3.099,-2.145 3.814,-1.191 0.715,0.954 0.954,3.338 -1.192,5.484 -2.145,2.145 -3.338,-0.479 -3.338,-0.479 0,0 0.478,-2.145 -0.477,-2.383 -0.953,-0.238 -2.859,-0.955 -2.383,0 0.477,0.953 1.906,3.814 1.906,3.814 0,0 -2.385,-2.861 -3.1,-2.385 -0.715,0.476 -0.953,1.193 -0.477,2.146 0.476,0.953 1.908,1.668 1.908,1.668 0,0 1.43,1.432 0.238,2.146 -1.192,0.715 -2.385,0.715 -4.053,0.715 -1.67,0 -3.338,-1.432 -2.861,-2.146 0.477,-0.714 1.906,-0.238 2.384,-2.145 0.478,-1.908 0,-2.385 0,-2.385 l -2.86,2.146 2.384,-3.814 c 0,0 -0.239,-1.668 -1.431,-0.715 -1.192,0.953 -1.431,1.43 -1.907,3.098 -0.477,1.67 -2.384,1.193 -3.575,-0.238 -1.193,-1.43 -2.385,-4.527 -1.193,-4.768 1.193,-0.238 3.338,-0.715 3.814,0.477 0.478,1.191 2.623,-0.238 2.623,-0.238 l -2.384,-2.145 2.146,0.238 c 0,0 0.953,-0.953 0,-1.67 -0.953,-0.715 -3.1,0.953 -3.814,0.238 -0.714,-0.715 -0.477,-3.574 1.43,-4.529 1.908,-0.953 4.054,-1.432 4.054,-0.715 0,0.715 0.954,1.191 0.238,3.1 -0.716,1.906 -0.238,2.621 0.716,2.621 0.955,0.003 1.908,-3.812 1.908,-3.812 z" />
		<ellipse
   sodipodi:ry="1.313"
   sodipodi:rx="1.4299999"
   sodipodi:cy="150.881"
   sodipodi:cx="91.941002"
   d="m 93.371002,150.881 c 0,0.72515 -0.640233,1.313 -1.43,1.313 -0.789767,0 -1.43,-0.58785 -1.43,-1.313 0,-0.72515 0.640233,-1.313 1.43,-1.313 0.789767,0 1.43,0.58785 1.43,1.313 z"
   style="fill:#f8341d;fill-opacity:1;stroke:#000000;stroke-width:0.44436799999999999;stroke-miterlimit:4;stroke-dasharray:none"
   id="ellipse48"
   ry="1.313"
   rx="1.4299999"
   cy="150.881"
   cx="91.941002" />
		<path
   style="fill:#f8341d;fill-opacity:1;stroke:#000000;stroke-width:0.44436799999999999;stroke-miterlimit:4;stroke-dasharray:none"
   id="path50"
   d="m 137.715,144.088 0.238,4.291 c 0,0 1.907,0.238 1.907,-0.953 0,-1.193 -1.192,-2.861 -0.716,-4.053 0.478,-1.193 3.814,-1.906 5.007,-0.477 1.191,1.43 1.906,2.383 1.668,3.336 -0.238,0.955 -1.67,1.67 -2.385,1.67 -0.714,0 -1.429,-0.955 -2.144,0.238 -0.716,1.191 3.814,1.43 3.814,1.43 0,0 -2.861,-0.238 -3.576,0.238 -0.715,0.476 -1.193,1.908 0,1.67 1.191,-0.238 0,1.668 1.667,0.477 1.67,-1.191 3.1,-2.145 3.814,-1.191 0.717,0.953 0.955,3.338 -1.191,5.482 -2.145,2.146 -3.337,-0.477 -3.337,-0.477 0,0 0.477,-2.146 -0.477,-2.385 -0.954,-0.239 -2.86,-0.953 -2.384,0 0.477,0.955 1.907,3.814 1.907,3.814 0,0 -2.385,-2.859 -3.1,-2.383 -0.715,0.476 -0.953,1.191 -0.477,2.145 0.476,0.954 1.907,1.67 1.907,1.67 0,0 1.431,1.43 0.238,2.145 -1.193,0.715 -2.384,0.715 -4.053,0.715 -1.669,0 -3.337,-1.43 -2.86,-2.145 0.477,-0.715 1.906,-0.238 2.383,-2.146 0.478,-1.906 0,-2.383 0,-2.383 l -2.86,2.145 2.384,-3.814 c 0,0 -0.238,-1.668 -1.43,-0.715 -1.192,0.953 -1.432,1.43 -1.908,3.1 -0.477,1.668 -2.383,1.191 -3.575,-0.238 -1.192,-1.432 -2.385,-4.529 -1.192,-4.768 1.192,-0.24 3.338,-0.715 3.814,0.477 0.476,1.192 2.623,-0.238 2.623,-0.238 l -2.385,-2.146 2.146,0.238 c 0,0 0.953,-0.953 0,-1.668 -0.954,-0.717 -3.1,0.953 -3.814,0.238 -0.716,-0.715 -0.478,-3.576 1.43,-4.529 1.907,-0.955 4.053,-1.432 4.053,-0.717 0,0.717 0.954,1.193 0.238,3.1 -0.715,1.908 -0.238,2.623 0.716,2.623 0.954,0 1.91,-3.816 1.91,-3.816 z" />
		<ellipse
   sodipodi:ry="1.311"
   sodipodi:rx="1.431"
   sodipodi:cy="151.12199"
   sodipodi:cx="137.23801"
   d="m 138.66901,151.12199 c 0,0.72405 -0.64068,1.311 -1.431,1.311 -0.79032,0 -1.431,-0.58695 -1.431,-1.311 0,-0.72404 0.64068,-1.311 1.431,-1.311 0.79032,0 1.431,0.58696 1.431,1.311 z"
   style="fill:#f8341d;fill-opacity:1;stroke:#000000;stroke-width:0.44436799999999999;stroke-miterlimit:4;stroke-dasharray:none"
   id="ellipse52"
   ry="1.311"
   rx="1.431"
   cy="151.12199"
   cx="137.23801" />
		<path
   style="fill:#b3601a;fill-opacity:1;stroke:#000000;stroke-width:1"
   id="path54"
   d="m 98.379,190.577 c 0,0 4.291,1.191 4.768,2.859 0.477,1.67 1.191,4.531 1.191,4.531 0,0 20.504,0.715 21.695,0.477 1.191,-0.238 2.622,-2.861 2.86,-3.814 0.238,-0.955 1.907,-2.385 1.907,-3.1 0,-0.715 -2.146,-0.717 -4.053,0 -1.907,0.715 -3.576,1.43 -7.867,1.43 -4.291,0 -10.252,0.477 -12.396,0 -2.146,-0.477 -2.86,-2.145 -8.105,-2.383 z" />
		<line
   style="fill:#fee591;fill-opacity:1;stroke:#000000;stroke-width:1"
   id="line56"
   y2="193.436"
   x2="107.2"
   y1="171.26601"
   x1="108.391" />
		<line
   style="fill:none;stroke:#000000;stroke-width:1"
   id="line58"
   y2="193.198"
   x2="120.55"
   y1="171.028"
   x1="121.503" />
		<path
   style="fill:#ffffff;fill-opacity:1;stroke:#000000;stroke-width:1"
   id="path60"
   d="m 108.391,174.364 c 0,0 -12.396,11.922 -12.396,13.828 0,1.908 4.529,0.477 5.722,0.953" />
		<path
   style="fill:#ffffff;fill-opacity:1;stroke:#000000;stroke-width:1"
   id="path62"
   d="m 121.503,177.225 3.195,-2.236 1.573,-1.102 c 0,0 0,0.717 0,2.623 0,1.908 0.238,7.629 1.431,9.535 1.193,1.906 2.86,3.338 1.907,3.576 -0.953,0.238 -4.054,0.955 -5.483,0.955 -1.429,0 -3.338,-0.717 -3.338,-0.717 l -1.192,0.24 c 0,0 -0.715,-0.717 -3.099,-0.717 -2.384,0 -3.576,0.717 -6.437,0.717 -2.861,0 -6.199,0.715 -7.629,-0.24 -1.431,-0.953 0,-3.098 0.953,-5.482 0.953,-2.383 5.96,-4.768 9.059,-8.105 3.1,-3.338 8.821,-4.529 8.821,-4.529 l 3.434,3.246" />
		<line
   style="fill:#fee591;fill-opacity:1;stroke:#000000;stroke-width:1"
   id="line64"
   y2="176.272"
   x2="112.444"
   y1="174.842"
   x1="108.391" />
		<path
   style="fill:none;stroke:#000000;stroke-width:1"
   id="path66"
   d="m 115.305,176.034 c 0,0 0.953,10.727 3.814,13.35" />
		<path
   style="fill:none;stroke:#000000;stroke-width:1"
   id="path68"
   d="m 112.444,179.372 c 0,0 0.477,6.436 5.245,8.582" />
		<path
   style="fill:none;stroke:#000000;stroke-width:1"
   id="path70"
   d="m 122.696,183.186 c 0,0 0.715,6.199 0.715,6.914" />
		<path
   style="fill:none;stroke:#000000;stroke-width:1"
   id="path72"
   d="m 124.365,182.471 c 0,0 1.191,3.813 2.86,5.244" />
		<path
   style="fill:#d2439b;fill-opacity:1;stroke:#000000;stroke-width:0.44436799999999999;stroke-miterlimit:4;stroke-dasharray:none"
   id="path74"
   d="m 134.377,122.631 c 0,0 10e-4,-1.43 1.192,-1.43 1.191,0 2.383,-0.477 3.099,0 0.716,0.477 0.238,1.668 0.238,1.668 l 1.907,0.478 c 0,0 0.478,2.146 0.478,2.861 0,0.715 -1.192,0.953 -1.192,0.953 l 0.238,1.43 -2.146,1.193 -1.431,-0.477 -1.431,0.715 -2.146,-2.146 0.716,-1.43 -1.431,-0.238 c 0,0 -0.477,-1.43 0.238,-2.385 0.717,-0.954 1.671,-1.192 1.671,-1.192 z" />
		<circle
   sodipodi:ry="1.55"
   sodipodi:rx="1.55"
   sodipodi:cy="125.612"
   sodipodi:cx="136.88"
   d="m 138.43,125.612 c 0,0.85604 -0.69395,1.55 -1.55,1.55 -0.85604,0 -1.55,-0.69396 -1.55,-1.55 0,-0.85604 0.69396,-1.55 1.55,-1.55 0.85605,0 1.55,0.69396 1.55,1.55 z"
   style="fill:#b0512f;fill-opacity:1;stroke:#000000;stroke-width:0.444368;stroke-miterlimit:4;stroke-dasharray:none"
   id="circle76"
   r="1.55"
   cy="125.612"
   cx="136.88" />
		<path
   style="fill:#000000;fill-opacity:1;stroke:#000000;stroke-width:0.71098799000000001;stroke-miterlimit:4;stroke-opacity:1;stroke-dasharray:none"
   id="path78"
   d="m 147.729,171.504 c -2.861,9.059 -11.444,20.74 -17.166,25.508 -5.722,4.768 -15.973,10.49 -15.973,10.49 0,0 -17.165,-8.346 -24.794,-20.742 -7.629,-12.396 -10.677,-28.043 -10.464,-33.928 0.176,-4.871 0.696,-30.203 0.87,-38.784 h 69.874 l -0.441,34.807 c 0,0.001 0.955,13.591 -1.906,22.649 z m 5.244,-57.455 v -2.861 H 78.591 c 0,0 -1.192,38.143 -1.192,44.58 0,6.437 3.1,19.787 8.105,28.371 5.008,8.582 18.835,20.025 21.457,21.693 2.622,1.67 7.867,4.053 7.867,4.053 0,0 12.159,-5.959 14.781,-8.82 2.622,-2.861 9.298,-7.389 13.828,-15.734 4.529,-8.344 6.912,-11.443 8.582,-20.264 1.668,-8.82 0.477,-26.463 0.477,-26.463 l 0.428,-24.555 h 0.049 z" />
	</g><g
   id="g80"
   transform="matrix(1.12519,0,0,1.12519,-18.6962,-11.9819)">
		
		<polygon
   style="fill:#4a8418;fill-opacity:1;stroke:#000000;stroke-width:1"
   id="polygon84"
   points="114.637,44.027 119.67,44.264 119.316,66.469 111.915,66.765 112.92,47.876 " /><path
   id="path102"
   style="fill:#fee591;fill-opacity:1;stroke:#000000;stroke-width:1"
   d="m 121.98,40.532 c 0,0 -0.474,1.894 -0.178,3.02 0.296,1.126 9.355,17.705 10.007,19.126 0.652,1.421 0.711,2.013 0.533,2.724 -0.178,0.711 -4.975,2.783 -7.461,1.895 -2.486,-0.888 -1.362,-0.888 -1.599,-2.901 -0.237,-2.013 -3.079,-15.159 -4.026,-16.047 -0.947,-0.888 -1.125,-0.355 -1.125,-0.355 l 0.296,-4.381 3.316,-3.375 0.237,0.294 z m -10.362,-9.415 c 0,0 -0.888,-0.237 -1.243,1.243 0,0 -0.888,0.177 -1.185,1.599 0,0 -0.711,-0.059 -1.006,1.185 0,0 -1.125,0.118 -0.889,1.717 0,0 1.008,1.125 1.658,1.717 l 3.849,0.249 -0.355,-7.58 -0.829,-0.13 z" />
		<path
   style="fill:#f8341d;fill-opacity:1;stroke:#000000;stroke-width:0.44436799999999999;stroke-miterlimit:4;stroke-dasharray:none"
   id="path86"
   d="m 108.644,16.378 c 0,0 -0.532,9.06 0,9.711 0.532,0.651 1.896,1.717 2.665,1.717 0.769,0 4.974,-0.947 4.974,-0.947 0,0 -2.843,-3.435 -4.323,-5.27 -1.48,-1.835 -2.545,-3.612 -3.316,-5.211 z" />
		<path
   style="fill:#f8341d;fill-opacity:1;stroke:#000000;stroke-width:0.44436799999999999;stroke-miterlimit:4;stroke-dasharray:none"
   id="path88"
   d="m 110.834,12.174 c 0,0 -0.355,2.606 -0.118,3.849 0.237,1.243 1.302,3.967 0.474,6.04 -0.828,2.073 0.771,5.685 2.014,5.744 1.243,0.059 3.907,-0.059 4.145,-0.71 0.238,-0.651 -0.06,-8.645 -2.013,-9.889 -1.955,-1.245 -4.086,-2.429 -4.502,-5.034 z" />
		<path
   style="fill:#f8341d;fill-opacity:1;stroke:#000000;stroke-width:0.44436799999999999;stroke-miterlimit:4;stroke-dasharray:none"
   id="path90"
   d="m 117.052,10.871 c 0,0 -2.664,4.56 -2.486,5.981 0.177,1.421 -0.297,6.276 0.177,7.816 0.474,1.54 1.421,2.369 2.605,2.428 1.184,0.059 1.065,-0.237 1.776,-0.533 0.711,-0.296 0.474,-9.474 -0.651,-10.895 -1.125,-1.421 -1.776,-4.027 -1.421,-4.797 z" />
		<path
   style="fill:#f8341d;fill-opacity:1;stroke:#000000;stroke-width:0.44436799999999999;stroke-miterlimit:4;stroke-dasharray:none"
   id="path92"
   d="m 122.322,13.95 c 0,0 -4.264,1.599 -4.382,5.389 -0.118,3.79 -0.65,7.224 -0.354,7.816 0.296,0.592 2.309,1.184 3.315,0.474 1.006,-0.71 2.073,-3.79 1.718,-6.691 -0.355,-2.901 -0.61,-3.074 -1.066,-4.441 -0.178,-0.534 -0.298,-1.422 0.769,-2.547 z" />
		<path
   style="fill:#4a8418;fill-opacity:1;stroke:#000000;stroke-width:1"
   id="path94"
   d="m 110.848,28.15 c 0,0 2.428,-0.533 4.026,-0.533 1.598,0 4.797,0 6.04,0.533 l -0.237,1.717 -0.77,-0.118 c 0,0 -2.843,-0.474 -7.521,0 l -0.947,0.118 -0.591,-1.717 z" />
		<path
   style="fill:#4a8418;fill-opacity:1;stroke:#000000;stroke-width:1"
   id="path96"
   d="m 112.032,30.223 c 0,0 1.385,18.188 1.54,19.899 0.237,2.608 1.896,15.808 1.896,15.808 l 3.493,-26.288 1.065,-9.476 c 0,-0.001 -4.027,-0.656 -7.994,0.057 z" />
		<path
   style="fill:#987744;fill-opacity:1;stroke:#000000;stroke-width:1"
   id="path98"
   d="m 111.855,33.602 c 0,0 -0.593,1.954 -1.007,2.428 -0.414,0.474 -2.072,2.073 -2.072,3.967 0,1.894 -1.244,5.27 -2.191,6.987 -0.947,1.717 -7.46,14.331 -7.993,17.114 -0.533,2.783 4.263,5.684 5.447,5.684 1.184,0 2.842,-1.895 3.553,-3.79 0.711,-1.895 3.316,-11.665 3.612,-13.678 0.296,-2.013 1.539,-4.677 2.368,-5.388 0.829,-0.711 2.25,0.177 4.204,-2.546 0,0 4.205,-3.849 4.146,-4.737 -0.059,-0.888 -0.237,-2.31 -0.237,-2.31 0,0 0.474,-1.48 0,-2.013 -0.474,-0.533 0.474,-2.072 -0.296,-2.368 -0.77,-0.296 0.06,-0.71 -0.829,-0.651 -0.889,0.059 -0.77,0 -0.77,0 0,0 0.414,1.302 -2.014,3.079 -2.428,1.777 -4.086,2.901 -4.974,2.428 -0.888,-0.473 -0.947,-4.206 -0.947,-4.206 z" />
		<path
   style="fill:#fee591;fill-opacity:1;stroke:#000000;stroke-width:1"
   id="path100"
   d="m 115.585,33.011 c 0,0 2.428,1.007 2.428,1.658 0,0.651 -1.066,1.006 -1.066,1.006 0,0 -1.776,-1.124 -1.362,-2.664 z" />
		
	</g><g
   id="g4280"
   transform="translate(-20.000001,0)"><path
     id="path4277"
     d="m 187.03125,89.843748 c -1.65262,0.03516 -3.34361,0.374905 -4.1875,0.9375 -1.68779,1.12519 -2.5312,7.874666 -2.8125,9.843752 -0.11702,0.81689 -0.57079,3.4849 -1.0625,6.3125 -0.5806,-3.43858 -2.24803,-8.612898 -4.28125,-9.968752 -2.53168,-1.687785 -4.49986,-1.406677 -5.34375,1.125 -0.84389,2.531682 -3.65625,8.156252 -3.65625,8.156252 0,0 3.65597,-4.21865 5.34375,-4.78125 1.68779,-0.56259 2.25,1.40606 2.25,2.53125 0,0.24642 0.12122,1.07781 0.3125,2.21875 -0.94966,-0.67849 -2.11678,-1.00275 -3.40625,-0.25 -3.37557,1.96909 -10.96875,6.1875 -10.96875,6.1875 l 0.84375,0 6.75,-2.25 c 1.68779,-0.5626 4.21856,0.84346 5.34375,2.53125 0.17103,0.25541 0.38958,0.6383 0.65625,1.0625 0.28129,0.54121 1.59375,1.46841 1.59375,3.4375 0.35556,0.5941 0.59058,4.35706 0.84375,4.78125 0.46922,1.18605 0.46695,1.52344 0.40625,2.34375 l 6.125,0 c 0.79421,-4.06068 1.96868,-7.46868 3.03125,-8.53125 1.68779,-1.68779 2.53092,-1.12471 4.5,-2.8125 1.96908,-1.68778 5.62481,0 6.75,0 1.12519,0 3.93798,-0.84361 1.125,-1.6875 -2.81297,-0.84389 -4.78059,-1.6875 -8.71875,-1.6875 -0.92266,0 -1.70915,0.23057 -2.34375,0.5625 0.41969,-1.18933 0.84964,-2.48493 1.5,-3.65625 1.40648,-2.53168 3.93717,-6.468705 5.90625,-6.750002 1.96909,-0.281298 10.40625,-0.84375 10.40625,-0.84375 -2.04785,0 -6.87693,-1.829131 -9.53125,-2.53125 1.6349,0.32293 3.04238,0.260014 2.21875,-0.5625 -1.40649,-1.406488 -4.21852,-3.374762 -5.625,-4.78125 -0.70324,-0.703243 -2.31613,-0.972662 -3.96875,-0.9375 z m 0.6875,3.21875 c 1.18672,0.0923 2.29667,1.093608 3.5625,1.9375 0.53672,0.356685 1.41347,0.700085 2.3125,0.9375 -0.24192,-0.04613 -0.4641,-0.09375 -0.625,-0.09375 -1.68779,0 -3.93717,1.968418 -5.90625,3.9375 -1.96908,1.969082 -4.78125,10.968752 -4.78125,10.968752 l -0.53125,1.46875 c 0.56935,-1.98596 1.16792,-4.26419 1.65625,-5.40625 0.8439,-1.96909 1.40596,-12.65611 3.09375,-13.500002 0.42194,-0.210973 0.82318,-0.280767 1.21875,-0.25 z"
     style="fill:#4a8418;fill-opacity:1;stroke:#000000;stroke-width:1.12518977999999990" /><path
     id="path112"
     d="m 175.625,124.65625 c -0.0541,0.67855 -0.0937,1.56433 -0.0937,3.25 0,5.62595 -0.56255,35.74891 -0.28125,42.21875 0.28129,6.46985 -3.375,39.9375 -3.375,39.9375 9.28281,0.2813 13.21875,-1.96875 13.21875,-1.96875 0,0 -3.09375,-32.90501 -3.09375,-40.21875 0,-7.31373 -1.4063,-29.56136 -1.125,-36.3125 0.0958,-2.2989 0.3718,-4.67821 0.78125,-6.90625 l -6.03125,0 z"
     style="fill:#ad8b05;fill-opacity:1;stroke:#000000;stroke-width:1.12518990000000010" /><path
     style="fill:#fee591;fill-opacity:1;stroke:#000000;stroke-width:1.12519002"
     id="path114"
     d="m 177.76963,114.69537 c 0,0 0,26.72326 0,31.22402 0,4.50076 -0.28129,64.13583 -0.28129,64.13583" /><path
     style="fill:#000000;fill-opacity:0;stroke:#000000;stroke-width:1.12519002"
     id="line176"
     d="m 178.05093,126.22856 2.81298,0.2813 m -5.34466,3.93817 1.68779,-0.2813 m 0.56259,2.53166 2.25038,0.2813 m -4.78205,2.53168 2.25038,-1.12519 m 0.56259,3.37557 2.81298,0 m -5.34466,1.96908 2.25038,0 m 0.5626,3.37557 2.81297,-0.2813 m -6.18854,2.81298 2.81297,0.2813 m 0.2813,1.40648 2.81298,0.2813 m -5.62595,3.65687 2.25038,-0.5626 m 0.84389,2.25038 3.65687,0 m -6.75114,3.65687 2.53167,0.2813 m 0,1.68778 3.37557,0 m -6.18854,2.81298 2.25038,0 m 0.84389,3.37557 3.37557,0 m -6.18854,1.68778 2.25038,0 m 0.56259,3.65687 3.93817,-0.56259 m -6.46985,2.53167 1.68779,0.2813 m 0.56259,3.09427 4.50076,0.5626 m -4.78205,7.03244 5.06335,0.28129 m -7.59503,-3.93816 2.53168,0 m 0.28129,8.43892 5.62595,0 m -8.72022,-1.96908 2.81298,0.2813 m 0,8.72023 c 0,0 1.09489,-0.15641 2.38682,-0.26722 1.70893,-0.14658 3.76263,-0.21336 4.08302,0.26722 m -9.56412,-3.09428 3.65687,0.2813 m -0.84389,9.56412 4.50076,-0.28129 3.09427,0 m -11.5332,-1.4065 4.78206,0 m -0.2813,7.31374 4.50076,-0.84389 2.81298,0 m -12.93969,-0.28131 5.62595,-0.56259 m 3.93817,-47.82057 c 0,0 0.2813,50.07096 0.56259,50.91485"
     inkscape:connector-curvature="0"
     sodipodi:nodetypes="cccccccccccccccccccccccccccccccccccccccccccccccsccccccccccccccc" /></g><g
   id="g3294"
   transform="matrix(1.12519,0,0,1.12519,41.303769,-11.9819)"><path
     style="fill:#4a8418;fill-opacity:1;stroke:#000000;stroke-width:1"
     id="path262"
     d="m 19.258669,102.583 c 0,0 2.75,-5.25 6.5,-7.25 3.75,-2 8.25,-2.25 9.75,-0.75 1.5,1.5 1.75,4.25 1.75,4.25 0,0 -1.199,-0.063 -2.487,-0.157 -1.276,-0.094 -2.64,-0.218 -3.013,-0.343 -0.75,-0.25 4.5,2 2,2 -2.5,0 -4.25,-0.75 -4.25,-0.75 l 2,2 c 0,0 -2.25,0 -3.25,-0.25 -1,-0.25 -3.75,1 -3.75,1 l 1.75,0.75 c 0,0 -2,1 -2.75,1 -0.75,0 -0.25,1.75 -0.25,1.75 0,0 1,-0.25 3.75,-0.25 2.75,0 7.25,-0.25 9,1.25 1.75,1.5 4,5 4,5 0,0 -3,-0.5 -4.25,-1.5 -1.25,-1 -2.5,-1.5 -2.5,-1.5 0,0 1.5,2 1,3 -0.5,1 -2.75,-1 -2.75,-1 l -2.75,-3.25 c 0,0 -0.5,1 -0.25,2.5 0.25,1.5 -3,-1.5 -3,-1.5 l 0.75,3.25 -1.5,2.5 c 0,0 -1,0.75 -1.75,0 -0.75,-0.75 -2,-3 -2,-3 l -1,1.75 -1.25,-1.25 v 1.25 l -1.5,-0.75 -1,1 -1.5,-1.75 -0.25,-2.25 -0.75,0.75 -2.25,-0.75 -1.25,1.25 -0.9999996,-1.25 -1,1 -2.9999998,0.5 c 0,0 -1.5,1.25 -2.75,0.5 -1.25,-0.75 -1.74999999,-1.5 -1.74999999,-1.5 l -1.5,-1.25 c 0,0 2.99999999,-2 5.49999999,-2.25 2.5,-0.25 6.4999994,-0.25 7.7499994,-0.25 1.25,0 2.25,0 2.25,0 l -4.75,-2.5 2,-0.5 h 2 c 0,0 -2,-1.75 -3.5,-1.75 -1.4999996,0 2.5,-1.75 2.5,-1.75 l -5.4999994,0.75 2.2499998,-2 -4.4999998,1.25 2.7499998,-3.5 -6.7499998,2.5 c 0,0 0.5,-2.25 2,-2.5 1.5,-0.25 -5.75,0.75 -6.75,1.25 -1,0.5 -0.5,-2.5 3.75000001,-3.75 4.24999999,-1.25 6.99999999,-1.75 9.99999939,-1 1.955,0.489 6.5,3 9,10 z" /><path
     style="fill:#ad8b05;fill-opacity:1;stroke:#000000;stroke-width:1"
     id="path264"
     d="m 17.258669,112.333 c 0,0 1.75,14.25 1,19.5 -0.75,5.25 -2,22.5 -2,27 0,4.5 -2.25,37.25 -2.25,37.25 0,0 4.75,1.25 6,0.25 1.25,-1 0,-0.75 0,-0.75 0,0 0.5,-32 0.75,-35 0.25,-3 1.25,-24.25 1,-27 -0.25,-2.75 0.5,-8 -0.25,-23 0,0 -1.25,-2.5 -4.25,1.75 z" /><path
     style="color:#000000;fill:#221c17;fill-opacity:1;fill-rule:nonzero;stroke:none;stroke-width:1;marker:none;visibility:visible;display:inline;overflow:visible"
     id="path296"
     d="m 20.041669,166.333 m 0.217,25.25 c 0,0 -1.5,4.25 -4.75,4.5 0,0 2.5,1 4.5,0.25 l 0.25,-4.75 z m 0,-6.25 c 0,0 -1.75,4.5 -4,4.5 h 4.25 l -0.25,-4.5 z m -0.25,-8 c 0,0 -1,6.5 -2.5,7 0,0 2.75,0.25 3,-0.5 0.25,-0.75 -0.5,-6.5 -0.5,-6.5 z m 0.5,-5.25 c 0,0 -1,3.75 -4,4.5 0,0 3,0.25 4,-0.25 v -4.25 z m 0.25,-5.5 c 0,0 -0.5,4 -2.5,4.25 l 2,-0.25 0.5,-4 z m 0,-6 c 0,0 -1,4.5 -2.75,4.5 0,0 1.25,0.5 2.5,-0.75 1.25,-1.25 0.25,-3.75 0.25,-3.75 z m 0.5,-5.75 c 0,0 -1.75,5 -3.75,5.25 -2,0.25 2.75,-0.75 2.75,-0.75 l 0.75,-0.25 0.25,-4.25 z m -0.25,-4.5 c 0,0 -0.75,2 -2.5,2.75 -1.75,0.75 2.75,0.25 2.75,0.25 l -0.25,-3 z m 0.5,-5.5 c 0,0 -1,4.25 -3,4.25 0,0 1.75,0.75 2.75,0 1,-0.75 0.25,-4.25 0.25,-4.25 z m 0.5,-3.75 c 0,0 -2.25,2.25 -4,2.75 0,0 2.5,1 3.5,0 1,-1 0.5,-2.75 0.5,-2.75 z m -0.25,-5 c 0,0 -1.75,3.75 -3.25,3.5 0,0 3,1.25 3.25,0 0.25,-1.25 0,-3.5 0,-3.5 z m 0,-6.25 c 0,0 -1.5,3.75 -2.75,4.75 -1.25,1 2.25,0.5 2.75,-1 0.5,-1.5 0,-3.75 0,-3.75 z" /></g><g
   id="g3138"
   transform="matrix(1.12519,0,0,1.12519,101.30419,-11.9819)"><path
     style="fill:#d35226;stroke:#000000;stroke-width:1"
     id="path256"
     d="m -57.532661,178.583 c 0,0 1.5,3.75 1.25,7.5 -0.25,3.75 -1.75,5 -0.5,6 1.25,1 3.5,4 5.75,4.25 2.25,0.25 3.75,2.25 3.25,3.5 -0.5,1.25 0.25,1.75 0.25,1.75 0,0 2.871,-1.914 2.752,-3.396 -0.018,-0.213 -0.096,-0.416 -0.252,-0.604 -1.25,-1.5 3.5,-0.25 4.5,1.75 0,0 0,-4 -1.5,-4.5 0,0 1.25,-0.75 2.25,0.5 1,1.25 0,-3 -2.25,-3.5 -2.25,-0.5 -3,-0.75 -5,-1 -2,-0.25 -3.5,0.75 -5,-1 -1.5,-1.75 -1.5,-8.5 -1.5,-12.25 l -4,1 z" /><path
     style="fill:#b3e2ee;fill-opacity:1;stroke:#000000;stroke-width:1"
     id="path258"
     d="m -49.032661,134.333 c 0,0 -2.5,0.75 -3.5,-2 -1,-2.75 -0.75,-5 -0.25,-6.5 0.5,-1.5 1,-3 1,-3 0,0 4.75,-14.25 5,-19.5 0.25,-5.25 -0.5,-4.5 -0.5,-9 0,-4.5 1.5,-10.75 2.75,-11.25 0,0 -3.75,-0.25 -4.25,1.25 -0.5,1.5 -0.5,13 -2,18.5 -1.5,5.5 -1.5,1.25 -1.5,1.25 0,0 -2.25,-12 -1,-17.5 l 0.75,-2.5 c 0,0 -4.25,1 -4.5,4.25 -0.25,3.25 -0.25,17 -0.25,19.75 0,2.75 -1.25,1.5 -1.25,-0.5 0,-2 -0.5,-14.5 -0.75,-16 -0.25,-1.5 -2.5,-1.5 -2.5,-1.5 0,0 -1.75,5.75 -1,9.75 0.75,4 0.75,5 0.75,5 0,0 -2,-4.5 -3,-3.75 -1,0.75 -0.5,9 -0.5,9 l 1.75,2.5 c 0,0 2.75,13 3.75,16.5 1,3.5 3.75,11.25 11,5.25 z" /><path
     style="fill:#b3e2ee;fill-opacity:1;stroke:#000000;stroke-width:1"
     id="path260"
     d="m -60.782661,120.583 c 0,0 -3,-8.75 -6,-11.75 -3,-3 -7.5,-7.25 -10.75,-12.5 0,0 -2.25,-4.75 -2.5,-6.75 -0.25,-2 -3.000002,-2 -3.000002,-2 0,0 -1.25,4 -1,5.75 0.25,1.75 -0.25,2.75 1.25,5.5 1.500002,2.75 -3.75,-4.5 -3.75,-4.5 0,0 -2.5,4.5 -0.75,9 1.75,4.5 3.25,5.75 3.25,5.75 0,0 -4,-2.75 -4.75,-2 -0.75,0.75 -1.5,4 0.75,6.75 2.25,2.75 4,4 4,4 0,0 -4.75,0 -5,0.75 -0.25,0.75 1.25,3 2,4.5 0.75,1.5 2.25,4 3.5,4.25 1.25,0.25 1.25,0.25 1.25,0.25 0,0 -3.75,1.25 -3.75,2.5 0,1.25 2,2.25 2,2.25 0,0 3.250002,1 4.000002,1 0.75,0 -1,1.5 -1,1.5 0,0 -2.000002,3.25 -1,3.75 1,0.5 4.75,0.75 4.75,0.75 0,0 -4.75,2.5 -4.5,4.5 0.25,2 1,2.25 1,2.25 0,0 4.5,-0.25 5.25,-1 0.75,-0.75 -1.5,6 -0.25,6.5 1.25,0.5 5.25,-1 5.25,-1 0,0 0.25,3.25 0.25,4.5 0,1.25 2.75,1.5 4.25,-1.75 1.5,-3.25 1.75,5.75 1.75,5.75 0,0 -9.5,27.25 -9.75,32.75 0,0 5.5,-3.75 8.25,-6.5 2.75,-2.75 7.5,-6.5 9.25,-6.25 1.75,0.25 3.75,-0.5 3.75,-0.5 0,0 0.5,-2 2.75,-4.25 2.25,-2.25 4.75,-4.75 4.75,-4.75 l 0.25,-17.25 2,-10 -2,-7.75 -11.5,2.75 -4.5,-7 0.25,-9.75 z" /><path
     style="fill:#6fc8dd;fill-opacity:1;stroke:#000000;stroke-width:1"
     id="path298"
     d="m -44.032661,109.583 c 0,0 -1,-5 -2.75,-6.25 -1.75,-1.25 -5.75,-2 -7.5,-1.25 -1.75,0.75 -4.75,4.5 -4.75,7.25 0,2.75 0.25,5.5 2.5,8.25 2.25,2.75 10.75,9.25 9.25,15 0,0 -1.25,3 -5.5,3 -4.25,0 -4.75,-2.5 -5.25,-4.25 -0.5,-1.75 -0.5,-8 -0.75,-10.75 -0.25,-2.75 -2.25,-5.75 -5,-8 0,0 0.75,3 0.75,7 0,4 -1.5,7.75 0,10.75 1.5,3 3.75,6.5 6.5,7 2.75,0.5 5.75,0 8.5,-0.25 2.75,-0.25 2,-1.75 2.75,0.75 0.75,2.5 1.25,6.75 -0.25,10.75 -1.5,4 -2.5,8.75 -5.25,11.75 -2.75,3 -4.5,5.5 -3.25,6.25 1.25,0.75 3.25,-0.75 4.5,-0.75 1.25,0 2.5,-1.25 2.75,0.5 0.25,1.75 0.25,3.5 2.5,4 2.25,0.5 5.5,-0.25 6,-1 0.5,-0.75 0.5,-5.25 0.5,-5.25 l -2.75,-1.75 c 0,0 3.25,-4.25 3.25,-5.5 0,-1.25 1.967,-27.75 1.967,-27.75 0,0 -5.217,-5.25 -6.967,-7.25 -1.75,-2 -3,-2.5 -4.5,-5.5 -1.5,-3 2.75,-6.75 2.75,-6.75 z" /><path
     style="fill:#b3e2ee;fill-opacity:1"
     id="path300"
     d="m -46.532661,109.833 c 0,0 0,-3.25 -2.25,-4 -2.25,-0.75 -6.25,-0.75 -7,2.25 -0.75,3 -0.75,3.5 0.75,6 1.5,2.5 3.75,5.5 6.25,8.25 2.5,2.75 2.25,6 3.5,8 1.25,2 4.75,3.25 4.5,1 -0.25,-2.25 -1.25,-5.25 -2.5,-6.25 -1.25,-1 -4,-4 -7,-7 -3,-3 -4,-5 -3.5,-6 0.5,-1 0.75,-0.75 2,-0.25 1.25,0.5 2.25,1 2.25,1 l 3,-3 z" /><path
     style="fill:#6fc8dd;fill-opacity:1"
     id="path302"
     d="m -51.782661,122.833 c 0,0 -1.75,3 -1.75,5.75 0,2.75 1,3.75 1,3.75 0,0 -2,1.75 -3,0.75 -1,-1 -2.75,-3.5 -0.25,-6.75 2.5,-3.25 2.5,-3.25 2.5,-3.25 l 0.25,-2 1.25,1.75 z" /><path
     style="fill:none;stroke:#000000;stroke-width:1"
     id="path304"
     d="m -74.782661,150.583 c 1.75,-0.5 8,-7.75 8,-7.75" /><path
     style="fill:none;stroke:#000000;stroke-width:1"
     id="path306"
     d="m -49.782661,145.333 c 0,0 -0.25,5.25 -1.25,7.75 -1,2.5 -3.25,4.75 -3.25,4.75 l -1,-2 c 0,0 -3,4 -4.5,4.5 0,0 -1.5,-2.75 -1,-5.25 0,0 -2.25,4 -3.5,4 l -0.25,-4" /><path
     style="fill:none;stroke:#000000;stroke-width:1"
     id="path308"
     d="M -73.032661,107.583" /><path
     style="fill:#6fc8dd;fill-opacity:1"
     id="path332"
     d="m -50.226777,145.49632 c -0.43,-0.102 -1.035,-0.006 -1.461,0.039 -0.121,2.281 0.700625,3.66022 -0.209375,5.69122 -0.729,1.621 -3.131,3.398 -2.969,5.205 3.32,-0.082 4.891375,-7.92322 4.639375,-10.68522 m -2.555884,0.58668 c -0.52,2.252 -0.404,5.123 -1.307,7.238 -1.197,2.813 -3.389,3.715 -5.398,5.486 0.227,-1.373 1.434,-2.369 2.018,-3.656 0.605,-1.33 0.719,-2.693 0.951,-4.123 0.371,-2.279 0.256,-7.063 3.236,-4.945 m -5.884514,0.0768 c 0.482,-0.012 1.113,0.346 1.719,0.275 -0.215,1.303 -1.206984,2.03701 -1.656,3.281 -0.314866,0.87233 -0.233102,1.75147 -0.3822,2.60877 -0.04883,0.28075 -0.122108,0.5593 -0.2428,0.83423 -0.610695,1.39113 -2.811,3.553 -4.137,4.227 -0.42,-2.293 1.004,-4.238 2.199,-6.121 1.136,-1.787 1.648,-3.16 2.5,-5.105 m -4.115486,-2.11548 c 0.611,1.695 1.404,1.715 0.938,3.438 -0.229,0.842 -1.594,2.822 -2.125,3.58 -1.113,1.588 -3.207,3.848 -5.08,4.332 -0.229,-2.051 2.916,-3.793 3.719,-5.594 0.879,-1.975 1.344,-4.133 2.299,-6.256 m -12.251,7.69226 c 0.84,-3.799 5.852,-6.447 8.752,-8.779 2.141,1.316 0.938,3.508 -0.752,4.779 -1,0.75 -3,3.75 -5,3.25 0,0 -1,1 -3,0.5 m 5,-11.07678 c 0,0 -0.5,2.25 -2,3.25 -1.5,1 -5,2 -6.5,2.25 l -0.5,-2.5 c 0,0 6.25,-1.25 9,-3 z m -1.25,-3.07678 c 0,0 -0.5,1.25 -2.25,1.25 -1.75,0 -6.5,-0.75 -6.5,-0.75 0,0 7,-2.75 8.75,-0.5 z m -0.75,-5.5 c 0,0 -2,0.75 -3.75,0.75 -1.75,0 -6.500002,-0.5 -7.500002,-1.75 -1,-1.25 1.5,-0.75 4.250002,-0.75 2.75,0 6.75,0.75 6.75,0.75 -7.25,-0.25 -9.500002,-0.5 -9.500002,-0.5 m -5.25,-10.5 c 0,0 1.25,2.25 3.75,4.25 2.500002,2 5.250002,2.5 7.000002,2.5 1.75,0 3.75,0.75 3.75,0.75 l 0.75,-1.75 c 0,0 -1.25,-0.5 -3.25,-0.5 -2,0 -6.25,-1 -7.500002,-2.25 -1.25,-1.25 -2.75,-3 -4.5,-3 z m -1,-12.5 c 0,0 1.5,0.75 3,2.75 1.5,2 3.750002,6 8.500002,9.25 0,0 -5.000002,-1.5 -7.500002,-4 -2.5,-2.5 -4,-5.5 -4,-6.25 0,-0.75 0,-1.75 0,-1.75 z m 3,-10.75 c 0,0 1.75,2.75 2.5,5.25 0.75,2.5 6.250002,9.5 7.000002,10.5 0.75,1 -4.5,-0.5 -6.250002,-3 -1.75,-2.5 -4.25,-7.5 -4.25,-9.5 0,-2 0.25,-3 1,-3.25 z m 13.500002,11.75 c 0,0 -8.5,-10.25 -8.75,-14 0,0 -2.250002,1.75 -0.25,5.25 2,3.5 6.75,8 9,8.75 z" /><path
     style="fill:#6fc8dd;fill-opacity:1"
     id="path336"
     d="m -48.032661,165.833 c 0,0 -3.5,5 -4.75,6.75 -1.25,1.75 -3,4.25 -2.5,5 0.5,0.75 5.25,-4 7,-6 1.75,-2 0.25,-5.75 0.25,-5.75 z m -12.75,-7.5 c 0,0 -5.25,23.25 -10.75,30 0,0 3.5,-13.5 5.5,-20.5 2,-7 3,-9.5 3,-9.5 l 2.25,-3.25 v 3.25 z" /><path
     style="fill:#b3e2ee;fill-opacity:1"
     id="path338"
     d="m -39.032661,154.583 c 0,0 -8.5,5.75 -8.5,7.75 0,2 3.5,-1 4.75,-2.75 1.25,-1.75 5.5,-4.5 3.75,-5 z" /><path
     style="fill:#d35226;stroke:#000000;stroke-width:1"
     id="path340"
     d="m -27.315661,152.833 c 0,0 2.25,2.25 2,5.25 -0.25,3 -0.25,3.5 -0.5,5.75 -0.25,2.25 1.75,4.25 -0.5,4.5 0,0 -2,-1.25 -3,-0.75 -1,0.5 -2.75,1 -2.75,1 l -0.5,-2 c 0,0 2.157,-0.984 2.25,-2.75 0.25,-4.75 3,-11 3,-11 z" /><path
     style="fill:#ffffff;stroke:#000000;stroke-width:1"
     id="path342"
     d="m -48.032661,110.083 c 0,0 -0.75,-2.25 -2.75,-2 -2,0.25 -2.25,1.5 -2.25,1.5 0,0 0.75,1 1.75,1 1,0 1,-0.25 3.25,-0.5 z" /><path
     style="fill:#ffffff;stroke:#000000;stroke-width:1"
     id="path364"
     d="M -81.411661,130.184" /><path
     style="fill:none;stroke:#000000;stroke-width:1;fill-opacity:1"
     id="path368"
     d="m -66.972661,142.497 c 0,0 -4.56,5.32 -6.688,6.688 m -7.751,-19.001 c 0,0 6.079,1.217 8.359,0.912 m 21.77,14.487 c 0,0 -1,9 -2.5,10.25 m -1.75,-9.5 c 0,0 -2,8.25 -3.75,12.25 m -0.5,-12 c 0,0 -3,8 -4,8.75 m 0.5,-11 c 0,0 -5.5,10.75 -6.25,10.75 m -10,-11 c 2.25,0.25 9.25,-4.75 9.25,-4.75 m -1.75,-3.5 c 0,0 -6.25,1.25 -8,1.25 m 7.5,-11.75 c 0,0 -3.25,-0.75 -6.25,-1.25 -3,-0.5 -7.500002,-4.5 -7.500002,-4.5 m 13.000002,1 c 0,0 -9.250002,-4 -10.500002,-7 -1.25,-3 -3.25,-4.25 -3.25,-4.25 m 12.750002,5 c 0,0 -8.250002,-9 -9.750002,-13.5 m 2.750002,-8 c 1,6.75 10.5,17.25 10.5,17.25" /><path
     style="fill:none;stroke:#000000;stroke-width:1"
     id="path370"
     d="m -47.782661,142.583 c 0,0 0.25,4.25 -3.5,3 0,0 -1.75,2 -4.5,-0.25 0,0 -2,3.75 -4.25,0.5 0,0 -2,2.25 -3.25,-1.5 0,0 -3.75,1.75 -3.75,-2.25 0,0 -4.25,-1.5 -2.75,-4.25 0,0 -4,0.25 -1.75,-4.75 0,0 -3.5,-3.5 0,-4 0,0 -3.5,-2 -1,-3.75 0,0 -4.25,-3.5 -0.75,-4.75 0,0 -2.25,-4 0,-4.5 0,0 -2.25,-3.5 0.25,-3.5 0,0 0,-3.25 2.25,-2.5 0,0 -0.5,-4.5 2.25,-3" /><path
     style="fill:#d35226;stroke:#000000;stroke-width:1"
     id="path372"
     d="m -44.782661,108.083 c 0,0 1.75,4 3,4.75 1.25,0.75 12,7 13.5,7.75 1.5,0.75 4,4.25 3.25,5 -0.75,0.75 -1.25,-2 -3.75,-1.75 -2.5,0.25 -6.5,-1.75 -7.75,-2 -1.25,-0.25 -5.5,-2.25 -7.5,-4 -2,-1.75 -5.5,-2.75 -5.5,-5 0,-2.25 0,-2.25 0,-2.25 0,0 0.25,-1.25 1.5,-0.5 1.25,0.75 1.5,-1.75 1.5,-1.75 0,0 0.75,-1.75 1.75,-0.25 z" /><path
     style="fill:none;stroke:#000000;stroke-width:1"
     id="path374"
     d="m -47.532661,112.833 c 0,0 4.25,2.25 8,4 3.75,1.75 10.25,5.75 11.5,6.5" /></g><g
   id="g460"
   transform="matrix(1.12519,0,0,1.12519,-18.6962,-11.9819)">
		<path
   style="fill:#23365d;fill-opacity:1;stroke:#000000;stroke-width:1"
   id="path462"
   d="m 48.083,71.583 c 0,0 -2,4.5 -0.25,6.75 1.75,2.25 5,2 5,2 0,0 -3.25,-3.75 -1.5,-5 1.75,-1.25 2.75,-3.5 7.75,0 5,3.5 9,10 14,13.75 5,3.75 10.5,6.5 14.25,6.75 3.75,0.25 6.75,0.5 11.25,0.25 4.5,-0.25 7.5,-1.75 7.5,-1.75 l -13.25,-7.5 -3.25,-5.25 c 0,0 -4.75,1.5 -5.5,-2.25 -0.75,-3.75 -0.5,-8.75 -0.5,-8.75 l -7.25,-0.25 -1.75,4 -6.25,1 -2.75,-8.75 -5.25,3.5 -6.75,-2.25 -5.5,3.75 z" />
		<path
   style="fill:#23365d;fill-opacity:1;stroke:#000000;stroke-width:1"
   id="path464"
   d="m 70.833,57.833 c 0,0 4.25,-7.5 7.25,-7.75 3,-0.25 4.75,-0.75 4.75,-0.75 0,0 0.75,-1.75 3.75,-3.25 3,-1.5 4.25,-0.5 4.25,-0.5 0,0 -0.75,4.75 0.75,5.75 1.5,1 4.5,1.75 4.5,0.75 0,-1 0,3.5 -1,4.25 -1,0.75 -1,3.5 -7.75,3 0,0 -0.25,0.75 -3.25,2.75 -3,2 -4,0 -7.5,-1.25 l -5.75,-3 z" />
		<path
   style="fill:#23365d;fill-opacity:1;stroke:#000000;stroke-width:1"
   id="path466"
   d="m 132.083,84.083 c 0,0 0.75,2 2.5,2 1.75,0 4,-0.5 3.5,-2 -0.5,-1.5 -1,-2.5 -1,-2.5 0,0 3.25,-0.5 3.75,1 0.5,1.5 1.5,2.5 2.5,1.25 1,-1.25 3.75,-4.75 3,-8 -0.75,-3.25 0.75,-5.75 -6.5,-4.75 0,0 3.25,-3.75 6.25,-3.25 3,0.5 3,4 5,4 2,0 2,-2 2,-4.25 0,-2.25 -1,-7.75 -3.75,-8.5 -2.75,-0.75 -5.25,-2.75 -5.25,-2.75 l 4,-3 c 0,0 10.25,0.25 11.25,3 1,2.75 2.75,8 1.25,11.5 -1.5,3.5 -2,5 -0.5,5.25 1.5,0.25 3.75,-1.5 4,-5.25 0.25,-3.75 2.5,-3.25 3.25,-5 0.75,-1.75 2,-4.25 1.25,-5 -0.75,-0.75 2.25,1 2.25,4 0,3 1.5,4 2,2.5 0.5,-1.5 0.75,-2.75 2.5,-2.75 1.75,0 1.5,1.25 3.25,0.25 1.75,-1 3.75,-2.25 4,-3 0.25,-0.75 1,2.5 0.75,4.25 -0.25,1.75 -1.75,2.5 -1.5,3.25 0.25,0.75 4.75,3 4.25,6.5 -0.5,3.5 -0.25,6.5 -9.75,7.5 0,0 2.25,-1.75 1.75,-4 -0.5,-2.25 1.5,-1.75 -0.5,-2.25 -2,-0.5 -8.25,3.5 -12.25,8.25 -4,4.75 -7.25,7.25 -11.75,9.25 -4.5,2 -16.5,4.75 -19.75,4.5 -3.25,-0.25 -2.5,-2.75 -2.5,-2.75 l 0.75,-9.25 z" />
		<path
   style="fill:#b3e2ee;fill-opacity:1;stroke:#000000;stroke-width:1"
   id="path468"
   d="m 142.833,43.583 c 0,0 -0.5,2.25 1.25,3.25 1.75,1 5,1.75 5,3.5 0,1.75 0.5,2.75 0.5,2.75 0,0 3.5,-1.25 4.75,-0.25 1.25,1 4.25,3 4.25,3 0,0 -3.25,-0.5 -5.25,0.25 -2,0.75 -5.25,0.75 -5.25,3 0,2.25 0.25,4.5 0.25,4.5 0,0 -3.75,-0.25 -4.25,-4.5 0,0 -2.25,1.75 -4.5,1.25 -2.25,-0.5 -4.5,-2.75 -4.75,-6.5 0,0 2.5,0 4,-1.5 1.5,-1.5 3.75,-1.75 3.75,-1.75 0,0 -2.25,-2 0.25,-7 z" />
		<path
   style="fill:#b3e2ee;fill-opacity:1;stroke:#000000;stroke-width:1"
   id="path470"
   d="m 88.833,82.083 c 0,0 -4,0 -4,-1.75 0,-1.75 0,-4.25 0.25,-6 0.25,-1.75 3,-4 3,-4 0,0 1.5,-1.5 0,-2.75 -1.5,-1.25 -3.75,-2.75 -6.25,-1.75 -2.5,1 -2.25,3.25 -2.25,3.25 0,0 -2.25,-1.75 -1.25,-3.25 1,-1.5 1.75,-3.25 1.75,-3.25 0,0 -1.5,-0.25 -2.25,-1 -0.75,-0.75 -0.75,-1.75 -0.75,-1.75 0,0 2.5,1.5 3.25,0.5 0.75,-1 2.25,-1.25 2,-2 -0.25,-0.75 -0.25,-2.75 -2.25,-4 -2,-1.25 -4.5,-1.5 -5.75,-0.75 -1.25,0.75 -3.5,2.5 -3.75,5 -0.25,2.5 1.25,7.75 1.25,10 0,2.25 0.25,6.5 0.25,6.5 l 2.75,3 c 0,0 0.25,-2.5 2.25,-4.25 2,-1.75 3,-1.75 4,-1.75 1,0 0,4 0.75,6 0.75,2 1.75,4 7,4 z" />
		<path
   style="fill:#b3e2ee;fill-opacity:1;stroke:#000000;stroke-width:1"
   id="path472"
   d="m 73.333,74.583 c 0,0 -2.5,1.25 -3.5,0.25 -1,-1 -2.5,-1.25 -2.75,-4.75 -0.25,-3.5 -0.25,-5.25 -2,-6.75 -1.75,-1.5 -3.5,-3.25 -3,-4.25 0.5,-1 2.5,-2.75 2.5,-2.75 0,0 -2.5,-1.5 -3.75,-0.5 -1.25,1 -2,4 -2,4 0,0 -2.25,0.25 -5.5,0.25 -3.25,0 -3.5,-1.5 -3.5,-2.5 0,-1 -0.25,-1.75 -0.25,-1.75 0,0 -4.5,1.5 -4.5,3.25 0,1.75 2.25,5.5 2.25,5.5 0,0 1,1.75 -0.25,2.5 -1.25,0.75 -3.5,3.5 -2.5,7.25 1,3.75 4.75,6 8.25,6 0,0 -5.5,-2.75 -4,-5.5 1.5,-2.75 1.5,-4.75 4.5,-4.75 3,0 7.5,2.75 7.5,2.75 0,0 1,-0.75 2.25,-2.25 1.25,-1.5 2.25,-2.5 2.25,-0.5 0,2 0.25,5.5 1.5,5.75 1.25,0.25 4.25,1.25 6.5,-1.25 z" />
		<path
   style="fill:#6fc8dd;fill-opacity:1"
   id="path474"
   d="m 63.833,63.833 c 0,0 0.75,1.75 -0.75,2.75 -1.5,1 -4.25,1 -4.75,1.75 -0.5,0.75 -1,-0.75 -1,-0.75 0,0 2.75,-0.5 4,-2.25 1.25,-1.75 2.5,-1.5 2.5,-1.5 z" />
		<path
   style="fill:#6fc8dd;fill-opacity:1"
   id="path476"
   d="m 47.333,64.583 c 0,0 6,0.75 8.5,0 0,0 -2.25,1.25 -4.25,1.25 -2,0 -4.5,1.25 -4.5,1.25 l 0.75,-1.5 -0.5,-1 z" />
		<path
   style="fill:#b3e2ee;fill-opacity:1;stroke:#000000;stroke-width:1"
   id="path478"
   d="m 96.833,95.583 c 0,0 -1.75,2.25 -3.25,3.75 -1.5,1.5 1.75,1.25 1.75,1.25 0,0 0.5,1 0.25,3.25 -0.25,2.25 -3.75,2.5 -3.75,2.5 0,0 1,2.75 3.5,2.75 2.5,0 5.25,-2 5.75,-3 0.5,-1 1,2.25 0.25,2.75 -0.75,0.5 2.75,-1 3,-2.25 0.25,-1.25 0.75,-7.5 0.75,-7.5 0,0 -3.75,-6.5 -8.25,-3.5 z" />
		<path
   style="fill:#b3e2ee;fill-opacity:1;stroke:#000000;stroke-width:1"
   id="path480"
   d="m 131.083,86.583 c 0,0 2,3.5 3.75,4.5 1.75,1 4.25,1.75 8,0.75 3.75,-1 4.25,-1.5 5.25,-4 1,-2.5 -1.5,-5.75 0,-9 1.5,-3.25 2,-2.25 2.25,-3.75 0.25,-1.5 0,-2.75 1.25,-2.5 1.25,0.25 4,2 4,4.5 0,2.5 3.25,-1.25 3.25,-1.25 0,0 1.5,3 1,4.5 -0.5,1.5 -2.75,4.25 -3.75,5.75 -1,1.5 -2.5,2.5 -0.75,2.5 1.75,0 1.5,1.75 3.75,-2.75 2.25,-4.5 3.75,-7.75 5.75,-9.25 2,-1.5 1.75,-3.75 2.5,-5 0.75,-1.25 2.5,0.25 1.75,2.25 -0.75,2 2.25,-1.5 3.5,-1.5 1.25,0 4.75,0.25 5,1.75 0,0 -1.75,-0.5 -4.5,1.25 -2.75,1.75 -10,9.75 -13.5,12.75 -3.5,3 -10.5,6 -13.25,7.5 -2.75,1.5 -1.5,3.25 -3,3.25 -1.5,0 -0.25,2.75 0.25,4 0.5,1.25 0.25,1.25 -1,1.5 -1.25,0.25 -3,0.75 -3,0.75 0,0 1.25,1.5 0,2.75 -1.25,1.25 -2.75,0.75 -2.75,0.75 l -8,-5 c 0,0 -0.25,-15.25 2.25,-17 z" />
		<path
   style="fill:#b3e2ee;fill-opacity:1;stroke:#000000;stroke-width:1"
   id="path482"
   d="m 98.583,87.583 c 0,0 -4.5,-0.25 -5.5,-3 -1,-2.75 -1.75,-4.25 0,-5.5 0,0 -3,-3.25 -4.75,-0.75 -1.75,2.5 -1.5,4.25 -0.5,5.75 1,1.5 2.5,3 2.5,3 0,0 -4.5,-4 -5.75,-4 -1.25,0 -1,3.75 -0.25,5.25 0.75,1.5 4.25,5.25 5.75,5.5 1.5,0.25 4.25,0.5 5.75,0.5 1.5,0 5,-2.75 5,-2.75 l -2.25,-4 z" />
		<path
   style="fill:#6fc8dd;fill-opacity:1"
   id="path484"
   d="m 138.17972,95.669679 c 0,0 5.5,-0.75 6.5,-0.5 1,0.25 1,0.25 1,0.25 l -1.75,1.75 c 0,0 -3,-0.25 -4.25,-0.25 -1.25,0 -4.75,-0.75 -4.75,-0.75 l 3.25,-0.5 z" />
		<path
   style="fill:#6fc8dd;fill-opacity:1"
   id="path486"
   d="m 134.833,99.419679 c 0,0 4,4.250001 5.25,4.500001 1.25,0.25 -0.5,1 -0.5,1 0,0 -1.25,0.75 -4.75,-5.500001 z" />
		<path
   style="fill:#6fc8dd;fill-opacity:1"
   id="path488"
   d="m 154.582,75.333 c 0,0 -1,6.75 -2.75,9.75 0,0 3.5,-3.25 4.75,-6.75 0,0 0,0.5 -1,-1.25 -1,-1.75 -1,-1.75 -1,-1.75 z" />
		<path
   style="fill:#6fc8dd;fill-opacity:1"
   id="path490"
   d="m 142.583,50.583 c 0,0 3.25,0.5 3.75,1.75 0.5,1.25 0.5,2.25 0.5,2.25 0,0 -0.25,-1.5 -2,-0.5 -1.75,1 -5.5,3 -6.75,2 0,0 3,-1 4.25,-2.25 1.25,-1.25 2.5,-1 2.5,-1 0,0 -2.75,-1.75 -5,-0.75 l 2.75,-1.5 z" />
	</g><g
   id="g492"
   transform="matrix(1.12519,0,0,1.12519,-18.6962,-11.9819)">
		<path
   style="fill:#f9f6f3"
   id="path518"
   d="m 105.833,116.083 c 0,0 2.5,1.5 5.25,0.25 2.75,-1.25 8.25,-3.5 9.5,-4.75 1.25,-1.25 3,-1.75 3,-1.75 l -1.25,-3.5 -5,-10.5 c 0,0 0.75,4.5 0.25,6 -0.5,1.5 -4,7.5 -5.75,9.25 -1.75,1.75 -4,4.75 -6,5 z" /><path
   style="fill:#4a8418;stroke:#000000;stroke-width:1;fill-opacity:1"
   id="path494"
   d="m 98.354003,66.769 c 0,0 1.244,-2.428 4.559997,-2.901 l 0.829,3.553 3.73,-0.77 -0.178,-4.027 5.625,-0.177 0.119,4.381 6.099,-0.177 0.178,-4.145 h 5.803 l -0.355,4.5 3.671,0.474 1.007,-3.908 4.382,1.54 c 0,0 -1.361,4.085 -2.724,5.151 -1.363,1.066 -2.191,1.362 -2.191,1.362 l -0.013,4.547 c 0,0 -4.428,-1.29 -12.244,-1.29 -7.816,0 -14.862,1.717 -14.862,1.717 l -0.178,-5.506 c 0,0 -1.125,-0.71 -1.599,-1.303 -0.473997,-0.593 -1.658997,-3.021 -1.658997,-3.021 z" />
		<path
   style="fill:none;stroke:#000000;stroke-width:1"
   id="path496"
   d="m 99.598,69.434 c 0,0 4.439,-3.256 16.046,-2.96 11.607,0.296 15.929,2.842 15.929,2.842" />
		<path
   style="fill:none;stroke:#000000;stroke-width:1"
   id="path498"
   d="m 101.789,71.388 c 0,0 2.428,-1.185 7.105,-1.48 4.677,-0.295 7.579,-0.532 13.382,0.296 5.803,0.828 6.81,1.599 6.81,1.599" />
		<line
   style="fill:none;stroke:#000000;stroke-width:1"
   id="line500"
   y2="75.888"
   x2="104.098"
   y1="70.795998"
   x1="104.157" />
		<line
   style="fill:none;stroke:#000000;stroke-width:1"
   id="line502"
   y2="75"
   x2="111.073"
   y1="69.790001"
   x1="111.144" />
		<line
   style="fill:none;stroke:#000000;stroke-width:1"
   id="line504"
   y2="74.941002"
   x2="119.019"
   y1="69.907997"
   x1="119.138" />
		<line
   style="fill:none;stroke:#000000;stroke-width:1"
   id="line506"
   y2="75.829002"
   x2="127.013"
   y1="71.151001"
   x1="126.895" />
		<path
   style="fill:#cccccc;fill-opacity:1;stroke:#000000"
   id="path508"
   d="m 111.5,79.975 -3.917,2.858 c 0,0 2.5,-1.5 6,-1.25 3.5,0.25 4,1.25 2.75,2 -1.25,0.75 2.25,1.75 2.25,1.75 0,0 -2,6.25 -1.25,9.75 0.75,3.5 6.25,14.75 6.25,14.75 0,0 4.25,-4.75 7.25,-4.75 3,0 6,4 2.75,6 l 2.25,-0.25 c 0,0 2.5,-3.25 0.25,-6 -2.25,-2.75 -4.75,-5 -4.75,-10 0,-5 0,-9.25 1,-11.5 1,-2.25 2,-1.75 -0.25,-3.25 -2.25,-1.5 -18.038,-1.115 -20.583,-0.108 z" />
		<path
   style="fill:#f9f6f3"
   id="path510"
   d="m 119.083,90.333 c 0,0 1.5,12.25 5.75,17 l 0.25,0.75 0.75,-0.75 c 0,0 -1,0 -3,-8 -2,-8 -1.75,-10 -1.75,-10 l -2,1 z" />
		<path
   style="fill:#999999;stroke:#000000;stroke-width:1;fill-opacity:1"
   id="path512"
   d="m 117.583,88.833 c 0,0 -0.5,4 -0.75,5.25 -0.25,1.25 2,7.25 -0.75,11.5 -2.75,4.25 -8.75,11 -10.25,10.5 -1.5,-0.5 0,-2.75 0.25,-7.25 0.25,-4.5 1.5,-5.5 -0.75,-8 -2.25,-2.5 -4.75,-4.75 -4.75,-4.75 l -5,-0.5 c 0,0 -2.75,-4.5 -1.75,-6.25 1,-1.75 1.25,-4.25 3,-5.5 1.75,-1.25 2.25,-2.25 2.25,-2.25 l 2.75,-0.25 c 0,0 -2.75,2.25 -3.5,3.75 -0.75,1.5 -0.75,8.25 -0.75,8.25 0,0 3.25,0.5 4.5,0.5 1.25,0 7,-1.25 7,-1.25 0,0 -1.25,1.75 0.75,1.75 2,0 3.25,-1 4.75,-2.25 1.5,-1.25 3,-3.25 3,-3.25 z" />
		<path
   style="fill:#000000;fill-opacity:1"
   id="path514"
   d="m 100.583,96.083 c 0,0 3.25,2.75 4,4.25 0.75,1.5 2.5,3.75 1.75,6.75 0,0 0,-4.5 1.5,-4.25 1.5,0.25 2.5,6 2.5,6 0,0 -0.75,-7 0.5,-7.25 1.25,-0.25 1.25,3.5 1.25,3.5 0,0 1.25,-6.25 1.75,-7.75 0.5,-1.5 1,-4.25 2,-3.75 1,0.5 1.5,-0.25 1.5,-0.25 l 0.75,-5.5 c 0,0 -1.75,2.75 -3.5,4.25 -1.75,1.5 -8,3.25 -9.75,3.5 -1.75,0.25 -4.25,0.5 -4.25,0.5 z" />
		<path
   style="fill:#1f1a17;stroke:#000000;stroke-width:1"
   id="path516"
   d="m 133.583,111.083 c 0,0 1.25,0 1.25,-2 0,-2 -1.5,-3.75 -4,-4 -2.5,-0.25 -6.25,4 -7.25,4.75 -1,0.75 -3,1.75 -3,1.75 l 13,-0.5 z" />
		
		<path
   style="fill:#cccccc;stroke:#000000;stroke-width:1;fill-opacity:1"
   id="path520"
   d="m 99.083,81.583 c 0,0 -5.25,5 -5,8.75 0.25,3.75 1.5,5.25 1.5,5.25 0,0 5,0.75 7.5,0.25 2.5,-0.5 8.75,-1.5 9.75,-2.25 1,-0.75 5,-2.25 5,-8.25 0,0 3.75,-0.75 6.5,-0.75 2.75,0 7.25,-0.5 8,-1.25 l -0.25,-3.25 c 0,0 -30.5,-1.75 -33,1.5 z" />
		<path
   style="fill:#999999;stroke:#000000;stroke-width:1;fill-opacity:1"
   id="path522"
   d="M 103.68013,79.386695 99.583,84.083 c 0,0 -2.25,2 -2.25,5.25 0,3.25 0.25,4 0.25,4 0,0 5,0.25 7.25,0.25 2.25,0 4.5,-0.75 7.75,-3.75 3.25,-3 2.5,-5.5 2.5,-5.5 0,0 7,-1.25 9,-1.5 2,-0.25 7.24,-1.166 7.24,-1.166"
   sodipodi:nodetypes="ccscsscsc" />
		
		<path
   style="fill:none;stroke:#000000;stroke-width:1"
   id="path526"
   d="m 125.468,108.077 c 0,0 -12.916,10.378 -19.54,8.28" />
		<path
   style="fill:#b3e2ee;fill-opacity:1;stroke:#000000;stroke-width:1"
   id="path528"
   d="m 102.381,76.896 c 0,0 -3.08,-0.592 -3.968,0 -0.888,0.592 -1.895,3.849 -0.947,4.5 0.948,0.651 3.493,0.533 5.329,0.237 1.836,-0.296 2.546,-0.355 3.197,-0.355 0.651,0 -1.952,-3.79 -3.611,-4.382 z" />
		<path
   style="fill:#23365d;stroke:#000000;stroke-width:1;fill-opacity:1"
   id="path530"
   d="m 131.869,82.816 c 0,0 1.539,0.177 2.072,-0.651 0.533,-0.828 0.889,-3.02 -0.77,-3.849 -1.659,-0.829 -3.671,-1.006 -3.671,-1.006 0,0 0.059,1.125 0.77,2.131 0.711,1.006 1.895,2.783 1.599,3.375 z" />
		<path
   style="fill:#b3e2ee;fill-opacity:1;stroke:#000000;stroke-width:1"
   id="path532"
   d="m 131.323,81.667 c 0,0 -1.645,-3.232 -1.822,-3.587 -0.177,-0.355 -0.178,-1.777 -1.007,-1.895 -0.829,-0.118 -1.481,-0.651 -2.191,-0.651 -0.71,0 -3.729,-0.77 -4.736,-0.415 -1.007,0.355 1.303,4.56 2.546,5.507 1.243,0.947 2.605,0.947 3.435,0.947 0.83,0 3.36,0.094 3.775,0.094 z" />
		<path
   style="fill:#23365d;stroke:#000000;stroke-width:1;fill-opacity:1"
   id="path534"
   d="m 124.052,80.448 c 0,0 -0.177,-1.066 -0.71,-2.132 -0.533,-1.066 -1.362,-3.02 -2.132,-3.257 C 120.44,74.822 117.598,75 117.598,75 c 0,0 -0.473,1.243 0.237,2.487 0.71,1.244 1.243,2.131 2.072,2.665 0.829,0.534 1.185,0.415 2.428,0.651 1.243,0.236 1.717,-0.355 1.717,-0.355 z" />
		<path
   style="fill:#b3e2ee;stroke:#000000;stroke-width:1;fill-opacity:1"
   id="path536"
   d="m 117.243,75.889 c 0,0 -0.592,-1.006 -1.539,-1.006 -0.947,0 -1.006,-0.533 -2.309,-0.533 -1.303,0 -3.139,0.118 -3.672,0.651 -0.533,0.533 -0.711,2.31 -0.296,2.783 0.415,0.473 2.071,2.427 3.02,2.546 0.949,0.119 2.429,-0.178 4.619,0.237 2.19,0.415 2.428,-0.296 2.428,-0.296 0,0 -1.065,-1.48 -1.48,-2.013 -0.415,-0.533 -0.771,-2.369 -0.771,-2.369 z" />
		<path
   style="fill:#23365d;stroke:#000000;stroke-width:1;fill-opacity:1"
   id="path538"
   d="m 111.026,79.619 c 0,0 -1.066,-1.658 -1.48,-2.309 -0.414,-0.651 -0.592,-1.717 -1.303,-1.717 -0.711,0 -3.553,0 -4.5,0.71 -0.947,0.71 -1.243,1.066 -0.947,1.776 0.296,0.71 1.895,2.191 2.901,2.605 1.006,0.414 1.421,0.296 3.257,0.296 1.836,0 2.546,-1.006 2.546,-1.006 l -0.474,-0.355 z" />
	</g><use
   xlink:href="#g3138"
   height="248.53996"
   width="225.00002"
   y="0"
   x="0"
   id="use3233"
   transform="matrix(-1,0,0,1,220.58893,0)" /><g
   id="g5458"
   transform="matrix(1.12519,0,0,1.12519,-20.696203,-7.9818946)"><path
     style="color:#000000;fill:#b3e2ee;fill-opacity:1;fill-rule:nonzero;stroke:#000000;stroke-width:0.88873899000000001;stroke-linecap:butt;stroke-linejoin:miter;stroke-miterlimit:4;stroke-opacity:1;stroke-dasharray:none;stroke-dashoffset:0;marker:none;visibility:visible;display:inline;overflow:visible"
     id="path4345"
     d="m 91.904913,220.04729 c -0.32665,5.63459 0.57163,6.20622 3.26643,7.67611 2.6948,1.4699 16.332137,-1.71487 21.231777,-1.71487 4.89964,0 15.92384,3.02144 19.92521,2.61314 4.00137,-0.40831 6.36953,-4.73632 5.87957,-7.83943 -0.48996,-3.10311 -6.94116,-8.73769 -24.90651,-8.49271 -17.965357,0.24498 -25.559797,7.67611 -25.396477,7.75776 z" /><g
     id="g4500"
     transform="translate(-177.748,-88.8739)"><path
       style="color:#000000;fill:#3f7256;fill-opacity:1;fill-rule:nonzero;stroke:#000000;stroke-width:0.88873899000000001;stroke-linecap:butt;stroke-linejoin:miter;stroke-miterlimit:4;stroke-opacity:1;stroke-dasharray:none;stroke-dashoffset:0;marker:none;visibility:visible;display:inline;overflow:visible"
       id="path4339"
       d="m 210.73451,287.93439 c -0.0408,-2.93978 13.55567,-8.49271 13.88232,-1.55155 0.32664,6.94116 -4.90814,12.86857 -4.90814,12.86857 l -5.70775,-1.02777 -3.26643,-10.28925 z" /><path
       style="color:#000000;fill:#b3e2ee;fill-opacity:1;fill-rule:nonzero;stroke:#000000;stroke-width:0.88873899000000001;stroke-linecap:butt;stroke-linejoin:miter;stroke-miterlimit:4;stroke-opacity:1;stroke-dasharray:none;stroke-dashoffset:0;marker:none;visibility:visible;display:inline;overflow:visible"
       id="path4341"
       d="m 224.57929,286.05396 c -0.28872,2.07874 -7.44882,4.79266 -7.44882,4.79266 l 1.96325,5.94751 5.2546,-0.4042 0.23097,-10.33597 z" /><path
       style="color:#000000;fill:#3f7256;fill-opacity:1;fill-rule:nonzero;stroke:#000000;stroke-width:0.88873899000000001;stroke-linecap:butt;stroke-linejoin:miter;stroke-miterlimit:4;stroke-opacity:1;stroke-dasharray:none;stroke-dashoffset:0;marker:none;visibility:visible;display:inline;overflow:visible"
       id="path4343"
       d="m 286.22983,302.26585 c 0,2.88524 -16.25048,3.59307 -16.57712,7.30863 0.16332,-3.71556 2.77646,-11.39167 2.77646,-11.39167 l 11.26918,2.00068 2.53148,2.08236 z" /><path
       style="color:#000000;fill:#b3e2ee;fill-opacity:1;stroke:#000000;stroke-width:0.88873899000000001;stroke-linecap:butt;stroke-linejoin:miter;stroke-miterlimit:4;stroke-opacity:1;stroke-dasharray:none;stroke-dashoffset:0;marker:none;visibility:visible;display:inline;overflow:visible"
       id="path4337"
       d="m 286.3284,302.38919 c -1.88687,-3.83708 -4.72195,-8.86905 -4.83489,-12.90324 -18.4248,-2.21986 -33.49465,6.90904 -63.04207,5.87957 -5.08311,-0.1771 -7.72922,-5.80611 -7.6761,-8.00275 -0.62341,2.7726 2.11897,5.97202 2.61314,10.12593 0.50497,4.2446 0.16333,6.61452 2.44982,9.30931 1.90492,2.24507 24.23519,2.99144 35.60407,-0.48996 10.66685,-3.26642 33.526,-7.26915 34.88603,-3.91886 z" /></g><use
     xlink:href="#g4500"
     height="248.53996"
     width="225.00002"
     y="0"
     x="0"
     id="use4514"
     transform="matrix(-1,0,0,1,233.945,-3.9437e-7)"
     style="fill:#b3e2ee;fill-opacity:1" /></g>









<path
   style="font-size:9.86787986999999940px;font-style:normal;font-variant:normal;font-weight:bold;font-stretch:normal;text-align:center;line-height:125%;text-anchor:middle;fill:#23365d;fill-opacity:1;stroke:none;font-family:Liberation Sans"
   id="path5500"
   d="m 179.13126,229.43318 -0.0787,2.36248 3.90675,0.12999 -0.0411,1.23542 -3.90674,-0.12999 -0.0932,2.80136 -1.59847,-0.0532 0.25405,-7.63467 5.62983,0.18733 -0.0411,1.23542 -4.03137,-0.13415 m -10.96768,5.28807 1.06688,-7.56404 1.58366,0.22338 -0.89424,6.34005 4.05849,0.57243 -0.17264,1.22399 -5.64215,-0.79581 m -9.60298,-2.19025 1.81512,-7.42011 5.83499,1.42736 -0.29372,1.2007 -4.28145,-1.04734 -0.45603,1.86425 3.96021,0.96875 -0.29372,1.2007 -3.96021,-0.96875 -0.47794,1.95377 4.49737,1.10015 -0.29372,1.2007 -6.0509,-1.48018 m -2.94438,-3.12342 c -0.0843,0.33659 -0.22246,0.628 -0.41453,0.87425 -0.1912,0.24275 -0.44111,0.42981 -0.74971,0.56118 -0.30512,0.13225 -0.67288,0.20224 -1.10329,0.20996 -0.42604,0.006 -0.91604,-0.0617 -1.46999,-0.20043 -0.49085,-0.12292 -0.91288,-0.27517 -1.26609,-0.45676 -0.35319,-0.18159 -0.64327,-0.39209 -0.87022,-0.63149 -0.22344,-0.23853 -0.3877,-0.50508 -0.49279,-0.79965 -0.1007,-0.29721 -0.14659,-0.61982 -0.13769,-0.96783 l 1.56076,0.12815 c 8.1e-4,0.17532 0.0244,0.34145 0.0708,0.49838 0.0464,0.15693 0.12699,0.30379 0.24178,0.44059 0.11916,0.13415 0.2769,0.25563 0.47322,0.3644 0.2007,0.10611 0.45181,0.19698 0.75334,0.27248 0.52591,0.13169 0.94711,0.15334 1.2636,0.0649 0.32087,-0.091 0.52389,-0.30661 0.60905,-0.6467 0.051,-0.20336 0.0366,-0.38394 -0.0432,-0.54176 -0.0797,-0.15782 -0.20195,-0.30207 -0.36669,-0.43275 -0.16476,-0.13068 -0.36108,-0.25435 -0.58894,-0.37103 -0.22788,-0.11667 -0.4667,-0.23423 -0.71649,-0.35267 -0.19807,-0.10171 -0.39571,-0.20528 -0.5929,-0.31055 -0.1972,-0.1052 -0.38299,-0.21886 -0.55739,-0.34077 -0.17089,-0.12104 -0.326,-0.25303 -0.46533,-0.39597 -0.13932,-0.14293 -0.25191,-0.3034 -0.33774,-0.48139 -0.0815,-0.1806 -0.13223,-0.37962 -0.1523,-0.59703 -0.0165,-0.21652 0.009,-0.45976 0.0765,-0.72974 0.0922,-0.36813 0.24483,-0.66524 0.45793,-0.89133 0.2131,-0.22607 0.47001,-0.38902 0.77073,-0.48885 0.30509,-0.10239 0.64786,-0.14702 1.0283,-0.13373 0.38044,0.0133 0.78454,0.0735 1.21228,0.18062 0.48383,0.12116 0.8879,0.26333 1.21218,0.42649 0.32866,0.16055 0.58937,0.34693 0.78215,0.55914 0.19628,0.2131 0.33162,0.45378 0.40604,0.72205 0.0788,0.26564 0.11072,0.56238 0.0956,0.89022 l -1.55547,-0.17153 c 0.002,-0.33837 -0.0949,-0.61805 -0.2929,-0.83903 -0.19453,-0.2201 -0.51267,-0.38546 -0.95443,-0.49609 -0.27348,-0.0685 -0.50752,-0.10104 -0.70212,-0.0975 -0.19024,8.1e-4 -0.34979,0.0279 -0.47867,0.0813 -0.12537,0.0543 -0.22446,0.13009 -0.29725,0.22737 -0.0719,0.0937 -0.12281,0.20026 -0.15266,0.31946 -0.0457,0.18233 -0.0396,0.34406 0.0182,0.48521 0.0586,0.13765 0.15681,0.26655 0.29438,0.3867 0.13846,0.11664 0.30935,0.23023 0.51269,0.34075 0.20771,0.10791 0.43602,0.22284 0.68493,0.34477 0.21911,0.10701 0.43559,0.21713 0.64944,0.3303 0.21472,0.10971 0.4163,0.2272 0.60472,0.35263 0.18842,0.12542 0.35887,0.26312 0.51135,0.41308 0.15246,0.14995 0.27424,0.31831 0.36534,0.50506 0.0955,0.18413 0.15369,0.39059 0.17465,0.61938 0.0244,0.22969 6.8e-4,0.48828 -0.0713,0.77578 m -30.96817,15.40439 1.04626,-7.56691 5.95042,0.82274 -0.16931,1.22446 -4.36614,-0.60369 -0.26286,1.90112 4.03855,0.5584 -0.16931,1.22445 -4.03854,-0.55839 -0.27549,1.99242 4.58633,0.63414 -0.1693,1.22446 -6.17061,-0.8532 m -4.34503,-0.495 -1.61311,-0.16004 -2.05663,-7.88044 1.66166,0.16485 1.08016,5.03771 c 0.0343,0.16686 0.0664,0.33712 0.0964,0.51079 0.03,0.17369 0.0578,0.33263 0.0835,0.47683 0.0268,0.16973 0.0524,0.33208 0.077,0.48707 0.0506,-0.14389 0.10374,-0.2948 0.15933,-0.45273 0.0495,-0.1331 0.10599,-0.28186 0.16957,-0.44626 0.0675,-0.16765 0.13478,-0.3335 0.20191,-0.49755 l 2.04357,-4.7278 1.64547,0.16325 -3.54879,7.32432 m -5.56725,-4.40928 c -0.0195,0.59605 -0.12571,1.13501 -0.31866,1.6169 -0.19296,0.4819 -0.46127,0.8908 -0.80495,1.22673 -0.34369,0.33592 -0.75882,0.58995 -1.24541,0.76209 -0.48299,0.17225 -1.0261,0.24852 -1.62937,0.22879 -0.6394,-0.0209 -1.19614,-0.13675 -1.6702,-0.34752 -0.47035,-0.21428 -0.86055,-0.50187 -1.17059,-0.86279 -0.30993,-0.36452 -0.53826,-0.79148 -0.68499,-1.28086 -0.14312,-0.48925 -0.20529,-1.02107 -0.18651,-1.59545 0.0195,-0.59603 0.12017,-1.13157 0.30205,-1.60659 0.1855,-0.4749 0.44628,-0.875 0.78239,-1.20033 0.33983,-0.32881 0.75112,-0.57574 1.23386,-0.74078 0.48648,-0.16851 1.04037,-0.24261 1.66171,-0.22232 0.62133,0.0204 1.16741,0.1304 1.63822,0.33021 0.47443,0.19995 0.86864,0.47503 1.18267,0.82522 0.31762,0.35032 0.55347,0.76847 0.70755,1.25446 0.15419,0.4824 0.2216,1.01981 0.20223,1.61224 m -1.63101,-0.0533 c 0.0132,-0.40098 -0.0238,-0.76382 -0.11083,-1.08851 -0.0833,-0.32819 -0.21509,-0.61095 -0.39537,-0.84828 -0.18028,-0.23734 -0.40749,-0.42196 -0.68164,-0.55389 -0.2704,-0.1354 -0.58803,-0.20907 -0.95289,-0.22101 -0.37207,-0.0122 -0.70107,0.0404 -0.98697,0.15759 -0.28217,0.11373 -0.52096,0.28313 -0.71636,0.50816 -0.1954,0.22507 -0.34538,0.49861 -0.44993,0.82065 -0.10442,0.31844 -0.16321,0.67815 -0.17632,1.07913 -0.0129,0.39736 0.0221,0.76375 0.1051,1.09916 0.0868,0.33192 0.22019,0.62016 0.40025,0.86472 0.18005,0.24456 0.40697,0.43822 0.68075,0.58097 0.27379,0.14275 0.59311,0.2201 0.95796,0.23202 0.39014,0.0127 0.72827,-0.0431 1.01442,-0.16754 0.28625,-0.12805 0.52358,-0.30834 0.71201,-0.54085 0.19213,-0.23601 0.33694,-0.51696 0.43439,-0.84286 0.0975,-0.3295 0.15271,-0.68933 0.16547,-1.07946 m -8.04576,1.4923 c 0.024,0.38599 -0.033,0.72269 -0.17077,1.0101 -0.13807,0.2838 -0.3369,0.5225 -0.59644,0.71608 -0.2562,0.18975 -0.56027,0.33722 -0.91223,0.44239 -0.35221,0.10161 -0.72851,0.1648 -1.12892,0.1897 l -3.814792,0.23719 -0.474054,-7.62418 3.490126,-0.217 c 0.45092,-0.028 0.8538,-0.0133 1.20866,0.0443 0.35822,0.0538 0.66313,0.15252 0.9147,0.29621 0.25156,0.14369 0.44617,0.33258 0.58386,0.56664 0.14105,0.23024 0.22167,0.50769 0.24187,0.83235 0.0269,0.43289 -0.0711,0.80655 -0.29425,1.12098 -0.21969,0.31062 -0.5716,0.53348 -1.05569,0.66859 0.62134,0.0338 1.10242,0.19944 1.44322,0.49692 0.34417,0.29366 0.5324,0.70021 0.56471,1.21968 m -2.25162,-3.1898 c -0.0213,-0.3427 -0.14648,-0.57936 -0.37549,-0.70997 -0.22542,-0.13084 -0.55277,-0.1829 -0.98204,-0.15622 l -1.818117,0.11304 0.117425,1.88846 1.828932,-0.11372 c 0.45092,-0.028 0.77256,-0.12588 0.96494,-0.29357 0.19575,-0.1715 0.28386,-0.41418 0.26435,-0.72802 m 0.64221,3.16493 c -0.0126,-0.20201 -0.0628,-0.36909 -0.15067,-0.50123 -0.0879,-0.13215 -0.20475,-0.23534 -0.3506,-0.30956 -0.14223,-0.0745 -0.30827,-0.12387 -0.4981,-0.14828 -0.18622,-0.0246 -0.38755,-0.0303 -0.60399,-0.0168 l -2.023732,0.12583 0.135923,2.18606 2.083259,-0.12953 c 0.20923,-0.013 0.40301,-0.0413 0.58137,-0.0851 0.17812,-0.0473 0.32954,-0.11646 0.45424,-0.2075 0.12809,-0.0948 0.22552,-0.21682 0.29231,-0.36582 0.0667,-0.14901 0.0934,-0.33173 0.08,-0.54817 m -8.347454,3.0655 -1.010139,-1.80227 -2.866035,0.51162 -0.32415,2.04047 -1.574454,0.28106 1.400856,-8.00973 1.857324,-0.33156 4.075042,7.03221 -1.558444,0.2782 m -2.701624,-4.95334 c -0.06492,-0.11691 -0.129858,-0.23382 -0.194782,-0.35074 -0.062,-0.12109 -0.118235,-0.23038 -0.168677,-0.32785 -0.04748,-0.10161 -0.08799,-0.18439 -0.121397,-0.24819 -0.02982,-0.0645 -0.04726,-0.0999 -0.05198,-0.10633 -0.0011,0.0114 -0.0056,0.0523 -0.01125,0.12314 -0.0056,0.0708 -0.01541,0.16062 -0.02903,0.26952 -0.01001,0.10824 -0.02498,0.23026 -0.04482,0.36597 -0.01691,0.13152 -0.0356,0.26336 -0.05606,0.39551 l -0.355996,2.29397 2.161543,-0.38586 -1.127733,-2.02911 m -4.849551,-14.49828 0.27373,3.12166 -1.58783,0.13924 -0.273729,-3.12166 -3.104736,-4.25031 1.668841,-0.14634 2.107717,3.05879 1.564814,-3.38082 1.668842,-0.14634 -2.317649,4.72578 m -7.378996,3.96036 -2.224894,-2.57016 -1.850397,0.30791 0.476109,2.86116 -1.577651,0.26253 -1.253901,-7.53528 3.764968,-0.62651 c 0.470617,-0.0783 0.889527,-0.0931 1.25673,-0.0442 0.370166,0.0447 0.689222,0.14547 0.957169,0.3024 0.267342,0.15337 0.481199,0.35962 0.64157,0.61872 0.163332,0.25495 0.273775,0.55535 0.33133,0.90117 0.04686,0.28167 0.04709,0.54727 6.87e-4,0.79682 -0.04344,0.2454 -0.124907,0.47146 -0.244386,0.67821 -0.115926,0.20616 -0.265115,0.38854 -0.447567,0.54714 -0.183057,0.15504 -0.389274,0.28095 -0.618652,0.37775 l 2.56441,2.82693 -1.775525,0.29546 m -1.056634,-5.19382 c -0.06111,-0.36722 -0.22772,-0.6198 -0.499821,-0.75772 -0.268543,-0.13851 -0.625645,-0.17068 -1.071306,-0.0966 l -2.021531,0.33639 0.370208,2.22476 2.064315,-0.34351 c 0.235307,-0.0391 0.432297,-0.0995 0.590973,-0.18078 0.161638,-0.0855 0.287632,-0.1871 0.377984,-0.30473 0.09331,-0.12178 0.155145,-0.25664 0.185492,-0.40459 0.03034,-0.14794 0.03156,-0.30571 0.0037,-0.47328 m -10.441237,0.92972 1.52805,6.21779 -1.553131,0.38169 -1.528049,-6.21779 -2.395507,0.58871 -0.295,-1.20039 6.349409,-1.56039 0.295,1.20039 -2.400772,0.58999 m -6.584199,8.37401 -4.730851,-4.8272 c 0.0584,0.14904 0.115054,0.29852 0.169962,0.44846 0.04933,0.129 0.09795,0.2694 0.145873,0.4212 0.05141,0.15089 0.09573,0.29619 0.132947,0.43588 l 1.159746,4.35344 -1.372566,0.36565 -1.966404,-7.38147 1.765475,-0.47032 4.790561,4.86179 c -0.05654,-0.14203 -0.113199,-0.29151 -0.169962,-0.44845 -0.05026,-0.13248 -0.103427,-0.2829 -0.159485,-0.45125 -0.05258,-0.16926 -0.102123,-0.34121 -0.148642,-0.51584 l -1.142999,-4.29058 1.372565,-0.36565 1.966405,7.38147 -1.812625,0.48287 m -10.755267,2.63735 c -0.469949,0.0822 -0.910393,0.1025 -1.321332,0.0606 -0.411567,-0.0453 -0.780325,-0.16061 -1.106273,-0.34573 -0.323013,-0.1893 -0.597033,-0.45505 -0.822057,-0.79726 -0.221467,-0.34285 -0.377073,-0.7706 -0.46682,-1.28327 l -0.823614,-4.70479 1.575387,-0.27579 0.802112,4.58197 c 0.05547,0.31686 0.142619,0.58414 0.261456,0.80184 0.118209,0.21415 0.263388,0.3832 0.435534,0.50717 0.171518,0.12042 0.366757,0.19816 0.585715,0.23321 0.21833,0.0315 0.453884,0.0251 0.706661,-0.0191 0.25633,-0.0449 0.485071,-0.12161 0.686221,-0.2302 0.20408,-0.11279 0.369266,-0.25912 0.49556,-0.43902 0.129844,-0.1805 0.216924,-0.39573 0.261239,-0.64566 0.04431,-0.24992 0.0381,-0.53688 -0.01861,-0.86086 l -0.792764,-4.52857 1.575386,-0.27578 0.809593,4.6247 c 0.09036,0.51622 0.08492,0.97767 -0.01634,1.38434 -0.101279,0.40668 -0.27962,0.7608 -0.535043,1.06236 -0.256058,0.29801 -0.579981,0.54368 -0.971768,0.73702 -0.38886,0.18917 -0.828941,0.32674 -1.320244,0.41275 m -6.101654,-3.08324 c 0.02894,0.59567 -0.03321,1.14148 -0.186404,1.63743 -0.15322,0.49596 -0.387469,0.92529 -0.702748,1.28799 -0.315294,0.36271 -0.708447,0.64959 -1.179459,0.86064 -0.467414,0.21088 -1.002559,0.33097 -1.605437,0.36026 -0.638988,0.0311 -1.203285,-0.0393 -1.692895,-0.21085 -0.486181,-0.17539 -0.898426,-0.43037 -1.236735,-0.76494 -0.338489,-0.33817 -0.600712,-0.74518 -0.786671,-1.22105 -0.18235,-0.47602 -0.287471,-1.00105 -0.315362,-1.57505 -0.02894,-0.59566 0.02795,-1.13759 0.170685,-1.62581 0.146342,-0.48838 0.37381,-0.90833 0.682404,-1.25987 0.312026,-0.3553 0.701919,-0.63478 1.169681,-0.83844 0.471191,-0.20744 1.017254,-0.32625 1.638191,-0.35643 0.620928,-0.0302 1.174132,0.0352 1.659614,0.19618 0.48908,0.16079 0.904322,0.40296 1.245725,0.72651 0.344999,0.32339 0.614003,0.72103 0.807015,1.19293 0.192821,0.46829 0.303619,0.99846 0.332396,1.5905 m -1.62995,0.0792 c -0.01948,-0.40071 -0.08575,-0.75934 -0.198834,-1.07592 -0.10965,-0.32034 -0.263955,-0.59146 -0.4629,-0.8134 -0.198956,-0.22192 -0.440401,-0.38749 -0.724336,-0.49673 -0.28051,-0.11302 -0.603072,-0.16067 -0.967685,-0.14296 -0.371842,0.0181 -0.695483,0.0971 -0.970926,0.23716 -0.272015,0.13625 -0.49627,0.32446 -0.672764,0.56462 -0.176499,0.24017 -0.303785,0.52499 -0.381858,0.85444 -0.07826,0.32587 -0.107636,0.68916 -0.08817,1.08987 0.0193,0.39712 0.08394,0.75945 0.193945,1.08702 0.113432,0.32378 0.2698,0.60024 0.469104,0.82939 0.199299,0.22914 0.441182,0.40374 0.725652,0.52381 0.284462,0.12006 0.609004,0.17124 0.973627,0.15352 0.389882,-0.0189 0.722375,-0.10206 0.997475,-0.2493 0.274915,-0.15087 0.496838,-0.34981 0.66577,-0.59686 0.172355,-0.25081 0.293874,-0.54259 0.36456,-0.87532 0.07049,-0.33633 0.09628,-0.69945 0.07733,-1.08934 m -11.57996,2.80234 c 0.299694,0.0133 0.559698,-0.0169 0.780015,-0.0905 0.224077,-0.077 0.418582,-0.18053 0.583515,-0.31073 0.168532,-0.13004 0.30898,-0.27942 0.421343,-0.44812 0.115962,-0.16854 0.212151,-0.33976 0.288565,-0.51367 l 1.368805,0.58676 c -0.124046,0.26948 -0.282147,0.53205 -0.474305,0.78767 -0.192172,0.25563 -0.42812,0.47857 -0.707842,0.66883 -0.279736,0.19027 -0.61015,0.34032 -0.991243,0.45013 -0.377335,0.10634 -0.818757,0.14841 -1.324268,0.12612 -0.660785,-0.0292 -1.228801,-0.15188 -1.704051,-0.3682 -0.475094,-0.21994 -0.863793,-0.51203 -1.166098,-0.8763 -0.298538,-0.36771 -0.51477,-0.79691 -0.648697,-1.28762 -0.130318,-0.49054 -0.182817,-1.02287 -0.157497,-1.59698 0.02627,-0.59579 0.125826,-1.13046 0.29866,-1.60402 0.176443,-0.47339 0.427336,-0.87113 0.752677,-1.19325 0.325497,-0.32572 0.728737,-0.56842 1.20972,-0.72811 0.484746,-0.16313 1.048484,-0.23052 1.691215,-0.20219 0.49829,0.022 0.931085,0.0935 1.298387,0.21465 0.370902,0.12127 0.687542,0.28357 0.949922,0.48688 0.266135,0.19988 0.481939,0.43369 0.647412,0.70147 0.169227,0.26433 0.297549,0.55399 0.384967,0.86898 l -1.425182,0.32245 c -0.04339,-0.16471 -0.114179,-0.3234 -0.212357,-0.47606 -0.09804,-0.15627 -0.225741,-0.29577 -0.383126,-0.41848 -0.153787,-0.12255 -0.33749,-0.22291 -0.551108,-0.30107 -0.21347,-0.0818 -0.457413,-0.1287 -0.731831,-0.14081 -0.386364,-0.017 -0.721345,0.0315 -1.004949,0.14561 -0.28345,0.1105 -0.52054,0.27734 -0.71127,0.50046 -0.187125,0.2233 -0.331181,0.49552 -0.43217,0.81667 -0.09723,0.31771 -0.154671,0.67696 -0.172344,1.07775 -0.01752,0.39719 0.0079,0.76372 0.07632,1.09958 0.07217,0.3324 0.193267,0.62175 0.363301,0.86802 0.170029,0.24628 0.392921,0.44243 0.668676,0.58845 0.279361,0.14618 0.617637,0.22803 1.014832,0.24554" />
</svg>