<?xml version="1.0" encoding="UTF-8" standalone="no"?>
<svg
   xmlns:dc="http://purl.org/dc/elements/1.1/"
   xmlns:cc="http://creativecommons.org/ns#"
   xmlns:rdf="http://www.w3.org/1999/02/22-rdf-syntax-ns#"
   xmlns:svg="http://www.w3.org/2000/svg"
   xmlns="http://www.w3.org/2000/svg"
   xmlns:xlink="http://www.w3.org/1999/xlink"
   xmlns:sodipodi="http://sodipodi.sourceforge.net/DTD/sodipodi-0.dtd"
   xmlns:inkscape="http://www.inkscape.org/namespaces/inkscape"
   height="1640.3092"
   width="1659.6649"
   version="1.1"
   id="svg2"
   inkscape:version="0.48.2 r9819"
   sodipodi:docname="AJAX.svg">
  <metadata
     id="metadata335">
    <rdf:RDF>
      <cc:Work
         rdf:about="">
        <dc:format>image/svg+xml</dc:format>
        <dc:type
           rdf:resource="http://purl.org/dc/dcmitype/StillImage" />
      </cc:Work>
    </rdf:RDF>
  </metadata>
  <sodipodi:namedview
     pagecolor="#ffffff"
     bordercolor="#666666"
     borderopacity="1"
     objecttolerance="10"
     gridtolerance="10"
     guidetolerance="10"
     inkscape:pageopacity="0"
     inkscape:pageshadow="2"
     inkscape:window-width="1280"
     inkscape:window-height="1004"
     id="namedview333"
     showgrid="false"
     inkscape:zoom="0.28502415"
     inkscape:cx="402.22126"
     inkscape:cy="1200.8439"
     inkscape:window-x="-8"
     inkscape:window-y="-8"
     inkscape:window-maximized="1"
     inkscape:current-layer="svg2"
     fit-margin-top="0.05"
     fit-margin-left="0.05"
     fit-margin-right="0.05"
     fit-margin-bottom="0.05" />
  <defs
     id="defs4">
    <linearGradient
       id="a">
      <stop
         id="stop4087"
         stop-color="#fff"
         offset="0" />
      <stop
         id="stop4089"
         stop-color="#fdc643"
         offset="1" />
    </linearGradient>
    <radialGradient
       id="e"
       gradientUnits="userSpaceOnUse"
       cy="12.77"
       cx="191.60001"
       gradientTransform="matrix(0.2526,0.1181,-0.1329,0.2839,145.5,-12.81)"
       r="2.355">
      <stop
         id="stop5188"
         stop-color="#fff"
         offset="0" />
      <stop
         id="stop5190"
         offset="1" />
    </radialGradient>
    <radialGradient
       id="c"
       xlink:href="#a"
       gradientUnits="userSpaceOnUse"
       cy="540.59998"
       cx="-214"
       gradientTransform="matrix(-0.4547,-0.0328,-0.0512,0.7079,1200,812.2)"
       r="185.39999" />
    <radialGradient
       id="b"
       xlink:href="#a"
       gradientUnits="userSpaceOnUse"
       cy="540.59998"
       cx="-214"
       gradientTransform="matrix(0.4547,-0.0328,0.0512,0.7079,476.3,812.8)"
       r="185.39999" />
    <path
       id="j"
       d="m 1472,757.4 c 227,-37.7 594,-35.1 838,1.8"
       inkscape:connector-curvature="0"
       style="opacity:0;stroke-width:1px" />
    <path
       id="i"
       d="m 1532,511.6 c 68,-63.4 157,-98.4 261,-94.8"
       inkscape:connector-curvature="0"
       style="opacity:0;stroke-width:1px" />
    <path
       id="h"
       d="m 1656,533.7 c 167,63.4 347,27.8 452,-11.6"
       inkscape:connector-curvature="0"
       style="opacity:0;stroke-width:1px" />
    <radialGradient
       id="d"
       gradientUnits="userSpaceOnUse"
       cy="-334"
       cx="204.8"
       gradientTransform="matrix(0.9988,-0.0069,0.0089,1.287,3.215,85.33)"
       r="11.02">
      <stop
         id="stop4471"
         offset="0" />
      <stop
         id="stop4473"
         stop-color="#626262"
         offset="1" />
    </radialGradient>
  </defs>
  <use
     id="use3284"
     xlink:href="#m"
     transform="matrix(-1,0,0,1,1659.6649,0)"
     height="1656"
     width="1666"
     x="0"
     y="0" />
  <path
     id="path4933"
     d="m 349.23254,1288.0495 -0.4,-45 -71.5,16 71.9,29 z"
     inkscape:connector-curvature="0"
     style="fill:#000000;stroke:#000000;stroke-width:4" />
  <path
     d="m 971.83254,295.04952 c 0,0 -14.1,-21.8 -23.8,-51 -10.2,-30.4 -54.5,-150.870001 -54.5,-150.870001 -8.4,-15.9 -32,-51.7 -72.7,-75.5 -27.2,-13.0000003 -65.8,-23.4000003 -141.4,28.8 l 17.8,64.570001 c 76.4,30.9 23.2,167.6 -27.9,199.9 -10,259.1 417.99986,363.2 314,-15.9 z"
     id="path22"
     inkscape:connector-curvature="0"
     style="fill:#ffffff;stroke:none" />
  <g
     id="m"
     style="stroke:#000000;stroke-linejoin:round"
     transform="translate(-2.6674549,0.04951872)">
    <g
       id="g4564"
       style="fill:#f9f9f9">
      <g
         id="g26"
         style="stroke-width:6.25">
        <path
           id="path4401"
           d="m 1539,1026 -216,-217.5 -10,15.5 213,247 c 0,0 42,39 74,45 3,1 31,7 41,0 3,-9 -21,-39 -35,-56 -68,-81.2 -302,-285.2 -302,-285.2 l -4,11.3 239,239.9 z"
           inkscape:connector-curvature="0" />
        <path
           id="path4403"
           d="m 1481,1056 -182,-221.8 -11,13.5 177,249.3 c 0,0 35,41 65,49 3,1 29,10 39,4 4,-8 -16,-38 -28,-55 -56,-82 -256,-293.8 -256,-293.8 l -5,10.1 201,244.7 z"
           inkscape:connector-curvature="0" />
        <path
           id="path4405"
           d="m 1553,947.7 -244,-196.2 -7,16.5 238,222.1 c 0,0 46,34.9 79,36.9 3,0 31,4 40,-4 2,-9 -25,-36.9 -41,-52.2 C 1542,897.3 1287,720 1287,720 l -3,11.8 269,215.9 z"
           inkscape:connector-curvature="0" />
        <path
           id="path4407"
           d="m 1533,853.2 -254,-174.4 -6,15.6 235,186.2 c 0,0 44,28.3 74,27.8 3,0.1 29,1.5 37,-6.4 1,-8.8 -26,-31.9 -41,-44.8 -76,-61.8 -322,-205.7 -322,-205.7 l -1,11 278,190.7 z"
           inkscape:connector-curvature="0" />
        <path
           id="path4409"
           d="m 1516,781.9 -217,-129.4 -7,16.8 209,134.4 c 0,0 38,20.5 63,18.3 3,-0.1 25,-0.5 30,-7.6 1,-7.2 -23,-24.4 -36,-34.1 -66,-45.9 -279,-148.8 -279,-148.8 l -1,9.2 238,141.2 z"
           inkscape:connector-curvature="0" />
        <path
           id="path4411"
           d="M 1488,708.5 1265,589 l -7,17.1 215,124.9 c 0,0 39,18.8 64,15.5 3,-0.3 24,-1.6 30,-9 0,-7.2 -24,-23.3 -38,-32.4 C 1461,662.2 1244,569 1244,569 l -1,9.1 245,130.4 z"
           inkscape:connector-curvature="0" />
        <path
           id="path4413"
           d="m 1477,649.5 -231,-103.1 -5,17.6 223,109 c 0,0 40,15.9 65,10.8 3,-0.5 24,-3.3 29,-11.1 0,-7.2 -26,-21.5 -40,-29.6 C 1447,605.3 1224,528 1224,528 v 9.2 l 253,112.3 z"
           inkscape:connector-curvature="0" />
        <path
           id="path4415"
           d="m 1465,600 -190,-70 -3,13.4 183,74.6 c 0,0 33,10.7 53,6.1 2,-0.5 19,-3.3 23,-9.3 0,-5.4 -22,-15.3 -33,-20.9 C 1439,567.8 1257,517 1257,517 v 6.9 l 208,76.1 z"
           inkscape:connector-curvature="0" />
        <path
           id="path4417"
           d="m 1450,551.6 -194,-54.5 -2,12 188,61.1 c 0,0 34,8.3 53,2.2 2,-0.5 19,-4.6 23,-10.9 -1,-5.3 -23,-13.6 -35,-18.4 -61,-21.8 -246,-59.2 -246,-59.2 l 1,6.9 212,60.8 z"
           inkscape:connector-curvature="0" />
        <path
           id="path4419"
           d="m 1435,508.6 -197,-40.6 -2,12.2 193,47.6 c 0,0 34,5.8 53,-1.5 1,-0.8 18,-6 21,-12.5 -1,-5.3 -24,-12 -36,-15.9 -62,-17.4 -250,-41.7 -250,-41.7 l 2,6.9 216,45.5 z"
           inkscape:connector-curvature="0" />
        <path
           id="path4421"
           d="m 1425,468.7 -200,-25.2 -1,12.3 196,32.5 c 0,0 34,3.3 53,-5.6 1,-0.9 17,-7.4 20,-14.1 -2,-5.2 -24,-10.1 -37,-13 -63,-12.6 -252,-22.2 -252,-22.2 l 2,6.7 219,28.6 z"
           inkscape:connector-curvature="0" />
        <path
           id="path4423"
           d="M 1415,429.2 1227,424 v 11 l 185,11.8 c 0,0 33,0 49,-9.3 1,-1 16,-8 18,-14.1 -3,-4.5 -24,-6.9 -36,-8.3 -60,-5.8 -237,1.8 -237,1.8 l 2,5.7 207,6.6 z"
           inkscape:connector-curvature="0" />
        <path
           id="path4425"
           d="m 1400,391.3 -189,10.4 1,10.9 186,-3.5 c 0,0 33,-2.7 48,-13.3 1,-1.2 15,-9.3 16,-15.6 -2,-4.3 -24,-4.9 -36,-5.3 -60,-0.8 -236,21.4 -236,21.4 l 3,5.5 207,-10.5 z"
           inkscape:connector-curvature="0" />
        <path
           id="path4427"
           d="m 1385,360 -187,23.5 2,10.8 185,-16.5 c 0,0 32,-4.9 46,-16.6 2,-1.3 15,-10.3 16,-16.7 -3,-4.1 -25,-3.2 -37,-2.7 -60,3.4 -234,37.9 -234,37.9 l 4,5.2 205,-24.9 z"
           inkscape:connector-curvature="0" />
        <path
           id="path4429"
           d="m 1366,329.3 -184,38.5 2,10.6 183,-31.3 c 0,0 32,-7.5 46,-20.3 1,-1.4 13,-11.4 14,-17.9 -3,-3.8 -25,-1.2 -37,0.3 -60,8.2 -230,56.5 -230,56.5 l 3,5 203,-41.4 z"
           inkscape:connector-curvature="0" />
        <path
           id="path4431"
           d="m 1338,301.1 -184,52.4 3,10.4 182,-45.1 c 0,0 31,-9.9 45,-23.8 1,-1.4 13,-12.3 13,-18.8 -3,-3.7 -24,0.6 -36,3 -60,12.7 -229,73.8 -229,73.8 l 4,4.8 202,-56.7 z"
           inkscape:connector-curvature="0" />
        <path
           id="path4433"
           d="m 1317,272.7 -180,65.9 4,10.1 179,-58.5 c 0,0 30,-12.2 42,-27 2,-1.5 13,-13.3 13,-19.8 -4,-3.4 -25,2.5 -37,5.7 -58,17.1 -222,90.6 -222,90.6 l 4,4.5 197,-71.5 z"
           inkscape:connector-curvature="0" />
        <path
           id="path4435"
           d="m 1282,254.2 -175,76.4 4,9.9 175,-68.9 c 0,0 29,-14 41,-29.6 1,-1.6 11,-14 11,-20.4 -4,-3.2 -25,3.9 -36,7.8 -57,20.5 -217,103.6 -217,103.6 l 4,4.3 193,-83.1 z"
           inkscape:connector-curvature="0" />
        <path
           id="path4437"
           d="m 1253,236.4 -145,72.1 4,8.6 144,-65.7 c 0,0 25,-13.1 34,-27.1 1,-1.5 9,-12.5 8,-18.1 -3,-2.8 -20,4.2 -29,7.9 -48,19.7 -179,97.2 -179,97.2 l 4,3.6 159,-78.5 z"
           inkscape:connector-curvature="0" />
        <path
           id="path4439"
           d="m 1228,220.4 -118,68.6 4,7.3 118,-63.1 c 0,0 20,-12.4 27,-24.9 1,-1.4 7,-11.2 7,-15.9 -3,-2.4 -17,4.5 -25,8.1 -39,19 -146,91.7 -146,91.7 l 4,2.9 129,-74.7 z"
           inkscape:connector-curvature="0" />
      </g>
      <path
         id="path4441"
         d="m 1202,210.5 -101,68.6 4,6.4 101,-63.5 c 0,0 17,-12.3 23,-24 0,-1.4 6,-10.6 5,-14.8 -3,-2 -15,4.9 -22,8.6 -33,19.3 -124,91 -124,91 l 3,2.4 111,-74.7 z"
         inkscape:connector-curvature="0"
         style="stroke-width:5.61460018" />
      <g
         id="g49"
         style="stroke-width:5">
        <path
           id="path4443"
           d="m 1173,204.1 -77,63.3 3,5.1 78,-59.1 c 0,0 13,-11.3 17,-21.4 0,-1.2 4,-9.2 3,-12.6 -2,-1.5 -12,5 -17,8.5 -26,18.1 -95,83.4 -95,83.4 l 3,1.8 85,-69 z"
           inkscape:connector-curvature="0" />
        <path
           id="path4445"
           d="m 1137,207.9 -68,73.2 4,4.6 70,-69.1 c 0,0 11,-12.9 13,-23.5 1,-1.2 3,-9.7 2,-12.8 -3,-1.3 -11,6.5 -16,10.6 -23,21.5 -83,95.4 -83,95.4 l 3,1.5 75,-79.9 z"
           inkscape:connector-curvature="0" />
        <path
           id="path4447"
           d="m 1111,205.5 -52,65.6 4,3.6 53,-62.3 c 0,0 8,-11.5 10,-20.5 0,-1 1,-8.3 0,-10.8 -2,-1 -9,6.1 -12,9.8 -18,19.4 -62,85.1 -62,85.1 l 2,1.1 57,-71.6 z"
           inkscape:connector-curvature="0" />
      </g>
      <path
         id="path4449"
         d="m 1411,1060 -134,-197.2 -10,9.7 126,218.5 c 0,0 25,36 50,46 3,1 24,11 33,7 4,-6 -10,-32 -18,-47 -39,-72 -189,-262.2 -189,-262.2 l -6,7.5 148,217.7 z"
         inkscape:connector-curvature="0"
         style="stroke-width:6.25" />
      <path
         id="path4451"
         d="m 1330,1042 -119,-217.4 -11,9.4 110,239 c 0,0 23,40 47,52 2,2 23,13 32,11 5,-7 -7,-36 -14,-51 -34,-79 -170,-290.3 -170,-290.3 l -6,7.4 131,239.9 z"
         inkscape:connector-curvature="0"
         style="stroke-width:6.25" />
      <path
         id="path4453"
         d="m 1266,1058 -106,-243.8 -11,8.3 84,241.5 c 0,0 19,40 41,54 2,2 20,15 30,13 4,-5 -4,-35 -10,-51 -26,-78 -120,-293.3 -120,-293.3 l -24,4.5 116,266.8 z"
         inkscape:connector-curvature="0"
         style="stroke-width:6.01179981" />
    </g>
    <g
       id="g4625"
       style="fill:#f3f3f3">
      <g
         id="g58"
         style="stroke-width:4.61129999">
        <path
           id="path4457"
           d="m 1304,784.8 -107,-111.3 -4,8 105,126.6 c 0,0 21,20.1 37,22.9 1,0.4 15,4 20,0.3 1,-4.6 -10,-20 -17,-28.7 -34,-41.8 -150,-146.3 -150,-146.3 l -2,5.8 118,122.7 z"
           inkscape:connector-curvature="0" />
        <path
           id="path4459"
           d="m 1307,739.4 -115,-103.1 -5,8.3 115,118.5 c 0,0 22,18.5 38,20.1 2,0.3 16,2.8 20,-1.2 2,-4.7 -11,-19.2 -19,-27.4 -37,-39.1 -160,-134.8 -160,-134.8 l -2,5.9 128,113.7 z"
           inkscape:connector-curvature="0" />
        <path
           id="path4461"
           d="m 1311,696.5 -124,-92.5 -3,8.6 124,107.9 c 0,0 24,16.4 40,16.6 2,0.2 16,1.4 20,-3 1,-4.8 -13,-18 -21,-25.5 -40,-35.8 -172,-120.1 -172,-120.1 l -1,6 137,102 z"
           inkscape:connector-curvature="0" />
        <path
           id="path4463"
           d="m 1312,655.7 -132,-80.4 -2,8.9 134,95.6 c 0,0 25,14.1 41,12.8 2,0.1 16,-0.1 20,-4.9 0,-4.9 -15,-16.7 -24,-23.4 C 1305,632.5 1167,561 1167,561 l -1,6.2 146,88.5 z"
           inkscape:connector-curvature="0" />
        <path
           id="path4465"
           d="m 1313,614.6 -139,-67 -1,9.2 143,81.9 c 0,0 26,11.5 42,8.6 1,0 16,-1.6 19,-6.7 0,-4.9 -17,-15.2 -26,-20.9 -47,-27.4 -191,-84.9 -191,-84.9 v 6.1 l 153,73.7 z"
           inkscape:connector-curvature="0" />
        <path
           id="path4467"
           d="m 1308,576.1 -142,-60.5 -1,9.3 147,75.1 c 0,0 27,10.2 42,6.6 2,-0.1 16,-2.4 19,-7.6 0,-4.9 -17,-14.4 -27,-19.7 -48,-25.2 -195,-75.8 -195,-75.8 v 6.1 l 157,66.5 z"
           inkscape:connector-curvature="0" />
        <path
           id="path4469"
           d="m 1299,537.9 -148,-45.4 v 9.4 l 153,59.5 c 0,0 28,7.4 44,2.2 1,-0.3 15,-4 17,-9.6 0,-4.8 -18,-12.4 -29,-16.7 -49,-20.1 -201,-55.2 -201,-55.2 l 1,6 163,49.8 z"
           inkscape:connector-curvature="0" />
        <path
           id="path4471"
           d="m 1289,503.1 -150,-36.8 v 9.4 l 157,50.5 c 0,0 28,5.8 43,-0.4 1,-0.3 15,-4.8 17,-10.5 -1,-4.8 -19,-11.3 -30,-15 -51,-17.2 -204,-43.5 -204,-43.5 l 1,6 166,40.3 z"
           inkscape:connector-curvature="0" />
      </g>
      <g
         id="g68"
         style="stroke-width:4.5">
        <path
           id="path4473"
           d="m 1289,474.7 -135,-24.7 1,7.8 142,35.9 c 0,0 25,3.7 38,-2 1,-0.3 13,-4.7 15,-9.5 -1,-4 -18,-8.7 -27,-11.4 -46,-12.3 -185,-28.1 -185,-28.1 l 2,4.9 149,27.1 z"
           inkscape:connector-curvature="0" />
        <path
           id="path4475"
           d="m 1282,447.2 -132,-13.6 1,7 139,23.2 c 0,0 25,1.7 38,-4.2 1,-0.4 12,-5.1 13,-9.5 -1,-3.5 -18,-6.7 -27,-8.4 -45,-8.2 -180,-13.7 -180,-13.7 l 2,4.3 146,14.9 z"
           inkscape:connector-curvature="0" />
        <path
           id="path4477"
           d="m 1269,421.5 -132,-2.1 1,6.9 141,11 c 0,0 25,-0.5 37,-7.4 1,-0.5 12,-6.1 13,-10.6 -2,-3.4 -19,-5.2 -28,-6.1 -46,-4.2 -180,2 -180,2 l 2,4.1 146,2.2 z"
           inkscape:connector-curvature="0" />
        <path
           id="path4479"
           d="m 1263,396.1 -132,8.6 2,6.7 141,-0.3 c 0,0 25,-2.6 36,-10.4 1,-0.6 11,-7 12,-11.6 -2,-3.2 -19,-3.7 -28,-3.8 -46,-0.5 -180,16.5 -180,16.5 l 3,3.9 146,-9.6 z"
           inkscape:connector-curvature="0" />
        <path
           id="path4481"
           d="m 1254,371.6 -131,21.3 3,6.5 140,-13.9 c 0,0 25,-5 35,-13.8 1,-0.7 11,-8 11,-12.7 -2,-3 -19,-1.9 -29,-1.1 -45,4 -177,33.7 -177,33.7 l 3,3.6 145,-23.6 z"
           inkscape:connector-curvature="0" />
        <path
           id="path4483"
           d="m 1239,348.8 -129,30.2 3,6.3 140,-23.4 c 0,0 24,-6.7 33,-16.1 2,-0.8 10,-8.7 10,-13.4 -2,-2.9 -19,-0.7 -28,0.8 -46,7.1 -175,45.6 -175,45.6 l 3,3.4 143,-33.4 z"
           inkscape:connector-curvature="0" />
        <path
           id="path4485"
           d="m 1224,328.7 -126,43.1 4,5.9 136,-37.2 c 0,0 23,-9.1 32,-19.5 1,-0.8 9,-9.6 8,-14.3 -2,-2.6 -19,1.3 -28,3.6 -44,11.7 -169,62.9 -169,62.9 l 3,3.1 140,-47.6 z"
           inkscape:connector-curvature="0" />
        <path
           id="path4487"
           d="m 1202,308.9 -122,54.6 5,5.6 132,-49.9 c 0,0 23,-11.2 30,-22.3 1,-1 8,-10.5 7,-15.1 -3,-2.3 -19,3.1 -27,6.3 -44,15.8 -163,78.4 -163,78.4 l 4,2.8 134,-60.4 z"
           inkscape:connector-curvature="0" />
      </g>
      <path
         id="path4489"
         d="m 1191,287.3 -114,60.2 5,5.1 125,-56.5 c 0,0 21,-12.2 27,-23.3 1,-1.1 8,-10.6 6,-15 -3,-1.9 -18,4.3 -26,8 -41,17.9 -152,85.7 -152,85.7 l 4,2.4 125,-66.6 z"
         inkscape:connector-curvature="0"
         style="stroke-width:4.34100008" />
      <path
         id="path4491"
         d="m 1173,273 -110,66.2 5,4.8 122,-63.1 c 0,0 20,-13.3 26,-24.7 0,-1.1 6,-11 5,-15.3 -4,-1.7 -18,5.3 -26,9.4 -40,20.1 -147,93.7 -147,93.7 l 3,2.2 122,-73.2 z"
         inkscape:connector-curvature="0"
         style="stroke-width:4.34100008" />
      <path
         id="path4493"
         d="m 1154,261.7 -98,62.7 5,4.1 108,-60.2 c 0,0 18,-12.5 23,-22.9 1,-1 6,-10.1 4,-13.8 -3,-1.5 -16,5.2 -23,9.2 -35,19.2 -130,88.3 -130,88.3 l 3,1.8 108,-69.2 z"
         inkscape:connector-curvature="0"
         style="stroke-width:4.5" />
      <g
         id="g81"
         style="stroke-width:4">
        <path
           id="path4495"
           d="m 1139,251.8 -78,55.1 4,3.2 87,-53.5 c 0,0 14,-11 17,-19.6 1,-0.8 5,-8.5 3,-11.4 -2,-1.1 -13,4.9 -18,8.4 -29,17.1 -104,77.3 -104,77.3 l 3,1.3 86,-60.8 z"
           inkscape:connector-curvature="0" />
        <path
           id="path4497"
           d="m 1121,246.9 -68,55.6 4,2.5 75,-54.8 c 0,0 13,-10.9 15,-18.9 1,-0.9 4,-8 2,-10.6 -2,-0.8 -11,5.4 -16,9 -25,17.5 -90,77.5 -90,77.5 l 3,1 75,-61.3 z"
           inkscape:connector-curvature="0" />
        <path
           id="path4499"
           d="m 1093,250.8 -63,61 4,2.2 71,-60.9 c 0,0 11,-11.9 13,-20.1 1,-0.9 3,-8.2 1,-10.7 -2,-0.6 -11,6.3 -16,10.3 -23,19.5 -83,84.7 -83,84.7 l 3,0.8 70,-67.3 z"
           inkscape:connector-curvature="0" />
      </g>
      <path
         id="path4501"
         d="m 1082,241.2 -45,49 4,1.4 50,-49.2 c 0,0 8,-9.6 9,-15.8 0,-0.7 2,-6.4 0,-8.1 -2,-0.4 -8,5.3 -11,8.5 -17,15.8 -59,67.8 -59,67.8 l 3,0.4 49,-54 z"
         inkscape:connector-curvature="0"
         style="stroke-width:3.01259995" />
      <g
         id="g87"
         style="stroke-width:4.61129999">
        <path
           id="path4503"
           d="m 1285,814.5 -94,-122.1 -6,7.4 91,137.1 c 0,0 19,22.2 34,26.7 2,0.6 15,5.6 20,2.5 2,-4.4 -8,-21 -14,-30.4 -29,-45.2 -133,-161.4 -133,-161.4 l -3,5.5 105,134.7 z"
           inkscape:connector-curvature="0" />
        <path
           id="path4505"
           d="m 1259,833.3 -81,-131.2 -7,6.7 77,145.8 c 0,0 16,24.1 31,30.2 1,0.8 14,7 20,4.6 2,-4.2 -6,-21.8 -11,-31.8 -24,-48 -116,-174.3 -116,-174.3 l -3,5.2 90,144.8 z"
           inkscape:connector-curvature="0" />
        <path
           id="path4507"
           d="m 1233,855.2 -67,-139 -7,6 61,153 c 0,0 13,25.7 27,33.3 1,0.9 14,8.4 19,6.6 3,-3.9 -3,-22.3 -7,-32.7 -19,-50.3 -97,-185.5 -97,-185.5 l -4,4.9 75,153.4 z"
           inkscape:connector-curvature="0" />
      </g>
      <path
         id="path4509"
         d="m 1203,887.1 -59,-152.1 -8,5.4 49,166.1 c 0,0 13,28.2 27,37.7 1,1 14,10.2 21,8.8 4,-3.6 -1,-23.6 -4,-34.7 C 1213,863.9 1148,711 1148,711 l -10,8.2 65,167.9 z"
         inkscape:connector-curvature="0"
         style="stroke-width:4.99370003" />
      <path
         id="path4511"
         d="m 1159,882.8 -45,-156.9 -9,4.6 35,170 c 0,0 9,29.2 23,40 1,1.1 13,11.5 20,10.7 4,-3.3 0,-23.7 -1,-35 -11,-55.6 -62,-213.9 -62,-213.9 l -10,7.3 49,173.2 z"
         inkscape:connector-curvature="0"
         style="stroke-width:4.99370003" />
      <path
         id="path4513"
         d="m 1121,885.6 -22,-136.6 -8,3 14,146.9 c 0,0 5,25.5 15,35.8 1,1 9,11 14,10.9 4,-2.4 3,-20 2,-29.8 -3,-47.9 -31,-186.3 -31,-186.3 l -9,5.2 25,150.9 z"
         inkscape:connector-curvature="0"
         style="stroke-width:4.08960009" />
      <g
         id="g95"
         style="stroke-width:4">
        <path
           id="path4515"
           d="m 1094,895.5 -14,-108.4 -7,2.1 6,116.2 c 0,0 4,20.3 12,28.8 1,0.8 8,9 13,9 3,-1.7 3,-15.7 2,-23.4 -1,-37.9 -20,-147.8 -20,-147.8 l -8,3.8 16,119.7 z"
           inkscape:connector-curvature="0" />
        <path
           id="path4517"
           d="m 1067,884.9 -10,-109 -6,1.8 V 894 c 0,0 3,20.5 11,29.4 0,0.8 7,9.3 12,9.6 3,-1.6 4,-15.6 4,-23.3 0,-37.9 -13,-148.6 -13,-148.6 l -9,3.4 11,120.4 z"
           inkscape:connector-curvature="0" />
        <path
           id="path4519"
           d="m 1037,879.5 1,-109.4 -7,1.1 -10,115.8 c 0,0 0,20.7 7,30.3 1,0.8 7,10 11,10.7 4,-1.2 6,-15.1 6,-22.8 5,-37.6 2,-149.1 2,-149.1 l -9,2.5 -1,120.9 z"
           inkscape:connector-curvature="0" />
      </g>
    </g>
    <g
       id="g4691"
       style="fill:#ebebeb">
      <path
         id="path4523"
         d="m 1174,734.8 -74,-135.2 -5,5.2 70,146.1 c 0,0 11,18.8 22,24.2 1,0.5 11,6.2 15,4.4 2,-3 -4,-17 -7,-24.6 -16,-37.9 -98,-169.5 -98,-169.5 l -3,3.8 80,145.6 z"
         inkscape:connector-curvature="0"
         style="stroke-width:3.53690004" />
      <path
         id="path4525"
         d="m 1184,708.9 -75,-113.7 -3,5.1 73,123.9 c 0,0 11,15.7 21,19.5 0,0.3 9,4.4 13,2.5 1,-3 -5,-14.9 -9,-21.5 -17,-32.2 -99,-141.9 -99,-141.9 l -2,3.7 81,122.4 z"
         inkscape:connector-curvature="0"
         style="stroke-width:3.08859992" />
      <path
         id="path4527"
         d="m 1203,695.5 -84,-103 -3,5.2 82,113.1 c 0,0 12,14.2 22,17 1,0.2 10,3.4 13,1.3 1,-3 -6,-14 -10,-20 -20,-29.6 -108,-128.3 -108,-128.3 l -2,3.7 90,111 z"
         inkscape:connector-curvature="0"
         style="stroke-width:3.00270009" />
      <g
         id="g104"
         style="stroke-width:2.9309001">
        <path
           id="path4529"
           d="m 1207,672.7 -89,-93.9 -2,5.4 88,103.9 c 0,0 13,12.9 23,14.7 1,0.2 10,2.5 12,0.2 2,-3.1 -6,-13.2 -11,-18.9 -21,-27.2 -116,-116.3 -116,-116.3 l -1,3.8 96,101.1 z"
           inkscape:connector-curvature="0" />
        <path
           id="path4531"
           d="m 1207,641.1 -100,-82.4 -2,5.6 101,92.4 c 0,0 14,11.3 24,11.9 1,0.1 10,1.3 13,-1.3 0,-3.2 -9,-12.3 -14,-17.4 -24,-24.4 -129,-101.5 -129,-101.5 v 3.9 l 107,88.8 z"
           inkscape:connector-curvature="0" />
        <path
           id="path4533"
           d="m 1212,619.8 -105,-74.6 -2,5.8 108,84.4 c 0,0 15,10.1 25,10 0,0.1 10,0.6 12,-2.2 0,-3.3 -9,-11.7 -15,-16.4 -26,-22.4 -136,-91.3 -136,-91.3 v 3.9 l 113,80.4 z"
           inkscape:connector-curvature="0" />
        <path
           id="path4535"
           d="m 1217,593.9 -113,-62.5 -1,5.9 116,72.1 c 0,0 16,8.4 26,7.2 1,0 10,-0.5 12,-3.6 0,-3.2 -10,-10.5 -16,-14.6 -29,-19.4 -146,-75.8 -146,-75.8 v 3.9 l 122,67.4 z"
           inkscape:connector-curvature="0" />
        <path
           id="path4537"
           d="m 1215,564.3 -120,-48.4 v 5.9 l 124,57.6 c 0,0 17,6.4 27,4 0,0.1 10,-1.7 11,-4.9 0,-3.3 -11,-9.3 -18,-12.6 -31,-15.8 -153,-57.7 -153,-57.7 v 3.8 l 129,52.3 z"
           inkscape:connector-curvature="0" />
        <path
           id="path4539"
           d="m 1212,538.8 -124,-38.9 1,5.9 128,47.8 c 0,0 17,5.1 27,1.9 0,0.1 9,-2.4 11,-5.8 -1,-3.2 -13,-8.3 -19,-11.1 C 1204,525.2 1078,493 1078,493 l 1,3.7 133,42.1 z"
           inkscape:connector-curvature="0" />
        <path
           id="path4541"
           d="m 1204,511.2 -128,-22.5 1,5.8 134,30.8 c 0,0 17,2.8 27,-1.7 0,0.1 9,-3.6 10,-7.1 -1,-3.1 -14,-6.7 -21,-8.6 -33,-9.1 -162,-24.7 -162,-24.7 l 1,3.6 138,24.4 z"
           inkscape:connector-curvature="0" />
        <path
           id="path4543"
           d="m 1208,486.1 -130,-7.4 2,5.6 136,15 c 0,0 18,0.7 27,-4.8 0,0 8,-4.7 9,-8.3 -2,-2.9 -14,-5.1 -21,-6.1 -35,-5.2 -165,-5.6 -165,-5.6 l 2,3.4 140,8.2 z"
           inkscape:connector-curvature="0" />
        <path
           id="path4545"
           d="m 1205,466 -129,3.6 2,5.4 136,3.5 c 0,0 18,-0.9 26,-7.1 1,0 9,-5.4 9,-9.1 -1,-2.8 -14,-3.9 -21,-4.3 -34,-2.3 -164,8.4 -164,8.4 l 2,3.2 139,-3.6 z"
           inkscape:connector-curvature="0" />
        <path
           id="path4547"
           d="m 1202,446.6 -129,15.3 2,5.2 136,-8.7 c 0,0 18,-2.6 26,-9.5 1,-0.1 9,-6.2 9,-10 -1,-2.6 -14,-2.6 -21,-2.4 -34,0.8 -164,23.3 -164,23.3 l 2,3 139,-16.2 z"
           inkscape:connector-curvature="0" />
        <path
           id="path4549"
           d="m 1193,425.3 -127,29.5 2,5 134,-23.8 c 0,0 18,-4.5 26,-12.4 0,-0.1 8,-7.1 8,-10.9 -2,-2.4 -14,-1.1 -21,-0.1 -34,4.6 -161,41.4 -161,41.4 l 2,2.8 137,-31.5 z"
           inkscape:connector-curvature="0" />
        <path
           id="path4551"
           d="m 1184,404.4 -124,39.9 3,4.8 131,-34.9 c 0,0 18,-6 25,-14.5 0,-0.1 7,-7.7 7,-11.5 -2,-2.2 -15,0.1 -22,1.7 -33,7.4 -156,54.6 -156,54.6 l 2,2.6 134,-42.7 z"
           inkscape:connector-curvature="0" />
        <path
           id="path4553"
           d="m 1181,383.9 -120,49.1 3,4.5 128,-44.6 c 0,0 17,-7.3 23,-16.3 1,-0.1 7,-8.2 7,-11.9 -2,-2.1 -14,1.1 -21,3.2 -33,9.9 -153,66.2 -153,66.2 l 3,2.4 130,-52.6 z"
           inkscape:connector-curvature="0" />
        <path
           id="path4555"
           d="m 1170,366.4 -116,59.5 4,4.2 124,-55.7 c 0,0 16,-8.7 22,-18.3 0,-0.1 5,-8.7 5,-12.3 -3,-2 -14,2.3 -21,5 -32,12.7 -146,79.3 -146,79.3 l 3,2.1 125,-63.8 z"
           inkscape:connector-curvature="0" />
        <path
           id="path4557"
           d="m 1162,346.2 -112,66.5 4,4 120,-63.2 c 0,0 16,-9.7 21,-19.7 0,-0.1 5,-9 4,-12.5 -2,-1.9 -13,3.1 -20,6.2 -31,14.7 -141,88.1 -141,88.1 l 3,2 121,-71.4 z"
           inkscape:connector-curvature="0" />
        <path
           id="path4559"
           d="m 1146,330.7 -107,74.2 4,3.7 116,-71.5 c 0,0 15,-10.7 19,-21.1 0,-0.1 4,-9.3 3,-12.7 -2,-1.8 -13,4 -20,7.6 -29,16.8 -134,97.7 -134,97.7 l 4,1.8 115,-79.7 z"
           inkscape:connector-curvature="0" />
      </g>
      <g
         id="g122"
         style="stroke-width:3">
        <path
           id="path4561"
           d="m 1131,315.8 -100,83 5,3.3 109,-81 c 0,0 14,-12 17,-22.7 1,-0.1 4,-9.6 2,-12.9 -2,-1.6 -13,5.1 -19,9.2 -28,19.3 -125,108.7 -125,108.7 l 3,1.6 108,-89.2 z"
           inkscape:connector-curvature="0" />
        <path
           id="path4563"
           d="m 1128,297.7 -72,62.1 3,2.4 79,-60.6 c 0,0 10,-8.9 13,-16.9 0,-0.1 3,-7.2 1,-9.6 -1,-1.2 -9,3.8 -13,6.9 -21,14.4 -91,81.2 -91,81.2 l 3,1.1 77,-66.6 z"
           inkscape:connector-curvature="0" />
        <path
           id="path4565"
           d="m 1110,292.8 -66,68.3 3,2.1 73,-67.4 c 0,0 9,-9.8 11,-18 0,-0.1 2,-7.4 1,-9.7 -2,-1 -9,4.6 -13,8.1 -20,16.2 -83,89 -83,89 l 2,0.9 72,-73.3 z"
           inkscape:connector-curvature="0" />
        <path
           id="path4567"
           d="m 1093,288.4 -60,70.7 4,1.8 66,-70.3 c 0,0 9,-10.2 10,-18.3 0,-0.1 2,-7.3 0,-9.4 -2,-0.9 -8,5 -12,8.7 -18,17 -75,92 -75,92 l 3,0.7 64,-75.9 z"
           inkscape:connector-curvature="0" />
      </g>
      <path
         id="path4569"
         d="m 1077,285.2 -49,72 3,1.4 55,-72.2 c 0,0 7,-10.3 8,-18.1 0,-0.1 0,-7 -1,-8.9 -2,-0.7 -7,5.5 -11,9.4 -14,17.5 -60,93.2 -60,93.2 l 2,0.5 53,-77.3 z"
         inkscape:connector-curvature="0"
         style="stroke-width:2.80830002" />
      <path
         id="path4571"
         d="m 1064,280.8 -45,75 3,1.2 51,-75.5 c 0,0 6,-10.7 6,-18.6 0,-0.1 1,-7 -1,-8.8 -2,-0.6 -7,5.9 -10,10 -14,18.4 -55,96.8 -55,96.8 l 2,0.4 49,-80.5 z"
         inkscape:connector-curvature="0"
         style="stroke-width:2.80830002" />
      <path
         id="path4573"
         d="m 1055,273.6 -34,64.5 2,1 39,-65.1 c 0,0 5,-9.2 5,-15.8 0,-0.1 0,-6 -1,-7.5 -2,-0.5 -6,5.1 -8,8.7 -11,15.9 -42,83.2 -42,83.2 l 2,0.2 37,-69.2 z"
         inkscape:connector-curvature="0"
         style="stroke-width:2.31520009" />
      <path
         id="path4575"
         d="m 1151,749.9 -60,-142.1 -5,4.6 54,152.5 c 0,0 9,19.9 20,26.4 0,0.6 10,7.3 14,5.9 3,-2.7 -2,-17.3 -4,-25.1 -13,-39.5 -80,-178.7 -80,-178.7 l -3,3.4 64,153.1 z"
         inkscape:connector-curvature="0"
         style="stroke-width:3.53690004" />
      <g
         id="g132"
         style="stroke-width:3">
        <path
           id="path4577"
           d="m 1132,764.2 -42,-128.1 -5,3.7 37,136.8 c 0,0 6,17.8 15,24.3 0,0.5 8,7 12,6.1 3,-2.2 0,-15.2 -2,-22.1 -8,-35.3 -57,-161.5 -57,-161.5 l -3,2.8 45,138 z"
           inkscape:connector-curvature="0" />
        <path
           id="path4579"
           d="m 1110,789.7 -25,-132.4 -5,3 18,140.4 c 0,0 4,18.5 13,26.1 0,0.5 7,7.9 11,7.6 2,-1.9 1,-15.2 1,-22.2 -4,-36.1 -36,-167.5 -36,-167.5 l -4,2.4 27,142.6 z"
           inkscape:connector-curvature="0" />
        <path
           id="path4581"
           d="m 1078,786.9 1,-134.8 -6,2 -9,141.3 c 0,0 0,19 7,28 0,0.5 5,9.1 9,9.6 3,-1.4 5,-14.6 6,-21.6 3,-36.2 -3,-171.3 -3,-171.3 l -4,1.6 -1,145.2 z"
           inkscape:connector-curvature="0" />
        <path
           id="path4583"
           d="m 1054,787.6 11,-134.3 -6,1.5 -19,140.3 c 0,0 -1,18.9 5,28.4 0,0.5 4,9.5 8,10.3 3,-1.2 6,-14.2 7,-21.1 6,-35.9 10,-171.1 10,-171.1 l -4,1.4 -12,144.6 z"
           inkscape:connector-curvature="0" />
        <path
           id="path4585"
           d="m 1032,786 11,-96.6 -6,1.1 -19,100.9 c 0,0 -1,13.6 5,20.4 0,0.4 5,6.9 8,7.4 3,-0.8 6,-10.2 7,-15.1 6,-25.9 10,-123.1 10,-123.1 l -4,1 -12,104 z"
           inkscape:connector-curvature="0" />
      </g>
    </g>
  </g>
  <g
     id="g4740"
     transform="translate(623.73254,620.74952)">
    <g
       id="g3924">
      <path
         id="f"
         d="m 169.5,958.8 24.8,-494 M 105.9,912.4 182.3,449.2 M 51.5,882.4 168.3,437.2 M 4.7,820 150.2,422.8 m -193.1,352.4 162,-344 m 67.2,24.8 -51.6,515.6 c -8.4,43.4 39.2,58.4 66,31.4 V 462 M 175.5,446 70.3,928 c -7.6,37.2 30.4,62.4 57.2,35.2 L 187.1,462 M 160.3,429.2 17.9,878.8 c -3.6,46.4 12,56.8 47.2,48.4 L 175.9,443.6 m -40.8,-14.4 -165.6,404 c -1.6,30.8 6,56 44.8,43.6 l 146,-446 m -56,1.2 -185.2,353.6 c -1.6,30.8 10.4,56 49.2,43.6 L 129.5,442"
         inkscape:connector-curvature="0"
         style="fill:#ffffff;stroke:#000000;stroke-width:6" />
      <use
         id="use5172"
         xlink:href="#f"
         transform="matrix(-1,0,0,1,407.8,0)"
         height="414.10001"
         width="416.60001"
         y="0"
         x="0" />
    </g>
  </g>
  <path
     id="path4049"
     d="m 512.73254,1025.0495 256.3,10 -32,40 46.3,-13 85.8,-3 47.2,12 -24.1,-42 253.09986,-24 -5,-64.69998 c 0,0 -28,-65.3 -76,-66.1 -48,-0.9 -405.39986,-33.5 -405.39986,-33.5 0,0 -64.4,32.6 -77.2,35.2 -12.9,2.6 -61,27.5 -63.5,71.2 l -5.5,77.89998 z"
     inkscape:connector-curvature="0"
     style="fill:#e2b20f;stroke:#000000;stroke-width:11" />
  <path
     id="path4045"
     d="m 622.53254,971.74952 19.4,-12.7 -40,-14 52.8,-12.1 h -22.5 l -12.7,-9.1 3,-18.2 40.6,5.4 18.2,-25.5 -13.9,-10.3 15.2,-13.9 5.4,16.3 21.3,24.9 -18.9,19.4 -19.4,-18.8 -3,8.5 23.7,10.9 -17.6,12.2 -3.7,6.1 -34,1.2 35.2,-2.5 10.4,9.1 29.1,-0.6 1.2,12.2 -29.1,-4.3 -15.8,7.3 -44.9,8.5 z"
     inkscape:connector-curvature="0"
     style="fill:none;stroke:#000000;stroke-width:3" />
  <g
     id="g145"
     transform="translate(-2.6674549,0.04951872)">
    <path
       id="path4043"
       d="M 613.3,721.6 C 489.7,591.2 496.6,393.7 621.9,294.2 l 50.4,-0.8 M 1042,722.5 c 123,-130.4 117,-327.9 -9,-427.4 l -35.9,-1.7"
       inkscape:connector-curvature="0"
       style="fill:#f9f9f9;stroke:#000000;stroke-width:9" />
    <path
       id="path4200"
       d="m 1090,484.8 c -1,-0.7 -48,-83.6 -48,-83.6 l 15,-6.3 2,-6.1 -23,-9.1 21,-4.8 -37,-13.2 27,-2.2 -30,-10.3 23,-0.3 -22,-11.4 13,-0.2 -15,-10.8 9,-5.6 -26.4,-11.7 19.4,-1.2 -28.5,-16.3 -16,1 c 0,0 20.5,28.4 15.1,40 l -32.7,-26.4 c 6.8,8 33.5,46.2 33.5,46.2 0,0 -23.9,-27.3 -39.5,-35.3 8,15.5 13.6,34 23.6,48 -14.4,-7.5 -21.6,-22 -35.6,-30 8.8,15 19.2,35 30.8,47.5 -14.8,-6.5 -26.8,-23 -38.4,-34 3.2,19 11.2,36 22,50.4 -20,-5.4 -22.4,-29.4 -34,-44.9 4,20.5 7.6,46.5 18,64.9 -14,-12.8 -18,-35.4 -28.4,-50.9 0,22.5 1.2,38.9 10.4,58.5 -10.8,-14 -22.4,-42.6 -24.4,-59.2 3.6,15.5 5.6,49.2 15.6,64.8 -14,-15.2 -26.4,-33.8 -31.2,-53.4 -4.8,24.6 8.4,47.4 14.4,71 -9.2,-19.2 -16.8,-38.8 -22.4,-59.2 -2,14 0.8,34.8 0.8,34.8 3,7 39.4,69.3 70.6,100.5 l 24.1,55.2 c 15.9,28.3 17.3,168 13.9,208.1 l 41.3,40.1 c -11,-51.7 33,-128.7 42,-140.1 l -8,-12.5 c 0,0 13,3.7 13,3.7 l -5,-14 16,2.8 -16,-21.6 22,10 -16,-23.2 22,12 c 0,0 -14,-27.2 -14,-27.2 l 21,17.2 c 0,0 -19,-36 -19,-36 l 23,14 -22,-34.8 25,13.6 c 0,0 -18,-24.8 -26,-38 7,5.2 22,15.2 22,15.2 0,0 -19,-26 -23,-41.6 9,8.4 17,17.6 25,26 -8,-14.4 -24,-44.4 -24,-44.4 l 20,16.4 c 0,0 -8,-18.1 -15,-30.1 7,6.4 10,6.9 17,12.9 -4,-14.4 -10,-24.2 -11,-24.9 z m -48,-83.6 C 999.5,442.7 956.1,481.9 941.7,526 m 65.3,277 c 0,0 7,0.6 7,-2.1 0,-2.7 -6,-4.3 -6,-7.1 0,-2.8 5,-3.1 5,-3.1 0,0 -5,0.3 -5,3.1 0,2.8 6,4.4 6,7.1 0,2.7 -7,2.1 -7,2.1 z M 758.7,442.6 v 10.1 l 5.6,-9.3 -5.6,9.6 7.3,7.5 -7.3,-7.3 v 7 m -132.5,-114.4 21.9,-8.7 -17.5,-2.9 27,-7 -16.5,-3.5 28.4,-9 -19.1,-2 29.7,-9.2 3.4,-4 -13.2,37.4 c 14.4,-11.6 28.8,-23.6 46.4,-30.6 -10,14.6 -22.8,27 -33.6,40.5 14.8,-6.9 29.6,-14.9 44.4,-22.9 -9.6,15 -20.8,28.1 -33.2,40.9 14.8,-6.4 28,-16 40.4,-25.9 -5.2,17.9 -18,31.1 -30,43.9 20,-4 30,-22.8 39.6,-38.4 -1.6,20 -12,36.8 -20.8,54.4 12.4,-11.6 21.2,-25.6 33.2,-37.6 -2.4,16.8 -8.8,31.2 -14.4,46.7 8.4,-10.7 15.2,-21.5 23.2,-31.9 -3.6,16.4 -8,32.3 -11.2,48.7 11.2,-16.4 21.2,-34.3 22,-54.3 1.2,0 3.2,0.4 4.4,0.4 2,23.2 -2.8,46.3 -10,67.9 7.6,-14 16,-28.8 18,-44.7 7.2,5.2 8.6,22.5 8.6,22.5 -15.9,35.7 -60.2,93.4 -79.5,116.2 -17.1,29.7 -18.9,40.1 -24,56.5 -9.8,24.8 -13.9,152.1 -10.4,192.2 l -39.9,38.1 c 10.2,-51.7 -25.6,-95 -34,-106.4 l 7.7,-10.9 -13.8,1.5 7.7,-13.7 c 0,0 -17.6,3.1 -17.6,3.1 0,0 16.9,-20.7 16.9,-20.7 l -23.3,9.1 16,-23.2 -22,12 c 0,0 14,-27.2 14,-27.2 l -20.8,17.2 18.8,-36 -23.2,14 c 0,0 22.4,-34.8 22.4,-34.8 0,0 -16.8,9.6 -24.8,13.6 8.4,-12.4 18,-24.8 26,-38 -7.6,5.2 -22,15.2 -22,15.2 0,0 18.8,-26 22.4,-41.6 -8.4,8.4 -16.8,17.6 -24.8,26 8,-14.4 16.8,-29.2 24.4,-44.4 l -20.4,16.4 19.2,-35.6 -21.2,18.4 15.6,-29.2 -14.4,9.2 22,-35.8 -18.9,14.2 16.7,-27 9.3,-45.4 -5,-0.5 9.9,-7.9 -15.7,-1.3 24.2,-14 -16.4,1.4 36.7,-42.2 3.8,-6.1 -12.7,-3.1 z"
       inkscape:connector-curvature="0"
       style="fill:#000000;stroke:#000000;stroke-width:1px;stroke-opacity:1" />
    <path
       id="path4037"
       d="m 1179,330.6 c -4,12.7 -88,154.5 -180.6,218.9 -11.9,2.2 -27.7,-10.9 -28.3,-11.4 C 969.6,537.6 959.5,513 961.3,506 1028,411.8 1166,334.5 1179,330.6 z"
       inkscape:connector-curvature="0"
       style="fill:#f4f4f4;stroke:#ffffff;stroke-width:27;stroke-linecap:round;stroke-linejoin:round" />
  </g>
  <path
     id="path4047"
     d="m 1035.3324,971.74952 -19,-12.7 40,-14 -53,-12.1 h 23 l 12,-9.1 -3,-18.2 -40.29986,5.4 -18.2,-25.5 12.2,-6.1 -15.2,-13.9 -1.9,13.3 -23,23.7 18.8,19.4 19.4,-18.8 3.1,8.5 -23.7,10.9 17.6,12.2 3.6,6.1 33.59986,1.2 -34.79986,-2.5 -10.3,9.1 -29.1,-0.6 -1.2,12.2 29.1,-4.3 15.8,7.3 44.49986,8.5 z"
     inkscape:connector-curvature="0"
     style="fill:none;stroke:#000000;stroke-width:3" />
  <g
     id="g3928"
     transform="matrix(-1,0,0,1,901.03254,741.74952)">
    <path
       id="path3930"
       d="M -67.73,-207.3 329.1,184.4"
       stroke-miterlimit="3.8"
       inkscape:connector-curvature="0"
       style="fill:none;stroke:#ffffff;stroke-width:55;stroke-miterlimit:3.79999995" />
    <path
       id="path3932"
       style="text-indent:0;text-transform:none;block-progression:tb;color:#000000;fill:#debf40;stroke:#000000;stroke-width:8"
       d="m -56.93,-207.3 -11.28,11.6 386.61,383.9 11.2,-11.5 -386.53,-384.1 v 0.1 z"
       inkscape:connector-curvature="0" />
  </g>
  <g
     id="g154"
     transform="translate(-2.6674549,0.04951872)">
    <ellipse
       id="path3650"
       rx="5.8720002"
       ry="4.0320001"
       transform="matrix(3.522,0,0,4,96.1,-8.17)"
       cy="15.61"
       cx="195.2"
       sodipodi:cx="195.2"
       sodipodi:cy="15.61"
       sodipodi:rx="5.8720002"
       sodipodi:ry="4.0320001"
       style="fill:#c5bea1"
       d="m 201.072,15.61 c 0,2.226812 -2.62899,4.032 -5.872,4.032 -3.24302,0 -5.872,-1.805188 -5.872,-4.032 0,-2.226812 2.62898,-4.032 5.872,-4.032 3.24301,0 5.872,1.805188 5.872,4.032 z" />
    <path
       id="path4915"
       d="m 543.5,317.9 c -24.8,2.7 -55.2,7.6 -71.2,28.4 -26.4,50.4 -16.8,120.8 33.2,153.2 19.6,3.2 12.4,-26.4 24,-37.2 7.2,-14 21.2,-20 34.8,-25.2 -42,-86.6 -17.2,-28.4 22.8,-26.4 0.8,0 -2.4,-14.8 12.8,-19 12.8,-12.2 37.2,-8.9 46,-22.6 -18,-32.9 -64.8,-53.2 -102.4,-51.2 z"
       inkscape:connector-curvature="0"
       style="fill:#ffffff;stroke:#ffffff;stroke-width:6.80000019;stroke-linecap:round;stroke-linejoin:round" />
    <ellipse
       id="path5174"
       rx="3.0369999"
       ry="2.375"
       transform="matrix(3.981,0,0,4.42,-0.2,-11.97)"
       cy="15.17"
       cx="195.3"
       sodipodi:cx="195.3"
       sodipodi:cy="15.17"
       sodipodi:rx="3.0369999"
       sodipodi:ry="2.375"
       style="fill:#e59c03;stroke:#715500;stroke-width:0.60000002;stroke-linecap:round;stroke-linejoin:round"
       d="m 198.337,15.17 c 0,1.311676 -1.35971,2.375 -3.037,2.375 -1.67729,0 -3.037,-1.063324 -3.037,-2.375 0,-1.311676 1.35971,-2.375 3.037,-2.375 1.67729,0 3.037,1.063324 3.037,2.375 z" />
  </g>
  <use
     id="use5061"
     xlink:href="##f8c933ff"
     transform="matrix(4,0,0,4,-1.1674549,-0.41998128)"
     height="414.10001"
     width="416.60001"
     y="0"
     x="0" />
  <use
     id="use5063"
     xlink:href="##f8c933ff"
     transform="matrix(4,0,0,4,-1.1674549,-0.41998128)"
     height="414.10001"
     width="416.60001"
     y="0"
     x="0" />
  <use
     id="use5065"
     xlink:href="##f8c933ff"
     transform="matrix(4,0,0,4,-1.1674549,-0.41998128)"
     height="414.10001"
     width="416.60001"
     y="0"
     x="0" />
  <g
     id="g162"
     style="fill:none;stroke:#000000;stroke-width:4px"
     transform="translate(-2.6674549,0.04951872)">
    <path
       id="path5117"
       d="m 811.9,131.1 c 0,0 19.2,26.3 20.8,49.1 1.2,22.8 -1.2,64.5 -1.2,64.5"
       inkscape:connector-curvature="0"
       style="stroke:#000000;fill:none;stroke-opacity:1" />
    <path
       id="path5119"
       d="m 823.9,123.2 c 0,1.9 18.8,30.7 23.2,61.9 4.4,31.3 6.4,86.8 6.4,86.8"
       inkscape:connector-curvature="0"
       style="stroke:#000000;fill:none;stroke-opacity:1" />
    <path
       id="path5121"
       d="m 835.9,83.53 c 0,0 23.6,4 33.2,63.97 10,60 12.4,105.1 12.4,105.1"
       inkscape:connector-curvature="0"
       style="stroke:#000000;fill:none;stroke-opacity:1" />
    <path
       id="path5123"
       d="m 831.5,62.23 c 0,0 24.4,11.4 47.2,63.87 22.8,52.6 24.8,106.6 24.8,106.6"
       inkscape:connector-curvature="0"
       style="stroke:#000000;fill:none;stroke-opacity:1" />
  </g>
  <g
     id="g168"
     transform="translate(-2.6674549,0.04951872)">
    <path
       id="path5125"
       d="m 682.1,46.43 c 0,0 55.1,-47.3 102.3,-45.9 52.1,1.5 104.3,50.5 120.1,97.4 14.4,28.07 35,70.47 57.7,135.77 11.5,32.9 41.8,58 41.8,58 l 34,-3.7 14,-17.4 -10,26.6 -67.5,-2.2 c 0,0 -14.1,-21.8 -23.8,-51 -10.2,-30.4 -54.5,-150.87 -54.5,-150.87 -8.4,-15.9 -32,-51.7 -72.7,-75.5 -27.2,-13 -65.8,-23.4 -141.4,28.8 z"
       inkscape:connector-curvature="0"
       style="stroke:#000000;fill:#000000;stroke-opacity:1" />
    <path
       id="path3648"
       d="m 784.3,96.33 -17.6,-20.8 c 0,0 -19.5,-8.82 -43.5,-12.14 -12.6,-18.01 -27,-24.16 -39.7,-23.04 -33.4,14.89 -54.5,37.57 -53.6,52.78 0,0 -2.8,18.57 8.4,33.97 l 14,-21.7 18.4,11.9 113.6,-20.97 z"
       inkscape:connector-curvature="0"
       style="fill:#eac930" />
    <ellipse
       id="path5176"
       rx="2.355"
       ry="2.355"
       transform="matrix(4,0,0,4,2.4,-2.27)"
       cy="13.93"
       cx="192.8"
       sodipodi:cx="192.8"
       sodipodi:cy="13.93"
       sodipodi:rx="2.355"
       sodipodi:ry="2.355"
       style="fill:url(#e)"
       d="m 195.155,13.93 c 0,1.300631 -1.05437,2.355 -2.355,2.355 -1.30063,0 -2.355,-1.054369 -2.355,-2.355 0,-1.30063 1.05437,-2.355 2.355,-2.355 1.30063,0 2.355,1.05437 2.355,2.355 z" />
    <path
       id="path4458"
       d="m 529.5,389.6 29.6,41.5 c -21.2,2 -42.8,27.6 -47.2,60.4 -79.2,-57.6 -28.8,-146.7 -28.8,-146.7 0,0 83.2,-57.5 157.2,23.1 -19.2,2.8 -56,15.4 -65.2,42 l -8,-1.4"
       inkscape:connector-curvature="0"
       style="fill:#949494;stroke:#000000;stroke-width:6.80000019;stroke-linecap:round;stroke-linejoin:round" />
    <path
       id="path4460"
       d="m 509.9,349.7 c 29.6,-31.2 86.4,-13.8 97.2,10.5 -20.8,-11.9 -67.6,-19.7 -97.2,-10.5 z"
       inkscape:connector-curvature="0"
       style="fill:#f4f4f4" />
  </g>
  <g
     id="g175"
     style="fill:none"
     transform="translate(-2.6674549,0.04951872)">
    <g
       id="g177"
       style="stroke-width:4px">
      <path
         id="path4928"
         d="m 792.7,27.63 c -19.2,0.9 -36.4,10.4 -49.2,23.5 m 148,75.77 C 883.5,103 867.1,81.53 850.3,63.03 837.5,50.63 822.7,39.23 806.7,30.43"
         inkscape:connector-curvature="0"
         style="stroke:#000000;fill:none;stroke-opacity:1" />
      <path
         id="path4930"
         d="m 723.9,36.73 c 0,0 35.2,-21.4 54.8,-21.8 25.2,-0.6 50,11 71.2,24.8 8,5.3 19.6,21.3 19.6,21.3"
         inkscape:connector-curvature="0"
         style="stroke:#000000;fill:none;stroke-opacity:1" />
      <path
         id="path4932"
         d="m 782.3,97.12 c -37.2,4.08 -92.4,13.98 -112.4,19.68 l -16,-10.7"
         inkscape:connector-curvature="0"
         style="stroke:#000000" />
    </g>
    <path
       id="path4936"
       d="m 649.1,86.33 c 0,0 10,-19.65 19.6,-25.8 9.6,-6.15 30.1,-14.67 30.1,-14.67 l 2,0.92 c -2.9,0 -17.6,6.28 -17.6,6.28"
       inkscape:connector-curvature="0"
       style="stroke:#403000;stroke-width:2.79999995" />
    <path
       id="path3638"
       d="m 721.5,108.7 c 24.4,16.4 32.4,47.6 32.4,75.6"
       inkscape:connector-curvature="0"
       style="stroke:#000000;stroke-width:4px;fill:none;stroke-opacity:1" />
  </g>
  <path
     id="path3642"
     d="m 670.03254,310.94952 -7.2,-16.2 c 26.8,-28.2 55.2,-69.1 67.6,-124.5 -2,-21.7 -2.4,-27.7 -33.2,-59.2 76.4,30.9 23.2,167.6 -27.2,199.9 z"
     inkscape:connector-curvature="0"
     style="stroke:#000000;stroke-width:4px;fill:#000000" />
  <g
     id="g185"
     style="fill:none"
     transform="translate(-2.6674549,0.04951872)">
    <path
       id="path3644"
       d="m 672.7,90.03 99.2,-7"
       inkscape:connector-curvature="0"
       style="stroke:#5e3c00;stroke-width:2" />
    <path
       id="path3646"
       d="m 688.7,66.13 -4,-0.16 -0.1,2.53 4.1,-2.37 z"
       inkscape:connector-curvature="0"
       style="stroke:#000000;stroke-width:2.79999995;stroke-linejoin:round" />
    <path
       id="path3654"
       d="m 699.6,88.76 c 0,0 21.6,1.73 32.4,3.52 10.2,1.71 28.2,5.53 28.2,5.53"
       inkscape:connector-curvature="0"
       style="stroke:#462e00;stroke-width:2" />
    <path
       id="path3656"
       d="m 781.9,97.03 c 0,0 -5.7,-12.61 -16.2,-22.5 -11.8,-3.19 -39.8,-11.2 -39.8,-11.2"
       inkscape:connector-curvature="0"
       style="stroke:#000000;stroke-width:1.60000002" />
  </g>
  <g
     id="g191"
     style="stroke:#000000;stroke-width:4"
     transform="translate(-2.6674549,0.04951872)">
    <path
       id="path4081"
       d="m 375,1239 c 0,0 -71.1,13 -77.2,22 0,0 51,8 53.4,26 2.5,19 -65.7,-12 -90.1,-9 -24.3,3 -70,22 -77.3,41 -7.3,19 11.6,-60 88.9,-95 -15.2,-24 -89.5,-21 -89.5,-21 0,0 41.5,-42 110.3,-36 l 1.1,93 0.3,-107 160.6,-12 55.8,19 c 22.6,17 39.6,41 37.8,53 -1.8,12 -175.3,25 -174.1,26 z"
       inkscape:connector-curvature="0"
       style="fill:url(#b);stroke:#000000;stroke-opacity:1" />
    <path
       id="path4935"
       d="m 1323,1286 v -45 l 72,16 -72,29 z"
       inkscape:connector-curvature="0"
       style="fill:#000000" />
    <path
       id="path4093"
       d="m 1301,1238 c 0,0 72,14 78,23 0,0 -51,7 -54,26 -2,19 66,-12 90,-9 25,3 70,22 78,41 7,18 -12,-61 -89,-96 15,-23 89,-21 89,-21 0,0 -41,-42 -110,-36 l -1,94 v -108 l -161,-12 -56,20 c -22,17 -39,40 -38,53 2,12 176,25 174,25 z"
       inkscape:connector-curvature="0"
       style="fill:url(#c);stroke:#000000;stroke-opacity:1" />
  </g>
  <g
     id="g4923"
     transform="translate(623.73254,620.74952)">
    <path
       id="path4920"
       d="m -187.2,820.6 c 32.3,3.8 45.1,-57.2 57.6,-96.8 L -245.2,744 c 6.3,45.6 42.2,74.7 58,76.6 z"
       inkscape:connector-curvature="0"
       style="fill:#000000;stroke:#000000;stroke-width:1px" />
    <path
       id="path4918"
       d="m -174.9,752.9 c 12.3,19.2 13.2,42.9 1.9,53.2 -11.3,10.3 -30.3,3 -42.7,-16.1 -12.3,-19.2 -30.3,-55.6 -19,-65.8 11.3,-10.3 47.4,9.6 59.8,28.7 z"
       inkscape:connector-curvature="0"
       style="fill:#fecf39" />
  </g>
  <g
     id="g4927"
     transform="matrix(-1,0,0,1,1047.3325,620.74952)">
    <path
       id="path4929"
       d="m -187.2,820.6 c 32.3,3.8 45.1,-57.2 57.6,-96.8 L -245.2,744 c 6.3,45.6 42.2,74.7 58,76.6 z"
       inkscape:connector-curvature="0"
       style="fill:#000000;stroke:#000000;stroke-width:1px" />
    <path
       id="path4931"
       d="m -174.9,752.9 c 12.3,19.2 13.2,42.9 1.9,53.2 -11.3,10.3 -30.3,3 -42.7,-16.1 -12.3,-19.2 -30.3,-55.6 -19,-65.8 11.3,-10.3 47.4,9.6 59.8,28.7 z"
       inkscape:connector-curvature="0"
       style="fill:#fecf39" />
  </g>
  <use
     id="use3112"
     xlink:href="#n"
     transform="matrix(-1,0,0,1,1660.6649,0)"
     height="1656"
     width="1666"
     y="0"
     x="0" />
  <path
     id="path4012"
     d="m 470.13254,1162.0495 -59.6,-76 c 84.2,-78 214.6,-131.79998 351.3,-124.79998 l -1.4,89.79998 c -135.3,-5 -236.3,60 -290.3,111 z"
     inkscape:connector-curvature="0"
     style="fill:#ffffff;stroke:#000000;stroke-width:9" />
  <path
     id="path4006"
     d="m 557.33254,911.84952 29.7,32.8 -122,105.39998 -14.9,-9 107.2,-129.19998 z"
     inkscape:connector-curvature="0"
     style="fill:#1d1d1d;stroke:#ffffff;stroke-width:17;stroke-linejoin:round" />
  <g
     id="n"
     style="stroke:#000000"
     transform="translate(-2.6674549,0.04951872)">
    <g
       id="g4209"
       transform="matrix(-1,0,0,1,1039,620.1)">
      <path
         id="path4211"
         d="m -22.38,458.9 c 0,0 20.658,29.2 -3.45,51.6 -24.1,22.4 -109.67,26.2 -145.87,46.9 -36.2,20.7 -53.9,37.5 -53.9,37.5 l 15.5,10.3 -13.3,11.2 -15.9,-6 v -31 c 0,0 -10.4,13.8 -20.7,8.6 -10.3,-5.2 -18.9,-18.9 -32.7,-31 -13.8,-12 -18.9,-12 -18.9,-12 7.1,-9.8 16.8,-20.8 8.6,-32.8 v -5.1 c 0,0 12,0 17.2,-10.4 5.1,-10.3 -0.1,-12.4 -0.1,-12.4 0,0 8.2,-7.9 20,-8.7 13.6,-0.9 18,10.8 18,10.8 0,0 15,29.7 32.2,31.4 17.3,1.8 34,-6.4 34,-6.4 l 159.32,-52.5 z"
         inkscape:connector-curvature="0"
         style="fill:#fdc238;stroke-width:9" />
      <g
         id="g4213"
         style="fill:none">
        <g
           id="g209"
           style="stroke-width:3">
          <path
             id="path4215"
             d="m -250.1,563.9 -46.1,-54.7"
             inkscape:connector-curvature="0" />
          <path
             id="path4217"
             d="m -244.5,553.6 -34.9,-59.9"
             inkscape:connector-curvature="0" />
          <path
             id="path4219"
             d="m -183.8,526.9 c 0,0 -1.5,5.8 -0.9,8.6 0.6,2.6 4.3,6.9 4.3,6.9"
             inkscape:connector-curvature="0" />
          <path
             id="path4221"
             d="m -202.7,531.6 c 0,0 -1.5,5.8 -0.9,8.6 0.6,2.6 4.3,6.9 4.3,6.9"
             inkscape:connector-curvature="0" />
          <path
             id="path4223"
             d="m -296.3,544.3 c 0,0 5.2,-3 6.8,-5.3 1.5,-2.3 2,-7.9 2,-7.9"
             inkscape:connector-curvature="0" />
          <path
             id="path4225"
             d="m -286.4,552.9 c 0,0 5.2,-3 6.8,-5.3 1.5,-2.3 2,-7.9 2,-7.9"
             inkscape:connector-curvature="0" />
          <path
             id="path4227"
             d="m -273.9,563.2 c 0,0 5.2,-3 6.8,-5.3 1.5,-2.3 2,-7.9 2,-7.9"
             inkscape:connector-curvature="0" />
          <path
             id="path4229"
             d="m -261.8,509 c 0,0 5.2,-3 6.8,-5.3 1.5,-2.3 2,-7.9 2,-7.9"
             inkscape:connector-curvature="0" />
          <path
             id="path4231"
             d="m -255.8,519.3 c 0,0 5.2,-3 6.8,-5.3 1.5,-2.3 2,-7.9 2,-7.9"
             inkscape:connector-curvature="0" />
          <path
             id="path4233"
             d="m -298.4,508.1 c 0,0 5.2,-3 6.8,-5.3 1.5,-2.3 2,-7.9 2,-7.9"
             inkscape:connector-curvature="0" />
          <path
             id="path4235"
             d="m -285.9,517.6 c 0,0 5.2,-3 6.8,-5.3 1.5,-2.3 2,-7.9 2,-7.9"
             inkscape:connector-curvature="0" />
          <path
             id="path4237"
             d="m -277.7,529.2 c 0,0 5.2,-3 6.8,-5.3 1.5,-2.3 2,-7.9 2,-7.9"
             inkscape:connector-curvature="0" />
        </g>
        <path
           id="path4239"
           d="m -47.59,497.8 c 0,0 9.42,-6.3 11.49,-11.2 2.23,-5.3 -0.1,-17.2 -0.1,-17.2"
           inkscape:connector-curvature="0"
           style="stroke-width:5" />
      </g>
    </g>
    <path
       id="path4245"
       d="m 1340,1124 c -3,-1 -13,-4 -15,-14 0,0 13,-16 28,-16 16,1 19,28 19,28 0,0 -7,-11 -16,-11 -8,0 -16,13 -16,13 z"
       inkscape:connector-curvature="0"
       style="fill:#141414;stroke-width:1px" />
    <path
       id="path4247"
       d="m 1348,1156 c -3,-1 -10,-6 -10,-15 0,0 15,-11 28,-7 14,4 10,28 10,28 0,0 -3,-11 -11,-13 -8,-2 -17,7 -17,7 z"
       inkscape:connector-curvature="0"
       style="fill:#141414;stroke-width:0.88690001px" />
  </g>
  <g
     id="g3916"
     transform="translate(623.73254,620.74952)">
    <path
       id="path3875-5"
       d="M -62.67,-201.6 617.7,466"
       stroke-miterlimit="3.8"
       inkscape:connector-curvature="0"
       style="fill:none;stroke:#ffffff;stroke-width:55;stroke-miterlimit:3.79999995" />
    <path
       id="path3875"
       style="text-indent:0;text-transform:none;block-progression:tb;color:#000000;fill:#debf40;stroke:#000000;stroke-width:8"
       d="M -68.21,-195.7 612,471.8 623.2,460.3 -56.93,-207.4"
       inkscape:connector-curvature="0" />
  </g>
  <g
     id="g229"
     transform="translate(-2.6674549,0.04951872)">
    <path
       id="path4014"
       d="m 1195,1161 60,-76 C 1171,1008 1040,953.5 903.4,960.5 l 1.4,89.5 c 135.2,-5 236.2,61 290.2,111 z"
       inkscape:connector-curvature="0"
       style="fill:#ffffff;stroke:#000000;stroke-width:9" />
    <path
       id="path3934"
       d="m 853.3,44.83 c 0,0 24.4,11.4 47.2,63.87 22.8,52.6 40.2,103.6 40.2,103.6"
       inkscape:connector-curvature="0"
       style="fill:none;stroke:#000000;stroke-width:4px" />
    <ellipse
       id="path3965"
       rx="9.4209995"
       ry="14.38"
       transform="matrix(0.9982,-0.9387,0.9723,0.9614,327.6,563.6)"
       cy="318.39999"
       cx="-64.959999"
       sodipodi:cx="-64.959999"
       sodipodi:cy="318.39999"
       sodipodi:rx="9.4209995"
       sodipodi:ry="14.38"
       style="fill:#9d9d9d;stroke:#000000;stroke-width:2.1803;stroke-linecap:round;stroke-linejoin:round"
       d="m -55.539,318.39999 c 0,7.94186 -4.217925,14.38 -9.420999,14.38 -5.203074,0 -9.421,-6.43814 -9.421,-14.38 0,-7.94185 4.217926,-14.38 9.421,-14.38 5.203074,0 9.420999,6.43815 9.420999,14.38 z" />
  </g>
  <g
     id="g4026"
     transform="matrix(0.9998,-0.0191,0.0191,0.9998,624.73254,630.14952)">
    <g
       id="g3960">
      <path
         id="path4458-9"
         d="m 370.9,-75.96 c -11.9,1.98 -26.6,-8.8 -26.6,-8.8 L 555.8,-288.7 c -4.2,12.6 -91.1,150.1 -184.9,212.74 z"
         inkscape:connector-curvature="0"
         style="fill:#949494;stroke:#000000;stroke-width:7.08659983;stroke-linecap:round;stroke-linejoin:round" />
    </g>
    <path
       id="path3958"
       d="m 334.5,-113.1 c -2,6.9 8.7,27.34 8.7,27.34 L 554.6,-289.2 c -12.8,3.7 -151.6,83.1 -220.1,176.1 z"
       inkscape:connector-curvature="0"
       style="fill:#f4f4f4;stroke:#000000;stroke-width:7.08659983;stroke-linecap:round;stroke-linejoin:round" />
  </g>
  <path
     id="path4934"
     d="m 740.43254,68.709519 c 0,0 -22.6,-4.9 -22.6,-4.9 0,0 -39.5,17.61 -52.6,25.47 -14.8,8.9 -28,37.670001 -28,37.670001 0,0 -15.6,-25.8 -8.8,-42.570001 6.8,-16.9 48,-50.1 64.8,-43.1 16.8,6.9 30,23.09 30,23.09"
     inkscape:connector-curvature="0"
     style="fill:none;stroke:#000000;stroke-width:3.20000005" />
  <path
     id="rect4942"
     d="m 364.73254,1248.0495 c 206.5,-43 688.59986,-65 943.59986,-1 l -27,138 c -261,-83 -689.69986,-56 -898.99986,3 l -17.6,-140 z"
     inkscape:connector-curvature="0"
     style="fill:#ffc536;stroke:#000000;stroke-width:10;stroke-linecap:round;stroke-linejoin:round" />
  <path
     id="path4986"
     d="m 413.33254,1345.0495 c 227,-37 593.99986,-35 837.99986,2"
     inkscape:connector-curvature="0"
     style="fill:none;stroke:#ffc435;stroke-width:1px" />
  <path
     id="path4988"
     d="m 473.33254,1136.0495 c 68,-64 158.3,-99 257.2,-100"
     inkscape:connector-curvature="0"
     style="fill:none;stroke:#ffffff;stroke-width:1px" />
  <path
     id="path4998"
     d="m 612.53254,1147.0495 c 167,63 331.8,38 436.79986,-1"
     inkscape:connector-curvature="0"
     style="fill:none;stroke:#ffffff;stroke-width:1px" />
  <g
     id="g4979"
     transform="matrix(5,0,0,5,40.332546,-24.220481)"
     style="stroke:#000000;stroke-width:4">
    <path
       id="path4981"
       d="m 157.7,226.6 c 13.9,-27.1 28.1,-23.6 28.1,-75.1 0,-51.4 -9.1,-30 -28.1,-75.02 -19,45.02 -28.1,23.62 -28.1,75.02 0,51.5 14.2,48 28.1,75.1 z"
       inkscape:connector-curvature="0"
       style="fill:#f6c82b;stroke:#000000;stroke-width:4" />
  </g>
  <g
     id="g3074"
     transform="translate(-2.6674549,0.04951872)">
    <g
       id="g254">
      <g
         id="g3920"
         transform="matrix(5,0,0,5,43.3,-24.27)"
         style="stroke:#ffffff;stroke-width:3">
        <path
           id="path3922"
           d="m 157.7,226.6 c 13.9,-27.1 28.1,-23.6 28.1,-75.1 0,-51.4 -9.1,-30 -28.1,-75.02 -19,45.02 -28.1,23.62 -28.1,75.02 0,51.5 14.2,48 28.1,75.1 z"
           inkscape:connector-curvature="0"
           style="fill:#f6c82b;stroke:#ffffff;stroke-width:3" />
      </g>
      <g
         id="g3782"
         transform="matrix(5,0,0,5,43.3,-24.27)"
         style="stroke:#000000;stroke-width:0.34020001">
        <path
           id="path3784"
           d="m 157.7,226.6 c 13.9,-27.1 28.1,-23.6 28.1,-75.1 0,-51.4 -9.1,-30 -28.1,-75.02 -19,45.02 -28.1,23.62 -28.1,75.02 0,51.5 14.2,48 28.1,75.1 z"
           inkscape:connector-curvature="0"
           style="fill:#f6c82b;stroke:#000000;stroke-width:0.34020001" />
      </g>
      <ellipse
         id="l"
         d="m 211.05599,125 c 0,3.00112 -1.41299,5.434 -3.156,5.434 -1.74301,0 -3.156,-2.43288 -3.156,-5.434 0,-3.00112 1.41299,-5.434 3.156,-5.434 1.74301,0 3.156,2.43288 3.156,5.434 z"
         cx="207.89999"
         cy="125"
         rx="3.1559999"
         transform="matrix(4.548,0,0,4.548,-112.3,-68.87)"
         ry="5.434"
         sodipodi:cx="207.89999"
         sodipodi:cy="125"
         sodipodi:rx="3.1559999"
         sodipodi:ry="5.434" />
    </g>
    <use
       id="use3630"
       xlink:href="#l"
       transform="matrix(1.068,0,0,1.068,-56.7,412.1)"
       height="414.10001"
       width="416.60001"
       y="0"
       x="0" />
    <path
       id="k"
       d="M 832.7,1110 V 787.9"
       inkscape:connector-curvature="0"
       style="fill:none;stroke:#000000;stroke-width:6.4000001" />
    <ellipse
       id="path4010"
       d="m 215.32,-325.70001 c 0,13.94519 -4.70996,25.25 -10.52,25.25 -5.81003,0 -10.52,-11.30481 -10.52,-25.25 0,-13.94519 4.70997,-25.25 10.52,-25.25 5.81004,0 10.52,11.30481 10.52,25.25 z"
       cx="204.8"
       cy="-325.70001"
       rx="10.52"
       transform="translate(627.8,620.7)"
       ry="25.25"
       sodipodi:cx="204.8"
       sodipodi:cy="-325.70001"
       sodipodi:rx="10.52"
       sodipodi:ry="25.25"
       style="fill:url(#d);stroke:#000000;stroke-linecap:round;stroke-linejoin:round" />
    <use
       id="use3636"
       xlink:href="#k"
       transform="translate(-1.1,-469.6)"
       height="414.10001"
       width="416.60001"
       y="0"
       x="0" />
    <ellipse
       id="path78"
       d="m 213.56001,179 c 0,5.90945 -2.66839,10.7 -5.96,10.7 -3.29162,0 -5.96,-4.79055 -5.96,-10.7 0,-5.90945 2.66838,-10.7 5.96,-10.7 3.29161,0 5.96,4.79055 5.96,10.7 z"
       cx="207.60001"
       cy="179"
       rx="5.96"
       transform="matrix(7.617,0,0,7.446,-749.6,-618.3)"
       ry="10.7"
       sodipodi:cx="207.60001"
       sodipodi:cy="179"
       sodipodi:rx="5.96"
       sodipodi:ry="10.7"
       style="fill:#010305" />
    <g
       id="g266"
       style="fill:#ffffff">
      <path
         id="path3658"
         style="text-indent:0;text-transform:none;block-progression:tb;color:#000000;stroke:#000000;stroke-width:1.39999998"
         d="m 834.9,315.1 v 159.6 1.6 l 1.6,0.4 c 2,0.4 4.4,3.2 5.6,7.6 1.6,4.4 2.4,10 2.4,16 0,5.6 -0.8,11.2 -2.4,15.6 -1.2,4.4 -3.4,6.4 -5.6,7.6 l -1.6,0.4 v 1.6 395.6 1.6 l 1.6,0.4 c 2,0.4 4,3.2 5.6,7.2 1.6,4 2.4,9.2 2.4,14.8 0,5.2 -1.2,10.8 -2.4,14.8 -1.6,4 -3.6,6.4 -5.6,6.8 l -1.6,0.4 v 1.6 140.3 h 4 V 969.5 c 3.2,-1.6 5.6,-4.4 6.8,-8.4 1.6,-4.8 2.8,-10.4 2.8,-16 0,-6 -0.8,-11.6 -2.8,-16.4 -1.2,-4 -3.6,-6.8 -6.8,-8.4 v -394 c 3.2,-1.6 5.6,-4.8 7.2,-9.2 1.6,-4.8 2.4,-10.8 2.4,-16.8 0,-6.4 -0.8,-12.4 -2.4,-17.2 -1.6,-4.4 -4,-7.6 -7.2,-9.2 V 315.1 h -4 z"
         inkscape:connector-curvature="0" />
      <path
         id="path3963"
         style="text-indent:0;text-transform:none;block-progression:tb;color:#000000;stroke:#000000;stroke-width:1.39999998"
         d="m 829.5,315.1 v 159.6 1.6 l -1.6,0.4 c -2,0.4 -4.4,3.2 -5.6,7.6 -1.6,4.4 -2.4,10 -2.4,16 0,5.6 0.8,11.2 2.4,15.6 1,3 4.2,6.1 7.2,8 v 397.2 1.6 l -1.6,0.4 c -2,0.4 -4,3.2 -5.6,7.2 -1.6,4 -2.4,9.2 -2.4,14.8 0,5.2 1.2,10.8 2.4,14.8 1.6,4 3.6,6.4 5.6,6.8 l 1.6,0.4 v 1.6 140.3 h -4 V 969.5 c -3.2,-1.6 -5.6,-4.4 -6.8,-8.4 -1.6,-4.8 -2.8,-10.4 -2.8,-16 0,-6 0.8,-11.6 2.8,-16.4 1.2,-4 3.6,-6.8 6.8,-8.4 v -394 c -3.2,-1.6 -5.6,-4.8 -7.2,-9.2 -1.6,-4.8 -2.4,-10.8 -2.4,-16.8 0,-6.4 0.8,-12.4 2.4,-17.2 1.6,-4.4 4,-7.6 7.2,-9.2 V 315.1 h 4 z"
         inkscape:connector-curvature="0" />
      <ellipse
         id="path3867"
         d="m 213.56001,179 c 0,5.90945 -2.66839,10.7 -5.96,10.7 -3.29162,0 -5.96,-4.79055 -5.96,-10.7 0,-5.90945 2.66838,-10.7 5.96,-10.7 3.29161,0 5.96,4.79055 5.96,10.7 z"
         cx="207.60001"
         rx="5.96"
         cy="179"
         transform="matrix(6.743,0,0,6.592,-567.6,-465.3)"
         ry="10.7"
         sodipodi:cx="207.60001"
         sodipodi:cy="179"
         sodipodi:rx="5.96"
         sodipodi:ry="10.7" />
    </g>
    <g
       id="g271">
      <ellipse
         id="path3869"
         d="m 213.56001,179 c 0,5.90945 -2.66839,10.7 -5.96,10.7 -3.29162,0 -5.96,-4.79055 -5.96,-10.7 0,-5.90945 2.66838,-10.7 5.96,-10.7 3.29161,0 5.96,4.79055 5.96,10.7 z"
         cx="207.60001"
         cy="179"
         rx="5.96"
         transform="matrix(5.928,0,0,6.101,-398.6,-377)"
         ry="10.7"
         sodipodi:cx="207.60001"
         sodipodi:cy="179"
         sodipodi:rx="5.96"
         sodipodi:ry="10.7" />
      <ellipse
         id="path3871"
         d="m 213.56001,179 c 0,5.90945 -2.66839,10.7 -5.96,10.7 -3.29162,0 -5.96,-4.79055 -5.96,-10.7 0,-5.90945 2.66838,-10.7 5.96,-10.7 3.29161,0 5.96,4.79055 5.96,10.7 z"
         cx="207.60001"
         rx="5.96"
         cy="179"
         transform="matrix(4.832,0,0,5.249,-171,-224.5)"
         ry="10.7"
         sodipodi:cx="207.60001"
         sodipodi:cy="179"
         sodipodi:rx="5.96"
         sodipodi:ry="10.7"
         style="fill:#f6c82b" />
      <ellipse
         id="path3873"
         d="m 213.56001,179 c 0,5.90945 -2.66839,10.7 -5.96,10.7 -3.29162,0 -5.96,-4.79055 -5.96,-10.7 0,-5.90945 2.66838,-10.7 5.96,-10.7 3.29161,0 5.96,4.79055 5.96,10.7 z"
         cx="207.60001"
         cy="179"
         rx="5.96"
         transform="matrix(3.168,0,0,3.644,174.4,62.83)"
         ry="10.7"
         sodipodi:cx="207.60001"
         sodipodi:cy="179"
         sodipodi:rx="5.96"
         sodipodi:ry="10.7" />
    </g>
  </g>
  <path
     id="path4018"
     d="m 615.83254,1064.0495 -9.2,98 c 106.9,41 325.9,52 450.69986,-5 l -7,-88 c -122.99986,70 -354.49986,46 -434.49986,-5 z"
     inkscape:connector-curvature="0"
     style="fill:#ffffff;stroke:#000000;stroke-width:9" />
  <g
     id="g279"
     transform="translate(-2.6674549,0.04951872)">
    <path
       id="rect5055"
       d="m 1045,1056 22,8 -3,9 c -3,-1 -20,-7 -22,-8 l 3,-9 z"
       inkscape:connector-curvature="0"
       style="fill:#ffffff" />
    <path
       id="path5059"
       d="m 626.1,1051 -22,8 4.2,13 c 3.3,-1 20,-7 22.3,-8 l -4.5,-13 z"
       inkscape:connector-curvature="0"
       style="fill:#ffffff" />
    <g
       id="text3076"
       transform="translate(-1053,613.2)">
      <path
         id="path3093"
         d="m 1521,470 c -3,-3.8 -3,-4.9 1,-8.8 l -1,-1 -15,12.9 1,1 c 5,-3.4 6,-3.3 9,0.5 l 21,24.2 c 2,2.3 2,4 1,5.1 -1,0.7 -1,0.5 -3,-0.5 -2,-1.3 -4,-1.5 -5,-0.3 -1,1.2 -1,3.4 0,4.8 2,2.2 5,1.9 8,-0.7 6,-4.9 6,-11.4 0,-17.9 L 1521,470"
         inkscape:connector-curvature="0" />
      <path
         id="path3095"
         d="m 1566,440 c -4,-5.8 -4,-7.1 1,-10.9 l -1,-1.1 -13,9.1 v 1.1 c 5,-2.7 7,-2.1 11,3.6 l 10,15.3 c 3,3.8 4,6.3 4,8.6 1,3.8 -2,8 -6,11 -4,2.8 -8,3.3 -11,1.7 -2,-1.1 -4,-2.9 -7,-6.5 l -12,-18.1 c -3,-4.1 -3,-5.2 1,-8.7 V 444 l -16,11.1 v 1.1 c 5,-2.7 6,-2.5 9,1.6 l 12,17.7 c 7,9.8 15,11.3 25,4.6 6,-4.3 9,-9.2 8,-14.6 0,-3.3 -1,-6.3 -4,-10.7 L 1566,440"
         inkscape:connector-curvature="0" />
      <path
         id="path3097"
         d="m 1599,409.5 -1,0.7 c 0,1.5 0,2.5 -1,3.1 -1,0.3 -2,0.6 -3,0.7 -3,0.3 -6,1 -7,2 -3,1.3 -5,3.8 -6,6.6 -2,3 -1,6.2 0,9.3 3,4.9 7,7 16,7 6,0.1 10,0.9 13,2.5 1,0.5 2,1.6 3,3.1 2,4.1 0,8.5 -4,10.8 -6,2.8 -11,1.5 -18,-4.4 l -2,0.7 9,12 1,-0.7 c 0,-1.2 0,-2.4 1,-2.9 1,-0.3 2,-0.6 3,-0.8 3,-0.3 6,-1.1 8,-2.3 7,-3.7 10,-11.4 7,-17.7 -3,-5 -8,-7.2 -19,-7.4 -8,-0.2 -12,-1.5 -14,-4.9 -1,-3.3 0,-7 4,-9 3,-1.4 6,-1.6 9,-0.5 3,1 5,2.2 8,5.3 l 1,-0.8 -8,-12.4"
         inkscape:connector-curvature="0" />
      <path
         id="path3099"
         d="m 1628,401.2 13,32.2 c 2,5.5 1,6.5 -4,8.8 v 1.3 l 19,-7.2 v -1.2 c -6,1.8 -7,1.3 -9,-3.5 l -12,-32.9 3,-1.3 c 8,-2.8 10,-2.2 14,4.3 l 1,-0.6 -4,-10.8 -37,13.8 4,11.1 2,-0.6 c -1,-7.6 0,-9.4 7,-12.1 l 3,-1.3"
         inkscape:connector-curvature="0" />
      <path
         id="path3101"
         d="m 1672,423.5 c 2,5 1,6 -4,7.8 v 1.2 l 20,-5.4 -1,-1.3 c -5,1.3 -7,0.7 -8,-4.2 l -8,-29.5 c -1,-4.9 -1,-6 5,-7.8 l -1,-1.2 -19,5.4 v 1.3 c 6,-1.3 7,-0.7 8,4.2 l 8,29.5"
         inkscape:connector-curvature="0" />
      <path
         id="path3103"
         d="m 1725,388.3 -3,-15.3 -1,0.3 c 0,1.5 -1,2.5 -3,2.7 0,0.1 -1,0.1 -3,-0.1 -3,-0.5 -7,-0.5 -10,0.1 -5,1 -11,4.1 -14,8.5 -4,5.1 -6,11.9 -4,19.3 1,6.4 4,11.8 8,15.1 5,3.7 12,5.2 18,4 8,-1.3 14,-5.7 17,-11.9 l -1,-1 c -4,5.7 -8,8.5 -14,9.5 -4,0.8 -8,0.1 -12,-2 -4,-2.6 -7,-8.4 -9,-15.9 -2,-12.3 3,-21.4 13,-23.1 4,-0.7 8,0.1 11,2.3 2,1.8 4,3.6 6,7.7 l 1,-0.2"
         inkscape:connector-curvature="0" />
      <path
         id="path3105"
         d="m 1774,404.4 -2,0.1 c -3,7.7 -5,9.5 -15,10.1 l -2,0.1 c -3,0.2 -6,0 -7,-0.5 v -2.1 l -1,-17 10,-0.6 c 6,-0.3 7,0.5 8,6.2 l 2,-0.1 -1,-16 -2,0.1 c 0,2.8 0,3.9 -1,4.9 -1,1.2 -3,1.9 -6,2.1 l -11,0.6 -1,-15.3 c 0,-1.9 1,-2.4 3,-2.5 l 9,-0.5 c 8,-0.5 9,0.5 11,6.6 l 2,-0.1 -1,-9.8 -37,2.1 v 1.3 c 5,0.1 6,1 7,5.9 l 1,30.5 c 1,4.9 0,6 -5,6.6 v 1.3 l 37,-2.2 2,-11.8"
         inkscape:connector-curvature="0" />
    </g>
  </g>
  <g
     id="g3080"
     transform="translate(-2.6674549,0.04951872)">
    <path
       id="path3082"
       d="m 931.1,1028 c 129.9,12 168.9,31 268.9,102"
       inkscape:connector-curvature="0"
       style="fill:none;stroke:#ffffff;stroke-width:1px" />
    <g
       id="text3084">
      <path
         id="path3108"
         d="m 970.5,1020 c -1.4,3 -2.5,4 -3.6,5 -2.6,3 -6.4,3 -11.9,3 l -4.5,-1 c -4.8,0 -5.7,-1 -5.4,-3 l 3.4,-31.6 c 0.5,-4.7 1.5,-5.5 6.8,-5.3 l 0.2,-1.3 -18.8,-2 -0.2,1.3 c 4.9,0.9 5.7,1.9 5.2,6.6 l -3.2,29.3 c -0.5,5 -1.5,6 -6.4,6 l -0.2,1 35.9,4 4.4,-11 -1.7,-1"
         inkscape:connector-curvature="0" />
      <path
         id="path3110"
         d="m 980.4,1026 c -0.7,5 -1.7,6 -7.3,5 l -0.2,1 19.7,3 0.2,-1 c -5.4,-1 -6.4,-2 -5.7,-7 l 4.2,-29.4 c 0.7,-4.8 1.7,-5.5 7.3,-5 l 0.2,-1.3 -19.7,-2.8 -0.2,1.3 c 5.6,1.1 6.3,2 5.6,6.9 l -4.1,29.3"
         inkscape:connector-curvature="0" />
      <path
         id="path3112"
         d="m 1004,991.7 -1,1.3 c 6,1.4 7,2.3 6,7 l -6,29 c -1,5 -2,6 -7.8,5 l -0.3,1 22.1,5 c 5,1 10,0 13,-2 3,-1 5,-4 5,-7 1,-3 0,-6 -2,-8 -1,-2 -3,-3 -7,-5 4,0 5,-1 7,-2 2,-1 4,-3 4,-6 2,-7 -4,-12.3 -15,-14.6 l -18,-3.7 m 8,24.3 c 7,2 10,3 12,4 3,2 4,5 4,10 -1,3 -3,5 -6,6 -2,1 -5,1 -9,0 -4,0 -4,-1 -4,-3 l 3,-17 m 1,-2 3,-15.3 c 0,-1.3 1,-1.8 2,-1.6 l 3,0.5 c 7,1.6 10,5.4 9,11.4 -1,5 -5,7 -11,6 l -6,-1"
         inkscape:connector-curvature="0" />
      <path
         id="path3114"
         d="m 1079,1045 h -1 c -6,5 -9,6 -18,3 h -2 c -3,-1 -6,-3 -6,-3 v -2 l 5,-16 10,3 c 5,2 6,3 5,8 l 2,1 4,-15 h -1 c -1,2 -2,3 -3,4 -1,0 -3,0 -6,-1 l -10,-3 5,-14 c 0,-2 1,-2 2,-1 l 9,2 c 7,3 8,4 8,10 l 1,1 3,-9 -34,-11 v 1 c 4,2 5,3 3,7 l -9,29 c -1,4 -2,5 -7,4 v 1 l 34,11 6,-10"
         inkscape:connector-curvature="0" />
      <path
         id="path3116"
         d="m 1117,1074 c -2,-1 -3,-3 -4,-5 l -5,-22 c 5,1 7,2 10,1 2,-1 5,-3 6,-6 1,-2 1,-5 1,-7 -1,-4 -6,-8 -11,-11 l -17,-7 -1,1 c 5,2 5,3 3,8 l -13,26 c -2,5 -3,5 -8,3 v 2 l 17,8 v -2 c -4,-2 -5,-3 -3,-8 l 6,-12 3,2 6,25 10,5 v -1 m -11,-48 c 1,-1 2,-2 4,0 8,3 10,7 7,13 -1,3 -4,5 -6,5 -4,0 -6,0 -12,-3 l 7,-15"
         inkscape:connector-curvature="0" />
      <path
         id="path3118"
         d="m 1153,1049 -17,29 c -3,4 -4,5 -9,2 l -1,1 17,10 1,-1 c -5,-3 -5,-4 -3,-8 l 18,-30 3,2 c 7,4 7,6 5,13 l 1,1 6,-10 -33,-20 -6,10 2,1 c 5,-6 7,-6 13,-2 l 3,2"
         inkscape:connector-curvature="0" />
      <path
         id="path3120"
         d="m 1216,1087 -12,-8 -1,1 c 3,2 4,3 3,4 l -2,2 -17,7 v -18 c 0,-2 1,-3 1,-3 1,-1 2,-1 4,0 0,0 1,0 1,1 l 1,-1 -16,-11 v 1 c 2,2 2,3 3,15 v 16 l -7,9 c -3,5 -4,5 -9,2 l -1,1 17,12 1,-2 c -5,-3 -5,-4 -3,-8 l 8,-11 16,-7 c 7,-3 9,-3 12,-1 l 1,-1"
         inkscape:connector-curvature="0" />
    </g>
  </g>
  <g
     id="text3088"
     transform="translate(-1029.6675,608.34952)">
    <path
       id="path3123"
       d="m 1675,519.5 c 2,0.7 3,1.1 5,1.7 5,1.7 9,2.2 12,1.6 5,-0.8 8,-4 10,-8.3 1,-2.7 1,-5.5 0,-8 -2,-3.8 -7,-7.5 -13,-9.6 l -18,-5.8 v 1.2 c 5,2.2 5,3.1 4,7.8 l -10,28.3 c -2,5.5 -3,6 -8,4.8 v 1.2 l 18,6.2 1,-1.3 c -5,-1.9 -6,-3.2 -5,-7.9 l 4,-11.9 m 7,-19.7 c 1,-1.7 1,-2 3,-1.4 9,2.9 12,7.4 10,14.1 -2,6.3 -7,8.3 -15,5.8 -1,-0.4 -2,-0.8 -4,-1.5 l 6,-17"
       inkscape:connector-curvature="0" />
    <path
       id="path3125"
       d="m 1737,556 c -3,-0.8 -4,-1.8 -5,-4.6 l -10,-20.3 c 5,0.2 7,-0.1 10,-1.3 2,-1.3 4,-3.8 5,-6.9 1,-2.9 0,-5.6 -1,-8 -2,-3.3 -7,-6.4 -13,-8 l -19,-4.6 v 1.3 c 5,1.8 5,2.7 4,7.4 l -7,29 c -1,5.6 -2,6.2 -7,5.4 l -1,1.3 19,4.6 V 550 c -5,-1.6 -6,-2.7 -4,-7.5 l 3,-13.2 4,0.8 10,24.5 11,2.7 1,-1.3 m -21,-45.7 c 0,-1.9 1,-2.2 4,-1.6 8,2.1 11,6 10,12.3 -1,3.3 -3,5.8 -6,6.4 -4,1 -6,0.8 -13,-0.6 l 5,-16.5"
       inkscape:connector-curvature="0" />
    <path
       id="path3127"
       d="m 1769,515.2 c -13,-2 -24,6.4 -26,20.1 -1,6.4 0,12.9 3,17.5 3,4.9 9,8.5 15,9.4 13,2.1 24,-6 26,-19.7 1,-6.7 0,-12.8 -3,-17.5 -3,-5.4 -9,-8.7 -15,-9.8 m -1,2.5 c 3,0.5 6,2.2 9,4.8 3,3.9 4,10.6 3,18.7 -1,4.1 -3,8.6 -5,12 -1,1.6 -2,3.1 -4,4.4 -3,2 -6,2.8 -9,2.2 -4,-0.5 -6,-2.2 -8,-4.7 -4,-3.7 -5,-10.9 -4,-18.5 2,-6.9 5,-13.2 8,-16 3,-2.5 7,-3.5 10,-2.9"
       inkscape:connector-curvature="0" />
    <path
       id="path3129"
       d="m 1821,520.9 -2,-0.2 c 0,1.6 -1,2.3 -2,2.2 -1,-0.1 -2,-0.4 -3,-1.1 -3,-1.1 -5,-1.9 -7,-2.1 -3,-0.2 -7,0.7 -9,2.6 -3,1.9 -4,4.7 -4,8.3 -1,5.5 2,9.6 9,14.2 5,3 8,6.1 10,8.9 1,0.9 1,2.4 1,4.1 -1,4.6 -4,7.5 -9,7.1 -7,-0.5 -11,-4.7 -13,-13.3 l -2,-0.1 1,14.7 1,0.1 c 1,-1.3 2,-2.2 3,-2.1 0,0.1 1,0.4 3,1 2,1.3 5,2 8,2.2 8,0.7 14,-4.3 15,-11.4 0,-5.6 -3,-10.4 -12,-16 -7,-4.5 -9,-7.8 -9,-11.5 0,-3.8 3,-6.2 8,-5.8 3,0.2 5,1.7 8,4.4 2,2.4 2,4.2 3,8.4 l 2,0.1 v -14.7"
       inkscape:connector-curvature="0" />
    <path
       id="path3131"
       d="m 1839,548.1 c 1,0.2 3,0.2 4,0.3 6,0.1 9,-0.5 12,-2.2 5,-2.1 7,-6.3 7,-10.8 0,-2.9 -1,-5.5 -2,-7.6 -3,-3.1 -9,-5.1 -16,-5.2 l -18,-0.3 v 1.3 c 5,0.6 6,1.3 6,6.3 l -1,29.9 c 0,5.8 0,6.4 -6,6.8 v 1.3 l 20,0.4 V 567 c -6,-0.3 -7,-1.3 -7,-6.4 l 1,-12.5 m 0,-20.7 c 0,-1.9 0,-2.3 2,-2.3 10,0.2 14,3.5 14,10.6 0,6.7 -5,10 -12,9.9 -2,0 -3,-0.1 -4,-0.3 v -17.9"
       inkscape:connector-curvature="0" />
    <path
       id="path3133"
       d="m 1903,555.2 -2,0.1 c -3,7.6 -6,9.4 -16,9.8 l -1,0.1 c -4,0.1 -7,-0.1 -7,-0.6 -1,-0.2 -1,-0.9 -1,-2.1 l -1,-17 11,-0.5 c 6,-0.2 7,0.6 8,6.3 h 1 v -16 h -2 c 0,2.9 0,3.9 -1,4.9 -1,1.2 -3,1.9 -6,2 l -11,0.5 v -15.3 c 0,-2 0,-2.4 2,-2.5 l 9,-0.4 c 8,-0.3 9,0.7 11,6.8 l 2,-0.1 -1,-9.8 -37,1.6 v 1.3 c 6,0.2 7,1.1 7,5.9 l 1,30.6 c 0,4.9 -1,5.9 -6,6.5 v 1.3 l 38,-1.6 2,-11.8"
       inkscape:connector-curvature="0" />
    <path
       id="path3135"
       d="m 1950,560.7 c -3,0.1 -4,-0.4 -7,-2.5 l -16,-15.9 c 5,-1.4 7,-2.4 9,-4.5 2,-2 3,-5.1 3,-8.3 -1,-2.9 -2,-5.4 -4,-7.2 -3,-2.5 -9,-3.7 -15,-3 l -19,2 v 1.3 c 5,0 6,0.7 7,5.6 l 3,29.7 c 0,5.7 0,6.6 -5,7.5 v 1.3 l 19,-2 v -1.3 c -6,0.2 -7,-0.6 -7,-5.5 l -2,-13.5 4,-0.6 19,19.4 11,-1.1 v -1.4 M 1914,525 c 0,-2 1,-2.6 4,-2.9 8,-0.9 13,1.6 13,8.1 1,3.4 -1,6.4 -3,8 -3,2.1 -5,2.8 -12,3.6 l -2,-16.8"
       inkscape:connector-curvature="0" />
    <path
       id="path3137"
       d="m 1957,553.1 c 1,5.1 0,6 -5,7.1 v 1.3 l 20,-3.1 v -1.3 c -6,0.7 -7,-0.1 -8,-5.1 l -5,-30.3 c 0,-5 1,-6 6,-7.2 v -1.2 l -20,3.1 v 1.3 c 6,-0.6 7,0 8,5.1 l 4,30.3"
       inkscape:connector-curvature="0" />
    <path
       id="path3139"
       d="m 1982,513 7,33.9 c 1,5.7 0,6.6 -5,8.1 v 1.3 l 20,-4 v -1.2 c -6,0.8 -7,0.1 -8,-4.8 l -7,-34.6 4,-0.7 c 7,-1.6 9,-0.7 12,6.5 l 2,-0.3 -3,-11.5 -38,7.6 2,11.6 1,-0.3 c 1,-7.7 2,-9.3 9,-10.8 l 4,-0.8"
       inkscape:connector-curvature="0" />
    <path
       id="path3141"
       d="m 2050,493.8 -15,3.9 1,1.2 c 3,-0.8 4,-0.6 5,1 v 2.7 l -6,17.6 -14,-12.2 c -1,-0.9 -2,-1.9 -2,-2.6 0,-1.2 1,-2.1 3,-2.8 0,0 1,-0.2 2,-0.5 l -1,-1.2 -19,4.9 1,1.2 c 3,-0.7 4,0 13,7.7 l 12,10.5 4,11.6 c 1,5.8 1,6.6 -5,8.5 v 1.3 l 20,-5.4 V 540 c -6,1.4 -7,0.8 -8,-4.3 l -4,-12.9 6,-17.7 c 3,-6.9 4,-8.8 7,-10 v -1.3"
       inkscape:connector-curvature="0" />
  </g>
  <g
     id="text3105"
     transform="matrix(1.009,0,0,1.568,-1071.6675,152.14952)">
    <path
       id="path3111"
       d="m 1512,750.1 c -3,0.2 -4,-0.2 -6,-2 l -15,-13.4 c 4,-1.4 6,-2.4 8,-4.3 1,-1.9 2,-4.6 2,-7.4 -1,-2.6 -2,-4.7 -4,-6.3 -2,-2.1 -8,-2.9 -13,-2 l -17,2.5 v 1.1 c 5,-0.2 5,0.4 6,4.7 l 4,26.1 c 1,5 0,5.8 -4,6.9 v 1.1 l 17,-2.5 v -1.2 c -5,0.4 -6,-0.2 -7,-4.6 l -2,-11.9 4,-0.6 17,16.4 10,-1.4 v -1.2 m -33,-30.2 c 0,-1.7 0,-2.3 3,-2.7 7,-1.1 11,1 12,6.6 0,3.1 0,5.8 -2,7.3 -3,1.9 -5,2.6 -11,3.6 l -2,-14.8"
       inkscape:connector-curvature="0" />
    <path
       id="path3113"
       d="m 1547,736.5 -2,0.2 c -2,6.9 -4,8.7 -13,9.8 l -1,0.2 c -3,0.3 -6,0.4 -7,0 v -1.8 l -2,-15 9,-1.2 c 5,-0.6 6,0.1 8,5 l 1,-0.2 -2,-14 -1,0.2 c 0,2.5 0,3.4 -1,4.4 -1,1.1 -2,1.8 -5,2.2 l -9,1.1 -2,-13.4 c 0,-1.7 0,-2.1 2,-2.3 l 8,-1 c 7,-0.9 8,-0.2 10,5.2 l 1,-0.2 -1,-8.7 -32,4.1 v 1.1 c 5,-0.2 6,0.6 6,4.8 l 3,26.9 c 1,4.2 0,5.2 -4,6.1 v 1.1 l 33,-4.1 1,-10.5"
       inkscape:connector-curvature="0" />
    <path
       id="path3115"
       d="m 1560,727.7 c 1,-0.1 2,-0.1 4,-0.3 5,-0.5 8,-1.5 10,-3.2 4,-2.3 5,-6.2 5,-10.3 0,-2.5 -1,-4.7 -3,-6.3 -3,-2.4 -8,-3.6 -14,-2.9 l -16,1.7 v 1.1 c 5,0 5,0.6 6,4.9 l 3,26.3 c 0,5.1 0,5.7 -5,6.7 v 1.1 l 17,-1.8 v -1.1 c -5,0.3 -6,-0.5 -6,-4.9 l -1,-11 m -2,-18.2 c 0,-1.7 0,-2.1 2,-2.3 8,-0.9 12,1.6 12,7.8 1,5.9 -2,9.3 -9,10 -1,0.2 -2,0.2 -4,0.2 l -1,-15.7"
       inkscape:connector-curvature="0" />
    <path
       id="path3117"
       d="m 1617,708.5 c 0,-6.2 0,-7.3 5,-8.3 V 699 l -14,1.3 v 1.1 c 5,0 6,1.2 7,7.3 l 1,16.4 c 0,4.1 0,6.5 -1,8.4 -1,3 -5,5.3 -9,5.7 -5,0.3 -8,-0.9 -10,-3.6 -1,-1.8 -1,-4 -2,-7.8 l -2,-19.5 c 0,-4.4 1,-5.1 6,-5.9 l -1,-1.2 -17,1.5 v 1.2 c 5,-0.1 6,0.5 6,4.9 l 2,19 c 1,10.5 6,15.1 17,14.2 6,-0.6 11,-3.1 13,-7.5 1,-2.7 1,-5.5 1,-10.2 l -2,-15.8"
       inkscape:connector-curvature="0" />
    <path
       id="path3119"
       d="m 1625,698.8 v 1.2 c 5,-0.1 6,0.5 6,5 l 2,27.1 c 1,4.5 0,5.3 -5,5.8 v 1.2 l 20,-1.4 c 5,-0.4 9,-1.9 11,-4.2 2,-2.1 3,-4.9 3,-7.8 0,-2.7 -1,-5.1 -3,-6.7 -2,-1.5 -4,-2.1 -8,-2.8 3,-1 4,-1.7 6,-3.1 1,-1.4 2,-3.8 2,-6.3 -1,-6.8 -6,-9.9 -17,-9.2 l -17,1.2 m 14,19.6 c 5,-0.4 8,-0.3 11,0.5 3,1.2 5,3.5 5,7.3 0,3.3 -1,5.8 -3,7.4 -2,1.2 -4,1.8 -8,2.1 -3,0.2 -4,-0.2 -4,-2.2 l -1,-15.1 m -1,-2.4 -1,-14 c 0,-1.2 1,-1.8 2,-1.9 l 2,-0.2 c 7,-0.5 11,2.2 12,7.6 0,4.8 -3,7.7 -9,8.1 l -6,0.4"
       inkscape:connector-curvature="0" />
    <path
       id="path3121"
       d="m 1702,723.8 c -1,2.3 -2,3.8 -3,4.9 -2,2.5 -5,3.8 -10,4 l -4,0.3 c -5,0.2 -5,-0.1 -6,-2.2 l -1,-28.8 c 0,-4.4 0,-5.3 5,-5.8 V 695 l -17,1 v 1.1 c 5,0.1 5,0.9 6,5.2 l 1,27.1 c 0,4.2 0,5.2 -5,5.7 v 1.2 l 33,-1.8 2,-10.8 -1,0.1"
       inkscape:connector-curvature="0" />
    <path
       id="path3124"
       d="m 1711,727.3 c 1,4.6 0,5.4 -5,5.8 v 1.1 l 18,-0.8 v -1.2 c -5,0.1 -6,-0.7 -6,-5.2 l -2,-27 c 0,-4.5 1,-5.3 6,-5.8 v -1.1 l -18,0.8 v 1.2 c 5,0 6,0.7 6,5.2 l 1,27"
       inkscape:connector-curvature="0" />
    <path
       id="path3126"
       d="m 1762,704.5 -1,-13.8 -2,0.1 c 0,1.3 -1,2 -2,2.1 -1,0 -2,-0.1 -3,-0.5 -3,-0.8 -6,-1.2 -9,-1.1 -5,0.2 -10,2.2 -13,5.7 -4,4 -6,9.7 -6,16.4 0,5.7 2,10.9 5,14.2 4,3.9 10,6 16,5.8 7,-0.3 13,-3.3 16,-8.4 l -1,-1.1 c -4,4.5 -8,6.5 -13,6.7 -4,0.1 -8,-1 -10,-3.2 -4,-2.8 -6,-8.3 -6,-15 -1,-11.1 5,-18.4 14,-18.7 3,-0.1 6,1 9,3.4 2,1.8 3,3.5 4,7.4 h 2"
       inkscape:connector-curvature="0" />
    <path
       id="path3128"
       d="m 1802,689.7 c -12,0.3 -20,9.2 -20,21.5 0,5.7 3,11.2 6,14.7 4,3.7 9,6 14,5.9 12,-0.2 20,-8.9 20,-21.2 0,-6 -2,-11.2 -5,-14.8 -4,-4.1 -9,-6.2 -15,-6.1 m 0,2.2 c 3,0 6,1 8,2.9 3,2.9 5,8.6 5,15.9 0,3.6 0,7.8 -2,11 0,1.6 -1,3.1 -2,4.5 -2,2.2 -5,3.4 -8,3.4 -3,0.1 -6,-1 -8,-2.8 -3,-2.8 -6,-8.9 -6,-15.7 0,-6.2 2,-12.1 4,-15 3,-2.7 6,-4.1 9,-4.2"
       inkscape:connector-curvature="0" />
    <path
       id="path3130"
       d="m 1854,716.2 v -14.1 h -2 c 0,4.9 -2,5.8 -6,5.8 l -9,0.1 v -13.5 c 0,-1.7 0,-2.1 2,-2.1 l 8,-0.1 c 7,0 8,0.9 9,6.3 h 2 l -1,-8.7 -32,0.3 v 1.1 c 5,0.4 5,1.2 5,5.5 l 1,26.4 c 0,5.1 -1,5.9 -6,6.2 v 1.2 l 17,-0.2 v -1.1 c -4,-0.2 -5,-1.1 -5,-5.5 v -13.3 l 9,-0.1 c 5,0 6,0.9 6,5.8 h 2"
       inkscape:connector-curvature="0" />
    <path
       id="path3132"
       d="m 1901,689.2 h -1 c 0,1.4 -1,2 -2,2 -1,0 -2,-0.2 -3,-0.7 -2,-0.9 -4,-1.4 -6,-1.4 -3,0 -5,1 -7,2.8 -3,1.9 -4,4.4 -4,7.6 0,4.9 3,8.3 10,11.9 4,2.4 7,4.9 9,7.2 0,0.8 1,2.1 1,3.6 0,4 -3,6.8 -8,6.8 -5,0 -9,-3.4 -12,-10.9 h -2 l 2,13 h 2 c 0,-1.2 0,-2 1,-2 1,0 2,0.2 3,0.7 2,0.9 5,1.4 7,1.4 7,0 13,-4.7 13,-11 0,-5 -3,-9 -11,-13.4 -7,-3.6 -9,-6.3 -9,-9.5 0,-3.4 2,-5.7 6,-5.7 3,0 5,1.2 7,3.4 2,2 3,3.6 4,7.2 h 2 l -2,-13"
       inkscape:connector-curvature="0" />
    <path
       id="path3134"
       d="m 1930,689.5 c -11,-0.1 -20,8.5 -20,20.8 0,5.7 2,11.3 5,14.9 4,3.9 9,6.3 14,6.4 12,0.2 21,-8.2 21,-20.5 0,-6 -2,-11.2 -5,-14.9 -4,-4.3 -9,-6.6 -15,-6.7 m 0,2.2 c 3,0.1 6,1.2 8,3.2 3,3 5,8.8 5,16.1 0,3.6 -1,7.8 -2,10.9 -1,1.5 -2,3 -3,4.4 -2,2.1 -5,3.2 -8,3.1 -3,0 -6,-1.2 -8,-3.1 -3,-2.8 -5,-9 -5,-15.8 0,-6.2 2,-12.1 5,-14.9 2,-2.6 5,-3.9 8,-3.9"
       inkscape:connector-curvature="0" />
    <path
       id="path3136"
       d="m 1990,700.8 c 0,-6.3 1,-7.2 6,-7.7 V 692 l -14,-0.4 v 1.1 c 4,0.5 5,1.9 5,8 v 16.4 c 0,4.2 -1,6.5 -2,8.3 -2,2.9 -6,4.7 -10,4.5 -5,-0.1 -8,-1.6 -9,-4.5 -1,-2 -2,-4.3 -1,-8.1 v -19.6 c 0,-4.3 1,-5 6,-5.3 v -1.1 l -17,-0.5 v 1.1 c 4,0.5 5,1.2 5,5.7 l -1,19 c 0,10.5 5,15.7 15,16 7,0.2 12,-1.8 14,-5.9 2,-2.5 2,-5.3 2,-10 l 1,-15.9"
       inkscape:connector-curvature="0" />
    <path
       id="path3138"
       d="m 2013,695.2 -2,30.5 c 0,5.1 0,5.8 -6,5.9 v 1.1 l 18,0.7 v -1.1 c -5,-0.5 -6,-1.3 -5,-5.7 l 1,-31.2 3,0.2 c 7,0.2 8,1.4 10,8.1 l 1,0.1 v -10.4 l -34,-1.3 -1,10.3 1,0.1 c 2,-6.6 4,-7.7 10,-7.4 l 4,0.1"
       inkscape:connector-curvature="0" />
    <path
       id="path3140"
       d="m 2047,712.6 v -11.8 c 1,-4.4 1,-5.1 6,-5.2 v -1.2 l -17,-0.9 v 1.2 c 5,0.7 5,1.4 5,5.7 l -1,26.4 c 0,5.1 -1,5.8 -6,5.9 v 1.2 l 17,0.8 v -1.1 c -4,-0.6 -5,-1.5 -5,-5.8 l 1,-12.5 18,0.9 v 11.9 c -1,5.1 -1,5.8 -6,5.9 v 1.1 l 17,0.9 v -1.2 c -5,-0.6 -6,-1.4 -5,-5.7 l 1,-27.1 c 0,-4.4 1,-5 6,-5.2 v -1.1 l -17,-0.9 v 1.1 c 4,0.7 5,1.4 5,5.8 l -1,11.8 -18,-0.9"
       inkscape:connector-curvature="0" />
    <path
       id="path3142"
       d="m 2122,697.7 -1,-0.1 c 0,1.4 -1,2 -2,1.9 -1,0 -2,-0.3 -3,-0.9 -2,-1 -4,-1.6 -6,-1.8 -3,-0.1 -6,0.7 -8,2.3 -2,1.8 -3,4.3 -3,7.4 -1,4.9 2,8.5 8,12.5 5,2.7 8,5.4 9,7.8 0,0.8 1,2.1 1,3.6 -1,4 -4,6.6 -8,6.3 -6,-0.3 -9,-3.9 -12,-11.6 l -1,-0.1 1,13.1 1,0.1 c 0,-1.2 1,-2 2,-1.9 0,0 1,0.3 3,0.8 2,1.1 4,1.7 7,1.9 7,0.5 12,-4 13,-10.2 0,-5 -3,-9.2 -11,-14.1 -6,-3.9 -8,-6.8 -8,-10.1 0,-3.3 3,-5.4 7,-5.2 2,0.2 5,1.5 7,3.9 2,2 2,3.7 3,7.3 l 2,0.1 -1,-13"
       inkscape:connector-curvature="0" />
    <path
       id="path3144"
       d="m 2166,710.9 c 0,-6.2 1,-7.1 6,-7.3 v -1.2 l -14,-1.1 v 1.1 c 5,0.8 5,2.2 5,8.3 l -1,16.4 c -1,4.1 -1,6.4 -2,8.1 -2,2.8 -6,4.4 -11,4 -4,-0.3 -7,-2 -8,-5 -1,-2 -2,-4.3 -1,-8.1 l 1,-19.5 c 1,-4.4 1,-5 6,-5 v -1.2 l -17,-1.4 v 1.2 c 5,0.7 5,1.5 5,5.9 l -2,19 c 0,10.5 4,15.9 14,16.7 7,0.5 12,-1.2 15,-5.2 1,-2.4 2,-5.2 2,-9.8 l 2,-15.9"
       inkscape:connector-curvature="0" />
    <path
       id="path3146"
       d="m 2177,736.7 c -1,4.4 -1,5.1 -6,5 v 1.1 l 17,1.7 c 7,0.7 14,-0.7 18,-3.8 4,-3.2 7,-8.4 7,-14.3 1,-5.4 0,-10.3 -3,-14 -4,-4.6 -11,-7.4 -19,-8.2 l -16,-1.6 v 1.2 c 4,0.9 5,1.5 4,6 l -2,26.9 m 9,-28.3 c 0,-1.9 1,-2.4 3,-2.1 5,0.5 9,1.8 12,4.2 4,3.7 6,9.2 6,15.7 -1,7.2 -4,12.1 -9,14.4 -3,1.5 -7,1.9 -12,1.4 -3,-0.2 -3,-0.9 -3,-2.8 l 3,-30.8"
       inkscape:connector-curvature="0" />
    <path
       id="path3148"
       d="m 2257,750.7 c -3,-0.5 -4,-1.2 -5,-5.9 l -11,-36.2 -2,-0.1 -16,28.3 c -4,8.4 -5,9.3 -8,9.1 v 1.1 l 12,1.4 v -1.1 c -3,-0.4 -4,-1.3 -4,-3 0,-0.7 0,-1.6 1,-2.3 l 3,-6.8 16,1.8 2,6.1 c 1,1.7 1,3.4 1,4.2 0,1.5 -2,1.9 -5,1.6 v 1.1 l 16,1.8 v -1.1 m -28,-17.9 9,-15.8 5,17.4 -14,-1.6"
       inkscape:connector-curvature="0" />
    <path
       id="path3150"
       d="m 2295,757.5 4,-31.8 c 0,-3.6 1,-5.7 2,-6.4 1,-0.5 2,-0.6 5,-0.5 v -1.2 l -14,-1.9 -1,1.2 c 3,0.5 3,0.8 4,1.5 1,1 2,3.2 1,7 l -3,20.4 -19,-32.4 -10,-1.4 v 1.1 c 2,0.4 3,1 5,4.1 l -4,26.7 c 0,6.2 -1,7.3 -7,7 v 1.1 l 15,1.9 v -1.1 c -5,-0.9 -6,-2.4 -5,-8.5 l 3,-23.7 22,36.8 2,0.1"
       inkscape:connector-curvature="0" />
  </g>
</svg>
