<?xml version="1.0" encoding="UTF-8"?>
<svg width="125mm" height="145mm" version="1.1" viewBox="0 0 125 145" xmlns="http://www.w3.org/2000/svg">
		<g transform="translate(63.32 -109.5)">
				<g transform="matrix(.2646 0 0 .2646 -71.51 102.1)">
						<rect x="435.6" y="564.1" width="0" height="1.768" style="fill-opacity:.75;fill-rule:evenodd;fill:#0000ff;stroke-width:1px;stroke:#000000"/>
						<g transform="translate(15.46 16.03)">
								<path d="m18.76 14.99 460.7 0.07474-51.02 493-180.5 49.56-178.4-51.27z" style="fill-rule:evenodd;fill:#ffffff"/>
								<path d="m34.06 89.71 429.2-1.85 4.625-63.83-441.3 1.85z" style="fill:none;stroke-width:8.367;stroke:#ffffff"/>
								<rect x="218.1" y="225.4" width="56.02" height="11.68" style="fill-rule:evenodd;fill:#ffffff;stroke-width:.7449px;stroke:#ffffff"/>
								<path d="m73.42 427.7s4.328 2.968 10.46 2.852c6.137-0.1155 14.78-8.257 26.43-9.508 11.65-1.251 30.82 10.8 42.03 9.698 11.21-1.102 21.35-9.955 32.71-9.128 11.36 0.8274 18.88 10.61 34.04 9.318 15.16-1.296 15.57-7.482 29.86-7.036 14.29 0.4461 17.88 9.444 32.52 8.367 14.63-1.077 19.64-8.313 31.19-7.606s14.47 9.217 31.19 8.938c16.71-0.2795 19.76-9.077 37.46-7.797 17.7 1.28 20.32 6.578 28.33 7.797 8.019 1.219 11.99-1.995 11.03-2.092l-0.7606 8.938c-3.675 1.648-2.928 1.93-10.27 2.662-10.97-0.7134-13.65-7.129-29.86-7.797-14.89-0.6603-20.22 7.553-36.51 7.797-17.64-1.483-16.98-7.96-31.19-8.367-17.88 1.304-16.84 7.69-32.71 8.557-15.18-1.386-18.79-9.071-30.81-8.367-11.54-0.3238-17.18 6.269-28.52 6.656-15.33 0.552-20.66-9.054-33.66-9.128-11.29-0.6338-19.39 7.87-32.52 7.987-16.57-1.352-26.12-8.669-39.17-9.318-16.43 0.7825-17.94 4.564-27.57 8.177-8.995 2.138-8.574-0.4642-12.93-2.282z" style="fill-rule:evenodd;fill:#469951;stroke-width:.7606px;stroke:#469951"/>
								<path d="m39.26 28.3h-9.033l6.432 54.85h1.711z" style="fill-rule:evenodd;fill:#fa1c2c;stroke-width:.7659px;stroke:#fa1c2c"/>
								<path d="m458.8 28.3h9.033l-6.432 54.9h-1.711z" style="fill-rule:evenodd;fill:#fa1c2c;stroke-width:.7662px;stroke:#fa1c2c"/>
								<rect x="42.58" y="32.17" width="413.2" height="47.18" style="fill:#fa1c2c;stroke-width:8.411;stroke:#fa1c2c"/>
								<path d="m69.19 387.1s5.089 6.201 16.16 2.282c11.07-3.919 12.69-7.686 24.34-8.938 11.65-1.251 30.82 10.8 42.03 9.698 11.21-1.102 21.35-9.955 32.71-9.128 11.36 0.8274 18.88 10.61 34.04 9.318 15.16-1.296 15.57-7.482 29.86-7.036 14.29 0.4461 16.64 8.51 32.52 8.367 15.88-0.1426 14.74-7.745 31.19-7.606s18.83 7.804 31.19 8.938c12.36 1.133 20.06-8.985 37.46-7.797s16.88 5.467 28.33 7.797 17.49-3.613 17.49-3.613l-1.141 9.698c-3.675 1.648-5.59 3.071-12.93 3.803-10.97-0.7134-17.07-7.509-33.28-8.177-14.89-0.6603-20.22 7.553-36.51 7.797-17.64-1.483-16.98-7.96-31.19-8.367-17.88 1.304-16.84 7.69-32.71 8.557-15.18-1.386-18.79-9.071-30.81-8.367-11.54-0.3238-17.18 6.269-28.52 6.656-15.33 0.552-20.66-9.054-33.66-9.128-11.29-0.6338-19.39 7.87-32.52 7.987-16.57-1.352-26.12-8.669-39.17-9.318-16.43 0.7825-17.94 4.564-27.57 8.177-8.995 2.138-11.81-1.035-16.16-2.852z" style="fill-rule:evenodd;fill:#469951;stroke-width:.7606px;stroke:#469951"/>
								<path d="m86.49 437.8 331.1 3.993-42.22-12.36-35.94 8.557-31.95-8.177-32.52 6.656-27.19-7.226-27.76 7.036-38.41-10.27-30.05 7.987-43.36-7.036z" style="fill-rule:evenodd;fill:#469951;stroke-width:.7606px;stroke:#469951"/>
								<path d="m70.99 407.1s4.328 6.201 15.4 2.282c11.07-3.919 12.69-7.686 24.34-8.938s30.82 10.8 42.03 9.698c11.21-1.102 21.35-9.955 32.71-9.128s18.88 10.61 34.04 9.318c15.16-1.296 15.57-7.482 29.86-7.036 14.29 0.4461 17.88 9.444 32.52 8.367 14.63-1.077 19.64-8.313 31.19-7.606 11.54 0.7066 14.47 9.217 31.19 8.938 16.71-0.2795 19.76-9.077 37.46-7.797 17.7 1.28 20.32 6.578 28.33 7.797 8.019 1.219 14.27-3.136 13.31-3.233l-1.331 10.46c-3.675 1.648-4.64 1.55-11.98 2.282-10.97-0.7134-13.65-7.129-29.86-7.797-14.89-0.6603-20.22 7.553-36.51 7.797-17.64-1.483-16.98-7.96-31.19-8.367-17.88 1.304-16.84 7.69-32.71 8.557-15.18-1.386-18.79-9.071-30.81-8.367-11.54-0.3238-17.18 6.269-28.52 6.656-15.33 0.552-20.66-9.054-33.66-9.128-11.29-0.6338-19.39 7.87-32.52 7.987-16.57-1.352-26.12-8.669-39.17-9.318-16.43 0.7825-17.94 4.564-27.57 8.177-8.995 2.138-10.86-0.8445-15.21-2.662z" style="fill-rule:evenodd;fill:#469951;stroke-width:.7606px;stroke:#469951"/>
								<path d="m73.94 435.2 8.112 61.5 164.9 47.85 167.3-45.64 5.705-59.71" style="fill-rule:evenodd;fill:#469951;stroke-width:.7606px;stroke:#469951"/>
								<path d="m67.54 379.5c19.56 7.808 22.36-5.988 39.42-8.073 14.2-0.8225 22.02 7.603 41.32 9.557 11.12-0.4253 19.05-7.763 33.45-9.019 12.51 0.3125 13.65 7.179 34.38 9.144 13.52-1.038 16.42-6.22 30.7-8.606 18.57 0.9524 14.81 7.71 31.9 9.524 13.04 0.6133 16.74-7.869 29.96-7.372 15.82 0.6019 21.19 8.293 34.42 9.144 13.99 0.9155 20.03-7.831 37.11-8.606 15.65 1.411 22.6 8.698 32.62 9.073 5.73 0.7494 9.718-1.549 13.45-4.303l33.54-287.7-419.5 1.076z" style="fill-rule:evenodd;fill:#469951;stroke-width:.7606px;stroke:#469951"/>
								<rect x="319.8" y="448.3" width="31.19" height="17.49" style="fill-rule:evenodd;fill:#fffd00;stroke-width:.7606px;stroke:#000000"/>
								<path d="m22.41 17.91 453.7 0.03824-1.242 9.119-451.4-0.05232z" style="fill-rule:evenodd;fill:#ffffff;stroke-width:.7049px;stroke:#ffffff"/>
								<text transform="scale(.9405 1.063)" x="264.80579" y="66.756546" style="font-family:Kartika;font-size:64.39px;line-height:100%;stroke-width:1px;text-anchor:middle" xml:space="preserve"><tspan x="264.80579" y="66.756546" style="fill:#faf51c;font-family:'Myriad Web Pro';font-size:44px;font-weight:bold;line-height:100%;stroke:#faf51c;text-anchor:middle">SUMATERA BARAT</tspan></text>
								<path d="m103.7 299.9c8.516 3.53 17.03 3.882 25.55 13.98l4.224 36.01c15.13 1.536 26.15 5.191 33.96 13.47l157.9 2.151c9.729-8.297 21.57-11.84 34.15-13.72l6.185-36.57c6.126-6.962 16.43-11.09 25.28-15.33z" style="fill-rule:evenodd;fill:#000000;stroke-width:.7606px;stroke:#000000"/>
								<path d="m92.98 151.8c8.764 36.98 22.53 59.96 54.86 71.54l2.151 76.38-44.91 0.2689-3.496-68.58z" style="fill-rule:evenodd;fill:#000000;stroke-width:.7606px;stroke:#000000"/>
								<rect x="103.2" y="224.7" width="285.2" height="75.3" ry="0" style="fill-rule:evenodd;fill:#000000;stroke-width:.7606px;stroke:#000000"/>
								<rect x="218.3" y="224.8" width="57.55" height="9.95" style="fill-rule:evenodd;fill:#ffffff;stroke-width:.7606px;stroke:#ffffff"/>
								<path d="m246.3 162.1c-8.454 31.2-17.81 50.62-27.7 63.2l57.28-0.2689c-11.67-12.07-21.97-32.22-29.58-62.93z" style="fill-rule:evenodd;fill:#ffffff;stroke-width:.7606px;stroke:#ffffff"/>
								<path d="m145.1 153.4c7.24 29.09 13.77 57.62 73.4 71.5l-70.74 0.7606z" style="fill-rule:evenodd;fill:#000000;stroke-width:.7606px;stroke:#000000"/>
								<path d="m349.2 153.4c-7.24 29.09-13.77 57.62-73.4 71.5l70.74 0.7606z" style="fill-rule:evenodd;fill:#000000;stroke-width:.7606px;stroke:#000000"/>
								<path d="m223.6 243.2 48.15-0.0601c3.265 10.3 12.32 16.44 22.67 22l-94.14-0.1034c10.38-5.905 18.61-12.94 23.32-21.83z" style="fill-rule:evenodd;fill:#ffffff;stroke-width:.7606px;stroke:#ffffff"/>
								<path d="m209.5 274 75.58-6e-3c5.558 8.501 13.47 15.77 23.01 22.19l-121 7e-3c8.244-6.497 16.59-12.87 22.45-22.2z" style="fill-rule:evenodd;fill:#ffffff;stroke-width:.7606px;stroke:#ffffff"/>
								<path d="m132 304.7 227.4-0.2156-4.343 43.61c-13.55 1.803-26.16 5.125-34.72 12.99l-149.1-0.6488c-8.981-8.647-20.73-13.2-33.79-15.8z" style="fill-rule:evenodd;fill:#d40000;stroke-width:.7606px;stroke:#ad0909"/>
								<path d="m137 309.6 2.926 19.84 45.26 0.1351 0.119-20.17z" style="fill-rule:evenodd;fill:#000000;stroke-width:.8081px;stroke:#000000"/>
								<path d="m354.2 309.6-2.306 20.35-45.26 0.2343-0.3333-20.54z" style="fill-rule:evenodd;fill:#000000;stroke-width:.8071px;stroke:#000000"/>
								<rect transform="rotate(.2725)" x="192.7" y="308.2" width="110.3" height="20.38" style="fill-rule:evenodd;fill:#000000;stroke-width:.7914px;stroke:#000000"/>
								<path d="m141 334.6 0.8732 6.598c11.62 2.324 23.14 6.642 31.85 14.99l12.64-4e-3 -0.1798-21.65z" style="fill-rule:evenodd;fill:#000000;stroke-width:.7606px;stroke:#000000"/>
								<rect transform="matrix(1 .004482 -.005019 1 0 0)" x="192.9" y="333.7" width="110.3" height="21.38" style="fill-rule:evenodd;fill:#000000;stroke-width:.8107px;stroke:#000000"/>
								<path d="m351.7 335.4-0.5871 8.084c-11.61 2.382-22.81 4.472-31.48 12.86l-12.64-0.0763-0.0708-20.71z" style="fill-rule:evenodd;fill:#000000;stroke-width:.7606px;stroke:#000000"/>
								<path d="m403.3 151.9c-8.764 36.98-22.53 59.96-54.86 71.54l-2.151 76.38 44.91 0.2689 3.496-68.58z" style="fill-rule:evenodd;fill:#000000;stroke-width:.7606px;stroke:#000000"/>
								<rect x="140.3" y="445.8" width="30.43" height="19.21" style="fill-rule:evenodd;fill:#efee0d;stroke-width:.7606px;stroke:#000000"/>
								<path d="m170.3 443.3 0.3803 19.46" style="fill:none;stroke-width:3.67;stroke:#000000"/>
								<path d="m146.5 463.3 0.0489-12.14c6.725 0.8295 14.48 2.512 22.34-3.502 1.632-2.148 4.495-9.056-8.62-11.61-10.45-1.232-18.96-0.92-26.24 0.3803-8.133 2.186-11.96 7.102-13.5 13.6-0.1795 3.74-0.433 5.594 0.2166 9.334 8.291 1.409 16.29 4.512 25.76 3.945z" style="fill-rule:evenodd;fill:#faf51c;stroke-linejoin:round;stroke-width:3.423;stroke:#000000"/>
								<path d="m120.4 458.9c-5e-3 10.94-0.522 31.53 1.236 34.04 5.563 8.123 15.33 11.96 30.52 11.98 34.16-3.278 72.32-14.65 90.42-15.4 21.23-1.196 61.11 17.51 99.07 19.02 17.45-0.7242 22.96-6.447 28.14-12.36l0.3803-41.27c-5.936 4.517-11.77 13.88-28.9 12.55-40.67-3.094-60.35-16.72-96.22-19.4-35.77 1.762-46.82 9.374-69.69 14.07-18.1 4.255-37.98 1.642-54.96-3.233z" style="fill-rule:evenodd;fill:#efee0d;stroke-width:3.423;stroke:#000000"/>
								<path d="m260.9 127.6-7.594 7.124 1.994 9.867-9.619-4.527-9.456 4.816 1.649-9.922-7.839-6.89 10.64-1.605 4.612-9.075 4.926 8.93z" style="fill:#faf51c;stroke-width:9.127;stroke:#faeb1c"/>
								<path d="m343.3 467.5 0.4889-13.89c-6.725 0.8295-14.62 1.032-22.47-4.981-1.632-2.148-4.63-7.442 8.485-9.998 10.45-1.232 18.69-0.7856 25.97 0.5148 8.133 2.186 13.11 6.199 14.66 12.69 0.1795 3.74 0.2198 2.736-0.4298 6.476-8.174 5.179-10.17 9.187-26.7 9.185z" style="fill-rule:evenodd;fill:#faf51c;stroke-linejoin:round;stroke-width:3.423;stroke:#000000"/>
								<path d="m319.6 444.9 0.3172 19.46" style="fill-rule:evenodd;fill:#efee0d;stroke-width:3.352;stroke:#000000"/>
								<text transform="rotate(-.469)" x="136.08987" y="495.8295" style="font-family:Arial;font-size:30.43px;font-weight:bold;line-height:125%;stroke-width:1px;text-align:center;text-anchor:middle" xml:space="preserve"><tspan x="136.08987" y="495.8295" style="fill:#f02d2d;font-family:'Myriad Web Pro';font-size:30.43px;font-weight:bold;stroke:#f02d2d">T</tspan></text>
								<text transform="rotate(-1.512)" x="149.87567" y="497.21375" style="fill:#000000;font-family:'Myriad Web Pro';font-size:30.43px;font-weight:bold;line-height:125%;stroke-width:1px;text-align:center;text-anchor:middle" xml:space="preserve"><tspan x="149.87567" y="497.21375" style="fill:#f02d2d;font-family:'Myriad Web Pro';font-size:30.43px;font-weight:bold;stroke:#f02d2d">U</tspan></text>
								<text transform="rotate(-4.511)" x="147.01617" y="502.4054" style="fill:#000000;font-family:'Myriad Web Pro';font-size:30.43px;font-weight:bold;line-height:125%;stroke-width:1px;text-align:center;text-anchor:middle" xml:space="preserve"><tspan x="147.01617" y="502.4054" style="fill:#f02d2d;font-family:'Myriad Web Pro';font-size:30.43px;font-weight:bold;stroke:#f02d2d">A</tspan></text>
								<text transform="rotate(-6.117)" x="156.60426" y="504.79568" style="fill:#000000;font-family:'Myriad Web Pro';font-size:30.43px;font-weight:bold;line-height:125%;stroke-width:1px;text-align:center;text-anchor:middle" xml:space="preserve"><tspan x="156.60426" y="504.79568" style="fill:#f02d2d;font-family:'Myriad Web Pro';font-size:30.43px;font-weight:bold;stroke:#f02d2d">H</tspan></text>
								<text x="241.20735" y="480.71805" style="fill:#000000;font-family:'Myriad Web Pro';font-size:30.43px;font-weight:bold;line-height:125%;stroke-width:1px;text-align:center;text-anchor:middle" xml:space="preserve"><tspan x="241.20735" y="480.71805" style="fill:#f02d2d;font-family:'Myriad Web Pro';font-size:30.43px;font-weight:bold;stroke:#f02d2d">S</tspan></text>
								<text transform="rotate(6.719)" x="315.61844" y="448.42371" style="fill:#000000;font-family:'Myriad Web Pro';font-size:30.43px;font-weight:bold;line-height:125%;stroke-width:1px;text-align:center;text-anchor:middle" xml:space="preserve"><tspan x="315.61844" y="448.42371" style="fill:#f02d2d;font-family:'Myriad Web Pro';font-size:30.43px;font-weight:bold;stroke:#f02d2d">A</tspan></text>
								<text transform="rotate(13.46)" x="387.43771" y="407.64069" style="fill:#000000;font-family:'Myriad Web Pro';font-size:30.43px;font-weight:bold;line-height:125%;stroke-width:1px;text-align:center;text-anchor:middle" xml:space="preserve"><tspan x="387.43771" y="407.64069" style="fill:#f02d2d;font-family:'Myriad Web Pro';font-size:30.43px;font-weight:bold;stroke:#f02d2d">K</tspan></text>
								<text transform="rotate(12.85)" x="405.79181" y="411.81982" style="fill:#000000;font-family:'Myriad Web Pro';font-size:30.43px;font-weight:bold;line-height:125%;stroke-width:1px;text-align:center;text-anchor:middle" xml:space="preserve"><tspan x="405.79181" y="411.81982" style="fill:#f02d2d;font-family:'Myriad Web Pro';font-size:30.43px;font-weight:bold;stroke:#f02d2d">A</tspan></text>
								<text transform="rotate(8.29)" x="392.86197" y="444.20743" style="fill:#000000;font-family:'Myriad Web Pro';font-size:30.43px;font-weight:bold;line-height:125%;stroke-width:1px;text-align:center;text-anchor:middle" xml:space="preserve"><tspan x="392.86197" y="444.20743" style="fill:#f02d2d;font-family:'Myriad Web Pro';font-size:30.43px;font-weight:bold;stroke:#f02d2d">T</tspan></text>
								<text x="346.62753" y="497.9295" style="fill:#000000;font-family:'Myriad Web Pro';font-size:30.43px;font-weight:bold;line-height:125%;stroke-width:1px;text-align:center;text-anchor:middle" xml:space="preserve"><tspan x="346.62753" y="497.9295" style="fill:#f02d2d;font-family:'Myriad Web Pro';font-size:30.43px;font-weight:bold;stroke:#f02d2d">O</tspan></text>
								<path d="m18.76 14.99 460.7 0.07474-51.02 493-180.5 49.56-178.4-51.27z" style="fill:none;stroke-width:5.857;stroke:#000000"/>
						</g>
				</g>
		</g>
</svg>
