<?xml version="1.0" encoding="UTF-8" standalone="no"?>
<!-- Created with Inkscape (http://www.inkscape.org/) -->

<svg
   xmlns:dc="http://purl.org/dc/elements/1.1/"
   xmlns:cc="http://creativecommons.org/ns#"
   xmlns:rdf="http://www.w3.org/1999/02/22-rdf-syntax-ns#"
   xmlns:svg="http://www.w3.org/2000/svg"
   xmlns="http://www.w3.org/2000/svg"
   xmlns:sodipodi="http://sodipodi.sourceforge.net/DTD/sodipodi-0.dtd"
   xmlns:inkscape="http://www.inkscape.org/namespaces/inkscape"
   version="1.0"
   width="630.43652"
   height="715.62024"
   id="svg3194"
   inkscape:version="0.47 r22583"
   sodipodi:docname="Arms.svg">
  <metadata
     id="metadata74">
    <rdf:RDF>
      <cc:Work
         rdf:about="">
        <dc:format>image/svg+xml</dc:format>
        <dc:type
           rdf:resource="http://purl.org/dc/dcmitype/StillImage" />
      </cc:Work>
    </rdf:RDF>
  </metadata>
  <sodipodi:namedview
     pagecolor="#ffffff"
     bordercolor="#666666"
     borderopacity="1"
     objecttolerance="10"
     gridtolerance="10"
     guidetolerance="10"
     inkscape:pageopacity="0"
     inkscape:pageshadow="2"
     inkscape:window-width="1280"
     inkscape:window-height="1004"
     id="namedview72"
     showgrid="false"
     inkscape:zoom="1"
     inkscape:cx="339.71662"
     inkscape:cy="358.02358"
     inkscape:window-x="-8"
     inkscape:window-y="-8"
     inkscape:window-maximized="1"
     inkscape:current-layer="layer1" />
  <defs
     id="defs3477">
    <inkscape:perspective
       sodipodi:type="inkscape:persp3d"
       inkscape:vp_x="0 : 357.81012 : 1"
       inkscape:vp_y="0 : 1000 : 0"
       inkscape:vp_z="630.43652 : 357.81012 : 1"
       inkscape:persp3d-origin="315.21826 : 238.54008 : 1"
       id="perspective76" />
  </defs>
  <g
     transform="translate(-12.8023,-159.385)"
     id="layer3"
     style="display:inline">
    <path
       d="m 91.310503,94.473448 c 0.20428,120.744732 -0.41112,241.502832 0.31223,362.239102 3.84688,108.35657 86.787307,207.32615 192.699857,230.20965 97.98283,23.86995 207.6723,-19.0271 262.97739,-103.62122 33.12209,-47.31073 45.3201,-105.86015 42.58894,-162.85245 0,-108.65836 0,-217.31672 0,-325.975082 -166.19277,0 -332.38555,0 -498.578417,0 z"
       id="path4560"
       style="fill:none;stroke:none;stroke-width:1;marker:none;visibility:visible;display:inline;overflow:visible" />
  </g>
  <g
     transform="translate(-12.8023,-159.385)"
     id="layer1"
     style="display:inline">
    <path
       d="m 93.421365,161.26738 c 0.19992,120.34903 -0.40235,240.7114 0.30556,361.052 3.764798,108.00147 84.935375,206.6467 188.587865,229.4552 95.892,23.7917 203.24081,-18.9647 257.36576,-103.28162 32.41531,-47.15568 44.35304,-105.51323 41.68015,-162.31876 0,-108.30227 0,-216.60454 0,-324.90682 -162.6464,0 -325.29283,0 -487.939335,0 z"
       id="path4736"
       style="fill:none;stroke:none;stroke-width:1;marker:none;visibility:visible;display:inline;overflow:visible" />
    <path
       d="m 78.585495,160.38451 c 0.20418,120.74701 -0.4109,241.51843 0.31248,362.25694 3.84679,108.35868 86.772275,207.30803 192.681655,230.19193 97.97993,23.8703 207.68868,-19.0311 262.99202,-103.62701 33.12099,-47.3116 45.32351,-105.85341 42.5925,-162.8468 -10e-5,-108.6606 0,-217.31468 0,-325.97506 -166.18784,0 -332.3909,0 -498.578655,0 z"
       id="path11282"
       style="fill:#eac102;fill-rule:evenodd;stroke:#000000;stroke-width:2;stroke-linecap:butt;stroke-linejoin:miter;stroke-miterlimit:4;stroke-opacity:1;stroke-dasharray:none;stroke-dashoffset:0;marker:none;visibility:visible;display:inline;overflow:visible" />
    <path
       d="m 79.086795,161.18186 c 0.20347,120.34377 -0.40949,240.70089 0.31098,361.03624 3.83154,107.99676 86.441355,206.63768 191.931725,229.44518 97.59228,23.7907 206.84451,-18.9639 261.92917,-103.27711 32.99008,-47.15362 45.13947,-105.50861 42.41915,-162.31167 0,-108.29755 0,-216.5951 0,-324.89264 -165.53036,0 -331.06065,0 -496.591025,0 z"
       id="path7503"
       style="fill:#f8d80e;fill-rule:evenodd;stroke:#000000;stroke-width:1;stroke-linecap:butt;stroke-linejoin:miter;stroke-miterlimit:4;stroke-opacity:1;stroke-dasharray:none;stroke-dashoffset:0;marker:none;visibility:visible;display:inline;overflow:visible;fill-opacity:1" />
    <path
       d="m 120.32682,203.79915 c 0.16947,103.25963 -0.34103,206.53073 0.25902,309.78315 3.1911,92.66541 71.99258,177.30318 159.85011,196.87292 81.2796,20.41336 172.2702,-16.27177 218.14738,-88.6158 27.48578,-40.66185 38.81053,-93.30296 35.32873,-139.26974 0,-92.92352 0,-185.84702 0,-278.77053 -137.86175,0 -275.72342,0 -413.58524,0 z"
       id="path4172"
       style="fill:#da000c;fill-rule:evenodd;stroke:#000000;stroke-width:1.89999981;stroke-linecap:butt;stroke-linejoin:miter;stroke-miterlimit:4;stroke-opacity:1;stroke-dasharray:none;stroke-dashoffset:0;marker:none;visibility:visible;display:inline;overflow:visible;fill-opacity:1" />
    <path
       d="m 120.44232,202.99157 c 0.0635,38.70675 0.0333,77.41662 0,116.125 l 0,116.1875 c 0.0392,25.81497 0.1,51.6244 0.25,77.4375 0.55984,16.257 3.15278,32.26391 7.5,47.71875 l 397.9375,0 c 4.57389,-16.51504 7.2592,-33.43315 8.15625,-50.03125 l 0,-24.84375 c -0.074,-1.29026 -0.15302,-2.56344 -0.25,-3.84375 -10e-6,-92.91312 0,-185.83691 0,-278.75 l -413.59375,0 z"
       id="path2439"
       style="fill:#ffffff;fill-rule:evenodd;stroke:#000000;stroke-width:1.6;stroke-linecap:butt;stroke-linejoin:miter;stroke-miterlimit:4;stroke-opacity:1;stroke-dasharray:none;stroke-dashoffset:0;marker:none;visibility:visible;display:inline;overflow:visible;fill-opacity:1" />
    <rect
       width="233.77629"
       height="99.52182"
       x="210.1938"
       y="426.8605"
       id="rect2084"
       style="fill:#000000;fill-rule:nonzero;stroke:#000000;stroke-width:2;stroke-linecap:butt;stroke-linejoin:miter;stroke-miterlimit:4;stroke-opacity:1;stroke-dasharray:none;stroke-dashoffset:1" />
    <path
       d="m 275.58739,511.83788 -76.84294,0 -17.03329,12.89287 0,13.66624 93.87623,0"
       id="path2086"
       style="fill:#da000c;fill-rule:nonzero;stroke:#000000;stroke-width:2;stroke-linecap:square;stroke-linejoin:miter;stroke-miterlimit:4;stroke-opacity:1;stroke-dasharray:none;stroke-dashoffset:1;fill-opacity:1" />
    <path
       d="m 378.57672,511.83788 76.84239,0 17.03326,12.89287 0,13.66624 -93.87565,0"
       id="path2088"
       style="fill:#da000c;fill-rule:nonzero;stroke:#000000;stroke-width:2;stroke-linecap:square;stroke-linejoin:miter;stroke-miterlimit:4;stroke-opacity:1;stroke-dasharray:none;stroke-dashoffset:1;fill-opacity:1" />
    <path
       d="m 181.71116,524.73075 290.74121,0"
       id="path2090"
       style="fill:#ed1c24;fill-rule:nonzero;stroke:#000000;stroke-width:2;stroke-linecap:square;stroke-linejoin:miter;stroke-miterlimit:4;stroke-opacity:1;stroke-dasharray:none;stroke-dashoffset:1" />
    <path
       d="m 273.1167,518.50957 -19.2388,10.67597 0,15.90272 73.20413,0 73.20365,0 0,-15.90272 -19.23833,-10.67597 -53.96532,0 -53.96533,0 z"
       id="path2092"
       style="fill:#da000c;fill-rule:evenodd;stroke:#000000;stroke-width:2;stroke-linecap:butt;stroke-linejoin:miter;stroke-miterlimit:4;stroke-opacity:1;stroke-dasharray:none;fill-opacity:1" />
    <path
       d="m 253.85785,529.15477 146.44835,0"
       id="path2106"
       style="fill:#da000c;fill-rule:evenodd;stroke:#000000;stroke-width:2;stroke-linecap:butt;stroke-linejoin:miter;stroke-miterlimit:4;stroke-opacity:1;stroke-dasharray:none;fill-opacity:1" />
    <path
       d="m 243.42907,454.6699 c 11.06351,0 20.09908,10.60697 20.09908,23.68354 l 0,33.43577 14.44397,0 0,-126.68195 -79.22767,0 0,126.68195 24.58607,0 0,-33.43577 c 0,-12.56732 8.88004,-23.68354 20.09855,-23.68354 z"
       id="path2108"
       style="fill:#da000c;fill-rule:nonzero;stroke:#000000;stroke-width:2;stroke-linecap:square;stroke-linejoin:miter;stroke-miterlimit:4;stroke-opacity:1;stroke-dasharray:none;stroke-dashoffset:1;fill-opacity:1" />
    <rect
       width="36.432663"
       height="76.823845"
       x="227.32028"
       y="299.40289"
       id="rect2110"
       style="fill:#000000;fill-rule:nonzero;stroke:#000000;stroke-width:2;stroke-linecap:butt;stroke-linejoin:miter;stroke-miterlimit:4;stroke-opacity:1;stroke-dasharray:none;stroke-dashoffset:1" />
    <path
       d="m 218.35172,271.50009 0,79.81753 11.94328,0 0,-21.92051 c 0,-8.20897 5.03937,-14.92579 12.08927,-15.33599 0.22775,-0.0146 0.44593,0 0.67635,0 7.36826,0 13.3375,6.8638 13.3375,15.33599 l 0,21.92051 11.3708,0 0,-79.81753 -49.4172,0 z"
       id="path2114"
       style="fill:#da000c;fill-rule:evenodd;stroke:#000000;stroke-width:2;stroke-linecap:butt;stroke-linejoin:miter;stroke-miterlimit:4;stroke-opacity:1;stroke-dasharray:none;fill-opacity:1" />
    <path
       d="m 262.17551,364.32595 -31.88051,0 0,-13.00833 -23.37576,0 0,13.00833 -15.85776,0 0,-13.00833 -9.46523,0 0,23.60578 80.57926,0 m -71.11403,-0.0838 68.78198,0 0,10.26763 -68.78198,0 0,-10.26763 z"
       id="path2112"
       style="fill:#da000c;fill-rule:evenodd;stroke:#000000;stroke-width:2;stroke-linecap:butt;stroke-linejoin:miter;stroke-miterlimit:4;stroke-opacity:1;stroke-dasharray:none;fill-opacity:1" />
    <rect
       width="57.685066"
       height="120.47377"
       x="297.19141"
       y="250.51715"
       id="rect2116"
       style="fill:#000000;fill-rule:nonzero;stroke:#000000;stroke-width:2;stroke-linecap:butt;stroke-linejoin:miter;stroke-miterlimit:4;stroke-opacity:1;stroke-dasharray:none;stroke-dashoffset:1" />
    <path
       d="m 293.15363,250.57866 0,100.8091 18.31631,0 0,-29.90227 c 0,-6.89889 3.84014,-16.47781 15.61209,-16.47781 11.77143,0 15.61216,9.57892 15.61216,16.47781 l 0,29.90227 18.31628,0 0,-100.8091 -33.92844,0 -33.9284,0 z m 31.10089,11.30761 2.82751,0 2.82756,0 0,29.07163 -2.82756,0 -2.82751,0 0,-29.07163 z m -16.22624,6.78622 5.71624,0 0,25.23874 -5.71624,0 0,-25.23874 z m 32.39131,0 5.71624,0 0,25.23874 -5.71624,0 0,-25.23874 z"
       id="path2118"
       style="fill:#da000c;fill-rule:evenodd;stroke:#000000;stroke-width:2;stroke-linecap:butt;stroke-linejoin:miter;stroke-miterlimit:4;stroke-opacity:1;stroke-dasharray:none;fill-opacity:1" />
    <path
       d="m 286.94608,236.08007 0,14.35663 40.13595,0 40.136,0 0,-14.35663 -40.136,0 -40.13595,0 z"
       id="path2120"
       style="fill:#da000c;fill-rule:nonzero;stroke:#000000;stroke-width:2;stroke-linecap:square;stroke-linejoin:miter;stroke-miterlimit:4;stroke-opacity:1;stroke-dasharray:none;stroke-dashoffset:1;fill-opacity:1" />
    <path
       d="m 279.38593,219.39632 0,16.68375 47.6961,0 47.69617,0 0,-16.68375 -11.98547,0 0,9.18924 -13.52203,0 0,-9.18924 -15.42763,0 0,9.18924 -6.76104,0 -6.76099,0 0,-9.18924 -15.42763,0 0,9.18924 -13.52202,0 0,-9.18924 -11.98546,0 z"
       id="path2122"
       style="fill:#da000c;fill-rule:nonzero;stroke:#000000;stroke-width:2;stroke-linecap:square;stroke-linejoin:miter;stroke-miterlimit:4;stroke-opacity:1;stroke-dasharray:none;stroke-dashoffset:1;fill-opacity:1" />
    <path
       d="m 214.04928,260.68476 0,10.81533 57.53085,0 0,-10.81533 -57.53085,0 z"
       id="path2124"
       style="fill:#da000c;fill-rule:nonzero;stroke:#000000;stroke-width:2;stroke-linecap:square;stroke-linejoin:miter;stroke-miterlimit:4;stroke-opacity:1;stroke-dasharray:none;stroke-dashoffset:1;fill-opacity:1" />
    <path
       d="m 206.67364,239.96928 0,20.71548 69.02443,0 0,-20.71548 -10.63331,0 0,10.53682 -12.84626,0 0,-10.53682 -19.60731,0 0,10.53682 -12.84568,0 0,-10.53682 -13.09187,0 z"
       id="path2126"
       style="fill:#da000c;fill-rule:nonzero;stroke:#000000;stroke-width:2;stroke-linecap:square;stroke-linejoin:miter;stroke-miterlimit:4;stroke-opacity:1;stroke-dasharray:none;stroke-dashoffset:1;fill-opacity:1" />
    <path
       d="m 410.73503,454.6699 c -11.0635,0 -20.09907,10.60697 -20.09907,23.68354 l 0,33.43577 -14.44405,0 0,-126.68195 79.2272,0 0,126.68195 -24.58553,0 0,-33.43577 c 0,-12.56732 -8.8801,-23.68354 -20.09855,-23.68354 z"
       id="path2152"
       style="fill:#da000c;fill-rule:nonzero;stroke:#000000;stroke-width:2;stroke-linecap:square;stroke-linejoin:miter;stroke-miterlimit:4;stroke-opacity:1;stroke-dasharray:none;stroke-dashoffset:1;fill-opacity:1" />
    <path
       d="m 261.68422,385.10726 0,10.3932 65.39781,0 65.3978,0 0,-10.3932 -65.3978,0 -65.39781,0 z"
       id="path2154"
       style="fill:#da000c;fill-rule:nonzero;stroke:#000000;stroke-width:2;stroke-linecap:round;stroke-linejoin:miter;stroke-miterlimit:4;stroke-opacity:1;stroke-dasharray:none;stroke-dashoffset:1;fill-opacity:1" />
    <rect
       width="36.432663"
       height="76.823845"
       x="-428.32016"
       y="299.40289"
       transform="scale(-1,1)"
       id="rect2156"
       style="fill:#000000;fill-rule:nonzero;stroke:#000000;stroke-width:2;stroke-linecap:butt;stroke-linejoin:miter;stroke-miterlimit:4;stroke-opacity:1;stroke-dasharray:none;stroke-dashoffset:1" />
    <path
       d="m 435.81238,271.50009 0,79.81753 -11.94385,0 0,-21.92051 c 0,-8.20897 -5.03887,-14.92579 -12.08875,-15.33599 -0.22769,-0.0146 -0.44595,0 -0.67629,0 -7.36826,0 -13.33756,6.8638 -13.33756,15.33599 l 0,21.92051 -11.37081,0 0,-79.81753 49.41726,0 z"
       id="path2160"
       style="fill:#da000c;fill-rule:evenodd;stroke:#000000;stroke-width:2;stroke-linecap:butt;stroke-linejoin:miter;stroke-miterlimit:4;stroke-opacity:1;stroke-dasharray:none;fill-opacity:1" />
    <path
       d="m 391.988,364.32595 31.88053,0 0,-13.00833 23.37581,0 0,13.00833 15.8583,0 0,-13.00833 9.46518,0 0,23.60578 -80.57982,0 m 71.11464,-0.0838 -68.78207,0 0,10.26763 68.78207,0 0,-10.26763 z"
       id="path2158"
       style="fill:#da000c;fill-rule:evenodd;stroke:#000000;stroke-width:2;stroke-linecap:butt;stroke-linejoin:miter;stroke-miterlimit:4;stroke-opacity:1;stroke-dasharray:none;fill-opacity:1" />
    <path
       d="m 256.33643,351.31762 0,33.78964 70.7456,0 70.74506,0 0,-33.78964 -13.39867,0 0,13.00833 -17.82507,0 0,-13.00833 -23.90916,0 0,13.00833 -15.61216,0 -15.61209,0 0,-13.00833 -23.90926,0 0,13.00833 -17.82447,0 0,-13.00833 -13.39978,0 z"
       id="path2162"
       style="fill:#da000c;fill-rule:evenodd;stroke:#000000;stroke-width:2;stroke-linecap:butt;stroke-linejoin:miter;stroke-miterlimit:4;stroke-opacity:1;stroke-dasharray:none;fill-opacity:1" />
    <path
       d="m 440.11484,260.68476 0,10.81533 -57.53087,0 0,-10.81533 57.53087,0 z"
       id="path2164"
       style="fill:#da000c;fill-rule:nonzero;stroke:#000000;stroke-width:2;stroke-linecap:square;stroke-linejoin:miter;stroke-miterlimit:4;stroke-opacity:1;stroke-dasharray:none;stroke-dashoffset:1;fill-opacity:1" />
    <path
       d="m 447.49048,239.96928 0,20.71548 -69.0245,0 0,-20.71548 10.63336,0 0,10.53682 12.84627,0 0,-10.53682 19.60723,0 0,10.53682 12.84576,0 0,-10.53682 13.09188,0 z"
       id="path2166"
       style="fill:#da000c;fill-rule:nonzero;stroke:#000000;stroke-width:2;stroke-linecap:square;stroke-linejoin:miter;stroke-miterlimit:4;stroke-opacity:1;stroke-dasharray:none;stroke-dashoffset:1;fill-opacity:1" />
    <g
       transform="translate(-0.396951,-203.746)"
       id="g4473"
       style="fill:#f8d80e;stroke:#000000;stroke-width:2;stroke-opacity:1;fill-opacity:1">
      <path
         d="m 288.00613,860.92149 0,15.68604 9.82666,0 0,-7.87354 13.3667,0 0,7.87354 10.55909,0 0,-15.68604 -33.75245,0 z m 0,21.60645 0,15.74707 33.75245,0 0,-15.74707 -10.55909,0 0,7.87353 -13.3667,0 0,-7.87353 -9.82666,0 z"
         id="rect2744"
         style="fill:#f8d80e;fill-rule:nonzero;stroke:#000000;stroke-width:2;stroke-linecap:butt;stroke-linejoin:miter;stroke-miterlimit:4;stroke-opacity:1;stroke-dasharray:none;stroke-dashoffset:1;fill-opacity:1" />
      <g
         transform="matrix(1.95312,0,0,1.95312,-172.504,416.463)"
         id="g2731"
         style="fill:#f8d80e;stroke:#000000;stroke-width:1.02400004999999990;stroke-opacity:1;fill-opacity:1">
        <path
           d="m 273.29688,150.03125 c -1.34177,0.39513 -3.03997,1.25309 -5.125,2.40625 -2.08504,1.15316 -4.46995,2.60401 -6.71875,4.09375 -1.6672,1.10445 -3.0598,2.2073 -4.4375,3.28125 -0.48062,0.37465 -1.14314,0.76616 -1.5625,1.125 -0.49019,0.41944 -0.82607,0.81979 -1.21875,1.21875 -0.25679,0.2609 -0.59888,0.52432 -0.8125,0.78125 -0.5403,0.64982 -1.0625,1.21528 -1.0625,2.40625 0,0.21619 0.006,0.43298 0.0312,0.65625 0.77484,-0.92888 1.88738,-1.57486 3.125,-1.71875 0.006,1.5e-4 0.0275,1.7e-4 0.0312,0 0.0315,9e-5 0.0934,-6.2e-4 0.125,0 0.004,-7e-5 0.0253,-9e-5 0.0312,0 0.12206,-0.01 0.21933,0 0.34375,0 0.12441,0 0.22168,-0.01 0.34375,0 0.18759,0.0147 0.35356,0.0591 0.53125,0.0937 0.0683,-0.063 0.12149,-0.12616 0.1875,-0.1875 0.22719,-0.21114 0.34986,-0.35832 0.625,-0.59375 0.54971,-0.47037 1.45603,-1.06566 2.15625,-1.59375 1.13281,-0.85434 2.15926,-1.67431 3.5,-2.5625 2.16948,-1.4372 4.48036,-2.83779 6.46875,-3.9375 1.98838,-1.09971 3.75337,-1.89229 4.4375,-2.09375 l -1,-3.375 z"
           id="path2659"
           style="fill:#f8d80e;fill-rule:evenodd;stroke:#000000;stroke-width:1.02400004999999990;stroke-linecap:butt;stroke-linejoin:miter;stroke-miterlimit:4;stroke-opacity:1;stroke-dasharray:none;fill-opacity:1" />
        <path
           d="m 260.40041,157.3913 0,3.9119"
           id="path2766"
           style="fill:#f8d80e;fill-rule:evenodd;stroke:#000000;stroke-width:1.02400004999999990;stroke-linecap:round;stroke-linejoin:miter;stroke-miterlimit:4;stroke-opacity:1;stroke-dasharray:none;fill-opacity:1" />
        <path
           d="m 262.81691,155.68544 0,3.88277"
           id="path2770"
           style="fill:#f8d80e;fill-rule:evenodd;stroke:#000000;stroke-width:1.02400004999999990;stroke-linecap:round;stroke-linejoin:miter;stroke-miterlimit:4;stroke-opacity:1;stroke-dasharray:none;fill-opacity:1" />
        <path
           d="m 265.23339,154.17984 0,3.85813"
           id="path2772"
           style="fill:#f8d80e;fill-rule:evenodd;stroke:#000000;stroke-width:1.02400004999999990;stroke-linecap:round;stroke-linejoin:miter;stroke-miterlimit:4;stroke-opacity:1;stroke-dasharray:none;fill-opacity:1" />
        <path
           d="m 267.64986,152.69367 0,3.98131"
           id="path2774"
           style="fill:#f8d80e;fill-rule:evenodd;stroke:#000000;stroke-width:1.02400004999999990;stroke-linecap:round;stroke-linejoin:miter;stroke-miterlimit:4;stroke-opacity:1;stroke-dasharray:none;fill-opacity:1" />
      </g>
      <rect
         width="9.7465372"
         height="113.50589"
         x="321.73776"
         y="794.68896"
         id="rect2581"
         style="fill:#f8d80e;fill-rule:nonzero;stroke:#000000;stroke-width:2;stroke-linecap:butt;stroke-linejoin:miter;stroke-miterlimit:4;stroke-opacity:1;stroke-dasharray:none;stroke-dashoffset:1;fill-opacity:1" />
      <path
         d="m 326.61088,766.86632 20.75195,12.08496 -20.75195,12.02392 -20.75195,-12.02392 20.75195,-12.08496 z m -27.771,7.75146 -5.43213,0 0,8.66699 5.43213,0 27.771,16.11329 27.771,-16.11329 5.43213,0 0,-8.66699 -5.43213,0 -27.771,-16.11328 -27.771,16.11328 z"
         id="path2617"
         style="fill:#f8d80e;fill-rule:nonzero;stroke:#000000;stroke-width:2;stroke-linecap:butt;stroke-linejoin:miter;stroke-miterlimit:4;stroke-opacity:1;stroke-dasharray:none;stroke-dashoffset:1;fill-opacity:1" />
      <g
         transform="matrix(1.95312,0,0,1.95312,-172.504,416.463)"
         id="g2710"
         style="fill:#f8d80e;stroke:#000000;stroke-width:1.02400004999999990;stroke-opacity:1;fill-opacity:1">
        <path
           d="m 238.89063,150.15625 -1.1875,3.3125 c 3.84059,1.38796 9.28994,4.08623 13.65625,6.71875 2.18315,1.31626 4.0937,2.61029 5.40625,3.6875 0.65627,0.53861 1.16027,1.03845 1.4375,1.375 0.0341,0.0414 0.0742,0.0917 0.0937,0.125 0.003,0.006 -0.003,0.0252 0,0.0312 0.022,0.0461 0.0487,0.0946 0.0625,0.125 -0.0253,0.22369 -0.0654,0.46484 -0.125,0.625 -0.005,0.0128 -0.0257,0.0508 -0.0312,0.0625 -0.003,0.006 0.003,0.026 0,0.0312 -0.003,0.005 -0.0281,0.0266 -0.0312,0.0312 -0.0207,0.0267 -0.0405,0.0676 -0.0625,0.0937 -0.005,0.005 -0.0265,0.0262 -0.0312,0.0312 -0.005,0.005 -0.0259,0.0263 -0.0312,0.0312 -0.0115,0.01 -0.0493,0.022 -0.0625,0.0312 -0.0213,0.0135 -0.0672,0.0504 -0.0937,0.0625 -0.14286,0.058 -0.37638,0.0937 -0.75,0.0937 -0.22157,0 -0.40077,-0.0327 -0.53125,-0.0625 -0.0502,-0.0126 -0.11654,-0.0153 -0.15625,-0.0312 -0.0127,-0.005 -0.0508,-0.0254 -0.0625,-0.0312 -0.0339,-0.0179 -0.0669,-0.0424 -0.0937,-0.0625 -0.008,-0.008 -0.0268,-0.0274 -0.0312,-0.0312 -0.003,-0.003 -0.0286,-0.0273 -0.0312,-0.0312 -0.008,-0.0134 -0.0237,-0.0517 -0.0312,-0.0625 -0.002,1e-4 -0.0288,-4e-5 -0.0312,0 -0.003,1.9e-4 -0.028,-7.4e-4 -0.0312,0 -0.007,-2.3e-4 -0.0233,4e-5 -0.0312,0 -0.0164,1.2e-4 -0.0484,0 -0.0625,0 -0.0969,0 -0.18682,-0.01 -0.28125,0 -1.14744,0.11588 -2.11966,0.93411 -2.4375,2.0625 3.1e-4,0.003 -9e-5,0.0286 0,0.0312 0.004,0.004 0.0274,0.0274 0.0312,0.0312 0.0157,0.0143 0.0467,0.0458 0.0625,0.0625 0.80273,0.96876 2.18,1.625 3.71875,1.625 1.61838,0 3.02965,-0.67766 3.8125,-1.6875 0.78284,-1.00984 0.96875,-2.15809 0.96875,-3.09375 0,-1.09112 -0.48992,-1.72453 -1,-2.34375 -0.51009,-0.61922 -1.17229,-1.21574 -1.9375,-1.84375 -1.53042,-1.25603 -3.53496,-2.59558 -5.8125,-3.96875 -4.55511,-2.74634 -10.08076,-5.51323 -14.28125,-7.03125 z"
           id="path2670"
           style="fill:#f8d80e;fill-rule:evenodd;stroke:#000000;stroke-width:1.02400004999999990;stroke-linecap:butt;stroke-linejoin:miter;stroke-miterlimit:4;stroke-opacity:1;stroke-dasharray:none;fill-opacity:1" />
        <path
           d="m 254.04985,158.03521 -0.31238,3.33948"
           id="path2693"
           style="fill:#f8d80e;fill-rule:evenodd;stroke:#000000;stroke-width:1.02400004999999990;stroke-linecap:round;stroke-linejoin:miter;stroke-miterlimit:4;stroke-opacity:1;stroke-dasharray:none;fill-opacity:1" />
        <path
           d="m 256.8319,159.73914 -0.86199,3.26968"
           id="path2705"
           style="fill:#f8d80e;fill-rule:evenodd;stroke:#000000;stroke-width:1.02400004999999990;stroke-linecap:round;stroke-linejoin:miter;stroke-miterlimit:4;stroke-opacity:1;stroke-dasharray:none;fill-opacity:1" />
        <path
           d="m 259.80442,162.01152 -1.8089,2.53732"
           id="path2709"
           style="fill:#f8d80e;fill-rule:evenodd;stroke:#000000;stroke-width:1.02400004999999990;stroke-linecap:round;stroke-linejoin:miter;stroke-miterlimit:4;stroke-opacity:1;stroke-dasharray:none;fill-opacity:1" />
        <path
           d="m 260.71528,168.18078 -2.61016,-1.40046"
           id="path2713"
           style="fill:#f8d80e;fill-rule:evenodd;stroke:#000000;stroke-width:1.02400004999999990;stroke-linecap:round;stroke-linejoin:miter;stroke-miterlimit:4;stroke-opacity:1;stroke-dasharray:none;fill-opacity:1" />
        <path
           d="m 261.52792,165.42898 -2.99541,0.28045"
           id="path2715"
           style="fill:#f8d80e;fill-rule:evenodd;stroke:#000000;stroke-width:1.02400004999999990;stroke-linecap:round;stroke-linejoin:miter;stroke-opacity:1;fill-opacity:1" />
        <path
           d="m 257.66497,169.7646 -0.2051,-2.63232"
           id="path2719"
           style="fill:#f8d80e;fill-rule:evenodd;stroke:#000000;stroke-width:1.02400004999999990;stroke-linecap:round;stroke-linejoin:miter;stroke-miterlimit:4;stroke-opacity:1;stroke-dasharray:none;fill-opacity:1" />
        <path
           d="m 256.56809,166.75559 -2.473,1.8222"
           id="path1881"
           style="fill:#f8d80e;fill-rule:evenodd;stroke:#000000;stroke-width:1.02400004999999990;stroke-linecap:round;stroke-linejoin:miter;stroke-opacity:1;fill-opacity:1" />
        <path
           d="m 244.67669,152.9368 0,3.11504"
           id="path2760"
           style="fill:#f8d80e;fill-rule:evenodd;stroke:#000000;stroke-width:1.02400004999999990;stroke-linecap:round;stroke-linejoin:miter;stroke-miterlimit:4;stroke-opacity:1;stroke-dasharray:none;fill-opacity:1" />
        <path
           d="m 250.96338,156.24386 0,3.53419"
           id="path2762"
           style="fill:#f8d80e;fill-rule:evenodd;stroke:#000000;stroke-width:1.02400004999999990;stroke-linecap:round;stroke-linejoin:miter;stroke-miterlimit:4;stroke-opacity:1;stroke-dasharray:none;fill-opacity:1" />
        <path
           d="m 247.82004,154.59318 0,3.31892"
           id="path2764"
           style="fill:#f8d80e;fill-rule:evenodd;stroke:#000000;stroke-width:1.02400004999999990;stroke-linecap:round;stroke-linejoin:miter;stroke-miterlimit:4;stroke-opacity:1;stroke-dasharray:none;fill-opacity:1" />
      </g>
      <path
         d="m 326.21414,737.3253 c -4.53064,0.69582 -7.9956,4.81863 -7.9956,9.64356 l 0,21.54541 c 0,5.30742 4.21574,9.70461 9.39941,9.70459 0.135,0 0.23252,0.006 0.36621,0 0.13369,0.006 0.23121,0 0.36621,0 3.68528,2e-5 6.88307,-2.24014 8.42285,-5.43213 l -3.35693,-2.01416 c -0.83496,2.06939 -2.79396,3.47904 -5.06592,3.479 -0.0878,0 -0.1724,-5.1e-4 -0.24414,0 -0.0224,-3.7e-4 -0.0899,2.6e-4 -0.12207,0 -0.0344,0.003 -0.0922,-4.9e-4 -0.12207,0 -0.0717,-5.1e-4 -0.15633,0 -0.24414,0 -3.02928,4e-5 -5.49316,-2.49635 -5.49316,-5.7373 l 0,-21.54541 c 0,-3.24094 2.46386,-5.67627 5.49316,-5.67627 0.086,0 0.17164,5.4e-4 0.24414,0 0.0299,5.2e-4 0.0884,-0.003 0.12207,0 0.0321,-2.8e-4 0.0997,3.9e-4 0.12207,0 0.0725,5.4e-4 0.15817,0 0.24414,0 0.85199,0 1.66008,0.20029 2.38037,0.54931 0.005,1.8e-4 0.0568,-5.6e-4 0.061,0 0.15953,-0.0289 0.32262,-0.0796 0.42724,-0.12207 0.0491,-0.0315 0.15188,-0.10234 0.18311,-0.12207 0.0102,-0.0108 0.051,-0.0502 0.061,-0.061 0.006,6e-5 0.0538,-3.1e-4 0.061,0 0.0105,-0.01 0.0511,-0.0512 0.061,-0.061 0.013,-0.0127 0.0566,-0.056 0.061,-0.061 0.0367,-0.0502 0.0867,-0.1375 0.12207,-0.18311 -1.2e-4,-0.006 7.8e-4,-0.0542 0,-0.061 0,0 0.061,-0.061 0.061,-0.061 0.008,-0.0172 0.045,-0.0896 0.061,-0.12207 0.11649,-0.31281 0.19467,-0.78381 0.24414,-1.2207 -0.0269,-0.0593 -0.0791,-0.15403 -0.12207,-0.24414 3.9e-4,-0.003 1.2e-4,-0.0472 0,-0.061 -0.0415,-0.0634 -0.12478,-0.1733 -0.1831,-0.24414 -0.39662,-0.48148 -1.07737,-1.10291 -1.89209,-1.83105 -0.006,10e-4 -0.0557,-3.2e-4 -0.061,0 -0.0583,-0.0133 -0.18555,-0.0487 -0.24414,-0.061 -0.008,-4.9e-4 -0.0536,-10e-5 -0.061,0 -0.0315,4.7e-4 -0.1037,7.2e-4 -0.12208,0 -0.012,2e-4 -0.0533,1.8e-4 -0.061,0 -0.0346,4.3e-4 -0.0985,-7.4e-4 -0.12207,0 -0.0633,0.003 -0.18734,0.004 -0.24414,0 -0.2384,-0.0187 -0.4284,0 -0.67139,0 -0.15187,0 -0.23099,9.2e-4 -0.36621,0 -0.13521,9.2e-4 -0.21433,0 -0.36621,0 -0.24299,0 -0.43299,-0.0187 -0.67139,0 -0.0568,0.004 -0.18086,0.003 -0.24414,0 -0.0235,-7.4e-4 -0.0875,4.3e-4 -0.12207,0 -0.0155,3.5e-4 -0.0505,-10e-4 -0.061,0 -0.0245,9.6e-4 -0.10143,0.002 -0.12207,0 -0.007,-10e-5 -0.0529,-4.9e-4 -0.061,0 -0.0358,0.005 -0.0864,-0.005 -0.12207,0 z m 11.29151,7.6294 c -0.099,0.14724 -0.19756,0.34129 -0.30518,0.48828 -0.81229,1.04781 -1.97523,1.92201 -3.35693,2.50244 l 0,14.77051 3.90625,2.2583 0,-18.00537 c 0,-0.68385 -0.0502,-1.36682 -0.18311,-2.01416 -0.006,-0.002 -0.0556,4.8e-4 -0.061,0 z"
         id="path2671"
         style="fill:#f8d80e;fill-rule:nonzero;stroke:#000000;stroke-width:2;stroke-linecap:butt;stroke-linejoin:miter;stroke-miterlimit:4;stroke-opacity:1;stroke-dasharray:none;stroke-dashoffset:1;fill-opacity:1" />
      <rect
         width="9.7465372"
         height="97.774155"
         x="321.73776"
         y="804.508"
         id="rect2635"
         style="fill:#f8d80e;fill-rule:nonzero;stroke:#000000;stroke-width:2;stroke-linecap:butt;stroke-linejoin:miter;stroke-miterlimit:4;stroke-opacity:1;stroke-dasharray:none;stroke-dashoffset:1;fill-opacity:1" />
    </g>
    <path
       d="m 273.78355,395.53645 0,122.9373 25.2618,0 c 0,0 0,-25.44825 0,-46.02197 0,-21.67786 12.58059,-31.88222 28.45785,-31.88222 15.2605,0 28.45782,10.20436 28.45782,31.88222 0,20.57372 0,46.02197 0,46.02197 l 25.26188,0 0,-122.9373 -53.7197,0 -53.71965,0 z"
       id="path2168"
       style="fill:#da000c;fill-rule:evenodd;stroke:#000000;stroke-width:2;stroke-linecap:butt;stroke-linejoin:round;stroke-miterlimit:4;stroke-opacity:1;stroke-dasharray:none;display:inline;fill-opacity:1" />
    <g
       transform="translate(0.402033,0)"
       id="g4689"
       style="stroke:#000000;stroke-width:2;stroke-opacity:1">
      <path
         d="m 55.766867,620.4301 c -12.492834,7.05634 -25.018697,14.12276 -37.511532,21.17909 -2.03652,1.14891 -6.061568,4.58176 -4.505668,9.9425 14.724425,50.71239 41.277796,78.17008 68.316488,102.58633 27.474485,24.81516 58.812745,38.91396 80.366455,48.27822 1.45601,-4.88222 3.80009,-9.77968 6.0773,-14.43334 0.0149,-0.0329 -0.0149,-0.0883 0,-0.11749 0.20687,-0.42411 0.4224,-0.77136 0.62849,-1.18931 0.15732,-0.33202 0.2651,-0.61858 0.41927,-0.93803 0.022,-0.0454 0.0834,-0.0744 0.10461,-0.1199 0.0401,-0.0783 0.0661,-0.15531 0.10541,-0.23364 0.0716,-0.15143 0.13765,-0.33201 0.20924,-0.4785 0.10934,-0.21961 0.20687,-0.49481 0.31464,-0.70947 0.3516,-0.71215 0.7103,-1.3207 1.04775,-2.01119 0.56242,-1.15657 1.07372,-2.33572 1.57163,-3.43294 4.44667,-8.88576 15.2373,-9.44754 23.36605,-9.58387 10.03313,-1.50502 19.3709,7.00448 29.23332,2.3698 9.49666,-0.35353 14.10222,-12.40571 4.08641,-17.28045 -13.27551,-6.94902 -28.42469,-7.05247 -42.22643,-12.30092 C 143.19152,728.71174 101.2876,700.81721 74.836483,657.93761 67.419602,646.18337 61.062278,633.55925 55.766867,620.4301 z"
         id="path2170"
         style="fill:#f8d80e;fill-rule:evenodd;stroke:#000000;stroke-width:2;stroke-linecap:butt;stroke-linejoin:miter;stroke-opacity:1;fill-opacity:1" />
      <path
         d="m 235.464,766.20918 c -5.00201,4.02746 -10.54362,6.82899 -16.41405,6.82899 -4.39475,0 -11.42226,-3.48708 -15.59834,-3.48708 -4.17608,0 -11.54261,-1.30426 -19.92387,1.15644 -3.81424,1.33206 -8.19562,2.89255 -10.28877,7.06262 -1.32386,2.59462 1.62433,3.89247 2.86245,5.62338 9.77512,9.16484 21.97612,14.14677 34.01901,18.13013 6.07416,1.94422 12.23325,3.54895 18.42854,4.91497 5.36463,-6.88206 6.20316,-16.48745 6.67591,-25.25959 0.22653,-4.98702 0.23597,-9.97523 0.23912,-14.96986 z"
         id="path2188"
         style="fill:#f8d80e;fill-rule:evenodd;stroke:#000000;stroke-width:2;stroke-linecap:butt;stroke-linejoin:miter;stroke-opacity:1;fill-opacity:1" />
      <path
         d="m 64.987424,616.87985 c -2.790865,0.1553 -5.804337,1.32567 -9.220557,3.55025 0.124279,0.30806 0.275311,0.60603 0.419252,0.94818 0.03304,0.0783 0.0708,0.14771 0.104626,0.2361 0.113268,0.26513 0.189566,0.54794 0.313855,0.82696 0.06292,0.15023 0.147091,0.327 0.210023,0.47723 0.05978,0.13004 0.04248,0.32574 0.104614,0.46209 3.155068,7.06517 9.228429,18.76386 15.507099,30.53324 0.125852,0.21084 0.187992,0.50501 0.314637,0.71459 0.194289,0.36614 0.434203,0.70197 0.628492,1.06306 0.114061,0.18812 0.305202,0.41032 0.419263,0.59465 0.04012,0.077 0.06451,0.16288 0.104615,0.23485 0.0708,0.11615 0.139229,0.23608 0.210033,0.35097 0.228893,0.37245 0.501066,0.69945 0.733107,1.06559 6.10247,9.88947 12.947494,19.02898 20.537427,27.34027 l 15.71633,-17.87376 C 87.067373,639.02479 78.810403,616.11602 64.987424,616.87985 z"
         id="path2190"
         style="fill:#f8d80e;fill-rule:evenodd;stroke:#000000;stroke-width:2;stroke-linecap:butt;stroke-linejoin:miter;stroke-opacity:1;fill-opacity:1" />
      <path
         d="m 599.47012,620.4301 c 12.49284,7.05634 25.0187,14.12276 37.51154,21.17909 2.03652,1.14891 6.06156,4.58176 4.50565,9.9425 -14.72442,50.71239 -41.27778,78.17008 -68.31647,102.58633 -27.47448,24.81516 -58.81275,38.91396 -80.36647,48.27822 -1.456,-4.88222 -3.80007,-9.77968 -6.07729,-14.43334 -0.0149,-0.0329 0.0149,-0.0883 0,-0.11749 -0.20687,-0.42411 -0.42241,-0.77136 -0.6285,-1.18931 -0.15732,-0.33202 -0.26509,-0.61858 -0.41926,-0.93803 -0.022,-0.0454 -0.0834,-0.0744 -0.1054,-0.1199 -0.0393,-0.0783 -0.0645,-0.15531 -0.10462,-0.23364 -0.0716,-0.15143 -0.13765,-0.33201 -0.20924,-0.4785 -0.10934,-0.21961 -0.20687,-0.49481 -0.31463,-0.70947 -0.35162,-0.71215 -0.71031,-1.3207 -1.04776,-2.01119 -0.56242,-1.15657 -1.07372,-2.33572 -1.57163,-3.43294 -4.44746,-8.88576 -15.2373,-9.44754 -23.36606,-9.58387 -10.03312,-1.50502 -19.37089,7.00448 -29.23331,2.3698 -9.49745,-0.35353 -14.10223,-12.40571 -4.08641,-17.28045 13.27472,-6.94902 28.42469,-7.05247 42.22643,-12.30092 44.17878,-13.24525 86.08271,-41.13978 112.53382,-84.01938 7.41687,-11.75424 13.77341,-24.37836 19.06961,-37.50751 z"
         id="path2192"
         style="fill:#f8d80e;fill-rule:evenodd;stroke:#000000;stroke-width:2;stroke-linecap:butt;stroke-linejoin:miter;stroke-opacity:1;fill-opacity:1" />
      <path
         d="m 419.7722,766.20918 c 5.00279,4.02746 10.54521,6.82899 16.41483,6.82899 4.39476,0 11.42227,-3.48708 15.59835,-3.48708 4.17607,0 11.54182,-1.30426 19.92388,1.15644 3.81345,1.33206 8.19561,2.89255 10.28797,7.06262 1.32464,2.59462 -1.62354,3.89247 -2.86166,5.62338 -9.77512,9.16484 -21.97611,14.14677 -34.01901,18.13013 -6.07415,1.94422 -12.23326,3.54895 -18.42854,4.91497 -5.36464,-6.88206 -6.20316,-16.48745 -6.6759,-25.25959 -0.22654,-4.98702 -0.23599,-9.97523 -0.23992,-14.96986 z"
         id="path2194"
         style="fill:#f8d80e;fill-rule:evenodd;stroke:#000000;stroke-width:2;stroke-linecap:butt;stroke-linejoin:miter;stroke-opacity:1;fill-opacity:1" />
      <path
         d="m 327.6185,874.00475 c -30.22051,0 -171.33397,-8.3606 -171.33397,-45.83905 0,-12.76299 11.84466,-41.13607 16.54068,-48.40948 30.78136,37.33449 135.86919,35.36367 154.79329,35.36367 20.32976,0 124.01192,1.97082 154.79327,-35.36367 4.69603,7.27341 16.5407,35.64649 16.5407,48.40948 0,37.47845 -141.46508,45.83905 -171.33397,45.83905 z"
         id="path2196"
         style="font-size:15px;font-style:normal;font-variant:normal;font-weight:bold;font-stretch:normal;text-align:center;line-height:100%;text-anchor:middle;fill:#f8d80e;fill-rule:evenodd;stroke:#000000;stroke-width:2;stroke-linecap:butt;stroke-linejoin:miter;stroke-opacity:1;font-family:Swis721 BT;fill-opacity:1" />
      <path
         d="m 590.24956,616.87985 c 2.79087,0.1553 5.80434,1.32567 9.22056,3.55025 -0.12427,0.30806 -0.27531,0.60603 -0.41926,0.94818 -0.033,0.0783 -0.0708,0.14771 -0.10461,0.2361 -0.11327,0.26513 -0.18958,0.54794 -0.31464,0.82696 -0.0621,0.15023 -0.14631,0.327 -0.20924,0.47723 -0.0598,0.13004 -0.0425,0.32574 -0.10462,0.46209 -3.15506,7.06517 -9.22842,18.76386 -15.50788,30.53324 -0.12507,0.21084 -0.18722,0.50501 -0.31385,0.71459 -0.1943,0.36614 -0.43422,0.70197 -0.6285,1.06306 -0.11405,0.18812 -0.30521,0.41032 -0.41926,0.59465 -0.0401,0.077 -0.0645,0.16288 -0.10462,0.23485 -0.0708,0.11615 -0.13923,0.23608 -0.21002,0.35097 -0.22969,0.37245 -0.50185,0.69945 -0.73311,1.06559 -6.10247,9.88947 -12.9475,19.02898 -20.53665,27.34027 l -15.71711,-17.87376 c 24.02286,-28.37933 32.27984,-51.2881 46.10281,-50.52427 z"
         id="path2198"
         style="fill:#f8d80e;fill-rule:evenodd;stroke:#000000;stroke-width:2;stroke-linecap:butt;stroke-linejoin:miter;stroke-opacity:1;fill-opacity:1" />
      <path
         d="m 52.179952,633.80797 4.098209,8.72288 -21.481349,23.97939 29.68719,-6.51217 4.097416,8.72162 -31.95497,19.14261 -2.681527,-5.70541 26.401546,-15.81835 -30.602795,6.87578 -2.762548,-5.88216 22.257724,-24.63844 -26.400764,15.81708 -2.613091,-5.55644 31.954959,-19.14639 m 23.504492,51.32598 c -2.286651,-3.03135 -4.999655,-4.48579 -8.141346,-4.40752 -3.129107,0.072 -6.349463,1.71327 -9.661057,4.90497 -3.299009,3.18412 -5.233271,6.52101 -5.80198,10.00688 -0.568721,3.49849 0.29025,6.7508 2.576119,9.77205 2.275642,3.00989 4.983922,4.46686 8.125614,4.37848 3.140909,-0.0884 6.361254,-1.71453 9.661057,-4.90623 3.310812,-3.18411 5.245073,-6.52101 5.801198,-9.9993 0.578938,-3.48334 -0.273735,-6.72555 -2.559605,-9.74933 m 3.977068,-3.83937 c 3.487795,4.61078 4.941436,9.49429 4.360924,14.65176 -0.567135,5.14484 -3.098434,9.87557 -7.593082,14.21113 -4.493866,4.33555 -9.041218,6.4238 -13.639699,6.2685 -4.586679,-0.17675 -8.62353,-2.55916 -12.110543,-7.17627 -3.498022,-4.62214 -4.963465,-9.50565 -4.395538,-14.64923 0.567146,-5.14484 3.104721,-9.89198 7.611171,-14.23891 4.506451,-4.34818 9.053802,-6.42885 13.640492,-6.25966 4.586679,0.16792 8.628253,2.56547 12.126275,7.19268 m 10.521602,14.91184 4.957169,4.54387 -3.979424,35.71471 17.058271,-23.72059 4.51826,4.14492 -22.800487,31.70618 -4.918623,-4.51238 3.903126,-35.78033 -17.058286,23.72436 -4.480489,-4.10703 22.800483,-31.71371 m 22.304126,20.29531 24.08423,16.71475 -2.77672,5.09812 -9.45811,-6.56267 -16.15841,29.70254 -5.10584,-3.54402 16.1584,-29.69362 -9.52025,-6.60813 2.7767,-5.10697 m 25.98701,17.36748 5.36149,3.14501 -16.6689,36.2513 -5.36149,-3.13621 16.6689,-36.2601 m 29.60067,28.73033 -5.25136,-2.5592 c 0.70086,-2.18041 0.63243,-4.1916 -0.2061,-6.0412 -0.82357,-1.83195 -2.32204,-3.29393 -4.497,-4.37097 -1.79976,-0.88871 -3.45319,-1.14253 -4.96111,-0.75745 -1.50713,0.38507 -2.53364,1.2802 -3.07877,2.68925 -0.5514,1.41653 -0.50185,2.83307 0.14788,4.24961 0.65682,1.39769 2.40937,3.34699 5.25766,5.86957 4.33497,3.79904 6.92998,6.87577 7.78422,9.23796 0.8692,2.3698 0.73942,5.01481 -0.39015,7.91872 -1.36632,3.5237 -3.63568,5.78363 -6.80963,6.78234 -3.15191,0.97974 -6.67746,0.51125 -10.57666,-1.42161 -4.10922,-2.03271 -6.87805,-4.73453 -8.30495,-8.10304 -1.41353,-3.36331 -1.38757,-7.18761 0.0763,-11.46381 l 5.35362,2.64501 c -0.78896,2.50106 -0.71581,4.76995 0.22025,6.82658 0.951,2.07174 2.67837,3.7143 5.18371,4.95667 1.88942,0.93937 3.63411,1.18811 5.23406,0.74623 1.61568,-0.43306 2.71536,-1.40531 3.2998,-2.91527 0.23048,-0.5845 0.317,-1.34463 0.26115,-2.25993 -0.0346,-0.92667 -0.20923,-1.794 -0.52388,-2.59583 -0.52152,-1.31923 -2.12147,-3.13982 -4.79907,-5.44908 -0.57264,-0.51125 -1.00685,-0.88122 -1.30418,-1.12996 -3.27777,-2.93786 -5.35284,-5.62832 -6.22597,-8.07645 -0.86605,-2.46831 -0.73154,-5.16505 0.40511,-8.10291 1.20822,-3.11349 3.30688,-5.0906 6.29676,-5.93907 3.01189,-0.8434 6.37698,-0.35354 10.09605,1.48857 3.61444,1.78651 6.07651,4.27995 7.38699,7.50077 1.3325,3.19797 1.30733,6.62449 -0.0747,10.2745"
         id="path2200"
         style="font-size:15px;font-style:normal;font-variant:normal;font-weight:bold;font-stretch:normal;text-align:center;line-height:100%;text-anchor:middle;fill:#000000;stroke:none;font-family:Swis721 Md BT" />
      <path
         d="m 189.67583,801.95284 5.53768,2.72842 -14.45225,37.45198 -5.53848,-2.7347 14.45305,-37.4457 m 19.53686,8.25074 6.23619,1.54659 10.6451,33.93577 5.80906,-29.84643 5.684,1.40905 -7.76377,39.90118 -6.18821,-1.53389 -10.74107,-33.95983 -5.80906,29.84897 -5.6368,-1.4001 7.76456,-39.90131 m 70.26254,24.3241 -5.69736,-0.5972 c 0.0684,-2.32061 -0.54983,-4.20683 -1.85403,-5.66881 -1.28845,-1.46198 -3.11415,-2.32436 -5.47711,-2.58567 -1.9555,-0.2172 -3.59635,0.12498 -4.92414,1.0189 -1.327,0.89258 -2.05697,2.10836 -2.18912,3.63102 -0.13372,1.54793 0.30206,2.87732 1.30813,3.98576 1.00763,1.09722 3.21091,2.35096 6.60982,3.74852 5.16563,2.09085 8.47801,4.10712 9.93873,6.05135 1.47646,1.9469 2.07821,4.49968 1.80447,7.67252 -0.33116,3.82671 -1.86897,6.76336 -4.61264,8.81746 -2.72637,2.04541 -6.20788,2.83067 -10.44452,2.35724 -4.46476,-0.48225 -7.8385,-2.08324 -10.12122,-4.79133 -2.26699,-2.70182 -3.29193,-6.33792 -3.0764,-10.92222 l 5.81693,0.6401 c -0.0653,2.64501 0.63006,4.78746 2.08528,6.41237 1.47095,1.63374 3.56724,2.59583 6.2881,2.89763 2.05304,0.22843 3.77963,-0.15037 5.18057,-1.12756 1.41667,-0.97973 2.1962,-2.2864 2.33779,-3.91759 0.0558,-0.64518 -0.0684,-1.39769 -0.37364,-2.24604 -0.28633,-0.87628 -0.68984,-1.62491 -1.20901,-2.28145 -0.86055,-1.07944 -2.88132,-2.24737 -6.06235,-3.51113 -0.68355,-0.28029 -1.20035,-0.48225 -1.5504,-0.6123 -3.92121,-1.6451 -6.63342,-3.47959 -8.13583,-5.49586 -1.50163,-2.04527 -2.11439,-4.6562 -1.83908,-7.84281 0.29262,-3.37987 1.74469,-5.99842 4.35542,-7.84801 2.62884,-1.87232 5.96324,-2.57685 10.00482,-2.13497 3.92672,0.43935 6.95435,1.95439 9.08212,4.54647 2.14584,2.57684 3.06381,5.84298 2.75467,9.80361 m 19.94276,-10.87931 6.03796,0.23858 -1.27666,40.83053 -6.03718,-0.24113 1.27588,-40.82798 m 57.27807,12.6582 -5.96637,0.12243 c -0.49793,-2.40763 -1.56771,-4.2762 -3.21092,-5.59423 -1.6267,-1.33835 -3.65062,-1.97083 -6.07336,-1.92164 -3.61837,0.0744 -6.40295,1.48858 -8.3553,4.25228 -1.95314,2.7359 -2.8892,6.56006 -2.80818,11.48279 0.0787,4.82408 1.14766,8.60547 3.20698,11.33375 2.05854,2.72962 4.83132,4.06034 8.31755,3.98843 2.96313,-0.067 5.34418,-1.14894 7.14313,-3.25744 1.81627,-2.10716 2.75312,-4.90494 2.81054,-8.37571 l -9.89546,0.20076 -0.092,-5.62832 15.44495,-0.31824 0.36105,22.04024 -3.97786,0.0858 -1.09181,-5.13859 c -1.30811,2.08324 -2.91121,3.66271 -4.80928,4.75859 -1.89807,1.09709 -4.05022,1.66274 -6.45645,1.71834 -4.99256,0.10225 -9.07582,-1.78277 -12.25055,-5.65491 -3.159,-3.89127 -4.79041,-9.04241 -4.89582,-15.45853 -0.10697,-6.54001 1.37026,-11.79849 4.4333,-15.75912 3.06225,-3.97066 7.20449,-6.00578 12.42597,-6.11818 4.35385,-0.0897 7.91795,1.03279 10.69073,3.35448 2.77277,2.33197 4.4561,5.62337 5.04919,9.88701 m 18.25549,-13.63285 6.35261,-0.73113 19.50304,28.47787 -2.74368,-30.41073 5.79099,-0.65908 3.66635,40.63992 -6.30384,0.72337 -19.59979,-28.46264 2.7421,30.40192 -5.74063,0.65908 -3.66715,-40.63858 m 47.18519,-6.81015 5.9302,-1.2929 6.88906,40.097 -5.93098,1.29918 -6.88828,-40.10328 m 35.88797,-3.18419 0.27611,18.72853 10.11571,-4.12344 -10.39182,-14.60509 m -5.23405,-5.17762 6.37463,-2.59836 24.79059,33.31973 -6.05134,2.46323 -6.22912,-8.68888 -13.23381,5.40364 0.20138,11.14315 -5.91291,2.42287 0.0606,-43.46538"
         id="path2202"
         style="font-size:15px;font-style:normal;font-variant:normal;font-weight:bold;font-stretch:normal;text-indent:0pt;text-align:center;text-decoration:none;line-height:100%;letter-spacing:normal;word-spacing:normal;text-transform:none;direction:ltr;text-anchor:middle;fill:#000000;fill-rule:nonzero;stroke:none;stroke-width:2;marker:none;visibility:visible;display:inline;overflow:visible;font-family:Swis721 Md BT" />
      <path
         d="m 527.68157,742.79785 -5.29777,3.0365 c -1.27902,-2.02389 -2.90414,-3.22457 -4.87615,-3.60456 -1.96415,-0.41168 -4.09978,0.0543 -6.40532,1.37109 -3.07955,1.77007 -4.93514,4.31403 -5.56757,7.64713 -0.61748,3.32173 0.0425,7.12838 1.9791,11.42985 1.95077,4.33301 4.34047,7.25951 7.16831,8.76707 2.82784,1.50997 5.73041,1.40518 8.7077,-0.29793 2.36452,-1.35986 3.96054,-3.26626 4.78805,-5.70677 0.83458,-2.4758 0.75671,-5.04756 -0.23284,-7.7431 l 5.25373,-3.01244 c 1.72345,4.19293 1.87998,8.35927 0.4696,12.48404 -1.40331,4.10699 -4.08248,7.29359 -8.03751,9.56248 -4.59769,2.63993 -8.99245,3.01739 -13.18426,1.12997 -4.17686,-1.89384 -7.60881,-5.82801 -10.29427,-11.78834 -2.71535,-6.0325 -3.49174,-11.50938 -2.32678,-16.43331 1.16418,-4.92138 4.1399,-8.75183 8.92716,-11.49535 3.88189,-2.23093 7.4979,-2.93291 10.84884,-2.09459 3.36587,0.82949 6.0592,3.07179 8.07998,6.74826 m 10.23607,-14.71991 4.25553,18.10981 8.94053,-6.76216 -13.19606,-11.34765 m -6.18349,-3.60454 5.63365,-4.25728 31.15736,25.61315 -5.34812,4.04016 -7.89671,-6.7508 -11.69522,8.84018 2.56905,10.7645 -5.22461,3.95555 -9.1954,-42.20546 m 15.86658,-12.37667 4.54342,-4.45297 20.12367,26.18 13.48158,-13.22004 3.59006,4.67518 -18.02501,17.66918 -23.71372,-30.85135 m 25.12175,-18.09597 8.63689,8.43376 5.10899,-6.67251 c 1.59523,-2.07562 2.39599,-3.89114 2.40229,-5.42513 0.0165,-1.54788 -0.73627,-3.06671 -2.25913,-4.55525 -1.49848,-1.45444 -2.93246,-2.09076 -4.30036,-1.88243 -1.38049,0.19064 -2.79873,1.23475 -4.25552,3.13362 l -5.33316,6.96794 m -7.89278,1.27138 9.0129,-11.76434 c 1.45599,-1.90643 2.61309,-3.22578 3.47048,-3.98078 0.85504,-0.77898 1.74076,-1.3585 2.65716,-1.72967 1.75018,-0.76385 3.53499,-0.88758 5.35519,-0.37877 1.80762,0.48734 3.59084,1.59711 5.34889,3.30785 1.44893,1.41657 2.51871,2.98844 3.21013,4.72064 0.67884,1.71073 0.95651,3.51364 0.83381,5.39104 -0.092,1.28147 -0.42792,2.55411 -1.00843,3.82674 -0.58052,1.26002 -1.57792,2.81925 -2.99146,4.66888 l -5.36542,6.99826 10.77332,10.52325 -3.93537,5.14358 -27.3612,-26.72668 m 17.27065,-22.73958 13.46822,-25.02731 4.5332,3.11973 -10.39418,19.3118 8.07999,5.54885 9.59106,-17.83084 4.32317,2.97203 -9.59106,17.82326 9.33856,6.40864 10.7387,-19.95568 4.63781,3.17906 -13.81275,25.6712 -30.91272,-21.22074"
         id="path2204"
         style="font-size:15px;font-style:normal;font-variant:normal;font-weight:bold;font-stretch:normal;text-indent:0pt;text-align:center;text-decoration:none;line-height:100%;letter-spacing:normal;word-spacing:normal;text-transform:none;direction:ltr;text-anchor:middle;fill:#000000;fill-rule:nonzero;stroke:none;stroke-width:2;marker:none;visibility:visible;display:inline;overflow:visible;font-family:Swis721 Md BT" />
    </g>
  </g>
</svg>
