<?xml version="1.0" encoding="UTF-8" standalone="no"?>
<svg
   xmlns:dc="http://purl.org/dc/elements/1.1/"
   xmlns:cc="http://web.resource.org/cc/"
   xmlns:rdf="http://www.w3.org/1999/02/22-rdf-syntax-ns#"
   xmlns:svg="http://www.w3.org/2000/svg"
   xmlns="http://www.w3.org/2000/svg"
   xmlns:xlink="http://www.w3.org/1999/xlink"
   xmlns:sodipodi="http://sodipodi.sourceforge.net/DTD/sodipodi-0.dtd"
   xmlns:inkscape="http://www.inkscape.org/namespaces/inkscape"
   height="660"
   width="600"
   version="1.0"
   id="svg2"
   sodipodi:version="0.32"
   inkscape:version="0.45.1"
   sodipodi:docname="CoA_fr_Guadeloupe.svg"
   sodipodi:docbase="H:\001_Inkscape"
   inkscape:output_extension="org.inkscape.output.svg.inkscape">
  <metadata
     id="metadata49">
    <rdf:RDF>
      <cc:Work
         rdf:about="">
        <dc:format>image/svg+xml</dc:format>
        <dc:type
           rdf:resource="http://purl.org/dc/dcmitype/StillImage" />
        <dc:title>Gabarit d'un blason en pointe pour le projet Blasons de Wikipédia</dc:title>
        <dc:date>03-AUG-2006</dc:date>
        <dc:creator>
          <cc:Agent>
            <dc:title>Jérôme BLUM (wagner51)</dc:title>
          </cc:Agent>
        </dc:creator>
        <cc:license
           rdf:resource="http://web.resource.org/cc/PublicDomain" />
        <dc:language>fr</dc:language>
        <dc:subject>
          <rdf:Bag>
            <rdf:li>gabarit modèle blason projet wikipédia</rdf:li>
          </rdf:Bag>
        </dc:subject>
      </cc:Work>
      <cc:License
         rdf:about="http://web.resource.org/cc/PublicDomain">
        <cc:permits
           rdf:resource="http://web.resource.org/cc/Reproduction" />
        <cc:permits
           rdf:resource="http://web.resource.org/cc/Distribution" />
        <cc:permits
           rdf:resource="http://web.resource.org/cc/DerivativeWorks" />
      </cc:License>
    </rdf:RDF>
  </metadata>
  <sodipodi:namedview
     inkscape:window-height="746"
     inkscape:window-width="1024"
     inkscape:pageshadow="2"
     inkscape:pageopacity="0.0"
     guidetolerance="10.0"
     gridtolerance="10.0"
     objecttolerance="10.0"
     borderopacity="1.0"
     bordercolor="#666666"
     pagecolor="#ffffff"
     id="base"
     showgrid="true"
     height="660px"
     inkscape:zoom="0.41666667"
     inkscape:cx="300"
     inkscape:cy="457.27922"
     inkscape:window-x="102"
     inkscape:window-y="13"
     inkscape:current-layer="layer2" />
  <desc
     id="desc4">Flag of Canton of Valais (Wallis)</desc>
  <defs
     id="defs6">
    <linearGradient
       id="linearGradient2893">
      <stop
         style="stop-color:white;stop-opacity:0.3137255;"
         offset="0"
         id="stop2895" />
      <stop
         id="stop2897"
         offset="0.19"
         style="stop-color:white;stop-opacity:0.25098041;" />
      <stop
         style="stop-color:#6b6b6b;stop-opacity:0.1254902;"
         offset="0.60000002"
         id="stop2901" />
      <stop
         style="stop-color:black;stop-opacity:0.1254902;"
         offset="1"
         id="stop2899" />
    </linearGradient>
    <radialGradient
       inkscape:collect="always"
       xlink:href="#linearGradient2893"
       id="radialGradient2883"
       cx="203.19754"
       cy="218.01039"
       fx="203.19754"
       fy="218.01039"
       r="300"
       gradientTransform="matrix(1.360018,0,0,1.355087,-79.5275,-87.64524)"
       gradientUnits="userSpaceOnUse" />
    <linearGradient
       id="linearGradient2955">
      <stop
         style="stop-color:white;stop-opacity:0;"
         offset="0"
         id="stop2965" />
      <stop
         style="stop-color:black;stop-opacity:0.64583331;"
         offset="1"
         id="stop2959" />
    </linearGradient>
    <radialGradient
       inkscape:collect="always"
       xlink:href="#linearGradient2955"
       id="radialGradient2961"
       cx="225.52438"
       cy="218.90099"
       fx="225.52438"
       fy="218.90099"
       r="300"
       gradientTransform="matrix(-4.167939e-4,2.182867,-1.884232,-3.599562e-4,615.5972,-289.1214)"
       gradientUnits="userSpaceOnUse" />
    <polygon
       id="star"
       transform="scale(53,53)"
       points="0,-1 0.58778525,0.80901699 -0.95105652,-0.30901699 0.95105652,-0.30901699 -0.58778525,0.80901699 0,-1 " />
    <clipPath
       id="clip">
      <path
         d="M 0,-200 L 0,600 L 300,600 L 300,-200 L 0,-200 z "
         id="path10" />
    </clipPath>
    <radialGradient
       inkscape:collect="always"
       xlink:href="#linearGradient2955"
       id="radialGradient1911"
       gradientUnits="userSpaceOnUse"
       gradientTransform="matrix(-4.167939e-4,2.182867,-1.884232,-3.599562e-4,1395.597,-309.1214)"
       cx="225.52438"
       cy="218.90099"
       fx="225.52438"
       fy="218.90099"
       r="300" />
    <radialGradient
       inkscape:collect="always"
       xlink:href="#linearGradient2955"
       id="radialGradient2928"
       cx="-483.50824"
       cy="153.9283"
       fx="-483.50824"
       fy="153.9283"
       r="300.00003"
       gradientTransform="matrix(0,2.342476,-2.291353,0,562.9126,1323.77)"
       gradientUnits="userSpaceOnUse" />
    <radialGradient
       inkscape:collect="always"
       xlink:href="#linearGradient2893"
       id="radialGradient11919"
       gradientUnits="userSpaceOnUse"
       gradientTransform="matrix(1.551284,0,0,1.350335,-227.8943,-51.2635)"
       cx="285.18573"
       cy="200.44757"
       fx="285.18573"
       fy="200.44757"
       r="300" />
  </defs>
  <g
     inkscape:groupmode="layer"
     id="layer1"
     inkscape:label="Fond écu"
     sodipodi:insensitive="true">
    <path
       id="path2014"
       style="fill:#000000;fill-opacity:1;fill-rule:nonzero;stroke:none;stroke-width:5;stroke-linecap:round;stroke-linejoin:round;stroke-miterlimit:4;stroke-dashoffset:0;stroke-opacity:1"
       d="M 299.99993,658.49936 C 299.99993,619.9953 331.2031,588.7457 369.64989,588.7457 C 408.09669,588.7457 490.40303,588.7457 528.84981,588.7457 C 567.29661,588.7457 598.49989,557.49612 598.49989,518.99215 L 598.49989,1.4996597 L 1.5000104,1.4996796 L 1.5000005,518.99215 C 1.5000005,557.49612 32.703199,588.7457 71.149994,588.7457 C 109.5968,588.7457 191.90315,588.7457 230.34995,588.7457 C 268.79674,588.7457 299.99993,619.9953 299.99993,658.49936 z "
       sodipodi:nodetypes="cssccccssc" />
  </g>
  <g
     inkscape:groupmode="layer"
     id="layer5"
     inkscape:label="Pièce"
     sodipodi:insensitive="true">
    <rect
       style="opacity:1;fill:#2b5df2;fill-opacity:1;fill-rule:nonzero;stroke:#000000;stroke-width:2.90240884;stroke-miterlimit:4;stroke-dasharray:none;stroke-opacity:1;display:inline"
       id="rect2230"
       width="596.46588"
       height="179.00894"
       x="1.7670593"
       y="2.8955283" />
  </g>
  <g
     inkscape:groupmode="layer"
     id="layer2"
     inkscape:label="Meubles"
     style="display:inline"
     sodipodi:insensitive="true">
    <g
       id="g8665"
       transform="translate(521.69063,333.03657)">
      <g
         style="fill:#5ab532;fill-opacity:1"
         id="g7659">
        <path
           d="M -134.54136,91.15503 C -134.54136,92.08206 -131.39328,94.12152 -127.50448,95.79018 C -121.02315,98.57127 -113.24554,101.35236 -55.83943,121.93242 C -31.21036,130.83191 -21.58095,133.42759 -21.58095,131.01732 C -21.58095,130.09029 -43.80267,121.93242 -71.02428,113.03293 C -98.43106,103.94804 -123.80086,95.04855 -127.50448,93.00909 C -131.39328,91.15503 -134.54136,90.4134 -134.54136,91.15503 z "
           id="path2271"
           style="fill:#5ab532;fill-opacity:1;stroke:#000000;stroke-width:0.75839216;stroke-miterlimit:4;stroke-dasharray:none;stroke-opacity:1" />
        <path
           d="M -108.43035,107.23258 C -107.31926,109.08664 -39.35783,136.89754 -27.87661,140.23485 C -23.61745,141.53269 -21.76564,138.00998 -26.0248,136.52673 C -27.32107,136.15592 -40.09856,131.52077 -54.3575,126.3294 C -76.20885,118.35694 -87.13453,114.27801 -106.9489,106.30555 C -108.61553,105.74933 -109.17107,106.12014 -108.43035,107.23258 z "
           id="path2275"
           style="fill:#5ab532;fill-opacity:1;stroke:#000000;stroke-width:0.75839216;stroke-miterlimit:4;stroke-dasharray:none;stroke-opacity:1" />
        <path
           d="M -315.94516,-3.77054 C -313.85828,1.33066 -306.45504,4.81771 -296.51965,5.67602 C -289.79584,6.15322 -292.8801,3.25352 -302.27681,-0.17075 C -306.69048,-1.58185 -311.83154,-4.24453 -314.01439,-5.82921 C -317.85803,-8.80832 -317.85803,-8.80832 -315.94516,-3.77054 z "
           id="path2245"
           style="fill:#5ab532;fill-opacity:1;stroke:#000000;stroke-width:0.75839216;stroke-miterlimit:4;stroke-dasharray:none;stroke-opacity:1" />
        <path
           d="M -409.53415,-41.93937 C -404.1639,-33.96691 -398.05293,-28.21932 -386.20135,-20.24686 C -377.49784,-14.31386 -369.90542,-9.67871 -369.53506,-10.04953 C -368.79433,-10.97656 -412.12669,-51.20967 -415.08958,-52.3221 C -416.20067,-52.69292 -413.79332,-48.05777 -409.53415,-41.93937 z "
           id="path2217"
           style="fill:#5ab532;fill-opacity:1;stroke:#000000;stroke-width:0.75839216;stroke-miterlimit:4;stroke-dasharray:none;stroke-opacity:1" />
        <path
           d="M -298.04524,0.51132 C -294.02461,2.38809 -288.8908,3.86708 -286.30178,3.95437 C -283.24201,4.05748 -284.05425,3.3046 -289.7649,1.08067 C -294.23506,-0.66614 -299.58117,-3.60326 -301.95423,-5.42448 C -306.2084,-8.90519 -306.2084,-8.90519 -305.76258,-5.84304 C -305.50782,-4.09327 -302.30127,-1.37333 -298.04524,0.51132 z "
           id="path1415"
           style="fill:#5ab532;fill-opacity:1;stroke:#000000;stroke-width:0.75638485;stroke-miterlimit:4;stroke-dasharray:none;stroke-opacity:1" />
        <path
           d="M -323.05513,-35.66219 C -320.46259,-25.27946 -309.72209,-6.18264 -306.01847,-5.44102 C -302.68522,-4.8848 -302.68522,-5.07021 -305.46293,-8.22211 C -310.09246,-13.59888 -320.09223,-33.25191 -320.09223,-36.96003 C -320.09223,-38.9995 -321.01814,-40.48274 -322.12922,-40.48274 C -323.42549,-40.48274 -323.79585,-38.62868 -323.05513,-35.66219 z "
           id="path2221"
           style="fill:#5ab532;fill-opacity:1;stroke:#000000;stroke-width:0.75839216;stroke-miterlimit:4;stroke-dasharray:none;stroke-opacity:1" />
        <path
           d="M -434.36234,-48.68096 C -434.42665,-48.31579 -430.95065,-45.6312 -426.59497,-42.60305 C -422.23928,-39.57489 -417.1647,-35.29024 -415.48022,-33.11019 C -412.59405,-29.21187 -396.24438,-19.54789 -394.71055,-20.78324 C -393.20888,-21.83599 -414.26885,-38.92086 -423.17316,-43.88162 C -433.77251,-49.89469 -434.13725,-49.95909 -434.36234,-48.68096 z "
           id="path2495"
           style="fill:#5ab532;fill-opacity:1;stroke:#000000;stroke-width:0.75839216;stroke-miterlimit:4;stroke-dasharray:none;stroke-opacity:1" />
        <path
           d="M -428.39652,-34.41711 C -428.39652,-34.0463 -424.50771,-32.00683 -419.69301,-29.78196 C -414.8783,-27.55709 -409.13769,-24.21977 -407.1007,-22.36571 C -403.58226,-19.0284 -385.80488,-12.35379 -384.50862,-13.83704 C -383.21235,-15.13488 -406.91552,-28.29871 -416.54493,-31.63602 C -428.02615,-35.71495 -428.39652,-35.71495 -428.39652,-34.41711 z "
           id="path2223"
           style="fill:#5ab532;fill-opacity:1;stroke:#000000;stroke-width:0.75839216;stroke-miterlimit:4;stroke-dasharray:none;stroke-opacity:1" />
        <path
           d="M -345.80579,-27.87514 C -338.76891,-14.89672 -331.54685,-6.36805 -328.58396,-7.29508 C -327.10252,-7.8513 -330.43577,-13.22807 -337.65782,-21.94215 C -344.13916,-29.54379 -349.69459,-36.21841 -350.25013,-36.77462 C -350.80568,-37.33084 -348.76868,-33.25191 -345.80579,-27.87514 z "
           id="path2225"
           style="fill:#5ab532;fill-opacity:1;stroke:#000000;stroke-width:0.75839216;stroke-miterlimit:4;stroke-dasharray:none;stroke-opacity:1" />
        <path
           d="M -336.70533,-32.93386 C -336.70533,-30.8944 -329.48326,-16.80353 -325.22411,-10.87054 C -322.81676,-7.53323 -320.03905,-5.67917 -316.89097,-5.67917 C -312.26144,-5.67917 -312.26144,-5.67917 -319.29832,-13.65163 C -323.3723,-17.91597 -328.74254,-24.40518 -331.52026,-27.9279 C -334.29797,-31.45062 -336.70533,-33.67549 -336.70533,-32.93386 z "
           id="path2227"
           style="fill:#5ab532;fill-opacity:1;stroke:#000000;stroke-width:0.75839216;stroke-miterlimit:4;stroke-dasharray:none;stroke-opacity:1" />
        <path
           d="M -353.73109,-26.94761 C -353.73109,-24.16652 -340.19423,-5.62592 -338.09697,-5.62592 C -337.14367,-5.62592 -339.43159,-10.07567 -343.43545,-15.45244 C -352.39647,-27.68924 -353.73109,-28.98708 -353.73109,-26.94761 z "
           id="path2229"
           style="fill:#5ab532;fill-opacity:1;stroke:#000000;stroke-width:0.76952994;stroke-miterlimit:4;stroke-dasharray:none;stroke-opacity:1" />
        <path
           d="M -366.51922,24.14383 C -378.74116,28.96438 -381.3337,30.63304 -381.3337,33.22872 C -381.3337,34.34116 -380.03743,34.15575 -378.00044,32.4871 C -376.33381,30.81844 -370.22284,28.59357 -364.66741,27.29573 C -359.11198,25.99789 -352.44546,23.77302 -349.85293,22.47517 L -345.2234,20.0649 L -350.77883,20.0649 C -353.74173,20.2503 -360.96379,22.10436 -366.51922,24.14383 z "
           id="path2249"
           style="fill:#5ab532;fill-opacity:1;stroke:#000000;stroke-width:0.75839216;stroke-miterlimit:4;stroke-dasharray:none;stroke-opacity:1" />
        <path
           d="M -401.22305,-7.35152 C -392.09184,0.96194 -361.55253,16.66651 -346.07815,21.28731 C -341.88521,22.52162 -335.08206,22.80473 -331.23777,21.99575 L -324.07123,20.56801 L -331.14436,16.83177 C -342.5531,10.92672 -361.28895,-1.58159 -368.01468,-7.61476 C -375.3418,-14.21801 -375.1038,-11.93707 -367.64939,-2.81526 C -364.73722,0.85884 -356.12869,7.1924 -348.58087,11.15026 C -340.96971,15.28233 -335.65272,19.06658 -336.52279,19.38366 C -338.78496,20.20801 -359.67229,8.28644 -375.55995,-2.89213 C -392.82436,-15.14743 -393.5364,-15.47986 -387.11072,-7.5616 C -383.9612,-3.7767 -378.13752,1.40137 -373.91259,3.80783 C -369.79833,6.45196 -366.98149,8.77964 -367.85156,9.0967 C -369.59169,9.73085 -380.41505,3.80976 -394.54595,-5.24673 C -398.48619,-7.95427 -403.85052,-11.32666 -406.17667,-12.84663 C -408.74017,-14.47743 -406.44537,-11.9595 -401.22305,-7.35152 z "
           id="path2474"
           style="fill:#5ab532;fill-opacity:1;stroke:#000000;stroke-width:0.75839216;stroke-miterlimit:4;stroke-dasharray:none;stroke-opacity:1" />
        <path
           d="M -399.8784,-9.94425 L -407.28564,-7.53397 L -401.73021,-6.60694 C -398.76731,-5.86532 -394.87851,-6.23613 -393.0267,-7.16316 C -391.36007,-8.09019 -388.02682,-8.83182 -385.61946,-9.01722 C -381.54548,-9.01722 -381.54548,-9.20263 -385.06392,-10.68588 C -389.69344,-12.72534 -390.80453,-12.72534 -399.8784,-9.94425 z "
           id="path2237"
           style="fill:#5ab532;fill-opacity:1;stroke:#000000;stroke-width:0.75839216;stroke-miterlimit:4;stroke-dasharray:none;stroke-opacity:1" />
        <path
           d="M -390.75133,-4.91191 C -393.89941,-2.50163 -393.71422,-2.31622 -386.86253,-3.42866 C -382.78855,-3.98488 -376.86275,-5.09731 -373.89986,-5.83894 C -369.08515,-7.13678 -369.45551,-7.32219 -377.78866,-7.50759 C -383.34409,-7.693 -388.52916,-6.58056 -390.75133,-4.91191 z "
           id="path2241"
           style="fill:#5ab532;fill-opacity:1;stroke:#000000;stroke-width:0.75839216;stroke-miterlimit:4;stroke-dasharray:none;stroke-opacity:1" />
        <path
           d="M -436.75626,-24.40568 C -406.2014,-18.8435 -344.90648,1.73657 -348.6101,5.25928 C -349.53601,6.18631 -366.75784,1.92197 -369.1652,0.25332 C -370.0911,-0.67371 -379.16497,-0.3029 -389.16474,0.99494 C -407.86802,3.03441 -411.0161,4.70306 -410.64574,12.30471 C -410.46056,16.01283 -410.46056,16.01283 -409.53465,12.30471 C -407.86802,5.44469 -405.09031,3.96144 -394.53499,3.96144 C -383.05377,3.96144 -351.573,8.59659 -337.68443,12.30471 C -319.16633,17.49608 -318.61078,17.49608 -324.72176,14.15877 C -332.68454,9.70902 -344.7213,1.55116 -346.94348,-0.85912 C -351.01746,-5.49427 -424.90467,-25.88893 -435.64517,-25.51812 C -440.64506,-25.1473 -440.83024,-25.1473 -436.75626,-24.40568 z "
           id="path2231"
           style="fill:#5ab532;fill-opacity:1;stroke:#000000;stroke-width:0.75839216;stroke-miterlimit:4;stroke-dasharray:none;stroke-opacity:1" />
        <path
           d="M -422.7086,-14.52639 C -424.93077,-12.85774 -427.33813,-8.96421 -427.89367,-5.81231 C -429.00476,-0.43554 -429.00476,-0.43554 -426.04186,-3.95825 C -418.26426,-13.78477 -417.70872,-14.15558 -408.07931,-14.34099 C -400.3017,-14.52639 -399.19062,-14.89721 -402.89424,-16.00964 C -410.67184,-18.41992 -418.44944,-17.8637 -422.7086,-14.52639 z "
           id="path2235"
           style="fill:#5ab532;fill-opacity:1;stroke:#000000;stroke-width:0.75839216;stroke-miterlimit:4;stroke-dasharray:none;stroke-opacity:1" />
        <path
           d="M -328.31899,-3.08447 C -326.83754,-0.48879 -312.39342,6.74205 -311.28234,5.62961 C -310.72679,5.07339 -312.39342,3.59014 -314.6156,2.2923 C -317.02295,0.99446 -320.17103,-1.04501 -321.46729,-2.52825 C -324.43019,-5.30934 -329.98562,-5.86556 -328.31899,-3.08447 z "
           id="path2243"
           style="fill:#5ab532;fill-opacity:1;stroke:#000000;stroke-width:0.75839216;stroke-miterlimit:4;stroke-dasharray:none;stroke-opacity:1" />
        <path
           d="M -327.20485,14.53066 C -325.7234,17.12634 -311.27928,24.35717 -310.1682,23.24474 C -309.61265,22.68852 -311.27928,21.20527 -313.50145,19.90743 C -315.90881,18.60959 -319.05688,16.57012 -320.35315,15.08687 C -323.31605,12.30578 -328.87148,11.74957 -327.20485,14.53066 z "
           id="path1533"
           style="fill:#5ab532;fill-opacity:1;stroke:#000000;stroke-width:0.75839216;stroke-miterlimit:4;stroke-dasharray:none;stroke-opacity:1" />
        <path
           d="M -347.90764,-7.54502 C -347.6412,-7.80258 -343.47456,-6.41852 -338.53146,-4.49641 C -333.58835,-2.57431 -327.20295,-0.75815 -324.45583,-0.57903 C -319.61395,-0.36331 -302.46924,7.80363 -302.63447,9.76753 C -302.66644,11.60271 -328.58983,3.67568 -337.67669,-0.9412 C -348.5829,-6.37672 -348.84018,-6.6434 -347.90764,-7.54502 z "
           id="path3304"
           style="fill:#5ab532;fill-opacity:1;stroke:#000000;stroke-width:0.75839216;stroke-miterlimit:4;stroke-dasharray:none;stroke-opacity:1" />
        <path
           d="M -317.2353,6.00508 C -320.68989,7.3418 -324.16404,9.75946 -325.24348,11.48901 C -326.51918,13.53304 -325.43957,13.55259 -320.98397,11.31174 C -317.49013,9.56229 -312.44555,8.12717 -309.67789,7.89106 C -304.49583,7.63509 -304.49583,7.63509 -307.7937,5.57183 C -309.67822,4.39282 -313.68256,4.51112 -317.2353,6.00508 z "
           id="path3302"
           style="fill:#5ab532;fill-opacity:1;stroke:#000000;stroke-width:0.75839216;stroke-miterlimit:4;stroke-dasharray:none;stroke-opacity:1" />
        <path
           d="M -338.56119,19.31095 C -349.11549,28.78776 -351.44947,35.39549 -348.06879,45.21273 L -345.14592,53.61937 L -345.95984,45.1115 C -347.2182,33.43415 -344.0742,28.1225 -331.2965,18.89712 C -325.29072,14.60398 -320.51777,10.71189 -320.63221,10.35922 C -321.26166,8.41958 -333.1938,14.25072 -338.56119,19.31095 z "
           id="path3300"
           style="fill:#5ab532;fill-opacity:1;stroke:#000000;stroke-width:0.75839216;stroke-miterlimit:4;stroke-dasharray:none;stroke-opacity:1" />
        <path
           d="M -403.89919,-56.48068 C -398.15858,-45.54172 -374.82577,-20.32651 -361.8631,-10.68539 C -358.34466,-8.08971 -352.04851,-5.49403 -348.15971,-4.93781 L -340.93765,-3.82537 L -346.3079,-9.75836 C -355.0114,-19.21407 -368.34444,-37.38386 -372.6036,-45.35632 C -377.23312,-54.0704 -377.78867,-51.84553 -373.89987,-40.72117 C -372.41842,-36.27142 -366.49263,-27.37193 -360.75202,-21.06813 C -355.0114,-14.57892 -351.30778,-9.20215 -352.23369,-9.20215 C -354.64104,-9.20215 -370.19625,-27.55734 -381.30711,-43.50226 C -393.34387,-60.93042 -393.89941,-61.48664 -390.56616,-51.84553 C -388.89953,-47.21038 -385.19591,-40.35035 -382.04783,-36.64223 C -379.08493,-32.74871 -377.23312,-29.59681 -378.15903,-29.59681 C -380.01084,-29.59681 -388.1588,-38.86711 -398.34376,-52.21634 C -401.12147,-56.10986 -405.01027,-61.11583 -406.6769,-63.3407 C -408.52871,-65.75098 -407.23245,-62.59907 -403.89919,-56.48068 z "
           id="path2215"
           style="fill:#5ab532;fill-opacity:1;stroke:#000000;stroke-width:0.75839216;stroke-miterlimit:4;stroke-dasharray:none;stroke-opacity:1" />
        <path
           d="M -344.16576,-4.56724 C -344.16576,-3.2694 -341.38805,0.06791 -338.05479,2.6636 C -328.24019,10.07984 -302.12967,22.50204 -298.79642,21.2042 C -296.75942,20.46257 -299.9075,18.42311 -308.79619,15.0858 C -324.35139,8.9674 -338.61033,0.80954 -338.61033,-1.97155 C -338.61033,-3.4548 -332.49936,-3.64021 -317.31452,-2.71318 C -294.53725,-1.41534 -287.68556,-4.01102 -308.42583,-5.86508 C -330.27719,-8.08995 -344.16576,-7.53373 -344.16576,-4.56724 z "
           id="path2239"
           style="fill:#5ab532;fill-opacity:1;stroke:#000000;stroke-width:0.75839216;stroke-miterlimit:4;stroke-dasharray:none;stroke-opacity:1" />
        <path
           d="M -393.05354,15.2712 C -401.01633,17.12526 -405.27549,19.90635 -405.27549,23.24366 C -405.27549,24.5415 -404.53477,24.3561 -403.60886,22.87285 C -402.12741,20.46257 -386.94257,16.01283 -385.46112,17.49608 C -385.09076,17.86689 -385.6463,20.64798 -386.75739,23.42907 C -387.86848,26.21016 -388.23884,28.99125 -387.6833,29.54747 C -387.12775,30.28909 -386.20185,28.80584 -385.6463,26.76638 C -383.42413,18.79392 -376.57244,16.38364 -360.09133,17.86689 C -351.75818,18.60851 -342.49913,19.53554 -339.53624,19.72095 C -336.38816,19.90635 -332.129,21.01879 -329.90682,22.31663 C -325.09212,24.91232 -306.38884,25.09772 -308.05547,22.50204 C -308.61101,21.57501 -312.12945,20.27717 -316.01825,19.72095 C -319.72187,19.16473 -327.49947,17.31067 -333.24008,15.82742 C -344.7213,12.86093 -381.38714,12.49011 -393.05354,15.2712 z "
           id="path2247"
           style="fill:#5ab532;fill-opacity:1;stroke:#000000;stroke-width:0.75839216;stroke-miterlimit:4;stroke-dasharray:none;stroke-opacity:1" />
        <path
           d="M -325.43118,36.67262 C -339.38784,34.18014 -346.02541,36.4068 -351.67078,45.11817 L -356.48776,52.59986 L -350.2927,46.71974 C -341.87668,38.53765 -335.76051,37.74799 -320.63288,42.14946 C -313.55638,44.24472 -307.5546,45.61422 -307.3475,45.3068 C -306.20846,43.61601 -318.14401,37.792 -325.43118,36.67262 z "
           id="path3298"
           style="fill:#5ab532;fill-opacity:1;stroke:#000000;stroke-width:0.75839216;stroke-miterlimit:4;stroke-dasharray:none;stroke-opacity:1" />
        <path
           d="M -343.50334,31.5073 C -369.2435,38.55273 -372.2064,41.14841 -368.50278,52.82899 C -367.02133,57.27873 -367.02133,57.09333 -366.83615,51.34574 C -366.65097,48.19384 -364.98434,43.7441 -363.13253,41.89004 C -359.79927,38.55273 -344.79961,34.28839 -326.46669,31.32189 C -322.02234,30.76568 -319.05945,29.46783 -319.61499,28.5408 C -321.09644,26.13053 -327.02223,26.87215 -343.50334,31.5073 z "
           id="path2253"
           style="fill:#5ab532;fill-opacity:1;stroke:#000000;stroke-width:0.75839216;stroke-miterlimit:4;stroke-dasharray:none;stroke-opacity:1" />
        <path
           d="M -321.62662,40.56581 C -334.58929,46.3134 -338.84845,51.87558 -338.66327,62.25831 L -338.47809,71.1578 L -336.62628,62.81453 C -334.21893,51.31936 -329.5894,47.24043 -314.58974,42.41987 C -307.55287,40.195 -301.81225,37.97013 -301.81225,37.59932 C -301.81225,35.55985 -314.96011,37.41391 -321.62662,40.56581 z "
           id="path2257"
           style="fill:#5ab532;fill-opacity:1;stroke:#000000;stroke-width:0.75839216;stroke-miterlimit:4;stroke-dasharray:none;stroke-opacity:1" />
        <path
           d="M -324.08692,56.4836 C -326.30909,59.4501 -327.97572,63.34362 -327.97572,65.38309 C -327.97572,67.79337 -327.04981,67.23715 -324.45728,62.97281 C -322.42029,59.6355 -318.90185,55.74198 -316.67968,54.07332 C -312.42052,51.10683 -312.42052,51.10683 -316.30932,51.10683 C -318.53149,51.10683 -321.86475,53.3317 -324.08692,56.4836 z "
           id="path2263"
           style="fill:#5ab532;fill-opacity:1;stroke:#000000;stroke-width:0.75839216;stroke-miterlimit:4;stroke-dasharray:none;stroke-opacity:1" />
        <path
           d="M -123.87596,86.69824 C -117.86259,89.3072 -86.66456,97.18464 -64.59046,103.65688 C -42.51636,110.1291 -16.70742,117.58028 -10.99472,118.38305 C -2.82923,100.5638 -17.68938,133.89357 -9.20867,113.69327 C -20.2332,110.88361 -63.68789,100.64692 -81.12668,95.62969 C -96.16012,91.41521 -117.48696,84.8411 -122.9491,83.63696 C -128.41125,82.43282 -128.48622,84.69135 -123.87596,86.69824 z "
           id="path2267"
           style="fill:#5ab532;fill-opacity:1;stroke:#000000;stroke-width:0.82090807;stroke-miterlimit:4;stroke-dasharray:none;stroke-opacity:1"
           sodipodi:nodetypes="cscccsc" />
        <path
           d="M -120.0613,82.07242 C -113.96064,84.46969 -82.50704,91.25221 -60.22077,96.94919 C -37.93452,102.64616 -11.88159,109.19099 -6.14438,109.79365 C 1.39502,91.69994 -12.29431,125.52866 -4.52289,105.04432 C -15.63865,102.62159 -59.42369,93.90953 -77.02673,89.50469 C -92.19793,85.81808 -113.74091,79.99318 -119.24171,78.98063 C -124.7425,77.96808 -124.7387,80.22784 -120.0613,82.07242 z "
           id="path2162"
           style="fill:#5ab532;fill-opacity:1;stroke:#000000;stroke-width:0.82090807;stroke-miterlimit:4;stroke-dasharray:none;stroke-opacity:1"
           sodipodi:nodetypes="cscccsc" />
        <path
           d="M -128.69862,90.05967 C -122.82987,92.98016 -92.08637,102.48156 -70.38084,110.1016 C -48.67531,117.72162 -23.29123,126.51497 -17.62832,127.61598 C -8.54257,110.24902 -25.12459,142.75444 -15.59958,123.02621 C -26.46214,119.64273 -69.32217,107.14307 -86.47479,101.21892 C -101.26733,96.22246 -122.2213,88.53985 -127.61302,87.05116 C -133.00474,85.56245 -133.19765,87.81395 -128.69862,90.05967 z "
           id="path2183"
           style="fill:#5ab532;fill-opacity:1;stroke:#000000;stroke-width:0.82090807;stroke-miterlimit:4;stroke-dasharray:none;stroke-opacity:1"
           sodipodi:nodetypes="cscccsc" />
        <path
           d="M -132.44347,93.85629 C -126.73542,97.0803 -96.53072,108.17963 -75.25325,116.92658 C -53.97578,125.67351 -29.08615,135.78493 -23.48855,137.18116 C -13.50744,120.31409 -31.76587,151.90608 -21.22266,132.70398 C -31.89348,128.75595 -74.04138,114.02757 -90.86083,107.21275 C -105.37193,101.44802 -125.89558,92.67796 -131.20209,90.90878 C -136.5086,89.1396 -136.81895,91.3779 -132.44347,93.85629 z "
           id="path2185"
           style="fill:#5ab532;fill-opacity:1;stroke:#000000;stroke-width:0.82090807;stroke-miterlimit:4;stroke-dasharray:none;stroke-opacity:1"
           sodipodi:nodetypes="cscccsc" />
        <path
           d="M -135.9703,98.63892 C -130.37812,102.06042 -100.57869,114.20839 -79.61907,123.6935 C -58.65946,133.17857 -34.13746,144.15352 -28.59192,145.74448 C -18.02896,129.23646 -37.37748,160.17121 -26.17136,141.34922 C -36.69806,137.03073 -78.30691,120.8386 -94.87855,113.44022 C -109.17988,107.17195 -129.38533,97.6901 -134.62694,95.73657 C -139.86855,93.78305 -140.25672,96.00915 -135.9703,98.63892 z "
           id="path2187"
           style="fill:#5ab532;fill-opacity:1;stroke:#000000;stroke-width:0.82090807;stroke-miterlimit:4;stroke-dasharray:none;stroke-opacity:1"
           sodipodi:nodetypes="cscccsc" />
        <path
           d="M -139.95095,102.99719 C -134.54528,106.70704 -105.42169,120.39982 -84.98661,130.9702 C -64.55153,141.54056 -40.63682,153.78541 -35.18205,155.66479 C -23.77064,139.73287 -44.70969,169.61138 -32.53505,151.40237 C -42.82159,146.5382 -83.52701,128.18799 -99.68921,119.9314 C -113.64328,112.92235 -133.32541,102.39473 -138.45772,100.16921 C -143.59003,97.94372 -144.09403,100.14642 -139.95095,102.99719 z "
           id="path2189"
           style="fill:#5ab532;fill-opacity:1;stroke:#000000;stroke-width:0.82090807;stroke-miterlimit:4;stroke-dasharray:none;stroke-opacity:1"
           sodipodi:nodetypes="cscccsc" />
      </g>
      <g
         style="fill:#ffd700;fill-opacity:1;stroke:none;stroke-width:0.49853653;stroke-miterlimit:4;stroke-dasharray:none;stroke-opacity:1"
         transform="matrix(1.1677625,0,0,1.1691814,-592.90668,206.96342)"
         id="g2400">
        <path
           style="fill:#ffd700;fill-opacity:1;stroke:none;stroke-width:0.49853653;stroke-miterlimit:4;stroke-dasharray:none;stroke-opacity:1"
           d="M 0,642.094 L 0,642.094 L 0,642.094 z "
           id="path2402" />
        <path
           style="fill:#fdef3c;fill-opacity:1;stroke:none;stroke-width:0.49853653;stroke-miterlimit:4;stroke-dasharray:none;stroke-opacity:1"
           d="M 333.02373,-55.211793 L 338.15973,-51.543793 C 345.52273,-46.414793 349.57173,-39.285793 349.17073,-31.928793 L 348.89873,-25.852793 L 351.31573,-31.830793 C 353.95973,-38.086793 353.59573,-47.559793 350.47273,-54.575793 L 348.65073,-58.666793 L 354.43673,-56.147793 C 362.70473,-52.660793 368.14873,-46.530793 369.28573,-39.248793 L 370.28273,-33.248793 L 371.40373,-39.600793 C 372.68873,-46.270793 370.36473,-55.457793 365.84973,-61.670793 L 363.21673,-65.295793 L 369.40073,-64.034793 C 378.21273,-62.342793 384.81173,-57.477793 387.43873,-50.590793 L 389.66173,-44.928793 L 389.43673,-51.375793 C 389.30773,-58.166793 385.12273,-66.670793 379.41573,-71.809793 L 376.08673,-74.807793 L 382.39773,-74.858793 C 391.36873,-75.035793 398.83573,-71.649793 402.83673,-65.457793 L 406.18673,-60.383793 L 404.62773,-66.641793 C 403.08973,-73.254793 397.22873,-80.703793 390.57773,-84.543793 L 386.69773,-86.784793 L 392.86073,-88.145793 C 401.59873,-90.186793 409.60673,-88.424793 414.80673,-83.201793 L 419.13873,-78.934793 L 416.31173,-84.731793 C 413.43273,-90.881793 406.15073,-96.950793 398.84673,-99.323793 L 394.58573,-100.70579 L 400.33073,-103.31979 C 408.45273,-107.13179 416.65173,-107.07379 422.82473,-103.04779 L 427.95073,-99.772793 L 423.98073,-104.85679 C 419.88473,-110.27479 411.50073,-114.69479 403.86273,-115.49679 L 399.40873,-115.96379 L 404.48473,-119.71579 C 411.63673,-125.13179 419.66873,-126.78279 426.54373,-124.12579 L 432.23873,-121.98979 L 427.29873,-126.13579 C 422.16573,-130.58279 413.04573,-133.16479 405.40773,-132.36079 L 400.95373,-131.89379 L 405.13773,-136.61879 C 411.00773,-143.40379 418.52173,-146.68679 425.79873,-145.51679 L 431.81273,-144.61279 L 426.11773,-147.63979 C 420.17273,-150.92279 410.71573,-151.55179 403.41173,-149.17879 L 399.15073,-147.79579 L 402.26073,-153.28579 C 406.59173,-161.14379 413.25873,-165.91679 420.61973,-166.28779 L 426.69073,-166.65179 L 420.49073,-168.42879 C 413.99273,-170.40379 404.61173,-169.05179 397.96073,-165.21379 L 394.08073,-162.97379 L 395.98273,-168.99179 C 398.58573,-177.57779 404.11373,-183.63179 411.23773,-185.52479 L 417.10073,-187.14379 L 410.66673,-187.59279 C 403.89973,-188.17479 395.00473,-184.90379 389.29773,-179.76479 L 385.96873,-176.76679 L 386.57773,-183.04779 C 387.33773,-191.98979 391.48673,-199.05979 398.06173,-202.39379 L 403.45973,-205.19479 L 397.07273,-204.29779 C 390.33273,-203.45979 382.31273,-198.40979 377.79873,-192.19679 L 375.16573,-188.57179 L 374.45573,-194.84279 C 373.34073,-203.74479 375.92773,-211.52679 381.66573,-216.15179 L 386.36273,-220.01479 L 380.30173,-217.80979 C 373.88373,-215.58879 367.08973,-208.98179 363.96573,-201.96579 L 362.14373,-197.87179 L 360.14473,-203.85879 C 357.20273,-212.33479 358.11673,-220.48379 362.76773,-226.20079 L 366.55973,-230.95577 L 361.08973,-227.53979 C 355.27373,-224.03279 350.00073,-216.15779 348.40373,-208.64579 L 347.47273,-204.26279 L 344.27273,-209.70179 C 339.63273,-217.38379 338.83273,-225.54179 342.19273,-232.10281 L 344.91273,-237.54177 L 340.27273,-233.06381 C 335.31273,-228.42279 331.79273,-219.62179 331.79273,-211.94279 L 331.79273,-207.46379 L 327.53173,-212.11879 C 321.39773,-218.66479 318.91873,-226.48179 320.84073,-233.59677 L 322.36873,-239.48379 L 318.76173,-234.13577 C 314.87473,-228.56779 313.26173,-219.22779 314.85873,-211.71379 L 315.78873,-207.33279 L 310.65373,-211.00079 C 303.29073,-216.12979 299.24173,-223.25879 299.64273,-230.6188 L 299.91373,-236.69479 L 297.49673,-230.71377 C 294.85373,-224.45779 295.21773,-214.98779 298.33973,-207.97179 L 300.16173,-203.87779 L 294.37573,-206.39779 C 286.10773,-209.88379 280.66373,-216.01479 279.52673,-223.29579 L 278.52973,-229.29579 L 277.40973,-222.94479 C 276.12473,-216.27679 278.44773,-207.08679 282.96373,-200.87379 L 285.59573,-197.25079 L 279.41273,-198.51279 C 270.60073,-200.20379 264.00173,-205.06779 261.37473,-211.95579 L 259.15173,-217.61679 L 259.37673,-211.17079 C 259.50573,-204.37979 263.69073,-195.87579 269.39773,-190.73779 L 272.72673,-187.73979 L 266.41573,-187.68879 C 257.44473,-187.51079 249.97773,-190.89779 245.97673,-197.08679 L 242.62573,-202.16279 L 244.18573,-195.90579 C 245.72373,-189.28979 251.58473,-181.84079 258.23573,-178.00079 L 262.11473,-175.76079 L 255.95273,-174.39979 C 247.21473,-172.36079 239.20673,-174.11979 234.00673,-179.34279 L 229.67373,-183.61079 L 232.50073,-177.81379 C 235.38073,-171.66279 242.66273,-165.59679 249.96673,-163.22379 L 254.22773,-161.83879 L 248.48273,-159.22579 C 240.35973,-155.41279 232.16073,-155.47179 225.98773,-159.49879 L 220.86173,-162.77279 L 224.83173,-157.69079 C 228.92773,-152.27279 237.31173,-147.85279 244.94973,-147.04979 L 249.40473,-146.58079 L 244.32873,-142.83079 C 237.17573,-137.41279 229.14373,-135.76479 222.26873,-138.42079 L 216.57373,-140.55579 L 221.51373,-136.41079 C 226.64673,-131.96179 235.76673,-129.38179 243.40473,-130.18479 L 247.85973,-130.65179 L 243.67473,-125.92879 C 237.80473,-119.14179 230.29073,-115.86079 223.01373,-117.02879 L 216.99973,-117.93479 L 222.69473,-114.90579 C 228.64073,-111.62179 238.09773,-110.99379 245.40173,-113.36679 L 249.66273,-114.75079 L 246.55173,-109.25879 C 242.22073,-101.40179 235.55373,-96.627793 228.19273,-96.258793 L 222.12173,-95.895793 L 228.32173,-94.116793 C 234.81973,-92.141793 244.20073,-93.493793 250.85173,-97.332793 L 254.73173,-99.573793 L 252.83073,-93.555793 C 250.22773,-84.967793 244.69973,-78.912793 237.57573,-77.020793 L 231.71273,-75.401793 L 238.14673,-74.951793 C 244.91373,-74.371793 253.80873,-77.643793 259.51573,-82.782793 L 262.84473,-85.780793 L 262.23573,-79.496793 C 261.47573,-70.557793 257.32673,-63.485793 250.75173,-60.153793 L 245.35373,-57.350793 L 251.74073,-58.246793 C 258.48073,-59.084793 266.50073,-64.137793 271.01473,-70.350793 L 273.64773,-73.973793 L 274.35873,-67.701793 C 275.47373,-58.799793 272.88573,-51.020793 267.14773,-46.393793 L 262.44973,-42.530793 L 268.51073,-44.735793 C 274.92873,-46.955793 281.72373,-53.565793 284.84773,-60.580793 L 286.66873,-64.672793 L 288.66773,-58.688793 C 291.60973,-50.209793 290.69573,-42.063793 286.04473,-36.344793 L 282.25273,-31.588793 L 287.72273,-35.006793 C 293.53873,-38.512793 298.81173,-46.389793 300.40873,-53.901793 L 301.33973,-58.282793 L 304.53973,-52.842793 C 309.17973,-45.162793 309.97973,-37.002793 306.61973,-30.442793 L 303.89973,-25.002793 L 308.53973,-29.483793 C 313.49973,-34.121793 317.01973,-42.922793 317.01973,-50.602793 L 317.01973,-55.082793 L 321.28073,-50.426793 C 327.41473,-43.879793 329.89373,-36.063793 327.97273,-28.948793 L 326.44273,-23.061793 L 330.04973,-28.409793 C 333.93673,-33.979793 335.54973,-43.317793 333.95373,-50.830793 L 333.02273,-55.211793"
           id="path7619" />
      </g>
    </g>
    <g
       id="g6622"
       transform="translate(2.8640745,0)">
      <g
         transform="matrix(0.1607888,0,0,0.1352845,59.330752,25.067104)"
         id="g12141">
        <path
           d="M 407.02914,608.69929 C 408.45371,546.74328 423.7803,489.15982 452.31871,434.59069 C 527.03313,277.40489 755.23905,281.15895 704.93393,473.402 C 686.39707,544.24137 623.42532,585.87586 548.61507,593.01701 C 554.01466,574.35164 583.71536,508.36456 559.73954,495.45545 C 521.40138,496.90385 473.7952,563.16055 462.34672,594.75617 C 460.69402,599.29227 461.15631,604.53418 459.31088,608.99624"
           style="opacity:1;fill:#fcef3c;fill-opacity:1;fill-rule:evenodd;stroke:#000000;stroke-width:6;stroke-linecap:butt;stroke-linejoin:miter;stroke-miterlimit:4;stroke-dasharray:none;stroke-opacity:1;display:inline"
           id="path12143"
           sodipodi:nodetypes="ccscscc" />
        <g
           transform="translate(-38.53215,-48.5769)"
           style="opacity:1;display:inline"
           id="g12145">
          <g
             transform="translate(0,4)"
             style="fill:#fcef3c;fill-opacity:1;stroke:#000000;stroke-width:6;stroke-miterlimit:4;stroke-dasharray:none;stroke-opacity:1"
             id="g12147">
            <path
               d="M 350.52292,657.37224 C 349.09835,595.41623 333.77176,537.83277 305.23335,483.26364 C 230.51893,326.07784 2.3130139,329.8319 52.618133,522.07495 C 71.154997,592.91432 134.12674,634.54881 208.93699,641.68996 C 203.5374,623.02459 173.8367,557.03751 197.81252,544.1284 C 236.15068,545.5768 283.75686,611.8335 295.20534,643.42912 C 296.85804,647.96522 296.39575,653.20713 298.24118,657.66919"
               style="fill:#fcef3c;fill-opacity:1;fill-rule:evenodd;stroke:#000000;stroke-width:6;stroke-linecap:butt;stroke-linejoin:miter;stroke-miterlimit:4;stroke-dasharray:none;stroke-opacity:1"
               id="path12149"
               sodipodi:nodetypes="ccscscc" />
            <path
               d="M 393.6259,57.12017 C 314.9116,141.96961 262.06129,240.08175 284.84465,355.15142 C 297.41422,418.63533 327.88647,477.43115 349.3759,538.58892 C 362.81238,576.95877 366.24813,617.04065 364.65715,657.37017 L 431.4384,657.37017 C 428.24189,616.744 435.24511,577.37193 446.71965,538.58892 C 467.19384,477.05062 498.34544,418.68339 511.2509,355.15142 C 535.37892,236.37223 478.74399,146.7919 402.8134,57.49517 L 398.17297,51.576902 L 393.6259,57.12017 z "
               style="fill:#fcef3c;fill-opacity:1;fill-rule:nonzero;stroke:#000000;stroke-width:6;stroke-linecap:butt;stroke-linejoin:miter;stroke-miterlimit:4;stroke-dasharray:none;stroke-opacity:1"
               id="path12151"
               sodipodi:nodetypes="csccccsccc" />
            <path
               d="M 331.34465,704.40142 C 317.38299,743.53144 260.45647,815.19349 230.21965,835.62017 C 222.37748,840.91802 267.70602,832.5686 288.0009,828.12017 C 314.61991,822.28553 349.21835,793.92258 348.40715,803.93267 C 348.33151,849.77093 361.21819,926.25691 394.8134,961.40142 L 397.99548,964.78902 L 401.28215,961.40142 C 434.85984,922.23047 447.51976,853.35944 447.6884,803.93267 C 446.8772,793.92258 481.47565,822.28553 508.09465,828.12017 C 528.38953,832.5686 573.71807,840.91802 565.8759,835.62017 C 535.63908,815.19349 478.74383,743.53144 464.78215,704.40142 L 331.34465,704.40142 z "
               style="fill:#fcef3c;fill-opacity:1;fill-rule:evenodd;stroke:#000000;stroke-width:6;stroke-linecap:butt;stroke-linejoin:miter;stroke-miterlimit:4;stroke-dasharray:none;stroke-opacity:1"
               id="path12153"
               sodipodi:nodetypes="cssscccssscc" />
            <rect
               width="317.88773"
               height="51.503345"
               x="239.3521"
               y="655.37946"
               style="fill:#fcef3c;fill-opacity:1;stroke:#000000;stroke-width:6;stroke-miterlimit:4;stroke-dasharray:none;stroke-opacity:1"
               id="rect12155" />
          </g>
        </g>
      </g>
      <g
         id="g6590"
         transform="matrix(0.1607888,0,0,0.1352845,239.33076,25.067104)">
        <path
           sodipodi:nodetypes="ccscscc"
           id="path6592"
           style="opacity:1;fill:#fcef3c;fill-opacity:1;fill-rule:evenodd;stroke:#000000;stroke-width:6;stroke-linecap:butt;stroke-linejoin:miter;stroke-miterlimit:4;stroke-dasharray:none;stroke-opacity:1;display:inline"
           d="M 407.02914,608.69929 C 408.45371,546.74328 423.7803,489.15982 452.31871,434.59069 C 527.03313,277.40489 755.23905,281.15895 704.93393,473.402 C 686.39707,544.24137 623.42532,585.87586 548.61507,593.01701 C 554.01466,574.35164 583.71536,508.36456 559.73954,495.45545 C 521.40138,496.90385 473.7952,563.16055 462.34672,594.75617 C 460.69402,599.29227 461.15631,604.53418 459.31088,608.99624" />
        <g
           id="g6594"
           style="opacity:1;display:inline"
           transform="translate(-38.53215,-48.5769)">
          <g
             id="g6596"
             style="fill:#fcef3c;fill-opacity:1;stroke:#000000;stroke-width:6;stroke-miterlimit:4;stroke-dasharray:none;stroke-opacity:1"
             transform="translate(0,4)">
            <path
               sodipodi:nodetypes="ccscscc"
               id="path6598"
               style="fill:#fcef3c;fill-opacity:1;fill-rule:evenodd;stroke:#000000;stroke-width:6;stroke-linecap:butt;stroke-linejoin:miter;stroke-miterlimit:4;stroke-dasharray:none;stroke-opacity:1"
               d="M 350.52292,657.37224 C 349.09835,595.41623 333.77176,537.83277 305.23335,483.26364 C 230.51893,326.07784 2.3130139,329.8319 52.618133,522.07495 C 71.154997,592.91432 134.12674,634.54881 208.93699,641.68996 C 203.5374,623.02459 173.8367,557.03751 197.81252,544.1284 C 236.15068,545.5768 283.75686,611.8335 295.20534,643.42912 C 296.85804,647.96522 296.39575,653.20713 298.24118,657.66919" />
            <path
               sodipodi:nodetypes="csccccsccc"
               id="path6600"
               style="fill:#fcef3c;fill-opacity:1;fill-rule:nonzero;stroke:#000000;stroke-width:6;stroke-linecap:butt;stroke-linejoin:miter;stroke-miterlimit:4;stroke-dasharray:none;stroke-opacity:1"
               d="M 393.6259,57.12017 C 314.9116,141.96961 262.06129,240.08175 284.84465,355.15142 C 297.41422,418.63533 327.88647,477.43115 349.3759,538.58892 C 362.81238,576.95877 366.24813,617.04065 364.65715,657.37017 L 431.4384,657.37017 C 428.24189,616.744 435.24511,577.37193 446.71965,538.58892 C 467.19384,477.05062 498.34544,418.68339 511.2509,355.15142 C 535.37892,236.37223 478.74399,146.7919 402.8134,57.49517 L 398.17297,51.576902 L 393.6259,57.12017 z " />
            <path
               sodipodi:nodetypes="cssscccssscc"
               id="path6602"
               style="fill:#fcef3c;fill-opacity:1;fill-rule:evenodd;stroke:#000000;stroke-width:6;stroke-linecap:butt;stroke-linejoin:miter;stroke-miterlimit:4;stroke-dasharray:none;stroke-opacity:1"
               d="M 331.34465,704.40142 C 317.38299,743.53144 260.45647,815.19349 230.21965,835.62017 C 222.37748,840.91802 267.70602,832.5686 288.0009,828.12017 C 314.61991,822.28553 349.21835,793.92258 348.40715,803.93267 C 348.33151,849.77093 361.21819,926.25691 394.8134,961.40142 L 397.99548,964.78902 L 401.28215,961.40142 C 434.85984,922.23047 447.51976,853.35944 447.6884,803.93267 C 446.8772,793.92258 481.47565,822.28553 508.09465,828.12017 C 528.38953,832.5686 573.71807,840.91802 565.8759,835.62017 C 535.63908,815.19349 478.74383,743.53144 464.78215,704.40142 L 331.34465,704.40142 z " />
            <rect
               id="rect6604"
               style="fill:#fcef3c;fill-opacity:1;stroke:#000000;stroke-width:6;stroke-miterlimit:4;stroke-dasharray:none;stroke-opacity:1"
               y="655.37946"
               x="239.3521"
               height="51.503345"
               width="317.88773" />
          </g>
        </g>
      </g>
      <g
         transform="matrix(0.1607888,0,0,0.1352845,419.33075,25.067104)"
         id="g6606">
        <path
           d="M 407.02914,608.69929 C 408.45371,546.74328 423.7803,489.15982 452.31871,434.59069 C 527.03313,277.40489 755.23905,281.15895 704.93393,473.402 C 686.39707,544.24137 623.42532,585.87586 548.61507,593.01701 C 554.01466,574.35164 583.71536,508.36456 559.73954,495.45545 C 521.40138,496.90385 473.7952,563.16055 462.34672,594.75617 C 460.69402,599.29227 461.15631,604.53418 459.31088,608.99624"
           style="opacity:1;fill:#fcef3c;fill-opacity:1;fill-rule:evenodd;stroke:#000000;stroke-width:6;stroke-linecap:butt;stroke-linejoin:miter;stroke-miterlimit:4;stroke-dasharray:none;stroke-opacity:1;display:inline"
           id="path6608"
           sodipodi:nodetypes="ccscscc" />
        <g
           transform="translate(-38.53215,-48.5769)"
           style="opacity:1;display:inline"
           id="g6610">
          <g
             transform="translate(0,4)"
             style="fill:#fcef3c;fill-opacity:1;stroke:#000000;stroke-width:6;stroke-miterlimit:4;stroke-dasharray:none;stroke-opacity:1"
             id="g6612">
            <path
               d="M 350.52292,657.37224 C 349.09835,595.41623 333.77176,537.83277 305.23335,483.26364 C 230.51893,326.07784 2.3130139,329.8319 52.618133,522.07495 C 71.154997,592.91432 134.12674,634.54881 208.93699,641.68996 C 203.5374,623.02459 173.8367,557.03751 197.81252,544.1284 C 236.15068,545.5768 283.75686,611.8335 295.20534,643.42912 C 296.85804,647.96522 296.39575,653.20713 298.24118,657.66919"
               style="fill:#fcef3c;fill-opacity:1;fill-rule:evenodd;stroke:#000000;stroke-width:6;stroke-linecap:butt;stroke-linejoin:miter;stroke-miterlimit:4;stroke-dasharray:none;stroke-opacity:1"
               id="path6614"
               sodipodi:nodetypes="ccscscc" />
            <path
               d="M 393.6259,57.12017 C 314.9116,141.96961 262.06129,240.08175 284.84465,355.15142 C 297.41422,418.63533 327.88647,477.43115 349.3759,538.58892 C 362.81238,576.95877 366.24813,617.04065 364.65715,657.37017 L 431.4384,657.37017 C 428.24189,616.744 435.24511,577.37193 446.71965,538.58892 C 467.19384,477.05062 498.34544,418.68339 511.2509,355.15142 C 535.37892,236.37223 478.74399,146.7919 402.8134,57.49517 L 398.17297,51.576902 L 393.6259,57.12017 z "
               style="fill:#fcef3c;fill-opacity:1;fill-rule:nonzero;stroke:#000000;stroke-width:6;stroke-linecap:butt;stroke-linejoin:miter;stroke-miterlimit:4;stroke-dasharray:none;stroke-opacity:1"
               id="path6616"
               sodipodi:nodetypes="csccccsccc" />
            <path
               d="M 331.34465,704.40142 C 317.38299,743.53144 260.45647,815.19349 230.21965,835.62017 C 222.37748,840.91802 267.70602,832.5686 288.0009,828.12017 C 314.61991,822.28553 349.21835,793.92258 348.40715,803.93267 C 348.33151,849.77093 361.21819,926.25691 394.8134,961.40142 L 397.99548,964.78902 L 401.28215,961.40142 C 434.85984,922.23047 447.51976,853.35944 447.6884,803.93267 C 446.8772,793.92258 481.47565,822.28553 508.09465,828.12017 C 528.38953,832.5686 573.71807,840.91802 565.8759,835.62017 C 535.63908,815.19349 478.74383,743.53144 464.78215,704.40142 L 331.34465,704.40142 z "
               style="fill:#fcef3c;fill-opacity:1;fill-rule:evenodd;stroke:#000000;stroke-width:6;stroke-linecap:butt;stroke-linejoin:miter;stroke-miterlimit:4;stroke-dasharray:none;stroke-opacity:1"
               id="path6618"
               sodipodi:nodetypes="cssscccssscc" />
            <rect
               width="317.88773"
               height="51.503345"
               x="239.3521"
               y="655.37946"
               style="fill:#fcef3c;fill-opacity:1;stroke:#000000;stroke-width:6;stroke-miterlimit:4;stroke-dasharray:none;stroke-opacity:1"
               id="rect6620" />
          </g>
        </g>
      </g>
    </g>
  </g>
  <g
     inkscape:groupmode="layer"
     id="layer3"
     inkscape:label="Reflet final"
     sodipodi:insensitive="true">
    <path
       id="path2875"
       style="fill:url(#radialGradient11919);fill-opacity:1;fill-rule:evenodd;stroke:none;stroke-width:3.00000024;stroke-linecap:butt;stroke-linejoin:miter;stroke-miterlimit:4;stroke-dasharray:none;stroke-opacity:1"
       d="M 1.5,1.49974 L 1.5,518.99107 C 1.5,557.49556 32.7031,588.7456 71.15,588.7456 C 109.5968,588.7456 191.9032,588.7456 230.35,588.7456 C 268.79691,588.7455 300.00003,619.99554 300.00003,658.5 C 300.00003,619.99554 331.20317,588.7456 369.64997,588.7456 C 408.09687,588.7455 490.40327,588.7456 528.85007,588.7456 C 567.29687,588.7456 598.50007,557.49556 598.50007,518.99107 L 598.50007,1.49974 L 1.5,1.49974 z " />
  </g>
  <g
     inkscape:groupmode="layer"
     id="layer4"
     inkscape:label="Contour final"
     sodipodi:insensitive="true">
    <path
       id="path1572"
       style="fill:none;fill-opacity:1;fill-rule:nonzero;stroke:black;stroke-width:3.00000191;stroke-linecap:round;stroke-linejoin:round;stroke-miterlimit:4;stroke-dasharray:none;stroke-dashoffset:0;stroke-opacity:1"
       d="M 300.00003,658.5 C 300.00003,619.9959 331.20322,588.74628 369.65003,588.74628 C 408.09684,588.74628 490.40321,588.74628 528.85001,588.74628 C 567.29681,588.74628 598.50011,557.49666 598.50011,518.99266 L 598.50011,1.4996809 L 1.5000099,1.4997008 L 1.5,518.99266 C 1.5,557.49666 32.70321,588.74628 71.150019,588.74628 C 109.59684,588.74628 191.90322,588.74628 230.35003,588.74628 C 268.79684,588.74628 300.00003,619.9959 300.00003,658.5 z "
       sodipodi:nodetypes="cssccccssc" />
  </g>
</svg>
