<?xml version="1.0" encoding="UTF-8" standalone="no"?>
<!-- Created with Inkscape (http://www.inkscape.org/) by DS4 (bukansaya@gmail.com) -->
<svg
xmlns:dc="http://purl.org/dc/elements/1.1/"
xmlns:cc="http://creativecommons.org/ns#"
xmlns:rdf="http://www.w3.org/1999/02/22-rdf-syntax-ns#"
xmlns:svg="http://www.w3.org/2000/svg"
xmlns="http://www.w3.org/2000/svg"
xmlns:sodipodi="http://sodipodi.sourceforge.net/DTD/sodipodi-0.dtd"
xmlns:inkscape="http://www.inkscape.org/namespaces/inkscape"
width="100"
height="104.0579">
<metadata
id="metadata3089">
</metadata>
<defs
id="defs3039" />
<g
id="g6178">
<path
style="fill:#01cafe;fill-rule:evenodd;stroke:none;"
id="path2421"
d="M 16.62515,1.3375443 L 83.610456,1.3375443 L 89.734108,7.4612002 L 89.734108,46.983806 C 89.734108,64.832738 76.500735,79.016936 50.000001,94.317141 C 22.65887,78.531732 10.265895,64.100356 10.265895,46.983806 L 10.265895,7.4612002 L 16.62515,1.3375443 z" />
<path
style="fill:#3388aa;fill-rule:evenodd;stroke:#005588;stroke-width:0.5;stroke-linecap:butt;stroke-linejoin:miter;"
id="path2500"
d="M 49.958149,75.666249 C 42.553455,75.651251 35.10338,76.353033 27.972265,77.825826 C 28.495351,80.434746 28.023512,81.437864 30.626101,80.945456 C 43.840043,78.501789 58.172017,78.726158 70.968741,81.322947 L 71.679311,77.825826 C 64.723265,76.414262 57.362843,75.681247 49.958149,75.666249 z" />
<path
style="fill:#ffff00;fill-rule:evenodd;stroke:#000000;stroke-width:0.5;stroke-linecap:butt;stroke-linejoin:miter;"
id="path2478"
d="M 83.050814,1.8946199 L 17.154132,1.8946199 L 10.817311,7.2551542 L 10.817311,51.105382 C 16.892102,51.105382 18.746606,56.000143 21.837036,56.951017 C 32.599875,60.262563 34.423742,55.513152 44.134361,57.5752 C 41.200966,61.198714 46.639769,69.513817 42.182268,71.696244 C 41.509091,72.025837 40.704112,72.732105 41.396617,73.683366 C 39.433,74.28428 36.602183,75.349964 37.823249,76.571031 C 40.203545,78.951333 44.189882,79.070482 49.832857,79.070482 C 55.475836,79.070482 59.462173,78.951333 61.842475,76.571031 C 63.063542,75.349964 60.232718,74.28428 58.269101,73.683366 C 58.961606,72.732105 58.156627,72.025837 57.48345,71.696244 C 53.02595,69.513817 58.464752,61.198714 55.531357,57.5752 C 65.241982,55.513152 67.065849,60.262563 77.828689,56.951017 C 80.944378,55.992372 82.558045,51.070802 88.942278,51.070802 L 88.942278,7.2556267 L 83.050814,1.8946199 z" />
<path
style="fill:#ffffff;fill-rule:evenodd;stroke:#000000;stroke-width:0.5;stroke-linecap:butt;stroke-linejoin:miter;"
id="path2420"
d="M 49.825576,4.1387468 C 48.540093,8.9362293 28.364829,11.489243 41.452415,24.576829 L 58.198742,24.576829 C 72.099746,10.675824 51.09149,8.8631994 49.825576,4.1387468 z" />
<path
style="fill:#ffffff;fill-rule:evenodd;stroke:#000000;stroke-width:0.5;stroke-linecap:butt;stroke-linejoin:miter;"
id="path2422"
d="M 35.78305,24.576829 L 65.776465,24.576829 C 69.092099,24.576829 69.260844,32.512587 65.776465,32.512587 L 35.78305,32.512587 C 32.034177,32.512587 32.095338,24.576829 35.78305,24.576829 z" />
<path
style="fill:#ffffff;fill-rule:evenodd;stroke:#000000;stroke-width:0.44584811px;stroke-linecap:butt;stroke-linejoin:miter;"
id="path2424"
d="M 29.846853,32.443343 L 71.650179,32.443343 C 74.965814,32.443343 75.134558,40.379111 71.650179,40.379111 L 29.846853,40.379111 C 26.09798,40.379111 26.159141,32.443343 29.846853,32.443343 z" />
<path
style="fill:none;fill-rule:evenodd;stroke:#000000;stroke-width:0.5;stroke-linecap:butt;stroke-linejoin:miter;"
id="path2426"
d="M 33.516656,40.214018 L 33.516656,36.636683 L 36.64097,36.636683 L 36.64097,40.214018 M 38.866835,40.214018 L 38.866835,36.636683 L 41.991147,36.636683 L 41.991147,40.214018 M 44.217012,40.214018 L 44.217012,36.636683 L 47.341324,36.636683 L 47.341324,40.214018 M 52.242278,40.214018 L 52.242278,36.636683 L 55.36659,36.636683 L 55.36659,40.214018 M 57.592455,40.214018 L 57.592455,36.636683 L 60.716767,36.636683 L 60.716767,40.214018 M 62.942632,40.214018 L 62.942632,36.636683 L 66.066944,36.636683 L 66.066944,40.214018" />
<rect
style="fill:#01cafe;stroke:#000000;stroke-width:0.5;"
id="rect2446"
y="41.144142"
x="22.706528"
height="2.3744788"
width="10.872614" />
<rect
style="fill:#01cafe;stroke:#000000;stroke-width:0.5;"
id="rect2448"
y="41.144142"
x="34.635921"
height="2.3744788"
width="10.872614" />
<rect
style="fill:#01cafe;stroke:#000000;stroke-width:0.5;"
id="rect2450"
y="41.144142"
x="46.565308"
height="2.3744788"
width="7.1859231" />
<rect
style="fill:#01cafe;stroke:#000000;stroke-width:0.5;"
id="rect2452"
y="41.144142"
x="54.808014"
height="2.3744788"
width="10.872614" />
<rect
style="fill:#01cafe;stroke:#000000;stroke-width:0.5;"
id="rect2454"
y="41.144142"
x="66.737404"
height="2.3744788"
width="10.872614" />
<rect
style="fill:#01cafe;stroke:#000000;stroke-width:0.5;"
id="rect2456"
y="44.237213"
x="24.317379"
height="3.189384"
width="10.055914" />
<rect
style="fill:#01cafe;stroke:#000000;stroke-width:0.5;"
id="rect2458"
y="44.237213"
x="35.270782"
height="3.189384"
width="8.5562429" />
<rect
style="fill:#01cafe;stroke:#000000;stroke-width:0.5;"
id="rect2460"
y="44.237213"
x="44.724514"
height="3.189384"
width="10.270354" />
<rect
style="fill:#01cafe;stroke:#000000;stroke-width:0.5;"
id="rect2464"
y="44.237213"
x="65.346085"
height="3.189384"
width="10.055914" />
<rect
style="fill:#01cafe;stroke:#000000;stroke-width:0.5;"
id="rect2466"
y="44.237213"
x="11.989114"
height="3.189384"
width="11.430776" />
<rect
style="fill:#01cafe;stroke:#000000;stroke-width:0.5;"
id="rect2468"
y="44.237213"
x="76.299492"
height="3.189384"
width="11.555776" />
<rect
style="fill:#01cafe;stroke:#000000;stroke-width:0.5;"
id="rect2470"
y="44.237213"
x="55.892353"
height="3.189384"
width="8.5562429" />
<path
style="fill:#3388aa;fill-rule:evenodd;stroke:#005588;stroke-width:0.5;stroke-linecap:butt;stroke-linejoin:miter;"
id="path3278"
d="M 49.933503,80.165222 C 43.907429,80.153206 37.844424,80.715452 32.040992,81.895416 C 32.413007,84.779339 32.618001,84.664453 35.19561,84.220175 C 45.670847,82.449841 56.938445,82.680732 67.032308,84.697214 L 67.610582,81.895416 C 61.94963,80.764509 55.959581,80.177237 49.933503,80.165222 z" />
<path
style="fill:#3388aa;fill-rule:evenodd;stroke:#005588;stroke-width:0.5;stroke-linecap:butt;stroke-linejoin:miter;"
id="path3280"
d="M 49.903381,84.623645 C 45.562287,84.615272 41.19459,85.006981 37.01388,85.829035 L 37.438631,87.780994 C 45.493025,86.197257 54.352165,86.260723 62.221103,87.780994 L 62.637681,85.829035 C 58.559616,85.041155 54.244479,84.632018 49.903381,84.623645 z" />
<path
style="fill:#3388aa;fill-rule:evenodd;stroke:#005588;stroke-width:0.5;stroke-linecap:butt;stroke-linejoin:miter;"
id="path3282"
d="M 45.479395,90.354875 L 50.005034,93.381114 L 54.576221,90.354875 C 51.528123,89.4912 48.546875,89.46943 45.479395,90.354875 z" />
<path
style="fill:#ff0000;fill-rule:evenodd;stroke:none;stroke-width:1px;stroke-linecap:butt;stroke-linejoin:miter;"
id="path2388"
d="M 11.264624,47.961444 L 88.643962,47.961444 L 88.643962,49.417825 C 83.357764,49.417825 79.078655,50.328733 75.913459,53.493938 L 73.357216,50.074613 L 70.167752,53.493938 L 67.484861,50.074613 L 64.295407,53.493938 L 61.105952,50.074613 L 57.916493,53.493938 L 54.727034,50.074613 L 50.144514,53.493938 L 45.561998,50.074613 L 42.372534,53.493938 L 39.183075,50.074613 L 35.993617,53.493938 L 32.804157,50.074613 L 30.121263,53.493938 L 26.931803,50.074613 L 24.882117,53.493938 C 21.637148,50.248961 16.799523,49.164547 11.264624,49.164547 L 11.264624,47.961444 z" />
<g
id="g2488"
transform="matrix(0.4458481,0,0,0.4458481,-5.342643,-6.1608102)">
<path
style="fill:#808000;stroke:#000000;stroke-width:1.12145817;"
id="path2416"
transform="translate(-7.4393939,-1.6818182)"
d="M 136.50758,164.67802 A 13.034092,13.034092 0 1 1 110.4394,164.67802 A 13.034092,13.034092 0 1 1 136.50758,164.67802 z" />
<path
style="fill:#808000;stroke:#000000;stroke-width:1.12145817;"
id="path2418"
transform="translate(8.560606,-1.6818182)"
d="M 136.50758,164.67802 A 13.034092,13.034092 0 1 1 110.4394,164.67802 A 13.034092,13.034092 0 1 1 136.50758,164.67802 z" />
<path
style="fill:#808000;stroke:#000000;stroke-width:1.12145817;"
id="path2414"
transform="translate(0.5606061,-1.6818182)"
d="M 139.03031,164.67802 A 15.556819,15.556819 0 1 1 107.91667,164.67802 A 15.556819,15.556819 0 1 1 139.03031,164.67802 z" />
<path
style="fill:#ffff00;stroke:none;stroke-width:6;"
id="path2412"
transform="translate(0.5606061,-1.6818182)"
d="M 133.98485,164.67802 A 10.511364,10.511364 0 1 1 112.96212,164.67802 A 10.511364,10.511364 0 1 1 133.98485,164.67802 z" />
<path
style="fill:#ff0000;stroke:none;stroke-width:6;"
id="path2410"
transform="translate(-0.840906,-1.4015142)"
d="M 129.5,164.39772 A 4.625,4.625 0 1 1 120.25,164.39772 A 4.625,4.625 0 1 1 129.5,164.39772 z" />
</g>
<path
style="fill:none;fill-rule:evenodd;stroke:#000000;stroke-width:0.5;stroke-linecap:butt;stroke-linejoin:miter;"
id="path2495"
d="M 41.389929,73.727911 C 47.034522,76.935422 52.67912,77.018756 58.323713,73.727911 M 42.764626,71.29095 C 47.647809,74.389719 52.471778,74.68792 56.855285,71.29095" />
<g
id="g3334"
transform="matrix(0.4458481,0,0,0.4458481,-5.912191,-6.1608102)">
<path
style="fill:#ffff00;fill-rule:evenodd;stroke:#000000;stroke-width:1.12145817;stroke-linecap:butt;stroke-linejoin:miter;"
id="path3284"
d="M 237.05219,194.38544 C 228.51198,200.46707 218.82725,203.87814 208.709,206.27769 C 208.709,198.29033 205.91503,197.07223 200.58262,197.1603 L 200.58262,188.83572 C 200.58262,185.4528 188.29396,190.33961 188.29396,187.25009 C 188.29396,181.64261 217.46176,191.66523 231.09272,177.68648 C 229.91109,183.77507 225.15113,189.59066 220.00663,193.59262 C 229.52763,196.34206 231.7643,194.49021 237.05219,194.38544 z" />
<path
style="fill:#ffff00;fill-rule:evenodd;stroke:#000000;stroke-width:1px;stroke-linecap:butt;stroke-linejoin:miter;"
id="path3290"
d="M 200.58262,188.83572 C 200.58262,185.45054 188.29396,190.33961 188.29396,187.25009 L 188.29396,204.49385 C 188.29396,206.16569 188.16181,208.68494 193.44727,207.26871 L 193.44727,196.16928 C 193.44727,193.48511 200.58262,192.24567 200.58262,188.83572 z" />
<path
style="fill:#ffff00;fill-rule:evenodd;stroke:#000000;stroke-width:1.12145817;stroke-linecap:butt;stroke-linejoin:miter;"
id="path3296"
d="M 200.58262,197.1603 L 200.58262,188.83572 C 200.58262,192.19334 193.59593,193.53926 193.59593,195.87197 C 193.59593,198.18906 197.05803,197.1603 200.58262,197.1603 z" />
<path
style="fill:#ffff00;fill-rule:evenodd;stroke:#000000;stroke-width:1.12145817;stroke-linecap:butt;stroke-linejoin:miter;"
id="path3298"
d="M 193.4464,195.85786 C 193.4464,198.1125 196.93194,197.1603 200.58262,197.1603 C 204.2333,197.1603 204.49012,207.4285 200.596,208.72859 C 198.82688,210.65368 193.43968,209.75156 193.43968,207.43447 L 193.4464,195.85786 z" />
<path
style="fill:#ffff00;fill-rule:evenodd;stroke:#000000;stroke-width:1.12145817;stroke-linecap:butt;stroke-linejoin:miter;"
id="path3313"
d="M 13.76055,194.38544 C 22.30076,200.46707 31.98549,203.87814 42.10374,206.27769 C 42.10374,198.29033 44.89771,197.07223 50.23012,197.1603 L 50.23012,188.83572 C 50.23012,185.4528 62.51878,190.33961 62.51878,187.25009 C 62.51878,181.64261 33.35098,191.66523 19.72002,177.68648 C 20.90165,183.77507 25.66161,189.59066 30.80611,193.59262 C 21.28511,196.34206 19.04844,194.49021 13.76055,194.38544 z" />
<path
style="fill:#ffff00;fill-rule:evenodd;stroke:#000000;stroke-width:1.12145817;stroke-linecap:butt;stroke-linejoin:miter;"
id="path3315"
d="M 50.23012,188.83572 C 50.23012,185.45054 62.51878,190.33961 62.51878,187.25009 L 62.51878,204.49385 C 62.51878,206.16569 62.65093,208.68494 57.36547,207.26871 L 57.36547,196.16928 C 57.36547,193.48511 50.23012,192.24567 50.23012,188.83572 z" />
<path
style="fill:#ffff00;fill-rule:evenodd;stroke:#000000;stroke-width:1px;stroke-linecap:butt;stroke-linejoin:miter;"
id="path3317"
d="M 50.23012,197.1603 L 50.23012,188.83572 C 50.23012,192.19334 57.21681,193.53926 57.21681,195.87197 C 57.21681,198.18906 53.75471,197.1603 50.23012,197.1603 z" />
<path
style="fill:#ffff00;fill-rule:evenodd;stroke:#000000;stroke-width:1.12145817;stroke-linecap:butt;stroke-linejoin:miter;"
id="path3286"
d="M 125.40637,246.71134 C 106.55445,246.71134 80.13677,243.4173 46.0802,224.41523 C 41.19089,221.68721 42.0908,215.8015 42.0908,206.27769 C 42.0908,198.29033 44.89771,197.07223 50.23012,197.1603 C 34.26813,213.12229 102.65094,229.66578 125.40637,229.66578 C 148.1618,229.66578 216.54461,213.12229 200.58262,197.1603 C 205.91503,197.07223 208.72194,198.29033 208.72194,206.27769 C 208.72194,215.8015 209.62185,221.68721 204.73254,224.41523 C 170.67597,243.4173 144.25829,246.71134 125.40637,246.71134 z" />
<path
style="fill:#ffff00;fill-rule:evenodd;stroke:#000000;stroke-width:1.12145817;stroke-linecap:butt;stroke-linejoin:miter;"
id="path3321"
d="M 57.36634,195.85786 C 57.36634,198.1125 53.8808,197.1603 50.23012,197.1603 C 46.57944,197.1603 46.32262,207.4285 50.21674,208.72859 C 51.98586,210.65368 57.37306,209.75156 57.37306,207.43447 L 57.36634,195.85786 z" />
</g>
<path
style="fill:#000000;stroke:none;stroke-width:1px;stroke-linecap:butt;stroke-linejoin:miter;"
id="text3345"
d="M 15.859699,91.039635 L 16.206835,91.207412 C 16.146613,91.355323 16.120794,91.490802 16.129372,91.613848 C 16.137945,91.736897 16.187449,91.861882 16.277873,91.988797 C 16.368296,92.115712 16.488778,92.224249 16.639316,92.314413 C 16.772993,92.394479 16.902398,92.444387 17.027526,92.464142 C 17.15265,92.483893 17.260034,92.472529 17.349678,92.430048 C 17.439317,92.387568 17.507588,92.323508 17.554495,92.23787 C 17.602083,92.150974 17.619559,92.060668 17.60691,91.966959 C 17.59426,91.873246 17.544608,91.77117 17.457957,91.660733 C 17.402762,91.58921 17.270262,91.450052 17.060448,91.243268 C 16.850631,91.036483 16.711778,90.876798 16.643891,90.764217 C 16.555377,90.619214 16.508215,90.476819 16.502412,90.337028 C 16.496605,90.197245 16.528534,90.06375 16.598204,89.936549 C 16.674763,89.796762 16.784261,89.688823 16.926699,89.61273 C 17.069129,89.536646 17.23045,89.510755 17.410663,89.535063 C 17.590866,89.559375 17.77009,89.624906 17.948328,89.73166 C 18.144626,89.849234 18.299637,89.985985 18.413366,90.141902 C 18.527085,90.297824 18.589114,90.464179 18.599449,90.640962 C 18.609779,90.81775 18.573463,90.989179 18.490508,91.155244 L 18.140026,90.980445 C 18.217834,90.79457 18.229141,90.625728 18.173946,90.473917 C 18.118743,90.32211 17.989381,90.185252 17.785856,90.063348 C 17.573898,89.936398 17.397198,89.884505 17.255766,89.907667 C 17.11433,89.930833 17.012225,89.999717 16.949458,90.114322 C 16.894967,90.213813 16.884453,90.316233 16.917925,90.421574 C 16.950183,90.526197 17.090272,90.697491 17.338192,90.935458 C 17.586104,91.17343 17.749254,91.349339 17.827646,91.463191 C 17.941097,91.629822 18.003344,91.792124 18.014386,91.950102 C 18.02542,92.108075 17.990246,92.261366 17.908857,92.409976 C 17.828149,92.55732 17.711761,92.672006 17.559683,92.754024 C 17.407601,92.836042 17.236163,92.867996 17.045365,92.849886 C 16.854562,92.831775 16.66462,92.766097 16.475548,92.652852 C 16.23589,92.509311 16.055077,92.352511 15.933103,92.182447 C 15.811134,92.012387 15.744262,91.826406 15.73249,91.624508 C 15.720719,91.42261 15.763119,91.227649 15.859699,91.039635 L 15.859699,91.039635 z M 17.976702,93.473101 L 19.384425,90.641426 L 21.342323,91.705844 L 21.176202,92.040007 L 19.576635,91.170398 L 19.145483,92.037666 L 20.64346,92.852048 L 20.478298,93.184281 L 18.980321,92.369899 L 18.501158,93.333747 L 20.163526,94.237499 L 19.997405,94.571662 L 17.976702,93.473101 z M 20.502446,94.830454 L 21.796276,91.939977 L 22.838918,92.450352 C 23.022431,92.540186 23.158465,92.617991 23.247013,92.683767 C 23.372172,92.773882 23.465776,92.874586 23.527822,92.985878 C 23.589864,93.097175 23.622083,93.22632 23.624479,93.373311 C 23.626871,93.520307 23.595999,93.665444 23.531872,93.808718 C 23.421841,94.054523 23.253946,94.225924 23.028174,94.322928 C 22.802402,94.419931 22.49406,94.372756 22.103147,94.181402 L 21.394227,93.834381 L 20.868222,95.009498 L 20.502446,94.830454 z M 21.546906,93.49328 L 22.261488,93.84307 C 22.49779,93.958746 22.686188,93.994877 22.826678,93.951474 C 22.96716,93.90807 23.074765,93.802899 23.14949,93.635965 C 23.203616,93.515037 23.220725,93.397218 23.200819,93.28251 C 23.180904,93.167802 23.129363,93.073269 23.046196,92.998901 C 22.99225,92.951664 22.88232,92.887439 22.716404,92.806219 L 22.009368,92.460121 L 21.546906,93.49328 z M 26.106843,93.937858 L 26.479819,94.099834 L 25.803557,95.802742 C 25.685924,96.098955 25.560463,96.320269 25.427187,96.466686 C 25.293899,96.613098 25.121936,96.704604 24.911295,96.741203 C 24.700646,96.777798 24.459466,96.737097 24.187742,96.61909 C 23.923706,96.504427 23.726636,96.363053 23.596524,96.194968 C 23.466407,96.026888 23.401261,95.837121 23.401078,95.625673 C 23.40089,95.41423 23.462808,95.152352 23.586833,94.840053 L 24.263095,93.137146 L 24.636072,93.299127 L 23.960611,95.000024 C 23.858944,95.25603 23.806776,95.454561 23.804103,95.595623 C 23.801434,95.736685 23.842491,95.864126 23.927279,95.977951 C 24.012067,96.091776 24.134564,96.183478 24.294781,96.253058 C 24.569067,96.372175 24.790345,96.392055 24.958615,96.312694 C 25.126877,96.233333 25.284468,96.008688 25.431378,95.63875 L 26.106843,93.937858 z M 28.349907,97.025235 L 28.695026,97.26915 C 28.502629,97.565251 28.273387,97.759841 28.007304,97.852917 C 27.741212,97.945992 27.458728,97.936032 27.159846,97.823027 C 26.850519,97.706076 26.62172,97.545107 26.473437,97.34012 C 26.325158,97.135132 26.243619,96.888632 26.228821,96.600618 C 26.214027,96.312609 26.256175,96.025292 26.355267,95.738669 C 26.463328,95.426116 26.614686,95.175073 26.809343,94.985538 C 27.004,94.796013 27.227597,94.680698 27.480143,94.6396 C 27.73269,94.598506 27.98556,94.625823 28.238763,94.721551 C 28.525899,94.830115 28.740927,94.997835 28.883855,95.224718 C 29.026775,95.451601 29.088847,95.718133 29.070062,96.024315 L 28.664282,95.975067 C 28.673214,95.731522 28.631607,95.536 28.539457,95.3885 C 28.447297,95.241 28.305294,95.130983 28.113438,95.058439 C 27.892864,94.975047 27.689399,94.960624 27.503042,95.015169 C 27.316682,95.069714 27.161279,95.178791 27.036832,95.342395 C 26.912382,95.505999 26.815947,95.686755 26.747527,95.884658 C 26.659282,96.139888 26.617815,96.376152 26.623123,96.59344 C 26.628427,96.810733 26.689846,96.994842 26.807382,97.145766 C 26.924913,97.296685 27.071124,97.405209 27.24602,97.471333 C 27.458758,97.551768 27.661051,97.555719 27.85289,97.483184 C 28.044728,97.410644 28.210398,97.257995 28.349907,97.025235 L 28.349907,97.025235 z M 31.655363,95.952543 L 32.041237,96.077188 L 31.520838,97.838966 C 31.430312,98.14542 31.325277,98.378077 31.205729,98.536928 C 31.086178,98.695779 30.92319,98.803763 30.716761,98.860881 C 30.510333,98.917994 30.266561,98.90115 29.985445,98.810344 C 29.71228,98.722106 29.503388,98.600702 29.358758,98.44614 C 29.214133,98.291573 29.132236,98.109043 29.113068,97.898545 C 29.093903,97.688051 29.132036,97.421255 29.227473,97.098158 L 29.747872,95.33638 L 30.133745,95.461026 L 29.613961,97.220722 C 29.535726,97.485582 29.501614,97.688358 29.51162,97.829059 C 29.521622,97.96976 29.573944,98.092609 29.668576,98.197606 C 29.763203,98.302603 29.893397,98.381875 30.059152,98.435417 C 30.342919,98.527079 30.565003,98.525148 30.725403,98.429621 C 30.885799,98.334089 31.022524,98.094963 31.135578,97.712238 L 31.655363,95.952543 z M 31.77413,99.312659 L 32.539883,96.223279 L 32.930825,96.329249 L 32.551083,97.861294 L 34.397871,96.726905 L 34.927862,96.870566 L 33.378259,97.7864 L 34.216525,99.97469 L 33.700636,99.834854 L 33.036295,97.986069 L 32.430423,98.348093 L 32.165077,99.418624 L 31.77413,99.312659 z M 35.673448,99.380401 L 36.040503,99.403469 C 36.004553,99.644588 36.016299,99.817203 36.075745,99.921308 C 36.135186,100.02542 36.232286,100.09148 36.367042,100.11951 C 36.46641,100.14018 36.556697,100.13417 36.637912,100.10148 C 36.719123,100.0688 36.781122,100.01437 36.823915,99.938184 C 36.866703,99.861997 36.905151,99.734226 36.939263,99.55487 L 37.349383,97.398339 L 37.745488,97.480718 L 37.339833,99.613762 C 37.290023,99.875676 37.221157,100.07222 37.133245,100.20339 C 37.045333,100.33456 36.928523,100.42421 36.782823,100.47234 C 36.63712,100.52046 36.47579,100.52612 36.298839,100.48932 C 36.036128,100.43468 35.850037,100.31386 35.740564,100.12684 C 35.631091,99.939816 35.608716,99.691006 35.673448,99.380401 L 35.673448,99.380401 z M 37.467738,100.68461 L 39.103607,97.724673 L 39.53332,97.795982 L 40.288631,101.15273 L 39.834249,101.07733 L 39.627528,100.06434 L 38.367174,99.855189 L 37.891285,100.7549 L 37.467738,100.68461 z M 38.533863,99.53458 L 39.555715,99.704158 L 39.373604,98.779019 C 39.317895,98.497921 39.279681,98.268215 39.258967,98.089907 C 39.189914,98.285648 39.105319,98.477336 39.005182,98.664975 L 38.533863,99.53458 z M 40.600694,101.19704 L 40.927803,98.023953 L 41.532182,98.092087 L 42.018785,100.41975 C 42.063445,100.63645 42.0956,100.79846 42.115248,100.90577 C 42.161643,100.79423 42.232935,100.63074 42.329131,100.41533 L 43.28321,98.289487 L 43.823422,98.350389 L 43.496316,101.52348 L 43.109267,101.47984 L 43.383044,98.824058 L 42.227544,101.38044 L 41.865333,101.3396 L 41.266211,98.539438 L 40.987743,101.24067 L 40.600694,101.19704 z M 44.134405,101.56968 L 44.310252,98.383507 L 45.453318,98.452493 C 45.686086,98.466546 45.87101,98.510052 46.008086,98.583015 C 46.145162,98.655983 46.249834,98.76188 46.322106,98.900713 C 46.394374,99.039546 46.42647,99.182132 46.418396,99.328473 C 46.410879,99.464671 46.36847,99.59077 46.291173,99.706762 C 46.213872,99.822758 46.101826,99.913399 45.955039,99.978676 C 46.136192,100.04631 46.27255,100.15121 46.364101,100.29339 C 46.455647,100.43557 46.496303,100.59939 46.486071,100.78484 C 46.477832,100.93408 46.440042,101.071 46.372697,101.19559 C 46.305347,101.32018 46.225415,101.41458 46.132902,101.47877 C 46.040388,101.54297 45.9263,101.58878 45.790642,101.61621 C 45.654975,101.64364 45.490149,101.6515 45.296183,101.63979 L 44.134405,101.56968 z M 44.639551,99.746639 L 45.298377,99.786404 C 45.477108,99.797193 45.605949,99.79261 45.6849,99.772658 C 45.789193,99.746973 45.869352,99.69875 45.925391,99.627989 C 45.981425,99.557233 46.012523,99.466071 46.01868,99.354502 C 46.024516,99.248733 46.005407,99.154178 45.961353,99.070831 C 45.917294,98.987493 45.851059,98.928253 45.762638,98.893111 C 45.674218,98.857979 45.520552,98.8338 45.301636,98.820585 L 44.692692,98.783834 L 44.639551,99.746639 z M 44.558344,101.21801 L 45.316933,101.2638 C 45.447169,101.27166 45.538894,101.27211 45.592106,101.26514 C 45.685894,101.25336 45.765086,101.22906 45.829676,101.19226 C 45.894266,101.15545 45.948784,101.0995 45.993249,101.02441 C 46.037704,100.94932 46.06273,100.86106 46.068334,100.75963 C 46.074883,100.64082 46.05149,100.53583 45.998135,100.44466 C 45.944776,100.35349 45.867466,100.28704 45.766205,100.24531 C 45.664939,100.20358 45.517324,100.17686 45.323348,100.16516 L 44.618801,100.12263 L 44.558344,101.21801 z M 47.063953,101.71992 L 47.144959,98.529571 L 47.548679,98.54078 L 47.467673,101.73113 L 47.063953,101.71992 z M 49.200787,100.7358 L 49.580912,100.69208 C 49.602358,100.85126 49.647125,100.98123 49.715215,101.08198 C 49.783301,101.18274 49.887397,101.26306 50.027496,101.32293 C 50.167595,101.38281 50.32436,101.41073 50.497799,101.40667 C 50.651813,101.40308 50.787275,101.37596 50.90419,101.32532 C 51.021104,101.27469 51.107461,101.20698 51.163263,101.12221 C 51.219061,101.03744 51.24591,100.94572 51.243806,100.84705 C 51.241665,100.74693 51.212048,100.66016 51.154952,100.58673 C 51.097857,100.5133 51.004942,100.45268 50.876208,100.40488 C 50.793633,100.37342 50.611455,100.32578 50.329679,100.26195 C 50.047903,100.19813 49.850151,100.13633 49.736429,100.07656 C 49.589036,100.00016 49.478354,99.903666 49.404374,99.787081 C 49.33039,99.670497 49.291838,99.538931 49.288708,99.392381 C 49.285266,99.231327 49.325763,99.079766 49.410179,98.937705 C 49.494601,98.795649 49.619987,98.686385 49.786324,98.609913 C 49.952661,98.533446 50.138504,98.492816 50.343857,98.488018 C 50.570018,98.482739 50.770284,98.516169 50.944655,98.588307 C 51.119026,98.660454 51.25427,98.769438 51.350394,98.915261 C 51.446515,99.061094 51.500043,99.227511 51.51098,99.414522 L 51.124519,99.454033 C 51.0994,99.252835 51.025728,99.102129 50.903512,99.001912 C 50.781292,98.901698 50.602939,98.854327 50.368454,98.859802 C 50.124254,98.865504 49.947306,98.916456 49.83761,99.012648 C 49.727918,99.108844 49.674478,99.222963 49.677296,99.354997 C 49.679744,99.469629 49.721301,99.563016 49.801968,99.635168 C 49.881249,99.707355 50.085791,99.778428 50.415594,99.84839 C 50.745392,99.918357 50.971963,99.980932 51.095302,100.03612 C 51.27473,100.11758 51.408163,100.22298 51.495607,100.35231 C 51.583047,100.48165 51.628595,100.63192 51.632255,100.80313 C 51.635875,100.9729 51.592811,101.13395 51.503057,101.2863 C 51.413299,101.43865 51.282247,101.55857 51.1099,101.64606 C 50.937548,101.73356 50.742454,101.77985 50.524617,101.78494 C 50.248503,101.79139 50.016243,101.75471 49.827828,101.67491 C 49.639412,101.59512 49.490325,101.47194 49.380571,101.30538 C 49.270816,101.13882 49.21089,100.94896 49.200787,100.7358 L 49.200787,100.7358 z M 52.215309,101.67563 L 52.016139,98.490965 L 54.218112,98.340367 L 54.241617,98.716185 L 52.442646,98.839222 L 52.503647,99.814608 L 54.18836,99.699383 L 54.211732,100.07303 L 52.527014,100.18825 L 52.594806,101.27225 L 54.464407,101.14439 L 54.487908,101.5202 L 52.215309,101.67563 z M 55.036301,101.47539 L 54.692539,98.304231 L 55.296547,98.232628 L 56.257724,100.39288 C 56.346582,100.59413 56.411809,100.74488 56.453407,100.84511 C 56.475374,100.72566 56.510787,100.54984 56.559644,100.31765 L 57.046514,98.025174 L 57.5864,97.961173 L 57.930163,101.13233 L 57.543349,101.17819 L 57.25563,98.524021 L 56.662162,101.28265 L 56.300169,101.32556 L 55.130473,98.72994 L 55.423114,101.42954 L 55.036301,101.47539 z M 58.562616,101.03291 L 58.077556,97.881999 L 59.207977,97.691698 C 59.438168,97.652949 59.627712,97.653747 59.776607,97.694092 C 59.925498,97.734446 60.049537,97.814262 60.14873,97.933535 C 60.247917,98.052817 60.308651,98.184815 60.330934,98.329533 C 60.351666,98.464223 60.336249,98.596917 60.284678,98.727608 C 60.233102,98.858304 60.142376,98.972067 60.012496,99.0689 C 60.203337,99.094109 60.358109,99.165805 60.476816,99.284004 C 60.595514,99.402203 60.668985,99.553007 60.697221,99.736411 C 60.719941,99.884 60.711256,100.02622 60.671179,100.16306 C 60.631093,100.2999 60.572499,100.4101 60.495399,100.49363 C 60.418289,100.57718 60.316328,100.64763 60.189507,100.705 C 60.062685,100.76236 59.903362,100.80719 59.711535,100.83949 L 58.562616,101.03291 z M 58.680106,99.138858 L 59.331637,99.029171 C 59.508394,98.999419 59.633262,98.965901 59.706243,98.928623 C 59.802787,98.88003 59.871122,98.81487 59.911258,98.733141 C 59.951388,98.651417 59.962963,98.55539 59.94598,98.445052 C 59.929876,98.340456 59.891725,98.252432 59.831527,98.180976 C 59.771328,98.109529 59.694433,98.066612 59.600849,98.052229 C 59.507261,98.03785 59.352226,98.048885 59.135732,98.085328 L 58.533529,98.18671 L 58.680106,99.138858 z M 58.904105,100.59395 L 59.654293,100.46766 C 59.78309,100.44597 59.872754,100.42573 59.923278,100.40694 C 60.012434,100.37429 60.084755,100.33271 60.140236,100.28221 C 60.195718,100.23171 60.237427,100.16479 60.265363,100.08143 C 60.293296,99.998088 60.299542,99.906261 60.284107,99.805959 C 60.266014,99.688464 60.221523,99.591216 60.150633,99.514213 C 60.079739,99.437215 59.990547,99.389755 59.883067,99.371832 C 59.775577,99.353913 59.625924,99.3611 59.434093,99.393393 L 58.737344,99.510691 L 58.904105,100.59395 z M 61.454601,100.52098 L 60.882515,97.386078 L 61.279222,97.306909 L 61.851308,100.44181 L 61.454601,100.52098 z M 62.532234,100.30546 L 61.884844,97.186614 L 62.279518,97.097026 L 62.850511,99.847815 L 64.319344,99.514396 L 64.39574,99.882444 L 62.532234,100.30546 z M 64.541493,99.853981 L 64.921435,96.45842 L 65.342976,96.345767 L 67.308751,99.114479 L 66.863006,99.233597 L 66.289262,98.389272 L 65.052867,98.719676 L 64.956983,99.742947 L 64.541493,99.853981 z M 65.08438,98.356239 L 66.086807,98.08836 L 65.568954,97.314484 C 65.411262,97.079504 65.289109,96.884454 65.202503,96.729339 C 65.213301,96.937666 65.208294,97.148722 65.187482,97.362497 L 65.08438,98.356239 z M 67.618767,99.019616 L 66.74388,95.962097 L 67.140765,95.837902 L 69.363349,97.757911 L 68.676453,95.357362 L 69.047407,95.241281 L 69.922291,98.298805 L 69.52541,98.422996 L 67.302229,96.5009 L 67.989722,98.90354 L 67.618767,99.019616 z M 71.674416,97.688327 L 70.648252,94.682674 L 71.0286,94.540666 L 71.933667,97.191626 L 73.349191,96.663131 L 73.470287,97.017821 L 71.674416,97.688327 z M 74.65701,93.102985 L 75.032307,92.946965 L 75.683691,94.660444 C 75.796995,94.958502 75.854732,95.208596 75.856903,95.410726 C 75.859066,95.61286 75.796892,95.80387 75.670378,95.983752 C 75.54386,96.163638 75.343893,96.310411 75.070485,96.424076 C 74.804809,96.534521 74.569299,96.576988 74.363954,96.551468 C 74.158601,96.525948 73.98534,96.4375 73.844158,96.286131 C 73.70298,96.134761 73.572659,95.901957 73.453203,95.587718 L 72.801814,93.874239 L 73.177111,93.718219 L 73.827728,95.429674 C 73.925654,95.687272 74.020705,95.867577 74.112888,95.970595 C 74.205072,96.073617 74.319503,96.134984 74.456182,96.15469 C 74.592862,96.174397 74.741806,96.15074 74.903016,96.083724 C 75.179005,95.968985 75.350812,95.821815 75.418443,95.642201 C 75.486069,95.462596 75.449131,95.186674 75.307627,94.814439 L 74.65701,93.102985 z M 76.787424,95.636539 L 75.549701,92.719319 L 76.786568,92.145428 C 77.035213,92.030065 77.235345,91.968564 77.386974,91.960922 C 77.538602,91.95329 77.681251,91.997852 77.814926,92.094606 C 77.948591,92.191364 78.049477,92.32 78.117585,92.480518 C 78.20539,92.687472 78.215342,92.891648 78.147444,93.093042 C 78.079541,93.294441 77.919914,93.476472 77.668567,93.639135 C 77.787073,93.642898 77.88183,93.656889 77.95284,93.681098 C 78.104571,93.734546 78.261567,93.816507 78.423838,93.926988 L 79.245942,94.495823 L 78.78164,94.711252 L 78.154974,94.27561 C 77.972845,94.150532 77.827195,94.057746 77.718025,93.997253 C 77.60885,93.936765 77.518793,93.90075 77.44785,93.889207 C 77.376907,93.877668 77.309798,93.877846 77.246518,93.889737 C 77.200716,93.899876 77.130241,93.927019 77.035097,93.971162 L 76.606954,94.169819 L 77.156582,95.465253 L 76.787424,95.636539 z M 76.465112,93.835509 L 77.25861,93.467341 C 77.427332,93.389059 77.551527,93.3096 77.631192,93.228972 C 77.710856,93.148345 77.758401,93.056425 77.773823,92.953206 C 77.789245,92.849993 77.776971,92.751291 77.737009,92.657101 C 77.678474,92.519133 77.58246,92.427931 77.448969,92.383484 C 77.315478,92.339042 77.145346,92.364794 76.938567,92.460732 L 76.055631,92.870399 L 76.465112,93.835509 z M 79.291004,94.472363 L 79.004341,91.066805 L 79.395265,90.86707 L 81.85727,93.161186 L 81.443897,93.372388 L 80.718293,92.667338 L 79.571705,93.253164 L 79.676315,94.275494 L 79.291004,94.472363 z M 79.532056,92.890596 L 80.461676,92.41563 L 79.804465,91.767701 C 79.604466,91.57106 79.447019,91.40598 79.332124,91.272462 C 79.383112,91.474172 79.419149,91.681897 79.440238,91.895646 L 79.532056,92.890596 z M 82.157722,92.9955 L 80.719925,90.180401 L 81.076162,89.981428 L 81.666581,91.137423 L 83.065817,90.355901 L 82.475398,89.199906 L 82.831631,89.000932 L 84.269428,91.816035 L 83.913191,92.015004 L 83.235484,90.688106 L 81.836253,91.469629 L 82.513955,92.796531 L 82.157722,92.9955 z" />
<path
style="fill:none;fill-rule:evenodd;stroke:#808000;stroke-width:2.5;stroke-linecap:butt;stroke-linejoin:miter;"
id="path2384"
d="M 16.62515,1.3375443 L 83.610456,1.3375443 L 89.734108,7.4612002 L 89.734108,46.983806 C 89.734108,64.832738 76.500735,79.016936 50.000001,94.317141 C 22.65887,78.531732 10.265895,64.100356 10.265895,46.983806 L 10.265895,7.4612002 L 16.62515,1.3375443 z" />
<g
id="keris"
transform="matrix(0.4458481,0,0,0.4458481,96.855796,-4.7118039)">
<path
style="fill:#01cafe;fill-rule:evenodd;stroke:#000000;stroke-width:1.12145817;stroke-linecap:butt;stroke-linejoin:miter;"
id="path2423"
d="M -106.375,91.875 C -106.04277,97.280591 -106.77864,102.75612 -108.20855,108.09177 C -111.33332,119.75168 -104.85607,129.38604 -114.5,142.875 L -93.875,142.875 C -101.96013,132.12191 -100.42206,117.97516 -101.296,105.26152 C -101.60092,100.82577 -103.29728,96.397103 -106.375,91.875 z" />
<path
style="fill:#000000;fill-rule:evenodd;stroke:none;stroke-width:1px;stroke-linecap:butt;stroke-linejoin:miter;"
id="path2425"
d="M -109.5,140.625 C -106.10119,133.3381 -105.49975,125.19172 -104.5,117.25 C -103.76439,125.83333 -103.7903,130.66667 -99,140.625 L -102.23494,140.625 L -104.625,132.75 L -107.05205,140.625 L -109.5,140.625 z" />
<path
style="fill:#ee9900;fill-rule:evenodd;stroke:#000000;stroke-width:1.12145817;stroke-linecap:butt;stroke-linejoin:miter;"
id="path2431"
d="M -106.625,142.875 L -106.625,152.98015 C -106.625,156.22869 -109.22539,154.48823 -109.22539,156.6054 C -109.22539,163.2156 -101.51508,163.21102 -101.51508,156.6054 L -101.51508,142.875 L -106.625,142.875 z" />
</g>
</g>
</svg>