<?xml version="1.0" encoding="utf-8"?>
<!-- Generator: Adobe Illustrator 17.0.0, SVG Export Plug-In . SVG Version: 6.00 Build 0)  -->
<!DOCTYPE svg PUBLIC "-//W3C//DTD SVG 1.1//EN" "http://www.w3.org/Graphics/SVG/1.1/DTD/svg11.dtd">
<svg version="1.1"
	 id="svg2" xmlns:dc="http://purl.org/dc/elements/1.1/" xmlns:cc="http://creativecommons.org/ns#" xmlns:rdf="http://www.w3.org/1999/02/22-rdf-syntax-ns#" xmlns:svg="http://www.w3.org/2000/svg"
	 xmlns="http://www.w3.org/2000/svg" xmlns:xlink="http://www.w3.org/1999/xlink" x="0px" y="0px" width="623.622px" height="925px"
	 viewBox="-534 888 623.622 925" enable-background="new -534 888 623.622 925" xml:space="preserve">
<path id="path3136_2_" fill="#E8E18F" stroke="#000000" stroke-width="4" stroke-linecap="round" stroke-linejoin="round" d="
	M-222.664,1796c-42.336,0-51.611-10.23-90.802-26.082l-109.646-44.679c-35.958-17.255-103.044-35.149-96.093-58.826
	c4.173-8.915,10.756-28.896,14.111-38.534c9.139-25.55,8.652-30.213,21.6-34.828c18.133-4.056,36.676,0.828,63.829,26.285
	c22.684,17.887,22.712,3.893,22.712,3.893c0.948-3.356-8.921-16.729-21.546-10.979c0,0-5.224,3.377-3.26,5.148
	c18.004,16.237,24.157,9.075,24.157,9.075l-6.489,19.468c142.333,62.381,181.903,58.67,181.903,58.67s48.689,4.389,181.903-58.67
	l-6.489-19.468c0,0,4.525,9.026,25.929-10.676c4.469-4.114-9.029-4.798-9.029-4.798c-15.375,0.75-18,9.625-17.549,12.229
	c0,0,0.028,13.994,22.712-3.893c27.152-25.457,45.696-30.341,63.829-26.285c12.948,4.615,12.461,9.278,21.6,34.828
	c3.355,9.639,9.938,29.62,14.111,38.534c6.951,23.677-42.694,34.418-96.093,58.826l-119.791,49.963
	C-176.074,1791.514-172.5,1796-222.664,1796z"/>
<path fill="none" stroke="#000000" stroke-width="4" stroke-linecap="round" stroke-linejoin="round" d="M-452.572,1613.646
	c0,0-49.436-22.959,48.479,32.295"/>
<path fill="none" stroke="#000000" stroke-width="4" stroke-linecap="round" stroke-linejoin="round" d="M8.194,1613.646
	c0,0,49.436-22.959-48.479,32.295"/>
<g>
	<path d="M-465.413,1682.092c-0.204,2.756,0.309,5.115,1.538,7.077c1.229,1.962,3.16,3.51,5.793,4.645
		c0.721,0.311,1.519,0.568,2.393,0.774l-0.711,1.65c-3.019-0.488-5.601-1.194-7.748-2.119c-3.354-1.445-6-3.558-7.935-6.337
		c-1.936-2.779-2.887-6.044-2.854-9.793c-4.033-2.849-6.672-6.563-7.918-11.141c-1.246-4.579-0.851-9.23,1.185-13.956
		c2.361-5.482,6.165-9.249,11.41-11.298c5.245-2.05,10.699-1.854,16.362,0.585c5.645,2.432,9.514,6.258,11.606,11.479
		c2.092,5.221,1.961,10.563-0.394,16.028c-2.051,4.762-5.268,8.283-9.651,10.564
		C-456.718,1682.533-461.077,1683.146-465.413,1682.092z M-454.81,1644.225c-3.247-1.398-6.48-0.792-9.701,1.819
		c-2.699,2.194-5.175,5.907-7.428,11.137c-2.704,6.277-3.599,11.408-2.686,15.394c0.642,2.778,2.325,4.755,5.048,5.928
		c2.742,1.181,5.326,1.064,7.752-0.35c3.5-2.02,6.536-6.015,9.108-11.985c2.533-5.879,3.672-10.435,3.417-13.667
		C-449.6,1648.437-451.438,1645.677-454.81,1644.225z"/>
	<path d="M-431.536,1652.808l18.938,8.158l-0.431,1.001l-0.947-0.408c-1.425-0.614-2.468-0.887-3.128-0.818
		s-1.216,0.315-1.667,0.741c-0.451,0.427-1.126,1.686-2.028,3.777l-7.738,17.964c-1.415,3.283-2.103,5.563-2.065,6.841
		c0.038,1.278,0.473,2.514,1.307,3.706c0.833,1.193,2.115,2.162,3.847,2.908c1.984,0.854,3.867,1.137,5.65,0.846
		c1.782-0.29,3.358-1.07,4.729-2.341c1.37-1.27,2.895-3.853,4.573-7.749l6.445-14.961c0.707-1.641,1.041-2.887,1.001-3.738
		c-0.04-0.851-0.263-1.524-0.669-2.021c-0.633-0.764-1.689-1.465-3.167-2.102l0.431-1.001l12.688,5.466l-0.432,1.001l-0.757-0.327
		c-1.028-0.442-1.974-0.604-2.838-0.484c-0.864,0.12-1.628,0.528-2.292,1.226c-0.483,0.477-1.047,1.463-1.692,2.96l-6.002,13.933
		c-1.857,4.312-3.481,7.3-4.873,8.967s-3.534,2.829-6.425,3.486c-2.892,0.657-6.241,0.167-10.046-1.473
		c-3.174-1.367-5.444-2.848-6.811-4.441c-1.866-2.172-2.896-4.37-3.093-6.593c-0.197-2.224,0.361-4.859,1.674-7.907l7.738-17.964
		c0.909-2.11,1.357-3.473,1.344-4.088c-0.013-0.615-0.243-1.2-0.688-1.756c-0.445-0.555-1.447-1.157-3.006-1.808L-431.536,1652.808z
		"/>
	<path d="M-371.219,1678.18c5.937,2.302,9.951,6.051,12.042,11.25c2.091,5.198,1.963,10.521-0.384,15.968
		c-2.004,4.653-5.13,8.161-9.376,10.523c-5.628,3.135-11.733,3.285-18.316,0.449c-6.601-2.844-10.742-7.279-12.422-13.306
		c-1.327-4.763-0.945-9.57,1.145-14.422c2.346-5.447,6.155-9.189,11.427-11.227C-381.832,1675.378-376.537,1675.633-371.219,1678.18
		z M-371.64,1680.052c-3.355-1.445-6.646-0.831-9.871,1.842c-2.637,2.2-5.09,5.934-7.358,11.199
		c-2.696,6.259-3.589,11.359-2.678,15.301c0.631,2.753,2.328,4.724,5.087,5.912c1.857,0.801,3.603,1.018,5.236,0.652
		c2.084-0.471,4.114-1.783,6.089-3.937c1.975-2.153,3.841-5.268,5.597-9.344c2.09-4.852,3.203-8.676,3.338-11.473
		c0.135-2.796-0.282-4.991-1.252-6.585C-368.423,1682.025-369.819,1680.836-371.64,1680.052z"/>
	<path d="M-321.562,1702.683l-6.491,15.069l1.055,0.454c1.623,0.699,3.054,1.026,4.292,0.982s2.461-0.489,3.671-1.337
		c1.209-0.848,2.346-2.207,3.409-4.08l0.947,0.407l-7.937,18.425l-0.947-0.408c1.157-3.629,1.212-6.326,0.166-8.092
		c-1.046-1.766-2.534-3.064-4.464-3.896l-1.055-0.454l-4.836,11.228c-0.809,1.876-1.21,3.093-1.204,3.65
		c0.005,0.559,0.234,1.144,0.687,1.756c0.453,0.611,1.193,1.14,2.221,1.582l1.217,0.524l-0.431,1.001l-19.181-8.263l0.431-1.001
		l1.217,0.524c1.064,0.458,2.002,0.638,2.815,0.539c0.578-0.051,1.125-0.328,1.642-0.833c0.385-0.347,0.974-1.44,1.766-3.28
		l10.396-24.132c0.808-1.876,1.213-3.091,1.217-3.646c0.003-0.555-0.221-1.138-0.673-1.75c-0.453-0.612-1.193-1.139-2.221-1.582
		l-1.218-0.524l0.431-1.001l30.95,13.332l-4.533,10.524l-1.109-0.478c0.812-2.58,0.956-4.688,0.431-6.325
		c-0.524-1.638-1.665-3.123-3.42-4.457c-0.966-0.736-2.91-1.734-5.831-2.993L-321.562,1702.683z"/>
	<path d="M-294.403,1742.991l-12.959-5.582l-3.081,2.906c-1.018,0.973-1.694,1.848-2.028,2.623
		c-0.443,1.028-0.354,1.964,0.266,2.809c0.363,0.498,1.469,1.231,3.318,2.199l-0.431,1.001l-12.201-5.256l0.431-1.001
		c1.401,0.369,2.719,0.289,3.951-0.238s3.073-1.921,5.522-4.181l25.731-23.621l0.514,0.222l0.27,35.783
		c0.035,3.394,0.299,5.635,0.792,6.725c0.372,0.823,1.098,1.521,2.178,2.093l-0.431,1.001l-17.748-7.646l0.431-1.001l0.73,0.314
		c1.424,0.614,2.511,0.847,3.259,0.698c0.521-0.117,0.898-0.446,1.131-0.987c0.14-0.325,0.229-0.682,0.269-1.071
		c0.033-0.178,0.054-0.971,0.062-2.379L-294.403,1742.991z M-294.461,1740.593l-0.022-14.988l-11.07,10.21L-294.461,1740.593z"/>
	<path d="M-235.649,1735.073l-3.426,10.254l-1.006-0.336c0.194-2.564,0.101-4.485-0.28-5.762c-0.381-1.276-1.102-2.434-2.163-3.472
		c-0.596-0.571-1.779-1.153-3.548-1.744l-2.822-0.943l-9.765,29.225c-0.647,1.938-0.945,3.184-0.892,3.74
		c0.052,0.556,0.33,1.119,0.833,1.69c0.502,0.572,1.294,1.038,2.374,1.399l1.257,0.42l-0.345,1.034l-19.837-6.628l0.345-1.034
		l1.257,0.42c1.099,0.367,2.049,0.468,2.851,0.301c0.571-0.1,1.103-0.419,1.593-0.959c0.354-0.378,0.849-1.518,1.484-3.417
		l9.764-29.225l-2.738-0.915c-2.552-0.853-4.586-0.932-6.102-0.237c-2.125,0.968-3.868,2.776-5.23,5.427l-1.062-0.354l3.426-10.254
		L-235.649,1735.073z"/>
	<path d="M-217.404,1763.867l-14.108-0.224l-1.741,3.861c-0.57,1.287-0.862,2.354-0.875,3.197c-0.018,1.119,0.421,1.951,1.316,2.496
		c0.525,0.322,1.827,0.579,3.906,0.769l-0.018,1.09l-13.284-0.21l0.017-1.09c1.437-0.193,2.625-0.769,3.563-1.727
		c0.938-0.957,2.109-2.946,3.512-5.969l14.79-31.644l0.56,0.009l13.884,32.981c1.325,3.124,2.424,5.096,3.294,5.915
		c0.658,0.619,1.595,0.987,2.811,1.104l-0.018,1.09l-19.322-0.306l0.018-1.09l0.795,0.013c1.551,0.024,2.645-0.174,3.28-0.596
		c0.437-0.308,0.66-0.756,0.669-1.345c0.006-0.354-0.047-0.718-0.159-1.093c-0.037-0.178-0.32-0.919-0.849-2.224L-217.404,1763.867z
		 M-218.371,1761.672l-5.732-13.85l-6.344,13.658L-218.371,1761.672z"/>
	<path d="M-177.325,1725.701l6.328,15.139l1.06-0.443c1.631-0.682,2.86-1.482,3.688-2.403c0.829-0.921,1.358-2.11,1.589-3.57
		c0.231-1.458,0.042-3.221-0.566-5.286l0.952-0.398l7.737,18.509l-0.951,0.397c-1.806-3.353-3.708-5.267-5.705-5.74
		c-1.997-0.475-3.965-0.307-5.903,0.504l-1.06,0.443l4.715,11.278c0.788,1.885,1.384,3.02,1.79,3.403s0.985,0.625,1.74,0.725
		c0.754,0.1,1.648-0.066,2.681-0.498l1.223-0.511l0.42,1.005l-19.27,8.056l-0.42-1.006l1.223-0.511
		c1.069-0.447,1.85-0.997,2.344-1.65c0.365-0.45,0.545-1.037,0.542-1.759c0.018-0.519-0.36-1.701-1.132-3.55l-10.134-24.243
		c-0.788-1.885-1.38-3.021-1.776-3.408c-0.396-0.388-0.972-0.632-1.727-0.731c-0.755-0.1-1.648,0.066-2.681,0.498l-1.223,0.512
		l-0.42-1.006l31.092-12.997l4.419,10.572l-1.114,0.466c-1.292-2.376-2.708-3.944-4.25-4.705c-1.542-0.76-3.402-0.972-5.582-0.636
		c-1.201,0.183-3.269,0.888-6.204,2.114L-177.325,1725.701z"/>
	<path d="M-143.674,1711.55l6.334,14.976l0.733-0.31c2.333-0.986,3.714-2.435,4.144-4.344c0.429-1.908,0.185-4.353-0.735-7.333
		l1.031-0.437l8.148,19.263l-1.031,0.437c-1.104-2.006-2.289-3.531-3.551-4.575c-1.263-1.044-2.453-1.602-3.57-1.673
		c-1.118-0.07-2.554,0.265-4.308,1.007l4.384,10.364c0.857,2.025,1.467,3.229,1.83,3.607c0.363,0.38,0.841,0.615,1.434,0.705
		c0.592,0.091,1.413-0.086,2.462-0.53l2.198-0.93c3.436-1.453,5.853-3.413,7.251-5.882c1.398-2.467,1.86-5.52,1.388-9.158
		l1.004-0.425l3.291,12.394l-31.797,13.449l-0.425-1.004l1.221-0.517c1.067-0.451,1.846-1.004,2.336-1.659
		c0.363-0.452,0.541-1.039,0.534-1.762c0.015-0.518-0.367-1.699-1.147-3.545l-10.236-24.2c-0.704-1.663-1.182-2.666-1.433-3.008
		c-0.449-0.557-0.99-0.903-1.624-1.041c-0.901-0.215-1.949-0.07-3.143,0.435l-1.221,0.516l-0.424-1.004l30.793-13.024l4.602,10.879
		l-1.031,0.437c-1.649-2.438-3.193-4.033-4.633-4.789c-1.439-0.756-3.142-1.038-5.107-0.847c-1.151,0.104-3.119,0.744-5.904,1.922
		L-143.674,1711.55z"/>
	<path d="M-99.485,1713.93l4.382,10.3c0.846,1.988,1.5,3.188,1.963,3.599c0.463,0.411,1.067,0.641,1.812,0.686
		c0.745,0.047,1.958-0.288,3.639-1.004l0.427,1.003l-18.812,8.004l-0.427-1.003c1.698-0.723,2.783-1.37,3.254-1.944
		c0.471-0.573,0.721-1.166,0.75-1.775s-0.38-1.908-1.226-3.896l-10.149-23.854c-0.846-1.987-1.5-3.188-1.963-3.599
		c-0.463-0.411-1.067-0.64-1.812-0.686c-0.746-0.046-1.958,0.289-3.639,1.004l-0.427-1.003l17.077-7.266
		c4.445-1.892,7.829-2.968,10.15-3.23c2.322-0.262,4.485,0.157,6.489,1.257c2.005,1.101,3.48,2.762,4.425,4.984
		c1.153,2.71,1.131,5.366-0.067,7.968c-0.771,1.651-2.157,3.233-4.159,4.747l14.13,8.682c1.84,1.116,3.09,1.77,3.747,1.959
		c0.979,0.245,1.968,0.188,2.967-0.174l0.427,1.003l-11.575,4.925l-18.973-11.712L-99.485,1713.93z M-107.155,1695.904l6.851,16.101
		l1.545-0.657c2.512-1.068,4.293-2.099,5.344-3.09c1.051-0.991,1.677-2.239,1.88-3.745c0.202-1.505-0.107-3.225-0.93-5.158
		c-1.192-2.801-2.727-4.592-4.606-5.371c-1.879-0.78-4.273-0.551-7.183,0.687L-107.155,1695.904z"/>
	<path d="M-81.401,1682.605l18.963-8.098l0.428,1.003l-0.948,0.404c-1.427,0.609-2.343,1.177-2.749,1.702
		c-0.406,0.525-0.609,1.099-0.611,1.719c-0.002,0.62,0.444,1.978,1.339,4.072l7.681,17.989c1.404,3.287,2.581,5.357,3.533,6.21
		c0.952,0.854,2.147,1.39,3.585,1.608s3.025-0.042,4.759-0.783c1.986-0.848,3.489-2.018,4.507-3.51
		c1.018-1.491,1.539-3.172,1.563-5.04c0.024-1.868-0.796-4.753-2.462-8.653l-6.397-14.981c-0.702-1.644-1.375-2.744-2.019-3.303
		c-0.644-0.558-1.286-0.859-1.925-0.907c-0.99-0.068-2.226,0.214-3.707,0.846l-0.428-1.002l12.706-5.426l0.428,1.003l-0.759,0.323
		c-1.029,0.44-1.798,1.015-2.308,1.723c-0.509,0.709-0.739,1.544-0.691,2.505c0.012,0.679,0.338,1.768,0.978,3.267l5.958,13.951
		c1.844,4.317,2.89,7.554,3.138,9.711c0.249,2.158-0.386,4.511-1.902,7.059c-1.518,2.549-4.181,4.637-7.992,6.264
		c-3.179,1.357-5.816,1.981-7.913,1.873c-2.86-0.145-5.163-0.913-6.909-2.303c-1.746-1.39-3.271-3.61-4.575-6.663l-7.681-17.988
		c-0.902-2.113-1.582-3.377-2.036-3.791c-0.455-0.414-1.037-0.651-1.746-0.712s-1.836,0.25-3.382,0.932L-81.401,1682.605z"/>
	<path d="M-28.856,1660.15l27.867,15.019l-6.759-15.788c-0.943-2.202-1.896-3.557-2.861-4.063c-1.314-0.676-2.984-0.559-5.009,0.351
		l-0.429-1.002l12.132-5.194l0.429,1.002c-1.468,0.864-2.4,1.567-2.797,2.111c-0.397,0.544-0.592,1.236-0.585,2.076
		c0.007,0.842,0.382,2.128,1.124,3.861l13.089,30.573l-0.921,0.395l-37.922-19.942l9.994,23.343
		c0.904,2.112,1.998,3.332,3.281,3.659s2.547,0.223,3.793-0.311l0.866-0.371l0.429,1.002l-13.026,5.577l-0.429-1.002
		c2.014-0.884,3.244-1.902,3.691-3.055s0.252-2.703-0.582-4.653l-11.095-25.916l-1.203-0.639c-1.194-0.643-2.154-0.989-2.881-1.041
		c-0.727-0.052-1.658,0.144-2.793,0.587l-0.429-1.002L-28.856,1660.15z"/>
	<path d="M32.317,1633.931l4.262,9.935l-0.975,0.419c-1.561-2.044-2.908-3.417-4.042-4.116c-1.133-0.7-2.442-1.084-3.924-1.153
		c-0.826-0.03-2.095,0.322-3.81,1.058l-2.734,1.173l12.148,28.316c0.806,1.878,1.413,3.006,1.821,3.386
		c0.409,0.381,0.991,0.617,1.747,0.709c0.755,0.093,1.657-0.085,2.704-0.534l1.218-0.522l0.43,1.001l-19.221,8.246l-0.43-1.002
		l1.218-0.522c1.064-0.456,1.841-1.014,2.328-1.672c0.361-0.453,0.545-1.045,0.553-1.775c0.012-0.519-0.376-1.698-1.166-3.539
		l-12.148-28.316l-2.653,1.138c-2.473,1.062-4.044,2.355-4.714,3.882c-0.943,2.136-1.042,4.646-0.295,7.531l-1.029,0.441
		l-4.262-9.936L32.317,1633.931z"/>
</g>
<path fill="#FFFFFF" d="M74.498,902.173v556.51c0,148.649-297.162,196.948-297.162,196.948s-297.162-48.299-297.162-196.948v-556.51
	H74.498z"/>
<path fill="#2F8F22" d="M74.498,1458.683c0,148.649-297.162,196.948-297.162,196.948s-297.163-48.299-297.163-196.948
	c0,0,0-11.972,6.047-18.779c0,0-3.275,24.724,15.72,43.425c0,0-14.901-26.38-0.328-52.305c0,0-5.404,33.357,15.392,52.512
	c0,0-11.462-27.247,1.474-57.631c0,0-6.386,49.705,16.211,59.612c0,0,6.222-28.568-2.784-46.897c0,0,15.556,6.275,14.737,47.723
	c0,0,4.912-6.11,6.222-35.999c0,0,0.655,34.182,12.445,42.109c0,0,3.602-3.468-1.31-18.99c-4.912-15.522,2.129-20.972,3.275-20.641
	c0,0-2.584,17.174,11.808,30.054c0,0-6.24-26.916,2.438-30.549c0,0-1.801,22.788,16.211,27.907c0,0,1.31-6.605-2.62-14.036
	c0,0-3.439-8.813-0.819-15.553c0,0,5.731,20.672,13.591,24.14c0,0-4.749-12.116-0.327-24.14c0,0,0.982,17.204,16.375,24.305
	c0,0-10.141-13.319-6.135-27.961l98.98,4.843l51.253,2.445l153.76-10.867l26.527-22.788c0,0,10.48,14.531-6.059,37.485
	c0,0,16.375-2.972,21.615-28.568c0,0,6.714,14.201-2.456,29.889c0,0,18.176-18.165,20.796-38.806c0,0,7.041,19.981-10.152,41.448
	c0,0,15.392-5.119,21.942-27.907c0,0,5.24,13.726-9.661,33.119c0,0,27.837-14.789,27.019-45.339c0,0,11.626,16.843-1.637,39.962
	c0,0,14.246-12.715,15.556-31.705c0,0,7.86,8.587-0.655,32.201c0,0,17.357-16.348,19.977-34.017c0,0,3.766,16.348-11.135,36.99
	c0,0,10.152-2.477,19.814-22.623c0,0,2.62,7.926-6.222,22.458c0,0,9.497-1.651,15.884-19.816c0,0,1.146,10.899-1.637,20.641
	c0,0,7.369-4.789,9.006-25.43c0,0,4.115,6.77,4.186,15.192C74.569,1464.215,74.498,1458.683,74.498,1458.683z"/>
<path fill="#D40000" stroke="#000000" stroke-width="2.1841" stroke-linejoin="round" d="M-78.525,1136.975
	c0,0-10.326,1.755-23.59-2.285s-18.624-2.4-22.74,0c0,0,5.382-10.657-7.718-19.073c0,0,4.257,10.761-1.637,15.787
	c0,0-2.62,2.466-5.731-1.25c0,0-4.585-4.706-9.416-8.339c0,0,11.135-3.881,9.088-15.192s-8.106-12.798-11.381-14.201
	c0,0,1.146,5.119,0,8.587c0,0-12.117-6.77,4.339-16.348s13.427-15.192,10.48-20.063c-2.947-4.871-9.252-10.238-12.363-12.137
	c0,0,3.275,5.119,2.702,9.495c-0.573,4.376-8.024,7.183-6.55-0.495s-0.082-6.358-0.246-14.532c0,0,14.656,4.954,20.387-9.33
	c0,0,5.649-14.779-12.854-22.128c0,0,4.503,6.027,2.292,10.568c0,0-3.93,7.431-8.597,1.404c-4.667-6.027-7.614-7.183-7.123-14.284
	c0,0,16.784,2.312,12.199-15.935c0,0-2.702,12.137-24.48-4.211c0,0,14.164-14.532,8.679-26.256c0,0-1.719-5.367-17.112-2.229
	c0,0,13.346-8.422,7.696-15.605c0,0-2.866-4.789-15.311,1.486c0,0,4.831-8.339-7.369-17.339c0,0-8.187,4.293-12.527,8.257
	c0,0-8.351-10.568-13.673-14.779c0,0-9.661,3.715-12.117,14.779c0,0-4.503-5.367-14.737-7.844c0,0-4.912,9.082,1.474,17.009
	c0,0-4.749-0.165-13.427-3.963c0,0-9.907-4.706-8.433,3.798c1.474,8.504,2.211,10.403,4.176,14.366c0,0-22.231-5.163-21.287,6.853
	c0.655,8.339,3.766,15.522,10.644,21.55c0,0-12.445,16.265-23.089,4.046c0,0-3.684,3.963,4.257,14.366c0,0,7.942,8.752,1.392,14.284
	c0,0-8.761,7.018-13.018-6.605c0,0-14.164,14.119,2.538,24.935c0,0,10.726,6.11,21.697-3.303c0,0-3.357,27.082-13.837,21.88
	c0,0-6.304-4.624,4.994-10.156c0,0-16.293-2.064-18.913,13.706c0,0-2.011,12.547,12.199,17.091c0,0,10.971,3.963-0.409,12.467
	c0,0-8.024,6.11-2.784,15.192c0,0,6.304,9.99-9.661,10.981c0,0-8.679-0.083-11.79-1.239c0,0-3.501,6.511-1.055,13.948
	c0,0-7.952-5.925-26.046,0.632s-16.702,1.933-18.176,3.915c-1.474,1.982-4.994,8.669-4.994,8.669s9.497,11.559,9.661,11.312
	c0.164-0.248-1.801,13.21-1.801,13.21l4.667,2.229l37.253-16.596l37.826-19.712l30.412,1.865l19.286,4.593l25.333,1.846
	l18.142-9.678h26.282l28.906,14.404l32.991,19.684l17.194,3.016l13.247-0.706v-26.72L-78.525,1136.975z"/>
<path fill="#D40000" stroke="#000000" stroke-width="2.1841" stroke-linejoin="round" d="M-378.586,1168.217
	c0,0,14.41,7.348,20.428-1.569c0,0,7.86-14.986-9.395-20.187c0,0,9.395-11.27-0.675-21.673c0,0-5.281-5.573-14.492-1.486
	c0,0-3.807-7.926-12.772-7.679c0,0-7.86-0.124-10.562,8.546c0,0-10.807-4.459-16.825,1.982c0,0-9.948,11.146,3.93,19.94l9.989,0.908
	l9.825-4.541l10.971,3.137C-388.165,1145.594-390.99,1156.699-378.586,1168.217z"/>
<path fill="#64B4D1" stroke="#000000" stroke-width="1.6374" d="M-56.923,1141.863c17.359-1.636,23.489,13.015,23.489,13.015
	c9.099,21.348-10.224,32.742-10.224,32.742c1.474,4.789,1.637,11.064,1.637,11.064c27.182,3.303,22.429,33.852,22.429,33.852
	l-9.001-7.431c-15.72-6.11-31.931,7.266-43.557,29.724s-6.059,33.026-4.094,59.613c1.965,26.586,45.195,42.439,45.195,42.439
	s-20.469,52.677-33.732,86.529c-13.264,33.852-40.937,19.816-48.961,12.685s-10.03-3.169-14.082,0
	c-4.053,3.169,18.176,20.507-22.27,36.855c-40.446,16.348-47.487,28.898-54.201,33.026c-6.714,4.128-34.715,1.321-37.498-2.147
	c-2.784-3.468-1.146-3.468-11.626-9.908c-10.48-6.44-28.165-12.055-47.487-21.467c-19.322-9.412-18.831-21.467-18.667-23.944
	c0.164-2.477,6.714-22.623-15.917-6.605c-22.631,16.018-41.886-7.628-41.886-7.628c-4.421-5.812-23.252-56.278-23.252-56.278
	c-5.076-18.825-15.065-40.787-15.065-40.787c0.491-0.165-0.982,2.312,15.72-7.266c16.702-9.578,24.184-25.513,29.966-41.283
	c5.782-15.77,0.164-42.769-1.965-48.218s-14.574-30.433-29.983-35.668s-25.746,7.761-25.746,7.761s-4.754-30.549,22.429-33.852
	c0,0,0.164-6.275,1.637-11.064c0,0-19.322-11.394-10.224-32.742c0,0,6.13-14.65,23.489-13.015l-4.2,7.942
	c0,0-4.371,43.595,59.441,14.366c63.812-29.229,61.897-34.678,98.249-16.348l26.527-0.495c0,0,38.317-17.726,50.598-10.102
	c12.281,7.625,56.493,32.394,56.493,32.394s42.738,16.028,51.09-13.536L-56.923,1141.863z"/>
<path fill="#FFFFFF" stroke="#00247D" stroke-width="2.1833" stroke-miterlimit="10" d="M-248.916,1330.871
	c0,0-2.219-13.38-4.548-22.047c0,0-4.737-13.598,3.344-23.146l10.018-11.53c0,0,6.227-8.378,13.935-9.514
	c0,0,7.708-0.229,8.445-1.797c0.737-1.569,9.17-15.446,29.229,0c0,0,6.386-10.238,16.211-11.972c0,0,10.614-3.22,15.746,4.706
	c0,0,11.927-9.043,22.162,5.51c0,0,14.164-7.967,24.48,7.876c0,0,14.001-6.828,22.597,7.727c8.597,14.555,6.877,20.5,6.877,20.5
	l6.38,23.119l22.603,27.907l-52.563,19.816h-23.58l-47.16,12.633l-83.758,6.44l-23.334-27.494L-248.916,1330.871z"/>
<path fill="#D40000" stroke="#000000" stroke-width="2.1841" stroke-linejoin="round" d="M-319.712,1470.078
	c0,0-12.527,0.743-18.913,3.963c-6.386,3.22-11.299,6.688-18.667,11.394c0,0-3.439,4.582-17.93,1.796
	c0,0-25.054-6.007-25.054,13.561c0,0-29.966,2.477-17.685,28.733c0,0,8.351,20.559,25.545,5.945c0,0-11.053,15.853,10.316,22.045
	c0,0,15.229,3.715,19.65-11.89c0,0,2.456-6.192-3.439-13.871c0,0,7.369-1.486,12.527-9.412c0,0-15.72,19.868,1.474,27.025
	c0,0,21.608,5.423,22.84-17.117c0,0-1.764-10.403,6.611-14.119c0,0,17.218-3.963,25.077-23.16
	C-297.36,1494.971-322.118,1481.785-319.712,1470.078z"/>
<path fill="#D40000" stroke="#000000" stroke-width="2.1841" stroke-linejoin="round" d="M-370.3,1272.514c0,0-19.322-8.9-28.492,0
	c0,0-12.772-7.91-26.2,0c0,0-12.772,8.347-21.615,17.541c0,0-6.222,5.329-3.93,22.123c0,0,3.275,11.84,1.31,17.785
	c0,0-4.257-0.843-12.772,9.247c0,0-10.807,12.515-20.305,1.469c0,0,2.947,15.375,20.796,12.898c0,0-8.679,6.77-1.146,24.274
	c0,0,5.567,12.385-3.275,27.907c0,0,15.556-6.275,14.901-24.605c0,0-1.31-12.385,3.275-21.137c0,0-4.585,7.958,6.059,24.935
	c0,0,8.187,12.22,1.474,24.935c0,0,15.392-5.615,13.919-24.274c-1.474-18.66-10.807-10.899-4.749-28.072
	c0,0,1.474,8.796,6.059,13.232c4.585,4.437,10.48,11.868,8.024,24.252c0,0,9.17-11.394,7.041-23.118
	c-2.129-11.724-4.421-15.271-4.421-15.271l28.984-16.434l14.41-26.091L-370.3,1272.514z"/>
<path fill="none" stroke="#000000" stroke-width="2.1833" stroke-miterlimit="10" d="M-414.349,1346.146
	c0,0-11.954-0.826-13.919-10.073"/>
<path fill="none" stroke="#000000" stroke-width="2.1833" stroke-miterlimit="10" d="M-449.227,1329.963
	c0,0,4.165-0.165,7.931,3.633c0,0,2.876,4.293,6.97,3.798"/>
<path d="M-396.664,1310.973c0,0-6.222,0-9.661-2.972c0,0-3.602-2.477-5.731,1.486c0,0-3.275,5.615,2.784,8.092
	c0,0,7.532,3.798-4.421,11.394c0,0,14.246-5.119,8.515-12.055c0,0-6.222-4.459-3.93-6.11c0,0,0.655-1.321,3.111,0.33
	S-398.629,1312.129-396.664,1310.973z"/>
<polygon fill="#784421" stroke="#000000" stroke-width="1.6374" points="-201.349,1342.521 -249.233,1177.166 -250.985,1177.637 
	-208.675,1344.998 "/>
<path d="M-368.1,1528.03c0,0-11.299-6.349-20.632,1.082c0,0,0.954-4.128,8.091-5.945c0,0,3.862-10.899,14.67-9.908
	c0,0-4.421,5.284-10.316,9.743C-376.287,1523.003-370.065,1523.645-368.1,1528.03z"/>
<path fill="#64B4D1" stroke="#00247D" stroke-width="1.6375" stroke-miterlimit="2.613" d="M-407.891,1554.295
	c0,0-17.931-11.27-8.228-30.219c0,0,2.825-5.449,8.228-4.335c0,0,11.176,3.468,2.456,18.949
	C-405.435,1538.69-409.856,1548.722-407.891,1554.295z"/>
<path fill="#64B4D1" stroke="#00247D" stroke-width="1.6375" stroke-miterlimit="2.613" d="M-371.539,1572.129
	c0,0-25.545-11.642-17.685-31.458c0,0,2.428-6.688,8.091-6.193c0,0,9.851,0.495,7.88,13.623
	C-373.252,1548.103-376.205,1560.983-371.539,1572.129z"/>
<path d="M-376.942,1498.178c0,0-7.676,5.67-10.797,9.468c0,0-3.122-3.881-7.215-6.234c0,0,4.713-0.62,7.215,1.5
	C-387.739,1502.911-383.82,1499.113-376.942,1498.178z"/>
<path fill="#64B4D1" stroke="#00247D" stroke-width="1.6375" stroke-miterlimit="2.613" d="M-354.222,1567.175
	c0,0,20.018-5.078,16.334-25.76c0,0-1.965-9.041-10.439-7.802c0,0-10.212,2.607-3.562,15.755
	C-351.889,1549.367-347.959,1558.754-354.222,1567.175z"/>
<path fill="#F5CE00" stroke="#000000" stroke-width="2.1833" stroke-miterlimit="2.613" d="M-263.778,1129.621
	c0,0,12.894,3.953,19.897,6.808c0,0,18.667,8.422,42.37,0c0,0,16.029-6.348,18.168-6.808l-12.273,18.697l-0.614,9.66l7.679,11.271
	c0,0-4.609,1.857-18.364-6.564c0,0-15.229-11.765-33.405,0c0,0-9.948,6.738-18.299,6.565l11.79-13.166l-4.544-11.854
	L-263.778,1129.621z"/>
<path fill="#FFFFFF" d="M-346.485,1542.467c0,0,0.737-0.991-0.123-1.424c0,0-0.86-0.371-1.474,0.836c0,0-2.088,3.313-0.32,7.848
	c0,0,1.671,3.144,0.859,6.426c0,0-0.109,0.929,0.627,1.053c0,0,0.706-0.248,0.844-0.929c0,0,0.999-3.204-0.721-6.339
	C-346.791,1549.938-348.88,1545.068-346.485,1542.467z"/>
<path fill="#D40000" stroke="#000000" stroke-width="2.1841" stroke-linejoin="round" d="M-69.202,1168.217
	c0,0-14.41,7.348-20.428-1.569c0,0-7.86-14.986,9.395-20.187c0,0-9.395-11.27,0.675-21.673c0,0,5.281-5.573,14.492-1.486
	c0,0,3.807-7.926,12.772-7.679c0,0,7.86-0.124,10.562,8.546c0,0,10.807-4.459,16.825,1.982c0,0,9.948,11.146-3.93,19.94
	l-9.989,0.908l-9.825-4.541l-10.971,3.137C-59.623,1145.594-56.798,1156.699-69.202,1168.217z"/>
<path fill="#F5CE00" stroke="#000000" stroke-width="2.1833" stroke-miterlimit="2.613" d="M-183.335,1156.575
	c0,0-0.363,2.973-3.311,3.303c0,0-3.075,0.99-4.868-2.838c0,0-0.207-0.866-0.256-1.291c-0.206-1.791-0.817-6.936,4.751-11.146
	c0,0,9.088-7.431,26.445,1.569c0,0,13.755,6.605,23.252,12.22c0,0,24.562,13.21,27.51,14.201c0,0,10.807,5.449,27.346,6.11
	c0,0,22.597,1.651,32.177-14.201c0,0,7.287-12.055,0-19.733c0,0-2.947-3.468-7.792-2.829c-2.034,0.268-4.281,1.203-6.454,3.737
	c0,0-3.521,5.119,0.573,8.917c0,0,5.322,3.261,7.205-3.633c0,0,0.082-0.495,0.246,0.124c0.105,0.399,1.31,5.656-1.515,10.114
	c0,0-13.632,20.629-51.131-0.749l-49.452-27.736c0,0-24.808-12.715-39.627,7.183c0,0-11.954,16.513,3.439,27.329
	c0,0,11.462,6.853,18.667-4.046c0,0,5.977-10.734-3.439-15.44c0,0-8.269-3.881-11.544,4.376s6.386,10.403,7.287,4.541
	C-183.826,1156.658-183.581,1155.254-183.335,1156.575z"/>
<path fill="#E4CB5E" stroke="#000000" stroke-width="1.6375" stroke-miterlimit="2.613" d="M-379.36,1241.7c0,0,0-25.76,0-30.962
	c0-2.432,0.017-4.459,3.702-7.431c3.684-2.972,7.614-7.679,13.264,5.697c0,0,11.053-11.642,14.737-13.376
	c0,0,6.386-5.449,10.807,2.477c0,0,5.895-8.917,10.562-11.146c0,0,11.053-7.183,11.544,14.366l8.597-7.926
	c0,0,6.632-5.449,14.001,1.982c0,0,12.527,12.137,14.246,15.605c0,0,2.764,3.757,2.979,9.681c0,0-0.031,6.667,3.408,10.382
	c0,0,3.928,3.468,7.736,4.211c0,0,8.966,0.248,12.159,8.669c0,0,1.474-1.458,5.895,38.903v73.552l-49.616,59.2l-79.582-22.788
	l-31.685-13.128l-7.123-23.284l30.703-19.816l16.702-45.081l-5.404-31.705L-379.36,1241.7z"/>
<path fill="#784421" stroke="#000000" stroke-width="1.6374" d="M-160.083,1280.754l3.766-5.615l9.006-6.935
	c0,0,13.755,36.097,14.41,43.974v11.201c0,0,20.632,5.264,24.235,36.969l-17.03,31.375l-26.691-14.862l-7.696-5.615V1280.754z"/>
<path fill="#FFFFFF" d="M-412.865,1528.596c0,0,0.983-1.3,0.307-1.858c0,0-0.43-0.619-1.597,0.867c0,0-5.424,6.065-1.105,15.388
	c0,0,0.491,1.331,1.351,0.898c0,0,0.737-0.371,0.061-1.486C-413.847,1542.406-417.716,1534.727-412.865,1528.596z"/>
<path fill="none" stroke="#000000" stroke-width="2.1833" stroke-miterlimit="10" d="M-332.403,1522.507c0,0,0.819-2.807-1.146-5.78
	c0,0-1.31-2.147-0.819-4.954"/>
<path fill="none" stroke="#000000" stroke-width="1.6375" stroke-miterlimit="10" d="M-314.743,1201.326
	c0,0,0.074,7.743,2.285,13.44c2.211,5.697,9.674,15.551,10.165,20.876"/>
<path fill="#D40000" stroke="#000000" stroke-width="2.1841" stroke-linejoin="round" d="M-127.579,1470.077
	c0,0,12.527,0.743,18.913,3.963c6.386,3.22,11.299,6.688,18.667,11.394c0,0,3.439,4.582,17.93,1.796c0,0,25.054-6.007,25.054,13.561
	c0,0,29.966,2.477,17.685,28.733c0,0-8.351,20.559-25.545,5.945c0,0,11.053,15.853-10.316,22.045c0,0-15.229,3.715-19.65-11.89
	c0,0-2.456-6.192,3.439-13.871c0,0-7.369-1.486-12.527-9.413c0,0,15.72,19.868-1.474,27.025c0,0-21.608,5.423-22.84-17.117
	c0,0,1.764-10.403-6.611-14.119c0,0-17.218-3.963-25.077-23.16C-149.93,1494.971-125.173,1481.784-127.579,1470.077z"/>
<line fill="none" stroke="#000000" stroke-width="1.6375" stroke-miterlimit="10" x1="-324.625" y1="1235.632" x2="-304.182" y2="1400.639"/>
<line fill="none" stroke="#000000" stroke-width="1.6375" stroke-miterlimit="10" x1="-319.902" y1="1235.276" x2="-296.977" y2="1389.08"/>
<line fill="none" stroke="#000000" stroke-width="1.6375" stroke-miterlimit="10" x1="-315.605" y1="1234.561" x2="-289.199" y2="1387.099"/>
<polygon fill="#784421" stroke="#000000" stroke-width="1.6374" points="-266.52,1371.494 -314.403,1206.139 -316.156,1206.61 
	-273.845,1373.971 "/>
<line fill="none" stroke="#000000" stroke-width="1.6375" stroke-miterlimit="10" x1="-300.955" y1="1228.502" x2="-252.601" y2="1350.687"/>
<line fill="none" stroke="#000000" stroke-width="1.6375" stroke-miterlimit="10" x1="-304.182" y1="1230.478" x2="-257.513" y2="1358.118"/>
<path fill="#FFFFFF" d="M-380.79,1560.405c0,0-5.613-5.381-4.831-15.027c0,0,0.328-2.064-0.703-2.349c0,0-1.099-0.459-1.262,1.936
	c0,0-1.556,10.073,5.24,15.853c0,0,0.463,0.578,1.214,0.413C-381.132,1561.23-380.326,1561.052-380.79,1560.405z"/>
<line fill="none" stroke="#000000" stroke-width="1.6375" stroke-miterlimit="10" x1="-298.774" y1="1226.844" x2="-248.916" y2="1338.302"/>
<line fill="none" stroke="#000000" stroke-width="1.6375" stroke-miterlimit="10" x1="-312.41" y1="1233.77" x2="-281.83" y2="1383.879"/>
<path fill="#F5CE00" stroke="#000000" stroke-width="2.1833" stroke-miterlimit="2.613" d="M-62.263,1344.998
	c-21.84-12.393-26.63-39.887-26.63-39.887c-5.281-27.371,5.404-49.044,5.404-49.044c14.123-29.848,38.325-35.4,38.325-35.4
	s-23.71,16.451-30.342,38.62c0,0-5.158,18.701-2.211,37.155s1.842,13.747,6.386,27.99L-62.263,1344.998z"/>
<path fill="#784421" stroke="#000000" stroke-width="0.9998" d="M-156.316,1275.139l-91.772,28.977l-5.003,40.881
	c-21.779,31.547-66.035,37.147-66.035,37.147l34.431,36.659l66.155,13.871l34.715-26.751l31.44-29.063
	c-3.275-15.522-1.474-38.558-1.474-38.558c0-3.881,1.474-12.963,1.474-12.963S-157.79,1288.02-156.316,1275.139z"/>
<path fill="none" stroke="#000000" stroke-width="1.6375" stroke-miterlimit="10" d="M-251.835,1334.725
	c0,0,60.444-18.874,96.485-34.028"/>
<path fill="none" stroke="#000000" stroke-width="1.6375" stroke-miterlimit="10" d="M-280.847,1369.18
	c0,0,75.406-13.622,128.461-43.841l19.486-13.161"/>
<path fill="none" stroke="#000000" stroke-width="0.5458" stroke-miterlimit="2.613" d="M-191.717,1156.085"/>
<path fill="none" stroke="#000000" stroke-width="1.6375" stroke-miterlimit="10" d="M-132.9,1323.379l-20.96,14.924
	c0,0-84.331,38.888-148.542,39.928"/>
<path fill="none" stroke="#000000" stroke-width="1.6375" stroke-miterlimit="10" d="M-153.877,1365.936
	c0,0-64.828,33.383-101.999,33.878"/>
<path fill="#D40000" stroke="#000000" stroke-width="2.1841" stroke-linejoin="round" d="M-76.571,1272.514c0,0,19.322-8.9,28.492,0
	c0,0,12.772-7.91,26.2,0c0,0,12.772,8.347,21.615,17.541c0,0,6.222,5.329,3.93,22.123c0,0-3.275,11.84-1.31,17.785
	c0,0,4.257-0.843,12.772,9.247c0,0,10.807,12.515,20.305,1.469c0,0-2.947,15.375-20.796,12.898c0,0,8.679,6.77,1.146,24.274
	c0,0-5.567,12.385,3.275,27.907c0,0-15.556-6.275-14.901-24.605c0,0,1.31-12.385-3.275-21.137c0,0,4.585,7.958-6.059,24.935
	c0,0-8.187,12.22-1.474,24.935c0,0-15.392-5.614-13.919-24.274c1.474-18.66,10.807-10.899,4.749-28.072
	c0,0-1.474,8.796-6.059,13.232s-10.48,11.868-8.024,24.252c0,0-9.17-11.394-7.041-23.118s4.421-15.271,4.421-15.271l-28.984-16.434
	l-14.41-26.091L-76.571,1272.514z"/>
<path fill="#FFFFFF" stroke="#00247D" stroke-width="2.1833" stroke-miterlimit="10" d="M-404.887,1376.943
	c0,0,2.702-12.801,14.983-7.763c0,0,4.176-20.97,26.527-21.713c22.352-0.743,23.58,21.797,23.58,23.284
	c0,0,6.565-9.678,17.528-8.555c0,0,18.901-1.114,11.862,29.233l3.575,3.807c0,0,14.439-33.898,44.16-24.98
	c0,0,28.984,8.834,10.071,36.907c0,0,14.304,18.577,26.433,16.843s22.937-5.449,34.972-26.751
	c12.036-21.302,40.037-24.522,47.16-23.284c7.123,1.238,12.749,5.864,13.912,10.899c0,0,14.826-49.483,68.126-41.708l21.369,10.746
	l8.106,3.715l-12.082,34.1l-29.434,66.532l-22.346,6.869l-23.334-13.376l-8.106,4.345l-0.662,19.929l-30.778,22.155l-21.369,8.807
	l-23.58,16.1l-5.486,14.392c0,0-13.023-5.486-27.721,0l-4.864-11.915l-13.755-13.128l-53.433-25.205l-9.654-31.135l-9.753-4.345
	l-10.917,12.507l-15.965,1.86l-23.825-16.1L-404.887,1376.943z"/>
<path fill="none" stroke="#000000" stroke-width="2.1833" stroke-miterlimit="2.613" d="M-172.2,1134.695
	c0,0-20.394-0.908-19.654,20.229"/>
<path fill="#F5CE00" stroke="#000000" stroke-width="2.1833" stroke-miterlimit="2.613" d="M-38.049,1359.233
	c-35.493-10.899-45.195-49.044-45.195-49.044c-7.246-28.609,4.421-53.626,4.421-53.626c16.211-38.071,43.639-38.063,43.639-38.063
	c13.755-0.372,15.404,11.394,15.404,11.394c1.298,8.339-4.556,11.353-4.556,11.353c-9.416,5.119-15.351-1.816-15.351-1.816
	c-3.93-5.119-0.901-9.66-0.901-9.66c2.415-3.385,7.041-1.899,7.041-1.899c3.664,1.135,3.275,5.718,3.275,5.718
	c0.02,0.124,0.102,0.124,0.102,0.124c0.164-0.041,0.102-0.103,0.102-0.103s0.819-5.615-4.667-6.193c0,0-10.685-2.312-23.211,13.293
	c0,0-16.496,21.054-16.457,48.301c0,0-2.088,51.15,51.212,64.401c0,0-5.772,8.298-15.966,38.269c0,0-11.544,38.517-22.563,59.343
	c0,0-14.649,29.704-47.317,17.567c0,0-19.452-8.546-19.404-22.664c0,0-1.351-12.88,10.316-13.871c0,0,11.421-0.867,11.299,8.917
	c0,0,0.307,10.589-12.158,8.174c0,0-4.36-0.929-3.562-5.202c0,0,0.696-3.839,5.956-2.167c0,0,0.164,0.021,0.184-0.062
	c0,0,0.061-0.093-0.123-0.144c0,0-2.034-0.908-4.183-0.157c0,0-1.927,0.643-2.08,3.646c0,0-0.123,2.415,2.456,3.777
	c0,0,3.132,1.115,5.588,0.867c0,0,3.304,6.668,10.78,8.929c10.406,3.147,18.977,0.117,24.222-4.068
	c5.705-4.551,9.395-12.509,10.5-14.459c1.105-1.951,10.685-23.407,17.89-46.484c0,0,6.304-19.898,11.34-30.302L-38.049,1359.233z"/>
<path fill="#F5CE00" stroke="#000000" stroke-width="2.1833" stroke-miterlimit="2.613" d="M-138.202,1456.206
	c0,0,6.632-0.899,6.632,5.016c0,0-0.405,8.638-10.93,6.75c0,0-10.378-2.271-6.693-13.871c0,0,2.456-8.174,12.281-6.997
	c0,0,9.518,0.433,13.693,13.438c0,0,3.193,10.964-2.272,20.373c-6.1,10.502-21.533,17.401-28.984,20.456
	c0,0-29.843,11.724-38.747,18.433c0,0-13.653,10.135-7.614,19.568c0,0,2.333,3.592,5.834,3.592c0,0,3.991,0.186,4.667-3.901
	c0,0,0.02-0.083-0.041-0.186c0,0-0.061,0-0.082,0.103c0,0-0.287,2.498-2.456,3.426c0,0-2.907,1.466-5.956-1.115
	c0,0-3.234-3.096-0.532-7.906c0,0,3.541-5.924,11.79-2.415c0,0,7.266,3.592,4.278,11.312c0,0-2.661,7.103-11.421,7.085
	c0,0-6.598-0.219-10.815-4.641c-6.583-6.903-6.94-20.346-1.139-27.297c0,0,5.486-7.39,16.498-11.89
	c6.379-2.607,18.422-7.844,30.949-12.756c8.806-3.454,16.868-7.588,22.106-13.789c0,0,4.667-5.202,6.018-14.119
	c0,0,1.29-6.688-2.784-8.153c0,0-2.067-0.929-4.339-0.619c0,0-0.061,0.003-0.077,0.041
	C-138.34,1456.144-138.432,1456.245-138.202,1456.206z"/>
<path fill="none" stroke="#000000" stroke-width="2.1833" stroke-miterlimit="2.613" d="M-137.649,1456.165
	c0,0,7.328-1.321,11.913,7.39c0,0,2.702,5.614,3.138,8.861"/>
<path fill="none" stroke="#000000" stroke-width="2.1833" stroke-miterlimit="2.613" d="M-120.212,1441.271
	c0,0-7.338,1.273-3.559,11.654c3.562,9.784,10.176,12.994,12.141,14.356"/>
<path fill="#F5CE00" stroke="#000000" stroke-width="2.1833" stroke-miterlimit="2.613" d="M-263.786,1156.575
	c0,0,0.363,2.973,3.311,3.303c0,0,3.075,0.99,4.868-2.838c0,0,0.207-0.866,0.256-1.291c0.206-1.791,0.817-6.936-4.751-11.147
	c0,0-9.088-7.431-26.445,1.569c0,0-13.755,6.605-23.252,12.22c0,0-24.562,13.21-27.51,14.201c0,0-10.807,5.449-27.346,6.11
	c0,0-22.597,1.651-32.177-14.201c0,0-7.287-12.055,0-19.733c0,0,2.947-3.468,7.792-2.829c2.034,0.268,4.281,1.203,6.454,3.737
	c0,0,3.521,5.119-0.573,8.917c0,0-5.322,3.261-7.205-3.633c0,0-0.082-0.495-0.246,0.124c-0.105,0.399-1.31,5.656,1.515,10.114
	c0,0,13.632,20.629,51.131-0.749l49.452-27.736c0,0,24.808-12.715,39.627,7.183c0,0,11.954,16.513-3.439,27.329
	c0,0-11.462,6.853-18.667-4.046c0,0-5.977-10.734,3.439-15.44c0,0,8.269-3.881,11.544,4.376c3.275,8.257-6.386,10.403-7.287,4.541
	C-263.295,1156.657-263.541,1155.254-263.786,1156.575z"/>
<path fill="#F5CE00" stroke="#000000" stroke-width="2.1833" stroke-miterlimit="2.613" d="M-384.858,1344.998
	c21.84-12.393,26.63-39.887,26.63-39.887c5.281-27.371-5.404-49.044-5.404-49.044c-14.123-29.848-38.325-35.4-38.325-35.4
	s23.71,16.451,30.342,38.62c0,0,5.158,18.701,2.211,37.155s-1.842,13.747-6.386,27.99L-384.858,1344.998z"/>
<path fill="none" stroke="#000000" stroke-width="0.5458" stroke-miterlimit="2.613" d="M-259.334,1156.085"/>
<path fill="none" stroke="#000000" stroke-width="2.1833" stroke-miterlimit="2.613" d="M-274.921,1134.695
	c0,0,20.394-0.908,19.654,20.229"/>
<path fill="#F5CE00" stroke="#000000" stroke-width="2.1833" stroke-miterlimit="2.613" d="M-409.073,1359.232
	c35.493-10.899,45.195-49.044,45.195-49.044c7.246-28.609-4.421-53.626-4.421-53.626c-16.211-38.071-43.639-38.063-43.639-38.063
	c-13.755-0.371-15.404,11.394-15.404,11.394c-1.298,8.339,4.556,11.353,4.556,11.353c9.416,5.119,15.351-1.817,15.351-1.817
	c3.93-5.119,0.901-9.66,0.901-9.66c-2.415-3.385-7.041-1.899-7.041-1.899c-3.664,1.135-3.275,5.718-3.275,5.718
	c-0.02,0.124-0.102,0.124-0.102,0.124c-0.164-0.041-0.102-0.103-0.102-0.103s-0.819-5.615,4.667-6.193
	c0,0,10.685-2.312,23.211,13.293c0,0,16.496,21.054,16.457,48.301c0,0,2.088,51.149-51.212,64.401c0,0,5.772,8.298,15.966,38.269
	c0,0,11.544,38.517,22.563,59.343c0,0,14.649,29.705,47.317,17.568c0,0,19.452-8.546,19.404-22.664c0,0,1.351-12.88-10.316-13.871
	c0,0-11.422-0.867-11.299,8.917c0,0-0.307,10.589,12.158,8.174c0,0,4.36-0.929,3.562-5.202c0,0-0.696-3.839-5.956-2.167
	c0,0-0.164,0.021-0.184-0.062c0,0-0.061-0.093,0.123-0.144c0,0,2.034-0.908,4.183-0.157c0,0,1.927,0.642,2.08,3.646
	c0,0,0.123,2.415-2.456,3.777c0,0-3.132,1.115-5.588,0.867c0,0-3.304,6.668-10.78,8.928c-10.406,3.147-18.977,0.117-24.222-4.067
	c-5.705-4.552-9.395-12.509-10.5-14.459c-1.105-1.951-10.685-23.407-17.89-46.484c0,0-6.304-19.898-11.34-30.302L-409.073,1359.232z
	"/>
<path fill="#F5CE00" stroke="#000000" stroke-width="2.1833" stroke-miterlimit="2.613" d="M-308.92,1456.206
	c0,0-6.632-0.899-6.632,5.016c0,0,0.405,8.638,10.93,6.75c0,0,10.378-2.271,6.693-13.871c0,0-2.456-8.174-12.281-6.997
	c0,0-9.518,0.433-13.693,13.438c0,0-3.193,10.964,2.272,20.373c6.1,10.502,21.533,17.401,28.984,20.456
	c0,0,29.843,11.724,38.747,18.433c0,0,13.653,10.135,7.614,19.568c0,0-2.333,3.592-5.834,3.592c0,0-3.991,0.186-4.667-3.901
	c0,0-0.02-0.083,0.041-0.186c0,0,0.061,0,0.082,0.103c0,0,0.287,2.498,2.456,3.427c0,0,2.907,1.466,5.956-1.115
	c0,0,3.234-3.096,0.532-7.906c0,0-3.541-5.924-11.79-2.415c0,0-7.266,3.592-4.278,11.312c0,0,2.661,7.103,11.421,7.085
	c0,0,6.598-0.219,10.815-4.641c6.583-6.903,6.94-20.346,1.139-27.297c0,0-5.486-7.39-16.498-11.89
	c-6.379-2.607-18.422-7.844-30.949-12.756c-8.806-3.454-16.868-7.588-22.106-13.789c0,0-4.667-5.202-6.018-14.119
	c0,0-1.29-6.688,2.784-8.153c0,0,2.067-0.929,4.339-0.619c0,0,0.061,0.003,0.077,0.041
	C-308.781,1456.144-308.689,1456.245-308.92,1456.206z"/>
<path fill="none" stroke="#000000" stroke-width="2.1833" stroke-miterlimit="2.613" d="M-309.472,1456.164
	c0,0-7.328-1.321-11.913,7.39c0,0-2.702,5.615-3.138,8.862"/>
<path fill="none" stroke="#000000" stroke-width="2.1833" stroke-miterlimit="2.613" d="M-326.909,1441.27
	c0,0,7.338,1.273,3.559,11.654c-3.562,9.784-10.176,12.994-12.141,14.356"/>
<path fill="none" stroke="#000000" stroke-width="2.1833" stroke-miterlimit="2.613" d="M-241.302,1153.732
	c0,0,17.742-11.11,35.861,1.192"/>
<path fill="none" stroke="#000000" stroke-width="1.6375" stroke-miterlimit="2.613" d="M-342.253,1262.259
	c0,0,2.456-9.908-8.842-27.247c0,0-7.369-15.853-11.299-26.008"/>
<path fill="none" stroke="#000000" stroke-width="1.6375" stroke-miterlimit="2.613" d="M-336.85,1198.106
	c0,0,6.398,15.584,8.597,22.561c0,0,7.936,19.547,9.617,23.51"/>
<path fill="none" stroke="#000000" stroke-width="1.6375" stroke-miterlimit="10" d="M-333.656,1273.158c0,0,6.67,7.183,5.914,19.32
	"/>
<path fill="none" stroke="#000000" stroke-width="1.6375" stroke-miterlimit="10" d="M-355.763,1265.479
	c0,0,7.369,3.55,6.883,23.118c0,0-0.742,14.284,10.311,21.467"/>
<path fill="none" stroke="#000000" stroke-width="1.6375" stroke-miterlimit="10" d="M-356.763,1315.101
	c0,0,23.064-2.518,24.334,11.683c0,0,0.491,13.623,8.351,15.11c0,0,11.772,1.115,14.106,12.013"/>
<path fill="none" stroke="#000000" stroke-width="1.6375" stroke-miterlimit="10" d="M-349.499,1330.871
	c0,0,4.053,6.069,7.983,8.669"/>
<path fill="none" stroke="#000000" stroke-width="1.6375" stroke-miterlimit="10" d="M-319.902,1315.886
	c0,0,5.858,8.876,6.963,14.078"/>
<path fill="none" stroke="#000000" stroke-width="1.6375" stroke-miterlimit="10" d="M-294.52,1209.004
	c0,0,5.404,7.348,10.644,10.816"/>
<path fill="none" stroke="#000000" stroke-width="1.6375" stroke-miterlimit="10" d="M-272.906,1252.516
	c0,0,11.462,5.614,9.497,34.512c0,0-1.475,16.948,3.274,26.195"/>
<path fill="#784421" stroke="#000000" stroke-width="1.6374" d="M-326.902,1232.907l0.737,2.725c0,0,20.55,0.867,31.644-13.128
	l-1.187-2.683C-295.708,1219.82-313.638,1218.912-326.902,1232.907z"/>
<path fill="none" stroke="#000000" stroke-width="1.6375" stroke-miterlimit="10" d="M-252.867,1343.161
	c0,0,71.074-21.19,98.468-33.542"/>
<polygon fill="#784421" stroke="#000000" stroke-width="0.9998" points="-261.32,1209.747 -226.167,1196.372 -225.337,1198.725 
	-260.499,1212.078 "/>
<line fill="none" stroke="#000000" stroke-width="1.6375" stroke-miterlimit="10" x1="-257.513" y1="1210.945" x2="-234.179" y2="1325.339"/>
<line fill="none" stroke="#000000" stroke-width="1.6375" stroke-miterlimit="10" x1="-253.465" y1="1209.407" x2="-226.739" y2="1323.275"/>
<line fill="none" stroke="#000000" stroke-width="1.6375" stroke-miterlimit="10" x1="-248.916" y1="1207.68" x2="-219.687" y2="1320.716"/>
<line fill="none" stroke="#000000" stroke-width="1.6375" stroke-miterlimit="10" x1="-237.457" y1="1203.328" x2="-197.609" y2="1288.177"/>
<line fill="none" stroke="#000000" stroke-width="1.6375" stroke-miterlimit="10" x1="-232.185" y1="1201.326" x2="-189.694" y2="1285.678"/>
<line fill="none" stroke="#000000" stroke-width="1.6375" stroke-miterlimit="10" x1="-228.283" y1="1199.844" x2="-182.319" y2="1283.35"/>
<line fill="none" stroke="#000000" stroke-width="1.6375" stroke-miterlimit="10" x1="-235.757" y1="1326.248" x2="-217.722" y2="1320.303"/>
<path fill="none" stroke="#000000" stroke-width="1.6375" stroke-miterlimit="10" d="M-249.412,1314.929
	c0,0,52.866-15.443,92.876-31.579"/>
<path fill="none" stroke="#000000" stroke-width="1.6375" stroke-miterlimit="10" d="M-250.12,1320.716
	c0,0,67.001-17.727,93.584-30.661"/>
<polyline fill="none" stroke="#000000" stroke-width="1.6375" stroke-miterlimit="10" points="-229.676,1375.209 -226.167,1385.943 
	-216.576,1382.875 -219.851,1372.237 "/>
<polyline fill="none" stroke="#000000" stroke-width="1.6375" stroke-miterlimit="10" points="-202.613,1367.497 -199.105,1378.23 
	-189.513,1375.162 -192.788,1364.524 "/>
<polyline fill="none" stroke="#000000" stroke-width="1.6375" stroke-miterlimit="10" points="-248.089,1304.116 -248.916,1289.594 
	-161.065,1262.92 -156.316,1275.139 "/>
<line fill="none" stroke="#000000" stroke-width="1.6375" stroke-miterlimit="10" x1="-211.662" y1="1278.283" x2="-206.874" y2="1291.103"/>
<line fill="none" stroke="#000000" stroke-width="1.6375" stroke-miterlimit="10" x1="-180.95" y1="1268.957" x2="-175.352" y2="1281.15"/>
<line fill="none" stroke="#000000" stroke-width="1.6375" stroke-miterlimit="10" x1="-173.666" y1="1266.746" x2="-168.434" y2="1278.283"/>
<line fill="none" stroke="#000000" stroke-width="1.6375" stroke-miterlimit="10" x1="-166.712" y1="1264.634" x2="-161.211" y2="1276.685"/>
<polyline fill="none" stroke="#000000" stroke-width="1.6375" stroke-miterlimit="10" points="-161.065,1262.92 -151.404,1257.47 
	-147.31,1268.204 "/>
<line fill="none" stroke="#000000" stroke-width="1.6375" stroke-miterlimit="10" x1="-156.316" y1="1260.241" x2="-151.397" y2="1271.351"/>
<path fill="none" stroke="#00247D" stroke-width="2.1833" stroke-miterlimit="10" d="M-374.184,1427.473c0,0-17.194-17.412,0-34.467
	c0,0-18.667-9.128-15.72-23.827"/>
<path fill="none" stroke="#00247D" stroke-width="2.1833" stroke-miterlimit="10" d="M-343.481,1441.27
	c0,0-17.808,2.427-12.527-32.25c0,0-7.369,13.747-9.908,20.812c-1.9,5.287-0.644,13.825,6.895,18.439
	c3.013,1.844,18.978,6.004,24.136-4.573"/>
<path fill="none" stroke="#00247D" stroke-width="2.1833" stroke-miterlimit="10" d="M-363.377,1388.213
	c0,0-7.246,6.688-2.088,18.949"/>
<path fill="none" stroke="#00247D" stroke-width="2.1833" stroke-miterlimit="10" d="M-355.885,1389.823
	c0,0,0.86,11.89,6.755,18.577"/>
<path fill="none" stroke="#00247D" stroke-width="2.1833" stroke-miterlimit="10" d="M-350.794,1385.117
	c0,0-0.056,13.995,10.014,22.664"/>
<path fill="none" stroke="#00247D" stroke-width="2.1833" stroke-miterlimit="10" d="M-345.787,1380.287
	c0,0,0.095,15.729,11.762,25.389"/>
<path fill="none" stroke="#00247D" stroke-width="2.1833" stroke-miterlimit="10" d="M-287.848,1403.323
	c0,0,5.895-12.88,18.299-12.261c0,0-6.018,2.725-5.895,8.752c0,0-0.737,9.949,9.948,10.94c0,0,8.597,1.115,12.895-3.592"/>
<path fill="none" stroke="#00247D" stroke-width="2.1833" stroke-miterlimit="10" d="M-258.496,1462.151
	c0,0-30.58-14.366-27.387-35.049c0,0,1.228-12.632,13.577-18.577"/>
<path fill="none" stroke="#00247D" stroke-width="2.1833" stroke-miterlimit="10" d="M-278.76,1421.652c0,0-2.702,8.917,3.316,15.11
	"/>
<path fill="none" stroke="#00247D" stroke-width="2.1833" stroke-miterlimit="10" d="M-271.882,1415.584
	c0,0-3.684,9.784,2.456,17.091"/>
<path fill="none" stroke="#00247D" stroke-width="2.1833" stroke-miterlimit="10" d="M-264.518,1410.834c0,0-4.417,8.093,0.864,15.4
	"/>
<path fill="none" stroke="#00247D" stroke-width="2.1833" stroke-miterlimit="10" d="M-292.392,1464.254
	c0,0,16.702,14.492,29.72,14.616"/>
<path fill="none" stroke="#00247D" stroke-width="2.1833" stroke-miterlimit="10" d="M-297.673,1468.839
	c0,0,15.609,12.633,25.367,14.49"/>
<path fill="none" stroke="#00247D" stroke-width="2.1833" stroke-miterlimit="10" d="M-303.568,1472.416
	c0,0,19.293,16.982,31.262,18.22"/>
<path fill="none" stroke="#00247D" stroke-width="2.1833" stroke-miterlimit="10" d="M-225.091,1506.241
	c0,0-18.967,10.22-4.264,21.025"/>
<path fill="none" stroke="#00247D" stroke-width="2.1833" stroke-miterlimit="10" d="M-237.127,1494.971
	c0,0,21.492-11.27,30.826-15.481"/>
<path fill="none" stroke="#00247D" stroke-width="2.1833" stroke-miterlimit="10" d="M-229.389,1500.792
	c0,0,31.071-18.949,40.282-23.036"/>
<path fill="none" stroke="#00247D" stroke-width="2.1833" stroke-miterlimit="10" d="M-213.424,1502.03
	c0,0,26.527-17.71,40.773-25.389"/>
<path fill="none" stroke="#00247D" stroke-width="2.1833" stroke-miterlimit="10" d="M-195.862,1501.411
	c0,0,18.299-14.366,35.984-24.77"/>
<path fill="none" stroke="#00247D" stroke-width="2.1833" stroke-miterlimit="10" d="M-153.615,1458.683c0,0-8.965-13.128-38.44,0
	c0,0,10.807-9.807,32.177-17.412"/>
<path fill="none" stroke="#00247D" stroke-width="2.1833" stroke-miterlimit="10" d="M-130.124,1384.869
	c0,0,2.417,10.651-0.163,17.091"/>
<path fill="none" stroke="#00247D" stroke-width="2.1833" stroke-miterlimit="10" d="M-177.931,1436.514
	c0,0,6.141-9.041,21.738-13.5c0,0,4.204,10.527,16.334,8.174c0,0,18.299-3.592,12.772-23.655c0,0-3.807-14.986-24.706-16.472"/>
<path fill="none" stroke="#00247D" stroke-width="2.1833" stroke-miterlimit="10" d="M-89.63,1365.936
	c0,0,21.246,3.824,20.878,21.163c0,0,1.719,26.008-25.668,31.086"/>
<path fill="none" stroke="#00247D" stroke-width="2.1833" stroke-miterlimit="10" d="M-71.765,1376.616
	c0,0,5.838-12.677,18.856-17.879"/>
<path fill="none" stroke="#00247D" stroke-width="2.1833" stroke-miterlimit="10" d="M-68.73,1351.306c0,0,5.803,9.303,9.768,10.658
	"/>
<path fill="none" stroke="#00247D" stroke-width="2.1833" stroke-miterlimit="10" d="M-71.765,1358.737c0,0,5.468,6.684,7.311,7.801
	"/>
<path fill="none" stroke="#00247D" stroke-width="2.1833" stroke-miterlimit="10" d="M-73.541,1365.177c0,0,2.881,4.255,5.432,5.595
	"/>
<path fill="none" stroke="#00247D" stroke-width="2.1833" stroke-miterlimit="10" d="M-182.844,1264.634c0,0,4.135-6.71,14.41-3.861
	"/>
<path fill="none" stroke="#00247D" stroke-width="2.1833" stroke-miterlimit="10" d="M-126.473,1314.929
	c0,0,6.509-27.157,29.229-17.125"/>
<path fill="none" stroke="#00247D" stroke-width="2.1833" stroke-miterlimit="10" d="M-106.455,1295.58
	c0,0,2.333-12.52-3.316-18.895"/>
<path fill="none" stroke="#00247D" stroke-width="2.1833" stroke-miterlimit="10" d="M-121.929,1294.708
	c0,0,2.894,5.179,0.418,9.409"/>
<path fill="#64B4D1" stroke="#00247D" stroke-width="1.6375" stroke-miterlimit="2.613" d="M-75.752,1572.129
	c0,0,25.545-11.642,17.685-31.458c0,0-2.428-6.688-8.091-6.192c0,0-9.851,0.495-7.88,13.623
	C-74.038,1548.102-71.085,1560.982-75.752,1572.129z"/>
<path fill="#FFFFFF" d="M-66.5,1560.404c0,0,5.613-5.381,4.831-15.027c0,0-0.327-2.064,0.703-2.349c0,0,1.099-0.459,1.262,1.936
	c0,0,1.556,10.073-5.24,15.853c0,0-0.463,0.578-1.214,0.413C-66.159,1561.23-66.964,1561.052-66.5,1560.404z"/>
<path fill="#64B4D1" stroke="#00247D" stroke-width="1.6375" stroke-miterlimit="2.613" d="M-39.4,1554.294
	c0,0,17.93-11.27,8.228-30.219c0,0-2.825-5.449-8.228-4.335c0,0-11.176,3.468-2.456,18.949
	C-41.856,1538.689-37.435,1548.721-39.4,1554.294z"/>
<path fill="#FFFFFF" d="M-34.917,1528.596c0,0-0.982-1.3-0.307-1.858c0,0,0.43-0.619,1.597,0.867c0,0,5.424,6.065,1.105,15.389
	c0,0-0.491,1.331-1.351,0.898c0,0-0.737-0.372-0.061-1.486C-33.935,1542.405-30.066,1534.726-34.917,1528.596z"/>
<path fill="#64B4D1" stroke="#00247D" stroke-width="1.6375" stroke-miterlimit="2.613" d="M-93.068,1567.175
	c0,0-20.018-5.078-16.334-25.76c0,0,1.965-9.041,10.439-7.802c0,0,10.212,2.607,3.562,15.755
	C-95.402,1549.366-99.332,1558.753-93.068,1567.175z"/>
<path fill="#FFFFFF" d="M-100.806,1542.467c0,0-0.737-0.991,0.123-1.424c0,0,0.86-0.372,1.474,0.836c0,0,2.088,3.313,0.32,7.848
	c0,0-1.671,3.144-0.859,6.426c0,0,0.109,0.929-0.627,1.053c0,0-0.706-0.248-0.844-0.929c0,0-0.999-3.204,0.721-6.339
	C-100.499,1549.937-98.411,1545.068-100.806,1542.467z"/>
<path d="M-78.7,1528.029c0,0,11.299-6.349,20.632,1.082c0,0-0.954-4.128-8.091-5.945c0,0-3.862-10.899-14.67-9.908
	c0,0,4.421,5.284,10.316,9.743C-70.512,1523.002-76.735,1523.645-78.7,1528.029z"/>
<path d="M-70.348,1498.177c0,0,7.676,5.67,10.797,9.468c0,0,3.122-3.881,7.215-6.234c0,0-4.713-0.62-7.215,1.5
	C-59.551,1502.911-63.471,1499.113-70.348,1498.177z"/>
<path fill="none" stroke="#000000" stroke-width="2.1833" stroke-miterlimit="10" d="M-114.888,1522.506c0,0-0.819-2.807,1.146-5.78
	c0,0,1.31-2.147,0.819-4.954"/>
<path fill="none" stroke="#000000" stroke-width="2.1833" stroke-miterlimit="10" d="M-32.522,1346.146
	c0,0,11.954-0.826,13.919-10.073"/>
<path fill="none" stroke="#000000" stroke-width="2.1833" stroke-miterlimit="10" d="M2.356,1329.963c0,0-4.165-0.165-7.931,3.633
	c0,0-2.876,4.293-6.97,3.798"/>
<path d="M-50.207,1310.973c0,0,6.222,0,9.661-2.972c0,0,3.602-2.477,5.731,1.486c0,0,3.275,5.615-2.784,8.091
	c0,0-7.532,3.798,4.421,11.394c0,0-14.246-5.119-8.515-12.055c0,0,6.222-4.458,3.93-6.11c0,0-0.655-1.321-3.111,0.33
	C-43.33,1312.789-48.242,1312.129-50.207,1310.973z"/>
<path fill="#64B4D1" stroke="#00247D" stroke-width="1.6375" stroke-miterlimit="2.613" d="M-41.744,1160.598
	c0,0,2.811-3.825,1.661-15.301c-1.15-11.475,8.815-12.795,12.647-9.497c0,0,3.96,3.429,0.319,10.707
	C-29.221,1150.711-32.576,1156.147-41.744,1160.598z"/>
<path fill="#FFFFFF" d="M-37.997,1152.03c0,0,3.735-4.015,1.953-12.735c0,0-0.013-0.86,0.482-0.918c0,0,0.906-0.229,1.06,0.631
	c0,0,2.004,9.293-2.21,14.342c0,0-0.771,0.746-1.285,0C-37.997,1153.35-38.567,1152.816-37.997,1152.03z"/>
<path fill="#64B4D1" stroke="#00247D" stroke-width="1.6375" stroke-miterlimit="2.613" d="M-44.926,1156.425
	c0,0-0.295-4.626-8.29-12.487c-7.995-7.861-1.422-15.104,3.474-15.044c0,0,5.073,0.078,6.9,7.808
	C-41.787,1141.167-40.894,1147.339-44.926,1156.425z"/>
<path fill="#FFFFFF" d="M-46.17,1146.364c0,0,0.143-5.666-7.097-11.581c0,0-0.59-0.689-0.251-1.055c0,0,0.536-0.771,1.234-0.173
	c0,0,7.796,6.237,7.984,13.049c0,0-0.085,1.102-0.98,0.83C-45.281,1147.433-46.075,1147.369-46.17,1146.364z"/>
<path fill="#64B4D1" stroke="#00247D" stroke-width="1.6375" stroke-miterlimit="2.613" d="M-55.784,1152.948
	c0,0-2.089-3.769-11.964-7.272c-9.875-3.504-7.208-12.128-3.052-13.974c0,0,4.313-1.898,8.929,3.883
	C-59.204,1138.924-55.994,1143.76-55.784,1152.948z"/>
<path fill="#FFFFFF" d="M-60.11,1146.02c0,0-2.245-5.196-11.286-7.472c0,0-0.823-0.373-0.67-0.849c0,0,0.163-0.927,1.046-0.683
	c0,0,9.679,2.33,12.705,8.424c0,0,0.384,1.035-0.541,1.17C-58.856,1146.609-59.603,1146.89-60.11,1146.02z"/>
<path fill="#64B4D1" stroke="#00247D" stroke-width="1.6375" stroke-miterlimit="2.613" d="M-49.596,1156.72
	c0,0-4.605,1.293-15.179-3.808c-10.574-5.102-15.205,3.777-13.352,8.526c0,0,1.936,4.915,10.12,4.053
	C-63.279,1164.993-56.95,1163.753-49.596,1156.72z"/>
<path fill="#FFFFFF" d="M-74.185,1160.09c0,0,4.794,2.958,13.494-0.407c0,0,0.887-0.171,1.032,0.308c0,0,0.394,0.854-0.469,1.165
	c0,0-9.254,3.69-15.198,0.448c0,0-0.904-0.626-0.222-1.271C-75.548,1160.332-75.095,1159.67-74.185,1160.09z"/>
<path fill="none" stroke="#000000" stroke-width="2.1833" stroke-miterlimit="2.613" d="M-65.067,1123.301
	c0,0,5.281,2.56,4.053,8.752"/>
<path fill="none" stroke="#000000" stroke-width="2.1833" stroke-miterlimit="10" d="M-41.733,1124.168
	c0,0,2.066,6.539-0.216,10.061"/>
<path fill="#64B4D1" stroke="#00247D" stroke-width="1.6375" stroke-miterlimit="2.613" d="M-406.044,1160.598
	c0,0-2.811-3.825-1.661-15.301c1.15-11.475-8.815-12.795-12.647-9.497c0,0-3.96,3.429-0.319,10.707
	C-418.568,1150.711-415.212,1156.147-406.044,1160.598z"/>
<path fill="#FFFFFF" d="M-409.791,1152.03c0,0-3.735-4.015-1.953-12.735c0,0,0.013-0.86-0.482-0.918c0,0-0.906-0.229-1.06,0.631
	c0,0-2.004,9.293,2.21,14.342c0,0,0.771,0.746,1.285,0C-409.791,1153.35-409.221,1152.816-409.791,1152.03z"/>
<path fill="#64B4D1" stroke="#00247D" stroke-width="1.6375" stroke-miterlimit="2.613" d="M-402.862,1156.425
	c0,0,0.295-4.626,8.29-12.487c7.995-7.861,1.422-15.104-3.474-15.044c0,0-5.073,0.078-6.9,7.808
	C-406.001,1141.167-406.895,1147.339-402.862,1156.425z"/>
<path fill="#FFFFFF" d="M-401.618,1146.364c0,0-0.143-5.666,7.097-11.581c0,0,0.59-0.689,0.251-1.055c0,0-0.536-0.771-1.234-0.173
	c0,0-7.796,6.237-7.984,13.049c0,0,0.085,1.102,0.98,0.83C-402.507,1147.433-401.713,1147.369-401.618,1146.364z"/>
<path fill="#64B4D1" stroke="#00247D" stroke-width="1.6375" stroke-miterlimit="2.613" d="M-392.004,1152.948
	c0,0,2.089-3.769,11.964-7.272c9.875-3.504,7.208-12.128,3.052-13.974c0,0-4.313-1.898-8.929,3.883
	C-388.585,1138.924-391.794,1143.76-392.004,1152.948z"/>
<path fill="#FFFFFF" d="M-387.678,1146.02c0,0,2.245-5.196,11.286-7.472c0,0,0.823-0.373,0.67-0.849c0,0-0.163-0.927-1.046-0.683
	c0,0-9.679,2.33-12.705,8.424c0,0-0.384,1.035,0.541,1.17C-388.932,1146.609-388.185,1146.89-387.678,1146.02z"/>
<path fill="#64B4D1" stroke="#00247D" stroke-width="1.6375" stroke-miterlimit="2.613" d="M-398.193,1156.72
	c0,0,4.605,1.293,15.179-3.808c10.574-5.102,15.205,3.777,13.352,8.526c0,0-1.936,4.915-10.12,4.053
	C-384.509,1164.993-390.838,1163.753-398.193,1156.72z"/>
<path fill="#FFFFFF" d="M-373.603,1160.09c0,0-4.794,2.958-13.494-0.407c0,0-0.887-0.171-1.032,0.308c0,0-0.394,0.854,0.469,1.165
	c0,0,9.254,3.69,15.198,0.448c0,0,0.904-0.626,0.222-1.271C-372.24,1160.332-372.693,1159.67-373.603,1160.09z"/>
<path fill="none" stroke="#000000" stroke-width="2.1833" stroke-miterlimit="2.613" d="M-382.721,1123.301
	c0,0-5.281,2.56-4.053,8.752"/>
<path fill="none" stroke="#000000" stroke-width="2.1833" stroke-miterlimit="10" d="M-406.055,1124.168
	c0,0-2.066,6.539,0.216,10.061"/>
<path d="M-176.826,1064.101c0,0,3.345,9.551,1.904,18.206c-1.29,7.74,0.47,9.742,3.268,11.273c2.421,1.325,8.03-0.993,8.706-7.062
	c0,0,6.632,12.942-6.263,21.674c0,0-9.272,5.697-17.132-1.92c-2.769-2.683-3.991-10.094-2.64-16.967c0,0,2.029-9.32-1.351-18.887
	c0,0,5.281,5.635,3.93,16.871c0,0-2.702,20.16,12.22,19.169c0,0,10.316-0.124,10.623-12.633c0,0-3.869,4.458-8.658,2.972
	c-3.392-1.052-6.509-4.335-5.956-9.509C-177.597,1081.861-176.089,1072.399-176.826,1064.101z"/>
<path d="M-193.733,1097.21c0,0-0.819,15.935-15.392,19.816c0,0,2.047-2.89-1.228-10.816c0,0-3.193-4.624-2.947-11.807
	c0,0-4.639,3.629,0.655,13.211c3.193,5.78,0.409,12.715-0.573,12.963C-214.202,1120.824-189.148,1117.274-193.733,1097.21z"/>
<path d="M-212.646,1081.358c0,0-3.521-3.963-3.766-13.128c-0.246-9.165-1.965-11.394-3.193-12.467c0,0,1.801,7.926,1.31,12.798
	c-0.491,4.871,0.327,7.679,0.982,9.99c0,0-7.942,1.238-12.936-10.321c-4.774-11.048-9.579-10.156-11.954-10.073
	c0,0,2.769,0.306,8.351,10.403C-228.278,1078.641-226.728,1080.697-212.646,1081.358z"/>
<path d="M-249.817,1057.414c0,0,4.585,10.981,4.749,16.761c0,0-10.644-3.55-13.509-12.798c0,0-11.381,3.881-7.205,17.009
	c0,0-9.825-3.468-14.246-11.477c0,0,5.486,4.128,10.562,5.945c0,0-0.573-10.568,12.691-14.531c0,0,1.975,9.468,8.597,11.724
	C-248.18,1070.046-248.671,1064.101-249.817,1057.414z"/>
<path d="M-232.296,1038.589c0,0,3.684,5.367,11.217,5.615c3.602,0.118,7.474-0.694,11.217-5.615c0,0-0.491,9.33-11.217,9.412
	C-221.079,1048.001-232.296,1048.414-232.296,1038.589z"/>
<path d="M-278.698,1102.371c0,0,5.588,5.078,6.755,6.75c0,0,3.93,3.839,7.304-1.126c0,0,4.302-7.941,9.583-7.729
	c0,0-3.746,2.601-7.955,10.109c0,0-1.133,2.771-4.265,3.081c-1.467,0.145-3.316,0.619-6.117-2.306
	C-273.394,1111.149-275.812,1108.192-278.698,1102.371z"/>
<path d="M-221.079,1001.186c-11.217-0.005-1.76,8.669-1.76,8.669c0.246,13.747-10.786,17.978-18.299,13.995
	c-7.512-3.983-1.637-13.995-1.637-13.995s-8.474,5.573-3.07,13.623c5.404,8.05,19.568,4.458,24.767-2.972
	c5.199,7.431,19.363,11.023,24.767,2.972c5.404-8.05-3.07-13.623-3.07-13.623s5.875,10.012-1.637,13.995
	c-7.512,3.983-18.545-0.248-18.299-13.995C-219.319,1009.856-209.862,1001.181-221.079,1001.186z"/>
<path d="M-214.284,986.324c0,0,3.93,6.688,3.07,16.843C-211.213,1003.168-207.652,993.012-214.284,986.324z"/>
<path d="M-248.671,1002.053c0,0-0.86-7.307-7.983-7.926C-256.654,994.127-250.636,998.462-248.671,1002.053z"/>
<path d="M-193.406,1002.053c0,0,0.86-7.307,7.983-7.926C-185.423,994.127-191.441,998.462-193.406,1002.053z"/>
<path d="M-259.969,1013.2c0,0,5.649,1.734,9.088-2.477C-250.881,1010.723-257.39,1012.456-259.969,1013.2z"/>
<path d="M-278.268,968.366c0,0,6.57-0.743,13.141,9.041c0,0-6.509,3.468-8.106,5.573c0,0,0-3.22,3.193-6.069
	C-270.04,976.912-271.268,971.958-278.268,968.366z"/>
<path d="M-168.229,968.366c0,0-6.57-0.743-13.141,9.041c0,0,6.509,3.468,8.106,5.573c0,0,0-3.22-3.193-6.069
	C-176.458,976.912-175.229,971.958-168.229,968.366z"/>
<path d="M-218.95,975.667c0,0,5.895,1.617,13.264-2.47c0,0,9.088-4.83,14.86,0c0,0-5.035-2.242-14.737,2.47
	C-205.564,975.667-215.266,980.986-218.95,975.667z"/>
<path fill="#FFFFFF" d="M-212.81,981.618c0,0,5.035-8.83,20.387-7.078C-192.423,974.54-196.599,986.82-212.81,981.618z"/>
<ellipse fill="#784421" cx="-202.221" cy="978.879" rx="3.036" ry="3.847"/>
<ellipse cx="-202.221" cy="978.879" rx="1.803" ry="2.36"/>
<path d="M-245.723,962.793c0,0,9.702,0.619,15.597,4.335c0,0,6.263,3.715,13.386-1.61c0,0,7.747-4.459,12.716-10.651
	c0,0-11.856,8.174-16.277,9.413c0,0-4.053-3.096-5.649-7.555c0,0,0.614-3.344,7-9.536c0,0-8.597,2.601-10.316,9.908
	c0,0,1.597,4.459,4.912,7.926c0,0-1.597,0.743-5.772-1.858C-230.126,963.165-239.214,960.068-245.723,962.793z"/>
<path d="M-221.079,1021.064c-8.392,7.245,0,6.502,0,6.502S-212.687,1028.309-221.079,1021.064z"/>
<path d="M-225.935,975.667c0,0-5.895,1.617-13.264-2.47c0,0-9.088-4.83-14.86,0c0,0,5.035-2.242,14.737,2.47
	C-239.321,975.667-229.619,980.986-225.935,975.667z"/>
<path fill="#FFFFFF" d="M-232.076,981.618c0,0-5.035-8.83-20.387-7.078C-252.462,974.54-248.287,986.82-232.076,981.618z"/>
<ellipse fill="#784421" cx="-242.665" cy="978.879" rx="3.036" ry="3.847"/>
<ellipse cx="-242.665" cy="978.879" rx="1.803" ry="2.36"/>
<path fill="none" stroke="#000000" stroke-width="5.2566" d="M75.449,902.173v556.51c0,148.649-297.162,196.948-297.162,196.948
	s-297.162-48.299-297.162-196.948v-556.51H75.449z"/>
</svg>
