<?xml version="1.0" encoding="UTF-8"?>
<svg xmlns="http://www.w3.org/2000/svg" xmlns:xlink="http://www.w3.org/1999/xlink" width="360" height="400">
<clipPath id="cp">
<path id="shield" d="M20,20V220C20,340 140,340 180,380C220,340 340,340 340,220V20z"/>
</clipPath>
<g clip-path="url(#cp)">
<use xlink:href="#shield" fill="#fff"/>
<path d="M20,20h64v280h64V20h64v280h64V20h64v70H20v70h320v70H20z" fill="#f00"/>
<path d="M20,300V380H340V150z" fill="#0071bc"/>
<path d="M20,265v80L340,170v-80z" fill="#fff" stroke="#fc0" stroke-width="5"/>
<path id="wave" d="M20,370c10,-5 10,-14.5 20,-19.5s10,3.25 20,-1.75s10,-14.5 20,-19.5s10,3.25 20,-1.75s10,-14.5 20,-19.5s10,3.25 20,-1.75s10,-14.5 20,-19.5s10,3.25 20,-1.75s10,-14.5 20,-19.5s10,3.25 20,-1.75s10,-14.5 20,-19.5s10,3.25 20,-1.75s10,-14.5 20,-19.5s10,3.25 20,-1.75s10,-14.5 20,-19.5s10,3.25 20,-1.75" fill="none" stroke="#fff" stroke-width="5"/>
<use xlink:href="#wave" x="5" y="20"/>
<use xlink:href="#wave" x="10" y="40"/>
<use xlink:href="#wave" x="15" y="60"/>
<g id="fdl" fill="#fc0" stroke="#fff" stroke-width="2">
<path d="m114.655,260.215c-0.083-4.347-0.98189-8.38689-2.65465-12.2153-4.38013-11.0283-17.7582-10.7649-14.8091,2.72294,1.08645,4.96989,4.77827,7.89104,9.16387,8.39178-0.31665-1.30917-2.05768-5.9388-0.6523-6.84462,2.24753,0.10173,5.03845,4.75036,5.70916,6.96679,0.0974,0.31864,0.07,0.68627,0.17807,0.99919"/>
<path d="m120.226,260.503c0.0838-4.347,0.9819-8.38689,2.65524-12.2156,4.37984-11.028,17.7578-10.7646,14.8088,2.72293-1.08674,4.97048-4.77803,7.89104-9.16356,8.39238,0.31634-1.30947,2.05738-5.93937,0.652-6.84518-2.24753,0.10173-5.03816,4.75036-5.70946,6.96708-0.0968,0.31806-0.0697,0.68627-0.17806,0.99918"/>
<path d="m117.699,218.389c4.61435,5.95353,7.7127,12.8364,6.3773,20.9099-0.73725,4.45386-2.52355,8.57936-3.78318,12.8699-0.7877,2.69212-0.98908,5.50403-0.89602,8.33384h-3.91479c0.18755-2.85056-0.22299-5.61295-0.89542-8.33384-1.20053-4.31759-3.02686-8.41255-3.78318-12.8699-1.41433-8.33331,1.90585-14.6184,6.35712-20.8834l0.27167-0.41546,0.26649,0.38898z"/>
<path d="m121.351,263.802c0.95378,2.7649,2.59938,5.24255,4.36919,7.54926,0.465,0.63306,1.10002,1.20448,1.59423,1.75393-1.26133-0.0224-2.5037-0.39655-3.72002-0.71727-1.1199-0.40038-2.00289-1.24502-3.06828-1.74233-0.41581,0.66543-0.0898,1.98107-0.32156,2.87545-0.33384,2.78399-0.81532,5.6919-2.39336,8.07207-0.34046,0.91216-0.73016,0.0115-0.99941-0.44106-1.70164-3.10153-2.1899-6.71272-2.28021-10.2038-0.21432-0.80279-1.35383,0.58246-1.87057,0.7249-1.38539,0.95587-3.10052,1.15567-4.71658,1.4407-0.92528,0.034,0.67869-0.83435,0.79272-1.25204,1.89745-2.31375,3.56466-4.86497,4.66017-7.6593,0.00005-0.63393,0.67401-0.33214,1.08337-0.40048h6.87028z"/>
</g>
<use xlink:href="#fdl" x="126" y="-66"/>
</g>
<use xlink:href="#shield" fill="none" stroke="#fc0" stroke-width="5"/>
</svg>