<?xml version="1.0" encoding="UTF-8" standalone="no"?>
<!-- Generator: Adobe Illustrator 17.0.0, SVG Export Plug-In . SVG Version: 6.00 Build 0) -->
<svg
xmlns:dc="http://purl.org/dc/elements/1.1/"
xmlns:cc="http://creativecommons.org/ns#"
xmlns:rdf="http://www.w3.org/1999/02/22-rdf-syntax-ns#"
xmlns:svg="http://www.w3.org/2000/svg"
xmlns="http://www.w3.org/2000/svg"
xmlns:sodipodi="http://sodipodi.sourceforge.net/DTD/sodipodi-0.dtd"
xmlns:inkscape="http://www.inkscape.org/namespaces/inkscape"
version="1.1"
id="Layer_1"
x="0px"
y="0px"
width="349.488px"
height="426.723px"
viewBox="0 0 349.488 426.723"
enable-background="new 0 0 349.488 426.723"
xml:space="preserve"><metadata
id="metadata16095"></metadata><defs
id="defs16093" />
<g
id="g18228"><path
id="path15449"
d="M184.025,423.368c48.053,0,77.366-20.781,77.366-20.781s4.325,6.275,6.247,6.758 c1.922,0.483,5.286-0.965,5.286-0.965c22.585-8.206,61.508-53.582,64.872-59.857c3.364-6.275,4.149-15.447,4.149-15.447 l-21.929-0.483c0,0,0.103-28.48,0.103-32.342s-8.272-5.793-8.272-5.793c34.598-39.583,56.222-116.335,11.052-183.916 s-124.502-88.82-124.502-88.82l0.965-16.412l-17.378,8.689L176.11,1.448h-1.759l-6.508,13.033l-18.2-11.103l-0.061,19.309 c0,0-75.444,20.274-120.614,87.855S5.422,254.875,40.021,294.458c0,0-7.277,1.931-7.277,5.793s1.099,32.342,1.099,32.342 l-23.92,0.483c0,0,0.786,9.172,4.149,15.447c3.364,6.275,42.287,51.651,64.872,59.857c0,0,3.364,1.448,5.286,0.965 c1.922-0.483,6.247-6.758,6.247-6.758s29.313,20.781,77.366,20.781H184.025z"
fill="#FFFFFF" /><path
id="path15451"
d="M91.604,143.107c0.36-0.12,10.915-9.715,19.43-18.231s11.634-12.114,17.511-13.073s10.315,0.84,10.315,0.84 s14.753-17.751,17.631-21.349c2.879-3.598,11.476-11.731,14.393-12.834c2.482-0.938,3.718,0,5.277,0.84 c1.559,0.84,14.827,12.418,21.709,20.39c5.864,6.792,22.909,22.309,22.909,22.309s2.519-3.238,7.556-2.039 c5.037,1.199,18.111,9.955,25.307,17.151c7.196,7.196,9.355,8.756,10.315,9.115c0.96,0.36-2.639,1.079-4.678-0.12 c-2.039-1.199-12.594-13.073-17.991-16.672c-5.397-3.598-13.433-8.156-15.592-6.957c-2.159,1.199-3.958,4.198-5.157,3.958 c-1.199-0.24-1.679-1.079-1.679-1.079s-21.263-22.869-34.423-34.663c-3.479-3.118-11.491-9.422-13.646-9.153 c-3.342,0.418-14.78,13.231-17.898,17.429c-3.118,4.198-13.193,16.072-13.793,17.751c0,0-5.757-3.838-12.714,0.36 c-6.957,4.198-14.393,11.274-18.351,15.832c-3.958,4.558-8.756,9.715-11.034,10.555S91.604,143.107,91.604,143.107z"
fill="#5D6F7A" /><path
id="path15453"
d="M83.808,154.502c0,0,11.754-6.597,19.43-3.718c7.676,2.879,13.073,8.276,13.073,8.276 s4.678-7.796,14.873-6.957s14.033,4.678,14.033,4.678s13.673-21.349,33.943-18.111c20.27,3.238,29.865,18.231,29.865,18.231 s7.316-6.957,15.472-5.157c8.156,1.799,12.954,6.957,12.954,6.957s9.475-9.715,18.111-8.876c8.636,0.84,14.753,5.517,14.753,5.517 l-2.039,1.439c0,0-8.756-5.157-14.273-4.318c-5.517,0.84-11.634,5.157-13.553,7.556c-1.919,2.399-2.519,2.879-2.519,2.879 s-8.156-9.595-17.031-7.796s-12.954,5.877-12.954,5.877s-13.313-19.55-29.865-19.91s-32.504,19.67-32.504,19.67 s-9.235-7.556-16.552-5.517c-7.316,2.039-13.073,8.756-13.073,8.756s-8.396-11.154-15.952-10.915s-13.073,2.639-13.913,2.639 C85.248,155.701,83.808,154.502,83.808,154.502z"
fill="#5D6F7A" /><g
id="g15455">
<g
id="g15457">
<path
id="path15459"
d="M251.01,55.204c-0.135-3.255-2.884-5.784-6.139-5.649 c-1.154,0.048-2.213,0.429-3.098,1.04c-0.612-2.73-3.101-4.719-5.996-4.598c-1.466,0.061-2.782,0.655-3.776,1.584 c-5.692-4.619-11.002-6.691-13.114-4.719c-1.994,1.862-0.58,6.819,3.135,12.413c-1.928,1.036-3.204,3.104-3.107,5.438 c0.135,3.255,2.884,5.784,6.139,5.649c0.282-0.012,0.557-0.05,0.827-0.1c-0.523,0.925-0.807,1.999-0.76,3.139 c0.135,3.255,2.884,5.784,6.139,5.649c2.915-0.121,5.242-2.34,5.6-5.141c3.953,2.392,7.297,3.165,8.869,1.697 c1.752-1.636,0.878-5.657-1.876-10.401c0.485,0.106,0.989,0.159,1.509,0.138C248.616,61.207,251.145,58.459,251.01,55.204z"
stroke-linejoin="round"
stroke="#636466"
fill="#C3D4DD" />
<path
id="path15461"
d="M223.717,79.598 c0,0-0.913-4.256,2.495-5.471c3.409-1.215,6.648-0.754,6.648-0.754s-1.185-5.557,2.189-7.606c3.374-2.049,6.899,0.612,6.899,0.612 s-1.371-5.375,1.06-7.146c2.431-1.771,5.066-1.523,5.066-1.523s1.122-7.442,7.398-5.675c0,0-3.071,3.587-0.527,7.417 s6.801,11.526,5.61,17.301s-6.922,11.381-14.141,9.892c-7.219-1.489-14.238-9.666-17.572-9.527 C225.507,77.257,223.717,79.598,223.717,79.598z"
stroke-linejoin="round"
stroke-linecap="round"
stroke="#064926"
fill="#009042" />
<path
id="path15463"
d="M220.11,44.718c0.102-0.65,5.088-0.405,7.789,2.39c2.701,2.796,4.005,3.065,4.005,3.065 s3.038-3.099,5.15-2.023c2.113,1.075,3.542,4.376,3.542,4.376s3.255-2.526,5.139-0.731c1.884,1.796,1.924,2.763-0.008,2.908 c-1.933,0.145-2.658-0.213-3.379,1.11c-0.72,1.322-1.581,2.392-2.624,2.177c-1.043-0.215-2.341,1.196-2.5,2.043 c-0.159,0.847-0.578,1.64-1.218,1.795s-1.266-0.917-2.704,0.242c-1.438,1.158-3.384,2.532-3.277,3.561 c0.107,1.029-2-1.468-0.449-3.019s2.978-2.967,1.874-3.115s-2.255,0.158-3.475,0.338c-1.22,0.18-5.973,0.895-5.529-0.869 c0.444-1.763,1.965-2.473,3.102-3.102c1.137-0.629,3.094-1.744,3.271-2.139c0.177-0.395-2.306-1.067-4.435-2.53 c-2.129-1.462-1.5-3.427-1.728-4.258C222.429,46.108,220.11,44.718,220.11,44.718z"
fill="#FFFFFF" />
</g>
<g
id="g15465">
<path
id="path15467"
d="M253.906,86.511c0,0-4.687-9.667-1.465-11.425 s9.814,1.611,9.814,1.611s0.146-7.031,3.076-7.324c2.93-0.293,6.152,7.324,6.152,7.324s3.515-5.273,6.591-5.127 c3.076,0.146,2.637,14.062,0.879,18.895c-1.758,4.834-10.546,9.228-14.208,9.667c-3.662,0.439-12.45-0.439-14.062-1.025 c-1.611-0.586-1.465-1.318-1.465-2.197c0-0.879,5.713-3.808,5.713-3.808s-9.228-2.197-8.642-4.687 C246.875,85.925,253.906,86.511,253.906,86.511z"
stroke-linejoin="round"
stroke="#636466"
fill="#C3D4DD" />
<path
id="path15469"
d="M269.725,92.37 c0,0-0.293-5.273,2.197-6.298c2.49-1.025,7.324-0.879,7.324-0.879s1.611-6.591,5.859-7.031c0.586,2.93-1.172,8.203-0.732,13.769 s-0.146,13.036-3.662,14.794c-3.515,1.758-14.501,0.439-17.87-0.439c-3.369-0.879-8.349-2.051-10.839-0.732 c0,0,3.222-4.834,6.298-5.713c3.076-0.879,4.101-0.879,4.101-0.879s-2.637-2.051-0.586-4.687S269.725,92.37,269.725,92.37z"
stroke-linejoin="round"
stroke-linecap="round"
stroke="#064926"
fill="#009042" />
<path
id="path15471"
d="M253.46,77.289c0.989-1.154,4.23-1.428,6.483,0.11c2.253,1.538,4.175,3.351,4.175,3.351 s-0.494-3.241,0-5.109c0.494-1.868,1.099-3.956,1.099-3.956s1.483,5.714,1.813,7.252c0.33,1.538,1.758,2.857,2.088,2.637 c0.33-0.22,2.967-2.692,4.175-4.56s3.626-3.296,3.956-3.406c0.33-0.11-1.319,5-1.703,6.977s0.055,2.088,0.055,2.088 s-4.34,0.385-6.153,2.253s-3.077,4.285-3.077,4.285s-4.505,1.264-5.879,3.187c-1.374,1.923-0.824,2.802-3.296,3.736 c-2.472,0.934-6.318,1.154-6.098,1.044s4.45-2.472,6.043-3.681s1.648-2.472,1.648-2.472s-4.23-1.758-6.263-1.813 c-2.033-0.055-3.846-0.824-3.846-0.824s1.483-1.044,4.945-0.714c3.461,0.33,5.329,0.549,5.329,0.549s-1.868-1.428-2.912-3.351 c-1.044-1.923,0.604-2.857,0.22-3.846C255.877,80.036,253.46,77.289,253.46,77.289z"
fill="#FFFFFF" />
</g>
<g
id="g15473">
<path
id="path15475"
d="M274.516,108.029c0,0-3.254-12.012,0.792-13.319 c4.046-1.307,10.823,3.946,10.823,3.946s1.68-7.971,5.077-7.674s5.426,9.66,5.426,9.66s5.136-5.245,8.606-4.416 c3.469,0.829-0.026,16.572-3.067,21.695c-3.041,5.123-13.99,8.233-18.252,7.945c-4.262-0.288-14.076-3.18-15.784-4.194 c-1.708-1.014-1.383-1.816-1.194-2.816c0.189-1,7.322-3.105,7.322-3.105s-10.03-4.487-8.827-7.195 S274.516,108.029,274.516,108.029z"
stroke-linejoin="round"
stroke="#636466"
fill="#C3D4DD" />
<path
id="path15477"
d="M291.26,118.103 c0,0,0.802-6.065,3.856-6.696c3.055-0.631,8.525,0.576,8.525,0.576s3.253-7.155,8.182-6.741c0.036,3.46-3.099,9.084-3.797,15.514 c-0.698,6.43-2.973,14.806-7.352,16.05s-16.599-2.621-20.245-4.346c-3.645-1.725-9.061-4.131-12.179-3.167 c0,0,4.708-4.808,8.398-5.146c3.69-0.338,4.857-0.118,4.857-0.118s-2.559-2.901,0.342-5.461S291.26,118.103,291.26,118.103z"
stroke-linejoin="round"
stroke-linecap="round"
stroke="#064926"
fill="#009042" />
<path
id="path15479"
d="M275.994,97.437c1.374-1.1,5.122-0.715,7.355,1.52c2.233,2.236,4.031,4.713,4.031,4.713 s0.135-3.796,1.1-5.815c0.965-2.02,2.102-4.266,2.102-4.266s0.458,6.823,0.503,8.644c0.044,1.822,1.386,3.63,1.809,3.451 c0.422-0.179,3.956-2.425,5.734-4.291c1.778-1.866,4.837-2.971,5.235-3.026c0.399-0.054-2.577,5.407-3.44,7.575 c-0.863,2.168-0.387,2.388-0.387,2.388s-5.023-0.496-7.488,1.239c-2.466,1.736-4.424,4.215-4.424,4.215s-5.4,0.469-7.377,2.362 c-1.977,1.893-1.541,3.012-4.556,3.543c-3.015,0.531-7.439-0.047-7.166-0.124c0.274-0.078,5.597-1.856,7.671-2.889 c2.074-1.033,2.408-2.459,2.408-2.459s-4.436-2.912-6.738-3.412c-2.302-0.5-4.2-1.766-4.2-1.766s1.913-0.869,5.782,0.251 s5.947,1.772,5.947,1.772s-1.819-2.028-2.593-4.441c-0.774-2.413,1.303-3.122,1.078-4.33S275.994,97.437,275.994,97.437z"
fill="#FFFFFF" />
</g>
<g
id="g15481">
<path
id="path15483"
d="M294.353,134.351c0,0,0.202-12.443,4.451-12.578 s9.306,6.79,9.306,6.79s3.823-7.193,7.005-5.966c3.182,1.227,2.537,10.785,2.537,10.785s6.388-3.617,9.492-1.859 c3.104,1.758-4.617,15.916-8.958,19.996c-4.341,4.08-15.723,4.035-19.739,2.577c-4.016-1.458-12.644-6.955-14.004-8.403 s-0.826-2.128-0.367-3.037c0.459-0.909,7.895-0.955,7.895-0.955s-8.394-7.09-6.488-9.359S294.353,134.351,294.353,134.351z"
stroke-linejoin="round"
stroke="#636466"
fill="#C3D4DD" />
<path
id="path15485"
d="M307.65,148.669 c0,0,2.451-5.605,5.561-5.365c3.11,0.24,8.031,2.915,8.031,2.915s5.108-5.974,9.729-4.21c-0.924,3.335-5.495,7.869-7.947,13.854 c-2.452,5.985-6.959,13.403-11.511,13.385s-15.223-7.118-18.248-9.785c-3.024-2.668-7.562-6.48-10.825-6.417 c0,0,5.856-3.315,9.495-2.618c3.639,0.697,4.7,1.233,4.7,1.233s-1.655-3.497,1.842-5.152 C301.975,144.853,307.65,148.669,307.65,148.669z"
stroke-linejoin="round"
stroke-linecap="round"
stroke="#064926"
fill="#009042" />
<path
id="path15487"
d="M298.708,124.582c1.625-0.677,5.12,0.732,6.646,3.499c1.526,2.767,2.567,5.645,2.567,5.645 s1.181-3.61,2.668-5.283c1.487-1.673,3.202-3.516,3.202-3.516s-1.45,6.682-1.912,8.445s0.326,3.872,0.782,3.817 c0.456-0.055,4.473-1.234,6.698-2.535c2.225-1.3,5.471-1.515,5.869-1.457c0.398,0.059-3.974,4.481-5.404,6.325 c-1.43,1.844-1.033,2.187-1.033,2.187s-4.689-1.869-7.539-0.884c-2.85,0.985-5.419,2.824-5.419,2.824s-5.318-1.046-7.742,0.225 c-2.424,1.271-2.315,2.467-5.359,2.142c-3.044-0.325-7.135-2.106-6.851-2.105c0.285,0.001,5.892-0.233,8.171-0.65 c2.279-0.418,2.995-1.696,2.995-1.696s-3.456-4.027-5.529-5.145c-2.073-1.118-3.546-2.86-3.546-2.86s2.079-0.305,5.486,1.843 c3.407,2.148,5.223,3.351,5.223,3.351s-1.186-2.452-1.261-4.986c-0.075-2.533,2.117-2.638,2.235-3.862 C299.773,128.685,298.708,124.582,298.708,124.582z"
fill="#FFFFFF" />
</g>
<g
id="g15489">
<path
id="path15491"
d="M302.537,165.217c0,0,3.351-12.428,7.977-11.57 c4.625,0.858,8.344,8.983,8.344,8.983s5.942-6.319,9.071-4.345c3.129,1.973,0.025,11.406,0.025,11.406s7.813-2.133,10.724,0.354 c2.911,2.487-8.996,14.879-14.714,17.955c-5.718,3.076-18.004,0.371-21.975-2.029c-3.972-2.4-11.909-9.928-13.014-11.697 c-1.105-1.769-0.357-2.326,0.368-3.13c0.725-0.804,8.771,0.888,8.771,0.888s-7.284-9.07-4.653-10.899 C296.09,159.301,302.537,165.217,302.537,165.217z"
stroke-linejoin="round"
stroke="#636466"
fill="#C3D4DD" />
<path
id="path15493"
d="M313.298,182.16 c0,0,4.059-5.439,7.359-4.396c3.3,1.043,7.943,5.172,7.943,5.172s7.023-5.168,11.572-2.099 c-1.838,3.371-7.918,7.119-12.075,12.967c-4.156,5.848-10.893,12.728-15.808,11.562s-14.655-11.523-17.251-15.167 c-2.596-3.644-6.538-8.905-10.08-9.659c0,0,7.162-2.107,10.918-0.437c3.756,1.67,4.767,2.515,4.767,2.515 s-0.908-4.195,3.287-5.103C308.127,176.607,313.298,182.16,313.298,182.16z"
stroke-linejoin="round"
stroke-linecap="round"
stroke="#064926"
fill="#009042" />
<path
id="path15495"
d="M309.702,156.44c1.926-0.299,5.347,1.93,6.299,5.061c0.952,3.13,1.352,6.26,1.352,6.26 s2.185-3.343,4.213-4.673c2.028-1.33,4.345-2.777,4.345-2.777s-3.249,6.361-4.193,8.02c-0.944,1.659-0.623,3.958-0.117,4.009 c0.506,0.051,5.144-0.192,7.875-0.976c2.732-0.784,6.292-0.241,6.708-0.089c0.415,0.152-5.422,3.564-7.432,5.079 c-2.01,1.515-1.667,1.952-1.667,1.952s-4.595-2.969-7.922-2.648s-6.566,1.565-6.566,1.565s-5.482-2.291-8.422-1.583 c-2.939,0.708-3.123,1.932-6.329,0.895c-3.207-1.037-7.179-3.779-6.871-3.711c0.307,0.068,6.425,1.144,8.992,1.257 c2.567,0.114,3.663-1,3.663-1s-2.72-4.845-4.678-6.45c-1.958-1.606-3.111-3.696-3.111-3.696s2.323,0.18,5.463,3.13 s4.8,4.58,4.8,4.58s-0.663-2.736-0.107-5.293c0.557-2.557,2.951-2.151,3.388-3.349C309.82,160.803,309.702,156.44,309.702,156.44z "
fill="#FFFFFF" />
</g>
<g
id="g15497">
<path
id="path15499"
d="M300.223,200.356c0,0,6.382-12.207,11.016-10.239 c4.633,1.969,6.635,11.319,6.635,11.319s7.672-5.224,10.483-2.437c2.811,2.787-2.618,11.921-2.618,11.921 s8.657-0.417,11.121,2.856s-12.847,13.458-19.534,15.346c-6.687,1.888-18.895-3.786-22.487-7.214s-10.14-13.133-10.885-15.237 c-0.744-2.104,0.167-2.513,1.11-3.185c0.943-0.672,8.957,2.96,8.957,2.96s-5.507-11.164-2.335-12.465 S300.223,200.356,300.223,200.356z"
stroke-linejoin="round"
stroke="#636466"
fill="#C3D4DD" />
<path
id="path15501"
d="M307.537,220.551 c0,0,5.501-4.741,8.707-2.887c3.206,1.854,7.099,7.245,7.099,7.245s8.535-3.771,12.576,0.49 c-2.702,3.095-9.923,5.601-15.621,10.748c-5.698,5.146-14.331,10.772-19.195,8.415c-4.864-2.357-12.639-15.436-14.506-19.845 c-1.867-4.409-4.766-10.819-8.291-12.428c0,0,7.97-0.541,11.508,2.074c3.537,2.615,4.397,3.733,4.397,3.733 s0.024-4.593,4.617-4.569C303.423,213.552,307.537,220.551,307.537,220.551z"
stroke-linejoin="round"
stroke-linecap="round"
stroke="#064926"
fill="#009042" />
<path
id="path15503"
d="M309.743,192.849c2.081,0.135,5.139,3.256,5.408,6.747c0.269,3.491-0.039,6.853-0.039,6.853 s3.058-2.986,5.485-3.906c2.427-0.92,5.183-1.894,5.183-1.894s-4.869,5.892-6.239,7.407c-1.37,1.515-1.568,3.991-1.051,4.162 c0.517,0.171,5.418,0.992,8.454,0.806s6.629,1.207,7.028,1.462c0.399,0.255-6.491,2.466-8.941,3.583 c-2.451,1.117-2.194,1.652-2.194,1.652s-4.112-4.167-7.663-4.603s-7.222,0.113-7.222,0.113s-5.196-3.665-8.431-3.606 s-3.71,1.295-6.82-0.532c-3.11-1.827-6.624-5.612-6.318-5.47c0.305,0.142,6.447,2.684,9.102,3.398 c2.655,0.714,4.059-0.196,4.059-0.196s-1.719-5.692-3.392-7.823c-1.674-2.131-2.393-4.583-2.393-4.583s2.385,0.727,4.981,4.536 c2.596,3.81,3.953,5.897,3.953,5.897s-0.059-3.012,1.116-5.555c1.174-2.543,3.582-1.563,4.316-2.714 C308.854,197.433,309.743,192.849,309.743,192.849z"
fill="#FFFFFF" />
</g>
<g
id="g15505">
<path
id="path15507"
d="M285.154,234.775c0,0,11.823-10.107,15.85-6.095 s2.192,14.652,2.192,14.652s10.237-2.247,12.01,1.856c1.774,4.103-7.758,11.391-7.758,11.391s9.247,3.204,10.452,7.671 s-19.123,8.699-26.925,7.865c-7.801-0.834-18.207-11.915-20.53-17.018s-5.102-18.027-4.997-20.545 c0.105-2.518,1.232-2.563,2.503-2.871s8.141,6.87,8.141,6.87s-1.075-14.015,2.797-14.044 C282.761,224.477,285.154,234.775,285.154,234.775z"
stroke-linejoin="round"
stroke="#636466"
fill="#C3D4DD" />
<path
id="path15509"
d="M284.324,259.014 c0,0,7.759-2.654,10.339,0.637c2.579,3.291,4.392,10.578,4.392,10.578s10.53-0.362,12.972,5.803 c-4.133,2.107-12.754,1.696-20.889,4.692c-8.136,2.996-19.549,5.26-23.653,0.744s-6.752-21.492-6.854-26.897 c-0.102-5.405-0.444-13.342-3.461-16.51c0,0,8.58,2.785,11.186,7.014c2.607,4.229,3.037,5.761,3.037,5.761s1.957-4.803,6.76-2.846 C282.957,249.948,284.324,259.014,284.324,259.014z"
stroke-linejoin="round"
stroke-linecap="round"
stroke="#064926"
fill="#009042" />
<path
id="path15511"
d="M298.288,230.912c2.124,1.016,4.016,5.574,2.829,9.345s-2.923,7.165-2.923,7.165s4.46-1.843,7.39-1.786 c2.93,0.057,6.228,0.195,6.228,0.195s-7.581,4.126-9.654,5.137c-2.073,1.011-3.322,3.522-2.852,3.919s5.261,3.318,8.52,4.401 c3.259,1.082,6.439,4.053,6.75,4.488c0.311,0.435-7.839-0.146-10.877-0.007s-2.994,0.808-2.994,0.808s-2.556-6.096-6.094-8.046 c-3.537-1.95-7.616-2.919-7.616-2.919s-3.904-6.026-7.318-7.326c-3.414-1.3-4.432-0.204-6.923-3.427 c-2.49-3.223-4.58-8.667-4.32-8.39s5.627,5.525,8.109,7.389c2.482,1.865,4.335,1.502,4.335,1.502s0.593-6.687-0.264-9.625 c-0.857-2.937-0.58-5.809-0.58-5.809s2.193,1.765,3.312,6.849c1.118,5.084,1.661,7.842,1.661,7.842s1.205-3.181,3.505-5.351 c2.3-2.171,4.411-0.131,5.664-1.029S298.288,230.912,298.288,230.912z"
fill="#FFFFFF" />
</g>
<g
id="g15513">
<path
id="path15515"
d="M266.588,269.386c0,0,12.9-3.89,14.859,1.446 c1.96,5.336-3.359,12.554-3.359,12.554s9.397,3.935,9.275,8.403c-0.122,4.468-11.838,7.057-11.838,7.057s7.033,6.805,6.243,11.363 c-0.791,4.559-21.008-0.177-27.73-4.223c-6.722-4.046-11.484-18.482-11.438-24.089c0.046-5.607,2.331-19.023,3.488-21.261 s4.218-5.758,5.5-5.5c1.282,0.258,4.5,8.25,4.5,8.25s4.227-9.606,7.75-8S266.588,269.386,266.588,269.386z"
stroke-linejoin="round"
stroke="#636466"
fill="#C3D4DD" />
<path
id="path15517"
d="M253.53,291.302 c0,0,8.155,0.866,9.105,4.938c0.951,4.072-0.479,11.444-0.479,11.444s9.7,4.113,9.315,10.733 c-4.636,0.168-12.279-3.841-20.92-4.555c-8.64-0.714-19.943-3.475-21.761-9.301c-1.817-5.826,2.942-22.334,5.129-27.278 c2.187-4.944,5.224-12.285,3.825-16.43c0,0,6.605,6.144,7.185,11.077s0.324,6.505,0.324,6.505s3.8-3.53,7.33,0.271 C256.114,282.505,253.53,291.302,253.53,291.302z"
stroke-linejoin="round"
stroke-linecap="round"
stroke="#064926"
fill="#009042" />
<path
id="path15519"
d="M278.043,271.71c1.498,1.818,1.29,6.747-1.376,9.666c-2.667,2.919-5.672,5.264-5.672,5.264 s4.822,0.21,7.454,1.498c2.632,1.287,5.565,2.803,5.565,2.803s-8.614,0.544-10.92,0.587c-2.306,0.042-4.497,1.793-4.239,2.35 s3.371,5.227,5.869,7.583c2.498,2.356,4.129,6.391,4.227,6.916c0.098,0.525-7.046-3.438-9.859-4.593 c-2.813-1.155-3.056-0.53-3.056-0.53s0.253-6.606-2.132-9.866c-2.385-3.26-5.674-5.859-5.674-5.859s-0.998-7.11-3.546-9.728 c-2.548-2.618-3.933-2.054-4.832-6.026c-0.899-3.972,1.118-13.251,1.237-12.89s1.286,8.012,2.75,10.75s3.168,6.021,3.168,6.021 s3.358-5.813,3.82-8.838c0.461-3.025,1.512-6.433,1.512-6.433s1.656,3.446,0.526,8.528s-1.801,7.811-1.801,7.811 s2.434-2.376,5.435-3.374c3.001-0.998,4.03,1.531,5.569,1.456C275.588,274.636,278.043,271.71,278.043,271.71z"
fill="#FFFFFF" />
</g>
</g><g
id="g15521">
<g
id="g15523">
<g
id="g15525">
<path
id="path15527"
d="M108.351,61.064 c3.681-4.417,12.263-6.603,16.413-11.697c2.95-3.621,4.716-9.735,6.226-8.226s-2.641,19.545-6.603,25.959 c-4.345,7.035-12.263,9.999-15.281,14.149c-3.018,4.15-9.244,14.904-17.356,19.431s-13.772,4.905-16.036,8.112 c0,0,0.943-3.962,7.169-6.414s12.703-6.612,17.986-14.158c5.282-7.546,4.087-15.272,4.275-18.479 C105.332,66.534,105.521,64.459,108.351,61.064z"
stroke-linejoin="round"
stroke-linecap="round"
stroke-width="2"
stroke="#8E4A02"
fill="#E8B909" />
<path
id="path15529"
d="M97.975,62.95 c1.435-2.439,3.584-6.98,5.471-6.98s-1.698,5.848-2.264,8.301c-0.566,2.453-2.453,21.318-7.169,24.902 c-4.716,3.584-19.054,15.47-20.941,24.714s-10.079,17.9-13.475,20.918c-3.396,3.018-4.67,2.547-4.67,2.547 s9.236-10.488,11.165-12.524c3.396-3.584,4.716-9.81,6.226-14.715s6.226-9.433,7.546-14.338 c1.321-4.905-1.698-11.885,4.905-19.809C91.372,68.044,96.088,66.157,97.975,62.95z"
stroke-linejoin="round"
stroke-linecap="round"
stroke-width="2"
stroke="#8E4A02"
fill="#E8B909" />
<path
id="path15531"
d="M71.343,81.283 c1.128-2.595,4.385-5.841,6.257-6.07c1.873-0.229-2.264,3.396-1.698,7.169c0.373,2.489-1.057,21.28-5.303,25.411 c-4.245,4.131-13.777,17.646-14.525,27.051s-5.22,15.091-8.223,18.5c-1.243,1.41-3.538,4.812-4.387,8.208 c-0.362,1.45-0.991-5.519-0.991-5.519s6.336-7.224,8.003-9.48c2.935-3.971,3.488-10.311,4.39-15.363 c0.902-5.052,1.778-10.094,2.492-15.123c0.714-5.029-3.459-12.756,2.131-21.423S69.86,84.695,71.343,81.283z"
stroke-linejoin="round"
stroke-linecap="round"
stroke-width="2"
stroke="#8E4A02"
fill="#E8B909" />
<path
id="path15533"
d="M44.083,106.432 c0.387-2.803,2.65-6.806,4.392-7.531c1.742-0.725-1.266,3.88,0.295,7.361c1.03,2.297,5.171,21.439,2.195,26.561 c-2.976,5.122-8.976,20.043-7.165,29.302c1.812,9.259-1.049,15.15-3.024,19.242c-1.975,4.092-4.064,3.683-4.064,3.683 s3.206-6.159,4.204-8.78c1.757-4.614,1.228-12.23,0.736-17.338s-1.006-10.2-1.672-15.235c-0.666-5.036-6.766-11.353-3.716-21.206 S43.574,110.117,44.083,106.432z"
stroke-linejoin="round"
stroke-linecap="round"
stroke-width="2"
stroke="#8E4A02"
fill="#E8B909" />
<path
id="path15535"
d="M25.49,138.386 c-0.626-3.453,0.495-9.043,2.267-10.57c1.772-1.527,0.007,5.061,3.19,8.56c2.1,2.309,12.63,22.378,11.101,29.563 s-1.988,25.487,3.722,35.698c5.71,10.211,5.816,13.158,5.07,18.742c-0.747,5.584-2.919,2.612-2.919,2.612 s0.604-4.515,0.768-7.989c0.289-6.116-4.207-9.072-6.76-14.902c-2.553-5.829-4.153-10.543-6.883-16.219 c-2.73-5.677-12.357-10.765-12.568-23.553C22.269,147.541,26.314,142.926,25.49,138.386z"
stroke-linejoin="round"
stroke-linecap="round"
stroke-width="2"
stroke="#8E4A02"
fill="#E8B909" />
<path
id="path15537"
d="M11.655,162.954 c0,0-3.007,22.203,4.163,33.998s20.121,15.958,29.604,24.747c9.482,8.789,16.652,27.985,16.652,27.985l5.782,4.626l-4.626-9.251 c0,0-7.632-18.271-13.414-23.59s-14.339-9.251-14.802-13.183c-0.463-3.932-3.007-16.883-6.013-23.359 s-13.414-12.952-13.645-15.496C15.124,166.886,14.662,161.798,11.655,162.954z"
stroke-linejoin="round"
stroke-linecap="round"
stroke-width="2"
stroke="#8E4A02"
fill="#E8B909" />
<path
id="path15539"
d="M9.383,204.416 c0,0,4.542,21.94,15.224,30.683c10.682,8.742,25.141,10.835,37.005,15.973c11.864,5.138,24.396,25.147,24.396,25.147l4.514,3.069 l-4.961-7.816c0,0-12.66-18.983-19.882-22.079c-7.221-3.096-17.459-6.43-19.201-9.985c-1.743-3.555-8.446-14.925-13.434-20.034 c-4.988-5.109-16.956-7.758-18.019-10.081S11.834,202.326,9.383,204.416z"
stroke-linejoin="round"
stroke-linecap="round"
stroke-width="2"
stroke="#8E4A02"
fill="#E8B909" />
<path
id="path15541"
d="M17.026,237.719 c0,0,12.835,23.23,27.987,29.374c15.152,6.144,30.051,11.005,45.276,12.656c15.225,1.652,27.291,16.189,27.291,16.189 l6.184,1.888l2.973,1.989c0,0-23.259-21.641-32.515-22.611c-9.256-0.97-19.732-9.498-22.951-12.908 c-3.219-3.41-15.87-11.509-23.305-15.539c-7.435-4.03-20.827-5.245-22.845-7.499S19.067,234.495,17.026,237.719z"
stroke-linejoin="round"
stroke-linecap="round"
stroke-width="2"
stroke="#8E4A02"
fill="#E8B909" />
<path
id="path15543"
d="M39.285,273.565 c0,0,13.95,18.445,27.513,20.449c13.563,2.005,26.738,2.878,39.749,0.691c13.011-2.187,35.087,15.342,35.087,15.342l6.707,0.925 l-8.447-6.533c0,0-22.487-14.421-30.392-13.059c-7.905,1.362-17.867-4-21.035-6.382s-14.898-6.813-21.692-8.74 c-6.794-1.927-18.206,0.219-20.208-1.383C44.564,273.274,40.559,270.07,39.285,273.565z"
stroke-linejoin="round"
stroke-linecap="round"
stroke-width="2"
stroke="#8E4A02"
fill="#E8B909" />
<path
id="path15545"
d="M63.276,301.709 c0,0,16.535,16.168,30.245,16.136s26.869-1.126,39.41-5.222c12.542-4.096,37.569,8.562,37.569,8.562l5.426-0.57l-8.573-3.32 c0,0-24.379-10.92-31.994-8.399c-7.615,2.521-18.263-1.302-21.75-3.187c-3.487-1.885-15.744-4.524-22.749-5.421 c-7.005-0.896-17.971,2.921-20.189,1.634C68.452,300.636,64.016,298.064,63.276,301.709z"
stroke-linejoin="round"
stroke-linecap="round"
stroke-width="2"
stroke="#8E4A02"
fill="#E8B909" />
</g>
<g
id="g15547">
<path
id="path15549"
d="M51.855,142.077 c0,0-3.222-12.071,4.488-21.708s19.741-12.433,23.321-16.563c3.579-4.13,7.985-15.694,20.099-15.694s13.026-1.459,15.143-3.304 c5.063-4.412,7.709-4.956,7.709-4.956s-5.868,9.169-7.52,9.995c-1.652,0.826-7.073,11.481-17.536,14.234 s-17.07,3.304-17.07,3.304s-16.52,6.608-20.65,12.115s-5.507,9.637-5.507,15.694S51.855,142.077,51.855,142.077z"
stroke-linejoin="round"
stroke-linecap="round"
stroke-width="2"
stroke="#8E4A02"
fill="#E8B909" />
<path
id="path15551"
d="M57.946,134.888 c0,0-0.148-11.075,10.632-14.619c10.78-3.544,14.619-2.658,18.459-5.612c3.839-2.953,8.27-6.202,9.894-6.35 c0,0-1.92,3.987-3.839,6.202s-4.873,4.43-5.168,5.907c-0.295,1.477-8.713,14.176-16.096,15.948 c-7.384,1.772-13.733,2.067-13.733,2.067s-11.375,5.43-14.913,22.837c-1.798,8.846-0.74,17.034-0.74,17.034l-2.067,0.591 c0,0-1.235-16.985,0.685-22.153C42.978,151.572,44.361,141.976,57.946,134.888z"
stroke-linejoin="round"
stroke-linecap="round"
stroke-width="2"
stroke="#8E4A02"
fill="#E8B909" />
<path
id="path15553"
d="M76.257,137.103 c0,0-4.725,5.316-9.746,8.27c-5.021,2.953-14.324,6.055-18.607,14.767s-3.839,11.518-3.839,11.518s-5.316,8.122-8.86,16.096 s-2.215,21.117,2.51,25.99c4.725,4.873,8.86,7.827,8.86,7.827l0.443-4.873c0,0-10.928-3.987-10.928-13.29 s3.544-20.379,9.451-24.07c5.907-3.692,12.552-4.578,20.969-16.096s5.612-14.176,7.827-17.573 C76.553,142.271,76.701,138.579,76.257,137.103z"
stroke-linejoin="round"
stroke-linecap="round"
stroke-width="2"
stroke="#8E4A02"
fill="#E8B909" />
<path
id="path15555"
d="M68.283,164.865 c0,0-1.624,7.974-5.464,10.337c-3.839,2.363-15.062,14.472-15.358,21.412s-1.329,17.721-1.329,17.721s-5.021,11.666-2.806,19.197 c2.215,7.531,11.371,12.109,15.801,14.619c4.43,2.51,6.35,5.168,6.35,5.168l-1.181-6.202c0,0-5.316-2.215-9.156-5.021 c-3.839-2.806-10.337-8.122-9.008-13.586s6.498-14.767,6.498-14.767s13.143-9.451,14.767-19.788s1.477-15.505,2.51-17.721 s1.034-6.941,0.738-8.86C70.351,165.456,68.283,164.865,68.283,164.865z"
stroke-linejoin="round"
stroke-linecap="round"
stroke-width="2"
stroke="#8E4A02"
fill="#E8B909" />
<path
id="path15557"
d="M69.169,196.762 c0,0,0,10.632-1.477,12.552c-1.477,1.92-10.632,18.016-8.713,27.467s9.008,23.037,9.894,28.058 c0.886,5.021,7.384,11.666,15.062,15.653s14.176,6.498,14.176,6.498l-0.148-3.839c0,0-6.645-1.624-9.451-3.249 c-2.806-1.624-13.733-7.088-15.801-14.472c-2.067-7.384-1.92-11.814-1.329-14.029s8.417-21.56,5.464-31.011 s-4.578-7.384-4.282-12.552c0.295-5.168-0.295-6.941-0.295-7.679C72.27,197.648,69.169,196.762,69.169,196.762z"
stroke-linejoin="round"
stroke-linecap="round"
stroke-width="2"
stroke="#8E4A02"
fill="#E8B909" />
<path
id="path15559"
d="M82.755,225.705 c0,0,1.772,6.498,0.295,9.746c-1.477,3.249-4.725,25.842,1.181,32.931c5.907,7.088,10.632,11.518,10.632,11.518 s4.725,16.392,12.552,22.003c7.827,5.611,13.29,6.793,18.607,8.417c5.316,1.624,18.692,3.054,18.692,3.054l-6.707-4.666 c0,0-13.809-1.295-17.205-2.625c-3.396-1.329-13.386-6.987-15.601-13.78c-2.215-6.793-4.578-13.586-4.578-13.586 s2.51-9.156,0.148-19.345c-2.363-10.189-8.417-17.868-10.189-22.298c-1.772-4.43-3.544-5.907-3.544-5.907 S86.151,225.115,82.755,225.705z"
stroke-linejoin="round"
stroke-linecap="round"
stroke-width="2"
stroke="#8E4A02"
fill="#E8B909" />
<path
id="path15561"
d="M101.657,245.789 c0,0,3.987,8.713,3.987,12.847c0,4.135,3.692,22.151,10.632,30.716c6.941,8.565,14.619,10.78,17.721,16.392 c3.101,5.612,11.009,7.341,11.009,7.341l0.214-3.501c0,0-8.122-4.135-9.008-8.27s-2.806-20.674-8.565-29.83 c-5.759-9.156-10.78-8.565-15.358-15.358c-4.578-6.793-6.055-8.122-6.941-9.599C104.463,245.05,101.657,245.789,101.657,245.789z "
stroke-linejoin="round"
stroke-linecap="round"
stroke-width="2"
stroke="#8E4A02"
fill="#E8B909" />
</g>
</g>
<g
id="g15563">
<g
id="g15565">
<path
id="path15567"
d="M108.351,61.064 c3.681-4.417,12.263-6.603,16.413-11.697c2.95-3.621,4.716-9.735,6.226-8.226s-2.641,19.545-6.603,25.959 c-4.345,7.035-12.263,9.999-15.281,14.149c-3.018,4.15-9.244,14.904-17.356,19.431s-13.772,4.905-16.036,8.112 c0,0,0.943-3.962,7.169-6.414s12.703-6.612,17.986-14.158c5.282-7.546,4.087-15.272,4.275-18.479 C105.332,66.534,105.521,64.459,108.351,61.064z"
stroke-linejoin="round"
stroke-linecap="round"
stroke-width="0.5"
stroke="#8E4A02"
fill="#E8B909" />
<path
id="path15569"
d="M97.975,62.95 c1.435-2.439,3.584-6.98,5.471-6.98s-1.698,5.848-2.264,8.301c-0.566,2.453-2.453,21.318-7.169,24.902 c-4.716,3.584-19.054,15.47-20.941,24.714s-10.079,17.9-13.475,20.918c-3.396,3.018-4.67,2.547-4.67,2.547 s9.236-10.488,11.165-12.524c3.396-3.584,4.716-9.81,6.226-14.715s6.226-9.433,7.546-14.338 c1.321-4.905-1.698-11.885,4.905-19.809C91.372,68.044,96.088,66.157,97.975,62.95z"
stroke-linejoin="round"
stroke-linecap="round"
stroke-width="0.5"
stroke="#8E4A02"
fill="#E8B909" />
<path
id="path15571"
d="M71.343,81.283 c1.128-2.595,4.385-5.841,6.257-6.07c1.873-0.229-2.264,3.396-1.698,7.169c0.373,2.489-1.057,21.28-5.303,25.411 c-4.245,4.131-13.777,17.646-14.525,27.051s-5.22,15.091-8.223,18.5c-1.243,1.41-3.538,4.812-4.387,8.208 c-0.362,1.45-0.991-5.519-0.991-5.519s6.336-7.224,8.003-9.48c2.935-3.971,3.488-10.311,4.39-15.363 c0.902-5.052,1.778-10.094,2.492-15.123c0.714-5.029-3.459-12.756,2.131-21.423S69.86,84.695,71.343,81.283z"
stroke-linejoin="round"
stroke-linecap="round"
stroke-width="0.5"
stroke="#8E4A02"
fill="#E8B909" />
<path
id="path15573"
d="M44.083,106.432 c0.387-2.803,2.65-6.806,4.392-7.531c1.742-0.725-1.266,3.88,0.295,7.361c1.03,2.297,5.171,21.439,2.195,26.561 c-2.976,5.122-8.976,20.043-7.165,29.302c1.812,9.259-1.049,15.15-3.024,19.242c-1.975,4.092-4.064,3.683-4.064,3.683 s3.206-6.159,4.204-8.78c1.757-4.614,1.228-12.23,0.736-17.338s-1.006-10.2-1.672-15.235c-0.666-5.036-6.766-11.353-3.716-21.206 S43.574,110.117,44.083,106.432z"
stroke-linejoin="round"
stroke-linecap="round"
stroke-width="0.5"
stroke="#8E4A02"
fill="#E8B909" />
<path
id="path15575"
d="M25.49,138.386 c-0.626-3.453,0.495-9.043,2.267-10.57c1.772-1.527,0.007,5.061,3.19,8.56c2.1,2.309,12.63,22.378,11.101,29.563 s-1.988,25.487,3.722,35.698c5.71,10.211,5.816,13.158,5.07,18.742c-0.747,5.584-2.919,2.612-2.919,2.612 s0.604-4.515,0.768-7.989c0.289-6.116-4.207-9.072-6.76-14.902c-2.553-5.829-4.153-10.543-6.883-16.219 c-2.73-5.677-12.357-10.765-12.568-23.553C22.269,147.541,26.314,142.926,25.49,138.386z"
stroke-linejoin="round"
stroke-linecap="round"
stroke-width="0.5"
stroke="#8E4A02"
fill="#E8B909" />
<path
id="path15577"
d="M11.655,162.954 c0,0-3.007,22.203,4.163,33.998s20.121,15.958,29.604,24.747c9.482,8.789,16.652,27.985,16.652,27.985l5.782,4.626l-4.626-9.251 c0,0-7.632-18.271-13.414-23.59s-14.339-9.251-14.802-13.183c-0.463-3.932-3.007-16.883-6.013-23.359 s-13.414-12.952-13.645-15.496C15.124,166.886,14.662,161.798,11.655,162.954z"
stroke-linejoin="round"
stroke-linecap="round"
stroke-width="0.5"
stroke="#8E4A02"
fill="#E8B909" />
<path
id="path15579"
d="M9.383,204.416 c0,0,4.542,21.94,15.224,30.683c10.682,8.742,25.141,10.835,37.005,15.973c11.864,5.138,24.396,25.147,24.396,25.147l4.514,3.069 l-4.961-7.816c0,0-12.66-18.983-19.882-22.079c-7.221-3.096-17.459-6.43-19.201-9.985c-1.743-3.555-8.446-14.925-13.434-20.034 c-4.988-5.109-16.956-7.758-18.019-10.081S11.834,202.326,9.383,204.416z"
stroke-linejoin="round"
stroke-linecap="round"
stroke-width="0.5"
stroke="#8E4A02"
fill="#E8B909" />
<path
id="path15581"
d="M17.026,237.719 c0,0,12.835,23.23,27.987,29.374c15.152,6.144,30.051,11.005,45.276,12.656c15.225,1.652,27.291,16.189,27.291,16.189 l6.184,1.888l2.973,1.989c0,0-23.259-21.641-32.515-22.611c-9.256-0.97-19.732-9.498-22.951-12.908 c-3.219-3.41-15.87-11.509-23.305-15.539c-7.435-4.03-20.827-5.245-22.845-7.499S19.067,234.495,17.026,237.719z"
stroke-linejoin="round"
stroke-linecap="round"
stroke-width="0.5"
stroke="#8E4A02"
fill="#E8B909" />
<path
id="path15583"
d="M39.285,273.565 c0,0,13.95,18.445,27.513,20.449c13.563,2.005,26.738,2.878,39.749,0.691c13.011-2.187,35.087,15.342,35.087,15.342l6.707,0.925 l-8.447-6.533c0,0-22.487-14.421-30.392-13.059c-7.905,1.362-17.867-4-21.035-6.382s-14.898-6.813-21.692-8.74 c-6.794-1.927-18.206,0.219-20.208-1.383C44.564,273.274,40.559,270.07,39.285,273.565z"
stroke-linejoin="round"
stroke-linecap="round"
stroke-width="0.5"
stroke="#8E4A02"
fill="#E8B909" />
<path
id="path15585"
d="M63.276,301.709 c0,0,16.535,16.168,30.245,16.136s26.869-1.126,39.41-5.222c12.542-4.096,37.569,8.562,37.569,8.562l5.426-0.57l-8.573-3.32 c0,0-24.379-10.92-31.994-8.399c-7.615,2.521-18.263-1.302-21.75-3.187c-3.487-1.885-15.744-4.524-22.749-5.421 c-7.005-0.896-17.971,2.921-20.189,1.634C68.452,300.636,64.016,298.064,63.276,301.709z"
stroke-linejoin="round"
stroke-linecap="round"
stroke-width="0.5"
stroke="#8E4A02"
fill="#E8B909" />
</g>
<g
id="g15587">
<path
id="path15589"
d="M51.855,142.077 c0,0-3.222-12.071,4.488-21.708s19.741-12.433,23.321-16.563c3.579-4.13,7.985-15.694,20.099-15.694s13.026-1.459,15.143-3.304 c5.063-4.412,7.709-4.956,7.709-4.956s-5.868,9.169-7.52,9.995c-1.652,0.826-7.073,11.481-17.536,14.234 s-17.07,3.304-17.07,3.304s-16.52,6.608-20.65,12.115s-5.507,9.637-5.507,15.694S51.855,142.077,51.855,142.077z"
stroke-linejoin="round"
stroke-linecap="round"
stroke-width="0.5"
stroke="#8E4A02"
fill="#E8B909" />
<path
id="path15591"
d="M57.946,134.888 c0,0-0.148-11.075,10.632-14.619c10.78-3.544,14.619-2.658,18.459-5.612c3.839-2.953,8.27-6.202,9.894-6.35 c0,0-1.92,3.987-3.839,6.202s-4.873,4.43-5.168,5.907c-0.295,1.477-8.713,14.176-16.096,15.948 c-7.384,1.772-13.733,2.067-13.733,2.067s-11.375,5.43-14.913,22.837c-1.798,8.846-0.74,17.034-0.74,17.034l-2.067,0.591 c0,0-1.235-16.985,0.685-22.153C42.978,151.572,44.361,141.976,57.946,134.888z"
stroke-linejoin="round"
stroke-linecap="round"
stroke-width="0.5"
stroke="#8E4A02"
fill="#E8B909" />
<path
id="path15593"
d="M76.257,137.103 c0,0-4.725,5.316-9.746,8.27c-5.021,2.953-14.324,6.055-18.607,14.767s-3.839,11.518-3.839,11.518s-5.316,8.122-8.86,16.096 s-2.215,21.117,2.51,25.99c4.725,4.873,8.86,7.827,8.86,7.827l0.443-4.873c0,0-10.928-3.987-10.928-13.29 s3.544-20.379,9.451-24.07c5.907-3.692,12.552-4.578,20.969-16.096s5.612-14.176,7.827-17.573 C76.553,142.271,76.701,138.579,76.257,137.103z"
stroke-linejoin="round"
stroke-linecap="round"
stroke-width="0.5"
stroke="#8E4A02"
fill="#E8B909" />
<path
id="path15595"
d="M68.283,164.865 c0,0-1.624,7.974-5.464,10.337c-3.839,2.363-15.062,14.472-15.358,21.412s-1.329,17.721-1.329,17.721s-5.021,11.666-2.806,19.197 c2.215,7.531,11.371,12.109,15.801,14.619c4.43,2.51,6.35,5.168,6.35,5.168l-1.181-6.202c0,0-5.316-2.215-9.156-5.021 c-3.839-2.806-10.337-8.122-9.008-13.586s6.498-14.767,6.498-14.767s13.143-9.451,14.767-19.788s1.477-15.505,2.51-17.721 s1.034-6.941,0.738-8.86C70.351,165.456,68.283,164.865,68.283,164.865z"
stroke-linejoin="round"
stroke-linecap="round"
stroke-width="0.5"
stroke="#8E4A02"
fill="#E8B909" />
<path
id="path15597"
d="M69.169,196.762 c0,0,0,10.632-1.477,12.552c-1.477,1.92-10.632,18.016-8.713,27.467s9.008,23.037,9.894,28.058 c0.886,5.021,7.384,11.666,15.062,15.653s14.176,6.498,14.176,6.498l-0.148-3.839c0,0-6.645-1.624-9.451-3.249 c-2.806-1.624-13.733-7.088-15.801-14.472c-2.067-7.384-1.92-11.814-1.329-14.029s8.417-21.56,5.464-31.011 s-4.578-7.384-4.282-12.552c0.295-5.168-0.295-6.941-0.295-7.679C72.27,197.648,69.169,196.762,69.169,196.762z"
stroke-linejoin="round"
stroke-linecap="round"
stroke-width="0.5"
stroke="#8E4A02"
fill="#E8B909" />
<path
id="path15599"
d="M82.755,225.705 c0,0,1.772,6.498,0.295,9.746c-1.477,3.249-4.725,25.842,1.181,32.931c5.907,7.088,10.632,11.518,10.632,11.518 s4.725,16.392,12.552,22.003c7.827,5.611,13.29,6.793,18.607,8.417c5.316,1.624,18.692,3.054,18.692,3.054l-6.707-4.666 c0,0-13.809-1.295-17.205-2.625c-3.396-1.329-13.386-6.987-15.601-13.78c-2.215-6.793-4.578-13.586-4.578-13.586 s2.51-9.156,0.148-19.345c-2.363-10.189-8.417-17.868-10.189-22.298c-1.772-4.43-3.544-5.907-3.544-5.907 S86.151,225.115,82.755,225.705z"
stroke-linejoin="round"
stroke-linecap="round"
stroke-width="0.5"
stroke="#8E4A02"
fill="#E8B909" />
<path
id="path15601"
d="M101.657,245.789 c0,0,3.987,8.713,3.987,12.847c0,4.135,3.692,22.151,10.632,30.716c6.941,8.565,14.619,10.78,17.721,16.392 c3.101,5.612,11.009,7.341,11.009,7.341l0.214-3.501c0,0-8.122-4.135-9.008-8.27s-2.806-20.674-8.565-29.83 c-5.759-9.156-10.78-8.565-15.358-15.358c-4.578-6.793-6.055-8.122-6.941-9.599C104.463,245.05,101.657,245.789,101.657,245.789z "
stroke-linejoin="round"
stroke-linecap="round"
stroke-width="0.5"
stroke="#8E4A02"
fill="#E8B909" />
</g>
</g>
<path
id="path15603"
d="M124.955,51.941c0,0-9.097,7.093-11.256,7.555s-6.476,2.004-6.476,8.018s0.154,9.097,0.154,9.097 l1.079-2.467l0.771,1.233c0,0,0.925-6.938,6.013-10.947S124.955,51.941,124.955,51.941z"
fill="#FFE85E" />
<path
id="path15605"
d="M97.51,66.28c0,0-7.555,6.784-10.33,9.714s-3.855,4.009-4.009,7.555s-0.925,9.097-0.925,9.097l1.388-2.621 l0.771,1.388c0,0,2.159-9.559,5.242-12.026c3.084-2.467,5.551-6.013,6.63-8.018C97.356,69.364,97.51,66.28,97.51,66.28z"
fill="#FFE85E" />
<path
id="path15607"
d="M83.633,102.36c0,0,5.088-10.793,12.181-11.718c7.093-0.925,14.493-1.388,14.493-1.388 s-2.93,3.392-7.709,5.088s-6.784,0.463-10.485,2.467c-1.25,0.677-6.63,6.167-6.63,6.167l0.308-1.388L83.633,102.36z"
fill="#FFE85E" />
<path
id="path15609"
d="M72.99,83.091c0,0-12.947,11.251-13.718,15.722s-0.154,10.639-0.154,10.639l1.388-4.934l0.925,2.467 c0,0,3.084-9.559,4.78-12.181c1.696-2.621,2.93-3.238,2.93-3.238l0.925,5.859c0,0,2.775-4.317,2.621-7.093 S72.99,83.091,72.99,83.091z"
fill="#FFE85E" />
<path
id="path15611"
d="M85.718,118.026c0,0-16.953,2.61-19.99,5.981s-5.806,8.916-5.806,8.916l3.806-3.433l-0.534,2.58 c0,0,7.708-6.441,10.541-7.753c2.833-1.312,4.205-1.176,4.205-1.176l-2.343,5.449c0,0,4.65-2.171,6.001-4.601 C82.947,121.56,85.718,118.026,85.718,118.026z"
fill="#FFE85E" />
<path
id="path15613"
d="M45.17,109.725c0,0-8.563,14.863-7.831,19.341c0.732,4.478,3.329,10.106,3.329,10.106l-0.3-5.117l1.68,2.03 c0,0-0.207-10.042,0.54-13.074c0.747-3.031,1.711-4.017,1.711-4.017l2.788,5.236c0,0,1.213-4.987,0.161-7.56 C46.196,114.097,45.17,109.725,45.17,109.725z"
fill="#FFE85E" />
<path
id="path15615"
d="M28.505,142.19c0,0-5.727,13.993-3.43,22.575c1.302,4.862,6.03,10.16,6.03,10.16l-1.592-5.449l2.277,1.817 c0,0-2.724-10.78-2.693-14.212c0.031-3.432,0.802-4.708,0.802-4.708l4.245,5.029c0,0,0.035-5.643-1.716-8.185 S28.505,142.19,28.505,142.19z"
fill="#FFE85E" />
<path
id="path15617"
d="M15.71,173.324c0,0,11.821,9.427,13.997,18.04c1.233,4.88-0.313,11.81-0.313,11.81l-1.266-5.534 l-1.103,2.697c0,0-2.876-10.74-4.576-13.722c-1.7-2.982-2.995-3.72-2.995-3.72l-1.255,6.46c0,0-2.781-4.91-2.491-7.983 S15.71,173.324,15.71,173.324z"
fill="#FFE85E" />
<path
id="path15619"
d="M16.14,212.895c0,0,13.049,2.368,18.899,11.207c3.314,5.008,8.618,15.22,8.618,15.22l-4.351-4.459 l-0.06,3.616c0,0-7.466-10.944-10.494-13.554c-3.029-2.61-4.705-2.84-4.705-2.84l1.326,8.003c0,0-4.968-4.307-5.924-7.967 C18.495,218.461,16.14,212.895,16.14,212.895z"
fill="#FFE85E" />
<path
id="path15621"
d="M29.686,246.967c0,0,13.191-1.369,21.276,5.486c4.58,3.884,15.983,11.44,15.983,11.44l-5.868-0.733 l4.034,4.768c0,0-16.32-11.269-19.957-12.929c-3.637-1.66-5.31-1.414-5.31-1.414l3.508,7.315c0,0-5.972-2.749-7.912-5.997 C33.5,251.655,29.686,246.967,29.686,246.967z"
fill="#FFE85E" />
<path
id="path15623"
d="M51.904,278.834c0,0,12.686-3.868,21.933,1.313c5.239,2.935,17.878,8.169,17.878,8.169l-5.9,0.403 l4.872,3.907c0,0-18.176-7.936-22.063-8.87c-3.887-0.934-5.483-0.371-5.483-0.371l4.843,6.508c0,0-6.388-1.555-8.913-4.371 C56.545,282.705,51.904,278.834,51.904,278.834z"
fill="#FFE85E" />
<path
id="path15625"
d="M75.861,305.497c0,0,11.852-5.952,21.84-2.405c5.659,2.01,18.999,5.037,18.999,5.037l-5.747,1.392 l5.461,3.03c0,0-19.253-4.758-23.243-5.023s-5.467,0.559-5.467,0.559l5.871,5.598c0,0-6.559-0.455-9.523-2.806 C81.089,308.53,75.861,305.497,75.861,305.497z"
fill="#FFE85E" />
<path
id="path15627"
d="M70.121,145.718c0,0-16.941,7.875-19.187,12.379c-2.246,4.505-3.62,11.246-3.62,11.246l3.029-4.802 l0.146,2.91c0,0,6.274-9.179,8.866-11.429c2.593-2.25,4.058-2.517,4.058-2.517l-0.958,6.511c0,0,4.251-3.711,4.996-6.706 S70.121,145.718,70.121,145.718z"
fill="#FFE85E" />
<path
id="path15629"
d="M65.176,175.783c0,0-14.007,12.361-14.881,17.318c-0.874,4.957-0.277,11.811-0.277,11.811l1.54-5.464 l0.966,2.748c0,0,3.408-10.583,5.255-13.476c1.847-2.893,3.177-3.565,3.177-3.565l0.931,6.515c0,0,3.023-4.765,2.886-7.848 C64.638,180.738,65.176,175.783,65.176,175.783z"
fill="#FFE85E" />
<path
id="path15631"
d="M69.601,209.779c0,0-10.147,19.066-9.082,24.787s4.493,12.898,4.493,12.898l-0.55-6.54l2.162,2.583 c0,0-0.605-12.84,0.22-16.721c0.825-3.882,1.992-5.149,1.992-5.149l3.652,6.675c0,0,1.338-6.385-0.06-9.668 C71.029,215.362,69.601,209.779,69.601,209.779z"
fill="#FFE85E" />
<path
id="path15633"
d="M85.812,234.588c0,0-4.563,21.111-1.978,26.324c2.585,5.213,7.84,11.184,7.84,11.184l-2.313-6.143 l2.784,1.896c0,0-4.083-12.188-4.348-16.148c-0.264-3.959,0.512-5.497,0.512-5.497l5.333,5.426c0,0-0.454-6.508-2.694-9.285 C88.708,239.57,85.812,234.588,85.812,234.588z"
fill="#FFE85E" />
<path
id="path15635"
d="M106.694,257.481c0,0,3.409,21.327,7.71,25.247c4.301,3.92,11.364,7.577,11.364,7.577l-4.384-4.885 l3.282,0.756c0,0-8.228-9.876-9.911-13.469c-1.683-3.594-1.517-5.308-1.517-5.308l6.939,3.121c0,0-2.785-5.9-5.88-7.674 S106.694,257.481,106.694,257.481z"
fill="#FFE85E" />
</g><polygon
id="polygon15637"
points="189.86,27.933 195.271,11.282 181.171,21.526 183.253,27.933 "
fill="#D3A809" /><polygon
id="polygon15639"
points="167.859,21.526 153.76,11.282 159.17,27.933 165.778,27.933 "
fill="#D3A809" /><polygon
id="polygon15641"
points="194.103,40.593 188.652,44.552 190.67,50.761 208.098,50.761 "
fill="#D3A809" /><polygon
id="polygon15643"
points="169.169,58.708 174.515,75.161 179.861,58.708 174.515,54.824 "
fill="#D3A809" /><polygon
id="polygon15645"
points="154.927,40.593 140.932,50.761 158.36,50.761 160.377,44.552 "
fill="#D3A809" /><g
id="g15647">
<polygon
id="polygon15649"
points="124.424,288.73 134.712,288.73 134.712,318.913 118.454,318.913 118.454,346.43 145.971,346.43 145.971,333.728 174.296,333.728 174.296,284.389 124.424,284.389 "
fill="#28903B" />
<polygon
id="polygon15651"
points="218.88,288.73 229.169,288.73 229.169,284.389 179.296,284.389 179.296,333.728 207.622,333.728 207.622,346.43 235.138,346.43 235.138,318.913 218.88,318.913 "
fill="#FFD400" />
<path
id="path15653"
d="M229.169,275.242H218.88v-33.35h2.5c6.423,0,11.648-5.225,11.648-11.647s-5.226-11.648-11.648-11.648 s-11.647,5.226-11.647,11.648c0,0.054,0.006,0.105,0.009,0.158l0.018,0.307l0.096,2.592H196.58l-0.385-2.429 c0.012-1.073-0.56-1.925-0.998-2.368c-0.824-0.834-2.061-1.313-3.392-1.313c-2.523,0-4.685,1.717-5.256,4.176l-0.45,1.934h-17.548 l-0.45-1.934c-0.572-2.459-2.733-4.176-5.257-4.176c-2.523,0-4.685,1.717-5.256,4.176l-0.45,1.934h-13.407l0.119-2.892 c0.003-0.055,0.009-0.109,0.009-0.165c0-6.423-5.225-11.648-11.648-11.648c-6.422,0-11.647,5.226-11.647,11.648 s5.225,11.647,11.647,11.647h2.5v33.35h-10.289v4.146h104.745V275.242z"
fill="#0072BC" />
<g
id="g15655">
<polygon
id="polygon15657"
points="113.454,351.43 113.454,313.913 129.712,313.913 129.712,293.797 122.141,301.23 122.212,301.23 122.212,313.845 113.516,313.845 105.954,318.503 105.954,358.93 106.001,358.93 113.526,351.43 "
stroke-linejoin="round"
stroke-linecap="round"
stroke="#636466"
fill="#8C8C8C" />
<polygon
id="polygon15659"
points="150.971,351.43 113.526,351.43 106.001,358.93 158.471,358.93 158.471,358.831 150.971,351.401 "
stroke-linejoin="round"
stroke-linecap="round"
stroke="#636466"
fill="#636466" />
<polygon
id="polygon15661"
points="202.622,338.728 150.971,338.728 150.971,338.889 158.471,346.321 158.471,346.228 195.201,346.228 195.201,346.245 202.622,338.798 "
stroke-linejoin="round"
stroke-linecap="round"
stroke="#636466"
fill="#636466" />
<polygon
id="polygon15663"
points="150.971,351.401 158.471,358.831 158.471,346.321 150.971,338.889 "
stroke-linejoin="round"
stroke-linecap="round"
stroke="#636466"
fill="#8C8C8C" />
<polygon
id="polygon15665"
points="129.712,293.73 119.424,293.73 119.424,293.641 111.924,301.2 111.924,301.23 122.141,301.23 129.712,293.797 "
stroke-linejoin="round"
stroke-linecap="round"
stroke="#636466"
fill="#636466" />
<path
id="path15667"
d="M119.424,270.242h10.289v-23.537 c-0.016-0.002-0.03-0.007-0.046-0.009l-7.598,5.516l0,0h0.144v17.962h-3.055l-7.234,5.625V301.2l7.5-7.559V270.242z"
stroke-linejoin="round"
stroke-linecap="round"
stroke="#636466"
fill="#8C8C8C" />
<linearGradient
y2="213.3282"
x2="120.7751"
y1="252.2119"
x1="120.7751"
gradientUnits="userSpaceOnUse"
id="SVGID_1_">
<stop
id="stop15670"
style="stop-color:#636466"
offset="0" />
<stop
id="stop15672"
style="stop-color:#656668"
offset="0.0085" />
<stop
id="stop15674"
style="stop-color:#838588"
offset="0.1621" />
<stop
id="stop15676"
style="stop-color:#9B9DA0"
offset="0.3132" />
<stop
id="stop15678"
style="stop-color:#ADAFB2"
offset="0.459" />
<stop
id="stop15680"
style="stop-color:#B8BABC"
offset="0.5974" />
<stop
id="stop15682"
style="stop-color:#BCBEC0"
offset="0.7204" />
<stop
id="stop15684"
style="stop-color:#DCDDDE"
offset="1" />
</linearGradient>
<path
id="path15686"
d="M115.565,230.245 c0-9.18,7.468-16.648,16.647-16.648c0.429,0,0.852,0.028,1.273,0.06c-1.388-0.21-2.839-0.328-4.361-0.328 c-11.612,0-21.06,9.134-21.06,20.362c0,10.333,5.073,15.229,14.003,18.522l7.598-5.516 C121.691,245.467,115.565,238.559,115.565,230.245z"
stroke-linejoin="round"
stroke-linecap="round"
stroke="#636466"
fill="url(#SVGID_1_)" />
<polygon
id="polygon15688"
points="247.718,318.503 240.156,313.845 231.46,313.845 231.46,301.286 223.94,293.73 223.88,293.73 223.88,313.913 240.138,313.913 240.138,351.36 247.718,358.851 "
stroke-linejoin="round"
stroke-linecap="round"
stroke="#636466"
fill="#8C8C8C" />
<polygon
id="polygon15690"
points="247.718,358.851 240.138,351.36 240.138,351.43 202.622,351.43 202.622,351.336 195.216,358.93 247.718,358.93 "
stroke-linejoin="round"
stroke-linecap="round"
stroke="#636466"
fill="#636466" />
<polygon
id="polygon15692"
points="231.46,301.23 241.742,301.23 234.169,293.722 234.169,293.73 223.94,293.73 231.46,301.286 "
stroke-linejoin="round"
stroke-linecap="round"
stroke="#636466"
fill="#636466" />
<polygon
id="polygon15694"
points="202.622,338.798 195.201,346.245 195.201,358.93 195.216,358.93 202.622,351.336 "
stroke-linejoin="round"
stroke-linecap="round"
stroke="#636466"
fill="#8C8C8C" />
<path
id="path15696"
d="M241.748,301.23v-25.431l-7.234-5.625 h-3.055v-17.962h0.04l-7.599-5.511c-0.007,0.001-0.014,0.003-0.021,0.004v23.537h10.289v23.48l7.573,7.509H241.748z"
stroke-linejoin="round"
stroke-linecap="round"
stroke="#636466"
fill="#8C8C8C" />
<linearGradient
y2="213.3282"
x2="232.9125"
y1="252.2119"
x1="232.9125"
gradientUnits="userSpaceOnUse"
id="SVGID_2_">
<stop
id="stop15699"
style="stop-color:#636466"
offset="0" />
<stop
id="stop15701"
style="stop-color:#656668"
offset="0.0085" />
<stop
id="stop15703"
style="stop-color:#838588"
offset="0.1621" />
<stop
id="stop15705"
style="stop-color:#9B9DA0"
offset="0.3132" />
<stop
id="stop15707"
style="stop-color:#ADAFB2"
offset="0.459" />
<stop
id="stop15709"
style="stop-color:#B8BABC"
offset="0.5974" />
<stop
id="stop15711"
style="stop-color:#BCBEC0"
offset="0.7204" />
<stop
id="stop15713"
style="stop-color:#DCDDDE"
offset="1" />
</linearGradient>
<path
id="path15715"
d="M231.603,252.212 c8.931-3.293,14.004-8.189,14.004-18.522c0-11.227-9.447-20.362-21.06-20.362c-1.511,0-2.951,0.116-4.329,0.323 c0.385-0.027,0.77-0.055,1.162-0.055c9.18,0,16.648,7.469,16.648,16.648c0,8.323-6.14,15.238-14.128,16.456l7.599,5.511H231.603z"
stroke-linejoin="round"
stroke-linecap="round"
stroke="#636466"
fill="url(#SVGID_2_)" />
</g>
<g
id="g15717">
<g
id="g15719">
<polygon
id="polygon15721"
points=" 202.52,297.365 202.52,297.365 202.52,297.365 "
stroke-linejoin="round"
stroke-linecap="round"
stroke-width="0.5"
stroke="#8D3803"
fill="#DD954D" />
<polygon
id="polygon15723"
points=" 207.488,312.86 207.488,312.86 207.488,312.86 "
stroke-linejoin="round"
stroke-linecap="round"
stroke-width="0.5"
stroke="#8D3803"
fill="#DD954D" />
<path
id="path15725"
d="M207.483,312.866 c1.13-1.624,1.802-3.588,1.831-5.705l3.155-1.039c-0.132-1.416-0.281-2.174-0.666-3.313c-0.409-1.209-0.911-2.185-1.532-3.12 l-3.121,1.038c-1.184-1.519-2.784-2.698-4.63-3.362l0,0l-0.018-3.313c-1.085-0.289-2.17-0.451-3.446-0.451 c-1.202,0-1.968,0.102-3.351,0.431l0.023,3.287c-1.901,0.654-3.551,1.851-4.763,3.406l-3.119-1.037 c-0.621,0.935-1.122,1.911-1.532,3.12c-0.385,1.138-0.534,1.897-0.666,3.313l3.151,1.054c0.031,2.11,0.702,4.066,1.827,5.686 l-1.91,2.705c0.715,0.865,1.503,1.628,2.542,2.37c0.978,0.699,1.661,1.061,2.978,1.598l1.887-2.68 c0.93,0.278,1.914,0.43,2.934,0.43c1.02,0,2.006-0.152,2.937-0.43l1.888,2.681c1.317-0.537,2-0.899,2.978-1.598 c1.039-0.742,1.827-1.505,2.542-2.37l-1.912-2.706C207.487,312.862,207.485,312.863,207.483,312.866z M199.056,313.879 c-3.781,0-6.856-3.076-6.856-6.856c0-3.781,3.076-6.856,6.856-6.856s6.856,3.076,6.856,6.856 C205.912,310.803,202.837,313.879,199.056,313.879z"
stroke-linejoin="round"
stroke-linecap="round"
stroke="#8E4A02"
fill="#DD954D" />
<path
id="path15727"
d="M207.483,312.866 c1.13-1.624,1.802-3.588,1.831-5.705l3.155-1.039c-0.132-1.416-0.281-2.174-0.666-3.313c-0.409-1.209-0.911-2.185-1.532-3.12 l-3.121,1.038c-1.184-1.519-2.784-2.698-4.63-3.362l0,0l-0.018-3.313c-1.085-0.289-2.17-0.451-3.446-0.451 c-1.202,0-1.968,0.102-3.351,0.431l0.023,3.287c-1.901,0.654-3.551,1.851-4.763,3.406l-3.119-1.037 c-0.621,0.935-1.122,1.911-1.532,3.12c-0.385,1.138-0.534,1.897-0.666,3.313l3.151,1.054c0.031,2.11,0.702,4.066,1.827,5.686 l-1.91,2.705c0.715,0.865,1.503,1.628,2.542,2.37c0.978,0.699,1.661,1.061,2.978,1.598l1.887-2.68 c0.93,0.278,1.914,0.43,2.934,0.43c1.02,0,2.006-0.152,2.937-0.43l1.888,2.681c1.317-0.537,2-0.899,2.978-1.598 c1.039-0.742,1.827-1.505,2.542-2.37l-1.912-2.706C207.487,312.862,207.485,312.863,207.483,312.866z M199.056,313.879 c-3.781,0-6.856-3.076-6.856-6.856c0-3.781,3.076-6.856,6.856-6.856s6.856,3.076,6.856,6.856 C205.912,310.803,202.837,313.879,199.056,313.879z"
stroke-linejoin="round"
stroke-linecap="round"
stroke-width="0.5"
stroke="#8E4A02"
fill="#D3A809" />
</g>
<g
id="g15729">
<g
id="g15731">
<path
id="path15733"
d="M230.141,338.671 c-0.51-0.054-3.575-0.393-9.806-5.088c-6.763-5.097-10.919-14.977-13.138-20.435c-1.974-4.852-6.798-9.238-6.844-9.261 l1.295-1.295c0.225,0.116,5.832,5.57,8.234,11.471c2.103,5.172,5.556,12.239,11.656,16.837c5.646,4.254,7.589,4.242,7.662,4.259 L230.141,338.671z"
stroke-linejoin="round"
stroke-linecap="round"
stroke="#8E4A02"
fill="#915A26" />
<path
id="path15735"
d="M230.141,338.671 c-0.51-0.054-3.575-0.393-9.806-5.088c-6.763-5.097-10.919-14.977-13.138-20.435c-1.974-4.852-6.798-9.238-6.844-9.261 l1.295-1.295c0.225,0.116,5.832,5.57,8.234,11.471c2.103,5.172,5.556,12.239,11.656,16.837c5.646,4.254,7.589,4.242,7.662,4.259 L230.141,338.671z"
stroke-linejoin="round"
stroke-linecap="round"
stroke-width="0.5"
stroke="#8E4A02"
fill="#915A26" />
</g>
<g
id="g15737">
<path
id="path15739"
d="M200.557,305.161l-0.02,0.021C200.538,305.182,200.568,305.169,200.557,305.161z"
fill="#666666" />
<g
id="g15741">
<path
id="path15743"
d="M192.952,312.12c-0.927-0.081-1.485-0.635-1.82-1.236c-0.304,0.49-0.512,0.921-0.586,1.236 c-0.37,1.573,2.498,2.59,3.238,1.11c0.159-0.319,0.354-0.695,0.572-1.093C193.963,312.165,193.499,312.168,192.952,312.12z"
fill="#BCBEC0" />
<path
id="path15745"
d="M203.405,302.869c-0.278-0.278-0.74,0-0.74,0l-2.108,2.292c0.011,0.009-0.02,0.021-0.02,0.021 l0.02-0.021c-0.03-0.025-0.4-0.019-2.795,0.391c-2.591,0.444-5.414,3.373-6.63,5.333c0.335,0.6,0.893,1.155,1.82,1.236 c0.547,0.048,1.012,0.045,1.404,0.017c0.793-1.453,1.954-3.276,3.406-4.365c1.85-1.388,3.7-1.018,3.7-1.018l2.868-2.313 C204.423,303.887,203.683,303.146,203.405,302.869z"
fill="#666666" />
</g>
<path
id="path15747"
d="M203.405,302.869 c-0.278-0.278-0.74,0-0.74,0l-2.108,2.292c0.011,0.009-0.02,0.021-0.02,0.021l0.02-0.021c-0.03-0.025-0.4-0.019-2.795,0.391 c-2.591,0.444-5.414,3.373-6.63,5.333c-0.304,0.49-0.512,0.921-0.586,1.236c-0.37,1.573,2.498,2.59,3.238,1.11 c0.159-0.319,0.354-0.695,0.572-1.093c0.793-1.453,1.954-3.276,3.406-4.365c1.85-1.388,3.7-1.018,3.7-1.018l2.868-2.313 C204.423,303.887,203.683,303.146,203.405,302.869z"
stroke-linejoin="round"
stroke-linecap="round"
stroke="#636466"
fill="none" />
</g>
</g>
</g>
<g
id="g15749">
<g
id="g15751">
<g
id="g15753">
<g
id="g15755">
<path
id="path15757"
d="M162.534,294.524 c-0.027,0-0.056-0.002-0.083-0.007c-0.063-0.011-1.538-0.26-2.621-0.834c-0.365-0.193-0.949-0.503-1.21-0.568 c-0.377,0.459-1.284,0.376-1.571,0.338c-0.611-0.083-0.957-0.303-1.026-0.656c-0.024-0.057-0.161-0.223-0.32-0.387 c-1.202,0.302-2.45,0.629-2.616,0.694c-0.164,0.063-0.527,0.21-1.617-0.688l-1.134,0.708c-0.116,0.073-0.259,0.095-0.39,0.061 l-1.664-0.43c-0.17,0.095-0.431,0.222-0.723,0.306c-0.51,0.146-0.91-0.05-1.176-0.179c-0.058-0.028-0.114-0.056-0.17-0.078 c-0.107-0.042-0.268-0.055-0.378-0.058c-0.101,0.296-0.501,0.639-2.941,0.574c-0.127-0.003-0.249-0.056-0.34-0.146 c-0.034-0.034-0.074-0.069-0.115-0.103c-0.109,0.197-0.305,0.381-0.687,0.52c-0.715,0.261-1.383-0.315-1.781-0.658 c-0.05-0.042-0.095-0.083-0.135-0.116c-0.095,0.068-0.257,0.208-0.307,0.28c-0.081,0.121-0.271,0.403-1.439,0.403 c-0.276,0-0.5-0.224-0.5-0.5c0-0.275,0.224-0.5,0.5-0.5c0.254,0,0.553-0.027,0.685-0.059c0.204-0.241,0.673-0.663,1.121-0.663 c0.267,0,0.46,0.166,0.728,0.396c0.17,0.146,0.631,0.535,0.787,0.477c0.133-0.049,0.17-0.084,0.17-0.085 c0.017-0.129,0.073-0.401,0.379-0.556c0.415-0.203,0.852,0.061,1.146,0.313c0.775,0.009,1.556-0.038,1.85-0.113 c0.069-0.135,0.179-0.247,0.32-0.326c0.406-0.228,1.005-0.131,1.308-0.01c0.078,0.031,0.158,0.069,0.238,0.108 c0.232,0.113,0.334,0.153,0.462,0.116c0.338-0.097,0.642-0.296,0.646-0.298c0.117-0.077,0.262-0.104,0.4-0.067l1.658,0.428 l1.264-0.789c0.187-0.117,0.431-0.097,0.597,0.05c0.361,0.321,0.792,0.633,0.98,0.714c0.558-0.177,2.489-0.661,2.9-0.765 c0.161-0.039,0.331,0.003,0.455,0.113c0.23,0.207,0.602,0.576,0.758,0.93c0.23,0.076,0.729,0.095,0.922,0.032 c0.097-0.146,0.234-0.25,0.401-0.304c0.473-0.151,1.021,0.121,2.034,0.657c0.94,0.498,2.303,0.729,2.316,0.73 c0.272,0.045,0.456,0.303,0.411,0.575C162.985,294.351,162.773,294.524,162.534,294.524z"
stroke-linejoin="round"
stroke-linecap="round"
stroke-width="0.5"
stroke="#064926"
fill="#9CB227" />
</g>
<g
id="g15759">
<path
id="path15761"
d="M140.195,313.669 c-0.067,0-0.136-0.015-0.201-0.043c-0.252-0.112-0.366-0.404-0.256-0.656c0.21-0.478,0.78-1.249,1.7-1.202 c0.499,0.047,1.149-0.253,1.34-0.418c0.043-0.262,0.211-0.487,0.459-0.608c0.306-0.146,0.83-0.196,1.604,0.411 c0.44,0.346,0.576,0.389,0.614,0.391c0.028-0.01,0.115-0.074,0.252-0.193c0.196-0.172,0.323-0.333,0.425-0.461 c0.164-0.206,0.333-0.418,0.626-0.492c0.256-0.063,0.471,0.056,0.819,0.252c0.75,0.422,1.258,0.621,1.483,0.307 c0.809-1.148,1.508-1.447,2.895-1.229c0.47,0.073,0.525-0.014,0.841-0.501c0.156-0.24,0.35-0.538,0.642-0.851 c0.188-0.201,0.506-0.212,0.706-0.024c0.202,0.188,0.213,0.505,0.024,0.706c-0.231,0.249-0.392,0.495-0.533,0.713 c-0.34,0.524-0.716,1.123-1.836,0.945c-0.934-0.147-1.304-0.06-1.922,0.817c-0.785,1.116-2.19,0.326-2.791-0.012 c-0.044-0.025-0.085-0.049-0.123-0.07c-0.016,0.021-0.033,0.042-0.049,0.063c-0.123,0.154-0.29,0.364-0.549,0.59 c-0.718,0.629-1.179,0.593-2.143-0.163c-0.234-0.185-0.392-0.252-0.479-0.276c-0.041,0.141-0.13,0.276-0.267,0.402 c-0.416,0.386-1.38,0.77-2.114,0.7c-0.01,0-0.02-0.001-0.028-0.001c-0.389,0-0.678,0.604-0.681,0.609 C140.569,313.559,140.386,313.669,140.195,313.669z"
stroke-linejoin="round"
stroke-linecap="round"
stroke-width="0.5"
stroke="#064926"
fill="#9CB227" />
</g>
<g
id="g15763">
<path
id="path15765"
d="M139.713,297.534 c-0.264,0-0.484-0.206-0.498-0.473c-0.008-0.144-0.021-0.878,0.472-1.222c0.194-0.136,0.527-0.252,1.007-0.048l0.142,0.062 c0.759,0.328,0.822,0.344,1.145-0.042c0.43-0.517,0.771-0.926,1.236-0.946c0.246-0.021,0.486,0.093,0.705,0.312 c0.06,0.06,0.121,0.126,0.183,0.194c0.096,0.105,0.273,0.3,0.351,0.327c0.072-0.167,0.151-0.284,0.229-0.4 c0.355-0.523,0.948-1.403,2.117-0.817c0.376,0.188,0.656,0.43,0.882,0.625c0.104,0.09,0.242,0.209,0.317,0.249 c0.008-0.018,0.051-0.057,0.11-0.133c0.356-0.455,1.445-1.838,2.465-1.199c0.05,0.03,0.093,0.06,0.131,0.086 c0.009-0.006,0.018-0.013,0.026-0.019l0.264-0.18c0.713-0.477,1.354-0.054,1.821,0.254c0.255,0.168,0.519,0.341,0.781,0.394 c0.277,0.056,0.398-0.062,0.669-0.379c0.172-0.202,0.367-0.43,0.662-0.514c0.57-0.165,0.941,0.376,1.159,0.701 c0.056,0.082,0.134,0.2,0.186,0.258c0.216,0.055,0.376,0.251,0.376,0.484c0,0.276-0.224,0.5-0.5,0.5 c-0.433,0-0.688-0.38-0.892-0.685c-0.039-0.058-0.092-0.136-0.14-0.201c-0.03,0.034-0.063,0.073-0.091,0.104 c-0.282,0.331-0.76,0.882-1.625,0.711c-0.454-0.091-0.815-0.328-1.135-0.538c-0.488-0.319-0.591-0.344-0.718-0.258l-0.25,0.17 c-0.33,0.227-0.614,0.426-1.08,0.079c-0.043-0.031-0.098-0.072-0.175-0.121c-0.052-0.027-0.416,0.036-1.148,0.969 c-0.253,0.322-0.519,0.492-0.811,0.521c-0.421,0.039-0.75-0.231-1.058-0.497c-0.202-0.175-0.411-0.355-0.676-0.487 c-0.331-0.165-0.416-0.145-0.842,0.484c-0.094,0.138-0.188,0.277-0.291,0.404c-0.22,0.276-0.478,0.421-0.766,0.431 c-0.483-0.003-0.82-0.354-1.091-0.649c-0.043-0.048-0.085-0.094-0.127-0.137c-0.139,0.121-0.368,0.397-0.489,0.544 c-0.811,0.969-1.539,0.652-2.311,0.318l-0.138-0.059c-0.068-0.029-0.099-0.03-0.1-0.03c0.039,0.012,0.008,0.194,0.013,0.33 c0.012,0.274-0.201,0.509-0.476,0.521C139.73,297.533,139.721,297.534,139.713,297.534z"
stroke-linejoin="round"
stroke-linecap="round"
stroke-width="0.5"
stroke="#064926"
fill="#9CB227" />
</g>
</g>
<path
id="path15767"
d="M158.076,292.71 c0,0,3.806-0.793,5.075-0.476c1.269,0.317,1.586-0.952,2.141-0.793c0.555,0.159,3.41,5.154,4.123,9.278 c0.714,4.123,0.952,9.119-3.093,12.925c-4.044,3.806-6.106,3.806-9.674,7.533c-3.568,3.727-7.374,8.247-7.374,8.247 s3.489-5.392,5.313-7.612c1.824-2.22,3.251-3.41,3.251-3.41l-3.013,0.793l3.33-1.982h-2.379l5.154-1.665l-3.41,0.159l4.678-1.824 l-3.093-0.317c0,0,0.952-2.647,2.221-6.295s1.902-2.983,0.396-5.282s-2.021-7.06-2.021-7.06L158.076,292.71z"
stroke-linejoin="round"
stroke-linecap="round"
stroke-width="0.5"
stroke="#064926"
fill="#9CB227" />
<path
id="path15769"
d="M154.932,313.719 c0,0-5.954,3.932-9.099,5.392c-3.145,1.46-7.189,2.471-10.11,6.965s-6.628,8.65-6.628,8.65s3.819-5.729,4.83-7.976 c1.011-2.247,3.595-4.718,6.178-6.066c2.584-1.348,3.932-1.91,3.932-1.91l-4.606,0.786l4.606-1.797c0,0-3.819,0.225-3.482,0 c0.337-0.225,4.381-1.46,4.381-1.46s-3.033,0-2.696-0.112c0.337-0.112,5.167-1.797,5.167-1.797l-2.359-0.786 c0,0,3.482-0.449,4.83-0.562c1.348-0.112,0.337-0.112,2.247-1.573s5.055-5.28,5.055-5.28S157.516,311.023,154.932,313.719z"
stroke-linejoin="round"
stroke-linecap="round"
stroke-width="0.5"
stroke="#064926"
fill="#9CB227" />
<path
id="path15771"
d="M154.825,296.041 c0,0-7.137,0-10.784,1.903c-3.648,1.903-5.392,4.678-5.392,4.678l4.599-2.379l-0.396,1.824l3.093-2.696l-0.079,1.903l2.537-1.982 l0.238,0.952c0,0,2.3-1.031,2.855-1.269S154.825,296.041,154.825,296.041z"
stroke-linejoin="round"
stroke-linecap="round"
stroke-width="0.5"
stroke="#064926"
fill="#9CB227" />
</g>
<g
id="g15773">
<g
id="g15775">
<g
id="g15777">
<g
id="g15779">
<path
id="path15781"
d=" M159.908,299.952c-0.313-1.127-2.158,2.593-5.646,1.795c-3.49-0.797-5.446-4.457-5.446-4.457s2.688-3.881,6.635-4.328 c3.946-0.444,5.125,2.388,5.147,3.621c0,0-0.197,1.393,0.219,2.61c0.415,1.218-0.746,2.965-0.64,3.535 c0.105,0.57,0.603,0.979,0.603,0.979s-1.006,0.445-1.317-0.61C159.153,302.04,159.209,301.714,159.908,299.952z"
stroke-linejoin="round"
stroke-linecap="round"
stroke-width="0.5"
stroke="#8D3803"
fill="#B76E11" />
<path
id="path15783"
d="M159.473,295.124c0,0-2.154-2.363-4.82-1.236c-2.666,1.125-4.425,3.105-4.425,3.105 s1.846,3.221,4.753,2.562C157.889,298.896,159.109,297.224,159.473,295.124z"
fill="#F7941E" />
<path
id="path15785"
d="M153.382,295.8c0,0,0.522-0.895,1.967-1.351c1.447-0.458,2.273,0.465,2.273,0.465 S156.498,297.105,153.382,295.8z"
fill="#FFD15E" />
</g>
</g>
</g>
<g
id="g15787">
<g
id="g15789">
<g
id="g15791">
<path
id="path15793"
d=" M156.085,308.609c-0.601-1.174-1.797,3.351-5.83,3.259c-4.034-0.091-7.023-3.692-7.023-3.692s2.091-4.894,6.35-6.279 c4.257-1.382,6.2,1.479,6.503,2.836c0,0,0.097,1.583,0.832,2.832c0.734,1.251-0.153,3.444,0.092,4.049 c0.245,0.605,0.887,0.945,0.887,0.945s-1.011,0.719-1.592-0.376C155.723,311.085,155.712,310.713,156.085,308.609z"
stroke-linejoin="round"
stroke-linecap="round"
stroke-width="0.5"
stroke="#8D3803"
fill="#B76E11" />
<path
id="path15795"
d="M154.514,303.375c0,0-2.913-2.122-5.602-0.276c-2.69,1.845-4.185,4.43-4.185,4.43 s2.767,3.14,5.828,1.755C153.617,307.899,154.587,305.776,154.514,303.375z"
fill="#F7941E" />
<path
id="path15797"
d="M147.94,305.498c0,0,0.374-1.106,1.867-1.937c1.495-0.832,2.615,0,2.615,0 S151.677,306.236,147.94,305.498z"
fill="#FFD15E" />
</g>
</g>
</g>
<g
id="g15799">
<g
id="g15801">
<g
id="g15803">
<path
id="path15805"
d=" M164.072,306.621c-1.118-0.509,0.805,4.071-2.191,6.337c-2.995,2.267-7.259,1.37-7.259,1.37s-1.306-4.78,0.999-8.254 c2.306-3.472,5.379-2.508,6.384-1.694c0,0,0.237,1.061,1.496,1.548L164.072,306.621z"
stroke-linejoin="round"
stroke-linecap="round"
stroke-width="0.5"
stroke="#8D3803"
fill="#B76E11" />
<path
id="path15807"
d="M160.074,304.3c0,0-3.353,0.137-4.246,3.04c-0.895,2.903-0.49,5.653-0.49,5.653 s3.835,0.69,5.267-2.092C162.037,308.118,161.517,306.009,160.074,304.3z"
fill="#F7941E" />
<path
id="path15809"
d="M156.507,309.652c0,0-0.367-1.023,0.241-2.493c0.609-1.472,1.908-1.513,1.908-1.513 S159.66,308.028,156.507,309.652z"
fill="#FFD15E" />
</g>
</g>
</g>
<g
id="g15811">
<g
id="g15813">
<g
id="g15815">
<path
id="path15817"
d=" M165.422,302.494c-0.559-1.093-1.673,3.12-5.428,3.034c-3.756-0.085-6.538-3.437-6.538-3.437s1.947-4.556,5.912-5.847 c3.964-1.287,5.773,1.377,6.054,2.64c0,0,0.091,1.474,0.775,2.637c0.683,1.165-0.143,3.206,0.086,3.77 c0.228,0.564,0.826,0.88,0.826,0.88s-0.941,0.669-1.483-0.35C165.085,304.8,165.074,304.453,165.422,302.494z"
stroke-linejoin="round"
stroke-linecap="round"
stroke-width="0.5"
stroke="#8D3803"
fill="#B76E11" />
<path
id="path15819"
d="M163.958,297.621c0,0-2.712-1.976-5.216-0.257c-2.505,1.718-3.897,4.124-3.897,4.124 s2.576,2.923,5.426,1.634C163.123,301.833,164.026,299.857,163.958,297.621z"
fill="#F7941E" />
<path
id="path15821"
d="M157.838,299.598c0,0,0.348-1.03,1.738-1.803c1.392-0.775,2.435,0,2.435,0 S161.317,300.285,157.838,299.598z"
fill="#FFD15E" />
</g>
</g>
</g>
</g>
</g>
<g
id="g15823">
<path
id="path15825"
d="M139.633,236.269h17.85 c0,0,0.182-5.595,3.892-5.595c4.865,0,4.561,5.656,4.561,5.656l21.005,0.175c0,0-0.307-5.72,4.613-5.72 c3.752,0,3.937,5.659,3.937,5.659h18.052c-2.43-11.686,6.051-15.194,13.516-15.5c0.408-0.017,0.809-0.006,1.208,0.017 c-1.952-1.476-4.374-2.363-7.005-2.363c-6.423,0-11.647,5.226-11.647,11.648c0,0.054,0.006,0.105,0.009,0.158l0.018,0.307 l0.096,2.592h-13.274l-0.385-2.429c0.012-1.073-0.56-1.925-0.998-2.368c-0.824-0.834-2.061-1.313-3.392-1.313 c-2.523,0-4.685,1.717-5.256,4.176l-0.45,1.934h-17.548l-0.45-1.934c-0.572-2.459-2.733-4.176-5.257-4.176 c-2.523,0-4.685,1.717-5.256,4.176l-0.45,1.934h-13.407l0.119-2.892c0.003-0.055,0.009-0.109,0.009-0.165 c0-6.423-5.225-11.648-11.648-11.648c-2.63,0-5.051,0.887-7.003,2.363c0.388-0.022,0.78-0.033,1.177-0.016 C133.649,221.245,142.035,224.714,139.633,236.269z"
stroke-linejoin="round"
stroke-linecap="round"
stroke="#636466"
fill="#636466" />
</g>
<rect
id="rect15827"
height="1.669"
width="104.611"
stroke-linejoin="round"
stroke-linecap="round"
stroke="#636466"
fill="#636466"
y="284.325"
x="124.318" />
<polygon
id="polygon15829"
points="131.645,276.773 124.318,276.773 124.318,275.144 134.519,275.144 "
stroke-linejoin="round"
stroke-linecap="round"
stroke="#636466"
fill="#636466" />
<polygon
id="polygon15831"
points="221.715,276.773 229.042,276.773 229.042,275.144 218.842,275.144 "
stroke-linejoin="round"
stroke-linecap="round"
stroke="#636466"
fill="#636466" />
<polygon
id="polygon15833"
points="131.645,320.512 118.493,320.512 118.493,318.883 134.519,318.883 "
stroke-linejoin="round"
stroke-linecap="round"
stroke="#636466"
fill="#636466" />
<polygon
id="polygon15835"
points="144.355,336.694 144.355,346.472 145.984,346.472 145.984,333.82 "
stroke-linejoin="round"
stroke-linecap="round"
stroke="#636466"
fill="#8C8C8C" />
<polygon
id="polygon15837"
points="172.668,286.076 172.668,333.766 174.297,333.766 174.297,284.384 "
stroke-linejoin="round"
stroke-linecap="round"
stroke="#636466"
fill="#8C8C8C" />
<polygon
id="polygon15839"
points="180.87,286.076 180.87,333.766 179.241,333.766 179.241,284.384 "
stroke-linejoin="round"
stroke-linecap="round"
stroke="#636466"
fill="#8C8C8C" />
<polygon
id="polygon15841"
points="209.277,336.694 209.277,346.472 207.648,346.472 207.648,333.82 "
stroke-linejoin="round"
stroke-linecap="round"
stroke="#636466"
fill="#8C8C8C" />
<polygon
id="polygon15843"
points="221.715,320.512 235.239,320.512 235.239,318.883 218.842,318.883 "
stroke-linejoin="round"
stroke-linecap="round"
stroke="#636466"
fill="#636466" />
<g
id="g15845">
<path
id="path15847"
d="M223.88,313.913V293.73h10.289v-23.488H223.88v-23.537 c7.998-1.209,14.148-8.13,14.148-16.46c0-9.18-7.469-16.648-16.648-16.648c-8.522,0-15.569,6.438-16.535,14.705h-4.078 c-0.389-1.228-1.071-2.359-2.014-3.313c-1.758-1.777-4.29-2.797-6.947-2.797c-4.168,0-7.823,2.432-9.475,6.109h-10.01 c-1.652-3.678-5.308-6.109-9.476-6.109s-7.823,2.432-9.475,6.109h-4.622c-0.965-8.268-8.013-14.705-16.535-14.705 c-9.179,0-16.647,7.469-16.647,16.648c0,8.33,6.149,15.251,14.147,16.46v23.537h-10.289v23.488h10.289v20.183h-16.258v37.517 h37.517v-12.702h51.651v12.702h37.517v-37.517H223.88z M124.424,275.242h10.289v-33.35h-2.5c-6.422,0-11.647-5.225-11.647-11.647 s5.225-11.648,11.647-11.648c6.423,0,11.648,5.226,11.648,11.648c0,0.056-0.006,0.11-0.009,0.165l-0.119,2.892h13.407l0.45-1.934 c0.572-2.459,2.733-4.176,5.256-4.176c2.523,0,4.685,1.717,5.257,4.176l0.45,1.934h17.548l0.45-1.934 c0.571-2.459,2.732-4.176,5.256-4.176c1.331,0,2.567,0.479,3.392,1.313c0.438,0.442,1.009,1.294,0.998,2.368l0.385,2.429h13.274 l-0.096-2.592l-0.018-0.307c-0.003-0.053-0.009-0.104-0.009-0.158c0-6.423,5.225-11.648,11.647-11.648s11.648,5.226,11.648,11.648 s-5.226,11.647-11.648,11.647h-2.5v33.35h10.289v4.146H124.424V275.242z M174.296,333.728h-28.325v12.702h-27.517v-27.517h16.258 V288.73h-10.289v-4.342h49.873V333.728z M235.138,346.43h-27.517v-12.702h-28.326v-49.339h49.873v4.342H218.88v30.183h16.259 V346.43z"
stroke-linejoin="round"
stroke="#636466"
fill="#FFFFFF" />
</g>
<g
id="g15849">
<polygon
id="polygon15851"
points="200.32,263.875 199.949,262.025 200.876,261.733 200.743,261.073 186.959,260 186.997,260.795 188.863,260.875 189.371,268.301 196.992,267.555 "
fill="#91672F" />
<g
id="g15853">
<path
id="path15855"
d="M177.966,235.656c0,0,2.055,3.582,4.702,5.236c2.651,1.654,6.064,3.096,6.064,3.096 s-4.155,0.108-5.945,1.495c-1.788,1.387-3.399,3.917-3.399,3.917s0.327-4.411,0.098-7.021 C179.261,239.769,177.966,235.656,177.966,235.656z"
fill="#FFFFFF" />
<path
id="path15857"
d="M188.72,244.243c0,0,0.191,6.184,2.01,10.219c1.816,4.036,5.178,8.988,5.178,8.988 s-4.298-1.482-8.96-1.233c-4.662,0.249-6.409,2.145-6.409,2.145s0.192-6.896-0.29-9.434c-0.482-2.54-1.312-4.815-1.312-4.815 s1.609,0.276,4.377-1.263C186.08,247.31,188.72,244.243,188.72,244.243z"
fill="#FFFFFF" />
<polygon
id="polygon15859"
points="179.322,267.182 177.641,235.248 178.118,235.378 180.157,267.584 "
fill="#9B6E33" />
<polygon
id="polygon15861"
points="178.664,249.839 188.759,243.805 189.054,244.104 178.723,250.638 "
fill="#9B6E33" />
<polygon
id="polygon15863"
points="179.438,263.945 196.056,263.192 196.205,263.571 179.578,264.898 "
fill="#9B6E33" />
</g>
<g
id="g15865">
<path
id="path15867"
d="M163.05,234.232c0,0,2.056,3.582,4.705,5.236c2.651,1.654,6.062,3.096,6.062,3.096 s-4.157,0.108-5.944,1.495c-1.789,1.387-3.399,3.917-3.399,3.917s0.326-4.411,0.098-7.021 C164.345,238.344,163.05,234.232,163.05,234.232z"
fill="#FFFFFF" />
<path
id="path15869"
d="M173.804,242.82c0,0,0.192,6.183,2.009,10.219c1.817,4.036,5.178,8.988,5.178,8.988 s-4.296-1.483-8.96-1.233c-4.662,0.249-6.409,2.145-6.409,2.145s0.193-6.895-0.29-9.435c-0.483-2.54-1.312-4.815-1.312-4.815 s1.611,0.276,4.376-1.263C171.165,245.887,173.804,242.82,173.804,242.82z"
fill="#FFFFFF" />
<polygon
id="polygon15871"
points="164.409,265.758 162.727,233.824 163.203,233.954 165.242,266.16 "
fill="#9B6E33" />
<polygon
id="polygon15873"
points="163.749,248.415 173.843,242.381 174.138,242.68 163.809,249.214 "
fill="#9B6E33" />
<polygon
id="polygon15875"
points="164.522,262.521 181.14,261.768 181.289,262.147 164.662,263.474 "
fill="#9B6E33" />
</g>
<g
id="g15877">
<path
id="path15879"
d="M140.981,258.718c0,0,2.696-0.241,6.459-1.439c3.761-1.197,7.745-3.472,7.745-3.472 s-3.861,3.732-3.633,5.549c0.228,1.818,2.178,3.657,2.178,3.657s-3.689-2.96-6.007-3.474 C145.406,259.027,140.981,258.718,140.981,258.718z"
fill="#FFFFFF" />
<path
id="path15881"
d="M153.795,255.963c0,0,2.392-0.312,3.606-1.037c1.212-0.724,2.57-2.663,2.57-2.663 s-3.306,5.315-2.996,7.316c0.31,2,2.267,4.85,2.267,4.85s-3.755-3.01-5.305-3.544c-1.547-0.533-1.721-0.792-1.721-0.792 s-0.42-1.133,0.119-2.069C153.013,256.845,153.795,255.963,153.795,255.963z"
fill="#FFFFFF" />
<path
id="path15883"
d="M158.683,255.604c0,0,1.693-0.66,2.749-1.619c0.695-0.631,2.119-4.371,2.119-4.371 s-2.066,7.582-1.578,9.989c0.489,2.406,2.49,5.64,2.49,5.64s-3.568-3.202-4.963-3.656c-1.392-0.455-1.571-0.748-1.571-0.748 s-0.68-1.399-0.393-2.591C157.824,257.061,158.683,255.604,158.683,255.604z"
fill="#FFFFFF" />
<path
id="path15885"
d="M155.767,253.544c0,0,2.089-0.688,4.305-2.013c2.647-1.583,3.45-2.432,3.45-2.432 s-0.792,1.132-2.962,2.511C158.391,252.99,155.767,253.544,155.767,253.544z"
fill="#9B6E33" />
</g>
<path
id="path15887"
d="M159.346,271.106c0.607,0.268,1.218,0.562,1.839,0.866c2.01,0.981,4.088,1.995,6.206,1.995 c1.978,0,3.52-0.888,5.153-1.829c1.788-1.03,3.636-2.096,6.156-2.096c2.517,0,4.459,1.065,6.337,2.096 c1.715,0.941,3.334,1.829,5.285,1.829c1.861,0,3.034-0.802,4.393-1.73c1.503-1.026,3.205-2.189,5.96-2.194 c2.181-2.986,3.638-8.349,3.638-8.349l-6.189,1.788l-1.494,2.196c0,0-8.032,0.732-20.761,0.521 c-18.266-0.3-35.937-7.814-35.937-7.814l0.119,0.578l13.094,5.262C153.146,264.225,158.038,268.837,159.346,271.106z"
fill="#BA8440" />
<path
id="path15889"
d="M156.6,265.544c0,0,5.006,1.731,13.497,2.769c10.687,1.308,30.861-1.384,30.861-1.384 s-21.114,2.959-30.543,1.872C156.142,267.156,156.6,265.544,156.6,265.544z"
fill="#EEA852" />
<path
id="path15891"
d="M158.819,268.042c0,0,6.294,1.798,14.512,2.611c10.443,1.034,26.054-1.498,26.054-1.498 s-16.422,2.829-25.547,2.004C160.028,269.912,158.819,268.042,158.819,268.042z"
fill="#EEA852" />
<g
id="g15893">
<g
id="g15895">
<path
id="path15897"
d="M190.321,275.78c-2.47,0-4.393-1.055-6.253-2.075c-1.734-0.951-3.371-1.85-5.369-1.85 c-1.978,0-3.52,0.888-5.152,1.829c-1.788,1.031-3.636,2.096-6.157,2.096c-2.586,0-4.876-1.117-7.091-2.198 c-1.82-0.888-3.539-1.727-5.094-1.727c-3.384,0-6.384,2.128-6.414,2.15c-0.423,0.304-1.027,0.228-1.348-0.171 c-0.322-0.398-0.241-0.967,0.181-1.27c0.143-0.103,3.554-2.521,7.581-2.521c2.023,0,3.945,0.938,5.979,1.93 c2.01,0.981,4.088,1.995,6.206,1.995c1.978,0,3.52-0.888,5.153-1.829c1.788-1.03,3.636-2.096,6.156-2.096 c2.517,0,4.459,1.065,6.337,2.096c1.715,0.941,3.334,1.829,5.285,1.829c1.861,0,3.034-0.802,4.393-1.73 c1.506-1.029,3.212-2.195,5.979-2.195c5.128,0,8.029,2.47,8.15,2.576c0.39,0.34,0.415,0.913,0.054,1.281 c-0.359,0.367-0.968,0.392-1.36,0.051c-0.021-0.018-2.505-2.095-6.845-2.095c-2.142,0-3.457,0.899-4.849,1.849 C194.42,274.678,192.807,275.78,190.321,275.78z"
fill="#FFFFFF" />
</g>
</g>
</g>
</g><g
id="g15899">
<g
id="g15901">
<polygon
id="polygon15903"
points="99.157,188.563 81.549,196.85 102.874,196.85 116.503,188.563 "
stroke-linejoin="round"
stroke-linecap="round"
stroke="#2E7537"
fill="#4BB857" />
<polygon
id="polygon15905"
points="116.503,188.563 128.273,181.407 114.365,181.407 99.157,188.563 "
stroke-linejoin="round"
stroke-linecap="round"
stroke="#2E7537"
fill="#4BB857" />
<polygon
id="polygon15907"
points="114.365,181.407 97.654,181.407 78.562,188.563 99.157,188.563 "
stroke-linejoin="round"
stroke-linecap="round"
stroke="#2E7537"
fill="#4BB857" />
<polygon
id="polygon15909"
points="122.679,196.85 141.406,196.85 147.969,188.563 132.743,188.563 "
stroke-linejoin="round"
stroke-linecap="round"
stroke="#2E7537"
fill="#4BB857" />
<polygon
id="polygon15911"
points="147.969,188.563 153.637,181.407 141.434,181.407 132.743,188.563 "
stroke-linejoin="round"
stroke-linecap="round"
stroke="#2E7537"
fill="#4BB857" />
<polygon
id="polygon15913"
points="132.743,188.563 141.434,181.407 128.273,181.407 116.503,188.563 "
stroke-linejoin="round"
stroke-linecap="round"
stroke="#2E7537"
fill="#4BB857" />
<polygon
id="polygon15915"
points="132.743,188.563 116.503,188.563 102.874,196.85 122.679,196.85 "
stroke-linejoin="round"
stroke-linecap="round"
stroke="#2E7537"
fill="#4BB857" />
<polygon
id="polygon15917"
points="141.406,196.85 156.805,196.85 160.429,188.563 147.969,188.563 "
stroke-linejoin="round"
stroke-linecap="round"
stroke="#2E7537"
fill="#4BB857" />
<polygon
id="polygon15919"
points="102.874,196.85 83.981,208.338 108.727,208.338 122.679,196.85 "
stroke-linejoin="round"
stroke-linecap="round"
stroke="#2E7537"
fill="#4BB857" />
<polygon
id="polygon15921"
points="122.679,196.85 108.727,208.338 132.307,208.338 141.406,196.85 "
stroke-linejoin="round"
stroke-linecap="round"
stroke="#2E7537"
fill="#4BB857" />
<polygon
id="polygon15923"
points="132.307,208.338 151.781,208.338 156.805,196.85 141.406,196.85 "
stroke-linejoin="round"
stroke-linecap="round"
stroke="#2E7537"
fill="#4BB857" />
</g>
<g
id="g15925">
<polygon
id="polygon15927"
points="253.833,188.563 271.442,196.85 250.116,196.85 236.488,188.563 "
stroke-linejoin="round"
stroke-linecap="round"
stroke="#2E7537"
fill="#4BB857" />
<polygon
id="polygon15929"
points="236.488,188.563 224.718,181.407 238.626,181.407 253.833,188.563 "
stroke-linejoin="round"
stroke-linecap="round"
stroke="#2E7537"
fill="#4BB857" />
<polygon
id="polygon15931"
points="238.626,181.407 255.336,181.407 274.429,188.563 253.833,188.563 "
stroke-linejoin="round"
stroke-linecap="round"
stroke="#2E7537"
fill="#4BB857" />
<polygon
id="polygon15933"
points="230.312,196.85 211.585,196.85 205.022,188.563 220.248,188.563 "
stroke-linejoin="round"
stroke-linecap="round"
stroke="#2E7537"
fill="#4BB857" />
<polygon
id="polygon15935"
points="205.022,188.563 199.354,181.407 211.557,181.407 220.248,188.563 "
stroke-linejoin="round"
stroke-linecap="round"
stroke="#2E7537"
fill="#4BB857" />
<polygon
id="polygon15937"
points="220.248,188.563 211.557,181.407 224.718,181.407 236.488,188.563 "
stroke-linejoin="round"
stroke-linecap="round"
stroke="#2E7537"
fill="#4BB857" />
<polygon
id="polygon15939"
points="220.248,188.563 236.488,188.563 250.116,196.85 230.312,196.85 "
stroke-linejoin="round"
stroke-linecap="round"
stroke="#2E7537"
fill="#4BB857" />
<polygon
id="polygon15941"
points="211.585,196.85 196.186,196.85 192.562,188.563 205.022,188.563 "
stroke-linejoin="round"
stroke-linecap="round"
stroke="#2E7537"
fill="#4BB857" />
<polygon
id="polygon15943"
points="250.116,196.85 269.01,208.338 244.264,208.338 230.312,196.85 "
stroke-linejoin="round"
stroke-linecap="round"
stroke="#2E7537"
fill="#4BB857" />
<polygon
id="polygon15945"
points="230.312,196.85 244.264,208.338 220.684,208.338 211.585,196.85 "
stroke-linejoin="round"
stroke-linecap="round"
stroke="#2E7537"
fill="#4BB857" />
<polygon
id="polygon15947"
points="220.684,208.338 201.21,208.338 196.186,196.85 211.585,196.85 "
stroke-linejoin="round"
stroke-linecap="round"
stroke="#2E7537"
fill="#4BB857" />
</g>
</g><g
id="g15949">
<path
id="path15951"
d="M168.72,192.741 h12.685c0,0-0.45,3.124-0.45,4.501c0,2.16,0.81,6.301,4.771,7.381c3.961,1.08,12.512,0.09,14.222,5.131 c1.71,5.041,1.98,7.381,1.98,7.381s-9.901,0-14.942,0c-5.041,0-11.522-1.26-14.672-10.801 C169.163,196.792,168.72,192.741,168.72,192.741z"
stroke-linejoin="round"
stroke-linecap="round"
stroke-width="0.75"
stroke="#8E4A02"
fill="#915A26" />
<path
id="path15953"
d="M172.058,193.416c0,0,1.073,12.301,7.509,17.164c6.436,4.863,19.596,5.435,19.596,5.435 s-10.298-0.143-14.589-0.143s-8.725-3.218-11.085-8.868c-2.36-5.65-3.576-13.588-3.576-13.588H172.058z"
fill="#7C3F00" />
<path
id="path15955"
d="M179.088,193.465c0,0-0.885,9.185,3.64,11.645c5.012,2.724,12.101,0.689,14.364,3.837 c2.263,3.148,2.066,6.001,2.066,6.001s-2.263-5.116-4.427-5.411s-11.511-0.885-14.266-3.345c-2.755-2.46-3.739-8.559-3.443-12.727 H179.088z"
fill="#DD954D" />
<path
id="path15957"
d="M184.368,190.013 c0,1.944-1.576,3.52-3.52,3.52h-12.77c-1.944,0-3.52-1.576-3.52-3.52l0,0c0-1.944,1.576-3.52,3.52-3.52h12.77 C182.792,186.493,184.368,188.069,184.368,190.013L184.368,190.013z"
stroke-linejoin="round"
stroke-linecap="round"
stroke-width="0.75"
stroke="#905501"
fill="#DD954D" />
<g
id="g15959">
<g
id="g15961">
<path
id="path15963"
d="M171.64,178.634c3.023-2.822,4.232-5.643,1.411-13.302c-2.822-7.659,1.209-12.496,5.442-22.774 c4.232-10.279-2.419-23.984-3.426-32.449c-0.752-6.317-0.831-17.57-0.822-22.875c-0.116-0.318-0.186-0.504-0.186-0.504 s-5.24,20.356-6.248,49.378c-1.008,29.022,0.403,52.401,0.403,52.401l2.558-0.043C170.19,185.003,169.824,180.329,171.64,178.634 z"
fill="#BACAD3" />
<path
id="path15965"
d="M174.244,87.234c-0.009,5.305,0.07,16.558,0.822,22.875c1.008,8.465,7.659,22.17,3.426,32.449 c-4.232,10.279-8.263,15.116-5.442,22.774c2.822,7.659,1.612,10.48-1.411,13.302c-1.816,1.695-1.45,6.369-0.869,9.833 l9.535-0.159c0,0-0.806-2.419-1.411-8.868s4.635-22.371,5.845-41.72C185.862,119.781,175.726,91.288,174.244,87.234z"
fill="#FFFFFF" />
</g>
<path
id="path15967"
d="M168.444,188.51 c0,0-1.411-23.379-0.403-52.401c1.008-29.022,6.248-49.378,6.248-49.378s11.891,31.642,10.682,50.991s-6.449,35.27-5.845,41.72 s1.411,8.868,1.411,8.868L168.444,188.51z"
stroke-linejoin="round"
stroke-linecap="round"
stroke="#636466"
fill="none" />
</g>
<path
id="path15969"
d="M182.563,190.556c0,0.462-0.375,0.837-0.837,0.837h-14.177c-0.462,0-0.837-0.375-0.837-0.837l0,0 c0-0.462,0.375-0.837,0.837-0.837h14.177C182.188,189.719,182.563,190.094,182.563,190.556L182.563,190.556z"
fill="#FFD830" />
</g><path
id="path15971"
d="M39.844,310.251 l0.772,32.163l-22.128-1.544c0,0,33.192,46.829,64.068,58.665l16.725-27.789c0,0-18.268-10.807-33.706-25.987 S39.844,310.251,39.844,310.251z"
stroke-linejoin="round"
stroke-linecap="round"
stroke-width="1.5"
stroke="#8B0304"
fill="#D71920" /><g
id="g15973">
<g
id="g15975">
<polygon
id="polygon15977"
points=" 63.001,374.062 82.267,400.167 99.024,371.746 83.136,347.258 "
stroke-linejoin="round"
stroke-linecap="round"
stroke-width="1.5"
stroke="#8B0304"
fill="#B11116" />
</g>
</g><path
id="path15979"
d="M313.897,310.251 l-0.772,32.163l22.128-1.544c0,0-33.192,46.829-64.068,58.665l-16.725-27.789c0,0,18.268-10.807,33.706-25.987 S313.897,310.251,313.897,310.251z"
stroke-linejoin="round"
stroke-linecap="round"
stroke-width="1.5"
stroke="#8B0304"
fill="#D71920" /><polygon
id="polygon15981"
points=" 290.74,374.062 271.474,400.167 254.718,371.746 270.605,347.258 "
stroke-linejoin="round"
stroke-linecap="round"
stroke-width="1.5"
stroke="#8B0304"
fill="#B11116" /><path
id="path15983"
d="M178.814,415.23 c9.777,0,29.59-2.316,54.548-9.263c24.958-6.947,57.378-31.905,57.378-31.905l-20.135-26.804c0,0-34.67,34.523-93.335,34.523h-0.799 c-58.665,0-93.335-34.523-93.335-34.523l-20.135,26.804c0,0,32.42,24.958,57.378,31.905c24.958,6.947,44.77,9.263,54.548,9.263 H178.814z"
stroke-linejoin="round"
stroke-linecap="round"
stroke-width="1.5"
stroke="#8B0304"
fill="#D71920" /><g
id="g15985">
<path
id="path15987"
d="M81.679,371.141l2.323,1.109c-0.455,0.998-0.621,1.838-0.498,2.521c0.123,0.682,0.521,1.237,1.194,1.667 c0.713,0.455,1.372,0.607,1.977,0.456s1.071-0.482,1.397-0.994c0.209-0.328,0.312-0.656,0.307-0.983 c-0.005-0.327-0.143-0.697-0.413-1.109c-0.187-0.279-0.649-0.858-1.386-1.737c-0.949-1.129-1.49-2.118-1.623-2.966 c-0.186-1.193,0.072-2.339,0.772-3.438c0.451-0.707,1.031-1.268,1.741-1.681c0.709-0.413,1.464-0.591,2.266-0.532 c0.801,0.058,1.623,0.356,2.466,0.894c1.376,0.878,2.168,1.921,2.376,3.129c0.208,1.207-0.077,2.46-0.855,3.757l-2.292-1.29 c0.36-0.773,0.484-1.416,0.372-1.927c-0.112-0.512-0.48-0.966-1.104-1.363c-0.643-0.411-1.253-0.564-1.831-0.463 c-0.371,0.065-0.671,0.278-0.901,0.638c-0.209,0.328-0.279,0.679-0.208,1.053c0.09,0.475,0.571,1.217,1.442,2.226 s1.456,1.851,1.752,2.523c0.296,0.674,0.4,1.401,0.312,2.184c-0.089,0.783-0.413,1.613-0.973,2.49 c-0.507,0.795-1.157,1.429-1.949,1.9s-1.615,0.673-2.469,0.603c-0.854-0.069-1.757-0.408-2.709-1.016 c-1.386-0.885-2.192-1.969-2.417-3.254S80.833,372.786,81.679,371.141z"
fill="#FFFFFF" />
<path
id="path15989"
d="M98.032,368.313l2.319,1.232l-4.185,7.874c-0.664,1.249-1.066,2.074-1.205,2.476 c-0.217,0.647-0.235,1.251-0.053,1.81c0.182,0.559,0.597,1.011,1.244,1.354c0.658,0.35,1.245,0.443,1.76,0.28 c0.515-0.162,0.939-0.474,1.27-0.934c0.332-0.46,0.803-1.265,1.415-2.415l4.275-8.042l2.319,1.232l-4.059,7.636 c-0.928,1.745-1.646,2.945-2.154,3.599c-0.508,0.654-1.063,1.14-1.663,1.456c-0.601,0.317-1.261,0.473-1.981,0.467 c-0.72-0.006-1.535-0.25-2.444-0.732c-1.097-0.583-1.843-1.186-2.239-1.808c-0.396-0.622-0.623-1.276-0.68-1.964 c-0.057-0.687,0.012-1.339,0.207-1.957c0.291-0.913,0.869-2.184,1.733-3.81L98.032,368.313z"
fill="#FFFFFF" />
<path
id="path15991"
d="M102.694,389.249l6.6-14.936l2.402,1.062l-5.478,12.398l5.973,2.639l-1.121,2.538L102.694,389.249z"
fill="#FFFFFF" />
<path
id="path15993"
d="M124.542,397.872l-2.69-0.96l0.188-3.904l-4.896-1.748l-2.269,3.16l-2.624-0.937l10.308-13.801l2.615,0.934 L124.542,397.872z M122.179,390.112l0.367-6.356l-3.709,5.163L122.179,390.112z"
fill="#FFFFFF" />
<path
id="path15995"
d="M127.54,398.752l1.152-16.715l2.601,0.679l-0.958,11.438l5.156-10.343l3.021,0.788l-0.697,11.703 l4.835-10.623l2.558,0.668l-7.213,15.133l-2.696-0.704l0.601-12.563l-5.606,11.258L127.54,398.752z"
fill="#FFFFFF" />
<path
id="path15997"
d="M143.368,402.588l2.634-16.252l9.52,1.542l-0.445,2.749l-6.928-1.122l-0.583,3.603l6.446,1.045 l-0.444,2.738l-6.446-1.045l-0.717,4.424l7.173,1.162l-0.444,2.738L143.368,402.588z"
fill="#FFFFFF" />
<path
id="path15999"
d="M155.911,399.125l2.572-0.109c0.066,1.095,0.314,1.914,0.742,2.459c0.428,0.546,1.04,0.85,1.836,0.914 c0.843,0.067,1.497-0.107,1.96-0.524c0.463-0.417,0.72-0.929,0.768-1.533c0.031-0.388-0.032-0.725-0.19-1.012 c-0.158-0.287-0.453-0.549-0.885-0.786c-0.296-0.159-0.975-0.454-2.038-0.885c-1.368-0.553-2.309-1.173-2.824-1.86 c-0.724-0.967-1.033-2.1-0.929-3.398c0.067-0.836,0.317-1.603,0.75-2.3c0.433-0.698,1.017-1.209,1.752-1.533 c0.735-0.323,1.601-0.445,2.597-0.366c1.627,0.131,2.815,0.681,3.566,1.649c0.75,0.97,1.085,2.209,1.005,3.72l-2.629-0.064 c-0.044-0.852-0.236-1.478-0.575-1.877c-0.339-0.398-0.877-0.628-1.614-0.687c-0.761-0.062-1.372,0.089-1.834,0.449 c-0.298,0.232-0.463,0.561-0.498,0.985c-0.031,0.389,0.072,0.731,0.309,1.028c0.302,0.377,1.075,0.807,2.317,1.29 c1.243,0.482,2.153,0.952,2.731,1.407c0.578,0.456,1.01,1.05,1.299,1.783c0.288,0.732,0.391,1.618,0.308,2.655 c-0.076,0.94-0.353,1.805-0.831,2.593c-0.479,0.787-1.111,1.351-1.898,1.689s-1.743,0.463-2.869,0.372 c-1.639-0.131-2.859-0.712-3.661-1.741C156.347,402.414,155.935,400.975,155.911,399.125z"
fill="#FFFFFF" />
<path
id="path16001"
d="M168.745,405.337l0.363-16.46l2.625,0.058l-0.363,16.46L168.745,405.337z"
fill="#FFFFFF" />
<path
id="path16003"
d="M189.024,399.524l2.508-0.583c0.268,1.063,0.663,1.823,1.185,2.279c0.521,0.457,1.179,0.643,1.973,0.558 c0.841-0.09,1.451-0.382,1.829-0.878c0.379-0.496,0.536-1.045,0.472-1.648c-0.041-0.387-0.166-0.707-0.374-0.96 c-0.209-0.252-0.547-0.455-1.016-0.608c-0.32-0.102-1.042-0.266-2.167-0.492c-1.446-0.29-2.486-0.726-3.119-1.306 c-0.89-0.815-1.404-1.872-1.542-3.167c-0.089-0.834,0.015-1.634,0.311-2.399c0.297-0.766,0.775-1.376,1.438-1.83 c0.662-0.455,1.49-0.735,2.484-0.841c1.623-0.173,2.894,0.147,3.81,0.961c0.917,0.813,1.476,1.97,1.677,3.469l-2.596,0.424 c-0.201-0.829-0.506-1.409-0.912-1.738c-0.407-0.329-0.979-0.455-1.713-0.377c-0.759,0.081-1.332,0.342-1.72,0.782 c-0.249,0.282-0.352,0.636-0.307,1.061c0.042,0.387,0.206,0.704,0.494,0.952c0.367,0.315,1.206,0.595,2.517,0.839 s2.292,0.537,2.944,0.878c0.651,0.341,1.188,0.845,1.606,1.512s0.684,1.518,0.794,2.553c0.1,0.938-0.013,1.838-0.337,2.701 s-0.842,1.533-1.553,2.012c-0.71,0.479-1.627,0.777-2.75,0.897c-1.636,0.174-2.942-0.171-3.92-1.034 C190.062,402.676,189.39,401.338,189.024,399.524z"
fill="#FFFFFF" />
<path
id="path16005"
d="M202.965,403.316l-2.84-16.217l9.499-1.663l0.48,2.743l-6.912,1.211l0.63,3.595l6.432-1.127l0.479,2.732 l-6.432,1.127l0.772,4.414l7.157-1.254l0.479,2.732L202.965,403.316z"
fill="#FFFFFF" />
<path
id="path16007"
d="M215.628,400.965l-3.896-15.858l2.551-0.626l3.233,13.164l6.342-1.558l0.661,2.693L215.628,400.965z"
fill="#FFFFFF" />
<path
id="path16009"
d="M238.204,394.443l-2.717,0.884l-2.236-3.205l-4.944,1.609l0.137,3.888l-2.649,0.862l-0.277-17.224 l2.641-0.859L238.204,394.443z M231.59,389.745l-3.595-5.255l0.22,6.354L231.59,389.745z"
fill="#FFFFFF" />
<path
id="path16011"
d="M241.59,393.025l-5.116-12.686l-3.58,1.443l-1.041-2.583l9.585-3.866l1.042,2.583l-3.57,1.44l5.116,12.686 L241.59,393.025z"
fill="#FFFFFF" />
<path
id="path16013"
d="M259.117,384.996l-2.563,1.259l-2.668-2.855l-4.667,2.292l0.686,3.829l-2.501,1.229l-2.71-17.011 l2.492-1.225L259.117,384.996z M251.906,381.281l-4.302-4.694l1.116,6.258L251.906,381.281z"
fill="#FFFFFF" />
<path
id="path16015"
d="M261.237,383.77l-8.703-13.976l2.169-1.351l10.331,6.519l-5.813-9.333l2.071-1.289l8.703,13.975 l-2.236,1.394l-10.127-6.342l5.676,9.113L261.237,383.77z"
fill="#FFFFFF" />
</g><g
id="g16017">
<path
id="path16019"
d="M140.283,368.949c0,0,4.642-4.782,5.626-4.923c0.985-0.141,3.774,2.875,5.18,4.703c1.407,1.829,3.4,3.596,2.978,3.736 s-1.407,0.281-1.407,0.281l-6.258-5.456c0,0-2.813,2.251-3.376,2.532c-0.563,0.281-0.563,0.281-0.563,0.281L140.283,368.949z" />
<path
id="path16021"
d="M153.083,365.714c0,0,2.673,0,3.517,0s2.954,1.829,3.095,2.673c0.141,0.844,2.391,4.079,2.391,4.079 s-0.703,0.703-1.125,0.703s-3.376-5.486-3.376-5.486s-1.125,0-2.251,0S153.083,365.714,153.083,365.714z" />
<path
id="path16023"
d="M161.241,366.418c0,0,0.985,0,1.829,0.844s2.532,3.235,2.532,3.235s3.235-2.954,4.079-3.376 c0.844-0.422,3.235,0.985,3.235,0.985l2.813,0.141c0,0,1.61,0.108,2.673,1.829c0.37,0.598,4.22,4.079,3.798,4.501 c-0.422,0.422-1.266,0.422-1.266,0.422l-5.594-5.643l-2.954-0.141l-1.547,0.422l-4.249,4.094c0,0-1.269-0.138-1.41-0.56 C165.039,372.747,161.241,366.418,161.241,366.418z" />
<path
id="path16025"
d="M167.666,364.949c0.137,0.123,0.137,0.322,0,0.445l-1.06,0.948c-0.137,0.123-0.36,0.123-0.498,0l-1.059-0.948 c-0.137-0.123-0.137-0.322,0-0.445l1.06-0.948c0.137-0.123,0.36-0.123,0.498,0L167.666,364.949z" />
<path
id="path16027"
d="M194.746,375.192c0.137,0.123,0.137,0.322,0,0.445l-1.06,0.948c-0.137,0.123-0.36,0.123-0.498,0l-1.059-0.948 c-0.137-0.123-0.137-0.322,0-0.445l1.06-0.948c0.137-0.123,0.36-0.123,0.498,0L194.746,375.192z" />
<path
id="path16029"
d="M198.324,364.809c0.137,0.123,0.137,0.322,0,0.445l-1.06,0.948c-0.137,0.123-0.36,0.123-0.498,0l-1.059-0.948 c-0.137-0.123-0.137-0.322,0-0.445l1.06-0.948c0.137-0.123,0.36-0.123,0.498,0L198.324,364.809z" />
<path
id="path16031"
d="M179.976,369.731c0,0,2.806-3.017,4.42-2.455s4.062,3.774,4.694,3.704s2.125-0.509,2.125-1 c0-0.491-0.855-2.704-1.627-3.616c-0.772-0.912-2.315-2.596-1.894-2.876c0.421-0.281,1.543-0.351,2.035,0.07 c0.491,0.421,4.069,6.525,4.069,7.717s-3.438,2.806-4.56,2.806c-1.122,0-4.35-4.209-4.841-4.49 c-0.491-0.281-2.806,0.842-3.017,0.982c-0.21,0.14-1.052,0.07-1.052,0.07L179.976,369.731z" />
<path
id="path16033"
d="M195.621,370.012c0,0,3.648-3.368,4.701-3.087c1.052,0.281,4.911,4.209,5.893,3.718s1.684-1.193,1.684-1.193 s1.263,1.964,0.912,2.455s-1.464,1.573-2.096,1.573s-2.175-1.052-2.175-1.052l-2.94-2.367c0,0-1.623,1.443-2.885,1.794 C197.452,372.205,195.621,370.012,195.621,370.012z" />
<path
id="path16035"
d="M204.671,366.925c0,0,2.385-1.543,3.578-1.824c1.193-0.281,2.876,1.333,3.648,1.754c0.772,0.421,2.315,2.035,2.315,2.035 s-1.052,1.122-1.614,0.702c-0.561-0.421-3.297-2.806-3.648-2.666c-0.351,0.14-1.333,0.842-1.964,0.982 C206.355,368.047,205.162,368.118,204.671,366.925z" />
</g><g
id="g16037">
<polygon
id="polygon16039"
points="181.448,31.305 174.647,11.892 174.615,11.982 174.615,39.604 181.492,31.305 "
fill="#D3A809" />
<polygon
id="polygon16041"
points="174.615,39.606 148.093,31.336 163.978,43.048 163.97,43.075 174.615,39.628 "
fill="#F2C24B" />
<g
id="g16043">
<polygon
id="polygon16045"
points="174.615,39.606 174.615,11.982 167.883,31.276 174.6,39.601 "
fill="#F2C24B" />
<polygon
id="polygon16047"
points="167.883,31.276 167.873,31.305 147.993,31.262 148.093,31.336 174.6,39.601 "
fill="#D3A809" />
</g>
<g
id="g16049">
<polygon
id="polygon16051"
points="201.313,31.262 181.492,31.305 174.631,39.585 201.284,31.283 "
fill="#F2C24B" />
<polygon
id="polygon16053"
points="174.631,39.585 174.615,39.604 174.615,39.606 185.062,42.863 201.284,31.283 "
fill="#D3A809" />
</g>
<g
id="g16055">
<polygon
id="polygon16057"
points="185.059,42.865 185.062,42.863 174.615,39.606 174.615,39.628 191.123,61.838 "
fill="#F2C24B" />
<polygon
id="polygon16059"
points="174.615,39.628 174.615,50.766 174.647,50.743 191.134,61.872 191.123,61.838 "
fill="#D3A809" />
</g>
<g
id="g16061">
<polygon
id="polygon16063"
points="163.97,43.075 158.172,62.59 158.293,62.503 174.561,39.645 "
fill="#D3A809" />
<polygon
id="polygon16065"
points="158.293,62.503 174.615,50.766 174.615,39.628 174.561,39.645 "
fill="#F2C24B" />
</g>
</g><polygon
id="polygon16067"
points="195.271,11.282 181.171,21.526 183.253,27.933 "
fill="#F2C24B" /><polyline
id="polyline16069"
points="153.76,11.282 159.17,27.933 165.778,27.933 "
fill="#F2C24B" /><polygon
id="polygon16071"
points="208.098,50.761 194.103,40.593 188.652,44.552 "
fill="#F2C24B" /><polygon
id="polygon16073"
points="174.515,75.161 179.861,58.708 174.515,54.824 "
fill="#F2C24B" /><polygon
id="polygon16075"
points="140.932,50.761 158.36,50.761 160.377,44.552 "
fill="#F2C24B" /><g
id="g16077">
<polygon
id="polygon16079"
points="189.86,27.933 195.271,11.282 181.171,21.526 183.253,27.933 "
stroke-linejoin="round"
stroke-linecap="round"
stroke="#8E4A02"
fill="none" />
<polygon
id="polygon16081"
points="169.169,58.708 174.515,75.161 179.861,58.708 174.515,54.824 "
stroke-linejoin="round"
stroke-linecap="round"
stroke="#8E4A02"
fill="none" />
<polygon
id="polygon16083"
points="163.97,43.075 158.172,62.59 158.293,62.503 174.615,50.766 174.647,50.743 191.134,61.872 191.123,61.838 185.059,42.865 185.062,42.863 201.284,31.283 201.313,31.262 181.492,31.305 181.448,31.305 174.647,11.892 174.615,11.982 167.883,31.276 167.873,31.305 147.993,31.262 148.093,31.336 163.978,43.048 "
stroke-linejoin="round"
stroke-linecap="round"
stroke="#8E4A02"
fill="none" />
<polygon
id="polygon16085"
points="165.778,27.933 167.859,21.526 153.76,11.282 159.17,27.933 "
stroke-linejoin="round"
stroke-linecap="round"
stroke="#8E4A02"
fill="none" />
<polygon
id="polygon16087"
points="188.652,44.552 190.67,50.761 208.098,50.761 194.103,40.593 "
stroke-linejoin="round"
stroke-linecap="round"
stroke="#8E4A02"
fill="none" />
<polygon
id="polygon16089"
points="160.377,44.552 154.927,40.593 140.932,50.761 158.36,50.761 "
stroke-linejoin="round"
stroke-linecap="round"
stroke="#8E4A02"
fill="none" />
</g></g>
</svg>