<?xml version="1.0" encoding="UTF-8" standalone="no"?>
<!-- Created with Inkscape (http://www.inkscape.org/) -->

<svg
   xmlns:dc="http://purl.org/dc/elements/1.1/"
   xmlns:cc="http://creativecommons.org/ns#"
   xmlns:rdf="http://www.w3.org/1999/02/22-rdf-syntax-ns#"
   xmlns:svg="http://www.w3.org/2000/svg"
   xmlns="http://www.w3.org/2000/svg"
   xmlns:xlink="http://www.w3.org/1999/xlink"
   xmlns:sodipodi="http://sodipodi.sourceforge.net/DTD/sodipodi-0.dtd"
   xmlns:inkscape="http://www.inkscape.org/namespaces/inkscape"
   width="617.80627"
   height="974.59705"
   id="svg4856"
   version="1.1"
   inkscape:version="0.48.4 r9939"
   sodipodi:docname="AJAX.svg">
  <defs
     id="defs4858">
    <inkscape:perspective
       sodipodi:type="inkscape:persp3d"
       inkscape:vp_x="0 : 526.18109 : 1"
       inkscape:vp_y="0 : 1000 : 0"
       inkscape:vp_z="744.09448 : 526.18109 : 1"
       inkscape:persp3d-origin="372.04724 : 350.78739 : 1"
       id="perspective4864" />
    <inkscape:perspective
       id="perspective4737"
       inkscape:persp3d-origin="0.5 : 0.33333333 : 1"
       inkscape:vp_z="1 : 0.5 : 1"
       inkscape:vp_y="0 : 1000 : 0"
       inkscape:vp_x="0 : 0.5 : 1"
       sodipodi:type="inkscape:persp3d" />
    <inkscape:perspective
       id="perspective2953"
       inkscape:persp3d-origin="0.5 : 0.33333333 : 1"
       inkscape:vp_z="1 : 0.5 : 1"
       inkscape:vp_y="0 : 1000 : 0"
       inkscape:vp_x="0 : 0.5 : 1"
       sodipodi:type="inkscape:persp3d" />
    <pattern
       patternTransform="translate(187.0586,-425.22832)"
       id="pattern4938"
       xlink:href="#pattern4639"
       inkscape:collect="always" />
    <pattern
       patternTransform="translate(187.0586,-425.22832)"
       id="pattern4689"
       xlink:href="#pattern5160-9"
       inkscape:collect="always" />
    <pattern
       inkscape:collect="always"
       xlink:href="#Wavywhite-4"
       id="pattern5160-9"
       patternTransform="translate(25.585714,-43.366746)" />
    <pattern
       inkscape:stockid="Wavy white"
       id="Wavywhite-4"
       height="5.1805778"
       width="30.066020"
       patternUnits="userSpaceOnUse"
       inkscape:collect="always">
      <path
         id="path5721-8"
         d="M 7.597,0.061 C 5.079,-0.187 2.656,0.302 -0.01,1.788 L -0.01,3.061 C 2.773,1.431 5.173,1.052 7.472,1.280 C 9.770,1.508 11.969,2.361 14.253,3.218 C 18.820,4.931 23.804,6.676 30.066,3.061 L 30.062,1.788 C 23.622,5.497 19.246,3.770 14.691,2.061 C 12.413,1.207 10.115,0.311 7.597,0.061 z "
         style="fill:white;stroke:none;" />
    </pattern>
    <pattern
       inkscape:collect="always"
       xlink:href="#Wavywhite-4"
       id="pattern5151-8"
       patternTransform="translate(187.0586,-425.22832)" />
    <pattern
       inkscape:collect="always"
       xlink:href="#Wavywhite-4"
       id="pattern5154-2"
       patternTransform="translate(187.0586,-425.22832)" />
    <pattern
       patternTransform="translate(25.58571,-43.36675)"
       id="pattern4639"
       xlink:href="#pattern5157-1"
       inkscape:collect="always" />
    <pattern
       inkscape:collect="always"
       xlink:href="#Wavywhite-7"
       id="pattern5157-1"
       patternTransform="translate(25.585714,-43.366746)" />
    <pattern
       inkscape:stockid="Wavy white"
       id="Wavywhite-7"
       height="5.1805778"
       width="30.066020"
       patternUnits="userSpaceOnUse"
       inkscape:collect="always">
      <path
         id="path5721-4"
         d="M 7.597,0.061 C 5.079,-0.187 2.656,0.302 -0.01,1.788 L -0.01,3.061 C 2.773,1.431 5.173,1.052 7.472,1.280 C 9.770,1.508 11.969,2.361 14.253,3.218 C 18.820,4.931 23.804,6.676 30.066,3.061 L 30.062,1.788 C 23.622,5.497 19.246,3.770 14.691,2.061 C 12.413,1.207 10.115,0.311 7.597,0.061 z "
         style="fill:white;stroke:none;" />
    </pattern>
  </defs>
  <sodipodi:namedview
     id="base"
     pagecolor="#ffffff"
     bordercolor="#666666"
     borderopacity="1.0"
     inkscape:pageopacity="0.0"
     inkscape:pageshadow="2"
     inkscape:zoom="0.45828125"
     inkscape:cx="95.364526"
     inkscape:cy="352.9475"
     inkscape:document-units="px"
     inkscape:current-layer="g5229"
     showgrid="false"
     inkscape:window-width="1280"
     inkscape:window-height="1001"
     inkscape:window-x="-8"
     inkscape:window-y="-8"
     inkscape:window-maximized="1"
     fit-margin-top="0.2"
     fit-margin-left="0.2"
     fit-margin-right="0.2"
     fit-margin-bottom="0.2" />
  <metadata
     id="metadata4861">
    <rdf:RDF>
      <cc:Work
         rdf:about="">
        <dc:format>image/svg+xml</dc:format>
        <dc:type
           rdf:resource="http://purl.org/dc/dcmitype/StillImage" />
        <dc:title />
      </cc:Work>
    </rdf:RDF>
  </metadata>
  <g
     inkscape:label="Calque 1"
     inkscape:groupmode="layer"
     id="layer1"
     transform="translate(-186.8625,425.42832)">
    <g
       id="g5229">
      <path
         style="fill:#ebc440;fill-opacity:1;fill-rule:evenodd;stroke:#000000;stroke-width:7.69000006;stroke-linecap:butt;stroke-linejoin:miter;stroke-miterlimit:4"
         d="m 496.0136,545.24168 c 64.45,-16.37 119.83,-56.97 173.08,-103.24 56.27,-53.56 131.52,-172.67 131.52,-284.25 -0.24,-86.090005 -55.16,-110.130005 -55.16,-168.300005 0,-86.94 22.08,-103.289995 39.6,-147.069995 -65.8,-10.1 -104.72,-47.08 -142.83,-84.86 -98.9,47.96 -193.65,45.1 -292.93,0 -38.11,37.78 -77.03,74.76 -142.82999,84.86 17.52,43.78 39.6,60.129995 39.6,147.069995 0,58.17 -54.92,82.21 -55.16,168.300005 0,111.58 75.24999,231.1377 131.51999,284.6977 53.25,46.27 110.8685,86.4223 175.3285,102.7923"
         id="path2265"
         sodipodi:nodetypes="cccsccccsccc"
         inkscape:connector-curvature="0" />
      <g
         transform="translate(-6.4863955,-474.58832)"
         id="g5877"
         style="fill-rule:evenodd">
        <path
           id="path5879"
           d="m 266.11,810.3 83.89,0 c -25.51,28.39 -58.81,25.32 -83.89,0 z"
           style="fill:#000000;stroke:#000000;stroke-width:1.62px;stroke-linecap:butt;stroke-linejoin:miter"
           inkscape:connector-curvature="0" />
        <path
           id="path5881"
           d="m 344.98,812.98 -34.65,-153.86 -37.74,153.96 72.39,-0.1 z"
           style="fill:none;stroke:#000000;stroke-width:5.26000023;stroke-linecap:butt;stroke-linejoin:round;stroke-miterlimit:4"
           sodipodi:nodetypes="cccc"
           inkscape:connector-curvature="0" />
      </g>
      <path
         style="fill:#d35227;fill-rule:evenodd;stroke:#000000;stroke-width:1px;stroke-linecap:butt;stroke-linejoin:miter"
         d="m 395.0136,21.151675 -27.63,-66.62 -78.16,-51.59 c 42.9,21.72 78.53,46.85 151.43,54.44 l 0.7,11.16 c 34.09,4.4 68.74,6.51 104.68,3.49 l 5.58,-13.96 c 50.78,1.11 98.57,-5.76 143.76,-19.54 -14.12,14.41 -17,30.6 -64.2,39.78 l -23.03,44.66 -213.13,-1.82 z"
         id="path2267"
         inkscape:connector-curvature="0" />
      <path
         style="fill:none;stroke:#000000;stroke-width:2;stroke-linecap:butt;stroke-linejoin:miter;stroke-miterlimit:4"
         d="m 510.4436,-39.128325 -18.15,-2.1"
         id="path5398"
         inkscape:connector-curvature="0" />
      <path
         style="fill:none;stroke:#000000;stroke-width:2;stroke-linecap:butt;stroke-linejoin:miter;stroke-miterlimit:4"
         d="m 510.0936,-46.458325 -16.75,-1.75"
         id="path5396"
         inkscape:connector-curvature="0" />
      <path
         style="fill:none;stroke:#000000;stroke-width:2;stroke-linecap:butt;stroke-linejoin:miter;stroke-miterlimit:4"
         d="m 509.7436,-53.438325 -16.05,-1.75"
         id="path5394"
         inkscape:connector-curvature="0" />
      <path
         style="fill:none;stroke:#000000;stroke-width:2;stroke-linecap:butt;stroke-linejoin:miter;stroke-miterlimit:4"
         d="m 509.3936,-59.368325 -15,-1.05"
         id="path5392"
         inkscape:connector-curvature="0" />
      <path
         style="fill:none;stroke:#000000;stroke-width:2;stroke-linecap:butt;stroke-linejoin:miter;stroke-miterlimit:4"
         d="m 509.3936,-64.608325 -14.3,-0.35"
         id="path5390"
         inkscape:connector-curvature="0" />
      <path
         style="fill:none;stroke:#000000;stroke-width:2;stroke-linecap:butt;stroke-linejoin:miter;stroke-miterlimit:4"
         d="m 518.8136,-56.228325 11.52,-1.05"
         id="path5388"
         inkscape:connector-curvature="0" />
      <path
         style="fill:none;stroke:#000000;stroke-width:2;stroke-linecap:butt;stroke-linejoin:miter;stroke-miterlimit:4"
         d="m 518.8136,-48.558325 12.91,-1.04"
         id="path5386"
         inkscape:connector-curvature="0" />
      <path
         style="fill:none;stroke:#000000;stroke-width:2;stroke-linecap:butt;stroke-linejoin:miter;stroke-miterlimit:4"
         d="m 518.8136,-41.578325 13.61,-0.7"
         id="path5384"
         inkscape:connector-curvature="0" />
      <path
         style="fill:none;stroke:#000000;stroke-width:2;stroke-linecap:butt;stroke-linejoin:miter;stroke-miterlimit:4"
         d="m 519.5136,-34.598325 13.96,-1.05"
         id="path5382"
         inkscape:connector-curvature="0" />
      <path
         style="fill:none;stroke:#000000;stroke-width:2;stroke-linecap:butt;stroke-linejoin:miter;stroke-miterlimit:4"
         d="m 509.3936,-31.548325 -18.14,-1.4"
         id="path5380"
         inkscape:connector-curvature="0" />
      <path
         style="fill:none;stroke:#000000;stroke-width:2;stroke-linecap:butt;stroke-linejoin:miter;stroke-miterlimit:4"
         d="m 386.0136,-34.858325 2.09,-5.8"
         id="path5378"
         inkscape:connector-curvature="0" />
      <path
         style="fill:none;stroke:#000000;stroke-width:2;stroke-linecap:butt;stroke-linejoin:miter;stroke-miterlimit:4"
         d="m 381.4436,-36.958325 2.34,-5.3"
         id="path5376"
         inkscape:connector-curvature="0" />
      <path
         style="fill:none;stroke:#000000;stroke-width:2;stroke-linecap:butt;stroke-linejoin:miter;stroke-miterlimit:4"
         d="m 380.6436,-37.218325 -3.84,6.11"
         id="path5374"
         inkscape:connector-curvature="0" />
      <path
         style="fill:none;stroke:#000000;stroke-width:2;stroke-linecap:butt;stroke-linejoin:miter;stroke-miterlimit:4"
         d="m 387.6236,-33.898325 -4.89,11.51"
         id="path5372"
         inkscape:connector-curvature="0" />
      <path
         style="fill:none;stroke:#000000;stroke-width:2;stroke-linecap:butt;stroke-linejoin:miter;stroke-miterlimit:4"
         d="m 396.6436,-29.808325 -5.06,13.26"
         id="path5370"
         inkscape:connector-curvature="0" />
      <path
         style="fill:none;stroke:#000000;stroke-width:2;stroke-linecap:butt;stroke-linejoin:miter;stroke-miterlimit:4"
         d="m 407.9436,-27.448325 -4.19,13.09"
         id="path5368"
         inkscape:connector-curvature="0" />
      <path
         style="fill:none;stroke:#000000;stroke-width:2;stroke-linecap:butt;stroke-linejoin:miter;stroke-miterlimit:4"
         d="m 461.4136,-16.978325 -2.26,13.0900002"
         id="path5362"
         inkscape:connector-curvature="0" />
      <path
         style="fill:none;stroke:#000000;stroke-width:2;stroke-linecap:butt;stroke-linejoin:miter;stroke-miterlimit:4"
         d="m 450.7736,-18.018325 -2.96,12.3800002"
         id="path5360"
         inkscape:connector-curvature="0" />
      <path
         style="fill:none;stroke:#000000;stroke-width:2;stroke-linecap:butt;stroke-linejoin:miter;stroke-miterlimit:4"
         d="m 439.6136,-19.588325 -2.79,12.2100002"
         id="path5358"
         inkscape:connector-curvature="0" />
      <path
         style="fill:none;stroke:#000000;stroke-width:2;stroke-linecap:butt;stroke-linejoin:miter;stroke-miterlimit:4"
         d="m 429.4936,-21.508325 -3.32,12.5600002"
         id="path5356"
         inkscape:connector-curvature="0" />
      <path
         style="fill:none;stroke:#000000;stroke-width:7;stroke-linecap:butt;stroke-linejoin:miter;stroke-miterlimit:4;stroke-dasharray:none"
         d="m 648.8936,-39.548325 0.74,13.57"
         id="path5332"
         inkscape:connector-curvature="0" />
      <path
         style="fill:none;stroke:#000000;stroke-width:3;stroke-linecap:butt;stroke-linejoin:miter;stroke-miterlimit:4;stroke-dasharray:none"
         d="m 288.9236,-97.768325 c 47.37,21.24 63.73,44.04 151.98,55.26 l 0.5,11.35"
         id="path5330"
         inkscape:connector-curvature="0" />
      <path
         style="fill:none;stroke:#000000;stroke-width:4;stroke-linecap:butt;stroke-linejoin:miter;stroke-miterlimit:4;stroke-dasharray:none"
         d="m 288.9236,-97.278325 77.47,50.33 c 104.02,32.95 229.62,21.45 318.17,-0.38"
         id="path5328"
         inkscape:connector-curvature="0" />
      <path
         style="fill:none;stroke:#000000;stroke-width:4;stroke-linecap:butt;stroke-linejoin:miter;stroke-miterlimit:4;stroke-dasharray:none"
         d="m 546.0136,-27.698325 5.92,-13.82 c 47.34,0.3 95.43,-6.88 144.09,-19.74 -5.71,7.11 -20.48,26.42 -37.85,32.86 -47.11,17.46 -240.94,27.92000022 -291.29,-18.55 l 27.14,65.63 12.83,-0.99 -39.97,-64.64"
         id="path5326"
         inkscape:connector-curvature="0" />
      <path
         style="fill:none;stroke:#000000;stroke-width:2;stroke-linecap:butt;stroke-linejoin:miter;stroke-miterlimit:4"
         d="m 632.3636,-22.278325 -22.7,42.44"
         id="path5324"
         inkscape:connector-curvature="0" />
      <path
         style="fill:none;stroke:#000000;stroke-width:4;stroke-linecap:butt;stroke-linejoin:miter;stroke-miterlimit:4;stroke-dasharray:none"
         d="m 624.7136,-8.2083248 c -85.68,14.28 -173.57,8.79000002 -240.28,-10.4400002"
         id="path5322"
         inkscape:connector-curvature="0" />
      <path
         style="fill:none;stroke:#000000;stroke-width:7;stroke-linecap:butt;stroke-linejoin:miter;stroke-miterlimit:4;stroke-dasharray:none"
         d="m 663.4536,-42.508325 0.74,11.35"
         id="path5320"
         inkscape:connector-curvature="0" />
      <path
         style="fill:none;stroke:#000000;stroke-width:2;stroke-linecap:butt;stroke-linejoin:miter;stroke-miterlimit:4"
         d="m 418.6736,-23.958325 -3.84,12.74"
         id="path5314"
         inkscape:connector-curvature="0" />
      <path
         style="fill:none;stroke:#000000;stroke-width:2;stroke-linecap:butt;stroke-linejoin:miter;stroke-miterlimit:4"
         d="m 376.5136,-39.668325 1.6,-3.95"
         id="path5312"
         inkscape:connector-curvature="0" />
      <path
         style="fill:none;stroke:#000000;stroke-width:2;stroke-linecap:butt;stroke-linejoin:miter;stroke-miterlimit:4"
         d="m 509.7436,-25.178325 0,-176.549995 -18.84,175.159995"
         id="path5310"
         inkscape:connector-curvature="0" />
      <path
         style="fill:none;stroke:#000000;stroke-width:2;stroke-linecap:butt;stroke-linejoin:miter;stroke-miterlimit:4"
         d="m 520.2136,-27.268325 -10.47,-175.159995 25.12,175.859995"
         id="path5308"
         inkscape:connector-curvature="0" />
      <path
         style="fill:none;stroke:#000000;stroke-width:2;stroke-linecap:butt;stroke-linejoin:miter;stroke-miterlimit:4"
         d="m 527.1936,-27.268325 -17.45,-174.459995 -9.77,175.159995"
         id="path5306"
         inkscape:connector-curvature="0" />
      <path
         style="fill:none;stroke:#000000;stroke-width:2;stroke-linecap:butt;stroke-linejoin:miter;stroke-miterlimit:4"
         d="m 518.1236,-63.908325 11.86,-1.05"
         id="path2269"
         inkscape:connector-curvature="0" />
      <path
         style="fill:none;stroke:#000000;stroke-width:3;stroke-linecap:butt;stroke-linejoin:miter;stroke-miterlimit:4"
         d="m 289.2236,-97.748325 c 92,-58.179995 170.71,-81.609995 215.64,-76.069995 -63.96,14.23 -114.84,61.14 -168.19,101.889995 m 41.18,16.05 c 54.88,-105.439995 143.23,-124.559995 194,-135.389995 -46.76,71.08 -35.18,115.299995 1.4,149.339995 m -20.94,0 c 3.08,-2.06 7.89,-5.54 11.87,-8.22 13.05,-15.01 51.26,-34.84 89.9,-22.76 0,0 26.64,16.33 26.64,16.33 0,0 -26.68,-16.52 -26.68,-16.52 -25.41,-53.209995 -2.51,-92.989995 7.83,-105.609995 -56.04,10.12 -97.98,26.5 -137.47,43.97 -2.23,48.869995 14.06,68.949995 27.91,92.809995 z"
         id="path2271"
         inkscape:connector-curvature="0" />
      <path
         style="fill:#2282ea;fill-rule:evenodd;stroke:#000000;stroke-width:6;stroke-linecap:butt;stroke-linejoin:miter;stroke-miterlimit:4"
         d="m 496.5136,543.77168 0,-508.000005"
         id="path2273"
         inkscape:connector-curvature="0" />
      <g
         style="fill-rule:evenodd"
         id="g2283"
         transform="translate(131.51361,-474.58832)">
        <path
           style="fill:#000000;stroke:#000000;stroke-width:1.62px;stroke-linecap:butt;stroke-linejoin:miter"
           d="m 266.11,810.3 83.89,0 c -25.51,28.39 -58.81,25.32 -83.89,0 z"
           id="path2285"
           inkscape:connector-curvature="0" />
        <path
           sodipodi:nodetypes="cccc"
           style="fill:none;stroke:#000000;stroke-width:5.26000023;stroke-linecap:butt;stroke-linejoin:round;stroke-miterlimit:4"
           d="m 344.98,812.98 -34.65,-153.86 -37.74,153.96 72.39,-0.1 z"
           id="path2287"
           inkscape:connector-curvature="0" />
        <path
           style="fill:#000000;stroke:none"
           d="m 235.23,879.345 c 4.72202,7.67573 3.59457,28.68542 6.18972,28.72383 2.70285,0.04 1.12598,-21.21714 6.11028,-29.58383 l -7.13,-251.36 -5.17,252.22 z"
           id="path2291"
           sodipodi:nodetypes="csccc"
           inkscape:connector-curvature="0" />
        <path
           style="fill:#000000;stroke:#000000;stroke-width:1.40999997px;stroke-linecap:butt;stroke-linejoin:round"
           d="m 235.25,631.36 10.32,0 -5.09,-29 -5.23,29 z"
           id="path2293"
           sodipodi:nodetypes="cccc"
           inkscape:connector-curvature="0" />
      </g>
      <path
         style="fill:none;stroke:#000000;stroke-width:2;stroke-linecap:butt;stroke-linejoin:miter;stroke-miterlimit:4"
         d="m 611.3536,-61.068325 -18.14,-2.09 m 17.79,-5.24 -16.75,-1.74 m 25.48,-0.35 12.91,-1.05 m -12.91,8.03 13.6,-0.7 m -12.91,7.67 13.96,-1.04 m -24.08,2.09 -18.14,-1.39 m 18.49,12.02 0,-142.299995 -19.47,143.289995 m 30.13,-2.8 -10.66,-140.199995 25.13,138.359995 m -7.47,0.93 -17.94,-139.579995 -9.76,142.669995"
         id="path2299"
         inkscape:connector-curvature="0" />
      <path
         sodipodi:nodetypes="cccssscsssc"
         style="fill:#b8bcde;fill-rule:evenodd;stroke:none"
         d="m 531.3336,151.57168 10.64,8.17 c -4.97994,4.67453 -9.84733,47.93175 -9.84733,47.93175 0,0 1.50389,5.38694 0.79906,8.25159 -0.17036,0.6924 6.08751,0.26106 5.96068,1.00806 -0.0494,0.29077 2.01701,4.06207 0.41041,4.48859 -3.05378,0.81071 -11.26389,-0.83667 -11.40282,-0.31999 -0.1737,-0.6095 -8.19096,1.30331 -11.67879,0.005 -1.58189,-0.58903 -0.2505,-4.69446 -0.30643,-4.98967 -0.14977,-0.79044 10.04707,0.0373 9.85766,-0.70348 -6.0941,-23.83446 -6.06793,-46.78603 5.56756,-63.84143 z"
         id="path2303"
         inkscape:connector-curvature="0" />
      <path
         style="fill:#000000;stroke:none"
         d="m 629.7636,413.04168 c -1.84,-2.04 -2.25,-8.69 -0.59,-9.71 2.78,-4.04 3.2,-5.37 8.72,-5.46 5.09,0 6.18,-0.36 8.53,-2.81 1.48,-1.54 2.69,-3.54 2.69,-4.44 4.12,-5.2 4.65,-11.85 7.15,-17.63 0.92,-1.47 0.77,-2.36 -0.75,-4.43 -3.16,-4.3 -6.27,-5.01 -19.69,-4.47 -14.47,0.58 -18.79,2.02 -21.16,7.03 -2.04,4.56 -6.69,7.24 -8.55,11.82 -2.88,4.18 -2.44,9.64 -6,13.43 -2.08,1.99 -3,3.83 -3,5.99 -0.23,4.25 -1.99,7.65 -6.6,9.51 l -34.4,0 0,-5.31 c -0.33,-7.77 5.52,-11.55 12.61,-11.69 5.28,0 6.34,-0.34 8.7,-2.81 3.95,-5.12 4.95,-11.97 7.24,-17.97 1.01,-1.44 1.45,-3.85 1.25,-6.89 -0.28,-4.27 -0.64,-4.86 -4.3,-6.96 -3.84,-4.38 -19.01,0.82 -19.5,-4.65 2.05,-7.19 11.42,-10.05 12,-17.84 -0.22,-5.67 5.17,-17.67 9.37,-17.88 l 13.61,0 c 14.42,0 16.02,-0.47 16.02,-4.68 0,-2.49 -5.3,-10.23 -8.5,-12.42 -13.94,-3.33 -28.74,0.39 -41.84,-6.67 -3.60153,-2.95853 -5.83669,-4.5523 -9.18118,-7.96921 -0.5765,-0.58898 -5.11677,2.17423 -7.28657,-0.39982 -2.1698,-2.57405 0.90024,-4.63724 0.86765,-5.43246 -0.0634,-1.54777 0.41426,-2.09187 -0.90923,-2.57356 -0.73357,-0.26699 -3.45396,1.96471 -5.02084,-0.57847 -1.56688,-2.54318 1.67935,-3.77312 0.77745,-5.18698 -1.08908,-1.70732 -1.93208,1.45013 -3.30693,-1.37701 -1.06602,-2.19208 1.08284,-2.39307 0.69387,-3.44155 -0.56616,-1.52611 -1.00538,-3.09291 -1.29422,-4.70094 0,-1.74 -0.54,-3.71 -1.2,-4.37 -1.68,-1.68 -6.31,-1.5 -7.8,0.3 -1.54,2.69 -5.1,2.36 -9,1.5 l 0,-18.88 c 0,-15.56 0.67768,-18.3667 1.91768,-19.3867 0.63745,-0.53175 -8.91038,-0.55024 -8.49539,-1.49103 0.42039,-0.95303 0.47311,-7.45637 0.63824,-8.52734 0.18075,-1.17222 9.95457,0.99643 9.79547,0.064 -2.16711,-12.70049 -1.43435,-16.94431 -2.40856,-25.78895 0.56,-28.99 7.96289,-42.07392 7.96289,-42.07392 0,0 16.56967,14.05392 16.56967,14.05392 -12.12526,15.34555 -11.99589,35.52695 -11.69363,54.36538 0.0553,0.45871 7.27184,-0.29947 7.33051,0.1131 0.11421,0.80316 0.31491,9.10182 0.31491,9.10182 0,0 -4.50924,-0.58624 -6.12061,0.0509 5.19553,1.72809 4.07978,1.8382 4.18879,8.20883 0.15,11.3 2.11,6.96 2.8,10.5 0.91,4.7 3.42,3.76 6.53,2.69 6.96,0.36 12.79,5.41 18.98,0.19 2.93,-3.07 3.59,-7.95 1.67,-11.7 -7.16,-7.67 -4.8,-18.88 -0.23,-27.28 2.71,-2.76 7.33,-8.78 7.25,-9.94 -0.41,-5.23 -14.54,-6.17 -7.5,-15.27 2.04,-1.7 1.98,-9.35 -0.09,-11.07 -4.33,-2.53 -4.47,2.9 -6.33,5.07 -1.44,0 -4.08,-3.64 -4.08,-5.62 0,-2.33 8.87,-11.38 11.16,-11.38 0.87,0 2.15,-0.68 2.84,-1.5 0.68,-0.83 2.66,-1.5 4.4,-1.5 8.62,-1 10.83,-7.33 15.03,-12 7.74,1.63 19.79,-3.32 26.57,1.5 1.65,1.99 9.34,1.99 11,0 3.14,-1.43 6.97,-5.59 10,-3 1.71,1.55 2,3.08 2,10.82 0,6.99 -0.86744,11.02099 0.41256,12.44099 1.54,1.7 5.61843,2.66967 4.60876,7.56165 0.59165,2.81033 -5.51132,6.33066 -3.52132,7.98066 0.85,4.47 1.97,3.6667 6,6.6967 1.92,1.6 1.92,5.4 0,7 -1.91,1.58 -3.14744,6.23843 -1.23744,7.82843 1.6,1.84 4.13988,0.60269 4.91777,4.22545 0.77789,3.62277 -0.93487,4.95521 -2.47487,6.66521 -1.99435,3.38917 -1.39566,3.36924 -0.91737,6.07313 0.1528,0.86381 3.69805,0.74011 3.89737,4.5719 0.16565,3.18451 -3.86671,3.30044 -4.43546,4.38588 -1.91,1.58 -1.66,2.66 0.25,4.25 3.09,2.57 0.5,9 -3.63,9 -2.61,0 -3.87,2.29 -3.87,6.98 0,2.05932 3.74923,2.37049 1.17885,6.82252 -2.12695,3.68398 -4.28477,0.82929 -7.17885,3.69748 -4.18,2.34 -4.8,7.27 -7.5,10.5 -2.81,2.33 -1.78,6.31 2.78,10.79 8.68,7.28 12.74,14.98 42.27,13.21 27.98,-17.65 10.39,-40.29 -0.89,-60.81 -4.26,-7.78 -8.06,-12.14 -10.06,-31.28 -2.33,-22.33 6.01,-45.59 29.35,-45.91 10.44,-0.15 13.625,-1.655 22.175,7.475 1.05798,0.8529 2.15383,1.93201 3.21809,3.20051 1.00655,1.19972 3.37293,-2.1976 5.50113,1.32627 0.76505,1.26677 -1.43623,4.89651 -0.92333,6.05832 3.14906,7.13323 4.00742,16.3631 -1.89589,25.3199 -4.97,13.02 -27.055,18.47 -32.585,5.84 -4,-9.12 0.26525,-22.69709 3.715,-18.6875 3.44975,4.00959 0.98961,13.59111 8.80885,10.77367 7.81924,-2.81743 8.70908,-6.16804 9.73241,-9.13386 0.59279,-1.71803 -4.7436,-1.73686 -5.88126,-6.33231 -1.13766,-4.59545 3.92926,-2.90811 3.4486,-4.07944 -2.97493,-7.24967 -10.18968,-9.96245 -19.2636,-6.26056 -9.67984,3.93991 -13.18264,11.0997 -10.72337,23.90402 0.24713,1.2867 4.34703,1.12961 6.00844,3.32363 1.66141,2.19402 -4.66959,6.99428 -4.48259,7.81878 1.23982,5.46642 3.10573,10.88345 5.34752,15.71357 5.4,11.63 12.56,22.53 18.94,33.74 4.92,7.78 6.11,15.82 3.79,25.73 -2.71,9.23 -8.09,17.66 -13.88,25.27 -6.41,7.3 1.19,6.45 0.9,9.4 1.29,3.57 -4.57,4.36 -4.8,8.48 0.18,4.58 16.05,14.25 6.98,16.12 -5.53,0 -6.08,0.68 -6.08,7.5 -1.32,4.56 2.4,6.5 3,10.28 0,2.28 -1.85,4.66 -9.07,11.73 -4.99,4.88 -9.71,10.41 -10.5,12.3 -0.93,2.22 -1.43,7.03 -1.43,13.61 0.41056,5.00941 1.56771,17.01538 -2.51487,17.08367 l -39.8351,0.66632 z m -98.08,-215.68 c 0.3574,-15.97703 1.60773,-18.41406 3.7419,-25.74571 l 4.6981,-10.15429 c -2.68,-2.59 -5.04,-5.63 -8.23,-7.59 -8.89513,13.96942 -5.86267,63.52425 -5.86267,63.52425 0,0 -7.76182,-0.48584 -7.76182,-0.48584 0,0 -0.17887,3.41384 -0.17887,3.41384 0,0 19.59376,-0.012 19.59376,-0.012 0,0 -0.19936,-3.22342 -0.19936,-3.22342 0,0 -5.1469,-0.0641 -5.1469,-0.0641 0,0 -1.31141,-12.31332 -0.65415,-19.66272 l 10e-6,0 z"
         id="path2305"
         sodipodi:nodetypes="cccsccscccccccccccscccccsccszsszssscsccccsssccccsccccccccccccssccccccscccccczcsscssssccccccccssscczzszscszsccccccccccscsccccccccccccc"
         inkscape:connector-curvature="0" />
      <path
         style="fill:#e70013;fill-opacity:1;fill-rule:evenodd;stroke:none"
         d="m 610.2436,-187.02832 c -11.26,-1.94 -28.7966,4.84553 -36.4866,7.19553 8.52,-0.3 26.18949,-1.6671 36.05949,-1.2771 l 0.42711,-5.91843 z m -100.41,-15.19 c -13.53,3.63 -47.83163,1.95934 -56.11163,-1.90066 -12.47,4.52 -42.61767,16.14883 -55.08767,19.23883 11.75,-0.84 41.18056,-0.69904 51.57056,-5.64904 10.23,3.25 45.05808,0.0757 58.27808,-4.15426 l 1.35066,-7.53487 z"
         id="path2307"
         sodipodi:nodetypes="cccccccccc"
         inkscape:connector-curvature="0" />
      <path
         id="path3889"
         style="fill:#2368d0;fill-opacity:1;stroke:#000000;stroke-width:3.46928906;stroke-linecap:butt;stroke-linejoin:miter;stroke-miterlimit:4;stroke-opacity:1;stroke-dasharray:none"
         d="m 244.26803,10.431645 -11.79199,26.54104 527.73509,0 c -6.81331,-9.83239 -13.07233,-18.57647 -12.88961,-31.1891598 -1.84129,0.0555 0.10325,6.1060398 -3.85706,6.1060398 -3.96032,0 -7.4256,-8.3165098 -12.87103,-8.3165098 -5.44544,0 -2.97024,8.6780998 -6.93055,9.0396898 -3.96032,0.36159 -6.43551,-8.3165198 -12.37599,-8.6780998 -5.94048,-0.36159 -5.94048,9.0396898 -9.90078,9.0396898 -3.96032,0 -7.92064,-8.6781098 -12.37599,-9.0396898 -4.45536,-0.36159 -3.46528,7.9549198 -7.92063,7.9549198 -4.45536,0 -4.9504,-9.0396898 -10.89087,-8.3165098 -5.94048,0.72317 -6.93056,7.5933398 -11.3859,7.9549198 -4.45535,0.36159 -5.94047,-7.5933298 -9.40575,-7.2317498 -3.46528,0.36159 -8.41567,8.3165198 -11.88094,8.6781098 -3.46528,0.36158 -4.9504,-9.7628698 -10.39583,-9.4012798 -5.44544,0.36159 -17.32638,11.9323898 -22.27678,13.0171498 -4.95039,1.08476 -5.44543,-8.3165098 -8.91071,-9.0396898 -3.46527,-0.72317 0,6.8701698 -5.94047,7.5933398 -5.94047,0.72318 -7.42559,-3.25429 -12.87103,-3.25429 -5.44543,0 -7.92062,-5.7853998 -10.89086,-6.5085698 -2.97024,-0.72318 -10.39583,5.0622198 -15.34622,5.4238098 -4.9504,0.36159 -8.91072,-7.9549298 -11.88095,-7.9549298 -2.97023,0 -10.39582,6.87017 -15.84125,5.06223 -5.44544,-1.80794 -6.93056,-5.42382 -8.91072,-5.42382 -1.98016,0 -9.40574,6.50858 -15.84126,5.78541 -6.43551,-0.72318 -0.99008,-5.78541 -7.42559,-5.78541 -6.43551,0 -2.97023,5.06223 -6.93055,6.87018 -3.96031,1.8079298 -12.87103,-4.33906 -15.84127,-6.147 -2.97022,-1.80794 -3.46526,5.42381 -9.40574,5.42381 -5.94048,0 -5.94048,-6.14699 -8.41567,-6.50857 -2.4752,-0.36158 -3.96032,7.23176 -9.40575,6.14699 -5.44543,-1.08477 -4.95039,-4.70064 -6.93055,-5.06223 -1.98016,-0.36159 2.4752,6.50858 -4.45536,7.2317498 -6.93054,0.72318 -12.37597,-8.3165098 -14.35613,-8.6780898 -1.98016,-0.3616 2.97023,5.4238 1.48512,7.59334 -1.48512,2.1695098 -11.38591,3.2542798 -17.32638,3.2542798 -5.94047,0 -7.92063,-6.1469898 -10.89087,-6.8701598 -2.97024,-0.72318 -4.45536,6.5085698 -8.41567,6.5085698 -3.96031,0 -4.45535,-7.5933398 -10.39583,-7.5933398 -5.94047,0 -6.93055,6.5085798 -11.88094,6.5085798 -4.9504,0 -2.97024,-6.8701698 -8.91071,-6.1469898 -5.94048,0.72318 -9.9008,7.2317498 -13.86111,7.9549298 -3.96031,0.72317 -2.97023,-9.0396898 -8.91071,-9.0396898 -5.94048,0 -5.44544,9.0396898 -9.90078,9.0396898 -4.45536,0 -3.96032,-9.0396898 -10.89088,-8.6781098 -6.93055,0.36159 -9.40574,9.0396898 -14.35613,9.0396898 -4.95039,0 -3.96032,-7.9549198 -9.40575,-7.9549198 -5.44543,0 -3.46527,8.3165098 -11.38591,8.3165098 -7.92062,0 -0.99255,-9.1889498 -10.89333,-8.1041998 -9.90079,1.08477 -5.14465,10.9853198 -15.04543,4.8383398 z"
         sodipodi:nodetypes="ccccssssssssssssssssssssssssssssssssssssssssssssssc"
         inkscape:connector-curvature="0" />
      <path
         style="font-size:medium;font-style:normal;font-variant:normal;font-weight:normal;font-stretch:normal;text-indent:0;text-align:start;text-decoration:none;line-height:normal;letter-spacing:normal;word-spacing:normal;text-transform:none;direction:ltr;block-progression:tb;writing-mode:lr-tb;text-anchor:start;color:#000000;fill:#000000;fill-opacity:1;stroke:none;stroke-width:4;marker:none;visibility:visible;display:inline;overflow:visible;enable-background:accumulate;font-family:Accanthis ADF Std;-inkscape-font-specification:Accanthis ADF Std"
         d="m 371.95231,165.95182 -1.4375,3.75 c 0,0 8.12027,3.1618 16.875,6.34375 4.37736,1.59097 8.91946,3.20256 12.6875,4.40625 1.88402,0.60185 3.59028,1.10621 5,1.46875 1.40972,0.36254 2.42792,0.59375 3.46875,0.59375 2.9837,0 4.99211,-0.19305 6.65625,-0.90625 1.66414,-0.7132 2.74117,-2.11294 3.34375,-3.46875 0.77913,-1.75305 0.36056,-3.74858 -0.65625,-4.96875 -0.71039,-0.85247 -1.32929,-1.30447 -2.71339,-1.6875 0.36214,-0.17317 0.82656,-0.39144 1.15089,-0.40625 2.67021,-0.12192 7.16172,2.64614 11.40625,5.875 2.12226,1.61443 4.19643,3.26415 6.1875,4.59375 1.99107,1.3296 3.83121,2.43409 5.96875,2.53125 6.04951,0.27498 9.18163,-2.5755 10.8125,-4.75 1.5055,-2.00733 1.44657,-4.46346 0.75,-6.46875 -0.34829,-1.00264 -0.88241,-1.92803 -1.75,-2.65625 -0.86759,-0.72822 -2.45838,-1.33107 -3.53125,-0.78125 -1.91138,0.97953 -2.54415,5.91972 -2.54415,5.91972 0,0 2.23096,-2.36225 3.54415,-2.01347 0.9404,1.04552 0.63728,2.35179 0.34375,3.625 -1.38409,1.84546 -2.48701,3.35002 -7.4375,3.125 -0.61246,-0.0278 -2.16117,-0.65756 -3.9375,-1.84375 -1.77633,-1.18619 -3.83334,-2.82055 -6,-4.46875 -4.33331,-3.2964 -8.98158,-6.91664 -14,-6.6875 -2.67864,0.12231 -4.65654,1.3475 -5.875,3.21875 -1.6269,2.49851 -0.34408,6.10958 -0.34408,6.10958 0,0 1.78546,-1.04469 2.94411,-0.70961 1.18513,1.06783 1.26894,1.15969 -0.55091,2.62278 -0.74211,0.31805 -1.00162,0.196 -3.76792,0.196 -0.16138,0 -1.21173,-0.13744 -2.5,-0.46875 -1.28827,-0.33131 -2.91056,-0.81864 -4.75,-1.40625 -3.67889,-1.17521 -8.1816,-2.76285 -12.53125,-4.34375 -8.69931,-3.1618 -16.8125,-6.34375 -16.8125,-6.34375 l 5e-5,0 z"
         id="path3857"
         sodipodi:nodetypes="ccssssssscsssssssacccssssscccsssscc"
         inkscape:connector-curvature="0" />
      <path
         sodipodi:nodetypes="ccssssssscsssssssacccssssscccsssscc"
         id="path3863"
         d="m 372.48639,165.95182 1.4375,3.75 c 0,0 -8.12027,3.1618 -16.875,6.34375 -4.37736,1.59097 -8.91946,3.20256 -12.6875,4.40625 -1.88402,0.60185 -3.59028,1.10621 -5,1.46875 -1.40972,0.36254 -2.42792,0.59375 -3.46875,0.59375 -2.9837,0 -4.99211,-0.19305 -6.65625,-0.90625 -1.66414,-0.7132 -2.74117,-2.11294 -3.34375,-3.46875 -0.77913,-1.75305 -0.36056,-3.74858 0.65625,-4.96875 0.71039,-0.85247 1.32929,-1.30447 2.71339,-1.6875 -0.36214,-0.17317 -0.82656,-0.39144 -1.15089,-0.40625 -2.67021,-0.12192 -7.16172,2.64614 -11.40625,5.875 -2.12226,1.61443 -4.19643,3.26415 -6.1875,4.59375 -1.99107,1.3296 -3.83121,2.43409 -5.96875,2.53125 -6.04951,0.27498 -9.18163,-2.5755 -10.8125,-4.75 -1.5055,-2.00733 -1.44657,-4.46346 -0.75,-6.46875 0.34829,-1.00264 0.88241,-1.92803 1.75,-2.65625 0.86759,-0.72822 2.45838,-1.33107 3.53125,-0.78125 1.91138,0.97953 2.54415,5.91972 2.54415,5.91972 0,0 -2.23096,-2.36225 -3.54415,-2.01347 -0.9404,1.04552 -0.63728,2.35179 -0.34375,3.625 1.38409,1.84546 2.48701,3.35002 7.4375,3.125 0.61246,-0.0278 2.16117,-0.65756 3.9375,-1.84375 1.77633,-1.18619 3.83334,-2.82055 6,-4.46875 4.33331,-3.2964 8.98158,-6.91664 14,-6.6875 2.67864,0.12231 4.65654,1.3475 5.875,3.21875 1.6269,2.49851 0.34408,6.10958 0.34408,6.10958 0,0 -1.78546,-1.04469 -2.94411,-0.70961 -1.18513,1.06783 -1.26894,1.15969 0.55091,2.62278 0.74211,0.31805 1.00162,0.196 3.76792,0.196 0.16138,0 1.21173,-0.13744 2.5,-0.46875 1.28827,-0.33131 2.91056,-0.81864 4.75,-1.40625 3.67889,-1.17521 8.1816,-2.76285 12.53125,-4.34375 8.69931,-3.1618 16.8125,-6.34375 16.8125,-6.34375 l -5e-5,0 z"
         style="font-size:medium;font-style:normal;font-variant:normal;font-weight:normal;font-stretch:normal;text-indent:0;text-align:start;text-decoration:none;line-height:normal;letter-spacing:normal;word-spacing:normal;text-transform:none;direction:ltr;block-progression:tb;writing-mode:lr-tb;text-anchor:start;color:#000000;fill:#000000;fill-opacity:1;stroke:none;stroke-width:4;marker:none;visibility:visible;display:inline;overflow:visible;enable-background:accumulate;font-family:Accanthis ADF Std;-inkscape-font-specification:Accanthis ADF Std"
         inkscape:connector-curvature="0" />
      <path
         style="fill:#ebc440;fill-opacity:1;fill-rule:nonzero;stroke:#000000;stroke-width:5;stroke-linecap:butt;stroke-linejoin:miter;stroke-miterlimit:4;stroke-dasharray:none"
         d="m 262.9036,94.871675 c -17.06999,12.960005 -36.63999,30.050005 -43.17999,52.160005 9.39,-7.95 20.94,-12.84 29.35,-16.62 -8.79,13.16 -8.95,29.66 -9.5,45 18.09,-21.46 39.67999,-42.98 68.11999,-49.1 6,-1.29 15.79,-1.08 17.47,-7.65 1.53,-5.97 -8.04,-8.45 -12.94,-8.79 -5.51,-0.38 -15.85,0.15 -15.85,0.15 m 86.25031,-72.040005 c -0.08,12.42 15.21,18.8 25.77,19.25 49.53555,-9.72884 105.55745,-7.93307 155.72031,-3.15223 4.76641,0.56694 9.58492,0.4649 14.3675,0.76223 3.8,0.24 11.46,1.4 15.22,2.07 3.75,0.66 18.94,-11.26 23.41,-18.2 4.47,-6.94 1,-15.35 -6.29,-18.55 -17.27,-8.73 -44.34812,-7.81 -63.15812,-9.97 -19.54,-1.2299998 -39.13,-1.6399998 -58.72,-1.4399998 -25.23,0.67 -57.32969,4.1399998 -82.42969,6.6499998 -11.76,0.98 -23.81,10.16 -23.89,22.58 z m -0.35,1.06 c -37.21108,4.78822 -81.68514,16.03279 -116.64031,42.46 -3.08,3.24 -3.53,8.47 -1.31,12.31 2.21,3.84 22.79,21.570005 30.99,16.570005 17.92,-11.910005 80.16031,-32.500005 101.49031,-35.870005 7.73211,-2.97794 33.57623,0.73338 32.16,-10.42 -5.98,-4.57 -13.77,-5.21 -20.57,-7.04 M 706.3236,111.97168 c -7.12,-0.81 -15.97,0.15 -19.77,6.81 -1.25,6.35 6.78,9.42 11.42,11.19 24.33,7.98 47.78,20.41 64.85,39.81 0.69,-14.12 -2.11,-28.47 -9.19,-40.75 9.33,2.47 18.07,6.66 26.25,11.78 -9.12,-18.58 -17.06,-30.61 -30.42,-41.610005 -2.75,-2.27 -10.33,-4.91 -7.54,-8.91 m -148.05188,-33.56 c -7.17,1.56 -19.76,1.18 -23.61,8.26 -3.74,5.53 2.75,11.41 7.78,12.23 24.53,6.11 47.66188,3.06 72.06188,10.03 19.92,5.08 39.29,12.850005 56.22,24.720005 16.93,11.86 31.53,-15.880005 35.25,-21.500005 3.71,-5.63 0.69,-13.12 -5.42,-15.42 -37.41,-23.77 -75.51188,-31.87 -118.86188,-35.46"
         id="path2281"
         sodipodi:nodetypes="cccccccccccccscccccccccccccccccccccccccccc"
         inkscape:connector-curvature="0" />
      <g
         transform="translate(187.05861,-425.22832)"
         id="g4104">
        <path
           id="path2913"
           style="fill:#000000;fill-rule:evenodd;stroke:none"
           d="m 431.6514,485.29791 c 1.26804,-2.43251 1.91117,-2.68064 2.97368,-1.23831 1.06253,1.44231 0.33946,1.77188 -0.3052,1.85864 -0.64467,0.0868 -1.77188,0.33945 -2.66848,-0.62033 z m -4.04687,7.21919 c 3.74165,3.19212 10.98139,0.86466 12.10174,-0.11412 1.12037,-0.97878 2.69894,-4.70521 3.15408,-7.77555 0.45517,-3.07034 -4.29266,-10.28725 -9.12119,-8.95074 -4.82852,1.33652 -5.73122,8.28398 -7.49243,9.75293 -1.76124,1.46895 -1.50758,5.96576 -9.44548,7.99626 -4.2202,1.07952 -12.42217,0.35923 -10.96084,1.31366 1.46134,0.95445 7.94272,3.16242 9.95541,3.2949 4.28877,0.28229 10.41739,0.95065 11.80871,-5.5173 l 0,-4e-5 z m 51.47427,-0.32414 c 4.17244,-2.45992 5.10862,-5.85754 3.64424,-7.13469 -1.46439,-1.27716 -16.96831,-2.58327 -20.97788,0.0365 -4.00955,2.61975 -3.83907,3.58637 -1.90127,3.72946 1.93779,0.14309 4.29497,1.97662 5.41078,0.51376 1.11579,-1.46287 4.091,-2.53983 6.99693,-2.40587 2.90595,0.13396 10.34508,1.83887 6.8272,5.26084 z m 19.32322,-4.3779 4.24475,-3.34814 3.83679,4.72425 -4.64587,3.59397 -3.43567,-4.97008 z m 19.67789,7.5602 4.08263,-3.4273 3.75684,4.80569 -4.00041,3.5879 -3.83906,-4.96629 z m -26.90397,13.3248 c 5.11929,-4.72804 7.54724,-3.94409 8.523,-3.14644 0.97575,0.79765 0.51754,3.54529 0.51754,3.54529 0,0 -5.1558,0.85547 -9.04054,-0.39885 z m 29.61464,0.32582 3.53767,-5.60068 c 4.1775,5.93743 7.2727,12.49713 1.17249,17.37667 -1.76884,0.66217 -24.4932,-1.62072 -30.81351,-4.4658 -6.32029,-2.84505 -11.54867,-4.33278 -13.03132,-7.54621 -7.23669,2.6502 -33.11462,-3.56057 -36.56399,-9.98286 -3.44936,-6.4223 0.80682,-17.11293 0.59067,-22.92026 l 4.80113,-4.24091 c 0,0 0.16171,4.15366 0.0475,9.15723 -0.11423,5.00359 -0.96701,13.12062 -0.96701,13.12062 0,0 8.39401,5.14897 15.16854,6.72528 10.99736,2.55889 19.67078,0.0464 19.67078,0.0464 0,0 0.2679,2.74079 0.2679,2.74079 0,0 1.30302,1.27868 1.76427,-1.14623 0.46124,-2.42492 2.32143,-10.51101 1.64555,-13.73205 -0.67585,-3.22105 3.82691,-4.87722 3.82691,-4.87722 0,0 1.83732,6.59888 0.58757,10.96767 -1.24977,4.36881 -2.82986,7.93387 -2.82986,7.93387 0,0 5.30346,-2.30921 7.87756,-3.14036 2.5741,-0.83113 7.56702,-1.84644 7.56702,-1.84644 0,0 5.02946,2.85723 5.0599,6.08436 0.0305,3.22713 -5.08733,8.11653 -5.08733,8.11653 0,0 6.30661,1.39286 8.72847,1.53138 2.42188,0.13853 7.26866,0.73831 8.22918,-0.0776 0.96054,-0.81592 0.18649,-1.61548 -1.25012,-4.2242 z"
           sodipodi:nodetypes="cssccssssssscccssssccccccccccccccccccscsccscsccsscscscscsscc"
           inkscape:connector-curvature="0" />
        <path
           id="path3702"
           style="fill:#000000;stroke:none"
           d="m 226.98351,445.02747 4.314,3.86816 -4.20331,4.7967 -4.7934,-3.8537 4.68271,-4.81116 z m 11.20845,-0.92787 -4.70937,4.09312 4.41841,3.92717 4.78626,-4.10088 -4.4953,-3.91941 z m 49.66907,20.37165 -4.27938,4.8258 4.57236,4.30371 4.67116,-5.60013 -4.96414,-3.52938 z m 10.94327,-0.87942 c -0.27705,0.28232 -4.38987,4.49767 -4.38987,4.49767 l 4.96597,4.46736 4.31923,-5.31566 -4.89533,-3.64937 z m -28.98469,-15.4791 c 16.60937,-3.51314 24.84414,-5.26904 25.40481,-5.13448 0.56069,0.13457 3.95247,3.87861 2.13982,4.45511 -1.81265,0.57652 -25.55652,3.87724 -26.53672,3.74663 -0.98021,-0.13061 -4.62265,-0.79551 -1.00791,-3.06726 z m 38.29653,-2.45902 3.16885,-5.06459 c 0,0 8.03421,6.63716 7.38909,12.37722 -0.64513,5.74006 -6.48941,8.87195 -8.30601,9.02893 -1.81661,0.15699 -32.68312,4.50387 -39.67383,4.70966 -6.9907,0.20579 -22.94176,-0.62274 -24.56442,-9.55802 -4.03559,2.13586 -7.61121,15.9062 -13.81917,17.61196 -7.97436,2.19111 -14.01171,-5.06082 -7.41153,-14.75451 1.33507,8.09889 7.48281,9.47279 9.81777,4.46462 4.20304,-9.01495 5.04893,-12.57354 14.53025,-16.35999 0.62531,6.98675 1.91298,8.57091 5.69791,9.51419 3.78493,0.94327 19.73334,1.49211 31.3256,-0.15561 11.59226,-1.64773 23.88899,-2.74269 25.13305,-4.2928 1.24405,-1.55012 0.26121,-1.9604 -3.28756,-7.52106 z m 44.31757,-1.67668 c 0,0 3.18995,-2.82714 5.00788,-2.84429 1.81793,-0.0172 10.79674,2.97493 10.81257,4.65302 0.0158,1.67808 -7.35615,5.9432 -10.42473,6.81126 -3.06858,0.86807 -9.49729,1.34827 -12.31652,-1.00265 -2.81923,-2.35091 -1.43006,-3.34299 0.94986,-3.08573 2.37994,0.25726 7.28491,1.32982 9.6556,0.6082 2.37069,-0.72163 0.79551,-4.62265 -3.68466,-5.13981 z m 17.58163,10.60285 c 7.49995,-5.525 11.1358,-5.5593 12.39964,-5.01181 1.26385,0.54749 7.18067,5.10684 12.92469,6.17148 5.74401,1.06464 13.5975,3.36807 13.5975,3.36807 0,0 -7.91024,6.50785 -7.91024,6.50785 0,0 -8.27301,-2.29947 -11.76375,-1.70713 -3.49074,0.59233 -14.79671,2.93662 -25.71219,2.20045 -10.91548,-0.73615 -27.01032,-1.98288 -29.41926,-5.31663 -1.90633,5.47226 -4.96568,7.31919 -7.8931,8.32578 -2.92742,1.00658 -14.96161,0.28097 -15.80065,0.28889 -0.83905,0.008 15.46689,-6.01972 16.83628,-9.10939 1.36938,-3.08969 -2.31527,-8.2295 -2.31527,-8.2295 l 3.73217,-4.65035 c 0,0 2.9683,3.32848 5.64639,5.54086 2.67807,2.21239 9.84686,6.06066 26.77153,6.32058 16.92465,0.25993 24.7333,-2.19123 26.55519,-1.78885 -4.77833,-2.47228 -4.777,-2.33245 -7.71761,-2.72426 -2.94061,-0.39183 -6.16486,-1.20053 -9.93132,-0.18604 z"
           sodipodi:nodetypes="cccccccccccccccccccccssscccssscscscsssccssssssccssccsscsssccsscsc"
           inkscape:connector-curvature="0" />
        <path
           id="path3718"
           style="fill:#000000;stroke:none"
           d="m 128.31403,491.23811 c -3.04642,4.42558 -1.22864,9.78972 0.36478,10.91001 3.59074,2.52454 8.20064,0.95192 6.97319,-2.46492 -1.22743,-3.41685 -1.07094,-3.94774 -2.91732,-4.80625 -1.84636,-0.8585 1.22065,3.18383 -0.81511,3.82609 -1.43949,0.45414 -2.81848,-0.59025 -2.97391,-1.37219 -0.37083,-1.86561 -0.43314,-6.01649 -0.63161,-6.09274 l -2e-5,0 z m -25.45494,2.35083 6.63458,0.50383 -0.0788,8.19028 -7.97193,-0.0365 c 0,0 -0.4752,-5.71725 1.4162,-8.65759 z m 10.40563,-6.30789 c 0,0 -2.70445,6.63725 -1.8575,6.71649 0.84695,0.0792 6.3382,2.34789 7.42397,1.84909 1.08576,-0.4988 2.04883,-6.5971 2.04883,-6.5971 l -7.6153,-1.96848 z m 22.36737,-5.40292 -3.65347,5.73115 c 0,0 8.64467,11.01499 8.55538,11.72247 -0.0893,0.70745 -4.20136,5.91079 -7.17967,7.38708 -2.97831,1.47629 -7.23208,2.76399 -8.36804,2.56535 -1.13597,-0.19864 -6.87937,-7.91728 -7.04003,-10.14905 -0.16067,-2.23177 -6.48335,5.37405 -7.13842,9.90789 -0.65506,4.53384 -1.40317,8.18443 -2.30661,8.85899 -5.2042,3.88571 -9.11678,-0.0447 -9.38792,-3.81084 -0.27111,-3.76612 -3.101159,13.40287 6.65281,12.56047 9.75395,-0.84241 9.23634,-17.77038 10.81086,-17.32291 1.57451,0.44749 3.69016,6.46437 6.13172,7.27006 2.44155,0.80568 12.39415,-1.17269 15.47177,-3.21696 3.07763,-2.04427 8.35472,-8.59335 8.20409,-10.68564 -0.15064,-2.09228 -7.70167,-17.39227 -10.75247,-20.81806 z m 14.34476,-5.23895 c 0,0 -2.90693,4.41554 -2.34898,4.37537 0.55795,-0.0399 4.41662,4.86976 5.89292,7.84808 1.47628,2.97831 5.23784,12.38191 5.18763,11.68447 -0.0506,-0.69739 2.87571,-6.79683 2.87571,-6.79683 0,0 -6.21536,-14.27446 -11.60728,-17.11109 z m 33.32276,7.62597 c 2.60167,2.05604 8.84813,0.69498 8.84813,0.69498 l 6.73274,-4.83116 2.32544,6.98321 c 0,0 -6.54861,4.46741 -9.63017,8.40478 -3.08155,3.93737 -12.98449,5.63175 -15.82943,5.06542 -2.84495,-0.56635 -3.17021,-3.13679 -3.54293,-1.49755 -0.37271,1.63922 -10.63112,9.10775 -14.70579,9.96191 -4.07466,0.85418 -6.18868,-2.21842 -6.89167,-3.21938 -0.703,-1.00096 -2.17929,-3.97927 -0.25826,-7.48257 0.19686,4.68281 5.0287,3.63396 7.47472,3.52794 2.44602,-0.10602 11.6834,-7.15049 11.78773,-7.64873 0.10435,-0.49824 -9.82024,-10.79015 -9.82024,-10.79015 l 4.22866,-5.56017 c 6.38001,5.85008 9.11113,11.68038 10.06352,13.22421 0.95239,1.54383 1.81888,0.92062 3.60263,1.35304 1.78373,0.43243 6.10615,-2.82313 6.10615,-2.82313 0,0 -3.01047,-1.16222 -4.76907,-2.38028 -3.9623,-3.6008 -1.27771,-9.06033 1.95561,-12.20215 2.81694,-2.18565 5.91593,-1.47953 10.85558,1.28204 -5.26156,1.47098 -10.52165,3.47203 -8.53335,7.93774 z"
           sodipodi:nodetypes="csssssccccccccssccccssssssssssssccsssccccccssssscssccssccccc"
           inkscape:connector-curvature="0" />
      </g>
      <path
         style="fill:#000000;stroke:#000000;stroke-width:1px;stroke-linecap:butt;stroke-linejoin:miter;stroke-opacity:1"
         d="m 566.1256,68.483115 -1,-15.875 17.75,1.875 -16.75,14 z"
         id="path5296"
         inkscape:connector-curvature="0" />
      <path
         style="fill:#000000;stroke:#000000;stroke-width:0.784904px;stroke-linecap:butt;stroke-linejoin:miter;stroke-opacity:1"
         d="m 420.78697,53.152355 11.15742,-0.30283 0.0954,12.81973 -10.87133,-7.67165 -0.38146,-4.84525 z"
         id="path5298"
         sodipodi:nodetypes="ccccc"
         inkscape:connector-curvature="0" />
      <path
         style="fill:#000000;stroke:#000000;stroke-width:1px;stroke-linecap:butt;stroke-linejoin:miter;stroke-opacity:1"
         d="m 327.8086,114.83668 -4.5,-17.500005 -20.75,8.500005 c 0,0 1,6 3.5,5.75 2.5,-0.25 21.75,3 21.75,3.25 z"
         id="path5300"
         inkscape:connector-curvature="0" />
      <path
         style="fill:#000000;stroke:#000000;stroke-width:1px;stroke-linecap:butt;stroke-linejoin:miter;stroke-opacity:1"
         d="m 683.5586,117.83668 c 0.25,-1 5,-17 5,-17 l 17.5,10.25 -22.5,6.75 z"
         id="path5302"
         inkscape:connector-curvature="0" />
      <path
         sodipodi:type="arc"
         style="fill:#ffffff;fill-opacity:1;fill-rule:nonzero;stroke:none"
         id="path5897"
         sodipodi:cx="310.47083"
         sodipodi:cy="98.936707"
         sodipodi:rx="95.05056"
         sodipodi:ry="95.05056"
         d="m 405.52139,98.936707 a 95.05056,95.05056 0 1 1 -190.10112,0 95.05056,95.05056 0 1 1 190.10112,0 z"
         transform="matrix(0.96294637,0,0,0.96294637,198.63685,-424.49351)" />
      <g
         transform="translate(187.05861,-425.22832)"
         id="g5899">
        <path
           id="path2275"
           d="m 313.455,19.01 c -41.59,1.05 -75,35.16 -75,77 0,42.5 34.49,77 77,77 28.85,0 53.99,-15.9 67.18,-39.41 -10.91,13.07 -27.34,21.41 -45.68,21.41 -32.85,0 -59.5,-26.66 -59.5,-59.5 0,-32.84 26.65,-59.5 59.5,-59.5 17.36,0 32.99,7.46 43.87,19.34 -13.6,-21.82 -37.79,-36.34 -65.37,-36.34 -0.67,0 -1.34,-0.02 -2,0 z"
           style="fill:#e70013;fill-opacity:1;fill-rule:evenodd;stroke:none"
           inkscape:connector-curvature="0" />
        <path
           id="path2277"
           d="m 408.455,97 c 0,51.91 -42.09,94 -94,94 -51.92,0 -94,-42.09 -94,-94 0,-51.92 42.08,-94 94,-94 51.91,0 94,42.08 94,94 l 0,0 z"
           style="fill:none;stroke:#e70013;stroke-width:6;stroke-linecap:square;stroke-linejoin:bevel;stroke-miterlimit:4;stroke-opacity:1"
           inkscape:connector-curvature="0" />
        <path
           id="path2279"
           d="m 365.175,121.94 -28.86,-7.47 -17.94,23.81 -1.82,-29.76 -28.19,-9.7 27.74,-10.93 0.53,-29.81 18.96,23.01 28.51,-8.71 -16.03,25.14 17.1,24.42 z"
           style="fill:#e70013;fill-opacity:1;fill-rule:evenodd;stroke:none"
           inkscape:connector-curvature="0" />
      </g>
      <path
         id="path5817"
         d="m 391.5686,-31.308325 -5.06,13.26"
         style="fill:none;stroke:#000000;stroke-width:2;stroke-linecap:butt;stroke-linejoin:miter;stroke-miterlimit:4"
         inkscape:connector-curvature="0" />
      <path
         id="path5819"
         d="m 402.0686,-28.198325 -4.19,13.09"
         style="fill:none;stroke:#000000;stroke-width:2;stroke-linecap:butt;stroke-linejoin:miter;stroke-miterlimit:4"
         inkscape:connector-curvature="0" />
      <path
         id="path5821"
         d="m 384.63688,-36.527105 -5.91656,11.01756"
         style="fill:none;stroke:#000000;stroke-width:2;stroke-linecap:butt;stroke-linejoin:miter;stroke-miterlimit:4"
         inkscape:connector-curvature="0" />
      <path
         id="path5823"
         d="m 413.0486,-24.833325 -3.84,12.74"
         style="fill:none;stroke:#000000;stroke-width:2;stroke-linecap:butt;stroke-linejoin:miter;stroke-miterlimit:4"
         inkscape:connector-curvature="0" />
      <path
         id="path5825"
         d="m 423.9936,-23.258325 -3.32,12.56"
         style="fill:none;stroke:#000000;stroke-width:2;stroke-linecap:butt;stroke-linejoin:miter;stroke-miterlimit:4"
         inkscape:connector-curvature="0" />
      <path
         id="path5827"
         d="m 622.0836,-19.068325 0.49,12.0900002"
         style="fill:none;stroke:#000000;stroke-width:5;stroke-linecap:butt;stroke-linejoin:miter;stroke-miterlimit:4;stroke-dasharray:none"
         inkscape:connector-curvature="0" />
      <path
         style="fill:none;stroke:#000000;stroke-width:5;stroke-linecap:butt;stroke-linejoin:miter;stroke-miterlimit:4;stroke-dasharray:none"
         d="m 614.0836,-19.068325 0.49,12.0900002"
         id="path5831"
         inkscape:connector-curvature="0" />
      <path
         id="path5833"
         d="m 606.0836,-19.068325 0.49,12.0900002"
         style="fill:none;stroke:#000000;stroke-width:5;stroke-linecap:butt;stroke-linejoin:miter;stroke-miterlimit:4;stroke-dasharray:none"
         inkscape:connector-curvature="0" />
      <path
         style="fill:none;stroke:#000000;stroke-width:5;stroke-linecap:butt;stroke-linejoin:miter;stroke-miterlimit:4;stroke-dasharray:none"
         d="m 598.0836,-17.068325 0.49,12.0900002"
         id="path5835"
         inkscape:connector-curvature="0" />
      <path
         id="path5837"
         d="m 590.0836,-17.068325 0.49,12.0900002"
         style="fill:none;stroke:#000000;stroke-width:5;stroke-linecap:butt;stroke-linejoin:miter;stroke-miterlimit:4;stroke-dasharray:none"
         inkscape:connector-curvature="0" />
      <path
         style="fill:none;stroke:#000000;stroke-width:5;stroke-linecap:butt;stroke-linejoin:miter;stroke-miterlimit:4;stroke-dasharray:none"
         d="m 582.0836,-15.068325 0.49,12.0900002"
         id="path5839"
         inkscape:connector-curvature="0" />
      <path
         id="path5841"
         d="m 574.0836,-15.068325 0.49,12.0900002"
         style="fill:none;stroke:#000000;stroke-width:5;stroke-linecap:butt;stroke-linejoin:miter;stroke-miterlimit:4;stroke-dasharray:none"
         inkscape:connector-curvature="0" />
      <path
         style="fill:none;stroke:#000000;stroke-width:5;stroke-linecap:butt;stroke-linejoin:miter;stroke-miterlimit:4;stroke-dasharray:none"
         d="m 566.0836,-15.068325 0.49,12.0900002"
         id="path5843"
         inkscape:connector-curvature="0" />
      <path
         id="path5845"
         d="m 558.18858,-13.071665 0.28004,12.09668022"
         style="fill:none;stroke:#000000;stroke-width:5;stroke-linecap:butt;stroke-linejoin:miter;stroke-miterlimit:4;stroke-dasharray:none"
         inkscape:connector-curvature="0" />
      <path
         id="path5847"
         d="m 632.8936,-35.548325 0.74,13.57"
         style="fill:none;stroke:#000000;stroke-width:7;stroke-linecap:butt;stroke-linejoin:miter;stroke-miterlimit:4;stroke-dasharray:none"
         inkscape:connector-curvature="0" />
      <path
         style="fill:none;stroke:#000000;stroke-width:7;stroke-linecap:butt;stroke-linejoin:miter;stroke-miterlimit:4;stroke-dasharray:none"
         d="m 616.8936,-33.548325 0.74,13.57"
         id="path5849"
         inkscape:connector-curvature="0" />
      <path
         id="path5851"
         d="m 600.8936,-31.548325 0.74,13.57"
         style="fill:none;stroke:#000000;stroke-width:7;stroke-linecap:butt;stroke-linejoin:miter;stroke-miterlimit:4;stroke-dasharray:none"
         inkscape:connector-curvature="0" />
      <path
         style="fill:none;stroke:#000000;stroke-width:7;stroke-linecap:butt;stroke-linejoin:miter;stroke-miterlimit:4;stroke-dasharray:none"
         d="m 584.8936,-31.548325 0.74,13.57"
         id="path5853"
         inkscape:connector-curvature="0" />
      <path
         style="fill:none;stroke:#000000;stroke-width:5;stroke-linecap:butt;stroke-linejoin:miter;stroke-miterlimit:4;stroke-dasharray:none"
         d="m 550.18858,-13.071665 0.28004,12.09668022"
         id="path5855"
         inkscape:connector-curvature="0" />
      <path
         id="path5857"
         d="m 542.18858,-13.071665 0.28004,12.09668022"
         style="fill:none;stroke:#000000;stroke-width:5;stroke-linecap:butt;stroke-linejoin:miter;stroke-miterlimit:4;stroke-dasharray:none"
         inkscape:connector-curvature="0" />
      <path
         style="fill:none;stroke:#000000;stroke-width:5;stroke-linecap:butt;stroke-linejoin:miter;stroke-miterlimit:4;stroke-dasharray:none"
         d="m 534.18858,-13.071665 0.28004,12.09668022"
         id="path5859"
         inkscape:connector-curvature="0" />
      <path
         id="path5861"
         d="m 526.18858,-13.071665 0.28004,12.09668022"
         style="fill:none;stroke:#000000;stroke-width:5;stroke-linecap:butt;stroke-linejoin:miter;stroke-miterlimit:4;stroke-dasharray:none"
         inkscape:connector-curvature="0" />
      <path
         style="fill:none;stroke:#000000;stroke-width:5;stroke-linecap:butt;stroke-linejoin:miter;stroke-miterlimit:4;stroke-dasharray:none"
         d="m 518.18858,-13.071665 0.28004,12.09668022"
         id="path5863"
         inkscape:connector-curvature="0" />
      <path
         id="path5865"
         d="m 510.5545,-13.069065 -0.4518,12.09148022"
         style="fill:none;stroke:#000000;stroke-width:5;stroke-linecap:butt;stroke-linejoin:miter;stroke-miterlimit:4;stroke-dasharray:none"
         inkscape:connector-curvature="0" />
      <path
         style="fill:none;stroke:#000000;stroke-width:5;stroke-linecap:butt;stroke-linejoin:miter;stroke-miterlimit:4;stroke-dasharray:none"
         d="m 502.5545,-13.069065 -0.4518,12.09148022"
         id="path5867"
         inkscape:connector-curvature="0" />
      <path
         id="path5869"
         d="m 494.61343,-13.066575 -0.56966,12.08650022"
         style="fill:none;stroke:#000000;stroke-width:5;stroke-linecap:butt;stroke-linejoin:miter;stroke-miterlimit:4;stroke-dasharray:none"
         inkscape:connector-curvature="0" />
      <path
         style="fill:none;stroke:#000000;stroke-width:5;stroke-linecap:butt;stroke-linejoin:miter;stroke-miterlimit:4;stroke-dasharray:none"
         d="m 486.61343,-13.066575 -0.56966,12.08650022"
         id="path5871"
         inkscape:connector-curvature="0" />
      <path
         id="path5873"
         d="m 478.75053,-15.058555 -0.84386,12.0704602"
         style="fill:none;stroke:#000000;stroke-width:5;stroke-linecap:butt;stroke-linejoin:miter;stroke-miterlimit:4;stroke-dasharray:none"
         inkscape:connector-curvature="0" />
      <path
         style="fill:none;stroke:#000000;stroke-width:5;stroke-linecap:butt;stroke-linejoin:miter;stroke-miterlimit:4;stroke-dasharray:none"
         d="m 470.75053,-15.058555 -0.84386,12.0704602"
         id="path5875"
         inkscape:connector-curvature="0" />
      <path
         style="fill:#c1c9eb;fill-rule:nonzero;stroke:none"
         d="m 548.3336,-143.49832 c 25.07,-16.39 114.77,-34.72 114.77,-34.72 -40.51,46.3 -9.1,105.489995 -9.1,105.489995 -56.91,-13.5 -90.24,22.79 -90.24,22.79 -21.58,-27.54 -27.35,-58.579995 -15.43,-93.559995 z m 25.07,-48.22 c -136.96,26.04 -173.61,101.269995 -173.61,101.269995 l 15.43,46.3 c 32.59,-20.29 61.07,-29.05 83.91,-26.76 45.83,4.59 68.3,23.87 66.56,21.93 -57.87,-64.619995 9.04,-143.039995 7.71,-142.739995 z m -185.18,119.599995 c 0,0 -8.68,-13.51 -31.83,-14.47 0,0 96.57,-82.699995 149.56,-86.799995 0,0 -77.07,33.7 -106.25,81.949995 -4.05,6.72 -8.55,12.81 -11.48,19.32 z m 117.7,-101.599995 c -69.45,-12.54 -191,61.09 -191,61.09 23.14,2.89 40.5,26.039995 40.5,26.039995 89.71,-78.159995 150.5,-87.129995 150.5,-87.129995 z"
         id="path2301"
         inkscape:connector-curvature="0" />
      <path
         id="path5908"
         d="m 573.4036,-191.71832 c -136.96,26.04 -173.61,101.269995 -173.61,101.269995 l 15.43,46.3 c 32.59,-20.29 61.07,-29.05 83.91,-26.76 45.83,4.59 68.3,23.87 66.56,21.93 -57.87,-64.619995 9.04,-143.039995 7.71,-142.739995 z"
         style="fill:url(#pattern4938);fill-opacity:1;fill-rule:nonzero;stroke:none"
         inkscape:connector-curvature="0" />
      <path
         id="path5910"
         d="m 548.3336,-143.49832 c 25.07,-16.39 114.77,-34.72 114.77,-34.72 -40.51,46.3 -9.1,105.489995 -9.1,105.489995 -56.91,-13.5 -90.24,22.79 -90.24,22.79 -21.58,-27.54 -27.35,-58.579995 -15.43,-93.559995 z"
         style="fill:url(#pattern4689);fill-opacity:1;fill-rule:nonzero;stroke:none"
         inkscape:connector-curvature="0" />
      <path
         id="path5906"
         d="m 388.2236,-72.118325 c 0,0 -8.68,-13.51 -31.83,-14.47 0,0 96.57,-82.699995 149.56,-86.799995 0,0 -77.07,33.7 -106.25,81.949995 -4.05,6.72 -8.55,12.81 -11.48,19.32 z"
         style="fill:url(#pattern5154-2);fill-opacity:1;fill-rule:nonzero;stroke:none"
         inkscape:connector-curvature="0" />
      <path
         id="path5811"
         d="m 505.9236,-173.71832 c -69.45,-12.54 -191,61.09 -191,61.09 23.14,2.89 40.5,26.039995 40.5,26.039995 89.71,-78.159995 150.5,-87.129995 150.5,-87.129995 z"
         style="fill:url(#pattern5151-8);fill-opacity:1;fill-rule:nonzero;stroke:none"
         inkscape:connector-curvature="0" />
      <path
         inkscape:connector-curvature="0"
         style="fill:none;stroke:#000000;stroke-width:3;stroke-linecap:butt;stroke-linejoin:miter;stroke-miterlimit:4"
         d="m 573.4036,-191.71832 c -136.96,26.04 -173.61,101.269995 -173.61,101.269995 l 15.43,46.3 c 32.59,-20.29 61.07,-29.05 83.91,-26.76 45.83,4.59 68.3,23.87 66.56,21.93 -57.87,-64.619995 9.04,-143.039995 7.71,-142.739995 z"
         id="path4801" />
      <path
         id="path5910-4"
         d="m 548.3336,-143.49832 c 25.07,-16.39 114.77,-34.72 114.77,-34.72 -40.51,46.3 -9.1,105.489995 -9.1,105.489995 -56.91,-13.5 -90.24,22.79 -90.24,22.79 -21.58,-27.54 -27.35,-58.579995 -15.43,-93.559995 z"
         style="fill:none;stroke:#000000;stroke-width:3;stroke-linecap:butt;stroke-linejoin:miter;stroke-miterlimit:4"
         inkscape:connector-curvature="0" />
      <path
         id="path5906-5"
         d="m 388.2236,-72.118325 c 0,0 -8.68,-13.51 -31.83,-14.47 0,0 96.57,-82.699995 149.56,-86.799995 0,0 -77.07,33.7 -106.25,81.949995 -4.05,6.72 -8.55,12.81 -11.48,19.32 z"
         style="fill:none;stroke:#000000;stroke-width:3;stroke-linecap:butt;stroke-linejoin:miter;stroke-miterlimit:4"
         inkscape:connector-curvature="0" />
      <path
         id="path5811-5"
         d="m 505.9236,-173.71832 c -69.45,-12.54 -191,61.09 -191,61.09 23.14,2.89 40.5,26.039995 40.5,26.039995 89.71,-78.159995 150.5,-87.129995 150.5,-87.129995 z"
         style="fill:none;stroke:#000000;stroke-width:3;stroke-linecap:butt;stroke-linejoin:miter;stroke-miterlimit:4"
         inkscape:connector-curvature="0" />
    </g>
  </g>
</svg>
