<?xml version="1.0"?>
<svg xmlns="http://www.w3.org/2000/svg" height="532" width="462">
<path d="m196.8 3.538c9.1 2.683 18.1 6.193 26.2 11.66 12-5.578 24-11.25 37.8-12.59 5.4-1.029 11.6-1.237 16.8-0.828 15.1-0.1 27.1 5.467 40 10.42 7.2 3.43 14 6.37 21 9.62 9.2 4.23 20.6 10.47 29.9 14.7 13.7 7.43 28.3 10.35 44.9 10.66 15.2-1.24 28.8-5.37 40.8-13.62 2.6 1.65 6 7.48 6 7.48-7.1 5.05-12.1 13.8-13.4 22.23-2 13.88-2.5 30.68-2.6 31.92 0 3.1 1.3 235.5 0.9 248.3-0.2 4.9-2.2 25.6-6.5 34.4-12.8 39.4-48.4 67.2-84.4 84.8-17.2 8.5-33.1 16.7-50.3 23.2-1.2 1.5-36.2 15.6-50.7 24-5.9 2.7-22 13-27.2 22.1-0.6-0.8-0.7 0-3.3-3.5-13.2-16.3-29.4-20.9-46.4-28.9-18.7-8.8-38.2-16.5-56.8-25.3-32.46-16.7-65.52-35.8-87.7-69.7-3.92-5.3-9.36-17.3-10.83-20-3.3-7.6-4.85-14-6.91-21-0.78-6.6-2.28-12-1.76-17.7 0 0 0.33-271.7-0.31-280.2-0.69-9.04-5.387-17.65-11.99-24.66 2.188-2.58 7.608-6.06 7.608-6.06 16.82 16.81 44.2 14.88 63.8 6.42 22.19-8.36 41.69-21.35 63.69-30.12 3.6-1.548 7.5-2.993 10.9-4.54 8.9-3.611 18.7-4.956 28.5-6.402 7.7 0.3094 15.2 1.036 22.3 3.201"/>
<path fill="#e3001b" d="m274.8 8.125c-17.2-0.055-34.2 6.485-49.5 14.46 0.2 27.87-0.4 55.74 0 83.62-0.5 64.6 0 129.7 0.1 194.6-0.3 21.8-0.2 44.2 9.5 64.3 19 43.8 54.5 79.4 96 102.4 35.1-16.1 70-37.5 91.5-70.5 21.8-31.3 15.8-71.1 17-107-0.2-58.9 1.5-117.9-1-176.8 0.5-20.6-1.6-42.3 5.7-61.86 0.3-8.71-22.8 6.73-31.7 2.44-40.1-0.05-72.4-26.56-108.7-39.34h-0.1c-3.7-1.57-7.6-2.91-11.5-3.88-5.8-1.668-11.5-2.417-17.3-2.435zm53.2 49.84c0.2 1.43 1.7 0.73 2.4 1.22 3.1 1.75 5 3.72 6 7.22 1.2 1.31 1.7 2.35 2.7 1.25 0-0.72 0.6-2.08 0-3 0 0 0.6-1.98 0.5-3.72 1-0.93 1.8-1.12 3.5-0.91 1.2 1.01 1.5 1.78 2.4 3.06 1.2 1.35 2.2 3.03 2.5 3.13 1.1 1.55 2.6 3.09 5 2.47 2.6-1.75-0.3-6.93 3.4-7.75 3.6-1.04 4.5 1.57 6.5 3.22 0.7 1.65 0.9 1.12 1.2 3.5 1.9 0.21 4.5 0.39 6.4 1.22 1.8 0.51 3.3 2.39 4.3 3.93 0.2 2.17-0.3 3.42-1.6 4.97-0.4 0.1-1.1-0.24-1.4 0.28 1.2 0.82 1.5 3.31 3.5 3.41 0.2-4.33 3.4-10.63-2-13.63-2 0.32-3.6-0.2-5.1-1.43v-2.47c1.1 0.51 1.5 1.14 2.3 1.97 4.2-1.14 6.1 2.16 9.9 1.03 1.9 0.72 3.6 2.35 5 3.9 2.1 0.94 3 1.27 4.5 2.1-0.5 0 2.2 2.9 2.2 2.9 1.2 3.66-1 9.43 0 11.88 0.5 1.41 1.7 1.6 2.5 1.5 1.8-1.35 0.7-7.22 0.5-7.22 0.7-0.42 0.4-1.77 1.6-1.25 2 0.82 0.5 3.01 1.3 4.25-0.1 1.03-0.6 1.95-0.4 3.19 0.6 0.82 2.1-0.01 2.6-0.53 3-0.62 6.4-0.1 8.2 2.28 0.3 1.95 1.4 2.88 1 5.15-0.9 1.01-0.4 1.45-1 2.07 1 0.82 4 4.24 4 7.14 0.4 2.6-1 6.5 1.3 7.7 0.5-0.1 0.6 0.1 1.2 0.8 0.1 1.1-1.1 1.3-1.8 1.2-0.7-1.8-5.2-0.3-5.2-0.3 2.5 0.5 1.7 3.9 2.6 5.9-0.4 1.9-1.2 6.7-0.3 7.5 0.1 3.4 0.9 7.2 0.1 10.9-1.2-0.3-0.7 2.7-4.6 3.9-2.8 2 0.1 5.8-1.5 8.5-0.6 1.9-2.3 5.8-3.8 10.1-1.6 1.7-7.9 7.7-6.5 9.5 0.4-0.6 5.1-2.1 5.1-2.1 4.7-0.9 8.8-1.9 10.4-3 0.9-0.1 0-1.5 0.9-1.2 1-4.6 0.5-9.7 0.6-14.5 0.3-3.1-0.2-0.2 1-4.1 1.9-2.2 4.6-3 4.6-3 2.9-0.5 6.4-0.2 7.8 2.1 3.2 1 1 5.8 3.4 7.6 0.9 0 1.5 0.4 2.5 0.2 0.8 1.7-1.3 1.5-2.2 1.8-0.6-0.4-1.6-0.1-2.3-0.2-0.9-0.7-1.6-2-2.5-3-0.6-0.2-0.8 0.5-1.4 0.2-0.4 0.6-0.4 1.6 0 2.3 0 0 0.6 6 1.2 8.7 0 0 1.6 2.6 2.4 2.8 0.1 1.3 2.6 0.9 2.7 3.2 0 0.1 1.8 2.4 0.1 6.8 0.3 1.5-0.3 1.8-1.4 2.2 0.1 1 1.5 2.2 3 2.3l0.2-0.2c2.2 2.5 3 5.6 2.2 9.3-0.8 1.2-2.9 3.1-2.6 5-0.2 0 0 1.6 1.6 1.7-0.4 2.4 2.1 4 0.2 7 0 0-0.1 2.4-1.9 3.9 0 0.6 0.1 1.4 0.7 1.5 0.7 1.5-0.4 4.2 1 5 0.9 2.8-1 6.5 1.8 8.1 0 0 2 2.1-2.5 7.7-2.1-0.1-4.5 2.5-4.2 3.7-0.5-0.2-1.9 2.3-0.5 2.4 1.6-0.7 2.4-2.5 4.9-2.1 1.7-0.6 3.2 0.3 4.7 0.4 0.1 2.1-1.7 2.2-2.2 4.3-2.7 0.6-2.9 7.3-2.5 8.4 0.7 1.8 3-1 3-1h1.4c0.5 1.2 0.3 2-0.7 3.7-0.7 1.9-0.9 9.9-0.9 9.9 0.8 0.9 3.6-0.8 2.9 1.5-1.1 0.7-2.5 1.4-3.2 2.5-2.1 0.1-2 3.2-2.7 4.6 1.1 0.7 2.1 1.3 2.7 2-2.4 0.5-5.7 2.9-6.2 6-0.6 0.2 0 1.6-3 4.2-0.9 2.4-4.8 2.9-4.8 2.9 0.2 0-3.9 0.9-4.4 1.2 0 0-2.6 10.8-3.4 14.2 0 0-2.6 7.9-4.7 11.4-0.7 2-5.7 9.6-5.7 9.6-0.2 1.2-5.5 7.2-5.5 9 0 0-1.9 7.8-0.4 11.1 0.4 4.6 4.2 9.3 4.5 9.4 1.5 0.9 2.9 3.4 2.9 3.4s1.3 4.6-1 9.7c-0.8 1.9-3.7 2.6-5.7 3.5-3.4 1.5-13.2 8.8-15.1 9.9 0.3 0.8-3 1.5-5.9 4.5-2.1 2.1-5.6 4.5-6.9 7.4 0 0-0.7 2.6-0.8 3.4 1.1 0.1 0.7 1.4 0.8 2.1-2 1.4-6.1-0.9-7.2 0.9-2.3 1.7-3.7 5.3-8 4.2-1.6 0.9-2.4 2.4-4.4 2.5-0.7 0.6-2.4-0.3-2.3 1.2-0.9-0.1-4.6 1.4-4.6 2-3.8-1.1-4.1 3.8-7.8 2 0 0 0.7-4.6 0.8-5.7-0.8-0.1-1.6-0.8-2.4-0.2-0.7 1.8-2.4 4.4-2.5 4.4-1.8 0.7-4 2.5-4.2 3.5-1.1 0.1-4.5 1-4.5 1-6.3 0.1-14.2 1.2-19.4-1-3.4-0.3-2.1-2.4-4.4-2-1.3-1.8 0.9-5.8 1-6.2 0.2-1.4 1.2-3.2 1.5-3.9 0.1-1.6 4.4-11.2 4.4-11.2 0.9-1 2.5-2 3.3-3 0 0 6.7-1 11.2 1 3.1 0.6 5.6-1.6 7.4-2.9 0.7 0.2 5-3 5-3 3.5 0.7 6.3-1.2 9.3-1.3 18.5-11.3 24.7-16.1 28-18.7 3-2.5 0.8-6.2 0-9-1.1-4.5-3.4-6.6-3.8-7.2-1.5-2.5-10.9-8.7-14.8-9.6-2.5-0.8-2.1 4-1.2 7.4 1.5 0.3 1 3.2 1 3.2 0.1 0.3 0.7 6 0.7 6-0.9 2-2.4 5.1-4.2 6.7-1.1 0.4-10.4-1.3-10.4-1.3s-11.9-1.5-14.9-2c-2.5 0.1-3.9-0.5-5.7 0.8-0.9 2-5.5 0.1-5.6 0-0.8 0.3-0.4 2.4-2 2.7-0.6-1.1-1.8-0.5-3.5-0.9-1.5-0.7-7.5-1.6-9.9-1.7-2.7-0.9-8.4-1.1-9.4-2.6-1.8-2.5-0.3-5.3-1.7-4.7-2.6-0.6-1.8 1-3 2.8l-0.9 3.2c-1.2 1.1-2 2.1-2.5 3.7-0.2 0.9-5.5 2.2-5.5 2.2l-14.1-0.5s-10.2-1.8-10.9-2.4c-1.1-2.7 0.9-4.7 1.7-6.8 0 0 4.2-11.3 5.5-10.9 1-2 3-3.1 5.6-3 3-1.2 6.1-2.7 8.5-4.6 2.3-2.2 5.9-3.1 7.9-3 7.8-0.1 18.8 1.9 18.8 1.9l15.6 2.5c5.5 0.6 8.1 2 12.9 1.3 0.6-1.2-0.5-3.2-0.5-3.2-6.5-7.2-8.4-11.1-9.5-13.8-2.3-1.6-8.3-7.9-9.3-10.8 0.4-1.7-4-9.7-5-11.3 0 0-3.2-7.6 2-13.1 1.2-1.2 8.1-5.7 12-10.3 1.4-1.6 3.3-3.3 2.6-5.8-2-0.9-5.2-7.6-5.7-8.1-1.2-1.3-12.1-11.3-16.9-16.4 0.2-1.8-2.4-1.2-2.6-2.2-2.1 0.3-17.4-7-17.9-8.2-1.2 0.3-3.2-1-2.7 1.2 1.3 2.3 12 12.6 13.9 12.1 0.8 0.9 1 2.2 1.9 2.8 1.4 2.5-2.6 3.7 0.6 5.4 2.2-0.6 2.6-2.9 4.2-4.2l2.1 0.6s7.4 4.4 7.1 5.6c3.4 3.4 6.4 7.1 8.3 11.6 0 0 0.4 3.3-0.7 4.5-2.4-0.2-3.6 1.1-5.7 1.7-3.1 0.4-10.3 3.1-11.6 3.3-1.2-0.2-2.6-0.3-3.7-1.1 0.1-1.1-4.8-4.7-7.7-4.2-0.8-0.7-2.4-0.6-3.5-0.9-1.6-0.9-4-3.9-4.2-4.5-0.7-0.9-2.6-5.2-4-7-5.5-7.1-7.8-9.4-13.6-15-1.6-2.1-3.2-3.6-4.9-5.3-1-1-1.8-3.2-2.3-3.4 0 0-0.2-7.2 2.3-9.7 0.9-0.8 2-1.6 3-2.5 1.1-1.5-1.1-1.8-1.3-2.7-0.6 0-4.4-1.9-5.4-2.7-2.5-0.1-2.9-2.2-6.7-3.5-3.5-3.5-4.3-5.6-4.3-5.6 0.1-1.1-0.1-2.3-1.2-2.3 0 0-2.7-3.1-2.9-3.8l-0.8-9.6c1.1-2.2 1-26 1-26v-10.8c0.6-1.8 2.6-2.7 3.7-3.7 1.5-0.7 12-5.7 13.4-6.8 2.7-1.9 4.8-1.8 7-1.2 1.6 0.7 5.7 6.2 6.4 8.5 0.8 1.9 3 7.2 8.5 13.4 4.1 4.2 4.7 3.5 6.8 5.6 0.6-0.7 6-3.6 7.7-6.6 10-6.5 9.4-0.8 12.1-4.6 4.5-6.3 11.4-11.3 11.4-11.3 5.6-3.7 9.7-2.7 9.7-3 1.5 0 5.1-0.5 6.9-2.2 0.3-1.3 3.9-1.8 4.4-2.5 6.3-0.6 12-1.4 16.6-4.9l0.2-1.3c-3.1-1-7.2 1.2-9.1-1.7-1.3-1-3.6-2.5-2.4-4.8-0.9-1.1-3.7-1.9-3.7-1.9-2-1-4.9 0-6.2-1.8-3.5 0.2-9.2-1.8-11 1.8-0.7 0.4-1.9 0.1-2.2 1-5.7 1.2-7.1-4-11.9-4.9-1-0.8-1.2-2.8-1.4-3.5 0.4-0.6 0.2-1.4 0.5-2-0.8-1.5-4.8-3.2-5-3.2v-3.7c2.4-2.8 6.7 0.2 9.6-1.8-1.5-1-3.6-2-5.7-2.8-0.8-2.75-4.2-2.13-3.9-5.12 1.8-0.72 0.7-3.51 1-5.16 1.6-2.17 6.7-4 6.7-4 2.3-0.41 2.6-3.42 4.9-4.25 1.8-1.14 4.7-1.14 6.9-0.72l2 1.56 9.9-1.03 11.9-0.53c1-2.68-2.6-2.77-3.6-4.22-0.7-0.72 0.2-2.38-1.1-2.69-0.5-2.68 0-5.79-0.5-8.46 0 0-2.4-2.77-3.7-3.91 0 0-6.5 0.31-6.7-2.47l7.7-0.22c0-0.93 0.7-0.71 1.5-0.81zm-21.6 42.53c-1.4 0-2.8 0.2-4.2 0.1-0.3-0.1-0.4 0.1-0.4 0.3-0.2 0.6-0.3 1.4 0.1 1.9 0.2 0.2 0.5 0.3 0.8 0.3 0.4 0 0.8-0.2 1-0.5 0.2-0.4 0.5-0.3 0.8-0.3 0.9 0 1.8 0.1 2.4 0.7 0.5-0.4 1.1-0.4 1.8-0.6 0.4-0.1 0.8-0.4 1-0.8-0.6-0.5-1.2-0.8-1.9-0.9-0.5-0.1-0.9-0.2-1.4-0.2zm-60.9 63.5l-0.2 7.8c-0.2 0.6 0.7 0.9 0.9 1.5 0.5 1 0.1 2.1 0.4 3.1 1.2 0.5 0.3 1.8 0.8 2.7 1 0.1 0.8 1.3 0.8 2.1 0.1 1 0.3 2.3-0.4 3.1-0.9 0.2-2.3 0.8-1.6 2l4.4 0.4c0.7-0.2 0.5 0.4 0.7 0.8 0.6 0 1.7-0.1 1.8-0.7 0.4-1.8-0.6-3.4-1.1-5-0.4-0.9 0.2-2-0.6-2.7-0.6-1 0.2-2.1-0.4-3.1-0.8-0.4-0.9-1.4-0.8-2.2 0.4-1.1-0.9-1.3-0.7-2.2 0.1-1.8-1.3-3.3-2-4.9 0-1.1-1.1-1.8-1.5-2.7h-0.5zm143.8 15.1c-0.1 0-0.3 0.2-0.5 0.7-1.1 0.7-0.1 3.5-1.6 4.5-1.7 3.4-4.9 5.5-6.2 9.1-1 1.8-1.8 3-2.2 5.2-1.6 1.6-2.5 4.8-5.2 5.6-3.4 1.7-1.5-2.7-2.5-3.7-2.7-0.8-5 0.1-5.1 2.7-1.6 2-0.1 6.2 2.1 8 1.5 4 5.7 6 7.5 9.7 2.1 1.3 3.4 2.8 5.3 4.8 2.8 2.5 5.8 4.9 8.3 7.6 2.2 2.5 5.1 5.1 6.9 7.5 2.6 2 3.6 4.1 5.8 6.5 1.4 2.7 3.2 4.2 4 7 2 3.1 3.1 6.1 4.2 9.5 0.6 3.4 3.2 1.3 4.3-0.4 0.2-3.6 0.3-7.2 0.1-10.8 0.1-2.8-1.5-4.8-2.1-7.3-0.8-2.3-4.1-3-5.2-5.1-2.6 0-4.4-2-7-2.2-2.4-1.8-5.6-1.6-8-3.8-2.3-2.6-5.3-4.9-6.2-8.3 0.4-3.1-2.5-5.2-0.4-7.9l0.3-6.5c0.3-1.1-0.2-2.9 0.5-3.4 0.2-2.5 0.2-5 0.5-7.5 1.5-3 0.5-7.7 1.2-11.4 1.4-1.3-0.3-4.9 1-6.9 0.1 0 0.3 0 0.2-0.2-0.2-0.8 0.2-2.9 0-3zm-152.2 232.1c-1.5 0-3 0.3-4.1 1.2-3.3 3-4.5 5.8-6.8 9.5-1.1 0.5-2.8 0.5-3.8-0.7-1.6-1.9-2-3.8-3.6-5.7-1.3-2.4-5.5-3.9-8.2-3.7-3.3 0.9-6.5 1.3-9.1 3.5-3 3-7.3 4.8-8.7 9.1-1 1.8-2.3 3.4-1.9 5.6-0.6 2.7 1.1 5.2 3.3 6.7 2.1 1.8 3.2 4.2 4.3 6.1-1.3 2.6-4.9 5-8.3 4.4-4 0.3-7.5 4.7-7.2 8.8 0.6 3.8 1.4 6.5 3.2 10.1 2.1 3.3 3.4 6.8 7.3 8.9 3.6 3.5 7.3-0.3 11.1-0.6 4-0.3 5.3 6.3 2.3 8.2-2.1 4.7 2.6 8.6 6.8 8.9 3.7 0.7 7.6 1.1 11.6 1.1 3.4-0.1 7.8 0.3 10.4-1.8 4.1 0 7.2-4 6.5-8.2 0.4-2.9-1.2-4.3-0.9-6.3 0.1-5 5.3-3.5 8.3-2.6 3.3 0.8 6.8-0.1 9.7-2.3 2.5-2.4 4.3-5.9 4.8-9.5 1.9-2.7 0.3-7.4 1.5-10.6-0.4-3.5-2.1-6.9-6.1-7-3.2 0.3-7.9-1.4-6.8-4-1.3-2.9 5-3.8 5.1-7.5 1.5-3.1 0.3-6.3-1-9-1.7-3.1-4.7-5.2-7.8-7.4-2.6-1.3-4.6-3.5-7.4-4.1-1.3-0.6-2.9-1-4.5-1.1zm-3.3 5.2c2 0 4.1 1.3 5.9 2.5 3 0.3 3.5 4.4 5.8 5.2 2.9 1.4 6.4 2.8 7.8 5.9 2.4 3.5 0.1 7.8-2.9 10.5-1.9 6.1 8.4 2.6 8.8 7.8 0.6 3.4 0.3 6.9-1.8 9.7-0.5 3.5 0.1 7.3-2 10.2-1.2 4.1-6.1 4.3-9.6 4-3.7-1.4-7.8 1.1-5.5 5 1.4 4.1-2.2 8.5-5.9 8.6-2.6 2-6.8 0.1-9.7-0.2-2-1.6-4.2 1-6.4 0.6-2.9-0.6-6.8-1.7-7.4-4.6-1.1-2-1.2-3.1-1.2-4.5 0.2-6.3-5.9-3-9.4-3.5-4-0.2-5.3-4.9-6.5-7.9 1.5-4.7-4.6-5.4-4.8-9.9-1.4-4.9 3.3-9.5 8.2-8.7 5.3-0.5 3.9-7.5-0.1-8.4-2.6-1.2-4.8-6-2.1-8.5 1.7-2.3 4.3-4.2 6.4-5.1 4.5 0.5 4.4-6 8.9-6.2 1.8-2.1 7.3-3 9.4-0.2 1.2 1.2 1.3 3 2.1 4.5 0.4 0.8 0.7 1 1.5 1.7 1.1 0.8 2.3 0.2 2.9-0.7 1.4-2 2.4-6.2 4.2-6.4 1-1 2.2-1.4 3.4-1.4zm-18 2.7c-0.8-0.1-1.6 0.2-2.4 0.7-4.4 1-5.7 6.1-9.4 7.6-3.3 0.9-6 4.1-8 6-0.9 4.9 5.7 4.9 7 8.4 1 0.3 0.3 2.8 0.7 4-1.4 3-6.4 3.8-9.7 3.4-2 1.2-2.6 5-1.7 7.2 0.5 2.4 5.8 4.5 4.7 6.4l0.2 4.4c0.1 3.9 4.9 6.1 8 3.7 3.9-2.7 7.8 3.4 5.7 5.8 0 0.6-0.6 1-0.5 1.4 0.6 2.3 2.3 3.3 4 4.2 3.2 2.2 6.9 0.7 10.1 0 2.7 1.3 7.4 3.4 10.7 0.9 3.6-2.2 3.7-6.4 2.5-10-0.8-3.4 4.3-5.9 7.1-3.6 3.3 2.4 9 0.9 9.2-3.9 0.9-2.3-1.8-5.9 0.2-8.8 2.2-1.4 2.5-3.9 2.6-6.2 0.7-2.6-1.1-4.4-3.7-4.4-3.2 0.3-6.3-1.4-5.8-4.6 0.6-2.9 5-5 4.8-8.6-0.8-2.9-4.3-4.2-7.1-5.2-4.4 0.3-3-6.4-7.2-7-2-0.9-3.5-1.9-5.8-1.5-3.7 0.3-3 6-5.7 7.8-1.8 1.8-6.9-0.9-6.3-4 0.3-2-1.8-4.1-4.2-4.1zm-7.1 8.1c1.3 0 2.6 1.8 2.9 2.9 1.8 1.4 3.8 2.8 5.3 4.4 2.6 2.4 6.1-0.5 9-0.3 1.4-0.1 1.8 1.6 3.5 1.1 0.3 1.5 2.1 0.6 2.5-0.2 2.7-1.7 4.6-3.8 6.5-6.4 0.9-1.8 2.9-1.1 1.5 0.6-1 3.1-3.7 5.4-5.2 8.2 1.1 2.2 2.8-2.1 4.1-3.1 1.4-1.5 2.4-3.7 3.9-5.2 3 1.7-1 4.1-2 6-0.9 2.5-2.9 5.1-2.1 7.8 0.9 0.1 0.8 1.9 1.5 2.4-0.2 2.8 1.3 5.3 3.5 6.6 2 0.2 3.6 2.3 6 2.1 0.7 0.2 2.3-0.5 2.3 0.5 0.1 1.3 0.2 2.6-1.5 1.5-2.9-0.8-5.9-1.3-8.8-2-1.6 1.5 0.8 1.9 1.9 2.1l7.7 2.1c0 2.5-3.6 0.8-5.3 1.2-2.6-1.6-5.9-0.9-8.1 1-1.1 2.3-2.7 3.2-4.5 5.1-1.7 0.7-3.1 1.9-4.8 2.4-0.7 1.4-1.7 2.6-1.4 4.3 0.4 1.7-1.5 2.1-0.9 4.1 0.5 1.2-0.6 4.8-1.5 3.5l0.3-11.9c-0.5-1.6-2.3-0.9-2 0.6l-0.3 11.8c-1.9 0.3-0.5-2.7-1.2-3.9-0.4-2.1-0.8-4.2-0.7-6.3-1.6-0.7-0.8-3.2-2.2-4.1-2-0.7-4.2-1-5.6-2.9-1.2-0.9-1.3-3.3-3.6-2.6-2.2 0-3.8 1-5.8 1.4-0.5 1.6-1.4-0.9-2 0.6-1.4 0.7-3.8-1.4-1.4-1.7 2.8-1.1 5.7-2.3 8.7-3.1 1.7-2.5-1.9-2.2-3.1-1.1-2.3 0.5-4.3 1.7-6.8 2.6-2 1-1-2.3 0.7-2 2.6-1 4.1-3.4 6.9-3.7 1.1-1 2.3-2.1 2.1-3.7l0.2-3.7c1.1-0.7 1.6-3.4 2.6-4.8 0.4-2.1-1-3-1.5-5-1.7-1.5-2.3-4-3.6-6-1.4-1.4 0.9-0.6 0.5-2 2.4 3.3 4.3 7.2 7.4 9.9 2.6-1-1.1-3.2-1.5-4.6-1.5-2.2-3-4.4-5-6.1 0.3-0.3 0.6-0.4 0.9-0.4z"/>
<path d="m199.2 48.36c-9 6.19-14 16.3-14.9 26.93-2.3-0.31-0.8-3.92-1.2-5.88 0.4-2.78 1.8-5.06 2.1-7.95 2.3-5.57 7.4-12.27 13.6-14.13l0.4 1.03z"/>
<path d="m199 62.19c-2.9 4.33-4.5 9.07-5.5 14.13-0.7 0.21-0.9-0.62-1.4-1.04 0.1-7.01 2.6-14.12 9.1-17.53 2.2 2.27-1.7 2.48-2.2 4.44"/>
<path fill="#fff" d="m173.2 2.719c-0.8 0.003-1.6 0.005-2.5 0.031-32.6 4.639-59.1 23.74-88.11 36.22-1.02 1.54-3.89 0.53-3.68 2.91h1.75c20.64-8.67 40.74-20.04 60.84-28.91 15-5.576 31.6-10 48.8-7.22-0.1-0.518 0.2-1.128-0.2-1.438-5.4-1.082-11-1.617-16.9-1.593zm100.7 1.343c-14 0.257-29.5 3.76-41.8 9.128-2.3 1.03-2.6 1.4-5.4 2.72-0.7 0.92-2.3 2.23-1.5 3.47 8.1-3.72 16.8-7.27 25.5-10.13 28.3-9.364 54.4 1.34 79.7 13.31 16.4 7.76 31.6 16.21 48.6 22.82 2 0.2 3.4 0.5 5.2 0.71-6.3-2.37-11.3-4.81-18.4-8.15-7.3-3.42-14.3-7.64-21.8-10.94-17.3-7.53-34.6-17.22-53.3-21.44-4.3-0.966-9-1.433-14-1.498-0.9-0.012-1.8-0.017-2.8 0zm-53.3 22.53c-14.3 1.55-25.6 9.19-36 19.82-5.1 6.18-8.2 12.98-9.7 21.03-2.4 11.96 0.7 24.46-0.7 36.86 0.1 1.8-0.4 2.6-0.7 5.2-2.5 8.1-5.9 12.3-15.5 16.3-2.5 1.6-7.8 2.7-10 4.3-11.2 2.2-22 8.1-29 17.8-15.3 17.1-10 40.9-9.4 63.2-0.9 31.2-37.2 26.2-52.26 46.5-14.24 15.6-14.76 36.9-14.87 58.4 0.52 6-1.33 11.6-4.22 16.6-4.44 4.6-9.59 9.2-16.5 9.4-1.55-0.1-1.37 0.6-1.25 2.9-0.2 9 1.84 17.1 3.91 25 1.75 6.3 3.78 12.8 6.65 18.8 3.36 6.9 6.79 11.8 10.5 17.6 2.58-0.1 5.55 0.4 7.82-0.5 15.47-2.5 29.63-10.9 39.43-24.2 10.83-15.5 11.99-35.7 12.39-55.5l0.5-0.8c-0.7-2.2 0.1-5 0.2-7.6 0.4-15.5 15.2-27.7 28.3-33.2 13.3-6.5 27.7-16.3 34.3-30.4 9.6-15.8 2.1-38.1 6.5-56.3 6.4-26 37.9-17 49.5-38.3l0.1-132.9zm233.1 11.88c-8.4 2.99-16.4 6.71-25.2 8.87-1.3 0.67 0 1.24 0.2 1.75 5.1-0.18 6.1-1.35 9.9-2.28 4.4-1.23 8.4-3.31 12.4-5.37 1-0.93 3-1.03 3-2.78l-0.3-0.19zm-447.9 3.72c3.301 5.46 5.886 8.91 7.566 16 1.21 5.12 1.54 6.82 1.62 10.69 0.49 24.44 0.41 84.52-0.31 89.92v177.5c-0.21 16.1 2.28 31.5 9.5 44l0.22-0.2c-2.79-7.5-4.54-15.5-6.19-23.5 0-3-0.83-5.7-1.25-8.4l-0.22-173.9c-0.73-6.1 0.12-12.5 0.22-19.3l-0.09-86.38c-0.93-6.39-1.79-14.28-4.88-19.74-1.75-2.38-3.395-5.66-6.186-6.69zm323.7 19.78c3.3 3.61 1.5 8.57 3.4 12.91 3.8 4.43 10.4 4.33 16.6 4.12 2.2-0.62 3.5 1.35 5.5 0.31v-0.72c-2.5-1.03-5.6-0.22-8.2-0.84-1.6-0.72-3.9 0.54-5.3-0.91-0.1-0.51 0.3-0.71 0.6-1.03h11.8c0.3-1.13-0.4-2.58-0.2-3.72-4.3-1.85-9.6-0.62-14.3-0.93-5.9-0.1-4.9-7.75-9.9-9.19zm12.3 1.25l-0.5 0.53c0.1 0.72-0.4 1.74 0.5 2.16-1 3.92 3 1.44 4.5 2.47-1.3-1.45-2.5-4.02-4.5-5.16zm16.1 0.5c-1.9 0.13-1.4 2.6-2.2 4.16 1.2 5.35 1.3 11.24 3.7 16.09l-1 1c-0.9-0.82-1.3-1.72-1.7-2.66l-15.2-0.84c-1.2 0.93-2.6 1.55-4.2 2.06-9.6-0.61-18.2 0.93-27.4 1.44-0.6-1.13-1.6-2.56-3.2-1.94-3.1 2.27-5.7 5.88-9.9 5.88-1 0.82-2.7 1.74-2 3.5 3.6 6.91 11.4 4.95 17 7.43 1.2 1.36 2.7 2.96 2.8 4.96 0 2.5-0.1 4.8-0.5 7.2-4.8 1.8-9.8-0.3-14.9 0.2-1.1 0.9-1.4 2.1 0 3.2 3.4 0.6 7.5 0.9 11.4 0.7 2.1 0.4 3.7 0.4 5.7 0 3.3-1.2 1-5.2 2-7.6 1.5-4.4-1.2-7.8-4.2-10.94l0.7-0.72c1.3 0.82 2.5 1.66 4 1.97 4.7 3.89 2.4 11.79 2 16.89 2.4 0.9 4.6 1.7 7.6 1.7v0.3c1.5-0.6 1.2 1.1 2.5 0.7 0.9-0.9 0.3-2.5 0.5-3.7 1.2-2.4-0.3-5.8 1.3-7.9 1-2.2 4.6-2.1 6.9-2 3 3.3-2.6 1.2-3.2 3.2-2.1 5.2-2.2 10.4-2 16.1 0.4 1.5 2.2 1.2 2.9 2 5.1-1.2 9.9 2.4 14.5 0 1.2-7.4 9.1-3.5 12.8-7.7-0.3-1.8 0.4-3 1.2-4.2 1.1-0.2 0.7 1 1 1.5 2 9.7-10.1 5.7-13.1 12.6-1 0.8-2.7 1.1-3.2 2 2.8 1.5 6.1 0.5 8.9-1 1.1-0.6 2.7-0.3 2.7 1.3-3.1 3.2-8.2 3.9-12.4 2.5-1.2 0-1.5-2.4-3.2-1.6-0.7 0.7-1.4 1.5-1.4 2.5 0.5 0.3 0.9 1.4 1.4 1 2.4 1.9 6.8 0.8 9.7 0 1.2 0.3 2.2-0.9 3 0.8 0.2 2.3-2.7 1.4-3.7 2.6-4.8-0.2-10.5 2.2-13.3-2.9-0.4-0.9-1.8-0.5-2.4 0.4-0.8 1.4 0.4 3.3 1.7 4.6 0.6 0.9 2.1-0.1 2.3 0.9 3.2 0.5 6.8-1.1 8.4 2.3-3.4 1.3-7.7 1.1-10.9-0.3-1.6-1.6-4.4-3.2-4.4-5.4-1.1-2.4-2.7 0.1-4.2-0.3-7-1.3-10.2 6.1-16.8 5.3-11.4-0.3-17.6 12.7-23.9 20.2-1.7 0.8-3.3 3.7-5.4 2.2-0.8-0.5 0.3-0.8 0.5-1.2 1.9-1 3.2-2.3 4.2-4.4-1.2-1.1-2.8 0-4.2 0-10.1 6.2-16.9 20.7-28.7 25.7-2.1 1.7-4.1 4.1-3.2 7-0.9 3.8-0.4 8.3-0.5 12.6l0.7 0.7 2-3.9c4.4-4.6 10.4 0.2 15.8-0.3 10.9-0.1 20.5 2.6 29.8 6.2 2.1-0.5-1.3-1.8 0.9-2.5 3.2 1.4 6.3 0.6 9.5-0.2 1.6 0.3 3.1-1.7 4.6-0.2-1.5 2.4-4 3.8-6.9 3.9-3.4-2.2-5.4 1.8-8.7 1.4-9.9-3.3-20.3-5.6-31.6-5.6-3.4 0.7-5.7-2.3-9-1.3-2.9 1.6-3.7 4.9-4.6 7.8-1.1 5.3-6.5 9.1-9.4 13.6-0.2 1.8 0.2 3.6 0.9 5.1 7.1 7.1 14.7 14.1 19.6 22.1 3.3 2.8 2.6 7.4 6.9 9.9 4.9-0.5 8.3 2.3 11.7 5.2 2.1 1 4.9 0.2 7.1-0.2 3-1.7 7-2 10.2-3.6-1.4-6.2-6-10.9-10.6-15.3-2.6-3.3-5.3 0.6-7.5 1.9-1.4 1.3-3.3 0-4.2-0.9-0.8-2-0.5-3.7-0.3-5.7-1.2 0-1.3 1.9-2.7 2-2.6-0.9 0.7-2.3 0.2-3.7-0.7 0.1-1.4 1.6-2.1 2.5-3.7-0.2-0.4-3.2-1.1-5-4.3-2.6-6.7-6.9-10.4-10.6-0.7-2.6 1.1-4 2.3-5.8 3.2-0.9 4.8 1.6 7.4 2.1 7.6 5.5 17 7.1 25.8 10.1 3.7 0.1 6.6 2.5 9.9 3.7 5.5 0.6 4.4-5.2 6.6-8.2 1.5-2.1 3.7-4.8 6.2-5.6 0.4 0 0.8 0.3 0.8 0.7-6.4 3.3-3.8 10.8-8.4 15-7.3 4.6-11.9-4-18.6-3.2 3 4.4 6.6 8.3 10.9 11.7 3.9 2.4 4.6 7.3 7.9 9.9 3 2.6 5 4.8 7.9 6.9 3 1.3 7.4 0.1 9.9-2.5 0.5-0.5 0.5-1.6 1.6-1.4 0.4 0.5 1.3 0.9 1.2 1.6-0.9 2.1-2.8 3.8-4.5 4.8-3.5 1.3-6.1-2.6-9.6-0.5-1.5 1.2-0.4 3-1.1 4 0.5 0.3 0.2 0.9 0.3 1.5 1.3-1.4 2.6-3.6 4.2-4.5 0.5 0.7 1.7 1.1 1.2 2.2-2.1 2-3.3 6-6.6 5.4-0.5-0.2-1.2-0.8-1.7-0.1-0.1 0.7-0.1 1.4 0.5 1.9 3-1.9 6.6 0.8 9.4 2.5 2.2 1.2 2.2-1.6 3.2-2.7 2.3-3.6 6-7 10-9.5 2.2-1 4.7-2.3 5-5 1.6-2 1.3-5.5 1.3-7.6 2.2-0.6 1.3 2.4 2.2 3.5 0.9 7.4-5.6 11.9-11.1 14.9-5.8 4.7-6.4 12.7-5.2 20 0.9 3 3.5 5.4 4.5 8.4 2.8 1.4 0.8 3.9 1.9 5.9 2 9.6 9.4 18.1 18.6 21.6 8.2 3.9 11.6 12.4 13.4 20.3 1.5 3.5 5.7 2.3 8.4 3.9-1.6 2.6-6.2 1.5-8.9 1.1-7.2 5.2-14.7 10.4-21.8 15.2-4.6 2.1-8.2 6-13.4 7.3-8.7-1.7-13.4 10.2-22.5 4.9-2.9 0.1-6.4-1.5-7.9 1.8-2.4 5.2-4.3 11.3-6.2 16.8 1.7 1.9 4.5 2.4 7.1 2.7 6.3-0.2 16.5 2.4 19.8-5 0-2.2 1.9-3.7 3.3-5.2 2-0.3 3.6 0.4 5 1.8 0.7 1.5 1.5 2.8 1.2 4.6 2.9-1.1 1.1-4.9 2.7-7.4 2.2-0.4 1.7 2.7 3.2 2.8 0.4-1.2-0.8-3.6 1-4.4 2.4 0.7 0.7 3.6 2.2 4.9 1.2 0.3 0.4-1.1 1-1.5 0.8-1.8-0.6-5 1.2-5.9 2.6 1.2 2.1 4 2.5 5.9 1.5-0.5 1.4-2.1 2-3.2 1-1.4-0.9-3.1 0.7-4.3 3.6 0.6 0.2 5.2 3 6 1-0.6 1.1-1.9 2-2.8 1-1.9 1-4.4 2-6.3 2.4 0.5 1.4 5.3 4.2 3.9-0.1-3.5 1.9-5.9 4-8.2 9-8 18.8-14.3 28.6-21 1.7-2.2 1.2-5.5 0.6-8.2-2.3-0.7-3.2-3.7-4-6-1.1-2.3-1.8-5.3-2.2-8.3-2.3-7.9 2.2-14.6 6.9-20.1 6.7-11.8 12.6-24.4 12.2-39.3-0.2-0.9-2.3-1.8-0.5-2.5 1.5 0.8 2.9 3.1 3.9 4.2 2.3-0.1 5.4 0.4 7.2-1.7 0.8-1.5 4.1-3.4 1.4-5 2.5-2.1 3.1-4.5 4.6-7.2-0.3-0.8-1.9-0.6-1.8-1.7 0.1-0.3 0.4-0.3 0.7-0.3 3.4-2.1 5.4-6.4 5-10.6h-0.5c-0.6 2.5-1.9 4.6-4.3 6-2.7-1.4 1.4-3.4 0.9-5.5 0.1-6-0.9-12.8 2.9-17.6-3.3-0.4-4.5 3.4-5.9 5.4-2-0.4-1.3-2.8-2.8-3.6-2.4-8.5 9.6-8.8 9-16.2h-0.7c-1.6 1.8-4.7 3.6-7.3 4.5-1.6 0.7-2.5 2.6-4.2 2.5-0.8-0.1-0.7-1.1-0.7-1.7 1.7-3.7 5.5-5.5 9.2-6.2 1.3-1.2 2.7-2.8 2.1-4.5-0.6 0.2-1 0.9-1.2 1.5-5.1 3-13.8 0.6-16.8 7.5-1.2 0.4-1.2-0.8-1.8-1.1 0.5-1.7 1-3.5 2.3-4.9 4-3.8 9.9-3 14.8-4.5 1.3-1.3 3.1-2.4 2-4.7-7.9 6.9-18.3 1.5-27.8 1.8-1.8-0.9-3.8 2.7-4.9-0.3 3.7-3.1 9.8-2.4 14.1-1.5v0.3c5 0 10 1.1 14.4-1.1 3.8-1.8 4.1-5.9 4.5-9.5-0.6-2-1.7-3.4-3.5-4.6 0.2-1 1.6-1.9 2.5-2.9 2.5-2.1 1.4-6.5 1-9.1-0.3-1.1-1.3-2.5-2.3-2.5-6.4 5.7-14.7 1.6-22.4 2.2-1.2 0.7-2.3-0.1-2.5-1 6.6-4.3 16.7 1.1 22.7-4.2 2.9-2.7 1-7.1-0.2-9.9-0.2 0.1-0.5 0.6-0.8 0.5-0.3 2.1-2.1 3.9-4 5-2.1 0-4.7 3.2-6.4-0.4 0.5-1.2 1.8-0.5 2.7-0.7 1.9-0.6-0.3-1.7 0.3-2.4 3-6.5-1.8-14.6 2.2-20.4 1.7 1.2 3.5-0.8 5.2-1.2 0.1-0.9-0.6-1.6-1.2-2.2-1.2-0.7-3.1-1.5-4.4-0.5-7.7 4.3-1.1 13.4-3.7 20.5-1.8 5-7.4 4-11.5 4.8-13.7 2.5-8.8 18.3-11.6 28.1-0.7 9.7-4.2 20.1-0.8 29.5 3.1 6.2 10.1 7.3 16.1 8.7 5.3 2.3 11.3 7.9 11.7 13.8 0.9 5.8 0.4 11.3-0.5 17-1.5 2.1-3.2 4.3-6.2 3.9-2.7-0.9-3.7-3.8-4.7-6-5.2-17.6-21.6-30-35-42.1-7.4-6.5-12.7-16.3-9.3-26.2 1.4-2.4 4.3-4.9 7.2-4.7 1.9 0.5 3.6 1.2 4.9 2.9 0.7 1 0.7 2.7 1.7 2.8l0.3-3.3c0.1-2.5-1.8-3.5-3.2-5.3l0.2-0.3c2.4-0.9 4.1 1.3 6.4 2.2v-1.2c-0.4-1.9-1.5-4.3-3.9-3.7-4.3-0.8-6.2 4.2-9.7 4.6-2.9-1 0.3-3.1 0.3-4.6 1.7-2 1.9-5.5 5-6 2.5 1.4-0.8 3-0.3 4.7 2.1-1 4.8-1.2 7.2-0.7 1.3 0.5 2.1 1.8 3.7 2.2 1.8-3.2-2-3.9-3-5.9 0.3-0.5 0.7-0.6 1.2-0.5 0.3-0.1 0.6 0.2 0.5 0.5 1.8-0.1 2.5 1.6 3.9 0.9 0.4-1.3-0.1-2.5-1.2-3.2-1-0.3-2-1.5-2.9-1.7-2.8-0.3-4.3 2.3-6.7 3-1-0.6-1.6-1.2-1.5-2.5 2.1-2.8 3.6-6.3 6.5-8.9 1.1-1.5 2.3 0.4 3 1.3-0.9 1.4-3.3 3.8-3 4.9 1.1-0.2 1.8 0 2.7 1.3 2.3-0.5 3.9 0.6 5.4 0.9-0.4-2.5-3.2-3.6-4.9-4.5-0.1-0.5 0.1-0.9 0.5-1.2 0.9 0 2.2 0.1 2.7 0.7h2.4v-0.2c2.1-3.2-2.5-3.6-3-6 2.9-1.3 3.7 1.6 6 1.3 0.4-1.8-0.4-2.5-1.4-3.4-1.8-0.4-2.9 0.4-4 1.4-1.2-0.2-3 0.6-3.4-0.7 0.9-3.9 4.4-6.7 6.2-10.6 1.9 0.7 2.6-1.4 4.1-1.8 3.2-0.5 6.2-0.5 8.4 2v-1.1c-1-1.4-1.6-3.8-3.7-4.1-1.7-0.8-3.9 0.1-4.4 2-4.6-2.3 1.4-5.9 0.5-9.4 1-1.8-0.4-5.1 2.2-5.8 3.9 3 0 7.5 0.5 10.7 1.1-1.5 2.1-0.3 3.5-0.3 1 0.1 2.1 2.9 3.4 1.6l-0.2-0.9c-0.7-1.1-1.6-3.2-3.2-2.6-0.8-0.1-2.1-1-1.6-2 2.5-1 5.8-0.1 7.8-1.8 1.4-1.6 4.3-2.7 3.2-5.4h-0.7c0.2 1.8-1.8 2.2-2.8 3-3.1 0.3-6.1-0.2-8-2.5 1.7-0.9 3.8-0.3 5.8-0.5 2.1-1 4.4-3 4.1-5.5h-0.7c-2.3 3.2-7.6 1.9-10.1 5-2.8-0.8-0.9-4.1-1-6.2 1-2-2.1-4.4 0.7-5.2 3.6 0.8 1.8 5.2 2.3 7.5 2.7-1.2 5.1-1.6 7.2-3.8-1-0.2-1.9 1.2-3 1.1-6-2.3 2.9-2.7 2.2-5.8-2.8 0.5-5.1 1.2-7.9 0.3-2.7-0.7-1.4-3.8-2.5-5.3 0.3-1.1-0.8-2.8-0.8-3.9l-0.7-0.7c-0.6-1.5 1-0.9 1.5-1.7 3.7 2 2.9 6.3 4.5 9.6 6.2 1 5.5-9.7 11.6-7.7-2.2-3.5 1.8-9.7-3.5-11.86-3.5 1.26-6.6 4.36-10.4 4.26-0.8-0.3-1.9-1.4-2.2-2 3.6 0.3 6.8-2.14 9.1-4.72 1.3-1.24 5 0.7 4.3-2.5-0.9-2.38-2.1-3.6-4.3-4.94-3.5-0.93-5.6 1.34-8.1 3-0.9 0.82 0 2.89-1.8 3-0.6-2.89-1.4-5.59-3.7-7.75 0-5.37 2.7-11.15-2.2-15.07-1.1-0.4-1.4 0.62-1.2 1.44 5.9 4.64-0.9 9.81 2 15.6 0.6 1.43 2.7 2.88 1.7 4.22-2.3-0.11-4.4-3.3-5.3-5.16-0.1-3.81 0.1-7.55 2.1-10.44 0-0.83-0.1-1.83-0.8-2.25-0.8 1.66-2.6 2.98-2.7 4.94-0.4 1.24 0.9 2.38-0.2 3.31-5.7-3.1 0.5-8.37-0.8-13.22-0.8-1.03-1.2-2.88-2.7-2.47 3.7 3.92-1 8.58-0.3 12.19 0.6 1.03 0.7 1.73 0.8 2.97-0.8 0.83-4.2-5.29-3.2-9.03 1.1-4.25-0.8-7.36-2.7-6.97-0.5-0.41-4-0.67-3.7 0.5 3.1 0.39 4.5 4.6 4.1 5.69 0 3.22-3.1 2.5-3 2.84 1.3 2.84 5.5 7.8 5.7 8.44-0.2 2.57 0.9 5.56-1.6 7.22-0.8-0.11-1.7 0.2-2.3-0.32 3.7-9.38-7.9-14.66-10.9-22.5-1.2-2.16-1.5-4.72-3.7-6.37-0.2-0.01-0.3-0.04-0.5-0.03zm1.3 3.94c1.3 1.95 2.2 4.13 2.9 6.4 2.6 4.23 7 7.83 8.7 12.16 0.4 1.24-0.5 2.18-1.3 2.69-0.9-0.2-2-1.23-2.2-2.16v-1.56c-3.3-5.06-6.7-9.61-8.4-15.28l0.3-2.25zm7.9 1.87c-0.5 0.01-1 0.14-1.5 0.41 0.3 0.82 1.4 1.23 1 2.47 1.7 1.23 2.9 3.59 4.4 4.62 1-0.83 0.4-2.27 0.6-3.41-0.8-1.92-2.5-4.11-4.5-4.09zm-21.1 18.13c1 1.34 2.5-0.92 3.5 0.53 5.3 3.3 3.6 9.68 8.1 13.11-1.1 0.8-2.1-0.4-3.2-0.7-1.3 1.9-3.6 2.3-5.6 3-0.5-1.2-2.5 0.2-2.3-1.5 1.5-0.7 3.3-0.6 4.4-2.1 0.4-1.21-0.4-2.02-1.2-2.84-1.2-0.31-2 2.48-3.2 0.93-0.9-1.54-1.2-3.61-0.7-5.47 0.2-0.41 0.7-0.63 0.5-1.24-3.3-1.35-4.3 6.71-8 3 0.4-0.73 1.4-0.53 1.8-0.22 2.2-2.07 2.8-5.47 5.9-6.5zm-18.6 0.06c1.7-0.06 3.4 0.06 5 0.25 1 0.31 2.4 0.1 2.8 1.44l-0.6 0.53c-5.1-0.62-9.5 0.09-14.6 0.5l-0.4-0.5c2.2-1.55 5-2.13 7.8-2.22zm-16.9 1.47c1.4 0.02 2.6 0.7 3.3 1.78 0.8 2.16-1.9 2.36-2.9 3.19-1 0-2.1 0-2.8-0.72-0.1-1.24 1.3-0.81 1.8-1.53 0.7-1.24-1.5-2.07 0-2.69 0.2-0.03 0.4-0.04 0.6-0.03zm55.8 5.19c0.7 0.2 0.7 0.51 1.2 1.03-0.6 2.16-3.5 4.79-0.9 6.89 0.4 0.2 0.1 0.9 0.2 1.3-1.3 0.2-3.1-0.2-4.2-1.5-1.1-1-1.6-2.67-0.9-4.01 0.5-2.16 2.9-3.1 4.6-3.71zm33.9 0.59c0.2 0.01 0.5 0.06 0.8 0.12l0.5 1.03c-2.6 1.03-3.3 4.38-6.2 4.98h-2.7c-1.1 1.6 2.5 3.8-0.5 4.9-1 0-1.8-0.7-2.5-1.4-1.2-3.7-4.6-6-6.5-9.51 3.8-0.72 5.9 3.31 8.3 5.51 3.5-0.72 5.1-5.85 8.8-5.63zm-23.2 0.34c0.4 0 0.8 0.22 1.2 0.81-1.1 1.14-2.6 2.06-2 3.88 1 1.6 0.7 3.7 1.6 5.3l3.4 6.7c-0.3 0.4-0.9 0.7-1.3 0.2-2.7-3.8-9.2-7-6.7-13.39 0.6-1.31 2.4-3.49 3.8-3.5zm-33.9 0.1c0.9 1.44 1.9 3.41 3.4 4.99-0.7 0.9-1.9-0.2-2.7-0.56-1.1-1.02-1.4-2.38-1.7-3.72l1-0.71zm60.6 6.69c0.6 0 1.3 0.3 1.7 1.2 0 1.4-1.6 0.2-2 1.3-1.9 2-4.4 2.9-7.4 2.5-0.3-0.3-0.5-0.9-0.9-0.9 0.7-0.9 2.8-1.1 4.1-1.6 1.3-0.9 3-2.5 4.5-2.5zm-98.9 3.2c-2.4 0.1-5 0.9-7.5 0.9-0.9-0.3-2.7-1.4-3.3 0-0.7 0.8 0.2 1.4 0.3 2.1 3.6 1.3 7.7-0.6 11.3 0.7l0.8-0.5c0.2-1.6-1.7-0.1-2-1.4 1.2-0.7 3-0.9 4.2-0.9v-0.4c-0.9-0.3-1.8-0.5-2.7-0.5h-1.1zm100.7 0.2c0.6-0.1 1.3 0.1 2 0.7 0.9 2.3-1.8 0.9-2.3 2.1-1.7 1.4-3.7 2.8-6.4 2.2l-2.3-1.5c0.9-1.2 3.9 0.5 5-1.5 1.3-0.3 2.6-1.8 4-2zm-79.3 2.9c0.9 0 1.9 0.3 2.2 1.4 0.3 0.8-0.7 0.6-1 1-1.1-0.5-2.7 0-3.4-1.6 0.3-0.4 1.2-0.8 2.2-0.8zm62.1 2c0.6 0.1 0.9 0.7 1.3 1.1-0.8 3.3-4.7 4.4-7.4 5.9-0.6-0.3-0.5-1-0.5-1.5 2.5-0.8 4.3-3.6 6.4-5.4 0.1-0.1 0.1-0.1 0.2-0.1zm-63.1 2.5c0.9 0.1 2.1 0.6 3 0.6l0.5 1v0.2c-1.8 0.7-3.5-0.2-5-1 0.4-0.6 0.9-0.8 1.5-0.8zm64.7 1.5c0.8-0.1 1.2 0.6 1.7 1-1.7 3-5.3 5.3-8.5 5.7-0.4-0.3-0.5-0.7-0.4-1.2 2.7-0.8 4.8-3.3 6.9-5.4 0.1 0 0.2-0.1 0.3-0.1zm-209.7 2.8c1.9 0.9 0.3 3 0.4 4.7-2.2 6.4-8.5 11.6-15 12.8-0.9-0.1-1.1-1.1-1.3-1.4 1-0.6 2.3-0.9 3.5-1.1 5.6-3.5 10.1-9.3 12.4-15zm227 0.2c-0.9 0-1.7 1.8-0.3 2.2 0.1-0.7 1-1.4 0.3-2.2zm-102.3 1c-0.7 1.8 2.6 2.1 2.5 0.2l-2.5-0.2zm85.2 1c0.3 0.4 2.1 0.7 1.5 2-1.8 2.2-4.3 2.6-6.2 4.4l-1.5-0.5 6.2-5.9zm1.7 5l0.8 1.2c-1.4 3.5-5.5 4.6-7.9 6.6-0.6 0.6-1.2 0-1.6-0.4 3.1-1.9 5.4-5.6 8.7-7.4zm-204.3 1.2c0.5-0.1 0.7 0.5 1.1 0.7-2.8 7.4-8.8 15.5-17.4 16.4-0.4-0.4-1.3-0.4-0.9-1.3 7.1-2.7 14-8.8 17-15.8h0.2zm204.2 5c0.3-0.1 0.7 0.1 0.9 0.7 0.8 2.8-2.5 3.8-4 4.9-1.6 0.3-3.3 2.2-4.7 0.8 1.5-2.1 4.8-2.7 6.2-5.5 0.3-0.1 1-0.8 1.6-0.9zm-198.1 3.8c0.7-0.1 0.7 0.9 0.9 1.4-1.3 6.9-8.3 12.7-14.8 14.8-1.4-0.2-2.6 0.6-3-0.7 6.5-2.8 13.2-8.8 16.6-15.4 0.1-0.1 0.2-0.1 0.3-0.1zm196.7 3.1l0.5 0.7c0.4 2.5-3.3 3.5-5.2 4.5-1.4 0.3-3.4 1.1-4.7-0.3 1-1.1 2.4-0.8 3.4-1.5 2.1-1.1 4-2.6 6-3.4zm-140.4 3.4l-11.3 6c-2.6 0.6-4.7 2.3-6.7 4.2-0.1 0.9 0.4 2.1-0.5 2.7 0.2 8.9 1.8 16.9 0.5 25.8l-0.5 0.7c0.3 6.7-3.2 14.4 3 19.3 1.1 6.8 8.9 8 13.6 11.6 1.2-0.1 2.6 0.5 2.7-1.2 1.6-5.2 1.1-12.7 0.5-18.6-1.3-1.4-3.1-1.3-4.7-1.9-0.4 0.8-1.3 0.3-2 0.5-1.7-1.2-1.9-3.1-1.7-4.9 0.1-1.4 1.5-2.3 2.5-3-0.9-3-2.3-5.8-2.8-9-0.6-1.8 0.3-4.2-0.7-5.9 0.5-2.9 0.5-7 3.5-8 6.3 4.5 7.2 12.8 9.6 19.7 0.2 1.6 0.4 3.8 1.7 4.6 3.3-2.7 6.6-4.7 10.2-7.4 1.8-2.5 5.1-4.5 5.2-7.4-5-4.2-10.1-9.9-12.9-15.8-2.4-4.6-3.8-10.5-9.2-12zm-49 2c0.5-0.1 0.7 0.5 1.1 0.8-2.2 6.7-7.2 13.3-14.4 14.8-1.8 0-4 2.2-5.4 0 1.2-0.7 2.4-1.7 4.2-1.5 5.6-3.7 11.5-7.6 14.3-14 0.1-0.1 0.2-0.1 0.2-0.1zm187.5 0.5c1.5 0.6 0.5 2 0 3-2.8 2-6.1 3-9.4 3.7-0.5-0.2-1.4-0.7-1.2-1.3 3.9-0.8 7.2-3.1 10.6-5.4zm-248.3 3.3l0.5 0.4v0.8c-11.2 5-18.6 16.3-20.7 28.2-0.6 0.3-0.8-0.5-1.2-0.7 0.7-8.6 3.7-16.8 9.7-22.5 3.5-2.5 7.1-5.8 11.7-6.2zm244.6 2.9h1.2c0 0.5 0.5 0.7 0.7 1-2.2 4.2-7.6 4-11.8 5-0.8 0.2-1.1-0.7-1.6-1.1 3.9-1.4 7.9-2.6 11.5-4.9zm-175.6 1c0.5 0.1 0.8 0.6 1.2 1-1.9 9.2-11.7 14.6-19.8 16.3-1-0.3-2.9 0.7-3.2-1 0.3-0.9 1.9-0.1 2.5-0.7 8.3-1.8 14.8-8.4 19.3-15.6zm209.2 0v2.3c0.9-0.3 0.4-1.6 0.5-2.3h-0.5zm-170.5 0.2l0.9 1c-0.7 3.9-5.5 3.3-8.4 4.8-0.8-0.4-1.4-1.1-1.5-2.1 0.6-0.4 0.9-0.4 1.5 0 2.9-0.1 4.8-3 7.5-3.7zm147.2 2c-2-0.1-4.4 1.5-5.7 2.8-0.3 1.9-1.5 3.5-2.5 5.1h0.3c1.4 0.1 4.2-0.4 5.2 1.8 2.5 0 0.8-3 1.9-4.3l-2.6-2.6 0.7-0.8c1.2-0.4 1.3 0.8 2.3 0.5 1.2 1.2 2.3 2.5 3 3.8 0.4-1.3 0.1-2.7 0.2-4.1-0.6-1.6-1.6-2.2-2.8-2.2zm-12.4 2.4c0.3 0 0.7 0.2 1 0.6-0.1 1.7-1.6 2.7-3 3.7-3.5 1.1-7.8 1.9-11.5 1.2l-0.5-0.4c2.5-1.2 6.3-0.8 8.8-2.5 2.1 0.3 3.6-2.5 5.2-2.6zm-66.7 0.3c0.8 0 1.8 0.2 2.4 0 0.6 0.9 2 0.6 2.7 0.3 0.2 0.4 1 0.6 0.7 1.2-2.1 1.6-4.1-0.7-6.7 0-0.2-0.1-0.3-0.5-0.7-0.4 0.2-0.9 0.8-1.1 1.6-1.1zm102.4 0.6c0.3 4 0.6 8.6-0.2 12.6 0.5-0.2 0.9-1.2 1.4-1.8-0.4-3.6 1.1-8.3-1.2-10.8zm-167.6 1.2c2.9 2.9 5.2 6.6 7.2 10.1 0.3 3.3 4.3 5.4 3.2 9-1.2 0.1-1.8-1.4-2.7-2.1-2.4-4.9-5.1-10.9-8-16.3l0.3-0.7zm60.2 0.6c1.3 0.1 2.8 0.4 3.9 0.1 0.3 1 1.4 0.3 2 0.5 0.4 0.6 1.4 0.9 1 1.8-2.8 1.2-6.5-0.2-9.4-0.8 0.2-1.4 1.2-1.6 2.5-1.6zm-71.6 3.9c0.7 0.2 1.7 1.2 1 1.9 0.3 5.2 0.5 11.2 1.7 16.4-0.8 1.2-1.9-0.3-2.5-0.8 0.4-0.8-0.9-1.6-0.4-2.7-0.7-4.6-1-10.4 0.2-14.8zm73.8 0.4c0.6 0.5 1 1.2 0.5 1.8-2.9 3.4-6.9-0.5-10.4 1.4-0.2-0.3-1.7-0.5-1.3-1.4 2.8-1.9 6.5-1.9 9.2-1 0.5-0.5 1.3-0.5 2-0.8zm64.2 0h0.7l0.7 0.8c-2.2 4.4-7.7 3.7-12.1 4.4-0.6-0.1-1-0.8-1.5-1.2 0.9-0.9 2.3-0.3 3.5-0.8 3.2-0.3 5.7-2.9 8.7-3.2zm-73 5.7c1.6 0 3.2 0.2 4.5 0.5 0.1 0.6 0.9 0.9 0.6 1.5-3.3 1.2-8.4 0.6-11.9 1.5-1.9-2.1 1.7-1.5 2.3-3 1.3-0.3 2.9-0.5 4.5-0.5zm68.7 0.5c0.4 0 0.7 0.2 0.7 0.8 0.4 2.6-2.6 2-3.9 3.2-2.1-0.1-4.7 0.4-6.2-0.6 2.5-1.2 5.6-1.9 8.2-3.4 0.3 0.1 0.8 0 1.2 0zm31 4.8c1-0.1 2.1 0 3.2 0.2l0.5 0.9c-2.6 1-5.7 1-8 3-1.2-0.3-0.7-1.3-0.5-2.1 1.3-1.4 3-1.9 4.8-2zm-103.3 0.1c0.3 0 0.7 0 1 0.1 1.6 1.7 3.9-1.6 4.5 1.8-4.3 3-10.8 1-14.7 5.1-0.5-0.6-1.3-1-0.4-1.7 1.8-1.4 3.9-4.4 6.9-4.3 0.8-0.5 1.7-0.9 2.7-1zm69.3 1l0.3 0.9c-0.2 2.1-2.1 2.7-4 3.1-2.5 0.2-5 0.7-7.6 0.6l-1.1-1.1c1.2-1.2 3.6-0.6 5-1.4 2.9 0.1 5-1.9 7.4-2.1zm-91.8 1.6l0.7 0.9c-1.7 4-6.6 7.4-9.7 10.9-0.6-0.4-1.2-0.5-0.9-1.4 3.3-3.5 6.2-8.1 9.9-10.4zm-111.4 4.6c0.4 0 0.6 0.5 1 0.8-5.9 5.9-6.9 13.8-8.6 21.3-2.3 0.2-1.1-3-1.1-4.2 0.9-6.8 2.4-14 8.7-17.9zm197.9 0.3c0.5 0 1 0.2 1.4 0.7-1.9 3.6-6.4 3.8-10.2 4.3-1.3-0.4-2.4 0.9-3.2-0.6v-0.4c3.9-1.2 8-1.6 11.4-4h0.6zm-28.6 0c0 0.4 0.5 0.6 0.8 1l-3.5 3c-5.2 0.4-10.4 0.7-14.3 4.2l-1.6-0.8c0.3-2.7 3.3-3.8 5.3-4.9 4.6-0.5 9.1-0.9 13.3-2.5zm71.2 3.8c0.6 0 1.1 0.1 1.6 0.2v0.3l3.5 0.1v0.3l3.4 0.3v0.2c2.3-0.2 3.5 1.4 5.7 0.5l1.5-1.3c0.3 0.5 1.6 1.2 0.8 2-4.8 3.4-11.4 0.9-16.6 0.3-3-0.2-5.9 0.1-8.7 0.7l-0.5-0.7c2.6-1.8 5.8-3 9.3-2.9zm-45.2 1.2c0.6 0 0.9 0.6 1.2 0.9-1 3.4-5.3 3.6-8.1 4.7-1.6-0.2-3.6 1.6-4.7-0.5 3.6-1.5 7.8-2.9 11.4-5.1 0.1 0 0.1-0.1 0.2 0zm-84.6 0.2c1.1 0.4 1.4 1.5 0.7 2.8-2 2.2-4 4.6-6.5 5.9-0.3-0.3-0.5-0.8-0.9-0.8 1.7-2.9 4.6-5.6 6.7-7.9zm131.9 5.7c1 0.7 2.8 0.7 4.3 1 1 1 3.3-0.1 4.6 1 1.6 0.9 3.8-2.2 4 0.7-3.5 1.1-8.6 1.4-12-0.3-4.4 0.4-9.4-0.8-13.3 1.1-0.3-0.6-1.5-0.9-0.7-1.5 3.4-2.9 8.6-1.7 13.1-2zm-50.6 1.4c0.6 0 1.1 0.1 1.1 1-2 2.5-5.3 3.8-8.5 4.6-0.7-0.1-1.1-0.7-1.7-1.3 2.5-1.4 5.1-2 7.2-4.2 0.5 0.1 1.3 0 1.9-0.1zm10.2 0.7c-0.1 0.1-0.3 0.1-0.4 0.1-1.3 1.1-3.4 1.6-3 3.2 1.7-0.4 3.3-2.3 5.5-1.2v-0.5c-0.3-0.9-1.1-1.6-2.1-1.6zm-126.6 3c0.9-0.1 1.2 0.7 1.7 1.4 0.1 0.4-0.3 0.7-0.6 0.9-0.6-0.4-1.2-0.5-1.7-1.3l0.2-0.9c0.2 0 0.3-0.1 0.4-0.1zm160.9 0.8c2-0.1 4 1.1 6.3 0.6 0.6 0.8 1.9 0.2 2.8 0.5v0.2c2.9 0.4 5.4 0.4 7.8-0.7 0.7 0.4 1.2 1.1 0.6 1.7-7.3 3.7-15.8-2.2-23.2 1.2l-0.9-0.8c1.2-1 2.5-2.8 4.6-2.1 0.7-0.4 1.3-0.6 2-0.6zm-161.1 3c0.9 0 1.7 0.5 2.3 1.3 0 0.4-0.4 0.6-0.7 0.9-0.9-0.2-2.5-1.5-2-2.2h0.4zm181.8 1.3l0.8 0.7c-0.9 1.7-2.1 2.7-3.7 3.7-8.3 2.5-16-3.9-24.1-0.2l-0.7-0.8c2.9-2.6 7.4-2.2 11.6-2.2v0.2c5 0.6 11.7 3 16.1-1.4zm-182.2 1.6c1.2-0.1 1.6 0.7 2.3 1.6 0.1 0.4-0.3 0.7-0.6 1-1.1-0.5-2.4-0.9-2.2-2.5 0.2 0 0.3-0.1 0.5-0.1zm115 3.5c0.9-0.1 1.1 0.6 1.6 1.2-1.1 2.5-3.7 4.4-6.4 4.8l-0.6-0.7 5-5.3h0.4zm2.8 4.8l0.8 0.9v1.2l-7.2 4.6c-0.5-0.2-1.6-0.3-1.2-1.3 2.6-1.5 4.8-4.2 7.6-5.4zm46.1 2.7c0.5 0.1 0.8 0.6 1.2 1v0.5c-2.8 0.6-6.5 0.4-7.7 3.2-0.4 1.3-1.1 3.1-0.2 4.4-0.3 0.4-1 0.1-1.4 0.2-1.8-1.3-1.9-3-1.6-4.9 2-3 5.9-4.4 9.7-4.4zm-44.4 1c0.6-0.1 1.1 0.8 1.6 1.2-1.9 2.3-4.7 5.3-7.9 5.9l-0.8-0.7c2-1.9 5.1-4.1 7.1-6.4zm-96.2 4.6c2.3 1.2-0.2 2.7-0.3 4.1-1.2 1.3-2.4 3.3-4.2 3.7-0.3-0.4-1-0.9-0.8-1.6 2-1.5 3.6-4.2 5.3-6.2zm8.4 0c4.7 1.3 9.5 2.4 13.9 4.8 3.6 1 5.1-2.9 7.8-4 1.7 0.7 0.2 1.9 0 2.7-0.7 1.1-2.7 2-2.1 3.2 2.8-1 5.4-2.8 7.9-4.9l0.9 1c-1.1 2-3.5 3.7-4.2 5.7 3.4-0.3 6-3.3 8.2-6 2.1 0.7 0.1 2.5-0.3 3.5-0.8 1.4-3.5 2.6-2.6 3.9 2.4-1.3 4.4-3.6 6.4-5.1 1.4 2.8-2.8 4.8-3.2 6.9 2.4-0.3 3.5-2.5 5.6-3.4 2.3 2.6-4.1 3.3-2.1 6.4-3.4-0.6-5.8-3.1-9.2-3.2-10.6-1.3-17.7-8.2-27.8-10.7-0.3-0.9 0.7-0.2 0.8-0.8zm132.2 6.5c1.8 0.8 1.6 3.6 2 5.2-1.3 0.1-1.9-1.4-2.7-2 0.2-1.1-0.6-2.6 0.7-3.2zm-4.7 0.2c2 0 1 2.6 1.9 3.7-1.2 1.1-2.4-0.7-2.9-1.4-0.2-1 0.2-1.6 1-2.3zm-289 1.3c0.4-0.1 0.8 0.1 1 0.7-2 8.8-10.6 13.4-18.22 15.9-0.62-0.2-1.76-0.2-1.25-1.3 6.67-2.4 13.97-7.3 16.87-14.1 0.4-0.5 1-1.2 1.6-1.2zm151.3 1.7c3.1 2.5 6.4 5.7 9.4 8.9v1h-1l-8.4-8.5v-1.4zm150 4.9c0.1 0 0.2 0 0.4 0.1 1.2 1.5 2.3 3 4.1 3.9 0.2 0.8 1.8 1.7 0.5 2.3-2.6-1-3.8-2.9-5.7-5-0.1-0.5 0.1-1.4 0.7-1.3zm-295.5 1.5l0.5 0.8c-3.4 7.8-11.6 13.4-19.39 15.1l-1.25-1.2c7.34-3.3 14.74-8.2 20.14-14.7zm264.9 1l0.9 1.1c-1.1 2.1-3.3 3.5-5.1 4.9-0.7 0.1-1.9-0.4-1.6-1.2 2.3-1.2 3.5-3.5 5.8-4.8zm2.7 3.2c0.5 0 0.9 0.4 1.2 0.8-0.7 2.9-3.9 4-6 6-0.5 0-1.1 0-1.4-0.6 1.6-1.7 4.2-4 6-6.2h0.2zm-64.4 2.5c0.7-0.1 1.4 0.2 1.8 0.8-0.9 2.3-3.7 3.2-5.7 4.5-3.5 0.1-7-0.8-8.5-4 0.9 0.3 2.4 0.5 3.5 0.7 2.8-1 7.1 1.3 8.9-2zm67.4 0.2c0.8-0.1 0.8 0.9 1.2 1.4-0.3 2.6-2.9 3.5-4.7 5.1-2 0.4-3.4 3.3-5.5 2.3v-1c3.1-2.1 6.6-4.4 8.7-7.7 0.1 0 0.2-0.1 0.3-0.1zm-266.7 1.1c0.5 0.4 1.9 0.9 1.1 1.9-4.2 7.1-11 12.5-18.9 13.4-0.3-0.2-0.5-0.7-1-0.7 0.6-1.7 2.6-1.5 3.9-2.2 6.2-2.3 10.7-7.6 14.9-12.4zm269.4 3c0.6 0.4 1.6 0.9 2.2 1.7-0.8 2.2-3.5 3.1-5.2 4.7-2.3 0.7-4.3 3.9-6.6 2.7 1.6-2.4 4.7-3.5 6.9-6l2.7-3.1zm-67.2 0.7c0.4-0.1 0.9 0.1 1.3 0.7-2.1 2.5-5.1 5.5-8.9 4.2-1.5-0.3-2.1-2.1-3.2-3 2-0.2 4.2 1.7 6.7 0.3 1.6-0.1 2.8-2.1 4.1-2.2zm-196.9 3c0.5 0.4 0.8 1 0.7 1.7-4.3 7.1-11.9 12.6-19.8 13.8-0.4-0.4-1.1-0.9-0.5-1.4 6.9-3.7 13.8-8 19.6-14.1zm267.6 0.2c0.6 0 1 0.6 1.4 2-3.5 3.3-7.3 6.1-11.7 7.7-0.2-0.2-0.3-0.7-0.7-0.6 0.9-2.2 3.8-2.2 5.5-4.2 1.5-0.7 3.9-5.2 5.5-4.9zm-106.5 1.9c0.5-0.1 1.2 0.4 1.2 1.1 0.1 0.3-0.2 0.6-0.5 0.5-0.7 0.2-1-0.3-1.4-0.7 0-0.5 0.3-0.8 0.7-0.9zm39.1 0c0.4 0 0.7 0.2 1 0.6-0.5 1.8-2 3.6-3.7 4.5-2.8 0.5-5.8 0.3-7.7-1.8v-0.7c2.4 1.3 4.6-0.4 6.9-0.5 1.1-0.4 2.4-2 3.5-2.1zm69.7 2c0.8-0.1 1.3 0.7 1.6 1.3-0.3 1.6-2.4 3.3-3.9 4.3-2.2 0.9-4.3 3.7-6.5 2.9v-1c3.2-2.1 5.6-4.5 8.4-7.4 0.2-0.1 0.3-0.1 0.4-0.1zm-107.1 0.3c0.7 0.2 1.5 0.5 1.7 1.2-0.6 1.2-1.7 1.2-2.5 0.3-0.2-0.5-0.1-1.5 0.8-1.5zm41.1 1.8c0.9 0 1.7 1 1.3 1.9-0.9 2-3 3.1-4.8 4-2.3-0.5-4.2 0-5.7-2v-0.8c0.6 0 1.9 0.1 2.5 0.8 2.3-1.2 5.3-1.2 6.7-3.9zm-38.9 0.6c0.5 0 0.7 0.6 1.1 0.8-1 2.1 2.4 2.6 0.2 4.2 0.7 0.6 1.3-0.2 1.7 0.8 0.2 0.7-0.3 1.1-0.7 1.5-0.9 0.2-1.6-0.3-2.3-1 1.4-1.2-2.3-2.7 0.3-3.8-0.6-0.3-1.2 0.2-1.7-0.7-0.3-0.9 0.4-1.7 1.2-1.7 0.1-0.1 0.2-0.1 0.2-0.1zm-13.8 0.8h0.5c0.7 1.7 4.5 0.6 2.7 3-1.3-0.6-3.4-0.6-3.9-2-0.3-0.7 0.1-0.9 0.7-1zm-145.6 0.5l0.8 1.1c-4.9 7.2-12.1 12.6-20.4 14.1-0.2-0.4-1-0.7-0.7-1.3 7.5-3.2 13.9-8.2 20.3-13.9zm267.1 0.5l1.1 1.5v0.8c-3.9 2.9-7.7 5.8-12.2 7.1l-0.7-0.7c4.4-1.9 7.4-6.4 11.8-8.7zm-325.8 0.6c-0.1 0.3 0.32 0.5 0.53 0.7-1.14 1.5-3.32 2.5-4.97 3.9-8.26 7.6-9.7 18.4-12.69 28.5-0.72 0.2-1.24-0.1-1.65-0.8 0.1-6.3 2.28-11.7 3.72-17.5 2.79-5.7 8.35-13.7 15.06-14.8zm327.4 3.7c0.6 0.6 1.6 1.5 1.6 2.6-2.9 2.4-6.5 4.1-9.9 6l-1.2-0.5c3.3-2.5 6.2-5.7 9.5-8.1zm-84.7 0.9c-2.3 8.1-12.7 9.8-15.4 17.8-0.2 4.2 0 8.3 2.7 11 1 6.8 6.2 12.4 11.7 16.8 1.7 6.8 8.5 10.8 11.8 17-0.7 1.7-0.3 3.6-2.2 4.8-13.4-0.4-26.6-2.8-39.6-4.8-4.1-0.7-10.1-1.4-14.3 0.3-4.3 3.8-9 5.5-14.5 6.4-4.2 3.8-5.5 9.7-7.6 14.9l0.2 1c6.2 2.2 13.6 2.1 20.4 2 5.9 0.4 5.1-6.4 7.7-9.7 1.7-3 5.3-2.8 8.6-2.7 2 1.5-0.6 3.2 0.2 5.1 0.6 1 1.2 2.7 2.3 2.3l-0.3-3.5c1-0.8 1-2.5 2.5-2.7 1.1 0.9 0 2.2 0 3.2 0.6 1.7 0.7 3.4 2.8 3.7 0.7-0.4 0.5-1.1 0.4-1.9 0.6-1.2 0.7-3.2 2.5-3.2 1.3 1.7-0.7 5 2 6.2-0.3-2.4 1.3-4.1 2.5-5.7 1.1 0.9 1.3 2.4 1.2 3.9 0.3 1 1.2 2.5 2.5 2.5 0.2-1.7-0.8-4.3 0.9-5.7 1.8 1 2.4 3.6 4.5 4.6 0.6 0 1.3 0.4 1.7-0.1l-0.2-1.5c3.1-2.9 7.3 1 11.2-0.3 7.2 0.8 14.4 2.4 21.5 2.8 2-2 1.7-4.8 2.9-7-2.1-4.9-4.4-11.2-1.6-16.5-4.1-5.6-7.8-11.7-8.5-18.9-3.4-5.7-7.5-9.2-6.9-16.5-0.5-2.2 0-5-0.5-6.7-3.6 0-6.2-4.1-9.9-2.5-1.4-0.4-2.9-1.5-3.2-2.8-0.3-4.4 0.2-8.7 1.4-12.6 0.6-1.1-0.8-1-1.4-1zm-177.6 1.7l0.6 0.6v1c-5.7 8-14.7 12.4-23.8 14.3-0.4-0.4-1.2-1-0.5-1.5 9.1-2.3 16.3-9.1 23.7-14.4zm263.7 2.5c1-0.2 1.1 1.4 1.8 2-0.4 1.4-4.3 2.8-1.8 4.7 0.7-0.2 1.4-1.4 2.3-0.7 0.7 0.6 0.7 2.3 0 3-1.1 0.1-1.9 1.3-2.1 2.5v1.4c0.8 0 1.9-2.7 3-1 2 4.2-4.7 3.2-3.2 7 0.8 0 1.7-1.5 2.3 0 0.7 2.8-5 3.6-2.1 6.1 0.9 2.8-4.8 3.6-1.6 6.2-0.8 2.7-3.6 4.6-4.1 7.7-3.2 2.9-2.5 7.3-6.6 9.9-1.7 2.7-3.9 5.7-5.4 8.7-4.8-2.7 2.2-5.9 2.7-8.7 0.2 0.1 0.3-0.1 0.5-0.3-2.1-1.2-4.2 0.4-6.2 0.5-0.3-0.3-0.8-0.8-1-0.9 3.8-1.8 8.6-2.1 11.1-5.8-2.2-0.5-5.1 2.3-6.9-0.4 0.7-1.3 1.7 0.4 2.5-0.5 2.5-2.1 6.9-1.6 7.6-5.5-2.5-0.9-5.3 2.9-7.4 0.2 3.6-1.4 8.2-1.9 10.2-5.8-2.6-1.4-5.1 2.6-6.9 0.1 2.9-1.3 6.2-2.9 8.1-5.6l-0.5-0.5c-2.2 1-5.1 3-7.2 1.5 3.1-1.9 7.7-3 8.6-6.7-2 0.1-4.3 1.3-6.3 2.3l-1.1-1.1c2.7-2.2 6.8-3.1 7.8-6.9l-0.8-0.7c-2.6 1.1-4.8 3.1-7.9 3.2l-0.7-0.7c3.1-1.6 5.9-3.9 8.6-6.2l0.2-2.1c-3-0.2-5.7 4.6-8.4 1.8 3.8-3 7.4-4.9 10.9-8.7zm-93.9 13.9c1-0.1 1.9 0.5 2.1 1.5-0.8 1-0.2 2.6-1.5 3.5-2.7-1.1-0.2-2.9-1-5h0.4zm19.4 7.9c0.6 0.7 1 1.5 1 2.5-2.6 1.9-5 4.6-8 5.6-0.5-0.3-1-1.1-0.4-1.6 2.6-2.4 5.3-3.9 7.4-6.5zm17.4 1c0.8-0.1 2.1 0.8 2.4 1.8 0.2 1.8-0.3 3.6-1.5 4.6-2.1-1 0-3.9-1.7-4.9-0.1-1 0.2-1.5 0.8-1.5zm-243.9 1.1l0.7 1.1c-8.14 6.8-10.73 16.5-10.62 26.5-2.37-1.8-0.6-5.8-1.53-8.4-0.21-3.6 1.33-7.3 2.47-10.4 1.85-3.6 4.74-7.8 8.98-8.8zm226.4 3.3c0.9-0.1 1.4 0.7 2.1 1.1v0.9l-7.2 5-1.8-0.5c1.8-2.1 4.8-4 6.5-6.4 0.2-0.1 0.3-0.1 0.4-0.1zm2.1 4c0.7-0.1 0.9 0.7 1.4 1 0.2 2.6-2.6 2.7-3.9 4.5l-7.2 4c-0.3-0.6-1-0.6-0.7-1.6 3.9-1.9 7.1-4.8 10.4-7.9zm1.8 4.5c0.7-0.1 1.1 0.5 1.6 0.9v1.1c-3.3 3.5-6.8 5-11.1 6.4-0.7-0.2-0.7-1.2-0.3-1.5 3.7-1.6 6.4-4.5 9.4-6.9h0.4zm2.1 3.9c0.9 0 1.5 0.8 1.8 1.5-1.3 2.6-4.4 3.9-6.7 5.4-1.9 0.2-4.1 3.8-5.5 1.1 3.7-2.3 7.1-5.9 10.4-8zm2 5l1 1c-0.4 2.7-2.5 3.3-4.4 4.7-2 0-4.3 3.6-5.7 0.5 3.2-2.1 5.8-4.3 9.1-6.2zm0.8 4.7c0.8-0.1 1.4 1 2 1.5-1.7 2.4-4.7 3.6-7.3 4.7-0.5-0.2-1.6-0.3-1.2-1.2 2.8-1.2 4-3.6 6.5-5zm2.5 4l0.7 1c0.3 2.7-2.9 3.4-4.4 4.6-1.2 0.1-2.5 2.1-3.5 0.3v-0.8c2.5-1.3 4.5-4.1 7.2-5.1zm1.6 3.5c0.7 0.2 1.3 0.8 1.6 1.4v1.2c-3.1 2.2-6.4 4.6-9.9 5l-0.8-0.7c3.1-1.6 5.1-4.3 8.2-5.7l0.9-1.2zm46.1 4.6c3.3 0.6-0.3 3.5 1.3 5.5 0.5 4.5 1.5 9 4.2 12.6-0.5 1.3-1.8 0.6-2.5 0.3-1.6-1.6-2.6-3.5-2.8-5.5-1.3-3.8-1.9-8.2-0.2-12.9zm-45.9 1c0.3 0 0.7 0.2 0.9 0.9-0.3 1.1-1.8 2-2.5 1.1-0.3-0.1-0.2-0.4-0.2-0.7 0.5-0.3 1.2-1.1 1.8-1.3zm-12.5 1.9c0.2 0 0.3 0 0.5 0.1 0.6 1.5 2.3 2.7 3.5 3.9 1.2-0.3 1.5 0.8 2.4 1.6l-0.5 0.5c-2.7-0.8-5.1-2.3-7.4-4.2-0.6-1.3 0.5-1.9 1.5-1.9zm-283.4 2.5c0.67-0.1 0.86 0.6 1.22 1.1-1.45 4.6-4.75 9-9.19 11.4-3.5 0.7-7.53 3.6-10.93 0.7 1.23-0.7 3.93 0.7 4.96-1.3 6.19-1.1 10.71-6.6 13.6-11.8 0.11-0.1 0.25-0.1 0.34-0.1zm231.7 2.2c0.3 0 0.7 0.5 1.2 1.6 0.1 1.4-0.9 2.1-2 2.7-1 0.2-1.9 0-2.4-1 1.8 0.2 2.3-3.4 3.2-3.3zm-20.9 0.3c1.2 1.7 1.7 0 3.2 0.6 0.3 0.6 0.7 0.6 0.5 1.4-0.9 0.4-0.7 2-1.9 1.6-0.4-2.7-2.4 1-3-1.3 0.1-0.9 0.2-1.9 1.2-2.3zm6 0.2c1.8 0.9 0.7 2.3 0.2 3.6l-0.7 0.7c-0.9-0.7-1.9-1.8-0.7-3l1.2-1.3zm37.2 0.8c1.4 0 2.9 0.2 4.2 0.1 0.4 1.4 2.1-0.2 3.2 0.7 3.3-0.2 4.9 2 8.3 1.2 1.5 0.8 3.2 0.6 4.8 1v0.3c1.2 0.7 3.9-0.6 4.2 1.2-2 0.6-5.2-0.2-7.4-0.3-5.4-1.1-11.4-1.5-16.6-2.5-1.2 0.3-3.1 0.9-3.9-0.4l-0.3-0.3c0.8-0.9 2.1-1 3.5-1zm-34.4 0.7c0.6-0.1 0.6 0.7 0.9 1 0.1 0.9-0.1 1.6-0.7 1.8s-1.2-0.2-1.2-0.7c-0.1-0.8 0-1.6 0.7-2 0.1-0.1 0.2-0.1 0.3-0.1zm2.3 1.1c0.4 0 0.9 0.4 1.1 0.8v0.9c-0.9 0.4-1.8-0.4-1.8-1.3 0.2-0.3 0.4-0.4 0.7-0.4zm-215.3 2.7l0.5 0.9c-3.21 5.8-6.5 11.6-13.1 14-2.79 0.3-6.71 1.6-8.87-0.4 2.16-1.8 5.97-1.1 8.65-2.6 5.06-2.6 9.41-8.1 12.82-11.9zm171.3 1.2c-5.8 27.8-19 54.2-37.4 75.9-16.6 19.6-36.1 37.1-58.8 49.2 25.6 13.6 71.9 33.2 78.7 37.3 6.7 4 14.9 9.3 20.3 13.3 16.1-13.9 36.7-22.5 55.9-31.3 14.4-6.6 29.4-12.1 43.6-19.2-18.4-11.6-36.2-24.2-51.3-39.9-22.7-23.7-42.1-53.5-51-85.3zm-165.9 7.5c2.48 1.2-0.53 3.1-0.53 4.6-4.13 6.8-10.82 12.7-19.28 11.5-0.31-0.6-1.15-0.9-0.94-1.6 8.67-0.3 16.31-6.8 20.75-14.5zm335.1 3.6c0.7 0 0.8 0.5 1.1 0.8-9.8 10.4-23.3 17.2-35.1 25.5-1.4 0.1-2.9 2.1-4.2 0.3 10.1-6.4 19.9-13.5 29.7-20.6l8.2-5.9c0.1 0 0.2-0.1 0.3-0.1zm-328.9 6.3l1.03 0.9c-1.75 6.9-8.77 13.1-15.37 15.2-2.17 0.5-4.96 1.3-6.41-0.7 2.17-0.5 4.23-1.2 6.19-2.3 2.78-1.1 5.47-2.9 7.84-5 2.59-1.9 5.07-5.3 6.72-8.1zm6.19 9.9l0.5 0.5c-2.38 6.9-8.36 12.7-15.38 14.5-2.68 0-5.87 0.4-7.62-1.2 2.68-0.3 5.04-1.2 7.62-1.8 5.78-1.9 10.76-7.5 14.88-12zm6.5 6.8c0.62-0.1 0.63 0.7 0.9 1.1-3.2 7.9-11.44 13-19.28 14.6-1.13-0.2-3.69 0.7-3.9-1.3 8.67-1.4 17.01-6.9 21.97-14.3 0.11-0.1 0.22-0.1 0.31-0.1zm231.8 8.8c1.2-0.2 2.1 1.2 0.8 2.4-0.6 1-1.9 1-2.6 0-0.6-0.6 0.3-1.2 0.7-1.7 0.3-0.5 0.8-0.7 1.1-0.7zm3.6 1.8c0.4 0 0.7 0.3 1 0.8-0.2 0.9-0.4 1.8-1.3 2.3-0.8-0.3-1.8-0.7-1.4-1.9 0.4-0.7 1.1-1.3 1.7-1.2zm2.9 0.8c0.6 0 1.1 0.2 1.3 1.1-0.3 1-0.5 2-1.5 2.7-0.9-0.8-1-1.3-0.9-2.5 0-0.7 0.5-1.2 1.1-1.3zm3.3 1.6c0.4 0 0.6 0.5 1 0.7-0.4 0.9-0.1 2.1-1.3 2.7-0.6 0.2-1.2-0.6-1.4-1.2-0.1-1 1-1.8 1.7-2.2zm-93.1 13.6c4.6 0.1 3.4 10.4 8.6 3.9 3.6-0.8 7.1-0.7 10.2 1.1 4.1 1.3 6.8 3.9 10.4 6.4 4.5 4 8.3 9.7 5.9 16.4 2.4 1.5 7.3 0.5 7 4.6 0.3 2.3-2.1 3.8-3.5 5 3.1 2.3 5.3 5.9 5.5 10.2 0.3 7.1-2 13.2-5.5 18.7-2.6 3.4-6.4 3.9-10.4 4.3-0.3 1.1 0.5 1.8 1 2.7 0.1 2.4 1.1 6-1.7 7.4-3 0.5-5.3-0.5-7.4-2-1 2.2-0.8 4.9-2.8 6.7-5 5.8-13.2 4.3-20.2 5.2-6.7-0.3-14.9-2.4-17.4-9.2 0-0.4-0.1-0.9-0.5-1.2-2.3 0.5-4.3 2.3-6.9 1.2-1.3-0.9-1.7-2.8-1.5-4.6-0.3-1.5 3-3.2 0-4.1-6.6 0.2-10.4-8-12.8-12.7-1.7-4.8-3.4-11.3-0.5-15.9l3.4-3.2c-2-2.3-4.8-4.7-4-8.2 1.4-4 9.9-0.2 7-5.2-0.5-2.2-0.5-5.4 1-7.5 3.6-8.8 13.4-16.5 23.7-16.1 1.1 1.7 3.4 0.7 4.5 2.5 1.4-0.6 2.5-2.9 3.4-4.2 0.8-1.3 2.1-1.2 3-2.2h0.5z"/>
<path d="m220.5 170.6c-11.9 12.1-37.9 9.5-43.3 29.2-3.7 19.8 3 41.9-8.5 60.1-10.6 20.3-34.1 27.1-51.6 39.8-15.6 18.3-7.1 44.3-14.3 65.7-7.2 24.6-30.33 45.6-56.61 46.4 17.7 26 46.53 41.4 73.81 55.4 13.2-4.5 25.6-13.9 36.4-23.2 23.5-20.1 43.2-45.2 54.9-73.9 12.5-31.2 8.3-65.2 9.2-98zm-168.8 87.9c10.81-17.3 33.36-18.6 47.55-31.4 12.89-16.3 1.99-38.3 5.79-57.1 2.1-22.5 22-39.3 43-44.3 23.4-3.5 24.4-27.44 21.7-46.16-2.4-27.96 21.2-52.34 48-56.11 0.1-7.61-25.1-15.86-36.8-15.5-37.9 1.097-68.6 26.48-103.2 38.71-18.68 9.27-41.54 12.62-60.91 3.47 7.36 21.49 2.24 44.85 3 67.19-0.23 73.5-0.25 146.9 0.4 220.4 20.1 0.7 18.69-22.2 18.56-36.2 0.56-15 2.32-31.5 12.91-43z" fill="#009136"/>
<path fill="#fcef3c" d="m224.7 408.6c-2.1 0.2-1.6 3-2.9 3.9 0.5 1.8 0.6 4.2 1.9 6 2.5-0.7 2.4-3.8 3-6-0.5-1.3-0.7-2.9-2-3.9zm-16.9 18.9l-1.1 1.2 3.5 5.1 2.3 3.3 1.6 1.2 1.1-0.4 0.1-1.1-4.1-5.3-2.2-3-1.2-1zm32.6 0.4l-0.7 2.2-3.2 4.5-2.2 3.3 1.4 0.4 2.2-2.5 4.8-6.4-2.3-1.5zm18.9 8.7c-2.4 0.2-3.1 2.2-4.1 3.9l2.2 1.2c3.2 1.2 4.4-2 6.9-3 0.4-3-3.5-1.4-5-2.1zm-34.5 0.5c-0.2 0-0.4 0.1-0.6 0.4 1 0.5 1.6 1.7 2.9 1.2v-1.4c-0.8 0.4-1.7-0.3-2.3-0.2zm-2.7 0.2c-1.3 0.2-3.1 1.7-4.3 0.7-3 3-7.8 6-6.8 11.2 0.4-0.3 1-0.2 1.3-0.6 2.2-1.3-0.2-2.6 0.3-4.4 0.4-0.2 0.6-1 1.2-0.7 1 0.4 0.5 1.3 1 1.9 0.7-1.3 3.7-2 2.7-3.7-1.2-0.5-1.1-1.9 0-2.7 2-0.4 1.3 2 2.5 2.7 1.1-1 2.7-1.6 3.4-2.5-0.1-1.6-0.6-2-1.3-1.9zm-34 0.9c-1.5 0.1-2.7 0.7-4 1.4-0.6 1.6 1.1 2.5 1.8 3.3 2.6 1.5 6.4 1.5 8.9 0.6 0.5-1.9-1.4-3.1-2.5-4.3-0.7-0.7-2.5 0.6-2.7-0.9-0.5-0.1-1.1-0.1-1.5-0.1zm42.3 0.7c-0.1 0-0.3 0-0.5 0.1-0.3 1.4-2.2 1-1.5 2.5 1.1 1 2.3 0.7 3.7 0.2 0.5 0.4 1.7 0.1 1.2 1.3 0.1 0.5 0 1.3-0.7 1-0.4 0.9 0.7 0.7 0.7 1.4 1.6 0.2 2.5 1.8 4 1.1-0.9-2.7-2.7-4.7-4.7-6.2-1.3 0.4-1.2-1.4-2.2-1.4zm-4.9 3.1c-1.2 0-2.6 0.9-3.7 1.2-0.2 1.6 1.9 1 2.1 2.6l2.5-1.6c0.3-0.2 1 0 0.7-0.7-0.3-1.1-0.9-1.5-1.6-1.5zm-6.2 2.7c-0.5 1.9-3 1.2-2.5 3.5 1.9 2.6 3.1 0.3 4.7-0.8 1.1-1.6-1.2-0.9-1-2.5-0.4 0-1 0.3-1.2-0.2zm10.6 1c-1.3-0.1-2.6 1-3.5 1.5 0.9 0.2 1.6 1.8 2.8 2 1.3-0.3 2.7-0.9 3.4-2-0.4-0.4-1.4-0.1-1.4-1-0.5-0.4-0.9-0.5-1.3-0.5zm-6 2.9c-1 1.2-2.7 1.8-3.1 3.3l2.9 1.7 3.4-2.5c-0.3-1.2-2-1.4-3.2-2.5zm12.1 0.2c-1.5 0.2-2.7 1.8-4.3 1.9l2.1 2c0.9 0.6 2 0.4 2-0.8l0.3 0.2c0.7 0.1 1.5-0.1 2-0.5 0.7-1.3-1.5-1.4-1.1-2.7-0.3-0.1-0.7-0.1-1-0.1zm-21 1.1c-0.8-0.1-1.6 0.3-2.2 1.2 1 0.8 0.5 3.1 2.3 2.8 0-1.1 2-1 1.7-2.5-0.3-0.9-1.1-1.4-1.8-1.5zm15 3.1c-1.2 0.1-2.5 1-3.6 1.4-0.7 1.6 1.4 1.8 2.3 2.2 0.9-0.8 2.8-1.4 3.4-2.5-0.6-0.9-1.3-1.1-2.1-1.1zm11.3 0.8l-0.5 1 0.9 1.3 9.5 2.5 0.6-2.1-5.1-1.4-4.3-1-1.1-0.3zm-30.5 0.1c-0.7 1.4 1.2 2.8 1.5 3.9 0.6-0.4 0.9-0.9 0.8-1.7-0.6-0.9-0.7-2.5-2.3-2.2zm7.8 0.1c-0.7 0.1-1.3 0.5-1.6 1.3-1.3 1.8 1.3 1.4 1.5 2.5 2.1 0.7 1.8-1.8 3-2.5-0.5-0.7-1.8-1.4-2.9-1.3zm18.4 1.3c-0.5 1-1.7 0.4-2.7 0.5-0.4 1.7-3.1 0.8-2.6 2.7 1.2-0.1 2.5 1.3 3.2 1.3 0.5-1.3 2.7-3 2.1-4.5zm-29.5 0.3l-1.3 0.8-1.7 0.4-1.2 0.4-0.6 0.5-1.4 0.5-3.2 1.2 1 2 9.8-3.6 0.8-1.3-0.7-0.7-1.5-0.2zm16.4 1.3c-0.6 1.3-2.4 1.9-2.1 3.4 1.6 1.2 2.9-0.1 4.4-0.9 0.3-1.4-1.6-1.9-2.3-2.5zm-9.1 1.6c-0.3 0-0.6 0.2-1 0.8-0.5 1.3 0.8 1.1 1 2 0.6 0.7 2.1 0.8 2.4-0.3 0.3-0.3 0.4-0.9-0.2-1.2-0.6-0.2-1.4-1.3-2.2-1.3zm15.2 1.2c-0.2 0-0.4 0-0.6 0.1-0.1 1.5-2.7 0.8-1.7 2.8 2.2 3.4 3.8-1.2 5.9-1.6-1.3-0.1-2.2-1.4-3.6-1.3zm-10.3 2.1c-0.8 0.1-1.3 0.7-1.5 1.5 1.4 0.3 2.7 1.6 4 1 0.7-1.9-2-1.3-2.5-2.5zm4 4.9l-1 0.9-0.1 12.6 2.4-0.1v-9.8l0.2-2.4-1.5-1.2zm22 9.5c-0.6 0-1.2 0.3-1.6 0.9-0.3 1.9 1.5 2.8 1.9 4.2 0.4 0.7 1.8-0.2 1.5 1.1 1.6-0.4 1.8 1.9 3.5 0.7 0.9-2.6-1.7-3-1.6-5.2-0.9-0.9-2.4-1.8-3.7-1.7zm-41.8 0.9c-2.8 1.3-6 3.1-5.7 7l2.2 0.2c2.4-0.7 4.5-2.9 5-5.6 0.4-1.2-0.9-1.3-1.5-1.6z"/>
</svg>