<?xml version="1.0" encoding="UTF-8" standalone="no"?>
<svg
   xmlns:dc="http://purl.org/dc/elements/1.1/"
   xmlns:cc="http://creativecommons.org/ns#"
   xmlns:rdf="http://www.w3.org/1999/02/22-rdf-syntax-ns#"
   xmlns:svg="http://www.w3.org/2000/svg"
   xmlns="http://www.w3.org/2000/svg"
   xmlns:xlink="http://www.w3.org/1999/xlink"
   xmlns:sodipodi="http://sodipodi.sourceforge.net/DTD/sodipodi-0.dtd"
   xmlns:inkscape="http://www.inkscape.org/namespaces/inkscape"
   width="313.7"
   height="382.98"
   version="1.1"
   id="svg382"
   sodipodi:docname="Coat_of_arms_of_the_Cayman_Islands.svg"
   inkscape:version="0.92.1 r15371">
  <defs
     id="defs386" />
  <sodipodi:namedview
     pagecolor="#ffffff"
     bordercolor="#666666"
     borderopacity="1"
     objecttolerance="10"
     gridtolerance="10"
     guidetolerance="10"
     inkscape:pageopacity="0"
     inkscape:pageshadow="2"
     inkscape:window-width="1366"
     inkscape:window-height="706"
     id="namedview384"
     showgrid="false"
     inkscape:zoom="1.2872673"
     inkscape:cx="156.85309"
     inkscape:cy="191.48208"
     inkscape:window-x="-8"
     inkscape:window-y="-8"
     inkscape:window-maximized="1"
     inkscape:current-layer="svg382" />
  <metadata
     id="metadata2">
    <rdf:RDF>
      <cc:Work
         rdf:about="">
        <dc:format>image/svg+xml</dc:format>
        <dc:type
           rdf:resource="http://purl.org/dc/dcmitype/StillImage" />
        <dc:title />
      </cc:Work>
    </rdf:RDF>
  </metadata>
  <clipPath
     id="c">
    <path
       d="m0 0v150h700v150h-100zm600 0h-300v350h-300v-50z"
       id="path4" />
  </clipPath>
  <g
     transform="translate(-4.1025 -212.93)"
     id="g380">
    <g
       id="motto"
       transform="translate(-739.05 104.42)"
       style="stroke-width:1.4377;stroke:#000000">
      <g
         style="fill:#fcea83"
         id="g13">
        <path
           d="m754.42 449.56c2.8754 7.6678 23.482 17.732 47.444 4.7924 16.294-9.1055 26.837-22.045 36.901-45.048 2.8753-5.7508 4.313-12.939-2.3962-17.252-5.2716-3.8339-13.898-8.147-17.732-11.981-1.9169-1.9169-3.8339-3.3546-5.2716-4.7924.95845.95848 1.9169 1.917 2.8754 3.3546 9.5847 11.502-.47923 28.275-11.022 38.339-7.6677 7.1885-21.566 24.92-41.693 8.147-4.3131-3.8339-14.377 11.981-9.1055 24.441z"
           id="path7" />
        <path
           d="m1045.8 449.56c-3.3547 7.6678-23.962 17.732-47.444 4.7924-16.294-9.1055-26.837-22.045-37.38-45.048-2.3962-5.7508-3.8339-12.939 2.8753-17.252 5.2716-3.8339 13.898-8.147 17.732-11.981 1.917-1.9169 3.3547-3.3546 5.2716-4.7924-.95845.95848-1.9169 1.917-2.8754 3.3546-9.5847 11.502.47923 28.275 10.543 38.339 7.6677 7.1885 22.045 24.92 42.173 8.147 4.3132-3.8339 13.898 11.981 9.1055 24.441z"
           id="path9" />
        <path
           d="m900.1 490.78c38.339 0 97.285-17.252 128.91-77.636 5.2716-10.064 0-15.336-6.23-18.69-6.7093-2.8754-14.856-9.5847-19.169-13.898 7.6677 7.6678 6.2301 12.939.9585 21.566-24.441 40.735-57.988 61.342-104.47 61.342-46.486 0-80.032-20.607-104.47-61.342-5.2716-8.6262-6.7094-13.898.47922-21.566-3.8339 4.3131-12.46 11.022-19.17 13.898-6.23 3.3546-11.502 8.6262-6.23 18.69 31.63 60.384 91.055 77.636 129.39 77.636z"
           id="path11" />
      </g>
      <g
         style="fill:#db161c"
         id="g23">
        <path
           d="m811.45 409.79c-.95847-4.7924-7.1885-2.8754-9.1055 2.8754-2.3962-3.3546-4.7924-6.7093-6.7093-10.543-5.7508-8.6262-6.7093-14.377 1.4377-22.524 3.8339-3.8339 11.502-8.147 16.773-3.3546 11.022 9.1055 5.2716 23.962-2.3962 33.546z"
           id="path15" />
        <path
           d="m988.28 409.79c.95847-4.7924 7.6678-2.8754 9.5847 2.8754 2.3962-3.3546 4.7924-6.7093 6.7093-10.543 5.7509-8.6262 6.7093-14.377-1.9169-22.524-3.3547-3.8339-11.022-8.147-16.773-3.3546-10.543 9.1055-5.2716 23.962 2.3962 33.546z"
           id="path17" />
        <path
           d="m754.42 449.56c-4.7924-7.1885-8.6262-25.879-9.5847-30.671-1.4377-4.3131-1.9169-8.147 3.3546-10.064 5.2716-1.9169 10.064 4.7924 12.46 10.543 2.3962 5.7508 6.2301 14.377 10.543 24.92-10.543-6.2301-19.169-1.917-16.773 5.2716z"
           id="path19" />
        <path
           d="m1045.8 449.56c4.3131-7.1885 8.147-25.879 9.5847-30.671.9585-4.3131 1.9169-8.147-3.3547-10.064-5.2715-1.9169-10.064 4.7924-12.46 10.543-2.3962 5.7508-6.23 14.377-10.543 24.92 10.543-6.2301 18.69-1.917 16.773 5.2716z"
           id="path21" />
      </g>
      <g
         style="fill:#00493d;stroke:none"
         id="g77">
        <path
           d="m782.21 406.43-3.8339 1.9169c-.95847.47924-.95847 1.4377-.95847 1.917h-.47923l-1.9169-4.3131h.47923c0 .47923.47924.95847 1.4377.47923l8.147-4.3131c.95847-.47923.95847-.95847.47923-1.4377l.47924-.47924 2.3962 4.7924h-.47924c-.47923-.47924-.95847-.95847-1.9169-.47924l-3.3546 1.9169 1.4377 2.8754 3.8339-1.4377c.95847-.47924.47924-1.4377.47924-1.9169h.47923l1.9169 4.3131c-.47923-.47924-.95847-.95847-1.9169-.47924l-8.147 4.3131c-.95847.47923-.95847.95847-.47923 1.4377l-.47924.47924-2.3962-4.3131.47924-.47923c.47923.47923.95847.95847 1.9169.47923l3.8339-1.9169z"
           id="path25" />
        <path
           d="m790.36 412.66c.95847-.47923.95847-.95847.47923-1.9169h.47924l4.7924 7.1885-3.3546 2.3962v-.47924c1.917-1.4377 1.917-3.3546 1.4377-3.8339-.47923-.47924-.95847-.95847-.95847-1.4377-.47924 0-.47924-.47923-1.4377.47924-.47923.47923-3.3546 2.3962-3.3546 2.3962.47923.47923.95847 1.9169 3.3546.47923h.47924l-5.2716 3.8339v-.47923c2.3962-1.9169 1.4377-3.3546.95847-3.8339l-3.3546 2.3962c-.95847.47924-.95847.95847-.95847 1.4377.47924 0 .47924.47923.95847.95847.47924.95847 1.917 1.9169 4.3131.95847l.47924.47924-3.8339 1.4377-4.7924-7.6678h.47924c.47923.47923.95847.95847 1.9169.47923z"
           id="path27" />
        <path
           d="m798.03 430.87-3.3546 2.8754c-.47924.47923-.47924 1.4377 0 1.9169h-.47924l-3.3546-3.3546.47924-.47923c.47923.47923.95847.95847 1.9169 0l6.2301-6.2301c.95847-.47924.95847-.95847.47924-1.9169l3.3546 3.8339c-.47923-.47924-1.4377-.47924-1.9169 0l-2.8754 2.8754 2.3962 2.3962 2.8754-2.3962c.95847-.95847.47923-1.4377 0-1.9169l.47923-.47924 3.3546 3.8339h-.47923c-.47924 0-.95848-.47924-1.917.47923l-6.2301 5.7508c-.95847.95847-.95847 1.4377-.47923 1.9169v.47923l-3.3546-3.8339c.47924 0 1.4377.47924 1.9169 0l3.3546-3.3546z"
           id="path29" />
        <path
           d="m805.22 440.94 1.4377 1.4377 1.9169-4.3131s-1.4377.47923-3.8339 1.9169l.47923.95847-.47923.47923-.95847-.95847c-.47924.47924-.95847.47924-1.4377.95847-1.4377.95847-.95847 1.4377-.47923 1.9169v.47924l-2.3962-2.3962h.47924l1.9169-.47923 9.5847-5.2716.47924.47923s-.47924.47924-4.7924 10.064c0 .95847-.47924 1.4377 0 2.3962l-3.8339-3.3546.47924-.47924c.47923.95847 1.4377.95847 1.9169 0 0-.47923.47923-1.4377.47923-1.9169l-1.4377-1.4377.47923-.47923z"
           id="path31" />
        <path
           d="m809.05 450.52.47923-.47924c.47924.47924.95847.47924 1.9169 0l6.2301-8.147-.47923-.47924c-.95847-.47923-2.3962-.47923-3.8339.95847v-.47923l1.9169-2.3962 7.1885 5.2716-2.3962 2.8754h-.47924c1.4377-1.4377.95848-3.3546 0-3.8339v-.47924l-6.23 8.147c-.95848.47923-.47924 1.4377 0 1.9169h-.47924z"
           id="path33" />
        <path
           d="m821.51 452.44-2.3962 3.3546c-.47924.95847 0 1.4377.47923 1.917l-.47923.47923-3.8339-2.8754v-.47924c.95847.47924 1.4377.47924 1.9169-.47923l5.2716-7.1885c.47923-.95847 0-1.4377-.47924-1.9169l.47924-.47924 3.8339 2.8754v.47924c-.95847-.47924-1.4377-.47924-1.9169.47923l-2.3962 3.3546 2.8754 1.9169 2.3962-3.3546c.47924-.95848 0-1.4377-.47924-1.917l.47924-.47923 3.8339 2.8754v.47924c-.47923-.47924-1.4377-.47924-1.9169.47923l-4.7924 7.6678c-.95847.47923-.47924.95847 0 1.4377v.47924l-4.3131-2.8754h.47924c.47923 0 .95847 0 1.4377-.47924l2.3962-3.8339z"
           id="path35" />
        <path
           d="m831.1 465.86.47924-.47924c.47923.47924 1.4377.47924 1.9169-.47923l3.8339-8.147c.47924-.95847 0-1.4377-.47923-1.9169l8.147 3.8339-1.9169 3.8339-.47924-.47924c1.4377-1.9169 0-3.8339-.47923-4.3131-.47924 0-.95847-.47924-1.4377-.47924s-.47924 0-.95847.95847c-.47924.47924-1.9169 3.3546-1.9169 3.3546.47923.47923 1.4377 1.4377 3.3546-.95847h.47923l-2.8754 5.7508-.47924-.47923c1.4377-2.8754-.47923-3.3546-.95847-3.3546l-1.9169 3.8339c-.47923.95847 0 1.4377.47924 1.4377v.47923z"
           id="path37" />
        <path
           d="m844.99 472.57c-1.4377-.95847-1.4377-3.8339 0-6.7093.95847-2.8754 2.8754-5.2716 4.7924-4.3131 1.4377.47923.95847 3.3546 0 6.2301-1.4377 3.3546-3.3546 5.2716-4.7924 4.7924h-.47924c3.3546 1.4377 5.7508-.47923 7.1885-3.8339 1.4377-2.8754.95847-6.2301-1.9169-7.6678-2.8754-1.4377-5.7508.47924-7.1885 3.8339-1.4377 3.3546-.95847 6.7093 1.9169 7.6678z"
           id="path39" />
        <path
           d="m859.85 473.52 1.917-5.7508c.47923-.95847 0-1.4377-.47924-1.9169l2.3962.47923v.47924c-.47924 0-.95847 0-1.4377.95847l-1.9169 5.7508c-.95847 2.3962-2.3962 4.3131-5.2716 3.3546-1.9169-.47924-3.3546-2.8754-2.3962-5.2716l2.3962-6.2301c.47924-.95847 0-1.4377-.47923-1.9169v-.47924l4.3131 1.917v.47923c-.47923-.47923-1.4377-.47923-1.4377.47924l-2.3962 6.2301c-.47923 1.9169-.47923 3.8339.95847 4.3131 1.4377.47924 2.8754-.47923 3.8339-2.8754z"
           id="path41" />
        <path
           d="m864.16 467.3c0-.47923 0-.47923-.47923-.47923l3.3546.47923 2.8754 9.1055 1.4377-5.7508c.47924-.95847 0-1.4377-.47923-1.9169l2.8754.47923-.47924.47924c-.47923 0-.95847 0-1.4377.95847l-2.3962 10.543h-.47923l-3.8339-11.502-2.3962 7.6678c0 1.4377.47923 1.4377.95847 1.917v.47923l-2.8754-.95847v-.47923c.47924.47923 1.4377 0 1.4377-.95848l2.3962-8.6262-.47924-1.4377z"
           id="path43" />
        <path
           d="m880.46 476.88c-.95847 4.3131-2.8754 5.2716-3.8339 5.2716h-.95847s-.47923-.47924 0-.95847l1.4377-9.5847c.47923-.47923.47923-.95847.95847-.47923h.95847c.95847 0 1.9169 1.9169 1.4377 5.7508l1.4377.47923c.95847-4.7924-.95847-6.7093-3.3546-7.1885-1.9169-.47923-4.7924-.95847-4.7924-.95847v.47924c.47923.47923 1.4377.47923.95847 1.9169l-1.4377 8.6262c-.47923.95847-.95847 1.4377-1.4377 1.4377h-.47924l4.7924.95847c2.3962.47924 4.7924 0 5.7508-5.2716z"
           id="path45" />
        <path
           d="m884.77 473.05c0-.95847-.95847-1.4377-1.4377-1.4377v-.47923l8.6262.95847-.47923 3.8339c0-2.3962-1.4377-3.3546-2.3962-3.3546-.47923-.47923-.95847-.47923-1.4377-.47923-.47923 0-.47923 0-.47923 1.4377 0 .47924-.47924 3.8339-.47924 3.8339.47924 0 1.917.47924 2.8754-2.3962l-.47924 6.2301h-.47923c0-2.8754-1.4377-2.8754-1.917-2.8754l-.47923 4.3131c0 .95847 0 .95847.47923.95847l.95847.47924c1.4377 0 2.8754-.47924 3.8339-3.3546h.47923l-.95847 3.8339-9.1055-.95848c.95847 0 1.4377-.47923 1.9169-1.4377z"
           id="path47" />
        <path
           d="m900.58 478.8c0 4.3131-1.4377 5.7508-2.8754 5.7508-.47924-.47924-.47924-.47924-.95847-.47924l-.47924-.47924.47924-10.064c0-.47923 0-.47923.47923-.47923h.95847c.95847 0 2.3962 1.4377 2.3962 5.7508h1.9169c0-4.7924-2.3962-6.2301-4.7924-6.2301-1.9169-.47923-4.7924-.47923-4.7924-.47923v.47923c.47924 0 1.4377.47924 1.4377 1.4377l-.47924 9.1055c0 .95847-.47923 1.4377-.95847 1.4377v.47923h4.3131c2.3962 0 4.7924-.95847 5.2716-6.2301h-1.9169z"
           id="path49" />
        <path
           d="m914.48 482.63c0 .95847.47924.95847 1.4377.95847v.47924l-5.2716.47924c.47924-.47924 1.4377-.95848 1.4377-1.917l-.95847-9.1055c-.47924-.95847-.95847-.95847-1.9169-.95847v-.47923l5.2716-.47924c-.47923.47924-1.4377.95847-.95847 1.9169z"
           id="path51" />
        <path
           d="m919.27 483.59v-.47923c.47923 0 .95847-.47924.95847-1.4377l-1.9169-10.064h-.47924c-.95847.47924-1.9169 1.4377-1.4377 3.3546h-.47924l-.47924-3.3546 8.6262-1.4377.47924 3.3546h-.47924c0-1.9169-1.4377-2.3962-2.8754-2.3962h-.47924l1.9169 10.064c0 .95847.47924 1.4377 1.4377 1.4377v.47924z"
           id="path53" />
        <path
           d="m939.88 474-1.9169-5.7508c0-.95847-.95847-.95847-1.4377-.95847v-.47923l2.3962-.95847v.47923c-.47924.47924-.47924.47924-.47924 1.4377l1.9169 6.2301c.47924 1.9169.47924 4.7924-2.3962 5.7508-1.917.47924-4.3131-.47923-4.7924-3.3546l-1.9169-6.2301c-.47923-.95847-.95847-.95847-1.4377-.95847l-.47924-.47923 4.7924-1.4377v.47924c-.47923.47923-.95847.95847-.47923 1.9169l1.4377 6.2301c.47924 1.9169 1.917 2.8754 3.3546 2.8754 1.4377-.47923 1.9169-2.3962 1.4377-4.7924z"
           id="path55" />
        <path
           d="m945.15 470.65c2.3962-.95847 1.9169-2.3962 1.4377-3.8339-.47923-1.4377-1.4377-2.3962-2.3962-1.9169-.47924 0-.95848.47923-.47924.95847l1.4377 4.7924.47923.47924.95847 3.8339c.47924.95847 1.4377.95847 1.9169.47923v.47924l-4.3131 1.9169-.47924-.47924c.95847-.47923.95847-.95847.95847-1.9169l-3.3546-8.147c-.47923-1.4377-.95847-.95847-1.9169-.95847v-.47923l4.7924-1.9169c1.9169-.47924 3.8339 0 4.7924 1.9169.47923 2.3962-.47924 3.8339-2.3962 4.7924-.47923 0-.95847.47924-.95847.47924z"
           id="path57" />
        <path
           d="m957.13 472.09c-1.4377.47923-3.3546-1.4377-4.7924-4.7924-1.4377-2.8754-1.4377-5.7508 0-6.2301 1.4377-.47923 3.3546 1.4377 4.7924 4.3131s1.4377 5.7508 0 6.7093c2.8754-.95847 3.8339-4.3131 2.3962-7.6678-1.4377-2.8754-4.3131-4.7924-7.1885-3.8339-2.8754 1.4377-3.8339 4.7924-2.3962 7.6678 1.4377 3.3546 4.3131 5.2716 7.1885 3.8339z"
           id="path59" />
        <path
           d="m957.61 458.67h-.95848l2.8754-1.917 8.6262 4.7924-2.8754-5.2716c-.47923-.95847-1.4377-.95847-1.9169-.95847v-.47924l2.3962-.95847c-.47924.47924-.95847.95847 0 1.9169l4.7924 9.5847-.47924.47924-10.543-5.7508 3.8339 7.1885c.47923.95847 1.4377.95847 1.9169.47924v.47923l-2.3962 1.4377v-.47924c.47924-.47923.47924-.95847 0-1.9169l-3.8339-7.6678-1.4377-.95847z"
           id="path61" />
        <path
           d="m979.18 460.11v-.47923c0-.47924.47923-.95847 0-1.9169l-5.7508-8.147h-.47923c-.95847.47924-1.4377 2.3962 0 3.8339l-.47924.47923-1.9169-3.3546 7.1885-4.7924 1.9169 2.8754c-1.4377-1.4377-2.8754-1.4377-3.8339-.95847l-.47924.47924 5.7508 8.147c.47923.95847 1.4377.95847 1.9169.47923v.47924z"
           id="path63" />
        <path
           d="m984.45 448.6 2.8754 3.3546c.47923.47924 1.4377.47924 1.9169 0v.47924l-3.8339 3.3546v-.47923c.47923-.47924.47923-.95847 0-1.9169l-5.7508-7.1885c-.47923-.95847-.95847-.47924-1.9169-.47924l3.8339-3.3546v.47924c0 .47923-.47923.95847 0 1.9169l2.3962 2.8754 2.8754-1.9169-2.3962-3.3546c-.47924-.95847-1.4377-.47923-1.917-.47923l3.8339-3.3546v.47924c-.47924.47923-.47924.95847 0 1.9169l5.7508 7.1885c.47924.47923.95847.47923 1.4377 0l.47923.47923-3.8339 3.3546-.47924-.47923c.47924-.47924.95847-.95847.47924-1.917l-2.8754-3.3546z"
           id="path65" />
        <path
           d="m988.76 438.54c-.47923-.47923-1.4377-.47923-1.9169 0v-.47923l6.2301-5.7508 2.8754 2.8754h-.47923c-1.4377-1.9169-3.3546-.95847-4.3131-.47923 0 .47923-.47924.47923-.95847.95847 0 0 0 .47923.47923 1.4377.47924.47923 2.8754 2.8754 2.8754 2.8754.47923-.47924 1.9169-1.4377 0-3.8339h.47923l3.8339 4.3131v.47924c-2.3962-2.3962-3.3546-.95847-3.8339-.47924l2.8754 2.8754c.47924.95848.95847.95848.95847.95848l1.4377-1.4377c.47924-.47924.95842-1.9169 0-4.7924h.47924l1.9169 3.3546-6.23 6.2301-.47924-.47923c.47924-.47924.95847-.95847 0-1.9169z"
           id="path67" />
        <path
           d="m1000.3 425.12c-.47921.47924-.47921 1.4377.4793 1.9169.9584.95847 1.9169.95847 3.8338 0 .9585-.47923 2.8755-.95847 4.3132.47924 2.3961 2.3962 1.4377 4.3131.9584 5.2716-.4792.47923-1.4377.95847-1.9169 1.4377-.4792 0-.4792 0-.4792.47924v.47923l-3.3547-2.8754h.4792c1.917.95847 3.8339 1.4377 4.7924 0 .9585-.95847 0-1.9169-.4792-2.3962-.9585-.95848-1.917-.95848-3.3547 0-1.4377.47923-3.3546.47923-4.7923-.47924-1.917-1.9169-1.917-3.3546-.95851-4.7924.47921-.47924 1.4377-.95847 1.9169-1.4377.4793 0 .4793 0 0-.95847l3.3547 2.3962h-.4793c-2.3961-.95847-3.8338-.47924-4.3131.47923z"
           id="path69" />
        <path
           d="m1004.6 421.29c-.9584-.47924-1.4377 0-1.9169.47923h-.4792l5.2716-7.6678 3.3546 2.3962-.4792.47923c-1.917-1.4377-3.8339-.47923-4.3132 0 0 .47924-.4792.95847-.4792 1.4377-.4792 0-.4792.47923.4792.95847.4793.47923 3.3547 2.3962 3.3547 2.3962.4792-.47923 1.4377-1.4377-.4792-3.3546v-.47924l4.7923 3.8339c-2.8754-1.4377-3.3546 0-3.8339.47924l3.3547 2.3962c.9584.47923 1.4377.47923 1.4377.47923 0-.47923.4792-.95847.9585-1.4377.4792-.95848.9584-2.3962-.9585-4.3131l.4792-.47924 2.3962 2.8754-4.7924 7.1885h-.4792c.4792-.95847.4792-1.4377-.4792-2.3962z"
           id="path71" />
        <path
           d="m1017.5 412.66-1.4377 2.3962c-1.917-1.9169-2.8754-3.3546-2.8754-3.3546l4.3131.95847h.9585c.4792 0 1.4377.47924 1.9169.47924 1.4377.47923.9585.95847.4792 1.9169h.4793l2.3962-4.3131c-.9585.95847-1.4378.47924-2.3962.47924-10.064-1.9169-11.022-2.3962-11.022-2.3962v.47924l7.6677 8.6262c.4793.47924.4793 1.4377.4793 1.9169h.4792l1.4377-2.3962-.4792-.47924c-.4793.95847-.9585 1.4377-1.917 0-.4792-.47923-.9584-.95847-.9584-.95847l1.4377-3.3546z"
           id="path73" />
        <path
           d="m1014.6 402.12c-.4793.47924-.4793 1.4377.9585 1.917 1.4377.47923 1.9169 0 3.3546-.95847 1.4377-.95848 2.8754-1.917 4.7924-.95848 2.8754 1.4377 2.3961 3.8339 1.9169 4.7924-.4792.47923-.9585 1.4377-1.4377 1.9169v.95847l-3.8339-1.9169c2.3962.47923 4.3131 0 4.7924-1.4377.4792-.95847-.4793-1.9169-.9585-2.3962-.9585-.47924-1.917 0-3.3547.95847-1.4377 1.4377-2.8754 1.9169-4.7923.95847-1.917-.95847-2.8754-2.3962-1.917-3.8339 0-.95847.9585-1.4377 1.4378-1.9169 0-.47923 0-.47923-.4793-.95847v-.47923l3.8339 1.9169h-.4792c-2.3962-.47924-3.8339.47923-3.8339 1.4377z"
           id="path75" />
      </g>
    </g>
    <g
       id="crest"
       transform="translate(-739.05 104.42)"
       style="stroke-width:1.4377;stroke:#000000">
      <g
         id="rope"
         style="fill:#073163">
        <path
           d="m863.2 232.47c-6.2301 1.4377-10.543 1.9169-16.294-3.3546-3.8339-3.8339-2.8754-10.543.95847-12.939 4.3131-2.8754 8.147-4.7924 13.419-3.3546 5.2716 1.4377 19.169 14.377 15.815 14.856-3.3546 0-8.6262 3.3546-13.898 4.7924z"
           style="fill:#ffffff"
           id="path80" />
        <path
           d="m878.06 209.47c1.9169-1.4377 4.3131-2.3962 10.543-2.8754 5.7508-.47923 10.064-.47923 11.502 3.8339 1.9169 5.2716 3.3546 11.502 7.1885 14.377-2.3962 1.4377-14.377 2.8754-18.69.47923-5.7508-2.8754-7.1885-13.898-10.543-15.815z"
           style="fill:#ffffff"
           id="path82" />
        <path
           d="m919.27 209.95c1.9169-1.4377 4.3131-1.4377 10.543-.95847 6.23.47923 8.6262.95847 10.064 5.2716 1.4377 4.7924 0 11.022 2.8754 15.336-2.8754.95847-12.46.95847-15.815-2.3962-5.2716-3.8339-4.7924-14.856-7.6678-17.252z"
           style="fill:#ffffff"
           id="path84" />
        <path
           d="m948.03 212.82c-4.3131-.95847-7.1885-1.4377-9.1055 0 2.3962 2.8754.47923 14.377 5.2716 18.211 3.3546 2.3962 11.981 2.8754 13.898-2.3962 2.3962-4.7924 2.3962-11.981-10.064-15.815z"
           id="path86" />
        <path
           d="m898.67 208.03c1.4377-1.4377 4.3131-1.9169 10.064-1.9169 6.2301 0 10.064.95847 11.981 4.7924 1.9169 4.7924 1.4377 11.022 4.7924 14.856-1.4377 1.9169-14.377 1.9169-18.211-.95847-5.2716-3.3546-5.7508-14.377-8.6262-16.773z"
           id="path88" />
        <path
           d="m857.93 212.34c0-2.3962 3.3546-2.8754 11.981-3.3546 8.6262-.95847 9.1055-.47924 11.981 5.7508 1.4377 3.3546 3.3546 9.1055 7.1885 11.022-10.543 2.3962-13.898 3.8339-19.649.47923-4.3131-2.3962-9.1055-8.147-10.064-10.543-.47924-1.4377-.47924-2.8754-1.4377-3.3546z"
           id="path90" />
      </g>
      <g
         style="fill:#f9d050;stroke-width:.6469"
         id="g171">
        <g
           id="g129">
          <path
             d="m880.94 163.46c-10.064-7.6678-22.045-14.856-33.067-16.294 7.1885 4.3131 27.316 20.128 32.588 25.4"
             id="path93" />
          <path
             d="m886.69 156.27c-11.981-8.147-25.879-17.252-39.297-18.211 10.064 5.2716 24.92 17.732 33.067 27.796"
             id="path95" />
          <path
             d="m902.02 142.85c6.7093-14.856 13.898-23.003 23.482-32.109-4.7924 10.064-10.064 30.671-12.46 38.818"
             id="path97" />
          <path
             d="m912.56 140.46c4.7924-10.543 11.981-19.649 24.441-25.4-6.2301 6.2301-15.815 24.92-18.211 34.984"
             id="path99" />
          <path
             d="m916.88 150.04c5.7508-8.147 17.252-23.482 37.86-31.63-11.981 11.981-29.713 34.026-34.026 42.652"
             id="path101" />
          <path
             d="m923.59 160.58c8.6262-4.7924 25.879-12.46 38.339-10.064-7.6678 2.8754-30.671 13.419-40.735 23.003"
             id="path103" />
          <path
             d="m921.67 157.23c8.147-8.6262 23.003-21.566 38.818-26.837-11.502 11.022-35.943 35.943-39.297 39.776"
             id="path105" />
          <path
             d="m898.67 151.96c-5.7508-17.732-14.377-34.505-27.316-39.776 7.1885 10.543 16.294 25.879 21.086 48.882"
             id="path107" />
          <path
             d="m887.64 151.48c-9.5847-11.502-22.524-23.003-37.38-25.4 10.064 5.7508 26.837 22.524 33.067 38.818"
             id="path109" />
          <path
             d="m892.92 151c-11.981-21.566-21.086-25.4-26.358-29.713 4.3131 8.147 14.856 29.713 21.086 38.818"
             id="path111" />
          <path
             d="m868.95 149.56c5.7508 3.3546 14.377 11.502 17.252 16.773"
             style="fill:none"
             id="path113" />
          <path
             d="m868.95 159.63c2.8754 2.3962 8.147 5.2716 12.939 9.5847"
             id="path115" />
          <path
             d="m925.98 166.81c4.7924-3.8339 15.336-10.064 20.607-11.981"
             id="path117" />
          <path
             d="m922.63 163.46c4.7924-6.2301 14.377-14.856 17.732-17.732"
             id="path119" />
          <path
             d="m936.05 133.75c-4.3131 4.7924-14.377 16.773-18.211 22.524"
             id="path121" />
          <path
             d="m923.59 129.43c-3.3546 4.3131-10.064 16.773-11.981 21.086"
             id="path123" />
          <path
             d="m885.73 130.39c2.8754 7.6678 8.147 20.607 10.064 25.879"
             id="path125" />
          <path
             d="m881.41 138.54c1.917 2.8754 5.7508 9.5847 7.1885 14.377"
             id="path127" />
        </g>
        <g
           id="g169">
          <path
             d="m897.71 136.14c0-4.3131 2.8754-9.1055 5.7508-9.1055 3.3546 0 5.7508 5.7508 5.7508 9.1055 0 3.8339-2.8754 7.1885-5.7508 7.1885s-5.7508-2.8754-5.7508-7.1885z"
             id="path131" />
          <path
             d="m891.48 139.98c.47923-4.7924 3.8339-8.6262 6.7093-8.147 2.8754.47923 4.3131 6.2301 3.8339 9.5847-.47923 3.8339-3.8339 6.7093-6.23 6.2301-2.3962 0-4.7924-3.3546-4.3131-7.6678z"
             id="path133" />
          <path
             d="m904.42 141.42c-.95847-4.3131.95847-9.1055 3.8339-9.5847 2.8754-.47924 5.7508 4.3131 6.2301 8.147.95847 3.8339-1.4377 7.6678-3.8339 7.6678-2.3962.47924-5.7508-1.9169-6.2301-6.2301z"
             id="path135" />
          <path
             d="m897.23 145.25c0-4.7924 2.8754-9.1055 5.7508-9.1055 3.3546 0 5.7508 5.2716 5.7508 9.1055 0 3.8339-2.8754 7.1885-5.7508 7.1885-2.8754 0-5.7508-2.8754-5.7508-7.1885z"
             id="path137" />
          <path
             d="m888.6 147.64c0-4.3131 3.3546-9.1055 6.23-9.1055 2.8754 0 5.7508 5.7508 5.7508 9.1055 0 3.8339-3.3546 7.1885-5.7508 7.1885-2.8754 0-6.23-2.8754-6.23-7.1885z"
             id="path139" />
          <path
             d="m906.34 145.73c0-4.3131 2.8754-9.1055 5.7508-9.1055 3.3546 0 5.7508 5.7508 5.7508 9.1055 0 3.8339-2.8754 7.1885-5.7508 7.1885s-5.7508-2.8754-5.7508-7.1885z"
             id="path141" />
          <path
             d="m904.42 149.56c0-4.7924 3.3546-9.1055 6.2301-9.1055s5.7508 5.2716 5.7508 9.1055c0 3.8339-2.8754 7.1885-5.7508 7.1885s-6.2301-2.8754-6.2301-7.1885z"
             id="path143" />
          <path
             d="m896.75 153.88c0-4.7924 2.8754-9.1055 5.7508-9.1055 3.3546 0 5.7508 5.7508 5.7508 9.1055 0 3.8339-2.8754 7.1885-5.7508 7.1885s-5.7508-2.8754-5.7508-7.1885z"
             id="path145" />
          <path
             d="m884.77 153.88c0-4.7924 2.3962-9.1055 4.7924-9.1055 2.3962 0 4.3131 5.7508 4.3131 9.1055 0 3.8339-2.3962 7.1885-4.3131 7.1885-2.3962 0-4.7924-2.8754-4.7924-7.1885z"
             id="path147" />
          <path
             d="m911.61 152.92c0-4.3131 2.3962-8.6262 4.7924-8.6262 2.3962 0 4.7924 5.2716 4.7924 8.6262 0 4.3131-2.8754 7.1885-4.7924 7.1885-2.3962 0-4.7924-2.8754-4.7924-7.1885z"
             id="path149" />
          <path
             d="m914.48 161.06c.95847-4.7924 3.8339-8.6262 5.7508-8.147 1.9169.47924 2.3962 6.2301 1.4377 9.5847-.47923 4.3131-3.3546 6.7093-5.2716 6.2301-1.917-.47924-2.8754-3.8339-1.917-7.6678z"
             id="path151" />
          <path
             d="m905.38 159.63c.47924-4.3131 3.3546-8.6262 5.7508-8.147 2.8754 0 4.3131 5.7508 3.8339 9.1055-.47924 4.3131-2.8754 7.1885-5.2716 6.7093-2.3962 0-4.7924-3.3546-4.3131-7.6678z"
             id="path153" />
          <path
             d="m891.96 161.06c-1.4377-4.7924-4.3131-8.147-6.2301-7.6678-1.9169.47923-2.3962 6.2301-1.4377 9.5847.95847 3.8339 3.8339 6.23 5.7508 5.7508 1.4377-.47924 2.8754-3.8339 1.9169-7.6678z"
             id="path155" />
          <path
             d="m888.6 160.1c0-4.3131 2.3962-8.6262 4.7924-8.6262 2.8754 0 4.7924 5.2716 4.7924 8.6262 0 4.3131-2.3962 7.1885-4.7924 7.1885-1.9169 0-4.7924-2.8754-4.7924-7.1885z"
             id="path157" />
          <path
             d="m895.79 162.02c0-4.7924 2.8754-9.1055 5.7508-9.1055 3.3546 0 5.7508 5.2716 5.7508 9.1055 0 3.8339-2.8754 7.1885-5.7508 7.1885s-5.7508-2.8754-5.7508-7.1885z"
             id="path159" />
          <path
             d="m898.19 109.31c-.95847 3.8339-4.3131 7.1885-1.9169 12.46-4.3131-1.4377-8.147-1.917-11.502 1.9169 4.3131-.47924 8.147.95847 10.064 3.8339-3.8339-.47924-5.7508 1.4377-6.7093 3.8339 3.3546-.95847 6.7093-1.9169 8.147-1.4377-1.4377 1.4377-3.8339 3.8339-4.3131 5.7508 2.8754-2.3962 6.2301-1.9169 8.147-3.3546-1.4377 3.3546 1.4377 6.7093 3.8339 10.064-.47924-4.7924 2.3962-8.147.95847-10.543 4.3131.95847 4.7924 4.7924 11.022 4.7924-2.3962-1.4377-3.8339-6.2301-6.7093-6.2301 1.4377-.47923 7.1885-.95847 8.147 0-.95847-1.9169-4.3131-3.8339-6.2301-3.8339 1.9169-1.9169 5.2716-5.7508 7.6678-6.7093-3.3546.47924-8.6262.95847-10.543 3.8339 4.7924-3.8339 3.8339-11.022 9.1055-11.981-2.8754-.47923-7.1885 1.4377-10.543 4.7924 1.4377-2.8754 1.4377-6.7093 3.3546-7.6678-3.8339.95847-8.147 5.7508-9.5847 8.147 0-2.3962-1.4377-6.2301-2.3962-7.6678z"
             id="path161" />
          <path
             d="m900.58 116.97c0 1.4377 0 4.3131-.47924 5.2716"
             id="path163" />
          <path
             d="m906.81 116.5c-.95847.95847-2.8754 4.3131-2.8754 7.1885"
             id="path165" />
          <path
             d="m909.69 122.25c-1.4377.95847-2.8754 2.3962-3.3546 4.3131"
             style="fill:none"
             id="path167" />
        </g>
      </g>
      <g
         id="turtle"
         style="fill:#059334">
        <path
           d="m858.89 169.69c-3.3546 0-6.2301-1.4377-8.147-3.8339-3.3546-4.3131-12.46-6.2301-16.294-2.3962-1.4377.95847-3.3546.95847-4.7924 1.4377-2.3962 0-5.2716 2.3962-4.3131 7.1885 1.9169-1.4377 2.3962 0 3.8339 0 .95847-.47924.47924.47923.47924 1.4377 0 2.3962 5.2716 7.1885 10.064 6.7093 5.2716 0 7.6678 1.9169 8.6262 2.8754 1.4377 1.4377.47923.95847 1.4377 3.3546 1.4377 1.4377 1.9169 1.9169-.47923 3.8339-3.3546 2.8754-5.7508 9.5847 0 14.856 6.2301 4.7924 22.045 11.981 39.776-1.917 17.252-13.419 44.09-5.7508 46.007-.95847 2.3962 4.7924 3.3546 7.6678 3.8339 10.064.47923 1.9169 2.8754 3.8339 6.2301 3.3546 3.3546 0 7.1885 1.4377 9.1055 2.8754 2.3962 1.4377 5.7508.95847 4.7924-3.3546-1.9169-13.419-10.064-15.336-11.022-21.566 4.7924.47923 8.147.47923 10.064-1.4377 1.4377-1.9169 3.3546-5.2716 5.2716-6.2301 1.4377-.95847 1.4377-1.9169-.47924-1.4377-2.3962.47923-3.8339 1.4377-8.147.95847-22.045-2.3962-83.866-19.169-95.847-15.815z"
           id="path173" />
        <path
           d="m956.65 185.98c-2.3962 1.4377-4.7924 3.8339-9.1055 9.5847-4.7924 6.2301-19.169 12.46-36.901 12.46-17.252 0-27.796-2.8754-35.463-9.1055-4.3131-3.3546-7.6678-5.2716-10.543-6.7093-5.2716-2.3962-6.2301-7.6678-4.7924-11.981-1.4377 2.3962-2.3962 4.7924-5.2716 4.3131-1.917 0-5.7508 0-4.7924 1.9169-.47923-.95847-.47923-2.3962-.95847-2.8754-.47923-.47924-.95847-.95848-.95847-.95848 1.4377.95848 4.7924-1.9169 7.1885-1.9169 1.9169.47924 4.3131-1.9169 3.8339-4.7924-.47923-2.3962-.95847-4.3131-1.4377-6.2301 3.8339-1.9169 54.154 7.1885 64.218 8.147 10.064.47924 38.818 4.7924 34.984 8.147z"
           style="fill:#000000"
           id="path175" />
        <path
           d="m865.6 167.77c4.7924-4.7924 10.543-7.1885 16.294-5.7508h1.4377c2.8754-2.3962 9.5847-2.8754 13.419-.95847h1.9169c5.7508-1.9169 16.773 0 20.607 3.8339l1.4377.95847c12.939-.95847 20.607 4.7924 29.713 13.898.95847.95847 2.3962 2.8754 4.7924 3.3546 2.8754.47924 3.3546 1.9169.95847 3.3546-2.8754 1.4377-5.2716 3.8339-10.064 9.1055-4.3131 5.7508-18.211 11.502-35.463 11.502-16.773 0-26.837-2.8754-34.505-8.6262-4.3131-3.3546-7.6678-5.2716-10.064-6.7093-2.8754-.95847-6.7093-4.7924-5.2716-8.6262.95848-3.8339-1.4377-8.6262-3.3546-13.419 1.4377-.95847 5.2716-2.3962 7.1885-1.4377l.95847-.47923z"
           id="path177" />
        <g
           style="fill:#00493d"
           id="g195">
          <path
             d="m950.42 179.75c-9.1055-9.1055-16.773-14.856-29.713-13.898 0 .47923 0 1.9169-.47923 2.8754 7.6678 2.8754 18.69 11.502 23.482 17.732 1.9169-1.9169 5.2716-4.3131 6.7093-6.7093z"
             id="path179" />
          <path
             d="m919.27 164.9c-3.8339-3.8339-14.856-5.7508-20.607-3.8339 0 1.917 0 4.7924-.95847 6.7093 3.3546 1.4377 6.2301 4.7924 9.1055 8.147 1.9169-.47924 6.7093-1.9169 9.1055-2.3962.95847-1.9169 2.8754-6.2301 3.3546-8.6262z"
             id="path181" />
          <path
             d="m896.75 161.06c-3.8339-1.9169-10.543-1.4377-13.419.95847-.95847 1.917-1.4377 5.7508-1.4377 7.6678 1.9169 0 4.7924 1.4377 5.7508 2.3962 2.8754-.95847 6.7093-2.8754 8.147-4.3131.47923-1.9169 1.4377-4.7924.95847-6.7093z"
             id="path183" />
          <path
             d="m865.6 167.77c4.7924-4.7924 10.543-7.1885 16.294-5.7508-.95847 1.4377-1.4377 4.3131-1.4377 7.1885-5.2716-.47923-11.981.95848-14.856 2.8754v-4.3131z"
             id="path185" />
          <path
             d="m941.8 187.42c-4.3131-6.2301-14.856-13.419-22.045-16.773 0 .47924-.95847 2.3962-1.4377 3.8339 2.8754 4.3131 8.6262 13.898 11.022 19.169 2.3962-.95847 9.1055-3.8339 12.46-6.2301z"
             id="path187" />
          <path
             d="m905.38 197.96c.95847-6.7093 1.4377-16.294 1.4377-19.649 2.3962-.47924 7.1885-1.9169 9.1055-2.3962 2.3962 3.8339 8.147 13.898 10.543 18.69-5.7508 1.4377-15.336 3.8339-21.086 3.3546z"
             id="path189" />
          <path
             d="m888.6 174.96c2.3962-.95847 5.7508-2.8754 8.147-4.7924 1.9169 1.4377 5.7508 4.7924 7.1885 6.7093 0 4.3131-1.4377 16.773-1.917 21.086-3.8339 0-10.064-.95847-13.419-2.8754.47923-7.1885.95847-15.336 0-20.128z"
             id="path191" />
          <path
             d="m864.64 180.71c.47923-.95847.95847-4.3131.95847-5.7508 3.8339-2.3962 13.419-4.7924 20.607-.95847.47923 4.7924 0 16.773-.47924 19.649-6.2301-4.7924-16.294-11.502-21.086-12.939z"
             id="path193" />
        </g>
        <g
           style="fill:none"
           id="g211">
          <path
             d="m840.68 172.09c-.95847 0-1.4377-2.8754-3.3546-2.8754-.47923 0-1.9169.47924-2.3962 0 0 .95848.47923 1.917.95847 2.3962.47923 1.4377 2.8754.47924 4.7924.47924z"
             style="fill:#000000;stroke:none"
             id="path197" />
          <path
             d="m840.68 180.23c5.7508 0 6.7093-7.1885 9.5847-7.6678"
             id="path199" />
          <path
             d="m844.03 180.71c4.3131 1.9169 7.6678-8.147 11.022-7.6678"
             id="path201" />
          <path
             d="m835.41 168.25c1.4377 0 2.3962-1.9169 4.7924.47924.95848.95847 2.3962 1.4377 3.3546 1.4377"
             id="path203" />
          <path
             d="m842.6 175.44c-1.9169 2.8754-5.2716 4.7924-7.1885 3.8339"
             id="path205" />
          <path
             d="m834.45 163.46c-1.4377.95847-2.3962 2.8754-3.3546 4.3131"
             id="path207" />
          <path
             d="m829.66 170.65v2.3962"
             id="path209" />
        </g>
      </g>
    </g>
    <g
       transform="translate(-739.05 104.42)"
       style="stroke-width:1.4377"
       id="g378">
      <path
         id="shield"
         d="m989.72 232.95v93.451c0 80.991-38.339 108.79-89.617 130.83-51.278-22.045-90.096-49.84-90.096-130.83v-93.451h179.71z"
         style="fill:#ffffff" />
      <path
         d="m900.1 312.02c4.3132 0 11.022-3.8339 16.773-9.5847 6.23-6.7093 16.773-9.1055 27.796 0 11.022 9.1055 17.732 5.2716 23.482 0 5.7508-5.2716 10.543-7.1885 21.566-7.1885v-62.301h-179.71v62.301c11.022 0 15.815 1.917 21.566 7.1885 5.7508 5.2716 12.46 9.1055 23.483 0 11.502-9.1055 21.566-6.7093 28.275 0 5.2716 5.7508 11.981 9.5847 16.773 9.5847z"
         style="fill:#cf142b"
         id="path216" />
      <g
         style="fill:#0b50a0"
         id="g224">
        <path
           d="m900.1 359.95c5.7508 0 17.252-6.2301 20.128-7.6678 10.543-6.2301 18.211-.47924 24.441 2.3962 6.7093 2.8754 19.169 6.23 26.837 0 7.6678-6.2301 11.981-5.7508 17.252-5.7508.95847-7.1885.95847-14.377.95847-22.524v-5.7508c-6.7093-1.4377-10.064.47923-17.252 6.7093-7.1885 6.2301-15.336 4.7924-25.879.95847-10.064-4.3131-20.128-11.981-30.192 0-2.8754 3.3546-9.5847 8.147-16.294 8.147-7.1885 0-13.419-4.7924-16.294-8.147-10.543-11.981-20.128-4.3131-30.192 0-10.543 3.8339-19.169 5.2716-26.358-.95847-6.7093-6.2301-10.064-8.147-17.252-6.7093v5.7508c0 8.147.47923 15.336 1.4377 22.524 5.2716 0 9.1055-.47923 16.773 5.7508 7.6678 6.23 20.607 2.8754 26.837 0 6.7093-2.8754 14.377-8.6262 24.92-2.3962 2.8754 1.4377 13.898 7.6678 20.128 7.6678z"
           id="path218" />
        <path
           d="m900.1 380.55c7.1885 0 15.815-2.8754 23.482-7.1885 9.5847-5.2716 16.294-2.8754 25.879 1.917 10.064 4.7924 18.211 3.3546 23.962 0 2.8754-1.917 5.2716-5.7508 11.502-4.3131-2.8754 11.981-7.1885 22.524-12.46 31.15-9.5847 2.3962-14.856 2.3962-24.92-1.9169-10.064-4.7924-22.524-7.6678-29.233-3.3546-6.2301 3.8339-12.939 5.7508-18.211 5.7508-5.2716 0-11.981-1.9169-18.211-5.7508-6.7093-4.3131-19.169-1.4377-29.233 3.3546-10.064 4.3131-15.336 4.3131-24.92 1.9169-5.2716-8.6262-9.5847-19.169-12.46-31.15 6.2301-1.4377 8.6262 2.3962 11.502 4.3131 5.2716 3.3546 13.898 4.7924 23.482 0 10.064-4.7924 16.773-7.1885 26.358-1.917 7.6678 4.3131 16.294 7.1885 23.482 7.1885z"
           id="path220" />
        <path
           d="m900.1 457.23c19.169-8.147 36.901-17.252 51.278-29.713-3.8339-1.4377-6.2301-.47924-9.5847-2.8754-3.3546-2.3962-13.419-3.3546-22.045 1.4377-9.1055 4.3131-12.939 5.2716-19.649 5.2716-6.7093 0-10.543-.95847-19.649-5.2716-8.6262-4.7924-18.69-3.8339-22.045-1.4377-3.3546 2.3962-5.7508 1.4377-9.5847 2.8754 14.377 12.46 31.63 21.566 51.278 29.713z"
           id="path222" />
      </g>
      <g
         id="star">
        <path
           d="m831.1 383.43 23.962-73.802 23.962 73.802-62.78-45.527h77.636z"
           style="fill:#f9d050"
           id="path367" />
        <path
           d="m835.89 376.72 49.84-36.422h-61.342l49.361 36.422-18.69-58.467z"
           style="fill:#024919"
           id="path369" />
      </g>
      <use
         x="90.096649"
         width="100%"
         height="100%"
         xlink:href="#star"
         id="use372" />
      <use
         x="45.047649"
         y="52.237129"
         width="100%"
         height="100%"
         xlink:href="#star"
         id="use374" />
      <path
         d="m989.72 232.95v93.451c0 80.991-38.339 108.79-89.617 130.83-51.278-22.045-90.096-49.84-90.096-130.83v-93.451h179.71z"
         style="fill:none;stroke-width:1.4377;stroke:#000000"
         id="path376" />
      <g
         transform="matrix(0.48499454,0,0,0.48499454,720.3905,-32.15343)"
         id="g4735">
        <path
           d="m 292.41,645.07 c 0,0 -6.2618,-0.0489 -8.7692,-1.517 -2.7268,-1.5966 -5.6467,-7.2404 -5.6467,-7.2404 0,0 -6.9039,1.1209 -10.078,0.4332 -3.3164,-0.71855 -8.0632,-4.5119 -8.0632,-4.5119 3.1706,-0.46799 5.5384,-0.94644 8.6085,-3.4299 0,0 -6.1115,-0.32357 -9.5924,-1.6636 -3.0306,-1.1667 -7.9757,-5.0329 -7.9757,-5.0329 2.8258,-0.70142 5.8811,-0.61441 8.1068,-3.3763 0,0 -5.9857,0.054 -8.6976,-0.93691 -2.7072,-0.98914 -7.0058,-4.797 -7.0058,-4.797 3.2895,-0.28554 6.4183,-0.89565 8.5334,-3.554 0,0 -6.0627,0.20592 -8.6313,-0.80283 -3.5464,-1.3929 -8.9722,-6.0341 -8.9722,-6.0341 3.4119,-0.25704 6.8056,-0.55089 9.3866,-2.4868 l -1.9183,-3.8949 c -2.3156,-4.7021 -7.1655,-3.0434 -10.389,-4.3394 -3.1654,-1.2729 -4.94,-4.7433 -5.1127,-6.6884 -0.30449,-3.4311 1.4496,-8.6721 9.1925,-7.5777 -3.8504,-5.8673 0.15843,-10.082 4.2554,-11.77 3.9356,-1.622 7.4113,-1.179 10.084,5.2429 0,0 3.5922,-2.9051 5.5384,-3.3358 2.709,-0.59933 5.7628,0.29934 6.7257,2.8353 0.39592,1.0427 0.54028,3.2235 -0.12374,4.5254 -1.0503,2.0591 -3.3638,3.4698 -4.1194,6.4816 -0.85559,3.41 2.2949,9.3597 2.2949,9.3597 0,0 14.883,11.79 21.729,18.248 3.6428,3.436 10.259,10.872 10.259,10.872 l 0.36562,-0.21181 h 14.752 l 1.3172,24.891 -16.053,0.31287 z"
           id="path126"
           inkscape:connector-curvature="0"
           style="fill:#e4c900;stroke:#806600" />
        <path
           d="m 273.02,607.1 c -4.3741,-3.8886 -16.057,-12.566 -16.057,-12.566 0,0 -2.6742,-6.4842 -3.0252,-10.937 -0.15531,-1.9715 0.25401,-4.0616 1.1635,-5.8177 0.93369,-1.8027 3.6733,-2.4578 4.1887,-4.4214 0.16233,-0.6187 -0.054,-1.3719 -0.46541,-1.8616 -0.49145,-0.58491 -1.3317,-0.97572 -2.0944,-0.93082 -2.8818,0.16953 -7.4466,4.4214 -7.4466,4.4214 0,0 -2.8545,-5.1296 -5.3522,-6.283 -1.0563,-0.48781 -2.4156,-0.44527 -3.4906,0 -1.0135,0.41979 -2.0115,1.2764 -2.3271,2.3271 -1.0022,3.3364 2.0943,10.239 2.0943,10.239 0,0 -6.718,-1.708 -9.3082,0 -0.98636,0.65041 -1.4944,2.0805 -1.3962,3.2579 0.10738,1.2865 1.0453,2.5054 2.0944,3.2579 2.8587,2.0505 10.239,2.5598 10.239,2.5598 l 8.6101,11.635 -9.0755,2.5598 c 3.4569,1.8817 6.165,2.5203 15.591,2.5598 -1.9196,4.0344 -4.7348,5.4174 -7.2139,7.2139 l 15.824,2.3271 c -1.3758,3.9601 -5.5118,4.3264 -7.4466,6.0504 3.0327,2.018 7.3983,3.0362 12.136,3.7754 0.7532,0.1175 1.5158,0.228 2.284,0.3343 -3.1395,-0.43266 -2.6035,-20.125 0.47325,-19.701 z"
           id="path128"
           inkscape:connector-curvature="0"
           style="fill:#fee46e" />
        <path
           d="m 269.81,611.54 c -8.432,-14.636 -10.327,-12.295 -20.873,-19.717 7.452,13.219 6.7899,12.14 20.873,19.717 z"
           id="path130"
           inkscape:connector-curvature="0"
           style="fill:#ffefa7" />
        <path
           d="m 251.35,562.88 c 2.8192,3.4968 3.1405,5.1005 2.498,9.1856 1.3356,1.3897 2.6173,1.7255 3.7246,1.3887 2.2278,-0.67757 3.2664,-2.4529 2.748,-4.9121 -1.6529,-1.0375 -1.9216,-4.159 -8.9707,-5.6621 z m -16.85,1.8516 c -1.1641,-0.0419 -2.5802,0.079 -4.3398,0.4668 4.0143,2.0153 4.971,3.3419 6.0781,7.3262 1.7912,0.71181 3.0945,0.48784 3.9629,-0.27734 1.7472,-1.5394 1.959,-3.5856 0.46875,-5.6094 -1.4506,-0.19487 -2.6778,-1.7806 -6.1699,-1.9062 z m -4.9922,15.828 c -1.8664,0.57029 -4.4014,-1.2724 -10.152,3.0723 4.4889,0.15804 5.9106,0.9651 8.5781,4.125 1.9248,-0.0998 3.018,-0.84675 3.4883,-1.9043 0.94624,-2.1276 0.28425,-4.0748 -1.9141,-5.293 z"
           id="path132"
           inkscape:connector-curvature="0"
           style="fill:#377bc8;stroke:#2c5aa0" />
        <path
           d="m 365.41,656.5 c -2.6001,-0.75912 -5.7741,-4.1775 -8.532,-4.1619 -2.9046,0.0175 -4.9524,1.6377 -6.4137,3.8164 -0.69731,1.0396 0.39731,4.9291 1.4838,5.6759 l 5.0032,3.4393 c 0,0 -3.1319,3.598 -3.3692,5.6236 -0.20617,1.7597 0.67767,3.1725 1.939,4.5619 1.6447,1.8114 2.0483,2.5116 4.6689,2.8932 1.5649,0.22795 5.2683,-0.45555 5.2683,-0.45555 0,0 -0.0865,2.8866 0.8284,4.2189 1.6577,2.4145 4.4725,4.543 7.688,4.2033 2.5111,-0.26493 3.3259,-0.64524 4.653,-2.5142 1.0524,-1.4821 0.84194,-5.2705 2.5507,-6.8312 l 6.9494,-6.3473 c 3.0003,1.8157 2.9207,4.5225 2.5476,7.3142 0,0 4.4603,-2.8178 5.7873,-4.8367 1.3825,-2.1034 1.9291,-7.0691 1.9291,-7.0691 2.824,2.5473 3.7585,4.8237 3.1532,7.867 0,0 4.5406,-2.8352 6.0017,-4.8368 1.6447,-2.253 3.0628,-7.1228 3.0628,-7.1228 2.0676,2.0114 2.5039,4.8723 1.7148,8.3713 0,0 5.074,-3.3995 6.4303,-6.1389 1.0723,-2.1657 1.7147,-5.9529 1.7147,-5.9529 6.1656,0.4476 10.147,-2.2353 10.419,-5.0132 0.21044,-2.1543 -2.2285,-5.0914 -7.1928,-5.944 0,0 -1.8326,-2.7366 -2.5263,-4.7604 -0.47683,-1.3912 -0.51228,-2.9725 0,-4.3541 1.0248,-2.7638 3.413,-5.0893 5.8531,-7.0755 3.3563,-2.732 10.661,-6.1684 10.661,-6.1684 l -2.1373,-10.701 -24.876,-3.8098 -27.497,6.7772 c 5.0115,2.2995 16.237,10.162 15.32,13.141 -0.3429,1.115 -2.7308,2.1712 -3.8725,3.6637 -0.84086,1.0992 -0.19944,2.8562 0.62709,3.9913 1.1564,1.588 3.9194,1.9529 4.8079,3.447 0.79956,1.3446 1.1629,2.5434 0.20909,3.8099 -1.8831,2.5005 -8.2162,3.5508 -11.288,4.8984 -5.598,2.4559 -15.076,7.8104 -15.076,7.8104 -2.9476,0.38415 -5.7729,-0.63655 -8.4905,-1.43 z"
           id="path134"
           inkscape:connector-curvature="0"
           style="fill:#e4c900;stroke:#806600" />
        <path
           d="m 375.09,661.75 c 0,0 6.9113,-3.636 10.582,-5.4498 5.7868,-2.8599 15.903,-3.6144 18.445,-9.5474 0,0 0.7191,-1.3175 0.48379,-3.1446 -0.35225,-2.7354 -5.1212,-4.9967 -3.6284,-7.9824 l 1.2094,-2.4189 c 0,0 5.0727,2.183 6.531,3.8702 1.1848,1.3709 1.3552,3.6533 2.9027,4.5959 1.5898,0.96837 5.5635,0.48379 5.5635,0.48379 l 2.4189,7.0148 c 0,0 3.6831,-0.0304 5.0797,1.6932 0.40924,0.50507 0.48654,1.3328 0.2419,1.9351 -0.38861,0.95664 -2.6258,1.1996 -3.6001,1.5414 -1.9021,0.66722 -4.8378,-1.4849 -4.8378,-1.4849 0,0 1.0185,4.7577 0.51723,6.2992 -0.34584,1.0654 -1.6932,2.9027 -1.6932,2.9027 -1.0698,-1.8178 -1.7653,-2.7022 -6.5927,-5.1462 0,0 -0.58191,4.0558 -1.8783,6.6024 -0.59994,1.1785 -2.4189,3.1446 -2.4189,3.1446 0,0 -1.1025,-2.2382 -1.9351,-3.1446 -1.56,-1.6983 -6.1041,-2.4902 -6.1041,-2.4902 0,0 -0.89487,4.9757 -2.1722,7.6268 -0.47085,0.97726 -1.2759,2.4189 -1.2759,2.4189 0,0 -0.87122,-2.2834 -1.6932,-3.1446 -0.97389,-1.0203 -3.6284,-2.177 -3.6284,-2.177 l -9.372,7.7405 c 0,0 -1.4177,4.5795 -3.6235,6.0521 -1.2759,0.85174 -1.958,0.43556 -3.3344,-0.2419 -0.66696,-0.32828 -1.2658,-0.9734 -1.4513,-1.6932 -0.59607,-2.3122 0.91071,-5.2127 0.91071,-5.2127 0,0 -5.0412,1.9764 -8.3573,1.0341 -1.2626,-0.35878 -2.8371,-1.3499 -2.9027,-2.6608 -0.15122,-3.0228 4.2452,-5.8719 4.2452,-5.8719 0,0 -4.9646,-1.1665 -7.0245,-3.9936 -0.67149,-0.92158 -1.148,-2.4596 -0.48378,-3.3865 0.76454,-1.0669 2.583,-0.98241 3.8702,-0.72568 2.4564,0.48991 3.5748,3.4163 6.0569,3.7517 l 8.9499,1.2094 z"
           id="path136"
           inkscape:connector-curvature="0"
           style="fill:#ffe66f" />
        <path
           d="m 407.32,652.61 c -12.18,-0.6253 -21.699,5.268 -31.429,11.833 12.481,0.0573 22.043,-4.1087 31.429,-11.833 z"
           id="path138"
           inkscape:connector-curvature="0"
           style="fill:#ffefa7" />
        <path
           d="m 415.7,622.82 c 0,0 -0.4746,8.8986 -4.1913,11.177 -1.6005,0.98102 -3.842,1.3876 -5.5883,0.69853 -1.6916,-0.66753 -2.8736,-2.4813 -3.4927,-4.1912 -0.3963,-1.0947 -1.0478,-3.842 -1.0478,-3.842 0,0 -5.682,-2.5994 -8.7317,-2.7942 -4.4894,-0.28666 -13.272,2.4449 -13.272,2.4449 1.4994,-4.6616 5.5339,-8.4782 9.7796,-12.224 l 14.669,-1.0478 11.875,9.7796 z"
           id="path140"
           inkscape:connector-curvature="0"
           style="fill:#efd300;stroke:#806600" />
        <path
           d="m 444.11,563.67 c 3.4713,-0.46176 10.598,-2.1754 12.991,-5.0069 1.1154,-1.3198 4.242,-5.0069 4.242,-5.0069 -0.66269,8.3242 -4.1867,13.72 -11.665,17.377 -5.9674,2.918 -12.856,3.593 -19.354,2.9452 -4.0918,-0.40791 -11.665,-2.9452 -11.665,-2.9452 4.1548,5.3933 2.0432,9.2001 -3.1815,11.781 0,0 0.77417,-5.1652 -0.79536,-5.8905 -3.3849,-1.5643 -7.2011,0.47397 -10.796,2.8679 -2.655,1.7682 -6.6751,2.5928 -9.3828,2.5567 -4.5109,-0.06 -7.0109,-0.12315 -11.229,-1.8987 -2.5442,-1.0708 -6.9577,-5.1556 -8.8276,-4.7498 -4.0366,0.8761 -9.1349,1.3687 -11.432,5.1591 -0.79793,1.3169 -0.70008,3.3784 0,4.7622 1.5708,3.1051 5.0989,4.7264 8.2164,5.5559 9.2719,2.467 16.839,2.4507 25.99,0.88423 9.4314,-1.6145 20.444,-4.8476 29.874,-6.799 9.3467,-1.9342 21.397,-5.589 28.48,-7.3554 12.518,-3.1218 18.134,-3.5516 27.502,-3.3856 16.406,0.2909 21.777,9.9671 21.278,20.528 -0.51322,10.849 -10.399,15.761 -18.863,18.805 -14.882,5.3513 -35.315,2.3038 -48.157,1.9382 0,0 4.3049,4.0049 6.2578,5.8357 2.2877,2.1447 3.4311,6.63 6.2579,7.7242 3.8771,1.5008 9.8074,-1.4747 13.906,-1.738 5.7315,-0.36805 15.471,0.38622 15.471,0.38622 1.4911,-1.6869 2.4574,-2.8579 4.007,-3.3628 1.1112,-0.36281 2.8602,-0.3823 3.7521,-0.004 1.7649,0.74872 2.9523,3.0551 2.2122,7.3484 0,0 1.2231,1.9029 3.0896,2.3413 1.976,0.46494 4.2835,0.0548 5.4097,0.44935 1.8576,0.65072 4.8658,2.7027 4.8658,2.7027 0,0 -3.1886,1.1221 -4.5153,2.02 -0.90812,0.6146 -2.1199,2.6483 -2.1199,2.6483 0,0 4.3682,0.0838 6.1928,0.98281 1.9544,0.963 3.76,3.6855 3.76,3.6855 0,0 -2.6301,-0.20693 -3.8836,0.67208 -0.95825,0.67197 -2.5304,2.522 -2.5304,2.522 0,0 5.113,-0.46162 6.8563,1.2285 1.5434,1.4963 3.3176,4.1769 3.3176,4.1769 0,0 -2.7586,-0.0647 -4.0646,0.35281 -0.84959,0.27163 -2.3494,1.3671 -2.3494,1.3671 0,0 3.5345,2.0467 5.087,4.4226 1.2402,1.8979 1.5482,6.1425 1.5482,6.1425 0,0 -2.0813,-1.7328 -3.3602,-2.3691 -0.79969,-0.39793 -2.6115,-0.33362 -2.6115,-0.33362 l 0.82805,8.7144 c 0.2036,2.1428 2.908,4.4628 3.3905,6.1206 0.6085,2.0905 0.45607,2.8761 -0.63572,4.7081 -1.3978,2.3462 -4.2847,2.8254 -6.781,2.354 -1.3774,-0.26008 -3.3129,-2.1909 -3.3129,-2.1909 0,0 -1.4094,2.8919 -2.3593,3.7785 -1.5907,1.4847 -2.2755,1.297 -4.3516,1.2085 -1.5923,-0.068 -3.0093,-0.40073 -4.1113,-1.6793 -1.2685,-1.4718 -2.1474,-5.8777 -2.1474,-5.8777 l -4.8955,1.0751 c -1.0631,0.23345 -4.2852,-1.5677 -4.6444,-2.7035 -0.75282,-2.3803 -0.82578,-4.7863 0.63571,-6.7174 1.3877,-1.8336 5.2252,-1.9291 7.1806,-2.9389 2.5054,-1.2938 4.913,-5.0381 4.913,-5.0381 0,0 -8.1788,-6.989 -11.716,-11.336 -1.9448,-2.39 -5.291,-7.9769 -5.291,-7.9769 0,0 -10.429,3.4895 -14.361,4.1984 -9.6992,1.7485 -20.03,0 -20.03,0 -14.826,0 -24.69,-25.293 -38.171,-31.068 -4.1139,-1.7622 -6.0504,-1.4864 -10.354,-0.41983 -15.621,3.8714 -32.297,25.861 -47.772,30.396 -6.3528,1.8615 -19.652,2.519 -19.652,2.519 0,0 -2.1776,5.2101 -4.2369,6.6976 -2.2395,1.6176 -7.8622,1.7233 -7.8622,1.7233 0,0 -1.438,6.23 -3.0853,8.597 -1.7211,2.4731 -6.4507,4.8697 -6.4507,4.8697 0.69875,-2.8417 1.1149,-5.0173 0.12729,-8.6084 0,0 -2.3515,4.971 -4.6382,7.3245 -1.9908,2.049 -6.8479,4.5813 -6.8479,4.5813 0.38971,-2.6502 1.504,-5.1663 0,-8.1672 0,0 -1.999,5.022 -3.737,6.8776 -1.7349,1.8524 -6.3234,3.8686 -6.3234,3.8686 0.88889,-2.8657 1.4569,-5.7313 0,-8.597 0,0 -1.9009,5.1492 -3.6046,6.8776 -2.3523,2.3864 -8.0088,4.9998 -8.0088,4.9998 0.95404,-2.9562 1.8717,-5.9123 1.166,-8.8684 l -3.8473,-0.008 c -4.6446,-0.01 -4.9406,4.727 -7.1032,6.8833 -2.1239,2.1178 -5.5743,2.1654 -7.2275,1.5055 -2.9162,-1.1641 -5.5087,-5.2566 -1.9685,-11.272 -6.1236,0.79053 -9.3146,-3.8397 -9.2992,-7.9594 0.0145,-3.9578 1.207,-7.4519 7.383,-7.0293 0,0 -0.79834,-3.4274 -0.4869,-5.231 0.43353,-2.5106 2.2126,-4.6897 4.6199,-4.4456 0.9898,0.10036 2.8266,0.88132 3.667,1.9742 1.3292,1.7285 1.6957,4.2441 3.9064,6.1204 2.5029,2.1243 8.4551,1.9524 8.4551,1.9524 0,0 11.568,-7.5568 19.198,-10.606 4.0599,-1.6223 15.59,-4.0743 15.59,-4.0743 l 0.36132,-34.192 c 6.9287,0.51626 3.9489,0.58867 9.8084,0.37735 8.4167,-0.30353 30.528,3.8156 30.528,3.8156 l 15.744,-1.3005 c 0,0 26.26,-4.7825 38.753,-6.2783 6.2936,-0.75347 12.653,-1.2952 18.973,-0.89689 9.5195,0.59993 17.695,3.4505 26.643,4.036 7.5236,0.49231 12.662,1.4191 20.184,0.89688 10.74,-0.74554 29.938,0.1294 36.038,-11.592 1.5832,-3.042 0.77027,-7.209 -1.5926,-9.5518 -3.1176,-3.0911 -5.3343,-4.2552 -9.4923,-3.1927 -2.193,0.56039 -4.9814,2.4198 -5.2548,4.7077 -0.1482,1.2403 0.0375,2.7907 0.97487,4.2554 1.6114,2.5183 3.4324,3.2769 3.4324,3.2769 0,0 -4.659,0.75565 -6.7804,-1.1298 -2.2328,-1.9844 -4.2378,-8.2856 -4.2378,-8.2856 -1.0497,1.6083 -1.8216,3.371 -1.6447,5.6606 0.15238,1.9733 -0.006,3.2082 1.9837,6.2028 0,0 -4.9288,-0.38235 -7.2889,-3.3896 -1.5863,-2.0212 -2.8817,-8.0972 -2.8817,-8.0972 -1.3985,1.5332 -2.252,4.0162 -2.3116,5.8469 -0.0861,2.6437 0.94564,3.8034 1.464,6.5815 0,0 -4.8583,-1.5861 -6.7804,-4.5194 -1.4916,-2.2762 -2.2873,-8.2549 -2.2873,-8.2549 -5.5889,1.5475 -16.257,3.7353 -27.874,6.5067 -8.1843,1.9525 -20.683,4.9531 -29.517,6.1865 -15.171,2.1182 -26.215,1.022 -35.541,-3.3748 -4.8531,-2.2881 -7.0397,-4.489 -8.2907,-9.6848 -0.71011,-2.9492 0.33588,-7.1271 2.7448,-10.38 3.3582,-4.5347 9.1914,-7.9291 15.707,-9.7228 0,0 17.257,-5.1475 27.308,-6.185 16.115,-1.6636 22.668,0.83822 29.402,1.7805 4.3766,0.61236 9.0855,-0.39218 10.464,-2.2197 1.1597,-1.538 3.0783,-3.1954 0.49343,-6.9036 0,0 3.2752,0.0725 5.4497,4.5405 0.88814,1.8248 -0.20749,6.042 -0.20749,6.042 h 6e-5 z"
           id="path142"
           inkscape:connector-curvature="0"
           style="fill:#fee46e" />
        <path
           d="m 461.36,553.66 c 0,0 -4.6873,7.9763 -8.0801,10.359 -4.2764,3.0037 -9.5051,4.6646 -14.414,5.373 -4.7715,0.68858 -9.6397,-0.51439 -14.416,-1.1523 -5.5393,-0.73985 -13.783,-4.4121 -13.783,-4.4121 1.672,2.9416 3.3656,5.8826 3.8027,8.8242 0,0 -5.2132,-1.3877 -7.9609,-0.48047 -2.1662,0.71522 -6.2772,2.7177 -8.373,3.6934 -3.2534,1.5145 -8.4764,-0.0284 -11.938,-0.52735 -3.5737,-0.51514 -4.8296,-2.4253 -8.043,-1.3906 l -3.1309,1.0078 10.139,5.9473 10.139,1.5352 6.3359,-1.3438 6.9707,-4.2207 5.5449,-0.38281 1.584,2.4941 0.1582,4.4121 3.6426,-3.6445 0.95117,-3.0703 -1.1094,-5.3711 7.4453,2.3008 9.5059,0.76758 9.8223,-1.918 8.7129,-4.2207 4.2754,-5.3711 2.2188,-9.209 z m 25.955,26.688 c -2.21,0.0741 -4.4835,0.72066 -6.623,2.1055 -2.9179,2.8005 -2.673,6.1488 -2.6406,8.9492 -1.4962,-2.599 -2.6784,-7.0955 -3.9961,-10.775 -3.6347,3.7293 -3.828,9.1021 -4.8262,13.516 -2.0413,-3.8963 -2.9779,-8.5236 -4.2227,-12.42 -4.1992,3.531 -5.2991,7.7912 -6.6367,11.322 -1.0494,-2.2641 -2.0758,-4.6256 -2.3379,-10.227 -0.53912,0.20249 -0.87901,0.35381 -1.3438,0.53711 -12.458,1.6929 -40.508,10.841 -62.283,13.035 -12.064,1.2158 -25.235,0.4127 -32.836,-5.0137 -3.3495,-2.3912 -5.6173,-5.6799 -6.2324,-10.09 l -1.1191,5.1484 3.5801,6.7734 8.0547,4.6055 15.213,3.5234 16.557,-1.627 9.3965,-1.084 49.191,-11.32 1.0684,6.3789 3.3184,4.2012 4.4492,2.0078 -1.7344,-5.6621 0.67969,-3.834 1.7344,-2.4668 2.4883,7.123 3.3926,2.832 4.5996,1.1856 -1.8848,-3.4688 -0.15039,-4.5664 1.4316,-3.3789 2.3379,6.0273 2.7148,2.2832 6.1074,0.54688 -3.7695,-4.291 -0.75391,-3.8359 2.4883,-3.1055 5.7305,-1.3691 4.4492,1.7344 3.4688,3.2891 1.0566,5.1133 -0.91015,3.8106 c 8.5817,-7.6008 0.28436,-17.832 -9.207,-17.514 z m 9.207,17.514 c -0.0771,0.0683 -0.14088,0.13919 -0.22071,0.20703 l 0.15039,0.0918 0.0703,-0.29883 z m 7.5566,-9.5742 c -0.46326,5.7661 -2.4583,10.288 -5.5918,13.707 -14.855,16.209 -48.016,10.795 -63.926,5.2461 l -7.1602,-1.1367 c -1.0165,-0.47023 -2.1409,-0.95839 -3.5547,-1.5254 -5.3198,-1.1732 -4.1742,-0.5757 -10.039,-0.94531 -6.3199,-0.3983 -12.679,0.14301 -18.973,0.89648 -12.493,1.4957 -38.754,6.2773 -38.754,6.2773 l -15.744,1.3008 c 0,0 -22.111,-4.118 -30.527,-3.8145 -5.8595,0.21134 -2.8799,0.13739 -9.8086,-0.3789 l -0.0605,5.7637 c 0,0 7.2421,1.9033 13.975,3.2676 l -1.9551,0.13281 -9.7422,17.207 c -0.42251,-3.2249 -1.7598,-8.0488 -1.7598,-8.0488 l -1.0195,12.955 -1.8691,3.3008 -11.441,2.8613 -11.633,5.2812 -9.1387,6.541 -9.1387,-2.5156 -3.5312,-6.2891 c 0,0 0.83786,7.2662 2.9062,9.5586 2.5399,2.815 9.9707,3.2695 9.9707,3.2695 0,0 10.794,-7.6506 16.617,-10.312 2.5289,-1.156 5.1496,-1.962 7.793,-2.6797 0.9156,1.0428 2.1344,2.2819 3.5059,3.2715 1.3055,0.94197 4.1113,2.4082 4.1113,2.4082 0.32669,-7.9004 4.88,-7.8082 11.725,-11.949 l 0.70312,4.834 c 0,0 12.894,-4.4047 16.4,-8.3359 2.3436,-2.6272 4.6149,-5.7198 5.6348,-9.3848 0.75894,-2.7274 0.62794,-7.3263 0.44531,-10.369 2.8715,-0.0172 5.7551,-0.10073 8.7539,-0.20703 13.168,-0.46677 27.29,-6.4287 40.383,-8.1973 10.486,-1.4164 22.08,-3.4716 31.621,-1.6953 8.014,1.492 11.09,4.6953 18.002,9.8281 5.8136,4.317 11.709,15.928 19.496,15.928 0,0 4.4033,-0.27146 7.2754,-0.67773 3.618,-0.51177 6.1636,-2.0266 9.7949,-2.373 4.9424,-0.47151 11.738,0.52539 11.738,0.52539 3.2025,-4.5183 4.8417,-4.6102 5.7617,-4.0352 2.0262,1.2664 2.3014,4.0688 0.47656,6.9062 2.0146,1.5349 3.302,4.054 9.4336,3.6953 -2.6996,2.3785 -3.515,3.5656 -4.625,6.4941 2.3016,-0.83953 4.7133,-0.0403 8.1582,1.0586 -2.4372,2.3082 -3.1087,4.6044 -3.9512,6.6367 2.288,-0.33031 3.9983,0.22257 8.1094,0.9961 -2.3458,1.3598 -4.1098,2.0056 -4.5039,3.8906 2.6786,1.6908 2.4315,1.024 6.3281,4.6816 -2.476,0.35625 -3.9878,0.36082 -4.9531,2.2852 l 4.7226,8.3184 -0.6289,-7.748 c 0,0 1.8136,-0.0639 2.6133,0.33398 1.2788,0.63628 3.3594,2.3692 3.3594,2.3692 0,0 -0.30863,-4.2447 -1.5488,-6.1426 -1.5525,-2.3758 -5.0859,-4.4219 -5.0859,-4.4219 0,0 1.5,-1.0956 2.3496,-1.3672 1.306,-0.41753 4.0644,-0.35351 4.0644,-0.35351 0,0 -1.775,-2.6814 -3.3184,-4.1777 -1.7433,-1.6901 -6.8555,-1.2285 -6.8555,-1.2285 0,0 1.571,-1.8495 2.5293,-2.5215 1.2535,-0.87901 3.8848,-0.67188 3.8848,-0.67188 0,0 -1.8054,-2.7226 -3.7598,-3.6856 -1.8246,-0.89904 -6.1934,-0.98242 -6.1934,-0.98242 0,0 1.211,-2.0338 2.1191,-2.6484 1.3267,-0.89791 4.5156,-2.0195 4.5156,-2.0195 0,0 -3.0076,-2.0524 -4.8652,-2.7031 -1.1261,-0.39462 -3.4341,0.0157 -5.4102,-0.44922 -1.8665,-0.43838 -3.0898,-2.3418 -3.0898,-2.3418 0.74012,-4.2933 -0.44796,-6.5989 -2.2129,-7.3476 -0.89199,-0.37841 -2.6408,-0.35893 -3.752,0.004 -1.5497,0.50484 -2.5147,1.6764 -4.0059,3.3633 0,0 -9.7392,-0.75475 -15.471,-0.38672 -4.099,0.26324 -10.029,3.2391 -13.906,1.7383 -2.8268,-1.0943 -3.9701,-5.5799 -6.2578,-7.7246 -1.9529,-1.8308 -6.2578,-5.8359 -6.2578,-5.8359 -0.10933,-0.15869 -0.19003,-0.27521 -0.29492,-0.42774 l 14.627,0.91211 14.74,0.22071 h 9.2812 c 10.673,-2.6056 23.105,-5.4536 28.207,-18.512 l 0.18164,-9.6973 z m -110.37,24.896 c -3.8613,-0.0802 -8.2554,1.2006 -11.744,2.7012 -9.9722,4.2892 -25.6,17.275 -25.6,17.275 -4.4206,2.7613 -10.774,7.3323 -15.49,9.2461 -7.2069,2.9244 -22.629,3.4082 -22.629,3.4082 0,0 -2.0926,7.9587 -4.9043,9.4766 -2.4902,1.3443 -8.0586,-1.6973 -8.0586,-1.6973 0,0 0.0918,4.5099 -0.23242,6.9297 -0.2958,2.2074 -2.4531,6.3652 -2.4531,6.3652 0,10e-6 -0.5573,-3.2851 -1.2852,-4.668 -1.0657,-2.0248 -4.3203,-4.9492 -4.3203,-4.9492 0,0 -0.87421,4.5777 -1.752,6.6465 -1.1316,2.6669 -4.4375,7.2129 -4.4375,7.2129 0,0 -0.44095,-2.7237 -0.93554,-3.959 -0.90033,-2.2487 -3.6211,-6.082 -3.6211,-6.082 0,0 -1.0976,4.733 -1.9844,6.9297 -0.75402,1.8679 -2.8027,5.2324 -2.8027,5.2324 0,0 -0.53695,-1.7502 -0.93359,-2.5449 -1.1038,-2.2118 -3.9727,-6.082 -3.9727,-6.082 0,0 -1.9689,5.0595 -3.2695,7.3555 -0.81214,1.4336 -2.8027,3.959 -2.8027,3.959 0,0 -0.0415,-4.5534 -1.2852,-5.9395 -1.1632,-1.2964 -3.4667,-1.8551 -5.0215,-1.5566 -5.112,0.98124 -7.1004,6.0423 -10.51,10.545 -0.73365,0.96893 -2.3102,1.5277 -1.7012,0.42383 0.93352,-1.692 0.22553,-3.2621 -0.44141,-4.1387 -0.75149,-0.98763 -2.1956,-1.5756 -3.2305,-0.9375 -1.5813,0.97504 3.7503,-6.5996 3.6211,-6.5996 0,0 -5.3836,0.18409 -7.9434,-0.42383 -1.4791,-0.35127 1.3019,0.48254 0.95898,-3.9648 -0.32296,-4.1886 -3.608,-3.7773 -2.7012,-4.1016 2.5115,-0.89809 6.6484,0.99414 6.6484,0.99414 0,0 -1.9147,-1.9871 -1.0508,-3.7578 0.39382,-0.80714 2.6682,-2.4513 3.0273,-4.5371 0.52282,-3.0365 -1.9383,-5.4349 -2.0332,-5.2051 -1.0803,2.6166 -4.1876,1.9347 -4.6211,4.4453 -0.31143,1.8036 0.48829,5.2305 0.48829,5.2305 -6.176,-0.42262 -7.3683,3.0715 -7.3828,7.0293 -0.0153,4.1197 3.1752,8.7495 9.2988,7.959 -3.5402,6.015 -0.9475,10.107 1.9688,11.271 1.6532,0.6599 5.1027,0.61193 7.2266,-1.5058 2.1626,-2.1563 2.4589,-6.8926 7.1035,-6.8828 l 3.8477,0.008 c 0.70574,2.9561 -0.21198,5.913 -1.166,8.8691 0,0 5.6555,-2.6136 8.0078,-5 1.7037,-1.7284 3.6055,-6.877 3.6055,-6.877 1.4569,2.8656 0.88889,5.73 0,8.5957 0,0 4.5873,-2.0148 6.3223,-3.8672 1.738,-1.8556 3.7383,-6.8789 3.7383,-6.8789 1.504,3.0009 0.38971,5.5177 0,8.168 0,0 4.8568,-2.533 6.8476,-4.582 2.2867,-2.3536 4.6387,-7.3242 4.6387,-7.3242 0.98759,3.591 0.56984,5.7657 -0.12891,8.6074 0,0 4.7301,-2.396 6.4512,-4.8691 1.6472,-2.3669 3.0859,-8.5957 3.0859,-8.5957 0,0 5.6218,-0.107 7.8613,-1.7246 2.0593,-1.4874 4.2383,-6.6973 4.2383,-6.6973 0,0 13.3,-0.65805 19.652,-2.5195 15.476,-4.5345 32.151,-26.523 47.771,-30.395 4.3034,-1.0665 6.2396,-1.3442 10.354,0.41797 13.481,5.7746 23.344,31.068 38.17,31.068 6.6767,0 10.332,1.7485 20.031,0 3.9323,-0.70887 14.361,-4.1973 14.361,-4.1973 0,0 3.3462,5.5865 5.291,7.9766 3.537,4.3467 11.715,11.336 11.715,11.336 0,0 -2.4067,3.7433 -4.9121,5.0371 -1.9554,1.0098 -5.794,1.1059 -7.1816,2.9395 -1.4615,1.9311 -1.3876,4.3365 -0.63476,6.7168 0.35921,1.1358 3.5814,2.9366 4.6445,2.7031 l 4.8945,-1.0742 c 0,0 0.87992,4.4052 2.1484,5.877 1.102,1.2786 2.519,2.1449 4.1113,2.2129 2.0761,0.0885 2.7609,-0.25748 4.3516,-1.7422 0.94992,-0.88667 2.3594,-3.7774 2.3594,-3.7774 0,0 1.9351,1.9313 3.3125,2.1914 2.4963,0.47137 5.3835,-0.009 6.7812,-2.3555 1.0918,-1.832 -0.28212,-6.4173 -0.89062,-8.5078 0,0 -0.0559,4.4359 0.33008,5.9746 -1.7128,-3.8632 -6.4276,-3.7472 -7.9707,0.15234 -2.3259,-1.4662 -2.9531,-3.998 -2.9531,-3.998 l -1.2129,5.0664 c -0.61799,0.95966 -0.13542,2.2704 -1.334,2.9629 -0.18354,-4.8839 -3.3646,-5.3791 -6.1699,-4.1152 -0.88055,-1.7612 -0.42187,-4.7148 -0.42187,-4.7148 0,0 -2.7497,1.3202 -4.7344,1.8672 -1.1809,0.32544 -0.40738,-0.82285 -0.72461,-2.2383 -0.37191,-1.6593 -2.7194,-1.2112 -2.248,-1.4961 2.5136,-1.5195 5.2019,-2.0846 7.5957,-3.8652 2.1901,-1.6291 4.8457,-6.9336 4.8457,-6.9336 0,0 -8.5121,-7.1971 -12.402,-11.965 -3.1258,-3.8308 -6.873,-11.793 -6.873,-11.793 0,0 -15.365,4.8276 -23.957,5.2168 -5.1236,0.23207 -12.344,0.0253 -17.047,-2.4492 -8.3846,-4.4122 -13.59,-15.331 -21.256,-21.363 -4.8792,-3.8392 -8.9353,-8.2566 -14.719,-9.0312 -0.52568,-0.0704 -1.0675,-0.10963 -1.6191,-0.12109 z"
           id="path144"
           inkscape:connector-curvature="0"
           style="fill:#e4c900" />
        <path
           d="m 441.06,553.56 c 0,0 0.0938,0.22259 0.13476,0.3164 l 0.0274,-0.11914 -0.16211,-0.19726 z m 0.13476,0.3164 -0.78515,3.4297 -3.7441,3.7441 -4.3945,1.3809 -7.3262,-0.78906 -11.068,-1.5762 h -12.369 l -13.836,1.9707 -13.51,3.3516 -7.6504,3.3496 c 0,0 5.2023,0.94599 7.8125,0.78906 7.7697,-0.4671 15.239,-3.8871 22.951,-5.125 4.641,-0.74497 9.3187,-1.5564 13.998,-1.3809 6.0819,0.22818 11.988,2.8763 18.068,3.1543 3.2062,0.14654 6.7108,0.89376 9.6035,-0.78711 1.6618,-0.96557 3.3171,-2.7578 3.7422,-4.9297 0.40744,-2.0817 -1.145,-5.7868 -1.4922,-6.582 z m 38.908,20.691 -16.033,1.1426 -19.096,4.5684 c 21.864,3.899 48.145,-12.489 58.24,9.5234 l 0.14648,-3.4258 -4.3965,-6.668 -6.6016,-3.7793 -12.26,-1.3613 z m 23.111,15.234 -0.008,0.1836 0.23633,0.28711 c -0.0723,-0.16573 -0.15442,-0.30914 -0.22851,-0.47071 z m -100.3,21.006 c 24.407,15.815 27.34,39.828 59.402,29.217 -28.823,2.2741 -30.624,-25.836 -59.402,-29.217 z m -24.621,3.7461 c -28.334,11.228 -35.606,10.801 -39.195,14.852 -1.5181,1.7133 -1.5735,3.993 -2.9609,6.3652 -1.3792,2.3581 -4.0848,4.8064 -7.293,6.877 20.033,-0.40982 35.839,-21.636 49.449,-28.094 z m 96.789,23.256 c 2.8884,11.684 10.112,18.672 17.914,25.635 -3.4134,-11.776 -9.3053,-19.385 -17.914,-25.635 z m -185.89,14.9 c -15.655,1.3747 -16.444,7.6011 -22.701,10.49 16.61,-1.6248 15.293,-3.7315 22.701,-10.49 z"
           id="path146"
           inkscape:connector-curvature="0"
           style="fill:#fff1a1" />
        <path
           style="fill:none;stroke:#806600"
           inkscape:connector-curvature="0"
           id="path150"
           d="m 444.11,563.67 c 3.4713,-0.46177 10.598,-2.1754 12.991,-5.0069 1.1154,-1.3198 4.242,-5.0069 4.242,-5.0069 -0.66269,8.3242 -4.1867,13.72 -11.665,17.377 -5.9674,2.918 -12.856,3.593 -19.354,2.9452 -4.0918,-0.40789 -11.665,-2.9452 -11.665,-2.9452 4.1548,5.3933 2.0432,9.2001 -3.1815,11.781 0,0 0.77417,-5.1651 -0.79536,-5.8905 -3.3849,-1.5643 -7.2011,0.47395 -10.796,2.8679 -2.655,1.7682 -6.6751,2.5928 -9.3828,2.5567 -4.5109,-0.06 -7.0109,-0.12316 -11.229,-1.8988 -2.5442,-1.0707 -6.9577,-5.1556 -8.8276,-4.7497 -4.0366,0.87608 -9.1349,1.3687 -11.432,5.1591 -0.79793,1.3168 -0.70008,3.3784 0,4.7622 1.5708,3.1051 5.0989,4.7264 8.2164,5.5559 9.2719,2.467 16.839,2.4507 25.99,0.88421 9.4314,-1.6144 20.444,-4.8476 29.874,-6.799 9.3467,-1.9342 21.397,-5.589 28.48,-7.3554 12.518,-3.1218 18.134,-3.5516 27.502,-3.3856 16.406,0.29091 21.777,9.9671 21.278,20.528 -0.51322,10.849 -10.399,15.761 -18.863,18.805 -14.882,5.3513 -35.315,2.3038 -48.157,1.9382 0,0 4.3049,4.0049 6.2578,5.8357 2.2877,2.1447 3.4311,6.63 6.2579,7.7243 3.8771,1.5008 9.8074,-1.4748 13.906,-1.738 5.7315,-0.36803 15.471,0.38624 15.471,0.38624 1.4911,-1.6869 2.4574,-2.858 4.007,-3.3628 1.1112,-0.36283 2.8602,-0.3823 3.7521,-0.004 1.7649,0.74873 2.9523,3.0551 2.2122,7.3484 0,0 1.2231,1.9029 3.0896,2.3413 1.976,0.46496 4.2835,0.0548 5.4097,0.44937 1.8576,0.65072 4.8658,2.7027 4.8658,2.7027 0,0 -3.1886,1.1221 -4.5153,2.02 -0.90812,0.61459 -2.1199,2.6483 -2.1199,2.6483 0,0 4.3682,0.0838 6.1928,0.98283 1.9544,0.96298 3.76,3.6855 3.76,3.6855 0,0 -2.6301,-0.20694 -3.8836,0.67207 -0.95825,0.67198 -2.5304,2.522 -2.5304,2.522 0,0 5.113,-0.46161 6.8563,1.2285 1.5434,1.4963 3.3176,4.1769 3.3176,4.1769 0,0 -2.7586,-0.0647 -4.0646,0.35283 -0.84959,0.27162 -2.3494,1.3671 -2.3494,1.3671 0,0 3.5345,2.0468 5.087,4.4226 1.2402,1.8979 1.5482,6.1425 1.5482,6.1425 0,0 -2.0813,-1.7328 -3.3602,-2.3691 -0.79969,-0.39793 -2.6115,-0.33362 -2.6115,-0.33362 l 0.82805,8.7144 c 0.2036,2.1428 2.908,4.4628 3.3905,6.1206 0.6085,2.0905 0.45607,2.8761 -0.63572,4.7081 -1.3978,2.3462 -4.2847,2.8254 -6.781,2.354 -1.3774,-0.26008 -3.3129,-2.1909 -3.3129,-2.1909 0,0 -1.4094,2.8919 -2.3593,3.7785 -1.5907,1.4847 -2.3578,1.8951 -4.4339,1.8066 -1.5923,-0.068 -2.927,-0.9988 -4.029,-2.2774 -1.2685,-1.4718 -2.1474,-5.8777 -2.1474,-5.8777 l -4.8955,1.0751 c -1.0631,0.23347 -4.2852,-1.5676 -4.6444,-2.7035 -0.75282,-2.3803 -0.82578,-4.7863 0.63571,-6.7174 1.3877,-1.8336 5.2252,-1.9291 7.1806,-2.9389 2.5054,-1.2938 4.913,-5.0381 4.913,-5.0381 0,0 -8.1788,-6.9889 -11.716,-11.336 -1.9448,-2.39 -5.291,-7.9769 -5.291,-7.9769 0,0 -10.429,3.4895 -14.361,4.1984 -9.6992,1.7485 -20.03,0 -20.03,0 -14.826,0 -24.69,-25.293 -38.171,-31.068 -4.1139,-1.7622 -6.0504,-1.4863 -10.354,-0.41983 -15.621,3.8714 -32.297,25.861 -47.772,30.396 -6.3528,1.8615 -19.652,2.519 -19.652,2.519 0,0 -2.1776,5.2101 -4.2369,6.6976 -2.2395,1.6176 -7.8622,1.7234 -7.8622,1.7234 0,0 -1.438,6.23 -3.0853,8.597 -1.7211,2.4731 -6.4507,4.8697 -6.4507,4.8697 0.69875,-2.8417 1.1149,-5.0173 0.12729,-8.6084 0,0 -2.3515,4.971 -4.6382,7.3245 -1.9908,2.049 -6.8479,4.5813 -6.8479,4.5813 0.38971,-2.6503 1.504,-5.1663 0,-8.1672 0,0 -1.999,5.022 -3.737,6.8776 -1.7349,1.8523 -6.3234,3.8686 -6.3234,3.8686 0.88889,-2.8656 1.4569,-5.7313 0,-8.597 0,0 -1.9009,5.1492 -3.6046,6.8776 -2.3523,2.3864 -8.0088,4.9998 -8.0088,4.9998 0.95404,-2.9562 1.8717,-5.9122 1.166,-8.8684 l -3.8473,-0.008 c -4.6446,-0.01 -4.9406,4.727 -7.1032,6.8833 -2.1239,2.1178 -5.5743,2.1654 -7.2275,1.5055 -2.9162,-1.1641 -5.5087,-5.2566 -1.9685,-11.272 -6.1236,0.79053 -9.3146,-3.8397 -9.2992,-7.9594 0.0145,-3.9578 1.207,-7.4519 7.383,-7.0293 0,0 -0.79834,-3.4274 -0.4869,-5.231 0.43353,-2.5106 2.2126,-4.6897 4.6199,-4.4456 0.9898,0.10036 2.8266,0.88134 3.667,1.9742 1.3292,1.7285 1.6957,4.2441 3.9064,6.1204 2.5029,2.1243 8.4551,1.9524 8.4551,1.9524 0,0 11.568,-7.5568 19.198,-10.606 4.0599,-1.6223 15.59,-4.0742 15.59,-4.0742 l 0.36132,-34.192 c 6.9287,0.51626 3.9489,0.58869 9.8084,0.37735 8.4167,-0.30353 30.528,3.8156 30.528,3.8156 l 15.744,-1.3005 c 0,0 26.26,-4.7825 38.753,-6.2782 6.2936,-0.7535 12.653,-1.2952 18.973,-0.8969 9.5195,0.59993 17.695,3.4505 26.643,4.036 7.5236,0.4923 12.662,1.4191 20.184,0.89687 10.74,-0.74552 29.938,0.1294 36.038,-11.592 1.5832,-3.042 0.77027,-7.209 -1.5926,-9.5518 -3.1176,-3.0912 -5.3343,-4.2552 -9.4923,-3.1927 -2.193,0.56041 -4.9814,2.4198 -5.2548,4.7077 -0.1482,1.2403 0.0375,2.3341 0.97487,3.7988 1.6114,2.5184 3.4324,3.7335 3.4324,3.7335 0,0 -5.413,0.29907 -7.5345,-1.5864 -2.2328,-1.9844 -3.4837,-7.829 -3.4837,-7.829 -1.0497,1.6083 -1.8216,3.371 -1.6447,5.6606 0.15238,1.9733 -0.006,3.2082 1.9837,6.2028 0,0 -4.9288,-0.38234 -7.2889,-3.3896 -1.5863,-2.0212 -2.8817,-8.0972 -2.8817,-8.0972 -1.3985,1.5333 -2.252,4.0162 -2.3116,5.8469 -0.0861,2.6437 0.94564,3.8034 1.464,6.5815 0,0 -4.8583,-1.5861 -6.7804,-4.5194 -1.4916,-2.2762 -2.2873,-8.2549 -2.2873,-8.2549 -5.5889,1.5475 -16.257,3.7353 -27.874,6.5067 -8.1843,1.9525 -20.683,4.9531 -29.517,6.1864 -15.171,2.1182 -26.215,1.022 -35.541,-3.3748 -4.8531,-2.2881 -7.0397,-4.489 -8.2907,-9.6848 -0.71011,-2.9492 0.33588,-7.1272 2.7448,-10.38 3.3582,-4.5347 9.1914,-7.9291 15.707,-9.7228 0,0 17.257,-5.1475 27.308,-6.185 16.115,-1.6636 22.668,0.83822 29.402,1.7805 4.3766,0.61236 9.0855,-0.39218 10.464,-2.2197 1.1597,-1.5379 3.0783,-3.1954 0.49343,-6.9036 0,0 3.2752,0.0725 5.4497,4.5405 0.88814,1.8249 -0.20749,6.042 -0.20749,6.042 h 6e-5 z" />
        <path
           style="fill:#fee46e"
           inkscape:connector-curvature="0"
           id="path152"
           d="m 327.42,612.37 c 3.7416,2.3278 7.8508,-0.72239 8.6972,-1.0335 0,0 -1.7913,-1.2501 -3.0036,-4.2542 -0.815,-2.0196 -1.0971,-5.5883 -1.1723,-7.2612 -0.27955,-6.2137 2.1993,-7.1774 2.28,-6.7072 0,0 4.1168,-1.4112 5.8241,-2.7264 1.6184,-1.2449 2.366,-3.4066 2.8123,-5.3978 0.66946,-2.9868 -0.50768,-7.375 -0.50768,-7.375 -5.9819,-0.34569 -7.5028,0.44606 -8.904,2.2773 0,0 -0.12373,-3.0522 -0.95499,-5.8396 -0.41436,-1.3894 -1.3712,-3.458 -2.3519,-4.7971 -1.008,-1.3764 -2.0347,-2.0047 -2.0347,-2.0047 -0.0371,1.5852 -1.4617,3.0333 -2.1903,4.1391 0,0 -0.60697,-6.0706 -2.1293,-8.2479 -1.1742,-1.6795 -4.4152,-3.9157 -4.3914,-3.9088 0.024,0.008 -3.683,0.21187 -5.577,0.99424 -2.4554,1.0144 -6.2372,5.8018 -6.2372,5.8018 -0.0181,-1.3241 -0.43814,-3.3116 0.38455,-4.6671 0,0 -1.2034,-0.0238 -2.7941,0.59287 -1.5477,0.59992 -3.4683,1.8272 -4.5657,2.7746 -2.2019,1.9006 -3.9504,4.4054 -3.9504,4.4054 -0.0987,-2.399 -0.91576,-3.7804 -6.2749,-6.7152 0,0 -3.3557,3.063 -4.4005,5.94 -0.6968,1.9181 -1.2296,4.1426 -0.53843,6.0626 0.7298,2.0278 3.4381,5.4345 3.4381,5.4345 0.32113,-0.35274 1.8904,1.7946 -1.6924,6.879 -0.9645,1.3689 -3.1246,4.2235 -4.8992,5.486 -2.6397,1.8779 -4.8223,1.9662 -4.8223,1.9662 1.3327,3.4669 1.6961,4.8856 6.7707,5.5559 -11.566,8.3004 -12.878,21.542 -3.9985,32.822 0.57871,-1.3546 2.5614,-4.4303 3.7327,-5.6116 -0.12469,-0.0978 0.14926,6.5185 3.4505,9.8878 1.0712,1.0932 1.5924,7.1764 3.14,9.0897 1.4118,1.7455 3.3953,3.644 3.3953,3.644 0,0 1.5391,-4.8246 3.7962,-5.5764 2.273,-0.75728 6.5183,-1.9713 7.9188,-2.413 2.8186,-0.88897 7.8384,-6.8949 7.8384,-6.8949 l -0.88195,7.3444 c 15.216,-5.3944 18.689,-15.726 14.794,-29.666 z" />
        <path
           style="fill:#504416"
           inkscape:connector-curvature="0"
           id="path154"
           d="m 297.92,593.63 c 0.66304,4.3513 -1.4208,12.967 -3.0639,15.317 l 9.8912,3.9665 9.7614,1.1261 c -0.79677,-3.9973 3.1146,-11.808 5.0634,-14.464 l -7.1743,0.15447 -3.2028,-3.201 -5.8597,1.3005 -5.4152,-4.1997 z" />
        <path
           style="fill:#ffffff"
           inkscape:connector-curvature="0"
           id="path156"
           d="m 299.87,596.1 c -1.2928,4.6796 -0.54982,5.5433 -0.30859,7.3926 l 2.8535,-6.1113 -2.5449,-1.2812 z m 13.85,4.5059 -0.80469,6.6973 c 1.181,-1.4434 2.2687,-1.7844 3.6406,-6.4414 l -2.8359,-0.25586 z m -14.143,4.7148 c -1.181,1.4434 -2.2687,1.7863 -3.6406,6.4434 l 2.8359,0.25391 0.80468,-6.6973 z m 12.443,3.5527 -2.8535,6.1113 2.5449,1.2812 c 1.2928,-4.6796 0.54982,-5.5433 0.30859,-7.3926 z" />
        <g
           id="g174">
          <path
             style="fill:#ffefa7"
             inkscape:connector-curvature="0"
             id="path158"
             d="m 307.34,569.49 c -1.9643,-0.005 -3.8687,0.0891 -5.2812,0.31445 -3.5737,0.57012 -3.7266,2.0586 -3.7266,2.0586 6.5217,0.16463 11.174,2.6246 15.094,5.9883 l -3.7363,5.4629 c 0,0 1.15,1.9476 2.1367,2.2812 0.98399,0.33271 3.0723,-0.51563 3.0723,-0.51563 l -0.56836,-7.1894 c 5.6309,-0.0394 10.972,0.93477 15.918,3.2949 0,0 0.37603,-1.5687 -2.1797,-3.8691 -3.0391,-2.7355 -9.3008,-6.3326 -12.398,-7.123 -1.615,-0.4121 -5.0562,-0.6946 -8.3301,-0.70312 z m -2.3047,19.285 a 3.1358,3.0731 15.929 0 0 -3.0215,2.2168 3.1358,3.0731 15.929 0 0 2.1719,3.8164 3.1358,3.0731 15.929 0 0 3.8594,-2.0957 3.1358,3.0731 15.929 0 0 -2.1719,-3.8144 3.1358,3.0731 15.929 0 0 -0.83789,-0.12305 z m 9.3945,2.6816 a 3.1358,3.0731 15.929 0 0 -3.0215,2.2168 3.1358,3.0731 15.929 0 0 2.1719,3.8164 3.1358,3.0731 15.929 0 0 3.8594,-2.0957 3.1358,3.0731 15.929 0 0 -2.1719,-3.8144 3.1358,3.0731 15.929 0 0 -0.83789,-0.12305 z m -19.158,9.5996 c -6.7009,0.003 -14.093,8.5546 -14.014,18.582 4.7635,-6.5596 14.791,-14.157 14.658,-18.555 -0.21445,-0.0179 -0.42837,-0.0275 -0.64453,-0.0273 z m 22.904,8.8613 c -0.85059,4.1168 2.6022,12.789 1.6113,20.426 4.4081,-9.7788 2.953,-18.727 -1.6113,-20.426 z m -25.82,7.0547 c 0,0 -1.752,3.5602 -1.8398,6.4453 -0.0587,1.9305 -0.001,3.9551 0.70703,5.752 0.73274,1.8589 5.3691,5.373 5.3691,5.373 l -1.248,4.3496 c 0,0 4.9814,-2.1529 6.0117,-3.8359 0.78663,-1.285 3.1641,-6.5801 3.1641,-6.5801 l -5.2207,4.0644 c 0,0 -5.2698,-4.1664 -6.1309,-6.4453 -1.3247,-3.5059 -0.81055,-9.123 -0.81055,-9.123 h -0.002 z" />
          <path
             style="fill:#ffffff"
             inkscape:connector-curvature="0"
             id="path160"
             d="m 300.83,576.49 c -1.8531,-0.10564 -3.158,0.56715 -3.5781,2.0391 -0.56013,1.9626 0.81517,4.0764 3.7227,4.9062 2.9075,0.82982 5.7387,-0.65269 6.2988,-2.6152 0.56013,-1.9625 -1.5125,-3.137 -4.4199,-3.9668 -0.72687,-0.20746 -1.4057,-0.32807 -2.0234,-0.36328 z m 20.373,5.8965 c -1.456,-0.0585 -2.5171,0.36325 -2.8672,1.5898 -0.56013,1.9626 1.0613,4.7151 3.9688,5.5449 2.9075,0.82982 5.1918,-0.23863 5.752,-2.2012 0.56013,-1.9625 -0.96752,-3.5491 -3.875,-4.3789 -1.0903,-0.31118 -2.1049,-0.51956 -2.9785,-0.55469 z" />
          <path
             inkscape:connector-curvature="0"
             id="path162"
             style="color:#000000;text-indent:0;text-decoration:none;text-decoration-line:none;text-transform:none;fill:#d1b948"
             d="m 300.85,576 c -0.67372,-0.0332 -1.2956,0.0265 -1.8438,0.1836 -1.0962,0.31412 -1.8952,1.0899 -2.2168,2.2168 -0.32164,1.1269 -0.0694,2.3046 0.64453,3.2871 0.7139,0.98251 1.8749,1.8029 3.4141,2.2422 3.1349,0.89474 6.206,-0.66376 6.8672,-2.9805 0.3306,-1.1583 -0.16738,-2.186 -1.0723,-2.9023 -0.90488,-0.71638 -2.156,-1.2487 -3.6387,-1.6719 -0.75546,-0.21561 -1.4806,-0.34182 -2.1543,-0.375 z m -0.0332,0.96485 c 0.57603,0.0343 1.2216,0.14836 1.9199,0.34765 1.4248,0.40666 2.5868,0.94342 3.3047,1.5117 0.71785,0.5683 0.96585,1.0532 0.73633,1.8574 -0.45906,1.6084 -2.9821,3.0754 -5.6621,2.3106 -1.3683,-0.39052 -2.3334,-1.0676 -2.8945,-1.8398 -0.56116,-0.77228 -0.73264,-1.6488 -0.49414,-2.4844 0.23849,-0.83562 0.75008,-1.3322 1.5879,-1.5723 0.4189,-0.12004 0.92592,-0.16518 1.502,-0.13086 z m 20.406,4.9512 c -0.31043,-0.008 -0.60981,0.004 -0.89648,0.0371 -1.1467,0.13084 -2.1108,0.74009 -2.4414,1.8984 -0.66121,2.3167 1.1248,5.2615 4.2598,6.1562 1.5392,0.43929 2.9571,0.35612 4.082,-0.10157 1.1249,-0.45768 1.9616,-1.3242 2.2832,-2.4512 0.3216,-1.127 0.0524,-2.2092 -0.71289,-3.0547 -0.7653,-0.84543 -1.9852,-1.516 -3.4961,-1.9473 -1.112,-0.31737 -2.1468,-0.51385 -3.0781,-0.53711 z m -0.0488,0.98633 c 0.808,0.0192 1.7908,0.18328 2.8594,0.48828 1.3966,0.39859 2.4346,0.97497 3.0195,1.6211 0.58488,0.64613 0.75803,1.3402 0.51953,2.1758 -0.23849,0.83563 -0.84622,1.4879 -1.7305,1.8477 -0.88428,0.3598 -2.0614,0.42568 -3.4297,0.0352 -2.68,-0.76491 -4.0489,-3.3428 -3.5898,-4.9512 0.22953,-0.8042 0.6958,-1.0837 1.6055,-1.1875 0.22742,-0.0259 0.47676,-0.0357 0.74609,-0.0293 z" />
          <path
             style="fill:#e4c900"
             inkscape:connector-curvature="0"
             id="path164"
             d="m 300.95,572.13 c -1.3284,-0.17933 -2.9262,0.0476 -3.8894,0.97979 -0.57764,0.55901 -0.66853,2.3424 -0.66853,2.3424 l 2.0829,0.0245 2.3424,0.66853 5.053,2.2655 5.5375,-0.31943 c 0,0 -3.0253,-1.2381 -4.5052,-2.0758 -1.9983,-1.1312 -3.6769,-3.5783 -5.9526,-3.8854 z m 26.527,7.5711 c -1.9121,-0.48919 -4.103,0.52472 -6.1106,0.44249 -1.6991,-0.0696 -5.0399,-0.64848 -5.0399,-0.64848 l 4.5347,3.1941 5.4876,0.74293 2.2838,0.65182 1.782,1.0786 c 0,0 0.86409,-1.5627 0.66853,-2.3424 -0.3261,-1.3002 -1.5634,-2.3362 -2.7863,-2.8851 -0.26188,-0.11751 -0.54667,-0.16414 -0.81983,-0.23399 z" />
          <path
             style="fill:#e4c900"
             inkscape:connector-curvature="0"
             id="path166"
             d="m 295.34,609.11 c -5.3114,12.847 15.237,19.344 18.243,5.2068 -5.5159,-0.38641 -11.291,-1.3909 -18.243,-5.2068 z" />
          <path
             inkscape:connector-curvature="0"
             id="path168"
             style="color:#000000;text-indent:0;text-decoration:none;text-decoration-line:none;text-transform:none;fill:#806600"
             d="m 294.85,607.8 -0.41795,1.0206 c -1.4237,3.4434 -1.106,6.6198 0.26186,9.0675 1.36786,2.4477 3.7426,4.1282 6.3838,4.9251 2.6412,0.79698 5.5655,0.70727 8.0887,-0.60454 2.5232,-1.3118 4.5498,-3.8854 5.3514,-7.6554 l 0.24238,-1.0707 -1.1209,-0.0666 c -5.4457,-0.38149 -11.044,-1.3564 -17.86,-5.0976 l -0.92865,-0.51837 -10e-5,-2e-5 z m 0.64057,1.572 c 6.0086,3.0708 13.214,4.5848 18.093,5.019 -0.81132,2.6161 -2.4432,5.7416 -4.2082,6.6593 -2.0091,1.0445 -5.9026,1.32 -8.1104,0.65385 -2.2078,-0.66621 -5.0649,-3.4099 -6.15,-5.3518 -0.95779,-1.714 -0.40616,-4.4596 0.37579,-6.9805 l -3e-5,9e-5 z" />
          <path
             style="fill:#377bc8;stroke:#2c5aa0"
             inkscape:connector-curvature="0"
             id="path170"
             d="m 303.79,597.86 c -2.5593,8.4523 -4.7858,18.005 -3.0526,26.804 6.1166,-6.5588 9.2446,-15.767 11.532,-24.296 0.0107,-0.34427 -1.681,-1.106 -1.8968,-1.378 -0.53063,-0.66864 -1.4296,-2.2494 -1.4296,-2.2494 0,0 -1.7091,1.0797 -2.6751,1.3081 -0.82361,0.19472 -2.4781,-0.18866 -2.4781,-0.18866 z" />
          <path
             style="fill:#e4c900"
             inkscape:connector-curvature="0"
             id="path172"
             d="m 319.21,559.18 c 0.024,0.008 -3.6822,0.21176 -5.5762,0.99414 -2.4554,1.0144 -6.2363,5.8027 -6.2363,5.8027 -0.0181,-1.3241 -0.43988,-3.3125 0.38282,-4.668 0,0 -1.2023,-0.0229 -2.793,0.59375 -1.5477,0.59992 -3.469,1.8261 -4.5664,2.7734 -2.2019,1.9006 -3.9492,4.4062 -3.9492,4.4062 1.9404,-0.0679 6.255,-3.9598 7.9238,-3.582 1.416,0.32045 0.43397,4.1079 1.8008,4.2812 1.8639,0.2364 3.5212,-2.6814 5.8398,-4.7227 2.0562,-1.8103 4.9132,-3.1869 6.2793,-2.7402 1.3748,0.44953 3.0821,3.135 3.8086,5.7598 0.85834,3.1014 1.4918,6.444 2.916,7.1406 1.4145,0.69189 2.6433,-3.1532 4.084,-2.6699 1.7109,0.57403 2.5039,6.4302 4.1387,7.2891 0,0 -0.12382,-3.0524 -0.95508,-5.8398 -0.41436,-1.3894 -1.3708,-3.4577 -2.3516,-4.7969 -1.008,-1.3764 -2.0352,-2.0039 -2.0352,-2.0039 -0.0371,1.5852 -1.4609,3.0328 -2.1894,4.1387 0,0 -0.60661,-6.0707 -2.1289,-8.248 -1.1742,-1.6795 -4.4164,-3.9151 -4.3926,-3.9082 z m -24.668,21.662 c -2.1084,3.5763 0.54092,7.0118 4.8066,7.7754 l -1.6523,4.2051 2.4219,4.7441 4.4141,1.5371 4.1758,-1.6504 2.7754,3.7676 3.875,0.8711 4.9863,-2.998 1.9941,-3.377 3.1152,-0.18946 2.6621,-1.2773 0.94531,-3.3164 c -2.4754,1.7732 -4.9196,3.5084 -9.9336,1.4238 -0.14385,2.6557 -0.79174,4.3052 -1.7109,5.2461 -1.0973,1.1232 -2.5812,1.2374 -4.0508,0.85156 -1.8329,-0.48119 -3.4012,-2.5542 -4.127,-3.6524 -1.813,1.0864 -3.363,1.9109 -4.4844,1.5449 -2.3435,-0.76492 -3.6575,-2.1587 -4.041,-3.7676 -0.4062,-1.7042 0.2323,-3.6492 1.793,-5.3398 -9.2834,-2.4522 -5.9535,-4.9245 -7.9648,-6.3984 z m -4.7949,1.2031 c -0.9645,1.3689 -5.6863,8.9133 -7.4609,10.176 -2.6397,1.8779 -4.8223,1.9648 -4.8223,1.9648 1.3327,3.4669 1.695,4.8863 6.7695,5.5566 -11.566,8.3004 -12.878,21.542 -3.998,32.822 0.57872,-1.3545 2.5611,-4.4301 3.7324,-5.6113 -0.12469,-0.0978 0.14993,6.5194 3.4512,9.8887 1.0712,1.0932 1.5929,7.1746 3.1406,9.0879 1.4119,1.7454 3.3945,3.6445 3.3945,3.6445 0,0 1.5398,-4.8243 3.7969,-5.5762 2.273,-0.75727 6.5175,-1.9704 7.918,-2.4121 2.8186,-0.88898 7.8379,-6.8965 7.8379,-6.8965 l -0.88086,7.3457 c 15.216,-5.3944 18.689,-15.726 14.793,-29.666 3.7417,2.3278 7.8509,-0.72208 8.6973,-1.0332 0,0 -1.7915,-1.2517 -3.0039,-4.2559 -0.815,-2.0196 -1.04,-5.5904 -1.1719,-7.2598 l -0.36133,-4.5742 c 0,0 -1.7208,5.1365 -2.1289,6.5664 -0.4081,1.4299 0.14453,6.5137 0.14453,6.5137 -2.4708,-0.87158 -4.9593,-1.6815 -7.1387,-3.5742 0,0 2.6148,10.316 2.8965,15.23 0.15219,2.6556 -0.75125,7.3712 -1.7754,9.8262 -1.0853,2.6016 -6.3691,6.5918 -6.3691,6.5918 0,0 1.2689,-6.6024 1.2441,-8.8672 -0.0352,-3.2166 -1.3106,-11.387 -1.3106,-11.387 0,0 -1.8262,8.3735 -3.2773,10.869 -1.6512,2.8397 -4.6797,7.8477 -4.6797,7.8477 0.84907,-8.0083 0.42421,-8.4689 -0.60779,-11.497 0,0 -1.8968,9.962 -5.4156,14.243 -0.87828,1.0685 -4.2122,1.9253 -6.1172,2.918 -2.1145,1.1019 -2.7676,2.2871 -2.7676,2.2871 0,0 -1.9942,-5.5735 -2.5488,-6.8613 -1.2282,-2.8516 -3.6667,-5.8464 -4.498,-8.8379 -1.2216,-4.3962 4.6719,-13.85 4.6719,-13.85 -2.1817,0.0397 -4.366,2.603 -6.7188,5.4277 -1.9222,2.3078 -4.118,4.7444 -5.1777,6.502 0,0 -1.8844,-6.8693 -1.8535,-8.9062 0.0437,-2.8878 1.1307,-5.7824 2.6152,-8.2598 2.4092,-4.0204 13.002,-12.275 13.002,-12.275 -2.9156,0.78462 -5.5539,1.8217 -11.082,0.21289 0,0 4.3736,-5.1304 5.0898,-6.3359 2.1968,-3.6977 1.3692,-5.0991 1.9707,-7.5859 z m 19.738,4.2207 c -2.192,-0.0397 -4.9492,0.25196 -4.9492,0.25196 l 0.29493,1.8945 1.9902,0.76953 2.6938,4.0088 6.8589,-1.8388 0.91211,-1.5703 c 0,0 -3.8702,-2.8745 -5.9199,-3.3418 -0.4819,-0.10988 -1.1502,-0.16058 -1.8809,-0.17383 z" />
        </g>
        <path
           style="fill:none;stroke:#806600"
           inkscape:connector-curvature="0"
           id="path176"
           d="m 327.42,612.37 c 3.7417,2.3278 7.8508,-0.72239 8.6972,-1.0335 0,0 -1.7913,-1.2501 -3.0036,-4.2542 -0.815,-2.0196 -1.0971,-5.5883 -1.1723,-7.2612 -0.27954,-6.2137 2.1993,-7.1774 2.28,-6.7072 0,0 4.1169,-1.4112 5.8241,-2.7264 1.6184,-1.2449 2.366,-3.4066 2.8123,-5.3978 0.66946,-2.9868 -0.50767,-7.375 -0.50767,-7.375 -5.9819,-0.3457 -7.5028,0.44606 -8.904,2.2773 0,0 -0.12373,-3.0522 -0.95499,-5.8396 -0.41435,-1.3894 -1.3712,-3.458 -2.3519,-4.7971 -1.008,-1.3764 -2.0347,-2.0047 -2.0347,-2.0047 -0.0371,1.5852 -1.4617,3.0333 -2.1903,4.1391 -0.67605,-5.603 -1.9241,-8.8012 -6.5207,-12.157 -5.3391,0.12615 -8.4234,2.7207 -11.814,6.7961 -0.0181,-1.3241 -0.43815,-3.3116 0.38455,-4.6671 0,0 -1.2034,-0.0238 -2.7941,0.59287 -1.5477,0.59991 -3.4683,1.8272 -4.5657,2.7746 -2.2019,1.9006 -3.9504,4.4054 -3.9504,4.4054 -0.0987,-2.399 -0.91576,-3.7804 -6.2749,-6.7152 0,0 -3.3557,3.063 -4.4005,5.94 -0.69679,1.9181 -1.2296,4.1426 -0.53843,6.0626 0.72981,2.0278 3.4381,5.4345 3.4381,5.4345 0.32112,-0.35275 1.8904,1.7946 -1.6924,6.879 -0.9645,1.3689 -3.1246,4.2235 -4.8992,5.486 -2.6397,1.8779 -4.8223,1.9662 -4.8223,1.9662 1.3327,3.4669 1.6961,4.8856 6.7707,5.5559 -11.566,8.3004 -12.878,21.542 -3.9985,32.822 0.57872,-1.3545 2.5614,-4.4303 3.7327,-5.6116 -0.12468,-0.0978 0.14926,6.5185 3.4505,9.8879 1.0712,1.0932 1.5924,7.1764 3.14,9.0897 1.4119,1.7454 3.3953,3.644 3.3953,3.644 0,0 1.5391,-4.8246 3.7962,-5.5764 2.273,-0.75727 6.5183,-1.9713 7.9188,-2.413 2.8186,-0.88898 7.8384,-6.8949 7.8384,-6.8949 l -0.88196,7.3444 c 15.216,-5.3944 18.689,-15.726 14.794,-29.666 z" />
        <g
           id="g184">
          <path
             inkscape:connector-curvature="0"
             id="path178"
             style="color:#000000;text-indent:0;text-decoration:none;text-decoration-line:none;text-transform:none;fill:#806600"
             d="m 290.38,566.57 c 0,0 -2.4398,3.7677 -2.0781,6.2207 0.28751,1.9498 3.6426,6.3398 3.6426,6.3398 0,0 2.0628,-6.3738 1.7383,-8.7422 -0.23796,-1.7371 -3.3027,-3.8184 -3.3027,-3.8184 z m 8.248,8.1348 c -0.43331,0.0156 -0.87697,0.12496 -1.332,0.34765 -0.9102,0.44556 -1.53,0.58514 -1.916,1.9336 1.1182,-0.1793 1.8403,-0.58483 2.7578,-0.9961 0.22005,-0.10783 0.55695,-0.10889 1.1426,0.11719 1.1712,0.45203 2.7973,1.7564 4.5937,2.2754 2.5725,0.74231 5.8988,-0.13399 7.209,-0.27539 -0.14164,0.53888 -0.39329,2.1268 -0.96289,2.957 -0.29043,0.42329 -2.4288,1.2408 -3.4141,2.1758 -0.49261,0.46749 -0.97512,0.94368 -1.3828,1.3887 -0.40769,0.44497 -0.75006,0.80067 -0.95507,1.3633 -0.41334,1.1344 -0.18555,2.3379 -0.18555,2.3379 l 0.0469,0.64257 0.61524,0.19727 c 2.2677,0.73984 2.6605,1.5679 3.2246,3.332 l 0.0879,0.27734 0.20508,0.16211 c 0.23996,0.21136 0.4165,0.38079 0.6289,0.51563 0.21242,0.13479 0.49204,0.2463 0.74024,0.27539 0.49641,0.0582 0.58981,-0.042 1.0527,-0.0156 l 0.39063,0.0273 0.30664,-0.26758 c 1.4102,-1.2006 2.201,-1.6916 4.5176,-1.123 l 0.60547,0.15235 0.40039,-0.51563 c 0,0 0.80903,-0.90816 1.0566,-2.0898 0.12289,-0.58604 -0.16007,-0.8893 -0.27148,-1.4824 -0.11141,-0.59313 -0.26974,-1.2511 -0.44141,-1.9082 -0.34333,-1.3141 -1.4357,-3.7118 -1.459,-4.2246 -0.0456,-1.0057 0.4818,-2.3486 0.64648,-2.8809 1.0458,0.81565 3.3979,3.5704 5.9609,4.293 1.7997,0.50758 3.87,0.25797 5.1035,0.49219 0.61674,0.11705 0.90119,0.29613 1.0312,0.50391 l 1.8184,2.3027 c 0.38371,-1.3491 -0.0734,-2.2095 -0.61133,-3.0684 -0.53789,-0.85885 -1.0136,-0.76307 -1.8809,-0.92773 -1.7345,-0.32929 -3.7372,-0.12643 -4.9238,-0.46094 -2.9219,-0.8238 -5.7286,-3.9512 -5.7286,-3.9512 l -0.82422,-0.71875 -0.61719,0.91406 c 0,0 -1.1242,1.6982 -1.002,4.3926 0.0473,1.0422 1.0807,3.0762 1.418,4.3672 0.16864,0.64549 0.32174,1.2734 0.41601,1.7754 0.0943,0.50195 0.0757,0.91609 0.0781,0.90429 -0.0469,0.2283 -0.26205,0.54398 -0.45313,0.85547 -2.1879,-0.31965 -4.6102,0.71518 -5.9629,1.7871 -0.23849,0.004 -0.56205,-0.0147 -0.54297,-0.008 -0.0296,-0.0206 -0.11649,-0.10222 -0.18555,-0.1582 -0.58083,-1.6476 -2.4301,-4.1749 -4.4805,-5.0684 0.002,-0.36542 -0.0134,-0.74788 0.0664,-0.9668 -0.004,0.0111 0.21755,-0.34411 0.5625,-0.7207 0.34501,-0.37657 0.80707,-0.82983 1.291,-1.2891 0.96788,-0.91848 2.9937,-1.8194 3.584,-2.6797 1.526,-2.224 1.4668,-4.2598 1.4668,-4.2598 l -0.0606,-1.1074 -1.0781,0.17578 c 0,0 -3.7436,1.1942 -6.6602,0.35157 -1.1845,-0.34212 -2.7787,-1.5712 -4.4258,-2.207 -0.41177,-0.15896 -0.83427,-0.23827 -1.2676,-0.22265 z m -3.9551,5.2266 c -1.5974,2.1536 -1.8483,4.4578 -0.92187,6.2402 0.77286,1.487 2.3305,2.4273 4.1484,3.0293 -0.10518,0.29183 -0.13261,0.33928 -0.25977,0.76562 -0.27691,0.92761 -0.56342,2.0106 -0.45313,3.0586 0.22728,2.147 1.4241,3.8725 2.9668,5.1894 1.3463,1.1492 3.1607,1.6324 4.8438,1.5488 1.0371,-0.0515 1.9554,-0.44785 2.6894,-0.82617 0.26172,-0.13487 0.29074,-0.16893 0.50391,-0.29688 0.40937,0.83841 1.0262,1.8594 2.1797,2.6582 1.3854,0.95937 3.1621,1.4998 4.9121,1.2344 2.0054,-0.30425 3.9315,-1.1382 5.2578,-2.8418 0.64746,-0.83169 0.97588,-1.9039 1.2305,-2.8379 0.0909,-0.33288 0.0735,-0.34782 0.13281,-0.61328 1.9523,0.58356 3.799,0.40933 5.1914,-0.55273 1.6564,-1.1445 2.5554,-3.2373 2.4961,-5.7266 -1.4282,0.72431 -0.15525,2.8497 -3.2871,4.791 -1.0184,0.70368 -2.4946,0.85873 -4.4043,0.002 l -1.4551,-1.1953 0.0937,2.0684 c 0,0 -0.12573,0.69941 -0.35352,1.5352 -0.22835,0.83558 -0.61873,1.8115 -0.88867,2.1582 -0.96273,1.2366 -2.6222,1.8567 -4.3008,2.1113 -1.1253,0.17073 -2.5082,-0.22357 -3.5137,-0.91992 -0.96359,-0.66727 -1.8414,-2.5044 -1.8848,-2.6875 l -0.47461,-2 -1.0098,1.1191 c -0.24766,0.27482 -0.94255,0.56362 -1.543,0.87305 -0.60043,0.30945 -1.3099,0.56489 -1.8906,0.59375 -1.2216,0.0607 -2.6226,-0.34112 -3.4883,-1.0801 -1.2913,-1.1023 -2.4952,-2.9454 -2.6602,-4.5039 -0.0463,-0.43698 0.13713,-1.4726 0.38476,-2.3027 0.24709,-0.83023 0.73438,-1.4922 0.73438,-1.4922 l 0.82812,-1.0664 -1.668,0.10351 c -1.9214,-0.40856 -3.2791,-1.3632 -3.8496,-2.4609 -2.0718,-2.2905 -0.20099,-3.952 -0.28711,-5.6758 z m 45.156,0.75195 c 0,0 -3.7013,0.15215 -4.8203,1.502 -1.5257,1.8404 -3.1367,8.3398 -3.1367,8.3398 0,0 5.1661,-1.9566 6.4394,-3.4609 1.602,-1.8926 1.5176,-6.3809 1.5176,-6.3809 z" />
          <path
             style="fill:#2b2200"
             inkscape:connector-curvature="0"
             id="path180"
             d="m 302.44,577.81 a 2.053,2.053 0 0 0 -1.9902,1.4902 2.053,2.053 0 0 0 1.4121,2.5371 2.053,2.053 0 0 0 2.5371,-1.4102 2.053,2.053 0 0 0 -1.4102,-2.5371 2.053,2.053 0 0 0 -0.54882,-0.0801 z m 20.479,5.8633 a 2.053,2.053 0 0 0 -1.9297,1.4883 2.053,2.053 0 0 0 1.4121,2.5391 2.053,2.053 0 0 0 2.5371,-1.4121 2.053,2.053 0 0 0 -1.4102,-2.5371 2.053,2.053 0 0 0 -0.60937,-0.0781 z" />
          <path
             style="fill:#377bc8;stroke:#2c5aa0"
             inkscape:connector-curvature="0"
             id="path182"
             d="m 246.54,647.14 c -1.5048,0.69835 -3.6989,-0.96347 -8.1875,3.7695 3.7069,-0.15362 4.9244,0.5522 7.3027,3.5195 1.5799,-0.23305 2.4368,-1.055 2.7637,-2.1426 0.65781,-2.1882 0.002,-4.0838 -1.8789,-5.1465 z M 352,653.2025 c -1.82,0.70454 -4.4828,-0.94679 -9.9023,3.8047 4.4885,-0.16889 5.9671,0.53275 8.8574,3.4902 1.9125,-0.23958 2.9458,-1.0654 3.3379,-2.1543 0.78898,-2.1908 -0.0118,-4.0857 -2.293,-5.1406 z m -113.23,7.0352 c -1.1541,1.3621 -3.712,0.88597 -6.2891,7.3828 3.3546,-1.9164 4.7059,-1.8501 7.8594,-0.26367 1.375,-0.97071 1.8929,-2.1356 1.8379,-3.291 -0.11052,-2.3248 -1.3338,-3.7527 -3.4082,-3.8281 z m 115.45,10.078 c -1.3122,1.4446 -4.4326,1.1573 -7.1524,7.832 3.9382,-2.16 5.5741,-2.1929 9.4824,-0.8418 1.603,-1.0702 2.1583,-2.2726 2.0215,-3.4219 -0.27506,-2.3123 -1.8395,-3.6459 -4.3516,-3.5684 z m -107.3,5.4766 c -0.61273,-0.0317 -1.2774,0.1597 -1.9707,0.58789 -0.47107,1.8663 -2.9021,2.9396 -2.582,10.137 2.1803,-3.6337 3.3903,-4.3632 6.7852,-4.8086 0.82016,-1.6518 0.81158,-2.9759 0.30469,-3.957 -0.63749,-1.2337 -1.5159,-1.9061 -2.5371,-1.959 z m 229.38,0.76953 c -0.43415,0.0219 -0.89571,0.14253 -1.3809,0.36523 -0.63641,1.793 -3.1502,2.5379 -3.4805,9.7344 2.4947,-3.324 3.763,-3.8887 7.1777,-3.8828 0.96408,-1.5336 1.0757,-2.8503 0.66015,-3.8926 -0.62704,-1.5727 -1.6741,-2.3899 -2.9766,-2.3242 z m -106.31,4.8652 c -0.74121,0.0469 -1.519,0.32141 -2.3086,0.83594 -0.37009,1.9162 -3.185,3.2943 -2.0391,10.41 2.2417,-3.8924 3.621,-4.7712 7.6621,-5.6484 0.81318,-1.7475 0.66341,-3.0639 -0.0508,-3.9746 -0.89804,-1.1452 -2.0283,-1.7011 -3.2637,-1.623 z m 133.15,0.49024 c -1.2405,-0.11343 -2.3343,0.66976 -3.0918,2.3164 0.46736,1.8677 -1.0591,4.3973 2.5176,10.158 0.13905,-4.4886 0.80946,-5.9101 3.4238,-8.5703 -0.0788,-1.9251 -0.69601,-3.0175 -1.5684,-3.4902 -0.43878,-0.23779 -0.86776,-0.37625 -1.2812,-0.41406 z m -14.68,2.0898 c -0.79104,0.0726 -1.5768,0.55483 -2.3008,1.4551 0.0489,1.9507 -1.9699,3.9104 0.24218,10.602 1.101,-4.2893 2.0535,-5.4491 5.1504,-7.1914 0.33859,-1.8833 -0.0195,-3.1333 -0.75976,-3.8652 -0.74476,-0.73632 -1.541,-1.0726 -2.332,-1 z" />
        </g>
      </g>
    </g>
  </g>
</svg>
