<?xml version="1.0" encoding="UTF-8" standalone="no"?>
<svg height="300" width="231.89999" xmlns="http://www.w3.org/2000/svg" xmlns:xlink="http://www.w3.org/1999/xlink">
 <g transform="matrix(3.150017 0 0 3.150017 -350.0224 363.88558)">
  <path d="m115.95117 0c-41.220396.05418029-80.265087 10.53796-107.6621075 23.445312l.0019531.035157c-2.84914 1.190766-5.6373433 2.3844-8.2910156 3.578125l8.953125 140.238286c6.203328 73.28338 53.958598 115.94862 107.021485 132.70312 53.06289-16.7545 100.81819-59.41974 107.02148-132.70312l8.9043-139.792974c-2.66634-1.380165-5.43466-2.728481-8.28906-4.044922v-.013672c-27.38489-12.901634-66.40529-23.38201445-107.60547-23.445312-.01826-.00002805-.03643.00002396-.05469 0z" fill="#005be5" fill-rule="evenodd" transform="matrix(.3174586 0 0 .3174586 111.11762 -115.51861)"/>
  <path d="m147.93437-84.711566-8.31445 16.236187-5.37524-6.98291-14.04559 18.561778c.25384 1.15219.55195 2.264368.87746 3.350324 1.56869 2.647443 4.58316 5.669782 8.44944 5.66978 3.06807 0 6.13613-2.454448 9.20419-2.45445 3.06807 0 6.13613 2.454452 9.20419 2.45445 3.06806 0 6.13612-2.454448 9.20419-2.45445 3.06806 0 6.13612 2.454452 9.20419 2.45445 3.83134 0 6.82572-2.966174 8.40649-5.596146.3374-1.115063.64046-2.263565.90201-3.448503l-14.02719-18.537233-5.37524 6.98291zm-9.20419 36.835159c-3.06806 0-6.13612 2.454452-9.20419 2.45445-2.42818 0-4.51412-.86-6.12998-2.080147.57062 1.211079 1.17422 2.388922 1.8347 3.503728 1.26575.787052 2.70426 1.319269 4.29528 1.319267 3.06807 0 6.13613-2.454452 9.20419-2.45445 3.06807 0 6.13613 2.454454 9.20419 2.45445 3.06806 0 6.13612-2.454452 9.20419-2.45445 3.06806 0 6.13612 2.454454 9.20419 2.45445 1.56857 0 2.98703-.52035 4.24006-1.288587.66018-1.111198 1.26336-2.284992 1.8347-3.491455-1.6082 1.197358-3.67487 2.037194-6.07476 2.037194-3.06807 0-6.13613-2.454448-9.20419-2.45445-3.06807 0-6.13613 2.454452-9.20419 2.45445-3.06806 0-6.13612-2.454448-9.20419-2.45445zm0 5.197298c-3.06806 0-6.13612 2.454454-9.20419 2.45445-.66657 0-1.30044-.07808-1.91447-.196356 5.30791 7.091078 12.54952 11.837649 20.31671 14.56716 7.75116-2.725014 14.98132-7.474976 20.28603-14.554888-.6005.11285-1.22106.184084-1.87151.184084-3.06807 0-6.13613-2.454446-9.20419-2.45445-3.06807 0-6.13613 2.454454-9.20419 2.45445-3.06806 0-6.13612-2.454446-9.20419-2.45445z" fill="#fff" fill-rule="evenodd"/>
  <g id="a" fill="#ffe500" transform="translate(0 -.00067)">
   <path id="b" d="m134.0937-109.56066h6.96082l-3.48041 6.02733" fill="#ffe500" fill-rule="evenodd"/>
   <use fill="#ffe500" height="300" transform="matrix(1 0 0 -1 .0003 -215.1037)" width="600" xlink:href="#b"/>
  </g>
  <use fill="#ffe500" height="300" transform="translate(20.7203)" width="600" xlink:href="#a"/>
  <use fill="#ffe500" height="300" transform="translate(10.3603 13.875)" width="600" xlink:href="#a"/>
  <path d="m182.10496-108.07197-2.63825 44.188745c-1.82815 22.618702-15.90219 35.787129-31.54001 40.958359-15.63782-5.17123-29.71125-18.339657-31.53939-40.958359l-2.63763-44.181925c-.90453.37803-1.78959.75755-2.63206 1.13652l2.84225 44.519231c1.9693 23.264446 17.12962 36.809509 33.97489 42.128369 16.84527-5.31886 32.0056-18.863923 33.97489-42.128369l2.82675-44.377861c-.84646-.43814-1.72528-.8668-2.63144-1.28471z" fill="#f00" fill-rule="evenodd"/>
 </g>
</svg>