<?xml version="1.0" encoding="UTF-8"?>
<svg xmlns="http://www.w3.org/2000/svg" xmlns:xlink="http://www.w3.org/1999/xlink" width="90" height="80">
<clipPath id="c">
<path id="s" d="m3.431,4c0,35 16.569,62 41.569,72c25,-10 41.569,-37 41.569,-72z"/>
</clipPath>
<g clip-path="url(#c)">
<rect width="90" height="80" fill="#0152bd"/>
<rect width="90" height="28" fill="#84c6de"/>
</g>
<path d="m45,8 1.3681,4.2412 3.7742,-2.3696 -1.68,4.129 4.4144,0.61082 -3.9392,2.0838 3,3.305 -4.36,-0.936 0.17,4.454 -2.74,-3.518 -2.74,3.518 0.17,-4.454 -4.36,0.936 2.99,-3.305 -3.94,-2.084 4.42,-0.611 -1.6782,-4.1284 3.7742,2.3696z" fill="#fcd116"/>
<g fill="none" stroke="#fff" stroke-width="2" stroke-linecap="round">
<path d="m31.5,60c3.5-2,5.5-2,9,0s5.5,2,9,0,5.5-2,9,0"/>
<path d="m22.5,50c3.5,2,5.5,2,9,0s5.5-2,9,0,5.5,2,9,0,5.5-2,9,0,5.5,2,9,0"/>
<path d="m17,39c1,0,2-1,5.5,1s5.5,2,9,0,5.5-2,9,0,5.5,2,9,0,5.5-2,9,0,5.5,2,9,0,4.5-1,5.5-1"/>
<use xlink:href="#s" stroke="#fcd116"/>
</g>
</svg>
