<?xml version="1.0" encoding="iso-8859-1"?>
<!-- Generator: Adobe Illustrator 18.0.0, SVG Export Plug-In . SVG Version: 6.00 Build 0)  -->
<!DOCTYPE svg PUBLIC "-//W3C//DTD SVG 1.1//EN" "http://www.w3.org/Graphics/SVG/1.1/DTD/svg11.dtd">
<svg version="1.1" id="Layer_1" xmlns="http://www.w3.org/2000/svg" xmlns:xlink="http://www.w3.org/1999/xlink" x="0px" y="0px"
	 width="560px" height="604px" viewBox="6 4 560 604" enable-background="new 6 4 560 604" xml:space="preserve">
<path fill="none" stroke="#231F20" stroke-width="1.8422" stroke-linecap="round" stroke-miterlimit="3.8637" d="M319.2,81.7
	c-1.3-0.7-2.5-1.4-3.7-2.1c-3.1-1.7-6.4-1.3-8,0.6c-1.8,2.2-2.4,5.9,0.1,8.2"/>
<path fill="none" stroke="#C7B37F" stroke-width="1.8422" stroke-linecap="round" stroke-miterlimit="3.8637" d="M97.6,362
	c-0.7,1.7-1.1,2.2-1.9,3.6c-0.8,1.5-1.2,2.3-2.1,3.8c-0.8,1.4-1.3,2.2-2.2,3.6c-1.2,1.8-2,2.8-3.3,4.6"/>
<path fill="#C7B37F" d="M228.8,4.5c22.5,0,31.7,19.3,54.2,19.3c13.9,0,22-4.5,34.1-11.4c8.4-4.8,13.8-7.3,23.5-7.3
	c9.9,0,16,3,21.1,11.5c2.9,4.8,5.3,14.2,4,19.6c-2.4,10.3-3.9,14.7-8,24.2c-1.9,4.6-3.8,7.3-3.8,12.3c0,11.9,16.2,16,27.3,16.2
	c2.4,0,22.7,0.4,35.1-12.2c-6.8-0.3-14.3-5.5-14.3-12.3c0-7.7,5.4-12.8,12.7-15c1.4-0.4,3.7,0.8,5,0.2c1.8-0.9,0.9-2.9,2.5-4.2
	c3.6-2.9,6-4.7,10.6-4.7c3,0,4.8,0.4,7.3,2.2c1.3,0.9,1.8,2.1,3.3,2.1c3.3,0,5-2.1,8.3-2.1c2.7,0,4.4,0.4,6.7,1.6
	c2,1,1.9,4.4,4.2,4.4c1.1,0,7.1-2.4,10.2-2.4c6.4,0,9.9,2.3,14,7.2c1.1,1.3,1.8,4,3,4c2.3,0,7.6,1.5,10.9,4.8c1.4,1.4,2,2.1,3.1,3.8
	c0.8,1.2,1.9,4.2,3.3,4.7c1.6,0.6,2.9,0.5,5,1.8c4.7,3,8.3,8.7,8.2,14.2c-0.1,1.8-0.9,4.4-1.4,6.2c-5.5,19.2-18.6,25.3-31.7,41.8
	c-5.6,7-10,12.6-10,21.6c0,2.2,2.7,6.2,3.9,8c-0.7-4.2,1.2-9.4,5.7-9.7c6.1-0.3,10.9,4.3,11.7,10.4c0.2,1.4-0.4,3.9-1,5.3
	c3.3-2.2,7.6-3.6,11.6-4.1c2.1-0.2,3.4-0.3,5.6-0.2c9.8,0.2,20.6,5.8,27.2,11.3c20.1,17,22.5,42,21.4,48.9
	c-2.4,15.4-0.9,43.2-40.2,54.4c7.3,3.1,12.2,8.5,12.2,15.3c0,7.3-5.6,13.6-12.9,13.6c-4.2,0-7.1-1-10-4c-8.2,8.2-9.8,16.5-9.8,28.1
	c0,6.9,1.3,11,4.2,17.3c3.1,6.6,5.3,10.5,10.8,15.3c2.9-4.4,6-7.7,11.3-7.7c5.1,0,9.5,1.6,11.6,6.3c0.6,1.4,0.1,2.6,0.8,4
	c0.9,1.8,2.5,2.2,3.4,4c1.5,2.7,0,5.1,1.3,7.9c0.8,1.8,2.6,2.1,3.4,4c1.3,2.8,1.6,4.8,1.6,7.9c0,8.8-8,15-16.8,15
	c-2.6,0-4.1-1.1-6.7-0.8c5,5,8.8,7.2,12.7,13.2c5.5,8.7,6.9,14.8,8.2,25.1c0.2,1.9,0.3,3.1,0.3,5c0,13.1-2,21-7.9,32.7
	c-5.6,11.2-10.4,17.5-20.6,24.8c-15.9,11.4-27.5,14.7-46.7,18.5c-12.3,2.4-19.4,3.4-31.9,4.2c-16,1-25.2,1.1-41.2,2.1
	c-21,1.4-35.5,4.4-50.4,19.3c7,5.1,11.9,10.2,11.9,18.9c0,8.9-5.5,15.3-14,18.1c-2,0.7-3.4,0.1-5.3,1.1c-2.2,1.2-2.1,3.7-4.2,5
	c-3.7,2.4-6.6,2.9-11.1,2.9c-7.9,0-13.2-1.8-18.7-7.4c-6.4,5.3-8.6,10.2-15.8,14.3c-2.4,1.3-3.6,3.2-6.3,3.2c-4.3,0-6.3-2.7-9.8-5.3
	c-5.5-4-8.4-6.7-12.9-11.9c-6.6,3.9-10.6,7.1-18.2,7.1c-4.7,0-7.7-0.7-11.6-3.2c-2.1-1.3-2.4-3.2-4.5-4.5c-2.2-1.4-4-0.9-6.3-1.8
	c-8.8-3.8-14.5-10.3-14.5-19.9c0-8.4,5.3-13.8,12.9-17.3c-14.6-14.6-29-17.1-49.6-18.5c-15.9-1-25-1.1-40.9-2.1
	c-12.6-0.9-19.7-2.1-32.2-4.2c-9.5-1.6-15.1-2-23.7-6.1C45,506.1,26,487,22.1,454.4c-0.3-2.8-0.3-4.4-0.3-7.3
	c0-17,6.7-27.4,18.7-39.4c-3.1-0.7-5.2,0.3-8.2-0.8c-7.5-2.7-12.9-7.9-12.9-16c0-3,0.1-4.9,1.6-7.5c1-1.8,3-2.2,3.4-4.2
	c0.6-2.7-0.2-4.6,1.1-7.1c0.8-1.7,2.4-2,3.2-3.7c2.6-5.4,5.9-9.8,11.9-9.8c5.1,0,8.4,2.7,11.1,7.1c5-2.3,6.4-6.1,9.2-10.8
	c4.7-7.9,6.9-13.4,6.9-22.6c0-6.4-0.6-10.2-2.6-16.2c-1.4-4.4-2-7.3-5.3-10.6c-2.9,2.9-5.8,4-10,4c-8.4,0-14.8-7.2-14.8-15.6
	c0-6.2,3.1-10.9,8.7-13.5c-4.5-3.9-8.4-4.2-13.5-7.4c-7.6-4.8-10.3-9.9-15.3-17.4c-3.3-4.9-4.1-8.3-5.8-14c-2-6.8-3.2-10.9-3.2-17.9
	c0-1.8,0-2.9,0.3-4.8c1.9-14.3,4.5-23.3,13.5-34.6c5.3-6.7,9-10.8,16.9-14.3c6.7-2.9,10.8-5,18.1-5c2.2,0,3.5,0,5.7,0.3
	c3.4,0.4,5.5,0.7,8.4,2.4c1.1,0.6,3.2,2.5,3.2,1.2c0-1.5-0.8-2.3-0.8-3.8c0-6.1,4.4-11.6,10.4-11.6c4.4,0,6.2,3.9,8.3,7.7
	c1.4-2.3,2.1-3.9,2.1-6.6c0-10-5.4-15.1-11.6-23c-13.6-17-30.6-24.9-30.6-46.7c0-6.5,3.1-10.9,8.7-14.3c1.6-1,3.8,0,5.4-1
	c1.4-0.9,1.2-2.6,2.1-4c1.4-2.1,2.5-3.1,4.4-4.7c3.1-2.7,5.8-1.9,9.3-4.3c1.7-1.2,2.1-2.7,3.4-4.3c3.8-4.6,7.3-6.8,13.3-6.8
	c3,0,4.7,0,7.5,1.1c1,0.4,2.7,1.8,3,1.5c0.6-0.7,2.2-2.5,4.2-3.4c2.5-1.2,3.6-1.7,6.4-1.7c3.2,0,5.4,1.8,8.6,1.8
	c1.2,0,1.5-1.2,2.4-1.8c2.9-1.9,4.5-3,8-3c3.4,0,5.2,1.1,8.1,2.9c2.7,1.7,3.1,3.9,5.8,5.5c1.5,0.9,2.8,0.5,4.5,1.1
	c7.5,2.5,13.2,7.5,13.2,15.4c0,4.3-1,7.4-4.2,10.2c-2.5,2.2-4.9,1.8-8.2,2.9c10.5,8.4,19.6,10.5,33,10.5c12.3,0,27.3-5,27.3-17.3
	c0-5.7-3.2-8.8-5.4-14c-4-9.3-6.2-14.8-6.2-25c0-8,0.9-12.9,5.6-19.5C214.7,6.1,220.6,4.5,228.8,4.5z"/>
<path fill="none" stroke="#231F20" stroke-width="1.8422" stroke-linecap="round" stroke-miterlimit="3.8637" d="M63.8,196.2
	c4.5,2.3,9-1.1,8.1-6.9c-0.4-2.7-3.4-6.2-7.3-6.4"/>
<path fill="none" stroke="#C7B37F" stroke-width="1.8422" stroke-linecap="round" stroke-miterlimit="3.8637" d="M480.9,443
	c-0.8-0.8-1.5-1.9-1.9-3.6c-0.9-3.2-0.1-6.6,2.8-9.8c2.9-3.2,11-6.2,17.5-2.6c2.2,1.2,5.2,2.8,7.6,6.1c0.9,1.2,2.3,3.2,3.1,4.6
	c2,3.4,2.8,6.1,3.2,7.3c7.2,20.4-4.5,42.1-19.1,51.4c-12.8,8.1-25.8,10.4-41.9,11.9c-7.5,0.7-11.7,0.8-19.2,1.2
	c-6,0.3-11.2,0.2-16.1,0.1c-4,0-7.9,0-11.8-0.1c-6.4-0.1-13-0.3-21,0.3c-8.5,0.6-14.9,0.8-22.1,2c-4.7,0.8-10.2,1.5-15.9,2.8
	c-1.7,0.4-3.5,0.7-5.2,1.2c-1.2,0.4-2.4,0.7-3.5,1.1c-10.4,3.2-20.5,7-28.5,12.2c-2.5,1.6-5.2,3.2-7.2,5.1c-1.2,1.2-2.7,2.3-4,3.5
	c-5.6,5.5-11.3,11.4-12.6,19.5c-0.2,1.5-0.2,3-0.2,4.7c0,5.2,4.3,12.3,15.7,14.7"/>
<path fill="none" stroke="#703D29" stroke-width="1.8422" stroke-miterlimit="3.8637" d="M345.3,562.5c1.3,0.9,2.2,2.8,2.2,2.8
	c0.4,0.9,0.8,1.7,1,2.5c0.8,4.4-2.2,7.2-5.8,7.6c-4.9,0.6-8.7-2.4-10.2-5.9"/>
<path fill="none" stroke="#703D29" stroke-width="1.8422" stroke-miterlimit="3.8637" d="M82.3,442c1,0.9,1.2,2.1,2.5,2.3
	c2,0.4,3.5,1.1,5.4-1.5c2.4-3.2,1.1-8.2-1.4-11.4c-2.7-3.4-10.5-6.4-17-2.7c-2.2,1.2-4.9,2.8-7.4,6.1c-0.9,1.2-2.5,3.2-3.3,4.6
	c-2,3.4-2.8,6.1-3.2,7.3c-6,17,1.1,34.8,12.1,45.7"/>
<path fill="none" stroke="#703D29" stroke-width="1.8422" stroke-linecap="round" stroke-miterlimit="3.8637" d="M345,562.2
	c1.2,1.2,1.9,2.3,1.9,2.3c0.4,0.9,0.7,1.7,0.8,2.5c0.8,4.4-2.2,7.2-5.8,7.6c-4.9,0.6-8.3-2.3-9.8-5.9"/>
<path fill="none" stroke="#703D29" stroke-width="1.8422" stroke-linecap="round" stroke-miterlimit="3.8637" d="M247.1,83.4
	c2.4-1.3,4.7-2.6,6.8-3.8c3.1-1.7,6.8-1.3,8.4,0.6c1.8,2.2,2.1,5.9-0.4,8.2"/>
<path fill="#231F20" d="M147.1,69.8c0.8,3,3.3,5.9,7.1,7.1c2.3,0.7,7.7,0.4,11.2-4.1c2.8-3.6,2.6-8.2,1.6-11.8
	c-0.7-2.3-2.6-4.6-5-6.5l-14.8,15L147.1,69.8z"/>
<path fill="none" stroke="#703D29" stroke-width="1.9435" stroke-linejoin="round" stroke-miterlimit="3.8636" d="M147.1,69.8
	c0.8,3,3.3,5.9,7.1,7.1c2.3,0.7,7.7,0.4,11.2-4.1c2.8-3.6,2.6-8.2,1.6-11.8c-0.7-2.3-2.6-4.6-5-6.5l-14.8,15L147.1,69.8z"/>
<polygon fill="#C7B37F" points="159.8,53.1 161.9,54.5 164,56.8 165.5,59.7 166.2,62.2 166.4,65.4 166.2,67.6 165.5,70 164,71.8 
	162.3,73.7 159.8,75 156.6,75.7 153.9,76.1 151,74.8 148.4,72.9 146.8,70.6 145.6,67.7 145.6,66.6 "/>
<path fill="none" stroke="#703D29" stroke-width="1.8422" stroke-miterlimit="3.8637" d="M212.2,99.7c16-3.3,29.1-10.5,39-16"/>
<path fill="none" stroke="#703D29" stroke-width="1.8422" stroke-miterlimit="3.8637" d="M211.4,98.9c16-3.3,29.1-10.5,39-16"/>
<path fill="none" stroke="#703D29" stroke-width="1.8422" stroke-miterlimit="3.8637" d="M306.9,587.4c-3.8,5.8-12.8,14.5-22.2,18
	c-9.4-3.5-18.4-12.2-22.2-18"/>
<path fill="none" stroke="#703D29" stroke-width="1.8422" stroke-linecap="round" stroke-miterlimit="3.8637" d="M443.5,45.9
	c7.9-4.3,13.9-3.5,18.4,2.7c4.9,6.8,5.6,15.8,4.5,21.1c-1.6,7.8-3.9,11.1-10.1,16.8"/>
<path fill="none" stroke="#703D29" stroke-width="1.8422" stroke-linecap="round" stroke-miterlimit="3.8637" d="M462.6,49.4
	c9-5.9,18.7-3.4,24.1,4.5c3.9,5.8,4.9,10.7,4.6,17.8c-0.5,12.3-8.2,22.1-16.7,26.9"/>
<path fill="none" stroke="#703D29" stroke-width="1.8422" stroke-miterlimit="3.8637" d="M488.5,57.4c9.8,1.2,18.3,10.5,18.3,20.5
	c0,12.9-4.4,17.7-11.2,27c-7.3,9.9-31.1,28-31.1,48.6c0,12.5,3.5,20.5,12.5,24.5c5.8,2.6,12.6-0.2,15.7-3c7.5-6.8,4.5-18.8-3.3-20.2
	c-9.6-1.7-11.4,13.3-2,12.3"/>
<path fill="none" stroke="#703D29" stroke-width="1.8422" stroke-miterlimit="3.8637" d="M504.9,70.2c7.4,0.6,13.4,7.3,13.4,15.1
	c0,11.2-3.1,16-12,27.1c-7.7,9.6-30.8,26.4-30.2,42.5c0.2,6.1,5.4,11.8,9.8,12.1"/>
<path fill="none" stroke="#703D29" stroke-width="1.8422" stroke-linecap="round" stroke-miterlimit="3.8637" d="M505.8,196.1
	c-4.2,3-9.6-1.9-7.3-7.1c1.6-3.6,6.4-8.1,13.6-3.2c8,5.4,5.8,22.6-9.6,22.9c-13.7,0.3-23-19.2-9.9-33.8c12-13.3,34.2-10.7,48.1,0.4
	c5.9,4.7,17.9,17.7,20.4,34.7c3.1,20.6,2.7,45.9-18.6,61.5c-8.5,6.3-20.4,9.1-30.8,8.7c-13.6-0.6-21.5-10.2-20-21.5
	c1.4-11,12-15.6,19.7-11.3c8.1,4.5,6.7,15.8-2,16.8c-5.1,0.6-9.3-4.8-5.8-8.4"/>
<path fill="none" stroke="#703D29" stroke-width="1.8422" stroke-miterlimit="3.8637" d="M498.5,189c2.3-10.2,11-11.1,18-11
	c19.2,0.3,32.5,23.1,32.7,45.1c0.3,27.9-11.8,44.3-32.2,45.1c-5.3,0.2-14.3-2.3-14.5-8.7"/>
<path fill="none" stroke="#703D29" stroke-width="1.8422" stroke-linecap="square" stroke-miterlimit="3.8636" d="M510.4,184.5
	c20.3,4.5,27.4,22.8,27.4,40.2c0,14.2-1.4,33.6-29.1,40.5"/>
<path fill="none" stroke="#703D29" stroke-width="1.9351" stroke-linecap="round" stroke-miterlimit="3.8636" d="M522.3,294.7
	c-3.5-8.4-12.5-4.6-13,0c-1.3,10.7,8.1,13.9,14.8,12.2c3.3-0.9,5.7-2.9,7.3-5.7c1.7-3.1,2.3-7.1,1.1-10.9c-0.5-1.7-1.2-3.2-2.5-4.8
	c-1.2-1.6-2.5-2.8-3.7-3.5c-2.6-1.6-5.4-1.8-9.8-1.8c-16.3,0-30.5,19.2-35.3,39.2c-1.6,6.6-3.7,21.2-0.7,35.1
	c3.2,14.8,9.6,25.1,17.1,32.8c4.1,4.2,9.6,8,16.8,12c2.2,1.3,8.1,3.8,12.1,5c4.2,1.2,8,1,11.5,0.3c9.6-2.1,14.1-11,9.3-20.2
	c-4-7.5-15.7-11.6-21.2-2c-0.5,0.8-1.2,2.6-1.2,4.5c0,2.6,1.1,5.6,2.9,6.8c4.2,2.7,10.9,1.9,10.6-5.5"/>
<path fill="none" stroke="#703D29" stroke-width="1.8422" stroke-miterlimit="3.8637" d="M535,394.7c-3,1.2-4.7,1-8.5-0.7
	c-1.6-0.7-3.3-1.8-5.4-2.9c-7.4-4.2-16.3-10.9-24.5-26.4c-2.4-4.6-4-8.9-5-13.1c-0.8-3.2-1.3-6.4-1.5-9.7
	c-0.2-5.6,0.4-11.4,1.8-18.1c2.3-11.1,5.1-17.1,11.9-26.4c3.4-4.6,6.2-7.4,12.5-7.5"/>
<path fill="none" stroke="#703D29" stroke-width="1.8422" stroke-miterlimit="3.8637" d="M543.8,379.9c0.1-0.7,0.2-1.4,0.2-2.1
	c0-6.3-5.1-11.4-11.4-11.4s-11.4,5.1-11.4,11.4c0,3.6,1.7,6.8,4.3,8.9"/>
<path fill="none" stroke="#703D29" stroke-width="1.8422" stroke-miterlimit="3.8637" d="M539.4,368.6c-0.9-5.2-5.3-9.1-10.5-9.1
	c-5.9,0-10.7,4.9-10.7,11c0,3,1.1,5.7,3,7.6"/>
<path fill="none" stroke="#703D29" stroke-width="1.8422" stroke-miterlimit="3.8637" d="M518.6,368c-9.7-7-18.1-20.3-18.1-36
	c-0.1-12.1,4.8-24.4,10.4-29.2"/>
<path fill="none" stroke="#703D29" stroke-width="1.8422" stroke-linecap="round" stroke-miterlimit="3.8637" d="M503.1,362.6
	c3.8,5.7,8.4,12,18.2,17.2"/>
<path fill="none" stroke="#703D29" stroke-width="2.3821" stroke-miterlimit="3.8636" d="M472.1,405.1c3.3-3.8,10.7-9.6,19.3-10.6
	c8.7-1.1,16.2,1.5,23.9,5.6c15,8.1,23.4,16.8,29,32.9c1.4,4.1,2.6,10.3,2.4,16.8c-0.3,10.5-2.9,21.9-5.8,27.4
	c-2.5,4.8-9,26.1-44.7,40.8c-20.8,8.6-52.8,10.6-74.9,11.4c-30.3,1.2-58.3,2.3-74.6,22.4"/>
<path fill="none" stroke="#703D29" stroke-width="1.8422" stroke-linecap="round" stroke-miterlimit="3.8637" d="M517.7,410.6
	c-9.6-6.3-27.7-14.5-44.1-6.4c-6.1,3-10.2,6.7-12.5,12.8c-4.1,10.9,0.5,22.9,5.2,27.9c2.5,2.6,7.8,7.6,14.5,7.7
	c11,0.1,13.7-7.6,13.9-9.3c1.3-8-3.3-11.2-5.8-12c-1.9-0.7-8.1-0.5-9.4,3.9c-0.4,1.5-0.5,4,0.6,5.9"/>
<path fill="none" stroke="#703D29" stroke-width="2.0932" stroke-miterlimit="3.8636" d="M479.7,439.4c-0.9-3.2-0.1-6.3,2.5-9.7
	c3.4-4.6,10.6-6.2,17.1-2.6c2.2,1.2,4.9,2.8,7.4,6.1c0.9,1.2,2.5,3.2,3.3,4.6c2,3.4,2.8,6.1,3.2,7.3c7.2,20.4-4.2,42.5-19.1,51.4
	c-11.6,6.9-25.4,10-41.9,11.9c-7.4,0.9-11.7,0.8-19.2,1.2c-6,0.3-11.2,0.2-16.1,0.1c-4,0-7.9,0-11.8-0.1c-6.4-0.1-13-0.3-21,0.3
	c-8.5,0.6-14.9,0.8-22.1,2c-4.7,0.8-10.2,1.5-15.9,2.8c-1.7,0.4-3.5,0.7-5.2,1.2c-1.2,0.4-2.4,0.7-3.5,1.1
	c-10.4,3.2-20.5,7-28.5,12.2c-2.5,1.6-5.2,3.2-7.2,5.1c-1.2,1.2-2.7,2.3-4,3.5c-5.6,5.5-11.3,11.4-12.6,19.5c-0.2,1.5-0.2,3-0.2,4.7
	c0,5.2,4.3,12.3,15.7,14.7"/>
<path fill="none" stroke="#703D29" stroke-width="1.8422" stroke-linecap="round" stroke-miterlimit="3.8637" d="M345.7,563.9
	c3,6.2-0.4,9.4-4.6,9.9c-6.2,0.7-9.6-4.2-10-8.7c-0.7-7.3,5.4-13.9,12.8-13.8c6.6,0.1,12,4.4,14.5,10.2c0.9,2.1,1.3,4.5,1.5,6.9
	c0.2,4.6-1.4,8.8-4.2,12.1c-3.7,4.3-9.5,7-15.7,7.2c-12.3,0.5-21.9-11-21.9-22.8c0-22.5,33.4-34.8,46.6-37.9
	c16.3-3.9,26.1-5.3,52.2-6.8c10.4-0.6,18.1-0.3,29.6-1.5c10.3-1.1,15.7-1.6,26.3-4c13.2-3.1,25.5-8.6,36.6-18.6
	c8.5-7.7,13.4-13.2,17.3-23.8c3.4-9.1,5-27.2-3.6-40.6c-7.6-11.8-18.1-18-30.2-19.7c-10.9-1.6-20.4,3.1-26.1,13.9
	c-2.8,5.2-1.9,14,0.3,18c1.9,3.5,7.3,8.6,13.9,8.7c11,0.1,13.7-7.6,13.9-9.3c1.3-8-3.3-11.2-5.8-12c-1.9-0.7-8.1-0.5-9.4,3.9
	c-0.4,1.5-0.5,4,0.6,5.9"/>
<path fill="none" stroke="#703D29" stroke-width="1.8422" stroke-linecap="round" stroke-miterlimit="3.8637" d="M336.2,528.2
	c-14.1,6.3-24.5,11-33.3,24.8c-2.8,4.4-3.5,10.6-3.5,14.2c0,7.8,3.2,16.7,9.7,22.2c6.1,5.1,12,6.7,19.4,5.9
	c5.6-0.6,10.9-4.6,11.8-7.5"/>
<path fill="none" stroke="#703D29" stroke-width="1.8422" stroke-miterlimit="3.8637" d="M472.3,175.1c-5.2,4.4-7.7,9.9-7.7,16.7
	c0,9,7.6,23.8,26.1,29c7.1,2,13.9,1.8,18.2-0.8"/>
<path fill="none" stroke="#703D29" stroke-width="1.8422" stroke-miterlimit="3.8637" d="M475.9,259.7c-6.6,2.2-11.3,12.3-11.3,21.9
	c0,11,5.4,17.9,11.6,21.8"/>
<path fill="none" stroke="#703D29" stroke-width="1.8422" stroke-linecap="round" stroke-miterlimit="3.8637" d="M483.2,295.6
	c-11.9,14.8-18.2,23.6-18.6,41.2c-0.3,16.5,4.9,27.9,14.8,39.8"/>
<path fill="none" stroke="#703D29" stroke-width="1.8422" stroke-miterlimit="3.8637" d="M419.7,49.5c0.3-0.5,0.6-1,1-1.5
	c4.9-7.3,13.6-9.2,20-4.4c7.7,5.8,9.6,15.7,7.5,26.1c-1.3,6.5-5.7,12-11.8,15.9"/>
<path fill="none" stroke="#703D29" stroke-width="1.9435" stroke-linecap="round" stroke-miterlimit="3.8636" d="M155.4,64.4
	c-0.9-4.8-6.5-5.8-8.7-3c-3.4,4.4-0.9,11.7,5.9,13.8c2.3,0.7,7.7,0.4,11.2-4.1c2.8-3.6,2.6-8.2,1.6-11.8c-0.7-2.3-2.5-4.3-5-6.2
	c-7.9-6-20.8-4.6-25,5.5c-5.4,13.1,6.4,22.9,17.3,30.3c13.7,9.3,29.3,11,41.1,10.9c26.7-0.3,47-13.1,60.2-20.3
	c3.1-1.7,6.2-1.3,7.8,0.6c1.8,2.2,1.8,5.7-0.7,8"/>
<path fill="none" stroke="#703D29" stroke-width="1.8422" stroke-linecap="round" stroke-miterlimit="3.8637" d="M125.9,45.9
	c-7.5-3.5-13.8-2.8-18.4,2.7c-5.4,6.4-5.6,15.8-4.5,21.1c1.6,7.8,3.9,11.1,10.1,16.8"/>
<path fill="none" stroke="#703D29" stroke-width="1.8422" stroke-miterlimit="3.8637" d="M106.9,49.4c-9-5.9-18.7-3.4-24.1,4.5
	c-3.9,5.8-4.9,10.7-4.6,17.8c0.5,12.3,8.2,22.1,16.7,26.9"/>
<path fill="none" stroke="#703D29" stroke-width="1.8422" stroke-miterlimit="3.8637" d="M80.9,57.4c-9.8,1.2-17.5,9.5-17.5,19.5
	c0,12.9,3.2,18.1,10.4,28c7.3,9.9,31.1,28,31.1,48.6c0,12.5-3.5,20.5-12.5,24.5c-5.8,2.6-12.6-0.2-15.7-3
	c-7.6-6.8-4.5-18.8,3.3-20.2c9.6-1.7,11.4,13.3,2,12.3"/>
<path fill="none" stroke="#703D29" stroke-width="1.8422" stroke-miterlimit="3.8637" d="M64.5,70.2c-7.4,0.6-14.7,6.9-14.7,14.8
	c0,11.2,4.5,16.4,13.4,27.5c7.7,9.6,29.4,26.1,28.8,42.2c-0.2,6.1-4.3,13.5-8.4,12.7"/>
<path fill="none" stroke="#703D29" stroke-width="1.8422" stroke-linecap="round" stroke-miterlimit="3.8637" d="M63.6,196.1
	c4.2,3,9.6-2.1,7.5-7.6c-1.4-3.7-6.6-7.7-13.9-2.7c-8,5.4-5.8,22.6,9.6,22.9C80.5,209,88.9,189,76.7,175
	c-11.7-13.5-33.1-10.3-47,0.7c-5.9,4.7-17.1,17.1-20.6,33.9c-1.1,5.2-1.8,9.5-1.7,14.8c0.1,3.5,0.4,7.3,1.4,12.2
	c2.1,9.8,5.5,16.9,9,21.9c1.3,1.9,2.5,3.5,3.8,4.8c2.4,2.4,3.1,3.7,5.5,5.7c7.9,6.6,18,11.7,30.5,11.2c13.6-0.6,21.5-10.2,20-21.5
	c-1.4-11-12.5-16.4-19.7-11.3c-4.9,3.5-6.7,14.3,2,16.8c4.9,1.4,9.3-4.8,5.8-8.4"/>
<path fill="none" stroke="#703D29" stroke-width="1.8422" stroke-linecap="round" stroke-miterlimit="3.8637" d="M47.1,294.7
	c3.5-8.4,12.5-4.6,13,0c1.3,10.7-8.1,13.9-14.8,12.2c-3.3-0.9-5.7-2.9-7.3-5.7c-1.7-3.1-2.3-7.1-1.1-10.9c0.5-1.7,1.2-3.2,2.5-4.8
	c1.2-1.6,2.5-2.8,3.7-3.5c2.6-1.6,5.4-1.8,9.8-1.8c16.3,0,30.5,19.2,35.3,39.2c1.6,6.6,3.7,21.2,0.7,35.1
	c-3.2,14.8-9.6,25.1-17.1,32.8c-4.1,4.2-9.6,8-16.8,12c-2.2,1.3-8.1,3.8-12.1,5c-4.2,1.2-8.1,1.3-11.5,0.3
	c-8.3-2.5-13.6-10.2-9.3-20.2c3.3-7.8,15.7-11.6,21.2-2c0.5,0.8,1.2,2.6,1.2,4.5c0,2.6-1.1,5.6-2.9,6.8c-4.2,2.7-10.9,1.9-10.6-5.5"
	/>
<path fill="none" stroke="#703D29" stroke-width="1.8422" stroke-miterlimit="3.8637" d="M34.4,394.7c3,1.2,4.7,1,8.5-0.7
	c1.6-0.7,3.3-1.8,5.4-2.9c7.4-4.2,16.3-10.9,24.5-26.4c2.4-4.6,4-8.9,5-13.1c0.8-3.2,1.3-6.4,1.5-9.7c0.2-5.6-0.4-11.4-1.8-18.1
	c-2.3-11.1-5.1-17.1-11.9-26.4c-3.4-4.6-6.2-7.4-12.5-7.5"/>
<path fill="none" stroke="#703D29" stroke-width="1.8422" stroke-miterlimit="3.8637" d="M25.6,379.9c-0.1-0.7-0.2-1.4-0.2-2.1
	c0-6.3,5.1-11.4,11.4-11.4c6.3,0,11.4,5.1,11.4,11.4c0,3.6-1.7,6.8-4.3,8.9"/>
<path fill="none" stroke="#703D29" stroke-width="1.8422" stroke-miterlimit="3.8637" d="M30,368.6c0.9-5.2,5.3-9.1,10.5-9.1
	c5.9,0,10.7,4.9,10.7,11c0,3-1.1,5.7-3,7.6"/>
<path fill="none" stroke="#703D29" stroke-width="1.8422" stroke-miterlimit="3.8637" d="M50.8,368c9.7-7,18.1-20.3,18.1-36
	c0.1-12.1-4.8-24.4-10.4-29.2"/>
<path fill="none" stroke="#703D29" stroke-width="1.8422" stroke-linecap="round" stroke-miterlimit="3.8637" d="M66.3,362.6
	c-3.8,5.7-8.4,12-18.2,17.2"/>
<path fill="none" stroke="#703D29" stroke-width="1.8422" stroke-miterlimit="3.8637" d="M95.3,404.3c-2.7-6.4-8.1-9.3-16.8-10.2
	c-8.7-0.9-16.2,1.5-23.9,5.6c-15,8.1-23.4,16.8-29,32.9c-1.4,4.1-2.6,10.3-2.4,16.8c0.3,10.5,2.9,21.9,5.8,27.4
	c2.5,4.8,9,26.1,44.7,40.8c20.8,8.6,52.8,10.6,74.9,11.4c30.3,1.2,58.3,2.3,74.6,22.3"/>
<path fill="none" stroke="#703D29" stroke-width="1.8422" stroke-linecap="round" stroke-miterlimit="3.8637" d="M51.7,410.6
	c9.6-6.3,27.7-14.5,44.1-6.4c6.1,3,10.2,6.7,12.5,12.8c4.1,10.9-0.5,22.9-5.2,27.9c-2.5,2.6-7.8,7.6-14.5,7.7
	c-11,0.1-13.7-7.6-13.9-9.3c-1.3-8,3.3-11.2,5.8-12c1.9-0.7,8.1-0.5,9.4,3.9c0.4,1.5,0.5,4-0.6,5.9"/>
<path fill="none" stroke="#703D29" stroke-width="1.8422" stroke-miterlimit="3.8637" d="M89.7,439.4c0.9-3.2,0.4-6.5-2.5-9.7
	c-2.9-3.2-10.6-6.2-17.1-2.6c-2.2,1.2-4.9,2.8-7.4,6.1c-0.9,1.2-2.5,3.2-3.3,4.6c-2,3.4-2.8,6.1-3.2,7.3
	c-7.2,20.4,4.5,42.1,19.1,51.4c12.8,8.1,25.8,10.4,41.9,11.9c7.5,0.7,11.7,0.8,19.2,1.2c6,0.3,11.2,0.2,16.1,0.1c4,0,7.8,0,11.8-0.1
	c6.4-0.1,13-0.3,21,0.3c8.5,0.6,14.9,0.8,22.1,2c4.7,0.8,10.2,1.5,15.9,2.8c1.7,0.4,3.5,0.7,5.2,1.2c1.2,0.4,2.4,0.7,3.5,1.1
	c10.4,3.2,20.5,7,28.5,12.2c2.5,1.6,5.3,3.1,7.2,5.1c1.5,1.5,2.8,2.3,4,3.5c5.6,5.5,11.3,11.4,12.6,19.5c0.2,1.5,0.2,3,0.2,4.7
	c0,5.2-4.3,12.3-15.7,14.7"/>
<path fill="none" stroke="#703D29" stroke-width="1.8422" stroke-miterlimit="3.8637" d="M223.7,563.9c-3.1,6.2,0.4,9.4,4.6,9.9
	c6.2,0.7,9.6-4.2,10-8.7c0.7-7.3-5.4-13.9-12.8-13.8c-6.6,0.1-12,4.4-14.5,10.2c-0.9,2.1-1.3,4.5-1.5,6.9c-0.3,4.6,1.4,8.8,4.1,12.1
	c3.7,4.3,9.5,7,15.7,7.2c12.3,0.5,21.9-11,21.9-22.8c0-22.5-33.4-34.8-46.6-37.9c-16.3-3.9-26.1-5.3-52.2-6.8
	c-10.5-0.6-18.1-0.3-29.6-1.5c-10.3-1.1-15.7-1.6-26.3-4c-13.2-3.1-25.5-8.6-36.6-18.6c-8.5-7.7-13.4-13.2-17.3-23.8
	c-3.4-9.1-5-27.2,3.6-40.6c7.6-11.8,18.1-18,30.2-19.7c10.9-1.6,20.4,3.1,26.1,13.9c2.8,5.2,1.9,14-0.3,18
	c-1.9,3.5-7.3,8.6-13.9,8.7c-11,0.1-13.7-7.6-13.9-9.3c-1.3-8,3.3-11.2,5.8-12c1.9-0.7,8.1-0.5,9.4,3.9c0.4,1.5,0.5,4-0.6,5.9"/>
<path fill="none" stroke="#703D29" stroke-width="1.8422" stroke-miterlimit="3.8637" d="M233.2,528.2c14.1,6.3,24.5,11,33.3,24.8
	c2.8,4.4,3.5,10.6,3.5,14.2c0,7.8-3.2,16.7-9.7,22.2c-6.1,5.1-12,6.7-19.4,5.9c-5.6-0.6-10.9-4.6-11.8-7.5"/>
<path fill="none" stroke="#703D29" stroke-width="1.8422" stroke-miterlimit="3.8637" d="M97.1,175.1c5.2,4.4,7.7,9.9,7.7,16.7
	c0,9-7.6,23.8-26.1,29c-7.1,2-14.2,0.4-18.4-2.2"/>
<path fill="none" stroke="#703D29" stroke-width="1.8422" stroke-miterlimit="3.8637" d="M100.2,205.7c3.3,2.3,4.6,4.9,4.6,9.5
	c0,3.1-2,7.1-5.4,10.9c-5.6,6.2-15.1,11.6-25.6,11.7c-5.7,0.1-11.6-1.1-17.6-5.1c-6.4-4.3-9.7-10-11.2-15.7"/>
<path fill="none" stroke="#703D29" stroke-width="1.8422" stroke-miterlimit="3.8637" d="M99.9,225.2c3.8,3.5,4.9,7.8,4.9,13.3
	c0,8-3.3,14.2-10.7,20.7c-1.7,1.5-3.6,2.8-5.7,4.1"/>
<path fill="none" stroke="#703D29" stroke-width="1.8422" stroke-miterlimit="3.8637" d="M93.5,259.7c8,6.2,11.3,12.3,11.3,21.9
	c0,11-5.4,17.9-11.6,21.8"/>
<path fill="none" stroke="#703D29" stroke-width="1.8422" stroke-linecap="round" stroke-miterlimit="3.8637" d="M86.3,295.6
	c11.9,14.8,18.2,23.6,18.6,41.2c0.3,16.5-4.9,27.9-14.8,39.8"/>
<path fill="none" stroke="#703D29" stroke-width="1.8422" stroke-linecap="round" stroke-miterlimit="3.8637" d="M149.7,49.5
	c-0.3-0.5-0.6-1-1-1.5c-4.9-7.3-13.6-9.2-20-4.4c-7.7,5.8-9.6,15.7-7.5,26.1c1.3,6.5,5.7,12,11.8,15.9"/>
<path fill="none" stroke="#703D29" stroke-width="1.8422" stroke-miterlimit="3.8637" d="M422.3,71.5
	c-11.8,12.8-23.5,16.8-41.1,17.4c-5.5,0.2-16-1.7-22.1-6.1c-3.9-2.8-8.3-7.6-5.5-15.8c1.8-5.5,10.7-21,11.2-31.8
	c0.7-16.4-5.6-25.4-15.5-28.9c-18.2-6.4-37.8,11.6-49.6,15.5c-6.2,2.1-9.3,2.3-14.9,2.3c-5.6,0-8.9-0.3-15.1-2.3
	c-11.8-3.9-31.4-22-49.6-15.5c-9.9,3.5-16.2,12.5-15.5,28.9c0.4,10.7,9.3,26.3,11.2,31.8c2.8,8.3-1.6,13-5.5,15.8
	c-6.1,4.3-16.6,6.3-22.1,6.1c-17.6-0.6-29.3-4.6-41.1-17.4"/>
<path fill="none" stroke="#703D29" stroke-width="2.0932" stroke-miterlimit="3.8636" d="M316.6,80.3c2.4,4.3,3.7,7,2.3,11.5
	c-1.6,5.1-5.2,8.1-10.3,8.1c-11.6,0-18.4-13.7-13.2-22.5c9.3-15.5,27.1-6.8,43.7,0.9c-0.8-4-2.2-5.3-2-10.2
	c0.4-12.3,9.4-17.8,13.1-29.1c2.2-6.7,3-12.6-1.9-17.4c-4.3-4.2-9.3-4.1-14.9-1.9c-11.2,4.4-24.7,17.1-48.5,17.4
	c-23.8-0.4-37.4-13-48.6-17.4c-5.6-2.2-10.6-2.3-14.9,1.9c-4.9,4.8-4.1,10.6-1.9,17.4c3.6,11.3,12.7,16.9,13.1,29.1
	c0.1,4.9-1.2,6.2-2,10.2c16.5-7.7,35.1-17.2,43.7-0.9c4.8,9.1-1.6,22.5-13.2,22.5c-5.1,0-8.7-3.3-10.3-8.1c-1.4-4.3,0-8.1,2.3-11.5"
	/>
<path fill="none" stroke="#C7B37F" stroke-width="1.8422" stroke-miterlimit="3.8636" d="M329.6,50.2c0.2-5.4-4-7.7-6.2-7.7
	c-6.3,0-8,3.9-15.8,8.1c-9.8,5.3-14.1,6.4-22.8,6.5c-8.7-0.1-13.1-1.3-22.9-6.5c-7.8-4.2-9.5-8.1-15.8-8.1c-2.2,0-6.4,2.6-6.2,8"/>
<path fill="none" stroke="#703D29" stroke-width="1.8422" stroke-miterlimit="3.8637" d="M232.7,77.2c0.7-2.2,1.4-3.9,1.3-7.5
	c-0.4-12.3-9.4-17.8-13.1-29.1c-2.2-6.7-3-12.6,1.9-17.4c4.3-4.2,9.3-4.1,14.9-1.9c11.2,4.4,24.8,17.1,48.6,17.4
	c-23.8-0.4-37.4-13-48.6-17.4c-5.6-2.2-11.1-2.8-15.4,1.3c-4.9,4.8-3.6,11.2-1.4,18c3.6,11.3,12.3,16.9,12.6,29.1
	c0.1,3.6-0.8,5.3-1.6,7.5"/>
<path fill="none" stroke="#703D29" stroke-width="1.8422" stroke-miterlimit="3.8637" d="M286.3,37.9c23.4-1.2,43.4-16.9,49.9-18.2
	c5.8-1.1,9-0.6,13.2,3.2c-4.2-3.8-9-3.7-14.5-1.6c-11.2,4.4-24.7,17.1-48.5,17.4"/>
<path fill="none" stroke="#703D29" stroke-width="1.8422" stroke-miterlimit="3.8637" d="M314.4,99.9c2.2-1.4,3.8-3.7,4.7-6.5
	c1.4-4.3,1.4-8-0.9-11.4c2.9,3.7,3.1,6.9,2.3,11.5c-0.5,2.9-2.4,4.4-4.7,6.5"/>
<path fill="#C7B37F" d="M252.3,85.5c0-3.1,2.5-5.6,5.6-5.6c3.1,0,5.6,2.5,5.6,5.6c0,3.1-2.5,5.6-5.6,5.6
	C254.8,91.1,252.3,88.6,252.3,85.5z"/>
<path fill="none" stroke="#703D29" stroke-width="1.8422" stroke-miterlimit="3.8637" d="M465.9,351.2v47.1h0.1c0,0,0,4.5-0.4,7.3
	c-0.2,1.8-0.5,3.5-0.8,5"/>
<path fill="none" stroke="#703D29" stroke-width="1.8422" stroke-miterlimit="3.8637" d="M465.1,346.7v50.8h0.1c0,0,0,4.5-0.4,7.3
	c-0.4,2.9-0.8,5.4-1.4,7.7"/>
<line fill="none" stroke="#703D29" stroke-width="1.8422" stroke-miterlimit="3.8637" x1="465.1" y1="287.2" x2="465.1" y2="329.6"/>
<line fill="none" stroke="#703D29" stroke-width="1.8422" stroke-miterlimit="3.8637" x1="465.9" y1="290.6" x2="465.9" y2="325"/>
<line fill="none" stroke="#703D29" stroke-width="1.8422" stroke-miterlimit="3.8637" x1="465.9" y1="246.7" x2="465.9" y2="272.6"/>
<line fill="none" stroke="#703D29" stroke-width="1.8422" stroke-miterlimit="3.8637" x1="465.1" y1="243.7" x2="465.1" y2="275.5"/>
<line fill="none" stroke="#703D29" stroke-width="1.8422" stroke-miterlimit="3.8637" x1="465.9" y1="220.3" x2="465.9" y2="230.3"/>
<line fill="none" stroke="#703D29" stroke-width="1.8422" stroke-miterlimit="3.8637" x1="465.1" y1="218.3" x2="465.1" y2="232.8"/>
<line fill="none" stroke="#703D29" stroke-width="1.8422" stroke-miterlimit="3.8637" x1="465.9" y1="198.9" x2="465.9" y2="209.2"/>
<line fill="none" stroke="#703D29" stroke-width="1.8422" stroke-miterlimit="3.8637" x1="465.1" y1="196.4" x2="465.1" y2="210.9"/>
<line fill="none" stroke="#703D29" stroke-width="1.8422" stroke-miterlimit="3.8637" x1="465.9" y1="165" x2="465.9" y2="184"/>
<line fill="none" stroke="#703D29" stroke-width="1.8422" stroke-miterlimit="3.8637" x1="465.1" y1="160.8" x2="465.1" y2="186.7"/>
<path fill="none" stroke="#703D29" stroke-width="1.8422" stroke-miterlimit="3.8637" d="M459.6,425.8c-3.6,7.2-6.5,10.9-12.2,16.5
	c-5.8,5.7-9.8,8.3-17,11.9c-7,3.5-11.5,4.7-19.2,6.4c-7.7,1.7-12.2,2.1-20,2.5c-7.2,0.3-11.3,0-18.5-0.5c-7.7-0.5-12-1.6-19.7-2.3
	c-6.4-0.6-9.9-1.1-16.3-1.1c-6.6,0-10.3,0.1-16.8,1.2c-6,1.1-9.4,1.9-15.1,4.2c-7.8,3.2-16.7,8.7-18.6,11.2
	c-1.9-2.5-10.7-8-18.6-11.2c-5.7-2.3-9.1-3.1-15.1-4.2c-6.5-1.1-10.2-1.2-16.8-1.2c-6.4,0-10,0.5-16.3,1.1c-7.7,0.7-12,1.8-19.7,2.3
	c-7.2,0.5-11.3,0.8-18.5,0.5c-7.9-0.4-12.4-0.7-20-2.5c-7.7-1.7-12.1-2.9-19.2-6.4c-7.2-3.6-11.2-6.2-17-11.9
	c-0.6-0.6-1.2-1.2-1.8-1.8"/>
<path fill="none" stroke="#703D29" stroke-width="1.8422" stroke-miterlimit="3.8637" d="M459.7,422.9c-0.3,0.7-0.6,1.3-1,2
	c-3.6,7.2-6.5,10.9-12.2,16.5c-5.8,5.7-9.8,8.3-17,11.9c-7,3.5-11.5,4.7-19.2,6.4c-7.7,1.7-12.2,2.1-20,2.5
	c-7.2,0.3-11.3,0-18.5-0.5c-7.7-0.5-12-1.6-19.7-2.3c-6.4-0.6-9.9-1.1-16.3-1.1c-6.6,0-10.3,0.1-16.8,1.2c-6,1.1-9.4,1.9-15.1,4.2
	c-7.8,3.2-16.7,8.7-18.6,11.2c-1.9-2.5-10.7-8-18.6-11.2c-5.7-2.3-9.1-3.1-15.1-4.2c-6.5-1.1-10.2-1.2-16.8-1.2
	c-6.4,0-10,0.5-16.3,1.1c-7.7,0.7-12,1.8-19.7,2.3c-7.2,0.5-11.3,0.8-18.5,0.5c-7.9-0.4-12.4-0.7-20-2.5c-7.7-1.7-12.1-2.9-19.2-6.4
	c-7.2-3.6-11.2-6.2-17-11.9c-3-3-5.2-5.4-7.2-8.1"/>
<circle fill="#C7B37F" cx="83.1" cy="439.1" r="7.3"/>
<circle fill="none" stroke="#C7B37F" stroke-width="0.9571" stroke-miterlimit="3.8637" cx="83.1" cy="439.1" r="7.3"/>
<polyline fill="none" stroke="#703D29" stroke-width="1.9735" stroke-miterlimit="3.8637" points="76.2,426.1 70.2,428.3 
	64.1,432.9 61.5,436.6 58.2,442.4 56.7,446.7 55.6,452.1 55,456.2 "/>
<path fill="none" stroke="#703D29" stroke-width="1.8422" stroke-miterlimit="3.8637" d="M111.3,424.1c1.2,9.2-2.6,18.3-6.6,22.5
	c-2.5,2.6-7.8,7.6-14.5,7.7c-11,0.1-14.3-7.4-15-9.3"/>
<polyline fill="none" stroke="#703D29" stroke-width="1.9735" stroke-miterlimit="3.8637" points="110.4,426.7 110,431.9 
	109.1,435.5 106.5,441.8 102.5,447.2 98.1,450.6 94.9,452.2 90.4,453.3 "/>
<path fill="none" stroke="#703D29" stroke-width="1.8422" stroke-miterlimit="3.8637" d="M98.2,419.3c2,2,3.9,4.5,5.4,7.4
	c2.8,5.2,1.9,14-0.3,18c-0.2,0.4-0.5,0.9-0.9,1.4"/>
<path fill="none" stroke="#703D29" stroke-width="1.8422" stroke-miterlimit="3.8637" d="M43.4,498.6c6.6,6.9,16.5,14.4,31.7,20.6
	c20.8,8.6,52.8,10.6,74.9,11.4c29.3,1.2,56.4,2.4,72.8,20.5"/>
<path fill="none" stroke="#703D29" stroke-width="1.8422" stroke-miterlimit="3.8637" d="M273.5,539.4c4.9,4.8,9.8,9.9,11.9,16.4"/>
<path fill="none" stroke="#703D29" stroke-width="2.2335" stroke-miterlimit="3.8636" d="M285.3,565.9c-1.1,4.8-5.6,10.4-15.5,12.4
	c0,0-1.2,0.2-1.9,0.4"/>
<path fill="none" stroke="#703D29" stroke-width="1.8422" stroke-linecap="round" stroke-miterlimit="3.8637" d="M269.7,576.2
	c-1.2,4.4-3.3,8.6-6.5,12"/>
<path fill="none" stroke="#703D29" stroke-width="1.8422" stroke-linecap="round" stroke-miterlimit="3.8637" d="M219.9,523
	c2.3,0.9,0.6-0.6,15.3,6c14.1,6.3,24.2,11.8,33,25.6c2.8,4.4,3.5,10.6,3.5,14.2c0,2.3-0.3,4.8-0.9,7.2"/>
<path fill="none" stroke="#703D29" stroke-width="1.8422" stroke-miterlimit="3.8637" d="M263.9,589.2c-0.6,0.7-1.3,1.3-2,1.9
	c-6.1,5.1-12,6.7-19.4,5.9c-5.6-0.6-11-4.8-12.5-7.5"/>
<line fill="none" stroke="#703D29" stroke-width="1.8422" stroke-miterlimit="3.8637" x1="270.7" y1="570.1" x2="269.4" y2="576.5"/>
<polyline fill="none" stroke="#703D29" stroke-width="1.8422" stroke-miterlimit="3.8637" points="262.5,588.7 259.8,591.4 
	254.8,594.2 249.2,595.9 "/>
<path fill="none" stroke="#703D29" stroke-width="1.8422" stroke-miterlimit="3.8637" d="M307.7,588.2c-3.8,5.8-12.8,14.5-22.2,18
	c-9.4-3.5-18.4-12.2-22.2-18"/>
<path fill="none" stroke="#231F20" stroke-width="1.8422" stroke-miterlimit="3.8637" d="M308.5,589.1c-3.8,5.8-12.8,14.5-22.2,18
	c-9.4-3.5-18.4-12.2-22.2-18c-0.3-0.5-0.6-0.9-0.9-1.4"/>
<line fill="none" stroke="#703D29" stroke-width="1.8422" stroke-miterlimit="3.8637" x1="246.4" y1="596.2" x2="251.7" y2="595.5"/>
<path fill="none" stroke="#703D29" stroke-width="1.8422" stroke-miterlimit="3.8637" d="M214.4,581.1c0.3,0.4,0.6,0.7,0.9,1.1
	c3.5,4.1,9.1,6.7,14.9,7.2"/>
<path fill="none" stroke="#703D29" stroke-width="1.8422" stroke-miterlimit="3.8637" d="M220.8,586.1c2.9,1.4,6.1,2.3,9.5,2.4
	c12.3,0.5,21.9-11,21.9-22.8c0-8.1-4.4-15-10.6-20.5"/>
<path fill="none" stroke="#703D29" stroke-width="1.8422" stroke-linecap="round" stroke-miterlimit="3.8637" d="M223.5,563.9
	c-3,6.6,1.3,10.2,5.5,10.7c6.2,0.7,9.8-4.2,10.2-8.7c0.5-4.9-2.1-9.7-6.1-12.1"/>
<circle fill="#C7B37F" cx="229.6" cy="566.5" r="6.7"/>
<path fill="none" stroke="#703D29" stroke-width="1.8422" stroke-miterlimit="3.8637" d="M308.5,589.1c-3.8,5.8-12.8,14.5-22.2,18
	c-9.4-3.5-18.4-12.2-22.2-18c-0.3-0.5-0.6-0.9-0.9-1.4"/>
<path fill="none" stroke="#C7B37F" stroke-width="1.8422" stroke-linecap="round" stroke-miterlimit="3.8637" d="M345.3,524.6
	c-3.9,1-6.2,1.3-10,2.5c-3.9,1.3-5.8,2.3-9.7,4"/>
<path fill="none" stroke="#C7B37F" stroke-width="1.8422" stroke-linecap="round" stroke-miterlimit="3.8637" d="M312.8,545.7
	c1.1-1.5,1.5-2.4,2.7-3.8c1.7-1.9,3-2.7,5.2-4.1c2.5-1.5,4.3-2.7,7.1-4.2c2.3-1.2,3.7-1.8,6-2.9c2.3-1,3.6-1.6,5.9-2.5
	c2.5-1,3.9-1.5,6.4-2.5"/>
<path fill="none" stroke="#C7B37F" stroke-width="1.8422" stroke-linecap="round" stroke-miterlimit="3.8637" d="M250.6,542.1
	c-1-1.5-1.3-2.5-2.5-3.8c-1.7-1.9-3.1-2.3-5.4-3.6c-2.5-1.5-3.3-1.8-7.2-3.7c-2.3-1.2-3.7-1.8-6-2.9c-2.3-1-3.6-1.6-5.9-2.5
	c-2.5-1-3.9-1.5-6.4-2.4"/>
<path fill="none" stroke="#703D29" stroke-width="1.8422" stroke-miterlimit="3.8637" d="M308.6,589c0.7,0.7,1.4,1.4,2.2,2.1
	c6.1,5.1,12,6.7,19.4,5.9c5.6-0.6,10.1-4.3,11.9-7.5c0,0,1-1.1,1.3-2.1"/>
<polyline fill="none" stroke="#703D29" stroke-width="1.8422" stroke-miterlimit="3.8637" points="341.5,587.8 339.4,591.3 
	336.1,594.1 331.1,596.1 326.6,596.3 "/>
<path fill="none" stroke="#703D29" stroke-width="1.8422" stroke-miterlimit="3.8637" d="M353.3,554.7c2.7,2,5.3,5.2,6.7,8.5
	c0.9,2.1,1.3,4.5,1.5,6.9c0.2,4.6-1.4,8.8-4.1,12.1c-3.7,4.3-9.5,7-15.7,7.2c-0.5,0-0.9,0-1.4,0"/>
<path fill="none" stroke="#703D29" stroke-width="1.8422" stroke-miterlimit="3.8637" d="M340.7,588.5c-5.9,0.2-11.2-2.3-15.1-6.3"
	/>
<polyline fill="none" stroke="#703D29" stroke-width="1.8422" stroke-miterlimit="3.8637" points="339.9,588.7 345.2,588.2 
	350.2,586.2 353.8,584 358.5,578.4 359.5,576.3 360.3,571.4 360.5,569.1 "/>
<path fill="#C7B37F" d="M333.2,566.8c0-3.8,3.1-6.9,6.9-6.9c3.8,0,6.9,3.1,6.9,6.9c0,3.8-3.1,6.9-6.9,6.9
	C336.3,573.7,333.2,570.6,333.2,566.8z"/>
<path fill="none" stroke="#703D29" stroke-width="2.5313" stroke-miterlimit="3.8636" d="M531.6,411.6c6.2,5.8,10.6,12.9,14,22.6
	c1.4,4.1,2.6,10.3,2.4,16.8c-0.3,10.5-2.9,21.9-5.8,27.4c-2.5,4.8-9,26.1-44.7,40.8c-20.8,8.6-52.8,10.6-74.9,11.4
	c-29.9,1.2-57.5,2.3-73.9,21.5"/>
<polyline fill="none" stroke="#703D29" stroke-width="1.8422" stroke-miterlimit="3.8637" points="347.7,551.4 353,546.6 
	356.6,543.8 363.4,539.6 369.8,536.6 374.3,535.4 383.3,533.4 393.7,531.8 "/>
<path fill="none" stroke="#703D29" stroke-width="1.7345" stroke-miterlimit="3.8636" d="M482.8,431c2.2-3,10.3-6.9,16.8-3.2
	c2.1,1.2,4.7,2.7,6.9,6.1"/>
<path fill="#703D29" d="M123.8,463.6c1.5-1.6,2.7-1,2.9-1.8c0.2-0.6-0.2-0.6-0.9-0.8c-0.8-0.3-1.7-0.5-2.5-0.8
	c-0.9-0.3-1.6-0.8-2.5-1.1c-0.4-0.1-1.2-0.5-1.4,0.1c-0.4,1.1,3,1,1.8,4.1c-0.2,0.5-0.7,1.6-2.4,3.5l-7.7,8.4
	c-0.2,0.2-0.5,0.6-0.6,0.5c-0.2-0.1-0.2-0.6-0.2-0.8l0.1-11.9c0-2.3,0.2-3.9,0.6-4.9c0.5-1.4,2.1-0.2,2.4-1.1
	c0.2-0.6,0.1-0.6-0.9-0.9c-0.5-0.2-1.4-0.4-3.2-1.1c-1-0.4-1.9-0.9-2.9-1.2c-0.4-0.2-1.3-0.8-1.5,0c-0.1,0.2,0.2,0.6,0.3,0.6
	c1.1,0.8,1.4,1.3,1.4,2.7l0.2,21.7c0,1.6,0.2,2,0.5,2.1c0.3,0.1,0.5,0,1.2-0.7L123.8,463.6z"/>
<path fill="#703D29" d="M132.8,466.9c1-3.2,2.9-1.3,3.2-2.4c0.1-0.4,0-0.5-0.9-0.8c-1.7-0.5-2.8-0.7-3.9-1.1c-1-0.3-2.2-0.8-3.3-1.2
	c-0.3-0.1-1-0.4-1.2,0.1c-0.4,1.2,3.3,1.3,2.4,4.3l-5,15.9c-1,3.2-2.9,1.6-3.2,2.8c-0.1,0.2-0.1,0.4,0.2,0.5
	c0.8,0.2,2.1,0.5,3.4,0.9c2.3,0.7,3.4,1.2,4.5,1.6c0.7,0.2,1,0.2,1.1-0.2c0.3-1.1-3.5-0.6-2.2-4.7L132.8,466.9z"/>
<path fill="#703D29" d="M135.4,484.5c-1.3,4.2-3.4,2.4-3.7,3.5c-0.2,0.7,0.5,0.8,0.8,0.9c1.5,0.4,3,0.8,4.7,1.2
	c1.3,0.4,2,0.7,2.5,0.9c0.7,0.2,1,0.1,1.1-0.2c0.4-1.2-3-0.7-2-4.3l1.7-5.8c0.3-1.2,0.2-1.5,1.8-1c1.5,0.4,2,0.9,2.2,2.6l1,6
	c0.4,2.2,0.7,4.6,3.1,5.3c1.2,0.4,3.4,0.2,3.7-0.8c0.1-0.3,0-0.5-0.3-0.6c-0.3-0.1-0.7,0-1-0.1c-0.2-0.1-0.8-0.2-0.9-0.9
	c-0.9-4.8-2-10.4-2-10.6c0.1-0.3,1.1-0.4,2.2-0.9c1.1-0.5,2.3-1.5,3-3.7c0.5-1.5,1.3-6.4-5.3-8.4c-2-0.6-4.1-1.1-6.1-1.7
	c-1.9-0.6-2.1-0.8-3.5-1.2c-0.4-0.1-0.7,0-0.8,0.3c-0.4,1.2,3.3,0.9,2.2,4.7L135.4,484.5z M143.6,470.1c0.6-2,1.5-1.7,2.6-1.4
	c3,0.9,4,3.9,3,7.1c-0.6,2-1.3,3.8-5.9,2.4c-0.9-0.3-2-0.6-1.8-1.4L143.6,470.1z"/>
<path fill="#703D29" d="M159.9,491.7c-1,4-4,1.6-4.3,2.9c-0.2,0.7,0.3,0.8,0.9,1c1.2,0.3,2.3,0.4,4.3,0.9c2,0.5,3,0.9,4.2,1.2
	c0.9,0.2,1.5,0.5,1.7-0.4c0.2-0.9-3.9-0.9-2.9-5.1l3.7-15.3c0.4-1.6,0.7-1.7,2-1.4l2.6,0.6c3.5,0.7,1.7,4.2,2.9,4.5
	c0.8,0.2,0.8-1.2,0.8-1.6l0.4-3.2c0.1-0.3,0.2-0.8-0.3-0.9c-2.8-0.7-4.9-1-9.4-2.1c-4.5-1.1-6.5-1.7-9.3-2.4
	c-0.5-0.1-0.6,0.4-0.7,0.7l-1.6,4.4c-0.2,0.4-0.5,1.1,0.1,1.3c1.4,0.3,1.5-4.3,5-3.5l2.6,0.6c1.2,0.3,1.5,0.5,1.1,2.2L159.9,491.7z"
	/>
<path fill="#703D29" d="M196.9,482.2c1.2-1.9,2.4-1.5,2.6-2.3c0.1-0.6-0.3-0.6-1-0.7c-0.9-0.2-1.8-0.2-2.6-0.3
	c-0.9-0.2-1.7-0.5-2.6-0.6c-0.4-0.1-1.2-0.3-1.4,0.3c-0.2,1.2,3.1,0.5,2.5,3.7c-0.1,0.5-0.4,1.7-1.7,3.9l-6.2,9.6
	c-0.1,0.2-0.3,0.7-0.5,0.6c-0.2,0-0.3-0.5-0.3-0.8l-2-11.8c-0.4-2.2-0.5-3.9-0.3-4.9c0.3-1.4,2-0.6,2.2-1.5c0.1-0.6-0.1-0.6-1-0.8
	c-0.5-0.1-1.4-0.1-3.4-0.5c-1-0.2-2.1-0.5-3.1-0.7c-0.5-0.1-1.4-0.5-1.5,0.3c0,0.2,0.3,0.5,0.4,0.6c1.2,0.6,1.6,1,1.8,2.5l4,21.4
	c0.3,1.5,0.5,1.9,0.8,2c0.3,0.1,0.5-0.1,1-0.9L196.9,482.2z"/>
<path fill="#703D29" d="M198.7,501.9c0,0.9-0.1,1.1,0.7,1.5c1.7,0.7,3.2,1.8,5,2.1c4,0.7,7.4-1.9,8.2-6.4c0.7-4.4-1.1-6.2-4.1-8.3
	c-3.8-2.7-5.4-3.5-5-5.8c0.4-2.3,2-3.4,4-3c5.3,0.9,4.7,7.4,5.4,7.5c0.7,0.1,0.8-0.3,0.9-1l0.4-4.7c0.1-0.8,0.3-1.3-0.2-1.4
	c-0.4-0.1-1.3,0.4-1.7,0.3c-0.9-0.2-2-1.7-4.5-2.1c-3.6-0.6-6.6,1.9-7.2,5.8c-0.6,3.6,1,5.3,3.4,7c4.6,3.3,6.4,4,6,7
	c-0.5,2.7-2.6,4.1-5,3.7c-3.4-0.6-4.8-4-5.3-7.5c0-0.5-0.1-0.8-0.6-0.9c-0.8-0.1-0.6,0.9-0.6,1.4L198.7,501.9z"/>
<path fill="#703D29" d="M244.8,488.9c1-2,2.3-1.7,2.3-2.5c0-0.6-0.4-0.5-1.1-0.6c-0.9-0.1-1.8,0-2.6-0.1c-0.9-0.1-1.8-0.3-2.7-0.4
	c-0.4,0-1.3-0.2-1.3,0.5c-0.1,1.2,3.2,0.2,2.9,3.4c0,0.6-0.2,1.8-1.3,4l-5.1,10.2c-0.1,0.2-0.3,0.7-0.5,0.7c-0.2,0-0.3-0.5-0.4-0.8
	l-3.2-11.5c-0.6-2.2-0.9-3.8-0.8-4.9c0.1-1.5,1.9-0.8,2-1.7c0-0.6-0.1-0.6-1.1-0.6c-0.5,0-1.4,0-3.4-0.1c-1.1-0.1-2.1-0.3-3.1-0.4
	c-0.5,0-1.4-0.4-1.5,0.4c0,0.2,0.4,0.5,0.5,0.5c1.3,0.4,1.7,0.9,2.1,2.3l6.2,20.8c0.4,1.5,0.7,1.9,1,1.9c0.3,0,0.5-0.2,0.9-1
	L244.8,488.9z"/>
<path fill="#703D29" d="M249.8,505.7c0,3.6-3,2.9-3,4.3c0,0.6,0.6,0.4,1,0.4c0.8,0,1.7-0.1,2.7-0.1c1.1,0,2.2,0.2,3.7,0.2
	c0.4,0,1.2,0,1.2-0.4c0-1.6-4,0.7-4-6l0.1-11.8c0-0.3,0.1-0.6,0.3-0.6c0.2,0,0.3,0.2,0.6,0.5l14.9,18.2c0.2,0.3,0.4,0.5,0.8,0.5
	c0.4,0,0.4-0.3,0.4-1l0.2-19.5c0-3.7,2.7-2.8,2.7-3.8c0-0.1,0-0.5-0.6-0.5c-0.3,0-1.4,0.1-3.4,0.1c-2.2,0-3.1-0.2-3.6-0.2
	c-0.4,0-0.5,0.3-0.5,0.6c0,1.1,3.8,0.6,3.8,3.7l-0.1,11.6c0,0.9-0.1,1.3-0.3,1.3c-0.2,0-0.6-0.4-1-0.9l-12.5-15.5
	c-0.6-0.7-0.2-0.9-1.2-0.9c-1.7,0-2.5,0.1-3.3,0.1c-0.6,0-1.2-0.2-1.8-0.2c-0.4,0-0.5,0.3-0.5,0.6c0,1.7,3.5-0.6,3.5,6.1
	L249.8,505.7z"/>
<path fill="#703D29" d="M280.1,490.1c0-3.3,2.4-2,2.4-3.2c0-0.4-0.2-0.5-1.1-0.5c-1.8,0-2.9,0.1-4,0.1c-1.1,0-2.3-0.2-3.5-0.2
	c-0.3,0-1.1-0.1-1.1,0.5c0,1.2,3.4,0.3,3.3,3.4l0,16.7c0,3.3-2.3,2.4-2.3,3.6c0,0.2,0.1,0.4,0.3,0.4c0.8,0,2.2-0.1,3.5-0.1
	c2.4,0,3.6,0.2,4.8,0.2c0.7,0,1-0.1,1-0.5c0-1.1-3.5,0.5-3.5-3.8L280.1,490.1z"/>
<path fill="#703D29" d="M293.3,506.2c0,4.1-3.5,2.5-3.5,3.9c0,0.8,0.5,0.7,1.1,0.7c1.3,0,2.3-0.2,4.4-0.2c2.1,0,3.1,0.1,4.4,0.1
	c0.9,0,1.5,0.1,1.5-0.7c0-1-4,0.1-4-4.2L297,490c0-1.7,0.3-1.8,1.6-1.9l2.7,0c3.6-0.2,2.6,3.7,3.9,3.7c0.8,0,0.5-1.4,0.4-1.8
	l-0.4-3.2c0-0.3,0-0.8-0.5-0.8c-2.9,0-5,0.2-9.6,0.2c-4.6,0-6.7-0.1-9.6-0.1c-0.5,0-0.5,0.5-0.5,0.8l-0.5,4.6
	c-0.1,0.5-0.2,1.2,0.4,1.2c1.4,0,0.4-4.6,4-4.6l2.6,0c1.3,0,1.6,0.2,1.6,1.8L293.3,506.2z"/>
<path fill="#703D29" d="M316.9,501.1c0.8-0.1,1,0.3,2.2,2.9c0.4,0.9,0.7,1.5,0.7,2.3c0.2,2.1-2.1,1.9-2,2.9c0,0.5,0.4,0.4,1,0.3
	c0.9-0.1,2.1-0.3,3.4-0.4c2.1-0.2,2.9-0.1,4-0.2c0.8-0.1,1.1,0,1.1-0.6c-0.1-1.1-1.7,0.3-2.9-2l-10.1-20.6c-0.5-1-0.6-1.1-0.8-1.1
	c-0.4,0-0.5,0.7-0.7,1.3l-6.8,21.7c-0.6,2-2.2,1.9-2.2,2.7c0,0.5,0.5,0.3,1,0.3c0.9-0.1,1.8-0.3,2.7-0.4c1-0.1,1.9,0,2.9-0.1
	c0.7-0.1,1.6,0.1,1.6-0.6c-0.1-0.9-3.4-0.1-3.6-2.6c-0.1-0.8,0.3-2.1,0.4-2.8c0.5-2.3,1.2-2.5,1.7-2.6L316.9,501.1z M311.5,499.6
	c-0.6,0-1,0.1-1-0.2c0-0.5,0.1-0.9,0.2-1.3l1.9-6.3c0.1-0.4,0.2-0.4,0.3-0.4c0.2,0,0.1,0,0.3,0.3l3.1,6.1c0.2,0.4,0.4,0.8,0.4,1.3
	c0,0.3-0.4,0.3-1,0.4L311.5,499.6z"/>
<path fill="#703D29" d="M341.1,486.7c-0.3-2.4-0.2-2.4,3.6-2.9c6-0.8,4.1,3.6,5.6,3.4c0.7-0.1,0.4-1.2,0.3-1.7l-0.6-3.4
	c0-0.3-0.3-0.6-0.7-0.6c-2.7,0.4-4.9,0.8-7.1,1.1c-4.8,0.6-7,0.8-8.3,0.9c-0.4,0.1-0.6,0.4-0.6,0.7c0.2,1.4,3.6-0.2,4,2.9l2.1,16.2
	c0.6,4.2-2.1,2.7-1.8,4.2c0,0.2,0.2,0.4,0.6,0.3c1.7-0.2,3-0.5,4-0.7c1.4-0.2,2.5-0.2,3.7-0.3c0.8-0.1,1.4,0,1.4-0.7
	c-0.1-0.9-3.5,0.4-4-3.4l-0.7-5.1c-0.3-2-0.4-2.4,1-2.6l2.3-0.3c3.2-0.4,2.8,3.4,3.8,3.2c0.7-0.1,0.4-1.3,0.3-1.8l-1-6.1
	c-0.2-0.9-0.5-0.8-0.7-0.8c-0.6,0.1-0.3,3.3-3,3.6l-2,0.3c-1.3,0.2-1.4-0.1-1.6-1.6L341.1,486.7z"/>
<path fill="#703D29" d="M356,491.9c-0.9-5-0.3-10,4.9-11c4-0.8,8.5,2.5,9.9,10c1.1,5.7,0.2,10.6-5.1,11.7
	C360.2,503.7,356.9,496.9,356,491.9z M352.6,494.6c1.3,7,6.3,10.8,12.5,9.7c9.8-1.8,10.2-10.6,9.3-15.4c-1.3-7.3-6.8-10.8-12.8-9.6
	C354.2,480.7,351.2,487.1,352.6,494.6z"/>
<path fill="#703D29" d="M380.3,496.4c1,4.3-1.7,3.7-1.5,4.8c0.2,0.7,0.8,0.4,1.1,0.3c1.5-0.4,3-0.9,4.7-1.3c1.3-0.3,2.1-0.4,2.7-0.5
	c0.7-0.2,0.9-0.4,0.8-0.7c-0.3-1.2-3,0.9-3.8-2.7l-1.4-5.9c-0.3-1.2-0.5-1.4,1.1-1.8c1.5-0.4,2.1-0.2,3.2,1.1l3.8,4.7
	c1.4,1.7,2.9,3.6,5.3,3.1c1.2-0.3,3.1-1.5,2.8-2.6c-0.1-0.3-0.3-0.4-0.6-0.4c-0.3,0.1-0.6,0.3-0.9,0.4c-0.2,0.1-0.8,0.2-1.2-0.3
	c-3.2-3.7-7-8-7-8.2c-0.1-0.3,0.7-0.9,1.4-1.8c0.7-1,1.3-2.5,0.8-4.7c-0.4-1.6-2.1-6.2-8.8-4.6c-2,0.5-4.1,1.1-6.1,1.6
	c-1.9,0.5-2.2,0.4-3.6,0.7c-0.4,0.1-0.6,0.3-0.6,0.7c0.3,1.2,3.3-0.8,4.2,3L380.3,496.4z M380.3,479.8c-0.5-2,0.5-2.3,1.6-2.5
	c3.1-0.7,5.4,1.4,6.2,4.7c0.5,2,0.8,3.9-3.9,5.1c-0.9,0.2-2,0.5-2.2-0.4L380.3,479.8z"/>
<path fill="#703D29" d="M405.5,490.8c1,4-2.8,3.3-2.5,4.6c0.2,0.7,0.7,0.6,1.2,0.4c1.2-0.3,2.2-0.7,4.2-1.2c2-0.5,3.1-0.6,4.3-1
	c0.9-0.2,1.5-0.3,1.3-1.1c-0.2-0.9-3.9,1-4.9-3.1l-3.9-15.2c-0.4-1.6-0.2-1.9,1.1-2.2l2.6-0.7c3.5-1,3.4,3,4.7,2.6
	c0.8-0.2,0.1-1.4-0.1-1.8l-1.1-3c-0.1-0.3-0.2-0.8-0.7-0.7c-2.8,0.7-4.8,1.4-9.3,2.5c-4.4,1.1-6.5,1.5-9.3,2.3
	c-0.5,0.1-0.3,0.6-0.3,0.9l0.7,4.6c0.1,0.5,0.1,1.2,0.7,1.1c1.4-0.4-0.7-4.5,2.7-5.4l2.6-0.7c1.2-0.3,1.6-0.2,2,1.4L405.5,490.8z"/>
<path fill="#703D29" d="M421.5,469.4c-0.9-3.2,1.7-2.6,1.4-3.7c-0.1-0.4-0.3-0.4-1.2-0.2c-1.7,0.5-2.8,0.9-3.9,1.2
	c-1.1,0.3-2.3,0.5-3.5,0.8c-0.3,0.1-1.1,0.2-0.9,0.8c0.3,1.2,3.5-0.7,4.3,2.3l4.5,16.1c0.9,3.2-1.5,2.9-1.2,4.1
	c0,0.2,0.2,0.4,0.4,0.3c0.8-0.2,2-0.7,3.3-1.1c2.4-0.7,3.5-0.8,4.6-1.1c0.7-0.2,0.9-0.4,0.8-0.8c-0.3-1.1-3.3,1.4-4.4-2.7
	L421.5,469.4z"/>
<path fill="#703D29" d="M431.2,474.1c-1.6-4.8-1.6-9.8,3.3-11.6c3.8-1.3,8.7,1.3,11.2,8.6c1.8,5.5,1.7,10.5-3.4,12.3
	C437,485.2,432.8,478.9,431.2,474.1z M428.2,477.2c2.2,6.7,7.8,9.8,13.7,7.8c9.5-3.2,8.6-11.9,7-16.5c-2.3-7-8.2-9.8-14-7.8
	C427.9,463.2,425.8,469.9,428.2,477.2z"/>
<path fill="#703D29" d="M455.8,474.7c1.6,4.1-1.2,3.9-0.8,5c0.3,0.6,0.8,0.3,1.1,0.2c1.5-0.6,2.9-1.3,4.4-1.9
	c1.2-0.5,2.1-0.7,2.6-0.9c0.7-0.3,0.8-0.6,0.7-0.8c-0.5-1.2-2.8,1.3-4.2-2.2l-2.2-5.6c-0.4-1.1-0.7-1.3,0.8-1.9
	c1.5-0.6,2.1-0.5,3.3,0.7l4.5,4.2c1.6,1.5,3.4,3.2,5.7,2.3c1.2-0.5,2.8-1.9,2.4-2.9c-0.1-0.3-0.4-0.4-0.6-0.3
	c-0.3,0.1-0.5,0.4-0.8,0.5c-0.2,0.1-0.8,0.3-1.3-0.1c-3.7-3.3-8-7-8.1-7.2c-0.1-0.3,0.6-0.9,1.2-2c0.5-1.1,0.9-2.6,0.1-4.7
	c-0.6-1.5-3-5.8-9.4-3.3c-2,0.8-3.9,1.7-5.8,2.4c-1.8,0.7-2.1,0.7-3.5,1.2c-0.4,0.1-0.6,0.4-0.5,0.7c0.5,1.2,3.2-1.3,4.6,2.3
	L455.8,474.7z M453.5,458.3c-0.8-1.9,0.1-2.3,1.2-2.7c2.9-1.2,5.5,0.6,6.8,3.8c0.8,1.9,1.3,3.8-3.1,5.5c-0.9,0.3-2,0.8-2.3,0
	L453.5,458.3z"/>
<path fill="none" stroke="#703D29" stroke-width="1.8422" stroke-miterlimit="3.8637" d="M511.3,384.3c-4.6-4.3-9.4-10.2-14-18.8
	c-2.4-4.6-4-8.9-5-13.1c-0.8-3.2-1.3-6.4-1.5-9.7c-0.2-5.6,0.4-11.4,1.8-18.1c2.3-11.1,6.4-19.6,11.9-26.4c1.9-2.3,4-5.2,6.1-6.5"/>
<path fill="none" stroke="#703D29" stroke-width="1.8422" stroke-miterlimit="3.8637" d="M518.5,367.9c-1.3-1-2.6-1.9-3.8-3.2
	c-7.1-7.5-12.5-18.5-12.6-31.1c-0.1-12.1,4.8-24.4,10.4-29.2"/>
<polyline fill="none" stroke="#703D29" stroke-width="1.6446" stroke-miterlimit="3.8637" points="501.3,330.6 501.7,325.9 
	503.2,318.5 505.4,312.7 507.9,308 511.1,304.1 "/>
<path fill="none" stroke="#703D29" stroke-width="2.5313" stroke-miterlimit="3.8636" d="M524,404.5c1.5,0.6,2.9,1.1,4.2,1.4
	c4.2,1.2,8.1,1.3,11.5,0.3c8.3-2.5,13.6-10.2,9.3-20.2c-1-2.3-2.9-4.6-5.1-6.2"/>
<path fill="none" stroke="#703D29" stroke-width="1.8422" stroke-miterlimit="3.8637" d="M545.4,381.5c0.1-0.7,0.2-1.4,0.2-2.1
	c0-3.4-1.4-6.5-3.8-8.6c-0.8-0.7-1.6-1.8-2.5-2.3"/>
<path fill="none" stroke="#703D29" stroke-width="1.8422" stroke-miterlimit="3.8637" d="M540.7,369.9c-0.1-5.4-4.6-9.3-10.1-10.3"
	/>
<path fill="none" stroke="#703D29" stroke-width="1.8422" stroke-miterlimit="3.8637" d="M512.9,304.8c2.9,3.8,8.5,4.8,12.8,3.7
	c3.3-0.9,5.7-2.9,7.3-5.7c1.7-3.1,2.3-7.1,1.1-10.9c-0.5-1.7-1.2-3.2-2.5-4.8c-1.2-1.6-2.8-3.4-4-4.2c-0.3-0.2-0.6-0.5-1-0.7"/>
<polyline fill="none" stroke="#703D29" stroke-width="1.6446" stroke-miterlimit="3.8637" points="533.8,294.2 533.4,298.8 
	532.1,301.9 530.1,304.9 527.8,306.6 524.2,307.9 521.1,308.1 518.8,307.8 "/>
<path fill="none" stroke="#C7B37F" stroke-width="1.6446" stroke-miterlimit="3.8637" d="M520.9,289.8c0.6,0.7,1.1,1,1.5,1.8
	c0.4,0.7,0.6,1.2,0.7,2c0.1,0.8,0.2,1.2,0,2c-0.2,0.7-0.5,1.1-0.8,1.7"/>
<path fill="none" stroke="#703D29" stroke-width="1.8422" stroke-linecap="round" stroke-miterlimit="3.8637" d="M527.3,394
	c0.2,0.3,1.1,0.4,1.4,0.6c4.1,2.5,12.3-0.6,9.9-7"/>
<path fill="#C7B37F" d="M526.6,388.8c0-3.2,2.7-5.7,6.1-5.7c3.3,0,6.1,2.6,6.1,5.7c0,3.2-2.7,5.7-6.1,5.7
	C529.3,394.5,526.6,392,526.6,388.8z"/>
<path fill="#C7B37F" d="M503.4,259c0-2.5,2-4.6,4.5-4.6s4.5,2.1,4.5,4.6c0,2.5-2,4.6-4.5,4.6S503.4,261.5,503.4,259z"/>
<path fill="#C7B37F" d="M500.2,193.9c0-1.4,1.5-2.6,3.3-2.6s3.3,1.2,3.3,2.6c0,1.4-1.5,2.6-3.3,2.6S500.2,195.3,500.2,193.9z"/>
<path fill="none" stroke="#703D29" stroke-width="1.8422" stroke-miterlimit="3.8637" d="M506.6,70.5c7.4,0.6,14.3,8.5,14.2,16.4
	c-0.1,11.3-3.9,16-12.9,27.1c-7.7,9.6-30.8,26.4-30.2,42.5c0.1,2.9,1.6,5.8,3.4,8.2"/>
<path fill="#C7B37F" d="M482.3,161.8c0-3,2.1-5.5,4.6-5.5c2.6,0,4.6,2.5,4.6,5.5c0,3-2.1,5.5-4.6,5.5
	C484.4,167.3,482.3,164.8,482.3,161.8z"/>
<path fill="none" stroke="#C7B37F" stroke-width="0.9571" stroke-miterlimit="3.8636" d="M482.3,161.8c0-3,2.1-5.5,4.6-5.5
	c2.6,0,4.6,2.5,4.6,5.5c0,3-2.1,5.5-4.6,5.5C484.4,167.3,482.3,164.8,482.3,161.8z"/>
<polyline fill="none" stroke="#703D29" stroke-width="1.6446" stroke-miterlimit="3.8637" points="477,153.7 478,148.8 480.2,144.2 
	483,139.6 487.9,133.4 491.8,129.1 498,122.8 503.4,117.4 506.8,113.4 511.3,108 515.3,102 517.7,97 519,90.7 519.4,82.7 
	518.6,80.4 "/>
<path fill="none" stroke="#703D29" stroke-width="1.8422" stroke-miterlimit="3.8637" d="M497.4,170.4c2.3-7.7-0.5-15.8-8-15.6"/>
<path fill="none" stroke="#703D29" stroke-width="1.8422" stroke-miterlimit="3.8637" d="M471.9,174.8c1.6,1.6,3.6,3,6,4
	c4.2,1.9,9,0.9,12.4-0.8"/>
<path fill="none" stroke="#703D29" stroke-width="1.8422" stroke-miterlimit="3.8637" d="M490.5,57.5c9.4,0,17.5,10.4,17.5,21.1
	c0,12.3-6.6,19.9-11.4,25.6c-3.9,4.6-8.1,8.7-13,13.7"/>
<path fill="none" stroke="#703D29" stroke-width="1.8422" stroke-linecap="round" stroke-miterlimit="3.8637" d="M479.4,47.6
	c3.2,1.5,6,4,8.1,7.1c3.9,5.8,4.9,10.7,4.6,17.9c-0.5,12.3-9.3,20.9-17.3,26.1"/>
<path fill="none" stroke="#C7B37F" stroke-width="1.8422" stroke-linecap="round" stroke-miterlimit="3.8637" d="M471.4,99.1
	c1.4-1.1,2.3-1.4,3.7-2.7c1.2-1.1,2-1.6,3.2-2.8c1.2-1.2,1.9-2,2.9-3.3c1.1-1.4,1.5-2.3,2.5-3.7"/>
<path fill="none" stroke="#703D29" stroke-width="1.8422" stroke-linecap="round" stroke-miterlimit="3.8637" d="M460.9,47.6
	c0.6,0.6,1.3,1.2,1.9,1.9c5.4,6.4,5.8,15.8,4.5,21.1c-1.9,7.9-4.5,11.3-10.9,16"/>
<path fill="none" stroke="#C7B37F" stroke-width="1.8422" stroke-linecap="round" stroke-miterlimit="3.8637" d="M452.7,87.7
	c1.5-1.5,2.5-2.3,3.8-3.9c1.3-1.5,2-2.5,3-4.2c0.9-1.4,1.2-2.3,2-3.8"/>
<path fill="none" stroke="#703D29" stroke-width="1.8422" stroke-linecap="round" stroke-miterlimit="3.8637" d="M441.6,44.4
	c7.7,5.8,10,15.8,7.4,26.2c-1.8,7.4-6.5,11.8-12.3,15.3"/>
<path fill="none" stroke="#C7B37F" stroke-width="1.8422" stroke-linecap="round" stroke-miterlimit="3.8637" d="M434.5,86.2
	c1.5-1.1,2.3-1.6,3.7-2.7c1-0.8,1.6-1.3,2.5-2.3c0.8-0.9,1.2-1.4,1.9-2.3c0.6-0.9,1-1.5,1.5-2.5c0.6-1.2,0.9-1.9,1.4-3.3
	c0.5-1.2,0.5-1.7,0.8-2.7"/>
<path fill="none" stroke="#703D29" stroke-width="1.8422" stroke-miterlimit="3.8637" d="M428.6,52c2.5,1.7,5,4.3,6.4,7.6
	c5.4,13.1-6.4,22.9-17.3,30.3c-7.8,5.3-16.2,8.1-24.2,9.6"/>
<path fill="none" stroke="#703D29" stroke-width="1.8422" stroke-miterlimit="3.8637" d="M416.1,77.2c-2.6,0-5.8-0.8-9.2-4.4
	c-0.8-0.8-1.7-1.9-2.1-2.9"/>
<path fill="none" stroke="#703D29" stroke-width="1.8422" stroke-miterlimit="3.8637" d="M361.5,84.2c-1.4-0.7-2.9-1.7-3.9-2.8
	c-2.6-2.9-4.3-6.8-2.3-12.8c1.8-5.5,10.7-21,11.2-31.8c0.7-16.4-5.6-26.1-15.5-29.9"/>
<polyline fill="none" stroke="#703D29" stroke-width="1.8422" stroke-linecap="round" stroke-miterlimit="3.8637" points="
	365.7,33.2 365.3,39.4 363.6,45.7 360.4,54.3 358,59.8 355.4,65.3 354.1,69.2 353.6,72 354,74.7 "/>
<path fill="none" stroke="#703D29" stroke-width="1.8422" stroke-linecap="round" stroke-miterlimit="3.8637" d="M469.2,205.7
	c0.9,2.7,2.4,3.6,4.4,5.6c4.2,4.4,10.3,8.1,18,10.3c7.1,2,13.5,0.5,18.4-2.6"/>
<path fill="none" stroke="#C7B37F" stroke-width="1.4949" stroke-miterlimit="3.8636" d="M489.8,212.2c1.4,0.8,2,1.6,3.6,2.2
	c1.3,0.4,2.1,0.4,3.4,0.6c1.2,0.1,1.8,0.2,3,0.2c1.4,0,2.1,0,3.5-0.2c1.1-0.1,1.7-0.3,2.8-0.6c1-0.3,1.6-0.4,2.5-0.8
	c1-0.4,1.6-0.8,2.5-1.3c1.1-0.6,1.8-0.9,2.9-1.5"/>
<path fill="none" stroke="#C7B37F" stroke-width="2.3926" stroke-miterlimit="3.8636" d="M509.4,232.9c1.4-0.8,2.3-1.1,3.6-2
	c1.4-0.9,2.1-1.6,3.3-2.7c1-0.9,1.5-1.5,2.4-2.6c1-1.3,1.5-2,2.3-3.4c0.8-1.3,1.2-2.1,1.9-3.5c0.9-1.9,1.2-3.1,2-5.1"/>
<path fill="none" stroke="#C7B37F" stroke-width="1.4949" stroke-miterlimit="3.8636" d="M475.4,262.6c0.5,0.3,0.7,0.4,1.2,0.7
	c0.7,0.4,1.1,0.6,1.8,0.9c1.4,0.6,2.2,0.7,3.6,1.1"/>
<path fill="none" stroke="#C7B37F" stroke-width="1.8422" stroke-linecap="round" stroke-miterlimit="3.8637" d="M476.2,301.3
	c1.4-1.6,2.2-2.6,3.7-4.2c1.7-1.8,2.8-2.6,4.5-4.3"/>
<line fill="none" stroke="#C7B37F" stroke-width="1.8422" stroke-linecap="round" stroke-miterlimit="3.8637" x1="478" y1="305.3" x2="487.6" y2="292.2"/>
<path fill="none" stroke="#C7B37F" stroke-width="1.8422" stroke-linecap="round" stroke-miterlimit="3.8637" d="M472,369.6
	c0.9,1.3,1.4,2.1,2.4,3.3c1,1.2,1.6,1.8,2.8,2.8c1.9,1.8,3.3,2.5,5.4,4.1"/>
<path fill="#C7B37F" d="M479.4,442.4c-1-4,0.9-7.8,4.3-8.7s6.9,1.7,7.8,5.6c1,4-0.9,7.8-4.3,8.7
	C483.9,448.9,480.4,446.3,479.4,442.4z"/>
<path fill="none" stroke="#C7B37F" stroke-width="1.1961" stroke-miterlimit="3.8636" d="M479.4,442.4c-1-4,0.9-7.8,4.3-8.7
	s6.9,1.7,7.8,5.6c1,4-0.9,7.8-4.3,8.7C483.9,448.9,480.4,446.3,479.4,442.4z"/>
<path fill="none" stroke="#C7B37F" stroke-width="1.8422" stroke-linecap="round" stroke-miterlimit="3.8637" d="M501.8,361.8
	c0.4,1.2,1.4,2.9,1.9,4.1c0.5,1.2,1.2,1.8,1.7,2.8c0.5,0.9,1.2,1.6,1.9,2.4c0.9,1.1,1.6,2,2.8,3"/>
<path fill="none" stroke="#C7B37F" stroke-width="1.8422" stroke-linecap="round" stroke-miterlimit="3.8637" d="M502.4,401.4
	c1.6,0.6,2.6,0.9,4.1,1.6c1.2,0.5,1.8,0.9,3,1.5c1.1,0.6,1.7,0.9,2.8,1.6c1.2,0.8,1.9,1.2,3.1,2c1.5,1.1,2.2,1.8,3.6,2.9"/>
<path fill="none" stroke="#703D29" stroke-width="1.8422" stroke-linecap="round" stroke-miterlimit="3.8637" d="M464.8,443
	c0.5,1.2,1.7,2.4,1.7,2.4c1.9,3.2,9.2,8.7,15.9,8.8c11,0.1,13.7-7.6,13.9-9.3c1.4-8.4-1.5-10.7-5.8-13.1c0,0-2.5-1.3-5.6-0.8"/>
<polyline fill="none" stroke="#703D29" stroke-width="1.6446" stroke-miterlimit="3.8637" points="482.8,454.3 487.5,453.3 
	491.1,451.5 493.1,449.5 494.4,447.2 495.4,443.6 495.4,441.1 "/>
<path fill="none" stroke="#703D29" stroke-width="1.8422" stroke-miterlimit="3.8637" d="M43.8,406.2c-3.9,1-7.6,1-10.8,0.1
	c-8.3-2.5-14.9-10.4-11.5-20.2"/>
<polyline fill="none" stroke="#703D29" stroke-width="1.6446" stroke-miterlimit="3.8637" points="33.9,405.6 37.4,405.9 
	41.9,405.6 46.4,404 "/>
<path fill="none" stroke="#703D29" stroke-width="1.8422" stroke-linecap="round" stroke-miterlimit="3.8637" d="M34.5,376.7
	c3.6-0.1,7.2,2.4,9.6,6.5c0.5,0.8,1.2,2.6,1.2,4.5c0,2.6-1.1,5.3-3,6.4c-4.2,2.7-11.6,1.5-11.3-5.9"/>
<path fill="#C7B37F" d="M31.1,387.6c0-3.6,2.3-6.5,5.2-6.5c2.8,0,5.2,2.9,5.2,6.5c0,3.6-2.3,6.5-5.2,6.5
	C33.4,394.1,31.1,391.2,31.1,387.6z"/>
<path fill="none" stroke="#C7B37F" stroke-width="0.9571" stroke-miterlimit="3.8637" d="M31.1,387.6c0-3.6,2.3-6.5,5.2-6.5
	c2.8,0,5.2,2.9,5.2,6.5c0,3.6-2.3,6.5-5.2,6.5C33.4,394.1,31.1,391.2,31.1,387.6z"/>
<path fill="none" stroke="#703D29" stroke-width="1.8422" stroke-miterlimit="3.8637" d="M57,280.6c14.4,2.7,28.2,20,32.7,38.9
	c1.6,6.6,3.7,21.2,0.7,35.1c-3.2,14.8-9.6,25.1-17.1,32.8c-1.8,1.8-3.8,3.6-6.2,5.3l-3.1,2.1"/>
<path fill="none" stroke="#703D29" stroke-width="1.8422" stroke-miterlimit="3.8637" d="M60.5,293.2c0.8,0.8,1.1,2.1,1.2,3.1
	C63,307,53.7,310.2,47,308.4c-3.3-0.9-7.3-3.9-8.8-6.6c-1.1-2-1.8-4.3-1.8-6.7"/>
<polyline fill="none" stroke="#703D29" stroke-width="1.6446" stroke-miterlimit="3.8637" points="61,297.4 60.4,301.4 59.4,303.3 
	58.1,305 56.2,306.5 54.1,307.4 51.3,307.8 49.4,308 "/>
<path fill="none" stroke="#C7B37F" stroke-width="1.8422" stroke-linecap="round" stroke-miterlimit="3.8637" d="M50.6,288.3
	c-1.1,0.5-1.7,0.9-2.5,1.7c-0.8,0.8-0.9,1.1-1.5,2.4c-0.4,1-0.5,2.1-0.7,3.5"/>
<path fill="none" stroke="#703D29" stroke-width="1.8422" stroke-miterlimit="3.8637" d="M41,359.5c5.9,0,11.1,5.7,11.1,11.7
	c0,3-1.1,5.7-3,7.6"/>
<path fill="none" stroke="#703D29" stroke-width="1.8422" stroke-miterlimit="3.8637" d="M37,366.4c6.2,0,12,5.9,12,12.2
	c0,3.6-1.7,6.8-4.3,8.9"/>
<path fill="none" stroke="#C7B37F" stroke-width="1.8422" stroke-linecap="round" stroke-miterlimit="3.8637" d="M59.7,373.9
	c1-1.2,1.6-1.9,2.6-3.1c0.8-1,1.3-1.6,2-2.7c0.6-1,0.9-1.6,1.5-2.7c0.8-1.5,1.2-2.3,2-3.8"/>
<path fill="none" stroke="#C7B37F" stroke-width="1.8422" stroke-linecap="round" stroke-miterlimit="3.8637" d="M64.1,402.2
	c-1.7,0.8-2.8,1.1-4.4,2c-1.3,0.7-2,1.1-3.2,1.9c-1.4,0.9-2.3,1.4-3.6,2.4c-1.4,1-2.2,1.7-3.6,2.8"/>
<path fill="none" stroke="#C7B37F" stroke-width="1.8422" stroke-linecap="round" stroke-miterlimit="3.8637" d="M92.9,300.9
	c-0.9-1-1.4-1.5-2.4-2.5c-1-1-1.5-1.6-2.6-2.5c-1-0.9-1.7-1.3-2.8-2.1"/>
<path fill="none" stroke="#703D29" stroke-width="1.8422" stroke-linecap="round" stroke-miterlimit="3.8637" d="M93.4,304.5
	c5.7,7.6,9.4,14.1,11.1,22.5"/>
<path fill="none" stroke="#703D29" stroke-width="1.8422" stroke-linecap="round" stroke-miterlimit="3.8637" d="M104.4,351.8
	c-0.9,4.2-2.4,8.1-4.2,11.8c-2.4,4.7-6.5,10-10.4,13.5"/>
<path fill="none" stroke="#703D29" stroke-width="1.8422" stroke-miterlimit="3.8637" d="M104.5,290.6c-1.9,6.4-6,10.8-10.5,13.6"/>
<path fill="none" stroke="#703D29" stroke-width="1.8422" stroke-miterlimit="3.8637" d="M94.3,260.3c5.4,4.3,8.7,8.7,10.3,13.9"/>
<path fill="none" stroke="#703D29" stroke-width="1.8422" stroke-miterlimit="3.8637" d="M100.7,226c1.7,1.5,2.8,3.2,3.6,5.1"/>
<path fill="none" stroke="#703D29" stroke-width="1.8422" stroke-linecap="round" stroke-miterlimit="3.8637" d="M94.3,259.5
	c-2.1,1.9-4.2,3-6.1,3.8"/>
<path fill="none" stroke="#C7B37F" stroke-width="1.8422" stroke-miterlimit="3.8637" d="M94.1,262.1c-1.4,0.6-2.1,1.1-3.6,1.6
	c-1.7,0.5-2.8,0.8-4.4,0.9"/>
<path fill="none" stroke="#703D29" stroke-width="1.8422" stroke-linecap="round" stroke-miterlimit="3.8637" d="M104.7,246.1
	c-1.4,5-4.7,8.7-9.8,13.4"/>
<path fill="none" stroke="#703D29" stroke-width="1.8422" stroke-miterlimit="3.8637" d="M101,206.3c1.5,1.1,2.7,2.4,3.4,3.8"/>
<path fill="none" stroke="#703D29" stroke-width="1.8422" stroke-linecap="round" stroke-miterlimit="3.8637" d="M104.8,220
	c-0.9,2.2-2.5,4.6-4.5,6.9c-5.6,6.2-15.1,11.6-25.6,11.7c-5.7,0.1-11.6-1.1-17.6-5.1c-6.4-4.3-10.5-10.3-11.9-16.3"/>
<path fill="none" stroke="#C7B37F" stroke-width="1.8422" stroke-linecap="round" stroke-miterlimit="3.8637" d="M45.2,213.9
	c0.5,1.7,0.6,2.7,1.2,4.3c0.8,2.1,1.5,3.1,2.7,5c1.3,1.9,2.1,3,3.7,4.6c1.4,1.4,2.4,2.1,4.1,3.2c1.6,1.1,2.6,1.4,4.3,2.3"/>
<path fill="none" stroke="#703D29" stroke-width="1.8422" stroke-miterlimit="3.8637" d="M97.7,175.6c3.2,2.7,5.7,6.2,6.9,9.9"/>
<path fill="none" stroke="#703D29" stroke-width="1.8422" stroke-linecap="round" stroke-miterlimit="3.8637" d="M104.7,198.8
	c-2.6,8.5-10.3,19.1-25.1,22.9c-7.1,1.8-16.2-0.5-19.4-3.1"/>
<path fill="none" stroke="#C7B37F" stroke-width="1.8422" stroke-linecap="round" stroke-miterlimit="3.8637" d="M58.3,216.3
	c1.4,0.8,2.1,1.3,3.6,1.9c1.3,0.6,2.1,0.8,3.6,1.1c1.9,0.4,3,0.6,5,0.6c2.1,0,2.8,0,5.4-0.4"/>
<path fill="none" stroke="#703D29" stroke-width="1.8422" stroke-miterlimit="3.8637" d="M52.8,196.8c0.8,7.7,5.9,13.5,15.7,13.6
	c13.7,0.3,22.1-19.7,9.9-33.8"/>
<polyline fill="none" stroke="#703D29" stroke-width="1.8422" stroke-linecap="round" stroke-miterlimit="3.8637" points="
	68.2,209.4 74.5,207.8 78.2,205 80.6,201.6 82.7,196.3 83.5,192 "/>
<path fill="#C7B37F" d="M60.3,190c0.8-2.7,3.6-4.3,6.3-3.5c2.7,0.8,4.3,3.6,3.5,6.3c-0.8,2.7-3.6,4.3-6.3,3.5
	C61.1,195.5,59.6,192.7,60.3,190z"/>
<path fill="none" stroke="#C7B37F" stroke-width="0.9571" stroke-miterlimit="3.8637" d="M60.3,190c0.8-2.7,3.6-4.3,6.3-3.5
	c2.7,0.8,4.3,3.6,3.5,6.3c-0.8,2.7-3.6,4.3-6.3,3.5C61.1,195.5,59.6,192.7,60.3,190z"/>
<polyline fill="none" stroke="#C7B37F" stroke-width="1.6446" stroke-miterlimit="3.8637" points="54,189 48.8,190.8 44.3,193.6 
	41.3,196.2 38,200.4 36.3,203.5 34.3,208.6 32.9,213.4 31.8,219.4 31.6,222.4 "/>
<path fill="none" stroke="#C7B37F" stroke-width="1.8422" stroke-miterlimit="3.8637" d="M65.9,183.1c-6-3.2-15.7-2.8-25.3,3.3
	c-1.5,1-3.1,2.2-4.6,3.5c-1.6,1.4-2.9,2.9-4.2,4.6c-1.4,1.9-3.1,5-4.1,7.1c-1.4,2.9-2,4.8-2.8,7.7c-2.2,8.3-2.2,16-1.9,18.3
	c0.3,2.8,0.6,5.4,1.1,7.8c1.6,8.2,3.9,13.9,6.4,18.1c1,1.7,2.6,4.1,4.9,6.6"/>
<ellipse fill="#C7B37F" cx="61.5" cy="258.1" rx="5" ry="5.4"/>
<path fill="none" stroke="#703D29" stroke-width="1.8422" stroke-linecap="round" stroke-miterlimit="3.8637" d="M21.9,263.8
	c2,2.5,4.4,4.8,6.8,6.8c4.9,4.1,10.7,7.7,17.3,9.6"/>
<path fill="none" stroke="#703D29" stroke-width="1.8422" stroke-linecap="round" stroke-miterlimit="3.8637" d="M61.4,281.6
	c12.3-1.5,19.2-10.6,17.8-21.3c-1-8.1-8.5-14.4-13.6-14.8"/>
<polyline fill="none" stroke="#703D29" stroke-width="1.6446" stroke-miterlimit="3.8637" points="78.3,262.4 77.3,268.7 76,271.5 
	73.5,275 70.1,277.6 66.6,279.3 59.9,281 "/>
<path fill="none" stroke="#703D29" stroke-width="1.8422" stroke-miterlimit="3.8637" d="M104.7,168c-1.9,5.4-5.3,9.2-10.7,11.7
	c-5.4,2.4-11.6,0.2-15-2.4"/>
<polyline fill="none" stroke="#703D29" stroke-width="1.6446" stroke-miterlimit="3.8637" points="104.5,165 103.2,168.8 
	101.6,171.6 99.4,174.6 96.4,177.4 92.7,179.1 89.7,179.8 87.8,179.7 "/>
<path fill="none" stroke="#703D29" stroke-width="1.8422" stroke-miterlimit="3.8637" d="M81.4,154.7c5.3-0.2,8.3,4.6,8.3,8.7"/>
<path fill="none" stroke="#703D29" stroke-width="1.8422" stroke-linecap="round" stroke-miterlimit="3.8637" d="M90.7,159.6
	c-1,3.7-3,8.4-8.9,7.9"/>
<ellipse fill="#C7B37F" cx="81.9" cy="161.7" rx="5.5" ry="6"/>
<ellipse fill="none" stroke="#C7B37F" stroke-width="0.9571" stroke-miterlimit="3.8637" cx="81.9" cy="161.7" rx="5.5" ry="6"/>
<line fill="none" stroke="#703D29" stroke-width="1.6446" stroke-miterlimit="3.8637" x1="88.9" y1="161.6" x2="89" y2="164.5"/>
<path fill="none" stroke="#703D29" stroke-width="1.8422" stroke-linecap="round" stroke-miterlimit="3.8637" d="M80.1,81.6
	c2.9,7.6,8.6,13.6,14.7,17"/>
<path fill="none" stroke="#C7B37F" stroke-width="1.8422" stroke-linecap="round" stroke-miterlimit="3.8637" d="M96.9,101
	c-2.3-1.4-3.8-2-6-3.5c-2.3-1.6-3.5-2.5-5.5-4.4c-1.4-1.4-2.2-2.2-3.4-3.8c-1-1.4-1.4-2.3-2.4-3.8"/>
<path fill="none" stroke="#C7B37F" stroke-width="1.8422" stroke-linecap="round" stroke-miterlimit="3.8637" d="M101.6,72.1
	c0.7,2,0.9,3.1,1.9,5c1.3,2.5,2.2,3.9,4.2,5.9c2.6,2.9,4.9,3.7,8,6.1"/>
<path fill="none" stroke="#C7B37F" stroke-width="1.8422" stroke-linecap="round" stroke-miterlimit="3.8637" d="M119.8,71.9
	c0.7,1.8,0.9,2.8,1.9,4.5c0.8,1.5,1.4,2.3,2.4,3.6c1.4,1.7,2.2,2.5,3.9,3.8c2,1.5,3.3,2,5.5,3.3"/>
<path fill="#C7B37F" d="M145.8,66.7c-0.3-3,1.5-5.6,4-5.9c2.5-0.3,4.8,1.9,5.1,4.9c0.3,3-1.5,5.6-4,5.9
	C148.4,71.9,146.1,69.7,145.8,66.7z"/>
<path fill="none" stroke="#703D29" stroke-width="1.8422" stroke-linecap="round" stroke-miterlimit="3.8637" d="M515.3,188.9
	c5,6.9,1.7,20.4-11.9,20.7c-5.3,0.1-10.1-2.9-13-7.3"/>
<path fill="none" stroke="#703D29" stroke-width="1.8422" stroke-miterlimit="3.8637" d="M69.2,185c-5.6-5.5-17.6-7-29.5,0.6
	c-1.5,1-3.1,2.2-4.6,3.5c-1.6,1.4-2.9,2.9-4.2,4.6c-1.4,1.9-3.1,5-4.1,7.1c-1.4,2.9-2,4.8-2.8,7.7c-2.2,8.3-2.2,16-1.9,18.2
	c0.3,2.8,0.6,5.4,1.1,7.8c1.6,8.2,4,13.9,6.5,18c2.6,4.4,9.2,14.4,22.5,15.7c5.2,0.5,14.2-1.9,14.5-8.7"/>
<path fill="none" stroke="#703D29" stroke-width="1.8422" stroke-linecap="round" stroke-miterlimit="3.8637" d="M413.6,64.1
	c0.9-4.8,6.7-5.8,8.9-2.9c3.4,4.4,1.1,11.9-5.7,14c-2.3,0.7-7.7,0.4-11.2-4.1c-2.8-3.6-2.6-8.2-1.6-11.8c0.7-2.3,2.5-4.3,5-6.2
	c7.9-6,20.8-4.6,25,5.5c5.4,13.1-6.4,22.9-17.3,30.3c-13.7,9.3-29.3,11-41.1,10.9c-26.7-0.3-47-13.1-60.2-20.3
	c-3.1-1.7-6.2-1.3-7.8,0.6c-1.8,2.2-1.8,5.7,0.7,8"/>
<path fill="none" stroke="#703D29" stroke-width="1.8422" stroke-linecap="round" stroke-miterlimit="3.8637" d="M419,59.6
	c2.8,0.1,3.6,1.2,4.5,2.4c3.4,4.4,0.9,11.9-5.9,14.1"/>
<circle fill="#C7B37F" cx="312.1" cy="85" r="5.6"/>
<path fill="#C7B37F" d="M413.6,65.2c0.5-2.8,2.8-4.7,5.2-4.3c2.4,0.4,3.9,3,3.4,5.8c-0.5,2.8-2.8,4.7-5.2,4.3
	C414.6,70.6,413.1,68,413.6,65.2z"/>
<path fill="none" stroke="#703D29" stroke-width="2.0932" stroke-linecap="round" stroke-miterlimit="3.8636" d="M270.1,72.3
	c4.5,3.4,7.7,7.7,7.1,14.5c-0.6,7.4-2.4,9.2-8.2,13.2"/>
<line fill="none" stroke="#703D29" stroke-width="1.8422" stroke-miterlimit="3.8637" x1="465.9" y1="99.3" x2="465.9" y2="145.3"/>
<path fill="none" stroke="#703D29" stroke-width="2.0932" stroke-linecap="round" stroke-miterlimit="3.8636" d="M276.1,88.9
	c-0.3,4.5-2.1,7.4-6.6,9.2"/>
<path fill="#703D29" d="M324.8,48.2c-0.2-4.9-5-5.5-6.9-5.5c-5.4,0-6.8,3.4-13.6,7c-8.4,4.5-12,5.5-19.5,5.6
	c-7.5-0.1-11.2-1.1-19.6-5.6c-6.7-3.6-7.9-6.9-13.2-6.9c-2.9,0-6.7,2.5-6.6,7.2c0,0-0.1,1.5,0.2,2.5c0.1,0.4,0.6,0.3,0.7,0.6
	c-0.1-2.2,0.4-3.4,1.5-4.9c1.4-1.9,3.8-2.5,4.7-2.5c5.4,0,7.4,3.5,14.1,7.1c8.4,4.5,12,5.5,19.5,5.6c7.5-0.1,11.2-1.1,19.6-5.6
	c6.7-3.6,8.6-7.4,14-7.4c1.9,0,3.2,1.2,3.8,3.1c0.4,1.2,0.2,2,0.3,2.4c0.1,0.2,0.3,0.2,0.4,0.4C324.4,50.6,324.9,50.3,324.8,48.2z"
	/>
<path fill="none" stroke="#703D29" stroke-width="0.5163" stroke-miterlimit="3.8636" d="M324.8,48.2c-0.2-4.9-5-5.5-6.9-5.5
	c-5.4,0-6.8,3.4-13.6,7c-8.4,4.5-12,5.5-19.5,5.6c-7.5-0.1-11.2-1.1-19.6-5.6c-6.7-3.6-7.9-6.9-13.2-6.9c-2.9,0-6.7,2.5-6.6,7.2
	c0,0-0.1,1.5,0.2,2.5c0.1,0.4,0.6,0.3,0.7,0.6c-0.1-2.2,0.4-3.4,1.5-4.9c1.4-1.9,3.8-2.5,4.7-2.5c5.4,0,7.4,3.5,14.1,7.1
	c8.4,4.5,12,5.5,19.5,5.6c7.5-0.1,11.2-1.1,19.6-5.6c6.7-3.6,8.6-7.4,14-7.4c1.9,0,3.2,1.2,3.8,3.1c0.4,1.2,0.2,2,0.3,2.4
	c0.1,0.2,0.3,0.2,0.4,0.4C324.4,50.6,324.9,50.3,324.8,48.2z"/>
<path fill="none" stroke="#703D29" stroke-width="1.9435" stroke-linecap="round" stroke-miterlimit="3.8636" d="M166.3,67
	c0,5-3.7,8.2-8.7,9.2"/>
<path fill="none" stroke="#703D29" stroke-width="1.8422" stroke-miterlimit="3.8637" d="M53.8,189.9c-4.4,1.5-10,4.3-14.1,10.1
	c-3.5,4.9-5.5,11.7-6.7,17.7c-0.5,2.6-1.2,10.9,0.5,19.4c1.2,6.3,3.8,12.2,6.7,16.4c1,1.5,2,2.6,3,3.6c1,1,2.3,1.8,3.3,2.6"/>
<path fill="none" stroke="#703D29" stroke-width="1.8422" stroke-miterlimit="3.8637" d="M55.5,187.3c-4.6,1.2-12.2,3.6-17.4,11
	c-3.5,4.9-5.5,11.7-6.7,17.7c-0.5,2.6-1.2,10.9,0.5,19.4c1.2,6.3,3.8,12.2,6.7,16.4c1,1.5,2,2.8,3,3.9c3.8,3.8,7.3,6.1,13.1,4.9"/>
<path fill="none" stroke="#703D29" stroke-width="1.9435" stroke-linecap="round" stroke-miterlimit="3.8636" d="M53.5,188.6
	c-5.5,3.4-9.7,4.2-14,9.2c-5,5.8-6.1,10.8-6.6,18.2"/>
<path fill="none" stroke="#703D29" stroke-width="1.8422" stroke-linecap="round" stroke-miterlimit="3.8637" d="M469.6,226.4
	c-10.2,11.1-0.8,30.1,6.8,34.4c2.6,2,3.8,1,5.9,2.2"/>
<path fill="none" stroke="#703D29" stroke-width="1.8422" stroke-miterlimit="3.8637" d="M470.1,205.2c-3.3,2.3-4.5,4.9-4.6,9.5
	c-0.1,3.8,0.6,8,4.1,11.7c5.5,5.8,16.4,10.8,26.9,10.9c5.7,0.1,11.6-1.1,17.6-5.1c6.4-4.3,9.7-10,11.2-15.7"/>
<path fill="#C7B37F" d="M464.4,396.7c0,0,0,4.5-0.4,7.3c-1.1,8.1-2.4,12.8-6.1,20.2c-3.6,7.2-6.5,10.9-12.2,16.5
	c-5.8,5.7-9.8,8.3-17,11.9c-7,3.5-11.5,4.6-19.2,6.4c-7.7,1.7-12.2,2.1-20,2.5c-7.2,0.3-11.3,0-18.5-0.5c-7.7-0.5-12-1.6-19.7-2.3
	c-6.4-0.6-9.9-1.1-16.3-1.1c-6.6,0-10.3,0.1-16.8,1.2c-6,1.1-9.4,1.9-15.1,4.2c-7.8,3.2-16.7,8.7-18.6,11.2
	c-1.9-2.5-10.7-8-18.6-11.2c-5.7-2.3-9.1-3.1-15.1-4.2c-6.5-1.1-10.2-1.2-16.8-1.2c-6.4,0-10,0.5-16.3,1.1c-7.7,0.7-12,1.8-19.7,2.3
	c-7.2,0.5-11.3,0.8-18.5,0.5c-7.9-0.4-12.4-0.7-20-2.5c-7.7-1.7-12.1-2.9-19.2-6.4c-7.2-3.6-11.2-6.2-17-11.9
	c-5.7-5.6-8.6-9.4-12.2-16.5c-3.7-7.3-5-12-6.1-20.2c-0.4-2.8-0.4-7.2-0.4-7.3V99.9h359.4v296.8H464.4z"/>
<path fill="none" stroke="#703D29" stroke-width="1.8422" stroke-miterlimit="3.8637" d="M464.4,396.7c0,0,0,4.5-0.4,7.3
	c-1.1,8.1-2.4,12.8-6.1,20.2c-3.6,7.2-6.5,10.9-12.2,16.5c-5.8,5.7-9.8,8.3-17,11.9c-7,3.5-11.5,4.6-19.2,6.4
	c-7.7,1.7-12.2,2.1-20,2.5c-7.2,0.3-11.3,0-18.5-0.5c-7.7-0.5-12-1.6-19.7-2.3c-6.4-0.6-9.9-1.1-16.3-1.1c-6.6,0-10.3,0.1-16.8,1.2
	c-6,1.1-9.4,1.9-15.1,4.2c-7.8,3.2-16.7,8.7-18.6,11.2c-1.9-2.5-10.7-8-18.6-11.2c-5.7-2.3-9.1-3.1-15.1-4.2
	c-6.5-1.1-10.2-1.2-16.8-1.2c-6.4,0-10,0.5-16.3,1.1c-7.7,0.7-12,1.8-19.7,2.3c-7.2,0.5-11.3,0.8-18.5,0.5c-7.9-0.4-12.4-0.7-20-2.5
	c-7.7-1.7-12.1-2.9-19.2-6.4c-7.2-3.6-11.2-6.2-17-11.9c-5.7-5.6-8.6-9.4-12.2-16.5c-3.7-7.3-5-12-6.1-20.2
	c-0.4-2.8-0.4-7.2-0.4-7.3V99.9h359.4v296.8H464.4z"/>
<rect x="123" y="117.9" fill="#E20025" width="153.4" height="153.1"/>
<rect x="123" y="117.9" fill="none" stroke="#703D29" stroke-width="1.4886" stroke-miterlimit="3.8636" width="153.4" height="153.1"/>
<path fill="#FFFFFF" d="M216.1,235.8l-4.7-1.2l-6.5-0.6l-0.5,4.4c0,0,0.1,5.5,1.6,9.9c1.7,5.1,1.8,5.1,3.4,7.5
	c2.2,3.3,4.8,5.8,7.1,7.3c3.7,2.3,7.4,3.5,11.1,3.2c10.3-0.9,15-12,17.3-21c2.5-9.6,9.5-14.8,13.9-11.3c2.6,2,2.8,5.4,0.6,8.7
	c-2.3,3.5-7.7,5.2-7.7,5.2l5.5,7c0,0,11.8-1.5,14.1-13.8c0.9-4.6-0.4-14.2-9.1-15.9c-10.2-2-15.5,3.6-18.6,9.5
	c-4.2,8.2-6.7,23.4-18.3,21c-6.3-1.3-9.3-10.4-9.3-14.7L216.1,235.8z"/>
<path fill="#FFFFFF" d="M194.9,238.5c0,0-0.1,5.5-1.6,9.9c-1.7,5.1-1.8,5.1-3.4,7.5c-2.2,3.3-4.8,5.8-7.1,7.3
	c-3.7,2.3-7.4,3.5-11.1,3.2c-10.3-0.9-15-12-17.3-21c-2.5-9.6-9.5-14.8-13.9-11.3c-2.6,2-2.8,5.4-0.6,8.7c2.3,3.5,7.7,5.2,7.7,5.2
	l-5.5,7c0,0-11.8-1.5-14.1-13.8c-0.9-4.6,1.4-13.3,9.1-15.9c9.9-3.3,16.2,3.7,19.3,9.7c4.2,8.2,6,23.2,17.6,20.9
	c6.3-1.3,9.3-10.4,9.3-14.7l4.6-4.9l6.8,2.2L194.9,238.5z"/>
<path fill="#FFEA0F" d="M213.4,173.4l20.1-21.7c0,0,3-2.4,3-6.4l-4.1,0.6l-0.9-2.1l-0.2-2.1l5.6-1.2c0.1-0.9,0-1.6,0.2-2.6
	c0.1-0.9,0.4-1.4,0.6-2.3l-6.1,0.4c0.3-1.1,0.2-1.6,0.6-2.6c0.3-0.8,0.4-1.2,0.9-2.1c1.1-0.2,2.2-0.4,3.6-0.6
	c1.4-0.1,2.1-0.1,3.5-0.2c3.3-6.2,17.2-11.9,27-1.7c7.1,7.4,5.6,20.9-3.6,24.5c-5.2,2-9.4,0.8-12.8-2.1l3.7-7.2c5.1,3,9.3-0.7,9-4.7
	c-0.4-5-3.6-8-8.1-8.4c-4.2-0.4-7.2,2-9.1,5.8c-1.2,2.3-0.6,4-1,6.5c-0.4,2.8-0.2,4.3-1,7.1c-0.6,2-2.2,4.5-4.4,6.7l-20.6,22.3
	l-80.2,86.7l-6-5.6L213.4,173.4z"/>
<path fill="#FFFFFF" d="M154.4,181c0,0,5,25,22.2,62.4c8.7-3.2,13.9-5.2,23.1-5.2c9.2,0,14.4,1.7,23.1,5.2
	c17.1-37.4,22.2-62.4,22.2-62.4l-45.2-58.2L154.4,181z"/>
<path fill="#FFEA0F" d="M204.2,142.5l31.3,40.4c0,0-4.2,19.6-16.9,49.2c-4.9-1.1-9.1-2.1-14.4-2.4L204.2,142.5z"/>
<path fill="#FFEA0F" d="M195.3,142.5l-31.4,40.4c0,0,4.2,19.6,16.9,49.2c4.9-1.1,9.2-2.1,14.4-2.5L195.3,142.5z"/>
<rect x="292.7" y="117.9" fill="#FFEA0F" width="153.4" height="153.1"/>
<rect x="292.7" y="117.9" fill="none" stroke="#703D29" stroke-width="1.4886" stroke-miterlimit="3.8636" width="153.4" height="153.1"/>
<path fill="#FFEA0F" d="M445.6,403.8c-0.4,2.8-1.4,7.5-4,12.3c-2.8,4.4-1.7,4.2-8,11.2c-3.1,3.4-7.9,6.4-11.6,8.4
	c-3.8,2-6.6,3-12.8,4.7c-12.2,3.2-20.7,3.4-30.9,3c-8-0.3-14.1-1.3-19.1-2c-7.2-1-12.6-1.5-20.8-1.9c-4-0.2-7.7-0.2-11.5,0
	c-4.5,0.2-8.9,0.9-13.6,1.9c-10.2,2-20.6,5.9-20.6,5.9l0.1-159.9l153.4,0v109.3C446.1,396.7,445.8,402,445.6,403.8z"/>
<path fill="none" stroke="#703D29" stroke-width="1.4886" stroke-miterlimit="3.8636" d="M445.6,403.8c-0.4,2.8-1.4,7.5-4,12.3
	c-2.8,4.4-1.7,4.2-8,11.2c-3.1,3.4-7.9,6.4-11.6,8.4c-3.8,2-6.6,3-12.8,4.7c-12.2,3.2-20.7,3.4-30.9,3c-8-0.3-14.1-1.3-19.1-2
	c-7.2-1-12.6-1.5-20.8-1.9c-4-0.2-7.7-0.2-11.5,0c-4.5,0.2-8.9,0.9-13.6,1.9c-10.2,2-20.6,5.9-20.6,5.9l0.1-159.9l153.4,0v109.3
	C446.1,396.7,445.8,402,445.6,403.8z"/>
<path fill="#0065BD" d="M332.9,332.5c-1.5-0.4-3.7-1.5-3.7-1.5c0.6-0.5,1.1-0.5,1.6-1c0.7-0.8,0.7-1.5,1.1-2.5
	c0.4-1,0.3-1.8,1.3-2.5c0.5-0.4,1.4-0.5,2.1-0.3c0.7,0.2,1.4,0.7,1.6,1.4c0.3,1-0.3,1.7-0.5,2.7c-0.2,1.1-0.5,1.7-0.4,2.7
	c0.1,0.7,0.4,1,0.7,1.7C336.7,333.2,334.4,332.9,332.9,332.5z"/>
<path fill="#0065BD" d="M331.1,334.2c0-0.6,0.5-1.2,1.2-1.2c0.6,0,1.2,0.5,1.2,1.2s-0.5,1.2-1.2,1.2S331.1,334.9,331.1,334.2z"/>
<path fill="#0065BD" d="M327.8,303.4c0,0-0.2-0.1-0.3-0.2c-0.7-0.6-0.8-1.2-1.1-2.1c-0.3-0.8-0.5-1.3-0.6-2.2c-0.1-0.8,0-1.2,0-2
	c0-0.7,0.1-1.1,0-1.8c-0.1-0.7-0.1-1.1-0.4-1.8c-0.2-0.3-0.7-0.6-0.6-0.8c0.2-0.2,0.5,0,0.8,0c0.7,0.1,1.2,0.3,1.8,0.8
	c0.7,0.6,1,1.1,1.3,2c0.3,1,0.5,1.7,0.8,2.7c0.2,0.6,0.2,0.9,0.5,1.4c0.3,0.5,0.6,0.7,1,1.2l0,0c-0.6,0.6-0.8,1-1.4,1.6
	C328.9,302.8,328.4,303.1,327.8,303.4L327.8,303.4z"/>
<path fill="#E20025" d="M412.9,323.3c0,1.3-0.1,2.9,0,5.4c0.1,2.3-0.4,3.6-0.2,5.1c0.1,1,0.4,1.5,1.3,2.8c1.6,2.4,3.3,2.9,2,6.9
	c-0.9,2.6-0.4,1.9-0.8,3.1c-0.4,1.4-0.3,1.7-0.8,3.5c-0.4,1.6-0.8,4.9-1.2,8.4c-0.1,0.6-0.1,0.9-0.1,1.2c-0.2,0.6-0.7,0.5-1.5,0.6
	c-0.9,0.1-0.5,1.9-0.8,3.1l-0.7,0.7l-3-0.8l-2.1-0.7l0.3-1.9c0.4-0.3,0.7-0.4,1.1-0.7c1.1-0.9,1.6-1.6,2.2-2.9
	c0.6-1.4,0.6-2.3,0.9-3.7c0.3-1.7,0.7-2.6,0.6-4.3c-0.1-1.4-0.8-2.1-1-3.5c-0.2-1.2,0.3-2-0.1-3.1c-0.5-1.4,0.5-1.2-2.3-2.6
	c0,0,0.2,1.1,0.4,1.8c0.1,0.5,0.4,0.8,0.4,1.3c0,0.8-0.6,1.1-1,1.7c-1,1.3-2,1.5-3.1,2.7c-2.6,2.5-4,4.1-5.6,7.3
	c-0.5,1-0.5,2.2-1.2,2.7c-0.5,0.5-1.2,0.3-1.9,0.4c-0.6,0.1-1.1,0.3-1.4,0.8c-0.3,0.4-0.5,0.8-0.4,1.4l-0.8,0.5l-2.4-0.4l-2.7-1
	l0.4-1.9c1.8-1.4,2.6-0.5,3.9-1.6c0.8-0.6,1.1-1.1,1.7-2c0.5-0.6,0.6-1.1,1.1-1.7c0.4-0.5,0.7-0.7,1.1-1.2c0.9-1.1,1.3-1.8,2-2.9
	c0.6-1,1-1.5,1.4-2.5c0.2-0.7,0.4-1.1,0.5-1.8c0.1-0.6,0.1-1,0.1-1.5c-0.4,0.2-1.5,0.5-1.9,0.7c0,0.2,0,1.3,0,1.5
	c-0.1,0.6,0,1.2-0.6,1.6c-0.3,0.2-0.6,0.3-1,0.2c-0.5-0.1-0.7-0.4-0.9-0.8c-0.2-0.4,0-0.7-0.1-1.2c0-0.2,0-0.8,0-0.9
	c-0.6,0.1-1,0.1-1.6,0.1c-0.7,0-0.9,0-1.6-0.1c0,0.2,0.1,1.1,0,1.3c-0.1,0.6,0,1-0.5,1.4c-0.4,0.3-0.8,0.4-1.3,0.3
	c-0.3-0.1-0.5-0.3-0.7-0.5c-0.3-0.4-0.2-0.8-0.2-1.4c0-0.2,0-1.6,0-1.8c-1.9-0.7-3.6-1.7-5.1-3c0,0-1.1,0.4-1.4,0.4
	c-6.6,1.4-11.5,1.6-17.5,0.7c-0.2,1.6-0.3,2.8-0.7,4.6c-0.4,1.6-1,2.5-1.3,4.1c-0.2,1.1-0.3,1.8-0.3,2.9c-0.1,2,0,3,0.3,5.1
	c0.2,1.2,0.4,1.9,0.5,3.1c0.1,0.8,0.2,0.9-0.1,1.4c-0.3,0.4-1-0.1-1.7,0.2c-0.4,0.2-0.7,0.5-0.9,1c-0.2,0.4-0.3,0.7-0.3,1.2L359,364
	l-2.4-0.6l-2.1-0.9l0.2-1.9c0.7-0.5,1.3-0.6,1.8-1.3c0.5-0.7,0.7-1.1,0.8-2c0.2-1.3,0.3-2,0.4-3.3c0.1-1.4,0-2.2,0-3.5
	c0-0.5-0.2-0.7-0.4-1.2c-0.2-0.4-0.3-0.7-0.5-1.1c-0.6-0.9-0.2-4.6-0.3-6.6c0-0.5-0.1-0.9-0.2-1.3l-0.7,0.2
	c-0.6,0.1-1.1,0.2-2.3-0.1c-1.6-0.5-2.1-0.8-2.7-0.7c-0.7,0.1-1.3,0-1.8-0.2c-1.6,1.6-2.1,1.8-3.7,3.4c-0.6,0.5-0.8,0.8-0.7,1.4
	c0.4,1.9,1.9,2.1,3,3.4c0.6,0.7,1.7,1.2,1.2,2c-0.4,0.6-1.2,0.5-1.3,1.2c-0.1,0.6,0.1,1,0.5,1.4l-0.1,1.7l-1.2,2.2l-1.2,1.2
	l-1.8-0.7c-0.1-1.5-0.2-2.3-0.6-3.7c-0.4-1.5-0.8-2.4-1.5-3.7c-1.3-2.4-1.8-2.8-2.9-4.5c-1.7-2.9-0.8-2.9,0.6-5.1
	c1.1-1.8,2.3-2.4,3.7-4c-0.7-1.2-1-2.4-2.2-2.8c-0.6-0.2-1.6-2.4-2.7-6c-0.1-0.3,0-1,0.1-1.6c0.1-0.2,0.2-0.4,0.3-0.7l-4-1.8
	c0.4-0.3,0.8-0.5,1.2-0.8c-0.5,0.1-0.8-0.1-1.4,0c-0.5,0.1-0.7,0.2-1.2,0.3c-0.7,0.1-1.2,0-1.9-0.2c-0.9-0.2-1.5-0.4-2.3-0.8
	c-1.1-0.5-1.6-1.1-2.7-1.6c-1.4-0.6-2.3-0.5-3.8-0.9c-0.8,0.1-1.4,0.1-2.4-0.2c-0.5-0.2-0.6-0.9-1-1.5c-0.2-0.4-1.2-2.1-1.5-2.7
	c-0.2-0.4-0.2-0.7-0.4-1.1c0.5-0.3,0.7-1.1,1.4-1.3c0.4-0.1,0.7,0,1.1-0.1c0.3-0.1,0.4-0.2,0.7-0.3c0.9-0.5,1.2-1.1,2-1.9
	c0.8-0.7,1.3-1.1,2-1.9c0.5-0.6,0.9-1,1.2-1.7c0.3-0.7,0-1.3,0.5-1.9c0.3-0.4,0.7-0.5,1.1-0.8c0.9-0.6,1.5-0.8,2.3-1.6
	c0.6-0.5,0.9-0.9,1.4-1.6c0.4-0.2,1.1-0.5,1.1-0.5c2.6,0.4,3.5,0.8,5.6,1.7c1.7,0.7,4.1,2.3,4.1,2.3c0.4-0.4,0.9-0.8,1.5-1.1
	c0.8-0.4,1.4-0.5,2.3-0.6c0.7-0.1,1.1-0.1,1.8,0c0.6,0.1,1.1,0.4,1.7,0.8c-0.6,0.6-0.9,1.2-1.4,1.8c-0.6,0.7-0.5,1.3-1,1.9
	c-0.8,1-1.1,1.4-2.7,1.9l4,1.3c0,0,3.6-0.1,7.2-0.3c6.9-0.6,6.9-1.6,11.5-2c2.5-0.2,6.6,0.7,10.8,0.6c3.6-0.1,5.6-0.4,9.2-0.8
	c3.7-0.4,5.8-1.2,9.5-1.4c3.1-0.2,4.9-0.1,8,0.1c3,0.2,4.9,0.1,7.7,1.1c1.8,0.6,3.6,1,5.1,2.7c0.4,0.5,0.8,0.9,1,1.5
	c0.2,0.6,0.5,1,0.6,1.8c0.1,0.7,0.2,1.3,0.2,1.9c0,0.9-0.1,1.8-0.6,2.7c-1.4,3-2.2,3.4-4.4,4.6C413.4,323,413.2,323.2,412.9,323.3z"
	/>
<path fill="none" stroke="#FFEA0F" stroke-width="1.8422" stroke-linecap="round" stroke-miterlimit="3.8637" d="M414.4,323.8
	l-1.4,0.5c-1.6,0.8-2.9,0.8-4.9,0.9c-4.9,0.4-8-2-13.1-1.6c-2.6,0.2-3.8,2.2-6.5,2.9c-1.2,0.3-1.9,0.4-3.2,0.5l1-1.9
	c0,0-2.4,0.5-3.9,0.5c-1.1,0-1.7-0.1-2.8-0.2l1.9-1.8c0,0-1.5-0.2-2.4-0.6c-0.8-0.4-1.3-0.6-2-1.2c1.2-0.2,1.9-0.4,3.2-0.7
	c2.9-0.7,3.8-2.1,7.3-2.5c2.1-0.2,5.7-0.1,14.3,1.3c5.7,0.9,8.2,0.5,10.3-0.5c1.4-0.6,1.9-1.9,2.1-3.3s-0.8-2.6-1.6-3.4
	c-0.2-0.2-0.8-0.6-2.1-0.7"/>
<path fill="#FFEA0F" d="M332.3,307.1c-1-0.1-1.7,0-2.5,0.5c-0.9,0.6-1,1.3-1.7,2.1c0.8,0.2,1.3,0.7,2.1,0.5c0.6-0.2,1-0.4,1.4-0.9
	c0.6-0.7,0.8-1.3,0.8-2.2L332.3,307.1z"/>
<path fill="none" stroke="#FFEA0F" stroke-width="0.9571" stroke-miterlimit="3.8636" d="M332.3,307.1c-1-0.1-1.7,0-2.5,0.5
	c-0.9,0.6-1,1.3-1.7,2.1c0.8,0.2,1.3,0.7,2.1,0.5c0.6-0.2,1-0.4,1.4-0.9c0.6-0.7,0.8-1.3,0.8-2.2L332.3,307.1z"/>
<path fill="none" stroke="#FFEA0F" stroke-width="1.8422" stroke-linecap="round" stroke-miterlimit="3.8637" d="M353.3,331.8
	c0,0,0.5,0.9,0.8,1.5c0.5,1,0.7,1.6,1,2.7c0.4,1.5,0.2,2.4,0.4,3.9c0,0.3,0.1,0.5,0.1,0.7l-0.1,2.1"/>
<path fill="none" stroke="#FFEA0F" stroke-width="1.8422" stroke-linecap="round" stroke-miterlimit="3.8637" d="M368.2,329.7
	c0,0-0.4,1.5-0.7,2.5c-0.7,2.5-1.3,3.9-1.8,6.5c-0.1,0.4-0.1,0.8-0.2,1.2"/>
<path fill="#0065BD" d="M334.5,323.3l4.2,1.9c2.1-1.2,4.6-3.6,6.5-7.3c1.6-3.2,1.9-4.9,2.5-8.1l-3.3-1.1l-0.7,0.1
	c-1,3.2-1.3,5-3,7.8c-1.5,2.4-3.2,4.3-4.9,5.7L334.5,323.3z"/>
<polygon fill="#E20025" points="334.6,323.3 334.6,322.4 335.7,322.4 336.6,323 "/>
<path fill="#0065BD" d="M343.7,357.1c0.7-0.9,1-1.5,1.7-2.4c0.8-0.9,1.5-1.3,2.4-2.1c0.3,0,0.6,0,0.9,0.1c-0.1,1-0.1,1.8-0.3,2.9
	c-0.2,0.9-0.3,1.4-0.6,2.3c-0.3,0.7-0.3,1.2-0.7,1.8c-0.3,0.4-0.5,0.6-0.9,1C345.2,359.3,343.7,358.2,343.7,357.1z"/>
<path fill="#0065BD" d="M405.3,360.5c1.1,0.4,1.7,0.5,2.7,1c1.1,0.6,1.7,1.1,2.7,1.8c0.1,0.3,0.2,0.6,0.1,0.9
	c-1,0.2-1.7,0.4-2.9,0.5c-0.9,0.1-1.4,0-2.3,0c-0.8,0-1.2,0-2-0.2c-0.5-0.2-0.7-0.4-1.2-0.6C403.7,362.6,404.2,360.8,405.3,360.5z"
	/>
<path fill="#0065BD" d="M387.1,356.7c1.1,0.4,1.7,0.5,2.7,1c1.1,0.6,1.7,1.1,2.7,1.8c0.1,0.3,0.2,0.6,0.1,0.9
	c-1,0.2-1.7,0.4-2.9,0.5c-0.9,0.1-1.4,0.1-2.3,0c-0.8,0-1.2,0-2-0.2c-0.5-0.2-0.7-0.4-1.2-0.6C385.5,358.8,386,357,387.1,356.7z"/>
<path fill="#0065BD" d="M354.7,360.7c1.1,0.4,1.7,0.5,2.7,1c1.1,0.6,1.7,1.1,2.7,1.8c0,0.3,0.2,0.6,0.1,0.9c-1,0.2-1.7,0.4-2.9,0.5
	c-0.9,0.1-1.4,0.1-2.3,0c-0.8,0-1.2,0-2-0.2c-0.5-0.2-0.7-0.4-1.2-0.6C353.1,362.8,353.6,361,354.7,360.7z"/>
<path fill="#0065BD" d="M338,305.1c-1.1-0.5-2-1.9-1.2-3c0.3-0.4,0.8-0.3,1.1-0.7c0.4-0.5,0.3-0.9,0.3-1.6c0-0.7-0.3-1.1-0.4-1.8
	c-0.1-0.8-0.3-1.2-0.3-2c0-1.2-0.1-2,0.6-2.9c0.5-0.6,1.2-1.1,1.5-1.1c0.3,0.3-0.1,0.9-0.1,1.5c0.1,0.9,0.2,1.3,0.5,2.2
	c0.4,1,0.9,1.5,1.3,2.5c0.4,1,0.7,1.5,0.8,2.5c0,0.9,0,1.4-0.4,2.2c-0.3,0.7-0.6,1.1-1.1,1.6c-0.5,0.4-0.9,0.6-1.5,0.8
	C338.7,305.3,338.4,305.3,338,305.1z"/>
<path fill="none" stroke="#E20025" stroke-width="0.9571" stroke-miterlimit="3.8636" d="M324.2,320.2c1.4-0.1,2.1-0.3,3.5-0.4
	c0.9,0,1.4,0.1,2.2,0.1c0.8,0,1.3,0.2,2.1,0.1c0.9-0.1,1.4-0.4,2.2-0.8c0.6-0.3,0.9-0.5,1.4-0.9c0.6-0.5,0.9-0.8,1.5-1.4
	c0.6-0.6,1-0.9,1.6-1.4"/>
<path fill="none" stroke="#E20025" stroke-width="1.8422" stroke-linecap="round" stroke-miterlimit="3.8637" d="M342.3,336.5
	c0.7,0.8,1.6,1.6,3,2.1"/>
<path fill="none" stroke="#FFEA0F" stroke-width="1.8422" stroke-linecap="round" stroke-miterlimit="3.8637" d="M345.3,332.5
	c1.5,0.3,1,6.3,3.3,7.6"/>
<path fill="none" stroke="#FFEA0F" stroke-width="1.8422" stroke-miterlimit="3.8637" d="M398.2,342.9l0.7-0.5
	c1.9-0.8,3.6-1.9,5-3.3"/>
<path fill="none" stroke="#FFEA0F" stroke-width="1.8422" stroke-linecap="round" stroke-miterlimit="3.8637" d="M383.8,339.6
	C383.8,339.6,383.8,339.6,383.8,339.6c6.6-1.7,11-4.9,14.2-5.4"/>
<path fill="none" stroke="#FFEA0F" stroke-width="1.8422" stroke-linecap="round" stroke-miterlimit="3.8637" d="M390.5,331.4
	c0.6,0,1.1-0.1,1.5-0.1c2.7-0.4,3.2,1.3,5.1,2.3c3.5,1.9,3.9,4.3,8,6.3c0.2,0.1,0.4,0.2,0.6,0.3l1.6,0.8"/>
<path fill="#E20025" d="M388.6,331.5l2.8,2.8l4.4-0.5c0,0-0.9-0.9-1.5-1.4c-0.3-0.2-0.4-0.4-0.8-0.5c-0.3-0.1-0.4,0-0.7-0.1
	c-0.5,0-0.7,0-1.2-0.1c-0.7,0-1-0.1-1.7-0.1c-0.5,0-0.8,0-1.2-0.1L388.6,331.5z"/>
<path fill="#E20025" d="M411.7,313.4c-0.2-0.4-0.5-0.5-0.9-0.7c-0.7-0.4-2-0.5-2-0.5l-0.5,3.3l3.6-0.9
	C411.9,314.5,411.9,313.7,411.7,313.4z"/>
<path fill="#E20025" d="M402.1,327.4l0.8-1.8c-0.7-0.1-1.1-0.2-1.8-0.4c-0.8-0.2-1.3-0.4-2.1-0.5c-0.9-0.2-1.4-0.3-2.3-0.4
	c-0.8-0.1-1.3-0.3-2.1-0.2c-0.7,0.1-1,0.3-1.6,0.6c-0.7,0.4-1.1,0.7-1.8,1.1c-0.8,0.5-1.3,0.8-2.2,1.1c-0.8,0.3-1.3,0.4-2.1,0.6
	c-1.5,0.4-2.3,0.5-3.8,0.7l4.2,1.6L402.1,327.4z"/>
<path fill="#E20025" d="M383.5,328.4l1.8-2.9c0,0-1.8,0.4-3,0.5c-2.2,0.2-3.4,0.1-5.7,0l0.5,3.2l3.6,1.6L383.5,328.4z"/>
<path fill="#E20025" d="M378.9,321.8c0,0,1.8-0.4,2.9-0.8c0.9-0.4,1.4-0.7,2.4-1.1c0.6-0.3,1-0.4,1.6-0.6c0.8-0.2,1.3-0.3,2.2-0.4
	c0.9-0.1,1.4,0,2.2,0.1c1.3,0.1,2,0.2,3.2,0.3c1.2,0.1,1.8,0.3,3,0.4c1.1,0.2,1.8,0.3,2.9,0.5c1.9,0.4,3,0.6,5,0.9
	c1.6,0.2,2.5,0.3,4,0.3c1.1,0,1.8-0.1,2.9-0.3l-1.1,1.8l-10.4-0.9l-10.9-0.6l-7.9,0.8h-1.4L378.9,321.8z"/>
<path fill="#FFEA0F" d="M319,314.5c0.5,0.1,0.8,0.1,1.3,0.1c0.6-0.1,0.9-0.4,1.5-0.5c0.5,0,0.9-0.1,1.3,0.2c0.3,0.2,0.4,0.4,0.5,0.6
	c0.2,0.3,0.3,0.5,0.2,0.9c-0.1,0.5-0.6,0.8-1.1,0.8c-0.4,0-0.8-0.1-1-0.5c-0.1-0.3-0.2-0.5-0.1-0.7c-0.5,0.2-0.9,0.2-1.4,0
	C319.7,315.2,319.3,315,319,314.5z"/>
<path fill="none" stroke="#FFEA0F" stroke-width="0.9571" stroke-miterlimit="3.8636" d="M319,314.5c0.5,0.1,0.8,0.1,1.3,0.1
	c0.6-0.1,0.9-0.4,1.5-0.5c0.5,0,0.9-0.1,1.3,0.2c0.3,0.2,0.4,0.4,0.5,0.6c0.2,0.3,0.3,0.5,0.2,0.9c-0.1,0.5-0.6,0.8-1.1,0.8
	c-0.4,0-0.8-0.1-1-0.5c-0.1-0.3-0.2-0.5-0.1-0.7c-0.5,0.2-0.9,0.2-1.4,0C319.7,315.2,319.3,315,319,314.5z"/>
<path fill="#0065BD" d="M332.9,400.8c-1.5-0.4-3.7-1.5-3.7-1.5c0.6-0.5,1.1-0.5,1.6-1c0.7-0.8,0.7-1.5,1.1-2.5
	c0.4-1,0.3-1.8,1.3-2.5c0.5-0.4,1.4-0.5,2.1-0.3c0.7,0.2,1.4,0.8,1.6,1.4c0.3,1-0.3,1.7-0.5,2.7c-0.2,1.1-0.5,1.7-0.4,2.7
	c0.1,0.7,0.4,1,0.7,1.7C336.7,401.5,334.4,401.2,332.9,400.8z"/>
<path fill="#0065BD" d="M331.1,402.5c0-0.6,0.5-1.2,1.2-1.2s1.2,0.5,1.2,1.2s-0.5,1.2-1.2,1.2C331.6,403.7,331.1,403.2,331.1,402.5z
	"/>
<path fill="#0065BD" d="M327.8,371.7c0,0-0.2-0.1-0.3-0.2c-0.7-0.6-0.8-1.2-1.1-2.1c-0.3-0.8-0.5-1.3-0.6-2.2c-0.1-0.8,0-1.2,0-2
	c0-0.7,0.1-1.1,0-1.8c-0.1-0.7-0.1-1.1-0.4-1.8c-0.2-0.3-0.7-0.6-0.6-0.8c0.2-0.2,0.5,0,0.8,0c0.7,0.1,1.2,0.3,1.8,0.8
	c0.7,0.6,1,1.1,1.3,2c0.3,1,0.5,1.7,0.8,2.7c0.2,0.6,0.2,0.9,0.5,1.4c0.3,0.5,0.6,0.7,1,1.2l0,0c-0.6,0.6-0.8,1-1.4,1.6
	C328.9,371.1,328.4,371.4,327.8,371.7L327.8,371.7z"/>
<path fill="#E20025" d="M412.9,391.6c0,1.3-0.1,2.9,0,5.4c0.1,2.3-0.4,3.6-0.2,5.1c0.1,1,0.4,1.5,1.3,2.8c1.6,2.4,3.3,2.9,2,6.9
	c-0.9,2.6-0.4,1.9-0.8,3.1c-0.4,1.4-0.3,1.7-0.8,3.5c-0.4,1.6-0.8,4.9-1.2,8.4c-0.1,0.6-0.1,0.9-0.1,1.2c-0.2,0.6-0.7,0.5-1.5,0.6
	c-0.9,0.1-0.5,1.9-0.8,3.1l-0.7,0.7l-3-0.8l-2.1-0.7l0.3-1.9c0.4-0.3,0.7-0.4,1.1-0.7c1.1-0.9,1.6-1.7,2.2-2.9
	c0.6-1.4,0.6-2.3,0.9-3.7c0.3-1.7,0.7-2.6,0.6-4.3c-0.1-1.4-0.8-2.1-1-3.5c-0.2-1.2,0.3-2-0.1-3.1c-0.5-1.4,0.5-1.2-2.3-2.6
	c0,0,0.2,1.1,0.4,1.8c0.1,0.5,0.4,0.8,0.4,1.3c0,0.8-0.6,1.1-1,1.7c-1,1.3-2,1.5-3.1,2.7c-2.6,2.5-4,4.1-5.6,7.3
	c-0.5,1-0.5,2.1-1.2,2.7c-0.5,0.5-1.2,0.3-1.9,0.4c-0.6,0.1-1.1,0.3-1.4,0.8c-0.3,0.4-0.5,0.8-0.4,1.4l-0.8,0.5l-2.4-0.4l-2.7-1
	l0.4-1.9c1.8-1.4,2.6-0.5,3.9-1.6c0.8-0.6,1.1-1.1,1.7-2c0.5-0.6,0.6-1.1,1.1-1.7c0.4-0.5,0.7-0.7,1.1-1.2c0.9-1.1,1.3-1.8,2-2.9
	c0.6-1,1-1.5,1.4-2.5c0.2-0.7,0.4-1.1,0.5-1.8c0.1-0.6,0.1-1,0.1-1.5c-0.4,0.2-1.5,0.5-1.9,0.7c0,0.2,0,1.3,0,1.5
	c-0.1,0.6,0,1.2-0.6,1.6c-0.3,0.2-0.6,0.3-1,0.2c-0.5-0.1-0.7-0.4-0.9-0.8c-0.2-0.4,0-0.7-0.1-1.2c0-0.2,0-0.8,0-0.9
	c-0.6,0.1-1,0.1-1.6,0.1c-0.7,0-0.9,0-1.6-0.1c0,0.2,0.1,1.1,0,1.3c-0.1,0.6,0,1-0.5,1.4c-0.4,0.3-0.8,0.4-1.3,0.3
	c-0.3-0.1-0.5-0.3-0.7-0.5c-0.3-0.4-0.2-0.8-0.2-1.4c0-0.2,0-1.6,0-1.8c-1.9-0.7-3.6-1.7-5.1-3c0,0-1.1,0.3-1.4,0.4
	c-6.6,1.4-11.5,1.6-17.5,0.7c-0.2,1.6-0.3,2.8-0.7,4.6c-0.4,1.6-1,2.5-1.3,4.1c-0.2,1.1-0.3,1.8-0.3,2.9c-0.1,2,0,3,0.3,5.1
	c0.2,1.2,0.4,1.9,0.5,3.1c0.1,0.8,0.2,0.9-0.1,1.4c-0.3,0.4-1-0.1-1.7,0.2c-0.4,0.2-0.7,0.5-0.9,1c-0.2,0.4-0.3,0.7-0.3,1.2
	l-1.3,0.5l-2.4-0.6l-2.1-0.9l0.2-1.9c0.7-0.5,1.3-0.6,1.8-1.3c0.5-0.7,0.7-1.1,0.8-2c0.2-1.3,0.3-2,0.4-3.3c0.1-1.4,0-2.2,0-3.5
	c0-0.5-0.2-0.7-0.4-1.2c-0.2-0.4-0.3-0.7-0.5-1.1c-0.6-0.9-0.2-4.6-0.3-6.6c0-0.5-0.1-0.9-0.2-1.3l-0.7,0.2
	c-0.6,0.1-1.1,0.3-2.3-0.1c-1.6-0.5-2.1-0.8-2.7-0.7c-0.7,0.1-1.3,0-1.8-0.2c-1.6,1.6-2.1,1.8-3.7,3.4c-0.6,0.5-0.8,0.8-0.7,1.3
	c0.4,1.9,1.9,2.1,3,3.4c0.6,0.7,1.7,1.2,1.2,2c-0.4,0.6-1.2,0.5-1.3,1.2c-0.1,0.6,0.1,1,0.5,1.4l-0.1,1.7l-1.2,2.2l-1.2,1.2
	l-1.8-0.7c-0.1-1.5-0.2-2.3-0.6-3.7c-0.4-1.5-0.8-2.4-1.5-3.7c-1.3-2.4-1.8-2.8-2.9-4.5c-1.7-2.9-0.8-2.9,0.6-5.1
	c1.1-1.8,2.3-2.4,3.7-4c-0.7-1.2-1-2.4-2.2-2.8c-0.6-0.2-1.6-2.4-2.7-6c-0.1-0.3,0-1,0.1-1.6c0.1-0.2,0.2-0.4,0.3-0.7l-4-1.8
	c0.4-0.3,0.8-0.5,1.2-0.8c-0.5,0.1-0.8-0.1-1.4,0c-0.5,0.1-0.7,0.2-1.2,0.3c-0.7,0.1-1.2,0-1.9-0.2c-0.9-0.2-1.5-0.4-2.3-0.8
	c-1.1-0.5-1.6-1.1-2.7-1.6c-1.4-0.6-2.3-0.5-3.8-0.9c-0.8,0.1-1.4,0.1-2.4-0.2c-0.5-0.2-0.6-0.9-1-1.5c-0.2-0.4-1.2-2.1-1.5-2.7
	c-0.2-0.4-0.2-0.7-0.4-1.1c0.5-0.3,0.7-1.1,1.4-1.3c0.4-0.1,0.7,0,1.1-0.1c0.3-0.1,0.4-0.2,0.7-0.3c0.9-0.5,1.2-1.1,2-1.9
	c0.8-0.7,1.3-1.1,2-1.9c0.5-0.6,0.9-1,1.2-1.7c0.3-0.7,0-1.3,0.5-1.9c0.3-0.4,0.7-0.5,1.1-0.8c0.9-0.6,1.5-0.8,2.3-1.6
	c0.6-0.6,0.9-0.9,1.4-1.6c0.4-0.2,1.1-0.5,1.1-0.5c2.6,0.4,3.5,0.8,5.6,1.7c1.7,0.7,4.1,2.3,4.1,2.3c0.4-0.4,0.9-0.8,1.5-1.1
	c0.8-0.4,1.4-0.5,2.3-0.6c0.7-0.1,1.1-0.1,1.8,0c0.6,0.1,1.1,0.4,1.7,0.8c-0.6,0.6-0.9,1.2-1.4,1.8c-0.6,0.7-0.5,1.3-1,1.9
	c-0.8,1-1.1,1.4-2.7,1.9l4,1.3c0,0,3.6-0.1,7.2-0.3c6.9-0.6,6.9-1.6,11.5-2c2.5-0.2,6.6,0.7,10.8,0.6c3.6-0.1,5.6-0.4,9.2-0.8
	c3.7-0.4,5.8-1.2,9.5-1.4c3.1-0.2,4.9-0.1,8,0.1c3,0.2,4.9,0.1,7.7,1.1c1.8,0.6,3.6,1,5.1,2.7c0.4,0.5,0.8,0.9,1,1.5
	c0.2,0.6,0.5,1,0.6,1.8c0.1,0.7,0.2,1.3,0.2,1.9c0,0.9-0.1,1.8-0.6,2.7c-1.4,3-2.2,3.4-4.4,4.6C413.4,391.3,413.2,391.5,412.9,391.6
	z"/>
<path fill="none" stroke="#FFEA0F" stroke-width="1.8422" stroke-linecap="round" stroke-miterlimit="3.8637" d="M414.4,392.1
	l-1.4,0.5c-1.6,0.8-2.9,0.8-4.9,0.9c-4.9,0.4-8-2-13.1-1.6c-2.6,0.2-3.8,2.2-6.5,2.9c-1.2,0.3-1.9,0.4-3.2,0.5l1-1.9
	c0,0-2.4,0.5-3.9,0.5c-1.1,0-1.7-0.1-2.8-0.2l1.9-1.8c0,0-1.5-0.2-2.4-0.6c-0.8-0.3-1.3-0.6-2-1.2c1.2-0.2,1.9-0.4,3.2-0.7
	c2.9-0.7,3.8-2.1,7.3-2.5c2.1-0.2,5.7-0.1,14.3,1.3c5.7,0.9,8.2,0.5,10.3-0.5c1.4-0.6,1.9-1.9,2.1-3.3c0.2-1.4-0.8-2.6-1.6-3.4
	c-0.2-0.2-0.8-0.6-2.1-0.7"/>
<path fill="#FFEA0F" d="M332.3,375.4c-1-0.1-1.7,0-2.5,0.5c-0.9,0.6-1,1.3-1.7,2.1c0.8,0.2,1.3,0.7,2.1,0.5c0.6-0.2,1-0.4,1.4-0.9
	c0.6-0.7,0.8-1.3,0.8-2.2L332.3,375.4z"/>
<path fill="none" stroke="#FFEA0F" stroke-width="0.9571" stroke-miterlimit="3.8636" d="M332.3,375.4c-1-0.1-1.7,0-2.5,0.5
	c-0.9,0.6-1,1.3-1.7,2.1c0.8,0.2,1.3,0.7,2.1,0.5c0.6-0.2,1-0.4,1.4-0.9c0.6-0.7,0.8-1.3,0.8-2.2L332.3,375.4z"/>
<path fill="none" stroke="#FFEA0F" stroke-width="1.8422" stroke-linecap="round" stroke-miterlimit="3.8637" d="M353.3,396.9
	c0,0,0.5,0.9,0.8,1.5c0.5,1,0.7,1.6,1,2.7c0.4,1.5,0.2,2.4,0.4,3.9c0,0.3,0.1,0.5,0.1,0.7l-0.1,2.1"/>
<path fill="none" stroke="#FFEA0F" stroke-width="1.8422" stroke-linecap="round" stroke-miterlimit="3.8637" d="M368.2,398
	c0,0-0.4,1.5-0.7,2.5c-0.7,2.5-1.3,3.9-1.8,6.5c-0.1,0.4-0.1,0.8-0.2,1.2"/>
<path fill="#0065BD" d="M334.5,391.6l4.2,1.9c2.1-1.2,4.6-3.6,6.5-7.3c1.6-3.2,1.9-4.9,2.5-8l-3.3-1.1l-0.7,0.1
	c-1,3.2-1.3,5.1-3,7.8c-1.5,2.4-3.2,4.3-4.9,5.7L334.5,391.6z"/>
<polygon fill="#E20025" points="334.6,391.6 334.6,390.8 335.7,390.8 336.6,391.3 "/>
<path fill="#0065BD" d="M343.7,425.4c0.7-0.9,1-1.5,1.7-2.4c0.8-0.9,1.5-1.3,2.4-2.1c0.3,0,0.6,0,0.9,0.1c-0.1,1-0.1,1.8-0.3,2.9
	c-0.2,0.9-0.3,1.4-0.6,2.3c-0.3,0.7-0.3,1.2-0.7,1.8c-0.3,0.4-0.5,0.6-0.9,1C345.2,427.6,343.7,426.5,343.7,425.4z"/>
<path fill="#0065BD" d="M405.3,428.8c1.1,0.4,1.7,0.5,2.7,1c1.1,0.6,1.7,1.1,2.7,1.8c0.1,0.3,0.2,0.6,0.1,0.9
	c-1,0.2-1.7,0.4-2.9,0.5c-0.9,0.1-1.4,0.1-2.3,0c-0.8,0-1.2,0-2-0.2c-0.5-0.2-0.7-0.4-1.2-0.6C403.7,430.9,404.2,429.1,405.3,428.8z
	"/>
<path fill="#0065BD" d="M387.1,425c1.1,0.4,1.7,0.5,2.7,1c1.1,0.6,1.7,1.1,2.7,1.8c0.1,0.3,0.2,0.6,0.1,0.9c-1,0.2-1.7,0.4-2.9,0.5
	c-0.9,0.1-1.4,0.1-2.3,0c-0.8,0-1.2,0-2-0.2c-0.5-0.2-0.7-0.4-1.2-0.6C385.5,427.1,386,425.3,387.1,425z"/>
<path fill="#0065BD" d="M354.7,429c1.1,0.4,1.7,0.5,2.7,1c1.1,0.6,1.7,1.1,2.7,1.8c0,0.3,0.2,0.6,0.1,0.9c-1,0.2-1.7,0.4-2.9,0.5
	c-0.9,0.1-1.4,0.1-2.3,0c-0.8,0-1.2,0-2-0.2c-0.5-0.2-0.7-0.4-1.2-0.6C353.1,431.1,353.6,429.3,354.7,429z"/>
<path fill="#0065BD" d="M338,373.4c-1.1-0.5-2-1.9-1.2-3c0.3-0.4,0.8-0.3,1.1-0.7c0.4-0.5,0.3-0.9,0.3-1.6c0-0.7-0.3-1.1-0.4-1.8
	c-0.1-0.8-0.3-1.2-0.3-2c0-1.2-0.1-2,0.6-2.9c0.5-0.6,1.2-1.1,1.5-1.1c0.3,0.3-0.1,0.9-0.1,1.5c0.1,0.9,0.2,1.3,0.5,2.2
	c0.4,1.1,0.9,1.5,1.3,2.5c0.4,1,0.7,1.5,0.8,2.5c0,0.9,0,1.4-0.4,2.2c-0.3,0.7-0.6,1.1-1.1,1.6c-0.5,0.4-0.9,0.6-1.5,0.8
	C338.7,373.6,338.4,373.6,338,373.4z"/>
<path fill="none" stroke="#E20025" stroke-width="1.8422" stroke-linecap="round" stroke-miterlimit="3.8637" d="M343.3,404.8
	c0.7,0.8,1.6,1.6,3,2.1"/>
<path fill="none" stroke="#FFEA0F" stroke-width="1.8422" stroke-linecap="round" stroke-miterlimit="3.8637" d="M345.3,400.8
	c1.5,0.3,1,6.3,3.3,7.6"/>
<path fill="none" stroke="#FFEA0F" stroke-width="1.8422" stroke-miterlimit="3.8637" d="M398.2,411.2l0.7-0.5
	c1.9-0.8,3.6-1.9,5-3.3"/>
<path fill="none" stroke="#FFEA0F" stroke-width="1.8422" stroke-linecap="round" stroke-miterlimit="3.8637" d="M383.8,407.9
	C383.8,407.9,383.8,407.9,383.8,407.9c6.6-1.7,11-4.9,14.2-5.4"/>
<path fill="none" stroke="#FFEA0F" stroke-width="1.8422" stroke-linecap="round" stroke-miterlimit="3.8637" d="M390.5,399.7
	c0.6,0,1.1-0.1,1.5-0.1c2.7-0.4,3.2,1.3,5.1,2.3c3.5,1.9,3.9,4.3,8,6.3c0.2,0.1,0.4,0.2,0.6,0.3l1.6,0.8"/>
<path fill="#E20025" d="M388.6,399.8l2.8,2.8l4.4-0.5c0,0-0.9-0.9-1.5-1.4c-0.3-0.2-0.4-0.4-0.8-0.5c-0.3-0.1-0.4,0-0.7-0.1
	c-0.5,0-0.7,0-1.2-0.1c-0.7,0-1-0.1-1.7-0.1c-0.5,0-0.8,0-1.2-0.1L388.6,399.8z"/>
<path fill="#E20025" d="M411.7,381.7c-0.2-0.4-0.5-0.5-0.9-0.7c-0.7-0.4-2-0.5-2-0.5l-0.5,3.3l3.6-0.9
	C411.9,382.8,411.9,382.1,411.7,381.7z"/>
<path fill="#E20025" d="M402.1,395.7l0.8-1.8c-0.7-0.1-1.1-0.2-1.8-0.4c-0.8-0.2-1.3-0.4-2.1-0.5c-0.9-0.2-1.4-0.3-2.3-0.4
	c-0.8-0.1-1.3-0.3-2.1-0.2c-0.7,0.1-1,0.3-1.6,0.6c-0.7,0.4-1.1,0.7-1.8,1.1c-0.8,0.5-1.3,0.8-2.2,1.1c-0.8,0.3-1.3,0.4-2.1,0.6
	c-1.5,0.4-2.3,0.5-3.8,0.7l4.2,1.6L402.1,395.7z"/>
<path fill="#E20025" d="M383.5,396.7l1.8-2.9c0,0-1.8,0.4-3,0.5c-2.2,0.2-3.4,0.1-5.7,0l0.5,3.2l3.6,1.6L383.5,396.7z"/>
<path fill="#FFEA0F" d="M319,382.8c0.5,0.1,0.8,0.1,1.3,0.1c0.6-0.1,0.9-0.4,1.5-0.5c0.5,0,0.9-0.1,1.3,0.2c0.3,0.2,0.4,0.4,0.5,0.6
	c0.2,0.3,0.3,0.5,0.2,0.9c-0.1,0.5-0.6,0.8-1.1,0.8c-0.4,0-0.8-0.1-1-0.5c-0.1-0.3-0.2-0.5-0.1-0.7c-0.5,0.2-0.9,0.2-1.4,0
	C319.7,383.5,319.3,383.3,319,382.8z"/>
<path fill="none" stroke="#FFEA0F" stroke-width="0.9571" stroke-miterlimit="3.8636" d="M319,382.8c0.5,0.1,0.8,0.1,1.3,0.1
	c0.6-0.1,0.9-0.4,1.5-0.5c0.5,0,0.9-0.1,1.3,0.2c0.3,0.2,0.4,0.4,0.5,0.6c0.2,0.3,0.3,0.5,0.2,0.9c-0.1,0.5-0.6,0.8-1.1,0.8
	c-0.4,0-0.8-0.1-1-0.5c-0.1-0.3-0.2-0.5-0.1-0.7c-0.5,0.2-0.9,0.2-1.4,0C319.7,383.5,319.3,383.3,319,382.8z"/>
<path fill="#FFEA0F" d="M123.5,403.8c0.4,2.8,1.4,7.5,4,12.3c2.8,4.4,1.7,4.2,8,11.2c3.1,3.4,7.9,6.4,11.6,8.4c3.8,2,6.6,3,12.8,4.7
	c12.2,3.2,20.7,3.4,30.9,3c8-0.3,14.1-1.3,19.1-2c7.2-1,12.6-1.5,20.8-1.9c4-0.2,7.7-0.2,11.5,0c4.5,0.2,8.9,0.9,13.6,1.9
	c10.2,2,20.5,5.9,20.5,5.9l0-159.9l-153.4,0v109.3C122.9,396.7,123.3,402.1,123.5,403.8z"/>
<path fill="none" stroke="#703D29" stroke-width="1.4886" stroke-miterlimit="3.8636" d="M123.5,403.8c0.4,2.8,1.4,7.5,4,12.3
	c2.8,4.4,1.7,4.2,8,11.2c3.1,3.4,7.9,6.4,11.6,8.4c3.8,2,6.6,3,12.8,4.7c12.2,3.2,20.7,3.4,30.9,3c8-0.3,14.1-1.3,19.1-2
	c7.2-1,12.6-1.5,20.8-1.9c4-0.2,7.7-0.2,11.5,0c4.5,0.2,8.9,0.9,13.6,1.9c10.2,2,20.5,5.9,20.5,5.9l0-159.9l-153.4,0v109.3
	C122.9,396.7,123.3,402.1,123.5,403.8z"/>
<path fill="#E20025" d="M141.3,430.3c2.4,1.6,4.9,3,7.2,4.2c3.7,2,5.4,2.2,9.9,3.8l0-150h-17V430.3L141.3,430.3z"/>
<path fill="none" stroke="#E20025" stroke-width="0.9571" stroke-miterlimit="3.8636" d="M141.3,430.3c2.4,1.6,4.9,3,7.2,4.2
	c3.7,2,5.4,2.2,9.9,3.8l0-150h-17V430.3L141.3,430.3z"/>
<path fill="#E20025" d="M226.6,438.8l0-150.4h-17.1v151.8C209.5,440.2,221.2,439.2,226.6,438.8z"/>
<path fill="none" stroke="#E20025" stroke-width="0.9571" stroke-miterlimit="3.8636" d="M226.6,438.8l0-150.4h-17.1v151.8
	C209.5,440.2,221.2,439.2,226.6,438.8z"/>
<path fill="#E20025" d="M260.6,288.4h-17v149.8c5.5,0.6,11.2,1.4,17,3L260.6,288.4z"/>
<path fill="none" stroke="#E20025" stroke-width="0.9571" stroke-miterlimit="3.8636" d="M260.6,288.4h-17v149.8
	c5.5,0.6,11.2,1.4,17,3L260.6,288.4z"/>
<path fill="none" stroke="#703D29" stroke-width="1.8605" stroke-miterlimit="3.8636" d="M510.9,166.1c13.8-0.3,53.9,10.5,54.2,57.6
	c0.3,46.5-28.7,54.1-40.3,57.2"/>
<path fill="none" stroke="#703D29" stroke-width="1.9351" stroke-miterlimit="3.8636" d="M514.5,166.1c23.8-1,48.3,16.5,49.4,60.2
	c0.8,34.1-23.4,49.6-35,52.7"/>
<rect x="314.7" y="118.2" fill="#E20025" width="21.9" height="150.7"/>
<rect x="314.7" y="118.2" fill="none" stroke="#E20025" stroke-width="0.9571" stroke-miterlimit="3.8636" width="21.9" height="150.7"/>
<rect x="358.5" y="118.2" fill="#E20025" width="21.9" height="150.7"/>
<rect x="358.5" y="118.2" fill="none" stroke="#E20025" stroke-width="0.9571" stroke-miterlimit="3.8636" width="21.9" height="150.7"/>
<rect x="402.3" y="118.2" fill="#E20025" width="21.9" height="150.7"/>
<rect x="402.3" y="118.2" fill="none" stroke="#E20025" stroke-width="0.9571" stroke-miterlimit="3.8636" width="21.9" height="150.7"/>
<path fill="#E20025" d="M192.5,288.4v153.8c-0.2,0-11.4,0.3-17.1-0.3l0-153.5L192.5,288.4z"/>
<path fill="none" stroke="#E20025" stroke-width="0.9571" stroke-miterlimit="3.8636" d="M192.5,288.4v153.8
	c-0.2,0-11.4,0.3-17.1-0.3l0-153.5L192.5,288.4z"/>
</svg>
