<?xml version="1.0" encoding="UTF-8" standalone="no"?>
<!DOCTYPE svg PUBLIC "-//W3C//DTD SVG 1.1//EN" "http://www.w3.org/Graphics/SVG/1.1/DTD/svg11.dtd">
<svg version="1.1"
   xmlns="http://www.w3.org/2000/svg"
   width="376" height="501" viewBox="0 0 3760 5010">
  <title>Landessymbol von Berlin</title>
  <desc>das Landessymbol von Berlin mit weissen Schild</desc>
  <path d="M 3730,30 H 30 V 3130 c 0,410 0,800 550,1120 l 1300,730 1300,-730 c 560,-320 550,-710 550,-1120 z" fill="white" stroke="black" stroke-width="60" />
  <path d="M 2107,755 c -56,-27 -157,-11 -250,-26 -187,-30 -210,-83 -210,-122 -1,-41 -38,-43 -38,1 1,260 392,127 503,194 M 835,666 c 1,-70 -47,-115 -89,-119 25,29 30,71 34,112 -8,-58 -51,-96 -88,-98 20,21 31,64 33,106 -6,-32 -36,-80 -86,-85 23,24 30,69 35,110 -7,-35 -43,-75 -83,-78 17,14 31,65 34,104 -5,-16 -33,-55 -77,-60 23,21 33,72 37,112 M 760,1724 c -12,-55 -60,-113 -114,-106 25,17 44,81 51,122 -17,-46 -59,-95 -109,-89 27,24 43,83 53,127 -27,-51 -60,-89 -109,-83 33,32 45,88 53,131 -16,-36 -53,-80 -103,-75 31,28 44,89 55,134 -20,-27 -50,-65 -97,-61 31,30 45,89 58,134 M 920,3681 c -53,-32 -126,-21 -160,23 38,-7 94,14 116,32 -36,-23 -111,-9 -140,31 34,-9 89,14 118,31 -38,-13 -97,-10 -134,35 31,-7 82,10 115,29 -47,-11 -93,7 -120,39 41,-9 87,15 115,28 -53,-1 -85,20 -104,42 34,-7 86,11 124,31 M 2311,4010 c -69,-9 -126,33 -143,82 19,-15 79,-24 118,-12 -54,-3 -108,41 -119,81 22,-18 92,-23 118,-12 -49,2 -96,39 -110,80 23,-15 87,-21 123,-12 -53,8 -91,46 -103,81 32,-21 74,-19 126,-16 -54,20 -72,43 -90,79 30,-19 83,-20 135,-16" fill="#f33b1d" />
  <path d="M 1953,339 l -244,9 c -12,1 -21,7 -21,21 1,88 18,145 81,191 -8,49 -3,74 48,115 5,-40 21,-58 46,-75 2,1 4,1 5,2 -3,18 -3,37 1,48 10,28 59,29 72,9 12,29 37,30 57,30 21,0 31,-15 38,-29 12,10 24,21 35,35 35,48 41,110 41,169 -11,1 -22,2 -33,3 l 0,-24 c -1,-34 -80,-40 -98,-11 -20,-22 -82,-18 -82,17 l 0,11 c -14,-18 -25,-37 -34,-56 -25,16 -40,28 -36,85 -11,1 -22,2 -32,3 1,66 30,84 266,79 6,66 -60,103 -109,134 -128,73 -263,153 -336,287 -61,106 -76,232 -69,354 l 70,-31 8,38 c -126,60 -356,182 -507,252 -37,17 -133,41 -153,7 -69,-119 -124,-209 -204,-300 -41,-47 -313,178 -263,254 114,173 300,421 610,423 321,2 600,-116 661,-134 l 13,41 c -41,18 -77,31 -120,45 56,220 121,306 272,440 l -31,23 c -27,-16 -73,-67 -98,-91 -321,152 -441,304 -518,461 -85,189 -69,404 -33,603 7,33 -29,49 -56,39 -74,-17 -115,-91 -186,-118 -32,-14 -74,-30 -109,-24 -57,10 -118,298 -60,326 108,53 226,64 346,126 79,32 155,84 245,70 51,-5 102,-40 107,-94 45,-194 108,-400 256,-540 71,-70 163,-126 254,-169 -36,-138 -63,-276 -60,-420 l 44,-2 c 32,548 178,663 435,918 26,26 24,75 -14,90 -50,25 -109,26 -166,29 -61,3 -15,341 75,338 158,-5 322,-128 417,-249 40,-50 88,-100 126,-149 47,-61 -4,-132 -18,-188 -39,-160 -57,-620 -59,-684 l 56,1 8,-116 c -167,-207 -140,-531 -209,-740 -27,-85 -57,-173 -57,-263 0,-122 138,-351 135,-555 -1,-86 -49,-198 -48,-249 1,-148 86,-116 84,-424 -1,-85 -11,-148 -33,-235 149,-157 -56,-314 -174,-216 -95,-25 -107,-50 -293,-50 -159,0 -250,43 -349,109 M 1665,1256 c -105,129 -164,194 -160,507 -991,-566 -701,-647 -918,-985 -34,-53 187,-176 257,-124 141,104 89,300 206,389 116,88 323,127 615,213 M 2270,529 c -15,0 -42,-8 -50,-19 -87,-133 -109,-85 -122,-39 -11,41 -59,42 -45,-13 35,-135 130,-116 248,71 M 2556,394 c 24,-32 61,-63 101,-76 59,-20 83,28 36,44 -39,17 -72,41 -100,69 M 1780,567 c 15,9 36,20 67,29 -17,14 -33,34 -38,56 -27,-19 -38,-54 -29,-85 m 160,53 c 0,13 -3,26 -7,32 -10,16 -47,15 -55,-7 -3,-9 -3,-25 1,-40 20,5 41,9 61,15 m 12,3 c 27,8 53,17 76,32 -5,12 -14,24 -32,24 -16,0 -34,-1 -44,-20 -5,-10 -3,-24 0,-36 M 1839,888 c -3,-28 0,-52 22,-68 11,20 23,39 37,56 v 7 m 10,-0.5 V 851 c 0,-33 70,-31 71,0 v 25 m 9,-1 V 847 c 0,-33 81,-31 81,-1 v 22" />
</svg>
