<?xml version="1.0" encoding="UTF-8" standalone="no"?>
<!-- Created with Inkscape (http://www.inkscape.org/) -->

<svg
   xmlns:dc="http://purl.org/dc/elements/1.1/"
   xmlns:cc="http://creativecommons.org/ns#"
   xmlns:rdf="http://www.w3.org/1999/02/22-rdf-syntax-ns#"
   xmlns:svg="http://www.w3.org/2000/svg"
   xmlns="http://www.w3.org/2000/svg"
   xmlns:sodipodi="http://sodipodi.sourceforge.net/DTD/sodipodi-0.dtd"
   xmlns:inkscape="http://www.inkscape.org/namespaces/inkscape"
   version="1.1"
   id="svg2"
   xml:space="preserve"
   width="96.321625"
   height="60.890133"
   viewBox="0 0 96.321625 60.890133"
   sodipodi:docname="Logotype de la collectivité territoriale de Martinique.svg"
   inkscape:version="0.92.3 (2405546, 2018-03-11)"><metadata
     id="metadata8"><rdf:RDF><cc:Work
         rdf:about=""><dc:format>image/svg+xml</dc:format><dc:type
           rdf:resource="http://purl.org/dc/dcmitype/StillImage" /><dc:title></dc:title></cc:Work></rdf:RDF></metadata><defs
     id="defs6"><clipPath
       clipPathUnits="userSpaceOnUse"
       id="clipPath18"><path
         d="m 83.029,82.458 h 72.242 v 45.668 H 83.029 Z"
         id="path16"
         inkscape:connector-curvature="0" /></clipPath><clipPath
       clipPathUnits="userSpaceOnUse"
       id="clipPath190"><path
         d="M 112.885,41.386 H 307.559 V 72.865 H 112.885 Z"
         id="path188"
         inkscape:connector-curvature="0" /></clipPath><clipPath
       clipPathUnits="userSpaceOnUse"
       id="clipPath310"><path
         d="m 218.268,432.094 h 64.63 v 75.151 h -64.63 z"
         id="path308"
         inkscape:connector-curvature="0" /></clipPath><clipPath
       clipPathUnits="userSpaceOnUse"
       id="clipPath404"><path
         d="m 218.268,432.284 h 44.774 v 45.668 h -44.774 z"
         id="path402"
         inkscape:connector-curvature="0" /></clipPath><clipPath
       clipPathUnits="userSpaceOnUse"
       id="clipPath412"><path
         d="m 199.716,478.906 h 50.91 v -69.473 h -50.91 z"
         id="path410"
         inkscape:connector-curvature="0" /></clipPath></defs><sodipodi:namedview
     pagecolor="#ffffff"
     bordercolor="#666666"
     borderopacity="1"
     objecttolerance="10"
     gridtolerance="10"
     guidetolerance="10"
     inkscape:pageopacity="0"
     inkscape:pageshadow="2"
     inkscape:window-width="1366"
     inkscape:window-height="745"
     id="namedview4"
     showgrid="false"
     fit-margin-top="0"
     fit-margin-left="0"
     fit-margin-right="0"
     fit-margin-bottom="0"
     inkscape:zoom="3.36403"
     inkscape:cx="128.62664"
     inkscape:cy="25.933153"
     inkscape:window-x="-8"
     inkscape:window-y="-8"
     inkscape:window-maximized="1"
     inkscape:current-layer="g10" /><g
     id="g10"
     inkscape:groupmode="layer"
     inkscape:label="Logotype"
     transform="matrix(1.3333333,0,0,-1.3333333,-154.83802,364.5448)"><g
       id="g12"
       transform="translate(33.098739,145.28261)"><g
         id="g14"
         clip-path="url(#clipPath18)"><g
           id="g503"><g
             transform="translate(94.7209,120.5904)"
             id="g20"><path
               inkscape:connector-curvature="0"
               id="path22"
               style="fill:#f39200;fill-opacity:1;fill-rule:nonzero;stroke:none"
               d="m 0,0 c -1.827,0.832 -3.646,1.41 -5.606,1.466 0.22,-0.07 0.44,-0.139 0.659,-0.212 0.234,-0.077 0.474,-0.139 0.698,-0.239 1.349,-0.595 2.685,-1.221 4.044,-1.791 0.536,-0.225 0.447,-0.68 0.46,-1.051 0.078,-2.164 0.117,-4.329 0.159,-6.494 0.016,-0.835 0.002,-1.67 0.002,-2.55 -1.966,-0.577 -3.855,-1.403 -5.443,-2.815 1.824,0.743 3.679,1.374 5.632,1.795 0.344,-1.99 1.299,-3.595 2.726,-4.937 1.522,-1.432 3.31,-2.419 5.281,-3.066 1.09,-0.357 2.212,-0.613 3.364,-0.926 -0.405,-0.093 -0.795,-0.199 -1.192,-0.271 -1.883,-0.343 -3.783,-0.47 -5.688,-0.292 -3.63,0.34 -6.978,1.485 -9.936,3.654 -3.261,2.39 -5.505,5.487 -6.454,9.455 -0.341,1.425 -0.466,2.869 -0.361,4.342 0.245,3.437 1.538,6.428 3.745,9.038 0.508,0.6 1.092,1.136 1.655,1.687 0.07,0.069 0.252,0.101 0.342,0.061 2.818,-1.277 4.817,-3.311 5.769,-6.3 C -0.093,0.396 -0.06,0.233 0,0" /></g><g
             transform="translate(85.4184,84.9596)"
             id="g24"><path
               inkscape:connector-curvature="0"
               id="path26"
               style="fill:#f39200;fill-opacity:1;fill-rule:nonzero;stroke:none"
               d="m 0,0 c 0.296,1.033 0.78,1.973 1.337,2.879 1.873,3.048 4.55,5.184 7.697,6.788 2.651,1.351 5.463,2.221 8.37,2.801 2.084,0.417 4.185,0.706 6.315,0.746 0.12,0.002 0.24,0 0.411,0 C 22.364,11.897 21.71,9.92 20.809,8.105 20.041,6.558 19.303,4.997 18.526,3.456 18.346,3.099 18.058,2.796 17.816,2.473 17.071,1.481 16.028,1.315 14.884,1.399 13.747,1.482 12.676,1.817 11.625,2.222 10.016,2.843 8.385,3.401 6.673,3.639 5.522,3.798 4.402,3.598 3.356,3.062 2.07,2.402 1.044,1.449 0.208,0.281 0.14,0.186 0.07,0.093 0,0" /></g><g
             transform="translate(114.7757,82.4584)"
             id="g28"><path
               inkscape:connector-curvature="0"
               id="path30"
               style="fill:#004556;fill-opacity:1;fill-rule:nonzero;stroke:none"
               d="m 0,0 c -0.058,0.463 -0.085,0.89 -0.167,1.306 -0.339,1.704 -1.389,2.871 -2.862,3.695 -1.541,0.863 -3.224,1.241 -4.968,1.391 -0.154,0.013 -0.308,0.022 -0.506,0.036 0.224,0.4 0.445,0.739 0.613,1.102 0.653,1.416 1.298,2.836 1.929,4.262 0.413,0.933 0.89,1.811 1.722,2.445 0.84,0.642 1.777,0.808 2.788,0.558 0.164,-0.04 0.332,-0.164 0.444,-0.296 C 0.471,12.768 1.332,10.77 1.589,8.504 1.923,5.558 1.313,2.786 0.091,0.12 0.076,0.088 0.047,0.062 0,0" /></g><g
             transform="translate(111.7961,116.1182)"
             id="g32"><path
               inkscape:connector-curvature="0"
               id="path34"
               style="fill:#004556;fill-opacity:1;fill-rule:nonzero;stroke:none"
               d="M 0,0 C 1.409,0.298 2.119,1.248 2.609,2.444 2.772,2.839 2.981,3.221 3.21,3.583 4.224,5.185 6.614,4.761 7.432,3.414 7.614,3.113 7.763,2.777 7.851,2.437 7.917,2.187 8.009,2.137 8.247,2.147 10.134,2.227 11.971,1.864 13.809,1.507 13.851,1.499 13.89,1.474 13.931,1.457 13.928,1.42 13.925,1.384 13.923,1.347 13.262,1.347 12.6,1.377 11.941,1.341 10.209,1.248 8.516,0.959 6.934,0.199 4.543,-0.95 3.19,-2.836 2.922,-5.485 2.885,-5.852 2.863,-6.22 2.826,-6.693 2.129,-4.309 1.187,-2.126 0,0" /></g><g
             transform="translate(123.6166,106.4967)"
             id="g36"><path
               inkscape:connector-curvature="0"
               id="path38"
               style="fill:#004556;fill-opacity:1;fill-rule:nonzero;stroke:none"
               d="M 0,0 C -0.124,-0.277 -0.299,-0.532 -0.518,-0.751 -0.999,-1.232 -1.531,-1.495 -2.21,-1.495 h -0.16 c -0.678,0 -1.24,0.263 -1.721,0.744 -0.481,0.481 -0.751,1.123 -0.751,1.801 v 0.255 c 0,0.686 0.27,1.327 0.751,1.809 0.481,0.481 1.043,0.743 1.721,0.743 h 0.16 c 0.679,0 1.211,-0.262 1.692,-0.743 C -0.27,2.866 -0.08,2.581 0.044,2.268 L -0.313,2.18 c -0.336,0.773 -1,1.313 -1.897,1.313 h -0.16 c -1.203,0 -2.107,-0.999 -2.107,-2.202 V 1.072 c 0,-1.203 0.904,-2.202 2.107,-2.202 h 0.16 c 0.861,0 1.495,0.495 1.853,1.21 z" /></g><g
             transform="translate(124.3308,107.0508)"
             id="g40"><path
               inkscape:connector-curvature="0"
               id="path42"
               style="fill:#004556;fill-opacity:1;fill-rule:nonzero;stroke:none"
               d="m 0,0 v -0.182 c 0,-0.832 0.678,-1.51 1.51,-1.51 h 0.116 c 0.839,0 1.517,0.678 1.517,1.51 V 0 c 0,0.831 -0.678,1.51 -1.517,1.51 H 1.51 C 0.678,1.51 0,0.831 0,0 m 1.51,-2.035 c -0.496,0 -0.956,0.19 -1.313,0.54 -0.35,0.35 -0.54,0.817 -0.54,1.313 V 0 c 0,0.496 0.19,0.963 0.54,1.313 0.357,0.35 0.817,0.539 1.313,0.539 H 1.626 C 2.122,1.852 2.589,1.663 2.939,1.313 3.289,0.963 3.486,0.496 3.486,0 v -0.182 c 0,-0.496 -0.197,-0.963 -0.547,-1.313 -0.35,-0.35 -0.817,-0.54 -1.313,-0.54 z" /></g><g
             transform="translate(128.9319,106.205)"
             id="g44"><path
               inkscape:connector-curvature="0"
               id="path46"
               style="fill:#004556;fill-opacity:1;fill-rule:nonzero;stroke:none"
               d="M 0,0 C 0,-0.664 0.226,-0.853 0.714,-0.853 H 1.137 L 1.057,-1.174 H 0.714 c -0.787,0 -1.057,0.401 -1.057,1.174 V 4.463 H 0 Z" /></g><g
             transform="translate(130.9589,106.205)"
             id="g48"><path
               inkscape:connector-curvature="0"
               id="path50"
               style="fill:#004556;fill-opacity:1;fill-rule:nonzero;stroke:none"
               d="M 0,0 C 0,-0.664 0.226,-0.853 0.715,-0.853 H 1.137 L 1.057,-1.174 H 0.715 c -0.788,0 -1.058,0.401 -1.058,1.174 V 4.463 H 0 Z" /></g><g
             transform="translate(135.2028,107.7291)"
             id="g52"><path
               inkscape:connector-curvature="0"
               id="path54"
               style="fill:#004556;fill-opacity:1;fill-rule:nonzero;stroke:none"
               d="M 0,0 C 0,0.51 -0.401,0.802 -1.087,0.802 -2.319,0.802 -2.436,0.051 -2.436,-0.7 -2.436,-0.7 0,-1.152 0,0 m -1.094,-2.735 c -0.707,0 -1.684,0.212 -1.684,1.707 v 0.342 c 0,1.058 0.35,1.831 1.691,1.831 0.708,0 1.43,-0.314 1.43,-1.145 0,-1.597 -2.779,-1.028 -2.779,-1.028 0,-1.065 0.525,-1.364 1.342,-1.364 0.744,0 1.167,0.438 1.167,0.824 l 0.328,0.044 c 0,-0.773 -0.824,-1.211 -1.495,-1.211" /></g><g
             transform="translate(139.7529,106.1028)"
             id="g56"><path
               inkscape:connector-curvature="0"
               id="path58"
               style="fill:#004556;fill-opacity:1;fill-rule:nonzero;stroke:none"
               d="M 0,0 C -0.088,-0.204 -0.219,-0.394 -0.379,-0.554 -0.736,-0.912 -1.21,-1.109 -1.714,-1.109 H -1.83 c -0.504,0 -0.978,0.197 -1.328,0.555 -0.357,0.357 -0.554,0.831 -0.554,1.334 v 0.183 c 0,0.503 0.197,0.977 0.554,1.334 0.35,0.357 0.824,0.547 1.328,0.547 h 0.116 c 0.504,0 0.978,-0.19 1.335,-0.547 C -0.197,2.115 -0.058,1.903 0.037,1.67 L -0.306,1.575 C -0.54,2.115 -1.087,2.501 -1.714,2.501 H -1.83 c -0.846,0 -1.539,-0.707 -1.539,-1.553 V 0.795 c 0,-0.846 0.693,-1.561 1.539,-1.561 h 0.116 c 0.598,0 1.123,0.358 1.371,0.868 z" /></g><g
             transform="translate(140.912,106.2341)"
             id="g60"><path
               inkscape:connector-curvature="0"
               id="path62"
               style="fill:#004556;fill-opacity:1;fill-rule:nonzero;stroke:none"
               d="M 0,0 C 0,-0.933 0.7,-0.89 1.021,-0.89 L 0.941,-1.196 C 0.197,-1.269 -0.343,-0.882 -0.343,0 V 2.312 H -1.13 l 0.043,0.328 h 0.744 V 3.595 L 0,3.661 V 2.64 H 0.868 L 0.817,2.312 H 0 Z" /></g><g
             transform="translate(143.2089,105.3226)"
             id="g64"><path
               inkscape:connector-curvature="0"
               id="path66"
               style="fill:#004556;fill-opacity:1;fill-rule:nonzero;stroke:none"
               d="M 0,0 -0.08,-0.284 C -0.452,-0.284 -0.7,0 -0.7,0.321 v 3.23 h 0.343 V 0.481 C -0.357,0.262 -0.372,0.08 0,0 m -0.525,4.208 c -0.117,0 -0.211,0.102 -0.211,0.218 0,0.117 0.094,0.219 0.211,0.219 0.124,0 0.219,-0.102 0.219,-0.219 0,-0.116 -0.095,-0.218 -0.219,-0.218" /></g><g
             transform="translate(147.6936,108.8739)"
             id="g68"><path
               inkscape:connector-curvature="0"
               id="path70"
               style="fill:#004556;fill-opacity:1;fill-rule:nonzero;stroke:none"
               d="m 0,0 h 0.423 l -2.29,-3.843 -1.451,2.742 c -0.255,0.481 -0.423,0.744 -0.613,0.744 L -4.047,0 c 0.474,0 0.7,-0.248 0.984,-0.809 L -1.867,-3.165 0.014,0 Z" /></g><g
             transform="translate(149.2901,105.3226)"
             id="g72"><path
               inkscape:connector-curvature="0"
               id="path74"
               style="fill:#004556;fill-opacity:1;fill-rule:nonzero;stroke:none"
               d="M 0,0 -0.08,-0.284 C -0.452,-0.284 -0.7,0 -0.7,0.321 v 3.23 h 0.343 V 0.481 C -0.357,0.262 -0.372,0.08 0,0 m -0.525,4.208 c -0.117,0 -0.211,0.102 -0.211,0.218 0,0.117 0.094,0.219 0.211,0.219 0.124,0 0.219,-0.102 0.219,-0.219 0,-0.116 -0.095,-0.218 -0.219,-0.218" /></g><g
             transform="translate(150.6318,106.2341)"
             id="g76"><path
               inkscape:connector-curvature="0"
               id="path78"
               style="fill:#004556;fill-opacity:1;fill-rule:nonzero;stroke:none"
               d="M 0,0 C 0,-0.933 0.7,-0.89 1.021,-0.89 L 0.941,-1.196 C 0.197,-1.269 -0.343,-0.882 -0.343,0 V 2.312 H -1.13 l 0.043,0.328 h 0.744 V 3.595 L 0,3.661 V 2.64 H 0.868 L 0.817,2.312 H 0 Z" /></g><g
             transform="translate(154.511,110.6532)"
             id="g80"><path
               inkscape:connector-curvature="0"
               id="path82"
               style="fill:#004556;fill-opacity:1;fill-rule:nonzero;stroke:none"
               d="m 0,0 -0.707,-1.079 -0.343,0.043 0.685,1.065 z m 0.357,-2.924 c 0,0.51 -0.401,0.802 -1.086,0.802 -1.233,0 -1.349,-0.751 -1.349,-1.502 0,0 2.435,-0.452 2.435,0.7 m -1.093,-2.735 c -0.708,0 -1.685,0.212 -1.685,1.707 v 0.342 c 0,1.058 0.35,1.831 1.692,1.831 0.707,0 1.429,-0.314 1.429,-1.145 0,-1.597 -2.778,-1.028 -2.778,-1.028 0,-1.065 0.525,-1.364 1.342,-1.364 0.743,0 1.166,0.438 1.166,0.824 l 0.328,0.044 c 0,-0.773 -0.824,-1.211 -1.494,-1.211" /></g><g
             transform="translate(121.0371,103.3878)"
             id="g84"><path
               inkscape:connector-curvature="0"
               id="path86"
               style="fill:#004556;fill-opacity:1;fill-rule:nonzero;stroke:none"
               d="M 0,0 V -3.471 C 0,-3.967 0.015,-4.594 0.489,-4.638 L 0.357,-4.995 c -0.539,0.153 -0.707,0.583 -0.707,1.247 V 0 h -1.845 l 0.051,0.35 H 1.874 L 1.823,0 Z" /></g><g
             transform="translate(125.3174,101.0908)"
             id="g88"><path
               inkscape:connector-curvature="0"
               id="path90"
               style="fill:#004556;fill-opacity:1;fill-rule:nonzero;stroke:none"
               d="M 0,0 C 0,0.51 -0.401,0.802 -1.087,0.802 -2.319,0.802 -2.436,0.051 -2.436,-0.7 -2.436,-0.7 0,-1.152 0,0 m -1.094,-2.735 c -0.707,0 -1.684,0.212 -1.684,1.707 v 0.342 c 0,1.058 0.35,1.831 1.691,1.831 0.708,0 1.43,-0.314 1.43,-1.145 0,-1.597 -2.779,-1.028 -2.779,-1.028 0,-1.065 0.525,-1.364 1.342,-1.364 0.744,0 1.167,0.438 1.167,0.824 l 0.328,0.044 c 0,-0.773 -0.824,-1.211 -1.495,-1.211" /></g><g
             transform="translate(128.4526,102.2429)"
             id="g92"><path
               inkscape:connector-curvature="0"
               id="path94"
               style="fill:#004556;fill-opacity:1;fill-rule:nonzero;stroke:none"
               d="m 0,0 -0.066,-0.284 c -0.838,0 -1.29,-0.671 -1.29,-1.16 V -3.85 h -0.343 v 3.843 h 0.343 V -0.605 C -1.116,-0.284 -0.853,0 0,0" /></g><g
             transform="translate(131.1869,102.2429)"
             id="g96"><path
               inkscape:connector-curvature="0"
               id="path98"
               style="fill:#004556;fill-opacity:1;fill-rule:nonzero;stroke:none"
               d="m 0,0 -0.066,-0.284 c -0.838,0 -1.29,-0.671 -1.29,-1.16 V -3.85 h -0.343 v 3.843 h 0.343 V -0.605 C -1.116,-0.284 -0.853,0 0,0" /></g><g
             transform="translate(132.9221,98.6842)"
             id="g100"><path
               inkscape:connector-curvature="0"
               id="path102"
               style="fill:#004556;fill-opacity:1;fill-rule:nonzero;stroke:none"
               d="M 0,0 -0.08,-0.284 C -0.452,-0.284 -0.7,0 -0.7,0.321 v 3.23 h 0.343 V 0.481 C -0.357,0.262 -0.372,0.08 0,0 m -0.525,4.208 c -0.117,0 -0.211,0.102 -0.211,0.218 0,0.117 0.094,0.219 0.211,0.219 0.124,0 0.219,-0.102 0.219,-0.219 0,-0.116 -0.095,-0.218 -0.219,-0.218" /></g><g
             transform="translate(134.6066,99.5957)"
             id="g104"><path
               inkscape:connector-curvature="0"
               id="path106"
               style="fill:#004556;fill-opacity:1;fill-rule:nonzero;stroke:none"
               d="M 0,0 C 0,-0.933 0.7,-0.89 1.021,-0.89 L 0.941,-1.196 C 0.197,-1.269 -0.343,-0.882 -0.343,0 V 2.312 H -1.13 l 0.043,0.328 h 0.744 V 3.595 L 0,3.661 V 2.64 H 0.868 L 0.817,2.312 H 0 Z" /></g><g
             transform="translate(136.5389,100.4125)"
             id="g108"><path
               inkscape:connector-curvature="0"
               id="path110"
               style="fill:#004556;fill-opacity:1;fill-rule:nonzero;stroke:none"
               d="m 0,0 v -0.182 c 0,-0.832 0.678,-1.51 1.51,-1.51 h 0.116 c 0.839,0 1.517,0.678 1.517,1.51 V 0 c 0,0.831 -0.678,1.51 -1.517,1.51 H 1.51 C 0.678,1.51 0,0.831 0,0 m 1.51,-2.034 c -0.496,0 -0.956,0.189 -1.313,0.539 -0.35,0.35 -0.54,0.817 -0.54,1.313 V 0 c 0,0.496 0.19,0.963 0.54,1.313 0.357,0.35 0.817,0.539 1.313,0.539 H 1.626 C 2.122,1.852 2.589,1.663 2.939,1.313 3.289,0.963 3.486,0.496 3.486,0 v -0.182 c 0,-0.496 -0.197,-0.963 -0.547,-1.313 -0.35,-0.35 -0.817,-0.539 -1.313,-0.539 z" /></g><g
             transform="translate(142.8755,102.2429)"
             id="g112"><path
               inkscape:connector-curvature="0"
               id="path114"
               style="fill:#004556;fill-opacity:1;fill-rule:nonzero;stroke:none"
               d="m 0,0 -0.066,-0.284 c -0.838,0 -1.29,-0.671 -1.29,-1.16 V -3.85 h -0.343 v 3.843 h 0.343 V -0.605 C -1.116,-0.284 -0.853,0 0,0" /></g><g
             transform="translate(144.6107,98.6842)"
             id="g116"><path
               inkscape:connector-curvature="0"
               id="path118"
               style="fill:#004556;fill-opacity:1;fill-rule:nonzero;stroke:none"
               d="M 0,0 -0.08,-0.284 C -0.452,-0.284 -0.7,0 -0.7,0.321 v 3.23 h 0.343 V 0.481 C -0.357,0.262 -0.372,0.08 0,0 m -0.525,4.208 c -0.117,0 -0.211,0.102 -0.211,0.218 0,0.117 0.094,0.219 0.211,0.219 0.124,0 0.219,-0.102 0.219,-0.219 0,-0.116 -0.095,-0.218 -0.219,-0.218" /></g><g
             transform="translate(148.2932,99.6688)"
             id="g120"><path
               inkscape:connector-curvature="0"
               id="path122"
               style="fill:#004556;fill-opacity:1;fill-rule:nonzero;stroke:none"
               d="m 0,0 v 0.7 c -0.394,-0.525 -2.414,0.328 -2.414,-0.934 0,-0.51 0.467,-0.751 1.152,-0.751 C -0.496,-0.985 0,-0.525 0,0 M 0.722,-1.065 0.62,-1.335 c 0,0 -0.496,0.168 -0.554,0.642 -0.117,-0.226 -0.525,-0.634 -1.328,-0.634 -0.576,0 -1.495,0.24 -1.495,1.072 0,0.817 0.657,1.115 1.35,1.115 0.634,0 1.422,-0.174 1.422,0.555 0,0.328 -0.117,0.867 -1.233,0.867 -0.744,0 -0.977,-0.167 -1.283,-0.306 L -2.654,2.29 c 0.459,0.204 0.736,0.335 1.407,0.335 0.664,0 1.59,-0.102 1.59,-1.342 v -1.757 c 0,-0.219 0.109,-0.496 0.379,-0.591" /></g><g
             transform="translate(150.2836,99.5666)"
             id="g124"><path
               inkscape:connector-curvature="0"
               id="path126"
               style="fill:#004556;fill-opacity:1;fill-rule:nonzero;stroke:none"
               d="M 0,0 C 0,-0.664 0.226,-0.853 0.715,-0.853 H 1.137 L 1.057,-1.174 H 0.715 c -0.788,0 -1.058,0.401 -1.058,1.174 V 4.463 H 0 Z" /></g><g
             transform="translate(154.8703,101.0908)"
             id="g128"><path
               inkscape:connector-curvature="0"
               id="path130"
               style="fill:#004556;fill-opacity:1;fill-rule:nonzero;stroke:none"
               d="M 0,0 C 0,0.51 -0.401,0.802 -1.087,0.802 -2.319,0.802 -2.436,0.051 -2.436,-0.7 -2.436,-0.7 0,-1.152 0,0 m -1.094,-2.735 c -0.707,0 -1.684,0.212 -1.684,1.707 v 0.342 c 0,1.058 0.35,1.831 1.691,1.831 0.708,0 1.43,-0.314 1.43,-1.145 0,-1.597 -2.779,-1.028 -2.779,-1.028 0,-1.065 0.525,-1.364 1.342,-1.364 0.744,0 1.167,0.438 1.167,0.824 l 0.328,0.044 c 0,-0.773 -0.824,-1.211 -1.495,-1.211" /></g><g
             transform="translate(127.2186,92.4591)"
             id="g132"><path
               inkscape:connector-curvature="0"
               id="path134"
               style="fill:#004556;fill-opacity:1;fill-rule:nonzero;stroke:none"
               d="M 0,0 0.635,3.741 H 1.592 L 2.353,1.742 3.155,3.741 H 4.124 L 4.689,0 H 3.717 L 3.443,2.154 H 3.433 L 2.535,0 H 2.149 L 1.289,2.154 H 1.279 L 0.967,0 Z" /></g><g
             transform="translate(133.6299,94.3056)"
             id="g136"><path
               inkscape:connector-curvature="0"
               id="path138"
               style="fill:#004556;fill-opacity:1;fill-rule:nonzero;stroke:none"
               d="m 0,0 c -0.124,0 -0.227,-0.027 -0.308,-0.08 -0.092,-0.05 -0.16,-0.119 -0.203,-0.208 -0.047,-0.086 -0.071,-0.182 -0.071,-0.289 0,-0.168 0.052,-0.304 0.156,-0.407 0.103,-0.108 0.245,-0.162 0.426,-0.162 0.181,0 0.323,0.054 0.426,0.162 0.102,0.102 0.153,0.238 0.153,0.407 0,0.105 -0.023,0.201 -0.068,0.289 -0.047,0.09 -0.114,0.16 -0.203,0.208 C 0.227,-0.027 0.124,0 0,0 M 1.454,0.7 V -1.846 H 0.55 v 0.283 H 0.54 C 0.468,-1.678 0.36,-1.769 0.218,-1.837 0.078,-1.9 -0.071,-1.931 -0.228,-1.931 c -0.244,0 -0.464,0.063 -0.661,0.189 -0.199,0.122 -0.352,0.288 -0.461,0.496 -0.109,0.21 -0.164,0.435 -0.164,0.674 0,0.187 0.031,0.36 0.094,0.516 0.061,0.17 0.149,0.316 0.264,0.439 0.116,0.126 0.251,0.224 0.405,0.294 0.153,0.07 0.324,0.106 0.511,0.106 0.151,0 0.298,-0.028 0.443,-0.083 C 0.342,0.642 0.458,0.559 0.55,0.451 V 0.7 Z" /></g><g
             transform="translate(136.5885,95.0059)"
             id="g140"><path
               inkscape:connector-curvature="0"
               id="path142"
               style="fill:#004556;fill-opacity:1;fill-rule:nonzero;stroke:none"
               d="m 0,0 v -0.417 h 0.01 c 0.166,0.301 0.441,0.451 0.824,0.451 H 1.006 V -0.834 C 0.899,-0.779 0.772,-0.751 0.625,-0.751 0.396,-0.751 0.234,-0.819 0.138,-0.955 0.046,-1.084 0,-1.272 0,-1.519 V -2.547 H -0.904 V 0 Z" /></g><g
             transform="translate(138.9195,94.2595)"
             id="g144"><path
               inkscape:connector-curvature="0"
               id="path146"
               style="fill:#004556;fill-opacity:1;fill-rule:nonzero;stroke:none"
               d="M 0,0 V -1.8 H -0.901 V 0 h -0.294 v 0.746 h 0.294 V 1.51 H 0 V 0.746 H 0.511 V 0 Z" /></g><path
             inkscape:connector-curvature="0"
             id="path148"
             style="fill:#004556;fill-opacity:1;fill-rule:nonzero;stroke:none"
             d="m 140.623,92.459 h -0.904 v 2.547 h 0.904 z m -0.453,4.03 c 0.089,0 0.173,-0.024 0.254,-0.071 0.078,-0.043 0.138,-0.104 0.182,-0.181 0.047,-0.081 0.07,-0.166 0.07,-0.255 0,-0.089 -0.023,-0.173 -0.07,-0.253 -0.047,-0.08 -0.108,-0.141 -0.182,-0.183 -0.081,-0.047 -0.165,-0.07 -0.254,-0.07 -0.087,0 -0.172,0.023 -0.252,0.07 -0.076,0.041 -0.138,0.102 -0.184,0.184 -0.047,0.084 -0.071,0.168 -0.071,0.252 0,0.084 0.024,0.169 0.071,0.255 0.043,0.077 0.105,0.138 0.184,0.181 0.08,0.047 0.165,0.071 0.252,0.071" /><g
             transform="translate(142.1203,95.0059)"
             id="g150"><path
               inkscape:connector-curvature="0"
               id="path152"
               style="fill:#004556;fill-opacity:1;fill-rule:nonzero;stroke:none"
               d="m 0,0 v -0.33 h 0.01 c 0.097,0.147 0.211,0.254 0.342,0.32 0.129,0.062 0.286,0.092 0.472,0.092 0.216,0 0.398,-0.042 0.545,-0.128 0.142,-0.089 0.246,-0.211 0.313,-0.366 0.066,-0.162 0.099,-0.349 0.099,-0.562 V -2.547 H 0.877 v 1.241 0.119 c 0,0.165 -0.027,0.297 -0.08,0.397 C 0.75,-0.688 0.641,-0.637 0.47,-0.637 0.157,-0.637 0,-0.834 0,-1.226 V -2.547 H -0.904 V 0 Z" /></g><path
             inkscape:connector-curvature="0"
             id="path154"
             style="fill:#004556;fill-opacity:1;fill-rule:nonzero;stroke:none"
             d="m 145.401,92.459 h -0.904 v 2.547 h 0.904 z m -0.453,4.03 c 0.089,0 0.174,-0.024 0.254,-0.071 0.078,-0.043 0.139,-0.104 0.182,-0.181 0.047,-0.081 0.071,-0.166 0.071,-0.255 0,-0.089 -0.024,-0.173 -0.071,-0.253 -0.047,-0.08 -0.107,-0.141 -0.182,-0.183 -0.08,-0.047 -0.165,-0.07 -0.254,-0.07 -0.087,0 -0.171,0.023 -0.252,0.07 -0.076,0.041 -0.137,0.102 -0.184,0.184 -0.047,0.084 -0.07,0.168 -0.07,0.252 0,0.084 0.023,0.169 0.07,0.255 0.044,0.077 0.105,0.138 0.184,0.181 0.081,0.047 0.165,0.071 0.252,0.071" /><g
             transform="translate(147.3589,94.3056)"
             id="g156"><path
               inkscape:connector-curvature="0"
               id="path158"
               style="fill:#004556;fill-opacity:1;fill-rule:nonzero;stroke:none"
               d="m 0,0 c -0.119,0 -0.222,-0.027 -0.308,-0.08 -0.089,-0.048 -0.156,-0.118 -0.203,-0.208 -0.047,-0.091 -0.071,-0.187 -0.071,-0.289 0,-0.165 0.054,-0.3 0.16,-0.407 0.104,-0.108 0.244,-0.162 0.422,-0.162 0.178,0 0.318,0.054 0.422,0.162 0.106,0.107 0.16,0.242 0.16,0.407 0,0.102 -0.024,0.198 -0.071,0.289 C 0.468,-0.199 0.4,-0.13 0.308,-0.08 0.222,-0.027 0.12,0 0,0 M 1.454,0.7 V -3.116 H 0.55 v 1.512 C 0.46,-1.709 0.344,-1.79 0.203,-1.846 0.058,-1.903 -0.089,-1.931 -0.238,-1.931 c -0.184,0 -0.354,0.035 -0.511,0.104 -0.153,0.068 -0.289,0.166 -0.407,0.293 -0.113,0.123 -0.201,0.268 -0.264,0.436 -0.063,0.165 -0.094,0.337 -0.094,0.516 0,0.181 0.031,0.353 0.094,0.517 0.065,0.164 0.154,0.312 0.269,0.443 0.118,0.128 0.255,0.226 0.412,0.296 0.147,0.072 0.317,0.109 0.511,0.109 0.078,0 0.154,-0.008 0.229,-0.022 C 0.076,0.746 0.149,0.723 0.218,0.691 0.357,0.628 0.464,0.534 0.54,0.412 H 0.55 V 0.7 Z" /></g><g
             transform="translate(149.3653,95.0059)"
             id="g160"><path
               inkscape:connector-curvature="0"
               id="path162"
               style="fill:#004556;fill-opacity:1;fill-rule:nonzero;stroke:none"
               d="m 0,0 h 0.901 v -1.362 c 0,-0.179 0.032,-0.317 0.095,-0.412 0.064,-0.092 0.184,-0.138 0.358,-0.138 0.175,0 0.294,0.046 0.357,0.137 0.063,0.091 0.094,0.229 0.094,0.413 V 0 H 2.709 V -1.534 C 2.709,-2.266 2.257,-2.631 1.354,-2.631 0.451,-2.631 0,-2.266 0,-1.534 Z" /></g><g
             transform="translate(153.3803,94.102)"
             id="g164"><path
               inkscape:connector-curvature="0"
               id="path166"
               style="fill:#004556;fill-opacity:1;fill-rule:nonzero;stroke:none"
               d="M 0,0 H 1.047 C 1.027,0.12 0.968,0.217 0.867,0.293 0.774,0.366 0.663,0.402 0.535,0.402 0.401,0.402 0.286,0.367 0.189,0.298 0.087,0.225 0.024,0.126 0,0 m 1.885,-0.427 v -0.094 h -1.9 c 0,-0.378 0.188,-0.567 0.565,-0.567 0.194,0 0.338,0.078 0.431,0.235 h 0.87 C 1.806,-1.045 1.718,-1.208 1.587,-1.34 1.463,-1.469 1.309,-1.567 1.127,-1.633 0.949,-1.696 0.758,-1.728 0.555,-1.728 c -0.278,0 -0.531,0.054 -0.76,0.16 -0.228,0.107 -0.403,0.26 -0.524,0.461 -0.126,0.206 -0.189,0.451 -0.189,0.734 0,0.273 0.059,0.514 0.179,0.724 0.121,0.209 0.287,0.366 0.497,0.473 0.211,0.108 0.456,0.162 0.734,0.162 0.218,0 0.414,-0.033 0.589,-0.099 C 1.254,0.824 1.4,0.732 1.519,0.611 1.636,0.489 1.726,0.34 1.791,0.162 1.854,-0.004 1.885,-0.2 1.885,-0.427" /></g><g
             transform="translate(121.9057,94.4362)"
             id="g168"><path
               inkscape:connector-curvature="0"
               id="path170"
               style="fill:#004556;fill-opacity:1;fill-rule:nonzero;stroke:none"
               d="m 0,0 c 0,0.671 -0.642,1.335 -1.356,1.335 -1.007,0 -1.393,-0.686 -1.393,-1.401 v -0.415 c 0,-0.715 0.664,-1.277 1.349,-1.277 0.714,0 1.4,0.584 1.4,1.299 z M 0.635,-1.801 0.511,-2.078 c -0.161,0 -0.453,0.415 -0.46,0.714 -0.335,-0.51 -0.897,-0.743 -1.451,-0.736 -0.89,0.007 -1.692,0.641 -1.692,1.619 v 0.415 c 0,1.459 1.101,1.743 1.736,1.743 0.554,0 1.159,-0.379 1.356,-0.714 V 3.551 H 0.343 V -1.05 c 0,-0.43 0.094,-0.576 0.292,-0.751" /></g><g
             transform="translate(125.6391,95.0561)"
             id="g172"><path
               inkscape:connector-curvature="0"
               id="path174"
               style="fill:#004556;fill-opacity:1;fill-rule:nonzero;stroke:none"
               d="M 0,0 C 0,0.51 -0.401,0.802 -1.087,0.802 -2.319,0.802 -2.436,0.051 -2.436,-0.7 -2.436,-0.7 0,-1.152 0,0 m -1.094,-2.735 c -0.707,0 -1.684,0.212 -1.684,1.707 v 0.343 c 0,1.057 0.35,1.83 1.691,1.83 0.708,0 1.43,-0.314 1.43,-1.145 0,-1.597 -2.779,-1.028 -2.779,-1.028 0,-1.065 0.525,-1.364 1.342,-1.364 0.744,0 1.167,0.438 1.167,0.824 l 0.328,0.044 c 0,-0.773 -0.824,-1.211 -1.495,-1.211" /></g><path
             inkscape:connector-curvature="0"
             id="path176"
             style="fill:#004556;fill-opacity:1;fill-rule:nonzero;stroke:none"
             d="m 155.265,89.171 h -35.944 v 0.212 h 35.944 z" /><g
             transform="translate(111.7335,103.8262)"
             id="g178"><path
               inkscape:connector-curvature="0"
               id="path180"
               style="fill:#004556;fill-opacity:1;fill-rule:nonzero;stroke:none"
               d="m 0,0 h -0.348 v 2.217 l -1.127,-1.68 -1.127,1.68 V 0 H -2.949 V 2.512 H -4.071 V 0 h -0.353 v 2.512 h -0.888 c 0.084,-0.08 0.16,-0.171 0.225,-0.274 L -5.382,2.028 C -5.474,2.2 -5.603,2.333 -5.769,2.428 -5.936,2.523 -6.123,2.57 -6.33,2.57 -6.488,2.57 -6.635,2.541 -6.77,2.483 -6.905,2.425 -7.022,2.345 -7.12,2.243 -7.219,2.142 -7.296,2.02 -7.352,1.878 -7.408,1.735 -7.436,1.58 -7.436,1.411 c 0,-0.168 0.028,-0.323 0.084,-0.463 0.056,-0.14 0.133,-0.262 0.232,-0.366 0.098,-0.104 0.215,-0.184 0.35,-0.24 0.135,-0.056 0.282,-0.084 0.44,-0.084 0.221,0 0.418,0.055 0.592,0.163 0.174,0.109 0.317,0.271 0.429,0.485 L -5.024,0.695 C -5.158,0.446 -5.337,0.255 -5.561,0.124 -5.786,-0.008 -6.042,-0.074 -6.33,-0.074 c -0.211,0 -0.407,0.037 -0.588,0.111 -0.18,0.074 -0.336,0.176 -0.466,0.308 -0.13,0.132 -0.231,0.288 -0.305,0.469 -0.074,0.181 -0.111,0.38 -0.111,0.597 0,0.215 0.037,0.413 0.111,0.596 0.074,0.182 0.175,0.34 0.305,0.474 0.13,0.133 0.286,0.237 0.466,0.31 0.181,0.074 0.377,0.111 0.588,0.111 0.155,0 0.302,-0.023 0.441,-0.063 h 0.27 0.49 2.18 0.074 0.252 l 1.148,-1.738 1.154,1.738 H 0 Z m 1.448,2.536 c -1.061,5.458 -3.329,10.326 -7.143,14.412 -3.571,3.826 -7.889,6.32 -13.096,7.168 -0.533,0.086 -1.073,0.123 -1.61,0.184 0.026,-0.107 0.063,-0.14 0.105,-0.161 2.123,-1.032 3.501,-2.724 4.233,-4.93 0.311,-0.937 0.459,-1.93 0.658,-2.902 0.056,-0.274 0.118,-0.48 0.388,-0.647 2.07,-1.278 3.89,-2.849 5.432,-4.735 0.047,-0.058 0.096,-0.114 0.136,-0.176 0.032,-0.048 0.052,-0.104 0.113,-0.23 -1.935,1.558 -3.842,3.004 -5.96,4.315 0.158,-2.901 0.062,-5.719 0.403,-8.538 2.674,0.44 5.294,0.488 7.906,-0.116 -2.572,-0.255 -5.147,-0.471 -7.718,-0.963 0.203,-1.031 0.544,-1.953 1.078,-2.807 0.867,-1.384 2.155,-2.278 3.547,-3.044 2.226,-1.225 4.665,-1.795 7.128,-2.3 1.719,-0.352 3.519,-0.525 4.89,-1.911 0.011,0.106 0.02,0.162 0.022,0.219 C 2.051,-2.22 1.909,0.17 1.448,2.536" /></g></g></g></g></g></svg>