<?xml version="1.0" encoding="UTF-8" standalone="no"?>
<!-- Created with Inkscape (http://www.inkscape.org/) -->
<svg
   xmlns:svg="http://www.w3.org/2000/svg"
   xmlns="http://www.w3.org/2000/svg"
   version="1.0"
   width="274.8176"
   height="300"
   id="Layer_1"
   xml:space="preserve"><defs
     id="defs190">
	
	
	
	
	
	
	
	
	
	
	
	
	
	
	
	
	
	
	
	
	
	
	
	
	
	
	
	
	
	
	
	
	
	
	
	
	
	
	
	
	
	
	
	
	
	
	
	
	
	
	
	
	
	
	
	
	
		
	
		
	
	
		
	
	
		
	
		
	
		
	
	
	
	
	
	
	
	
	
	
	
	
	
	
	
	
	
	
	
	
	
	
	
	
	
	
	
	
</defs><path
     d="M 141.12813,148.5604 L 259.13044,144.32393 C 257.98233,157.46469 253.02908,169.66901 249.08124,183.45599 C 252.168,189.19976 260.27855,169.81332 260.85261,167.87468 C 261.06908,167.44173 263.36531,158.68336 264.36911,162.13091 C 261.85801,167.51389 261.13803,172.97384 260.06208,176.27707 C 259.91776,176.70681 259.63073,180.5841 260.06208,180.01004 C 260.63614,179.00464 261.35611,176.70521 261.64154,175.34062 C 263.22099,171.67981 264.43966,167.51389 265.15803,165.07495 C 265.3729,164.43034 265.73049,162.84768 266.16183,161.84227 C 266.16183,159.83147 268.60237,159.25902 267.52642,161.26982 C 267.52642,162.41954 265.94856,167.37438 265.44506,168.80792 C 266.01912,170.96304 266.3783,169.24087 266.95076,168.23547 C 267.02452,168.09115 267.8856,165.57685 268.3875,163.56605 C 268.96156,161.19766 269.96696,158.61441 270.68533,155.02255 C 271.04452,153.15606 272.12208,150.71391 272.12208,153.30038 C 271.47586,157.24982 269.75209,163.42494 268.96316,167.30223 C 268.96316,168.09115 268.67613,169.09655 269.46506,169.09655 C 270.18183,166.79712 271.54642,162.13091 272.12047,161.55845 C 274.4183,160.98279 269.8948,169.95764 270.03912,173.40679 C 270.03912,172.25707 272.55022,168.37979 273.19803,167.37438 C 275.20723,167.37438 272.76509,168.95224 272.76509,170.17411 C 272.62237,170.60385 268.81724,181.44519 269.75049,181.44519 C 270.68373,180.22652 273.62617,171.89628 274.70373,171.60765 C 275.56481,172.54089 271.25939,182.093 271.25939,184.02844 C 270.47046,185.46519 269.96696,187.33327 269.46506,188.91434 C 268.96316,189.41623 268.89101,190.133 269.17643,190.92193 C 269.17643,189.99189 271.18723,188.19436 271.61697,187.04464 C 272.33374,185.89813 272.55022,184.6057 273.77049,185.46679 C 272.26319,189.84437 269.32075,193.79702 267.52481,198.17621 C 266.16023,200.18701 263.8656,204.35293 266.01912,202.19781 C 267.95776,200.25917 267.8856,199.82943 268.8894,198.46484 L 270.97076,195.0205 C 271.47266,194.65971 271.97616,194.08405 272.69453,194.08405 C 271.47266,196.95915 269.53562,199.97214 268.10047,202.77508 C 264.58398,206.79347 262.50262,211.74832 258.84181,215.41234 C 257.76425,216.99019 254.96612,219.001 259.48802,217.13451 C 263.93776,213.32938 267.52642,207.36913 270.68373,202.48644 C 270.97076,202.5586 271.54481,202.70292 271.83345,202.77508 C 268.31534,209.66536 263.50642,214.97939 259.12723,221.15611 C 257.8348,222.44694 254.96452,224.88908 254.24775,226.32423 C 255.03668,226.68502 254.8202,226.61286 255.75345,226.0388 C 257.61993,223.88368 259.98992,221.72857 262.28454,219.93424 L 262.8586,220.57885 C 258.55157,226.0372 254.46102,230.77557 249.07643,234.94149 C 247.42642,236.23231 245.55993,237.5969 243.83616,238.67446 C 246.06183,239.82418 254.17239,232.93069 256.03887,231.5645 C 256.3259,230.84773 256.61293,230.84773 257.11483,230.34262 C 257.40346,229.69801 259.48481,228.19071 259.48481,230.0572 C 256.75724,232.42558 254.10183,235.22531 251.37266,237.52314 C 246.92292,241.47259 241.96967,245.27772 236.65724,248.22176 C 238.45157,249.08284 246.63589,244.05584 248.14158,242.76662 C 249.36186,241.97448 250.58052,241.04124 251.65808,240.18016 C 251.65808,240.46879 252.87996,240.97229 253.09483,240.97229 C 250.51157,243.19636 247.2805,245.135 244.41022,247.07365 C 241.2513,249.22876 237.51993,251.95634 234.14615,253.60955 C 230.77236,254.97254 227.18371,257.41468 223.73937,258.27577 C 223.73937,259.20901 229.33722,257.41468 230.12615,257.41468 C 234.7202,256.26497 239.2421,254.25416 243.04723,251.38228 C 244.19695,252.60415 243.90832,252.6731 242.47318,253.60955 C 240.53614,255.0447 238.31046,255.83362 236.65885,257.41468 C 234.43478,258.20361 231.77937,259.99794 229.47993,260.85902 C 224.67261,263.44548 218.92884,265.74171 213.68857,267.46388 C 212.18287,267.46388 210.45749,268.6136 209.09611,268.6136 C 208.02016,268.6136 208.30719,269.26142 209.38475,269.26142 C 212.61421,269.26142 215.26963,269.04494 218.28423,268.32817 C 220.36719,267.89523 222.59286,267.25061 224.31342,266.606 C 227.25747,265.6006 230.77236,263.58659 233.86072,262.29577 C 234.00344,262.65656 234.29207,263.0847 234.43478,263.44548 C 231.70721,266.17306 227.11315,266.81927 224.0264,268.32817 C 223.95424,268.32817 223.38018,268.97278 223.16531,268.97278 C 221.72857,268.97278 217.71017,271.05574 216.56206,271.20006 C 213.11611,271.77251 208.52206,274.35737 205.07772,274.35737 C 207.58881,275.14951 211.75313,274.07195 214.26423,273.56844 C 214.26423,274.28842 216.05855,274.86248 215.9864,275.22166 C 215.05315,278.09355 213.11451,281.1787 211.39394,283.90948 C 207.58881,285.77597 203.78529,288.07219 199.908,289.94189 C 198.61557,289.94189 197.8988,289.86973 198.68773,288.21651 C 198.68773,288.21651 201.63177,284.77217 200.19503,284.77217 C 198.9026,284.77217 197.82504,284.48354 197.82504,286.20731 C 197.68233,286.64026 197.61017,286.99944 197.32314,287.28487 C 197.32314,289.43999 196.46045,293.53214 194.3791,294.53755 C 193.01611,295.97269 189.13883,296.54835 187.20179,297.40943 C 182.53557,297.40943 176.7934,300.28132 172.2699,297.40943 C 171.04963,297.40943 169.32746,297.77022 170.2607,295.97269 C 171.12179,295.97269 171.33826,295.97269 171.98287,295.68726 C 173.99367,295.68726 183.61153,293.17296 182.60613,291.02105 C 181.74504,291.02105 180.38045,291.23431 179.73584,290.51755 C 178.801,290.51755 178.65828,290.22891 177.72504,289.94509 C 176.93611,288.50835 174.20854,289.5843 173.06043,288.50835 C 172.12719,288.0754 170.90531,287.64726 172.7718,289.08401 C 172.7718,290.66186 172.98827,292.31348 171.40721,293.1024 C 170.69044,293.46319 169.82936,293.9667 169.03722,293.9667 C 167.74479,293.9667 163.94287,294.25212 163.94287,292.81698 C 162.79316,293.38943 163.65424,293.38943 163.65424,294.25212 C 164.51533,294.25212 163.00803,296.33508 162.79316,296.55155 C 161.42857,299.27913 154.46773,298.91994 151.81072,298.91994 C 150.80531,298.70667 149.79991,298.20317 148.94043,297.9899 C 144.99259,295.97589 140.54125,294.03725 136.88043,291.67047 C 135.588,291.67047 133.57881,293.32048 132.50285,293.9699 C 128.84204,296.481 125.39609,299.9991 120.51501,299.9991 C 118.86339,299.9991 117.35609,300.07126 116.78364,298.92154 C 115.77824,298.92154 115.92095,297.12721 115.92095,296.55316 C 115.92095,296.55316 118.14662,294.18157 116.20798,295.18697 C 114.34149,296.55316 110.25094,297.05345 107.88256,296.26453 C 105.51257,293.89293 106.01607,293.17617 107.88256,291.38184 C 107.59553,291.38184 105.94391,290.09101 105.8012,289.9467 C 105.8012,289.29888 105.58633,288.86914 105.2993,288.22132 C 103.00307,289.37104 100.56253,289.37104 98.33686,287.93589 C 96.757403,289.51375 94.892521,290.51915 92.37982,290.51915 C 91.805764,290.23052 91.087391,289.87454 90.585492,289.65806 C 86.278464,289.65806 86.852521,289.44159 86.852521,292.81858 C 86.852521,293.60751 87.139549,294.18157 86.852521,294.90154 C 86.852521,295.61831 86.206306,297.12561 85.417379,297.12561 C 83.980634,298.56236 80.536295,299.56776 78.527096,298.91994 C 76.44574,298.91994 75.584655,298.20317 74.220068,296.84019 C 73.071955,296.84019 73.358983,296.12021 73.358983,295.40344 C 71.707368,294.11262 71.851684,288.58211 74.220068,286.78778 C 74.507097,286.49915 75.799526,284.77698 74.794125,284.77698 C 74.794125,283.77158 75.081153,283.55511 73.93304,283.55511 C 72.999797,283.55511 73.501696,282.69402 72.425741,282.69402 C 70.344384,281.83294 69.842486,282.98265 67.833288,282.98265 C 65.822486,285.99885 62.593017,289.65967 58.715729,289.65967 C 57.711932,289.65967 56.634373,287.79318 56.634373,286.78778 C 55.916001,284.63266 56.419503,281.47375 56.921401,279.24968 C 55.556814,279.24968 54.984361,278.5297 54.049515,277.88349 C 53.690329,277.88349 53.18843,276.5173 53.18843,276.08916 C 53.18843,274.15052 52.040317,274.58026 52.040317,273.86189 C 52.040317,272.35619 48.95356,274.15052 48.020317,274.15052 C 46.585175,274.15052 45.077876,274.15052 43.713289,274.15052 C 43.713289,274.07836 43.928159,273.71757 44.000317,273.57486 C 41.12843,273.57486 38.904362,268.9808 40.268949,266.32539 C 39.76705,266.32539 40.268949,265.67757 40.268949,265.24783 C 41.272746,263.16487 45.292746,261.72813 47.44626,260.58162 C 46.225989,260.58162 46.440859,259.14487 45.437062,259.14487 C 45.077876,258.78408 44.863005,258.64297 44.863005,257.99515 C 42.781649,257.99515 45.581378,254.26218 41.992722,254.26218 C 41.059479,253.47326 41.059479,253.32894 39.983524,253.32894 C 39.839208,253.32894 39.481626,253.32894 39.33731,253.32894 C 36.752451,253.32894 30.149197,249.74028 30.149197,247.36869 C 30.580541,246.43545 31.441626,245.71868 32.230553,245.00031 C 34.167593,243.34709 30.364067,243.9917 29.932723,242.12521 C 28.210553,241.62332 27.851367,239.75683 27.851367,238.10682 C 27.851367,235.87954 30.723253,234.65927 31.869763,232.9355 C 30.075435,231.71362 28.640294,232.64687 26.416225,232.14336 C 25.697853,232.14336 24.97948,232.14336 24.118395,232.14336 C 22.611096,231.78578 20.385424,230.63767 19.811367,229.48795 C 19.092995,228.05281 18.805966,225.75498 19.237311,224.03281 C 19.237311,221.73338 24.405424,221.01661 24.405424,219.15012 C 22.825966,218.64662 21.964881,215.91745 21.031638,214.55286 C 20.457582,212.47311 20.098395,209.81449 20.098395,207.58721 C 17.083796,207.58721 14.930282,207.37394 12.919481,204.4299 C 10.623254,202.13047 10.047594,199.18642 10.047594,196.09966 C 10.047594,192.72588 7.1051531,194.94995 5.6700116,193.51641 C 4.3775824,193.51641 5.9570399,190.861 4.307028,190.35589 C 2.081356,188.92075 -1.32e-007,186.62292 -1.32e-007,183.75103 C -1.32e-007,179.58511 4.8810846,183.24753 4.8810846,179.4408 C 4.8810846,173.84134 5.4551412,175.34704 9.1159548,172.83594 C 9.547299,170.68082 7.9678416,171.18593 7.4643394,169.60326 C 5.9570399,168.3846 6.1013558,166.22948 5.095955,165.29624 C 5.095955,160.41355 6.3883841,158.76033 10.047594,156.67737 C 10.40678,156.67737 11.125153,156.67737 11.484339,156.67737 C 13.565695,156.67737 13.780566,158.9768 14.930282,158.9768 C 16.078396,161.34839 15.93408,158.9768 15.217311,158.9768 C 15.217311,158.18787 15.432181,155.60302 14.356226,155.60302 C 14.356226,154.59762 14.356226,153.4479 14.069197,152.4425 C 13.567299,152.4425 13.782169,151.07631 13.782169,150.71872 L 141.12813,148.5604 L 141.12813,148.5604 z "
     style="fill-rule:evenodd"
     id="path7" /><polygon
     points="84.95,188.668 84.413,188.129 84.413,187.771 84.592,187.592 84.771,187.592 84.95,187.412 85.129,187.234 85.488,187.055 86.025,187.055 86.606,187.055 87.099,187.055 87.637,187.055 88.173,187.234 88.71,187.412 89.292,187.771 89.964,187.951 89.471,188.309 88.934,188.488 88.353,188.488 87.815,188.668 87.278,188.668 86.786,188.668 86.204,188.668 85.667,188.668 85.129,188.668 84.95,188.668 "
     transform="matrix(1.6035101,0,0,1.6035101,-17.125488,-4.5459511)"
     style="fill:#496e6e;fill-rule:evenodd"
     id="polygon9" /><polygon
     points="104.646,188.309 104.108,187.951 104.646,187.412 104.825,187.412 105.004,187.412 105.228,187.234 105.362,187.234 105.542,187.055 105.721,186.92 106.078,186.742 106.437,186.742 106.795,186.518 107.152,186.518 107.556,186.338 107.868,186.338 108.227,186.338 108.585,186.338 109.122,186.338 109.48,186.338 110.063,186.338 110.555,186.338 111.092,186.338 111.45,186.742 111.271,186.92 111.092,187.055 110.913,187.234 110.555,187.412 110.421,187.592 110.063,187.592 109.66,187.771 109.302,187.771 108.943,187.951 108.406,188.129 107.868,188.129 107.332,188.309 106.795,188.309 106.258,188.309 105.721,188.309 105.228,188.309 104.646,188.309 "
     transform="matrix(1.6035101,0,0,1.6035101,-17.125488,-4.5459511)"
     style="fill:#496e6e;fill-rule:evenodd"
     id="polygon11" /><path
     d="M 70.499925,278.66761 C 70.499925,273.28462 75.523722,274.35737 78.825349,273.28462 C 80.906705,273.28462 84.208333,271.05735 85.430207,269.55165 C 86.36345,265.31357 82.845349,267.25222 82.845349,263.73572 C 82.845349,260.86063 85.645078,261.5806 87.439406,261.72171 C 88.372648,261.79387 88.228333,262.29737 89.161575,262.29737 C 86.722637,263.5882 87.152377,264.45249 87.152377,266.60761 C 87.152377,267.46548 84.998863,271.77572 87.439406,271.77572 C 87.439406,272.56465 89.018863,272.06435 87.726434,272.70896 C 87.726434,275.58085 80.262094,279.38598 79.112378,280.17491 C 79.758592,281.46894 83.202932,278.81192 83.993462,278.16731 C 84.495361,278.59705 82.271293,282.68921 81.984264,283.26647 C 81.193734,285.92189 79.973463,289.01025 79.973463,291.95429 C 79.973463,293.67646 80.834548,292.0954 80.834548,291.37863 C 80.834548,289.36783 84.136175,279.96324 86.002661,278.16891 C 86.361847,278.74137 86.791588,281.90189 87.150774,281.90189 C 87.150774,283.0516 88.513757,284.62946 88.872944,285.63486 C 91.241328,286.78457 88.011859,280.39138 88.011859,279.24647 C 86.71943,277.95244 88.226729,275.22487 88.872944,274.14731 C 88.872944,274.36058 90.595113,277.30783 90.595113,274.93624 C 90.595113,275.29703 93.609712,274.93624 94.542955,274.93624 C 94.615113,274.93624 104.87918,275.58085 104.87918,275.58085 C 106.81622,277.73597 104.16241,280.39138 102.86998,280.39138 C 99.712672,280.39138 95.405644,276.44193 94.328085,277.30623 C 90.235927,280.60785 98.922141,285.92189 94.902142,287.93269 C 93.322684,287.93269 89.087814,288.36243 88.011859,286.49594 C 81.049418,288.21811 87.006458,296.26132 78.823746,296.26132 C 74.014819,296.26132 73.655633,290.73402 76.455361,287.93429 C 78.321847,286.06781 78.46456,280.75217 74.80535,280.75217 C 73.801552,280.75057 70.499925,280.24546 70.499925,278.66761 L 70.499925,278.66761 z "
     style="fill:#2ca02c;fill-rule:evenodd"
     id="path13" /><polygon
     points="122.954,187.234 123.133,187.234 123.491,187.055 123.849,187.055 124.207,186.92 124.565,186.92 124.924,186.518 125.282,186.338 125.818,185.98 126.177,185.98 126.535,186.16 126.535,186.338 126.714,186.338 126.894,186.338 127.072,186.338 127.251,186.338 127.431,186.338 127.609,186.338 127.967,186.16 127.431,186.518 127.072,186.518 126.714,186.742 126.355,186.742 126.043,186.92 125.461,187.055 125.282,187.055 124.744,187.055 124.565,187.055 124.028,187.234 123.849,187.234 123.313,187.234 123.133,187.234 122.954,187.234 "
     transform="matrix(1.6035101,0,0,1.6035101,-17.125488,-4.5459511)"
     style="fill:#2ca02c;fill-rule:evenodd"
     id="polygon15" /><polygon
     points="78.863,186.92 78.684,186.92 78.505,186.92 78.326,186.92 78.326,186.742 78.146,186.742 78.146,186.518 77.968,186.518 77.968,186.338 77.968,185.98 78.684,185.621 79.042,185.621 79.176,185.621 79.579,185.621 79.758,185.621 80.116,185.621 80.474,185.621 80.833,185.621 80.833,185.801 81.011,185.801 81.19,185.801 81.19,185.98 81.37,185.98 81.548,185.98 81.907,185.98 81.907,186.338 81.683,186.518 81.548,186.518 81.37,186.518 81.19,186.742 81.011,186.742 80.833,186.92 80.474,186.92 80.295,186.92 80.116,186.92 79.937,186.92 79.579,186.92 79.355,186.92 79.176,186.92 79.042,186.92 78.863,186.92 "
     transform="matrix(1.6035101,0,0,1.6035101,-17.125488,-4.5459511)"
     style="fill:#496e6e;fill-rule:evenodd"
     id="polygon17" /><polygon
     points="113.778,185.084 113.599,185.084 113.42,185.084 113.24,185.084 113.062,185.084 112.928,184.906 112.748,184.727 112.748,184.547 112.928,184.189 113.062,184.189 113.24,184.189 113.42,184.189 113.599,184.189 113.778,184.01 113.956,184.01 114.314,183.652 114.718,183.652 115.076,183.473 115.434,183.473 115.747,183.473 115.927,183.473 116.284,183.473 116.463,183.473 116.866,183.473 116.866,183.652 116.866,183.83 116.866,184.01 116.866,184.189 116.866,184.324 116.866,184.547 116.104,184.906 115.747,185.084 115.612,185.084 115.255,185.084 115.076,185.084 114.718,185.084 114.539,185.084 114.136,185.084 113.956,185.084 113.778,185.084 "
     transform="matrix(1.6035101,0,0,1.6035101,-17.125488,-4.5459511)"
     style="fill:#496e6e;fill-rule:evenodd"
     id="polygon19" /><polygon
     points="84.279,180.607 84.279,180.428 84.279,180.248 84.279,180.068 84.279,179.666 84.279,179.488 84.279,179.129 84.279,178.994 84.413,178.457 84.592,178.637 84.771,178.816 84.95,178.994 85.129,178.994 85.309,179.129 85.488,179.309 85.667,179.488 86.204,179.488 86.204,179.891 85.846,180.068 85.667,180.068 85.309,180.248 85.129,180.248 84.771,180.428 84.592,180.428 84.413,180.607 84.279,180.607 "
     transform="matrix(1.6035101,0,0,1.6035101,-17.125488,-4.5459511)"
     style="fill:#ffffff;fill-rule:evenodd"
     id="polygon23" /><path
     d="M 128.85486,282.47274 C 127.41972,282.47274 125.12189,276.51249 125.76971,275.22327 C 124.54944,275.22327 123.68835,272.99599 122.32377,272.99599 C 119.02214,274.29002 113.85403,278.52329 110.76727,276.72896 C 109.90619,276.22706 108.32673,274.93463 110.12106,272.99599 C 110.62295,272.56304 109.547,268.32978 111.34133,268.32978 C 111.34133,269.26302 113.13726,268.25762 113.35213,268.04114 C 115.0743,266.39113 117.22781,269.83547 118.23161,270.91303 C 120.24241,269.90763 116.79647,267.53764 116.79647,266.606 C 117.72971,265.66955 128.85486,265.52844 128.85486,269.26142 C 130.21945,269.26142 130.07514,272.92223 130.07514,274.1441 C 131.58083,275.29382 131.07893,271.41333 131.07893,270.91143 C 131.07893,267.17846 133.66219,271.84467 134.02137,272.34817 C 134.66759,273.42573 139.3322,280.38817 140.62463,277.87547 C 137.8249,275.93683 135.96002,271.27061 133.44732,268.97118 C 133.08973,268.53823 131.51028,267.39333 132.87486,268.03794 C 135.67459,268.03794 138.68759,269.61579 140.3392,266.31577 C 139.04677,266.81767 124.83486,266.24361 124.83486,264.59039 C 122.82567,264.59039 120.59999,264.59039 118.51864,264.59039 C 120.0981,263.51283 125.84027,258.77446 125.48108,257.98553 C 122.96998,259.56339 120.0997,261.50524 117.65755,263.15685 C 109.76187,269.33037 114.35593,258.84662 114.50024,258.84662 C 115.43348,258.84662 115.64836,257.41148 115.0743,256.83582 C 116.50944,255.40067 118.51864,254.1804 120.24241,253.31932 C 120.74431,253.10284 124.83486,252.38608 124.83486,252.81582 C 125.48108,252.81582 126.41432,253.60795 127.13269,253.60795 C 127.13269,254.46904 128.56944,256.40768 128.56944,257.98553 C 128.56944,263.15685 134.45593,262.36632 138.04298,261.50524 C 139.76515,262.72391 143.42596,262.94038 143.42596,266.02714 C 142.63543,267.82146 142.20569,267.89362 140.91486,269.25981 C 140.91486,269.68955 140.55407,270.40632 140.34081,270.6228 C 140.34081,274.71656 145.79595,274.86087 145.79595,277.87547 C 145.79595,279.38117 146.22729,282.686 143.71299,282.686 C 142.06298,284.40817 136.89486,283.6914 136.89486,280.45873 C 136.32081,280.45873 135.10054,279.74196 135.10054,279.24006 C 132.15649,279.24327 131.51188,282.47274 128.85486,282.47274 L 128.85486,282.47274 z "
     style="fill:#2ca02c;fill-rule:evenodd"
     id="path25" /><polygon
     points="88.353,177.92 88.531,177.561 88.173,177.561 87.815,177.561 87.457,177.338 87.278,177.158 86.965,177.158 86.786,176.98 86.383,176.98 86.204,176.801 86.025,176.801 86.025,176.621 86.025,176.486 85.846,176.486 85.667,176.486 85.488,176.309 85.488,176.129 85.309,176.129 85.129,175.949 85.129,175.771 84.95,175.771 84.95,175.592 84.771,175.592 84.771,175.412 84.771,175.01 84.95,175.01 85.129,175.01 85.309,175.01 85.488,175.01 85.667,175.01 85.846,175.01 86.204,174.83 86.204,175.01 86.606,175.232 86.786,175.412 87.278,175.412 87.457,175.592 87.815,175.771 87.994,175.949 88.353,176.129 88.353,176.486 88.353,176.621 88.353,176.801 88.353,176.98 88.353,177.338 88.353,177.74 88.531,177.74 88.353,177.92 "
     transform="matrix(1.6035101,0,0,1.6035101,-17.125488,-4.5459511)"
     style="fill:#217821;fill-rule:evenodd"
     id="polygon27" /><path
     d="M 180.31952,277.01759 C 176.29952,277.73436 169.91274,278.45274 165.60411,278.45274 C 161.08381,278.45274 159.28949,276.30083 159.36004,273.28462 C 159.4322,267.89843 171.84818,272.56465 175.72546,272.99599 C 180.31792,273.56844 183.97873,274.35897 188.35792,274.35897 C 192.7371,274.35897 185.91737,275.79572 185.48603,275.79572 C 184.76926,276.22867 181.46763,276.80112 180.31952,277.01759 L 180.31952,277.01759 z "
     style="fill:#fff200;fill-rule:evenodd"
     id="path29" /><path
     d="M 54.063946,272.70736 C 53.776918,272.70736 51.910432,270.48008 50.330975,271.20166 C 47.675562,271.20166 42.00555,274.14571 42.00555,268.97439 C 42.00555,264.66415 43.72772,265.0971 46.312579,263.15846 C 47.316376,264.0917 52.054748,263.44709 52.054748,261.14765 C 53.347177,259.85362 50.04555,254.39848 56.935833,257.70011 C 61.602047,257.70011 64.400173,258.49224 64.400173,253.10605 C 64.400173,249.08445 71.075585,247.07365 72.15154,250.23417 C 73.516127,250.23417 77.319653,254.40008 76.743993,255.40549 C 76.743993,259.0663 75.955066,258.42169 76.456965,260.57681 C 72.723993,260.57681 71.790751,258.20521 68.418569,257.12926 C 67.700196,256.0517 67.987225,256.26817 66.766953,256.55681 C 66.766953,258.20682 70.499925,259.85843 71.935066,260.28978 C 71.216694,260.57841 64.111541,261.65276 63.32101,262.58921 C 61.38397,263.01895 56.716152,261.58381 55.210456,260.00275 C 54.995586,260.50625 54.708557,260.93599 54.708557,261.51165 C 56.071541,261.51165 59.230456,263.73893 60.091541,263.73893 C 58.010185,264.81328 53.918027,264.88544 51.477485,264.88544 C 51.190456,265.24623 47.170456,266.03515 52.33857,266.03515 C 55.712355,266.03515 58.582638,266.39594 61.525079,264.88544 C 60.806706,266.03515 57.362367,270.27163 57.792107,271.20487 C 59.299407,271.20487 61.452921,267.03895 62.743747,265.53326 C 65.615633,263.16166 66.691588,262.30058 71.069171,262.30058 C 73.941058,261.43949 64.897261,267.75572 68.700787,267.75572 C 69.347001,266.32058 75.089171,260.86223 75.089171,262.30058 C 76.237284,262.30058 77.385397,262.30058 78.533511,262.30058 C 75.302438,263.80627 78.892697,265.4611 78.820539,265.53326 C 86.571907,267.61301 79.896494,271.77893 73.365397,271.77893 C 72.072968,271.77893 71.57107,272.71217 70.493511,274.65081 C 69.058369,276.017 65.827296,269.91244 62.742143,273.0008 C 60.158888,275.5119 60.231046,277.31104 56.066731,277.31104 C 54.349371,277.30462 54.6364,272.70736 54.063946,272.70736 L 54.063946,272.70736 z "
     style="fill:#2ca02c;fill-rule:evenodd"
     id="path31" /><polygon
     points="102.632,175.771 102.497,175.771 102.497,175.592 102.497,175.412 102.497,175.232 102.497,175.01 102.497,174.65 103.034,174.65 103.572,174.293 104.108,174.113 104.825,173.801 105.362,173.621 106.078,173.264 106.795,172.904 107.556,172.322 108.227,172.322 108.764,172.682 108.048,173.264 107.332,173.441 106.795,173.621 106.258,173.801 105.542,174.113 105.004,174.293 104.288,174.65 103.75,174.83 103.572,175.01 103.393,175.232 103.214,175.412 103.034,175.592 103.034,175.771 102.632,175.771 "
     transform="matrix(1.6035101,0,0,1.6035101,-17.125488,-4.5459511)"
     style="fill:#fff200;fill-rule:evenodd"
     id="polygon33" /><path
     d="M 146.3684,274.14571 C 145.00542,274.14571 144.93326,272.99599 144.07057,272.99599 C 144.07057,272.70736 143.56867,271.91843 143.42596,271.77412 C 143.42596,267.39653 148.44976,262.79767 151.24949,259.99794 C 155.12517,257.05389 159.00085,254.61495 163.09301,252.24336 C 159.50596,256.33712 155.70083,261.29197 154.12137,266.606 C 152.61407,269.18926 150.02922,274.1441 146.65543,274.1441 L 146.3684,274.1441 L 146.3684,274.14571 z "
     style="fill:#fff200;fill-rule:evenodd"
     id="path35" /><path
     d="M 92.392648,272.99599 C 88.803993,271.6298 91.100219,267.18006 93.757235,265.53005 C 95.19398,263.30277 94.905349,263.94899 94.905349,261.72171 C 94.905349,257.84442 85.143179,259.71412 84.569123,259.71412 C 82.415608,259.71412 78.539925,258.5644 78.539925,255.69251 C 78.539925,255.0447 81.625078,255.5482 83.133981,254.82822 C 88.374252,252.45984 82.632082,247.36228 79.113981,247.36228 C 78.68424,246.92933 76.530726,245.78442 76.458568,245.56795 C 75.597484,241.83498 75.884512,239.6077 78.826953,238.10201 C 79.473167,238.74662 85.717236,240.82958 85.717236,241.54635 C 85.717236,242.33527 87.942908,244.05744 88.659677,244.49039 C 89.520762,245.20716 94.831587,242.84038 94.905349,245.56795 L 96.986705,246.1404 C 100.79023,246.1404 95.551563,251.67091 102.65672,251.67091 C 105.38429,251.67091 107.10646,249.66011 109.33213,251.38228 C 114.71511,255.33172 107.39509,262.79767 106.74887,267.75251 C 104.95455,264.88063 104.73807,258.77606 104.73807,255.40388 C 103.44725,255.40388 103.66212,255.04309 103.30293,256.26497 C 103.30293,257.559 103.0159,259.99794 103.58996,261.14765 C 102.65672,260.5752 102.0105,259.64196 101.29373,258.84822 C 100.79023,258.05929 96.699676,254.89878 96.699676,254.54119 C 95.19398,254.54119 94.40345,244.128 92.966705,246.1388 C 92.966705,246.85557 93.038863,251.81362 94.04266,252.81582 C 90.024264,252.02689 83.706434,245.42203 82.558321,241.54474 L 81.410208,241.54474 C 82.414005,246.1388 86.935903,250.44904 90.596717,252.81582 C 95.54996,255.83202 86.289689,253.82122 86.289689,255.11525 C 86.289689,257.34253 93.611316,255.90418 94.903745,255.69091 C 98.492401,257.19661 101.65132,261.86442 103.87538,264.87902 C 102.29593,264.87902 96.840785,264.44928 96.411045,265.81227 C 96.770231,267.46228 104.0197,265.95658 105.0235,268.03954 C 105.0235,268.75631 105.09566,271.98899 105.5254,272.70576 C 104.0181,273.20926 101.79242,272.77791 100.42944,273.28142 C 99.929146,273.49629 92.392648,272.99599 92.392648,272.99599 L 92.392648,272.99599 z "
     style="fill:#2ca02c;fill-rule:evenodd"
     id="path37" /><path
     d="M 211.68578,270.6244 C 204.86605,273.99979 197.33116,273.21086 190.08009,272.06114 C 188.2152,271.77251 190.43927,271.48548 191.51523,271.20006 C 194.31656,270.33897 197.259,270.1225 199.55683,268.32817 C 203.7917,269.40734 207.45252,271.05735 211.68578,270.6244 L 211.68578,270.6244 z "
     style="fill:#fff200;fill-rule:evenodd"
     id="path39" /><path
     d="M 173.07005,264.5936 C 175.58115,264.5936 178.23817,264.5936 180.60655,265.24142 C 187.78386,266.89143 190.08009,267.03574 194.96117,267.75251 C 195.53523,267.89683 198.12009,268.32817 196.18305,268.32817 C 195.96497,268.47249 191.7317,269.55005 191.2282,269.55005 C 188.50223,270.84087 174.64791,272.49089 173.07005,270.91303 C 169.04845,270.91303 170.05545,264.5936 173.07005,264.5936 L 173.07005,264.5936 z "
     style="fill:#fff200;fill-rule:evenodd"
     id="path41" /><path
     d="M 157.85274,270.91303 C 149.45516,266.81927 168.476,251.88418 171.70546,249.87338 C 167.61491,255.40388 165.10221,261.86603 162.4468,268.04114 C 160.86894,269.69116 160.72623,270.91303 158.14137,270.91303 L 157.85274,270.91303 L 157.85274,270.91303 z "
     style="fill:#fff200;fill-rule:evenodd"
     id="path43" /><path
     d="M 200.7771,266.03034 C 199.19765,266.03034 196.68495,265.81387 200.20305,264.5936 C 204.65279,263.15846 208.67279,261.64955 212.54847,259.42549 C 213.91306,259.42549 214.98741,260.28657 215.99281,260.28657 C 219.72418,260.28657 223.31444,260.28657 226.97685,259.71412 C 224.17713,261.36413 215.05957,265.24142 211.97602,265.81547 C 206.8047,266.81927 209.67498,265.88603 200.7771,266.03034 L 200.7771,266.03034 z "
     style="fill:#fff200;fill-rule:evenodd"
     id="path45" /><path
     d="M 169.04845,264.88063 C 167.68547,264.88063 168.61871,264.30817 167.97249,264.30817 C 163.09141,259.42549 179.96033,246.71606 180.89358,247.64931 C 176.72926,253.89498 177.51979,261.79227 169.33708,264.88063 L 169.04845,264.88063 L 169.04845,264.88063 z "
     style="fill:#fff200;fill-rule:evenodd"
     id="path47" /><path
     d="M 201.85306,261.72171 C 203.86226,261.72171 201.35116,262.29737 201.35116,262.29737 C 200.41952,263.23061 190.94438,264.5936 189.50924,264.5936 C 186.35032,264.5936 182.61735,265.60221 182.61735,261.14926 C 182.61735,255.97794 193.31116,258.71032 195.82386,259.99954 C 197.47387,260.78847 199.98657,261.72171 201.85306,261.72171 L 201.85306,261.72171 z "
     style="fill:#fff200;fill-rule:evenodd"
     id="path49" /><polygon
     points="100.886,166.949 100.707,166.77 100.527,166.592 100.304,166.412 100.125,166.232 99.812,166.232 99.812,166.053 99.454,165.92 99.454,165.516 99.946,164.979 100.886,164.262 101.603,163.725 102.497,163.008 103.393,162.471 104.467,161.934 105.542,161.576 106.795,160.994 106.437,161.576 106.078,161.754 105.721,162.293 105.362,162.471 104.825,162.83 104.467,163.188 104.108,163.545 103.93,163.904 103.572,164.084 103.034,164.621 102.855,164.979 102.632,165.158 102.497,165.338 102.318,165.516 102.318,165.695 101.96,165.92 101.781,166.232 101.603,166.412 101.424,166.592 101.244,166.77 101.244,166.949 100.886,166.949 "
     transform="matrix(1.6035101,0,0,1.6035101,-17.125488,-4.5459511)"
     style="fill:#fff200;fill-rule:evenodd"
     id="polygon51" /><path
     d="M 45.162862,254.25416 C 45.162862,252.09905 50.618003,250.66551 50.618003,247.07204 C 50.618003,245.20556 46.096105,242.83717 45.44989,240.17855 C 45.44989,236.22911 49.756918,238.45638 48.608805,234.36262 C 48.608805,233.35722 46.240421,231.2021 45.162862,231.2021 C 44.947991,230.70021 42.076105,225.88967 43.440692,224.59725 C 44.014749,223.664 45.809076,221.43993 47.173663,221.43993 C 49.327178,220.43453 49.614206,222.58644 51.193663,221.72536 C 54.06555,224.6694 52.771517,231.99424 60.094748,226.89668 C 61.529889,227.54129 61.387177,228.47453 62.176104,229.19291 C 64.255857,229.19291 62.965031,235.5845 64.974229,235.5845 C 66.768557,237.30667 71.003427,234.0788 71.93667,236.15695 C 73.443969,236.15695 74.664241,237.52314 75.095585,238.67125 C 75.525326,239.67665 74.232896,240.6099 74.232896,241.54314 C 74.232896,241.54314 72.366411,244.1264 72.725597,244.77582 C 75.238297,248.58095 65.835314,246.1388 68.418569,244.20016 C 68.418569,243.41123 68.346411,242.69446 68.705597,241.83177 C 65.978026,241.83177 68.059383,247.07204 65.548286,247.07204 C 65.476128,247.1442 64.974229,247.36068 64.974229,247.6477 C 63.252059,247.28691 65.548286,251.23636 63.324217,247.93313 C 60.954229,244.34447 58.585845,239.31747 60.094748,234.65125 C 60.524489,233.42938 59.950432,231.49074 60.381776,230.0572 C 58.51529,230.0572 58.444736,235.65665 58.444736,237.23611 C 58.444736,240.108 53.276623,232.35342 52.917437,231.85313 C 51.267425,229.77017 48.897437,227.32802 47.462295,225.17611 C 45.236623,226.25367 54.137708,235.94689 55.500691,237.81338 C 57.439335,240.25231 56.937436,239.89634 54.711764,239.31907 C 52.917437,239.31907 49.687967,239.17796 48.32338,238.67446 C 47.390137,240.68526 56.146906,240.54095 57.798521,241.25772 C 58.372578,243.05525 60.453934,247.1458 61.818521,248.51039 C 62.249865,249.94714 63.972035,248.36608 61.818521,250.52119 C 59.592849,252.74847 56.435538,250.08825 55.000396,250.80983 C 51.985797,250.80983 59.737165,253.5374 56.650408,254.25416 C 55.646611,254.47064 56.291222,254.47064 55.215267,254.82662 C 53.85068,255.33012 54.85608,254.61335 52.917437,255.54659 C 51.913639,256.04849 49.974996,259.42388 50.619607,259.42388 C 48.177461,259.42549 45.162862,256.40928 45.162862,254.25416 L 45.162862,254.25416 z "
     style="fill:#2ca02c;fill-rule:evenodd"
     id="path53" /><path
     d="M 199.91441,251.95634 C 204.7971,251.95634 209.24684,253.60955 213.98361,253.60955 C 209.24684,257.19821 193.16845,262.22521 194.67575,254.25416 C 195.03493,252.38768 198.83846,251.95634 199.91441,251.95634 L 199.91441,251.95634 z "
     style="fill:#fff200;fill-rule:evenodd"
     id="path55" /><path
     d="M 182.04169,257.98874 C 181.46763,257.98874 180.31952,257.12766 180.03249,256.83902 C 180.03249,249.37308 184.91197,247.43444 190.08169,243.62931 C 190.87062,243.05685 191.30196,241.83498 192.45168,241.83498 C 191.37412,243.91794 190.08169,246.78983 189.29276,248.80063 C 188.00033,252.0301 186.92278,257.98874 182.33032,257.98874 L 182.04169,257.98874 L 182.04169,257.98874 z "
     style="fill:#fff200;fill-rule:evenodd"
     id="path57" /><path
     d="M 224.46255,255.83362 C 221.37579,256.98334 213.98361,257.70011 213.98361,257.12766 C 212.61903,256.0501 212.54687,256.41089 213.98361,255.69251 C 217.57227,253.46524 220.80174,251.59875 227.19012,251.09525 C 230.0604,250.87878 232.28608,251.31172 234.43959,250.80983 C 232.07121,252.532 226.68822,255.40388 224.46255,255.83362 L 224.46255,255.83362 z "
     style="fill:#fff200;fill-rule:evenodd"
     id="path59" /><path
     d="M 192.09089,252.532 C 188.93358,252.532 191.87602,247.43283 192.45168,246.1404 C 195.03493,242.83878 198.40872,240.03584 201.85306,237.52474 C 198.26601,241.40203 198.62199,252.532 192.45168,252.532 L 192.09089,252.532 L 192.09089,252.532 z "
     style="fill:#fff200;fill-rule:evenodd"
     id="path61" /><path
     d="M 212.8339,252.24497 C 214.77254,252.24497 219.29444,249.58955 220.8739,248.512 C 221.23468,248.65631 223.8901,248.94494 224.82174,249.08445 C 223.09957,250.95093 216.56847,252.24497 214.8447,252.24497 C 214.19848,252.24497 213.69498,252.24497 213.12092,252.24497 L 212.8339,252.24497 L 212.8339,252.24497 z "
     style="fill:#fff200;fill-rule:evenodd"
     id="path63" /><path
     d="M 205.37116,249.87338 C 204.7971,249.87338 203.71954,246.49959 205.65819,246.49959 C 206.87846,245.20556 216.78334,247.07204 220.01281,247.07204 C 217.28684,249.73227 206.8047,253.03389 205.37116,249.87338 L 205.37116,249.87338 z "
     style="fill:#fff200;fill-rule:evenodd"
     id="path65" /><path
     d="M 244.77582,240.46879 C 241.83338,244.49039 230.27688,252.60415 225.68282,248.07905 C 224.89389,247.29012 224.96605,245.99609 226.32904,245.27932 C 228.26768,244.1296 230.63606,242.97989 235.01365,241.83498 C 238.38904,241.04124 241.47419,241.54635 244.77582,240.46879 L 244.77582,240.46879 z "
     style="fill:#fff200;fill-rule:evenodd"
     id="path67" /><path
     d="M 202.14009,246.1404 C 198.33496,243.12741 205.51387,236.23071 207.95281,233.79177 C 208.02657,233.86393 207.02117,239.53555 207.02117,240.18016 C 206.51767,242.76662 205.2974,246.1404 202.14009,246.1404 L 202.14009,246.1404 z "
     style="fill:#fff200;fill-rule:evenodd"
     id="path69" /><path
     d="M 226.11256,239.89473 C 227.47715,239.89473 228.76798,239.75042 230.13256,239.6061 C 228.33823,241.83338 212.61903,248.22176 212.25984,243.6277 C 210.8247,237.38043 222.74038,239.89473 226.11256,239.89473 L 226.11256,239.89473 z "
     style="fill:#fff200;fill-rule:evenodd"
     id="path71" /><path
     d="M 30.736081,240.18016 C 30.089867,240.18016 29.51581,237.23611 30.449053,237.23611 C 31.669324,236.66366 32.530409,236.73421 33.680126,235.5861 C 34.828239,234.36423 34.541211,231.70881 33.106069,230.91989 C 33.106069,229.5537 27.723086,230.0588 26.430657,230.0588 C 23.845799,229.41419 19.683086,228.12016 21.620127,224.31503 C 22.912556,223.52289 27.865798,221.29562 27.865798,218.85668 C 26.358499,217.35098 23.55877,215.12371 22.410657,213.40154 C 22.123629,211.24642 21.908758,208.94859 23.273345,207.0821 C 23.91956,207.0821 25.354702,205.14346 25.8566,205.93239 C 27.149029,205.93239 28.224985,206.22102 29.660126,206.22102 C 30.737685,208.37614 33.894996,213.90344 36.839041,212.4683 C 37.772284,212.4683 38.848239,210.24102 40.859041,210.24102 C 44.232826,210.24102 45.667968,213.40154 47.749324,215.41234 C 49.545255,216.41774 47.89364,218.42534 48.897437,219.43074 C 46.671765,219.43074 41.720126,220.50829 41.720126,222.87828 C 41.218227,222.95044 40.212826,224.028 39.997956,224.028 C 38.633369,225.31883 39.997956,223.45234 38.490656,223.45234 C 38.490656,220.29503 37.700126,217.56425 38.490656,214.26423 C 37.342543,210.74452 36.839041,221.15772 36.839041,221.15772 C 37.914996,224.74637 35.116871,221.22987 34.255786,220.29663 C 31.600373,217.28043 28.15443,212.89964 26.143629,209.38154 C 23.703086,210.67557 33.967154,222.37799 35.977956,224.0296 C 34.11147,224.45934 29.733888,224.60206 27.867402,224.0296 C 27.580374,225.035 27.293345,225.17932 28.15443,225.17932 C 28.15443,225.32043 37.485255,226.32583 38.490656,226.32583 C 38.490656,227.11796 38.490656,227.83473 38.490656,228.62526 C 38.490656,232.71902 40.572012,228.40879 40.572012,231.56931 C 40.572012,233.00605 40.427697,233.00605 41.433097,234.36904 C 38.633369,234.36904 39.710927,236.16336 41.146069,236.16336 C 43.87364,236.16336 41.146069,238.4628 41.146069,239.03846 C 43.586611,239.03846 41.864442,240.32928 40.859041,240.9771 C 41.647968,244.27873 37.053911,242.77143 35.331741,242.77143 C 33.965551,242.76662 31.954749,240.18016 30.736081,240.18016 L 30.736081,240.18016 z "
     style="fill:#2ca02c;fill-rule:evenodd"
     id="path73" /><path
     d="M 210.25064,240.46879 C 205.51387,238.1004 213.55387,229.5537 215.99281,227.83153 C 215.99281,229.48154 213.62443,238.95828 212.8339,239.6077 C 212.8339,239.6077 210.25064,241.18556 210.25064,240.46879 L 210.25064,240.46879 z "
     style="fill:#fff200;fill-rule:evenodd"
     id="path75" /><path
     d="M 242.26472,232.93069 C 245.70906,231.99744 247.50499,231.0642 250.23256,230.63125 C 250.51959,231.99744 236.66526,244.49039 234.72822,239.03365 C 234.87093,238.02825 232.71742,235.87313 237.16716,234.15096 C 241.6169,232.42558 240.25392,233.50314 242.26472,232.93069 L 242.26472,232.93069 z "
     style="fill:#fff200;fill-rule:evenodd"
     id="path77" /><path
     d="M 241.6169,228.12016 C 241.32827,227.47234 244.34447,223.66721 246.78662,222.58965 C 249.22556,221.51209 251.09365,220.93964 253.38987,220.57885 C 255.03988,220.57885 256.83421,219.93424 258.26935,219.42913 C 254.75446,224.31503 252.52718,228.19232 247.50339,228.5499 C 246.35367,229.12556 245.85177,229.33883 243.91473,229.19451 C 241.83338,229.0534 241.90393,228.62045 241.6169,228.12016 L 241.6169,228.12016 z "
     style="fill:#fff200;fill-rule:evenodd"
     id="path79" /><path
     d="M 232.07121,232.35342 C 234.44119,232.35342 236.44879,232.35342 238.74502,232.13695 C 232.86013,235.22531 229.48635,238.81717 222.88149,237.52314 C 222.5223,237.45098 220.65742,236.5899 222.02201,234.36262 C 223.02901,232.93069 230.42119,231.99744 232.07121,232.35342 L 232.07121,232.35342 z "
     style="fill:#fff200;fill-rule:evenodd"
     id="path81" /><path
     d="M 218.29064,234.65286 C 216.8539,234.65286 217.14253,233.71961 217.14253,232.35342 C 217.14253,228.54829 221.52011,224.52669 224.03281,222.01559 C 222.3828,225.53209 221.44956,229.26827 221.44956,233.21451 C 220.29984,234.36423 218.64983,235.5861 218.64983,234.65125 L 218.29064,234.65125 L 218.29064,234.65286 z "
     style="fill:#fff200;fill-rule:evenodd"
     id="path83" /><path
     d="M 246.35367,218.99939 C 244.05584,221.37098 231.42339,236.01744 227.47715,230.0572 C 227.47715,226.82452 234.72662,225.24667 236.73582,224.81372 C 239.1058,224.38719 243.77042,221.51209 246.35367,218.99939 L 246.35367,218.99939 z "
     style="fill:#fff200;fill-rule:evenodd"
     id="path85" /><path
     d="M 246.92933,217.27722 C 247.07365,212.46669 251.37907,210.23942 255.39907,210.23942 C 258.05448,210.23942 260.56718,208.0843 262.86341,207.0789 C 259.05828,211.89103 254.32151,221.44314 246.92933,217.27722 L 246.92933,217.27722 z "
     style="fill:#fff200;fill-rule:evenodd"
     id="path87" /><path
     d="M 224.89389,229.48154 C 219.94226,226.97044 233.14876,214.1167 235.51715,211.6024 C 236.01905,212.1059 231.56931,220.86588 231.28228,221.79912 C 230.63606,223.52129 228.84174,228.54829 225.18092,229.48154 L 224.89389,229.48154 L 224.89389,229.48154 z "
     style="fill:#fff200;fill-rule:evenodd"
     id="path89" /><path
     d="M 233.00445,224.31503 C 230.27688,220.43774 236.44879,217.13291 237.45259,216.05695 C 238.38743,214.97939 242.6223,212.75212 243.55555,211.39074 C 243.55555,212.17966 241.47419,216.20127 240.97229,217.13451 C 237.95609,223.23907 236.52255,223.45074 233.29148,224.31663 L 233.00445,224.31663 L 233.00445,224.31503 z "
     style="fill:#fff200;fill-rule:evenodd"
     id="path91" /><path
     d="M 244.70366,195.30432 C 244.70366,198.10405 244.6315,204.78427 243.33907,207.36753 C 242.33527,209.52265 239.89473,212.61101 238.6023,211.17266 C 236.37663,208.5894 237.16556,208.22861 239.31907,204.0627 C 240.68366,201.26457 242.98149,198.03189 244.70366,195.30432 L 244.70366,195.30432 z "
     style="fill:#fff200;fill-rule:evenodd"
     id="path93" /><path
     d="M 255.11044,207.86943 C 250.73446,207.86943 253.02908,202.62916 257.69369,201.90918 C 260.56558,201.40728 262.43207,200.68731 264.65774,199.25377 C 262.7207,202.26997 259.27475,207.86943 255.11044,207.86943 L 255.11044,207.86943 z "
     style="fill:#fff200;fill-rule:evenodd"
     id="path95" /><path
     d="M 8.3414594,180.5841 C 7.3360586,180.5841 6.1157874,177.20871 7.478771,176.5625 C 8.6990422,175.27167 14.226341,173.47414 11.211742,170.46114 C 9.1303864,168.45034 7.1933462,166.58385 7.1933462,163.27902 C 7.1933462,160.1185 9.0598319,159.25742 11.787403,159.25742 C 13.007674,160.26282 13.940917,162.77391 14.946318,163.27902 C 16.883358,165.28982 16.596329,161.77012 17.529572,166.43954 C 18.820398,171.67981 21.8366,178.28467 24.779041,182.80977 C 24.132827,185.24871 23.271742,183.17056 23.271742,182.23411 C 21.405256,179.00464 20.184985,175.27167 17.816601,172.54089 C 16.740645,170.53009 15.161188,168.66361 14.083629,166.72496 C 13.940917,166.79712 13.58173,167.01359 13.437415,167.01359 C 14.87416,170.74657 17.529572,173.90708 19.251742,177.42679 C 23.988511,185.39463 22.338499,184.46139 16.379856,178.50114 C 15.661483,180.0822 20.326094,182.73922 20.686884,184.02844 C 22.553369,185.82597 23.414454,188.84218 25.353098,190.63651 C 24.419855,191.49759 26.286341,191.71406 24.779041,193.21976 C 22.481211,195.51919 27.219584,193.00329 25.353098,194.94193 C 25.210386,195.23056 18.605528,196.37867 22.697685,196.37867 C 23.55877,197.23976 24.851199,196.95434 23.845799,198.46163 C 22.840398,197.38408 23.12903,197.38408 22.409054,198.173 C 21.04607,199.53919 21.620127,200.1838 21.620127,201.26136 C 22.76824,201.26136 19.107426,204.63515 17.313098,201.90597 C 16.524171,203.41488 18.461212,205.06649 19.537167,205.64215 C 18.029867,205.64215 17.600127,203.84462 16.953912,203.84462 C 16.953912,203.7003 14.442815,203.12785 14.082026,202.19461 C 12.574726,201.40568 10.780398,195.73406 12.359856,194.07924 C 19.465009,187.04464 12.504172,185.03705 8.3414594,180.5841 L 8.3414594,180.5841 z "
     style="fill:#2ca02c;fill-rule:evenodd"
     id="path97" /><path
     d="M 251.37907,186.04245 C 249.08124,192.43083 254.89557,199.32432 248.50718,203.27377 C 240.6115,203.27537 250.6623,187.83838 251.37907,186.04245 L 251.37907,186.04245 z "
     style="fill:#fff200;fill-rule:evenodd"
     id="path99" /><path
     d="M 262.57638,190.63811 C 264.29855,189.63271 266.38151,187.9827 267.81826,186.54435 C 268.7515,188.55515 261.7153,201.83702 257.98393,198.17621 C 256.26176,196.38188 257.98393,195.44864 257.98393,194.94353 C 258.05448,194.22676 261.78585,191.21056 262.57638,190.63811 L 262.57638,190.63811 z "
     style="fill:#fff200;fill-rule:evenodd"
     id="path101" /><polygon
     points="14.628,121.006 14.046,120.826 13.733,120.469 13.375,120.289 13.196,119.752 12.659,119.395 12.479,118.99 12.077,118.498 11.897,117.961 11.897,117.602 12.659,117.066 12.659,117.244 13.017,117.244 13.196,117.244 13.554,117.244 13.733,117.244 14.046,117.244 14.404,117.244 14.808,117.244 15.523,117.424 15.523,117.602 15.702,117.602 15.882,117.602 15.882,117.781 16.061,117.781 16.239,117.961 16.374,117.961 16.374,118.318 16.061,118.678 15.882,118.99 15.702,119.395 15.523,119.752 15.344,120.289 15.166,120.469 14.986,120.826 14.808,121.006 14.628,121.006 "
     transform="matrix(1.6035101,0,0,1.6035101,-17.125488,-4.5459511)"
     style="fill:#d2ab67;fill-rule:evenodd"
     id="polygon103" /><path
     d="M 261.28556,188.62731 C 255.25476,186.18516 264.51503,175.77357 266.95396,170.74817 C 266.95396,175.99004 266.95396,190.85298 261.28556,188.62731 L 261.28556,188.62731 z "
     style="fill:#fff200;fill-rule:evenodd"
     id="path105" /><path
     d="M 32.099065,196.16541 C 32.099065,196.16541 29.371494,198.17621 30.734478,200.47564 C 32.099065,202.70292 32.671518,201.62536 34.754478,202.98674 C 36.906388,204.42349 32.241777,206.86403 34.754478,208.94699 C 37.337733,210.95779 37.626364,205.93078 38.989348,207.00834 C 39.779878,207.22321 31.525008,196.38188 32.099065,196.16541 L 32.099065,196.16541 z "
     style="fill:#2ca02c;fill-rule:evenodd"
     id="path107" /><polygon
     points="100.617,181.951 108.54,185.174 105.004,185.756 99.454,182.801 100.617,181.951 "
     transform="matrix(1.6035101,0,0,1.6035101,-17.125488,-4.5459511)"
     style="fill:#2ca02c;fill-rule:evenodd"
     id="polygon109" /><polygon
     points="85.309,186.07 96.723,180.158 97.753,180.875 88.845,186.383 85.309,186.07 "
     transform="matrix(1.6035101,0,0,1.6035101,-17.125488,-4.5459511)"
     style="fill:#fff200;fill-rule:evenodd"
     id="polygon111" /><polygon
     points="79.982,184.771 90.143,180.203 91.173,180.338 82.802,184.906 81.325,184.906 79.982,184.771 "
     transform="matrix(1.6035101,0,0,1.6035101,-17.125488,-4.5459511)"
     style="fill:#fff200;fill-rule:evenodd"
     id="polygon113" /><polygon
     points="105.631,180.473 112.658,183.428 114.404,182.666 106.034,179.891 105.631,180.473 "
     transform="matrix(1.6035101,0,0,1.6035101,-17.125488,-4.5459511)"
     style="fill:#2ca02c;fill-rule:evenodd"
     id="polygon115" /><polygon
     points="123.088,176.666 143.679,175.01 141.799,178.859 125.64,178.547 123.088,176.666 "
     transform="matrix(1.6035101,0,0,1.6035101,-17.125488,-4.5459511)"
     style="fill:#2ca02c;fill-rule:evenodd;stroke:#000000;stroke-width:0.13470449;stroke-miterlimit:2.61310005"
     id="polygon117" /><polygon
     points="131.593,184.771 105.406,177.248 106.66,176.084 132.713,180.203 131.593,184.771 "
     transform="matrix(1.6035101,0,0,1.6035101,-17.125488,-4.5459511)"
     style="fill:#2ca02c;fill-rule:evenodd;stroke:#000000;stroke-width:0.13470449;stroke-miterlimit:2.61310005"
     id="polygon119" /><path
     d="M 95.76483,279.17271 C 95.76483,279.17271 97.560761,282.40218 97.631316,283.05 C 97.703474,283.62245 98.707271,287.28487 102.15321,285.99404 C 106.74727,284.26867 104.16241,281.97244 101.07566,281.25246 C 95.76483,279.96164 95.76483,279.17271 95.76483,279.17271"
     style="fill:none;stroke:#000000;stroke-width:0.21600001;stroke-miterlimit:2.61310005"
     id="path121" /><path
     d="M 137.25405,253.10605 C 206.94901,253.10605 263.79826,196.23757 263.79826,126.5891 C 263.79826,56.868486 206.95062,3.35e-008 137.25405,3.35e-008 C 67.629642,3.35e-008 10.780398,56.868486 10.780398,126.5891 C 10.780398,196.23757 67.628038,253.10605 137.25405,253.10605 L 137.25405,253.10605 z "
     style="fill:#ffcb05;fill-opacity:1;fill-rule:evenodd;stroke:none;stroke-width:0.21600001;stroke-miterlimit:2.61310005"
     id="path123" /><path
     d="M 254.89717,184.96649 C 254.96933,184.6057 257.76746,178.5749 256.83582,182.38003 C 256.83582,184.03004 258.98933,194.73187 255.25636,196.0227 C 252.38608,196.95915 252.81742,191.85998 253.24716,190.71027 C 253.74746,189.1276 254.46583,186.68866 254.89717,184.96649 L 254.89717,184.96649 z "
     style="fill:#fff200;fill-rule:evenodd"
     id="path125" /><path
     d="M 137.25405,244.34608 C 202.14009,244.34608 255.04149,191.35488 255.04149,126.5891 C 255.04149,61.679016 202.14169,8.7599757 137.25405,8.7599757 C 72.510727,8.7599757 19.537167,61.677413 19.537167,126.5891 C 19.537167,191.35488 72.509123,244.34608 137.25405,244.34608 L 137.25405,244.34608 z "
     style="fill:#0092c7;fill-opacity:1;fill-rule:evenodd;stroke:none;stroke-width:0.21600001;stroke-miterlimit:2.61310005"
     id="path127" /><path
     d="M 137.25405,227.0426 C 192.59279,227.0426 237.74122,181.80598 237.74122,126.51855 C 237.74122,71.157364 192.59279,25.992899 137.25405,25.992899 C 81.985868,25.992899 36.765279,71.157364 36.765279,126.51855 C 36.763676,181.80598 81.985868,227.0426 137.25405,227.0426 L 137.25405,227.0426 z "
     style="fill:#ea0437;fill-opacity:1;fill-rule:evenodd;stroke:none;stroke-width:0.21600001;stroke-miterlimit:2.61310005"
     id="path129" /><path
     d="M 137.25405,207.5808 C 181.89898,207.5808 218.29064,171.17951 218.29064,126.5891 C 218.29064,81.926538 181.90058,45.522048 137.25405,45.522048 C 92.679677,45.522048 56.288015,81.926538 56.288015,126.5891 C 56.288015,171.17951 92.679677,207.5808 137.25405,207.5808 L 137.25405,207.5808 z "
     style="fill:#00ae68;fill-opacity:1;fill-rule:evenodd;stroke:none;stroke-width:0.21600001;stroke-miterlimit:2.61310005"
     id="path131" /><polygon
     points="111.271,116.707 147.126,131.484 132.847,95.751 168.881,81.019 132.354,65.928 147.215,30.194 111.539,44.703 96.007,8.924 80.474,44.703 44.798,30.194 59.66,65.973 23.939,81.019 59.167,95.751 44.888,131.484 80.743,116.707 96.007,155.352 111.271,116.707 "
     transform="matrix(1.6035101,0,0,1.6035101,-17.125488,-4.5459511)"
     style="fill:#ffcb05;fill-opacity:1;fill-rule:evenodd"
     id="polygon133" /><polygon
     points="96.007,147.783 109.704,113.08 142.112,126.424 129.266,94.229 161.584,81.019 128.729,67.451 142.112,35.254 110.063,48.285 96.007,15.91 81.952,48.285 49.901,35.254 63.286,67.451 31.101,81.019 62.748,94.229 49.901,126.424 82.31,113.08 96.007,147.783 "
     transform="matrix(1.6035101,0,0,1.6035101,-17.125488,-4.5459511)"
     style="fill:#ffffff;fill-rule:evenodd"
     id="polygon135" /><path
     d="M 149.31245,161.05335 C 148.59407,162.34738 145.3646,166.29683 143.64083,166.29683 C 142.42056,166.29683 139.76515,166.36578 139.12054,165.72117 C 137.54108,165.72117 138.83351,164.64361 136.82431,164.64361 C 131.51188,168.52089 125.84187,166.79872 121.607,161.77172 C 119.74051,159.90523 116.72591,154.80607 116.51104,152.22282 C 116.44049,151.50605 113.13726,140.66311 113.13726,138.93934 C 113.0651,139.58555 112.34833,151.93419 113.99834,151.93419 C 103.83579,140.69953 109.93608,119.92247 117.0835,108.99539 C 116.36512,119.11995 116.50944,129.17236 118.80567,139.22476 C 118.80567,141.88178 122.32216,152.43769 124.1181,152.43769 C 124.1181,153.15446 126.70295,153.5874 126.70295,151.64876 C 126.70295,149.5658 126.55864,148.91959 125.84027,146.83823 C 122.49149,141.03653 120.11018,134.3843 119.66836,127.66666 C 118.92727,116.3989 121.17565,98.011348 128.6416,89.251372 C 130.29161,87.097858 130.50648,85.590559 130.07674,88.964344 C 130.07674,97.365133 132.01378,106.76972 133.16189,114.95564 C 134.38216,121.13076 135.81731,121.84913 137.10973,127.37803 C 137.54108,130.75182 137.54108,134.34208 137.10973,137.78962 C 136.46352,143.24637 135.17269,148.99174 135.17269,154.44849 C 136.24865,156.67256 135.17269,157.24822 137.97242,157.24822 C 140.84431,157.24822 141.99082,147.76987 141.3446,145.40149 C 141.3446,139.94474 140.91486,131.54235 138.54648,126.80237 C 137.82811,125.22452 136.25025,120.48454 135.74835,118.90508 C 135.10214,116.82373 134.74295,114.95564 134.59864,114.09455 C 132.51728,103.96999 131.36917,88.675712 135.74835,79.054651 C 136.1781,77.83438 136.39297,76.181161 137.11134,75.105206 C 137.11134,77.83438 136.46512,80.850583 137.68379,83.289522 C 137.68379,89.823825 150.46056,115.67401 151.68083,120.77157 C 151.68083,120.84373 153.18813,125.0802 153.47516,126.80237 C 154.19353,134.27152 154.48056,142.74287 153.47516,149.92338 C 153.11597,152.86743 150.96246,158.03875 149.31245,161.05335 L 149.31245,161.05335 z "
     style="fill:#ea0437;fill-opacity:1;fill-rule:evenodd"
     id="path137" /><path
     d="M 150.02922,160.98279 C 151.32164,159.61981 154.6344,151.93567 155.19733,147.69932 C 156.1417,140.59244 157.07469,133.12718 156.06002,126.22992 C 155.24683,120.70224 153.27539,115.26844 150.96246,110.14671 C 149.17709,106.19322 144.64623,96.43189 144.71679,87.240571 C 146.08137,88.605158 146.84485,90.773235 147.58867,92.051101 C 150.64838,97.307538 155.10107,102.33207 158.28248,107.56025 C 161.13027,112.24016 165.62943,119.98132 165.89114,125.36723 C 167.24365,139.76528 160.99876,152.5225 150.09977,161.77012 L 150.02922,160.98279 L 150.02922,160.98279 z "
     style="fill:#ea0437;fill-opacity:1;fill-rule:evenodd"
     id="path139" /><path
     d="M 94.905349,223.59345 C 96.986705,223.59345 98.708875,225.31562 98.708875,227.32642 C 98.708875,229.41259 96.986705,231.13476 94.905349,231.13476 C 92.822389,231.13476 91.172377,229.41259 91.172377,227.32642 C 91.172377,225.31722 92.822389,223.59345 94.905349,223.59345 L 94.905349,223.59345 z "
     style="fill:#ffcb05;fill-rule:evenodd"
     id="path143" /><path
     d="M 175.79762,225.24827 C 177.23276,223.73937 179.60115,223.73937 181.10845,225.24827 C 182.54519,226.68341 182.54519,229.0534 181.10845,230.5607 C 179.60275,231.99744 177.23276,231.99744 175.79762,230.5607 C 174.29032,229.0534 174.29032,226.68181 175.79762,225.24827 L 175.79762,225.24827 z "
     style="fill:#ffcb05;fill-rule:evenodd"
     id="path147" /><path
     d="M 234.15256,169.16871 C 234.15256,167.08575 235.80257,165.36358 237.88553,165.36358 C 239.96689,165.36358 241.68906,167.08575 241.68906,169.16871 C 241.68906,171.17951 239.96689,172.90168 237.88553,172.90168 C 235.80257,172.90168 234.15256,171.17951 234.15256,169.16871 L 234.15256,169.16871 z "
     style="fill:#ffcb05;fill-rule:evenodd"
     id="path151" /><path
     d="M 235.73202,88.245971 C 234.29527,86.809226 234.29527,84.439238 235.73202,82.931939 C 237.23772,81.495194 239.6077,81.495194 241.04445,82.931939 C 242.55014,84.439238 242.55014,86.809226 241.04445,88.245971 C 239.6077,89.753271 237.23932,89.753271 235.73202,88.245971 L 235.73202,88.245971 z "
     style="fill:#ffcb05;fill-rule:evenodd"
     id="path155" /><path
     d="M 179.67331,29.870186 C 177.59035,29.870186 175.94034,28.218571 175.94034,26.135611 C 175.94034,24.052652 177.59035,22.328878 179.67331,22.328878 C 181.75466,22.328878 183.47683,24.052652 183.47683,26.135611 C 183.47683,28.218571 181.75466,29.870186 179.67331,29.870186 L 179.67331,29.870186 z "
     style="fill:#ffcb05;fill-rule:evenodd"
     id="path159" /><path
     d="M 98.853191,28.290729 C 97.416445,29.727474 94.977507,29.727474 93.540762,28.290729 C 92.033462,26.783429 92.033462,24.413441 93.540762,22.976696 C 94.975903,21.469397 97.416445,21.469397 98.853191,22.976696 C 100.28833,24.413441 100.28833,26.781826 98.853191,28.290729 L 98.853191,28.290729 z "
     style="fill:#ffcb05;fill-rule:evenodd"
     id="path163" /><path
     d="M 40.496647,84.368684 C 40.496647,86.451644 38.774478,88.103259 36.763676,88.103259 C 34.68232,88.103259 32.958546,86.451644 32.958546,84.368684 C 32.958546,82.287328 34.68232,80.563554 36.763676,80.563554 C 38.774478,80.563554 40.496647,82.285724 40.496647,84.368684 L 40.496647,84.368684 z "
     style="fill:#ffcb05;fill-rule:evenodd"
     id="path167" /><path
     d="M 38.846636,165.21927 C 40.353935,166.65441 40.353935,169.09655 38.846636,170.5317 C 37.409891,172.0406 35.041506,172.0406 33.534207,170.5317 C 32.099065,169.09655 32.099065,166.65441 33.534207,165.21927 C 35.041506,163.71036 37.409891,163.71036 38.846636,165.21927 L 38.846636,165.21927 z "
     style="fill:#ffcb05;fill-rule:evenodd"
     id="path171" /><path
     d="M 41.21502,244.49039 L 41.287178,250.59495 C 41.287178,250.59495 33.678522,250.5228 33.53581,248.36768 C 33.319336,246.1404 37.267178,244.70526 41.21502,244.49039 L 41.21502,244.49039 z "
     style="fill:#d2ab67;fill-rule:evenodd"
     id="path173" /><path
     d="M 59.230456,278.95624 L 65.044784,282.18891 C 65.044784,282.18891 61.815314,288.29027 59.6618,287.5719 C 57.580444,286.85513 57.867472,282.68921 59.230456,278.95624 L 59.230456,278.95624 z "
     style="fill:#d2ab67;fill-rule:evenodd"
     id="path175" /><path
     d="M 142.06137,260.64415 L 138.18569,256.12225 C 138.18569,256.12225 142.77975,252.02849 144.28705,253.25037 C 145.8649,254.5428 144.3592,257.91658 142.06137,260.64415 L 142.06137,260.64415 z "
     style="fill:#d2ab67;fill-rule:evenodd"
     id="path177" /><path
     d="M 109.18781,281.11136 L 114.35593,285.27407 C 114.35593,285.27407 110.19321,290.73242 108.25457,289.65486 C 106.24537,288.64946 107.24917,284.5557 109.18781,281.11136 L 109.18781,281.11136 z "
     style="fill:#d2ab67;fill-rule:evenodd"
     id="path179" /><path
     d="M 197.83306,267.89683 C 197.83306,267.89683 210.3228,266.03034 215.99281,263.23061 M 203.2882,262.00874 C 203.2882,262.00874 216.8539,258.42008 223.45715,253.89338"
     style="fill:none;stroke:#000000;stroke-width:2.01600003;stroke-linecap:round;stroke-miterlimit:2.61310005"
     id="path181" /><path
     d="M 220.44255,247.1458 C 220.44255,247.1458 230.34904,243.12741 236.95229,238.6023 M 231.49715,239.46339 C 231.49715,239.46339 238.88933,235.44178 245.49419,230.91989 M 239.39283,232.13855 C 239.39283,232.13855 246.42743,229.5553 252.59934,223.16531 M 245.34987,220.14911 C 246.1404,219.50129 248.07744,218.85508 251.09365,214.18886"
     style="fill:none;stroke:#000000;stroke-width:1.80000007;stroke-linecap:round;stroke-miterlimit:2.61310005"
     id="path183" /><path
     d="M 234.29688,211.74672 C 235.08581,211.1021 237.02445,210.45589 240.03905,205.78647 M 235.73202,212.1059 C 236.52095,211.46129 238.45799,210.81187 241.47419,206.14565 M 236.66366,213.03914 C 237.45259,212.39453 239.39123,211.74511 242.40583,207.0789"
     style="fill:none;stroke:#000000;stroke-width:1.00800002;stroke-linecap:round;stroke-miterlimit:2.61310005"
     id="path185" /><path
     d="M 223.31444,251.09525 C 223.31444,251.09525 226.83094,250.08985 233.43579,246.1404"
     style="fill:none;stroke:#000000;stroke-width:1.80000007;stroke-linecap:round;stroke-miterlimit:2.61310005"
     id="path187" /></svg>