<?xml version="1.0" encoding="UTF-8" standalone="no"?>
<!-- Creator: CorelDRAW -->

<svg
   xmlns:dc="http://purl.org/dc/elements/1.1/"
   xmlns:cc="http://creativecommons.org/ns#"
   xmlns:rdf="http://www.w3.org/1999/02/22-rdf-syntax-ns#"
   xmlns:svg="http://www.w3.org/2000/svg"
   xmlns="http://www.w3.org/2000/svg"
   xmlns:sodipodi="http://sodipodi.sourceforge.net/DTD/sodipodi-0.dtd"
   xmlns:inkscape="http://www.inkscape.org/namespaces/inkscape"
   xml:space="preserve"
   width="420"
   height="450"
   viewBox="-2002 0 4004 2004"
   id="Emblem_of_the_League_of_Arab_States"
   sodipodi:version="0.32"
   inkscape:version="0.47 r22583"
   sodipodi:docname="Z2Z.svg"
   version="1.0"
   inkscape:output_extension="org.inkscape.output.svg.inkscape"><metadata
     id="metadata1863"><rdf:RDF><cc:Work
         rdf:about=""><dc:format>image/svg+xml</dc:format><dc:type
           rdf:resource="http://purl.org/dc/dcmitype/StillImage" /></cc:Work></rdf:RDF></metadata><sodipodi:namedview
     inkscape:window-height="1004"
     inkscape:window-width="1280"
     inkscape:pageshadow="2"
     inkscape:pageopacity="0.0"
     borderopacity="1.0"
     bordercolor="#666666"
     pagecolor="#ffffff"
     id="base"
     inkscape:zoom="1.8"
     inkscape:cx="277.7717"
     inkscape:cy="124.6022"
     inkscape:window-x="-8"
     inkscape:window-y="-8"
     inkscape:current-layer="Emblem_of_the_League_of_Arab_States"
     showborder="true"
     showguides="true"
     inkscape:guide-bbox="false"
     inkscape:grid-points="false"
     inkscape:object-nodes="false"
     inkscape:guide-points="false"
     gridtolerance="7.5"
     objecttolerance="5.9"
     guidetolerance="8"
     inkscape:grid-bbox="false"
     inkscape:object-paths="false"
     width="437px"
     height="480px"
     showgrid="false"
     inkscape:window-maximized="1" /><defs
     id="defs1709"><inkscape:perspective
   sodipodi:type="inkscape:persp3d"
   inkscape:vp_x="0 : 238.66231 : 1"
   inkscape:vp_y="0 : 1000 : 0"
   inkscape:vp_z="434.53555 : 238.66231 : 1"
   inkscape:persp3d-origin="217.26778 : 159.10821 : 1"
   id="perspective202" />
  <style
   type="text/css"
   id="style1711">
   
    .str2 {stroke:#000000;stroke-width:3}
    .str1 {stroke:#F8C83E;stroke-width:3}
    .str0 {stroke:#000000;stroke-width:3}
    .fil2 {fill:#FFFFFF}
    .fil0 {fill:#006D58}
    .fil1 {fill:#F8C83E}
   
  </style>
 
  
  
  
  
  
  
  
 
 
  
  
  
  
  
  
  
 <style
   id="style2633"
   type="text/css">
   
    .str2 {stroke:#000000;stroke-width:3}
    .str1 {stroke:#F8C83E;stroke-width:3}
    .str0 {stroke:#000000;stroke-width:3}
    .fil2 {fill:#FFFFFF}
    .fil0 {fill:#006D58}
    .fil1 {fill:#F8C83E}
   
  </style>
  
   
   
   
   
   
   
   
   
   
   
   
   
   
   
   
   
   
   
   
   
  
   
   
   
   
   
   
   
   
   
   
   
   
   
   
   
   
   
   
   
   
  </defs><g
     id="g13474"
     transform="matrix(2.9201309,0,0,2.8478461,-3.2718489e-8,-10835.955)"><path
       sodipodi:nodetypes="cccccccccccccccccccccc"
       id="path13472"
       d="M -368.68142,3681.5347 L 2.3759218,3490.4513 L 360.10186,3679.3128 L 580.06999,3885.9495 L 624.50799,4117.0271 L 582.78476,4294.4634 L 522.34683,4476.2317 L 300.11055,4703.6088 L 331.21716,4761.3782 L 233.45355,4890.2484 L 51.257727,4848.0323 L 2.3759218,4816.9257 L -230.9236,4894.6922 L -246.47691,4870.2513 L -342.01862,4752.4906 L -353.12812,4668.0584 L -524.21444,4470.3093 L -588.64954,4301.4449 L -624.19995,4112.5833 L -577.54004,3899.2809 L -495.32973,3797.0735 L -368.68142,3681.5347 z"
       style="fill:#ffffff;fill-rule:evenodd;stroke:none;stroke-width:1px;stroke-linecap:butt;stroke-linejoin:miter;stroke-opacity:1" /><g
       transform="translate(0,3154.8104)"
       id="g10679"><path
         sodipodi:type="arc"
         style="opacity:1;fill:none;fill-opacity:1;fill-rule:evenodd;stroke:#000000;stroke-width:6.47934055;stroke-linecap:round;stroke-linejoin:round;marker:none;marker-start:none;marker-mid:none;marker-end:none;stroke-miterlimit:4;stroke-dasharray:none;stroke-dashoffset:0;stroke-opacity:1;visibility:visible;display:inline;overflow:visible;enable-background:accumulate"
         id="path10681"
         sodipodi:cx="-1223.153"
         sodipodi:cy="1006.3383"
         sodipodi:rx="469.76511"
         sodipodi:ry="466.62286"
         d="m -753.38785,1006.3383 c 0,257.7087 -210.321,466.6229 -469.76515,466.6229 -259.4441,0 -469.7651,-208.9142 -469.7651,-466.6229 0,-257.70867 210.321,-466.62285 469.7651,-466.62285 259.44415,0 469.76515,208.91418 469.76515,466.62285 z"
         transform="matrix(0.9871386,0,0,0.9937859,1208.1716,7.8246444)" /><path
         inkscape:transform-center-y="115.62701"
         id="path10683"
         d="M -40.498001,1471.1963 C -40.463322,1461.8245 -32.890708,1454.3078 -23.519048,1454.3425 L 21.715713,1454.5099 C 31.087374,1454.5446 38.60415,1462.1171 38.56947,1471.4889 C 38.534791,1480.8605 30.962178,1488.3772 21.590517,1488.3426 L -23.644244,1488.1752 C -33.015904,1488.1405 -40.53268,1480.5679 -40.498001,1471.1963 z"
         style="fill:#e8111c;fill-opacity:1;fill-rule:evenodd;stroke:#000000;stroke-width:6.01200008;stroke-linecap:round;stroke-linejoin:round;marker:none;marker-start:none;marker-mid:none;marker-end:none;stroke-miterlimit:4;stroke-dashoffset:0;stroke-opacity:1;visibility:visible;display:inline;overflow:visible;enable-background:accumulate" /><g
         style="fill:#188400;fill-opacity:1;stroke:#000000;stroke-width:8.01200199;stroke-miterlimit:4;stroke-dasharray:none;stroke-opacity:1"
         transform="matrix(1.000499,0,0,1.000499,0,4.791172)"
         id="g10685">
   <path
   id="path10687"
   class="fil2 str2"
   d="M -29,384 C -42,310 -151,305 -168,293 C -188,280 -185,293 -178,313 C -158,365 -90,386 -59,392 C -34,396 -26,398 -29,384 z"
   style="fill:#188400;fill-opacity:1;stroke:#000000;stroke-width:8.01200199;stroke-miterlimit:4;stroke-dasharray:none;stroke-opacity:1" />
   <path
   id="path10689"
   class="fil2 str2"
   d="M 4,386 C 15,310 -93,274 -106,257 C -121,239 -123,250 -116,271 C -103,316 -56,369 -28,383 C -5,395 2,400 4,386 z"
   style="fill:#188400;fill-opacity:1;stroke:#000000;stroke-width:8.01200199;stroke-miterlimit:4;stroke-dasharray:none;stroke-opacity:1" />
   <path
   id="path10691"
   class="fil2 str2"
   d="M 93,430 C 103,339 15,325 -8,296 C -23,278 -24,288 -19,309 C -9,355 35,409 62,426 C 83,439 92,444 93,430 z"
   style="fill:#188400;fill-opacity:1;stroke:#000000;stroke-width:8.01200199;stroke-miterlimit:4;stroke-dasharray:none;stroke-opacity:1" />
   <path
   id="path10693"
   class="fil2 str2"
   d="M 66,410 C -25,351 -89,384 -115,381 C -140,378 -148,394 -105,418 C -52,447 22,443 51,432 C 81,420 72,414 66,410 z"
   style="fill:#188400;fill-opacity:1;stroke:#000000;stroke-width:8.01200199;stroke-miterlimit:4;stroke-dasharray:none;stroke-opacity:1" />
   <path
   id="path10695"
   class="fil2 str2"
   d="M 203,450 C 175,352 110,368 91,356 C 72,344 70,347 74,369 C 82,408 149,451 182,464 C 194,468 209,474 203,450 z"
   style="fill:#188400;fill-opacity:1;stroke:#000000;stroke-width:8.01200199;stroke-miterlimit:4;stroke-dasharray:none;stroke-opacity:1" />
   <path
   id="path10697"
   class="fil2 str2"
   d="M 190,467 C 112,404 51,451 27,444 C 9,439 17,451 24,456 C 74,491 136,510 184,488 C 203,480 204,478 190,467 z"
   style="fill:#188400;fill-opacity:1;stroke:#000000;stroke-width:8.01200199;stroke-miterlimit:4;stroke-dasharray:none;stroke-opacity:1" />
   <path
   id="path10699"
   class="fil2 str2"
   d="M 359,531 C 360,469 232,443 205,405 C 189,382 175,394 183,431 C 195,479 283,532 331,542 C 360,548 359,538 359,531 z"
   style="fill:#188400;fill-opacity:1;stroke:#000000;stroke-width:8.01200199;stroke-miterlimit:4;stroke-dasharray:none;stroke-opacity:1" />
   <path
   id="path10701"
   class="fil2 str2"
   d="M 355,542 C 274,469 206,493 181,486 C 156,480 146,495 185,525 C 233,561 307,568 338,561 C 369,554 361,547 355,542 z"
   style="fill:#188400;fill-opacity:1;stroke:#000000;stroke-width:8.01200199;stroke-miterlimit:4;stroke-dasharray:none;stroke-opacity:1" />
   <path
   id="path10703"
   class="fil2 str2"
   d="M 500,649 C 477,543 404,521 386,501 C 369,481 351,487 366,535 C 384,592 443,642 474,654 C 504,667 502,657 500,649 z"
   style="fill:#188400;fill-opacity:1;stroke:#000000;stroke-width:8.01200199;stroke-miterlimit:4;stroke-dasharray:none;stroke-opacity:1" />
   <path
   id="path10705"
   class="fil2 str2"
   d="M 499,663 C 440,568 363,571 339,558 C 316,544 300,556 331,597 C 367,647 441,675 475,677 C 509,679 503,670 499,663 z"
   style="fill:#188400;fill-opacity:1;stroke:#000000;stroke-width:8.01200199;stroke-miterlimit:4;stroke-dasharray:none;stroke-opacity:1" />
   <path
   id="path10707"
   class="fil2 str2"
   d="M 575,776 C 609,668 531,628 523,610 C 514,592 505,592 500,611 C 478,688 549,763 560,778 C 571,792 573,785 575,776 z"
   style="fill:#188400;fill-opacity:1;stroke:#000000;stroke-width:8.01200199;stroke-miterlimit:4;stroke-dasharray:none;stroke-opacity:1" />
   <path
   id="path10709"
   class="fil2 str2"
   d="M 559,806 C 532,685 461,692 445,675 C 428,658 426,670 429,692 C 437,751 508,791 540,811 C 550,817 562,824 559,806 z"
   style="fill:#188400;fill-opacity:1;stroke:#000000;stroke-width:8.01200199;stroke-miterlimit:4;stroke-dasharray:none;stroke-opacity:1" />
   <path
   id="path10711"
   class="fil2 str2"
   d="M 627,948 C 676,834 618,757 600,740 C 582,724 571,717 577,740 C 585,775 557,865 600,931 C 614,953 616,974 627,948 z"
   style="fill:#188400;fill-opacity:1;stroke:#000000;stroke-width:8.01200199;stroke-miterlimit:4;stroke-dasharray:none;stroke-opacity:1" />
   <path
   id="path10713"
   class="fil2 str2"
   d="M 601,971 C 612,901 572,837 529,812 C 504,797 503,801 503,822 C 505,887 566,941 584,971 C 601,999 600,978 601,971 z"
   style="fill:#188400;fill-opacity:1;stroke:#000000;stroke-width:8.01200199;stroke-miterlimit:4;stroke-dasharray:none;stroke-opacity:1" />
   <path
   id="path10715"
   class="fil2 str2"
   d="M 590,1153 C 554,1021 629,945 652,930 C 674,914 688,908 678,933 C 663,970 679,1073 622,1138 C 604,1160 597,1183 590,1153 z"
   style="fill:#188400;fill-opacity:1;stroke:#000000;stroke-width:8.01200199;stroke-miterlimit:4;stroke-dasharray:none;stroke-opacity:1" />
   <path
   id="path10717"
   class="fil2 str2"
   d="M 598,1124 C 628,1009 563,944 543,931 C 524,918 512,913 521,934 C 533,966 520,1056 570,1112 C 586,1131 592,1150 598,1124 z"
   style="fill:#188400;fill-opacity:1;stroke:#000000;stroke-width:8.01200199;stroke-miterlimit:4;stroke-dasharray:none;stroke-opacity:1" />
   <path
   id="path10719"
   class="fil2 str2"
   d="M 561,1070 C 507,1128 506,1213 530,1263 C 545,1292 547,1290 561,1269 C 599,1208 576,1120 578,1081 C 579,1044 567,1064 561,1070 z"
   style="fill:#188400;fill-opacity:1;stroke:#000000;stroke-width:8.01200199;stroke-miterlimit:4;stroke-dasharray:none;stroke-opacity:1" />
   <path
   id="path10721"
   class="fil2 str2"
   d="M 650,1162 C 650,1242 601,1307 549,1327 C 519,1338 519,1335 523,1311 C 537,1221 606,1188 631,1159 C 655,1131 650,1154 650,1162 z"
   style="fill:#188400;fill-opacity:1;stroke:#000000;stroke-width:8.01200199;stroke-miterlimit:4;stroke-dasharray:none;stroke-opacity:1" />
   <path
   id="path10723"
   class="fil2 str2"
   d="M 464,1400 C 552,1320 505,1264 509,1212 C 511,1184 500,1191 490,1201 C 434,1256 431,1354 443,1392 C 448,1409 456,1407 464,1400 z"
   style="fill:#188400;fill-opacity:1;stroke:#000000;stroke-width:8.01200199;stroke-miterlimit:4;stroke-dasharray:none;stroke-opacity:1" />
   <path
   id="path10725"
   class="fil2 str2"
   d="M 582,1348 C 553,1436 476,1490 411,1493 C 373,1495 374,1492 387,1466 C 436,1372 523,1361 562,1337 C 598,1315 585,1339 582,1348 z"
   style="fill:#188400;fill-opacity:1;stroke:#000000;stroke-width:8.01200199;stroke-miterlimit:4;stroke-dasharray:none;stroke-opacity:1" />
   <path
   id="path10727"
   class="fil2 str2"
   d="M 343,1513 C 457,1456 434,1361 455,1337 C 470,1320 452,1322 443,1328 C 376,1367 322,1429 321,1495 C 321,1520 323,1523 343,1513 z"
   style="fill:#188400;fill-opacity:1;stroke:#000000;stroke-width:8.01200199;stroke-miterlimit:4;stroke-dasharray:none;stroke-opacity:1" />
   <path
   id="path10729"
   class="fil2 str2"
   d="M 187,1619 C 331,1642 398,1533 440,1523 C 462,1518 446,1509 435,1508 C 339,1497 217,1542 180,1592 C 165,1612 165,1616 187,1619 z"
   style="fill:#188400;fill-opacity:1;stroke:#000000;stroke-width:8.01200199;stroke-miterlimit:4;stroke-dasharray:none;stroke-opacity:1" />
   <path
   id="path10731"
   class="fil2 str2"
   d="M 333,1448 C 304,1543 196,1621 115,1627 C 77,1630 77,1626 91,1601 C 156,1483 269,1463 309,1433 C 343,1407 336,1439 333,1448 z"
   style="fill:#188400;fill-opacity:1;stroke:#000000;stroke-width:8.01200199;stroke-miterlimit:4;stroke-dasharray:none;stroke-opacity:1" />
   <path
   id="path10733"
   class="fil2 str2"
   d="M 29,384 C 42,310 151,305 168,293 C 188,280 185,293 178,313 C 158,365 90,386 59,392 C 34,396 26,398 29,384 z"
   style="fill:#188400;fill-opacity:1;stroke:#000000;stroke-width:8.01200199;stroke-miterlimit:4;stroke-dasharray:none;stroke-opacity:1" />
   <path
   id="path10735"
   class="fil2 str2"
   d="M -4,386 C -15,310 93,274 106,257 C 121,239 123,250 116,271 C 103,316 56,369 28,383 C 5,395 -2,400 -4,386 z"
   style="fill:#188400;fill-opacity:1;stroke:#000000;stroke-width:8.01200199;stroke-miterlimit:4;stroke-dasharray:none;stroke-opacity:1" />
   <path
   id="path10737"
   class="fil2 str2"
   d="M -93,430 C -103,339 -15,325 8,296 C 23,278 24,288 19,309 C 9,355 -35,409 -62,426 C -83,439 -92,444 -93,430 z"
   style="fill:#188400;fill-opacity:1;stroke:#000000;stroke-width:8.01200199;stroke-miterlimit:4;stroke-dasharray:none;stroke-opacity:1" />
   <path
   id="path10739"
   class="fil2 str2"
   d="M -66,410 C 25,351 89,384 115,381 C 140,378 148,394 105,418 C 52,447 -22,443 -51,432 C -81,420 -72,414 -66,410 z"
   style="fill:#188400;fill-opacity:1;stroke:#000000;stroke-width:8.01200199;stroke-miterlimit:4;stroke-dasharray:none;stroke-opacity:1" />
   <path
   id="path10741"
   class="fil2 str2"
   d="M -203,450 C -175,352 -110,368 -91,356 C -72,344 -70,347 -74,369 C -82,408 -149,451 -182,464 C -194,468 -209,474 -203,450 z"
   style="fill:#188400;fill-opacity:1;stroke:#000000;stroke-width:8.01200199;stroke-miterlimit:4;stroke-dasharray:none;stroke-opacity:1" />
   <path
   id="path10743"
   class="fil2 str2"
   d="M -190,467 C -112,404 -51,451 -27,444 C -9,439 -17,451 -24,456 C -74,491 -136,510 -184,488 C -203,480 -204,478 -190,467 z"
   style="fill:#188400;fill-opacity:1;stroke:#000000;stroke-width:8.01200199;stroke-miterlimit:4;stroke-dasharray:none;stroke-opacity:1" />
   <path
   id="path10745"
   class="fil2 str2"
   d="M -359,531 C -360,469 -232,443 -205,405 C -189,382 -175,394 -183,431 C -195,479 -283,532 -331,542 C -360,548 -359,538 -359,531 z"
   style="fill:#188400;fill-opacity:1;stroke:#000000;stroke-width:8.01200199;stroke-miterlimit:4;stroke-dasharray:none;stroke-opacity:1" />
   <path
   id="path10747"
   class="fil2 str2"
   d="M -355,542 C -274,469 -206,493 -181,486 C -156,480 -146,495 -185,525 C -233,561 -307,568 -338,561 C -369,554 -361,547 -355,542 z"
   style="fill:#188400;fill-opacity:1;stroke:#000000;stroke-width:8.01200199;stroke-miterlimit:4;stroke-dasharray:none;stroke-opacity:1" />
   <path
   id="path10749"
   class="fil2 str2"
   d="M -500,649 C -477,543 -404,521 -386,501 C -369,481 -351,487 -366,535 C -384,592 -443,642 -474,654 C -504,667 -502,657 -500,649 z"
   style="fill:#188400;fill-opacity:1;stroke:#000000;stroke-width:8.01200199;stroke-miterlimit:4;stroke-dasharray:none;stroke-opacity:1" />
   <path
   id="path10751"
   class="fil2 str2"
   d="M -499,663 C -440,568 -363,571 -339,558 C -316,544 -300,556 -331,597 C -367,647 -441,675 -475,677 C -509,679 -503,670 -499,663 z"
   style="fill:#188400;fill-opacity:1;stroke:#000000;stroke-width:8.01200199;stroke-miterlimit:4;stroke-dasharray:none;stroke-opacity:1" />
   <path
   id="path10753"
   class="fil2 str2"
   d="M -575,776 C -609,668 -531,628 -523,610 C -514,592 -505,592 -500,611 C -478,688 -549,763 -560,778 C -571,792 -573,785 -575,776 z"
   style="fill:#188400;fill-opacity:1;stroke:#000000;stroke-width:8.01200199;stroke-miterlimit:4;stroke-dasharray:none;stroke-opacity:1" />
   <path
   id="path10755"
   class="fil2 str2"
   d="M -559,806 C -532,685 -461,692 -445,675 C -428,658 -426,670 -429,692 C -437,751 -508,791 -540,811 C -550,817 -562,824 -559,806 z"
   style="fill:#188400;fill-opacity:1;stroke:#000000;stroke-width:8.01200199;stroke-miterlimit:4;stroke-dasharray:none;stroke-opacity:1" />
   <path
   id="path10757"
   class="fil2 str2"
   d="M -627,948 C -676,834 -618,757 -600,740 C -582,724 -571,717 -577,740 C -585,775 -557,865 -600,931 C -614,953 -616,974 -627,948 z"
   style="fill:#188400;fill-opacity:1;stroke:#000000;stroke-width:8.01200199;stroke-miterlimit:4;stroke-dasharray:none;stroke-opacity:1" />
   <path
   id="path10759"
   class="fil2 str2"
   d="M -601,971 C -612,901 -572,837 -529,812 C -504,797 -503,801 -503,822 C -505,887 -566,941 -584,971 C -601,999 -600,978 -601,971 z"
   style="fill:#188400;fill-opacity:1;stroke:#000000;stroke-width:8.01200199;stroke-miterlimit:4;stroke-dasharray:none;stroke-opacity:1" />
   <path
   id="path10761"
   class="fil2 str2"
   d="M -590,1153 C -554,1021 -629,945 -652,930 C -674,914 -688,908 -678,933 C -663,970 -679,1073 -622,1138 C -604,1160 -598,1183 -590,1153 z"
   style="fill:#188400;fill-opacity:1;stroke:#000000;stroke-width:8.01200199;stroke-miterlimit:4;stroke-dasharray:none;stroke-opacity:1" />
   <path
   id="path10763"
   class="fil2 str2"
   d="M -598,1124 C -628,1009 -563,944 -543,931 C -524,918 -512,913 -521,934 C -533,966 -520,1056 -570,1112 C -586,1131 -592,1150 -598,1124 z"
   style="fill:#188400;fill-opacity:1;stroke:#000000;stroke-width:8.01200199;stroke-miterlimit:4;stroke-dasharray:none;stroke-opacity:1" />
   <path
   id="path10765"
   class="fil2 str2"
   d="M -561,1070 C -507,1128 -506,1213 -530,1263 C -545,1292 -547,1290 -561,1269 C -599,1208 -576,1120 -578,1081 C -579,1044 -567,1064 -561,1070 z"
   style="fill:#188400;fill-opacity:1;stroke:#000000;stroke-width:8.01200199;stroke-miterlimit:4;stroke-dasharray:none;stroke-opacity:1" />
   <path
   id="path10767"
   class="fil2 str2"
   d="M -650,1162 C -650,1242 -601,1307 -549,1327 C -519,1338 -519,1335 -523,1311 C -537,1221 -606,1188 -631,1159 C -655,1131 -650,1154 -650,1162 z"
   style="fill:#188400;fill-opacity:1;stroke:#000000;stroke-width:8.01200199;stroke-miterlimit:4;stroke-dasharray:none;stroke-opacity:1" />
   <path
   id="path10769"
   class="fil2 str2"
   d="M -464,1400 C -552,1320 -505,1264 -509,1212 C -511,1184 -500,1191 -490,1201 C -434,1256 -431,1354 -443,1392 C -448,1409 -456,1407 -464,1400 z"
   style="fill:#188400;fill-opacity:1;stroke:#000000;stroke-width:8.01200199;stroke-miterlimit:4;stroke-dasharray:none;stroke-opacity:1" />
   <path
   id="path10771"
   class="fil2 str2"
   d="M -582,1348 C -553,1436 -476,1490 -411,1493 C -373,1495 -374,1492 -387,1466 C -436,1372 -523,1361 -562,1337 C -598,1315 -585,1339 -582,1348 z"
   style="fill:#188400;fill-opacity:1;stroke:#000000;stroke-width:8.01200199;stroke-miterlimit:4;stroke-dasharray:none;stroke-opacity:1" />
   <path
   id="path10773"
   class="fil2 str2"
   d="M -343,1513 C -457,1456 -434,1361 -455,1337 C -470,1320 -452,1322 -443,1328 C -376,1367 -322,1429 -321,1495 C -321,1520 -323,1523 -343,1513 z"
   style="fill:#188400;fill-opacity:1;stroke:#000000;stroke-width:8.01200199;stroke-miterlimit:4;stroke-dasharray:none;stroke-opacity:1" />
   <path
   id="path10775"
   class="fil2 str2"
   d="M -187,1619 C -331,1642 -398,1533 -440,1523 C -462,1518 -446,1509 -435,1508 C -339,1497 -217,1542 -180,1592 C -165,1612 -165,1616 -187,1619 z"
   style="fill:#188400;fill-opacity:1;stroke:#000000;stroke-width:8.01200199;stroke-miterlimit:4;stroke-dasharray:none;stroke-opacity:1" />
   <path
   id="path10777"
   class="fil2 str2"
   d="M -333,1448 C -304,1543 -196,1621 -115,1627 C -77,1630 -77,1626 -91,1601 C -156,1483 -269,1463 -309,1433 C -343,1407 -336,1439 -333,1448 z"
   style="fill:#188400;fill-opacity:1;stroke:#000000;stroke-width:8.01200199;stroke-miterlimit:4;stroke-dasharray:none;stroke-opacity:1" />
  </g><g
         style="fill:#2d5016"
         transform="matrix(1.000499,0,0,1.000499,0,4.791172)"
         id="g10779">
   <path
   id="path10781"
   class="fil0"
   d="M 169,476 C 150,462 80,470 67,461 C 92,482 148,467 169,476 z"
   style="fill:#2d5016;fill-opacity:1" />
   <path
   id="path10783"
   class="fil0"
   d="M 338,512 C 323,485 234,467 221,443 C 244,489 313,483 338,512 z"
   style="fill:#2d5016;fill-opacity:1" />
   <path
   id="path10785"
   class="fil0"
   d="M 325,543 C 292,511 215,524 192,505 C 246,554 276,516 325,543 z"
   style="fill:#2d5016;fill-opacity:1" />
   <path
   id="path10787"
   class="fil0"
   d="M 132,401 C 153,412 179,423 192,449 C 177,429 150,421 128,404 C 129,404 131,402 132,401 z"
   style="fill:#2d5016;fill-opacity:1" />
   <path
   id="path10789"
   class="fil0"
   d="M 460,607 C 447,577 401,544 397,533 C 410,572 448,581 460,607 z"
   style="fill:#2d5016;fill-opacity:1" />
   <path
   id="path10791"
   class="fil0"
   d="M 472,660 C 432,597 369,604 344,580 C 363,603 435,618 472,660 z"
   style="fill:#2d5016;fill-opacity:1" />
   <path
   id="path10793"
   class="fil0"
   d="M 565,757 C 568,690 518,665 516,627 C 515,672 567,733 565,757 z"
   style="fill:#2d5016;fill-opacity:1" />
   <path
   id="path10795"
   class="fil0"
   d="M 540,793 C 530,735 462,731 450,697 C 450,729 530,762 540,793 z"
   style="fill:#2d5016;fill-opacity:1" />
   <path
   id="path10797"
   class="fil0"
   d="M 596,760 C 632,804 607,871 622,920 C 604,884 613,794 596,760 z"
   style="fill:#2d5016;fill-opacity:1" />
   <path
   id="path10799"
   class="fil0"
   d="M 537,948 C 591,1006 569,1071 591,1099 C 564,1060 568,984 537,948 z"
   style="fill:#2d5016;fill-opacity:1" />
   <path
   id="path10801"
   class="fil0"
   d="M 649,956 C 603,1007 631,1084 607,1120 C 634,1089 630,994 649,956 z"
   style="fill:#2d5016;fill-opacity:1" />
   <path
   id="path10803"
   class="fil0"
   d="M 591,956 C 585,897 530,866 525,834 C 519,866 578,916 591,956 z"
   style="fill:#2d5016;fill-opacity:1" />
   <path
   id="path10805"
   class="fil0"
   d="M 563,1097 C 572,1138 539,1226 549,1253 C 527,1206 568,1117 563,1097 z"
   style="fill:#2d5016;fill-opacity:1" />
   <path
   id="path10807"
   class="fil0"
   d="M 634,1191 C 612,1264 568,1259 554,1303 C 564,1261 622,1223 634,1191 z"
   style="fill:#2d5016;fill-opacity:1" />
   <path
   id="path10809"
   class="fil0"
   d="M 491,1225 C 462,1274 486,1330 462,1365 C 496,1330 478,1265 491,1225 z"
   style="fill:#2d5016;fill-opacity:1" />
   <path
   id="path10811"
   class="fil0"
   d="M 561,1359 C 526,1424 454,1418 425,1465 C 454,1406 543,1396 561,1359 z"
   style="fill:#2d5016;fill-opacity:1" />
   <path
   id="path10813"
   class="fil0"
   d="M 434,1351 C 372,1394 391,1439 344,1487 C 403,1439 398,1386 434,1351 z"
   style="fill:#2d5016;fill-opacity:1" />
   <path
   id="path10815"
   class="fil0"
   d="M 405,1525 C 345,1523 259,1601 207,1595 C 259,1606 355,1536 405,1525 z"
   style="fill:#2d5016;fill-opacity:1" />
   <path
   id="path10817"
   class="fil0"
   d="M 308,1455 C 304,1516 148,1555 131,1596 C 150,1542 287,1502 308,1455 z"
   style="fill:#2d5016;fill-opacity:1" />
   <path
   id="path10819"
   class="fil0"
   d="M -45,330 C -65,313 -89,299 -96,282 C -91,304 -71,320 -51,335 C -49,334 -47,331 -45,330 z"
   style="fill:#2d5016;fill-opacity:1" />
   <path
   id="path10821"
   class="fil0"
   d="M -79,348 C -110,333 -146,334 -162,313 C -152,334 -118,342 -89,353 C -86,351 -82,349 -79,348 z"
   style="fill:#2d5016;fill-opacity:1" />
   <path
   id="path10823"
   class="fil0"
   d="M -169,476 C -150,462 -80,470 -67,461 C -92,482 -148,467 -169,476 z"
   style="fill:#2d5016;fill-opacity:1" />
   <path
   id="path10825"
   class="fil0"
   d="M -338,512 C -323,485 -234,467 -221,443 C -244,489 -313,483 -338,512 z"
   style="fill:#2d5016;fill-opacity:1" />
   <path
   id="path10827"
   class="fil0"
   d="M -325,543 C -292,511 -215,524 -192,505 C -246,554 -276,516 -325,543 z"
   style="fill:#2d5016;fill-opacity:1" />
   <path
   id="path10829"
   class="fil0"
   d="M -192,449 C -173,409 -119,404 -105,380 C -126,416 -172,422 -192,449 z"
   style="fill:#2d5016;fill-opacity:1" />
   <path
   id="path10831"
   class="fil0"
   d="M -38,414 C 17,388 71,410 97,398 C 65,415 -11,407 -38,414 z"
   style="fill:#2d5016;fill-opacity:1" />
   <path
   id="path10833"
   class="fil0"
   d="M -460,607 C -447,577 -401,544 -397,533 C -410,572 -448,581 -460,607 z"
   style="fill:#2d5016;fill-opacity:1" />
   <path
   id="path10835"
   class="fil0"
   d="M -472,660 C -432,597 -369,604 -344,580 C -363,603 -435,618 -472,660 z"
   style="fill:#2d5016;fill-opacity:1" />
   <path
   id="path10837"
   class="fil0"
   d="M -565,757 C -568,690 -518,665 -516,627 C -515,672 -567,733 -565,757 z"
   style="fill:#2d5016;fill-opacity:1" />
   <path
   id="path10839"
   class="fil0"
   d="M -540,793 C -530,735 -462,731 -450,697 C -450,729 -530,762 -540,793 z"
   style="fill:#2d5016;fill-opacity:1" />
   <path
   id="path10841"
   class="fil0"
   d="M -596,760 C -632,804 -607,871 -622,920 C -604,884 -613,794 -596,760 z"
   style="fill:#2d5016;fill-opacity:1" />
   <path
   id="path10843"
   class="fil0"
   d="M -537,948 C -591,1006 -569,1071 -591,1099 C -564,1060 -568,984 -537,948 z"
   style="fill:#2d5016;fill-opacity:1" />
   <path
   id="path10845"
   class="fil0"
   d="M -649,956 C -603,1007 -631,1084 -607,1120 C -634,1089 -630,994 -649,956 z"
   style="fill:#2d5016;fill-opacity:1" />
   <path
   id="path10847"
   class="fil0"
   d="M -591,956 C -585,897 -530,866 -525,834 C -519,866 -578,916 -591,956 z"
   style="fill:#2d5016;fill-opacity:1" />
   <path
   id="path10849"
   class="fil0"
   d="M -563,1097 C -572,1138 -539,1226 -549,1253 C -527,1206 -568,1117 -563,1097 z"
   style="fill:#2d5016;fill-opacity:1" />
   <path
   id="path10851"
   class="fil0"
   d="M -634,1191 C -612,1264 -568,1259 -554,1303 C -564,1261 -622,1223 -634,1191 z"
   style="fill:#2d5016;fill-opacity:1" />
   <path
   id="path10853"
   class="fil0"
   d="M -491,1225 C -462,1274 -486,1330 -462,1365 C -496,1330 -478,1265 -491,1225 z"
   style="fill:#2d5016;fill-opacity:1" />
   <path
   id="path10855"
   class="fil0"
   d="M -561,1359 C -526,1424 -454,1418 -425,1465 C -454,1406 -543,1396 -561,1359 z"
   style="fill:#2d5016;fill-opacity:1" />
   <path
   id="path10857"
   class="fil0"
   d="M -434,1351 C -372,1394 -391,1439 -344,1487 C -403,1439 -398,1386 -434,1351 z"
   style="fill:#2d5016;fill-opacity:1" />
   <path
   id="path10859"
   class="fil0"
   d="M -405,1525 C -345,1523 -259,1601 -207,1595 C -259,1606 -355,1536 -405,1525 z"
   style="fill:#2d5016;fill-opacity:1" />
   <path
   id="path10861"
   class="fil0"
   d="M -308,1455 C -304,1516 -148,1555 -131,1596 C -150,1542 -287,1502 -308,1455 z"
   style="fill:#2d5016;fill-opacity:1" />
   <path
   id="path10863"
   class="fil0"
   d="M -81,416 C -69,362 -9,352 -1,320 C -4,354 -75,392 -81,416 z"
   style="fill:#2d5016;fill-opacity:1" />
   <path
   id="path10865"
   class="fil0"
   d="M 96,282 C 87,323 22,346 13,377 C 16,335 83,311 96,282 z"
   style="fill:#2d5016;fill-opacity:1" />
   <path
   id="path10867"
   class="fil0"
   d="M 45,379 C 76,329 140,342 162,313 C 146,347 67,348 45,379 z"
   style="fill:#2d5016;fill-opacity:1" />
  </g><g
         style="fill:#188400;fill-opacity:1;stroke:#000000;stroke-width:8.01200199;stroke-miterlimit:4;stroke-dasharray:none;stroke-opacity:1"
         transform="matrix(1.000499,0,0,1.000499,0,4.791172)"
         id="g10869">
   <path
   id="path10871"
   class="fil2 str2"
   d="M -54,1623 C -142,1667 -252,1655 -345,1595 C -349,1593 -351,1596 -347,1607 C -337,1636 -329,1659 -359,1702 C -372,1721 -357,1724 -335,1722 C -223,1711 -113,1686 -60,1665 L -54,1623 z"
   style="fill:#188400;fill-opacity:1;stroke:#000000;stroke-width:8.01200199;stroke-miterlimit:4;stroke-dasharray:none;stroke-opacity:1" />
   <path
   id="path10873"
   class="fil2 str2"
   d="M -56,1675 C -91,1689 -151,1706 -218,1718 C -245,1722 -244,1739 -196,1745 C -147,1750 -84,1715 -46,1684 L -56,1675 z"
   style="fill:#188400;fill-opacity:1;stroke:#000000;stroke-width:8.01200199;stroke-miterlimit:4;stroke-dasharray:none;stroke-opacity:1" />
   <path
   id="path10875"
   class="fil2 str2"
   d="M 0,1579 C 12,1579 34,1574 56,1571 C 97,1564 67,1627 0,1627 L 0,1648 C 68,1648 139,1574 124,1541 C 103,1493 45,1534 0,1534 C -45,1534 -103,1493 -124,1541 C -139,1574 -68,1648 0,1648 L 0,1627 C -67,1627 -97,1564 -56,1571 C -34,1574 -12,1579 0,1579 z"
   style="fill:#188400;fill-opacity:1;stroke:#000000;stroke-width:8.01200199;stroke-miterlimit:4;stroke-dasharray:none;stroke-opacity:1" />
   <path
   id="path10877"
   class="fil2 str2"
   d="M 54,1623 C 142,1667 252,1655 345,1595 C 349,1593 351,1596 347,1607 C 337,1636 329,1659 359,1702 C 372,1721 357,1724 335,1722 C 223,1711 113,1686 60,1665 L 54,1623 z"
   style="fill:#188400;fill-opacity:1;stroke:#000000;stroke-width:8.01200199;stroke-miterlimit:4;stroke-dasharray:none;stroke-opacity:1" />
   <path
   id="path10879"
   class="fil2 str2"
   d="M 56,1675 C 91,1689 150,1706 218,1718 C 245,1722 244,1739 196,1745 C 147,1750 84,1715 46,1684 L 56,1675 z"
   style="fill:#188400;fill-opacity:1;stroke:#000000;stroke-width:8.01200199;stroke-miterlimit:4;stroke-dasharray:none;stroke-opacity:1" />
   <path
   id="path10881"
   class="fil2 str2"
   d="M 3,1665 C 5,1682 8,1719 31,1703 C 62,1682 69,1666 69,1636 C 69,1617 46,1589 0,1589 C -46,1589 -69,1617 -69,1636 C -69,1666 -62,1682 -31,1703 C -8,1719 -6,1682 -3,1665 C -2,1659 3,1661 3,1665 z"
   style="fill:#188400;fill-opacity:1;stroke:#000000;stroke-width:8.01200199;stroke-miterlimit:4;stroke-dasharray:none;stroke-opacity:1" />
  </g><path
         id="path10883"
         class="fil2"
         d="M 0,1401 C 220,1401 399,1222 399,1002 C 399,881 345,773 260,700 C 311,760 342,839 342,925 C 342,1116 189,1271 0,1271 C -189,1271 -342,1116 -342,925 C -342,839 -311,760 -260,700 C -345,773 -399,881 -399,1002 C -399,1222 -220,1401 0,1401 z"
         style="opacity:1;fill:#188400;fill-opacity:1;stroke:none;stroke-width:8.01200198999999990;stroke-linejoin:round;stroke-miterlimit:4;stroke-dasharray:none;stroke-opacity:1"
         transform="matrix(1.000499,0,0,1.000499,0,4.791172)" /><path
         sodipodi:type="arc"
         style="opacity:1;fill:none;fill-opacity:1;fill-rule:evenodd;stroke:#000000;stroke-width:7.62077904;stroke-linecap:round;stroke-linejoin:round;marker:none;marker-start:none;marker-mid:none;marker-end:none;stroke-miterlimit:4;stroke-dasharray:none;stroke-dashoffset:0;stroke-opacity:1;visibility:visible;display:inline;overflow:visible;enable-background:accumulate"
         id="path10885"
         sodipodi:cx="-1223.153"
         sodipodi:cy="1006.3383"
         sodipodi:rx="469.76511"
         sodipodi:ry="466.62286"
         d="m -753.38785,1006.3383 c 0,257.7087 -210.321,466.6229 -469.76515,466.6229 -259.4441,0 -469.7651,-208.9142 -469.7651,-466.6229 0,-257.70867 210.321,-466.62285 469.7651,-466.62285 259.44415,0 469.76515,208.91418 469.76515,466.62285 z"
         transform="matrix(1.0578809,0,0,1.0650047,1294.7002,-63.845563)" /><g
         transform="matrix(1.5505482,0,0,1.5505482,-1916.2242,-3261.8187)"
         id="g10887"><path
           style="fill:#000000;fill-rule:evenodd;stroke:#000000;stroke-width:0.40079999;stroke-linecap:butt;stroke-linejoin:miter;stroke-opacity:1"
           d="M 1071.9432,2779.7209 C 1045.9991,2818.5805 1064.6936,2843.8744 1091.3762,2845.729 C 1109.0011,2846.9541 1145.6048,2820.84 1145.5436,2789.9972 L 1135.5451,2784.4425 C 1141.085,2800.165 1135.2682,2805.2179 1123.4476,2815.9593 C 1099.9407,2837.3203 1051.9394,2838.8462 1071.9432,2779.7209 z"
           id="path10889"
           sodipodi:nodetypes="csccsc" /><path
           style="fill:#000000;fill-rule:evenodd;stroke:#000000;stroke-width:1px;stroke-linecap:butt;stroke-linejoin:miter;stroke-opacity:1"
           d="M 1277.1912,2881.6506 C 1422.9866,2885.7966 1469.449,2744.7275 1379.3986,2623.9102 L 1370.511,2637.2416 C 1376.3378,2693.5494 1384.6711,2749.0226 1385.5088,2806.6615 C 1367.8728,2827.3521 1342.2648,2819.7437 1337.1825,2796.6629 C 1337.5371,2765.5427 1327.2676,2739.1443 1314.408,2713.8971 L 1307.1868,2727.2286 C 1315.6024,2747.9186 1324.6929,2771.1591 1326.6285,2796.6629 C 1285.0048,2846.6494 1239.0138,2856.7012 1256.0831,2791.1081 C 1223.1615,2848.5686 1273.0232,2889.1006 1329.4058,2800.5512 C 1341.4922,2861.0306 1388.3268,2823.4683 1391.0636,2810.5498 C 1396.1854,2770.8712 1393.6355,2707.1103 1383.2869,2656.6832 C 1423.8783,2727.0222 1425.3212,2777.6781 1403.6997,2811.572 C 1379.6513,2849.2701 1327.4654,2866.8907 1277.1912,2881.6506 z"
           id="path10891"
           sodipodi:nodetypes="ccccccccccccsc" /><path
           id="path10893"
           style="fill:#000000;fill-rule:evenodd;stroke:#000000;stroke-width:1px;stroke-linecap:butt;stroke-linejoin:miter;stroke-opacity:1"
           d="M 1359.8617,2722.2293 C 1328.6818,2724.5293 1312.6652,2718.0687 1329.636,2695.0307 C 1346.3381,2672.3576 1361.9083,2690.414 1366.0672,2720.5628 C 1369.9749,2748.8907 1311.3475,2785.0239 1291.0354,2785.0271 C 1260.3308,2785.0319 1246.107,2745.5307 1274.4138,2710.0088 C 1237.9829,2813.6264 1352.9708,2753.5173 1359.8617,2722.2293 z M 1338.2736,2698.1644 C 1334.535,2698.0035 1331.7496,2704.7004 1333.6434,2706.0165 C 1339.0576,2709.7789 1347.8423,2707.4958 1348.6791,2705.6379 C 1350.5877,2701.4003 1343.62,2698.3945 1338.2736,2698.1644 z"
           sodipodi:nodetypes="cssscccssc" /><path
           style="fill:#000000;fill-rule:evenodd;stroke:#000000;stroke-width:1px;stroke-linecap:butt;stroke-linejoin:miter;stroke-opacity:1"
           d="M 1190.5371,2771.1111 C 1160.5115,2830.0608 1190.4232,2854.5468 1228.899,2847.6596 C 1251.3389,2843.6429 1279.7245,2827.6749 1296.0773,2806.0107 C 1296.363,2758.2275 1295.664,2710.7725 1291.5382,2664.4598 C 1306.536,2646.6443 1290.1874,2646.7208 1284.4995,2627.5208 C 1281.8618,2638.6566 1275.6063,2650.7603 1281.6957,2659.5394 C 1286.0018,2706.2122 1288.4359,2753.509 1288.3007,2801.6622 C 1258.1128,2826.013 1235.4291,2835.0156 1219.1536,2834.8468 C 1185.6569,2834.4995 1178.5179,2806.3024 1190.5371,2771.1111 z"
           id="path10895"
           sodipodi:nodetypes="cscccccsc" /><path
           sodipodi:nodetypes="cccccc"
           id="path10897"
           d="M 1251.8425,2786.7014 C 1251.303,2742.1775 1250.5942,2691.7439 1246.6312,2660.6312 C 1262.1663,2643.2823 1245.823,2642.8592 1240.7244,2623.4944 C 1237.7477,2634.5444 1231.1253,2646.4513 1236.9436,2655.4124 C 1239.5368,2703.017 1241.9994,2750.6215 1242.536,2798.2261 C 1246.1375,2795.8824 1250.2272,2795.0036 1251.8425,2786.7014 z"
           style="opacity:1;fill:#000000;fill-rule:evenodd;stroke:#000000;stroke-width:1px;stroke-linecap:butt;stroke-linejoin:miter;stroke-opacity:1" /><path
           id="path10899"
           style="fill:#000000;fill-rule:evenodd;stroke:#000000;stroke-width:0.40079999;stroke-linecap:butt;stroke-linejoin:miter;stroke-opacity:1"
           d="M 1135.3932,2784.6485 C 1131.6446,2779.7964 1128.8788,2774.4307 1125.7712,2769.698 C 1125.3048,2763.0218 1129.8101,2756.753 1130.3859,2753.4246 C 1135.4686,2761.3038 1138.5068,2767.3014 1142.6065,2771.2052 M 1147.9512,2774.3219 C 1155.5139,2777.3109 1164.6519,2777.3001 1173.2393,2777.4752 C 1205.9694,2778.1427 1240.4843,2772.7084 1236.8293,2817.055 C 1233.5805,2856.4731 1200.8942,2879.3088 1171.6277,2879.0004 C 1129.8676,2878.5605 1094.28,2832.5938 1158.5925,2747.9488 C 1164.8386,2746.8869 1172.8874,2748.6389 1179.6317,2749.2372 C 1191.113,2750.0599 1202.8606,2748.9533 1216.4286,2738.2348 C 1214.7811,2710.3496 1214.8181,2683.8532 1211.3917,2658.7453 C 1205.5734,2649.7842 1212.1958,2637.8773 1215.1725,2626.8273 C 1220.2711,2646.1921 1236.6144,2646.6152 1221.0793,2663.9641 C 1224.7646,2692.0217 1225.1956,2720.514 1225.1796,2737.5419 C 1217.4386,2749.4209 1211.2701,2762.0486 1188.5173,2766.7791 C 1165.1958,2763.3873 1154.7159,2730.8066 1130.3859,2741.6412 C 1137.1053,2712.231 1198.757,2705.5079 1205.0141,2728.6794 C 1200.9152,2752.9439 1143.2731,2743.1589 1128.0292,2821.3756 C 1123.3226,2845.5251 1148.7018,2867.6997 1174.781,2865.9404 C 1200.3353,2864.2165 1227.5236,2846.4934 1230.152,2816.6622 C 1232.3414,2791.8136 1197.1631,2794.6772 1182.4631,2794.9968 C 1161.0879,2795.4654 1147.5606,2792.2014 1139.5114,2787.5495 M 1161.3746,2733.6165 C 1165.201,2730.0343 1178.5179,2727.4829 1183.3159,2733.3388 C 1179.6938,2735.7343 1176.2059,2738.264 1173.3174,2741.3931 C 1168.2609,2738.8009 1165.0415,2736.2087 1161.3746,2733.6165 z"
           sodipodi:nodetypes="cccscsssccccccccccssscscccc" /><path
           style="fill:#000000;fill-rule:evenodd;stroke:#000000;stroke-width:1px;stroke-linecap:butt;stroke-linejoin:miter;stroke-opacity:1"
           d="M 1194.0163,2650.909 C 1197.5751,2658.8831 1199.095,2664.1508 1199.3135,2671.9024 C 1197.1477,2682.2517 1188.2338,2691.9772 1179.0021,2692.3146 C 1173.3395,2692.5216 1166.8629,2690.8628 1162.4449,2681.9827 C 1161.9195,2680.9266 1159.5082,2678.3391 1157.2297,2679.5343 C 1147.1017,2696.0665 1139.5652,2703.1432 1130.5432,2702.9929 C 1112.2762,2702.6746 1117.6844,2686.4999 1100.9273,2681.5458 C 1093.8742,2681.3173 1082.4459,2688.4113 1076.4669,2702.3492 C 1054.1364,2765.8372 1033.6697,2702.1252 1042.4031,2672.5119 C 1043.7263,2700.8133 1050.4681,2717.6343 1057.5119,2717.0519 C 1062.6128,2716.6301 1067.0796,2704.836 1073.5678,2692.4494 C 1078.5554,2682.9277 1090.6444,2665.7947 1103.284,2665.8346 C 1114.8688,2666.0742 1107.6414,2687.4039 1130.8216,2687.0504 C 1142.0363,2686.8793 1152.3219,2678.3471 1162.6612,2661.1212 C 1164.9753,2660.7151 1165.6412,2664.8068 1166.0507,2666.2332 C 1167.7217,2672.0539 1177.8792,2688.2682 1191.6596,2673.4881 C 1190.995,2670.257 1191.3196,2664.9648 1187.7794,2663.8904 L 1194.0163,2650.909 z"
           id="path10901"
           sodipodi:nodetypes="ccsscscccsccscsccc" /><path
           id="path10903"
           style="fill:#000000;fill-rule:evenodd;stroke:#000000;stroke-width:0.40079999;stroke-linecap:butt;stroke-linejoin:miter;stroke-opacity:1"
           d="M 1266.9149,2598.2889 C 1254.5878,2604.4272 1245.5753,2598.8379 1240.5298,2593.359 C 1249.3524,2591.607 1256.2602,2588.382 1258.305,2581.4163 C 1254.2774,2572.3877 1244.8137,2568.4931 1231.3645,2568.3627 C 1213.4719,2568.8579 1204.3201,2576.0741 1203.1841,2585.9949 C 1211.4911,2586.3103 1218.9866,2584.0133 1222.1992,2591.9704 C 1207.526,2599.1811 1190.2298,2601.8014 1171.3732,2601.6912 C 1140.626,2603.2882 1136.1187,2589.4392 1127.9642,2577.2069 C 1127.4044,2576.3672 1124.6704,2575.1489 1123.288,2575.3258 C 1113.8153,2575.2688 1106.8174,2608.4939 1096.1063,2608.3569 C 1085.4009,2606.9527 1087.8431,2587.0306 1084.7191,2575.5838 C 1082.0583,2593.4981 1087.9688,2660.0632 1121.1027,2587.8043 C 1122.1248,2585.4298 1123.5491,2586.0611 1124.4356,2588.082 C 1133.3122,2608.3179 1151.4418,2615.2942 1170.864,2616.3478 C 1187.2392,2617.2361 1208.0101,2610.1214 1230.2536,2597.5251 C 1236.1941,2603.9582 1240.8667,2611.3666 1253.3058,2612.8007 C 1267.8407,2613.4768 1283.2876,2602.9556 1286.795,2589.9918 C 1288.5991,2583.3238 1288.9369,2570.1196 1281.8174,2569.9001 C 1271.8739,2569.5935 1264.7227,2593.5738 1266.9962,2615.1574 C 1267.1716,2614.8714 1268.2517,2609.7652 1268.2517,2609.7652 M 1224.4567,2580.9941 C 1230.9883,2577.9804 1237.263,2576.6367 1242.3282,2583.1544 C 1238.4082,2584.5569 1236.0422,2585.4647 1233.9409,2587.2309 C 1231.0797,2585.0489 1227.2969,2583.902 1224.4567,2580.9941 z M 1272.2971,2595.949 C 1273.94,2588.7719 1274.7689,2583.116 1280.5906,2579.4131 C 1281.8435,2586.8568 1282.0493,2591.0849 1272.2971,2595.949 z" /><path
           id="path10905"
           style="fill:#000000;fill-rule:evenodd;stroke:#000000;stroke-width:0.40079999;stroke-linecap:butt;stroke-linejoin:miter;stroke-opacity:1"
           d="M 1311.3026,2606.8953 C 1309.4431,2600.7874 1307.5339,2595.5478 1306.8615,2588.949 C 1305.4894,2575.4843 1317.0095,2567.9438 1327.414,2568.9855 C 1338.1239,2570.0578 1345.2277,2574.0502 1355.4082,2577.5524 C 1363.4491,2580.3185 1374.2452,2582.361 1384.4557,2585.3161 C 1390.2694,2587.8746 1384.4555,2594.6665 1383.0046,2595.5743 C 1357.163,2605.7353 1338.9141,2621.7155 1322.4595,2622.4369 C 1312.7387,2622.863 1304.0041,2616.507 1296.0773,2603.3576 C 1295.6412,2577.9971 1294.6595,2548.1778 1292.189,2529.4794 C 1295.977,2525.6863 1296.8435,2522.8669 1298.577,2519.7586 C 1300.5905,2544.5005 1301.3603,2570.486 1301.9098,2596.6919 C 1304.0019,2601.1729 1306.6437,2604.981 1311.3026,2606.8953 z M 1327.8155,2608.9489 C 1313.9741,2612.8178 1315.6531,2601.1454 1314.3628,2593.9105 C 1312.8596,2585.4822 1313.9327,2576.0419 1324.6157,2578.441 C 1338.4985,2582.1024 1351.1783,2586.9668 1363.5009,2592.1883 L 1327.8155,2608.9489 z" /><path
           style="fill:#000000;fill-rule:evenodd;stroke:#000000;stroke-width:0.40079999;stroke-linecap:butt;stroke-linejoin:miter;stroke-opacity:1"
           d="M 1314.2503,2621.2657 L 1316.2133,2630.5759 L 1317.7409,2630.5759 L 1317.0961,2621.9457"
           id="path10907"
           sodipodi:nodetypes="cccc" /><path
           style="fill:#000000;fill-rule:evenodd;stroke:#000000;stroke-width:4.0079999;stroke-linecap:round;stroke-linejoin:round;stroke-miterlimit:4;stroke-dasharray:none;stroke-opacity:1"
           d="M 1094.1622,2718.4798 L 1101.2445,2711.2587 L 1109.2988,2718.2021 L 1101.7999,2724.8678 L 1094.1622,2718.4798 z"
           id="path10919" /><path
           id="path10921"
           d="M 1112.0337,2716.1231 L 1119.116,2708.902 L 1127.1703,2715.8454 L 1119.6714,2722.5111 L 1112.0337,2716.1231 z"
           style="fill:#000000;fill-rule:evenodd;stroke:#000000;stroke-width:4.0079999;stroke-linecap:round;stroke-linejoin:round;stroke-miterlimit:4;stroke-dasharray:none;stroke-opacity:1" /><path
           style="fill:#000000;fill-rule:evenodd;stroke:#000000;stroke-width:4.0079999;stroke-linecap:round;stroke-linejoin:round;stroke-miterlimit:4;stroke-dasharray:none;stroke-opacity:1"
           d="M 1062.5434,2641.4949 L 1069.6257,2634.2738 L 1077.68,2641.2172 L 1070.1811,2647.8829 L 1062.5434,2641.4949 z"
           id="path10923" /><path
           id="path10925"
           d="M 1065.6856,2662.705 L 1072.7679,2655.4839 L 1080.8222,2662.4273 L 1073.3233,2669.093 L 1065.6856,2662.705 z"
           style="fill:#000000;fill-rule:evenodd;stroke:#000000;stroke-width:4.0079999;stroke-linecap:round;stroke-linejoin:round;stroke-miterlimit:4;stroke-dasharray:none;stroke-opacity:1" /><path
           style="fill:#000000;fill-rule:evenodd;stroke:#000000;stroke-width:4.0079999;stroke-linecap:round;stroke-linejoin:round;stroke-opacity:1"
           d="M 1194.2286,2698.1979 L 1200.7311,2692.8896 L 1206.7394,2699.3537 L 1199.9441,2704.1658 L 1194.2286,2698.1979 z"
           id="path10927" /><path
           id="path10929"
           d="M 1108.3544,2562.4993 L 1113.0008,2557.7619 L 1118.2848,2562.3172 L 1113.3651,2566.6902 L 1108.3544,2562.4993 z"
           style="fill:#000000;fill-rule:evenodd;stroke:#000000;stroke-width:4.0079999;stroke-linecap:round;stroke-linejoin:round;stroke-miterlimit:4;stroke-dasharray:none;stroke-opacity:1" /><path
           style="fill:#000000;fill-rule:evenodd;stroke:#000000;stroke-width:4.0079999;stroke-linecap:round;stroke-linejoin:round;stroke-miterlimit:4;stroke-dasharray:none;stroke-opacity:1"
           d="M 1120.0791,2560.9532 L 1124.7255,2556.2158 L 1130.0096,2560.771 L 1125.0899,2565.1441 L 1120.0791,2560.9532 z"
           id="path10931" /><path
           id="path10933"
           d="M 1365.6638,2614.7177 L 1361.2888,2618.3988 L 1357.1313,2614.0571 L 1361.7107,2610.7109 L 1365.6638,2614.7177 z"
           style="fill:#000000;fill-rule:evenodd;stroke:#000000;stroke-width:4.0079999;stroke-linecap:round;stroke-linejoin:round;stroke-opacity:1" /><path
           style="fill:#000000;fill-rule:evenodd;stroke:#000000;stroke-width:0.40079999;stroke-linecap:butt;stroke-linejoin:miter;stroke-opacity:1"
           d="M 1158.7151,2747.4347 L 1158.2242,2755.2903 L 1170.8422,2756.5177 L 1180.8581,2748.9076 L 1158.7151,2747.4347 z"
           id="path11011" /><path
           style="fill:#000000;fill-rule:evenodd;stroke:#000000;stroke-width:1px;stroke-linecap:butt;stroke-linejoin:miter;stroke-opacity:1"
           d="M 1265.179,2599.8164 L 1268.9285,2598.9832 L 1268.5466,2609.2596 L 1266.2206,2610.1621 L 1265.179,2599.8164 z"
           id="path11013"
           sodipodi:nodetypes="ccccc" /></g><path
         transform="matrix(0.9247638,0,0,0.9309911,1131.8776,71.017448)"
         d="m -753.38785,1006.3383 c 0,257.7087 -210.321,466.6229 -469.76515,466.6229 -259.4441,0 -469.7651,-208.9142 -469.7651,-466.6229 0,-257.70867 210.321,-466.62285 469.7651,-466.62285 259.44415,0 469.76515,208.91418 469.76515,466.62285 z"
         sodipodi:ry="466.62286"
         sodipodi:rx="469.76511"
         sodipodi:cy="1006.3383"
         sodipodi:cx="-1223.153"
         id="path11015"
         style="opacity:1;fill:none;fill-opacity:1;fill-rule:evenodd;stroke:#000000;stroke-width:8.6391201;stroke-linecap:round;stroke-linejoin:round;marker:none;marker-start:none;marker-mid:none;marker-end:none;stroke-miterlimit:4;stroke-dasharray:none;stroke-dashoffset:0;stroke-opacity:1;visibility:visible;display:inline;overflow:visible;enable-background:accumulate"
         sodipodi:type="arc" /><path
         inkscape:transform-center-x="87.370646"
         style="fill:#e8111c;fill-opacity:1;fill-rule:evenodd;stroke:#000000;stroke-width:6.01200008;stroke-linecap:round;stroke-linejoin:round;marker:none;marker-start:none;marker-mid:none;marker-end:none;stroke-miterlimit:4;stroke-dashoffset:0;stroke-opacity:1;visibility:visible;display:inline;overflow:visible;enable-background:accumulate"
         d="M -438.76794,1164.5158 C -430.22967,1160.652 -420.24543,1164.4152 -416.38179,1172.9534 L -397.73234,1214.1652 C -393.86864,1222.7034 -397.6317,1232.6876 -406.16999,1236.5513 C -414.70817,1240.4151 -424.69226,1236.6518 -428.55609,1228.1137 L -447.20546,1186.9019 C -451.06924,1178.3637 -447.30607,1168.3795 -438.76794,1164.5158 z"
         id="path11017"
         inkscape:transform-center-y="75.736225" /><path
         inkscape:transform-center-x="105.16583"
         inkscape:transform-center-y="48.059897"
         id="path11019"
         d="M -465.1532,1034.8581 C -455.87229,1033.5557 -447.35232,1039.9788 -446.05007,1049.2596 L -439.76392,1094.0558 C -438.46161,1103.3366 -444.88458,1111.8566 -454.16548,1113.1589 C -463.44626,1114.4612 -471.96608,1108.0381 -473.26854,1098.7573 L -479.5546,1053.9612 C -480.85699,1044.6803 -474.43391,1036.1604 -465.1532,1034.8581 z"
         style="fill:#e8111c;fill-opacity:1;fill-rule:evenodd;stroke:#000000;stroke-width:6.01200008;stroke-linecap:round;stroke-linejoin:round;marker:none;marker-start:none;marker-mid:none;marker-end:none;stroke-miterlimit:4;stroke-dashoffset:0;stroke-opacity:1;visibility:visible;display:inline;overflow:visible;enable-background:accumulate" /><path
         inkscape:transform-center-x="114.44486"
         style="fill:#e8111c;fill-opacity:1;fill-rule:evenodd;stroke:#000000;stroke-width:6.01200008;stroke-linecap:round;stroke-linejoin:round;marker:none;marker-start:none;marker-mid:none;marker-end:none;stroke-miterlimit:4;stroke-dashoffset:0;stroke-opacity:1;visibility:visible;display:inline;overflow:visible;enable-background:accumulate"
         d="M -453.94924,903.01811 C -444.67726,904.38261 -438.31146,912.94548 -439.67608,922.21731 L -446.26227,966.97038 C -447.62683,976.24223 -456.18958,982.6081 -465.46152,981.2435 C -474.73335,979.87894 -481.09901,971.31611 -479.73459,962.04422 L -473.14835,917.29127 C -471.78384,908.0193 -463.22101,901.65356 -453.94924,903.01811 z"
         id="path11021"
         inkscape:transform-center-y="16.491765" /><path
         inkscape:transform-center-x="114.45635"
         inkscape:transform-center-y="-16.411847"
         id="path11023"
         d="M -406.06333,779.67204 C -397.55111,783.59295 -393.85497,793.60218 -397.77595,802.11423 L -416.70115,843.20014 C -420.62207,851.71222 -430.63121,855.40846 -439.14337,851.48747 C -447.65543,847.56655 -451.35144,837.55739 -447.43064,829.04523 L -428.50543,787.95945 C -424.58452,779.44724 -414.57534,775.75115 -406.06333,779.67204 z"
         style="fill:#e8111c;fill-opacity:1;fill-rule:evenodd;stroke:#000000;stroke-width:6.01200008;stroke-linecap:round;stroke-linejoin:round;marker:none;marker-start:none;marker-mid:none;marker-end:none;stroke-miterlimit:4;stroke-dashoffset:0;stroke-opacity:1;visibility:visible;display:inline;overflow:visible;enable-background:accumulate" /><path
         inkscape:transform-center-x="105.19935"
         style="fill:#e8111c;fill-opacity:1;fill-rule:evenodd;stroke:#000000;stroke-width:6.01200008;stroke-linecap:round;stroke-linejoin:round;marker:none;marker-start:none;marker-mid:none;marker-end:none;stroke-miterlimit:4;stroke-dashoffset:0;stroke-opacity:1;visibility:visible;display:inline;overflow:visible;enable-background:accumulate"
         d="M -325.37319,674.80825 C -318.31003,680.96806 -317.58286,691.61312 -323.74269,698.6761 L -353.47436,732.76778 C -359.63414,739.8308 -370.27914,740.5581 -377.34222,734.39823 C -384.40522,728.23846 -385.13229,717.5935 -378.9726,710.53037 L -349.24096,676.43881 C -343.08115,669.37566 -332.43615,668.64853 -325.37319,674.80825 z"
         id="path11025"
         inkscape:transform-center-y="-47.986457" /><path
         inkscape:transform-center-x="87.423491"
         inkscape:transform-center-y="-75.675205"
         id="path11027"
         d="M -218.41297,596.91843 C -213.37083,604.81833 -215.67152,615.23721 -223.57138,620.27916 L -261.7019,644.61593 C -269.60173,649.65794 -280.02058,647.3574 -285.06263,639.45746 C -290.10462,631.55765 -287.80387,621.1389 -279.90409,616.09676 L -241.77364,591.7601 C -233.87374,586.71798 -223.45494,589.01868 -218.41297,596.91843 z"
         style="fill:#e8111c;fill-opacity:1;fill-rule:evenodd;stroke:#000000;stroke-width:6.01200008;stroke-linecap:round;stroke-linejoin:round;marker:none;marker-start:none;marker-mid:none;marker-end:none;stroke-miterlimit:4;stroke-dashoffset:0;stroke-opacity:1;visibility:visible;display:inline;overflow:visible;enable-background:accumulate" /><path
         inkscape:transform-center-x="62.568232"
         inkscape:transform-center-y="-97.235903"
         style="fill:#e8111c;fill-opacity:1;fill-rule:evenodd;stroke:#000000;stroke-width:6.01200008;stroke-linecap:round;stroke-linejoin:round;marker:none;marker-start:none;marker-mid:none;marker-end:none;stroke-miterlimit:4;stroke-dashoffset:0;stroke-opacity:1;visibility:visible;display:inline;overflow:visible;enable-background:accumulate"
         d="M -93.844122,552.30997 C -91.231312,561.31024 -96.373552,570.65923 -105.37373,573.27187 L -148.81535,585.88297 C -157.81552,588.49568 -167.16452,583.35359 -169.77723,574.35331 C -172.38992,565.35317 -167.24766,556.00432 -158.24751,553.39148 L -114.80598,540.78046 C -105.80572,538.16767 -96.456811,543.30989 -93.844122,552.30997 z"
         id="path11029" /><path
         inkscape:transform-center-x="32.568853"
         inkscape:transform-center-y="110.94536"
         id="path11031"
         d="M -284.64717,1376.3136 C -279.5522,1368.4477 -269.11816,1366.2169 -261.25235,1371.3119 L -223.28581,1395.9036 C -215.42,1400.9985 -213.18914,1411.4325 -218.2841,1419.2984 C -223.37895,1427.1643 -233.81297,1429.3949 -241.67887,1424.3001 L -279.64538,1399.7083 C -287.51122,1394.6135 -289.74202,1384.1794 -284.64717,1376.3136 z"
         style="fill:#e8111c;fill-opacity:1;fill-rule:evenodd;stroke:#000000;stroke-width:6.01200008;stroke-linecap:round;stroke-linejoin:round;marker:none;marker-start:none;marker-mid:none;marker-end:none;stroke-miterlimit:4;stroke-dashoffset:0;stroke-opacity:1;visibility:visible;display:inline;overflow:visible;enable-background:accumulate" /><path
         style="fill:#e8111c;fill-opacity:1;fill-rule:evenodd;stroke:#000000;stroke-width:6.01200008;stroke-linecap:round;stroke-linejoin:round;marker:none;marker-start:none;marker-mid:none;marker-end:none;stroke-miterlimit:4;stroke-dashoffset:0;stroke-opacity:1;visibility:visible;display:inline;overflow:visible;enable-background:accumulate"
         d="M -169.39208,1441.3027 C -166.71903,1432.3201 -157.33579,1427.2407 -148.35335,1429.9138 L -104.99726,1442.8157 C -96.014822,1445.4888 -90.935352,1454.8719 -93.608398,1463.8545 C -96.281387,1472.8369 -105.66463,1477.9162 -114.6471,1475.2433 L -158.00319,1462.3413 C -166.98563,1459.6683 -172.06507,1450.2851 -169.39208,1441.3027 z"
         id="path11033"
         inkscape:transform-center-y="115.62701" /><path
         inkscape:transform-center-x="62.500334"
         style="fill:#e8111c;fill-opacity:1;fill-rule:evenodd;stroke:#000000;stroke-width:6.01200008;stroke-linecap:round;stroke-linejoin:round;marker:none;marker-start:none;marker-mid:none;marker-end:none;stroke-miterlimit:4;stroke-dashoffset:0;stroke-opacity:1;visibility:visible;display:inline;overflow:visible;enable-background:accumulate"
         d="M -376.93009,1281.4918 C -369.82581,1275.3795 -359.18588,1276.178 -353.07367,1283.2823 L -323.57114,1317.5724 C -317.4589,1324.6766 -318.25733,1335.3165 -325.3616,1341.4288 C -332.46577,1347.5411 -343.10562,1346.7424 -349.21797,1339.6383 L -378.72044,1305.3481 C -384.83274,1298.244 -384.03422,1287.604 -376.93009,1281.4918 z"
         id="path11035"
         inkscape:transform-center-y="97.279556" /><path
         inkscape:transform-center-x="0.44011855"
         style="fill:#e8111c;fill-opacity:1;fill-rule:evenodd;stroke:#000000;stroke-width:6.01200008;stroke-linecap:round;stroke-linejoin:round;marker:none;marker-start:none;marker-mid:none;marker-end:none;stroke-miterlimit:4;stroke-dashoffset:0;stroke-opacity:1;visibility:visible;display:inline;overflow:visible;enable-background:accumulate"
         d="M 38.519782,544.32611 C 38.555444,553.69791 31.03946,561.27124 21.667803,561.30688 L -23.566941,561.47899 C -32.938599,561.51463 -40.511997,553.99875 -40.547658,544.62696 C -40.583317,535.25537 -33.067335,527.68204 -23.695677,527.6463 L 21.539066,527.47419 C 30.910722,527.43855 38.484122,534.95452 38.519782,544.32611 z"
         id="path11037"
         inkscape:transform-center-y="-115.62697" /><path
         inkscape:transform-center-y="-48.85107"
         id="path11039"
         d="M 439.08027,848.00878 C 430.57124,851.93656 420.55904,848.2484 416.63143,839.73944 L 397.67319,798.66878 C 393.74551,790.15982 397.43353,780.14765 405.94258,776.21998 C 414.45153,772.2922 424.46358,775.98046 428.39138,784.48932 L 447.34954,825.55999 C 451.27729,834.06895 447.58917,844.08112 439.08027,848.00878 z"
         style="fill:#e8111c;fill-opacity:1;fill-rule:evenodd;stroke:#000000;stroke-width:6.01200008;stroke-linecap:round;stroke-linejoin:round;marker:none;marker-start:none;marker-mid:none;marker-end:none;stroke-miterlimit:4;stroke-dashoffset:0;stroke-opacity:1;visibility:visible;display:inline;overflow:visible;enable-background:accumulate"
         inkscape:transform-center-x="-105.22987" /><path
         style="fill:#e8111c;fill-opacity:1;fill-rule:evenodd;stroke:#000000;stroke-width:6.01200008;stroke-linecap:round;stroke-linejoin:round;marker:none;marker-start:none;marker-mid:none;marker-end:none;stroke-miterlimit:4;stroke-dashoffset:0;stroke-opacity:1;visibility:visible;display:inline;overflow:visible;enable-background:accumulate"
         d="M 466.43793,977.4648 C 457.16706,978.83682 448.59912,972.47785 447.22725,963.20708 L 440.60506,918.45932 C 439.23313,909.18856 445.59197,900.62059 454.86284,899.24867 C 464.13358,897.87676 472.70137,904.23572 474.07345,913.50649 L 480.69555,958.25415 C 482.06756,967.52502 475.70861,976.09289 466.43793,977.4648 z"
         id="path11041"
         inkscape:transform-center-y="-17.353475"
         inkscape:transform-center-x="-114.74557" /><path
         inkscape:transform-center-y="15.54912"
         id="path11043"
         d="M 456.2238,1109.3852 C 446.94185,1108.0903 440.51196,1099.5755 441.80695,1090.2936 L 448.05706,1045.4924 C 449.35199,1036.2105 457.86672,1029.7806 467.14865,1031.0755 C 476.43045,1032.3705 482.8602,1040.8853 481.56541,1050.1672 L 475.31524,1094.9683 C 474.02037,1104.2503 465.50555,1110.6801 456.2238,1109.3852 z"
         style="fill:#e8111c;fill-opacity:1;fill-rule:evenodd;stroke:#000000;stroke-width:6.01200008;stroke-linecap:round;stroke-linejoin:round;marker:none;marker-start:none;marker-mid:none;marker-end:none;stroke-miterlimit:4;stroke-dashoffset:0;stroke-opacity:1;visibility:visible;display:inline;overflow:visible;enable-background:accumulate"
         inkscape:transform-center-x="-115.00402" /><path
         style="fill:#e8111c;fill-opacity:1;fill-rule:evenodd;stroke:#000000;stroke-width:6.01200008;stroke-linecap:round;stroke-linejoin:round;marker:none;marker-start:none;marker-mid:none;marker-end:none;stroke-miterlimit:4;stroke-dashoffset:0;stroke-opacity:1;visibility:visible;display:inline;overflow:visible;enable-background:accumulate"
         d="M 409.26501,1233.0872 C 400.7236,1229.2303 396.95244,1219.2491 400.80943,1210.7078 L 419.42573,1169.481 C 423.28265,1160.9398 433.26376,1157.1685 441.80511,1161.0255 C 450.34636,1164.8824 454.11738,1174.8635 450.26059,1183.4049 L 431.64427,1224.6316 C 427.78736,1233.1729 417.80621,1236.944 409.26501,1233.0872 z"
         id="path11045"
         inkscape:transform-center-y="47.192323"
         inkscape:transform-center-x="-105.98426" /><path
         inkscape:transform-center-y="75.01371"
         id="path11047"
         d="M 329.36419,1338.5537 C 322.255,1332.447 321.44795,1321.8077 327.5546,1314.6986 L 357.02955,1280.3848 C 363.13615,1273.2758 373.77539,1272.4685 380.8845,1278.5753 C 387.99354,1284.6818 388.80048,1295.3211 382.69398,1302.4302 L 353.21905,1336.7439 C 347.11243,1343.8532 336.47319,1344.6602 329.36419,1338.5537 z"
         style="fill:#e8111c;fill-opacity:1;fill-rule:evenodd;stroke:#000000;stroke-width:6.01200008;stroke-linecap:round;stroke-linejoin:round;marker:none;marker-start:none;marker-mid:none;marker-end:none;stroke-miterlimit:4;stroke-dashoffset:0;stroke-opacity:1;visibility:visible;display:inline;overflow:visible;enable-background:accumulate"
         inkscape:transform-center-x="-88.416717" /><path
         style="fill:#e8111c;fill-opacity:1;fill-rule:evenodd;stroke:#000000;stroke-width:6.01200008;stroke-linecap:round;stroke-linejoin:round;marker:none;marker-start:none;marker-mid:none;marker-end:none;stroke-miterlimit:4;stroke-dashoffset:0;stroke-opacity:1;visibility:visible;display:inline;overflow:visible;enable-background:accumulate"
         d="M 222.99158,1417.244 C 217.89029,1409.3822 220.11272,1398.9464 227.97451,1393.8453 L 265.9213,1369.2229 C 273.78306,1364.1218 284.21889,1366.3441 289.32008,1374.2059 C 294.42123,1382.0677 292.19874,1392.5034 284.33702,1397.6047 L 246.39031,1422.2269 C 238.52847,1427.3282 228.0927,1425.1058 222.99158,1417.244 z"
         id="path11049"
         inkscape:transform-center-y="96.76035"
         inkscape:transform-center-x="-63.72398" /><path
         id="path11051"
         d="M 98.761045,1462.7862 C 96.080759,1453.8058 101.15269,1444.4184 110.133,1441.7384 L 153.47875,1428.8015 C 162.45905,1426.1213 171.84639,1431.1932 174.52657,1440.1736 C 177.20674,1449.1539 172.13479,1458.541 163.15451,1461.2213 L 119.80885,1474.158 C 110.82845,1476.8383 101.44122,1471.7664 98.761045,1462.7862 z"
         style="fill:#e8111c;fill-opacity:1;fill-rule:evenodd;stroke:#000000;stroke-width:6.01200008;stroke-linecap:round;stroke-linejoin:round;marker:none;marker-start:none;marker-mid:none;marker-end:none;stroke-miterlimit:4;stroke-dashoffset:0;stroke-opacity:1;visibility:visible;display:inline;overflow:visible;enable-background:accumulate"
         inkscape:transform-center-y="110.67124"
         inkscape:transform-center-x="-33.90562" /><path
         style="fill:#e8111c;fill-opacity:1;fill-rule:evenodd;stroke:#000000;stroke-width:6.01200008;stroke-linecap:round;stroke-linejoin:round;marker:none;marker-start:none;marker-mid:none;marker-end:none;stroke-miterlimit:4;stroke-dashoffset:0;stroke-opacity:1;visibility:visible;display:inline;overflow:visible;enable-background:accumulate"
         d="M 283.37421,637.37369 C 278.33843,645.27761 267.92141,647.58666 260.01758,642.55085 L 221.86755,618.24479 C 213.96372,613.20907 211.65461,602.7921 216.69039,594.88819 C 221.72606,586.98428 232.14305,584.67543 240.04696,589.71104 L 278.19697,614.0172 C 286.10083,619.05282 288.40988,629.46988 283.37421,637.37369 z"
         id="path11053"
         inkscape:transform-center-y="-97.749123"
         inkscape:transform-center-x="-62.19616" /><path
         inkscape:transform-center-x="-32.162956"
         inkscape:transform-center-y="-111.1899"
         id="path11055"
         d="M 167.6346,573.25146 C 165.02904,582.25387 155.68419,587.40355 146.68193,584.79795 L 103.23024,572.22182 C 94.227986,569.61621 89.078235,560.2715 91.683787,551.26909 C 94.289284,542.26688 103.63414,537.1173 112.63642,539.72271 L 156.08813,552.29894 C 165.09037,554.90445 170.2401,564.24926 167.6346,573.25146 z"
         style="fill:#e8111c;fill-opacity:1;fill-rule:evenodd;stroke:#000000;stroke-width:6.01200008;stroke-linecap:round;stroke-linejoin:round;marker:none;marker-start:none;marker-mid:none;marker-end:none;stroke-miterlimit:4;stroke-dashoffset:0;stroke-opacity:1;visibility:visible;display:inline;overflow:visible;enable-background:accumulate" /><path
         inkscape:transform-center-y="-76.393057"
         id="path11057"
         d="M 376.36622,731.5002 C 369.30801,737.66565 358.66238,736.94703 352.49703,729.8888 L 322.73797,695.8211 C 316.57257,688.76297 317.29112,678.11738 324.34932,671.95193 C 331.40741,665.78649 342.05296,666.50531 348.21846,673.56333 L 377.97746,707.63114 C 384.14291,714.68916 383.42427,725.33485 376.36622,731.5002 z"
         style="fill:#e8111c;fill-opacity:1;fill-rule:evenodd;stroke:#000000;stroke-width:6.01200008;stroke-linecap:round;stroke-linejoin:round;marker:none;marker-start:none;marker-mid:none;marker-end:none;stroke-miterlimit:4;stroke-dashoffset:0;stroke-opacity:1;visibility:visible;display:inline;overflow:visible;enable-background:accumulate"
         inkscape:transform-center-x="-87.227462" /><path
         sodipodi:nodetypes="csssczc"
         d="M -261.82493,707.25971 C -312.85038,767.28965 -342.17066,844.20983 -342.17066,930.25275 C -342.17066,1121.3481 -189.09431,1276.4254 3.1086245e-15,1276.4254 C 189.09431,1276.4254 342.17066,1121.3481 342.17066,930.25275 C 342.17066,844.20983 311.15519,765.17041 262.41988,706.47415 C 494.33273,976.21861 347.97652,1347.3901 0.75005712,1351.4411 C -346.47641,1355.492 -496.23295,968.61266 -261.82493,707.25971 z"
         style="fill:#e8111c;fill-opacity:1;stroke:none;stroke-width:3.59736133000000000;stroke-linejoin:round;stroke-miterlimit:4;stroke-opacity:1"
         id="path11059" /><path
         transform="matrix(1.000499,0,0,1.000499,0,4.791172)"
         style="opacity:1;fill:none;fill-opacity:1;stroke:none;stroke-width:8.01200198999999990;stroke-linejoin:round;stroke-miterlimit:4;stroke-dasharray:none;stroke-opacity:1"
         d="M 0,1401 C 220,1401 399,1222 399,1002 C 399,881 345,773 260,700 C 311,760 342,839 342,925 C 342,1116 189,1271 0,1271 C -189,1271 -342,1116 -342,925 C -342,839 -311,760 -260,700 C -345,773 -399,881 -399,1002 C -399,1222 -220,1401 0,1401 z"
         class="fil2"
         id="path11061" /></g></g></svg>