<?xml version="1.0" encoding="UTF-8" standalone="no"?>
<!-- Created with Inkscape (http://www.inkscape.org/) -->

<svg
   xmlns:dc="http://purl.org/dc/elements/1.1/"
   xmlns:cc="http://creativecommons.org/ns#"
   xmlns:rdf="http://www.w3.org/1999/02/22-rdf-syntax-ns#"
   xmlns:svg="http://www.w3.org/2000/svg"
   xmlns="http://www.w3.org/2000/svg"
   xmlns:sodipodi="http://sodipodi.sourceforge.net/DTD/sodipodi-0.dtd"
   xmlns:inkscape="http://www.inkscape.org/namespaces/inkscape"
   version="1.1"
   width="395.71295"
   height="451.22369"
   viewBox="0 0 395.71295 451.22369"
   id="Layer_1"
   xml:space="preserve"
   inkscape:version="0.48.4 r9939"
   sodipodi:docname="AJAX.svg"><sodipodi:namedview
   pagecolor="#ffffff"
   bordercolor="#666666"
   borderopacity="1"
   objecttolerance="10"
   gridtolerance="10"
   guidetolerance="10"
   inkscape:pageopacity="0"
   inkscape:pageshadow="2"
   inkscape:window-width="1280"
   inkscape:window-height="1001"
   id="namedview97"
   showgrid="false"
   fit-margin-top="0.6"
   fit-margin-right="0.6"
   fit-margin-bottom="0.6"
   fit-margin-left="0.6"
   inkscape:zoom="2.0977395"
   inkscape:cx="290.43102"
   inkscape:cy="275.94853"
   inkscape:window-x="-8"
   inkscape:window-y="-8"
   inkscape:window-maximized="1"
   inkscape:current-layer="Layer_1" /><defs
   id="defs191" /><metadata
   id="metadata382"><rdf:RDF><cc:Work
       rdf:about=""><dc:format>image/svg+xml</dc:format><dc:type
         rdf:resource="http://purl.org/dc/dcmitype/StillImage" /><dc:title /></cc:Work></rdf:RDF></metadata>

<g
   transform="matrix(-1,0,0,1,415.42546,0.63124902)"
   id="g5094"><path
     d="m 77.465901,269.62389 -2.109795,-6.81791 -10.780917,-4.99122 -0.100188,17.30533 c 3.746452,-0.0466 6.008545,-0.0921 10.377382,-1.75584 1.481579,-0.56368 2.097395,-2.29509 2.613518,-3.74036 z"
     id="path5096"
     style="fill:#d20000;fill-rule:evenodd;stroke:#000000;stroke-width:1;stroke-miterlimit:4;stroke-dasharray:none"
     inkscape:connector-curvature="0" /><g
     id="g5098"><path
       d="m 43.022463,276.08048 0.02429,-0.15686 0.05364,-14.82591 c -6.085202,2.04324 -16.00405,3.52667 -18.805591,7.70509 -2.812359,5.13065 6.72222,13.69988 12.956187,13.09875 z"
       id="path5100"
       style="fill:#005bb9;fill-opacity:1;stroke:#000000;stroke-width:1;stroke-miterlimit:4;stroke-dasharray:none"
       inkscape:connector-curvature="0" /><path
       d="m 42.170971,270.26426 c -5.065633,1.11127 -10.878771,2.53903 -10.417871,5.49435 l -2.354724,4.06725 12.629885,0 z"
       id="path5102"
       style="fill:#ffffff;stroke:none"
       inkscape:connector-curvature="0" /></g></g><g
   id="g5074"
   transform="translate(-19.7125,0.63124902)"><path
     d="m 77.465901,269.62389 -2.109795,-6.81791 -10.780917,-4.99122 -0.100188,17.30533 c 3.746452,-0.0466 6.008545,-0.0921 10.377382,-1.75584 1.481579,-0.56368 2.097395,-2.29509 2.613518,-3.74036 z"
     id="path3759"
     style="fill:#d20000;fill-rule:evenodd;stroke:#000000;stroke-width:1;stroke-miterlimit:4;stroke-dasharray:none"
     inkscape:connector-curvature="0" /><g
     id="g5070"><path
       d="m 43.022463,276.08048 0.02429,-0.15686 0.05364,-14.82591 c -6.085202,2.04324 -16.00405,3.52667 -18.805591,7.70509 -2.812359,5.13065 6.72222,13.69988 12.956187,13.09875 z"
       id="path3761"
       style="fill:#005bb9;fill-opacity:1;stroke:#000000;stroke-width:1;stroke-miterlimit:4;stroke-dasharray:none"
       inkscape:connector-curvature="0" /><path
       d="m 42.170971,270.26426 c -5.065633,1.11127 -10.878771,2.53903 -10.417871,5.49435 l -2.354724,4.06725 12.629885,0 z"
       id="path5068"
       style="fill:#ffffff;stroke:none"
       inkscape:connector-curvature="0" /></g></g><g
   transform="matrix(-1,0,0,1,415.42546,0.63124902)"
   id="g5188"><g
     id="g5190"><path
       d="m 396.80514,54.141143 -31.64244,0 0,338.878837 31.64244,0 0,-338.878837 z"
       id="path5192"
       style="fill:#ffffff;fill-rule:evenodd;stroke:#000000;stroke-width:2;stroke-miterlimit:4;stroke-dasharray:none"
       inkscape:connector-curvature="0" /><path
       d="m 402.29933,49.534484 -42.63082,0 0,11.267693 42.63082,0 0,-11.267693 z"
       id="path5194"
       style="fill:#ffffff;fill-rule:evenodd;stroke:#000000;stroke-width:2;stroke-miterlimit:4;stroke-dasharray:none"
       inkscape:connector-curvature="0" /><path
       d="m 396.80514,386.20209 -31.64143,0 c -5.75225,0 -10.41761,4.66535 -10.41761,10.4176 l 0,3.77682 52.47665,-0.13055 0,-3.64627 c 0,-5.75225 -4.66536,-10.4176 -10.41761,-10.4176 z"
       id="path5196"
       style="fill:#ffffff;fill-rule:evenodd;stroke:#000000;stroke-width:2;stroke-miterlimit:4;stroke-dasharray:none"
       inkscape:connector-curvature="0" /><path
       d="m 372.60804,73.97548 c -0.0759,5.563006 -4.64006,10.247589 -10.21015,10.816337 -6.93225,0.706382 -13.01441,-4.786796 -13.64894,-11.601655 -0.72055,-7.74287 5.43043,-14.513201 13.0549,-15.16797 l 38.36014,0 c 7.62447,0.654769 13.77646,7.4251 13.05591,15.16797 -0.63453,6.814859 -6.71669,12.308037 -13.64995,11.601655 -5.56908,-0.568748 -10.13425,-5.253331 -10.21116,-10.816337 l -16.75075,0 z"
       id="path5198"
       style="fill:#ffffff;fill-rule:evenodd;stroke:#000000;stroke-width:2;stroke-linecap:round;stroke-miterlimit:4;stroke-dasharray:none"
       inkscape:connector-curvature="0" /><path
       d="m 380.98443,92.376814 0,282.859156 m 7.72971,-282.859156 0,282.859156 M 373.2537,92.376814 l 0,282.859156"
       id="path5200"
       style="fill:none;stroke:#000000;stroke-width:2;stroke-linecap:round;stroke-miterlimit:4;stroke-dasharray:none"
       inkscape:connector-curvature="0" /><path
       d="m 400.22876,73.419888 c 0.37647,0.04048 0.8845,-0.182162 1.09297,-0.49386 0.78835,-1.178989 -0.27628,-2.615028 -1.42187,-3.006674 -2.04628,-0.702334 -4.06625,0.918902 -4.52772,2.875113 -0.67501,2.871066 1.56456,5.54479 4.33038,6.047758 3.68573,0.670961 7.03244,-2.208201 7.56779,-5.783624 0.67501,-4.499386 -2.85386,-8.525152 -7.23788,-9.08884 -5.31,-0.683105 -10.01988,3.497498 -10.60786,8.692133 -0.69525,6.122646 4.14215,11.516647 10.14538,12.129923 6.93326,0.706382 13.01542,-4.786796 13.64995,-11.601655 0.72055,-7.74287 -5.43144,-14.513201 -13.05591,-15.16797 -8.55247,-0.736741 -16.01299,6.073058 -16.68901,14.508141 l 0,1.370258 m -21.7359,-0.480703 c -0.37546,0.04048 -0.8845,-0.182162 -1.09297,-0.49386 -0.78734,-1.178989 0.27729,-2.615028 1.42187,-3.006674 2.04628,-0.702334 4.06726,0.918902 4.52772,2.875113 0.67602,2.871066 -1.56456,5.54479 -4.32937,6.047758 -3.68674,0.670961 -7.03244,-2.208201 -7.5688,-5.783624 -0.67501,-4.499386 2.85386,-8.525152 7.23788,-9.08884 5.31101,-0.683105 10.01988,3.497498 10.60887,8.692133 0.69424,6.122646 -4.14316,11.516647 -10.14639,12.129923 -6.93225,0.706382 -13.01441,-4.786796 -13.64894,-11.601655 -0.72055,-7.74287 5.43043,-14.513201 13.0549,-15.16797 8.55348,-0.736741 16.01299,6.073058 16.68901,14.508141 l 0,1.370258"
       id="path5202"
       style="fill:none;stroke:#000000;stroke-width:2;stroke-linecap:round;stroke-miterlimit:4;stroke-dasharray:none"
       inkscape:connector-curvature="0" /></g></g><g
   id="g5050"
   transform="translate(-19.7125,0.63124902)"><path
     d="m 276.83569,93.609439 50.32309,-25.090704 c -1.59695,-3.194908 -3.32647,-6.310879 -5.18553,-9.338806 l -56.18464,34.42951 11.04708,0 z M 217.56949,0.71624982 c 1.79024,0 3.56935,0.0455403 5.34036,0.12245292 l -4.05107,92.77073626 -2.5796,0 -4.05107,-92.77073626 c 1.77203,-0.0769126 3.55113,-0.12245292 5.34138,-0.12245292 z m 13.25325,0.71650138 c 3.56834,0.3855749 7.09114,0.9209269 10.56131,1.6070681 l -17.95706,90.5696197 -2.64033,0 10.03608,-92.1766878 z m 18.29507,3.3973095 c 3.46107,0.9209269 6.86242,1.9835349 10.19497,3.193896 l -31.03018,85.5854823 -2.83463,0 23.66984,-88.7793783 z m 17.56238,6.1469343 c 3.27283,1.435027 6.4728,3.00465 9.58877,4.710895 l -42.55998,77.921549 -3.20401,0 36.17522,-82.632444 z m 16.42084,8.746782 c 3.01173,1.913706 5.93238,3.954925 8.75791,6.115561 l -51.73282,67.770101 -3.83551,0 46.81042,-73.885662 z m 14.90586,11.133095 c 2.68384,2.341786 5.26547,4.79894 7.73578,7.363367 l -57.49822,55.3892 -4.92443,0 54.68687,-62.752567 z m 13.05388,13.255276 c 2.29928,2.71724 4.48522,5.530621 6.54364,8.442167 l -58.16817,41.055124 -6.91808,0 58.54261,-49.497291 z M 107.97918,68.519747 c 1.59695,-3.194908 3.32647,-6.311891 5.18654,-9.339818 l 56.18363,34.42951 -11.04708,0 -50.32309,-25.089692 z m 9.55437,-15.965432 c 2.05842,-2.911546 4.24537,-5.724927 6.54364,-8.441155 l 58.54261,49.496279 -6.91808,0 -58.16817,-41.055124 z m 11.86174,-14.333064 c 2.47031,-2.564427 5.05194,-5.022593 7.7368,-7.364379 l 54.68585,62.752567 -4.92443,0 -57.49822,-55.388188 z M 143.27902,25.84035 c 2.82553,-2.160636 5.74618,-4.202867 8.75791,-6.115561 l 46.81042,73.88465 -3.83551,0 -51.73282,-67.769089 z m 15.59099,-10.15246 c 3.11496,-1.706245 6.31493,-3.274856 9.58776,-4.709883 l 36.17522,82.631432 -3.203,0 -42.55998,-77.921549 z m 16.95517,-7.6639333 c 3.33255,-1.2093491 6.73492,-2.2729691 10.19497,-3.193896 L 209.69,93.609439 l -2.83464,0 -31.03018,-85.5854823 z m 17.92873,-4.9841374 c 3.47018,-0.6851292 6.99297,-1.2214932 10.56131,-1.6070681 l 10.03608,92.1766878 -2.64033,0 -17.95706,-90.5696197 z"
     id="path3765"
     style="fill:#fff500;fill-rule:evenodd;stroke:#cc9933;stroke-width:1.5;stroke-miterlimit:4;stroke-dasharray:none"
     inkscape:connector-curvature="0" /><path
     d="m 217.56949,55.063082 c 37.58596,0 68.09495,30.507981 68.09495,68.094958 0,37.58697 -30.50899,68.09596 -68.09495,68.09596 -37.58698,0 -68.09597,-30.50899 -68.09597,-68.09596 0,-37.586977 30.50899,-68.094958 68.09597,-68.094958 z"
     id="path3767"
     style="fill:#fff500;fill-rule:evenodd;stroke:#cc9933;stroke-width:1.5;stroke-miterlimit:4;stroke-dasharray:none"
     inkscape:connector-curvature="0" /></g><path
   d="M 197.858,404.21052 C 123.24268,389.36032 66.79087,320.43856 66.79087,237.66949 l 0,-155.010217 262.13122,0 0,155.010217 c 0,82.76907 -56.44978,151.69083 -131.06409,166.54103 z"
   id="path3769"
   style="fill:#d20000;fill-rule:evenodd;stroke:#000000;stroke-width:2.0241468"
   inkscape:connector-curvature="0" /><g
   id="g5120"
   transform="translate(-19.7125,0.63124902)"><g
     id="g5040"><path
       d="m 396.80514,54.141143 -31.64244,0 0,338.878837 31.64244,0 0,-338.878837 z"
       id="path3787"
       style="fill:#ffffff;fill-rule:evenodd;stroke:#000000;stroke-width:2;stroke-miterlimit:4;stroke-dasharray:none"
       inkscape:connector-curvature="0" /><path
       d="m 402.29933,49.534484 -42.63082,0 0,11.267693 42.63082,0 0,-11.267693 z"
       id="path3789"
       style="fill:#ffffff;fill-rule:evenodd;stroke:#000000;stroke-width:2;stroke-miterlimit:4;stroke-dasharray:none"
       inkscape:connector-curvature="0" /><path
       d="m 396.80514,386.20209 -31.64143,0 c -5.75225,0 -10.41761,4.66535 -10.41761,10.4176 l 0,3.77682 52.47665,-0.13055 0,-3.64627 c 0,-5.75225 -4.66536,-10.4176 -10.41761,-10.4176 z"
       id="path3791"
       style="fill:#ffffff;fill-rule:evenodd;stroke:#000000;stroke-width:2;stroke-miterlimit:4;stroke-dasharray:none"
       inkscape:connector-curvature="0" /><path
       d="m 372.60804,73.97548 c -0.0759,5.563006 -4.64006,10.247589 -10.21015,10.816337 -6.93225,0.706382 -13.01441,-4.786796 -13.64894,-11.601655 -0.72055,-7.74287 5.43043,-14.513201 13.0549,-15.16797 l 38.36014,0 c 7.62447,0.654769 13.77646,7.4251 13.05591,15.16797 -0.63453,6.814859 -6.71669,12.308037 -13.64995,11.601655 -5.56908,-0.568748 -10.13425,-5.253331 -10.21116,-10.816337 l -16.75075,0 z"
       id="path3793"
       style="fill:#ffffff;fill-rule:evenodd;stroke:#000000;stroke-width:2;stroke-linecap:round;stroke-miterlimit:4;stroke-dasharray:none"
       inkscape:connector-curvature="0" /><path
       d="m 380.98443,92.376814 0,282.859156 m 7.72971,-282.859156 0,282.859156 M 373.2537,92.376814 l 0,282.859156"
       id="path3795"
       style="fill:none;stroke:#000000;stroke-width:2;stroke-linecap:round;stroke-miterlimit:4;stroke-dasharray:none"
       inkscape:connector-curvature="0" /><path
       d="m 400.22876,73.419888 c 0.37647,0.04048 0.8845,-0.182162 1.09297,-0.49386 0.78835,-1.178989 -0.27628,-2.615028 -1.42187,-3.006674 -2.04628,-0.702334 -4.06625,0.918902 -4.52772,2.875113 -0.67501,2.871066 1.56456,5.54479 4.33038,6.047758 3.68573,0.670961 7.03244,-2.208201 7.56779,-5.783624 0.67501,-4.499386 -2.85386,-8.525152 -7.23788,-9.08884 -5.31,-0.683105 -10.01988,3.497498 -10.60786,8.692133 -0.69525,6.122646 4.14215,11.516647 10.14538,12.129923 6.93326,0.706382 13.01542,-4.786796 13.64995,-11.601655 0.72055,-7.74287 -5.43144,-14.513201 -13.05591,-15.16797 -8.55247,-0.736741 -16.01299,6.073058 -16.68901,14.508141 l 0,1.370258 m -21.7359,-0.480703 c -0.37546,0.04048 -0.8845,-0.182162 -1.09297,-0.49386 -0.78734,-1.178989 0.27729,-2.615028 1.42187,-3.006674 2.04628,-0.702334 4.06726,0.918902 4.52772,2.875113 0.67602,2.871066 -1.56456,5.54479 -4.32937,6.047758 -3.68674,0.670961 -7.03244,-2.208201 -7.5688,-5.783624 -0.67501,-4.499386 2.85386,-8.525152 7.23788,-9.08884 5.31101,-0.683105 10.01988,3.497498 10.60887,8.692133 0.69424,6.122646 -4.14316,11.516647 -10.14639,12.129923 -6.93225,0.706382 -13.01441,-4.786796 -13.64894,-11.601655 -0.72055,-7.74287 5.43043,-14.513201 13.0549,-15.16797 8.55348,-0.736741 16.01299,6.073058 16.68901,14.508141 l 0,1.370258"
       id="path3797"
       style="fill:none;stroke:#000000;stroke-width:2;stroke-linecap:round;stroke-miterlimit:4;stroke-dasharray:none"
       inkscape:connector-curvature="0" /></g></g><path
   d="m -19.712504,284.49103 c 40.862843,6.68128 66.865366,21.83609 89.037441,54.59984 31.035233,45.85912 74.700333,81.06586 134.400683,86.4386"
   id="path3799"
   style="fill:none;stroke:none"
   inkscape:connector-curvature="0" /><g
   transform="matrix(1.0120076,0,0,1.0120076,-175.28742,-201.29589)"
   id="g3813"
   style="fill-rule:evenodd;stroke-width:1.48220229;stroke-miterlimit:4;stroke-dasharray:none"><path
     d="m 292.915,381.973 c 7.43,-2.967 21.578,-2.929 30.674,1.941 l -2.047,5.678 c -9.179,-5.069 -18.687,-6.968 -28.627,-7.619 z"
     id="path3815"
     style="fill:#ffffff;stroke:#000000;stroke-width:1.48220229;stroke-miterlimit:4;stroke-dasharray:none"
     inkscape:connector-curvature="0" /><path
     d="m 324.096,383.014 -8.898,-14.517 c -7.906,-3.987 -22.698,-4.067 -25.521,8.195 8.468,-1.796 18.146,-0.47 25.99,7.727 -4.918,2.739 -11.239,2.736 -16.156,2.341 4.995,6.439 11.551,8.233 19.668,6.556 l 4.683,-4.683 0.234,-5.619 z"
     id="path3817"
     style="fill:#ffffff;stroke:#000000;stroke-width:1.97626972;stroke-miterlimit:4;stroke-dasharray:none"
     inkscape:connector-curvature="0" /><g
     id="g3819"
     style="stroke-width:1.48220229;stroke-miterlimit:4;stroke-dasharray:none"><path
       d="m 378.987,503.022 c -2.667,1.844 -4.423,4.975 -4.423,8.527 0,0.847 0.101,1.669 0.289,2.456 -2.904,-1.797 -4.848,-5.067 -4.848,-8.804 0,-1.003 0.141,-1.972 0.402,-2.888 l 7.571,0 1.009,0.709 z"
       id="path3821"
       style="fill:#ffffff;stroke:#000000;stroke-width:1.97626972;stroke-miterlimit:4;stroke-dasharray:none"
       inkscape:connector-curvature="0" /><path
       d="m 398.039,503.022 c -2.668,1.844 -4.423,4.975 -4.423,8.527 0,0.847 0.101,1.669 0.289,2.456 -2.904,-1.797 -4.848,-5.067 -4.848,-8.804 0,-1.003 0.141,-1.972 0.402,-2.888 l 7.57,0 1.01,0.709 z"
       id="path3823"
       style="fill:#ffffff;stroke:#000000;stroke-width:1.97626972;stroke-miterlimit:4;stroke-dasharray:none"
       inkscape:connector-curvature="0" /><path
       d="m 388.513,503.022 c -2.668,1.844 -4.423,4.975 -4.423,8.527 0,0.847 0.101,1.669 0.289,2.456 -2.904,-1.797 -4.848,-5.067 -4.848,-8.804 0,-1.003 0.141,-1.972 0.402,-2.888 l 7.571,0 1.009,0.709 z"
       id="path3825"
       style="fill:#ffffff;stroke:#000000;stroke-width:1.97626972;stroke-miterlimit:4;stroke-dasharray:none"
       inkscape:connector-curvature="0" /></g><g
     id="g3827"
     style="stroke-width:1.48220229;stroke-miterlimit:4;stroke-dasharray:none"><path
       d="m 418.355,503.022 c -2.668,1.844 -4.423,4.975 -4.423,8.527 0,0.847 0.1,1.669 0.289,2.456 -2.904,-1.797 -4.848,-5.067 -4.848,-8.804 0,-1.003 0.141,-1.972 0.402,-2.888 l 7.57,0 1.01,0.709 z"
       id="path3829"
       style="fill:#ffffff;stroke:#000000;stroke-width:1.97626972;stroke-miterlimit:4;stroke-dasharray:none"
       inkscape:connector-curvature="0" /><path
       d="m 437.406,503.022 c -2.667,1.844 -4.423,4.975 -4.423,8.527 0,0.847 0.101,1.669 0.289,2.456 -2.904,-1.797 -4.847,-5.067 -4.847,-8.804 0,-1.003 0.141,-1.972 0.401,-2.888 l 7.571,0 1.009,0.709 z"
       id="path3831"
       style="fill:#ffffff;stroke:#000000;stroke-width:1.97626972;stroke-miterlimit:4;stroke-dasharray:none"
       inkscape:connector-curvature="0" /><path
       d="m 427.881,503.022 c -2.668,1.844 -4.424,4.975 -4.424,8.527 0,0.847 0.101,1.669 0.289,2.456 -2.904,-1.797 -4.847,-5.067 -4.847,-8.804 0,-1.003 0.141,-1.972 0.401,-2.888 l 7.571,0 1.01,0.709 z"
       id="path3833"
       style="fill:#ffffff;stroke:#000000;stroke-width:1.97626972;stroke-miterlimit:4;stroke-dasharray:none"
       inkscape:connector-curvature="0" /></g><g
     id="g3835"
     style="stroke-width:1.48220229;stroke-miterlimit:4;stroke-dasharray:none"><path
       d="m 295.723,503.022 c -2.667,1.844 -4.423,4.975 -4.423,8.527 0,0.847 0.101,1.669 0.289,2.456 -2.904,-1.797 -4.847,-5.067 -4.847,-8.804 0,-1.003 0.141,-1.972 0.401,-2.888 l 7.571,0 1.009,0.709 z"
       id="path3837"
       style="fill:#ffffff;stroke:#000000;stroke-width:1.97626972;stroke-miterlimit:4;stroke-dasharray:none"
       inkscape:connector-curvature="0" /><path
       d="m 314.775,503.022 c -2.667,1.844 -4.423,4.975 -4.423,8.527 0,0.847 0.101,1.669 0.289,2.456 -2.904,-1.797 -4.848,-5.067 -4.848,-8.804 0,-1.003 0.141,-1.972 0.402,-2.888 l 7.571,0 1.009,0.709 z"
       id="path3839"
       style="fill:#ffffff;stroke:#000000;stroke-width:1.97626972;stroke-miterlimit:4;stroke-dasharray:none"
       inkscape:connector-curvature="0" /><path
       d="m 305.249,503.022 c -2.667,1.844 -4.423,4.975 -4.423,8.527 0,0.847 0.101,1.669 0.289,2.456 -2.904,-1.797 -4.847,-5.067 -4.847,-8.804 0,-1.003 0.141,-1.972 0.401,-2.888 l 7.571,0 1.009,0.709 z"
       id="path3841"
       style="fill:#ffffff;stroke:#000000;stroke-width:1.97626972;stroke-miterlimit:4;stroke-dasharray:none"
       inkscape:connector-curvature="0" /></g><g
     id="g3843"
     style="stroke-width:1.48220229;stroke-miterlimit:4;stroke-dasharray:none"><path
       d="m 265.193,421.711 c -2.667,-1.844 -4.423,-4.975 -4.423,-8.527 0,-0.847 0.101,-1.669 0.289,-2.456 -2.904,1.797 -4.848,5.067 -4.848,8.804 0,1.003 0.72803,2.26552 0.98903,3.18152 L 264.184,422.42 z"
       id="path3845"
       style="fill:#ffffff;stroke:#000000;stroke-width:1.97626972;stroke-miterlimit:4;stroke-dasharray:none"
       inkscape:connector-curvature="0" /><path
       d="m 284.245,421.711 c -2.668,-1.844 -4.423,-4.975 -4.423,-8.527 0,-0.847 0.101,-1.669 0.289,-2.456 -2.904,1.797 -4.848,5.067 -4.848,8.804 0,1.003 0.141,1.972 0.402,2.888 l 7.57,0 1.01,-0.709 z"
       id="path3847"
       style="fill:#ffffff;stroke:#000000;stroke-width:1.97626972;stroke-miterlimit:4;stroke-dasharray:none"
       inkscape:connector-curvature="0" /><path
       d="m 274.719,421.711 c -2.668,-1.844 -4.423,-4.975 -4.423,-8.527 0,-0.847 0.101,-1.669 0.289,-2.456 -2.904,1.797 -4.848,5.067 -4.848,8.804 0,1.003 0.141,1.972 0.402,2.888 l 7.571,0 1.009,-0.709 z"
       id="path3849"
       style="fill:#ffffff;stroke:#000000;stroke-width:1.97626972;stroke-miterlimit:4;stroke-dasharray:none"
       inkscape:connector-curvature="0" /></g><path
     d="m 389.72,481.51 c -15.252,-14.855 -17.808,-28.335 -9.847,-40.675 l 37.976,1.762 c -1.267,15.904 -15.602,24.46 -1.283,40.546 -5.562,5.388 -12.978,10.889 -15.188,20.753 l -31.373,0 c 1.269,-6.507 7.425,-11.216 14.212,-10.482 4.704,-2.828 6.848,-6.488 5.503,-11.904 z"
     id="path3851"
     style="fill:#ffffff;stroke:#000000;stroke-width:1.97626972;stroke-miterlimit:4;stroke-dasharray:none"
     inkscape:connector-curvature="0" /><path
     d="m 380.431,383.535 c 11.76,1.373 23.669,-1.014 35.773,-8.327 15.593,-9.949 23.112,13.165 4.387,22.57 -14.211,7.136 -29.612,5.01 -46.141,-0.846 l 5.981,-13.397 z"
     id="path3853"
     style="fill:#ffffff;stroke:#000000;stroke-width:1.97626972;stroke-miterlimit:4;stroke-dasharray:none"
     inkscape:connector-curvature="0" /><path
     d="m 363.218,367.766 c -2.933,-12.12 -9.633,-23.016 -21.273,-32.308 -15.516,-11.778 4.58,-27.637 20.701,-12.565 12.232,11.438 15.748,27.43 15.989,45.897 l -15.417,-1.024 z"
     id="path3855"
     style="fill:#ffffff;stroke:#000000;stroke-width:1.97626972;stroke-miterlimit:4;stroke-dasharray:none"
     inkscape:connector-curvature="0" /><path
     d="m 318.846,452.185 -12.699,9.478 c -7.362,-16.115 -17.557,-27.51 -31.894,-32.005 -7.416,3.091 -16.247,-1.436 -17.812,-9.56 l 32.273,0 c 11.287,11.24 22.575,18.945 33.861,23.986 l -3.729,8.101 z"
     id="path3857"
     style="fill:#ffffff;stroke:#000000;stroke-width:1.97626972;stroke-miterlimit:4;stroke-dasharray:none"
     inkscape:connector-curvature="0" /><path
     d="m 345.84,413.931 c -0.889,-11.466 -0.832,-23.058 -2.562,-34.354 -0.921,-6.019 -2.675,-11.623 -7.426,-15.728 3.226,-0.82 4.873,-3.219 6.294,-5.845 -3.897,0.978 -7.798,1.751 -11.689,0.9 -12.482,-2.731 -19.137,0.171 -19.853,8.07 6.393,9.131 14.376,18.996 4.342,28.345 -5.292,17.843 -8.52,38.217 -2.054,51.858 5.678,11.979 26.231,21.461 38.945,17.379 12.93,-4.154 25.939,-9.857 38.093,-17.007 l 0.478,2.753 10.168,-5.265 -0.303,-1.77 c 1.549,12.199 11.915,24.252 30.412,28.474 2.466,2.388 3.68,5 3.961,7.689 0.84,8.028 -7.076,10.116 -11.261,13.984 -6.787,-0.734 -12.943,3.975 -14.212,10.482 l 31.373,0 c 1.796,-8.014 7.227,-13.3 13.207,-18.175 l 0.699,-26.572 c -18.992,-5.781 -13.865,-18.788 -18.516,-32.134 6.841,-0.319 13.706,-1.19 20.19,-3.134 2.424,1.931 4.322,3.958 5.378,6.625 -0.936,2.143 -1.462,4.556 -1.462,7.109 0,5.787 2.702,10.859 6.756,13.687 4.053,-2.828 6.757,-7.9 6.757,-13.687 0,-2.918 -0.688,-5.654 -1.89,-8.012 -0.958,-4.281 -2.867,-7.401 -5.409,-10.047 4.739,-2.497 8.872,-5.773 11.657,-9.975 6.005,-9.058 4.541,-21.458 -3.153,-29.151 -4.23,-4.23 -10.09,-6.848 -16.576,-6.851 -6.006,-0.003 -12.011,2.282 -16.581,6.851 -6.425,6.425 -8.333,15.69 -5.723,23.801 1.796,5.581 5.075,8.875 9.082,11.836 -5.511,0.867 -11.321,1.033 -16.771,0.656 -5.506,-3.595 -13.33,-4.266 -22.653,-3.134 -9.725,1.181 -17.694,5.425 -27.152,7.46 -8.087,1.74 -31.599,5.08 -32.546,-7.118 z m 111.674,-1.257 c 4.68,-1.83 9.066,-4.328 11.684,-7.96 3.833,-5.316 3.218,-12.599 -1.453,-17.27 -5.263,-5.263 -13.846,-5.28 -19.127,0 -3.8,3.8 -4.869,9.288 -3.207,14.038 1.888,5.395 7.004,7.705 11.434,10.734 0.224,0.153 0.447,0.306 0.669,0.458 z"
     id="path3859"
     style="fill:#ffffff;stroke:#000000;stroke-width:1.97626972;stroke-miterlimit:4;stroke-dasharray:none"
     inkscape:connector-curvature="0" /><path
     d="m 306.711,418.628 7.721,-22.971 9.847,0 c -1.513,12.965 -6.79,21.33 -17.568,22.971 z"
     id="path3861"
     style="fill:#ffffff;stroke:#000000;stroke-width:1.97626972;stroke-miterlimit:4;stroke-dasharray:none"
     inkscape:connector-curvature="0" /><path
     d="m 444.902,409.488 c 11.201,9.625 21.585,11.771 22.435,24.823"
     id="path3863"
     style="fill:none;stroke:none"
     inkscape:connector-curvature="0" /><path
     d="m 323.583,367.645 c 1.953,0 3.537,0.905 3.537,2.02 0,1.116 -1.584,2.021 -3.537,2.021 -1.954,0 -3.538,-0.905 -3.538,-2.021 0,-1.115 1.584,-2.02 3.538,-2.02 z"
     id="path3865"
     style="fill:#ffffff;stroke:#000000;stroke-width:1.48220229;stroke-miterlimit:4;stroke-dasharray:none"
     inkscape:connector-curvature="0" /><path
     d="m 322.127,367.583 c 1.15,0 2.082,0.933 2.082,2.082 0,1.15 -0.932,2.082 -2.082,2.082 -1.15,0 -2.082,-0.932 -2.082,-2.082 0,-1.149 0.932,-2.082 2.082,-2.082 z"
     id="path3867"
     style="fill:#000000;stroke:none"
     inkscape:connector-curvature="0" /><path
     d="m 457.514,412.674 c 3.045,2.084 6.144,4.199 8.716,6.866 m -21.268,-3.473 c 3.651,2.698 7.61,4.983 11.164,7.814"
     id="path3869"
     style="fill:none;stroke:#000000;stroke-width:1.97626972;stroke-miterlimit:4;stroke-dasharray:none"
     inkscape:connector-curvature="0" /><path
     d="m 334.48,407.629 6.176,10e-4 c 0,3.385 -1.236,6.352 -3.088,8.007 -1.853,-1.655 -3.088,-4.622 -3.088,-8.008 z m -8.567,0 6.177,10e-4 c 0,3.385 -1.236,6.352 -3.089,8.007 -1.853,-1.655 -3.088,-4.622 -3.088,-8.008 z m 2.049,-11.639 6.176,0 c 0,3.385 -1.236,6.352 -3.089,8.007 -1.852,-1.655 -3.087,-4.622 -3.087,-8.007 z m -14.899,23.279 6.176,0 c 0,3.386 -1.236,6.353 -3.088,8.008 -1.853,-1.655 -3.088,-4.622 -3.088,-8.008 z m 8.567,0 6.176,0 c 0,3.386 -1.236,6.353 -3.089,8.008 -1.852,-1.655 -3.087,-4.622 -3.087,-8.008 z m 8.567,0 6.176,0 c 0,3.386 -1.236,6.353 -3.089,8.008 -1.852,-1.655 -3.087,-4.622 -3.087,-8.008 z m 6.332,-23.279 6.176,0 c 0,3.385 -1.236,6.352 -3.089,8.007 -1.852,-1.655 -3.087,-4.622 -3.087,-8.007 z"
     id="path3871"
     style="fill:#000000;stroke:#ffffff;stroke-width:0.49406743;stroke-miterlimit:4;stroke-opacity:1;stroke-dasharray:none"
     inkscape:connector-curvature="0" /><g
     id="g3873"
     style="stroke-width:1.48220229;stroke-miterlimit:4;stroke-dasharray:none"><path
       d="m 288.902,405.082 c -4.17,3.603 -12.079,6.037 -21.15,6.037 -9.071,0 -16.98,-2.433 -21.15,-6.037 6.223,1.009 13.446,1.587 21.151,1.587 7.704,0 14.927,-0.578 21.149,-1.587 z"
       id="path3875"
       style="fill:#ffffff;stroke:#000000;stroke-width:1.48220229;stroke-miterlimit:4;stroke-dasharray:none"
       inkscape:connector-curvature="0" /><path
       d="m 267.802,406.232 c 6.838,0 19.472,-4.18 21.33,-11.733 -0.161,-2.23 -2.849,-4.125 -4.957,-2.755 0.889,-3.29 -4.276,-5.284 -5.96,-2.565 -0.136,-3.517 -5.121,-4.289 -6.706,-1.393 -1.23,-3.212 -6.183,-3.212 -7.414,0 -1.585,-2.896 -6.57,-2.124 -6.706,1.393 -1.684,-2.719 -6.849,-0.725 -5.96,2.565 -2.107,-1.37 -4.796,0.525 -4.957,2.755 1.859,7.553 14.493,11.733 21.33,11.733 z"
       id="path3877"
       style="fill:#ffffff;stroke:#000000;stroke-width:1.48220229;stroke-linejoin:round;stroke-miterlimit:4;stroke-dasharray:none"
       inkscape:connector-curvature="0" /><path
       d="m 267.752,393.818 c 2.855,0 5.172,2.317 5.172,5.172 0,2.855 -2.317,5.173 -5.172,5.173 -2.855,0 -5.173,-2.318 -5.173,-5.173 0,-2.855 2.318,-5.172 5.173,-5.172 z"
       id="path3879"
       style="fill:#005bb9;stroke:none"
       inkscape:connector-curvature="0" /></g><path
     d="m 372.716,363.686 c 1.978,-12.153 0.058,-24.635 -6.971,-37.552 -9.603,-16.665 14.76,-23.393 23.652,-3.497 6.747,15.095 3.816,30.994 -3.045,47.891 -4.545,-2.28 -9.091,-4.561 -13.636,-6.842 z"
     id="path3881"
     style="fill:#ffffff;stroke:#000000;stroke-width:1.97626972;stroke-miterlimit:4;stroke-dasharray:none"
     inkscape:connector-curvature="0" /><path
     d="m 381.8,366.403 c 7.009,-9.932 10.699,-21.841 10.044,-36.344 -1.321,-18.942 23.211,-14.382 22.504,7.119 -0.537,16.315 -10.01,29.16 -23.402,41.192 -3.049,-3.989 -6.098,-7.978 -9.146,-11.967 z"
     id="path3883"
     style="fill:#ffffff;stroke:#000000;stroke-width:1.97626972;stroke-miterlimit:4;stroke-dasharray:none"
     inkscape:connector-curvature="0" /><path
     d="m 386.507,373.216 c 10.825,-5.175 19.746,-13.653 26.173,-26.461 7.995,-16.951 26.926,-1.196 15.951,16.982 -8.328,13.793 -22.681,20.288 -40.016,24.195 l -12.72631,-4.11289 z"
     id="path3885"
     style="fill:#ffffff;stroke:#000000;stroke-width:1.97626972;stroke-miterlimit:4;stroke-dasharray:none"
     inkscape:connector-curvature="0" /><path
     d="m 357.258,378.935 c -12.368,42.8 -29.463,81.661 -52.705,115.401 -7.416,-3.09 -16.247,1.436 -17.811,9.56 l 32.272,0 c 5.967,-15.288 15.306,-27.816 31.555,-34.691 l 1.391,-17.044 c 1.707,0.382 3.528,0.589 5.42,0.589 6.334,0 11.887,-2.313 14.984,-5.78 -1.092,-1.222 -2.49,-2.301 -4.118,-3.185 0.29,0.008 0.582,0.013 0.874,0.013 7.679,0 14.409,-2.803 18.163,-7.005 -3.56,-3.986 -9.798,-6.711 -16.982,-6.982 0.166,-0.345 0.33,-0.692 0.49,-1.042 0.279,0.008 0.561,0.012 0.843,0.012 7.809,0 14.653,-2.85 18.47,-7.124 -3.16,-3.539 -8.398,-6.102 -14.54,-6.878 0.106,-0.418 0.211,-0.837 0.312,-1.258 0.202,0.003 0.404,0.006 0.607,0.006 7.939,0 14.898,-2.898 18.779,-7.243 -3.516,-3.936 -9.557,-6.683 -16.564,-7.166 l 0.184,-1.109 c 0.424,0.016 0.851,0.026 1.282,0.026 8.069,0 15.142,-2.946 19.087,-7.362 -3.535,-3.957 -9.582,-6.733 -16.606,-7.267 0.364,-0.35 0.712,-0.718 1.042,-1.102 l 0.158,0.001 c 8.2,0 15.387,-2.993 19.395,-7.481 -3.499,-3.916 -9.419,-6.693 -16.319,-7.336 -1.917,-6.663 -8.058,-11.539 -15.336,-11.539 -8.811,0 -15.957,7.146 -15.957,15.957 0,2.523 0.587,4.908 1.63,7.029 z"
     id="path3887"
     style="fill:#ffffff;stroke:#000000;stroke-width:1.97626972;stroke-miterlimit:4;stroke-dasharray:none"
     inkscape:connector-curvature="0" /></g><g
   transform="matrix(1.0120076,0,0,1.0120076,-175.28742,-161.29589)"
   id="g3805"
   style="fill-rule:evenodd" /><g
   id="g5113"
   transform="translate(-19.7125,0.63124902)"><g
     transform="translate(0,-20)"
     id="g5108"><path
       d="m 21.90625,231 c 7.605237,7.72161 15.366011,15.91964 21.8125,24.125 -7.08203,3.02287 -13.932838,6.74199 -20.5625,11.125 16.876239,4.70279 33.316849,11.14769 48.5,19.8125 2.99453,1.70624 6.382433,3.78161 3.348434,7.26797 3.946826,-2.03488 2.919836,-8.98068 2.370316,-12.86172 -0.89259,-6.30582 0.802829,-10.34488 2.25,-16.78125 1.751786,-7.7874 -0.968571,-12.29978 -8,-15.5625 C 55.713205,240.7414 38.937326,235.1047 21.90625,231 z m 2.906389,57.21875 c -3.288013,2.56645 -1.175236,7.07923 -0.218889,12.875 0.892077,5.40262 -0.246462,10.51235 -1.40625,15.6875 -1.102815,4.44127 -2.119182,9.28593 3.1875,11.03125 12.209872,3.99743 22.203943,10.6744 31.4375,19.46875 8.522116,8.1163 15.339,17.91098 22.25,27.5625 31.19108,43.55377 75.38676,77.39507 129.03125,85.4375 l -1.3125,-33.46875 -0.4375,-0.9375 -0.71875,-0.625 c -41.29801,-9.20017 -74.98072,-36.06936 -99.59375,-70.53125 -8.170951,-11.43872 -16.048997,-22.68895 -26.5,-32.40625 -12.740163,-11.84555 -27.419165,-20.29458 -43.25,-26.1875 -1.776073,-0.66084 -3.588685,-1.27184 -5.40625,-1.875 -2.853862,-0.94521 -9.883206,-2.33703 -7.062361,-6.03125 z"
       id="path5104"
       style="fill:#ffffff;stroke:none"
       inkscape:connector-curvature="0" /><path
       d="m 175.387,388.2643 c 16.829,4.056 33.4,9.614 49.123,16.91 6.948,3.224 9.637,7.7 7.906,15.395 -0.072,0.32 -0.141,0.64 -0.207,0.961 -1.351,-4.023 -3.961,-6.425 -7.808,-8.28 -7.883,-3.8 -16.003,-7.141 -24.277,-10.052 -4.904,-1.725 -9.829,-3.14 -14.795,-4.56 -3.26,-3.524 -6.615,-6.996 -9.942,-10.374 z m 2.8601,56.54055 c -2.77257,2.16412 -1.65289,5.72489 -0.67934,10.28278 1.52182,1.18616 3.49206,2.0548 5.03331,2.56297 4.094,1.351 8.10689,2.87113 12.04289,4.57013 12.256,5.29099 23.63835,12.33132 33.65835,21.64633 9.316,8.66299 16.60883,18.90134 24.05491,29.33525 l 1.14253,1.57484 0,0.0308 0.0308,0 c 4.02001,5.627 8.283,11.06934 12.78399,16.27335 4.528,5.234 9.27932,10.20777 14.23532,14.88378 17.1,16.13599 36.87969,28.92751 59.1337,36.6845 l 1.14253,2.06891 18.80544,15.03818 -0.49407,-17.41588 c -0.159,-1.70799 -0.71319,-1.85382 -2.25418,-2.34682 -40.35001,-9.3 -73.27104,-35.70424 -97.39305,-69.47823 -8.07395,-11.30295 -15.85752,-22.4197 -26.18552,-32.0217 -14.005,-13.021 -30.39194,-21.86353 -48.07894,-27.72953 -4.38083,-1.28415 -9.25013,-2.67808 -6.9787,-5.95969 z"
       transform="matrix(1.0120076,0,0,1.0120076,-155.57492,-161.92714)"
       id="path3809"
       style="fill:#005bb9;fill-rule:evenodd;stroke:none"
       inkscape:connector-curvature="0" /><path
       d="m 31.75,261 c -2.904462,1.61921 -5.771261,3.38385 -8.59375,5.25 16.876239,4.70279 33.316849,11.14769 48.5,19.8125 2.945542,1.67833 5.962995,3.86469 3.5625,7.15625 3.316786,-1.96162 2.833309,-7.60948 2.3125,-11.5 -1.103868,-1.2986 -2.537861,-2.3331 -4.25,-3.28125 C 60.130211,271.15205 46.115448,265.42349 31.75,261 z m -8.71875,56.375 c -0.217939,0.89956 -0.424718,1.79636 -0.5625,2.6875 -0.0031,0.0202 0.0031,0.0423 0,0.0625 -0.502353,3.31803 -0.07376,6.37851 3.90625,7.6875 0.699798,0.22911 1.376986,0.47214 2.0625,0.71875 l 0,0.3125 c 10.714713,4.30375 20.679019,10.22962 29.375,18.4375 8.558549,8.07784 15.339,17.91098 22.25,27.5625 31.19108,43.55377 75.38676,77.39406 129.03125,85.4375 l -0.3125,-7.5625 c -3.23539,-0.51207 -6.42123,-1.14142 -9.5625,-1.84375 -7.43016,-1.66071 -14.73707,-3.88144 -21.9375,-6.625 C 140.50084,430.23876 109.55905,403.22226 86.125,370.5 l -1.5625,-2.15625 c -6.603349,-9.24672 -13.217119,-18.5355 -21.65625,-26.5 -9.059492,-8.55045 -19.353226,-14.79162 -30.375,-19.375 -1.758869,-0.73168 -3.518211,-1.41279 -5.3125,-2.0625 -1.975076,-0.7139 -3.172608,-1.53311 -4.1875,-3.03125 z"
       id="path3811"
       style="fill:#d20000;fill-rule:evenodd;stroke:none"
       inkscape:connector-curvature="0" /></g><path
     d="m 21.90625,211 c 7.605237,7.72161 15.366011,15.91964 21.8125,24.125 -7.08203,3.02287 -13.932838,6.74199 -20.5625,11.125 16.876239,4.70279 33.316849,11.14769 48.5,19.8125 2.99453,1.70624 6.382433,3.78161 3.348434,7.26797 3.946826,-2.03488 2.919836,-8.98068 2.370316,-12.86172 -0.89259,-6.30582 0.802829,-10.34488 2.25,-16.78125 1.751786,-7.7874 -0.968571,-12.29978 -8,-15.5625 C 55.713205,220.7414 38.937326,215.1047 21.90625,211 z m 2.906389,57.21875 c -3.288013,2.56645 -1.175236,7.07923 -0.218889,12.875 0.892077,5.40262 -0.246462,10.51235 -1.40625,15.6875 -1.102815,4.44127 -2.119182,9.28593 3.1875,11.03125 12.209872,3.99743 22.203943,10.6744 31.4375,19.46875 8.522116,8.1163 15.339,17.91098 22.25,27.5625 31.19108,43.55377 75.38676,77.39507 129.03125,85.4375 l -1.3125,-33.46875 c -0.18151,-0.68822 -0.6464,-1.46496 -1.15625,-1.5625 -41.29801,-9.20017 -74.98072,-36.06936 -99.59375,-70.53125 -8.170951,-11.43872 -16.048997,-22.68895 -26.5,-32.40625 -12.740163,-11.84555 -27.419165,-20.29458 -43.25,-26.1875 -1.776073,-0.66084 -3.588685,-1.27184 -5.40625,-1.875 -2.853862,-0.94521 -9.883206,-2.33703 -7.062361,-6.03125 z"
     id="path3889"
     style="fill:none;stroke:#000000;stroke-width:1;stroke-miterlimit:4;stroke-dasharray:none"
     inkscape:connector-curvature="0" /></g><g
   transform="matrix(-1,0,0,1,415.42544,0.63124902)"
   id="g5135"><g
     transform="translate(0,-20)"
     id="g5137"><path
       d="m 21.90625,231 c 7.605237,7.72161 15.366011,15.91964 21.8125,24.125 -7.08203,3.02287 -13.932838,6.74199 -20.5625,11.125 16.876239,4.70279 33.316849,11.14769 48.5,19.8125 2.99453,1.70624 6.382433,3.78161 3.348434,7.26797 3.946826,-2.03488 2.919836,-8.98068 2.370316,-12.86172 -0.89259,-6.30582 0.802829,-10.34488 2.25,-16.78125 1.751786,-7.7874 -0.968571,-12.29978 -8,-15.5625 C 55.713205,240.7414 38.937326,235.1047 21.90625,231 z m 2.906389,57.21875 c -3.288013,2.56645 -1.175236,7.07923 -0.218889,12.875 0.892077,5.40262 -0.246462,10.51235 -1.40625,15.6875 -1.102815,4.44127 -2.119182,9.28593 3.1875,11.03125 12.209872,3.99743 22.203943,10.6744 31.4375,19.46875 8.522116,8.1163 15.339,17.91098 22.25,27.5625 31.19108,43.55377 75.38676,77.39507 129.03125,85.4375 l -1.3125,-33.46875 -0.4375,-0.9375 -0.71875,-0.625 c -41.29801,-9.20017 -74.98072,-36.06936 -99.59375,-70.53125 -8.170951,-11.43872 -16.048997,-22.68895 -26.5,-32.40625 -12.740163,-11.84555 -27.419165,-20.29458 -43.25,-26.1875 -1.776073,-0.66084 -3.588685,-1.27184 -5.40625,-1.875 -2.853862,-0.94521 -9.883206,-2.33703 -7.062361,-6.03125 z"
       id="path5139"
       style="fill:#ffffff;stroke:none"
       inkscape:connector-curvature="0" /><path
       d="m 175.387,388.2643 c 16.829,4.056 33.4,9.614 49.123,16.91 6.948,3.224 9.637,7.7 7.906,15.395 -0.072,0.32 -0.141,0.64 -0.207,0.961 -1.351,-4.023 -3.961,-6.425 -7.808,-8.28 -7.883,-3.8 -16.003,-7.141 -24.277,-10.052 -4.904,-1.725 -9.829,-3.14 -14.795,-4.56 -3.26,-3.524 -6.615,-6.996 -9.942,-10.374 z m 2.8601,56.54055 c -2.77257,2.16412 -1.65289,5.72489 -0.67934,10.28278 1.52182,1.18616 3.49206,2.0548 5.03331,2.56297 4.094,1.351 8.10689,2.87113 12.04289,4.57013 12.256,5.29099 23.63835,12.33132 33.65835,21.64633 9.316,8.66299 16.60883,18.90134 24.05491,29.33525 l 1.14253,1.57484 0,0.0308 0.0308,0 c 4.02001,5.627 8.283,11.06934 12.78399,16.27335 4.528,5.234 9.27932,10.20777 14.23532,14.88378 17.1,16.13599 36.87969,28.92751 59.1337,36.6845 l 1.14253,2.06891 18.80544,15.03818 -0.49407,-17.41588 c -0.159,-1.70799 -0.71319,-1.85382 -2.25418,-2.34682 -40.35001,-9.3 -73.27104,-35.70424 -97.39305,-69.47823 -8.07395,-11.30295 -15.85752,-22.4197 -26.18552,-32.0217 -14.005,-13.021 -30.39194,-21.86353 -48.07894,-27.72953 -4.38083,-1.28415 -9.25013,-2.67808 -6.9787,-5.95969 z"
       transform="matrix(1.0120076,0,0,1.0120076,-155.57492,-161.92714)"
       id="path5141"
       style="fill:#005bb9;fill-rule:evenodd;stroke:none"
       inkscape:connector-curvature="0" /><path
       d="m 31.75,261 c -2.904462,1.61921 -5.771261,3.38385 -8.59375,5.25 16.876239,4.70279 33.316849,11.14769 48.5,19.8125 2.945542,1.67833 5.962995,3.86469 3.5625,7.15625 3.316786,-1.96162 2.833309,-7.60948 2.3125,-11.5 -1.103868,-1.2986 -2.537861,-2.3331 -4.25,-3.28125 C 60.130211,271.15205 46.115448,265.42349 31.75,261 z m -8.71875,56.375 c -0.217939,0.89956 -0.424718,1.79636 -0.5625,2.6875 -0.0031,0.0202 0.0031,0.0423 0,0.0625 -0.502353,3.31803 -0.07376,6.37851 3.90625,7.6875 0.699798,0.22911 1.376986,0.47214 2.0625,0.71875 l 0,0.3125 c 10.714713,4.30375 20.679019,10.22962 29.375,18.4375 8.558549,8.07784 15.339,17.91098 22.25,27.5625 31.19108,43.55377 75.38676,77.39406 129.03125,85.4375 l -0.3125,-7.5625 c -3.23539,-0.51207 -6.42123,-1.14142 -9.5625,-1.84375 -7.43016,-1.66071 -14.73707,-3.88144 -21.9375,-6.625 C 140.50084,430.23876 109.55905,403.22226 86.125,370.5 l -1.5625,-2.15625 c -6.603349,-9.24672 -13.217119,-18.5355 -21.65625,-26.5 -9.059492,-8.55045 -19.353226,-14.79162 -30.375,-19.375 -1.758869,-0.73168 -3.518211,-1.41279 -5.3125,-2.0625 -1.975076,-0.7139 -3.172608,-1.53311 -4.1875,-3.03125 z"
       id="path5143"
       style="fill:#d20000;fill-rule:evenodd;stroke:none"
       inkscape:connector-curvature="0" /></g><path
     d="m 21.90625,211 c 7.605237,7.72161 15.366011,15.91964 21.8125,24.125 -7.08203,3.02287 -13.932838,6.74199 -20.5625,11.125 16.876239,4.70279 33.316849,11.14769 48.5,19.8125 2.99453,1.70624 6.382433,3.78161 3.348434,7.26797 3.946826,-2.03488 2.919836,-8.98068 2.370316,-12.86172 -0.89259,-6.30582 0.802829,-10.34488 2.25,-16.78125 1.751786,-7.7874 -0.968571,-12.29978 -8,-15.5625 C 55.713205,220.7414 38.937326,215.1047 21.90625,211 z m 2.906389,57.21875 c -3.288013,2.56645 -1.175236,7.07923 -0.218889,12.875 0.892077,5.40262 -0.246462,10.51235 -1.40625,15.6875 -1.102815,4.44127 -2.119182,9.28593 3.1875,11.03125 12.209872,3.99743 22.203943,10.6744 31.4375,19.46875 8.522116,8.1163 15.339,17.91098 22.25,27.5625 31.19108,43.55377 75.38676,77.39507 129.03125,85.4375 l -1.3125,-33.46875 c -0.045,-0.61994 -0.40745,-1.26015 -1.15625,-1.5625 -41.29801,-9.20017 -74.98072,-36.06936 -99.59375,-70.53125 -8.170951,-11.43872 -16.048997,-22.68895 -26.5,-32.40625 -12.740163,-11.84555 -27.419165,-20.29458 -43.25,-26.1875 -1.776073,-0.66084 -3.588685,-1.27184 -5.40625,-1.875 -2.853862,-0.94521 -9.883206,-2.33703 -7.062361,-6.03125 z"
     id="path5145"
     style="fill:none;stroke:#000000;stroke-width:1;stroke-miterlimit:4;stroke-dasharray:none"
     inkscape:connector-curvature="0" /></g><path
   d="m 171.16832,410.16619 c -1.20024,0.19329 -2.33065,-0.62441 -2.52395,-1.82567 -0.19329,-1.20024 0.62441,-2.33065 1.82465,-2.52394 4.76858,-0.7671 10.83051,4.88192 15.68612,4.10166 1.20024,-0.19329 2.01795,-1.3237 1.82465,-2.52495 -0.19329,-1.20126 -1.3237,-2.01795 -2.52394,-1.82465"
   id="path3891"
   style="fill:none;stroke:#000000;stroke-width:1;stroke-miterlimit:4;stroke-dasharray:none"
   inkscape:connector-curvature="0" /><path
   d="m 224.54464,410.16619 c 1.20024,0.19329 2.33065,-0.62441 2.52395,-1.82567 0.19329,-1.20024 -0.62441,-2.33065 -1.82465,-2.52394 -4.76858,-0.7671 -10.83051,4.88192 -15.68612,4.10166 -1.20024,-0.19329 -2.01795,-1.3237 -1.82465,-2.52495 0.19329,-1.20126 1.3237,-2.01795 2.52395,-1.82465"
   id="path3893"
   style="fill:none;stroke:#000000;stroke-width:1;stroke-miterlimit:4;stroke-dasharray:none"
   inkscape:connector-curvature="0" /><path
   d="m 227.12829,446.02566 c 6.04574,-1.83072 8.86317,-3.82539 4.72203,-10.40445 -5.10861,-8.11832 -6.64585,-16.9238 -5.1076,-26.32029 -19.90417,8.01308 -37.86831,8.01308 -57.77248,0 1.53825,9.39649 0.001,18.20197 -5.1076,26.32029 -4.14114,6.57906 -1.32371,8.57373 4.72203,10.40445 18.03701,5.46484 40.50661,5.46484 58.54362,0 z"
   id="path3895"
   style="fill:#ffffff;fill-rule:evenodd;stroke:none"
   inkscape:connector-curvature="0" /><path
   d="m 227.12829,446.02566 c 6.04574,-1.83072 8.86317,-3.82539 4.72203,-10.40445 -0.73269,-1.16381 -1.39252,-2.34279 -1.97949,-3.53494 l -0.15382,0.0506 c 1.41175,3.7171 -1.15976,5.50937 -4.7868,6.61347 -15.83488,4.7959 -38.31157,4.7959 -54.14746,0 -3.62704,-1.1041 -6.5315,-2.56443 -4.7868,-6.61347 l -0.15382,-0.0506 c -0.58697,1.19215 -1.2468,2.37113 -1.97949,3.53494 -4.14114,6.57906 -1.32371,8.57373 4.72203,10.40445 18.03701,5.46383 40.50661,5.46383 58.54362,0 z"
   id="path3897"
   style="fill:#d20000;fill-rule:evenodd;stroke:none"
   inkscape:connector-curvature="0" /><path
   d="m 169.61185,416.13399 c 0.0617,-2.53507 -0.21151,-4.20286 -0.64161,-6.83307 19.90417,8.01308 37.86831,8.01308 57.77248,0 -0.4301,2.63021 -0.53738,4.13101 -0.47463,6.66711 -1.30853,3.36087 -4.87788,3.7343 -7.95033,4.52974 -14.68423,3.80211 -27.86665,3.64525 -42.67434,-0.47058 -2.48043,-0.68918 -5.00843,-1.13143 -6.03157,-3.8932 z"
   id="path3899"
   style="fill:#005bb9;fill-rule:evenodd;stroke:none"
   inkscape:connector-curvature="0" /><path
   d="m 227.12829,446.02566 c 6.04574,-1.83072 8.86317,-3.82539 4.72203,-10.40445 -5.10861,-8.11832 -6.64585,-16.9238 -5.1076,-26.32029 -19.90417,8.01308 -37.86831,8.01308 -57.77248,0 1.53825,9.39649 0.001,18.20197 -5.1076,26.32029 -4.14114,6.57906 -1.32371,8.57373 4.72203,10.40445 18.03701,5.46484 40.50661,5.46484 58.54362,0 z"
   id="path3901"
   style="fill:none;stroke:#000000;stroke-width:1;stroke-miterlimit:4;stroke-dasharray:none"
   inkscape:connector-curvature="0" /><g
   transform="matrix(1.0120076,0,0,1.0120076,-175.28742,-201.29589)"
   id="g3903"
   style="fill-rule:evenodd"><path
     d="m 433.811,587.8 7.499,-5.251 2.415,3.068 -0.428,0.3 c -0.875,-0.888 -1.639,-1.401 -2.289,-1.545 -0.649,-0.141 -1.271,-0.005 -1.863,0.409 l -1.856,1.3 c -0.149,0.104 -0.235,0.223 -0.255,0.357 -0.02,0.135 0.028,0.287 0.144,0.453 l 2.362,3.373 0.813,-0.57 c 0.434,-0.304 0.68,-0.707 0.731,-1.209 0.054,-0.5 -0.134,-1.08 -0.564,-1.74 l 0.441,-0.309 3.07,4.384 -0.441,0.309 c -0.529,-0.71 -1.042,-1.126 -1.536,-1.245 -0.496,-0.122 -0.979,-0.018 -1.453,0.314 l -0.743,0.52 2.635,3.764 c 0.095,0.135 0.215,0.208 0.357,0.216 0.144,0.01 0.321,-0.063 0.535,-0.212 l 1.463,-1.025 c 1.593,-1.115 1.799,-2.773 0.621,-4.972 l 0.46,-0.323 2.31,3.637 -7.801,5.462 -0.336,-0.481 0.644,-0.451 c 0.253,-0.177 0.4,-0.345 0.442,-0.504 0.041,-0.159 0.002,-0.321 -0.114,-0.487 l -5.252,-7.501 c -0.117,-0.167 -0.249,-0.259 -0.396,-0.277 -0.146,-0.018 -0.313,0.041 -0.505,0.175 l -0.773,0.542 -0.337,-0.481 z m 25.183,-5.423 2.178,2.69 -0.456,0.37 c -0.408,-0.428 -0.811,-0.753 -1.216,-0.982 -0.405,-0.224 -0.901,-0.248 -1.492,-0.071 -0.591,0.177 -1.111,0.446 -1.56,0.81 l -3.563,2.885 c -0.669,0.542 -1.096,1.142 -1.287,1.801 -0.189,0.661 0.053,1.429 0.732,2.306 l -0.456,0.369 -2.1,-2.78 c 0.5,-0.433 0.833,-0.856 1,-1.273 0.165,-0.415 0.169,-1.05 0.01,-1.903 -0.156,-0.854 -0.506,-1.731 -1.041,-2.629 -0.539,-0.898 -1.239,-1.882 -2.105,-2.951 -0.53,-0.655 -0.997,-1.028 -1.398,-1.12 -0.402,-0.09 -0.794,0.019 -1.173,0.326 l -0.129,0.104 -0.334,-0.412 7.488,-6.063 0.369,0.456 -0.669,0.542 c -0.23,0.186 -0.345,0.358 -0.343,0.517 0.002,0.16 0.149,0.422 0.445,0.786 l 5.23,6.46 c 0.417,0.514 0.863,0.578 1.342,0.19 l 0.528,-0.428 z m -2.56,2.004 -6.499,-8.026 -1.542,1.249 c -0.495,0.401 -0.784,0.748 -0.867,1.048 -0.084,0.298 -0.044,0.602 0.119,0.909 0.163,0.308 0.569,0.902 1.222,1.78 1.356,1.828 2.179,3.331 2.458,4.512 0.284,1.18 0.234,2.106 -0.142,2.781 l 5.251,-4.253 z m 5.477,-7.813 -0.88,-8.998 -0.133,-0.143 c -0.213,-0.228 -0.388,-0.342 -0.522,-0.341 -0.134,0.002 -0.316,0.11 -0.551,0.328 l -0.616,0.575 -0.4,-0.429 3.559,-3.319 0.4,0.429 -0.628,0.586 c -0.171,0.16 -0.273,0.317 -0.307,0.472 -0.034,0.155 0.134,0.429 0.5,0.821 l 5.669,6.079 c 0.227,0.244 0.386,0.391 0.477,0.437 0.089,0.049 0.209,0.049 0.358,0.002 0.151,-0.046 0.301,-0.143 0.457,-0.288 l 0.554,-0.516 0.4,0.428 -3.559,3.319 -0.4,-0.429 0.616,-0.574 c 0.244,-0.228 0.353,-0.424 0.323,-0.589 -0.03,-0.165 -0.186,-0.402 -0.474,-0.711 l -4.992,-5.353 0.92,9.041 c 0.218,0.234 0.374,0.392 0.469,0.479 0.094,0.086 0.222,0.117 0.379,0.094 0.16,-0.025 0.321,-0.113 0.485,-0.266 l 0.663,-0.619 0.4,0.43 -3.606,3.362 -0.4,-0.429 0.692,-0.645 c 0.186,-0.173 0.265,-0.342 0.237,-0.509 -0.03,-0.165 -0.188,-0.401 -0.475,-0.709 l -5.691,-6.103 c -0.284,-0.304 -0.5,-0.47 -0.646,-0.498 -0.147,-0.027 -0.343,0.075 -0.59,0.306 l -0.607,0.566 -0.4,-0.429 3.606,-3.363 0.4,0.429 -0.663,0.619 c -0.236,0.22 -0.35,0.402 -0.34,0.55 0.01,0.147 0.161,0.379 0.451,0.691 l 4.865,5.217 z m 1.926,-13.85 3.362,-3.606 0.43,0.4 -0.619,0.664 c -0.216,0.231 -0.317,0.422 -0.301,0.569 0.017,0.146 0.183,0.367 0.499,0.661 l 2.605,2.43 3.607,-3.867 -2.606,-2.43 c -0.327,-0.305 -0.561,-0.462 -0.699,-0.466 -0.138,-0.005 -0.322,0.119 -0.553,0.366 l -0.575,0.617 -0.429,-0.401 3.346,-3.588 0.429,0.4 -0.612,0.657 c -0.153,0.164 -0.241,0.297 -0.26,0.404 -0.023,0.106 0.002,0.228 0.064,0.365 0.042,0.084 0.203,0.252 0.478,0.508 l 6.079,5.669 c 0.294,0.274 0.492,0.415 0.601,0.422 0.22,0.023 0.453,-0.099 0.699,-0.362 l 0.544,-0.583 0.429,0.4 -3.346,3.589 -0.43,-0.401 0.575,-0.616 c 0.228,-0.244 0.316,-0.471 0.265,-0.682 -0.025,-0.118 -0.194,-0.32 -0.502,-0.608 l -2.937,-2.738 -3.607,3.867 2.982,2.781 c 0.298,0.278 0.498,0.42 0.602,0.433 0.214,0.021 0.429,-0.085 0.645,-0.317 l 0.619,-0.663 0.429,0.4 -3.363,3.607 -0.429,-0.401 0.646,-0.692 c 0.113,-0.121 0.18,-0.24 0.197,-0.36 0.018,-0.117 -0.001,-0.237 -0.062,-0.356 -0.042,-0.076 -0.195,-0.237 -0.458,-0.482 l -6.102,-5.691 c -0.316,-0.294 -0.548,-0.445 -0.695,-0.451 -0.148,-0.006 -0.332,0.11 -0.552,0.346 l -0.566,0.607 -0.429,-0.401 z m 15.607,-16.234 -0.51,-1.13 0.316,-0.376 3.692,2.83 -0.338,0.403 c -1.222,-0.577 -2.237,-0.865 -3.047,-0.866 -1.009,-0.004 -1.801,0.338 -2.377,1.024 -0.624,0.744 -0.799,1.624 -0.529,2.647 0.271,1.021 1.195,2.197 2.774,3.522 1.33,1.116 2.568,1.699 3.715,1.75 0.973,0.039 1.802,-0.351 2.491,-1.172 0.604,-0.719 0.88,-1.514 0.827,-2.388 -0.054,-0.873 -0.481,-1.775 -1.287,-2.702 l 0.356,-0.424 c 0.95,1.009 1.457,2.047 1.521,3.12 0.065,1.075 -0.285,2.066 -1.05,2.977 -0.619,0.737 -1.371,1.261 -2.259,1.564 -0.889,0.305 -1.836,0.35 -2.842,0.135 -1.007,-0.215 -1.924,-0.67 -2.753,-1.366 -0.883,-0.74 -1.55,-1.625 -2.004,-2.656 -0.456,-1.03 -0.628,-2.007 -0.517,-2.927 0.109,-0.922 0.453,-1.726 1.028,-2.412 0.321,-0.382 0.698,-0.699 1.131,-0.945 0.433,-0.25 0.988,-0.452 1.662,-0.608 z m 1.657,-3.493 5.641,-7.486 3.625,2.448 -0.324,0.43 c -2.265,-1.262 -3.848,-1.297 -4.751,-0.098 -0.182,0.241 -0.264,0.439 -0.249,0.591 0.016,0.152 0.118,0.299 0.31,0.444 l 7.375,5.557 c 0.149,0.113 0.294,0.151 0.43,0.117 0.138,-0.033 0.28,-0.15 0.43,-0.35 l 0.7,-0.928 0.469,0.353 -3.229,4.284 -0.469,-0.353 0.799,-1.06 c 0.106,-0.141 0.154,-0.275 0.138,-0.404 -0.014,-0.127 -0.079,-0.237 -0.194,-0.323 l -7.482,-5.638 c -0.157,-0.119 -0.313,-0.16 -0.469,-0.126 -0.151,0.032 -0.309,0.157 -0.468,0.368 -0.455,0.605 -0.549,1.323 -0.281,2.155 0.216,0.688 0.778,1.485 1.68,2.392 l -0.344,0.456 -3.337,-2.829 z m 7.124,-9.489 3.541,-4.873 c 0.694,-0.956 1.439,-1.536 2.228,-1.737 0.789,-0.201 1.502,-0.072 2.139,0.391 0.53,0.385 0.853,0.89 0.967,1.513 0.114,0.623 0.02,1.37 -0.284,2.237 0.825,-0.746 1.598,-1.193 2.315,-1.345 0.719,-0.15 1.382,-0.004 1.988,0.436 0.464,0.337 0.783,0.76 0.959,1.27 0.176,0.511 0.176,1.15 0.002,1.913 -0.178,0.765 -0.534,1.518 -1.071,2.258 l -3.436,4.729 -0.475,-0.345 0.562,-0.772 c 0.167,-0.231 0.254,-0.428 0.256,-0.589 10e-4,-0.164 -0.047,-0.281 -0.144,-0.351 l -7.488,-5.441 c -0.177,-0.128 -0.348,-0.173 -0.516,-0.133 -0.167,0.039 -0.324,0.16 -0.471,0.362 l -0.597,0.822 -0.475,-0.345 z m 6.327,0.329 1.286,-1.769 c 0.395,-0.544 0.55,-1.093 0.465,-1.646 -0.087,-0.558 -0.494,-1.101 -1.223,-1.63 -0.45,-0.328 -0.859,-0.506 -1.223,-0.536 -0.365,-0.028 -0.712,0.059 -1.041,0.268 -0.328,0.211 -0.753,0.673 -1.277,1.393 -0.371,0.512 -0.563,0.853 -0.579,1.03 -0.016,0.176 0.07,0.331 0.255,0.465 l 3.337,2.425 z m 0.469,0.34 3.603,2.618 c 0.168,0.122 0.331,0.165 0.487,0.127 0.157,-0.038 0.326,-0.185 0.514,-0.444 l 0.822,-1.131 c 0.545,-0.751 0.782,-1.422 0.71,-2.021 -0.07,-0.599 -0.455,-1.152 -1.154,-1.66 -0.641,-0.466 -1.279,-0.649 -1.917,-0.546 -0.639,0.103 -1.195,0.484 -1.669,1.135 l -1.396,1.922 z m 1.113,-11.764 5.636,-7.214 3.207,2.229 -0.322,0.411 c -1.097,-0.593 -1.977,-0.861 -2.641,-0.808 -0.662,0.055 -1.217,0.366 -1.662,0.936 l -1.395,1.786 c -0.112,0.143 -0.159,0.282 -0.139,0.416 0.02,0.134 0.11,0.265 0.27,0.39 l 3.244,2.535 0.611,-0.782 c 0.327,-0.418 0.444,-0.875 0.347,-1.37 -0.095,-0.494 -0.445,-0.994 -1.049,-1.499 l 0.332,-0.425 4.217,3.295 -0.331,0.425 c -0.714,-0.524 -1.326,-0.772 -1.833,-0.742 -0.51,0.028 -0.942,0.269 -1.298,0.725 l -0.558,0.715 3.62,2.828 c 0.131,0.102 0.266,0.137 0.404,0.103 0.141,-0.033 0.289,-0.154 0.45,-0.359 l 1.1,-1.408 c 1.197,-1.532 0.909,-3.178 -0.861,-4.937 l 0.347,-0.443 3.272,2.803 -5.863,7.504 -0.463,-0.361 0.485,-0.62 c 0.19,-0.244 0.281,-0.447 0.274,-0.611 -0.007,-0.165 -0.091,-0.308 -0.25,-0.433 l -7.216,-5.638 c -0.16,-0.124 -0.314,-0.174 -0.459,-0.149 -0.146,0.026 -0.288,0.131 -0.433,0.316 l -0.581,0.744 -0.462,-0.362 z"
     id="path3905"
     style="fill:#000000;stroke:#000000;stroke-width:0.09881349;stroke-miterlimit:4;stroke-opacity:1;stroke-dasharray:none"
     inkscape:connector-curvature="0" /><path
     d="m 363.561,619.85 6.024,0 c 1.181,0 2.088,0.262 2.714,0.781 0.627,0.521 0.941,1.174 0.941,1.961 0,0.656 -0.218,1.213 -0.656,1.672 -0.437,0.458 -1.095,0.821 -1.976,1.085 1.088,0.229 1.904,0.592 2.448,1.082 0.544,0.494 0.816,1.115 0.816,1.865 0,0.573 -0.154,1.08 -0.464,1.522 -0.309,0.443 -0.826,0.819 -1.546,1.126 -0.723,0.306 -1.542,0.461 -2.456,0.461 l -5.845,0 0,-0.587 0.954,0 c 0.285,0 0.496,-0.045 0.627,-0.139 0.133,-0.095 0.2,-0.202 0.2,-0.322 l 0,-9.256 c 0,-0.219 -0.064,-0.384 -0.195,-0.496 -0.131,-0.112 -0.32,-0.168 -0.57,-0.168 l -1.016,0 0,-0.587 z m 3.453,5.312 2.186,0 c 0.672,0 1.209,-0.197 1.606,-0.592 0.4,-0.397 0.6,-1.045 0.6,-1.946 0,-0.558 -0.096,-0.992 -0.286,-1.305 -0.192,-0.311 -0.466,-0.541 -0.829,-0.685 -0.363,-0.141 -0.987,-0.213 -1.877,-0.213 -0.632,0 -1.022,0.045 -1.173,0.136 -0.152,0.091 -0.227,0.251 -0.227,0.48 l 0,4.125 z m 0,0.579 0,4.453 c 0,0.208 0.061,0.366 0.184,0.47 0.122,0.104 0.341,0.154 0.661,0.154 l 1.398,0 c 0.927,0 1.61,-0.203 2.053,-0.613 0.442,-0.408 0.664,-1.045 0.664,-1.909 0,-0.792 -0.227,-1.416 -0.686,-1.872 -0.458,-0.457 -1.093,-0.683 -1.898,-0.683 l -2.376,0 z"
     id="path3907"
     style="fill:#000000;stroke:#000000;stroke-width:0.09881349;stroke-miterlimit:4;stroke-opacity:1;stroke-dasharray:none"
     inkscape:connector-curvature="0" /><path
     d="m 220.495,499.689 8.652,8.068 -0.401,0.429 -0.628,-0.586 c -0.214,-0.2 -0.398,-0.291 -0.554,-0.273 -0.156,0.019 -0.397,0.203 -0.724,0.554 l -5.669,6.079 c -0.234,0.251 -0.37,0.424 -0.411,0.514 -0.038,0.092 -0.028,0.21 0.032,0.357 0.061,0.145 0.167,0.287 0.315,0.425 l 0.559,0.522 -0.4,0.429 -3.571,-3.33 0.401,-0.429 0.616,0.575 c 0.244,0.227 0.447,0.322 0.612,0.282 0.166,-0.037 0.39,-0.211 0.678,-0.52 l 6.314,-6.771 -3.885,-3.623 -6.356,6.817 c -0.246,0.263 -0.385,0.432 -0.415,0.507 -0.029,0.074 -0.025,0.18 0.01,0.318 0.035,0.135 0.132,0.276 0.288,0.422 l 0.663,0.618 -0.4,0.429 -3.606,-3.362 0.4,-0.429 0.692,0.645 c 0.149,0.138 0.279,0.206 0.392,0.202 0.115,-0.002 0.209,-0.017 0.282,-0.044 0.072,-0.023 0.248,-0.184 0.525,-0.481 l 5.69,-6.102 c 0.284,-0.304 0.436,-0.53 0.456,-0.676 0.017,-0.148 -0.099,-0.337 -0.35,-0.571 l -0.607,-0.566 0.4,-0.429 z m 10.511,10.27 3.737,4.299 c 0.845,0.972 1.27,1.903 1.273,2.798 0.004,0.894 -0.351,1.648 -1.064,2.267 -0.71,0.618 -1.458,0.855 -2.24,0.707 -1.078,-0.2 -2.032,-0.777 -2.858,-1.727 l -1.354,-1.558 -2.977,2.588 c -0.173,0.15 -0.261,0.301 -0.263,0.448 0,0.191 0.083,0.38 0.242,0.564 l 0.863,0.992 -0.443,0.385 -3.636,-4.183 0.443,-0.385 0.759,0.874 c 0.151,0.173 0.295,0.27 0.433,0.291 0.139,0.021 0.269,-0.02 0.385,-0.122 l 6.952,-6.043 c 0.177,-0.154 0.262,-0.316 0.251,-0.487 -0.011,-0.171 -0.14,-0.397 -0.385,-0.679 l -0.56,-0.644 0.442,-0.385 z m -2.075,6.412 1.03,1.185 c 0.652,0.751 1.28,1.156 1.881,1.217 0.6,0.061 1.263,-0.222 1.981,-0.846 0.504,-0.438 0.825,-0.848 0.964,-1.233 0.138,-0.382 0.148,-0.776 0.027,-1.176 -0.123,-0.402 -0.47,-0.935 -1.044,-1.595 -0.379,-0.436 -0.661,-0.676 -0.843,-0.718 -0.184,-0.045 -0.378,0.02 -0.583,0.199 l -3.413,2.967 z m 13.208,6.97 c 0.585,0.777 0.93,1.659 1.032,2.65 0.104,0.988 -0.068,1.952 -0.51,2.89 -0.446,0.937 -1.126,1.753 -2.046,2.446 -0.92,0.694 -1.895,1.124 -2.928,1.295 -1.032,0.173 -2.01,0.075 -2.932,-0.288 -0.923,-0.366 -1.669,-0.926 -2.241,-1.684 -0.556,-0.739 -0.877,-1.586 -0.962,-2.541 -0.083,-0.956 0.105,-1.911 0.564,-2.875 0.457,-0.962 1.146,-1.789 2.066,-2.483 0.908,-0.683 1.87,-1.108 2.886,-1.279 1.016,-0.168 1.982,-0.077 2.892,0.271 0.915,0.35 1.64,0.882 2.179,1.598 z m -0.406,0.462 c -0.612,-0.811 -1.444,-1.216 -2.495,-1.211 -1.054,0.006 -2.342,0.579 -3.865,1.726 -1.652,1.246 -2.598,2.366 -2.842,3.358 -0.245,0.992 -0.078,1.868 0.494,2.629 0.402,0.532 0.898,0.893 1.488,1.079 0.593,0.188 1.291,0.166 2.095,-0.066 0.803,-0.231 1.713,-0.73 2.727,-1.494 1.107,-0.834 1.887,-1.595 2.338,-2.29 0.454,-0.692 0.673,-1.361 0.659,-2.001 -0.013,-0.642 -0.214,-1.219 -0.599,-1.73 z m 2.992,21.902 -2.722,2.051 -0.351,-0.467 c 1.485,-1.152 1.598,-2.566 0.339,-4.238 l -5.022,-6.664 0.469,-0.353 0.518,0.688 c 0.178,0.236 0.346,0.357 0.505,0.36 0.16,0.004 0.426,-0.134 0.801,-0.416 l 6.639,-5.003 c 0.274,-0.207 0.438,-0.353 0.493,-0.435 0.053,-0.084 0.065,-0.202 0.031,-0.357 -0.035,-0.154 -0.114,-0.311 -0.241,-0.48 l -0.456,-0.605 0.469,-0.353 2.938,3.9 -0.468,0.353 -0.507,-0.673 c -0.198,-0.262 -0.381,-0.391 -0.552,-0.383 -0.171,0.009 -0.421,0.138 -0.753,0.388 l -7.414,5.586 3.183,4.224 7.456,-5.619 c 0.309,-0.233 0.478,-0.384 0.507,-0.456 0.031,-0.07 0.041,-0.171 0.035,-0.3 -0.009,-0.127 -0.081,-0.28 -0.216,-0.459 l -0.54,-0.717 0.468,-0.353 2.967,3.937 -0.468,0.354 -0.568,-0.754 c -0.127,-0.169 -0.244,-0.257 -0.356,-0.273 -0.11,-0.014 -0.206,-0.016 -0.285,-0.006 -0.076,0.01 -0.274,0.136 -0.593,0.377 l -6.671,5.027 c -0.332,0.25 -0.486,0.493 -0.458,0.729 0.027,0.236 0.122,0.459 0.277,0.666 l 0.546,0.724 z m 9.267,-5.56 3.791,4.682 c 0.744,0.918 1.111,1.787 1.101,2.601 -0.009,0.815 -0.319,1.47 -0.93,1.965 -0.51,0.413 -1.081,0.594 -1.713,0.543 -0.631,-0.052 -1.328,-0.335 -2.087,-0.853 0.507,0.99 0.739,1.852 0.7,2.584 -0.041,0.733 -0.353,1.336 -0.936,1.807 -0.445,0.361 -0.936,0.559 -1.475,0.598 -0.538,0.038 -1.156,-0.128 -1.848,-0.494 -0.693,-0.369 -1.328,-0.908 -1.904,-1.618 l -3.678,-4.543 0.456,-0.369 0.601,0.742 c 0.179,0.221 0.347,0.356 0.502,0.399 0.158,0.044 0.283,0.028 0.376,-0.047 l 7.193,-5.825 c 0.17,-0.138 0.259,-0.292 0.263,-0.464 0.005,-0.172 -0.071,-0.354 -0.228,-0.549 l -0.64,-0.789 0.456,-0.37 z m -1.955,6.027 1.377,1.699 c 0.423,0.523 0.913,0.815 1.47,0.875 0.56,0.061 1.19,-0.191 1.89,-0.758 0.433,-0.351 0.711,-0.699 0.834,-1.043 0.122,-0.345 0.127,-0.703 0.011,-1.076 -0.119,-0.37 -0.455,-0.901 -1.016,-1.593 -0.398,-0.491 -0.678,-0.765 -0.844,-0.826 -0.166,-0.061 -0.337,-0.018 -0.516,0.126 l -3.206,2.596 z m -0.449,0.364 -3.461,2.803 c -0.162,0.131 -0.245,0.278 -0.249,0.438 -0.004,0.161 0.095,0.363 0.296,0.611 l 0.879,1.086 c 0.584,0.721 1.171,1.125 1.769,1.21 0.596,0.087 1.23,-0.142 1.902,-0.685 0.615,-0.499 0.958,-1.068 1.023,-1.711 0.066,-0.644 -0.157,-1.279 -0.664,-1.905 l -1.495,-1.847 z m 9.752,2.783 6.006,6.909 -2.798,2.723 -0.343,-0.395 c 0.791,-0.963 1.222,-1.776 1.297,-2.438 0.072,-0.66 -0.128,-1.264 -0.602,-1.81 l -1.487,-1.71 c -0.119,-0.137 -0.246,-0.21 -0.381,-0.216 -0.136,-0.006 -0.282,0.058 -0.435,0.191 l -3.108,2.701 0.651,0.749 c 0.348,0.4 0.775,0.602 1.279,0.601 0.503,10e-4 1.061,-0.247 1.672,-0.743 l 0.354,0.407 -4.039,3.511 -0.354,-0.407 c 0.651,-0.601 1.011,-1.154 1.078,-1.657 0.069,-0.506 -0.085,-0.976 -0.464,-1.413 l -0.595,-0.684 -3.468,3.014 c -0.125,0.109 -0.184,0.235 -0.177,0.377 0.004,0.144 0.095,0.313 0.266,0.51 l 1.173,1.349 c 1.275,1.467 2.945,1.499 5.009,0.097 l 0.369,0.425 -3.376,2.676 -6.247,-7.187 0.443,-0.385 0.516,0.594 c 0.203,0.234 0.385,0.362 0.548,0.386 0.162,0.025 0.319,-0.03 0.472,-0.163 l 6.911,-6.008 c 0.153,-0.133 0.231,-0.275 0.234,-0.422 0.003,-0.147 -0.073,-0.308 -0.227,-0.485 l -0.619,-0.712 0.442,-0.385 z m 7.27,8.229 6.511,6.743 -2.985,3.197 -0.374,-0.387 c 1.601,-2.04 1.883,-3.598 0.84,-4.678 -0.209,-0.217 -0.392,-0.329 -0.545,-0.337 -0.152,-0.009 -0.314,0.069 -0.487,0.236 l -6.643,6.415 c -0.134,0.13 -0.195,0.266 -0.182,0.406 0.011,0.142 0.104,0.3 0.278,0.48 l 0.808,0.836 -0.422,0.408 -3.727,-3.859 0.422,-0.408 0.922,0.955 c 0.123,0.127 0.248,0.195 0.378,0.199 0.128,0.006 0.246,-0.041 0.349,-0.141 l 6.739,-6.507 c 0.142,-0.137 0.207,-0.285 0.198,-0.444 -0.008,-0.154 -0.107,-0.33 -0.291,-0.52 -0.525,-0.544 -1.22,-0.749 -2.084,-0.615 -0.713,0.106 -1.588,0.536 -2.625,1.286 l -0.396,-0.411 3.316,-2.854 z m 10.965,10.542 0.382,0.357 -4.175,10.561 c -0.17,0.424 -0.066,0.813 0.311,1.164 l 0.263,0.245 -0.4,0.43 -3.37,-3.143 0.4,-0.429 0.267,0.249 c 0.351,0.327 0.634,0.522 0.849,0.58 0.15,0.038 0.275,0.002 0.377,-0.108 0.062,-0.066 0.114,-0.145 0.154,-0.243 l 0.971,-2.449 -3.337,-3.111 -1.354,0.662 c -0.358,0.177 -0.615,0.346 -0.764,0.506 -0.172,0.185 -0.234,0.427 -0.186,0.723 0.05,0.295 0.24,0.596 0.572,0.905 l 0.284,0.266 -0.4,0.429 -3.062,-2.856 0.401,-0.429 c 0.327,0.306 0.652,0.478 0.978,0.512 0.321,0.033 0.75,-0.074 1.282,-0.325 l 9.557,-4.496 z m -1.685,1.474 -5.027,2.353 2.99,2.788 2.037,-5.141 z m 5.924,3.156 3.832,3.103 -0.37,0.456 -0.704,-0.57 c -0.247,-0.2 -0.444,-0.288 -0.589,-0.261 -0.145,0.027 -0.354,0.208 -0.625,0.544 l -2.242,2.768 4.109,3.328 2.242,-2.769 c 0.282,-0.348 0.421,-0.592 0.416,-0.73 -0.004,-0.138 -0.141,-0.313 -0.404,-0.526 l -0.655,-0.53 0.37,-0.456 3.813,3.087 -0.37,0.456 -0.698,-0.565 c -0.174,-0.141 -0.313,-0.219 -0.42,-0.231 -0.108,-0.015 -0.228,0.019 -0.361,0.089 -0.08,0.048 -0.236,0.22 -0.473,0.513 l -5.231,6.459 c -0.253,0.313 -0.379,0.52 -0.379,0.63 -0.007,0.22 0.13,0.445 0.41,0.671 l 0.619,0.502 -0.369,0.456 -3.813,-3.088 0.369,-0.456 0.655,0.531 c 0.259,0.21 0.492,0.282 0.7,0.216 0.116,-0.033 0.305,-0.216 0.57,-0.543 l 2.528,-3.121 -4.11,-3.328 -2.566,3.169 c -0.257,0.317 -0.385,0.525 -0.391,0.63 -0.005,0.215 0.115,0.422 0.362,0.622 l 0.704,0.571 -0.369,0.456 -3.832,-3.103 0.369,-0.456 0.736,0.596 c 0.128,0.103 0.253,0.163 0.373,0.171 0.118,0.01 0.237,-0.017 0.351,-0.086 0.073,-0.048 0.222,-0.211 0.449,-0.491 l 5.251,-6.485 c 0.271,-0.335 0.406,-0.577 0.401,-0.724 -0.004,-0.148 -0.132,-0.324 -0.383,-0.527 l -0.645,-0.522 0.37,-0.456 z m 7.674,17.112 8.619,-2.732 0.111,-0.159 c 0.18,-0.256 0.254,-0.451 0.226,-0.582 -0.029,-0.131 -0.174,-0.287 -0.436,-0.471 l -0.69,-0.483 0.336,-0.481 3.987,2.792 -0.337,0.48 -0.703,-0.492 c -0.192,-0.135 -0.367,-0.202 -0.526,-0.202 -0.159,-10e-4 -0.392,0.22 -0.699,0.659 l -4.768,6.809 c -0.191,0.273 -0.302,0.459 -0.328,0.557 -0.029,0.098 -0.005,0.216 0.073,0.351 0.076,0.138 0.202,0.265 0.377,0.388 l 0.62,0.434 -0.337,0.48 -3.986,-2.791 0.336,-0.481 0.691,0.484 c 0.273,0.191 0.487,0.257 0.643,0.193 0.155,-0.064 0.355,-0.266 0.597,-0.611 l 4.198,-5.996 -8.653,2.78 c -0.183,0.262 -0.306,0.446 -0.37,0.558 -0.065,0.11 -0.069,0.241 -0.014,0.39 0.058,0.151 0.178,0.291 0.361,0.419 l 0.743,0.52 -0.336,0.481 -4.039,-2.828 0.336,-0.481 0.776,0.543 c 0.207,0.145 0.389,0.188 0.546,0.126 0.156,-0.064 0.353,-0.267 0.595,-0.613 l 4.786,-6.834 c 0.239,-0.341 0.356,-0.588 0.353,-0.736 -0.004,-0.149 -0.144,-0.32 -0.422,-0.514 l -0.679,-0.476 0.336,-0.48 4.039,2.828 -0.336,0.481 -0.743,-0.52 c -0.264,-0.186 -0.467,-0.259 -0.609,-0.218 -0.142,0.04 -0.338,0.235 -0.582,0.584 l -4.092,5.844 z m 13.034,-1.168 7.847,4.714 -1.82,3.455 -0.448,-0.269 c 0.455,-1.161 0.614,-2.067 0.48,-2.72 -0.135,-0.65 -0.512,-1.163 -1.131,-1.535 l -1.943,-1.167 c -0.155,-0.094 -0.299,-0.124 -0.43,-0.088 -0.131,0.037 -0.25,0.142 -0.354,0.316 l -2.121,3.529 0.85,0.511 c 0.455,0.273 0.923,0.334 1.403,0.177 0.478,-0.154 0.932,-0.563 1.36,-1.223 l 0.462,0.277 -2.757,4.588 -0.461,-0.278 c 0.433,-0.772 0.604,-1.41 0.513,-1.91 -0.09,-0.502 -0.382,-0.901 -0.879,-1.199 l -0.777,-0.467 -2.366,3.938 c -0.085,0.142 -0.103,0.281 -0.052,0.414 0.049,0.135 0.187,0.267 0.411,0.402 l 1.531,0.92 c 1.667,1.001 3.265,0.516 4.795,-1.455 l 0.482,0.289 -2.383,3.589 -8.163,-4.904 0.302,-0.503 0.675,0.405 c 0.265,0.159 0.477,0.225 0.64,0.198 0.162,-0.027 0.294,-0.128 0.399,-0.301 l 4.716,-7.85 c 0.105,-0.174 0.135,-0.333 0.092,-0.474 -0.043,-0.14 -0.165,-0.269 -0.366,-0.39 l -0.809,-0.486 0.302,-0.503 z"
     id="path3909"
     style="fill:#000000;stroke:#000000;stroke-width:0.09881349;stroke-miterlimit:4;stroke-opacity:1;stroke-dasharray:none"
     inkscape:connector-curvature="0" /></g></svg>