<?xml version="1.0" encoding="UTF-8" standalone="no"?>
<!-- Created with Inkscape (http://www.inkscape.org/) -->
<svg
   xmlns:svg="http://www.w3.org/2000/svg"
   xmlns="http://www.w3.org/2000/svg"
   version="1.0"
   width="250"
   height="200"
   id="svg2">
  <defs
     id="defs5" />
  <g
     id="g2455">
    <g
       transform="matrix(0.9072659,0,0,0.9072659,15.553572,37.845336)"
       id="g2471">
      <g
         transform="matrix(0.8112628,0,0,0.8112628,-122.73559,-179.80625)"
         id="g2488">
        <g
           transform="matrix(0.5564551,0,0,-0.5624606,210.87496,204.18533)"
           id="g2446"
           style="fill:#002490;fill-opacity:1">
          <path
             d="M 0,0 C 0,0 105.822,-70.791 232.652,-67.639 C 232.652,-67.639 328.061,-68.361 279.287,-3.43 C 279.287,-3.43 324.896,-33.308 300.623,-61.758 C 300.623,-61.758 287.822,-77.854 254.984,-78.18 C 254.984,-78.18 119.77,-87.761 0,0"
             id="path2448"
             style="fill:#002490;fill-opacity:1;fill-rule:nonzero;stroke:none" />
        </g>
        <g
           transform="matrix(0.5564551,0,0,-0.5624606,208.55676,245.80415)"
           id="g2450"
           style="fill:#002490;fill-opacity:1">
          <path
             d="M 0,0 C 0,0 117.535,-78.624 258.399,-75.122 C 258.399,-75.122 364.364,-75.927 310.195,-3.809 C 310.195,-3.809 360.852,-36.994 333.893,-68.591 C 333.893,-68.591 319.674,-86.467 283.203,-86.829 C 283.203,-86.829 133.024,-97.472 0,0"
             id="path2452"
             style="fill:#002490;fill-opacity:1;fill-rule:nonzero;stroke:none" />
        </g>
        <g
           transform="matrix(0.5564551,0,0,-0.5624606,221.77742,273.39324)"
           id="g2454"
           style="fill:#002490;fill-opacity:1">
          <path
             d="M 0,0 C 0,0 95.632,-63.973 210.249,-61.124 C 210.249,-61.124 296.469,-61.779 252.395,-3.099 C 252.395,-3.099 293.61,-30.101 271.675,-55.81 C 271.675,-55.81 260.105,-70.354 230.431,-70.65 C 230.431,-70.65 108.235,-79.309 0,0"
             id="path2456"
             style="fill:#002490;fill-opacity:1;fill-rule:nonzero;stroke:none" />
        </g>
        <g
           transform="matrix(0.5564551,0,0,-0.5624606,246.39788,298.65459)"
           id="g2458"
           style="fill:#002490;fill-opacity:1">
          <path
             d="M 0,0 C 0,0 63.708,-42.618 140.063,-40.72 C 140.063,-40.72 197.5,-41.157 168.137,-2.065 C 168.137,-2.065 195.595,-20.052 180.982,-37.18 C 180.982,-37.18 173.276,-46.868 153.508,-47.065 C 153.508,-47.065 72.103,-52.834 0,0"
             id="path2460"
             style="fill:#002490;fill-opacity:1;fill-rule:nonzero;stroke:none" />
        </g>
        <g
           transform="matrix(0.5564551,0,0,-0.5624606,177.92564,213.78946)"
           id="g2462"
           style="fill:#002490;fill-opacity:1">
          <path
             d="M 0,0 C 0,0 148.081,-99.058 325.56,-94.646 C 325.56,-94.646 459.065,-95.66 390.818,-4.798 C 390.818,-4.798 454.641,-46.609 420.672,-86.418 C 420.672,-86.418 402.76,-108.941 356.811,-109.398 C 356.811,-109.398 167.597,-122.804 0,0"
             id="path2464"
             style="fill:#002490;fill-opacity:1;fill-rule:nonzero;stroke:none" />
        </g>
        <g
           transform="matrix(0.5564551,0,0,-0.5624606,300.5191,333.21622)"
           id="g2466"
           style="fill:#002490;fill-opacity:1">
          <path
             d="M 0,0 C -0.47,-2.74 -9.097,-3.403 -19.268,-1.482 C -29.438,0.441 -37.306,4.221 -36.835,6.963 C -36.366,9.703 -27.739,10.365 -17.567,8.444 C -7.396,6.521 0.471,2.742 0,0"
             id="path2468"
             style="fill:#002490;fill-opacity:1;fill-rule:nonzero;stroke:none" />
        </g>
        <path
           d="M 167.72214,356.12731 L 167.72214,386.17796 C 167.83253,394.04072 169.5798,399.66102 172.96398,403.03888 C 176.34813,406.41674 180.70686,408.06309 186.04018,407.97793 C 191.67937,408.03943 196.2778,406.32685 199.83547,402.84018 C 203.39306,399.35352 205.22865,393.72375 205.34223,385.95088 L 205.34223,356.12731 L 198.68113,356.12731 L 198.68113,386.40504 C 198.63221,391.98121 197.49995,396.08131 195.28435,398.70537 C 193.06868,401.32945 190.06299,402.62887 186.26726,402.60363 C 182.7916,402.63833 179.95938,401.35784 177.77057,398.76215 C 175.58173,396.16647 174.45262,392.04744 174.38325,386.40504 L 174.38325,356.12731 L 167.72214,356.12731 z M 222.94062,407.14529 L 222.94062,385.34532 C 222.94533,381.16166 222.91695,377.39902 222.85546,374.0574 C 222.79394,370.71585 222.67094,367.46415 222.48645,364.30229 L 222.71353,364.2266 C 223.97824,366.99895 225.42274,369.81856 227.04703,372.68544 C 228.67129,375.5524 230.38072,378.40986 232.17533,381.25783 L 248.37392,407.14529 L 255.03502,407.14529 L 255.03502,356.12731 L 248.82808,356.12731 L 248.82808,377.47311 C 248.82174,381.3982 248.8722,385.03468 248.97947,388.38256 C 249.08667,391.73047 249.28852,395.0831 249.58503,398.44044 L 249.35794,398.51614 C 248.18464,395.91416 246.84107,393.24593 245.32722,390.51146 C 243.8133,387.77702 242.1291,384.91956 240.27462,381.93908 L 224.00034,356.12731 L 216.73368,356.12731 L 216.73368,407.14529 L 222.94062,407.14529 z M 292.89821,391.09809 L 298.3482,407.14529 L 305.38777,407.14529 L 287.97807,356.12731 L 280.10586,356.12731 L 262.69616,407.14529 L 269.50865,407.14529 L 274.80726,391.09809 L 292.89821,391.09809 z M 276.16976,385.95088 L 281.16558,371.19048 C 281.68911,369.63248 282.15589,368.07443 282.56593,366.51635 C 282.97592,364.95835 283.367,363.43816 283.73919,361.95577 L 283.89058,361.95577 C 284.26114,363.42712 284.65538,364.93155 285.0733,366.46905 C 285.49118,368.00663 285.98003,369.60567 286.53988,371.26617 L 291.6114,385.95088 L 276.16976,385.95088 z M 310.25765,404.64738 C 311.6848,405.58095 313.58031,406.36312 315.94419,406.99391 C 318.30805,407.62469 320.75234,407.9527 323.27708,407.97793 C 329.28372,407.85493 333.75283,406.37889 336.68444,403.54981 C 339.61598,400.72074 341.07625,397.27665 341.06525,393.21753 C 341.06521,389.52272 339.98657,386.50441 337.82931,384.1626 C 335.672,381.82083 332.43607,379.84332 328.12151,378.23005 C 324.61906,376.92593 322.0486,375.54136 320.41015,374.07633 C 318.77167,372.61136 317.96111,370.71585 317.97847,368.38979 C 317.94377,366.54793 318.67548,364.8385 320.17361,363.2615 C 321.67171,361.68458 324.14439,360.84563 327.59165,360.74466 C 329.91292,360.78413 331.89359,361.06483 333.53366,361.58676 C 335.17367,362.10878 336.3974,362.63549 337.20483,363.16688 L 339.0215,357.79258 C 337.91601,357.12557 336.4179,356.54841 334.52715,356.06107 C 332.63634,355.57384 330.4002,355.31837 327.81874,355.29467 C 322.79293,355.37514 318.80321,356.69033 315.84957,359.24024 C 312.8959,361.79023 311.38517,365.0924 311.31737,369.14673 C 311.35837,372.67601 312.56317,375.60917 314.93177,377.9462 C 317.30037,380.28329 320.58676,382.19457 324.79096,383.68005 C 328.20507,384.93218 330.66829,386.34514 332.18062,387.91893 C 333.6929,389.49276 334.43408,391.43558 334.40414,393.7474 C 334.38046,396.36202 333.44374,398.45622 331.59399,400.03003 C 329.74419,401.60384 327.12327,402.41125 323.73124,402.45224 C 321.43989,402.43175 319.28576,402.1132 317.26884,401.4966 C 315.25189,400.88001 313.49515,400.08838 311.99862,399.12169 L 310.25765,404.64738 z M 350.01185,356.12731 L 350.01185,386.17796 C 350.12223,394.04072 351.8695,399.66102 355.25368,403.03888 C 358.63784,406.41674 362.99656,408.06309 368.32988,407.97793 C 373.96908,408.03943 378.5675,406.32685 382.12517,402.84018 C 385.68277,399.35352 387.51835,393.72375 387.63194,385.95088 L 387.63194,356.12731 L 380.97084,356.12731 L 380.97084,386.40504 C 380.92191,391.98121 379.78965,396.08131 377.57405,398.70537 C 375.35838,401.32945 372.35269,402.62887 368.55696,402.60363 C 365.08131,402.63833 362.24908,401.35784 360.06027,398.76215 C 357.87143,396.16647 356.74232,392.04744 356.67295,386.40504 L 356.67295,356.12731 L 350.01185,356.12731 z M 399.02338,407.14529 L 405.60879,407.14529 L 405.60879,385.04255 L 411.81572,385.04255 C 414.7662,385.11511 417.04019,385.91621 418.63768,387.44584 C 420.23511,388.97552 421.39261,391.47974 422.11015,394.9585 C 422.79295,398.15344 423.41427,400.79013 423.97413,402.86856 C 424.53392,404.94701 425.02278,406.37258 425.44071,407.14529 L 432.2532,407.14529 C 431.72961,406.1455 431.14928,404.45499 430.51223,402.07377 C 429.8751,399.69256 429.14338,396.71526 428.31709,393.14184 C 427.71939,390.47994 426.81421,388.27219 425.60156,386.51858 C 424.38884,384.76502 422.82134,383.5413 420.89904,382.84741 L 420.89904,382.62033 C 423.61455,381.70256 425.86645,380.15083 427.65476,377.96512 C 429.44301,375.77948 430.37026,373.01664 430.43653,369.67659 C 430.42546,367.65654 430.06906,365.81149 429.36735,364.14144 C 428.66556,362.47148 427.68469,361.06168 426.42473,359.91202 C 424.89189,358.5133 422.92384,357.46935 420.52057,356.78017 C 418.11725,356.09108 415.16518,355.74731 411.66433,355.74883 C 409.39191,355.75519 407.14316,355.85612 404.91807,356.05161 C 402.69297,356.2472 400.72807,356.49952 399.02338,356.80855 L 399.02338,407.14529 z M 405.60879,361.42591 C 406.17806,361.27141 407.00754,361.14526 408.09724,361.04744 C 409.18691,360.94971 410.52733,360.89925 412.1185,360.89605 C 415.65403,360.87875 418.47995,361.63254 420.59627,363.15742 C 422.71253,364.68239 423.79748,367.08253 423.85112,370.35784 C 423.81167,373.31153 422.77403,375.6549 420.73819,377.38795 C 418.7023,379.12107 415.90477,380.00732 412.34558,380.04672 L 405.60879,380.04672 L 405.60879,361.42591 z"
           id="text2394"
           style="font-size:75.69532013px;font-style:normal;font-variant:normal;font-weight:normal;font-stretch:normal;text-align:center;line-height:100%;writing-mode:lr-tb;text-anchor:middle;fill:#002490;fill-opacity:1;stroke:none;stroke-width:1px;stroke-linecap:butt;stroke-linejoin:miter;stroke-opacity:1;font-family:Myriad Pro;-inkscape-font-specification:Myriad Pro" />
      </g>
    </g>
  </g>
</svg>
