<?xml version="1.0" encoding="UTF-8" standalone="no"?>
<!-- Created with Inkscape (http://www.inkscape.org/) -->
<svg
   xmlns:dc="http://purl.org/dc/elements/1.1/"
   xmlns:cc="http://creativecommons.org/ns#"
   xmlns:rdf="http://www.w3.org/1999/02/22-rdf-syntax-ns#"
   xmlns:svg="http://www.w3.org/2000/svg"
   xmlns="http://www.w3.org/2000/svg"
   xmlns:sodipodi="http://sodipodi.sourceforge.net/DTD/sodipodi-0.dtd"
   xmlns:inkscape="http://www.inkscape.org/namespaces/inkscape"
   version="1.0"
   width="300"
   height="300"
   id="svg2"
   sodipodi:version="0.32"
   inkscape:version="0.46"
   sodipodi:docname="Escudo de la Isla de Pascua.svg"
   inkscape:output_extension="org.inkscape.output.svg.inkscape">
  <metadata
     id="metadata32">
    <rdf:RDF>
      <cc:Work
         rdf:about="">
        <dc:format>image/svg+xml</dc:format>
        <dc:type
           rdf:resource="http://purl.org/dc/dcmitype/StillImage" />
      </cc:Work>
    </rdf:RDF>
  </metadata>
  <sodipodi:namedview
     inkscape:window-height="666"
     inkscape:window-width="640"
     inkscape:pageshadow="2"
     inkscape:pageopacity="0.0"
     guidetolerance="10.0"
     gridtolerance="10.0"
     objecttolerance="10.0"
     borderopacity="1.0"
     bordercolor="#666666"
     pagecolor="#ffffff"
     id="base"
     showgrid="false"
     inkscape:zoom="1.54"
     inkscape:cx="138.63636"
     inkscape:cy="150"
     inkscape:window-x="22"
     inkscape:window-y="0"
     inkscape:current-layer="svg2" />
  <defs
     id="defs5">
    <inkscape:perspective
       sodipodi:type="inkscape:persp3d"
       inkscape:vp_x="0 : 150 : 1"
       inkscape:vp_y="0 : 1000 : 0"
       inkscape:vp_z="300 : 150 : 1"
       inkscape:persp3d-origin="150 : 100 : 1"
       id="perspective34" />
  </defs>
  <g
     transform="matrix(2.0824718,0,0,2.0824718,-224.84492,-102.80517)"
     id="g3499">
    <path
       d="M 164.25,54.9375 C 159.71063,54.839544 151.76079,61.808985 145.96875,65.84375 C 140.17671,69.878515 146.24973,65.639025 142.25,66.125 C 138.25027,66.610975 135.0554,64.738116 131.40625,64.96875 C 129.21676,65.107131 126.84264,66.01703 124.0625,68.625 C 121.57244,71.583977 114.87929,78.092562 128.40625,87.6875 C 124.8163,86.016262 121.39711,86.231468 118,89.4375 C 112.77205,94.60209 110.56709,98.678541 110.125,102.40625 C 110.46826,114.12028 117.94391,127.1325 127.09375,134.25 C 135.00352,139.67027 142.54172,141.76745 147.07099,139.09375 C 140.8022,137.54726 138.78683,134.1222 135.09375,130 C 130.60574,124.66009 124.69951,119.00552 123.4375,112.03125 C 120.4549,93.581229 133.72084,98.907621 136.09375,108.78125 C 142.76707,125.60164 150.89522,138.93387 165.1875,139.34375 C 160.09159,142.95011 155.84879,139.79513 152.125,144.20704 C 140.44022,139.07434 134.79211,150.71773 140.71875,156.3125 C 142.14184,157.65591 146.3798,158.72804 150.40625,158.5625 C 150.77937,159.79138 153.2934,160.84516 155.8125,160.8125 C 158.866,160.77292 160.74128,158.71072 160.5,152.40625 C 163.15075,149.67728 164.13296,153.32181 169.125,149.4375 C 166.2618,164.29654 175.17791,164.0404 180,164.71875 C 184.82209,164.0404 193.73821,164.29655 190.875,149.4375 C 195.86703,153.3218 196.84925,149.67729 199.5,152.40625 C 199.25872,158.71071 201.134,160.77293 204.1875,160.8125 C 206.7066,160.84515 209.22062,159.79139 209.59375,158.5625 C 213.62021,158.72803 217.85816,157.65591 219.28125,156.3125 C 225.20789,150.71773 219.69714,139.21171 208.01237,144.34441 C 204.28859,139.9325 199.9084,142.95011 194.8125,139.34375 C 209.10479,138.93387 217.23294,125.60164 223.90625,108.78125 C 226.27915,98.907622 239.5451,93.581228 236.5625,112.03125 C 235.30049,119.00552 229.39426,124.66009 224.90625,130 C 221.21317,134.1222 218.23622,137.13515 211.96743,138.68165 C 216.4967,141.35536 224.99648,139.67027 232.90625,134.25 C 242.05609,127.1325 249.53175,114.12028 249.875,102.40625 C 249.43291,98.678541 247.22794,94.602092 242,89.4375 C 238.31598,85.960694 234.61088,86.010269 231.1875,87.875 C 245.12288,78.104436 238.42756,71.583974 235.9375,68.625 C 228.52379,61.670417 224.14955,66.90256 217.75,66.125 C 216.37867,65.95838 215.58681,66.218241 215.125,66.75 C 214.78329,66.437641 214.42418,66.117464 214.03125,65.84375 C 208.23921,61.808985 200.28937,54.839544 195.75,54.9375 C 194.23688,54.970152 193.10659,55.780337 192.5625,57.75 C 195.10952,57.863435 205.51645,62.327367 207.34375,69.84375 C 201.26798,69.299296 196.92339,65.193376 192.0625,60.71875 C 190.71925,73.79248 204.90915,75.573236 214.21875,76.78125 C 211.38241,79.770329 207.43843,80.15565 205.59375,84.21875 C 204.52364,86.575772 204.15398,90.183193 205.125,96.21875 C 196.93639,85.637151 193.79809,86.997172 186.78125,93.71875 C 183.42941,96.929551 179.8617,111.1394 180,116.90625 C 180.13831,111.1394 176.57058,96.929553 173.21875,93.71875 C 166.20192,86.99717 163.06361,85.63715 154.875,96.21875 C 155.84602,90.183194 155.47636,86.575774 154.40625,84.21875 C 152.55497,80.141097 148.59081,79.746004 145.65625,76.75 C 154.86063,75.565949 169.2883,73.866029 167.9375,60.71875 C 163.07661,65.193376 158.73202,69.299296 152.65625,69.84375 C 154.48355,62.327367 164.89048,57.863435 167.4375,57.75 C 166.89341,55.780337 165.76312,54.970152 164.25,54.9375 z M 164.15625,105.0625 C 168.08517,104.79911 173.8168,111.78957 177.75,122.34375 C 179.24224,120.90884 180.75775,121.25005 182.25,122.34375 C 187.97103,106.99221 197.53902,99.188028 199.75,110.25 C 200.90733,118.90871 190.75747,115.95506 187.90625,128.75 C 188.05195,136.27255 183.5239,133.45449 180,129.96875 C 176.4761,133.4545 171.94804,136.27254 172.09375,128.75 C 169.24254,115.95507 159.09266,118.90871 160.25,110.25 C 160.94093,106.79313 162.37038,105.18222 164.15625,105.0625 z M 180,135.15625 C 184.53028,136.07963 189.13281,136.64498 189.875,140.09375 C 188.82765,142.79915 183.90677,141.27496 180.5,147.46875 C 182.66176,146.69437 184.91624,148.0905 186.1875,150.1875 C 188.22247,153.54428 187.52342,161.69315 180,159.8125 C 172.47658,161.69316 171.77753,153.54429 173.8125,150.1875 C 175.08376,148.09049 177.33823,146.69437 179.5,147.46875 C 176.09324,141.27496 171.17235,142.79915 170.125,140.09375 C 170.86719,136.64498 175.46972,136.07962 180,135.15625 z M 148.09375,147.5625 C 148.70552,147.5849 149.2531,147.71144 149.6875,147.90625 C 150.66606,148.34509 152.83981,150.65105 156.0625,152.40625 C 157.5828,158.77925 154.70809,158.45622 150.65625,158.5625 C 147.89906,156.82787 142.32921,154.65266 143.28125,150.9375 C 143.94799,148.34306 146.25844,147.49531 148.09375,147.5625 z M 211.90625,147.5625 C 213.74156,147.49531 216.05202,148.34307 216.71875,150.9375 C 217.67079,154.65266 212.10094,156.82788 209.34375,158.5625 C 205.29192,158.45621 202.41721,158.77926 203.9375,152.40625 C 207.16018,150.65104 209.33394,148.34509 210.3125,147.90625 C 210.7469,147.71144 211.29448,147.5849 211.90625,147.5625 z"
       id="path3327"
       style="fill:#ffffff;fill-rule:evenodd;stroke:none;stroke-width:0.99977344;stroke-linecap:round;stroke-linejoin:bevel;stroke-miterlimit:4;stroke-dasharray:none;stroke-opacity:1"
       sodipodi:nodetypes="cssscccccccccccscscccccscscccccccccccscssccccscscscscccccccccccccccccscsccccsccccccccsc" />
    <g
       id="g3297">
      <path
         d="M 180,192.17647 L 184.09923,185.55882 C 188.00513,188.12634 191.14699,197.57016 196.67276,185.55882 C 203.47627,195.38951 204.43132,185.95365 203.61156,182.52736 C 208.7045,189.40861 212.60741,185.73111 210.44331,179.8803 C 233.71551,174.6317 203.18535,165.7671 194.53175,163.15127 C 193.47072,165.7046 189.45685,169.69063 180,168.94172 C 170.54315,169.69063 166.52928,165.7046 165.46825,163.15127 C 156.81465,165.7671 126.28449,174.6317 149.55669,179.8803 C 147.39259,185.73111 151.2955,189.40861 156.38844,182.52736 C 155.56868,185.95365 156.52373,195.38951 163.32724,185.55882 C 168.85301,197.57016 171.99487,188.12634 175.90077,185.55882 L 180,192.17647 z"
         id="path2384"
         style="fill:#ffffff;fill-rule:evenodd;stroke:#eac102;stroke-width:2.5;stroke-linecap:round;stroke-linejoin:bevel;stroke-miterlimit:4;stroke-dasharray:none;stroke-opacity:1" />
      <path
         style="fill:none;fill-rule:evenodd;stroke:#eac102;stroke-width:2.5;stroke-linecap:round;stroke-linejoin:bevel;stroke-miterlimit:4;stroke-dasharray:none;stroke-opacity:1"
         d="M 224.63167,83.890694 C 216.42462,84.41691 213.1245,104.71123 222.07751,94.924843 C 229.39382,82.463839 245.73368,86.06176 249.18895,99.525491 C 251.19732,113.29357 242.20047,127.26965 231.38936,135.22535 C 227.27396,139.35107 210.36402,142.16322 212.8469,138.43399 C 224.41777,133.07361 234.88303,121.64353 236.94933,108.85885 C 237.99983,91.513013 221.08891,105.0176 221.31279,114.91015 C 216.39136,126.04512 208.45229,139.0278 194.80848,139.34703 C 203.35942,146.38689 215.26244,139.70361 221.36207,148.91864 C 225.93729,159.18629 200.55417,161.5136 215.52613,154.52837 C 221.37175,139.00599 192.56697,155.71139 208.08729,158.53659 C 210.6509,162.45579 195.16932,160.67417 199.49146,152.41007 C 193.82739,150.33679 188.84873,147.98468 191.33869,156.32223 C 189.144,171.2739 161.90453,164.59732 169.13508,149.4524 C 163.57272,151.5898 158.90017,151.29842 159.40258,158.95553 C 154.66803,163.45765 146.13022,157.79437 156.06481,157.18548 C 160.44323,146.6103 136.36681,144.95971 145.5793,155.49742 C 159.05946,162.64218 129.39387,156.56312 139.81531,146.63587 C 147.68129,141.53217 156.80862,145.28366 165.19152,139.34703 C 148.34476,138.41048 140.65419,120.67557 135.54152,106.99122 C 132.24656,95.181893 118.26447,100.8491 123.42583,112.04441 C 125.49797,124.45928 143.21323,136.33186 147.48263,139.88201 C 127.7887,142.17091 112.44561,122.6076 110.27535,104.60395 C 109.44767,93.309961 124.39834,79.809436 133.81328,90.978436 C 137.25317,96.308199 146.36146,102.11062 142.91753,91.214012 C 141.2122,88.076377 138.28741,85.831509 135.36833,83.890695"
         id="path2390" />
      <g
         transform="translate(-2.75566,0)"
         id="g3270"
         style="stroke:#eac102;stroke-width:2.5;stroke-linecap:round;stroke-linejoin:bevel;stroke-miterlimit:4;stroke-dasharray:none;stroke-opacity:1">
        <g
           id="g3250"
           style="stroke:#eac102;stroke-width:2.5;stroke-linecap:round;stroke-linejoin:bevel;stroke-miterlimit:4;stroke-dasharray:none;stroke-opacity:1">
          <path
             style="fill:none;fill-rule:evenodd;stroke:#eac102;stroke-width:2.5;stroke-linecap:round;stroke-linejoin:bevel;stroke-miterlimit:4;stroke-dasharray:none;stroke-opacity:1"
             d="M 129.87978,86.83766 C 126.04835,83.796506 122.17168,79.681381 123.21708,74.527115 C 124.99568,68.535247 131.46001,63.452683 137.86989,65.307549 C 141.39784,65.868685 145.50102,67.280061 148.72425,65.349935 C 154.11028,60.912457 157.55219,54.395854 163.55358,50.616896"
             id="path2392"
             sodipodi:nodetypes="ccccc" />
          <path
             style="fill:none;fill-rule:evenodd;stroke:#eac102;stroke-width:2.5;stroke-linecap:round;stroke-linejoin:bevel;stroke-miterlimit:4;stroke-dasharray:none;stroke-opacity:1"
             d="M 138.41338,135.15698 C 128.57103,129.50269 119.42179,120.25748 118.22074,108.45496 C 117.80402,103.10021 118.76005,96.730585 123.42184,93.387382 C 127.77498,90.813828 132.62792,94.119 135.70351,97.176479 C 137.12796,98.560972 138.42617,100.07031 139.64574,101.63672"
             id="path2394" />
          <path
             d="M 139.99643,78.098587 A 8.0103588,8.0103588 0 1 1 123.97571,78.098587 A 8.0103588,8.0103588 0 1 1 139.99643,78.098587 z"
             transform="translate(3.5928699,-1.7253081)"
             id="path2398"
             style="fill:none;fill-opacity:1;stroke:#eac102;stroke-width:2.5;stroke-linecap:round;stroke-linejoin:bevel;stroke-miterlimit:4;stroke-dasharray:none;stroke-opacity:1" />
          <path
             d="M 136.79229,76.373283 A 4.3132701,4.3132701 0 1 1 128.16575,76.373283 A 4.3132701,4.3132701 0 1 1 136.79229,76.373283 z"
             transform="translate(3.0999195,-4.4500977e-6)"
             id="path2396"
             style="fill:none;fill-opacity:1;stroke:#eac102;stroke-width:2.5;stroke-linecap:round;stroke-linejoin:bevel;stroke-miterlimit:4;stroke-dasharray:none;stroke-opacity:1" />
          <path
             d="M 143.83578,77.482407 C 143.27056,74.268139 144.45901,68.807589 148.72093,65.838712 C 156.44365,60.459028 168.03197,49.885948 170.20834,57.764601 C 167.66132,57.878038 157.24728,62.325374 155.41998,69.841757 C 161.49575,69.297305 165.84039,65.196898 170.70128,60.722272 C 172.30017,76.284153 151.786,75.839489 143.83578,77.482407 z"
             id="path3170"
             style="fill:none;fill-rule:evenodd;stroke:#eac102;stroke-width:2.5;stroke-linecap:round;stroke-linejoin:bevel;stroke-miterlimit:4;stroke-dasharray:none;stroke-opacity:1" />
          <path
             style="fill:none;fill-rule:evenodd;stroke:#eac102;stroke-width:2.5;stroke-linecap:round;stroke-linejoin:bevel;stroke-miterlimit:4;stroke-dasharray:none;stroke-opacity:1"
             d="M 159.85649,133.43169 C 152.9195,127.00214 147.31256,118.03086 148.22585,108.20812 C 148.42292,100.80947 152.58679,93.215955 149.48527,85.956908 C 148.72634,84.254178 146.49582,81.788714 149.16782,84.191803 C 154.93236,89.098347 154.23672,97.244926 154.37956,104.05993 C 154.0695,113.49294 160.75257,120.803 164.17807,129.04194 C 164.72452,130.52065 165.1066,132.09137 165.03241,133.67816"
             id="path3172" />
          <path
             d="M 156.66725,150.48873 C 160.74159,144.98839 166.15308,148.81219 170.20834,142.05822 C 170.53385,144.04768 170.86475,146.03499 174.39837,146.7412 L 170.45481,149.94535"
             id="path3174"
             style="fill:none;fill-rule:evenodd;stroke:#eac102;stroke-width:2.5;stroke-linecap:round;stroke-linejoin:bevel;stroke-miterlimit:4;stroke-dasharray:none;stroke-opacity:1"
             sodipodi:nodetypes="cccc" />
          <path
             style="fill:none;fill-rule:evenodd;stroke:#eac102;stroke-width:2.5;stroke-linecap:round;stroke-linejoin:bevel;stroke-miterlimit:4;stroke-dasharray:none;stroke-opacity:1"
             d="M 148.51875,76.742989 C 151.52214,79.777077 156.75942,80.941059 157.69941,85.69798 C 158.94073,88.619244 157.48393,94.61658 158.01842,95.727045 C 160.69345,92.618758 163.64242,88.203601 168.25227,88.532079 C 172.10956,89.59819 175.44337,92.614689 177.52338,95.967794 C 180.48387,102.51887 182.02823,109.74427 182.2855,116.91802 C 178.37634,110.46322 174.57432,103.46149 168.25692,99.041371 C 164.57014,96.175029 159.96774,99.146883 158.59114,102.98003 C 157.22879,105.75353 156.38395,108.74723 155.66645,111.7421"
             id="path3176" />
        </g>
        <g
           id="g3260"
           style="stroke:#eac102;stroke-width:2.5;stroke-linecap:round;stroke-linejoin:bevel;stroke-miterlimit:4;stroke-dasharray:none;stroke-opacity:1">
          <path
             style="fill:none;fill-rule:evenodd;stroke:#eac102;stroke-width:2.5;stroke-linecap:round;stroke-linejoin:bevel;stroke-miterlimit:4;stroke-dasharray:none;stroke-opacity:1"
             d="M 236.04706,86.503593 C 239.73686,83.497584 243.30184,79.495029 242.29424,74.527115 C 240.51564,68.535247 234.05131,63.452683 227.64143,65.307549 C 224.11348,65.868684 220.0103,67.280061 216.78708,65.349935 C 211.40105,60.912455 207.95913,54.395855 201.95774,50.616896"
             id="path3202"
             sodipodi:nodetypes="ccccc" />
          <path
             style="fill:none;fill-rule:evenodd;stroke:#eac102;stroke-width:2.5;stroke-linecap:round;stroke-linejoin:bevel;stroke-miterlimit:4;stroke-dasharray:none;stroke-opacity:1"
             d="M 227.09795,135.15698 C 236.94029,129.50269 246.08953,120.25748 247.29058,108.45496 C 247.7073,103.10021 246.75128,96.730585 242.08948,93.387382 C 237.73635,90.813828 232.8834,94.119 229.80781,97.176479 C 228.38336,98.560971 227.08515,100.07031 225.86558,101.63672"
             id="path3204" />
          <path
             d="M 139.99643,78.098587 A 8.0103588,8.0103588 0 1 1 123.97571,78.098587 A 8.0103588,8.0103588 0 1 1 139.99643,78.098587 z"
             transform="matrix(-1,0,0,1,361.91845,-1.7253081)"
             id="path3206"
             style="fill:none;fill-opacity:1;stroke:#eac102;stroke-width:2.5;stroke-linecap:round;stroke-linejoin:bevel;stroke-miterlimit:4;stroke-dasharray:none;stroke-opacity:1" />
          <path
             d="M 136.79229,76.373283 A 4.3132701,4.3132701 0 1 1 128.16575,76.373283 A 4.3132701,4.3132701 0 1 1 136.79229,76.373283 z"
             transform="matrix(-1,0,0,1,362.4114,-4.4500977e-6)"
             id="path3208"
             style="fill:none;fill-opacity:1;stroke:#eac102;stroke-width:2.5;stroke-linecap:round;stroke-linejoin:bevel;stroke-miterlimit:4;stroke-dasharray:none;stroke-opacity:1" />
          <path
             d="M 221.67554,77.482407 C 222.24076,74.268139 221.05231,68.807589 216.79039,65.838712 C 209.06767,60.459028 197.47935,49.885948 195.30298,57.764601 C 197.85,57.878038 208.26404,62.325374 210.09134,69.841757 C 204.01557,69.297305 199.67093,65.196898 194.81004,60.722272 C 193.21115,76.284153 213.72532,75.839489 221.67554,77.482407 z"
             id="path3210"
             style="fill:none;fill-rule:evenodd;stroke:#eac102;stroke-width:2.5;stroke-linecap:round;stroke-linejoin:bevel;stroke-miterlimit:4;stroke-dasharray:none;stroke-opacity:1" />
          <path
             style="fill:none;fill-rule:evenodd;stroke:#eac102;stroke-width:2.5;stroke-linecap:round;stroke-linejoin:bevel;stroke-miterlimit:4;stroke-dasharray:none;stroke-opacity:1"
             d="M 205.65483,133.43169 C 212.59182,127.00214 218.19876,118.03086 217.28547,108.20812 C 217.0884,100.80947 212.92453,93.215955 216.02605,85.956908 C 216.78498,84.254178 219.0155,81.788714 216.3435,84.191803 C 210.57896,89.098347 211.2746,97.244926 211.13176,104.05993 C 211.44182,113.49294 204.75874,120.803 201.33325,129.04194 C 200.7868,130.52065 200.40472,132.09137 200.47891,133.67816"
             id="path3212" />
          <path
             style="fill:none;fill-rule:evenodd;stroke:#eac102;stroke-width:2.5;stroke-linecap:round;stroke-linejoin:bevel;stroke-miterlimit:4;stroke-dasharray:none;stroke-opacity:1"
             d="M 209.46771,150.80055 C 207.54756,148.00844 204.73404,147.81532 201.68605,146.89593 C 199.06501,146.12082 196.65763,144.47446 195.30298,142.05822 C 195.19846,144.03354 194.06247,146.04796 192.02497,146.50985 C 190.37986,146.55347 191.8397,147.25113 192.38205,147.77235 C 193.27354,148.49668 194.16502,149.22101 195.0565,149.94534"
             id="path3214"
             sodipodi:nodetypes="cccccc" />
          <path
             style="fill:none;fill-rule:evenodd;stroke:#eac102;stroke-width:2.5;stroke-linecap:round;stroke-linejoin:bevel;stroke-miterlimit:4;stroke-dasharray:none;stroke-opacity:1"
             d="M 216.99257,76.742989 C 213.98918,79.777077 208.7519,80.941059 207.81191,85.69798 C 206.57058,88.619244 208.02739,94.61658 207.4929,95.727045 C 204.81787,92.618758 201.8689,88.203601 197.25905,88.532079 C 193.40176,89.59819 190.06795,92.61469 187.98794,95.967794 C 185.02745,102.51887 183.48309,109.74427 183.22582,116.91802 C 187.13498,110.46322 190.93699,103.46149 197.2544,99.041371 C 200.94118,96.175029 205.54358,99.146883 206.92018,102.98003 C 208.28253,105.75353 209.12737,108.74723 209.84487,111.7421"
             id="path3216" />
        </g>
      </g>
      <path
         style="fill:none;fill-rule:evenodd;stroke:#eac102;stroke-width:2.5;stroke-linecap:round;stroke-linejoin:bevel;stroke-miterlimit:4;stroke-dasharray:none;stroke-opacity:1"
         d="M 182.23837,122.34041 C 184.65508,116.30857 187.51363,109.88918 192.93333,105.97022 C 196.84912,102.91613 200.25575,108.09257 199.82712,111.7572 C 199.77855,116.59205 194.17543,117.8418 191.62852,121.08429 C 189.00577,123.93117 187.8373,127.77387 187.65483,131.55533 C 185.98948,136.83796 181.30391,129.61726 179.32888,130.62431 C 177.17631,133.91147 171.32744,134.68904 172.09261,129.42399 C 171.6621,124.22687 168.02536,119.86514 163.67249,117.24508 C 160.17961,115.43648 159.28477,110.97025 161.06864,107.63979 C 162.855,102.92035 168.34596,105.88604 170.2935,108.85611 C 173.64438,112.80208 175.9345,117.52984 177.76162,122.34041 C 178.95932,120.96504 180.96833,121.24553 182.23837,122.34041 z"
         id="path3178" />
      <path
         style="fill:none;fill-rule:evenodd;stroke:#eac102;stroke-width:2.5;stroke-linecap:round;stroke-linejoin:bevel;stroke-miterlimit:4;stroke-dasharray:none;stroke-opacity:1"
         d="M 180,135.15698 C 183.15641,135.94381 187.01235,135.98883 189.26313,138.66918 C 191.1952,141.34262 186.73438,142.01358 185.05024,142.94527 C 183.38783,143.61485 180.47233,146.50965 180.91909,147.36037 C 184.49511,146.71637 187.24053,150.54821 187.16556,153.82574 C 187.42828,156.66095 185.67143,160.03154 182.50942,160.06867 C 180.06652,159.54788 177.45015,160.73159 175.18037,159.34236 C 172.04085,157.0253 172.16041,151.87011 174.62203,149.09276 C 175.53301,147.3796 178.59369,147.27084 179.32616,147.19588 C 177.86621,144.3576 175.01138,142.69378 172.07117,141.75267 C 168.74572,140.99397 170.76406,137.54952 172.9841,136.94747 C 175.20695,135.97095 177.64379,135.65875 180,135.15698 z"
         id="path3180" />
      <path
         d="M 180,147.78125 C 182.1596,145.85008 182.63678,143.35809 187.17188,142.21875 C 186.26559,141.42903 185.52569,139.169 180,139.21875 C 174.47431,139.169 173.73442,141.42903 172.82812,142.21875 C 175.68778,142.90033 177.67142,145.77196 180,147.78125 z"
         id="path3290"
         style="fill:#eac102;fill-opacity:1;fill-rule:evenodd;stroke:#eac102;stroke-width:2.5;stroke-linecap:round;stroke-linejoin:bevel;stroke-miterlimit:4;stroke-dasharray:none;stroke-opacity:1" />
    </g>
  </g>
</svg>
