<?xml version="1.0" encoding="UTF-8" standalone="no"?>
<!-- Created with Inkscape (http://www.inkscape.org/) -->

<svg
   xmlns:dc="http://purl.org/dc/elements/1.1/"
   xmlns:cc="http://creativecommons.org/ns#"
   xmlns:rdf="http://www.w3.org/1999/02/22-rdf-syntax-ns#"
   xmlns:svg="http://www.w3.org/2000/svg"
   xmlns="http://www.w3.org/2000/svg"
   xmlns:sodipodi="http://sodipodi.sourceforge.net/DTD/sodipodi-0.dtd"
   xmlns:inkscape="http://www.inkscape.org/namespaces/inkscape"
   id="svg2"
   version="1.1"
   inkscape:version="0.48.5 r10040"
   width="346.87503"
   height="401.87506"
   xml:space="preserve"
   sodipodi:docname="ekvaakuna.svg"><metadata
     id="metadata8"><rdf:RDF><cc:Work
         rdf:about=""><dc:format>image/svg+xml</dc:format><dc:type
           rdf:resource="http://purl.org/dc/dcmitype/StillImage" /><dc:title></dc:title></cc:Work></rdf:RDF></metadata><defs
     id="defs6"><clipPath
       clipPathUnits="userSpaceOnUse"
       id="clipPath16"><path
         d="m 0,191.608 186.695,0 L 186.695,0 0,0 0,191.608 z"
         id="path18"
         inkscape:connector-curvature="0" /></clipPath></defs><sodipodi:namedview
     pagecolor="#ffffff"
     bordercolor="#666666"
     borderopacity="1"
     objecttolerance="10"
     gridtolerance="10"
     guidetolerance="10"
     inkscape:pageopacity="0"
     inkscape:pageshadow="2"
     inkscape:window-width="1920"
     inkscape:window-height="1017"
     id="namedview4"
     showgrid="false"
     showguides="true"
     inkscape:guide-bbox="true"
     inkscape:zoom="2.8284271"
     inkscape:cx="186.60286"
     inkscape:cy="287.22682"
     inkscape:window-x="-8"
     inkscape:window-y="-8"
     inkscape:window-maximized="1"
     inkscape:current-layer="g10"
     fit-margin-top="0"
     fit-margin-left="0"
     fit-margin-right="0"
     fit-margin-bottom="0"
     inkscape:showpageshadow="false"><inkscape:grid
       type="xygrid"
       id="grid4653"
       empspacing="5"
       visible="true"
       enabled="true"
       snapvisiblegridlinesonly="true"
       originx="-79.062515px"
       originy="-99.062475px" /></sodipodi:namedview><g
     id="g10"
     inkscape:groupmode="layer"
     inkscape:label="PK_vaakuna_väri_cmyk"
     transform="matrix(1.25,0,0,-1.25,-457.93091,471.21124)"><path
       style="color:#000000;fill:#000000;stroke:none;stroke-width:1.87500000000000000;marker:none;visibility:visible;display:inline;overflow:visible;enable-background:accumulate"
       d="m 342.84375,260.6875 -169.40625,0 -169.40625,0 c 15.036272,80.02659 84.883393,140.25 169.40625,140.25 84.52286,0 154.36998,-60.22341 169.40625,-140.25 z"
       id="path5621"
       transform="matrix(0.8,0,0,-0.8,366.34473,376.96899)"
       inkscape:connector-curvature="0" /><path
       style="color:#000000;fill:#da291c;stroke:none;stroke-width:1.87500000000000000;marker:none;visibility:visible;display:inline;overflow:visible;enable-background:accumulate;fill-opacity:1"
       d="m 0.9375,0.9375 0,227.5 c 0,11.04214 1.1293978,21.79525 3.09375,32.25 l 169.40625,0 169.40625,0 c 1.96435,-10.45475 3.09375,-21.20786 3.09375,-32.25 l 0,-227.5 -345,0 z"
       id="path5613"
       inkscape:connector-curvature="0"
       transform="matrix(0.8,0,0,-0.8,366.34473,376.96899)" /><path
       style="color:#000000;fill:#ffffff;stroke:none;stroke-width:0.80000001;marker:none;visibility:visible;display:inline;overflow:visible;enable-background:accumulate"
       d="m 1,233.0625 c 0.4908033,18.83972 3.9808103,36.90703 10,53.75 8.11618,3.06667 12.286952,9.125 24.4375,9.125 16.263437,0 18.236612,-10.875 34.5,-10.875 16.2635,0 18.236562,10.875 34.5,10.875 16.26346,0 18.23655,-10.875 34.5,-10.875 16.26344,0 18.23654,10.875 34.5,10.875 16.26339,0 18.23658,-10.875 34.5,-10.875 16.26349,0 18.23654,10.875 34.5,10.875 16.2635,0 18.23656,-10.875 34.5,-10.875 16.26345,0 18.23654,10.875 34.5,10.875 12.15055,0 16.32131,-6.05833 24.4375,-9.125 6.01919,-16.84297 9.5092,-34.91028 10,-53.75 -16.20402,0.0288 -18.19565,10.875 -34.4375,10.875 -16.26346,0 -18.23655,-10.875 -34.5,-10.875 -16.26344,0 -18.2365,10.875 -34.5,10.875 -16.26346,0 -18.23651,-10.875 -34.5,-10.875 -16.26343,0 -18.23661,10.875 -34.5,10.875 -16.26346,0 -18.23656,-10.875 -34.5,-10.875 -16.26345,0 -18.23654,10.875 -34.5,10.875 -16.263437,0 -18.2365,-10.875 -34.5,-10.875 -16.263388,0 -18.236562,10.875 -34.5,10.875 -16.241845,0 -18.233543,-10.8462 -34.4375,-10.875 z"
       transform="matrix(0.8,0,0,-0.8,366.34473,376.96899)"
       id="path4587-4"
       inkscape:connector-curvature="0" /><path
       style="color:#000000;fill:none;stroke:#000000;stroke-width:1.5;marker:none;visibility:visible;display:inline;overflow:visible;enable-background:accumulate"
       d="m 643.09476,-376.21895 0,182.00002 c 0,76.452 -61.548,137.999997 -138,137.999997 -76.452,0 -138,-61.547997 -138,-137.999997 l 0,-182.00002 z"
       id="rect5072"
       inkscape:connector-curvature="0"
       sodipodi:nodetypes="cssscc"
       transform="scale(1,-1)" /><g
       id="g5874"
       transform="translate(-0.10609294,0)"><g
         transform="translate(0,0.1127209)"
         id="g5675"><g
           id="g5690"
           transform="translate(3.1338823e-7,3.4224461e-6)"><g
             id="g5699"><path
               sodipodi:nodetypes="czczcc"
               style="color:#000000;fill:#ffffff;stroke:#000000;stroke-width:1;stroke-linecap:butt;stroke-linejoin:miter;stroke-miterlimit:4;stroke-opacity:1;stroke-dasharray:none;stroke-dashoffset:0;marker:none;visibility:visible;display:inline;overflow:visible;enable-background:accumulate"
               d="m 91.875,80.437499 c 0,0 -19.512851,37.273431 -25.268845,49.629391 C 60.850162,142.42285 63.375,152.0625 63.375,152.0625 c 0,0 10.905364,-1.75365 18.197146,-14.61467 C 88.863927,124.58681 107.25,87.1875 107.25,87.1875 z"
               id="path5693"
               inkscape:connector-curvature="0"
               transform="matrix(0.8,0,0,-0.8,366.34473,376.96899)" /><path
               style="font-size:medium;font-style:normal;font-variant:normal;font-weight:normal;font-stretch:normal;text-indent:0;text-align:start;text-decoration:none;line-height:normal;letter-spacing:normal;word-spacing:normal;text-transform:none;direction:ltr;block-progression:tb;writing-mode:lr-tb;text-anchor:start;baseline-shift:baseline;color:#000000;fill:#000000;fill-opacity:1;stroke:none;stroke-width:1;marker:none;visibility:visible;display:inline;overflow:visible;enable-background:accumulate;font-family:Sans;-inkscape-font-specification:Sans"
               d="m 427.29997,273.77476 c 3.33464,5.40805 14.41976,27.21923 14.41976,27.21923 1.08333,0.28333 2.9002,0.81727 3.925,1.975 l -3.775,-0.91213 -0.875,3.76213 c -0.21657,-1.475 -0.15704,-2.95 0.025,-4.425 0,0 -11.43203,-21.39829 -14.33074,-27.05342 -2.89871,-5.65513 -3.34426,-6.72158 -3.34426,-6.72158 0,0 0.6206,0.74771 3.95524,6.15577 z"
               id="path5695"
               inkscape:connector-curvature="0"
               sodipodi:nodetypes="zccccczcz" /></g><path
             style="color:#000000;fill:#ffcd00;fill-opacity:1;stroke:#000000;stroke-width:1;stroke-linecap:butt;stroke-linejoin:miter;stroke-miterlimit:4;stroke-opacity:1;stroke-dasharray:none;stroke-dashoffset:0;marker:none;visibility:visible;display:inline;overflow:visible;enable-background:accumulate"
             d="m 111.0625,40.952664 c 0,0 -1.07008,2.25 -0.47541,4.984835 0.68078,3.130841 13.97541,8.25 13.97541,8.25 0,0 3.53033,0.03217 5.25,-3.75 0,0 -5.90901,-10.655328 -18.75,-9.484835 z M 87.504462,76.712572 c -0.397748,3.049398 1.723573,3.844893 3.977476,5.435883 2.253902,1.59099 13.125672,7.159456 15.246992,7.954951 2.12132,0.795495 5.70105,-0.53033 5.56847,-3.977476 -0.11731,-3.050024 -4.50781,-4.507805 -4.24265,-4.375223 0.26517,0.132583 -10.137849,-7.728618 -17.695052,-8.524113 0,0 -2.457489,0.43658 -2.855236,3.485978 z"
             id="path5688"
             inkscape:connector-curvature="0"
             transform="matrix(0.8,0,0,-0.8,366.34473,376.96899)"
             sodipodi:nodetypes="cscccssssccs" /></g><g
           id="g5657"><path
             transform="matrix(0.8,0,0,-0.8,366.34473,376.96899)"
             sodipodi:nodetypes="cscccccccccccccccccsccc"
             inkscape:connector-curvature="0"
             id="path5645"
             d="m 116.49584,96.644147 c 0,0 1.59099,23.069363 7.42462,30.228813 5.83363,7.15946 2.38649,15.04226 2.38649,15.04226 0,0 -11.31891,0.75781 -19.12405,4.25045 l -0.0602,1.02654 c 0,0 -8.122702,1.49529 -13.185202,4.12029 l 0.1875,0.9375 c 0,0 -8.625,1.6875 -12.9375,4.3125 l -0.1875,1.125 c 0,0 -8.0625,1.5 -12.5625,6 0.35329,11.8277 15.016968,35.87979 28.875,42.75 0,0 4.643452,-0.45697 8.223182,-4.30186 l 0.7955,0.53033 c 0,0 7.29203,-3.57973 11.66726,-8.3527 l 0.7955,0.66291 c 0,0 5.72379,-2.66774 10.09901,-8.50137 l 0.77275,0.54642 c 0,0 9.41336,-5.83363 12.33018,-10.20885 C 155.11676,170.31226 164.5,158.9375 164.5,158.9375 c 0,0 -1.5,-13.5 -3.375,-34.5 -1.875,-21 -17.3125,-45.937503 -17.3125,-45.937503 l -23.25,6.5625 z"
             style="color:#000000;fill:#ffffff;stroke:#000000;stroke-width:1;stroke-linecap:butt;stroke-linejoin:miter;stroke-miterlimit:4;stroke-opacity:1;stroke-dasharray:none;stroke-dashoffset:0;marker:none;visibility:visible;display:inline;overflow:visible;enable-background:accumulate" /><path
             style="color:#000000;fill:none;stroke:#000000;stroke-width:1;stroke-linecap:butt;stroke-linejoin:miter;stroke-miterlimit:4;stroke-opacity:1;stroke-dasharray:none;stroke-dashoffset:0;marker:none;visibility:visible;display:inline;overflow:visible;enable-background:accumulate"
             d="m 94.058707,151.32192 c 1.701566,14.52375 15.022843,36.01774 24.536353,43.45539 m -13.05938,7.35833 C 93.084337,191.14325 83.848943,174.03928 81.198872,156.82571 m 26.017578,-10.3835 c 1.87417,12.70036 10.80314,30.45258 21.6765,40.0326"
             id="path5673"
             inkscape:connector-curvature="0"
             sodipodi:nodetypes="cccccc"
             transform="matrix(0.8,0,0,-0.8,366.34473,376.96899)" /></g><g
           id="g5636"><path
             sodipodi:nodetypes="scccccccsccccccccs"
             transform="matrix(0.8,0,0,-0.8,366.34473,376.96899)"
             inkscape:connector-curvature="0"
             id="path5634"
             d="m 113.93258,45.025352 c 7.68979,2.121321 17.50089,16.175067 19.09188,23.334523 0,0 5.47213,1.567999 11.25896,6.871389 1.03519,0.1139 1.31914,0.387319 1.73413,1.08356 0,0 -4.20505,6.060173 -7.76755,15.997673 0,0 -13.5,0.75 -22.5,4.5 0,0 -1.28906,-1.335937 -0.24609,-3.152344 -0.17578,-2.660156 -0.51195,-5.764708 -0.69141,-9.410156 0,0 -2.98667,1.125 -7.6875,-2.085248 -3.62799,-2.477595 -12.96025,-7.784009 -16.829507,-9 -2.801701,-1.229466 -2.67128,-6.373668 0.356155,-9.447145 1.366096,-0.725797 2.333185,-0.835944 2.333185,-0.835944 0,0 -0.294224,-3.927627 3.547529,-6.745977 1.696707,-0.520233 3.213845,-0.432561 3.213845,-0.432561 0.06663,-1.61171 0.702613,-4.217788 3.198033,-6.757575 1.05369,-0.516042 1.64334,-0.480407 2.63074,-0.49055 0.26357,-1.228611 0.9442,-2.83998 2.72697,-3.795526 0,0 3.03533,-0.350062 5.63063,0.365881 z"
             style="color:#000000;fill:#ffffff;stroke:#000000;stroke-width:1;stroke-linecap:butt;stroke-linejoin:miter;stroke-miterlimit:4;stroke-opacity:1;stroke-dasharray:none;stroke-dashoffset:0;marker:none;visibility:visible;display:inline;overflow:visible;enable-background:accumulate" /><path
             style="font-size:medium;font-style:normal;font-variant:normal;font-weight:normal;font-stretch:normal;text-indent:0;text-align:start;text-decoration:none;line-height:normal;letter-spacing:normal;word-spacing:normal;text-transform:none;direction:ltr;block-progression:tb;writing-mode:lr-tb;text-anchor:start;baseline-shift:baseline;color:#000000;fill:#000000;fill-opacity:1;stroke:none;stroke-width:1;marker:none;visibility:visible;display:inline;overflow:visible;enable-background:accumulate;font-family:Sans;-inkscape-font-specification:Sans"
             d="m 450.74473,338.60649 -0.05,-0.8 c 1.38911,-0.15534 3.02793,-0.46684 4.375,-1.1 -1.13771,1.36746 -2.61717,1.72593 -4.325,1.9 z m -4.4,-5.7375 -0.2125,-0.8375 c 1.93711,-0.0568 3.0969,-0.28808 4.6625,-0.6125 -1.37617,1.00936 -2.80471,1.24043 -4.45,1.45 z m -5.83713,-5.89283 -0.1,-0.725 c 1.62435,0.003 3.3255,-0.0415 4.925,-0.6875 -1.516,1.3647 -2.83818,1.49435 -4.825,1.4125 z m 32.66213,-4.93217 -0.65,0.45 c 0,0 -3.30612,-5.05595 -7.025,-7.425 4.38112,1.83095 7.675,6.975 7.675,6.975 z"
             id="path5639"
             inkscape:connector-curvature="0"
             sodipodi:nodetypes="cccccccccccccccc" /><path
             style="color:#000000;fill:none;stroke:#000000;stroke-width:1;stroke-linecap:butt;stroke-linejoin:miter;stroke-miterlimit:4;stroke-opacity:1;stroke-dasharray:none;stroke-dashoffset:0;marker:none;visibility:visible;display:inline;overflow:visible;enable-background:accumulate"
             d="m 115.4375,93.812499 c 0,0 9.75,-3.375 21.5625,-3.75 1.3125,-4.687502 3.75,-10.500002 7.6875,-15.000002"
             id="path5643"
             inkscape:connector-curvature="0"
             transform="matrix(0.8,0,0,-0.8,366.34473,376.96899)"
             sodipodi:nodetypes="ccc" /></g><g
           id="g5649"><path
             sodipodi:nodetypes="cccscscccccsczcsscc"
             transform="matrix(0.8,0,0,-0.8,366.34473,376.96899)"
             inkscape:connector-curvature="0"
             id="path5647"
             d="m 120.5,131.875 c 0,0 -1.6875,-5.4375 1.5,-8.8125 0,0 5.625,6.75 12.1875,9.5625 0,0 23.8125,-12.5625 25.6875,-13.5 1.875,-0.9375 3.9375,0 3.9375,2.25 0,0 2.8125,-1.3125 5.0625,0.375 2.25,1.6875 1.5,6.5625 -1.6875,8.4375 0,0 2.4375,2.0625 -0.1875,4.875 0,0 3,15.5625 2.625,26.0625 0,0 -7.125,6.75 -17.0625,10.125 0,0 -0.22518,3.26428 -4.33524,3.1317 0,0 0.66291,3.71231 -1.98874,5.17071 -2.65165,1.45841 -5.3033,0.26517 -5.3033,0.26517 0,0 -1.59693,3.68763 -4.37523,-0.53033 -2.7783,-4.21796 -7.52672,-22.20353 -8.22011,-31.02431 0,0 -6.0988,0.26516 -9.94369,-1.59099 -3.84489,-1.85616 -4.11006,-4.37522 -3.84489,-5.83363 0.26516,-1.45841 3.18198,-1.32583 3.18198,-1.32583 0,0 -1.49343,-6.12679 2.76672,-7.63749 z"
             style="color:#000000;fill:#ffcd00;fill-opacity:1;stroke:#000000;stroke-width:1;stroke-linecap:butt;stroke-linejoin:miter;stroke-miterlimit:4;stroke-opacity:1;stroke-dasharray:none;stroke-dashoffset:0;marker:none;visibility:visible;display:inline;overflow:visible;enable-background:accumulate" /><path
             sodipodi:type="arc"
             style="color:#000000;fill:none;stroke:#000000;stroke-width:0.87255114;marker:none;visibility:visible;display:inline;overflow:visible;enable-background:accumulate"
             id="path5652"
             sodipodi:cx="130.57169"
             sodipodi:cy="139.24733"
             sodipodi:rx="4.043767"
             sodipodi:ry="4.5078058"
             d="m 134.61545,139.24733 c 0,2.48959 -1.81045,4.50781 -4.04376,4.50781 -2.23332,0 -4.04377,-2.01822 -4.04377,-4.50781 0,-2.48959 1.81045,-4.50781 4.04377,-4.50781 2.23331,0 4.04376,2.01822 4.04376,4.50781 z"
             transform="matrix(0.9704918,0,0,-0.86617647,343.60602,386.13086)" /><path
             style="color:#000000;fill:none;stroke:#000000;stroke-width:0.80000007;marker:none;visibility:visible;display:inline;overflow:visible;enable-background:accumulate"
             d="m 473.05336,271.16726 c 1.57319,-0.50423 4.86651,-3.17502 4.25896,-6.85388 -0.60756,-3.67885 -3.39768,-5.70411 -8.49587,-5.98738 m -6.19672,13.15549 c 0,0 4.2,0.6375 6.975,-2.2875 m -9.075,-3.92197 c 0,0 0.92574,-3.45533 7.725,-3.05303 m 7.63084,6.99374 c 0,0 19.72828,8.80348 21.74353,10.71267 m 2.43952,-7.10643 c 0,0 -14.10678,-3.28804 -22.69813,-6.36396 m 0,-2.12132 c 0.21213,0.10606 20.68288,3.39411 22.59206,4.56084 m -20.78282,-35.80054 c 0,0 -3.975,9.225 -5.625,14.325 -1.65,5.1 -2.79569,11.04571 -2.79569,11.04571 m 2.86379,0.84853 c 0,0 9.73987,-18.46835 11.43693,-22.0746 m 3.30624,2.77059 c 0,0 -8.37921,15.48564 -12.83398,20.68287"
             id="path5654"
             inkscape:connector-curvature="0"
             sodipodi:nodetypes="csccccccccccccsccccc" /></g></g><g
         transform="matrix(0.96495963,-0.07214159,0.02745772,0.96359277,12.121978,46.845732)"
         id="g5859"><g
           id="g5807"><g
             transform="matrix(1.0009689,0.03242179,-0.03217641,0.99798979,8.1512564,-17.863596)"
             id="g5816"><path
               sodipodi:nodetypes="cccccc"
               inkscape:connector-curvature="0"
               id="path5814"
               d="m 566.38432,313.16248 c 0,0 15.00116,-11.32025 8.45966,-49.89795 0,0 10.04233,-1.11002 19.9588,-7.40948 0,0 3.68192,40.36616 -19.28144,63.58595 l -7.12935,-1.17589 z"
               style="color:#000000;fill:#ffffff;stroke:#000000;stroke-width:0.82875574;stroke-linecap:butt;stroke-linejoin:miter;stroke-miterlimit:4;stroke-opacity:1;stroke-dasharray:none;stroke-dashoffset:0;marker:none;visibility:visible;display:inline;overflow:visible;enable-background:accumulate" /><path
               style="font-size:medium;font-style:normal;font-variant:normal;font-weight:normal;font-stretch:normal;text-indent:0;text-align:start;text-decoration:none;line-height:normal;letter-spacing:normal;word-spacing:normal;text-transform:none;direction:ltr;block-progression:tb;writing-mode:lr-tb;text-anchor:start;baseline-shift:baseline;color:#000000;fill:#000000;fill-opacity:1;stroke:none;stroke-width:1;marker:none;visibility:visible;display:inline;overflow:visible;enable-background:accumulate;font-family:Sans;-inkscape-font-specification:Sans"
               d="m 581.56291,300.16366 c -3.20615,9.26646 -7.18806,12.56566 -7.18806,12.56566 0,0 3.04292,-4.95006 6.1779,-12.87371 3.13498,-7.92363 5.12074,-20.02784 4.95317,-31.89638 2.03357,12.92988 -1.13614,24.09195 -3.94301,32.20443 z"
               id="path5819"
               inkscape:connector-curvature="0"
               sodipodi:nodetypes="scscs" /></g><path
             sodipodi:nodetypes="cssccccccccccccc"
             transform="matrix(0.8,0,0,-0.8,366.34473,376.96899)"
             inkscape:connector-curvature="0"
             id="path5801"
             d="m 234.3617,40.650128 c 2.65165,-3.844893 0.26516,-7.026873 -3.0494,-6.894291 -3.31456,0.132583 -5.03813,2.12132 -9.28077,7.159456 -4.59582,5.457536 -1.72357,9.943689 -1.72357,9.943689 l 19.12954,25.828515 c 0,0 -2.625,1.96875 -4.21875,4.125 0,0 -0.0937,1.78125 0.0937,2.8125 0,0 2.82863,3.054917 5.35988,4.836167 0,0 2.14959,0.155331 2.99334,-0.313419 0,0 21.49937,-21.025309 24.54877,-24.20729 0,0 0.53033,-3.049398 -0.13258,-4.110058 0,0 -4.77297,-5.303301 -7.02688,-6.496543 0,0 -1.72357,0.132582 -4.11006,0.53033 l -7.42462,6.496543 c 0,0 -15.77732,-14.451495 -16.57281,-15.379572 z"
             style="color:#000000;fill:#ffcd00;fill-opacity:1;stroke:#000000;stroke-width:1.0359447;stroke-linecap:butt;stroke-linejoin:miter;stroke-miterlimit:4;stroke-opacity:1;stroke-dasharray:none;stroke-dashoffset:0;marker:none;visibility:visible;display:inline;overflow:visible;enable-background:accumulate" /></g><g
           id="g5810"><path
             transform="matrix(0.8,0,0,-0.8,366.34473,376.96899)"
             sodipodi:nodetypes="ccccccccccccssc"
             inkscape:connector-curvature="0"
             id="path5803"
             d="m 253.71875,50.726397 c -1.06066,-3.18198 -3.49134,-3.535533 -3.49134,-3.535533 -0.79549,-3.844892 -5.3033,-3.712311 -5.3033,-3.712311 -1.06066,-4.110059 -6.0988,-2.386486 -6.0988,-2.386486 -0.7955,-2.784233 -3.53553,-2.165514 -3.53553,-2.165514 -4.37522,3.844893 -5.3033,9.545944 -5.3033,9.545944 0.79549,1.59099 2.40858,2.629552 2.40858,2.629552 0,0 -0.28726,0.950174 -0.28726,1.745669 0,0 1.08275,1.767766 4.79506,1.767766 l -0.15468,1.811962 c 0,0 1.87826,3.093594 5.59057,1.104856 l -0.16463,2.133303 c 0,0 1.17366,1.135386 2.13127,1.667394 2.38649,1.325829 7.29204,-3.314563 7.29204,-3.844893 0,-0.53033 2.12132,-6.761709 2.12132,-6.761709 z"
             style="color:#000000;fill:#ffffff;stroke:#000000;stroke-width:1.0359447;stroke-linecap:butt;stroke-linejoin:miter;stroke-miterlimit:4;stroke-opacity:1;stroke-dasharray:none;stroke-dashoffset:0;marker:none;visibility:visible;display:inline;overflow:visible;enable-background:accumulate" /><path
             sodipodi:nodetypes="cccccc"
             transform="matrix(0.8,0,0,-0.8,366.34473,376.96899)"
             inkscape:connector-curvature="0"
             id="path5805"
             d="m 242.33875,57.532302 c 0,0 2.85053,-7.954952 7.88866,-10.341438 m -13.32455,7.42462 c 0,-0.265164 2.71795,-9.015611 8.02125,-11.136931 m -12.52905,7.623496 c 0.13258,-0.265165 2.32019,-8.684157 6.43025,-10.009982"
             style="color:#000000;fill:none;stroke:#000000;stroke-width:1.0359447;stroke-linecap:butt;stroke-linejoin:miter;stroke-miterlimit:4;stroke-opacity:1;stroke-dasharray:none;stroke-dashoffset:0;marker:none;visibility:visible;display:inline;overflow:visible;enable-background:accumulate" /></g><g
           id="g5759"><path
             sodipodi:nodetypes="cczcscccccccccsccc"
             transform="matrix(0.8,0,0,-0.8,366.34473,376.96899)"
             inkscape:connector-curvature="0"
             id="path5744"
             d="m 280.96738,157.454 c 0,0 -36.21738,-17.1415 -64.34238,-17.8915 0,0 7.35325,-4.28722 9.375,-30.375 2.02175,-26.087783 9.42346,-30.953573 9.42346,-30.953573 0,0 4.17742,-1.463811 7.91884,-2.88762 6.04134,-2.29905 11.40741,-8.540075 13.7794,-13.792337 0,0 -0.53033,-7.159456 0,-10.871767 0,0 -5.6842,-1.244706 -7.7467,4.005294 l 0,3.375 c 0,0 -3.1875,1.3125 -5.0625,3.375 0,0 -3.5625,-0.75 -9.1875,-1.125 -6.39049,-10.499275 -8.92639,-5.710754 -15,-9.375 0,0 -8.54401,8.798967 -8.73151,15.361467 0,0 -1.26849,-0.298967 -2.39349,0.07603 0,0 -16.84373,20.723205 -25.85935,51.482356 -9.01561,30.75914 -5.83363,44.01739 -5.83363,44.01739 2.12249,3.18373 38.35054,29.22583 74.23724,42.06577 8.83471,-3.82318 28.82279,-28.63972 29.42312,-46.48651 z"
             style="color:#000000;fill:#ffffff;stroke:#000000;stroke-width:1.0359447;stroke-linecap:butt;stroke-linejoin:miter;stroke-miterlimit:4;stroke-opacity:1;stroke-dasharray:none;stroke-dashoffset:0;marker:none;visibility:visible;display:inline;overflow:visible;enable-background:accumulate" /><path
             style="font-size:medium;font-style:normal;font-variant:normal;font-weight:normal;font-stretch:normal;text-indent:0;text-align:start;text-decoration:none;line-height:normal;letter-spacing:normal;word-spacing:normal;text-transform:none;direction:ltr;block-progression:tb;writing-mode:lr-tb;text-anchor:start;baseline-shift:baseline;color:#000000;fill:#000000;fill-opacity:1;stroke:none;stroke-width:1;marker:none;visibility:visible;display:inline;overflow:visible;enable-background:accumulate;font-family:Sans;-inkscape-font-specification:Sans"
             d="m 555.09473,329.06899 c -2.8945,0.24268 -5.51325,-0.16357 -7.40837,-0.63049 -1.89513,-0.46692 -2.81663,-1.74451 -2.81663,-1.74451 0,0 1.22887,0.51028 3.05268,0.96229 1.82381,0.45202 4.34256,0.84577 7.12232,0.61271 z m -27.03028,-70.8237 c -1.9958,-2.33971 -3.5329,-3.15562 -5.56972,-4.2013 1.35092,3.78073 4.22405,6.04875 8.925,6.9 4.70095,0.85125 9.5,5.3 9.5,5.3 l 0.125,1 c 0,0 -4.08188,-4.18346 -10.225,-5.35 -6.14312,-1.16654 -8.44408,-4.87592 -9.6625,-9.4625 3.33449,0.8725 5.45156,2.73601 7.21972,5.1013 0.34674,-0.0463 2.41155,-0.78403 4.46659,1.213 -2.30346,-1.19921 -4.77909,-0.5005 -4.77909,-0.5005 z"
             id="path5775"
             inkscape:connector-curvature="0"
             sodipodi:nodetypes="cscscccczcczcccc" /><path
             style="color:#000000;fill:none;stroke:#000000;stroke-width:1.0359447;stroke-linecap:butt;stroke-linejoin:miter;stroke-miterlimit:4;stroke-opacity:1;stroke-dasharray:none;stroke-dashoffset:0;marker:none;visibility:visible;display:inline;overflow:visible;enable-background:accumulate"
             d="m 211.39349,66.298964 c 1.99574,4.566187 10.63271,12.520157 24.02997,11.934963"
             id="path5779"
             inkscape:connector-curvature="0"
             transform="matrix(0.8,0,0,-0.8,366.34473,376.96899)"
             sodipodi:nodetypes="cc" /><path
             style="color:#000000;fill:none;stroke:#000000;stroke-width:0.41437787;stroke-linecap:butt;stroke-linejoin:miter;stroke-miterlimit:4;stroke-opacity:1;stroke-dasharray:none;stroke-dashoffset:0;marker:none;visibility:visible;display:inline;overflow:visible;enable-background:accumulate"
             d="m 541.84472,317.16899 c 0,0 1.35,-11.7 6.6,-17.25 m -7.37392,-74.15797 c 0.42428,0 12.23712,-0.42506 23.54667,6.57608 11.30955,7.00116 22.18765,4.76673 22.18765,4.76673 M 558.8899,217.48787 c 0.42426,0 12.84174,1.38801 18.21396,4.68145 m -47.27605,96.82372 c 0,0 4.87903,2.33346 8.16708,1.2728 m -21.10713,-27.04683 c 0,0 3.42114,4.80671 14.42497,5.78059 11.00384,0.97389 17.95305,5.01574 18.77369,7.47765 m -2.2917,-10.80826 c 0,0 -3.67012,-5.30816 -15.00698,-8.36618 -11.33686,-3.058 -16.34522,-4.37536 -21.14302,-9.33382 m -1.15,-32.75 c 0.15,0.45 6.89228,13.82022 18.69228,17.29081 11.8,3.47059 14.30772,9.10919 14.30772,9.10919 m 47.53319,-21.03852 c 0,0 -7.95495,1.69706 -28.7439,-8.06102 -20.78894,-9.75807 -36.91097,-7.63675 -36.91097,-7.63675 0,0 -2.36581,12.37379 1.38419,21.22379 0,0 8.73749,-1.2375 14.58749,2.0625 5.85,3.3 11.25,4.95 15.45,4.65 m -23.125,60.875 c 0,0 -3.41764,-26.37377 12.49226,-42.28367 -4.51932,-4.49771 -10.73647,-5.20692 -22.3753,-8.39375 -11.63884,-3.18681 -14.74781,-7.799 -14.74781,-7.799 0,0 4.45477,-8.90954 13.36432,-10.39447 m 29.16815,59.50304 c 0,0 -2.18401,-1.12105 -9.86414,-1.69706 -7.68012,-0.57601 -17.87212,-4.15425 -17.87212,-4.15425 0,0 1.07784,-27.19298 15.77784,-43.39298 0,0 -7.23953,-22.06743 1.45788,-39.32083 m -25.32608,64.95797 c 0,0 1.48714,-22.0682 13.05607,-30.1591 m 0,0 c 10.36893,-0.7409 10.14393,4.0591 18.54393,3.7591 0,0 -2.2434,-10.83939 1.99924,-21.02173 4.24264,-10.18233 8.06102,-17.88979 9.54594,-25.80939 m 0.21213,44.68914 c 0,0 2.54558,-11.03086 7.42462,-23.75878 4.87904,-12.72793 3.42332,-23.33242 3.42332,-23.33242 m -61.4747,32.30201 c 1.32426,-1.18713 19.89813,-4.30236 33.01981,1.49559 13.12167,5.79795 23.65271,9.22774 34.47144,8.16708 0,0 -0.10606,-2.93449 3.71232,-9.51059 3.81837,-6.57608 1.10797,-20.74853 1.10797,-20.74853"
             id="path5781"
             inkscape:connector-curvature="0"
             sodipodi:nodetypes="cccczcccccccscczcczcccccczccczccczccccsccsccscsc" /></g></g></g></g></svg>