<?xml version="1.0" encoding="UTF-8" standalone="no"?>
<!-- Created with Inkscape (http://www.inkscape.org/) -->

<svg
   xmlns:dc="http://purl.org/dc/elements/1.1/"
   xmlns:cc="http://creativecommons.org/ns#"
   xmlns:rdf="http://www.w3.org/1999/02/22-rdf-syntax-ns#"
   xmlns:svg="http://www.w3.org/2000/svg"
   xmlns="http://www.w3.org/2000/svg"
   xmlns:sodipodi="http://sodipodi.sourceforge.net/DTD/sodipodi-0.dtd"
   xmlns:inkscape="http://www.inkscape.org/namespaces/inkscape"
   version="1.0"
   width="550"
   height="628.57159"
   id="svg1974"
   sodipodi:version="0.32"
   inkscape:version="0.48.5 r10040"
   sodipodi:docname="svg.svg">
  <metadata
     id="metadata9">
    <rdf:RDF>
      <cc:Work
         rdf:about="">
        <dc:format>image/svg+xml</dc:format>
        <dc:type
           rdf:resource="http://purl.org/dc/dcmitype/StillImage" />
      </cc:Work>
    </rdf:RDF>
  </metadata>
  <sodipodi:namedview
     inkscape:window-height="1017"
     inkscape:window-width="1920"
     inkscape:pageshadow="2"
     inkscape:pageopacity="0.0"
     guidetolerance="10.0"
     gridtolerance="10.0"
     objecttolerance="10.0"
     borderopacity="1.0"
     bordercolor="#666666"
     pagecolor="#ffffff"
     id="base"
     inkscape:zoom="0.70710678"
     inkscape:cx="341.35902"
     inkscape:cy="484.03292"
     inkscape:window-x="-8"
     inkscape:window-y="-8"
     inkscape:current-layer="svg1974"
     showgrid="false"
     inkscape:window-maximized="1"
     fit-margin-top="0"
     fit-margin-left="0"
     fit-margin-right="0"
     fit-margin-bottom="0" />
  <defs
     id="defs1977">
    <clipPath
       id="clipPath14909-3"
       clipPathUnits="userSpaceOnUse">
      <path
         style="fill:#ff0000;stroke:none"
         d="m 516.00059,-81.818275 0,378.209435 c 0,143.45873 -108.68089,252.13962 -260.83413,252.13962 -152.15324,0 -260.8341247,-108.6808 -260.8341247,-252.13962 l 0,-378.209435 z"
         id="path14911-8"
         inkscape:connector-curvature="0"
         sodipodi:nodetypes="cszscc" />
    </clipPath>
    <inkscape:perspective
       sodipodi:type="inkscape:persp3d"
       inkscape:vp_x="-50 : 600 : 1"
       inkscape:vp_y="0 : 1000 : 0"
       inkscape:vp_z="700 : 600 : 1"
       inkscape:persp3d-origin="300 : 400 : 1"
       id="perspective464" />
    <clipPath
       id="clipPath4795"
       clipPathUnits="userSpaceOnUse">
      <path
         style="fill:#858c98;fill-opacity:1;stroke:none"
         d="m 336.15805,231.77836 c 5.73995,15.89525 -5.15616,27.89519 -5.15616,27.89519 0,0 -5.98845,16.74931 3.35228,20.83384 9.34073,4.08452 20.06572,-3.19233 21.20335,-21.58053 1.13765,-18.38821 7.84045,-17.33687 18.70167,-22.72812 10.86122,-5.39125 10.77015,-12.93525 10.77015,-12.93525 0,0 6.76087,5.1879 -1.2149,14.50309 -7.97576,9.31519 -1.5647,12.86178 -1.5647,12.86178 -6.27915,1.95456 -4.54307,7.10188 -1.25079,9.15966 0,0 -10.09181,3.77585 -1.80669,12.18029 0,0 -5.78897,0.65778 -4.56062,6.79189 1.22836,6.13412 -7.78442,9.04545 -8.75847,5.00732 0,0 4.98894,-4.2037 1.38065,-8.43035 -3.60827,-4.22664 -7.43593,0.6752 -11.11832,8.931 -3.6824,8.2558 -13.19902,18.86074 -34.18284,12.62905 -20.98382,-6.23168 -42.7713,-31.51174 -15.75747,-69.38222 0,0 3.12212,0.78051 2.80991,5.4637 0,0 3.43433,-3.43434 6.08813,-3.59045 0,0 1.87328,2.02939 3.59044,6.55647 0,0 4.52707,-4.83929 7.80529,-4.83929 0,0 3.90266,2.96601 4.52708,6.24423 0,0 2.79093,-5.05447 5.14201,-5.5713 z"
         id="path4797"
         inkscape:connector-curvature="0"
         sodipodi:nodetypes="czzszscccszszzzccccccc" />
    </clipPath>
    <clipPath
       id="clipPath4932"
       clipPathUnits="userSpaceOnUse">
      <path
         sodipodi:nodetypes="ccccccccccccccccc"
         inkscape:connector-curvature="0"
         id="path4934"
         d="m 320.21858,157.19107 c 0.86592,1.1114 2.51343,-1.16108 3.62722,-0.096 1.23155,1.11648 -1.44015,3.13144 0.77363,3.5217 2.32969,0.19752 0.0658,2.6654 0.8823,4.02624 0.85738,0.26242 1.78273,1.39062 0.48433,3.15165 3.20884,1.26506 0.74327,6.0202 2.77828,4.79485 1.40107,-1.00202 1.86773,-0.2579 2.34492,0.33391 0.74173,2.93577 -1.0183,6.59981 5.42656,8.15118 0,0 -1.1504,-3.33448 0.0437,-4.81952 3.18706,2.27196 5.11774,-0.91115 5.11774,-0.91115 0,0 -3.07339,-3.05147 -2.52774,-3.77591 0.0126,0.0109 2.44534,0.74308 4.67255,-2.11949 0,0 -3.48741,-1.64177 -3.60603,-3.3971 2.57094,-0.8943 4.00498,-7.30212 -0.92792,-9.20554 0.80909,-3.55284 -2.38552,-6.60947 -7.95929,-6.10369 -4.51581,-8.41411 -22.00013,-1.42504 -18.01465,6.06048 2.35014,-1.48136 6.39703,-2.00109 6.8844,0.38839 z"
         style="fill:#f2d477;fill-opacity:1;stroke:none" />
    </clipPath>
    <clipPath
       id="clipPath4848"
       clipPathUnits="userSpaceOnUse">
      <path
         style="fill:#f5ceb4;fill-opacity:1;stroke:none"
         d="m 295.2131,147.8125 c -0.37967,0.0432 -0.77027,0.18214 -1.21875,0.5 -0.61368,0.43495 -2.90338,-0.16213 -2.84376,1.1875 0.0408,1.72888 2.01645,2.43757 1.5625,5.875 -1.52677,-0.62032 -1.08333,-0.43091 -2.59375,-0.84375 -1.29919,2.51656 0.52182,5.54343 -0.8125,7 -3.18501,7.55663 -6.78644,16.90924 -6.0625,25.125 0.32914,3.12679 1.04439,5.58282 1.65625,6 1.81025,1.23426 10.40144,2.09902 14.90626,3.78125 4.50481,1.68224 5.2121,0.0761 8.51277,3.37944 -0.1037,1.71669 0.0436,4.58405 1.71164,5.992 0.48741,3.76459 1.63283,6.22404 1.59375,9.09731 -0.0675,4.95947 -2.72012,7.75574 -5.34375,14.3125 -2.62362,6.55676 4.78345,17.29627 12.5,17.96875 7.71654,0.67249 17.963,1.55661 17.5,-13.40625 -1.42771,-6.20525 -2.94956,-7.55252 -1.40625,-12.25 1.17144,-3.5656 4.13442,-9.68096 5.09375,-16.71875 2.83725,0.34958 5.04907,2.57883 8.65625,3.09375 4.65074,0.66389 12.40297,3.97423 14.53125,3.75 0.71936,-0.0758 2.48322,-1.90647 4.21875,-4.5 l -8,-7.90625 c 0,0 -6.05181,-3.26546 -8.375,-3.96875 -4.07386,-1.23328 -7.42404,-5.75676 -13.375,-6.15625 -0.90466,-1.73105 -1.98203,-3.17179 -3.125,-4.375 -2.15995,-8.52445 -0.35729,-11.24076 0.34375,-14.15625 l -4.09375,-5.78125 -10.53125,12.3125 c 0.96108,0.61375 0.21485,3.58994 -0.3125,5.5 -1.57699,2.64708 -2.39611,2.27444 -5.09375,2.71875 -5.58381,-2.61432 -6.88313,-0.25113 -11.16191,-1.15625 -2.42713,-0.51343 -9.4375,-0.59375 -9.4375,-0.59375 0,0 0.48858,-3.19717 0.40625,-6.40625 -0.0823,-3.20908 0.9375,-9.96875 0.9375,-9.96875 0.38591,-3.54825 2.60056,-5.12377 3.71875,-7.8125 1.81447,-0.90648 3.05945,-1.22167 3.875,-3.34375 0.81554,-2.12207 1.39271,-4.51118 1.875,-6.21875 -1.84432,-0.92137 -2.78087,2.12506 -3.15625,1.75 -0.0286,-0.0285 0.16652,-2.92779 -0.5,-3.59375 -0.25088,-0.25068 -1.82432,-0.12947 -2.6875,0.0937 -1.3857,0.35842 -3.46875,-1.42762 -3.46875,-0.28125 z"
         id="path4850"
         inkscape:connector-curvature="0"
         sodipodi:nodetypes="cscccccssccssscscssccscccccccscsccsccccsc" />
    </clipPath>
    <clipPath
       id="clipPath9481-6"
       clipPathUnits="userSpaceOnUse">
      <path
         sodipodi:nodetypes="czcc"
         id="path9483-1"
         d="m -19.467048,441.85652 c 2.039,156.552 113.5882,237.8149 249.514008,237.8149 135.9258,0 247.47503,-81.2629 249.51399,-237.8149 z"
         style="fill:#ffff00;stroke:none"
         inkscape:connector-curvature="0" />
    </clipPath>
    <style
       type="text/css"
       id="style6-8">
   
    .str1 {stroke:#969594;stroke-width:14}
    .str2 {stroke:#d21034;stroke-width:14}
    .str0 {stroke:#969594;stroke-width:56}
    .fil7 {fill:none}
    .fil0 {fill:#0052a5}
    .fil2 {fill:#D5D5D5}
    .fil9 {fill:#E5E5E5}
    .fil5 {fill:#d21034}
    .fil8 {fill:#d21034}
    .fil6 {fill:#d21034}
    .fil1 {fill:#ffce00}
    .fil4 {fill:#969594}
    .fil3 {fill:#FFFFFF}
   
  </style>
    <style
       type="text/css"
       id="style6-1">
   
    .str4 {stroke:#1F1A17;stroke-width:0.216}
    .str0 {stroke:#F00000;stroke-width:0.216}
    .str1 {stroke:#FFD90F;stroke-width:0.216}
    .str2 {stroke:black;stroke-width:0.216}
    .str3 {stroke:#004A8D;stroke-width:0.216}
    .fil15 {fill:none}
    .fil1 {fill:none;fill-rule:nonzero}
    .fil14 {fill:#1F1A17}
    .fil12 {fill:white}
    .fil8 {fill:#0446E4}
    .fil6 {fill:#ED1A24}
    .fil9 {fill:#ED241A}
    .fil0 {fill:#F00000}
    .fil7 {fill:#F3A29A}
    .fil13 {fill:red}
    .fil5 {fill:#FFCB05}
    .fil2 {fill:#FFD90F}
    .fil11 {fill:black}
    .fil3 {fill:#E5E5E5}
    .fil4 {fill:white}
    .fil10 {fill:#004A8D}
   
  </style>
    <style
       type="text/css"
       id="style12475">
   
    .str0 {stroke:black;stroke-width:0.216}
    .str3 {stroke:#008837;stroke-width:0.264473;stroke-linecap:round}
    .str1 {stroke:#F2AA00;stroke-width:0.264473;stroke-linecap:round}
    .str8 {stroke:#FDD9A6;stroke-width:0.264473}
    .str2 {stroke:#FDD9A6;stroke-width:0.264473;stroke-linecap:round}
    .str7 {stroke:#615233;stroke-width:1.05846}
    .str6 {stroke:#615233;stroke-width:1.05846;stroke-linecap:round}
    .str5 {stroke:#615233;stroke-width:1.41732}
    .str4 {stroke:#615233;stroke-width:1.41732;stroke-linecap:round}
    .fil19 {fill:none}
    .fil13 {fill:none;fill-rule:nonzero}
    .fil10 {fill:#1F1A17}
    .fil12 {fill:#969594}
    .fil11 {fill:#DEDEDD}
    .fil9 {fill:white}
    .fil17 {fill:#008837}
    .fil6 {fill:#0446E4}
    .fil18 {fill:#615233}
    .fil3 {fill:#ED1A24}
    .fil7 {fill:#ED241A}
    .fil0 {fill:#F00000}
    .fil15 {fill:#F2AA00}
    .fil4 {fill:#F3A29A}
    .fil16 {fill:#FDD9A6}
    .fil14 {fill:#FFB70F}
    .fil2 {fill:#FFD90F}
    .fil8 {fill:#E5E5E5}
    .fil5 {fill:white}
    .fil1 {fill:#004A8D}
   
  </style>
    <clipPath
       id="clipPath14909-1"
       clipPathUnits="userSpaceOnUse">
      <path
         style="fill:#ff0000;stroke:none"
         d="m 516.00059,-81.818275 0,378.209435 c 0,143.45873 -108.68089,252.13962 -260.83413,252.13962 -152.15324,0 -260.8341247,-108.6808 -260.8341247,-252.13962 l 0,-378.209435 z"
         id="path14911-9"
         inkscape:connector-curvature="0"
         sodipodi:nodetypes="cszscc" />
    </clipPath>
    <clipPath
       id="clipPath14909"
       clipPathUnits="userSpaceOnUse">
      <path
         style="fill:#ff0000;stroke:none"
         d="m 516.00059,-81.818275 0,378.209435 c 0,143.45873 -108.68089,252.13962 -260.83413,252.13962 -152.15324,0 -260.8341247,-108.6808 -260.8341247,-252.13962 l 0,-378.209435 z"
         id="path14911"
         inkscape:connector-curvature="0"
         sodipodi:nodetypes="cszscc" />
    </clipPath>
    <clipPath
       id="clipPath5284-8-8"
       clipPathUnits="userSpaceOnUse">
      <path
         style="fill:#e90000;fill-opacity:1;stroke:none"
         d="m 516.00059,-81.818275 0,378.209435 c 0,143.45873 -108.68089,252.13962 -260.83413,252.13962 -152.15324,0 -260.8341247,-86.94471 -260.8341247,-252.13962 l 0,-378.209435 z"
         id="path5286-0-2"
         inkscape:connector-curvature="0"
         sodipodi:nodetypes="cszscc" />
    </clipPath>
    <clipPath
       id="clipPath14932"
       clipPathUnits="userSpaceOnUse">
      <path
         style="fill:#d10000;fill-opacity:1;stroke:none"
         d="m 296.44454,263.25046 0,96.19905 c 0,36.48929 -25.60189,64.1327 -61.44454,64.1327 -35.84265,0 -61.44454,-27.64339 -61.44454,-64.1327 l 0,-96.19905 z"
         id="path14934"
         inkscape:connector-curvature="0"
         sodipodi:nodetypes="cszscc" />
    </clipPath>
    <clipPath
       id="clipPath14932-9-7"
       clipPathUnits="userSpaceOnUse">
      <path
         style="fill:#d10000;fill-opacity:1;stroke:none"
         d="m 296.44454,263.25046 0,96.19905 c 0,36.48929 -25.60189,64.1327 -61.44454,64.1327 -35.84265,0 -61.44454,-27.64339 -61.44454,-64.1327 l 0,-96.19905 z"
         id="path14934-8-7"
         inkscape:connector-curvature="0"
         sodipodi:nodetypes="cszscc" />
    </clipPath>
    <clipPath
       clipPathUnits="userSpaceOnUse"
       id="clipPath6491">
      <path
         nodetypes="ccsscccssc"
         d="m 177.52196,246.72668 -3.3184,-2.70657 c -2.23246,1.31276 -2.80223,2.0525 -2.24495,5.86142 0.55728,3.80893 -0.80836,3.29017 -0.028,6.30951 0.7804,3.01934 -1.76502,3.61956 -0.31668,5.93101 0.13728,-1.58933 1.39253,-1.90624 2.36799,-4.67852 1.44697,0.81203 -1.16843,3.44426 1.08963,5.51199 -0.20109,-2.47673 2.51207,-3.57437 1.23083,-6.36621 -1.28123,-2.79184 0.20439,-2.15888 0.10347,-4.89792 -0.10092,-2.73904 -0.15088,-4.00551 1.11606,-4.96471 z"
         class="fil10"
         id="path6493"
         inkscape:connector-curvature="0"
         style="fill:#16478d;fill-opacity:1"
         sodipodi:nodetypes="cczzccczzc" />
    </clipPath>
    <clipPath
       id="clipPath9481-6-8"
       clipPathUnits="userSpaceOnUse">
      <path
         sodipodi:nodetypes="czcc"
         id="path9483-1-1"
         d="m -19.467048,441.85652 c 2.039,156.552 113.5882,237.8149 249.514008,237.8149 135.9258,0 247.47503,-81.2629 249.51399,-237.8149 z"
         style="fill:#ffff00;stroke:none"
         inkscape:connector-curvature="0" />
    </clipPath>
    <inkscape:perspective
       sodipodi:type="inkscape:persp3d"
       inkscape:vp_x="0 : 0.5 : 1"
       inkscape:vp_y="0 : 1000 : 0"
       inkscape:vp_z="1 : 0.5 : 1"
       inkscape:persp3d-origin="0.5 : 0.33333333 : 1"
       id="perspective3870" />
    <linearGradient
       id="linearGradient2893">
      <stop
         id="stop2895"
         offset="0"
         style="stop-color:white;stop-opacity:0.3137255;" />
      <stop
         style="stop-color:white;stop-opacity:0.25098041;"
         offset="0.19"
         id="stop2897" />
      <stop
         id="stop2901"
         offset="0.60000002"
         style="stop-color:#6b6b6b;stop-opacity:0.1254902;" />
      <stop
         id="stop2899"
         offset="1"
         style="stop-color:black;stop-opacity:0.1254902;" />
    </linearGradient>
    <inkscape:perspective
       id="perspective8873"
       inkscape:persp3d-origin="300 : 400 : 1"
       inkscape:vp_z="700 : 600 : 1"
       inkscape:vp_y="0 : 1000 : 0"
       inkscape:vp_x="-50 : 600 : 1"
       sodipodi:type="inkscape:persp3d" />
    <inkscape:perspective
       id="perspective2481"
       inkscape:persp3d-origin="300 : 400 : 1"
       inkscape:vp_z="700 : 600 : 1"
       inkscape:vp_y="0 : 1000 : 0"
       inkscape:vp_x="-50 : 600 : 1"
       sodipodi:type="inkscape:persp3d" />
    <clipPath
       clipPathUnits="userSpaceOnUse"
       id="clipPath11773">
      <path
         style="fill:#16478d;fill-opacity:1;stroke:none"
         d="m 356.53257,755.63712 0,21.74999 c 0,8.25 -6.25,14.5 -15,14.5 -8.75,0 -15,-6.24999 -15,-14.5 l 0,-21.74999 z"
         id="path11775"
         inkscape:connector-curvature="0"
         sodipodi:nodetypes="cszscc" />
    </clipPath>
    <clipPath
       clipPathUnits="userSpaceOnUse"
       id="clipPath12430">
      <path
         style="fill:#ffd52b;fill-opacity:1;stroke:none"
         d="m 170,437.36218 0,86.99999 c 0,32.99999 -25,57.99999 -60,57.99999 -35,0 -60,-24.99998 -60,-57.99999 l 0,-86.99999 z"
         id="path12432"
         inkscape:connector-curvature="0"
         sodipodi:nodetypes="cszscc" />
    </clipPath>
    <style
       id="style6"
       type="text/css" />
    <clipPath
       clipPathUnits="userSpaceOnUse"
       id="clipPath3584-7">
      <path
         sodipodi:nodetypes="cczccc"
         style="fill:#fff200;fill-opacity:1;fill-rule:nonzero;stroke:none"
         d="m 236.20724,-0.71875058 0,123.40316058 c 0,0 0.71647,96.59684 95.00001,96.59684 94.28352,0 94.99999,-96.59684 94.99999,-96.59684 l 0,-123.40316058 z"
         id="path3586-4"
         inkscape:connector-curvature="0" />
    </clipPath>
    <clipPath
       id="clipPath5063"
       clipPathUnits="userSpaceOnUse">
      <path
         id="path5065"
         d="m -2.8571417,76.647896 780.0000017,0 -180,130.000004 180,130 -180,130 180,130 -780.0000017,0 z"
         style="fill:#000000;fill-opacity:1;fill-rule:evenodd;stroke:none"
         inkscape:connector-curvature="0"
         sodipodi:nodetypes="cccccccc" />
    </clipPath>
    <clipPath
       id="clipPath4646"
       clipPathUnits="userSpaceOnUse">
      <path
         id="path4648"
         d="m 0,0 595.276,0 0,841.89 L 0,841.89 0,0 z"
         inkscape:connector-curvature="0" />
    </clipPath>
    <clipPath
       id="clipPath4646-7"
       clipPathUnits="userSpaceOnUse">
      <path
         inkscape:connector-curvature="0"
         id="path4648-8"
         d="m 0,0 595.276,0 0,841.89 L 0,841.89 0,0 z" />
    </clipPath>
  </defs>
  <g
     id="g6537"
     transform="matrix(-1,0,0,1,550.00002,0)">
    <g
       id="g4650"
       transform="matrix(1.2140048,0,0,-1.2140048,550.00002,-7.7632012e-7)">
      <path
         inkscape:connector-curvature="0"
         d="m 0,0 -453.046,0 0.248,-293.31 c 0,-123.964 101.307,-224.457 226.275,-224.457 124.968,0 226.275,100.493 226.275,224.457"
         style="fill:#121722;fill-opacity:1;fill-rule:nonzero;stroke:none"
         id="path4652" />
    </g>
    <g
       transform="matrix(1.2140048,0,0,-1.2140048,-86.333709,825.31494)"
       id="g6345">
      <g
         transform="translate(120.5821,620.3424)"
         id="g4654" />
      <g
         transform="translate(332.8063,388.5378)"
         id="g4658">
        <path
           id="path4660"
           style="fill:#ffffff;fill-opacity:1;fill-rule:nonzero;stroke:none"
           d="M 0.8,0.79999602 -1.469,-43.44 14.165,-54.26 c 0,0 1.041,14.446 2.211,14.412 1.169,-0.034 2.034,-17.35 2.034,-17.35 l 11.551,-7.993 c 0,0 1.049,15.776 2.218,15.742 1.169,-0.035 2.027,-18.681 2.027,-18.681 l 11.517,-7.97 c 0,0 1.027,11.813 2.197,11.778 1.169,-0.034 2.049,-14.716 2.049,-14.716 l 11.826,-8.201 3.909,23.134996 z"
           inkscape:connector-curvature="0"
           sodipodi:nodetypes="cccccccccccccc" />
      </g>
      <g
         transform="translate(182.1017,286.2228)"
         id="g4662">
        <path
           inkscape:connector-curvature="0"
           style="font-size:medium;font-style:normal;font-variant:normal;font-weight:normal;font-stretch:normal;text-indent:0;text-align:start;text-decoration:none;line-height:normal;letter-spacing:normal;word-spacing:normal;text-transform:none;direction:ltr;block-progression:tb;writing-mode:lr-tb;text-anchor:start;baseline-shift:baseline;color:#000000;fill:#ffce26;fill-opacity:1;fill-rule:nonzero;stroke:none;stroke-width:2.4000001;marker:none;visibility:visible;display:inline;overflow:visible;enable-background:accumulate;font-family:Sans;-inkscape-font-specification:Sans"
           d="m -460.0625,181.25 -1.0625,1.03125 -8.125,8.125 c -2.46245,-1.22025 -14.63643,-6.79444 -34.125,-6.5625 l -0.0625,0 -0.0312,0 c -13.81254,0.76054 -25.69577,8.02631 -34.59375,17.40625 -8.86334,9.34342 -14.78412,20.80094 -16.71875,30.5625 -0.0104,0.0384 -0.0521,0.0865 -0.0625,0.125 -4.52333,16.86531 0.25566,39.8414 8.8125,63.0625 8.57637,23.27409 21.03108,46.7547 32.375,64.25 19.10411,31.02669 23.5,62.3125 23.5,62.3125 l 0.1562,1.1875 1.21875,0.0937 32.28125,2.5 1.65625,0.125 -0.0312,-1.65625 c 0,0 -1.20788,-45.71242 -26.6875,-101.75 -0.004,-0.009 0.004,-0.0226 0,-0.0312 -3.71344,-8.88384 -10.78694,-23.97613 -14.28125,-38.96875 -1.74884,-7.50355 -2.6008,-14.92417 -1.71875,-21.5 0.87948,-6.55671 3.40247,-12.18219 8.4375,-16.40625 0.0147,-0.0122 0.0165,-0.05 0.0312,-0.0625 9.69432,-7.48262 19.69524,-7.24589 27.4375,-5.15625 7.75449,2.09294 13.03125,6.0625 13.03125,6.0625 l 1.0625,0.78125 0.90625,-0.9375 24.5625,-24.53125 1.0625,-1.09375 -1.0625,-1.0625 L -459,182.28125 -460.0625,181.25 z m -54.21875,266.90625 c -0.55288,-0.002 -1.12891,0.0269 -1.71875,0.0625 -9.22128,0.5578 -17.36753,7.91435 -17.53125,20.9375 -0.089,7.06329 4.00643,16.94243 12.84375,21.84375 l 0,0.0312 c 0.007,0.004 0.024,-0.004 0.0312,0 3.03153,1.74023 9.61941,4.37325 17.84375,4.4375 8.24408,0.0644 18.11168,-2.54982 27,-11.4375 12.57256,-12.57382 16.59375,-22.5625 16.59375,-22.5625 l 0.75,-1.84375 -1.9375,-0.25 -30.15625,-3.53125 -1.53125,-0.21875 -0.15625,1.53125 c 0,0 -0.64341,4.41499 -3.6875,6.25 -1.77321,1.06904 -2.89546,1.3164 -3.625,1.375 0.16692,-1.62035 0.31385,-4.36781 -0.84375,-7.75 -0.80368,-2.34812 -2.2726,-4.73736 -4.8125,-6.4375 -2.22241,-1.48762 -5.19236,-2.42003 -9.0625,-2.4375 z"
           transform="matrix(0.8,0,0,-0.8,396.116,371.76165)"
           id="path5528" />
      </g>
      <g
         transform="translate(428.6384,562.8482)"
         id="g4666">
        <path
           style="font-size:medium;font-style:normal;font-variant:normal;font-weight:normal;font-stretch:normal;text-indent:0;text-align:start;text-decoration:none;line-height:normal;letter-spacing:normal;word-spacing:normal;text-transform:none;direction:ltr;block-progression:tb;writing-mode:lr-tb;text-anchor:start;baseline-shift:baseline;color:#000000;fill:#ffffff;fill-opacity:1;fill-rule:nonzero;stroke:none;stroke-width:3;marker:none;visibility:visible;display:inline;overflow:visible;enable-background:accumulate;font-family:Sans;-inkscape-font-specification:Sans"
           d="m -0.1207,1.211246 c -2.205584,-0.243832 -3.796088,-2.117144 -3.925,-4.275 l -0.15,-0.15 0.05,-0.575 24.9,-247.149996 c 0.03946,-0.39149 0.04777,-0.8279 0.075,-1.325 0.0015,-0.0281 -0.0017,-0.0465 0,-0.075 0.01641,-2.94417 -0.5238,-9.73357 -4.45,-14.075 -4.342776,-3.92758 -11.106128,-4.46643 -14.05,-4.45 -0.026216,0.002 -0.048976,-0.002 -0.075,0 -0.462232,0.0274 -0.895864,0.0567 -1.325,0.1 l -247.175,24.9 -1.325,0.125 0,-0.3 c -1.88285,-0.36588 -3.42988,-1.85891 -3.65,-3.85 -0.2263,-2.04824 1.0498,-3.84787 2.9,-4.55 l 0,-0.25 1.075,-0.125 247.15,-24.875 c 0.15824,-0.0161 1.023496,-0.0879 2.25,-0.1 0.0272,-2.8e-4 0.0224,2e-4 0.05,0 8.352368,-0.41324 15.188536,1.76353 20.05,6.625 0.203016,0.20301 0.313904,0.35244 0.4,0.45 0.0048,0.005 0.01974,0.0203 0.025,0.025 0.0047,0.005 0.02058,0.0203 0.025,0.025 0.09187,0.0803 0.223296,0.17329 0.425,0.375 4.863,4.863 7.038248,11.7224 6.625,20.075 -4.32e-4,0.009 4.4e-4,0.0162 0,0.025 -1.12e-4,0.0137 1.2e-4,0.0115 0,0.025 -0.01038,1.2047 -0.0452,1.93159 -0.075,2.225 l -24.9,247.174996 -0.125,1.075 -0.225,0 c -0.69976,1.839752 -2.507056,3.12572 -4.55,2.9 z"
           id="path5607"
           inkscape:connector-curvature="0" />
        <path
           style="font-size:medium;font-style:normal;font-variant:normal;font-weight:normal;font-stretch:normal;text-indent:0;text-align:start;text-decoration:none;line-height:normal;letter-spacing:normal;word-spacing:normal;text-transform:none;direction:ltr;block-progression:tb;writing-mode:lr-tb;text-anchor:start;baseline-shift:baseline;color:#000000;fill:#ffffff;fill-opacity:1;fill-rule:nonzero;stroke:none;stroke-width:3;marker:none;visibility:visible;display:inline;overflow:visible;enable-background:accumulate;font-family:Sans;-inkscape-font-specification:Sans"
           d="m 11.5793,0.261246 c -2.462776,-0.258744 -4.306184,-2.458704 -4.05,-4.9 l 3.325,-34.225 c 0.257376,-2.45124 2.537952,-4.208808 5,-3.95 2.462408,0.258848 4.307768,2.458096 4.05,4.9 -0.0873,0.831928 -0.890624,8.98924 -1.675,17.1 -0.784376,8.11076 -1.549368,16.171144 -1.65,17.125 -0.257376,2.45124 -2.537952,4.208808 -5,3.95 z"
           id="path5605"
           inkscape:connector-curvature="0" />
        <path
           style="font-size:medium;font-style:normal;font-variant:normal;font-weight:normal;font-stretch:normal;text-indent:0;text-align:start;text-decoration:none;line-height:normal;letter-spacing:normal;word-spacing:normal;text-transform:none;direction:ltr;block-progression:tb;writing-mode:lr-tb;text-anchor:start;baseline-shift:baseline;color:#000000;fill:#ffffff;fill-opacity:1;fill-rule:nonzero;stroke:none;stroke-width:3;marker:none;visibility:visible;display:inline;overflow:visible;enable-background:accumulate;font-family:Sans;-inkscape-font-specification:Sans"
           d="m -246.2957,-257.53875 c -2.08285,-0.21562 -3.77334,-1.9176 -4,-4.075 -0.25982,-2.47164 1.53597,-4.71892 3.975,-4.975 0.94775,-0.1 8.99549,-0.88438 17.1,-1.675 8.10451,-0.79063 16.26197,-1.58706 17.1,-1.675 2.45295,-0.25893 4.64127,1.61372 4.9,4.075 0.25869,2.46092 -1.50981,4.71878 -3.95,4.975 l -34.225,3.35 c -0.30563,0.0321 -0.60884,0.0301 -0.9,0 z"
           id="path5599"
           inkscape:connector-curvature="0" />
      </g>
      <g
         transform="translate(352.9257,408.6571)"
         id="g4670">
        <path
           id="path4672"
           style="fill:#ffffff;fill-opacity:1;fill-rule:nonzero;stroke:none"
           d="M -0.8,-0.79999602 43.44,1.469 54.26,-14.165 c 0,0 -14.446,-1.041 -14.412,-2.211 0.034,-1.169 17.35,-2.034 17.35,-2.034 l 7.993,-11.551 c 0,0 -15.776,-1.049 -15.742,-2.218 0.035,-1.17 18.681,-2.027 18.681,-2.027 l 7.97,-11.517 c 0,0 -11.813,-1.027 -11.778,-2.197 0.034,-1.169 14.716,-2.049 14.716,-2.049 l 8.201,-11.826 -23.135,-3.908996 z"
           inkscape:connector-curvature="0"
           sodipodi:nodetypes="cccccccccccccc" />
      </g>
      <g
         transform="translate(183.1295,304.1039)"
         id="g4674" />
      <g
         transform="translate(437.3597,558.3342)"
         id="g4678" />
      <g
         transform="translate(455.2408,559.3619)"
         id="g4682">
        <path
           inkscape:connector-curvature="0"
           style="font-size:medium;font-style:normal;font-variant:normal;font-weight:normal;font-stretch:normal;text-indent:0;text-align:start;text-decoration:none;line-height:normal;letter-spacing:normal;word-spacing:normal;text-transform:none;direction:ltr;block-progression:tb;writing-mode:lr-tb;text-anchor:start;baseline-shift:baseline;color:#000000;fill:#ffce26;fill-opacity:1;fill-rule:nonzero;stroke:none;stroke-width:2.4000001;marker:none;visibility:visible;display:inline;overflow:visible;enable-background:accumulate;font-family:Sans;-inkscape-font-specification:Sans"
           d="m -372.78125,61.84375 c -4.88706,0.05656 -9.47117,0.619168 -13.6875,1.75 -0.0384,0.01033 -0.0866,0.02087 -0.125,0.03125 -9.76156,1.934629 -21.25033,7.85541 -30.59375,16.71875 -9.37994,8.897981 -16.61446,20.81246 -17.375,34.625 l 0,0.0312 0,0.0312 c -0.23194,19.48857 5.34225,31.6938 6.5625,34.15625 l -8.125,8.125 -1.0625,1.03125 1.0625,1.0625 36.875,36.90625 1.0625,1.0625 1.09375,-1.0625 24.53125,-24.5625 0.9375,-0.90625 -0.78125,-1.03125 c 0,0 -3.96956,-5.30801 -6.0625,-13.0625 -2.08964,-7.74226 -2.32637,-17.71193 5.15625,-27.40625 0.0122,-0.0147 0.0188,-0.0478 0.0312,-0.0625 4.22406,-5.03503 9.84954,-7.55802 16.40625,-8.4375 6.57582,-0.88205 14.0277,-0.0301 21.53125,1.71875 14.99262,3.49431 30.05366,10.59906 38.9375,14.3125 0.0114,0.005 0.0199,-0.005 0.0312,0 56.03756,25.47835 101.78125,26.6875 101.78125,26.6875 l 1.625,0.0312 -0.125,-1.6875 -2.5,-32.25 -0.0625,-1.21875 -1.21875,-0.15625 c 0,0 -31.28581,-4.42714 -62.3125,-23.53125 -17.4953,-11.34392 -40.97585,-23.798631 -64.25,-32.375 -17.41582,-6.417633 -34.68258,-10.70093 -49.34375,-10.53125 z m 223.5,23.03125 c -13.02315,0.163723 -20.3797,8.309971 -20.9375,17.53125 -0.28514,4.71869 0.70611,8.24135 2.40625,10.78125 1.70014,2.5399 4.08938,4.00882 6.4375,4.8125 3.38219,1.1576 6.0984,1.04192 7.71875,0.875 -0.0586,0.72954 -0.27471,1.85179 -1.34375,3.625 -1.83501,3.04409 -6.25,3.65625 -6.25,3.65625 l -1.53125,0.15625 0.1875,1.53125 3.5625,30.15625 0.21875,1.96875 1.84375,-0.75 c 0,0 10.01993,-4.02119 22.59375,-16.59375 8.88768,-8.88832 11.5019,-18.75592 11.4375,-27 -0.0642,-8.22434 -2.72852,-14.81222 -4.46875,-17.84375 -0.005,-0.0094 0.005,-0.05312 0,-0.0625 l -0.0312,0 C -132.33877,88.881433 -142.21791,84.785975 -149.2812,84.875 z"
           transform="matrix(0.8,0,0,-0.8,122.9769,98.622546)"
           id="path5566" />
      </g>
      <g
         transform="translate(443.9027,309.3035)"
         id="g4686">
        <path
           style="font-size:medium;font-style:normal;font-variant:normal;font-weight:normal;font-stretch:normal;text-indent:0;text-align:start;text-decoration:none;line-height:normal;letter-spacing:normal;word-spacing:normal;text-transform:none;direction:ltr;block-progression:tb;writing-mode:lr-tb;text-anchor:start;baseline-shift:baseline;color:#000000;fill:#ffce26;fill-opacity:1;fill-rule:nonzero;stroke:none;stroke-width:2.4000001;marker:none;visibility:visible;display:inline;overflow:visible;enable-background:accumulate;font-family:Sans;-inkscape-font-specification:Sans"
           d="m -247.56875,222.38125 13.4375,13.4375 235.1,-235.115625 C 2.4699269,-0.93968976 2.6843858,-3.0086315 2.09375,-4.875 1.49881,-6.7549692 0.18977698,-8.560223 -1.5,-10.25 c -1.689726,-1.689197 -3.495107,-2.998688 -5.375,-3.59375 -0.9399465,-0.297531 -1.9331963,-0.373654 -2.875,-0.21875 -0.928158,0.15266 -1.816855,0.535674 -2.734375,1.375 z"
           id="path5611"
           inkscape:connector-curvature="0"
           sodipodi:nodetypes="cccscsscc" />
      </g>
      <g
         transform="translate(187.2883,320.8995)"
         id="g4690" />
      <g
         transform="translate(420.564,554.1752)"
         id="g4694" />
      <path
         sodipodi:nodetypes="cccccccc"
         inkscape:connector-curvature="0"
         d="m 120.58325,620.34124 c 0,0 34.97515,-95.98271 34.92316,-95.9987 8.2178,9.17878 12.18272,29.40028 12.18272,29.40028 l 23.24343,-23.03128 19.49252,19.49254 -23.21142,22.99828 c 0,0 21.80446,5.44887 29.88829,12.8047 -0.16199,-0.14299 -96.5187,34.33418 -96.5187,34.33418"
         style="fill:#ffffff;fill-opacity:1;fill-rule:nonzero;stroke:none"
         id="path4656" />
    </g>
  </g>
  <style
     id="style9746"
     type="text/css">
.st0{fill:#CC4D21;}
.st1{fill:#ED6C30;}
.st2{fill:#FFFFFF;}
.st3{fill:#FCC31B;}
  </style>
</svg>
