<?xml version="1.0" encoding="UTF-8" standalone="no"?>
<!-- Created with Inkscape (http://www.inkscape.org/) -->
<svg
   xmlns:svg="http://www.w3.org/2000/svg"
   xmlns="http://www.w3.org/2000/svg"
   version="1.0"
   width="500"
   height="500"
   viewBox="0 0 345.20605 326.25635"
   id="svg2314"
   xml:space="preserve"><defs
   id="defs2334" />
	
		<g
   transform="matrix(0.9861902,0,0,0.9861902,2.3836171,5.3631323)"
   id="Ebene_7">
			<path
   d="M 73.011719,128.88232 C 77.337891,125.58008 78.869141,125.07227 84.107422,125.20264 C 86.730957,125.26807 89.115723,125.51953 89.406738,125.76123 C 90.76416,126.88672 99.507812,128.34912 102.36328,127.92773 C 104.5752,127.6001 107.11035,125.8208 108.41797,123.67529 C 109.50928,121.88525 109.61035,118.38281 108.61865,116.65039 C 107.7041,115.0498 107.72607,113.04053 108.68604,110.35938 C 109.69775,107.53809 109.33057,106.09912 106.93652,103.50098 C 105.51611,101.96143 104.3374,101.23486 102.21191,100.5918 C 99.430176,99.749024 99.334961,99.751953 96.662109,100.75147 C 93.297363,102.01074 92.507324,102.01758 90.138672,100.80957 C 86.432617,98.918457 81.161621,99.989258 78.477539,103.17773 C 77.022461,104.90772 76.878906,106.36523 77.679199,111.3042 C 78.435547,115.96143 76.785645,119.7373 73.135742,121.70361 C 69.910156,123.43945 69.023438,121.06787 69.018555,110.70557 C 69.016113,102.31885 69.451172,100.48633 72.109863,97.685547 C 74.991211,94.650879 78.435547,93.452637 83.258789,93.806641 C 94.922363,94.665039 96.503418,94.632325 98.749512,93.490723 C 102.08887,91.79541 102.81104,90.45459 102.72266,86.1167 C 102.6665,83.372559 102.88525,81.931153 103.59424,80.376953 C 104.93652,77.429688 104.84033,74.112793 103.34717,71.916504 C 101.94971,69.858399 98.05957,68.167481 94.721191,68.167481 C 93.314453,68.167481 91.653809,67.672364 89.687012,66.666016 C 87.406738,65.499024 86.345703,65.21875 84.924805,65.40918 C 82.559082,65.726563 79.312012,67.790528 78.135254,69.726563 C 76.782715,71.950684 75.739258,77.140137 75.725586,81.702637 C 75.715332,86.222168 74.853027,88.670411 72.493164,90.886231 C 71.456055,91.859375 70.660156,92.198731 69.677734,92.086426 C 68.496094,91.950196 68.262207,91.665528 67.971191,90.00879 C 67.416016,86.862305 67.591797,74.323243 68.214844,72.655274 C 68.949219,70.677735 72.086914,67.214356 74.671387,65.523926 C 75.919434,64.708008 77.662109,62.781739 79.111328,60.61377 C 81.28418,57.364747 81.49707,56.799805 81.49707,54.277344 C 81.49707,50.625489 80.232422,48.713868 76.548828,46.806641 C 75.020508,46.014161 73.187988,44.609864 72.476562,43.686036 C 70.416992,41.011719 68.432129,39.382325 66.618652,38.878418 C 62.877441,37.839356 61.202637,38.518067 57.831055,42.439942 C 56.538574,43.943848 54.957519,45.261231 54.230469,45.44043 C 49.260254,46.66748 45.199707,53.375 46.848633,57.638184 C 47.567383,59.496582 51.913086,64.033203 54.831055,65.969727 C 61.102051,70.131836 63.256836,75.104004 63.256836,85.411133 C 63.256836,92.763184 62.622559,93.531738 59.064941,90.487793 C 56.442383,88.241699 55.191406,85.47998 54.59375,80.609863 C 53.939453,75.283691 52.873047,71.570801 51.564453,70.060059 C 50.979492,69.384766 49.468262,68.33252 48.205078,67.721191 C 45.335449,66.332031 43.442871,66.530273 38.956543,68.687988 C 36.566895,69.838379 34.792969,70.330566 32.534668,70.472656 C 29.982422,70.632324 29.166992,70.899414 28.051758,71.937988 C 25.027344,74.755371 24.631836,77.352051 26.608887,81.393066 C 27.882812,83.993164 27.883789,84.000977 27.017578,85.922852 C 26.185059,87.767578 26.184082,87.927734 26.994141,89.725586 C 27.493164,90.830567 28.747559,92.254395 30.046387,93.186035 C 31.961426,94.562012 32.599121,94.758789 34.93457,94.694336 C 36.410156,94.65332 38.208496,94.395996 38.929687,94.121094 C 39.651367,93.847168 42.882324,93.481445 46.109375,93.309082 C 51.492187,93.020996 52.165039,93.081543 54.265625,94.038574 C 57.12793,95.341797 60.770996,99.148926 62.019043,102.13721 C 62.827148,104.07471 62.958984,105.44678 62.915527,111.45459 C 62.855469,119.45752 62.405762,121.11475 60.223633,121.36475 C 57.398438,121.68994 55.678223,118.32324 55.064941,111.27246 C 54.773438,107.90918 54.302734,105.73096 53.480469,103.93652 C 52.424316,101.62744 52.016602,101.24268 49.194336,99.896973 C 44.659668,97.731934 43.693848,97.874512 38.055176,101.53906 C 36.018555,102.8623 35.102051,103.13184 32.007324,103.31787 C 27.885742,103.56445 26.567383,104.2749 24.919922,107.13818 C 23.52002,109.57031 23.629883,111.35352 25.395996,114.85352 C 26.830566,117.69482 26.873535,117.93604 26.307617,120.14062 C 25.518066,123.22021 25.98291,125.3042 27.895996,127.26758 C 29.850586,129.27197 33.12793,130.2998 37.366211,130.23779 C 40.028809,130.19922 41.072266,129.90625 44.086426,128.35156 C 47.34082,126.67383 47.99414,126.51074 51.496582,126.50098 C 55.476562,126.49023 56.234375,126.76562 59.500976,129.40967 C 60.641601,130.3335 61.354492,130.44727 65.895508,130.43115 C 70.890625,130.41357 71.051758,130.37744 73.011719,128.88232 z "
   id="path2319" />
			<path
   d="M 220.43164,117.45703 C 218.90332,115.36816 218.88672,115.29102 219.19238,111.47412 C 219.46387,108.05371 219.38379,107.4248 218.5,106.02295 C 217.20898,103.97412 214.22559,102.34326 211.80566,102.36426 C 210.7627,102.37353 208.1875,102.62842 206.08496,102.93018 C 202.64453,103.42432 201.96191,103.38135 199.26074,102.49707 L 196.25781,101.51514 L 192.99023,102.52051 C 190.37793,103.32324 189.33984,103.94629 187.8252,105.61816 C 184.68359,109.0874 183.7041,112.72168 181.64355,128.55322 C 181.03711,133.2168 180.27637,134.80566 178.64648,134.82031 C 175.86621,134.84473 175.38965,132.41895 175.81152,120.38721 C 176.22656,108.54932 176.78809,106.10986 179.91113,102.57324 C 182.43164,99.719238 187.09277,96.972656 190.02148,96.615234 C 191.20996,96.470215 195.74219,96.084961 200.0957,95.759277 C 210.69922,94.963867 214.2666,93.55957 216.36621,89.354492 C 217.5791,86.920898 217.55469,86.457031 215.97168,82.10498 C 214.71191,78.644043 214.6748,78.316894 215.26074,75.778808 C 215.76953,73.569824 215.76465,72.824707 215.23633,71.519531 C 214.31445,69.240722 212.46289,67.446777 210.14258,66.584472 C 208.33691,65.912109 207.90234,65.910156 206.03223,66.560547 C 204.09473,67.234375 203.76367,67.218261 201.52441,66.333984 C 197.99316,64.940429 197.32031,64.882812 194.81445,65.757812 C 189.54688,67.598633 186.86133,71.495605 185.57324,79.171875 C 185.11035,81.932129 184.83691,85.146484 184.9668,86.313965 C 185.26074,88.962402 184.13574,91.361328 181.87793,92.898437 C 179.78809,94.321289 178.72168,94.301269 177.20215,92.807617 L 175.9707,91.597168 L 176.04981,82.136719 C 176.12891,72.76416 176.14258,72.654785 177.45898,70.368652 C 179.80371,66.299316 186.83594,61.537109 193.7041,59.367187 C 197.59766,58.138672 199.41602,58.060547 202.17188,59.005371 C 203.35449,59.411133 205.88379,59.692383 208.16797,59.672363 C 211.4834,59.643066 212.375,59.459961 213.73145,58.528808 C 214.61816,57.918945 215.62207,56.884277 215.96094,56.229004 C 216.91016,54.396484 216.35938,51.237305 214.74512,49.249023 C 212.23145,46.150879 211.97363,45.415527 212.80762,43.707031 C 215.16504,38.874512 211.93164,33.717285 206.57422,33.76416 C 204.67285,33.78125 204.08789,33.534668 202.53516,32.065429 C 198.8291,28.55957 196.53906,27.842285 193.75,29.316406 C 190.46191,31.053711 188.86328,34.839844 186.6377,46.151367 C 185.07129,54.120605 183.89063,57.043457 181.30762,59.353027 C 179.48828,60.979004 178.68066,61.189453 177.20996,60.419922 C 175.8584,59.711426 175.62109,57.490722 176.04883,49.536621 C 176.56738,39.873535 177.12305,38.646972 184.16797,31.562011 C 190.52344,25.170898 191.92383,22.600097 191.86719,17.420898 C 191.83789,14.599121 191.63965,13.875976 190.42383,12.15332 C 189.56348,10.935058 188.11328,9.7202146 186.70508,9.0361326 C 185.29785,8.3525388 183.15332,6.5556638 181.20996,4.4316404 C 179.45898,2.5151365 177.36816,0.7250974 176.56445,0.4536131 C 175.23731,0.0039061 173.91699,-0.1083986 172.60352,0.104492 C 171.29004,-0.1083986 169.96973,0.0039061 168.64258,0.4536131 C 167.83838,0.7250975 165.74805,2.5151365 163.99756,4.4316404 C 162.05371,6.5556638 159.90918,8.3525388 158.50147,9.0361326 C 157.09375,9.7202146 155.64307,10.935058 154.7832,12.15332 C 153.56738,13.875976 153.36865,14.599121 153.33984,17.420898 C 153.2832,22.600097 154.68311,25.170898 161.03955,31.562011 C 168.08398,38.646972 168.63965,39.873535 169.15772,49.536621 C 169.58545,57.490722 169.34863,59.711426 167.99707,60.419922 C 166.52588,61.189453 165.71875,60.979004 163.89941,59.353027 C 161.31592,57.043457 160.13525,54.120605 158.56885,46.151367 C 156.34375,34.839844 154.74512,31.053711 151.45703,29.316406 C 148.66748,27.842285 146.37744,28.55957 142.67139,32.065429 C 141.11914,33.534668 140.53369,33.78125 138.63281,33.76416 C 133.27539,33.717285 130.04199,38.874512 132.39893,43.707031 C 133.23242,45.415527 132.9751,46.150879 130.46191,49.249023 C 128.84668,51.237304 128.29639,54.396484 129.24609,56.229004 C 129.58447,56.884277 130.58838,57.918945 131.4751,58.528808 C 132.83154,59.459961 133.72315,59.643066 137.03858,59.672363 C 139.32275,59.692383 141.85205,59.411133 143.03467,59.005371 C 145.79102,58.060547 147.60938,58.138672 151.50293,59.367187 C 158.37109,61.537109 165.40332,66.299316 167.74805,70.368652 C 169.06445,72.654785 169.07813,72.76416 169.15674,82.136719 L 169.23682,91.597168 L 168.00488,92.807617 C 166.48486,94.301269 165.41943,94.321289 163.3291,92.898437 C 161.07178,91.361328 159.94629,88.962402 160.24024,86.313965 C 160.37012,85.146484 160.09668,81.932129 159.63379,79.171875 C 158.3457,71.495605 155.66016,67.598633 150.39258,65.757812 C 147.88672,64.882812 147.21387,64.940429 143.68262,66.333984 C 141.44336,67.218261 141.11231,67.234375 139.17432,66.560547 C 137.30469,65.910156 136.87012,65.912109 135.06445,66.584472 C 132.74414,67.446777 130.89258,69.240722 129.9707,71.519531 C 129.4419,72.824707 129.43701,73.569824 129.9458,75.778808 C 130.53223,78.316894 130.49512,78.644043 129.23486,82.10498 C 127.65234,86.457031 127.62744,86.920898 128.84033,89.354492 C 130.93994,93.55957 134.50733,94.963867 145.11133,95.759277 C 149.46484,96.084961 153.99707,96.470215 155.18506,96.615234 C 158.11475,96.972656 162.7749,99.719238 165.2959,102.57324 C 168.41943,106.10986 168.97998,108.54932 169.39551,120.38721 C 169.81738,132.41895 169.34131,134.84473 166.56006,134.82031 C 164.93067,134.80566 164.16943,133.2168 163.56299,128.55322 C 161.50342,112.72168 160.52344,109.0874 157.38184,105.61816 C 155.8667,103.94629 154.82861,103.32324 152.2168,102.52051 L 148.94873,101.51514 L 145.9458,102.49707 C 143.24463,103.38135 142.56201,103.42432 139.12207,102.93018 C 137.01953,102.62842 134.44336,102.37354 133.40088,102.36426 C 130.98096,102.34326 127.99805,103.97412 126.70606,106.02295 C 125.82324,107.4248 125.74268,108.05371 126.01416,111.47412 C 126.32031,115.29102 126.30322,115.36816 124.7749,117.45703 C 122.59912,120.43018 122.23486,121.97705 123.04492,124.79443 C 124.1665,128.70264 129.56641,132.58496 134.90479,133.32471 C 136.2041,133.50439 137.49854,133.79834 137.77881,133.97803 C 138.06055,134.15723 141.63623,134.45605 145.72754,134.64209 C 152.35059,134.94238 153.4541,135.11621 155.79834,136.22363 C 158.63379,137.56494 160.6001,139.24365 162.68262,142.10645 C 162.8252,142.30225 164.13281,143.9624 165.05469,145.12158 C 167.15137,143.52246 169.76221,142.56152 172.60352,142.56152 C 175.45606,142.56152 178.07617,143.52979 180.17774,145.1416 C 180.98145,144.13281 182.2959,142.41992 182.52442,142.10645 C 184.60645,139.24365 186.57324,137.56494 189.40918,136.22363 C 191.75293,135.11621 192.85645,134.94238 199.47949,134.64209 C 203.57031,134.45605 207.14649,134.15723 207.42774,133.97803 C 207.70801,133.79834 209.00293,133.50439 210.30176,133.32471 C 215.64063,132.58496 221.04004,128.70264 222.16211,124.79443 C 222.97168,121.97705 222.60742,120.43018 220.43164,117.45703 z "
   id="path2321" />
			<path
   d="M 272.19434,128.88232 C 267.86816,125.58008 266.33691,125.07227 261.09863,125.20264 C 258.47559,125.26807 256.09082,125.51953 255.7998,125.76123 C 254.44238,126.88672 245.69824,128.34912 242.84375,127.92773 C 240.63184,127.6001 238.09668,125.8208 236.78809,123.67529 C 235.69727,121.88525 235.59668,118.38281 236.58789,116.65039 C 237.50195,115.0498 237.48047,113.04053 236.52051,110.35938 C 235.50879,107.53809 235.87598,106.09912 238.27051,103.50098 C 239.69043,101.96143 240.86914,101.23486 242.99414,100.5918 C 245.77637,99.749024 245.87207,99.751953 248.54492,100.75147 C 251.90918,102.01074 252.69922,102.01758 255.06836,100.80957 C 258.77441,98.918457 264.04492,99.989258 266.72852,103.17773 C 268.18457,104.90772 268.32812,106.36523 267.52734,111.3042 C 266.77051,115.96143 268.4209,119.7373 272.07129,121.70361 C 275.2959,123.43945 276.18262,121.06787 276.1875,110.70557 C 276.19043,102.31885 275.75488,100.48633 273.09668,97.685547 C 270.21582,94.650879 266.77051,93.452637 261.94824,93.806641 C 250.28418,94.665039 248.70312,94.632325 246.45703,93.490723 C 243.11816,91.79541 242.39551,90.45459 242.48437,86.1167 C 242.54004,83.372559 242.32129,81.931153 241.6123,80.376953 C 240.27051,77.429688 240.36621,74.112793 241.85937,71.916504 C 243.25684,69.858399 247.14746,68.167481 250.48535,68.167481 C 251.89258,68.167481 253.55273,67.672364 255.51953,66.666016 C 257.7998,65.499024 258.86035,65.21875 260.28125,65.40918 C 262.64746,65.726563 265.89453,67.790528 267.07129,69.726563 C 268.42383,71.950684 269.46777,77.140137 269.48047,81.702637 C 269.49121,86.222168 270.35352,88.670411 272.71387,90.886231 C 273.75,91.859375 274.5459,92.198731 275.5293,92.086426 C 276.70996,91.950196 276.94434,91.665528 277.23535,90.00879 C 277.79004,86.862305 277.61426,74.323243 276.99219,72.655274 C 276.25684,70.677735 273.11914,67.214356 270.53516,65.523926 C 269.28711,64.708008 267.54492,62.781739 266.09473,60.61377 C 263.92187,57.364747 263.70898,56.799805 263.70898,54.277344 C 263.70898,50.625489 264.97461,48.713868 268.65723,46.806641 C 270.18555,46.014161 272.01855,44.609864 272.72949,43.686036 C 274.78906,41.011719 276.77441,39.382325 278.58789,38.878418 C 282.3291,37.839356 284.00391,38.518067 287.375,42.439942 C 288.66797,43.943848 290.24902,45.261231 290.97559,45.44043 C 295.94629,46.667481 300.00684,53.375 298.35742,57.638184 C 297.63867,59.496582 293.29297,64.033204 290.375,65.969727 C 284.10449,70.131836 281.94922,75.104004 281.94922,85.411133 C 281.94922,92.763184 282.58398,93.531739 286.1416,90.487793 C 288.76367,88.2417 290.01465,85.479981 290.6123,80.609864 C 291.2666,75.283692 292.33301,71.570801 293.6416,70.060059 C 294.22656,69.384766 295.73828,68.33252 297.00098,67.721192 C 299.87109,66.332032 301.76367,66.530274 306.25,68.687989 C 308.63965,69.838379 310.41309,70.330567 312.67187,70.472657 C 315.22363,70.632325 316.03906,70.899415 317.1543,71.937989 C 320.17871,74.755372 320.57422,77.352051 318.59668,81.393067 C 317.32324,83.993165 317.32227,84.000977 318.18848,85.922852 C 319.02051,87.767579 319.02148,87.927735 318.21191,89.725586 C 317.71289,90.830567 316.45801,92.254395 315.16016,93.186036 C 313.24512,94.562012 312.60645,94.75879 310.27148,94.694336 C 308.7959,94.653321 306.99805,94.395997 306.27637,94.121094 C 305.55469,93.847168 302.32422,93.481446 299.09668,93.309083 C 293.71387,93.020997 293.04102,93.081543 290.94043,94.038575 C 288.0791,95.341797 284.43555,99.148926 283.1875,102.13721 C 282.37891,104.07471 282.24707,105.44678 282.29102,111.45459 C 282.35059,119.45752 282.80078,121.11475 284.98242,121.36475 C 287.80762,121.68994 289.52832,118.32324 290.1416,111.27246 C 290.43262,107.90918 290.90332,105.73096 291.72559,103.93652 C 292.78223,101.62744 293.18945,101.24268 296.01172,99.896973 C 300.54687,97.731934 301.5127,97.874512 307.15039,101.53906 C 309.1875,102.86231 310.10449,103.13184 313.19922,103.31787 C 317.32031,103.56445 318.63867,104.2749 320.28613,107.13818 C 321.68652,109.57031 321.57617,111.35352 319.80957,114.85352 C 318.37598,117.69482 318.33301,117.93604 318.89844,120.14063 C 319.68848,123.22022 319.22363,125.3042 317.30957,127.26758 C 315.35547,129.27197 312.07812,130.29981 307.83984,130.23779 C 305.17773,130.19922 304.13379,129.90625 301.12012,128.35156 C 297.86523,126.67383 297.21191,126.51074 293.70996,126.50098 C 289.72949,126.49023 288.97168,126.76563 285.70508,129.40967 C 284.56445,130.3335 283.85156,130.44727 279.31055,130.43115 C 274.31641,130.41357 274.1543,130.37744 272.19434,128.88232 z "
   id="path2323" />
			<circle
   cx="172.60352"
   cy="155.03467"
   r="9.9453125"
   id="circle35" /> 
			<path
   d="M 175.15234,166.07861 C 174.81543,169.77197 174.48633,173.61865 174.33496,177.29736 C 190.88574,185.96729 206.31055,197.3335 217.36035,212.56689 C 228.23242,229.14404 236.83105,249.18896 234.12988,269.51904 C 232.72656,262.25049 232.2832,254.97607 230.68652,247.70752 C 223.35059,218.45654 201.30664,194.69482 174.75195,181.12549 C 174.59082,184.9585 174.625,188.78857 174.65723,192.62061 C 188.71387,200.74268 201.2627,211.93994 210.00195,225.84912 C 221.85547,245.48486 225.1377,270.93604 216.31836,292.66357 C 218.12695,280.00244 218.97461,267.15674 217.52637,254.5249 C 213.29297,229.84326 196.82227,208.146 174.69238,196.64307 C 174.54297,201.81982 174.58496,206.80029 174.4375,211.97412 C 185.79785,218.58252 196.03223,228.07568 201.50391,240.29053 C 210.09766,259.56885 210.10645,283.13623 200.49512,302.18701 C 203.23047,285.87646 207.30273,269.17139 202.37598,252.9292 C 198.9834,237.05811 188.13965,223.54736 174.08984,216.19287 C 174.31836,220.40381 173.02246,225.59033 176.11816,229.20166 C 193.9209,250.12744 197.45117,282.09326 185.78027,306.71533 C 186.66699,298.0874 189.08594,289.64014 189.01074,280.82373 C 190.20703,263.76416 185.83789,245.60107 174.23047,232.66846 C 174.03418,254.51221 174.60254,276.3501 174.4043,298.00146 C 174.24121,301.45166 173.69434,304.7124 172.76465,307.979 C 172.7002,307.69678 172.66309,307.4126 172.60449,307.12939 C 172.54492,307.4126 172.50977,307.69678 172.44531,307.979 C 171.5127,304.7124 170.96973,301.45166 170.80469,298.00146 C 170.60645,276.3501 171.17383,254.51221 170.97949,232.66846 C 159.37305,245.60107 155.00195,263.76416 156.19727,280.82373 C 156.12305,289.64014 158.54004,298.0874 159.42676,306.71533 C 147.75977,282.09326 151.28906,250.12744 169.09082,229.20166 C 172.18555,225.59033 170.89063,220.40381 171.11816,216.19287 C 157.07031,223.54736 146.22461,237.05811 142.83105,252.9292 C 137.90723,269.17139 141.97852,285.87646 144.71484,302.18701 C 135.10059,283.13623 135.11133,259.56885 143.70313,240.29053 C 149.1748,228.07568 159.41211,218.58252 170.77051,211.97412 C 170.62109,206.80029 170.66602,201.81982 170.51563,196.64307 C 148.38867,208.146 131.91602,229.84326 127.68066,254.5249 C 126.2334,267.15674 127.08203,280.00244 128.8916,292.66357 C 120.06934,270.93604 123.35352,245.48486 135.20508,225.84912 C 143.94824,211.93994 156.49707,200.74268 170.55078,192.62061 C 170.58496,188.78857 170.61523,184.9585 170.45605,181.12549 C 143.90234,194.69482 121.8584,218.45654 114.52246,247.70752 C 112.92773,254.97607 112.48438,262.25049 111.0791,269.51904 C 108.37695,249.18896 116.97461,229.14404 127.84863,212.56689 C 138.89941,197.3335 154.32324,185.96729 170.87598,177.29736 C 170.7207,173.61865 170.3916,169.77197 170.05859,166.07861 C 125.35254,181.64502 94.945313,229.19287 96.655273,275.9126 C 97.368164,282.23779 102.50098,286.50049 107.45508,289.79736 C 110.50977,291.35791 110.66406,295.19092 112.18066,298.07764 C 117.42773,311.53467 134.03418,318.57275 147.48145,314.47314 C 154.41797,320.59814 162.94531,326.54639 172.60449,326.24561 C 182.2627,326.54639 190.79199,320.59814 197.72559,314.47314 C 211.17285,318.57275 227.78125,311.53467 233.03125,298.07764 C 234.54102,295.19092 234.7002,291.35791 237.75195,289.79736 C 242.70605,286.50049 247.8418,282.23779 248.55469,275.9126 C 250.2627,229.19287 219.85547,181.64502 175.15234,166.07861 z "
   id="path16" />
			<path
   d="M 213.34473,168.53271 C 208.15723,166.6626 202.96875,164.7915 197.77832,162.91943 C 199.7373,167.88623 200.74414,173.62451 204.03613,177.81104 C 209.63477,182.55225 215.22852,187.29541 220.44727,192.6167 C 217.69629,184.59131 215.52148,176.56396 213.34473,168.53271 z "
   id="path18" />
			<path
   d="M 331.50684,184.77197 C 334.28809,174.01904 333.61426,162.33838 327.02148,153.19873 C 318.67773,140.62354 302.93652,137.11768 289.11328,133.97803 C 253.63672,128.56494 215.90625,134.94873 182.4375,147.54346 C 184.02539,149.62451 184.97852,152.21533 184.97852,155.03467 C 184.97852,155.31885 184.95508,155.59619 184.93652,155.87451 C 187.70215,156.98096 192.16699,158.42822 194.875,159.3042 C 214.51465,148.21631 237.25098,140.74268 260.07812,143.99658 C 280.60449,147.07959 301.36133,154.56689 316.62012,169.18994 C 297.75,158.04541 277.54688,148.06396 255.3125,146.91162 C 235.94434,144.96826 217.03027,151.06885 200.24609,160.21729 C 205.24316,162.08936 210.05762,164.92432 215.61816,165.44971 C 219.63672,164.84229 223.4541,163.0835 227.27637,161.90283 C 261.47363,150.49951 301.83301,165.10205 322.77051,193.85303 C 318.52734,190.62939 314.85254,186.63916 310.80273,183.22607 C 297.29395,172.0376 280.56543,165.08838 263.4873,161.97705 C 248.71387,159.42041 233.79297,162.42139 219.85059,167.51904 C 223.89551,169.78662 227.75,172.43799 232.1709,174.12256 C 244.81152,173.63135 258.20312,171.41064 270.31445,176.28857 C 291.26563,183.96533 310.54883,198.74756 320.87305,218.77588 C 309.65625,206.41846 299.00781,193.28857 283.99609,185.36963 C 270.32031,176.86475 253.43359,173.94092 237.55469,176.56787 C 244.10938,181.30127 250.48535,187.57275 259.11133,187.87939 C 284.24023,191.68896 304.53418,212.3999 310.48926,236.87646 C 304.87305,229.64111 301.92285,220.6626 295.92383,213.81494 C 286.62598,201.63525 272.75586,192.93408 257.41211,190.95947 C 276.92285,209.57178 294.55859,233.37061 295.17871,261.3374 C 288.83105,235.71631 276.35352,210.53271 255.33203,194.04248 C 260.8584,213.34912 273.25781,229.33447 282.98438,246.68994 C 277.58105,242.32666 273.8916,236.229 270.01172,230.51514 C 262.43945,218.88818 255.4375,206.68799 251.11133,193.50537 C 249.32227,186.04736 241.06152,183.43408 235.47363,179.46045 C 239.24512,195.13721 245.88672,210.02588 253.66992,224.13916 C 260.67676,237.10498 270.54688,248.51709 278.50879,261.09814 C 255.51855,238.68408 239.36816,209.50537 231.63184,178.34326 C 228.52734,173.96143 222.00195,172.67725 217.38184,170.03369 C 220.55762,183.03662 223.92871,196.41846 231.68652,207.46338 C 238.47949,217.75342 243.55859,229.20557 249.01855,240.27197 C 252.91406,247.90479 258.52734,254.56104 262.4248,262.3833 C 257.02344,258.02002 253.52441,251.92041 249.07129,246.59229 C 250.28906,254.63232 251.50879,262.85693 252.15527,271.09326 C 258.29883,272.5708 265.01953,274.4292 271.12891,271.88818 C 275.14551,271.0874 278.9502,267.99072 282.98633,269.48486 C 288.74707,270.97119 294.88867,272.2583 300.61816,270.10303 C 314.00195,266.73389 322.70117,253.43994 323.16309,240.02393 C 333.66797,236.10205 342.59766,227.40576 344.61035,216.08252 C 347.18848,204.18311 341.14551,191.78174 331.50684,184.77197 z "
   id="path24" />
			<path
   d="M 180.77344,164.31494 C 186.04297,167.10205 192.52637,170.75342 197.67773,173.45557 C 196.49316,169.63525 195.12012,165.62451 193.74414,161.61279 C 191.13281,160.93994 187.28125,159.60596 184.43457,158.6665 C 183.75684,160.88037 182.46777,162.82178 180.77344,164.31494 z "
   id="path26" />
			<path
   d="M 162.79883,147.50537 C 129.29688,134.87549 91.62207,128.55713 56.09668,133.97803 C 42.271484,137.11768 26.533203,140.62354 18.188477,153.19873 C 11.595703,162.33838 10.918945,174.01904 13.704102,184.77197 C 4.0644532,191.78174 -1.9804687,204.18311 0.5957032,216.08252 C 2.6093751,227.40576 11.541016,236.10205 22.046875,240.02393 C 22.504883,253.43994 31.207031,266.73389 44.588867,270.10303 C 50.320313,272.2583 56.460938,270.97119 62.22168,269.48486 C 66.258789,267.99072 70.061524,271.0874 74.078125,271.88818 C 80.188477,274.4292 86.91211,272.5708 93.052735,271.09326 C 93.699219,262.85693 94.921875,254.63232 96.136719,246.59228 C 91.686524,251.92041 88.1875,258.02002 82.785156,262.3833 C 86.682617,254.56103 92.294922,247.90478 96.192383,240.27197 C 101.64941,229.20557 106.72656,217.75342 113.52051,207.46338 C 121.28027,196.41846 124.64941,183.03662 127.82422,170.03369 C 123.2041,172.67725 116.68066,173.96143 113.5752,178.34326 C 105.83984,209.50537 89.692383,238.68408 66.697266,261.09814 C 74.66211,248.51709 84.530274,237.10498 91.536133,224.13916 C 99.321289,210.02588 105.96484,195.13721 109.73828,179.46045 C 104.14648,183.43408 95.887696,186.04736 94.098633,193.50537 C 89.772461,206.68799 82.770508,218.88818 75.199219,230.51514 C 71.317383,236.229 67.628906,242.32666 62.22168,246.68994 C 71.950195,229.33447 84.350586,213.34912 89.87793,194.04248 C 68.854492,210.53271 56.375977,235.71631 50.03125,261.3374 C 50.649414,233.37061 68.28711,209.57178 87.798828,190.95947 C 72.454102,192.93408 58.583008,201.63525 49.283203,213.81494 C 43.288086,220.6626 40.337891,229.64111 34.720703,236.87646 C 40.675781,212.3999 60.970703,191.68896 86.099609,187.87939 C 94.720703,187.57275 101.10059,181.30127 107.6543,176.56787 C 91.776367,173.94092 74.890625,176.86475 61.209961,185.36963 C 46.203125,193.28857 35.553711,206.41846 24.333984,218.77588 C 34.661133,198.74756 53.943359,183.96533 74.895508,176.28857 C 87.006836,171.41064 100.39844,173.63135 113.03711,174.12256 C 117.45898,172.43799 121.31543,169.78662 125.35742,167.51904 C 111.41797,162.42139 96.495117,159.42041 81.723633,161.97705 C 64.643555,165.08838 47.913086,172.0376 34.40625,183.22607 C 30.354492,186.63916 26.681641,190.62939 22.44043,193.85303 C 43.37793,165.10205 83.736328,150.49951 117.93164,161.90283 C 121.75391,163.0835 125.57129,164.84228 129.58887,165.44971 C 135.15137,164.92432 139.96484,162.08936 144.96484,160.21728 C 128.17773,151.06885 109.26367,144.96826 89.896484,146.91162 C 67.65918,148.06396 47.458984,158.04541 28.585938,169.18994 C 43.845703,154.56689 64.604492,147.07959 85.132813,143.99658 C 107.95898,140.74268 130.69531,148.21631 150.33594,159.3042 C 153.21777,158.37061 157.27734,157.05908 159.96777,155.93408 C 160.07422,155.78857 160.15625,155.64502 160.25195,155.50049 C 160.24609,155.34521 160.22754,155.19189 160.22754,155.03467 C 160.22754,152.19873 161.19336,149.59229 162.79883,147.50537 z "
   id="path28" />
			<path
   d="M 160.79297,158.73975 C 157.94336,159.66748 154.08887,160.93604 151.46191,161.61279 C 150.08691,165.62451 148.7168,169.63525 147.53027,173.45557 C 152.78223,170.70068 159.14453,167.12744 164.45117,164.33057 C 162.7666,162.85205 161.48047,160.93115 160.79297,158.73975 z "
   id="path30" />
			<path
   d="M 124.75977,192.6167 C 129.98242,187.29541 135.57422,182.55225 141.1709,177.81104 C 144.46582,173.62451 145.47266,167.88623 147.43066,162.91943 C 142.24219,164.7915 137.0498,166.6626 131.86621,168.53271 C 129.68848,176.56396 127.50977,184.59131 124.75977,192.6167 z "
   id="path32" />
		</g>
	</svg>