<svg xmlns="http://www.w3.org/2000/svg" width="132" height="117" viewBox="-324.9 -225.9 132 117" overflow="visible" enable-background="new -324.9 -225.9 800 600"><defs><style type="text/css"><![CDATA[
        rect, path, poligon {       
            fill: #484848;
        }
        rect, poligon {
           fill-rule:evenodd;
        }
    ]]></style></defs><rect x="-296.6" y="-178.4" width="2.9" height="7.9"/><rect x="-291.6" y="-178.4" width="2.9" height="7.9"/><rect x="-286.6" y="-178.4" width="2.9" height="7.9"/><rect x="-281.5" y="-178.4" width="2.9" height="7.9"/><rect x="-276.7" y="-178.4" width="3.1" height="7.9"/><rect x="-271.7" y="-178.4" width="3.1" height="7.9"/><rect x="-266.6" y="-178.4" width="2.9" height="7.9"/><rect x="-261.6" y="-178.4" width="2.9" height="7.9"/><rect x="-256.6" y="-178.4" width="2.9" height="7.9"/><rect x="-251.5" y="-178.4" width="2.9" height="7.9"/><rect x="-246.7" y="-178.4" width="3.1" height="7.9"/><rect x="-241.7" y="-178.4" width="3.1" height="7.9"/><rect x="-236.6" y="-178.4" width="2.9" height="7.9"/><rect x="-231.6" y="-178.4" width="2.9" height="7.9"/><rect x="-226.6" y="-178.4" width="2.9" height="7.9"/><rect x="-221.5" y="-178.4" width="2.9" height="7.9"/><rect x="-296.6" y="-169.6" width="2.9" height="3.1"/><rect x="-291.6" y="-169.6" width="2.9" height="3.1"/><rect x="-286.6" y="-169.6" width="2.9" height="3.1"/><rect x="-281.5" y="-169.6" width="2.9" height="3.1"/><polygon points="48.1,56.3 51.2,56.3 51.2,59.5 48.1,59.5" transform="translate(-324.8 -225.9)"/><polygon points="53.1,56.4 56.2,56.3 56.2,59.5 53.1,59.5" transform="translate(-324.8 -225.9)"/><rect x="-266.6" y="-169.6" width="2.9" height="3.1"/><rect x="-261.6" y="-169.6" width="2.9" height="3.1"/><rect x="-256.6" y="-169.6" width="2.9" height="3.1"/><rect x="-251.5" y="-169.6" width="2.9" height="3.1"/><polygon points="78.1,56.3 81.2,56.4 81.2,59.5 78.1,59.5" transform="translate(-324.8 -225.9)"/><polygon points="83.1,56.4 86.2,56.3 86.2,59.5 83.1,59.5" transform="translate(-324.8 -225.9)"/><rect x="-236.6" y="-169.6" width="2.9" height="3.1"/><rect x="-231.6" y="-169.6" width="2.9" height="3.1"/><rect x="-226.6" y="-169.6" width="2.9" height="3.1"/><rect x="-221.5" y="-169.6" width="2.9" height="3.1"/><rect x="-289.5" y="-184.6" width="2.6" height="1.1"/><rect x="-285.7" y="-184.6" width="2.9" height="1.1"/><rect x="-281.6" y="-184.6" width="2.9" height="1.1"/><rect x="-277.5" y="-184.6" width="2.6" height="1.1"/><rect x="-257.6" y="-184.6" width="2.9" height="1.1"/><rect x="-261.7" y="-184.6" width="2.9" height="1.1"/><rect x="-265.5" y="-184.6" width="2.6" height="1.1"/><rect x="-273.7" y="-184.6" width="2.9" height="1.1"/><rect x="-269.6" y="-184.6" width="2.9" height="1.1"/><rect x="-233.6" y="-184.6" width="2.9" height="1.1"/><rect x="-237.7" y="-184.6" width="2.9" height="1.1"/><rect x="-241.5" y="-184.6" width="2.6" height="1.1"/><rect x="-245.6" y="-184.6" width="2.9" height="1.1"/><rect x="-249.7" y="-184.6" width="2.9" height="1.1"/><rect x="-253.5" y="-184.6" width="2.7" height="1.1"/><rect x="-289.5" y="-188.4" width="2.6" height="2.2"/><rect x="-229.5" y="-184.6" width="2.6" height="1.1"/><rect x="-285.7" y="-188.4" width="2.9" height="2.2"/><rect x="-281.6" y="-188.4" width="2.9" height="2.2"/><rect x="-277.5" y="-188.4" width="2.7" height="2.2"/><rect x="-273.7" y="-188.4" width="2.9" height="2.2"/><rect x="-269.6" y="-188.4" width="2.9" height="2.2"/><rect x="-265.5" y="-188.4" width="2.6" height="2.2"/><rect x="-261.7" y="-188.4" width="2.9" height="2.2"/><rect x="-241.5" y="-188.4" width="2.6" height="2.2"/><rect x="-245.6" y="-188.4" width="2.9" height="2.2"/><rect x="-249.7" y="-188.4" width="2.9" height="2.2"/><rect x="-253.5" y="-188.4" width="2.7" height="2.2"/><rect x="-257.6" y="-188.4" width="2.9" height="2.2"/><rect x="-229.5" y="-188.4" width="2.6" height="2.2"/><rect x="-233.6" y="-188.4" width="2.9" height="2.2"/><rect x="-237.7" y="-188.4" width="2.9" height="2.2"/><rect x="-289.5" y="-192.5" width="2.6" height="2.2"/><rect x="-285.7" y="-192.5" width="2.9" height="2.2"/><rect x="-281.6" y="-192.5" width="2.9" height="2.2"/><rect x="-277.5" y="-192.5" width="2.7" height="2.2"/><rect x="-273.7" y="-192.5" width="2.9" height="2.2"/><rect x="-269.6" y="-192.5" width="2.9" height="2.2"/><rect x="-265.5" y="-192.5" width="2.6" height="2.2"/><rect x="-261.7" y="-192.5" width="2.9" height="2.2"/><rect x="-241.5" y="-192.5" width="2.6" height="2.2"/><rect x="-245.6" y="-192.5" width="2.9" height="2.2"/><rect x="-249.7" y="-192.5" width="2.9" height="2.2"/><rect x="-253.5" y="-192.5" width="2.7" height="2.2"/><rect x="-257.6" y="-192.5" width="2.9" height="2.2"/><rect x="-229.5" y="-192.5" width="2.6" height="2.2"/><rect x="-233.6" y="-192.5" width="2.9" height="2.2"/><rect x="-237.7" y="-192.5" width="2.9" height="2.2"/><rect x="-289.5" y="-196.4" width="2.6" height="2.2"/><rect x="-285.7" y="-196.4" width="2.9" height="2.2"/><rect x="-281.6" y="-196.4" width="2.9" height="2.2"/><rect x="-277.5" y="-196.4" width="2.7" height="2.2"/><rect x="-273.7" y="-196.4" width="2.9" height="2.2"/><rect x="-269.6" y="-196.4" width="2.9" height="2.2"/><rect x="-265.5" y="-196.4" width="2.6" height="2.2"/><rect x="-261.7" y="-196.4" width="2.9" height="2.2"/><rect x="-241.5" y="-196.4" width="2.6" height="2.2"/><rect x="-245.6" y="-196.4" width="2.9" height="2.2"/><rect x="-249.7" y="-196.4" width="2.9" height="2.2"/><rect x="-253.5" y="-196.4" width="2.7" height="2.2"/><rect x="-257.6" y="-196.4" width="2.9" height="2.2"/><rect x="-229.5" y="-196.4" width="2.6" height="2.2"/><rect x="-233.6" y="-196.4" width="2.9" height="2.2"/><rect x="-237.7" y="-196.4" width="2.9" height="2.2"/><rect x="-289.5" y="-200.4" width="2.6" height="2.2"/><rect x="-285.7" y="-200.4" width="2.9" height="2.2"/><rect x="-281.6" y="-200.4" width="2.9" height="2.2"/><rect x="-277.5" y="-200.4" width="2.7" height="2.2"/><rect x="-273.7" y="-200.4" width="2.9" height="2.2"/><rect x="-269.6" y="-200.4" width="2.9" height="2.2"/><rect x="-265.5" y="-200.4" width="2.6" height="2.2"/><rect x="-261.7" y="-200.4" width="2.9" height="2.2"/><rect x="-241.5" y="-200.4" width="2.6" height="2.2"/><rect x="-245.6" y="-200.4" width="2.9" height="2.2"/><rect x="-249.7" y="-200.4" width="2.9" height="2.2"/><rect x="-253.5" y="-200.4" width="2.7" height="2.2"/><rect x="-257.6" y="-200.4" width="2.9" height="2.2"/><rect x="-229.5" y="-200.4" width="2.6" height="2.2"/><rect x="-233.6" y="-200.4" width="2.9" height="2.2"/><rect x="-237.7" y="-200.4" width="2.9" height="2.2"/><rect x="-289.5" y="-204.5" width="2.6" height="2.2"/><rect x="-285.7" y="-204.5" width="2.9" height="2.2"/><rect x="-281.6" y="-204.5" width="2.9" height="2.2"/><rect x="-277.5" y="-204.5" width="2.7" height="2.2"/><rect x="-273.7" y="-204.5" width="2.9" height="2.2"/><rect x="-269.6" y="-204.5" width="2.9" height="2.2"/><rect x="-265.5" y="-204.5" width="2.6" height="2.2"/><rect x="-261.7" y="-204.5" width="2.9" height="2.2"/><rect x="-241.5" y="-204.5" width="2.6" height="2.2"/><rect x="-245.6" y="-204.5" width="2.9" height="2.2"/><rect x="-249.7" y="-204.5" width="2.9" height="2.2"/><rect x="-253.5" y="-204.5" width="2.7" height="2.2"/><rect x="-257.6" y="-204.5" width="2.9" height="2.2"/><rect x="-229.5" y="-204.5" width="2.6" height="2.2"/><rect x="-233.6" y="-204.5" width="2.9" height="2.2"/><rect x="-237.7" y="-204.5" width="2.9" height="2.2"/><path d="m-197.6-165.5v-19h-1.2v.9h-3.8v-1h-6v1h-4.1v-.9h-.9v1.9l-3.1 1.9h-7v-25h1v-6h-1v-1h-13v-1h-3.1v1h-16.8v-6h-2.2v-4.1h5v-3.1h-6v7.4h-1.9v6h-17v-1h-3.1v1h-10.8l-1 1v6.3h1v-4.1h.9v3.1h1v-3.1h1v3.1h1.2v-3.1h.7v3.1h1.2v-3.1h.7v3.1h1.2v-3.1h1v3.1h1.2v-3.1h.7v3.1h1.2v-3.1h.7v3.1h1.2v-3.1h1v3.1h1.2v-3.1h.7v3.1h1.2v-3.1h.7v3.1h1.2v-3.1h1v3.1h1.2v-3.1h.7v3.1h1.2v-3.1h.7v3.1h1.2v-3.1h1v3.1h1.2v-3.1h.7v3.1h1.2v-3.1h.7v3.1h1.2v-3.1h1v3.1h1.2v-3.1h.7v3.1h1.2v-3.1h.7v3.1h1.2v-3.1h.9v3.1h1.2v-3.1h.7v3.1h1.2v-3.1h.7v3.1h1.2v-3.1h1v3.1h1.2v-3.1h.7v3.1h1.2v-3.1h.8v3.1h1.2v-3.1h1v3.1h1.2v-3.1h.7v3.1h1.2v-3.1h.7v3.1h1.2v-3.1h.9v3.1h1.2v-3.1h.7v3.1h1.1v-3.1h.8v3.1h1.2v-3.1h1v3.1h1.2v-3.1h.7v3.1h1.2v-3.1h.7v3.1h1.2v-3.1h1v3.8h-.9v25.2h-2.2v-2.1h-2.6v2.1h-1.2v-2.1h-2.9v2.1h-1.2v-2.1h-2.9v2.1h-1.2v-2.1h-2.6v2.1h-1.2v-2.1h-2.9v2.1h-1.2v-2.1h-2.9v2.1h-1.2v-2.1h-2.6v2.1h-1.2v-2.1h-2.9v2.1h-1.2v-2.1h-2.9v2.1h-1.2v-2.1h-2.6v2.1h-1.2v-2.1h-2.9v2.1h-1.2v-2.1h-2.9v2.1h-1.2v-2.1h-2.6v2.1h-1.2v-2.1h-2.9v2.1h-1.2v-2.1h-2.9v2.1h-1.2v-2.1h-2.6v2.1h-2.2v-25.1h-.9l-.1 25.1h-6.2l-3-3.1v-1h-.9v.9h-4.1v-.9h-6v1h-3.8v-.9h-1.2v19h-7v1.9h132v-1.9l-4.7-.2zm-93.1-44.7h-1.2v-1.3h1.2v1.3zm2.1 0h-1.2v-1.3h1.2v1.3zm2 0h-1.2v-1.3h1.2v1.3zm1.9 0h-1.2v-1.3h1.2v1.3zm2.1 0h-1.2v-1.3h1.2v1.3zm2 0h-1.2v-1.3h1.2v1.3zm1.9 0h-1.2v-1.3h1.2v1.3zm2.1 0h-1.2v-1.3h1.2v1.3zm.8 0v-1.3h1.2v1.3h-1.2zm3.1 0h-1.2v-1.3h1.2v1.3zm2.1 0h-1.2v-1.3h1.2v1.3zm.8 0v-1.3h1.2v1.3h-1.2zm1.9 0v-1.3h1.2v1.3h-1.2zm3.3 0h-1.2v-1.3h1.2v1.3zm1.9 0h-1.2v-1.3h1.2v1.3zm2 0h-1.2v-1.3h1.2v1.3zm2.1 0h-1.2v-1.3h1.2v1.3zm-2.1-3.2v-1.2h2.9v1.2h-2.9zm4 3.2h-1.2v-1.3h1.2v1.3zm.8 0v-1.3h1.2v1.3h-1.2zm3.3 0h-1.2v-1.3h1.2v1.3zm1.9 0h-1.2v-1.3h1.2v1.3zm2 0h-1.2v-1.3h1.2v1.3zm2.1 0h-1.2v-1.3h1.2v1.3zm1.9 0h-1.2v-1.3h1.2v1.3zm2 0h-1.2v-1.3h1.2v1.3zm2.1 0h-1.2v-1.3h1.2v1.3zm1.9 0h-1.2v-1.3h1.2v1.3zm2 0h-1.2v-1.3h1.2v1.3zm2.1 0h-1.2v-1.3h1.2v1.3zm1.9 0h-1.2v-1.3h1.2v1.3zm2 0h-1.2v-1.3h1.2v1.3zm2.1 0h-1.2v-1.3h1.2v1.3zm1.9 0h-1.2v-1.3h1.2v1.3zm2 0h-1.2v-1.3h1.2v1.3zm-79.9 44.7v-13.9h-1v13.9h-2.2v-15.1h.9v-.9h-6v1h1.2v15.1h-2.1v-13.9h-1v13.9h-1.8v-17h13.9v17l-1.9-.1zm87.8 0h-81.8v-13.9h81.8v13.9zm16.1 0v-13.9h-1.2v13.9h-1.9v-15.1h1.2v-1h-6v1h1v15.1h-1.9v-13.9h-1.3v13.9h-1.9v-17h13.9v17h-1.9z"/><path d="m-324.6-153.2h8.5v10.7h-2.1v-8.9h-4.2v8.9h-2.2v-10.7z"/><path d="m-313.8-142.4v-10.8h3.5c1.3 0 2.2 .1 2.6 .2 .6 .2 1.1 .5 1.5 1.1 .4 .5 .6 1.2 .6 2.1 0 .7-.1 1.2-.4 1.7-.3 .5-.5 .8-.9 1.1-.4 .3-.7 .4-1.1 .5-.5 .1-1.3 .2-2.2 .2h-1.4v4.1h-2.2zm2.1-8.9v3h1.2c.9 0 1.4-.1 1.7-.2 .3-.1 .5-.3 .7-.5 .2-.2 .2-.5 .2-.8 0-.4-.1-.7-.3-1-.2-.3-.5-.4-.9-.5-.3 0-.8-.1-1.6-.1h-1z"/><path d="m-295.5-142.4h-2.3l-1-2.5h-4.3l-.9 2.4h-2.3l4.2-10.7h2.3l4.3 10.8zm-3.9-4.3l-1.5-4-1.5 4h3z"/><path d="m-294.3-153.2h4.3c.8 0 1.5 0 1.9 .1 .4 .1 .8 .2 1.1 .4 .3 .2 .6 .5 .8 .9 .2 .4 .3 .8 .3 1.3s-.1 1-.4 1.4c-.3 .4-.6 .7-1.1 .9 .7 .2 1.2 .5 1.5 1 .3 .5 .5 1 .5 1.6 0 .5-.1 1-.3 1.4-.2 .5-.5 .8-.9 1.1-.4 .3-.9 .4-1.5 .5-.4 0-1.2 .1-2.6 .1h-3.7v-10.7zm2.2 1.8v2.5h3c.4 0 .7-.2 .9-.4 .2-.2 .3-.5 .3-.8 0-.3-.1-.6-.3-.8-.2-.2-.5-.3-.8-.4h-3.0999999999999996zm0 4.3v2.9h2c.8 0 1.3 0 1.5-.1 .3-.1 .6-.2 .8-.4 .2-.2 .3-.5 .3-.9 0-.3-.1-.6-.2-.8-.1-.2-.4-.4-.7-.5-.3-.1-.9-.2-1.9-.2h-1.8z"/><path d="m-283.4-153.2h2v7.1l4.4-7.1h2.2v10.7h-2v-7l-4.3 7h-2.2v-10.7z"/><path d="m-270.3-142.4v-8.9h-3.2v-1.8h8.5v1.8h-3.2v8.9h-2.1z"/><path d="m-263.5-142.4v-10.8h8v1.8h-5.8v2.4h5.4v1.8h-5.4v2.9h6v1.8h-8.2z"/><path d="m-252.8-153.2h7.5v10.7h-2.2v-8.9h-3.2v4.6c0 1.3 0 2.2-.1 2.8-.1 .5-.3 .9-.6 1.2-.3 .3-.9 .4-1.6 .4-.3 0-.7 0-1.4-.1v-1.7h.5c.5 0 .8-.1 .9-.2 .1-.1 .2-.4 .2-.9v-7.8999999999999995z"/><path d="m-243-153.2h2.2v4.3h2.9c1.4 0 2.4 .3 3 1 .6 .6 .9 1.4 .9 2.3 0 .7-.2 1.4-.6 1.9-.4 .5-.8 .9-1.3 1-.5 .2-1.2 .3-2.1 .3h-5.1v-10.8zm2.2 9h2.1c.7 0 1.2 0 1.4-.1 .3-.1 .5-.2 .7-.5 .2-.2 .3-.5 .3-.9 0-.5-.2-.9-.5-1.1-.4-.2-1-.3-1.8-.3h-2.2v2.9z"/><path d="m-225.7-146.4l2.1 .7c-.3 1.2-.9 2-1.6 2.6-.8 .6-1.7 .9-2.9 .9-1.4 0-2.6-.5-3.5-1.5-.9-1-1.4-2.3-1.4-4 0-1.8 .5-3.2 1.4-4.2 .9-1 2.1-1.5 3.6-1.5 1.3 0 2.4 .4 3.2 1.2 .5 .5 .9 1.1 1.1 2l-2.1 .5c-.1-.6-.4-1-.8-1.3-.4-.3-.9-.5-1.5-.5-.8 0-1.4 .3-1.9 .9-.5 .6-.7 1.5-.7 2.8 0 1.4 .2 2.3 .7 2.9 .5 .6 1.1 .9 1.9 .9 .6 0 1.1-.2 1.5-.5 .4-.5 .7-1.1 .9-1.9z"/><path d="m-219.7-142.4v-8.9h-3.2v-1.8h8.5v1.8h-3.2v8.9h-2.1z"/><path d="m-213-153.2h4.3c.8 0 1.5 0 1.9 .1 .4 .1 .8 .2 1.1 .4 .3 .2 .6 .5 .8 .9 .2 .4 .3 .8 .3 1.3s-.1 1-.4 1.4c-.3 .4-.6 .7-1.1 .9 .7 .2 1.2 .5 1.5 1 .3 .5 .5 1 .5 1.6 0 .5-.1 1-.3 1.4-.2 .5-.5 .8-.9 1.1-.4 .3-.9 .4-1.5 .5-.4 0-1.2 .1-2.6 .1h-3.7v-10.7zm2.2 1.8v2.5h3c.4 0 .7-.2 .9-.4 .2-.2 .3-.5 .3-.8 0-.3-.1-.6-.3-.8-.2-.2-.5-.3-.8-.4h-3.0999999999999996zm0 4.3v2.9h2c.8 0 1.3 0 1.5-.1 .3-.1 .6-.2 .8-.4 .2-.2 .3-.5 .3-.9 0-.3-.1-.6-.2-.8-.1-.2-.4-.4-.7-.5-.3-.1-.9-.2-1.9-.2h-1.8z"/><path d="m-202.9-147.7c0-1.1 .2-2 .5-2.8 .2-.5 .6-1 1-1.5 .4-.4 .9-.8 1.4-1 .7-.3 1.4-.4 2.3-.4 1.6 0 2.8 .5 3.8 1.5 .9 1 1.4 2.3 1.4 4.1 0 1.7-.5 3.1-1.4 4.1-.9 1-2.2 1.5-3.8 1.5-1.6 0-2.9-.5-3.8-1.5-1-1-1.4-2.3-1.4-4zm2.2-.1c0 1.2 .3 2.1 .8 2.8 .6 .6 1.3 .9 2.1 .9 .9 0 1.6-.3 2.1-.9 .6-.6 .8-1.6 .8-2.8 0-1.2-.3-2.1-.8-2.8-.5-.6-1.3-.9-2.1-.9-.9 0-1.6 .3-2.2 .9-.4 .6-.7 1.6-.7 2.8z"/><path d="m-312.3-126.9v-10.8h3.5c1.3 0 2.2 .1 2.6 .2 .6 .2 1.1 .5 1.5 1.1 .4 .5 .6 1.2 .6 2.1 0 .7-.1 1.2-.4 1.7-.3 .5-.5 .8-.9 1.1-.4 .3-.7 .4-1.1 .5-.5 .1-1.3 .2-2.2 .2h-1.4v3.9h-2.2zm2.2-8.9v3h1.2c.9 0 1.4-.1 1.7-.2 .3-.1 .5-.3 .7-.5 .2-.2 .2-.5 .2-.8 0-.4-.1-.7-.3-1-.2-.3-.5-.4-.9-.5-.3 0-.8-.1-1.6-.1h-1z"/><path d="m-302.7-132.2c0-1.1 .2-2 .5-2.8 .2-.5 .6-1 1-1.5 .4-.4 .9-.8 1.4-1 .7-.3 1.4-.4 2.3-.4 1.6 0 2.8 .5 3.8 1.5 .9 1 1.4 2.3 1.4 4.1 0 1.7-.5 3.1-1.4 4.1-.9 1-2.2 1.5-3.8 1.5-1.6 0-2.9-.5-3.8-1.5-.9-1-1.4-2.3-1.4-4zm2.2-.1c0 1.2 .3 2.1 .8 2.8 .6 .6 1.3 .9 2.1 .9 .9 0 1.6-.3 2.1-.9 .6-.6 .8-1.6 .8-2.8 0-1.2-.3-2.1-.8-2.8-.5-.6-1.3-.9-2.1-.9-.9 0-1.6 .3-2.2 .9-.4 .6-.7 1.6-.7 2.8z"/><path d="m-283.5-130.9l2.1 .7c-.3 1.2-.9 2-1.6 2.6-.8 .6-1.7 .9-2.9 .9-1.4 0-2.6-.5-3.5-1.5-.9-1-1.4-2.3-1.4-4 0-1.8 .5-3.2 1.4-4.2 .9-1 2.1-1.5 3.6-1.5 1.3 0 2.4 .4 3.2 1.2 .5 .5 .9 1.1 1.1 2l-2.1 .5c-.1-.6-.4-1-.8-1.3-.4-.3-.9-.5-1.5-.5-.8 0-1.4 .3-1.9 .9-.5 .6-.7 1.5-.7 2.8 0 1.4 .2 2.3 .7 2.9 .5 .6 1.1 .9 1.9 .9 .6 0 1.1-.2 1.5-.5 .4-.5 .7-1.1 .9-1.9z"/><path d="m-272.5-130.9l2.1 .7c-.3 1.2-.9 2-1.6 2.6-.8 .6-1.7 .9-2.9 .9-1.4 0-2.6-.5-3.5-1.5-.9-1-1.4-2.3-1.4-4 0-1.8 .5-3.2 1.4-4.2 .9-1 2.1-1.5 3.6-1.5 1.3 0 2.4 .4 3.2 1.2 .5 .5 .9 1.1 1.1 2l-2.1 .5c-.1-.6-.4-1-.8-1.3-.4-.3-.9-.5-1.5-.5-.8 0-1.4 .3-1.9 .9-.5 .6-.7 1.5-.7 2.8 0 1.4 .2 2.3 .7 2.9 .5 .6 1.1 .9 1.9 .9 .6 0 1.1-.2 1.5-.5 .5-.5 .8-1.1 .9-1.9z"/><path d="m-268.2-137.7h2v7.1l4.4-7.1h2.2v10.8h-2v-7l-4.3 7h-2.2v-10.8z"/><path d="m-257.2-137.7h2v7.1l4.4-7.1h2.2v10.8h-2v-7l-4.3 7h-2.2v-10.8zm5.5-2.6h1c-.1 .7-.3 1.2-.7 1.6-.4 .4-.9 .6-1.6 .6-.7 0-1.2-.2-1.6-.6-.4-.4-.6-.9-.7-1.6h1c0 .3 .2 .6 .4 .8 .2 .2 .5 .3 .9 .3s.7-.1 .9-.3c.3-.2 .4-.5 .4-.8z"/><path d="m-239.4-130.9l2.1 .7c-.3 1.2-.9 2-1.6 2.6-.8 .6-1.7 .9-2.9 .9-1.4 0-2.6-.5-3.5-1.5-.9-1-1.4-2.3-1.4-4 0-1.8 .5-3.2 1.4-4.2 .9-1 2.1-1.5 3.6-1.5 1.3 0 2.4 .4 3.2 1.2 .5 .5 .9 1.1 1.1 2l-2.1 .5c-.1-.6-.4-1-.8-1.3-.4-.3-.9-.5-1.5-.5-.8 0-1.4 .3-1.9 .9-.5 .6-.7 1.5-.7 2.8 0 1.4 .2 2.3 .7 2.9 .5 .6 1.1 .9 1.9 .9 .6 0 1.1-.2 1.5-.5 .4-.5 .7-1.1 .9-1.9z"/><path d="m-235.2-137.7h2.2v4.6c.5 0 .8-.2 1-.4 .2-.2 .4-.8 .8-1.7 .4-1.2 .9-1.9 1.4-2.2 .4-.3 1.2-.4 2.2-.4h.3v1.6h-.3c-.4 0-.8 .1-1 .2-.2 .1-.4 .3-.5 .5-.1 .2-.3 .7-.6 1.4-.1 .4-.3 .7-.4 .9-.2 .2-.4 .5-.8 .7 .5 .1 .9 .4 1.2 .8 .3 .4 .7 1 1 1.8l1.5 2.9h-2.6l-1.3-2.8s-.1-.1-.1-.2c0 0-.1-.2-.3-.5-.3-.5-.5-.9-.7-1-.2-.1-.5-.2-.8-.2v4.8h-2.2v-10.8z"/><path d="m-226.3-132.2c0-1.1 .2-2 .5-2.8 .2-.5 .6-1 1-1.5 .4-.4 .9-.8 1.4-1 .7-.3 1.4-.4 2.3-.4 1.6 0 2.8 .5 3.8 1.5 .9 1 1.4 2.3 1.4 4.1 0 1.7-.5 3.1-1.4 4.1-.9 1-2.2 1.5-3.8 1.5-1.6 0-2.9-.5-3.8-1.5-.9-1-1.4-2.3-1.4-4zm2.3-.1c0 1.2 .3 2.1 .8 2.8 .6 .6 1.3 .9 2.1 .9 .9 0 1.6-.3 2.1-.9 .6-.6 .8-1.6 .8-2.8 0-1.2-.3-2.1-.8-2.8-.5-.6-1.3-.9-2.1-.9-.9 0-1.6 .3-2.2 .9-.4 .6-.7 1.6-.7 2.8z"/><path d="m-213.9-137.7h2v7.1l4.4-7.1h2.2v10.8h-2v-7l-4.3 7h-2.2v-10.8zm5.6-2.6h1c-.1 .7-.3 1.2-.7 1.6-.4 .4-.9 .6-1.6 .6-.7 0-1.2-.2-1.6-.6-.4-.4-.6-.9-.7-1.6h1c0 .3 .2 .6 .4 .8 .2 .2 .5 .3 .9 .3s.7-.1 .9-.3c.2-.2 .3-.5 .4-.8z"/><path d="m-300-112.7v1.3h-2.1v-1.3c-1.7-.1-2.9-.5-3.6-1.3-.7-.8-1.1-1.8-1.1-2.9 0-1.2 .4-2.2 1.1-3 .7-.8 1.9-1.2 3.6-1.2v-1.1h2.1v1.1c1.7 .1 2.9 .5 3.6 1.3 .7 .8 1.1 1.8 1.1 3s-.4 2.2-1.1 2.9c-.7 .7-1.9 1.2-3.6 1.2zm-2.1-1.8v-4.8c-.9 0-1.6 .2-2 .6-.4 .4-.6 1-.6 1.8 0 1.6 .8 2.4 2.6 2.4zm2.1 0c.6 0 1.1-.1 1.5-.3 .4-.2 .7-.4 .9-.8 .2-.3 .3-.8 .3-1.4 0-1.6-.9-2.3-2.6-2.3v4.8z"/><path d="m-293.4-111.4v-10.7h8v1.8h-5.8v2.4h5.4v1.8h-5.4v2.9h6v1.8h-8.2z"/><path d="m-282.3-122.2h7.4v8.9h.9v4.1h-1.8v-2.3h-6.8v2.3h-1.8v-4.1h.9c.4-.9 .7-2 .9-3.2 .1-1.2 .2-2.7 .2-4.6v-1.1zm2.1 1.8c0 3.3-.3 5.6-.9 7.1h4.1v-7.1h-3.2z"/><path d="m-272.2-111.4v-10.7h8v1.8h-5.8v2.4h5.4v1.8h-5.4v2.9h6v1.8h-8.2z"/><path d="m-262-111.4v-10.7h3.5c1.3 0 2.2 .1 2.6 .2 .6 .2 1.1 .5 1.5 1.1 .4 .5 .6 1.2 .6 2.1 0 .7-.1 1.2-.4 1.7-.3 .5-.5 .8-.9 1.1-.4 .3-.7 .4-1.1 .5-.5 .1-1.3 .2-2.2 .2h-1.4v4.1h-2.2zm2.2-8.9v3h1.2c.9 0 1.4-.1 1.7-.2 .3-.1 .5-.3 .7-.5 .2-.2 .2-.5 .2-.8 0-.4-.1-.7-.3-1-.2-.3-.5-.4-.9-.5-.3 0-.8-.1-1.6-.1h-1z"/><path d="m-243.4-111.4h-2.4l-.9-2.4h-4.3l-.9 2.4h-2.3l4.2-10.7h2.3l4.3 10.7zm-4-4.3l-1.5-4-1.5 4h3z"/><path d="m-242-122.2h2.2v8.9h4.2v-8.9h2.2v8.9h.9v4.1h-1.8v-2.3h-7.6v-10.7z"/><path d="m-230.8-122.2h2v7.1l4.4-7.1h2.2v10.7h-2v-7l-4.3 7h-2.3v-10.7z"/><path d="m-219.8-122.2h2v7.1l4.4-7.1h2.2v10.7h-2v-7l-4.3 7h-2.3v-10.7z"/></svg>