<?xml version="1.0" encoding="UTF-8" standalone="no"?>
<!-- Created with Inkscape (http://www.inkscape.org/) -->
<svg
   xmlns:dc="http://purl.org/dc/elements/1.1/"
   xmlns:cc="http://web.resource.org/cc/"
   xmlns:rdf="http://www.w3.org/1999/02/22-rdf-syntax-ns#"
   xmlns:svg="http://www.w3.org/2000/svg"
   xmlns="http://www.w3.org/2000/svg"
   xmlns:sodipodi="http://sodipodi.sourceforge.net/DTD/sodipodi-0.dtd"
   xmlns:inkscape="http://www.inkscape.org/namespaces/inkscape"
   width="499.99622"
   height="533.52185"
   id="svg1901"
   sodipodi:version="0.32"
   inkscape:version="0.45.1"
   sodipodi:docname="Hämeenlinna.vaakuna.svg"
   sodipodi:docbase="D:\Eigene Datein\AR\wp\Kuwat\SVG muokkaus\Valmiit"
   inkscape:output_extension="org.inkscape.output.svg.inkscape"
   version="1.0">
  <defs
     id="defs1903" />
  <sodipodi:namedview
     id="base"
     pagecolor="#ffffff"
     bordercolor="#666666"
     borderopacity="1.0"
     inkscape:pageopacity="0.0"
     inkscape:pageshadow="2"
     inkscape:zoom="0.78868867"
     inkscape:cx="654.97038"
     inkscape:cy="413.02455"
     inkscape:document-units="px"
     inkscape:current-layer="layer1"
     gridtolerance="10000"
     inkscape:window-width="1680"
     inkscape:window-height="950"
     inkscape:window-x="0"
     inkscape:window-y="35"
     showgrid="false"
     showguides="true"
     inkscape:guide-bbox="true" />
  <metadata
     id="metadata1906">
    <rdf:RDF>
      <cc:Work
         rdf:about="">
        <dc:format>image/svg+xml</dc:format>
        <dc:type
           rdf:resource="http://purl.org/dc/dcmitype/StillImage" />
      </cc:Work>
    </rdf:RDF>
  </metadata>
  <g
     inkscape:label="Taso 1"
     inkscape:groupmode="layer"
     id="layer1"
     style="opacity:1"
     transform="translate(-1994.4549,-204.37152)">
    <rect
       style="opacity:1;fill:#00ff00;fill-opacity:0.49803922;stroke:#00ff00;stroke-width:3;stroke-miterlimit:4;stroke-dasharray:none;stroke-dashoffset:0;stroke-opacity:0.49803922"
       id="rect2200"
       width="17.142857"
       height="0"
       x="-402.85715"
       y="792.36218"
       ry="0" />
    <path
       style="fill:#df0000;fill-opacity:1"
       d="M 1994.4549,204.37152 L 1997.4719,249.7101 C 1999.1308,274.64632 2002.8372,343.57322 2005.706,402.88099 C 2008.5748,462.18876 2013.2559,525.74762 2016.1124,544.13241 C 2030.1316,634.36339 2103.481,712.908 2193.0108,733.56303 C 2206.094,736.58141 2225.0874,737.98269 2244.4484,737.88894 C 2263.8116,737.98305 2282.8106,736.58174 2295.8952,733.56303 C 2385.425,712.908 2458.7745,634.36339 2472.7937,544.13241 C 2475.6502,525.74762 2480.3312,462.18876 2483.2,402.88099 C 2486.0689,343.57322 2489.7752,274.64632 2491.4341,249.7101 L 2494.4511,204.37152 L 1994.4549,204.37152 z "
       id="path2252"
       sodipodi:nodetypes="ccscccccsccc" />
    <path
       style="fill:#000000;fill-opacity:1;stroke:none;stroke-width:3;stroke-miterlimit:4;stroke-dasharray:none;stroke-dashoffset:0;stroke-opacity:1"
       d="M 2020.0205,522.55852 C 2020.8338,531.1249 2021.5974,537.91454 2022.2578,542.16439 C 2029.0517,585.89164 2050.1617,626.80123 2080.407,659.33548 C 2089.602,651.68643 2098.5509,643.7956 2115.3949,643.7956 C 2148.0714,643.7956 2148.0714,673.50147 2180.7479,673.50147 C 2213.4243,673.50147 2216.3949,643.7956 2249.0714,643.7956 C 2281.7478,643.7956 2278.7772,673.50147 2314.4243,673.50147 C 2350.0713,673.50147 2350.0713,643.7956 2382.7478,643.7956 C 2396.7844,643.7956 2404.7855,649.27577 2411.9431,655.52942 C 2440.3386,623.63628 2460.1162,584.20647 2466.6483,542.16439 C 2467.3086,537.91454 2468.0723,531.1249 2468.8855,522.55852 L 2020.0205,522.55852 z "
       id="rect2356" />
    <path
       style="fill:#000000;fill-opacity:1;stroke:none;stroke-width:3;stroke-miterlimit:4;stroke-dashoffset:0;stroke-opacity:1"
       d="M 2167.543,451.128 L 2326.7804,451.128 L 2326.7804,517.11747 L 2167.543,517.11747 L 2167.543,451.128 z "
       id="rect5483"
       sodipodi:nodetypes="ccccc" />
    <path
       style="fill:#000000;fill-opacity:1;stroke:none;stroke-width:3;stroke-miterlimit:4;stroke-dashoffset:0;stroke-opacity:1"
       d="M 2322.4873,395.11122 L 2171.4117,395.11122 L 2149.7689,451.12801 L 2344.1301,451.12801 L 2322.4873,395.11122 z "
       id="rect5449"
       sodipodi:nodetypes="ccccc" />
    <path
       style="fill:#dfdfdf;fill-opacity:1;stroke:none;stroke-width:3;stroke-miterlimit:4;stroke-dashoffset:0;stroke-opacity:1"
       d="M 2171.4091,395.11105 L 2151.2462,447.30984 L 2338.4118,447.30984 L 2318.2396,395.11105 L 2171.4091,395.11105 z "
       id="path5452" />
    <rect
       style="fill:#dfdfdf;fill-opacity:1;stroke:none;stroke-width:3;stroke-miterlimit:4;stroke-dasharray:none;stroke-dashoffset:0;stroke-opacity:1"
       id="rect5481"
       width="154.35722"
       height="62.594509"
       x="2167.543"
       y="451.12799" />
    <path
       id="path5471"
       style="fill:#000000;fill-opacity:1;stroke:none;stroke-width:3;stroke-miterlimit:4;stroke-dashoffset:0;stroke-opacity:1"
       d="M 2244.3717,455.9088 C 2236.97,455.9088 2230.9667,460.36893 2230.9667,465.86441 L 2230.9667,489.00945 L 2257.7922,489.00945 L 2257.7922,465.86441 L 2257.7845,465.86441 C 2257.7845,460.36893 2251.7734,455.9088 2244.3717,455.9088 z M 2298.1394,455.9088 C 2290.7376,455.9088 2284.7343,460.36893 2284.7343,465.86441 L 2284.7343,489.00945 L 2311.5598,489.00945 L 2311.5598,465.86441 L 2311.5521,465.86441 C 2311.5521,460.36893 2305.541,455.9088 2298.1394,455.9088 z M 2190.6041,455.9088 C 2183.2024,455.9088 2177.1991,460.36893 2177.1991,465.86441 L 2177.1991,489.00945 L 2204.0245,489.00945 L 2204.0245,465.86441 L 2204.0169,465.86441 C 2204.0168,460.36893 2198.0058,455.9088 2190.6041,455.9088 z " />
    <path
       style="fill:#dfdfdf;fill-opacity:1;stroke:none;stroke-width:3;stroke-miterlimit:4;stroke-dashoffset:0;stroke-opacity:1"
       d="M 2085.8098,219.92068 L 2078.3183,245.90404 C 2071.0194,248.46571 2065.9996,253.74539 2065.9997,259.84723 C 2065.9997,263.72385 2068.0271,267.26694 2071.3746,269.99364 L 2008.6766,351.65693 L 2032.5898,351.59195 L 2032.5898,513.93851 L 2139.5867,513.93851 L 2139.5867,351.28561 L 2156.7789,351.2392 L 2099.753,269.99364 C 2104.0317,267.62027 2106.7802,263.96265 2106.7802,259.84723 C 2106.7802,253.87336 2100.995,248.83777 2093.1341,247.34292 L 2094.2017,247.34292 L 2085.8098,219.92068 z "
       id="path5281"
       sodipodi:nodetypes="ccsccccccccsccc" />
    <path
       style="fill:#000000;fill-opacity:1;stroke:none;stroke-width:3;stroke-miterlimit:4;stroke-dashoffset:0;stroke-opacity:1"
       d="M 2087.5364,213.766 L 2085.8098,219.92068 L 2094.2017,247.34292 L 2093.1341,247.34292 C 2100.995,248.83777 2106.7802,253.87336 2106.7802,259.84723 C 2106.7802,263.96265 2104.0316,267.62027 2099.753,269.99364 L 2153.8455,347.61879 L 2011.7772,347.61879 L 2008.6766,351.65693 L 2139.5867,351.65693 L 2139.5867,513.83996 L 2032.5898,513.83996 L 2032.5898,517.74988 L 2144.7295,517.74988 L 2144.7295,351.65693 L 2156.6583,351.65693 L 2156.6675,351.66622 L 2161.2812,351.66622 L 2105.2021,269.97507 C 2108.5377,267.24843 2110.5584,263.71574 2110.5585,259.84723 C 2110.5584,253.35831 2104.8882,247.78829 2096.8288,245.43988 L 2087.5364,213.766 z "
       id="path5321"
       sodipodi:nodetypes="ccccsccccccccccccccscc" />
    <path
       style="fill:#000000;fill-opacity:1;stroke:none;stroke-width:3;stroke-miterlimit:4;stroke-dasharray:none;stroke-dashoffset:0;stroke-opacity:1"
       d="M 2084.8072,365.92503 C 2075.8833,365.92503 2068.6453,371.30242 2068.6453,377.92806 L 2068.6453,405.83301 L 2100.9876,405.83301 L 2100.9876,377.92806 L 2100.9783,377.92806 C 2100.9783,371.30242 2093.7311,365.92503 2084.8072,365.92503 z "
       id="path5465" />
    <path
       sodipodi:nodetypes="ccsccccccccsccc"
       id="path5493"
       d="M 2402.1773,219.92068 L 2394.6858,245.90404 C 2387.3869,248.46571 2382.3672,253.74539 2382.3672,259.84723 C 2382.3672,263.72385 2384.3946,267.26694 2387.7421,269.99364 L 2325.0441,351.65693 L 2348.9573,351.59195 L 2348.9573,513.93851 L 2455.9542,513.93851 L 2455.9542,351.28561 L 2473.1465,351.2392 L 2416.1205,269.99364 C 2420.3992,267.62027 2423.1478,263.96265 2423.1478,259.84723 C 2423.1478,253.87336 2417.3625,248.83777 2409.5016,247.34292 L 2410.5692,247.34292 L 2402.1773,219.92068 z "
       style="fill:#dfdfdf;fill-opacity:1;stroke:none;stroke-width:3;stroke-miterlimit:4;stroke-dashoffset:0;stroke-opacity:1" />
    <path
       sodipodi:nodetypes="ccccsccccccccccccccscc"
       id="path5495"
       d="M 2403.9039,213.766 L 2402.1773,219.92068 L 2410.5692,247.34292 L 2409.5016,247.34292 C 2417.3625,248.83777 2423.1478,253.87336 2423.1478,259.84723 C 2423.1478,263.96265 2420.3992,267.62027 2416.1205,269.99364 L 2470.213,347.61879 L 2328.1447,347.61879 L 2325.0441,351.65693 L 2455.9542,351.65693 L 2455.9542,513.83996 L 2348.9573,513.83996 L 2348.9573,517.74988 L 2461.097,517.74988 L 2461.097,351.65693 L 2473.0258,351.65693 L 2473.0351,351.66622 L 2477.6488,351.66622 L 2421.5696,269.97507 C 2424.9052,267.24843 2426.926,263.71574 2426.926,259.84723 C 2426.926,253.35831 2421.2558,247.78829 2413.1963,245.43988 L 2403.9039,213.766 z "
       style="fill:#000000;fill-opacity:1;stroke:none;stroke-width:3;stroke-miterlimit:4;stroke-dashoffset:0;stroke-opacity:1" />
    <path
       id="path5497"
       d="M 2401.1747,365.92503 C 2392.2508,365.92503 2385.0128,371.30242 2385.0128,377.92806 L 2385.0128,405.83301 L 2417.3551,405.83301 L 2417.3551,377.92806 L 2417.3458,377.92806 C 2417.3458,371.30242 2410.0986,365.92503 2401.1747,365.92503 z "
       style="fill:#000000;fill-opacity:1;stroke:none;stroke-width:3;stroke-miterlimit:4;stroke-dasharray:none;stroke-dashoffset:0;stroke-opacity:1" />
    <path
       style="fill:#dfdfdf;fill-opacity:1;fill-rule:evenodd;stroke:none;stroke-width:20;stroke-linecap:butt;stroke-linejoin:miter;stroke-miterlimit:4;stroke-dasharray:none;stroke-opacity:1"
       d="M 2115.3949,640.82501 C 2098.1565,640.82501 2088.2419,648.93843 2079.3302,656.3649 C 2079.0179,656.62518 2078.7121,656.88635 2078.4019,657.14467 C 2079.7322,658.61179 2081.0734,660.06461 2082.44,661.49846 C 2082.671,661.30635 2082.9066,661.11421 2083.1362,660.9229 C 2092.048,653.49644 2099.9569,646.76619 2115.3949,646.76619 C 2130.833,646.76619 2137.9064,653.41287 2146.0756,660.83934 C 2154.2447,668.26581 2163.5095,676.47206 2180.7479,676.47206 C 2197.9863,676.47206 2207.9009,668.34934 2216.8127,660.9229 C 2225.7244,653.49641 2233.6333,646.76619 2249.0714,646.76619 C 2264.5094,646.76619 2270.7503,653.33395 2278.5823,660.79294 C 2286.4142,668.25188 2295.7756,676.47206 2314.4243,676.47206 C 2333.073,676.47206 2343.0768,668.34016 2351.6494,660.88577 C 2360.2221,653.43132 2367.3097,646.76619 2382.7478,646.76619 C 2395.984,646.76619 2403.074,651.65527 2409.9751,657.72952 C 2411.3032,656.2745 2412.6197,654.80715 2413.9111,653.32004 C 2406.5039,646.89573 2397.5794,640.82501 2382.7478,640.82501 C 2365.5094,640.82501 2356.2588,649.00354 2347.7505,656.40203 C 2339.2423,663.80051 2331.4226,670.53088 2314.4243,670.53088 C 2297.4259,670.53088 2290.4491,663.88886 2282.6854,656.49486 C 2274.9217,649.10086 2266.3098,640.82501 2249.0714,640.82501 C 2231.833,640.82501 2221.9183,648.93843 2213.0066,656.3649 C 2204.0948,663.79136 2196.1859,670.53088 2180.7479,670.53088 C 2165.3098,670.53088 2158.2364,663.8749 2150.0673,656.44846 C 2141.8982,649.02199 2132.6334,640.82501 2115.3949,640.82501 z "
       id="path2422" />
    <path
       style="fill:#dfdfdf;fill-opacity:1;stroke:none;stroke-width:3;stroke-miterlimit:4;stroke-dashoffset:0;stroke-opacity:1"
       d="M 2019.5193,517.15576 C 2019.8908,521.2965 2020.2645,525.16096 2020.6147,528.56467 L 2468.2914,528.56467 C 2468.6415,525.16096 2469.0153,521.2965 2469.3868,517.15576 L 2019.5193,517.15576 z M 2023.4924,537.56926 L 2023.4924,549.2938 C 2024.9724,556.99555 2026.8944,564.60046 2029.2294,572.07449 L 2090.1078,572.07449 L 2090.1078,537.56926 L 2023.4924,537.56926 z M 2098.3512,537.56926 L 2098.3512,572.07449 L 2164.9666,572.07449 L 2164.9666,537.56926 L 2098.3512,537.56926 z M 2173.21,537.56926 L 2173.21,572.07449 L 2239.8254,572.07449 L 2239.8254,537.56926 L 2173.21,537.56926 z M 2248.0688,537.56926 L 2248.0688,572.07449 L 2314.6842,572.07449 L 2314.6842,537.56926 L 2248.0688,537.56926 z M 2322.9276,537.56926 L 2322.9276,572.07449 L 2389.543,572.07449 L 2389.543,537.56926 L 2322.9276,537.56926 z M 2397.7864,537.56926 L 2397.7864,572.07449 L 2459.6767,572.07449 C 2461.5126,566.19795 2463.0906,560.24454 2464.4018,554.22312 L 2464.4018,537.56926 L 2397.7864,537.56926 z M 2032.432,581.53395 C 2036.7744,593.45349 2042.1699,604.99964 2048.4918,616.03918 L 2052.6784,616.03918 L 2052.6784,581.53395 L 2032.432,581.53395 z M 2060.9218,581.53395 L 2060.9218,616.03918 L 2127.5372,616.03918 L 2127.5372,581.53395 L 2060.9218,581.53395 z M 2135.7806,581.53395 L 2135.7806,616.03918 L 2202.396,616.03918 L 2202.396,581.53395 L 2135.7806,581.53395 z M 2210.6394,581.53395 L 2210.6394,616.03918 L 2277.2548,616.03918 L 2277.2548,581.53395 L 2210.6394,581.53395 z M 2285.4982,581.53395 L 2285.4982,616.03918 L 2352.1136,616.03918 L 2352.1136,581.53395 L 2285.4982,581.53395 z M 2360.357,581.53395 L 2360.357,616.03918 L 2426.9724,616.03918 L 2426.9724,581.53395 L 2360.357,581.53395 z M 2435.2158,581.53395 L 2435.2158,616.03918 L 2440.4143,616.03918 C 2446.7361,604.99964 2452.1317,593.45349 2456.474,581.53395 L 2435.2158,581.53395 z M 2054.2102,625.49864 C 2061.8807,637.52225 2070.6712,648.86262 2080.407,659.33548 C 2083.5615,656.71141 2086.6824,654.05782 2090.1078,651.70479 L 2090.1078,625.49864 L 2054.2102,625.49864 z M 2098.3512,625.49864 L 2098.3512,647.10038 C 2103.1057,645.07159 2108.6116,643.7956 2115.3949,643.7956 C 2141.7408,643.7956 2146.8514,663.09497 2164.9666,670.57731 L 2164.9666,625.49864 L 2098.3512,625.49864 z M 2173.21,625.49864 L 2173.21,672.90735 C 2175.5212,673.28714 2178.0189,673.50147 2180.7479,673.50147 C 2210.0462,673.50147 2215.4649,649.62457 2239.8254,644.68678 L 2239.8254,625.49864 L 2173.21,625.49864 z M 2248.0688,625.49864 L 2248.0688,643.8049 C 2248.4008,643.79857 2248.7331,643.7956 2249.0714,643.7956 C 2281.7478,643.7956 2278.7772,673.50147 2314.4243,673.50147 C 2314.5124,673.50147 2314.5965,673.50183 2314.6842,673.50147 L 2314.6842,625.49864 L 2248.0688,625.49864 z M 2322.9276,625.49864 L 2322.9276,672.86095 C 2350.3116,668.5662 2352.9029,643.7956 2382.7478,643.7956 C 2385.1873,643.7956 2387.4406,643.96264 2389.543,644.26905 L 2389.543,625.49864 L 2322.9276,625.49864 z M 2397.7864,625.49864 L 2397.7864,646.41343 C 2403.4452,648.60525 2407.8378,651.94297 2411.9524,655.53872 C 2420.3213,646.13814 2427.9434,636.08315 2434.6959,625.49864 L 2397.7864,625.49864 z "
       id="rect5375" />
    <path
       style="fill:#000000;fill-opacity:1;fill-rule:evenodd;stroke:none;stroke-width:20;stroke-linecap:butt;stroke-linejoin:miter;stroke-miterlimit:4;stroke-dasharray:none;stroke-opacity:1"
       d="M 2115.5063,640.82501 L 2115.5063,646.76619 C 2130.8657,646.79865 2137.9264,653.43108 2146.0756,660.83934 C 2154.2447,668.26581 2163.5095,676.47206 2180.7479,676.47206 L 2180.7479,670.53088 C 2165.3098,670.53088 2158.2364,663.8749 2150.0673,656.44846 C 2141.916,649.03818 2132.6725,640.86063 2115.5063,640.82501 z M 2249.1828,640.82501 L 2249.1828,646.76619 C 2264.5381,646.79827 2270.7696,653.35225 2278.5823,660.79294 C 2286.4142,668.25188 2295.7756,676.47206 2314.4243,676.47206 L 2314.4243,670.53088 C 2297.4259,670.53088 2290.4491,663.88886 2282.6854,656.49486 C 2274.9388,649.11708 2266.3457,640.86116 2249.1828,640.82501 z M 2382.8592,640.82501 L 2382.8592,646.76619 C 2396.0241,646.79402 2403.0926,651.67164 2409.9751,657.72952 C 2411.3032,656.2745 2412.6197,654.80715 2413.9111,653.32004 C 2406.5228,646.91264 2397.6221,640.85564 2382.8592,640.82501 z "
       id="path3399" />
    <g
       id="g12290"
       transform="translate(0,-2.7347347)">
      <path
         sodipodi:nodetypes="ccssscssscccccssscssscccscscssscccssscssscccssscscscccsscssscccssscssscccssscssscc"
         id="path5404"
         d="M 2245.8144,226.01897 L 2239.4355,264.86938 C 2239.3037,264.64776 2239.1643,264.41789 2239.0085,264.18243 C 2234.9095,257.98964 2232.0143,261.68632 2227.9152,255.49346 C 2223.8163,249.30073 2227.1591,248.21653 2223.0602,242.02371 C 2220.9352,238.81337 2217.1703,236.51936 2213.3037,235.07996 C 2214.6976,238.01987 2218.9389,240.31681 2219.7275,243.60183 C 2221.4612,250.82314 2217.4461,249.4883 2219.1798,256.70955 C 2220.9136,263.93079 2224.9005,261.45417 2226.6342,268.67544 C 2227.3265,271.55904 2226.9854,273.22312 2226.4485,274.64447 L 2185.6958,248.54972 L 2209.5254,281.71818 L 2207.2232,285.81202 L 2206.8241,285.55209 C 2206.5669,285.51468 2206.2998,285.48654 2206.0164,285.45926 C 2198.6241,284.74748 2199.679,289.32722 2192.2867,288.61551 C 2184.8945,287.90374 2187.4718,282.80126 2180.0795,282.0895 C 2176.2473,281.72054 2173.9221,279.13252 2170.193,279.54593 C 2172.6892,281.11177 2174.7373,283.14151 2177.7866,284.59593 C 2184.4896,287.79313 2181.035,292.96546 2187.738,296.16266 C 2194.441,299.35977 2195.0154,294.71067 2201.7184,297.90788 C 2204.3912,299.18275 2205.4715,300.4873 2206.2392,301.79749 L 2160.4736,309.39238 L 2201.0964,319.4075 C 2200.8882,319.56278 2200.6755,319.71846 2200.4559,319.8995 C 2194.7254,324.62333 2198.704,327.12295 2192.9737,331.84683 C 2187.2433,336.57065 2185.0208,330.99404 2179.2904,335.71788 C 2176.3197,338.16673 2173.2338,338.1821 2170.8892,341.11135 C 2173.9337,340.21671 2177.0342,340.20607 2180.2187,339.07835 C 2187.2193,336.59934 2188.0897,342.87553 2195.0902,340.39655 C 2202.0907,337.91749 2199.2202,334.22371 2206.2206,331.74472 C 2209.0079,330.7577 2210.6951,330.91615 2212.1618,331.29913 L 2185.148,368.87706 L 2220.9715,347.38672 C 2220.9335,347.64655 2220.8969,347.90761 2220.8694,348.19434 C 2220.1575,355.58663 2224.7374,354.55027 2224.0256,361.94259 C 2223.3138,369.33484 2217.8215,366.34911 2217.1097,373.74139 C 2216.7407,377.57354 2214.4033,379.49956 2214.8168,383.2287 C 2217.0485,381.39836 2218.6166,379.14856 2220.071,376.0993 C 2223.2682,369.39625 2228.3848,373.19429 2231.582,366.4913 C 2234.7792,359.78827 2230.1114,359.2047 2233.3087,352.50169 C 2234.5827,349.83066 2235.8882,348.74683 2237.1983,347.98083 L 2244.7083,393.61648 L 2254.8083,353.12366 C 2254.9659,353.33532 2255.1347,353.55 2255.3189,353.77348 C 2260.0427,359.50392 2261.6047,355.51594 2266.3286,361.24636 C 2271.0524,366.97677 2266.6641,368.66076 2271.3879,374.39121 C 2273.8368,377.36185 2273.453,380.44785 2276.3822,382.7924 C 2276.5528,379.74797 2275.7554,376.40612 2274.6277,373.22154 C 2272.1487,366.22103 2278.2948,366.13031 2275.8159,359.12982 C 2273.3368,352.12936 2269.6338,354.9999 2267.1548,347.9994 C 2266.1659,345.20677 2266.3246,343.52689 2266.7092,342.05822 L 2304.4171,369.33193 L 2285.2754,337.38883 C 2288.4053,336.72635 2289.5148,334.47715 2294.8834,335.56935 C 2302.1607,337.04992 2300.2124,339.65863 2307.4898,341.1392 C 2311.2624,341.90672 2315.1989,340.08117 2319.4836,339.39398 C 2316.419,338.30083 2312.4219,340.13804 2309.5414,338.37284 C 2303.2092,334.49251 2306.5347,332.4224 2300.2026,328.54205 C 2293.8705,324.6618 2292.805,329.22902 2286.4729,325.34867 C 2283.9427,323.79823 2283.0056,323.04925 2282.3791,321.66329 L 2329.154,310.40424 L 2289.3414,304.03471 C 2289.5662,303.90122 2289.7892,303.75666 2290.0283,303.59841 C 2296.2211,299.49944 2292.5338,296.60413 2298.7266,292.50512 C 2304.9193,288.40617 2305.7343,291.34058 2311.9271,287.24161 C 2315.1375,285.1167 2317.305,280.67915 2318.2118,278.14419 C 2315.2719,279.53815 2314.0332,283.77944 2310.7482,284.56808 C 2303.5269,286.30176 2304.7224,282.03609 2297.5012,283.76974 C 2290.2799,285.50347 2292.7658,289.49041 2285.5446,291.22405 C 2282.6632,291.91583 2281.5253,291.57466 2280.1047,291.03839 L 2304.4635,251.35321 L 2272.5019,274.11533 C 2272.5653,273.86565 2272.6313,273.59337 2272.6875,273.31699 C 2274.1681,266.0396 2269.4989,266.61407 2270.9794,259.33666 C 2272.46,252.05934 2275.2648,254.37298 2276.1501,246.99944 C 2277.0508,239.49825 2274.8254,239.01755 2274.8041,235.26562 C 2273.7109,238.33015 2272.7632,242.06736 2270.998,244.94788 C 2267.1177,251.28001 2267.8231,247.68539 2263.9429,254.01745 C 2260.0626,260.34958 2264.6299,261.41504 2260.7495,267.74713 C 2259.2007,270.27446 2258.3285,271.21613 2256.9434,271.84097 L 2245.8144,226.01897 z "
         style="fill:#000000;fill-opacity:1;stroke:none;stroke-width:3;stroke-miterlimit:4;stroke-dashoffset:0;stroke-opacity:1" />
      <path
         id="path2315"
         d="M 2245.451,227.90961 L 2237.1147,265.20904 C 2236.9715,264.99463 2236.8186,264.77691 2236.6506,264.54993 C 2232.2332,258.58015 2229.5385,262.42492 2225.121,256.45508 C 2220.7036,250.48536 2225.1754,249.02942 2220.758,243.0596 C 2218.4679,239.96488 2215.772,237.67289 2212.9695,235.17825 C 2214.5154,238.04118 2215.9739,240.80436 2216.9333,244.04361 C 2219.0426,251.16429 2214.3507,251.00542 2216.4599,258.12604 C 2218.5692,265.24665 2222.4177,262.56285 2224.5269,269.68349 C 2225.3692,272.5269 2225.1187,274.20501 2224.6569,275.65251 L 2187.6359,251.33082 L 2208.1237,283.59883 C 2207.8689,283.54802 2207.6069,283.50167 2207.3253,283.45959 C 2199.9804,282.3619 2200.7921,286.98938 2193.4471,285.89176 C 2186.1023,284.79408 2188.232,280.60267 2180.8871,279.50499 C 2177.0795,278.93598 2173.5395,279.22233 2169.7938,279.44001 C 2172.9114,280.37129 2175.913,281.29059 2178.882,282.9026 C 2185.4085,286.44623 2181.982,289.65392 2188.5085,293.19754 C 2195.035,296.74109 2195.8509,292.12321 2202.3774,295.66684 C 2204.9799,297.07986 2205.996,298.43997 2206.6941,299.78853 L 2163.3142,308.76528 L 2200.6322,317.10149 C 2200.4162,317.24566 2200.1926,317.39634 2199.9638,317.56564 C 2193.994,321.98309 2197.8388,324.68701 2191.869,329.10451 C 2185.8992,333.52195 2184.4433,329.05939 2178.4735,333.47685 C 2175.3787,335.76687 2173.0776,338.46282 2170.5829,341.26536 C 2173.4458,339.71944 2176.2275,338.2517 2179.4668,337.2922 C 2186.5875,335.18296 2186.4193,339.86555 2193.54,337.75635 C 2200.6606,335.64706 2197.9861,331.80785 2205.1067,329.69863 C 2207.9417,328.85884 2209.6125,329.10017 2211.0571,329.55939 L 2186.7355,366.58033 L 2219.0127,346.08328 C 2218.9612,346.34077 2218.9161,346.60601 2218.8735,346.8909 C 2217.7758,354.23581 2222.4033,353.43346 2221.3057,360.7784 C 2220.208,368.12327 2216.0166,365.98423 2214.9189,373.32913 C 2214.3499,377.13672 2214.6269,380.67674 2214.8446,384.42241 C 2215.7759,381.30488 2216.7045,378.30324 2218.3165,375.33427 C 2221.8601,368.80775 2225.0678,372.24347 2228.6114,365.717 C 2232.155,359.19048 2227.5278,358.36527 2231.0715,351.83879 C 2232.4835,349.23809 2233.8448,348.22782 2235.1932,347.53144 L 2244.1699,390.90201 L 2252.5061,353.58401 C 2252.6524,353.80363 2252.8073,354.02886 2252.9796,354.26167 C 2257.397,360.23149 2260.1009,356.37744 2264.5184,362.34724 C 2268.9359,368.31702 2264.464,369.77291 2268.8815,375.74273 C 2271.1715,378.83746 2273.8675,381.13871 2276.67,383.63335 C 2275.124,380.77042 2273.6656,378.00724 2272.7061,374.76801 C 2270.5969,367.64735 2275.2794,367.8062 2273.1702,360.68557 C 2271.061,353.56496 2267.2124,356.23949 2265.1033,349.11884 C 2264.2618,346.27828 2264.5123,344.60563 2264.9733,343.1591 L 2301.9849,367.48078 L 2281.4972,335.21278 C 2281.7526,335.26377 2282.0225,335.30984 2282.3048,335.35203 C 2289.6497,336.44972 2288.8381,331.81294 2296.183,332.91058 C 2303.5279,334.00826 2301.3981,338.19966 2308.743,339.29734 C 2312.5506,339.86636 2316.0814,339.58931 2319.827,339.37161 C 2316.7095,338.44034 2313.7171,337.50248 2310.7482,335.89045 C 2304.2216,332.34684 2307.6574,329.1577 2301.1309,325.61408 C 2294.6044,322.07053 2293.7792,326.68841 2287.2527,323.14477 C 2284.6449,321.72888 2283.6342,320.36507 2282.9361,319.0138 L 2326.3066,310.03706 L 2288.9979,301.71013 C 2289.2155,301.56506 2289.4358,301.40725 2289.6663,301.23669 C 2295.6361,296.81924 2291.8007,294.1246 2297.7704,289.7071 C 2303.7402,285.28967 2305.1868,289.75223 2311.1566,285.33477 C 2314.2514,283.04475 2316.5526,280.34879 2319.0473,277.54626 C 2316.1843,279.09218 2313.4119,280.55065 2310.1726,281.51014 C 2303.052,283.61938 2303.2108,278.93679 2296.0902,281.04599 C 2288.9696,283.15527 2291.6534,287.00378 2284.5327,289.11299 C 2281.6915,289.95461 2280.0105,289.70413 2278.5637,289.24295 L 2302.8854,252.23129 L 2270.6174,272.70978 C 2270.6677,272.45712 2270.715,272.19038 2270.7566,271.91143 C 2271.8543,264.56654 2267.2268,265.37813 2268.3245,258.03321 C 2269.4222,250.68837 2273.6135,252.8274 2274.7112,245.48247 C 2275.2803,241.67493 2274.9939,238.13488 2274.7762,234.3892 C 2273.845,237.50675 2272.9257,240.49911 2271.3136,243.46806 C 2267.77,249.99459 2264.5623,246.56814 2261.0187,253.0946 C 2257.4752,259.62113 2262.0931,260.44633 2258.5494,266.97283 C 2257.1351,269.57775 2255.7782,270.59299 2254.4277,271.28946 L 2245.451,227.90961 z "
         style="fill:#dfdf00;fill-opacity:1;stroke:none;stroke-width:3;stroke-miterlimit:4;stroke-dashoffset:0;stroke-opacity:1" />
      <path
         style="fill:#000000;fill-opacity:1;stroke:none;stroke-width:20;stroke-miterlimit:4;stroke-dasharray:none;stroke-dashoffset:0;stroke-opacity:1"
         d="M 2258.8293,287.54769 C 2256.212,287.56465 2255.7426,287.67771 2254.723,288.21001 C 2250.7456,290.28644 2248.5146,292.48496 2246.6428,296.20189 C 2245.7998,297.87588 2245.6802,298.40042 2245.6802,300.23757 C 2245.6802,301.39677 2245.9945,304.03481 2246.3779,306.11006 C 2246.7612,308.1853 2247.1565,310.61727 2247.261,311.50568 C 2247.4472,313.09039 2247.43,313.13261 2246.4397,314.06662 C 2245.8845,314.59023 2245.0758,315.09428 2244.6382,315.1793 C 2243.7597,315.34997 2242.3123,314.77564 2241.5828,313.96947 C 2241.0864,313.42097 2240.4883,311.33026 2240.1787,309.08604 C 2239.9636,307.52771 2239.6417,307.56706 2238.8717,309.26266 C 2237.8301,311.55645 2238.32,314.58478 2239.9843,316.16835 C 2241.5382,317.6467 2242.4087,317.94848 2244.7442,317.82854 C 2246.4524,317.74082 2246.9528,317.59655 2247.8526,316.91896 C 2248.4424,316.47477 2249.096,315.87594 2249.3009,315.59434 C 2249.5058,315.31275 2249.7634,315.14572 2249.8749,315.21462 C 2249.9864,315.28352 2250.1,315.12197 2250.1221,314.86139 C 2250.1443,314.60081 2250.2519,313.60596 2250.3606,312.65368 C 2250.585,310.68695 2250.0892,308.04589 2248.7533,303.99949 C 2247.8176,301.16504 2247.6958,298.87822 2248.4001,297.39404 C 2249.1957,295.71751 2252.0333,293.08605 2254.1048,292.11322 C 2257.222,290.64936 2260.9807,290.75341 2264.2338,292.38697 L 2265.682,293.11993 L 2265.267,294.33859 C 2264.3229,297.10916 2261.2638,299.4073 2258.0699,299.74304 L 2256.2772,299.92849 L 2257.2662,300.34353 C 2258.7478,300.95519 2262.1975,300.91291 2263.9777,300.26406 C 2265.7815,299.60656 2268.4026,297.59732 2269.179,296.28136 C 2269.4928,295.74952 2269.889,295.39393 2270.0532,295.49542 C 2270.2212,295.59923 2270.2656,295.55259 2270.1592,295.38062 C 2270.0553,295.21249 2270.2201,294.44928 2270.5213,293.68511 L 2271.0688,292.28984 L 2270.2122,291.53922 C 2269.7418,291.12642 2269.3068,290.78861 2269.2497,290.78861 C 2269.1367,290.78861 2266.5398,289.0413 2266.309,288.8105 C 2266.2313,288.73279 2265.7226,288.42197 2265.1787,288.11286 C 2264.3179,287.62372 2263.6584,287.55044 2260.0921,287.54769 C 2259.6227,287.54733 2259.2032,287.54527 2258.8293,287.54769 z M 2227.2415,288.12169 C 2224.7585,288.14239 2224.3223,288.26342 2222.9321,288.90764 C 2220.6937,289.94488 2218.552,291.33754 2218.552,291.75116 C 2218.552,292.49725 2220.8528,296.51416 2221.6781,297.2086 C 2222.1663,297.61941 2222.7262,298.11542 2222.9144,298.30362 C 2223.3828,298.77203 2226.0752,300.12948 2227.4534,300.5908 C 2228.1948,300.83897 2229.4579,300.92283 2231.1359,300.84689 C 2233.2506,300.75119 2234.0101,300.5871 2235.516,299.8755 C 2236.5213,299.40042 2236.964,299.09517 2236.4962,299.19553 C 2232.0986,300.13895 2226.4017,297.95729 2224.0712,294.43573 C 2223.6753,293.83748 2223.356,293.24126 2223.356,293.11111 C 2223.356,292.84244 2225.7578,291.82905 2227.4534,291.38026 C 2230.3047,290.62559 2235.3778,291.35833 2238.2447,292.94332 C 2239.2092,293.47657 2240.0761,294.03683 2240.1698,294.18846 C 2240.2635,294.3401 2240.4615,294.46222 2240.6113,294.46222 C 2241.0053,294.46222 2240.0205,293.03201 2239.0748,292.22802 C 2238.6303,291.8501 2238.1175,291.40502 2237.9357,291.23897 C 2237.414,290.76272 2236.0843,289.98613 2234.0942,289.01361 C 2232.3061,288.13981 2232.1563,288.11992 2228.4425,288.12169 C 2227.9956,288.12191 2227.5962,288.11874 2227.2415,288.12169 z M 2262.759,323.67453 C 2262.4333,323.66492 2261.2583,323.85211 2259.9154,324.13373 C 2254.7064,325.22626 2251.2037,325.60248 2244.8324,325.74978 C 2238.1426,325.90444 2234.1261,325.59523 2227.948,324.46048 C 2226.3549,324.16788 2225.0514,323.96397 2225.0514,324.00128 C 2225.0514,324.33989 2226.4384,327.0838 2227.1179,328.08994 C 2229.834,332.11165 2233.1468,334.65745 2237.653,336.17013 C 2242.0511,337.6465 2246.1,337.62803 2250.4136,336.12597 C 2251.8654,335.62041 2253.7483,334.78728 2254.5993,334.27151 C 2256.7006,332.99802 2259.3388,330.38262 2260.8162,328.09877 C 2262.0788,326.14704 2263.0958,323.94068 2262.8473,323.6922 C 2262.8376,323.68246 2262.8055,323.67591 2262.759,323.67453 z M 2259.3945,326.50039 C 2259.4237,326.4985 2259.4402,326.50194 2259.4475,326.50922 C 2259.5944,326.65619 2256.8142,328.94276 2255.3588,329.87377 C 2251.4774,332.3567 2245.939,333.55156 2241.2913,332.90273 C 2237.6578,332.39549 2232.8879,330.23769 2230.2793,327.92216 L 2228.8663,326.66818 L 2230.9593,327.37465 C 2235.9924,329.08614 2243.3388,329.88661 2248.2853,329.2556 C 2251.5412,328.84026 2255.4614,327.91954 2257.6637,327.05673 C 2258.4691,326.74115 2259.1895,326.51363 2259.3945,326.50039 z "
         id="path5381" />
    </g>
  </g>
</svg>
