<?xml version="1.0" encoding="UTF-8" standalone="no"?>
<!-- Created with Inkscape (http://www.inkscape.org/) -->
<svg
   xmlns:svg="http://www.w3.org/2000/svg"
   xmlns="http://www.w3.org/2000/svg"
   xmlns:xlink="http://www.w3.org/1999/xlink"
   version="1.0"
   width="600"
   height="660"
   id="svg2">
  <desc
     id="desc4">Flag of Canton of Valais (Wallis)</desc>
  <defs
     id="defs6">
    <linearGradient
       id="linearGradient2893">
      <stop
         style="stop-color:#ffffff;stop-opacity:0.3137255"
         offset="0"
         id="stop2895" />
      <stop
         style="stop-color:#ffffff;stop-opacity:0.25098041"
         offset="0.19"
         id="stop2897" />
      <stop
         style="stop-color:#6b6b6b;stop-opacity:0.1254902"
         offset="0.60000002"
         id="stop2901" />
      <stop
         style="stop-color:#000000;stop-opacity:0.1254902"
         offset="1"
         id="stop2899" />
    </linearGradient>
    <linearGradient
       id="linearGradient2885">
      <stop
         style="stop-color:#ffffff;stop-opacity:1"
         offset="0"
         id="stop2887" />
      <stop
         style="stop-color:#ffffff;stop-opacity:1"
         offset="0.22857143"
         id="stop2891" />
      <stop
         style="stop-color:#000000;stop-opacity:1"
         offset="1"
         id="stop2889" />
    </linearGradient>
    <linearGradient
       id="linearGradient2955">
      <stop
         style="stop-color:#fd0000;stop-opacity:1"
         offset="0"
         id="stop2867" />
      <stop
         style="stop-color:#e77275;stop-opacity:0.65882355"
         offset="0.5"
         id="stop2873" />
      <stop
         style="stop-color:#000000;stop-opacity:0.32291666"
         offset="1"
         id="stop2959" />
    </linearGradient>
    <radialGradient
       cx="225.52438"
       cy="218.90099"
       r="300"
       fx="225.52438"
       fy="218.90099"
       id="radialGradient2961"
       xlink:href="#linearGradient2955"
       gradientUnits="userSpaceOnUse"
       gradientTransform="matrix(-4.167939e-4,2.182867,-1.884232,-3.599562e-4,615.5972,-289.1214)" />
    <polygon
       points="0,-1 0.58778525,0.80901699 -0.95105652,-0.30901699 0.95105652,-0.30901699 -0.58778525,0.80901699 0,-1 "
       transform="scale(53,53)"
       id="star" />
    <clipPath
       id="clip">
      <path
         d="M 0,-200 L 0,600 L 300,600 L 300,-200 L 0,-200 z "
         id="path10" />
    </clipPath>
    <radialGradient
       cx="225.52438"
       cy="218.90099"
       r="300"
       fx="225.52438"
       fy="218.90099"
       id="radialGradient1911"
       xlink:href="#linearGradient2955"
       gradientUnits="userSpaceOnUse"
       gradientTransform="matrix(-4.167939e-4,2.182867,-1.884232,-3.599562e-4,615.5972,-289.1214)" />
    <radialGradient
       cx="225.52438"
       cy="218.90099"
       r="300"
       fx="225.52438"
       fy="218.90099"
       id="radialGradient2865"
       xlink:href="#linearGradient2955"
       gradientUnits="userSpaceOnUse"
       gradientTransform="matrix(0,1.748721,-1.593162,-1.049767e-7,551.7876,-191.2898)" />
    <radialGradient
       cx="225.52438"
       cy="218.90099"
       r="300"
       fx="225.52438"
       fy="218.90099"
       id="radialGradient2871"
       xlink:href="#linearGradient2955"
       gradientUnits="userSpaceOnUse"
       gradientTransform="matrix(0,1.386237,-1.323286,-5.741131e-8,-158.0823,-109.5408)" />
    <radialGradient
       cx="221.44487"
       cy="226.33101"
       r="300"
       fx="221.44487"
       fy="226.33101"
       id="radialGradient3163"
       xlink:href="#linearGradient2893"
       gradientUnits="userSpaceOnUse"
       gradientTransform="matrix(1.353218,0,0,1.348928,-77.62935,-85.74693)" />
    <radialGradient
       cx="221.44487"
       cy="226.33101"
       r="300"
       fx="221.44487"
       fy="226.33101"
       id="radialGradient9547"
       xlink:href="#linearGradient2893"
       gradientUnits="userSpaceOnUse"
       gradientTransform="matrix(1.353218,0,0,1.348928,-77.62935,-85.74693)" />
    <radialGradient
       cx="225.52438"
       cy="218.90099"
       r="300"
       fx="225.52438"
       fy="218.90099"
       id="radialGradient9545"
       xlink:href="#linearGradient2955"
       gradientUnits="userSpaceOnUse"
       gradientTransform="matrix(0,1.386237,-1.323286,-5.741131e-8,-158.0823,-109.5408)" />
    <radialGradient
       cx="225.52438"
       cy="218.90099"
       r="300"
       fx="225.52438"
       fy="218.90099"
       id="radialGradient9543"
       xlink:href="#linearGradient2955"
       gradientUnits="userSpaceOnUse"
       gradientTransform="matrix(0,1.748721,-1.593162,-1.049767e-7,551.7876,-191.2898)" />
    <radialGradient
       cx="225.52438"
       cy="218.90099"
       r="300"
       fx="225.52438"
       fy="218.90099"
       id="radialGradient9541"
       xlink:href="#linearGradient2955"
       gradientUnits="userSpaceOnUse"
       gradientTransform="matrix(-4.167939e-4,2.182867,-1.884232,-3.599562e-4,615.5972,-289.1214)" />
    <clipPath
       id="clipPath9537">
      <path
         d="M 0,-200 L 0,600 L 300,600 L 300,-200 L 0,-200 z "
         id="path9539" />
    </clipPath>
    <polygon
       points="0,-1 0.58778525,0.80901699 -0.95105652,-0.30901699 0.95105652,-0.30901699 -0.58778525,0.80901699 0,-1 "
       transform="scale(53,53)"
       id="polygon9535" />
    <radialGradient
       cx="225.52438"
       cy="218.90099"
       r="300"
       fx="225.52438"
       fy="218.90099"
       id="radialGradient9533"
       xlink:href="#linearGradient2955"
       gradientUnits="userSpaceOnUse"
       gradientTransform="matrix(-4.167939e-4,2.182867,-1.884232,-3.599562e-4,615.5972,-289.1214)" />
    <linearGradient
       id="linearGradient9525">
      <stop
         style="stop-color:#fd0000;stop-opacity:1"
         offset="0"
         id="stop9527" />
      <stop
         style="stop-color:#e77275;stop-opacity:0.65882355"
         offset="0.5"
         id="stop9529" />
      <stop
         style="stop-color:#000000;stop-opacity:0.32291666"
         offset="1"
         id="stop9531" />
    </linearGradient>
    <linearGradient
       id="linearGradient9517">
      <stop
         style="stop-color:#ffffff;stop-opacity:1"
         offset="0"
         id="stop9519" />
      <stop
         style="stop-color:#ffffff;stop-opacity:1"
         offset="0.22857143"
         id="stop9521" />
      <stop
         style="stop-color:#000000;stop-opacity:1"
         offset="1"
         id="stop9523" />
    </linearGradient>
    <linearGradient
       id="linearGradient9507">
      <stop
         style="stop-color:#ffffff;stop-opacity:0.3137255"
         offset="0"
         id="stop9509" />
      <stop
         style="stop-color:#ffffff;stop-opacity:0.25098041"
         offset="0.19"
         id="stop9511" />
      <stop
         style="stop-color:#6b6b6b;stop-opacity:0.1254902"
         offset="0.60000002"
         id="stop9513" />
      <stop
         style="stop-color:#000000;stop-opacity:0.1254902"
         offset="1"
         id="stop9515" />
    </linearGradient>
    <radialGradient
       cx="221.44487"
       cy="226.33101"
       r="300"
       fx="221.44487"
       fy="226.33101"
       id="radialGradient2553"
       xlink:href="#linearGradient2893"
       gradientUnits="userSpaceOnUse"
       gradientTransform="matrix(1.353218,0,0,1.348928,-77.62935,-85.74693)" />
    <radialGradient
       cx="221.44487"
       cy="226.33101"
       r="300"
       fx="221.44487"
       fy="226.33101"
       id="radialGradient2731"
       xlink:href="#linearGradient2893"
       gradientUnits="userSpaceOnUse"
       gradientTransform="matrix(1.353218,0,0,1.348928,-77.62935,-85.74693)" />
    <radialGradient
       cx="225.52438"
       cy="218.90099"
       r="300"
       fx="225.52438"
       fy="218.90099"
       id="radialGradient2729"
       xlink:href="#linearGradient2955"
       gradientUnits="userSpaceOnUse"
       gradientTransform="matrix(0,1.386237,-1.323286,-5.741131e-8,-158.0823,-109.5408)" />
    <radialGradient
       cx="225.52438"
       cy="218.90099"
       r="300"
       fx="225.52438"
       fy="218.90099"
       id="radialGradient2727"
       xlink:href="#linearGradient2955"
       gradientUnits="userSpaceOnUse"
       gradientTransform="matrix(0,1.748721,-1.593162,-1.049767e-7,551.7876,-191.2898)" />
    <radialGradient
       cx="225.52438"
       cy="218.90099"
       r="300"
       fx="225.52438"
       fy="218.90099"
       id="radialGradient2725"
       xlink:href="#linearGradient2955"
       gradientUnits="userSpaceOnUse"
       gradientTransform="matrix(-4.167939e-4,2.182867,-1.884232,-3.599562e-4,615.5972,-289.1214)" />
    <clipPath
       id="clipPath2721">
      <path
         d="M 0,-200 L 0,600 L 300,600 L 300,-200 L 0,-200 z "
         id="path2723" />
    </clipPath>
    <polygon
       points="0,-1 0.58778525,0.80901699 -0.95105652,-0.30901699 0.95105652,-0.30901699 -0.58778525,0.80901699 0,-1 "
       transform="scale(53,53)"
       id="polygon2719" />
    <radialGradient
       cx="225.52438"
       cy="218.90099"
       r="300"
       fx="225.52438"
       fy="218.90099"
       id="radialGradient2717"
       xlink:href="#linearGradient2955"
       gradientUnits="userSpaceOnUse"
       gradientTransform="matrix(-4.167939e-4,2.182867,-1.884232,-3.599562e-4,615.5972,-289.1214)" />
    <linearGradient
       id="linearGradient2709">
      <stop
         style="stop-color:#fd0000;stop-opacity:1"
         offset="0"
         id="stop2711" />
      <stop
         style="stop-color:#e77275;stop-opacity:0.65882355"
         offset="0.5"
         id="stop2713" />
      <stop
         style="stop-color:#000000;stop-opacity:0.32291666"
         offset="1"
         id="stop2715" />
    </linearGradient>
    <linearGradient
       id="linearGradient2701">
      <stop
         style="stop-color:#ffffff;stop-opacity:1"
         offset="0"
         id="stop2703" />
      <stop
         style="stop-color:#ffffff;stop-opacity:1"
         offset="0.22857143"
         id="stop2705" />
      <stop
         style="stop-color:#000000;stop-opacity:1"
         offset="1"
         id="stop2707" />
    </linearGradient>
    <linearGradient
       id="linearGradient2691">
      <stop
         style="stop-color:#ffffff;stop-opacity:0.3137255"
         offset="0"
         id="stop2693" />
      <stop
         style="stop-color:#ffffff;stop-opacity:0.25098041"
         offset="0.19"
         id="stop2695" />
      <stop
         style="stop-color:#6b6b6b;stop-opacity:0.1254902"
         offset="0.60000002"
         id="stop2697" />
      <stop
         style="stop-color:#000000;stop-opacity:0.1254902"
         offset="1"
         id="stop2699" />
    </linearGradient>
  </defs>
  <g
     style="display:inline"
     id="layer3">
    <path
       d="M 300,658.5 C 300,658.5 598.50001,546.17969 598.50001,260.72817 C 598.50001,-24.723354 598.50001,2.1764765 598.50001,2.1764765 L 1.5,2.1764765 L 1.5,260.72817 C 1.5,546.17969 300,658.5 300,658.5 z "
       style="fill:#fcd40f;fill-opacity:1;fill-rule:evenodd;stroke:none;stroke-width:1px;stroke-linecap:butt;stroke-linejoin:miter;stroke-opacity:1"
       id="path2855" />
  </g>
  <g
     transform="matrix(0.4999877,0,0,0.5366608,287.73814,-30.041598)"
     style="fill:#e20909;fill-opacity:1"
     id="g19794">
    <path
       d="M 139.87592,188.53771 C 129.86773,196.08269 114.88812,197.38595 108.96391,189.9428 C 108.96391,189.9428 119.02613,192.29832 123.57686,186.85162 C 129.75262,179.45992 129.97663,175.96755 130.88334,177.57801 L 139.87592,188.53771 z "
       style="fill:#2828ff;fill-opacity:1;fill-rule:evenodd;stroke:#000000;stroke-width:3;stroke-linecap:butt;stroke-linejoin:miter;stroke-miterlimit:4;stroke-dasharray:none;stroke-opacity:1;display:inline"
       id="path1994" />
    <path
       d="M 120.76668,156.78269 C 112.00297,149.93717 101.43429,150.72017 97.161164,161.841 C 96.029293,161.41654 97.639289,147.91197 102.50051,143.01279 C 107.4991,137.97515 108.82341,136.1981 116.2704,135.98734 C 123.71737,135.77658 133.13147,140.20261 133.13147,140.20261 L 120.76668,156.78269 z "
       style="fill:#2828ff;fill-opacity:1;fill-rule:evenodd;stroke:#000000;stroke-width:3;stroke-linecap:butt;stroke-linejoin:miter;stroke-miterlimit:4;stroke-dasharray:none;stroke-opacity:1;display:inline"
       id="path1996" />
    <path
       d="M 135.94166,125.87069 C 131.34587,113.29724 128.1728,100.1324 108.40189,102.26517 C 108.40189,102.26517 118.26987,96.036769 129.75926,97.768882 C 143.95642,99.909207 154.39856,117.15078 153.64579,117.44015 L 135.94166,125.87069 z "
       style="fill:#2828ff;fill-opacity:1;fill-rule:evenodd;stroke:#000000;stroke-width:3;stroke-linecap:butt;stroke-linejoin:miter;stroke-miterlimit:4;stroke-dasharray:none;stroke-opacity:1;display:inline"
       id="path1998" />
    <path
       d="M 168.53976,118.2832 C 174.52835,112.56271 173.89027,100.21554 175.84623,90.462409 C 175.84623,90.462409 183.50398,97.136591 185.40085,106.48044 C 187.29772,115.8243 183.43371,127.83782 183.43371,127.83782 L 168.53976,118.2832 z "
       style="fill:#2828ff;fill-opacity:1;fill-rule:evenodd;stroke:#000000;stroke-width:3;stroke-linecap:butt;stroke-linejoin:miter;stroke-miterlimit:4;stroke-dasharray:none;stroke-opacity:1;display:inline"
       id="path2000" />
    <path
       d="M 213.22163,229.28534 L 203.38599,224.43778 C 206.95283,220.63862 202.88131,217.60331 199.17073,214.53189 C 196.96799,210.882 192.93518,210.84654 188.49204,212.42426 C 187.85162,205.45275 182.79427,204.16016 176.9703,203.85321 C 175.67272,193.22005 170.35991,193.82959 165.44856,193.31503 C 163.46935,187.885 159.8857,186.85993 156.59648,187.69466 C 155.51334,185.73197 152.55496,185.1757 145.49627,187.69466 C 145.49627,187.69466 140.99999,195.42266 135.94166,193.31503 C 130.88334,191.20739 125.96552,185.16551 124.1389,180.95024 C 122.31228,176.73496 131.02384,177.57802 130.88333,172.51969 C 130.74283,167.46137 127.3706,163.80813 123.57686,160.71693 C 119.78312,157.62573 114.30326,160.99795 115.28683,153.69148 C 116.2704,146.38501 116.72704,139.71084 121.60973,135.84685 C 126.49241,131.98284 134.81759,138.23549 134.81759,138.23549 C 134.81759,138.23549 140.26231,137.25194 139.26118,134.05535 C 138.26005,130.85877 130.81308,125.44917 133.69351,121.65543 C 139.45438,114.06793 143.81016,110.48495 150.83562,110.4147 C 157.86106,110.34445 155.26165,121.30415 159.68768,122.21746 C 164.11372,123.13077 164.92165,112.17106 171.91197,114.91099 C 178.9023,117.65091 188.01314,123.1285 185.68185,130.648 C 183.70118,137.03664 181.35673,134.81706 182.12677,137.09558 C 183.20263,140.27907 180.20853,137.46543 191.58323,147.93061 C 196.41613,152.37705 203.08303,158.7015 210.71168,164.69016 C 218.34033,170.6788 227.0947,178.88431 234.6273,184.91522 C 242.1599,190.94614 249.31379,193.39735 254.30351,197.43206 C 259.29323,201.46675 262.39979,203.99371 262.39979,203.99371 L 213.22163,229.28534 z "
       style="fill:#e20909;fill-opacity:1;fill-rule:evenodd;stroke:#000000;stroke-width:3.00000024;stroke-linecap:butt;stroke-linejoin:miter;stroke-miterlimit:4;stroke-dasharray:none;stroke-opacity:1;display:inline"
       id="path2002" />
    <path
       d="M 158.15011,435.57465 C 159.23859,420.75248 144.06494,412.24877 129.33719,412.32558 C 129.33719,412.32558 146.92301,405.51981 156.95786,409.14623 C 166.9927,412.77265 170.66884,418.48559 170.66884,418.48559 L 158.15011,435.57465 z "
       style="fill:#2828ff;fill-opacity:1;fill-rule:evenodd;stroke:#000000;stroke-width:3;stroke-linecap:butt;stroke-linejoin:miter;stroke-miterlimit:4;stroke-dasharray:none;stroke-opacity:1;display:inline"
       id="path2004" />
    <path
       d="M 150.59913,457.83012 C 137.52996,446.40414 128.91447,457.93557 117.61332,462.99664 C 117.61332,462.99664 124.96559,445.55987 133.90752,440.14497 C 142.84946,434.73018 153.38108,441.33725 153.38108,441.33725 L 150.59913,457.83012 z "
       style="fill:#2828ff;fill-opacity:1;fill-rule:evenodd;stroke:#000000;stroke-width:3;stroke-linecap:butt;stroke-linejoin:miter;stroke-miterlimit:4;stroke-dasharray:none;stroke-opacity:1;display:inline"
       id="path2006" />
    <path
       d="M 160.53463,477.89982 C 155.25436,480.359 150.73328,485.85491 148.61205,500.95018 C 148.61205,500.95018 146.42624,486.94114 147.81721,479.4895 C 149.20818,472.03786 154.17592,471.14372 154.17592,471.14372 L 160.53463,477.89982 z "
       style="fill:#2828ff;fill-opacity:1;fill-rule:evenodd;stroke:#000000;stroke-width:3;stroke-linecap:butt;stroke-linejoin:miter;stroke-miterlimit:4;stroke-dasharray:none;stroke-opacity:1;display:inline"
       id="path2008" />
    <path
       d="M 190.73853,480.28439 C 186.24235,484.86754 185.83086,491.2013 188.75142,498.96312 C 188.75142,498.96312 180.80304,488.72951 178.81594,483.46374 C 176.82884,478.19787 180.80303,477.89982 180.80303,477.89982 L 190.73853,480.28439 z "
       style="fill:#2828ff;fill-opacity:1;fill-rule:evenodd;stroke:#000000;stroke-width:3;stroke-linecap:butt;stroke-linejoin:miter;stroke-miterlimit:4;stroke-dasharray:none;stroke-opacity:1;display:inline"
       id="path2010" />
    <path
       d="M 269.57938,354.03607 C 263.73161,354.03741 258.09655,354.37734 253.11727,355.19405 C 226.56107,359.54984 218.28393,377.66515 218.28393,377.66515 C 218.28393,377.66515 236.39921,404.21759 227.26611,416.44187 C 218.13303,428.66615 193.10891,434.93597 183.41931,426.55073 L 176.12716,420.22878 C 172.56248,417.14396 174.01721,412.37989 168.39684,415.18999 C 162.77648,418.00019 157.58243,425.91458 156.44148,428.8041 C 153.26847,436.84 164.32827,437.25423 164.32827,437.25423 L 160.94821,440.03965 C 160.62863,440.75861 157.06519,434.92305 153.65606,437.25423 C 148.24068,440.95726 146.34858,450.45992 146.4891,456.50176 C 146.6296,462.5437 154.2194,461.41536 154.2194,461.41536 L 155.90943,467.58082 C 155.90943,467.58082 150.96585,468.57611 151.52788,472.6509 C 152.08993,476.7257 158.45548,480.93128 161.51156,481.91476 C 164.56762,482.89833 166.14348,477.15764 166.14348,477.15764 L 178.38053,474.90427 C 178.38053,474.90426 175.27793,478.82028 180.19575,480.5064 C 185.11355,482.19252 188.94183,483.19456 193.40299,481.78957 C 197.86415,480.38446 194.68616,473.90277 194.68616,473.90277 C 227.19151,464.32226 262.26487,458.5014 303.72417,461.9787 C 291.27581,446.16776 288.11434,426.9982 289.10858,406.333 C 305.36007,403.15743 314.77888,406.80166 323.37856,411.2779 C 327.52543,406.68526 334.07236,399.33103 331.42184,394.25244 C 326.28704,384.41373 318.085,372.14264 313.92694,358.29242 C 303.04272,356.46931 285.49481,354.03242 269.57938,354.03607 z "
       style="fill:#e20909;fill-opacity:1;fill-rule:evenodd;stroke:#000000;stroke-width:3.00000024;stroke-linecap:butt;stroke-linejoin:miter;stroke-miterlimit:4;stroke-dasharray:none;stroke-opacity:1;display:inline"
       id="path2012" />
    <path
       d="M 120.59397,251.96681 C 118.14191,245.52678 110.62238,239.86635 101.31911,234.48035 C 101.31911,234.48035 114.18557,235.87132 121.78622,238.45455 C 129.38688,241.03778 131.72171,244.81326 131.72171,244.81326 L 120.59397,251.96681 z "
       style="fill:#2828ff;fill-opacity:1;fill-rule:evenodd;stroke:#000000;stroke-width:3;stroke-linecap:butt;stroke-linejoin:miter;stroke-miterlimit:4;stroke-dasharray:none;stroke-opacity:1;display:inline"
       id="path2014" />
    <path
       d="M 109.86363,275.61327 C 99.630536,268.52867 91.929623,276.63716 83.63395,281.17716 C 83.63395,281.17716 90.79749,268.01115 98.149752,263.34147 C 105.50201,258.6718 113.04299,262.49843 113.04299,262.49843 L 109.86363,275.61327 z "
       style="fill:#2828ff;fill-opacity:1;fill-rule:evenodd;stroke:#000000;stroke-width:3;stroke-linecap:butt;stroke-linejoin:miter;stroke-miterlimit:4;stroke-dasharray:none;stroke-opacity:1;display:inline"
       id="path2016" />
    <path
       d="M 116.81848,299.65716 C 109.60503,299.72628 101.92739,301.47163 91.383626,313.56685 C 91.383626,313.56685 91.035886,303.87974 96.351374,297.27265 C 101.66686,290.66555 112.64557,287.13844 112.64557,287.13844 L 116.81848,299.65716 z "
       style="fill:#2828ff;fill-opacity:1;fill-rule:evenodd;stroke:#000000;stroke-width:3;stroke-linecap:butt;stroke-linejoin:miter;stroke-miterlimit:4;stroke-dasharray:none;stroke-opacity:1;display:inline"
       id="path2018" />
    <path
       d="M 128.34159,309.21934 C 127.77867,313.12729 123.42416,317.17576 116.95485,319.60838 C 116.95485,319.60838 128.44248,320.03093 133.11269,317.73975 C 137.78289,315.44856 136.68946,311.77846 136.68946,311.77846 L 128.34159,309.21934 z "
       style="fill:#2828ff;fill-opacity:1;fill-rule:evenodd;stroke:#000000;stroke-width:3;stroke-linecap:butt;stroke-linejoin:miter;stroke-miterlimit:4;stroke-dasharray:none;stroke-opacity:1;display:inline"
       id="path2020" />
    <path
       d="M 332.61731,564.13986 C 336.12316,566.38862 337.62572,570.03958 330.63022,579.63924 C 330.63022,579.63924 340.46635,574.96955 343.74507,570.89605 C 347.02377,566.82247 343.74507,563.34507 343.74507,563.34507 L 332.61731,564.13986 z "
       style="fill:#2828ff;fill-opacity:1;fill-rule:evenodd;stroke:#000000;stroke-width:3;stroke-linecap:butt;stroke-linejoin:miter;stroke-miterlimit:4;stroke-dasharray:none;stroke-opacity:1;display:inline"
       id="path2022" />
    <path
       d="M 308.77214,558.97344 C 308.32946,569.28375 298.60644,568.79382 287.70891,573.28053 C 287.70891,573.28053 302.51279,577.25477 309.56699,572.88313 C 316.62118,568.51149 319.89989,564.53725 319.89989,564.53725 L 308.77214,558.97344 z "
       style="fill:#2828ff;fill-opacity:1;fill-rule:evenodd;stroke:#000000;stroke-width:3;stroke-linecap:butt;stroke-linejoin:miter;stroke-miterlimit:4;stroke-dasharray:none;stroke-opacity:1;display:inline"
       id="path2024" />
    <path
       d="M 304.79794,553.80701 C 295.05075,542.81838 282.28473,552.96154 270.61985,555.39669 C 270.61985,555.39669 282.04567,543.47406 291.28567,540.6921 C 300.52568,537.91014 307.57987,544.26895 307.57987,544.26895 L 304.79794,553.80701 z "
       style="fill:#2828ff;fill-opacity:1;fill-rule:evenodd;stroke:#000000;stroke-width:3;stroke-linecap:butt;stroke-linejoin:miter;stroke-miterlimit:4;stroke-dasharray:none;stroke-opacity:1;display:inline"
       id="path2026" />
    <path
       d="M 311.55408,530.35926 C 307.6189,512.98437 291.84761,515.33629 278.96568,512.8727 C 278.96568,512.8727 298.04181,506.61335 307.9773,506.514 C 317.91278,506.41466 318.70763,512.47531 318.70763,512.47531 L 311.55408,530.35926 z "
       style="fill:#2828ff;fill-opacity:1;fill-rule:evenodd;stroke:#000000;stroke-width:3;stroke-linecap:butt;stroke-linejoin:miter;stroke-miterlimit:4;stroke-dasharray:none;stroke-opacity:1;display:inline"
       id="path2028" />
    <path
       d="M 248.76179,226.73067 C 248.76179,226.73067 207.23145,244.01842 179.61078,249.781 C 151.99012,255.54359 136.68946,247.79391 136.68946,247.79391 C 136.68946,247.79391 138.08043,239.24938 131.12559,240.24294 C 124.17075,241.23648 119.40171,246.00553 116.81848,250.97327 C 115.52686,253.45714 119.89848,254.94745 121.01623,257.40649 C 122.13397,259.86552 119.203,262.49843 119.203,262.49843 C 119.203,262.49843 112.84429,254.35133 109.66493,259.31908 C 106.48556,264.28682 103.1075,270.44682 105.2933,277.20295 C 106.38621,280.58102 110.45977,276.90489 113.46525,278.34554 C 116.47073,279.78618 116.02364,285.15134 116.02364,285.15134 C 116.02364,285.15134 108.47267,282.46876 109.66493,287.93328 C 110.85719,293.39781 110.45977,299.06103 114.83138,302.63781 C 119.203,306.21459 121.1901,298.26619 121.1901,298.26619 L 127.94623,303.83007 C 127.94623,303.83007 123.3759,307.80426 127.15139,310.98361 C 130.92688,314.16297 135.2985,316.54749 139.07397,316.54749 C 142.84946,316.54749 141.85591,308.99651 141.85591,308.99651 C 145.0401,305.16445 148.87934,302.6425 154.17592,303.03523 C 162.48716,306.13222 161.90294,311.89786 159.73979,318.13717 C 170.34379,318.4144 178.11081,313.01767 186.76432,309.39394 C 193.29828,310.38801 195.06431,313.17005 193.12304,317.34233 C 207.60396,321.96624 219.6023,315.4185 232.07016,310.98361 C 234.73944,313.15754 235.67856,316.36953 233.0637,321.71393 C 247.37081,300.51823 261.67792,292.3049 275.98502,297.07393 C 287.36105,314.01428 298.61827,324.75359 311.55408,337.0146 C 309.34118,359.62408 323.78861,379.61096 331.42506,394.24305 C 335.11163,401.30681 320.93916,412.86519 320.29731,415.10754 C 315.9513,430.29034 319.09569,454.4097 320.16093,454.05467 C 323.53963,447.20884 329.03537,444.59723 335.39925,443.72172 C 334.79623,448.63467 331.33477,451.4037 336.19408,460.41337 C 342.6903,467.09066 349.66433,472.57346 357.65474,475.51536 C 348.29398,487.43838 342.16514,501.52425 333.80957,514.46239 C 331.62302,517.84825 329.43796,516.25086 325.86117,514.46239 C 322.2844,512.67401 322.45488,506.87154 319.50247,507.30889 C 312.34741,508.36877 302.90968,526.305 306.46407,533.07301 C 309.09214,538.07709 311.65842,532.68143 313.32834,534.98357 C 314.99825,537.28581 315.37571,540.45725 313.14375,542.28178 C 310.9118,544.1063 307.57987,536.73789 304.40052,540.31463 C 301.22117,543.89148 301.68092,549.71019 302.67447,553.77877 C 303.66803,557.84725 307.39117,555.32438 307.39117,555.32438 L 308.98132,557.78406 C 307.50204,558.73237 306.54202,558.31625 307.16249,560.81799 C 308.10391,564.61366 316.34116,571.02866 319.77107,566.26754 C 321.09169,564.4343 321.49642,563.37231 321.54947,563.38152 L 328.50545,562.05053 C 330.13429,561.73887 328.16268,567.36238 329.22513,567.63268 C 333.9928,568.84519 345.18234,568.69337 348.16076,566.13114 C 352.23406,562.62699 346.28134,557.46808 353.03449,558.22682 C 353.03449,558.22682 354.78449,559.48029 356.17599,558.57975 C 381.40576,542.25093 398.83257,516.44886 400.57606,510.48824 C 402.34758,504.43179 399.58252,504.92433 402.76187,502.34117 C 405.94122,499.7579 413.29348,500.15529 413.29348,500.15529 C 413.29348,500.15529 426.90295,494.05587 414.88316,485.84821 C 405.18269,479.22431 395.77158,447.6509 398.98638,443.72172 C 398.23494,432.97144 391.92889,423.23118 385.47412,413.51786 C 383.60494,403.88176 386.59208,397.48319 391.03799,392.05718 C 393.5804,391.14191 430.22692,436.22682 442.70253,451.67011 C 458.56836,471.31017 480.05998,439.74758 480.05998,439.74758 C 480.05998,439.74758 494.36708,420.27397 493.37353,395.43523 C 492.37998,370.59655 476.08577,340.39266 476.08577,340.39266 C 472.52813,324.4635 482.55894,312.41675 493.57224,300.6507 C 483.05967,305.56302 472.10989,305.66613 462.57352,321.31652 C 462.57352,321.31652 459.99028,310.18877 462.17609,298.26619 C 464.3619,286.34361 476.4832,278.39521 476.4832,278.39521 C 462.25092,285.51708 450.30179,293.01947 448.66383,302.24039 C 444.23274,275.38116 456.82593,251.76465 474.4961,229.11519 C 456.09542,240.96876 439.86202,254.55617 431.9722,274.81843 C 421.90839,226.82492 459.43386,204.0923 500.72579,167.11773 C 531.71663,139.36722 507.0845,114.65835 507.0845,114.65835 C 483.40788,107.75244 463.77909,115.70883 447.47157,124.59384 C 447.47157,124.59384 431.8515,108.30053 422.43413,123.79901 C 411.51236,141.77334 402.77742,150.88615 407.72961,171.48934 C 405.17564,168.08404 429.75499,150.98036 448.66383,150.82353 C 463.88633,150.69729 453.03544,132.54224 453.03544,132.54224 C 453.03544,132.54224 491.58514,116.04933 499.13611,123.40159 C 506.68709,130.75385 509.3743,139.84848 489.99546,157.97707 L 440.71544,204.07775 C 416.94828,226.31154 410.57922,249.93963 424.02381,287.93328 C 438.34816,328.41312 480.92872,360.01969 480.25868,386.89076 C 479.58866,413.76183 482.20901,415.40319 474.49611,427.42756 C 466.78321,439.45194 460.75598,451.86941 446.27931,433.98496 C 431.80265,416.10052 412.62792,386.27985 397.19799,364.43654 C 372.19048,329.03484 361.18185,317.1933 351.29604,288.72812 C 341.41022,260.26295 353.68055,265.28036 353.28313,248.58874 C 352.88571,231.89712 349.70635,221.96163 349.70635,221.96163 L 248.76179,226.73067 z "
       style="fill:#e20909;fill-opacity:1;fill-rule:evenodd;stroke:#000000;stroke-width:3.00000024;stroke-linecap:butt;stroke-linejoin:miter;stroke-miterlimit:4;stroke-dasharray:none;stroke-opacity:1;display:inline"
       id="path2030" />
    <path
       d="M 316.63628,150.60028 C 296.69825,153.44455 277.64784,159.99236 255.93638,158.46878 C 226.47595,156.40143 235.05164,142.31259 239.07529,137.67345 C 242.90968,133.2525 258.0316,148.03516 271.11136,152.84842 C 286.28725,158.43303 301.46313,151.35605 316.63628,150.60028 z "
       style="fill:#2828ff;fill-opacity:1;fill-rule:evenodd;stroke:#000000;stroke-width:3.00000024;stroke-linecap:butt;stroke-linejoin:miter;stroke-miterlimit:4;stroke-dasharray:none;stroke-opacity:1;display:inline"
       id="path2032" />
    <path
       d="M 307.08168,137.67346 C 302.29311,132.58352 292.88615,132.32533 283.33564,133.59869 C 281.73541,131.41583 274.73422,127.32814 256.77943,128.11883 C 250.30834,119.91225 249.22185,106.95917 257.06045,101.98415 C 264.23171,97.432677 277.26693,99.538042 278.69884,98.611934 C 287.08784,93.18624 283.33564,85.966117 301.74233,82.874925 C 320.14901,79.783724 352.32558,86.247137 352.32558,86.247137 C 352.32558,86.247137 362.86376,81.188814 369.46769,80.626774 C 376.0716,80.064743 375.50957,80.064743 378.74128,83.998996 C 381.97299,87.933248 385.27495,89.689611 382.39452,96.363793 C 379.51409,103.03797 367.21954,110.69571 367.21954,110.69571 C 367.21954,110.69571 361.45867,127.76756 367.21954,139.64057 C 372.98041,151.51358 393.0732,159.87387 393.0732,159.87387 C 383.98232,160.35297 376.97129,162.02056 373.12092,165.49424 C 370.96644,167.18034 369.10347,170.42834 370.02972,173.08172 C 372.2181,179.35066 384.08062,189.9428 384.08062,189.9428 C 384.08062,189.9428 379.23305,187.69466 376.77415,193.59604 C 374.31524,199.49742 374.24499,213.54832 374.24499,213.54832 C 374.24499,213.54832 358.64793,213.74875 354.85474,224.22701 C 349.60258,238.73549 362.30846,260.62929 364.97139,256.82511 C 364.97139,256.82511 356.68135,259.98657 350.35846,257.66816 C 344.03555,255.34977 338.27468,247.55151 338.27468,247.55151 C 332.204,248.65256 327.12641,251.61593 324.78581,255.70103 C 285.02633,242.63827 274.6342,258.94286 264.92896,275.93433 C 261.91524,278.98507 258.20056,280.28339 253.68823,279.58758 C 259.69874,271.98053 260.6245,263.10231 260.71368,254.01493 C 244.00831,255.0701 228.52054,269.17386 206.75822,266.09871 C 218.02355,258.50233 223.94101,248.7668 220.24708,235.18671 C 210.99003,229.50903 197.70837,228.66086 184.83881,227.31821 C 224.2796,218.9245 248.97649,208.92033 254.81231,193.59604 L 280.66597,191.3479 C 289.97774,185.77516 290.23354,181.0257 291.62567,176.17292 C 285.30584,169.47022 274.90547,175.05604 266.05304,172.51969 C 262.32128,171.45049 262.06976,166.61995 263.84201,165.2979 C 264.72814,164.63688 265.70326,162.23228 267.22448,161.91156 C 268.7457,161.59085 270.81301,163.35404 272.75947,163.16009 C 280.01279,162.43737 303.0402,162.00201 310.45389,160.71692 C 314.9906,152.40928 313.08485,144.05445 307.08168,137.67346 z "
       style="fill:#e20909;fill-opacity:1;fill-rule:evenodd;stroke:#000000;stroke-width:3.00000024;stroke-linecap:butt;stroke-linejoin:miter;stroke-miterlimit:4;stroke-dasharray:none;stroke-opacity:1;display:inline"
       id="path2034" />
    <path
       d="M 320.69472,100.7486 C 320.69769,102.72499 317.31613,104.32791 313.14375,104.32791 C 308.97138,104.32791 305.58981,102.72499 305.59278,100.7486 C 305.58981,98.772214 308.97138,97.16929 313.14375,97.16929 C 317.31613,97.16929 320.69769,98.772214 320.69472,100.7486 z "
       style="fill:#000000;fill-opacity:1;fill-rule:evenodd;stroke:#000000;stroke-width:3.00000024;stroke-linecap:butt;stroke-linejoin:miter;stroke-miterlimit:4;stroke-dasharray:none;stroke-opacity:1;display:inline"
       id="path2036" />
    <path
       d="M 301.84637,359.38781 C 298.5059,359.32891 296.10274,360.88665 293.33364,361.79767 C 303.46069,369.8292 313.54884,377.8697 313.70786,388.43124 C 305.79156,404.96548 313.90377,408.47611 324.59914,409.90083 C 328.67674,405.30278 333.82235,398.852 331.42184,394.25244 C 327.7293,387.17723 322.46979,378.82963 318.24589,369.55927 C 316.44722,367.66245 314.39962,365.67193 311.98653,363.51899 C 307.61264,360.45886 304.44452,359.43363 301.84637,359.38781 z "
       style="fill:#e20909;fill-opacity:1;fill-rule:evenodd;stroke:#000000;stroke-width:3.00000024;stroke-linecap:butt;stroke-linejoin:miter;stroke-miterlimit:4;stroke-dasharray:none;stroke-opacity:1"
       id="path3914" />
  </g>
  <g
     id="layer1">
    <path
       d="M 299.99999,658.50028 C 299.99999,658.50028 1.5,546.17992 1.5,260.72828 C 1.5,-24.723336 1.5,2.1764957 1.5,2.1764957 L 598.49999,2.1764957 L 598.49999,260.72828 C 598.49999,546.17992 299.99999,658.50028 299.99999,658.50028 z "
       style="opacity:1;fill:none;fill-opacity:1;fill-rule:evenodd;stroke:#000000;stroke-width:3.00000048;stroke-linecap:butt;stroke-linejoin:miter;stroke-miterlimit:4;stroke-dasharray:none;stroke-opacity:1"
       id="path1411" />
  </g>
  <g
     transform="matrix(0.5482499,0,0,0.5573487,-14.386707,-17.249017)"
     id="layer4">
    <path
       d="M 139.87592,158.53775 C 129.86773,166.08273 114.88812,167.38599 108.96392,159.94284 C 108.96392,159.94284 119.02614,162.29836 123.57686,156.85166 C 129.75262,149.45996 129.97663,145.96759 130.88335,147.57805 L 139.87592,158.53775 z "
       style="fill:#e20909;fill-opacity:1;fill-rule:evenodd;stroke:#000000;stroke-width:3;stroke-linecap:butt;stroke-linejoin:miter;stroke-miterlimit:4;stroke-dasharray:none;stroke-opacity:1;display:inline"
       id="path2740" />
    <path
       d="M 120.76668,126.78273 C 112.00297,119.93721 101.4343,120.72021 97.16117,131.84104 C 96.0293,131.41658 97.6393,117.91201 102.50051,113.01283 C 107.4991,107.97519 108.82341,106.19814 116.2704,105.98738 C 123.71737,105.77662 133.13148,110.20265 133.13148,110.20265 L 120.76668,126.78273 z "
       style="fill:#e20909;fill-opacity:1;fill-rule:evenodd;stroke:#000000;stroke-width:3;stroke-linecap:butt;stroke-linejoin:miter;stroke-miterlimit:4;stroke-dasharray:none;stroke-opacity:1;display:inline"
       id="path2742" />
    <path
       d="M 135.94167,95.87073 C 131.34587,83.29728 128.17281,70.13243 108.40189,72.2652 C 108.40189,72.2652 118.26987,66.0368 129.75926,67.76892 C 143.95642,69.90924 154.39856,87.15081 153.6458,87.44019 L 135.94167,95.87073 z "
       style="fill:#e20909;fill-opacity:1;fill-rule:evenodd;stroke:#000000;stroke-width:3;stroke-linecap:butt;stroke-linejoin:miter;stroke-miterlimit:4;stroke-dasharray:none;stroke-opacity:1;display:inline"
       id="path2744" />
    <path
       d="M 168.53976,88.28324 C 174.52835,82.56275 173.89027,70.21557 175.84623,60.46244 C 175.84623,60.46244 183.50398,67.13663 185.40085,76.48047 C 187.29772,85.82434 183.43371,97.83786 183.43371,97.83786 L 168.53976,88.28324 z "
       style="fill:#e20909;fill-opacity:1;fill-rule:evenodd;stroke:#000000;stroke-width:3;stroke-linecap:butt;stroke-linejoin:miter;stroke-miterlimit:4;stroke-dasharray:none;stroke-opacity:1;display:inline"
       id="path2746" />
    <path
       d="M 158.15012,405.57469 C 159.23859,390.75252 144.06495,382.24881 129.33719,382.32562 C 129.33719,382.32562 146.92301,375.51985 156.95786,379.14627 C 166.99271,382.77269 170.66884,388.48563 170.66884,388.48563 L 158.15012,405.57469 z "
       style="fill:#e20909;fill-opacity:1;fill-rule:evenodd;stroke:#000000;stroke-width:3;stroke-linecap:butt;stroke-linejoin:miter;stroke-miterlimit:4;stroke-dasharray:none;stroke-opacity:1;display:inline"
       id="path2748" />
    <path
       d="M 150.59914,427.83013 C 137.52996,416.40413 128.91448,427.93563 117.61333,432.99663 C 117.61333,432.99663 124.96559,415.55993 133.90752,410.14503 C 142.84947,404.73022 153.38108,411.33733 153.38108,411.33733 L 150.59914,427.83013 z "
       style="fill:#e20909;fill-opacity:1;fill-rule:evenodd;stroke:#000000;stroke-width:3;stroke-linecap:butt;stroke-linejoin:miter;stroke-miterlimit:4;stroke-dasharray:none;stroke-opacity:1;display:inline"
       id="path2750" />
    <path
       d="M 160.53464,447.89983 C 155.25436,450.35903 150.73329,455.85493 148.61206,470.95023 C 148.61206,470.95023 146.42624,456.94113 147.81722,449.48953 C 149.20818,442.03793 154.17592,441.14373 154.17592,441.14373 L 160.53464,447.89983 z "
       style="fill:#e20909;fill-opacity:1;fill-rule:evenodd;stroke:#000000;stroke-width:3;stroke-linecap:butt;stroke-linejoin:miter;stroke-miterlimit:4;stroke-dasharray:none;stroke-opacity:1;display:inline"
       id="path2752" />
    <path
       d="M 190.73853,450.28443 C 186.24235,454.86753 185.83086,461.20133 188.75142,468.96313 C 188.75142,468.96313 180.80304,458.72953 178.81594,453.46373 C 176.82884,448.19793 180.80303,447.89983 180.80303,447.89983 L 190.73853,450.28443 z "
       style="fill:#e20909;fill-opacity:1;fill-rule:evenodd;stroke:#000000;stroke-width:3;stroke-linecap:butt;stroke-linejoin:miter;stroke-miterlimit:4;stroke-dasharray:none;stroke-opacity:1;display:inline"
       id="path2754" />
    <path
       d="M 120.59398,221.96685 C 118.14191,215.52682 110.62239,209.86639 101.31911,204.48039 C 101.31911,204.48039 114.18557,205.87136 121.78623,208.45459 C 129.38688,211.03782 131.72172,214.8133 131.72172,214.8133 L 120.59398,221.96685 z "
       style="fill:#e20909;fill-opacity:1;fill-rule:evenodd;stroke:#000000;stroke-width:3;stroke-linecap:butt;stroke-linejoin:miter;stroke-miterlimit:4;stroke-dasharray:none;stroke-opacity:1;display:inline"
       id="path2756" />
    <path
       d="M 109.86364,245.61331 C 99.63054,238.52871 91.92963,246.6372 83.63396,251.1772 C 83.63396,251.1772 90.7975,238.01119 98.14976,233.34151 C 105.50201,228.67184 113.04299,232.49847 113.04299,232.49847 L 109.86364,245.61331 z "
       style="fill:#e20909;fill-opacity:1;fill-rule:evenodd;stroke:#000000;stroke-width:3;stroke-linecap:butt;stroke-linejoin:miter;stroke-miterlimit:4;stroke-dasharray:none;stroke-opacity:1;display:inline"
       id="path2758" />
    <path
       d="M 116.81849,269.6572 C 109.60504,269.72632 101.92739,271.47167 91.38363,283.56689 C 91.38363,283.56689 91.03589,273.87978 96.35138,267.27269 C 101.66687,260.66559 112.64558,257.13848 112.64558,257.13848 L 116.81849,269.6572 z "
       style="fill:#e20909;fill-opacity:1;fill-rule:evenodd;stroke:#000000;stroke-width:3;stroke-linecap:butt;stroke-linejoin:miter;stroke-miterlimit:4;stroke-dasharray:none;stroke-opacity:1;display:inline"
       id="path2760" />
    <path
       d="M 128.34159,279.21938 C 127.77867,283.12733 123.42417,287.1758 116.95486,289.60842 C 116.95486,289.60842 128.44248,290.03097 133.11269,287.73979 C 137.78289,285.4486 136.68947,281.7785 136.68947,281.7785 L 128.34159,279.21938 z "
       style="fill:#e20909;fill-opacity:1;fill-rule:evenodd;stroke:#000000;stroke-width:3;stroke-linecap:butt;stroke-linejoin:miter;stroke-miterlimit:4;stroke-dasharray:none;stroke-opacity:1;display:inline"
       id="path2762" />
    <path
       d="M 332.61731,534.13993 C 336.12316,536.38863 337.62572,540.03963 330.63022,549.63923 C 330.63022,549.63923 340.46635,544.96963 343.74507,540.89613 C 347.02377,536.82253 343.74507,533.34513 343.74507,533.34513 L 332.61731,534.13993 z "
       style="fill:#e20909;fill-opacity:1;fill-rule:evenodd;stroke:#000000;stroke-width:3;stroke-linecap:butt;stroke-linejoin:miter;stroke-miterlimit:4;stroke-dasharray:none;stroke-opacity:1;display:inline"
       id="path2764" />
    <path
       d="M 308.77214,528.97343 C 308.32946,539.28383 298.60644,538.79383 287.70891,543.28053 C 287.70891,543.28053 302.51279,547.25483 309.56699,542.88313 C 316.62118,538.51153 319.89989,534.53733 319.89989,534.53733 L 308.77214,528.97343 z "
       style="fill:#e20909;fill-opacity:1;fill-rule:evenodd;stroke:#000000;stroke-width:3;stroke-linecap:butt;stroke-linejoin:miter;stroke-miterlimit:4;stroke-dasharray:none;stroke-opacity:1;display:inline"
       id="path2766" />
    <path
       d="M 304.79794,523.80703 C 295.05075,512.81843 282.28473,522.96153 270.61985,525.39673 C 270.61985,525.39673 282.04567,513.47413 291.28567,510.69213 C 300.52568,507.91013 307.57987,514.26903 307.57987,514.26903 L 304.79794,523.80703 z "
       style="fill:#e20909;fill-opacity:1;fill-rule:evenodd;stroke:#000000;stroke-width:3;stroke-linecap:butt;stroke-linejoin:miter;stroke-miterlimit:4;stroke-dasharray:none;stroke-opacity:1;display:inline"
       id="path2768" />
    <path
       d="M 311.55408,500.35933 C 307.6189,482.98443 291.84761,485.33633 278.96568,482.87273 C 278.96568,482.87273 298.04181,476.61343 307.9773,476.51403 C 317.91278,476.41473 318.70763,482.47533 318.70763,482.47533 L 311.55408,500.35933 z "
       style="fill:#e20909;fill-opacity:1;fill-rule:evenodd;stroke:#000000;stroke-width:3;stroke-linecap:butt;stroke-linejoin:miter;stroke-miterlimit:4;stroke-dasharray:none;stroke-opacity:1;display:inline"
       id="path2770" />
    <path
       d="M 316.63628,114.60032 C 296.69825,117.44459 277.64784,123.9924 255.93638,122.46882 C 226.47595,120.40147 235.05164,106.31263 239.07529,101.67349 C 242.90968,97.25254 258.0316,112.0352 271.11136,116.84846 C 286.28725,122.43307 301.46313,115.35609 316.63628,114.60032 z "
       style="fill:#e20909;fill-opacity:1;fill-rule:evenodd;stroke:#000000;stroke-width:3.00000024;stroke-linecap:butt;stroke-linejoin:miter;stroke-miterlimit:4;stroke-dasharray:none;stroke-opacity:1;display:inline"
       id="path2772" />
    <g
       id="g5704">
      <path
         d="M 213.22163,199.28538 L 203.38599,194.43782 C 206.95283,190.63866 202.88131,187.60335 199.17073,184.53193 C 196.96799,180.88204 192.93518,180.84658 188.49204,182.4243 C 187.85162,175.45279 182.79427,174.1602 176.9703,173.85325 C 175.67273,163.22009 170.35992,163.82963 165.44857,163.31507 C 163.46935,157.88504 159.88571,156.85997 156.59649,157.6947 C 155.51334,155.73201 152.55497,155.17574 145.49627,157.6947 C 145.49627,157.6947 140.99999,165.4227 135.94167,163.31507 C 130.88335,161.20743 125.96552,155.16555 124.1389,150.95028 C 122.31228,146.735 131.02384,147.57806 130.88334,142.51973 C 130.74283,137.46141 127.3706,133.80817 123.57686,130.71697 C 119.78313,127.62577 114.30326,130.99799 115.28683,123.69152 C 116.2704,116.38505 116.72704,109.71088 121.60974,105.84689 C 126.49242,101.98288 134.81759,108.23553 134.81759,108.23553 C 134.81759,108.23553 140.26231,107.25198 139.26118,104.05539 C 138.26005,100.85881 130.81308,95.44921 133.69352,91.65547 C 139.45438,84.06797 143.81016,80.48499 150.83562,80.41474 C 157.86107,80.34448 155.26166,91.30419 159.68769,92.2175 C 164.11372,93.13081 164.92165,82.17109 171.91198,84.91102 C 178.9023,87.65095 188.01314,93.12854 185.68185,100.64804 C 183.70118,107.03669 181.35673,104.8171 182.12677,107.09562 C 183.20263,110.27911 180.20853,107.46547 191.58323,117.93065 C 196.41613,122.37709 203.08303,128.70154 210.71168,134.6902 C 218.34033,140.67884 227.0947,148.88435 234.6273,154.91526 C 242.1599,160.94618 249.31379,163.39739 254.30351,167.4321 C 259.29323,171.46679 262.39979,173.99375 262.39979,173.99375 L 213.22163,199.28538 z "
         style="fill:#000000;fill-opacity:1;fill-rule:evenodd;stroke:#313131;stroke-width:3.00000024;stroke-linecap:butt;stroke-linejoin:miter;stroke-miterlimit:4;stroke-dasharray:none;stroke-opacity:1;display:inline"
         id="path2775" />
      <path
         d="M 269.57938,324.03611 C 263.73161,324.03745 258.09655,324.37738 253.11727,325.19409 C 226.56107,329.54988 218.28393,347.66519 218.28393,347.66519 C 218.28393,347.66519 236.39921,374.21763 227.26611,386.44191 C 218.13303,398.66619 193.10891,404.93601 183.41931,396.55077 L 176.12716,390.22882 C 172.56248,387.144 174.01722,382.37993 168.39685,385.19003 C 162.77648,388.00023 157.58244,395.91462 156.44148,398.80414 C 153.26848,406.84004 164.32827,407.25427 164.32827,407.25427 L 160.94821,410.03973 C 160.62864,410.75863 157.06519,404.92309 153.65606,407.25427 C 148.24068,410.95733 146.34859,420.45993 146.4891,426.50183 C 146.62961,432.54373 154.2194,431.41543 154.2194,431.41543 L 155.90943,437.58083 C 155.90943,437.58083 150.96585,438.57613 151.52788,442.65093 C 152.08994,446.72573 158.45548,450.93133 161.51156,451.91483 C 164.56762,452.89833 166.14349,447.15763 166.14349,447.15763 L 178.38053,444.90433 C 178.38053,444.90433 175.27793,448.82033 180.19575,450.50643 C 185.11355,452.19253 188.94183,453.19463 193.40299,451.78963 C 197.86415,450.38453 194.68616,443.90283 194.68616,443.90283 C 227.19151,434.32233 262.26487,428.50143 303.72417,431.97873 C 291.27581,416.16783 288.11434,396.99824 289.10858,376.33304 C 305.36007,373.15747 314.77888,376.8017 323.37856,381.27794 C 327.52543,376.6853 334.07236,369.33107 331.42184,364.25248 C 326.28704,354.41377 318.085,342.14268 313.92694,328.29246 C 303.04272,326.46935 285.49481,324.03246 269.57938,324.03611 z "
         style="fill:#000000;fill-opacity:1;fill-rule:evenodd;stroke:#313131;stroke-width:3.00000024;stroke-linecap:butt;stroke-linejoin:miter;stroke-miterlimit:4;stroke-dasharray:none;stroke-opacity:1;display:inline"
         id="path2777" />
      <path
         d="M 248.76179,196.73071 C 248.76179,196.73071 207.23145,214.01846 179.61078,219.78104 C 151.99012,225.54363 136.68947,217.79395 136.68947,217.79395 C 136.68947,217.79395 138.08043,209.24942 131.12559,210.24298 C 124.17075,211.23652 119.40171,216.00557 116.81849,220.97331 C 115.52686,223.45718 119.89849,224.94749 121.01623,227.40653 C 122.13397,229.86556 119.203,232.49847 119.203,232.49847 C 119.203,232.49847 112.84429,224.35137 109.66493,229.31912 C 106.48557,234.28686 103.1075,240.44686 105.29331,247.20299 C 106.38621,250.58106 110.45977,246.90493 113.46526,248.34558 C 116.47073,249.78622 116.02365,255.15138 116.02365,255.15138 C 116.02365,255.15138 108.47267,252.4688 109.66493,257.93332 C 110.85719,263.39785 110.45977,269.06107 114.83138,272.63785 C 119.203,276.21463 121.1901,268.26623 121.1901,268.26623 L 127.94624,273.83011 C 127.94624,273.83011 123.37591,277.8043 127.1514,280.98365 C 130.92689,284.16301 135.2985,286.54753 139.07398,286.54753 C 142.84947,286.54753 141.85591,278.99655 141.85591,278.99655 C 145.0401,275.16449 148.87934,272.64254 154.17592,273.03527 C 162.48716,276.13226 161.90294,281.8979 159.7398,288.13721 C 170.34379,288.41444 178.11081,283.01771 186.76432,279.39398 C 193.29828,280.38805 195.06431,283.17009 193.12304,287.34237 C 207.60396,291.96628 219.6023,285.41854 232.07016,280.98365 C 234.73944,283.15758 235.67856,286.36957 233.0637,291.71397 C 247.37081,270.51827 261.67792,262.30494 275.98502,267.07397 C 287.36105,284.01432 298.61827,294.75363 311.55408,307.01464 C 309.34118,329.62412 323.78861,349.611 331.42506,364.24309 C 335.11163,371.30685 320.93916,382.86523 320.29731,385.10758 C 315.9513,400.29038 319.09569,424.40973 320.16093,424.05473 C 323.53963,417.20883 329.03537,414.59723 335.39925,413.72173 C 334.79623,418.63473 331.33477,421.40373 336.19408,430.41343 C 342.6903,437.09073 349.66433,442.57353 357.65474,445.51543 C 348.29398,457.43843 342.16514,471.52433 333.80957,484.46243 C 331.62302,487.84833 329.43796,486.25093 325.86117,484.46243 C 322.2844,482.67403 322.45488,476.87153 319.50247,477.30893 C 312.34741,478.36883 302.90968,496.30503 306.46407,503.07303 C 309.09214,508.07713 311.65842,502.68143 313.32834,504.98363 C 314.99825,507.28583 315.37571,510.45733 313.14375,512.28183 C 310.9118,514.10633 307.57987,506.73793 304.40052,510.31463 C 301.22117,513.89153 301.68092,519.71023 302.67447,523.77883 C 303.66803,527.84733 307.39117,525.32443 307.39117,525.32443 L 308.98132,527.78413 C 307.50204,528.73243 306.54202,528.31633 307.16249,530.81803 C 308.10391,534.61373 316.34116,541.02873 319.77107,536.26753 C 321.09169,534.43433 321.49642,533.37233 321.54947,533.38153 L 328.50545,532.05053 C 330.13429,531.73893 328.16268,537.36243 329.22513,537.63273 C 333.9928,538.84523 345.18234,538.69343 348.16076,536.13113 C 352.23406,532.62703 346.28134,527.46813 353.03449,528.22683 C 353.03449,528.22683 354.78449,529.48033 356.17599,528.57983 C 381.40576,512.25093 398.83257,486.44893 400.57606,480.48823 C 402.34758,474.43183 399.58252,474.92433 402.76187,472.34123 C 405.94122,469.75793 413.29348,470.15533 413.29348,470.15533 C 413.29348,470.15533 426.90295,464.05593 414.88316,455.84823 C 405.18269,449.22433 395.77158,417.65093 398.98638,413.72173 C 398.23494,402.97148 391.92889,393.23122 385.47412,383.5179 C 383.60494,373.8818 386.59208,367.48323 391.03799,362.05722 C 393.5804,361.14195 430.22692,406.22686 442.70253,421.67013 C 458.56836,441.31023 480.05998,409.74763 480.05998,409.74763 C 480.05998,409.74763 494.36708,390.27401 493.37353,365.43527 C 492.37998,340.59659 476.08577,310.3927 476.08577,310.3927 C 472.52813,294.46354 482.55894,282.41679 493.57224,270.65074 C 483.05967,275.56306 472.10989,275.66617 462.57352,291.31656 C 462.57352,291.31656 459.99028,280.18881 462.17609,268.26623 C 464.3619,256.34365 476.4832,248.39525 476.4832,248.39525 C 462.25092,255.51712 450.30179,263.01951 448.66383,272.24043 C 444.23274,245.3812 456.82593,221.76469 474.4961,199.11523 C 456.09542,210.9688 439.86202,224.55621 431.9722,244.81847 C 421.90839,196.82496 459.43386,174.09234 500.72579,137.11777 C 531.7166,109.36726 507.0845,84.65839 507.0845,84.65839 C 483.40788,77.75247 463.77909,85.70887 447.47157,94.59388 C 447.47157,94.59388 431.8515,78.30056 422.43413,93.79905 C 411.51236,111.77338 402.77742,120.88619 407.72961,141.48938 C 405.17564,138.08408 429.75499,120.9804 448.66383,120.82358 C 463.88633,120.69733 453.03544,102.54228 453.03544,102.54228 C 453.03544,102.54228 491.58514,86.04936 499.13611,93.40163 C 506.6871,100.75389 509.3743,109.84852 489.99546,127.97711 L 440.71544,174.07779 C 416.94828,196.31158 410.57922,219.93967 424.02381,257.93332 C 438.34816,298.41316 480.92872,330.01973 480.25868,356.8908 C 479.58866,383.76187 482.20901,385.40323 474.49611,397.4276 C 466.78321,409.45193 460.75598,421.86943 446.27931,403.985 C 431.80265,386.10056 412.62792,356.27989 397.19799,334.43658 C 372.19048,299.03488 361.18185,287.19334 351.29604,258.72816 C 341.41022,230.26299 353.68055,235.2804 353.28313,218.58878 C 352.88571,201.89716 349.70635,191.96167 349.70635,191.96167 L 248.76179,196.73071 z "
         style="fill:#000000;fill-opacity:1;fill-rule:evenodd;stroke:#313131;stroke-width:3.00000024;stroke-linecap:butt;stroke-linejoin:miter;stroke-miterlimit:4;stroke-dasharray:none;stroke-opacity:1;display:inline"
         id="path2779" />
      <g
         id="g5700">
        <path
           d="M 307.08168,107.6735 C 302.29311,102.58356 292.88615,102.32537 283.33564,103.59873 C 281.73541,101.41587 274.73422,97.32818 256.77943,98.11887 C 250.30834,89.91228 249.22185,76.9592 257.06045,71.98419 C 264.23171,67.43271 277.26693,69.53808 278.69884,68.61197 C 287.08784,63.18628 283.33564,55.96615 301.74233,52.87496 C 320.14901,49.78376 352.32558,56.24717 352.32558,56.24717 C 352.32558,56.24717 362.86376,51.18885 369.46769,50.62681 C 376.0716,50.06478 375.50957,50.06478 378.74128,53.99903 C 381.97299,57.93328 385.27495,59.68965 382.39452,66.36383 C 379.51409,73.03801 367.21954,80.69574 367.21954,80.69574 C 367.21954,80.69574 361.45867,97.7676 367.21954,109.64061 C 372.98041,121.51362 393.0732,129.87391 393.0732,129.87391 C 383.98232,130.35301 376.97129,132.0206 373.12092,135.49428 C 370.96644,137.18038 369.10347,140.42838 370.02972,143.08176 C 372.2181,149.3507 384.08062,159.94284 384.08062,159.94284 C 384.08062,159.94284 379.23305,157.6947 376.77415,163.59608 C 374.31524,169.49746 374.24499,183.54836 374.24499,183.54836 C 374.24499,183.54836 358.64793,183.74879 354.85474,194.22705 C 349.60258,208.73553 362.30846,230.62933 364.97139,226.82515 C 364.97139,226.82515 356.68135,229.98661 350.35846,227.6682 C 344.03555,225.34981 338.27468,217.55155 338.27468,217.55155 C 332.204,218.6526 327.12641,221.61597 324.78581,225.70107 C 285.02633,212.63831 274.6342,228.9429 264.92896,245.93437 C 261.91524,248.98511 258.20056,250.28343 253.68823,249.58762 C 259.69874,241.98057 260.6245,233.10235 260.71368,224.01497 C 244.00831,225.07014 228.52054,239.1739 206.75822,236.09875 C 218.02355,228.50237 223.94101,218.76684 220.24708,205.18675 C 210.99003,199.50907 197.70837,198.6609 184.83881,197.31825 C 224.2796,188.92454 248.97649,178.92037 254.81231,163.59608 L 280.66597,161.34794 C 289.97774,155.7752 290.23354,151.02574 291.62567,146.17296 C 285.30584,139.47026 274.90547,145.05608 266.05304,142.51973 C 262.32128,141.45053 262.06976,136.61999 263.84201,135.29794 C 264.72814,134.63692 265.70326,132.23232 267.22448,131.9116 C 268.7457,131.59089 270.81301,133.35408 272.75947,133.16013 C 280.01279,132.43741 303.0402,132.00205 310.45389,130.71696 C 314.9906,122.40932 313.08485,114.05449 307.08168,107.6735 z "
           style="fill:#000000;fill-opacity:1;fill-rule:evenodd;stroke:#313131;stroke-width:3.00000024;stroke-linecap:butt;stroke-linejoin:miter;stroke-miterlimit:4;stroke-dasharray:none;stroke-opacity:1;display:inline"
           id="path2782" />
        <path
           d="M 321.88495,70.74864 C 321.88838,73.03655 317.9738,74.89214 313.14375,74.89214 C 308.31371,74.89214 304.39912,73.03655 304.40255,70.74864 C 304.39912,68.46072 308.31371,66.60514 313.14375,66.60514 C 317.9738,66.60514 321.88838,68.46072 321.88495,70.74864 z "
           style="fill:#404040;fill-opacity:1;fill-rule:evenodd;stroke:#313131;stroke-width:3;stroke-linecap:butt;stroke-linejoin:miter;stroke-miterlimit:4;stroke-dasharray:none;stroke-opacity:1;display:inline"
           id="path2784" />
      </g>
      <path
         d="M 301.84637,329.38785 C 298.5059,329.32895 296.10274,330.88669 293.33364,331.79771 C 303.46069,339.82924 313.54884,347.86974 313.70786,358.43128 C 305.79156,374.96552 313.90377,378.47615 324.59914,379.90087 C 328.67674,375.30282 333.82235,368.85204 331.42184,364.25248 C 327.7293,357.17727 322.46979,348.82967 318.24589,339.55931 C 316.44722,337.66249 314.39962,335.67197 311.98653,333.51903 C 307.61264,330.4589 304.44452,329.43367 301.84637,329.38785 z "
         style="fill:#000000;fill-opacity:1;fill-rule:evenodd;stroke:#313131;stroke-width:3.00000024;stroke-linecap:butt;stroke-linejoin:miter;stroke-miterlimit:4;stroke-dasharray:none;stroke-opacity:1"
         id="path2786" />
    </g>
  </g>
  <g
     transform="matrix(0.4147315,0,0,0.4903817,284.70841,298.21506)"
     id="g3801">
    <path
       d="M 139.87592,158.53775 C 129.86773,166.08273 114.88812,167.38599 108.96392,159.94284 C 108.96392,159.94284 119.02614,162.29836 123.57686,156.85166 C 129.75262,149.45996 129.97663,145.96759 130.88335,147.57805 L 139.87592,158.53775 z "
       style="fill:#e20909;fill-opacity:1;fill-rule:evenodd;stroke:#000000;stroke-width:3;stroke-linecap:butt;stroke-linejoin:miter;stroke-miterlimit:4;stroke-dasharray:none;stroke-opacity:1;display:inline"
       id="path3803" />
    <path
       d="M 120.76668,126.78273 C 112.00297,119.93721 101.4343,120.72021 97.16117,131.84104 C 96.0293,131.41658 97.6393,117.91201 102.50051,113.01283 C 107.4991,107.97519 108.82341,106.19814 116.2704,105.98738 C 123.71737,105.77662 133.13148,110.20265 133.13148,110.20265 L 120.76668,126.78273 z "
       style="fill:#e20909;fill-opacity:1;fill-rule:evenodd;stroke:#000000;stroke-width:3;stroke-linecap:butt;stroke-linejoin:miter;stroke-miterlimit:4;stroke-dasharray:none;stroke-opacity:1;display:inline"
       id="path3805" />
    <path
       d="M 135.94167,95.87073 C 131.34587,83.29728 128.17281,70.13243 108.40189,72.2652 C 108.40189,72.2652 118.26987,66.0368 129.75926,67.76892 C 143.95642,69.90924 154.39856,87.15081 153.6458,87.44019 L 135.94167,95.87073 z "
       style="fill:#e20909;fill-opacity:1;fill-rule:evenodd;stroke:#000000;stroke-width:3;stroke-linecap:butt;stroke-linejoin:miter;stroke-miterlimit:4;stroke-dasharray:none;stroke-opacity:1;display:inline"
       id="path3807" />
    <path
       d="M 168.53976,88.28324 C 174.52835,82.56275 173.89027,70.21557 175.84623,60.46244 C 175.84623,60.46244 183.50398,67.13663 185.40085,76.48047 C 187.29772,85.82434 183.43371,97.83786 183.43371,97.83786 L 168.53976,88.28324 z "
       style="fill:#e20909;fill-opacity:1;fill-rule:evenodd;stroke:#000000;stroke-width:3;stroke-linecap:butt;stroke-linejoin:miter;stroke-miterlimit:4;stroke-dasharray:none;stroke-opacity:1;display:inline"
       id="path3809" />
    <path
       d="M 158.15012,405.57469 C 159.23859,390.75252 144.06495,382.24881 129.33719,382.32562 C 129.33719,382.32562 146.92301,375.51985 156.95786,379.14627 C 166.99271,382.77269 170.66884,388.48563 170.66884,388.48563 L 158.15012,405.57469 z "
       style="fill:#e20909;fill-opacity:1;fill-rule:evenodd;stroke:#000000;stroke-width:3;stroke-linecap:butt;stroke-linejoin:miter;stroke-miterlimit:4;stroke-dasharray:none;stroke-opacity:1;display:inline"
       id="path3811" />
    <path
       d="M 150.59914,427.83013 C 137.52996,416.40413 128.91448,427.93563 117.61333,432.99663 C 117.61333,432.99663 124.96559,415.55993 133.90752,410.14503 C 142.84947,404.73022 153.38108,411.33733 153.38108,411.33733 L 150.59914,427.83013 z "
       style="fill:#e20909;fill-opacity:1;fill-rule:evenodd;stroke:#000000;stroke-width:3;stroke-linecap:butt;stroke-linejoin:miter;stroke-miterlimit:4;stroke-dasharray:none;stroke-opacity:1;display:inline"
       id="path3813" />
    <path
       d="M 160.53464,447.89983 C 155.25436,450.35903 150.73329,455.85493 148.61206,470.95023 C 148.61206,470.95023 146.42624,456.94113 147.81722,449.48953 C 149.20818,442.03793 154.17592,441.14373 154.17592,441.14373 L 160.53464,447.89983 z "
       style="fill:#e20909;fill-opacity:1;fill-rule:evenodd;stroke:#000000;stroke-width:3;stroke-linecap:butt;stroke-linejoin:miter;stroke-miterlimit:4;stroke-dasharray:none;stroke-opacity:1;display:inline"
       id="path3815" />
    <path
       d="M 190.73853,450.28443 C 186.24235,454.86753 185.83086,461.20133 188.75142,468.96313 C 188.75142,468.96313 180.80304,458.72953 178.81594,453.46373 C 176.82884,448.19793 180.80303,447.89983 180.80303,447.89983 L 190.73853,450.28443 z "
       style="fill:#e20909;fill-opacity:1;fill-rule:evenodd;stroke:#000000;stroke-width:3;stroke-linecap:butt;stroke-linejoin:miter;stroke-miterlimit:4;stroke-dasharray:none;stroke-opacity:1;display:inline"
       id="path3817" />
    <path
       d="M 120.59398,221.96685 C 118.14191,215.52682 110.62239,209.86639 101.31911,204.48039 C 101.31911,204.48039 114.18557,205.87136 121.78623,208.45459 C 129.38688,211.03782 131.72172,214.8133 131.72172,214.8133 L 120.59398,221.96685 z "
       style="fill:#e20909;fill-opacity:1;fill-rule:evenodd;stroke:#000000;stroke-width:3;stroke-linecap:butt;stroke-linejoin:miter;stroke-miterlimit:4;stroke-dasharray:none;stroke-opacity:1;display:inline"
       id="path3819" />
    <path
       d="M 109.86364,245.61331 C 99.63054,238.52871 91.92963,246.6372 83.63396,251.1772 C 83.63396,251.1772 90.7975,238.01119 98.14976,233.34151 C 105.50201,228.67184 113.04299,232.49847 113.04299,232.49847 L 109.86364,245.61331 z "
       style="fill:#e20909;fill-opacity:1;fill-rule:evenodd;stroke:#000000;stroke-width:3;stroke-linecap:butt;stroke-linejoin:miter;stroke-miterlimit:4;stroke-dasharray:none;stroke-opacity:1;display:inline"
       id="path3821" />
    <path
       d="M 116.81849,269.6572 C 109.60504,269.72632 101.92739,271.47167 91.38363,283.56689 C 91.38363,283.56689 91.03589,273.87978 96.35138,267.27269 C 101.66687,260.66559 112.64558,257.13848 112.64558,257.13848 L 116.81849,269.6572 z "
       style="fill:#e20909;fill-opacity:1;fill-rule:evenodd;stroke:#000000;stroke-width:3;stroke-linecap:butt;stroke-linejoin:miter;stroke-miterlimit:4;stroke-dasharray:none;stroke-opacity:1;display:inline"
       id="path3823" />
    <path
       d="M 128.34159,279.21938 C 127.77867,283.12733 123.42417,287.1758 116.95486,289.60842 C 116.95486,289.60842 128.44248,290.03097 133.11269,287.73979 C 137.78289,285.4486 136.68947,281.7785 136.68947,281.7785 L 128.34159,279.21938 z "
       style="fill:#e20909;fill-opacity:1;fill-rule:evenodd;stroke:#000000;stroke-width:3;stroke-linecap:butt;stroke-linejoin:miter;stroke-miterlimit:4;stroke-dasharray:none;stroke-opacity:1;display:inline"
       id="path3825" />
    <path
       d="M 332.61731,534.13993 C 336.12316,536.38863 337.62572,540.03963 330.63022,549.63923 C 330.63022,549.63923 340.46635,544.96963 343.74507,540.89613 C 347.02377,536.82253 343.74507,533.34513 343.74507,533.34513 L 332.61731,534.13993 z "
       style="fill:#e20909;fill-opacity:1;fill-rule:evenodd;stroke:#000000;stroke-width:3;stroke-linecap:butt;stroke-linejoin:miter;stroke-miterlimit:4;stroke-dasharray:none;stroke-opacity:1;display:inline"
       id="path3827" />
    <path
       d="M 308.77214,528.97343 C 308.32946,539.28383 298.60644,538.79383 287.70891,543.28053 C 287.70891,543.28053 302.51279,547.25483 309.56699,542.88313 C 316.62118,538.51153 319.89989,534.53733 319.89989,534.53733 L 308.77214,528.97343 z "
       style="fill:#e20909;fill-opacity:1;fill-rule:evenodd;stroke:#000000;stroke-width:3;stroke-linecap:butt;stroke-linejoin:miter;stroke-miterlimit:4;stroke-dasharray:none;stroke-opacity:1;display:inline"
       id="path3829" />
    <path
       d="M 304.79794,523.80703 C 295.05075,512.81843 282.28473,522.96153 270.61985,525.39673 C 270.61985,525.39673 282.04567,513.47413 291.28567,510.69213 C 300.52568,507.91013 307.57987,514.26903 307.57987,514.26903 L 304.79794,523.80703 z "
       style="fill:#e20909;fill-opacity:1;fill-rule:evenodd;stroke:#000000;stroke-width:3;stroke-linecap:butt;stroke-linejoin:miter;stroke-miterlimit:4;stroke-dasharray:none;stroke-opacity:1;display:inline"
       id="path3831" />
    <path
       d="M 311.55408,500.35933 C 307.6189,482.98443 291.84761,485.33633 278.96568,482.87273 C 278.96568,482.87273 298.04181,476.61343 307.9773,476.51403 C 317.91278,476.41473 318.70763,482.47533 318.70763,482.47533 L 311.55408,500.35933 z "
       style="fill:#e20909;fill-opacity:1;fill-rule:evenodd;stroke:#000000;stroke-width:3;stroke-linecap:butt;stroke-linejoin:miter;stroke-miterlimit:4;stroke-dasharray:none;stroke-opacity:1;display:inline"
       id="path3833" />
    <path
       d="M 316.63628,114.60032 C 296.69825,117.44459 277.64784,123.9924 255.93638,122.46882 C 226.47595,120.40147 235.05164,106.31263 239.07529,101.67349 C 242.90968,97.25254 258.0316,112.0352 271.11136,116.84846 C 286.28725,122.43307 301.46313,115.35609 316.63628,114.60032 z "
       style="fill:#e20909;fill-opacity:1;fill-rule:evenodd;stroke:#000000;stroke-width:3.00000024;stroke-linecap:butt;stroke-linejoin:miter;stroke-miterlimit:4;stroke-dasharray:none;stroke-opacity:1;display:inline"
       id="path3835" />
    <g
       id="g3837">
      <path
         d="M 213.22163,199.28538 L 203.38599,194.43782 C 206.95283,190.63866 202.88131,187.60335 199.17073,184.53193 C 196.96799,180.88204 192.93518,180.84658 188.49204,182.4243 C 187.85162,175.45279 182.79427,174.1602 176.9703,173.85325 C 175.67273,163.22009 170.35992,163.82963 165.44857,163.31507 C 163.46935,157.88504 159.88571,156.85997 156.59649,157.6947 C 155.51334,155.73201 152.55497,155.17574 145.49627,157.6947 C 145.49627,157.6947 140.99999,165.4227 135.94167,163.31507 C 130.88335,161.20743 125.96552,155.16555 124.1389,150.95028 C 122.31228,146.735 131.02384,147.57806 130.88334,142.51973 C 130.74283,137.46141 127.3706,133.80817 123.57686,130.71697 C 119.78313,127.62577 114.30326,130.99799 115.28683,123.69152 C 116.2704,116.38505 116.72704,109.71088 121.60974,105.84689 C 126.49242,101.98288 134.81759,108.23553 134.81759,108.23553 C 134.81759,108.23553 140.26231,107.25198 139.26118,104.05539 C 138.26005,100.85881 130.81308,95.44921 133.69352,91.65547 C 139.45438,84.06797 143.81016,80.48499 150.83562,80.41474 C 157.86107,80.34448 155.26166,91.30419 159.68769,92.2175 C 164.11372,93.13081 164.92165,82.17109 171.91198,84.91102 C 178.9023,87.65095 188.01314,93.12854 185.68185,100.64804 C 183.70118,107.03669 181.35673,104.8171 182.12677,107.09562 C 183.20263,110.27911 180.20853,107.46547 191.58323,117.93065 C 196.41613,122.37709 203.08303,128.70154 210.71168,134.6902 C 218.34033,140.67884 227.0947,148.88435 234.6273,154.91526 C 242.1599,160.94618 249.31379,163.39739 254.30351,167.4321 C 259.29323,171.46679 262.39979,173.99375 262.39979,173.99375 L 213.22163,199.28538 z "
         style="fill:#000000;fill-opacity:1;fill-rule:evenodd;stroke:#313131;stroke-width:3.00000024;stroke-linecap:butt;stroke-linejoin:miter;stroke-miterlimit:4;stroke-dasharray:none;stroke-opacity:1;display:inline"
         id="path3839" />
      <path
         d="M 269.57938,324.03611 C 263.73161,324.03745 258.09655,324.37738 253.11727,325.19409 C 226.56107,329.54988 218.28393,347.66519 218.28393,347.66519 C 218.28393,347.66519 236.39921,374.21763 227.26611,386.44191 C 218.13303,398.66619 193.10891,404.93601 183.41931,396.55077 L 176.12716,390.22882 C 172.56248,387.144 174.01722,382.37993 168.39685,385.19003 C 162.77648,388.00023 157.58244,395.91462 156.44148,398.80414 C 153.26848,406.84004 164.32827,407.25427 164.32827,407.25427 L 160.94821,410.03973 C 160.62864,410.75863 157.06519,404.92309 153.65606,407.25427 C 148.24068,410.95733 146.34859,420.45993 146.4891,426.50183 C 146.62961,432.54373 154.2194,431.41543 154.2194,431.41543 L 155.90943,437.58083 C 155.90943,437.58083 150.96585,438.57613 151.52788,442.65093 C 152.08994,446.72573 158.45548,450.93133 161.51156,451.91483 C 164.56762,452.89833 166.14349,447.15763 166.14349,447.15763 L 178.38053,444.90433 C 178.38053,444.90433 175.27793,448.82033 180.19575,450.50643 C 185.11355,452.19253 188.94183,453.19463 193.40299,451.78963 C 197.86415,450.38453 194.68616,443.90283 194.68616,443.90283 C 227.19151,434.32233 262.26487,428.50143 303.72417,431.97873 C 291.27581,416.16783 288.11434,396.99824 289.10858,376.33304 C 305.36007,373.15747 314.77888,376.8017 323.37856,381.27794 C 327.52543,376.6853 334.07236,369.33107 331.42184,364.25248 C 326.28704,354.41377 318.085,342.14268 313.92694,328.29246 C 303.04272,326.46935 285.49481,324.03246 269.57938,324.03611 z "
         style="fill:#000000;fill-opacity:1;fill-rule:evenodd;stroke:#313131;stroke-width:3.00000024;stroke-linecap:butt;stroke-linejoin:miter;stroke-miterlimit:4;stroke-dasharray:none;stroke-opacity:1;display:inline"
         id="path3841" />
      <path
         d="M 248.76179,196.73071 C 248.76179,196.73071 207.23145,214.01846 179.61078,219.78104 C 151.99012,225.54363 136.68947,217.79395 136.68947,217.79395 C 136.68947,217.79395 138.08043,209.24942 131.12559,210.24298 C 124.17075,211.23652 119.40171,216.00557 116.81849,220.97331 C 115.52686,223.45718 119.89849,224.94749 121.01623,227.40653 C 122.13397,229.86556 119.203,232.49847 119.203,232.49847 C 119.203,232.49847 112.84429,224.35137 109.66493,229.31912 C 106.48557,234.28686 103.1075,240.44686 105.29331,247.20299 C 106.38621,250.58106 110.45977,246.90493 113.46526,248.34558 C 116.47073,249.78622 116.02365,255.15138 116.02365,255.15138 C 116.02365,255.15138 108.47267,252.4688 109.66493,257.93332 C 110.85719,263.39785 110.45977,269.06107 114.83138,272.63785 C 119.203,276.21463 121.1901,268.26623 121.1901,268.26623 L 127.94624,273.83011 C 127.94624,273.83011 123.37591,277.8043 127.1514,280.98365 C 130.92689,284.16301 135.2985,286.54753 139.07398,286.54753 C 142.84947,286.54753 141.85591,278.99655 141.85591,278.99655 C 145.0401,275.16449 148.87934,272.64254 154.17592,273.03527 C 162.48716,276.13226 161.90294,281.8979 159.7398,288.13721 C 170.34379,288.41444 178.11081,283.01771 186.76432,279.39398 C 193.29828,280.38805 195.06431,283.17009 193.12304,287.34237 C 207.60396,291.96628 219.6023,285.41854 232.07016,280.98365 C 234.73944,283.15758 235.67856,286.36957 233.0637,291.71397 C 247.37081,270.51827 261.67792,262.30494 275.98502,267.07397 C 287.36105,284.01432 298.61827,294.75363 311.55408,307.01464 C 309.34118,329.62412 323.78861,349.611 331.42506,364.24309 C 335.11163,371.30685 320.93916,382.86523 320.29731,385.10758 C 315.9513,400.29038 319.09569,424.40973 320.16093,424.05473 C 323.53963,417.20883 329.03537,414.59723 335.39925,413.72173 C 334.79623,418.63473 331.33477,421.40373 336.19408,430.41343 C 342.6903,437.09073 349.66433,442.57353 357.65474,445.51543 C 348.29398,457.43843 342.16514,471.52433 333.80957,484.46243 C 331.62302,487.84833 329.43796,486.25093 325.86117,484.46243 C 322.2844,482.67403 322.45488,476.87153 319.50247,477.30893 C 312.34741,478.36883 302.90968,496.30503 306.46407,503.07303 C 309.09214,508.07713 311.65842,502.68143 313.32834,504.98363 C 314.99825,507.28583 315.37571,510.45733 313.14375,512.28183 C 310.9118,514.10633 307.57987,506.73793 304.40052,510.31463 C 301.22117,513.89153 301.68092,519.71023 302.67447,523.77883 C 303.66803,527.84733 307.39117,525.32443 307.39117,525.32443 L 308.98132,527.78413 C 307.50204,528.73243 306.54202,528.31633 307.16249,530.81803 C 308.10391,534.61373 316.34116,541.02873 319.77107,536.26753 C 321.09169,534.43433 321.49642,533.37233 321.54947,533.38153 L 328.50545,532.05053 C 330.13429,531.73893 328.16268,537.36243 329.22513,537.63273 C 333.9928,538.84523 345.18234,538.69343 348.16076,536.13113 C 352.23406,532.62703 346.28134,527.46813 353.03449,528.22683 C 353.03449,528.22683 354.78449,529.48033 356.17599,528.57983 C 381.40576,512.25093 398.83257,486.44893 400.57606,480.48823 C 402.34758,474.43183 399.58252,474.92433 402.76187,472.34123 C 405.94122,469.75793 413.29348,470.15533 413.29348,470.15533 C 413.29348,470.15533 426.90295,464.05593 414.88316,455.84823 C 405.18269,449.22433 395.77158,417.65093 398.98638,413.72173 C 398.23494,402.97148 391.92889,393.23122 385.47412,383.5179 C 383.60494,373.8818 386.59208,367.48323 391.03799,362.05722 C 393.5804,361.14195 430.22692,406.22686 442.70253,421.67013 C 458.56836,441.31023 480.05998,409.74763 480.05998,409.74763 C 480.05998,409.74763 494.36708,390.27401 493.37353,365.43527 C 492.37998,340.59659 476.08577,310.3927 476.08577,310.3927 C 472.52813,294.46354 482.55894,282.41679 493.57224,270.65074 C 483.05967,275.56306 472.10989,275.66617 462.57352,291.31656 C 462.57352,291.31656 459.99028,280.18881 462.17609,268.26623 C 464.3619,256.34365 476.4832,248.39525 476.4832,248.39525 C 462.25092,255.51712 450.30179,263.01951 448.66383,272.24043 C 444.23274,245.3812 456.82593,221.76469 474.4961,199.11523 C 456.09542,210.9688 439.86202,224.55621 431.9722,244.81847 C 421.90839,196.82496 459.43386,174.09234 500.72579,137.11777 C 531.7166,109.36726 507.0845,84.65839 507.0845,84.65839 C 483.40788,77.75247 463.77909,85.70887 447.47157,94.59388 C 447.47157,94.59388 431.8515,78.30056 422.43413,93.79905 C 411.51236,111.77338 402.77742,120.88619 407.72961,141.48938 C 405.17564,138.08408 429.75499,120.9804 448.66383,120.82358 C 463.88633,120.69733 453.03544,102.54228 453.03544,102.54228 C 453.03544,102.54228 491.58514,86.04936 499.13611,93.40163 C 506.6871,100.75389 509.3743,109.84852 489.99546,127.97711 L 440.71544,174.07779 C 416.94828,196.31158 410.57922,219.93967 424.02381,257.93332 C 438.34816,298.41316 480.92872,330.01973 480.25868,356.8908 C 479.58866,383.76187 482.20901,385.40323 474.49611,397.4276 C 466.78321,409.45193 460.75598,421.86943 446.27931,403.985 C 431.80265,386.10056 412.62792,356.27989 397.19799,334.43658 C 372.19048,299.03488 361.18185,287.19334 351.29604,258.72816 C 341.41022,230.26299 353.68055,235.2804 353.28313,218.58878 C 352.88571,201.89716 349.70635,191.96167 349.70635,191.96167 L 248.76179,196.73071 z "
         style="fill:#000000;fill-opacity:1;fill-rule:evenodd;stroke:#313131;stroke-width:3.00000024;stroke-linecap:butt;stroke-linejoin:miter;stroke-miterlimit:4;stroke-dasharray:none;stroke-opacity:1;display:inline"
         id="path3843" />
      <g
         id="g3845">
        <path
           d="M 307.08168,107.6735 C 302.29311,102.58356 292.88615,102.32537 283.33564,103.59873 C 281.73541,101.41587 274.73422,97.32818 256.77943,98.11887 C 250.30834,89.91228 249.22185,76.9592 257.06045,71.98419 C 264.23171,67.43271 277.26693,69.53808 278.69884,68.61197 C 287.08784,63.18628 283.33564,55.96615 301.74233,52.87496 C 320.14901,49.78376 352.32558,56.24717 352.32558,56.24717 C 352.32558,56.24717 362.86376,51.18885 369.46769,50.62681 C 376.0716,50.06478 375.50957,50.06478 378.74128,53.99903 C 381.97299,57.93328 385.27495,59.68965 382.39452,66.36383 C 379.51409,73.03801 367.21954,80.69574 367.21954,80.69574 C 367.21954,80.69574 361.45867,97.7676 367.21954,109.64061 C 372.98041,121.51362 393.0732,129.87391 393.0732,129.87391 C 383.98232,130.35301 376.97129,132.0206 373.12092,135.49428 C 370.96644,137.18038 369.10347,140.42838 370.02972,143.08176 C 372.2181,149.3507 384.08062,159.94284 384.08062,159.94284 C 384.08062,159.94284 379.23305,157.6947 376.77415,163.59608 C 374.31524,169.49746 374.24499,183.54836 374.24499,183.54836 C 374.24499,183.54836 358.64793,183.74879 354.85474,194.22705 C 349.60258,208.73553 362.30846,230.62933 364.97139,226.82515 C 364.97139,226.82515 356.68135,229.98661 350.35846,227.6682 C 344.03555,225.34981 338.27468,217.55155 338.27468,217.55155 C 332.204,218.6526 327.12641,221.61597 324.78581,225.70107 C 285.02633,212.63831 274.6342,228.9429 264.92896,245.93437 C 261.91524,248.98511 258.20056,250.28343 253.68823,249.58762 C 259.69874,241.98057 260.6245,233.10235 260.71368,224.01497 C 244.00831,225.07014 228.52054,239.1739 206.75822,236.09875 C 218.02355,228.50237 223.94101,218.76684 220.24708,205.18675 C 210.99003,199.50907 197.70837,198.6609 184.83881,197.31825 C 224.2796,188.92454 248.97649,178.92037 254.81231,163.59608 L 280.66597,161.34794 C 289.97774,155.7752 290.23354,151.02574 291.62567,146.17296 C 285.30584,139.47026 274.90547,145.05608 266.05304,142.51973 C 262.32128,141.45053 262.06976,136.61999 263.84201,135.29794 C 264.72814,134.63692 265.70326,132.23232 267.22448,131.9116 C 268.7457,131.59089 270.81301,133.35408 272.75947,133.16013 C 280.01279,132.43741 303.0402,132.00205 310.45389,130.71696 C 314.9906,122.40932 313.08485,114.05449 307.08168,107.6735 z "
           style="fill:#000000;fill-opacity:1;fill-rule:evenodd;stroke:#313131;stroke-width:3.00000024;stroke-linecap:butt;stroke-linejoin:miter;stroke-miterlimit:4;stroke-dasharray:none;stroke-opacity:1;display:inline"
           id="path3847" />
        <path
           d="M 321.88495,70.74864 C 321.88838,73.03655 317.9738,74.89214 313.14375,74.89214 C 308.31371,74.89214 304.39912,73.03655 304.40255,70.74864 C 304.39912,68.46072 308.31371,66.60514 313.14375,66.60514 C 317.9738,66.60514 321.88838,68.46072 321.88495,70.74864 z "
           style="fill:#404040;fill-opacity:1;fill-rule:evenodd;stroke:#313131;stroke-width:3;stroke-linecap:butt;stroke-linejoin:miter;stroke-miterlimit:4;stroke-dasharray:none;stroke-opacity:1;display:inline"
           id="path3849" />
      </g>
      <path
         d="M 301.84637,329.38785 C 298.5059,329.32895 296.10274,330.88669 293.33364,331.79771 C 303.46069,339.82924 313.54884,347.86974 313.70786,358.43128 C 305.79156,374.96552 313.90377,378.47615 324.59914,379.90087 C 328.67674,375.30282 333.82235,368.85204 331.42184,364.25248 C 327.7293,357.17727 322.46979,348.82967 318.24589,339.55931 C 316.44722,337.66249 314.39962,335.67197 311.98653,333.51903 C 307.61264,330.4589 304.44452,329.43367 301.84637,329.38785 z "
         style="fill:#000000;fill-opacity:1;fill-rule:evenodd;stroke:#313131;stroke-width:3.00000024;stroke-linecap:butt;stroke-linejoin:miter;stroke-miterlimit:4;stroke-dasharray:none;stroke-opacity:1"
         id="path3851" />
    </g>
  </g>
  <g
     transform="matrix(0.4233003,0,0,0.5021495,61.790548,281.37087)"
     style="fill:#e20909;fill-opacity:1"
     id="g3905">
    <path
       d="M 139.87592,188.53771 C 129.86773,196.08269 114.88812,197.38595 108.96391,189.9428 C 108.96391,189.9428 119.02613,192.29832 123.57686,186.85162 C 129.75262,179.45992 129.97663,175.96755 130.88334,177.57801 L 139.87592,188.53771 z "
       style="fill:#2828ff;fill-opacity:1;fill-rule:evenodd;stroke:#000000;stroke-width:3;stroke-linecap:butt;stroke-linejoin:miter;stroke-miterlimit:4;stroke-dasharray:none;stroke-opacity:1;display:inline"
       id="path3907" />
    <path
       d="M 120.76668,156.78269 C 112.00297,149.93717 101.43429,150.72017 97.161164,161.841 C 96.029293,161.41654 97.639289,147.91197 102.50051,143.01279 C 107.4991,137.97515 108.82341,136.1981 116.2704,135.98734 C 123.71737,135.77658 133.13147,140.20261 133.13147,140.20261 L 120.76668,156.78269 z "
       style="fill:#2828ff;fill-opacity:1;fill-rule:evenodd;stroke:#000000;stroke-width:3;stroke-linecap:butt;stroke-linejoin:miter;stroke-miterlimit:4;stroke-dasharray:none;stroke-opacity:1;display:inline"
       id="path3909" />
    <path
       d="M 135.94166,125.87069 C 131.34587,113.29724 128.1728,100.1324 108.40189,102.26517 C 108.40189,102.26517 118.26987,96.036769 129.75926,97.768882 C 143.95642,99.909207 154.39856,117.15078 153.64579,117.44015 L 135.94166,125.87069 z "
       style="fill:#2828ff;fill-opacity:1;fill-rule:evenodd;stroke:#000000;stroke-width:3;stroke-linecap:butt;stroke-linejoin:miter;stroke-miterlimit:4;stroke-dasharray:none;stroke-opacity:1;display:inline"
       id="path3911" />
    <path
       d="M 168.53976,118.2832 C 174.52835,112.56271 173.89027,100.21554 175.84623,90.462409 C 175.84623,90.462409 183.50398,97.136591 185.40085,106.48044 C 187.29772,115.8243 183.43371,127.83782 183.43371,127.83782 L 168.53976,118.2832 z "
       style="fill:#2828ff;fill-opacity:1;fill-rule:evenodd;stroke:#000000;stroke-width:3;stroke-linecap:butt;stroke-linejoin:miter;stroke-miterlimit:4;stroke-dasharray:none;stroke-opacity:1;display:inline"
       id="path3913" />
    <path
       d="M 213.22163,229.28534 L 203.38599,224.43778 C 206.95283,220.63862 202.88131,217.60331 199.17073,214.53189 C 196.96799,210.882 192.93518,210.84654 188.49204,212.42426 C 187.85162,205.45275 182.79427,204.16016 176.9703,203.85321 C 175.67272,193.22005 170.35991,193.82959 165.44856,193.31503 C 163.46935,187.885 159.8857,186.85993 156.59648,187.69466 C 155.51334,185.73197 152.55496,185.1757 145.49627,187.69466 C 145.49627,187.69466 140.99999,195.42266 135.94166,193.31503 C 130.88334,191.20739 125.96552,185.16551 124.1389,180.95024 C 122.31228,176.73496 131.02384,177.57802 130.88333,172.51969 C 130.74283,167.46137 127.3706,163.80813 123.57686,160.71693 C 119.78312,157.62573 114.30326,160.99795 115.28683,153.69148 C 116.2704,146.38501 116.72704,139.71084 121.60973,135.84685 C 126.49241,131.98284 134.81759,138.23549 134.81759,138.23549 C 134.81759,138.23549 140.26231,137.25194 139.26118,134.05535 C 138.26005,130.85877 130.81308,125.44917 133.69351,121.65543 C 139.45438,114.06793 143.81016,110.48495 150.83562,110.4147 C 157.86106,110.34445 155.26165,121.30415 159.68768,122.21746 C 164.11372,123.13077 164.92165,112.17106 171.91197,114.91099 C 178.9023,117.65091 188.01314,123.1285 185.68185,130.648 C 183.70118,137.03664 181.35673,134.81706 182.12677,137.09558 C 183.20263,140.27907 180.20853,137.46543 191.58323,147.93061 C 196.41613,152.37705 203.08303,158.7015 210.71168,164.69016 C 218.34033,170.6788 227.0947,178.88431 234.6273,184.91522 C 242.1599,190.94614 249.31379,193.39735 254.30351,197.43206 C 259.29323,201.46675 262.39979,203.99371 262.39979,203.99371 L 213.22163,229.28534 z "
       style="fill:#e20909;fill-opacity:1;fill-rule:evenodd;stroke:#000000;stroke-width:3.00000024;stroke-linecap:butt;stroke-linejoin:miter;stroke-miterlimit:4;stroke-dasharray:none;stroke-opacity:1;display:inline"
       id="path3915" />
    <path
       d="M 158.15011,435.57465 C 159.23859,420.75248 144.06494,412.24877 129.33719,412.32558 C 129.33719,412.32558 146.92301,405.51981 156.95786,409.14623 C 166.9927,412.77265 170.66884,418.48559 170.66884,418.48559 L 158.15011,435.57465 z "
       style="fill:#2828ff;fill-opacity:1;fill-rule:evenodd;stroke:#000000;stroke-width:3;stroke-linecap:butt;stroke-linejoin:miter;stroke-miterlimit:4;stroke-dasharray:none;stroke-opacity:1;display:inline"
       id="path3917" />
    <path
       d="M 150.59913,457.83012 C 137.52996,446.40414 128.91447,457.93557 117.61332,462.99664 C 117.61332,462.99664 124.96559,445.55987 133.90752,440.14497 C 142.84946,434.73018 153.38108,441.33725 153.38108,441.33725 L 150.59913,457.83012 z "
       style="fill:#2828ff;fill-opacity:1;fill-rule:evenodd;stroke:#000000;stroke-width:3;stroke-linecap:butt;stroke-linejoin:miter;stroke-miterlimit:4;stroke-dasharray:none;stroke-opacity:1;display:inline"
       id="path3919" />
    <path
       d="M 160.53463,477.89982 C 155.25436,480.359 150.73328,485.85491 148.61205,500.95018 C 148.61205,500.95018 146.42624,486.94114 147.81721,479.4895 C 149.20818,472.03786 154.17592,471.14372 154.17592,471.14372 L 160.53463,477.89982 z "
       style="fill:#2828ff;fill-opacity:1;fill-rule:evenodd;stroke:#000000;stroke-width:3;stroke-linecap:butt;stroke-linejoin:miter;stroke-miterlimit:4;stroke-dasharray:none;stroke-opacity:1;display:inline"
       id="path3921" />
    <path
       d="M 190.73853,480.28439 C 186.24235,484.86754 185.83086,491.2013 188.75142,498.96312 C 188.75142,498.96312 180.80304,488.72951 178.81594,483.46374 C 176.82884,478.19787 180.80303,477.89982 180.80303,477.89982 L 190.73853,480.28439 z "
       style="fill:#2828ff;fill-opacity:1;fill-rule:evenodd;stroke:#000000;stroke-width:3;stroke-linecap:butt;stroke-linejoin:miter;stroke-miterlimit:4;stroke-dasharray:none;stroke-opacity:1;display:inline"
       id="path3923" />
    <path
       d="M 269.57938,354.03607 C 263.73161,354.03741 258.09655,354.37734 253.11727,355.19405 C 226.56107,359.54984 218.28393,377.66515 218.28393,377.66515 C 218.28393,377.66515 236.39921,404.21759 227.26611,416.44187 C 218.13303,428.66615 193.10891,434.93597 183.41931,426.55073 L 176.12716,420.22878 C 172.56248,417.14396 174.01721,412.37989 168.39684,415.18999 C 162.77648,418.00019 157.58243,425.91458 156.44148,428.8041 C 153.26847,436.84 164.32827,437.25423 164.32827,437.25423 L 160.94821,440.03965 C 160.62863,440.75861 157.06519,434.92305 153.65606,437.25423 C 148.24068,440.95726 146.34858,450.45992 146.4891,456.50176 C 146.6296,462.5437 154.2194,461.41536 154.2194,461.41536 L 155.90943,467.58082 C 155.90943,467.58082 150.96585,468.57611 151.52788,472.6509 C 152.08993,476.7257 158.45548,480.93128 161.51156,481.91476 C 164.56762,482.89833 166.14348,477.15764 166.14348,477.15764 L 178.38053,474.90427 C 178.38053,474.90426 175.27793,478.82028 180.19575,480.5064 C 185.11355,482.19252 188.94183,483.19456 193.40299,481.78957 C 197.86415,480.38446 194.68616,473.90277 194.68616,473.90277 C 227.19151,464.32226 262.26487,458.5014 303.72417,461.9787 C 291.27581,446.16776 288.11434,426.9982 289.10858,406.333 C 305.36007,403.15743 314.77888,406.80166 323.37856,411.2779 C 327.52543,406.68526 334.07236,399.33103 331.42184,394.25244 C 326.28704,384.41373 318.085,372.14264 313.92694,358.29242 C 303.04272,356.46931 285.49481,354.03242 269.57938,354.03607 z "
       style="fill:#e20909;fill-opacity:1;fill-rule:evenodd;stroke:#000000;stroke-width:3.00000024;stroke-linecap:butt;stroke-linejoin:miter;stroke-miterlimit:4;stroke-dasharray:none;stroke-opacity:1;display:inline"
       id="path3925" />
    <path
       d="M 120.59397,251.96681 C 118.14191,245.52678 110.62238,239.86635 101.31911,234.48035 C 101.31911,234.48035 114.18557,235.87132 121.78622,238.45455 C 129.38688,241.03778 131.72171,244.81326 131.72171,244.81326 L 120.59397,251.96681 z "
       style="fill:#2828ff;fill-opacity:1;fill-rule:evenodd;stroke:#000000;stroke-width:3;stroke-linecap:butt;stroke-linejoin:miter;stroke-miterlimit:4;stroke-dasharray:none;stroke-opacity:1;display:inline"
       id="path3927" />
    <path
       d="M 109.86363,275.61327 C 99.630536,268.52867 91.929623,276.63716 83.63395,281.17716 C 83.63395,281.17716 90.79749,268.01115 98.149752,263.34147 C 105.50201,258.6718 113.04299,262.49843 113.04299,262.49843 L 109.86363,275.61327 z "
       style="fill:#2828ff;fill-opacity:1;fill-rule:evenodd;stroke:#000000;stroke-width:3;stroke-linecap:butt;stroke-linejoin:miter;stroke-miterlimit:4;stroke-dasharray:none;stroke-opacity:1;display:inline"
       id="path3929" />
    <path
       d="M 116.81848,299.65716 C 109.60503,299.72628 101.92739,301.47163 91.383626,313.56685 C 91.383626,313.56685 91.035886,303.87974 96.351374,297.27265 C 101.66686,290.66555 112.64557,287.13844 112.64557,287.13844 L 116.81848,299.65716 z "
       style="fill:#2828ff;fill-opacity:1;fill-rule:evenodd;stroke:#000000;stroke-width:3;stroke-linecap:butt;stroke-linejoin:miter;stroke-miterlimit:4;stroke-dasharray:none;stroke-opacity:1;display:inline"
       id="path3931" />
    <path
       d="M 128.34159,309.21934 C 127.77867,313.12729 123.42416,317.17576 116.95485,319.60838 C 116.95485,319.60838 128.44248,320.03093 133.11269,317.73975 C 137.78289,315.44856 136.68946,311.77846 136.68946,311.77846 L 128.34159,309.21934 z "
       style="fill:#2828ff;fill-opacity:1;fill-rule:evenodd;stroke:#000000;stroke-width:3;stroke-linecap:butt;stroke-linejoin:miter;stroke-miterlimit:4;stroke-dasharray:none;stroke-opacity:1;display:inline"
       id="path3933" />
    <path
       d="M 332.61731,564.13986 C 336.12316,566.38862 337.62572,570.03958 330.63022,579.63924 C 330.63022,579.63924 340.46635,574.96955 343.74507,570.89605 C 347.02377,566.82247 343.74507,563.34507 343.74507,563.34507 L 332.61731,564.13986 z "
       style="fill:#2828ff;fill-opacity:1;fill-rule:evenodd;stroke:#000000;stroke-width:3;stroke-linecap:butt;stroke-linejoin:miter;stroke-miterlimit:4;stroke-dasharray:none;stroke-opacity:1;display:inline"
       id="path3935" />
    <path
       d="M 308.77214,558.97344 C 308.32946,569.28375 298.60644,568.79382 287.70891,573.28053 C 287.70891,573.28053 302.51279,577.25477 309.56699,572.88313 C 316.62118,568.51149 319.89989,564.53725 319.89989,564.53725 L 308.77214,558.97344 z "
       style="fill:#2828ff;fill-opacity:1;fill-rule:evenodd;stroke:#000000;stroke-width:3;stroke-linecap:butt;stroke-linejoin:miter;stroke-miterlimit:4;stroke-dasharray:none;stroke-opacity:1;display:inline"
       id="path3937" />
    <path
       d="M 304.79794,553.80701 C 295.05075,542.81838 282.28473,552.96154 270.61985,555.39669 C 270.61985,555.39669 282.04567,543.47406 291.28567,540.6921 C 300.52568,537.91014 307.57987,544.26895 307.57987,544.26895 L 304.79794,553.80701 z "
       style="fill:#2828ff;fill-opacity:1;fill-rule:evenodd;stroke:#000000;stroke-width:3;stroke-linecap:butt;stroke-linejoin:miter;stroke-miterlimit:4;stroke-dasharray:none;stroke-opacity:1;display:inline"
       id="path3939" />
    <path
       d="M 311.55408,530.35926 C 307.6189,512.98437 291.84761,515.33629 278.96568,512.8727 C 278.96568,512.8727 298.04181,506.61335 307.9773,506.514 C 317.91278,506.41466 318.70763,512.47531 318.70763,512.47531 L 311.55408,530.35926 z "
       style="fill:#2828ff;fill-opacity:1;fill-rule:evenodd;stroke:#000000;stroke-width:3;stroke-linecap:butt;stroke-linejoin:miter;stroke-miterlimit:4;stroke-dasharray:none;stroke-opacity:1;display:inline"
       id="path3941" />
    <path
       d="M 248.76179,226.73067 C 248.76179,226.73067 207.23145,244.01842 179.61078,249.781 C 151.99012,255.54359 136.68946,247.79391 136.68946,247.79391 C 136.68946,247.79391 138.08043,239.24938 131.12559,240.24294 C 124.17075,241.23648 119.40171,246.00553 116.81848,250.97327 C 115.52686,253.45714 119.89848,254.94745 121.01623,257.40649 C 122.13397,259.86552 119.203,262.49843 119.203,262.49843 C 119.203,262.49843 112.84429,254.35133 109.66493,259.31908 C 106.48556,264.28682 103.1075,270.44682 105.2933,277.20295 C 106.38621,280.58102 110.45977,276.90489 113.46525,278.34554 C 116.47073,279.78618 116.02364,285.15134 116.02364,285.15134 C 116.02364,285.15134 108.47267,282.46876 109.66493,287.93328 C 110.85719,293.39781 110.45977,299.06103 114.83138,302.63781 C 119.203,306.21459 121.1901,298.26619 121.1901,298.26619 L 127.94623,303.83007 C 127.94623,303.83007 123.3759,307.80426 127.15139,310.98361 C 130.92688,314.16297 135.2985,316.54749 139.07397,316.54749 C 142.84946,316.54749 141.85591,308.99651 141.85591,308.99651 C 145.0401,305.16445 148.87934,302.6425 154.17592,303.03523 C 162.48716,306.13222 161.90294,311.89786 159.73979,318.13717 C 170.34379,318.4144 178.11081,313.01767 186.76432,309.39394 C 193.29828,310.38801 195.06431,313.17005 193.12304,317.34233 C 207.60396,321.96624 219.6023,315.4185 232.07016,310.98361 C 234.73944,313.15754 235.67856,316.36953 233.0637,321.71393 C 247.37081,300.51823 261.67792,292.3049 275.98502,297.07393 C 287.36105,314.01428 298.61827,324.75359 311.55408,337.0146 C 309.34118,359.62408 323.78861,379.61096 331.42506,394.24305 C 335.11163,401.30681 320.93916,412.86519 320.29731,415.10754 C 315.9513,430.29034 319.09569,454.4097 320.16093,454.05467 C 323.53963,447.20884 329.03537,444.59723 335.39925,443.72172 C 334.79623,448.63467 331.33477,451.4037 336.19408,460.41337 C 342.6903,467.09066 349.66433,472.57346 357.65474,475.51536 C 348.29398,487.43838 342.16514,501.52425 333.80957,514.46239 C 331.62302,517.84825 329.43796,516.25086 325.86117,514.46239 C 322.2844,512.67401 322.45488,506.87154 319.50247,507.30889 C 312.34741,508.36877 302.90968,526.305 306.46407,533.07301 C 309.09214,538.07709 311.65842,532.68143 313.32834,534.98357 C 314.99825,537.28581 315.37571,540.45725 313.14375,542.28178 C 310.9118,544.1063 307.57987,536.73789 304.40052,540.31463 C 301.22117,543.89148 301.68092,549.71019 302.67447,553.77877 C 303.66803,557.84725 307.39117,555.32438 307.39117,555.32438 L 308.98132,557.78406 C 307.50204,558.73237 306.54202,558.31625 307.16249,560.81799 C 308.10391,564.61366 316.34116,571.02866 319.77107,566.26754 C 321.09169,564.4343 321.49642,563.37231 321.54947,563.38152 L 328.50545,562.05053 C 330.13429,561.73887 328.16268,567.36238 329.22513,567.63268 C 333.9928,568.84519 345.18234,568.69337 348.16076,566.13114 C 352.23406,562.62699 346.28134,557.46808 353.03449,558.22682 C 353.03449,558.22682 354.78449,559.48029 356.17599,558.57975 C 381.40576,542.25093 398.83257,516.44886 400.57606,510.48824 C 402.34758,504.43179 399.58252,504.92433 402.76187,502.34117 C 405.94122,499.7579 413.29348,500.15529 413.29348,500.15529 C 413.29348,500.15529 426.90295,494.05587 414.88316,485.84821 C 405.18269,479.22431 395.77158,447.6509 398.98638,443.72172 C 398.23494,432.97144 391.92889,423.23118 385.47412,413.51786 C 383.60494,403.88176 386.59208,397.48319 391.03799,392.05718 C 393.5804,391.14191 430.22692,436.22682 442.70253,451.67011 C 458.56836,471.31017 480.05998,439.74758 480.05998,439.74758 C 480.05998,439.74758 494.36708,420.27397 493.37353,395.43523 C 492.37998,370.59655 476.08577,340.39266 476.08577,340.39266 C 472.52813,324.4635 482.55894,312.41675 493.57224,300.6507 C 483.05967,305.56302 472.10989,305.66613 462.57352,321.31652 C 462.57352,321.31652 459.99028,310.18877 462.17609,298.26619 C 464.3619,286.34361 476.4832,278.39521 476.4832,278.39521 C 462.25092,285.51708 450.30179,293.01947 448.66383,302.24039 C 444.23274,275.38116 456.82593,251.76465 474.4961,229.11519 C 456.09542,240.96876 439.86202,254.55617 431.9722,274.81843 C 421.90839,226.82492 459.43386,204.0923 500.72579,167.11773 C 531.71663,139.36722 507.0845,114.65835 507.0845,114.65835 C 483.40788,107.75244 463.77909,115.70883 447.47157,124.59384 C 447.47157,124.59384 431.8515,108.30053 422.43413,123.79901 C 411.51236,141.77334 402.77742,150.88615 407.72961,171.48934 C 405.17564,168.08404 429.75499,150.98036 448.66383,150.82353 C 463.88633,150.69729 453.03544,132.54224 453.03544,132.54224 C 453.03544,132.54224 491.58514,116.04933 499.13611,123.40159 C 506.68709,130.75385 509.3743,139.84848 489.99546,157.97707 L 440.71544,204.07775 C 416.94828,226.31154 410.57922,249.93963 424.02381,287.93328 C 438.34816,328.41312 480.92872,360.01969 480.25868,386.89076 C 479.58866,413.76183 482.20901,415.40319 474.49611,427.42756 C 466.78321,439.45194 460.75598,451.86941 446.27931,433.98496 C 431.80265,416.10052 412.62792,386.27985 397.19799,364.43654 C 372.19048,329.03484 361.18185,317.1933 351.29604,288.72812 C 341.41022,260.26295 353.68055,265.28036 353.28313,248.58874 C 352.88571,231.89712 349.70635,221.96163 349.70635,221.96163 L 248.76179,226.73067 z "
       style="fill:#e20909;fill-opacity:1;fill-rule:evenodd;stroke:#000000;stroke-width:3.00000024;stroke-linecap:butt;stroke-linejoin:miter;stroke-miterlimit:4;stroke-dasharray:none;stroke-opacity:1;display:inline"
       id="path3943" />
    <path
       d="M 316.63628,150.60028 C 296.69825,153.44455 277.64784,159.99236 255.93638,158.46878 C 226.47595,156.40143 235.05164,142.31259 239.07529,137.67345 C 242.90968,133.2525 258.0316,148.03516 271.11136,152.84842 C 286.28725,158.43303 301.46313,151.35605 316.63628,150.60028 z "
       style="fill:#2828ff;fill-opacity:1;fill-rule:evenodd;stroke:#000000;stroke-width:3.00000024;stroke-linecap:butt;stroke-linejoin:miter;stroke-miterlimit:4;stroke-dasharray:none;stroke-opacity:1;display:inline"
       id="path3945" />
    <path
       d="M 307.08168,137.67346 C 302.29311,132.58352 292.88615,132.32533 283.33564,133.59869 C 281.73541,131.41583 274.73422,127.32814 256.77943,128.11883 C 250.30834,119.91225 249.22185,106.95917 257.06045,101.98415 C 264.23171,97.432677 277.26693,99.538042 278.69884,98.611934 C 287.08784,93.18624 283.33564,85.966117 301.74233,82.874925 C 320.14901,79.783724 352.32558,86.247137 352.32558,86.247137 C 352.32558,86.247137 362.86376,81.188814 369.46769,80.626774 C 376.0716,80.064743 375.50957,80.064743 378.74128,83.998996 C 381.97299,87.933248 385.27495,89.689611 382.39452,96.363793 C 379.51409,103.03797 367.21954,110.69571 367.21954,110.69571 C 367.21954,110.69571 361.45867,127.76756 367.21954,139.64057 C 372.98041,151.51358 393.0732,159.87387 393.0732,159.87387 C 383.98232,160.35297 376.97129,162.02056 373.12092,165.49424 C 370.96644,167.18034 369.10347,170.42834 370.02972,173.08172 C 372.2181,179.35066 384.08062,189.9428 384.08062,189.9428 C 384.08062,189.9428 379.23305,187.69466 376.77415,193.59604 C 374.31524,199.49742 374.24499,213.54832 374.24499,213.54832 C 374.24499,213.54832 358.64793,213.74875 354.85474,224.22701 C 349.60258,238.73549 362.30846,260.62929 364.97139,256.82511 C 364.97139,256.82511 356.68135,259.98657 350.35846,257.66816 C 344.03555,255.34977 338.27468,247.55151 338.27468,247.55151 C 332.204,248.65256 327.12641,251.61593 324.78581,255.70103 C 285.02633,242.63827 274.6342,258.94286 264.92896,275.93433 C 261.91524,278.98507 258.20056,280.28339 253.68823,279.58758 C 259.69874,271.98053 260.6245,263.10231 260.71368,254.01493 C 244.00831,255.0701 228.52054,269.17386 206.75822,266.09871 C 218.02355,258.50233 223.94101,248.7668 220.24708,235.18671 C 210.99003,229.50903 197.70837,228.66086 184.83881,227.31821 C 224.2796,218.9245 248.97649,208.92033 254.81231,193.59604 L 280.66597,191.3479 C 289.97774,185.77516 290.23354,181.0257 291.62567,176.17292 C 285.30584,169.47022 274.90547,175.05604 266.05304,172.51969 C 262.32128,171.45049 262.06976,166.61995 263.84201,165.2979 C 264.72814,164.63688 265.70326,162.23228 267.22448,161.91156 C 268.7457,161.59085 270.81301,163.35404 272.75947,163.16009 C 280.01279,162.43737 303.0402,162.00201 310.45389,160.71692 C 314.9906,152.40928 313.08485,144.05445 307.08168,137.67346 z "
       style="fill:#e20909;fill-opacity:1;fill-rule:evenodd;stroke:#000000;stroke-width:3.00000024;stroke-linecap:butt;stroke-linejoin:miter;stroke-miterlimit:4;stroke-dasharray:none;stroke-opacity:1;display:inline"
       id="path3947" />
    <path
       d="M 320.69472,100.7486 C 320.69769,102.72499 317.31613,104.32791 313.14375,104.32791 C 308.97138,104.32791 305.58981,102.72499 305.59278,100.7486 C 305.58981,98.772214 308.97138,97.16929 313.14375,97.16929 C 317.31613,97.16929 320.69769,98.772214 320.69472,100.7486 z "
       style="fill:#000000;fill-opacity:1;fill-rule:evenodd;stroke:#000000;stroke-width:3.00000024;stroke-linecap:butt;stroke-linejoin:miter;stroke-miterlimit:4;stroke-dasharray:none;stroke-opacity:1;display:inline"
       id="path3949" />
    <path
       d="M 301.84637,359.38781 C 298.5059,359.32891 296.10274,360.88665 293.33364,361.79767 C 303.46069,369.8292 313.54884,377.8697 313.70786,388.43124 C 305.79156,404.96548 313.90377,408.47611 324.59914,409.90083 C 328.67674,405.30278 333.82235,398.852 331.42184,394.25244 C 327.7293,387.17723 322.46979,378.82963 318.24589,369.55927 C 316.44722,367.66245 314.39962,365.67193 311.98653,363.51899 C 307.61264,360.45886 304.44452,359.43363 301.84637,359.38781 z "
       style="fill:#e20909;fill-opacity:1;fill-rule:evenodd;stroke:#000000;stroke-width:3.00000024;stroke-linecap:butt;stroke-linejoin:miter;stroke-miterlimit:4;stroke-dasharray:none;stroke-opacity:1"
       id="path3951" />
  </g>
  <g
     transform="translate(0.1555276,0.688708)"
     id="layer2">
    <path
       d="M 300.00001,658.5 C 300.00001,658.5 598.50001,546.17969 598.50001,260.72817 C 598.50001,-24.723334 598.50001,2.1764865 598.50001,2.1764865 L 1.5,2.1764865 L 1.5,260.72817 C 1.5,546.17969 300.00001,658.5 300.00001,658.5 z "
       style="opacity:1;fill:url(#radialGradient2553);fill-opacity:1;fill-rule:evenodd;stroke:none;stroke-width:1px;stroke-linecap:butt;stroke-linejoin:miter;stroke-opacity:1"
       id="path2875" />
  </g>
  <path
     d="M 300,1.9694946 L 300,658.46817"
     style="fill:none;fill-rule:evenodd;stroke:#000000;stroke-width:1px;stroke-linecap:butt;stroke-linejoin:miter;stroke-opacity:1"
     id="path2332" />
  <path
     d="M 3.2824934,297.29361 L 596.82532,297.29361"
     style="fill:none;fill-rule:evenodd;stroke:#000000;stroke-width:1px;stroke-linecap:butt;stroke-linejoin:miter;stroke-opacity:1"
     id="path2334" />
</svg>
