<?xml version="1.0" encoding="UTF-8" standalone="no"?>
<!-- Created with Inkscape (http://www.inkscape.org/) -->

<svg
   xmlns:dc="http://purl.org/dc/elements/1.1/"
   xmlns:cc="http://creativecommons.org/ns#"
   xmlns:rdf="http://www.w3.org/1999/02/22-rdf-syntax-ns#"
   xmlns:svg="http://www.w3.org/2000/svg"
   xmlns="http://www.w3.org/2000/svg"
   xmlns:xlink="http://www.w3.org/1999/xlink"
   xmlns:sodipodi="http://sodipodi.sourceforge.net/DTD/sodipodi-0.dtd"
   xmlns:inkscape="http://www.inkscape.org/namespaces/inkscape"
   version="1.0"
   width="302"
   height="468.19299"
   id="svg378"
   inkscape:version="0.91 r13725"
   sodipodi:docname="Insigne Bolivicus.svg">
  <sodipodi:namedview
     pagecolor="#ffffff"
     bordercolor="#666666"
     borderopacity="1"
     objecttolerance="10"
     gridtolerance="10"
     guidetolerance="10"
     inkscape:pageopacity="0"
     inkscape:pageshadow="2"
     inkscape:window-width="640"
     inkscape:window-height="480"
     id="namedview822"
     showgrid="false"
     fit-margin-bottom="1"
     fit-margin-left="1"
     fit-margin-top="1"
     fit-margin-right="1"
     inkscape:current-layer="svg378" />
  <metadata
     id="metadata823">
    <rdf:RDF>
      <cc:Work
         rdf:about="">
        <dc:format>image/svg+xml</dc:format>
        <dc:type
           rdf:resource="http://purl.org/dc/dcmitype/StillImage" />
        <dc:title></dc:title>
      </cc:Work>
    </rdf:RDF>
  </metadata>
  <defs
     id="defs380">
    <linearGradient
       id="linearGradient10443">
      <stop
         id="stop10445"
         style="stop-color:#755e18;stop-opacity:1"
         offset="0" />
      <stop
         id="stop10447"
         style="stop-color:#755e18;stop-opacity:0"
         offset="1" />
    </linearGradient>
    <linearGradient
       id="linearGradient10437">
      <stop
         id="stop10439"
         style="stop-color:#cfb635;stop-opacity:1"
         offset="0" />
      <stop
         id="stop10441"
         style="stop-color:#000000;stop-opacity:0"
         offset="1" />
    </linearGradient>
    <linearGradient
       id="linearGradient10423">
      <stop
         id="stop10425"
         style="stop-color:#000000;stop-opacity:1"
         offset="0" />
      <stop
         id="stop10427"
         style="stop-color:#000000;stop-opacity:0"
         offset="1" />
    </linearGradient>
    <linearGradient
       id="linearGradient10403">
      <stop
         id="stop10405"
         style="stop-color:#979322;stop-opacity:1"
         offset="0" />
      <stop
         id="stop10407"
         style="stop-color:#979322;stop-opacity:0"
         offset="1" />
    </linearGradient>
    <linearGradient
       id="linearGradient10371">
      <stop
         id="stop10373"
         style="stop-color:#d4aa00;stop-opacity:1"
         offset="0" />
      <stop
         id="stop10375"
         style="stop-color:#d4aa00;stop-opacity:0"
         offset="1" />
    </linearGradient>
    <linearGradient
       id="linearGradient5230">
      <stop
         id="stop5232"
         style="stop-color:#ffcc00;stop-opacity:1"
         offset="0" />
      <stop
         id="stop5234"
         style="stop-color:#ffcc00;stop-opacity:0"
         offset="1" />
    </linearGradient>
    <linearGradient
       id="linearGradient5196">
      <stop
         id="stop5198"
         style="stop-color:#3e5122;stop-opacity:1"
         offset="0" />
      <stop
         id="stop5200"
         style="stop-color:#3e5122;stop-opacity:0"
         offset="1" />
    </linearGradient>
    <linearGradient
       id="linearGradient5176">
      <stop
         id="stop5178"
         style="stop-color:#000000;stop-opacity:1"
         offset="0" />
      <stop
         id="stop5180"
         style="stop-color:#000000;stop-opacity:0"
         offset="1" />
    </linearGradient>
    <linearGradient
       id="linearGradient3102">
      <stop
         id="stop3104"
         style="stop-color:#ffc400;stop-opacity:1"
         offset="0" />
      <stop
         id="stop3106"
         style="stop-color:#5affff;stop-opacity:1"
         offset="1" />
    </linearGradient>
    <linearGradient
       id="linearGradient3092">
      <stop
         id="stop3094"
         style="stop-color:#009b24;stop-opacity:1"
         offset="0" />
      <stop
         id="stop3100"
         style="stop-color:#ffff00;stop-opacity:0.49803922"
         offset="1" />
    </linearGradient>
    <linearGradient
       x1="176.33846"
       y1="415.41064"
       x2="174.08411"
       y2="398.94702"
       id="linearGradient3292"
       xlink:href="#linearGradient3092"
       gradientUnits="userSpaceOnUse"
       gradientTransform="matrix(7.5210375,0,0,6.3523144,-1214.9282,-2316.2706)" />
    <linearGradient
       x1="181.60521"
       y1="386.76892"
       x2="181.60521"
       y2="368.05151"
       id="linearGradient3295"
       xlink:href="#linearGradient3102"
       gradientUnits="userSpaceOnUse"
       gradientTransform="matrix(6.4171293,0,0,6.2476104,-1014.6028,-2273.1608)" />
    <linearGradient
       x1="2111.8342"
       y1="629.84979"
       x2="2027.4612"
       y2="1110.9955"
       id="linearGradient5182"
       xlink:href="#linearGradient5176"
       gradientUnits="userSpaceOnUse"
       gradientTransform="matrix(0.6362979,0,0,0.65732099,-1171.1949,-456.47086)" />
    <radialGradient
       cx="1915.2896"
       cy="920.86377"
       r="43.47855"
       fx="1915.2896"
       fy="920.86377"
       id="radialGradient5206"
       xlink:href="#linearGradient5196"
       gradientUnits="userSpaceOnUse"
       gradientTransform="matrix(0.68133112,0,0,0.6322659,-1232.8128,-452.99124)" />
    <radialGradient
       cx="1948.0897"
       cy="899.07092"
       r="15.504954"
       fx="1948.0897"
       fy="899.07092"
       id="radialGradient5236"
       xlink:href="#linearGradient5230"
       gradientUnits="userSpaceOnUse"
       gradientTransform="matrix(0.93139331,1.9020837e-5,-1.8236951e-5,0.97139435,-1741.2095,-744.69332)" />
    <linearGradient
       x1="3234.3015"
       y1="1315.8347"
       x2="3231.0747"
       y2="1378.119"
       id="linearGradient10377"
       xlink:href="#linearGradient10371"
       gradientUnits="userSpaceOnUse"
       gradientTransform="matrix(0.66745049,0,0,0.66745049,-1953.7084,-459.50882)" />
    <linearGradient
       x1="3215.6594"
       y1="1222.5729"
       x2="3223.4456"
       y2="1240.0594"
       id="linearGradient10409"
       xlink:href="#linearGradient10403"
       gradientUnits="userSpaceOnUse"
       gradientTransform="matrix(0.66745049,0,0,0.66745049,-1953.7084,-459.50882)" />
    <linearGradient
       x1="3221.9045"
       y1="1234.5226"
       x2="3203.4609"
       y2="1256.0889"
       id="linearGradient10411"
       xlink:href="#linearGradient10403"
       gradientUnits="userSpaceOnUse"
       gradientTransform="matrix(0.66745049,0,0,0.66745049,-1953.7084,-459.50882)" />
    <linearGradient
       x1="3221.9045"
       y1="1233.8143"
       x2="3234.9358"
       y2="1245.472"
       id="linearGradient10413"
       xlink:href="#linearGradient10403"
       gradientUnits="userSpaceOnUse"
       gradientTransform="matrix(0.66745049,0,0,0.66745049,-1953.7084,-459.50882)" />
    <linearGradient
       x1="3234.9358"
       y1="1245.472"
       x2="3236.7688"
       y2="1245.472"
       id="linearGradient10415"
       xlink:href="#linearGradient10403"
       gradientUnits="userSpaceOnUse"
       gradientTransform="matrix(0.66745049,0,0,0.66745049,-1953.7084,-459.50882)" />
    <linearGradient
       x1="3237.8503"
       y1="1244.4312"
       x2="3255.0879"
       y2="1245.2638"
       id="linearGradient10417"
       xlink:href="#linearGradient10403"
       gradientUnits="userSpaceOnUse"
       gradientTransform="matrix(0.66745049,0,0,0.66745049,-1953.7084,-459.50882)" />
    <linearGradient
       x1="3239.5159"
       y1="1235.4796"
       x2="3266.3293"
       y2="1240.0594"
       id="linearGradient10419"
       xlink:href="#linearGradient10403"
       gradientUnits="userSpaceOnUse"
       gradientTransform="matrix(0.66745049,0,0,0.66745049,-1953.7084,-459.50882)" />
    <linearGradient
       x1="3244.0957"
       y1="1243.1823"
       x2="3279.6526"
       y2="1254.7153"
       id="linearGradient10421"
       xlink:href="#linearGradient10403"
       gradientUnits="userSpaceOnUse"
       gradientTransform="matrix(0.66745049,0,0,0.66745049,-1953.7084,-459.50882)" />
    <linearGradient
       x1="3224.5273"
       y1="1286.1699"
       x2="3219.5945"
       y2="1312.8162"
       id="linearGradient10429"
       xlink:href="#linearGradient10437"
       gradientUnits="userSpaceOnUse"
       gradientTransform="matrix(0.66745049,0,0,0.66745049,-1953.7084,-459.50882)" />
    <linearGradient
       x1="3231.7725"
       y1="1272.9509"
       x2="3225.5273"
       y2="1317.1674"
       id="linearGradient10431"
       xlink:href="#linearGradient10423"
       gradientUnits="userSpaceOnUse"
       gradientTransform="matrix(0.66745049,0,0,0.66745049,-1953.7084,-459.50882)" />
    <linearGradient
       x1="3236.6013"
       y1="1282.3187"
       x2="3239.8076"
       y2="1312.1917"
       id="linearGradient10433"
       xlink:href="#linearGradient10423"
       gradientUnits="userSpaceOnUse"
       gradientTransform="matrix(0.66745049,0,0,0.66745049,-1953.7084,-459.50882)" />
    <linearGradient
       x1="3243.0876"
       y1="1280.778"
       x2="3244.6792"
       y2="1311.463"
       id="linearGradient10435"
       xlink:href="#linearGradient10423"
       gradientUnits="userSpaceOnUse"
       gradientTransform="matrix(0.66745049,0,0,0.66745049,-1953.7084,-459.50882)" />
    <linearGradient
       x1="3237.9285"
       y1="1329.8627"
       x2="3237.8503"
       y2="1317.896"
       id="linearGradient10449"
       xlink:href="#linearGradient10443"
       gradientUnits="userSpaceOnUse"
       gradientTransform="matrix(0.66745049,0,0,0.66745049,-1953.7084,-459.50882)" />
  </defs>
  <path
     inkscape:connector-curvature="0"
     style="fill:none;stroke:#1f1a17;stroke-width:3.1362009"
     id="path4397"
     d="m 209.83572,248.24178 c 0,0 8.31263,1.94373 11.33532,0" />
  <path
     inkscape:connector-curvature="0"
     style="fill:none;stroke:#1f1a17;stroke-width:3.1362009"
     id="path3072"
     d="m 243.6836,383.41261 -0.75569,-7.12734" />
  <path
     inkscape:connector-curvature="0"
     style="fill:none;stroke:#1f1a17;stroke-width:3.1362009"
     id="path3070"
     d="m 239.90523,384.70846 0,-5.18351" />
  <path
     inkscape:connector-curvature="0"
     style="fill:none;stroke:#1f1a17;stroke-width:3.1362009"
     id="path3066"
     d="m 243.6836,371.74964 -1.51111,-6.47946" />
  <path
     inkscape:connector-curvature="0"
     style="fill:none;stroke:#1f1a17;stroke-width:3.1362009"
     id="path3064"
     d="m 248.21779,373.04549 -0.75581,-7.77531" />
  <path
     inkscape:connector-curvature="0"
     style="fill:none;stroke:#1f1a17;stroke-width:3.1362009"
     id="path3062"
     d="m 252.75185,373.04549 -0.75582,-9.07116" />
  <path
     inkscape:connector-curvature="0"
     style="fill:none;stroke:#1f1a17;stroke-width:3.1362009"
     id="path3060"
     d="m 258.0416,366.56603 13.60223,-1.29585" />
  <path
     inkscape:connector-curvature="0"
     style="fill:none;stroke:#1f1a17;stroke-width:3.1362009"
     id="path3058"
     d="m 247.46198,360.08668 0,-8.42339" />
  <path
     inkscape:connector-curvature="0"
     style="fill:none;stroke:#1f1a17;stroke-width:3.1362009"
     id="path3056"
     d="m 252.75185,360.08668 -0.75582,-7.77531" />
  <path
     inkscape:connector-curvature="0"
     style="fill:none;stroke:#1f1a17;stroke-width:3.1362009"
     id="path3054"
     d="m 257.28591,360.08668 -0.75576,-8.42339" />
  <path
     inkscape:connector-curvature="0"
     style="fill:none;stroke:#1f1a17;stroke-width:3.1362009"
     id="path3052"
     d="m 261.82003,360.08668 0,-5.1835" />
  <path
     inkscape:connector-curvature="0"
     style="fill:none;stroke:#1f1a17;stroke-width:3.1362009"
     id="path3034"
     d="m 210.59141,275.45526 0,-8.42318" />
  <path
     inkscape:connector-curvature="0"
     style="fill:#ffffff;fill-rule:evenodd;stroke:#1f1a17;stroke-width:3.1362009"
     id="path4435"
     d="m 146.47662,260.22696 c 0,0 -3.02275,-1.29564 -3.77844,0 0,0.64808 0.75569,1.29595 1.51144,1.29595 0.75549,0 2.267,-1.29595 2.267,-1.29595 z" />
  <path
     inkscape:connector-curvature="0"
     style="fill:#ffffff;fill-rule:evenodd;stroke:#1f1a17;stroke-width:3.1362009"
     id="path2981"
     d="m 61.840293,333.44462 0,-5.83159" />
  <path
     inkscape:connector-curvature="0"
     style="fill:#ffffff;fill-rule:evenodd;stroke:#1f1a17;stroke-width:3.1362009"
     id="path2979"
     d="m 60.962791,346.2866 0,-3.88755" />
  <path
     inkscape:connector-curvature="0"
     style="fill:#ffffff;fill-rule:evenodd;stroke:#1f1a17;stroke-width:3.1362009"
     id="path2977"
     d="m 71.664031,334.74047 0,-6.47956" />
  <path
     inkscape:connector-curvature="0"
     style="fill:#ffffff;fill-rule:evenodd;stroke:#1f1a17;stroke-width:3.1362009"
     id="path2975"
     d="m 77.960288,342.50952 0,-6.47956" />
  <path
     inkscape:connector-curvature="0"
     style="fill:#ffffff;fill-rule:evenodd;stroke:#1f1a17;stroke-width:3.1362009"
     id="path2973"
     d="m 82.368796,344.77577 0,-3.23968" />
  <path
     inkscape:connector-curvature="0"
     style="fill:#ffffff;fill-rule:evenodd;stroke:#1f1a17;stroke-width:3.1362009"
     id="path2971"
     d="m 86.777638,334.74047 0,-7.12744" />
  <path
     inkscape:connector-curvature="0"
     style="fill:#ffffff;fill-rule:evenodd;stroke:#1f1a17;stroke-width:3.1362009"
     id="path2969"
     d="m 92.067455,337.33207 0,-3.88745" />
  <path
     inkscape:connector-curvature="0"
     style="fill:#ffffff;fill-rule:evenodd;stroke:#1f1a17;stroke-width:3.1362009"
     id="path2967"
     d="m 98.363576,351.47 0,-7.12722" />
  <path
     inkscape:connector-curvature="0"
     style="fill:#ffffff;fill-rule:evenodd;stroke:#1f1a17;stroke-width:3.1362009"
     id="path2965"
     d="m 101.13557,334.74047 -0.75562,-4.53563" />
  <path
     inkscape:connector-curvature="0"
     style="fill:#ffffff;fill-rule:evenodd;stroke:#1f1a17;stroke-width:3.1362009"
     id="path2963"
     d="m 104.91401,332.14867 0.75582,6.47935" />
  <path
     inkscape:connector-curvature="0"
     style="fill:#ffffff;fill-rule:evenodd;stroke:#1f1a17;stroke-width:3.1362009"
     id="path2961"
     d="m 121.02686,345.31307 0,9.07127" />
  <path
     inkscape:connector-curvature="0"
     style="fill:#ffffff;fill-rule:evenodd;stroke:#1f1a17;stroke-width:3.1362009"
     id="path2959"
     d="m 112.47096,342.51567 0,-11.01498" />
  <path
     inkscape:connector-curvature="0"
     style="fill:#ffffff;fill-rule:evenodd;stroke:#1f1a17;stroke-width:3.1362009"
     id="path2957"
     d="m 118.51631,330.20484 0,7.12723" />
  <path
     inkscape:connector-curvature="0"
     style="fill:#ffffff;fill-rule:evenodd;stroke:#1f1a17;stroke-width:3.1362009"
     id="path2955"
     d="m 123.80606,330.85282 0.75582,5.1834" />
  <path
     inkscape:connector-curvature="0"
     style="fill:#ffffff;fill-rule:evenodd;stroke:#1f1a17;stroke-width:3.1362009"
     id="path2953"
     d="m 129.09588,329.55697 0,5.1835" />
  <path
     inkscape:connector-curvature="0"
     style="fill:#ffffff;fill-rule:evenodd;stroke:#1f1a17;stroke-width:3.1362009"
     id="path2951"
     d="m 136.65275,332.14867 0,7.7753" />
  <path
     inkscape:connector-curvature="0"
     style="fill:#ffffff;fill-rule:evenodd;stroke:#1f1a17;stroke-width:3.1362009"
     id="path2949"
     d="m 141.187,339.276 -0.75588,-7.77531" />
  <path
     inkscape:connector-curvature="0"
     style="fill:#ffffff;fill-rule:evenodd;stroke:#1f1a17;stroke-width:3.1362009"
     id="path2947"
     d="m 144.96511,331.50069 0,8.42328" />
  <path
     inkscape:connector-curvature="0"
     style="fill:#ffffff;fill-rule:evenodd;stroke:#1f1a17;stroke-width:3.1362009"
     id="path2945"
     d="m 147.98786,338.62802 0.75589,-3.88755" />
  <path
     inkscape:connector-curvature="0"
     style="fill:#ffffff;fill-rule:evenodd;stroke:#1f1a17;stroke-width:3.1362009"
     id="path2943"
     d="m 151.01074,333.44462 2.267,5.83138" />
  <path
     inkscape:connector-curvature="0"
     style="fill:#ffffff;fill-rule:evenodd;stroke:#1f1a17;stroke-width:3.1362009"
     id="path2941"
     d="m 138.16399,269.29822 c 0,0 12.84675,-1.29595 17.38074,-1.29595" />
  <path
     inkscape:connector-curvature="0"
     style="fill:#ffffff;fill-rule:evenodd;stroke:#1f1a17;stroke-width:3.1362009"
     id="path2939"
     d="m 137.40836,273.18577 13.60238,0" />
  <path
     inkscape:connector-curvature="0"
     style="fill:#ffffff;fill-rule:evenodd;stroke:#1f1a17;stroke-width:3.1362009"
     id="path2937"
     d="m 138.91974,279.66534 6.04537,1.29585" />
  <path
     inkscape:connector-curvature="0"
     style="fill:#ffffff;fill-rule:evenodd;stroke:#1f1a17;stroke-width:3.1362009"
     id="path2935"
     d="m 150.25492,279.66534 13.60224,1.29585" />
  <path
     inkscape:connector-curvature="0"
     style="fill:#ffffff;fill-rule:evenodd;stroke:#1f1a17;stroke-width:3.1362009"
     id="path2933"
     d="m 154.03329,294.56808 -9.06818,0" />
  <path
     inkscape:connector-curvature="0"
     style="fill:#ffffff;fill-rule:evenodd;stroke:#1f1a17;stroke-width:3.1362009"
     id="path2931"
     d="m 150.25492,291.3283 -7.55674,0" />
  <path
     inkscape:connector-curvature="0"
     style="fill:#ffffff;fill-rule:evenodd;stroke:#1f1a17;stroke-width:3.1362009"
     id="path2929"
     d="m 138.91974,304.28721 0,3.88755" />
  <path
     inkscape:connector-curvature="0"
     style="fill:#ffffff;fill-rule:evenodd;stroke:#1f1a17;stroke-width:3.1362009"
     id="path2927"
     d="m 140.43112,296.5118 0,2.5917" />
  <path
     inkscape:connector-curvature="0"
     style="fill:#ffffff;fill-rule:evenodd;stroke:#1f1a17;stroke-width:3.1362009"
     id="path2925"
     d="m 149.49924,303.63924 0,5.1834" />
  <path
     inkscape:connector-curvature="0"
     style="fill:#ffffff;fill-rule:evenodd;stroke:#1f1a17;stroke-width:3.1362009"
     id="path2923"
     d="m 153.27774,305.58296 -0.7559,3.23968" />
  <path
     inkscape:connector-curvature="0"
     style="fill:#ffffff;fill-rule:evenodd;stroke:#1f1a17;stroke-width:3.1362009"
     id="path2921"
     d="m 160.83442,314.00624 -12.84656,-1.29595" />
  <path
     inkscape:connector-curvature="0"
     style="fill:#ffffff;fill-rule:evenodd;stroke:#1f1a17;stroke-width:3.1362009"
     id="path2919"
     d="m 140.43112,316.59794 -9.06839,1.29585" />
  <path
     inkscape:connector-curvature="0"
     style="fill:#ffffff;fill-rule:evenodd;stroke:#1f1a17;stroke-width:3.1362009"
     id="path2917"
     d="m 141.187,320.4857 -8.31282,0.64788" />
  <path
     inkscape:connector-curvature="0"
     style="fill:#ffffff;fill-rule:evenodd;stroke:#1f1a17;stroke-width:3.1362009"
     id="path2915"
     d="m 148.74375,326.96516 -17.38102,-1.29595" />
  <path
     inkscape:connector-curvature="0"
     style="fill:#ffffff;fill-rule:evenodd;stroke:#1f1a17;stroke-width:3.1362009"
     id="path2913"
     d="m 97.357335,317.89379 -9.823873,0" />
  <path
     inkscape:connector-curvature="0"
     style="fill:none;stroke:#1f1a17;stroke-width:3.1362009"
     id="path2889"
     d="M 115.11766,413.78408 102.27104,413.1361" />
  <path
     inkscape:connector-curvature="0"
     style="fill:none;stroke:#1f1a17;stroke-width:3.1362009"
     id="path2885"
     d="M 112.59983,429.00612 97.486221,427.06229" />
  <path
     inkscape:connector-curvature="0"
     style="fill:none;stroke:#1f1a17;stroke-width:3.1362009"
     id="path2881"
     d="m 89.424351,392.40198 0.755615,5.83138" />
  <path
     inkscape:connector-curvature="0"
     style="fill:none;stroke:#1f1a17;stroke-width:3.1362009"
     id="path2879"
     d="m 93.202917,389.1622 0.755626,9.07116" />
  <path
     inkscape:connector-curvature="0"
     style="fill:none;stroke:#1f1a17;stroke-width:3.1362009"
     id="path2877"
     d="m 97.736911,391.10613 -1.511439,5.18351" />
  <path
     inkscape:connector-curvature="0"
     style="fill:none;stroke:#1f1a17;stroke-width:3.1362009"
     id="path2875"
     d="m 102.27104,389.1622 -0.75576,7.12744" />
  <path
     inkscape:connector-curvature="0"
     style="fill:none;stroke:#1f1a17;stroke-width:3.1362009"
     id="path2873"
     d="m 109.07223,387.86646 -0.75583,4.53552" />
  <path
     inkscape:connector-curvature="0"
     style="fill:none;stroke:#1f1a17;stroke-width:3.1362009"
     id="path2871"
     d="m 114.36177,387.86646 -0.75555,7.7752" />
  <path
     inkscape:connector-curvature="0"
     style="fill:none;stroke:#1f1a17;stroke-width:3.1362009"
     id="path2869"
     d="m 118.14034,392.40198 0,6.47925" />
  <path
     inkscape:connector-curvature="0"
     style="fill:none;stroke:#1f1a17;stroke-width:3.1362009"
     id="path2867"
     d="m 122.67439,395.64166 0.75576,5.18361" />
  <path
     inkscape:connector-curvature="0"
     style="fill:none;stroke:#1f1a17;stroke-width:3.1362009"
     id="path2865"
     d="m 128.71984,395.64166 1.5115,3.88776" />
  <path
     inkscape:connector-curvature="0"
     style="fill:none;stroke:#1f1a17;stroke-width:3.1362009"
     id="path2863"
     d="m 134.00958,392.40198 0,5.18361" />
  <path
     inkscape:connector-curvature="0"
     style="fill:none;stroke:#1f1a17;stroke-width:3.1362009"
     id="path2861"
     d="m 137.78801,389.1622 0,9.07116" />
  <path
     inkscape:connector-curvature="0"
     style="fill:none;stroke:#1f1a17;stroke-width:3.1362009"
     id="path2859"
     d="m 141.56632,394.34592 2.26712,6.47935" />
  <path
     inkscape:connector-curvature="0"
     style="fill:none;stroke:#1f1a17;stroke-width:3.1362009"
     id="path2857"
     d="m 146.10057,395.64166 0,8.42329" />
  <path
     inkscape:connector-curvature="0"
     style="fill:none;stroke:#1f1a17;stroke-width:3.1362009"
     id="path2855"
     d="m 152.146,396.28964 0.75569,7.77531" />
  <path
     inkscape:connector-curvature="0"
     style="fill:none;stroke:#1f1a17;stroke-width:3.1362009"
     id="path2853"
     d="m 158.94712,398.88123 0,3.88787" />
  <path
     inkscape:connector-curvature="0"
     style="fill:none;stroke:#1f1a17;stroke-width:3.1362009"
     id="path2851"
     d="m 173.29785,314.48983 1.51131,5.1834" />
  <path
     inkscape:connector-curvature="0"
     style="fill:none;stroke:#1f1a17;stroke-width:3.1362009"
     id="path2849"
     d="m 180.09903,309.30612 0.75562,6.47945" />
  <path
     inkscape:connector-curvature="0"
     style="fill:none;stroke:#1f1a17;stroke-width:3.1362009"
     id="path2847"
     d="m 183.87733,306.06644 2.26701,7.12733" />
  <path
     inkscape:connector-curvature="0"
     style="fill:none;stroke:#1f1a17;stroke-width:3.1362009"
     id="path2845"
     d="m 188.41136,302.82666 3.02269,9.71913" />
  <path
     inkscape:connector-curvature="0"
     style="fill:none;stroke:#1f1a17;stroke-width:3.1362009"
     id="path2843"
     d="m 195.96823,309.30612 0,5.18371" />
  <path
     inkscape:connector-curvature="0"
     style="fill:none;stroke:#1f1a17;stroke-width:3.1362009"
     id="path2839"
     d="m 238.75542,311.58468 -6.80119,0" />
  <path
     inkscape:connector-curvature="0"
     style="fill:none;stroke:#1f1a17;stroke-width:3.1362009"
     id="path2837"
     d="m 152.90169,410.5443 -12.84661,-1.94383" />
  <path
     inkscape:connector-curvature="0"
     style="fill:none;stroke:#1f1a17;stroke-width:3.1362009"
     id="path2834"
     d="m 110.5836,405.3608 -6.0455,0" />
  <path
     inkscape:connector-curvature="0"
     style="fill:none;stroke:#1f1a17;stroke-width:3.1362009"
     id="path2822"
     d="m 208.05897,315.13749 17.38075,0.64808" />
  <path
     inkscape:connector-curvature="0"
     style="fill:none;stroke:#1f1a17;stroke-width:3.1362009"
     id="path2820"
     d="m 224.68409,322.26493 -9.06811,0" />
  <path
     inkscape:connector-curvature="0"
     style="fill:none;stroke:#1f1a17;stroke-width:3.1362009"
     id="path2818"
     d="m 213.21996,305.54134 10.57956,1.29616" />
  <path
     inkscape:connector-curvature="0"
     style="fill:none;stroke:#1f1a17;stroke-width:3.1362009"
     id="path2816"
     d="m 222.42417,400.82527 9.06831,0" />
  <path
     inkscape:connector-curvature="0"
     style="fill:none;stroke:#1f1a17;stroke-width:3.1362009"
     id="path2812"
     d="m 225.57253,419.37888 -13.60244,-1.29595" />
  <path
     inkscape:connector-curvature="0"
     style="fill:none;stroke:#1f1a17;stroke-width:3.1362009"
     id="path2810"
     d="m 236.78224,382.68285 -12.09081,1.29585" />
  <path
     inkscape:connector-curvature="0"
     style="fill:none;stroke:#1f1a17;stroke-width:3.1362009"
     id="path2808"
     d="m 247.36179,381.387 8.31243,0.64787" />
  <path
     inkscape:connector-curvature="0"
     style="fill:none;stroke:#1f1a17;stroke-width:3.1362009"
     id="path2806"
     d="m 249.62879,376.85137 6.80098,-1.29585" />
  <path
     inkscape:connector-curvature="0"
     style="fill:none;stroke:#1f1a17;stroke-width:3.1362009"
     id="path2802"
     d="m 236.78224,375.55552 -4.534,1.29585 -11.33511,-1.94373" />
  <path
     inkscape:connector-curvature="0"
     style="fill:none;stroke:#1f1a17;stroke-width:3.1362009"
     id="path2800"
     d="m 223.17265,290.51572 -4.53399,0" />
  <path
     inkscape:connector-curvature="0"
     style="fill:none;stroke:#1f1a17;stroke-width:3.1362009"
     id="path2798"
     d="m 202.76935,296.3472 -7.55673,1.29595" />
  <path
     inkscape:connector-curvature="0"
     style="fill:none;stroke:#1f1a17;stroke-width:3.1362009"
     id="path2796"
     d="m 187.65584,296.3472 -12.84668,0" />
  <path
     inkscape:connector-curvature="0"
     style="fill:none;stroke:#1f1a17;stroke-width:3.1362009"
     id="path2794"
     d="m 182.36603,291.1638 6.80096,0.64798" />
  <path
     inkscape:connector-curvature="0"
     style="fill:none;stroke:#1f1a17;stroke-width:3.1362009"
     id="path2788"
     d="m 158.19131,378.79519 -24.18173,0.64798" />
  <path
     inkscape:connector-curvature="0"
     style="fill:none;stroke:#1f1a17;stroke-width:3.1362009"
     id="path2786"
     d="m 136.27671,373.61169 19.6476,0.64798" />
  <path
     inkscape:connector-curvature="0"
     style="fill:none;stroke:#1f1a17;stroke-width:3.1362009"
     id="path2784"
     d="m 158.94712,368.42808 -15.11368,-1.94382" />
  <path
     inkscape:connector-curvature="0"
     style="fill:none;stroke:#1f1a17;stroke-width:3.1362009"
     id="path2782"
     d="m 105.29359,382.68285 -12.090673,0" />
  <path
     inkscape:connector-curvature="0"
     style="fill:none;stroke:#1f1a17;stroke-width:3.1362009"
     id="path2780"
     d="m 116.6289,377.49924 -12.0908,0 -6.045638,-2.5916" />
  <path
     inkscape:connector-curvature="0"
     style="fill:none;stroke:#1f1a17;stroke-width:3.1362009"
     id="path2778"
     d="M 95.469846,378.14722 83.378919,377.49924" />
  <path
     inkscape:connector-curvature="0"
     style="fill:none;stroke:#1f1a17;stroke-width:3.1362009"
     id="path2776"
     d="m 90.179966,373.61169 -12.090927,0" />
  <path
     inkscape:connector-curvature="0"
     style="fill:none;stroke:#1f1a17;stroke-width:3.1362009"
     id="path2774"
     d="m 84.134534,380.73913 -6.045495,0" />
  <path
     inkscape:connector-curvature="0"
     style="fill:none;stroke:#1f1a17;stroke-width:3.1362009"
     id="path2766"
     d="m 67.509686,368.42808 -9.823811,-1.29585" />
  <path
     inkscape:connector-curvature="0"
     style="fill:none;stroke:#1f1a17;stroke-width:3.1362009"
     id="path2764"
     d="m 87.157224,364.54053 -13.602179,0" />
  <path
     inkscape:connector-curvature="0"
     style="fill:none;stroke:#1f1a17;stroke-width:3.1362009"
     id="path2762"
     d="m 103.78234,366.48426 10.57943,1.94382" />
  <path
     inkscape:connector-curvature="0"
     style="fill:none;stroke:#1f1a17;stroke-width:3.1362009"
     id="path2760"
     d="m 124.18571,365.83638 8.31249,0" />
  <path
     inkscape:connector-curvature="0"
     style="fill:none;stroke:#1f1a17;stroke-width:3.1362009"
     id="path2752"
     d="m 251.14016,361.94883 -7.55674,0.64777" />
  <path
     inkscape:connector-curvature="0"
     style="fill:none;stroke:#1f1a17;stroke-width:3.1362009"
     id="path2750"
     d="m 252.88407,340.04164 -10.57943,0" />
  <path
     inkscape:connector-curvature="0"
     style="fill:none;stroke:#1f1a17;stroke-width:3.1362009"
     id="path2748"
     d="m 238.29348,365.83638 21.91486,0.64788" />
  <path
     inkscape:connector-curvature="0"
     style="fill:none;stroke:#1f1a17;stroke-width:3.1362009"
     id="path2746"
     d="m 248.11748,370.37191 8.31229,-0.64798" />
  <path
     inkscape:connector-curvature="0"
     style="fill:url(#linearGradient3292);fill-opacity:1;fill-rule:evenodd"
     id="path4375"
     d="M 276.70044,358.26646 C 274.95633,362.47831 240.68828,463.49494 152.24466,467.19192 22.238324,467.70043 -5.3506158,285.82164 3.8428464,199.49475 c 22.2851766,-8.21059 48.6648856,0.37729 76.0072566,-4.15855 26.582757,-5.1835 75.443197,-21.16711 91.392867,-16.63137 26.58284,6.47935 80.40399,5.79027 125.64238,13.30105 5.92077,58.31992 1.15847,117.96772 -20.18491,166.26058 z" />
  <path
     inkscape:connector-curvature="0"
     style="fill:url(#linearGradient3295);fill-opacity:1;stroke:none"
     id="path426"
     d="m 199.49544,191.22001 c -7.31499,-8.08532 -18.34624,-10.21639 -27.33553,-16.79442 -2.00248,-1.21271 -5.96594,-1.47047 -8.98983,-2.09529 -4.98511,-1.17578 -11.31801,0.88258 -15.64917,-1.17578 -6.98674,-3.60174 -14.34217,-6.57825 -20.67474,-11.39228 -3.96459,-2.68339 -5.68027,-7.49753 -9.97105,-10.80543 -4.65767,-3.27013 -10.99157,-3.27013 -15.64951,-5.10756 -6.986472,-2.38882 -46.071571,39.44294 -52.772835,34.62505 -2.329474,-1.7592 8.991287,25.81123 6.294515,24.30582 C 49.067362,200.09861 9.0989608,198.24115 4.0738523,198.82936 11.575867,103.73777 61.493345,-0.27168049 150.78454,1.1405485 c 73.25953,0 129.26503,78.8229745 144.89092,174.1625015 l 1.81322,15.84488 c -9.64436,-2.09404 -27.59069,-2.02217 -37.5594,1.32151 -6.9874,2.09497 -13.26097,-4.88122 -20.61468,-2.78603 -11.68725,2.97212 -4.16869,-4.47701 -15.81516,-1.75826" />
  <path
     inkscape:connector-curvature="0"
     style="font-size:12px;fill:#d4aa00;fill-opacity:1;fill-rule:evenodd;stroke:url(#radialGradient5206);stroke-width:0.13792278;stroke-miterlimit:4;stroke-dasharray:none"
     id="polygon3483"
     d="m 87.124783,152.42577 -10.993841,-10.19313 -3.544097,14.02226 -4.012774,-13.91367 -10.646707,10.50397 4.043546,-13.90595 -14.896495,4.17117 11.016477,-10.17226 -15.1548,-3.27921 15.037524,-3.71294 -11.352462,-9.85088 15.029252,3.74141 -4.508302,-13.78318 10.99405,10.19313 3.544024,-14.02226 4.01291,13.91367 10.646508,-10.50397 -4.043421,13.90595 14.896433,-4.17117 -11.016341,10.17226 15.154603,3.27911 -15.037327,3.71293 11.352399,9.85099 -15.029387,-3.74141 4.508228,13.78318 z" />
  <path
     inkscape:connector-curvature="0"
     style="fill:#898a2c;fill-opacity:1;stroke:url(#linearGradient5182);stroke-width:1.08067584;stroke-linecap:round;stroke-miterlimit:4;stroke-dasharray:none"
     id="path430"
     d="m 170.50326,217.58001 c 9.07272,0.81383 18.51595,0.24231 26.59838,-2.46788 7.3816,-2.73628 15.46523,-4.66738 23.54751,-4.13039 0,-1.08253 2.35016,-1.92265 0.9893,-2.73648 -3.00981,-1.65384 -6.72162,-1.35061 -10.43259,-3.01322 -6.06291,-2.46799 -9.73249,-6.89253 -15.79434,-9.94038 -0.65992,-0.23397 -3.34026,-1.62808 -3.34026,-3.01353 21.19643,2.46788 47.13522,-1.35082 67.672,4.39878 2.35076,0.54533 8.41268,-1.35072 13.44312,-3.01333 6.06306,-2.19073 20.86437,-1.09421 24.57611,-3.59662 0.61857,-0.23376 -6.38935,-4.10974 -7.75008,-5.2269 -3.67085,-4.12694 -12.78361,-3.28098 -17.48467,-7.71272 -7.3824,-7.44079 -18.47496,-9.36907 -27.62998,-15.45716 -2.02037,-1.08243 -6.06292,-0.59217 -9.07266,-1.16723 -3.77903,-2.86364 -0.18881,-2.88189 -29.03689,-24.20912 -25.77253,-9.23973 -24.53695,-16.92324 -40.52199,-22.26488 -5.69047,-2.46789 -10.97222,-7.04107 -15.67334,-5.64675 -8.41167,2.46778 -26.50031,12.09418 -34.58301,17.07063 -6.72183,4.12694 -15.07657,11.42378 -20.808102,16.12568 -1.505305,1.2342 -18.895584,16.38938 -38.799758,27.74035 C 36.497826,180.66972 7.6621038,196.27229 5.1462169,196.54297 50.825589,192.87844 -35.334192,210.32292 170.50326,217.58001 Z" />
  <path
     inkscape:connector-curvature="0"
     style="fill:#677821;stroke:none"
     id="path436"
     d="m 54.933652,170.58947 c 11.376024,-6.41729 54.908208,-31.16591 68.094288,-48.01332 -1.87192,0.18171 3.90433,4.98386 3.518,7.02699 4.29044,-0.28644 1.92867,-4.69648 5.49473,-4.98312 2.74823,0 4.72347,-1.14711 7.08539,-2.04387 2.74809,-0.57381 1.15755,1.14721 1.15755,2.04387 -3.51947,6.74075 -11.37589,10.82795 -17.69004,16.09824 0.77111,0.5735 1.54241,1.14731 1.15742,2.04313 2.31232,0.2515 5.06029,0.2515 6.65095,-1.14741 0.38612,-0.28634 0.38612,-1.18309 0.38612,-1.7567 2.36191,0.86098 1.54275,2.61778 0.77157,3.80077 -1.54267,3.51359 -8.24308,3.19054 -10.21973,6.4176 -2.31379,3.47782 -4.67563,6.4176 -8.24175,9.07126 2.7469,-2.33061 5.87984,-5.27039 9.44723,-5.55767 5.49479,-0.57381 7.47158,-4.0872 12.19539,-5.23451 5.10826,-1.1472 8.24168,-5.27029 12.19518,-8.49745 -1.54247,2.33051 -4.72474,4.37447 -3.51953,7.02813 0.38633,0.28623 1.92887,1.75659 3.51953,1.147 -3.51953,4.69679 -10.99097,7.60101 -13.35281,13.15836 -2.36163,-0.86077 -3.90412,0.86015 -5.49472,1.14742 -2.31358,0.86004 -1.54248,4.37353 -3.133,5.55662 -6.65236,3.80076 -9.83356,9.96792 -12.58032,15.20243 -0.38632,0.57371 -5.49492,3.51067 -7.47177,4.08897 -3.5192,1.46849 -25.300912,18.78685 -25.685828,16.45551 -2.31365,-11.11147 -24.207631,9.78235 -75.2515694,-6.00422" />
  <path
     inkscape:connector-curvature="0"
     style="fill:#677821;stroke:none"
     id="path440"
     d="m 109.04666,212.18257 c -0.38505,-0.57799 -1.15629,-0.86297 -1.15629,-1.14732 0.77124,-2.33134 -2.7481,-2.62487 -2.7481,-4.9874 5.88112,0 10.60472,8.45688 14.17098,3.18846 0.77251,-1.18382 -1.54267,-2.90233 1.92859,-4.37165 0.77118,-0.25149 -0.77116,-1.14731 -0.38625,-1.7569 -1.92752,0 -3.518,0.28643 -4.72354,-0.25139 -1.54247,-0.57361 -2.36164,-1.14731 -4.28924,-1.7569 -1.9288,-0.5735 -2.74796,-3.19024 0,-4.08689 5.10853,-1.1832 10.60452,3.19138 14.55696,0.5735 3.13315,-2.04292 6.26596,-2.61674 9.39917,-4.08699 1.54241,-0.57371 6.70054,-0.25077 5.10867,1.72081 -1.15622,1.18309 -3.90445,0.86108 -5.49492,1.43458 -2.74696,1.14731 -5.1086,2.90401 -7.85682,4.37374 1.92879,-0.28664 1.5426,2.61747 3.90438,1.75659 3.51926,-1.43385 7.08553,-3.19044 10.98964,-3.79982 -0.38505,-1.14742 0.77258,-2.04407 0.77258,-3.22727 0.38491,0 0.7699,0 1.15608,0 -1.92866,-3.4775 3.51927,-2.00735 5.49492,-4.94797 0,0.57361 0.33787,0.57361 0.77117,0.86077 -2.74682,1.43375 -1.54241,3.76426 -2.31371,5.55777 -0.38492,0.5735 -1.54235,0.85983 -1.15616,1.7567 1.54248,1.43374 1.54248,-1.14742 2.74689,-0.57382 1.15736,0.28655 2.7479,0.86004 3.5192,0.57382 1.92754,0 3.90419,-1.14742 2.6987,-3.22727 -1.5426,-1.72091 -3.13314,-3.19127 -3.13314,-5.52178 0,-0.28633 -0.38492,-0.5736 -1.15616,-0.85994 3.13281,0 5.49479,1.18299 6.65101,2.90422 1.54254,1.75659 1.92853,4.37426 4.33869,4.98375 4.6753,0.86004 4.28911,-2.04407 4.28911,-4.98375 3.51919,0.28623 8.62934,2.04302 7.8581,4.37426 -0.3382,1.72102 -3.13309,3.19044 -5.88104,3.51349 -1.9276,0.25076 -0.77131,2.04324 -1.9276,2.3304 -2.31372,0 -5.1098,0.57371 -5.88104,1.75691 -0.77131,1.75669 0.38505,5.23816 1.9274,6.41301 2.31365,1.44095 7.03853,-0.56901 10.60465,0 0.33806,-2.6158 2.74816,-3.46958 4.72361,-5.26581 2.31386,-1.72081 -1.15609,-3.19127 -3.13294,-4.37426 -1.54242,-0.57392 -0.38499,-1.14741 0.38612,-2.61705 1.15622,-1.7207 4.72354,-0.28716 5.10873,-1.7207 0.77117,-1.75691 -0.77118,-4.37468 0.77117,-5.55777 1.15743,-1.14721 2.74809,0.86004 2.31351,2.3304 1.54268,-0.25045 1.92894,-1.43448 3.51934,-1.72081 1.92743,-0.28654 3.13298,1.72081 2.31375,2.3304 -2.31375,2.04397 -4.29041,3.47771 -3.51923,6.41739 0,1.47047 -2.74669,2.04418 -1.54234,3.22727 2.31345,2.04323 2.31345,4.0873 3.13294,6.41843 0.7712,2.6159 5.1097,3.19399 9.01408,2.04679 -1.54261,-4.95632 7.47171,-2.90954 11.42409,-4.37792 0.33679,0 0.33679,-0.86296 0,-1.14731 -1.92907,-1.43375 -2.31392,-2.0084 -1.92907,-4.0873 0,-0.2515 -0.72285,-0.86098 -1.15615,-1.14732 5.88117,2.33051 12.58043,3.22622 16.91893,7.60247 -5.49472,1.43187 -12.19519,0.86286 -17.69011,2.61611 -6.65221,2.33092 -13.35128,5.23128 -20.48623,5.23128 -3.13273,0 -6.26601,-1.71623 -9.3987,-1.71623 -22.0278,-1.46858 -40.92332,-0.86264 -63.38516,-2.33134 0.77144,0.24785 -1.92726,-0.28445 -2.31359,-0.57829" />
  <path
     inkscape:connector-curvature="0"
     style="fill:#677821;stroke:none"
     id="path3090"
     d="m 179.00202,191.5563 c -0.38499,-0.43205 -1.15616,-0.64485 -1.15616,-0.85733 0.77117,-1.74198 -2.74803,-1.96135 -2.74803,-3.72649 5.88104,0 10.60458,6.31882 14.17081,2.38214 0.7725,-0.88435 -1.54258,-2.1683 1.92866,-3.26607 0.77117,-0.18817 -0.77117,-0.85743 -0.38626,-1.31275 -1.92732,0 -3.51809,0.21405 -4.72344,-0.18786 -1.54254,-0.42872 -2.36184,-0.85712 -4.28937,-1.31254 -1.9286,-0.42882 -2.74796,-2.38391 0,-3.05369 5.1086,-0.88424 10.60455,2.38433 14.55706,0.4284 3.13308,-1.52658 6.2661,-1.95509 9.39911,-3.05348 1.54254,-0.42903 6.70033,-0.18755 5.10866,1.28563 -1.15636,0.88393 -3.90445,0.64318 -5.49499,1.07189 -2.74668,0.85723 -5.10852,2.16977 -7.85675,3.26774 1.92886,-0.21394 1.54268,1.95561 3.90445,1.31254 3.51919,-1.07117 7.08545,-2.38391 10.98963,-2.83923 -0.38498,-0.85702 0.77252,-1.52711 0.77252,-2.41124 0.38484,0 0.76989,0 1.15608,0 -1.9286,-2.59817 3.51927,-1.49967 5.49506,-3.69708 0,0.42861 0.338,0.42861 0.77123,0.64328 -2.74702,1.07117 -1.54261,2.81242 -2.31365,4.1525 -0.38531,0.42872 -1.54261,0.64266 -1.15642,1.31254 1.54241,1.07137 1.54241,-0.85702 2.74682,-0.42872 1.1573,0.21415 2.74803,0.64277 3.5192,0.42872 1.92747,0 3.90419,-0.85702 2.69878,-2.41124 -1.54255,-1.28573 -3.13309,-2.38444 -3.13309,-4.12569 0,-0.21405 -0.38498,-0.42851 -1.15615,-0.64266 3.13301,0 5.49465,0.88393 6.65108,2.17018 1.54241,1.31244 1.92859,3.26836 4.33855,3.72357 4.6753,0.64266 4.28904,-1.5271 4.28904,-3.72357 3.51954,0.21373 8.62927,1.52627 7.85797,3.26836 -0.338,1.28573 -3.13289,2.3836 -5.88104,2.62498 -1.9274,0.18744 -0.77124,1.52669 -1.9274,1.74146 -2.31372,0 -5.10987,0.42861 -5.88097,1.31244 -0.77117,1.31264 0.38491,3.91383 1.92732,4.79182 2.31379,1.07648 7.03847,-0.42538 10.60466,0 0.33839,-1.95458 2.74829,-2.59254 4.72361,-3.93449 2.31378,-1.28584 -1.15602,-2.38454 -3.13295,-3.26847 -1.54241,-0.42872 -0.38498,-0.85754 0.38613,-1.95541 1.15649,-1.28573 4.72354,-0.21446 5.10873,-1.28573 0.77137,-1.31233 -0.77124,-3.26846 0.77137,-4.1525 1.15723,-0.85712 2.74789,0.64277 2.31339,1.74126 1.54241,-0.18713 1.92879,-1.07179 3.5192,-1.28573 1.92739,-0.21405 3.13308,1.28573 2.31392,1.74115 -2.31392,1.52721 -4.29071,2.59858 -3.51927,4.79505 0,1.0985 -2.74663,1.52732 -1.54249,2.41114 2.31359,1.52658 2.31359,3.054 3.13302,4.79599 0.77117,1.95447 5.10986,2.38652 9.01405,1.52919 -1.54235,-3.70323 7.47171,-2.17393 11.42415,-3.27118 0.33693,0 0.33693,-0.64484 0,-0.85712 -1.92886,-1.07127 -2.31372,-1.50082 -1.92886,-3.054 0,-0.18786 -0.72312,-0.64318 -1.1563,-0.85722 5.88124,1.74125 16.2892,4.05246 20.62776,7.32249 -5.49472,1.06991 -15.90401,-0.99752 -21.39886,0.31252 -6.65235,1.74177 -13.35141,3.90903 -20.48632,3.90903 -3.13289,0 -6.26596,-1.2826 -9.39884,-1.2826 -22.0276,-1.09735 -40.92319,-0.64464 -63.38514,-1.74188 0.77138,0.18536 -1.92726,-0.21259 -2.31338,-0.43205" />
  <path
     inkscape:connector-curvature="0"
     style="fill:#89a02c;fill-opacity:1;stroke:#315b22;stroke-width:0.74313551;stroke-miterlimit:4;stroke-dasharray:none;stroke-opacity:1"
     id="path1871"
     d="m 155.39709,221.99714 c 10.91101,-0.94526 12.90596,7.15613 19.82122,-0.20225 6.58726,0.94515 12.57943,-1.35541 12.63843,-2.26344 15.36575,2.5796 62.61116,-3.15863 59.36862,-6.27636 -5.07129,-5.21136 -13.08516,-6.97859 -19.50777,-11.38404 -1.42874,-0.801 -4.36753,-1.16223 -6.53995,-1.67554 -3.62605,-0.93765 -8.37163,0.0136 -11.48182,-1.42624 -5.00567,-2.4925 -10.30677,-4.62492 -14.78342,-7.8188 -2.81425,-1.79988 -3.8592,-4.78045 -6.95013,-6.97546 -3.30309,-2.18635 -7.96856,-2.47654 -11.32924,-3.77614 -5.05347,-1.76087 -7.96088,-6.30391 -12.70832,-9.51396 -1.64647,-1.17339 -4.37895,-0.98438 -6.27644,-2.01403 -4.04782,-1.87561 -7.25018,-6.086 -10.74074,-5.38576 -6.24488,1.23535 -9.77682,6.28575 -15.88793,9.18027 -5.08184,2.39924 -7.32146,6.62194 -11.70522,9.44313 -1.15134,0.7406 -14.48988,9.88269 -29.500773,16.41764 -15.011227,6.53495 -34.719171,14.4952 -36.566876,14.55831 0,0 13.775376,9.07596 45.025939,6.79656 l 19.34159,5.31181 10.63482,-2.15214 c 0,0 26.63635,-0.87547 27.14801,-0.84356 z" />
  <path
     inkscape:connector-curvature="0"
     style="fill:#677821;stroke:none"
     id="path3088"
     d="m 86.838847,200.82909 c 6.91726,-3.46603 33.386683,-16.83103 41.378663,-25.87767 -1.14047,0.10327 2.39387,2.65168 2.16374,3.74527 2.61473,-0.16658 1.16284,-2.5166 3.33605,-2.68099 1.67511,-0.0104 2.87612,-0.62785 4.3138,-1.11456 1.6737,-0.31543 0.70863,0.60949 0.7111,1.08879 -2.12716,3.61416 -6.90511,5.82356 -10.73975,8.66039 0.4715,0.30427 0.94345,0.60855 0.71091,1.08848 1.41045,0.12726 3.08556,0.1186 4.05136,-0.63411 0.23467,-0.15437 0.23227,-0.63358 0.23067,-0.94015 1.44229,0.45271 0.94751,1.39432 0.48062,2.02926 -0.93075,1.88291 -5.01615,1.73124 -6.21242,3.46238 -1.40091,1.86601 -2.83266,3.44486 -4.99933,4.87454 1.66821,-1.25423 3.56998,-2.83548 5.74394,-3.00029 3.34793,-0.32388 4.5434,-2.20815 7.41984,-2.83599 3.11106,-0.62931 5.00969,-2.84299 7.41091,-4.58038 -0.93397,1.25047 -2.86824,2.35303 -2.12616,3.76759 0.23627,0.15198 1.18064,0.93295 2.14845,0.60229 -2.13244,2.5215 -6.67911,4.09732 -8.10378,7.07528 -1.44203,-0.45292 -2.3776,0.4719 -3.34646,0.63035 -1.408,0.4671 -0.92837,2.34271 -1.8945,2.98015 -4.04495,2.05221 -5.96727,5.35895 -7.62722,8.16522 -0.23415,0.30803 -3.34026,1.89407 -4.54374,2.20919 -2.14138,0.7961 -15.37192,10.12126 -15.6132,8.87652 -1.4407,-5.93214 -14.283307,3.30456 -45.442766,-4.97436" />
  <path
     inkscape:connector-curvature="0"
     style="fill:url(#radialGradient5236);fill-opacity:1;stroke:#3e5122;stroke-width:0;stroke-linecap:round;stroke-linejoin:round;stroke-miterlimit:4;stroke-dasharray:none;stroke-dashoffset:0;stroke-opacity:1"
     id="path5208"
     d="m 87.554741,128.30186 a 14.347979,14.964447 0 1 1 0,-0.15052" />
  <g
     id="g10698"
     transform="matrix(3.225768,0,0,3.1787475,-112.27957,-499.44264)">
    <g
       id="g3458"
       transform="matrix(1.401735,0,0,1.401735,-8.672401,180.8169)">
      <path
         inkscape:connector-curvature="0"
         style="fill:#cc6633;stroke:none"
         id="path62"
         d="m 42.413,53.8367 c 0.149,0.289 -0.18,0.945 -0.64,1.707 0.292,-0.051 0.585,-0.144 0.878,-0.527 -0.207,0.648 -0.488,1.043 -0.793,1.363 0.207,0.082 0.446,-0.004 0.747,-0.484 0,0.117 0,0.234 0,0.351 -0.086,0.278 -0.262,0.68 -0.352,0.961 -0.25,0.129 -0.312,0.695 -0.484,1.11 -0.36,-0.626 -0.661,-1.329 -0.262,-2.95 -0.344,-0.293 0.043,-0.926 0.359,-1.406 -0.093,0.027 -0.351,0.234 -0.445,0.262 0.086,-0.688 0.23,-1.379 0.793,-2.071 0.441,-0.265 0.84,-0.269 1.144,0.305 0.079,0.344 0.098,0.496 -0.57,0.844 -0.683,0.484 -0.637,0.539 -0.367,0.527" />
      <path
         inkscape:connector-curvature="0"
         style="fill:#000000;stroke:none"
         id="path638"
         d="m 63.831,62.5087 c -1.64,0.691 -2.742,5.277 -3.406,6.601 -0.371,0.754 -1.192,2.493 -0.418,3.594 0.34,0.485 0.926,0.656 0.961,1.051 1.14,0.187 1.762,0.75 1.672,1.613 -0.461,0.774 -2.117,0.614 -2.922,0.149 0.012,-0.203 -0.11,-0.407 -0.367,-0.61 -0.059,-0.195 -0.121,-0.394 -0.184,-0.589 -2.391,-1.239 -0.726,-2.801 -1.016,-6.2 -0.156,0.625 -0.312,1.254 -0.468,1.879 -0.16,1.43 -0.336,2.871 -0.223,4.168 0.324,0.535 0.688,1.039 1.285,1.305 0.516,0.199 0.52,0.394 1.059,1.195 0.058,0.184 0.336,0.668 0.129,0.852 -0.289,0.422 -0.379,0.675 -2.293,0.152 -0.032,-0.258 -0.067,-0.516 -0.102,-0.773 -0.234,0.097 -0.406,0 -0.508,-0.305 -0.043,-0.359 -0.285,-0.719 -0.734,-1.082 0.027,-0.543 -0.668,-0.547 -0.879,-1.305 -0.207,-0.758 0.199,-2.14 0.297,-3.211 0.316,-1.699 0.641,-3.301 0.59,-4.976 -0.781,-0.727 -0.844,-1.973 -0.805,-3.492 -1.504,0.628 -3.797,-0.614 -4.516,-1.118 -0.718,-0.504 -0.371,3.293 -3,4.852 -0.574,0.551 -0.82,0.898 -1.046,1.758 -0.899,0.902 0.562,4.09 1.492,5.105 0.453,0.512 1.152,1.453 1.605,1.969 0.703,0.434 1.711,0.957 1.653,1.777 -0.86,0.434 -2.434,0.328 -3.184,0 -0.059,-0.343 -0.586,-0.953 -0.156,-1.3 -0.504,0.046 -1.332,-0.387 -1.457,-0.614 -0.282,-0.797 -2.27,-5.023 -2.813,-5.762 -0.351,-0.015 -0.5,-0.984 -0.469,-1.332 0.059,-0.64 0.133,0.071 0.883,-2.089 -0.523,1.031 -1.988,1.925 -1.902,3.246 0.168,0.976 1.09,3.32 1.258,4.301 0.582,0.492 0.367,1.007 1.683,1.519 0.618,0.512 1.614,1.445 1.633,2.066 -0.668,0.352 -2.394,0.614 -3.281,0.149 -0.195,-0.442 -0.25,-1.113 -0.445,-1.555 -0.286,-0.066 -0.161,-0.441 -0.45,-0.512 -0.312,-0.195 -1.121,-0.148 -1.437,-0.343 -0.481,-2.219 -1.047,-5.852 -1.531,-8.074 -0.164,-0.465 0.195,-1.735 0.625,-1.93 0.964,-0.582 1.613,-1.903 2.285,-2.719 1.113,-0.836 0.531,-3.086 -0.492,-4.266 -0.45,0.641 -0.172,0.848 -0.364,0.95 -0.523,0.285 -1.261,-1.258 -1.011,-2.016 0.171,-0.969 -0.032,-1.703 0.195,-2.965 0.371,-2.058 1.531,-2.496 2.656,-1.445 1.445,-1.317 3.363,-2.231 5.348,-1.93 3.32,-1.008 5.699,0.094 7.137,0.598 1.949,0.406 2.906,1.269 4.085,2.277 0.555,0.473 1.239,0.106 1.657,-0.441 0.023,-3.188 -0.242,-6.492 -1.653,-9.863 0.561416,-1.148394 0.200783,-1.179671 0.512,-2.774 0.668,-1.051 1.828,-1.043 2.961,-1.094 0.855,-0.09 1.715,0.434 2.574,1.242 0.356,0.555 1.77,0.719 2.043,1.028 0.274,0.308 0.043,1.094 -0.101,1.625 -0.192,0.433 -0.68,0.652 -1.176,0.711 -0.293,0.097 -0.649,0.027 -0.942,0.125 -0.066,0.281 -0.519,0.547 -0.906,0.738 0.867,2.32 1.453,6.195 1.246,9.863 -0.043,1.852 -0.109,4.348 -2.121,5.961 -0.765,0.614 -0.285,1.617 -0.719,2.285" />
      <path
         inkscape:connector-curvature="0"
         style="fill:#ffefdc;fill-opacity:1;stroke:none"
         id="path644"
         d="m 61.53,40.2507 c 1.004,-0.949 2.246,-1.285 4.004,-0.281 0.805,0.898 1.512,0.898 2.395,1.238 0.027,0.348 0.328,0.535 0.508,0.508 -0.063,0.121 -0.102,0.469 -0.168,0.59 -0.286,0.304 -1.086,0.226 -1.832,0.222 0.597,0.188 1.238,0.282 1.691,0.168 -0.156,0.301 -0.664,0.903 -1.887,0.618 -0.32,0.668 -0.965,1.23 -2.254,0.703 -0.382,0.074 -0.937,-0.242 -1.324,-0.336 0.617,0.676 1.375,1.152 2.07,1.226 0.223,0.703 1.735,5.684 1.512,8.785 0.11,1.153 -0.379,3.45 -1.023,5.02 -0.313,0.762 -0.867,0.871 -1.16,1.285 -0.735,1.039 -0.512,2.016 -0.832,2.492 -2.102,0.301 -2.286,6.528 -3.457,6.235 -0.868,-0.215 -1.27,-3.371 -0.172,-4.024 3.652,-2.168 2.32,-7.461 2.511,-7.004 -0.793,2.836 -0.246,5.571 -2.07,5.43 -1.465,-0.617 -2.172,3.734 -2.144,4.434 0.031,1.027 -0.235,1.215 -0.43,2.004 -0.149,0.613 -0.199,1.597 -0.375,3.57 -0.043,0.492 -0.016,0.801 0.109,1.223 0.383,0.562 0.785,1.195 1.535,1.484 0.786,0.301 1.149,1.277 0.942,1.562 -0.176,0.243 -0.883,0.571 -1.762,0.059 -0.043,-0.148 -0.195,-0.336 -0.191,-0.789 -0.602,-0.047 -0.618,-0.855 -1.157,-1.375 0.125,-0.5 -0.957,-0.648 -0.945,-1.606 0.008,-0.976 0.473,-3.117 0.856,-4.921 0.418,-0.965 0.414,-1.981 0.476,-2.508 -0.262,-0.727 0.598,-0.738 0.031,-1.289 -1.156,-1.125 -1.015,-3.008 0.582,-4.844 -0.324,-0.188 -0.476,-0.727 -0.718,-1.094 l 0.004,1.336 -1.293,1.578 c -1.258,0.305 -3.989,-0.523 -4.883,-1.734 -0.649,-0.512 -1.207,-1.113 -1.149,-2.332 0.008,-0.203 -0.722,0 -0.597,0.16 0.265,0.352 -0.192,0.68 -0.075,1.234 0.086,0.411 1.079,0.704 1.032,1.086 l -0.27,2.188 c -0.168,1.379 -1.137,2.773 -2.555,4.16 l -1.007,2.246 c -0.086,1.324 1.769,3.887 2.722,5.082 0.34,0.285 0.649,0.949 0.989,1.238 0.414,0.145 1.043,0.582 1.578,1.329 -0.492,0.168 -1.446,0.335 -2.539,-0.012 -0.274,-0.266 -0.243,-0.981 0,-1.207 -0.641,-0.133 -1.2,-0.266 -1.59,-0.699 -0.903,-1.993 -1.879,-3.985 -3.024,-5.981 -0.336,-0.453 -0.246,-1.207 0.293,-1.82 1.157,-2.524 1.43,-4.465 0.825,-5.817 -0.981,-0.336 -1.848,-2.136 -2.079,-3.793 -0.277,-1.992 0.114,-4.156 1.172,-5.035 0.969,-1.062 3.008,-1.695 4.77,-1.441 2.637,-1.102 7.922,0.527 8.762,1.137 1.578,0.226 1.964,1.953 3.187,1.843 0.781,-0.066 1.371,-0.699 1.465,-1.609 -0.02,-7.441 -1.813,-8.262 -1.613,-9.504 0.148,-0.394 0.468,-0.676 0.843,-0.844 -0.3,-0.289 -0.554,-0.582 -0.476,-0.875 0.062,-0.242 0.129,-0.488 0.195,-0.73" />
      <path
         inkscape:connector-curvature="0"
         style="fill:#000000;stroke:none"
         id="path646"
         d="m 66.159,41.4067 c -0.82,-0.293 -0.84,-0.672 -1.808,-0.394 -0.649,0.347 -0.571,0.441 -0.782,0.789 0.356,-0.188 0.465,-0.309 0.676,-0.195 0.371,0.218 1.043,0.16 1.176,-0.168 0.273,-0.094 0.465,0.062 0.738,-0.028" />
      <path
         inkscape:connector-curvature="0"
         style="fill:#ffefdc;fill-opacity:1;stroke:none"
         id="path648"
         d="m 60.132,63.6767 c 0.219,0.805 0.211,1.183 -0.242,1.992 0.527,0.789 0.562,1.746 -0.301,2.773 0.711,1.309 -0.262,2.016 -0.195,3.711 0.402,1.059 1.183,1.067 1.199,1.754 0.976,0.164 1.687,0.407 1.707,1.172 0.051,0.117 -0.199,-0.254 -0.508,-0.164 0.316,0.199 0.414,0.403 0.313,0.461 -0.266,0.152 -0.754,0.215 -1.395,0.199 -0.246,-0.086 -0.602,-0.097 -0.719,-0.535 0.032,-0.168 0.141,-0.5 0.172,-0.668 -0.976,-0.203 -1.344,-0.707 -1.383,-1.75 -0.109,0.406 -0.285,0.645 -0.3,0.856 -0.247,-0.368 -0.532,-0.848 -0.399,-1.356 0.469,-1.793 0.469,-2.945 0.281,-4.238 -0.019,-3.149 0.844,-3.625 1.77,-4.211" />
      <path
         inkscape:connector-curvature="0"
         style="fill:#ffefdc;fill-opacity:1;stroke:none"
         id="path650"
         d="m 42.433,53.9817 c 0.148,0.289 -0.18,0.945 -0.641,1.707 0.293,-0.051 0.586,-0.145 0.879,-0.528 -0.207,0.649 -0.488,1.043 -0.793,1.364 0.207,0.082 0.445,-0.004 0.746,-0.485 0,0.117 0,0.235 0,0.352 -0.086,0.277 -0.262,0.679 -0.351,0.961 -0.25,0.129 -0.313,0.695 -0.485,1.109 -0.355,-0.625 -0.66,-1.328 -0.262,-2.949 -0.343,-0.293 0.043,-0.926 0.36,-1.406 -0.094,0.027 -0.352,0.234 -0.449,0.261 0.086,-0.687 0.23,-1.379 0.793,-2.07 0.441,-0.266 0.839,-0.27 1.144,0.305 0.078,0.343 0.098,0.496 -0.57,0.843 -0.684,0.485 -0.637,0.539 -0.367,0.528" />
      <path
         inkscape:connector-curvature="0"
         style="fill:#663300;stroke:none"
         id="path652"
         d="m 45.808,59.4417 c 0.05,1.657 0.402,2.719 0.375,4.141 -0.028,1.34 -0.68,2.801 -1.387,4.317 0.219,-0.25 0.527,-0.719 0.746,-0.614 0.121,-1.011 0.621,-1.551 0.961,-2.316 0.387,-0.867 0.594,-1.93 0.27,-2.485 -0.497,-0.894 -0.821,-1.906 -0.969,-3.039" />
      <path
         inkscape:connector-curvature="0"
         style="fill:#ffefdc;fill-opacity:1;stroke:none"
         id="path654"
         d="m 42.065,68.1217 c -0.058,0.32 -0.113,0.645 -0.175,0.969 0.312,1.84 0.738,3.426 1.406,4.449 0.395,0.293 0.672,0.586 0.836,0.879 0.219,0.219 0.437,0.438 0.66,0.66 0.82,0.363 1.336,0.938 1.805,1.539 -0.821,0.426 -1.645,0.235 -2.465,-0.043 -0.188,-0.511 -0.379,-1.027 -0.57,-1.539 -0.145,-0.117 -0.293,-0.234 -0.438,-0.351 -0.394,-0.176 -1.453,-0.571 -1.539,-1.012 -0.152,-2.363 -0.598,-4.242 -1.187,-6.605 -0.254,-0.887 -0.254,-1.665 0.308,-2.2 0.832,-0.625 1.59,-1.277 2.07,-2.023 0.688,-0.645 1.086,-1.469 1.188,-2.465 0.484,0.66 0.73,1.32 0.746,1.98 0.336,1.043 0.059,2.086 -0.309,3.129 -0.777,0.879 -1.554,1.762 -2.332,2.641" />
      <path
         inkscape:connector-curvature="0"
         style="fill:#663300;stroke:none"
         id="path10687"
         d="m 43.691,61.9537 c -0.149,2.125 -2.598,3.403 -2.657,5.535 -0.047,-0.707 -0.179,-1.379 0.36,-2.613 0.839,-0.598 1.578,-1.691 2.293,-2.922" />
      <path
         inkscape:connector-curvature="0"
         style="fill:#663300;stroke:none"
         id="path10689"
         d="m 41.425,63.7387 c -0.445,0.606 -0.715,1.211 -0.813,1.813 -0.066,-0.41 -0.23,-0.817 0.071,-1.234 0.183,-0.317 0.433,-0.512 0.738,-0.579" />
    </g>
    <g
       id="g10691"
       transform="translate(-343.6075,-10.01622)">
      <path
         inkscape:connector-curvature="0"
         style="fill:#ffefdc;fill-opacity:1;stroke:#000000;stroke-width:0.51386184;stroke-miterlimit:4;stroke-dasharray:none;stroke-opacity:1"
         id="path642"
         d="m 424.70656,242.0351 c 0.39866,-0.52571 0.59175,-0.84266 0.74858,-0.1385 -0.80739,1.77808 0.45863,3.41176 -1.30558,4.39258 -0.13809,-0.39629 -0.36844,-0.37325 -0.3389,-0.8366 0.83662,-0.23368 0.51185,-2.6431 0.88819,-3.41876" />
      <path
         inkscape:connector-curvature="0"
         style="fill:#ffefdc;fill-opacity:1;stroke:#000000;stroke-width:0.50302017;stroke-miterlimit:4;stroke-dasharray:none;stroke-opacity:1"
         id="path640"
         d="m 422.9193,246.67291 c -0.24869,-0.35548 -0.85227,-1.60699 -0.60466,-2.59293 0.27281,-1.07886 0.74498,-1.08999 1.05834,-2.31876 0.20601,-0.57082 0.34001,-0.5329 0.39606,0.10976 0.14215,1.43261 0.54865,3.27116 -0.49998,4.62331 0.003,-1.06254 0.008,-1.29912 0.0883,-2.57468 -0.36328,1.28548 -0.50105,1.56389 -0.4417,2.75347" />
    </g>
  </g>
  <g
     id="g5281"
     transform="matrix(7.6706905,0,0,9.1120825,-1657.4896,-2575.1252)">
    <path
       inkscape:connector-curvature="0"
       style="fill:#957f66;fill-rule:evenodd;stroke:#1f1a17;stroke-width:0.1971547;stroke-miterlimit:4;stroke-dasharray:none"
       id="path4377"
       d="m 249.52963,311.63774 c -0.1717,-0.0289 -0.47921,12.93502 0.17935,13.30929 0.26903,0.39145 -1.67129,0.58548 -1.61415,-0.0979 0.0573,-0.68504 1.03275,-13.79861 -0.44838,-16.34303 0,0 1.34513,-1.85939 2.33156,-0.39145 -0.26903,-0.58718 -0.44838,3.52305 -0.44838,3.52305 z" />
    <path
       inkscape:connector-curvature="0"
       style="fill:#58b843;fill-opacity:1;fill-rule:evenodd;stroke:#1f1a17;stroke-width:0.13418907;stroke-miterlimit:4;stroke-dasharray:none"
       id="path4379"
       d="m 248.36294,309.6865 c -0.0354,0.002 2.99952,0.43351 3.54509,5.04149 -0.61286,1.38104 -1.15018,-0.30646 -1.33018,-0.75646 -0.36,-0.72 -1.85491,-1.22503 -2.21491,-4.28503 z" />
    <path
       inkscape:connector-curvature="0"
       style="fill:#58b843;fill-opacity:1;fill-rule:evenodd;stroke:#1f1a17;stroke-width:0.13805459;stroke-miterlimit:4;stroke-dasharray:none"
       id="path4381"
       d="m 248.27082,310.04437 c 0,0 1.74509,1.71 -0.68491,4.41 -0.99,1.17 -2.10509,2.43 -2.46509,2.25 -0.27,-0.18 0.27,-1.71 0.9,-2.79 0.63,-1.17 1.62,-3.42 2.25,-3.87 l 0,0 z" />
    <path
       inkscape:connector-curvature="0"
       style="fill:#58b843;fill-opacity:1;fill-rule:evenodd;stroke:#1f1a17;stroke-width:0.13805459;stroke-miterlimit:4;stroke-dasharray:none"
       id="path4383"
       d="m 249.17082,309.6865 c 0,0 1.44,1.44 2.88,0.81 1.35,-0.63 2.97,-1.8 2.7,-2.16 -0.18,-0.27 -1.62,-0.45 -2.52,-0.27 -0.9,0.09 -2.79,1.35 -3.06,1.62 l 0,0 z" />
    <path
       inkscape:connector-curvature="0"
       style="fill:#58b843;fill-opacity:1;fill-rule:evenodd;stroke:#1f1a17;stroke-width:0.13805459;stroke-miterlimit:4;stroke-dasharray:none"
       id="path4385"
       d="m 248.27082,309.2365 c 0,0 -2.88,-1.35 -4.05,-0.99 -1.04642,0.50383 -1.44185,0.72059 -2.16,1.44 -0.59701,0.59805 -0.54,1.62 -0.27,1.8 0.36,0.27 0.9,-0.72 1.71,-0.9 0.9,-0.09 3.06,-0.63 3.6,-0.54 0.54,0.09 1.17,-0.81 1.17,-0.81 l 0,0 z" />
    <path
       inkscape:connector-curvature="0"
       style="fill:#58b843;fill-opacity:1;fill-rule:evenodd;stroke:#1f1a17;stroke-width:0.13805459;stroke-miterlimit:4;stroke-dasharray:none"
       id="path4387"
       d="m 248.27082,309.2365 c 0,0 -3.87,1.08 -4.41,1.62 -0.54,0.54 -1.08,1.62 -1.08,1.62 0,0 -1.08,0.81 -0.36,1.98 0,0 0.36,-0.54 0.9,-1.17 0.54,-0.63 2.25,-1.53 3.15,-1.89 0.81,-0.45 1.89,-1.71 1.8,-2.16 l 0,0 z" />
    <path
       inkscape:connector-curvature="0"
       style="fill:#58b843;fill-opacity:1;fill-rule:evenodd;stroke:#1f1a17;stroke-width:0.13805459;stroke-miterlimit:4;stroke-dasharray:none"
       id="path4389"
       d="m 248.27082,310.04437 c 0,0 -2.97,1.44 -3.42,2.52 -0.45,0.99 -0.72,1.62 -0.54,2.52 0,0 3.33,-1.8 3.96,-5.04 l 0,0 z" />
    <path
       inkscape:connector-curvature="0"
       style="fill:none;stroke:#1f1a17;stroke-width:0.13418907;stroke-miterlimit:4;stroke-dasharray:none"
       id="path4391"
       d="m 245.48223,316.34437 c 2.25,-2.34 3.15,-6.93 3.15,-6.93 0,0 -3.69,4.32 -4.14,5.4 m 10.26,-6.48 c 0,0 -2.07,0.81 -3.06,1.08 -0.99,0.36 -2.7,0 -3.06,0 0,0 0.09,0.9 0.9,1.89 0.81,0.9 1.98,2.7 1.98,3.87" />
    <path
       inkscape:connector-curvature="0"
       style="fill:none;stroke:#1f1a17;stroke-width:0.13418907;stroke-miterlimit:4;stroke-dasharray:none"
       id="path4393"
       d="m 242.42082,314.45579 c -0.27,-0.9 1.53,-2.43 1.98,-2.88 0.45,-0.45 4.14,-2.43 4.14,-2.43 0,0 -2.25,0.18 -3.42,0.27 -0.99,0.09 -2.88,0.9 -3.33,2.07" />
    <path
       inkscape:connector-curvature="0"
       style="fill:#58b843;fill-opacity:1;fill-rule:evenodd;stroke:#1f1a17;stroke-width:0.15080485;stroke-miterlimit:4;stroke-dasharray:none"
       id="path4437"
       d="m 248.99109,309.3099 c 1.55839,-1.52245 4.18705,-2.00268 4.76505,-3.44821 0.0953,-0.40568 -2.38253,-0.50709 -3.04963,-0.10142 -0.76241,0.40567 -2.09663,3.04254 -2.09663,3.04254 l 0.38121,0.50709 0,0 z" />
    <path
       inkscape:connector-curvature="0"
       style="fill:#58b843;fill-opacity:1;fill-rule:evenodd;stroke:#1f1a17;stroke-width:0.13805459;stroke-miterlimit:4;stroke-dasharray:none"
       id="path4439"
       d="m 248.90153,308.42508 c 0,0 1.08,-1.26 1.53,-1.98 0.45,-0.72 0.72,-1.62 0.9,-2.07 0.27,-0.45 0.45,-0.99 0.45,-0.99 0,0 -1.62,0.36 -2.07,1.08 -0.54,0.63 -1.17,1.8 -1.17,2.25 0,0.36 0.36,1.71 0.36,1.71 l 0,0 z" />
    <path
       inkscape:connector-curvature="0"
       style="fill:#58b843;fill-opacity:1;fill-rule:evenodd;stroke:#1f1a17;stroke-width:0.15079771;stroke-miterlimit:4;stroke-dasharray:none"
       id="path4441"
       d="m 249.01359,309.32558 c 0,0 0.55123,-2.31427 -1.74557,-3.99737 -0.82685,-0.73636 -2.75616,-1.99665 -3.75199,-2.42046 0.51581,1.34349 1.36332,2.63085 2.19017,3.36721 0.91872,0.84155 2.84803,3.261 2.84803,3.261 l 0.45936,-0.21038 0,0 z" />
    <path
       inkscape:connector-curvature="0"
       style="fill:#58b843;fill-opacity:1;fill-rule:evenodd;stroke:#1f1a17;stroke-width:0.13805459;stroke-miterlimit:4;stroke-dasharray:none"
       id="path4443"
       d="m 248.09365,308.7865 c 0,0 -0.81,-1.8 -2.16,-2.07 -1.44,-0.18 -2.97,-0.72 -4.14,0 -1.08,0.81 0.81,0.54 1.71,0.99 0.99,0.45 3.06,1.26 3.69,1.26 0.63,0 0.9,-0.18 0.9,-0.18 z" />
    <path
       inkscape:connector-curvature="0"
       style="fill:#58b843;fill-opacity:1;fill-rule:evenodd;stroke:#1f1a17;stroke-width:0.13418907;stroke-miterlimit:4;stroke-dasharray:none"
       id="path4445"
       d="m 248.54365,309.14437 c 0,0 -1.44,-1.26 -2.25,-1.26 -0.9,-0.18 -2.52,-1.17 -4.5,-0.81 -1.08,0.18 6.75,2.07 6.75,2.07 z" />
    <path
       inkscape:connector-curvature="0"
       style="fill:#58b843;fill-opacity:1;fill-rule:evenodd;stroke:#1f1a17;stroke-width:0.15080485;stroke-miterlimit:4;stroke-dasharray:none"
       id="path9390"
       d="m 249.28091,309.70636 c 1.55839,-1.52245 4.18705,-2.00268 4.76505,-3.44821 0.0953,-0.40568 -2.38253,-0.3546 -3.04963,0.0511 -0.76241,0.40567 -2.09663,2.89005 -2.09663,2.89005 l 0.38121,0.50709 0,0 z" />
    <path
       inkscape:connector-curvature="0"
       style="fill:none;stroke:#1f1a17;stroke-width:0.13805459;stroke-miterlimit:4;stroke-dasharray:none"
       id="path4447"
       d="m 251.51294,303.47508 c -1.9752,1.36505 -2.91117,5.83096 -2.3915,5.91845 -0.1203,-0.0675 2.62114,-3.39306 4.6636,-3.24596 m -5.2421,2.99751 c 0,0 -1.08,-2.61 -1.8,-3.15 -0.63,-0.54 -2.52,-2.34 -2.52,-2.34" />
  </g>
  <path
     inkscape:connector-curvature="0"
     style="fill:none;stroke:#695614;stroke-width:2.00235128;stroke-linecap:butt;stroke-linejoin:miter;stroke-miterlimit:4;stroke-dasharray:1.00117572, 1.00117572;stroke-dashoffset:0;stroke-opacity:1"
     id="path9392"
     d="m 249.9236,277.7117 -0.55579,109.48915" />
  <path
     inkscape:connector-curvature="0"
     style="fill:none;stroke:#695614;stroke-width:2.06909657;stroke-linecap:butt;stroke-linejoin:miter;stroke-miterlimit:4;stroke-dasharray:1.03454823, 1.03454823;stroke-dashoffset:0;stroke-opacity:1"
     id="path10363"
     d="m 253.53617,384.97779 -0.55578,-107.82185 c 0.0926,-0.46314 0.18528,-0.92628 0.27793,-1.38942 0.0995,-0.49756 0,-1.15315 0,-1.6674 0.2639,-1.31953 -0.3916,-2.17258 -0.83372,-3.05672" />
  <path
     inkscape:connector-curvature="0"
     style="fill:url(#linearGradient10377);fill-opacity:1;fill-rule:evenodd;stroke:#866e10;stroke-width:0.26698017;stroke-linecap:butt;stroke-linejoin:miter;stroke-miterlimit:4;stroke-dasharray:none;stroke-opacity:1"
     id="path10367"
     d="m 193.1622,386.33925 c 2.29617,11.94022 0.53617,23.85415 -5.03333,34.74657 0.65493,0.39304 1.30997,0.78598 1.96494,1.17902 1.21509,0.72913 3.34105,-0.39325 4.323,-0.78598 1.82848,-0.73142 -0.0847,3.98435 0.393,5.8949 0.27846,1.11394 4.4882,-3.30914 4.71593,-3.53685 1.57186,-1.57186 2.50161,1.32255 3.53696,2.35794 0.79146,0.7914 1.4505,-2.05816 1.17905,-3.14403 -0.45493,-1.81959 3.66277,0.81122 5.50193,1.17902 1.61476,0.32295 -1.60635,-3.25083 1.96497,-2.35804 2.81358,0.70347 2.79068,2.35804 5.895,2.35804 0.75221,0 -2.61942,-4.1914 -2.75098,-4.32304 -2.07863,-2.07849 0.64243,-1.25079 2.35798,-0.39294 1.54535,0.77263 2.65779,1.52533 4.32294,2.35794 0.16573,0.0834 0.26205,0.26203 0.393,0.39304 -10.33601,-11.92092 -7.77774,-23.84184 -5.52169,-35.76276 l -23.2427,-0.16283 z" />
  <path
     inkscape:connector-curvature="0"
     style="fill:#ffcc00;fill-rule:evenodd;stroke:url(#linearGradient10449);stroke-width:0.26698017;stroke-linecap:butt;stroke-linejoin:miter;stroke-miterlimit:4;stroke-dasharray:none;stroke-opacity:1"
     id="path10369"
     d="m 224.87411,362.92215 c -1.20181,-1.20176 -4.82926,-3.5162 -6.48447,-3.93 -2.35844,-0.58956 -3.70269,-0.63087 -5.895,-1.17892 -1.8174,-0.45437 -4.41778,0 -6.28791,0 -2.17536,0 -4.36433,0.39294 -6.68099,0.39294 -4.22616,0.32983 -7.65011,1.55235 -11.39687,3.53696 -3.35608,1.37607 -6.77102,2.93603 -9.03895,6.28795 -4.27096,6.80553 -3.8817,12.74852 -4.71601,15.32697 0,2.1223 1.45231,4.86953 1.57198,5.10892 0.83264,1.66532 2.49733,-3.17177 4.32301,-3.53696 2.13791,-0.42757 2.22881,3.75779 3.53695,5.50196 1.76401,2.352 1.55116,0.15887 3.14402,-1.965 0.2196,-0.2928 2.6689,3.37727 5.50191,5.50197 1.31313,0.9849 1.19734,-3.16228 2.35803,-4.32295 0.70543,-0.70545 2.04547,1.88448 2.75096,1.17903 2.1022,-2.10228 2.47411,-4.78441 5.10893,-0.39305 2.0424,3.40397 3.93002,3.8354 3.93002,0.39305 0,-4.90542 2.67782,-0.85921 4.32294,0.78598 1.8417,1.8416 1.27304,-2.34094 1.57198,-3.53696 0.41429,-1.65698 3.23614,4.14947 7.07398,5.10892 1.72856,0.43216 0.14657,-4.03995 1.57198,-5.10892 1.49742,-1.12312 4.716,6.14347 4.716,0.78597 0,-3.99791 2.93825,-0.10326 5.50193,1.17892 3.26423,1.63215 2.61466,-1.70819 1.57205,-2.75098 -2.43333,-2.43325 1.2476,-1.73416 3.14395,-0.78598 0.33346,0.16679 0.43925,-4.98104 0.393,-5.50186 -0.33379,-3.75914 -1.15849,-3.89037 -2.16154,-7.46707 -2.08658,-4.98636 -6.28931,-7.90872 -9.43188,-10.61089 z" />
  <path
     inkscape:connector-curvature="0"
     style="fill:none;stroke:url(#linearGradient10411);stroke-width:0.66745043px;stroke-linecap:butt;stroke-linejoin:miter;stroke-opacity:1"
     id="path10379"
     d="m 204.39547,358.72115 c -7.9775,6.36002 -16.31707,8.73674 -23.62071,22.50917" />
  <path
     inkscape:connector-curvature="0"
     style="fill:none;stroke:url(#linearGradient10415);stroke-width:0.66745043px;stroke-linecap:butt;stroke-linejoin:miter;stroke-opacity:1"
     id="path10381"
     d="m 206.34075,358.72115 -0.55585,26.12176" />
  <path
     inkscape:connector-curvature="0"
     style="fill:none;stroke:url(#linearGradient10417);stroke-width:0.66745043px;stroke-linecap:butt;stroke-linejoin:miter;stroke-opacity:1"
     id="path10383"
     d="m 207.73018,359.83279 c 3.61258,6.26061 7.22516,10.39194 10.83772,23.62071" />
  <path
     inkscape:connector-curvature="0"
     style="fill:none;stroke:url(#linearGradient10419);stroke-width:0.66745043px;stroke-linecap:butt;stroke-linejoin:miter;stroke-opacity:1"
     id="path10385"
     d="m 208.84176,358.72115 c 6.40639,5.76827 14.25006,10.38662 17.22922,18.89659" />
  <path
     inkscape:connector-curvature="0"
     style="fill:none;stroke:url(#linearGradient10421);stroke-width:0.66745043px;stroke-linecap:butt;stroke-linejoin:miter;stroke-opacity:1"
     id="path10387"
     d="m 211.89855,359.27702 c 7.31331,3.94263 14.33857,5.29272 23.06501,21.95341" />
  <path
     inkscape:connector-curvature="0"
     style="fill:none;stroke:#000000;stroke-width:0.66745043px;stroke-linecap:butt;stroke-linejoin:miter;stroke-opacity:1"
     id="path10389"
     d="m 203.28389,361.50009 c -0.0926,0 -0.18521,0 0,0 z" />
  <path
     inkscape:connector-curvature="0"
     style="fill:none;stroke:url(#linearGradient10413);stroke-width:0.66745043px;stroke-linecap:butt;stroke-linejoin:miter;stroke-opacity:1"
     id="path10391"
     d="m 204.53436,360.11057 c -4.70892,5.27999 -13.97033,19.17457 -14.31133,24.45446" />
  <path
     inkscape:connector-curvature="0"
     style="fill:none;stroke:url(#linearGradient10409);stroke-width:0.66745043px;stroke-linecap:butt;stroke-linejoin:miter;stroke-opacity:1"
     id="path10393"
     d="m 197.44818,359.5548 c -6.39152,5.04269 -12.78299,4.92648 -19.17449,17.22929" />
  <path
     inkscape:connector-curvature="0"
     style="fill:none;stroke:url(#linearGradient10429);stroke-width:0.66745043px;stroke-linecap:butt;stroke-linejoin:miter;stroke-opacity:1"
     id="path10395"
     d="m 193.55768,419.0236 c 3.52813,-8.13038 4.68969,-15.66911 5.27999,-23.06504" />
  <path
     inkscape:connector-curvature="0"
     style="fill:none;stroke:url(#linearGradient10431);stroke-width:0.66745043px;stroke-linecap:round;stroke-linejoin:miter;stroke-opacity:1"
     id="path10397"
     d="m 203.00603,393.17962 c -0.75315,8.69522 -1.24386,19.59807 -4.16836,26.12186" />
  <path
     inkscape:connector-curvature="0"
     style="fill:none;stroke:url(#linearGradient10435);stroke-width:0.66745043px;stroke-linecap:round;stroke-linejoin:miter;stroke-opacity:1"
     id="path10399"
     d="m 211.62069,395.68067 c -1.3528,12.07948 1.06811,15.48313 2.77886,21.39764" />
  <path
     inkscape:connector-curvature="0"
     style="fill:none;stroke:url(#linearGradient10433);stroke-width:0.66745043px;stroke-linecap:round;stroke-linejoin:miter;stroke-opacity:1"
     id="path10401"
     d="m 206.89653,394.01337 c 0.35829,6.79302 -0.95251,18.40915 3.61258,26.12176" />
  <g
     style="fill:#cccccc"
     id="g4979"
     transform="matrix(0.33007394,0,0,0.29415796,41.879353,106.5188)">
    <path
       inkscape:connector-curvature="0"
       style="fill:#cccccc;stroke:#000000;stroke-width:0.37349528;stroke-miterlimit:4;stroke-dasharray:none;stroke-opacity:1"
       id="path190"
       d="m 361.87949,211.77963 -0.0229,-4.44419 0.54752,0 -6.79287,-4.38776 -5.46601,-0.003 -6.75627,4.38181 0.5399,0.003 0.0229,4.44129 17.92622,0.0122" />
    <path
       inkscape:connector-curvature="0"
       style="fill:#cccccc;stroke:#000000;stroke-width:0.37349528;stroke-miterlimit:4;stroke-dasharray:none;stroke-opacity:1"
       id="path192"
       d="m 361.87949,211.77963 -0.0229,-4.44419 0.54752,0 -6.79287,-4.38776 -0.60391,-6.72121 -4.43052,0.12552 -0.43158,6.59264 -6.75627,4.38181 0.5399,0.003 0.0229,4.44129 17.92622,0.0122 0.002,-0.003 z" />
    <path
       inkscape:connector-curvature="0"
       style="fill:#cccccc;stroke:#000000;stroke-width:0.37349528;stroke-miterlimit:4;stroke-dasharray:none;stroke-opacity:1"
       id="path198"
       d="m 363.96737,217.61792 0.002,1.39076 -21.88389,-0.0244 -0.009,-1.3848 21.89304,0.0185" />
    <path
       inkscape:connector-curvature="0"
       style="fill:#cccccc;stroke:#000000;stroke-width:0.37349528;stroke-miterlimit:4;stroke-dasharray:none;stroke-opacity:1"
       id="path200"
       d="m 363.96737,217.61792 0.002,1.39076 -21.88389,-0.0244 -0.009,-1.3848 21.89304,0.0185 -0.002,0 z" />
    <path
       inkscape:connector-curvature="0"
       style="fill:#cccccc;stroke:#000000;stroke-width:0.37349528;stroke-miterlimit:4;stroke-dasharray:none;stroke-opacity:1"
       id="path202"
       d="m 343.53845,217.53404 -0.0183,-4.70651 0.88604,-0.002 -0.0487,4.76142 0.0534,-4.72314 -1.2765,-0.0366 0,-1.00978 19.55809,0.0215 0.009,1.00047 -1.20637,0 0.0229,4.76599 -0.0427,-4.76599 0.89829,0 0.0198,4.71246" />
    <path
       inkscape:connector-curvature="0"
       style="fill:#cccccc;stroke:#000000;stroke-width:0.37349528;stroke-miterlimit:4;stroke-dasharray:none;stroke-opacity:1"
       id="path204"
       d="m 343.53845,217.53404 -0.0183,-4.70651 0.88604,-0.002 -0.0487,4.76142 0.0534,-4.72314 -1.2765,-0.0366 0,-1.00978 19.55809,0.0215 0.009,1.00047 -1.20637,0 0.0229,4.76599 -0.0427,-4.76599 0.89829,0 0.0198,4.71246" />
    <path
       inkscape:connector-curvature="0"
       style="fill:#cccccc;stroke:#000000;stroke-width:0.37349528;stroke-miterlimit:4;stroke-dasharray:none;stroke-opacity:1"
       id="path206"
       d="m 347.74319,216.37495 -0.0137,-3.28205 -2.62625,0 0.0153,3.27885 2.62472,0.003" />
    <path
       inkscape:connector-curvature="0"
       style="fill:#cccccc;stroke:#000000;stroke-width:0.37349528;stroke-miterlimit:4;stroke-dasharray:none;stroke-opacity:1"
       id="path208"
       d="m 345.81849,213.77753 0.008,1.90639 1.20179,0 -0.006,-1.90639 -1.20332,0" />
    <path
       inkscape:connector-curvature="0"
       style="fill:#cccccc;stroke:#000000;stroke-width:0.37349528;stroke-miterlimit:4;stroke-dasharray:none;stroke-opacity:1"
       id="path210"
       d="m 360.58162,216.38395 -0.0152,-3.27885 -2.6171,-0.003 0.0122,3.2819 2.62015,0" />
    <path
       inkscape:connector-curvature="0"
       style="fill:#cccccc;stroke:#000000;stroke-width:0.37349528;stroke-miterlimit:4;stroke-dasharray:none;stroke-opacity:1"
       id="path2319"
       d="m 358.65692,213.78973 0.0137,1.90029 1.20026,0 -0.0107,-1.90029 -1.20332,0" />
    <path
       inkscape:connector-curvature="0"
       style="fill:#cccccc;stroke:#000000;stroke-width:0.37349528;stroke-miterlimit:4;stroke-dasharray:none;stroke-opacity:1"
       id="path2321"
       d="m 360.56179,211.0401 -0.0152,-3.2822 -2.62015,0 0.009,3.2822 2.62778,0 -0.002,0 z" />
    <path
       inkscape:connector-curvature="0"
       style="fill:#cccccc;stroke:#000000;stroke-width:0.37349528;stroke-miterlimit:4;stroke-dasharray:none;stroke-opacity:1"
       id="path216"
       d="m 358.63709,208.44877 0.008,1.90335 1.20027,0 -0.002,-1.90335 -1.20637,0" />
    <path
       inkscape:connector-curvature="0"
       style="fill:#cccccc;stroke:#000000;stroke-width:0.37349528;stroke-miterlimit:4;stroke-dasharray:none;stroke-opacity:1"
       id="path218"
       d="m 347.72184,211.0279 -0.0183,-3.27595 -2.62168,-0.003 0.0122,3.27748 2.62778,0 0,0.002 z" />
    <path
       inkscape:connector-curvature="0"
       style="fill:#cccccc;stroke:#000000;stroke-width:0.37349528;stroke-miterlimit:4;stroke-dasharray:none;stroke-opacity:1"
       id="path220"
       d="m 345.79714,208.43657 0.006,1.90045 1.20332,0.003 -0.009,-1.90335 -1.20027,0" />
    <path
       inkscape:connector-curvature="0"
       style="fill:#cccccc;stroke:#000000;stroke-width:0.37349528;stroke-miterlimit:4;stroke-dasharray:none;stroke-opacity:1"
       id="path222"
       d="m 352.4741,211.03384 -0.0122,-3.27594 -2.6232,-0.003 0.0107,3.27884 2.62472,0" />
    <path
       inkscape:connector-curvature="0"
       style="fill:#cccccc;stroke:#000000;stroke-width:0.37349528;stroke-miterlimit:4;stroke-dasharray:none;stroke-opacity:1"
       id="path224"
       d="m 350.55093,208.43962 0.006,1.9003 1.20179,0.006 -0.008,-1.9064 -1.20027,0" />
    <path
       inkscape:connector-curvature="0"
       style="fill:#cccccc;stroke:#000000;stroke-width:0.37349528;stroke-miterlimit:4;stroke-dasharray:none;stroke-opacity:1"
       id="path226"
       d="m 356.13743,211.0401 -0.0183,-3.2822 -2.62168,-0.003 0.0122,3.27884 2.62778,0.006" />
    <path
       inkscape:connector-curvature="0"
       style="fill:#cccccc;stroke:#000000;stroke-width:0.37349528;stroke-miterlimit:4;stroke-dasharray:none;stroke-opacity:1"
       id="path228"
       d="m 354.21121,208.44283 0.009,1.90639 1.20179,0 -0.006,-1.90639 -1.20484,0" />
    <path
       inkscape:connector-curvature="0"
       style="fill:#cccccc;stroke:#000000;stroke-width:0.37349528;stroke-miterlimit:4;stroke-dasharray:none;stroke-opacity:1"
       id="path230"
       d="m 356.78713,210.03337 0.029,7.5661 -7.59966,-0.0122 -0.0274,-7.55985 7.5966,0.006" />
    <path
       inkscape:connector-curvature="0"
       style="fill:#cccccc;stroke:#000000;stroke-width:0.37349528;stroke-miterlimit:4;stroke-dasharray:none;stroke-opacity:1"
       id="path232"
       d="m 356.78713,210.03337 0.029,7.5661 -7.59966,-0.0122 -0.0274,-7.55985 7.5966,0.006 0.002,0 z" />
    <path
       inkscape:connector-curvature="0"
       style="fill:#cccccc;stroke:#000000;stroke-width:0.37349528;stroke-miterlimit:4;stroke-dasharray:none;stroke-opacity:1"
       id="path234"
       d="m 349.14325,212.19293 7.6515,0.006" />
    <path
       inkscape:connector-curvature="0"
       style="fill:#cccccc;stroke:#000000;stroke-width:0.37349528;stroke-miterlimit:4;stroke-dasharray:none;stroke-opacity:1"
       id="path2333"
       d="m 350.09797,217.59642 -0.0259,-5.34706" />
    <path
       inkscape:connector-curvature="0"
       style="fill:#cccccc;stroke:#000000;stroke-width:0.37349528;stroke-miterlimit:4;stroke-dasharray:none;stroke-opacity:1"
       id="path2335"
       d="m 355.89189,217.59947 -0.0259,-5.34385" />
    <path
       inkscape:connector-curvature="0"
       style="fill:#cccccc;stroke:#000000;stroke-width:0.37349528;stroke-miterlimit:4;stroke-dasharray:none;stroke-opacity:1"
       id="path240"
       d="m 359.56131,206.81095 -4.27947,-3.12511 -4.80869,-0.006 -4.24592,3.11901 13.33408,0.0122" />
    <path
       inkscape:connector-curvature="0"
       style="fill:#cccccc;stroke:#000000;stroke-width:0.37349528;stroke-miterlimit:4;stroke-dasharray:none;stroke-opacity:1"
       id="path2338"
       d="m 350.85138,202.99816 4.0446,0.003" />
    <path
       inkscape:connector-curvature="0"
       style="fill:#cccccc;stroke:#000000;stroke-width:0.37349528;stroke-miterlimit:4;stroke-dasharray:none;stroke-opacity:1"
       id="path244"
       d="m 351.94031,201.56455 0.006,0.95 1.85759,0 -0.006,-0.95 -1.85759,0" />
    <path
       inkscape:connector-curvature="0"
       style="fill:#cccccc;stroke:#000000;stroke-width:0.37349528;stroke-miterlimit:4;stroke-dasharray:none;stroke-opacity:1"
       id="path252"
       d="m 349.54435,210.24551 0.55362,0 -0.16166,0.29725 c 0,0 0.26689,0.3433 0.005,0.73663 l 0.14489,0.27315 -0.53379,0 0.14488,-0.25943 c 0,0 -0.27299,-0.45585 0.0122,-0.75035 l -0.16472,-0.29725" />
    <path
       inkscape:connector-curvature="0"
       style="fill:#cccccc;stroke:#000000;stroke-width:0.37349528;stroke-miterlimit:4;stroke-dasharray:none;stroke-opacity:1"
       id="path254"
       d="m 350.67294,210.24551 0.55362,0 -0.16014,0.29725 c 0,0 0.26689,0.33415 0.002,0.73663 l 0.14336,0.27315 -0.53226,0 0.14336,-0.25943 c 0,0 -0.2669,-0.45585 0.0137,-0.75035 l -0.16319,-0.29725" />
    <path
       inkscape:connector-curvature="0"
       style="fill:#cccccc;stroke:#000000;stroke-width:0.37349528;stroke-miterlimit:4;stroke-dasharray:none;stroke-opacity:1"
       id="path256"
       d="m 351.90371,210.24551 0.55209,0 -0.16471,0.29725 c 0,0 0.26994,0.3433 0.005,0.73663 l 0.14489,0.27909 -0.52922,-0.006 0.14184,-0.25943 c 0,0 -0.26995,-0.45295 0.0107,-0.75035 l -0.16166,-0.29725 0.002,0 z" />
    <path
       inkscape:connector-curvature="0"
       style="fill:#cccccc;stroke:#000000;stroke-width:0.37349528;stroke-miterlimit:4;stroke-dasharray:none;stroke-opacity:1"
       id="path258"
       d="m 353.29309,210.24841 0.55667,0 -0.16319,0.30045 c 0,0 0.26689,0.3372 0.002,0.73205 l 0.14946,0.27757 -0.53684,0 0.14336,-0.25927 c 0,0 -0.26689,-0.45905 0.0183,-0.75035 l -0.16777,-0.30045 -0.002,0 z" />
    <path
       inkscape:connector-curvature="0"
       style="fill:#cccccc;stroke:#000000;stroke-width:0.37349528;stroke-miterlimit:4;stroke-dasharray:none;stroke-opacity:1"
       id="path260"
       d="m 354.52843,210.24841 0.55209,0 -0.16318,0.30045 c 0,0 0.26842,0.3372 0.003,0.73053 l 0.14641,0.27909 -0.53227,0 0.13879,-0.25927 c 0,0 -0.26842,-0.456 0.0213,-0.75035 l -0.16624,-0.30045" />
    <path
       inkscape:connector-curvature="0"
       style="fill:#cccccc;stroke:#000000;stroke-width:0.37349528;stroke-miterlimit:4;stroke-dasharray:none;stroke-opacity:1"
       id="path262"
       d="m 355.75615,210.25146 0.55209,-0.003 -0.16319,0.30045 c 0,0 0.273,0.3372 0.008,0.73205 l 0.13879,0.27757 -0.53379,0 0.14336,-0.25927 c 0,0 -0.2669,-0.456 0.0183,-0.75035 l -0.16319,-0.2974" />
  </g>
  <path
     inkscape:connector-curvature="0"
     style="fill:#b3b3b3;fill-rule:evenodd;stroke:#000000;stroke-width:0.08691105;stroke-linecap:butt;stroke-linejoin:miter;stroke-miterlimit:4;stroke-dasharray:none;stroke-opacity:1"
     id="path13722"
     d="m 157.96392,163.229 0.85786,-0.0302 0.0256,1.03872 -0.88335,-0.0146 0,-0.99356 z" />
  <path
     inkscape:connector-curvature="0"
     style="fill:none;stroke:#000000;stroke-width:0.20023516;stroke-linecap:butt;stroke-linejoin:miter;stroke-miterlimit:4;stroke-dasharray:none;stroke-opacity:1"
     id="path14693"
     d="m 158.38642,161.97039 -0.0173,1.29793" />
  <path
     inkscape:connector-curvature="0"
     style="fill:none;stroke:#000000;stroke-width:0.25293571;stroke-linecap:butt;stroke-linejoin:miter;stroke-miterlimit:4;stroke-dasharray:none;stroke-opacity:1"
     id="path14695"
     d="m 157.91411,162.45449 0.94884,0.0136" />
  <path
     inkscape:connector-curvature="0"
     style="fill:#677821;stroke:none"
     id="path14697"
     d="m 164.09597,170.71547 c 0.0505,0.0636 0.13495,0.0907 0.14037,0.12257 -0.0346,0.26964 0.33167,0.27986 0.37667,0.54794 -0.60284,0.0386 -1.24809,-0.88998 -1.51331,-0.2687 -0.0566,0.13946 0.21339,0.31919 -0.11443,0.50872 -0.0743,0.0334 0.10087,0.12517 0.073,0.19683 0.19756,-0.0125 0.35518,-0.0553 0.48898,0 0.16904,0.0553 0.26394,0.11464 0.47313,0.17118 0.20862,0.0521 0.34244,0.34401 0.0778,0.46376 -0.50111,0.16784 -1.14778,-0.29238 -1.50309,0.0302 -0.28225,0.25243 -0.59248,0.33807 -0.88563,0.52552 -0.14718,0.0751 -0.68204,0.073 -0.55643,-0.16168 0.096,-0.14187 0.38383,-0.1234 0.53594,-0.19892 0.2597,-0.14823 0.46834,-0.36311 0.72207,-0.54795 -0.19227,0.0449 -0.20798,-0.28685 -0.43368,-0.17367 -0.33343,0.18588 -0.66554,0.40868 -1.05412,0.5035 0.0612,0.12757 -0.0403,0.237 -0.0177,0.37124 -0.0394,0 -0.0788,0.0104 -0.1185,0.0104 0.26392,0.38188 -0.32251,0.25086 -0.46905,0.59759 -0.011,-0.0647 -0.0456,-0.0626 -0.0954,-0.0928 0.25428,-0.18077 0.0865,-0.43727 0.13132,-0.64589 0.0286,-0.0678 0.14173,-0.10775 0.0851,-0.20695 -0.1854,-0.1525 -0.13625,0.1403 -0.27062,0.0834 -0.12409,-0.025 -0.29808,-0.0793 -0.37167,-0.0417 -0.19757,0.0125 -0.37834,0.15584 -0.21517,0.38396 0.19089,0.18505 0.38193,0.34151 0.42631,0.60594 0.005,0.0323 0.0504,0.0626 0.13489,0.0897 -0.32114,0.0209 -0.58577,-0.0981 -0.73708,-0.28592 -0.19155,-0.18911 -0.281,-0.48368 -0.53963,-0.53699 -0.49563,-0.0668 -0.40074,0.26015 -0.34474,0.59374 -0.36623,-0.0104 -0.92347,-0.17503 -0.88879,-0.44468 0.002,-0.19756 0.26039,-0.38261 0.53592,-0.43737 0.1928,-0.0407 0.0402,-0.23689 0.15318,-0.27715 0.23716,-0.0156 0.51287,-0.0991 0.56938,-0.23794 0.0456,-0.20445 -0.13921,-0.59185 -0.3197,-0.71505 -0.26461,-0.14832 -0.71063,0.11089 -1.08703,0.0699 0.0151,0.29906 -0.21564,0.41182 -0.38391,0.62858 -0.20441,0.2105 0.17929,0.35455 0.40445,0.47576 0.16904,0.0553 0.0613,0.12767 0.0104,0.29947 -0.0857,0.20289 -0.4787,0.0636 -0.4909,0.22886 -0.0456,0.20445 0.16237,0.49141 0.0268,0.63577 -0.0968,0.1378 -0.29805,-0.0793 -0.28151,-0.2493 -0.15335,0.0386 -0.17039,0.17545 -0.32797,0.21843 -0.19211,0.0448 -0.35393,-0.17462 -0.28157,-0.2492 0.19826,-0.24722 0.37359,-0.42287 0.23854,-0.75135 -0.0281,-0.1669 0.24259,-0.25003 0.0966,-0.37635 -0.27607,-0.21665 -0.31501,-0.44854 -0.44339,-0.70775 -0.12888,-0.29175 -0.58462,-0.32889 -0.96298,-0.17294 0.2525,0.55222 -0.71048,0.37916 -1.08765,0.57183 -0.0345,0 -0.018,0.10013 0.0218,0.13018 0.22502,0.14999 0.27543,0.21268 0.27556,0.45114 0.004,0.0282 0.0906,0.0928 0.14038,0.12256 -0.64724,-0.22583 -1.77302,-0.50841 -2.3011,-0.97645 0.53597,-0.19861 1.65567,0.0469 2.18554,-0.18817 0.6375,-0.30824 1.26895,-0.68136 2.00032,-0.7283 0.32113,-0.0209 0.67499,0.15365 0.99613,0.133 2.2859,0.0219 4.21127,-0.17107 6.54171,-0.15209 -0.0838,-0.0229 0.20297,0.0198 0.24814,0.0501" />
  <path
     inkscape:connector-curvature="0"
     style="fill:none;stroke:#392803;stroke-width:1.22652102;stroke-miterlimit:4;stroke-dasharray:none;stroke-opacity:1"
     id="path4591"
     d="M 149.26314,1.6132605 C 61.804116,1.6132605 1.6132605,106.8385 1.6132605,234.86665 c 0,128.42299 60.1448085,231.30254 147.6498795,231.30254 87.13388,0 151.1236,-104.6067 151.1236,-233.08069 0,-128.02805 -63.98972,-231.4752395 -151.1236,-231.4752395 l 0,0" />
</svg>
