<?xml version="1.0" encoding="UTF-8" standalone="no"?>
<!-- Created with Inkscape (http://www.inkscape.org/) -->

<svg
   xmlns:dc="http://purl.org/dc/elements/1.1/"
   xmlns:cc="http://creativecommons.org/ns#"
   xmlns:rdf="http://www.w3.org/1999/02/22-rdf-syntax-ns#"
   xmlns:svg="http://www.w3.org/2000/svg"
   xmlns="http://www.w3.org/2000/svg"
   xmlns:sodipodi="http://sodipodi.sourceforge.net/DTD/sodipodi-0.dtd"
   xmlns:inkscape="http://www.inkscape.org/namespaces/inkscape"
   width="301.0069"
   height="563.93243"
   id="svg3485"
   version="1.1"
   inkscape:version="0.91 r13725"
   sodipodi:docname="Coat_of_arms_of_the_Republic_of_Uganda.svg">
  <defs
     id="defs3487" />
  <sodipodi:namedview
     id="base"
     pagecolor="#ffffff"
     bordercolor="#666666"
     borderopacity="1.0"
     inkscape:pageopacity="0.0"
     inkscape:pageshadow="2"
     inkscape:zoom="0.71122371"
     inkscape:cx="300"
     inkscape:cy="106.76995"
     inkscape:document-units="px"
     inkscape:current-layer="g4370"
     showgrid="false"
     inkscape:window-width="1280"
     inkscape:window-height="675"
     inkscape:window-x="0"
     inkscape:window-y="0"
     inkscape:window-maximized="0"
     fit-margin-top="1"
     fit-margin-left="1"
     fit-margin-right="1"
     fit-margin-bottom="1"
     showguides="true"
     inkscape:guide-bbox="true" />
  <metadata
     id="metadata3490">
    <rdf:RDF>
      <cc:Work
         rdf:about="">
        <dc:format>image/svg+xml</dc:format>
        <dc:type
           rdf:resource="http://purl.org/dc/dcmitype/StillImage" />
        <dc:title></dc:title>
      </cc:Work>
    </rdf:RDF>
  </metadata>
  <g
     inkscape:groupmode="layer"
     id="layer2"
     inkscape:label="Layer"
     style="display:inline"
     transform="translate(-200.32784,56.623254)">
    <g
       id="g4079"
       style="fill:#8c794c;fill-opacity:1;stroke:none" />
    <g
       transform="matrix(0.96720366,0.2358108,-0.25400212,0.89793371,38.011943,-15.341913)"
       id="g3960">
      <g
         id="g3962" />
    </g>
    <g
       id="g4370">
      <g
         transform="matrix(1.4620774,0,0,1.4620774,-91.447127,-234.86874)"
         id="g4565"
         style="display:inline;stroke-width:0.82075;stroke-miterlimit:4;stroke-dasharray:none">
        <path
           style="fill:#000000;fill-opacity:1;stroke:none;stroke-width:0.82075;stroke-miterlimit:4;stroke-dasharray:none"
           d="m 302.5,123.09375 c -61.54113,42.13049 -101.84375,112.27691 -101.84375,191.6875 0,79.4078 40.30627,149.52528 101.84375,191.65625 61.54943,-42.12938 101.84375,-112.23933 101.84375,-191.65625 0,-79.41977 -40.29059,-149.55862 -101.84375,-191.6875 z"
           id="path5098"
           inkscape:connector-curvature="0" />
        <g
           id="g6162"
           transform="translate(2.5e-5,0)"
           style="stroke:none;stroke-width:0.82075;stroke-miterlimit:4;stroke-dasharray:none">
          <path
             style="fill:#ffd618;fill-opacity:1;stroke:none;stroke-width:0.82075;stroke-miterlimit:4;stroke-dasharray:none"
             d="m 320.46875,235.875 c 0,0 -4.25144,2.59546 -5.28125,5.34375 -0.89855,2.39798 0.44954,5.21542 -0.21875,7.6875 -0.82891,3.06622 -4.31564,3.04422 -5.71875,6.90625 -0.75521,2.0787 -0.0987,3.80689 0.1875,5.5 2.52984,0.50795 4.94934,1.3224 7.25,2.34375 -0.6609,-2.06381 -1.41463,-4.01604 -1.0625,-5.5625 0.67179,-2.9504 3.89027,-4.64898 4.4375,-7.625 0.53777,-2.92451 -1.0595,-5.68328 -1,-8.65625 0.0407,-2.03668 1.40625,-5.9375 1.40625,-5.9375 z m -32.1875,0.5 c 0,0 -2.38855,4.35501 -1.90625,7.25 0.42082,2.52599 2.99897,4.30622 3.65625,6.78125 0.81525,3.06989 -2.21589,4.79757 -1.5,8.84375 0.27424,1.55002 1.09636,2.59029 1.9375,3.53125 2.25079,-0.82412 4.59116,-1.4332 7.03125,-1.78125 -1.06659,-0.97296 -1.98373,-1.90487 -2.3125,-2.96875 -0.8934,-2.89101 1.04534,-5.96159 0.0312,-8.8125 -0.99654,-2.8016 -3.75252,-4.3956 -5.1875,-7 -0.98307,-1.78418 -1.75,-5.84375 -1.75,-5.84375 z M 302.5,232.65625 c -1.5625,6.56164 -2.22642,19.02662 -2.59375,28.09375 0.85354,-0.0623 1.72431,-0.0937 2.59375,-0.0937 0.86944,0 1.74021,0.0315 2.59375,0.0937 -0.36733,-9.06714 -1.03125,-21.53211 -2.59375,-28.09375 z m -29.28125,12.6875 c 1.87296,6.28041 5.38065,13.68887 9.4375,21.46875 1.41133,-0.97344 2.88665,-1.83257 4.4375,-2.59375 -4.70458,-7.40769 -9.37173,-14.11195 -13.875,-18.875 z m 58.5625,0 c -4.49767,4.75712 -9.17139,11.47954 -13.875,18.875 1.55628,0.76385 3.02175,1.64743 4.4375,2.625 4.06006,-7.78822 7.56249,-15.21272 9.4375,-21.5 z m 16.28125,4.1875 c 0,0 -4.98401,0.13482 -7.25,2 -1.97716,1.62745 -2.21646,4.75577 -4.03125,6.5625 -2.25097,2.24097 -5.2601,0.48192 -8.40625,3.125 -2.41047,2.02501 -1.96301,4.88414 -3.625,6.75 -0.10601,0.11901 -0.21779,0.22602 -0.34375,0.34375 2.16219,1.73493 4.11533,3.74417 5.8125,5.9375 0.0663,-0.18844 0.12621,-0.3687 0.1875,-0.5625 0.85994,-2.71929 0.92581,-5.78272 2.34375,-7.3125 2.05699,-2.21922 5.69433,-2.0713 7.65625,-4.375 1.92798,-2.26382 1.93077,-5.45509 3.46875,-8 1.05362,-1.74347 4.1875,-4.46875 4.1875,-4.46875 z m -90.875,1.34375 c 0,0 0.13482,4.98401 2,7.25 1.62744,1.97716 4.72452,2.24771 6.53125,4.0625 2.24098,2.25097 0.48193,5.22886 3.125,8.375 1.85792,2.21157 4.39912,2.04476 6.25,3.28125 1.6185,-2.03025 3.47593,-3.87411 5.5,-5.5 -2.52082,-0.6676 -5.20225,-0.86648 -6.59375,-2.15625 -2.21922,-2.05699 -2.07131,-5.69434 -4.375,-7.65625 -2.26382,-1.92799 -5.45508,-1.93077 -8,-3.46875 -1.74346,-1.05361 -4.4375,-4.1875 -4.4375,-4.1875 z m 45.3125,12.5 c -17.90744,0 -32.375,14.40791 -32.375,32.3125 0,17.90459 14.46756,32.375 32.375,32.375 17.90744,0 32.375,-14.46756 32.375,-32.375 0,-17.90744 -14.46756,-32.3125 -32.375,-32.3125 z m -50.75,3.40625 c 4.79376,4.53231 11.56854,9.25748 19.03125,14 0.73953,-1.57473 1.60586,-3.06403 2.5625,-4.5 -7.83117,-4.08626 -15.28247,-7.61783 -21.59375,-9.5 z m 101.5,0 c -6.31153,1.88225 -13.79111,5.38981 -21.625,9.46875 0.96414,1.44333 1.81798,2.94737 2.5625,4.53125 7.47135,-4.75287 14.26246,-9.46175 19.0625,-14 z m 10.625,7.90625 c -0.19115,0.009 -0.38156,0.0324 -0.5625,0.0625 -2.52599,0.42082 -4.30623,2.99898 -6.78125,3.65625 -3.06989,0.81525 -4.79757,-2.21589 -8.84375,-1.5 -3.10003,0.54848 -4.12774,3.24638 -6.5,4.03125 -1.90932,0.63172 -5.14409,0.39068 -6.8125,0.21875 1.60793,3.52987 2.64745,7.36583 3,11.40625 0.95481,-0.42393 3.51503,-1.68227 5.84375,-3.8125 2.10438,-1.925 3.69464,-4.57165 5.6875,-5.1875 2.89101,-0.8934 5.96158,1.04533 8.8125,0.0312 2.80159,-0.99655 4.39561,-3.75251 7,-5.1875 1.78419,-0.98307 5.875,-1.75 5.875,-1.75 0,0 -3.85146,-2.10374 -6.71875,-1.96875 z M 235.5,278.46875 c 0,0 2.62671,4.25144 5.375,5.28125 2.39798,0.89855 5.21543,-0.44954 7.6875,0.21875 3.06622,0.8289 3.04421,4.31563 6.90625,5.71875 2.95895,1.07502 5.20938,-0.72515 7.65625,-0.21875 1.39214,0.28812 3.16156,1.31966 4.59375,2.25 0.41443,-3.71219 1.42378,-7.23135 2.90625,-10.5 -1.38681,-0.0425 -3.30463,0.0116 -5.375,0.46875 -2.78494,0.61491 -5.49746,2.0881 -7.53125,1.625 -2.95039,-0.67179 -4.61774,-3.89027 -7.59375,-4.4375 -2.92452,-0.53778 -5.68329,1.0595 -8.65625,1 -2.03669,-0.0407 -5.96875,-1.40625 -5.96875,-1.40625 z m 32.09375,14.5 c -15.58612,0.27503 -31.62463,0.52782 -42.53125,3.125 10.92007,2.60036 26.98903,2.82911 42.59375,3.09375 -0.11544,-1.15699 -0.15625,-2.34387 -0.15625,-3.53125 0,-0.90108 0.0269,-1.80353 0.0937,-2.6875 z m 69.8125,0 c 0.0669,0.88397 0.0937,1.78642 0.0937,2.6875 0,5.11133 -1.09375,9.966 -3.0625,14.34375 1.1339,0.11106 3.93696,0.28063 6.90625,-0.375 2.78494,-0.61491 5.46621,-2.08808 7.5,-1.625 2.95039,0.67179 4.64899,3.89027 7.625,4.4375 2.92452,0.53776 5.68329,-1.0595 8.65625,-1 2.03669,0.0407 5.9375,1.40625 5.9375,1.40625 0,0 -2.59546,-4.25144 -5.34375,-5.28125 -2.39798,-0.89855 -5.21543,0.44954 -7.6875,-0.21875 -3.06622,-0.82893 -3.04421,-4.31565 -6.90625,-5.71875 -2.95895,-1.07502 -5.20937,0.72515 -7.65625,0.21875 -1.6098,-0.33317 -3.73768,-1.65808 -5.25,-2.6875 15.3278,-0.25823 31.00358,-0.51095 41.71875,-3.0625 -10.90515,-2.59682 -26.94624,-2.85189 -42.53125,-3.125 z m -69.71875,6.5625 c -1.22189,0.65448 -2.8126,1.63061 -4.34375,3.03125 -2.10438,1.925 -3.69464,4.57165 -5.6875,5.1875 -0.18069,0.0558 -0.34929,0.0899 -0.53125,0.125 -0.18196,0.0351 -0.37946,0.0765 -0.5625,0.0937 -2.56261,0.24195 -5.2242,-1.13732 -7.71875,-0.25 -2.80159,0.99655 -4.39561,3.75252 -7,5.1875 -1.78419,0.98307 -5.84375,1.75 -5.84375,1.75 0,0 3.85294,2.10497 6.71875,1.96875 0.19105,-0.009 0.38156,-0.0324 0.5625,-0.0625 0.94725,-0.15781 1.78038,-0.63892 2.59375,-1.1875 0.27112,-0.18286 0.54499,-0.368 0.8125,-0.5625 0.80253,-0.5835 1.59736,-1.16026 2.46875,-1.5625 0.29046,-0.13408 0.59687,-0.26159 0.90625,-0.34375 0.19187,-0.051 0.38028,-0.10218 0.5625,-0.125 2.55105,-0.3195 4.23272,1.96219 7.53125,1.71875 0.23561,-0.0174 0.46586,-0.049 0.71875,-0.0937 3.10003,-0.54848 4.15899,-3.24638 6.53125,-4.03125 1.37422,-0.45468 3.47215,-0.44151 5.1875,-0.34375 -1.47538,-3.27036 -2.49893,-6.78773 -2.90625,-10.5 z m 66.21875,11.625 c -0.78451,1.58708 -1.68068,3.09143 -2.6875,4.53125 7.98275,4.17224 15.60997,7.77253 22.03125,9.6875 -4.86435,-4.59905 -11.75061,-9.40661 -19.34375,-14.21875 z m -62.78125,0.0312 c -7.58815,4.81354 -14.51352,9.59115 -19.375,14.1875 6.4262,-1.91644 14.04273,-5.54026 22.03125,-9.71875 -0.99289,-1.42211 -1.87997,-2.90309 -2.65625,-4.46875 z m 58.53125,6.59375 c -1.79001,2.1941 -3.86074,4.17041 -6.125,5.875 0.29144,0.1081 0.59998,0.21565 0.90625,0.3125 2.71929,0.85995 5.81398,0.92582 7.34375,2.34375 2.21922,2.05699 2.07131,5.69433 4.375,7.65625 2.26382,1.92798 5.45508,1.93077 8,3.46875 1.74346,1.05361 4.4375,4.1875 4.4375,4.1875 0,0 -0.13482,-4.98401 -2,-7.25 -1.62744,-1.97715 -4.72452,-2.21646 -6.53125,-4.03125 -2.24097,-2.25097 -0.48193,-5.26011 -3.125,-8.40625 -2.02501,-2.41047 -4.88414,-1.96299 -6.75,-3.625 -0.17737,-0.15799 -0.35719,-0.33141 -0.53125,-0.53125 z m -53.71875,0.65625 c -0.64694,2.49275 -0.85158,5.12614 -2.125,6.5 -2.05699,2.21921 -5.66308,2.0713 -7.625,4.375 -1.92798,2.26381 -1.93077,5.45509 -3.46875,8 -1.05362,1.74346 -4.1875,4.4375 -4.1875,4.4375 0,0 4.95276,-0.10357 7.21875,-1.96875 1.97716,-1.62744 2.24771,-4.75577 4.0625,-6.5625 2.25097,-2.24097 5.2601,-0.48193 8.40625,-3.125 2.25685,-1.89596 2.02051,-4.51647 3.34375,-6.375 -2.06354,-1.54323 -3.94884,-3.32888 -5.625,-5.28125 z m 7.03125,6.28125 c -4.19352,8.01106 -7.8266,15.64421 -9.75,22.09375 4.62705,-4.89396 9.46507,-11.85432 14.3125,-19.5 -1.59447,-0.75498 -3.11141,-1.61603 -4.5625,-2.59375 z m 39.0625,0 c -1.45109,0.97772 -2.96803,1.83877 -4.5625,2.59375 4.85323,7.66402 9.67605,14.59611 14.3125,19.5 -1.92346,-6.44975 -5.55198,-14.08278 -9.75,-22.09375 z m -31.9375,3.65625 c 0.58968,1.79619 1.15502,3.47673 0.84375,4.84375 -0.67179,2.9504 -3.85902,4.64898 -4.40625,7.625 -0.53777,2.92451 1.02825,5.65203 0.96875,8.625 -0.0407,2.03669 -1.40625,5.96875 -1.40625,5.96875 0,0 4.25144,-2.59546 5.28125,-5.34375 0.89855,-2.39797 -0.41829,-5.24667 0.25,-7.71875 0.82892,-3.06622 4.28439,-3.04422 5.6875,-6.90625 0.71394,-1.96509 0.14824,-3.61358 -0.15625,-5.21875 -2.45544,-0.37518 -4.80283,-1.01754 -7.0625,-1.875 z m 24.71875,0.0312 c -2.23193,0.83969 -4.54672,1.47367 -6.96875,1.84375 1.08283,0.9884 2.01104,1.95463 2.34375,3.03125 0.8934,2.891 -1.04534,5.96158 -0.0312,8.8125 0.99654,2.80159 3.75252,4.39562 5.1875,7 0.98307,1.7842 1.78125,5.84375 1.78125,5.84375 0,0 2.3573,-4.355 1.875,-7.25 -0.42082,-2.52598 -2.99897,-4.30624 -3.65625,-6.78125 -0.81525,-3.06989 2.21589,-4.79758 1.5,-8.84375 -0.28546,-1.61342 -1.15407,-2.67568 -2.03125,-3.65625 z m -14.90625,2.15625 c 0.36685,9.5135 1.04796,22.47728 2.59375,28.96875 1.54472,-6.48697 2.1973,-19.46404 2.5625,-28.96875 -0.84339,0.0608 -1.70361,0.0937 -2.5625,0.0937 -0.86944,0 -1.74021,-0.0315 -2.59375,-0.0937 z"
             id="path5892-8"
             inkscape:connector-curvature="0"
             sodipodi:nodetypes="csssccsscccsssccssscccscccccccccccsssccccsssccsssccssscsssssccccccccscsssccsssscscssssccssscccccsccscsssccssssccccsssssscscssscsscscccccccccccccssscssssccssscssscccccccccccssccsssccccssscsssccccsc" />
        </g>
        <path
           style="fill:#ffffff;stroke:none;stroke-width:0.82075;stroke-miterlimit:4;stroke-dasharray:none"
           d="m 302.5,123.09375 c -37.12369,25.41454 -66.51811,61.03095 -84,102.71875 l 168,0 c -17.47874,-41.69444 -46.86425,-77.3019 -84,-102.71875 z"
           id="path3756"
           inkscape:connector-curvature="0" />
        <path
           style="color:#000000;font-style:normal;font-variant:normal;font-weight:normal;font-stretch:normal;font-size:medium;line-height:normal;font-family:Sans;-inkscape-font-specification:Sans;text-indent:0;text-align:start;text-decoration:none;text-decoration-line:none;letter-spacing:normal;word-spacing:normal;text-transform:none;direction:ltr;block-progression:tb;writing-mode:lr-tb;baseline-shift:baseline;text-anchor:start;display:inline;overflow:visible;visibility:visible;fill:#233d8b;fill-opacity:1;stroke:none;stroke-width:0.82075;stroke-miterlimit:4;stroke-dasharray:none;marker:none;enable-background:accumulate"
           d="m 302.54687,123.09375 c -11.30036,7.73612 -21.87498,16.42731 -31.625,25.9375 2.47962,1.4008 6.75315,3.79723 12.53125,4.125 5.75946,0.32671 9.96481,-2.37148 12.53125,-3.84375 2.56645,-1.47227 3.76948,-2.15625 6.25,-2.15625 2.48053,0 3.68356,0.68398 6.25,2.15625 2.56645,1.47227 6.7718,4.17046 12.53125,3.84375 5.81892,-0.33009 10.1223,-2.7599 12.59375,-4.15625 0.13509,-0.0763 0.2194,-0.11677 0.34375,-0.1875 -9.68902,-9.42476 -20.18815,-18.04074 -31.40625,-25.71875 z m -37.3125,39.0625 c -3.00801,0 -5.67825,0.57878 -7.96875,1.34375 -5.40474,6.24252 -10.4654,12.77774 -15.1875,19.5625 1.57211,0.11466 3.18024,0.14892 4.78125,0.0937 5.42252,-0.18685 9.24676,-2.56686 11.84375,-3.9375 2.597,-1.37064 4.02033,-2.0625 6.53125,-2.0625 2.58619,0 3.15355,0.4474 5.625,1.84375 2.47145,1.39635 6.77483,3.82616 12.59375,4.15625 5.75946,0.32671 9.96481,-2.37148 12.53125,-3.84375 2.56645,-1.47227 3.76948,-2.15625 6.25,-2.15625 2.48053,0 3.68356,0.68398 6.25,2.15625 2.56645,1.47227 6.7718,4.17046 12.53125,3.84375 5.81892,-0.33009 10.1223,-2.7599 12.59375,-4.15625 2.47145,-1.39635 3.03882,-1.84375 5.625,-1.84375 2.51092,0 3.93426,0.69186 6.53125,2.0625 2.597,1.37064 6.42123,3.75065 11.84375,3.9375 1.81761,0.0626 3.63109,-0.004 5.40625,-0.15625 -4.62884,-6.64862 -9.62083,-13.02833 -14.90625,-19.15625 -2.4864,-0.92449 -5.45164,-1.6875 -8.875,-1.6875 -5.85609,0 -10.37355,2.29733 -13,3.78125 -2.62644,1.48392 -3.43914,2.10119 -6.0625,2.25 -0.75675,0.0429 -1.39454,-0.28611 -4.21875,-1.90625 -2.8242,-1.62014 -7.55424,-4.125 -13.71875,-4.125 -6.16451,0 -10.89454,2.50486 -13.71875,4.125 -2.8242,1.62014 -3.462,1.94918 -4.21875,1.90625 -2.62335,-0.14881 -3.43605,-0.76608 -6.0625,-2.25 -2.62644,-1.48392 -7.14391,-3.78125 -13,-3.78125 z m 0,30 c -5.93135,0 -10.55049,2.20808 -13.53125,3.78125 -2.98076,1.57317 -4.27472,2.18084 -5.375,2.21875 -3.78314,0.13036 -8.93303,-1.01692 -12.71875,-2.03125 -2.6639,4.43157 -5.19423,8.94877 -7.5625,13.5625 4.14441,1.40012 12.44365,3.75712 20.8125,3.46875 5.42252,-0.18685 9.24676,-2.56686 11.84375,-3.9375 2.597,-1.37064 4.02033,-2.0625 6.53125,-2.0625 2.58619,0 3.15355,0.4474 5.625,1.84375 2.47145,1.39635 6.77483,3.82616 12.59375,4.15625 5.75946,0.32671 9.96481,-2.37148 12.53125,-3.84375 2.56645,-1.47227 3.76948,-2.15625 6.25,-2.15625 2.48053,0 3.68356,0.68398 6.25,2.15625 2.56645,1.47227 6.7718,4.17046 12.53125,3.84375 5.81892,-0.33009 10.1223,-2.7599 12.59375,-4.15625 2.47145,-1.39635 3.03882,-1.84375 5.625,-1.84375 2.51092,0 3.93426,0.69186 6.53125,2.0625 2.597,1.37064 6.42123,3.75065 11.84375,3.9375 8.70839,0.30007 17.39612,-2.28839 21.34375,-3.65625 -2.3678,-4.60385 -4.90026,-9.10937 -7.5625,-13.53125 -3.81869,1.04605 -9.28884,2.324 -13.25,2.1875 -1.10028,-0.0379 -2.39424,-0.64558 -5.375,-2.21875 -2.98075,-1.57317 -7.5999,-3.78125 -13.53125,-3.78125 -5.85609,0 -10.37355,2.29733 -13,3.78125 -2.62644,1.48392 -3.43914,2.10119 -6.0625,2.25 -0.75675,0.0429 -1.39454,-0.28611 -4.21875,-1.90625 -2.8242,-1.62014 -7.55424,-4.125 -13.71875,-4.125 -6.16451,0 -10.89454,2.50486 -13.71875,4.125 -2.8242,1.62014 -3.462,1.94918 -4.21875,1.90625 -2.62335,-0.14881 -3.43605,-0.76608 -6.0625,-2.25 -2.62644,-1.48392 -7.14391,-3.78125 -13,-3.78125 z"
           id="path3765"
           inkscape:connector-curvature="0" />
        <g
           id="g4321"
           style="stroke-width:0.82075;stroke-miterlimit:4;stroke-dasharray:none">
          <path
             sodipodi:nodetypes="cccccccc"
             inkscape:connector-curvature="0"
             id="path4236"
             d="m 260.12285,371.69327 c -6.0238,22.90874 8.16684,59.0534 18.1113,72.70211 l 0.23459,20.81045 c 0,3.43736 10.63282,8.32389 24.03126,8.32389 13.39844,0 24.03126,-4.88653 24.03126,-8.32389 l 0.23459,-20.81045 c 9.94446,-13.64871 24.1351,-49.79337 18.1113,-72.70211 z"
             style="fill:#d99112;fill-opacity:1;stroke:#000000;stroke-width:0.82075;stroke-miterlimit:4;stroke-dasharray:none;stroke-opacity:1" />
          <path
             style="fill:#b4780f;fill-opacity:1;stroke:none;stroke-width:0.82075;stroke-miterlimit:4;stroke-dasharray:none"
             d="m 344.87715,371.69327 -84.7543,0 c -5.58297,21.23223 6.1981,53.83401 15.8694,69.35816 l 3.00942,0.87403 0.24767,-3.4674 3.59123,-0.12383 -0.99068,-7.05864 3.59123,1.7337 0.74302,-3.46739 -2.97206,-7.43014 0.37151,-2.47671 4.33425,3.34356 2.84822,-4.21041 1.73369,2.84822 0,5.82027 2.10521,1.85753 4.21041,-1.60986 2.10521,3.21973 1.23835,3.4674 2.60055,1.98137 2.35288,-3.59124 0.49534,-6.19178 1.23836,-1.23836 1.98137,2.72439 2.84822,-0.24767 2.22904,-6.9348 1.85753,-1.36219 2.60055,2.10521 3.34356,-1.85754 0.74302,3.21973 3.46739,0.24767 -0.3715,5.94411 3.34356,0.61918 -2.35288,6.93479 0.99069,1.85754 1.73369,-1.36219"
             id="path4312"
             inkscape:connector-curvature="0"
             sodipodi:nodetypes="cccccccccccccccccccccccccccccccccccc" />
          <path
             style="fill:#9f6b0d;fill-opacity:1;stroke:none;stroke-width:0.82075;stroke-miterlimit:4;stroke-dasharray:none"
             d="m 342.88028,406.05553 c 3.30265,-12.50255 4.7291,-23.97148 1.99687,-34.36226 l -84.7543,0 c -2.49345,9.48269 -1.52334,22.87809 1.17549,34.36226 34.13117,5.86993 59.57212,4.38659 81.58194,0 z"
             id="path4260"
             inkscape:connector-curvature="0"
             sodipodi:nodetypes="ccccc" />
          <path
             style="fill:#fcf6e9;fill-opacity:1;stroke:#302104;stroke-width:0.82075;stroke-miterlimit:4;stroke-dasharray:none;stroke-opacity:1"
             d="m 343.91599,384.39475 c 1.8294,4.33373 -5.69189,40.07152 -14.83794,51.81016 -0.4654,1.78059 0.3349,3.21749 1.89342,1.50968 9.20631,-16.49897 19.11511,-46.20967 13.90568,-66.02132 l -84.7543,0 c -5.6576,21.5161 6.51621,54.70775 16.25611,69.97157 1.74521,1.33303 3.0677,0.9749 2.45656,-1.42403 -12.78362,-18.11431 -17.48831,-43.63402 -17.8591,-53.3801 -0.0752,-1.97585 -0.15511,-4.77753 0.90626,-4.48862 2.17513,0.59209 1.63719,2.66447 1.87511,4.70556 1.89602,13.23905 3.10302,26.75334 15.00142,47.9946 0.56942,1.01653 1.04757,2.00839 2.11256,2.60143 1.36674,0.76106 2.56352,0.56618 1.49914,-2.33199 -8.34112,-15.21888 -14.13654,-31.92365 -14.96871,-48.19515 -0.0707,-1.38171 0.83166,-2.70881 2.14275,-2.44246 1.94056,0.39423 2.33199,2.332 2.33199,2.332 0.18391,12.16315 2.89283,26.68029 11.99311,45.14076 0,0 1.50684,0.61928 1.99885,0.16657 1.38921,-1.27825 0.0992,-3.59723 -0.83286,-5.33027 -3.95087,-7.34579 -10.10658,-32.92419 -8.49511,-38.6445 0.31355,-1.11301 0.73012,-1.83247 2.06193,-1.83228 1.925,2.8e-4 2.60206,2.49857 2.60206,2.49857 0,0 0.92494,15.79017 2.33199,23.48652 0.73169,4.00226 1.72291,10.10308 4.40784,10.12234 1.50273,0.0108 1.08901,-2.95978 1.08901,-2.95978 0.0649,-8.69666 -2.74407,-22.85212 -1.71745,-28.88625 0,0 0.41501,-2.48609 2.6568,-2.49869 1.47746,-0.008 2.45977,1.0599 2.64105,3.10036 0.97416,10.96568 -0.36655,34.22561 -0.22966,35.48186 0.14497,1.3304 0.57523,2.43444 2.18173,2.52622 1.76397,0.1008 2.13734,-0.83576 2.64105,-3.55967 2.17347,-11.75353 0.74092,-32.22236 0.80379,-33.35938 0.0632,-1.14217 0.1578,-3.10463 2.20066,-3.42651 1.07652,-0.16962 3.39504,1.04944 3.37079,3.20225 -0.13372,11.86739 -1.57871,25.10344 -2.02248,39.60669 -0.0753,2.45965 1.34104,4.65625 2.5281,4.55055 1.56782,-0.13958 2.41803,-1.00549 2.69662,-3.8764 1.45747,-15.01993 1.93613,-27.07295 2.35955,-41.29208 0.0298,-0.99981 1.35963,-2.21744 2.35953,-2.19101 1.19399,0.0316 2.67084,1.67105 2.69664,2.86517 0.37619,17.40663 -1.77847,27.92556 -3.70786,35.05614 -0.20855,0.77075 0.72022,1.79993 1.51685,1.85393 2.22093,0.15055 2.66075,-3.6217 3.25502,-5.76693 3.09392,-11.16857 3.02005,-26.20953 3.69457,-31.92743 0.27919,-2.36664 1.74209,-2.86355 2.33488,-2.86447 1.33747,-0.002 1.70836,0.49195 2.09328,2.40499 1.17235,5.82646 -3.2035,23.39452 -4.10043,29.31353 -0.13702,0.90421 0.82221,2.47615 1.65525,2.09874 0.74505,-0.33754 1.0708,-0.92907 1.3834,-1.5917 3.62361,-7.68132 5.97265,-25.32132 6.37474,-31.46515 0.08,-1.22259 0.56055,-2.50808 2.21276,-2.46972 1.14888,0.0267 1.62413,1.52285 1.51109,2.71638 -0.69425,7.33066 -2.74814,17.19232 -5.00812,24.41939 -1.30503,4.17328 -3.13394,7.43367 -3.08708,8.36067 0.11379,2.25062 1.99529,1.38055 2.72862,0.2928 6.49424,-9.63287 8.50952,-26.50096 9.69181,-36.22479 0.30313,-1.55016 2.50361,-2.64423 2.9241,0.33708 0.81156,5.70776 -6.90335,35.78418 -12.23456,40.95616 -0.89076,0.86415 -0.76534,1.78057 0.23414,2.51626 0.64781,0.47682 1.83339,-0.67908 2.59138,-1.31703 3.83627,-3.22866 13.07223,-33.32949 12.29463,-43.34836 -0.46484,-2.56307 0.3192,-3.34144 1.35704,-0.88286 z"
             id="path4245"
             inkscape:connector-curvature="0"
             sodipodi:nodetypes="sccccccsscsscssccsssscsscssssssssssssssssssssssssssssssccssscs" />
          <ellipse
             ry="6.7926846"
             rx="40.119293"
             cy="373.43362"
             cx="305.88309"
             transform="matrix(1.05,0,0,1.05,-18.677242,-20.069296)"
             id="path4232"
             style="fill:#fcf6e9;fill-opacity:1;stroke:#000000;stroke-width:0.78166664;stroke-miterlimit:4;stroke-dasharray:none;stroke-opacity:1" />
          <path
             inkscape:connector-curvature="0"
             id="path4314"
             d="m 305.99545,467.11921 7.06028,0.30044 6.15897,-1.35197 -5.25766,-10.66552 -3.15459,0.60087 -1.95284,-0.15022 z"
             style="fill:#b2780f;fill-opacity:1;stroke:none;stroke-width:0.82075;stroke-miterlimit:4;stroke-dasharray:none" />
          <path
             inkscape:connector-curvature="0"
             id="path4272"
             d="m 308.20753,455.6204 -0.25632,0.99546 c 2.28575,0.0421 4.5705,-0.18377 6.81391,-0.63916 l -0.45681,-0.90047 c -2.01663,0.39383 -4.04542,0.56685 -6.10078,0.54417 z m 7.29336,1.92213 c -2.62305,0.60233 -5.27659,0.84882 -7.96559,0.74188 l -0.2591,0.96433 c 2.90976,0.13469 5.80904,-0.1345 8.65037,-0.80296 l -0.42568,-0.90325 z m 1.04031,2.16614 c -3.14167,0.81543 -6.34735,1.09403 -9.58416,0.88625 l -0.2591,0.96433 c 3.47275,0.24353 6.92749,-0.0216 10.30285,-0.91898 l -0.45959,-0.9316 z m 0.92195,1.89433 c -3.60078,1.03191 -7.28961,1.33299 -11.01598,1.01396 l -0.2591,0.96433 c 3.95458,0.35954 7.87226,0.0413 11.70076,-1.07504 l -0.42568,-0.90325 z m 0.84859,1.77538 c -4.03317,1.25856 -8.1602,1.60868 -12.35164,1.16447 l -0.2591,0.96433 c 4.42451,0.4892 8.80077,0.12615 13.06755,-1.22833 l -0.45681,-0.90047 z m 0.95862,1.9538 c -4.51111,1.53901 -9.13273,1.93173 -13.84293,1.32887 l -0.2591,0.96433 c 4.91613,0.64814 9.77473,0.23541 14.49659,-1.38717 l -0.0845,-0.24346 -0.31009,-0.66257 z"
             style="color:#000000;font-style:normal;font-variant:normal;font-weight:normal;font-stretch:normal;font-size:medium;line-height:normal;font-family:Sans;-inkscape-font-specification:Sans;text-indent:0;text-align:start;text-decoration:none;text-decoration-line:none;letter-spacing:normal;word-spacing:normal;text-transform:none;direction:ltr;block-progression:tb;writing-mode:lr-tb;baseline-shift:baseline;text-anchor:start;display:inline;overflow:visible;visibility:visible;fill:#4b3306;fill-opacity:1;stroke:none;stroke-width:0.82075;stroke-miterlimit:4;stroke-dasharray:none;marker:none;enable-background:accumulate" />
        </g>
        <path
           style="display:inline;fill:none;stroke:#000000;stroke-width:0.82075;stroke-miterlimit:4;stroke-dasharray:none;stroke-opacity:1"
           d="m 302.5,123.09375 c -61.54113,42.13049 -101.84375,112.27691 -101.84375,191.6875 0,79.4078 40.30627,149.52528 101.84375,191.65625 61.54943,-42.12938 101.84375,-112.23933 101.84375,-191.65625 0,-79.41977 -40.29059,-149.55862 -101.84375,-191.6875 z"
           id="path5098-7"
           inkscape:connector-curvature="0" />
      </g>
    </g>
  </g>
</svg>
