<?xml version="1.0" encoding="UTF-8" standalone="no"?>
<svg
   xmlns:dc="http://purl.org/dc/elements/1.1/"
   xmlns:cc="http://creativecommons.org/ns#"
   xmlns:rdf="http://www.w3.org/1999/02/22-rdf-syntax-ns#"
   xmlns:svg="http://www.w3.org/2000/svg"
   xmlns="http://www.w3.org/2000/svg"
   xmlns:sodipodi="http://sodipodi.sourceforge.net/DTD/sodipodi-0.dtd"
   xmlns:inkscape="http://www.inkscape.org/namespaces/inkscape"
   width="302"
   height="323.11417"
   viewBox="0 0 241.6 258.49133"
   version="1.1"
   id="svg2"
   inkscape:version="0.91 r13725"
   sodipodi:docname="Emblem_of_Yemen.svg">
  <metadata
     id="metadata694">
    <rdf:RDF>
      <cc:Work
         rdf:about="">
        <dc:format>image/svg+xml</dc:format>
        <dc:type
           rdf:resource="http://purl.org/dc/dcmitype/StillImage" />
        <dc:title></dc:title>
      </cc:Work>
    </rdf:RDF>
  </metadata>
  <defs
     id="defs692">
    <clipPath
       clipPathUnits="userSpaceOnUse"
       id="clipPath4509">
      <g
         id="g4511"
         transform="matrix(2.5154253,0,0,2.5154253,-727.37705,-1168.5824)"
         style="fill:#000000">
        <path
           d="m 374.68777,446.67842 c 3.05285,28.15499 19.98012,60.09913 42.43628,79.14356 26.41211,-23.89977 41.30188,-53.46501 42.59822,-78.99149 -5.16877,-3.81561 -11.19003,-8.57473 -15.62368,-11.95298 -11.0361,9.83865 -38.73293,12.64048 -54.0402,0.21231 -5.26861,2.97817 -11.57732,9.07181 -15.37062,11.5886 z"
           id="path4513"
           inkscape:connector-curvature="0"
           style="fill:#000000"
           sodipodi:nodetypes="cccccc" />
        <path
           sodipodi:nodetypes="cccccc"
           style="fill:none;stroke:#000000;stroke-opacity:1"
           inkscape:connector-curvature="0"
           id="path4515"
           d="m 374.68777,446.67842 c 3.05285,28.15499 19.98012,60.09913 42.43628,79.14356 26.41211,-23.89977 41.30188,-53.46501 42.59822,-78.99149 -5.16877,-3.81561 -11.19003,-8.57473 -15.62368,-11.95298 -11.0361,9.83865 -38.73293,12.64048 -54.0402,0.21231 -5.26861,2.97817 -11.57732,9.07181 -15.37062,11.5886 z" />
      </g>
    </clipPath>
  </defs>
  <sodipodi:namedview
     pagecolor="#ffffff"
     bordercolor="#666666"
     borderopacity="1"
     objecttolerance="10"
     gridtolerance="10"
     guidetolerance="10"
     inkscape:pageopacity="0"
     inkscape:pageshadow="2"
     inkscape:window-width="1680"
     inkscape:window-height="988"
     id="namedview690"
     showgrid="false"
     inkscape:zoom="1.005663"
     inkscape:cx="230.09116"
     inkscape:cy="151.87598"
     inkscape:window-x="-8"
     inkscape:window-y="-8"
     inkscape:window-maximized="1"
     inkscape:current-layer="svg2"
     fit-margin-top="1"
     fit-margin-left="1"
     fit-margin-right="1"
     fit-margin-bottom="1" />
  <g
     transform="matrix(0.83026391,0,0,0.82048937,-257.56787,-2.0835334)"
     id="#af5843ff-0" />
  <g
     id="#f0f0f0ff"
     transform="translate(-122.93069,-670.6011)" />
  <g
     id="g4442"
     clip-path="url(#clipPath4509)"
     transform="matrix(1.1168034,0,0,1.1168034,-238.88092,84.897827)">
    <g
       id="#bdebfbff-7"
       transform="matrix(2.0884669,0,0,2.0638797,-416.59544,-526.94751)">
      <path
         sodipodi:nodetypes="cccccccccccccccccccccccccccccccccccccc"
         id="path385-9"
         d="m 301.07023,232.26086 c 5.58,-4.12 13.46508,-9.9643 18.99508,-14.1543 9.42,8.7 20.52469,10.47344 32.93469,9.55344 12.69,0.96 24.14457,-1.24881 33.82457,-10.11881 5.43,4.27 13.08543,8.56881 18.75543,12.52881 -0.27,11.83 -2.77,23.52 -6.62,34.68 -1.16,3.13 -2.41,6.23 -3.29,9.44 -0.74,0.16 -2.22,0.47 -2.96,0.63 -0.51,-1.91 -0.1,-4.38 -1.81,-5.76 -2.43,-2.15 -6.9,-1.89 -8.79,0.88 -0.59,1.47 -0.83,3.04 -1.22,4.57 -0.63,0.05 -1.89,0.15 -2.52,0.2 3.54,-4.74 4.35,-10.76 3.26,-16.47 8,-3.17 11.87,-11.49 14.46,-19.13 -4.84,2.28 -10.18,2.83 -15.36,3.9 1.76,-5.75 1.99,-11.77 2,-17.73 -4.48,3.44 -9.76,5.7 -14.08,9.35 -3.12,2.62 -4.87,6.48 -5.87,10.35 -0.15,0.51 -0.44,1.54 -0.58,2.05 -1.22,-0.31 -2.43,-0.63 -3.63,-0.95 -1.74,-2.7 -3.45,-5.55 -6.09,-7.48 -3.62,-2.82 -8.39,-3.03 -12.5,-4.74 -3.8,-1.4 -7.21,-3.7 -9.88,-6.74 0.46,3.97 1.19,7.93 2.52,11.72 -4.02,0.17 -8.06,-0.4 -11.62,-2.38 1.37,5.67 4.41,10.62 7.03,15.74 -4.3,0.63 -8.56,1.53 -12.58,3.21 3.51,1.59 6.31,4.22 9.09,6.83 3.4,3.11 8.19,3.26 12.43,4.36 -0.55,0.66 -1.66,1.98 -2.21,2.65 -0.58,1.72 -0.88,3.52 -1.19,5.32 -1.4,-0.02 -2.8,-0.03 -4.19,-0.04 -0.4,-1.79 -0.11,-3.98 -1.56,-5.35 -2.3,-2.04 -6.26,-2.1 -8.47,0.12 -1.41,1.39 -1.22,3.56 -1.63,5.34 -2.21,-0.04 -4.41,-0.09 -6.6,-0.15 -0.95,-3.76 -2.63,-7.27 -3.84,-10.93 -3.59,-10.78 -5.90977,-19.93914 -6.20977,-31.29914 z"
         inkscape:connector-curvature="0"
         style="fill:#bdebfb" />
    </g>
    <g
       id="#00a656ff-8"
       transform="matrix(2.0884669,0,0,2.0638797,-416.59544,-526.94751)">
      <path
         id="path388-3"
         d="m 368.65,234.63 c 4.32,-3.65 9.6,-5.91 14.08,-9.35 -0.01,5.96 -0.24,11.98 -2,17.73 5.18,-1.07 10.52,-1.62 15.36,-3.9 -2.59,7.64 -6.46,15.96 -14.46,19.13 1.09,5.71 0.28,11.73 -3.26,16.47 -0.39,-1.37 -0.72,-2.75 -1.04,-4.12 1.52,-1.89 3.26,-4.01 2.7,-6.63 -0.78,-3.13 -2.92,-5.72 -4.07,-8.71 1.67,-1.62 3.32,-3.28 4.97,-4.92 -1.44,1.66 -2.91,3.31 -4.21,5.09 1.21,2.9 4.8,1.28 6.79,0.17 4.6,-3.37 7.49,-8.51 10.01,-13.52 -2.92,0.56 -5.84,1.08 -8.74,1.66 -5.45,0.66 -9.81,4.98 -12.11,9.76 -0.05,-0.86 -0.11,-1.72 -0.18,-2.57 6.16,-5.31 7.13,-13.89 8.46,-21.41 -4.17,2.57 -9,4.35 -12.21,8.23 -2.37,2.54 -3.27,5.97 -4.3,9.2 -0.53,0.15 -1.61,0.45 -2.15,0.6 0.12,-0.64 0.37,-1.92 0.49,-2.56 1,-3.87 2.75,-7.73 5.87,-10.35 z"
         inkscape:connector-curvature="0"
         style="fill:#00a656" />
      <path
         id="path390-0"
         d="m 330.1,227.12 c 2.67,3.04 6.08,5.34 9.88,6.74 4.11,1.71 8.88,1.92 12.5,4.74 2.64,1.93 4.35,4.78 6.09,7.48 -0.56,0.29 -1.68,0.87 -2.24,1.17 -1.04,-2.82 -2.02,-6.22 -5.09,-7.43 -5.24,-1.96 -10.71,-3.29 -15.8,-5.66 1.47,6.17 4.92,11.64 9.59,15.9 -0.07,0.13 -0.22,0.38 -0.29,0.51 -2.87,-3.18 -5.81,-6.34 -7.96,-10.07 -4.34,0.16 -8.69,-0.08 -12.99,-0.75 1.75,8.42 9.3,15.07 17.88,15.68 -0.49,0.68 -0.96,1.37 -1.47,2.03 -5.54,-5.23 -13.72,-3.49 -20.45,-2.22 5.05,3.88 9.89,9.46 16.93,8.74 l 0.09,1.49 c 0.46,0.34 1.38,1 1.84,1.33 -1.28,0.83 -2.56,1.64 -3.85,2.45 0.55,-0.67 1.66,-1.99 2.21,-2.65 -4.24,-1.1 -9.03,-1.25 -12.43,-4.36 -2.78,-2.61 -5.58,-5.24 -9.09,-6.83 4.02,-1.68 8.28,-2.58 12.58,-3.21 -2.62,-5.12 -5.66,-10.07 -7.03,-15.74 3.56,1.98 7.6,2.55 11.62,2.38 -1.33,-3.79 -2.06,-7.75 -2.52,-11.72 z"
         inkscape:connector-curvature="0"
         style="fill:#00a656" />
      <path
         id="path392-22"
         d="m 346.49,245.18 c 0.43,-1.87 2.78,0.07 2.69,1.26 -0.67,-0.32 -2.02,-0.94 -2.69,-1.26 z"
         inkscape:connector-curvature="0"
         style="fill:#00a656" />
      <path
         id="path394-3"
         d="m 349.18,246.44 c 0.15,0.06 0.45,0.2 0.6,0.27 -0.15,-0.07 -0.45,-0.21 -0.6,-0.27 z"
         inkscape:connector-curvature="0"
         style="fill:#00a656" />
      <path
         id="path396-6"
         d="m 349.78,246.71 c 0.1,0.04 0.3,0.12 0.41,0.16 l -0.26,-0.09 -0.15,-0.07 z"
         inkscape:connector-curvature="0"
         style="fill:#00a656" />
      <path
         id="path398-7"
         d="m 337.34,249.18 c 1.41,-0.96 2.31,1.09 2.5,2.2 -1.09,-0.13 -3.22,-0.69 -2.5,-2.2 z"
         inkscape:connector-curvature="0"
         style="fill:#00a656" />
      <path
         id="path400-1"
         d="m 339.84,251.38 c 1.34,-0.25 3.41,0.11 3.29,1.89 -1.46,0.47 -2.56,-0.85 -3.29,-1.89 z"
         inkscape:connector-curvature="0"
         style="fill:#00a656" />
      <path
         id="path402-5"
         d="m 332.23,259.28 c 1.56,-0.24 3.51,0.33 4,2.02 -1.62,0.49 -3.38,-0.51 -4,-2.02 z"
         inkscape:connector-curvature="0"
         style="fill:#00a656" />
      <path
         id="path404-5"
         d="m 336.23,261.3 0.31,-0.07 -0.01,0.55 c -0.07,-0.12 -0.23,-0.36 -0.3,-0.48 z"
         inkscape:connector-curvature="0"
         style="fill:#00a656" />
      <path
         id="path406-4"
         d="m 344.13,269.27 c 1.87,-0.37 3.68,0.11 5.38,0.92 -0.46,1.43 -0.84,2.89 -1.22,4.35 -0.79,-0.04 -2.36,-0.13 -3.14,-0.17 -0.3,-1.71 -0.64,-3.41 -1.02,-5.1 z"
         inkscape:connector-curvature="0"
         style="fill:#00a656" />
    </g>
    <g
       id="#a4dcb5ff-0"
       transform="matrix(2.0884669,0,0,2.0638797,-416.59544,-526.94751)">
      <path
         id="path409-26"
         d="m 368.74,237.74 c 3.21,-3.88 8.04,-5.66 12.21,-8.23 -1.33,7.52 -2.3,16.1 -8.46,21.41 -0.89,-1.22 -1.78,-2.43 -2.78,-3.55 0.94,-0.93 1.36,-2.06 1.26,-3.37 -1.42,0.16 -2.34,1.73 -1.69,3.04 -1.62,-0.09 -3.23,-0.12 -4.84,-0.1 1.03,-3.23 1.93,-6.66 4.3,-9.2 z"
         inkscape:connector-curvature="0"
         style="fill:#a4dcb5" />
      <path
         id="path411-0"
         d="m 335.44,234.16 c 5.09,2.37 10.56,3.7 15.8,5.66 3.07,1.21 4.05,4.61 5.09,7.43 -0.55,0.29 -1.66,0.88 -2.22,1.18 -0.98,-0.39 -2.94,-1.17 -3.92,-1.56 -0.11,-0.04 -0.31,-0.12 -0.41,-0.16 -0.15,-0.07 -0.45,-0.21 -0.6,-0.27 0.09,-1.19 -2.26,-3.13 -2.69,-1.26 0.67,0.32 2.02,0.94 2.69,1.26 0.15,0.06 0.45,0.2 0.6,0.27 l 0.15,0.07 c -1.73,0.93 -3.5,1.87 -4.9,3.28 -4.67,-4.26 -8.12,-9.73 -9.59,-15.9 z"
         inkscape:connector-curvature="0"
         style="fill:#a4dcb5" />
      <path
         id="path413-6"
         d="m 323.79,239.75 c 4.3,0.67 8.65,0.91 12.99,0.75 2.15,3.73 5.09,6.89 7.96,10.07 -0.41,0.67 -1.21,2.03 -1.61,2.7 0.12,-1.78 -1.95,-2.14 -3.29,-1.89 -0.19,-1.11 -1.09,-3.16 -2.5,-2.2 -0.72,1.51 1.41,2.07 2.5,2.2 0.73,1.04 1.83,2.36 3.29,1.89 -0.37,0.54 -1.1,1.62 -1.46,2.16 -8.58,-0.61 -16.13,-7.26 -17.88,-15.68 z"
         inkscape:connector-curvature="0"
         style="fill:#a4dcb5" />
      <path
         id="path415-11"
         d="m 384.78,243.73 c 2.9,-0.58 5.82,-1.1 8.74,-1.66 -2.52,5.01 -5.41,10.15 -10.01,13.52 -1.99,1.11 -5.58,2.73 -6.79,-0.17 1.3,-1.78 2.77,-3.43 4.21,-5.09 -1.65,1.64 -3.3,3.3 -4.97,4.92 -1.1,-0.6 -2.19,-1.19 -3.29,-1.76 2.3,-4.78 6.66,-9.1 12.11,-9.76 z"
         inkscape:connector-curvature="0"
         style="fill:#a4dcb5" />
      <path
         id="path417-1"
         d="m 319.75,255.24 c 6.73,-1.27 14.91,-3.01 20.45,2.22 -1.16,1.31 -2.41,2.54 -3.66,3.77 l -0.31,0.07 c -0.49,-1.69 -2.44,-2.26 -4,-2.02 0.62,1.51 2.38,2.51 4,2.02 0.07,0.12 0.23,0.36 0.3,0.48 0.04,0.55 0.11,1.65 0.15,2.2 -7.04,0.72 -11.88,-4.86 -16.93,-8.74 z"
         inkscape:connector-curvature="0"
         style="fill:#a4dcb5" />
    </g>
    <g
       id="#42b573ff-7"
       transform="matrix(2.0884669,0,0,2.0638797,-416.59544,-526.94751)">
      <path
         id="path423-3"
         d="m 369.28,247.04 c -0.65,-1.31 0.27,-2.88 1.69,-3.04 0.1,1.31 -0.32,2.44 -1.26,3.37 l -0.43,-0.33 z"
         inkscape:connector-curvature="0"
         style="fill:#42b573" />
    </g>
    <g
       id="#fff588ff-7"
       transform="matrix(2.0884669,0,0,2.0638797,-416.59544,-526.94751)">
      <path
         id="path470-4"
         d="m 321.39,269.41 c 1.49,-0.08 2.99,-0.16 4.49,-0.26 2.03,1.57 2.14,4.11 2.39,6.47 2.09,-0.02 4.17,-0.04 6.27,-0.05 0.29,-1.71 0.28,-3.52 1,-5.11 2.06,-2.55 6.76,-2.3 8.14,0.83 0.28,1.42 0.36,2.88 0.52,4.33 1.82,-0.03 3.65,-0.05 5.48,-0.07 0.15,-1.53 0.3,-3.07 0.43,-4.59 1.69,-1.78 4.34,-3.12 6.69,-1.68 2.47,1.13 2.1,4.08 2.4,6.32 2.72,-0.04 5.45,-0.07 8.18,-0.08 0.09,-2.97 0.86,-6.99 4.71,-6.78 3.83,-0.34 5.12,3.75 4.57,6.86 1.88,-0.01 3.77,-0.03 5.66,-0.11 0.2,-1.72 -0.09,-3.69 1.1,-5.12 1.15,-1.75 3.51,-0.77 5.25,-1.03 0.57,0.69 1.15,1.38 1.74,2.08 -0.18,2.16 -0.18,6.03 3.1,5.03 -2.75,2.04 -1.9,7.97 -6.41,7.05 -23.43,0.34 -46.88,0.53 -70.3,-0.2 -0.68,-1.93 -1.37,-3.85 -2.07,-5.77 -0.35,-0.2 -1.03,-0.61 -1.38,-0.81 2.03,-0.04 4.06,-0.11 6.1,-0.18 0.02,-1.7 0.05,-3.39 0.08,-5.08 0.61,-0.69 1.23,-1.37 1.86,-2.05 z"
         inkscape:connector-curvature="0"
         style="fill:#fff588" />
    </g>
    <g
       id="#729d46ff-7"
       transform="matrix(2.0884669,0,0,2.0638797,-416.59544,-526.94751)">
      <path
         id="path473-8"
         d="m 359.93,272.2 c 1.34,-0.04 2.63,0.97 2.82,2.32 -0.62,-0.18 -1.86,-0.53 -2.47,-0.71 -0.09,-0.41 -0.26,-1.21 -0.35,-1.61 z"
         inkscape:connector-curvature="0"
         style="fill:#729d46" />
    </g>
    <g
       id="#0098d8ff-3-4"
       transform="matrix(2.1387861,0,0,2.0050174,-1727.3751,-606.25638)">
      <g
         transform="translate(-310.8545,-273.27961)"
         id="g5595">
        <path
           style="fill:#0098d8"
           inkscape:connector-curvature="0"
           d="m 1252.3255,610.68234 c 3.37,0.48 3.6709,-3.54305 6.9709,-3.38305 2.76,0.03 4.43,2.77 7.01,3.34 2.97,-0.25 4.81,-4.09 8.08,-3.27 2.2,0.7 3.89,2.38 5.99,3.31 2.1,0.13 4.7905,-2.23338 6.3705,-3.34338 6.3306,3.3589 7.3589,5.83173 12.7105,-0.33622 0.85,-0.05 2.909,1.4096 3.769,1.3596 -3.14,0.69 -6.309,4.15569 -9.169,5.38569 -2.83,-0.35 -3.6096,-2.9543 -6.711,-3.66569 -2.07,1.14 -3.78,2.95 -6.08,3.62 -3.08,-0.18 -5.02,-3.19 -7.93,-3.68 -2.08,1.11 -3.77,2.92 -6.05,3.64 -3.14,0.14 -5.09,-2.88 -7.91,-3.65 -2.58,0.53 -4.5607,3.82463 -7.4007,3.58463 -6.6204,-4.33995 -6.7505,-4.09492 -13.7083,1.22854 -0.13,-0.12 -1.321,-1.69317 -1.451,-1.82317 10.053,-8.45314 10.5718,-5.14615 15.5091,-2.31695 z"
           id="path476-7-5-6"
           sodipodi:nodetypes="cccccccccccccccccc" />
        <path
           style="fill:#0098d8"
           inkscape:connector-curvature="0"
           d="m 1239.2364,618.62929 c 2.15,-1.91 4.3608,-5.13285 7.6308,-4.86285 1.47,1.17 3.3335,3.10159 5.3302,3.34053 3.2373,-0.0511 3.929,-3.64768 7.159,-3.63768 2.69,0.6 4.78,2.54 7.07,3.95 1.95,-1.29 3.76,-2.84 5.93,-3.75 3.51,-1.05 5.69,3.2 8.95,3.4 2.66,-1.6 5.23,-3.7 8.59,-3.07 6.2149,3.08024 3.2534,5.1675 10.7921,-1.2337 -0.8,1.72 -0.1021,3.24589 -1.3021,4.70589 -1.99,-0.03 -3.2671,2.35171 -5.2571,2.34171 -1.27,-0.96 -3.2129,-2.7639 -4.5929,-3.5339 -3.71,-1.03 -5.49,4.19 -9.23,3.56 -2.3,-0.61 -4.01,-2.43 -6.12,-3.44 -2.97,0.21 -4.8,3.79 -7.95,3.47 -2.64,-0.49 -4.39,-2.94 -6.95,-3.61 -2.71,1.02 -3.7249,4.26874 -6.9449,3.33874 -1.96,0.13 -3.8551,-2.22874 -5.0251,-3.38874 -2.2342,0.0295 -3.1845,-0.10695 -6.5405,3.80821 -0.29,-0.26 -1.1495,-0.86821 -1.4295,-1.12821 -0.03,-0.07 -0.08,-0.2 -0.11,-0.26 z"
           id="path478-10-6-6"
           sodipodi:nodetypes="ccccccccccccccccccccc" />
        <path
           style="fill:#0098d8"
           inkscape:connector-curvature="0"
           d="m 1241.3064,621.43929 c 1.47,-0.23 3.7883,-1.14338 5.1783,-1.69338 2.463,-0.10883 4.0327,2.48096 6.8317,3.61338 1.8,-1.42 3.48,-3.6 6.01,-3.48 2.79,0.12 4.55,2.82 7.14,3.47 2.74,-0.73 4.57,-3.94 7.7,-3.46 2.34,0.65 4.12,2.46 6.33,3.42 2.86,0.01 4.52,-3.52 7.5,-3.25 2.91,0.9 5,3.36 7.35,5.18 -0.34,0.44 -0.72,0.86 -1.08,1.28 -1.6463,-0.23292 -4.4671,-2.89715 -6.4171,-3.75715 -3.3,-1.08 -3.2929,3.28715 -6.4129,3.26715 -2.89,0.34 -4.7,-2.37 -7.21,-3.25 -2.72,-0.15 -4.25,3 -6.88,3.24 -2.84,0.42 -4.76,-2.12 -7.15,-3.15 -2.18,-0.69 -4.4015,3.16423 -6.7758,3.55265 -6.4242,-2.74698 -5.4648,-5.06058 -10.2651,-2.48252 -0.23,-0.26 -1.6391,-2.24013 -1.8491,-2.50013 z"
           id="path480-0-2-7"
           sodipodi:nodetypes="cccccccccccccccccc" />
        <path
           style="fill:#0098d8"
           inkscape:connector-curvature="0"
           d="m 1286.8364,626.42929 c 2.13,-0.45 3.88,1.23 5.7,2.02 -0.26,0.28 -0.51,0.58 -0.76,0.88 -1.82,-0.14 -3.62,-0.26 -5.44,-0.31 -1.51,1.23 -2.81,3.32 -4.99,3.23 -3.12,0.4 -4.97,-3.06 -7.88,-3.28 -2.54,0.75 -4.27,3.72 -7.17,3.31 -3.01,0.01 -4.79,-4.02 -7.85,-3.11 -2.66,1.6 -5.22,3.59 -8.55,3.21 -1.95,-1.36 -3.01,-3.54 -4.16,-5.54 2.17,0.71 4.04,2.02 5.61,3.66 3.03,-1.28 5.32,-4.84 8.94,-4.15 2.29,0.52 3.83,2.68 6.12,3.17 2.59,-0.3 4.16,-3.31 6.89,-3.26 3.13,-0.39 4.97,3.15 7.93,3.27 2,-0.79 3.6,-2.33 5.61,-3.1 z"
           id="path482-8-0-6" />
        <path
           style="fill:#0098d8"
           inkscape:connector-curvature="0"
           d="m 1253.2264,636.34929 c 1.74,-1.63 3.36,-4.04 6.06,-3.89 3.06,-0.1 4.91,3.6 8.04,3.17 1.72,-0.93 3.2,-2.25 4.98,-3.09 3.61,-1.02 5.72,3.16 9.1,3.24 2.4,-1.32 4.58,-3.34 7.56,-2.79 -1.31,1.89 -2.8,3.66 -4.47,5.25 -2.05,0.04 -4.43,0.98 -6.19,-0.5 -1.66,-0.82 -3.05,-2.54 -5,-2.54 -2.57,1.19 -4.71,4.36 -7.88,3.32 -2.14,-1 -3.99,-2.53 -6.14,-3.5 -1.76,0.64 -3.2,1.89 -4.72,2.95 -0.46,-0.54 -0.9,-1.08 -1.34,-1.62 z"
           id="path484-34-3-7" />
        <path
           style="fill:#0098d8"
           inkscape:connector-curvature="0"
           d="m 1256.3664,640.00929 c 3.45,-3.15 6.77,0.73 9.94,2.15 2.64,-0.48 4.31,-3.25 7.03,-3.55 2.85,0.14 4.92,2.45 7.23,3.84 -0.39,0.47 -1.19,1.4 -1.58,1.86 -1.87,-0.91 -3.52,-2.8 -5.73,-2.65 -2.66,0.95 -4.73,4.18 -7.88,3.09 -2.53,-1.34 -4.86,-3.15 -7.81,-3.52 -0.3,-0.3 -0.9,-0.91 -1.2,-1.22 z"
           id="path486-50-5-7" />
        <path
           style="fill:#0098d8"
           inkscape:connector-curvature="0"
           d="m 1270.7664,645.89929 c 1.91,-1.67 4.44,-0.38 6.51,0.14 -0.62,0.55 -1.24,1.09 -1.86,1.62 -3.05,0.18 -5.47,2.06 -7.88,3.7 -1.13,-0.99 -2.19,-2.07 -3.23,-3.14 2.54,0.67 4.57,-0.86 6.46,-2.32 z"
           id="path488-1-6-1" />
      </g>
    </g>
    <g
       id="#dc9822ff-3"
       transform="matrix(2.0884669,0,0,2.0638797,-416.59544,-526.94751)">
      <path
         id="path464-0"
         d="m 319.35,269.3 c 2.21,-2.22 6.17,-2.16 8.47,-0.12 1.45,1.37 1.16,3.56 1.56,5.35 1.39,0.01 2.79,0.02 4.19,0.04 0.31,-1.8 0.61,-3.6 1.19,-5.32 1.29,-0.81 2.57,-1.62 3.85,-2.45 l 0.52,0.32 c 1.15,0.6 2.33,1.15 3.55,1.62 0.47,0.18 0.96,0.35 1.45,0.53 0.38,1.69 0.72,3.39 1.02,5.1 0.78,0.04 2.35,0.13 3.14,0.17 0.38,-1.46 0.76,-2.92 1.22,-4.35 0.11,-0.2 0.35,-0.6 0.46,-0.8 2.08,-1.52 4.64,-1.88 7.15,-1.76 1.06,1.44 2.1,2.91 2.81,4.57 0.09,0.4 0.26,1.2 0.35,1.61 0.61,0.18 1.85,0.53 2.47,0.71 0.91,-0.05 2.72,-0.16 3.63,-0.21 0.73,-2.1 1.16,-4.37 2.54,-6.18 0.36,-0.23 1.09,-0.69 1.45,-0.91 2.28,0.42 4.54,1.01 6.64,2.01 0.08,0.34 0.24,1.02 0.32,1.36 0.32,1.37 0.65,2.75 1.04,4.12 0.63,-0.05 1.89,-0.15 2.52,-0.2 0.39,-1.53 0.63,-3.1 1.22,-4.57 1.89,-2.77 6.36,-3.03 8.79,-0.88 1.71,1.38 1.3,3.85 1.81,5.76 0.74,-0.16 2.22,-0.47 2.96,-0.63 -0.88,3.66 -2.45,7.09 -4.24,10.37 -0.41,0.05 -1.22,0.15 -1.63,0.2 -24.41,0.06 -48.82,0.01 -73.23,0.03 -0.32,-0.04 -0.95,-0.13 -1.27,-0.17 -1.77,-3.21 -3.38,-6.54 -4.18,-10.13 2.19,0.06 4.39,0.11 6.6,0.15 0.41,-1.78 0.22,-3.95 1.63,-5.34 m 2.04,0.11 c -0.63,0.68 -1.25,1.36 -1.86,2.05 -0.03,1.69 -0.06,3.38 -0.08,5.08 -2.04,0.07 -4.07,0.14 -6.1,0.18 0.35,0.2 1.03,0.61 1.38,0.81 0.7,1.92 1.39,3.84 2.07,5.77 23.42,0.73 46.87,0.54 70.3,0.2 4.51,0.92 3.66,-5.01 6.41,-7.05 -3.28,1 -3.28,-2.87 -3.1,-5.03 -0.59,-0.7 -1.17,-1.39 -1.74,-2.08 -1.74,0.26 -4.1,-0.72 -5.25,1.03 -1.19,1.43 -0.9,3.4 -1.1,5.12 -1.89,0.08 -3.78,0.1 -5.66,0.11 0.55,-3.11 -0.74,-7.2 -4.57,-6.86 -3.85,-0.21 -4.62,3.81 -4.71,6.78 -2.73,0.01 -5.46,0.04 -8.18,0.08 -0.3,-2.24 0.07,-5.19 -2.4,-6.32 -2.35,-1.44 -5,-0.1 -6.69,1.68 -0.13,1.52 -0.28,3.06 -0.43,4.59 -1.83,0.02 -3.66,0.04 -5.48,0.07 -0.16,-1.45 -0.24,-2.91 -0.52,-4.33 -1.38,-3.13 -6.08,-3.38 -8.14,-0.83 -0.72,1.59 -0.71,3.4 -1,5.11 -2.1,0.01 -4.18,0.03 -6.27,0.05 -0.25,-2.36 -0.36,-4.9 -2.39,-6.47 -1.5,0.1 -3,0.18 -4.49,0.26 z"
         inkscape:connector-curvature="0"
         style="fill:#dc9822" />
    </g>
    <g
       id="#b15b45ff-48-2"
       transform="matrix(2.0884669,0,0,2.0638797,699.97564,-469.48192)">
      <g
         style="fill:#b15b45;fill-opacity:1"
         id="g5940">
        <g
           transform="matrix(1.0945738,0,0,1.1664094,17.758811,-36.861727)"
           id="g5989">
          <path
             inkscape:transform-center-y="-0.39045617"
             inkscape:transform-center-x="-0.69099264"
             sodipodi:nodetypes="ccscssssssscssssscc"
             id="path441-38-3-9-2-6-5-3-2-4-4-4-2-5-2-4"
             d="m -195.67733,237.63504 c -1.33384,-1.23712 -2.47532,-1.71745 -2.20243,-3.09661 0.4149,-1.13597 0.0576,-2.75759 1.59725,-4.19418 4.23859,-3.95493 8.14199,-13.31548 13.62071,-11.03579 0.16714,0.20474 -0.3289,1.11296 4.33734,-0.74057 1.9343,-0.76835 2.76105,-1.59352 6.15828,0.92755 0.44161,0.32771 1.03448,-1.31081 2.41236,-1.51079 2.37229,-0.34432 5.82397,1.10449 5.98588,5.55456 0.0558,1.53474 1.25628,2.00918 2.66086,2.82547 2.48089,1.4418 5.4757,4.53025 4.40408,11.67138 -0.26629,1.77452 -8.04053,-0.77632 -10.37307,0.28326 -0.89179,0.4051 -1.98434,3.96478 -2.0912,4.68624 0.23694,0.75757 -3.08361,1.52102 -6.75684,-1.49439 -1.47327,-1.20943 -1.17024,-3.54267 -2.8839,-3.78753 -2.00925,-0.28709 -3.62126,0.37425 -5.97008,1.53849 -1.46558,0.72643 -3.63839,0.25653 -4.18746,0.0648 -0.87961,-0.30716 -3.10813,-1.12898 -4.79502,-1.43538 -0.44691,-0.0812 -1.33666,0.1682 -1.64324,0.003 z"
             inkscape:connector-curvature="0"
             style="fill:#8a0000;fill-opacity:1" />
          <path
             sodipodi:nodetypes="ccccc"
             id="path441-38-3-9-9"
             d="m -187.1432,233.90176 c 0.88,-2.65 4.02965,-3.84417 6.36965,-2.58417 1.9687,0.78956 2.38519,2.51178 2.71036,7.17417 -2.51001,-0.12 -5.40876,-1.55961 -7.48876,-0.0396 -1.44,-1.74 -3.33125,-2.21039 -1.59125,-4.55039 z"
             inkscape:connector-curvature="0"
             style="fill:#b15b45;fill-opacity:1" />
          <path
             sodipodi:nodetypes="ccccc"
             id="path441-38-3-9-2-2"
             d="m -178.07238,219.10762 c 2.55243,-1.06977 6.05039,-0.23936 6.64909,2.37357 0.70524,2.0206 0.53417,5.83308 -2.42627,5.69041 -1.5597,-1.99362 -2.97092,-2.55869 -5.46992,-3.14678 0.35021,-2.24173 -1.63942,-4.70717 1.2471,-4.9172 z"
             inkscape:connector-curvature="0"
             style="fill:#b15b45;fill-opacity:1" />
          <path
             inkscape:transform-center-y="1.6360926"
             inkscape:transform-center-x="-1.1976538"
             sodipodi:nodetypes="ccccc"
             id="path441-38-3-9-2-6-3"
             d="m -192.50041,229.43438 c -1.19082,-4.60455 3.64533,-4.8722 5.83949,-4.27116 2.08153,0.39434 5.25682,2.45367 3.65204,4.97509 -2.48641,0.36754 -3.91608,2.22947 -5.67073,4.12365 -1.74204,-1.42951 -4.24852,-2.25485 -3.8208,-4.82758 z"
             inkscape:connector-curvature="0"
             style="fill:#b15b45;fill-opacity:1" />
          <path
             inkscape:transform-center-y="0.21993908"
             inkscape:transform-center-x="0.89105099"
             sodipodi:nodetypes="ccccc"
             id="path441-38-3-9-2-6-5-7"
             d="m -165.44241,220.24831 c 1.56241,2.79213 1.82791,5.11798 0.10709,6.6209 -1.48852,1.52425 -4.47367,2.24532 -5.63938,-0.51206 1.09147,-2.29034 0.36765,-4.5316 -0.20059,-7.06337 2.14594,-0.65994 3.866,-0.84478 5.73288,0.95453 z"
             inkscape:connector-curvature="0"
             style="fill:#b15b45;fill-opacity:1" />
          <path
             inkscape:transform-center-y="-0.52933215"
             inkscape:transform-center-x="1.2306304"
             sodipodi:nodetypes="ccccc"
             id="path441-38-3-9-2-6-5-3-3"
             d="m -167.43242,230.81942 c 0.47316,3.17275 -0.22008,5.6834 -2.35805,6.46476 -1.92854,0.88529 -6.0491,0.23682 -6.164,-2.76002 1.82827,-1.74438 1.9438,-4.09938 2.30724,-6.66945 2.23729,0.15969 5.10669,0.60909 6.21481,2.96471 z"
             inkscape:connector-curvature="0"
             style="fill:#b15b45;fill-opacity:1" />
          <path
             inkscape:transform-center-y="0.65747214"
             inkscape:transform-center-x="0.92835554"
             sodipodi:nodetypes="ccccc"
             id="path441-38-3-9-2-6-5-3-2-1"
             d="m -177.95193,225.12318 c 2.21818,0.8676 3.93103,3.30815 3.58298,4.87316 -0.19847,1.4772 -1.69758,3.79748 -3.66108,2.77898 -0.3911,-1.72881 -2.14883,-2.26693 -3.64945,-3.41731 -2.14371,-3.63973 -0.29441,-4.81097 3.72755,-4.23483 z"
             inkscape:connector-curvature="0"
             style="fill:#b15b45;fill-opacity:1" />
          <path
             inkscape:transform-center-y="-0.66686825"
             inkscape:transform-center-x="0.63197402"
             sodipodi:nodetypes="ccccc"
             id="path441-38-3-9-2-6-5-3-2-4-5"
             d="m -159.65368,228.86897 c 0.59854,2.32898 0.99495,3.36125 -0.46399,3.98875 -1.13181,1.8132 -3.78397,3.73538 -5.67948,1.74182 -0.15369,-1.45898 -0.62082,-3.17446 -0.57363,-5.07891 1.66934,-3.88585 4.83185,-4.29259 6.7171,-0.65166 z"
             inkscape:connector-curvature="0"
             style="fill:#b15b45;fill-opacity:1" />
          <path
             inkscape:transform-center-y="-0.86053742"
             inkscape:transform-center-x="0.48161561"
             sodipodi:nodetypes="ccsccsc"
             id="path441-38-3-9-2-6-5-3-2-4-4-7"
             d="m -156.28911,237.53447 c -1.0305,1.51524 -2.45399,2.68831 -3.96813,2.35637 -1.12998,0.25136 -1.77578,-1.52859 -3.09701,-1.9034 -1.0426,-0.29577 -1.84149,0.51809 -1.91801,-0.33269 0.8144,-0.84813 2.86606,-1.50489 4.11824,-2.49878 1.51696,-0.52884 2.49274,-2.79919 3.36149,-2.63021 1.28198,0.24937 2.03173,3.33819 1.50342,5.00871 z"
             inkscape:connector-curvature="0"
             style="fill:#b15b45;fill-opacity:1" />
          <path
             inkscape:transform-center-y="0.32838089"
             inkscape:transform-center-x="-0.1433405"
             sodipodi:nodetypes="ccccsscc"
             id="path441-38-3-9-2-6-5-3-2-4-4-4-8"
             d="m -169.38069,242.16711 c -1.76104,0.42028 -2.5012,0.69696 -3.47467,-0.30701 -1.86313,-0.77458 -4.70064,-3.01152 -3.6192,-4.32505 1.17134,-0.11074 3.18853,0.54834 4.79385,0.5747 1.51874,0.45989 3.71343,-0.46767 4.28554,0.0948 0.48067,0.47257 -0.60221,0.91865 -1.16439,1.80695 -0.42517,0.67182 -0.18955,1.81894 -0.82113,2.15565 z"
             inkscape:connector-curvature="0"
             style="fill:#b15b45;fill-opacity:1" />
          <path
             inkscape:transform-center-y="-0.41071453"
             inkscape:transform-center-x="-0.74426261"
             sodipodi:nodetypes="ccccsscc"
             id="path441-38-3-9-2-6-5-3-2-4-4-4-2-5"
             d="m -193.74308,238.15586 c -1.33384,-1.23712 -3.07712,-2.60062 -2.80423,-3.97978 0.47431,-2.72294 0.91808,-4.72696 2.59961,-4.56084 0.74925,0.91779 1.64157,2.71918 2.52287,4.0772 0.47835,1.5294 2.8517,3.144 2.71384,3.93903 -0.18254,1.05272 -2.81417,1.08882 -4.43006,0.55382 -0.18483,-0.0612 -0.43247,-0.068 -0.60206,-0.0294 z"
             inkscape:connector-curvature="0"
             style="fill:#b15b45;fill-opacity:1" />
          <path
             inkscape:transform-center-y="0.1967917"
             inkscape:transform-center-x="0.7320567"
             sodipodi:nodetypes="ccccscc"
             id="path441-38-3-9-2-6-5-3-2-4-4-4-2-7-8"
             d="m -186.24367,219.70057 c 1.45969,0.16055 4.66533,-0.54187 5.89657,2.36633 0.72236,2.23774 -1.10171,2.90862 -2.39495,3.71728 -0.90743,-0.25189 -2.43552,-0.93728 -3.61216,-1.43561 -0.94963,-0.84533 -2.9779,0.58009 -3.18927,-0.0729 -0.31189,-0.96358 1.92173,-4.3376 3.29982,-4.57511 z"
             inkscape:connector-curvature="0"
             style="fill:#b15b45;fill-opacity:1" />
          <path
             inkscape:transform-center-y="0.0021705228"
             inkscape:transform-center-x="0.38883931"
             sodipodi:nodetypes="ccccscc"
             id="path441-38-3-9-2-6-5-3-2-4-4-4-2-7-8-1"
             d="m -176.81456,226.56157 c 0.4868,0.34091 1.78652,0.70531 1.59089,2.00302 -0.23099,0.95499 -1.02985,0.84645 -1.66904,0.89082 -0.26938,-0.26735 -0.66588,-0.81271 -0.97762,-1.22193 -0.15471,-0.4917 -1.19155,-0.36487 -1.12434,-0.64369 0.0992,-0.41138 1.63547,-1.20837 2.18012,-1.02825 z"
             inkscape:connector-curvature="0"
             style="fill:#ffffff;fill-opacity:1" />
          <path
             inkscape:transform-center-y="0.0012090893"
             inkscape:transform-center-x="0.34789486"
             sodipodi:nodetypes="ccccscc"
             id="path441-38-3-9-2-6-5-3-2-4-4-4-2-7-8-1-1"
             d="m -182.44943,220.35342 c 0.45299,0.38062 1.71348,0.85322 1.39722,2.1293 -0.31942,0.93173 -1.10497,0.75623 -1.74578,0.7465 -0.24331,-0.28901 -0.58722,-0.86567 -0.85944,-1.29957 -0.1081,-0.50281 -1.15271,-0.46394 -1.05968,-0.73599 0.13725,-0.40139 1.74205,-1.06563 2.2677,-0.84027 z"
             inkscape:connector-curvature="0"
             style="fill:#ffffff;fill-opacity:1" />
          <path
             inkscape:transform-center-x="0.30625118"
             inkscape:transform-center-y="0.0010151677"
             sodipodi:nodetypes="ccccscc"
             id="path441-38-3-9-2-6-5-3-2-4-4-4-2-7-8-1-1-5"
             d="m -173.37647,220.03694 c 0.45299,0.38062 1.71348,0.85322 1.39722,2.1293 -0.31942,0.93173 -1.10497,0.75623 -1.74578,0.7465 -0.24331,-0.28901 -0.58722,-0.86567 -0.85944,-1.29957 -0.1081,-0.50281 -1.15271,-0.46394 -1.05968,-0.73599 0.13725,-0.40139 1.74205,-1.06563 2.2677,-0.84027 z"
             inkscape:connector-curvature="0"
             style="fill:#ffffff;fill-opacity:1" />
          <path
             inkscape:transform-center-y="0.0010151677"
             inkscape:transform-center-x="0.30625118"
             sodipodi:nodetypes="ccccscc"
             id="path441-38-3-9-2-6-5-3-2-4-4-4-2-7-8-1-1-9"
             d="m -166.20963,222.01108 c 0.45299,0.38062 1.71348,0.85322 1.39722,2.1293 -0.31942,0.93173 -1.10497,0.75623 -1.74578,0.7465 -0.24331,-0.28901 -0.58722,-0.86567 -0.85944,-1.29957 -0.1081,-0.50281 -1.15271,-0.46394 -1.05968,-0.73599 0.13725,-0.40139 1.74205,-1.06563 2.2677,-0.84027 z"
             inkscape:connector-curvature="0"
             style="fill:#ffffff;fill-opacity:1" />
          <path
             inkscape:transform-center-y="0.0008530643"
             inkscape:transform-center-x="0.26959242"
             sodipodi:nodetypes="ccccscc"
             id="path441-38-3-9-2-6-5-3-2-4-4-4-2-7-8-1-1-9-5"
             d="m -169.21861,229.28421 c 0.45299,0.38062 1.71348,0.85322 1.39722,2.1293 -0.31942,0.93173 -1.10497,0.75623 -1.74578,0.7465 -0.24331,-0.28901 -0.58722,-0.86567 -0.85944,-1.29957 -0.1081,-0.50281 -1.15271,-0.46394 -1.05968,-0.73599 0.13725,-0.40139 1.74205,-1.06563 2.2677,-0.84027 z"
             inkscape:connector-curvature="0"
             style="fill:#ffffff;fill-opacity:1" />
          <path
             inkscape:transform-center-y="0.056704874"
             inkscape:transform-center-x="-0.020632827"
             sodipodi:nodetypes="ccccscc"
             id="path441-38-3-9-2-6-5-3-2-4-4-4-2-7-8-1-1-9-1"
             d="m -164.19746,227.24563 c 0.57504,-0.17814 1.64257,-0.97086 2.64111,-0.0656 0.68426,0.73344 0.12704,1.28775 -0.20634,1.80752 -0.38566,0.0528 -1.08347,0.0424 -1.61533,0.0455 -0.51132,-0.16615 -1.00509,0.70886 -1.205,0.4949 -0.29496,-0.31567 -0.0853,-1.96609 0.38554,-2.28235 z"
             inkscape:connector-curvature="0"
             style="fill:#ffffff;fill-opacity:1" />
          <path
             inkscape:transform-center-y="0.013341971"
             inkscape:transform-center-x="0.19414354"
             sodipodi:nodetypes="ccccscc"
             id="path441-38-3-9-2-6-5-3-2-4-4-4-2-7-8-1-1-9-0"
             d="m -182.60288,231.22161 c 0.59503,0.10314 1.93119,-0.11175 2.35586,1.13563 0.23433,0.95425 -0.53352,1.19003 -1.08718,1.49656 -0.36569,-0.12778 -0.97419,-0.45227 -1.44356,-0.68983 -0.36648,-0.37716 -1.23921,0.16935 -1.30783,-0.10916 -0.10126,-0.41092 0.9101,-1.76782 1.48271,-1.83324 z"
             inkscape:connector-curvature="0"
             style="fill:#ffffff;fill-opacity:1" />
          <path
             inkscape:transform-center-y="0.0008530643"
             inkscape:transform-center-x="0.26959242"
             sodipodi:nodetypes="ccccscc"
             id="path441-38-3-9-2-6-5-3-2-4-4-4-2-7-8-1-1-9-6"
             d="m -184.48233,227.05032 c 0.45299,0.38062 1.71348,0.85322 1.39722,2.1293 -0.31942,0.93173 -1.10497,0.75623 -1.74578,0.7465 -0.24331,-0.28901 -0.58722,-0.86567 -0.85944,-1.29957 -0.1081,-0.50281 -1.15271,-0.46394 -1.05968,-0.73599 0.13725,-0.40139 1.74205,-1.06563 2.2677,-0.84027 z"
             inkscape:connector-curvature="0"
             style="fill:#ffffff;fill-opacity:1" />
        </g>
      </g>
    </g>
  </g>
  <g
     style="fill:none;stroke:#000000;stroke-width:0.3816452;stroke-miterlimit:4;stroke-dasharray:none;stroke-opacity:1"
     transform="matrix(2.8092354,0,0,2.8092354,-1051.2181,-1220.179)"
     id="g4503">
    <path
       sodipodi:nodetypes="cccccc"
       style="fill:none;stroke:#000000;stroke-width:0.3816452;stroke-miterlimit:4;stroke-dasharray:none;stroke-opacity:1"
       inkscape:connector-curvature="0"
       id="path4505"
       d="m 374.68777,446.67842 c 3.05285,28.15499 19.98012,60.09913 42.43628,79.14356 26.41211,-23.89977 41.30188,-53.46501 42.59822,-78.99149 -5.16877,-3.81561 -11.19003,-8.57473 -15.62368,-11.95298 -11.0361,9.83865 -38.73293,12.64048 -54.0402,0.21231 -5.26861,2.97817 -11.57732,9.07181 -15.37062,11.5886 z" />
    <path
       d="m 374.68777,446.67842 c 3.05285,28.15499 19.98012,60.09913 42.43628,79.14356 26.41211,-23.89977 41.30188,-53.46501 42.59822,-78.99149 -5.16877,-3.81561 -11.19003,-8.57473 -15.62368,-11.95298 -11.0361,9.83865 -38.73293,12.64048 -54.0402,0.21231 -5.26861,2.97817 -11.57732,9.07181 -15.37062,11.5886 z"
       id="path4507"
       inkscape:connector-curvature="0"
       style="fill:none;stroke:#000000;stroke-width:0.3816452;stroke-miterlimit:4;stroke-dasharray:none;stroke-opacity:1"
       sodipodi:nodetypes="cccccc" />
  </g>
</svg>
