<?xml version="1.0" encoding="UTF-8" standalone="no"?>
<!DOCTYPE svg PUBLIC "-//W3C//DTD SVG 20010904//EN"
"http://www.w3.org/TR/2001/REC-SVG-20010904/DTD/svg10.dtd">
<!-- Created with Sodipodi ("http://www.sodipodi.com/") -->
<svg
   xmlns="http://www.w3.org/2000/svg"
   xmlns:sodipodi="http://sodipodi.sourceforge.net/DTD/sodipodi-0.dtd"
   xmlns:xlink="http://www.w3.org/1999/xlink"
   id="svg827"
   sodipodi:version="0.34"
   width="219"
   height="271"
   xml:space="preserve"
   sodipodi:docbase="/mnt/fotak/root/home/pavel/ostatni/wiki/"
   sodipodi:docname="/mnt/fotak/root/home/pavel/ostatni/wiki/Jersey_coa.svg"><defs
   id="defs829" /><sodipodi:namedview
   id="base" /><g
   id="g3389"
   transform="translate(-639,-114)"><path
   sodipodi:nodetypes="cczccc"
   d="M 641.98645,117.23072 L 641.98645,277.12168 C 641.98645,322.78829 699.42236,382.1006 748.2729,382.1006 C 797.12344,382.1006 854.55935,322.78829 854.55935,277.12168 L 854.55935,117.23072 L 641.98645,117.23072 z "
   style="fill:#d1081d;fill-opacity:1;fill-rule:evenodd;stroke:#f7d917;stroke-width:4;stroke-linecap:square;stroke-linejoin:miter;stroke-miterlimit:4;stroke-dasharray:none;stroke-opacity:1"
   id="path3376" /><g
   transform="translate(0,-5)"
   id="g2976"><path
   style="fill:#0139ab;fill-opacity:1;fill-rule:evenodd;stroke:#000000;stroke-width:0.67720532pt;stroke-linecap:butt;stroke-linejoin:miter;stroke-opacity:1"
   id="path595"
   d="M 832.62925,250.11373 C 832.62925,253.04294 833.28069,255.97232 833.60642,256.94873 C 833.93159,257.92521 834.09473,259.14568 834.09473,259.14568 C 834.09473,259.14568 835.23394,257.43701 835.23394,255.48412 C 835.23394,253.53123 834.90821,250.84599 834.90821,250.84599" /><path
   style="fill:#0139ab;fill-opacity:1;fill-rule:evenodd;stroke:#000000;stroke-width:0.67720532pt;stroke-linecap:butt;stroke-linejoin:miter;stroke-opacity:1"
   id="path594"
   d="M 826.76952,250.11373 C 826.76952,250.35779 825.79235,251.57834 825.95548,253.77529 C 826.11807,255.97232 826.60638,257.68099 826.60638,257.43693 C 826.60638,257.19287 826.60638,255.23998 827.74614,254.01943 C 828.88535,252.79889 830.676,252.06662 830.676,252.06662" /><path
   style="fill:#0139ab;fill-opacity:1;fill-rule:evenodd;stroke:#000000;stroke-width:0.67720532pt;stroke-linecap:butt;stroke-linejoin:miter;stroke-opacity:1"
   id="path593"
   d="M 825.62976,244.98741 C 821.88586,249.13725 823.18821,251.33428 823.18821,251.33428 C 823.18821,251.33428 823.35079,250.35779 824.65314,250.35779 C 825.95548,250.35779 828.39704,251.57834 828.39704,251.57834" /><path
   style="fill:#0139ab;fill-opacity:1;fill-rule:evenodd;stroke:#000000;stroke-width:0.67720532pt;stroke-linecap:butt;stroke-linejoin:miter;stroke-opacity:1"
   id="path592"
   d="M 766.37663,253.77529 C 766.0509,257.68107 767.19011,260.12216 767.19011,260.12216 C 767.19011,260.12216 768.49246,258.90162 768.32987,255.72818 C 768.16673,252.55474 767.35325,250.84599 767.35325,250.84599" /><path
   style="fill:#0139ab;fill-opacity:1;fill-rule:evenodd;stroke:#000000;stroke-width:0.67720532pt;stroke-linecap:butt;stroke-linejoin:miter;stroke-opacity:1"
   id="path591"
   d="M 760.51635,251.33428 C 760.35321,251.33428 759.05087,252.55474 758.07424,253.77529 C 757.09762,254.99583 757.26021,256.94873 757.26021,256.94873 C 757.26021,256.94873 760.19063,254.99575 761.16725,255.23998 C 762.14387,255.48412 762.63218,256.46044 762.63218,256.46044" /><path
   style="fill:#0139ab;fill-opacity:1;fill-rule:evenodd;stroke:#000000;stroke-width:0.67720532pt;stroke-linecap:butt;stroke-linejoin:miter;stroke-opacity:1"
   id="path590"
   d="M 761.49297,245.23155 C 758.72569,244.011 756.7719,246.69624 756.93504,246.69624 C 757.09762,246.69624 759.70232,246.69624 760.19063,248.16084 C 760.67894,249.62545 761.98128,251.33428 761.98128,251.33428" /><path
   style="fill:#0139ab;fill-opacity:1;fill-rule:evenodd;stroke:#000000;stroke-width:0.67720532pt;stroke-linecap:butt;stroke-linejoin:miter;stroke-opacity:1"
   id="path589"
   d="M 767.51584,242.30226 C 767.19011,242.30226 767.19011,240.34936 765.72518,240.10531 C 764.26025,239.86116 763.12049,241.32585 763.12049,241.32585 C 763.12049,241.32585 766.21349,244.25515 766.37663,244.25515 C 766.53921,244.25515 767.51584,242.79046 767.51584,242.30226 z " /><path
   style="fill:#0139ab;fill-opacity:1;fill-rule:evenodd;stroke:#000000;stroke-width:0.67720532pt;stroke-linecap:butt;stroke-linejoin:miter;stroke-opacity:1"
   id="path604"
   d="M 670.19025,210.47816 C 670.42047,208.40677 669.90246,205.04094 669.90246,205.04094 C 669.90246,205.04094 670.93842,204.86828 671.97438,206.42178 C 673.01034,207.97529 672.5499,210.47816 672.5499,210.47816" /><path
   style="fill:#0139ab;fill-opacity:1;fill-rule:evenodd;stroke:#000000;stroke-width:0.67720532pt;stroke-linecap:butt;stroke-linejoin:miter;stroke-opacity:1"
   id="path603"
   d="M 664.1472,209.70137 C 664.37742,205.47241 662.59329,204.35047 662.53572,204.35047 C 662.47815,204.35047 664.20477,203.57368 665.35581,204.35047 C 666.50685,205.12718 666.96729,209.01099 666.96729,209.01099" /><path
   style="fill:#0139ab;fill-opacity:1;fill-rule:evenodd;stroke:#000000;stroke-width:0.67720532pt;stroke-linecap:butt;stroke-linejoin:miter;stroke-opacity:1"
   id="path602"
   d="M 659.19768,210.99597 C 657.81636,207.19858 656.55024,208.06162 656.55024,208.06162 C 656.55024,208.06162 657.5862,206.59444 659.02497,207.02592 C 660.4638,207.4574 661.72998,209.44246 661.72998,209.35614" /><path
   style="fill:#0139ab;fill-opacity:1;fill-rule:evenodd;stroke:#000000;stroke-width:0.67720532pt;stroke-linecap:butt;stroke-linejoin:miter;stroke-opacity:1"
   id="path601"
   d="M 660.57894,219.45388 C 659.31276,220.48949 658.96746,220.92105 657.9315,220.66215 C 656.89554,220.40325 656.0898,220.31692 656.0898,220.31692 C 656.0898,220.31692 656.72289,217.29615 657.52863,216.951 C 658.33437,216.60577 659.7732,216.6921 659.7732,216.6921" /><path
   style="fill:#0139ab;fill-opacity:1;fill-rule:evenodd;stroke:#000000;stroke-width:0.67720532pt;stroke-linecap:butt;stroke-linejoin:miter;stroke-opacity:1"
   id="path596"
   d="M 664.31078,238.39656 C 664.31078,236.44367 663.49686,235.46726 663.49686,235.46726 C 663.49686,235.46726 664.63639,234.24663 665.77588,235.95538 C 666.91536,237.66421 667.40367,240.34936 667.40367,240.34936 L 667.40367,240.34936" /><path
   style="fill:#0139ab;fill-opacity:1;fill-rule:evenodd;stroke:#000000;stroke-width:0.67720532pt;stroke-linecap:butt;stroke-linejoin:miter;stroke-opacity:1"
   id="path600"
   d="M 659.60055,241.11646 C 659.54298,241.11646 659.02497,239.6492 658.2768,239.13139 C 657.52863,238.61367 656.83797,238.52734 657.06819,238.52734 C 657.29841,238.52734 657.06819,237.49164 658.67967,237.49164 C 660.29115,237.49164 661.32711,238.26835 661.32711,238.26835" /><path
   style="fill:#0139ab;fill-opacity:1;fill-rule:evenodd;stroke:#000000;stroke-width:0.67720532pt;stroke-linecap:butt;stroke-linejoin:miter;stroke-opacity:1"
   id="path599"
   d="M 658.96746,245.51807 C 655.45671,245.17284 655.11141,248.36609 655.22649,248.45234 C 655.34163,248.53867 656.66532,249.48795 657.47106,249.57436 C 658.2768,249.66069 658.96746,249.57436 658.96746,249.57436" /><path
   style="fill:#0139ab;fill-opacity:1;fill-rule:evenodd;stroke:#000000;stroke-width:0.67720532pt;stroke-linecap:butt;stroke-linejoin:miter;stroke-opacity:1"
   id="path598"
   d="M 660.57894,252.94028 C 658.79481,256.65134 659.14011,258.63641 659.31276,258.63641 C 659.48541,258.63641 660.1185,258.1186 661.03932,257.0829 C 661.9602,256.04729 662.59329,254.06222 662.59329,254.06222" /><path
   style="fill:#fdd400;fill-opacity:1;fill-rule:evenodd;stroke:#000000;stroke-width:0.67720532pt;stroke-linecap:butt;stroke-linejoin:miter;stroke-opacity:1"
   sodipodi:nodetypes="cccc"
   id="path597"
   d="M 662.03181,244.98741 C 662.19462,244.98741 662.84574,237.17601 665.1247,237.66421 C 667.40367,238.15242 666.5898,238.1525 667.40367,238.64062 C 668.2176,239.12882 669.84544,244.49921 669.84544,244.49921" /><path
   style="fill:#fdd400;fill-opacity:1;fill-rule:evenodd;stroke:#000000;stroke-width:0.67720532pt;stroke-linecap:butt;stroke-linejoin:miter;stroke-opacity:1"
   sodipodi:nodetypes="ccc"
   id="path577"
   d="M 826.44601,249.57627 C 826.10037,249.23104 823.4531,247.15964 824.83453,245.43356 C 826.2154,243.70757 834.38838,245.08833 834.38838,245.08833" /><path
   style="fill:#fdd400;fill-opacity:1;fill-rule:evenodd;stroke:#000000;stroke-width:0.67720532pt;stroke-linecap:butt;stroke-linejoin:miter;stroke-opacity:1"
   id="path578"
   d="M 772.69148,249.05846 C 771.77072,248.54057 770.73492,248.368 769.58355,245.60622 C 768.43273,242.84444 769.12344,242.84444 768.66278,242.15398 C 768.20268,241.4636 767.28136,241.80891 765.66988,242.32664 C 764.0584,242.84444 764.51906,248.368 764.51906,248.368" /><path
   style="fill:#f7d917;fill-opacity:1;fill-rule:evenodd;stroke:#000000;stroke-width:0.67720532pt;stroke-linecap:butt;stroke-linejoin:miter;stroke-opacity:1"
   id="path579"
   d="M 786.38906,226.61918 C 785.4683,227.13698 777.52592,232.83303 777.75598,235.94004 C 777.98658,239.04705 782.82102,240.77313 782.706,242.67187 C 782.59042,244.57061 778.10161,245.95145 773.95788,246.12403 C 769.81416,246.29669 768.66278,247.33238 766.24556,246.64192 C 763.82835,245.95145 760.26031,242.49921 759.56959,246.46926 C 758.87888,250.43931 759.79965,250.61189 759.79965,250.61189 C 759.79965,250.61189 759.22451,252.6832 759.79965,254.40936 C 760.37533,256.13544 760.95102,257.17114 762.44692,257.17114 C 763.94337,257.17114 764.40403,255.79021 764.40403,255.79021 C 764.40403,255.79021 764.63409,257.51629 767.28136,257.68895 C 769.92918,257.86152 770.73492,255.96278 770.84995,255.96278 C 770.96498,255.96278 773.15214,256.65333 774.18794,256.3081 C 775.22373,255.96278 776.60516,255.09983 776.60516,255.09983 C 776.60516,255.09983 775.45434,257.51629 775.56936,257.51629 C 775.68439,257.51629 777.87156,257.34363 780.1732,256.82582 C 782.47539,256.3081 784.2019,254.06413 784.08687,254.06413 C 783.97184,254.06413 782.13031,257.17106 785.00764,256.99848 C 787.88552,256.82582 789.26694,253.54624 791.33853,253.89147 C 793.41067,254.2367 794.56149,253.54624 794.56149,253.54624 C 794.56149,253.54624 795.13718,252.16539 795.82789,251.47493 C 796.5186,250.78446 797.32434,250.61189 797.32434,250.61189 C 797.32434,250.61189 799.16588,250.26674 799.16588,250.09408 C 799.16588,249.9215 799.16588,245.77888 799.16588,245.77888 C 799.16588,245.77888 796.17297,245.43365 796.17297,242.32664 C 796.17297,239.21971 804.23037,235.94004 804.23037,235.94004 L 786.38906,226.61918 z " /><path
   style="fill:#fdd400;fill-opacity:1;fill-rule:evenodd;stroke:#000000;stroke-width:0.67720532pt;stroke-linecap:butt;stroke-linejoin:miter;stroke-opacity:1"
   sodipodi:nodetypes="cccc"
   id="path587"
   d="M 670.13262,224.54778 C 670.59306,210.39382 673.12536,216.26253 673.12536,213.1556 C 673.12536,210.04859 672.08941,207.97728 671.28367,207.97728 C 669.44202,207.97728 664.8378,213.84598 664.8378,213.84598" /><path
   style="fill:#f7d917;fill-opacity:1;fill-rule:evenodd;stroke:#000000;stroke-width:0.67720532pt;stroke-linecap:butt;stroke-linejoin:miter;stroke-opacity:1"
   sodipodi:nodetypes="cccccccsccccccccccccc"
   id="path572"
   d="M 702.24703,234.21396 C 701.09593,233.69707 683.25463,230.07225 677.26915,226.62 C 671.28367,223.16784 668.75136,217.64429 668.29093,214.88259 C 667.83049,212.12082 668.98158,207.63304 665.5284,207.63304 C 662.07523,207.63304 663.91692,212.12082 663.91692,212.12082 C 663.91692,212.12082 661.1544,204.87126 659.08248,209.01389 C 657.01062,213.15651 661.61484,216.26352 661.61484,216.26352 C 661.61484,216.26352 657.16038,213.48234 658.27674,217.98952 C 660.15312,225.5649 663.22632,222.82261 663.6867,224.54869 C 664.14714,226.27485 661.38462,228.00093 661.84506,228.34617 C 662.30544,228.6914 664.14714,229.89959 665.29818,230.24482 C 666.44928,230.59014 668.06071,231.10786 668.06071,231.10786 L 666.33414,233.17835 C 666.33414,233.17835 669.5571,236.63051 671.16858,237.49355 C 672.78006,238.35667 674.85198,237.49355 674.73684,237.49355 C 674.62176,237.49355 671.7441,239.39228 671.7441,239.39228 C 671.7441,239.39228 673.35558,240.77305 675.08215,241.11836 C 676.80876,241.4636 678.30511,241.63617 678.30511,241.63617 L 676.46346,242.84444 L 701.32621,250.26674 L 702.24703,234.21396 z " /><path
   id="path573"
   style="fill:#f7d917;fill-opacity:1;fill-rule:evenodd;stroke:#000000;stroke-width:0.67720532pt;stroke-linecap:butt;stroke-linejoin:miter;stroke-opacity:1"
   d="M 703.85851,231.45218 C 703.28299,231.62484 692.69329,243.18976 681.52807,243.70757 C 670.36284,244.22529 664.03206,243.36225 664.03206,243.36225 C 664.03206,243.36225 662.42058,235.42215 659.65806,239.04705 C 656.89554,242.67187 659.08254,244.05272 659.08254,244.05272 C 659.08254,244.05272 659.54292,243.88014 660.23358,244.74318 C 660.92418,245.60622 661.38462,246.64192 661.38462,246.64192 C 661.38462,246.64192 657.70128,242.15398 657.70128,247.50488 C 657.70128,252.85586 660.11844,250.95712 660.00336,250.95712 C 659.88828,250.95712 659.42784,255.61764 660.00336,255.79021 C 660.57888,255.96278 662.88102,256.82582 664.14714,256.48068 C 665.41332,256.13544 665.29824,255.09974 665.64354,254.92717 C 665.98884,254.75451 667.94562,253.54632 668.29098,254.06413 C 668.63628,254.58194 666.10392,257.86152 666.56436,257.86152 C 667.0248,257.86152 670.82328,257.86152 671.97432,256.48068 C 673.12536,255.09983 673.70089,253.02852 673.81602,253.20109 C 673.9311,253.37366 671.85924,257.34372 672.08941,257.34372 C 672.31962,257.34372 676.46346,258.03418 677.49937,257.51629 C 678.53533,256.99848 679.57128,255.2724 679.57128,255.2724 C 679.57128,255.2724 678.88063,257.34372 679.11085,257.51629 C 679.34107,257.68895 681.41298,257.86152 683.36976,256.82582 C 685.32655,255.79021 686.13229,254.92717 686.13229,254.92717 L 685.55677,257.34372 C 685.55677,257.34372 688.54951,257.17114 690.27607,255.2724 C 692.00268,253.37366 692.80842,253.20109 692.80842,253.20109 C 692.80842,253.20109 691.08181,256.13544 691.31203,256.13544 C 691.54225,256.13544 694.65007,255.96287 696.03133,255.2724 C 697.41265,254.58194 698.79391,254.06413 698.79391,254.06413 C 698.79391,254.06413 697.18243,256.48068 697.29751,256.48068 C 697.41265,256.48068 699.59965,256.65325 702.36217,255.61764 C 705.12491,254.58194 707.08147,253.37366 707.08147,253.37366 C 707.08147,253.37366 703.85851,256.82582 704.54922,256.82582 C 705.23994,256.82582 709.38366,256.99848 711.45525,255.79021 C 713.52739,254.58194 713.98805,253.37366 713.98805,253.37366 C 713.98805,253.37366 720.66402,253.71898 722.04545,252.16539 C 723.42632,250.61189 723.08124,249.9215 722.96621,250.09408 C 722.85119,250.26674 726.99491,251.12969 729.18153,251.64758 C 731.36869,252.16539 735.97308,252.33805 739.08101,251.47493 C 742.18839,250.61189 776.02947,230.7618 782.24534,231.10703 C 788.4612,231.45218 789.61202,233.69615 791.45356,233.5235 C 793.29564,233.35092 794.33144,232.4878 794.33144,232.66046 C 794.33144,232.83311 803.42463,243.18976 815.74078,242.49929 C 828.05749,241.80883 825.64027,240.77313 827.59683,240.60056 C 829.55339,240.42798 831.85558,242.32664 831.62553,244.05272 C 831.39547,245.77888 830.35913,246.81449 829.09328,246.98715 C 827.82688,247.15973 826.44601,248.368 826.44601,250.09408 C 826.44601,251.82016 827.82688,254.2367 829.32333,254.2367 C 830.81979,254.2367 831.28045,253.37366 831.74055,253.20109 C 832.20121,253.02852 832.66132,255.09983 834.61843,254.2367 C 836.57499,253.37366 837.15068,252.51062 837.61079,252.33805 C 838.07145,252.16539 841.06435,251.99273 841.06435,251.82016 C 841.06435,251.64758 841.29441,246.12403 841.29441,246.12403 C 841.29441,246.12403 844.51737,245.77888 844.51737,244.74318 C 844.51737,243.70757 843.36655,241.4636 842.67583,240.42798 C 841.98512,239.39228 841.17938,238.52924 841.17938,238.52924 C 841.17938,238.52924 843.36655,239.73752 843.82665,239.56486 C 844.28731,239.39228 845.32311,238.70182 845.32311,238.70182 C 845.32311,238.70182 843.82665,236.1127 842.67583,235.24966 C 841.52446,234.38662 838.76216,233.5235 838.76216,233.5235 C 838.76216,233.5235 840.37364,233.17835 841.63949,232.14265 C 842.90589,231.10703 844.05671,229.7261 844.05671,229.55344 C 844.05671,229.38087 840.60369,226.4466 837.95642,226.79175 C 835.30915,227.13698 831.62553,230.41657 827.13617,230.41657 C 822.64736,230.41657 817.81292,226.96432 817.81292,226.96432 C 817.81292,226.96432 824.37387,226.96432 827.36677,226.79175 C 830.35913,226.61918 836.80505,224.54786 836.80505,218.16127 C 836.80505,211.77467 831.85558,208.32243 819.88451,207.97728 C 807.91399,207.63205 783.67935,207.9677 776.11525,208.82359 C 763.85376,210.211 751.98787,209.20229 746.34769,209.20229 C 740.70751,209.20229 739.21106,207.99402 739.09603,205.23224 C 739.03575,203.78486 741.59948,203.28564 744.05342,203.06377 C 744.85023,202.99173 750.13588,201.69843 756.59843,201.71496 C 768.20998,201.74465 783.62093,203.12437 783.62093,202.96607 C 783.62093,202.44827 783.85099,201.7578 783.96601,201.7578 C 784.08104,201.7578 784.88678,203.82911 786.03815,204.00169 C 787.18897,204.17426 789.49116,203.65646 789.49116,203.65646 C 789.49116,203.65646 790.41193,205.20996 792.02341,205.03739 C 793.63489,204.86473 794.3256,203.65646 794.3256,203.65646 C 794.3256,203.65646 795.24637,204.86473 796.97288,204.69215 C 798.69994,204.51958 799.96578,202.27561 800.31142,202.27561 C 800.6565,202.27561 801.9229,202.62076 803.07372,201.93038 C 804.22454,201.23999 809.51964,196.06167 809.51964,196.06167 C 809.51964,196.06167 804.91525,197.26994 802.15295,197.26994 C 799.3901,197.26994 797.66359,195.71644 794.21058,196.23425 C 790.75756,196.75205 787.07394,198.30556 785.11738,198.13298 C 783.84803,198.02105 768.44916,196.55409 756.58958,196.44478 C 750.16376,196.38556 744.77698,197.63746 743.23976,197.63746 C 738.86598,197.63746 734.95231,201.95266 734.4922,206.95832 C 734.03154,211.96407 738.26145,211.90952 743.12473,214.55319 C 749.61873,218.08331 808.25907,212.98294 817.00718,213.32818 C 825.75529,213.67333 831.39547,214.36387 831.39547,218.16127 C 831.39547,221.95866 825.52469,222.13123 821.26593,221.95866 C 817.00718,221.78608 807.10825,220.06 799.85659,220.23258 C 792.60493,220.40515 745.98704,230.41657 737.58456,230.24391 C 729.18153,230.07134 724.00201,229.38087 724.00201,229.2083 C 724.00201,229.03572 703.85851,231.7975 703.85851,231.45218 z M 787.5346,200.89468 C 787.5346,200.89468 788.10974,202.62092 788.91548,203.31131 C 789.72122,204.00169 790.87259,204.86473 790.87259,204.86473 M 792.36904,201.41257 C 792.36904,201.41257 793.17478,201.58523 793.51986,202.27561 C 793.8655,202.96607 794.67124,203.82911 794.67124,203.82911 M 797.8942,200.54953 C 798.58436,200.54953 799.3901,202.62084 799.3901,202.62084"
   sodipodi:nodetypes="cscscscssssssssssscssccscsscsscsscssssssssssssssssscsscscscsssscssssssssssscscssscsssssssssssssccsccsccc" /><path
   style="fill:#f7d917;fill-opacity:1;fill-rule:evenodd;stroke:#000000;stroke-width:0.67720532pt;stroke-linecap:butt;stroke-linejoin:miter;stroke-opacity:1"
   sodipodi:nodetypes="ccccccccccccccccccccccccc"
   id="path554"
   d="M 696.29772,234.24987 C 696.46047,234.00573 696.94878,231.68679 697.35574,229.97804 C 697.7627,228.26929 698.49528,226.07226 698.49528,226.07226 C 698.49528,226.07226 696.86743,227.17073 696.94883,226.92668 C 697.03018,226.68253 696.62327,223.26504 697.51855,220.82394 C 698.41388,218.38294 699.30915,217.04032 699.30915,216.06391 C 699.30915,215.08743 698.41388,215.57571 698.41388,213.62282 C 698.41388,211.66993 698.00691,208.86263 699.06499,208.25244 C 700.12307,207.64216 703.37849,211.91399 703.37849,211.66993 C 703.37849,211.42587 702.64625,205.81134 704.02994,205.44521 C 705.41358,205.07908 707.36682,207.3981 707.36682,207.3981 C 707.36682,207.3981 708.01827,202.51592 708.50658,202.51592 C 708.99489,202.51592 710.29724,206.29963 710.29724,206.29963 C 710.29724,206.29963 711.59959,202.27186 712.0879,202.27186 C 712.57621,202.27186 714.04114,206.54369 714.04114,206.54369 C 714.04114,206.54369 714.77333,202.88213 715.7505,202.88213 C 716.72712,202.88213 717.45931,207.27603 717.45931,207.27603 C 717.45931,207.27603 718.11076,204.95701 719.00609,205.20115 C 719.90142,205.44521 720.63361,211.3038 720.63361,211.3038 C 720.63361,211.3038 722.99442,207.52009 724.54064,208.00829 C 726.08687,208.49658 724.54064,213.50083 724.62194,215.6977 C 724.70323,217.89465 726.16871,218.99321 726.25001,220.57989 C 726.3313,222.16656 726.3313,232.05292 726.25001,232.05292 C 726.16816,232.05292 709.89022,238.39963 708.01827,238.0335 C 706.14632,237.66736 696.37912,234.49393 696.29772,234.24987 z " /><path
   style="fill:#f7d917;fill-opacity:1;fill-rule:evenodd;stroke:#000000;stroke-width:0.67720532pt;stroke-linecap:butt;stroke-linejoin:miter;stroke-opacity:1"
   sodipodi:nodetypes="ccccccccccccccccccccccccccccccccccccccccc"
   id="path552"
   d="M 704.95182,223.34141 C 703.80044,226.19126 699.36921,234.21769 698.44833,235.59854 C 697.52751,236.97939 695.22542,239.0507 695.22542,239.0507 C 695.22542,239.0507 696.14625,241.12193 697.75773,240.77678 C 699.36921,240.43155 701.67129,238.015 701.67129,238.015 C 701.67129,238.015 699.08153,241.03386 698.27579,242.67361 C 697.47005,244.31344 696.9521,247.07522 696.9521,247.07522 C 696.9521,247.07522 700.17506,246.98889 702.13184,244.57235 C 704.08856,242.15589 705.35496,240.17082 705.29745,240.17082 C 705.23994,240.17082 703.39785,243.01901 703.51288,245.09024 C 703.62846,247.16147 703.22531,248.88763 703.28288,248.88763 C 703.34034,248.88763 705.64253,247.42045 706.67832,246.21218 C 707.71467,245.00391 709.32615,242.24213 709.32615,242.24213 C 709.32615,242.24213 708.75046,245.7807 709.09554,247.42045 C 709.44118,249.06021 710.36194,251.39042 710.30443,251.39042 C 710.24692,251.39042 711.91591,250.26848 712.77916,247.76569 C 713.64242,245.26281 713.92998,243.27783 713.92998,243.27783 C 713.92998,243.27783 714.2181,246.72999 715.13887,247.93826 C 716.05964,249.14653 720.20336,248.88763 720.20336,248.88763 C 720.20336,248.88763 718.76442,248.36974 718.30431,245.9532 C 717.84366,243.53673 718.0162,240.68871 718.0162,240.68871 C 718.0162,240.68871 719.05254,243.88197 720.03082,244.2272 C 721.0091,244.57235 721.81484,243.53673 722.50555,244.2272 C 723.19627,244.91758 724.11703,247.2478 724.17455,247.16147 C 724.23206,247.07522 726.13111,245.86695 725.09531,242.9326 C 724.05952,239.99824 721.98738,239.82559 720.89407,237.92693 C 719.80022,236.02819 719.16757,233.09384 719.16757,233.0076 C 719.16757,232.92127 720.08833,237.23647 721.46976,238.18584 C 722.85063,239.13512 723.65637,240.17082 725.61349,240.25715 C 727.57005,240.34339 728.54833,241.81065 728.54833,243.01893 C 728.54833,244.2272 728.37579,245.00391 728.37579,245.00391 C 728.37579,245.00391 730.62047,244.4861 730.62047,241.03386 C 730.62047,237.5817 729.23904,236.20077 727.74259,235.68296 C 726.24613,235.16515 723.48383,234.21579 722.85063,233.18017 C 722.21743,232.14447 722.04489,231.10886 722.04489,231.10886 C 722.04489,231.10886 722.27495,233.00751 723.54135,233.61165 C 724.80775,234.21579 726.47674,235.42406 727.62756,234.9925 C 728.77893,234.56102 731.77129,230.24573 731.77129,230.24573 C 731.77129,230.24573 729.00899,229.72801 726.13111,228.51974 C 723.25378,227.31138 722.58685,223.08616 722.58685,223.08616 L 704.95182,223.34141 z " /><path
   style="fill:none;fill-opacity:1;fill-rule:evenodd;stroke:#000000;stroke-width:0.67720532pt;stroke-linecap:butt;stroke-linejoin:miter;stroke-opacity:1"
   id="path568"
   d="M 708.99489,237.30115 C 708.99489,237.30115 710.21539,235.34843 712.16919,235.22627 C 714.12243,235.1042 716.3201,237.78944 716.3201,237.78944" /><path
   style="fill:#0139ab;fill-opacity:1;fill-rule:evenodd;stroke:#000000;stroke-width:0.67720532pt;stroke-linecap:butt;stroke-linejoin:miter;stroke-opacity:1"
   id="path566"
   d="M 710.78544,229.00153 C 710.78544,229.36766 710.0527,231.32055 710.21584,234.12777 C 710.37843,236.93499 712.5761,239.00987 712.5761,239.00987 C 712.5761,239.00987 714.93636,237.54527 715.01765,234.0057 C 715.09894,230.46613 714.69193,228.51333 714.69193,228.51333 L 710.78544,229.00153 z " /><path
   style="fill:none;fill-opacity:1;fill-rule:evenodd;stroke:#000000;stroke-width:0.84650666;stroke-linecap:round;stroke-linejoin:miter;stroke-opacity:1"
   id="path567"
   d="M 712.73856,229.12365 C 712.73856,229.12365 712.82041,235.47044 712.73856,235.47044" /><path
   style="fill:#fdd400;fill-opacity:0.996081;fill-rule:evenodd;stroke:#000000;stroke-width:0.67720532pt;stroke-linecap:butt;stroke-linejoin:miter;stroke-opacity:1"
   sodipodi:nodetypes="ccccccccccc"
   id="path553"
   d="M 701.0998,221.55629 C 701.18121,221.55629 702.48344,222.41062 702.48344,224.72964 C 702.48344,227.04866 703.05321,230.10003 704.84398,230.10003 C 706.63463,230.10003 707.36682,228.75741 707.44812,228.87948 C 707.52996,229.00155 708.66917,232.66311 710.45983,232.17491 C 712.25048,231.68671 712.82009,228.87948 712.82009,228.87948 C 712.82009,228.87948 713.79671,232.54104 715.18034,232.17491 C 716.56398,231.80878 717.37802,228.51335 717.37802,228.51335 C 717.37802,228.51335 718.51778,230.58823 719.73828,230.22202 C 720.95933,229.85589 721.93595,228.39136 722.42426,226.8046 C 722.91257,225.21784 723.07571,222.28863 722.99442,222.28863" /><path
   style="fill:none;fill-opacity:1;fill-rule:evenodd;stroke:#000000;stroke-width:0.67720532pt;stroke-linecap:butt;stroke-linejoin:miter;stroke-opacity:1"
   id="path555"
   d="M 710.21539,215.2095 C 710.21539,215.2095 711.76217,222.28863 708.09957,222.16656 C 704.43696,222.04449 706.30891,218.87105 705.16915,218.74907 C 704.02994,218.627 703.46034,218.74907 703.46034,218.74907" /><path
   style="fill:none;fill-opacity:1;fill-rule:evenodd;stroke:#000000;stroke-width:0.67720532pt;stroke-linecap:butt;stroke-linejoin:miter;stroke-opacity:1"
   id="path556"
   d="M 713.47153,214.59923 C 713.47153,214.59923 712.57621,222.77684 715.58736,222.16656 C 718.59907,221.55629 719.33126,218.38294 719.33126,218.38294" /><path
   style="fill:#000000;fill-opacity:0.99607801;fill-rule:evenodd;stroke:none;stroke-width:1pt;stroke-linecap:butt;stroke-linejoin:miter;stroke-opacity:1"
   sodipodi:nodetypes="ccccc"
   id="path557"
   d="M 700.12307,210.20533 C 700.12307,210.20533 700.53003,213.62291 701.34396,215.69778 C 702.15783,217.77266 702.809,217.40637 703.54163,217.77258 C 703.54163,216.30789 703.54163,215.6977 702.64625,213.74481 C 701.75098,211.792 700.12307,210.44939 700.12307,210.20533 z " /><path
   style="fill:#000000;fill-opacity:0.99607801;fill-rule:evenodd;stroke:none;stroke-width:1pt;stroke-linecap:butt;stroke-linejoin:miter;stroke-opacity:1"
   id="path558"
   d="M 721.28505,217.28438 C 721.28505,217.16239 720.95933,214.7213 721.85466,212.52435 C 722.74999,210.32731 723.72661,209.8392 723.72661,209.8392 C 723.72661,209.8392 723.88919,211.792 723.2383,213.74489 C 722.5874,215.6977 721.52893,217.65059 721.28505,217.28438 z " /><path
   style="fill:none;fill-opacity:1;fill-rule:evenodd;stroke:#000000;stroke-width:0.67720532pt;stroke-linecap:butt;stroke-linejoin:miter;stroke-opacity:1"
   sodipodi:nodetypes="cc"
   id="path559"
   d="M 705.90189,217.77258 C 706.30891,217.77258 707.93643,215.08735 709.88967,217.77258" /><path
   style="fill:none;fill-opacity:1;fill-rule:evenodd;stroke:#000000;stroke-width:0.67720532pt;stroke-linecap:butt;stroke-linejoin:miter;stroke-opacity:1"
   sodipodi:nodetypes="cc"
   id="path560"
   d="M 714.61074,217.16239 C 716.64583,214.96544 718.84295,217.65059 718.84295,217.65059" /><path
   style="font-size:12px;fill:none;fill-rule:evenodd;stroke:#000000;stroke-width:0.75692601pt"
   id="path570"
   d="M 709.6458,219.35925 C 709.6458,220.10044 708.89817,220.70183 707.97751,220.70183 C 707.05625,220.70183 706.30862,220.10044 706.30862,219.35925 C 706.30862,218.61815 707.05625,218.01667 707.97751,218.01667 C 708.89817,218.01667 709.6458,218.61815 709.6458,219.35925 z " /><path
   style="font-size:12px;fill:none;fill-rule:evenodd;stroke:#000000;stroke-width:0.74763823pt"
   id="path571"
   d="M 718.19203,219.11515 C 718.19203,219.85634 717.46264,220.45773 716.56443,220.45773 C 715.66564,220.45773 714.93624,219.85634 714.93624,219.11515 C 714.93624,218.37405 715.66564,217.77257 716.56443,217.77257 C 717.46264,217.77257 718.19203,218.37405 718.19203,219.11515 z " /><path
   style="fill:none;fill-opacity:1;fill-rule:evenodd;stroke:#000000;stroke-width:0.67720532pt;stroke-linecap:butt;stroke-linejoin:miter;stroke-opacity:1"
   id="path564"
   d="M 707.93643,217.65059 C 707.93643,217.77258 708.01827,220.82394 708.01827,220.82394" /><path
   style="fill:none;fill-opacity:1;fill-rule:evenodd;stroke:#000000;stroke-width:0.67720532pt;stroke-linecap:butt;stroke-linejoin:miter;stroke-opacity:1"
   id="path565"
   d="M 716.4014,217.52852 L 716.48269,220.57989" /><path
   transform="matrix(0.487401,0,0,0.718722,654.5065,190.9849)"
   style="fill:#000000;fill-opacity:1;fill-rule:evenodd;stroke:none;stroke-width:1pt;stroke-linecap:butt;stroke-linejoin:miter;stroke-opacity:1"
   sodipodi:type="arc"
   sodipodi:ry="3.3115389"
   sodipodi:rx="4.3417702"
   sodipodi:cy="49.413345"
   sodipodi:cx="119.14111"
   id="path569"
   d="M 123.4829 49.41335 A 4.34177 3.311539 0 1 0 114.7993 49.41335 A 4.34177 3.311539 0 1 0  123.4829 49.41335 z" /><path
   style="fill:none;fill-opacity:1;fill-rule:evenodd;stroke:#000000;stroke-width:0.67720532pt;stroke-linecap:butt;stroke-linejoin:miter;stroke-opacity:1"
   id="path574"
   d="M 836.11489,246.46926 C 836.11489,246.46926 835.76925,248.368 836.22991,249.40361 C 836.69002,250.43931 837.72637,252.51062 837.72637,252.51062" /><path
   style="fill:none;fill-opacity:1;fill-rule:evenodd;stroke:#000000;stroke-width:0.67720532pt;stroke-linecap:butt;stroke-linejoin:miter;stroke-opacity:1"
   id="path575"
   d="M 833.00695,248.02277 C 833.00695,248.02277 831.28045,249.9215 831.39547,251.12978 C 831.5105,252.33805 831.97061,253.54624 831.97061,253.54624" /><path
   style="fill:none;fill-opacity:1;fill-rule:evenodd;stroke:#000000;stroke-width:0.67720532pt;stroke-linecap:butt;stroke-linejoin:miter;stroke-opacity:1"
   id="path576"
   d="M 838.87719,244.05272 C 841.06435,244.74318 841.06435,246.46926 841.06435,246.46926" /><path
   style="fill:none;fill-opacity:1;fill-rule:evenodd;stroke:#000000;stroke-width:0.67720532pt;stroke-linecap:butt;stroke-linejoin:miter;stroke-opacity:1"
   id="path580"
   d="M 762.10184,249.23104 C 761.64118,249.40361 759.79965,250.78446 759.79965,250.78446" /><path
   style="fill:none;fill-opacity:1;fill-rule:evenodd;stroke:#000000;stroke-width:0.67720532pt;stroke-linecap:butt;stroke-linejoin:miter;stroke-opacity:1"
   id="path581"
   d="M 765.43982,251.82016 C 764.86414,252.16539 764.289,251.64758 764.0584,253.37366 C 763.82835,255.09983 764.40403,255.96278 764.40403,255.96278" /><path
   style="fill:none;fill-opacity:1;fill-rule:evenodd;stroke:#000000;stroke-width:0.67720532pt;stroke-linecap:butt;stroke-linejoin:miter;stroke-opacity:1"
   id="path582"
   d="M 770.38929,252.51062 C 770.50432,252.51062 771.19503,253.37366 771.19503,254.2367 C 771.19503,255.09983 770.73492,256.13544 770.73492,256.13544" /><path
   style="fill:none;fill-opacity:1;fill-rule:evenodd;stroke:#000000;stroke-width:0.67720532pt;stroke-linecap:butt;stroke-linejoin:miter;stroke-opacity:1"
   sodipodi:nodetypes="cc"
   id="path586"
   d="M 660.9242,248.71317 C 660.80912,248.71317 660.00338,249.74886 660.00338,250.95714" /><path
   style="fill:none;fill-opacity:1;fill-rule:evenodd;stroke:#000000;stroke-width:0.67720532pt;stroke-linecap:butt;stroke-linejoin:miter;stroke-opacity:1"
   sodipodi:nodetypes="cc"
   id="path588"
   d="M 794.60518,232.98603 C 793.46376,231.69143 792.42133,229.85448 792.42133,229.85448" /></g><g
   transform="translate(0,-70)"
   id="g3025"><path
   d="M 832.62925,250.11373 C 832.62925,253.04294 833.28069,255.97232 833.60642,256.94873 C 833.93159,257.92521 834.09473,259.14568 834.09473,259.14568 C 834.09473,259.14568 835.23394,257.43701 835.23394,255.48412 C 835.23394,253.53123 834.90821,250.84599 834.90821,250.84599"
   id="path3027"
   style="fill:#0139ab;fill-opacity:1;fill-rule:evenodd;stroke:#000000;stroke-width:0.67720532pt;stroke-linecap:butt;stroke-linejoin:miter;stroke-opacity:1" /><path
   d="M 826.76952,250.11373 C 826.76952,250.35779 825.79235,251.57834 825.95548,253.77529 C 826.11807,255.97232 826.60638,257.68099 826.60638,257.43693 C 826.60638,257.19287 826.60638,255.23998 827.74614,254.01943 C 828.88535,252.79889 830.676,252.06662 830.676,252.06662"
   id="path3029"
   style="fill:#0139ab;fill-opacity:1;fill-rule:evenodd;stroke:#000000;stroke-width:0.67720532pt;stroke-linecap:butt;stroke-linejoin:miter;stroke-opacity:1" /><path
   d="M 825.62976,244.98741 C 821.88586,249.13725 823.18821,251.33428 823.18821,251.33428 C 823.18821,251.33428 823.35079,250.35779 824.65314,250.35779 C 825.95548,250.35779 828.39704,251.57834 828.39704,251.57834"
   id="path3031"
   style="fill:#0139ab;fill-opacity:1;fill-rule:evenodd;stroke:#000000;stroke-width:0.67720532pt;stroke-linecap:butt;stroke-linejoin:miter;stroke-opacity:1" /><path
   d="M 766.37663,253.77529 C 766.0509,257.68107 767.19011,260.12216 767.19011,260.12216 C 767.19011,260.12216 768.49246,258.90162 768.32987,255.72818 C 768.16673,252.55474 767.35325,250.84599 767.35325,250.84599"
   id="path3033"
   style="fill:#0139ab;fill-opacity:1;fill-rule:evenodd;stroke:#000000;stroke-width:0.67720532pt;stroke-linecap:butt;stroke-linejoin:miter;stroke-opacity:1" /><path
   d="M 760.51635,251.33428 C 760.35321,251.33428 759.05087,252.55474 758.07424,253.77529 C 757.09762,254.99583 757.26021,256.94873 757.26021,256.94873 C 757.26021,256.94873 760.19063,254.99575 761.16725,255.23998 C 762.14387,255.48412 762.63218,256.46044 762.63218,256.46044"
   id="path3035"
   style="fill:#0139ab;fill-opacity:1;fill-rule:evenodd;stroke:#000000;stroke-width:0.67720532pt;stroke-linecap:butt;stroke-linejoin:miter;stroke-opacity:1" /><path
   d="M 761.49297,245.23155 C 758.72569,244.011 756.7719,246.69624 756.93504,246.69624 C 757.09762,246.69624 759.70232,246.69624 760.19063,248.16084 C 760.67894,249.62545 761.98128,251.33428 761.98128,251.33428"
   id="path3037"
   style="fill:#0139ab;fill-opacity:1;fill-rule:evenodd;stroke:#000000;stroke-width:0.67720532pt;stroke-linecap:butt;stroke-linejoin:miter;stroke-opacity:1" /><path
   d="M 767.51584,242.30226 C 767.19011,242.30226 767.19011,240.34936 765.72518,240.10531 C 764.26025,239.86116 763.12049,241.32585 763.12049,241.32585 C 763.12049,241.32585 766.21349,244.25515 766.37663,244.25515 C 766.53921,244.25515 767.51584,242.79046 767.51584,242.30226 z "
   id="path3039"
   style="fill:#0139ab;fill-opacity:1;fill-rule:evenodd;stroke:#000000;stroke-width:0.67720532pt;stroke-linecap:butt;stroke-linejoin:miter;stroke-opacity:1" /><path
   d="M 670.19025,210.47816 C 670.42047,208.40677 669.90246,205.04094 669.90246,205.04094 C 669.90246,205.04094 670.93842,204.86828 671.97438,206.42178 C 673.01034,207.97529 672.5499,210.47816 672.5499,210.47816"
   id="path3041"
   style="fill:#0139ab;fill-opacity:1;fill-rule:evenodd;stroke:#000000;stroke-width:0.67720532pt;stroke-linecap:butt;stroke-linejoin:miter;stroke-opacity:1" /><path
   d="M 664.1472,209.70137 C 664.37742,205.47241 662.59329,204.35047 662.53572,204.35047 C 662.47815,204.35047 664.20477,203.57368 665.35581,204.35047 C 666.50685,205.12718 666.96729,209.01099 666.96729,209.01099"
   id="path3043"
   style="fill:#0139ab;fill-opacity:1;fill-rule:evenodd;stroke:#000000;stroke-width:0.67720532pt;stroke-linecap:butt;stroke-linejoin:miter;stroke-opacity:1" /><path
   d="M 659.19768,210.99597 C 657.81636,207.19858 656.55024,208.06162 656.55024,208.06162 C 656.55024,208.06162 657.5862,206.59444 659.02497,207.02592 C 660.4638,207.4574 661.72998,209.44246 661.72998,209.35614"
   id="path3045"
   style="fill:#0139ab;fill-opacity:1;fill-rule:evenodd;stroke:#000000;stroke-width:0.67720532pt;stroke-linecap:butt;stroke-linejoin:miter;stroke-opacity:1" /><path
   d="M 660.57894,219.45388 C 659.31276,220.48949 658.96746,220.92105 657.9315,220.66215 C 656.89554,220.40325 656.0898,220.31692 656.0898,220.31692 C 656.0898,220.31692 656.72289,217.29615 657.52863,216.951 C 658.33437,216.60577 659.7732,216.6921 659.7732,216.6921"
   id="path3047"
   style="fill:#0139ab;fill-opacity:1;fill-rule:evenodd;stroke:#000000;stroke-width:0.67720532pt;stroke-linecap:butt;stroke-linejoin:miter;stroke-opacity:1" /><path
   d="M 664.31078,238.39656 C 664.31078,236.44367 663.49686,235.46726 663.49686,235.46726 C 663.49686,235.46726 664.63639,234.24663 665.77588,235.95538 C 666.91536,237.66421 667.40367,240.34936 667.40367,240.34936 L 667.40367,240.34936"
   id="path3049"
   style="fill:#0139ab;fill-opacity:1;fill-rule:evenodd;stroke:#000000;stroke-width:0.67720532pt;stroke-linecap:butt;stroke-linejoin:miter;stroke-opacity:1" /><path
   d="M 659.60055,241.11646 C 659.54298,241.11646 659.02497,239.6492 658.2768,239.13139 C 657.52863,238.61367 656.83797,238.52734 657.06819,238.52734 C 657.29841,238.52734 657.06819,237.49164 658.67967,237.49164 C 660.29115,237.49164 661.32711,238.26835 661.32711,238.26835"
   id="path3051"
   style="fill:#0139ab;fill-opacity:1;fill-rule:evenodd;stroke:#000000;stroke-width:0.67720532pt;stroke-linecap:butt;stroke-linejoin:miter;stroke-opacity:1" /><path
   d="M 658.96746,245.51807 C 655.45671,245.17284 655.11141,248.36609 655.22649,248.45234 C 655.34163,248.53867 656.66532,249.48795 657.47106,249.57436 C 658.2768,249.66069 658.96746,249.57436 658.96746,249.57436"
   id="path3053"
   style="fill:#0139ab;fill-opacity:1;fill-rule:evenodd;stroke:#000000;stroke-width:0.67720532pt;stroke-linecap:butt;stroke-linejoin:miter;stroke-opacity:1" /><path
   d="M 660.57894,252.94028 C 658.79481,256.65134 659.14011,258.63641 659.31276,258.63641 C 659.48541,258.63641 660.1185,258.1186 661.03932,257.0829 C 661.9602,256.04729 662.59329,254.06222 662.59329,254.06222"
   id="path3055"
   style="fill:#0139ab;fill-opacity:1;fill-rule:evenodd;stroke:#000000;stroke-width:0.67720532pt;stroke-linecap:butt;stroke-linejoin:miter;stroke-opacity:1" /><path
   d="M 662.03181,244.98741 C 662.19462,244.98741 662.84574,237.17601 665.1247,237.66421 C 667.40367,238.15242 666.5898,238.1525 667.40367,238.64062 C 668.2176,239.12882 669.84544,244.49921 669.84544,244.49921"
   id="path3057"
   sodipodi:nodetypes="cccc"
   style="fill:#fdd400;fill-opacity:1;fill-rule:evenodd;stroke:#000000;stroke-width:0.67720532pt;stroke-linecap:butt;stroke-linejoin:miter;stroke-opacity:1" /><path
   d="M 826.44601,249.57627 C 826.10037,249.23104 823.4531,247.15964 824.83453,245.43356 C 826.2154,243.70757 834.38838,245.08833 834.38838,245.08833"
   id="path3059"
   sodipodi:nodetypes="ccc"
   style="fill:#fdd400;fill-opacity:1;fill-rule:evenodd;stroke:#000000;stroke-width:0.67720532pt;stroke-linecap:butt;stroke-linejoin:miter;stroke-opacity:1" /><path
   d="M 772.69148,249.05846 C 771.77072,248.54057 770.73492,248.368 769.58355,245.60622 C 768.43273,242.84444 769.12344,242.84444 768.66278,242.15398 C 768.20268,241.4636 767.28136,241.80891 765.66988,242.32664 C 764.0584,242.84444 764.51906,248.368 764.51906,248.368"
   id="path3061"
   style="fill:#fdd400;fill-opacity:1;fill-rule:evenodd;stroke:#000000;stroke-width:0.67720532pt;stroke-linecap:butt;stroke-linejoin:miter;stroke-opacity:1" /><path
   d="M 786.38906,226.61918 C 785.4683,227.13698 777.52592,232.83303 777.75598,235.94004 C 777.98658,239.04705 782.82102,240.77313 782.706,242.67187 C 782.59042,244.57061 778.10161,245.95145 773.95788,246.12403 C 769.81416,246.29669 768.66278,247.33238 766.24556,246.64192 C 763.82835,245.95145 760.26031,242.49921 759.56959,246.46926 C 758.87888,250.43931 759.79965,250.61189 759.79965,250.61189 C 759.79965,250.61189 759.22451,252.6832 759.79965,254.40936 C 760.37533,256.13544 760.95102,257.17114 762.44692,257.17114 C 763.94337,257.17114 764.40403,255.79021 764.40403,255.79021 C 764.40403,255.79021 764.63409,257.51629 767.28136,257.68895 C 769.92918,257.86152 770.73492,255.96278 770.84995,255.96278 C 770.96498,255.96278 773.15214,256.65333 774.18794,256.3081 C 775.22373,255.96278 776.60516,255.09983 776.60516,255.09983 C 776.60516,255.09983 775.45434,257.51629 775.56936,257.51629 C 775.68439,257.51629 777.87156,257.34363 780.1732,256.82582 C 782.47539,256.3081 784.2019,254.06413 784.08687,254.06413 C 783.97184,254.06413 782.13031,257.17106 785.00764,256.99848 C 787.88552,256.82582 789.26694,253.54624 791.33853,253.89147 C 793.41067,254.2367 794.56149,253.54624 794.56149,253.54624 C 794.56149,253.54624 795.13718,252.16539 795.82789,251.47493 C 796.5186,250.78446 797.32434,250.61189 797.32434,250.61189 C 797.32434,250.61189 799.16588,250.26674 799.16588,250.09408 C 799.16588,249.9215 799.16588,245.77888 799.16588,245.77888 C 799.16588,245.77888 796.17297,245.43365 796.17297,242.32664 C 796.17297,239.21971 804.23037,235.94004 804.23037,235.94004 L 786.38906,226.61918 z "
   id="path3063"
   style="fill:#f7d917;fill-opacity:1;fill-rule:evenodd;stroke:#000000;stroke-width:0.67720532pt;stroke-linecap:butt;stroke-linejoin:miter;stroke-opacity:1" /><path
   d="M 670.13262,224.54778 C 670.59306,210.39382 673.12536,216.26253 673.12536,213.1556 C 673.12536,210.04859 672.08941,207.97728 671.28367,207.97728 C 669.44202,207.97728 664.8378,213.84598 664.8378,213.84598"
   id="path3065"
   sodipodi:nodetypes="cccc"
   style="fill:#fdd400;fill-opacity:1;fill-rule:evenodd;stroke:#000000;stroke-width:0.67720532pt;stroke-linecap:butt;stroke-linejoin:miter;stroke-opacity:1" /><path
   d="M 702.24703,234.21396 C 701.09593,233.69707 683.25463,230.07225 677.26915,226.62 C 671.28367,223.16784 668.75136,217.64429 668.29093,214.88259 C 667.83049,212.12082 668.98158,207.63304 665.5284,207.63304 C 662.07523,207.63304 663.91692,212.12082 663.91692,212.12082 C 663.91692,212.12082 661.1544,204.87126 659.08248,209.01389 C 657.01062,213.15651 661.61484,216.26352 661.61484,216.26352 C 661.61484,216.26352 657.16038,213.48234 658.27674,217.98952 C 660.15312,225.5649 663.22632,222.82261 663.6867,224.54869 C 664.14714,226.27485 661.38462,228.00093 661.84506,228.34617 C 662.30544,228.6914 664.14714,229.89959 665.29818,230.24482 C 666.44928,230.59014 668.06071,231.10786 668.06071,231.10786 L 666.33414,233.17835 C 666.33414,233.17835 669.5571,236.63051 671.16858,237.49355 C 672.78006,238.35667 674.85198,237.49355 674.73684,237.49355 C 674.62176,237.49355 671.7441,239.39228 671.7441,239.39228 C 671.7441,239.39228 673.35558,240.77305 675.08215,241.11836 C 676.80876,241.4636 678.30511,241.63617 678.30511,241.63617 L 676.46346,242.84444 L 701.32621,250.26674 L 702.24703,234.21396 z "
   id="path3067"
   sodipodi:nodetypes="cccccccsccccccccccccc"
   style="fill:#f7d917;fill-opacity:1;fill-rule:evenodd;stroke:#000000;stroke-width:0.67720532pt;stroke-linecap:butt;stroke-linejoin:miter;stroke-opacity:1" /><path
   sodipodi:nodetypes="cscscscssssssssssscssccscsscsscsscssssssssssssssssscsscscscsssscsssssssssssscscssscssssssssssssssccsccsccc"
   d="M 703.85851,231.45218 C 703.28299,231.62484 692.69329,243.18976 681.52807,243.70757 C 670.36284,244.22529 664.03206,243.36225 664.03206,243.36225 C 664.03206,243.36225 662.42058,235.42215 659.65806,239.04705 C 656.89554,242.67187 659.08254,244.05272 659.08254,244.05272 C 659.08254,244.05272 659.54292,243.88014 660.23358,244.74318 C 660.92418,245.60622 661.38462,246.64192 661.38462,246.64192 C 661.38462,246.64192 657.70128,242.15398 657.70128,247.50488 C 657.70128,252.85586 660.11844,250.95712 660.00336,250.95712 C 659.88828,250.95712 659.42784,255.61764 660.00336,255.79021 C 660.57888,255.96278 662.88102,256.82582 664.14714,256.48068 C 665.41332,256.13544 665.29824,255.09974 665.64354,254.92717 C 665.98884,254.75451 667.94562,253.54632 668.29098,254.06413 C 668.63628,254.58194 666.10392,257.86152 666.56436,257.86152 C 667.0248,257.86152 670.82328,257.86152 671.97432,256.48068 C 673.12536,255.09983 673.70089,253.02852 673.81602,253.20109 C 673.9311,253.37366 671.85924,257.34372 672.08941,257.34372 C 672.31962,257.34372 676.46346,258.03418 677.49937,257.51629 C 678.53533,256.99848 679.57128,255.2724 679.57128,255.2724 C 679.57128,255.2724 678.88063,257.34372 679.11085,257.51629 C 679.34107,257.68895 681.41298,257.86152 683.36976,256.82582 C 685.32655,255.79021 686.13229,254.92717 686.13229,254.92717 L 685.55677,257.34372 C 685.55677,257.34372 688.54951,257.17114 690.27607,255.2724 C 692.00268,253.37366 692.80842,253.20109 692.80842,253.20109 C 692.80842,253.20109 691.08181,256.13544 691.31203,256.13544 C 691.54225,256.13544 694.65007,255.96287 696.03133,255.2724 C 697.41265,254.58194 698.79391,254.06413 698.79391,254.06413 C 698.79391,254.06413 697.18243,256.48068 697.29751,256.48068 C 697.41265,256.48068 699.59965,256.65325 702.36217,255.61764 C 705.12491,254.58194 707.08147,253.37366 707.08147,253.37366 C 707.08147,253.37366 703.85851,256.82582 704.54922,256.82582 C 705.23994,256.82582 709.38366,256.99848 711.45525,255.79021 C 713.52739,254.58194 713.98805,253.37366 713.98805,253.37366 C 713.98805,253.37366 720.66402,253.71898 722.04545,252.16539 C 723.42632,250.61189 723.08124,249.9215 722.96621,250.09408 C 722.85119,250.26674 726.99491,251.12969 729.18153,251.64758 C 731.36869,252.16539 735.97308,252.33805 739.08101,251.47493 C 742.18839,250.61189 776.02947,230.7618 782.24534,231.10703 C 788.4612,231.45218 789.61202,233.69615 791.45356,233.5235 C 793.29564,233.35092 794.33144,232.4878 794.33144,232.66046 C 794.33144,232.83311 803.42463,243.18976 815.74078,242.49929 C 828.05749,241.80883 825.64027,240.77313 827.59683,240.60056 C 829.55339,240.42798 831.85558,242.32664 831.62553,244.05272 C 831.39547,245.77888 830.35913,246.81449 829.09328,246.98715 C 827.82688,247.15973 826.44601,248.368 826.44601,250.09408 C 826.44601,251.82016 827.82688,254.2367 829.32333,254.2367 C 830.81979,254.2367 831.28045,253.37366 831.74055,253.20109 C 832.20121,253.02852 832.66132,255.09983 834.61843,254.2367 C 836.57499,253.37366 837.15068,252.51062 837.61079,252.33805 C 838.07145,252.16539 841.06435,251.99273 841.06435,251.82016 C 841.06435,251.64758 841.29441,246.12403 841.29441,246.12403 C 841.29441,246.12403 844.51737,245.77888 844.51737,244.74318 C 844.51737,243.70757 843.36655,241.4636 842.67583,240.42798 C 841.98512,239.39228 841.17938,238.52924 841.17938,238.52924 C 841.17938,238.52924 843.36655,239.73752 843.82665,239.56486 C 844.28731,239.39228 845.32311,238.70182 845.32311,238.70182 C 845.32311,238.70182 843.82665,236.1127 842.67583,235.24966 C 841.52446,234.38662 838.76216,233.5235 838.76216,233.5235 C 838.76216,233.5235 840.37364,233.17835 841.63949,232.14265 C 842.90589,231.10703 844.05671,229.7261 844.05671,229.55344 C 844.05671,229.38087 840.60369,226.4466 837.95642,226.79175 C 835.30915,227.13698 831.62553,230.41657 827.13617,230.41657 C 822.64736,230.41657 817.81292,226.96432 817.81292,226.96432 C 817.81292,226.96432 824.37387,226.96432 827.36677,226.79175 C 830.35913,226.61918 836.80505,224.54786 836.80505,218.16127 C 836.80505,211.77467 831.85558,208.32243 819.88451,207.97728 C 807.91399,207.63205 783.67935,207.9677 776.11525,208.82359 C 763.85376,210.211 751.98787,209.20229 746.34769,209.20229 C 740.70751,209.20229 739.21106,207.99402 739.09603,205.23224 C 739.03575,203.78486 741.59948,203.28564 744.05342,203.06377 C 744.85023,202.99173 750.13586,201.71496 756.59843,201.71496 C 767.0853,201.71496 779.16019,202.7102 790.59985,202.70087 C 802.03952,202.69155 808.16287,201.69251 808.16287,201.61336 C 808.16287,201.09556 808.39293,200.40509 808.50795,200.40509 C 808.62298,200.40509 809.42872,202.4764 810.58009,202.64898 C 811.73091,202.82155 814.0331,202.30375 814.0331,202.30375 C 814.0331,202.30375 814.95387,203.85725 816.56535,203.68468 C 818.17683,203.51202 818.86754,202.30375 818.86754,202.30375 C 818.86754,202.30375 819.78831,203.51202 821.51482,203.33944 C 823.24188,203.16687 824.50772,200.9229 824.85336,200.9229 C 825.19844,200.9229 826.46484,201.26805 827.61566,200.57767 C 828.76648,199.88728 834.06158,194.70896 834.06158,194.70896 C 834.06158,194.70896 829.45719,195.91723 826.69489,195.91723 C 823.93204,195.91723 822.20553,194.36373 818.75252,194.88154 C 815.2995,195.39934 811.61588,196.95285 809.65932,196.78027 C 809.02464,196.7243 802.58698,197.63398 790.96066,197.57776 C 779.33434,197.52154 767.7397,196.44478 756.58958,196.44478 C 750.16349,196.44478 744.77698,197.63746 743.23976,197.63746 C 738.86598,197.63746 734.95231,201.95266 734.4922,206.95832 C 734.03154,211.96407 738.26145,211.90952 743.12473,214.55319 C 749.61873,218.08331 808.25907,212.98294 817.00718,213.32818 C 825.75529,213.67333 831.39547,214.36387 831.39547,218.16127 C 831.39547,221.95866 825.52469,222.13123 821.26593,221.95866 C 817.00718,221.78608 807.10825,220.06 799.85659,220.23258 C 792.60493,220.40515 745.98704,230.41657 737.58456,230.24391 C 729.18153,230.07134 724.00201,229.38087 724.00201,229.2083 C 724.00201,229.03572 703.85851,231.7975 703.85851,231.45218 z M 812.07654,199.54197 C 812.07654,199.54197 812.65168,201.26821 813.45742,201.9586 C 814.26316,202.64898 815.41453,203.51202 815.41453,203.51202 M 816.91098,200.05986 C 816.91098,200.05986 817.71672,200.23252 818.0618,200.9229 C 818.40744,201.61336 819.21318,202.4764 819.21318,202.4764 M 822.43614,199.19682 C 823.1263,199.19682 823.93204,201.26813 823.93204,201.26813"
   style="fill:#f7d917;fill-opacity:1;fill-rule:evenodd;stroke:#000000;stroke-width:0.67720532pt;stroke-linecap:butt;stroke-linejoin:miter;stroke-opacity:1"
   id="path3069" /><path
   d="M 696.29772,234.24987 C 696.46047,234.00573 696.94878,231.68679 697.35574,229.97804 C 697.7627,228.26929 698.49528,226.07226 698.49528,226.07226 C 698.49528,226.07226 696.86743,227.17073 696.94883,226.92668 C 697.03018,226.68253 696.62327,223.26504 697.51855,220.82394 C 698.41388,218.38294 699.30915,217.04032 699.30915,216.06391 C 699.30915,215.08743 698.41388,215.57571 698.41388,213.62282 C 698.41388,211.66993 698.00691,208.86263 699.06499,208.25244 C 700.12307,207.64216 703.37849,211.91399 703.37849,211.66993 C 703.37849,211.42587 702.64625,205.81134 704.02994,205.44521 C 705.41358,205.07908 707.36682,207.3981 707.36682,207.3981 C 707.36682,207.3981 708.01827,202.51592 708.50658,202.51592 C 708.99489,202.51592 710.29724,206.29963 710.29724,206.29963 C 710.29724,206.29963 711.59959,202.27186 712.0879,202.27186 C 712.57621,202.27186 714.04114,206.54369 714.04114,206.54369 C 714.04114,206.54369 714.77333,202.88213 715.7505,202.88213 C 716.72712,202.88213 717.45931,207.27603 717.45931,207.27603 C 717.45931,207.27603 718.11076,204.95701 719.00609,205.20115 C 719.90142,205.44521 720.63361,211.3038 720.63361,211.3038 C 720.63361,211.3038 722.99442,207.52009 724.54064,208.00829 C 726.08687,208.49658 724.54064,213.50083 724.62194,215.6977 C 724.70323,217.89465 726.16871,218.99321 726.25001,220.57989 C 726.3313,222.16656 726.3313,232.05292 726.25001,232.05292 C 726.16816,232.05292 709.89022,238.39963 708.01827,238.0335 C 706.14632,237.66736 696.37912,234.49393 696.29772,234.24987 z "
   id="path3071"
   sodipodi:nodetypes="ccccccccccccccccccccccccc"
   style="fill:#f7d917;fill-opacity:1;fill-rule:evenodd;stroke:#000000;stroke-width:0.67720532pt;stroke-linecap:butt;stroke-linejoin:miter;stroke-opacity:1" /><path
   d="M 704.95182,223.34141 C 703.80044,226.19126 699.36921,234.21769 698.44833,235.59854 C 697.52751,236.97939 695.22542,239.0507 695.22542,239.0507 C 695.22542,239.0507 696.14625,241.12193 697.75773,240.77678 C 699.36921,240.43155 701.67129,238.015 701.67129,238.015 C 701.67129,238.015 699.08153,241.03386 698.27579,242.67361 C 697.47005,244.31344 696.9521,247.07522 696.9521,247.07522 C 696.9521,247.07522 700.17506,246.98889 702.13184,244.57235 C 704.08856,242.15589 705.35496,240.17082 705.29745,240.17082 C 705.23994,240.17082 703.39785,243.01901 703.51288,245.09024 C 703.62846,247.16147 703.22531,248.88763 703.28288,248.88763 C 703.34034,248.88763 705.64253,247.42045 706.67832,246.21218 C 707.71467,245.00391 709.32615,242.24213 709.32615,242.24213 C 709.32615,242.24213 708.75046,245.7807 709.09554,247.42045 C 709.44118,249.06021 710.36194,251.39042 710.30443,251.39042 C 710.24692,251.39042 711.91591,250.26848 712.77916,247.76569 C 713.64242,245.26281 713.92998,243.27783 713.92998,243.27783 C 713.92998,243.27783 714.2181,246.72999 715.13887,247.93826 C 716.05964,249.14653 720.20336,248.88763 720.20336,248.88763 C 720.20336,248.88763 718.76442,248.36974 718.30431,245.9532 C 717.84366,243.53673 718.0162,240.68871 718.0162,240.68871 C 718.0162,240.68871 719.05254,243.88197 720.03082,244.2272 C 721.0091,244.57235 721.81484,243.53673 722.50555,244.2272 C 723.19627,244.91758 724.11703,247.2478 724.17455,247.16147 C 724.23206,247.07522 726.13111,245.86695 725.09531,242.9326 C 724.05952,239.99824 721.98738,239.82559 720.89407,237.92693 C 719.80022,236.02819 719.16757,233.09384 719.16757,233.0076 C 719.16757,232.92127 720.08833,237.23647 721.46976,238.18584 C 722.85063,239.13512 723.65637,240.17082 725.61349,240.25715 C 727.57005,240.34339 728.54833,241.81065 728.54833,243.01893 C 728.54833,244.2272 728.37579,245.00391 728.37579,245.00391 C 728.37579,245.00391 730.62047,244.4861 730.62047,241.03386 C 730.62047,237.5817 729.23904,236.20077 727.74259,235.68296 C 726.24613,235.16515 723.48383,234.21579 722.85063,233.18017 C 722.21743,232.14447 722.04489,231.10886 722.04489,231.10886 C 722.04489,231.10886 722.27495,233.00751 723.54135,233.61165 C 724.80775,234.21579 726.47674,235.42406 727.62756,234.9925 C 728.77893,234.56102 731.77129,230.24573 731.77129,230.24573 C 731.77129,230.24573 729.00899,229.72801 726.13111,228.51974 C 723.25378,227.31138 722.58685,223.08616 722.58685,223.08616 L 704.95182,223.34141 z "
   id="path3073"
   sodipodi:nodetypes="ccccccccccccccccccccccccccccccccccccccccc"
   style="fill:#f7d917;fill-opacity:1;fill-rule:evenodd;stroke:#000000;stroke-width:0.67720532pt;stroke-linecap:butt;stroke-linejoin:miter;stroke-opacity:1" /><path
   d="M 708.99489,237.30115 C 708.99489,237.30115 710.21539,235.34843 712.16919,235.22627 C 714.12243,235.1042 716.3201,237.78944 716.3201,237.78944"
   id="path3075"
   style="fill:none;fill-opacity:1;fill-rule:evenodd;stroke:#000000;stroke-width:0.67720532pt;stroke-linecap:butt;stroke-linejoin:miter;stroke-opacity:1" /><path
   d="M 710.78544,229.00153 C 710.78544,229.36766 710.0527,231.32055 710.21584,234.12777 C 710.37843,236.93499 712.5761,239.00987 712.5761,239.00987 C 712.5761,239.00987 714.93636,237.54527 715.01765,234.0057 C 715.09894,230.46613 714.69193,228.51333 714.69193,228.51333 L 710.78544,229.00153 z "
   id="path3077"
   style="fill:#0139ab;fill-opacity:1;fill-rule:evenodd;stroke:#000000;stroke-width:0.67720532pt;stroke-linecap:butt;stroke-linejoin:miter;stroke-opacity:1" /><path
   d="M 712.73856,229.12365 C 712.73856,229.12365 712.82041,235.47044 712.73856,235.47044"
   id="path3079"
   style="fill:none;fill-opacity:1;fill-rule:evenodd;stroke:#000000;stroke-width:0.84650666;stroke-linecap:round;stroke-linejoin:miter;stroke-opacity:1" /><path
   d="M 701.0998,221.55629 C 701.18121,221.55629 702.48344,222.41062 702.48344,224.72964 C 702.48344,227.04866 703.05321,230.10003 704.84398,230.10003 C 706.63463,230.10003 707.36682,228.75741 707.44812,228.87948 C 707.52996,229.00155 708.66917,232.66311 710.45983,232.17491 C 712.25048,231.68671 712.82009,228.87948 712.82009,228.87948 C 712.82009,228.87948 713.79671,232.54104 715.18034,232.17491 C 716.56398,231.80878 717.37802,228.51335 717.37802,228.51335 C 717.37802,228.51335 718.51778,230.58823 719.73828,230.22202 C 720.95933,229.85589 721.93595,228.39136 722.42426,226.8046 C 722.91257,225.21784 723.07571,222.28863 722.99442,222.28863"
   id="path3081"
   sodipodi:nodetypes="ccccccccccc"
   style="fill:#fdd400;fill-opacity:0.996081;fill-rule:evenodd;stroke:#000000;stroke-width:0.67720532pt;stroke-linecap:butt;stroke-linejoin:miter;stroke-opacity:1" /><path
   d="M 710.21539,215.2095 C 710.21539,215.2095 711.76217,222.28863 708.09957,222.16656 C 704.43696,222.04449 706.30891,218.87105 705.16915,218.74907 C 704.02994,218.627 703.46034,218.74907 703.46034,218.74907"
   id="path3083"
   style="fill:none;fill-opacity:1;fill-rule:evenodd;stroke:#000000;stroke-width:0.67720532pt;stroke-linecap:butt;stroke-linejoin:miter;stroke-opacity:1" /><path
   d="M 713.47153,214.59923 C 713.47153,214.59923 712.57621,222.77684 715.58736,222.16656 C 718.59907,221.55629 719.33126,218.38294 719.33126,218.38294"
   id="path3085"
   style="fill:none;fill-opacity:1;fill-rule:evenodd;stroke:#000000;stroke-width:0.67720532pt;stroke-linecap:butt;stroke-linejoin:miter;stroke-opacity:1" /><path
   d="M 700.12307,210.20533 C 700.12307,210.20533 700.53003,213.62291 701.34396,215.69778 C 702.15783,217.77266 702.809,217.40637 703.54163,217.77258 C 703.54163,216.30789 703.54163,215.6977 702.64625,213.74481 C 701.75098,211.792 700.12307,210.44939 700.12307,210.20533 z "
   id="path3087"
   sodipodi:nodetypes="ccccc"
   style="fill:#000000;fill-opacity:0.99607801;fill-rule:evenodd;stroke:none;stroke-width:1pt;stroke-linecap:butt;stroke-linejoin:miter;stroke-opacity:1" /><path
   d="M 721.28505,217.28438 C 721.28505,217.16239 720.95933,214.7213 721.85466,212.52435 C 722.74999,210.32731 723.72661,209.8392 723.72661,209.8392 C 723.72661,209.8392 723.88919,211.792 723.2383,213.74489 C 722.5874,215.6977 721.52893,217.65059 721.28505,217.28438 z "
   id="path3089"
   style="fill:#000000;fill-opacity:0.99607801;fill-rule:evenodd;stroke:none;stroke-width:1pt;stroke-linecap:butt;stroke-linejoin:miter;stroke-opacity:1" /><path
   d="M 705.90189,217.77258 C 706.30891,217.77258 707.93643,215.08735 709.88967,217.77258"
   id="path3091"
   sodipodi:nodetypes="cc"
   style="fill:none;fill-opacity:1;fill-rule:evenodd;stroke:#000000;stroke-width:0.67720532pt;stroke-linecap:butt;stroke-linejoin:miter;stroke-opacity:1" /><path
   d="M 714.61074,217.16239 C 716.64583,214.96544 718.84295,217.65059 718.84295,217.65059"
   id="path3093"
   sodipodi:nodetypes="cc"
   style="fill:none;fill-opacity:1;fill-rule:evenodd;stroke:#000000;stroke-width:0.67720532pt;stroke-linecap:butt;stroke-linejoin:miter;stroke-opacity:1" /><path
   d="M 709.6458,219.35925 C 709.6458,220.10044 708.89817,220.70183 707.97751,220.70183 C 707.05625,220.70183 706.30862,220.10044 706.30862,219.35925 C 706.30862,218.61815 707.05625,218.01667 707.97751,218.01667 C 708.89817,218.01667 709.6458,218.61815 709.6458,219.35925 z "
   id="path3095"
   style="font-size:12px;fill:none;fill-rule:evenodd;stroke:#000000;stroke-width:0.75692601pt" /><path
   d="M 718.19203,219.11515 C 718.19203,219.85634 717.46264,220.45773 716.56443,220.45773 C 715.66564,220.45773 714.93624,219.85634 714.93624,219.11515 C 714.93624,218.37405 715.66564,217.77257 716.56443,217.77257 C 717.46264,217.77257 718.19203,218.37405 718.19203,219.11515 z "
   id="path3097"
   style="font-size:12px;fill:none;fill-rule:evenodd;stroke:#000000;stroke-width:0.74763823pt" /><path
   d="M 707.93643,217.65059 C 707.93643,217.77258 708.01827,220.82394 708.01827,220.82394"
   id="path3099"
   style="fill:none;fill-opacity:1;fill-rule:evenodd;stroke:#000000;stroke-width:0.67720532pt;stroke-linecap:butt;stroke-linejoin:miter;stroke-opacity:1" /><path
   d="M 716.4014,217.52852 L 716.48269,220.57989"
   id="path3101"
   style="fill:none;fill-opacity:1;fill-rule:evenodd;stroke:#000000;stroke-width:0.67720532pt;stroke-linecap:butt;stroke-linejoin:miter;stroke-opacity:1" /><path
   d="M 123.4829 49.41335 A 4.34177 3.311539 0 1 0 114.7993 49.41335 A 4.34177 3.311539 0 1 0  123.4829 49.41335 z"
   id="path3103"
   sodipodi:cx="119.14111"
   sodipodi:cy="49.413345"
   sodipodi:rx="4.3417702"
   sodipodi:ry="3.3115389"
   sodipodi:type="arc"
   style="fill:#000000;fill-opacity:1;fill-rule:evenodd;stroke:none;stroke-width:1pt;stroke-linecap:butt;stroke-linejoin:miter;stroke-opacity:1"
   transform="matrix(0.487401,0,0,0.718722,654.5065,190.9849)" /><path
   d="M 836.11489,246.46926 C 836.11489,246.46926 835.76925,248.368 836.22991,249.40361 C 836.69002,250.43931 837.72637,252.51062 837.72637,252.51062"
   id="path3105"
   style="fill:none;fill-opacity:1;fill-rule:evenodd;stroke:#000000;stroke-width:0.67720532pt;stroke-linecap:butt;stroke-linejoin:miter;stroke-opacity:1" /><path
   d="M 833.00695,248.02277 C 833.00695,248.02277 831.28045,249.9215 831.39547,251.12978 C 831.5105,252.33805 831.97061,253.54624 831.97061,253.54624"
   id="path3107"
   style="fill:none;fill-opacity:1;fill-rule:evenodd;stroke:#000000;stroke-width:0.67720532pt;stroke-linecap:butt;stroke-linejoin:miter;stroke-opacity:1" /><path
   d="M 838.87719,244.05272 C 841.06435,244.74318 841.06435,246.46926 841.06435,246.46926"
   id="path3109"
   style="fill:none;fill-opacity:1;fill-rule:evenodd;stroke:#000000;stroke-width:0.67720532pt;stroke-linecap:butt;stroke-linejoin:miter;stroke-opacity:1" /><path
   d="M 762.10184,249.23104 C 761.64118,249.40361 759.79965,250.78446 759.79965,250.78446"
   id="path3111"
   style="fill:none;fill-opacity:1;fill-rule:evenodd;stroke:#000000;stroke-width:0.67720532pt;stroke-linecap:butt;stroke-linejoin:miter;stroke-opacity:1" /><path
   d="M 765.43982,251.82016 C 764.86414,252.16539 764.289,251.64758 764.0584,253.37366 C 763.82835,255.09983 764.40403,255.96278 764.40403,255.96278"
   id="path3113"
   style="fill:none;fill-opacity:1;fill-rule:evenodd;stroke:#000000;stroke-width:0.67720532pt;stroke-linecap:butt;stroke-linejoin:miter;stroke-opacity:1" /><path
   d="M 770.38929,252.51062 C 770.50432,252.51062 771.19503,253.37366 771.19503,254.2367 C 771.19503,255.09983 770.73492,256.13544 770.73492,256.13544"
   id="path3115"
   style="fill:none;fill-opacity:1;fill-rule:evenodd;stroke:#000000;stroke-width:0.67720532pt;stroke-linecap:butt;stroke-linejoin:miter;stroke-opacity:1" /><path
   d="M 660.9242,248.71317 C 660.80912,248.71317 660.00338,249.74886 660.00338,250.95714"
   id="path3117"
   sodipodi:nodetypes="cc"
   style="fill:none;fill-opacity:1;fill-rule:evenodd;stroke:#000000;stroke-width:0.67720532pt;stroke-linecap:butt;stroke-linejoin:miter;stroke-opacity:1" /><path
   d="M 794.60518,232.98603 C 793.46376,231.69143 792.42133,229.85448 792.42133,229.85448"
   id="path3119"
   sodipodi:nodetypes="cc"
   style="fill:none;fill-opacity:1;fill-rule:evenodd;stroke:#000000;stroke-width:0.67720532pt;stroke-linecap:butt;stroke-linejoin:miter;stroke-opacity:1" /></g><g
   transform="translate(0,-5)"
   id="g3324"><path
   d="M 832.62925,315.11373 C 832.62925,318.04294 833.28069,320.97232 833.60642,321.94873 C 833.93159,322.92521 834.09473,324.14568 834.09473,324.14568 C 834.09473,324.14568 835.23394,322.43701 835.23394,320.48412 C 835.23394,318.53123 834.90821,315.84599 834.90821,315.84599"
   id="path3123"
   style="fill:#0139ab;fill-opacity:1;fill-rule:evenodd;stroke:#000000;stroke-width:0.67720532pt;stroke-linecap:butt;stroke-linejoin:miter;stroke-opacity:1" /><path
   d="M 826.76952,315.11373 C 826.76952,315.35779 825.79235,316.57834 825.95548,318.77529 C 826.11807,320.97232 826.60638,322.68099 826.60638,322.43693 C 826.60638,322.19287 826.60638,320.23998 827.74614,319.01943 C 828.88535,317.79889 830.676,317.06662 830.676,317.06662"
   id="path3125"
   style="fill:#0139ab;fill-opacity:1;fill-rule:evenodd;stroke:#000000;stroke-width:0.67720532pt;stroke-linecap:butt;stroke-linejoin:miter;stroke-opacity:1" /><path
   d="M 825.62976,309.98741 C 821.88586,314.13725 823.18821,316.33428 823.18821,316.33428 C 823.18821,316.33428 823.35079,315.35779 824.65314,315.35779 C 825.95548,315.35779 828.39704,316.57834 828.39704,316.57834"
   id="path3127"
   style="fill:#0139ab;fill-opacity:1;fill-rule:evenodd;stroke:#000000;stroke-width:0.67720532pt;stroke-linecap:butt;stroke-linejoin:miter;stroke-opacity:1" /><g
   id="g3293"
   transform="matrix(0.937215,-0.348752,0.348752,0.937215,-75.49739,302.3192)"><path
   style="fill:#0139ab;fill-opacity:1;fill-rule:evenodd;stroke:#000000;stroke-width:0.67720532pt;stroke-linecap:butt;stroke-linejoin:miter;stroke-opacity:1"
   id="path3129"
   d="M 766.37663,318.77529 C 766.0509,322.68107 767.19011,325.12216 767.19011,325.12216 C 767.19011,325.12216 768.49246,323.90162 768.32987,320.72818 C 768.16673,317.55474 767.35325,315.84599 767.35325,315.84599" /><path
   style="fill:#0139ab;fill-opacity:1;fill-rule:evenodd;stroke:#000000;stroke-width:0.67720532pt;stroke-linecap:butt;stroke-linejoin:miter;stroke-opacity:1"
   id="path3131"
   d="M 760.51635,316.33428 C 760.35321,316.33428 759.05087,317.55474 758.07424,318.77529 C 757.09762,319.99583 757.26021,321.94873 757.26021,321.94873 C 757.26021,321.94873 760.19063,319.99575 761.16725,320.23998 C 762.14387,320.48412 762.63218,321.46044 762.63218,321.46044" /><path
   style="fill:#0139ab;fill-opacity:1;fill-rule:evenodd;stroke:#000000;stroke-width:0.67720532pt;stroke-linecap:butt;stroke-linejoin:miter;stroke-opacity:1"
   id="path3133"
   d="M 761.49297,310.23155 C 758.72569,309.011 756.7719,311.69624 756.93504,311.69624 C 757.09762,311.69624 759.70232,311.69624 760.19063,313.16084 C 760.67894,314.62545 761.98128,316.33428 761.98128,316.33428" /><path
   style="fill:#0139ab;fill-opacity:1;fill-rule:evenodd;stroke:#000000;stroke-width:0.67720532pt;stroke-linecap:butt;stroke-linejoin:miter;stroke-opacity:1"
   id="path3135"
   d="M 767.51584,307.30226 C 767.19011,307.30226 767.19011,305.34936 765.72518,305.10531 C 764.26025,304.86116 763.12049,306.32585 763.12049,306.32585 C 763.12049,306.32585 766.21349,309.25515 766.37663,309.25515 C 766.53921,309.25515 767.51584,307.79046 767.51584,307.30226 z " /></g><path
   d="M 670.19025,275.47816 C 670.42047,273.40677 669.90246,270.04094 669.90246,270.04094 C 669.90246,270.04094 670.93842,269.86828 671.97438,271.42178 C 673.01034,272.97529 672.5499,275.47816 672.5499,275.47816"
   id="path3137"
   style="fill:#0139ab;fill-opacity:1;fill-rule:evenodd;stroke:#000000;stroke-width:0.67720532pt;stroke-linecap:butt;stroke-linejoin:miter;stroke-opacity:1" /><path
   d="M 664.1472,274.70137 C 664.37742,270.47241 662.59329,269.35047 662.53572,269.35047 C 662.47815,269.35047 664.20477,268.57368 665.35581,269.35047 C 666.50685,270.12718 666.96729,274.01099 666.96729,274.01099"
   id="path3139"
   style="fill:#0139ab;fill-opacity:1;fill-rule:evenodd;stroke:#000000;stroke-width:0.67720532pt;stroke-linecap:butt;stroke-linejoin:miter;stroke-opacity:1" /><path
   d="M 659.19768,275.99597 C 657.81636,272.19858 656.55024,273.06162 656.55024,273.06162 C 656.55024,273.06162 657.5862,271.59444 659.02497,272.02592 C 660.4638,272.4574 661.72998,274.44246 661.72998,274.35614"
   id="path3141"
   style="fill:#0139ab;fill-opacity:1;fill-rule:evenodd;stroke:#000000;stroke-width:0.67720532pt;stroke-linecap:butt;stroke-linejoin:miter;stroke-opacity:1" /><path
   d="M 660.57894,284.45388 C 659.31276,285.48949 658.96746,285.92105 657.9315,285.66215 C 656.89554,285.40325 656.0898,285.31692 656.0898,285.31692 C 656.0898,285.31692 656.72289,282.29615 657.52863,281.951 C 658.33437,281.60577 659.7732,281.6921 659.7732,281.6921"
   id="path3143"
   style="fill:#0139ab;fill-opacity:1;fill-rule:evenodd;stroke:#000000;stroke-width:0.67720532pt;stroke-linecap:butt;stroke-linejoin:miter;stroke-opacity:1" /><path
   d="M 664.31078,303.39656 C 664.31078,301.44367 663.49686,300.46726 663.49686,300.46726 C 663.49686,300.46726 664.63639,299.24663 665.77588,300.95538 C 666.91536,302.66421 667.40367,305.34936 667.40367,305.34936 L 667.40367,305.34936"
   id="path3145"
   style="fill:#0139ab;fill-opacity:1;fill-rule:evenodd;stroke:#000000;stroke-width:0.67720532pt;stroke-linecap:butt;stroke-linejoin:miter;stroke-opacity:1" /><path
   d="M 659.60055,306.11646 C 659.54298,306.11646 659.02497,304.6492 658.2768,304.13139 C 657.52863,303.61367 656.83797,303.52734 657.06819,303.52734 C 657.29841,303.52734 657.06819,302.49164 658.67967,302.49164 C 660.29115,302.49164 661.32711,303.26835 661.32711,303.26835"
   id="path3147"
   style="fill:#0139ab;fill-opacity:1;fill-rule:evenodd;stroke:#000000;stroke-width:0.67720532pt;stroke-linecap:butt;stroke-linejoin:miter;stroke-opacity:1" /><path
   d="M 658.96746,310.51807 C 655.45671,310.17284 655.11141,313.36609 655.22649,313.45234 C 655.34163,313.53867 656.66532,314.48795 657.47106,314.57436 C 658.2768,314.66069 658.96746,314.57436 658.96746,314.57436"
   id="path3149"
   style="fill:#0139ab;fill-opacity:1;fill-rule:evenodd;stroke:#000000;stroke-width:0.67720532pt;stroke-linecap:butt;stroke-linejoin:miter;stroke-opacity:1" /><path
   d="M 660.57894,317.94028 C 658.79481,321.65134 659.14011,323.63641 659.31276,323.63641 C 659.48541,323.63641 660.1185,323.1186 661.03932,322.0829 C 661.9602,321.04729 662.59329,319.06222 662.59329,319.06222"
   id="path3151"
   style="fill:#0139ab;fill-opacity:1;fill-rule:evenodd;stroke:#000000;stroke-width:0.67720532pt;stroke-linecap:butt;stroke-linejoin:miter;stroke-opacity:1" /><path
   d="M 662.03181,309.98741 C 662.19462,309.98741 662.84574,302.17601 665.1247,302.66421 C 667.40367,303.15242 666.5898,303.1525 667.40367,303.64062 C 668.2176,304.12882 669.84544,309.49921 669.84544,309.49921"
   id="path3153"
   sodipodi:nodetypes="cccc"
   style="fill:#fdd400;fill-opacity:1;fill-rule:evenodd;stroke:#000000;stroke-width:0.67720532pt;stroke-linecap:butt;stroke-linejoin:miter;stroke-opacity:1" /><path
   d="M 826.44601,314.57627 C 826.10037,314.23104 823.4531,312.15964 824.83453,310.43356 C 826.2154,308.70757 834.38838,310.08833 834.38838,310.08833"
   id="path3155"
   sodipodi:nodetypes="ccc"
   style="fill:#fdd400;fill-opacity:1;fill-rule:evenodd;stroke:#000000;stroke-width:0.67720532pt;stroke-linecap:butt;stroke-linejoin:miter;stroke-opacity:1" /><path
   d="M 758.2092,327.18224 C 757.16563,327.01798 756.13468,327.21749 754.09242,325.03065 C 752.05068,322.84361 752.69803,322.60273 752.02549,322.11627 C 751.35351,321.6297 750.61046,322.27464 749.28071,323.32187 C 747.95099,324.36917 750.30908,329.38528 750.30908,329.38528"
   id="path3157"
   style="fill:#fdd400;fill-opacity:1;fill-rule:evenodd;stroke:#000000;stroke-width:0.67720532pt;stroke-linecap:butt;stroke-linejoin:miter;stroke-opacity:1" /><path
   style="fill:#f7d917;fill-opacity:1;fill-rule:evenodd;stroke:#000000;stroke-width:0.67720532pt;stroke-linecap:butt;stroke-linejoin:miter;stroke-opacity:1"
   d="M 768.75934,293.75959 C 768.5206,295.45323 752.58159,305.09734 758.38065,313.12121 C 760.20561,315.64632 764.81323,315.88441 765.36762,317.70405 C 765.92149,319.52389 762.19608,322.38351 758.3727,323.99039 C 754.54936,325.59734 753.83146,326.96955 751.32521,327.16545 C 748.81896,327.36134 744.27097,325.3702 745.00817,329.33188 C 745.74539,333.29356 746.66854,333.13419 746.66854,333.13419 C 746.66854,333.13419 746.85188,335.27603 747.99291,336.69323 C 749.13442,338.11017 750.03517,338.88007 751.43715,338.35838 C 752.83964,337.83649 752.78978,336.3816 752.78978,336.3816 C 752.78978,336.3816 753.60737,337.91908 756.14865,337.15766 C 758.69041,336.39596 758.78337,334.33543 758.89118,334.29531 C 758.99899,334.2552 761.28966,334.13961 762.14002,333.45482 C 762.99035,332.76995 763.98409,331.4794 763.98409,331.4794 C 763.98409,331.4794 763.74827,334.1455 763.85607,334.10538 C 763.96388,334.06527 765.95351,333.14067 767.93006,331.85267 C 769.90715,330.56456 770.74267,327.85936 770.63486,327.89947 C 770.52706,327.93959 769.88469,331.49369 772.52118,330.32847 C 775.15816,329.16299 775.30909,325.60754 777.37101,325.20863 C 779.43346,324.80952 780.27122,323.76106 780.27122,323.76106 C 780.27122,323.76106 780.32919,322.26613 780.73574,321.37814 C 781.14228,320.49013 781.83725,320.04739 781.83725,320.04739 C 781.83725,320.04739 783.4428,319.08167 783.38258,318.91985 C 783.32239,318.75811 781.87765,314.87558 781.87765,314.87558 C 781.87765,314.87558 777.00548,315.66857 777.86867,312.68387 C 780.94512,302.04632 809.17536,301.68094 807.01312,305.69652 C 805.52718,292.44022 790.29083,290.50779 768.75934,293.75959 z "
   id="path3159"
   sodipodi:nodetypes="cssssscsscssscssssscscscscc" /><path
   d="M 670.13262,289.54778 C 670.59306,275.39382 673.12536,281.26253 673.12536,278.1556 C 673.12536,275.04859 672.08941,272.97728 671.28367,272.97728 C 669.44202,272.97728 664.8378,278.84598 664.8378,278.84598"
   id="path3161"
   sodipodi:nodetypes="cccc"
   style="fill:#fdd400;fill-opacity:1;fill-rule:evenodd;stroke:#000000;stroke-width:0.67720532pt;stroke-linecap:butt;stroke-linejoin:miter;stroke-opacity:1" /><path
   d="M 702.24703,299.21396 C 701.09593,298.69707 683.25463,295.07225 677.26915,291.62 C 671.28367,288.16784 668.75136,282.64429 668.29093,279.88259 C 667.83049,277.12082 668.98158,272.63304 665.5284,272.63304 C 662.07523,272.63304 663.91692,277.12082 663.91692,277.12082 C 663.91692,277.12082 661.1544,269.87126 659.08248,274.01389 C 657.01062,278.15651 661.61484,281.26352 661.61484,281.26352 C 661.61484,281.26352 657.16038,278.48234 658.27674,282.98952 C 660.15312,290.5649 663.22632,287.82261 663.6867,289.54869 C 664.14714,291.27485 661.38462,293.00093 661.84506,293.34617 C 662.30544,293.6914 664.14714,294.89959 665.29818,295.24482 C 666.44928,295.59014 668.06071,296.10786 668.06071,296.10786 L 666.33414,298.17835 C 666.33414,298.17835 669.5571,301.63051 671.16858,302.49355 C 672.78006,303.35667 674.85198,302.49355 674.73684,302.49355 C 674.62176,302.49355 671.7441,304.39228 671.7441,304.39228 C 671.7441,304.39228 673.35558,305.77305 675.08215,306.11836 C 676.80876,306.4636 678.30511,306.63617 678.30511,306.63617 L 676.46346,307.84444 L 701.32621,315.26674 L 702.24703,299.21396 z "
   id="path3163"
   sodipodi:nodetypes="cccccccsccccccccccccc"
   style="fill:#f7d917;fill-opacity:1;fill-rule:evenodd;stroke:#000000;stroke-width:0.67720532pt;stroke-linecap:butt;stroke-linejoin:miter;stroke-opacity:1" /><path
   sodipodi:nodetypes="cscscscssssssssssscssccscsscsscsscssssssssssssssssscsscscscsssscssssssssssscscssscsssssssssssssccsccsccc"
   d="M 703.85851,296.45218 C 703.28299,296.62484 692.69329,308.18976 681.52807,308.70757 C 670.36284,309.22529 664.03206,308.36225 664.03206,308.36225 C 664.03206,308.36225 662.42058,300.42215 659.65806,304.04705 C 656.89554,307.67187 659.08254,309.05272 659.08254,309.05272 C 659.08254,309.05272 659.54292,308.88014 660.23358,309.74318 C 660.92418,310.60622 661.38462,311.64192 661.38462,311.64192 C 661.38462,311.64192 657.70128,307.15398 657.70128,312.50488 C 657.70128,317.85586 660.11844,315.95712 660.00336,315.95712 C 659.88828,315.95712 659.42784,320.61764 660.00336,320.79021 C 660.57888,320.96278 662.88102,321.82582 664.14714,321.48068 C 665.41332,321.13544 665.29824,320.09974 665.64354,319.92717 C 665.98884,319.75451 667.94562,318.54632 668.29098,319.06413 C 668.63628,319.58194 666.10392,322.86152 666.56436,322.86152 C 667.0248,322.86152 670.82328,322.86152 671.97432,321.48068 C 673.12536,320.09983 673.70089,318.02852 673.81602,318.20109 C 673.9311,318.37366 671.85924,322.34372 672.08941,322.34372 C 672.31962,322.34372 676.46346,323.03418 677.49937,322.51629 C 678.53533,321.99848 679.57128,320.2724 679.57128,320.2724 C 679.57128,320.2724 678.88063,322.34372 679.11085,322.51629 C 679.34107,322.68895 681.41298,322.86152 683.36976,321.82582 C 685.32655,320.79021 686.13229,319.92717 686.13229,319.92717 L 685.55677,322.34372 C 685.55677,322.34372 688.54951,322.17114 690.27607,320.2724 C 692.00268,318.37366 692.80842,318.20109 692.80842,318.20109 C 692.80842,318.20109 691.08181,321.13544 691.31203,321.13544 C 691.54225,321.13544 694.65007,320.96287 696.03133,320.2724 C 697.41265,319.58194 698.79391,319.06413 698.79391,319.06413 C 698.79391,319.06413 697.18243,321.48068 697.29751,321.48068 C 697.41265,321.48068 699.59965,321.65325 702.36217,320.61764 C 705.12491,319.58194 707.08147,318.37366 707.08147,318.37366 C 707.08147,318.37366 703.85851,321.82582 704.54922,321.82582 C 705.23994,321.82582 709.38366,321.99848 711.45525,320.79021 C 713.52739,319.58194 713.98805,318.37366 713.98805,318.37366 C 713.98805,318.37366 720.66402,318.71898 722.04545,317.16539 C 723.42632,315.61189 723.08124,314.9215 722.96621,315.09408 C 722.85119,315.26674 726.99491,316.12969 729.18153,316.64758 C 731.36869,317.16539 735.97308,317.33805 739.08101,316.47493 C 742.18839,315.61189 776.02947,295.7618 782.24534,296.10703 C 788.4612,296.45218 789.61202,298.69615 791.45356,298.5235 C 793.29564,298.35092 794.33144,297.4878 794.33144,297.66046 C 794.33144,297.83311 803.42463,308.18976 815.74078,307.49929 C 828.05749,306.80883 825.64027,305.77313 827.59683,305.60056 C 829.55339,305.42798 831.85558,307.32664 831.62553,309.05272 C 831.39547,310.77888 830.35913,311.81449 829.09328,311.98715 C 827.82688,312.15973 826.44601,313.368 826.44601,315.09408 C 826.44601,316.82016 827.82688,319.2367 829.32333,319.2367 C 830.81979,319.2367 831.28045,318.37366 831.74055,318.20109 C 832.20121,318.02852 832.66132,320.09983 834.61843,319.2367 C 836.57499,318.37366 837.15068,317.51062 837.61079,317.33805 C 838.07145,317.16539 841.06435,316.99273 841.06435,316.82016 C 841.06435,316.64758 841.29441,311.12403 841.29441,311.12403 C 841.29441,311.12403 844.51737,310.77888 844.51737,309.74318 C 844.51737,308.70757 843.36655,306.4636 842.67583,305.42798 C 841.98512,304.39228 841.17938,303.52924 841.17938,303.52924 C 841.17938,303.52924 843.36655,304.73752 843.82665,304.56486 C 844.28731,304.39228 845.32311,303.70182 845.32311,303.70182 C 845.32311,303.70182 843.82665,301.1127 842.67583,300.24966 C 841.52446,299.38662 838.76216,298.5235 838.76216,298.5235 C 838.76216,298.5235 840.37364,298.17835 841.63949,297.14265 C 842.90589,296.10703 844.05671,294.7261 844.05671,294.55344 C 844.05671,294.38087 840.60369,291.4466 837.95642,291.79175 C 835.30915,292.13698 831.62553,295.41657 827.13617,295.41657 C 822.64736,295.41657 817.81292,291.96432 817.81292,291.96432 C 817.81292,291.96432 824.37387,291.96432 827.36677,291.79175 C 830.35913,291.61918 836.80505,289.54786 836.80505,283.16127 C 836.80505,276.77467 831.85558,273.32243 819.88451,272.97728 C 807.91399,272.63205 783.67935,272.9677 776.11525,273.82359 C 763.85376,275.211 751.98787,274.20229 746.34769,274.20229 C 740.70751,274.20229 739.21106,272.99402 739.09603,270.23224 C 739.03575,268.78486 741.59948,268.28564 744.05342,268.06377 C 744.85023,267.99173 750.13588,266.69843 756.59843,266.71496 C 768.20998,266.74465 783.62093,268.12437 783.62093,267.96607 C 783.62093,267.44827 783.85099,266.7578 783.96601,266.7578 C 784.08104,266.7578 784.88678,268.82911 786.03815,269.00169 C 787.18897,269.17426 789.49116,268.65646 789.49116,268.65646 C 789.49116,268.65646 790.41193,270.20996 792.02341,270.03739 C 793.63489,269.86473 794.3256,268.65646 794.3256,268.65646 C 794.3256,268.65646 795.24637,269.86473 796.97288,269.69215 C 798.69994,269.51958 799.96578,267.27561 800.31142,267.27561 C 800.6565,267.27561 801.9229,267.62076 803.07372,266.93038 C 804.22454,266.23999 809.51964,261.06167 809.51964,261.06167 C 809.51964,261.06167 804.91525,262.26994 802.15295,262.26994 C 799.3901,262.26994 797.66359,260.71644 794.21058,261.23425 C 790.75756,261.75205 787.07394,263.30556 785.11738,263.13298 C 783.84803,263.02105 768.44916,261.55409 756.58958,261.44478 C 750.16376,261.38556 744.77698,262.63746 743.23976,262.63746 C 738.86598,262.63746 734.95231,266.95266 734.4922,271.95832 C 734.03154,276.96407 738.26145,276.90952 743.12473,279.55319 C 749.61873,283.08331 808.25907,277.98294 817.00718,278.32818 C 825.75529,278.67333 831.39547,279.36387 831.39547,283.16127 C 831.39547,286.95866 825.52469,287.13123 821.26593,286.95866 C 817.00718,286.78608 807.10825,285.06 799.85659,285.23258 C 792.60493,285.40515 745.98704,295.41657 737.58456,295.24391 C 729.18153,295.07134 724.00201,294.38087 724.00201,294.2083 C 724.00201,294.03572 703.85851,296.7975 703.85851,296.45218 z M 787.5346,265.89468 C 787.5346,265.89468 788.10974,267.62092 788.91548,268.31131 C 789.72122,269.00169 790.87259,269.86473 790.87259,269.86473 M 792.36904,266.41257 C 792.36904,266.41257 793.17478,266.58523 793.51986,267.27561 C 793.8655,267.96607 794.67124,268.82911 794.67124,268.82911 M 797.8942,265.54953 C 798.58436,265.54953 799.3901,267.62084 799.3901,267.62084"
   style="fill:#f7d917;fill-opacity:1;fill-rule:evenodd;stroke:#000000;stroke-width:0.67720532pt;stroke-linecap:butt;stroke-linejoin:miter;stroke-opacity:1"
   id="path3165" /><path
   d="M 696.29772,299.24987 C 696.46047,299.00573 696.94878,296.68679 697.35574,294.97804 C 697.7627,293.26929 698.49528,291.07226 698.49528,291.07226 C 698.49528,291.07226 696.86743,292.17073 696.94883,291.92668 C 697.03018,291.68253 696.62327,288.26504 697.51855,285.82394 C 698.41388,283.38294 699.30915,282.04032 699.30915,281.06391 C 699.30915,280.08743 698.41388,280.57571 698.41388,278.62282 C 698.41388,276.66993 698.00691,273.86263 699.06499,273.25244 C 700.12307,272.64216 703.37849,276.91399 703.37849,276.66993 C 703.37849,276.42587 702.64625,270.81134 704.02994,270.44521 C 705.41358,270.07908 707.36682,272.3981 707.36682,272.3981 C 707.36682,272.3981 708.01827,267.51592 708.50658,267.51592 C 708.99489,267.51592 710.29724,271.29963 710.29724,271.29963 C 710.29724,271.29963 711.59959,267.27186 712.0879,267.27186 C 712.57621,267.27186 714.04114,271.54369 714.04114,271.54369 C 714.04114,271.54369 714.77333,267.88213 715.7505,267.88213 C 716.72712,267.88213 717.45931,272.27603 717.45931,272.27603 C 717.45931,272.27603 718.11076,269.95701 719.00609,270.20115 C 719.90142,270.44521 720.63361,276.3038 720.63361,276.3038 C 720.63361,276.3038 722.99442,272.52009 724.54064,273.00829 C 726.08687,273.49658 724.54064,278.50083 724.62194,280.6977 C 724.70323,282.89465 726.16871,283.99321 726.25001,285.57989 C 726.3313,287.16656 726.3313,297.05292 726.25001,297.05292 C 726.16816,297.05292 709.89022,303.39963 708.01827,303.0335 C 706.14632,302.66736 696.37912,299.49393 696.29772,299.24987 z "
   id="path3167"
   sodipodi:nodetypes="ccccccccccccccccccccccccc"
   style="fill:#f7d917;fill-opacity:1;fill-rule:evenodd;stroke:#000000;stroke-width:0.67720532pt;stroke-linecap:butt;stroke-linejoin:miter;stroke-opacity:1" /><path
   d="M 704.95182,288.34141 C 703.80044,291.19126 699.36921,299.21769 698.44833,300.59854 C 697.52751,301.97939 695.22542,304.0507 695.22542,304.0507 C 695.22542,304.0507 696.14625,306.12193 697.75773,305.77678 C 699.36921,305.43155 701.67129,303.015 701.67129,303.015 C 701.67129,303.015 699.08153,306.03386 698.27579,307.67361 C 697.47005,309.31344 696.9521,312.07522 696.9521,312.07522 C 696.9521,312.07522 700.17506,311.98889 702.13184,309.57235 C 704.08856,307.15589 705.35496,305.17082 705.29745,305.17082 C 705.23994,305.17082 703.39785,308.01901 703.51288,310.09024 C 703.62846,312.16147 703.22531,313.88763 703.28288,313.88763 C 703.34034,313.88763 705.64253,312.42045 706.67832,311.21218 C 707.71467,310.00391 709.32615,307.24213 709.32615,307.24213 C 709.32615,307.24213 708.75046,310.7807 709.09554,312.42045 C 709.44118,314.06021 710.36194,316.39042 710.30443,316.39042 C 710.24692,316.39042 711.91591,315.26848 712.77916,312.76569 C 713.64242,310.26281 713.92998,308.27783 713.92998,308.27783 C 713.92998,308.27783 714.2181,311.72999 715.13887,312.93826 C 716.05964,314.14653 720.20336,313.88763 720.20336,313.88763 C 720.20336,313.88763 718.76442,313.36974 718.30431,310.9532 C 717.84366,308.53673 718.0162,305.68871 718.0162,305.68871 C 718.0162,305.68871 719.05254,308.88197 720.03082,309.2272 C 721.0091,309.57235 721.81484,308.53673 722.50555,309.2272 C 723.19627,309.91758 724.11703,312.2478 724.17455,312.16147 C 724.23206,312.07522 726.13111,310.86695 725.09531,307.9326 C 724.05952,304.99824 721.98738,304.82559 720.89407,302.92693 C 719.80022,301.02819 719.16757,298.09384 719.16757,298.0076 C 719.16757,297.92127 720.08833,302.23647 721.46976,303.18584 C 722.85063,304.13512 723.65637,305.17082 725.61349,305.25715 C 727.57005,305.34339 728.54833,306.81065 728.54833,308.01893 C 728.54833,309.2272 728.37579,310.00391 728.37579,310.00391 C 728.37579,310.00391 730.62047,309.4861 730.62047,306.03386 C 730.62047,302.5817 729.23904,301.20077 727.74259,300.68296 C 726.24613,300.16515 723.48383,299.21579 722.85063,298.18017 C 722.21743,297.14447 722.04489,296.10886 722.04489,296.10886 C 722.04489,296.10886 722.27495,298.00751 723.54135,298.61165 C 724.80775,299.21579 726.47674,300.42406 727.62756,299.9925 C 728.77893,299.56102 731.77129,295.24573 731.77129,295.24573 C 731.77129,295.24573 729.00899,294.72801 726.13111,293.51974 C 723.25378,292.31138 722.58685,288.08616 722.58685,288.08616 L 704.95182,288.34141 z "
   id="path3169"
   sodipodi:nodetypes="ccccccccccccccccccccccccccccccccccccccccc"
   style="fill:#f7d917;fill-opacity:1;fill-rule:evenodd;stroke:#000000;stroke-width:0.67720532pt;stroke-linecap:butt;stroke-linejoin:miter;stroke-opacity:1" /><path
   d="M 708.99489,302.30115 C 708.99489,302.30115 710.21539,300.34843 712.16919,300.22627 C 714.12243,300.1042 716.3201,302.78944 716.3201,302.78944"
   id="path3171"
   style="fill:none;fill-opacity:1;fill-rule:evenodd;stroke:#000000;stroke-width:0.67720532pt;stroke-linecap:butt;stroke-linejoin:miter;stroke-opacity:1" /><path
   d="M 710.78544,294.00153 C 710.78544,294.36766 710.0527,296.32055 710.21584,299.12777 C 710.37843,301.93499 712.5761,304.00987 712.5761,304.00987 C 712.5761,304.00987 714.93636,302.54527 715.01765,299.0057 C 715.09894,295.46613 714.69193,293.51333 714.69193,293.51333 L 710.78544,294.00153 z "
   id="path3173"
   style="fill:#0139ab;fill-opacity:1;fill-rule:evenodd;stroke:#000000;stroke-width:0.67720532pt;stroke-linecap:butt;stroke-linejoin:miter;stroke-opacity:1" /><path
   d="M 712.73856,294.12365 C 712.73856,294.12365 712.82041,300.47044 712.73856,300.47044"
   id="path3175"
   style="fill:none;fill-opacity:1;fill-rule:evenodd;stroke:#000000;stroke-width:0.84650666;stroke-linecap:round;stroke-linejoin:miter;stroke-opacity:1" /><path
   d="M 701.0998,286.55629 C 701.18121,286.55629 702.48344,287.41062 702.48344,289.72964 C 702.48344,292.04866 703.05321,295.10003 704.84398,295.10003 C 706.63463,295.10003 707.36682,293.75741 707.44812,293.87948 C 707.52996,294.00155 708.66917,297.66311 710.45983,297.17491 C 712.25048,296.68671 712.82009,293.87948 712.82009,293.87948 C 712.82009,293.87948 713.79671,297.54104 715.18034,297.17491 C 716.56398,296.80878 717.37802,293.51335 717.37802,293.51335 C 717.37802,293.51335 718.51778,295.58823 719.73828,295.22202 C 720.95933,294.85589 721.93595,293.39136 722.42426,291.8046 C 722.91257,290.21784 723.07571,287.28863 722.99442,287.28863"
   id="path3177"
   sodipodi:nodetypes="ccccccccccc"
   style="fill:#fdd400;fill-opacity:0.996081;fill-rule:evenodd;stroke:#000000;stroke-width:0.67720532pt;stroke-linecap:butt;stroke-linejoin:miter;stroke-opacity:1" /><path
   d="M 710.21539,280.2095 C 710.21539,280.2095 711.76217,287.28863 708.09957,287.16656 C 704.43696,287.04449 706.30891,283.87105 705.16915,283.74907 C 704.02994,283.627 703.46034,283.74907 703.46034,283.74907"
   id="path3179"
   style="fill:none;fill-opacity:1;fill-rule:evenodd;stroke:#000000;stroke-width:0.67720532pt;stroke-linecap:butt;stroke-linejoin:miter;stroke-opacity:1" /><path
   d="M 713.47153,279.59923 C 713.47153,279.59923 712.57621,287.77684 715.58736,287.16656 C 718.59907,286.55629 719.33126,283.38294 719.33126,283.38294"
   id="path3181"
   style="fill:none;fill-opacity:1;fill-rule:evenodd;stroke:#000000;stroke-width:0.67720532pt;stroke-linecap:butt;stroke-linejoin:miter;stroke-opacity:1" /><path
   d="M 700.12307,275.20533 C 700.12307,275.20533 700.53003,278.62291 701.34396,280.69778 C 702.15783,282.77266 702.809,282.40637 703.54163,282.77258 C 703.54163,281.30789 703.54163,280.6977 702.64625,278.74481 C 701.75098,276.792 700.12307,275.44939 700.12307,275.20533 z "
   id="path3183"
   sodipodi:nodetypes="ccccc"
   style="fill:#000000;fill-opacity:0.99607801;fill-rule:evenodd;stroke:none;stroke-width:1pt;stroke-linecap:butt;stroke-linejoin:miter;stroke-opacity:1" /><path
   d="M 721.28505,282.28438 C 721.28505,282.16239 720.95933,279.7213 721.85466,277.52435 C 722.74999,275.32731 723.72661,274.8392 723.72661,274.8392 C 723.72661,274.8392 723.88919,276.792 723.2383,278.74489 C 722.5874,280.6977 721.52893,282.65059 721.28505,282.28438 z "
   id="path3185"
   style="fill:#000000;fill-opacity:0.99607801;fill-rule:evenodd;stroke:none;stroke-width:1pt;stroke-linecap:butt;stroke-linejoin:miter;stroke-opacity:1" /><path
   d="M 705.90189,282.77258 C 706.30891,282.77258 707.93643,280.08735 709.88967,282.77258"
   id="path3187"
   sodipodi:nodetypes="cc"
   style="fill:none;fill-opacity:1;fill-rule:evenodd;stroke:#000000;stroke-width:0.67720532pt;stroke-linecap:butt;stroke-linejoin:miter;stroke-opacity:1" /><path
   d="M 714.61074,282.16239 C 716.64583,279.96544 718.84295,282.65059 718.84295,282.65059"
   id="path3189"
   sodipodi:nodetypes="cc"
   style="fill:none;fill-opacity:1;fill-rule:evenodd;stroke:#000000;stroke-width:0.67720532pt;stroke-linecap:butt;stroke-linejoin:miter;stroke-opacity:1" /><path
   d="M 709.6458,284.35925 C 709.6458,285.10044 708.89817,285.70183 707.97751,285.70183 C 707.05625,285.70183 706.30862,285.10044 706.30862,284.35925 C 706.30862,283.61815 707.05625,283.01667 707.97751,283.01667 C 708.89817,283.01667 709.6458,283.61815 709.6458,284.35925 z "
   id="path3191"
   style="font-size:12px;fill:none;fill-rule:evenodd;stroke:#000000;stroke-width:0.75692601pt" /><path
   d="M 718.19203,284.11515 C 718.19203,284.85634 717.46264,285.45773 716.56443,285.45773 C 715.66564,285.45773 714.93624,284.85634 714.93624,284.11515 C 714.93624,283.37405 715.66564,282.77257 716.56443,282.77257 C 717.46264,282.77257 718.19203,283.37405 718.19203,284.11515 z "
   id="path3193"
   style="font-size:12px;fill:none;fill-rule:evenodd;stroke:#000000;stroke-width:0.74763823pt" /><path
   d="M 707.93643,282.65059 C 707.93643,282.77258 708.01827,285.82394 708.01827,285.82394"
   id="path3195"
   style="fill:none;fill-opacity:1;fill-rule:evenodd;stroke:#000000;stroke-width:0.67720532pt;stroke-linecap:butt;stroke-linejoin:miter;stroke-opacity:1" /><path
   d="M 716.4014,282.52852 L 716.48269,285.57989"
   id="path3197"
   style="fill:none;fill-opacity:1;fill-rule:evenodd;stroke:#000000;stroke-width:0.67720532pt;stroke-linecap:butt;stroke-linejoin:miter;stroke-opacity:1" /><path
   d="M 123.4829 49.41335 A 4.34177 3.311539 0 1 0 114.7993 49.41335 A 4.34177 3.311539 0 1 0  123.4829 49.41335 z"
   id="path3199"
   sodipodi:cx="119.14111"
   sodipodi:cy="49.413345"
   sodipodi:rx="4.3417702"
   sodipodi:ry="3.3115389"
   sodipodi:type="arc"
   style="fill:#000000;fill-opacity:1;fill-rule:evenodd;stroke:none;stroke-width:1pt;stroke-linecap:butt;stroke-linejoin:miter;stroke-opacity:1"
   transform="matrix(0.487401,0,0,0.718722,654.5065,255.9849)" /><path
   d="M 836.11489,311.46926 C 836.11489,311.46926 835.76925,313.368 836.22991,314.40361 C 836.69002,315.43931 837.72637,317.51062 837.72637,317.51062"
   id="path3201"
   style="fill:none;fill-opacity:1;fill-rule:evenodd;stroke:#000000;stroke-width:0.67720532pt;stroke-linecap:butt;stroke-linejoin:miter;stroke-opacity:1" /><path
   d="M 833.00695,313.02277 C 833.00695,313.02277 831.28045,314.9215 831.39547,316.12978 C 831.5105,317.33805 831.97061,318.54624 831.97061,318.54624"
   id="path3203"
   style="fill:none;fill-opacity:1;fill-rule:evenodd;stroke:#000000;stroke-width:0.67720532pt;stroke-linecap:butt;stroke-linejoin:miter;stroke-opacity:1" /><path
   d="M 838.87719,309.05272 C 841.06435,309.74318 841.06435,311.46926 841.06435,311.46926"
   id="path3205"
   style="fill:none;fill-opacity:1;fill-rule:evenodd;stroke:#000000;stroke-width:0.67720532pt;stroke-linecap:butt;stroke-linejoin:miter;stroke-opacity:1" /><path
   d="M 748.34461,331.03714 C 747.97306,331.35953 746.72872,333.29592 746.72872,333.29592"
   id="path3207"
   style="fill:none;fill-opacity:1;fill-rule:evenodd;stroke:#000000;stroke-width:0.67720532pt;stroke-linecap:butt;stroke-linejoin:miter;stroke-opacity:1" /><path
   d="M 752.37598,332.29958 C 751.95684,332.8239 751.23722,332.53918 751.62307,334.23731 C 752.00947,335.93534 752.84996,336.54334 752.84996,336.54334"
   id="path3209"
   style="fill:none;fill-opacity:1;fill-rule:evenodd;stroke:#000000;stroke-width:0.67720532pt;stroke-linecap:butt;stroke-linejoin:miter;stroke-opacity:1" /><path
   d="M 757.25549,331.22055 C 757.3633,331.18043 758.31163,331.7484 758.61262,332.55726 C 758.91364,333.3662 758.84359,334.49725 758.84359,334.49725"
   id="path3211"
   style="fill:none;fill-opacity:1;fill-rule:evenodd;stroke:#000000;stroke-width:0.67720532pt;stroke-linecap:butt;stroke-linejoin:miter;stroke-opacity:1" /><path
   d="M 660.9242,313.71317 C 660.80912,313.71317 660.00338,314.74886 660.00338,315.95714"
   id="path3213"
   sodipodi:nodetypes="cc"
   style="fill:none;fill-opacity:1;fill-rule:evenodd;stroke:#000000;stroke-width:0.67720532pt;stroke-linecap:butt;stroke-linejoin:miter;stroke-opacity:1" /><path
   d="M 794.60518,297.98603 C 793.46376,296.69143 792.42133,294.85448 792.42133,294.85448"
   id="path3215"
   sodipodi:nodetypes="cc"
   style="fill:none;fill-opacity:1;fill-rule:evenodd;stroke:#000000;stroke-width:0.67720532pt;stroke-linecap:butt;stroke-linejoin:miter;stroke-opacity:1" /></g></g></svg>
