<?xml version="1.0" encoding="UTF-8" standalone="no"?>
<!-- Created with Inkscape (http://www.inkscape.org/) -->

<svg
   xmlns:dc="http://purl.org/dc/elements/1.1/"
   xmlns:cc="http://creativecommons.org/ns#"
   xmlns:rdf="http://www.w3.org/1999/02/22-rdf-syntax-ns#"
   xmlns:svg="http://www.w3.org/2000/svg"
   xmlns="http://www.w3.org/2000/svg"
   xmlns:sodipodi="http://sodipodi.sourceforge.net/DTD/sodipodi-0.dtd"
   xmlns:inkscape="http://www.inkscape.org/namespaces/inkscape"
   id="svg3083"
   version="1.1"
   inkscape:version="0.48.5 r10040"
   width="439.99997"
   height="520"
   sodipodi:docname="svg.svg">
  <metadata
     id="metadata3089">
    <rdf:RDF>
      <cc:Work
         rdf:about="">
        <dc:format>image/svg+xml</dc:format>
        <dc:type
           rdf:resource="http://purl.org/dc/dcmitype/StillImage" />
        <dc:title />
      </cc:Work>
    </rdf:RDF>
  </metadata>
  <defs
     id="defs3087">
    <style
       type="text/css"
       id="style6" />
    <style
       type="text/css"
       id="style6-1" />
    <clipPath
       id="clipPath12430-2-6"
       clipPathUnits="userSpaceOnUse">
      <path
         sodipodi:nodetypes="cszscc"
         inkscape:connector-curvature="0"
         id="path12432-3-8"
         d="m 170,437.36218 0,86.99999 c 0,32.99999 -25,57.99999 -60,57.99999 -35,0 -60,-24.99998 -60,-57.99999 l 0,-86.99999 z"
         style="fill:#ffd52b;fill-opacity:1;stroke:none" />
    </clipPath>
    <clipPath
       id="clipPath12430-2-6-5"
       clipPathUnits="userSpaceOnUse">
      <path
         sodipodi:nodetypes="cszscc"
         inkscape:connector-curvature="0"
         id="path12432-3-8-7"
         d="m 170,437.36218 0,86.99999 c 0,32.99999 -25,57.99999 -60,57.99999 -35,0 -60,-24.99998 -60,-57.99999 l 0,-86.99999 z"
         style="fill:#ffd52b;fill-opacity:1;stroke:none" />
    </clipPath>
    <clipPath
       id="clipPath12430-2-6-5-6"
       clipPathUnits="userSpaceOnUse">
      <path
         sodipodi:nodetypes="cszscc"
         inkscape:connector-curvature="0"
         id="path12432-3-8-7-1"
         d="m 170,437.36218 0,86.99999 c 0,32.99999 -25,57.99999 -60,57.99999 -35,0 -60,-24.99998 -60,-57.99999 l 0,-86.99999 z"
         style="fill:#ffd52b;fill-opacity:1;stroke:none" />
    </clipPath>
    <clipPath
       clipPathUnits="userSpaceOnUse"
       id="clipPath6822">
      <path
         style="fill:none;stroke:#ff0000;stroke-width:1.81310689"
         d="m 50.093759,449.318 0,71.91218 c 0,27.27702 24.960935,47.94144 59.906241,47.94144 34.94532,0 59.90625,-20.6644 59.90625,-47.94144 l 0,-71.91218 z"
         id="path6824"
         inkscape:connector-curvature="0"
         sodipodi:nodetypes="cszscc" />
    </clipPath>
  </defs>
  <sodipodi:namedview
     pagecolor="#ffffff"
     bordercolor="#666666"
     borderopacity="1"
     objecttolerance="10"
     gridtolerance="10"
     guidetolerance="10"
     inkscape:pageopacity="0"
     inkscape:pageshadow="2"
     inkscape:window-width="1920"
     inkscape:window-height="1017"
     id="namedview3085"
     showgrid="false"
     inkscape:zoom="1"
     inkscape:cx="171.79667"
     inkscape:cy="313.59386"
     inkscape:window-x="-8"
     inkscape:window-y="-8"
     inkscape:window-maximized="1"
     inkscape:current-layer="svg3083"
     fit-margin-top="0"
     fit-margin-left="0"
     fit-margin-right="0"
     fit-margin-bottom="0"
     showguides="true"
     inkscape:guide-bbox="true">
    <inkscape:grid
       type="xygrid"
       id="grid3030"
       empspacing="5"
       visible="true"
       enabled="true"
       snapvisiblegridlinesonly="true"
       originx="-630px"
       originy="79.999989px" />
  </sodipodi:namedview>
  <g
     id="g6826"
     transform="scale(2,2)">
    <path
       style="fill:#feed00;fill-opacity:1;stroke:none"
       d="m 219.99999,0 0,156.00001 C 219.99999,215.17241 174.16666,260 110,260 45.833332,260 0,215.17245 0,156.00001 L 0,0 z"
       id="rect2987-1-3-3-1-3-2"
       inkscape:connector-curvature="0"
       sodipodi:nodetypes="cszscc" />
    <path
       clip-path="url(#clipPath6822)"
       sodipodi:nodetypes="ccccccccccccccccccccccccccccccccccccccccccssssssscc"
       inkscape:connector-curvature="0"
       id="path2327-1"
       d="m 50.093752,472.36677 9.29687,14.71875 -5.625,-1.625 7.5,9.8125 -5.625,-1.625 9.375,14.75 9.375,-14.75 -5.625,1.625 7.5,-9.8125 -5.625,1.625 9.375,-14.71875 9.375,14.71875 -5.625,-1.625 7.5,9.8125 -5.625,-1.625 9.375,14.75 9.374998,-14.75 -5.624998,1.625 7.499998,-9.8125 -5.625,1.625 9.34375,-14.71875 9.375,14.71875 -5.625,-1.625 7.5,9.8125 -5.625,-1.625 9.375,14.75 9.375,-14.75 -5.625,1.625 7.5,-9.8125 -5.625,1.625 9.375,-14.71875 9.375,14.71875 -5.625,-1.625 7.5,9.8125 -5.625,-1.625 9.375,14.75 9.375,-14.75 -5.625,1.625 7.5,-9.8125 -5.625,1.625 9.29688,-14.71875 0,56.61425 c -7.47984,0 -7.53583,4.31575 -15.01563,4.31575 -7.47984,0 -7.48895,-4.31575 -14.96875,-4.31575 -7.47984,0 -7.48891,4.31575 -14.96875,4.31575 -7.47984,0 -7.48891,-4.31575 -14.96875,-4.31575 -7.47984,0 -7.45766,4.31575 -14.937498,4.31575 -7.47984,0 -7.48891,-4.31575 -14.96875,-4.31575 -7.4798,0 -7.48895,4.31575 -14.96875,4.31575 -7.47984,0 -7.53582,-4.31575 -15.01562,-4.31575 z"
       style="fill:#2b954a;fill-opacity:1;fill-rule:evenodd;stroke:none"
       transform="matrix(-1.8362024,0,0,2.1693128,311.98227,-974.71129)" />
  </g>
</svg>
