<?xml version="1.0" encoding="UTF-8"?>
<!DOCTYPE svg PUBLIC "-//W3C//DTD SVG 1.1//EN" "http://www.w3.org/Graphics/SVG/1.1/DTD/svg11.dtd">
<!-- Creator: CorelDRAW -->
<svg xmlns="http://www.w3.org/2000/svg" xml:space="preserve" width="500px" height="557px" shape-rendering="geometricPrecision" text-rendering="geometricPrecision" image-rendering="optimizeQuality" fill-rule="evenodd" clip-rule="evenodd"
viewBox="0 0 500 557"
 xmlns:xlink="http://www.w3.org/1999/xlink"
 xmlns:svg="http://www.w3.org/2000/svg"
 version="1.0">
 <g id="Layer_x0020_1">
  <metadata id="CorelCorpID_0Corel-Layer"/>
  <path id="path1937" fill="black" stroke="black" stroke-width="3.96851" d="M2.07383 2.71446l495.942 -0.130394 -30.3545 376.634c-57.4971,237.042 -382.572,231.131 -435.821,0.449575l-29.7658 -376.953z"/>
  <path id="path1937_0" fill="#CCCCCC" stroke="black" stroke-width="0.510236" d="M467.661 379.218c-57.4971,237.042 -382.572,231.131 -435.821,0.449575 19.0298,4.81068 35.619,-21.6411 56.4874,-21.6593 20.8687,-0.0181417 30.5799,21.5617 54.2345,21.5447 23.6546,-0.0167244 31.1372,-21.6354 52.0736,-21.6539 20.9364,-0.0184252 34.4254,21.5609 55.4332,21.543 21.0079,-0.0181417 32.3093,-21.6366 52.5031,-21.6544 20.1937,-0.0175748 32.4902,21.5626 54.1698,21.5442 21.6794,-0.0184252 33.2688,-21.6374 54.1701,-21.6559 20.9013,-0.0184252 32.3994,26.3917 56.7496,21.5419z"/>
  <circle fill="none" stroke="black" stroke-width="0.216" cx="247.887" cy="185.788" r="29.8871"/>
  <path fill="#BF9F4F" d="M239.434 158.92l17.5096 0 0 -107.171c7.23005,-5.13185 14.4604,-3.42057 21.691,5.1327 8.2698,-8.61931 -5.67411,-21.7165 -21.7565,-13.9334 0.927497,-14.6772 -2.57273,-24.9262 -8.08583,-33.162 -6.81392,8.23578 -9.30076,20.497 -8.06429,34.3675 -14.8405,-9.79767 -29.8823,2.29068 -22.4844,12.7179 4.34636,-6.89131 15.6365,-11.0137 21.1904,-5.12277l0 107.171z"/>
  <path fill="none" stroke="#644D36" stroke-width="3.96851" d="M256.878 42.9483c0.927497,-14.6772 -2.87462,-25.53 -8.38772,-33.7657m8.4532 150.01l0 -107.171c7.23005,-5.13185 15.0642,-2.78731 21.3891,6.06785 3.61786,-3.77093 3.28564,-9.60634 0.0813544,-12.9679"/>
  <path fill="none" stroke="white" stroke-width="3.96851" d="M249.396 9.18256c-7.26747,8.23607 -10.2569,21.1011 -8.66807,34.9713 -14.8405,-9.79767 -29.8823,2.29068 -22.4844,12.7179m21.1904 -5.12277l0 107.171"/>
  <path fill="#BF9F4F" d="M234.285 133.863l28.1787 0c7.53279,1.09786 7.53251,8.70889 0,9.66048l-28.1787 0c-7.62577,-1.02472 -7.62577,-8.63575 0,-9.66048z"/>
  <path fill="none" stroke="white" stroke-width="3.96851" d="M278.414 45.1213c-4.12016,-4.32199 -13.9992,-6.24898 -23.0454,-1.87115"/>
  <path fill="#BF9F4F" d="M238.206 51.4471l19.9225 0c5.923,0.73304 6.99988,9.28659 0,10.2643 -6.64073,0 -13.2815,0 -19.9225,0 -4.89175,-0.855213 -5.52019,-9.16441 0,-10.2643z"/>
  <path fill="none" stroke="#644D36" stroke-width="3.96851" d="M262.464 133.863c7.53279,1.09786 7.53251,8.70889 0,9.66048l-28.1787 0"/>
  <path fill="none" stroke="white" stroke-width="3.96851" d="M234.285 143.524c-7.62577,-1.02472 -7.62577,-8.63575 0,-9.66048l28.1787 0"/>
  <path fill="none" stroke="white" stroke-width="3.96851" d="M238.206 61.7114c-4.89175,-0.855213 -5.52019,-9.16441 0,-10.2643l17.5297 0"/>
  <path fill="none" stroke="#644D36" stroke-width="3.96851" d="M255.736 51.4471l2.39273 0c5.923,0.73304 6.99988,9.28659 0,10.2643 -6.64073,0 -13.2815,0 -19.9225,0"/>
  <path fill="none" stroke="#644D36" stroke-width="3.96851" d="M217.338 58.6831c3.74258,-7.79698 16.844,-12.2213 22.398,-6.33033"/>
  <path fill="#BF9F4F" d="M220.087 180.975l8.75481 -15.1639 -93.0158 -53.5856c-0.829418,-8.82737 4.26784,-14.2333 15.2904,-16.2181 -3.32958,-11.4718 -21.6439,-5.94482 -22.9448,11.8746 -12.2471,-8.14196 -22.8731,-10.2351 -32.762,-9.57856 3.72529,10.0191 13.1006,18.3033 25.7309,24.1676 -15.9052,7.95345 -12.9575,27.0241 -0.228189,25.831 -3.79474,-7.20964 -1.71978,-19.0483 6.15884,-20.9126l93.0158 53.5856z"/>
  <path fill="#BF9F4F" d="M268.242 166.148l8.75481 15.1637 92.8126 -53.5853c8.05947,3.69553 10.1925,10.8128 6.40063,21.3511 11.5994,2.85222 15.9698,-15.772 1.18828,-25.8083 13.1746,-6.53528 20.3003,-14.6911 24.6762,-23.5834 -10.5392,-1.78328 -22.4014,2.19373 -33.7952,10.1999 1.06469,-17.7511 -16.9248,-24.7334 -22.2562,-13.1131 8.14111,0.318331 17.3563,8.03452 15.0316,15.7898l-92.8126 53.5856z"/>
  <path fill="#BF9F4F" d="M276.419 190.859l-8.75481 15.1639 92.8126 53.5853c0.829418,8.82737 -4.26784,14.2333 -15.2904,16.2187 3.32958,11.4715 21.6439,5.94425 22.9448,-11.8752 12.2471,8.14196 22.8731,10.2351 32.762,9.57856 -3.72529,-10.0188 -13.1006,-18.3033 -25.7309,-24.1676 15.9052,-7.95345 12.9575,-27.0241 0.228189,-25.831 3.79474,7.20964 1.71978,19.0485 -6.15884,20.9129l-92.8126 -53.5856z"/>
  <path fill="#BF9F4F" d="M228.061 205.686l-8.75481 -15.1637 -92.8126 53.5856c-8.05947,-3.69553 -10.1925,-10.8128 -6.40063,-21.3514 -11.5994,-2.85222 -15.9698,15.7723 -1.18828,25.8083 -13.1746,6.53528 -20.3003,14.6911 -24.6762,23.5834 10.5392,1.78328 22.4014,-2.19373 33.7952,-10.1996 -1.06469,17.7508 16.9248,24.7334 22.2562,13.1131 -8.14111,-0.318614 -17.3565,-8.03481 -15.0316,-15.7901l92.8126 -53.5856z"/>
  <path fill="#BF9F4F" d="M256.869 212.914l-17.5096 0 0 107.171c-7.23005,5.13185 -14.4604,3.42057 -21.691,-5.1327 -8.2698,8.61931 5.67411,21.7165 21.7565,13.9334 -0.927497,14.6772 2.57273,24.9262 8.08583,33.162 6.81392,-8.23578 9.30076,-20.497 8.06429,-34.3675 14.8405,9.79767 29.8823,-2.29068 22.4844,-12.7179 -4.34636,6.89131 -15.6365,11.0137 -21.1904,5.12277l0 -107.171z"/>
  <path fill="none" stroke="white" stroke-width="3.96851" d="M369.809 127.727c8.05947,3.69553 10.1925,10.8128 6.40063,21.3511m-19.5483 -57.7817c-4.21767,-0.894331 -8.47304,0.756284 -10.6387,5.47682 8.14111,0.318331 17.3563,8.03452 15.0316,15.7898l-92.8126 53.5856"/>
  <path fill="none" stroke="#644D36" stroke-width="3.96851" d="M276.996 181.312l92.8126 -53.5853m6.40063 21.3511c11.5994,2.85222 15.9698,-15.772 1.18828,-25.8083 13.1746,-6.53528 20.3003,-14.6911 24.6762,-23.5834"/>
  <path fill="#BF9F4F" d="M287.367 149.161l14.089 24.4032c2.81594,7.07273 -3.77575,10.878 -8.36618,4.83024l-14.0893 -24.4032c-2.92536,-7.11638 3.66605,-10.9222 8.36646,-4.83024z"/>
  <path fill="#BF9F4F" d="M360.702 111.349l9.96123 17.2534c2.32668,5.4961 -4.54252,10.7053 -8.88917,5.13213 -3.32022,-5.75093 -6.64073,-11.5021 -9.96095,-17.2534 -1.70561,-4.66413 5.17635,-9.36256 8.88889,-5.13213z"/>
  <path fill="none" stroke="#644D36" stroke-width="3.96851" d="M287.367 149.161l14.089 24.4032c1.40797,3.53622 0.464032,6.2555 -1.4057,7.33493"/>
  <path fill="none" stroke="white" stroke-width="3.96851" d="M300.051 180.899c-1.86973,1.07943 -4.66526,0.519024 -6.96048,-2.50469l-14.0893 -24.4032c-2.92536,-7.11638 3.66605,-10.9222 8.36646,-4.83024"/>
  <path fill="none" stroke="#644D36" stroke-width="3.96851" d="M360.702 111.349l9.96123 17.2534c2.32668,5.4961 -4.54252,10.7053 -8.88917,5.13213"/>
  <path fill="none" stroke="white" stroke-width="3.96851" d="M361.774 133.734c-3.32022,-5.75093 -6.64073,-11.5021 -9.96095,-17.2534 -1.70561,-4.66413 5.17635,-9.36256 8.88889,-5.13213"/>
  <path fill="none" stroke="white" stroke-width="3.96851" d="M403.707 100.094c-10.5395,-1.78299 -24.0341,1.78583 -35.428,9.792"/>
  <path fill="none" stroke="#644D36" stroke-width="3.96851" d="M369.299 110.498c0.632126,-10.5398 -6.47348,-17.8954 -12.6377,-19.2022"/>
  <path fill="none" stroke="#F0F0F0" stroke-width="3.96851" d="M228.842 165.811l-93.0158 -53.5856m4.02605 -21.6298c-5.49638,1.82239 -10.9894,7.81994 -11.6804,17.2862 -12.2471,-8.14196 -22.8731,-10.2351 -32.762,-9.57856 3.72529,10.0191 13.1006,18.3033 25.7309,24.1676 -15.9052,7.95345 -12.9575,27.0241 -0.228189,25.831"/>
  <line fill="none" stroke="#644D36" stroke-width="3.96851" x1="127.274" y1="127.796" x2="220.29" y2= "181.381" />
  <path fill="#BF9F4F" d="M195.813 172.905l14.089 -24.4032c4.71714,-5.97487 11.1053,-2.16907 8.16293,4.83024l-14.089 24.4032c-4.70041,6.09194 -11.0886,2.28614 -8.16293,-4.83024z"/>
  <path fill="#BF9F4F" d="M126.399 128.302l9.96123 -17.2534c3.59632,-4.76306 11.3392,-1.41874 8.68593,5.13213 -3.32051,5.75093 -6.64073,11.5021 -9.96123,17.2534 -3.18671,3.80892 -10.4936,0.198425 -8.68593,-5.13213z"/>
  <path fill="none" stroke="white" stroke-width="3.96851" d="M135.085 133.434c-3.18671,3.80892 -10.2903,0.60463 -8.48268,-4.72592l9.96123 -17.2534"/>
  <path fill="none" stroke="#644D36" stroke-width="3.96851" d="M136.36 111.048c3.59632,-4.76306 11.3392,-1.41874 8.68593,5.13213 -3.60822,5.46322 -6.89443,11.2484 -9.96123,17.2534"/>
  <path fill="none" stroke="white" stroke-width="3.96851" d="M203.976 177.735c-4.70041,6.09194 -10.8853,2.4891 -7.95969,-4.62728l14.089 -24.4032"/>
  <path fill="none" stroke="#644D36" stroke-width="3.96851" d="M209.902 148.502c4.71714,-5.97487 11.3085,-1.96611 8.36618,5.0332l-14.089 24.4032"/>
  <path fill="none" stroke="#644D36" stroke-width="3.96851" d="M135.826 112.226c-0.829418,-8.82737 4.26784,-14.2333 15.2904,-16.2181 -1.56076,-5.37733 -6.41424,-7.01972 -11.2643,-5.41162"/>
  <path fill="none" stroke="#644D36" stroke-width="3.96851" d="M120.912 148.302c-3.79474,-7.20964 -0.703559,-18.8453 7.17506,-20.7096"/>
  <path fill="none" stroke="white" stroke-width="3.96851" d="M376 223.328c3.18501,7.41289 1.11005,19.2521 -6.76857,21.1164l-92.8126 -53.5856"/>
  <path fill="none" stroke="#644D36" stroke-width="3.96851" d="M267.664 206.023l92.8126 53.5853m-4.02605 21.6298c5.49638,-1.82239 11.5991,-7.21021 12.2902,-16.6765 12.2471,8.14196 22.2633,9.62533 32.1523,8.96882 -3.72529,-10.0188 -12.2873,-17.6936 -24.918,-23.5582 15.9052,-7.95345 13.3639,-27.8371 -1.19452,-26.4407"/>
  <path fill="#BF9F4F" d="M370.107 243.532l-9.96123 17.2534c-3.59632,4.76277 -11.5424,1.41846 -8.88917,-5.13213 3.32051,-5.75122 6.64073,-11.5024 9.96123,-17.2534 3.18671,-3.80892 10.6968,-0.198425 8.88917,5.13213z"/>
  <path fill="#BF9F4F" d="M300.693 198.929l-14.089 24.4032c-4.71714,5.97487 -11.3085,2.16907 -8.36618,-4.83024l14.089 -24.4032c4.70041,-6.09194 11.2918,-2.28614 8.36618,4.83024z"/>
  <path fill="none" stroke="#644D36" stroke-width="3.96851" d="M368.929 238.562c1.22343,1.21465 1.85584,2.97184 1.17808,4.97055l-9.96123 17.2534c-1.57323,2.08347 -3.97928,2.61553 -5.96608,2.00608"/>
  <path fill="none" stroke="white" stroke-width="3.96851" d="M354.18 262.792c-2.5543,-0.783496 -4.41553,-3.45373 -2.92309,-7.13821 3.32051,-5.75122 6.64073,-11.5024 9.96123,-17.2534 1.99162,-2.38082 5.67185,-1.86293 7.71109,0.161575"/>
  <path fill="none" stroke="white" stroke-width="3.96851" d="M279.549 225.782c-1.86973,-1.07972 -2.78221,-3.78085 -1.31102,-7.28051l14.089 -24.4032c2.64388,-3.42652 5.88643,-3.72161 7.69663,-2.05739"/>
  <path fill="none" stroke="#644D36" stroke-width="3.96851" d="M300.024 192.041c1.40797,1.2943 1.94967,3.77433 0.669544,6.88763l-14.089 24.4032c-2.35843,2.98743 -5.18542,3.5297 -7.05515,2.45027"/>
  <path fill="none" stroke="white" stroke-width="3.96851" d="M360.477 259.608c0.829418,8.82737 -4.26784,14.2333 -15.2904,16.2187 1.56076,5.37704 6.41424,7.01915 11.2643,5.41106"/>
  <line fill="none" stroke="#644D36" stroke-width="3.96851" x1="135.249" y1="259.271" x2="228.061" y2= "205.686" />
  <line fill="none" stroke="white" stroke-width="3.96851" x1="219.306" y1="190.522" x2="126.494" y2= "244.108" />
  <path fill="#BF9F4F" d="M208.936 222.673l-14.089 -24.4032c-2.81594,-7.07244 3.77575,-10.878 8.36618,-4.83024l14.089 24.4032c2.92564,7.11667 -3.66577,10.9222 -8.36618,4.83024z"/>
  <path fill="none" stroke="white" stroke-width="3.96851" d="M215.617 225.394c-1.85925,0.815245 -4.47818,0.134929 -6.68126,-2.72069l-14.089 -24.4032c-2.46388,-6.18832 2.2748,-9.87478 6.57326,-6.64866"/>
  <path fill="none" stroke="#644D36" stroke-width="3.96851" d="M201.189 191.455c0.692788,0.479055 1.37821,1.13443 2.02365,1.98482l5.99046 10.3759 8.09859 14.0273c1.46296,3.55833 0.54652,6.28866 -1.32321,7.36838"/>
  <path fill="#BF9F4F" d="M135.601 260.485l-9.96123 -17.2534c-2.32668,-5.4961 4.54252,-10.7053 8.88889,-5.13213 3.32051,5.75122 6.64101,11.5021 9.96123,17.2534 1.70561,4.66413 -5.17635,9.36284 -8.88889,5.13213z"/>
  <path fill="none" stroke="white" stroke-width="3.96851" d="M132.803 236.495c0.599244,0.38041 1.18233,0.908221 1.72545,1.60498 0.207496,0.35915 0.414992,0.718583 0.622772,1.0783m0.449575 21.3072l-9.96123 -17.2534c-2.03584,-4.80898 2.96873,-9.39799 7.16344,-6.73711"/>
  <path fill="none" stroke="#644D36" stroke-width="3.96851" d="M135.151 239.178c3.11273,5.39178 6.22574,10.7833 9.33846,16.1751 1.70561,4.66413 -5.17635,9.36284 -8.88889,5.13213"/>
  <path fill="none" stroke="#644D36" stroke-width="3.96851" d="M126.494 244.108c-8.05947,-3.69553 -10.1925,-10.8128 -6.40063,-21.3514"/>
  <path fill="none" stroke="#644D36" stroke-width="3.96851" d="M94.2288 272.148c10.5392,1.78328 22.4014,-2.19373 33.7952,-10.1996 -1.06469,17.7508 16.9248,24.7334 22.2562,13.1131 -8.14111,-0.318614 -17.3565,-8.03481 -15.0316,-15.7901"/>
  <path fill="none" stroke="white" stroke-width="3.96851" d="M121.318 222.552c-12.1436,-2.57981 -17.7384,16.249 -2.41285,26.0124 -13.1746,6.53528 -21.5255,15.5078 -25.289,24.8083"/>
  <path fill="none" stroke="#644D36" stroke-width="3.96851" d="M247.511 362.048c6.81392,-8.23578 9.50486,-20.0889 8.26838,-33.9594 14.8405,9.79767 29.6782,-2.69887 22.2803,-13.1261m-21.1904 5.12277l0 -107.171"/>
  <line fill="none" stroke="white" stroke-width="3.96851" x1="239.359" y1="212.914" x2="239.359" y2= "320.085" />
  <path fill="#BF9F4F" d="M262.017 237.971l-28.1787 0c-7.53279,-1.09758 -7.53251,-8.70889 0,-9.66048l28.1787 0c7.62577,1.02472 7.62577,8.63604 0,9.66048z"/>
  <path fill="none" stroke="white" stroke-width="3.96851" d="M233.839 237.971c-7.53279,-1.09758 -7.53251,-8.70889 0,-9.66048l28.1787 0"/>
  <path fill="none" stroke="#644D36" stroke-width="3.96851" d="M262.017 228.31c7.62577,1.02472 7.62577,8.63604 0,9.66048l-28.1787 0"/>
  <path fill="#BF9F4F" d="M258.096 320.387l-19.9222 0c-5.923,-0.73304 -6.99988,-9.28659 0,-10.2643 6.64073,0 13.2815,0 19.9222,0 4.89203,0.855213 5.52048,9.16441 0,10.2643z"/>
  <path fill="none" stroke="white" stroke-width="3.96851" d="M238.174 320.387c-5.923,-0.73304 -6.99988,-9.28659 0,-10.2643 6.94715,0 13.5196,0 19.9222,0"/>
  <path fill="none" stroke="#644D36" stroke-width="3.96851" d="M258.096 310.123c4.89203,0.855213 5.52048,9.16441 0,10.2643l-19.9222 0"/>
  <path fill="none" stroke="white" stroke-width="3.96851" d="M239.359 320.085c-7.23005,5.13185 -14.4604,3.42057 -21.691,-5.1327 -6.46073,6.7337 0.636662,16.2006 11.7196,16.3089m10.0369 -2.37543c-0.927497,14.6772 2.98091,26.5589 9.1063,34.3865m30.7528 -49.1264c-4.34636,6.89131 -16.861,11.8301 -22.415,5.93915"/>
  <path fill="none" stroke="#644D36" stroke-width="3.96851" d="M229.388 331.261c3.10337,0.0300473 7.53959,-1.08113 11.0574,-2.78362"/>
  <circle fill="#BF9F4F" cx="247.887" cy="185.788" r="29.8871"/>
  <circle fill="black" cx="247.887" cy="185.788" r="17.8115"/>
  <circle fill="#BF9F4F" cx="248.189" cy="185.486" r="9.0567"/>
  <path fill="none" stroke="white" stroke-width="1.98425" d="M244.664 193.831c-3.25049,-1.37509 -5.5321,-4.59411 -5.5321,-8.34463 0,-5.00088 4.05581,-9.0567 9.0567,-9.0567 2.50044,0 4.76447,1.01395 6.40347,2.65295"/>
  <path fill="none" stroke="#644D36" stroke-width="1.98425" d="M240.165 201.843c-5.96948,-2.87688 -10.0902,-8.98555 -10.0902,-16.0546 0,-9.83538 7.97613,-17.8115 17.8115,-17.8115 3.76498,0 7.25783,1.16872 10.1347,3.16318"/>
  <path fill="none" stroke="white" stroke-width="1.98425" d="M257.845 171.019c4.73811,3.20117 7.85367,8.62243 7.85367,14.7694 0,9.83538 -7.97613,17.8115 -17.8115,17.8115 -2.76605,0 -5.38526,-0.630992 -7.7213,-1.75691"/>
  <path fill="none" stroke="#644D36" stroke-width="1.98425" d="M254.592 179.083c1.63928,1.63928 2.65323,3.90359 2.65323,6.40375 0,5.0006 -4.05581,9.0567 -9.0567,9.0567 -1.25008,0 -2.4412,-0.253701 -3.5246,-0.712063"/>
  <path fill="none" stroke="#644D36" stroke-width="1.98425" d="M259.853 158.394c10.5483,4.61566 17.9209,15.1458 17.9209,27.3943 0,16.5033 -13.3838,29.8871 -29.8871,29.8871 -3.86788,0 -7.56454,-0.735307 -10.9576,-2.07354"/>
  <path fill="none" stroke="white" stroke-width="1.98425" d="M236.929 213.602c-11.084,-4.37159 -18.9295,-15.1784 -18.9295,-27.8136 0,-16.5033 13.3838,-29.8871 29.8871,-29.8871 4.3835,0 8.54731,0.944221 12.2984,2.64047"/>
 </g>
</svg>
