<?xml version="1.0" encoding="UTF-8"?>
<!DOCTYPE svg PUBLIC "-//W3C//DTD SVG 1.1//EN" "http://www.w3.org/Graphics/SVG/1.1/DTD/svg11.dtd">
<!-- Creator: CorelDRAW 2018 (64-Bit) -->
<svg xmlns="http://www.w3.org/2000/svg" xml:space="preserve" width="56mm" height="64mm" version="1.1" style="shape-rendering:geometricPrecision; text-rendering:geometricPrecision; image-rendering:optimizeQuality; fill-rule:evenodd; clip-rule:evenodd"
viewBox="0 0 5600 6400"
 xmlns:xlink="http://www.w3.org/1999/xlink">
 <defs>
  <style type="text/css">
   <![CDATA[
    .fil0 {fill:black;fill-rule:nonzero}
    .fil1 {fill:#FFD500;fill-rule:nonzero}
   ]]>
  </style>
 </defs>
 <g id="Слой_x0020_1">
  <metadata id="CorelCorpID_0Corel-Layer"/>
  <g id="_2014394290592">
   <path class="fil0" d="M5372.39 4616.35c70.02,-173.11 120.72,-349.89 156,-533.33 9.1,-50.98 17.07,-101.67 23.98,-153.11 14.16,-117.2 21.65,-235.11 22.44,-353.16l0 -3534.93 -5549.61 0 0.29 3575.04c2.66,130.75 13.7,261.19 33.05,390.52 6.35,38.17 13.09,76.06 20.39,114.09 35.28,170.04 83.65,334.33 148.7,495.41l109.96 245.18 95.39 168.52 106.54 160.94 117.12 152.82 127.32 144.29 136.7 135.18 145.8 125.55 154.17 115.36 162.2 104.71 169.8 93.45 176.53 81.7 182.98 69.46 188.95 56.62 194.03 43.29 198.82 29.35 203.13 14.89 205.73 0 203.13 -14.89 198.97 -29.35 194.03 -43.29 188.94 -56.62 183.02 -69.46 176.53 -81.7 169.76 -93.59 162.21 -104.6 154.16 -115.47 145.84 -125.55 136.84 -135.18 127.18 -144.4 117.12 -152.82 106.54 -161.11 95.5 -168.53 109.82 -245.28z"/>
   <path class="fil1" d="M367.65 4736.79l4864.72 -0.43c172.26,-360.97 261.45,-755.94 261.02,-1155.91l0 -3461.34 -5386.73 0 0 3462.05c0,413.28 93.7,805.18 260.99,1155.63z"/>
   <path class="fil0" d="M2718.45 3992.21c-19.3,-189.19 -55.56,-356.65 -117.69,-484.08 -29.35,46.15 -43,87.49 -71.65,135.86 -30.05,50.87 -21.09,115.07 -26.74,172.68 -30.72,-113.42 -21.23,-264.44 -32.66,-403.93 -47.98,125.59 -104.18,265.71 -152.16,437.69 4.17,-136.98 34.75,-280.84 72.92,-433.38 -79.94,112.57 -149.93,263.73 -221.19,430.49 15.59,-108.06 66.68,-253.15 133.53,-422.95 -88.2,127.22 -184.65,246.24 -272.98,373.46 53.48,-123.62 122.94,-250.79 193.32,-382.27 -114.17,113.53 -221,234.23 -319.83,361.35 58.7,-114.27 152.68,-236.08 259.08,-364.78 -101.95,77.72 -202.99,172.79 -287.86,296.83 49.31,-108.87 125.8,-209.73 276.15,-341.77 -109.29,69.04 -235.94,147.6 -345.19,247.65 79.23,-101.57 192.37,-199.14 339.55,-292.98 -99.24,46.71 -194.03,86 -362.59,251.07 76.62,-111.05 175.33,-215.37 379.8,-287.73 -102.8,19.58 -209.58,54.58 -338.03,120.58 108.44,-66.42 224.08,-118.92 349.46,-146.61 -64.49,-0.71 -134.34,3.56 -241.55,41.73 58.14,-28.64 129.12,-49.6 212.91,-62.69 9.52,-13.9 17.63,-23.84 27.16,-37.74 -43.99,3.42 -84.91,4.41 -125.03,11.57 41.35,-10.06 78.15,-24.8 143.34,-27.7 57.61,-71.96 156.67,-123.18 255.2,-161.35l0.84 -8.96c-155.18,8.12 -280.45,51.51 -387.91,124.84 55.67,-70.97 162.88,-124.59 349.74,-177.51 -5.78,-10.44 -4.16,-1.9 -9.94,-12.38 -110.64,-2.61 -232.34,12.14 -351.27,74.83 62.02,-56.66 171.84,-101.57 321.24,-125.56 -9.8,0.43 0.96,-8.54 -9.24,-9.52 -74.26,-7.69 -175.82,9.52 -242.96,20 80.9,-36.23 148.88,-40.08 221.34,-45.86 -9.53,-12.28 -16.13,-20.43 -25.76,-32.67 -28.68,3.56 -57.5,7.02 -86.29,10.48 26.89,-6.92 50.73,-13.94 77.61,-20.96 -68.93,-67.13 -131.76,-123.89 -192.68,-162.06 -9.63,13.93 -7.59,37.04 -18.03,47.69 0,-19.15 -1.8,-44.24 -1.8,-63.39 -19.15,-15.74 -47.27,-31.4 -66.43,-47.13 -15.45,45.33 -30.72,90.66 -46.03,135.99 3.88,-48.79 7.58,-97.54 11.46,-146.47l-38.73 -26.32c-54.33,64.21 -92.75,135.33 -110.78,214.7 -1.83,-73.59 20.36,-149.4 66.4,-230.15l-30.34 -12.95c-71.76,53.77 -153.11,167.29 -202.96,253.58 22.72,-90.66 71.8,-175.68 118.54,-262.82 -87.95,37.93 -193.5,121.29 -285.4,231.39 41.45,-77.97 109.68,-151.17 179,-218.27l-44.94 -6.49c-57.33,18.35 -166.73,106.4 -268.04,225.85 22.89,-59.79 89.46,-122.06 171.87,-203.66 -47.41,20.11 -132.57,76.77 -227.79,176.39 48.75,-76.2 111.62,-137.4 184.08,-188.24l-51.82 -2.47c-49.6,0.14 -127.6,74.54 -156.28,126.65 6.77,-34.47 23.99,-66.85 54.75,-94.16 -60.5,23.57 -124.18,74.01 -168.84,137.27 31.71,-60.89 67.8,-119.74 155.47,-151.59 -113.7,17.11 -217.74,70.7 -343.26,196.25 42.41,-88.76 139.42,-148.7 253.55,-205.07 -138.93,17.5 -317.22,86.96 -479.99,212.76 59.97,-58.42 92.6,-106.54 361.59,-214.42 -174.16,8.96 -360.36,115.5 -474.45,219.25 31.58,-73.59 193.89,-157.09 332.81,-212.48 -120.72,31.26 -282.08,99.35 -426.79,202.85 48.93,-43.28 96.59,-99.48 205.46,-139.2l27.31 -53.17c-57.61,22.58 -108.62,46.71 -158.22,87.35l3.17 -19.01c-24.52,15.31 -59.37,33.33 -95.78,59.54 129.4,-99.76 268.61,-163.01 412.33,-210.29 27.41,-13.51 67.8,-25.64 109.01,-36.51 64.2,-34.89 141.92,-45.61 208.21,-47.69 90.66,-25.09 110.24,-16.69 157.09,-12.81 49.21,-29.63 87.49,-29.35 120.86,-15.73 46.04,-43.11 87.21,-48.09 136.7,-25.33 45.05,-16.58 107.35,-22.9 188.24,-28.68 -62.02,-17.93 -111.48,-11.86 -229.16,-0.71 109.01,-27.27 201.33,-41.31 330.02,-14.46 -32.52,-26.32 -111.48,-42.69 -195.79,-51.12 77.01,-0.71 154.06,-17.64 260.56,47.13 -8.68,-22.72 -48.79,-39.51 -105.13,-58.7 115.61,14.07 215.23,61.73 266.92,160.51 13.51,-1.62 41.76,-0.67 55.24,-2.47 69.5,-47.38 124.99,-38.28 182.6,-41.63 -111.76,-173.46 -211.81,-295.55 -338.03,-360.99 -40.22,1.62 -80.47,3.42 -120.72,5.22 17.25,-12.28 49.35,-9.53 56.23,-24.52l-78.28 -37.36c-46.57,-12.81 -114.09,4.27 -156.28,19.97 14.46,-21.77 59.4,-32.92 89.85,-36.66l-56.09 -24.09c-26.28,-3.6 -64.74,1.09 -97.12,8.4 -11.43,10.47 -23.04,20.95 -34.47,31.39 1.94,-10.44 6.78,-20.92 8.68,-31.39 -31.01,0.56 -64.63,8.53 -103.47,19.86 26.46,-12.42 67.38,-25.09 113.67,-30.34 7.76,-8.68 8,-17.36 15.59,-26.04l-34.04 -5.25c-44.16,-0.04 -88.29,1.72 -132.3,5.25 -21.37,15.17 -47.69,28.51 -65.05,54.58 3.88,-15.74 6.21,-25.93 15.98,-40.22 -20.92,3.14 -54.82,14.99 -83.78,32.63 28.82,-24.37 56.51,-39.01 100.61,-45.33l27.69 -26.07c-73.45,-4.37 -179.42,0.28 -283.63,66.04 30.34,-32.1 72.78,-55 176.14,-83.54l-39.55 -5.22c-32.8,7.41 -92.46,41.88 -119.34,62.83 15.45,-17.5 30.73,-34.85 46.04,-52.35 -52.92,-2.61 -118.92,39.51 -184.12,88.9 31.05,-33.09 75.96,-68.09 126.79,-90.42 -46.32,8.96 -90.42,31.96 -160.69,59.13 51.4,-30.2 89.71,-54.05 148.98,-73.31 -17.08,-14.36 -55.95,0.95 -156.56,55.25 76.2,-72.32 200.52,-106.65 331.96,-112.47 70.98,1.13 144.99,-5.37 215.83,10.23 64.77,-2.23 122.48,-0.29 155.29,15.7 37.22,-6.07 80.47,-2.61 116.07,2.33 17.88,10.23 37.46,14.74 52.74,22.58 22.33,-19.41 42.72,-26.57 62.72,-28.23 36.9,9.24 73.45,22.33 102.24,55.53 3.03,-6.6 6.06,-12 9.38,-16.13 11.29,-6.06 26.99,-8.53 42.16,-11 15.17,4.23 29.77,11.29 39.15,21.52 3.85,9.74 6.32,22.01 7.13,37.04 64.63,-57.75 112.75,-51.82 149.54,2.47 88.9,-16.12 126.37,-0.95 123.86,26.32 33.91,-5.08 69.32,4.02 83.26,12.98 -125.27,3.42 -234.81,29.63 -335.99,149.79 86.68,106.36 152.69,197.45 211.67,300.25 20.39,1.41 45.08,9.24 56.66,28.25 -11.72,-2.61 -27.98,-2.32 -40.54,-2.47 63.25,148.14 131.24,317.5 194.45,465.64l74.83 31.39c0,-209.19 -4.41,-418.5 -4.41,-627.66 -48.51,-543.77 -233.29,-715.36 -340.79,-787.01 -15.55,8.25 -25.04,24.8 -28.64,54.86 -9.39,-21.91 -4.02,-43.82 -7.3,-62.97l-33.66 -7.77c-26.99,7.62 -70.41,44 -108.73,86.29 5.4,-38.59 22.62,-69.85 51.86,-94.12 -52.81,-5.78 -113.73,23.29 -178.5,68.09 25.93,-37.75 50.45,-50.59 96.2,-73.87 -48.08,-15.7 -159.31,33.62 -211.1,99.9 26.17,-49.17 68.33,-85.83 126.5,-109.71 -113.41,24.41 -194.87,56.51 -236.75,128.06 4.7,-53.62 86.79,-90.42 132.16,-121.82 -41.77,19.83 -156.43,66.15 -213.61,127.46 23.28,-37.74 93.03,-84.77 158.61,-124.56 -45.05,23.81 -109.82,31.25 -185.6,121.53 9.63,-17.36 22.3,-32.67 31.96,-50.03 -11.71,8.4 -29.63,22.05 -48.5,32.67 33.33,-30.87 65.97,-56.51 127.45,-84.49 -30.58,1.66 -48.36,16.94 -71.12,22.33 90,-58.56 186.48,-78.28 312.14,-91.36 26.32,-32.39 120.58,-36.1 226.27,10.89 -12.52,-19.15 -28.11,-32.94 -71.93,-43.95 66.01,-4.27 105.55,14.89 147.32,57.57l13.37 -41.31c11.01,-6.77 25.23,-2.89 29.78,5.23l5.22 67.38c70.84,-8.26 101.14,4.93 121.81,41.91 -18.06,-13.23 -34.99,-23.18 -49.6,-26.22l-26.46 18.07 3.04 24.27 -19.44 -13.23c-4.83,-0.57 -11.57,3.42 -15.7,11.71 152.54,128.27 221.19,326.71 262.36,534.53 3.88,-355.67 6.88,-700.44 10.76,-1056.11 -49.21,-100.05 -82.83,-217.31 -134.23,-329.11l-29.88 -4.23 13.48 -12.14c-16.8,-20 -53.06,-37.5 -77.44,-46.56 26.6,4.79 48.65,8.64 89.85,37.6 -24.27,-41.62 -57.19,-77.71 -99.9,-115.07 65.43,52.63 104.84,67.38 147.45,175.96 4.52,-18.59 5.51,-95.07 -132.18,-185.59 84.07,28.36 133.14,85.3 163.16,187.11 -7.97,-93.98 -25.47,-161.78 -91.09,-247.09 65.9,28.12 103.51,101.29 130.92,233.9 6.63,-76.8 5.78,-168.7 5.78,-245.47 19.16,61.35 28.82,146.37 46.88,251.07 7.83,-89.57 7.3,-173.6 9.2,-264.3 34.33,108.06 26.6,205.32 28.55,313.38 56.9,-139.46 93.55,-197.07 140.97,-240.88 -41.63,79.09 -78.96,148.84 -101.43,245.18 117.41,-122.66 174.62,-153.81 202.57,-157.55 -67.38,50.87 -124.43,110.77 -175.97,181.93 77.61,-57.22 148.17,-85.3 212.9,-99.13 -68.23,31.04 -134.9,60.67 -180.65,114.83 63.25,-33.09 93.02,-59.69 156.27,-75.39 -78.56,38.87 -120.58,74.43 -168.69,125.55 57.32,-31.04 100.89,-58.45 155.04,-69.32 -139.17,73.59 -265.29,158.19 -276.29,202.42 1.94,378.43 3.88,742.6 5.78,1120.92 39.41,-379.52 165.35,-603.99 345.2,-732.3 11.99,-89.85 -34.72,-111.9 -87.63,-159.84 36.93,-3.88 60.22,18.7 100.43,39.51 -5.22,-29.46 3.04,-49.74 -2.18,-79.2 28.92,0 41.87,21.77 52.63,67.1 30.2,-63.82 71.51,-86.25 106.26,-92.32 -16.12,18.03 -28.82,36.09 -31.4,54.15 73.98,-60.92 123.16,-67.94 169.9,-38.17 27.27,-2.47 54.54,-4.83 83.89,4.55 27.58,-6.3 56.18,-6.78 83.96,-1.41 41.45,-12.35 88.58,1.69 134.62,14.22 64.77,16.4 72.07,29.07 57.71,36.69 34.22,1.05 105.73,40.21 75.96,42.82 -85.02,-57.18 -164.01,-85.02 -271.5,-47.55 174.62,5.92 257.42,39.02 314.5,77.72 -85.02,-27.42 -172.54,-64.49 -262.25,-44.35 123.75,10.44 198.85,40.08 241.15,79.38 -113.94,-54.44 -240.45,-82.98 -363.54,-50.87 186.06,4.26 255.77,53.9 318.21,108.19 -78.42,-46.99 -155.72,-94.54 -293.79,-95.49 99.06,31.67 155.15,70.55 181.89,114.51 -86.26,-64.1 -177.63,-104.32 -263.88,-106.68 118.36,46.7 159.42,83.25 183.27,125.83 -76.09,-61.35 -133,-90.13 -190.85,-102.13 49.74,29.78 70.55,50.17 92.99,79.8 -68.08,-47.83 -134.34,-78.84 -179.81,-73.16 28.79,28.5 49.6,54.43 55.81,74.68 -42.72,-53.06 -89.32,-74.01 -127.49,-73.59 9.24,24.38 25.4,31.82 34.74,56.23 -22.22,-18.06 -52.77,-45.36 -86.81,-52.53 -27.87,5.4 -22.33,6.64 -41.07,15.98 5.79,19.16 4.8,32 10.59,51.16 -11.57,-13.8 -24.95,-24.56 -36.66,-38.31 -238.83,198.82 -346.85,387.91 -372.46,834.39 95.25,-38.99 159.31,-46.29 204.61,-31.82 15.31,-13.52 32.81,-16.59 52.53,-9.53 7.06,-4.23 13.9,-8.4 20.95,-12.7 -24.55,-14.85 -48.93,-25.05 -73.44,-39.93 47.8,5.64 93.13,16.93 136.42,43.14 9.52,-9.52 23.42,-16.93 42.01,-22.33 -23.56,-20 -51.5,-35.84 -84.07,-47.7 41.63,-5.36 95.25,14.61 150.5,38.17 37.22,5.12 33.2,-75.49 -10.48,-89 39.41,-10.9 73.73,6.6 99.63,49.18l43.95 -11.01c8.57,-50.31 36.13,-77.72 62.73,-82.69l17.49 -9.53c9.39,6.35 10.06,15.88 19.41,22.23 -9.35,15.84 -22.02,45.58 -11.01,49.18 95.92,-99.77 129.12,-96.21 197.91,-68.23 49.32,-22.86 100.05,-35.53 153.92,-25.47 132.99,-66.99 231.63,-68.9 314.74,-41.35 -57.32,-3.17 -109,-10.9 -258.79,57.33 5.78,9.52 16.65,27.55 8.96,36.23 -15.03,-10.06 -19.05,-14.61 -35.42,-18.87 -38.74,4.69 -81.74,36.12 -120.44,74.82 339.02,-106.93 430.07,-63.5 545.57,-35 -110.1,-16.22 -229.06,-25.64 -339.16,7.87 155.19,-4.41 311.04,30.59 461.5,100.19 -179.42,-55.7 -364.06,-98.14 -543.63,-58.84 271.75,-12 473.92,36.33 596.16,147.81 -222.28,-122.63 -417.69,-123.58 -526.13,-89.01 237.28,-23.14 366.11,19.3 449.23,82.7 -129.54,-58.85 -275.63,-104.18 -491.42,-47.42 165.8,4.31 284.83,51.44 368.9,117.44 -124.43,-56.23 -251.64,-106.11 -412.58,-79.51 140.16,23 220.07,58.98 283.18,98.53 -113.81,-43.4 -230.54,-78.99 -367.1,-60.36 122.76,20.81 186.62,56.23 209.72,101.7 -94.54,-58.45 -199.1,-98 -339.12,-69.85 89.29,29.04 134.9,66.54 160.83,108.02 -96.77,-54.71 -193.5,-106.96 -290.23,-82.69 40.22,33.76 62.44,61.31 66.43,82.69 -88.76,-80.78 -131.59,-70.31 -230.82,-20.81 -147.75,52.49 -340.65,397.16 -405.7,682.13 182.74,-105.45 329.92,-170.32 398.64,-146.23 64.91,-46.42 161.82,-89.28 255.23,-129.4 -6.06,-6.35 2.47,-14.74 7.06,-23.28l59.62 0c96.2,-154.62 85.62,-146.33 181.79,-143.05 -14.04,16.93 -46.71,24.27 -44.67,50.87 87.81,-64.35 153.25,-48.93 212.52,-22.22 -50.73,-0.92 -97.02,3.17 -111.9,41.38 147.32,-35.7 238.83,-10.48 314.74,31.68 247.51,56.37 343.54,112.18 441.54,220.2 28.51,18.91 86.4,75.81 93.56,88.19 -131.34,-89.43 -261.55,-179.95 -465.25,-197.06 348.94,90.84 389.19,188.95 500.38,286.92 -127.6,-110.07 -261.26,-197.74 -367.38,-217.03 276.02,150.35 305.37,205.46 329.5,257.52 -109.96,-122.76 -287.06,-225.56 -476.39,-257.52 246.8,101.84 330.87,203.55 391.61,305.21 -116.55,-113.94 -233.15,-225.31 -349.74,-254.24 117.4,63.26 188.38,161.22 227.4,282.92 -90.56,-140.29 -195.02,-261.96 -349.74,-317.91 142.34,100.19 206.12,204.93 234.24,311.56 -99.06,-163.68 -198.15,-258.22 -297.25,-305.21 115.64,108.87 162.63,199.95 178.47,282.92 -84.6,-112.74 -160.94,-252.58 -269.42,-286.1 72.22,75.11 97.72,141.26 105.84,203.38 -77.97,-112.43 -154.59,-231.63 -210.68,-238.37 68.9,106.36 60.61,166.05 62.97,232.06 -44.52,-115.75 -87.67,-237.99 -153.92,-247.94 20.39,89.33 -6.77,126.93 -24.41,174.87 5.12,-94.65 -23.57,-173.07 -75.39,-235.33 -22.43,59.09 -38.7,113.38 -53.97,133.52 11.67,-63.81 10.3,-123.61 0.81,-155.18l-49.88 2.64c-16.27,20.11 -39.3,52.92 -52.92,64.35 0,-9.24 1.62,-23.04 3.99,-32.95 -61.32,24.13 -131.59,48.22 -185.35,86.25 27.97,5.26 55.95,10.48 83.92,15.88 -90.13,8.54 -118.39,-19.3 -143.47,25.33 175.33,14.64 257.56,42.47 297.39,76.37 -112.89,-23.56 -226.84,-55.7 -332.25,-25.4 210.58,30.06 347.56,86.86 451.21,155.75 -146.94,-49.49 -299.34,-114.36 -423.23,-101.7 250.82,88.89 354.72,168.79 391.65,244.75 -99.09,-75.81 -187.68,-158.89 -353.2,-187.56 257.28,166.99 341.63,257.83 377.72,327.4 -152.68,-138.47 -308.12,-245.96 -460.83,-300.25 229.05,151.59 364.91,301.24 387.35,459.32 -130.6,-159.21 -260.42,-324.98 -405.7,-378.32 177.52,220.62 221.19,375.39 227.26,511.81 -92.43,-176.64 -186.16,-352.08 -314.75,-489.62 93.17,217.06 134.66,391.93 113.84,524.61 -69.32,-196.92 -142.48,-371.08 -204.61,-464.25 18.03,191.7 44.1,393.84 10.45,518.3 -32.67,-148.42 -63.26,-293.94 -95.93,-442.39 -7.02,23.46 -17.07,49.5 -24.09,72.78 23.28,12.81 32.53,19.86 25.47,32.53 -12.1,-1.52 -22.05,-9.53 -38.98,-11.01 -1.24,20.25 -17.78,45.86 -18.87,66.15 3.42,6.35 8.96,11.71 12.52,18.02 -14.61,1.52 -25.22,6.92 -31.54,15.88 -41.2,161.08 -63.53,317.89 -81.74,473.6l-11.85 796.93 -145.34 25.5 -13.79 -822.43zm-175.44 -578.62l0 0 5.51 51.68 21.9 -39.16 -4.55 -17.5 -7.3 -4.12 -15.56 9.1zm351.4 23.28c1.8,0 -14.61,104.85 -14.61,104.85l30.16 39.16 5.54 -139.74 -11.99 -7.58 -9.1 3.31 0 0zm-11.05 164.68l-24.66 179.84 16.41 -0.84 32.1 -154.73 -23.85 -24.27 0 0zm138.22 -370.98l0 0 -11.82 2.47 2.76 76.65 28.22 -40.81 -19.16 -38.31zm-241.53 -13.23l0 0 -18.35 20.81 6.49 22.33 14.61 2.61 12.8 -19.15 -15.55 -26.6zm-171.17 19.05l15.59 3.42 19.26 -3.46 26.46 -25.61 0 -20.95 -11.82 -1.66 -49.49 48.26 0 0zm-94.26 -69.08l0 0 -59.38 49.22 32.92 21.62 39.3 -32.52 0.95 -23.29 -13.79 -15.03zm36.68 -24.94l16.37 14.22 43.96 -39.16 -7.3 -5.75 -53.03 30.69 0 0zm-367.94 84.92l91.47 -1.66c1.52,-4.41 3.04,-8.82 4.69,-13.37 -22.43,-8.4 -45.61,-13.37 -70.55,-10.73 -8.54,8.51 -17.08,17.18 -25.61,25.76l0 0zm50.27 -40.82l0 0 73.34 6.77 5.5 -10.05c-19.63,-5.13 -39.5,-9.28 -59.55,-12.42l-19.29 15.7zm28.4 -24.94l0 0c0.98,1.66 1.94,3.31 2.75,5.11 44.66,1.77 89.85,3.18 124.46,14.04 25.47,-33.33 56.9,-60.32 97.01,-78.1 1.91,-7.87 1.91,-15.59 -10.9,-23.45 -73.73,13.4 -144.57,42.46 -213.32,82.4zm253.57 -95.59l0 0 8.26 9.87 24.69 -11.53 -7.34 -8.43 -25.61 10.09zm-61.35 -122.24l0 0 0.99 13.23 48.51 2.47 0 -11.57 -49.5 -4.13zm-90.66 -112.47l0 0 27.55 28.4c52.86,-1.42 105.75,0.51 158.37,5.79 -10.76,-26.89 -72.78,-38.32 -185.92,-34.19zm-388.87 -302.05l32.92 18.88 27.69 -78.57 -60.61 59.69 0 0zm69.32 39.41l53.59 34.57 19.02 -147.85 -72.61 113.28 0 0zm81.29 53.45c82.4,52.52 152.29,116.48 216.35,185.63 63.82,-7.98 124.15,-6.21 183.41,-1.48 -26.74,-70.03 -77.71,-157.13 -164.39,-269.17 -1.1,10.61 -2.37,21.09 -3.42,31.57 -41.1,-59.13 -75.15,-109.71 -116.07,-147.89 -3.95,82.84 -9.24,160.41 5.22,226.56 -31.25,-48.08 -51.78,-119.17 -69.14,-196.78 -20,52.39 -41.49,101.85 -51.96,171.56l0 0zm176.52 -212.38l0 0c120.3,142.24 217.74,277.85 273.41,407.53 20.11,3.18 40.39,7.83 60.64,11.01 -36.37,-129.26 -97.72,-264.58 -157.52,-398.11 -44.52,-28.22 -86.53,-41.88 -126.36,-40.92 47.55,39.97 85.02,82.41 100.33,130.63 -46.74,-45.61 -99.24,-81.32 -150.5,-110.1l0 -0.04zm110.39 -31.25c17.78,6.91 37.89,16.15 50.31,23.56 -1.66,-7.86 -9.53,-16.08 -11.19,-23.85 -9.06,-2.89 -21.06,-3.7 -31.11,-2.75 -2.79,0.29 -5.4,2.75 -8.01,3.04l0 0zm-87.1 -481.33c21.09,-12.99 35.84,-20.68 48.79,-20.53 -3.04,-11.72 -8.01,-20.68 -21.1,-26.75 -17.36,15.7 -24.8,31.4 -27.69,47.28l0 0zm56.65 36.79l0 0c42.28,-22.78 88.55,-37.2 136.28,-42.47 -30.05,-51.93 -119.87,9.38 -136.28,42.47zm-201.33 -550.26l-0.03 0c22.61,-3.04 45.37,-0.81 68.08,3.84 -0.38,-3.56 -0.67,-7.02 -1.09,-10.47 -46.04,-14.33 -68.37,-12.1 -66.96,6.63l0 0zm1190.2 -219.25c22.33,0.56 49.17,-14.33 73.87,-30.34 -13.55,-17.75 -44.38,-10.16 -73.87,30.34l0 0zm241.15 839.36c5.79,6.63 92.86,-53.2 84.74,-58.14 -32.77,-8.43 -61.03,7.84 -84.74,58.14l0 0zm-763.16 179.42c-13.9,0 -15.98,739.36 -5.08,739.36 62.26,-378.57 161.89,-639.87 257.81,-722.14 -1.24,-15.13 -2.37,-30.3 -3.42,-45.61 -9.25,-3.6 -18.49,-7.31 -27.73,-11.01 -65.16,69.32 -83.36,138.5 -88.34,207.68 -9.77,-61.35 -2.32,-127.88 43.29,-206.02 -43.39,-7.73 -96.2,33.9 -162.59,147.85 7.02,-46.71 46.56,-96.88 95.07,-147.85 -16.12,-4.02 -46.71,3.88 -109.01,37.74l0 0zm39.83 803.81l0 0c8.11,4.83 16.12,9.52 24.27,14.22 5.79,-4.7 11.57,-9.39 17.22,-14.22 85.97,-265.01 188.24,-516.08 404.98,-670.14 -23.7,-43.53 -57.15,-79.66 -100.33,-108.44 5.12,48.08 10.34,96.45 15.6,144.67 -19.72,-48.61 -39.27,-98.78 -58.85,-165.2l-53.76 33.05c9.53,55.95 21.94,93.73 34.75,129.01 -21.38,-20 -40.92,-56.23 -58.84,-108.62 -114.8,135.61 -189.2,458.23 -225.04,745.67z"/>
   <path class="fil0" d="M5232.37 4743.81l-4864.72 0.42c433.81,908.54 1361.79,1538.57 2432.39,1538.57 1070.57,0 1998.55,-630.06 2432.33,-1538.99z"/>
  </g>
 </g>
</svg>
