<?xml version="1.0" encoding="UTF-8" standalone="no"?>
<!-- Created with Inkscape (http://www.inkscape.org/) -->

<svg
   xmlns:dc="http://purl.org/dc/elements/1.1/"
   xmlns:cc="http://creativecommons.org/ns#"
   xmlns:rdf="http://www.w3.org/1999/02/22-rdf-syntax-ns#"
   xmlns:svg="http://www.w3.org/2000/svg"
   xmlns="http://www.w3.org/2000/svg"
   version="1.0"
   width="774.13971"
   height="891.16077"
   id="svg3323">
  <metadata
     id="metadata3103">
    <rdf:RDF>
      <cc:Work
         rdf:about="">
        <dc:format>image/svg+xml</dc:format>
        <dc:type
           rdf:resource="http://purl.org/dc/dcmitype/StillImage" />
        <dc:title></dc:title>
      </cc:Work>
    </rdf:RDF>
  </metadata>
  <defs
     id="defs3325">
    <style
       type="text/css"
       id="style6" />
    <style
       type="text/css"
       id="style4326" />
  </defs>
  <g
     transform="translate(634.92698,-206.94791)"
     id="layer1">
    <g
       id="g4935">
      <path
         d="m -629.66719,212.23547 763.61663,0 0,515.83226 -0.002,0 c 0,0.0605 0.002,0.1215 0.002,0.18201 0,200.80035 -171.515939,364.57336 -381.80881,364.57336 -210.29337,0 -381.80931,-163.77301 -381.80931,-364.57336 0,-0.0605 0.002,-0.1215 0.002,-0.18201 l -0.002,0 0,-515.83226 10e-4,0 z"
         id="_75617888"
         style="fill:#28156e;fill-opacity:1" />
      <path
         d="m 139.19187,212.23547 -5.23995,5.28756 -763.61663,0 0,-10.57512 763.61663,0 5.23995,5.28756 0,0 z m -5.23995,-5.28756 5.23995,0 0,5.28756 -5.23995,-5.28756 z m 0,526.4054 -5.23995,-5.28756 0,-515.83226 10.4799,0 0,515.83226 -5.23995,5.28756 z m 5.23995,-5.28756 0,5.28756 -5.23995,0 5.23995,-5.28756 z m -10.50321,0 5.26078,-5.28756 0.002,0 0,10.57512 -0.002,0 -5.26078,-5.28756 0,0 z m 0,0 0,-5.28756 5.26078,0 -5.26078,5.28756 z m 10.50321,0.182 -10.4799,0 -0.0208,0 0,-0.005 0,-0.006 0,-0.005 0,-0.006 0,-0.005 0.0208,0.24201 -5e-4,-0.005 -0.0208,-0.25391 0,-0.005 0,-0.006 0.0208,0.24251 -5e-4,-0.006 -0.0208,-0.25342 0,-0.006 0,-0.005 0.0208,0.24251 -4.9e-4,-0.006 -0.0208,-0.25342 0,-0.006 0.0208,0.24251 -5e-4,-0.006 -0.0208,-0.25342 0,-0.006 0,-0.005 0.0208,0.24202 -4.9e-4,-0.005 -0.0208,-0.25391 0,-0.005 0,-0.006 0,-0.005 0,-0.006 0,-0.005 10.52156,0 0,0.005 0,0.006 0,0.005 0,0.006 0,0.005 -0.0208,-0.24201 5e-4,0.005 0.0208,0.25391 0,0.005 0,0.006 -0.0208,-0.24251 4.9e-4,0.006 0.0208,0.25342 0,0.006 -0.0208,-0.2425 5e-4,0.006 0.0208,0.25341 0,0.005 0,0.006 -0.0208,-0.24251 4.9e-4,0.006 0.0208,0.25342 0,0.006 0,0.005 -0.0208,-0.24201 5e-4,0.005 0.0208,0.25392 0,0.005 0,0.006 0,0.005 0,0.006 0,0.005 -0.0208,0 z m 0.0208,0 -0.0104,0 -0.0104,0 0.0208,0 0,0 z m -387.06959,369.86095 0,-10.5751 0,0 19.35102,-0.4553 19.0991,-1.3915 18.82286,-2.3051 18.50299,-3.1744 18.21933,-4.02 17.85035,-4.864 17.47642,-5.6635 17.10101,-6.4604 16.678483,-7.2143 16.232644,-7.965 15.762009,-8.6713 15.288401,-9.376 14.769662,-10.037 14.2261277,-10.6936 13.6796172,-11.30865 13.0874821,-11.92007 12.492371,-12.50824 11.830806,-13.03144 11.186598,-13.59482 10.518586,-14.09222 9.805445,-14.58766 9.067507,-15.03994 8.326594,-15.48826 7.560389,-15.89393 6.749548,-16.29661 5.91541,-16.65468 5.07629,-17.03208 4.21388,-17.34401 3.32618,-17.63363 2.39433,-17.94061 1.45901,-18.18312 0.49841,-18.44448 10.4799,0 -0.4984,18.98107 -1.49968,18.76137 -2.47666,18.47819 -3.4085,18.21189 -4.33687,17.8806 -5.24094,17.528 -6.12072,17.19226 -6.95585,16.79155 -7.7657,16.38985 -8.572578,15.94253 -9.355144,15.49421 -10.093082,15.00126 -10.806223,14.50484 -11.515893,13.96676 -12.200767,13.44504 -12.820673,12.83853 -13.457443,12.2504 -14.0495779,11.6388 -14.6377461,10.9833 -15.180289,10.3257 -15.699027,9.6239 -16.214294,8.9192 -16.684927,8.1714 -17.130765,7.4205 -17.552301,6.6261 -17.97037,5.8291 -18.3433,4.988 -18.67161,4.144 -19.03661,3.2567 -19.3168,2.3458 -19.59205,1.4332 -19.84397,0.4969 0,0 0,0 z m 0,0 0,0 0,0 0,0 z m -387.07009,-369.86095 10.52156,0 -0.0208,0 0.49841,18.44448 1.45901,18.18312 2.39433,17.94061 3.32618,17.63363 4.21388,17.34401 5.0763,17.03208 5.9154,16.65468 6.74955,16.29661 7.56039,15.89393 8.32659,15.48826 9.06751,15.03994 9.80544,14.58766 10.51859,14.09222 11.1866,13.59482 11.8308,13.03144 12.49238,12.50824 13.08748,11.92007 13.67961,11.30865 14.22613,10.6936 14.76966,10.037 15.2884,9.376 15.76251,8.6713 16.23264,7.965 16.67848,7.2143 17.10052,6.4604 17.47692,5.6635 17.84986,4.864 18.21932,4.02 18.50299,3.1744 18.82336,2.3051 19.09909,1.3915 19.35103,0.4553 0,10.5751 -19.84398,-0.4969 -19.59204,-1.4332 -19.3173,-2.3458 -19.03661,-3.2567 -18.67161,-4.144 -18.3428,-4.988 -17.97087,-5.8291 -17.5518,-6.6261 -17.13077,-7.4205 -16.68493,-8.1714 -16.21479,-8.9192 -15.69902,-9.6239 -15.18029,-10.3257 -14.63775,-10.9833 -14.04958,-11.6388 -13.45744,-12.2504 -12.82067,-12.83853 -12.20077,-13.44504 -11.51589,-13.96676 -10.80622,-14.50484 -10.09309,-15.00126 -9.35514,-15.49421 -8.57257,-15.94253 -7.76571,-16.38985 -6.95585,-16.79155 -6.12072,-17.19226 -5.24094,-17.528 -4.33687,-17.8806 -3.4085,-18.21189 -2.47665,-18.47819 -1.49968,-18.76137 -0.49841,-18.98107 -0.0208,0 0,0 z m 0.0208,0 -0.0104,0 -0.0104,0 0.0208,0 z m 5.24243,5.10556 0,-10.57512 5.26078,5.28756 0,0.005 0,0.006 0,0.005 0,0.006 0,0.005 -0.0208,0.25391 -4.9e-4,0.005 0.0208,-0.24202 0,0.005 0,0.006 -0.0208,0.25342 -5e-4,0.006 0.0208,-0.24251 0,0.006 -0.0208,0.25342 -4.9e-4,0.006 0.0208,-0.24251 0,0.005 0,0.006 -0.0208,0.25342 -5e-4,0.006 0.0208,-0.24251 0,0.006 0,0.005 -0.0208,0.25391 -5e-4,0.005 0.0208,-0.24201 0,0.005 0,0.006 0,0.005 0,0.006 0,0.005 -10.52156,0 0,-0.005 0,-0.006 0,-0.005 0,-0.006 0,-0.005 0.0208,-0.25392 5e-4,-0.005 -0.0208,0.24201 0,-0.005 0,-0.006 0.0208,-0.25342 4.9e-4,-0.006 -0.0208,0.24251 0,-0.006 0,-0.005 0.0208,-0.25341 5e-4,-0.006 -0.0208,0.2425 0,-0.006 0.0208,-0.25342 4.9e-4,-0.006 -0.0208,0.24251 0,-0.006 0,-0.005 0.0208,-0.25391 5e-4,-0.005 -0.0208,0.24201 0,-0.005 0,-0.006 0,-0.005 0,-0.006 0,-0.005 5.26078,5.28756 0,0 z m 0,-10.57512 5.26078,0 0,5.28756 -5.26078,-5.28756 z m -5.24243,5.28756 5.23995,-5.28756 0.002,0 0,10.57512 -0.002,0 -5.23995,-5.28756 0,0 z m 5.23995,5.28756 -5.23995,0 0,-5.28756 5.23995,5.28756 z m 0,-526.4054 5.23995,5.28756 0,515.83226 -10.4799,0 0,-515.83226 5.23995,-5.28756 0,0 z m -5.23995,5.28756 0,-5.28756 5.23995,0 -5.23995,5.28756 z"
         id="_756178881"
         style="fill:#000000;fill-rule:nonzero" />
      <path
         d="m -567.48504,294.82447 c -1.98618,1.60234 -2.50442,4.05717 -2.53715,6.36422 l 0.0987,10.52702 9.91554,-0.0337 c 2.73354,-0.0293 5.78993,-1.94254 7.45079,-3.9679 l 0.0977,24.55825 c -1.87807,-1.65392 -4.25504,-2.48211 -6.60077,-2.54757 l -10.86871,-0.004 -0.11605,11.8199 11.47275,-0.0129 c 2.80198,0.006 5.24144,-1.90435 6.63499,-2.98101 l -0.0178,23.72014 c -2.32242,-2.12009 -5.13878,-2.28473 -6.85568,-2.26589 l -11.38893,-0.0188 0.0114,9.78907 c 0.27326,2.51385 2.78562,5.96599 4.21934,6.76344 l -26.0733,-0.0446 c 2.02685,-1.16592 3.35643,-3.73482 3.47941,-5.93475 l -0.002,-10.43279 -11.52383,0.0273 c -2.3368,0.23259 -4.8442,1.47488 -6.51398,2.87091 l -0.0679,-24.44567 c 1.43818,1.79972 4.1747,3.34552 6.32553,3.2384 l 11.78518,-0.27177 -0.17655,-11.68699 -11.69889,0.0149 c -2.50988,0.1096 -4.10527,1.3762 -6.2437,2.88381 l 0.003,-23.94875 c 2.15529,2.00949 4.16875,3.10201 7.00446,2.91654 l 11.07551,-0.0709 0.0218,-10.15111 c 0.0848,-2.87835 -1.68863,-5.2087 -3.24088,-6.88444 l 24.33012,0.21027 0,0 z"
         id="_75617816"
         style="fill:#000000" />
      <path
         d="m -572.13583,314.00887 12.49931,-0.0357 c 2.26688,0.0565 4.0423,-1.15055 4.86157,-2.37499 l 0.0769,16.65815 c -1.46546,-0.57577 -3.32667,-0.78703 -4.82585,-0.93482 l -12.78001,-0.003 0.0545,16.75188 13.01211,-0.0337 c 2.00354,-0.059 3.7115,-0.45377 4.61409,-1.76401 l 0.0536,16.25496 c -1.34842,-0.98243 -3.04945,-0.99383 -4.98554,-1.01913 l -12.67587,-0.0615 -0.0823,12.0872 c 0.15572,1.71392 0.6328,3.44817 2.18257,4.3701 l -17.75514,0.058 c 1.28247,-0.95218 1.71442,-2.75784 1.61871,-4.32547 l -0.0159,-12.14869 -13.30718,-0.0233 c -1.90684,0.0556 -3.469,1.09798 -4.72717,1.94403 l -0.0114,-16.81238 c 1.54778,1.16989 3.15458,1.461 4.65277,1.5096 l 13.39546,0.12448 -0.0546,-16.75139 -13.19113,0.0109 c -1.78235,0.063 -3.65249,0.66306 -4.75345,1.73327 l 0.065,-17.16896 c 1.02855,1.24527 2.82182,1.98569 4.6741,2.01198 l 13.2799,-0.10365 0.0734,-11.69691 c -0.23557,-2.06057 -0.57527,-3.98476 -1.80368,-4.88338 l 17.11836,0.10067 c -1.14658,0.52916 -1.40843,2.85951 -1.45306,4.90917 l 0.18994,11.61657 0,0 z"
         id="_75617744"
         style="fill:#c0a061;fill-opacity:1" />
      <path
         d="m -537.76668,810.198 c -1.98619,1.60234 -2.50443,4.05717 -2.53766,6.36422 l 0.0987,10.52702 9.91604,-0.0332 c 2.73354,-0.0293 5.78944,-1.94304 7.45079,-3.9684 l 0.0972,24.55825 c -1.87757,-1.65391 -4.25504,-2.48211 -6.60077,-2.54757 l -10.86822,-0.004 -0.11604,11.8199 11.47275,-0.0129 c 2.80198,0.006 5.24094,-1.90435 6.63449,-2.98101 l -0.0174,23.72014 c -2.32291,-2.12009 -5.13878,-2.28473 -6.85568,-2.26589 l -11.38893,-0.0188 0.0114,9.78908 c 0.27275,2.51384 2.78511,5.96648 4.21884,6.76343 l -26.07281,-0.0441 c 2.02685,-1.16641 3.35643,-3.73531 3.47942,-5.93524 l -0.002,-10.43279 -11.52382,0.0273 c -2.33681,0.23259 -4.8447,1.47488 -6.51448,2.87091 l -0.0675,-24.44567 c 1.43818,1.79972 4.1747,3.34552 6.32553,3.2384 l 11.78518,-0.27177 -0.17655,-11.68699 -11.69938,0.0149 c -2.50939,0.1096 -4.10478,1.3762 -6.24321,2.88381 l 0.003,-23.94875 c 2.1553,2.00949 4.16876,3.10201 7.00446,2.91654 l 11.07551,-0.0709 0.0218,-10.15111 c 0.0843,-2.87835 -1.68863,-5.2087 -3.24087,-6.88444 l 24.33012,0.21027 0,0 z"
         id="_75539008"
         style="fill:#000000" />
      <path
         d="m -542.41748,829.38537 12.49932,-0.0357 c 2.26688,0.0565 4.04179,-1.15055 4.86156,-2.37499 l 0.0769,16.65815 c -1.46596,-0.57528 -3.32667,-0.78704 -4.82635,-0.93482 l -12.77951,-0.003 0.0541,16.75188 13.0126,-0.0337 c 2.00304,-0.059 3.71151,-0.45377 4.61409,-1.764 l 0.0531,16.25496 c -1.34793,-0.98243 -3.04896,-0.99384 -4.98505,-1.01913 l -12.67636,-0.0615 -0.0818,12.0872 c 0.15572,1.71392 0.6328,3.44818 2.18208,4.3701 l -17.75464,0.058 c 1.28197,-0.95218 1.71392,-2.75785 1.6187,-4.32497 l -0.0159,-12.14919 -13.30718,-0.0233 c -1.90683,0.0555 -3.469,1.09798 -4.72716,1.94403 l -0.0119,-16.81238 c 1.54828,1.16989 3.15458,1.46099 4.65327,1.50959 l 13.39495,0.12448 -0.054,-16.75138 -13.19163,0.0109 c -1.78236,0.063 -3.652,0.66305 -4.75345,1.73326 l 0.0655,-17.16895 c 1.02855,1.24527 2.82182,1.98569 4.6741,2.01197 l 13.27991,-0.10365 0.0729,-11.6969 c -0.23507,-2.06058 -0.57478,-3.98477 -1.80319,-4.88338 l 17.11787,0.10067 c -1.14608,0.52915 -1.40843,2.85951 -1.45306,4.90917 l 0.19043,11.61656 0,0 z"
         id="_75538936"
         style="fill:#c0a061;fill-opacity:1" />
      <path
         d="m -358.76772,222.96334 c -1.98618,1.60233 -2.50443,4.05717 -2.53716,6.36421 l 0.0987,10.52652 9.91554,-0.0332 c 2.73404,-0.0293 5.78994,-1.94254 7.45129,-3.9679 l 0.0972,24.55775 c -1.87807,-1.65342 -4.25504,-2.48162 -6.60077,-2.54758 l -10.86822,-0.004 -0.11654,11.8194 11.47275,-0.0129 c 2.80247,0.007 5.24144,-1.90435 6.63499,-2.98051 l -0.0174,23.71963 c -2.32292,-2.12008 -5.13928,-2.28423 -6.85617,-2.26539 l -11.38894,-0.0193 0.0119,9.78908 c 0.27276,2.51385 2.78512,5.96649 4.21884,6.76393 l -26.0728,-0.0446 c 2.02685,-1.16592 3.35643,-3.73531 3.47942,-5.93474 l -0.002,-10.43279 -11.52383,0.0268 c -2.3368,0.23259 -4.8442,1.47488 -6.51399,2.87091 l -0.0674,-24.44567 c 1.43818,1.79972 4.1747,3.34601 6.32504,3.2384 l 11.78518,-0.27177 -0.17655,-11.68699 -11.69889,0.0149 c -2.50939,0.1096 -4.10528,1.37669 -6.24321,2.88381 l 0.003,-23.94876 c 2.1553,2.0095 4.16826,3.10202 7.00446,2.91654 l 11.07551,-0.0704 0.0218,-10.1516 c 0.0843,-2.87786 -1.68912,-5.20821 -3.24087,-6.88394 l 24.32962,0.21027 0,0 z"
         id="_75538840"
         style="fill:#000000" />
      <path
         d="m -363.41802,242.14724 12.49882,-0.0352 c 2.26688,0.0565 4.04229,-1.15105 4.86206,-2.37549 l 0.0769,16.65815 c -1.46596,-0.57528 -3.32717,-0.78704 -4.82635,-0.93482 l -12.77952,-0.002 0.0541,16.75188 13.0121,-0.0342 c 2.00354,-0.059 3.71201,-0.45328 4.61409,-1.76401 l 0.0536,16.25496 c -1.34792,-0.98193 -3.04895,-0.99384 -4.98554,-1.01863 l -12.67586,-0.0615 -0.0823,12.0872 c 0.15621,1.71392 0.6328,3.44817 2.18256,4.3701 l -17.75463,0.058 c 1.28196,-0.95267 1.71391,-2.75834 1.6187,-4.32546 l -0.0159,-12.14919 -13.30768,-0.0228 c -1.90633,0.0555 -3.4685,1.09798 -4.72716,1.94402 l -0.0114,-16.81287 c 1.54828,1.17038 3.15459,1.461 4.65328,1.5096 l 13.39495,0.12447 -0.0546,-16.75138 -13.19113,0.0114 c -1.78236,0.0625 -3.652,0.66305 -4.75345,1.73326 l 0.0655,-17.16895 c 1.02855,1.24477 2.82132,1.98569 4.6741,2.01147 l 13.2799,-0.10315 0.0729,-11.6974 c -0.23557,-2.06057 -0.57478,-3.98427 -1.80369,-4.88289 l 17.11837,0.10068 c -1.14658,0.52915 -1.40843,2.8595 -1.45306,4.90917 l 0.19043,11.61607 0,0 z"
         id="_75538768"
         style="fill:#c0a061;fill-opacity:1" />
      <path
         d="m -108.22551,222.43319 c -1.98618,1.60234 -2.50443,4.05717 -2.53716,6.36422 l 0.0987,10.52652 9.91554,-0.0332 c 2.733545,-0.0293 5.789936,-1.94254 7.451287,-3.9679 l 0.0972,24.55775 c -1.878071,-1.65342 -4.255043,-2.48161 -6.600772,-2.54757 l -10.868215,-0.004 -0.11654,11.8194 11.472746,-0.0129 c 2.802476,0.007 5.241439,-1.90386 6.634991,-2.98052 l -0.01736,23.72013 c -2.322916,-2.12057 -5.139279,-2.28473 -6.856174,-2.26588 l -11.388933,-0.0188 0.0119,9.78908 c 0.27276,2.51336 2.78512,5.96599 4.21884,6.76344 l -26.07329,-0.0446 c 2.02684,-1.16592 3.35642,-3.73532 3.47991,-5.93475 l -0.002,-10.43279 -11.52383,0.0273 c -2.3368,0.23209 -4.8442,1.47438 -6.51399,2.87042 l -0.0674,-24.44518 c 1.43769,1.79922 4.17421,3.34552 6.32504,3.2384 l 11.78518,-0.27227 -0.17655,-11.68649 -11.69889,0.0144 c -2.50988,0.1101 -4.10528,1.37669 -6.24321,2.88381 l 0.003,-23.94875 c 2.1553,2.00999 4.16826,3.10202 7.00446,2.91654 l 11.07501,-0.0704 0.0218,-10.1516 c 0.0848,-2.87786 -1.68862,-5.20822 -3.24037,-6.88395 l 24.32962,0.21027 0,0 z"
         id="_75538672"
         style="fill:#000000" />
      <path
         d="m -112.87729,241.61709 12.49931,-0.0352 c 2.266876,0.0565 4.04229,-1.15055 4.862055,-2.37499 l 0.07687,16.65765 c -1.465957,-0.57527 -3.327166,-0.78703 -4.826355,-0.93482 l -12.77951,-0.002 0.0541,16.75188 13.0121,-0.0342 c 2.00354,-0.059 3.711509,-0.45327 4.614094,-1.76401 l 0.05356,16.25496 c -1.348422,-0.98193 -3.049448,-0.99383 -4.985544,-1.01863 l -12.67586,-0.0615 -0.0823,12.0872 c 0.15572,1.71392 0.6328,3.44817 2.18257,4.3701 l -17.75464,0.058 c 1.28197,-0.95267 1.71392,-2.75834 1.61871,-4.32547 l -0.0159,-12.14919 -13.30768,-0.0228 c -1.90634,0.0555 -3.469,1.09798 -4.72716,1.94403 l -0.0114,-16.81288 c 1.54828,1.17039 3.15459,1.461 4.65278,1.5101 l 13.39545,0.12398 -0.0545,-16.75138 -13.19113,0.0114 c -1.78236,0.0625 -3.652,0.66306 -4.75345,1.73326 l 0.065,-17.16895 c 1.02855,1.24527 2.82182,1.98569 4.67411,2.01148 l 13.2799,-0.10315 0.0734,-11.69741 c -0.23556,-2.06007 -0.57477,-3.98426 -1.80368,-4.88288 l 17.11837,0.10067 c -1.14658,0.52915 -1.40843,2.85951 -1.45306,4.90917 l 0.18994,11.61607 0,0 z"
         id="_75538600"
         style="fill:#c0a061;fill-opacity:1" />
      <path
         d="m -361.51019,977.56304 c -1.98618,1.60234 -2.50443,4.05717 -2.53716,6.36422 l 0.0987,10.52702 9.91554,-0.0337 c 2.73355,-0.0293 5.78994,-1.94254 7.45079,-3.9679 l 0.0977,24.55772 c -1.87807,-1.6534 -4.25504,-2.4816 -6.60077,-2.5476 l -10.86822,0 -0.11654,11.8194 11.47275,-0.013 c 2.80198,0.01 5.24144,-1.9039 6.63499,-2.9805 l -0.0174,23.7201 c -2.32291,-2.1206 -5.13928,-2.2847 -6.85617,-2.2659 l -11.38894,-0.019 0.0119,9.789 c 0.27276,2.5134 2.78512,5.966 4.21884,6.7635 l -26.07329,-0.045 c 2.02684,-1.1659 3.35642,-3.7348 3.47991,-5.9347 l -0.002,-10.4328 -11.52383,0.027 c -2.3368,0.2321 -4.8442,1.4749 -6.51399,2.8709 l -0.0679,-24.4457 c 1.43819,1.7997 4.17471,3.3455 6.32554,3.2384 l 11.78518,-0.2722 -0.17655,-11.6865 -11.69889,0.015 c -2.50988,0.1096 -4.10528,1.3762 -6.24371,2.8838 l 0.003,-23.94917 c 2.15529,2.00999 4.16875,3.10202 7.00445,2.91654 l 11.07551,-0.0704 0.0218,-10.1516 c 0.0848,-2.87786 -1.68862,-5.20822 -3.24087,-6.88395 l 24.33012,0.21027 0,0 z"
         id="_75538504"
         style="fill:#000000" />
      <path
         d="m -366.16098,996.74545 12.49931,-0.0352 c 2.26688,0.0565 4.04229,-1.15055 4.86156,-2.37499 l 0.0774,16.65814 c -1.46596,-0.5758 -3.32717,-0.7875 -4.82635,-0.9348 l -12.78001,0 0.0546,16.7519 13.0121,-0.034 c 2.00354,-0.059 3.71151,-0.4538 4.61409,-1.7645 l 0.0536,16.2549 c -1.34842,-0.9819 -3.04944,-0.9933 -4.98554,-1.0186 l -12.67586,-0.062 -0.0823,12.0872 c 0.15572,1.7139 0.6328,3.4482 2.18257,4.3701 l -17.75514,0.058 c 1.28246,-0.9522 1.71442,-2.7578 1.6187,-4.3255 l -0.0159,-12.1491 -13.30718,-0.023 c -1.90633,0.056 -3.469,1.098 -4.72716,1.9441 l -0.0114,-16.8129 c 1.54779,1.1704 3.15459,1.4615 4.65278,1.5101 l 13.39545,0.124 -0.0545,-16.7509 -13.19113,0.011 c -1.78236,0.063 -3.65249,0.663 -4.75345,1.7333 l 0.065,-17.16898 c 1.02855,1.24527 2.82181,1.98568 4.6741,2.01147 l 13.2799,-0.10315 0.0734,-11.69691 c -0.23557,-2.06057 -0.57478,-3.98476 -1.80369,-4.88338 l 17.11837,0.10067 c -1.14658,0.52916 -1.40843,2.85951 -1.45306,4.90917 l 0.18994,11.61607 0,0 z"
         id="_75538432"
         style="fill:#c0a061;fill-opacity:1" />
      <path
         d="m -108.21063,977.49857 c -1.98619,1.60234 -2.50443,4.05717 -2.53716,6.36422 l 0.0987,10.52702 9.91554,-0.0337 c 2.733543,-0.0293 5.789934,-1.94254 7.450789,-3.9679 l 0.0977,24.55819 c -1.878071,-1.6539 -4.255044,-2.4821 -6.600773,-2.5475 l -10.868216,0 -0.11654,11.8199 11.472747,-0.013 c 2.802477,0.01 5.24144,-1.9044 6.634992,-2.981 l -0.01736,23.7201 c -2.322916,-2.1206 -5.139279,-2.2847 -6.856174,-2.2659 l -11.388935,-0.019 0.0119,9.7891 c 0.27276,2.5138 2.78512,5.966 4.21884,6.7634 l -26.0733,-0.045 c 2.02685,-1.166 3.35643,-3.7349 3.47991,-5.9348 l -0.002,-10.4328 -11.52382,0.027 c -2.33681,0.2326 -4.84421,1.4749 -6.51399,2.8709 l -0.0674,-24.4456 c 1.43768,1.7997 4.1742,3.3455 6.32503,3.2383 l 11.78518,-0.2722 -0.17655,-11.6865 -11.69889,0.015 c -2.50988,0.1096 -4.10527,1.3762 -6.2437,2.8838 l 0.003,-23.94874 c 2.1548,2.00949 4.16826,3.10201 7.00446,2.91604 l 11.07501,-0.0704 0.0218,-10.15111 c 0.0848,-2.87835 -1.68863,-5.20871 -3.24087,-6.88444 l 24.33012,0.21027 0,0 z"
         id="_75538336"
         style="fill:#000000" />
      <path
         d="m -112.86242,996.68594 12.49932,-0.0357 c 2.266873,0.0565 4.042288,-1.15055 4.862053,-2.37499 l 0.07687,16.65815 c -1.465957,-0.5758 -3.327166,-0.787 -4.826353,-0.9348 l -12.78001,0 0.0546,16.7519 13.012098,-0.034 c 2.00354,-0.059 3.711509,-0.4538 4.614094,-1.7641 l 0.05356,16.255 c -1.348423,-0.9824 -3.049448,-0.9938 -4.985542,-1.0191 l -12.67586,-0.062 -0.0823,12.0872 c 0.15572,1.7139 0.6328,3.4482 2.18257,4.3701 l -17.75513,0.058 c 1.28246,-0.9522 1.71441,-2.7578 1.61919,-4.3255 l -0.0159,-12.1487 -13.30767,-0.023 c -1.90634,0.056 -3.469,1.098 -4.72716,1.9441 l -0.0114,-16.8124 c 1.54828,1.1699 3.15458,1.461 4.65278,1.5096 l 13.39545,0.1245 -0.0546,-16.7514 -13.19114,0.011 c -1.78235,0.063 -3.65199,0.663 -4.75344,1.7332 l 0.065,-17.1689 c 1.02855,1.24527 2.82182,1.98569 4.6741,2.01197 l 13.2799,-0.10365 0.0734,-11.6969 c -0.23556,-2.06058 -0.57478,-3.98477 -1.80368,-4.88339 l 17.11837,0.10068 c -1.14658,0.52915 -1.40843,2.85951 -1.45307,4.90917 l 0.18994,11.61656 0,0 z"
         id="_75538264"
         style="fill:#c0a061;fill-opacity:1" />
      <path
         d="m 63.459042,808.97803 c -1.986183,1.60233 -2.504426,4.05667 -2.537653,6.36372 l 0.09869,10.52701 9.916036,-0.0332 c 2.733543,-0.0293 5.789438,-1.94304 7.450789,-3.9684 l 0.0972,24.55824 c -1.877575,-1.65341 -4.255044,-2.48161 -6.600773,-2.54757 l -10.868214,-0.004 -0.116046,11.8194 11.472747,-0.0129 c 2.801981,0.007 5.240944,-1.90435 6.634496,-2.98051 l -0.01736,23.71963 c -2.322916,-2.12008 -5.138783,-2.28423 -6.855678,-2.26539 l -11.388936,-0.0193 0.01141,9.78908 c 0.272759,2.51385 2.785119,5.96649 4.218841,6.76393 l -26.072803,-0.0446 c 2.026849,-1.16592 3.356426,-3.73531 3.479415,-5.93474 l -0.0025,-10.43329 -11.523828,0.0273 c -2.336307,0.23258 -4.844203,1.47488 -6.513985,2.87091 l -0.06745,-24.44567 c 1.438184,1.79971 4.174703,3.34601 6.325037,3.23839 l 11.785677,-0.27176 -0.17655,-11.68699 -11.699385,0.0149 c -2.509385,0.1096 -4.105274,1.37669 -6.24321,2.88381 l 0.003,-23.94876 c 2.155294,2.00949 4.168257,3.10202 7.004456,2.91654 l 11.075511,-0.0709 0.02182,-10.15111 c 0.08431,-2.87786 -1.688627,-5.20821 -3.240875,-6.88444 l 24.33012,0.21077 0,0 z"
         id="_75538168"
         style="fill:#000000" />
      <path
         d="m 58.807258,828.16044 12.498818,-0.0352 c 2.267372,0.0565 4.042291,-1.15105 4.862056,-2.37549 l 0.07687,16.65815 c -1.465957,-0.57527 -3.326671,-0.78703 -4.82635,-0.93482 l -12.779512,-0.002 0.05406,16.75138 13.012597,-0.0337 c 2.003044,-0.059 3.711509,-0.45328 4.613598,-1.76401 l 0.05356,16.25496 c -1.347927,-0.98193 -3.048952,-0.99384 -4.985047,-1.01863 l -12.676359,-0.0615 -0.08183,12.0872 c 0.155721,1.71343 0.632802,3.44818 2.182074,4.3701 l -17.75464,0.058 c 1.281968,-0.95267 1.71392,-2.75833 1.618702,-4.32546 l -0.01587,-12.14919 -13.307177,-0.0228 c -1.906834,0.0555 -3.469001,1.09798 -4.727164,1.94403 l -0.0119,-16.81288 c 1.548281,1.17038 3.154585,1.461 4.653272,1.5096 l 13.394956,0.12448 -0.05406,-16.75139 -13.191626,0.0114 c -1.782357,0.0625 -3.651998,0.66305 -4.753449,1.73326 l 0.06546,-17.16895 c 1.02855,1.24477 2.821818,1.98519 4.674101,2.01147 l 13.279901,-0.10315 0.0729,-11.6974 c -0.235069,-2.06057 -0.574778,-3.98427 -1.803186,-4.88289 l 17.117871,0.10018 c -1.146085,0.52915 -1.408429,2.85951 -1.453063,4.90917 l 0.190436,11.61657 0,0 z"
         id="_75538096"
         style="fill:#c0a061;fill-opacity:1" />
      <path
         d="m -566.32953,549.54436 c -1.98618,1.60234 -2.50443,4.05717 -2.53716,6.36422 l 0.0987,10.52652 9.91554,-0.0332 c 2.73355,-0.0293 5.78994,-1.94254 7.45079,-3.9679 l 0.0977,24.55775 c -1.87807,-1.65342 -4.25504,-2.48161 -6.60077,-2.54757 l -10.86822,-0.004 -0.11654,11.8194 11.47275,-0.0129 c 2.80248,0.007 5.24144,-1.90386 6.63499,-2.98052 l -0.0174,23.72013 c -2.32291,-2.12057 -5.13928,-2.28473 -6.85617,-2.26588 l -11.38894,-0.0189 0.0119,9.78908 c 0.27276,2.51336 2.78512,5.96599 4.21885,6.76344 l -26.0733,-0.0446 c 2.02685,-1.16592 3.35642,-3.73482 3.47991,-5.93475 l -0.002,-10.43279 -11.52383,0.0273 c -2.3368,0.23209 -4.8442,1.47488 -6.51399,2.87091 l -0.0674,-24.44567 c 1.43769,1.79972 4.17421,3.34552 6.32504,3.2384 l 11.78518,-0.27227 -0.17655,-11.68649 -11.69889,0.0149 c -2.50988,0.1096 -4.10528,1.37619 -6.24371,2.88381 l 0.003,-23.94925 c 2.1548,2.00999 4.16826,3.10202 7.00446,2.91654 l 11.07501,-0.0704 0.0218,-10.1516 c 0.0848,-2.87786 -1.68863,-5.20822 -3.24088,-6.88395 l 24.33012,0.21027 0,0 z"
         id="_75538000"
         style="fill:#000000" />
      <path
         d="m -570.98032,568.73173 12.49931,-0.0352 c 2.26688,0.0565 4.04229,-1.15055 4.86206,-2.37499 l 0.0769,16.65815 c -1.46596,-0.57577 -3.32717,-0.78753 -4.82635,-0.93532 l -12.78001,-0.002 0.0546,16.75187 13.0121,-0.0342 c 2.00354,-0.0585 3.71151,-0.45327 4.6141,-1.764 l 0.0536,16.25496 c -1.34843,-0.98194 -3.04945,-0.99334 -4.98555,-1.01864 l -12.67586,-0.0615 -0.0823,12.0872 c 0.15572,1.71392 0.6328,3.44817 2.18257,4.3701 l -17.75514,0.058 c 1.28246,-0.95267 1.71442,-2.75784 1.6192,-4.32546 l -0.0159,-12.14919 -13.30767,-0.0228 c -1.90634,0.0556 -3.46901,1.09798 -4.72717,1.94403 l -0.0114,-16.81287 c 1.54829,1.17038 3.15459,1.46149 4.65278,1.51009 l 13.39545,0.12398 -0.0545,-16.75089 -13.19113,0.0109 c -1.78236,0.0625 -3.65249,0.66305 -4.75345,1.73326 l 0.065,-17.16896 c 1.02855,1.24527 2.82182,1.98569 4.6741,2.01148 l 13.2799,-0.10315 0.0734,-11.69691 c -0.23557,-2.06057 -0.57478,-3.98476 -1.80369,-4.88338 l 17.11837,0.10067 c -1.14658,0.52916 -1.40843,2.85951 -1.45306,4.90917 l 0.18994,11.61607 0,0 z"
         id="_75537928"
         style="fill:#c0a061;fill-opacity:1" />
      <path
         d="m 94.141971,550.17915 c -1.986183,1.60233 -2.504425,4.05717 -2.537156,6.36421 l 0.09869,10.52653 9.915535,-0.0332 c 2.73355,-0.0293 5.78994,-1.94254 7.45079,-3.9679 l 0.0972,24.55775 c -1.87757,-1.65342 -4.25454,-2.48162 -6.60027,-2.54758 l -10.86871,-0.004 -0.116047,11.8194 11.472747,-0.0129 c 2.80198,0.007 5.24094,-1.90386 6.63449,-2.98051 l -0.0173,23.72013 c -2.32242,-2.12058 -5.13879,-2.28473 -6.85568,-2.26589 l -11.388936,-0.0188 0.01141,9.78908 c 0.27276,2.51335 2.785616,5.96599 4.219337,6.76343 l -26.073299,-0.0446 c 2.026849,-1.16592 3.356426,-3.73531 3.479416,-5.93474 l -0.002,-10.43279 -11.523828,0.0273 c -2.336802,0.2321 -4.844203,1.47489 -6.513985,2.87092 l -0.06794,-24.44567 c 1.438185,1.79971 4.174703,3.34551 6.325533,3.23839 l 11.785181,-0.27226 -0.176549,-11.68649 -11.699386,0.0144 c -2.509384,0.11009 -4.104778,1.37669 -6.24321,2.88381 l 0.003,-23.94876 c 2.155293,2.00999 4.168752,3.10202 7.004456,2.91654 l 11.075511,-0.0704 0.02182,-10.1516 c 0.08431,-2.87786 -1.688627,-5.20821 -3.240875,-6.88394 l 24.33012,0.21027 0,0 z"
         id="_75537832"
         style="fill:#000000" />
      <path
         d="m 89.495146,569.36156 12.499314,-0.0352 c 2.26688,0.0565 4.04229,-1.15055 4.86156,-2.37499 l 0.0769,16.65815 c -1.46596,-0.57577 -3.32667,-0.78753 -4.82585,-0.93532 l -12.780013,-0.002 0.05455,16.75188 13.012103,-0.0342 c 2.00304,-0.059 3.71151,-0.45328 4.61409,-1.76401 l 0.0536,16.25496 c -1.34842,-0.98193 -3.04944,-0.99334 -4.98554,-1.01863 l -12.675864,-0.0615 -0.08232,12.08719 c 0.15572,1.71392 0.632801,3.44818 2.182073,4.3701 l -17.754639,0.058 c 1.281968,-0.95268 1.713919,-2.75785 1.618702,-4.32547 l -0.01587,-12.14919 -13.307177,-0.0228 c -1.906835,0.0555 -3.469001,1.09798 -4.727165,1.94403 l -0.01141,-16.81288 c 1.547784,1.17039 3.154584,1.46149 4.652776,1.5101 l 13.395452,0.12398 -0.05455,-16.75139 -13.191131,0.0114 c -1.782357,0.0625 -3.652493,0.66305 -4.753448,1.73326 l 0.06497,-17.16895 c 1.02855,1.24527 2.821818,1.98569 4.674101,2.01148 l 13.279901,-0.10316 0.0734,-11.6974 c -0.235565,-2.06007 -0.575274,-3.98427 -1.803683,-4.88288 l 17.118367,0.10067 c -1.14658,0.52915 -1.408925,2.85951 -1.453062,4.90917 l 0.189939,11.61607 0,0 z"
         id="_75537760"
         style="fill:#c0a061;fill-opacity:1" />
      <path
         d="m 95.233008,295.27428 c -1.986183,1.60234 -2.504426,4.05667 -2.537157,6.36372 l 0.09869,10.52702 9.915539,-0.0332 c 2.73354,-0.0293 5.78993,-1.94304 7.45129,-3.9684 l 0.0972,24.55825 c -1.87807,-1.65342 -4.25505,-2.48162 -6.60077,-2.54757 l -10.868219,-0.004 -0.116542,11.8194 11.472751,-0.0129 c 2.80247,0.007 5.24144,-1.90435 6.63499,-2.98051 l -0.0174,23.71963 c -2.32292,-2.12008 -5.13928,-2.28423 -6.85617,-2.26538 l -11.38894,-0.0193 0.0119,9.78908 c 0.272759,2.51385 2.785119,5.96649 4.218841,6.76394 l -26.073299,-0.0446 c 2.026849,-1.16592 3.356426,-3.73531 3.479911,-5.93474 l -0.0025,-10.43329 -11.523828,0.0273 c -2.336802,0.23259 -4.844203,1.47488 -6.513986,2.87091 l -0.06744,-24.44567 c 1.437688,1.79972 4.174207,3.34601 6.325037,3.2384 l 11.785181,-0.27177 -0.17655,-11.68699 -11.698889,0.0149 c -2.509881,0.1096 -4.105274,1.37669 -6.24321,2.88381 l 0.003,-23.94875 c 2.155294,2.00949 4.168257,3.10201 7.004456,2.91654 l 11.075015,-0.0709 0.02182,-10.15111 c 0.0848,-2.87785 -1.688627,-5.20821 -3.240875,-6.88444 l 24.33012,0.21077 0,0 z"
         id="_75537664"
         style="fill:#000000" />
      <path
         d="m 90.581224,314.45818 12.499316,-0.0352 c 2.26687,0.0565 4.04229,-1.15105 4.86205,-2.37549 l 0.0769,16.65815 c -1.46595,-0.57527 -3.32716,-0.78704 -4.82635,-0.93482 l -12.779509,-0.002 0.05406,16.75138 13.012099,-0.0337 c 2.00354,-0.059 3.71151,-0.45328 4.61409,-1.76401 l 0.0536,16.25496 c -1.34842,-0.98193 -3.04945,-0.99384 -4.98554,-1.01863 l -12.67586,-0.0615 -0.08232,12.0872 c 0.155721,1.71343 0.632802,3.44818 2.18257,4.3701 l -17.75464,0.058 c 1.281968,-0.95267 1.71392,-2.75833 1.618702,-4.32546 l -0.01587,-12.14919 -13.307673,-0.0228 c -1.906338,0.0555 -3.469001,1.09798 -4.727164,1.94403 L 58.3882,343.04582 c 1.548281,1.17038 3.154584,1.461 4.652776,1.5096 l 13.395452,0.12447 -0.05455,-16.75138 -13.19113,0.0114 c -1.782357,0.0625 -3.651998,0.66305 -4.753449,1.73326 l 0.06497,-17.16895 c 1.02855,1.24477 2.821818,1.98519 4.674101,2.01147 l 13.279901,-0.10315 0.0734,-11.6974 c -0.235565,-2.06057 -0.574778,-3.98427 -1.803682,-4.88338 l 17.118367,0.10067 c -1.146581,0.52915 -1.40843,2.85951 -1.453063,4.90917 l 0.18994,11.61657 0,0 z"
         id="_75537592"
         style="fill:#c0a061;fill-opacity:1" />
      <path
         d="m -527.1871,315.18471 558.660415,0 0,395.21914 -0.002,0 c 0,0.0461 0.002,0.0927 0.002,0.13886 0,153.84957 -125.480137,279.32921 -279.329215,279.32921 -153.84957,0 -279.32921,-125.47964 -279.32921,-279.32921 0,-0.0461 10e-4,-0.0927 10e-4,-0.13886 l -10e-4,0 0,-395.21914 -0.002,0 z"
         id="_75537472"
         style="fill:#da2c27;fill-opacity:1;stroke:#000000;stroke-width:0.32185587" />
      <path
         d="m -527.1871,315.18471 558.660415,0 0,395.21914 -0.002,0 c 0,0.0461 0.002,0.0927 0.002,0.13886 0,153.84957 -125.480137,279.32921 -279.329215,279.32921 -153.84957,0 -279.32921,-125.47964 -279.32921,-279.32921 0,-0.0461 10e-4,-0.0927 10e-4,-0.13886 l -10e-4,0 0,-395.21914 -0.002,0 z"
         id="_75251536"
         style="fill:none;stroke:#000000;stroke-width:7.74090576" />
    </g>
    <g
       transform="translate(2,0)"
       id="g5925">
      <path
         d="m -288.90363,613.95597 16.92006,-18.18274 0,-120.20815 -65.91246,0 -33.33503,21.84454 0,-81.31728 33.33503,21.08694 65.91246,0 0,-67.17514 -16.92006,-26.39024 74.62502,0 -17.93021,26.39024 0,67.17514 65.40738,0 32.76682,-21.08694 0,81.31728 -32.76682,-21.84454 -65.40738,0 0,120.20815 17.93021,18.18274 -74.62502,0 z"
         id="path4961"
         style="fill:#c0a061;fill-opacity:1;fill-rule:evenodd;stroke:#000000;stroke-width:5;stroke-linecap:butt;stroke-linejoin:miter;stroke-miterlimit:4;stroke-opacity:1;stroke-dasharray:none" />
      <path
         d="m -324.38523,901.72318 c -3.62305,22.83086 36.00602,29.53375 75.38016,29.33845 38.87078,-0.19279 73.5948,-6.77257 70.58687,-28.95964 15.61626,-9.36656 23.11653,-30.14476 7.44988,-72.09964 -2.73701,-7.32965 0.4098,-17.45335 6.33365,-27.19197 17.25483,-28.36642 25.17009,-42.8845 27.12765,-82.2833 68.58998,19.00064 98.152822,2.6683 113.010821,-36.87058 -46.884782,6.05306 -52.951588,-11.20168 -87.883271,-18.94036 64.228866,-30.34667 79.420064,-75.78092 69.574256,-142.93659 -7.416387,-50.68034 -27.454905,-122.88247 41.2899852,-149.3763 11.9496708,-4.6138 7.9098506,-15.8399 -5.9346462,-16.28871 -75.71812,-2.45873 -100.171215,67.23857 -94.070455,137.38074 4.273142,49.12954 3.661806,86.91521 -46.21448,110.86425 -8.86777,-1.45977 -14.4315,-7.78382 -34.72399,7.57614 -48.85086,-13.53253 -95.13665,-12.98478 -139.27479,0.75762 -8.75515,-7.90724 -17.80317,-15.1054 -32.82995,-7.82869 -36.85994,-15.55488 -52.27366,-44.7347 -46.5933,-111.11678 7.85459,-91.66427 -32.10626,-137.97795 -89.52476,-138.13836 -11.3711,-0.0318 -31.60938,9.26328 -5.93464,19.31917 64.3713,25.21196 42.98995,98.67676 36.99683,146.85092 -10.45772,83.93543 17.49719,117.31125 69.32172,143.18913 -35.1166,6.31807 -39.5907,25.63572 -89.01969,18.18275 18.2808,42.80035 50.32582,55.94147 114.65231,37.24937 -0.56093,41.17278 12.30345,57.11599 27.31617,82.07489 4.91625,8.17334 9.75896,19.54401 6.2714,26.1377 -8.91057,16.8466 -17.63013,61.11424 6.69227,73.10979 z"
         id="path5917"
         style="fill:#000000;fill-rule:evenodd;stroke:#000000;stroke-width:1px;stroke-linecap:butt;stroke-linejoin:miter;stroke-opacity:1" />
      <path
         d="m -123.84474,663.26405 c -13.93382,-6.42556 -15.52827,-21.81862 -22.53903,-54.42196 67.403116,-36.19451 48.450583,-90.31466 48.487303,-144.89376 0.05207,-77.51477 47.284721,-105.53556 91.4819407,-103.73005 9.40995,0.38662 12.6747354,6.06121 1.4521057,10.35407 -71.7518104,27.44634 -48.6531214,98.85405 -41.2268654,162.31888 11.558552,98.77948 -56.952064,124.43818 -77.655454,130.37282 z"
         id="path5836"
         style="fill:#c2c0c1;fill-opacity:1;fill-rule:evenodd;stroke:#000000;stroke-width:1px;stroke-linecap:butt;stroke-linejoin:miter;stroke-opacity:1" />
      <path
         d="m -353.67966,609.85224 c 10.25653,-7.15381 19.88067,-2.22215 30.30458,6.69225 -2.62423,17.336 -14.73509,26.06826 -25.63262,36.04982 13.18532,-6.83207 24.54706,-15.37259 28.97875,-35.671 38.69997,-13.32207 96.54881,-13.9239 136.43372,-0.44195 6.48308,23.86976 18.30717,29.94267 30.05204,36.11295 -11.29183,-5.9141 -26.31814,-26.75532 -25.63261,-35.86041 4.55848,-8.2185 24.61463,-14.19352 29.92576,-6.56599 5.47119,20.02212 4.4382,46.07088 24.36994,57.19989 40.787746,5.78904 29.886943,15.65853 80.622792,22.41275 -25.997035,11.49157 -64.997632,8.564 -97.605992,-15.34168 -0.1205,54.36344 2.57447,77.05001 -15.21542,106.69736 -9.39177,15.68498 -19.81093,29.86006 -18.62469,46.65642 -24.33928,-23.33896 -44.66613,-9.44159 -76.45592,-9.65959 -29.36077,-0.20091 -49.95507,-13.49079 -74.18307,9.21765 -1.37901,-20.29758 -11.0178,-30.62467 -19.88739,-45.70941 -20.41719,-34.72407 -12.81631,-51.13897 -14.83661,-107.83378 -24.01099,17.25505 -53.5803,31.73493 -99.68944,15.97303 28.57767,-0.30623 44.36417,-16.06482 81.6961,-21.78141 19.37052,-9.90015 21.85568,-36.47968 25.38008,-58.1469 z"
         id="path5905"
         style="fill:#c2c0c1;fill-opacity:1;fill-rule:evenodd;stroke:#000000;stroke-width:1px;stroke-linecap:butt;stroke-linejoin:miter;stroke-opacity:1" />
      <path
         d="m -263.33414,667.49407 c -0.93008,1.57836 -14.33636,9.67528 -14.96289,9.59643 -0.36099,-2.93459 -4.13273,-16.58713 -7.95495,-16.16244 -2.66126,4.28896 -7.99823,5.4352 -13.00572,6.43973 -5.84603,-7.81111 -11.85469,-11.56905 -17.80393,-16.41498 8.02834,2.49936 14.53105,6.67692 19.1929,12.87944 6.05948,-0.74454 8.25514,-4.06496 11.49048,-6.69226 4.68671,2.83891 8.79672,6.76714 10.48033,15.27855 4.41942,-2.92793 8.83884,-6.09261 13.00572,-10.54345 8.12631,27.01389 16.66454,28.07794 25.38008,0.0631 4.41942,4.26145 8.83884,7.42613 13.25826,10.35406 1.68361,-8.51141 5.79362,-12.43964 10.48033,-15.27855 3.23534,2.6273 5.431,5.94772 11.49048,6.69226 4.66185,-6.20252 11.16456,-10.38008 19.1929,-12.87944 -5.94924,4.84593 -11.9579,8.60387 -17.80393,16.41498 -5.00749,-1.00453 -10.34446,-2.15077 -13.00572,-6.43973 -3.82222,-0.42469 -7.59396,13.22785 -7.95495,16.16244 -0.62653,0.0788 -12.77012,-7.44986 -14.64722,-9.21763 -10.6107,26.96267 -18.65562,27.44102 -26.83217,-0.25254 z"
         id="path5838"
         style="fill:#000000;fill-rule:evenodd;stroke:#000000;stroke-width:1px;stroke-linecap:butt;stroke-linejoin:miter;stroke-opacity:1" />
      <path
         d="m -286.1257,806.89511 4.54568,-2.90418 c -2.6546,-6.48904 -5.49364,-13.35516 -4.79822,-26.39024 0.48785,-9.14455 -1.79174,-25.73834 -4.9245,-28.78934 l -2.02031,4.0406 c 3.67636,3.37959 3.88875,19.02609 3.15673,27.27412 -0.72688,8.19016 0.63892,26.76904 4.04062,26.76904 z"
         id="path5843"
         style="fill:#000000;fill-rule:evenodd;stroke:#000000;stroke-width:1px;stroke-linecap:butt;stroke-linejoin:miter;stroke-opacity:1" />
      <path
         d="m -216.44097,806.87932 -4.54568,-2.90418 c 2.6546,-6.48904 5.49364,-13.35516 4.79822,-26.39024 -0.48785,-9.14455 1.79174,-25.73834 4.9245,-28.78934 l 2.02031,4.0406 c -3.67636,3.37959 -3.88875,19.02609 -3.15673,27.27412 0.72688,8.19016 -0.63892,26.76904 -4.04062,26.76904 z"
         id="path5845"
         style="fill:#000000;fill-rule:evenodd;stroke:#000000;stroke-width:1px;stroke-linecap:butt;stroke-linejoin:miter;stroke-opacity:1" />
      <path
         d="m -252.2856,821.41605 c -21.13447,-0.55877 -46.6438,-9.59478 -61.74557,0.37881 -31.61298,16.57953 -28.19503,74.34967 -4.92449,77.15041 30.81414,3.68863 44.9923,-2.22103 67.17514,-2.14659 21.60348,0.0725 33.21777,5.36216 65.40738,3.03047 31.28584,-2.26623 22.77164,-65.38082 0.50507,-76.77159 -23.65308,-12.10006 -44.28308,-1.0563 -66.41753,-1.64151 z"
         id="path5903"
         style="fill:#c2c0c1;fill-opacity:1;fill-rule:evenodd;stroke:#000000;stroke-width:1px;stroke-linecap:butt;stroke-linejoin:miter;stroke-opacity:1" />
      <path
         d="m -289.31702,885.15036 c 8.77708,2.1934 30.078,-3.91737 13.76333,-20.70812 -3.92961,-4.04428 -20.7817,-11.48545 -21.97081,-20.96067 -1.14199,-9.09967 -6.30787,-10.9781 -12.75318,-3.6618 -6.53656,7.41988 -11.62804,37.18664 20.96066,45.33059 z"
         id="path5855"
         style="fill:#000000;fill-rule:evenodd;stroke:#000000;stroke-width:1px;stroke-linecap:butt;stroke-linejoin:miter;stroke-opacity:1" />
      <path
         d="m -301.90935,839.09372 c -23.98359,22.33773 2.31241,44.67915 17.42513,43.05775 9.7027,-1.04097 17.45355,-10.49286 -0.25253,-15.02601 -6.81926,-1.74588 -19.82133,-5.4971 -17.1726,-28.03174 z"
         id="path5849"
         style="fill:#c2c0c1;fill-opacity:1;fill-rule:evenodd;stroke:#000000;stroke-width:1px;stroke-linecap:butt;stroke-linejoin:miter;stroke-opacity:1" />
      <path
         d="m -213.8998,885.43447 c -8.77708,2.1934 -30.078,-3.91737 -13.76333,-20.70812 3.92961,-4.04428 20.7817,-11.48545 21.97081,-20.96067 1.14199,-9.09967 6.30787,-10.9781 12.75318,-3.6618 6.53656,7.41988 11.62804,37.18664 -20.96066,45.33059 z"
         id="path5853"
         style="fill:#000000;fill-rule:evenodd;stroke:#000000;stroke-width:1px;stroke-linecap:butt;stroke-linejoin:miter;stroke-opacity:1" />
      <path
         d="m -200.86723,839.21999 c 23.98359,22.33773 -2.31241,44.67915 -17.42513,43.05775 -9.7027,-1.04097 -17.45355,-10.49286 0.25253,-15.02601 6.81926,-1.74588 19.82133,-5.4971 17.1726,-28.03174 z"
         id="path5851"
         style="fill:#c2c0c1;fill-opacity:1;fill-rule:evenodd;stroke:#000000;stroke-width:1px;stroke-linecap:butt;stroke-linejoin:miter;stroke-opacity:1" />
      <path
         d="m -320.09209,902.22826 c -3.70726,18.50817 34.46904,24.69372 71.21641,24.42723 34.30712,-0.2488 68.96163,-4.96167 66.41688,-23.41708 -31.33647,3.37148 -46.34582,-3.03105 -66.54381,-2.90418 -23.18085,0.14561 -47.1333,5.87267 -71.08948,1.89403 z"
         id="path5859"
         style="fill:#c2c0c1;fill-opacity:1;fill-rule:evenodd;stroke:#000000;stroke-width:1px;stroke-linecap:butt;stroke-linejoin:miter;stroke-opacity:1" />
      <path
         d="m -350.39667,740.73013 c 9.25894,6.4298 24.84671,19.4003 46.21449,3.21986 8.2673,-1.66181 12.29888,-7.61099 13.51079,-15.15229 9.97851,3.55093 22.5626,9.97142 27.27411,-6.62913 -18.30689,19.55202 -31.7024,-2.08759 -45.33059,-16.28871 -10.87944,-11.33682 -18.64573,-25.27486 -35.35534,-25.88516 5.67143,-8.30308 24.11503,6.26895 34.72399,17.36199 16.96684,17.74103 38.31213,35.45654 42.67895,2.33599 -11.83472,34.13421 -31.61293,3.99991 -43.81537,-7.26048 -9.26793,-8.55242 -18.83428,-19.48084 -30.05204,-16.92005 4.0322,-4.07808 10.79018,-12.25027 33.2719,8.83883 21.06684,19.76187 28.09184,22.75749 30.05204,4.86137 -7.56577,13.87377 -6.12385,13.14091 -32.13548,-10.85915 -25.19603,-23.24754 -34.22125,-3.97201 -45.20432,9.02824 22.55561,-14.22306 31.36752,12.08824 60.60915,37.88072 0.90146,5.7599 -5.01239,19.56476 -13.13198,4.23001 -16.2475,-30.68521 -35.29221,-28.87353 -46.08822,-30.62025 5.77142,22.66991 16.31493,46.24778 39.08027,48.10851 -9.44869,7.77811 -23.54082,-3.04706 -36.30235,-6.2503 z"
         id="path5879"
         style="fill:#000000;fill-rule:evenodd;stroke:#000000;stroke-width:1px;stroke-linecap:butt;stroke-linejoin:miter;stroke-opacity:1" />
      <path
         d="m -349.0077,702.84941 c 7.89041,38.17941 29.40218,43.92525 42.4264,39.01713 -1.91831,-10.44259 -12.07335,-39.34508 -42.4264,-39.01713 z"
         id="path5875"
         style="fill:#c2c0c1;fill-opacity:1;fill-rule:evenodd;stroke:#000000;stroke-width:1px;stroke-linecap:butt;stroke-linejoin:miter;stroke-opacity:1" />
      <path
         d="m -313.39982,726.65112 a 9.533315,9.533315 0 1 1 -19.06663,0 9.533315,9.533315 0 1 1 19.06663,0 z"
         transform="matrix(1.1986755,0,0,1.1986755,62.264866,-147.01941)"
         id="path5869"
         style="fill:#000000;fill-opacity:1;stroke:none" />
      <path
         d="m -319.96581,725.38843 a 3.2198613,3.2198613 0 1 1 -6.43972,0 3.2198613,3.2198613 0 1 1 6.43972,0 z"
         transform="translate(-1.894036,-1.3889598)"
         id="path5863"
         style="fill:#c2c0c1;fill-opacity:1;stroke:none" />
      <path
         d="m -152.40676,740.98267 c -9.25894,6.4298 -24.84671,19.4003 -46.21449,3.21986 -8.2673,-1.66181 -12.29888,-7.61099 -13.51079,-15.15229 -9.97851,3.55093 -22.5626,9.97142 -27.27411,-6.62913 18.30689,19.55202 31.7024,-2.08759 45.33059,-16.28871 10.87944,-11.33682 18.64573,-25.27486 35.35534,-25.88516 -5.67143,-8.30308 -24.11503,6.26895 -34.72399,17.36199 -16.96684,17.74103 -38.31213,35.45654 -42.67895,2.33599 11.83472,34.13421 31.61293,3.99991 43.81537,-7.26048 9.26793,-8.55242 18.83428,-19.48084 30.05204,-16.92005 -4.0322,-4.07808 -10.79018,-12.25027 -33.2719,8.83883 -21.06684,19.76187 -28.09184,22.75749 -30.05204,4.86137 7.56577,13.87377 6.12385,13.14091 32.13548,-10.85915 25.19603,-23.24754 34.22125,-3.97201 45.20432,9.02824 -22.55561,-14.22306 -31.36752,12.08824 -60.60915,37.88072 -0.90146,5.7599 5.01239,19.56476 13.13198,4.23001 16.2475,-30.68521 35.29221,-28.87353 46.08822,-30.62025 -5.77142,22.66991 -16.31493,46.24778 -39.08027,48.10851 9.44869,7.77811 23.54082,-3.04706 36.30235,-6.2503 z"
         id="path5881"
         style="fill:#000000;fill-rule:evenodd;stroke:#000000;stroke-width:1px;stroke-linecap:butt;stroke-linejoin:miter;stroke-opacity:1" />
      <path
         d="m -153.66946,702.97567 c -7.89041,38.17941 -29.40218,43.92525 -42.4264,39.01713 1.91831,-10.44259 12.07335,-39.34508 42.4264,-39.01713 z"
         id="path5877"
         style="fill:#c2c0c1;fill-opacity:1;fill-rule:evenodd;stroke:#000000;stroke-width:1px;stroke-linecap:butt;stroke-linejoin:miter;stroke-opacity:1" />
      <path
         d="m -313.39982,726.65112 a 9.533315,9.533315 0 1 1 -19.06663,0 9.533315,9.533315 0 1 1 19.06663,0 z"
         transform="matrix(-1.1986755,0,0,1.1986755,-565.32083,-146.76687)"
         id="path5871"
         style="fill:#000000;fill-opacity:1;stroke:none" />
      <path
         d="m -319.96581,725.38843 a 3.2198613,3.2198613 0 1 1 -6.43972,0 3.2198613,3.2198613 0 1 1 6.43972,0 z"
         transform="matrix(-1,0,0,1,-501.16192,-1.1364216)"
         id="path5873"
         style="fill:#c2c0c1;fill-opacity:1;stroke:none" />
      <path
         d="m -363.40238,679.11082 c 0.6659,9.23437 -0.50772,24.06511 0.0631,36.36549 -35.44328,8.31246 -86.54485,20.8498 -108.21258,-26.20083 58.63249,21.23404 87.62324,3.51021 108.14945,-10.16466 z"
         id="path5911"
         style="fill:#c2c0c1;fill-opacity:1;fill-rule:evenodd;stroke:#000000;stroke-width:1px;stroke-linecap:butt;stroke-linejoin:miter;stroke-opacity:1" />
      <path
         d="m -139.00044,679.36336 c -0.6659,9.23437 0.50772,24.06511 -0.0631,36.36549 35.44328,8.31246 86.544855,20.8498 108.212585,-26.20083 -58.632492,21.23404 -87.623245,3.51021 -108.149455,-10.16466 z"
         id="path5913"
         style="fill:#c2c0c1;fill-opacity:1;fill-rule:evenodd;stroke:#000000;stroke-width:1px;stroke-linecap:butt;stroke-linejoin:miter;stroke-opacity:1" />
      <path
         d="m -378.3635,663.89539 c 13.93382,-6.42556 15.27573,-21.81862 22.28649,-54.42196 -67.15057,-32.1539 -48.45058,-90.31466 -48.4873,-144.89376 -0.0521,-77.51477 -46.65337,-106.48258 -90.85059,-104.67707 -9.40995,0.38662 -13.05355,7.00823 -1.83092,11.30109 71.75181,27.44634 48.65312,98.85405 41.22687,162.31888 -11.55855,98.77948 56.95206,124.43818 77.65545,130.37282 z"
         id="path5915"
         style="fill:#c2c0c1;fill-opacity:1;fill-rule:evenodd;stroke:#000000;stroke-width:1px;stroke-linecap:butt;stroke-linejoin:miter;stroke-opacity:1" />
    </g>
  </g>
</svg>
