<?xml version="1.0" encoding="UTF-8" standalone="no"?>
<!-- Creator: CorelDRAW -->

<svg
   xmlns:dc="http://purl.org/dc/elements/1.1/"
   xmlns:cc="http://creativecommons.org/ns#"
   xmlns:rdf="http://www.w3.org/1999/02/22-rdf-syntax-ns#"
   xmlns:svg="http://www.w3.org/2000/svg"
   xmlns="http://www.w3.org/2000/svg"
   xmlns:sodipodi="http://sodipodi.sourceforge.net/DTD/sodipodi-0.dtd"
   xmlns:inkscape="http://www.inkscape.org/namespaces/inkscape"
   xml:space="preserve"
   width="531.49603"
   height="531.49603"
   shape-rendering="geometricPrecision"
   text-rendering="geometricPrecision"
   image-rendering="optimizeQuality"
   clip-rule="evenodd"
   viewBox="0 0 14999999 14999999"
   id="svg2"
   version="1.1"
   inkscape:version="0.47 r22583"
   sodipodi:docname="ZZ1.svg"
   style="fill-rule:evenodd"><metadata
   id="metadata352"><rdf:RDF><cc:Work
       rdf:about=""><dc:format>image/svg+xml</dc:format><dc:type
         rdf:resource="http://purl.org/dc/dcmitype/StillImage" /></cc:Work></rdf:RDF></metadata><defs
   id="defs350"><inkscape:perspective
     sodipodi:type="inkscape:persp3d"
     inkscape:vp_x="0 : 274.60629 : 1"
     inkscape:vp_y="0 : 1000 : 0"
     inkscape:vp_z="549.21259 : 274.60629 : 1"
     inkscape:persp3d-origin="274.60629 : 183.07086 : 1"
     id="perspective354" /><inkscape:perspective
     id="perspective3168"
     inkscape:persp3d-origin="0.5 : 0.33333333 : 1"
     inkscape:vp_z="1 : 0.5 : 1"
     inkscape:vp_y="0 : 1000 : 0"
     inkscape:vp_x="0 : 0.5 : 1"
     sodipodi:type="inkscape:persp3d" /></defs><sodipodi:namedview
   pagecolor="#ffffff"
   bordercolor="#666666"
   borderopacity="1"
   objecttolerance="10"
   gridtolerance="10"
   guidetolerance="10"
   inkscape:pageopacity="0"
   inkscape:pageshadow="2"
   inkscape:window-width="1280"
   inkscape:window-height="1004"
   id="namedview348"
   showgrid="false"
   inkscape:zoom="0.85941221"
   inkscape:cx="317.26635"
   inkscape:cy="215.06409"
   inkscape:window-x="-8"
   inkscape:window-y="-8"
   inkscape:window-maximized="1"
   inkscape:current-layer="_150265272" />
 <g
   id="Layer_x0020_1"
   transform="translate(-250000,-250000)">
  <metadata
   id="CorelCorpID_0Corel-Layer" />
  <g
   id="_150265272">
   <path
   id="_125490624"
   d="m 7751780,250000 c -4145060,0 -7501780,3356720 -7501780,7498220 0,4145060 3356720,7501780 7501780,7501780 4141500,0 7498220,-3356720 7498220,-7501780 0,-4141500 -3356720,-7498220 -7498220,-7498220 z"
   style="fill:#ce7218;fill-opacity:1;stroke:none" />
   <path
   id="_99207464"
   d="m 7751780,442630 c -4038050,0 -7309150,3271100 -7309150,7305590 0,4038050 3271100,7309150 7309150,7309150 4034490,0 7309160,-3271100 7309160,-7309150 0,-4034490 -3274670,-7305590 -7309160,-7305590 z"
   style="fill:#fff500;fill-opacity:1;stroke:none" />
   <path
   id="_61539600"
   d="m 7751780,672060 c -1040680.2,0 -2028911.6,224533.58 -2918892.7,627733.1 C 2379025.8,2411497.4 672080,4881453.4 672080,7748240 c 0,3910050 3169650,7079700 7079700,7079700 3910060,0 7079710,-3169650 7079710,-7079700 0,-3906530 -3169650,-7076180 -7079710,-7076180 z"
   sodipodi:nodetypes="cssssc"
   style="fill:#ffffff;stroke:none" />
   <g
   id="g10"
   style="stroke:none">
    <path
   id="_125609632"
   d="m 7545000,8955560 c -116610,-45140 -210650,-116600 -304680,-206880 -60190,-56420 -327260,-150460 -41380,-820010 C 7646560,6867930 8624550,5242960 9692820,4415420 L 7545000,8955560 z"
   style="fill:#fff500;stroke:none" />
    <path
   id="_125594880"
   d="m 7545000,8955560 c 233210,127890 601840,379920 1064500,-541650 C 9121070,7383250 9707860,6047920 9681530,4434230 L 7545000,8955560 z"
   style="fill:#ef9b11;fill-opacity:1;stroke:none" />
   </g>
   <g
   id="g14"
   style="stroke:none">
    <path
   id="_116914736"
   d="m 7706740,8865290 c -94030,-82760 -82750,0 -142930,-116610 -37620,-71470 -308450,-485230 184310,-1019370 782390,-850100 2407360,-2140300 3690040,-2561580 L 7706740,8865290 z"
   style="fill:#fff500;stroke:none" />
    <path
   id="_125479936"
   d="m 7706740,8865290 c 176790,199360 473950,571750 1388000,-274590 846340,-782400 1948460,-2023690 2328370,-3407930 L 7706740,8865290 z"
   style="fill:#ef9b11;fill-opacity:1;stroke:none" />
   </g>
   <g
   id="g18"
   style="stroke:none">
    <path
   id="_125284296"
   d="m 7902340,9260240 c -112840,56430 -30090,79000 -161740,86520 -82760,7520 -564230,101560 -872670,-556700 C 6382690,7744360 5810940,5747000 5912500,4400380 l 1989840,4859860 z"
   style="fill:#fff500;stroke:none" />
    <path
   id="_125284336"
   d="m 7902340,9260240 c 252020,-86510 710930,-218160 274590,-1387990 C 7778210,6792700 7052240,5299380 5916270,4419190 l 1986070,4841050 z"
   style="fill:#ef9b11;fill-opacity:1;stroke:none" />
   </g>
   <g
   id="g22"
   style="stroke:#000000;stroke-opacity:1">
    <path
   id="_125506744"
   d="m 7868490,1962920 c 0,0 -41380,-677070 455140,-782390 496520,-105320 981750,233210 1135970,496520 0,0 -601840,-105320 -951660,-41380 -274590,52660 -458900,225690 -639450,327250 z"
   style="fill:#ef9b11;stroke:#000000;stroke-width:35560;stroke-linejoin:round;stroke-miterlimit:4;stroke-opacity:1;stroke-dasharray:none" />
    <path
   id="_125506768"
   d="m 8125664.5,1799661.9 c 0,0 186685.5,-111331.9 213015.5,-212891.9 26330,-105320 11280,-131650 78990,-184310"
   style="fill:none;stroke:#000000;stroke-width:15240;stroke-opacity:1"
   sodipodi:nodetypes="ccc" />
    <path
   id="_125383784"
   d="m 8545560,1624390 c 0,0 105320,-195600 157980,-221930"
   style="fill:none;stroke:#000000;stroke-width:15240;stroke-opacity:1" />
    <path
   id="_125283072"
   d="m 8820150,1613100 c 0,0 78990,-78990 116610,-173030"
   style="fill:none;stroke:#000000;stroke-width:15240;stroke-opacity:1" />
   </g>
   <g
   id="g28"
   style="stroke:#000000;stroke-opacity:1">
    <path
   id="_125473280"
   d="m 7774450,3516420 c 78990,-63940 157980,-154220 157980,-154220 l 26330,52660 c 63950,-67700 169270,-391190 169270,-391190 l 52660,11280 c 52660,-105320 41380,-443860 41380,-443860 l 22570,37620 c 67710,-650740 -470190,-613130 -470190,-613130 l 0,1500840 z"
   style="fill:#ef9b11;stroke:#000000;stroke-width:35560;stroke-linejoin:round;stroke-opacity:1" />
    <line
   id="_125524072"
   x1="7774450"
   y1="2316500"
   x2="8022710"
   y2="2459440"
   style="fill:none;stroke:#000000;stroke-width:15240;stroke-opacity:1" />
    <line
   id="_61991184"
   x1="7766930"
   y1="2553480"
   x2="8011420"
   y2="2749080"
   style="fill:none;stroke:#000000;stroke-width:15240;stroke-opacity:1" />
    <line
   id="_125522736"
   x1="7815830"
   y1="2876970"
   x2="7958760"
   y2="3023670"
   style="fill:none;stroke:#000000;stroke-width:15240;stroke-opacity:1" />
    <path
   id="_125473256"
   d="m 7774450,3531470 c -56420,-63950 -116610,-157980 -116610,-157980 l -18800,52660 c -48900,-63950 -127900,-391200 -127900,-391200 l -37610,11290 c -41380,-101560 -30090,-443860 -30090,-443860 l -18810,41370 c -52660,-654500 349820,-613120 349820,-613120 l 0,1500840 z"
   style="fill:#fff500;stroke:#000000;stroke-width:25400;stroke-opacity:1" />
    <line
   id="_125469288"
   x1="7774450"
   y1="2316500"
   x2="7590140"
   y2="2474490"
   style="fill:none;stroke:#000000;stroke-width:15240;stroke-opacity:1" />
    <line
   id="_125622976"
   x1="7766930"
   y1="2553480"
   x2="7597660"
   y2="2760360"
   style="fill:none;stroke:#000000;stroke-width:15240;stroke-opacity:1" />
    <line
   id="_117896712"
   x1="7774450"
   y1="2865680"
   x2="7639040"
   y2="3034950"
   style="fill:none;stroke:#000000;stroke-width:15240;stroke-opacity:1" />
   </g>
   <g
   id="g38"
   style="stroke:#000000;stroke-opacity:1">
    <path
   id="_125373040"
   d="m 7729310,1951640 c 0,0 127890,-534140 -379910,-714690 -526610,-188070 -887720,48900 -1049460,267070 0,0 556700,0 857620,90270 240740,71470 425050,252030 571750,357350 z"
   style="fill:#fff500;stroke:#000000;stroke-width:35560;stroke-miterlimit:4;stroke-opacity:1;stroke-dasharray:none" />
    <path
   id="_125612280"
   d="m 7488363.3,1775377.1 c 0,0 -165293.3,-117137.1 -176583.3,-211177.1 -15040,-94040 -7520,-124130 -52660,-169270"
   style="fill:none;stroke:#000000;stroke-width:15240;stroke-opacity:1"
   sodipodi:nodetypes="ccc" />
    <path
   id="_125288384"
   d="m 7123710,1579250 c 0,0 -75230,-180550 -116610,-210650"
   style="fill:none;stroke:#000000;stroke-width:15240;stroke-opacity:1" />
    <path
   id="_125446568"
   d="m 6882970,1541630 c 0,0 -60180,-75230 -86510,-157980"
   style="fill:none;stroke:#000000;stroke-width:15240;stroke-opacity:1" />
   </g>
   <path
   id="_125524096"
   d="m 7906100,1631910 -180550,0 c 0,0 -33850,-387440 97800,-470190 0,0 116610,109080 82750,470190 z"
   style="fill:#fff500;stroke:#000000;stroke-width:25400;stroke-opacity:1" />
   <polygon
   id="_125313944"
   points="7872250,2030630 7725550,2030630 7740600,1944110 7860960,1944110 "
   style="fill:#fff500;stroke:#000000;stroke-width:25400;stroke-opacity:1" />
   <path
   id="_125371720"
   d="m 7860960,1944110 -120360,0 c 0,0 15040,-252020 -22570,-312200 l 188070,0 c 0,0 -33850,142940 -45140,312200 z"
   style="fill:#ef9b11;stroke:#000000;stroke-width:35560;stroke-linejoin:round;stroke-opacity:1" />
   <g
   id="g47"
   style="stroke:none">
    <g
   id="g49"
   style="stroke:none">
     <path
   id="_125466568"
   d="m 3211740,3565320 c -206880,11290 -601840,214410 -628170,737260 402480,0 835060,-458900 902760,-759830 0,0 -71470,7530 -274590,22570 z"
   style="fill:#fff500;stroke:none" />
     <path
   id="_125385024"
   d="m 2583570,4302580 c 710930,-82750 899000,-756060 899000,-756060 0,0 -631930,436330 -899000,756060 z"
   style="fill:#ef9b11;stroke:none" />
    </g>
    <g
   id="g53"
   style="stroke:none">
     <path
   id="_125474592"
   d="m 2775410,3821110 c -11290,-94040 -11290,-180560 -41380,-229460 0,0 -188070,101570 -259540,233220 -18810,30090 -131660,169270 -33860,804960 244500,-206880 379920,-477710 334780,-808720 z"
   style="fill:#fff500;stroke:none" />
     <path
   id="_125474616"
   d="m 2737790,3591650 c 0,0 52660,97800 41380,319730 -11290,267070 -18810,308450 -124130,477710 -90280,146700 -195600,229460 -195600,229460 169270,-361110 90280,-507810 112850,-665790 26330,-165510 135410,-289640 135410,-289640 l 30090,-71470 z"
   style="fill:#ef9b11;stroke:none" />
    </g>
    <g
   id="g57"
   style="stroke:none">
     <path
   id="_125453200"
   d="m 2192370,5186530 c 334780,-157980 631940,-334770 598080,-947900 0,0 -722210,225690 -598080,947900 z"
   style="fill:#fff500;stroke:none" />
     <path
   id="_125358256"
   d="m 2192370,5186530 c 105330,-173030 327250,-545420 440100,-654500 75230,-71470 157980,-297160 157980,-297160 0,0 154230,616890 -598080,951660 z"
   style="fill:#ef9b11;stroke:none" />
    </g>
    <g
   id="g61"
   style="stroke:none">
     <path
   id="_125483992"
   d="m 2196140,4595980 c -30100,-37620 -97800,-139180 -188080,-297160 0,0 -7520,270830 -78990,372390 -78990,109080 -161750,432570 157980,786150 37620,-52660 398720,-504040 109090,-861380 z"
   style="fill:#fff500;stroke:none" />
     <path
   id="_125297752"
   d="m 2008060,4310100 c 0,0 116610,184320 173030,270830 101560,146700 127890,203120 131650,297160 7530,285870 -225690,579270 -225690,579270 176790,-703400 -75230,-1135970 -75230,-1135970 l -3760,-11290 z"
   style="fill:#ef9b11;stroke:none" />
    </g>
    <g
   id="g65"
   style="stroke:none">
     <path
   id="_125469264"
   d="m 2504580,5291860 c 33850,-154230 -3760,-252030 -18810,-353590 0,0 41380,-18800 -195600,135420 -206880,135410 -346060,417530 -372390,729730 489000,-116610 541660,-304680 586800,-511560 z"
   style="fill:#fff500;stroke:none" />
     <path
   id="_125328656"
   d="m 2489530,4942040 c 0,0 -56420,105320 -112840,236970 -75230,161740 -112850,252020 -263310,379910 -218170,188080 -184310,233220 -184310,233220 447620,-94040 500280,-274590 564220,-425050 48900,-112850 -7520,-413770 -7520,-413770 l 3760,-11280 z"
   style="fill:#ef9b11;stroke:none" />
    </g>
    <g
   id="g69"
   style="stroke:none">
     <path
   id="_125333984"
   d="m 1944110,5378370 c -52660,-101560 -236970,-410000 -289630,-451380 0,0 56420,199360 18810,357340 -33860,142940 -139180,688360 199360,966710 221920,-334770 285870,-455140 71460,-872670 z"
   style="fill:#fff500;stroke:none" />
     <path
   id="_125307136"
   d="m 1662000,4945800 c 0,0 78990,33850 233210,338530 86520,173030 120370,206890 173030,417530 63950,252020 -203120,534130 -203120,534130 0,-654500 -82750,-876430 -116600,-996800 -22570,-86510 -86520,-293390 -86520,-293390 z"
   style="fill:#ef9b11;stroke:none" />
    </g>
    <g
   id="g73"
   style="stroke:none">
     <path
   id="_151208488"
   d="m 2064480,6179570 c 30090,-94040 82760,-274590 131660,-349820 0,0 -146700,52660 -248260,131650 -105330,82760 -447620,188080 -357350,782400 368630,-142940 428810,-428810 473950,-564230 z"
   style="fill:#fff500;stroke:none" />
     <path
   id="_151208512"
   d="m 2192370,5837270 c 0,0 -86510,45140 -229450,214410 -146700,169270 -127890,221930 -263300,413770 -37620,52660 -109090,278350 -109090,278350 413770,-180560 458910,-534140 500280,-650740 41380,-124130 94040,-263310 94040,-263310 l 7520,7520 z"
   style="fill:#ef9b11;stroke:none" />
    </g>
    <g
   id="g77"
   style="stroke:none">
     <path
   id="_151208536"
   d="m 1537870,6141960 c -67710,-75230 -169270,-139180 -206880,-206890 0,0 26330,248260 -7520,413770 -22570,131650 82750,590560 308440,804960 391200,-357340 41380,-857620 -94040,-1011840 z"
   style="fill:#fff500;stroke:none" />
     <path
   id="_125463936"
   d="m 1330990,5935070 c 0,0 109080,109090 199360,199360 112840,112850 218170,293400 278350,560470 56420,263300 -176790,458900 -176790,458900 7520,-695880 -135410,-846340 -173030,-962940 -56420,-173030 -127890,-255790 -127890,-255790 z"
   style="fill:#ef9b11;stroke:none" />
    </g>
    <g
   id="g81"
   style="stroke:none">
     <path
   id="_125367640"
   d="m 2038150,6747560 c 11290,-101560 33860,-259550 48900,-338540 0,0 -240730,195600 -349820,323490 -86510,101560 -349820,530370 -267070,733500 515330,-146700 545420,-473950 567990,-718450 z"
   style="fill:#fff500;stroke:none" />
     <path
   id="_125323288"
   d="m 2094570,6409020 c 0,0 -37610,15050 -154220,139180 -56420,63940 3760,248260 -214400,519090 -41380,48900 -255790,398720 -255790,398720 643220,-165510 549180,-669550 575520,-789920 30090,-161740 48890,-267070 48890,-267070 z"
   style="fill:#ef9b11;stroke:none" />
    </g>
    <g
   id="g85"
   style="stroke:none">
     <path
   id="_125360944"
   d="m 1470160,7093620 c -52660,-37620 -124130,-116610 -195590,-214410 0,0 0,169270 3760,282110 7520,308450 26330,485240 379910,1094600 206880,-432570 26330,-996800 -188080,-1162300 z"
   style="fill:#fff500;stroke:none" />
     <path
   id="_61693848"
   d="m 1274570,6879210 c 0,0 82750,105320 195590,214410 112850,112840 173030,180550 244500,451380 105320,413760 -56420,710920 -56420,710920 -94040,-752300 -195600,-831290 -236980,-981750 -18800,-75230 -82750,-142940 -105320,-218170 -37610,-124130 -41370,-176790 -41370,-176790 z"
   style="fill:#ef9b11;stroke:none" />
    </g>
    <g
   id="g89"
   style="stroke:none">
     <path
   id="_125350160"
   d="m 1451360,8451520 c 376150,-176790 624410,-778630 534130,-1117170 0,0 -744780,357350 -534130,1117170 z"
   style="fill:#fff500;stroke:none" />
     <path
   id="_125593592"
   d="m 1451360,8451520 c 289630,-654500 537890,-1094600 537890,-1094600 0,0 105320,680840 -537890,1094600 z"
   style="fill:#ef9b11;stroke:none" />
    </g>
    <g
   id="g93"
   style="stroke:none">
     <path
   id="_125344872"
   d="m 1297140,7838400 c -90280,-71470 -135420,-135420 -173030,-188080 0,0 33850,161740 30090,304680 -11290,255780 -26330,500280 379910,831300 206880,-436340 -18810,-782400 -236970,-947900 z"
   style="fill:#fff500;stroke:none" />
     <path
   id="_117893384"
   d="m 1120340,7650320 c 0,0 75230,116610 161750,274590 86510,150460 199360,203120 214410,398720 18800,206880 37610,462670 37610,462670 78990,-146700 150460,-515330 -67710,-759830 -56420,-67710 -124130,-161740 -169260,-188070 -79000,-48900 -176800,-188080 -176800,-188080 z"
   style="fill:#ef9b11;stroke:none" />
    </g>
    <g
   id="g97"
   style="stroke:none">
     <path
   id="_125473304"
   d="m 1974210,8342440 c -18810,-101560 7520,-225690 18800,-308450 0,0 -94030,139180 -214400,180560 -225690,75230 -470190,564220 -315970,921570 492760,-154230 545420,-594320 511570,-793680 z"
   style="fill:#fff500;stroke:none" />
     <path
   id="_125471960"
   d="m 1985490,8060320 c 0,0 -41380,82760 -71470,184320 -45140,157980 -78990,334770 -255780,567990 -188080,252020 -195600,323490 -195600,323490 489000,-199360 485240,-466430 504040,-567990 15050,-71470 3760,-297160 3760,-289640 0,-60180 15050,-218170 15050,-218170 z"
   style="fill:#ef9b11;stroke:none" />
    </g>
    <g
   id="g101"
   style="stroke:none">
     <path
   id="_125299080"
   d="m 1188050,8857760 c -37610,-139170 -18810,-169260 -41380,-255780 0,0 26340,15050 210650,97800 289640,127890 507800,507800 398720,917810 -541660,-357350 -489000,-481470 -567990,-759830 z"
   style="fill:#fff500;stroke:none" />
     <path
   id="_125299120"
   d="m 1150440,8601980 c 0,0 67700,94040 165500,206880 139180,169270 203120,267070 278350,410010 86520,176790 169270,387430 169270,387430 90280,-432570 -139170,-707160 -229450,-797440 -33850,-33850 -203120,-112840 -244500,-139170 -101560,-63950 -139170,-67710 -139170,-67710 z"
   style="fill:#ef9b11;stroke:none" />
    </g>
    <g
   id="g105"
   style="stroke:none">
     <path
   id="_140684072"
   d="m 2034390,9260240 c 11290,-221920 7520,-379910 37620,-488990 0,0 -109090,142940 -274590,285870 -7530,3770 -364870,507810 11280,872670 195600,-206880 214410,-496520 225690,-669550 z"
   style="fill:#fff500;stroke:none" />
     <path
   id="_100785152"
   d="m 2072010,8771250 c 0,0 -30100,154220 -26330,289640 3760,67700 -11290,353580 -48900,511560 -37620,173030 -188080,357340 -188080,357340 101560,-402480 165510,-741010 157980,-929090 -3760,-63940 90280,-203120 90280,-203120 l 15050,-26330 z"
   style="fill:#ef9b11;stroke:none" />
    </g>
    <g
   id="g109"
   style="stroke:none">
     <path
   id="_100325616"
   d="m 1496500,9553640 c -112850,-15040 -184320,11290 -240740,-15040 0,0 18810,161740 97800,278350 135410,199360 394960,447620 752300,462660 -75230,-432570 -338540,-688350 -609360,-725970 z"
   style="fill:#fff500;stroke:none" />
     <path
   id="_100206512"
   d="m 1255760,9538600 c 0,0 372390,124130 699640,515320 112840,131660 150460,218170 150460,218170 -116610,-466430 -308440,-590560 -383670,-635690 -56430,-33860 -225690,-101570 -300930,-86520 -45130,11290 -165500,-11280 -165500,-11280 z"
   style="fill:#ef9b11;stroke:none" />
    </g>
    <g
   id="g113"
   style="stroke:none">
     <path
   id="_101021480"
   d="m 2339070,9858320 c 7530,-165500 -22570,-285870 -37610,-372380 0,0 -142940,139170 -221930,240730 -90280,116610 -293400,590560 45140,921570 86510,-481470 210640,-609360 214400,-789920 z"
   style="fill:#fff500;stroke:none" />
     <path
   id="_101018584"
   d="m 2301460,9489700 c 0,0 22570,146700 41370,259540 -7520,-30090 41380,154220 -120360,489000 -22570,52660 -105330,443850 -105330,443850 -82750,-406240 75230,-771100 105330,-835050 56420,-116610 71460,-312210 71460,-312210 l 7530,-45130 z"
   style="fill:#ef9b11;stroke:none" />
    </g>
    <g
   id="g117"
   style="stroke:none">
     <path
   id="_97605960"
   d="m 1650720,10132900 c -63950,-15040 -203120,-45130 -319730,-15040 0,0 101560,-3760 161740,165500 67710,188080 124130,609370 868910,552950 -131650,-425050 -364860,-613130 -710920,-703410 z"
   style="fill:#fff500;stroke:none" />
     <path
   id="_100207592"
   d="m 1330990,10117900 c 0,0 146700,-3760 315970,86510 173020,90280 131650,203120 357340,285880 184310,71470 357340,346060 357340,346060 -203120,-631940 -519090,-594320 -609360,-658270 -146700,-109080 -421290,-60180 -421290,-60180 z"
   style="fill:#ef9b11;stroke:none" />
    </g>
    <g
   id="g121"
   style="stroke:none">
     <path
   id="_101101464"
   d="m 2647520,10512800 c -26330,-221930 -127900,-319730 -120370,-485240 0,0 -105320,173030 -180550,244500 -105330,105320 -300920,756060 135410,880190 142940,-142930 195600,-402480 165510,-639450 z"
   style="fill:#fff500;stroke:none" />
     <path
   id="_100907544"
   d="m 2523390,10050200 c 0,0 -71470,146700 -41380,240740 -7520,-26330 82750,206880 -26330,432570 -52660,97800 26330,432570 26330,432570 308440,-432570 135410,-771100 90280,-883950 -15050,-41380 -48900,-221930 -48900,-221930 z"
   style="fill:#ef9b11;stroke:none" />
    </g>
    <g
   id="g125"
   style="stroke:none">
     <path
   id="_139938768"
   d="m 2162280,10832600 c -109080,-18800 -259540,33860 -436330,52670 0,0 -11290,-22570 101560,109080 97800,116610 470190,477710 951660,334770 -142940,-353580 -263310,-432570 -616890,-496520 z"
   style="fill:#fff500;stroke:none" />
     <path
   id="_101577808"
   d="m 1725950,10892700 c 0,0 169260,-52660 406240,-60190 82750,-3760 267070,26340 406240,131660 161750,124130 229450,364860 229450,364860 -248260,-282110 -327250,-139170 -646970,-229450 -184320,-52660 -394960,-206880 -394960,-206880 z"
   style="fill:#ef9b11;stroke:none" />
    </g>
    <g
   id="g129"
   style="stroke:none">
     <path
   id="_100782528"
   d="m 2907060,10892700 c -41380,-206880 -71470,-244500 -169270,-402480 0,0 37620,120370 -48900,236970 -124130,169270 -270830,511570 94040,831300 154220,-195600 176790,-432580 124130,-665790 z"
   style="fill:#fff500;stroke:none" />
     <path
   id="_115663872"
   d="m 2741550,10505300 c 0,0 79000,116610 124130,240740 75230,191840 52660,240740 60190,413770 3760,210640 -142940,398720 -142940,398720 -139180,-451390 -56420,-549180 -15050,-748540 26330,-127900 -26330,-304690 -26330,-304690 z"
   style="fill:#ef9b11;stroke:none" />
    </g>
    <g
   id="g133"
   style="stroke:none">
     <path
   id="_96640936"
   d="m 2707700,11366700 c -218170,-124130 -368630,-30090 -613130,7520 0,0 7530,101560 86520,173030 338530,293400 586790,447620 966710,372390 112840,-225690 -221930,-428810 -440100,-552940 z"
   style="fill:#fff500;stroke:none" />
     <path
   id="_61631784"
   d="m 2094570,11378000 c 0,0 338540,-112840 534140,-41370 157980,56420 221930,120360 315970,188070 361100,255780 188070,394960 188070,394960 -327250,-315970 -549180,-398720 -616890,-436330 -86510,-41380 -421290,-105330 -421290,-105330 z"
   style="fill:#ef9b11;stroke:none" />
    </g>
    <g
   id="g137"
   style="stroke:none">
     <path
   id="_58840680"
   d="m 3260640,11426900 c -90270,-221930 -210640,-300920 -285870,-391190 0,0 -71470,184310 -86520,248260 -37610,142930 -142930,703400 259550,812480 173030,-218170 214400,-421290 112840,-669550 z"
   style="fill:#fff500;stroke:none" />
     <path
   id="_99445728"
   d="m 2974770,11035700 c 0,0 78990,116600 82750,282110 0,71470 -45140,334770 30090,556700 33860,105320 60190,221930 60190,221930 331010,-383670 63940,-793680 -30100,-910280 -11280,-15050 -142930,-150460 -142930,-150460 z"
   style="fill:#ef9b11;stroke:none" />
    </g>
    <g
   id="g141"
   style="stroke:none">
     <path
   id="_97681232"
   d="m 3016140,11904600 c -109080,-11280 -346050,90280 -605600,0 0,0 -22570,-11280 150460,146700 323490,289640 349820,432580 1023130,278350 -139170,-368620 -206880,-402480 -567990,-425050 z"
   style="fill:#fff500;stroke:none" />
     <path
   id="_61707920"
   d="m 2391730,11889500 c 0,0 304690,180550 496520,195600 146700,11280 86520,3760 376150,67700 188080,45140 304690,180560 304690,180560 -71470,-560470 -684600,-421290 -759830,-410010 -289640,52660 -417530,-33850 -417530,-33850 z"
   style="fill:#ef9b11;stroke:none" />
    </g>
    <g
   id="g145"
   style="stroke:none">
     <path
   id="_62013144"
   d="m 3591650,11761700 c -165500,-105330 -157980,-191840 -221920,-270830 0,0 -26340,33850 -71470,191840 -203120,718440 545420,876430 451380,842570 90270,-300920 48900,-631930 -157990,-763580 z"
   style="fill:#fff500;stroke:none" />
     <path
   id="_150243072"
   d="m 3373490,11494600 c 0,0 60180,82750 90270,165510 30100,67700 285880,101560 323490,485230 11290,109080 -37610,379910 -37610,379910 -86520,-421290 -240740,-680830 -327250,-835050 -41380,-75230 -48900,-195600 -48900,-195600 z"
   style="fill:#ef9b11;stroke:none" />
    </g>
    <g
   id="g149"
   style="stroke:none">
     <path
   id="_100324752"
   d="m 3452480,12337200 c -109090,3760 -248260,75230 -575510,-11290 0,0 -41380,-37610 139170,109090 334780,270830 575510,500280 1293960,274590 -120370,-361110 -488990,-383680 -857620,-372390 z"
   style="fill:#fff500;stroke:none" />
     <path
   id="_151121496"
   d="m 2858160,12314600 c 0,0 304680,142940 504040,180550 206890,41380 383680,78990 714690,124130 191840,26330 236970,90280 236970,90280 -154220,-507810 -1008080,-368630 -1087070,-349820 -112850,26330 -368630,-45140 -368630,-45140 z"
   style="fill:#ef9b11;stroke:none" />
    </g>
    <g
   id="g153"
   style="stroke:none">
     <path
   id="_151131640"
   d="m 6567010,13785300 c 0,0 -801200,-267070 -1414330,-511570 -466430,-180550 -564230,-327250 -639460,-650740 -18800,-94040 -233210,-312200 -549180,-425050 0,0 -22570,560470 443860,887720 297160,206880 1011850,481470 2053780,853860 0,0 176790,-90280 105330,-154220 z"
   style="fill:#fff500;stroke:none" />
     <path
   id="_99948672"
   d="m 4780290,13112000 c -372390,-135420 -816250,-910290 -816250,-910290 0,0 537900,146700 594320,575510 0,0 75230,315970 507800,466430 l -285870,-131650 z"
   style="fill:#ef9b11;stroke:none" />
     <path
   id="_99153576"
   d="m 4155880,12837400 c 0,0 221930,289630 571750,425050 56420,22570 801200,346060 977990,402480 165510,56420 756060,274590 756060,274590 l 26330,-11290 c 0,0 -11280,11290 -116600,-26330 -101560,-37610 -771110,-278350 -887720,-319720 -116600,-41380 -218170,-86520 -244500,-97800 -26330,-15050 -127890,-60190 -165500,-71470 -41380,-15050 -161750,-67710 -221930,-94040 -67710,-26330 -188080,-86510 -233210,-105320 -52670,-22570 -109090,-63950 -161750,-97800 -56420,-37620 -120370,-82750 -165510,-120370 -37610,-37610 -97790,-120370 -135410,-157980 z"
   style="fill:#ffffff;stroke:none" />
    </g>
   </g>
   <g
   id="g158"
   style="stroke:none">
    <path
   id="_129736672"
   d="m 7654080,8895380 c -82750,94040 -184310,154220 -300920,210640 -75230,33860 -255780,252020 -778630,-252020 C 5743240,8052800 4573410,6563240 4182210,5269290 l 3471870,3626090 z"
   style="fill:#fff500;stroke:none" />
    <path
   id="_124035040"
   d="M 7654080,8895380 C 7860960,8722350 8225830,8466570 7529950,7710500 6751320,6860400 5713140,5837270 4193500,5284330 l 3460580,3611050 z"
   style="fill:#ef9b11;fill-opacity:1;stroke:none" />
   </g>
   <path
   id="_100815240"
   d="M 6946920,8289780 C 6698660,8173170 6401500,7988860 6085530,7834630 5476170,7541240 3779730,6999580 2527150,6928110 l 4487480,2080110 c -86520,-304680 -56430,-598080 -67710,-718440 z"
   style="fill:#ef9b11;fill-opacity:1;stroke:none" />
   <path
   id="_100817792"
   d="m 7623990,9749240 c 0,0 7520,-71470 0,-150460 -15050,-116610 -109080,-169270 -240740,-191840 -82750,-11280 -1090830,33860 -1324050,41380 -236970,7520 -703400,-82750 -1293960,-567990 -109080,-90270 -1677630,-974230 -2238090,-1952220 l 4487480,2080110 c -60190,-169260 -56430,-383670 -75230,-763580 -52670,-1147260 131650,-3283800 842570,-4438580 l 0,5946940 -157980,-3760 z"
   style="fill:#ffffff" />
   <path
   id="_24584688"
   d="m 7781970,9753000 0,-5946940 c -710920,1154780 -895240,3291320 -842570,4438580 18800,379910 15040,594320 75230,763580 L 2527150,6928110 c 560460,977990 2129010,1861950 2238090,1952220 590560,485240 1056990,575510 1293960,567990 233220,-7520 1241300,-52660 1324050,-41380 131660,22570 225690,75230 240740,191840 7520,78990 0,150460 0,150460 l 157980,3760 z"
   style="fill:#fff500;stroke:none" />
   <path
   id="_95478192"
   d="m 7928670,9760530 c 0,0 3760,-82760 15050,-161750 15040,-116610 109080,-169270 236970,-191840 86520,-11280 1090840,33860 1327810,41380 233220,7520 699640,-82750 1290200,-567990 112850,-90270 1655060,-1079550 2241860,-1952220 L 8549320,9008220 c 60180,-169260 60180,-383670 75230,-763580 52660,-1147260 -131650,-3283800 -842580,-4438580 l 0,5946940 146700,7530 z"
   style="fill:#ef9b11;fill-opacity:1;stroke:none" />
   <path
   id="_60924736"
   d="m 7928670,9760530 c 0,0 3760,-82760 15050,-161750 15040,-116610 109080,-169270 236970,-191840 86520,-11280 1090840,33860 1327810,41380 233220,7520 699640,-82750 1290200,-567990 112850,-90270 1655060,-1079550 2241860,-1952220 L 8549320,9008220 c 60180,-169260 60180,-383670 75230,-763580 52660,-1147260 -131650,-3283800 -842580,-4438580 l 0,5946940"
   style="fill:none;stroke:none" />
   <path
   id="_101019448"
   d="m 8620790,8289780 c 244500,-116610 541660,-300920 857620,-455150 609370,-293390 2305810,-835050 3562150,-906520 L 8549320,9008220 c 90280,-304680 56420,-598080 71470,-718440 z"
   style="fill:#fff500;stroke:none" />
   <path
   id="_99392936"
   d="m 2865680,9982450 c 79000,15050 455150,-26330 534140,41380 78990,63950 417520,116610 511560,116610 90280,0 650740,-116610 782400,-116610 379910,0 756060,105320 1045690,116610 312210,11280 507810,-90280 808730,-116610 300920,-26330 797440,169270 861380,180550 67710,15050 364870,30100 432580,26330 221930,-11280 537890,-229450 808720,-221930 391200,15050 692120,210650 1135980,195600 443850,-11280 564220,-120370 808720,-127890 342300,-15040 643220,116610 838820,116610 195590,0 549180,-157980 835050,-169270 285870,-15050 428810,75230 428810,75230 l 184320,-376150 c 0,0 -259550,-94040 -496520,-78990 -233220,11280 -823770,105320 -940380,116610 -116610,15040 -549180,-90280 -703400,-90280 -342300,0 -590560,142940 -797440,142940 -142940,0 -312210,-52660 -379910,-63950 -63950,-15050 -274590,-120370 -534140,-105320 -263300,11280 -470190,26330 -665780,90270 -195600,67710 -379920,94040 -575510,94040 -195600,0 -327260,-26330 -443860,-52660 -116610,-26330 -236980,-120370 -432580,-105320 -195590,11280 -312200,63940 -376150,63940 -67700,0 -289630,79000 -421280,67710 -127900,-15040 -323490,-78990 -519090,-105320 -195600,-26330 -458910,-131650 -707170,-116610 -248260,11290 -259540,26330 -391190,48900 -131660,26330 -300920,131660 -432580,120370 -127890,-15050 -259540,-41380 -391190,-67710 -131660,-26330 -195600,-82750 -391200,-101560 -259540,-26330 -560460,48900 -560460,48900 l 142930,353580 z"
   style="fill:#fff500;fill-opacity:1;stroke:none" />
   <path
   id="_98048536"
   d="m 3335870,10779900 c 142940,63950 391200,116610 481470,116610 94040,0 549180,-154220 680840,-154220 379910,0 861380,221930 1147260,233210 315960,15050 564220,-116600 865140,-142940 300920,-26330 639460,79000 703410,90280 67700,15050 364860,18810 432570,26330 402480,41380 797440,-150460 1068270,-142940 394950,11290 379910,157990 876430,116610 312200,-26330 560460,-120370 808720,-127890 342300,-15050 1019370,127890 1214970,127890 195600,0 221930,-105320 511560,-116610 285880,-11280 169270,-11280 169270,-11280 l 233210,-394960 c 0,0 -101560,-52660 -338530,-37610 -233210,11280 -729730,116600 -850100,131650 -116610,11280 -338540,-131650 -744780,-131650 -338540,0 -677070,131650 -887720,131650 -142930,0 -274590,-15050 -338530,-26330 -63950,-15050 -274590,-120370 -534140,-105320 -263300,11280 -470180,26330 -665780,90270 -195600,67710 -210650,105320 -406240,105320 -195600,0 -496520,-37610 -613130,-63940 -116610,-26330 -236980,-120370 -432570,-105320 -195600,11280 -312210,63940 -376150,63940 -67710,0 -447620,78990 -575510,67710 -131660,-15050 -289640,0 -496520,-78990 -184320,-71470 -210650,-124130 -511570,-142940 -180550,-15050 -259540,37620 -391200,63950 -131650,26330 -274590,105320 -402480,90270 -131650,-11280 -274590,-90270 -406240,-116600 -131650,-26330 -274590,-18810 -470190,-37620 l 248260,481470 z"
   style="fill:#fff500;stroke:none" />
   <path
   id="_100333544"
   d="m 3700740,11212500 c 131650,11280 432570,-67710 560460,-94040 131660,-26330 210650,-78990 394960,-63950 297160,22570 323490,75230 507800,142940 210650,78990 364870,67710 496520,78990 131660,11290 391200,-90270 455150,-90270 67700,0 236970,-67710 432570,-79000 195600,-15040 470190,90280 586790,116610 120370,26330 327250,90280 522850,90280 195600,0 274590,0 470190,-63950 195600,-63940 274590,-105320 537900,-116600 259540,-15050 470190,105320 534130,116600 63950,15050 391200,63950 534130,63950 210650,0 665790,-169270 1008090,-169270 402480,0 522850,120370 639450,105320 116610,-11280 300930,52660 455150,90280 0,0 -342300,368630 -391200,353580 -169270,-52660 -586790,-157980 -1030650,-52660 -297160,71470 -613130,116610 -929090,105320 -428820,-11280 -455150,-78990 -846340,-90280 -274590,-11280 -507810,127900 -914050,127900 -221930,0 -549180,-90280 -616890,-101560 -63940,-15050 -285870,-105330 -586790,-79000 -300920,26330 -677070,63950 -993040,52660 -285870,-11280 -613130,-105320 -940380,-94030 -105320,7520 -522850,26330 -560460,26330 l -327250,-376150 z"
   style="fill:#fff500;stroke:none" />
   <path
   id="_100317688"
   d="m 5412220,12529000 c 195600,-37610 861390,-78990 1162310,-101560 300920,-26330 575510,63950 639460,75230 67700,15050 391190,105330 613120,105330 406240,0 537900,-112850 812490,-105330 391190,15050 496520,105330 925330,120370 315960,7520 248260,116610 447620,41380 139170,-41380 1053220,-616890 1053220,-616890 -116610,11290 157980,-26330 -248260,-26330 -338540,0 -835060,142940 -1041940,142940 -142940,0 -368630,-26330 -432570,-37620 -63950,-15040 -221930,-146700 -534140,-120370 -263300,22570 -406240,52670 -601840,120370 -195600,63950 -274590,63950 -470190,63950 -195590,0 -406240,-63950 -522840,-90280 -116610,-26330 -391200,-131650 -586800,-120370 -195600,15050 -364870,79000 -432570,79000 -63950,0 -323490,105320 -455150,94030 -131650,-15040 -184310,26330 -391190,-52660 -188080,-71470 -157990,-45140 -458910,-67700 -184310,-11290 -206880,-11290 -338530,15040 l 861380,481470 z"
   style="fill:#fff500;stroke:none" />
   <path
   id="_99198152"
   d="m 6157000,12845000 c 0,0 300920,-221930 481470,-184310 184320,37610 823770,169260 1019370,184310 195600,11290 575510,-105320 876430,-67710 300920,41380 455150,15050 650740,157990 0,0 -925330,221930 -1369180,184310 -443860,-41380 -1162310,-52660 -1658830,-274590 z"
   style="fill:#fff500;stroke:none" />
   <g
   id="g173"
   style="stroke:none">
    <g
   id="g175"
   style="stroke:none">
     <path
   id="_102513424"
   d="m 12340900,3565320 c 206880,11290 601840,214410 628170,737260 -402480,0 -835050,-458900 -902760,-759830 0,0 71470,7530 274590,22570 z"
   style="fill:#fff500;stroke:none" />
     <path
   id="_101277704"
   d="m 12969100,4302580 c -710920,-82750 -899000,-756060 -899000,-756060 0,0 631930,436330 899000,756060 z"
   style="fill:#ef9b11;stroke:none" />
    </g>
    <g
   id="g179"
   style="stroke:none">
     <path
   id="_101117760"
   d="m 12777300,3821110 c 11290,-94040 11290,-180560 41380,-229460 0,0 188080,101570 259540,233220 18810,30090 131660,169270 33860,804960 -244500,-206880 -379910,-477710 -334780,-808720 z"
   style="fill:#fff500;stroke:none" />
     <path
   id="_101026008"
   d="m 12814900,3591650 c 0,0 -52660,97800 -41380,319730 11290,267070 18810,308450 124130,477710 90280,146700 195600,229460 195600,229460 -169270,-361110 -90280,-507810 -112840,-665790 -26340,-165510 -135420,-289640 -135420,-289640 l -30090,-71470 z"
   style="fill:#ef9b11;stroke:none" />
    </g>
    <g
   id="g183"
   style="stroke:none">
     <path
   id="_61882472"
   d="m 13360300,5186530 c -334780,-157980 -631940,-334770 -598080,-947900 0,0 722210,225690 598080,947900 z"
   style="fill:#fff500;stroke:none" />
     <path
   id="_116393592"
   d="m 13360300,5186530 c -105320,-173030 -327250,-545420 -440100,-654500 -75230,-71470 -157980,-297160 -157980,-297160 0,0 -154220,616890 598080,951660 z"
   style="fill:#ef9b11;stroke:none" />
    </g>
    <g
   id="g187"
   style="stroke:none">
     <path
   id="_99381232"
   d="m 13356500,4595980 c 30090,-37620 97790,-139180 188070,-297160 0,0 7520,270830 78990,372390 78990,109080 161750,432570 -157980,786150 -37620,-52660 -398720,-504040 -109080,-861380 z"
   style="fill:#fff500;stroke:none" />
     <path
   id="_61906888"
   d="m 13544600,4310100 c 0,0 -116610,184320 -173030,270830 -101560,146700 -127890,203120 -131650,297160 -7520,285870 225690,579270 225690,579270 -176790,-703400 75230,-1135970 75230,-1135970 l 3760,-11290 z"
   style="fill:#ef9b11;stroke:none" />
    </g>
    <g
   id="g191"
   style="stroke:none">
     <path
   id="_98343096"
   d="m 13048100,5291860 c -33850,-154230 3760,-252030 18810,-353590 0,0 -41380,-18800 195600,135420 206880,135410 346060,417530 372390,729730 -489000,-116610 -541660,-304680 -586800,-511560 z"
   style="fill:#fff500;stroke:none" />
     <path
   id="_100319232"
   d="m 13063100,4942040 c 0,0 56420,105320 112840,236970 75230,161740 112850,252020 263310,379910 218170,188080 184310,233220 184310,233220 -447620,-94040 -500280,-274590 -564220,-425050 -48900,-112850 7520,-413770 7520,-413770 l -3760,-11280 z"
   style="fill:#ef9b11;stroke:none" />
    </g>
    <g
   id="g195"
   style="stroke:none">
     <path
   id="_59502528"
   d="m 13608600,5378370 c 52660,-101560 236970,-410000 289630,-451380 0,0 -56420,199360 -18800,357340 33850,142940 139170,688360 -199360,966710 -221930,-334770 -285880,-455140 -71470,-872670 z"
   style="fill:#fff500;stroke:none" />
     <path
   id="_142965952"
   d="m 13890700,4945800 c 0,0 -78990,33850 -233210,338530 -86520,173030 -120370,206890 -173030,417530 -63950,252020 203120,534130 203120,534130 0,-654500 82750,-876430 116610,-996800 22560,-86510 86510,-293390 86510,-293390 z"
   style="fill:#ef9b11;stroke:none" />
    </g>
    <g
   id="g199"
   style="stroke:none">
     <path
   id="_99872672"
   d="m 13488200,6179570 c -30090,-94040 -82750,-274590 -131650,-349820 0,0 146690,52660 248260,131650 105320,82760 447610,188080 357340,782400 -368630,-142940 -428810,-428810 -473950,-564230 z"
   style="fill:#fff500;stroke:none" />
     <path
   id="_100983576"
   d="m 13360300,5837270 c 0,0 86510,45140 229450,214410 146700,169270 127890,221930 263300,413770 37620,52660 109090,278350 109090,278350 -413770,-180560 -458910,-534140 -500280,-650740 -41380,-124130 -94040,-263310 -94040,-263310 l -7520,7520 z"
   style="fill:#ef9b11;stroke:none" />
    </g>
    <g
   id="g203"
   style="stroke:none">
     <path
   id="_59500496"
   d="m 14014800,6141960 c 67710,-75230 169270,-139180 206880,-206890 0,0 -26330,248260 7530,413770 22560,131650 -82760,590560 -308450,804960 -391190,-357340 -41370,-857620 94040,-1011840 z"
   style="fill:#fff500;stroke:none" />
     <path
   id="_61670616"
   d="m 14221700,5935070 c 0,0 -109080,109090 -199360,199360 -112840,112850 -218160,293400 -278350,560470 -56420,263300 176790,458900 176790,458900 -7520,-695880 135420,-846340 173030,-962940 56420,-173030 127890,-255790 127890,-255790 z"
   style="fill:#ef9b11;stroke:none" />
    </g>
    <g
   id="g207"
   style="stroke:none">
     <path
   id="_60003720"
   d="m 13514500,6747560 c -11290,-101560 -33850,-259550 -48900,-338540 0,0 240740,195600 349820,323490 86510,101560 349820,530370 267070,733500 -515330,-146700 -545420,-473950 -567990,-718450 z"
   style="fill:#fff500;stroke:none" />
     <path
   id="_100838056"
   d="m 13458100,6409020 c 0,0 37610,15050 154220,139180 56420,63940 -3760,248260 214400,519090 41380,48900 255790,398720 255790,398720 -643220,-165510 -549180,-669550 -575510,-789920 -30100,-161740 -48900,-267070 -48900,-267070 z"
   style="fill:#ef9b11;stroke:none" />
    </g>
    <g
   id="g211"
   style="stroke:none">
     <path
   id="_59502008"
   d="m 14082500,7093620 c 52660,-37620 124130,-116610 195590,-214410 0,0 0,169270 -3760,282110 -7520,308450 -26330,485240 -379910,1094600 -206880,-432570 -26330,-996800 188080,-1162300 z"
   style="fill:#fff500;stroke:none" />
     <path
   id="_59501272"
   d="m 14278100,6879210 c 0,0 -82750,105320 -195590,214410 -112850,112840 -173030,180550 -244500,451380 -105320,413760 56420,710920 56420,710920 94040,-752300 195600,-831290 236980,-981750 18800,-75230 82750,-142940 105320,-218170 37610,-124130 41370,-176790 41370,-176790 z"
   style="fill:#ef9b11;stroke:none" />
    </g>
    <g
   id="g215"
   style="stroke:none">
     <path
   id="_101578032"
   d="m 14101300,8451520 c -376150,-176790 -624410,-778630 -534130,-1117170 0,0 744780,357350 534130,1117170 z"
   style="fill:#fff500;stroke:none" />
     <path
   id="_97524568"
   d="m 14101300,8451520 c -289630,-654500 -537890,-1094600 -537890,-1094600 0,0 -105320,680840 537890,1094600 z"
   style="fill:#ef9b11;stroke:none" />
    </g>
    <g
   id="g219"
   style="stroke:none">
     <path
   id="_94916864"
   d="m 14255500,7838400 c 90270,-71470 135410,-135420 173030,-188080 0,0 -33860,161740 -30100,304680 11290,255780 26330,500280 -379910,831300 -206880,-436340 18810,-782400 236980,-947900 z"
   style="fill:#fff500;stroke:none" />
     <path
   id="_126861280"
   d="m 14432300,7650320 c 0,0 -75230,116610 -161750,274590 -86510,150460 -199360,203120 -214400,398720 -18810,206880 -37620,462670 -37620,462670 -78990,-146700 -150460,-515330 67710,-759830 56420,-67710 124130,-161740 169270,-188070 78990,-48900 176790,-188080 176790,-188080 z"
   style="fill:#ef9b11;stroke:none" />
    </g>
    <g
   id="g223"
   style="stroke:none">
     <path
   id="_101563136"
   d="m 13578500,8342440 c 18810,-101560 -7520,-225690 -18800,-308450 0,0 94030,139180 214400,180560 225690,75230 470190,564220 315970,921570 -492760,-154230 -545420,-594320 -511570,-793680 z"
   style="fill:#fff500;stroke:none" />
     <path
   id="_94770376"
   d="m 13567200,8060320 c 0,0 41380,82760 71470,184320 45140,157980 78990,334770 255780,567990 188080,252020 195600,323490 195600,323490 -489000,-199360 -485230,-466430 -504040,-567990 -15050,-71470 -3760,-297160 -3760,-289640 0,-60180 -15050,-218170 -15050,-218170 z"
   style="fill:#ef9b11;stroke:none" />
    </g>
    <g
   id="g227"
   style="stroke:none">
     <path
   id="_60003824"
   d="m 14364600,8857760 c 37610,-139170 18810,-169260 41380,-255780 0,0 -26330,15050 -210650,97800 -289630,127890 -507800,507800 -398720,917810 541660,-357350 489000,-481470 567990,-759830 z"
   style="fill:#fff500;stroke:none" />
     <path
   id="_126861256"
   d="m 14402200,8601980 c 0,0 -67700,94040 -165500,206880 -139180,169270 -203120,267070 -278350,410010 -86520,176790 -169270,387430 -169270,387430 -90280,-432570 139170,-707160 229450,-797440 33850,-33850 203120,-112840 244500,-139170 101560,-63950 139170,-67710 139170,-67710 z"
   style="fill:#ef9b11;stroke:none" />
    </g>
    <g
   id="g231"
   style="stroke:none">
     <path
   id="_95175040"
   d="m 13518300,9260240 c -11280,-221920 -7520,-379910 -37610,-488990 0,0 109080,142940 274590,285870 7520,3770 364860,507810 -11290,872670 -195600,-206880 -214400,-496520 -225690,-669550 z"
   style="fill:#fff500;stroke:none" />
     <path
   id="_100983600"
   d="m 13480700,8771250 c 0,0 30090,154220 26330,289640 -3770,67700 11280,353580 48900,511560 37610,173030 188070,357340 188070,357340 -101560,-402480 -165510,-741010 -157980,-929090 3760,-63940 -90280,-203120 -90280,-203120 l -15040,-26330 z"
   style="fill:#ef9b11;stroke:none" />
    </g>
    <g
   id="g235"
   style="stroke:none">
     <path
   id="_100211392"
   d="m 14056200,9553640 c 112840,-15040 184310,11290 240730,-15040 0,0 -18810,161740 -97800,278350 -135410,199360 -394950,447620 -752300,462660 75230,-432570 338540,-688350 609370,-725970 z"
   style="fill:#fff500;stroke:none" />
     <path
   id="_95024512"
   d="m 14296900,9538600 c 0,0 -372390,124130 -699640,515320 -112840,131660 -150460,218170 -150460,218170 116610,-466430 308450,-590560 383680,-635690 56420,-33860 225690,-101570 300920,-86520 45130,11290 165500,-11280 165500,-11280 z"
   style="fill:#ef9b11;stroke:none" />
    </g>
    <g
   id="g239"
   style="stroke:none">
     <path
   id="_94999672"
   d="m 13213600,9858320 c -7520,-165500 22570,-285870 37610,-372380 0,0 142940,139170 221930,240730 90280,116610 293400,590560 -45140,921570 -86510,-481470 -210640,-609360 -214400,-789920 z"
   style="fill:#fff500;stroke:none" />
     <path
   id="_102514192"
   d="m 13251200,9489700 c 0,0 -22570,146700 -41370,259540 7520,-30090 -41380,154220 120370,489000 22560,52660 105320,443850 105320,443850 82750,-406240 -75230,-771100 -105320,-835050 -56430,-116610 -71470,-312210 -71470,-312210 l -7530,-45130 z"
   style="fill:#ef9b11;stroke:none" />
    </g>
    <g
   id="g243"
   style="stroke:none">
     <path
   id="_59501584"
   d="m 13901900,10132900 c 63950,-15040 203130,-45130 319730,-15040 0,0 -101560,-3760 -161740,165500 -67710,188080 -124130,609370 -868910,552950 131650,-425050 364870,-613130 710920,-703410 z"
   style="fill:#fff500;stroke:none" />
     <path
   id="_101566688"
   d="m 14221700,10117900 c 0,0 -146700,-3760 -315960,86510 -173030,90280 -131660,203120 -357350,285880 -184310,71470 -357340,346060 -357340,346060 203120,-631940 519090,-594320 609360,-658270 146700,-109080 421290,-60180 421290,-60180 z"
   style="fill:#ef9b11;stroke:none" />
    </g>
    <g
   id="g247"
   style="stroke:none">
     <path
   id="_119625144"
   d="m 12905100,10512800 c 26340,-221930 127900,-319730 120370,-485240 0,0 105330,173030 180560,244500 105320,105320 300920,756060 -135420,880190 -142940,-142930 -195600,-402480 -165510,-639450 z"
   style="fill:#fff500;stroke:none" />
     <path
   id="_60224400"
   d="m 13029300,10050200 c 0,0 71470,146700 41380,240740 7520,-26330 -82750,206880 26330,432570 52660,97800 -26330,432570 -26330,432570 -308440,-432570 -135410,-771100 -90270,-883950 15040,-41380 48890,-221930 48890,-221930 z"
   style="fill:#ef9b11;stroke:none" />
    </g>
    <g
   id="g251"
   style="stroke:none">
     <path
   id="_100321000"
   d="m 13390400,10832600 c 109080,-18800 259540,33860 436330,52670 0,0 11290,-22570 -101560,109080 -97800,116610 -470180,477710 -951660,334770 142940,-353580 263310,-432570 616890,-496520 z"
   style="fill:#fff500;stroke:none" />
     <path
   id="_142466024"
   d="m 13826700,10892700 c 0,0 -169260,-52660 -406240,-60190 -82750,-3760 -267070,26340 -406240,131660 -161750,124130 -229450,364860 -229450,364860 248260,-282110 327250,-139170 646980,-229450 184310,-52660 394950,-206880 394950,-206880 z"
   style="fill:#ef9b11;stroke:none" />
    </g>
    <g
   id="g255"
   style="stroke:none">
     <path
   id="_100783976"
   d="m 12645600,10892700 c 41380,-206880 71470,-244500 169270,-402480 0,0 -37620,120370 48900,236970 124130,169270 270830,511570 -94040,831300 -154220,-195600 -176790,-432580 -124130,-665790 z"
   style="fill:#fff500;stroke:none" />
     <path
   id="_153305456"
   d="m 12811100,10505300 c 0,0 -78990,116610 -124130,240740 -75230,191840 -52660,240740 -60190,413770 -3760,210640 142940,398720 142940,398720 139180,-451390 56420,-549180 15050,-748540 -26330,-127900 26330,-304690 26330,-304690 z"
   style="fill:#ef9b11;stroke:none" />
    </g>
    <g
   id="g259"
   style="stroke:none">
     <path
   id="_101110472"
   d="m 12845000,11366700 c 218170,-124130 368630,-30090 613130,7520 0,0 -7530,101560 -86520,173030 -338530,293400 -586790,447620 -966710,372390 -112840,-225690 221930,-428810 440100,-552940 z"
   style="fill:#fff500;stroke:none" />
     <path
   id="_100828944"
   d="m 13458100,11378000 c 0,0 -338540,-112840 -534140,-41370 -157980,56420 -221930,120360 -315960,188070 -361110,255780 -188080,394960 -188080,394960 327250,-315970 549180,-398720 616890,-436330 86510,-41380 421290,-105330 421290,-105330 z"
   style="fill:#ef9b11;stroke:none" />
    </g>
    <g
   id="g263"
   style="stroke:none">
     <path
   id="_62010192"
   d="m 12292000,11426900 c 90280,-221930 210640,-300920 285870,-391190 0,0 71470,184310 86520,248260 37610,142930 142940,703400 -259550,812480 -173020,-218170 -214400,-421290 -112840,-669550 z"
   style="fill:#fff500;stroke:none" />
     <path
   id="_62306344"
   d="m 12577900,11035700 c 0,0 -78990,116600 -82750,282110 0,71470 45140,334770 -30090,556700 -33850,105320 -60190,221930 -60190,221930 -331010,-383670 -63940,-793680 30100,-910280 11280,-15050 142930,-150460 142930,-150460 z"
   style="fill:#ef9b11;stroke:none" />
    </g>
    <g
   id="g267"
   style="stroke:none">
     <path
   id="_98834792"
   d="m 12536500,11904600 c 109080,-11280 346060,90280 605600,0 0,0 22570,-11280 -150460,146700 -323490,289640 -349820,432580 -1023130,278350 139180,-368620 206880,-402480 567990,-425050 z"
   style="fill:#fff500;stroke:none" />
     <path
   id="_98834816"
   d="m 13160900,11889500 c 0,0 -304680,180550 -496520,195600 -146700,11280 -86520,3760 -376150,67700 -188080,45140 -304680,180560 -304680,180560 71460,-560470 684590,-421290 759820,-410010 289640,52660 417530,-33850 417530,-33850 z"
   style="fill:#ef9b11;stroke:none" />
    </g>
    <g
   id="g271"
   style="stroke:none">
     <path
   id="_97678184"
   d="m 11961000,11761700 c 165500,-105330 157980,-191840 221930,-270830 0,0 26330,33850 71460,191840 203130,718440 -545410,876430 -451380,842570 -90270,-300920 -48900,-631930 157990,-763580 z"
   style="fill:#fff500;stroke:none" />
     <path
   id="_97679128"
   d="m 12179200,11494600 c 0,0 -60180,82750 -90270,165510 -30090,67700 -285880,101560 -323490,485230 -11290,109080 37610,379910 37610,379910 86520,-421290 240740,-680830 327250,-835050 41380,-75230 48900,-195600 48900,-195600 z"
   style="fill:#ef9b11;stroke:none" />
    </g>
    <g
   id="g275"
   style="stroke:none">
     <path
   id="_61757248"
   d="m 12100200,12337200 c 109090,3760 248260,75230 575510,-11290 0,0 41380,-37610 -139170,109090 -334780,270830 -575510,500280 -1293960,274590 120370,-361110 488990,-383680 857620,-372390 z"
   style="fill:#fff500;stroke:none" />
     <path
   id="_61794272"
   d="m 12694500,12314600 c 0,0 -304680,142940 -504040,180550 -206880,41380 -383680,78990 -714690,124130 -191830,26330 -236970,90280 -236970,90280 154220,-507810 1008080,-368630 1087070,-349820 112850,26330 368630,-45140 368630,-45140 z"
   style="fill:#ef9b11;stroke:none" />
    </g>
    <g
   id="g279"
   style="stroke:none">
     <path
   id="_61827248"
   d="m 8985650,13785300 c 0,0 801210,-267070 1414330,-511570 466430,-180550 564230,-327250 639460,-650740 18810,-94040 233210,-312200 549180,-425050 0,0 22570,560470 -443860,887720 -297160,206880 -1011850,481470 -2053780,853860 0,0 -176790,-90280 -105330,-154220 z"
   style="fill:#fff500;stroke:none" />
     <path
   id="_61830656"
   d="m 10772400,13112000 c 372390,-135420 816250,-910290 816250,-910290 0,0 -537900,146700 -594320,575510 0,0 -75230,315970 -507800,466430 l 285870,-131650 z"
   style="fill:#ef9b11;stroke:none" />
     <path
   id="_61880472"
   d="m 11396800,12837400 c 0,0 -221930,289630 -571750,425050 -56420,22570 -801200,346060 -977990,402480 -165510,56420 -756060,274590 -756060,274590 l -26330,-11290 c 0,0 11280,11290 116600,-26330 101560,-37610 771110,-278350 887720,-319720 116610,-41380 218170,-86520 244500,-97800 26330,-15050 127890,-60190 165500,-71470 41380,-15050 161750,-67710 221930,-94040 67710,-26330 188080,-86510 233220,-105320 52660,-22570 109080,-63950 161740,-97800 56420,-37620 120370,-82750 165510,-120370 37610,-37610 97800,-120370 135410,-157980 z"
   style="fill:#ffffff;stroke:none" />
    </g>
   </g>
   <g
   id="g284"
   style="stroke:none">
    <g
   id="g286"
   style="stroke:none">
     <polygon
   id="_125355648"
   points="4659920,3602940 4855520,4197260 4347720,3828630 3839910,4197260 4035510,3602940 3527710,3234310 4155880,3234310 4347720,2636230 4539550,3234310 5167730,3234310 "
   style="fill:#fff500;stroke:none" />
     <g
   id="g289"
   style="stroke:none">
      <polygon
   id="_125320560"
   points="3527710,3234310 4155880,3234310 4347720,3497620 "
   style="fill:#fff500;stroke:none" />
      <polygon
   id="_59363200"
   points="4347720,2636230 4539550,3234310 4347720,3497620 "
   style="fill:#fff500;stroke:none" />
      <polygon
   id="_125320600"
   points="5167730,3234310 4659920,3602940 4347720,3497620 "
   style="fill:#fff500;stroke:none" />
      <polygon
   id="_125286984"
   points="4855520,4197260 4347720,3828630 4347720,3497620 "
   style="fill:#fff500;stroke:none" />
      <polygon
   id="_59380744"
   points="3839910,4197260 4035510,3602940 4347720,3497620 "
   style="fill:#fff500;stroke:none" />
      <polygon
   id="_125612304"
   points="4347720,2636230 4155880,3234310 4347720,3497620 "
   style="fill:#ef9b11;stroke:none" />
      <polygon
   id="_125338176"
   points="5167730,3234310 4539550,3234310 4347720,3497620 "
   style="fill:#ef9b11;stroke:none" />
      <polygon
   id="_116841552"
   points="4855520,4197260 4659920,3602940 4347720,3497620 "
   style="fill:#ef9b11;stroke:none" />
      <polygon
   id="_125339464"
   points="3839910,4197260 4347720,3828630 4347720,3497620 "
   style="fill:#ef9b11;stroke:none" />
      <polygon
   id="_125245864"
   points="3527710,3234310 4035510,3602940 4347720,3497620 "
   style="fill:#ef9b11;stroke:none" />
     </g>
    </g>
    <g
   id="g301"
   style="stroke:none">
     <polygon
   id="_125335392"
   points="6262630,2740150 6227480,3364840 5889530,2836120 5282130,2993650 5681410,2511940 5343470,1983220 5928180,2212810 6325340,1726220 6285310,2353030 6870030,2582620 "
   style="fill:#fff500;stroke:none" />
     <g
   id="g304"
   style="stroke:none">
      <polygon
   id="_125312576"
   points="5343470,1983220 5928180,2212810 6010510,2528010 "
   style="fill:#fff500;stroke:none" />
      <polygon
   id="_125300480"
   points="6325340,1726220 6285310,2353030 6010510,2528010 "
   style="fill:#fff500;stroke:none" />
      <polygon
   id="_125319280"
   points="6870030,2582620 6262630,2740150 6010510,2528010 "
   style="fill:#fff500;stroke:none" />
      <polygon
   id="_125371760"
   points="6227480,3364840 5889530,2836120 6010510,2528010 "
   style="fill:#fff500;stroke:none" />
      <polygon
   id="_125344832"
   points="5282130,2993650 5681410,2511940 6010510,2528010 "
   style="fill:#fff500;stroke:none" />
      <polygon
   id="_100204152"
   points="6325340,1726220 5928180,2212810 6010510,2528010 "
   style="fill:#ef9b11;stroke:none" />
      <polygon
   id="_24955384"
   points="6870030,2582620 6285310,2353030 6010510,2528010 "
   style="fill:#ef9b11;stroke:none" />
      <polygon
   id="_61700416"
   points="6227480,3364840 6262630,2740150 6010510,2528010 "
   style="fill:#ef9b11;stroke:none" />
      <polygon
   id="_61986808"
   points="5282130,2993650 5889530,2836120 6010510,2528010 "
   style="fill:#ef9b11;stroke:none" />
      <polygon
   id="_95839304"
   points="5343470,1983220 5681410,2511940 6010510,2528010 "
   style="fill:#ef9b11;stroke:none" />
     </g>
    </g>
   </g>
   <g
   id="g316"
   style="stroke:none">
    <g
   id="g318"
   style="stroke:none">
     <polygon
   id="_61988056"
   points="10970100,3602940 10774500,4197260 11282300,3828630 11790100,4197260 11594500,3602940 12102300,3234310 11474100,3234310 11282300,2636230 11090400,3234310 10462300,3234310 "
   style="fill:#fff500;stroke:none" />
     <g
   id="g321"
   style="stroke:none">
      <polygon
   id="_62070776"
   points="12102300,3234310 11474100,3234310 11282300,3497620 "
   style="fill:#fff500;stroke:none" />
      <polygon
   id="_62000264"
   points="11282300,2636230 11090400,3234310 11282300,3497620 "
   style="fill:#fff500;stroke:none" />
      <polygon
   id="_94762448"
   points="10462300,3234310 10970100,3602940 11282300,3497620 "
   style="fill:#fff500;stroke:none" />
      <polygon
   id="_151122400"
   points="10774500,4197260 11282300,3828630 11282300,3497620 "
   style="fill:#fff500;stroke:none" />
      <polygon
   id="_62190096"
   points="11790100,4197260 11594500,3602940 11282300,3497620 "
   style="fill:#fff500;stroke:none" />
      <polygon
   id="_62138408"
   points="11282300,2636230 11474100,3234310 11282300,3497620 "
   style="fill:#ef9b11;stroke:none" />
      <polygon
   id="_62254984"
   points="10462300,3234310 11090400,3234310 11282300,3497620 "
   style="fill:#ef9b11;stroke:none" />
      <polygon
   id="_117979048"
   points="10774500,4197260 10970100,3602940 11282300,3497620 "
   style="fill:#ef9b11;stroke:none" />
      <polygon
   id="_151133136"
   points="11790100,4197260 11282300,3828630 11282300,3497620 "
   style="fill:#ef9b11;stroke:none" />
      <polygon
   id="_119812624"
   points="12102300,3234310 11594500,3602940 11282300,3497620 "
   style="fill:#ef9b11;stroke:none" />
     </g>
    </g>
    <g
   id="g333"
   style="stroke:none">
     <polygon
   id="_62123688"
   points="9367370,2740150 9402520,3364840 9740460,2836120 10347900,2993650 9948580,2511940 10286500,1983220 9701810,2212810 9304660,1726220 9344680,2353030 8759970,2582620 "
   style="fill:#fff500;stroke:none" />
     <g
   id="g336"
   style="stroke:none">
      <polygon
   id="_119884176"
   points="10286500,1983220 9701810,2212810 9619480,2528010 "
   style="fill:#fff500;stroke:none" />
      <polygon
   id="_98053648"
   points="9304660,1726220 9344680,2353030 9619480,2528010 "
   style="fill:#fff500;stroke:none" />
      <polygon
   id="_61972320"
   points="8759970,2582620 9367370,2740150 9619480,2528010 "
   style="fill:#fff500;stroke:none" />
      <polygon
   id="_62273240"
   points="9402520,3364840 9740460,2836120 9619480,2528010 "
   style="fill:#fff500;stroke:none" />
      <polygon
   id="_61551960"
   points="10347900,2993650 9948580,2511940 9619480,2528010 "
   style="fill:#fff500;stroke:none" />
      <polygon
   id="_62006416"
   points="9304660,1726220 9701810,2212810 9619480,2528010 "
   style="fill:#ef9b11;stroke:none" />
      <polygon
   id="_61693464"
   points="8759970,2582620 9344680,2353030 9619480,2528010 "
   style="fill:#ef9b11;stroke:none" />
      <polygon
   id="_151132840"
   points="9402520,3364840 9367370,2740150 9619480,2528010 "
   style="fill:#ef9b11;stroke:none" />
      <polygon
   id="_62091712"
   points="10347900,2993650 9740460,2836120 9619480,2528010 "
   style="fill:#ef9b11;stroke:none" />
      <polygon
   id="_151133432"
   points="10286500,1983220 9948580,2511940 9619480,2528010 "
   style="fill:#ef9b11;stroke:none" />
     </g>
    </g>
   </g>
  </g>
 </g>
</svg>