<svg height="2000" width="3000" xmlns="http://www.w3.org/2000/svg" xmlns:xlink="http://www.w3.org/1999/xlink"><use transform="matrix(1 0 0 -1 0 2000)" xlink:href="#a"/><path d="m1129.132 1000 1870.868 1000v-2000z" fill="#b0313f"/><path d="m1218.5035 1000-1218.5035-1000v2000z" fill="#fff"/><path d="m1218.504 1000-1218.504-651.304.0001 1302.608z" fill="#b0313f"/><path d="m1218.504 1000-1218.504-369.629.0001 739.258z" fill="#fff"/><path d="m0 880v240l1218.5-120z" fill="#b0313f"/><path d="m1129.132 1000 1870.868 567.522v-1135.044z" fill="#fff"/><path d="m3000 815.75-1870.875 184.25 1870.875 184.25z" fill="#b0313f"/><path id="a" d="m0 2000h1183.5097v-971.281z" fill="#b0313f"/><path id="b" d="m386.4 2000h797.1097v-971.281z" fill="#fff"/><path id="c" d="m664.3492 2000h519.1605v-971.281z" fill="#b0313f"/><path id="d" d="m888.8747 2000h294.635v-971.281z" fill="#fff"/><path id="e" d="m3000.6486 2000h-1817.1389v-971.281z" fill="#fff"/><path id="f" d="m2367.019 2000h-1183.5093v-971.281z" fill="#b0313f"/><path id="g" d="m1980.6194 2000h-797.1097v-971.281z" fill="#fff"/><path id="h" d="m1702.6702 2000h-519.1605v-971.281z" fill="#b0313f"/><path id="i" d="m1478.1445 2000h-294.6348v-971.281z" fill="#fff"/><path id="j" d="m1183.5 1028.7188-95.6562 971.2812h191.3437z" fill="#b0313f"/><g transform="matrix(1 0 0 -1 0 2000)"><use xlink:href="#b"/><use xlink:href="#c"/><use xlink:href="#d"/><use xlink:href="#e"/><use xlink:href="#f"/><use xlink:href="#g"/><use xlink:href="#h"/><use xlink:href="#i"/><use xlink:href="#j"/></g><path d="m1666.667 1000a500 500 0 0 1 -1000 0 500 500 0 1 1 1000 0z" fill="#b0313f"/></svg>