<?xml version="1.0" encoding="UTF-8" standalone="no"?>
<!-- Created with Inkscape (http://www.inkscape.org/) -->
<svg
   xmlns:svg="http://www.w3.org/2000/svg"
   xmlns="http://www.w3.org/2000/svg"
   version="1.0"
   width="518"
   height="600"
   id="svg1883">
  <defs
     id="defs1885" />
  <path
     d="M 516.7959,0.77928682 L 513.17812,351.01867 L 6.779157,351.01867 L 1.2010815,0.77928682 L 516.79892,0.77928682 L 516.7959,0.77928682 z "
     style="fill:red;stroke:black;stroke-width:1.55900002"
     id="path1899" />
  <path
     d="M 112.43972,246.54556 L 112.43972,151.01137 C 112.43972,151.01137 112.43972,136.37375 131.63124,129.40115 L 125.32876,113.14705 L 137.75277,113.14705 L 137.7588,65.775627 L 175.40236,65.775627 L 164.19615,75.721225 L 174.10495,85.829074 L 144.09264,85.829074 L 144.09264,113.11025 L 156.05281,113.11025 L 148.91193,129.41261 C 168.73135,136.384 169.03354,151.02283 169.03354,151.02283 L 169.03354,246.55763 L 112.43972,246.55763 L 112.43972,246.54556 z "
     style="opacity:1;color:black;fill:#f3cc0b;fill-opacity:1;fill-rule:nonzero;stroke:black;stroke-width:1.55857992;stroke-linecap:butt;stroke-linejoin:miter;marker:none;marker-start:none;marker-mid:none;marker-end:none;stroke-miterlimit:4;stroke-dasharray:none;stroke-dashoffset:0;stroke-opacity:1;visibility:visible;display:inline;overflow:visible"
     id="path1927" />
  <path
     d="M 129.72765,196.26025 L 152.96641,196.26025 L 152.96641,172.94187 C 152.96641,172.94187 150.17979,164.46317 141.12688,164.43784 C 132.93649,164.42035 129.72765,172.94187 129.72765,172.94187 L 129.72765,196.26025"
     style="fill:#09f;fill-rule:evenodd;stroke:none"
     id="path1929" />
  <path
     d="M 152.81019,172.44727 C 152.81019,172.44727 150.31972,166.15083 142.32235,166.18159 C 134.80208,166.20511 132.70186,171.88633 132.70186,171.88633 L 132.73141,196.26628 L 129.72282,196.26628 L 129.72282,172.9479 C 129.72282,172.9479 132.32186,164.354 141.12205,164.44387 C 150.6394,164.5458 153.01044,172.9479 153.01044,172.9479 L 152.80537,172.45451"
     style="fill:black;fill-rule:evenodd;stroke:none"
     id="path1931" />
  <path
     d="M 191.9864,246.54014 L 191.9864,151.00534 C 191.9864,151.00534 191.9864,136.36772 211.17853,129.39512 L 204.87605,113.14102 L 217.30006,113.14102 L 217.30548,65.769596 L 254.94905,65.769596 L 243.74284,75.715797 L 253.65164,85.823042 L 223.63933,85.823042 L 223.63933,113.10422 L 235.5995,113.10422 L 228.45319,129.40115 C 248.27261,136.37254 248.57419,151.01137 248.57419,151.01137 L 248.57419,246.54556 L 191.98037,246.54556 L 191.9864,246.54014 z "
     style="fill:#f3cc0b;stroke:black;stroke-width:1.55857992"
     id="path1903" />
  <path
     d="M 209.27313,196.25422 L 232.51129,196.25422 L 232.51129,172.93644 C 232.51129,172.93644 229.72527,164.45714 220.67235,164.43241 C 212.48137,164.41431 209.27313,172.93644 209.27313,172.93644 L 209.27313,196.25422"
     style="fill:#09f;fill-rule:evenodd;stroke:none"
     id="path1905" />
  <path
     d="M 232.35567,172.44124 C 232.35567,172.44124 229.8652,166.1448 221.86783,166.17556 C 214.34756,166.19908 212.24734,171.87427 212.24734,171.87427 L 212.27689,196.25422 L 209.27433,196.25422 L 209.27433,172.93644 C 209.27433,172.93644 211.87337,164.34254 220.67356,164.43241 C 230.19091,164.53374 232.56135,172.93644 232.56135,172.93644 L 232.35688,172.44305"
     style="fill:black;fill-rule:evenodd;stroke:none"
     id="path1907" />
  <path
     d="M 271.53188,246.5341 L 271.53188,150.99931 C 271.53188,150.99931 271.53188,136.36168 290.72401,129.38909 L 284.42093,113.13498 L 296.84554,113.13498 L 296.85096,65.764167 L 334.49453,65.764167 L 323.28832,75.709765 L 333.19712,85.817614 L 303.18481,85.817614 L 303.18481,113.09819 L 315.14498,113.09819 L 308.0047,129.39512 C 327.82352,136.36651 328.1257,151.00534 328.1257,151.00534 L 328.1257,246.54014 L 271.53188,246.54014 L 271.53188,246.5341 z "
     style="opacity:1;color:black;fill:#f3cc0b;fill-opacity:1;fill-rule:nonzero;stroke:black;stroke-width:1.55857992;stroke-linecap:butt;stroke-linejoin:miter;marker:none;marker-start:none;marker-mid:none;marker-end:none;stroke-miterlimit:4;stroke-dasharray:none;stroke-dashoffset:0;stroke-opacity:1;visibility:visible;display:inline;overflow:visible"
     id="path1911" />
  <path
     d="M 288.82404,196.24698 L 312.0628,196.24698 L 312.0628,172.9286 C 312.0628,172.9286 309.27678,164.4499 300.22326,164.42457 C 292.03288,164.40708 288.82404,172.9286 288.82404,172.9286 L 288.82404,196.24698"
     style="fill:#09f;fill-rule:evenodd;stroke:none"
     id="path1913" />
  <path
     d="M 311.90115,172.434 C 311.90115,172.434 309.41068,166.13756 301.41331,166.16832 C 293.89304,166.19184 291.79282,171.86703 291.79282,171.86703 L 291.82237,196.24698 L 288.81378,196.24698 L 288.81378,172.9286 C 288.81378,172.9286 291.41282,164.3347 300.21301,164.42457 C 309.73036,164.5265 312.1014,172.9286 312.1014,172.9286 L 311.89633,172.43581"
     style="fill:black;fill-rule:evenodd;stroke:none"
     id="path1915" />
  <path
     d="M 351.07736,246.52807 L 351.07736,150.98785 C 351.07736,150.98785 351.07736,136.35022 370.26949,129.37763 L 363.96641,113.12352 L 376.39644,113.12352 L 376.40247,65.752104 L 414.04604,65.752104 L 402.83983,75.697702 L 412.74863,85.805551 L 382.73632,85.805551 L 382.73632,113.08673 L 394.69649,113.08673 L 387.55561,129.38366 C 407.37503,136.35445 407.67721,150.99328 407.67721,150.99328 L 407.67721,246.5341 L 351.08279,246.5341 L 351.07736,246.52807 z "
     style="opacity:1;color:black;fill:#f3cc0b;fill-opacity:1;fill-rule:nonzero;stroke:black;stroke-width:1.55857992;stroke-linecap:butt;stroke-linejoin:miter;marker:none;marker-start:none;marker-mid:none;marker-end:none;stroke-miterlimit:4;stroke-dasharray:none;stroke-dashoffset:0;stroke-opacity:1;visibility:visible;display:inline;overflow:visible"
     id="path1919" />
  <path
     d="M 368.36952,196.24095 L 391.60828,196.24095 L 391.60828,172.92317 C 391.60828,172.92317 388.82226,164.44387 379.76874,164.41914 C 371.57836,164.40104 368.36952,172.92317 368.36952,172.92317 L 368.36952,196.24095"
     style="fill:#09f;fill-rule:evenodd;stroke:none"
     id="path1921" />
  <path
     d="M 391.44603,172.42797 C 391.44603,172.42797 388.95616,166.13153 380.95879,166.16229 C 373.43792,166.18581 371.3383,171.861 371.3383,171.861 L 371.36785,196.24095 L 368.35926,196.24095 L 368.35926,172.92317 C 368.35926,172.92317 370.9583,164.32927 379.75849,164.41914 C 389.27584,164.52047 391.64628,172.92317 391.64628,172.92317 L 391.44181,172.42978"
     style="fill:black;fill-rule:evenodd;stroke:none"
     id="path1923" />
  <path
     d="M 78.711902,248.14335 L 78.711902,211.58669 L 120.37798,211.58669 L 120.37798,238.98247 L 159.43235,238.98247 L 159.43235,211.58669 L 199.95181,211.58669 L 199.95181,238.98247 L 238.01578,238.98247 L 238.01578,211.58669 L 282.15483,211.58669 L 282.15483,238.98247 L 319.33276,238.98247 L 319.33276,211.58669 L 360.57662,211.58669 L 360.57662,238.98247 L 398.47954,238.98247 L 398.47954,211.58669 L 440.48279,211.58669 L 440.48279,248.14335 L 78.698633,248.14335"
     style="fill:black;fill-rule:evenodd;stroke:none"
     id="path1933" />
  <path
     d="M 79.459828,351.02048 L 79.459828,214.69963 L 118.00754,214.69963 L 118.00754,242.09541 L 160.17424,242.09541 L 160.17424,214.69963 L 197.57654,214.69963 L 197.57654,242.09541 L 238.75948,242.09541 L 238.75948,214.69963 L 279.77957,214.69963 L 279.77957,242.09541 L 320.07646,242.09541 L 320.07646,214.69963 L 358.20135,214.69963 L 358.20135,242.09541 L 399.22144,242.09541 L 399.22144,214.69963 L 439.68058,214.69963 L 439.68058,351.02048 L 79.446558,351.02048 L 79.459828,351.02048 z "
     style="fill:#f3cc0b;stroke:black;stroke-width:1.55857992"
     id="path1937" />
  <path
     d="M 159.69292,350.26652 L 201.52728,350.26652 L 201.52728,290.34866 C 201.52728,290.34866 200.75583,268.22515 180.2114,268.22515 C 161.10372,268.22515 159.69292,290.34866 159.69292,290.34866 L 159.69292,350.26652"
     style="fill:#09f;fill-opacity:1;fill-rule:evenodd;stroke:none"
     id="path1939" />
  <path
     d="M 181.21326,269.91823 C 167.6728,269.98458 163.48622,287.57892 163.48622,287.57892 L 163.5393,351.01867 L 159.68568,351.01867 L 159.68568,290.34142 C 159.68568,290.34142 160.81179,268.2173 180.20417,268.2173 C 195.57396,268.2173 197.93723,278.41885 197.93723,278.41885 C 197.93723,278.41885 194.45916,269.91823 181.21145,269.91823"
     style="fill:black;fill-rule:evenodd;stroke:none"
     id="path1941" />
  <path
     d="M 318.86168,350.26652 L 360.69604,350.26652 L 360.69604,290.34866 C 360.69604,290.34866 359.92459,268.22515 339.38077,268.22515 C 320.27249,268.22515 318.86168,290.34866 318.86168,290.34866 L 318.86168,350.26652"
     style="fill:#09f;fill-rule:evenodd;stroke:none"
     id="path1943" />
  <path
     d="M 340.38203,269.91823 C 326.84156,269.98458 322.65499,287.57892 322.65499,287.57892 L 322.70807,351.01867 L 318.85444,351.01867 L 318.85444,290.34142 C 318.85444,290.34142 319.98116,268.2173 339.37293,268.2173 C 353.4389,268.2173 357.106,278.13134 357.106,278.13134 C 357.106,278.13134 352.90917,269.91823 340.38022,269.91823"
     style="fill:black;fill-rule:evenodd;stroke:none"
     id="path1945" />
  <path
     d="M 513.20767,351.02048 C 513.20767,488.10072 400.87532,599.22071 260.66887,599.22071 C 120.46363,599.22071 6.8086518,488.10193 6.8086518,351.02048 L 513.20767,351.02048 z "
     style="fill:#b3cccc;stroke:black;stroke-width:1.55857992"
     id="path1949" />
  <path
     d="M 206.73863,409.06914 C 206.73863,409.06914 251.57132,368.9164 253.24812,369.22402 C 254.92432,369.53043 274.09835,392.36748 281.85024,400.11153 C 283.07406,401.33535 268.9256,412.57836 268.9256,412.57836 L 206.73983,409.06914"
     style="fill:red;fill-rule:evenodd;stroke:none"
     id="path1953" />
  <path
     d="M 334.31479,422.91119 L 349.68284,413.19539 C 349.68284,413.19539 354.76029,409.73322 359.70625,409.53418 C 365.56299,409.30015 371.37087,414.85953 362.40119,418.79277 C 357.87142,420.77598 349.93436,426.57783 349.93436,426.57783 L 334.31358,422.91722"
     style="fill:red;fill-rule:evenodd;stroke:none"
     id="path1955" />
  <path
     d="M 304.80189,474.15674 L 319.71154,490.84573 C 319.71154,490.84573 345.71281,473.80027 360.16465,468.04727 L 352.6854,460.61627 L 304.80008,474.15071"
     style="fill:red;fill-rule:evenodd;stroke:none"
     id="path1957" />
  <path
     d="M 248.03858,486.37024 C 248.03858,486.37024 295.51857,479.33853 350.06826,462.40707 C 371.34131,455.80241 387.47056,459.57823 394.70192,460.51916 C 398.18761,460.00104 399.4247,456.9442 401.07677,454.01221 C 404.91894,447.19101 403.85133,437.93906 401.28728,431.81029 C 400.08155,428.92233 399.31553,425.45896 397.14534,425.60492 C 371.84918,427.30525 362.12012,428.65573 353.35672,426.61161 C 240.31203,400.2599 172.44384,410.89371 172.44384,410.89371 C 172.44384,410.89371 152.92057,412.17182 135.47039,419.95266 C 135.47039,419.95266 87.320282,425.74305 72.566851,436.39435 C 70.010032,438.23943 69.443057,443.89109 81.479829,440.76006 C 90.666041,440.60445 97.185055,446.7314 99.682764,449.54698 C 100.42345,450.37935 100.80887,450.92099 100.80887,450.92099 C 93.6686,447.56196 83.976332,460.86659 76.713615,452.31973 C 74.332317,449.51622 73.034908,454.21367 76.153877,457.22347 C 85.092188,465.84874 91.841008,461.72248 97.559018,464.89573 C 104.1872,468.57444 115.30355,469.94363 136.95056,475.29371 C 160.20259,481.03524 206.71209,488.88242 248.03557,486.36119 L 248.03858,486.37024 z "
     style="fill:#09f;stroke:black;stroke-width:1.55857992"
     id="path1961" />
  <path
     d="M 159.08915,463.08744 C 162.09774,462.00838 200.00187,462.31599 199.50064,462.84738 C 199.50064,462.84738 202.34155,473.51014 189.03692,473.99328 C 178.47549,474.37327 164.20459,470.62822 161.50241,469.66376 C 158.13192,468.46406 156.08659,464.17555 159.09638,463.09046"
     style="fill:red;fill-rule:evenodd;stroke:none"
     id="path1963" />
  <path
     d="M 107.1204,438.14051 C 107.1204,436.52524 108.43409,435.21034 110.05118,435.21034 C 111.66646,435.21034 112.98136,436.52403 112.98136,438.14051 C 112.98136,439.76182 111.66766,441.0713 110.05118,441.0713 C 108.4353,441.0713 107.1204,439.7576 107.1204,438.14051"
     style="fill:red;fill-rule:evenodd;stroke:none"
     id="path1965" />
  <path
     d="M 224.82756,486.58677 C 224.82756,486.58677 225.12794,475.9783 242.22165,482.81699 C 243.83693,483.46177 248.66286,492.03819 248.78952,493.99244 C 248.78952,493.99244 249.76002,499.69718 249.43431,503.97905 C 249.07965,508.72536 247.58922,515.14305 246.31111,513.45358 C 246.31111,513.45358 239.66544,504.34035 235.13566,498.72548 C 231.23318,493.8893 224.82153,486.58376 224.82153,486.58376"
     style="fill:red;fill-rule:evenodd;stroke:none"
     id="path1967" />
  <path
     d="M 397.14655,425.60191 C 397.14655,425.60191 442.05705,401.54887 457.88412,404.35238 C 458.54096,404.46578 457.88412,409.81586 455.7857,417.24203 C 453.26507,425.85524 451.81748,436.72971 452.00446,442.3874 C 452.21496,448.68988 450.9073,456.45202 456.6241,477.89576 C 457.4619,481.04429 457.24959,485.66936 457.24959,485.66936 C 455.77846,486.92998 448.62492,485.39251 446.67066,485.04327 C 433.99333,482.73436 394.69649,460.5252 394.69649,460.5252 C 402.33136,452.75763 402.12085,442.38921 402.12085,442.38921 L 397.13328,425.60915 L 397.14655,425.60191 z "
     style="fill:red;stroke:black;stroke-width:1.55857992"
     id="path1971" />
  <path
     d="M 137.75458,425.0096 C 137.75458,425.0096 154.59496,453.09902 132.87014,471.21751"
     style="fill:none;stroke:black;stroke-width:1.55857992;stroke-linecap:round"
     id="path1973" />
</svg>
