<?xml version="1.0" encoding="UTF-8" standalone="no"?>
<!-- Created with Inkscape (http://www.inkscape.org/) -->

<svg
   xmlns:dc="http://purl.org/dc/elements/1.1/"
   xmlns:cc="http://creativecommons.org/ns#"
   xmlns:rdf="http://www.w3.org/1999/02/22-rdf-syntax-ns#"
   xmlns:svg="http://www.w3.org/2000/svg"
   xmlns="http://www.w3.org/2000/svg"
   xmlns:sodipodi="http://sodipodi.sourceforge.net/DTD/sodipodi-0.dtd"
   xmlns:inkscape="http://www.inkscape.org/namespaces/inkscape"
   id="svg2"
   version="1.1"
   inkscape:version="0.48.5 r10040"
   width="207.80588"
   height="216.63126"
   xml:space="preserve"
   sodipodi:docname="PK_vaakuna_väri_cmyk.pdf"><metadata
     id="metadata8"><rdf:RDF><cc:Work
         rdf:about=""><dc:format>image/svg+xml</dc:format><dc:type
           rdf:resource="http://purl.org/dc/dcmitype/StillImage" /><dc:title></dc:title></cc:Work></rdf:RDF></metadata><defs
     id="defs6"><clipPath
       clipPathUnits="userSpaceOnUse"
       id="clipPath16"><path
         d="m 0,191.608 186.695,0 L 186.695,0 0,0 0,191.608 z"
         id="path18"
         inkscape:connector-curvature="0" /></clipPath></defs><sodipodi:namedview
     pagecolor="#ffffff"
     bordercolor="#666666"
     borderopacity="1"
     objecttolerance="10"
     gridtolerance="10"
     guidetolerance="10"
     inkscape:pageopacity="0"
     inkscape:pageshadow="2"
     inkscape:window-width="1920"
     inkscape:window-height="1017"
     id="namedview4"
     showgrid="false"
     showguides="true"
     inkscape:guide-bbox="true"
     inkscape:zoom="1.9706902"
     inkscape:cx="133.29528"
     inkscape:cy="82.332664"
     inkscape:window-x="-8"
     inkscape:window-y="-8"
     inkscape:window-maximized="1"
     inkscape:current-layer="g10"
     fit-margin-top="0"
     fit-margin-left="0"
     fit-margin-right="0"
     fit-margin-bottom="0" /><g
     id="g10"
     inkscape:groupmode="layer"
     inkscape:label="PK_vaakuna_väri_cmyk"
     transform="matrix(1.25,0,0,-1.25,-11.8675,226.81712)"><g
       id="g12"><g
         id="g14"
         clip-path="url(#clipPath16)"><path
           inkscape:connector-curvature="0"
           id="path22"
           style="fill:#e4013a;fill-opacity:1;fill-rule:nonzero;stroke:none"
           d="m 175.7387,181.4537 0,-87.509 C 175.68031,42.6017 143.98179,8.1487 92.616348,8.1487 41.2509,8.1487 9.55239,42.6017 9.494,93.9447 l 0,87.509"
           sodipodi:nodetypes="cczcc" /><g
           id="g3119"
           transform="translate(-0.19125,1.7222964)"><g
             transform="translate(64.9078,146.7385)"
             id="g92"><path
               inkscape:connector-curvature="0"
               id="path94"
               style="fill:#ffffff;fill-opacity:1;fill-rule:evenodd;stroke:none"
               d="M 0,0 -1.512,2.785 -0.05,5.65 -2.963,2.768 0,0 z" /></g><g
             transform="translate(120.7144,146.8059)"
             id="g96"><path
               inkscape:connector-curvature="0"
               id="path98"
               style="fill:#ffffff;fill-opacity:1;fill-rule:evenodd;stroke:none"
               d="M 0,0 1.511,2.781 0.043,5.642 2.956,2.765 0,0 z" /></g><g
             transform="translate(106.37324,163.135)"
             id="g104"><path
               inkscape:connector-curvature="0"
               id="path106"
               style="fill:#ffed00;fill-opacity:1;fill-rule:evenodd;stroke:none"
               d="m -42.007,-19.069 c -0.864,-0.04 -1.914,-0.206 -1.914,1.259 0,1.194 1.362,1.047 2.626,1.047 l 6.336,3.187 -6.675,3.319 c -1.137,-0.107 -2.123,0.526 -2.123,1.467 0,1.721 1.812,1.429 2.791,1.64 l -2.01,18.498 c 1.093,-0.36 6.105,-1.87 6.105,-3.396 0,-2.017 -1.406,-3.991 -2.288,-5.877 2.263,0 5.73,2.164 7.35,3.692 0.373,-1.005 2.113,-4.109 2.536,-4.3 -0.423,-0.357 -2.586,-3.481 -2.938,-4.153 -1.11,0.823 -4.76,3.041 -6.948,2.559 -0.087,-5.601 8.288,-9.735 10.957,-4.386 -1.909,1.025 -1.72,4.386 0.979,4.513 2.758,-0.127 2.926,-3.416 1.012,-4.45 2.663,-5.348 11.036,-1.215 10.955,4.388 -2.181,0.479 -5.835,-1.765 -6.942,-2.576 -0.363,0.667 -2.525,3.831 -2.944,4.189 0.419,0.191 2.438,3.272 2.82,4.279 1.612,-1.534 4.798,-3.693 7.066,-3.693 -1.28,1.74 -2.793,4.013 -3.104,5.837 0.417,0.855 2.749,2.053 4.796115,3.877 2.047115,-1.824 4.379115,-3.022 4.796115,-3.877 -0.311,-1.824 -1.824,-4.097 -3.104,-5.837 2.268,0 5.454,2.159 7.066,3.693 0.382,-1.007 2.401,-4.088 2.82,-4.279 -0.419,-0.358 -2.581,-3.522 -2.944,-4.189 -1.107,0.811 -4.761,3.055 -6.942,2.576 -0.081,-5.603 8.292,-9.736 10.955,-4.388 -1.914,1.034 -1.746,4.323 1.012,4.45 2.699,-0.127 2.888,-3.488 0.979,-4.513 2.669,-5.349 11.044,-1.215 10.957,4.386 -2.188,0.482 -5.838,-1.736 -6.948,-2.559 -0.352,0.672 -2.515,3.796 -2.938,4.153 0.423,0.191 2.163,3.295 2.536,4.3 1.62,-1.528 5.087,-3.692 7.35,-3.692 -0.882,1.886 -2.288,3.86 -2.288,5.877 0,1.526 5.012,3.036 6.105,3.396 l -2.01,-18.498 c 0.979,-0.211 2.791,0.081 2.791,-1.64 0,-0.941 -0.986,-1.574 -2.123,-1.467 l -6.675,-3.319 6.336,-3.187 c 1.264,0 2.626,0.147 2.626,-1.047 0,-1.465 -1.05,-1.299 -1.914,-1.259 z"
               sodipodi:nodetypes="cscccsccscccccccccccccccccccccccccccccsccscccscc" /></g><g
             transform="matrix(-1,0,0,1,92.806608,146.6447)"
             id="g108"><path
               inkscape:connector-curvature="0"
               id="path110"
               style="fill:#e4013a;fill-opacity:1;fill-rule:evenodd;stroke:none"
               d="M 0,0 -5.919,2.98 0,5.876 5.915,2.98 0,0 z" /></g><g
             transform="translate(79.230255,151.2424)"
             id="g112"><path
               inkscape:connector-curvature="0"
               id="path114"
               style="fill:#2d358a;fill-opacity:1;fill-rule:evenodd;stroke:none"
               d="m 0,0 c 1.662,0 3.011,-0.796 3.011,-1.768 0,-0.967 -1.349,-1.755 -3.011,-1.755 -1.657,0 -3.014,0.788 -3.014,1.755 C -3.014,-0.796 -1.657,0 0,0" /></g><g
             transform="translate(106.38945,151.26)"
             id="g116"><path
               inkscape:connector-curvature="0"
               id="path118"
               style="fill:#2d358a;fill-opacity:1;fill-rule:evenodd;stroke:none"
               d="m 0,0 c 1.658,0 3.013,-0.788 3.013,-1.76 0,-0.969 -1.355,-1.763 -3.013,-1.763 -1.663,0 -3.015,0.794 -3.015,1.763 C -3.015,-0.788 -1.663,0 0,0" /></g></g><g
           id="g3227"
           transform="translate(0.26327652,0)"><g
             id="g3145"
             transform="matrix(0.99981347,0.01931399,-0.01931399,0.99981347,2.8753496,-2.529321)"><g
               id="g28"
               transform="translate(126.8013,141.4738)"><path
                 d="m 0,0 c 1.099,-2.21 5.85,-8.24 7.673,-9.823 0.526,-0.043 2.404,-0.1 2.849,-0.197 -0.543,0.418 -0.503,1.318 -0.58,2 C 7.854,-7.796 6.771,-5.774 7.136,-4.814 5.974,-4.875 4.005,-2.652 5.13,-1.087 3.948,-0.926 3.024,0.012 2.786,1.263 2.587,2.401 3.222,3.586 4.348,4.307 L 9.197,7.469 C 6.474,10.455 2.524,10.212 0.379,8.329 -1.906,6.331 -1.425,2.318 0,0"
                 style="fill:#fff200;fill-opacity:1;fill-rule:evenodd;stroke:none"
                 id="path30"
                 inkscape:connector-curvature="0" /></g><g
               id="g36"
               transform="translate(123.0699,136.6945)"><path
                 d="m -3.461,-7.328 c 1.398,-0.478 1.779,-2.061 1.917,-2.52 1.586,-0.121 3.512,-1.542 3.694,-2.89 1.461,0.124 3.025,-1.056 3.705,-2.561 1.0699092,0.188838 2.207,0.457 3.269,-1.364 l 1.182,0.139 14.009,8.655 c 0.201,0.204 1.017,1.727 1.1,1.967 0.2,0.562 0.844,3.104 0.743,3.663 -0.062,0.121 -0.223,0.282 -0.223,0.282 -0.158,0.118 -0.4,-0.201 -0.856,0.118 -1.088,0.861 -0.587,2.586 -0.21,3.549 0.121,-0.683 0.103,-0.922 0.284,-1.602 l 0.462,0 C 25.816,1.13 25.578,2.092 25.578,3.154 22.673,2.188 19.623,-2.197 22.772,-4.662 l -0.264,-0.543 c -1.079,0.245 -0.779,0.5 -1.444,1.164 l -3.503,-2.284 c -0.563,-1.136 -0.144,-1.804 0.138,-2.946 -0.883,0.944 -7.393,6.667 -11.844,1.99 0.563,2.138 1.582,2.697 3.37,2.418 L 2.729,3.333 C 1.7055351,2.4720829 0.442,1.106 0,0 -1.8356906,-2.2869881 -3.3347355,-4.604377 -3.461,-7.328 z"
                 style="fill:#ffffff;fill-opacity:1;fill-rule:evenodd;stroke:none"
                 id="path38"
                 inkscape:connector-curvature="0"
                 sodipodi:nodetypes="ccccccccccccccccccccccccc" /></g><g
               id="g40"
               transform="translate(137.9117,133.843)"><path
                 d="m 0,0 c -0.318,-0.228 -0.318,-0.908 -0.22,-1.327 0.101,-0.338 1.162,-1.861 1.944,-1.403 l 0.945,0.68 c 1.217,0.885 0.018,2.003 -0.427,2.128 1.006,0.483 1.544,-0.562 1.544,-1.285 L 5.793,0 c 0,2.482 0.138,2.943 1.363,4.687 L 6.893,5.062 0,0"
                 style="fill:#ffffff;fill-opacity:1;fill-rule:evenodd;stroke:none"
                 id="path42"
                 inkscape:connector-curvature="0" /></g><g
               id="g44"
               transform="translate(135.1988,136.8029)"><path
                 d="m 0,0 c -0.543,-0.383 -0.344,-1.086 -0.225,-1.325 0.101,-0.238 0.988,-1.321 1.763,-0.862 l 0.944,0.682 c 0.863,0.62 -0.1,1.964 -0.419,2.127 1,0.478 1.543,-0.562 1.543,-1.284 0.982,0.577 4.769,3.089 5.21,3.708 C 8.574,3.761 8.075,4.648 7.247,5.148 L 0,0"
                 style="fill:#ffffff;fill-opacity:1;fill-rule:evenodd;stroke:none"
                 id="path46"
                 inkscape:connector-curvature="0" /></g><g
               id="g48"
               transform="translate(132.9947,139.968)"><path
                 d="m 0,0 c -0.519,-0.356 -0.318,-1.1 -0.22,-1.319 0.081,-0.221 0.98,-1.32 1.762,-0.868 l 0.942,0.688 C 3.343,-0.885 2.385,0.465 2.06,0.622 3.061,1.105 3.604,0.06 3.604,-0.658 4.586,-0.078 8.136,2.308 8.579,2.928 8.337,3.649 7.854,4.45 7.035,4.951 L 0,0"
                 style="fill:#ffffff;fill-opacity:1;fill-rule:evenodd;stroke:none"
                 id="path50"
                 inkscape:connector-curvature="0" /></g><g
               id="g52"
               transform="translate(130.8502,143.6838)"><path
                 d="m 0,0 c -0.52,-0.358 -0.32,-1.099 -0.22,-1.324 0.08,-0.218 0.983,-1.322 1.766,-0.863 l 0.941,0.679 C 3.349,-0.883 2.385,0.46 2.066,0.622 3.07,1.099 3.611,0.061 3.611,-0.654 4.593,-0.077 7.617,1.946 8.054,2.567 7.817,3.284 7.355,4.005 6.537,4.508 L 0,0"
                 style="fill:#ffffff;fill-opacity:1;fill-rule:evenodd;stroke:none"
                 id="path54"
                 inkscape:connector-curvature="0" /></g><g
               id="g56"
               transform="translate(154.9595,129.2043)"><path
                 d="m 0,0 c -0.462,-1.306 -3.506,-0.562 -3.726,-0.02 l -14.345,-9.194 c -1.265,-0.882 -2.189,-2.39 -2.206,-3.949 -0.409,-4.433 6.59,-4.949 7.11,-1.024 0.299,2.365 -1.619,3.625 -4.05,3.105 0.807,0.747 2.527,0.664 3.589,0.323 l 12.02,7.672 c 1.491,0.902 4.132,2.406 4.55,4.285 C 3.188,2.261 2.823,3.34 2.206,4.185 0.145,7.432 -5.086,5.026 -3.806,1.664 -3.248,0.236 -1.863,-1.005 0,0"
                 style="fill:#fff200;fill-opacity:1;fill-rule:evenodd;stroke:none"
                 id="path58"
                 inkscape:connector-curvature="0" /></g><g
               id="g68"
               transform="translate(144.3795,118.3684)"><path
                 d="m 0,0 c 4.246,-8.977 11.88,-18.632 7.032,-40.609 4.192,-2.102 11.439,-7.636 14.228,-11.345 4.531,20.557 -4.148,43.775 -13.929,56.621 L 0,0"
                 style="fill:#ffffff;fill-opacity:1;fill-rule:evenodd;stroke:none"
                 id="path70"
                 inkscape:connector-curvature="0" /></g><g
               id="g124"
               transform="translate(139.067,72.7502)"><path
                 d="m -2.7933161,1.1586281 c -7.9413379,3.4153162 -12.2210439,1.67582 -19.3210439,1.99882 1.606,0.799 4.831,3.004 5.275,5.928 0.361,2.1619999 -0.4,5.7899999 -0.263,8.2709999 0.127,2.388 3.05336,5.557552 3.55336,7.864552 1.383,6.258 3.9334055,11.515701 6.7734055,17.207701 C -6.312,43.48 -6.1027739,43.768309 -5.873,44.355 c -1.025,0 -0.845,-0.174 -1.861,-0.373 -0.284,2.74 -2.726,2.76 -3.731,2.179 -0.683,3.002 -2.664,2.747 -3.928,2.766 0.301,2.321 -2.405,3.245 -3.746,2.705 -0.237,2.202 -1.727,2.607 -3.407,3.344 -12.403,-24.349 -19.339075,-37.10046 -23.151075,-60.9624606 2.05229,-6.8166134 20.410451,-17.1655454 23.980451,-18.6505454 8.987,-3.648 21.74172525,-8.749064 30.2113766,-16.04353 7.0152644,5.443696 16.6611354,20.753407 19.6634604,31.1098004 -5.052255,1.5734999 -12.100731,0.6040535 -15.885242,1.9175567 -3.7501922,2.807964 -10.5683447,7.18734779 -15.0662871,8.811807"
                 style="fill:#ffffff;fill-opacity:1;fill-rule:nonzero;stroke:none"
                 id="path126"
                 inkscape:connector-curvature="0"
                 sodipodi:nodetypes="cccccccccccccccccc" /></g></g><g
             transform="matrix(1,0,0,1.0155971,-0.90267558,0.14903615)"
             id="g3165"><g
               id="g32"
               transform="translate(49.3834,139.5871)"><path
                 d="m 0,0 c -3.032,-0.646 -3.032,-3.168 -2.813,-4.271 -1.424,-0.402 -3.423,-1.401 -2.598,-3.962 -2.189,-0.324 -3.712,-2.383 -2.525,-3.771 l 9.598,-6.207 9.82,15.02 c 0.044,0.203 0.044,0.441 0,0.67 L 2.263,4.008 C 0.357,3.888 -0.806,1.26 0,0"
                 style="fill:#ffffff;fill-opacity:1;fill-rule:evenodd;stroke:none"
                 id="path34"
                 inkscape:connector-curvature="0" /></g><g
               id="g60"
               transform="translate(55.5953,112.3957)"><path
                 d="M 0,0 13.486,1.47 17.555,14.986 6.613,22.258 -2.812,7.775 0,0 z"
                 style="fill:#ffffff;fill-opacity:1;fill-rule:evenodd;stroke:none"
                 id="path62"
                 inkscape:connector-curvature="0" /></g><g
               id="g64"
               transform="translate(30.6793,125.842)"><path
                 d="m 0,0 0.744,-4.184 c 6.812,1.062 14.71,-1.627 17.899,-10.141 l 4.005,1.679 C 20.741,-3.547 8.118,2.39 0,0"
                 style="fill:#fff200;fill-opacity:1;fill-rule:evenodd;stroke:none"
                 id="path66"
                 inkscape:connector-curvature="0" /></g><g
               id="g72"
               transform="translate(56.5963,110.1906)"><path
                 d="m 0,0 3.207,-20.757 c 5.892,-5.608 20.604,-3.204 24.988,2.088 L 16.674,8.964 14.485,1.727 0,0"
                 style="fill:#ffffff;fill-opacity:1;fill-rule:evenodd;stroke:none"
                 id="path74"
                 inkscape:connector-curvature="0" /></g><g
               id="g76"
               transform="translate(16.1129,72.3811)"><path
                 d="M 1.7222964,2.5437691 C 10.155315,3.3027306 26.509,33.669 29.722,41.689 c -2.124,1.026 -5.4,0.729 -6.593,-0.743 L 1.7222964,2.5437691 M 22.353,41.706 c 1.175,1.955 5.369,2.013 7.245,1.282 -1.163,2.284 -7.438,5.453 -9.531,5.283 C 13.438,40.738 5.8972964,24.039769 2.1662964,12.990769 c -0.881,-2.77 -1.007,-7.2809999 -1.007,-10.2139999 z"
                 style="fill:#ffffff;fill-opacity:1;fill-rule:evenodd;stroke:none"
                 id="path78"
                 inkscape:connector-curvature="0"
                 sodipodi:nodetypes="cccccccccc" /></g><g
               id="g80"
               transform="translate(54.8961,89.4192)"><path
                 d="m 0,0 c 1.338,-3.912 0.014,-7.255 -3.773,-9.021 l 0.198,-1.635 c 13.249,-5.774 14.611,-15.91 15.674,-27.888 l 3.012,-4.489 3.143,8.213 c 0.12,3.966 -5.392,20.654 -9.76,23.5 6.474,-1.547 19.878,1.259 24.714,5.986 l 1.639,4.409 -4.312,1.404 C 16.812,-11.481 2.199,-2.425 1.101,0.479 L 0,0"
                 style="fill:#fff200;fill-opacity:1;fill-rule:evenodd;stroke:none"
                 id="path82"
                 inkscape:connector-curvature="0" /></g><g
               id="g84"
               transform="translate(67.7935,75.8127)"><path
                 d="m 0,0 c 3.214,-3.862 6.138,-14.059 7.236,-19.25 2.226,0.541 13.975,5.17 16.938,7.614 -0.1,4.008 -3.789,14.16 -5.212,16.584 C 13.611,2.263 6.138,0 0,0"
                 style="fill:#fff200;fill-opacity:1;fill-rule:evenodd;stroke:none"
                 id="path86"
                 inkscape:connector-curvature="0" /></g><g
               id="g88"
               transform="translate(50.3853,146.9445)"><path
                 d="M 0,0 8.873,-6.175 C 10.741,-3.547 9.617,-0.321 7.174,1.199 4.222,3.018 0.674,1.636 0,0"
                 style="fill:#fff200;fill-opacity:1;fill-rule:evenodd;stroke:none"
                 id="path90"
                 inkscape:connector-curvature="0" /></g><g
               id="g100"
               transform="translate(37.7964,134.4768)"><path
                 d="M 0,0 4.277,-2.939 C 3.332,-3.547 2.477,-4.716 2.289,-6.077 l -4.288,2.933 C -2.712,-2.266 -1.099,0.333 0,0 M 2.745,4.156 7.025,1.297 C 6.083,0.688 5.226,-0.17 5.031,-1.531 l -4.28,2.853 c -0.711,0.88 0.9,3.167 1.994,2.834 m 5.542,8.731 4.301,-3.004 C 11.645,9.279 10.7,8.412 10.513,7.051 l -4.299,3.005 c -0.719,0.88 0.98,3.163 2.073,2.831 M 5.477,8.48 9.838,5.515 C 8.894,4.905 8.038,4.049 7.851,2.685 L 3.477,5.646 c -0.714,0.88 0.914,3.167 2,2.834"
                 style="fill:#ffffff;fill-opacity:1;fill-rule:evenodd;stroke:none"
                 id="path102"
                 inkscape:connector-curvature="0" /></g><g
               id="g120"
               transform="translate(22.3687,64.6799)"><path
                 d="M 0,0 -5.609,-1.986 C -1.547,-14.222 4.5623072,-24.607 13.331307,-32.798 L 15.572,-32.055 C 12.317,-21.081 7.066,-9.714 0,0"
                 style="fill:#ffffff;fill-opacity:1;fill-rule:nonzero;stroke:none"
                 id="path122"
                 inkscape:connector-curvature="0"
                 sodipodi:nodetypes="ccccc" /></g><g
               id="g128"
               transform="translate(42.5357,71.4553)"><path
                 d="m 0,0 c 7.029,-9.547 9.884,-17.643 13.385,-28.524 l 5.274,3.622 C 15.404,-13.928 12.886,-7.72 5.811,1.994 L 0,0 z"
                 style="fill:#ffffff;fill-opacity:1;fill-rule:nonzero;stroke:none"
                 id="path130"
                 inkscape:connector-curvature="0" /></g><g
               id="g132"
               transform="translate(54.0347,75.4016)"><path
                 d="M 0,0 -3.082,-1.051 C 3.905,-10.613 5.5,-16.697 9.085,-27.607 l 2.588,1.491 C 9.529,-12.842 9.361,-7.281 0,0"
                 style="fill:#ffffff;fill-opacity:1;fill-rule:nonzero;stroke:none"
                 id="path134"
                 inkscape:connector-curvature="0" /></g><g
               id="g136"
               transform="translate(34.3902,68.7278)"><path
                 d="m 0,0 c 7.346,-9.208 10.683,-18.943 13.769,-30.271 l 5.349,3.212 C 15.869,-16.09 12.887,-7.78 5.823,1.934 L 0,0 z"
                 style="fill:#ffffff;fill-opacity:1;fill-rule:nonzero;stroke:none"
                 id="path138"
                 inkscape:connector-curvature="0" /></g><g
               id="g140"
               transform="translate(24.5748,65.3723)"><path
                 d="m 0,0 c 7.343,-9.212 12.022,-20.304 15.111,-31.636 l 6.899,3.839 C 18.76,-16.822 14.372,-7.261 7.301,2.453 L 0,0 z"
                 style="fill:#ffffff;fill-opacity:1;fill-rule:nonzero;stroke:none"
                 id="path142"
                 inkscape:connector-curvature="0" /></g></g></g></g></g></g></svg>