<?xml version="1.0" encoding="UTF-8" standalone="no"?>
<!-- Creator: CorelDRAW -->

<svg
   xmlns:dc="http://purl.org/dc/elements/1.1/"
   xmlns:cc="http://creativecommons.org/ns#"
   xmlns:rdf="http://www.w3.org/1999/02/22-rdf-syntax-ns#"
   xmlns:svg="http://www.w3.org/2000/svg"
   xmlns="http://www.w3.org/2000/svg"
   xmlns:sodipodi="http://sodipodi.sourceforge.net/DTD/sodipodi-0.dtd"
   xmlns:inkscape="http://www.inkscape.org/namespaces/inkscape"
   id="svg3128"
   text-rendering="geometricPrecision"
   xml:space="preserve"
   height="588.93317"
   shape-rendering="geometricPrecision"
   width="510.16962"
   version="1.0"
   clip-rule="evenodd"
   image-rendering="optimizeQuality"
   viewBox="0 0 510.16962 588.93317"
   inkscape:version="0.48.5 r10040"
   sodipodi:docname="svg.svg"
   style="fill-rule:evenodd"><defs
   id="defs59">
 </defs><sodipodi:namedview
   pagecolor="#ffffff"
   bordercolor="#666666"
   borderopacity="1"
   objecttolerance="10"
   gridtolerance="10"
   guidetolerance="10"
   inkscape:pageopacity="0"
   inkscape:pageshadow="2"
   inkscape:window-width="1920"
   inkscape:window-height="1017"
   id="namedview57"
   showgrid="false"
   inkscape:zoom="0.56093177"
   inkscape:cx="202.32106"
   inkscape:cy="418.46113"
   inkscape:window-x="-8"
   inkscape:window-y="-8"
   inkscape:window-maximized="1"
   inkscape:current-layer="g5716"
   fit-margin-top="0"
   fit-margin-left="0"
   fit-margin-right="0"
   fit-margin-bottom="0" /><metadata
   id="metadata3261"><rdf:RDF><cc:Work
       rdf:about=""><dc:format>image/svg+xml</dc:format><dc:type
         rdf:resource="http://purl.org/dc/dcmitype/StillImage" /><dc:title /></cc:Work></rdf:RDF></metadata>
<g
   id="g5716"><path
     sodipodi:nodetypes="ccczsc"
     id="path5306"
     d="m 0,0 510.16963,0 0,333.46969 C 510.17983,458.61224 424.80467,588.93315 255.08481,588.93315 85.36495,588.93315 0,458.61224 0,333.46969 z"
     inkscape:connector-curvature="0"
     style="fill:#0e57a1;fill-opacity:1;stroke:none" /><g
     transform="matrix(1,0,0,1.0422064,557.51603,-1.9456944)"
     id="g5518"><g
       transform="matrix(1.0233093,0.00665491,-0.00643819,1.0868049,-549.94914,-11.237896)"
       id="g5308"
       style="fill:#ffffff;stroke:none"><path
         sodipodi:nodetypes="sczczcczcsczzcccczczcczcccccczszzzzz"
         style="fill:#ffffff;fill-opacity:1;stroke:none"
         inkscape:connector-curvature="0"
         d="m 44.522341,133.27381 c -4.183109,5.21812 -1.66167,12.22627 -1.66167,12.22627 0,0 -4.880235,2.82675 -8.833799,-3.15527 -3.953564,-5.98203 2.49134,-21.28258 12.995273,-25.02187 0,0 -6.511475,-2.40809 -10.247726,-11.13935 -3.736251,-8.731267 -3.319621,-18.116799 -0.829995,-23.852838 3.757277,0.704305 9.049722,0.71264 12.272539,-3.253137 -10.802562,1.902803 -23.575464,-2.023625 -24.95066,-8.707044 -1.375196,-6.683419 9.653655,-13.52843 24.737815,-11.177917 4.494326,-4.323809 8.795201,-3.086388 9.056347,-2.258621 0.156602,0.496388 0.665169,5.000256 -2.060657,8.257696 3.592559,12.644889 9.165229,20.946181 18.839621,26.442849 9.674392,5.496668 55.025461,-11.039759 81.639921,-13.3539 26.61446,-2.314141 29.21902,7.151169 49.95641,6.25628 l 0.0904,14.374455 c -15.97446,0.69925 -15.24825,-7.57973 -25.83494,-7.514904 16.02767,11.418111 10.20209,16.725851 16.44291,21.043741 4.49052,3.10702 11.49449,1.50394 12.96888,4.34669 1.47438,2.84276 -2.07825,7.06798 5.8211,11.41231 1.0081,0.55423 7.27195,-0.1846 8.6245,1.90454 1.35255,2.08913 1.88988,8.62615 -7.37791,7.40345 -9.01426,-1.20731 -13.34314,-12.28064 -17.28924,-13.67673 -4.72713,-1.67227 -8.43157,1.71028 -22.37616,-4.36741 -13.94458,-6.07774 -8.54494,-11.12747 -16.90034,-14.58141 2.14106,2.64674 3.12292,7.02872 3.12292,7.02872 0,0 -19.26645,6.78873 -28.35712,8.75234 0.43484,-1.68782 1.13798,-5.82062 1.02626,-6.04521 -0.52657,-1.05743 -37.249277,16.304 -70.615209,12.09969 3.182003,-3.38916 2.192912,-7.09023 2.192912,-7.09023 -8.188558,8.41455 -18.269313,8.42869 -22.452422,13.64681 z M 40.922038,62.302122 c 2.869298,0.0769 4.132305,1.414316 4.067391,3.205319 -0.06491,1.791002 -1.793208,3.287588 -4.026747,3.254882 -2.233538,-0.03271 -4.007588,-1.616147 -4.067391,-3.205319 -0.0598,-1.589172 1.157449,-3.33178 4.026747,-3.254882 z"
         class="fil1"
         id="path5310" /><path
         sodipodi:nodetypes="cczcc"
         style="fill:#ffffff;fill-opacity:1;stroke:none"
         inkscape:connector-curvature="0"
         d="m 42.292066,117.84106 c -11.662591,7.07407 -14.463339,19.85956 -9.154537,25.8439 -10.392081,0.005 -8.164318,-13.46926 -4.443812,-19.79524 3.720506,-6.32598 10.608466,-9.39001 10.608466,-9.39001 z"
         class="fil1"
         id="path5312" /><path
         sodipodi:nodetypes="sccccs"
         style="fill:#ffffff;fill-opacity:1;stroke:none"
         inkscape:connector-curvature="0"
         d="m 197.34232,125.31982 c -3.93724,-1.87634 -18.17533,3.35867 -33.66536,-11.64193 l -6.67137,2.38634 c 17.19678,16.60973 27.88291,10.6041 32.86803,12.84954 5.55449,3.51837 12.80143,15.9399 21.34669,8.99003 -10.04356,-5.08018 -10.7347,-11.08601 -13.87799,-12.58398 z"
         class="fil1"
         id="path5314" /><path
         sodipodi:nodetypes="cccc"
         style="fill:#000000;stroke:none"
         inkscape:connector-curvature="0"
         d="m 205.43572,84.530456 c 7.70396,-0.332543 18.04606,-0.143432 26.96499,-7.407346 -0.94176,15.147952 -15.72839,21.713526 -26.87455,21.781778 z"
         class="fil2"
         id="path5316" /></g><g
       transform="matrix(1.0233093,0.00665491,-0.00643819,1.0868049,-549.94914,129.94856)"
       id="g5740"
       style="fill:#ffffff;stroke:none"><path
         sodipodi:nodetypes="sczczcczcsczzcccczczcczcccccczszzzzz"
         style="fill:#ffffff;fill-opacity:1;stroke:none"
         inkscape:connector-curvature="0"
         d="m 44.522341,133.27381 c -4.183109,5.21812 -1.66167,12.22627 -1.66167,12.22627 0,0 -4.880235,2.82675 -8.833799,-3.15527 -3.953564,-5.98203 2.49134,-21.28258 12.995273,-25.02187 0,0 -6.511475,-2.40809 -10.247726,-11.13935 -3.736251,-8.731267 -3.319621,-18.116799 -0.829995,-23.852838 3.757277,0.704305 9.049722,0.71264 12.272539,-3.253137 -10.802562,1.902803 -23.575464,-2.023625 -24.95066,-8.707044 -1.375196,-6.683419 9.653655,-13.52843 24.737815,-11.177917 4.494326,-4.323809 8.795201,-3.086388 9.056347,-2.258621 0.156602,0.496388 0.665169,5.000256 -2.060657,8.257696 3.592559,12.644889 9.165229,20.946181 18.839621,26.442849 9.674392,5.496668 55.025461,-11.039759 81.639921,-13.3539 26.61446,-2.314141 29.21902,7.151169 49.95641,6.25628 l 0.0904,14.374455 c -15.97446,0.69925 -15.24825,-7.57973 -25.83494,-7.514904 16.02767,11.418111 10.20209,16.725851 16.44291,21.043741 4.49052,3.10702 11.49449,1.50394 12.96888,4.34669 1.47438,2.84276 -2.07825,7.06798 5.8211,11.41231 1.0081,0.55423 7.27195,-0.1846 8.6245,1.90454 1.35255,2.08913 1.88988,8.62615 -7.37791,7.40345 -9.01426,-1.20731 -13.34314,-12.28064 -17.28924,-13.67673 -4.72713,-1.67227 -8.43157,1.71028 -22.37616,-4.36741 -13.94458,-6.07774 -8.54494,-11.12747 -16.90034,-14.58141 2.14106,2.64674 3.12292,7.02872 3.12292,7.02872 0,0 -19.26645,6.78873 -28.35712,8.75234 0.43484,-1.68782 1.13798,-5.82062 1.02626,-6.04521 -0.52657,-1.05743 -37.249277,16.304 -70.615209,12.09969 3.182003,-3.38916 2.192912,-7.09023 2.192912,-7.09023 -8.188558,8.41455 -18.269313,8.42869 -22.452422,13.64681 z M 40.922038,62.302122 c 2.869298,0.0769 4.132305,1.414316 4.067391,3.205319 -0.06491,1.791002 -1.793208,3.287588 -4.026747,3.254882 -2.233538,-0.03271 -4.007588,-1.616147 -4.067391,-3.205319 -0.0598,-1.589172 1.157449,-3.33178 4.026747,-3.254882 z"
         class="fil1"
         id="path5742" /><path
         sodipodi:nodetypes="cczcc"
         style="fill:#ffffff;fill-opacity:1;stroke:none"
         inkscape:connector-curvature="0"
         d="m 42.292066,117.84106 c -11.662591,7.07407 -14.463339,19.85956 -9.154537,25.8439 -10.392081,0.005 -8.164318,-13.46926 -4.443812,-19.79524 3.720506,-6.32598 10.608466,-9.39001 10.608466,-9.39001 z"
         class="fil1"
         id="path5744" /><path
         sodipodi:nodetypes="sccccs"
         style="fill:#ffffff;fill-opacity:1;stroke:none"
         inkscape:connector-curvature="0"
         d="m 197.34232,125.31982 c -3.93724,-1.87634 -18.17533,3.35867 -33.66536,-11.64193 l -6.67137,2.38634 c 17.19678,16.60973 27.88291,10.6041 32.86803,12.84954 5.55449,3.51837 12.80143,15.9399 21.34669,8.99003 -10.04356,-5.08018 -10.7347,-11.08601 -13.87799,-12.58398 z"
         class="fil1"
         id="path5746" /><path
         sodipodi:nodetypes="cccc"
         style="fill:#000000;stroke:none"
         inkscape:connector-curvature="0"
         d="m 205.43572,84.530456 c 7.70396,-0.332543 18.04606,-0.143432 26.96499,-7.407346 -0.94176,15.147952 -15.72839,21.713526 -26.87455,21.781778 z"
         class="fil2"
         id="path5748" /></g><g
       style="fill:#ffffff;stroke:none"
       id="g5750"
       transform="matrix(1.0233093,0.00665491,-0.00643819,1.0868049,-549.94914,271.13498)"><path
         id="path5752"
         class="fil1"
         d="m 44.522341,133.27381 c -4.183109,5.21812 -1.66167,12.22627 -1.66167,12.22627 0,0 -4.880235,2.82675 -8.833799,-3.15527 -3.953564,-5.98203 2.49134,-21.28258 12.995273,-25.02187 0,0 -6.511475,-2.40809 -10.247726,-11.13935 -3.736251,-8.731267 -3.319621,-18.116799 -0.829995,-23.852838 3.757277,0.704305 9.049722,0.71264 12.272539,-3.253137 -10.802562,1.902803 -23.575464,-2.023625 -24.95066,-8.707044 -1.375196,-6.683419 9.653655,-13.52843 24.737815,-11.177917 4.494326,-4.323809 8.795201,-3.086388 9.056347,-2.258621 0.156602,0.496388 0.665169,5.000256 -2.060657,8.257696 3.592559,12.644889 9.165229,20.946181 18.839621,26.442849 9.674392,5.496668 55.025461,-11.039759 81.639921,-13.3539 26.61446,-2.314141 29.21902,7.151169 49.95641,6.25628 l 0.0904,14.374455 c -15.97446,0.69925 -15.24825,-7.57973 -25.83494,-7.514904 16.02767,11.418111 10.20209,16.725851 16.44291,21.043741 4.49052,3.10702 11.49449,1.50394 12.96888,4.34669 1.47438,2.84276 -2.07825,7.06798 5.8211,11.41231 1.0081,0.55423 7.27195,-0.1846 8.6245,1.90454 1.35255,2.08913 1.88988,8.62615 -7.37791,7.40345 -9.01426,-1.20731 -13.34314,-12.28064 -17.28924,-13.67673 -4.72713,-1.67227 -8.43157,1.71028 -22.37616,-4.36741 -13.94458,-6.07774 -8.54494,-11.12747 -16.90034,-14.58141 2.14106,2.64674 3.12292,7.02872 3.12292,7.02872 0,0 -19.26645,6.78873 -28.35712,8.75234 0.43484,-1.68782 1.13798,-5.82062 1.02626,-6.04521 -0.52657,-1.05743 -37.249277,16.304 -70.615209,12.09969 3.182003,-3.38916 2.192912,-7.09023 2.192912,-7.09023 -8.188558,8.41455 -18.269313,8.42869 -22.452422,13.64681 z M 40.922038,62.302122 c 2.869298,0.0769 4.132305,1.414316 4.067391,3.205319 -0.06491,1.791002 -1.793208,3.287588 -4.026747,3.254882 -2.233538,-0.03271 -4.007588,-1.616147 -4.067391,-3.205319 -0.0598,-1.589172 1.157449,-3.33178 4.026747,-3.254882 z"
         inkscape:connector-curvature="0"
         style="fill:#ffffff;fill-opacity:1;stroke:none"
         sodipodi:nodetypes="sczczcczcsczzcccczczcczcccccczszzzzz" /><path
         id="path5754"
         class="fil1"
         d="m 42.292066,117.84106 c -11.662591,7.07407 -14.463339,19.85956 -9.154537,25.8439 -10.392081,0.005 -8.164318,-13.46926 -4.443812,-19.79524 3.720506,-6.32598 10.608466,-9.39001 10.608466,-9.39001 z"
         inkscape:connector-curvature="0"
         style="fill:#ffffff;fill-opacity:1;stroke:none"
         sodipodi:nodetypes="cczcc" /><path
         id="path5756"
         class="fil1"
         d="m 197.34232,125.31982 c -3.93724,-1.87634 -18.17533,3.35867 -33.66536,-11.64193 l -6.67137,2.38634 c 17.19678,16.60973 27.88291,10.6041 32.86803,12.84954 5.55449,3.51837 12.80143,15.9399 21.34669,8.99003 -10.04356,-5.08018 -10.7347,-11.08601 -13.87799,-12.58398 z"
         inkscape:connector-curvature="0"
         style="fill:#ffffff;fill-opacity:1;stroke:none"
         sodipodi:nodetypes="sccccs" /><path
         id="path5758"
         class="fil2"
         d="m 205.43572,84.530456 c 7.70396,-0.332543 18.04606,-0.143432 26.96499,-7.407346 -0.94176,15.147952 -15.72839,21.713526 -26.87455,21.781778 z"
         inkscape:connector-curvature="0"
         style="fill:#000000;stroke:none"
         sodipodi:nodetypes="cccc" /></g><g
       style="fill:#ffffff;stroke:none"
       id="g5797"
       transform="matrix(1.0233093,0.00665491,-0.00643819,1.0868049,-315.4788,-11.237896)"><path
         id="path5799"
         class="fil1"
         d="m 44.522341,133.27381 c -4.183109,5.21812 -1.66167,12.22627 -1.66167,12.22627 0,0 -4.880235,2.82675 -8.833799,-3.15527 -3.953564,-5.98203 2.49134,-21.28258 12.995273,-25.02187 0,0 -6.511475,-2.40809 -10.247726,-11.13935 -3.736251,-8.731267 -3.319621,-18.116799 -0.829995,-23.852838 3.757277,0.704305 9.049722,0.71264 12.272539,-3.253137 -10.802562,1.902803 -23.575464,-2.023625 -24.95066,-8.707044 -1.375196,-6.683419 9.653655,-13.52843 24.737815,-11.177917 4.494326,-4.323809 8.795201,-3.086388 9.056347,-2.258621 0.156602,0.496388 0.665169,5.000256 -2.060657,8.257696 3.592559,12.644889 9.165229,20.946181 18.839621,26.442849 9.674392,5.496668 55.025461,-11.039759 81.639921,-13.3539 26.61446,-2.314141 29.21902,7.151169 49.95641,6.25628 l 0.0904,14.374455 c -15.97446,0.69925 -15.24825,-7.57973 -25.83494,-7.514904 16.02767,11.418111 10.20209,16.725851 16.44291,21.043741 4.49052,3.10702 11.49449,1.50394 12.96888,4.34669 1.47438,2.84276 -2.07825,7.06798 5.8211,11.41231 1.0081,0.55423 7.27195,-0.1846 8.6245,1.90454 1.35255,2.08913 1.88988,8.62615 -7.37791,7.40345 -9.01426,-1.20731 -13.34314,-12.28064 -17.28924,-13.67673 -4.72713,-1.67227 -8.43157,1.71028 -22.37616,-4.36741 -13.94458,-6.07774 -8.54494,-11.12747 -16.90034,-14.58141 2.14106,2.64674 3.12292,7.02872 3.12292,7.02872 0,0 -19.26645,6.78873 -28.35712,8.75234 0.43484,-1.68782 1.13798,-5.82062 1.02626,-6.04521 -0.52657,-1.05743 -37.249277,16.304 -70.615209,12.09969 3.182003,-3.38916 2.192912,-7.09023 2.192912,-7.09023 -8.188558,8.41455 -18.269313,8.42869 -22.452422,13.64681 z M 40.922038,62.302122 c 2.869298,0.0769 4.132305,1.414316 4.067391,3.205319 -0.06491,1.791002 -1.793208,3.287588 -4.026747,3.254882 -2.233538,-0.03271 -4.007588,-1.616147 -4.067391,-3.205319 -0.0598,-1.589172 1.157449,-3.33178 4.026747,-3.254882 z"
         inkscape:connector-curvature="0"
         style="fill:#ffffff;fill-opacity:1;stroke:none"
         sodipodi:nodetypes="sczczcczcsczzcccczczcczcccccczszzzzz" /><path
         id="path5801"
         class="fil1"
         d="m 42.292066,117.84106 c -11.662591,7.07407 -14.463339,19.85956 -9.154537,25.8439 -10.392081,0.005 -8.164318,-13.46926 -4.443812,-19.79524 3.720506,-6.32598 10.608466,-9.39001 10.608466,-9.39001 z"
         inkscape:connector-curvature="0"
         style="fill:#ffffff;fill-opacity:1;stroke:none"
         sodipodi:nodetypes="cczcc" /><path
         id="path5803"
         class="fil1"
         d="m 197.34232,125.31982 c -3.93724,-1.87634 -18.17533,3.35867 -33.66536,-11.64193 l -6.67137,2.38634 c 17.19678,16.60973 27.88291,10.6041 32.86803,12.84954 5.55449,3.51837 12.80143,15.9399 21.34669,8.99003 -10.04356,-5.08018 -10.7347,-11.08601 -13.87799,-12.58398 z"
         inkscape:connector-curvature="0"
         style="fill:#ffffff;fill-opacity:1;stroke:none"
         sodipodi:nodetypes="sccccs" /><path
         id="path5805"
         class="fil2"
         d="m 205.43572,84.530456 c 7.70396,-0.332543 18.04606,-0.143432 26.96499,-7.407346 -0.94176,15.147952 -15.72839,21.713526 -26.87455,21.781778 z"
         inkscape:connector-curvature="0"
         style="fill:#000000;stroke:none"
         sodipodi:nodetypes="cccc" /></g><g
       style="fill:#ffffff;stroke:none"
       id="g5807"
       transform="matrix(1.0233093,0.00665491,-0.00643819,1.0868049,-315.4788,129.94856)"><path
         id="path5809"
         class="fil1"
         d="m 44.522341,133.27381 c -4.183109,5.21812 -1.66167,12.22627 -1.66167,12.22627 0,0 -4.880235,2.82675 -8.833799,-3.15527 -3.953564,-5.98203 2.49134,-21.28258 12.995273,-25.02187 0,0 -6.511475,-2.40809 -10.247726,-11.13935 -3.736251,-8.731267 -3.319621,-18.116799 -0.829995,-23.852838 3.757277,0.704305 9.049722,0.71264 12.272539,-3.253137 -10.802562,1.902803 -23.575464,-2.023625 -24.95066,-8.707044 -1.375196,-6.683419 9.653655,-13.52843 24.737815,-11.177917 4.494326,-4.323809 8.795201,-3.086388 9.056347,-2.258621 0.156602,0.496388 0.665169,5.000256 -2.060657,8.257696 3.592559,12.644889 9.165229,20.946181 18.839621,26.442849 9.674392,5.496668 55.025461,-11.039759 81.639921,-13.3539 26.61446,-2.314141 29.21902,7.151169 49.95641,6.25628 l 0.0904,14.374455 c -15.97446,0.69925 -15.24825,-7.57973 -25.83494,-7.514904 16.02767,11.418111 10.20209,16.725851 16.44291,21.043741 4.49052,3.10702 11.49449,1.50394 12.96888,4.34669 1.47438,2.84276 -2.07825,7.06798 5.8211,11.41231 1.0081,0.55423 7.27195,-0.1846 8.6245,1.90454 1.35255,2.08913 1.88988,8.62615 -7.37791,7.40345 -9.01426,-1.20731 -13.34314,-12.28064 -17.28924,-13.67673 -4.72713,-1.67227 -8.43157,1.71028 -22.37616,-4.36741 -13.94458,-6.07774 -8.54494,-11.12747 -16.90034,-14.58141 2.14106,2.64674 3.12292,7.02872 3.12292,7.02872 0,0 -19.26645,6.78873 -28.35712,8.75234 0.43484,-1.68782 1.13798,-5.82062 1.02626,-6.04521 -0.52657,-1.05743 -37.249277,16.304 -70.615209,12.09969 3.182003,-3.38916 2.192912,-7.09023 2.192912,-7.09023 -8.188558,8.41455 -18.269313,8.42869 -22.452422,13.64681 z M 40.922038,62.302122 c 2.869298,0.0769 4.132305,1.414316 4.067391,3.205319 -0.06491,1.791002 -1.793208,3.287588 -4.026747,3.254882 -2.233538,-0.03271 -4.007588,-1.616147 -4.067391,-3.205319 -0.0598,-1.589172 1.157449,-3.33178 4.026747,-3.254882 z"
         inkscape:connector-curvature="0"
         style="fill:#ffffff;fill-opacity:1;stroke:none"
         sodipodi:nodetypes="sczczcczcsczzcccczczcczcccccczszzzzz" /><path
         id="path5811"
         class="fil1"
         d="m 42.292066,117.84106 c -11.662591,7.07407 -14.463339,19.85956 -9.154537,25.8439 -10.392081,0.005 -8.164318,-13.46926 -4.443812,-19.79524 3.720506,-6.32598 10.608466,-9.39001 10.608466,-9.39001 z"
         inkscape:connector-curvature="0"
         style="fill:#ffffff;fill-opacity:1;stroke:none"
         sodipodi:nodetypes="cczcc" /><path
         id="path5813"
         class="fil1"
         d="m 197.34232,125.31982 c -3.93724,-1.87634 -18.17533,3.35867 -33.66536,-11.64193 l -6.67137,2.38634 c 17.19678,16.60973 27.88291,10.6041 32.86803,12.84954 5.55449,3.51837 12.80143,15.9399 21.34669,8.99003 -10.04356,-5.08018 -10.7347,-11.08601 -13.87799,-12.58398 z"
         inkscape:connector-curvature="0"
         style="fill:#ffffff;fill-opacity:1;stroke:none"
         sodipodi:nodetypes="sccccs" /><path
         id="path5815"
         class="fil2"
         d="m 205.43572,84.530456 c 7.70396,-0.332543 18.04606,-0.143432 26.96499,-7.407346 -0.94176,15.147952 -15.72839,21.713526 -26.87455,21.781778 z"
         inkscape:connector-curvature="0"
         style="fill:#000000;stroke:none"
         sodipodi:nodetypes="cccc" /></g><g
       transform="matrix(1.0233093,0.00665491,-0.00643819,1.0868049,-315.4788,271.13498)"
       id="g5817"
       style="fill:#ffffff;stroke:none"><path
         sodipodi:nodetypes="sczczcczcsczzcccczczcczcccccczszzzzz"
         style="fill:#ffffff;fill-opacity:1;stroke:none"
         inkscape:connector-curvature="0"
         d="m 44.522341,133.27381 c -4.183109,5.21812 -1.66167,12.22627 -1.66167,12.22627 0,0 -4.880235,2.82675 -8.833799,-3.15527 -3.953564,-5.98203 2.49134,-21.28258 12.995273,-25.02187 0,0 -6.511475,-2.40809 -10.247726,-11.13935 -3.736251,-8.731267 -3.319621,-18.116799 -0.829995,-23.852838 3.757277,0.704305 9.049722,0.71264 12.272539,-3.253137 -10.802562,1.902803 -23.575464,-2.023625 -24.95066,-8.707044 -1.375196,-6.683419 9.653655,-13.52843 24.737815,-11.177917 4.494326,-4.323809 8.795201,-3.086388 9.056347,-2.258621 0.156602,0.496388 0.665169,5.000256 -2.060657,8.257696 3.592559,12.644889 9.165229,20.946181 18.839621,26.442849 9.674392,5.496668 55.025461,-11.039759 81.639921,-13.3539 26.61446,-2.314141 29.21902,7.151169 49.95641,6.25628 l 0.0904,14.374455 c -15.97446,0.69925 -15.24825,-7.57973 -25.83494,-7.514904 16.02767,11.418111 10.20209,16.725851 16.44291,21.043741 4.49052,3.10702 11.49449,1.50394 12.96888,4.34669 1.47438,2.84276 -2.07825,7.06798 5.8211,11.41231 1.0081,0.55423 7.27195,-0.1846 8.6245,1.90454 1.35255,2.08913 1.88988,8.62615 -7.37791,7.40345 -9.01426,-1.20731 -13.34314,-12.28064 -17.28924,-13.67673 -4.72713,-1.67227 -8.43157,1.71028 -22.37616,-4.36741 -13.94458,-6.07774 -8.54494,-11.12747 -16.90034,-14.58141 2.14106,2.64674 3.12292,7.02872 3.12292,7.02872 0,0 -19.26645,6.78873 -28.35712,8.75234 0.43484,-1.68782 1.13798,-5.82062 1.02626,-6.04521 -0.52657,-1.05743 -37.249277,16.304 -70.615209,12.09969 3.182003,-3.38916 2.192912,-7.09023 2.192912,-7.09023 -8.188558,8.41455 -18.269313,8.42869 -22.452422,13.64681 z M 40.922038,62.302122 c 2.869298,0.0769 4.132305,1.414316 4.067391,3.205319 -0.06491,1.791002 -1.793208,3.287588 -4.026747,3.254882 -2.233538,-0.03271 -4.007588,-1.616147 -4.067391,-3.205319 -0.0598,-1.589172 1.157449,-3.33178 4.026747,-3.254882 z"
         class="fil1"
         id="path5819" /><path
         sodipodi:nodetypes="cczcc"
         style="fill:#ffffff;fill-opacity:1;stroke:none"
         inkscape:connector-curvature="0"
         d="m 42.292066,117.84106 c -11.662591,7.07407 -14.463339,19.85956 -9.154537,25.8439 -10.392081,0.005 -8.164318,-13.46926 -4.443812,-19.79524 3.720506,-6.32598 10.608466,-9.39001 10.608466,-9.39001 z"
         class="fil1"
         id="path5821" /><path
         sodipodi:nodetypes="sccccs"
         style="fill:#ffffff;fill-opacity:1;stroke:none"
         inkscape:connector-curvature="0"
         d="m 197.34232,125.31982 c -3.93724,-1.87634 -18.17533,3.35867 -33.66536,-11.64193 l -6.67137,2.38634 c 17.19678,16.60973 27.88291,10.6041 32.86803,12.84954 5.55449,3.51837 12.80143,15.9399 21.34669,8.99003 -10.04356,-5.08018 -10.7347,-11.08601 -13.87799,-12.58398 z"
         class="fil1"
         id="path5823" /><path
         sodipodi:nodetypes="cccc"
         style="fill:#000000;stroke:none"
         inkscape:connector-curvature="0"
         d="m 205.43572,84.530456 c 7.70396,-0.332543 18.04606,-0.143432 26.96499,-7.407346 -0.94176,15.147952 -15.72839,21.713526 -26.87455,21.781778 z"
         class="fil2"
         id="path5825" /></g></g></g></svg>