<svg xmlns="http://www.w3.org/2000/svg" width="600" height="637.483"><path d="M295.022 1.049c-24.56.404-45.806 8.043-82.741 22.602-52.576 18.335-78.717 13.471-128.043-6.672L1 101.412l22.502 24.543c44.568 48.655 47.069 111.198 8.165 202.269C1.657 398.474-.37 464.369 26.24 504.607c25.965 39.263 75.728 64.177 143.774 71.936 68.088 9.745 80.543 18.553 129.985 59.94 49.44-41.387 61.846-50.195 129.936-59.94 68.046-7.76 117.809-32.673 143.774-71.936 26.61-40.238 24.632-106.134-5.377-176.383-38.904-91.071-36.403-153.614 8.165-202.27L599 101.413l-83.287-84.433c-49.326 20.142-75.418 25.007-127.994 6.672C348.323 8.121 326.756.448 300 1.05c-1.673-.039-3.34-.027-4.978 0z" fill="#c00"/><path d="M295.022 1.033c-24.56.404-45.806 8.043-82.741 22.602-52.576 18.335-78.717 13.471-128.043-6.672L1 101.396l22.502 24.543C61.77 167.717 69 219.795 45.655 291.32h508.688C531 219.795 538.23 167.72 576.496 125.94l22.502-24.543-83.287-84.433c-49.326 20.143-75.417 25.007-127.993 6.672C348.323 8.105 326.756.432 300 1.033c-1.673-.038-3.34-.029-4.978 0z" fill="#003380"/><path d="M300 113.022l40.156 123.574 129.934.005-105.115 76.377 40.147 123.576L300 360.184l-105.122 76.37 40.148-123.576L129.91 236.6l129.934-.005z" fill="#fff" fill-rule="evenodd"/></svg>