<?xml version="1.0" encoding="UTF-8" standalone="no"?>
<!-- Created with Inkscape (http://www.inkscape.org/) -->

<svg
   xmlns:dc="http://purl.org/dc/elements/1.1/"
   xmlns:cc="http://creativecommons.org/ns#"
   xmlns:rdf="http://www.w3.org/1999/02/22-rdf-syntax-ns#"
   xmlns:svg="http://www.w3.org/2000/svg"
   xmlns="http://www.w3.org/2000/svg"
   xmlns:xlink="http://www.w3.org/1999/xlink"
   xmlns:sodipodi="http://sodipodi.sourceforge.net/DTD/sodipodi-0.dtd"
   xmlns:inkscape="http://www.inkscape.org/namespaces/inkscape"
   id="svg2"
   height="703.78424"
   width="500"
   version="1.0"
   inkscape:version="0.48.5 r10040"
   sodipodi:docname="svg.svg">
  <sodipodi:namedview
     pagecolor="#ffffff"
     bordercolor="#666666"
     borderopacity="1"
     objecttolerance="10"
     gridtolerance="10"
     guidetolerance="10"
     inkscape:pageopacity="0"
     inkscape:pageshadow="2"
     inkscape:window-width="1920"
     inkscape:window-height="1017"
     id="namedview94"
     showgrid="false"
     showguides="true"
     inkscape:guide-bbox="true"
     inkscape:zoom="0.70710678"
     inkscape:cx="214.93537"
     inkscape:cy="439.77664"
     inkscape:window-x="-8"
     inkscape:window-y="-8"
     inkscape:window-maximized="1"
     inkscape:current-layer="g4275"
     fit-margin-top="0"
     fit-margin-left="0"
     fit-margin-right="0"
     fit-margin-bottom="0">
    <inkscape:grid
       type="xygrid"
       id="grid4316"
       empspacing="5"
       visible="true"
       enabled="true"
       snapvisiblegridlinesonly="true"
       originx="0px"
       originy="0px" />
  </sodipodi:namedview>
  <metadata
     id="metadata4092">
    <rdf:RDF>
      <cc:Work
         rdf:about="">
        <dc:format>image/svg+xml</dc:format>
        <dc:type
           rdf:resource="http://purl.org/dc/dcmitype/StillImage" />
        <dc:title />
      </cc:Work>
    </rdf:RDF>
  </metadata>
  <defs
     id="defs4">
    <style
       id="style6"
       type="text/css" />
  </defs>
  <g
     id="g4275"
     transform="translate(0,-1.2157435)">
    <g
       id="g4187">
      <g
         id="g4643">
        <g
           id="g4624">
          <path
             sodipodi:nodetypes="csccsscccccccccccccccccccccccccccccccccccccccccccccccccccccccccssccscc"
             inkscape:connector-curvature="0"
             id="path4312"
             d="m 479.625,206 c 10,0 10,-15 0,-15 l -5,0 0,-36 5,0 c 10,0 10,-15 0,-15 l -5,0 0.1875,-41.625 c -3.387,-3.7673 -5.6104,-8.49135 -5.0625,-15.40625 -0.424,-6.911 2.36525,-13.839 9.78125,-20.75 -0.966,-31.046 -1.4075,-45.95375 18.0625,-50.34375 C 494.36415,5.8235 487.6846,1.34375 480.4375,1.21875 469.2445,1.02505 463.94125,10.2333 457.90625,16.625 l -11.25,-1.78125 C 447.77725,37.42675 455.592,52.832 463.25,68.75 445.917,56.459 428.0575,49.4765 409.9375,45.0625 l 0.59375,13.03125 c -9.7924,7.4498 -17.354,15.4505 -24,23.6875 7.4803,10.512 15.53675,19.891 24.59375,27.25 L 410.53125,118.5 c 18.231,1.18 34.1215,-11.65675 50.9375,-18.96875 -10.967,13.782 -20.5415,27.0525 -45.3125,27.5625 C 389.90725,127.64375 371.87,103.5595 370.25,97.1875 L 353.0625,96.875 c -8.1456,20.487 -28.98975,32.78875 -47.09375,32.59375 -23.761,-0.23762 -42.043,-17.693 -41.75,-28.75 17.173,11.146 33.33925,17.82475 51.53125,18.96875 l -0.59375,-9.46875 c 9.8161,-7.2895 15.96425,-16.06625 21.90625,-24.90625 -5.9466,-9.2808 -12.47175,-18.56375 -23.09375,-27.84375 l 0.59375,-10.0625 c -18.59,4.675 -34.5375,11.35 -49.1875,20.75 C 275.125,54.06425 281.18,37.186 287,18.375 l -9.1875,3.5625 C 269.7966,13.3397 260.383,6.66075 250,1.21875 239.617,6.66075 230.2034,13.3397 222.1875,21.9375 L 213,18.375 c 5.82,18.811 11.875,35.68925 21.625,49.78125 -14.65,-9.4 -30.5975,-16.075 -49.1875,-20.75 l 0.59375,10.0625 c -10.622,9.28 -17.14715,18.56295 -23.09375,27.84375 5.942,8.84 12.09015,17.61675 21.90625,24.90625 L 184.25,119.6875 c 18.192,-1.144 34.35825,-7.82275 51.53125,-18.96875 0.293,11.057 -17.989,28.51238 -41.75,28.75 -18.104,0.195 -38.94815,-12.10675 -47.09375,-32.59375 L 129.75,97.1875 c -1.62,6.372 -19.65725,30.45625 -45.90625,29.90625 -24.771,-0.51 -34.3455,-13.7805 -45.3125,-27.5625 16.816,7.312 32.7065,20.14875 50.9375,18.96875 L 88.875,109.03125 c 9.057,-7.359 17.11345,-16.738 24.59375,-27.25 -6.646,-8.237 -14.2076,-16.2377 -24,-23.6875 L 90.0625,45.0625 C 71.9425,49.4765 54.083,56.459 36.75,68.75 44.408,52.832 52.22275,37.42675 53.34375,14.84375 l -11.25,1.78125 C 36.05875,10.2333 30.7555,1.02505 19.5625,1.21875 12.3154,1.34375 5.63585,5.8235 2.40625,11.875 c 19.47,4.39 19.0285,19.29775 18.0625,50.34375 7.416,6.911 10.20525,13.839 9.78125,20.75 0.5479,6.9149 -1.6755,11.63895 -5.0625,15.40625 L 25.375,140 l -5,0 c -10,0 -10,15 0,15 l 5,0 0,36 -5,0 c -10,0 -10,15 0,15 z"
             style="color:#000000;fill:#ffcb05;fill-opacity:1;fill-rule:nonzero;stroke:none" />
          <g
             id="g4300">
            <path
               style="fill:#e5e5e5"
               inkscape:connector-curvature="0"
               d="m 22.148,63.319 c 9.5593,0 17.326,8.0657 17.326,17.625 0,9.5593 -7.7669,17.326 -17.326,17.326 -9.858,0 -17.625,-7.7669 -17.625,-17.326 0,-9.5593 7.7669,-17.625 17.625,-17.625 z"
               id="path4242" />
            <path
               style="fill:#ffffff"
               inkscape:connector-curvature="0"
               d="m 14.381,71.086 c 4.1822,-2.9873 9.5593,-2.6886 11.65,0.59746 2.3898,2.9873 0.59746,8.0657 -3.5847,11.053 -4.1822,2.6886 -9.5593,2.3898 -11.65,-0.59746 -2.0911,-3.286 -0.59746,-8.3644 3.5847,-11.053 z"
               id="path4244" />
          </g>
          <g
             id="g4304">
            <path
               style="fill:#e5e5e5"
               inkscape:connector-curvature="0"
               d="m 475.33,65.097 c 9.5593,0 17.326,8.0657 17.326,17.625 0,9.5593 -7.767,17.326 -17.326,17.326 -9.858,0 -17.625,-7.7669 -17.625,-17.326 0,-9.5593 7.767,-17.625 17.625,-17.625 z"
               id="path4236" />
            <path
               style="fill:#ffffff"
               inkscape:connector-curvature="0"
               d="m 467.56,72.864 c 4.1822,-2.9873 9.5593,-2.6886 11.65,0.59746 2.3898,2.9873 0.59747,8.0657 -3.5847,11.053 -4.1822,2.6886 -9.5593,2.3898 -11.65,-0.59746 -2.0911,-3.286 -0.59745,-8.3644 3.5848,-11.053 z"
               id="path4238" />
          </g>
          <g
             id="g4292">
            <path
               style="fill:#e5e5e5"
               inkscape:connector-curvature="0"
               d="m 136.771,63.912 c -9.5593,0 -17.326,8.0657 -17.326,17.625 0,9.5593 7.767,17.326 17.326,17.326 9.858,0 17.625,-7.7669 17.625,-17.326 0,-9.5593 -7.7669,-17.625 -17.625,-17.625 z"
               id="path4144" />
            <path
               style="fill:#ffffff"
               inkscape:connector-curvature="0"
               d="m 129.31,71.679 c 4.1822,-2.9873 9.5593,-2.6886 11.65,0.59746 2.3898,2.9873 0.59745,8.0657 -3.5847,11.053 -4.1822,2.6886 -9.5593,2.3898 -11.65,-0.59746 -2.0911,-3.286 -0.59745,-8.3644 3.5848,-11.053 z"
               id="path4146" />
          </g>
          <g
             id="g4296">
            <path
               style="fill:#e5e5e5"
               inkscape:connector-curvature="0"
               d="m 249.63,65.097 c 9.5593,0 17.326,8.0657 17.326,17.625 0,9.5593 -7.767,17.326 -17.326,17.326 -9.858,0 -17.625,-7.7669 -17.625,-17.326 0,-9.5593 7.767,-17.625 17.625,-17.625 z"
               id="path4224" />
            <path
               style="fill:#ffffff"
               inkscape:connector-curvature="0"
               d="m 241.86,72.864 c 4.1822,-2.9873 9.5593,-2.6886 11.65,0.59746 2.3898,2.9873 0.59745,8.0657 -3.5847,11.053 -4.1822,2.6886 -9.5593,2.3898 -11.65,-0.59746 -2.0911,-3.286 -0.59746,-8.3644 3.5848,-11.053 z"
               id="path4226" />
          </g>
          <g
             id="g4308">
            <path
               style="fill:#e5e5e5"
               inkscape:connector-curvature="0"
               d="m 361.59,65.097 c 9.5593,0 17.326,8.0657 17.326,17.625 0,9.5593 -7.767,17.326 -17.326,17.326 -9.858,0 -17.625,-7.7669 -17.625,-17.326 0,-9.5593 7.7669,-17.625 17.625,-17.625 z"
               id="path4230" />
            <path
               style="fill:#ffffff"
               inkscape:connector-curvature="0"
               d="m 353.82,72.864 c 4.1822,-2.9873 9.5593,-2.6886 11.65,0.59746 2.3898,2.9873 0.59746,8.0657 -3.5847,11.053 -4.1822,2.6886 -9.5593,2.3898 -11.65,-0.59746 -2.0911,-3.286 -0.59746,-8.3644 3.5848,-11.053 z"
               id="path4232" />
          </g>
          <path
             id="path4314"
             style="fill:none;stroke:#e7b700;stroke-width:2;stroke-linecap:butt;stroke-linejoin:miter;stroke-miterlimit:4;stroke-opacity:1;stroke-dasharray:none"
             d="m 103.088,83.257 -53.464001,0 M 250,59.265 l 0,-42.06 m -23.984,66.052 -53.464,0 m 224.36,0 53.464,0 m -176.392,0 53.464,0"
             inkscape:connector-curvature="0" />
        </g>
        <g
           id="g4592">
          <g
             id="g4491"
             transform="translate(-1.4289935,0)">
            <path
               style="fill:#2876b8;fill-opacity:1"
               inkscape:connector-curvature="0"
               d="m 363.72,155.94 c 15.257,0 27.628,7.3588 27.628,16.353 0,8.9941 -12.371,16.353 -27.628,16.353 -15.154,0 -27.525,-7.3588 -27.525,-16.353 0,-8.9941 12.371,-16.353 27.525,-16.353 z"
               id="path159" />
            <path
               style="fill:#ffffff"
               inkscape:connector-curvature="0"
               d="m 384.23,162.83 c 3.402,2.4529 5.4638,5.4899 5.4638,8.7605 0,7.9428 -11.855,14.484 -26.494,14.484 -14.536,0 -26.391,-6.5412 -26.391,-14.484 v -0.70084 c 0.72163,7.5924 11.855,13.55 25.566,13.55 14.02,0 25.566,-6.4244 25.566,-14.25 0,-2.6866 -1.3402,-5.2563 -3.7112,-7.3588 z"
               id="path161" />
            <path
               style="fill:#ffffff"
               inkscape:connector-curvature="0"
               d="m 353.41,161.66 c 4.0205,-1.1681 7.5256,-0.58404 7.8348,1.4017 0.30927,1.9857 -2.6803,4.6723 -6.7009,5.8403 -4.0205,1.1681 -7.5256,0.58403 -7.8348,-1.4017 -0.30928,-1.9857 2.6803,-4.6722 6.7008,-5.8403 z"
               id="path163" />
          </g>
          <g
             id="g4215"
             transform="translate(4.7872178,0)">
            <path
               style="fill:#2876b8;fill-opacity:1"
               inkscape:connector-curvature="0"
               d="m 133,155.94 c 15.154,0 27.525,7.3588 27.525,16.353 0,8.9941 -12.371,16.353 -27.525,16.353 -15.257,0 -27.628,-7.3588 -27.628,-16.353 0,-8.9941 12.371,-16.353 27.628,-16.353 z"
               id="path167" />
            <path
               style="fill:#ffffff"
               inkscape:connector-curvature="0"
               d="m 153.42,162.83 c 3.402,2.4529 5.4638,5.4899 5.4638,8.7605 0,7.9428 -11.855,14.484 -26.391,14.484 -14.639,0 -26.494,-6.5412 -26.494,-14.484 0,-0.23361 0,-0.46722 0.10309,-0.70084 0.61854,7.5924 11.855,13.55 25.463,13.55 14.02,0 25.566,-6.4244 25.566,-14.25 0,-2.6866 -1.3402,-5.2563 -3.7112,-7.3588 z"
               id="path169" />
            <path
               style="fill:#ffffff"
               inkscape:connector-curvature="0"
               d="m 122.59,161.66 c 4.0205,-1.1681 7.5256,-0.58404 7.8348,1.4017 0.30926,1.9857 -2.6804,4.6723 -6.7008,5.8403 -3.9174,1.1681 -7.5256,0.58403 -7.8348,-1.4017 -0.30927,-1.9857 2.6803,-4.6722 6.7008,-5.8403 z"
               id="path171" />
          </g>
          <g
             id="g4220"
             transform="translate(0,-3.6239624e-5)">
            <path
               id="path4152"
               d="m 16.4375,141.78125 0,2.625 466.90625,0 0,-2.625 -466.90625,0 z"
               style="fill:#ffffff;fill-opacity:1"
               inkscape:connector-curvature="0" />
            <path
               id="path131"
               d="m 16.4375,150.5 0,2.625 466.90625,0 0,-2.625 -466.90625,0 z"
               style="fill:#e7b700;fill-opacity:1"
               inkscape:connector-curvature="0" />
          </g>
          <use
             x="0"
             y="0"
             xlink:href="#g4220"
             id="use4287"
             transform="translate(0.34726,50.738622)"
             width="500"
             height="705" />
          <g
             transform="matrix(1,0,0,0.88780138,-224.66141,19.859117)"
             id="use4359">
            <path
               inkscape:connector-curvature="0"
               id="path4379"
               transform="translate(0,-0.268)"
               d="m 250.09375,152.59375 0,19.96875 47.3125,0 z m 0,19.96875 -10.47872,0 10.47872,19.96875 z"
               style="fill:#ed241a;fill-opacity:1"
               sodipodi:nodetypes="cccccccc" />
            <path
               inkscape:connector-curvature="0"
               id="path4381"
               transform="translate(0,-0.268)"
               d="m 250.09375,152.59375 -10.47872,19.96875 10.47872,0 z m 0,19.96875 0,19.96875 47.3125,-19.96875 z"
               style="fill:#ff8a8a;fill-opacity:1"
               sodipodi:nodetypes="cccccccc" />
            <path
               style="fill:#ffffff"
               d="m 25.4375,155.09375 -6.03125,10.1875 6.03125,7.53125 0,-17.71875 z m 0,17.71875 0,17.75 10.90625,-4.09375 L 25.4375,172.8125 z"
               transform="matrix(1,0,0,1.1263781,224.66141,-22.368874)"
               id="path4383"
               inkscape:connector-curvature="0" />
          </g>
          <g
             transform="matrix(1,0,0,0.88780138,-0.05464172,19.859117)"
             id="use4361">
            <path
               inkscape:connector-curvature="0"
               id="path4387"
               transform="translate(0,-0.268)"
               d="m 250.09375,152.59375 0,19.96875 47.3125,0 -47.3125,-19.96875 z m 0,19.96875 -47.3125,0 47.3125,19.96875 0,-19.96875 z"
               style="fill:#ed241a;fill-opacity:1" />
            <path
               inkscape:connector-curvature="0"
               id="path4389"
               transform="translate(0,-0.268)"
               d="m 250.09375,152.59375 -47.3125,19.96875 47.3125,0 0,-19.96875 z m 0,19.96875 0,19.96875 47.3125,-19.96875 -47.3125,0 z"
               style="fill:#ff8a8a;fill-opacity:1" />
            <path
               inkscape:connector-curvature="0"
               id="path4391"
               transform="translate(0,-0.268)"
               d="m 250.09375,152.59375 -10.90625,4.59375 10.90625,15.375 0,-19.96875 z m 0,19.96875 0,19.96875 L 261,187.9375 250.09375,172.5625 z"
               style="fill:#ffffff" />
          </g>
          <g
             id="g4396"
             transform="matrix(-1,0,0,-0.88780138,724.73964,325.79714)">
            <path
               sodipodi:nodetypes="cccccccc"
               style="fill:#ed241a;fill-opacity:1"
               d="m 250.09375,152.59375 0,19.96875 47.3125,0 z m 0,19.96875 -10.47872,0 10.47872,19.96875 z"
               transform="translate(0,-0.268)"
               id="path4398"
               inkscape:connector-curvature="0" />
            <path
               sodipodi:nodetypes="cccccccc"
               style="fill:#ff8a8a;fill-opacity:1"
               d="m 250.09375,152.59375 -10.47872,19.96875 10.47872,0 z m 0,19.96875 0,19.96875 47.3125,-19.96875 z"
               transform="translate(0,-0.268)"
               id="path4400"
               inkscape:connector-curvature="0" />
            <path
               id="path4402"
               transform="matrix(1,0,0,1.1263781,224.66141,-22.368874)"
               d="m 25.4375,155.09375 -6.03125,10.1875 6.03125,7.53125 0,-17.71875 z m 0,17.71875 0,17.75 10.90625,-4.09375 L 25.4375,172.8125 z"
               style="fill:#ffffff"
               inkscape:connector-curvature="0" />
          </g>
          <g
             id="g4481"
             transform="translate(7.5035442,0)">
            <use
               height="705"
               width="500"
               transform="matrix(0.37157149,0,0,0.37157149,-8.7513543,131.75181)"
               id="use4421"
               xlink:href="#g4296"
               y="0"
               x="0" />
            <use
               x="0"
               y="0"
               xlink:href="#g4296"
               id="use4479"
               transform="matrix(0.37157149,0,0,0.37157149,-8.7513543,151.47102)"
               width="500"
               height="705" />
          </g>
          <use
             x="0"
             y="0"
             xlink:href="#g4481"
             id="use4485"
             transform="translate(92.567383,0)"
             width="500"
             height="705" />
          <use
             x="0"
             y="0"
             xlink:href="#use4485"
             id="use4487"
             transform="translate(132.0394,0)"
             width="500"
             height="705" />
          <use
             x="0"
             y="0"
             xlink:href="#use4487"
             id="use4489"
             transform="translate(92.567383,0)"
             width="500"
             height="705" />
        </g>
      </g>
      <path
         id="path2831"
         d="m 0,205 0,250 500,0 0,-250 z"
         inkscape:connector-curvature="0"
         style="fill:#2876b8;fill-rule:evenodd"
         sodipodi:nodetypes="ccccc" />
      <path
         id="path13017"
         d="m 0,455 0,40 C 0,595 125,705 250,705 375,705 500,595 500,495 V 455 H 0 z"
         inkscape:connector-curvature="0"
         style="fill:#ffcb05;fill-opacity:1;fill-rule:evenodd" />
      <path
         id="path5032"
         style="color:#000000;fill:#e5e5e5;fill-opacity:1;fill-rule:evenodd"
         d="m 76.00295,225 8.9206,21.476 22.353,-6.4157 -11.233,20.36 18.953,13.48 -22.923,3.92 1.281,23.22 -17.355,-15.48 -17.355,15.479 1.2809,-23.22 -22.923,-3.9181 18.953,-13.476 -11.229,-20.365 22.353,6.4157 8.92,-21.48 z"
         inkscape:connector-curvature="0" />
      <path
         id="path5034"
         style="color:#000000;fill:#e5e5e5;fill-opacity:1;fill-rule:evenodd"
         d="m 423.99995,225 8.9206,21.476 22.353,-6.4157 -11.229,20.365 18.953,13.476 -22.923,3.9181 1.2809,23.22 -17.355,-15.479 -17.355,15.479 1.2809,-23.22 -22.923,-3.9181 18.953,-13.476 -11.229,-20.365 22.353,6.4157 8.93,-21.48 z"
         inkscape:connector-curvature="0" />
      <g
         id="g3880">
        <g
           id="g4516"
           transform="matrix(0.80405585,0.59455377,-0.59455377,0.80405585,-199.29114,-390.97757)">
          <path
             sodipodi:nodetypes="czczcc"
             id="path5036"
             d="m 703.67809,351.55546 c 0,0 0,-87.15688 0,-103.52089 0,-16.36402 12.89765,-30.51164 12.89765,-30.51164 0,0 12.89765,14.40122 12.89765,30.51164 0,16.11041 0,103.52089 0,103.52089 z"
             inkscape:connector-curvature="0"
             style="fill:#e5e5e5;fill-opacity:1;fill-rule:evenodd" />
          <path
             style="fill:#b3b3b3;fill-opacity:1;fill-rule:evenodd"
             inkscape:connector-curvature="0"
             d="m 714.87134,351.55546 0,-103.52089 1.7044,-30.51164 1.7044,30.51164 0,103.52089 z"
             id="path4579"
             sodipodi:nodetypes="cccccc" />
        </g>
        <path
           style="fill:#ffcb05;fill-rule:evenodd"
           inkscape:connector-curvature="0"
           d="m 107.11906,391.96871 18.49535,-4.47281 43.52653,-52.52841 8.47087,5.52401 c 3.59875,2.34682 8.03982,3.23533 10.21692,0.52183 4.8262,-6.0152 -2.53832,-11.21553 -2.53832,-11.21553 l -37.5871,-27.82592 c -5.22717,-3.86969 -7.0886,-2.8025 -9.5614,-0.32971 -2.4728,2.47279 -3.77531,6.00056 0.98911,9.8911 l 11.8701,9.69292 -42.86106,51.10391 z"
           id="path5040"
           sodipodi:nodetypes="cccsscsssccc" />
        <path
           style="fill:#ed241a;fill-opacity:1;fill-rule:evenodd"
           inkscape:connector-curvature="0"
           d="m 154.2785,614.19526 c -16.15223,-0.0555 -24.52421,3.82238 -24.52421,3.82238 l 10.5505,6.21631 -10.5505,6.21632 10.5505,6.21631 -10.5505,6.21632 10.5505,6.21631 -10.5505,6.21632 10.5505,6.21631 -10.5505,6.21632 24.52421,0 z"
           id="path3234"
           sodipodi:nodetypes="cccccccccccc" />
        <path
           style="fill:#ffcb05;fill-rule:evenodd;stroke:none"
           inkscape:connector-curvature="0"
           d="m 260.89,254.66 50.20934,27.1432 14.45366,-1.7442 28.172,-33.718 c -9.2882,-3.6482 -25.865,-10.159 -24.479,5.3131 1.3866,15.472 -5.6481,12.709 -11.546,10.393 -5.6853,-2.2331 -10.393,-11.546 -1.3866,-15.472 6.3394,-2.7638 2.5853,-21.376 -5.3131,-24.479 -7.869,-3.0908 -23.347,7.9079 -20.552,14.319 3.9265,9.0062 -5.0797,12.933 -11.546,10.393 -6.4663,-2.5399 -12.933,-5.0797 -1.3866,-15.472 11.546,-10.393 -6.5522,-17.501 -14.319,-20.552 l -2.3064,43.878 z"
           id="path4125"
           sodipodi:nodetypes="cccccccccccccc" />
        <path
           style="color:#000000;fill:#ed241a;fill-opacity:1;stroke:none;stroke-width:1;marker:none;visibility:visible;display:inline;overflow:visible;enable-background:accumulate"
           d="m 230.5964,296.80638 8.37409,6.36612 1.6208,-6.08933 7.42863,4.01342 1.35066,-14.80814 -16.74819,2.07591 z m 10.12996,26.43321 -2.8364,-6.91968 9.45462,3.73663 3.78186,-4.01341 12.02089,8.44202 z"
           id="path4031"
           inkscape:connector-curvature="0" />
        <path
           style="color:#000000;fill:#ed241a;fill-opacity:1;stroke:none;stroke-width:1;marker:none;visibility:visible;display:inline;overflow:visible;enable-background:accumulate"
           d="m 217.64903,314.8752 c 14.14836,7.24114 28.54936,-9.43937 47.11908,5.04295 0,0 -4.80033,-15.38747 -24.128,-14.35301 -19.32765,1.03444 -23.37007,-10.34451 -26.78083,-14.87023 0,0 -10.35861,16.93913 3.78975,24.18029 z"
           id="path4033"
           inkscape:connector-curvature="0"
           sodipodi:nodetypes="zcscz" />
        <path
           style="fill:#000000;stroke:none"
           d="m 343.8125,535.6875 c 0,0 -5.6491,-15.36225 -12.75,-22.78125 0,0 9.83914,7.89148 20.28125,5.25 10.44211,-2.64148 10.59375,-23.46875 10.59375,-23.46875 0,0 -22.16953,5.54198 -29.625,-6.59375 -7.45547,-12.13573 1.27826,-56.8963 3.21875,-75.9375 l 6.875,0 c 1.27073,-7.45922 -2.28125,-28.25 -2.28125,-28.25 l 7.65625,-1.625 c 0.37319,-6.5003 -8.875,-38.59375 -8.875,-38.59375 l 5.78125,-1.84375 c -0.4225,-4.96462 -8.09375,-27.28125 -8.09375,-27.28125 L 341,311.3125 c -2.15212,-9.96036 -11.3878,-27.45933 -14.78125,-33.09375 l -9.55698,-4.80582 -6.22915,6.76407 c 0,0 6.47892,-12.30827 2.06859,-17.42267 -4.41032,-5.11439 -18.33207,-0.65204 -18.33207,-0.65204 l -32.97208,-12.60873 c 0,0 -10.75474,-1.43874 -13.81094,10.30437 0,0 -11.16214,1.83439 -26.75796,21.94014 1.22168,8.1894 9.83316,15.48349 9.83316,15.48349 0,0 17.41849,-9.9589 24.19402,0.78301 6.77554,10.74191 8.08211,18.27512 6.93989,23.30322 -11.23963,-3.17139 -26.16235,1.86706 -26.16235,1.86706 0,0 6.19307,11.17936 10.87879,11.17936 l 13.87583,0 c 0,0 -3.16175,15.36454 -41.96875,15.36454 -38.344,0 -50.3545,-9.32775 -69.9375,-29.84375 l -17.71875,18.1875 c -3.9461,-1.3573 -7.85145,4.2288 -5.59375,8.5 -4.8212,-0.6851 -7.42935,3.0508 -5.84375,6.875 -3.861,-1.433 -7.0966,2.9978 -6.15625,7 -4.6565,-2.5222 -8.8328,3.6661 -7.125,7.4375 14.10449,13.87262 28.29805,24.25457 42.71875,31.875 -0.93265,3.50824 -1.8125,6.90625 -1.8125,6.90625 0,0 11.54721,2.39832 24.76314,2.04846 l 0.14311,8.07654 c 0,0 13.22532,0.78322 26.57406,-1.98665 l 0.26969,9.36165 c 0,0 14.91902,0.78433 26.25,-5.8125 0.73131,0.0181 1.45417,0.0509 2.1875,0.0625 -1.409,20.981 6.96435,41.61075 14.28125,61.71875 -17.559,4.179 -24.8016,10.309 -32.875,17.9375 -7.771,-2.0258 -16.9788,-1.63465 -24.75,0.71875 l 5.25,17.84375 c -12.86999,-2.28249 -17.7511,-0.84803 -24.41936,6.62659 l 14.63811,8.31091 c -12.93036,3.23506 -15.97352,18.17015 -15.97352,18.17015 l 16.53602,3.20485 c -10.55483,3.36598 -17.86117,12.13997 -16.65625,22.65625 l 13.75,-0.21875 c 1.062,17.416 4.7858,34.835 12,52.25 0.4533,2.601 -4.18855,1.52994 -6.53125,1.03125 -9.259,-2.396 -15.19864,-14.46875 -27.90625,-14.46875 l 0,53.5625 48.09375,0 c 7.254,0 12.3859,-5.04725 20.3125,-24.28125 7.92659,-19.233 9.26508,-50.93865 8.75,-59.96875 4.3508,2.2556 7.65903,1.4514 7.65903,1.4514 0,0 -0.88613,-14.1911 1.15347,-17.3264 3.439,2.4097 7.36945,3.28571 9.65625,3.03125 1.1038,-4.739 2.73805,-18.57045 4.21875,-18.65625 1.79878,3.16223 4.03917,8.25569 11.92399,17.37539 l 8.60726,-1.84414 c -0.72954,9.1739 2.75,15.90625 2.75,15.90625 L 289.5625,582 c -1.72703,5.78095 -0.29998,11.91963 0.125,12.34375 9.012,-0.111 36.94525,14.94225 29.71875,32.78125 -7.34905,-13.0841 -19.8125,-12.9375 -19.8125,-12.9375 l 0,53.5625 59.15625,0 c 8.70424,0 8.31505,-27.51975 6.65625,-41.46875 -3.015,-25.352 -25.03125,-58.375 -25.03125,-58.375 l 9.9375,-4.375 c 0,0 -10.52345,-17.40485 -17.84375,-24.53125"
           id="path4121"
           inkscape:connector-curvature="0"
           sodipodi:nodetypes="ccscsccccccccccczccccczccccsccccccccccccccccccccccccccccsccccccccccccccssccc" />
        <path
           id="path4133"
           style="fill:none;stroke:#ffcb05;stroke-width:2;stroke-linecap:butt;stroke-linejoin:miter;stroke-miterlimit:4;stroke-dasharray:none"
           d="m 266.8926,473.16461 c 0.44167,17.66711 -20.92228,34.85013 -20.6986,50.46039 -0.89187,25.345 19.87664,46.43005 19.87664,46.43005 M 239.78,479.38 l 8.00113,16.52069 -9.73161,1.8562 9.52198,16.61679"
           inkscape:connector-curvature="0"
           sodipodi:nodetypes="ccccccc" />
        <path
           style="fill:#ed241a;fill-opacity:1;fill-rule:evenodd"
           inkscape:connector-curvature="0"
           d="m 142.6785,324.7584 c -3.3107,0.5189 -5.3899,2.5156 -5.5952,6.7609 -4.7368,0.57233 -6.08884,1.8985 -5.23394,6.1985 l 9.0923,7.6935 c 2.5958,-1.7508 6.02014,-0.5021 5.23394,-6.1985 2.6446,-1.9137 7.0512,-1.478 6.2946,-7.9266 l 3.497,-2.0982 c 0,0 -2.1565,8.9174 0.23314,12.589 2.3896,3.6719 5.4787,3.3805 9.3254,2.0982 3.8467,-1.2822 6.0615,-7.2272 6.0615,-7.2272 l -23.97143,-18.11107 c -1.54452,0.33041 -4.89701,1.90247 -4.93731,6.22147 z"
           id="path7697"
           sodipodi:nodetypes="cccccccccccc" />
        <path
           id="path4129"
           style="fill:none;stroke:#2876b8;stroke-width:2;stroke-linecap:butt;stroke-linejoin:miter;stroke-miterlimit:4;stroke-dasharray:none"
           d="m 129.15728,335.53356 c 11.642,14.062 40.44633,25.89163 68.36033,27.48363 23.542,1.3426 56.99269,-16.17151 60.72369,-27.82851 m -3.93684,0.33818 C 268.43291,334.94442 286.517,330.147 286.517,330.147 m -61.72415,89.19803 c 16.54141,-0.99505 28.78599,7.12616 45.42505,4.37281 3.18,-0.54 13.9101,-11.45124 18.2801,-20.72124"
           inkscape:connector-curvature="0"
           sodipodi:nodetypes="cscccccc" />
        <use
           x="0"
           y="0"
           xlink:href="#path3234"
           id="use3918"
           transform="translate(145.30615,0)"
           width="500"
           height="705" />
      </g>
      <path
         style="fill:#ed241a;fill-opacity:1"
         inkscape:connector-curvature="0"
         d="m 261.53966,278.55475 1.15507,4.33165 c 0.96221,-7.893 5.39025,-8.85607 8.08608,-13.28371 l -13.59869,0 -2.56989,-5.19803 c -0.68621,5.104 0.26926,10.30171 6.92743,14.15009 z"
         id="path9658-1"
         sodipodi:nodetypes="cccccc" />
    </g>
  </g>
  <g
     inkscape:groupmode="layer"
     id="layer1"
     inkscape:label="Layer"
     style="display:inline"
     transform="translate(0,-1.2157435)" />
</svg>
