<svg xmlns="http://www.w3.org/2000/svg" height="900" width="900"><path d="m 450.113,868.753 c 231.118,0 418.63,-187.53 418.63,-418.859 0,-231.125 -187.513,-418.646 -418.63,-418.646 -231.346,0 -418.858,187.521 -418.858,418.646 0.001,231.329 187.512,418.859 418.858,418.859 z" clip-rule="evenodd" fill="#fff" fill-rule="evenodd"/><path d="M 450.121,8.369 C 206.133,8.369 8.379,206.136 8.379,449.88 c 0,243.977 197.754,441.751 441.742,441.751 243.744,0 441.501,-197.774 441.501,-441.751 C 891.623,206.136 693.865,8.369 450.121,8.369 Z" clip-rule="evenodd" fill="#d70926" fill-rule="evenodd"/><path d="m 450.0825,747.796 c 164.36535,0 297.7145,-133.363 297.7145,-297.872 0,-164.365 -133.34915,-297.721 -297.7145,-297.721 -164.52735,0 -297.8785,133.356 -297.8785,297.721 -0.001,164.509 133.35115,297.872 297.8785,297.872 z" clip-rule="evenodd" fill="#00a552" fill-rule="evenodd"/><path d="M621.728 639.266l-3.237 31.396c3.753-3.41 7.355-6.912 10.8-10.518l-3.97-21.508zM270.996 659.437l10.878-76.598c0 0-20.238 21.352-36.913 44.478 7.584 11.19 16.22 21.99 26.035 32.12zM194.878 443.797c.913.116 1.786.237 2.669.388 17.5 2.803 30.811 4.769 39.106 7.065-2.609-13.061-4.158-26.072-4.664-38.763-2.303-59.597 29.378-110.116 38.481-127.658.001 0-69.499 52.01-75.592 158.968zM632.09 560.865c-2.877 16.362-4.368 24.744-5.29 28.884 9.817-12.125 50.083-53.837 50.083-53.837 0 0 10.333.005 18.136 2.283.535-1.986 1.031-3.971 1.518-5.917-17.064-2.525-59.208-2.545-64.447 28.587zM649.491 636.022c7.323-10.017 13.757-20.388 19.393-30.9-10.916 6.146-24.338 12.801-24.338 12.801 0 0 1.172 9.364 4.945 18.099zM588.754 648.776l1.949-64.491c-8.132 7.122-16.944 13.638-26.465 19.443 9.359 14.671 21.818 35.29 24.516 45.048zM666.521 375.914c4.795-2.202 12.794-3.611 22.84-4.132-22.215-58.428-59.813-86.954-59.813-86.954 8.357 13.851 28.955 48.293 36.101 91.524.286-.144.573-.302.872-.438zM650.78 496.04c-.226.596-.458 1.178-.684 1.767 12.099-1.793 34.887-4.804 53.499-5.146.206-1.975.405-3.889.566-5.761.197-2.349.377-4.677.522-6.979-16.891 8.606-38.838 11.95-53.903 16.119zM469.758 695.927c0 0 .01-18.938 33.507-67.921-15.832 3.475-32.892 5.352-51.236 5.352-12.108 0-23.681-.83-34.738-2.385.029 2.149-.071 4.233-.348 6.18 0 0-10.155 1.483-14.611-2.967 0 0 16.07 27.91 14.611 45.448 0 0-19.038-5.92-27.92-27.911 0 0-8.657 7.424-14.572 11.856 0 0-10.361-20.497-7.404-24.943 0 0-10.173-14.938-12.584-26.446-10.461-5.067-20.22-10.912-29.293-17.435.626 25.658 1.321 70.21-.177 105.435 33.807 18.084 75.941 29.326 128.299 29.326 51.233 0 92.495-11.648 125.567-30.219-10.899-14.814-29.112-40.726-34.064-54.963 0 0-63.197 50.1-75.037 51.593z" fill="#ffdf00"/><path transform="translate(.152 -.109)" fill="#ffdf00" d="M538.866 432.414L504.85 330.336 593.904 267.23 483.847 267.23 449.844 165.096 415.844 267.23 305.793 267.23 394.796 330.336 360.78 432.414 449.844 369.33z"/><path d="M 449.999,0 C 201.472,0 0,201.47 0,450 0,698.529 201.472,900 449.999,900 698.532,900 900,698.529 900,450 900.001,201.471 698.532,0 449.999,0 Z m 0.119,882.127 c -238.737,0 -432.233,-193.519 -432.233,-432.245 0,-238.499 193.496,-432.009 432.233,-432.009 238.499,0 432.001,193.511 432.001,432.009 10e-4,238.727 -193.502,432.245 -432.001,432.245 z" fill="#ffdf00"/><path d="m 759.262,449.92 c 0,-170.689 -138.4846,-309.182 -309.1775,-309.182 -170.8619,0 -309.3475,138.493 -309.3475,309.182 0,170.843 138.4856,309.343 309.3475,309.343 170.6929,0 309.1775,-138.5 309.1775,-309.343 z M 450.0815,747.796 c -164.52565,0 -297.87904,-133.363 -297.87904,-297.872 0,-164.365 133.35339,-297.721 297.87904,-297.721 164.36765,0 297.71504,133.356 297.71504,297.721 0,164.509 -133.34739,297.872 -297.71504,297.872 z" fill="#ffdf00"/><path d="M559.181 152.396l-.097.448 1.383.037c8.99.266 14.776.496 17.368.688.759-.094 1.798-.708 3.116-1.833.576-.523.821-.865.737-1.024-.109-.185-.712-.346-1.798-.49-1.37-.1-2.749-.177-4.14-.25-1.922-.155-3.162-.43-3.71-.827-.586-.427-1.179-1.256-1.78-2.479-.599-1.231-.717-2.089-.365-2.574.306-.425 1.06-.622 2.26-.601 1.193.027 2.086.251 2.673.678.714.517.958 1.415.728 2.687l.432.537c1.703-.706 2.878-1.506 3.538-2.424 1.178-1.624 1.054-2.958-.375-3.992-1.599-1.157-4.642-1.155-9.146-.01-2.321.6-4.005 1.614-5.041 3.048-.923 1.27-.515 3.17 1.214 5.717-2.948.095-4.654.364-5.131.82zM857.909 388.203c-2.497.752-16.143 6.587-29.931 10.258-13.787 3.671-31.247 7.813-34.261 8.472-3.011.659-4.514 1.131-4.514 1.131 0 0 6.82 4.846 15.81 3.716 8.987-1.129 21.507-4.188 27.294-5.741 5.788-1.554 14.873-4.422 14.873-4.422 0 0-1.788 2.115-2.118 3.622-.33 1.506.14 3.059.14 3.059 0 0 4.518-4.33 6.449-5.836 1.93-1.504 8.755-6.541 10.868-7.716 2.12-1.178 5.084-3.061 5.084-3.061 0 0-7.197-4.236-9.694-3.482zM636.379 166.71c-1.666 2.592-8.031 10.221-8.031 10.221 0 0 10.334-2.417 15.903-9.564 5.565-7.147 15.819-23.354 18.82-28.541 3.001-5.188 7.403-13.636 7.403-13.636 0 0 .23 2.763 1.061 4.06.831 1.303 2.26 2.067 2.26 2.067 0 0 .142-6.254.443-8.682.301-2.431 1.58-10.815 2.25-13.143.671-2.328 1.434-5.756 1.434-5.756 0 0-8.085 2.084-9.32 4.382-1.232 2.292-6.777 16.062-13.945 28.4-7.172 12.337-16.607 27.597-18.278 30.192zM319.688 98.881c5.556 13.14 12.09 29.852 13.163 32.745 1.071 2.887 3.348 12.562 3.348 12.562 0 0 4.275-9.717 1.904-18.459-2.368-8.744-9.169-26.675-11.515-32.191-2.344-5.518-6.453-14.112-6.453-14.112 0 0 2.349 1.476 3.882 1.593 1.542.113 3.011-.565 3.011-.565 0 0-4.917-3.871-6.676-5.57-1.761-1.701-7.697-7.758-9.158-9.691-1.458-1.933-3.737-4.605-3.737-4.605 0 0-3.189 7.718-2.097 10.084 1.091 2.362 8.771 15.061 14.328 28.209zM584.679 148.465c-.972.23-1.176.367.382 1.284 1.556.918 11.732 5.1 14.749 6.168 3.02 1.071 12.612.551 18.041-1.344 5.427-1.891 13.848-6.485 19.15-14.799 5.3-8.315 9.037-15.771 11.001-21.454 1.959-5.68 2.977-8.25 2.977-8.25 0 0 .682 1.026 1.774 2.669 1.09 1.638 2.253.275 2.253.275 0 0 .312-7.365.178-12.013-.132-4.646-.327-11.615-.327-11.615 0 0-9.577-.259-9.758 1.872-.182 2.133.126 8.2-.916 12.327-1.046 4.124-6.438 19.777-10.189 27.123-3.755 7.349-8.313 14.461-10.625 15.522-2.312 1.063-11.851 2.023-22.793 2.376-10.948.355-14.927-.371-15.897-.141z" fill="#ffdf00"/><path d="M618.789 117.273c2.914 7.408 4.631 10.527 5.134 14.572.498 4.045.491 9.176.329 10.392-.161 1.221-.319 2.259-.319 2.259 0 0 4.393-6.645 4.198-13.616-.198-6.972-2.016-16.291-4.002-22.483-1.984-6.19-7.2-21.423-7.2-21.423l2.363 1.152c0 0 .62-3.963-1.178-7.739-1.8-3.773-3.831-7.628-6.108-9.899-2.28-2.27-4.141-2.927-5.706 4.145-1.569 7.079-.248 11.467 3.132 19.93 3.375 8.462 6.441 15.298 9.357 22.71zM474.59 58.42c5.528 6.485 10.292 11.624 15.096 17.313 4.809 5.693 7.262 7.941 8.922 11.376 1.652 3.433 3.185 7.979 3.408 9.108.223 1.128.392 2.098.392 2.098 0 0 1.902-7.209-.362-13.324-2.264-6.117-6.671-13.83-10.287-18.722-3.615-4.891-12.803-16.818-12.803-16.818l2.438.314c0 0-.636-3.699-3.361-6.503-2.727-2.806-5.679-5.614-8.381-6.943-2.699-1.327-4.544-1.352-3.81 5.385.733 6.741 3.217 10.229 8.748 16.716z" fill="#ffdf00"/><path d="M461.936 118.537c-5.406.417-7.055.673-6.103 1.602.952.929 13.441 2.192 19.452 2.825 6.005.633 9.994-.356 16.063-4.549 6.066-4.19 8.28-6.101 14.328-12.055 6.044-5.957 6.601-8.551 6.601-8.551 0 0 .036.26.17.712-.063 1.388-.089 2.841-.057 4.261.131 5.899 1.937 8.146 3.423 9.5 2.742 2.497 4.58 2.827 4.58 2.827l.007-.001c4.119 1.511 8.732 1.598 13.837.248 1.338-.353 4.55-1.634 9.637-3.831.822-.364 1.492-.419 2.014-.167.293.144.366.398.229.771-1.389 3.191-1.962 5.827-1.724 7.913.427 3.341 2.757 6.041 6.988 8.091 5.662 2.747 11.757 1.825 18.29-2.771.34 5.354 1.876 8.692 4.607 10.021 3.876 1.875 7.653 1.556 11.325-.963 2.952-2.026 5.416-5.071 7.391-9.142.377-.784.678-2.063.898-3.847.232-2.061.041-3.235-.576-3.534-.256-.127-.679.113-1.253.715-3.404 3.537-5.204 5.498-5.393 5.893-.138.295-.045.883.292 1.764.332.889.448 1.447.335 1.672-1.252.844-2.971.734-5.151-.322-1.79-.872-3.104-2.253-3.957-4.151-.797-1.754-.913-3.222-.341-4.391-.128.262.805-.833 2.798-3.29.272-.31.479-.609.622-.9.346-.719.291-1.184-.164-1.407-.392-.188-1.036-.1-1.937.266-2.908 1.769-5.81 3.517-8.699 5.25-4.278 2.107-8.438 2.181-12.474.226-2.8-1.36-4.794-3.05-5.984-5.075-1.256-2.136-1.335-4.327-.248-6.576.49-1.007 1.215-2.004 2.17-2.988.962-.979 1.005-1.685.121-2.11-.551-.266-1.289-.245-2.209.076-7.489 2.595-12.196 4.057-14.116 4.369-4.799.768-9.59-.008-14.374-2.326v.001c-.282-.134-.548-.259-.775-.357-3.039-1.34-4.167-5.1-4.578-8.647-.211-1.838-.003-6.78.247-11.12.233-4.018.499-7.518.506-7.57 0 0 0-.001 0-.003.841-8.332 2.753-22.155 3.127-25.169.427-3.456 1.145-8.955 1.145-8.955 0 0-.712-.619-2.113.336-1.398.958-4.591 3.117-4.973 3.829-.385.709-.925 14.363-1.384 21.743-.462 7.379-.767 21.267-4.163 25.542-3.401 4.277-13.765 13.306-24.424 17.201-10.661 3.893-18.629 6.696-24.033 7.114zM361.296 66.323c-1.533 2.496-1.849 4.366-1.588 5.287.259.923 1.918 6.639 1.918 6.639 0 0-5.833 6.279-10.4 15.305-3.354 6.632-4.607 12.446-3.28 16.27 1.331 3.825 3.626 4.486 6.885 3.91 2.078-.369 8.383-2.566 11.032-7.288 2.65-4.725 3.363-9.31 3.363-9.31 0 0 1.654 3.861 3.393 6.507 1.239 2.076 3.923 5.672 10.03 9.116 6.12 3.451 13.153 2.655 19.903-1.005.121-.063.23-.13.346-.198 1.276-.678 2.539-1.488 3.791-2.465.293-.229.708-.599 1.218-1.079.619-.551 1.157-1.084 1.617-1.579 1.066-1.071 2.372-2.417 3.939-4.071.561-.604 1.11-.897 1.643-.872.332.018.49.208.472.575-.095 6.848 2.81 10.416 8.701 10.712l-.001.02c3.995.19 7.868-1.326 11.624-4.548 3.544-3.032 7.29-6.221 9.455-11.052 5.898 5.016 11.009 6.928 17.133 7.218 1.2.062 2.368-1.115 3.516-3.528 1.151-2.415 1.806-5.282 1.964-8.612.169-3.526-.279-6.713-1.344-9.566-1.418-3.868-3.655-5.875-6.714-6.021-2.464-.118-5.09 1.092-7.878 3.623-1.949 1.775-3.508 3.668-4.668 5.683-.673.099-1.451 1.031-2.334 2.786-.687 1.329-1.273 2.459-1.767 3.404-1.192 2.078-3.103 4.902-5.333 6.318-3.77 2.391-7.681 3.718-11.426 3.8-3.747.081-6.16-1.195-6.866-4.167-.704-2.971 0-3.431.154-4.933.151-1.503.123-2.821-1.717-2.204-1.836.61-3.616 3.028-6.617 5.388-3.003 2.36-6.036 4.788-9.925 5.918-3.894 1.129-6.192 1.223-10.999.301-.87-.167-1.659-.391-2.413-.636-4.771-2.03-8.435-6.226-8.435-6.226l-1.592-2.351.016-.037c-.546-.812-1.087-1.775-1.64-2.899-.438-.889-.883-1.875-1.345-2.966-2.713-6.416-3.568-9.123-3.568-9.123 0 0 .652-.986 2.12-3.89 1.464-2.905 1.762-4.385 1.93-6.073.163-1.691-.697-3.612-.697-3.612l-5.954 6.438-2.66-10.645c-.002.002-3.467 3.244-5.002 5.738zm90.312 20.871c1.033-.683 2.447-.983 4.242-.899 1.196.06 2.369.666 3.515 1.819 1.146 1.157 1.914 2.479 2.312 3.961.102.609.148 1.076.132 1.408-.023.532-.271.786-.734.764-.338-.015-.731-.1-1.19-.253-3.739-1.313-6.893-3.032-9.454-5.153.024-.6.417-1.146 1.177-1.647zm-91.061 14.849c-1.875 1.695-7.094 3.469-7.334 1.903-.304-1.98 1.698-5.84 4.222-9.617 3.37-5.054 6.906-8.549 6.906-8.549l2.415 6.11c-.001 0-.871 5.324-6.209 10.153zM212.029 156.294c.65.411 9.538 1.659 12.9 3.349 3.362 1.69 7.732 5.139 7.732 5.139 0 0 1.247 14.525-3.995 25.551-5.242 11.026-19.26 31.625-21.947 35.461-2.687 3.837-7.536 10.92-7.536 10.92 0 0 .177.295.59.292.412-.001 14.773-10.66 19.165-14.799 4.391-4.142 11.239-11.292 13.626-16.362 2.387-5.069 4.288-13.728 5.593-23.205 1.308-9.476 1.446-17.006-.043-21.06-1.487-4.051-4.451-8.861-7.994-10.667-3.536-1.807-10.724-3.889-13.844-4.462-3.122-.574-9.177-.192-9.177-.192 0 0-.707-.055.483 2.998 1.193 3.05 3.799 6.63 4.447 7.037z" fill="#ffdf00"/><path d="M89.733 261.094c4.477 1.508 15.822 7.03 25.258 12.158 9.438 5.134 21.795 10.204 27.316 8.411 5.521-1.788 17.703-13.144 28.667-32.608 10.965-19.468 12.578-41.218 12.578-41.218 0 0 .854 1.033 2.458 2.389 1.604 1.358 4.064 3.697 10.134 3.292 6.07-.408 9.341-5.034 11.583-8.575 2.241-3.539 2.93-7.591 2.403-8.909-.522-1.314-4.045-9.296-5.799-11.924-1.753-2.625-11.239-8.039-14.485-8.212-3.249-.171-1.867 3.21-1.105 5.466.762 2.254 2.144 4.931 2.848 5.211.71.279 1.979.553 3.629.78 1.648.227 5.708 2.748 5.708 2.748 0 0 .598 1.503.138 3.86-.46 2.355-2.911 6.368-6.787 7.917-3.876 1.548-10.484-2.656-12.257-4.298-1.772-1.635-3.306-2.099-3.306-2.099 0 0-.652 10.945-4.245 22.02-3.594 11.08-9.654 22.991-17.134 33.499-7.478 10.508-18.843 20.562-21.896 21.401-3.058.838-7.948.667-14.129-1.932-4.876-2.049-21.23-11.191-25.124-13.411-3.896-2.215-17.332-7.09-17.332-7.09l2.275 7.987c.001 0 4.127 1.63 8.604 3.137zM72.711 405.898c4.696 5.759 9.501 9.268 13.535 9.604 4.034.336 5.574-1.49 6.366-4.702.509-2.049 1.063-8.701-2.178-13.042-3.241-4.34-7.141-6.851-7.141-6.851 0 0 4.203.051 7.328-.461 1.603-.192 4.092-.702 7.246-2.267.039-.021.081-.039.119-.06.258-.125.512-.259.764-.399.053-.027.103-.053.154-.084.635-.362 1.239-.776 1.796-1.25 2.141-1.833 5.337-5.234 8.375-9.783 3.302-4.947 6.419-11.257 7.8-18.455.536-2.798.931-5.657 1.224-8.494.802-7.807.796-15.412.522-20.94-.116-2.392-.284-4.402-.451-5.862-.148-1.279-.293-2.389-.428-3.357-.5-3.626-.867-5.172-.867-5.172 0 0 2.986.92 6.134 1.104 1.136.066 2.291.042 3.338-.161 3.94-.765 7.884-4.177 9.765-8.353 1.881-4.179.469-9.062-2.295-12.767-2.766-3.707-9.532-8.121-13.237-8.942-3.705-.823-5.882-.056-6.822.12-.942.175-1.824.411-2.648.702-.823.296-1.587.828-.233 3.003 1.352 2.176 3 5.293 4.468 5.53 1.471.233 4.414-1.057 7.177-1.236 2.766-.177 6.529-.119 6.768 1.648.235 1.764-.767 7.292-2.768 9.409-.031.036-.064.058-.1.092-1.999 2.035-4.997 2.499-7.547 2.499-.611 0-1.204-.023-1.759-.052-1.803-.097-3.182-.301-3.182-.301 0 0-.792-1.08-1.854-1.874-.603-.454-1.291-.813-1.97-.833-1.881-.06-6.764-.293-6.882.823-.083.807 2.227 7.269 3.625 14.01.538 2.587.941 5.214 1.021 7.578.158 4.551.106 11.676-.628 18.778-.19 1.824-.422 3.641-.708 5.419-.127.776-.266 1.54-.411 2.297-.665 3.41-1.546 6.581-2.722 9.155-.682 1.495-1.323 2.922-1.941 4.28-.453 1.005-.889 1.967-1.317 2.885-.521.75-4.227 5.878-4.759 6.466-3.789 3.536-9.113 5.176-9.113 5.176l-2.795.502-.028-.029c-.963.169-2.063.272-3.317.321-.987.039-2.075.043-3.256.022-6.965-.125-9.788-.443-9.788-.443 0 0-.635-.996-2.693-3.517-2.061-2.521-3.293-3.393-4.767-4.232-1.477-.838-3.581-.83-3.581-.83l3.464 8.056-10.81-1.893c0 0 1.556 4.483 3.212 6.9 1.656 2.415 3.239 3.462 4.185 3.599.949.139 6.843.942 6.843.942 0 0 3.375 7.882 9.767 15.722zm4.786-14.865c0 0 4.512 2.958 6.754 9.794.791 2.405.289 7.892-1.237 7.478-1.933-.527-4.646-3.924-7.074-7.766-3.249-5.132-5.008-9.78-5.008-9.78z" fill="#ffdf00"/><path d="M134.956 213.847l3.103 6.283c-1.121.145-3.151.698-6.078 1.667-2.927.971-4.506 1.595-4.728 1.881l.098 1.057 3.852 7.856.569.44c3.542-1.305 7.138-2.436 10.777-3.414.446-.113.543-.467.295-1.063-.728-1.935-1.743-4.114-3.051-6.547 3.746-1.297 7.206-2.391 10.368-3.275l.294-1.065c-1.767-4.767-3.194-7.568-4.271-8.401-.28-.222-2.175.233-5.685 1.356-3.51 1.129-5.385 1.849-5.63 2.168zM202.614 227.308c-1.765-4.765-3.193-7.571-4.269-8.404-.284-.221-2.175.235-5.687 1.361-3.509 1.128-5.384 1.846-5.629 2.165l.087 1.057 3.103 6.282c-1.121.144-3.151.694-6.078 1.664-2.927.973-4.506 1.597-4.728 1.882l.098 1.058 3.852 7.856.57.441c3.541-1.305 7.137-2.439 10.771-3.417.451-.113.546-.464.299-1.062-.728-1.933-1.743-4.112-3.053-6.545 3.747-1.298 7.208-2.392 10.37-3.276zM142.982 328.158c-3.112-4.021-5.31-6.268-6.589-6.74-.338-.129-2.005.873-5.02 2.998-3.009 2.125-4.586 3.37-4.725 3.749l.401.979 4.839 5.069c-1.028.472-2.8 1.606-5.303 3.407-2.502 1.803-3.823 2.868-3.95 3.209l.413.981 6.025 6.344.673.251c2.99-2.307 6.083-4.46 9.261-6.481.393-.243.381-.61-.034-1.106-1.274-1.625-2.896-3.401-4.87-5.331 3.185-2.36 6.16-4.438 8.917-6.228zM48.705 391.998l-.209-1.081c-3.702-3.491-6.221-5.369-7.555-5.638-.353-.072-1.846 1.176-4.491 3.746-2.645 2.564-4.006 4.042-4.085 4.437l.544.907 5.57 4.254c-.94.626-2.515 2.022-4.707 4.188-2.189 2.171-3.328 3.428-3.402 3.786l.561.904 6.938 5.331.704.142c2.595-2.742 5.316-5.35 8.142-7.84.351-.3.28-.659-.208-1.087-1.513-1.408-3.388-2.911-5.64-4.509 2.78-2.828 5.396-5.344 7.838-7.54zM779.101 364.566l-1.013.938-5.015 10.262v.936c4.179 2.615 8.224 5.411 12.135 8.38.479.366.918.187 1.334-.546 3.497-5.637 5.252-9.347 5.252-11.124 0-.469-1.99-2.054-5.953-4.774-3.963-2.711-6.215-4.072-6.74-4.072zM93.872 279.163c-.324-.126-1.953.826-4.886 2.845-2.93 2.025-4.468 3.22-4.607 3.581l.378.949 5.764 6.197.647.25c2.919-2.195 5.928-4.248 9.022-6.167.38-.233.372-.586-.024-1.068-2.966-3.916-5.07-6.116-6.294-6.587z" fill="#ffdf00"/><path d="M846.309 342.142c-.706 1.118-4.53 3.882-9.118 6.588-4.59 2.707-11.532 6.001-12.472 5.529-.942-.469-3.473-3.294-6.413-6.234-2.939-2.943-3.763-10.53-4.293-14.708-.53-4.178-3.296-4.53-5.764-5.116-2.473-.588-7.177-2.061-8.235-1.708-1.06.353-.707 3.234-.236 4.884.472 1.645 1.942 7.587 2.764 12.53.823 4.94.471 10.527.471 10.527 0 0-3.763-5.232-5.94-8.704-2.177-3.473-4.648-10.295-3.177-18.532 1.472-8.235 4.94-8.646 9.06-11.351 4.117-2.708-4.473-5.474-7.528-6.237-3.061-.765-5.397-.894-7.355-2.882-.603-.612-1.354-1.688-2.166-2.992l-.394.163c-1.743-1.896-4.562-6.026-8.481-12.449 4.72 1.148 11.202.116 19.462-3.095 1.33-.517 4.105-2.082 8.331-4.694 4.603-2.672 7.529-4.317 8.774-4.923 1.257-.607 1.79-1.158 1.602-1.646-.162-.42-.77-.63-1.808-.625-6.044.01-9.796.102-11.263.268-9.741.644-17.949 1.3-24.622 1.959l-2.307-2.715.192-.146c-.468-.377-.869-.729-1.207-1.049l-1.398-1.643c2.737-3.297 4.809-6.572 6.199-9.822 1.548-3.674 1.843-6.572.881-8.69-1.274-2.805-3.99-4.786-8.146-5.949-4.427-1.207-8.759-.847-12.997 1.079-5.536 2.517-6.478 7.81-2.813 15.879 1.709 3.76 3.373 6.511 4.992 8.25-.385.371-.781.699-1.19 1-.617.462-1.252.852-1.912 1.152-1.354.615-3.906.317-9.293-1.79-.598-.233-1.228-.486-1.904-.768-2.344-.979-4.491-1.817-6.447-2.711-3.887-1.773-7.006-3.771-9.34-7.571-2.539-4.125-4.643-9.316-1.045-13.778 3.075-3.818 5.767-5.564 7.173-6.334 7.251-.313 12.913-1.239 16.047-2.935 3.795-2.056 7.783-5.817 9.41-9.44 2.715-6.044 2.425-11.17 2.432-14.343.008-5.508-1.126-9.11-1.126-9.11 0 0-.046-.709-2.896.91-2.852 1.617-6.018 4.708-6.331 5.408-.31.699.791 4.799-1.463 13.245-.972 3.637-3.979 8.391-3.979 8.391 0 0-2.317 4.163-25.467-.863-15.055-3.267-34.452-13.956-38.631-16.063-4.184-2.11-11.887-5.895-11.887-5.895 0 0-.268.219-.206.625.064.408 12.67 13.095 17.396 16.847 4.727 3.752 8.573 7.753 18.147 11.141 4.494 1.59 11.622 2.115 19.534 2.195-.465.244-.93.5-1.388.775-5.154 3.112-7.899 8.304-8.346 12.944-.027.284-.047.569-.057.849-.003.051-.003.1-.007.151-.003.245-.006.49 0 .729.004.121.014.235.02.356.014.179.022.364.037.538.032.308.074.612.128.909.11.605.238 1.186.38 1.748.064.254.139.485.206.731.084.296.163.601.255.885.102.317.212.614.325.917.067.191.137.388.211.575.136.346.285.671.434 1.002.06.121.11.251.174.375.171.356.357.699.546 1.036.044.079.084.154.122.229.213.364.434.709.659 1.047.027.042.057.082.082.125.243.354.498.698.761 1.026.016.016.028.035.043.055.277.341.563.672.857.986 0 .001.003.005.007.01h.003c2.609 2.796 6.02 4.628 10.004 5.989.201.071.395.142.596.206 4.171 1.36 8.043 2.091 11.361 2.47 1.195.134 2.325.229 3.367.283 0 0 0 0 .003 0 .004 0 .007 0 .012 0 2.108.111 3.861.085 5.153.02.022-.001.043-.003.064-.003.19-.011.369-.021.54-.034.016 0 .033-.001.05-.005.465-.031.841-.063 1.136-.092 5.704-1.018 7.899-1.811 8.214-1.93.01-.005.025-.01.042-.015 0 0 .514.847 1.999 2.229l-.213.672-.918.113-1.029.159-.39.395c-.052.182.075.654.371 1.425.294.533.166.941-.363 1.231-6.418 3.384-11.087 8.06-14.001 14.026-2.593 5.361-3.073 10.139-1.439 14.34 2.585 6.646 8.539 8.164 17.841 4.546 2.316-.902 4.294-2.481 5.958-4.736 1.661-2.26 2.541-4.613 2.626-7.07.408.651 1.033 1.432 1.857 2.32l-.142.06c.71 1.173 1.956 3.148 1.956 3.148 0 0-2.584 1.803-4.86 3.998-2.276 2.196-5.964 6.98-6.906 12.158-.939 5.177 3.138 5.413 5.337 4.783 2.194-.626 9.174-2.745 9.174-2.745 0 0-.938 4.427-.328 8.285.613 3.856 4.47 11.105 8.757 17.883 4.277 6.775 8.092 13.222 11.056 19.764 2.964 6.542 4.848 18.495 5.133 19.813.281 1.318 2.727 1.459 5.268 1.836 2.542.377 8.752 1.788 9.791 1.411 1.032-.377-.471-3.529-1.6-6.211-1.133-2.684-3.814-12.896-3.86-18.07-.048-5.181.518-18.168.518-18.168 0 0 1.882 1.98 4.61 2.824 2.73.849 5.317 1.317 10.634.188 5.322-1.129 14.024-5.928 14.024-5.928 0 0-2.068 5.74-2.068 6.775 0 1.035 1.366.989 2.212 0 .846-.989 4.235-5.037 6.682-7.623 2.449-2.589 8.567-5.461 8.752-6.545.19-1.081-.224-.702-.162-1.057.061-.353-2.882-3.354-4.116-4.413-1.235-1.058-4.531-1.586-6.237-1.351-1.712.235-2.828 2.471-3.535 3.589zM801.49 279.764c-4.207 3.892-7.434 6.274-9.67 7.145-3.497 1.361-7.648-.612-12.452-5.912 3.353-.907 10.731-1.318 22.122-1.233zm-36.292 23.542c-.375 4.416-1.317 7.683-2.834 9.804-.549.862-1.032 1.37-1.457 1.536-.772.298-1.604-.708-2.502-3.018-1.089-2.8-.912-5.972.53-9.512 1.272-3.153 3.252-5.938 5.938-8.354.663 2.322.769 5.504.325 9.544zm4-40.912c-.334.898-.773 1.854-1.324 2.88-1.218-1.588-2.17-3.136-2.853-4.643-.45-.989-.78-1.88-1.011-2.684-.744-2.59-.368-4.238 1.144-4.923 1.572-.714 3.04.432 4.409 3.441.681 1.497.555 3.479-.365 5.929zM254.84 143.599c1.337 5.937 6.331 7.932 14.978 5.98 4.024-.907 7.059-1.977 9.089-3.208.284.451.522.909.736 1.366.33.699.583 1.401.741 2.108.327 1.45-.485 3.891-3.639 8.733-.354.543-.725 1.105-1.143 1.711-1.435 2.097-2.69 4.027-3.963 5.759-2.527 3.444-5.116 6.096-9.309 7.613-4.556 1.646-10.065 2.651-13.706-1.777-3.86-4.697-4.744-8.209-4.984-9.174-.293-1.171-.92-3.765-.933-3.821-.008-.037-.015-.057-.021-.087-.031-.129-.05-.216-.05-.216l-1.349.531c0 0-1.184 7.639 1.349 14.829 2.002 5.678 6.527 9.419 10.978 10.799.003 0 .003 0 .003 0 .271.083.544.16.817.228.05.009.1.022.148.034.24.058.475.108.714.15.117.022.235.035.354.053.177.027.354.056.532.072.31.034.615.058.918.061.612.015 1.209.007 1.791-.016.258-.009.5-.037.756-.055.306-.019.62-.035.919-.069.326-.034.641-.082.96-.13.2-.029.407-.055.605-.09.366-.064.717-.143 1.066-.224.132-.031.272-.057.404-.089.385-.097.759-.209 1.126-.325.084-.026.169-.05.25-.079.398-.13.781-.275 1.158-.428.045-.02.093-.037.139-.057.399-.166.784-.345 1.16-.535.02-.011.042-.021.061-.032.393-.2.772-.411 1.142-.636.002-.003.007-.005.008-.006l.001-.002c3.272-1.991 5.756-4.957 7.898-8.583.106-.18.217-.354.324-.538 2.176-3.81 3.681-7.45 4.722-10.621.377-1.146.699-2.236.963-3.243 0 0 0 0 0-.001.001-.005.003-.01.003-.013.54-2.041.867-3.761 1.066-5.041.003-.022.007-.043.01-.066.027-.185.052-.364.078-.532.003-.016.006-.034.006-.05.064-.459.106-.838.135-1.131.048-.454.064-.704.064-.704l-.003.003c0-.001 0-.001 0-.001.258-3.14.167-5.721-.28-7.731-.003-.015-.003-.032-.006-.048 0 0 1.944-.657 5.239-3.634 4.066-3.673 5.148-4.938 7.415-8.39 1.211-1.844 1.687-2.644 1.687-2.644 0 0 5.021 4.092 10.265 5.479 5.242 1.389 7.917.981 10.727-1.679 2.81-2.661 2.126-8.923 1.906-11.265-.387-4.104-2.191-9.733-7.895-10.747-10.65-1.893-16.03 4.92-16.03 4.92 0 0-5.19-8.211-8.103-13.958-2.912-5.754-5.287-10.8-5.287-10.8 0 0 4.94.211 5.586.324.647.116 2.181.106 1.703-1.126-.479-1.232-5.918-7.265-9.638-10.01-3.718-2.749-7.32-5.026-8.261-5.373-.944-.35-.883-.232-1.705.889-.817 1.123-2.262 6.184-1.788 7.128.477.939 3.782 3.099 5.793 5.561 2.01 2.458 8.006 13.488 10.561 18.419 2.555 4.929 6.948 13.317 6.948 13.317 0 0-.35.752-2.937 4.854-4.414 7-9.163 9.121-9.163 9.121-2.693-3.389-5.5-6.105-8.423-8.145-3.28-2.259-6.059-3.135-8.329-2.623-3.007.678-5.496 2.933-7.481 6.767-2.075 4.093-2.6 8.407-1.576 12.944zm56.157-22.64c3.381.61 6.26 4.973 6.26 4.973 0 0-3.987.453-7.914-.021-3.933-.471-6.543-2.093-6.543-2.093 0 0 3.23-3.752 8.197-2.859zm-47.388 13.393c1.604-.362 3.518.161 5.73 1.563.812.511 1.659 1.134 2.552 1.882-1.804.867-3.514 1.485-5.129 1.848-1.057.238-1.998.383-2.832.444-2.687.205-4.222-.499-4.587-2.117-.382-1.687 1.04-2.892 4.266-3.62zM696.201 135.528c2.058-.703 4.379-1.693 6.976-2.987 1.237 3.978 2.27 7.648 3.091 11.001l1.108.345c5.066-1.696 8.058-3.101 8.97-4.201.242-.289-.174-2.292-1.238-6.019-1.065-3.721-1.758-5.715-2.082-5.984l-1.111.056-6.704 3.046c-.113-1.183-.625-3.332-1.542-6.439-.925-3.106-1.527-4.786-1.82-5.027l-1.116.066-8.379 3.781-.479.582c1.253 3.766 2.319 7.578 3.222 11.431.102.475.468.589 1.104.349z" fill="#ffdf00"/><path d="M680.301 208.828c1.739-.594 3.705-1.437 5.907-2.527 1.047 3.365 1.918 6.476 2.613 9.313l.94.293c4.29-1.437 6.819-2.625 7.592-3.557.205-.245-.145-1.941-1.045-5.097-.905-3.151-1.489-4.841-1.765-5.065l-.942.045-5.677 2.582c-.097-1.003-.526-2.824-1.307-5.455-.781-2.63-1.288-4.051-1.541-4.257l-.942.056-7.093 3.203-.409.491c1.06 3.189 1.962 6.418 2.729 9.68.09.4.4.498.94.295zM671.823 164.718c1.387 1.597 6.515 5.87 11.928 5.711 5.412-.158 9.712-1.908 9.712-1.908 0 0-2.458 3.411-3.832 6.262-1.147 2.128-2.847 6.281-2.66 13.29.089 3.311 1.59 5.582 3.317 8.237l.003.005c1.592 2.445 3.896 4.472 6.478 6.437 4.275 3.254 10.611 8.338 18.712 9.456 8.102 1.116 13.057-3.275 15.621-7.098 2.564-3.826 7.253-11.259 7.253-11.259l-10.702 2.178-4.036 8.999c0 0-.745.46-7.425-2.105-6.599-2.533-12.429-8.039-15.082-11.058-6.173-7.02-1.072-15.088-1.072-15.088l1.196-2.572.041-.006c.415-.883.963-1.841 1.643-2.896.537-.83 1.157-1.721 1.854-2.676 4.106-5.632 5.984-7.753 5.984-7.753 0 0 1.181.053 4.427-.187 3.243-.237 4.67-.744 6.202-1.471 1.532-.727 2.737-2.453 2.737-2.453l-8.585-1.796 7.765-7.753c0 0-4.568-1.306-7.492-1.34-2.931-.029-4.697.662-5.354 1.358-.657.697-4.704 5.061-4.704 5.061 0 0-8.384-1.77-18.478-1.042-7.411.532-13.042 2.45-15.635 5.556-2.599 3.107-1.986 5.414.184 7.911zm7.563-6.42c1.542-1.284 5.88-1.55 10.418-1.328 6.068.289 10.883 1.52 10.883 1.52l-3.996 5.216c0 0-5.012 1.993-11.901-.1-2.422-.735-6.621-4.299-5.404-5.308zM413.307 117.984c-3.054-2.062-4.78-3.092-5.181-3.09l-.776.722-3.022 6.321c-.806-.793-2.492-2.048-5.063-3.752-2.576-1.701-4.039-2.56-4.402-2.557l-.773.73-3.797 7.884.003.718c3.217 1.981 6.328 4.108 9.341 6.365.366.282.703.142 1.02-.422 1.071-1.767 2.155-3.915 3.262-6.444 3.336 2.143 6.331 4.19 8.982 6.131l1.016-.424c2.657-4.336 3.979-7.188 3.971-8.551.001-.358-1.528-1.565-4.581-3.631zM348.164 62.758c.366.28.704.14 1.02-.423 1.071-1.768 2.157-3.912 3.264-6.444 3.335 2.146 6.331 4.191 8.981 6.133l1.017-.425c2.658-4.335 3.982-7.188 3.972-8.547 0-.361-1.528-1.569-4.583-3.634-3.053-2.061-4.778-3.091-5.179-3.088l-.777.72-3.023 6.319c-.807-.791-2.494-2.047-5.065-3.75-2.572-1.701-4.039-2.558-4.401-2.558l-.773.731-3.797 7.882.006.72c3.213 1.981 6.325 4.107 9.338 6.364zM234.449 133.542c.293-.144.815-.606 1.566-1.377 4.794-4.981 7.407-7.758 7.852-8.332 2.171-2.585 4.32-5.907 6.457-9.957 1.872-3.567 3.117-7.125 3.741-10.672 2.12.191 3.566.523 4.341 1.003.469-2.932.485-4.849.04-5.759-.773-.483-2.255-.801-4.449-.951-.364-2.8-1.017-5.167-1.954-7.099-1.045-2.149-2.273-3.154-3.689-3.006-1.667.18-3.111 1.762-4.324 4.736-1.218 2.979-1.255 5.633-.125 7.963.939 1.935 3.533 2.958 7.768 3.059-1.26 3.898-3.716 8.675-7.376 14.323-3.083 4.701-6.157 9.362-9.224 14.005-.703 1.152-1 1.835-.894 2.054zM245.858 96.17c-.181-.366-.013-.905.493-1.622.506-.715.96-1.179 1.363-1.375.838-.406 1.653-.074 2.436.983.696.97 1.135 2.065 1.321 3.28-3.335-.001-5.204-.425-5.613-1.266zM771.334 233.935l-.03.271c.114.303.526.863 1.23 1.679 4.538 5.214 7.077 8.063 7.606 8.557 2.383 2.391 5.505 4.825 9.354 7.307 3.388 2.178 6.822 3.734 10.297 4.665-.379 2.098-.833 3.507-1.379 4.237 2.88.725 4.787.909 5.733.548.548-.729.994-2.175 1.339-4.348 2.818-.116 5.233-.557 7.244-1.321 2.23-.852 3.341-1.988 3.316-3.41-.03-1.677-1.479-3.254-4.333-4.725-2.861-1.477-5.505-1.745-7.923-.826-2.01.763-3.257 3.26-3.73 7.47-3.777-1.602-8.319-4.467-13.619-8.609-4.41-3.483-8.784-6.959-13.14-10.422-1.084-.801-1.738-1.158-1.965-1.073zm36.187 14.925c.382-.145.902.063 1.574.635.667.569 1.086 1.059 1.247 1.479.333.868-.074 1.653-1.194 2.339-1.029.606-2.156.951-3.378 1.026.295-3.322.877-5.145 1.751-5.479zM803.576 296.474l-.03.272c.114.304.532.865 1.23 1.682 4.54 5.21 7.077 8.061 7.608 8.554 2.386 2.389 5.505 4.826 9.354 7.307 3.388 2.179 6.823 3.735 10.3 4.665-.378 2.099-.834 3.507-1.381 4.238 2.879.723 4.785.909 5.733.548.547-.729.996-2.175 1.339-4.348 2.819-.118 5.232-.559 7.239-1.322 2.238-.853 3.345-1.99 3.322-3.411-.034-1.675-1.479-3.252-4.335-4.725-2.863-1.476-5.503-1.746-7.923-.827-2.011.766-3.257 3.262-3.732 7.472-3.772-1.6-8.315-4.469-13.619-8.61-4.408-3.484-8.782-6.959-13.135-10.421-1.087-.8-1.741-1.159-1.97-1.074zm36.191 14.927c.382-.145.898.066 1.572.633.67.57 1.087 1.062 1.246 1.48.331.868-.07 1.653-1.191 2.34-1.029.604-2.157.951-3.383 1.026.295-3.319.878-5.147 1.756-5.479zM453.919 36.016c.313-.733.365-1.178.154-1.334-.154-.103-.65 0-1.491.31-21.456 7.943-42.02 15.563-61.702 22.872-1.253 2.508-2.141 4.826-2.665 6.971 24.278-9.817 45.421-18.039 63.433-24.665.574-.472 1.329-1.854 2.271-4.154zM139.779 184.097c.074-.741-.371-2.252-1.333-4.543-.296-.739-.575-1.09-.834-1.052-.182.035-.462.46-.836 1.274-9.551 20.787-18.701 40.717-27.45 59.803.886 2.66 1.904 4.928 3.046 6.811 10.225-24.106 19.359-44.871 27.407-62.293zM70.936 358.464c.103-26.187.49-48.869 1.172-68.048-.219-.71-1.213-1.933-2.986-3.669-.559-.57-.951-.786-1.176-.651-.154.103-.248.604-.277 1.497-.764 22.865-1.492 44.785-2.178 65.767 1.849 2.109 3.663 3.808 5.445 5.104z" fill="#ffdf00"/><path d="M739.642 186.545c.915.938 2.373 1.019 4.367.247 1.524-.625 2.794-1.429 3.81-2.423.542-.53 1.138-1.517 1.774-2.949 1.085-2.378 1.64-3.607 1.67-3.686.313-.614.801-1.314 1.448-2.101.472-.562.657-.897.558-1-.129-.079-.528-.043-1.195.102-.984.195-1.864.67-2.642 1.431-1.36 1.326-2.602 3.959-3.732 7.91-.904.526-1.713.428-2.427-.303-1.655-1.694-1.389-3.602.808-5.743.751-.733 1.741-2.068 2.962-3.995 1.223-1.927 1.716-3.007 1.49-3.246-.127-.125-.599-.046-1.417.237-.811.284-1.349.559-1.606.811-.288.28-.893 1.145-1.813 2.603-.914 1.457-1.623 2.423-2.115 2.906-.862.837-1.909 1.261-3.144 1.271-1.233.01-2.198-.337-2.885-1.042-.531-.544-.575-1.394-.126-2.545.401-.996.983-1.867 1.732-2.6.368-.358.856-.719 1.464-1.084.61-.367 1.277-.905 2.011-1.614 1.406-1.377 1.932-2.243 1.57-2.61-.275-.284-.979-.408-2.115-.375-1.26.068-2.244.438-2.951 1.126-.439.428-.543.871-.303 1.326l-.032 1.06-3.206 3.126c-1.353 1.321-2.158 2.688-2.408 4.102-.193 1.208.052 2.16.738 2.866 1.831 1.877 4.393 1.893 7.686.058-1.429 2.6-1.415 4.651.029 6.134zM408.439 66.128c-.123-2.307-.485-3.442-1.083-3.407-.464.024-1.121.549-1.969 1.577-.919 1.163-1.352 2.318-1.292 3.477.035.722.349 1.152.936 1.295l.912.848.278 5.25c.118 2.216.703 3.985 1.758 5.3.917 1.104 1.947 1.628 3.099 1.569 3.072-.166 5.071-2.415 5.999-6.74 1.199 3.272 3.016 4.849 5.443 4.72 1.539-.081 2.735-1.305 3.597-3.663.63-1.827.899-3.57.811-5.237-.047-.894-.459-2.178-1.229-3.848-1.261-2.803-1.917-4.24-1.962-4.326-.3-.754-.543-1.727-.733-2.911-.135-.851-.284-1.271-.455-1.261-.17.051-.448.432-.836 1.132-.588 1.017-.849 2.167-.781 3.441.118 2.225 1.484 5.361 4.093 9.417-.232 1.205-.949 1.843-2.143 1.907-2.777.146-4.257-1.564-4.446-5.158-.064-1.231-.479-3.14-1.234-5.711-.754-2.567-1.328-3.843-1.712-3.822-.211.011-.508.486-.89 1.432-.375.933-.549 1.622-.528 2.044.026.471.322 1.674.897 3.617.573 1.933.881 3.309.925 4.117.076 1.407-.359 2.663-1.308 3.762-.947 1.094-1.998 1.675-3.153 1.736-.894.047-1.678-.57-2.344-1.86-.57-1.125-.891-2.31-.954-3.542-.034-.603.024-1.312.172-2.129.153-.827.197-1.832.132-3.026zM81.382 331.001c.681.23 1.197.102 1.548-.392l1.121-.533 4.981 1.688c2.104.712 3.966.823 5.577.332 1.366-.443 2.232-1.207 2.605-2.3.984-2.913-.363-5.601-4.039-8.069 3.482.1 5.624-1.002 6.401-3.306.497-1.458-.198-3.025-2.068-4.696-1.466-1.263-2.983-2.16-4.565-2.698-.847-.285-2.19-.379-4.032-.282-3.067.134-4.645.209-4.743.219-.812 0-1.806-.134-2.972-.395-.841-.192-1.29-.209-1.343-.05-.013.177.238.578.744 1.197.725.923 1.698 1.591 2.906 2.004 2.109.713 5.526.605 10.263-.314 1.033.662 1.361 1.564.978 2.696-.893 2.634-3.03 3.374-6.437 2.22-1.17-.398-3.096-.719-5.762-.972-2.663-.251-4.064-.19-4.186.174-.071.201.266.652.997 1.353.731.697 1.305 1.115 1.705 1.25.449.151 1.675.322 3.694.506 2.009.184 3.4.411 4.167.668 1.334.453 2.339 1.323 3.007 2.611.666 1.284.817 2.476.445 3.571-.285.846-1.152 1.344-2.595 1.485-1.256.113-2.478-.027-3.646-.425-.57-.192-1.207-.511-1.916-.949-.706-.448-1.627-.859-2.758-1.241-2.188-.744-3.375-.83-3.566-.256-.148.44.095 1.245.734 2.412.743 1.287 1.657 2.12 2.755 2.492zM475.291 106.57c.227-.532.264-.852.11-.966-.11-.074-.47 0-1.071.229-15.528 5.743-30.409 11.254-44.649 16.539-.905 1.816-1.546 3.498-1.925 5.045 17.565-7.101 32.859-13.05 45.892-17.852.411-.337.961-1.331 1.643-2.995zM773.325 182.537c.57-.102.858-.247.868-.433 0-.137-.258-.396-.779-.778-13.307-9.841-26.069-19.276-38.291-28.294-2.016.235-3.773.62-5.274 1.15 15.563 10.808 28.916 20.347 40.068 28.621.511.161 1.644.073 3.408-.266zM539.15 83.327c13.029 1.064 20.861 1.232 23.503.511 4.131-1.195 8.913-3.683 14.349-7.462 4.86-3.38 7.509-5.708 7.96-6.982 1.116-3.151-5.145-7.143-18.774-11.971-4.275-1.514-7.044-2.382-8.301-2.604-3.435-.606-6.136-.095-8.098 1.534l-6.72 5.596c-.871.741-1.357 1.266-1.464 1.559-.137.392.891.923 3.092 1.593 4.546 1.385 6.844 2.094 6.896 2.11 11.812 4.184 17.438 7.056 16.881 8.633l-.507.482c-1.48.586-6.169 1.479-14.065 2.664-8.233 1.186-13.319 2.101-15.259 2.737-1.696.57-2.651.919-2.869 1.068-.052.145 1.075.322 3.376.532zM78.009 530.003c4.193-1.019 7.315-4.072 7.051-8.471l.139-.022c2.399 5.529 8.428 6.412 13.854 5.465 7.861-1.373 11.589-7.112 10.228-14.903l-2.805-16.065-49.658 8.669 1.066 6.121 22.118-3.859 1.445 8.276c.546 3.129.785 6.958-5.946 8.635l-7.648 1.766c-2.41.563-6.012 1.694-6.872 2.919l1.287 7.371c.649-1.617 1.883-2.765 7.33-4.001zm24.528-27.002l1.274 7.304c.995 5.702-1.494 9.506-6.363 10.354-9.598 1.676-10.751-4.931-11.381-8.547l-1.058-6.051z" fill="#ffdf00"/><path transform="translate(.152 -.109)" fill="#ffdf00" d="M114.246 556.768L119.556 555.31 112.659 530.191 64.053 543.537 71.175 569.473 76.486 568.016 71.009 548.069 88.436 543.284 93.389 561.325 98.697 559.865 93.746 541.826 108.994 537.64z"/><path d="M98.867 582.936c3.003 7.995 10.002 11.774 18.792 8.472 13.548-5.089 9.601-15.595 8.061-19.691l-4.519-12.027-47.179 17.723 2.184 5.817 19.955-7.499zm19.761-15.644l2.458 6.54c2.158 5.751-.292 9.461-5.447 11.397-6.278 2.358-10.525-.117-12.116-4.346l-2.606-6.938zM145.448 615.569l-2.737-5.576-31.811 15.615c-6.335 3.11-10.63 3.016-13.554-2.94-2.707-5.514-.659-9.193 5.994-12.459l31.813-15.614-2.737-5.577-31.811 15.615c-9.317 4.571-12.27 11.213-7.822 20.274 4.355 8.871 12.173 10.539 20.854 6.277zM139.24 650.72l.121-.074c3.56 3.191 8.912 3.107 12.81.685 8.335-5.179 7.62-12.216 4.156-17.793l-8.161-13.135-42.821 26.607 7.23 11.634c5.553 8.936 12.146 11.655 20.842 6.252 5.277-3.278 7.841-8.114 5.823-14.176zm7.887-22.354l3.689 5.936c3.204 5.157 2.006 8.979-2.434 11.736-6.597 4.1-10.265-.603-11.645-2.822l-3.762-6.056zm-17.139 31.012c-4.137 2.571-9.108 3-12.573-2.579l-4.472-7.194 16.072-9.987 3.913 6.297c2.869 4.619 2.938 9.812-2.94 13.463z" fill="#ffdf00"/><path transform="translate(.152 -.109)" fill="#ffdf00" d="M134.656 681.86L170.435 654.745 166.683 649.795 126.518 680.234 142.633 701.498 147.021 698.172z"/><path transform="rotate(-40.701)" fill="#ffdf00" d="M-348.943 631.304H-298.544V637.518H-348.943z"/><path d="M198.152 723.534c9.008-8.964 16.924-20.127 7.114-29.986-9.811-9.86-21.013-1.999-30.021 6.966-9.008 8.963-16.924 20.127-7.114 29.985 2.541 2.552 5.232 3.957 7.927 4.364l.333 6.838 5.042-.137-.283-6.89c5.945-1.234 11.847-6.012 17.002-11.14zm-17.52-.992l-5.144.237.333 6.54c-1.395-.303-2.793-1.105-4.085-2.407-6.078-6.104-.167-13.578 8.09-21.795 8.257-8.218 15.761-14.091 21.834-7.984 6.077 6.105.167 13.579-8.09 21.796-4.552 4.531-8.857 8.315-12.655 9.904zM242.536 727.634l-4.813-3.931-22.427 27.447c-4.469 5.469-8.409 7.168-13.551 2.971-4.755-3.888-4.425-8.086.266-13.825l22.426-27.448-4.811-3.933-22.427 27.447c-6.566 8.038-6.489 15.305 1.331 21.695 7.653 6.255 15.458 4.516 21.578-2.976z" fill="#ffdf00"/><path transform="translate(.152 -.109)" fill="#ffdf00" d="M244.292 783.283L227.116 771.759 237.184 756.753 252.717 767.176 255.787 762.602 240.251 752.181 249.063 739.051 265.533 750.103 268.604 745.531 246.972 731.017 218.891 772.868 241.221 787.854z"/><path transform="rotate(-62.446)" fill="#ffdf00" d="M-587.515 604.426H-537.1129999999999V610.6360000000001H-587.515z"/><path d="m 318.881,784.948 c 3.581,-8.53 1.498,-14.684 -7.297,-18.535 -11.708,-5.126 -17.227,2.553 -19.096,6.822 -7.421,16.943 17.688,18.922 11.966,31.986 -2.152,4.916 -7.063,6.621 -11.589,4.638 -8.341,-3.653 -6.231,-9.356 -3.963,-14.532 l -5.693,-2.492 c -4.305,9.832 -3.572,16.781 7.229,21.513 6.531,2.859 15.689,3.245 20.362,-7.425 7.393,-16.881 -17.8,-18.664 -12.109,-31.664 2.154,-4.915 6.131,-6.256 10.917,-4.16 5.434,2.38 5.706,6.507 3.583,11.357 z" fill="#ffdf00"/><path transform="translate(.152 -.109)" fill="#ffdf00" d="M335.289 777.021L329.395 775.058 313.48 822.889 338.802 831.313 340.54 826.09 321.114 819.627z"/><path d="m 367.164,786.32 -25.644,45.767 6.325,1.48 6.794,-12.622 15.673,3.668 0.354,14.294 6.324,1.479 -1.716,-52.168 z m -10.129,29.967 12.354,-22.123 0.139,0.032 0.706,25.179 z" fill="#ffdf00"/><path transform="translate(.152 -.109)" fill="#ffdf00" d="M395.028 798.785L395.168 798.801 401.254 843.834 407.427 844.539 423.505 802.034 423.646 802.05 418.65 845.818 424.823 846.524 430.539 796.44 420.156 795.259 405.595 833.814 405.455 833.796 399.956 792.951 389.575 791.768 383.859 841.85 390.032 842.555z"/><path transform="rotate(-178.441)" fill="#ffdf00" d="M-464.953 -834.279H-458.741V-783.881H-464.953z"/><path d="M483.024 820.367c-.563-12.695-3.487-26.066-17.385-25.449-13.896.615-15.626 14.192-15.062 26.89.562 12.695 3.489 26.066 17.383 25.449 3.599-.16 6.448-1.203 8.563-2.924l5.282 4.359 3.295-3.821-5.286-4.431c3.091-5.226 3.532-12.808 3.21-20.073zm-7.687 16.313l-4.844-4.023-3.286 3.961 5.06 4.158c-1.164.827-2.696 1.32-4.531 1.401-8.605.382-10.153-9.02-10.667-20.659-.518-11.637.191-21.141 8.797-21.523 8.605-.38 10.153 9.021 10.671 20.66.282 6.42.182 12.149-1.2 16.025zM515.916 790.336l-6.146.911 5.193 35.051c1.034 6.981-.362 11.043-6.925 12.014-6.075.9-8.955-2.168-10.041-9.501l-5.193-35.052-6.146.912 5.195 35.05c1.519 10.265 6.944 15.098 16.929 13.619 9.775-1.448 13.742-8.387 12.325-17.952z" fill="#ffdf00"/><path transform="translate(.152 -.109)" fill="#ffdf00" d="M547.9 788.32L546.579 782.976 521.289 789.219 533.369 838.157 559.484 831.712 558.163 826.365 538.08 831.322 533.748 813.775 551.913 809.291 550.595 803.946 532.431 808.43 528.64 793.075z"/><path d="m 579.375,771.29 -12.486,5.097 19.044,46.668 13.074,-5.334 c 12.812,-5.227 11.031,-17.997 6.231,-29.763 -5.257,-12.876 -11.354,-22.588 -25.863,-16.668 z m 16.403,42.259 -6.013,2.453 -15.204,-37.257 6.014,-2.455 c 10.458,-4.268 14.994,5.168 18.675,14.188 3.415,8.367 6.465,19.017 -3.472,23.071 z" fill="#ffdf00"/><path transform="translate(.152 -.109)" fill="#ffdf00" d="M626.057 754.936L623.484 750.066 600.446 762.233 623.991 806.813 647.781 794.247 645.209 789.379 626.913 799.041 618.473 783.058 635.018 774.318 632.445 769.448 615.899 778.188 608.514 764.203zM676.256 776.168L649.807 740.943 649.919 740.857 685.286 769.387 690.256 765.656 672.725 723.735 672.838 723.65 699.287 758.874 704.255 755.144 673.991 714.84 665.637 721.113 681.554 759.124 681.441 759.209 649.379 733.32 641.025 739.594 671.289 779.898z"/><path d="M685.614 703.766l24.146 46.569 4.712-4.472-6.812-12.608 11.675-11.08 12.137 7.559 4.71-4.472-44.525-27.229zm7.878 2.354l21.423 13.243-9.831 9.33-11.695-22.476zM748.175 688.783l-26.769-23.22-4.069 4.692 26.768 23.22c5.332 4.625 6.915 8.615 2.567 13.629-4.024 4.638-8.208 4.184-13.808-.672l-26.768-23.22-4.069 4.692 26.769 23.22c7.837 6.798 15.101 6.934 21.717-.692 6.476-7.466 4.966-15.313-2.338-21.649zM776.27 661.979l-7.278-4.624c-3.68-2.253-8.045-2.314-10.976.977L757.9 658.25c2.23-5.602-1.399-10.497-5.896-13.675-6.515-4.604-13.213-3.198-17.776 3.259l-9.409 13.319 41.167 29.084 3.584-5.072-18.335-12.955 4.849-6.86c1.833-2.596 4.378-5.465 10.313-1.876l6.646 4.176c2.099 1.313 5.439 3.065 6.915 2.813l4.319-6.111c-1.605.68-3.289.615-8.007-2.373zm-25.642 2.282l-3.543 5.017-14.53-10.267 4.278-6.054c3.34-4.728 7.791-5.645 11.826-2.793 7.958 5.621 4.089 11.099 1.969 14.097z" fill="#ffdf00"/><path transform="rotate(-148.728)" fill="#ffdf00" d="M-1014.934 -153.738H-964.529V-147.525H-1014.934z"/><path transform="translate(.152 -.109)" fill="#ffdf00" d="M803.061 630.838L763.273 610.036 769.16 598.775 764.281 596.226 749.662 624.188 754.541 626.739 760.396 615.54 800.182 636.342z"/><path d="m 767.785,587.809 40.79,32.99 2.524,-5.983 -11.294,-8.826 6.255,-14.83 14.147,2.063 2.524,-5.986 -51.709,-7.101 z m 8.161,-1 24.937,3.547 -5.268,12.488 -19.724,-15.906 z" fill="#ffdf00"/><path transform="translate(.152 -.109)" fill="#ffdf00" d="M826.517 575.154L787.497 563.226 787.537 563.089 831.283 559.562 833.782 551.393 785.58 536.655 783.765 542.597 824 554.896 823.959 555.031 778.854 558.664 776.5 566.359 824.699 581.096z"/><path transform="rotate(-167.22)" fill="#ffdf00" d="M-935.17 -342.826H-884.771V-336.61600000000004H-935.17z"/><path transform="translate(.152 -.109)" fill="#ffdf00" d="M799.36 492.562L793.923 491.691 789.806 517.412 839.573 525.376 843.822 498.821 838.386 497.952 835.117 518.373 817.273 515.518 820.23 497.047 814.794 496.177 811.838 514.647 796.225 512.147z"/><path d="m 659.8,468.418 c -0.554,0 -1.111,-0.017 -1.688,-0.029 h -0.007 c -0.01,0 -0.02,0 -0.029,0 l -0.022,0.635 c 0.726,0.048 1.44,0.079 2.155,0.079 0.954,0 1.876,-0.055 2.797,-0.136 14.047,-0.62 27.962,-5.26 39.478,-13.541 2.748,0.157 5.893,0.699 7.384,-1.719 2.313,-3.807 -1.26,-6.977 -5.49,-5.291 -1.807,0.796 -3.363,2.915 -3.016,5.102 -0.261,0.135 -0.519,0.264 -0.767,0.397 -0.02,0 -0.02,0 -0.029,0 0.01,0 0.01,0.005 0.01,0.005 -6.64,3.465 -12.842,7.628 -19.979,9.841 -5.886,1.684 -11.634,4.021 -17.72,4.582 -1.021,0.046 -2.042,0.075 -3.077,0.075 z" fill="#ffdf00"/><path d="M777.739 547.961c-5.042-.006-9.221 1.687-12.317 5.285-2.612 2.943-7.413 7.549-11.934 11.39-2.242 1.915-4.433 3.673-6.211 4.911-1.779 1.254-3.255 2.018-3.793 1.993-1.933 0-4.397-.434-7.107-1.113-.093-.02-.17-.034-.267-.06-.165-.05-.339-.112-.506-.167-12.172-4.036-30.959-13.46-37.328-21.376-4.002-5.08-8.6-6.491-12.378-6.491-4.508 0-7.871 1.95-7.9 1.981l-.042.023-49.597 56.83c-2.361-6.14-4.556-12.035-6.563-17.6 1.211-8.943 2.433-17.814 3.209-23.503 2.081-15.274 15.322-26.875 22.697-32.766v-.013c2.442-2.018 8.377-3.489 15.197-4.384 6.837-.903 14.569-1.295 20.794-1.295 5.01 0 9.021.263 10.667.668 3.425.859 6.94 2.722 13.929 2.722 4.832 0 11.314-.883 20.684-3.567 8.538-2.463 20.955-12.199 27.55-18.085 7.936-8.026 13.062-15.658 13.573-16.432l.02-.015-.01-.011.039-.046-.477-.4c-3.554 3.544-11.132 9.087-15.99 12.343-.448.303-.866.581-1.267.837-.1.051-.203.091-.303.141-4.797 2.307-10.097 3.777-16.276 3.777-3.048 0-6.334-.359-9.836-1.113-9.044-1.875-18.384-2.495-26.909-2.495-10.887 0-20.526 1.021-26.68 1.854-11.009 1.474-27.276 5.082-27.276 5.082l-.167.031-13.538 27.311c1.012-5.992 2.213-19.788 3.254-33.059 1.163-15.056 2.085-29.335 2.165-30.446.625-1.579 3.386-4.605 7.256-8.219 11.672-10.912 33.539-27.568 39.521-31.34 8.062-5.115 23.494-18.416 23.494-18.416l-.258-.551c-13.171 2.075-40.792 21.671-56.904 33.807 3.712-4.999 8.815-9.247 9.917-16.121l-.586-.208c4.526-5.975 10.213-10.862 12.545-18.224.21-.435-.216-1.269-.634-1.269-4.872-1.062-10.155 0-11.831 4.431-2.136 5.066.416 10.993-1.289 16.701.381-.551.793-1.083 1.195-1.619-3.56 5.951-8.477 11.181-11.341 17.847-2.58 1.965-4.784 3.673-6.491 5.007l-.052-.502c-.007-1.855.715-3.716 1.721-4.868 5.943-5.965 9.546-12.958 14.392-19.479l.187-.272-.286-.19c-1.025-.614-2.095-.872-3.148-.872-2.329 0-4.584 1.26-6.488 2.574l-.022.01c-2.211 1.719-2.629 3.926-2.629 6.105 0 1.348.161 2.724.161 4.053 0 1.514-.2 2.974-1.006 4.3v.005c-1.675 2.569-3.286 4.933-3.482 7.866v.064c-.01.162-.039.322-.039.491l.007.112-.007.1c0 .322.029.656.068.989-1.251.988-2.175 1.716-2.71 2.132-.029-2.569-.168-12.406-.319-22.798-.157-12.104-.315-24.948-.315-27.896 0-1.861.071-3.28.071-4.387 0-1.197-.071-2.046-.419-2.711-.367-.678-1.044-1.026-1.994-1.246-.538-.143-1.512-.188-2.9-.188-7.48 0-25.945 1.664-25.945 1.664l-.199.027-24.167 73.525.516.332 26.561-23.861c.734 9.116 1.024 18.387 1.024 27.385 0 16.794-1.005 32.536-2.026 44.105-.764 8.804-1.521 15.13-1.837 17.657-1.546-3.852-7.336-16.984-20.951-34.854-16.132-21.45-36.14-22.105-41.242-22.103-5.13 0-14.006 1.485-21.438 3.585-6.969 2.094-17.072 13.499-18.216 14.784l-7.353-.849-.1.079c-4.607 3.107-6.016 11.162-6.044 11.191l-.042.179 4.42 3.582c-3.08 9.128-3.882 17.54-3.882 23.852 0 5.817.673 9.848.893 11.028-2.243.169-5.629 1.483-5.648 1.483l-.209.089v.226c.032 3.721 3.853 14.013 3.853 14.049l.101.327 5.687-2.953c.725 2.148 3.512 5.702 6.183 8.898 2.88 3.395 5.619 6.289 5.619 6.289 8.357 8.754 18.689 11.73 28.101 11.717 10.558 0 20.007-3.707 24.324-7.231 9.302-7.523 10.761-15.717 10.761-20.038 0-1.431-.147-2.438-.238-2.869 1.904-1.09 3.235-4.806 4.237-8.348 1.053-3.692 1.63-7.188 1.63-7.188l-.319-.069-.296-.053c-.348 1.841-1.837 2.654-3.357 3.146-.754.263-1.466.408-2.052.561l-.735.282-.051.076c-.345-.556-.974-1.539-2.104-3.32-2.004-3.161-4.874-4.134-7.284-4.134-1.756 0-3.276.49-4.149 1.081-7.591 4.7-13.004 6.401-16.802 6.401-3.992-.013-6.254-1.796-7.665-4.019-1.408-2.229-1.885-4.915-2.104-6.61-.138-.953-.257-2.064-.257-3.267.048-7.504 3.772-18.838 24.934-21.945 1.05-.164 2.062-.241 3.086-.241 11.573-.012 22.272 9.834 30.063 19.754 3.872 4.979 7.029 9.927 9.221 13.649 2.036 3.474 3.205 5.841 3.356 6.145.487 4.433.726 9.732.726 15.572 0 19.291-2.346 44.521-4.707 64.943-1.18 10.204-2.362 19.202-3.235 25.652-.625 4.63-1.102 7.926-1.317 9.424l-39.448-72.813-17.836 10.555c-18.528 13.226-50.808 76.383-50.827 76.397l-.31.625.664-.163c1.659-.432 6.037-3.817 11.934-8.72 16.634-13.831 44.444-39.593 47.521-42.452l44.349 77.995-.734 20.207c6.089-2.991 12.056-6.181 17.91-9.553 2.223-14.63 10.944-81.621 11.341-84.743l12.326-8.531c2.842 9.395 5.152 17.94 7.011 25.504 2.996 12.214 4.833 21.886 5.922 28.505.705 4.384 1.54 10.463 1.885 13.137 6.25-4.966 12.291-10.193 18.139-15.617-9.141-17.743-19.108-39.279-26.164-56.525l61.317-45.639c3.238 2.69 11.831 5.697 19.792 8.12 3.473 1.056 12.211 3.399 15.172 4.193.073.02.192.05.264.069h.029c.873.124 1.707.188 2.542.188 15.026-.05 25.349-19.101 30.72-25.246 7.494-8.412 16.934-9.55 21.409-9.55 1.389 0 2.304.126 2.542.141h.067l.139-.606c-4.208-1.456-8.067-2.225-11.492-2.225zM651.098 510.145c0 0 35.089-5.29 48.418-6.582 13.944-1.459 26.412 6.582 38.253 6.582 0 0-17.759 10.357-25.788 10.357-8.028 0-21.348-4.451-31.483-4.451-5.925 0-25.787 2.948-30.015 5.922zm-63.176 179.846l-.638 4.443-51.353-87.505 16.07-6.555 38.233 79.26-21.966-35.3-2.333 1.493zM558.533 504.219c-3.603-3.604-13.738 3.797-13.738 3.797 0 0 2.748-4.453-2.948-8.229-3.592-2.128-11.83 2.947-16.279 8.229-3.812 4.446-7.194 12.486-4.434 15.433 2.958 2.74 6.757 2.126 6.757 2.126l-2.968 5.9c0 0-6.55-2.324-5.915 5.921.415 4.222 6.56 3.589 6.56 3.589l2.961 2.972c0 0-5.271 10.774 0 13.096 13.318 5.922 18.39-6.555 18.39-6.555 5.084-3.59 13.094-7.385 13.094-7.385 5.925 3.795 7.403 13.3 5.3 19.861-2.333 6.546-19.882 17.542-33.807 16.917-13.967-.858-25.797-13.95-30.888-21.995-5.055-8.028-2.957-21.984-2.957-21.984 0 0 6.769 1.484 7.413-6.761.844-10.361-5.094-9.503-5.094-9.503 2.136-13.111 11.644-20.517 11.644-20.517 0 0 4.012 4.432 10.986 0 8.238-5.057.845-12.46.845-12.46 2.113.635 4.437-3.598 19.027-3.598 14.778 0 19.863 3.598 19.863 3.598 0 0-7.414 3.597 2.967 8.878 7.643 3.737 9.292-2.739 9.479-3.688 3.363 2.758 6.708 6.17 9.917 10.423.077.103.158.209.238.311-.477 7.663 7.891 22.266 13.319 30.826-17.837-24.695-39.732-29.202-39.732-29.202zm64.645 102.894l-5.429 6.218c.325-2.327 1.138-8.326 2.143-15.672 1.141 3.226 2.242 6.372 3.286 9.454zm-8.905-45.101c-1.188-3.554-2.252-6.785-3.167-9.645 1.054-45.671 4.06-150.869 4.06-150.869l19.028-.631c0 0-4.437 101.867-8.02 123.214 0 0 2.114-63.188 0-66.785-2.113-3.589-2.113-8.04-2.957 4.432-.586 11.539-7.851 86.706-8.944 100.284zm3.02 64.15l9.269-8.681c.109.328.21.655.319.982zm12.631-20.951l47.625-49.642c0 0 3.583-3.587 5.896-1.471 2.123 2.313-2.313 6.766-2.313 6.766l-51.127 44.562zm54.166-32.73l-50.931 40.926c-.206-.513-.406-1.019-.612-1.534l44.335-41.5c0 0 8.029-8.888 9.521-4.432.845 2.953-2.313 6.54-2.313 6.54zM410.351 482.388c2.948-.313 10.096-.979 16.498-.979 2.908 0 5.678.124 7.782.503l.148-.607c0 0-.019 0-.04-.015-.01 0-.02 0-.029-.005-.973-.336-13.411-4.546-25.341-4.546-2.342 0-4.654.169-6.847.556 1.241-1.149 3.84-3.478 6.727-5.812 3.148-2.584 6.721-5.15 9.073-6.093 1.021-.255 1.638-.389 1.65-.389l-.081-.636c-.029 0-.06.007-.079.007l-.011.006c-.477.024-1.012.158-1.627.39-4.875 1.197-19.346 4.989-25.449 9.754-.656 0-4.904 0-8.664 0 1.141-1.196 4.067-4.229 7.402-7.436 3.792-3.647 8.111-7.514 10.73-9.032.277-.164.535-.287.764-.392.05-.029.109-.055.15-.069v-.016l.019-.005-.267-.575c-.011 0-.011.01-.021.01l-.01-.01c0 0-.079.043-.238.124-.139.069-.316.169-.544.283-3.792 1.976-20.21 10.674-25.62 17.117-.773.004-4.623.099-7.394 1.22.417-1.354 1.45-4.576 2.69-7.842.815-2.147 1.737-4.308 2.621-5.965.387-.759.794-1.4 1.171-1.885.773-.656 1.25-1.033 1.25-1.033l-.268-.556c-.536.139-1.013.565-1.488 1.186-1.34 1.143-3.515 3.053-5.738 5.326-3.513 3.65-7.136 8.143-7.571 11.976-.638.258-3.009 1.23-5.451 2.411-1.429.689-2.908 1.45-4.06 2.173-.425.268-.792.518-1.121.766.525-1.29 1.359-3.271 2.273-5.376 1.558-3.582 3.375-7.539 4.396-9.016l.01-.007c.011-.029.031-.053.052-.069l-.448-.422c0 .005-.029.02-.069.064l-.01-.008c-.01.008-.01.019-.01.027-1.102 1.013-13.886 12.686-15.434 21.98l-4.536 3.945c-.071-.897-.179-2.705-.179-4.978 0-3.855.356-8.973 1.796-12.823.677-1.113 1.152-2.068 1.389-2.81l-.316-.179-.169-.162c0 0-.011.019-.041.028 0 0-.029.02-.029.029-.268.209-1.181.979-2.342 2.428-2.284 2.356-5.936 6.105-9.736 9.967-3.446 3.509-7.028 7.117-9.769 9.801l-.406-5.116h-.052l2.323-6.344c1.292-1.165 25.003-22.783 27.724-45.795l-.577-.209c-.009.01-4.546 7.721-9.746 15.795-2.61 4.047-5.361 8.176-7.812 11.475-2.005 2.742-3.823 4.899-5.083 5.941l6.502-24.021c.238-.357 5.776-8.694 11.305-17.846 5.667-9.369 11.325-19.44 11.363-22.967l-.01-.374-.605-.129c0 .02-4.018 6.387-8.377 13.042-2.192 3.327-4.494 6.726-6.411 9.404-1.508 2.149-2.829 3.852-3.643 4.68v-18.242c.833-1.371 9.815-16.924 9.827-28.894 0-1.228-.111-2.408-.327-3.565l-.605-.019c-.011 0-1.648 5.548-3.713 11.618-1.887 5.485-4.167 11.425-5.866 13.996l-1.421-24.7h-.625l-2.442 40.85c-.485-1.471-1.24-3.818-2.023-6.428-1.331-4.322-2.759-9.33-3.157-12.044l-.635.043c0 0 .109 6.155.785 12.969.704 6.774 1.906 14.154 4.277 17.146l-.635 9.787-4.388 14.463-.496.489-.983.503c-.208-.012-.386-.079-.605-.536-.206-.456-.356-1.296-.345-2.652 0-.529.01-1.131.068-1.826.1-.957.109-2.164.109-3.576 0-11.957-2.869-38.343-2.869-38.343h-.646c0 0-1.666 17.955-1.666 32.755 0 7.409.425 13.996 1.708 17.279l-.011.006c.884 2.304 1.49 3.752 1.916 4.635.149.298.277.513.386.691l-4.167 10.261-3.652-24.862c-.119-1.414-.319-2.834-.625-4.248l-.615.029c0 0 0 .01 0 .021 0 0-.011.021-.021.064-.179.854-1.925 9.076-4.486 17.593-1.331 4.513-2.908 9.073-4.565 12.646-.139.289-.268.558-.408.83l-.05-.298-.615.083.081 1.341c-1.282 2.347-2.6 4.003-3.821 4.551l-4.477-12.397c1.023-1.3 8.982-11.663 8.982-24.412 0-.958-.06-1.96-.14-2.964l-.625-.029c0 0-1.102 4.964-2.779 10.194-1.539 4.973-3.702 10.223-5.627 11.582l-4.25-11.936c.973-1.388 9.43-13.478 9.469-19.285l-.575-.184c0 0-2.373 3.122-5.011 6.513-2.384 3.051-4.933 6.342-6.206 7.821l-2.133-8.19 9.667-18.917-.546-.343-11.463 14.964-1.865-6.041 13.834-18.897-.456-.437-15.057 12.188-1.29-3.842 10.897-14.446-.427-.471-12.148 8.654-1.281-3.275c.585-.813 3.733-5.448 3.742-9.825 0-1.202-.238-2.399-.873-3.475l-.319-.58-.258.623c0 .012-.723 1.993-1.827 4.181-1.012 2.063-2.433 4.262-3.702 5.036l-2.7-3.299c.19-1.321 1.5-10.59 1.5-16.997-.021-2.726-.179-4.899-.952-5.896l-.567.158c0 .005-.306 3.836-.825 8.076-.435 3.84-1.06 8.029-1.706 9.767l-4.883-4.868c-.09-.736-.606-4.86-1.588-9.008-.548-2.278-1.24-4.565-2.065-6.304-.873-1.727-1.836-3.007-3.215-3.017h-.367l.079.367c0 .02 2.541 11.99 3.414 17.095-2.213-2.42-9.09-9.389-15.523-9.432-1.083 0-2.133.193-3.146.654l-.585.267.574.31c0 0 1.182.591 3.019 1.661 5.477 3.162 16.706 10.568 20.119 19.143-.346.04-.902.074-1.607.074-2.74 0-7.306-.68-9.242-5.012l-.316-.691-.289.701c0 .024-.348.873-.348 2.059 0 1.347.477 3.161 2.344 4.601 1.875 1.43 5.11 2.485 10.669 2.485.646 0 1.319-.024 2.025-.043l2.639 5.281c-.733-.016-2.192-.055-3.85-.184-2.342-.179-5.09-.572-6.482-1.267l-.326.522c.008 0 6.579 5.44 11.325 5.99-1.044.491-2.74 1.247-4.913 2.034-3.744 1.365-8.825 2.829-14.294 3.261l-.108.603c.02.008 5.754 2.692 12.069 2.709 3.434 0 7.046-.839 9.984-3.381l2.561 3.852-19.543 9.35.209.605 21.061-4.393 1.965 6.263c-.696.501-3.415 2.457-6.969 4.427-4.108 2.278-9.319 4.541-13.586 4.541-1.092 0-2.155-.143-3.077-.465l-.329.524c.029.036 2.253 2.271 7.217 2.254 4.148 0 10.162-1.523 18.451-7.098.535 1.023 2.271 4.491 3.354 7.459-.813.601-4.098 2.964-8.277 5.332-4.794 2.754-10.809 5.462-15.436 5.457v.299l-.296-.101-9.421 24.061-.802-.179-2.461-.561c.058-.67.227-2.671.396-5.319.217-3.415.446-7.872.446-11.937 0-2.535-.088-4.907-.317-6.793-.258-1.874-.577-3.226-1.292-3.847l-.497-.356-.009.604c0 0-.387 6.069-.931 12.397-.05.451-.09.908-.129 1.354-.258 2.719-.527 5.404-.815 7.613-.298 2.173-.644 3.919-.923 4.618l-3.196-1.89c-.228-.847-1.588-5.862-3.285-10.979-.935-2.813-1.937-5.638-2.919-7.825-1.021-2.209-1.856-3.757-2.839-4.109l-.477-.139.081.496c0 0 .565 3.515 1.111 7.673.575 4.139 1.141 8.938 1.141 11.43 0 .462-.02.844-.06 1.126l-5.27-2.14-4.369-7.32-.596.124-.793 6.388-4-1.334c-.448-.64-3.504-4.878-6.919-9.292-3.771-4.802-7.861-9.746-9.846-10.592l-.377.474 12.05 17.786-9.549-1.354-5.935-5.235-6.431-5.691-.498.406 7.246 11.2c0 .069.009.124.009.184l-3.246-1.693c-.297-.191-4.823-3.051-9.717-5.931-2.5-1.497-5.121-2.976-7.304-4.099-2.204-1.121-3.854-1.88-4.736-1.885l-.465.109-.229.456c.05.794.853 1.589 1.986 2.65 3.056 2.74 8.963 6.654 11.325 8.561-1.927-.173-6.283-.53-10.571-.53-1.121-.964-11.276-9.479-18.471-9.521l-.219.558c0 .015 5.726 5.186 8.893 8.078-.735-.015-1.895-.045-3.256-.045-3.961.017-9.488.205-11.523 1.624l.16.565c.02 0 11.304.778 16.734 1.394-1.319 1.003-4.558 3.477-7.921 6.234-4.348 3.632-8.883 7.622-9.727 9.707l.466.388c0 0 6.015-3.493 12.566-6.974 6.55-3.479 13.787-6.957 15.8-6.932 3.524 0 8.943.403 10.989.561-1.015.773-3.138 2.348-5.628 3.926-2.869 1.797-6.234 3.591-8.834 4.173-1.012.144-1.627.213-1.627.213l.029.631c.019 0 .03 0 .04 0 0 0 .021 0 .031 0 .544-.015 1.131-.094 1.736-.238 1.906-.269 5.091-.759 8.448-1.464 5.319-1.131 10.967-2.685 12.633-4.983v-.004c.656-.988 1.292-1.572 1.877-1.901.515-.288 1.003-.402 1.419-.402.615 0 1.141.214 1.529.437l.308.23c-.496.422-1.598 1.338-3.027 2.505-1.361 1.111-3.017 2.441-4.754 3.782-2.084 1.638-4.308 3.266-6.144 4.486-1.23.823-2.333 1.445-3.098 1.766-.594.159-.923.243-.923.243l.069.615c.021 0 .05-.003.069-.003l.01.003c0 0 .021-.003.062-.02.267-.024.594-.107.952-.259 2.292-.645 8.15-2.47 14.194-5.775 3.137-1.711 6.321-3.832 9.083-6.388l2.292.666c-1.052 1.09-4.229 4.367-7.623 7.642-1.071 1.041-2.164 2.07-3.217 3.043-.971.904-1.914 1.746-2.758 2.472-.448.367-.863.709-1.25 1.007-1.49.903-2.452 1.459-2.452 1.459l.158.58c.446 0 .925-.282 1.598-.734.317-.218.675-.49 1.063-.788 1.062-.641 2.381-1.449 3.841-2.354 5.371-3.325 12.536-7.988 14.926-10.639l3.833 1.279-10.74 15.718.467.417c0 0 9.34-7.892 14.492-13.842l6.073 1.325c-.692.868-2.452 3.018-4.375 5.275-2.333 2.725-4.975 5.642-6.186 6.556-.019.021-.048.035-.077.055-.062.04-.11.083-.16.109l-.011.015.348.517c.009 0 .021-.01.021-.01l.009.005 15.325-10.914c.358.052 1.459.213 2.748.49 1.579.335 3.406.871 4.388 1.57h.01v.021c.031.088-.258.604-.863 1.169-2.054 2.104-7.355 5.751-12.108 8.844-4.784 3.132-9.003 5.698-9.003 5.698l.308.561 27.741-13.251 2.492 1.236-12.238 16.6.456.442c0 0 3.861-3.112 7.88-6.694 3.386-2.988 6.859-6.219 8.417-8.354.229-.297.407-.58.546-.828l4.486 2.442c-.357.61-1.319 2.202-2.56 4.198-.834 1.34-1.808 2.854-2.819 4.362-1.459 2.232-3.028 4.432-4.417 6.089-.041.069-.09.109-.129.171-.148.112-.289.23-.429.337-2.808-1.396-5.31-2.304-7.096-2.313l-.537.03-.148.57c0 .005 2.165 1.594 5.132 3.871-.05.032-.081.054-.081.054l.209.581c.167-.01.348-.06.525-.129 1.369 1.057 2.877 2.232 4.398 3.464 4.842 3.885 9.946 8.313 11.424 10.575-1.331-.074-4.765-.241-7.832-.241-1.895 0-3.631.055-4.685.263-1.021-.423-10.809-4.587-21.599-8.751-9.479-3.623-19.621-7.265-25.359-8.407-1.171-.228-2.185-.372-2.948-.372l-.148.61c0 0 1.319.66 3.473 1.736 8.257 4.131 28.874 14.402 35.743 17.395l-32.387-2.138-10.482-.689-.09.63 11.316 3.037 9.352 2.525c-1.738.344-4.904 1.028-8.19 1.912-3.753 1.002-7.623 2.258-9.607 3.578-2.056 1.384-10.89 3.127-19.088 4.437-8.198 1.319-15.861 2.273-15.872 2.273v.615c0 0 11.188 1.899 17.272 2.104-.548.387-1.38.959-2.461 1.677-2.709 1.797-6.95 4.453-11.95 7.087-.854.457-1.738.898-2.642 1.354-1.627.809-3.315 1.604-5.062 2.354-3.613 1.564-7.394 2.963-11.167 3.916l-2.421.56.16.621c.802-.174 1.598-.367 2.4-.566l11.711-2.68 5.58-1.269 2.917-.671c.16.387.317.775.477 1.157l-2.006 2.848-4.079 5.796-11.363 16.169c-.022.02-.041.035-.041.045v.005l.485.403c.02-.026 4.556-5.5 9.836-11.732.656-.78 1.331-1.576 2.005-2.37 1.519-1.759 3.037-3.547 4.506-5.226.725-.854 1.459-1.666 2.144-2.455 1.808-2.044 3.415-3.831 4.675-5.154l-2.908 9.185-1.321 4.178-2.789 8.824.606.238c0-.015 1.329-2.859 3.236-6.813.515-1.066 1.071-2.214 1.656-3.409.687-1.399 1.402-2.857 2.135-4.332 1.848-3.698 3.802-7.484 5.45-10.481 1.637-2.965 3.048-5.212 3.682-5.701h.01c2.333-1.659 6.412-3.883 7.98-4.711l-3.394 13.244.556.254 10.948-16.829c.229-.134 2.114-1.314 4.417-2.502 1.429-.729 3.018-1.443 4.446-1.93.834-.278 1.608-.466 2.254-.536-.269.631-.785 1.828-1.45 3.291-.396.873-.844 1.826-1.319 2.822-1.498 3.183-3.336 6.676-4.646 8.323l-.368.427.496.432c.12-.133.229-.271.348-.432l6.64-7.728 8.179-9.528c.904-.208 6.909-1.443 10.163-1.443h.06v.069c.041.525-1.09 2.442-2.848 4.736-2.64 3.468-6.581 8.055-9.896 11.775-1.021 1.165-1.996 2.237-2.838 3.171-1.836 2.039-3.096 3.374-3.096 3.374l.465.441.01-.005h.011c0 0 .02-.019.048-.048l2.879-2.819 21.28-20.726c.289-.074 1.846-.451 3.981-.833 2.371-.427 5.399-.848 8.069-.848 1.281 0 2.482.102 3.444.35l-4.317 12.771.536.313 11.731-13.848c.934-.069 7.793-.61 10.084-.63l-.009.034c-.466.898-2.987 3.266-5.4 5.55-1.179 1.161-2.41 2.307-3.325 3.291-.942.976-1.598 1.766-1.794 2.346l.506.35c.029-.012 4.008-3.127 8.308-6.239 2.154-1.553 4.367-3.107 6.204-4.274.02-.013.039-.023.069-.033 1.767-1.143 3.236-1.907 3.613-1.867 1.209 0 8.177.283 13.786.531-.1.685-.169 1.4-.169 2.114 0 1.53.229 3.002.666 4.393-.954 1.091-1.965 2.168-2.8 2.998-.773.754-1.488 1.256-1.708 1.303-.387-.713-.744-1.243-1.646-1.438-.905-.182-2.313-.182-5.151-.182-.329 0-.764.028-1.25.089-8.786.978-42.998 10.064-43.018 10.064l.079.62c5.34 0 31.057-2.352 36.447-2.854l-9.331 8.169c-11.244 2.224-35.881 8.159-38.572 8.815-.067.014-.158.028-.227.033l.01.017c-.01 0-.04.015-.04.015l.13.605c4.306-.736 12.396-1.326 19.394-1.703 5.49-.313 10.262-.512 12.098-.581l-8.227 8.22c-5.311.619-18.005 3.285-25.103 4.808-1.785.393-3.225.71-4.098.894-.319.079-.567.131-.725.168-.129.025-.208.04-.208.04v.005c-.021.005-.03.005-.04.005l.158.612c0 0 .021 0 .042-.007l.01.007c.048-.017.108-.026.158-.04.198-.06.417-.111.675-.16.854-.139 2.054-.209 3.435-.209.378 0 .765 0 1.152.016 6.878.146 17.211 1.484 19.672 1.812-2.609 3.379-8.18 7.071-13.192 9.891-.288.154-.575.308-.863.472-4.496 2.497-8.338 4.258-8.882 4.508h-.021v.003c-.029.015-.048.021-.048.021l.227.58 9.857-2.827 5.558-1.59c-1.36.904-2.929 2.14-4.565 3.538-1.877 1.618-3.85 3.44-5.748 5.253-4.842 4.625-9.032 9.062-9.032 9.062l.398.499 13.39-7.249c-9.876 10.313-16.616 20.824-20.903 28.859-.538 1.001-1.044 1.974-1.5 2.889-1.419 2.827-2.48 5.235-3.255 7.08-1.033 2.511-1.508 3.961-1.508 3.976l.506.337c.525-.436 1.35-1.339 2.361-2.539 1.25-1.483 2.79-3.435 4.477-5.619.596-.783 1.221-1.593 1.836-2.421 1.231-1.619 2.492-3.296 3.723-4.963 2.977-4.024 5.796-7.926 7.611-10.433-1.31 3.177-3.363 9.146-5.925 19.758-.14.599-.258 1.181-.388 1.751-.277 1.314-.496 2.557-.693 3.737-.596 3.623-.815 6.686-.815 9.206 0 .327.01.62.01.927.158 6.749 1.886 9.504 1.915 9.544l.585-.194-.039-.838c0-1.395.179-3.155.486-5.166.408-2.644 1.042-5.722 1.808-8.968.258-1.141.544-2.297.844-3.474.773-3.091 1.627-6.243 2.48-9.263 2.739-9.691 5.458-18.003 5.588-18.416h.01l2.709-6.044c-.377 3.227-.546 6.12-.546 8.62 0 7.931 1.459 12.164 1.469 12.185h.596c1.954-5.504 3.731-20.721 4.277-25.708.089-.823.15-1.374.169-1.552l2.084-4.616c-.09.858-.139 1.702-.139 2.506.01 9.822 5.529 15.514 5.548 15.554l.556-.272c-.098-.462-.14-1.089-.14-1.838 0-5.116 1.738-15.926 2.452-22.401.546-5.592 1.49-9.724 2.413-12.462.477-1.369.933-2.393 1.321-3.056l.506-.706.197-.144.021-.016.05.14.039.487c0 .293-.039.655-.098 1.097l-.011.039v-.024c-.039.346-.058.765-.058 1.19.019 6.091 3.889 20.036 3.889 20.061l.617-.062c.636-13.095 1.28-26.449 2.721-30.561.615-1.851 1.933-4.005 3.402-5.667 1.43-1.662 3.057-2.83 4.091-2.81l.864.342c.346.333.594 1.848.573 3.854 0 6.525-1.965 18.523-2.113 19.487-.01.021-.01.035-.01.046 0 .01 0 .024 0 .024l.596.139c.009-.015.009-.029.009-.039 0 0 .01-.016.01-.037 2.967-11.82 6.571-26.405 8.01-29.249 1.102-2.302 5.371-5.717 7.403-5.667.448 0 .696.134.915.401.058.079.129.422.129.908 0 2.661-1.678 9.603-3.365 15.822-1.667 6.227-3.336 11.752-3.336 11.771l.517.288c7.325-8.317 10.075-19.816 11.098-26.68.467-3.144.584-5.302.596-5.758l4.356-5.588c.687.978 1.489 1.871 2.363 2.656-.527 1.846-1.083 4.709-1.748 8.511-.296 1.717-.596 3.618-.912 5.672-3.692 24.038-8.834 70.353-11.553 104.055-.417 5.183-.775 10.065-1.063 14.532-.486 7.656-.773 14.059-.773 18.57 0 .342-.1 2.887-.169 4.918 11.458 7.682 23.419 14.674 35.891 20.811.144-4.334.476-14.215.843-23.232.119-2.764.238-5.777.367-8.974 1.102-28.232 2.552-71.508 2.552-104.026 0-.549 0-1.074 0-1.622-.02-9.841-.169-18.659-.527-25.678-.337-6.932-.833-12.009-1.667-15.041.754-.883 1.4-1.865 1.927-2.912.654.355 1.34.744 2.035 1.159 3.959 2.318 8.407 5.287 10.223 7.742 3.584 5.068 9.49 13.941 9.509 13.946l.567-.139.077-1.007c-.029-4.06-2.65-10.859-3.583-13.156 6.857 3.527 10.332 6.679 12.069 8.951.915 1.172 1.369 2.119 1.579 2.755l.219.711v.069c-.15.581-.387 1.677-.834 3.681-.229.997-.298 2.12-.319 3.296.021 6.78 3 15.852 3.267 16.66 0 .005 0 .021 0 .03h.01c.01.01.01.055.01.055l.615-.169c-.058-.248-.068-.605-.068-1.037 0-2.393.743-6.869 1.508-10.73.586-2.996 1.171-5.622 1.398-6.646.944.83 1.877 2.562 2.602 4.165.704 1.559 1.19 2.967 1.31 3.319-.417 4.992-.586 8.741-.586 11.559 0 3.381.229 5.419.586 6.645.358 1.217.864 1.742 1.499 1.747.744-.034 1.153-.724 1.202-.738l.069-.074v-.075c.704-5.498 2.303-13.717 2.788-16.174l6.869 10.268c-3.513 8.03-5.371 17.888-6.34 25.266-.815 6.299-1.004 10.8-1.004 10.814l.616.079c0-.02.009-.039.019-.059.606-2.682 1.687-6.129 2.969-9.778 1.179-3.37 2.52-6.922 3.812-10.173 2.104-5.39 4.039-9.95 4.743-11.604l3.257 7.275c-1.083 6.695-1.846 12.786-2.373 18.01-1.19 11.908-1.202 19.351-1.202 19.351l.596.119c2.125-6.08 3.761-12.546 4.954-18.039 1.102-5.104 1.827-9.356 2.194-11.653.833 3.985 2.541 8.966 4.366 13.628 1.44 3.692 2.938 7.18 4.111 9.822.654 1.756 1.379 3.388 2.212 4.818l.565-.304c0 0-.883-1.836-2.152-4.675-1.034-2.804-1.846-5.944-2.481-9.043-.378-1.84-.696-3.677-.954-5.419-.715-4.979-1.013-9.166-1.102-10.822 6.967 6.307 17.755 15.126 19.147 16.267.048.045.108.095.148.134l.406-.491c-2.163-1.741-7.84-8.367-12.922-14.501-3.861-4.676-7.395-9.056-8.894-10.928l12 4.823.3-.526-21.38-17.89c.177-.015.348-.015.535-.015 3.354-.018 8.882 1.27 13.528 2.561 4.685 1.28 8.498 2.561 8.507 2.569l.486.171-.079-.522c-.269-1.181-2.036-2.358-4.607-3.795-7.711-4.266-22.73-9.763-25.001-10.407l-.019-.013c-1.312-.256-2.95-1.863-4.221-3.403-.802-.992-1.448-1.935-1.806-2.49 3.513.184 11.107 1.925 17.976 3.658 7.236 1.86 13.657 3.706 13.686 3.706l.358-.462c-.854-1.473-3.483-2.924-6.998-4.446-10.292-4.382-28.078-8.769-29.082-9.008l-11.433-8.59 24.93 5.577h.012l.03.01.198-.6c-.021 0-7.306-2.75-15.505-6.046-8.219-3.304-17.369-7.16-21.022-9.359-4.685-2.798-13.3-5.25-19.105-6.694 0-.142.02-.282.02-.422 0-1.339-.188-2.63-.527-3.87 1.48-.293 3.236-.507 4.915-.621 3.035-.244 5.835-.272 6.392-.272.435.241 3.712 2.223 6.47 4.377v.011h.01c3.069 2.178 11.703 4.268 11.734 4.272l.229-.582c-2.473-1.448-5.38-4.184-7.634-6.55-1.638-1.706-2.917-3.212-3.513-3.921 1.45-.149 2.8-.208 3.931-.208 2.213 0 3.752.203 4.159.263 3.622 4.342 13.777 9.887 14.55 10.297 0 0 0 .01.01.015v-.005c.032.012.042.021.042.021l.335-.511c-2.152-1.763-3.989-4.468-5.279-6.757-.975-1.705-1.619-3.152-1.887-3.78.248-.045.516-.084.813-.084 2.164 0 5.321 1.336 5.917 1.589 7.414 14.561 14.63 17.573 14.698 17.598l.357-.518c-2.491-2.471-4.644-6.679-6.192-10.254-1.121-2.676-1.907-4.98-2.244-5.984 3.107.83 6.204 2.482 6.69 2.757 6.461 14.049 11.047 15.562 12.774 15.585l.685-.117.507-.2-.428-.336c-1.687-1.374-3.711-5.379-5.261-9.019-1.22-2.853-2.152-5.453-2.5-6.45 2.194.139 7.236 1.22 8.189 1.42l7.127 15.904.583-.173c0-.023 0-.061-.01-.083-.535-3.231-1.27-11.135-1.417-12.846 1.675.1 3.334.954 4.594 1.817 1.042.723 1.778 1.419 2.075 1.72-.257.542-.338 1.282-.338 2.201 0 4.188 1.876 11.741 1.876 11.755l.625.04 4.289-10.636c2.402 1.386 6.948 1.634 8.188 11.196.248 1.753.367 3.489.367 5.142 0 4.039-.625 7.688-1.23 10.333-.615 2.626-1.231 4.233-1.231 4.233l.577.248c.01 0 .02-.02.02-.029l.02.01c0 0 .04-.09.1-.25 1.121-2.411 3.692-9.543 4.765-13.731.496.577 1.141 1.287 1.965 2.229h-.011c1.738 2.11 3.415 7.817 4.577 12.953 1.19 5.138 1.923 9.717 1.923 9.727l.626-.048v-.051-14.999c1.319 1.616 4.081 3.839 6.7 5.845 3.167 2.386 6.144 4.401 6.144 4.401l.387.263.1-.471.039-.283c-.039-1.021-.873-2.521-2.052-4.344-3.546-5.379-10.503-13.117-10.732-13.37v-.003c0 0-1.131-1.539-2.262-3.282-1.142-1.674-2.223-3.653-2.213-4.184.148.02.615.225 1.29.726 5.141 3.642 16.138 7.21 16.149 7.22l.724.243-.347-.68c-3.613-7.137-18.938-13.417-19.96-13.865l-3.813-3.807 24.17 1.473-.437-.54c-.864-1.092-3.017-1.979-5.856-2.883-8.438-2.598-22.661-4.607-22.858-4.64l-8.2-3.033 17.659-.769.148-.597c-2.779-1.553-9.927-2.63-16.467-3.374-6.55-.74-12.417-1.112-12.417-1.112l-9.369-1.945c2.243-1.27 8.029-2.621 13.399-3.607 5.925-1.111 11.415-1.841 11.415-1.841l.039-.637c-5.251-1.027-9.926-1.431-13.986-1.431-12.684 0-19.663 3.83-20.605 4.364l-13.031-2.76c2.677-1.504 8.873-3.832 14.56-5.856 6.253-2.209 11.94-4.049 11.95-4.063l-.098-.62c-26.144.803-35.136 9.195-36.268 10.338l-3.563-.532c1.619-2.244 6.084-6.213 10.204-9.623 4.428-3.682 8.465-6.782 8.475-6.782l-.238-.582c-12.921 1.479-28.138 17.047-29.447 18.393h-3.812c.863-1.688 4.259-6.726 7.723-11.469.229-.298.435-.581.654-.879 4.159-1.195 7.909-2.774 9.746-4.873l-.287-.543c0 .011-2.542.34-5.857.736.438-.535.844-1.038 1.242-1.493.813-.949 1.529-1.723 2.094-2.269.537-.536 1.033-.801 1.071-.775.577 0 1.173-.093 1.607-.212l.537-.198.369-.469-.31-.376-.377-.03c-.615 0-1.808.174-4.001.665-2.162.491-5.139 2.834-8.365 5.872-3.583.411-7.019.764-8.656.854.586-.781 1.787-2.322 3.137-3.887.973-1.097 2.005-2.219 2.927-3.027.896-.809 1.729-1.3 2.126-1.3.227.029 2.55.367 6.154.367 3.76 0 8.921-.372 14.45-1.853l-.01-.63c-.029-.005-11.501-1.855-15.453-2.083.665-.713 2.005-2.146 3.604-3.594 2.213-2.029 4.933-4.006 6.63-4.035 1.05.691 11.394 7.42 16.277 7.445l.775-.065.615-.113-10.63-9.762c.208-.313.635-.912 1.24-1.515.844-.847 2.015-1.651 3.296-1.701 1.169 1.424 12.03 14.576 18.413 16.673l.358-.464-11.415-17.241c.348-.146.983-.377 1.875-.627 1.44-.387 3.554-.789 6.134-.789.725 0 1.489.03 2.283.106.575 2.029 4.883 17.065 12.527 21.948l.475-.396c0 0-1.785-3.914-3.544-8.457-1.785-4.524-3.542-9.736-3.542-12.114 0-.451.088-.782.188-.966.913.01 6.034.083 8.625.839h.009.011c.477.044 1.19 1.144 1.758 2.862.912 2.552 1.775 6.402 2.698 9.946.942 3.552 1.977 6.764 3.435 8.233l.536-.22v-17.79c.645.122 2.044.422 3.663.931 2.194.677 4.743 1.729 6.164 3.147 1.002.952 1.408 3.873 1.389 7.018 0 4.938-.864 10.448-.864 10.448l.606.179 4.219-9.828c1.014 1.416 4.229 5.941 7.563 11.122 2.352 3.629 4.765 7.608 6.511 11.002l2.461 6.09.596-.192c-.01-.016-.01-.037-.01-.056l-.011-.01c-.317-1.545-1.21-3.647-2.431-6.025l-8.279-20.596 16.884 5.698.257-.563-22.601-13.955c-.29-.215-6.464-5.248-10.555-6.968zm-96.683 23.831c-.041.897-.081 1.802-.081 2.715 0 1.572.09 3.16.309 4.72 0 .05 0 .084 0 .123l.316-.054-6.946 9.989c-.109-.033-.209-.06-.329-.084-.754-.192-1.537-.351-2.342-.427l4-11.453c.357-.372 2.302-2.471 5.073-5.529zm-5.033-31.714c-.1 2.08-.148 4.109-.148 6.017.029 5.361.396 9.646 1.775 11.32-.368 1.255-2.71 9.305-4.595 14.163L302.45 486.85c1.897-3.093 4.249-7.381 6.185-12.345zm-7.326 14.141l1.588 24.422-.645 3.147-3.138-24.389c.239-.322 1.074-1.434 2.195-3.18zm-12.883-10.377l2.392 10.595c-.387.303-1.598 1.192-3.374 2.101-.142.063-.29.122-.428.193.367-1.488.605-2.859.605-3.985 0-.518-.039-1.009-.167-1.419l-.607-.012c0 .012-.852 2.814-2.083 6.354-1.748.61-3.753 1.062-5.896 1.062-.844 0-1.738-.074-2.652-.248l-.287.511c.02.037 2.777 3.346 6.819 4.164-.696 1.788-1.42 3.514-2.125 4.958-.873 1.835-1.766 3.216-2.342 3.618-.715-.462-3.644-2.298-6.194-3.594l4.982-22.301c.982.143 1.984.241 3.007.241 2.714-.001 5.572-.624 8.35-2.238zm-22.73 21.027l-5.421-3.851 7.248-18.706c1.875 1.103 4.675 2.462 7.921 3.206zm-7.682-33.652c1.856-.021 14.888-.314 24.547-4.338.317.739 1.21 2.874 2.162 5.25 1.102 2.764 2.294 5.848 2.69 7.405-.615.119-2.123.402-4.169.685-2.709.387-6.292.769-9.894.769-1.777 0-3.525-.108-5.181-.337l.039-.129-.577-.278-.177.313c-.755-.128-1.498-.268-2.194-.46l-.277.555c0 .01.635.491 1.716 1.171l-9.906 16.586-4.556-1.91zm-11.841 49.761c.048-.06.099-.114.139-.167 2.412-1.961 5.806-4.736 8.763-7.196 2.581-2.148 4.813-4.05 5.729-4.934l3.056 1.261c-.604.944-2.502 3.876-4.754 7.201-.448.653-.923 1.335-1.389 2.014-1.48 2.12-3.009 4.253-4.388 6.01-2.451-1.564-4.894-3.027-7.156-4.189zm43.334 16.774l-5.171-.382c-.427-.452-2.423-2.565-4.823-4.749-2.68-2.478-5.757-5.022-7.723-5.395l-.306.531c.02.01 1.637 1.792 3.383 3.875 1.54 1.843 3.186 3.956 3.792 5.139l-8.329.585c-.435-.349-2.271-1.782-4.882-3.732-2.223-1.668-5.002-3.685-7.959-5.715-.993-.668-1.995-1.337-3.008-1.997 1.329-1.108 2.958-2.471 4.654-3.901.169-.155.348-.298.507-.437 3.97-3.37 8.05-6.923 9.21-8.392 1.182.743 6.354 4.079 11.653 8.107 5.082 3.861 10.293 8.424 12.188 11.777-1.34 1.333-2.421 2.919-3.186 4.686zm-5.19-22.342c-.912-.378-1.29-1.319-1.3-2.833-.01-2.363 1.003-5.793 2.084-9.267 2.192-.169 4.596-1.246 6.958-3.862l7.208 29.809c-.606.167-1.202.362-1.779.601-.823-1.136-1.727-2.363-2.69-3.618-3.612-4.707-7.791-9.684-10.481-10.83zm28.606 112.979c0-3.147-.031-6.552-.09-10.388l-.558-.219c-3.55 4-7.006 7.221-8.086 12.809h-.011c-.279.96-.408 1.951-.408 2.904 0 2.104.596 4.153 1.5 5.791 1.459 3.315 2.482 9.51 7.127 11.345-.021.521-.031 1.037-.041 1.554-.009.144-.019.284-.019.423 0 .134-.01.271-.01.396-.16 5.688-.338 11.301-.516 16.739 0 .104 0 .21 0 .319-.009.103-.021.213-.021.317-.05 1.587-.098 3.17-.148 4.734-.446-1.493-.942-2.864-1.352-3.962l-.01-.004c-1.021-2.47-4.069-3.647-7.265-3.647-2.729 0-5.587.863-7.414 2.7-.525.531-.725 1.434-.734 2.272.029.813.167 1.617.754 1.984l-.01.01c3.959 3.256 9.746 3.673 11.751 8.954l.021-.012.078.186c.448.355 2.513 1.419 3.822 1.667-.088 2.244-.159 4.451-.248 6.591l-.088.025-.329.069-.148-.081-.159-.713c-.05-.299-.179-.735-.606-.939-3.692-1.825-5.817-5.855-9.767-7.408-.874-.387-2.114-.606-3.306-.606-1.062 0-2.104.165-2.896.62-.625.354-1.092.899-1.282 1.613-.058.219-.089.457-.089.712 0 .377.05.782.188 1.214v.01c2.173 6.692 8.179 10.735 13.459 14.13 1.371.888 2.492 1.335 3.404 1.335.496.01.905-.14 1.25-.402-.068 1.811-.127 3.552-.206 5.226-5.719-3.266-12.488-7.157-18.88-10.938.009-.123.021-.252.021-.381 0-.682-.289-1.531-1.143-1.956v-.015c-.655-.259-1.29-.377-1.946-.377-.425 0-.854.071-1.26.158-1.26-.759-2.49-1.498-3.673-2.224 3.425-.863 6.69-4.744 7.246-7.795.039-.273.081-.541.081-.801.019-1.062-.448-2.02-1.501-2.476-.802-.401-1.618-.565-2.391-.565-.248 0-.496.024-.735.064-1.777.272-3.286 1.448-4.397 3.017.15-2.074.309-4.224.477-6.437.081-.893.15-1.792.219-2.71.169.546.525.987 1.398 1.867.378.365.815.565 1.261.565.884-.016 1.598-.675 2.253-1.419.635-.785 1.202-1.703 1.637-2.373v-.021l.02-.013.19-.729-.458-.779-1.16-.422-.706-.446-.11-.322-.317.152h.009l-.198.015c-.645 0-2.213-.296-3.067-.296l-.406.064c1.021-12.181 2.323-25.749 3.73-39.178.348-.348.696-.715 1.063-1.071 1.131-1.205 2.371-2.313 3.187-2.282l.196.022.448.087-.071-.448-.058-.765c-.009-2.338 1.438-5.186 1.469-7.762 0-1.569-.596-3.082-2.403-4.164l-.337-.206-.119.382-.229.202c-.258.015-.754-.316-1.25-.343l-.118.055c.287-2.502.573-4.968.852-7.398.088.699.188 1.305.298 1.731.268 1.111 1.021 1.717 1.895 1.703 1.302-.021 2.761-1.068 3.942-2.638h.01c3.465-4.137 3.007-9.517 3.454-14.528l.011-.359-.338.015c-2.144.09-3.315 1.366-4.188 2.766-.873 1.369-1.569 2.853-2.729 3.616l-.011-.01c-.289.249-.914.225-1.489.502.843-6.938 1.667-13.453 2.452-19.261.377-2.649.723-5.136 1.081-7.468.457-3.157.903-6.001 1.311-8.443.506-2.962.973-5.354 1.369-6.991 2.056 1.071 4.388 1.682 6.859 1.682 3.106 0 6.015-.973 8.406-2.616.357 1.977.677 4.818.914 8.279-.208-.198-.437-.382-.685-.54v.008c-.377-.286-.813-.392-1.24-.392-.744 0-1.469.299-2.035.557v.009c-5.171 1.45-12.269 4.79-13.469 10.021-.119.491-.19.982-.2 1.5 0 1.424.448 2.962 1.509 4.574l-.05-.035.05.05c1.013 1.508 2.344 2.173 3.662 2.173.844 0 1.679-.258 2.461-.673 1.975-1.032 3.692-3.112 4.567-5.142 1.3-3.191 4.029-5.044 5.669-7.852 0 0 0 0 0 .011.177 3.521.296 7.528.385 11.899-.656.15-1.349.513-1.985.875-.804.471-1.48.96-1.548 1-1.36.716-2.442 1.664-3.306 2.774-1.808 2.328-2.562 5.361-2.562 8.434.01 3.007.715 6.079 1.927 8.646v.015c1.427 2.887 4.246 5.93 7.533 7.354-.062 6.142-.162 12.49-.291 18.948zm18.729-108.635c-.229.241-.458.491-.694.739-2.71 2.892-5.3 5.761-7.375 7.959-2.025 2.18-3.673 3.722-4.169 3.865v-.014c-1.548.352-3.065 1.482-4.188 2.52-1.071-1.443-2.382-2.698-3.89-3.682.842-.972 1.875-2.133 3.006-3.35 2.721-2.922 6.005-6.02 8-6.709.576-.058 4.525-.46 9.31-1.328zm-.844-17.321c-1.102.778-9.15 6.46-11.921 10.224l-.496-6.11c1.638-1.837 3.365-3.801 5.123-5.825 3.156-3.639 6.342-7.413 9.092-10.874-1.044 3.363-1.777 7.517-1.798 12.585z" fill="#ffdf00"/><path d="M660.21 399.801c-7.396 1.271-8.237 9.941-6.55 16.07 6.747-2.127 9.289-10.362 6.55-16.07zM698.234 476.412c-.01-1.285-.674-2.84-1.994-3.355-.922-.372-1.865-.526-2.8-.526-3.531 0-6.889 2.334-8.773 5.077-.129.244-.786.308-1.312.294l-.396.014-.21.056-.206.338.187.347.319.233v.011c1.813 1.309 4.179 1.949 6.589 1.949 2.88 0 5.828-.918 7.971-2.813v.004c.444-.382.625-.989.625-1.629zM676.477 420.313c3.812-3.182 7.8-5.509 11.624-8.879 3.387-2.748 10.371-2.118 10.143-5.925-.219-4.219-8.238-2.323-12.057-1.052-2.532.839-4.011 4.229-5.898 6.542-2.115 2.545-1.074 6.566-3.812 9.314zM669.083 399.801c-.415 0-1.082 0-1.488 0 3.812 1.271 7.413.844 9.955-1.901 3.792-3.791 8.02-13.946 2.948-15.424-2.948-1.045-8.051 2.318-10.57 6.344-1.927 2.952-5.71 8.873-.845 10.981zM689.787 395.574c9.092 2.119 11.424-10.139 15.216-16.488-3.792.646-6.978 1.908-10.132 4.661-3.383 2.536-6.354 3.604-8.052 7.181-1.05 2.537.844 4.218 2.968 4.646zM746.851 412.273c-1.897-7.4-8.667-9.503-15.416-7.4.409-2.744 4.427-6.972.635-7.601-1.708-.219-4.446-.219-6.363 1.05-3.373 1.896-5.052 5.703-8.238 6.974-1.485.421-3.363 1.062-5.071 1.062.429 2.531-2.529 2.958-2.948 5.076-.219.209-.415.419-.625.839 3.792 3.38 8.645 5.493 13.3 7.605 2.117.853 5.5 1.476 7.822-.418.22-.427.416-1.693-.625-2.109 3.158-.417 6.125 1.474 8.863 2.527 2.542.853 5.925 1.274 8.667-.418-.638-.635 1.914-2.109-.638-2.109 2.346-.417 4.874.834 7.188-.854-.844-.417-.844-1.271-.615-2.099-2.334.198-3.397-3.182-5.936-2.125zM715.158 392.195c1.26-1.267 6.551 2.323 8.229-2.125 4.237 2.125 9.727 4.04 13.964 0-.426-.205.834-1.677-.863-1.459 2.136-.425 3.405-2.328 5.3-2.755-1.488-4.861-5.497-.862-8.873-1.687-.844-.214-1.479-.839-2.313-1.276-2.352-.842-4.894.219-7.214 1.474v1.281c-1.053.417-2.532.417-3.592 0l-.2-1.281c-2.126-1.038-5.489-1.255-5.915.849-.647 3.177-2.532 2.969-3.812 5.285-1.044 1.693-1.679 4.437-1.044 6.977l-2.342 1.476c4.238 0 6.133-4.437 8.675-6.759zM738.809 396.844c4.437-2.119 10.375 1.266 13.123-3.807.625-1.474-.22-3.597-1.479-4.005-4.239-1.911-7.612 1.252-9.936 4.224-.625.854-.426 2.739-1.708 3.588zM672.331 452.388l-.22-.055c-1.124-.308-2.203-.451-3.247-.451-6.212.01-10.729 5.116-12.565 10.809l.486.371c2.372-1.532 6.254-1.835 9.54-2.648 3.283-.811 6.173-2.309 6.163-6.229 0-.506-.041-1.023-.132-1.598zM698.472 434.979c5.806-.369 12.517-3.778 10.562-10.239-.426-1.693-2.758-2.536-4.456-1.265-1.679 1.265-1.907 4.02-3.367 5.274-2.381 1.782-2.171 5.39-5.052 6.039-2.51-.153-5.071-.303-6.988 1.163-5.725 4.222-8.247 11.196-13.538 15.85 9.907-.635 22.324-5.05 22.839-16.822z" fill="#ffdf00"/><path d="M730.6 427.277c-3.183-1.053-7.007-1.261-9.945 0-4.862 2.119-8.883 6.337-13.538 8.675-2.955 1.473-5.281 4.222-8.645 4.858l-2.133 1.469c4.446.223 6.979-3.797 10.996-4.636 8.647-1.691 18.593 1.677 24.509-5.92 1.07-1.271.425-4.011-1.244-4.446zM737.469 439.251c1.002 0 2.007-.319 2.852-1.181l.444-1.122c.01-.65-.429-1.335-1.211-1.513l.009-.006c-.534-.169-1.05-.243-1.565-.243-1.511 0-2.938.565-4.32.878l-.029.005-.824.677-.297.804.058.232.21.114-.01.036c1.429.515 3.066 1.304 4.683 1.319zM721.074 447.782c1.903-1.052 3.592-3.384 1.903-5.28-.644-1.05-2.123-2.753-4.018-1.05-2.322 2.314-1.917 6.121-5.052 6.762 2.292 0 5.053.625 7.167-.432zM700.151 468.287c4.665 1.896 9.717-1.062 14.359-2.963 1.063-.427-1.05-2.535-1.685-2.738-4.427-2.108-10.562-2.755-14.354 1.693-1.925 2.114.408 3.579 1.68 4.008zM686.98 472.63c2.371-1.131 4.169-3.031 4.169-5.87 0-.53-.08-1.111-.199-1.717l-.059.015-.238-.313c-.29-.105-.744-.165-1.272-.165-.696.005-1.469.086-1.937.518-1.923 1.939-4.275 2.451-6.631 2.962-2.342.496-4.693.974-6.479 2.982l-.448 1.097c.062 1.614 2.137 2.869 3.911 2.909l.874-.119.038-.605-.296-.109c.147.005.276.005.425.005 2.701-.001 5.729-.454 8.142-1.59zM653.908 481.548c-.667.478-.824 1.508-.876 2.651 0 .972.171 2.03.506 2.898.37.883.896 1.612 1.739 1.786.864.118 1.698.188 2.591.188 5.29 0 10.838-2.157 15.584-5.097 1.179-.729 2.629-1.492 2.648-3.012 0-.615-.277-1.315-.854-2.089-1.23-1.593-2.758-1.827-4.207-1.822-.596 0-1.173.036-1.75.036-.841 0-1.646-.074-2.399-.428h-.01c-.964-.386-1.847-.581-2.7-.581-3.979.055-7.027 3.608-10.271 5.454v.016zM689.661 513.063c4.91 0 9.923.536 13.615.987v-.015c5.084.853 8.687.853 13.084 1.475.464.104.931.133 1.408.133 4.197-.009 8.318-3.146 8.348-3.146l-.148-.57c0 0-5.032-.632-10.046-2.726-2.423-1.047-6.282-1.305-10.242-1.329-5.052 0-10.265.456-12.703.456-4.54 0-35.972 5.072-36.001 5.072l-.19.054-.051.193-.841 2.947-.148.463.493-.064c0 0 5.161-.736 11.147-1.558 6.015-.811 12.822-1.713 16.099-2.035 1.975-.238 4.059-.337 6.176-.337zM545.729 572.81v-.01l.067-.356c-.029-.74-.667-1.213-1.35-1.623-.725-.443-1.599-.775-2.313-.974h-.01-.01c-.486-.104-.992-.159-1.469-.159-3.405 0-6.312 2.507-8.554 5.126l-.042.032v.034h-.01l-.158.019c-.319 0-.893-.174-1.369-.177l-.029-.013v.013l-.052-.013-.067.621c2.43.502 5.558 1.227 8.377 1.227 3.016.005 5.826-.843 6.989-3.747zM307.524 608.742c-1.092-3.476-3.584-5.986-3.563-9.421l-.635-.069c-.14.66-.834.774-1.242 1.396l.011.014c-1.937 2.998-5.142 6.428-5.162 9.52 0 1.235.554 2.426 1.875 3.355l.009-.01c1.031.799 2.641 1.275 4.198 1.275 1.202 0 2.384-.269 3.306-.923.913-.65 1.538-1.712 1.538-3.143 0-.592-.108-1.255-.336-1.991v-.003zM288.188 642.553l.675.019c2.104 0 4.536-.878 6.134-2.664h-.01c1.775-1.783 2.183-4.144 3.425-6.18v-.015c.516-.871.713-1.855.713-2.843 0-2.051-.833-4.169-1.528-5.897-.358-.882-1.141-1.26-1.956-1.255-1.894.035-4.188 1.638-5.151 2.888-2.233 2.934-4.396 5.498-4.417 9.118 0 .724.109 1.483.309 2.307-.029.253-.041.521-.041.794 0 .828.1 1.669.368 2.353.248.689.736 1.256 1.459 1.376h.02zM296.307 644.061l.011.004c-.934.358-1.331 1.133-1.53 1.896-.187.773-.258 1.588-.496 2.249-1.35 2.376-5.24 3.244-6.392 6.81l-.048.233c.048.425.317.673.496.933l.348.618-.09.248-.258.35.406.144c1.411.446 2.967.947 4.427.947 1.142 0 2.234-.327 3.077-1.245 0 0 .009-.007.009-.015 1.521-1.523 2.581-3.613 3.94-4.581.925-.57 2.702-.795 3.992-1.186.067-.015.128-.041.177-.051l.031-.014c.089-.036.179-.091.268-.141.498-.272.884-.694 1.102-1.205.06-.153.12-.308.14-.477.02-.124.029-.248.029-.387 0-.854-.456-1.763-1.469-2.56v.003c-1.766-1.448-3.721-3.091-6.005-3.107-.685.002-1.431.157-2.165.534z" fill="#ffdf00"/></svg>