<?xml version="1.0" encoding="utf-8"?>
<!DOCTYPE svg PUBLIC "-//W3C//DTD SVG 1.1//EN" "http://www.w3.org/Graphics/SVG/1.1/DTD/svg11.dtd">
<svg version="1.1" xmlns="http://www.w3.org/2000/svg" xmlns:xlink="http://www.w3.org/1999/xlink"
	 width="329.28px" height="364.79px" viewBox="0 0 329.28 364.79">
<path fill="#EFA900" d="M164.66,11.267c-4.302-3.374-7.1-4.949-12.215-6.879c-5.748-2.169-9.798-2.969-15.469-2.969
	c-6.875,0-12.588,0.775-20.469,2.344c-10.793,2.148-16.406,5.781-26.875,8.594c-10.528,2.828-16.77,4.659-27.656,4.063
	c-5.731-0.314-8.991-0.84-14.531-2.344c-2.491,5.261-4.203,8.126-7.656,12.813c-4.182,5.675-7.281,8.297-12.344,13.203
	c-5.038,4.884-8.77,6.706-13.516,11.875c-4.356,4.745-7.376,7.286-9.922,13.203c-1.426,3.314-2.585,5.299-2.5,8.906
	c0.062,2.601,0.288,4.217,1.563,6.484c1.566,2.786,3.195,4.227,6.172,5.391c2.562,1.002,4.452,1.504,7.031,0.547
	c2.873-1.066,4.431-2.902,5.234-5.859c0.472-1.734,0.677-2.943,0-4.609c-0.458-1.129-0.919-1.744-1.875-2.5
	c2.498,0.648,3.889,1.237,6.094,2.578c2.802,1.704,4.06,3.185,6.25,5.625c3.025,3.371,4.198,5.732,6.406,9.688
	c5.863,10.499,7.826,17.449,9.375,29.375c0.978,7.525,0.622,11.871,0.313,19.453c-0.52,12.751-1.507,20-4.449,32.418
	c-1.91,8.058-2.902,12.709-6.176,20.316c-6.849,15.92-13.259,24.517-26.563,35.625l-3.594,14.219
	c2.603,11.66,4.773,18.173,9.688,29.063c4.378,9.7,6.972,15.297,13.438,23.75c6.418,8.39,10.665,12.894,19.24,19.062
	c11.468,8.251,19.591,10.676,33.182,14.531c11.016,3.125,17.897,3.514,29.141,6.563c8.614,2.336,13.672,3.359,21.875,6.72
	c7.876,3.225,12.112,5.712,19.063,10.624c4.85,3.428,7.459,5.58,11.746,9.688c4.287-4.107,6.896-6.26,11.745-9.688
	c6.951-4.912,11.188-7.399,19.063-10.624c8.203-3.36,13.262-4.384,21.875-6.72c11.243-3.049,18.125-3.438,29.141-6.563
	c13.592-3.855,21.714-6.28,33.183-14.531c8.575-6.168,12.822-10.672,19.239-19.062c6.466-8.453,9.061-14.05,13.438-23.75
	c4.914-10.89,7.085-17.402,9.688-29.063l-3.594-14.219c-13.304-11.107-19.714-19.704-26.563-35.625
	c-3.271-7.606-0.078-0.625-6.172-20.313c-2.286-7.389-3.933-19.669-4.453-32.422c-0.31-7.582-0.664-11.928,0.313-19.453
	c1.549-11.926,3.513-18.876,9.375-29.375c2.209-3.955,3.381-6.316,6.406-9.688c2.191-2.44,3.448-3.921,6.25-5.625
	c2.205-1.341,3.596-1.93,6.094-2.578c-0.955,0.756-1.416,1.371-1.875,2.5c-0.676,1.666-0.472,2.875,0,4.609
	c0.805,2.957,2.361,4.793,5.234,5.859c2.579,0.957,4.47,0.455,7.031-0.547c2.977-1.164,4.606-2.604,6.172-5.391
	c1.275-2.268,1.501-3.884,1.563-6.484c0.086-3.607-1.074-5.592-2.5-8.906c-2.545-5.917-5.565-8.458-9.922-13.203
	c-4.745-5.169-8.477-6.991-13.516-11.875c-5.062-4.906-8.162-7.528-12.344-13.203c-3.453-4.687-5.164-7.552-7.656-12.813
	c-5.54,1.504-8.799,2.029-14.531,2.344c-10.886,0.597-17.128-1.234-27.656-4.063c-10.469-2.813-16.082-6.445-26.875-8.594
	c-7.881-1.568-13.594-2.344-20.469-2.344c-5.67,0-9.721,0.8-15.469,2.969C171.759,6.318,168.962,7.893,164.66,11.267L164.66,11.267z
	"/>
<path fill="#1F1A17" d="M301.33,213.851c0.916,1.711,1.899,3.406,2.967,5.084
	c4.946,7.78,8.614,12.478,14.405,18.156l-1.866-7.383C310.315,224.235,305.43,219.33,301.33,213.851z M3.131,71.461
	C2.013,76.823,4.351,82.513,9.76,84.63c4.529,1.771,8.938,0.938,10.38-4.363c1.442-5.305-1.276-5.931-5.105-8.96
	c4.732,0.534,11.308,2.023,17.999,9.478c2.738,3.05,4.606,6.394,6.589,9.943c1.334,2.389,2.502,4.715,3.523,7.002
	c-1.984-8.439-5.063-16.527-10.029-24.469c-4.619-7.387-11.527-9.901-20.003-9.525C8.52,63.94,4.402,66.99,3.192,71.477
	L3.131,71.461L3.131,71.461z M10.301,236.703c6.931-6.988,12.87-14.804,17.534-23.407c-4.138,5.579-9.069,10.549-15.688,16.104
	L10.301,236.703L10.301,236.703z M286.146,97.674c1.721-3.947,3.846-7.871,6.488-12.072c3.923-6.237,9.848-11.869,17.133-13.761
	l4.599-0.4c-3.829,3.029-6.625,3.521-5.183,8.826c2.919,10.736,19.792,3.744,17.019-8.809c-1.28-4.468-5.398-7.519-9.993-7.723
	c-3.743-0.166-8.497,0.303-11.836,1.929c-5.457,2.657-7.793,6.985-10.642,11.933C290.149,83.816,287.771,90.636,286.146,97.674
	L286.146,97.674z M320.343,241.935c-11.475-10.689-20.619-23.436-26.37-38.062c-2.028-5.159-5.632-16.752-5.632-16.752
	c-0.414-1.804-1.27-5.236-3.992-14.032c-3.729-12.045-5.87-38.006-4.283-51.734c1.284-18.058,4.027-34.075,13.734-49.599
	c5.194-8.307,12.974-11.279,22.534-10.855c2.107,0.094,4.131,0.664,5.928,1.623c-3.695-6.018-8.968-11.175-14.4-15.49
	c-10.98-8.72-20.577-18.514-26.758-31.283c-15.688,4.102-26.595,2.058-41.783-2.022c-10.435-2.804-16.026-6.432-26.784-8.572
	c-7.774-1.548-13.41-2.316-20.191-2.316c-10.418,0-19.572,3.878-27.654,10.209c-4.672-3.639-7.221-5.248-12.744-7.332
	c-5.607-2.115-9.488-2.877-14.969-2.877c-6.781,0-12.417,0.769-20.191,2.316c-10.758,2.141-16.35,5.769-26.784,8.572
	c-15.188,4.08-26.096,6.124-41.783,2.022c-6.181,12.771-15.777,22.563-26.757,31.283c-5.433,4.314-10.706,9.473-14.401,15.49
	c1.797-0.959,3.82-1.529,5.928-1.623c9.561-0.424,17.34,2.549,22.534,10.855c9.78,15.64,12.49,31.781,13.764,50.006
	c0.506,5.811,0.476,11.872,0.203,18.544c-0.565,13.872-3.275,32.249-8.302,46.887c-4.008,11.533-7.487,22.545-14.106,32.957
	c-5.937,9.339-10.137,14.41-18.103,21.787l-0.229,0.909c3.862,17.215,11.998,37.817,22.793,51.931
	c6.354,8.305,10.504,12.702,18.941,18.772c11.257,8.098,19.178,10.47,32.741,14.317c11.01,3.124,17.888,3.512,29.125,6.559
	c16.61,4.505,27.048,7.422,41.385,17.555c4.525,3.198,7.144,5.316,10.927,8.888c8.717-8.149,19.226-15.144,30.271-19.667
	c8.266-3.386,13.361-4.421,22.041-6.775c11.237-3.047,18.115-3.435,29.125-6.559c13.563-3.848,21.484-6.22,32.741-14.317
	c8.438-6.07,12.588-10.467,18.941-18.772c10.795-14.113,18.931-34.716,22.793-51.931L320.343,241.935L320.343,241.935z
	 M164.661,9.539C172.455,3.703,182.608,0,192.345,0c6.968,0,12.758,0.781,20.745,2.371c10.829,2.155,16.463,5.793,26.967,8.615
	c16.275,4.372,25.846,5.954,42.593,1.409c6.539,13.808,15.195,23.059,26.976,32.415c8.929,7.091,25.047,23.661,17.862,36.444
	c-4.598,8.18-18.051,10.762-21.043-0.245c-0.435-1.599-0.722-3.014-0.212-4.754c-6.611,3.273-10.579,9.629-14.056,15.854
	c-5.856,10.489-8.407,19.728-9.3,29.714l-0.055,0.784c-0.456,5.508-0.412,11.258-0.154,17.581
	c0.519,12.705,2.157,24.844,4.391,32.06c3.07,9.918,3.799,13.118,4.174,14.797c0.427,1.908,1.172,3.574,1.946,5.375
	c6.875,15.982,13.146,24.225,26.522,35.392l3.789,14.992c-4.005,17.946-12.195,38.973-23.456,53.694
	c-6.482,8.475-10.826,13.085-19.538,19.353c-11.681,8.402-20.006,10.881-33.624,14.744c-11.021,3.127-17.907,3.517-29.156,6.567
	c-16.135,4.375-26.578,7.3-40.49,17.133c-4.602,3.252-8.49,6.6-12.555,10.493c-9.231-8.843-19.47-16.096-31.355-20.964
	c-8.141-3.334-13.161-4.345-21.709-6.662c-11.249-3.051-18.135-3.44-29.156-6.567c-13.618-3.863-21.943-6.342-33.624-14.744
	c-8.712-6.268-13.056-10.878-19.537-19.353C18.03,281.78,9.838,260.75,5.832,242.805l3.789-14.992
	c13.375-11.168,19.646-19.41,26.522-35.392c6.455-15.004,9.874-36.623,10.511-52.231c0.258-6.328,0.3-12.07-0.145-17.581
	l-0.046-0.547l-0.008-0.109l-0.009-0.105c-0.894-10.008-3.444-19.246-9.302-29.736c-3.477-6.226-7.444-12.581-14.056-15.854
	c1.35,4.607-1.985,9.962-6.321,11.571c-5.595,2.076-12.213-1.73-14.934-6.572c-2.096-3.729-2.173-7.112-1.342-10.507
	c0.052-0.355,0.158-0.692,0.276-1.023c0.496-1.68,1.186-3.371,1.937-5.116c3.061-7.116,10.987-15.03,16.99-19.798
	c11.781-9.356,20.438-18.608,26.977-32.415c16.748,4.545,26.318,2.963,42.593-1.409c10.504-2.822,16.138-6.46,26.967-8.615
	C124.22,0.781,130.01,0,136.978,0c9.871,0,19.85,3.498,27.684,9.474V9.539L164.661,9.539z"/>
<g id="lion">
	<path fill="#3A75C3" d="M255.081,271.258c-0.388-1.206-0.812-1.96-1.871-2.653
		c-0.722-0.472-1.232-0.707-2.095-0.707h-4.698c-1.191,0-1.841-0.463-2.856-1.087c-1.956-1.201-2.269-2.788-3.577-4.674
		c-1.759-2.535-2.666-4.035-4.093-6.771c2.369,0.301,3.795,0.218,6.113-0.354c1.752-0.433,2.791-0.722,4.296-1.719
		c2.55-1.688,3.879-3.355,4.648-6.315c0.63-2.427,0.657-4.124-0.354-6.418c-1.199-2.721-3.102-3.626-5.71-5.053
		c-1.958-1.07-3.345-1.017-5.407-1.869c-1.897-0.785-3.238-0.884-4.749-2.274c-0.911-0.838-1.691-1.31-1.921-2.526
		c-0.271-1.444,0.195-2.636,1.378-3.51c-2.158-0.136-3.547,0.223-5.369,1.388c-0.987,0.631-1.6,1.029-2.224,2.021
		c-0.634,1.008-0.849,1.739-0.858,2.931c-3.747,0.676-5.852,1.121-9.551,2.021c-5.061,1.23-7.837,2.22-12.834,3.688
		c-6.657,1.956-10.238,3.726-17.028,5.153c-3.944,0.83-6.177,1.655-10.207,1.617c-2.479-0.023-3.891-0.151-6.316-0.707
		c-1.855-0.426-2.829-0.708-4.295-1.971c-1.36-1.174-2.17-2.57-1.667-4.295c0.397-1.365,1.246-2.077,2.577-2.577
		c1.18-0.444,2.112-0.527,3.233,0.051c0.806,0.415,1.364,0.797,1.617,1.667c0.234,0.806,0.129,1.437-0.354,2.122
		c1.021-0.068,1.635-0.205,2.527-0.707c2.425-1.364,2.375-1.971,2.931-3.133c3.95,1.408,7.627,1.069,10.753-0.151
		c3.233-1.264,5.255-4.245,7.528-6.266c-4.144,1.516-8.085,1.01-13.238,0.252c-2.725-0.4-4.261-0.837-7.014-0.808
		c-3.376,0.035-5.446,0.063-8.54,1.414c-2.338,1.022-3.819,1.689-5.406,3.688c-1.624,2.047-2.651,3.815-2.375,6.266
		c0.758,6.721,6.517,8.981,12.885,9.904c3.486,0.505,5.475,0.077,8.943-0.304c4.423-0.484,6.844-1.276,11.168-2.324
		c4.754-1.151,7.348-2.132,12.076-3.385c5.808-1.54,9.099-2.353,14.956-3.689l-0.229,0.021c-0.812,1.05-1.581,2.036-2.609,3.365
		c1.667-0.96,2.859-0.961,4.76-1.162c1.666-0.177,2.623-0.063,4.295,0.051c2.024,0.138,3.13,0.558,5.153,0.707
		c1.612,0.12,2.527,0.142,4.144,0.102c0.317,0.701,0.631,1.077,1.264,1.516c0.728,0.504,1.287,0.673,2.173,0.657
		c-0.218-1.117-0.01-1.947,0.707-2.83c0.785-0.966,1.69-1.163,2.931-1.264c1.686-0.136,3.061,0.19,4.042,1.566
		c0.757,1.061,0.869,2.009,0.606,3.285c-0.313,1.525-1.19,2.253-2.476,3.133c-1.723,1.178-3.17,0.915-5.255,1.011
		c-3.452,0.157-5.279-1.174-8.691-1.719c-3.605-0.575-5.646-1.053-9.297-1.111c-5.167-0.083-8.076,0.68-13.138,1.718
		c-4.711,0.967-7.226,2.095-11.885,3.284c-4.688,1.197-7.315,1.974-12.076,2.83c-4.09,0.735-6.405,1.41-10.561,1.415
		c-3.63,0.004-5.681-0.386-9.247-1.062c-4.28-0.811-6.711-1.067-10.752-3.031c0.418-1.396,0.553-2.232,0.596-3.689
		c0.069-2.364-0.448-3.691-1.111-5.962c-0.581-1.99-1.012-3.094-1.93-4.952c1.158-2.354,1.553-3.896,1.667-6.518
		c0.086-1.962-0.042-3.108-0.556-5.003c-1.228-0.197-1.943-0.231-3.184-0.151c-1.553,0.1-2.441,0.283-3.906,0.809
		c-0.456-0.65-0.752-1.02-1.414-1.466c-1.314-0.884-2.503-1.037-4.194-1.313c-1.027-0.168-1.621-0.213-2.663-0.202
		c-0.311-0.607-0.581-0.929-1.127-1.339c-0.802-0.604-1.463-0.605-2.45-0.783c-1.028-0.186-1.632-0.111-2.677-0.111
		c-1.046,0-1.65-0.074-2.68,0.111c-0.987,0.178-1.648,0.18-2.45,0.783c-0.546,0.41-0.816,0.731-1.127,1.339
		c-1.042-0.011-1.636,0.034-2.663,0.202c-1.691,0.276-2.88,0.43-4.193,1.313c-0.663,0.446-0.959,0.815-1.415,1.466
		c-1.465-0.525-2.354-0.709-3.906-0.809c-1.24-0.08-1.956-0.046-3.184,0.151c-0.514,1.895-0.642,3.041-0.556,5.003
		c0.114,2.621,0.509,4.163,1.667,6.518c-1.096,1.904-1.606,3.061-2.273,5.154c-0.647,2.032-1.011,3.225-1.111,5.355
		c-0.086,1.818,0.006,2.874,0.404,4.649c-0.714,0.979-1.004,1.679-1.162,2.88c-0.062,0.463-0.093,0.834-0.051,1.213
		c-3.367-1.655-5.197-2.785-8.186-5.053c-2.689-2.042-4.337-3.151-6.418-5.812c-1.044-1.334-1.801-2.043-2.374-3.638
		c-0.421-1.168-0.632-1.895-0.557-3.133c0.094-1.531,0.698-2.307,1.364-3.688c0.545-1.13,1.277-1.572,1.617-2.779
		c0.326-1.157,0.458-1.934,0.102-3.082c-0.355-1.145-0.818-1.818-1.819-2.477c-1.138-0.747-2.111-0.919-3.437-0.606
		c-1.157-1.32-2.459-1.82-4.203-1.616c-1.464,0.171-2.249,0.821-3.285,1.869c-1.084,1.098-1.363,2.021-1.869,3.486l-1.162,0.152
		c0.226,1.377-0.504,2.614-1.819,3.082c-0.854,0.304-1.526,0.245-2.314-0.202c-0.705,1.196-0.821,2.213-0.404,3.537
		c0.448,1.423,1.199,2.351,2.628,2.779c1.201,0.359,1.93-0.438,3.184-0.455c0.69-0.01,1.175-0.253,1.769,0.101
		c0.782,0.468,0.826,1.263,0.858,2.173c0.035,0.979-0.048,1.771-0.818,2.375c-0.647,0.509-1.264,0.247-2.071,0.404
		c-0.547-0.739-1.56-0.916-2.324-0.404c-0.506,0.339-0.738,0.756-0.758,1.364c1.168,0.496,1.803,1.364,1.92,2.628
		c0.102,1.093-0.09,1.656-1.011,2.627c0.376,0.607,0.678,1.071,1.323,1.517c0.874,0.602,1.577,0.856,2.628,0.707
		c0.961-0.137,1.329-0.733,2.173-1.213c0.652-0.37,0.924-0.86,1.667-0.96c0.998-0.133,1.627,0.338,2.375,1.011
		c0.972,0.874,1.329,1.775,1.314,3.082c-0.014,1.142-0.289,1.888-1.062,2.729c-0.991,1.079-2.087,1.471-3.537,1.264
		c0.438,1.009,0.837,1.554,1.668,2.273c0.872,0.757,1.473,1.364,2.627,1.364h0.85c0.162,2.024,0.899,3.346,2.536,4.548
		c0.875,0.643,1.47,0.996,2.425,1.111c0.251,1.138,0.537,1.781,1.213,2.729c1.369,1.921,2.857,3.317,5.205,3.083l0.505-0.051
		c0.661,1.697,1.328,2.625,2.729,3.79c1.628,1.354,2.886,2.102,5.003,2.108l4.396,0.014l-6.67,3.638l-11.116,6.569
		c-1.803,1.064-3.116,1.454-5.205,1.313c-1.542-0.104-2.277-0.838-3.789-1.162c-1.63-0.35-2.605-0.812-4.244-0.505
		c-1.542,0.287-2.71,0.519-3.588,1.818c-0.552,0.816-0.733,1.44-0.708,2.426c-1.163,0.608-1.774,1.146-2.526,2.223
		c-0.859,1.232-1.174,2.139-1.263,3.639l-0.01,0.252c0.617,0.019,0.99,0.131,1.516,0.455c1.32,0.815,1.814,2.359,1.213,3.79
		c0.55,0.005,0.881,0.091,1.364,0.354c0.466,0.253,0.71,0.473,1.011,0.909c0.518-1.189,1.237-1.835,2.476-2.224
		c0.997-0.312,1.743-0.366,2.678,0.102c0.98,0.49,1.49,1.151,1.719,2.224h0.117c0.598,0.281,1.004,0.355,1.661,0.303
		c1.22-0.098,2.048-0.639,2.627-1.718l3.133,1.516c0.129-0.984,0.549-1.619,1.405-2.122c0.673-0.396,1.214-0.549,1.971-0.354
		c0.986,0.254,1.596,0.916,1.769,1.92c0.814-0.274,1.161-0.608,1.627-1.264c0.469-0.66,0.707-1.162,0.656-1.97
		c-0.054-0.862-0.909-1.113-1.011-1.972c-0.087-0.736,0.023-1.204,0.354-1.869c0.777-1.563,2.358-2.031,4.093-1.818
		c0.817,0.101,1.39,0.174,1.971,0.758c1.028,1.034,0.981,2.762-0.102,3.738c0.877,0.14,1.413,0.115,2.274-0.101
		c0.966-0.242,1.511-0.521,2.273-1.162c0.985,0.374,1.63,0.459,2.678,0.354c1.439-0.145,2.319-0.538,3.386-1.516
		c1.303,0.461,2.19,0.512,3.537,0.202c1.367-0.314,2.136-0.781,3.133-1.769c0.917-0.908,0.904-1.827,1.718-2.83
		c0.615-0.757,0.909-1.307,1.769-1.768c0.632-0.34,1.052-0.495,1.769-0.506c0.892-0.013,1.344,0.381,2.173,0.708
		c1.559,0.614,2.263,1.332,3.79,2.021c1.421,0.641,2.188,1.259,3.739,1.415c1.122,0.113,1.809,0.099,2.88-0.253
		c1.205-0.395,1.876-0.829,2.729-1.769c1.327,0.221,2.168,0.146,3.436-0.303c1.335-0.474,2.072-0.986,2.981-2.072
		c1.107,0.2,1.801,0.163,2.881-0.151c1.38-0.402,2.163-0.915,3.082-2.021c1.194,0.095,1.933-0.027,3.031-0.506
		c1.333-0.579,2.053-1.196,2.83-2.425c1.393,0.048,2.213-0.07,3.537-0.506c1.255-0.413,1.946-0.778,2.996-1.58
		c-1.045-0.181-1.67-0.521-2.39-1.3c-0.528-0.572-0.927-0.967-0.971-1.743c-0.068-1.225,1.033-1.808,2.031-2.4
		c2.466-1.466,4.896-2.215,7.999-3.688c6.138-2.916,9.563-4.641,15.563-7.832c2.54-1.494,3.95-2.388,6.595-3.688
		c2.778-1.367,4.897-2.661,7.172-3.603c0.438-0.073,1.125-0.188,1.125-0.188c1.758-0.165,3.234,0.8,3.789,2.476
		c0.457,1.38-0.054,2.396-0.809,3.639c-0.948,1.561-2.164,1.954-3.84,2.678c-2.457,1.062-4.201,0.213-6.821,0.758
		c-1.924,0.4-3.084,0.504-4.851,1.364c-2.069,1.009-3.175,1.87-4.649,3.639c-1.507,1.807-1.74,3.244-2.778,5.355
		c-0.817,1.662-0.973,2.77-2.021,4.295c-0.807,1.174-1.354,1.791-2.426,2.729h5.861c-0.762,1.155-1.184,1.811-1.92,2.981
		c-0.701,1.116-1.091,1.75-1.769,2.881c-1.214,0.61-1.956,0.873-3.284,1.161c-1.334,0.29-2.125,0.393-3.486,0.304
		c-1.837-0.12-2.756-0.844-4.548-1.264c-1.72-0.402-2.694-1.083-4.446-0.858c-1.68,0.215-2.677,0.693-3.941,1.818
		c-1.082,0.964-1.793,1.661-2.071,3.083c-0.246,1.253-0.146,2.136,0.505,3.233c0.483,0.815,0.926,1.232,1.769,1.668
		c0.826-0.188,1.347-0.188,2.173,0c0.808,0.184,1.225,0.459,1.92,0.909c0.901,0.584,1.369,1.017,2.021,1.869
		c0.911-0.858,1.683-1.205,2.931-1.313c1.039-0.091,1.736-0.038,2.627,0.505c0.812,0.496,1.221,0.984,1.566,1.87
		c0.993,0.346,1.634,0.418,2.678,0.303c1.104-0.121,1.741-0.366,2.679-0.96c0.613-0.389,0.937-0.665,1.415-1.212
		c1.349,0.12,2.179-0.002,3.436-0.506c2.383-0.956,3.704-2.429,4.396-4.901c1.257-0.667,1.927-1.164,2.931-2.173
		c1.675-1.684,2.43-2.97,3.082-5.255l2.021,7.226c1.028-0.539,1.57-0.997,2.274-1.92c0.863-1.132,1.201-1.971,1.364-3.386
		c1.022-0.474,1.571-0.879,2.324-1.718c0.896-0.997,1.288-1.732,1.617-3.031c1.078-0.62,1.645-1.104,2.425-2.072
		c0.786-0.975,1.317-1.594,1.517-2.829c0.147-0.918-0.128-1.448-0.202-2.375c-0.084-1.044-0.429-1.655-0.202-2.678
		c0.273-1.238,0.976-1.739,1.769-2.729c1.476-1.844,2.833-2.371,4.598-3.94c1.459-1.299,2.342-1.972,3.688-3.386
		c1.257-1.319,1.927-2.128,3.003-3.576c0.328,0.734,0.592,1.766,0.879,2.919c0.61,2.453,0.505,3.79,0.909,6.418
		c0.437,2.837,0.694,4.758,2.637,6.871c1.414,1.538,2.703,1.851,4.548,2.83c1.716,0.91,3.15,0.69,4.538,2.048
		c0.969,0.948,1.412,1.665,1.829,2.954c1.199-0.122,1.925-0.432,2.843-1.212c0.867-0.738,1.271-1.352,1.604-2.439h6.256
		c0.773,1.003,1.118,1.679,1.476,2.894c0.428,1.459,0.876,2.509,0.242,3.891c-0.576,1.257-1.43,1.775-2.719,2.274
		c-1.342,0.519-2.25,0.072-3.688,0.101c-1.754,0.035-2.85-0.552-4.497,0.051c-1.466,0.536-2.378,1.089-3.184,2.426
		c-0.679,1.126-1.054,2.003-0.758,3.284c0.46,1.988,2.319,3.245,4.336,2.931l0.556,0.556c0.981-0.76,1.95-0.932,3.133-0.556
		c0.986,0.313,1.554,0.795,2.021,1.718c1.516,0.505,2.763,0.791,4.446,0.354c0.662-0.172,1.03-0.321,1.627-0.657
		c0.691-1.087,1.592-1.593,2.88-1.616c0.891-0.017,1.444,0.194,2.173,0.707c0.845,0.595,1.249,1.175,1.516,2.173
		c1.002,0.294,1.676,0.294,2.679,0c1.358-0.398,2.226-0.993,2.829-2.274c0.589-1.247,0.354-2.203,0-3.536
		c-0.342-1.288-0.749-2.016-1.667-2.981c0.278-1.353,0.313-2.166,0.151-3.537c-0.182-1.535-0.452-2.416-1.162-3.789h6.72
		c-0.096-0.913-0.205-1.449-0.605-2.274c-0.557-1.145-1.097-2.259-2.053-2.737c0.212-1.167,0.077-2.002-0.524-3.073
		c-0.553-0.985-1.096-1.501-2.122-1.971c-0.385-0.176-0.673-0.297-1.012-0.358c-0.013-1.073-0.157-1.709-0.707-2.674
		c-0.747-1.311-1.519-1.995-2.931-2.526C255.341,272.251,255.281,271.875,255.081,271.258L255.081,271.258z"/>
	<path fill="#C51F3A" d="M129.026,261.188c-0.888,0-1.409-0.104-2.288,0.039c-1.029,0.166-1.815,0.193-2.553,0.775
		c-0.492-1.725-0.647-2.72-0.772-4.565c-0.12-1.79-0.08-2.819,0.158-4.598l0.045,0.111c0.369,0.048,0.749,0.061,1.151,0.04
		c1.736-0.091,3.158-0.598,3.891-2.173c0.272-0.586,0.357-0.972,0.355-1.617c-0.002,0.646,0.081,1.031,0.353,1.617
		c0.731,1.576,2.155,2.082,3.891,2.173c0.403,0.021,0.783,0.008,1.151-0.04l0.045-0.111c0.239,1.778,0.279,2.808,0.158,4.598
		c-0.125,1.846-0.28,2.841-0.772,4.565c-0.736-0.582-1.523-0.609-2.553-0.775C130.407,261.084,129.913,261.188,129.026,261.188
		L129.026,261.188z M73.607,247.964c0.082-0.693,0.004-1.13-0.278-1.769c-0.28-0.635-0.554-0.977-1.111-1.39
		c-0.832,0.276-1.348,0.353-2.224,0.329c-0.854-0.024-1.351-0.123-2.147-0.43c-0.005,1.274,0.283,2.092,1.086,3.082
		c1.081,1.332,2.304,1.878,4.018,1.794C73.364,249.04,73.526,248.64,73.607,247.964L73.607,247.964z M69.867,232.83
		c-0.006-1.202-0.209-1.937-0.82-2.971c-0.359-0.608-0.623-0.93-1.15-1.399c0.823-0.569,1.45-0.764,2.45-0.759
		c1.419,0.008,2.386,0.469,3.285,1.567c0.21,0.731,0.161,1.263-0.178,1.944c-0.315,0.637-0.688,0.925-1.313,1.264
		C71.352,232.905,70.749,232.998,69.867,232.83L69.867,232.83z M79.316,224.67c-0.558,0.18-0.862,0.341-1.339,0.683
		c-0.521,0.373-0.789,0.641-1.162,1.162c-0.064-1.026-0.191-1.616-0.556-2.577c-0.386-1.02-0.706-1.577-1.392-2.426
		c1.024-0.544,1.845-0.628,2.958-0.303c1.603,0.467,2.568,1.581,2.805,3.233C80.111,224.459,79.811,224.511,79.316,224.67
		L79.316,224.67z M87.325,226.084c-0.681-0.431-1.126-0.626-1.921-0.758c-0.622-0.104-0.994-0.104-1.616,0
		c0.549-0.849,0.787-1.396,1.035-2.375c0.238-0.94,0.291-1.509,0.228-2.477c1.833,0.716,2.854,1.845,3.386,3.739
		c0.301,1.073,0.313,1.772,0.051,2.855C88.091,226.626,87.827,226.402,87.325,226.084L87.325,226.084z M72.823,303.494
		c0.101-0.912-0.031-1.513-0.506-2.299c-0.382-0.633-0.729-0.938-1.364-1.314c-0.53-0.314-0.88-0.438-1.49-0.53
		c-1.169,0.608-1.778,1.252-2.324,2.451c-0.542,1.189-0.628,2.063-0.329,3.335c1.14-0.905,1.959-1.284,3.386-1.566
		C71.201,303.371,71.808,303.354,72.823,303.494L72.823,303.494z M81.06,303.824c-0.457-0.441-0.76-0.651-1.314-0.961
		c-0.653-0.364-1.063-0.52-1.793-0.682c-0.567,0.134-0.886,0.275-1.365,0.606c-0.661,0.457-1.013,0.831-1.339,1.566
		c-0.341,0.771-0.298,1.306-0.242,2.147c0.059,0.884,0.191,1.397,0.571,2.198c1.066-1.041,1.75-1.564,3.031-2.325
		c1.221-0.724,1.968-1.059,3.32-1.49C81.64,304.435,81.444,304.196,81.06,303.824L81.06,303.824z M93.566,303.192
		c-0.495-0.446-0.9-0.678-1.566-0.683c-0.771-0.006-1.233,0.329-1.769,0.885c-0.468,0.485-0.783,1.541-0.783,1.541
		c0.229,0.624,0.25,1.04,0.263,1.718c0.013,0.735-0.041,1.161-0.237,1.87c1.359-0.106,2.196-0.462,3.218-1.364
		c0.923-0.815,1.36-1.487,1.668-2.679C94.359,304.48,94.003,303.587,93.566,303.192L93.566,303.192z M158.698,299.983
		c-0.215-0.556-0.581-1.414-0.581-1.414c-1.443-0.076-2.543,0.095-3.461,1.187c-0.883,1.051-1.087,2.167-0.632,3.462
		c0.862-0.505,1.404-0.724,2.375-0.96c1.151-0.281,1.854-0.328,3.031-0.202C159.43,302.055,159.007,300.782,158.698,299.983z
		 M164.003,302.08c-0.438-0.52-0.871-0.645-1.516-0.858c-0.559-0.186-0.903-0.238-1.491-0.228c-0.631,0.35-0.965,0.618-1.439,1.162
		c-0.67,0.767-1.064,1.313-1.188,2.324c-0.107,0.875-0.004,1.442,0.404,2.224c1.094-0.839,1.776-1.248,3.031-1.819
		c1.044-0.475,0.925-0.544,2.779-0.96C164.584,303.925,164.49,302.657,164.003,302.08L164.003,302.08z M171.683,303.622
		c-0.524-1.103-1.685-1.154-2.905-1.162c-0.417-0.003-0.506,0.05-1.062,0.126c-0.444,0.464-0.663,0.77-0.96,1.339
		c-0.462,0.886-0.802,1.487-0.657,2.476c0.091,0.612,0.238,0.97,0.606,1.466c0.968-0.705,1.562-1.051,2.653-1.541
		c0.896-0.402,1.25-0.566,2.375-0.834C171.734,305.491,171.996,304.281,171.683,303.622z M233.278,299.325
		c-1.646,0.69-2.548,1.788-2.905,3.537c-0.197,0.968-0.16,1.59,0.152,2.526c0.994-0.727,1.605-1.083,2.729-1.591
		c1.371-0.621,2.205-0.878,3.688-1.138l0.404-0.479L233.278,299.325L233.278,299.325z M249.6,303.672
		c-0.42,0.893-0.382,1.563-0.165,2.526c0.176,0.78,0.393,1.224,0.898,1.844c0.681-0.935,1.171-1.414,2.122-2.071
		c0.932-0.645,1.413-0.897,2.627-1.238c-0.267-0.998-0.196-1.56-0.858-2.198c-0.646-0.622-1.269-0.85-2.163-0.783
		C250.847,301.841,250.118,302.571,249.6,303.672L249.6,303.672z M236.639,306.198c-0.025-1.392,0.182-2.462,1.264-3.335
		c0.737-0.596,1.354-0.742,2.299-0.783c0.709-0.031,1.143,0.023,1.794,0.303c1.062,0.455,1.659,1.52,1.592,2.552
		c-1.275,0.322-1.997,0.567-3.158,1.188c-1.358,0.727-2.083,1.271-3.158,2.375C236.81,307.69,236.656,307.128,236.639,306.198z"/>
	<path fill="#1F1A17" d="M124.765,226.576l0.694-0.252c0.562-0.204,0.92-0.248,1.516-0.215c0.708,0.039,1.157,0.119,1.743,0.518
		c0.396,0.269,0.58,0.487,0.851,0.88l2.322,3.383c0.212,0.308,0.321,0.506,0.62,0.729c0.4,0.3,0.71,0.409,1.21,0.428
		c-0.699,0.291-1.15,0.378-1.908,0.366c-0.853-0.012-1.402-0.072-2.122-0.53c-0.414-0.264-0.631-0.463-0.922-0.858l-2.543-3.47
		c-0.152-0.207-0.247-0.322-0.446-0.486C125.441,226.787,125.195,226.669,124.765,226.576L124.765,226.576z M120.292,228.509
		l0.645-0.366c0.629-0.357,1.034-0.561,1.756-0.594c0.421-0.019,0.678-0.02,1.072,0.127c0.566,0.21,0.848,0.496,1.183,0.998
		l0.903,1.352c0.183,0.273,0.263,0.447,0.48,0.694c0.31,0.353,0.525,0.527,0.935,0.758h-2.211c-0.571,0-0.94-0.028-1.428-0.328
		c-0.415-0.256-0.569-0.52-0.846-0.922l-0.777-1.131c-0.28-0.408-0.635-0.513-1.124-0.588
		C120.654,228.475,120.519,228.475,120.292,228.509L120.292,228.509z M131.118,226.779h0.568c0.476,0,0.748,0.019,1.213,0.113
		c0.643,0.132,1.026,0.228,1.579,0.582c0.426,0.272,0.692,0.442,0.96,0.871l0.758,1.213c0.212,0.339,0.334,0.541,0.632,0.809
		c0.465,0.418,0.824,0.595,1.44,0.707h-2.603c-0.609,0-1.002-0.021-1.528-0.328c-0.479-0.28-0.682-0.564-0.973-1.036l-0.632-1.023
		c-0.41-0.664-0.558-1.118-1.124-1.654C131.3,226.928,131.236,226.872,131.118,226.779L131.118,226.779z M194.903,283.51
		c-0.499-1.702-0.536-2.814-0.152-4.547c0.298-1.345,0.601-2.059,1.415-3.234c0.909-1.313,1.75-2.057,3.234-2.843
		c2.071-1.099,3.385-1.199,5.608-1.705c1.717-0.39,2.654-0.813,4.193-1.667c1.263-0.699,1.942-1.176,3.032-2.122
		c-1.424,2.032-2.413,3.091-4.346,4.648c-1.579,1.273-2.425,1.819-4.396,2.779c-1.784,0.869-2.532,1.229-3.941,2.324
		c-1.387,1.077-2.212,1.721-3.184,3.184C195.612,281.466,195.276,282.196,194.903,283.51L194.903,283.51z M229.463,273.809
		c0.529,1.397,0.987,2.16,1.971,3.284c1.18,1.347,1.979,2.199,3.689,2.729c0.892,0.276,1.44,0.304,2.374,0.304h8.54
		c-0.275-0.688-0.48-1.063-0.91-1.668c-0.484-0.682-0.756-1.122-1.465-1.566c-1.241-0.777-2.275-0.396-3.739-0.354
		c-1.031,0.029-1.597,0.269-2.627,0.304c-1.244,0.042-1.968,0.063-3.184-0.202c-1.194-0.261-1.923-0.421-2.931-1.112
		C230.4,274.99,229.999,274.59,229.463,273.809z M111.933,255.846c-0.311,0.523-0.422,0.854-0.657,1.415
		c-0.203,0.486-0.31,0.765-0.479,1.263c-0.085-0.673-0.146-1.052-0.278-1.718c-0.126-0.635-0.362-0.969-0.379-1.617
		c-0.025-0.963,0.111-1.598,0.683-2.374l1.971-2.679c0.313-0.427,0.37-0.762,0.429-1.288c0.045-0.402,0.033-0.641-0.05-1.036
		c0.47,0.362,0.705,0.628,1.01,1.137c0.451,0.753,0.668,1.3,0.582,2.173c-0.074,0.747-0.324,1.156-0.759,1.769l-1.552,2.189
		C112.243,255.374,112.117,255.535,111.933,255.846L111.933,255.846z M114.561,255.619c0.423,0.607,0.618,0.992,0.858,1.692
		c0.226,0.656,0.365,1.05,0.354,1.743c-0.012,0.71-0.138,1.121-0.43,1.769c-0.268,0.596-0.612,0.821-0.935,1.39
		c-0.362,0.641-0.633,0.997-0.783,1.719c-0.138,0.665-0.138,1.077,0,1.742c-0.39-0.514-0.583-0.831-0.858-1.414
		c-0.393-0.828-0.711-1.333-0.683-2.249c0.027-0.878,0.356-1.341,0.758-2.122c0.307-0.596,0.618-0.851,0.935-1.44
		c0.33-0.614,0.569-0.958,0.708-1.642C114.577,256.352,114.594,256.082,114.561,255.619z M146.091,255.846
		c0.31,0.523,0.422,0.854,0.656,1.415c0.204,0.486,0.31,0.765,0.48,1.263c0.084-0.673,0.146-1.052,0.277-1.718
		c0.127-0.635,0.362-0.969,0.379-1.617c0.025-0.963-0.11-1.598-0.682-2.374l-1.971-2.679c-0.314-0.427-0.371-0.762-0.43-1.288
		c-0.045-0.402-0.033-0.641,0.051-1.036c-0.47,0.362-0.706,0.628-1.011,1.137c-0.451,0.753-0.668,1.3-0.581,2.173
		c0.074,0.747,0.324,1.156,0.758,1.769l1.553,2.189C145.781,255.374,145.906,255.535,146.091,255.846L146.091,255.846z
		 M143.463,255.619c-0.424,0.607-0.619,0.992-0.859,1.692c-0.225,0.656-0.365,1.05-0.354,1.743c0.012,0.71,0.139,1.121,0.43,1.769
		c0.268,0.596,0.613,0.821,0.935,1.39c0.362,0.641,0.633,0.997,0.783,1.719c0.139,0.665,0.139,1.077,0,1.742
		c0.391-0.514,0.583-0.831,0.859-1.414c0.392-0.828,0.71-1.333,0.682-2.249c-0.027-0.878-0.355-1.341-0.758-2.122
		c-0.307-0.596-0.618-0.851-0.935-1.44c-0.33-0.614-0.568-0.958-0.708-1.642C143.447,256.352,143.429,256.082,143.463,255.619
		L143.463,255.619z M133.021,239.998c0-0.566,0.233-1.079,0.609-1.446h-1.587c-0.406,0-0.623,0.222-0.909,0.51
		c-0.2,0.202-0.295,0.345-0.404,0.606l-0.001-1.21c0-0.643-0.108-1.127,0.304-1.619c0.292-0.349,0.557-0.578,1.011-0.578h6.631
		c0.5,0,0.794-0.079,1.252-0.281c0.6-0.265,0.922-0.522,1.313-1.048c0.084,1.043-0.16,1.763-0.858,2.54
		c-0.586,0.652-1.095,1.08-1.971,1.08h-1.957c0.376,0.367,0.609,0.88,0.609,1.446c0,1.117-0.904,2.021-2.021,2.021
		S133.021,241.115,133.021,239.998L133.021,239.998z M120.96,239.998c0-0.566,0.233-1.079,0.609-1.446h-1.956
		c-0.877,0-1.385-0.428-1.971-1.08c-0.699-0.777-0.942-1.497-0.859-2.54c0.392,0.525,0.715,0.783,1.314,1.048
		c0.457,0.202,0.751,0.281,1.251,0.281h6.631c0.454,0,0.719,0.229,1.011,0.578c0.413,0.492,0.304,0.977,0.304,1.619v1.21
		c-0.109-0.262-0.204-0.404-0.404-0.606c-0.287-0.288-0.504-0.51-0.91-0.51h-1.587c0.377,0.367,0.609,0.88,0.609,1.446
		c0,1.117-0.904,2.021-2.021,2.021S120.96,241.115,120.96,239.998z M129.019,280.396c-0.653-0.119-1.02-0.213-1.65-0.423
		c-1.129-0.374-1.75-0.663-2.753-1.313c-0.647-0.384-1.072-0.831-1.33-1.32c-2.31-0.38-4.022-2.363-4.025-4.734
		c-3.055-1.569-4.417-5.509-2.892-8.578c0,0,0.323-0.671,0.415-1.132c0.118-0.59,0.118-0.952,0-1.541
		c0.342,0.515,0.536,0.804,0.885,1.313c0.331,0.484,0.631,0.69,0.858,1.237c0.253,0.606,0.127,1.542,0.127,1.542
		c-0.683,1.869-0.039,3.52,1.491,4.587c0,0,0.295-0.702,0.391-1.177c0.107-0.532,0.124-0.848,0.089-1.39
		c-0.031-0.475-0.079-0.744-0.215-1.2c0.335,0.538,0.539,0.834,0.922,1.34c0.256,0.338,0.469,0.479,0.682,0.846
		c0.269,0.461,0.423,0.757,0.455,1.289c0.029,0.479-0.232,1.207-0.232,1.207c-0.181,0.787-0.466,1.449-0.235,2.239
		c0.195,0.671,0.604,1.152,1.159,1.397c0.204-0.735,0.534-1.473,0.869-2.161c0,0,0.073-0.542,0.057-0.889
		c-0.024-0.514-0.089-0.811-0.278-1.289c0.462,0.373,0.713,0.596,1.137,1.011c0.359,0.351,0.451,0.501,0.885,0.935
		c0.276,0.276,0.516,0.992,0.404,1.643c-0.056,0.322-0.304,0.783-0.304,0.783c-0.343,0.823-0.362,1.745,0.329,2.375
		c0.438,0.398,0.861,0.355,1.439,0.479l-0.004-4.825h2.636l-0.004,4.825c0.579-0.124,1.003-0.081,1.44-0.479
		c0.69-0.63,0.671-1.552,0.328-2.375c0,0-0.248-0.461-0.304-0.783c-0.11-0.65,0.129-1.366,0.404-1.643
		c0.434-0.434,0.525-0.584,0.885-0.935c0.425-0.415,0.676-0.638,1.137-1.011c-0.189,0.479-0.253,0.775-0.277,1.289
		c-0.017,0.347,0.056,0.889,0.056,0.889c0.335,0.688,0.665,1.426,0.869,2.161c0.556-0.245,0.965-0.727,1.16-1.397
		c0.229-0.79-0.055-1.452-0.236-2.239c0,0-0.261-0.729-0.232-1.207c0.032-0.532,0.187-0.828,0.455-1.289
		c0.214-0.366,0.426-0.508,0.683-0.846c0.382-0.506,0.586-0.802,0.922-1.34c-0.136,0.456-0.185,0.726-0.215,1.2
		c-0.035,0.542-0.02,0.857,0.088,1.39c0.097,0.475,0.392,1.177,0.392,1.177c1.53-1.067,2.173-2.718,1.491-4.587
		c0,0-0.127-0.936,0.126-1.542c0.229-0.547,0.527-0.753,0.859-1.237c0.349-0.51,0.543-0.799,0.884-1.313
		c-0.117,0.589-0.117,0.951,0,1.541c0.093,0.461,0.415,1.132,0.415,1.132c1.525,3.069,0.163,7.009-2.892,8.578
		c-0.002,2.371-1.716,4.354-4.024,4.734c-0.258,0.489-0.684,0.937-1.331,1.32c-1.002,0.65-1.624,0.938-2.753,1.313
		C130.03,280.181,129.672,280.277,129.019,280.396L129.019,280.396z M128.028,262.415c-1.655,0.177-4.357,0.363-3.805,1.934
		c0.375,1.063,1.438,1.145,2.54,1.376c0.859,0.181,1.372-0.041,2.25-0.037c0.887,0.005,1.405,0.245,2.272,0.063
		c1.1-0.232,2.139-0.344,2.518-1.401c0.571-1.595-2.197-1.79-3.885-1.943c-0.352-0.032-0.597-0.014-0.905-0.014
		C128.558,262.392,128.409,262.375,128.028,262.415z M132.918,260.169c0.308-1.514,0.45-3.044,0.427-4.583l-1.678,1.99
		c0,0-1.188-2.242-1.336-2.303c-0.504,0.266-0.795,0.246-1.318,0.247c-0.507,0.001-0.788,0.032-1.279-0.228
		c-0.242,0.064-1.379,2.281-1.379,2.281l-1.677-1.988c-0.023,1.538,0.119,3.066,0.426,4.579c0.967-0.217,2.422-0.3,3.909-0.294
		C130.529,259.877,131.737,259.857,132.918,260.169z M135.9,253.906c0.175,2.104,0.076,4.197-0.298,6.264
		c0.418,1.041,0.795,2.562,0.795,3.938c0,2.659-2.257,4.335-4.883,4.187c-0.767-0.043-1.595-0.216-2.501-0.216
		c-2.628,0-3.702,0.942-6.143-1.04c-0.965-0.784-1.243-1.717-1.243-2.931c0-1.431,0.301-2.963,0.777-4.031
		c-0.359-2.036-0.453-4.098-0.281-6.17c-1.943-0.692-3.526-2.28-3.777-4.819c-4.464-0.612-7.085-5.109-6.817-9.334
		c0,0,0.313-1.417,0.809-2.173c0.52-0.793,0.946-1.195,1.769-1.668v4.346c0,3.338,1.93,6.336,5.555,6.262l1.522-0.031
		c-0.165,1.331-0.479,2.243,0.176,3.47c1.53,2.864,6.842,2.11,6.448-1.385c-1.246-0.483-2.13-1.693-2.13-3.111h6.676
		c0,1.418-0.888,2.629-2.137,3.111c-0.393,3.495,4.919,4.249,6.449,1.385c0.655-1.227,0.341-2.139,0.176-3.47l1.521,0.031
		c3.626,0.074,5.556-2.924,5.556-6.262v-4.346c0.821,0.473,1.249,0.875,1.769,1.668c0.495,0.756,0.808,2.173,0.808,2.173
		c0.268,4.225-2.354,8.722-6.817,9.334C139.426,251.626,137.843,253.214,135.9,253.906L135.9,253.906z M245.506,269.111
		c-1.948-0.548-4.097-1.869-5.507-4.271c-1.487-2.533-2.859-4.736-4.405-7.4c0,0-0.497-0.825-1.032-1.779
		c-0.367-0.655-1.057-1.38-1.536-1.835c4.825,0.707,9.343,0.385,12.91-2.147c3.486-2.477,5.087-6.389,3.259-10.535
		c-1.155-2.62-4.856-4.515-7.504-5.28c-4.8-1.39-11.697-3.79-10.308-8.438c-3.265,0.93-4.648,3.284-3.512,5.861
		c-3.786,0.194-4.794,1.973-7.125,4.421c-0.903,0.949-1.544,1.825-2.173,2.628c0.636-0.077,1.394-0.064,2.296-0.003
		c0.381-0.015,0.959-0.072,1.331-0.275c0.483-0.264,1.011-0.985,1.011-0.985l1.212-1.516c0.652-0.815,1.314-1.162,2.274-1.415
		c0.802-0.211,1.292-0.163,2.122-0.151c0.692,0.01,1.085,0.043,1.769,0.151c-0.467,0.079-0.73,0.159-1.162,0.354
		c-0.714,0.321-1.06,0.639-1.617,1.188c-0.361,0.357-0.511,0.61-0.838,0.998c0,0-0.751,0.86-1.208,1.43
		c-0.153,0.191-0.33,0.42-0.5,0.644c0.68,0.135,1.145,0.312,2.018,0.288c0.401-0.035,0.736-0.157,1.146-0.403
		c0.378-0.226,0.528-0.443,0.837-0.757c0.469-0.479,1.087-1.33,1.087-1.33c0.661-0.809,1.313-1.162,2.273-1.415
		c0.803-0.211,1.293-0.163,2.122-0.151c0.692,0.01,1.085,0.044,1.769,0.151c-0.467,0.08-0.729,0.16-1.162,0.354
		c-0.713,0.321-1.06,0.639-1.616,1.188c-0.362,0.357-0.51,0.61-0.839,0.998l-1.348,1.59c0.744,0.172,1.552,0.265,2.864-0.146
		c0.127,0.707,0.278,1.414,1.566,2.198c-0.404-6.569,12.329-5.584,10.713,2.299c-0.561,2.732-3.522,4.653-6.176,4.949
		c-5.44,0.607-7.096-0.875-11.809-1.627c-9.707-1.548-12.639-1.329-21.961,0.596c-8.864,1.83-16.858,4.657-25.794,6.339
		c-8.369,1.576-11.217,1.364-19.302,0.051c-3.397-0.552-5.057-0.988-7.067-1.493c0.363,2.454-0.485,5.025-1.531,7.334
		c1.817,3.353,0.576,7.874-2.775,9.787c0.467,2.922-1.171,5.777-3.757,7.095c0.361,1.579,0.47,3.185-0.027,4.968
		c1.901,0.76,3.619,1.715,5.301,2.798c0.563,0.362,1.438,0.794,2.376,0.638c0.72-0.165,1.313-0.483,1.87-0.998
		c-1.682-0.938-3.613-1.978-3.613-1.978c-0.628-0.348-0.98-0.553-1.639-0.839c-0.663-0.289-1.05-0.429-1.743-0.632
		c0.581-0.344,0.941-0.498,1.591-0.683c0.756-0.213,1.214-0.313,1.996-0.252c0.777,0.061,1.237,0.18,1.92,0.556
		c0,0,1.443,0.776,2.896,1.591c0.473,0.266,1.069,0.454,1.872,0.427c0.805-0.056,1.524-0.223,2.57-0.622
		c-6.477-5.631,5.62-8.874,8.923-10.443c6.103-2.899,9.515-4.616,15.467-7.782c4.152-2.617,8.814-5.109,13.303-7.102
		c4.453-1.977,12.793-3.183,17.238-0.404c3.904,2.44,6.011,7.183,6.096,11.65c0.07,3.754,1.076,8.953,4.676,10.892
		c1.667,0.897,6.577,2.405,7.63,3.436c0.817,0.8,1.008,1.176,1.415,2.072c1.668-0.579,1.85-1.616,2.319-3.15h7.913
		c2.198,3.555,5.255,9.744-1.208,11.605c-3.494,1.006-8.275-1.72-10.642,2.206c-0.997,1.656-0.672,3.652,1.288,3.853
		c0.085-0.329,0.198-0.667,0.38-1.022c0.316-0.621,0.5-0.99,0.985-1.49c1.046-1.079,2.062-1.402,3.563-1.466
		c1.002-0.042,1.609,0.073,2.526,0.48c-0.489,0.002-0.773,0.049-1.238,0.202c-0.745,0.245-1.158,0.512-1.692,1.086
		c-0.535,0.575-0.764,1.009-0.96,1.769c-0.073,0.281-0.112,0.57-0.129,0.874c0.721-0.131,1.461-0.127,2.179,0.014
		c1.026,0.201,1.854,0.826,2.354,1.661c0.331,0.071,0.665,0.067,1.078,0.003c0.211-0.033,0.401-0.077,0.578-0.135
		c-0.005-0.321,0.014-0.657,0.085-1.025c0.133-0.685,0.206-1.091,0.536-1.704c0.769-1.431,1.809-2.008,3.373-2.441
		c0.833-0.23,1.339-0.202,2.208-0.185c-0.469,0.138-0.729,0.261-1.134,0.536c-0.648,0.44-0.973,0.811-1.328,1.51
		c-0.355,0.7-0.455,1.181-0.436,1.965c0.008,0.302,0.054,0.601,0.126,0.909c2.32-2.066,6.185-1.944,6.778,1.303
		c4.901,0.935,4.927-3.714,2.491-6.545l-0.419-0.302c0.846-4.101,0.062-5.649-1.802-9.251h7.41
		c-0.093-0.512-0.212-0.804-0.505-1.233c-0.595-0.872-1.27-1.386-2.324-1.386h-3.613c-0.847,0-1.367-0.132-2.097-0.56
		c-0.733-0.431-0.999-0.892-1.516-1.566c-0.397-0.52-0.531-0.783-0.898-1.415c0.333,0.307,0.559,0.452,0.974,0.632
		c0.585,0.252,0.973,0.273,1.609,0.273h5.288c0.179,0,0.355,0.014,0.53,0.039c-0.076-0.437-0.129-0.756-0.379-1.172
		c-0.543-0.904-1.269-1.386-2.324-1.386h-4.338c-0.846,0-1.368-0.128-2.097-0.56c-0.689-0.408-0.944-0.836-1.439-1.466
		c-0.436-0.552-0.671-0.858-0.974-1.516c0.333,0.307,0.558,0.453,0.974,0.632c0.584,0.252,0.972,0.274,1.608,0.274h5.234
		c-0.066-0.374-0.132-0.67-0.356-1.044c-0.544-0.905-1.269-1.386-2.324-1.386h-4.337c-0.846,0-1.396-0.218-2.125-0.649
		c-0.688-0.408-0.944-0.836-1.439-1.465c-0.435-0.553-0.671-0.859-0.974-1.517c0.333,0.308,0.558,0.453,0.974,0.632
		c0.584,0.252,0.975,0.274,1.611,0.274h5.231c-0.066-0.373-0.132-0.67-0.356-1.044c-0.543-0.904-1.269-1.386-2.324-1.386h-4.339
		C245.932,269.203,246.002,269.147,245.506,269.111L245.506,269.111z M246.417,266.568l4.725,0.001c2.777,0,4.907,2.748,5.455,5.498
		c1.905,0.815,3.285,2.929,3.713,5.077c2.308,0.988,3.841,3.858,3.853,6.417c2.05,2.017,3.305,5.47,2.642,7.732
		c0,0-0.708-1.094-1.415-1.44c-0.559-0.274-0.944-0.304-1.566-0.304h-3.354c0.728,1.617,0.904,4.396,0.525,6.342
		c2.837,3.375,3.004,9.347-2.375,10.207c-1.447,0.231-2.221,0.142-3.405-0.18c-2.048,0.67-3.055,1.336-4.806,3.741
		c-0.993-1.217-1.762-1.752-2.094-3.209c-0.133-0.578-0.212-1.063-0.201-1.536c-0.895,0.517-2.001,0.826-3.439,0.646
		c-3.512,1.219-4.831,1.899-7.757,4.478c-0.96-1.263-1.462-2.201-1.491-3.789c-0.014-0.769,0.032-1.44,0.206-2.052
		c-2.014,0.421-3.319,1.086-5.436,2.633c-0.758-1.415-1.181-2.329-0.794-4.221c0.346-1.695,1.063-2.75,2.176-3.548
		c-0.437-3.414,2.562-7.541,7.359-7.314c3.391,0.16,9.349,1.566,7.453-4.396c-0.294-0.925-0.632-1.188-1.096-1.93h-4.448
		c-1.215,2.687-3.476,3.976-7.139,4.152c0.783-0.758,0.318-1.979,0.016-2.483c-1.102-1.837-2.633-1.475-5.473-3.024
		c-5.003-2.729-5.986-3.082-7.681-9.954c-0.441-1.792-0.658-5.05-1.093-7.397c-2.215,2.567-4.869,4.807-7.639,6.884
		c-1.164,0.874-3.959,3.47-3.673,5.188c0.495,2.981,1.255,4.138-0.241,6.317c-0.249,0.363-0.636,0.907-1.125,1.414
		c-0.727,0.752-1.179,1.054-2.118,1.643c-0.59,1.944-2.154,4.078-3.943,5.053c-0.683,2.905-3.596,5.467-6.418,6.947
		c0,0,0.303-0.676,0.379-1.137c0.104-0.625,0.091-1.012-0.08-1.622l-0.938-3.347c-1.113,1.713-2.539,3.232-4.312,4.236
		c-0.202,3.663-4.801,6.189-8.54,6.189c-2.179,2.161-5.6,2.673-8.493,1.907c-2.333,0.717-4.262,1.523-5.872,3.073
		c-1.306-1.757-1.812-2.811-1.451-4.275c-2.527,0.443-4.098,1.097-6.72,2.883c-0.78-1.495-1.103-2.031-0.884-3.815
		c0.04-0.328,0.109-0.642,0.204-0.939c-1.063-0.107-1.858-0.041-4.095,1.268c-0.809-1.895-1.182-3.672,0.53-5.709
		c0.686-0.815,1.338-1.245,2.048-1.46c-0.071-4.284,5.226-8.745,10.335-7.294c4.701,1.335,7.371,2.919,12.352,0.518
		c0.566-0.942,0.479-0.927,0.833-1.491c0.473-0.751,0.769-1.159,1.339-1.84c-0.648,0.063-1.017,0.079-1.667,0.072
		c-1.079-0.013-1.705-0.022-2.754-0.278c-0.793-0.194-1.971-0.707-1.971-0.707c3.714-1.87,4.267-4.206,7.176-10.764
		c2.839-6.4,8.16-8.463,16.422-8.741c6.788-0.229,7.897-6.597,3.76-6.563c-5.059,1.795-10.843,5.157-14.316,7.349
		c-6.54,3.479-13.129,6.853-19.946,9.754c-0.479,0.203-5.941,2.084-4.71,3.504c1.414,1.633,2.75,1.401,4.961,1.783
		c-2.95,2.253-5.128,4.152-9.043,4.196c-1.339,1.809-3.733,2.983-5.983,2.951c-1.482,1.563-3.87,2.45-6.018,2.23
		c-1.594,1.661-4.157,2.599-6.447,2.365c-2.234,2.144-5.776,2.554-8.551,1.302c-1.275-0.575-6.223-3.517-7.223-3.501
		c-3.316,0.049-2.48,5.543-8.111,6.838c-1.327,0.306-2.342,0.311-3.535-0.013c-1.651,1.281-4.102,1.741-6.112,1.162
		c-2.517,1.769-4.249,1.27-7.055,0.825c1.313-0.884,2.577-3.84,0.126-4.143c-1.567-0.194-3.504,1.409-2.501,2.854
		c0.632,0.909,1.39,2.198-0.101,4.396c-0.405,0.597-1.274,1.33-2.328,1.634c-0.525,1.011-1.331,1.885-2.473,2.637
		c-1.383,0.91-2.805,1.111-4.067,1.212c0.297-1.609,0.253-2.388-0.169-3.681c-0.288-0.063-0.576-0.141-0.816-0.235
		c-0.243-0.095-0.515-0.237-0.773-0.388c-1.304,1.443-3.418,1.731-5.271,0.952c-2.96,1.122-4.527,2.358-5.956,3.832
		c-1.012-1.185-1.792-2.835-1.677-4.931c-1.779-0.826-4.522-0.734-7.241,1.621c-1.364-1.869-1.24-4.665,0.303-6.847
		c0.553-0.782,1.008-1.228,1.747-1.679c0.092-3.065,1.376-4.349,3.281-5.521c0.374-3.806,5.087-5.766,8.388-5.154
		c3.942,0.729,6.518,2.513,10.203,0.394l11.136-6.466l2.385-1.301h-0.354c-2.328,0-6.074-2.505-6.909-4.432l-0.703-1.278h-0.815
		c-2.329,0-4.898-2.505-5.733-4.432l-0.665-1.534c-1.992-0.536-3.841-2.636-4.563-4.302l-0.54-1.247
		c-2.206-0.237-4.353-2.585-5.145-4.412l-1.2-2.672c1.313,1.213,3.84,1.238,4.977-0.007c1.743-1.911-0.35-5.574-2.273-4.086
		c-2.148,1.661-3.982,2.669-6.721,0.809c-0.79-0.537-1.505-1.243-2.007-2.064c-1.269-0.231-2.312-0.834-3.33-2.09
		c-0.969-1.195-1.348-2.27-1.342-3.809l0.006-1.662c1.855,0.714,2.697,1.117,4.101,0.906c0.142-0.603,0.453-1.102,1.183-1.59
		c0.515-0.344,0.972-0.38,1.617-0.354c0.34,0.014,0.527,0.077,0.859,0.151c0.471,0.106,0.712,0.44,1.188,0.354
		c0.863-0.157,1.355-1.277,0.935-2.049c-0.137-0.25-0.262-0.381-0.506-0.528c-0.706,0.384-1.294,0.56-1.945,0.682
		c-0.701,0.133-1.985,0.112-2.526-0.05c-3.398-1.019-4.5-5.206-2.915-8.183c-0.087-0.789-0.394-1.459-0.899-2.251
		c-0.466-0.728-0.819-1.104-1.517-1.615c0.783-1.544,2.719-2.068,4.699-1.948c1.12,0.068,2.309,0.797,3.221,1.506
		c0.333-0.883,0.748-1.64,1.266-2.283c-0.354-1.927-1-3.197-2.439-4.604c1.186-0.929,2.963-1.705,5.121-1.075
		c1.847,0.539,2.736,1.561,3.233,2.91c0.657,0.007,1.274,0.146,1.854,0.395c0.734-0.984,1.031-1.994,0.705-4.276
		c2.526,0.505,4.739,2.278,5.457,5.102c0.195,0.767,0.244,1.323,0.192,1.899c2.004,2.038,2.41,5.668,0.505,8.281
		c-3.063,4.199-2.442,6.273,0.654,10.231c2.784,3.56,8.181,7.283,12.435,9.604c0.158-0.796,0.458-1.571,0.935-2.303
		c-1.029-5.048,0.444-10.498,2.904-14.929c-1.947-4.22-1.862-8.26-0.676-12.635c2.601-0.418,5.109-0.51,7.662,0.274
		c1.783-2.065,5.395-2.685,8.001-2.747c1.604-2.258,4.123-2.352,7.004-2.352s5.399,0.095,7.002,2.352
		c2.605,0.063,6.217,0.682,8.001,2.747c2.553-0.784,5.063-0.692,7.662-0.274c1.192,4.398,1.269,8.443-0.698,12.682
		c1.975,4.117,3.573,9.219,2.558,13.813c6.517,2.434,17.435,4.291,24.184,3.119c5.851-1.016,9.511-1.664,15.224-3.24
		c15.754-4.345,19.813-7.037,36.181-4.427c3.363,0.536,9.449,2.652,12.995,0.921c3.462-1.691,1.871-5.531-1.338-5.506
		c-2.958,0.022-2.729,2.678-1.92,4.017c-2.331,0.044-4.199,0.096-5.635-2.071c-0.657,0.039-1.227,0.069-1.995-0.051
		c-0.813-0.127-1.272-0.265-2.021-0.606c-1.077,0.269-1.863,0.377-2.83,0.303c-1.313-0.101-3.183-0.606-3.183-0.606
		c-0.266,0.054-0.82,0.276-1.364,0.354c-0.801,0.113-1.443,0.016-2.072-0.051c-1.92-0.202-2.271-0.153-3.587,0.177
		c-0.78,0.195-1.197,0.352-1.921,0.683c-0.71,0.324-1.099,0.544-1.743,0.985c0.364-0.798,0.593-1.239,1.036-1.996
		c0.237-0.405,0.6-0.96,0.778-1.229c-3.628,0.802-6.437,1.409-10.809,2.568c-8.985,2.383-23.306,7.346-32.745,5.978
		c-6.404-0.928-13.133-3.327-14.005-11.06c-0.615-5.456,3.624-9.344,8.424-11.214c3.458-1.347,5.786-1.632,9.211-1.621
		c4.255,0.015,6.354,0.661,10.748,1.268c1.26,0.174,2.93,0.44,4.8,0.303c1.704-0.125,2.69-0.273,4.296-0.858
		c1.582-0.577,2.449-1.052,3.789-2.072c-0.64,1.29-1.055,1.996-1.869,3.184c-0.873,1.271-2.076,2.665-2.477,3.082
		c-3.335,3.487-7.832,7.529-16.624,5.457c-1.364,2.679-5.153,3.437-8.438,2.729c1.062-0.782,2.123-2.678,0.38-3.512
		c-3.289-1.572-6.948,4.447,1.087,6.271c10.792,2.448,22.879-3.103,32.886-6.044c7.158-2.104,13.601-4.521,21.154-5.557
		c0.783-4.118,6.212-6.791,10.137-6.544c0,0,0.892,0.069,1.457,0.151c0.626,0.091,0.978,0.157,1.593,0.304
		c-0.681,0.277-1.044,0.25-1.691,0.783c-1.308,1.077-1.945,2.779-1.008,4.01c0.28,0.368,0.705,0.754,1.261,1.194
		c2.426,1.92,7.088,2.458,9.854,3.841c5.255,2.627,8.135,6.872,6.922,12.531c-1.372,6.405-7.907,10.308-14.448,10.028
		c0.461,0.812,2.633,4.427,4.204,6.688c0.612,0.88,1.113,1.842,2.261,2.46C245.302,266.342,245.701,266.568,246.417,266.568
		L246.417,266.568z M156.994,299.702c-0.857,0.029-1.131,0.246-1.589,0.791c-0.277,0.33-0.577,1.028-0.474,1.714
		c0,0,0.637-0.424,1.087-0.606c0.858-0.35,1.925-0.324,2.35-0.354c0,0-0.684-0.43-0.985-0.833
		C157.195,300.16,157.09,299.935,156.994,299.702L156.994,299.702z M163.194,302.763c-0.385-0.195-1.116-0.665-1.891-0.621
		c-0.45,0.159-0.697,0.313-1.04,0.646c-0.514,0.501-0.726,0.932-0.834,1.642c-0.052,0.341-0.052,0.544,0,0.885
		c0.656-0.644,1.098-0.957,1.921-1.364c0.841-0.417,1.608-0.521,2.299-0.708C163.566,303.003,163.425,302.879,163.194,302.763
		L163.194,302.763z M110.19,277.801c-1.83-1.526-2.854-4.002-2.426-6.381c-2.893-2.098-4.06-6.168-2.782-9.479
		c-0.747-1.282-1.389-2.741-1.713-4.236c-3.348-1.973-7.918-4.887-11.882-8.526c-4.23-3.883-7.285-8.526-5.347-12.919
		c1.08-2.449,4.707-6.239,1.277-8.493c-0.433-0.284-0.801-0.434-1.155-0.495c-0.253,3.311-2.123,4.221-2.123,4.221
		c0.91-2.604,0.158-4.301-0.479-4.802c-1.865-1.465-4.067-1.111-5.505,0.548c-0.194,0.224-0.361,0.445-0.51,0.67l0.279,0.147
		c0.771,0.419,1.26,0.675,1.769,1.389c0.602,0.844,0.73,1.517,0.733,2.552c0.002,0.754-0.088,1.2-0.38,1.896
		c-0.221-0.877-0.502-1.377-1.137-2.021c-0.754-0.766-1.379-1.172-2.45-1.264c-0.688-0.059-1.184,0.012-1.732,0.269
		c-0.148,1.852-1.431,3.022-3.295,2.789c-1.415,1.49-0.102,4.497,2.374,4.219c0.628-0.07,0.994-0.098,1.592-0.301
		c0.485-0.164,0.752-0.289,1.188-0.558c0.847,0.25,1.53,0.843,1.896,1.237c0.529,0.574,0.898,1.313,0.923,2.681
		c0.037,2.108-1.104,3.95-3.339,4.044c-1.13,0.047-2.157-1.343-2.359-0.055c0.473,0.402,0.699,0.715,0.935,1.289
		c0.39,0.947,0.073,1.631-0.025,2.627c-0.064,0.653-0.04,1.264,0.479,1.618c0.83,0.566,1.929,0.583,2.881-0.127
		c2.134-1.593,3.626-2.759,6.165-0.329c2.956,2.83,2.299,7.959-1.819,9.146c0,0,0.184,0.363,0.354,0.556
		c0.485,0.549,1.011,0.703,1.743,0.703h6.014c1.157,0,1.903,0.153,2.854,0.813c0.63,0.437,0.86,0.841,1.339,1.44
		c0.42,0.525,0.639,0.839,0.985,1.414c-0.49-0.396-0.818-0.578-1.415-0.783c-0.493-0.169-0.792-0.248-1.313-0.248h-6.078
		c0.246,0.603,0.81,1.805,1.556,2.32c0.672,0.464,1.154,0.703,1.971,0.703h5.154c1.157,0,1.895,0.165,2.854,0.813
		c0.618,0.417,0.851,0.802,1.339,1.364s0.746,0.898,1.162,1.516c-0.562-0.411-0.928-0.597-1.591-0.808
		c-0.497-0.158-0.793-0.249-1.314-0.249h-5.966c0.215,0.505,0.877,1.928,1.733,2.497c0.715,0.476,1.227,0.704,2.085,0.704
		l6.087-0.001c1.158,0,1.896,0.166,2.855,0.813c0.618,0.417,0.85,0.802,1.339,1.364c0.488,0.563,0.746,0.898,1.162,1.517
		c-0.562-0.411-0.929-0.598-1.592-0.809c-0.497-0.158-0.792-0.249-1.313-0.249h-4.73c0.27,0.411,0.775,1.138,1.245,1.563
		c1.289,1.164,2.382,1.692,4.118,1.692H110.19L110.19,277.801z M71.485,302.479c0.103-1.12-0.879-2.05-2.024-1.896
		c-0.838,0.567-1.729,1.429-1.792,3.039C68.386,303.072,69.444,302.476,71.485,302.479z M85.09,224.635
		c0.83-0.1,1.593-0.033,2.277,0.167l0.016-0.126c0.144-1.193-0.716-2.659-1.524-2.836c-0.083,0.48-0.101,0.973-0.277,1.568
		C85.431,223.911,85.304,224.239,85.09,224.635z M79.262,223.382c-0.755-1.358-2.149-1.61-2.979-1.415
		c0.185,0.33,0.499,0.76,0.732,1.288c0.137,0.308,0.237,0.637,0.317,0.937C77.901,223.865,78.54,223.596,79.262,223.382
		L79.262,223.382z M70.094,229.723c0.364,0.676,0.527,1.089,0.722,1.832c0.358,0.019,0.585-0.037,0.895-0.218
		c0.331-0.192,0.51-0.375,0.657-0.728c0.172-0.41,0.063-0.816,0-1.14c-0.758-0.682-1.288-1.111-2.956-0.809
		C69.493,228.785,69.861,229.29,70.094,229.723L70.094,229.723z M72.28,246.658c-0.112-0.254-0.208-0.423-0.34-0.575
		c-0.867,0.224-2.174,0.138-2.957-0.141c0.128,0.268,0.316,0.791,0.556,1.087c0.725,0.893,1.747,1.344,2.783,1.405
		C72.574,247.87,72.525,247.214,72.28,246.658L72.28,246.658z M80.124,304.632c-0.783-1.188-1.466-1.137-2.35-1.086
		c-0.531,0.328-1.177,0.816-1.466,1.616c-0.247,0.687-0.254,1.178-0.025,1.87C76.283,307.032,77.243,305.769,80.124,304.632
		L80.124,304.632z M91.99,303.656c-0.714-0.005-1.114,0.723-1.334,1.294c0.192,0.679,0.214,1.392,0.199,2.093
		c0.358-0.166,0.693-0.403,1.077-0.742c0.655-0.58,0.975-1.014,1.207-1.728C92.902,304.102,92.581,303.66,91.99,303.656
		L91.99,303.656z M118.274,276.69c0.031-0.493-0.039-0.772-0.102-1.263c-0.053-0.417-0.092-0.65-0.177-1.062
		c0.22,0.4,0.36,0.618,0.632,0.985c0.229,0.31,0.4,0.45,0.632,0.758c0.555,0.737,1.011,0.935,1.188,2.047
		c0.132,0.832-0.202,1.516-0.202,1.516c-0.557,1.415-0.917,2.334-1.023,3.88c-0.024,0.349-0.059,0.547-0.038,0.896
		c0.029,0.491,0.066,0.781,0.253,1.237c0.201,0.494,0.38,0.762,0.758,1.137c-0.478-0.194-0.745-0.312-1.213-0.53
		c-0.479-0.224-0.805-0.27-1.213-0.606c-0.451-0.372-0.664-0.67-0.884-1.213c-0.126-0.309-0.187-0.772-0.212-1.027
		c-1.593-0.726-2.964-1.918-3.854-3.422c-1.096,0.184-2.759,0.501-3.942,0.912c-1.131,0.393-1.744,0.686-2.817,1.215
		c-1.214,0.6-3.019,1.716-3.019,1.716c-3.437,1.769-11.588,8.372-17.158,8.035c-4.401-0.266-7.43-3.006-9.869-0.601
		c0.335,0.044,0.9,0.092,1.434,0.297c1.217,0.469,1.893,1.096,2.45,2.273c-0.918-0.285-1.493-0.371-2.45-0.277
		c-4.034,0.395-5.421,2.262-5.894,4.742c1.579,0.727,2.666,2.352,2.577,4.181c0.119-0.06,0.23-0.108,0.34-0.149
		c0.185-1.259,0.537-2.558,1.41-3.822c0.548-0.791,0.869-1.282,1.668-1.818c0.81-0.544,1.383-0.726,2.35-0.859
		c0.742-0.103,1.188-0.11,1.92,0.051c0.644,0.142,1.005,0.287,1.566,0.632c-0.587-0.074-0.938-0.057-1.516,0.075
		c-0.872,0.2-1.367,0.477-2.021,1.087c-0.72,0.672-0.941,1.25-1.288,2.172c-0.162,0.43-0.247,0.788-0.295,1.137
		c0.772-0.095,1.587-0.004,2.478,0.491c0.948,0.528,1.597,1.264,1.931,2.179c0.368,0.12,0.743,0.132,1.09,0.041
		c-0.002-0.327,0.032-0.662,0.103-1.068c0.155-0.907,0.34-1.438,0.858-2.198c0.93-1.364,1.984-1.854,3.588-2.248
		c1.063-0.261,1.728-0.282,2.805-0.09c-0.529,0.118-0.826,0.237-1.289,0.52c-0.926,0.564-1.484,1.1-1.769,2.147
		c-0.145,0.533-0.23,0.884-0.075,1.415c0.164,0.563,0.463,0.97,0.905,1.229c1.088-2.675,4.388-2.925,5.72-0.576
		c0.429-0.306,0.721-0.738,0.688-1.425c-0.063-1.352-2.063-1.289-0.349-4.666c1.574-3.103,6.778-3.557,8.541-1.025
		c0.525,0.756,0.865,1.738,0.208,3.026c1.003,0.039,1.667-0.688,1.925-1.034l2.623-4.7c0.391-0.701,0.731-1.059,1.39-1.517
		c0.837-0.581,1.467-0.693,2.476-0.833c0.557-0.078,0.88-0.089,1.44-0.051c-0.507,0.152-0.789,0.309-1.188,0.657
		c-0.453,0.396-0.539,0.771-0.884,1.263l-2.867,5.206c1.623,0.049,2.983-0.648,3.65-1.871l1.869-3.335
		c0.391-0.7,0.731-1.059,1.39-1.516c0.837-0.582,1.467-0.694,2.476-0.834c0.557-0.077,0.88-0.089,1.44-0.051
		c-0.507,0.153-0.789,0.309-1.188,0.657c-0.453,0.396-0.539,0.771-0.885,1.263l-2.535,4.579c2.073,0.121,3.372-0.976,4.611-3.32
		c0.762-1.441,2.017-2.795,3.513-3.397c-0.429-0.349-0.661-0.609-0.89-1.12c-0.189-0.423-0.252-1.162-0.252-1.162
		c0.024-0.359-0.024-1.263,0.025-1.617c0.207-1.49,0.354-1.995,0.96-3.537c0,0,0.239-0.682,0.277-1.137
		c0.038-0.442,0.06-0.713-0.075-1.137c-0.102-0.319-0.196-0.496-0.404-0.758c0.371,0.227,0.576,0.359,0.935,0.606
		c0.331,0.228,0.544,0.328,0.834,0.606c0.599,0.574,0.93,0.977,1.061,1.844c0.127,0.834-0.177,1.517-0.177,1.517
		c-0.53,1.516-0.677,1.915-0.783,3.461c-0.023,0.349,0.151,1.213,0.758,1.617c0.356,0.237,0.882,0.717,2.081,1.319l0.391,0.202
		v-7.434h2.636v8.902c2.457,1.359,4.876,2.409,7.321,1.018c-1.079-0.875-2.344-1.451-3.773-1.716c0,0-1.29-0.361-2.137-0.474
		c0.324-0.286,0.493-0.467,0.758-0.809c0.285-0.367,0.437-0.589,0.632-1.01c0.274-0.592,0.453-1.269,0.43-1.617
		c-0.107-1.546-0.253-1.945-0.783-3.461c0,0-0.304-0.683-0.177-1.517c0.131-0.867,0.462-1.27,1.061-1.844
		c0.29-0.278,0.503-0.379,0.834-0.606c0.357-0.247,0.563-0.38,0.935-0.606c-0.208,0.262-0.303,0.438-0.404,0.758
		c-0.135,0.424-0.113,0.694-0.075,1.137c0.038,0.455,0.277,1.137,0.277,1.137c0.606,1.542,0.753,2.047,0.96,3.537
		c0.05,0.354,0.001,1.258,0.025,1.617c0,0-0.063,0.739-0.253,1.162c-0.061,0.137-0.187,0.373-0.252,0.48
		c1.254,0.222,2.457,0.835,3.541,1.713c0.6,0.485,1.477,0.856,2.599,0.779c0.83-0.08,1.527-0.337,2.208-0.813
		c-1.334-0.991-2.503-1.807-4.28-2.564c0,0-1.099-0.38-1.819-0.556c0.375-0.704,0.535-1.141,0.708-1.92
		c0.126-0.571,0.166-0.905,0.177-1.49c0.006-0.35-0.015-0.547-0.038-0.896c-0.106-1.546-0.468-2.465-1.023-3.88
		c0,0-0.328-0.683-0.202-1.516c0.132-0.867,0.633-1.31,1.188-2.047c0.231-0.308,0.402-0.448,0.632-0.758
		c0.271-0.367,0.412-0.585,0.632-0.985c-0.079,0.412-0.118,0.646-0.177,1.062c-0.061,0.422-0.135,0.659-0.127,1.086
		c0.011,0.591,0.31,1.484,0.31,1.484c0.65,1.446,1.073,2.811,1.281,4.302c0.049,0.354,0.026,0.6,0.052,0.959
		c0,0,0.027,0.896-0.025,1.466c-0.062,0.658-0.165,1.214-0.303,1.668c1.818,0.707,2.857,1.421,4.172,2.268
		c0.584,0.376,1.48,0.784,2.554,0.79c0.989-0.014,1.771-0.274,2.561-0.883c-2.507-1.7-5.175-3.356-6.76-3.641
		c1.162-3.133,0.929-4.867-0.125-7.666c-0.633-1.682-0.895-2.715-1.366-3.981c0,0-0.228-0.808,0.127-1.844
		c0.187-0.549,0.446-0.862,0.809-1.364c0.399-0.555,0.66-0.849,1.162-1.313c-0.149,0.367-0.207,0.591-0.253,0.985
		c-0.056,0.47-0.039,0.747,0.051,1.212c0.101,0.527,0.505,1.44,0.505,1.44c0.354,0.952,0.647,1.681,0.924,2.576l0.375,1.116
		c2.203-1.271,2.096-3.632,1.389-5.991c-0.238-0.646-0.528-1.188-0.944-1.92c0,0-0.379-0.379-0.228-1.643
		c0.081-0.676,0.407-1.135,0.708-1.845c0.283-0.67,0.456-1.043,0.783-1.692c0.043,0.436,0.077,0.681,0.151,1.111
		c0.08,0.467,0.103,0.738,0.252,1.188c0.149,0.446,0.505,1.094,0.505,1.094c0.453,0.797,0.835,1.623,1.146,2.479
		c0.822-0.609,1.375-1.442,1.623-2.907c0.236-1.403,0.002-2.188-0.551-3.148l-0.07,0.059c-0.404-0.936-1.465-1.996-1.465-1.996
		c-0.492-0.67-0.412-1.267-0.38-2.097c0.02-0.479,0.106-0.743,0.202-1.213c0.153-0.749,0.266-1.169,0.506-1.896
		c0.08,0.639,0.178,1,0.43,1.592c0.233,0.55,0.773,1.32,0.773,1.32c0.227,0.229,0.447,0.464,0.66,0.704
		c0.985-2.47,1.256-4.739-0.759-7.336l-3.075-3.859c-0.483-0.606-0.609-1.119-0.606-1.895c0.002-0.493,0.131-0.761,0.253-1.238
		c0.221-0.869,0.39-1.354,0.758-2.173c0.003,0.661,0.073,1.048,0.303,1.668c0.293,0.792,1.184,1.813,1.184,1.813l1.809,2.2
		c0.229-3.956-1.186-7.554-3.082-11.39c1.251-2.542,1.975-5.133,1.861-7.847c-0.191,0.277-0.425,0.534-0.735,0.821
		c-0.427,0.396-0.732,0.556-1.238,0.834c-0.721,0.396-1.087,0.812-1.414,1.566c-0.267,0.612-0.281,1.026-0.253,1.692
		c0.038,0.897,0.206,1.438,0.682,2.198c-1.032-0.637-1.567-1.136-2.273-2.122c-0.511-0.713-0.834-1.137-1.036-1.996
		c-0.178-0.754-0.116-1.289,0.253-1.971c0.313-0.576,0.74-0.879,1.213-1.162c0.632-0.379,1.237-0.228,1.92-0.43
		c0.862-0.255,1.226-0.543,1.845-1.111c0.292-0.269,0.52-0.508,0.711-0.761c-2.315-0.298-4.393,0.23-6.544,1.001
		c-2.046-2.919-4.21-3.279-7.756-3.243l-0.7,0.009c-1.317-2.569-3.21-2.356-5.568-2.356c-2.358-0.001-4.253-0.214-5.57,2.356
		c-2.625-0.026-6.216,0.039-7.879,2.411l-0.577,0.823c-2.151-0.771-4.229-1.299-6.532-1.052c0.18,0.304,0.407,0.543,0.699,0.812
		c0.619,0.568,0.982,0.856,1.845,1.111c0.683,0.202,1.288,0.051,1.92,0.43c0.473,0.283,0.9,0.586,1.213,1.162
		c0.369,0.682,0.43,1.217,0.253,1.971c-0.202,0.859-0.525,1.283-1.036,1.996c-0.706,0.986-1.241,1.485-2.273,2.122
		c0.476-0.761,0.644-1.301,0.682-2.198c0.028-0.666,0.014-1.08-0.253-1.692c-0.328-0.755-0.693-1.17-1.414-1.566
		c-0.506-0.278-0.812-0.438-1.238-0.834c-0.311-0.287-0.544-0.544-0.736-0.822c-0.113,2.732,0.623,5.331,1.885,7.895
		c-2.266,3.936-3.652,7.645-3.52,11.838l2.224-2.695c0,0,0.891-1.021,1.184-1.813c0.229-0.62,0.299-1.007,0.303-1.668
		c0.368,0.819,0.537,1.304,0.758,2.173c0.121,0.478,0.251,0.745,0.253,1.238c0.003,0.775-0.113,1.295-0.606,1.895l-3.65,4.442
		c-1.78,2.41-1.415,4.637-0.31,6.897c0.252-0.292,0.514-0.574,0.786-0.849c0,0,0.54-0.771,0.773-1.32
		c0.252-0.592,0.35-0.953,0.43-1.592c0.24,0.727,0.352,1.146,0.506,1.896c0.096,0.47,0.183,0.733,0.202,1.213
		c0.032,0.83,0.112,1.427-0.38,2.097c0,0-0.978,0.978-1.413,1.883c-0.84,2.392-0.474,4.214,1.07,5.79
		c0.288-0.741,0.63-1.461,1.025-2.158c0,0,0.356-0.647,0.505-1.094c0.15-0.449,0.173-0.721,0.253-1.188
		c0.074-0.431,0.108-0.676,0.151-1.111c0.327,0.649,0.5,1.022,0.783,1.692c0.301,0.71,0.627,1.169,0.708,1.845
		c0.151,1.264-0.228,1.643-0.228,1.643c-0.442,0.778-0.742,1.341-0.988,2.042c-0.819,2.729-0.551,4.684,1.522,5.84
		c0.211-1.21,0.572-2.404,1.234-3.814c0,0,0.379-0.762,0.479-1.289c0.089-0.465,0.106-0.742,0.051-1.212
		c-0.047-0.395-0.104-0.618-0.253-0.985c0.502,0.465,0.762,0.759,1.163,1.313c0.328,0.455,0.621,0.815,0.808,1.364
		c0.354,1.036,0.127,1.844,0.127,1.844c-0.521,1.397-0.847,2.541-1.15,3.929c-0.061,0.279-0.063,0.664,0.19,1.2
		c0.486,0.946,1.11,1.703,2.041,2.268c0.231-0.895,0.551-1.77,0.959-2.678C117.99,277.997,118.24,277.21,118.274,276.69
		L118.274,276.69z M234.44,302.485c0,0-0.609-0.251-0.96-0.479c-0.392-0.257-0.909-0.783-0.909-0.783
		c-1.11,0.629-1.289,1.263-1.21,2.403C232.465,303.004,233.075,302.661,234.44,302.485L234.44,302.485z M250.508,306.224
		c0.859-1.036,1.92-1.743,3.31-2.097l-0.101-0.404c-0.19-0.667-0.944-0.904-1.668-0.834c-0.739,0.072-1.142,0.531-1.49,1.188
		C250.165,304.816,250.306,305.694,250.508,306.224z M238.621,303.755c-0.868,0.7-1.049,1.913-0.821,3.024
		c1.39-1.111,2.476-1.642,3.941-2.021c0.278-1.391-0.72-1.567-1.49-1.533C239.457,303.26,239.107,303.364,238.621,303.755z
		 M219.929,234.518c-5.155,1.209-10.12,2.524-15.301,4.048c-6.696,1.968-11.206,3.819-18.036,5.256
		c-6.317,1.329-10.964,2.396-17.563,0.883c-3.475-0.796-7.938-3.415-6.644-7.856c1.438-4.935,9.681-5.232,10.288-0.2
		c2.142-0.836,2.395-1.821,2.521-3.641c6.619,2.249,11.016,1.44,15.26-2.703c-3.437,0.909-10.712-1.288-15.992-1.288
		c-4.43,0-9.626,0.833-12.979,4.533c-1.698,1.873-2.306,3.576-2.098,5.298c0.897,7.443,9.938,9.32,15.965,8.917
		c9.482-0.634,18.351-3.737,27.46-6.152c5.48-1.453,8.728-2.26,13.986-3.467C217.738,236.93,218.822,235.645,219.929,234.518
		L219.929,234.518z M218.496,263.669c-2.009-3.97-6.014-4.835-11.297-4.562c-0.41,0.021-0.852,0.072-1.297,0.144
		c2.12,2.466,1.377,7.239-3.216,9.294c-3.76,1.683-6.685,0.844-10.706,1.85c-5.763,1.441-6.984,5.211-8.612,9.222
		c-0.688,1.693-1.479,3.465-2.438,4.779c0,0,1.402-0.057,2.299-0.051c1.461,0.01,2.287,0.055,3.741,0.202
		c-1.114,0.917-1.701,1.498-2.63,2.603c-0.985,1.171-1.499,1.885-2.223,3.233c-0.48,0.894-0.733,1.339-1.062,2.375
		c-3.229,1.626-7.471,2.546-10.967,1.275c-3.216-1.169-6.251-2.656-9.22-0.012c-1.628,1.449-2.499,3.988-0.636,5.516
		c0.142-0.603,0.411-1.179,0.825-1.814c0.633-0.971,1.152-1.513,2.211-1.983c0.709-0.315,1.17-0.434,1.945-0.417
		c0.905,0.019,1.458,0.186,2.224,0.669c-0.683,0.127-0.945,0.149-1.491,0.405c-1.174,0.549-1.695,1.264-2.273,2.425
		c-0.201,0.404-0.318,0.76-0.397,1.113c0.81,0.296,1.573,0.739,2.252,1.269c0.309-0.932,0.71-1.689,1.606-2.356
		c0.651-0.485,1.109-0.685,1.907-0.834c0.849-0.158,1.386-0.128,2.211,0.126c-0.632,0.288-0.882,0.422-1.339,0.834
		c-0.854,0.77-1.149,1.716-1.383,2.629c0.496-0.215,0.949-0.313,1.585-0.279c1.397,0.075,2.805,0.53,3.031,1.92
		c1.592,0.809,3.714,0.455,4.876-0.834c0.451-0.5,0.531-0.947,0.606-1.616c0.069-0.611,0.026-0.986-0.177-1.566l-0.404-0.834
		c0.619-0.046,1.002,0.021,1.566,0.278c0.655,0.297,0.971,0.628,1.39,1.212c0.365,0.51,0.657,1.466,0.657,1.466
		c1.971-0.202,4.472-1.264,4.75-4.901c3.294-1.748,4.569-2.856,5.608-5.229c0.368-0.84,0.726-1.451,1.314-2.299
		c0.697-1.004,1.212-1.44,2.046-2.375c-0.17,0.337-0.244,0.542-0.329,0.909c-0.177,0.769-0.165,1.263,0.051,2.021l1.633,5.72
		c1.193-1.279,1.824-2.347,1.521-4.06l-0.956-3.707c-0.233-0.906-0.289-1.527,0.05-2.399c0.241-0.619,0.535-0.901,0.986-1.39
		l1.516-1.643c-0.296,0.658-0.401,1.074-0.455,1.794c-0.053,0.712,0.182,1.821,0.182,1.821l1.103,4.341
		c0.837-0.794,1.817-2.074,1.514-3.886l-0.776-3.009c-0.233-0.907-0.289-1.528,0.05-2.4c0.241-0.619,0.535-0.901,0.986-1.39
		l1.516-1.643c-0.296,0.658-0.402,1.074-0.455,1.794c-0.052,0.712,0.182,1.822,0.182,1.822l0.917,3.609
		c0.968-0.905,1.863-1.75,1.561-3.421c-0.54-2.975-1.467-4.664,1.653-7.635c2.08-1.98,5.794-4.54,8.244-7.109
		C217.023,265.689,217.716,264.808,218.496,263.669L218.496,263.669z M167.363,306.539c0.998-0.604,2.342-1.169,3.461-1.49
		c0.366-1.036-0.164-1.453-0.645-1.592c-0.368-0.106-0.691-0.098-1.124-0.025c-0.375,0.063-0.922,0.316-0.922,0.316
		C167.665,304.298,166.731,305.251,167.363,306.539z"/>
</g>
<use xlink:href="#lion" transform="translate(0,-95.578)"/>
<use xlink:href="#lion" transform="translate(0,-191.156)"/>
</svg>
