<?xml version="1.0" encoding="UTF-8"?>
<!DOCTYPE svg PUBLIC "-//W3C//DTD SVG 1.1//EN" "http://www.w3.org/Graphics/SVG/1.1/DTD/svg11.dtd">
<!-- Creator: CorelDRAW X7 -->
<svg xmlns="http://www.w3.org/2000/svg" xml:space="preserve" width="5.28232in" height="4.92913in" version="1.1" style="shape-rendering:geometricPrecision; text-rendering:geometricPrecision; image-rendering:optimizeQuality; fill-rule:evenodd; clip-rule:evenodd"
viewBox="0 0 5282 4929"
 xmlns:xlink="http://www.w3.org/1999/xlink">
 <defs>
  <style type="text/css">
   <![CDATA[
    .fil5 {fill:#0B0E13}
    .fil3 {fill:#1F2124}
    .fil2 {fill:#8F8880}
    .fil7 {fill:#C31D11}
    .fil0 {fill:#C3BAB1}
    .fil6 {fill:#F0E100}
    .fil4 {fill:#0B0E13;fill-rule:nonzero}
    .fil8 {fill:#7D750C;fill-rule:nonzero}
    .fil1 {fill:#8F8880;fill-rule:nonzero}
   ]]>
  </style>
 </defs>
 <g id="Layer_x0020_1">
  <metadata id="CorelCorpID_0Corel-Layer"/>
  <g id="_620246624">
   <g>
    <g>
     <path class="fil0" d="M983 756l1658 0 1659 0 0 -756 -805 0 0 282 0 78 0 12 -489 0 0 -12 0 -78 0 -282 -365 0 -364 0 0 282 0 78 0 12 -490 0 0 -12 0 -78 0 -282 -804 0 0 756zm2800 -131l228 0 0 -294c0,-62 -51,-114 -114,-114l0 0c-62,0 -114,52 -114,114l0 294zm-2512 0l228 0 0 -294c0,-62 -51,-114 -114,-114l0 0c-63,0 -114,52 -114,114l0 294zm1256 0l228 0 0 -294c0,-62 -51,-114 -114,-114l0 0c-63,0 -114,52 -114,114l0 294z"/>
     <path class="fil1" d="M4300 70l-40 0 0 66 40 0 0 13 -110 0 0 66 110 0 0 12 -40 0 0 66 40 0 0 13 -110 0 0 66 110 0 0 12 -40 0 0 66 40 0 0 13 -110 0 0 66 110 0 0 13 -40 0 0 66 40 0 0 12 -110 0 0 66 110 0 0 13 -40 0 0 57 -13 0 0 -57 -128 0 0 57 -12 0 0 -57 -128 0 0 57 -12 0 0 -57 -128 0 0 57 -13 0 0 -57 -127 0 0 57 -13 0 0 -57 -127 0 0 57 -13 0 0 -57 -127 0 0 57 -13 0 0 -57 -128 0 0 57 -12 0 0 -57 -128 0 0 57 -13 0 0 -57 -127 0 0 57 -13 0 0 -57 -127 0 0 57 -13 0 0 -57 -127 0 0 57 -13 0 0 -57 -128 0 0 57 -12 0 0 -57 -128 0 0 57 -13 0 0 -57 -127 0 0 57 -13 0 0 -57 -127 0 0 57 -13 0 0 -57 -127 0 0 57 -13 0 0 -57 -128 0 0 57 -12 0 0 -57 -128 0 0 57 -12 0 0 -57 -128 0 0 57 -13 0 0 -57 -127 0 0 57 -13 0 0 -57 -127 0 0 57 -13 0 0 -57 -128 0 0 57 -12 0 0 -57 -128 0 0 57 -12 0 0 -57 -40 0 0 -13 110 0 0 -66 -110 0 0 -12 40 0 0 -66 -40 0 0 -13 110 0 0 -66 -110 0 0 -13 40 0 0 -66 -40 0 0 -12 110 0 0 -66 -110 0 0 -13 40 0 0 -66 -40 0 0 -12 110 0 0 -66 -110 0 0 -13 40 0 0 -66 -40 0 0 -13 110 0 0 -57 12 0 0 57 128 0 0 -57 13 0 0 57 127 0 0 -57 13 0 0 57 127 0 0 -57 13 0 0 57 127 0 0 -57 13 0 0 57 121 0 0 13 -51 0 0 66 51 0 0 13 -121 0 0 66 121 0 0 12 -51 0 0 66 51 0 0 13 -121 0 0 66 121 0 7 0 12 0 128 0 13 0 127 0 13 0 127 0 13 0 50 0 77 0 0 -66 -77 0 0 -13 7 0 0 -66 -7 0 0 -12 77 0 0 -66 -77 0 0 -13 7 0 0 -66 -7 0 0 -13 77 0 0 -57 13 0 0 57 128 0 0 -57 12 0 0 57 128 0 0 -57 12 0 0 57 128 0 0 -57 13 0 0 57 127 0 0 -57 13 0 0 57 78 0 0 13 -8 0 0 66 8 0 0 13 -78 0 0 66 78 0 0 12 -8 0 0 66 8 0 0 13 -78 0 0 66 78 0 49 0 13 0 128 0 12 0 128 0 12 0 128 0 13 0 6 0 121 0 0 -66 -121 0 0 -13 51 0 0 -66 -51 0 0 -12 121 0 0 -66 -121 0 0 -13 51 0 0 -66 -51 0 0 -13 121 0 0 -57 13 0 0 57 127 0 0 -57 13 0 0 57 127 0 0 -57 13 0 0 57 128 0 0 -57 12 0 0 57 128 0 0 -57 13 0 0 57 110 0 0 13zm-53 0l-128 0 0 66 128 0 0 -66zm-140 0l-128 0 0 66 128 0 0 -66zm-140 0l-128 0 0 66 128 0 0 -66zm-141 0l-127 0 0 66 127 0 0 -66zm-140 0l-127 0 0 66 127 0 0 -66zm-701 0l-127 0 0 66 127 0 0 -66zm-140 0l-127 0 0 66 127 0 0 -66zm-140 0l-128 0 0 66 128 0 0 -66zm-140 0l-128 0 0 66 128 0 0 -66zm-141 0l-127 0 0 66 127 0 0 -66zm-700 0l-128 0 0 66 128 0 0 -66zm-141 0l-127 0 0 66 127 0 0 -66zm-140 0l-127 0 0 66 127 0 0 -66zm-140 0l-128 0 0 66 128 0 0 -66zm-140 0l-128 0 0 66 128 0 0 -66zm-58 550l0 66 128 0 0 -66 -128 0zm0 -157l0 66 128 0 0 -66 -128 0zm0 -157l0 66 128 0 0 -66 -128 0zm0 -157l0 66 128 0 0 -66 -128 0zm3072 537l0 -66 -128 0 0 66 128 0zm0 -157l0 -66 -128 0 0 66 128 0zm0 -157l0 -66 -128 0 0 66 128 0zm0 -157l0 -66 -128 0 0 66 128 0zm-3142 327l0 66 128 0 0 -66 -128 0zm0 -158l0 66 128 0 0 -66 -128 0zm0 -157l0 66 128 0 0 -66 -128 0zm3212 381l0 -66 -128 0 0 66 128 0zm0 -158l0 -66 -128 0 0 66 128 0zm0 -157l0 -66 -128 0 0 66 128 0zm-140 315l0 -66 -96 0 0 -13 26 0 0 -66 -26 0 0 -13 96 0 0 -66 -96 0 0 -12 26 0 0 -66 -28 0c-1,-4 -3,-9 -4,-13l102 0 0 -66 -128 0 0 25c-4,-4 -8,-8 -12,-11l0 -14 -23 0c-14,-6 -30,-10 -47,-10l0 0c-16,0 -32,4 -46,10l-12 0 0 6c-4,3 -9,6 -13,9l0 -15 -127 0 0 66 91 0c-1,4 -3,9 -4,13l-17 0 0 66 14 0 0 12 -84 0 0 66 84 0 0 13 -14 0 0 66 14 0 0 13 -84 0 0 66 84 0 0 12 -14 0 0 66 127 0 0 -61 13 0 0 61 128 0 0 -66 -26 0 0 -12 96 0zm-70 -393l0 -66 -128 0 0 66 128 0zm-141 0l0 -66 -127 0 0 66 127 0zm-140 471l0 -66 -127 0 0 66 127 0zm0 -157l0 -66 -127 0 0 66 127 0zm0 -157l0 -66 -127 0 0 66 127 0zm0 -157l0 -66 -127 0 0 66 127 0zm-70 393l0 -66 -127 0 0 66 127 0zm0 -158l0 -66 -127 0 0 66 127 0zm0 -157l0 -66 -127 0 0 66 127 0zm-70 393l0 -66 -127 0 0 66 127 0zm0 -157l0 -66 -127 0 0 66 127 0zm-70 79l0 -66 -127 0 0 66 127 0zm0 -158l0 -66 -127 0 0 66 127 0zm-70 236l0 -66 -128 0 0 66 128 0zm0 -157l0 -66 -128 0 0 66 128 0zm-70 79l0 -66 -128 0 0 66 128 0zm0 -158l0 -66 -128 0 0 66 128 0zm-70 236l0 -66 -128 0 0 66 128 0zm0 -157l0 -66 -128 0 0 66 128 0zm-70 79l0 -66 -128 0 0 66 128 0zm0 -158l0 -66 -128 0 0 66 128 0zm-70 236l0 -66 -128 0 0 66 128 0zm0 -157l0 -66 -128 0 0 66 128 0zm-71 79l0 -66 -127 0 0 66 127 0zm0 -158l0 -66 -127 0 0 66 127 0zm-70 236l0 -66 -127 0 0 66 127 0zm0 -157l0 -66 -127 0 0 66 127 0zm-70 79l0 -66 -127 0 0 66 127 0zm0 -158l0 -66 -127 0 0 66 127 0zm0 -157l0 -66 -127 0 0 66 127 0zm-70 393l0 -66 -127 0 0 66 127 0zm0 -157l0 -66 -127 0 0 66 127 0zm0 -157l0 -66 -127 0 0 66 127 0zm0 -157l0 -66 -127 0 0 66 127 0zm-70 393l0 -66 -90 0 0 -13 20 0 0 -66 -20 0 0 -13 90 0 0 -66 -90 0 0 -12 20 0 0 -66 -23 0c-1,-4 -2,-9 -3,-13l96 0 0 -66 -127 0 0 20c-4,-4 -9,-7 -13,-10l0 -10 -17 0c-14,-6 -30,-10 -47,-10l0 0c-16,0 -32,4 -46,10l-18 0 0 10c-4,3 -8,6 -12,10l0 -20 -128 0 0 66 97 0c-2,4 -3,9 -4,13l-23 0 0 66 20 0 0 12 -90 0 0 66 90 0 0 13 -20 0 0 66 20 0 0 13 -90 0 0 66 90 0 0 12 -20 0 0 66 128 0 0 -61 12 0 0 61 128 0 0 -66 -20 0 0 -12 90 0zm-70 -393l0 -66 -128 0 0 66 128 0zm-140 0l0 -66 -128 0 0 66 128 0zm-140 471l0 -66 -128 0 0 66 128 0zm0 -157l0 -66 -128 0 0 66 128 0zm0 -157l0 -66 -128 0 0 66 128 0zm0 -157l0 -66 -128 0 0 66 128 0zm-71 393l0 -66 -127 0 0 66 127 0zm0 -158l0 -66 -127 0 0 66 127 0zm0 -157l0 -66 -127 0 0 66 127 0zm-70 393l0 -66 -127 0 0 66 127 0zm0 -157l0 -66 -127 0 0 66 127 0zm-70 79l0 -66 -127 0 0 66 127 0zm0 -158l0 -66 -127 0 0 66 127 0zm-70 236l0 -66 -127 0 0 66 127 0zm0 -157l0 -66 -127 0 0 66 127 0zm-70 79l0 -66 -127 0 0 66 127 0zm0 -158l0 -66 -127 0 0 66 127 0zm-70 236l0 -66 -127 0 0 66 127 0zm0 -157l0 -66 -127 0 0 66 127 0zm-70 79l0 -66 -128 0 0 66 128 0zm0 -158l0 -66 -128 0 0 66 128 0zm-70 236l0 -66 -128 0 0 66 128 0zm0 -157l0 -66 -128 0 0 66 128 0zm-70 79l0 -66 -128 0 0 66 128 0zm0 -158l0 -66 -128 0 0 66 128 0zm-70 236l0 -66 -128 0 0 66 128 0zm0 -157l0 -66 -128 0 0 66 128 0zm-70 79l0 -66 -128 0 0 66 128 0zm0 -158l0 -66 -128 0 0 66 128 0zm0 -157l0 -66 -128 0 0 66 128 0zm-71 393l0 -66 -127 0 0 66 127 0zm0 -157l0 -66 -127 0 0 66 127 0zm0 -157l0 -66 -127 0 0 66 127 0zm0 -157l0 -66 -127 0 0 66 127 0zm-70 393l0 -66 -84 0 0 -13 14 0 0 -66 -14 0 0 -13 84 0 0 -66 -84 0 0 -12 14 0 0 -66 -17 0c-1,-4 -2,-9 -4,-13l91 0 0 -66 -127 0 0 15c-4,-3 -8,-6 -13,-9l0 -6 -11 0c-15,-6 -30,-10 -47,-10l0 0c-17,0 -32,4 -47,10l-22 0 0 14c-5,3 -9,7 -13,11l0 -25 -128 0 0 66 103 0c-2,4 -3,9 -4,13l-28 0 0 66 25 0 0 12 -96 0 0 66 96 0 0 13 -25 0 0 66 25 0 0 13 -96 0 0 66 96 0 0 12 -25 0 0 66 127 0 0 -61 13 0 0 61 127 0 0 -66 -14 0 0 -12 84 0zm-70 -393l0 -66 -127 0 0 66 127 0zm-140 0l0 -66 -127 0 0 66 127 0z"/>
    </g>
    <path class="fil2" d="M2515 638l0 -307c0,-69 56,-126 126,-126 70,0 127,57 127,126l0 307 -253 0zm12 -13l228 0 0 -294c0,-62 -51,-114 -114,-114l0 0c-63,0 -114,52 -114,114l0 294zm1256 0l228 0 0 -294c0,-62 -51,-114 -114,-114l0 0c-62,0 -114,52 -114,114l0 294zm-2512 0l228 0 0 -294c0,-62 -51,-114 -114,-114l0 0c-63,0 -114,52 -114,114l0 294zm2500 13l0 -307c0,-69 57,-126 126,-126 70,0 127,57 127,126l0 307 -253 0zm-2513 0l0 -307c0,-69 57,-126 127,-126 70,0 127,57 127,126l0 307 -254 0z"/>
    <path class="fil3" d="M3396 96l0 276 99 0 0 -372 -99 96zm-1219 0l0 276 100 0 0 -372 -100 96zm-291 0l0 276 -99 0 0 -372 99 96zm1219 0l0 276 -99 0 0 -372 99 96z"/>
   </g>
   <path class="fil0" d="M1881 4185c-140,0 -217,0 -357,0 -142,-82 -339,-212 -489,-367 -217,239 -431,480 -769,636 98,-110 195,-223 267,-374 -123,83 -269,136 -441,158 132,-89 254,-188 370,-295 -156,-12 -311,-43 -462,-178 107,24 212,38 312,37 -105,-49 -205,-121 -296,-230 101,34 202,49 303,50 -96,-100 -190,-202 -275,-326 64,14 129,37 198,73 -153,-285 -112,-325 -122,-676 41,22 81,55 122,101 -17,-110 -40,-218 -66,-324 41,45 81,102 118,178 11,-105 12,-216 4,-333 35,35 63,81 87,132 15,-113 15,-228 0,-347 42,25 79,63 115,105 -30,-215 -127,-369 -157,-556 46,24 89,64 132,109 -60,-150 -129,-299 -209,-447 48,28 95,63 140,110 -36,-105 -85,-195 -140,-279 90,43 175,104 258,174 -95,-146 -208,-259 -324,-365 33,-5 65,-2 98,9 -44,-86 -105,-145 -167,-201 200,0 500,204 581,508 147,553 33,1194 98,1744 73,615 654,939 1071,1174z"/>
   <path class="fil0" d="M3401 4185c140,0 217,0 357,0 143,-82 340,-212 490,-367 217,239 431,480 768,636 -98,-110 -194,-223 -267,-374 123,83 270,136 441,158 -132,-89 -254,-188 -369,-295 155,-12 310,-43 461,-178 -107,24 -211,38 -311,37 105,-49 205,-121 296,-230 -101,34 -202,49 -303,50 95,-100 189,-202 275,-326 -64,14 -130,37 -199,73 153,-285 112,-325 122,-676 -40,22 -81,55 -122,101 17,-110 40,-218 66,-324 -41,45 -81,102 -118,178 -10,-105 -12,-216 -4,-333 -35,35 -63,81 -87,132 -15,-113 -15,-228 0,-347 -42,25 -79,63 -115,105 30,-215 128,-369 157,-556 -45,24 -89,64 -132,109 60,-150 130,-299 209,-447 -48,28 -94,63 -139,110 36,-105 84,-195 139,-279 -90,43 -175,104 -258,174 95,-146 208,-259 324,-365 -32,-5 -65,-2 -98,9 45,-86 105,-145 168,-201 -201,0 -501,204 -581,508 -147,553 -34,1194 -99,1744 -72,615 -653,939 -1071,1174z"/>
   <path class="fil0" d="M670 4734l1742 -45 229 147 230 -147 1741 45 0 -588 -1328 0c-209,-1 -503,150 -643,274 -140,-124 -434,-275 -643,-274l-1328 0 0 588z"/>
   <path class="fil4" d="M670 4255c233,0 455,0 677,-1 228,0 457,-1 698,-1 145,0 356,104 498,273 -133,-94 -341,-218 -498,-218 0,-1 -639,1 -698,1 -222,1 -444,1 -677,1l0 -55zm3942 0c-233,0 -455,0 -676,-1 -229,0 -458,-1 -699,-1 -144,0 -356,104 -497,273 132,-94 340,-218 497,-218 0,-1 639,1 699,1 221,1 443,1 676,1l0 -55zm0 288c-233,0 -455,-1 -676,-1 -229,-1 -432,-1 -674,-1 -76,0 -164,25 -257,83 82,-23 125,-28 257,-28 0,-1 614,1 674,1 221,0 443,1 676,1l0 -55zm0 -143c-233,0 -455,-1 -676,-1 -229,-1 -458,-1 -699,-1 -144,0 -356,104 -497,273 132,-94 340,-218 497,-218 0,-1 639,1 699,1 221,0 443,1 676,1l0 -55zm-3942 143c233,0 455,-1 677,-1 228,-1 432,-1 673,-1 76,0 164,25 258,83 -83,-23 -126,-28 -258,-28 0,-1 -614,1 -673,1 -222,0 -444,1 -677,1l0 -55zm0 -143c233,0 455,-1 677,-1 228,-1 457,-1 698,-1 145,0 356,104 498,273 -133,-94 -341,-218 -498,-218 0,-1 -639,1 -698,1 -222,0 -444,1 -677,1l0 -55z"/>
   <polygon class="fil5" points="2641,4893 2380,4893 2297,4803 471,4921 471,4710 2439,4644 2641,4779 2843,4644 4811,4710 4811,4921 2985,4803 2903,4893 "/>
   <path class="fil6" d="M2641 4411c543,-308 995,-828 1357,-1434 408,-680 580,-1356 551,-2224 -636,0 -1272,0 -1908,0 -636,0 -1272,0 -1907,0 -30,868 142,1544 550,2224 363,606 814,1126 1357,1434z"/>
   <path class="fil7" d="M4478 848c-612,0 -1224,0 -1837,0 -612,0 -1225,0 -1837,0 -14,801 154,1432 537,2070 349,583 781,1086 1300,1389 519,-303 952,-806 1300,-1389 383,-638 551,-1269 537,-2070z"/>
   <path class="fil6" d="M2641 1036l-999 0 0 311 766 0c0,204 0,407 0,611l-45 0c-177,0 -322,-190 -322,-421l0 -65 -399 0 0 175c0,501 453,717 766,713 0,81 0,162 0,243 -141,10 -234,65 -326,171l-167 -219 -219 285 219 286 168 -221c65,106 185,190 325,200 0,81 0,211 0,293 -69,47 -151,121 -190,206 43,102 163,192 255,178 16,102 87,194 168,236 81,-42 153,-134 168,-236 92,14 212,-76 255,-178 -39,-85 -121,-159 -190,-206 0,-82 0,-212 0,-293 140,-10 260,-94 325,-200l169 221 218 -286 -218 -285 -168 219c-91,-106 -185,-161 -326,-171 0,-81 0,-162 0,-243 313,4 766,-212 766,-713l0 -175 -399 0 0 65c0,231 -144,421 -321,421l-46 0c0,-204 0,-407 0,-611l766 0 0 -311 -999 0z"/>
   <path class="fil8" d="M1915 2729l-86 111 86 112 85 -112 -85 -111zm-114 99l104 -137 10 -12 9 12 104 137 10 12 -10 13 -104 137 -9 12 -10 -12 -104 -137 -10 -13 10 -12zm365 15c27,38 62,69 100,92 47,28 99,44 147,47l76 6 13 0 0 17 0 100 0 293 0 63 0 10 -7 5 -43 30c-21,14 -45,33 -69,55 -14,13 -28,27 -41,42 63,66 108,59 183,48l11 -2 12 -2 3 16 4 27c12,86 20,138 86,191 66,-53 74,-105 87,-191l4 -27 2 -16 12 2 11 2c75,11 121,18 184,-48 -13,-15 -28,-29 -42,-42 -24,-22 -48,-41 -69,-55l-42 -30 -8 -5 0 -10 0 -63 0 -293 0 -100 0 -17 13 0 76 -6c49,-3 101,-19 148,-47 38,-23 72,-54 99,-92 -35,-37 -70,-64 -107,-83 -42,-20 -87,-30 -140,-34l-76 -5 -13 -1 0 -17 0 -100 0 -243 0 -107 0 -18 14 0 81 2 9 0 0 0c133,0 299,-45 431,-141 131,-94 230,-240 231,-443l0 -6 0 0 0 -52 -213 0c-11,134 -60,254 -132,341 -74,90 -173,145 -281,145l-126 0 -14 0 0 -18 0 -105 0 -611 0 -105 0 -18 14 0 752 0 0 -65 -1810 0 0 65 752 0 14 0 0 18 0 105 0 611 0 105 0 18 -14 0 -125 0c-109,0 -208,-55 -282,-145 -72,-87 -120,-207 -131,-341l-214 0 0 52 0 0 0 6c2,203 100,349 231,443 133,96 298,141 431,141l0 0 9 0 81 -2 14 0 0 18 0 107 0 243 0 100 0 17 -13 1 -76 5c-53,4 -98,14 -139,34 -38,19 -73,46 -108,83zm89 124c-46,-28 -88,-66 -119,-115l-8 -14 10 -11c41,-45 82,-78 126,-99 45,-22 92,-33 148,-37l63 -4 0 -84 0 -243 0 -89 -68 1 0 0 -9 0 0 0c-137,0 -307,-46 -444,-145 -138,-100 -243,-255 -245,-473l0 0 0 -6 0 -1 0 -69 0 -18 14 0 239 0 12 0 1 17c8,131 54,249 124,333 70,84 162,136 264,136l112 0 0 -88 0 -611 0 -88 -752 0 -14 0 0 -17 0 -101 0 -17 14 0 1837 0 13 0 0 17 0 101 0 17 -13 0 -753 0 0 88 0 611 0 88 113 0c101,0 194,-52 263,-136 70,-84 116,-202 124,-333l1 -17 13 0 239 0 13 0 0 18 0 69 0 1 0 6 0 0c-2,218 -106,373 -245,473 -137,99 -307,145 -444,145l0 0 -9 0 0 0 -68 -1 0 89 0 243 0 84 64 4c55,4 103,15 147,37 44,21 85,54 126,99l10 11 -8 14c-31,49 -73,87 -118,115 -50,30 -106,47 -157,50l-64 5 0 83 0 293 0 52 36 25c21,15 46,34 71,57 20,18 39,38 56,59l11 13 -11 13c-78,89 -129,82 -215,69l-1 11c-15,98 -23,157 -106,219l-7 5 -7 -5c-82,-62 -91,-121 -106,-219l-1 -11c-86,13 -136,20 -214,-69l-11 -13 10 -13c17,-21 36,-41 56,-59 25,-23 50,-42 71,-57l36 -25 0 -52 0 -293 0 -83 -63 -5c-52,-3 -107,-20 -157,-50zm1027 -127l86 112 85 -112 -85 -111 -86 111zm76 150l-104 -137 -10 -13 10 -12 104 -137 10 -12 9 12 105 137 9 12 -9 13 -105 137 -9 12 -10 -12z"/>
  </g>
 </g>
</svg>
