<?xml version="1.0" encoding="UTF-8"?>
<!DOCTYPE svg PUBLIC "-//W3C//DTD SVG 1.1//EN" "http://www.w3.org/Graphics/SVG/1.1/DTD/svg11.dtd">
<!-- Creator: CorelDRAW X7 -->
<svg xmlns="http://www.w3.org/2000/svg" xml:space="preserve" width="3.37374in" height="4.92913in" version="1.1" style="shape-rendering:geometricPrecision; text-rendering:geometricPrecision; image-rendering:optimizeQuality; fill-rule:evenodd; clip-rule:evenodd"
viewBox="0 0 3374 4929"
 xmlns:xlink="http://www.w3.org/1999/xlink">
 <defs>
  <style type="text/css">
   <![CDATA[
    .fil4 {fill:black}
    .fil1 {fill:#009240}
    .fil0 {fill:#393633}
    .fil8 {fill:#C3C3C2}
    .fil2 {fill:#DA241D}
    .fil9 {fill:#F8C400}
    .fil5 {fill:#FFF500}
    .fil3 {fill:white}
    .fil7 {fill:black;fill-rule:nonzero}
    .fil6 {fill:#FFF500;fill-rule:nonzero}
   ]]>
  </style>
 </defs>
 <g id="Layer_x0020_1">
  <metadata id="CorelCorpID_0Corel-Layer"/>
  <g id="_623482224">
   <g>
    <path class="fil0" d="M0 1126l3374 0 0 2146c0,2199 -3374,2199 -3374,0l0 -2146zm3326 1962l0 184c0,2132 -3278,2132 -3278,0l0 -184 3278 0z"/>
    <path class="fil1" d="M387 3749c118,33 129,-34 130,-34 29,-22 -16,1 26,-14 22,-9 4,2 32,-7 79,-24 1,-14 56,-32 59,63 24,96 142,106 -48,-76 -65,-40 -93,-98 15,-42 15,-21 65,-50l-24 -50c147,5 302,117 417,124 -180,-138 -170,-65 -266,-134 43,-11 51,3 80,-14 50,-28 4,7 34,-57l31 9c94,32 31,38 100,71 49,-86 -58,-62 -18,-174 7,-11 49,-41 88,-29 34,10 83,58 90,98l1 23c36,29 216,106 263,111 -51,-38 -96,-33 -98,-126 45,9 52,21 84,13l18 -6c2,-1 7,-3 9,-4 3,-1 7,-4 11,-4 39,83 15,-32 78,126l14 29c18,24 25,23 62,28 -14,-10 -21,-10 -31,-20 -26,-28 -12,0 -25,-39 76,12 130,46 200,75 -55,-59 -132,-98 -223,-127 24,-23 185,-126 265,-30l-155 6c20,47 199,96 216,99 78,9 -12,-10 83,-18l-32 -40 116 12c-18,-18 2,1 -25,-21 -61,-49 -43,-51 -34,-96 50,33 106,49 162,5 44,86 127,20 264,93 79,42 147,102 234,128 -20,-39 -105,-114 -140,-146 52,3 61,30 106,44 45,14 93,5 151,21 79,23 178,81 252,81 -131,-100 -485,-194 -655,-270 -113,-50 -98,-5 -176,5 -229,30 -363,32 -602,-32 -77,-21 -111,-16 -193,-31 -27,-4 -60,-14 -85,-22 -283,-89 -316,6 -441,61 -111,49 -81,56 -150,78 -56,17 -120,32 -164,64 -55,41 -222,169 -250,215zm489 303l27 6c-14,20 -7,6 -14,39l89 5 40 30c25,10 25,6 47,8 1,-3 2,-8 2,-9 7,-29 -9,-10 39,-14 0,0 -15,-48 -18,-56 14,0 25,-1 37,-1l-8 -13c-4,-1 -10,-8 -11,-5 -2,3 -15,-7 -20,-12 -27,-28 -5,10 -22,-40l-7 -42c-77,-2 -71,-16 -128,29l35 30 -59 14 -10 -2c-28,-36 -23,-23 -18,-67 -18,-57 -1,-14 -23,-26l-17 25c-6,24 -1,38 -4,57 -6,31 -9,6 -20,61l63 -17zm-78 -353c-30,-37 -17,-34 -76,-48 12,25 -11,12 24,37 20,13 29,9 52,11zm1207 20l-124 -52c26,50 57,60 124,52zm-203 454l86 -23c-19,-77 -23,-29 -35,-101l-37 60c-2,2 -5,6 -7,7l-21 21c-23,19 -9,6 -27,21l41 15zm-248 14c-51,30 -35,38 -63,95 45,-9 83,-21 124,-34 61,-18 52,-12 86,-69l-66 -3 -3 -6 64 -32c-50,-8 -50,-17 -102,-21 91,-24 124,-5 152,-43l-140 -13c20,-20 8,-4 22,-33l51 -57 -36 -8 -52 -73c-14,116 -20,145 -56,194 -43,23 3,-4 -9,48 -12,51 -8,14 -32,53l60 2zm-316 -204l11 48c0,0 -1,2 -1,3l297 33c-37,-61 -30,-2 -39,-81l-58 24c-21,4 14,28 -56,-13 -2,-2 -6,-4 -8,-6 -3,-2 -6,-4 -9,-6l-43 -22c-3,-1 -6,-3 -8,-3 -95,-38 -32,39 -85,-46 -3,2 -7,2 -8,6l-38 16 -4 -25 -26 56 75 16zm-690 109l57 -14c34,20 25,11 68,4l-78 110c244,-25 90,-114 159,-145 -22,-12 -18,-9 -31,-21 -17,19 -35,38 -50,56 5,-53 -7,-22 20,-56 -32,-32 -26,-31 -45,-81 -1,-6 -2,-8 -4,-12 -48,43 -18,57 -18,57 -54,-12 -37,-9 -44,-56l-34 28c-22,14 -4,9 -36,16 14,-56 19,-15 13,-77 -66,53 -54,116 -103,158l22 8 49 34c35,11 38,1 55,-9zm-167 -43c39,-18 40,-30 27,-66 -47,5 -68,11 -27,66zm1783 -78c-16,-20 -11,-16 -15,-32 -8,-36 23,-6 -15,-37 -10,-68 -18,-39 17,-56 -92,-7 -1,35 -101,68 52,122 -20,-6 1,63 7,23 16,9 20,9 -72,29 -43,23 -66,73 -15,33 6,-6 -9,19 -1,1 -23,24 -28,30l120 -31c-17,23 19,5 -24,28 52,-1 43,7 82,-23 158,-34 109,-78 191,-94 33,-6 44,-12 76,-23l-22 -100c330,7 127,67 275,42 83,-14 0,-22 83,-41 -14,85 -17,63 -16,157 0,1 -24,-13 -3,32 7,16 -20,9 23,14l111 13c3,-107 -9,-22 -29,-143 -1,-6 -9,-1 -3,-25 11,-41 67,-35 111,-31l-70 104 111 -19 -26 -112 91 -6c-39,-17 -44,-4 -110,-30 -26,-10 -13,-35 -88,21 -20,-34 -4,-4 -8,-51 -28,41 -39,67 -78,49 -125,-58 -175,-1 -232,11 -56,13 -97,-6 -142,15l-71 68c-27,-9 -15,-24 -42,-32 -111,122 3,84 -88,144 -22,-47 13,-36 -26,-74zm317 -13l26 -17c59,-14 26,3 41,-31 -21,-12 -1,-12 -37,0l-18 -5c-50,22 -19,-33 -43,48l31 5z"/>
    <rect class="fil2" x="48" y="1177" width="1639" height="1912"/>
    <path class="fil3" d="M392 2712l314 0 0 -225c0,-95 72,-174 161,-174l0 0c89,0 162,79 162,174l0 225 314 0 0 -925 -94 0 0 105 -56 0 -56 0 0 -339 -102 0 0 113 -56 0 -56 0 0 -113 -56 0 -56 0 0 113 -55 0 -56 0 0 -113 -102 0 0 339 -56 0 -56 0 0 -105 -94 0 0 925z"/>
    <g>
     <path class="fil4" d="M1915 2541l0 -308c0,-28 21,-51 47,-51l451 0c27,0 48,23 48,51l0 308 -546 0z"/>
     <path class="fil5" d="M1929 2525l518 0 0 -292c0,-19 -15,-35 -34,-35l-451 0c-18,0 -33,16 -33,35l0 292z"/>
     <path class="fil4" d="M2234 2253l214 0 0 30c0,118 -90,214 -199,214l-15 0 0 -244z"/>
     <path class="fil5" d="M2249 2268l185 0 0 29c0,102 -84,185 -185,185l0 0 0 -214z"/>
     <polygon class="fil4" points="2102,2023 3034,1779 3058,1883 2126,2127 "/>
     <polygon class="fil6" points="2119,2034 3024,1797 3041,1872 2136,2109 "/>
     <polygon class="fil4" points="2154,1910 2231,2208 2044,2264 1966,1966 "/>
     <polygon class="fil6" points="2144,1929 2214,2197 2054,2245 1984,1977 "/>
     <polygon class="fil4" points="2723,2070 2666,2070 2516,2527 2444,2527 2646,1911 2744,1911 2946,2527 2873,2527 "/>
     <polygon class="fil5" points="2707,1926 2683,1926 2656,1926 2464,2511 2506,2511 2656,2055 2683,2055 2707,2055 2733,2055 2884,2511 2926,2511 2733,1926 "/>
     <rect class="fil4" x="2289" y="1888" width="69.7297" height="542.806"/>
     <rect class="fil5" x="2303" y="1903" width="41.2131" height="512.085"/>
     <rect class="fil4" x="1875" y="2494" width="1156.77" height="75.6858" rx="14" ry="15"/>
     <rect class="fil5" x="1890" y="2510" width="1128.25" height="44.965" rx="9508" ry="10240"/>
     <polygon class="fil7" points="3077,1997 3077,2259 3062,2259 3062,1997 "/>
     <path class="fil4" d="M3070 2201c16,0 29,14 29,31l0 260c0,18 -13,32 -29,32 -17,0 -30,-14 -30,-32l0 -260c0,-17 13,-31 30,-31z"/>
     <path class="fil5" d="M3070 2216l0 0c8,0 15,7 15,16l0 260c0,9 -7,17 -15,17l0 0c-9,0 -16,-8 -16,-17l0 -260c0,-9 7,-16 16,-16z"/>
     <path class="fil4" d="M2954 1792c-11,-22 -5,-43 16,-56l0 0 1 0c21,-12 43,-23 65,-34 14,-7 31,-11 43,2 5,7 5,11 9,18l0 0 1 1c12,30 23,59 35,88 21,52 18,134 -10,181 -7,11 -13,15 -23,21 -29,16 -47,-1 -59,-30 -26,-63 -51,-127 -78,-191z"/>
     <path class="fil5" d="M3076 1729c11,30 23,59 35,89 18,44 18,121 -9,166 -5,8 -10,11 -18,15 -15,9 -27,6 -39,-22 -26,-63 -52,-129 -78,-192 -9,-16 -3,-27 10,-35 22,-12 43,-23 65,-34 27,-15 29,4 34,13z"/>
     <ellipse class="fil4" cx="2695" cy="1960" rx="27" ry="29"/>
     <ellipse class="fil5" cx="2695" cy="1960" rx="13" ry="14"/>
     <ellipse class="fil4" cx="2323" cy="2026" rx="27" ry="29"/>
     <ellipse class="fil5" cx="2323" cy="2026" rx="13" ry="14"/>
     <ellipse class="fil4" cx="2323" cy="2337" rx="27" ry="29"/>
     <ellipse class="fil5" cx="2323" cy="2337" rx="13" ry="14"/>
     <ellipse class="fil4" cx="2263" cy="2284" rx="27" ry="29"/>
     <ellipse class="fil5" cx="2263" cy="2284" rx="13" ry="14"/>
    </g>
   </g>
   <g>
    <path class="fil0" d="M1687 0c561,0 1123,74 1666,228l21 5 -348 904 -16 -5c-430,-128 -877,-190 -1323,-190 -446,0 -893,62 -1324,190l-15 5 -348 -904 21 -5c543,-154 1105,-228 1666,-228z"/>
    <path class="fil8" d="M85 402l27 70c6,0 17,1 36,0 60,-2 63,35 43,85 -9,23 19,27 16,2 -6,-53 6,-88 64,-69 60,21 32,-3 65,55 32,56 4,77 -46,83 -23,3 -12,31 6,16 40,-32 74,-39 87,25 14,66 19,29 -11,89 -29,57 -60,41 -90,-2 -14,-20 -32,4 -10,14 46,21 68,49 24,93 -13,13 -19,20 -24,26l27 69 2 0c38,-12 77,-23 116,-34l13 -3 16 61c5,16 20,25 35,21 14,-5 23,-22 19,-37l-16 -59 14 -4c35,-9 70,-17 105,-25l14 -3 10 47c4,16 19,26 34,22 14,-4 24,-20 20,-36l-10 -45 14 -3c36,-8 71,-15 107,-22l14 -2 8 50c3,16 17,27 32,24 15,-2 25,-18 23,-34l-8 -50 14 -2c35,-6 70,-12 106,-17l14 -2 7 50c2,16 16,28 31,25 15,-2 25,-17 23,-34l-7 -48 15 -2c35,-5 71,-9 107,-13l13 -1 6 45c1,16 15,28 30,26 16,-2 26,-17 25,-33l-5 -43 14 -2c38,-3 76,-6 114,-8l14 -1 3 44c1,16 14,28 29,27 16,-1 27,-15 26,-32l-3 -42 14 -1c29,-1 57,-3 85,-3l15 -1 0 55c0,16 12,29 28,29 15,0 27,-13 27,-29l0 -56 14 0c22,-1 45,-1 67,-1 22,0 44,0 67,1l14 0 0 56c0,16 12,29 27,29 15,0 28,-13 28,-29l0 -55 14 1c29,0 57,2 85,3l15 1 -3 42c-1,17 10,31 25,32 15,1 29,-11 30,-27l3 -44 14 1c38,2 76,5 114,8l14 2 -5 43c-2,16 9,31 24,33 15,2 29,-10 31,-26l5 -45 14 1c36,4 71,8 107,13l14 2 -6 48c-3,17 8,32 23,34 15,3 29,-9 31,-25l7 -50 14 2c35,5 71,11 106,17l14 2 -8 50c-3,16 8,32 22,34 15,3 30,-8 33,-24l8 -50 14 2c35,7 71,14 107,22l14 3 -10 45c-4,16 5,32 20,36 15,4 30,-6 34,-22l10 -47 14 3c35,8 70,16 105,25l14 4 -16 59c-4,15 5,32 19,37 15,4 30,-5 34,-21l17 -61 13 3c39,11 77,22 116,34l2 0 10 -25c-60,-30 -104,-82 -128,-142 -25,-65 -28,-139 -1,-209 26,-70 76,-122 136,-149 58,-26 124,-29 186,-4l11 -27c-42,-12 -84,-23 -127,-34l-13 -4 11 -52c3,-16 -7,-32 -21,-35 -15,-4 -30,6 -33,22l-11 52 -14 -3c-33,-8 -67,-16 -101,-23l-13 -3 9 -53c3,-16 -7,-32 -22,-35 -15,-3 -29,8 -32,24l-9 52 -14 -2c-36,-8 -72,-15 -108,-21l-13 -3 7 -53c2,-16 -8,-31 -23,-33 -15,-3 -30,8 -32,25l-7 51 -14 -2c-34,-6 -69,-11 -104,-17l-14 -2 7 -52c2,-16 -9,-31 -24,-34 -15,-2 -29,10 -31,26l-7 52 -13 -2c-39,-5 -78,-10 -117,-15l-14 -1 5 -54c2,-16 -9,-31 -24,-32 -16,-2 -29,10 -31,26l-5 53 -14 -1c-36,-4 -72,-7 -108,-10l-14 -1 3 -54c1,-16 -10,-30 -26,-31 -15,-1 -28,11 -29,27l-3 53 -14 -1c-37,-3 -74,-5 -112,-7l-13 -1 1 -53c1,-17 -11,-30 -26,-31 -15,-1 -28,12 -29,29l-2 53 -14 -1c-33,-1 -67,-2 -100,-3l-14 -1 0 -57c0,-17 -13,-30 -28,-30 -15,0 -27,13 -27,30l0 56 -15 0c-22,0 -44,0 -66,0 -22,0 -44,0 -67,0l-14 0 0 -56c0,-17 -12,-30 -27,-30 -16,0 -28,13 -28,30l0 57 -14 1c-33,1 -67,2 -101,3l-14 1 -1 -53c-1,-17 -14,-30 -29,-29 -15,1 -27,14 -27,31l2 53 -14 1c-37,2 -74,4 -111,7l-14 1 -3 -53c-1,-16 -15,-28 -30,-27 -15,1 -26,15 -25,31l3 54 -14 1c-36,3 -72,6 -108,10l-14 1 -5 -53c-2,-16 -16,-28 -31,-26 -15,1 -26,16 -24,32l5 54 -14 1c-39,5 -78,10 -117,15l-14 2 -6 -52c-3,-16 -17,-28 -32,-26 -15,3 -25,18 -23,34l6 52 -13 2c-35,6 -70,11 -104,17l-14 2 -7 -51c-3,-17 -17,-28 -32,-25 -15,2 -25,17 -23,33l7 53 -13 3c-36,6 -72,13 -108,21l-14 2 -9 -52c-3,-16 -17,-27 -32,-24 -15,3 -25,19 -22,35l9 53 -14 3c-33,7 -67,15 -100,23l-14 3 -11 -52c-3,-16 -18,-26 -33,-22 -15,3 -24,19 -21,35l11 52 -14 4c-42,11 -84,22 -126,34zm1602 -205c70,0 133,30 179,80 46,49 74,117 74,193 0,75 -28,143 -74,193 -46,49 -109,80 -179,80 -70,0 -133,-31 -179,-80 -46,-50 -75,-118 -75,-193 0,-76 29,-144 75,-193 46,-50 109,-80 179,-80zm169 90c-43,-46 -103,-75 -169,-75 -66,0 -126,29 -169,75 -44,47 -71,111 -71,183 0,71 27,135 71,182 43,47 103,76 169,76 66,0 126,-29 169,-76 43,-47 70,-111 70,-182 0,-72 -27,-136 -70,-183zm-117 68c-16,17 8,33 14,8 13,-52 37,-79 83,-38 49,44 31,11 42,78 10,64 -24,72 -72,58 -23,-6 -23,24 0,17 48,-13 82,-6 72,59 -11,67 7,34 -42,77 -46,42 -70,14 -83,-38 -6,-24 -30,-9 -14,9 36,38 46,73 -11,96 -59,24 -24,24 -83,0 -56,-23 -46,-58 -10,-96 16,-18 -8,-33 -15,-9 -13,52 -36,80 -82,38 -49,-43 -31,-10 -42,-77 -10,-65 24,-72 72,-59 22,7 22,-23 0,-17 -48,14 -82,6 -72,-58 11,-67 -7,-34 42,-78 46,-41 69,-14 82,38 7,25 31,9 15,-8 -36,-39 -46,-74 10,-97 59,-23 24,-23 83,0 57,23 47,58 11,97zm-52 84c-16,0 -29,14 -29,31 0,17 13,31 29,31 16,0 28,-14 28,-31 0,-17 -12,-31 -28,-31zm-1505 215l21 53 0 0c8,-8 11,-22 7,-34 -5,-12 -16,-20 -28,-19zm107 279c60,-30 104,-82 128,-142 25,-65 27,-139 1,-209 -26,-70 -77,-122 -136,-149 -58,-26 -124,-29 -187,-4l6 14c59,-24 121,-21 175,4 57,26 104,74 129,140 25,66 23,137 -1,198 -23,57 -64,106 -120,134l5 14zm2801 -14l12 -30c-5,-6 -12,-13 -24,-26 -45,-44 -22,-72 24,-93 21,-10 4,-34 -10,-14 -31,43 -62,59 -90,2 -30,-60 -25,-23 -11,-89 13,-64 46,-57 86,-25 19,15 29,-13 7,-16 -50,-6 -79,-27 -47,-83 34,-58 6,-34 66,-55 58,-19 69,16 63,69 -3,25 25,21 16,-2 -19,-50 -16,-87 44,-85 19,1 30,0 36,0l-19 48 35 -90 -5 13c-59,-24 -121,-21 -175,4 -57,26 -104,74 -129,140 -25,66 -23,137 1,198 22,57 64,106 120,134zm81 -212l21 -53c-12,-1 -23,7 -28,19 -5,12 -1,26 7,34z"/>
    <path class="fil9" d="M1687 771c-22,0 -45,1 -67,1l0 41c0,24 -19,45 -41,45l0 0c-23,0 -42,-21 -42,-45l0 -39c-28,1 -57,2 -85,3l2 27c2,25 -16,46 -39,48l0 0c-22,2 -42,-17 -44,-41l-2 -29c-38,2 -76,5 -114,8l3 28c3,25 -13,47 -36,50l0 0c-23,3 -43,-14 -46,-39l-4 -31c-35,4 -71,8 -107,13l5 33c3,25 -12,47 -35,51l0 0c-23,4 -44,-13 -47,-38l-5 -35c-36,5 -71,11 -106,17l5 34c4,25 -11,48 -33,52l0 0c-23,5 -45,-12 -49,-36l-5 -36c-36,7 -72,14 -107,21l7 30c5,24 -9,49 -31,55l0 0c-22,5 -45,-9 -50,-33l-8 -34c-35,8 -70,17 -105,26l12 44c6,23 -7,48 -29,55l0 0c-22,7 -45,-7 -51,-31l-13 -47c-38,11 -77,22 -116,33l54 141c413,-123 861,-191 1329,-191 468,0 916,68 1328,191l54 -141c-38,-11 -77,-22 -116,-33l-12 47c-6,24 -30,38 -52,31l0 0c-22,-7 -35,-32 -28,-55l11 -44c-34,-9 -69,-18 -104,-26l-8 34c-5,24 -28,38 -50,33l0 0c-22,-6 -36,-31 -31,-55l7 -30c-36,-7 -71,-14 -107,-21l-6 36c-4,24 -25,41 -48,36l0 0c-23,-4 -38,-27 -34,-52l6 -34c-35,-6 -71,-12 -106,-17l-5 35c-3,25 -25,42 -47,38l0 0c-23,-4 -39,-26 -35,-51l4 -33c-35,-5 -71,-9 -106,-13l-4 31c-3,25 -24,42 -46,39l0 0c-23,-3 -39,-25 -37,-50l3 -28c-37,-3 -75,-6 -113,-8l-2 29c-2,24 -22,43 -45,41l0 0c-23,-2 -40,-23 -38,-48l2 -27c-29,-1 -57,-2 -85,-3l0 39c0,24 -19,45 -42,45l0 0c-23,0 -41,-21 -41,-45l0 -41c-23,0 -45,-1 -67,-1z"/>
    <path class="fil9" d="M1687 20c-584,0 -1143,80 -1662,227l54 140c43,-11 86,-23 129,-34l-8 -38c-5,-24 10,-48 32,-53l0 0c22,-6 45,10 50,34l7 37c34,-8 68,-16 101,-23l-6 -38c-4,-25 11,-48 33,-53l0 0c23,-4 45,12 49,36l6 38c36,-8 72,-15 108,-21l-5 -38c-3,-25 12,-48 35,-51l0 0c23,-4 44,13 47,37l5 37c35,-6 70,-11 105,-17l-5 -37c-3,-24 13,-47 35,-51l0 0c23,-3 44,14 47,39l5 37c39,-5 78,-10 117,-15l-3 -38c-3,-25 14,-47 37,-49l0 0c23,-3 43,15 46,40l3 38c36,-4 73,-7 109,-10l-2 -38c-2,-25 15,-47 38,-48l0 0c23,-2 43,17 45,41l2 38c37,-3 74,-5 112,-7l-2 -39c0,-24 18,-45 41,-46l0 0c22,-1 42,19 43,43l1 38c34,-1 67,-2 101,-3l0 -43c0,-25 19,-45 42,-45l0 0c22,0 41,20 41,45l0 41c22,0 45,0 67,0 22,0 44,0 67,0l0 -41c0,-25 18,-45 41,-45l0 0c23,0 42,20 42,45l0 43c34,1 67,2 101,3l1 -38c1,-24 20,-44 43,-43l0 0c23,1 41,22 40,46l-1 39c37,2 74,4 112,7l2 -38c2,-24 22,-43 44,-41l0 0c23,1 41,23 39,48l-2 38c36,3 72,6 109,10l3 -38c3,-25 23,-43 46,-40l0 0c23,2 39,24 37,49l-4 38c40,5 79,10 118,15l4 -37c4,-25 25,-42 47,-39l0 0c23,4 39,27 36,51l-5 37c35,6 70,11 104,17l5 -37c4,-24 25,-41 48,-37l0 0c22,3 38,26 35,51l-5 38c36,6 72,13 108,21l6 -38c4,-24 26,-40 49,-36l0 0c22,5 37,28 33,53l-7 38c34,7 68,15 101,23l8 -37c5,-24 27,-40 50,-34l0 0c22,5 36,29 31,53l-7 38c43,11 85,23 128,34l54 -140c-518,-147 -1078,-227 -1661,-227z"/>
    <path class="fil9" d="M1729 344c28,-30 41,-53 -5,-71 -58,-23 -16,-23 -74,0 -46,18 -34,41 -6,71 34,36 -25,72 -37,23 -10,-41 -22,-64 -60,-30 -47,42 -27,3 -37,68 -8,53 16,52 54,41 46,-13 46,60 0,47 -38,-11 -62,-11 -54,41 10,65 -10,26 37,68 38,34 50,11 60,-30 12,-49 71,-13 37,23 -28,31 -40,53 6,72 58,23 16,23 74,0 46,-19 33,-41 5,-72 -33,-36 26,-72 38,-23 10,41 22,64 60,30 47,-42 26,-3 37,-68 8,-52 -16,-52 -55,-41 -45,13 -45,-60 0,-47 39,11 63,12 55,-41 -11,-65 10,-26 -37,-68 -38,-34 -50,-11 -60,30 -12,49 -71,13 -38,-23zm-42 80c23,0 42,20 42,46 0,25 -19,46 -42,46 -24,0 -43,-21 -43,-46 0,-26 19,-46 43,-46z"/>
    <path class="fil9" d="M3256 486c-5,1 -15,2 -30,1 -50,-2 -46,25 -31,64 19,47 -48,57 -43,6 5,-42 2,-68 -45,-52 -58,20 -25,-8 -58,48 -26,45 -3,55 36,60 47,7 21,74 -16,44 -32,-26 -54,-37 -65,15 -13,65 -19,20 10,79 24,47 43,30 67,-4 28,-40 70,17 26,37 -36,17 -56,32 -19,68 10,10 15,17 19,22l59 -152c-16,-12 -22,-35 -15,-55 8,-20 27,-31 46,-28l59 -153z"/>
    <path class="fil9" d="M118 486c5,1 14,2 30,1 50,-2 46,25 30,64 -18,47 49,57 43,6 -5,-42 -2,-68 46,-52 58,20 25,-8 57,48 27,45 4,55 -36,60 -46,7 -21,74 17,44 31,-26 54,-37 65,15 13,65 18,20 -10,79 -24,47 -43,30 -67,-4 -28,-40 -70,17 -26,37 36,17 56,32 19,68 -10,10 -16,17 -20,22l-58 -152c16,-12 22,-35 15,-55 -8,-20 -27,-31 -47,-28l-58 -153z"/>
   </g>
  </g>
 </g>
</svg>
