<?xml version="1.0" encoding="UTF-8"?>
<!DOCTYPE svg PUBLIC "-//W3C//DTD SVG 1.1//EN" "http://www.w3.org/Graphics/SVG/1.1/DTD/svg11.dtd">
<!-- Creator: CorelDRAW X7 -->
<svg xmlns="http://www.w3.org/2000/svg" xml:space="preserve" width="3.24047in" height="4.92913in" version="1.1" style="shape-rendering:geometricPrecision; text-rendering:geometricPrecision; image-rendering:optimizeQuality; fill-rule:evenodd; clip-rule:evenodd"
viewBox="0 0 3240 4929"
 xmlns:xlink="http://www.w3.org/1999/xlink">
 <defs>
  <style type="text/css">
   <![CDATA[
    .fil0 {fill:#313031}
    .fil2 {fill:#7793F7}
    .fil1 {fill:#FEE487}
    .fil3 {fill:#FF605A}
    .fil4 {fill:white}
   ]]>
  </style>
 </defs>
 <g id="Layer_x0020_1">
  <metadata id="CorelCorpID_0Corel-Layer"/>
  <g id="_626352784">
   <g>
    <path class="fil0" d="M1620 0c541,0 1080,83 1593,253l27 9 -339 956 -27 -9c-401,-145 -827,-216 -1254,-216 -426,0 -852,71 -1254,216l-26 9 -340 -956 27 -9c513,-170 1053,-253 1593,-253z"/>
    <path class="fil1" d="M1620 28c559,0 1094,89 1584,252l-12 34c-4,-3 -9,-5 -14,-6 -9,-2 -18,0 -26,5 -8,5 -16,12 -21,23 -7,12 -11,27 -12,47 -4,-3 -9,-6 -13,-9 -8,-6 -16,-12 -22,-19l-3 -4 -4 1c-12,2 -22,3 -32,3 -7,0 -13,-1 -20,-2 17,-29 19,-54 12,-71 -5,-12 -14,-20 -25,-23 -11,-4 -23,-2 -34,6 -14,11 -25,34 -26,71 -6,-3 -11,-7 -17,-10l0 0c-8,-6 -15,-13 -20,-20l-3 -5 -6 2c-11,3 -22,6 -33,7 -6,1 -13,1 -20,1 19,-30 19,-55 12,-73 -6,-13 -17,-22 -29,-25 -12,-4 -25,-1 -36,8 -14,12 -25,35 -23,72 -6,-3 -12,-6 -17,-9 -8,-6 -16,-12 -21,-21l-4 -6 -6 3c-15,6 -30,7 -47,7 17,-27 18,-49 11,-65 -5,-14 -16,-22 -29,-25 -12,-4 -26,-1 -37,8 -14,12 -24,34 -21,69 -7,-3 -14,-5 -20,-9 -9,-4 -17,-11 -25,-20l-3 -4 -5 1c-12,4 -22,7 -33,9 -6,1 -13,1 -21,1 17,-31 17,-57 8,-74 -6,-14 -17,-22 -29,-25 -13,-3 -26,0 -37,10 -13,13 -23,37 -19,76l-3 -1c-14,-6 -27,-11 -40,-24l-4 -4 -5 2c-9,5 -18,8 -28,11 -6,1 -12,3 -19,4 14,-33 12,-58 3,-74 -7,-12 -17,-19 -29,-21 -12,-2 -24,1 -35,10 -14,13 -25,37 -22,75l-1 -1c-17,-8 -33,-15 -45,-27l-4 -3 -4 1c-9,4 -19,7 -30,10 -6,1 -12,2 -19,3 12,-29 9,-53 -1,-68 -7,-12 -18,-19 -30,-21 -12,-2 -24,1 -34,11 -14,12 -23,35 -19,71 -17,-6 -33,-12 -48,-22l-4 -3 -4 2c-14,6 -30,9 -47,11 11,-30 8,-54 -1,-69 -7,-11 -17,-17 -28,-19 -11,-2 -22,1 -32,9 -15,12 -26,36 -24,74 -6,-1 -12,-2 -19,-4 -8,-3 -17,-7 -24,-12l-4 -2 -3 2c-11,4 -20,7 -31,9 -7,1 -14,2 -22,2 11,-33 7,-57 -3,-72 -8,-11 -19,-17 -31,-17 -12,-1 -23,4 -32,14 -11,13 -17,36 -10,68 -10,-3 -19,-8 -28,-13 -10,-5 -19,-12 -28,-20 -1,-1 -5,-5 -10,-10 -4,5 -8,9 -9,10 -9,8 -19,15 -29,20 -9,5 -18,10 -28,13 7,-32 2,-55 -10,-68 -8,-10 -20,-15 -32,-14 -11,0 -22,6 -30,17 -11,15 -15,39 -3,72 -8,0 -16,-1 -23,-2 -10,-2 -20,-5 -30,-9l-4 -2 -3 2c-8,5 -16,9 -25,12 -6,2 -12,3 -18,4 2,-38 -9,-62 -24,-74 -10,-8 -22,-11 -33,-9 -10,2 -20,8 -27,19 -10,15 -13,39 -1,69 -18,-2 -34,-5 -48,-11l-4 -2 -4 3c-14,10 -31,16 -47,22 3,-36 -6,-59 -19,-71 -11,-10 -23,-13 -35,-11 -11,2 -22,9 -30,21 -9,15 -13,39 -1,68 -6,-1 -13,-2 -19,-3 -10,-3 -20,-6 -29,-10l-5 -1 -4 3c-12,12 -27,19 -44,27l-1 1c2,-38 -8,-62 -23,-75 -10,-9 -23,-12 -34,-10 -12,2 -23,9 -30,21 -9,16 -10,41 3,74 -6,-1 -12,-3 -18,-4 -10,-3 -19,-6 -29,-11l-5 -2 -4 4c-12,13 -25,18 -39,24l-3 1c3,-39 -6,-63 -20,-76 -10,-10 -24,-13 -36,-10 -12,3 -23,11 -30,25 -8,17 -9,43 8,74 -7,0 -14,0 -21,-1 -10,-2 -21,-5 -33,-9l-5 -1 -3 4c-7,9 -16,16 -25,20 -6,4 -12,6 -19,9 2,-35 -8,-57 -22,-69 -11,-9 -25,-12 -37,-8 -12,3 -23,11 -29,25 -6,16 -5,38 11,65 -16,0 -32,-1 -47,-7l-6 -3 -3 6c-6,9 -13,15 -22,21 -5,3 -11,6 -17,9 2,-37 -8,-60 -22,-72 -11,-9 -25,-12 -37,-8 -12,3 -22,12 -28,25 -8,18 -7,43 11,73 -7,0 -13,0 -20,-1 -10,-1 -21,-4 -33,-7l-5 -2 -3 5c-5,7 -12,14 -21,20l0 0c-5,3 -11,7 -17,10 0,-37 -12,-60 -26,-71 -11,-8 -23,-10 -34,-6 -10,3 -20,11 -24,23 -7,17 -6,42 12,71 -7,1 -14,2 -20,2 -11,0 -21,-1 -32,-3l-5 -1 -2 4c-6,7 -14,13 -22,19 -5,3 -9,6 -14,9 0,-20 -5,-35 -11,-47 -6,-11 -13,-18 -21,-23 -9,-5 -18,-7 -27,-5 -5,1 -9,3 -14,6l-12 -34c491,-163 1025,-252 1584,-252zm1567 301l-38 107 -1 0c-80,-29 -164,-22 -235,11 -71,34 -129,95 -158,175 -28,79 -22,163 12,234 33,72 94,130 174,158l2 1 -14 41c-2,0 -4,0 -6,0 -6,1 -12,2 -17,3 -6,-6 -12,-12 -19,-17 -8,-6 -17,-11 -27,-16l-10 -5 0 12c-1,35 -13,54 -26,61 -9,5 -19,5 -28,2 -8,-4 -14,-11 -17,-20l0 0c-4,-14 2,-35 25,-58l9 -9 -13 -3c-13,-4 -26,-6 -39,-7 -12,-1 -23,-1 -35,1 -6,-7 -12,-13 -20,-18 -9,-6 -19,-12 -30,-16l-11 -4 1 11c1,37 -9,58 -21,66 -7,5 -15,6 -21,4 -7,-2 -14,-7 -18,-14 -7,-14 -6,-36 11,-64l5 -8 -10 -3c-10,-3 -20,-4 -30,-4 -9,0 -17,2 -25,4 -6,-6 -13,-12 -20,-16 -9,-6 -19,-10 -29,-14l-10 -3 0 11c3,35 -7,55 -21,64 -7,6 -16,7 -23,5l0 0c-8,-2 -14,-7 -18,-14 -6,-14 -5,-36 14,-65l7 -10 -12 -2c-13,-1 -25,-2 -38,-1 -11,1 -22,2 -33,5 -6,-5 -13,-10 -21,-15 -9,-5 -19,-10 -30,-14l-12 -4 2 12c4,37 -5,59 -18,69 -7,6 -16,7 -24,6 -8,-2 -15,-8 -19,-16 -7,-14 -6,-37 13,-65l7 -11 -13 -1c-13,-1 -24,0 -35,1 -10,2 -19,4 -29,7 -6,-5 -14,-9 -21,-13l0 0c-11,-5 -23,-10 -33,-13l-11 -3 1 11c4,36 -5,58 -18,67 -7,6 -15,7 -23,5 -8,-2 -15,-7 -20,-15l0 0c-7,-14 -7,-36 11,-62l8 -13 -15 1c-12,0 -23,2 -33,4 -10,2 -18,5 -28,9 -7,-6 -15,-10 -24,-13 -10,-4 -21,-7 -31,-9l-10 -2 1 10c2,37 -7,59 -20,68 -7,5 -14,7 -21,6 -6,-1 -13,-4 -18,-10 -11,-13 -16,-36 -6,-67l3 -10 -10 0c-12,0 -24,1 -35,4 -9,2 -17,5 -26,9 -7,-4 -14,-7 -22,-10 -10,-3 -20,-6 -30,-8l-12 -2 3 11c9,35 3,58 -9,69 -7,7 -16,10 -24,9 -9,0 -17,-5 -23,-13 -9,-13 -10,-35 5,-65l5 -11 -12 0c-23,1 -53,11 -77,21 -23,-10 -53,-20 -76,-21l-13 0 6 11c15,30 13,52 4,65 -5,8 -13,13 -22,13 -9,1 -18,-2 -25,-9 -12,-11 -18,-34 -9,-69l4 -11 -12 2c-11,2 -21,5 -30,8 -8,3 -16,6 -23,10 -8,-4 -17,-7 -26,-9 -11,-3 -22,-4 -34,-4l-11 0 4 10c10,31 5,54 -6,67 -5,6 -12,9 -19,10 -7,1 -14,-1 -20,-6 -13,-9 -23,-31 -20,-68l1 -10 -10 2c-11,2 -21,5 -31,9 -9,3 -18,7 -25,13 -9,-4 -18,-7 -27,-9 -10,-2 -21,-4 -33,-4l-15 -1 8 13c17,26 18,48 10,62l0 0c-4,8 -11,13 -19,15 -8,2 -17,1 -24,-5 -12,-9 -21,-31 -18,-67l2 -11 -11 3c-11,3 -23,8 -33,13l0 0c-8,4 -15,8 -21,13 -10,-3 -20,-5 -29,-7 -11,-1 -23,-2 -36,-1l-13 1 7 11c19,28 21,51 14,65 -4,8 -12,14 -20,16 -8,1 -17,0 -24,-6 -13,-10 -22,-32 -17,-69l1 -12 -11 4c-11,4 -21,9 -30,14 -8,5 -15,10 -22,15 -11,-3 -22,-4 -33,-5 -12,-1 -25,0 -37,1l-12 2 6 10c19,29 21,51 14,65 -3,7 -10,12 -17,14l0 0c-8,2 -16,1 -24,-5 -13,-9 -23,-29 -21,-64l1 -11 -11 3c-10,4 -19,8 -28,14 -8,4 -15,10 -21,16 -8,-2 -16,-4 -24,-4 -10,0 -21,1 -31,4l-10 3 6 8c17,28 17,50 10,64 -4,7 -10,12 -17,14 -7,2 -14,1 -21,-4 -13,-8 -22,-29 -21,-66l0 -11 -10 4c-12,4 -22,10 -31,16 -7,5 -14,11 -20,18 -11,-2 -23,-2 -34,-1 -13,1 -27,3 -40,7l-13 3 10 9c23,23 28,44 25,58l0 0c-3,9 -10,16 -18,20 -8,3 -18,3 -27,-2 -14,-7 -26,-26 -26,-61l0 -12 -11 5c-10,5 -19,10 -27,16 -6,5 -13,11 -18,17 -6,-1 -12,-2 -17,-3 -2,0 -4,0 -6,0l-15 -41 3 -1c80,-28 140,-86 174,-158 33,-71 40,-155 11,-234 -28,-80 -87,-141 -158,-175 -71,-33 -155,-40 -235,-11l0 0 -38 -107c3,-3 7,-5 11,-6 5,-1 11,0 16,3 6,4 11,9 16,17 6,12 10,30 9,52l-1 14 12 -7c8,-4 18,-9 27,-16 7,-5 15,-11 22,-18 10,1 20,2 30,2 11,0 22,-1 34,-3l12 -3 -7 -9c-21,-29 -23,-52 -17,-67 3,-8 8,-13 15,-15 6,-2 13,-1 20,4 12,10 22,32 20,71l-1 13 12 -6c10,-5 20,-10 30,-17l0 0c8,-5 15,-12 21,-19 10,3 20,5 30,6 12,2 24,1 37,-1l12 -2 -8 -10c-21,-29 -23,-52 -16,-68 4,-8 11,-14 18,-17 8,-2 16,0 23,6 12,10 21,33 16,72l-1 13 12 -5c11,-5 21,-10 31,-16 8,-6 16,-13 22,-21 19,6 38,6 58,7l4 0 15 0 -9 -12c-21,-28 -23,-49 -18,-63 4,-9 11,-15 19,-17 7,-2 16,0 23,6 12,10 20,31 15,67l-2 12 12 -4c12,-4 23,-8 34,-13 9,-5 18,-12 26,-21 10,3 20,6 30,8 11,2 23,2 37,1l13 -1 -7 -11c-21,-30 -22,-55 -14,-71 4,-9 12,-14 19,-16 8,-2 16,0 23,6 12,11 19,36 13,77l-2 14 13 -6c5,-3 10,-5 15,-7 14,-5 27,-11 41,-24 8,4 17,7 26,10 10,2 22,5 35,7l15 2 -8 -13c-17,-34 -17,-59 -9,-74 4,-8 11,-12 18,-13 7,-2 15,1 22,7 13,11 22,35 16,74l-2 15 13 -7c5,-2 9,-4 13,-6 17,-8 32,-15 45,-27 9,3 18,6 28,8 10,3 22,5 34,7l15 2 -7 -13c-16,-30 -14,-53 -6,-67 5,-8 12,-12 20,-14 7,-1 15,1 21,7 12,10 19,33 13,70l-2 13 12 -5c3,-1 7,-2 12,-4 16,-5 32,-11 48,-22 18,8 39,11 61,12l13 0 -5 -11c-15,-30 -14,-53 -5,-66 4,-7 10,-11 17,-12 7,-1 14,1 20,6 13,10 22,33 18,70l-1 10 9 -1c9,-1 20,-3 31,-7 8,-3 17,-6 25,-11 10,4 19,7 29,9 11,2 23,3 37,2l11 -1 -4 -9c-14,-33 -12,-55 -3,-68 5,-7 12,-11 19,-11 7,-1 14,2 20,9 10,11 14,34 3,68l-4 14 14 -5c16,-5 30,-11 44,-18 11,-6 21,-14 30,-22 10,8 20,16 31,22 13,7 28,13 44,18l14 5 -5 -14c-10,-34 -6,-57 4,-68 5,-7 12,-10 19,-9 7,0 14,4 19,11 9,13 11,35 -2,68l-5 9 11 1c14,1 26,0 37,-2 10,-2 20,-5 30,-9 8,5 16,8 25,11 10,4 21,6 31,7l9 1 -1 -10c-4,-37 5,-60 17,-70 7,-5 14,-7 21,-6 6,1 12,5 17,12 8,13 9,36 -5,66l-6 11 13 0c22,-1 43,-4 61,-12 16,11 33,17 49,22 4,2 9,3 11,4l13 5 -2 -13c-7,-37 1,-60 12,-70 7,-6 14,-8 22,-7 7,2 14,6 19,14 9,14 10,37 -5,67l-7 13 14 -2c13,-2 24,-4 35,-7 9,-2 18,-5 27,-8 13,12 28,19 45,27 4,2 9,4 14,6l13 7 -2 -15c-6,-39 3,-63 15,-74 7,-6 15,-9 22,-7 8,1 14,5 19,13 8,15 8,40 -10,74l-7 13 15 -2c13,-2 24,-5 35,-7 9,-3 17,-6 26,-10 14,13 27,19 41,24 5,2 10,4 15,7l13 6 -2 -14c-7,-41 1,-66 13,-77 6,-6 15,-8 22,-6 8,2 15,7 19,16 8,16 7,41 -13,71l-7 11 13 1c14,1 25,1 37,-1 10,-2 19,-5 30,-8 8,9 16,16 26,21 10,5 21,9 33,13l12 4 -2 -12c-5,-36 3,-57 15,-67 7,-6 16,-8 24,-6 8,2 15,8 18,17 6,14 3,35 -17,63l-10 12 16 0 3 0c21,-1 39,-1 58,-7 7,8 14,15 23,21 9,6 20,11 31,16l12 5 -2 -13c-4,-39 4,-62 16,-72 7,-6 16,-8 23,-6 8,3 15,9 19,17 6,16 4,39 -17,68l-7 10 12 2c13,2 24,3 36,1 10,-1 20,-3 30,-6 6,7 14,14 22,19l0 0c9,7 20,12 30,17l12 6 -1 -13c-2,-39 7,-61 20,-71 6,-5 13,-6 20,-4 6,2 12,7 15,15 6,15 3,38 -18,67l-7 9 12 3c12,2 24,3 35,3 10,0 20,-1 30,-2 6,7 14,13 22,18 9,7 18,12 26,16l12 7 0 -14c-2,-22 2,-40 9,-52 4,-8 10,-13 15,-17 6,-3 11,-4 17,-3 3,1 7,3 11,6zm-264 743l-39 110c-388,-140 -815,-217 -1264,-217 -448,0 -876,77 -1263,217l-39 -110c6,0 12,1 18,3l4 1 4 -4c5,-6 11,-12 18,-18 5,-3 9,-6 14,-9 3,34 17,54 34,63 13,7 27,7 40,2 12,-5 22,-16 26,-30l0 0c5,-17 1,-39 -19,-63 8,-1 16,-3 24,-3 11,-1 23,0 35,2l4 1 3 -3c6,-8 13,-14 20,-20 5,-3 11,-7 17,-9 1,35 12,57 27,67 11,7 23,9 34,6 11,-3 21,-11 27,-22 8,-17 9,-41 -6,-70 5,-1 11,-1 16,-1 9,0 17,2 25,5l4 2 4 -4c6,-7 13,-13 21,-18 4,-2 9,-5 15,-7 0,34 12,55 28,66 11,8 24,10 35,7l0 0c12,-3 22,-11 28,-23 8,-16 8,-39 -8,-69 7,0 15,0 22,0 11,1 23,3 34,6l4 1 3 -3c7,-5 14,-11 22,-16 5,-3 11,-6 17,-8 -2,36 9,58 24,70 11,9 25,11 37,8 12,-2 23,-11 30,-24 8,-16 8,-40 -8,-68 7,0 13,1 19,2 11,1 20,4 31,7l5 2 3 -3c5,-6 13,-10 21,-14l0 0c6,-4 13,-6 20,-9 -2,36 9,58 24,69 11,9 24,11 36,8 12,-3 23,-11 30,-23l0 0c8,-16 9,-38 -4,-65 6,1 11,2 17,3 9,2 18,5 28,9l4 2 4 -3c7,-5 15,-9 24,-13 6,-2 13,-4 19,-6 0,37 11,60 27,72 9,7 20,9 31,8 10,-1 20,-6 28,-15 13,-15 20,-39 12,-71 7,0 14,1 21,3 9,2 18,5 26,9l3 2 4 -2c7,-4 15,-8 24,-11 5,-1 11,-3 16,-4 -6,34 2,58 15,71 11,10 24,15 37,14 13,-2 26,-8 34,-20 10,-16 14,-39 2,-69 17,2 46,14 64,22 19,-8 48,-20 65,-22 -12,30 -9,53 2,69 8,12 20,18 33,20 13,1 27,-4 37,-14 14,-13 22,-37 15,-71 6,1 11,3 17,4 8,3 16,7 24,11l3 2 4 -2c8,-4 16,-7 26,-9 6,-2 13,-3 20,-3 -7,32 -1,56 12,71 8,9 18,14 29,15 10,1 21,-1 31,-8 15,-12 27,-35 26,-72 7,2 13,4 19,6 9,4 18,8 25,13l3 3 4 -2c10,-4 19,-7 29,-9 5,-1 11,-2 16,-3 -13,27 -12,49 -3,65l0 0c6,12 17,20 29,23 12,3 25,1 37,-8 14,-11 25,-33 24,-69 7,3 13,5 20,9l0 0c8,4 15,8 21,14l3 3 4 -2c11,-3 21,-6 31,-7 6,-1 13,-2 19,-2 -15,28 -15,52 -7,68 6,13 17,22 30,24 12,3 26,1 37,-8 15,-12 26,-34 24,-70 6,2 11,5 16,8 8,5 16,11 23,16l3 3 4 -1c11,-3 22,-5 33,-6 8,0 15,0 23,0 -16,30 -16,53 -9,69 6,12 17,20 28,23l0 0c12,3 25,1 36,-7 15,-11 28,-32 28,-66 5,2 10,5 15,7 7,5 14,11 20,18l4 4 5 -2c8,-3 16,-5 24,-5 6,0 11,0 17,1 -16,29 -15,53 -6,70 6,11 16,19 26,22 11,3 24,1 34,-6 15,-10 27,-32 28,-67 6,2 11,6 16,9 8,6 14,12 20,20l3 3 5 -1c11,-2 23,-3 35,-2 8,0 16,2 24,3 -20,24 -24,46 -20,63l0 0c4,14 14,25 27,30 12,5 27,5 40,-2 16,-9 30,-29 33,-63 5,3 10,6 14,9 7,6 13,12 19,18l3 4 5 -1c6,-2 12,-3 18,-3zm-1303 -885c85,0 162,34 217,90 56,55 91,132 91,217 0,85 -35,162 -91,217 -55,56 -132,90 -217,90 -85,0 -161,-34 -217,-90 -56,-55 -90,-132 -90,-217 0,-85 34,-162 90,-217 56,-56 132,-90 217,-90zm0 234c41,0 74,32 74,73 0,40 -33,73 -74,73 -40,0 -73,-33 -73,-73 0,-41 33,-73 73,-73zm0 16c-31,0 -57,26 -57,57 0,31 26,57 57,57 32,0 57,-26 57,-57 0,-31 -25,-57 -57,-57zm64 -73c-20,20 9,38 17,10 16,-59 44,-89 100,-43 59,49 38,12 50,88 13,72 -28,81 -87,65 -27,-7 -27,27 0,20 59,-16 100,-7 87,65 -12,76 9,39 -50,87 -56,47 -84,16 -100,-42 -8,-28 -37,-11 -17,10 43,43 55,82 -13,108 -72,26 -29,26 -101,0 -69,-26 -56,-65 -13,-108 20,-21 -10,-38 -17,-10 -16,58 -44,89 -101,42 -59,-48 -37,-11 -50,-87 -12,-72 28,-81 87,-65 27,7 27,-27 0,-20 -59,16 -99,7 -87,-65 13,-76 -8,-39 50,-88 57,-46 85,-16 101,43 7,28 37,10 17,-10 -43,-43 -56,-83 13,-108 72,-27 29,-27 101,0 68,25 56,65 13,108zm-12 -12c34,-34 49,-59 -7,-80 -70,-26 -20,-26 -89,0 -56,21 -41,46 -7,80 40,41 -31,82 -46,26 -12,-46 -27,-72 -73,-34 -57,48 -32,4 -44,77 -10,59 19,59 66,47 55,-15 55,67 0,52 -47,-12 -76,-13 -66,46 12,73 -13,30 44,77 46,39 61,13 73,-34 15,-55 86,-14 46,27 -34,34 -49,59 7,80 69,26 19,26 89,0 56,-21 41,-46 7,-80 -41,-41 30,-82 45,-27 13,47 27,73 73,34 57,-47 32,-4 45,-77 10,-59 -20,-58 -66,-46 -55,15 -55,-67 0,-52 46,12 76,12 66,-47 -13,-73 12,-29 -45,-77 -46,-38 -60,-12 -73,34 -15,56 -86,15 -45,-26zm154 -63c-53,-53 -126,-85 -206,-85 -80,0 -153,32 -205,85 -53,52 -85,125 -85,205 0,80 32,153 85,205 52,53 125,85 205,85 80,0 153,-32 206,-85 52,-52 85,-125 85,-205 0,-80 -33,-153 -85,-205zm1317 163l-11 31c-7,-3 -15,1 -55,1 -73,1 -75,43 -49,98 13,25 -21,32 -19,3 5,-60 -11,-99 -80,-74 -72,26 -39,-1 -77,65 -36,64 0,86 60,91 28,3 17,35 -7,19 -50,-35 -91,-40 -104,32 -13,75 -21,33 18,99 38,63 75,44 109,-6 16,-24 39,3 13,15 -55,26 -80,59 -24,106 32,27 34,35 43,36l-11 31 -2 -1c-76,-27 -133,-82 -165,-149 -32,-67 -38,-146 -11,-222 27,-75 82,-133 149,-164 68,-32 147,-38 222,-11l1 0zm-16 46l-57 159 -1 -1c-38,-14 -80,6 -94,44 -13,39 7,81 45,94l1 1 -56 158c-6,0 -5,-6 -37,-34 -46,-38 -23,-57 20,-78 52,-24 -1,-87 -34,-40 -27,40 -50,59 -80,8 -38,-64 -29,-15 -16,-88 11,-59 38,-49 78,-21 47,32 74,-45 18,-50 -48,-4 -76,-13 -47,-65 36,-65 -2,-33 68,-58 56,-20 61,9 57,57 -5,57 76,42 52,-10 -21,-43 -27,-72 33,-73 40,0 45,-5 50,-3zm-62 174l-38 107 -2 0c-29,-11 -45,-43 -34,-73 11,-29 43,-45 73,-34l1 0zm-2773 327l-11 -31c8,-1 10,-9 43,-36 56,-47 31,-80 -24,-106 -26,-12 -4,-39 12,-15 35,50 72,69 109,6 39,-66 31,-24 18,-99 -13,-72 -54,-67 -104,-32 -23,16 -35,-16 -7,-19 61,-5 96,-27 60,-91 -37,-66 -5,-39 -77,-65 -68,-25 -84,14 -79,74 2,29 -32,22 -20,-3 26,-55 25,-97 -49,-98 -40,0 -48,-4 -55,-1l-11 -31 1 0c76,-27 155,-21 222,11 67,31 122,89 149,164 27,76 21,155 -10,222 -32,67 -90,122 -165,149l-2 1zm-17 -46l-56 -158 2 -1c38,-13 58,-55 44,-94 -14,-38 -56,-58 -94,-44l-1 1 -56 -159c4,-2 9,3 49,3 60,1 54,30 34,73 -25,52 56,67 51,10 -3,-48 1,-77 58,-57 69,25 31,-7 68,58 29,52 1,61 -47,65 -57,5 -29,82 18,50 39,-28 67,-38 77,21 13,73 22,24 -16,88 -30,51 -52,32 -80,-8 -32,-47 -86,16 -34,40 44,21 67,40 21,78 -33,28 -31,34 -38,34zm-61 -174l-38 -107 1 0c29,-11 62,5 72,34 11,30 -4,62 -34,73l-1 0z"/>
   </g>
   <g>
    <path class="fil0" d="M0 1188l3240 0 0 2113c0,891 -729,1620 -1620,1620 -891,0 -1620,-729 -1620,-1620l0 -2113z"/>
    <g>
     <path class="fil1" d="M2383 4662c-226,128 -486,200 -763,200 -276,0 -536,-72 -762,-200 3,0 7,0 11,0 73,0 127,23 181,45 57,25 114,49 194,49 81,0 138,-24 195,-49 54,-22 108,-45 181,-45 74,0 128,23 182,45 57,25 114,49 194,49 80,0 137,-24 194,-49 55,-22 108,-45 182,-45 4,0 7,0 11,0z"/>
     <path class="fil2" d="M2649 4473c-70,62 -147,118 -228,167 -15,-2 -32,-4 -49,-4 -79,0 -136,24 -193,48 -54,23 -109,46 -183,46 -74,0 -129,-23 -183,-46 -57,-24 -114,-48 -193,-48 -79,0 -136,24 -193,48 -54,23 -108,46 -183,46 -74,0 -128,-23 -183,-46 -56,-24 -113,-48 -192,-48 -18,0 -34,2 -50,4 -81,-49 -157,-105 -228,-167 35,-9 65,-22 96,-35 54,-23 108,-46 182,-46 73,0 127,23 181,46 57,24 114,48 194,48 81,0 138,-24 195,-48 54,-23 108,-46 181,-46 74,0 128,23 182,46 57,24 114,48 194,48 80,0 137,-24 194,-48 55,-23 108,-46 182,-46 73,0 127,23 181,46 31,13 62,26 96,35z"/>
     <path class="fil1" d="M2907 4182c-68,99 -146,189 -234,270 -40,-9 -74,-23 -108,-38 -57,-24 -114,-47 -193,-47 -79,0 -136,23 -193,47 -54,23 -109,46 -183,46 -74,0 -129,-23 -183,-46 -57,-24 -114,-47 -193,-47 -79,0 -136,23 -193,47 -54,23 -108,46 -183,46 -74,0 -128,-23 -183,-46 -56,-24 -113,-47 -192,-47 -80,0 -136,23 -193,47 -34,15 -69,29 -108,38 -88,-81 -167,-171 -235,-270 47,19 96,34 160,34 80,0 137,-24 194,-48 54,-23 108,-46 182,-46 73,0 127,23 181,46 57,24 114,48 194,48 81,0 138,-24 195,-48 54,-23 108,-46 181,-46 74,0 128,23 182,46 57,24 114,48 194,48 80,0 137,-24 194,-48 55,-23 108,-46 182,-46 73,0 127,23 181,46 57,24 115,48 195,48 64,0 113,-15 159,-34z"/>
     <path class="fil2" d="M3079 3855c-39,102 -88,198 -146,289l-2 1c-55,22 -109,45 -183,45 -75,0 -129,-23 -183,-45 -57,-24 -114,-48 -193,-48 -79,0 -136,24 -193,48 -54,22 -109,45 -183,45 -74,0 -129,-23 -183,-45 -57,-24 -114,-48 -193,-48 -79,0 -136,24 -193,48 -54,22 -108,45 -183,45 -74,0 -128,-23 -183,-45 -56,-24 -113,-48 -192,-48 -80,0 -136,24 -193,48 -55,22 -109,45 -183,45 -75,0 -129,-23 -183,-45l-3 -1c-58,-91 -107,-187 -146,-289 52,7 95,25 137,43 57,24 115,48 195,48 80,0 137,-24 194,-48 54,-23 108,-46 182,-46 73,0 127,23 181,46 57,24 114,48 194,48 81,0 138,-24 195,-48 54,-23 108,-46 181,-46 74,0 128,23 182,46 57,24 114,48 194,48 80,0 137,-24 194,-48 55,-23 108,-46 182,-46 73,0 127,23 181,46 57,24 115,48 195,48 80,0 137,-24 194,-48 43,-18 85,-36 137,-43z"/>
     <path class="fil1" d="M3156 3584c-16,84 -38,166 -67,244 -62,6 -110,26 -158,47 -55,23 -109,45 -183,45 -75,0 -129,-22 -183,-45 -57,-24 -114,-48 -193,-48 -79,0 -136,24 -193,48 -54,23 -109,45 -183,45 -74,0 -129,-22 -183,-45 -57,-24 -114,-48 -193,-48 -79,0 -136,24 -193,48 -54,23 -108,45 -183,45 -74,0 -128,-22 -183,-45 -56,-24 -113,-48 -192,-48 -80,0 -136,24 -193,48 -55,23 -109,45 -183,45 -75,0 -129,-22 -183,-45 -49,-21 -97,-41 -159,-47 -28,-78 -51,-160 -66,-244 10,-1 21,-1 32,-1 73,0 127,22 181,45 57,24 115,48 195,48 80,0 137,-24 194,-48 54,-23 108,-45 182,-45 73,0 127,22 181,45 57,24 114,48 194,48 81,0 138,-24 195,-48 54,-23 108,-45 181,-45 74,0 128,22 182,45 57,24 114,48 194,48 80,0 137,-24 194,-48 55,-23 108,-45 182,-45 73,0 127,22 181,45 57,24 115,48 195,48 80,0 137,-24 194,-48 54,-23 108,-45 182,-45 11,0 21,0 32,1z"/>
     <path class="fil2" d="M3181 3318c0,82 -8,162 -21,241 -12,-1 -24,-2 -36,-2 -80,0 -136,24 -193,48 -55,23 -109,46 -183,46 -75,0 -129,-23 -183,-46 -57,-24 -114,-48 -193,-48 -79,0 -136,24 -193,48 -54,23 -109,46 -183,46 -74,0 -129,-23 -183,-46 -57,-24 -114,-48 -193,-48 -79,0 -136,24 -193,48 -54,23 -108,46 -183,46 -74,0 -128,-23 -183,-46 -56,-24 -113,-48 -192,-48 -80,0 -136,24 -193,48 -55,23 -109,46 -183,46 -75,0 -129,-23 -183,-46 -57,-24 -114,-48 -193,-48 -13,0 -25,1 -37,2 -13,-79 -20,-159 -21,-241 18,-4 37,-5 58,-5 73,0 127,22 181,45 57,24 115,48 195,48 80,0 137,-24 194,-48 54,-23 108,-45 182,-45 73,0 127,22 181,45 57,24 114,48 194,48 81,0 138,-24 195,-48 54,-23 108,-45 181,-45 74,0 128,22 182,45 57,24 114,48 194,48 80,0 137,-24 194,-48 55,-23 108,-45 182,-45 73,0 127,22 181,45 57,24 115,48 195,48 80,0 137,-24 194,-48 54,-23 108,-45 182,-45 20,0 39,1 57,5z"/>
     <path class="fil1" d="M3182 3230l0 62c-18,-3 -38,-5 -58,-5 -80,0 -136,24 -193,48 -55,23 -109,46 -183,46 -75,0 -129,-23 -183,-46 -57,-24 -114,-48 -193,-48 -79,0 -136,24 -193,48 -54,23 -109,46 -183,46 -74,0 -129,-23 -183,-46 -57,-24 -114,-48 -193,-48 -79,0 -136,24 -193,48 -54,23 -108,46 -183,46 -74,0 -128,-23 -183,-46 -56,-24 -113,-48 -192,-48 -80,0 -136,24 -193,48 -55,23 -109,46 -183,46 -75,0 -129,-23 -183,-46 -57,-24 -114,-48 -193,-48 -21,0 -40,2 -58,5l0 -62 3123 0z"/>
    </g>
    <path class="fil3" d="M59 1247l3123 0 0 1942 -604 0 -190 -609 0 -404 -353 0 0 358 -44 0 0 -147 -135 0 0 147 -44 0 0 -358 -130 0 -254 0 0 358 -44 0 0 -147 -134 0 0 147 -44 0 0 -358 -353 0 0 404 -191 609 -603 0 0 -1942zm1645 1942l0 -138c0,-46 -38,-84 -84,-84 -46,0 -84,38 -84,84l0 138 168 0z"/>
    <path class="fil4" d="M1620 2204l-46 0 0 112 -43 0 0 -112 -75 0 0 359 -100 0 0 -148 -78 0 0 148 -100 0 0 -359 -73 0 0 112 -43 0 0 -112 -65 0 0 112 -44 0 0 -112 -72 0 0 380 -189 605 816 0 0 -138c0,-62 51,-112 112,-112 62,0 112,50 112,112l0 138 817 0 -190 -605 0 -380 -72 0 0 112 -43 0 0 -112 -65 0 0 112 -44 0 0 -112 -72 0 0 359 -100 0 0 -148 -79 0 0 148 -100 0 0 -359 -74 0 0 112 -44 0 0 -112 -46 0z"/>
    <path class="fil0" d="M985 3684c-60,5 -150,-67 -72,-149 64,-67 142,-63 244,-38 89,22 185,68 252,72 46,3 79,-20 85,-53 -32,-40 -41,-72 -17,-121 3,-15 1,-35 -1,-54 34,14 34,40 59,65 8,8 15,18 20,28 6,16 5,34 -3,51 -3,6 -5,13 -8,18 -18,31 -26,73 -47,88 -81,59 -303,-51 -405,-64 -33,-4 -66,-5 -94,3 -76,22 -112,104 29,117 63,6 125,-6 188,-1 62,5 126,27 188,30 58,3 121,-13 179,-13 59,1 113,16 171,15 83,-2 165,-13 248,-20 128,1 215,53 292,119 58,-52 122,-58 181,-12 -40,11 -86,20 -107,52 -7,79 -3,158 8,236 16,44 79,55 130,54 -49,53 -106,63 -167,31 -8,11 -15,23 -33,30 -15,11 -24,27 -33,44 -11,-24 -19,-50 -4,-80 -28,0 -55,-3 -82,-2 -30,2 -59,16 -88,12 -14,-1 -20,-21 -33,-26 -3,-2 -6,7 -5,10 19,35 43,67 65,100 13,8 28,15 39,25 7,6 11,14 13,22 2,5 -3,11 -1,15 7,13 17,25 28,35 6,6 16,5 21,10 14,13 27,28 36,44 3,6 -9,17 -3,17 71,11 72,22 103,78 -47,0 -94,0 -142,0 -3,-11 -5,-23 3,-49 -4,-4 -7,-10 -12,-11 -15,-3 -33,4 -47,-2 -11,-5 -16,-18 -21,-28 -8,-14 -8,-31 -16,-44 -14,-21 -30,-41 -49,-58 -9,-8 -23,-9 -34,-16 -24,-18 -46,-39 -70,-59 -7,-3 -14,-6 -22,-9 8,24 15,48 25,71 2,7 19,22 8,36 -14,17 -32,35 -54,38 -22,4 -38,-12 -58,-20 -21,-8 -40,-19 -62,-23 -18,-3 -36,6 -53,2 -11,-2 -19,-11 -28,-17 -3,-3 -5,-7 -8,-9 -4,-3 -9,-6 -14,-7 -4,0 -9,2 -12,4 -5,3 -7,10 -13,12 -8,1 -17,1 -24,-4 -14,-9 -55,-9 -74,-28 31,-21 63,-42 94,-63 12,3 26,3 36,9 8,5 9,16 15,23 3,4 6,8 11,9 5,1 12,-1 17,-4 3,-2 3,-9 7,-11 5,-2 12,-2 17,-1 8,3 14,10 21,13 5,2 10,1 14,3 9,5 16,12 24,16 11,6 22,13 33,13 5,0 7,-9 5,-13 -6,-11 -16,-19 -26,-27 -29,-24 -57,-51 -91,-68 -27,-14 -60,-9 -87,-21 -29,-13 -53,-35 -80,-52 -32,-21 -60,-48 -95,-62 -38,-14 -78,-12 -121,-25 10,14 21,31 20,46 -4,39 -26,73 -32,111 -2,12 2,25 8,35 31,47 64,93 101,135 8,9 23,9 33,16 9,5 17,13 24,21 5,5 9,12 11,19 1,3 -3,5 -2,7 2,5 7,10 12,13 5,2 11,1 17,1 26,16 44,41 55,73 -47,0 -94,0 -141,0 -1,-10 -3,-20 4,-31 4,-6 13,-10 12,-16 -2,-13 -10,-26 -21,-32 -13,-7 -30,1 -44,-2 -9,-2 -20,-6 -24,-14 -9,-18 -3,-41 -13,-57 -18,-28 -41,-52 -68,-70 -13,-9 -34,1 -48,-7 -13,-7 -23,-21 -28,-35 -4,-10 4,-21 4,-31 1,-9 2,-19 -1,-27 -1,-7 -6,-13 -11,-19 -15,-22 -33,-27 -33,-55 -26,9 -53,12 -76,26 -29,16 -47,48 -77,63 -25,13 -61,-1 -82,17 -38,33 -58,83 -83,127 -5,9 -5,20 -7,30 0,6 2,13 0,19 -2,9 -11,16 -10,25 1,9 9,16 16,22 4,4 11,5 16,8 12,21 23,41 34,62 -45,0 -89,0 -134,0 -3,-28 -4,-55 19,-74 2,-10 7,-20 6,-30 -1,-10 -6,-19 -11,-28 -3,-5 -8,-9 -12,-13 -4,-6 -12,-10 -13,-18 -2,-12 -2,-26 5,-36 11,-16 33,-23 46,-37 27,-31 54,-63 74,-99 7,-13 -2,-29 3,-43 4,-14 9,-24 19,-35 10,-12 26,-16 39,-24 25,-22 28,-32 19,-69 -5,-20 -19,-37 -23,-56 -7,-26 -3,-53 -10,-79 -26,-88 -43,-67 14,-145z"/>
    <path class="fil0" d="M1620 2175l-22 -25c-3,-5 -14,1 -23,-6 -3,-3 -2,-15 -6,-20 -10,-10 -23,8 -27,-3 -6,-22 42,-44 30,-55 -10,-9 -39,22 -50,31 -20,18 -6,33 -7,35 -5,11 2,11 -11,12 -14,2 -31,-13 -30,-30 2,-29 -34,-14 -25,-43 13,-44 32,45 78,-6 14,-16 -24,-18 -25,-28 5,-22 27,-27 26,-37 -5,-40 -55,-59 -75,-23 -16,28 12,17 6,44 -4,19 -15,10 -30,4 -14,-5 -18,2 -29,-6 -5,-4 -10,-10 -13,-14 -5,-6 -7,-20 -44,-9 -18,5 -10,7 -9,9 16,22 23,7 37,36l3 8c5,20 -4,57 -48,60 -29,2 -69,4 -96,4 -38,-2 -67,-12 -90,-16 -28,-6 -63,1 -90,-5 -35,-6 -68,-42 -47,-77 7,-11 17,-15 25,-5 10,14 -2,20 22,26l17 3c6,2 17,4 22,-3 6,-8 -2,-27 -11,-35 21,-11 55,-1 47,27 -3,10 -5,13 17,16 39,6 73,-3 101,-7 9,-1 29,-1 28,-7 -3,-12 -21,-12 -27,-22 -7,-11 1,-8 -14,-14 -15,-7 -15,-2 -22,-16 -4,-8 -8,-14 -6,-28 5,-30 23,-36 32,-44 30,-29 115,12 144,-30 10,-14 13,-19 8,-33 -7,-19 -24,-31 -36,-47 -10,-12 -14,-29 -26,-31 -3,-1 -12,-1 -16,0 -2,27 -3,73 -48,88 3,-22 6,-59 -14,-76 -1,24 4,80 -49,96 3,-15 6,-66 -16,-85 -9,63 -58,178 -140,158 30,-34 77,-89 52,-152 -11,49 -80,154 -155,118 34,-12 99,-66 77,-127 -29,48 -90,116 -144,142 -43,21 -105,21 -115,-24 54,-14 198,-63 208,-157 -21,23 -74,74 -135,93 -45,14 -99,8 -120,-32 75,-15 176,-34 215,-104 -44,34 -332,137 -377,-24 37,3 270,40 346,-47 -43,7 -171,29 -281,0 -51,-14 -117,-54 -109,-119 130,49 285,84 383,40 -195,-30 -260,-56 -398,-111 -70,-27 -97,-78 -62,-145 100,55 236,118 404,154 1,-32 -6,-63 21,-73 18,17 31,27 52,38 135,71 231,74 284,83 33,3 55,-1 61,33 2,13 21,64 -27,71 -26,4 -49,10 -47,30 2,18 10,33 29,34 25,0 17,-14 52,-24 57,-16 62,38 91,6 8,-9 14,-13 27,-20 14,-8 15,-3 28,-12 13,-8 16,-13 20,-25 -12,1 -28,1 -40,-4 21,-18 27,-43 -10,-46 4,-5 11,-11 13,-18 2,-5 0,-12 -2,-22 -19,-1 -43,-19 -59,-19 -23,0 -24,-23 13,-19 63,8 7,-13 -17,-29 -41,-29 -48,0 -54,14 -26,-20 -28,-62 4,-78 18,-9 50,-2 72,0 -1,-17 -1,-31 37,-28 31,2 68,35 109,26 26,-5 32,-14 39,-21 4,26 1,43 -12,58 -21,24 13,39 32,39 -2,30 -42,41 1,51 11,2 35,0 31,16 -1,6 -6,12 -10,22 18,6 39,34 52,47 13,-13 35,-41 52,-47 -3,-10 -8,-16 -10,-22 -4,-16 20,-14 31,-16 43,-10 3,-21 1,-51 20,0 54,-15 33,-39 -13,-15 -16,-32 -13,-58 8,7 14,16 40,21 41,9 78,-24 108,-26 38,-3 38,11 37,28 22,-2 55,-9 72,0 33,16 30,58 4,78 -5,-14 -12,-43 -53,-14 -24,16 -81,37 -17,29 36,-4 35,19 12,19 -16,0 -40,18 -58,19 -2,10 -4,17 -3,22 3,7 9,13 14,18 -37,3 -32,28 -10,46 -13,5 -28,5 -40,4 4,12 7,17 19,25 14,9 14,4 28,12 13,7 19,11 27,20 30,32 35,-22 91,-6 36,10 28,24 53,24 19,-1 26,-16 28,-34 2,-20 -21,-26 -47,-30 -47,-7 -29,-58 -27,-71 6,-34 28,-30 62,-33 53,-9 148,-12 283,-83 22,-11 35,-21 53,-38 27,10 20,41 20,73 169,-36 304,-99 404,-154 36,67 8,118 -62,145 -138,55 -203,81 -397,111 98,44 253,9 382,-40 8,65 -58,105 -108,119 -111,29 -238,7 -281,0 76,87 308,50 345,47 -45,161 -333,58 -377,24 39,70 140,89 215,104 -21,40 -75,46 -120,32 -60,-19 -114,-70 -135,-93 11,94 155,143 209,157 -10,45 -72,45 -116,24 -54,-26 -115,-94 -144,-142 -22,61 44,115 78,127 -75,36 -145,-69 -155,-118 -25,63 21,118 51,152 -82,20 -130,-95 -139,-158 -22,19 -20,70 -16,85 -54,-16 -49,-72 -50,-96 -19,17 -17,54 -13,76 -46,-15 -47,-61 -49,-88 -3,-1 -12,-1 -15,0 -12,2 -16,19 -26,31 -13,16 -30,28 -36,47 -5,14 -2,19 7,33 30,42 115,1 145,30 8,8 27,14 31,44 3,14 -1,20 -5,28 -8,14 -7,9 -23,16 -14,6 -7,3 -13,14 -6,10 -25,10 -27,22 -1,6 19,6 27,7 29,4 63,13 101,7 22,-3 20,-6 17,-16 -7,-28 27,-38 48,-27 -10,8 -18,27 -12,35 5,7 16,5 22,3l17 -3c24,-6 13,-12 22,-26 8,-10 19,-6 25,5 22,35 -11,71 -46,77 -28,6 -62,-1 -90,5 -23,4 -52,14 -91,16 -27,0 -67,-2 -95,-4 -45,-3 -54,-40 -48,-60l3 -8c13,-29 20,-14 37,-36 1,-2 8,-4 -10,-9 -37,-11 -39,3 -43,9 -4,4 -9,10 -14,14 -11,8 -14,1 -28,6 -16,6 -26,15 -30,-4 -7,-27 21,-16 6,-44 -20,-36 -70,-17 -76,23 -1,10 21,15 27,37 -2,10 -40,12 -26,28 46,51 65,-38 79,6 9,29 -28,14 -26,43 1,17 -15,32 -30,30 -12,-1 -6,-1 -10,-12 -1,-2 12,-17 -7,-35 -11,-9 -40,-40 -51,-31 -12,11 37,33 30,55 -3,11 -17,-7 -26,3 -4,5 -3,17 -7,20 -9,7 -20,1 -22,6l-23 25zm186 -778c-3,6 -6,8 2,19 18,22 51,3 61,-16 10,-19 -3,-24 -4,-24l-42 15c-6,2 -14,1 -17,6zm-372 0c4,6 6,8 -2,19 -18,22 -50,3 -60,-16 -10,-19 3,-24 3,-24l42 15c7,2 15,1 17,6z"/>
   </g>
  </g>
 </g>
</svg>
