<?xml version="1.0" encoding="UTF-8"?>
<!DOCTYPE svg PUBLIC "-//W3C//DTD SVG 1.1//EN" "http://www.w3.org/Graphics/SVG/1.1/DTD/svg11.dtd">
<!-- Creator: CorelDRAW X7 -->
<svg xmlns="http://www.w3.org/2000/svg" xml:space="preserve" width="3.54331in" height="4.9172in" version="1.1" style="shape-rendering:geometricPrecision; text-rendering:geometricPrecision; image-rendering:optimizeQuality; fill-rule:evenodd; clip-rule:evenodd"
viewBox="0 0 3543 4917"
 xmlns:xlink="http://www.w3.org/1999/xlink">
 <defs>
  <style type="text/css">
   <![CDATA[
    .fil3 {fill:#476366}
    .fil0 {fill:#9A7E4E}
    .fil2 {fill:#BD281F}
    .fil1 {fill:#E89A4C}
    .fil4 {fill:#EBCF9F}
   ]]>
  </style>
 </defs>
 <g id="Layer_x0020_1">
  <metadata id="CorelCorpID_0Corel-Layer"/>
  <g id="_272092312">
   <path class="fil0" d="M1772 6c-571,0 -1120,90 -1634,257l272 872c429,-139 886,-215 1362,-215 475,0 932,76 1361,215l273 -872c-515,-167 -1064,-257 -1634,-257z"/>
   <path class="fil1" d="M3095 508c-2,26 -23,52 -25,77 -2,29 20,46 42,53 25,9 47,1 67,11 -6,12 -10,24 -11,37 -22,-3 -36,-22 -62,-29 -22,-6 -49,-5 -64,19 -13,22 -10,55 -24,78 22,15 34,46 55,61 24,15 49,5 66,-10 20,-17 25,-41 44,-53 3,6 7,11 11,15 5,5 9,10 14,13 -13,18 -37,21 -56,39 -16,16 -29,40 -15,65 13,22 43,37 56,60l58 -188c-9,-3 -19,-9 -26,-17 -23,-25 -21,-63 4,-86 16,-16 39,-20 59,-14l58 -187c-24,11 -56,6 -79,17 -25,12 -29,40 -25,62 5,26 23,41 24,64 -12,0 -25,3 -37,8 -8,-21 1,-42 -5,-68 -6,-22 -21,-45 -50,-46 -25,0 -52,19 -79,19zm-30 -32c82,-76 195,-98 294,-67l-7 22c-91,-28 -195,-9 -271,61 -114,105 -121,281 -16,395 34,37 76,63 121,77l-6 22c-49,-15 -95,-43 -132,-84 -113,-122 -105,-313 17,-426z"/>
   <path class="fil1" d="M1772 0l0 0 0 0c571,0 1120,90 1636,257l-50 160 -38 -12 13 -65c-25,-8 -51,-15 -77,-23l-25 61 -83 -24 11 -65c-26,-7 -52,-14 -78,-21l-23 62 -84 -21 9 -65c-26,-6 -53,-12 -79,-18l-21 62 -84 -18 6 -65c-26,-6 -53,-11 -79,-15l-19 62 -85 -15 4 -65c-26,-4 -53,-8 -80,-13l-16 64 -85 -12 2 -66c-27,-3 -54,-6 -81,-9l-14 63 -85 -9 -1 -64c-27,-3 -54,-6 -81,-8l-12 64 -85 -6 -3 -64c-27,-2 -54,-3 -81,-5l-10 64 -86 -3 -5 -64c-27,-1 -54,-1 -81,-1l-7 64 -43 0 -43 0 -8 -64c-27,0 -54,0 -81,1l-5 64 -86 3 -9 -64c-27,2 -54,3 -81,5l-3 64 -86 6 -12 -64c-27,2 -54,5 -81,8l0 64 -86 9 -14 -63c-27,3 -54,6 -80,9l1 66 -85 12 -16 -64c-27,5 -53,9 -80,13l4 65 -85 15 -18 -62c-27,4 -53,9 -80,15l6 65 -84 18 -21 -62c-26,6 -52,12 -78,18l8 65 -83 21 -23 -62c-27,7 -53,14 -79,21l11 65 -82 24 -26 -61c-25,8 -51,15 -77,23l13 65 -37 12 -50 -160c515,-167 1065,-257 1636,-257zm0 761l43 0 9 79c17,0 34,0 52,1l11 -79 86 3 7 79c17,1 34,2 51,3l15 -78 86 6 3 79c18,2 35,3 52,5l17 -78 86 9 1 80c17,2 34,3 51,6l20 -77 85 12 -2 79c17,3 35,5 52,8l22 -76 85 15 -5 79c17,3 34,7 51,10l25 -75 84 18 -7 79c17,3 34,7 51,11l27 -74 84 21 -10 78c16,5 33,9 50,14l30 -73 83 24 -13 77c17,5 33,10 50,15l33 -71 43 14 -50 162c-428,-139 -884,-215 -1358,-215 -474,0 -931,76 -1358,215l-51 -162 44 -14 32 71c17,-5 34,-10 50,-15l-12 -77 82 -24 30 73c17,-5 34,-9 51,-14l-11 -78 84 -21 28 74c16,-4 33,-8 50,-11l-7 -79 84 -18 25 75c17,-3 34,-7 51,-10l-5 -79 85 -15 23 76c17,-3 34,-5 51,-8l-2 -79 85 -12 20 77c17,-3 34,-4 52,-6l0 -80 86 -9 17 78c17,-2 35,-3 52,-5l4 -79 85 -6 15 78c17,-1 34,-2 52,-3l6 -79 86 -3 12 79c17,-1 34,-1 52,-1l9 -79 43 0z"/>
   <path class="fil1" d="M1772 724c-20,-18 -53,-23 -71,-41 -21,-19 -16,-46 -5,-66 12,-24 34,-33 41,-54 -12,-4 -23,-11 -32,-19 -15,17 -12,40 -26,63 -12,19 -33,37 -61,29 -24,-7 -45,-34 -70,-41 6,-26 -6,-57 0,-82 6,-28 32,-37 55,-38 26,-1 45,14 67,10 -1,-7 -1,-13 -1,-19 0,-7 0,-13 1,-19 -22,-4 -41,10 -67,9 -23,-1 -49,-10 -55,-38 -6,-25 6,-56 0,-81 25,-8 46,-35 70,-42 28,-8 49,10 61,29 14,23 11,46 26,63 9,-8 20,-14 32,-19 -7,-21 -29,-30 -41,-53 -11,-20 -16,-48 5,-67 18,-18 51,-22 71,-41 19,19 52,23 71,41 20,19 15,47 5,67 -13,23 -35,32 -42,53 12,5 23,11 33,19 14,-17 11,-40 26,-63 11,-19 32,-37 60,-29 24,7 45,34 70,42 -6,25 7,56 1,81 -7,28 -33,37 -55,38 -27,1 -46,-13 -68,-9 1,6 2,12 2,19 0,6 -1,12 -2,19 22,4 41,-11 68,-10 22,1 48,10 55,38 6,25 -7,56 -1,82 -25,7 -46,34 -70,41 -28,8 -49,-10 -60,-29 -15,-23 -12,-46 -26,-63 -10,8 -21,15 -33,19 7,21 29,30 42,54 10,20 15,47 -5,66 -19,18 -52,23 -71,41zm0 -320c-34,0 -62,28 -62,62 0,33 28,61 62,61 33,0 61,-28 61,-61 0,-34 -28,-62 -61,-62z"/>
   <path class="fil1" d="M1772 164c-167,0 -302,135 -302,302 0,166 135,302 302,302 166,0 302,-136 302,-302 0,-167 -136,-302 -302,-302zm0 581c-155,0 -280,-125 -280,-279 0,-155 125,-280 280,-280 154,0 279,125 279,280 0,154 -125,279 -279,279z"/>
   <path class="fil1" d="M448 508c2,26 23,52 25,77 2,29 -20,46 -41,53 -25,9 -48,1 -68,11 6,12 10,24 12,37 22,-3 36,-22 61,-29 22,-6 50,-5 64,19 13,22 11,55 24,78 -22,15 -34,46 -55,61 -23,15 -49,5 -66,-10 -20,-17 -24,-41 -43,-53 -4,6 -7,11 -12,15 -4,5 -9,10 -14,13 13,18 37,21 56,39 16,16 29,40 15,65 -12,22 -42,37 -55,60l-59 -188c10,-3 19,-9 26,-17 23,-25 22,-63 -3,-86 -17,-16 -39,-20 -59,-14l-59 -187c24,11 57,6 79,17 26,12 29,40 25,62 -5,26 -23,41 -24,64 13,0 25,3 37,8 9,-21 -1,-42 6,-68 6,-22 20,-45 49,-46 25,0 53,19 79,19zm30 -32c-82,-76 -195,-98 -294,-67l7 22c92,-28 196,-9 272,61 113,105 120,281 16,395 -35,37 -77,63 -122,77l7 22c49,-15 94,-43 131,-84 113,-122 106,-313 -17,-426z"/>
   <g>
    <path class="fil1" d="M0 1128l3543 0 0 2018c0,974 -797,1771 -1771,1771l0 0c-975,0 -1772,-797 -1772,-1771l0 -2018z"/>
    <path class="fil2" d="M44 2243l0 903c0,950 777,1728 1728,1728 950,0 1728,-778 1728,-1728l0 -903 -3456 0z"/>
    <polygon class="fil3" points="44,1172 44,2199 3500,2199 3500,1172 "/>
    <g>
     <path class="fil1" d="M1772 1341c-59,29 -88,71 -94,122 0,121 54,74 54,361 -14,0 -36,0 -51,0 10,-92 -14,-183 -69,-223 -77,-56 -157,-5 -179,66 -18,57 17,135 76,157 23,-70 65,-74 93,-59 32,18 32,78 -5,96 18,26 42,27 81,27l52 0c0,101 -87,81 -87,128 27,0 55,0 82,0 0,32 5,72 47,83 42,-11 46,-51 46,-83 28,0 55,0 83,0 0,-47 -88,-27 -88,-128l52 0c39,0 63,-1 81,-27 -37,-18 -37,-78 -5,-96 29,-15 70,-11 93,59 59,-22 94,-100 77,-157 -23,-71 -103,-122 -180,-66 -54,40 -79,131 -68,223 -15,0 -37,0 -52,0 0,-287 54,-240 54,-361 -6,-51 -35,-93 -93,-122z"/>
     <g>
      <path class="fil1" d="M2865 1341c-59,29 -87,71 -93,122 0,121 54,74 54,361 -15,0 -37,0 -52,0 11,-92 -14,-183 -69,-223 -77,-56 -157,-5 -179,66 -18,57 17,135 76,157 24,-70 65,-74 94,-59 31,18 31,78 -5,96 17,26 41,27 81,27l51 0c0,101 -87,81 -87,128 27,0 55,0 82,0 0,32 5,72 47,83 42,-11 47,-51 47,-83 27,0 54,0 82,0 0,-47 -87,-27 -87,-128l51 0c40,0 63,-1 81,-27 -36,-18 -37,-78 -5,-96 29,-15 70,-11 94,59 59,-22 94,-100 76,-157 -22,-71 -103,-122 -179,-66 -55,40 -80,131 -69,223 -15,0 -37,0 -52,0 0,-287 54,-240 54,-361 -6,-51 -35,-93 -93,-122z"/>
      <path class="fil1" d="M678 1341c-58,29 -87,71 -93,122 0,121 54,74 54,361 -15,0 -37,0 -52,0 11,-92 -14,-183 -68,-223 -77,-56 -157,-5 -180,66 -17,57 18,135 77,157 23,-70 64,-74 93,-59 32,18 32,78 -5,96 18,26 42,27 81,27l52 0c0,101 -88,81 -88,128 28,0 55,0 83,0 0,32 4,72 46,83 42,-11 47,-51 47,-83 27,0 55,0 82,0 0,-47 -87,-27 -87,-128l52 0c39,0 63,-1 81,-27 -37,-18 -37,-78 -5,-96 28,-15 70,-11 93,59 59,-22 94,-100 76,-157 -22,-71 -102,-122 -179,-66 -55,40 -79,131 -69,223 -15,0 -37,0 -51,0 0,-287 54,-240 54,-361 -6,-51 -35,-93 -94,-122z"/>
     </g>
    </g>
    <g>
     <path class="fil1" d="M2243 3031c-66,-203 -257,-339 -471,-339 -214,0 -405,136 -472,339 -5,20 -19,36 -39,42 -22,6 -47,-2 -63,-17 -19,-18 -25,-44 -17,-69 86,-252 324,-421 591,-421 266,0 505,169 590,421 9,25 2,51 -17,69 -16,15 -40,23 -62,17 -21,-6 -34,-22 -40,-42z"/>
     <path class="fil4" d="M1202 2994c13,-38 29,-74 49,-109 35,-56 97,-9 77,35 -20,33 -36,68 -48,105 -16,56 -96,22 -78,-31zm1140 0c-13,-38 -30,-74 -50,-109 -35,-56 -97,-9 -76,35 19,33 36,68 48,105 15,56 96,22 78,-31zm-118 -204c-29,-31 -60,-60 -94,-85 -53,-35 -90,31 -55,63 30,22 58,47 83,75 46,41 93,-16 66,-53zm-200 -148c-30,-13 -61,-25 -93,-34 -54,-3 -63,67 -19,82 16,4 75,27 75,27 63,28 91,-47 37,-75zm-191 -52c-20,-2 -41,-3 -61,-3 -21,0 -41,1 -61,3 -48,16 -42,85 22,80 -1,1 -2,1 -3,2 14,-1 28,-2 42,-2 14,0 28,1 42,2 -1,-1 -3,-1 -4,-2 64,5 71,-64 23,-80zm-513 200c28,-31 60,-60 94,-85 53,-35 90,31 55,63 -31,22 -59,47 -84,75 -45,41 -93,-16 -65,-53zm199 -148c30,-13 61,-25 94,-34 53,-3 62,67 18,82 -16,4 -74,27 -74,27 -63,28 -92,-47 -38,-75z"/>
     <g>
      <rect class="fil1" x="1669" y="2502" width="205" height="205"/>
      <rect class="fil4" x="1690" y="2522" width="164" height="164"/>
     </g>
     <g>
      <path class="fil1" d="M1252 3979l0 -789c0,-286 234,-520 520,-520 286,0 520,234 520,520l0 789 -1040 0z"/>
      <path class="fil4" d="M1273 3958l997 0 0 -768c0,-274 -224,-498 -498,-498l0 0c-275,0 -499,224 -499,498l0 768z"/>
     </g>
     <g>
      <polygon class="fil1" points="983,4137 983,4008 2561,4008 2561,4137 "/>
      <rect class="fil4" x="1004" y="4029" width="1534.91" height="86.3486"/>
     </g>
     <g>
      <rect class="fil1" x="682" y="4115" width="2180" height="129"/>
      <rect class="fil4" x="704" y="4137" width="2136.14" height="86.3486"/>
     </g>
     <g>
      <rect class="fil1" x="1252" y="3900" width="1040" height="129"/>
      <rect class="fil4" x="1273" y="3921" width="997.46" height="86.3486"/>
     </g>
     <g>
      <g>
       <path class="fil1" d="M681 3921l0 -1283 22 0c280,0 510,229 510,510l0 773 -532 0z"/>
       <path class="fil4" d="M703 3900l139 0 0 -1220c-44,-14 -91,-21 -139,-21l0 1241zm160 0l168 0 0 -1113c-48,-44 -105,-78 -168,-100l0 1213zm190 0l138 0 0 -752c0,-132 -53,-252 -138,-340l0 1092z"/>
      </g>
      <path class="fil1" d="M1119 3612l0 21 148 0 0 -21 -148 0zm0 -416l0 22 148 0 0 -22 -148 0z"/>
     </g>
     <g>
      <g>
       <path class="fil1" d="M2862 3921l0 -1283 -22 0c-280,0 -510,229 -510,510l0 773 532 0z"/>
       <path class="fil4" d="M2840 3900l-138 0 0 -1220c44,-14 90,-21 138,-21l0 1241zm-160 0l-168 0 0 -1113c48,-44 105,-78 168,-100l0 1213zm-190 0l-138 0 0 -752c0,-132 53,-252 138,-340l0 1092z"/>
      </g>
      <path class="fil1" d="M2424 3612l0 21 -148 0 0 -21 148 0zm0 -416l0 22 -148 0 0 -22 148 0z"/>
     </g>
    </g>
   </g>
  </g>
 </g>
</svg>
