<?xml version="1.0" encoding="UTF-8"?>
<!DOCTYPE svg PUBLIC "-//W3C//DTD SVG 1.1//EN" "http://www.w3.org/Graphics/SVG/1.1/DTD/svg11.dtd">
<!-- Creator: CorelDRAW X7 -->
<svg xmlns="http://www.w3.org/2000/svg" xml:space="preserve" width="2.6724in" height="4.92126in" version="1.1" style="shape-rendering:geometricPrecision; text-rendering:geometricPrecision; image-rendering:optimizeQuality; fill-rule:evenodd; clip-rule:evenodd"
viewBox="0 0 2672 4921"
 xmlns:xlink="http://www.w3.org/1999/xlink">
 <defs>
  <style type="text/css">
   <![CDATA[
    .fil11 {fill:black}
    .fil0 {fill:black}
    .fil4 {fill:#0052B6}
    .fil7 {fill:#1268A5}
    .fil5 {fill:#357600}
    .fil8 {fill:#3B3C45}
    .fil10 {fill:lightgrey}
    .fil6 {fill:#F70D0E}
    .fil3 {fill:#FE0000}
    .fil1 {fill:#FFE330}
    .fil9 {fill:white}
    .fil2 {fill:white}
   ]]>
  </style>
 </defs>
 <g id="Layer_x0020_1">
  <metadata id="CorelCorpID_0Corel-Layer"/>
  <g id="_716416256">
   <path class="fil0" d="M2656 967c0,704 0,1407 0,2110 0,206 -53,413 -146,603l11 9c39,36 68,80 85,130 44,124 9,243 17,369 1,28 6,56 15,82l34 97 -98 31c-105,33 -210,67 -315,100 -52,105 -127,191 -236,240 -131,58 -281,48 -417,14 -72,45 -145,91 -217,136l-53 33 -53 -33c-72,-45 -144,-91 -216,-136 -136,34 -287,44 -418,-14 -109,-49 -184,-135 -235,-240 -105,-33 -210,-67 -315,-100l-99 -31 35 -97c9,-26 13,-54 15,-82 8,-126 -27,-245 16,-369 18,-50 46,-94 86,-130l10 -9c-93,-190 -146,-397 -146,-603 0,-703 0,-1406 0,-2110l0 -11 254 0 -244 -564 68 -46c355,-243 816,-346 1242,-346 426,0 887,103 1242,346l68 46 -243 564 253 0 0 11zm-2095 -11l1550 0c-242,-133 -481,-197 -775,-197 -293,0 -533,64 -775,197z"/>
   <path class="fil1" d="M695 4339c-3,0 -6,-3 -5,-6 0,-3 3,-5 6,-5 2,1 4,1 6,2 11,2 20,7 27,13 7,8 10,17 9,28 0,1 -1,2 -1,3 -4,20 -33,25 -65,32 -23,5 -48,10 -63,20 -16,11 -22,28 -2,61 25,-30 62,-59 108,-75 45,-15 100,-18 164,5 24,9 45,20 61,34 16,13 28,29 33,45 2,5 3,11 4,17 1,16 -2,31 -11,45 -9,14 -24,25 -45,32 -9,3 -19,5 -30,6 -23,2 -47,-1 -66,-9 -13,-5 -24,-13 -31,-22 -6,-8 -9,-17 -10,-26 -1,-12 4,-26 16,-42 7,-9 17,-1 9,6 -8,10 -12,20 -13,28 0,2 -1,5 -1,7l1 1c1,5 3,9 8,12 4,4 11,6 18,8 19,3 44,-2 61,-15 9,-6 14,-13 17,-20 4,-8 4,-16 1,-23 -2,-8 -8,-15 -16,-21 -11,-9 -26,-15 -44,-18 -2,-1 -4,-1 -6,-1 -23,-3 -50,-1 -71,9 -21,9 -37,25 -40,47 -1,1 -1,2 -1,3 -1,5 -1,10 -1,15 1,30 17,53 41,69 24,17 56,27 87,31 12,2 25,3 37,2 3,0 7,0 11,0 35,-3 70,-13 97,-35 26,-21 44,-52 42,-97 0,-2 0,-5 0,-8l0 0c0,-1 0,-2 1,-3 2,-3 5,-4 8,-2 3,2 9,6 17,10 49,27 168,93 185,197 7,-8 13,-17 18,-27 7,-14 12,-29 11,-44 -1,-13 -6,-25 -17,-36 -11,3 -21,5 -31,4 -11,-1 -17,-6 -20,-12 -2,-3 -2,-7 0,-11l0 0c1,-4 3,-7 6,-9 6,-4 15,-6 24,-1 9,5 17,10 23,16l1 0c4,-1 8,-3 12,-5 10,-6 19,-13 24,-21 -104,0 -157,-25 -211,-51 -16,-8 -34,-16 -52,-23l0 0c-1,-1 -2,-1 -3,-2 -48,-78 -129,-112 -148,-121l-1 0 -1 0c-34,-15 -87,-25 -146,-37 -63,-12 -133,-25 -197,-48 -53,65 -95,36 -141,6 -43,-29 -89,-60 -151,-6 83,3 121,22 152,38 19,9 35,17 57,20 31,5 81,7 123,8 34,1 65,2 77,4l0 0 0 0c13,3 22,9 26,17l0 0c2,3 3,7 3,10 0,4 -1,7 -3,10 -4,5 -11,9 -21,9l0 0c-28,1 -51,8 -68,19 -8,6 -15,13 -19,22 -4,8 -6,17 -6,27l0 0c0,16 7,35 20,55 3,-5 6,-9 10,-14 -26,-42 -18,-65 4,-79 17,-12 43,-17 67,-22 28,-6 54,-11 56,-23 0,-1 1,-2 1,-3 1,-7 -2,-13 -6,-18 -5,-5 -12,-9 -21,-11 -2,0 -4,0 -5,-1zm641 464c-84,-53 -169,-106 -253,-159 -273,79 -488,38 -597,-228 -119,-38 -238,-75 -357,-113 66,-186 -51,-398 82,-532 59,103 131,200 212,285 -18,-6 -39,-7 -60,-2 -14,3 -28,9 -41,17 -1,-17 -7,-38 -17,-55 -10,-21 -25,-38 -41,-45 -3,-2 -6,-1 -7,2 -8,9 -11,27 -12,46 -1,16 0,32 2,45 -14,-6 -30,-10 -52,-10l0 0 -1 1c-3,0 -5,3 -4,6 2,19 20,56 48,89 16,19 36,37 58,49 -44,7 -75,36 -90,55 -4,6 -7,11 -9,14l0 1c-4,7 -3,12 2,13l0 0 0 0c1,1 2,0 3,0 114,-3 158,19 193,37 20,9 37,18 61,21 31,5 81,7 123,8 35,1 64,2 76,4l0 0c10,2 16,6 19,11l0 0 0 0c1,2 1,3 1,5 0,1 0,2 -1,3 -2,3 -6,5 -12,5l0 0c-30,1 -56,8 -74,21 -10,7 -18,16 -23,25 -5,10 -8,21 -7,34 0,19 9,42 26,67 1,1 1,1 2,2 2,1 6,0 8,-2 24,-37 66,-81 125,-101 43,-14 95,-16 157,6 22,8 42,19 57,31 15,12 25,26 30,40 1,5 2,10 3,15 1,13 -2,27 -10,38 -7,11 -20,21 -39,27 -8,3 -17,5 -28,6 -20,2 -42,-1 -59,-8 -6,-3 -12,-6 -17,-9 3,1 5,1 7,1 22,4 51,-1 70,-16 10,-7 17,-16 20,-24 5,-11 5,-22 2,-32 -4,-9 -11,-19 -21,-26 -12,-10 -29,-17 -48,-20 -2,-1 -4,-1 -6,-1 -26,-4 -54,-1 -77,10 -24,10 -43,29 -47,55 0,1 -1,2 -1,3 -1,6 -1,12 -1,17 1,34 19,60 46,78 25,18 59,29 91,33 14,2 27,3 39,2 4,0 8,0 11,0 37,-3 75,-14 104,-37 28,-23 47,-57 46,-104 3,1 6,3 9,5 50,27 174,96 181,201l0 0c0,2 1,3 2,4 3,2 6,2 8,-1 10,-12 20,-25 27,-38 9,-17 14,-34 13,-51 -1,-13 -6,-27 -16,-39 3,-2 6,-3 9,-5 15,-8 28,-20 32,-34l0 0c0,0 1,-1 1,-2 0,-3 -3,-5 -6,-5 -107,1 -160,-24 -215,-50 -16,-8 -33,-16 -52,-23 -29,-47 -70,-78 -102,-98 61,19 123,37 184,56 46,14 115,36 153,64l60 45 60 -45c38,-28 107,-50 154,-64 61,-19 123,-37 184,-56 -33,20 -74,51 -103,98 -18,7 -35,15 -52,23 -54,26 -107,51 -215,50 -3,0 -5,2 -5,5 0,1 0,2 0,2l0 0c5,14 18,26 33,34 3,2 6,3 9,5 -11,12 -16,26 -17,39 -1,17 4,34 13,51 7,13 17,26 27,38 2,3 6,3 8,1 1,-1 2,-2 2,-4l0 0c7,-105 131,-174 181,-201 3,-2 6,-4 9,-5 -1,47 18,81 47,104 28,23 66,34 103,37 4,0 8,0 12,0 12,1 25,0 38,-2 33,-4 66,-15 92,-33 26,-18 44,-44 45,-78 0,-5 0,-11 -1,-17 0,-1 0,-2 0,-3 -5,-26 -23,-45 -47,-55 -23,-11 -52,-14 -77,-10 -2,0 -4,0 -6,1 -20,3 -37,10 -49,20 -10,7 -17,17 -20,26 -4,10 -4,21 1,32 4,8 10,17 20,24 20,15 48,20 71,16 2,0 4,0 6,-1 -5,3 -10,6 -16,9 -18,7 -39,10 -60,8 -10,-1 -20,-3 -28,-6 -18,-6 -31,-16 -39,-27 -8,-11 -11,-25 -9,-38 0,-5 1,-10 3,-15 4,-14 15,-28 29,-40 15,-12 35,-23 58,-31 61,-22 114,-20 157,-6 59,20 101,64 125,101 2,2 5,3 8,2 0,-1 1,-1 1,-2 18,-25 26,-48 27,-67 0,-13 -3,-24 -8,-34 -5,-9 -13,-18 -22,-25 -19,-13 -44,-20 -74,-21l0 0c-7,0 -10,-2 -12,-5 -1,-1 -2,-2 -2,-3 0,-2 1,-3 2,-5l0 0 0 0c2,-5 9,-9 18,-11l0 0c12,-2 42,-3 76,-4 43,-1 92,-3 123,-8 25,-3 42,-12 61,-21 36,-18 79,-40 193,-37 1,0 2,1 3,0l0 0 0 0c5,-1 6,-6 3,-13l-1 -1c-1,-3 -5,-8 -9,-14 -15,-19 -45,-48 -90,-55 22,-12 42,-30 58,-49 29,-33 47,-70 49,-89 0,-3 -2,-6 -5,-6l-1 -1 0 0c-22,0 -38,4 -52,10 3,-13 4,-29 3,-45 -1,-19 -5,-37 -12,-46 -2,-3 -5,-4 -7,-2 -16,7 -31,24 -42,45 -9,17 -16,38 -17,55 -13,-8 -27,-14 -41,-17 -21,-5 -42,-4 -59,2 81,-85 152,-182 212,-285 132,134 16,346 82,532 -119,38 -239,75 -358,113 -108,266 -324,307 -597,228 -84,53 -168,106 -253,159zm-896 -729c49,51 102,97 157,138 58,45 125,79 193,107 -16,-4 -33,-7 -51,-11 -64,-12 -134,-26 -197,-48 -29,-10 -74,-34 -106,-63 -16,-15 -29,-31 -35,-47 -6,-15 -6,-31 4,-46 7,-10 18,-20 35,-30zm1442 245c69,-28 135,-62 194,-107 55,-41 107,-87 156,-138 17,10 28,20 35,30 10,15 10,31 5,46 -7,16 -19,32 -36,47 -32,29 -76,53 -105,63 -63,22 -134,36 -197,48 -18,4 -35,7 -52,11zm96 20c3,0 5,-3 5,-6 -1,-3 -3,-5 -7,-5 -2,1 -4,1 -6,2 -11,2 -20,7 -26,13 -7,8 -11,17 -9,28 0,1 0,2 0,3 5,20 34,25 65,32 23,5 48,10 63,20 17,11 22,28 3,61 -26,-30 -62,-59 -109,-75 -45,-15 -100,-18 -164,5 -24,9 -45,20 -61,34 -16,13 -27,29 -33,45 -1,5 -3,11 -3,17 -2,16 2,31 11,45 9,14 24,25 45,32 9,3 19,5 30,6 22,2 46,-1 65,-9 13,-5 24,-13 31,-22 6,-8 10,-17 10,-26 1,-12 -3,-26 -16,-42 -7,-9 -16,-1 -9,6 8,10 12,20 14,28 0,2 0,5 0,7l0 1c-1,5 -4,9 -8,12 -5,4 -11,6 -18,8 -20,3 -45,-2 -62,-15 -8,-6 -14,-13 -17,-20 -3,-8 -3,-16 -1,-23 3,-8 9,-15 17,-21 11,-9 26,-15 44,-18 2,-1 3,-1 5,-1 24,-3 50,-1 71,9 21,9 37,25 41,47 0,1 0,2 0,3 1,5 1,10 1,15 -1,30 -17,53 -40,69 -25,17 -56,27 -88,31 -12,2 -24,3 -36,2 -4,0 -7,0 -11,0 -35,-3 -71,-13 -98,-35 -26,-21 -43,-52 -42,-97 0,-2 0,-5 0,-8l0 0c0,-1 0,-2 -1,-3 -1,-3 -5,-4 -7,-2 -3,2 -9,6 -17,10 -50,27 -169,93 -185,197 -7,-8 -13,-17 -18,-27 -8,-14 -13,-29 -12,-44 1,-13 6,-25 17,-36 11,3 22,5 31,4 11,-1 18,-6 20,-12 2,-3 2,-7 1,-11l0 0c-2,-4 -4,-7 -7,-9 -6,-4 -14,-6 -24,-1 -9,5 -17,10 -23,16l-1 0c-4,-1 -8,-3 -12,-5 -10,-6 -19,-13 -24,-21 104,0 157,-25 211,-51 17,-8 34,-16 53,-23l0 0c1,-1 2,-1 2,-2 48,-78 129,-112 149,-121l1 0 0 0c35,-15 88,-25 147,-37 63,-12 133,-25 196,-48 53,65 96,36 141,6 43,-29 89,-60 152,-6 -84,3 -121,22 -153,38 -18,9 -35,17 -57,20 -31,5 -80,7 -122,8 -35,1 -65,2 -78,4l0 0 0 0c-13,3 -22,9 -26,17l0 0c-2,3 -3,7 -3,10 0,4 2,7 4,10 3,5 10,9 20,9l0 0c28,1 52,8 68,19 9,6 15,13 19,22 5,8 7,17 7,27l0 0c-1,16 -7,35 -20,55 -4,-5 -7,-9 -11,-14 27,-42 19,-65 -4,-79 -17,-12 -42,-17 -67,-22 -28,-6 -53,-11 -56,-23 0,-1 0,-2 0,-3 -1,-7 1,-13 6,-18 5,-5 12,-9 20,-11 2,0 4,0 6,-1zm376 -141l-1 0c-2,0 -5,0 -8,0l0 0c-23,2 -49,20 -75,38 -12,9 -24,17 -36,24 -26,15 -49,21 -66,-4 25,-13 53,-31 76,-51 17,-16 31,-33 38,-51 7,-19 7,-38 -6,-56 -2,-3 -4,-6 -7,-10 6,-1 11,-1 17,-1 16,0 30,5 41,14 11,9 19,21 22,34 2,5 3,11 3,16 0,3 2,6 5,6 2,0 4,-1 5,-3 11,-16 30,-35 51,-49 15,-9 32,-16 49,-17 -8,16 -20,36 -36,55 -20,23 -45,44 -72,55zm-95 -118c-4,-4 -8,-7 -13,-10 17,-8 39,-10 61,-5 24,5 48,19 66,41 2,2 6,2 8,1l5 -4c11,-9 21,-17 32,-23 1,0 1,-1 2,-2 14,-7 29,-12 51,-12 -1,3 -2,7 -4,11 0,-1 0,-1 -1,-1 -20,0 -41,8 -59,20 -18,11 -34,27 -46,41 0,-2 -1,-4 -1,-5 -4,-16 -13,-30 -26,-40 -13,-10 -29,-16 -48,-16 -8,0 -17,1 -25,3 -1,0 -1,0 -2,1zm153 -10c-11,7 -21,15 -33,24l-1 1c-5,-6 -11,-12 -17,-16 -1,-17 6,-39 16,-58 9,-17 20,-31 32,-38 5,8 7,22 8,37 1,19 -1,38 -5,50zm-269 197c5,-2 10,-4 15,-6 21,33 50,27 82,9 12,-7 24,-16 36,-24 25,-18 50,-35 70,-37 57,-4 94,30 111,52 3,4 5,7 7,10 -8,0 -16,0 -23,0 -73,-71 -125,-36 -174,-4 -41,28 -78,53 -124,0zm-701 318c-6,0 -13,0 -20,-2 5,-3 10,-7 17,-10 4,-3 9,-2 11,0 2,1 3,2 3,3l0 1c1,1 1,2 0,3 -1,2 -4,4 -11,5zm-1123 -387l0 0c3,0 5,0 8,0l0 0c23,2 49,20 75,38 12,9 24,17 36,24 26,15 50,21 66,-4 -25,-13 -53,-31 -75,-51 -18,-16 -32,-33 -39,-51 -7,-19 -6,-38 6,-56 2,-3 5,-6 8,-10 -6,-1 -12,-1 -17,-1 -17,0 -31,5 -42,14 -10,9 -18,21 -22,34 -1,5 -2,11 -2,16 0,3 -3,6 -6,6 -2,0 -3,-1 -4,-3 -12,-16 -30,-35 -52,-49 -15,-9 -32,-16 -49,-17 8,16 21,36 36,55 20,23 45,44 73,55zm94 -118c4,-4 9,-7 14,-10 -17,-8 -39,-10 -62,-5 -23,5 -47,19 -66,41 -2,2 -5,2 -8,1l-4 -4c-12,-9 -22,-17 -32,-23 -1,0 -2,-1 -3,-2 -13,-7 -29,-12 -50,-12 0,3 2,7 3,11 0,-1 1,-1 1,-1 21,0 41,8 59,20 18,11 34,27 46,41 1,-2 1,-4 2,-5 4,-16 13,-30 25,-40 13,-10 30,-16 49,-16 8,0 16,1 25,3 0,0 1,0 1,1zm-153 -10c12,7 22,15 34,24l0 1c5,-6 11,-12 17,-16 1,-17 -5,-39 -15,-58 -9,-17 -21,-31 -33,-38 -4,8 -7,22 -7,37 -1,19 0,38 4,50zm269 197c-4,-2 -9,-4 -14,-6 -22,33 -51,27 -82,9 -12,-7 -25,-16 -37,-24 -25,-18 -49,-35 -70,-37 -56,-4 -94,30 -111,52 -3,4 -5,7 -7,10 8,0 16,0 24,0 73,-71 125,-36 173,-4 41,28 79,53 124,0zm702 318c5,0 12,0 19,-2 -4,-3 -10,-7 -16,-10 -5,-3 -9,-2 -12,0 -1,1 -2,2 -3,3l0 1c0,1 0,2 0,3 1,2 5,4 12,5z"/>
   <path class="fil2" d="M1336 11c424,0 883,103 1236,344l61 41 -247 571 259 0c0,704 0,1407 0,2110 0,207 -54,416 -148,605l0 0 16 15c38,35 66,77 83,125 43,122 8,243 16,367 1,29 6,57 15,85l31 86 -87 28c-107,33 -214,67 -320,101 -129,270 -371,321 -647,251 -74,46 -147,92 -221,139l-47 29 -47 -29c-73,-47 -147,-93 -220,-139 -276,70 -518,19 -647,-251 -107,-34 -214,-68 -320,-101l-88 -28 31 -86c10,-28 14,-56 16,-85 8,-124 -27,-245 15,-367 17,-48 45,-90 83,-125l17 -15 0 0c-95,-189 -149,-398 -149,-605 0,-703 0,-1406 0,-2110l260 0 -247 -571 60 -41c353,-241 813,-344 1236,-344zm-96 3212l-1126 0 -1 -10c-5,-45 -8,-91 -8,-136l0 -201 1135 0 0 347zm0 362l-1024 0 -3 -7c-44,-102 -76,-210 -94,-320l-2 -13 1123 0 0 340zm-15 783c-2,-1 -4,-1 -5,-2 -50,-18 -100,-33 -151,-48 -56,-17 -112,-33 -168,-52 -87,-31 -177,-69 -251,-124 -178,-135 -321,-317 -417,-519l-7 -16 1014 0 0 766 -15 -5zm208 5l0 -766 1014 0 -8 16c-95,202 -238,384 -417,519 -73,55 -164,93 -251,124 -55,19 -112,35 -168,52 -50,15 -101,30 -150,48 -2,1 -4,1 -5,2l-15 5zm0 -788l0 -340 1122 0 -2 13c-17,110 -50,218 -94,320l-3 7 -1023 0zm0 -362l0 -347 1135 0 0 201c0,45 -3,91 -9,136l-1 10 -1125 0zm73 -1571c29,-241 237,-431 486,-431 268,0 490,221 489,490l0 23 87 0 0 982 -1135 0 0 -706 -193 0 0 706 -1135 0 0 -982 86 0 0 -23c-1,-269 221,-490 490,-490 249,0 456,190 485,431l340 0zm-67 254c11,-53 36,-98 58,-149l-322 0c22,51 47,96 58,149l206 0zm-103 -861l1232 0 0 328 -21 -30c-89,-135 -226,-234 -382,-276 -125,-21 -240,-20 -346,0 -78,21 -151,56 -216,103l0 0 0 0c-123,78 -209,194 -256,330l-11 30 -10 -30c-48,-136 -134,-252 -256,-330l0 0 -1 0c-65,-47 -138,-82 -216,-103 -106,-20 -221,-21 -345,0 -157,42 -293,141 -383,276l-20 30 0 -328 1231 0zm1123 2708c-99,176 -234,333 -390,451 -81,60 -177,102 -272,135 -83,29 -167,51 -251,77 -46,15 -118,37 -157,66l-53 40 -53 -40c-39,-29 -111,-51 -157,-66 -83,-26 -168,-48 -250,-77 -95,-33 -192,-75 -273,-135 -156,-118 -290,-275 -390,-451l-2 2c-28,26 -49,57 -61,93 -34,96 -8,221 -11,322 0,8 0,16 -1,24 -2,36 -8,71 -20,105l-4 11 11 4c118,37 236,74 353,111 114,274 341,306 603,231 83,52 166,105 249,157l6 4 6 -4c83,-52 166,-105 249,-157 263,75 489,43 603,-231 118,-37 236,-74 353,-111l11 -4 -4 -11c-14,-41 -20,-85 -21,-129 -2,-101 23,-226 -10,-322 -13,-36 -34,-67 -62,-93l-2 -2zm-305 -2786c-257,-149 -507,-219 -818,-219 -311,0 -560,70 -817,219l1635 0z"/>
   <path class="fil1" d="M1816 1056c-80,22 -154,58 -219,105 -125,79 -213,198 -261,335 -48,-137 -135,-256 -260,-335 -66,-47 -140,-83 -220,-105l960 0zm-1700 0l389 0c-161,44 -299,145 -389,280l0 -280zm2441 0l-389 0c160,44 298,145 389,280l0 -280z"/>
   <path class="fil3" d="M1444 3211l0 -324 1113 0 0 10 0 180c0,44 -3,89 -9,134l-1104 0z"/>
   <path class="fil3" d="M1444 4357l0 -739 985 0c-93,197 -234,379 -413,515 -158,119 -405,163 -567,223 -3,1 -2,0 -5,1z"/>
   <path class="fil4" d="M1228 3211l0 -324 -1112 0 0 10 0 180c0,44 3,89 8,134l1104 0z"/>
   <path class="fil5" d="M1228 3574l0 -318 -1098 0c17,106 49,214 93,318l1005 0z"/>
   <path class="fil4" d="M1228 4357l0 -739 -985 0c93,197 234,379 414,515 157,119 404,163 566,223 3,1 2,0 5,1z"/>
   <path class="fil3" d="M116 2705l1112 0 0 -695 -24 0c-29,0 -52,-23 -52,-52 0,-29 23,-52 52,-52l18 0c-12,-53 -37,-99 -59,-149l-32 0c-29,0 -52,-24 -52,-53 0,-28 23,-52 52,-52l24 0c-29,-235 -232,-420 -474,-420 -263,0 -479,216 -479,479l0 34 -86 0 0 960z"/>
   <g>
    <g>
     <path class="fil0" d="M816 1699c38,-16 64,-8 94,14l-11 7c-100,66 -95,188 -144,285 -23,43 -57,75 -92,108 31,-5 59,8 83,38l17 21 -26 -8c-90,-27 -141,50 -172,122 59,-11 61,48 60,88 -15,-15 -35,-39 -59,-35 -33,6 -57,66 -67,94 -18,49 -28,97 -43,146l-52 48c18,-79 38,-157 55,-236 8,-38 15,-77 16,-115 0,-41 -8,-82 -15,-121 -16,-81 -5,-189 60,-240 0,-25 4,-52 13,-79 23,-70 55,-99 61,-179 9,14 17,23 21,40 15,-64 47,-126 90,-177 63,-76 136,-118 233,-133 -26,60 -10,92 -13,153 -3,49 -18,66 -52,99 -19,19 -40,38 -57,60z"/>
     <path class="fil2" d="M449 2574l-31 29c66,-291 79,-296 50,-450 -14,-70 1,-177 48,-222 8,38 23,73 46,105 -39,-73 -41,-137 -21,-197 16,-50 51,-97 58,-159 15,22 8,65 14,100 0,-180 145,-357 312,-383 -25,60 10,143 -24,199 -20,32 -83,74 -111,127 44,-31 77,-29 105,-10 -104,68 -99,192 -148,288 -28,55 -75,90 -119,132 46,-24 81,-14 111,23 -90,-27 -146,39 -189,143 40,-15 66,-3 67,55 -58,-59 -98,2 -126,76 40,-188 114,-384 186,-573 7,-18 14,-37 21,-55 1,-2 0,-4 -2,-4 -2,-1 -4,0 -5,2 -7,18 -14,36 -20,54 -80,210 -162,427 -199,634 -10,36 -18,69 -23,86zm394 -1100c1,-2 3,-3 5,-1 2,1 2,3 1,4 -75,127 -143,259 -202,396 -57,131 -105,266 -142,403 0,2 -2,3 -4,3 -2,-1 -3,-3 -3,-5 37,-137 85,-272 142,-404 59,-137 127,-270 203,-396z"/>
    </g>
    <path class="fil0" d="M805 2362c-23,2 -31,-4 -62,-4 -32,5 -42,35 -53,64 -10,26 -23,50 -20,76 2,28 20,34 41,46 -14,6 -15,19 -4,28 33,0 65,-2 98,-2 32,0 65,2 97,2 11,-9 10,-22 -4,-28 21,-12 39,-18 42,-46 2,-26 -10,-50 -20,-76 -12,-29 -22,-59 -54,-64 -31,0 -38,6 -61,4z"/>
   </g>
   <path class="fil4" d="M2557 2705l-1113 0 0 -695 25 0c15,0 28,-6 38,-17 22,0 44,-8 61,-22 17,15 39,22 61,22 23,0 45,-7 62,-22 17,15 39,22 62,22 23,0 45,-7 62,-22 17,15 39,22 62,22 22,0 44,-7 61,-22 18,15 40,22 62,22 23,0 45,-7 62,-22 17,15 39,22 62,22 22,0 45,-7 62,-22 17,15 39,22 62,22 22,0 44,-7 61,-22 18,15 40,22 62,22 23,0 45,-7 62,-22 17,15 39,22 62,22 22,0 45,-7 62,-22l0 734zm-1107 -799c12,-53 38,-99 59,-149l33 0c28,0 52,-24 52,-53 0,-28 -24,-52 -52,-52l-25 0c29,-235 232,-420 475,-420 263,0 478,216 478,479l0 34 87 0 0 159 -6 9c-13,18 -33,30 -56,30 -23,0 -44,-12 -56,-30l-6 -9 -6 9c-12,18 -33,30 -56,30 -22,0 -43,-12 -56,-30l-6 -9 -5 9c-13,18 -34,30 -56,30 -23,0 -44,-12 -56,-30l-6 -9 -6 9c-13,18 -33,30 -56,30 -23,0 -44,-12 -56,-30l-6 -9 -6 9c-12,18 -33,30 -56,30 -22,0 -43,-12 -56,-30l-6 -9 -5 9c-13,18 -34,30 -56,30 -23,0 -44,-12 -56,-30l-6 -9 -6 9c-13,18 -33,30 -56,30 -23,0 -43,-12 -56,-30l-6 -9 -6 9c-12,18 -33,30 -56,30 -22,0 -43,-12 -56,-30l-5 -9 -6 9c-10,15 -26,25 -44,29 -7,-21 -26,-36 -49,-36l-19 0z"/>
   <g>
    <path class="fil0" d="M2374 2278l3 -1c36,-18 56,-42 87,-65l4 -3 5 4c5,5 9,10 13,16 26,38 1,68 4,107 0,3 0,7 1,10 5,35 39,63 29,88l-4 10 -7 -8c-8,-9 -16,-15 -27,-19 -8,-3 -17,-5 -26,-8 -12,-3 -23,-8 -34,-14 -13,-7 -24,-18 -33,-29l-1 0c-58,-4 -95,-20 -147,8 6,5 16,8 23,12l4 3 -1 5c-5,17 17,58 -7,59 -29,2 -63,-15 -85,-33l-2 -2c-30,13 -75,10 -108,12 -19,1 -47,8 -68,14 10,6 22,11 31,16 6,2 14,6 12,14 -2,8 -16,8 -22,7 -19,-2 -43,-11 -60,-18 -6,-2 -14,-6 -21,-12l-7 1c-58,5 -110,6 -167,-1 -8,-1 -16,-2 -23,-4 4,4 8,7 13,10 4,2 8,6 7,12 -3,8 -16,8 -22,7 -18,-4 -41,-19 -55,-30 -8,-6 -13,-9 -16,-16 -4,4 -11,4 -18,1 -9,-5 -20,-16 -27,-18l-3 -1 -4 -1c-21,-6 -34,-9 -54,-19 -8,-4 -24,-13 -32,-14 -9,-2 -39,-17 -45,-24l-5 -6 6 -4c5,-4 9,-8 15,-12l1 0c-5,-5 -9,-11 -14,-18l-5 -8 9 -2c19,-5 39,-11 58,-17 13,-5 41,-13 52,-20 25,-16 58,-21 86,-22 67,-3 132,-17 199,-13l5 0 4 -4c19,-18 47,-52 75,-52 15,0 79,33 92,44 6,6 -3,16 -9,23l1 0c34,2 69,5 102,10 33,5 65,18 98,22 1,0 2,0 3,1l7 -5c14,-9 28,-22 44,-27 8,-3 17,-3 23,4 3,5 5,12 2,17 -3,5 -5,11 -7,16 16,0 33,0 46,-2l2 -1z"/>
    <path class="fil2" d="M1990 2439c17,-5 56,-15 75,-16 28,-2 78,1 106,-12 12,-5 26,-16 37,-23 7,-5 14,-11 22,-16 58,-34 91,-17 158,-13 9,-13 12,-22 10,-32 -2,-11 -10,-24 -25,-42 -22,4 -60,2 -84,1 -12,-1 -25,-2 -36,-4 -32,-4 -65,-17 -98,-22 -23,-4 -68,-8 -101,-11l-169 -10c-66,-4 -131,9 -198,12 -20,1 -56,4 -82,21 -17,11 -101,35 -112,38 14,22 22,27 38,39 4,4 7,9 3,11 -4,2 -24,-16 -31,-22 -5,3 -10,8 -14,11 5,6 33,21 41,22 8,2 21,9 34,15 3,2 18,3 26,-10 7,-11 9,-25 7,-38 -1,-6 -4,-12 -8,-19 -1,-1 0,-3 2,-4 1,-1 3,0 4,1 4,7 7,13 8,21 4,21 -2,46 -19,58 11,4 22,6 33,9 5,-7 13,-12 21,-17 9,-5 17,-10 18,-18 2,-12 -5,-28 -14,-43 -9,-15 -20,-28 -26,-35 -1,-1 -1,-3 1,-4 1,-1 3,-1 4,0 6,7 17,20 26,36 3,3 5,6 6,10 1,-4 3,-8 6,-11l0 0c3,-3 9,-6 14,-6 6,0 11,3 14,6l0 0c4,4 6,9 6,15 0,6 -2,11 -6,15l0 0c-3,4 -8,6 -14,6 -4,0 -8,-1 -11,-4 1,6 1,11 1,16 -2,11 -12,17 -22,23 -6,4 -13,8 -18,13 10,3 17,13 29,18 5,3 12,5 11,-5 -1,-6 0,-12 4,-15 8,-7 18,0 21,1 16,9 35,28 42,34 55,8 93,15 199,6 0,-1 -1,-3 -2,-5 -1,-5 0,-10 3,-15 1,-1 2,-2 4,-3 11,-9 41,8 55,17l1 0zm364 -144c6,0 11,3 14,6l0 0c4,4 6,9 6,15 0,6 -2,11 -6,15l0 0c-3,4 -8,6 -14,6 -6,0 -11,-2 -14,-6l0 0c-4,-4 -6,-9 -6,-15 0,-6 2,-11 6,-15l0 0c3,-3 8,-6 14,-6zm-109 2c6,0 11,2 14,6l0 0c4,4 6,9 6,15 0,5 -2,11 -6,14l0 0c-3,4 -8,7 -14,7 -6,0 -11,-3 -14,-7l0 0c-4,-3 -6,-9 -6,-14 0,-6 2,-11 6,-15l0 0c3,-4 8,-6 14,-6zm-85 17c6,0 11,2 14,6l0 0c4,4 6,9 6,15 0,5 -2,11 -6,14l0 0c-3,4 -8,6 -14,6 -6,0 -11,-2 -14,-6l0 0c-4,-3 -6,-9 -6,-14 0,-6 2,-11 6,-15l0 0c3,-4 8,-6 14,-6zm-86 0c6,0 11,2 14,6l0 0c4,4 6,9 6,15 0,6 -2,11 -6,15l0 0c-3,3 -8,6 -14,6 -5,0 -11,-3 -14,-6l0 0c-4,-4 -6,-9 -6,-15 0,-6 2,-11 6,-15l0 0c3,-4 9,-6 14,-6zm-70 11c6,0 11,2 15,6l0 0c3,4 6,9 6,15 0,6 -3,11 -6,15l0 0c-4,3 -9,6 -15,6 -5,0 -10,-3 -14,-6l0 0c-3,-4 -6,-9 -6,-15 0,-6 3,-11 6,-15l0 0c4,-4 9,-6 14,-6zm-109 -7c5,0 10,2 14,6l0 0c4,4 6,9 6,15 0,5 -2,11 -6,14l0 0c-4,4 -9,7 -14,7 -6,0 -11,-3 -14,-7l-1 0c-3,-3 -5,-9 -5,-14 0,-6 2,-11 5,-15l1 0c3,-4 8,-6 14,-6zm-80 0c6,0 11,2 15,6l0 0c3,4 5,9 5,15 0,11 -8,21 -20,21 -5,0 -10,-3 -14,-7l0 0c-4,-3 -6,-9 -6,-14 0,-6 2,-11 6,-15l0 0c4,-4 9,-6 14,-6zm-79 0c11,0 20,9 20,21 0,11 -9,21 -20,21 -6,0 -11,-3 -14,-7l0 0c-4,-3 -6,-9 -6,-14 0,-6 2,-11 6,-15l0 0c3,-4 8,-6 14,-6zm-182 -8c4,0 9,2 12,5l0 0c3,4 5,8 5,13 0,4 -2,9 -5,12l0 0c-3,3 -8,5 -12,5 -5,0 -9,-2 -13,-5l0 0c-3,-3 -5,-8 -5,-12 0,-5 2,-9 5,-13l0 0c4,-3 8,-5 13,-5zm7 10l0 0c-2,-2 -4,-3 -7,-3 -3,0 -6,1 -8,3l0 0c-2,2 -3,5 -3,8 0,3 1,5 3,7l0 0c2,2 5,3 8,3 3,0 5,-1 7,-3l0 0c2,-2 3,-4 3,-7 0,-3 -1,-6 -3,-8zm483 -78c6,-6 15,-16 13,-17 -15,-14 -77,-43 -87,-43 -25,0 -52,34 -70,51l34 2 35 -35c1,-2 4,-2 5,0 1,1 1,3 0,4l-31 32 14 1 30 -30c1,-2 3,-2 5,0 1,1 1,3 0,4l-26 26 10 1 25 -25c2,-1 4,-1 5,0 1,1 1,4 0,5l-21 20 12 1 19 -19c1,-1 3,-1 5,0 1,1 1,3 0,5l-16 15 11 0 14 -14c1,-1 3,-1 5,0 1,1 1,4 0,5l-10 10 19 1zm-357 198c15,11 36,26 52,29 6,1 22,0 10,-7 -15,-9 -47,-39 -65,-50 -8,-5 -14,-3 -14,6 2,13 7,15 17,22zm273 17c19,7 43,16 58,17 12,2 24,-1 7,-8 -11,-6 -32,-16 -42,-23 -9,-5 -39,-25 -48,-14 -7,12 16,24 25,28zm219 -42c18,14 51,33 81,32 14,-1 -6,-34 1,-55 -11,-7 -19,-8 -26,-15 -3,2 -5,4 -8,5 3,3 7,5 10,8 5,3 10,7 15,10 2,1 2,3 1,5 -1,1 -3,2 -5,1 -5,-4 -10,-7 -15,-11 -4,-3 -8,-6 -11,-9 -3,2 -7,4 -10,7 4,3 8,6 13,9 7,5 14,11 20,14 1,1 2,3 1,5 -1,1 -3,2 -5,1 -6,-4 -13,-9 -20,-14 -5,-4 -10,-8 -14,-11 -4,2 -7,5 -11,7 5,4 12,9 20,13 8,5 16,9 23,12 1,0 2,2 2,4 -1,2 -3,3 -5,2 -7,-3 -15,-7 -23,-12 -9,-5 -18,-11 -23,-15 -3,2 -7,4 -11,7zm140 -135c2,-6 7,-16 8,-18 2,-5 -1,-17 -17,-12 -15,5 -31,19 -43,27 3,0 6,1 10,1 0,0 0,0 0,0 6,-2 12,-5 18,-8 5,-2 10,-5 13,-8 2,-1 4,-1 5,0 1,2 1,4 0,5 -4,3 -9,6 -15,9 -2,1 -4,2 -6,3 9,1 18,1 27,1zm75 82c8,9 18,21 31,28 41,21 62,11 89,41 4,-9 1,-17 -5,-26 -10,-6 -21,-11 -33,-15 -14,-4 -29,-7 -45,-10 -2,0 -3,-2 -3,-4 0,-2 2,-3 4,-3 17,3 32,6 46,11 9,3 17,6 25,10 -3,-5 -6,-10 -9,-16 -7,-3 -14,-6 -22,-8 -14,-4 -30,-6 -48,-8 -2,0 -3,-1 -3,-3 0,-2 2,-3 4,-3 17,1 34,4 49,8 6,2 11,3 16,5 -2,-4 -3,-10 -4,-15 -16,-5 -34,-6 -53,-5 -1,0 -3,-1 -3,-3 0,-2 1,-3 3,-4 18,-1 36,1 51,5 0,-4 -1,-7 -1,-10 0,-7 0,-14 1,-21 -4,1 -7,3 -11,4 -14,6 -27,10 -41,13 -2,0 -4,-1 -4,-2 -1,-2 0,-4 2,-4 14,-4 27,-8 40,-13 5,-2 10,-4 15,-6 1,-5 2,-9 3,-14 -5,3 -10,6 -16,8 -13,6 -26,12 -40,16 -1,0 -3,-1 -4,-2 0,-2 1,-4 2,-4 14,-5 27,-10 40,-16 6,-3 13,-6 20,-10 0,-5 1,-10 1,-14 -5,3 -10,7 -15,10 -13,8 -26,15 -42,21 -2,0 -4,0 -5,-2 0,-2 1,-4 2,-4 16,-6 29,-13 41,-21 7,-4 13,-8 19,-13 0,-3 0,-6 -1,-9 -7,5 -13,9 -20,13 -13,8 -26,14 -40,20 -1,0 -3,-1 -4,-2 -1,-2 0,-4 2,-5 14,-5 26,-11 38,-18 8,-5 15,-10 22,-15 -1,-3 -2,-6 -4,-9 -7,6 -14,11 -22,15 -11,7 -23,13 -36,20 -2,1 -4,0 -5,-2 0,-1 0,-3 2,-4 13,-7 25,-13 36,-19 7,-5 15,-10 22,-15 -3,-5 -8,-10 -13,-15 -40,29 -47,44 -88,65 14,18 22,30 25,43 2,11 -2,22 -11,36z"/>
    <g>
     <path class="fil6" d="M1683 2327c-3,-3 -6,-4 -10,-4 -4,0 -7,1 -9,4l0 0c-3,3 -4,6 -4,10 0,4 1,8 4,10l0 0c2,3 5,4 9,4 4,0 7,-1 10,-4l0 0c2,-2 4,-6 4,-10 0,-4 -2,-7 -4,-10l0 0z"/>
     <path class="fil1" d="M1746 2328c-3,-2 -6,-4 -10,-4 -4,0 -7,2 -10,4l0 0c-2,3 -4,7 -4,11 0,4 2,7 4,10l0 0c3,2 6,4 10,4 4,0 7,-2 10,-4l0 0c2,-3 4,-6 4,-10 0,-4 -2,-8 -4,-11l0 0z"/>
     <path class="fil7" d="M1825 2328c-3,-2 -6,-4 -10,-4 -3,0 -7,2 -9,4l0 0c-3,3 -4,7 -4,11 0,4 1,7 4,10l0 0c2,2 6,4 9,4 4,0 7,-2 10,-4l0 0c2,-3 4,-6 4,-10 0,-4 -2,-8 -4,-11l0 0z"/>
     <path class="fil8" d="M1904 2328c-2,-2 -5,-4 -9,-4 -4,0 -7,2 -10,4l0 0c-2,3 -4,7 -4,11 0,4 2,7 4,10l0 0c3,2 6,4 10,4 4,0 7,-2 9,-4l0 0c3,-3 4,-6 4,-10 0,-4 -1,-8 -4,-11l0 0z"/>
     <path class="fil6" d="M2014 2336c-2,-3 -6,-4 -10,-4 -3,0 -7,1 -9,4l0 0c-3,2 -4,6 -4,10 0,4 1,7 4,10l0 0c2,3 6,4 9,4 4,0 8,-1 10,-4l0 0c2,-3 4,-6 4,-10 0,-4 -2,-8 -4,-10l0 0z"/>
     <path class="fil1" d="M2084 2325c-3,-3 -6,-4 -10,-4 -4,0 -7,1 -9,4l0 0c-3,2 -4,6 -4,10 0,4 1,7 4,10l0 0c2,3 5,4 9,4 4,0 7,-1 10,-4l0 0c2,-3 4,-6 4,-10 0,-4 -2,-8 -4,-10l0 0z"/>
     <path class="fil7" d="M2169 2324c-2,-2 -5,-4 -9,-4 -4,0 -7,2 -10,4l0 0c-2,3 -4,7 -4,11 0,4 2,7 4,10l0 0c3,2 6,4 10,4 4,0 7,-2 9,-4l0 0c3,-3 4,-6 4,-10 0,-4 -1,-8 -4,-11l0 0z"/>
     <path class="fil8" d="M2255 2308c-3,-3 -6,-5 -10,-5 -4,0 -7,2 -9,5l0 0c-3,2 -5,6 -5,10 0,4 2,7 5,10l0 0c2,2 5,4 9,4 4,0 7,-2 10,-4l0 0c2,-3 4,-6 4,-10 0,-4 -2,-8 -4,-10l0 0z"/>
     <path class="fil6" d="M2363 2306c-2,-2 -5,-4 -9,-4 -4,0 -7,2 -10,4l0 0c-2,3 -4,6 -4,10 0,4 2,8 4,10l0 0c3,3 6,4 10,4 4,0 7,-1 9,-4l0 0c3,-2 4,-6 4,-10 0,-4 -1,-7 -4,-10l0 0z"/>
    </g>
   </g>
   <g>
    <g>
     <path class="fil0" d="M1002 3434l0 0 5 1c0,0 1,0 1,0l1 0 0 0c4,1 8,3 12,5 16,10 23,29 24,47 1,22 -5,44 -15,63 6,7 9,16 3,25 -6,7 -15,8 -24,5 -14,16 -32,29 -51,39 3,10 3,21 -7,26 -11,7 -24,-2 -30,-12 -19,6 -39,9 -59,10 -1,10 -6,19 -17,19 -11,1 -18,-9 -21,-18 -13,-1 -27,-2 -40,-4 -3,7 -8,12 -16,12 -12,1 -19,-10 -21,-21 -42,-13 -84,-37 -122,-58 -43,-25 -113,-67 -162,-73 -26,-3 -52,-5 -79,-5 -17,-1 -36,-1 -53,-3 -55,-6 -79,-21 -124,-52 -17,-12 -12,-37 -3,-53l1 -2c0,0 -1,-1 -1,-1 -12,-18 2,-37 18,-44 -7,-19 1,-42 16,-54 14,-10 27,-26 29,-44l0 -2 0 0 0 -4 1 -2 0 0 0 0c17,-101 177,-75 247,-64 54,9 175,38 203,88l1 1 0 1c1,5 1,10 1,14l4 5c87,100 106,125 245,150l4 0 3 1c8,1 16,3 24,4l2 0z"/>
     <path class="fil1" d="M768 3646c-9,0 -15,-10 -15,-20 -93,-29 -211,-123 -289,-133 -65,-7 -103,-4 -132,-7 -52,-6 -73,-19 -121,-52 -13,-9 -9,-30 -1,-43 83,53 135,60 186,67 25,4 50,7 77,16 33,11 67,24 101,38 155,63 322,132 432,-70l0 0c34,5 45,59 16,110 6,5 10,13 6,19 -5,5 -13,5 -21,1 -14,17 -33,32 -59,44 6,8 8,19 0,23 -9,5 -20,-4 -24,-14 -19,6 -42,10 -68,12 0,9 -3,18 -11,19 -9,0 -14,-10 -15,-19 -14,0 -30,-2 -46,-4 -2,0 -4,0 -5,-1 -1,7 -5,13 -11,14zm48 -52c7,0 10,5 9,11 0,4 -2,7 -5,10 -3,5 -11,5 -16,3 -15,-7 2,-26 12,-24zm141 -36c6,-2 15,5 16,11 2,8 -4,15 -13,14 -7,-1 -14,-6 -14,-13 -1,-5 5,-11 11,-12zm-53 32c3,2 5,7 3,11 -3,9 -14,13 -23,10 -10,-3 -12,-13 -1,-20 6,-4 14,-6 21,-1z"/>
     <path class="fil1" d="M452 3337c8,12 14,25 18,38 5,19 7,38 3,58 30,4 70,18 115,34 109,40 247,89 336,20 -32,-4 -67,-16 -106,-40 -42,-25 -88,-64 -141,-120 -5,5 -10,6 -16,5l0 0c-5,-1 -10,-4 -16,-10l0 1 0 0c-2,9 -3,14 -11,18 -5,2 -10,1 -15,-1l0 -1c-2,-1 -5,-3 -7,-4 -1,4 -2,7 -3,10 -3,5 -6,8 -11,8 -12,1 -16,-6 -20,-13 -1,3 -3,5 -5,8 -4,4 -9,7 -14,7 -3,0 -8,-2 -12,-5 -2,-3 -4,-5 -6,-8 -2,3 -4,5 -6,7 -4,4 -8,5 -12,5 -5,0 -9,-2 -12,-6 -1,-2 -3,-5 -4,-8 -3,4 -6,6 -9,8l0 0c-5,3 -10,4 -14,3 -6,-1 -9,-4 -12,-9l0 0c-2,-3 -3,-6 -4,-10 -6,3 -11,5 -16,5z"/>
     <path class="fil1" d="M274 3242l0 1c-2,19 -15,35 -32,49 -15,12 -21,35 -11,50 26,21 53,39 83,53 35,15 72,25 115,28 3,-19 2,-38 -4,-57 -4,-14 -11,-28 -21,-41 -7,-5 -11,-16 -13,-24 -4,4 -9,6 -13,7 -5,1 -10,1 -14,-1l0 0c-4,-2 -7,-6 -10,-10 -2,-4 -3,-9 -3,-14 -3,1 -5,1 -7,1 -5,1 -9,-1 -12,-3 -5,-3 -7,-8 -8,-13 0,-3 0,-7 0,-10 -4,2 -9,3 -13,3 -6,1 -11,0 -15,-3 -3,-2 -5,-6 -6,-11l0 0c-1,-3 -1,-7 -1,-11 -6,4 -11,6 -15,6z"/>
     <path class="fil9" d="M712 3261c-27,-50 -157,-77 -198,-84 -70,-11 -224,-36 -239,58 3,1 8,-2 15,-8l6 -6 -1 8c0,6 0,12 1,16l0 0c1,4 2,6 4,8 2,1 6,2 11,1 5,0 10,-2 16,-4l6 -3 -1 6c-1,5 -2,10 -1,14 0,4 2,7 5,9 2,1 4,2 7,2 3,-1 6,-2 9,-4l6 -3 -1 6c0,7 1,12 3,17 2,3 4,5 7,6l0 0c3,2 6,2 10,1 4,-1 9,-3 14,-8l5 -5 1 6c1,6 6,24 13,26 5,1 12,-4 21,-13l4 -5 1 7c2,4 3,8 4,11 2,2 4,5 6,8 1,0 1,1 2,1 5,2 12,1 21,-6l4 -3 1 6c1,5 2,10 4,13l0 0c1,3 4,5 7,6 3,0 6,0 9,-2l0 0c4,-3 7,-7 11,-12l4 -6 2 7c2,5 3,9 6,12 1,2 4,3 6,3 3,0 5,-1 7,-3 3,-2 5,-6 8,-11l3 -6 3 6c2,5 5,9 8,12 3,2 5,3 7,3 3,0 6,-2 9,-5 3,-3 5,-7 7,-12l2 -8 4 7c1,2 2,3 2,5 3,5 6,12 14,11 2,0 4,-1 6,-4 2,-3 3,-9 3,-15l1 -7 5 5c3,3 7,7 10,9l0 0c3,1 6,2 10,0 4,-1 5,-5 6,-13l0 0c1,-2 1,-4 2,-7l1 -7 5 6c6,7 11,12 16,13l0 0c4,1 9,-2 13,-7l2 -2 3 2c53,58 100,97 142,123 40,24 76,36 109,39 9,-8 17,-17 25,-27 -122,-15 -172,-64 -247,-138l-8 -8 -2 -2 2 -2c0,-1 1,-2 2,-3l0 0c5,-7 13,-18 9,-40zm-31 10c-4,14 -26,23 -53,28 -40,8 -93,9 -112,6 -30,-4 -61,-14 -91,-27 -29,-12 -58,-28 -85,-42 -12,-7 -19,-13 -22,-19 -3,-5 -3,-10 0,-14 2,-4 7,-7 12,-10l0 0c14,-7 37,-10 58,-11 11,0 26,1 47,3 17,1 39,4 65,8 38,5 79,13 111,23 21,6 40,13 52,22 13,9 21,19 19,30 0,1 0,2 -1,3z"/>
     <path class="fil9" d="M968 3435c-149,-26 -169,-59 -249,-152 -2,10 -7,17 -11,22l0 0 0 1 5 5c76,74 125,123 247,136 3,-3 5,-7 8,-12z"/>
     <path class="fil9" d="M886 3597c-5,3 -5,6 0,8 2,0 4,0 6,0 4,0 8,-2 9,-6 0,-2 0,-3 -1,-4 -5,-3 -10,-1 -14,2z"/>
     <path class="fil9" d="M816 3600c-4,0 -16,9 -10,12 3,1 8,1 9,-1 2,-2 3,-4 3,-7 1,-2 0,-3 -2,-4z"/>
     <path class="fil9" d="M954 3573c2,1 5,3 8,3 3,1 5,-2 5,-5 -1,-2 -3,-4 -5,-5 -6,-5 -12,3 -8,7z"/>
     <path class="fil9" d="M225 3346c-12,5 -25,20 -16,34 4,5 7,6 12,9 77,49 127,56 176,63 25,3 50,7 78,16 33,10 67,24 102,38 151,62 315,129 422,-66 -9,-1 -17,-2 -24,-3 -83,147 -257,84 -390,36 -46,-16 -86,-31 -116,-34l-4 -1 1 -3c4,-20 3,-39 -3,-58 -4,-15 -12,-30 -22,-45 -3,-2 -5,-5 -6,-9l-2 -2 0 0c0,-2 -1,-3 -1,-5 -7,6 -13,10 -18,11 8,12 14,25 18,38 6,20 7,41 3,62l0 3 -3 0c-45,-3 -85,-13 -120,-29 -32,-15 -60,-33 -87,-55z"/>
     <path class="fil1" d="M627 3292c25,-5 45,-12 48,-23 0,-1 0,-1 0,-2 2,-8 -5,-16 -16,-24 -12,-8 -29,-15 -50,-21 -32,-10 -72,-17 -110,-23 -26,-3 -47,-6 -65,-8 -20,-1 -36,-2 -45,-2 -21,0 -43,4 -56,10l0 0c-4,2 -8,5 -9,7 -1,3 -2,5 0,8 3,5 9,10 20,16 9,5 19,10 29,16 46,-10 90,-10 131,-1 40,8 77,25 109,50 5,-1 9,-2 14,-3z"/>
     <path class="fil1" d="M383 3251c15,7 30,15 45,21 29,13 59,23 89,27 15,2 52,1 87,-3 -30,-22 -64,-37 -102,-45 -37,-7 -77,-8 -119,0z"/>
    </g>
    <g>
     <path class="fil0" d="M953 3195c9,-5 21,-24 38,-24l8 0c0,17 -2,16 -8,31 44,-20 56,-16 61,-13 7,6 -10,21 -12,31 7,-3 47,-22 67,-3 14,14 3,24 -1,38 0,2 69,-8 47,33 -2,3 51,0 43,6 -6,6 -30,26 -30,34 -2,7 24,7 25,29 0,16 -25,11 -43,31 9,12 24,18 27,32 2,10 -4,26 -32,31 16,6 27,14 26,31 -16,-13 -65,-12 -56,-3 14,16 9,45 8,45 -30,-18 -66,3 -88,13 -8,3 -27,0 -34,-2 -23,-4 -44,-18 -68,-25 -16,-4 -44,-22 -57,-32 -19,-15 -33,-48 -35,-72 -1,-15 -8,-23 -14,-37 -33,-66 2,-42 3,-92 0,-41 63,-71 94,-87 16,-8 21,-12 31,5z"/>
     <path class="fil9" d="M995 3527c1,0 2,0 3,1 3,0 6,1 6,1 11,2 36,6 13,-6 -12,-5 -21,-33 -9,-51 24,-33 -18,-50 1,-61 13,-8 9,-12 12,-24 1,-5 9,-12 11,-18 3,-21 -27,-25 -25,-39 1,-7 9,-6 11,-19 2,-10 3,-27 -10,-29 -25,-3 5,-25 1,-38 -4,-14 -25,-8 -27,-24 -4,-24 9,-26 9,-42 -14,0 -34,29 -41,25 -1,0 -2,0 -3,0 -1,3 -4,8 -4,9 -2,4 -3,8 -4,12l0 0c-2,10 0,20 21,24 4,1 9,5 13,11 1,2 0,3 1,5 1,2 1,4 0,6l0 0c0,2 -1,3 -3,4 -7,5 -5,13 -4,21 0,7 0,12 -7,19 -10,10 -10,19 -6,23l0 0c3,3 8,5 13,6 11,4 25,8 25,24 0,9 -9,13 -16,21 -6,6 -12,16 -13,21 -2,7 -1,13 2,18 2,6 7,10 13,13l0 0c0,0 1,1 1,1 4,2 6,6 7,11 0,4 0,9 -2,13 -1,0 -1,1 -2,2 -5,7 -6,17 -4,28 0,2 1,3 1,4l0 0c3,10 8,17 16,28z"/>
     <path class="fil3" d="M948 3201c-9,-16 -10,-11 -23,-4 -12,6 -89,41 -90,80 -1,55 -35,26 -3,89 6,13 13,22 15,40 0,1 5,45 32,66 15,12 42,28 54,31 30,8 44,20 65,25 -6,-10 -11,-20 -13,-29l0 0c-5,-13 -4,-26 2,-35 1,0 1,-1 2,-2 2,-4 2,-8 2,-13 -1,-4 -3,-8 -7,-10 0,-1 -1,-1 -1,-1l0 0c-6,-4 -11,-8 -13,-13 -3,-5 -4,-11 -2,-18 1,-5 6,-11 12,-17 8,-8 17,-17 17,-25 0,-16 -14,-21 -25,-24 -6,-2 -10,-3 -13,-6l0 0c-4,-4 -3,-10 7,-20 7,-8 6,-16 6,-23 -1,-7 -1,-14 6,-19 2,-1 3,-2 3,-4l0 0c0,-2 0,-4 0,-6 -1,-2 -2,-4 -3,-7 -4,-5 -9,-10 -13,-11 -21,-4 -23,-13 -21,-23l0 0c0,-4 2,-8 4,-12 1,-3 1,-5 2,-7 -1,0 -2,-1 -2,-2z"/>
    </g>
   </g>
   <path class="fil0" d="M1336 89c407,0 852,98 1192,330l8 5 -235 543 -11 -7c-304,-197 -589,-290 -954,-290 -365,0 -649,93 -954,290l-11 7 -235 -543 8 -5c340,-232 785,-330 1192,-330z"/>
   <path class="fil10" d="M185 509l149 343c33,-6 56,3 76,11 18,7 33,13 51,4 15,-7 17,-29 18,-51 1,-9 2,-18 3,-26 5,-27 17,-47 58,-41 16,-32 37,-30 60,-19 8,4 16,8 23,13 19,12 38,23 54,17 13,-5 17,-24 21,-43 1,-8 3,-16 5,-24l0 0c7,-23 21,-41 59,-30 32,-41 61,-19 89,2 17,13 34,25 50,22 16,-4 25,-23 35,-43 4,-7 7,-14 11,-20 14,-24 32,-40 67,-20 20,-27 36,-26 53,-15 7,5 14,12 22,19 17,16 35,34 59,33 17,-1 30,-4 42,-20 14,-18 28,-35 50,-36 20,-1 34,13 49,28 28,27 60,33 94,0 16,-15 30,-29 50,-28 21,1 35,18 49,36 13,16 25,19 42,20 24,1 43,-17 59,-33 8,-7 15,-14 22,-19 17,-11 34,-12 53,15 35,-20 53,-4 67,20 4,6 8,13 11,20 10,20 20,39 36,43 16,3 32,-9 49,-22 29,-21 57,-43 89,-2 39,-11 52,7 60,30l0 0c2,8 3,16 5,24 4,19 7,38 21,43 15,6 34,-5 53,-17 8,-5 16,-9 23,-13 23,-11 45,-13 61,19 40,-6 52,14 57,41 2,8 2,17 3,26 2,22 4,44 18,51 19,9 34,3 52,-4 19,-8 42,-17 76,-11l148 -343c0,-23 -4,-41 -10,-54 -6,-11 -13,-18 -21,-22 -9,-3 -19,-3 -30,0 -19,6 -40,22 -62,48l-3 3 -3 -2c-12,-10 -21,-20 -27,-31 -5,-9 -7,-18 -8,-28 -10,3 -21,5 -31,5 -12,1 -24,0 -36,-3l-5 -1 1 -5c15,-40 11,-72 -2,-91 -6,-8 -13,-14 -21,-18 -9,-3 -18,-4 -28,-3 -23,5 -49,25 -69,64l-2 5 -4 -3c-13,-7 -21,-15 -26,-25 -4,-8 -7,-17 -8,-27 -8,4 -17,7 -26,9 -12,2 -24,3 -35,1l-5 -1 1 -5c8,-43 -1,-74 -19,-90 -7,-6 -15,-10 -23,-12 -9,-2 -18,-1 -26,2 -23,7 -44,31 -54,71l-1 6 -5 -3c-14,-7 -24,-16 -31,-27 -7,-8 -11,-18 -14,-29 -10,7 -20,11 -30,15 -13,4 -25,5 -39,4l-4 0 0 -5c7,-42 -3,-70 -19,-84 -7,-6 -14,-9 -22,-11l0 0c-8,-1 -17,0 -25,3 -22,9 -43,34 -50,76l-1 6 -5 -3c-13,-5 -24,-11 -33,-19 -7,-6 -14,-14 -18,-22 -8,5 -17,9 -26,12 -11,4 -23,7 -35,7l-6 0 1 -5c6,-34 -5,-61 -22,-75 -7,-6 -15,-10 -23,-11 -8,-1 -17,-1 -25,3 -20,9 -38,35 -45,83l-1 6 -5 -2c-36,-13 -48,-37 -59,-59 -7,-14 -13,-27 -26,-35 -12,8 -19,21 -26,35 -11,22 -23,46 -59,59l-5 2 0 -6c-7,-48 -26,-74 -46,-83 -8,-4 -16,-4 -25,-3 -8,1 -16,5 -22,11 -18,14 -29,41 -23,75l1 5 -5 0c-13,0 -25,-3 -36,-7 -9,-3 -17,-7 -25,-12 -5,8 -11,16 -19,22 -9,8 -20,14 -32,19l-5 3 -1 -6c-8,-42 -28,-67 -51,-76 -8,-3 -16,-4 -24,-3l0 0c-8,2 -16,5 -22,11 -17,14 -27,42 -20,84l1 5 -5 0c-13,1 -26,0 -38,-4 -11,-4 -21,-8 -31,-15 -2,11 -7,21 -13,29 -8,11 -18,20 -31,27l-5 3 -2 -6c-9,-40 -31,-64 -53,-71 -9,-3 -18,-4 -27,-2 -8,2 -16,6 -23,12 -17,16 -27,47 -19,90l1 5 -4 1c-12,2 -24,1 -35,-1 -9,-2 -18,-5 -27,-9 -1,10 -3,19 -7,27 -6,10 -14,18 -27,25l-4 3 -2 -5c-19,-39 -45,-59 -69,-64 -9,-1 -19,0 -27,3 -8,4 -16,10 -21,18 -13,19 -17,51 -3,91l2 5 -5 1c-12,3 -24,4 -37,3 -10,0 -20,-2 -30,-5 -1,10 -4,19 -9,28 -6,11 -15,21 -27,31l-3 2 -3 -3c-21,-26 -43,-42 -61,-48 -11,-3 -22,-3 -30,0 -9,4 -16,11 -21,22 -7,13 -11,31 -11,54z"/>
   <g>
    <circle class="fil11" cx="1336" cy="405" r="207"/>
    <path class="fil1" d="M1336 207c110,0 198,88 198,198 0,109 -88,198 -198,198 -109,0 -198,-89 -198,-198 0,-110 89,-198 198,-198zm0 21c49,0 93,20 125,52 32,32 52,76 52,125 0,49 -20,93 -52,125 -32,32 -76,52 -125,52 -49,0 -93,-20 -125,-52 -32,-32 -52,-76 -52,-125 0,-49 20,-93 52,-125 32,-32 76,-52 125,-52zm119 58c-30,-31 -72,-49 -119,-49 -46,0 -88,18 -119,49 -30,30 -49,72 -49,119 0,46 19,88 49,119 31,30 73,49 119,49 47,0 89,-19 119,-49 30,-31 49,-73 49,-119 0,-47 -19,-89 -49,-119z"/>
    <path class="fil11" d="M1278 405c-3,-21 -32,0 -51,-16 -16,-14 -21,-39 -28,-58l-3 -7 8 -1c20,-4 44,-12 64,-5 24,9 19,44 39,36 17,-13 -16,-27 -11,-52 4,-21 22,-38 35,-53l5 -6 5 6c13,15 32,32 36,53 4,25 -28,39 -12,52 20,8 16,-27 40,-36 20,-7 44,1 64,5l7 1 -2 7c-7,19 -12,44 -29,58 -19,16 -48,-5 -51,16 3,21 32,-1 51,16 17,14 22,38 29,58l2 6 -7 2c-20,3 -44,11 -64,4 -24,-8 -20,-44 -40,-36 -16,13 16,27 12,52 -4,21 -23,38 -36,54l-5 5 -5 -5c-13,-16 -31,-33 -35,-54 -5,-25 28,-39 11,-52 -20,-8 -15,28 -39,36 -20,7 -44,-1 -64,-4l-8 -2 3 -6c7,-20 12,-44 28,-58 19,-17 48,5 51,-16zm58 -34c10,0 18,3 24,10l0 0c7,6 10,14 10,24 0,9 -3,18 -10,24 -6,6 -14,10 -24,10 -9,0 -18,-4 -24,-10l0 0c-6,-6 -10,-15 -10,-24 0,-10 4,-18 10,-24 6,-7 15,-10 24,-10zm20 14c-5,-5 -12,-8 -20,-8 -8,0 -15,3 -20,8 -5,5 -8,12 -8,20 0,7 3,14 8,20l0 0c5,5 12,8 20,8 8,0 15,-3 20,-8 5,-6 8,-13 8,-20 0,-8 -3,-15 -8,-20zm-72 20c-3,29 -36,6 -53,21 -15,13 -23,46 -26,55 9,1 42,11 61,4 21,-7 17,-47 44,-35 24,17 -12,34 -8,56 3,20 28,44 34,51 6,-7 31,-31 35,-51 4,-22 -33,-39 -9,-56 27,-12 24,28 45,35 19,7 52,-3 61,-4 -3,-9 -11,-42 -27,-55 -17,-15 -50,8 -53,-21 3,-30 36,-7 53,-21 16,-13 24,-47 27,-55 -9,-2 -42,-12 -61,-5 -21,8 -18,48 -45,36 -24,-18 13,-35 9,-56 -4,-21 -29,-44 -35,-51 -6,7 -31,30 -34,51 -4,21 32,38 8,56 -27,12 -23,-28 -44,-36 -19,-7 -52,3 -61,5 3,8 11,42 26,55 17,14 50,-9 53,21z"/>
   </g>
   <path class="fil1" d="M337 861l39 90c302,-195 587,-292 960,-292 373,0 658,97 960,292l39 -90c-30,-5 -51,3 -69,10 -20,8 -37,14 -58,4 -20,-9 -22,-34 -24,-59 -1,-8 -1,-17 -3,-24 -4,-23 -14,-40 -50,-34l-3 1 -2 -3c-13,-28 -31,-27 -50,-18 -7,4 -15,8 -22,13 -21,12 -42,25 -61,18 -19,-7 -23,-29 -27,-51 -1,-8 -3,-15 -5,-22l0 0c-6,-20 -17,-34 -51,-24l-3 1 -2 -2c-27,-37 -53,-18 -78,1 -19,14 -37,28 -57,23 -20,-4 -31,-26 -42,-47 -3,-7 -7,-14 -10,-20 -12,-20 -28,-33 -59,-15l-4 2 -2 -3c-16,-24 -30,-24 -43,-15 -6,4 -13,11 -20,18 -18,17 -38,36 -66,35 -21,-1 -35,-6 -49,-23 -13,-16 -25,-33 -42,-33 -17,-1 -29,11 -44,25 -23,23 -38,28 -54,27 -14,0 -29,-5 -52,-27 -14,-14 -27,-26 -43,-25 -17,0 -30,17 -43,33 -14,17 -28,22 -49,23 -27,1 -47,-18 -65,-35 -7,-7 -14,-14 -21,-18 -13,-9 -26,-9 -43,15l-2 3 -4 -2c-31,-18 -46,-5 -58,15 -4,6 -7,13 -11,20 -11,21 -21,43 -41,47 -20,5 -39,-9 -57,-23 -26,-19 -51,-38 -79,-1l-1 2 -3 -1c-34,-10 -46,4 -52,24l0 0c-2,7 -3,14 -5,22 -4,22 -8,44 -26,51 -19,7 -40,-6 -61,-18 -8,-5 -15,-9 -23,-13 -19,-9 -37,-10 -50,18l-1 3 -4 -1c-36,-6 -46,11 -50,34 -1,7 -2,16 -3,24 -2,25 -4,50 -23,59 -22,10 -39,4 -58,-4 -19,-7 -40,-15 -70,-10z"/>
   <path class="fil1" d="M1336 100c-468,0 -890,126 -1186,328l27 63c2,-16 5,-30 11,-40 6,-13 15,-21 25,-26 11,-4 23,-4 36,0 20,6 42,22 63,47 9,-8 16,-16 21,-25 5,-9 8,-20 8,-31l0 -6 6 2c11,4 23,7 34,7 10,1 19,0 29,-2 -13,-41 -9,-74 5,-94 7,-10 16,-17 25,-21 10,-4 21,-5 33,-3 25,4 52,25 73,64 9,-5 15,-12 19,-19 4,-9 6,-19 7,-31l1 -7 6 4c9,5 19,9 29,11 9,2 19,3 28,1 -8,-44 3,-76 22,-93 8,-8 18,-13 28,-15 10,-2 20,-1 31,2 24,8 46,32 57,73 10,-6 18,-14 24,-22 6,-9 11,-20 13,-32l2 -7 5 4c11,8 22,14 33,17 10,3 20,5 31,5 -6,-43 5,-73 23,-88 8,-7 17,-11 26,-12 10,-2 20,-1 30,3 23,10 46,35 54,77 10,-4 18,-10 25,-15 9,-7 15,-15 19,-24l2 -5 4 3c9,5 18,10 28,14 9,3 18,5 28,6 -5,-34 7,-63 26,-78 8,-7 17,-11 27,-13 10,-1 20,0 30,4 22,10 42,36 49,85 29,-12 40,-34 49,-53 9,-17 17,-33 34,-41 18,8 25,24 34,41 10,19 20,41 49,53 8,-49 28,-75 50,-85 10,-4 20,-5 29,-4 10,2 19,6 27,13 19,15 32,44 27,78 10,-1 19,-3 27,-6 10,-4 19,-9 28,-14l5 -3 2 5c4,9 10,17 18,24 7,5 15,11 25,15 9,-42 31,-67 55,-77 10,-4 20,-5 29,-3 10,1 19,5 27,12 18,15 29,45 23,88 10,0 20,-2 30,-5 12,-3 23,-9 33,-17l6 -4 1 7c3,12 7,23 14,32 6,8 13,16 23,22 11,-41 34,-65 58,-73 10,-3 21,-4 31,-2 10,2 19,7 27,15 19,17 30,49 23,93 9,2 18,1 27,-1 10,-2 21,-6 29,-11l7 -4 0 7c1,12 3,22 8,31 4,7 10,14 18,19 21,-39 48,-60 73,-64 12,-2 23,-1 33,3 10,4 18,11 25,21 14,20 19,53 5,94 10,2 20,3 30,2 11,0 22,-3 33,-7l6 -2 0 6c0,11 3,22 8,31 5,9 12,17 21,25 22,-25 44,-41 63,-47 13,-4 25,-4 36,0 11,5 19,13 26,26 5,10 9,24 10,40l27 -63c-296,-202 -718,-328 -1186,-328z"/>
   <g>
    <g>
     <path class="fil11" d="M2328 877c-104,-46 -152,-167 -107,-272 46,-104 167,-152 271,-107l-164 379z"/>
     <path class="fil1" d="M2332 869c-101,-44 -146,-160 -103,-260 44,-100 160,-146 260,-104l-9 20c-44,-19 -92,-18 -134,-2 -42,17 -78,49 -97,94 -20,45 -19,93 -3,135 17,42 49,78 94,98l-8 19zm145 -336c-42,-18 -88,-17 -128,-2 -40,16 -74,47 -92,90 -19,42 -18,88 -2,128 15,40 46,74 89,93l133 -309z"/>
     <path class="fil11" d="M2358 664c5,-20 -29,-12 -40,-35 -10,-19 -5,-43 -4,-64l1 -7 7 1c20,5 45,8 61,22 18,17 0,48 21,49 21,-6 -3,-32 11,-52 12,-18 35,-26 54,-35l5 -3 -4 9c-10,5 -39,16 -50,32 -13,19 14,48 -15,55 -30,0 -10,-35 -27,-50 -14,-14 -48,-18 -57,-21 -1,10 -7,43 2,62 10,20 49,12 40,40 -14,26 -35,-9 -56,-2 -20,6 -41,33 -47,40 8,5 34,27 54,28 23,2 35,-36 55,-15 15,26 -25,27 -30,49 -5,19 8,50 11,59l-4 9 -2 -6c-6,-20 -16,-43 -11,-64 6,-24 41,-24 31,-43 -15,-15 -25,19 -50,17 -21,-1 -41,-18 -57,-29l-7 -4 5 -5c15,-15 29,-36 50,-42 24,-7 41,24 53,5zm39 55c-9,-4 -15,-11 -18,-19l0 0c-3,-8 -3,-17 1,-26 3,-9 10,-15 18,-18 8,-3 17,-4 26,0l-3 6c-7,-3 -14,-3 -20,0 -7,2 -13,7 -16,14 -3,8 -3,15 0,22l0 0c2,6 7,12 14,15l-2 6z"/>
    </g>
    <g>
     <path class="fil11" d="M344 877c105,-46 153,-167 107,-272 -45,-104 -166,-152 -271,-107l164 379z"/>
     <path class="fil1" d="M341 869c100,-44 146,-160 102,-260 -43,-100 -159,-146 -260,-104l9 20c44,-19 92,-18 134,-2 42,17 78,49 98,94 19,45 19,93 2,135 -16,42 -49,78 -94,98l9 19zm-146 -336c43,-18 88,-17 128,-2 40,16 74,47 93,90 18,42 18,88 2,128 -16,40 -47,74 -89,93l-134 -309z"/>
     <path class="fil11" d="M315 664c-6,-20 29,-12 40,-35 9,-19 4,-43 3,-64l-1 -7 -7 1c-19,5 -45,8 -60,22 -19,17 -1,48 -22,49 -21,-6 4,-32 -10,-52 -12,-18 -36,-26 -54,-35l-5 -3 3 9c10,5 40,16 51,32 12,19 -15,48 14,55 30,0 11,-35 27,-50 15,-14 49,-18 58,-21 0,10 6,43 -3,62 -9,20 -49,12 -40,40 15,26 36,-9 57,-2 19,6 40,33 46,40 -7,5 -33,27 -54,28 -22,2 -35,-36 -55,-15 -15,26 25,27 30,49 5,19 -8,50 -11,59l4 9 2 -6c6,-20 16,-43 11,-64 -5,-24 -41,-24 -31,-43 15,-15 26,19 51,17 21,-1 40,-18 57,-29l6 -4 -5 -5c-14,-15 -29,-36 -49,-42 -24,-7 -42,24 -53,5zm-39 55c8,-4 14,-11 17,-19l0 0c4,-8 4,-17 0,-26 -4,-9 -11,-15 -19,-18 -8,-3 -17,-4 -25,0l2 6c7,-3 14,-3 21,0 6,2 12,7 15,14 3,8 3,15 1,22l0 0c-3,6 -8,12 -15,15l3 6z"/>
    </g>
   </g>
   <path class="fil0" d="M1444 3574l0 -318 1098 0c-17,106 -48,214 -93,318l-1005 0z"/>
   <path class="fil2" d="M1568 1962c-14,13 -34,22 -55,24 5,-8 8,-18 8,-28 0,-3 -1,-7 -1,-10 20,-4 37,-15 48,-31 13,20 36,33 61,33 26,0 49,-13 62,-33 14,20 36,33 62,33 26,0 48,-13 62,-33 13,20 36,33 62,33 25,0 48,-13 61,-33 14,20 37,33 62,33 26,0 49,-13 62,-33 14,20 36,33 62,33 26,0 48,-13 62,-33 13,20 36,33 62,33 25,0 48,-13 61,-33 14,20 37,33 62,33 26,0 49,-13 62,-33 14,20 36,33 62,33 26,0 48,-13 62,-33l0 45c-16,15 -38,24 -62,24 -25,0 -47,-9 -62,-24 -15,15 -37,24 -62,24 -24,0 -46,-9 -62,-24 -15,15 -37,24 -61,24 -25,0 -47,-9 -62,-24 -16,15 -38,24 -62,24 -25,0 -47,-9 -62,-24 -15,15 -37,24 -62,24 -24,0 -46,-9 -62,-24 -15,15 -37,24 -61,24 -25,0 -47,-9 -62,-24 -16,15 -38,24 -62,24 -24,0 -46,-9 -62,-24 -15,15 -37,24 -62,24 -24,0 -46,-9 -61,-24z"/>
   <path class="fil2" d="M1204 1917l132 0 133 0c22,0 41,19 41,41l0 0c0,23 -19,41 -41,41l-133 0 -132 0c-23,0 -41,-18 -41,-41l0 0c0,-22 18,-41 41,-41zm-73 -254l411 0c22,0 41,19 41,41 0,23 -19,41 -41,41l-411 0c-23,0 -41,-18 -41,-41 0,-22 18,-41 41,-41z"/>
   <g>
    <path class="fil11" d="M2109 3154c25,-22 45,-27 75,-12 1,-7 4,-15 9,-20 22,-22 51,-1 68,18 5,-4 11,-6 17,-7 28,-4 45,26 46,51 1,9 11,28 22,27 9,0 8,-17 7,-23 -5,-24 7,-40 31,-42 41,-3 67,45 71,81 11,92 -59,141 -137,168 -6,5 -12,14 -18,20 -7,6 -16,12 -25,13 -10,1 -18,-5 -24,-13 -8,10 -19,19 -32,18 -14,-1 -24,-10 -30,-22 -27,25 -54,10 -76,-16 -1,11 -7,22 -18,26 -3,1 -6,2 -10,1 3,17 1,36 -16,43 -11,4 -22,-1 -30,-8 -4,20 -17,42 -39,42 -22,0 -34,-22 -39,-42 -8,7 -19,12 -29,8 -17,-7 -20,-26 -17,-43 -3,1 -6,0 -10,-1 -11,-4 -16,-15 -17,-26 -22,26 -50,41 -77,16 -5,12 -15,21 -29,22 -14,1 -24,-8 -33,-18 -5,8 -14,14 -23,13 -10,-1 -19,-7 -25,-13 -7,-6 -13,-15 -18,-20 -78,-27 -149,-76 -137,-168 4,-36 29,-84 71,-81 23,2 35,18 31,42 -2,6 -2,23 6,23 11,1 22,-18 22,-27 2,-25 19,-55 47,-51 6,1 12,3 16,7 17,-19 47,-40 69,-18 5,5 8,13 9,20 29,-15 50,-10 74,12 3,-6 8,-11 14,-13 4,-2 7,-2 10,-2 -3,-16 0,-36 17,-42 10,-4 21,0 29,8 5,-21 17,-42 39,-42 22,0 35,21 39,42 8,-8 19,-12 30,-8 17,6 19,26 16,42 4,0 7,0 10,2 7,2 11,7 14,13z"/>
    <path class="fil9" d="M1892 3163c-22,-21 -41,-34 -82,-9 6,-27 -25,-60 -71,-4 -17,-24 -54,-6 -56,34 -1,15 -15,35 -29,34 -14,-1 -15,-20 -13,-31 5,-25 -10,-33 -25,-34 -37,-3 -60,43 -64,75 -10,87 54,134 134,161 3,1 22,31 40,32 8,1 19,-5 22,-19 3,4 16,25 33,24 9,-1 22,-6 28,-27 22,27 50,25 81,-17 16,-32 25,-64 27,-98 1,-37 -6,-77 -25,-121zm381 95c3,-5 3,-9 1,-14 -2,-4 -6,-6 -12,-7 -3,0 -8,1 -12,3 1,-5 2,-10 2,-13 -1,-6 -3,-10 -7,-12 -4,-2 -9,-1 -14,1 -4,3 -8,7 -11,13l0 1 0 -1 0 0 0 0 0 0c-3,-6 -7,-10 -11,-13 -5,-2 -10,-3 -14,-1 -4,2 -6,6 -7,12 0,3 1,8 2,13 -4,-2 -9,-3 -13,-3 -5,1 -9,3 -11,7 -2,5 -2,9 1,14 3,4 7,8 13,11l0 0 0 1 0 0 0 0 0 0c-6,2 -10,6 -13,10 -3,5 -3,10 -1,14 2,4 6,6 11,7 4,0 9,-1 13,-2 -1,4 -2,9 -2,13 1,5 3,9 7,11 4,2 9,2 14,-1 4,-3 8,-7 11,-13l0 0 0 0 0 0 0 0 0 0 0 0 0 0 0 0c3,6 7,10 11,13 5,3 10,3 14,1 4,-2 6,-6 7,-11 0,-4 -1,-9 -2,-13 4,1 9,2 12,2 6,-1 10,-3 12,-7 2,-4 2,-9 -1,-14 -3,-4 -7,-8 -13,-10l0 0 0 0 0 0 -1 -1 1 0 0 0 0 0 0 0c6,-3 10,-7 13,-11zm-23 -93c-9,0 -17,3 -23,9 -3,3 -5,6 -7,10 -2,-4 -4,-7 -7,-10l0 0 0 0c-6,-6 -14,-9 -23,-9 -9,0 -17,3 -23,9 -6,6 -10,14 -10,23 0,4 1,8 2,11 -3,-1 -7,-1 -11,-1 -9,0 -17,3 -23,9l0 0c-6,6 -9,14 -9,23 0,9 3,18 9,23l0 0c3,3 6,5 10,7 -4,2 -7,4 -10,7 -6,6 -9,14 -9,23 0,9 3,17 9,23l0 0c6,6 14,10 23,10 4,0 8,-1 11,-2 -1,3 -2,7 -2,11 0,9 4,17 10,23l0 0c6,6 14,10 23,10 9,0 17,-4 23,-10 3,-3 5,-6 7,-10 2,4 4,7 7,10l0 0c6,6 14,10 23,10 9,0 17,-4 23,-10l0 0c6,-6 9,-14 9,-23 0,-4 0,-8 -1,-11 3,1 7,2 11,2 9,0 17,-4 23,-10 6,-6 9,-14 9,-23 0,-9 -3,-17 -9,-23l0 0 0 0c-3,-3 -6,-5 -10,-7 4,-2 7,-4 10,-7 6,-5 9,-14 9,-23 0,-9 -3,-17 -9,-23l0 0c-6,-6 -14,-9 -23,-9 -4,0 -8,0 -11,1 1,-3 1,-7 1,-11 0,-9 -3,-17 -9,-23l0 0c-6,-6 -14,-9 -23,-9zm68 134c0,7 -3,14 -8,19 -4,5 -11,8 -18,8 -7,0 -13,-3 -18,-7 0,0 -1,-1 -1,-1l0 0 -5 -6c-2,2 -3,3 -5,5l5 5c1,1 2,1 2,2 4,4 6,10 6,17 0,7 -3,14 -7,19l0 0c-5,4 -12,7 -19,7 -8,0 -14,-3 -19,-7 -5,-5 -8,-12 -8,-19l0 -8c-1,0 -2,0 -3,0 -1,0 -2,0 -3,0l0 8c0,7 -3,14 -8,19 -5,4 -12,7 -19,7 -7,0 -14,-3 -19,-7 -5,-5 -8,-12 -8,-19 0,-7 3,-13 7,-17 0,-1 1,-1 1,-2l6 -5c-2,-2 -3,-3 -5,-5l-5 6c-1,0 -1,1 -2,1 -4,4 -10,7 -17,7 -7,0 -14,-3 -19,-8 -4,-5 -7,-12 -7,-19 0,-7 3,-14 7,-19 5,-5 12,-8 19,-8l8 0c0,-1 0,-2 0,-3 0,-1 0,-2 0,-3l-8 0c-7,0 -14,-3 -19,-8 -4,-5 -7,-11 -7,-19 0,-7 3,-14 7,-19l0 0c5,-4 12,-7 19,-7 7,0 13,2 17,6 1,0 1,1 2,2l5 5c2,-2 3,-3 5,-5l-6 -5 0 0c0,0 -1,-1 -1,-1 -4,-5 -7,-11 -7,-18 0,-7 3,-14 8,-18 5,-5 12,-8 19,-8 7,0 14,3 19,8l0 0c5,4 8,11 8,18l0 8c1,0 2,0 3,0 1,0 2,0 3,0l0 -8c0,-7 3,-14 8,-18 5,-5 11,-8 19,-8 7,0 14,3 19,8l0 0c4,4 7,11 7,18 0,7 -2,13 -6,18 0,0 -1,1 -2,1l0 0 -5 6c2,1 3,2 5,4l5 -5 0 0c0,-1 1,-2 2,-2 4,-4 10,-6 17,-6 7,0 14,3 18,7l0 0c5,5 8,12 8,19 0,8 -3,14 -8,19 -4,5 -11,8 -18,8l-8 0c0,1 0,2 0,3 0,1 0,2 0,3l8 0c7,0 14,3 18,8l0 0c5,5 8,12 8,19zm99 -27c-13,-2 -23,-6 -32,-10 -8,-5 -14,-11 -21,-19l-4 -5 -2 7c-4,26 -12,46 -22,63 -11,21 -26,40 -36,54 25,-8 46,-16 67,-31 18,-13 36,-30 52,-53l3 -5 -5 -1zm-17 -90c-8,0 -16,3 -21,9l0 0c-6,5 -9,13 -9,21 0,9 3,17 9,22 5,6 13,9 21,9 9,0 16,-3 22,-9l0 0c5,-6 9,-13 9,-22 0,-8 -4,-16 -9,-21 -6,-6 -13,-9 -22,-9zm-400 143c-10,0 -20,-4 -27,-10 8,15 15,28 20,40 3,7 6,13 7,19 2,-6 4,-12 7,-19 5,-12 12,-25 21,-40 -8,6 -17,10 -28,10zm-27 -78c7,-6 17,-10 27,-10 11,0 20,4 28,10 -9,-15 -16,-29 -21,-41 -3,-6 -5,-13 -7,-18 -1,5 -4,12 -7,18 -5,12 -12,26 -20,41zm-245 11c-3,-5 -4,-9 -2,-14 2,-4 7,-6 12,-7 4,0 9,1 13,3 -2,-5 -2,-10 -2,-13 1,-6 3,-10 7,-12 4,-2 9,-1 14,1 4,3 8,7 10,13l1 1 0 -1 0 0 0 0 0 0c3,-6 7,-10 11,-13 4,-2 9,-3 13,-1 4,2 7,6 7,12 1,3 0,8 -2,13 5,-2 9,-3 13,-3 6,1 10,3 12,7 2,5 1,9 -2,14 -2,4 -7,8 -12,11l-1 0 1 1 0 0 0 0 0 0c5,2 10,6 12,10 3,5 4,10 2,14 -2,4 -6,6 -12,7 -4,0 -8,-1 -13,-2 2,4 3,9 2,13 0,5 -3,9 -7,11 -4,2 -9,2 -13,-1 -4,-3 -8,-7 -11,-13l0 0 0 0 0 0 0 0 -1 0 0 0 0 0 0 0c-2,6 -6,10 -10,13 -5,3 -10,3 -14,1 -4,-2 -6,-6 -7,-11 0,-4 0,-9 2,-13 -4,1 -9,2 -13,2 -5,-1 -10,-3 -12,-7 -2,-4 -1,-9 2,-14 3,-4 7,-8 12,-10l0 0 0 0 0 0 1 -1 -1 0 0 0 0 0 0 0c-5,-3 -9,-7 -12,-11zm23 -93c9,0 17,3 23,9 3,3 5,6 7,10 1,-4 4,-7 6,-10l0 0 0 0c6,-6 14,-9 24,-9 9,0 17,3 23,9 6,6 9,14 9,23 0,4 0,8 -2,11 4,-1 7,-1 11,-1 9,0 18,3 23,9l0 0c6,6 10,14 10,23 0,9 -4,18 -10,23l0 0c-2,3 -6,5 -9,7 3,2 7,4 9,7 6,6 10,14 10,23 0,9 -4,17 -10,23l0 0c-5,6 -14,10 -23,10 -4,0 -7,-1 -11,-2 2,3 2,7 2,11 0,9 -3,17 -9,23l0 0c-6,6 -14,10 -23,10 -10,0 -18,-4 -24,-10 -2,-3 -5,-6 -6,-10 -2,4 -4,7 -7,10l0 0c-6,6 -14,10 -23,10 -9,0 -17,-4 -23,-10l0 0c-6,-6 -10,-14 -10,-23 0,-4 1,-8 2,-11 -3,1 -7,2 -11,2 -9,0 -17,-4 -23,-10 -6,-6 -10,-14 -10,-23 0,-9 4,-17 10,-23l0 0 0 0c3,-3 6,-5 10,-7 -4,-2 -7,-4 -10,-7 -6,-5 -10,-14 -10,-23 0,-9 4,-17 10,-23l0 0c6,-6 14,-9 23,-9 4,0 8,0 11,1 -1,-3 -2,-7 -2,-11 0,-9 4,-17 10,-23l0 0c6,-6 14,-9 23,-9zm-69 134c0,7 3,14 8,19 5,5 12,8 19,8 7,0 13,-3 17,-7 1,0 1,-1 2,-1l0 0 5 -6c1,2 3,3 4,5l-5 5c0,1 -1,1 -2,2 -3,4 -6,10 -6,17 0,7 3,14 8,19l0 0c5,4 12,7 19,7 7,0 14,-3 19,-7 5,-5 7,-12 7,-19l0 -8c2,0 3,0 4,0 1,0 2,0 3,0l0 8c0,7 3,14 8,19 4,4 11,7 19,7 7,0 14,-3 18,-7 5,-5 8,-12 8,-19 0,-7 -2,-13 -6,-17 -1,-1 -1,-1 -2,-2l-5 -5c1,-2 3,-3 4,-5l6 6c0,0 1,1 1,1 5,4 11,7 17,7 8,0 14,-3 19,-8 5,-5 8,-12 8,-19 0,-7 -3,-14 -8,-19 -5,-5 -11,-8 -19,-8l-7 0c0,-1 0,-2 0,-3 0,-1 0,-2 0,-3l7 0c8,0 14,-3 19,-8 5,-5 8,-11 8,-19 0,-7 -3,-14 -8,-19l0 0c-5,-4 -11,-7 -19,-7 -6,0 -12,2 -17,6 0,0 -1,1 -1,2l-6 5c-1,-2 -3,-3 -4,-5l5 -5 0 0c1,0 1,-1 2,-1 4,-5 6,-11 6,-18 0,-7 -3,-14 -8,-18 -4,-5 -11,-8 -18,-8 -8,0 -15,3 -19,8l0 0c-5,4 -8,11 -8,18l0 8c-1,0 -2,0 -3,0 -1,0 -2,0 -4,0l0 -8c0,-7 -2,-14 -7,-18 -5,-5 -12,-8 -19,-8 -7,0 -14,3 -19,8l0 0c-5,4 -8,11 -8,18 0,7 3,13 6,18 1,0 2,1 2,1l0 0 5 6c-1,1 -3,2 -4,4l-5 -5 0 0c-1,-1 -1,-2 -2,-2 -5,-4 -10,-6 -17,-6 -7,0 -14,3 -19,7l0 0c-5,5 -8,12 -8,19 0,8 3,14 8,19 5,5 12,8 19,8l7 0c0,1 0,2 0,3 0,1 0,2 0,3l-7 0c-7,0 -14,3 -19,8l0 0c-5,5 -8,12 -8,19zm-98 -27c13,-2 23,-6 31,-10 8,-5 15,-11 21,-19l5 -5 1 7c5,26 13,46 22,63 11,21 27,40 36,54 -24,-8 -45,-16 -66,-31 -19,-13 -36,-30 -52,-53l-3 -5 5 -1zm16 -90c9,0 16,3 22,9l0 0c5,5 9,13 9,21 0,9 -4,17 -9,22 -6,6 -13,9 -22,9 -8,0 -16,-3 -21,-9l0 0c-6,-6 -9,-13 -9,-22 0,-8 3,-16 9,-21 5,-6 13,-9 21,-9zm509 -19c22,-21 41,-34 82,-9 -7,-27 25,-60 70,-4 18,-24 54,-6 57,34 0,15 15,35 29,34 14,-1 15,-20 13,-31 -5,-25 10,-33 24,-34 38,-3 60,43 64,75 11,87 -54,134 -133,161 -3,1 -23,31 -40,32 -8,1 -19,-5 -22,-19 -3,4 -17,25 -33,24 -9,-1 -22,-6 -28,-27 -23,27 -50,25 -81,-17 -16,-32 -25,-64 -27,-98 -2,-37 6,-77 25,-121zm-215 225c0,12 4,23 14,27 5,2 12,1 18,-3 -1,1 -1,2 -2,4 -7,18 -3,38 10,42 11,4 24,-4 32,-18l0 1c0,28 16,51 34,51 19,0 34,-23 34,-51l0 -1c8,14 22,22 33,18 12,-4 17,-24 9,-42 0,-2 -1,-3 -1,-4 6,4 12,5 18,3 9,-4 14,-15 13,-27 -13,-25 -22,-51 -26,-78l-35 0c2,5 4,10 6,16 9,27 20,59 11,84 -4,13 -12,20 -20,24 -6,2 -11,3 -17,2 -5,-1 -10,-3 -14,-7 -5,-4 -8,-9 -11,-15 -2,6 -6,11 -10,15 -4,4 -9,6 -15,7 -5,1 -11,0 -16,-2 -9,-4 -17,-11 -21,-24 -8,-25 3,-57 12,-84 2,-6 4,-11 5,-16l-34 0c-5,27 -14,53 -27,78zm149 -85l0 -3 -1 -5c1,-4 2,-9 2,-14 0,-5 -1,-10 -2,-15l1 -5 0 -3 34 0c0,9 0,18 0,26 1,7 1,13 2,19l-36 0zm-86 0l1 -3 1 -5c-2,-4 -3,-9 -3,-14 0,-5 1,-10 3,-15l-1 -5 -1 -3 -34 0c1,9 1,18 0,26 0,7 -1,13 -1,19l35 0zm-2 -51c-1,-5 -3,-11 -5,-16 -9,-27 -20,-60 -12,-85 4,-12 12,-20 21,-24 5,-2 11,-2 16,-2 6,1 11,4 15,7 4,4 8,9 10,16 3,-7 6,-12 11,-16 4,-3 9,-6 14,-7 6,0 11,0 17,2 8,4 16,12 20,24 9,25 -2,58 -11,85 -2,5 -4,11 -6,16l33 0c3,-30 11,-61 26,-94 -2,-5 -6,-9 -11,-11 -6,-2 -12,-1 -18,2 0,-1 1,-2 1,-3 8,-19 3,-38 -9,-43 -11,-4 -25,4 -33,19l0 -2c0,-28 -15,-50 -34,-50 -18,0 -34,22 -34,50l0 2c-8,-15 -21,-23 -32,-19 -13,5 -17,24 -10,43 1,1 1,2 2,3 -6,-3 -13,-4 -18,-2 -5,2 -9,6 -11,11 15,33 23,64 26,94l32 0z"/>
    <path class="fil1" d="M2000 3272c-2,0 -4,1 -6,2l0 0c-2,2 -3,4 -3,7 0,2 1,5 3,6l0 0c2,2 4,3 6,3 3,0 5,-1 7,-3l0 0c1,-1 2,-4 2,-6 0,-3 -1,-5 -2,-7l0 0c-2,-1 -4,-2 -7,-2zm207 -16c3,-3 8,-5 13,-5 5,0 10,2 13,5l0 0c3,4 5,8 5,13 0,5 -2,10 -5,13 -3,3 -8,5 -13,5 -5,0 -10,-2 -13,-5 -3,-3 -5,-8 -5,-13 0,-5 2,-9 5,-13l0 0zm-1 -6c-4,-2 -6,-6 -9,-10l0 0c-2,-5 -3,-9 -2,-13 0,-3 1,-6 3,-7 2,-1 5,0 7,2 4,2 7,5 9,10l0 0c2,4 3,9 3,12l0 1c-4,1 -8,2 -11,5zm17 -5l0 -1c0,0 0,0 0,-1l0 0 0 0 0 0 0 0c0,-4 1,-7 3,-11 2,-5 5,-8 8,-10 3,-2 6,-3 8,-2 2,1 3,4 3,7 1,4 0,8 -3,13 -2,4 -5,8 -8,10 -3,-3 -7,-4 -11,-5zm16 10c2,-3 6,-6 10,-8l0 0c5,-3 9,-4 13,-3 3,0 6,1 7,3 1,2 0,5 -2,8 -2,3 -5,6 -10,8l0 0c-3,2 -7,3 -11,3l0 0 0 0 0 0 0 0c-1,0 -1,0 -1,0l-1 0c-1,-4 -2,-8 -5,-11zm5 17l1 0c0,0 0,0 1,0l0 0 0 0 0 0 0 0c4,0 8,1 11,3l0 0c5,2 8,5 10,9 2,2 3,5 2,7 -1,2 -4,3 -7,4 -4,0 -8,-1 -13,-3l0 0c-4,-2 -8,-5 -10,-8 3,-4 4,-7 5,-12zm-10 17c3,2 6,5 8,9l0 0c3,5 4,9 3,13 0,3 -1,6 -3,7 -2,1 -5,0 -8,-1 -3,-2 -6,-6 -8,-10l0 0c-2,-4 -3,-8 -3,-12l0 0 0 0 0 0 0 0c0,0 0,-1 0,-1l0 -1c4,0 8,-2 11,-4zm-17 4l0 1c0,0 0,1 0,1l0 0 0 0 0 0 0 0c0,4 -1,8 -3,12l0 0c-2,4 -5,8 -9,10 -2,1 -5,2 -7,1 -2,-1 -3,-4 -3,-7 -1,-4 0,-8 2,-13l0 0c3,-4 5,-7 8,-9 4,2 8,4 12,4zm-46 -2c-1,-2 0,-5 2,-7 2,-4 5,-7 9,-9l0 0c5,-2 10,-3 13,-3l1 0c0,5 2,8 4,12 -2,3 -5,6 -9,8l0 0c-5,2 -9,3 -13,3 -3,-1 -6,-2 -7,-4zm25 -25l-1 0c0,0 -1,0 -1,0l0 0 0 0 0 0 0 0c-4,0 -8,-1 -12,-3 -4,-2 -7,-5 -9,-8 -2,-3 -3,-6 -2,-8 1,-2 4,-3 7,-3 4,-1 8,0 13,3 4,2 7,5 9,8 -2,3 -4,7 -4,11zm187 -70c5,-5 11,-7 17,-7 7,0 13,2 17,7 4,4 7,10 7,16 0,7 -3,13 -7,17l0 0c-4,5 -10,7 -17,7 -6,0 -12,-2 -17,-7 -4,-4 -7,-10 -7,-17 0,-6 3,-12 7,-16l0 0zm-1 71c8,5 17,8 29,11 -15,21 -31,36 -48,48 -15,10 -30,18 -46,23 9,-11 18,-23 25,-37 9,-17 17,-36 22,-59 5,6 11,11 18,14zm-338 61c-2,-7 -4,-13 -6,-18 -10,18 -19,34 -25,48 -6,15 -10,27 -9,38 0,13 5,23 11,28 3,3 7,5 11,6 5,0 9,0 13,-2 7,-3 14,-10 17,-20 8,-23 -3,-54 -12,-80zm0 -94c-2,6 -4,12 -6,18 -10,-19 -19,-35 -25,-48 -6,-15 -10,-28 -9,-38 0,-14 5,-23 11,-29 3,-3 7,-4 11,-5 5,-1 9,0 13,2 7,3 14,9 17,19 8,23 -3,55 -12,81zm-427 -38c-4,-5 -10,-7 -17,-7 -6,0 -12,2 -17,7 -4,4 -7,10 -7,16 0,7 3,13 7,17l0 0c5,5 11,7 17,7 7,0 13,-2 17,-7 5,-4 7,-10 7,-17 0,-6 -2,-12 -7,-16l0 0zm1 71c-7,5 -16,8 -28,11 15,21 31,36 48,48 15,10 30,18 46,23 -9,-11 -18,-23 -26,-37 -9,-17 -16,-36 -21,-59 -6,6 -12,11 -19,14zm176 -11c-4,-3 -8,-5 -13,-5 -5,0 -10,2 -13,5l0 0c-3,4 -5,8 -5,13 0,5 2,10 5,13 3,3 8,5 13,5 5,0 9,-2 13,-5 3,-3 5,-8 5,-13 0,-5 -2,-9 -5,-13l0 0zm1 -6c3,-2 6,-6 8,-10l0 0c2,-5 3,-9 3,-13 0,-3 -1,-6 -3,-7 -2,-1 -5,0 -8,2 -3,2 -6,5 -8,10l0 0c-3,4 -3,9 -3,12l0 1c4,1 8,2 11,5zm-18 -5l0 -1c0,0 1,0 1,-1l0 0 0 0 0 0 0 0c0,-4 -1,-7 -3,-11 -3,-5 -6,-8 -9,-10 -3,-2 -5,-3 -7,-2 -2,1 -3,4 -4,7 0,4 1,8 3,13 2,4 5,8 8,10 3,-3 7,-4 11,-5zm-16 10c-2,-3 -5,-6 -10,-8l0 0c-4,-3 -9,-4 -12,-3 -4,0 -6,1 -7,3 -1,2 0,5 1,8 2,3 6,6 10,8l0 0c4,2 8,3 11,3l0 0 1 0 0 0 0 0c0,0 1,0 1,0l1 0c0,-4 2,-8 4,-11zm-4 17l-1 0c0,0 -1,0 -1,0l0 0 0 0 -1 0 0 0c-3,0 -7,1 -11,3l0 0c-4,2 -8,5 -10,9 -1,2 -2,5 -1,7 1,2 3,3 7,4 3,0 8,-1 12,-3l0 0c5,-2 8,-5 10,-8 -2,-4 -4,-7 -4,-12zm9 17c-3,2 -6,5 -8,9l0 0c-2,5 -3,9 -3,13 1,3 2,6 4,7 2,1 4,0 7,-1 3,-2 6,-6 9,-10l0 0c2,-4 3,-8 3,-12l0 0 0 0 0 0 0 0c0,0 -1,-1 -1,-1l0 -1c-4,0 -8,-2 -11,-4zm18 4l0 1c0,0 0,1 0,1l0 0 0 0 0 0 0 0c0,4 1,8 3,12l0 0c2,4 5,8 8,10 3,1 6,2 8,1 2,-1 3,-4 3,-7 0,-4 -1,-8 -3,-13l0 0c-2,-4 -5,-7 -8,-9 -3,2 -7,4 -11,4zm45 -2c1,-2 1,-5 -1,-7 -2,-4 -5,-7 -10,-9l0 0c-4,-2 -9,-3 -13,-3l0 0c-1,5 -2,8 -5,12 2,3 6,6 10,8l0 0c4,2 9,3 13,3 3,-1 5,-2 6,-4zm-24 -25l0 0c1,0 1,0 2,0l0 0 0 0 0 0 0 0c3,0 7,-1 11,-3 5,-2 8,-5 10,-8 2,-3 2,-6 1,-8 -1,-2 -3,-3 -6,-3 -4,-1 -9,0 -13,3 -4,2 -8,5 -10,8 3,3 4,7 5,11zm151 62c2,-7 4,-13 6,-18 11,18 19,34 25,48 7,15 10,27 10,38 0,13 -5,23 -11,28 -4,3 -8,5 -12,6 -4,0 -8,0 -12,-2 -8,-3 -14,-10 -17,-20 -8,-23 2,-54 11,-80zm0 -94c2,6 4,12 6,18 11,-19 19,-35 25,-48 7,-15 10,-28 10,-38 0,-14 -5,-23 -11,-29 -4,-3 -8,-4 -12,-5 -4,-1 -8,0 -12,2 -8,3 -14,9 -17,19 -8,23 2,55 11,81zm44 62c-4,0 -8,-1 -11,-4l0 0c-3,-3 -4,-7 -4,-11 0,-5 1,-8 4,-11l0 0c3,-3 7,-5 11,-5 5,0 9,2 11,5l0 0c3,3 5,6 5,11 0,4 -2,8 -5,11l0 0c-2,3 -6,4 -11,4zm0 -52c-10,0 -19,4 -26,10 -7,7 -11,17 -11,27 0,10 4,19 11,26l0 0c7,7 16,11 26,11 11,0 20,-4 27,-11l0 0c6,-7 10,-16 10,-26 0,-10 -4,-20 -10,-27 -7,-6 -16,-10 -27,-10z"/>
   </g>
  </g>
 </g>
</svg>
