<?xml version="1.0" encoding="UTF-8"?>
<!DOCTYPE svg PUBLIC "-//W3C//DTD SVG 1.1//EN" "http://www.w3.org/Graphics/SVG/1.1/DTD/svg11.dtd">
<!-- Creator: CorelDRAW X7 -->
<svg xmlns="http://www.w3.org/2000/svg" xml:space="preserve" width="4.92913in" height="4.92913in" version="1.1" style="shape-rendering:geometricPrecision; text-rendering:geometricPrecision; image-rendering:optimizeQuality; fill-rule:evenodd; clip-rule:evenodd"
viewBox="0 0 4929 4929"
 xmlns:xlink="http://www.w3.org/1999/xlink">
 <defs>
  <style type="text/css">
   <![CDATA[
    .fil1 {fill:#050D81}
    .fil2 {fill:#1D1E21}
    .fil0 {fill:#F8A609}
    .fil3 {fill:#F92806}
    .fil4 {fill:#F4EBE8;fill-rule:nonzero}
   ]]>
  </style>
 </defs>
 <g id="Layer_x0020_1">
  <metadata id="CorelCorpID_0Corel-Layer"/>
  <g id="_787648016">
   <path class="fil0" d="M1896 123l569 1186 568 -1186c-182,-44 -373,-68 -568,-68 -196,0 -387,24 -569,68z"/>
   <path class="fil1" d="M4048 2803l327 83c-270,256 5,402 102,276 -100,44 -113,-128 13,-100 63,14 72,91 57,145 -28,98 -133,115 -222,110 -266,-17 -313,-366 -277,-514zm-2342 1047c15,147 -3,282 -28,414 75,-102 150,-203 226,-305 -71,-39 -127,-70 -198,-109zm-593 -40l0 0c19,-22 35,-46 48,-69 39,-74 69,-154 91,-237l172 159 -311 147zm-29 -559l-126 -224c-5,29 -13,57 -21,83 -23,72 -60,140 -115,192 -6,6 -12,11 -19,17l281 -68zm1381 822c-36,0 -66,-9 -94,-21 64,296 -74,488 -331,620 162,70 395,81 425,81 29,0 262,-11 424,-81 -257,-132 -395,-324 -331,-620 -28,12 -58,21 -93,21zm-232 -125l-365 166c214,52 235,209 160,301 -65,78 -180,119 -238,38 100,43 106,-132 -20,-104 -52,11 -78,95 -50,147 27,51 76,77 132,84 307,35 503,-328 381,-632zm-626 -250l-368 191c427,16 175,486 11,365 109,11 60,-158 -51,-92 -45,26 -44,114 -2,155 106,103 299,3 363,-118 53,-100 100,-278 47,-501zm-400 -357l-370 74c309,135 96,457 -39,356 109,11 60,-158 -51,-93 -46,27 -45,119 -3,160 106,103 284,-12 348,-133 53,-100 95,-227 115,-364zm-325 -538l-328 83c270,256 -5,402 -102,276 100,44 113,-128 -13,-100 -63,14 -72,91 -57,145 28,98 133,115 222,110 266,-17 313,-366 278,-514zm2341 1047c-15,147 3,282 28,414 -75,-102 -150,-203 -226,-305 71,-39 127,-70 198,-109zm593 -40l0 0c-19,-22 -35,-46 -48,-69 -39,-74 -69,-154 -91,-237l-172 159 311 147zm29 -559l126 -224c6,29 13,57 21,83 23,72 60,140 115,192 6,6 12,11 19,17l-281 -68zm-1149 697l365 166c-214,52 -235,209 -160,301 65,78 180,119 238,38 -100,43 -106,-132 20,-104 52,11 78,95 51,147 -27,51 -77,77 -133,84 -307,35 -502,-328 -381,-632zm626 -250l368 191c-427,16 -175,486 -11,365 -109,11 -60,-158 51,-92 46,26 44,114 2,155 -106,103 -299,3 -363,-118 -52,-100 -100,-278 -47,-501zm400 -357l370 74c-309,135 -96,457 39,356 -109,11 -60,-158 51,-93 46,27 45,119 3,160 -106,103 -284,-12 -348,-133 -53,-100 -95,-227 -115,-364z"/>
   <g>
    <path class="fil2" d="M2465 3194l124 -212 832 -22c53,-7 99,-23 138,-60 57,-53 96,-148 130,-217 30,-60 67,-145 43,-213 -12,-34 -42,-62 -73,-29 -22,23 -40,76 -55,106 -14,34 -31,73 -65,91 -21,11 -44,12 -68,12 -60,0 -121,0 -181,0 -29,0 -61,4 -83,-18 -19,-18 -19,-42 -19,-66 0,-15 -1,-26 5,-41 11,-23 32,-33 56,-38 8,-1 18,-3 24,-9 5,-4 10,-10 14,-15 8,-12 16,-23 25,-35 21,-26 44,-50 80,-53 19,-1 19,2 38,-10 0,-1 2,-2 3,-2 2,-5 6,-27 7,-33 9,-33 17,-66 29,-98 22,-59 58,-77 119,-89 55,-10 101,-31 158,-10 43,16 105,92 134,129 20,25 39,51 58,77 13,18 26,37 38,56 69,115 52,213 7,332 -97,252 -245,483 -435,674 -632,632 -1535,632 -2166,0 -191,-191 -339,-422 -436,-674 -45,-119 -62,-217 7,-332 12,-19 25,-38 38,-56 19,-26 38,-52 58,-77 30,-37 91,-113 134,-129 57,-21 103,0 158,10 61,12 97,30 119,89 12,32 20,65 29,98 1,6 5,28 8,33 0,0 2,1 3,2 18,12 18,9 37,10 36,3 59,27 80,53 9,12 17,23 26,35 3,5 8,11 13,15 6,6 16,8 24,9 24,5 45,15 56,38 6,15 5,26 5,41 0,24 0,48 -18,66 -23,22 -55,18 -84,18 -60,0 -121,0 -181,0 -24,0 -46,-1 -68,-12 -34,-18 -51,-57 -65,-91 -14,-30 -33,-83 -55,-106 -30,-33 -61,-5 -73,29 -24,68 13,153 43,213 34,69 73,164 130,217 39,37 85,53 138,60 269,6 539,15 808,21l25 1 124 212z"/>
    <path class="fil3" d="M2465 3281l-150 -256c-292,-7 -518,-14 -810,-21 -183,-21 -228,-146 -305,-301 -36,-73 -73,-166 -45,-248 24,-69 95,-100 147,-44 27,28 43,76 63,118 31,71 41,76 93,76 63,0 115,0 181,0 56,0 58,5 58,-39 0,-19 4,-30 -25,-35 -51,-10 -54,-30 -90,-75 -50,-64 -48,-16 -106,-54 -25,-16 -23,-33 -30,-61 -8,-32 -16,-63 -28,-93 -13,-36 -28,-51 -85,-61 -47,-9 -91,-29 -134,-13 -49,19 -180,198 -208,244 -61,102 -44,187 -3,293 84,220 219,452 425,658 605,606 1498,606 2103,0 206,-206 342,-438 425,-658 41,-106 59,-191 -3,-293 -27,-46 -159,-225 -208,-244 -43,-16 -87,4 -134,13 -57,10 -72,25 -85,61 -12,30 -20,61 -28,93 -7,28 -5,45 -30,61 -58,38 -55,-10 -106,54 -36,45 -39,65 -90,75 -29,5 -25,16 -25,35 0,44 2,39 58,39 66,0 118,0 181,0 52,0 62,-5 93,-76 20,-42 36,-90 63,-118 52,-56 123,-25 147,44 28,82 -9,175 -45,248 -77,155 -122,280 -304,301l-811 21 -149 256zm929 -793c15,0 27,12 27,26 0,15 -12,27 -27,27 -15,0 -27,-12 -27,-27 0,-14 12,-26 27,-26zm-1859 0c-15,0 -27,12 -27,26 0,15 12,27 27,27 15,0 27,-12 27,-27 0,-14 -12,-26 -27,-26z"/>
   </g>
   <polygon class="fil4" points="3313,3225 2679,3247 2465,3563 2250,3247 1616,3225 1619,3159 2261,3190 2465,3491 2668,3190 3310,3159 "/>
   <path class="fil1" d="M4925 2465c0,1359 -1101,2460 -2460,2460 -1359,0 -2461,-1101 -2461,-2460l131 0c0,1286 1043,2330 2330,2330 1286,0 2330,-1044 2330,-2330l130 0z"/>
   <path class="fil2" d="M2197 1611c1,-2 8,-11 10,-13 37,-25 28,35 47,49 26,21 -1,41 -17,42 -19,2 -30,29 -28,38 0,52 0,104 0,155 0,6 0,11 0,17 0,60 -67,50 -95,33 -5,74 128,98 143,-3 0,-21 -8,-70 20,-56 18,9 19,59 1,83 -38,53 -77,105 -115,158 -13,14 -71,38 -113,31 -51,-8 -39,-71 -82,-72 -47,-1 -75,30 -77,49 39,-16 77,-2 50,22 -16,7 -52,17 -53,64 33,-29 87,-36 76,18 -4,18 13,41 51,45 43,5 -71,-92 97,-79 48,3 106,8 117,31 14,30 25,31 34,31 26,1 12,-80 -10,-84 -45,-7 -90,-3 -42,-63 29,-36 58,-72 87,-108 44,-45 81,-16 93,22 8,24 11,53 -3,60 -23,12 -16,50 -24,64 -6,11 -25,13 -28,17 -18,24 30,19 40,18 23,-1 25,25 7,33 -20,9 3,22 -5,30 -25,28 -63,60 -90,86 -19,19 -43,-8 -64,-6 -54,4 6,45 7,45 29,-2 25,28 16,43 -13,23 -2,47 8,56 18,15 32,42 32,-7 0,-38 -10,-58 8,-79 35,-34 71,-68 107,-102 12,-11 27,-11 30,6 5,23 -13,65 -33,91 -14,19 -33,33 -18,38 5,2 42,7 26,21 -14,12 -17,25 -26,34 -28,31 -21,43 -39,71 -13,20 -1,50 13,52 27,-6 1,-26 30,-38 10,-4 25,-20 33,-14 14,10 19,49 15,58 -10,44 19,77 32,88 12,-11 41,-44 31,-88 -4,-9 1,-48 15,-58 9,-6 23,10 33,14 29,12 3,32 31,38 13,-2 25,-32 13,-52 -19,-28 -12,-40 -40,-71 -8,-9 -12,-22 -26,-34 -16,-14 21,-19 26,-21 15,-5 -4,-19 -18,-38 -19,-26 -38,-68 -33,-91 3,-17 18,-17 30,-6 36,34 72,68 108,102 17,21 7,41 7,79 0,49 15,22 32,7 10,-9 22,-33 8,-56 -9,-15 -13,-45 16,-43 1,0 61,-41 7,-45 -21,-2 -45,25 -64,6 -27,-26 -65,-58 -90,-86 -7,-8 15,-21 -5,-30 -18,-8 -15,-34 7,-33 10,1 58,6 40,-18 -2,-4 -22,-6 -28,-17 -8,-14 -1,-52 -24,-64 -14,-7 -11,-36 -3,-60 12,-38 49,-67 93,-22 29,36 58,72 87,108 48,60 3,56 -41,63 -22,4 -37,85 -11,84 9,0 20,-1 34,-31 11,-23 69,-28 118,-31 167,-13 53,84 96,79 38,-4 55,-27 51,-45 -11,-54 43,-47 76,-18 -1,-47 -37,-57 -53,-64 -27,-24 11,-38 50,-22 -2,-19 -30,-50 -77,-49 -43,1 -31,64 -81,72 -43,7 -101,-17 -114,-31 -38,-53 -77,-105 -115,-158 -18,-24 -17,-74 1,-83 28,-14 21,35 21,56 14,101 147,77 142,3 -28,17 -95,27 -95,-33 0,-6 0,-11 0,-17 0,-51 0,-103 0,-155 2,-9 -9,-36 -28,-38 -15,-1 -43,-21 -16,-42 18,-14 10,-74 47,-49 1,2 8,11 9,13 -2,-4 1,-65 0,-72 -2,-10 1,-57 -20,-39 -7,6 -3,22 -2,36 4,32 -26,42 -27,0 -1,-17 0,-37 1,-42 1,-15 14,-25 29,-25 9,0 24,7 35,10 6,54 22,135 43,177 -4,-42 -5,-112 -5,-160 4,2 10,3 14,3 4,50 14,114 36,157 -4,-46 -3,-120 -2,-171 18,-5 14,-31 44,-25 15,3 40,-3 43,-18 1,-10 4,-21 7,-31 3,-7 7,-18 15,-19 16,-4 15,12 16,17 5,54 -72,81 -89,95 3,44 -3,289 93,320 -31,-54 -49,-187 -43,-306 17,-7 24,-15 38,-28 5,236 49,421 132,448 -48,-113 -63,-257 -63,-429 -1,-31 29,-35 30,-10 8,140 12,249 69,297 -30,-74 -35,-169 -34,-300 5,-39 15,-73 -15,-80 -22,-4 -38,-44 -42,-65 -5,-23 19,-13 24,-3 22,43 56,37 16,-7 -14,-16 7,-18 -16,-26 -59,-19 -35,-16 -70,-37 -13,-8 -32,-2 -26,-33 2,-10 37,-4 61,13 45,30 11,-19 63,-17 7,0 64,-17 65,-21 2,-17 -1,-51 5,-64 4,-10 -9,-40 -24,13 -5,19 -55,13 -37,-38 12,-35 -23,-46 -36,-52 -39,-17 -23,7 -53,28 -20,14 -81,-49 18,-69 25,-5 40,9 58,23 12,9 112,80 120,95 8,13 13,36 26,77 4,11 16,93 20,141 5,75 -38,32 -38,-32 0,-15 9,-85 -6,-89 -29,-8 -37,26 -71,23 -15,-1 -64,35 -11,27 28,-5 55,-22 55,35 0,29 -33,19 -32,48 2,63 -30,82 -28,138 9,227 69,442 150,509 -72,-132 -103,-362 -104,-597 0,-49 30,-42 29,-5 -4,244 36,442 108,552 -51,-132 -64,-313 -69,-495 -3,-80 52,-4 42,-116 -6,-66 -19,-156 -42,-218 -15,-40 -91,-82 -106,-92 -12,-9 -66,-44 -72,-47 -31,-11 -41,1 -60,7 -28,9 -48,36 -67,52 -17,15 5,65 14,79 15,39 -19,91 -42,91 -29,0 -31,-9 -48,-7 -69,9 -6,35 -87,31 -28,-9 -80,-45 -73,-79 3,-17 1,-33 36,-28 -4,-37 -44,-49 -33,-77 7,-16 23,-12 54,10 0,-28 -27,-47 -19,-87 10,-47 51,-37 91,-37 23,0 55,-17 44,-47 7,0 14,2 21,7 21,13 41,23 62,24 21,0 42,-9 61,-32 4,-3 3,-9 -1,-12 -3,-3 -9,-3 -12,1 -16,18 -32,25 -48,25 -16,-1 -34,-9 -52,-21 -13,-8 -25,-10 -36,-10 -1,-8 1,-15 7,-21 22,-21 75,-22 75,16 28,-24 13,-61 -5,-71 -15,-8 -43,-10 -68,-1 -17,0 -21,-30 -54,-31 -119,-7 -108,70 -229,10 -4,33 40,55 40,81 0,43 -50,15 -24,67 14,35 -55,24 -84,74 17,-3 24,-5 43,-2 24,9 9,37 -17,57 -17,14 -34,12 -41,14 -13,5 -2,19 -2,37 0,27 -9,31 -35,67 -27,-36 -36,-40 -36,-67 0,-18 11,-32 -2,-37 -7,-2 -24,0 -41,-14 -26,-20 -41,-48 -17,-57 19,-3 26,-1 43,2 -29,-50 -98,-39 -84,-74 26,-52 -24,-24 -24,-67 0,-26 44,-48 40,-81 -121,60 -110,-17 -229,-10 -33,1 -37,31 -54,31 -25,-9 -53,-7 -68,1 -18,10 -33,47 -4,71 0,-38 53,-37 75,-16 5,6 7,13 6,21 -11,0 -23,2 -36,10 -18,12 -36,20 -52,21 -16,0 -32,-7 -48,-25 -3,-4 -9,-4 -12,-1 -4,3 -4,9 -1,12 19,23 40,32 61,32 21,-1 41,-11 62,-24 7,-5 14,-7 21,-7 -11,30 21,47 44,47 40,0 82,-10 91,37 8,40 -19,59 -19,87 31,-22 47,-26 54,-10 11,28 -29,40 -33,77 35,-5 33,11 36,28 7,34 -45,70 -73,79 -81,4 -18,-22 -87,-31 -17,-2 -19,7 -48,7 -23,0 -57,-52 -42,-91 9,-14 31,-64 14,-79 -19,-16 -39,-43 -67,-52 -19,-6 -29,-18 -59,-7 -7,3 -61,38 -73,47 -15,10 -91,52 -106,92 -23,62 -36,152 -42,218 -10,112 45,36 42,116 -5,182 -18,363 -69,495 72,-110 113,-308 108,-552 -1,-37 29,-44 29,5 -1,235 -32,465 -104,597 81,-67 141,-282 150,-509 2,-56 -30,-75 -28,-138 2,-29 -32,-19 -32,-48 0,-57 27,-40 55,-35 53,8 4,-28 -11,-27 -33,3 -42,-31 -71,-23 -15,4 -6,74 -6,89 0,64 -43,107 -37,32 3,-48 16,-130 19,-141 13,-41 19,-64 26,-77 8,-15 108,-86 121,-95 17,-14 32,-28 57,-23 100,20 38,83 19,69 -30,-21 -15,-45 -54,-28 -13,6 -48,17 -36,52 18,51 -31,57 -37,38 -15,-53 -28,-23 -24,-13 6,13 3,47 6,64 0,4 57,21 64,21 52,-2 18,47 63,17 24,-17 59,-23 61,-13 6,31 -13,25 -26,33 -35,21 -11,18 -70,37 -23,8 -2,10 -16,26 -40,44 -6,50 16,7 5,-10 29,-20 24,3 -4,21 -20,61 -42,65 -30,7 -19,41 -15,80 1,131 -4,226 -34,300 58,-48 62,-157 70,-297 1,-25 30,-21 29,10 0,172 -15,316 -62,429 82,-27 126,-212 131,-448 14,13 21,21 38,28 6,119 -12,252 -43,306 96,-31 90,-276 94,-320 -18,-14 -95,-41 -90,-95 1,-5 0,-21 16,-17 8,1 12,12 15,19 3,10 6,21 8,31 2,15 27,21 42,18 30,-6 26,20 44,25 1,51 2,125 -2,171 22,-43 32,-107 36,-157 4,0 10,-1 15,-3 0,48 -2,118 -6,160 21,-42 37,-123 43,-177 11,-3 26,-10 35,-10 15,0 28,10 29,25 1,5 2,25 1,42 -1,42 -30,32 -27,0 1,-14 5,-30 -2,-36 -21,-18 -18,29 -20,39 -1,7 2,68 0,72zm540 -832c20,-1 40,-2 61,-3 28,-35 55,-69 83,-103 -42,15 -70,5 -79,-24 -23,24 -52,23 -72,4 -19,21 -47,25 -72,4 -6,30 -33,43 -77,32 32,31 63,62 94,93 21,-1 41,-2 62,-3zm-51 -24c-15,-14 -29,-28 -43,-42 10,-4 20,-11 27,-20 21,7 43,5 61,-7 21,10 43,10 63,1 8,8 18,13 28,16 -12,16 -25,31 -37,47 -17,1 -33,2 -50,3 -16,0 -33,1 -49,2zm103 544c-35,18 -47,73 -4,86 33,11 75,-21 46,-52 -7,-7 -31,8 -22,-14 2,-7 18,-17 25,-17 14,0 23,-4 26,14 1,5 9,40 10,42 5,6 5,12 18,14 14,1 31,-12 30,-31 -1,-22 -4,-41 26,-37 4,1 -1,8 11,13 11,5 23,-5 20,-19 -7,-26 -16,-11 -26,-26 -14,-21 -42,-2 -46,23 -1,6 -14,12 -21,7 -6,-6 9,-36 -12,-35 -10,0 -29,5 -37,7 -10,4 -34,18 -44,25zm-36 -454c-13,0 -24,10 -24,21 0,12 11,21 24,21 13,0 24,-9 24,-21 0,-11 -11,-21 -24,-21zm-560 -66c-21,-1 -41,-2 -62,-3 -27,-35 -55,-69 -83,-103 42,15 70,5 80,-24 22,24 51,23 71,4 19,21 48,25 72,4 6,30 33,43 77,32 -32,31 -63,62 -94,93 -21,-1 -41,-2 -61,-3zm51 -24c14,-14 28,-28 42,-42 -10,-4 -19,-11 -27,-20 -20,7 -42,5 -61,-7 -20,10 -43,10 -63,1 -8,8 -17,13 -28,16 12,16 25,31 38,47 16,1 33,2 49,3 17,0 33,1 50,2zm-104 544c35,18 47,73 5,86 -33,11 -76,-21 -47,-52 7,-7 31,8 23,-14 -3,-7 -18,-17 -26,-17 -14,0 -23,-4 -26,14 -1,5 -8,40 -10,42 -5,6 -5,12 -18,14 -14,1 -31,-12 -30,-31 1,-22 4,-41 -26,-37 -3,1 1,8 -11,13 -11,5 -23,-5 -19,-19 6,-26 15,-11 26,-26 13,-21 41,-2 45,23 1,6 14,12 21,7 7,-6 -9,-36 12,-35 10,0 29,5 37,7 10,4 34,18 44,25zm36 -454c14,0 24,10 24,21 0,12 -10,21 -24,21 -13,0 -24,-9 -24,-21 0,-11 11,-21 24,-21z"/>
   <path class="fil2" d="M758 2174c8,-9 13,-15 15,-18 4,-4 8,-10 12,-18l43 29c-7,10 -15,21 -24,31 -9,11 -16,18 -20,22 6,19 7,42 3,69 -5,41 -19,71 -43,92 -29,24 -66,34 -111,28 -43,-5 -76,-22 -97,-49 -21,-27 -29,-62 -23,-106 5,-44 21,-76 48,-97 27,-21 62,-29 106,-24 39,5 69,19 91,41zm-51 58c-10,-8 -27,-14 -51,-17 -27,-3 -46,0 -59,8 -13,9 -20,22 -23,39 -2,17 3,31 13,42 10,12 28,19 53,23 29,3 50,1 63,-8 13,-8 20,-21 23,-38 0,-6 0,-11 0,-16 -8,6 -15,16 -23,30l-28 -16c2,-8 5,-13 7,-17 3,-4 9,-11 18,-22 3,-2 5,-5 7,-8zm106 -303l-26 91 39 25 -23 81 -230 -170 25 -87 285 -24 -24 84 -46 0zm-61 2l-100 1 84 55 16 -56zm143 -111l-238 -122 62 -123c12,-23 23,-39 33,-49 10,-10 22,-16 36,-18 15,-2 30,1 45,9 13,6 23,15 30,26 7,10 10,22 11,35 1,8 0,18 -3,31 7,-8 13,-12 18,-15 3,-2 10,-3 19,-5 9,-2 15,-3 20,-3l87 -1 -43 84 -92 2c-12,0 -21,1 -26,4 -6,3 -11,8 -14,15l-4 7 97 49 -38 74zm-104 -146l16 -32c2,-3 4,-10 7,-21 1,-5 1,-10 -1,-16 -3,-5 -7,-9 -12,-11 -8,-4 -15,-5 -21,-2 -7,3 -14,11 -21,24l-16 33 48 25zm22 -266l48 -67 82 58 -32 -129 64 -90 25 138 196 14 -59 83 -123 -18 12 61 53 38 -48 67 -218 -155zm348 -407l60 -57 110 116c11,11 20,24 26,37 6,14 9,28 8,43 0,15 -3,28 -8,39 -8,15 -20,31 -36,47 -10,8 -21,18 -33,27 -12,9 -24,16 -35,19 -12,3 -24,4 -37,3 -13,-2 -24,-5 -34,-11 -15,-8 -28,-18 -37,-27l-110 -116 60 -57 113 119c10,10 21,16 32,16 12,0 23,-4 33,-14 10,-10 16,-21 16,-32 0,-11 -5,-23 -15,-33l-113 -119zm2331 -209l100 71c20,14 34,28 42,42 9,14 13,29 14,45 1,16 -2,31 -8,47 -5,16 -14,31 -24,46 -17,24 -32,40 -47,49 -14,9 -29,14 -45,16 -16,2 -30,1 -43,-4 -17,-6 -32,-14 -44,-22l-100 -72 155 -218zm32 97l-85 119 17 12c14,10 25,16 33,17 9,1 17,-1 26,-6 9,-6 20,-17 32,-35 17,-23 24,-41 23,-55 -2,-14 -11,-27 -29,-40l-17 -12zm364 231l57 60 -115 110c-12,11 -24,19 -38,25 -13,6 -28,9 -42,9 -15,0 -28,-3 -39,-9 -16,-7 -31,-19 -47,-36 -9,-9 -18,-20 -27,-32 -10,-13 -16,-25 -19,-36 -3,-11 -4,-23 -3,-36 1,-13 5,-25 10,-34 9,-16 18,-28 28,-37l115 -110 57 60 -118 112c-11,10 -16,21 -16,33 -1,11 4,22 14,33 10,10 20,15 32,15 11,1 22,-4 33,-14l118 -113zm-101 287l218 -155 80 112c15,21 25,38 29,52 4,13 4,27 -1,41 -5,13 -14,25 -28,35 -12,9 -24,14 -37,15 -12,1 -25,-1 -37,-6 -7,-4 -16,-10 -25,-18 3,10 5,18 4,23 0,4 -1,10 -3,19 -3,9 -5,15 -7,19l-40 78 -54 -76 41 -84c5,-10 8,-18 8,-24 0,-7 -3,-14 -7,-20l-4 -6 -89 63 -48 -68zm178 -24l20 28c2,3 8,9 16,16 4,4 9,6 15,6 5,0 11,-1 15,-5 7,-5 11,-11 12,-18 0,-7 -4,-17 -12,-29l-22 -30 -44 32zm-14 265l244 -110 57 126c11,23 17,42 18,56 2,14 -1,27 -8,40 -8,12 -19,22 -35,29 -14,6 -27,8 -39,7 -13,-1 -24,-6 -35,-13 -7,-5 -14,-12 -21,-22 1,10 1,18 -1,24 0,3 -3,9 -7,17 -4,9 -8,14 -10,18l-54 68 -39 -85 56 -74c8,-9 12,-17 13,-22 1,-7 0,-14 -3,-21l-3 -7 -99 45 -34 -76zm179 11l15 31c1,4 5,10 12,19 3,4 8,7 13,9 6,1 11,0 17,-2 8,-4 13,-9 14,-16 2,-7 0,-17 -6,-31l-15 -33 -50 23zm194 183l60 213 -55 15 -38 -133 -41 12 35 123 -52 15 -35 -123 -51 14 39 137 -58 17 -62 -217 258 -73zm72 26l13 46 -43 13 -13 -46 43 -13zm22 75l13 46 -44 12 -13 -46 44 -12zm-200 208l15 78c-12,3 -21,8 -27,14 -10,9 -14,22 -12,38 2,12 5,20 12,26 6,6 13,8 20,7 7,-1 13,-5 17,-11 5,-7 8,-22 11,-44 3,-37 11,-64 22,-81 11,-17 28,-27 48,-30 14,-2 27,1 40,7 14,7 25,17 34,32 9,15 15,37 18,64 5,34 1,61 -9,80 -10,20 -29,33 -56,40l-15 -77c12,-4 20,-9 25,-16 5,-8 6,-17 5,-29 -1,-9 -4,-16 -9,-20 -5,-5 -10,-6 -16,-6 -4,1 -7,3 -10,8 -3,4 -5,13 -7,28 -3,37 -7,64 -13,80 -6,17 -15,29 -26,38 -10,8 -23,14 -38,15 -17,3 -33,0 -48,-8 -16,-7 -29,-19 -38,-35 -10,-16 -16,-37 -19,-63 -6,-45 -1,-77 14,-97 15,-19 36,-32 62,-38z"/>
   <path class="fil2" d="M2465 4c1359,0 2460,1102 2460,2461l-130 0c0,-1287 -1044,-2330 -2330,-2330 -1287,0 -2330,1043 -2330,2330l-131 0c0,-1359 1102,-2461 2461,-2461z"/>
  </g>
 </g>
</svg>
