<?xml version="1.0" encoding="UTF-8"?>
<!DOCTYPE svg PUBLIC "-//W3C//DTD SVG 1.1//EN" "http://www.w3.org/Graphics/SVG/1.1/DTD/svg11.dtd">
<!-- Creator: CorelDRAW X7 -->
<svg xmlns="http://www.w3.org/2000/svg" xml:space="preserve" width="3.05567in" height="4.92126in" version="1.1" style="shape-rendering:geometricPrecision; text-rendering:geometricPrecision; image-rendering:optimizeQuality; fill-rule:evenodd; clip-rule:evenodd"
viewBox="0 0 3056 4921"
 xmlns:xlink="http://www.w3.org/1999/xlink">
 <defs>
  <style type="text/css">
   <![CDATA[
    .fil7 {fill:#056BA9}
    .fil0 {fill:#0D120B}
    .fil2 {fill:#8D4354}
    .fil6 {fill:#8E9396}
    .fil3 {fill:#BFDEF3}
    .fil1 {fill:#C3C6C7}
    .fil4 {fill:white}
    .fil5 {fill:#056BA9;fill-rule:nonzero}
   ]]>
  </style>
 </defs>
 <g id="Layer_x0020_1">
  <metadata id="CorelCorpID_0Corel-Layer"/>
  <g id="_799469728">
   <g>
    <path class="fil0" d="M1528 0l-41 0 0 104 -43 0 0 -104 -121 0 0 104 -44 0 0 -104 -122 0 0 189 57 52 0 366c-55,4 -109,9 -163,16l19 138 -70 10 -20 -139c-64,9 -128,20 -191,33l29 139 -70 15 -29 -140c-6,2 -13,3 -20,5l-79 -332 24 -105c-14,-61 -35,-119 -49,-181 -52,13 -106,27 -159,42l33 105 -47 16 -34 -107c-61,18 -122,37 -182,58l35 108 -48 16 -34 -107c-54,19 -107,39 -159,60 17,61 38,119 60,180l77 72 107 314c-40,15 -81,32 -120,50 24,64 47,122 75,185 17,36 76,55 90,92 35,94 65,206 97,304 -19,6 -47,16 -76,27 17,45 29,80 46,125 389,-136 789,-185 1172,-188 382,3 782,52 1172,188 17,-45 29,-80 46,-125 -30,-11 -57,-21 -76,-27 32,-98 62,-210 97,-304 13,-37 73,-56 89,-92 29,-63 52,-121 76,-185 -40,-18 -80,-35 -121,-50l107 -314 78 -72c22,-61 42,-119 60,-180 -53,-21 -106,-41 -159,-60l-34 107 -48 -16 35 -108c-61,-21 -121,-40 -182,-58l-34 107 -48 -16 34 -105c-54,-15 -107,-29 -160,-42 -13,62 -35,120 -48,181l24 105 -80 332c-6,-2 -13,-3 -20,-5l-29 140 -69 -15 29 -139c-64,-13 -127,-24 -192,-33l-19 139 -71 -10 20 -138c-54,-7 -109,-12 -163,-16l0 -366 57 -52 0 -189 -123 0 0 104 -43 0 0 -104 -121 0 0 104 -44 0 0 -104 -40 0zm0 1275c-51,1 -100,2 -150,3l0 -131 0 -8 0 -45c0,-24 7,-47 18,-66 7,-13 13,-19 13,-19 24,-29 61,-48 102,-48l17 0 17 0c40,0 77,19 102,48 0,0 6,6 13,19 11,19 18,42 18,66l0 45 0 8 0 131c-50,-1 -100,-2 -150,-3z"/>
    <path class="fil1" d="M364 1589c368,-127 754,-180 1142,-185 1,0 13,0 22,0 9,0 20,0 22,0 388,5 774,58 1142,185 12,-32 24,-66 35,-98 -55,-21 -112,-40 -168,-56 -142,-42 -280,-73 -418,-96 -202,-32 -403,-46 -613,-47 -210,1 -411,15 -614,47 -137,23 -276,54 -417,96 -57,16 -114,35 -169,56 12,32 24,66 36,98zm-51 -1092l47 145 -47 15 -47 -145 47 -15zm200 -60l44 145 -47 15 -44 -146 47 -14zm1158 -115l49 0 0 152 -49 0 0 -152zm-336 0l49 0 0 152 -49 0 0 -152zm168 0l49 0 0 152 -49 0 0 -152zm1240 175l-47 145 47 15 46 -145 -46 -15zm-200 -60l-44 145 47 15 44 -146 -47 -14zm-2065 630c-62,20 -123,42 -182,66 3,4 5,8 6,12 10,26 19,53 28,80 59,-22 118,-43 177,-61l-29 -97zm219 -61c-69,17 -137,36 -203,56l28 97c65,-20 130,-38 196,-54l-21 -99zm256 -51c-29,5 -57,10 -85,15 -52,10 -104,21 -155,33l21 99c54,-13 109,-25 164,-35 22,-4 44,-8 66,-12l-11 -100zm199 -26c-61,6 -122,14 -183,24l11 100c59,-10 118,-18 177,-24l-5 -100zm176 -15c-53,3 -107,7 -160,13l6 100c31,-3 63,-6 95,-8 11,-40 31,-76 59,-105zm-921 300c-24,8 -48,17 -72,26 9,30 18,59 27,89 24,-8 48,-16 72,-23l-27 -92zm207 -65c-64,18 -128,38 -191,60l27 92c63,-20 127,-38 189,-53l-25 -99zm223 -54c-70,15 -139,31 -207,50l25 99c67,-16 133,-30 199,-42l-17 -107zm223 -38c-53,8 -106,16 -159,26 -16,3 -32,6 -48,9l17 107c14,-2 28,-5 42,-7 53,-9 106,-16 159,-22l-11 -113zm205 -22c-63,5 -126,12 -188,20l10 113c58,-6 115,-11 173,-15l0 -72c0,-15 2,-31 5,-46zm-720 255c-59,16 -118,34 -178,54 10,35 21,70 32,104 60,-19 119,-37 177,-53l-31 -105zm201 -50c-61,13 -123,28 -186,45l32 106c60,-15 119,-29 177,-41l-23 -110zm233 -42c-21,3 -43,7 -65,10 -50,8 -101,18 -152,28l23 110c43,-8 85,-16 127,-23 26,-4 53,-8 80,-12l-13 -113zm187 -21c-57,5 -114,11 -170,19l12 113c55,-7 109,-13 164,-18l-6 -114zm94 -8c-26,2 -52,4 -78,6l6 115c24,-2 48,-4 72,-6l0 0 0 -115zm-30 -680l0 117 0 139 4 0 71 -5 0 -139c40,-2 81,-3 121,-4l0 -108 -27 0 -79 0 -90 0zm169 -16l89 0 0 -98 -89 0 0 98zm-169 -98l0 98 90 0 0 -98 -90 0zm0 -127l0 111 90 0 0 -52 79 0 0 52 27 0 0 -111 -196 0zm-547 439l-27 -112c-71,18 -143,39 -214,62l0 0 32 106 0 0 41 137 68 -20 -41 -137c47,-13 94,-25 141,-36zm-459 26l81 238 65 -24 -49 -133c45,-17 91,-32 137,-46l-32 -106c-68,22 -135,46 -202,71zm348 -132c27,-8 54,-15 81,-22l-27 -111c-29,7 -58,15 -87,23l33 110zm-197 60c21,-6 41,-13 62,-20 19,-6 39,-12 59,-18l-33 -109c-19,5 -38,11 -56,17 -22,7 -45,15 -67,22l35 108zm-193 -51l37 107c27,-10 54,-20 82,-30l-35 -108c-28,10 -56,20 -84,31zm217 -93l3 -1c19,-6 37,-12 56,-18l-11 -37 76 -23 11 38c29,-8 59,-16 88,-24l-16 -68c-70,19 -139,39 -207,61 -7,2 -13,4 -20,6l20 66zm-244 13l22 64c28,-10 56,-20 84,-31l-14 -40 76 -25 12 39c16,-5 32,-10 49,-15l-20 -66c-71,23 -140,48 -209,74zm-72 -74l65 60c80,-31 162,-60 246,-87 69,-22 140,-43 210,-61l20 -86c-87,22 -174,47 -261,74 -94,30 -188,64 -280,100zm-63 -169c15,52 34,104 53,156 93,-37 188,-71 286,-102 88,-29 178,-54 268,-76 -13,-54 -31,-106 -44,-159 -42,11 -84,22 -127,33l34 105 -79 26 -34 -108c-50,15 -101,31 -151,48l35 109 -78 26 -34 -107c-44,15 -87,32 -129,49zm1508 484l68 0 0 -140c47,0 94,2 140,4l0 138 99 7 7 0 0 -139c49,4 98,8 147,14l-19 138 98 14 19 -139c55,8 109,17 163,28l-29 139 97 20 29 -139c50,11 100,23 149,37l-41 136 95 28 41 -136c42,13 84,26 126,41l-50 133 93 35 50 -133c35,14 70,28 104,43 -19,51 -39,101 -61,151 -81,-31 -166,-60 -249,-86 -122,-37 -238,-68 -329,-86 -130,-27 -259,-45 -389,-56 -118,-10 -236,-15 -358,-16 -122,1 -241,6 -358,16 -130,11 -259,29 -389,56 -91,18 -208,49 -329,86 -83,26 -168,55 -250,86 -22,-50 -42,-100 -61,-151 35,-15 70,-29 105,-43l49 133 93 -35 -49 -133c42,-15 84,-28 126,-41l41 136 95 -28 -41 -136c49,-14 99,-26 148,-37l30 139 97 -20 -30 -139c55,-11 109,-20 164,-28l19 139 98 -14 -19 -138c49,-6 98,-10 147,-14l0 139 6 0 99 -7 0 -138c47,-2 94,-4 141,-4l0 140 68 0zm0 52c121,1 239,6 356,16 130,12 258,30 388,56 90,18 206,48 327,86 82,25 167,54 248,85l-3 6c-12,26 -50,42 -74,67 -180,-72 -376,-127 -579,-165 -159,-30 -321,-49 -482,-58 -42,-35 -97,-57 -156,-57l-25 0 -26 0c-59,0 -113,22 -155,57 -161,9 -324,28 -482,58 -203,38 -400,93 -579,165 -24,-25 -62,-41 -74,-67l-3 -6c81,-31 165,-60 248,-85 121,-38 237,-68 327,-86 129,-26 258,-44 387,-56 118,-10 236,-15 357,-16zm1050 264c62,20 123,42 182,66 -3,4 -5,8 -7,12 -9,26 -18,53 -27,80 -59,-22 -118,-43 -177,-61l29 -97zm-219 -61c69,17 137,36 203,56l-29 97c-65,-20 -130,-38 -195,-54l21 -99zm-256 -51c28,5 57,10 85,15 52,10 104,21 155,33l-21 99c-55,-13 -109,-25 -164,-35 -22,-4 -44,-8 -66,-12l11 -100zm-199 -26c61,6 122,14 183,24l-11 100c-59,-10 -118,-18 -178,-24l6 -100zm-177 -15c54,3 107,7 161,13l-6 100c-32,-3 -63,-6 -95,-8 -11,-40 -32,-76 -60,-105zm921 300c25,8 49,17 73,26 -10,30 -19,59 -28,89 -24,-8 -48,-16 -71,-23l26 -92zm-206 -65c64,18 128,38 191,60l-27 92c-64,-20 -127,-38 -190,-53l26 -99zm-223 -54c69,15 138,31 207,50l-25 99c-67,-16 -133,-30 -199,-42l17 -107zm-224 -38c54,8 107,16 160,26 16,3 32,6 48,9l-18 107c-13,-2 -27,-5 -41,-7 -53,-9 -106,-16 -159,-22l10 -113zm-204 -22c63,5 126,12 188,20l-10 113c-58,-6 -116,-11 -174,-15l0 -72c0,-15 -1,-31 -4,-46zm720 255c59,16 118,34 178,54 -11,35 -21,70 -32,104 -60,-19 -119,-37 -178,-53l32 -105zm-202 -50c62,13 124,28 186,45l-31 106c-60,-15 -119,-29 -178,-41l23 -110zm-233 -42c22,3 44,7 65,10 51,8 102,18 153,28l-24 110c-42,-8 -84,-16 -126,-23 -27,-4 -53,-8 -80,-12l12 -113zm-186 -21c57,5 113,11 170,19l-12 113c-55,-7 -110,-13 -165,-18l7 -114zm-95 -8c26,2 53,4 79,6l-7 115c-24,-2 -48,-4 -72,-6l0 0 0 -115zm-267 -313l25 0c124,0 226,101 226,225l0 202c-28,-1 -57,-3 -85,-4l0 -185c0,-82 -67,-150 -149,-150l-17 0 -17 0c-82,0 -149,68 -149,150l0 185c-29,1 -57,3 -85,4l0 -202c0,-124 101,-225 225,-225l26 0zm0 -367l39 0 46 0 0 108c-10,0 -21,0 -31,0l0 140 -54 0 -54 0 0 -140c-11,0 -21,0 -32,0l0 -108 46 0 40 0zm297 0l0 117 0 139 -4 0 -71 -5 0 -139c-40,-2 -80,-3 -120,-4l0 -108 26 0 79 0 90 0zm-169 -16l-89 0 0 -98 89 0 0 98zm169 -98l0 98 -90 0 0 -98 90 0zm-212 -16l-46 0 0 -52 -39 0 -40 0 0 52 -46 0 0 -111 86 0 85 0 0 111zm212 -111l0 111 -90 0 0 -52 -79 0 0 52 -26 0 0 -111 195 0zm55 -64l-52 47 -300 0 -300 0 -53 -47 353 0 352 0zm492 503l27 -112c72,18 144,39 215,62l0 0 -32 106 0 0 -41 137 -69 -20 41 -137c-46,-13 -93,-25 -141,-36zm459 26l-81 238 -65 -24 50 -133c-46,-17 -92,-32 -138,-46l32 -106c69,22 136,46 202,71zm-347 -132c-27,-8 -54,-15 -81,-22l27 -111c29,7 58,15 87,23l-33 110zm196 60c-20,-6 -41,-13 -61,-20 -20,-6 -39,-12 -59,-18l33 -109c18,5 37,11 56,17 22,7 44,15 66,22l-35 108zm193 -51l-36 107c-27,-10 -55,-20 -82,-30l35 -108c28,10 56,20 83,31zm-216 -93l-3 -1c-19,-6 -38,-12 -57,-18l12 -37 -76 -23 -12 38c-29,-8 -58,-16 -87,-24l16 -68c69,19 139,39 207,61 7,2 13,4 19,6l-19 66zm243 13l-21 64c-28,-10 -56,-20 -84,-31l13 -40 -75 -25 -13 39c-16,-5 -32,-10 -48,-15l20 -66c70,23 140,48 208,74zm72 -74l-64 60c-80,-31 -163,-60 -246,-87 -70,-22 -140,-43 -210,-61l-20 -86c87,22 174,47 260,74 95,30 189,64 280,100zm64 -169c-16,52 -34,104 -53,156 -93,-37 -189,-71 -286,-102 -89,-29 -178,-54 -268,-76 12,-54 30,-106 43,-159 43,11 85,22 127,33l-33 105 78 26 35 -108c50,15 100,31 150,48l-34 109 78 26 34 -107c43,15 86,32 129,49zm-1508 -251l29 0 0 100 66 0 0 -100 98 0 0 100 67 0 0 -100 95 0 0 152 -355 0 -355 0 0 -152 95 0 0 100 66 0 0 -100 98 0 0 100 67 0 0 -100 29 0z"/>
   </g>
   <g>
    <path class="fil2" d="M1479 4879c-197,-169 -441,-261 -680,-352 -218,-84 -471,-177 -629,-356 -123,-140 -170,-307 -170,-491 0,-666 0,-1332 0,-1998l0 -75 75 0c484,0 969,0 1453,0 484,0 968,0 1453,0l75 0 0 75c0,666 0,1332 0,1998 0,184 -47,351 -170,491 -158,179 -411,272 -629,356 -239,91 -484,183 -680,352l-49 42 -49 -42z"/>
    <path class="fil3" d="M1528 4822c-556,-477 -1453,-365 -1453,-1142 0,-671 0,-1328 0,-1998 484,0 969,0 1453,0 484,0 968,0 1453,0 0,670 0,1327 0,1998 0,777 -897,665 -1453,1142z"/>
    <path class="fil4" d="M1528 4822c-556,-477 -1453,-365 -1453,-1142 0,-119 0,-203 0,-264l813 -435 103 -617 386 -96 39 -10 4 -74 108 0 108 0 4 74 39 10 386 96 102 617 814 435c0,61 0,145 0,264 0,777 -897,665 -1453,1142z"/>
    <path class="fil5" d="M2169 4134c58,2 100,16 142,30 57,19 52,19 108,0 46,-15 91,-30 156,-30 24,0 45,2 65,5 6,38 11,75 15,110l1 15c-3,2 -7,5 -11,7 -21,-6 -44,-10 -70,-10 -45,0 -80,12 -115,24 -93,31 -96,31 -189,0 -35,-12 -69,-23 -113,-24 2,-42 6,-85 11,-127zm-1480 269c13,1 26,-4 55,-14 46,-15 91,-30 156,-30l1 0c0,43 0,85 -2,126 -72,-28 -142,-54 -210,-82zm651 -43c53,2 93,16 134,29 56,19 51,19 108,0 41,-13 80,-27 134,-29 -56,93 -119,184 -188,253 -69,-69 -132,-160 -188,-253zm815 -1l1 0c65,0 109,15 155,30 30,10 42,15 56,14 -68,28 -139,54 -210,82 -2,-41 -3,-83 -2,-126zm-1542 -652c8,2 16,5 23,7 49,17 52,19 89,7 33,26 59,68 79,107 -7,2 -13,5 -19,7 -93,31 -97,31 -189,0 -25,-9 -50,-17 -79,-21 21,-38 54,-85 96,-107zm1718 14c37,12 39,10 88,-7 8,-2 16,-5 24,-7 41,22 75,69 95,107 -28,4 -53,12 -78,21 -93,31 -96,31 -189,0 -6,-2 -13,-5 -19,-7 19,-39 46,-81 79,-107zm-1857 188l7 0c65,0 109,15 155,30 57,19 52,19 108,0 30,-10 60,-20 95,-25 13,39 23,81 32,124 -32,4 -59,13 -86,22 -93,31 -97,31 -189,0 -35,-12 -70,-24 -115,-24 -16,0 -31,2 -45,4 10,-45 23,-89 38,-131zm639 44c11,0 24,-5 50,-14 46,-15 91,-30 155,-30 65,0 110,15 156,30 56,19 51,19 108,0 46,-15 91,-30 155,-30 65,0 110,15 156,30 25,9 38,14 50,14 -23,40 -44,79 -64,115 -8,-2 -17,-5 -27,-8 -35,-12 -70,-24 -115,-24 -45,0 -79,12 -115,24 -92,31 -96,31 -188,0 -36,-12 -70,-24 -116,-24 -45,0 -79,12 -115,24 -9,3 -18,6 -26,8 -20,-36 -42,-75 -64,-115zm1104 -39c35,5 64,15 94,25 57,19 52,19 108,0 46,-15 91,-30 156,-30l6 0c16,42 29,86 39,131 -14,-2 -29,-4 -45,-4 -45,0 -80,12 -115,24 -93,31 -96,31 -189,0 -27,-9 -54,-18 -86,-22 8,-43 19,-85 32,-124zm-1801 225c20,-3 41,-5 65,-5 65,0 109,15 155,30 57,19 52,19 108,0 43,-14 85,-28 142,-30 6,42 9,85 12,127 -45,1 -79,12 -113,24 -93,31 -97,31 -189,0 -35,-12 -70,-24 -115,-24 -26,0 -49,4 -70,10 -4,-2 -8,-5 -12,-7l2 -15c4,-35 9,-72 15,-110zm804 8c29,-8 60,-13 98,-13 65,0 110,15 156,30 56,19 51,19 108,0 46,-15 91,-30 155,-30 39,0 70,5 99,13 -20,37 -42,76 -64,117 -11,-2 -23,-3 -35,-3 -45,0 -79,12 -115,24 -92,31 -96,31 -188,0 -36,-12 -70,-24 -116,-24 -12,0 -23,1 -34,3 -23,-41 -44,-80 -64,-117z"/>
    <path class="fil6" d="M1528 4655c129,-118 237,-317 346,-515 113,-206 226,-412 358,-522 93,-78 219,-64 345,-50 120,14 240,27 340,-35 25,-15 15,-40 -12,-24 -55,35 -114,49 -182,48 -53,-268 -240,-292 -272,-23 -51,-1 -116,8 -162,23l-100 -564 792 423c0,90 0,174 0,264 0,38 -2,74 -7,108 -31,-153 -167,-84 -167,95l0 263c-36,37 -77,70 -122,100 -101,-888 -598,-722 -558,250 -34,13 -68,27 -103,41l0 -54c0,-143 -45,-188 -89,-181 -42,7 -84,60 -84,169l0 144c-114,56 -224,122 -323,207 -99,-85 -209,-151 -323,-207l0 -144c0,-109 -42,-162 -84,-169 -45,-7 -90,38 -90,181l0 54c-34,-14 -68,-28 -102,-41 40,-972 -457,-1138 -558,-250 -45,-30 -86,-63 -123,-100l0 -263c0,-179 -136,-248 -167,-95 -4,-34 -6,-70 -6,-108 0,-90 0,-174 0,-264l791 -423 -99 564c-46,-15 -112,-24 -162,-23 -33,-269 -219,-245 -272,23 -68,1 -127,-13 -182,-48 -27,-16 -37,9 -12,24 100,62 220,49 340,35 126,-14 251,-28 345,50 132,110 245,316 358,522 109,198 217,397 346,515zm-106 -2509l-6 112 -58 14 -24 152 194 0 194 0 -25 -152 -57 -14 -6 -112 37 0 0 -287 -143 -103 -143 103 0 287 37 0zm106 38l-76 0 0 -38 76 0 75 0 0 38 -75 0zm-565 349l344 -86 -249 1401c-13,-8 -24,-19 -34,-34 -56,-84 -115,-157 -179,-211 -19,-15 -38,-27 -58,-37 59,-338 121,-695 176,-1033zm364 -86l201 0 200 0 251 1412c-72,14 -122,-32 -234,-39 -88,-6 -142,42 -217,42 -70,0 -121,-41 -197,-42 1,-38 -3,-81 -3,-110 0,-32 15,-17 21,-55 3,-23 29,-12 41,-24 19,-19 16,-51 -3,-64 -14,-10 -33,-9 -49,0 -31,18 -18,44 -28,56 -12,14 -32,19 -34,33 -3,24 31,29 37,50 5,20 3,80 3,114l-5 0c-112,7 -162,53 -234,39l250 -1412zm-361 64l37 -222 80 -20 -6 74 61 -16 6 -74 78 -19 -6 74 62 -16 6 -74 66 -16 -39 222 -345 87zm1127 22l-344 -86 249 1401c12,-8 24,-19 34,-34 56,-84 115,-157 179,-211 19,-15 38,-27 58,-37 -59,-338 -121,-695 -176,-1033zm-4 -22l-36 -222 -80 -20 6 74 -62 -16 -6 -74 -78 -19 6 74 -61 -16 -6 -74 -67 -16 40 222 344 87z"/>
    <rect class="fil4" x="1484" y="1924" width="87.6891" height="94.0425"/>
    <g>
     <path class="fil7" d="M2502 2026l27 -8 -32 105 -1 1 -38 129 -1 0 -38 131 -122 66 101 -21 -23 88 0 0 -28 118 -1 0 -24 103 -10 5c-369,168 -669,453 -885,793 -36,56 -65,31 -42,-19 271,-619 646,-1173 1141,-1635l60 -57 -47 158 -37 43z"/>
     <path class="fil4" d="M2541 1899c-498,465 -870,1019 -1139,1634 217,-345 522,-638 900,-811l14 -57 -218 71 230 -117 15 -64 -270 114 281 -158 13 -52 -213 44 246 -134 25 -86 -136 43 150 -88 23 -76 -168 96 184 -148 17 -59 -60 17 84 -96 22 -73z"/>
    </g>
   </g>
  </g>
 </g>
</svg>
