<?xml version="1.0" encoding="UTF-8"?>
<!DOCTYPE svg PUBLIC "-//W3C//DTD SVG 1.1//EN" "http://www.w3.org/Graphics/SVG/1.1/DTD/svg11.dtd">
<!-- Creator: CorelDRAW X7 -->
<svg xmlns="http://www.w3.org/2000/svg" xml:space="preserve" width="3.93519in" height="4.92913in" version="1.1" style="shape-rendering:geometricPrecision; text-rendering:geometricPrecision; image-rendering:optimizeQuality; fill-rule:evenodd; clip-rule:evenodd"
viewBox="0 0 3935 4929"
 xmlns:xlink="http://www.w3.org/1999/xlink">
 <defs>
  <style type="text/css">
   <![CDATA[
    .fil1 {fill:black}
    .fil4 {fill:#49E7C6}
    .fil0 {fill:#7ECB00}
    .fil5 {fill:#BA4903}
    .fil2 {fill:#FEFF01}
    .fil3 {fill:#5FCDFF;fill-rule:nonzero}
   ]]>
  </style>
 </defs>
 <g id="Layer_x0020_1">
  <metadata id="CorelCorpID_0Corel-Layer"/>
  <g id="_620230112">
   <polygon class="fil0" points="0,0 1968,0 3935,0 3935,3724 1968,4921 0,3724 "/>
   <g>
    <path class="fil1" d="M1275 1112c29,-12 59,-23 89,-35 0,-17 0,-34 0,-50l0 -9 8 -3c52,-21 105,-41 157,-61l18 -7 0 19c0,13 0,27 0,40 37,-14 74,-29 111,-43 0,-17 0,-34 0,-51l0 -9 9 -3c41,-16 82,-32 123,-48 0,-24 0,-48 0,-72l0 -11 10 -2c55,-11 110,-22 165,-33l3 -1 2 1c55,11 110,22 165,33l10 2 0 11c0,24 0,48 0,72 41,16 82,32 124,48l8 3 0 9c0,17 0,34 0,51 37,14 74,29 112,43 0,-13 0,-27 0,-40l0 -19 17 7c53,20 105,40 157,61l8 3 0 9c0,16 0,33 0,50 30,12 60,23 89,35 0,-14 0,-27 0,-41l0 -19 18 7c51,20 103,40 154,60l6 3 2 6c63,266 205,461 408,637l7 5 -3 8c-166,583 -193,1152 -33,1739l3 9 -9 5c-114,65 -234,120 -355,170 -151,63 -306,119 -458,179 -145,58 -290,119 -426,196l-6 4 -7 -4c-135,-77 -281,-138 -425,-196 -153,-60 -308,-116 -459,-179 -121,-50 -241,-105 -355,-170l-9 -5 3 -9c161,-587 133,-1156 -33,-1739l-2 -8 6 -5c203,-176 345,-371 408,-637l2 -6 6 -3c51,-20 103,-40 154,-60l18 -7 0 19c0,14 0,27 0,41zm841 460c153,133 248,281 264,480 -120,-104 -244,-244 -264,-480zm145 421c-6,17 -10,32 -10,45 -1,24 7,42 21,55 15,14 38,23 67,28 52,9 119,4 187,-13 61,-14 122,-38 176,-67 26,-15 50,-30 73,-46l66 0c-33,30 -74,58 -120,83 -56,30 -120,56 -185,71 -74,18 -147,24 -204,14 -36,-7 -67,-19 -89,-39 -23,-22 -36,-51 -34,-88 1,-24 8,-51 22,-82l30 39zm636 -413c-45,193 -129,344 -293,449 35,-151 98,-323 293,-449zm-263 -83c31,200 8,375 -108,537 -25,-156 -30,-344 108,-537zm-237 33c79,162 106,317 51,486 -63,-127 -116,-285 -51,-486zm-429 -390c-158,71 -311,125 -467,162 -154,36 -310,56 -475,61 9,-19 17,-37 25,-56 151,-6 295,-25 437,-59 161,-38 318,-94 480,-168 161,74 319,130 479,168 142,34 286,53 437,59 8,19 17,37 25,56 -165,-5 -321,-25 -475,-61 -156,-37 -309,-91 -466,-162zm0 118c157,71 310,125 466,162 175,41 352,61 543,61 -12,-18 -23,-36 -34,-55 -173,-2 -336,-22 -496,-60 -160,-38 -318,-94 -479,-168 -162,74 -319,130 -480,168 -160,38 -323,58 -496,60 -11,19 -22,37 -34,55 191,0 369,-20 543,-61 156,-37 309,-91 467,-162zm-75 -422c0,38 0,76 0,114 50,0 100,0 150,0 0,-38 0,-76 0,-114 -50,0 -100,0 -150,0zm-749 330c0,25 0,50 0,75 29,0 57,0 85,0 0,-25 0,-50 0,-75 -28,0 -56,0 -85,0zm277 -89c0,25 0,50 0,75 28,0 56,0 84,0 0,-25 0,-50 0,-75 -28,0 -56,0 -84,0zm276 -88c0,25 0,50 0,75 29,0 57,0 85,0 0,-25 0,-50 0,-75 -28,0 -56,0 -85,0zm1094 177c-28,0 -57,0 -85,0 0,25 0,50 0,75 28,0 57,0 85,0 0,-25 0,-50 0,-75zm-276 -89c-29,0 -57,0 -85,0 0,25 0,50 0,75 28,0 56,0 85,0 0,-25 0,-50 0,-75zm-277 -88c-28,0 -57,0 -85,0 0,25 0,50 0,75 28,0 57,0 85,0 0,-25 0,-50 0,-75z"/>
    <path class="fil2" d="M2909 1583c-44,192 -129,348 -298,457l-27 17 7 -31c45,-196 126,-345 299,-457l27 -17 -8 31zm-941 2482c368,-210 840,-319 1239,-545 -12,-44 -24,-89 -34,-134l-2362 -270c-19,140 -47,274 -83,404 400,226 872,335 1240,545zm1179 -806c-5,-26 -9,-51 -13,-77l-2304 -262c-2,25 -4,50 -6,74l2323 265zm-30 -203c-43,-382 -14,-803 123,-1281 -96,-83 -183,-174 -255,-281l-8 0c-112,0 -224,-7 -334,-22l4 23c31,199 9,380 -111,547l-18 26 -5 -32c-32,-202 -12,-375 110,-547l13 -18c-69,-10 -137,-22 -205,-39 -159,-37 -314,-92 -463,-160 -150,68 -304,123 -464,160 -180,43 -361,62 -546,62l-8 0c-72,107 -159,198 -255,281 107,372 148,710 141,1021l2281 260zm-844 -1059c-5,13 -9,27 -9,41 -1,18 4,33 17,45 15,15 40,22 60,26 58,10 126,0 182,-13 60,-15 119,-38 172,-67 25,-13 49,-28 72,-45l3 -2 105 0 -25 22c-37,33 -79,62 -122,85 -59,32 -124,57 -189,73 -65,15 -143,25 -209,14 -35,-6 -70,-19 -96,-43 -27,-26 -40,-60 -38,-97 1,-30 11,-60 23,-87l9 -20 47 61 -2 7zm-149 -435c153,133 252,284 269,488l2 32 -24 -21c-154,-134 -250,-278 -268,-488l-3 -32 24 21zm284 -38c80,162 109,322 52,496l-10 30 -14 -29c-81,-164 -110,-316 -52,-495l10 -30 14 28zm528 -111c-7,-12 -14,-25 -20,-37l-7 0c-161,-5 -321,-24 -478,-61 -159,-38 -314,-93 -463,-161 -150,68 -304,123 -464,161 -157,37 -317,56 -478,61l-7 0c-6,12 -13,25 -20,37 165,-2 326,-22 486,-59 165,-39 323,-97 477,-168l6 -3 5 3c154,71 312,129 477,168 160,37 322,57 486,59zm-57 -119c-21,-51 -38,-105 -52,-163 -51,-20 -102,-40 -154,-60 0,20 0,40 0,60 -38,-15 -76,-30 -115,-45 0,-20 0,-40 0,-59 -52,-21 -104,-41 -156,-61 0,20 0,39 0,59 -46,-18 -92,-35 -138,-53 0,-20 0,-40 0,-60 -44,-17 -88,-34 -132,-51 0,-27 0,-54 0,-81 -55,-11 -110,-22 -164,-34 -55,12 -110,23 -165,34 0,27 0,54 0,81 -44,17 -88,34 -132,51 0,20 0,40 0,60 -46,18 -92,35 -137,53 0,-20 0,-39 0,-59 -53,20 -105,40 -157,61 0,19 0,39 0,59 -38,15 -77,30 -115,45 0,-20 0,-40 0,-60 -52,20 -103,40 -154,60 -14,58 -31,112 -52,163 145,-6 288,-25 429,-58 165,-39 323,-97 477,-168l6 -3 5 3c154,71 312,129 477,168 141,33 284,52 429,58zm-911 -471c31,0 56,0 87,0 0,47 0,93 0,140 -31,0 -56,0 -87,0 -32,0 -57,0 -88,0 0,-47 0,-93 0,-140 31,0 56,0 88,0zm-837 330c37,0 74,0 111,0 0,33 0,67 0,101 -37,0 -74,0 -111,0 0,-34 0,-68 0,-101zm277 -89c36,0 73,0 110,0 0,33 0,67 0,101 -37,0 -74,0 -110,0 0,-34 0,-68 0,-101zm277 -88c36,0 73,0 110,0 0,33 0,67 0,101 -37,0 -74,0 -110,0 0,-34 0,-68 0,-101zm1119 177c-37,0 -74,0 -111,0 0,33 0,67 0,101 37,0 74,0 111,0 0,-34 0,-68 0,-101zm-276 -89c-37,0 -74,0 -111,0 0,33 0,67 0,101 37,0 74,0 111,0 0,-34 0,-68 0,-101zm-277 -88c-37,0 -74,0 -111,0 0,33 0,67 0,101 37,0 74,0 111,0 0,-34 0,-68 0,-101z"/>
    <path class="fil3" d="M835 2809l2284 261c4,33 8,66 13,99l-2301 -262c2,-32 3,-65 4,-98zm-12 198l2327 265c6,34 13,67 20,100l-2358 -268c4,-32 8,-64 11,-97z"/>
    <g>
     <path class="fil1" d="M2614 3291c-66,-18 -134,-24 -202,-12l-11 2 -3 -12c-17,-77 -34,-154 -51,-230l-3 -15 16 -1c173,-1 346,25 519,24l19 0 -7 18c-30,71 -60,142 -90,213l-4 9 -9 -1c-55,-7 -113,-10 -167,5l-4 1 -3 -1z"/>
     <path class="fil2" d="M2484 3260c45,0 89,7 133,19 40,-11 81,-13 124,-10 -87,-32 -169,-29 -257,-9zm309 5l86 -205c-76,0 -151,-5 -225,-10l0 10c1,50 -3,101 -10,151 47,5 109,27 144,51l5 3zm-161 -216c-90,-7 -181,-14 -272,-13l48 220 5 -3c58,-26 127,-42 192,-43 4,-52 8,-103 24,-153l3 -8z"/>
     <path class="fil4" d="M2418 3265c129,-39 241,-51 363,7 -24,-16 -93,-47 -151,-49 8,-56 12,-112 11,-163 -16,52 -19,98 -24,163 -64,-1 -137,13 -199,42z"/>
    </g>
   </g>
   <path class="fil2" d="M368 437c0,33 0,56 2,69 1,13 3,22 6,28 4,10 10,17 17,21 8,4 19,6 32,6 13,0 24,-2 31,-6 8,-4 14,-11 18,-21 3,-7 5,-17 7,-30 1,-13 1,-36 1,-67 0,-31 0,-54 -1,-67 -2,-13 -4,-23 -7,-30 -4,-10 -10,-16 -18,-21 -7,-4 -18,-6 -31,-6 -13,0 -24,2 -32,6 -7,5 -13,11 -17,21 -3,6 -5,15 -6,28 -2,13 -2,36 -2,69zm169 201l0 13c-8,1 -16,2 -24,2 -7,0 -14,1 -21,1 -37,0 -64,-6 -80,-17 -16,-12 -24,-30 -24,-56 0,-2 0,-4 0,-6 0,-2 0,-4 0,-7 -30,-10 -53,-27 -71,-51 -18,-24 -27,-51 -27,-80 0,-18 4,-34 10,-50 7,-16 17,-31 30,-45 14,-14 28,-24 44,-31 15,-7 32,-10 51,-10 18,0 35,3 51,10 15,7 30,17 44,31 13,14 23,29 30,45 7,16 10,33 10,50 0,30 -9,56 -27,80 -18,25 -42,42 -71,51 0,4 -1,8 -1,11 0,4 0,7 0,10 0,18 4,31 12,39 8,8 21,12 39,12 5,0 13,-1 24,-2l1 0zm112 -158l71 0 -34 -91 -37 91zm-69 87l0 -13 16 0c5,0 8,-1 11,-4 3,-3 6,-8 9,-16l89 -233 16 0 98 253 23 0 0 13 -126 0 0 -13 32 0 -23 -61 -80 0 -17 45c0,0 -1,2 -1,3 0,2 0,4 0,6 0,2 1,4 3,5 2,2 5,2 8,2l24 0 0 13 -82 0zm276 -13l31 0 0 -236 -31 0 0 -12 146 0c30,0 53,5 69,15 16,10 24,24 24,42 0,19 -8,34 -23,45 -15,11 -36,17 -64,18l0 4c29,3 49,12 60,26 12,14 18,36 18,67 0,12 1,20 4,24 2,4 7,6 13,6 2,0 5,0 8,-1 3,0 6,-1 9,-2l5 11c-9,3 -17,6 -25,9 -8,2 -15,3 -21,3 -11,0 -20,-2 -29,-5 -9,-4 -16,-8 -21,-14 -11,-11 -16,-32 -17,-63 0,-5 0,-8 -1,-10 0,-18 -5,-30 -12,-37 -8,-7 -21,-11 -39,-11l-7 0 0 121 34 0 0 13 -131 0 0 -13zm97 -134l33 0c15,0 25,-3 30,-9 5,-6 8,-19 8,-40 0,-25 -2,-40 -7,-45 -4,-5 -15,-8 -31,-8l-33 0 0 102zm294 4l93 -94c2,-1 3,-3 3,-4 1,-1 1,-2 1,-3 0,-1 0,-2 -1,-3 -1,-1 -3,-2 -5,-2l-26 0 0 -11 96 0 0 11 -16 0c-8,0 -15,2 -20,4 -6,3 -13,8 -21,16l-55 56 108 160 31 0 0 13 -139 0 0 -13 32 0 -81 -120 0 -10zm-102 130l31 0 0 -236 -31 0 0 -11 130 0 0 11 -32 0 0 236 32 0 0 13 -130 0 0 -13zm321 -58l0 -178 -31 0 0 -12 131 0 0 12 -35 0 0 177c0,22 5,38 13,48 9,11 22,16 41,16 10,0 18,-2 26,-5 8,-2 15,-6 21,-12 7,-6 11,-13 14,-22 3,-8 4,-23 4,-44l0 -4 0 -133c0,-9 -1,-15 -3,-17 -2,-2 -8,-4 -16,-4l-13 0 0 -12 82 0 0 12 -12 0c-10,0 -16,2 -19,4 -2,3 -4,9 -4,17l0 137c0,19 -1,33 -3,42 -2,8 -5,16 -9,22 -8,11 -19,19 -33,25 -13,5 -30,8 -51,8 -34,0 -59,-7 -77,-20 -18,-13 -26,-32 -26,-57zm375 71l0 -13 32 0 0 -236 -27 0 0 -12 217 0 1 69 -13 0c-9,-22 -18,-37 -27,-45 -9,-8 -23,-12 -40,-12l-45 0 0 107c1,1 2,1 4,1 1,0 3,0 5,0 14,0 25,-4 32,-11 8,-8 13,-20 15,-37l13 0 0 111 -13 0c-2,-18 -6,-31 -14,-39 -7,-7 -19,-11 -34,-11l-8 0 0 115 44 0c21,0 38,-6 50,-17 12,-11 22,-30 29,-57l12 0 -3 87 -230 0zm269 0l0 -13 27 0 0 -236 -27 0 0 -12 130 0 0 12 -36 0 0 236 38 0c22,0 39,-6 51,-17 12,-11 21,-30 28,-57l13 0 -3 87 -221 0zm335 -13l35 0c18,0 30,-3 36,-11 5,-7 8,-23 8,-49 0,-23 -3,-39 -10,-47 -6,-8 -20,-12 -39,-12l-30 0 0 119zm0 -130l25 0c19,0 32,-3 38,-10 6,-7 9,-21 9,-43 0,-24 -3,-39 -8,-44 -6,-6 -19,-9 -41,-9l-23 0 0 106zm-93 130l28 0 0 -236 -28 0 0 -12 146 0c27,0 48,6 64,17 16,11 24,26 24,45 0,16 -7,29 -19,39 -13,10 -31,16 -56,20l0 3c28,3 49,9 64,20 14,11 21,26 21,45 0,22 -9,40 -27,53 -18,13 -43,19 -74,19l-143 0 0 -13zm340 -74l71 0 -34 -91 -37 91zm-69 87l0 -13 16 0c4,0 8,-1 11,-4 3,-3 6,-8 9,-16l89 -233 16 0 98 253 23 0 0 13 -127 0 0 -13 32 0 -23 -61 -79 0 -17 45c-1,0 -1,2 -1,3 0,2 -1,4 -1,6 0,2 2,4 4,5 2,2 4,2 8,2l23 0 0 13 -81 0zm284 3l0 -76 15 0c6,22 16,39 29,50 14,11 30,17 49,17 17,0 31,-5 42,-14 11,-9 17,-21 17,-35 0,-7 -1,-13 -4,-18 -3,-5 -7,-10 -14,-14 -7,-5 -21,-10 -43,-15 -8,-1 -14,-3 -18,-4 -25,-6 -44,-16 -55,-28 -12,-13 -17,-29 -17,-50 0,-25 7,-44 23,-59 15,-15 35,-23 59,-23 10,0 20,1 28,4 9,3 17,7 25,13l14 -12 13 0 1 69 -13 0c-5,-20 -13,-35 -25,-46 -12,-11 -27,-16 -45,-16 -14,0 -26,4 -36,11 -9,7 -14,16 -14,27 0,17 17,29 52,36 5,1 8,2 11,3 32,7 55,18 68,32 14,14 20,34 20,59 0,27 -8,48 -25,66 -17,17 -38,26 -63,26 -13,0 -25,-1 -35,-4 -9,-3 -18,-8 -27,-14l-18 15 -14 0zm269 -90l71 0 -34 -91 -37 91zm-69 87l0 -13 16 0c4,0 8,-1 11,-4 3,-3 6,-8 9,-16l89 -233 16 0 98 253 23 0 0 13 -126 0 0 -13 31 0 -23 -61 -79 0 -17 45c-1,0 -1,2 -1,3 0,2 0,4 0,6 0,2 1,4 3,5 2,2 5,2 8,2l24 0 0 13 -82 0zm275 0l0 -13 20 0c5,0 9,-1 11,-3 2,-3 3,-7 3,-14l0 -205c0,-6 -2,-9 -4,-11 -2,-2 -7,-3 -14,-3l-16 0 0 -12 106 0 110 150 0 -118c0,-8 -1,-13 -4,-16 -2,-2 -7,-4 -16,-4l-16 0 0 -12 83 0 0 12 -15 0c-7,0 -11,2 -14,4 -2,3 -3,8 -3,16l0 235 -11 0 -171 -235 0 202c0,4 2,8 4,10 3,3 6,4 11,4l23 0 0 13 -87 0z"/>
   <g>
    <path class="fil1" d="M1840 2126c1,-1 3,-2 4,-3 4,-4 15,-22 17,-26 2,-7 6,-13 12,-15 16,-5 29,10 39,19 4,4 6,10 10,13 7,5 24,6 32,6 28,0 44,23 66,35 11,6 30,23 40,27 48,-2 47,-3 89,20 4,1 7,5 10,7 15,16 12,54 9,73 -3,19 -27,37 -53,32 -16,-4 -34,-7 -50,-9 -16,-1 -48,-6 -62,1 -5,3 -11,15 -14,19 2,0 4,0 5,-1 26,-7 87,0 117,0 23,0 83,12 83,40 0,23 -36,11 -48,8 -8,-2 -19,-5 -28,-6 -3,-1 -7,-1 -10,-1 8,9 7,21 -9,31 -8,5 -29,9 -36,13 4,4 14,10 17,11 12,8 23,28 32,32 50,24 120,5 163,-27 21,-16 35,-38 53,-56 14,-14 28,-27 47,-36 19,-10 64,-20 64,15 0,2 0,3 -1,5 18,-4 41,2 40,24 0,3 0,5 -1,8 11,-2 23,1 29,12 10,18 2,25 -9,36 -2,1 -6,3 -11,5 5,1 10,3 14,6 24,15 8,38 -8,51 -6,4 -31,11 -39,10 -26,-1 -58,-2 -84,2 -40,4 -72,44 -103,72 63,26 37,38 136,26 27,-3 56,-29 84,-29 13,0 25,8 27,21 2,8 1,17 -4,24 0,0 0,0 -1,0 30,-1 39,28 14,46 0,0 0,0 -1,0 17,15 7,46 -32,38 7,5 11,13 9,24 -5,21 -23,19 -39,21 -33,4 -66,1 -98,-4 -72,-9 -138,-4 -209,-2 -43,120 -114,162 -186,251 36,11 67,20 102,42 32,21 59,49 67,88 9,46 -10,113 -36,151 -7,10 -36,43 -37,55 17,6 102,-11 121,-12 13,-1 38,0 49,6 20,10 22,30 10,39 12,11 9,30 -6,34 4,11 -2,22 -13,25 4,10 -4,23 -21,28 -10,4 -23,5 -34,5 -61,-2 -125,-5 -186,-11 -46,-5 -84,-32 -83,-82 1,-16 6,-32 11,-47 4,-9 28,-59 24,-66 0,-2 -5,-2 -6,-3 -43,-7 -145,77 -138,119 6,39 57,30 87,35 10,1 22,10 22,22 1,5 -2,10 -5,14 4,4 6,9 6,15 0,10 -6,16 -13,19 3,9 -1,21 -15,25 9,15 1,36 -26,32 -21,-3 -45,-10 -64,-21 -38,-21 -74,-43 -115,-60 -17,-7 -41,-12 -54,-25 -18,-17 -17,-44 -14,-66 5,-40 16,-55 11,-97 -4,-34 -32,-43 -56,-62 -34,-28 -102,-77 -99,-126 1,-24 7,-38 4,-63 -4,-32 -25,-42 -53,-52 -15,-5 -28,-13 -39,-23 -52,-48 -56,-148 -59,-214 -2,-51 -1,-153 -31,-196 -7,-11 -38,-22 -51,-22 -25,-2 -50,-13 -69,-28 -17,-13 -26,-40 -26,-60 0,-49 4,-68 58,-68 18,0 70,6 83,18 13,13 19,35 27,45 114,62 102,259 109,370 9,133 129,120 204,46 73,-71 84,-175 77,-272 -3,-33 -17,-92 19,-111 7,-4 14,-6 21,-7 -8,0 -16,0 -24,1 -17,2 -14,13 -40,9 -8,-1 -16,-5 -19,-15 -4,-15 13,-29 24,-36 12,-9 22,-19 34,-28 2,-1 8,-6 12,-10 -14,0 -39,3 -46,3 -5,0 -10,-2 -13,-5 -14,-17 25,-52 39,-73 -3,0 -7,-1 -9,-2 -5,-2 -8,-6 -9,-11 -3,-20 30,-25 40,-35 1,-10 -2,-21 -3,-31 -1,-8 0,-17 7,-22 12,-9 24,3 32,-11 4,-7 21,-22 30,-25 17,-6 18,-38 43,-27 6,3 11,6 13,10zm-96 308c12,1 22,6 31,14 -3,-5 -6,-10 -8,-14 -8,0 -15,0 -23,0zm70 52c9,-6 18,-12 27,-18l8 -5 7 5c6,5 12,9 18,14 -8,-8 -17,-15 -25,-22 -11,8 -22,16 -34,25l-1 1zm141 -290c18,1 10,-13 3,-15 -5,-1 -14,1 -21,4 -16,5 15,10 18,11z"/>
    <path class="fil5" d="M2226 3336c16,8 13,21 -3,19 -4,0 -7,-2 -11,-3 -11,-1 -21,12 -2,16 7,1 14,2 19,4 10,4 11,18 -5,13 -1,0 -7,-2 -14,-3 -13,-2 -11,7 -6,9 3,1 8,3 12,5 15,7 8,19 -6,12 -4,-2 -8,-5 -13,-5 -6,0 -12,3 -10,9 1,4 8,7 13,8 18,6 11,15 -3,19 -8,3 -21,4 -28,4 -35,-1 -132,-6 -185,-11 -56,-6 -73,-40 -72,-69 2,-55 65,-121 18,-128 -54,-9 -161,84 -153,133 8,49 62,40 98,46 5,0 11,5 11,9 1,3 -3,8 -11,8 -5,0 -14,-3 -21,-3 -12,0 -14,12 0,14 8,1 16,0 22,0 6,1 11,4 11,9 0,5 -2,9 -13,8 -7,-1 -16,-2 -23,-1 -12,1 -10,12 0,12 5,0 11,-2 16,-1 8,0 13,13 -1,15 -7,1 -17,-2 -22,-2 -9,0 -9,2 -10,5 -1,4 3,7 6,7 27,-1 31,24 8,21 -20,-2 -42,-10 -59,-19 -41,-23 -74,-44 -117,-61 -42,-18 -68,-12 -60,-77 5,-43 16,-51 10,-101 -4,-40 -31,-47 -59,-71 -46,-36 -98,-75 -95,-114 1,-23 8,-35 4,-65 -5,-38 -28,-52 -62,-63 -137,-47 -55,-333 -122,-428 -10,-15 -44,-27 -61,-28 -23,-2 -45,-12 -62,-25 -13,-11 -21,-33 -21,-50 0,-47 3,-55 45,-55 14,0 65,6 74,15 10,10 23,42 29,46 108,59 97,262 103,360 10,144 141,138 226,55 63,-62 91,-153 81,-283 -2,-22 -16,-84 12,-99 23,-12 46,-5 62,14 12,15 20,25 32,40 13,-10 28,-19 40,-27 16,11 31,22 46,33 8,-16 18,-32 26,-48 4,4 4,5 8,9 16,18 21,-2 8,-18 -7,-8 -12,-14 -19,-22 -10,14 -19,29 -29,43 -13,-11 -26,-22 -38,-33 -14,10 -28,21 -42,31 -12,-18 -23,-35 -34,-53 -24,0 -47,-1 -71,1 -21,3 -15,13 -35,9 -22,-3 1,-22 10,-28 14,-10 22,-18 34,-27 59,-44 -11,-32 -43,-31 -14,1 44,-58 44,-71 0,-6 -16,-6 -21,-8 -10,-5 36,-18 38,-30 3,-13 -1,-23 -2,-37 -3,-23 21,2 37,-24 3,-5 17,-18 23,-20 24,-8 21,-33 34,-27 18,8 3,20 0,23 -3,2 -15,15 -16,16 -2,1 19,0 23,0 22,0 35,10 43,16 15,13 26,8 17,-5 -3,-4 -9,-7 -17,-13 -10,-10 -29,-28 -22,-30 6,-2 22,-31 24,-35 4,-16 24,7 29,11 7,7 5,22 51,22 22,0 38,21 60,34 8,4 38,29 45,28 51,-2 45,-2 85,18 0,0 5,5 6,6 13,13 -3,18 -9,27 -5,8 3,17 8,21 17,14 -6,39 -32,34 -15,-3 -35,-7 -51,-9 -20,-1 -51,-6 -69,3 -9,4 -15,16 -19,23 -12,20 1,24 19,19 19,-6 91,0 114,0 16,0 70,10 70,27 0,4 -52,-10 -61,-11 -14,-2 -29,-1 -43,-1 -30,0 -22,13 -2,13 11,0 37,8 18,20 -12,7 -33,8 -42,17 -11,12 14,25 22,30 12,6 21,26 33,31 52,26 127,10 177,-28 23,-17 36,-39 54,-57 4,-3 21,-22 43,-33 20,-10 46,-14 46,3 0,13 -23,10 -25,22 -5,30 24,-1 38,-4 18,-4 26,2 26,10 0,6 0,12 -14,16 -11,4 -26,10 -20,20 7,11 32,-9 41,-12 8,-4 19,-4 23,4 7,12 -3,15 -7,19 -2,2 -29,10 -32,11 -32,2 -24,47 0,24 9,-9 26,-10 38,-3 15,9 -4,25 -10,29 -3,3 -26,8 -31,8 -25,-1 -62,-1 -85,2 -54,6 -93,65 -127,90 88,30 47,48 162,34 28,-3 61,-29 83,-29 7,0 14,5 15,10 5,27 -38,22 -38,36 0,9 25,2 43,-1 20,-2 23,12 8,22 -4,4 -21,2 -27,3 -6,0 -38,2 -30,12 3,4 35,-1 47,2 22,4 15,32 -27,15 -9,-3 -19,-2 -28,-2 -12,0 -20,7 -18,19 2,9 17,4 24,5 10,2 33,0 30,16 -3,13 -18,10 -28,12 -31,3 -64,0 -95,-4 -78,-11 -139,-5 -219,-2 -45,131 -124,172 -199,270 31,10 160,36 178,125 9,43 -10,107 -34,141 -9,13 -53,62 -33,74 18,11 99,-8 129,-10 10,-1 33,0 42,4zm-229 -1140c-9,-12 -24,-25 -33,-27 -9,-2 -29,2 -36,6 -9,5 -9,6 -6,19 2,14 55,19 66,19 21,1 22,-2 9,-17z"/>
   </g>
  </g>
 </g>
</svg>
