<?xml version="1.0" encoding="UTF-8" standalone="no"?>
<!-- Created with Inkscape (http://www.inkscape.org/) -->
<svg
   xmlns:svg="http://www.w3.org/2000/svg"
   xmlns="http://www.w3.org/2000/svg"
   version="1.0"
   width="500"
   height="590"
   id="svg2">
  <defs
     id="defs4" />
  <g
     id="g1910">
    <path
       d="M 1,1 L 499,1 L 499,365 C 499,490 375,589 250,589 C 125,589 1,490 1,365 L 1,1 z "
       style="fill:#0a5fa9;fill-opacity:1;fill-rule:evenodd;stroke:#0a5fa9;stroke-width:2;stroke-linecap:butt;stroke-linejoin:miter;stroke-miterlimit:4;stroke-dasharray:none;stroke-opacity:1"
       id="path2323" />
    <path
       d="M 122.08091,224.84734 C 122.08091,224.84734 120.08091,211.59734 122.33091,208.34734 C 124.58091,205.09734 133.58091,206.59734 135.33091,208.59734 C 137.08091,210.59734 135.83091,228.84734 135.83091,228.84734 L 122.08091,224.84734 z "
       style="fill:#f2df06;fill-opacity:1;fill-rule:evenodd;stroke:#005aa9;stroke-width:1px;stroke-linecap:butt;stroke-linejoin:miter;stroke-opacity:1"
       id="path2174" />
    <path
       d="M 149.08091,229.34734 C 149.08091,229.34734 147.08091,216.09734 149.33091,212.84734 C 151.58091,209.59734 160.58091,211.09734 162.33091,213.09734 C 164.08091,215.09734 162.83091,233.34734 162.83091,233.34734 L 149.08091,229.34734 z "
       style="fill:#f2df06;fill-opacity:1;fill-rule:evenodd;stroke:#005aa9;stroke-width:1px;stroke-linecap:butt;stroke-linejoin:miter;stroke-opacity:1"
       id="path2176" />
    <path
       d="M 282.08091,235.84734 C 282.08091,235.84734 280.08091,222.59734 282.33091,219.34734 C 284.58091,216.09734 293.58091,217.59734 295.33091,219.59734 C 297.08091,221.59734 295.83091,239.84734 295.83091,239.84734 L 282.08091,235.84734 z "
       style="fill:#f2df06;fill-opacity:1;fill-rule:evenodd;stroke:#005aa9;stroke-width:1px;stroke-linecap:butt;stroke-linejoin:miter;stroke-opacity:1"
       id="path2178" />
    <path
       d="M 307.33091,235.09734 C 307.33091,235.09734 305.33091,221.84734 307.58091,218.59734 C 309.83091,215.34734 318.83091,216.84734 320.58091,218.84734 C 322.33091,220.84734 321.08091,239.09734 321.08091,239.09734 L 307.33091,235.09734 z "
       style="fill:#f2df06;fill-opacity:1;fill-rule:evenodd;stroke:#005aa9;stroke-width:1px;stroke-linecap:butt;stroke-linejoin:miter;stroke-opacity:1"
       id="path2180" />
    <path
       d="M 37.330912,179.09733 C 42.330912,219.09733 53.665242,274.64155 69.330912,290.59733 C 82.830912,304.34733 102.82712,314.09733 111.08091,314.09733 C 136.08091,314.09733 346.08091,314.09733 346.08091,314.09733 C 361.08091,314.84733 386.49371,286.67094 401.58091,264.34733 C 416.59021,242.13904 419.37101,227.40841 427.33091,204.09733 C 427.33091,204.09733 368.52751,233.59733 247.33091,234.09733 C 126.38303,234.5963 97.330907,210.09733 72.330912,200.09733 L 72.330912,189.09733 L 37.330912,179.09733 z "
       style="fill:#f2df06;fill-opacity:1;fill-rule:evenodd;stroke:#0a5fa9;stroke-width:1px;stroke-linecap:butt;stroke-linejoin:miter;stroke-opacity:1"
       id="path2164" />
    <path
       d="M 443.33091,183.34734 L 466.33091,185.09734 C 466.33091,185.09734 453.90811,201.08934 453.69101,217.83727 C 453.32421,246.13575 453.08091,280.40735 453.08091,285.59734 C 453.08091,294.10859 442.92431,314.34734 426.58091,314.34734 C 410.48221,314.34734 374.83091,314.34734 374.83091,314.34734 C 390.80671,296.09043 400.08051,283.78919 414.08091,257.09734 C 428.02771,230.50761 443.33091,183.34734 443.33091,183.34734 z "
       style="fill:#f2df06;fill-opacity:1;fill-rule:evenodd;stroke:#005aa9;stroke-width:1px;stroke-linecap:butt;stroke-linejoin:miter;stroke-opacity:1"
       id="path2166" />
    <path
       d="M 468.58091,196.59734 C 464.40331,195.7353 442.33091,194.34734 428.33091,190.34734 C 414.33091,186.34734 394.08091,176.59734 378.83091,177.34734 C 363.58091,178.09734 349.5809,177.34734 349.8309,186.09734 C 350.0809,195.09734 389.92551,193.8121 395.58091,194.09734 C 401.21821,194.38167 418.51171,200.32797 424.83091,202.09734 C 431.08091,203.84734 461.33641,208.87249 466.08091,209.59734 C 470.58091,210.28484 472.51841,197.40984 468.58091,196.59734 z "
       style="fill:#f2df06;fill-opacity:1;fill-rule:evenodd;stroke:#005aa9;stroke-width:1px;stroke-linecap:butt;stroke-linejoin:miter;stroke-opacity:1"
       id="path2168" />
    <path
       d="M 393.08091,277.59734 C 385.21871,272.9054 377.76891,281.18127 384.58091,286.84734 C 391.26841,292.40984 415.08091,307.47234 420.83091,310.84734 C 426.76781,314.33207 436.65621,302.33618 430.58091,298.34734 C 424.39341,294.28484 400.83091,282.22234 393.08091,277.59734 z "
       style="fill:#f2df06;fill-opacity:1;fill-rule:evenodd;stroke:#005aa9;stroke-width:1px;stroke-linecap:butt;stroke-linejoin:miter;stroke-opacity:1"
       id="path2170" />
    <path
       d="M 422.33091,222.84734 C 417.46041,219.86014 412.36181,227.34201 417.58091,231.34734 C 422.95591,235.47234 433.39341,242.47234 438.83091,246.34734 C 444.10391,250.10513 450.56771,239.28735 445.08091,236.09734 C 439.70591,232.97234 427.01841,225.72234 422.33091,222.84734 z "
       style="fill:#f2df06;fill-opacity:1;fill-rule:evenodd;stroke:#005aa9;stroke-width:1px;stroke-linecap:butt;stroke-linejoin:miter;stroke-opacity:1"
       id="path2172" />
    <path
       d="M 57.788542,227.81781 C 57.788542,227.81781 122.84236,265.29447 246.58604,266.35513 C 370.32971,267.41579 411.69551,218.62542 411.69551,218.62542 C 411.69551,218.62542 374.92591,281.55793 365.02641,290.75031 C 355.12693,299.9427 328.25688,303.12468 328.25688,303.12468 C 328.25688,303.12468 138.75226,303.83179 128.85277,303.83179 C 118.95327,303.83179 110.46799,305.246 85.365702,289.68965 C 60.263412,274.1333 53.015572,195.37929 53.015572,195.37929 L 72.549392,200.24064"
       style="fill:none;fill-opacity:0.75;fill-rule:evenodd;stroke:#0a5fa9;stroke-width:2;stroke-linecap:butt;stroke-linejoin:miter;stroke-miterlimit:4;stroke-dasharray:none;stroke-opacity:1"
       id="path3132" />
    <path
       d="M 66.273822,260.34472 C 66.273822,260.34472 139.10582,297.46783 239.16142,296.40717 C 339.21703,295.34651 377.75431,272.36554 377.75431,272.36554"
       style="fill:none;fill-opacity:0.75;fill-rule:evenodd;stroke:#0a5fa9;stroke-width:2;stroke-linecap:butt;stroke-linejoin:miter;stroke-miterlimit:4;stroke-dasharray:none;stroke-opacity:1"
       id="path3134" />
    <path
       d="M 83.625,347.21875 C 55.953418,347.21875 55.952828,372.15625 28.28125,372.15625 C 16.805035,372.15625 7.7036492,368.93098 0,364.71875 L 0,365 C 3.3961688e-015,397.40463 8.4392565,428.10594 23.0625,455.84375 C 24.746846,455.99308 26.483959,456.09375 28.28125,456.09375 C 55.952829,456.09375 55.953421,431.12501 83.625,431.125 C 111.29657,431.125 111.29716,456.09376 138.96875,456.09375 C 166.64032,456.09375 166.64092,431.12501 194.3125,431.125 C 221.98407,431.125 221.98467,456.09376 249.65625,456.09375 C 277.32783,456.09375 277.32841,431.12501 305,431.125 C 332.67159,431.125 332.67216,456.09376 360.34375,456.09375 C 388.01533,456.09375 388.01593,431.12501 415.6875,431.125 C 443.35909,431.125 443.35967,456.09376 471.03125,456.09375 C 473.21186,456.09375 475.19849,455.91044 477.0625,455.625 C 491.61344,427.94544 500,397.31798 500,365 L 500,358.5 C 492.61811,365.10318 485.73689,372.15625 471.03125,372.15625 C 443.35968,372.15625 443.35909,347.21875 415.6875,347.21875 C 388.01593,347.21875 388.01532,372.15625 360.34375,372.15625 C 332.67217,372.15625 332.67158,347.21875 305,347.21875 C 277.32842,347.21875 277.32783,372.15625 249.65625,372.15625 C 221.98467,372.15625 221.98408,347.21875 194.3125,347.21875 C 166.64091,347.21875 166.64032,372.15625 138.96875,372.15625 C 111.29716,372.15625 111.29657,347.21875 83.625,347.21875 z "
       style="fill:#f2f2f2;fill-opacity:1;fill-rule:evenodd;stroke:none;stroke-width:1.05100191px;stroke-linecap:butt;stroke-linejoin:miter;stroke-opacity:1"
       id="path4123" />
    <path
       d="M 83.625,61.84375 C 55.953418,61.84375 55.952828,86.812501 28.28125,86.8125 C 16.80689,86.8125 7.7028541,83.586227 0,79.375 L 0,156.78125 C 7.7028541,160.99248 16.806889,164.1875 28.28125,164.1875 C 55.952829,164.1875 55.953421,139.25 83.625,139.25 C 111.29657,139.25 111.29716,164.18751 138.96875,164.1875 C 166.64032,164.1875 166.64092,139.25 194.3125,139.25 C 221.98407,139.25 221.98467,164.18751 249.65625,164.1875 C 277.32783,164.1875 277.32841,139.25 305,139.25 C 332.67159,139.25 332.67216,164.18751 360.34375,164.1875 C 388.01533,164.1875 388.01593,139.25 415.6875,139.25 C 443.35909,139.25 443.35967,164.18751 471.03125,164.1875 C 485.73178,164.1875 492.62102,157.16369 500,150.5625 L 500,73.15625 C 492.62102,79.757441 485.73178,86.8125 471.03125,86.8125 C 443.35968,86.8125 443.35909,61.843748 415.6875,61.84375 C 388.01593,61.84375 388.01532,86.812501 360.34375,86.8125 C 332.67217,86.8125 332.67158,61.843748 305,61.84375 C 277.32842,61.84375 277.32783,86.812501 249.65625,86.8125 C 221.98467,86.8125 221.98408,61.843748 194.3125,61.84375 C 166.64091,61.84375 166.64032,86.812501 138.96875,86.8125 C 111.29716,86.8125 111.29657,61.843748 83.625,61.84375 z "
       style="fill:#f2f2f2;fill-opacity:1;fill-rule:evenodd;stroke:none;stroke-width:1.05100191px;stroke-linecap:butt;stroke-linejoin:miter;stroke-opacity:1"
       id="path4127" />
    <path
       d="M 1,1 L 499,1 L 499,365 C 499,490 375,589 250,589 C 125,589 1,490 1,365 L 1,1 z "
       style="fill:none;fill-opacity:1;fill-rule:evenodd;stroke:#0a5fa9;stroke-width:2;stroke-linecap:butt;stroke-linejoin:miter;stroke-miterlimit:4;stroke-dasharray:none;stroke-opacity:1"
       id="path4245" />
  </g>
</svg>
