<?xml version="1.0" encoding="UTF-8" standalone="no"?>
<!-- Created with Inkscape (http://www.inkscape.org/) -->
<svg
   xmlns:dc="http://purl.org/dc/elements/1.1/"
   xmlns:cc="http://web.resource.org/cc/"
   xmlns:rdf="http://www.w3.org/1999/02/22-rdf-syntax-ns#"
   xmlns:svg="http://www.w3.org/2000/svg"
   xmlns="http://www.w3.org/2000/svg"
   xmlns:sodipodi="http://inkscape.sourceforge.net/DTD/sodipodi-0.dtd"
   xmlns:inkscape="http://www.inkscape.org/namespaces/inkscape"
   id="svg1352"
   sodipodi:version="0.32"
   inkscape:version="0.43"
   width="500"
   height="570"
   sodipodi:docbase="I:\Wikipedia\Suomi\Vaakunat"
   sodipodi:docname="vantaa.vaakuna.svg"
   version="1.0">
  <metadata
     id="metadata1357">
    <rdf:RDF>
      <cc:Work
         rdf:about="">
        <dc:format>image/svg+xml</dc:format>
        <dc:type
           rdf:resource="http://purl.org/dc/dcmitype/StillImage" />
      </cc:Work>
    </rdf:RDF>
  </metadata>
  <defs
     id="defs1355" />
  <sodipodi:namedview
     inkscape:window-height="938"
     inkscape:window-width="1280"
     inkscape:pageshadow="2"
     inkscape:pageopacity="0.0"
     borderopacity="1.0"
     bordercolor="#666666"
     pagecolor="#ffffff"
     id="base"
     gridspacingx="2px"
     gridspacingy="2px"
     gridtolerance="1px"
     showgrid="false"
     inkscape:grid-points="false"
     inkscape:zoom="0.77882761"
     inkscape:cx="178.37824"
     inkscape:cy="308.03817"
     inkscape:window-x="-4"
     inkscape:window-y="-4"
     inkscape:current-layer="layer1"
     inkscape:grid-bbox="false" />
  <g
     inkscape:groupmode="layer"
     id="layer1"
     inkscape:label="Layer 1">
    <path
       style="fill:#006bb7;fill-opacity:1;fill-rule:evenodd;stroke:#000000;stroke-width:1.00607324;stroke-linecap:butt;stroke-linejoin:miter;stroke-miterlimit:4;stroke-dasharray:none;stroke-opacity:1"
       d="M 0.68399735,0.70322315 L 499.67788,0.70322315 L 480.04155,361.19929 C 480.04155,361.19929 450.00951,569.17777 251.33603,569.17777 C 51.507449,569.17777 23.785568,361.19929 23.785568,361.19929 L 0.68399735,0.70322315 z "
       id="path1364"
       sodipodi:nodetypes="ccczcc" />
    <path
       style="fill:#fdb726;fill-opacity:1;fill-rule:evenodd;stroke:#231f20;stroke-width:4.04340076;stroke-linecap:butt;stroke-linejoin:miter;stroke-miterlimit:4;stroke-dasharray:none;stroke-opacity:1"
       d="M 145.06881,351.9558 C 145.06881,351.9558 192.42703,332.31339 223.61414,313.82641 C 235.66284,304.58277 242.09539,301.11661 242.09539,281.47419 C 242.09539,261.83178 206.28797,241.03393 153.15436,242.18937 C 102.33089,243.3448 82.694568,257.21003 72.29886,250.27743 C 61.903155,243.3448 100.02075,204.05998 116.19185,205.21541 C 134.67311,176.3295 177.411,175.17407 177.411,175.17407 C 196.35321,156.02226 228.23446,164.77515 228.23446,164.77515 C 255.93489,150.92064 270.97236,158.99796 270.97236,158.99796 C 281.36003,132.30765 302.15947,119.71314 302.15947,119.71314 C 305.21467,79.98328 346.05245,60.785895 346.05245,60.785895 C 366.21675,26.149616 396.87591,34.210871 396.87591,34.210871 C 413.98501,18.115183 444.23412,22.656505 444.23412,22.656505 C 444.23412,45.765227 419.97748,52.69785 409.58176,100.07073 C 397.80828,153.72212 408.42668,177.48494 386.4802,245.65568 C 364.42261,314.17155 333.34659,366.97647 333.34659,366.97647 L 206.28797,410.88303 L 145.06881,351.9558 z "
       id="path3116" />
    <path
       style="fill:none;fill-opacity:0.75;fill-rule:evenodd;stroke:#231f20;stroke-width:4.04340076;stroke-linecap:butt;stroke-linejoin:miter;stroke-miterlimit:4;stroke-dasharray:none;stroke-opacity:1"
       d="M 164.70513,363.51016 C 164.70513,363.51016 173.11939,355.35715 183.18639,356.57754 C 193.2534,357.79794 200.51258,366.97647 200.51258,366.97647"
       id="path1357" />
    <path
       style="fill:none;fill-opacity:0.75;fill-rule:evenodd;stroke:#231f20;stroke-width:4.04340076;stroke-linecap:butt;stroke-linejoin:miter;stroke-miterlimit:4;stroke-dasharray:none;stroke-opacity:1"
       d="M 160.53836,345.09483 C 160.53836,345.09483 171.17146,353.99573 182.03132,354.26666 C 192.89118,354.53762 193.58211,346.46747 203.97781,347.33405 C 214.3735,348.20063 223.61414,357.73298 223.61414,357.73298"
       id="path1355" />
    <path
       style="fill:none;fill-opacity:0.75;fill-rule:evenodd;stroke:#231f20;stroke-width:4.04340076;stroke-linecap:butt;stroke-linejoin:miter;stroke-miterlimit:4;stroke-dasharray:none;stroke-opacity:1"
       d="M 185.88647,334.43381 C 185.88647,334.43381 193.96835,344.97558 203.97781,345.02318 C 213.98727,345.07078 214.95106,335.49083 225.92429,335.7797 C 236.89755,336.06856 235.74246,345.31203 246.71571,345.02318 C 257.68894,344.73432 258.84403,335.49083 269.81729,335.7797 C 280.79052,336.06856 279.34667,345.02318 290.60868,345.02318 C 301.87071,345.02318 302.73703,336.06856 314.86533,334.62426 C 326.99366,333.17996 326.41613,340.97916 335.65675,340.40143 C 344.89738,339.82372 351.82784,332.31339 351.82784,332.31339"
       id="path1353" />
    <path
       style="fill:none;fill-opacity:0.75;fill-rule:evenodd;stroke:#231f20;stroke-width:4.04340076;stroke-linecap:butt;stroke-linejoin:miter;stroke-miterlimit:4;stroke-dasharray:none;stroke-opacity:1"
       d="M 275.75704,352.29824 C 275.75704,352.29824 282.56422,346.55308 291.76377,347.33405 C 300.96331,348.11501 300.13808,355.13324 311.4001,354.26666 C 322.66212,353.40009 327.5712,342.71231 335.65675,342.71231 C 343.8244,342.71231 343.74229,345.02318 343.74229,345.02318"
       id="path1351" />
    <path
       style="fill:none;fill-opacity:0.75;fill-rule:evenodd;stroke:#231f20;stroke-width:4.04340076;stroke-linecap:butt;stroke-linejoin:miter;stroke-miterlimit:4;stroke-dasharray:none;stroke-opacity:1"
       d="M 297.07248,361.80671 C 297.07248,361.80671 304.32572,356.57754 313.71026,356.57754 C 322.9509,356.57754 333.34659,366.97647 333.34659,366.97647"
       id="path1349" />
    <path
       style="fill:none;fill-opacity:0.75;fill-rule:evenodd;stroke:#231f20;stroke-width:4.04340076;stroke-linecap:butt;stroke-linejoin:miter;stroke-miterlimit:4;stroke-dasharray:none;stroke-opacity:1"
       d="M 206.33778,323.48465 C 206.33778,323.48465 215.82982,332.70594 225.92429,333.46882 C 236.01878,334.23172 234.87615,327.11392 245.56063,326.53621 C 256.24511,325.95849 258.26649,333.46882 269.81729,333.46882 C 281.36806,333.46882 281.36806,326.82506 292.91884,326.53621 C 304.46964,326.24734 303.60333,332.31339 314.86533,331.15795 C 326.12735,330.00252 328.14874,323.35876 337.96691,321.91445 C 347.78507,320.47016 354.138,325.38076 354.138,325.38076"
       id="path1347" />
    <path
       style="fill:none;fill-opacity:0.75;fill-rule:evenodd;stroke:#231f20;stroke-width:4.04340076;stroke-linecap:butt;stroke-linejoin:miter;stroke-miterlimit:4;stroke-dasharray:none;stroke-opacity:1"
       d="M 225.06081,313.39988 C 225.06081,313.39988 234.37151,323.82984 245.56063,324.22533 C 256.74975,324.62083 257.97773,315.27069 269.81729,314.98184 C 281.65683,314.69299 282.81191,323.64762 294.07393,323.06988 C 305.33595,322.49218 303.89209,313.82641 314.86533,312.67096 C 325.83858,311.51554 327.85997,319.60359 337.96691,318.44815 C 348.07385,317.29272 349.22892,310.64896 355.29307,308.04923 C 361.35724,305.4495 362.22355,308.04923 362.22355,308.04923"
       id="path1345" />
    <path
       style="fill:none;fill-opacity:0.75;fill-rule:evenodd;stroke:#231f20;stroke-width:4.04340076;stroke-linecap:butt;stroke-linejoin:miter;stroke-miterlimit:4;stroke-dasharray:none;stroke-opacity:1"
       d="M 236.58269,303.027 C 236.58269,303.027 238.63016,302.27205 246.71571,303.42749 C 254.80126,304.58291 256.53386,311.22668 268.6622,311.51554 C 280.79052,311.80438 280.21297,302.84976 291.76377,302.27205 C 303.31456,301.69432 303.89209,309.78239 314.86533,309.20467 C 325.83858,308.62694 323.81721,300.82774 335.65675,299.96117 C 347.49631,299.09459 351.85387,306.8909 362.22355,305.73835"
       id="path1343" />
    <path
       style="fill:none;fill-opacity:0.75;fill-rule:evenodd;stroke:#231f20;stroke-width:4.04340076;stroke-linecap:butt;stroke-linejoin:miter;stroke-miterlimit:4;stroke-dasharray:none;stroke-opacity:1"
       d="M 239.17509,298.70497 C 239.17509,298.70497 238.18887,302.82458 245.56063,301.11661 C 252.93239,299.40865 258.26649,293.02855 269.81729,293.02855 C 281.36806,293.02855 281.07928,301.69432 291.76377,301.11661 C 302.44824,300.5389 300.71562,292.7397 311.4001,291.87311 C 322.08458,291.00655 322.9509,298.22801 334.50167,297.6503 C 346.05245,297.07258 343.74229,289.56224 354.138,288.4068 C 364.5337,287.25137 370.30909,291.87311 370.30909,291.87311"
       id="path1341" />
    <path
       style="fill:none;fill-opacity:0.75;fill-rule:evenodd;stroke:#231f20;stroke-width:4.04340076;stroke-linecap:butt;stroke-linejoin:miter;stroke-miterlimit:4;stroke-dasharray:none;stroke-opacity:1"
       d="M 273.45266,292.94224 C 273.45266,292.94224 282.2769,284.91892 291.76377,283.78507 C 301.25062,282.65121 301.00439,288.98453 311.4001,288.4068 C 321.79581,287.82909 320.64073,282.05192 332.19152,281.47419 C 343.74229,280.89647 342.87599,286.38479 352.98291,287.25137 C 363.08986,288.11795 373.77433,283.78507 373.77433,283.78507"
       id="path1339" />
    <path
       style="fill:none;fill-opacity:0.75;fill-rule:evenodd;stroke:#231f20;stroke-width:4.04340076;stroke-linecap:butt;stroke-linejoin:miter;stroke-miterlimit:4;stroke-dasharray:none;stroke-opacity:1"
       d="M 257.034,294.38292 C 262.88681,232.94588 179.72116,197.12736 117.34693,205.21541"
       id="path1337" />
    <path
       style="fill:none;fill-opacity:0.75;fill-rule:evenodd;stroke:#231f20;stroke-width:4.04340076;stroke-linecap:butt;stroke-linejoin:miter;stroke-miterlimit:4;stroke-dasharray:none;stroke-opacity:1"
       d="M 268.84392,291.78971 C 279.50165,237.62015 234.00984,201.74911 178.56608,175.17407"
       id="path1335" />
    <path
       style="fill:none;fill-opacity:0.75;fill-rule:evenodd;stroke:#231f20;stroke-width:4.04340076;stroke-linecap:butt;stroke-linejoin:miter;stroke-miterlimit:4;stroke-dasharray:none;stroke-opacity:1"
       d="M 284.11038,285.45071 C 290.60868,244.50024 276.74774,212.14802 228.23446,164.77515"
       id="path1333" />
    <path
       style="fill:none;fill-opacity:0.75;fill-rule:evenodd;stroke:#231f20;stroke-width:4.04340076;stroke-linecap:butt;stroke-linejoin:miter;stroke-miterlimit:4;stroke-dasharray:none;stroke-opacity:1"
       d="M 298.80078,284.29816 C 298.80078,284.29816 328.29365,230.74091 270.97236,157.84254"
       id="path1331" />
    <path
       style="fill:none;fill-opacity:0.75;fill-rule:evenodd;stroke:#231f20;stroke-width:4.04340076;stroke-linecap:butt;stroke-linejoin:miter;stroke-miterlimit:4;stroke-dasharray:none;stroke-opacity:1"
       d="M 316.08358,286.31511 C 316.08358,286.31511 350.55132,218.54086 302.15947,118.5577"
       id="path1329" />
    <path
       style="fill:none;fill-opacity:0.75;fill-rule:evenodd;stroke:#231f20;stroke-width:4.04340076;stroke-linecap:butt;stroke-linejoin:miter;stroke-miterlimit:4;stroke-dasharray:none;stroke-opacity:1"
       d="M 337.68708,281.12867 C 337.68708,281.12867 354.138,239.8785 352.98291,197.12736 C 351.82658,154.32945 347.78507,148.02132 346.05245,113.93596 C 344.31983,79.850589 346.05245,60.785895 346.05245,60.785895"
       id="path1327" />
    <path
       style="fill:none;fill-opacity:0.75;fill-rule:evenodd;stroke:#231f20;stroke-width:4.04340076;stroke-linecap:butt;stroke-linejoin:miter;stroke-miterlimit:4;stroke-dasharray:none;stroke-opacity:1"
       d="M 350.64918,286.60325 C 350.64918,286.60325 370.30909,245.65568 374.92941,201.74911 C 379.56395,157.70741 372.90802,152.3542 378.39465,110.46966 C 383.88127,68.585096 396.87591,34.210871 396.87591,34.210871"
       id="path1325" />
    <path
       sodipodi:nodetypes="cczzzzzcczzzzzzzc"
       id="path3112"
       d="M 480.04155,361.19929 C 480.04155,361.19929 470.44723,427.64213 426.22991,485.41862 C 425.75287,485.98637 403.80639,473.27659 381.85989,473.27659 C 359.9134,473.27659 348.36261,491.76356 320.64073,491.76356 C 292.91884,491.76356 285.98838,473.27659 255.95633,473.27659 C 223.61414,473.27659 220.1489,491.76356 190.11686,491.76356 C 156.61959,491.76356 146.22387,473.27659 121.96724,473.27659 C 97.710588,473.27659 79.229332,488.29725 79.036868,488.80016 C 32.991897,430.26814 23.785568,361.19929 23.785568,361.19929 C 23.785568,361.19929 32.560757,369.30951 57.282841,368.13192 C 81.53949,366.97647 89.047499,348.48949 121.96724,348.48949 C 154.88698,348.48949 156.05924,368.13192 188.96179,368.13192 C 221.86433,368.13192 220.6577,348.48949 253.57743,348.48949 C 286.49716,348.48949 287.41503,368.13192 320.64073,368.13192 C 353.86641,368.13192 353.2717,348.48949 386.4802,348.48949 C 419.6887,348.48949 430.37317,368.13192 453.47475,368.13192 C 476.60518,368.13192 480.04155,361.19929 480.04155,361.19929 z "
       style="fill:#cacbcd;fill-opacity:1;fill-rule:evenodd;stroke:#000000;stroke-width:1.00607324;stroke-linecap:butt;stroke-linejoin:miter;stroke-miterlimit:4;stroke-dasharray:none;stroke-opacity:1" />
  </g>
</svg>
