<?xml version="1.0" encoding="UTF-8" standalone="no"?>
<svg
   xmlns:dc="http://purl.org/dc/elements/1.1/"
   xmlns:cc="http://creativecommons.org/ns#"
   xmlns:rdf="http://www.w3.org/1999/02/22-rdf-syntax-ns#"
   xmlns:svg="http://www.w3.org/2000/svg"
   xmlns="http://www.w3.org/2000/svg"
   xmlns:sodipodi="http://sodipodi.sourceforge.net/DTD/sodipodi-0.dtd"
   xmlns:inkscape="http://www.inkscape.org/namespaces/inkscape"
   id="svg"
   version="1.1"
   width="400"
   height="455"
   viewBox="0, 0, 400,455"
   sodipodi:docname="Vestfold Og Telemark.svg"
   inkscape:version="0.92.4 (5da689c313, 2019-01-14)">
  <metadata
     id="metadata10">
    <rdf:RDF>
      <cc:Work
         rdf:about="">
        <dc:format>image/svg+xml</dc:format>
        <dc:type
           rdf:resource="http://purl.org/dc/dcmitype/StillImage" />
        <dc:title></dc:title>
      </cc:Work>
    </rdf:RDF>
  </metadata>
  <defs
     id="defs8" />
  <sodipodi:namedview
     pagecolor="#ffffff"
     bordercolor="#666666"
     borderopacity="1"
     objecttolerance="10"
     gridtolerance="10"
     guidetolerance="10"
     inkscape:pageopacity="0"
     inkscape:pageshadow="2"
     inkscape:window-width="1920"
     inkscape:window-height="1027"
     id="namedview6"
     showgrid="false"
     inkscape:zoom="1.3"
     inkscape:cx="-6.2923729"
     inkscape:cy="227.5"
     inkscape:window-x="-8"
     inkscape:window-y="-8"
     inkscape:window-maximized="1"
     inkscape:current-layer="svg" />
  <g
     id="svgg">
    <path
       id="path0"
       d="m 178.605,37.501 c -5.939,11.42 -21.156,15.62 -52.405,14.463 -25.12,-0.931 -30.786,-0.44 -42.457,3.678 -42.007,14.823 -59.085,70.555 -33.517,109.38 23.564,35.782 73.567,43.697 97.143,15.378 3.402,-4.086 -0.949,5.755 -4.879,11.034 -23.018,30.927 -81.265,26.195 -97.735,-7.94 -1.069,-2.214 -1.313,-2.209 -3.045,0.055 -4.41,5.767 -2.785,17.344 2.931,20.877 1.272,0.785 1.284,0.823 1.431,4.483 0.36,8.924 8.156,16.063 21.328,19.529 3.763,0.99 12.255,1.456 14.989,0.822 2.565,-0.595 2.447,-0.376 -1.056,1.962 -22.708,15.152 -33.76,34.92 -27.03,48.344 1.889,3.767 2.292,3.895 2.317,0.733 0.078,-9.982 7.235,-16.601 36.309,-33.582 31.84,-18.597 46.015,-30.095 56.014,-45.434 20.776,-31.872 12.908,-74.501 -13.743,-74.466 -17.845,0.023 -23.465,23.676 -7.635,32.134 l 2.549,1.361 -1.757,1.293 c -16.121,11.864 -46.92,9.098 -64.129,-5.757 -11.702,-10.102 -15.962,-27.646 -9.773,-40.248 6.85,-13.948 24.973,-18.176 37.47,-8.741 2.374,1.793 2.458,2.261 0.275,1.541 -14.632,-4.829 -22.903,16.532 -9.012,23.274 9.347,4.536 18.412,-3.255 18.412,-15.826 0,-20.935 -20.762,-35.081 -40.052,-27.289 -3.062,1.236 -3.203,1.14 -1.512,-1.041 8.947,-11.535 18.416,-16.957 31.63,-18.112 16.062,-1.404 31.134,8.97 31.134,21.43 0,2.67 0.299,2.874 1.728,1.176 1.47,-1.747 2.361,-4.852 2.361,-8.23 0,-10.514 -7.098,-19.267 -18.652,-23 -3.698,-1.194 -3.126,-1.35 2.968,-0.812 19.376,1.714 33.313,11.108 35.619,24.01 2.046,11.445 -9.234,22.304 -20.39,19.628 -2.504,-0.6 -2.56,-0.561 -1.726,1.201 1.643,3.47 7.921,8.387 13.338,10.445 15.283,5.807 32.376,-6.577 32.348,-23.438 -0.012,-7.394 -1.963,-12.071 -8.218,-19.699 l -1.052,-1.283 0.938,-0.185 c 18.855,-3.722 26.685,-16.905 19.452,-32.749 -1.489,-3.263 -1.425,-3.254 -2.909,-0.399 m 40.454,-1.447 c -1.228,1.875 -2.65,6.384 -3.116,9.885 -1.607,12.072 5.852,21.433 19.296,24.215 3.598,0.745 3.574,0.707 1.706,2.738 -20.949,22.759 4.929,55.946 30.655,39.312 3.614,-2.337 8.716,-8.021 7.917,-8.82 -0.078,-0.078 -1.351,0.065 -2.829,0.318 -11.593,1.986 -22.067,-8.752 -19.7,-20.196 2.871,-13.882 19.84,-24.184 39.328,-23.876 l 1.884,0.03 -2.667,0.932 c -12.069,4.222 -18.916,12.574 -18.859,23.008 0.021,3.851 0.777,6.383 2.416,8.094 1.456,1.52 1.709,1.402 1.715,-0.794 0.017,-6.904 5.15,-14.028 12.844,-17.825 17.511,-8.642 38.86,-1.797 51.332,16.457 2.309,3.378 2.259,3.63 -0.39,1.98 -15.8,-9.84 -37.916,-1.778 -44.253,16.131 -4.329,12.232 -0.095,24.541 9.412,27.364 2.529,0.752 2.612,0.628 1.127,-1.692 -10.357,-16.185 2.105,-34.025 20.485,-29.325 16.463,4.211 23.972,23.837 15.538,40.61 -11.491,22.85 -48.255,31.954 -70.682,17.503 l -2.782,-1.793 2.275,-1.132 c 16.071,-8.001 10.87,-32.352 -6.911,-32.363 -31.132,-0.017 -34.883,50.563 -6.22,83.883 10.518,12.227 22.181,20.799 53.22,39.116 23.649,13.955 31.753,21.981 31.393,31.091 -0.097,2.443 -0.107,2.431 1.22,1.486 2.568,-1.829 4.787,-7.616 4.787,-12.486 0,-10.833 -10.365,-22.44 -32.5,-36.396 -5.978,-3.769 -5.924,-3.676 -2.216,-3.826 7.872,-0.318 19.088,-4.193 26.868,-9.28 13.281,-8.686 19.07,-20.846 16.676,-35.034 -0.697,-4.133 -0.883,-4.187 -2.643,-0.765 -11.91,23.151 -45.51,34.218 -73.892,24.339 -14.967,-5.209 -28.059,-17.974 -31.43,-30.643 -0.516,-1.943 -0.473,-1.918 1.436,0.8 17.554,24.998 60.454,24.362 87.249,-1.294 14.841,-14.211 22.521,-32.301 22.586,-53.206 0.034,-10.861 -0.638,-14.451 -5.73,-30.6 -5.811,-18.427 -7.753,-29.395 -6.478,-36.574 l 0.279,-1.573 2.426,0.099 c 11.585,0.473 13.178,-16.091 1.708,-17.76 -11.663,-1.698 -17.486,13.639 -12.121,31.92 0.531,1.808 0.969,3.498 0.974,3.755 0.004,0.257 -2.107,-1.636 -4.692,-4.208 C 321.274,53.317 311.011,50.512 273,51.97 241.848,53.165 227.648,49.154 220.896,37.254 l -1.217,-2.146 -0.62,0.946 m -175.185,2.5 C 34.776,41.95 36.717,54.615 46.471,55.5 l 2.329,0.211 v 2.881 c 0,5.222 -2.632,12.755 -6.151,17.608 -3.962,5.462 4.12,0.071 8.902,-5.939 9.282,-11.665 9.44,-26.411 0.332,-31.111 -2.01,-1.038 -6.025,-1.337 -8.009,-0.596 m 272.656,73.459 c -8.898,3.527 -9.353,15.952 -0.751,20.511 3.873,2.052 10.587,0.842 13.456,-2.425 8.001,-9.113 -1.438,-22.551 -12.705,-18.086 m -121.886,-0.085 c -0.111,0.181 -0.206,10.306 -0.209,22.5 -0.01,32.025 -1.592,40.783 -10.995,60.872 -18.351,39.204 -61.608,79.441 -98.135,91.282 -1.153,0.374 -2.2,0.848 -2.327,1.054 -1.191,1.927 2.823,31.164 4.279,31.164 1.956,0 21.982,-9.63 29.943,-14.399 37.799,-22.643 64.36,-53.03 76.921,-88.001 0.582,-1.62 0.2,0.921 -0.691,4.601 -10.127,41.8 -48.918,84.6 -96.288,106.242 -2.938,1.343 -5.468,2.557 -5.623,2.7 -1.194,1.101 11.602,19.257 13.573,19.257 0.348,0 2.63,-1.104 5.071,-2.454 39.841,-22.03 69.052,-53.065 82.212,-87.346 2.244,-5.846 2.468,-5.834 1.042,0.053 -8.572,35.383 -35.951,69.811 -75.317,94.711 -2.035,1.287 -3.7,2.475 -3.7,2.641 0,1.008 18.775,11.195 20.632,11.195 0.14,0 1.45,-0.939 2.911,-2.088 28.152,-22.122 46.014,-45.624 56.178,-73.912 0.585,-1.628 0.198,0.93 -0.704,4.653 -6.169,25.463 -26.856,57.561 -47.536,73.758 -1.666,1.306 -1.571,1.366 7.926,4.953 l 8.793,3.322 0.943,-0.843 c 8.915,-7.966 22.785,-29.946 28.865,-45.742 2.212,-5.748 2.43,-5.715 1.009,0.152 -3.713,15.327 -11.344,31.345 -21.654,45.454 -3.105,4.25 -3.194,3.567 0.72,5.535 13.539,6.807 20.977,16.577 21.841,28.689 l 0.276,3.869 4.968,0.113 c 5.614,0.127 5.616,0.126 5.626,-2.778 0.039,-11.986 8.06,-22.923 21.923,-29.893 3.926,-1.974 3.885,-1.16 0.312,-6.118 -10.523,-14.603 -18.986,-32.859 -21.565,-46.518 -0.701,-3.712 -0.378,-3.488 1.144,0.794 5.276,14.837 17.019,33.847 27.875,45.126 l 2.117,2.199 8.8,-3.344 c 4.84,-1.839 8.8,-3.493 8.8,-3.675 0,-0.182 -2.242,-2.485 -4.983,-5.118 -23.536,-22.613 -38.386,-46.737 -43.608,-70.838 -0.861,-3.976 -0.861,-5.367 0,-2.677 6.644,20.757 23.276,44.65 43.791,62.908 4.994,4.444 14.296,12.019 14.76,12.019 1.419,0 16.59,-7.927 19.751,-10.319 l 1.311,-0.993 -2.149,-1.295 c -39.244,-23.64 -69.334,-61.076 -77.3,-96.172 -0.811,-3.573 -1.033,-5.8 -0.397,-3.978 12.721,36.43 42.026,68.481 83.661,91.503 2.441,1.35 4.711,2.454 5.044,2.454 1.333,0 8.93,-9.648 11.811,-15 2.397,-4.45 2.409,-4.111 -0.196,-5.262 -50.092,-22.127 -91.551,-67.343 -100.24,-109.325 -0.548,-2.649 -0.598,-4.278 -0.085,-2.77 11.574,34.026 39.691,65.854 78.029,88.328 8.174,4.792 26.721,13.629 28.603,13.629 0.164,0 0.666,-1.485 1.116,-3.3 1.842,-7.443 2.751,-14.531 2.96,-23.076 l 0.121,-4.975 -5.8,-2.124 C 267.153,269.343 225.097,226.38 210.761,183.129 c -5.1,-15.388 -5.94,-22.837 -5.953,-52.829 L 204.8,111.6 h -4.976 c -2.737,0 -5.068,0.148 -5.18,0.328"
       inkscape:connector-curvature="0"
       style="display:inline;fill:#fbcb04;fill-rule:evenodd;stroke:none"
       sodipodi:nodetypes="cccsccccccccccccccccccccccscccscscccccccccccccccccsccccccccccccccccccccccccscccccccccccccccccccccccccscccccccccccccscccccsccccssccccccccccccccccccccccsccccsccccccscccccscccccccsc" />
    <path
       id="path1"
       d="m 6.511,138.1 c 0.1,101.63 0.242,132.431 0.622,134.9 0.27,1.76 0.769,5.45 1.108,8.2 1.835,14.893 7.559,35.839 13.203,48.312 0.526,1.161 0.956,2.196 0.956,2.299 0,0.103 1.332,2.932 2.959,6.288 27.653,57.01 80.442,96.523 142.808,106.89 28.632,4.76 63.414,2.479 88.233,-5.785 1.21,-0.403 3.46,-1.13 5,-1.615 25.681,-8.097 49.45,-22.615 73.945,-45.167 28.985,-26.684 51.345,-71.717 56.218,-113.222 1.644,-14.001 1.638,-13.484 1.638,-145.1 L 393.2,6.4 H 199.791 6.381 l 0.13,131.7 M 181.514,37.9 c 7.233,15.844 -0.597,29.027 -19.452,32.749 l -0.938,0.185 1.052,1.283 c 6.255,7.628 8.206,12.305 8.218,19.699 0.028,16.861 -17.065,29.245 -32.348,23.438 -5.417,-2.058 -11.695,-6.975 -13.338,-10.445 -0.834,-1.762 -0.778,-1.801 1.726,-1.201 11.156,2.676 22.436,-8.183 20.39,-19.628 -2.306,-12.902 -16.243,-22.296 -35.619,-24.01 -6.094,-0.538 -6.666,-0.382 -2.968,0.812 11.554,3.733 18.652,12.486 18.652,23 0,3.378 -0.891,6.483 -2.361,8.23 -1.429,1.698 -1.728,1.494 -1.728,-1.176 0,-12.46 -15.072,-22.834 -31.134,-21.43 -13.214,1.155 -22.683,6.577 -31.63,18.112 -1.691,2.181 -1.55,2.277 1.512,1.041 19.29,-7.792 40.052,6.354 40.052,27.289 0,12.571 -9.065,20.362 -18.412,15.826 -13.891,-6.742 -5.62,-28.103 9.012,-23.274 2.183,0.72 2.099,0.252 -0.275,-1.541 -12.497,-9.435 -30.62,-5.207 -37.47,8.741 -6.189,12.602 -1.929,30.146 9.773,40.248 17.209,14.855 48.008,17.621 64.129,5.757 l 1.757,-1.293 -2.549,-1.361 c -15.83,-8.458 -10.21,-32.111 7.635,-32.134 26.651,-0.035 34.519,42.594 13.743,74.466 -9.999,15.339 -24.174,26.837 -56.014,45.434 -29.074,16.981 -36.231,23.6 -36.309,33.582 -0.025,3.162 -0.428,3.034 -2.317,-0.733 -6.73,-13.424 4.322,-33.192 27.03,-48.344 3.503,-2.338 3.621,-2.557 1.056,-1.962 -2.734,0.634 -11.226,0.168 -14.989,-0.822 -13.172,-3.466 -20.968,-10.605 -21.328,-19.529 -0.147,-3.66 -0.159,-3.698 -1.431,-4.483 -5.716,-3.533 -7.341,-15.11 -2.931,-20.877 1.732,-2.264 1.976,-2.269 3.045,-0.055 16.47,34.135 74.717,38.867 97.735,7.94 3.93,-5.279 8.281,-15.12 4.879,-11.034 -23.576,28.319 -73.579,20.404 -97.143,-15.378 -25.568,-38.825 -8.49,-94.557 33.517,-109.38 11.671,-4.118 17.337,-4.609 42.457,-3.678 31.249,1.157 46.466,-3.043 52.405,-14.463 1.484,-2.855 1.42,-2.864 2.909,0.399 m 42.147,3.36 c 7.118,8.56 21.876,11.763 49.339,10.71 38.011,-1.458 48.274,1.347 64.7,17.689 2.585,2.572 4.696,4.465 4.692,4.208 -0.005,-0.257 -0.443,-1.947 -0.974,-3.755 -5.365,-18.281 0.458,-33.618 12.121,-31.92 11.47,1.669 9.877,18.233 -1.708,17.76 l -2.426,-0.099 -0.279,1.573 c -1.275,7.179 0.667,18.147 6.478,36.574 7.829,24.829 7.912,40.427 0.312,58.772 -18.653,45.021 -80.364,60.581 -104.417,26.328 -1.909,-2.718 -1.952,-2.743 -1.436,-0.8 2.729,10.258 13.238,22.109 24.743,27.903 14.344,7.224 35.745,8.293 51.285,2.563 13.593,-5.011 23.754,-13.392 29.294,-24.162 1.76,-3.422 1.946,-3.368 2.643,0.765 2.394,14.188 -3.395,26.348 -16.676,35.034 -7.78,5.087 -18.996,8.962 -26.868,9.28 -3.708,0.15 -3.762,0.057 2.216,3.826 22.135,13.956 32.5,25.563 32.5,36.396 0,4.87 -2.219,10.657 -4.787,12.486 -1.327,0.945 -1.317,0.957 -1.22,-1.486 0.36,-9.11 -7.744,-17.136 -31.393,-31.091 -31.039,-18.317 -42.702,-26.889 -53.22,-39.116 -28.663,-33.32 -24.912,-83.9 6.22,-83.883 17.781,0.011 22.982,24.362 6.911,32.363 l -2.275,1.132 2.782,1.793 c 22.427,14.451 59.191,5.347 70.682,-17.503 8.434,-16.773 0.925,-36.399 -15.538,-40.61 -18.38,-4.7 -30.842,13.14 -20.485,29.325 1.485,2.32 1.402,2.444 -1.127,1.692 -9.507,-2.823 -13.741,-15.132 -9.412,-27.364 6.337,-17.909 28.453,-25.971 44.253,-16.131 2.649,1.65 2.699,1.398 0.39,-1.98 -12.472,-18.254 -33.821,-25.099 -51.332,-16.457 -7.694,3.797 -12.827,10.921 -12.844,17.825 -0.006,2.196 -0.259,2.314 -1.715,0.794 -1.639,-1.711 -2.395,-4.243 -2.416,-8.094 -0.057,-10.434 6.79,-18.786 18.859,-23.008 l 2.667,-0.932 -1.884,-0.03 c -19.488,-0.308 -36.457,9.994 -39.328,23.876 -2.367,11.444 8.107,22.182 19.7,20.196 1.478,-0.253 2.751,-0.396 2.829,-0.318 0.799,0.799 -4.303,6.483 -7.917,8.82 -25.726,16.634 -51.604,-16.553 -30.655,-39.312 1.868,-2.031 1.892,-1.993 -1.706,-2.738 -13.444,-2.782 -20.903,-12.143 -19.296,-24.215 0.466,-3.501 1.888,-8.01 3.116,-9.885 l 0.62,-0.946 1.217,2.146 c 0.67,1.18 1.914,2.983 2.765,4.006 M 51.883,39.15 c 9.108,4.7 8.95,19.446 -0.332,31.111 C 46.769,76.271 38.687,81.662 42.649,76.2 46.168,71.347 48.8,63.814 48.8,58.592 V 55.711 L 46.471,55.5 C 37.997,54.732 35.01,45.37 41.48,39.862 43.803,37.885 48.773,37.544 51.883,39.15 m 273.964,73.168 c 10.964,5.621 7.256,21.105 -5.047,21.073 -10.251,-0.026 -15.148,-11.749 -7.925,-18.972 3.181,-3.181 9.02,-4.127 12.972,-2.101 M 204.808,130.3 c 0.013,29.992 0.853,37.441 5.953,52.829 14.336,43.251 56.392,86.214 100.039,102.196 l 5.8,2.124 -0.121,4.975 c -0.209,8.545 -1.118,15.633 -2.96,23.076 -0.45,1.815 -0.952,3.3 -1.116,3.3 -1.882,0 -20.429,-8.837 -28.603,-13.629 -38.338,-22.474 -66.455,-54.302 -78.029,-88.328 -0.513,-1.508 -0.463,0.121 0.085,2.77 8.689,41.982 50.148,87.198 100.24,109.325 2.605,1.151 2.593,0.812 0.196,5.262 -2.881,5.352 -10.478,15 -11.811,15 -0.333,0 -2.603,-1.104 -5.044,-2.454 -41.635,-23.022 -70.94,-55.073 -83.661,-91.503 -0.636,-1.822 -0.414,0.405 0.397,3.978 7.966,35.096 38.056,72.532 77.3,96.172 l 2.149,1.295 -1.311,0.993 C 281.15,360.073 265.979,368 264.56,368 c -0.464,0 -9.766,-7.575 -14.76,-12.019 -20.515,-18.258 -37.147,-42.151 -43.791,-62.908 -0.861,-2.69 -0.861,-1.299 0,2.677 5.222,24.101 20.072,48.225 43.608,70.838 2.741,2.633 4.983,4.936 4.983,5.118 0,0.182 -3.96,1.836 -8.8,3.675 l -8.8,3.344 -2.117,-2.199 c -10.856,-11.279 -22.599,-30.289 -27.875,-45.126 -1.522,-4.282 -1.845,-4.506 -1.144,-0.794 2.579,13.659 11.042,31.915 21.565,46.518 3.573,4.958 3.614,4.144 -0.312,6.118 -13.863,6.97 -21.884,17.907 -21.923,29.893 -0.01,2.904 -0.012,2.905 -5.626,2.778 l -4.968,-0.113 -0.276,-3.869 c -0.864,-12.112 -8.302,-21.882 -21.841,-28.689 -3.914,-1.968 -3.825,-1.285 -0.72,-5.535 10.31,-14.109 17.941,-30.127 21.654,-45.454 1.421,-5.867 1.203,-5.9 -1.009,-0.152 -6.08,15.796 -19.95,37.776 -28.865,45.742 l -0.943,0.843 -8.793,-3.322 c -9.497,-3.587 -9.592,-3.647 -7.926,-4.953 20.68,-16.197 41.367,-48.295 47.536,-73.758 0.902,-3.723 1.289,-6.281 0.704,-4.653 -10.164,28.288 -28.026,51.79 -56.178,73.912 -1.461,1.149 -2.771,2.088 -2.911,2.088 -1.857,0 -20.632,-10.187 -20.632,-11.195 0,-0.166 1.665,-1.354 3.7,-2.641 39.366,-24.9 66.745,-59.328 75.317,-94.711 1.426,-5.887 1.202,-5.899 -1.042,-0.053 -13.16,34.281 -42.371,65.316 -82.212,87.346 -2.441,1.35 -4.723,2.454 -5.071,2.454 -1.971,0 -14.767,-18.156 -13.573,-19.257 0.155,-0.143 2.685,-1.357 5.623,-2.7 47.37,-21.642 86.161,-64.442 96.288,-106.242 0.891,-3.68 1.273,-6.221 0.691,-4.601 -12.561,34.971 -39.122,65.358 -76.921,88.001 -7.961,4.769 -27.987,14.399 -29.943,14.399 -1.456,0 -5.47,-29.237 -4.279,-31.164 0.127,-0.206 1.174,-0.68 2.327,-1.054 36.527,-11.841 79.784,-52.078 98.135,-91.282 9.403,-20.089 10.985,-28.847 10.995,-60.872 0.003,-12.194 0.098,-22.319 0.209,-22.5 0.112,-0.18 2.443,-0.328 5.18,-0.328 h 4.976 l 0.008,18.7"
       inkscape:connector-curvature="0"
       style="display:inline;fill:#e4042b;fill-rule:evenodd;stroke:none" />
  </g>
</svg>
