<?xml version="1.0" encoding="UTF-8" standalone="no"?>
<!-- Created with Inkscape (http://www.inkscape.org/) -->

<svg
   xmlns:dc="http://purl.org/dc/elements/1.1/"
   xmlns:cc="http://creativecommons.org/ns#"
   xmlns:rdf="http://www.w3.org/1999/02/22-rdf-syntax-ns#"
   xmlns:svg="http://www.w3.org/2000/svg"
   xmlns="http://www.w3.org/2000/svg"
   xmlns:sodipodi="http://sodipodi.sourceforge.net/DTD/sodipodi-0.dtd"
   xmlns:inkscape="http://www.inkscape.org/namespaces/inkscape"
   width="248.22409mm"
   height="297.10049mm"
   viewBox="0 0 248.22409 297.10049"
   version="1.1"
   id="svg8"
   inkscape:version="0.92.3 (2405546, 2018-03-11)"
   sodipodi:docname="Vestland våpen.svg">
  <defs
     id="defs2" />
  <sodipodi:namedview
     id="base"
     pagecolor="#ffffff"
     bordercolor="#666666"
     borderopacity="1.0"
     inkscape:pageopacity="0.0"
     inkscape:pageshadow="2"
     inkscape:zoom="0.35"
     inkscape:cx="613.845"
     inkscape:cy="997.69963"
     inkscape:document-units="mm"
     inkscape:current-layer="layer1"
     showgrid="false"
     fit-margin-top="0"
     fit-margin-left="0"
     fit-margin-right="0"
     fit-margin-bottom="0"
     inkscape:window-width="1920"
     inkscape:window-height="1001"
     inkscape:window-x="-9"
     inkscape:window-y="-9"
     inkscape:window-maximized="1" />
  <metadata
     id="metadata5">
    <rdf:RDF>
      <cc:Work
         rdf:about="">
        <dc:format>image/svg+xml</dc:format>
        <dc:type
           rdf:resource="http://purl.org/dc/dcmitype/StillImage" />
        <dc:title></dc:title>
      </cc:Work>
    </rdf:RDF>
  </metadata>
  <g
     inkscape:label="Layer 1"
     inkscape:groupmode="layer"
     id="layer1"
     transform="translate(-230.60766,-7.7064721)">
    <path
       style="opacity:1;vector-effect:none;fill:#016e97;fill-opacity:1;stroke:none;stroke-width:0.04516711;stroke-linecap:butt;stroke-linejoin:miter;stroke-miterlimit:4;stroke-dasharray:none;stroke-dashoffset:0;stroke-opacity:1"
       d="m 1286.5303,902.5433 c -67.4118,0.0761 -134.825,-0.0711 -202.2356,0.30971 -1.3921,0.38579 0.6148,1.73962 0.8775,2.42885 38.4843,48.28892 81.3665,92.92932 126.2484,135.28164 39.3794,37.144 80.6456,72.2324 122.853,106.1137 2.4075,1.7283 4.5634,4.114 7.2323,5.3492 10.1678,-6.6335 19.7817,-14.1167 29.5808,-21.2876 86.4469,-64.6778 166.2475,-139.12162 231.7285,-225.20997 0.2911,-0.79501 2.0341,-1.87732 1.1704,-2.62351 -42.2863,-0.42965 -84.5795,-0.24287 -126.8687,-0.33652 -63.5288,-0.0343 -127.0577,-0.0332 -190.5866,-0.0255 z"
       id="path853"
       inkscape:connector-curvature="0"
       transform="scale(0.26458333)" />
    <path
       style="opacity:1;vector-effect:none;fill:#016e97;fill-opacity:1;stroke:none;stroke-width:0.06387594;stroke-linecap:butt;stroke-linejoin:miter;stroke-miterlimit:4;stroke-dasharray:none;stroke-dashoffset:0;stroke-opacity:1"
       d="m 1189.7749,400.35756 c 0.5293,2.52524 3.6961,4.73121 5.1998,7.1385 47.7909,58.58433 95.7853,117.004 143.3439,175.77705 -137.6258,0.46352 -275.254,-0.49048 -412.87993,0.004 -2.17462,-0.64812 -2.26145,1.14696 -1.48452,2.70261 14.61207,58.37366 35.32155,115.28328 62.80357,168.85012 26.09308,51.14877 57.84398,99.32776 93.50148,144.29576 0.9511,0.68355 2.1795,3.80564 3.427,1.90686 20.7948,-24.61147 40.8571,-49.84073 61.3618,-74.69686 115.6293,-141.54573 231.5218,-282.87648 346.8461,-424.67039 1.9107,-1.79408 305.7968,-372.148255 304.7225,-372.118045 -29.848,-0.10537 -881.0542,-0.415541 -910.9023,-0.420341 104.97103,127.724646 218.6929,267.755486 304.0606,371.230736 z"
       id="path855"
       inkscape:connector-curvature="0"
       transform="scale(0.26458333)"
       sodipodi:nodetypes="ccccccccccccc" />
    <path
       style="fill:#d3d1d2;fill-opacity:1;stroke:none;stroke-width:0.26458332px;stroke-linecap:butt;stroke-linejoin:miter;stroke-opacity:1"
       d="m 286.7253,238.39817 138.17404,0.4072 C 456.50892,201.8567 479.79131,140.46952 478.80133,7.8482072 l -3.44652,-0.03052 z"
       id="path857"
       inkscape:connector-curvature="0"
       sodipodi:nodetypes="ccccc" />
    <path
       style="fill:#d3d1d2;fill-opacity:1;stroke:none;stroke-width:0.26458332px;stroke-linecap:butt;stroke-linejoin:miter;stroke-opacity:1"
       d="m 244.29074,154.24312 109.80605,0.0812 L 234.34524,7.7064722 230.94345,7.7537172 C 229.01896,69.330684 235.61876,113.85908 244.29074,154.24312 Z"
       id="path857-8"
       inkscape:connector-curvature="0"
       sodipodi:nodetypes="ccccc" />
  </g>
</svg>
