<?xml version="1.0" encoding="utf-8"?>
<!-- Generator: Adobe Illustrator 16.0.2, SVG Export Plug-In . SVG Version: 6.00 Build 0)  -->
<!DOCTYPE svg PUBLIC "-//W3C//DTD SVG 1.1//EN" "http://www.w3.org/Graphics/SVG/1.1/DTD/svg11.dtd">
<svg version="1.1" id="Ebene_1" xmlns="http://www.w3.org/2000/svg" xmlns:xlink="http://www.w3.org/1999/xlink" x="0px" y="0px"
	 width="406.431px" height="492.728px" viewBox="-175.826 -214.526 406.431 492.728"
	 enable-background="new -175.826 -214.526 406.431 492.728" xml:space="preserve">
<g>
	<path fill="#16A74E" d="M27.249-213.002h201.832V83.662c0,106.594-90.313,193.016-201.688,193.016
		c-111.398,0-201.695-86.422-201.695-193.016v-296.664H27.249z"/>
	<polygon fill="#FFFFFF" points="-174.302,19.876 -174.302,-213.002 27.249,-213.002 229.081,-213.002 229.081,19.876 	"/>
	<path fill="#010202" d="M-123.041-185.194v4.473l1.328,0.07c2.281,0.121,3.152,0.434,3.473,0.602
		c0.527,0.289,1.191,0.848,1.191,2.758v32.922c0,1.926-0.719,2.52-1.27,2.809c-0.344,0.191-1.234,0.504-3.387,0.574l-1.336,0.051
		v4.5h41.891l3.297-18.23h-4.617l-0.359,0.914c-1.883,4.902-4.145,8.223-6.633,9.855c-2.543,1.648-5.762,2.496-9.559,2.496
		c-2.715,0-3.602-0.379-3.844-0.527c-0.324-0.203-0.527-0.852-0.527-1.793v-32.146c0-3.152,0.688-3.801,0.824-3.895
		c0.32-0.242,1.395-0.785,4.762-0.891l1.375-0.039v-4.504L-123.041-185.194L-123.041-185.194z"/>
	<path fill="#FFD730" d="M-121.08-183.233v0.656c1.777,0.133,3.039,0.398,3.793,0.824c1.48,0.773,2.223,2.285,2.223,4.473v32.918
		c0,2.207-0.781,3.754-2.336,4.543c-0.781,0.434-2.039,0.648-3.68,0.754v0.664h38.289c0.16-0.832,2.375-13.129,2.59-14.289h-0.949
		c-2.023,5.098-4.449,8.633-7.242,10.449c-2.863,1.855-6.43,2.805-10.629,2.805c-2.41,0-4.012-0.27-4.883-0.82
		c-0.949-0.602-1.457-1.77-1.457-3.465v-32.145c0-2.895,0.539-4.695,1.609-5.496c0.953-0.703,2.738-1.105,5.336-1.23v-0.641H-121.08
		z"/>
	<path fill="#010202" d="M-77.814-185.194v4.488l1.344,0.055c2.383,0.105,3.305,0.418,3.648,0.602
		c0.512,0.27,1.199,0.832,1.199,2.77v32.941c0,1.938-0.746,2.535-1.297,2.824c-0.344,0.176-1.289,0.496-3.52,0.535l-1.375,0.035
		v4.508h26.598v-4.543h-1.422c-2.313,0-3.488-0.406-4.047-0.758c-0.625-0.371-0.938-1.242-0.938-2.602v-32.953
		c0-1.941,0.711-2.512,1.246-2.797c0.328-0.168,1.281-0.473,3.801-0.57l1.359-0.055v-4.48H-77.814z"/>
	<path fill="#FFD730" d="M-75.853-183.233v0.648c1.832,0.117,3.133,0.367,3.941,0.789c1.496,0.777,2.25,2.297,2.25,4.504v32.945
		c0,2.223-0.801,3.77-2.371,4.574c-0.832,0.41-2.117,0.625-3.832,0.707v0.656h22.664v-0.641c-1.965-0.051-3.469-0.367-4.52-1.008
		c-1.238-0.746-1.855-2.191-1.855-4.289v-32.945c0-2.238,0.762-3.766,2.297-4.551c0.801-0.398,2.145-0.625,4.078-0.75v-0.641
		h-22.652V-183.233z"/>
	<path fill="#010202" d="M-51.294-185.194v4.473l1.328,0.07c2.246,0.129,3.113,0.434,3.406,0.609
		c0.297,0.168,1.145,0.625,1.145,2.762v32.941c0,1.914-0.703,2.504-1.23,2.801c-0.344,0.184-1.199,0.496-3.281,0.559l-1.359,0.051
		v4.504h23.215c6.031,0,10.953-1.258,14.641-3.754c3.855-2.594,5.832-6.063,5.832-10.305c0-4.527-2.063-8.102-6.113-10.625
		c-1.063-0.645-2.23-1.191-3.469-1.645c1.277-0.586,2.512-1.336,3.688-2.289c2.391-1.914,3.59-4.535,3.59-7.793
		c0-5.246-2.855-8.918-8.504-10.871c-2.801-0.984-6.359-1.48-10.512-1.48h-22.375v-0.008H-51.294z M-31.822-178.467
		c0-0.887,0.16-1.367,0.344-1.504c0.078-0.063,0.512-0.375,2.063-0.375c2.168,0,3.563,0.625,4.234,1.91
		c0.832,1.563,1.262,3.539,1.262,5.875c0,3.094-0.574,5.215-1.734,6.297c-0.738,0.688-2.395,1.492-6.168,1.648L-31.822-178.467
		L-31.822-178.467z M-31.478-142.178l-0.016-0.031c-0.082-0.152-0.297-0.656-0.328-1.93v-15.574c2.75,0.047,4.816,0.414,6.109,1.152
		c2.41,1.344,3.578,4.109,3.578,8.43c0,2.914-0.543,5.152-1.656,6.656c-1.031,1.367-2.953,2.074-5.688,2.074
		C-31.048-141.409-31.361-141.987-31.478-142.178"/>
	<path fill="#FFD730" d="M-49.326-183.233v0.656c1.75,0.133,2.984,0.398,3.734,0.824c1.441,0.773,2.145,2.285,2.145,4.473v32.941
		c0,2.199-0.77,3.73-2.281,4.52c-0.766,0.426-2,0.648-3.59,0.746v0.672h21.246c5.641,0,10.184-1.152,13.543-3.418
		c3.328-2.238,4.953-5.086,4.953-8.672c0-3.848-1.688-6.789-5.168-8.953c-1.801-1.109-3.953-1.91-6.391-2.383l-0.457-0.094v-1.555
		l0.457-0.094c2.297-0.426,4.438-1.441,6.406-3.023c1.922-1.547,2.855-3.602,2.855-6.258c0-4.391-2.344-7.352-7.168-9.031
		c-2.59-0.898-5.934-1.359-9.871-1.359h-20.414L-49.326-183.233L-49.326-183.233z M-33.775-178.467c0-1.406,0.328-2.422,1.031-3
		c0.656-0.574,1.754-0.848,3.328-0.848c2.922,0,4.922,1,5.969,2.961c1,1.84,1.488,4.137,1.488,6.801
		c0,3.646-0.785,6.254-2.344,7.734c-1.578,1.488-4.504,2.211-8.922,2.211h-0.551L-33.775-178.467L-33.775-178.467z M-33.775-144.1
		v-17.574l0.527-0.008c3.871-0.098,6.641,0.359,8.488,1.41c3.047,1.695,4.594,5.102,4.594,10.141c0,3.344-0.688,5.977-2.051,7.824
		c-1.438,1.906-3.855,2.863-7.262,2.863c-1.816,0-3.051-0.59-3.703-1.75C-33.56-141.842-33.767-142.788-33.775-144.1"/>
	<path fill="#010202" d="M-6.064-185.194v4.473l1.328,0.07c2.297,0.129,3.184,0.441,3.504,0.617
		c0.547,0.289,1.234,0.848,1.234,2.754v32.941c0,1.871-0.672,2.457-1.184,2.746c-0.348,0.207-1.266,0.543-3.516,0.613l-1.359,0.051
		v4.504h42.301l3.344-16.93h-4.492l-0.359,0.816c-2.016,4.328-4.297,7.305-6.785,8.832c-2.512,1.535-5.84,2.32-9.902,2.32
		c-2.801,0-3.578-0.426-3.77-0.543c-0.438-0.297-0.512-1.242-0.512-1.777v-15.016c2.688,0.16,4.594,0.758,5.625,1.848
		c1.297,1.344,2.168,3.832,2.594,7.367l0.168,1.227h4.375v-25.707h-4.305l-0.207,1.129c-0.855,4.434-2,6.383-2.801,7.23
		c-0.922,0.961-2.816,1.496-5.457,1.609v-14.273c0-1.008,0.199-1.383,0.281-1.453c0.031,0,0.574-0.355,3.113-0.355
		c5.094,0,8.605,0.715,10.406,2.113c1.77,1.395,3.074,4.145,3.855,8.152l0.219,1.129h4.297v-16.488L-6.064-185.194L-6.064-185.194z"
		/>
	<path fill="#FFD730" d="M-4.095-183.233v0.656c1.785,0.133,3.031,0.398,3.801,0.824c1.504,0.773,2.262,2.277,2.262,4.473v32.941
		c0,2.16-0.734,3.648-2.184,4.457c-0.832,0.48-2.145,0.719-3.871,0.816v0.672h38.723c0.164-0.809,2.344-11.824,2.578-12.992h-0.875
		c-2.125,4.496-4.594,7.656-7.344,9.352c-2.832,1.727-6.512,2.598-10.938,2.598c-2.441,0-4.047-0.285-4.887-0.879
		c-0.906-0.629-1.344-1.785-1.344-3.398v-17.039h0.543c4.031,0,6.855,0.848,8.473,2.543c1.512,1.609,2.504,4.238,3.031,7.984h0.719
		v-21.793h-0.734c-0.754,3.703-1.801,6.273-3.199,7.746c-1.504,1.582-4.203,2.328-8.281,2.27h-0.543v-16.289
		c0-1.469,0.344-2.461,1.047-3.008c0.688-0.527,2.047-0.766,4.297-0.766c5.641,0,9.438,0.824,11.621,2.527
		c2.07,1.633,3.547,4.633,4.477,8.863h0.703v-12.559L-4.095-183.233L-4.095-183.233z"/>
	<path fill="#010202" d="M39.409-185.194v4.434l1.281,0.109c2.852,0.242,3.539,0.688,3.641,0.785
		c0.289,0.215,0.961,1.078,0.961,4.008v30.098c0,2.918-0.602,3.703-0.797,3.854c-0.313,0.297-1.234,0.805-3.75,0.926l-1.344,0.066
		v4.488h25.594v-4.512l-1.359-0.051c-2.656-0.094-3.484-0.695-3.719-0.934c-0.25-0.25-0.805-1.129-0.805-3.852v-9.156
		c3.523,4.719,13.82,18.492,13.82,18.492H89.26v-4.316l-1.328-0.105c-0.461-0.039-0.859-0.105-1.133-0.207
		c-0.078-0.043-0.273-0.152-0.57-0.551c-0.016-0.027-9.859-13.203-13.297-17.801c1.867-0.602,3.719-1.418,5.422-2.664
		c3.219-2.418,4.859-5.738,4.859-9.875c0-5.645-3.063-9.582-9.102-11.727c-2.945-1.008-6.82-1.504-11.469-1.504H39.409V-185.194z
		 M59.127-178.584c0-0.395,0.07-0.93,0.328-1.145c0.016-0.016,0.492-0.371,2.711-0.371c2.813,0,4.617,0.984,5.656,3.105
		c0.617,1.32,0.945,3.215,0.945,5.633c0,3.703-0.766,6.137-2.211,7.031c-1.492,0.914-4.016,1.449-7.43,1.609L59.127-178.584
		L59.127-178.584z"/>
	<path fill="#FFD730" d="M41.377-183.233v0.68c2.117,0.215,3.508,0.59,4.195,1.152c1.133,0.91,1.672,2.727,1.672,5.535v30.094
		c0,2.715-0.453,4.449-1.406,5.328c-0.875,0.777-2.359,1.219-4.469,1.379v0.664h21.672v-0.656c-2.219-0.152-3.734-0.625-4.563-1.504
		c-0.891-0.953-1.328-2.656-1.328-5.211v-32.813c0-1.203,0.359-2.105,1.078-2.672c0.672-0.547,1.906-0.809,3.922-0.809
		c3.547,0,6.047,1.414,7.422,4.199c0.758,1.602,1.148,3.801,1.148,6.504c0,4.551-1.031,7.398-3.148,8.711
		c-2.031,1.25-5.242,1.891-9.836,1.961h-0.508c0.133,0.168,1,1.273,1,1.273s15.359,20.559,15.688,21.008h13.375v-0.602
		c-0.438-0.055-0.867-0.113-1.211-0.238c-0.523-0.195-1.031-0.625-1.461-1.242l-14.984-20.07l0.891-0.168
		c2.328-0.434,4.578-1.418,6.672-2.945c2.719-2.031,4.047-4.75,4.047-8.289c0-4.789-2.539-8.008-7.781-9.871
		c-2.734-0.918-6.359-1.398-10.813-1.398H41.377z"/>
	<path fill="#010202" d="M86.784-185.194l-0.078,16.488h4.641l0.148-1.281c0.359-4.398,1.93-7.285,4.766-8.832
		c1.313-0.703,3.195-1.125,5.578-1.305v34.344c0,2.816-0.625,3.707-0.906,3.945c-0.25,0.258-1.234,0.871-4.375,0.871h-1.406v4.527
		h27.078v-4.527h-1.406c-3.234,0-4.203-0.59-4.492-0.855c-0.25-0.238-0.875-1.117-0.875-3.961v-34.359
		c2.43,0.168,4.313,0.594,5.578,1.289c2.586,1.504,4.211,4.496,4.805,8.922l0.156,1.207h4.609l-0.094-16.488H86.784V-185.194z"/>
	<path fill="#FFD730" d="M88.737-183.233c0,0.984-0.047,11.566-0.047,12.566h0.898c0.531-4.742,2.43-8.094,5.727-9.887
		c1.836-0.992,4.508-1.535,7.883-1.633l0.578-0.016v36.414c0,2.672-0.5,4.441-1.5,5.395c-0.922,0.863-2.656,1.305-5.172,1.359v0.633
		h23.141v-0.633c-2.586-0.047-4.344-0.488-5.281-1.352c-0.977-0.945-1.453-2.703-1.453-5.402v-36.414l0.578,0.016
		c3.469,0.098,6.109,0.641,7.891,1.633c3.063,1.766,4.969,5.109,5.688,9.887h0.922c0-1-0.047-11.582-0.047-12.566H88.737z"/>
	<path fill="#010202" d="M158.573-201.553c-0.523,0.375-1.016,0.832-1.438,1.375l-10.594,13.016h6.953l9.438-6.246
		c0.953-0.625,1.688-1.227,2.203-1.832c0.672-0.754,1.016-1.746,1.016-2.961c0-1.207-0.422-2.25-1.219-3.098
		c-0.828-0.855-1.93-1.301-3.242-1.301C160.588-202.608,159.542-202.241,158.573-201.553 M131.393-185.194v4.473l1.328,0.07
		c2.297,0.129,3.164,0.441,3.492,0.617c0.555,0.289,1.227,0.848,1.227,2.754v32.941c0,1.871-0.656,2.457-1.164,2.746
		c-0.359,0.207-1.266,0.543-3.531,0.613l-1.344,0.051v4.504h42.297l3.344-16.93h-4.484l-0.375,0.816
		c-2.016,4.328-4.297,7.305-6.773,8.832c-2.523,1.535-5.836,2.32-9.898,2.32c-2.805,0-3.578-0.426-3.758-0.543
		c-0.461-0.297-0.523-1.242-0.523-1.777v-15.016c2.672,0.16,4.594,0.758,5.625,1.848c1.297,1.344,2.141,3.832,2.602,7.367
		l0.133,1.227h4.391v-25.707h-4.313l-0.211,1.129c-0.836,4.434-1.961,6.383-2.781,7.23c-0.938,0.961-2.836,1.496-5.461,1.609
		v-14.273c0-1.008,0.219-1.383,0.297-1.453c0,0,0.578-0.355,3.109-0.355c5.086,0,8.594,0.715,10.383,2.113
		c1.766,1.395,3.078,4.145,3.883,8.152l0.203,1.129h4.313v-16.488L131.393-185.194L131.393-185.194z"/>
	<path fill="#FFD730" d="M159.706-199.944L159.706-199.944c-0.375,0.254-0.742,0.59-1.031,0.988c0,0-5.891,7.234-8,9.832h2.227
		c0.25-0.191,8.922-5.926,8.922-5.926c0.813-0.527,1.422-1.016,1.844-1.488c0.313-0.391,0.5-0.953,0.5-1.672
		c0-0.695-0.219-1.266-0.656-1.734c-0.438-0.473-1.047-0.699-1.828-0.699C161.002-200.643,160.362-200.417,159.706-199.944
		 M133.346-183.233v0.656c1.805,0.133,3.063,0.398,3.836,0.824c1.453,0.766,2.242,2.27,2.242,4.461v32.945
		c0,2.16-0.734,3.648-2.195,4.457c-0.82,0.48-2.133,0.719-3.875,0.816v0.672h38.75c0.156-0.809,2.313-11.824,2.547-12.992h-0.859
		c-2.125,4.496-4.594,7.656-7.344,9.352c-2.844,1.727-6.516,2.598-10.938,2.598c-2.453,0-4.047-0.285-4.906-0.879
		c-0.883-0.633-1.328-1.785-1.328-3.396v-17.039h0.563c4,0,6.844,0.848,8.453,2.543c1.531,1.609,2.508,4.238,3.039,7.984h0.688
		v-21.785h-0.703c-0.773,3.703-1.82,6.273-3.203,7.746c-1.508,1.582-4.195,2.328-8.258,2.27h-0.563v-16.289
		c0-1.469,0.344-2.461,1.047-3.008c0.672-0.527,2.047-0.766,4.313-0.766c5.609,0,9.406,0.824,11.609,2.527
		c2.063,1.633,3.578,4.633,4.438,8.863h0.766v-12.559H133.346L133.346-183.233z"/>
	<path fill="#010202" d="M-17.998-123.772v4.473l1.313,0.074c2.309,0.137,3.199,0.445,3.512,0.609
		c0.527,0.285,1.246,0.863,1.246,2.758v32.938c0,1.871-0.688,2.469-1.184,2.75c-0.359,0.199-1.281,0.535-3.527,0.617l-1.359,0.047
		v4.496h42.293l3.344-16.918h-4.47l-0.379,0.813c-2.016,4.336-4.293,7.305-6.781,8.836c-2.512,1.535-5.84,2.301-9.891,2.301
		c-2.816,0-3.59-0.398-3.781-0.52c-0.441-0.313-0.512-1.246-0.512-1.793V-97.28c2.688,0.164,4.605,0.766,5.637,1.855
		c1.266,1.352,2.16,3.832,2.578,7.367l0.16,1.23h4.391v-25.734h-4.297l-0.215,1.152c-0.855,4.43-1.984,6.375-2.801,7.223
		c-0.902,0.961-2.816,1.504-5.453,1.617v-14.289c0-1.016,0.215-1.398,0.293-1.465c0.016-0.016,0.578-0.352,3.098-0.352
		c5.113,0,8.594,0.711,10.406,2.113c1.785,1.398,3.082,4.145,3.875,8.152l0.199,1.129h4.297v-16.492h-41.992V-123.772z"/>
	<path fill="#FFD730" d="M-16.033-121.803v0.656c1.785,0.129,3.035,0.395,3.816,0.816c1.488,0.77,2.234,2.289,2.234,4.473v32.938
		c0,2.168-0.723,3.656-2.168,4.477c-0.816,0.449-2.145,0.715-3.871,0.809v0.664h38.719c0.168-0.801,2.344-11.824,2.559-13h-0.84
		c-2.145,4.504-4.605,7.664-7.375,9.354c-2.816,1.727-6.488,2.598-10.906,2.598c-2.453,0-4.047-0.289-4.902-0.879
		c-0.887-0.633-1.344-1.77-1.344-3.402v-17.039h0.574c4,0,6.832,0.855,8.441,2.551c1.527,1.594,2.512,4.234,3.047,7.977h0.688
		v-21.79h-0.734c-0.734,3.719-1.785,6.277-3.184,7.75c-1.504,1.578-4.184,2.328-8.281,2.281l-0.543-0.008v-16.281
		c0-1.48,0.344-2.473,1.063-3.023c0.672-0.512,2.035-0.77,4.281-0.77c5.641,0,9.441,0.832,11.609,2.543
		c2.094,1.625,3.574,4.625,4.473,8.852h0.734v-12.555h-38.09V-121.803z"/>
	<path fill="#010202" d="M28.112-123.772l-0.078,16.492h4.641l0.125-1.271c0.383-4.41,1.938-7.297,4.789-8.84
		c1.297-0.695,3.18-1.137,5.578-1.297v34.336c0,2.816-0.641,3.695-0.906,3.945c-0.281,0.27-1.266,0.863-4.391,0.863h-1.398v4.527
		h27.07v-4.527h-1.391c-3.234,0-4.219-0.594-4.516-0.84c-0.227-0.25-0.852-1.129-0.852-3.969v-34.344
		c2.43,0.168,4.313,0.598,5.547,1.297c2.602,1.496,4.242,4.488,4.836,8.902l0.156,1.219h4.594l-0.078-16.492H28.112L28.112-123.772z
		"/>
	<path fill="#FFD730" d="M30.065-121.803c0,0.969-0.047,11.563-0.063,12.555H30.9c0.531-4.746,2.445-8.098,5.719-9.875
		c1.859-1,4.516-1.551,7.906-1.629l0.578-0.027v36.418c0,2.672-0.5,4.434-1.5,5.375c-0.938,0.879-2.672,1.32-5.188,1.387v0.621
		h23.141V-77.6c-2.57-0.066-4.328-0.508-5.266-1.363c-0.977-0.941-1.484-2.703-1.484-5.398v-36.418l0.578,0.027
		c3.484,0.078,6.141,0.629,7.922,1.629c3.063,1.746,4.953,5.098,5.688,9.875h0.922c0-0.992-0.047-11.586-0.047-12.555H30.065z"/>
	<path fill="#010202" d="M-96.623-62.331v4.375l1.246,0.145c2.504,0.281,3.402,0.77,3.707,1.031c0.086,0.066,0.68,0.691,0.68,3.771
		v30.098c0,2.75-0.512,3.574-0.738,3.813c-0.238,0.234-1.055,0.801-3.59,0.984l-1.305,0.098v4.441h25.359v-4.488l-1.352-0.051
		c-2.504-0.094-3.426-0.604-3.746-0.902c-0.184-0.184-0.797-0.984-0.797-3.887v-11.313c3.367-0.016,6.047-0.113,7.895-0.281
		c2.176-0.184,4.391-0.75,6.559-1.625c3.02-1.313,5.211-3.094,6.547-5.293c1.313-2.184,1.969-4.527,1.969-7.02
		c0-5.078-1.738-8.734-5.195-10.871c-3.223-2.016-7.934-3.016-13.957-3.016h-23.281L-96.623-62.331L-96.623-62.331z M-77.158-56.28
		c0-0.348,0.055-0.609,0.152-0.656c0.176-0.098,0.727-0.313,2.23-0.313c2.414,0,3.961,0.703,4.762,2.141
		c0.91,1.707,1.383,4,1.383,6.844c0,4.031-0.863,6.621-2.57,7.719c-0.695,0.438-2.277,0.969-5.949,1.145v-16.88H-77.158z"/>
	<path fill="#FFD730" d="M-94.654-60.37v0.688c2.063,0.266,3.473,0.719,4.277,1.426c0.914,0.797,1.344,2.512,1.344,5.246v30.098
		c0,2.574-0.414,4.277-1.285,5.184c-0.816,0.816-2.234,1.313-4.336,1.504v0.672h21.414v-0.641c-2.121-0.16-3.598-0.594-4.473-1.406
		c-0.934-0.906-1.414-2.625-1.414-5.313v-13.25h0.574c4.008,0,7.074-0.094,9.105-0.281c1.992-0.164,4.008-0.672,6.016-1.5
		c2.578-1.129,4.465-2.656,5.578-4.492c1.133-1.855,1.695-3.871,1.695-6c0-4.422-1.379-7.422-4.266-9.199
		c-2.918-1.816-7.273-2.734-12.918-2.734h-21.311V-60.37z M-79.126-56.28c0-1.164,0.398-1.953,1.176-2.379
		c0.68-0.375,1.719-0.559,3.168-0.559c3.16,0,5.328,1.078,6.48,3.168c1.094,1.984,1.633,4.605,1.633,7.785
		c0,4.734-1.168,7.887-3.496,9.375c-1.449,0.918-4.195,1.422-8.395,1.504h-0.574V-56.28H-79.126z"/>
	<path fill="#010202" d="M-37.775-63.331l-15.391,38.129c-1.426,3.527-2.184,4.887-2.578,5.422
		c-0.766,1.051-1.688,1.578-2.926,1.656l-1.305,0.098v4.441h16.664V-18.1l-1.375-0.016c-1.754-0.016-2.641-0.199-3.082-0.344
		c-0.984-0.328-0.984-0.656-0.984-0.781c0-0.359,0.113-1.281,0.84-3.375c-0.016,0.016,1.031-2.836,1.578-4.328h13.359
		c0.438,1.078,1.344,3.246,1.344,3.246l0.855,2.246c0.406,1.25,0.457,1.801,0.457,1.969c0,0.625-0.129,0.855-0.16,0.891
		c-0.266,0.109-1.129,0.359-3.891,0.469l-1.359,0.051v4.488h24.816v-4.578l-1.457,0.047c-1.078,0.035-1.84-0.328-2.391-1.109
		c-0.543-0.719-1.609-2.625-3.672-7.488l-15.512-36.609h-3.832v-0.01H-37.775z M-39.853-43.659
		c1.293,3.113,3.652,8.801,4.652,11.234h-9.031C-43.31-34.827-41.095-40.514-39.853-43.659"/>
	<path fill="#FFD730" d="M-36.439-61.354c-0.281,0.688-14.902,36.887-14.902,36.887c-1.234,3.031-2.168,4.938-2.832,5.84
		c-0.984,1.363-2.281,2.129-3.848,2.363v0.703h12.75v-0.641c-1.313-0.047-2.375-0.16-3.098-0.391
		c-1.934-0.656-2.359-1.816-2.359-2.656c0-0.875,0.313-2.168,0.938-4c0-0.016,2.063-5.688,2.063-5.688h0.395h15.656l1.871,4.484
		l0.887,2.363c0.375,1.16,0.543,2.016,0.543,2.605c0,1.426-0.453,2.344-1.375,2.723c-0.703,0.277-2.031,0.469-4.016,0.574v0.625
		h20.871v-0.641c-1.473-0.098-2.641-0.719-3.488-1.871c-0.855-1.199-2.145-3.785-3.871-7.871c0,0-13.543-32-15-35.41h-1.185V-61.354
		z M-40.509-47.37h1.23l7.031,16.902h-14.871L-40.509-47.37z"/>
	<path fill="#010202" d="M-15.326-62.331l-0.082,16.473h4.656l0.113-1.266c0.391-4.406,1.934-7.293,4.801-8.84
		c1.293-0.703,3.168-1.125,5.543-1.309v34.344c0,2.813-0.609,3.703-0.855,3.949c-0.281,0.25-1.281,0.871-4.41,0.871h-1.422v4.516
		h27.094v-4.516h-1.406c-3.215,0-4.199-0.605-4.488-0.855c-0.25-0.23-0.855-1.125-0.855-3.965v-34.344
		c2.422,0.164,4.297,0.605,5.559,1.293c2.609,1.488,4.215,4.488,4.801,8.922l0.16,1.199h4.59l-0.078-16.473L-15.326-62.331
		L-15.326-62.331z"/>
	<path fill="#FFD730" d="M-13.376-60.37c0,0.984-0.047,11.559-0.047,12.543h0.906c0.527-4.734,2.438-8.078,5.719-9.855
		c1.84-1,4.504-1.559,7.902-1.641l0.563-0.016v36.41c0,2.672-0.488,4.422-1.504,5.375c-0.922,0.871-2.641,1.313-5.184,1.375v0.625
		h23.156v-0.609c-2.59-0.063-4.344-0.504-5.262-1.375c-1-0.938-1.473-2.703-1.473-5.391v-36.41l0.559,0.016
		c3.488,0.082,6.145,0.641,7.906,1.641c3.078,1.754,4.969,5.098,5.703,9.855h0.922c-0.02-0.984-0.066-11.559-0.066-12.543H-13.376z"
		/>
	<path fill="#010202" d="M29.409-62.331v4.41l1.281,0.109c2.852,0.25,3.523,0.703,3.641,0.785c0.289,0.23,0.945,1.098,0.945,4.016
		v30.098c0,2.934-0.586,3.703-0.781,3.871c-0.328,0.297-1.25,0.801-3.766,0.918l-1.32,0.066v4.473h25.594v-4.488l-1.367-0.051
		c-2.672-0.109-3.5-0.703-3.719-0.934c-0.242-0.266-0.797-1.129-0.797-3.855v-9.16c3.516,4.734,13.813,18.488,13.813,18.488h16.313
		v-4.328l-1.313-0.082c-0.469-0.031-0.852-0.113-1.141-0.215c-0.094-0.031-0.297-0.145-0.563-0.543
		c-0.031-0.035-9.867-13.203-13.313-17.816c1.875-0.594,3.719-1.41,5.445-2.656c3.211-2.41,4.852-5.719,4.852-9.875
		c0-5.637-3.063-9.574-9.094-11.734c-2.969-1-6.828-1.488-11.484-1.488H29.409V-62.331z M49.127-55.713
		c0-0.41,0.055-0.922,0.313-1.16c0.016-0.016,0.508-0.375,2.711-0.375c2.828,0,4.617,0.984,5.648,3.109
		c0.641,1.328,0.953,3.219,0.953,5.625c0,3.719-0.766,6.16-2.195,7.047c-1.508,0.922-4.016,1.441-7.43,1.594V-55.713z"/>
	<path fill="#FFD730" d="M31.362-60.37v0.672c2.109,0.215,3.508,0.59,4.195,1.146c1.148,0.918,1.688,2.734,1.688,5.543v30.098
		c0,2.719-0.469,4.453-1.422,5.328c-0.859,0.766-2.344,1.215-4.469,1.375v0.656h21.672v-0.641c-2.203-0.16-3.719-0.641-4.547-1.512
		c-0.906-0.938-1.328-2.641-1.328-5.199v-32.801c0-1.215,0.344-2.145,1.047-2.688c0.688-0.543,1.938-0.816,3.938-0.816
		c3.563,0,6.063,1.422,7.422,4.215c0.773,1.609,1.164,3.785,1.164,6.488c0,4.563-1.031,7.426-3.148,8.719
		c-2.031,1.234-5.242,1.891-9.852,1.953c0,0-0.391,0-0.508,0c0.117,0.168,0.984,1.281,0.984,1.281s15.391,20.559,15.719,21h13.359
		v-0.586c-0.438-0.063-0.867-0.125-1.195-0.246c-0.523-0.215-1.031-0.625-1.461-1.25L59.604-37.698l0.906-0.168
		c2.328-0.426,4.594-1.406,6.688-2.953c2.719-2.031,4.031-4.734,4.031-8.281c0-4.797-2.539-8.016-7.766-9.871
		c-2.734-0.918-6.375-1.391-10.828-1.391H31.362V-60.37z"/>
	<path fill="#010202" d="M78.456-62.331v4.473l1.328,0.047c2.383,0.129,3.313,0.441,3.656,0.594c0.508,0.281,1.18,0.855,1.18,2.781
		v32.938c0,1.938-0.734,2.543-1.273,2.832c-0.359,0.168-1.313,0.504-3.508,0.543l-1.383,0.035v4.504h26.578v-4.531h-1.414
		c-2.328,0-3.484-0.422-4.063-0.766c-0.609-0.359-0.922-1.234-0.922-2.609v-32.934c0-1.938,0.727-2.531,1.234-2.801
		c0.344-0.16,1.297-0.457,3.82-0.578l1.344-0.047v-4.473H78.456V-62.331z"/>
	<path fill="#FFD730" d="M80.424-60.37v0.656c1.82,0.098,3.133,0.359,3.922,0.77c1.492,0.781,2.258,2.309,2.258,4.508v32.938
		c0,2.234-0.797,3.785-2.359,4.578c-0.836,0.406-2.141,0.621-3.828,0.719v0.641h22.625v-0.625c-1.938-0.063-3.438-0.375-4.5-1.016
		c-1.234-0.754-1.859-2.184-1.859-4.297v-32.938c0-2.23,0.781-3.766,2.297-4.543c0.797-0.391,2.156-0.637,4.063-0.734v-0.656
		L80.424-60.37L80.424-60.37z"/>
	<path fill="#010202" d="M104.854-62.331v4.457l1.328,0.063c2.289,0.145,3.164,0.457,3.484,0.625c0.563,0.281,1.25,0.855,1.25,2.75
		v32.938c0,1.871-0.672,2.473-1.188,2.754c-0.359,0.199-1.266,0.543-3.531,0.621l-1.344,0.051v4.488h42.328l3.328-16.922h-4.484
		l-0.406,0.832c-1.984,4.328-4.266,7.297-6.766,8.816c-2.508,1.527-5.836,2.313-9.875,2.313c-2.813,0-3.609-0.391-3.766-0.512
		c-0.461-0.328-0.531-1.266-0.531-1.801v-15c2.672,0.168,4.594,0.785,5.641,1.855c1.266,1.344,2.156,3.832,2.578,7.375l0.156,1.234
		h4.391v-25.738h-4.297l-0.219,1.16c-0.828,4.426-1.984,6.363-2.797,7.219c-0.922,0.965-2.828,1.504-5.453,1.621v-14.285
		c0-1.02,0.234-1.41,0.297-1.473c0,0,0.563-0.359,3.109-0.359c5.094,0,8.578,0.719,10.391,2.125
		c1.766,1.395,3.078,4.129,3.844,8.145l0.25,1.129h4.281v-16.473h-42L104.854-62.331L104.854-62.331z"/>
	<path fill="#FFD730" d="M106.799-60.37v0.656c1.805,0.129,3.07,0.406,3.82,0.801c1.5,0.797,2.266,2.297,2.266,4.488v32.934
		c0,2.16-0.734,3.656-2.188,4.473c-0.813,0.473-2.141,0.703-3.891,0.816v0.656h38.734c0.164-0.801,2.344-11.816,2.563-12.984h-0.844
		c-2.125,4.512-4.602,7.672-7.375,9.359c-2.813,1.719-6.484,2.594-10.898,2.594c-2.477,0-4.055-0.297-4.906-0.875
		c-0.898-0.637-1.375-1.781-1.375-3.406v-17.031h0.57c4.016,0,6.859,0.855,8.477,2.543c1.508,1.609,2.508,4.25,3.031,7.984h0.727
		v-21.801h-0.742c-0.766,3.719-1.805,6.281-3.195,7.77c-1.508,1.559-4.203,2.313-8.281,2.262h-0.578v-16.285
		c0-1.488,0.359-2.473,1.078-3.02c0.672-0.527,2.047-0.781,4.313-0.781c5.609,0,9.406,0.84,11.578,2.543
		c2.094,1.625,3.578,4.625,4.5,8.84h0.719v-12.543H106.8L106.799-60.37L106.799-60.37z"/>
	<g>
		<path fill="none" stroke="#010202" stroke-width="3.048" d="M-174.318,19.912h403.43 M27.249-213.002h201.832V83.662
			c0,106.594-90.313,193.016-201.688,193.016c-111.398,0-201.695-86.422-201.695-193.016v-296.664H27.249z"/>
	</g>
</g>
</svg>
