<?xml version="1.0" encoding="utf-8"?>
<!-- Generator: Adobe Illustrator 16.0.2, SVG Export Plug-In . SVG Version: 6.00 Build 0)  -->
<!DOCTYPE svg PUBLIC "-//W3C//DTD SVG 1.1//EN" "http://www.w3.org/Graphics/SVG/1.1/DTD/svg11.dtd">
<svg version="1.1" id="Ebene_1" xmlns="http://www.w3.org/2000/svg" xmlns:xlink="http://www.w3.org/1999/xlink" x="0px" y="0px"
	 width="406.316px" height="492.574px" viewBox="-175.931 -213.741 406.316 492.574"
	 enable-background="new -175.931 -213.741 406.316 492.574" xml:space="preserve">
<path fill="#FFFFFF" d="M27.084-212.217h201.77V84.357c0,106.555-90.271,192.954-201.641,192.954
	c-111.352,0-201.617-86.397-201.617-192.954v-296.574H27.084z"/>
<rect x="27.147" y="-212.217" fill="#E8423F" width="201.707" height="68.734"/>
<rect x="27.139" y="-73.362" fill="#E8423F" width="201.707" height="70.137"/>
<path fill="#E8423F" d="M27.139,137.021H221.26c4.93-16.719,7.594-34.422,7.594-52.672V66.896H27.139V137.021z"/>
<path fill="#E8423F" d="M182.745,207.177H27.139v70.134h0.648C90.151,277.115,145.862,249.88,182.745,207.177"/>
<g>
	<g>
		<g>
			<g>
				<defs>
					<rect id="SVGID_1_" x="-175.931" y="-213.741" width="406.316" height="492.574"/>
				</defs>
				<clipPath id="SVGID_2_">
					<use xlink:href="#SVGID_1_"  overflow="visible"/>
				</clipPath>
				<path clip-path="url(#SVGID_2_)" fill="none" stroke="#010202" stroke-width="3.048" d="M27.139-3.225h201.714v-70.129H27.139
					V-3.225z M182.745,207.177H27.139v70.134h0.648C90.151,277.115,145.862,249.88,182.745,207.177z M27.139,207.177h155.59
					c17.547-20.328,30.805-44.109,38.523-70.156H27.139V207.177z M27.139,137.021H221.26c4.93-16.719,7.594-34.422,7.594-52.672
					V66.896H27.139V137.021z M27.139,66.896h201.714V-3.225H27.139V66.896z M228.854-143.483v-68.734H27.139v68.734H228.854z
					 M27.139-73.354h201.714v-70.137H27.139V-73.354z"/>
			</g>
		</g>
	</g>
	<g>
		<g>
			<g>
				<defs>
					<rect id="SVGID_3_" x="-175.931" y="-213.741" width="406.316" height="492.574"/>
				</defs>
				<clipPath id="SVGID_4_">
					<use xlink:href="#SVGID_3_"  overflow="visible"/>
				</clipPath>
				<path clip-path="url(#SVGID_4_)" fill="none" stroke="#010202" stroke-width="3.048" d="M27.084-212.217h201.77V84.357
					c0,106.555-90.271,192.954-201.641,192.954c-111.352,0-201.617-86.397-201.617-192.954v-296.574H27.084z"/>
			</g>
		</g>
	</g>
</g>
<path fill="#E8423F" d="M-157.173-138.331c0,20.855,9.961,45.488,38.043,46.184c5.313,0.145,18.621-0.496,27.414-9.07
	c5.266-5.145,7.938-12.266,7.938-21.145c0-14.922-7.586-21.52-13.945-24.441c-7.711-3.496-16.809-3.129-22.086-1.551
	c1.688-4.387,5.863-11.543,20.32-12c5.797-0.191,14.086,1.285,20.68,9.391c7.902,9.703,15,31,3.863,77.305l-0.441,1.871h57.129
	l0.023-1.504c0.711-48.145-9.168-82.949-29.391-103.465c-16.938-17.184-36.281-19.047-43.824-19.047
	C-156.412-195.795-157.173-138.905-157.173-138.331"/>
<path fill="#010202" d="M-91.458-197.315c-34.168,0-50.609,15.609-58.402,28.703c-8.727,14.738-8.832,29.648-8.832,30.273
	c0,21.543,10.352,46.984,39.504,47.727h0.523l0.605,0.008c8.41,0,35.801-2.285,35.801-31.75c0-21.168-15.016-28.723-29.063-28.723
	c-1.832,0-3.824,0.137-5.723,0.434c2.352-3.727,7.137-7.863,17.602-8.199c0.344-0.016,0.609-0.016,0.871-0.016
	c5.297,0,12.855,1.598,18.848,9.199c7.504,9.52,14.168,30.375,3.289,75.641l-0.895,3.758h3.855h53.703h3l0.047-3.016
	c0.711-48.559-9.313-83.734-29.832-104.543C-63.892-195.42-83.732-197.315-91.458-197.315 M-155.634-138.362
	c0-2.395,1.285-55.906,64.176-55.906c14.176,0,71.535,6.738,71.734,115.691c0,1.727-0.008,3.492-0.039,5.262h-53.703
	c4.023-16.746,5.766-30.695,5.766-42.191c-0.008-33.793-15-46.398-30.863-46.398c-0.32,0-0.648,0-0.969,0.023
	c-20.688,0.656-22.086,15.094-22.965,16.215c0.512-0.441,1.484-0.887,2.781-1.281c0.32-0.086,0.664-0.184,1.023-0.27
	c1.992-0.48,4.555-0.809,7.379-0.809c11.055,0,26.023,5.039,26.023,25.672c0,26.031-23.746,28.703-32.762,28.703
	c-0.383,0-0.727-0.016-1.047-0.016c-26.434-0.664-36.527-23.777-36.527-44.672v-0.023L-155.634-138.362L-155.634-138.362z"/>
<rect x="-85.373" y="-67.506" fill="#E8423F" width="77.387" height="11.504"/>
<rect x="-85.373" y="-67.506" fill="none" stroke="#010202" stroke-width="3.048" stroke-miterlimit="10" width="77.387" height="11.504"/>
<rect x="-85.373" y="-35.788" fill="#E8423F" width="77.387" height="11.512"/>
<rect x="-85.373" y="-35.788" fill="none" stroke="#010202" stroke-width="3.048" stroke-miterlimit="10" width="77.387" height="11.512"/>
<rect x="-100.994" y="-51.604" fill="#E8423F" width="108.621" height="11.512"/>
<rect x="-100.994" y="-51.604" fill="none" stroke="#010202" stroke-width="3.048" stroke-miterlimit="10" width="108.621" height="11.512"/>
<polygon fill="#E8423F" points="-73.763,154.724 -107.701,194.427 -81.451,-19.569 -12.236,-19.569 14.292,194.427 -19.923,154.982 
	-46.701,240.052 "/>
<polygon fill="none" stroke="#010202" stroke-width="3.048" stroke-miterlimit="10" points="-73.763,154.724 -107.701,194.427 
	-81.451,-19.569 -12.236,-19.569 14.292,194.427 -19.923,154.982 -46.701,240.052 "/>
</svg>
