<?xml version="1.0" encoding="utf-8"?>
<!-- Generator: Adobe Illustrator 16.0.2, SVG Export Plug-In . SVG Version: 6.00 Build 0)  -->
<!DOCTYPE svg PUBLIC "-//W3C//DTD SVG 1.1//EN" "http://www.w3.org/Graphics/SVG/1.1/DTD/svg11.dtd">
<svg version="1.1" id="Ebene_1" xmlns="http://www.w3.org/2000/svg" xmlns:xlink="http://www.w3.org/1999/xlink" x="0px" y="0px"
	 width="407.152px" height="493.613px" viewBox="-176.681 -214.424 407.152 493.613"
	 enable-background="new -176.681 -214.424 407.152 493.613" xml:space="preserve">
<g>
	<path fill="#FFFFFF" d="M26.78-212.905h202.184v297.18c0,106.805-90.469,193.375-202.055,193.375
		c-111.59,0-202.07-86.57-202.07-193.375v-297.18H26.78z"/>
	<g>
		<g>
			<g>
				<g>
					<defs>
						<rect id="SVGID_1_" x="-176.681" y="-214.424" width="407.152" height="493.613"/>
					</defs>
					<clipPath id="SVGID_2_">
						<use xlink:href="#SVGID_1_"  overflow="visible"/>
					</clipPath>
					<path clip-path="url(#SVGID_2_)" fill="none" stroke="#010202" stroke-width="3.048" d="M26.78-212.905h202.184v297.18
						c0,106.805-90.469,193.375-202.055,193.375c-111.59,0-202.07-86.57-202.07-193.375v-297.18H26.78z"/>
				</g>
			</g>
		</g>
	</g>
	<path fill="#010202" d="M-39.787-112.249c21.641,8.055,45.262,17.223,50.535,21.504c1.504,1.223-14.84,14.832-15.574,41.688
		c-11.371,4.656-14.555-0.41-14.555-0.41s-3.125,0.473-4.063,2.504c-8.273-4.766-6.391-11.215-12.25-7.293
		c-1.375,0.918-6.941-9.707-9.328-4.969c-5.949-1.359-5.344-7.785-6.973-8.145c-1.602-0.336-5.016,2.246-5.945,0.504
		c-1.504-2.938-3.238-6.41-3.816-6.922c-0.609-0.496-1.375,1.625-3.871,0.84c-2.551-0.813-3.93-6.773-6.129-7.621
		c-4.535,1.598-6.84-5.145-7.113-6.059c-0.742,1.852-6.863,2.488-5.965-0.648c3.152-10.926-13.355-13.344-11.465-23.848
		c-23.656-3.695-17.48-41.902-22.121-42.711c-8.559-1.504-14.48-0.969-14.48-0.969s0.961-6.168,12.914-6.934
		c-6.121-3.984-14.402-5.023-14.402-5.023s3.57-4.824,18.418-2.25c-3.066-7-10.891-10.449-10.891-10.449s9.152-2.094,18.297,5.504
		c-0.457-8.758-7.656-15.887-7.656-15.887s8.945-1.09,17.09,12.719c2.277-8.301-0.777-17.125-0.777-17.125s9.578,1.238,11.84,18.527
		c7.816,10.352,1.848,25.719,9.832,43.496C-73.794-122.338-57.892-118.987-39.787-112.249"/>
	<path fill="#010202" d="M-9.994,128.541c6.68-22.75,29.383-36.891,52.402-35c1.219-4.688,2.266-9.891,1.844-10.719
		C30.749,54.306,22.717,52.431,22.717,52.431s-29.762-6.672-47.746,1.672c-3.598,1.688-30.469,17.594-25.176,18.766
		c8.691,1.906-3.461,7.516-5.398,12.188c-1.91,4.672,2.855,3.547,3.07,4.109c0.531,1.422-12.023,13.578-8.902,14.219
		c11.648,2.25-5.238,13.828-1.633,14.688c10.031,2.359-2.262,12.438,1.32,12.953c1.266,0.164,3.719,0.797,5.703,1.078
		c-1.117,1.984-4.094,7.688-3.445,13.594c0.277,2.734,3.496-2.492,5.133,1.109c-8.254,6.688,7.18,25.813,8.266,37.203
		c-5.59,0.625-4.656-6.422-9.504-8.508c-2.617,4.758-7.938,4.703-14.289,3.164c-6.32-1.547-13.727-4.625-20.488-4.719
		c-14.91-3.758-21.102,1.328-22.461,3.031c0.445,0.141,5.68,1.328,13.168,4.539c-12.648,0.922-14.898,8.523-14.898,8.523
		s6.512-0.375,14.609,1.203c-13.121,6.609-11.313,13.922-11.313,13.922s7.266-4.266,14.754-4.844c-4.051,3-7.402,9.578-4.922,14.281
		c2.977-2.766,8.719-5.391,10.785-6.25c-2.785,6.297-2.359,10.891,0.711,14.25c8.16-11.156,11.105-10.469,13.48-10.297
		c1.297,0.117,4.824,1.234,10.016,1.773c4.32,0.453,9.793,0.289,16.055,0.648c15.016,0.859,32.457,1.352,43.938-10.156
		C-10.001,178.947-16.443,150.423-9.994,128.541"/>
	<path fill="#010202" d="M15.397-121.018c0,0-0.695,7.664,4.945,8.16c1.816,0.145,8.504-0.48,17.16,0.688
		c18.203,2.418,38.859,8.902,53.938-5.801c13-12.711,2.797-31.521,14.484-39.543c9.594-6.641,20.156-0.656,20.578,1.91
		c-14.344-5.23-17.359-0.598-19.016,0.508c-11.563,7.773,5.703,47.32-38.219,48.492c-15.297,0.41-31.398,1.234-38.375,7.984
		c-3.961,3.801-7.922,3.586-13.625,8.738C1.702-75.948,1.147-58.354-0.466-49.729c-0.641,3.391,1.121,2.313,1.121,2.313
		s9.832-2.488,15.863-3.203c1.078-0.141,1.207,0.488,1.207,0.488s0.328,1.184-1.039,1.281
		c-20.082,1.184-73.305,24.457-97.199,24.703c-1.508-0.328-15.426-3.473-17.152-10.934c1.934-2.344,10.84,11.375,19.184,7.184
		c-9.824-8.066-15.863-27.199-27.051-32.953c-7.184-20.582-16.398-20.938-16.398-20.938s5.273,17.266,3.594,20.73
		c-14.496-13.898-22.547-9.953-22.547-9.953l12.922,16.266c0,0-14.906-6.785-21.891-0.859c8.707,3,16.656,8.547,16.449,10.363
		c-1.086,0.184-13.52-0.953-16.129,6.063c4.938,0.594,13.641,3.031,15.059,5.457c-5.16,2.313-14.617,5.625-13.344,13.512
		c6.445-1.266,11.473-4.871,17.238-4.016c7.824-2.379,14.512,5.871,23.426,14.719c10.48,10.41,25.824,20.281,33.063,17.375
		c1.746-0.703,0.727-2.309,2.008-2.527c1.313-0.199,10.168,7.441,10.832,5.266c2.207-7.25,2.52-3.313,6.504-1.563
		c2.023,0.875,5.234,0.203,7.961,2.266c1.75-7.785,12.984,3.922,15.535-2.801c5.625,0.832,11.609,4.656,10.727-1.871
		c7.258,4.512,7.914,2.184,11.578,3.887C-8.601,3.87-1.211,9.249,1.543,9.198c28.944-0.575,36.077-8.919,41.6-20.247
		c2.234-4.578,4.703-4.266,3.969-1.594c-4.109,14.441-14.5,24.891-38.785,23.754c-1.348-0.066-1.977,0.473-2.531,1.297
		c-0.551,0.824-0.527,1.488-0.383,4.406c0.23,6,17.137,25.313,26.426,38.594c12.18,17.375,16.836,26.344,15.344,30.211
		c-2.602,6.859-7.742,43.375-7.492,44.531c0.266,1.156,2.227,2.188,4.195,0.578c2.359,2.453-2.18,11.859,0.75,12.094
		c2.188-1.391,4.922-2.594,4.922-2.594s-4.586,10.563,2,15.609c0.867-2.953,3.461-5.109,3.461-5.109s-1.297,10.234,5.094,13.094
		c0.094-0.641,0.016-1.063,0.734-4.313c3.828,12.375,5.641,13.516,6.625,12.641c1.031-0.828-1.844-5.172,1.508-4.219
		c1.148,10.797,4.531,10.656,4.531,10.656s0.422-0.453,2.031-2.969c3.82,9.172,25.047,18.328,21.211,40.344
		c-0.75,0.492-2.5,0.422-3.016-1.281c-0.523-1.703-1.852-6.719-2.469-7.406c-0.609-0.688-2.438-2.891-16.625-4.406
		c-14.219-1.469-21.25,4.984-21.25,4.984s-15.719-4.688-24.125,5.234c4.969-1.047,17.227,4.828,17.227,4.828
		s-12.617,2.719-14.539,14.25c8.969-4.156,18.125-3.016,18.125-3.016s-11.133,7.625-8.883,18.406
		c7.836-7.357,16.07-9.281,16.07-9.281s-7.563,11.359-1.297,18.922c3.063-3.97,8.625-12.281,12.844-11.641
		c1.703,11.25,8.859,15.234,9.859,14.438c0.961-0.781-1.938-10.392,5.273-16.328c12.383-2.656,42.789-7.867,54.547-33.313
		c-1.383-7.852-26.266-44.734-25.742-71.273c0.148-7.43,1.281-36.773,1.281-36.773s0.906-15.523-5.906-26.969
		c4.219,0.313,5.859,7.844,8.266,9.203c2.445,1.375,4.359-2.078,4.359-2.078l-0.898-6.469l4.836,5.234c0,0,4.164-8.234,0.672-18.414
		c-3.5-10.18-19.836-29.328-22.094-36.047c-1.547-4.672-4.516-24.543-5.656-31.801c-1.172-7.25-0.766-30.656-0.766-30.656
		s3.438,0.512,5.672,2.297c1.828-1.938-0.875-8.512-0.063-9.488c0.766,1.277,3.852,1.391,5.688,3.113
		c2.953-5.41,0.344-10.691,0.063-11.379c4.969,1.922,9.547,1.512,10.281-0.215c-1.891-1.734-4.508-12.016-4.375-13.313
		c1.922-0.84,7.375,3.512,8.328,1.938c-2.969-4.168-1.359-10.617-6.047-17.77c1.734-1.23,3.57,1.023,5.672-2.008
		c-9.164-12.938,2.094-24.672,1.141-34.32c-1.578-15.367-10.984-17.969-10.984-17.969s24.766-0.109,19.578-17.992
		c-5.234-17.855-18.094-6.48-26.516-11.078c-8.422-4.609-8.219-16.824-21.188-17.488c-18.359-0.953-42.852,11.504-57.098,11.504
		c-4.426-0.031-3.852,0.695-14.402-2.082c-2.766,13.387,2.73,14.793,1.137,17.922c-2.961,5.848-1.848,7.328-1.848,7.328l1.566,0.031
		c-0.43,2.066-0.613,6.023,2.633,10.52c3.895-5.375,5.184-8.773,5.617-10.375l1.078,0.031c-0.176,2.457-0.078,6.969,2.539,10.344
		c3.949-3.551,5.324-8.063,5.805-10.199h0.227c0,0,8.98-0.594,14.699,2.242c5.75,2.828,5.508,12.813,5.508,12.813
		s-15.586-4.672-22.289-4.527c-9.504,0.176-24.23,3.77-33.168,1.898c-8.961-1.883-17.063-13.355-17.063-13.355
		s-14.066,19.922,17.383,24.656c7.016,1.051,13.625,0.656,19.344-0.164c0,0,14.984-2.938,18.199-3.336
		c3.18-0.395,16.273,1.293,16.273,1.293s-0.734,4.242-7.172,4.242C40.924-120.569,15.397-121.018,15.397-121.018"/>
	<path fill="#010202" d="M90.557-181.811c6.898-8.359,33.734-2.84,21.406,17.043C101.377-162.104,100.331-180.256,90.557-181.811"/>
	<path fill="#E8423F" d="M-22.083-137.62c0,1.41,0.266,2.715,0.824,3.891c2.07,4.625,8.121,7.711,17.984,9.184
		c5.816,0.871,11.918,0.824,18.75-0.16c0.105-0.023,14.914-2.922,18.246-3.336c2.852-0.352,11.813,0.68,15.508,1.137
		c0,0,1.18,0.152,1.609,0.207c0.18-0.703,0.469-1.992,0.602-2.672c-0.422-0.145-1.734-0.449-1.734-0.449
		c-3.414-0.977-15.109-4.191-20.406-4.07c-3.367,0.07-7.445,0.574-11.773,1.113c-7.793,0.973-15.84,2-21.848,0.742
		c-7.016-1.479-13.371-8.098-16.336-11.617C-21.365-142.026-22.083-139.889-22.083-137.62"/>
	<path fill="#E8423F" d="M15.397,63.025c0,0,7.719-2.125,19.113,1.875c1.508,2.531,4.477,6.859,6.602,11.547
		C36.721,71.822,15.397,63.025,15.397,63.025"/>
	<path fill="#E8423F" d="M-145.9-55.788c4.754,2.02,10.418,5.203,12.871,7.984c0.859-1.984,2.867-4.816,3.609-5.781
		C-131.818-54.545-140.146-57.577-145.9-55.788"/>
	<path fill="#E8423F" d="M-146.787-40.393c3.457,0.672,9.168,2.199,12.168,4.297c-0.063-0.771-0.121-1.531-0.121-2.281
		c0-1.816,0.191-3.563,0.504-5.266C-135.931-43.643-144.251-43.506-146.787-40.393"/>
	<path fill="#E8423F" d="M-137.869-69.866c0.699,0.879,10.641,13.406,11.008,13.863c1.754-1.344,5.715-3.527,6.992-4.23
		C-128.587-68.491-134.708-69.913-137.869-69.866"/>
	<path fill="#E8423F" d="M-146.169-22.346c1.414-0.391,2.84-0.832,4.551-1.457c2.992-1.094,6.094-2.215,9.457-2.16
		c-0.832-1.918-1.504-4-1.961-6.184C-136.044-31.393-145.771-27.331-146.169-22.346"/>
	<path fill="#E8423F" d="M-116.365-63.202c0,0.984-0.133,1.703-0.293,2.297c1.504-0.168,6.359-0.641,9.176-0.328
		c-4.234-11.715-9.059-16.176-11.93-17.871C-118.189-74.729-116.365-67.53-116.365-63.202"/>
	<path fill="#E8423F" d="M33.487,211.65c5.742,0.984,12.969,4.391,13.789,4.789c0,0,0.727,0.359,1.18,0.539
		c-0.031-0.156-0.031-0.313-0.031-0.469c0-3.125,1.016-5.641,2.891-7.547C46.885,208.197,39.198,207.697,33.487,211.65"/>
	<path fill="#E8423F" d="M51.081,230.478L51.081,230.478c-0.078,0.047-8.047,5.703-8.391,13.688
		c6.273-5.078,12.227-6.984,13.688-7.375c-0.922-0.953-1.75-2.078-2.555-3.391c0.016,0.016,0,0.016-1.203-2.266
		c0,0-0.508-0.906-0.688-1.25C51.768,229.978,51.51,230.166,51.081,230.478"/>
	<path fill="#E8423F" d="M46.854,219.509L46.854,219.509c-0.086,0.016-9.164,2.188-12.297,10.031
		c8.148-2.875,15.445-2.094,15.727-2.031c0,0,0.406,0.031,0.719,0.078c-1.359-2.906-2.18-5.734-2.5-8.438
		C48.26,219.212,47.768,219.306,46.854,219.509"/>
	<path fill="#E8423F" d="M70.471,245.197c0.023,0.031,0.023,0.078,0.023,0.078c1.109,7.219,4.539,11.148,6.672,12.547
		c0-0.563,0-1.625,0-1.625c0-2.984,0.391-7.328,3.305-11.172C77.69,245.962,74.198,246.041,70.471,245.197"/>
	<path fill="#E8423F" d="M58.659,239.142c-0.039,0.063-3.492,5.359-3.492,10.805c0,1.625,0.359,3.063,0.961,4.359
		c2.859-3.859,6.922-9.25,11.039-10.205C64.065,242.994,61.112,241.291,58.659,239.142"/>
	<path fill="#E8423F" d="M-89.955-176.354c0,0,0.016-0.008,0.016-0.023c-1.391-9.105-4.902-13.184-7.418-14.992
		c0.395,1.816,0.77,4.176,0.816,6.824c0.059,2.465-0.168,5.137-0.895,7.793l-0.215,0.797
		C-94.884-176.706-92.236-176.85-89.955-176.354"/>
	<path fill="#E8423F" d="M-100.673-176.385c-4.121-7.023-8.426-9.871-11.402-11.063c2.199,3.07,4.961,7.887,5.258,13.406l0.07,1.48
		c2.266-1.168,4.535-2.051,6.762-2.648L-100.673-176.385z"/>
	<path fill="#E8423F" d="M-116.306-167.467c-6.863-1.199-11.051-0.711-13.52,0.02c3.063,0.758,7.262,2.109,10.895,4.438l0.574,0.375
		c0.977-1.453,2.234-2.934,3.691-4.344L-116.306-167.467z"/>
	<path fill="#E8423F" d="M-119.869-160.163c-6.109,0.395-8.887,2.242-10.199,3.703c1.785,0,5.465,0.184,9.176,0.57
		c0.082-1.359,0.457-2.816,1.16-4.289L-119.869-160.163z"/>
	<path fill="#E8423F" d="M-108.337-171.659l-1.379-1.16c-4.293-3.551-8.535-4.809-11.656-5.207c5.289,3.473,7.754,9.113,8.066,9.84
		c0.52-0.527,2.734-2.168,4.352-3.137C-108.763-171.432-108.564-171.538-108.337-171.659"/>
	<path fill="#E8423F" d="M-93.345,199.994l-2.168,1.609c-2.844,2.125-5.113,5.969-5.113,9.375c0,0.297,0.07,0.547,0.094,0.844
		c3.531-2.5,8.152-4.5,9.195-4.938l2.871-1.188C-90.345,204.025-92.044,202.111-93.345,199.994"/>
	<path fill="#E8423F" d="M-96.357,191.291l-2.848,1.406c-7.199,3.656-9.512,7.344-10.207,9.711
		c2.922-1.398,7.754-3.297,12.762-3.695l2.52-0.18c-0.105-0.211-0.242-0.422-0.336-0.656
		C-95.412,195.767-96.037,193.509-96.357,191.291"/>
	<path fill="#E8423F" d="M-96.244,182.9l-3.32,0.234c-7.191,0.516-10.598,3.297-12.16,5.297c2.723,0.047,7.059,0.281,12.09,1.266
		l3.16,0.609C-96.771,187.767-96.65,185.212-96.244,182.9"/>
	<path fill="#E8423F" d="M-89.138,209.009c-1.129,2.594-1.723,4.875-1.723,6.859c0,1.484,0.371,2.766,0.977,3.938
		c4.617-5.969,7.648-8.203,10.113-8.875c-2.801-1.063-5.602-2.703-8.09-4.766L-89.138,209.009z"/>
	<path fill="#E8423F" d="M-109.306,176.291c2.375,0.703,5.926,1.875,10.305,3.75l3.094,1.328c0.648-2.5,1.641-4.703,2.953-6.313
		C-101.681,173.244-106.763,174.837-109.306,176.291"/>
	<path fill="#E8423F" d="M109.182-142.034c0,0-1.688,0.168-1.594,1.215c0.102,1.066,1.359,1.234,1.359,1.234
		s6.836,1.848,8.563-5.691C116.362-141.674,109.182-142.034,109.182-142.034"/>
	<path fill="#E8423F" d="M110.018-147.561c-0.578-0.121-2.359,0.84-2.328,1.902c0.031,0.57,0.656,0.602,1.258,0.695
		c2.773,0.395,8.953-4.504,6.195-5.406C114.018-150.745,113.768-147.338,110.018-147.561"/>
	<path fill="#E8423F" d="M78.213-171.737c-0.703-0.695-22.359,7.191-22.82,11.063c-0.031,0.313,0.43,1.32,1.531,1.082
		c0.813-0.168,11.563-1.281,19.813-0.84c3.172,0.176,6.031,0.879,7.703,1.535c2.234,0.848,5.344,0.52,5.477-0.441
		c0.102-0.984-7.867-3.254-11.375-3.535c-6.359-0.535-18.984,1.063-18.984,1.063S79.198-170.729,78.213-171.737"/>
	<path fill="#FFFFFF" d="M14.901-144.338c0,1.398,0.273,3.16,1.266,5.145c2.117-3.246,3.262-5.816,3.742-7.184
		c-1.77-0.113-3.496,0.031-4.785-0.055C15.006-145.905,14.901-145.194,14.901-144.338"/>
	<path fill="#FFFFFF" d="M24.42-144.971c0,1.777,0.25,4.074,1.234,6.121c2.23-2.641,3.285-5.77,3.734-7.527
		c-1.664,0-3.391-0.008-4.914-0.129C24.444-146.057,24.42-145.553,24.42-144.971"/>
	<path fill="#FFFFFF" d="M-90.357-125.827c4.473-16.246-7.07-31.656-6.863-44.223c-3.734,9.52,1.922,19.695,3.914,29.816
		c2.191,11.063,1.512,20.168-6.066,20.102c-1.422,0.035-1.301,1.426-0.488,1.41C-93.22-119.01-91.65-121.956-90.357-125.827"/>
	<path fill="#FFFFFF" d="M76.198-157.889c0.805,0.574,1.328,1.504,1.328,2.535c0,1.762-1.461,3.16-3.25,3.16
		c-1.82,0-3.273-1.398-3.273-3.16c0-1.152,0.617-2.129,1.586-2.688c-2.953,0.633-5.586,2.641-5.586,3.734
		c0,1.289,3.617,4,7.156,4.121c3.375,0.121,6.703-2.918,6.703-3.926C80.854-154.92,78.737-157.081,76.198-157.889"/>
	<path fill="#010202" d="M17.428-127.124c-0.672,1.242-1.504,3.191-1.504,5.402c0,2.398,0.93,4.453,2.711,5.969l0.402,0.328h7.383
		l-1.52-2.059c-0.969-1.277-1.617-2.895-2.352-4.711c-0.832-2.168-1.656-4.031-2.984-5.266l-1.305-1.168L17.428-127.124z"/>
	<path fill="#010202" d="M26.924-127.506c-0.68,1.402-1.512,3.711-1.512,6.863c0,1.176,0.176,2.504,0.465,3.875l0.223,1.086
		l3.785-0.16c-0.023,0,3.406-0.113,3.406-0.113l2.414-0.063l-1.344-1.93c-0.781-1.133-1.438-2.629-2.156-4.23
		c-0.887-2.047-1.777-4.016-2.977-5.551l-1.336-1.711L26.924-127.506z"/>
	<path fill="#FFFFFF" d="M21.292-121.729c-0.789-1.945-1.527-3.738-2.672-4.793c-0.75,1.344-1.336,3.023-1.336,4.801
		c0,0.254,0.016,0.504,0.043,0.75c1.078,0.016,2.559,0.051,4.293,0.082C21.502-121.186,21.397-121.448,21.292-121.729"/>
	<path fill="#FFFFFF" d="M30.999-121.674c-0.867-1.895-1.73-3.832-2.852-5.281c-0.52,1.082-1.324,3.195-1.359,6.137
		c1.504,0.031,3.059,0.059,4.602,0.09C31.245-121.049,31.124-121.354,30.999-121.674"/>
	<path fill="#FFFFFF" d="M33.362-116.834h-0.016H33.362z"/>
</g>
</svg>
