<?xml version="1.0"?>
<svg xmlns="http://www.w3.org/2000/svg" xmlns:xlink="http://www.w3.org/1999/xlink" height="647" width="530">
<g stroke="#000" stroke-width="3.6" fill="#d32">
<path d="m2 3v377a263 263 0 0 0 526 0v-377z" fill="#fff"/>
<path d="m528 2h-526v306h526z"/>
<path d="m286 324v-306h-42v306m0-285h-50v24.3h-16v-24.3h-62v42h45v18h-45v42h62v-24h16v24h24v17h-24v24h-16v-24h-62v42h45v18h-45v42h62v-24h16v24h50" fill="#fff"/>
<use xlink:href="#b" transform="matrix(-1,0,0,1,530,0)"/>
<g id="b">
<path id="a" d="m395 422c18 31 11 62-14 76s-36 1-35-22c-16 17-5 43 11 47 12 3 31-1 44-8 36-20 48-72 24-111"/>
<path d="m264 343h34c4 0 6-4 6-7v-21c0-3-2-7-6-7h-34m0 318c37 0 67-17 81-46 11-22 7-42 1-58-11-29-51-23-55 1 15-10 33-11 36 11 4 36-22 57-63 57m1-248h27c9 0 21 7 17 21l-15 51h-29"/>
<use xlink:href="#a" transform="matrix(.472 -.882 -.882 -.472 581 970)"/>
<path d="m264 334h40c12 0 11-17 0-17h-40"/>
<circle cy="483" cx="320" r="18.2"/>
<circle cy="543" cx="370" r="18.2"/>
</g>
<ellipse cy="371" cx="265" rx="21" ry="28"/>
<circle cy="426" cx="265" r="24.7"/>
</g></svg>