<?xml version="1.0" encoding="UTF-8" standalone="no"?>
<!-- Created with Inkscape (http://www.inkscape.org/) -->
<svg
   xmlns:svg="http://www.w3.org/2000/svg"
   xmlns="http://www.w3.org/2000/svg"
   version="1.0"
   width="996.2417"
   height="1200.0002"
   id="svg2">
  <defs
     id="defs2549" />
  <g
     transform="translate(303.85826,218.32936)"
     id="layer1">
    <g
       transform="matrix(0.1036449,0,0,0.1036449,-156.60784,-256.25836)"
       style="fill-rule:evenodd;display:inline"
       id="g2416">
      <g
         transform="translate(2.0547368e-5,2.7031579e-6)"
         style="fill-rule:evenodd;display:inline"
         id="g2724">
        <path
           d="M -1392.5992,394.24035 L 3366.2265,394.24035 L 3366.2265,5939.3543 L -1392.5992,5939.3543 L -1392.5992,394.24035 z "
           style="fill:#0a0a64;fill-opacity:1;fill-rule:evenodd;stroke:#000000;stroke-width:36.92210388;stroke-miterlimit:4;stroke-dasharray:none;stroke-opacity:1"
           id="path16" />
        <path
           d="M -940.90721,637.37466 L -958.61512,623.56119 L -870.07559,567.58028 L -648.72677,694.08259 L -484.92864,777.69044 L -213.40742,733.34193 L -61.414565,700.62582 L 106.81054,772.60127 L 175.42867,880.92797 L 148.86681,1043.7815 L -20.096119,1333.1374 L -26.736583,1498.899 L 10.154887,1690.8336 L -48.133636,1666.8418 L -118.22743,1591.2312 L -164.71068,1477.8153 L -244.39626,1671.2039 L -221.52354,1877.679 L -152.90541,2002.0002 L -15.669142,2084.881 L 144.43984,2080.5189 L 286.10308,2047.0757 L 384.97222,2111.0539 L 460.96865,2193.9348 L 618.12631,2053.619 L 549.50818,2021.6299 L 446.94989,1929.2977 L 382.0209,1922.0275 L 317.09192,1948.2004 L 324.47021,1895.8546 L 382.0209,1834.0575 L 503.76276,1837.6926 L 661.65825,1905.3059 L 728.80072,1908.941 L 820.29157,1830.4224 L 869.72614,1713.3714 L 837.26164,1615.95 L 802.58366,1583.9609 L 913.25807,1531.6152 L 967.11962,1465.4559 L 993.68148,1381.121 L 972.28442,1294.6051 L 863.8235,1232.808 L 745.7708,1203 L 680.84181,1161.5595 L 621.07763,1099.7624 L 663.13391,1082.3138 L 691.90925,1040.8734 L 689.69576,990.70871 L 636.57205,944.17912 L 614.43717,944.17912 L 614.43717,920.18731 L 1197.3224,920.18731 L 1360.3827,1093.9462 L 1454.8249,1193.5486 L 1576.5667,1228.4458 L 1535.2483,1263.343 L 1477.6976,1270.6133 L 1397.2742,1252.4376 L 1322.7534,1219.7215 L 1430.4765,1378.94 L 1426.0495,1530.1611 L 1299.1428,1911.1221 L 1271.1053,2041.2595 L 1351.5287,2169.9429 L 1457.7762,2076.1567 L 1585.4207,2064.5243 L 1817.0991,2102.3296 L 1950.6462,2067.4324 L 2033.2831,1979.4624 L 2078.2907,1865.3195 L 2086.4068,1703.193 L 2032.5453,1485.8126 L 1979.4216,1416.7452 L 1925.56,1565.7853 L 1856.204,1631.9446 L 1801.6047,1663.9337 L 1828.1665,1570.8745 L 1837.0205,1402.9318 L 1810.4586,1283.6997 L 1640.02,1019.0627 L 1612.7203,916.55218 L 1644.447,825.67408 L 1733.7244,749.33648 L 1852.5149,727.52573 L 2114.4443,773.3283 L 2247.9915,814.04168 L 2345.3849,801.68226 L 2459.0107,737.70408 L 2585.1795,649.00706 L 2675.1947,622.83416 L 2767.4234,651.18813 L 2684.7865,686.81234 L 2551.2393,835.1254 L 2471.5538,907.10086 L 2396.2952,945.63317 L 2599.9361,1062.6842 L 2777.0151,1226.9918 L 2912.7757,1282.2457 L 3005.0044,1267.7052 L 2992.4613,1380.394 L 2929.7458,1475.6343 L 2835.3037,1523.6179 L 2730.5319,1523.6179 L 2587.393,1458.9127 L 2444.9919,1370.9427 L 2633.8762,1631.2176 L 2779.2286,1767.1712 L 2876.6221,1820.244 L 2982.8695,1803.5224 L 2990.2478,1900.9438 L 2892.8544,2026.7191 L 2803.577,2047.8028 L 2658.2246,1994.0029 L 2504.7561,1868.9547 L 2535.0071,1970.0111 L 2734.221,2269.5453 L 2831.6145,2366.9667 L 2898.757,2384.4153 L 2993.1992,2359.6964 L 2975.4912,2502.9203 L 2922.3675,2589.4362 L 2826.4497,2647.5982 L 2730.5319,2639.601 L 2663.3894,2610.52 L 2423.5949,2376.418 L 2519.5127,2581.439 L 2804.3148,2958.7648 L 2881.7869,3005.2944 L 2988.7722,2996.5701 L 2952.6185,3116.5292 L 2872.933,3192.1398 L 2721.6779,3227.764 L 2585.9173,3173.9642 L 2387.4412,2948.5865 L 2169.7815,2619.2443 L 2314.3961,2950.7676 L 2565.9959,3345.542 L 2746.0263,3529.4793 L 2866.2925,3584.0062 L 2999.8396,3573.1008 L 2914.9892,3728.6841 L 2779.2286,3805.7487 L 2681.0973,3814.473 L 2570.4229,3779.5758 L 2365.3063,3632.7168 L 2120.347,3285.926 L 1776.5185,2602.5227 L 1775.7806,2719.5737 L 1856.204,3067.8186 L 1922.6087,3291.7422 L 1995.6538,3462.593 L 2115.92,3610.1791 L 1979.4216,3653.0735 L 1808.983,3623.9925 L 1675.4358,3505.4875 L 1572.1397,3333.9096 L 1478.4354,3051.097 L 1438.5926,2857.7084 L 1265.2027,3458.9579 L 1423.836,3626.1736 L 1626.7391,3770.8515 L 1766.9267,3803.5677 L 1953.5975,3803.5677 L 1822.2639,3908.9863 L 1622.3121,3978.7806 L 1668.7954,4112.5532 L 1662.1549,4338.6579 L 1580.2559,4583.6653 L 1513.1134,4432.4441 L 1395.0607,4272.4987 L 1268.154,4136.545 L 1248.2326,4303.0337 L 1147.8878,4561.8545 L 1085.9102,4774.8728 L 1108.045,4915.1886 L 1250.4461,5031.5125 L 1390.6337,5018.4261 L 1459.9897,4950.0858 L 1475.4841,4889.0157 L 1426.0495,4785.7782 L 1557.3831,4790.1403 L 1666.5819,4886.8346 L 1673.2224,4989.3451 L 1602.3907,5099.1259 L 1659.9414,5101.3069 L 1793.4885,5042.4179 L 1984.5864,4915.1886 L 2196.3434,4857.7536 L 2409.5761,4882.4725 L 2551.9772,4950.0858 L 2696.5917,5099.1259 L 2732.7454,5269.9767 L 2712.824,5472.0896 L 2694.3782,5421.1978 L 2641.2545,5316.5063 L 2538.6962,5245.9849 L 2383.0142,5243.8038 L 2220.6918,5316.5063 L 2014.0995,5493.9003 L 1848.8258,5603.6811 L 1695.3572,5647.3026 L 1493.192,5645.1215 L 1324.229,5579.6892 L 1172.974,5465.5464 L 1026.146,5318.6873 L 1030.5729,5421.1978 L 1096.9776,5565.8758 L 1179.6145,5684.3808 L 1014.3407,5666.2052 L 987.04101,5683.6538 L 946.4604,5776.713 L 891.86102,5710.5537 L 874.89094,5670.5673 L 706.66584,5667.6592 L 791.51622,5585.5054 L 843.90211,5490.9922 L 883.00707,5387.0277 L 871.2018,5299.0577 L 736.91685,5504.8057 L 625.50461,5615.3135 L 448.42555,5674.9295 L 271.34649,5691.6511 L 167.31255,5672.7484 L 45.570698,5624.7648 L -160.2837,5464.8193 L -322.60617,5338.317 L -489.35562,5261.2524 L -638.39716,5252.5281 L -727.67451,5290.3334 L -780.79823,5349.2224 L -794.07916,5421.1978 L -787.43869,5548.4272 L -854.58117,5430.6492 L -874.50256,5307.782 L -850.15419,5180.5526 L -785.22521,5055.5044 L -664.95901,4945.7236 L -502.63655,4870.8401 L -355.8085,4859.9347 L -159.54588,4902.8292 L 231.50371,5099.1259 L 199.77704,4963.8992 L 226.3389,4855.5725 L 329.63502,4792.3214 L 457.2795,4779.962 L 423.33935,4891.9238 L 464.6578,4998.7964 L 589.35097,5058.4125 L 707.40367,5048.9611 L 796.68103,4989.3451 L 827.66986,4862.1158 L 798.89452,4647.6435 L 665.34739,4367.0119 L 581.23484,4167.8071 L 394.564,4365.5578 L 330.37285,4452.0738 L 255.85208,4586.5734 L 193.87441,4302.3067 L 199.77704,4131.4558 L 244.78464,3946.7915 L 116.40232,3924.9808 L -13.455654,3855.1864 L -42.96883,3813.019 L 177.64216,3815.9271 L 336.27548,3726.503 C 344.3916,3722.1409 356.19688,3712.6896 363.57517,3708.3274 L 511.14105,3552.7441 L 548.03252,3416.7905 L 528.11113,3266.2963 L 370.95346,2852.6192 L 329.63502,3096.1725 L 256.58991,3342.6339 L 162.14774,3497.4902 L 50.735504,3584.0062 L -60.676736,3631.9898 L -150.69192,3643.6222 L -254.72587,3636.352 L -206.76696,3560.0144 L -145.52712,3447.3255 L -36.328365,3034.3754 L 4.2522516,2833.7166 L 28.600622,2606.1578 L -167.662,3079.451 L -342.52757,3447.3255 L -529.1984,3679.2464 L -696.68568,3777.3948 L -856.79466,3810.8379 L -987.39046,3786.8461 L -1106.181,3698.8761 L -1148.2373,3631.9898 L -1158.5669,3580.371 L -1021.3306,3601.4548 L -862.69729,3504.7605 L -659.79421,3280.1098 L -545.43065,3094.7185 L -397.12694,2827.9004 L -280.5499,2538.5445 L -350.64369,2607.6119 L -574.206,2919.5055 L -734.31498,3091.0834 L -884.09435,3186.3236 L -1037.5629,3209.5884 L -1154.8777,3156.5156 L -1185.1287,3097.6266 L -1205.0501,2959.4919 L -1129.7915,2995.1161 L -1057.4843,2966.7621 L -918.77233,2853.3462 L -732.10149,2604.7038 L -545.43065,2310.9857 L -726.93668,2479.6555 L -879.66737,2595.9795 L -1060.4356,2625.7875 L -1152.6642,2553.812 L -1193.9827,2443.3043 L -1196.934,2339.3397 L -1137.9077,2384.4153 L -1047.8925,2351.6991 L -922.46147,2238.2833 L -730.62583,2011.4515 L -680.45343,1924.2086 L -689.30738,1909.6681 L -893.68613,2032.5352 L -1012.4767,2061.6162 L -1125.3646,2011.4515 L -1175.537,1938.7491 L -1190.2935,1859.5033 L -1178.4883,1783.8928 L -1110.608,1810.0657 L -977.06085,1760.628 L -855.319,1640.6689 L -629.5432,1330.9563 L -704.06397,1374.5778 L -893.68613,1491.6288 L -1015.428,1514.8936 L -1089.2109,1500.3531 L -1172.5856,1442.1911 L -1208.0015,1342.5887 L -1202.0988,1269.1592 L -1083.3083,1287.3348 L -941.64504,1205.181 L -771.94428,1047.4166 L -608.88398,915.82516 L -674.5508,892.56036 L -774.89559,760.96887 L -805.1466,705.71499 L -875.97822,662.82053 L -940.90721,637.37466 z "
           style="fill:#ffffff;fill-rule:evenodd"
           id="path72" />
        <path
           d="M -857.53249,2777.7357 L -661.26987,2499.2852 L -661.26987,2992.208 L -1118.7241,2992.208 L -1008.0497,2943.4973 L -857.53249,2777.7357 z "
           style="fill:#ba2b1a;fill-rule:evenodd"
           id="path74" />
        <path
           d="M -1092.1622,1498.899 L -1177.0126,1426.9236 L -780.79823,1426.9236 L -883.35652,1483.6315 L -1010.2632,1509.8044 L -1092.1622,1498.899 z "
           style="fill:#ba2b1a;fill-rule:evenodd"
           id="path76" />
        <path
           d="M 1436.3791,1256.7998 L 1436.3791,1177.5541 L 1465.8923,1200.0919 L 1564.7614,1227.7188 L 1544.84,1255.3457 L 1508.6864,1272.7943 L 1436.3791,1256.7998 z "
           style="fill:#ba2b1a;fill-rule:evenodd"
           id="path78" />
        <path
           d="M 985.56535,1426.9236 L 1449.66,1426.9236 L 1414.2442,1592.6852 L 1313.8994,1873.3168 L 1288.8132,1966.376 L 936.13078,1966.376 L 936.13078,1510.5314 L 985.56535,1426.9236 z "
           style="fill:#ba2b1a;fill-rule:evenodd"
           id="path80" />
        <path
           d="M 936.13078,1264.7971 L 936.13078,916.55218 L 616.65065,916.55218 L 616.65065,944.90615 L 674.93918,973.26012 L 692.64708,1011.7924 L 685.26879,1052.5058 L 646.90166,1093.2192 L 618.12631,1104.1246 L 702.97669,1181.9162 L 800.37017,1221.9026 L 936.13078,1264.7971 z "
           style="fill:#ba2b1a;fill-rule:evenodd"
           id="path82" />
        <path
           d="M 1617.8851,971.80607 L 1617.8851,913.64408 L 1977.2081,913.64408 L 1977.2081,1426.9236 L 1833.3313,1426.9236 L 1827.4287,1344.0428 L 1777.9941,1232.808 L 1700.522,1123.0272 L 1617.8851,971.80607 z "
           style="fill:#ba2b1a;fill-rule:evenodd"
           id="path84" />
        <path
           d="M 2459.7485,913.64408 L 1977.2081,913.64408 L 1977.2081,744.97433 L 2139.5305,779.14449 L 2254.6319,811.86061 L 2379.3251,794.41202 L 2504.7561,694.08259 L 2504.7561,878.01987 L 2459.7485,913.64408 z "
           style="fill:#ba2b1a;fill-rule:evenodd"
           id="path86" />
        <path
           d="M 2573.3742,1043.7815 L 2504.7561,997.97896 L 2504.7561,1400.0237 L 2546.0745,1426.9236 L 2969.5886,1426.9236 L 3010.1692,1323.6861 L 3001.3153,1258.9809 L 2917.9406,1280.0646 L 2793.2474,1236.4431 L 2573.3742,1043.7815 z "
           style="fill:#ba2b1a;fill-rule:evenodd"
           id="path88" />
        <path
           d="M 2064.2719,1591.2312 L 2003.7699,1426.9236 L 2479.6699,1426.9236 L 2504.7561,1458.1857 L 2504.7561,1966.376 L 2041.3992,1966.376 L 2084.9312,1812.2467 L 2064.2719,1591.2312 z "
           style="fill:#ba2b1a;fill-rule:evenodd"
           id="path90" />
        <path
           d="M 2696.5917,2013.6326 L 2624.2845,1966.376 L 2952.6185,1966.376 L 2897.2813,2023.811 L 2817.5958,2046.3487 L 2696.5917,2013.6326 z "
           style="fill:#ba2b1a;fill-rule:evenodd"
           id="path92" />
        <path
           d="M 2545.3367,1966.376 L 2504.7561,1966.376 L 2504.7561,2465.842 L 2985.8209,2465.842 L 3002.7909,2377.145 L 2982.8695,2353.1532 L 2912.7757,2381.5072 L 2820.5471,2360.4234 L 2701.7565,2219.3806 L 2568.2094,2023.0839 L 2545.3367,1966.376 z "
           style="fill:#ba2b1a;fill-rule:evenodd"
           id="path94" />
        <path
           d="M 2504.7561,3096.1725 L 2504.7561,2992.208 L 2976.9669,2992.208 L 2979.9182,3066.3645 L 2878.8356,3189.2317 L 2740.8615,3231.3991 L 2608.79,3189.2317 L 2504.7561,3096.1725 z "
           style="fill:#ba2b1a;fill-rule:evenodd"
           id="path96" />
        <path
           d="M 2079.0285,2465.842 L 2460.4863,2465.842 L 2504.7561,2550.1769 L 2504.7561,2992.208 L 2423.5949,2992.208 L 2239.1375,2715.9386 L 2079.0285,2465.842 z "
           style="fill:#ba2b1a;fill-rule:evenodd"
           id="path98" />
        <path
           d="M 2073.8637,2465.842 L 1977.2081,2465.842 L 1977.2081,2992.208 L 2338.0066,2992.208 L 2158.7141,2611.247 L 2073.8637,2465.842 z "
           style="fill:#ba2b1a;fill-rule:evenodd"
           id="path100" />
        <path
           d="M 2577.8012,3354.2663 L 2504.7561,3256.118 L 2504.7561,3518.5739 L 2737.9102,3518.5739 L 2577.8012,3354.2663 z "
           style="fill:#ba2b1a;fill-rule:evenodd"
           id="path102" />
        <path
           d="M 2278.2425,3518.5739 L 2504.7561,3518.5739 L 2504.7561,3746.1327 L 2365.3063,3634.8979 L 2278.2425,3518.5739 z "
           style="fill:#ba2b1a;fill-rule:evenodd"
           id="path104" />
        <path
           d="M 1977.2081,3650.8925 L 1977.2081,3518.5739 L 2039.9236,3518.5739 L 2119.6091,3610.1791 L 2020.0022,3650.8925 L 1977.2081,3650.8925 z "
           style="fill:#ba2b1a;fill-rule:evenodd"
           id="path106" />
        <path
           d="M 1515.3269,3179.0534 L 1470.3193,2992.208 L 1841.4475,2992.208 L 1899.736,3231.3991 L 1977.2081,3418.2445 L 1977.2081,3518.5739 L 1686.5033,3518.5739 L 1592.7989,3376.0771 L 1515.3269,3179.0534 z "
           style="fill:#ba2b1a;fill-rule:evenodd"
           id="path108" />
        <path
           d="M 1436.3791,2465.842 L 1977.2081,2465.842 L 1977.2081,2050.7109 L 1854.7284,2095.0594 L 1694.6194,2083.427 L 1523.443,2059.4352 L 1436.3791,2104.5107 L 1436.3791,2465.842 z "
           style="fill:#ba2b1a;fill-rule:evenodd"
           id="path110" />
        <path
           d="M 332.58633,1874.0438 L 393.82617,1835.5115 L 393.82617,1920.5734 L 351.03207,1928.5707 L 314.1406,1948.9274 L 332.58633,1874.0438 z "
           style="fill:#ba2b1a;fill-rule:evenodd"
           id="path112" />
        <path
           d="M 493.43314,1966.376 L 936.13078,1966.376 L 936.13078,2465.842 L 393.82617,2465.842 L 393.82617,2122.6863 L 459.49299,2183.0294 L 503.76276,2142.316 L 618.86414,2055.8 L 556.88647,2026.7191 L 493.43314,1966.376 z "
           style="fill:#ba2b1a;fill-rule:evenodd"
           id="path114" />
        <path
           d="M 936.13078,2992.208 L 936.13078,2465.842 L 1436.3791,2465.842 L 1436.3791,2865.7057 L 1398.7498,2992.208 L 936.13078,2992.208 z "
           style="fill:#ba2b1a;fill-rule:evenodd"
           id="path116" />
        <path
           d="M 429.24199,2992.208 L 936.13078,2992.208 L 936.13078,3518.5739 L 519.25717,3518.5739 L 545.81903,3434.2391 L 542.12988,3307.0097 L 429.24199,2992.208 z "
           style="fill:#ba2b1a;fill-rule:evenodd"
           id="path118" />
        <path
           d="M -133.72185,1562.1502 L -133.72185,1426.9236 L -29.687901,1426.9236 L -24.523095,1516.3476 L 14.581863,1690.8336 L -22.309607,1686.4714 L -82.811618,1633.3986 L -133.72185,1562.1502 z "
           style="fill:#ba2b1a;fill-rule:evenodd"
           id="path120" />
        <path
           d="M -40.017512,708.62309 L -133.72185,714.43929 L -133.72185,913.64408 L 173.95301,913.64408 L 159.19643,837.30648 L 102.38356,769.69317 L -40.017512,708.62309 z "
           style="fill:#ba2b1a;fill-rule:evenodd"
           id="path122" />
        <path
           d="M -613.31096,913.64408 L -133.72185,913.64408 L -133.72185,1426.9236 L -661.26987,1426.9236 L -661.26987,948.54127 L -613.31096,913.64408 z "
           style="fill:#ba2b1a;fill-rule:evenodd"
           id="path124" />
        <path
           d="M -761.61467,603.20449 L -661.26987,683.17722 L -661.26987,900.55764 L -732.83932,829.30921 L -794.81699,719.52846 L -905.4914,648.28003 L -964.51775,624.28821 L -886.30783,572.66945 L -761.61467,603.20449 z "
           style="fill:#ba2b1a;fill-rule:evenodd"
           id="path126" />
        <path
           d="M -693.73436,1426.9236 L -661.26987,1426.9236 L -661.26987,1966.376 L -703.32614,1966.376 L -678.97777,1903.1248 L -764.56598,1966.376 L -1160.7804,1966.376 L -1189.5557,1863.8655 L -1182.9153,1782.4387 L -1114.2971,1808.6116 L -957.87729,1746.8145 L -693.73436,1426.9236 z "
           style="fill:#ba2b1a;fill-rule:evenodd"
           id="path128" />
        <path
           d="M -661.26987,2422.2205 L -661.26987,1966.376 L -178.72944,1966.376 L -133.72185,2009.9975 L -133.72185,2465.842 L -645.77545,2465.842 L -591.9139,2363.3315 L -661.26987,2422.2205 z "
           style="fill:#ba2b1a;fill-rule:evenodd"
           id="path130" />
        <path
           d="M -133.72185,2992.208 L -133.72185,2465.842 L 393.82617,2465.842 L 393.82617,2923.1406 L 370.95346,2840.9868 L 355.45905,2992.208 L -26.736583,2992.208 L 35.241086,2630.1496 L -65.841541,2828.6274 L -133.72185,2992.208 z "
           style="fill:#ba2b1a;fill-rule:evenodd"
           id="path132" />
        <path
           d="M 1322.0156,3518.5739 L 936.13078,3518.5739 L 936.13078,4031.1264 L 1436.3791,4031.1264 L 1436.3791,3637.079 L 1322.0156,3518.5739 z "
           style="fill:#ba2b1a;fill-rule:evenodd"
           id="path134" />
        <path
           d="M 1646.6605,4031.1264 L 1436.3791,4031.1264 L 1436.3791,4322.6634 L 1531.5591,4464.4332 L 1577.3045,4570.5788 L 1585.4207,4570.5788 L 1659.2036,4367.0119 L 1673.2224,4177.2584 L 1646.6605,4031.1264 z "
           style="fill:#ba2b1a;fill-rule:evenodd"
           id="path136" />
        <path
           d="M -1171.8478,2526.1851 L -1188.8179,2465.842 L -705.53963,2465.842 L -848.67853,2579.2579 L -963.04209,2628.6956 L -1099.5405,2606.8848 L -1171.8478,2526.1851 z "
           style="fill:#ba2b1a;fill-rule:evenodd"
           id="path138" />
        <path
           d="M -484.92864,2992.208 L -133.72185,2992.208 L -314.49005,3389.8906 L -396.38911,3518.5739 L -661.26987,3518.5739 L -661.26987,3274.2936 L -484.92864,2992.208 z "
           style="fill:#ba2b1a;fill-rule:evenodd"
           id="path140" />
        <path
           d="M -183.89425,3518.5739 L -133.72185,3518.5739 L -133.72185,3389.8906 L -183.89425,3518.5739 z "
           style="fill:#ba2b1a;fill-rule:evenodd"
           id="path142" />
        <path
           d="M 137.06154,3518.5739 L 37.454575,3596.3656 L -89.452082,3637.079 L -133.72185,3639.2601 L -133.72185,3518.5739 L 137.06154,3518.5739 z "
           style="fill:#ba2b1a;fill-rule:evenodd"
           id="path144" />
        <path
           d="M 393.82617,3677.0653 L 393.82617,4031.1264 L 218.22278,4031.1264 L 241.09549,3948.2456 L 128.94542,3926.4349 L -10.504336,3858.0945 L -45.920148,3810.1109 L 97.218756,3821.7433 L 205.67968,3799.9325 L 393.82617,3677.0653 z "
           style="fill:#ba2b1a;fill-rule:evenodd"
           id="path146" />
        <path
           d="M 759.05173,4570.5788 L 584.92399,4168.5341 L 393.82617,4373.5551 L 393.82617,4031.1264 L 936.13078,4031.1264 L 936.13078,4570.5788 L 759.05173,4570.5788 z "
           style="fill:#ba2b1a;fill-rule:evenodd"
           id="path148" />
        <path
           d="M -890.73481,3518.5739 L -661.26987,3518.5739 L -661.26987,3773.0326 L -856.79466,3813.019 L -1040.5142,3770.1245 L -1113.5593,3693.7869 L -1149.7129,3621.8115 L -1154.8777,3586.1872 L -1030.9224,3600.7277 L -890.73481,3518.5739 z "
           style="fill:#ba2b1a;fill-rule:evenodd"
           id="path150" />
        <path
           d="M 936.13078,5057.6854 L 936.13078,4570.5788 L 1143.4608,4570.5788 L 1091.8128,4766.1485 L 1097.7154,4894.1049 L 1197.3224,5000.9775 L 1319.8021,5024.9693 L 1436.3791,4981.3478 L 1436.3791,5057.6854 L 936.13078,5057.6854 z "
           style="fill:#ba2b1a;fill-rule:evenodd"
           id="path152" />
        <path
           d="M 1436.3791,5570.965 L 1436.3791,5057.6854 L 1631.1661,5057.6854 L 1597.9638,5096.9448 L 1664.3684,5099.1259 L 1751.4323,5057.6854 L 1977.2081,5057.6854 L 1977.2081,5520.0732 L 1907.1143,5570.965 L 1436.3791,5570.965 z "
           style="fill:#ba2b1a;fill-rule:evenodd"
           id="path154" />
        <path
           d="M 2504.7561,5057.6854 L 1977.2081,5057.6854 L 1977.2081,4917.3697 L 2143.2197,4862.1158 L 2338.7445,4862.1158 L 2504.7561,4921.7318 L 2504.7561,5057.6854 z "
           style="fill:#ba2b1a;fill-rule:evenodd"
           id="path156" />
        <path
           d="M 2661.1759,5057.6854 L 2504.7561,5057.6854 L 2504.7561,5241.6227 L 2592.5578,5274.3388 L 2661.1759,5347.0413 L 2708.397,5469.9085 L 2732.7454,5384.1196 L 2721.6779,5208.9066 L 2661.1759,5057.6854 z "
           style="fill:#ba2b1a;fill-rule:evenodd"
           id="path158" />
        <path
           d="M 1307.259,5570.965 L 1436.3791,5624.0378 L 1436.3791,5570.965 L 1307.259,5570.965 z "
           style="fill:#ba2b1a;fill-rule:evenodd"
           id="path160" />
        <path
           d="M 1099.1911,5570.965 L 936.13078,5570.965 L 936.13078,5766.5346 L 956.79001,5765.0806 L 983.35187,5702.5564 L 1004.0111,5668.3863 L 1119.8503,5674.2025 L 1176.6632,5688.0159 L 1172.2362,5663.2971 L 1119.8503,5612.4054 L 1099.1911,5570.965 z "
           style="fill:#ba2b1a;fill-rule:evenodd"
           id="path162" />
        <path
           d="M 393.82617,5570.965 L 393.82617,5057.6854 L 936.13078,5057.6854 L 936.13078,5570.965 L 801.108,5570.965 L 869.72614,5434.2843 L 888.17187,5335.4089 L 864.56133,5307.782 L 675.67701,5570.965 L 393.82617,5570.965 z "
           style="fill:#ba2b1a;fill-rule:evenodd"
           id="path164" />
        <path
           d="M 218.22278,5057.6854 L 393.82617,5057.6854 L 393.82617,4785.7782 L 291.26789,4805.4078 L 224.86324,4855.5725 L 196.0879,4952.2668 L 218.22278,5057.6854 z "
           style="fill:#ba2b1a;fill-rule:evenodd"
           id="path166" />
        <path
           d="M -133.72185,4915.9156 L 151.81813,5057.6854 L -133.72185,5057.6854 L -133.72185,4915.9156 z "
           style="fill:#ba2b1a;fill-rule:evenodd"
           id="path168" />
        <path
           d="M -661.26987,5263.4335 L -661.26987,5057.6854 L -133.72185,5057.6854 L -133.72185,5490.2652 L -310.06307,5344.8602 L -445.82368,5273.6118 L -595.60305,5249.62 L -661.26987,5263.4335 z "
           style="fill:#ba2b1a;fill-rule:evenodd"
           id="path170" />
        <path
           d="M -780.79823,5057.6854 L -661.26987,5057.6854 L -661.26987,4947.9047 L -780.79823,5057.6854 z "
           style="fill:#ba2b1a;fill-rule:evenodd"
           id="path172" />
        <path
           d="M 155.50728,5679.2916 L -33.377048,5570.965 L 393.82617,5570.965 L 393.82617,5682.1997 L 155.50728,5679.2916 z "
           style="fill:#ba2b1a;fill-rule:evenodd"
           id="path174" />
        <path
           d="M 1626.7391,3971.5104 L 1716.0165,3946.0645 L 1789.0616,4002.0454 L 1935.1518,4076.202 L 2066.4854,4128.5477 L 2149.8601,4140.9072 L 2242.0888,4102.3749 L 2363.0928,3974.4185 L 2453.108,3906.8052 L 2560.0933,3906.8052 L 2630.1871,3978.7806 L 2650.8463,4060.9344 L 2639.7789,4084.9263 L 2605.1009,4089.2884 L 2563.7824,4062.3885 L 2540.9097,4114.0073 L 2499.5913,4142.3612 L 2456.7972,4145.9963 L 2419.1679,4114.0073 L 2397.7708,4155.4477 L 2316.6096,4178.7125 L 2244.3023,4185.9827 L 2343.1714,4194.707 L 2467.1268,4168.5341 L 2594.0334,4122.7315 L 2732.7454,4073.2939 L 2836.7793,4071.1128 L 2914.9892,4129.2748 L 2945.9781,4200.5232 L 2927.5323,4309.5769 L 2912.7757,4312.485 L 2864.8168,4232.5123 L 2824.2362,4203.4313 L 2822.0227,4251.4149 L 2799.8878,4297.2175 L 2751.1911,4333.5687 L 2687.7378,4340.839 L 2636.8276,4296.4905 L 2611.0035,4240.5096 L 2562.3068,4287.0392 L 2399.2465,4338.6579 L 2475.2429,4357.5606 L 2734.221,4365.5578 L 2861.8655,4430.263 L 2903.184,4534.9546 L 2878.8356,4633.103 L 2837.5171,4702.1703 L 2827.9254,4638.1921 L 2796.1987,4585.1193 L 2762.2585,4558.9464 L 2733.4832,4601.8409 L 2699.543,4638.1921 L 2616.9062,4644.7354 L 2560.8311,4594.5706 L 2539.4341,4549.4951 L 2541.6476,4489.8791 L 2517.2992,4516.052 L 2495.9021,4518.233 L 2376.3738,4484.7899 L 2243.5645,4434.6252 L 2175.6842,4494.2412 L 2168.3059,4588.0274 L 2138.7927,4618.5625 L 2076.0772,4638.1921 L 2032.5453,4633.103 L 1965.4028,4593.8436 L 1984.5864,4713.8027 L 1936.6275,4694.173 L 1867.2715,4616.3814 L 1851.0392,4537.1357 L 1890.1442,4480.4278 L 1997.1295,4393.1848 L 2029.594,4357.5606 L 2030.3318,4329.9336 L 1920.3952,4258.6852 L 1794.2264,4196.1611 L 1733.7244,4178.7125 L 1672.4845,4183.8016 L 1659.2036,4071.8398 L 1626.7391,3971.5104 z "
           style="fill:#e9cc0c;fill-rule:evenodd"
           id="path176" />
        <path
           d="M 129.68325,3916.9835 L -9.766507,4016.5859 L -149.21626,4098.7397 L -265.05548,4139.4531 L -366.13811,4136.545 L -428.11578,4104.5559 L -502.63655,3996.2292 L -564.61422,3905.3511 L -642.0863,3884.9944 L -707.01529,3905.3511 L -748.33374,3949.6996 L -766.04164,3987.5049 L -771.94428,4090.7425 L -750.54722,4089.2884 L -710.70444,4043.4858 L -699.637,4089.2884 L -662.74553,4140.1801 L -580.10863,4115.4613 L -550.59546,4166.353 L -470.90988,4207.7935 L -566.08987,4204.8854 L -743.90676,4140.9072 L -928.36411,4075.4749 L -1022.8063,4097.2857 L -1100.2784,4185.9827 L -1109.1323,4327.7525 L -1067.8139,4377.1902 L -1011.001,4271.0446 L -987.39046,4332.1147 L -928.36411,4364.8308 L -873.0269,4349.5633 L -838.34892,4319.0282 L -822.85451,4282.677 L -769.73079,4312.485 L -645.03762,4331.3877 L -557.97375,4327.0255 L -656.10506,4364.8308 L -800.71962,4396.0929 L -925.41279,4402.6361 L -987.39046,4447.7116 L -1014.6901,4523.3222 L -999.19573,4606.9301 L -946.07202,4686.9028 L -930.5776,4697.8082 L -922.46147,4646.9164 L -890.73481,4605.476 C -890.73481,4611.2922 -889.25915,4612.7463 -887.78349,4617.8354 L -851.62985,4668.7272 L -763.09032,4664.365 L -721.03405,4617.1084 L -715.86924,4535.6816 L -436.2319,4440.4414 L -348.4302,4420.0847 L -284.23904,4473.8845 L -298.2578,4532.7735 L -277.59858,4593.1166 L -221.52354,4620.7435 L -175.77812,4614.9273 L -144.05146,4591.6625 L -122.65441,4636.0111 L -124.13006,4729.0702 L -85.025106,4715.2568 L -20.096119,4649.8245 L -6.07736,4534.2276 L -40.755342,4443.3495 L -128.55704,4370.647 L -161.75936,4335.0228 L -149.95409,4308.8499 L -39.279683,4231.7853 L 61.802945,4175.0773 L 88.364803,4171.4422 L 200.51487,4173.6233 L 238.882,3946.0645 L 129.68325,3916.9835 z "
           style="fill:#e9cc0c;fill-rule:evenodd"
           id="path178" />
        <path
           d="M 1664.3684,4079.8371 L 1658.4658,4032.5805 C 1668.0575,4052.2101 1690.1924,4086.3803 1713.803,4092.9235 C 1738.8892,4100.9208 1772.8293,4106.737 1800.129,4111.8262 C 1815.6234,4114.7343 1786.1103,4119.8235 1781.6833,4120.5505 C 1763.9754,4123.4586 1667.3197,4102.3749 1664.3684,4079.8371 z "
           style="fill:#000000;fill-rule:evenodd"
           id="path180" />
        <path
           d="M 1671.0089,4171.4422 L 1673.2224,4191.7989 C 1741.1027,4161.2639 1859.8932,4243.4177 1891.6199,4258.6852 C 1944.7436,4284.8581 2019.2643,4329.9336 2019.2643,4345.9282 C 2019.2643,4366.2849 1975.7324,4404.0901 1924.8222,4441.8954 C 1858.4175,4490.6061 1811.9343,4547.314 1858.4175,4630.1949 C 1878.3389,4665.0921 1986.062,4758.8782 2031.0696,4721.073 C 1983.8485,4711.6216 1991.2268,4659.2759 1990.489,4625.1057 C 2020.0022,4650.5516 2112.9687,4658.5488 2157.2384,4621.4706 C 2202.246,4583.6653 2182.3246,4537.1357 2196.3434,4496.4223 C 2201.5082,4482.6088 2214.7891,4470.2494 2226.5944,4459.344 C 2267.175,4423.7198 2432.4488,4561.8545 2533.5314,4523.3222 C 2503.2804,4580.7572 2589.6065,4660.0029 2625.7601,4660.0029 C 2693.6404,4660.0029 2736.4345,4642.5543 2762.2585,4575.668 C 2811.6931,4588.0274 2829.401,4669.4542 2820.5471,4720.3459 C 2887.6895,4681.0866 2913.5136,4600.3868 2913.5136,4548.0411 C 2913.5136,4464.4332 2866.2925,4388.0956 2783.6556,4369.193 C 2652.322,4339.3849 2517.2992,4350.2903 2380.8007,4335.7498 C 2397.033,4337.2039 2349.8119,4336.4768 2368.2576,4341.566 C 2395.5573,4349.5633 2448.6811,4365.5578 2519.5127,4367.0119 C 2616.9062,4369.92 2692.1648,4369.193 2770.3747,4391.0037 C 2823.4984,4406.2712 2939.3376,4526.2303 2842.682,4677.4515 C 2842.682,4625.1057 2810.2175,4588.0274 2782.1799,4561.1275 C 2757.0937,4537.1357 2769.6368,4478.2467 2800.6257,4455.7089 C 2743.075,4465.1602 2754.1424,4525.5033 2743.075,4557.4924 C 2728.3184,4601.8409 2696.5917,4630.1949 2650.1085,4628.7408 C 2622.071,4628.0138 2571.8986,4598.2058 2560.8311,4573.4869 C 2546.0745,4541.4978 2542.3854,4476.0656 2580.0147,4452.0738 C 2537.2206,4458.617 2529.8423,4507.3277 2498.1156,4505.1466 C 2456.7972,4502.9655 2301.1152,4439.7144 2259.7967,4425.1739 C 2221.4296,4412.0874 2210.3622,4436.0792 2187.4894,4464.4332 C 2171.995,4483.3359 2130.6766,4490.6061 2117.3957,4460.7981 C 2100.4256,4495.6953 2166.0924,4489.152 2152.8115,4558.9464 C 2146.171,4596.0247 2132.8901,4608.3841 2104.8526,4617.1084 C 2051.7288,4633.103 2017.0509,4625.1057 1984.5864,4594.5706 C 1958.0245,4569.8518 1980.8972,4512.4168 1904.163,4524.7763 C 1930.7248,4540.0438 1943.2679,4553.8573 1947.6949,4569.8518 C 1957.2867,4610.5652 1969.0919,4649.8245 1970.5676,4698.5352 C 1927.7735,4697.8082 1878.3389,4607.6571 1867.2715,4574.214 C 1834.807,4476.0656 2022.2157,4425.9009 2037.7101,4350.2903 C 2039.9236,4340.112 2039.1857,4332.8417 2031.8074,4322.6634 C 2015.5752,4298.6716 1884.2416,4220.1529 1778.732,4177.9854 C 1742.5783,4163.4449 1699.0464,4168.5341 1671.0089,4171.4422 z "
           style="fill:#000000;fill-rule:evenodd"
           id="path182" />
        <path
           d="M 2252.4184,4197.6151 L 2217.7405,4191.7989 C 2239.8753,4191.7989 2256.8454,4188.1638 2276.029,4187.4368 C 2416.9544,4183.0746 2506.2317,4145.2693 2645.6815,4090.7425 C 2720.2023,4062.3885 2823.4984,4031.8534 2892.8544,4084.1992 C 2969.5886,4142.3612 2983.6074,4289.9473 2909.8244,4338.6579 C 2897.2813,4284.1311 2858.1764,4228.1501 2833.828,4228.1501 C 2836.0415,4280.4959 2770.3747,4348.1092 2715.7753,4350.2903 C 2660.4381,4353.1984 2620.5953,4310.3039 2605.8387,4268.8635 C 2572.6364,4311.031 2451.6324,4347.3822 2400.7221,4347.3822 C 2332.8418,4347.3822 2287.8342,4301.5797 2241.351,4277.5878 C 2281.9316,4278.3149 2309.9691,4293.5824 2335.7932,4308.1229 C 2417.6922,4354.6525 2602.8874,4277.5878 2612.4792,4201.9773 C 2623.5466,4234.6934 2625.0223,4263.7744 2655.2733,4294.3094 C 2715.7753,4353.9254 2761.5207,4330.6606 2804.3148,4274.6797 C 2814.6444,4261.5933 2817.5958,4220.1529 2814.6444,4193.98 C 2813.1688,4178.7125 2807.2661,4168.5341 2807.2661,4151.0855 C 2807.2661,4140.1801 2810.9553,4131.4558 2818.3336,4127.0937 C 2828.6632,4144.5423 2816.8579,4183.8016 2838.255,4198.3421 C 2869.9816,4219.4258 2898.757,4269.5906 2916.4649,4296.4905 C 2925.3188,4267.4095 2924.581,4255.7771 2926.0567,4239.0555 C 2933.435,4122.0045 2821.2849,4050.0291 2688.4756,4099.4668 C 2578.539,4140.9072 2451.6324,4197.6151 2334.3175,4200.5232 C 2309.2313,4200.5232 2273.8155,4201.2502 2252.4184,4197.6151 z "
           style="fill:#000000;fill-rule:evenodd"
           id="path184" />
        <path
           d="M 1728.5596,3952.6077 L 1699.7842,3958.4239 C 1794.2264,4024.5832 2045.0884,4170.7152 2160.1898,4153.9936 C 2229.5457,4143.8153 2278.2425,4087.1073 2325.4635,4038.3967 C 2361.6172,4001.3184 2402.1978,3956.2429 2444.9919,3931.524 C 2515.8235,3891.5377 2633.1384,3954.0618 2636.0897,4081.2911 C 2602.8874,4087.8344 2594.7713,4074.7479 2580.7525,4059.4804 C 2550.5015,4026.7643 2514.3479,4013.6778 2541.6476,3958.4239 C 2526.1531,3963.5131 2519.5127,3965.6942 2517.2992,4002.7725 C 2515.8235,4032.5805 2554.9285,4054.3912 2552.715,4074.7479 C 2549.7637,4102.3749 2505.4939,4149.6315 2457.535,4133.6369 C 2433.1866,4125.6396 2426.5462,4084.9263 2395.5573,4088.5614 C 2411.0518,4095.8316 2414.0031,4111.0992 2410.3139,4125.6396 C 2402.1978,4152.5396 2349.8119,4163.4449 2333.5797,4167.0801 C 2302.5908,4174.3503 2225.8566,4162.7179 2213.3135,4193.253 C 2397.7708,4183.0746 2403.6735,4171.4422 2423.5949,4128.5477 C 2435.4001,4149.6315 2463.4376,4163.4449 2495.1643,4152.5396 C 2530.5801,4140.9072 2557.142,4110.3721 2576.3255,4077.656 C 2585.1795,4100.1938 2649.3707,4109.6451 2656.0111,4071.1128 C 2671.5055,3972.9644 2608.0522,3883.5404 2509.9209,3883.5404 C 2394.8195,3883.5404 2336.531,3978.7806 2274.5533,4048.575 C 2162.4032,4174.3503 2037.7101,4115.4613 1920.3952,4045.6669 C 1837.0205,3995.5022 1786.8481,3989.686 1728.5596,3952.6077 z "
           style="fill:#000000;fill-rule:evenodd"
           id="path186" />
        <path
           d="M 572.38089,581.39375 L 523.68415,590.84507 L 582.7105,714.43929 L 624.02895,917.27921 L 1198.7981,920.91433 L 1227.5734,771.14722 L 1299.8807,569.03433 L 1232.0004,593.02615 L 1170.0227,647.55301 L 1100.6667,654.09623 L 1077.794,690.44747 L 1028.3595,633.73953 L 987.77884,629.37739 L 946.4604,538.49929 L 880.79358,532.68309 L 810.69979,613.38284 L 792.25405,631.55846 L 747.24646,647.55301 L 726.58723,675.90697 L 671.25003,641.73681 L 638.04771,637.37466 L 572.38089,581.39375 z "
           style="fill:#e9cc0c;fill-rule:evenodd"
           id="path188" />
        <path
           d="M 218.96061,4047.121 L 216.74712,4008.5887 C 207.15534,4037.6696 176.90433,4068.9317 151.81813,4083.4722 C 137.06154,4092.1965 95.743097,4087.8344 80.24868,4077.656 C 81.724339,4082.7452 97.956585,4097.2857 100.9079,4098.7397 C 117.14015,4106.737 142.22635,4107.464 161.40991,4100.9208 C 178.37999,4094.3776 217.48495,4047.121 218.96061,4047.121 z "
           style="fill:#000000;fill-rule:evenodd"
           id="path190" />
        <path
           d="M 641.73685,928.18458 L 604.10755,929.63863 C 604.10755,899.10359 595.99143,868.56854 593.77794,840.9416 C 590.82662,811.13359 584.18616,760.96887 573.11872,724.61763 C 554.67298,661.36648 480.89004,577.0316 514.09237,569.76135 C 570.90523,557.40193 612.22368,583.57482 645.426,627.19631 C 661.65825,626.46929 702.97669,626.46929 719.94677,657.73135 C 737.65468,627.19631 763.4787,614.10986 794.46754,613.38284 C 800.37017,602.47747 804.79715,591.5721 808.4863,585.7559 C 826.93203,557.40193 859.39653,510.87234 901.4528,512.32639 C 943.50908,514.50747 961.21698,534.13714 978.92489,566.12623 C 987.77884,582.12077 995.15714,601.75044 998.10845,617.01796 C 1020.9812,615.56391 1035.7378,619.92606 1049.0187,625.74226 C 1058.6105,629.37739 1074.8427,644.64491 1081.4832,655.55028 C 1089.5993,642.46383 1095.5019,636.64763 1111.7342,632.28548 C 1126.4908,628.65036 1127.9664,626.46929 1166.3336,633.01251 C 1184.7793,611.20177 1206.9142,594.4802 1233.476,578.48565 C 1248.2326,569.03433 1262.2514,563.21813 1280.6971,559.583 C 1303.5698,554.49383 1324.229,559.583 1321.2777,569.76135 C 1317.5886,585.02887 1291.0267,622.10714 1278.4836,654.82325 C 1248.9704,734.06896 1218.7194,833.67135 1215.0303,923.0954 L 1186.255,922.36838 C 1194.3711,841.66863 1213.5546,750.79053 1240.1165,678.81507 C 1250.4461,649.00706 1261.5135,626.46929 1279.2215,598.11532 C 1277.008,574.85053 1215.7681,622.10714 1201.0115,639.55573 C 1192.1576,649.73408 1185.5171,675.90697 1169.2849,667.18268 C 1149.3635,657.00433 1140.5095,654.82325 1121.326,668.63672 C 1096.9776,691.17449 1094.0263,694.80962 1095.5019,725.34466 C 1095.5019,737.70408 1105.8315,747.88243 1110.9964,752.9716 C 1116.1612,758.06078 1130.9177,770.4202 1155.2661,774.05532 C 1162.6444,774.78235 1155.2661,792.95797 1152.3148,793.68499 C 1136.0826,797.32011 1112.472,786.41474 1102.1424,781.32557 C 1093.2884,776.2364 1074.8427,766.78507 1063.0374,753.69863 C 1043.8539,763.87697 1015.8164,776.2364 999.58411,780.59854 C 979.66272,785.68772 964.1683,779.14449 975.23574,767.5121 C 985.56535,756.60673 998.84628,756.60673 1012.1272,752.24458 C 1025.4081,747.88243 1035.7378,738.43111 1046.0674,718.07441 C 1050.4943,709.35011 1057.1348,696.99069 1050.4943,672.27185 C 1047.543,661.36648 1025.4081,647.55301 1011.3894,645.37193 C 1002.5354,643.91788 986.30318,643.19086 981.13838,638.10168 C 972.28442,628.65036 969.33311,624.28821 967.85745,615.56391 C 967.11962,604.65854 962.69264,594.4802 958.26567,587.20995 C 949.41171,570.48838 931.70381,542.86143 905.87978,542.86143 C 888.17187,542.13441 866.03699,561.76408 849.80474,582.12077 C 837.99947,598.11532 831.35901,616.29094 821.0294,630.83144 C 820.29157,632.28548 815.12676,643.19086 801.108,643.19086 C 774.54615,638.82871 749.45995,650.4611 749.45995,696.26367 C 748.72212,726.07168 750.19777,725.34466 764.95436,740.61218 C 781.92444,757.33375 801.84583,763.87697 815.12676,771.87425 C 821.0294,774.78235 813.6511,787.14177 806.27281,787.86879 C 793.72971,787.86879 770.11917,781.32557 757.57607,774.05532 C 743.55731,766.05805 739.13033,752.24458 729.53855,747.1554 C 709.61716,749.33648 696.33623,783.50664 655.01778,790.77689 C 618.86414,797.32011 641.73685,774.78235 652.80429,761.6959 C 683.0553,728.97978 716.99545,740.61218 703.71452,678.08805 C 698.54972,656.2773 664.60956,654.82325 641.73685,654.09623 C 613.69934,653.3692 615.91282,621.38011 582.7105,603.93152 C 561.31345,592.29912 556.88647,593.75317 545.0812,595.93424 C 533.27593,597.38829 548.03252,622.10714 553.93515,627.92334 C 563.52694,637.37466 565.74042,641.00978 570.90523,650.4611 C 578.28352,664.27458 583.44833,682.4502 588.61314,693.35557 C 590.0888,696.26367 595.2536,707.16904 601.89407,738.43111 C 608.53453,779.87152 612.96151,790.77689 621.81546,835.85243 C 627.71809,864.2064 635.83422,895.46846 641.73685,928.18458 z "
           style="fill:#000000;fill-rule:evenodd"
           id="path192" />
        <path
           d="M 375.38044,2881.7002 L 361.36168,2830.0815 C 307.50013,3187.0506 238.882,3656.7087 -234.80447,3630.5358 C -175.04029,3565.8306 -98.306035,3368.8068 -46.657977,3146.3372 C 16.795351,2870.0678 67.70558,2561.0823 51.473333,2452.0286 C -8.2908482,2699.217 -192.7482,3120.8914 -316.70354,3359.3555 C -416.31051,3493.1281 -528.46058,3781.0299 -862.69729,3791.9353 C -984.43914,3796.2974 -1130.5294,3710.5085 -1144.5481,3602.1818 C -1050.8438,3626.1736 -992.55527,3621.8115 -891.47264,3546.9279 C -698.16134,3404.431 -596.34088,3219.0397 -517.39313,3085.9942 C -453.93981,2979.8486 -241.44494,2573.4417 -236.28013,2385.1423 C -336.62493,2567.6255 -448.775,2729.025 -541.7415,2852.6192 C -596.34088,2925.3217 -702.58831,3039.4646 -732.83932,3063.4564 C -865.64861,3168.875 -927.62628,3187.0506 -1009.5253,3185.5966 C -1129.7915,3183.4155 -1188.0801,3148.5183 -1191.7692,2982.0296 C -1165.9452,3001.6593 -1149.7129,3003.1134 -1114.2971,3003.8404 C -1072.9787,3004.5674 -1026.4954,2967.4891 -1005.0984,2952.9486 C -882.61869,2856.2543 -743.16893,2652.6874 -667.1725,2531.2743 C -653.89157,2509.4635 -611.8353,2440.3962 -569.77902,2372.0558 C -515.91748,2284.8129 -465.74508,2198.2969 -502.63655,2204.8401 C -601.50569,2336.4316 -738.00412,2524.731 -903.27791,2587.9822 C -1067.076,2651.9604 -1179.2261,2566.8985 -1190.2935,2367.6937 C -1174.7991,2378.5991 -1170.3722,2398.9557 -1121.6754,2396.0476 C -1034.6115,2390.2315 -918.77233,2263.7291 -873.0269,2205.5672 C -821.37885,2138.6809 -632.49452,1932.2058 -674.5508,1882.7681 C -692.99653,1896.5816 -801.45745,1973.6462 -841.30024,1994.0029 C -898.1131,2022.3569 -961.56643,2057.9811 -1030.1846,2036.1704 C -1157.0912,1996.911 -1181.4396,1928.5707 -1174.0613,1797.7062 C -1150.4508,1822.4251 -1074.4543,1819.517 -1033.8737,1799.8873 C -977.79868,1772.9874 -942.38287,1756.9929 -862.69729,1663.2067 C -771.94428,1555.607 -745.38242,1514.1666 -673.81297,1416.7452 C -661.26987,1400.0237 -573.46817,1287.3348 -617.73793,1288.7889 C -729.15017,1389.8453 -878.19171,1476.3613 -931.31543,1488.7207 C -989.60395,1502.5342 -1041.9898,1508.3504 -1095.1136,1478.5424 C -1149.7129,1447.2803 -1202.8366,1399.2966 -1188.0801,1290.2429 C -1188.0801,1291.697 -1160.0425,1296.7862 -1157.0912,1297.5132 C -1127.578,1299.6943 -1080.357,1301.8753 -1054.5329,1290.97 C -1005.0984,1269.8862 -957.13946,1236.4431 -918.0345,1203 C -850.89202,1145.565 -748.33374,1042.3275 -681.19126,987.07359 C -682.66692,984.89251 -651.67809,964.53582 -617.73793,936.18185 C -598.55437,920.91433 -563.87639,913.64408 -563.87639,910.00896 C -561.6629,902.01169 -631.01886,907.10086 -667.91033,881.65499 C -709.96661,853.30102 -757.92552,757.33375 -784.48738,721.70954 C -808.83575,688.99342 -868.59993,655.55028 -905.4914,642.46383 C -940.16938,630.83144 -960.09077,629.37739 -923.1993,605.38557 C -847.94071,556.67491 -755.71203,638.10168 -700.37483,679.5421 C -647.98894,718.80144 -571.25468,794.41202 -448.03717,794.41202 C -316.70354,794.41202 -260.6285,763.87697 -192.01037,740.61218 C -107.89782,712.98524 -17.144801,725.34466 52.948992,756.60673 C 149.60464,799.50119 161.40991,883.10904 151.0803,972.53309 C 145.9155,1032.8761 66.967751,1117.9381 -25.260924,1301.8753 C -49.609295,1350.586 -45.920148,1420.3804 -42.96883,1482.1775 C -40.017512,1551.9719 -10.504336,1638.4878 0.5631046,1678.4742 C -23.047436,1665.3877 -68.05503,1635.5797 -82.073788,1617.4041 C -141.83797,1542.5205 -144.05146,1493.0828 -157.33239,1442.9181 C -233.32882,1509.0774 -262.10416,1671.9309 -262.10416,1767.8982 C -262.10416,1813.7008 -226.68835,1940.2031 -174.30246,1998.3651 C -133.72185,2041.9866 -46.657977,2108.8729 73.608215,2105.2377 C 145.17767,2103.0567 207.15534,2084.881 277.24913,2074.7027 C 325.20804,2068.1595 401.9423,2133.5917 449.16338,2199.0239 L 469.08477,2177.9402 C 393.82617,2098.6945 368.73998,2074.7027 353.98339,2065.2514 C 314.1406,2039.0785 294.21921,2027.4461 257.32774,2034.7163 C 181.33131,2049.2568 93.529609,2063.0703 64.016433,2063.0703 C -17.144801,2063.0703 -81.335959,2042.7136 -140.36231,1986.0057 C -201.60215,1927.8437 -227.42618,1777.3495 -220.04789,1701.739 C -213.40742,1640.6689 -198.65083,1586.869 -158.80805,1527.98 C -151.42975,1555.607 -110.11131,1622.4933 -89.452082,1642.85 C -71.006347,1660.2986 -13.455654,1713.3714 22.697987,1696.6498 C 7.2035692,1583.2339 -20.833948,1515.6206 -12.717825,1422.5614 C -2.388213,1298.2402 104.59705,1157.9244 159.19643,1056.1409 C 289.79223,814.04168 31.551939,639.55573 -177.99161,703.53392 C -300.47129,740.61218 -476.81252,790.04987 -586.01127,714.43929 C -743.90676,606.11259 -867.12427,486.88052 -980.75,624.28821 C -925.41279,651.18813 -830.2328,682.4502 -794.07916,742.06623 C -775.63342,772.60127 -715.86924,910.00896 -644.29979,918.73326 C -732.10149,976.89524 -827.28148,1066.3193 -916.55884,1154.2893 C -959.35294,1196.4567 -1005.0984,1229.8999 -1056.7464,1250.2566 C -1115.7728,1273.5214 -1160.0425,1265.5241 -1211.6906,1255.3457 C -1253.7469,1378.94 -1166.683,1524.3449 -1031.6602,1524.3449 C -946.80985,1524.3449 -928.36411,1519.2557 -847.20288,1485.8126 C -828.75714,1478.5424 -707.01529,1395.6615 -680.45343,1379.667 C -684.88041,1404.3858 -865.64861,1629.7635 -889.99698,1655.9364 C -942.38287,1714.0984 -1099.5405,1848.598 -1185.8666,1764.2631 C -1210.9528,1880.5871 -1201.361,1995.457 -1075.1922,2057.2541 C -945.33419,2119.7782 -758.66335,1977.2814 -697.42351,1928.5707 C -745.38242,2019.4488 -870.81342,2159.0376 -909.18055,2199.751 C -956.40163,2249.1886 -1019.1171,2309.5317 -1068.5517,2343.7019 C -1132.005,2387.3234 -1184.3909,2327.7073 -1202.0988,2314.6209 C -1219.8067,2464.388 -1185.1287,2617.0632 -1055.2708,2635.9658 C -969.68256,2647.5982 -889.99698,2636.6929 -802.19528,2570.5336 C -796.29265,2566.1715 -664.95901,2446.9394 -624.3784,2408.4071 C -671.59948,2502.9203 -811.04924,2700.671 -877.45388,2776.2816 C -926.88845,2832.2625 -985.17697,2906.4191 -1055.2708,2952.9486 C -1086.9974,2974.0324 -1175.537,2985.6648 -1211.6906,2941.3162 C -1210.9528,3064.1834 -1213.1663,3136.1589 -1119.4619,3197.956 C -1006.574,3272.8396 -811.78706,3200.1371 -689.30738,3078.7239 C -517.39313,2907.1461 -378.68121,2680.3143 -324.81966,2603.9767 C -364.66245,2747.9277 -586.01127,3147.0643 -667.91033,3256.118 C -743.90676,3357.1744 -833.92195,3452.4147 -930.5776,3531.6604 C -968.94473,3562.9225 -1033.1359,3612.3601 -1173.3235,3563.6495 C -1100.2784,3939.5213 -664.95901,3837.7378 -542.47933,3715.5977 C -200.12649,3372.442 -143.31363,3035.1024 4.2522516,2718.8467 C -13.455654,2886.7894 -54.036271,3044.5538 -91.66557,3199.4101 C -109.37348,3272.8396 -144.05146,3389.8906 -167.662,3458.9579 C -180.94293,3498.2172 -234.80447,3590.5494 -287.92819,3641.4411 C 125.25627,3729.4111 334.79982,3406.6121 375.38044,2881.7002 z "
           style="fill:#000000;fill-rule:evenodd"
           id="path194" />
        <path
           d="M 779.71095,1499.6261 C 652.06646,1416.7452 480.89004,1509.0774 356.9347,1486.5396 C 225.60107,1462.5478 102.38356,1392.7534 202.72836,1218.2675 C 274.29781,1332.4104 369.4778,1345.4968 537.70291,1346.9509 C 659.44476,1348.4049 781.18661,1365.8535 863.8235,1432.0128 C 856.44521,1456.0046 820.29157,1490.9018 779.71095,1499.6261 z "
           style="fill:#000000;fill-rule:evenodd"
           id="path196" />
        <path
           d="M 202.72836,1249.5295 C 140.75069,1355.6752 226.3389,1429.8317 339.2268,1461.0938 C 451.37687,1492.3558 519.25717,1449.4614 662.39608,1448.7343 C 719.20894,1448.7343 779.71095,1461.0938 796.68103,1474.9072 C 829.14552,1462.5478 846.85343,1436.3749 843.90211,1433.4668 C 807.01064,1405.1128 728.80072,1386.9372 690.43359,1378.94 C 549.50818,1349.859 519.25717,1373.1238 412.27191,1363.6724 C 271.34649,1352.04 246.26029,1315.6888 202.72836,1249.5295 z "
           style="fill:#e9cc0c;fill-rule:evenodd"
           id="path198" />
        <path
           d="M 1359.6449,2179.3943 L 1333.083,2153.9484 C 1333.083,2158.3105 1432.69,2067.4324 1462.2031,2056.5271 C 1524.1808,2034.7163 1582.4693,2046.3487 1631.1661,2053.619 C 1743.3161,2071.0676 1885.7172,2114.6891 1972.7811,2025.265 C 2154.2871,1839.1467 2037.7101,1559.9691 1982.3729,1446.5533 C 1962.4515,1502.5342 1944.0057,1563.6043 1921.8709,1588.3231 C 1886.4551,1628.3095 1853.2527,1666.8418 1785.3724,1677.0201 C 1809.7208,1629.7635 1824.4774,1546.8827 1824.4774,1482.9045 C 1824.4774,1402.2047 1826.6909,1351.313 1793.4885,1285.8808 C 1750.6944,1198.6378 1625.2634,1060.5031 1606.8177,962.35474 C 1600.1772,926.73053 1606.0799,881.65499 1620.0986,851.84697 C 1749.2188,581.39375 2143.9575,796.59309 2277.5046,797.32011 C 2463.4376,799.50119 2570.4229,497.7859 2799.15,660.63945 C 2721.6779,657.00433 2644.2058,745.70135 2608.0522,793.68499 C 2557.8798,859.11722 2512.8722,901.28466 2442.0406,935.45483 C 2535.0071,980.53036 2627.2358,1067.0463 2695.1161,1133.9326 C 2736.4345,1174.646 2802.1013,1230.6269 2865.5547,1249.5295 C 2929.008,1268.4322 2950.405,1263.343 3011.6449,1246.6214 C 3066.9821,1373.8508 2931.2215,1535.2503 2828.6632,1541.0665 C 2682.573,1550.5178 2574.8499,1462.5478 2486.3104,1407.2939 C 2597.7226,1548.3367 2799.8878,1889.3114 2991.7235,1775.8955 C 3053.7012,1914.7572 2916.4649,2081.9729 2801.3635,2059.4352 C 2645.6815,2028.1731 2529.1045,1909.6681 2518.7748,1889.3114 C 2565.9959,1995.457 2712.824,2251.3697 2838.255,2344.4289 C 2893.5922,2385.1423 2955.5699,2354.6072 3002.7909,2331.3424 C 3046.3229,2460.7529 2970.3264,2598.8876 2865.5547,2649.7793 C 2796.9365,2682.4954 2697.3296,2659.9577 2631.6627,2596.7065 L 2458.2728,2430.2178 C 2538.6962,2577.0768 2629.4493,2742.8385 2829.401,2954.4027 C 2874.4086,3002.3863 2971.8021,2983.4837 2993.937,2976.9405 C 3024.9258,3202.3182 2737.1723,3312.0989 2608.0522,3208.1344 C 2479.6699,3104.8968 2305.5422,2877.3381 2225.8566,2724.6629 C 2326.2014,2968.9432 2510.6587,3282.2909 2727.5806,3490.22 C 2759.3072,3520.755 2923.1054,3636.352 3000.5774,3511.3037 C 3050.7498,3682.1545 2875.1464,3828.2865 2730.5319,3828.2865 C 2498.1156,3828.2865 2298.9017,3606.5439 2188.9651,3429.8769 C 2093.7851,3277.2017 1802.3425,2735.5682 1786.8481,2655.5955 C 1818.5747,2781.3708 1914.4926,3514.9388 2150.598,3595.6386 C 2115.92,3682.1545 1886.4551,3677.0653 1808.2451,3640.7141 C 1586.8963,3537.4766 1454.087,3095.4455 1436.3791,2870.7948 L 1448.9222,2811.9058 C 1470.3193,2983.4837 1522.7052,3165.2399 1590.5855,3325.1853 C 1631.9039,3424.7877 1732.9865,3562.1954 1811.9343,3597.0926 C 1921.133,3645.8033 1991.2268,3642.1682 2090.096,3605.8169 C 1919.6574,3459.6849 1823.7396,3017.6539 1776.5185,2776.2816 C 1758.8106,2685.4035 1749.9566,2622.1524 1707.9003,2526.9121 C 1701.9977,2513.0986 1725.6082,2499.2852 1738.8892,2515.2797 C 1748.481,2527.6391 1761.0241,2537.8175 1767.6645,2551.631 C 1899.736,2824.2653 2022.9535,3088.9023 2179.3733,3339.7258 C 2269.3885,3483.6768 2467.1268,3785.392 2700.2809,3799.9325 C 2807.2661,3806.4758 2931.9593,3714.8706 2971.8021,3594.9115 C 2748.2398,3645.8033 2610.2657,3428.4229 2470.0781,3237.9424 C 2408.8383,3154.3345 2290.7856,2933.319 2252.4184,2849.7111 C 2193.3921,2718.1196 2129.2009,2588.7092 2053.9423,2468.7501 C 2046.564,2457.8448 2070.9124,2440.3962 2080.5042,2449.8475 C 2112.9687,2482.5636 2180.1112,2603.9767 2201.5082,2638.1469 C 2259.7967,2731.9331 2442.7784,3028.5592 2578.539,3151.4264 C 2658.9624,3224.8559 2937.8619,3251.0288 2973.2778,3010.3836 C 2788.8204,3069.2726 2718.7266,2883.1543 2611.7414,2741.3844 C 2526.891,2628.6956 2431.711,2445.4853 2354.2389,2318.983 C 2345.3849,2261.5481 2353.5011,2249.9157 2363.8307,2257.9129 C 2388.9169,2277.5426 2442.0406,2360.4234 2464.9133,2388.0504 C 2532.7936,2470.2042 2608.79,2542.1796 2687.7378,2604.7038 C 2773.326,2647.5982 2820.5471,2641.782 2900.2326,2579.2579 C 2962.9481,2529.8202 2976.2291,2454.9367 2982.1317,2379.3261 C 2807.2661,2438.2151 2769.6368,2325.5262 2672.2434,2212.8374 C 2619.8575,2152.4943 2492.9508,1940.9301 2483.359,1850.779 C 2523.2018,1838.4196 2667.0786,2038.3514 2826.4497,2029.6272 C 2923.8432,2024.538 2982.1317,1882.0411 2976.2291,1816.6089 C 2943.7646,1831.1494 2887.6895,1847.871 2838.9928,1823.8791 C 2744.5506,1775.8955 2691.4269,1714.0984 2603.6252,1610.1338 C 2568.9472,1569.4205 2365.3063,1302.6024 2321.7744,1249.5295 C 2315.1339,1242.2593 2336.531,1242.9863 2346.1228,1244.4404 C 2377.8494,1250.2566 2428.7597,1344.0428 2571.8986,1428.3776 C 2657.4868,1484.3586 2745.2885,1537.4314 2850.0602,1501.0801 C 2919.4162,1477.0883 2989.51,1413.8371 2991.7235,1282.2457 C 2732.7454,1374.5778 2582.966,963.80879 2325.4635,949.99532 C 2316.6096,949.2683 2316.6096,934.00078 2326.2014,933.27375 C 2402.1978,928.9116 2456.0593,924.54945 2537.9584,819.85788 C 2576.3255,770.4202 2649.3707,666.45565 2735.6967,652.64218 C 2529.1045,606.11259 2460.4863,822.03896 2286.3586,823.49301 C 2184.5381,824.22003 2157.2384,795.13904 2072.3881,776.96342 C 1977.2081,756.60673 1848.0879,731.88788 1750.6944,763.14995 C 1718.2299,773.3283 1657.7279,830.03623 1642.2335,863.47937 C 1628.9526,891.10631 1626.7391,941.99805 1634.8552,974.71417 C 1673.2224,1064.1382 1741.1027,1156.4704 1790.5372,1231.3539 C 1821.5261,1277.8835 1837.7583,1337.4995 1842.1853,1384.7562 C 1850.3014,1474.1802 1850.3014,1558.5151 1820.0504,1642.1229 C 1862.1067,1617.4041 1899.736,1585.415 1924.0844,1540.3395 C 1942.5301,1507.6233 1971.3054,1441.4641 1968.3541,1394.2075 C 2092.3095,1422.5614 2164.6167,1892.2195 2014.8374,2036.8974 C 1930.7248,2118.3242 1780.2076,2124.8674 1693.1437,2100.8756 C 1635.5931,2085.6081 1454.087,2052.1649 1359.6449,2179.3943 z "
           style="fill:#000000;fill-rule:evenodd"
           id="path200" />
        <path
           d="M 607.05887,906.37383 L 1215.7681,906.37383 L 1216.506,928.18458 L 604.10755,927.45755 L 607.05887,906.37383 z "
           style="fill:#000000;fill-rule:evenodd"
           id="path202" />
        <path
           d="M 923.58768,839.48755 L 1208.3898,839.48755"
           style="fill:none;fill-rule:evenodd;stroke:#000000;stroke-width:20.50740051;stroke-linecap:round"
           id="path204" />
        <path
           d="M 1209.1277,922.36838 L 1166.3336,924.54945 C 1234.2139,947.08722 1283.6484,1040.1464 1332.3452,1091.7652 C 1358.907,1120.1191 1393.585,1162.2866 1420.8847,1192.8216 C 1443.0196,1218.2675 1513.1134,1236.4431 1545.5779,1238.6242 C 1528.6078,1264.07 1474.7462,1266.9781 1425.3117,1250.9836 C 1307.9968,1211.7243 1327.1804,1170.2838 1276.2701,1149.2001 C 1256.3487,1141.2028 1240.1165,1149.2001 1250.4461,1160.8325 C 1347.8396,1269.8862 1424.5738,1336.7725 1419.409,1470.5451 C 1416.4577,1551.2448 1380.3041,1651.5743 1357.4314,1719.1876 C 1270.3675,1973.6462 1192.8954,2049.9838 1343.4126,2193.2077 C 1488.765,2330.6154 1510.8999,2432.3989 1475.4841,2629.4226 C 1451.1357,2767.5573 1407.6038,2908.6001 1378.8284,3031.4673 C 1347.8396,3163.0588 1284.3863,3341.9069 1248.9704,3467.6822 C 1292.5024,3511.3037 1333.083,3565.1035 1377.3528,3608.725 C 1445.9709,3676.3383 1507.2107,3711.2355 1591.3233,3768.6705 C 1683.552,3831.1946 1833.3313,3822.4703 1921.133,3818.8352 C 1867.2715,3870.4539 1738.1513,3939.5213 1606.0799,3967.8753 C 1661.4171,4083.4722 1661.4171,4185.2557 1648.874,4321.9363 C 1641.4957,4396.8199 1595.0124,4500.7844 1580.9937,4561.8545 C 1572.8776,4420.8117 1329.3939,4186.7097 1219.4573,4058.0263 C 1183.3036,4015.8589 1153.7905,3951.8807 1137.5582,3924.2538 C 1132.3934,3916.2565 1119.1125,3916.2565 1120.5881,3923.5268 C 1130.1799,4007.8616 1293.2402,4198.3421 1353.0044,4248.5068 C 1445.2331,4324.8444 1566.2371,4537.8627 1579.518,4622.1976 C 1601.6529,4535.6816 1682.8141,4404.8172 1682.8141,4279.0419 C 1682.8141,4169.2611 1687.9789,4069.6587 1643.7092,3984.5968 C 1752.1701,3971.5104 1899.736,3874.8161 1981.635,3788.3001 C 1693.8816,3797.7515 1655.5144,3766.4894 1532.2969,3686.5167 C 1438.5926,3625.4466 1353.0044,3520.028 1283.6484,3452.4147 C 1348.5774,3277.2017 1375.8771,3163.0588 1419.409,2984.2107 C 1434.1656,2926.0487 1502.0459,2683.2224 1507.9486,2655.5955 C 1527.1321,2564.7174 1532.2969,2400.4098 1490.2407,2310.9857 C 1412.7686,2145.2241 1268.8918,2129.2295 1296.9294,1983.8246 C 1310.9481,1909.6681 1400.2255,1690.1066 1431.2143,1580.3258 C 1484.338,1394.2075 1435.6413,1334.5914 1360.3827,1244.4404 C 1398.7498,1266.2511 1456.3005,1281.5186 1499.0946,1281.5186 C 1539.6752,1281.5186 1603.8664,1234.989 1614.196,1203 C 1491.7163,1223.3566 1455.5627,1195.7297 1370.7123,1079.4057 C 1338.9856,1036.5113 1249.7083,932.54673 1209.1277,922.36838 z "
           style="fill:#000000;fill-rule:evenodd"
           id="path206" />
        <path
           d="M 651.32864,1108.4867 C 663.13391,1144.1109 721.42243,1183.3703 773.07049,1200.8189 C 825.45637,1218.2675 895.55017,1227.7188 949.41171,1260.4349 C 1046.8052,1320.0509 996.63279,1481.4505 914.73373,1546.8827 C 856.44521,1592.6852 698.54972,1609.4068 584.18616,1667.5688 C 578.28352,1670.4769 570.90523,1657.3905 569.42957,1653.0283 C 563.52694,1637.0338 606.32104,1581.0528 618.86414,1565.0583 C 685.26879,1486.5396 868.25048,1500.3531 867.51265,1402.9318 C 866.77482,1330.2293 663.87174,1327.3212 623.29112,1288.7889 C 565.0026,1233.535 483.10353,1168.1028 467.60911,1269.1592 C 432.1933,1203 424.07718,1208.0891 411.53408,1179.0081 C 387.92354,1127.3894 391.61269,1083.7679 407.84493,1053.2328 C 428.50416,1013.2465 463.18214,1006.7033 509.66539,999.43301 C 529.58678,959.44664 570.90523,933.27375 607.7967,928.9116 C 642.47468,924.54945 686.00662,953.63045 697.07406,989.25466 C 706.66584,1022.6978 705.92801,1063.4112 651.32864,1108.4867 z "
           style="fill:#000000;fill-rule:evenodd"
           id="path208" />
        <path
           d="M 587.13748,1085.2219 C 714.04413,1101.2165 706.66584,955.81152 607.05887,955.81152 C 562.05128,955.81152 545.0812,997.97896 531.06244,1026.3329 C 500.07361,1027.787 415.96106,1021.2438 418.91237,1112.8489 C 420.38803,1145.565 443.99857,1192.8216 458.75516,1208.8162 C 520.73283,1136.1137 590.82662,1245.8944 645.426,1272.7943 C 671.98786,1285.8808 722.89809,1296.7862 773.80832,1308.4185 C 854.23172,1325.8671 922.84985,1373.8508 858.6587,1461.0938 C 816.60242,1517.8017 658.70693,1503.9882 609.27236,1602.8636 C 579.75918,1662.4796 618.12631,1629.0365 666.08522,1615.223 C 835.78599,1566.5124 984.82752,1525.0719 978.18706,1355.6752 C 974.49791,1256.0728 757.57607,1226.9918 715.51979,1198.6378 C 686.74445,1179.0081 585.66182,1099.0354 587.13748,1085.2219 z "
           style="fill:#e9cc0c;fill-rule:evenodd"
           id="path210" />
        <path
           d="M 905.87978,1033.6032 L 795.20537,1021.9708 L 703.71452,1016.8816 C 688.95793,1064.1382 684.53096,1144.838 739.13033,1169.5568 C 774.54615,1185.5514 843.90211,1187.7324 872.67746,1151.3812 C 897.02583,1119.3921 902.92846,1074.3166 905.87978,1033.6032 z "
           style="fill:#000000;fill-rule:evenodd"
           id="path212" />
        <path
           d="M 884.48273,1034.3302 L 797.41886,1021.2438 L 722.16026,1018.3357 C 721.42243,1058.322 693.38491,1142.6569 770.857,1157.9244 C 875.62877,1178.2811 887.43404,1077.9517 884.48273,1034.3302 z "
           style="fill:#ffffff;fill-rule:evenodd"
           id="path214" />
        <path
           d="M 828.40769,1031.4221 L 796.68103,1021.2438 L 774.54615,1020.5167 C 756.10041,1035.7842 745.7708,1069.9544 751.67343,1089.5841 C 757.57607,1107.0327 773.80832,1123.7542 795.9432,1123.0272 C 823.24289,1121.5732 840.95079,1085.949 835.78599,1088.8571 C 779.71095,1122.3002 752.41126,1033.6032 828.40769,1031.4221 z "
           style="fill:#000000;fill-rule:evenodd"
           id="path216" />
        <path
           d="M 699.28755,1013.2465 C 801.108,1013.9735 894.81234,1027.787 1008.4381,1032.1491 C 1010.6516,1036.5113 1009.1759,1039.4194 1002.5354,1040.8734 C 973.02225,1046.6896 869.72614,1040.8734 856.44521,1039.4194 C 826.1942,1035.0572 728.06289,1030.6951 697.07406,1027.787 C 692.64708,1027.06 698.54972,1014.7005 699.28755,1013.2465 z "
           style="fill:#000000;fill-rule:evenodd"
           id="path218" />
        <path
           d="M 817.34025,1578.8718 L 772.33266,1595.5933 C 931.70381,1645.031 801.108,1944.5652 649.11515,1882.0411 C 556.14864,1842.7818 308.23796,1727.9119 310.45145,1960.5598 C 358.41036,1932.9329 392.35052,1926.3896 415.96106,1933.6599 C 449.90121,1944.5652 518.51934,2006.3624 543.60554,2030.3542 C 581.97267,2068.1595 709.61716,2081.2459 709.61716,2068.8865 C 709.61716,2066.7054 709.61716,2062.3433 706.66584,2061.6162 C 652.80429,2056.5271 626.98027,2050.7109 593.77794,2035.4433 C 542.12988,2012.1786 494.9088,1914.7572 398.25315,1911.1221 C 374.64261,1910.3951 358.41036,1914.7572 322.99455,1937.295 C 359.88602,1751.1767 600.41841,1917.6653 689.69576,1920.5734 C 798.89452,1924.2086 863.8235,1812.2467 875.62877,1717.7335 C 881.53141,1669.7499 855.70738,1599.9555 817.34025,1578.8718 z "
           style="fill:#000000;fill-rule:evenodd"
           id="path220" />
        <path
           d="M 649.85298,2061.6162 L 605.58321,2048.5298 C 506.71407,2129.9566 390.87486,2197.5699 339.96463,2323.3452 C 294.21921,2438.9421 289.79223,2627.2415 335.53765,2774.8276 C 384.97222,2938.4082 469.8226,3148.5183 519.25717,3303.3746 C 582.7105,3501.1253 416.69889,3660.3438 277.24913,3743.9516 C 123.78061,3835.5568 73.608215,3799.2055 -73.219835,3799.2055 C -31.16356,3882.8134 131.15891,3956.9699 227.07673,3958.4239 C 196.0879,4021.6751 170.26387,4244.8717 180.59348,4321.9363 C 187.97177,4382.2794 236.66851,4565.4897 256.58991,4624.3787 C 308.23796,4486.2439 380.54525,4399.728 485.31702,4297.2175 C 557.6243,4229.6042 623.29112,4142.3612 684.53096,4069.6587 C 696.33623,4056.5723 808.4863,3906.8052 759.05173,3906.8052 C 698.54972,4018.04 681.57964,4038.3967 589.35097,4140.9072 C 567.95391,4164.899 517.78151,4226.6961 467.60911,4278.3149 C 427.0285,4320.4823 384.97222,4353.9254 366.52649,4372.1011 C 322.99455,4416.4496 272.08432,4526.9573 259.54122,4557.4924 C 244.04681,4476.0656 206.41751,4352.4714 206.41751,4245.5987 C 206.41751,4140.1801 235.93068,4025.3102 254.37642,3938.0673 C 167.31255,3938.0673 43.35721,3879.1782 -14.931313,3829.0135 C 256.58991,3861.7296 346.60509,3753.403 506.71407,3576.0089 C 638.04771,3430.6039 500.81144,3128.8886 446.21206,3018.3809 C 418.17454,2950.0405 380.54525,2836.6247 362.09951,2771.1924 C 338.48897,2686.8576 329.63502,2576.3498 338.48897,2481.8366 C 359.88602,2264.4562 515.56803,2129.9566 649.85298,2061.6162 z "
           style="fill:#000000;fill-rule:evenodd"
           id="path222" />
        <path
           d="M 576.07004,4183.0746 L 594.51577,4151.0855 C 643.95034,4348.8363 812.91327,4564.7626 832.83467,4734.1594 C 841.68862,4833.0348 857.18304,4903.5562 803.32149,4993.7073 C 770.857,5048.2341 672.72569,5076.5881 611.48585,5073.68 C 479.41439,5067.8638 399.72881,4971.8965 411.53408,4869.386 C 414.4854,4838.851 436.62028,4817.0402 436.62028,4793.7754 C 365.05083,4793.7754 263.23037,4810.497 228.55239,4881.0184 C 210.10665,4918.8237 206.41751,4959.5371 214.53363,5002.4316 C 223.38758,5043.1449 240.35766,5089.6745 256.58991,5126.7528 C 221.1741,5107.1231 -84.287276,4950.0858 -113.80045,4938.4534 C -463.53159,4797.4106 -632.49452,4929.0021 -749.07157,5043.1449 C -808.83575,5102.034 -940.90721,5296.8766 -800.71962,5501.1706 C -834.65978,5323.7765 -719.55839,5245.2578 -583.05995,5240.1687 C -397.86477,5233.6254 -248.82323,5380.4845 -115.27611,5487.3571 C -42.96883,5545.5191 30.81411,5605.1351 117.87798,5643.6674 C 281.67611,5716.3699 562.78911,5662.5701 689.69576,5541.884 C 759.05173,5476.4517 846.1156,5304.8739 868.25048,5284.5172 C 908.09327,5302.6928 892.59885,5392.8439 871.93963,5441.5545 C 849.80474,5496.8084 831.35901,5549.8812 790.04056,5604.4081 C 767.16785,5634.2161 712.56848,5666.2052 738.3925,5662.5701 C 782.66227,5656.7539 823.98071,5656.0269 868.25048,5658.935 C 890.38536,5659.662 897.02583,5707.6456 948.67388,5756.3563 C 959.0035,5733.8185 973.76008,5708.3726 981.13838,5684.3808 C 997.37062,5626.2188 1126.4908,5675.6565 1167.0714,5677.1106 C 1090.3371,5643.6674 978.18706,5363.7629 1009.1759,5301.2388 C 1013.6029,5291.0604 1020.2433,5292.5145 1027.6216,5300.5117 C 1192.8954,5485.176 1334.5587,5623.3107 1605.342,5632.7621 C 1726.3461,5636.3972 1865.058,5589.1406 1918.1817,5549.8812 C 2026.6426,5469.9085 2103.3769,5408.8384 2185.276,5330.3197 C 2301.1152,5218.3579 2633.8762,5116.5745 2707.6592,5441.5545 C 2779.9665,5016.9721 2445.7297,4881.7454 2288.5721,4877.3833 C 2048.7775,4870.113 1958.7623,4946.4506 1875.3876,4999.5235 C 1755.8592,5076.5881 1702.7355,5130.3879 1553.694,5105.6691 C 1585.4207,5090.4016 1645.9227,5043.872 1654.0388,5003.1586 C 1663.6306,4958.8101 1661.4171,4899.194 1628.2148,4866.4779 C 1570.6641,4809.77 1523.443,4795.2295 1442.2818,4797.4106 C 1516.8025,4874.4752 1484.338,4990.7992 1402.439,5022.0612 C 1272.581,5070.7719 1185.5171,5035.8747 1107.3072,4933.3642 C 1020.2433,4819.2213 1141.2474,4548.7681 1181.828,4446.9846 C 1232.7382,4321.9363 1255.6109,4265.2284 1243.0678,4108.9181 L 1277.008,4164.899 C 1277.008,4408.4523 1091.075,4601.1139 1108.045,4839.578 C 1114.6855,4931.9102 1243.8056,5033.6936 1346.3639,5008.9748 C 1389.158,4999.5235 1459.9897,4963.1722 1464.4166,4906.4643 C 1468.1058,4856.2996 1408.3416,4787.9592 1408.3416,4783.5971 C 1519.7538,4748.6999 1626.0013,4777.0539 1673.2224,4870.8401 C 1706.4247,4936.9993 1678.3872,5027.1504 1624.5256,5092.5826 C 1727.0839,5092.5826 1826.6909,4971.8965 1915.9682,4930.4561 C 2045.8262,4869.386 2149.8601,4840.305 2301.1152,4846.8483 C 2458.2728,4846.8483 2691.4269,4996.6154 2721.6779,5118.0285 C 2768.899,5307.782 2735.6967,5397.933 2700.2809,5573.8731 C 2706.1835,5490.9922 2698.8052,5440.1005 2661.9138,5371.7602 C 2557.142,5176.9175 2296.6882,5261.9794 2172.7329,5383.3926 C 2139.5305,5415.3816 1956.5488,5556.4245 1918.1817,5581.1433 C 1833.3313,5635.6702 1720.4434,5666.2052 1617.8851,5666.2052 C 1324.229,5666.2052 1215.7681,5520.8002 1038.6891,5347.0413 C 1050.4943,5450.2788 1088.1236,5562.2407 1179.6145,5664.0241 C 1184.7793,5670.5673 1193.6332,5699.6483 1184.7793,5697.4673 C 1096.2398,5674.2025 1048.2809,5674.2025 1015.0785,5678.5646 C 978.18706,5683.6538 1012.1272,5706.9186 944.98474,5790.5264 C 880.05575,5730.9104 881.53141,5704.7375 874.15311,5691.6511 C 860.13436,5665.4782 792.25405,5670.5673 755.36258,5677.1106 C 724.37375,5682.1997 662.39608,5679.2916 683.0553,5669.1133 C 705.19018,5658.935 743.55731,5618.2216 762.00305,5600.0459 C 798.15669,5565.1488 908.8311,5392.1169 862.34784,5327.4116 C 794.46754,5440.1005 716.99545,5643.6674 458.01733,5685.1078 C 337.01331,5704.7375 224.12541,5710.5537 135.58588,5679.2916 C -166.18634,5573.146 -246.60974,5288.1523 -567.56553,5265.6145 C -852.36768,5245.9849 -779.32257,5515.7111 -750.54722,5612.4054 C -955.6638,5427.014 -924.67496,5120.9366 -674.5508,4934.0912 C -383.10818,4715.9838 -3.1260424,4954.4479 207.89317,5070.0449 C 192.39875,4990.0721 163.6234,4903.5562 239.61983,4827.2186 C 297.90835,4769.0566 486.79268,4750.881 472.03609,4780.689 C 449.90121,4827.9456 426.29067,4909.3724 452.1147,4949.3587 C 474.24958,4984.2559 567.21608,5041.6909 625.50461,5043.1449 C 866.03699,5050.4152 820.29157,4783.5971 773.80832,4654.1867 C 714.78196,4492.7872 603.36972,4320.4823 576.07004,4183.0746 z "
           style="fill:#000000;fill-rule:evenodd"
           id="path224" />
        <path
           d="M 136.32371,3935.8862 L 108.2862,3919.8916 C -23.047436,4012.9508 -329.24664,4244.8717 -453.93981,4049.302 C -510.01484,3962.7861 -512.96616,3870.4539 -639.87281,3874.8161 C -767.5173,3878.4512 -791.12784,4007.1346 -776.37125,4110.3721 C -755.71203,4111.0992 -725.46102,4088.5614 -715.86924,4064.5696 C -712.1801,4090.0154 -698.16134,4135.091 -662.74553,4148.9044 C -636.9215,4159.0828 -609.62181,4129.2748 -586.7491,4130.0018 C -577.89514,4156.1747 -536.5767,4205.6124 -474.59903,4208.5205 C -440.65888,4210.7016 -399.34043,4203.4313 -371.30291,4183.8016 C -430.32927,4191.7989 -486.4043,4215.0637 -546.16848,4156.1747 C -571.25468,4131.4558 -568.30336,4127.8207 -562.40073,4091.4695 C -590.43824,4111.0992 -645.03762,4131.4558 -652.41591,4127.8207 C -672.33731,4118.3694 -707.01529,4089.2884 -692.2587,4043.4858 C -686.35607,4023.8562 -592.65173,3996.2292 -654.6294,3927.1619 C -625.85406,3990.413 -740.95544,4024.5832 -753.49854,4080.5641 C -767.5173,4060.9344 -760.87684,3994.0482 -727.67451,3949.6996 C -712.1801,3927.8889 -685.61824,3914.8025 -662.0077,3908.9863 C -567.56553,3886.4485 -534.36321,3980.9617 -482.71515,4063.1155 C -446.56151,4120.5505 -397.86477,4159.0828 -337.36276,4158.3558 C -172.08898,4156.9017 17.533181,4018.767 136.32371,3935.8862 z "
           style="fill:#000000;fill-rule:evenodd"
           id="path226" />
        <path
           d="M -572.73034,4334.2958 C -539.52802,4327.0255 -518.13096,4309.5769 -487.87996,4299.3986 C -524.0336,4315.3931 -614.04879,4324.8444 -644.29979,4321.9363 C -698.89917,4316.8472 -812.52489,4307.3958 -808.83575,4257.9582 C -806.62226,4228.8772 -831.70846,4207.7935 -860.48381,4207.7935 C -815.47621,4230.3312 -834.65978,4289.2202 -856.05683,4323.3904 C -877.45388,4357.5606 -931.31543,4351.7444 -961.56643,4336.4768 C -1056.7464,4289.9473 -906.96706,4163.4449 -1028.7089,4157.6287 C -990.34178,4183.8016 -1008.7875,4231.7853 -1012.4767,4244.8717 C -1018.3793,4269.5906 -1053.0573,4324.1174 -1077.4056,4344.4741 C -1109.1323,4313.9391 -1109.1323,4106.737 -960.8286,4093.6506 C -893.68613,4087.8344 -674.5508,4193.253 -614.78661,4209.2475 C -591.17607,4215.7907 -569.04119,4219.4258 -549.85763,4221.6069 C -472.38554,4231.0582 -424.42663,4205.6124 -395.65128,4194.707 C -444.34802,4204.1583 -502.63655,4202.7043 -563.87639,4190.3449 C -633.23235,4176.5314 -702.58831,4141.6342 -750.54722,4119.8235 C -876.71605,4061.6615 -932.79109,4058.0263 -943.85853,4058.7534 C -1022.8063,4055.1182 -1101.754,4135.091 -1113.5593,4200.5232 C -1122.4132,4247.0528 -1141.5968,4356.1065 -1084.7839,4383.0064 C -1071.503,4389.5497 -1064.8625,4396.8199 -1050.106,4397.5469 C -1055.2708,4348.1092 -1025.0198,4313.9391 -1014.6901,4300.8526 C -1006.574,4334.2958 -990.34178,4347.3822 -972.63387,4361.1957 C -944.59636,4383.0064 -853.84334,4377.1902 -815.47621,4302.3067 C -799.24397,4312.485 -735.05281,4334.2958 -674.5508,4336.4768 C -645.77545,4337.9309 -596.34088,4339.3849 -572.73034,4334.2958 z "
           style="fill:#000000;fill-rule:evenodd"
           id="path228" />
        <path
           d="M -918.77233,4715.2568 C -933.52892,4701.4433 -909.91837,4638.1921 -895.16179,4646.1894 C -877.45388,4670.1812 -855.319,4688.3568 -823.59234,4688.3568 C -758.66335,4688.3568 -704.8018,4658.5488 -708.49095,4589.4815 C -708.49095,4578.5761 -713.65575,4563.3086 -701.85048,4553.1302 C -664.22118,4529.8654 -500.42306,4470.9764 -471.64771,4463.7062 C -416.31051,4449.8927 -341.78974,4409.9063 -301.94695,4482.6088 C -318.1792,4539.3168 -302.68478,4601.1139 -253.98804,4622.9246 C -206.76696,4644.7354 -164.71068,4619.2895 -146.26495,4610.5652 C -127.08138,4625.1057 -133.72185,4731.9783 -134.45968,4742.8837 C -98.306035,4738.5216 -68.05503,4716.7108 -51.084953,4700.7163 C 33.765428,4620.0165 13.106204,4540.7708 -2.388213,4480.4278 C -11.242166,4447.7116 -52.560612,4417.9036 -78.384641,4392.4578 C -104.20867,4367.0119 -125.60572,4359.0146 -144.78929,4344.4741 C -179.46727,4319.0282 -59.938906,4256.5041 -43.706659,4247.0528 C 55.16248,4193.98 71.394727,4156.1747 194.61224,4189.6178 L 198.30138,4127.0937 C 178.37999,4191.0719 111.23751,4146.7234 63.278604,4165.626 C 21.960157,4181.6206 -176.51595,4297.2175 -174.30246,4332.8417 C -172.08898,4371.374 -53.298442,4444.0765 -35.590536,4492.0601 C -10.504336,4559.6735 -15.669142,4631.6489 -73.219835,4684.7217 C -88.714253,4699.2622 -108.63565,4714.5297 -115.27611,4713.8027 C -111.58696,4674.5434 -110.11131,4661.4569 -115.27611,4633.103 C -118.96526,4608.3841 -130.77053,4600.3868 -130.0327,4582.9382 C -130.0327,4558.2194 -113.06262,4537.8627 -99.043864,4516.052 C -138.88665,4530.5925 -137.41099,4551.6762 -152.90541,4578.5761 C -169.13766,4606.9301 -183.15642,4609.1111 -209.71827,4609.1111 C -252.51238,4609.1111 -306.37393,4546.587 -276.86075,4502.2385 C -260.6285,4477.5197 -231.11533,4444.8035 -231.11533,4419.3577 C -238.49362,4429.536 -270.95811,4475.3386 -310.8009,4436.0792 C -337.36276,4409.9063 -350.64369,4396.8199 -398.6026,4411.3604 C -484.92864,4436.8063 -594.86522,4476.7926 -677.50211,4513.1439 C -743.90676,4542.9519 -732.10149,4462.2521 -788.17652,4482.6088 C -759.40118,4491.3331 -738.00412,4523.3222 -732.83932,4534.2276 C -719.55839,4560.4005 -729.888,4612.7463 -750.54722,4633.83 C -775.63342,4657.8218 -845.72722,4667.2731 -866.38644,4636.0111 C -880.4052,4613.4733 -883.35652,4589.4815 -881.88086,4557.4924 C -879.66737,4515.3249 -901.06442,4476.0656 -948.2855,4486.971 C -915.82101,4502.9655 -905.4914,4523.3222 -905.4914,4559.6735 C -905.4914,4598.9328 -926.88845,4643.2813 -938.69372,4670.9082 C -990.34178,4637.4651 -999.19573,4554.5843 -999.19573,4521.1411 C -999.19573,4471.7035 -954.18814,4406.9982 -895.16179,4409.1793 C -814.73838,4412.8144 -765.30381,4397.5469 -691.52087,4383.7335 C -652.41591,4376.4632 -547.64414,4337.2039 -513.70399,4309.5769 C -560.92507,4323.3904 -734.31498,4377.1902 -785.96304,4380.8254 C -889.99698,4388.8226 -964.51775,4380.0983 -999.19573,4446.9846 C -1019.855,4486.2439 -1032.3981,4556.7654 -1015.428,4603.2949 C -1003.6227,4634.557 -964.51775,4709.4406 -918.77233,4715.2568 z "
           style="fill:#000000;fill-rule:evenodd"
           id="path230" />
      </g>
      <path
         d="M 4060.3119,11438.572 L 6785.2886,11438.572 C 8133.8665,11438.572 8150.7054,10723.003 8150.7054,9978.1364 L 8150.7054,414.26199 L -1369.8741,414.26199 L -1369.8741,9978.1364 C -1369.8741,10723.003 -1353.0352,11438.572 -5.1893111,11438.572 L 2720.5195,11438.572 M 2720.5195,11438.572 C 3060.9585,11438.572 3399.9333,11588.717 3383.8265,11902.191 M 3394.0763,11902.923 C 3394.0763,11591.647 3719.8728,11438.572 4060.3119,11438.572"
         transform="translate(2.0547368e-5,2.7031579e-6)"
         style="fill:none;fill-rule:evenodd;stroke:#000000;stroke-width:81.2820816;display:inline"
         id="path4970" />
      <g
         transform="translate(2.0547368e-5,2.7031579e-6)"
         style="fill-rule:evenodd;display:inline"
         id="g2640">
        <path
           d="M 3366.0765,5904.4076 L 8172.2492,5904.4076 L 8172.2492,10496.514 L 8081.3582,10788.008 L 7913.6149,11091.951 L 7561.8721,11273.585 L 7198.305,11392.232 L 3861.9171,11392.232 L 3519.7801,11540.176 L 3366.0765,11720.344 L 3366.0765,5904.4076 z "
           style="fill:#0a0a64;fill-opacity:1;fill-rule:evenodd;stroke:#000000;stroke-width:37.09336472;stroke-miterlimit:4;stroke-dasharray:none;stroke-opacity:1"
           id="path12" />
        <path
           d="M 442.65231,203.42252 L 435.18621,167.91652 L 404.79135,188.44039 L 424.61855,158.05453 L 388.61357,151.07468 L 424.11957,143.60859 L 403.5957,113.21373 L 433.98156,133.04093 L 440.9614,97.03595 L 448.4275,132.54194 L 478.82236,112.01808 L 458.99516,142.40394 L 495.00014,149.38378 L 459.49414,156.84988 L 480.01801,187.24474 L 449.63215,167.41754 L 442.65231,203.42252 z "
           transform="matrix(39.902391,0,0,39.902391,-11856.474,2665.7505)"
           style="opacity:0.98999999;fill:#ffc800;fill-opacity:1;fill-rule:evenodd;stroke:#000000;stroke-width:0.59399998;stroke-linecap:round;stroke-linejoin:round;stroke-miterlimit:4;stroke-dasharray:none;stroke-dashoffset:0;stroke-opacity:1"
           id="path2252" />
      </g>
      <g
         transform="translate(2.0547368e-5,2.7031579e-6)"
         style="fill-rule:evenodd;display:inline"
         id="g2585">
        <path
           d="M 3364.6181,5900.0403 L -1397.136,5900.0403 L -1397.136,10492.282 L -1307.084,10783.784 L -1140.891,11087.736 L -792.39897,11269.375 L -432.19198,11388.026 L 2873.3609,11388.026 L 3212.3357,11535.974 L 3364.6181,11716.148 L 3364.6181,5900.0403 z "
           style="fill:#ffc800;fill-opacity:1;fill-rule:evenodd;stroke:#000000;stroke-width:36.92210388;stroke-miterlimit:4;stroke-dasharray:none;stroke-opacity:1"
           id="path14" />
        <g
           transform="matrix(4.1417644,0,0,4.1356309,-503.37387,3832.5826)"
           style="fill:#0a0a64;fill-opacity:1;fill-rule:evenodd"
           id="g2289">
          <path
             d="M 321.10538 731.9314 A 39.126286 38.451694 0 1 1  242.85281,731.9314 A 39.126286 38.451694 0 1 1  321.10538 731.9314 z"
             transform="matrix(0.958435,0,0,0.97525,9.741368,18.54607)"
             style="opacity:1;fill:#0a0a64;fill-opacity:1;fill-rule:evenodd;stroke:#000000;stroke-width:5.07946491;stroke-linecap:round;stroke-linejoin:miter;stroke-miterlimit:4;stroke-dasharray:none;stroke-opacity:1"
             id="path2273" />
          <path
             d="M 321.10538 731.9314 A 39.126286 38.451694 0 1 1  242.85281,731.9314 A 39.126286 38.451694 0 1 1  321.10538 731.9314 z"
             transform="matrix(0.958435,0,0,0.97525,86.74137,18.54607)"
             style="opacity:1;fill:#0a0a64;fill-opacity:1;fill-rule:evenodd;stroke:#000000;stroke-width:5.07946491;stroke-linecap:round;stroke-linejoin:miter;stroke-miterlimit:4;stroke-dasharray:none;stroke-opacity:1"
             id="path2275" />
          <path
             d="M 321.10538 731.9314 A 39.126286 38.451694 0 1 1  242.85281,731.9314 A 39.126286 38.451694 0 1 1  321.10538 731.9314 z"
             transform="matrix(0.958435,0,0,0.97525,162.7414,18.54607)"
             style="opacity:1;fill:#0a0a64;fill-opacity:1;fill-rule:evenodd;stroke:#000000;stroke-width:5.07946491;stroke-linecap:round;stroke-linejoin:miter;stroke-miterlimit:4;stroke-dasharray:none;stroke-opacity:1"
             id="path2277" />
          <path
             d="M 321.10538 731.9314 A 39.126286 38.451694 0 1 1  242.85281,731.9314 A 39.126286 38.451694 0 1 1  321.10538 731.9314 z"
             transform="matrix(0.958435,0,0,0.97525,48.74137,-46.45393)"
             style="opacity:1;fill:#0a0a64;fill-opacity:1;fill-rule:evenodd;stroke:#000000;stroke-width:5.07946491;stroke-linecap:round;stroke-linejoin:miter;stroke-miterlimit:4;stroke-dasharray:none;stroke-opacity:1"
             id="path2279" />
          <path
             d="M 321.10538 731.9314 A 39.126286 38.451694 0 1 1  242.85281,731.9314 A 39.126286 38.451694 0 1 1  321.10538 731.9314 z"
             transform="matrix(0.958435,0,0,0.97525,125.7414,-46.45393)"
             style="opacity:1;fill:#0a0a64;fill-opacity:1;fill-rule:evenodd;stroke:#000000;stroke-width:5.07946491;stroke-linecap:round;stroke-linejoin:miter;stroke-miterlimit:4;stroke-dasharray:none;stroke-opacity:1"
             id="path2281" />
          <path
             d="M 321.10538 731.9314 A 39.126286 38.451694 0 1 1  242.85281,731.9314 A 39.126286 38.451694 0 1 1  321.10538 731.9314 z"
             transform="matrix(0.958435,0,0,0.97525,48.74137,83.54607)"
             style="opacity:1;fill:#0a0a64;fill-opacity:1;fill-rule:evenodd;stroke:#000000;stroke-width:5.07946491;stroke-linecap:round;stroke-linejoin:miter;stroke-miterlimit:4;stroke-dasharray:none;stroke-opacity:1"
             id="path2283" />
          <path
             d="M 321.10538 731.9314 A 39.126286 38.451694 0 1 1  242.85281,731.9314 A 39.126286 38.451694 0 1 1  321.10538 731.9314 z"
             transform="matrix(0.958435,0,0,0.97525,125.7414,83.54607)"
             style="opacity:1;fill:#0a0a64;fill-opacity:1;fill-rule:evenodd;stroke:#000000;stroke-width:5.07946491;stroke-linecap:round;stroke-linejoin:miter;stroke-miterlimit:4;stroke-dasharray:none;stroke-opacity:1"
             id="path2285" />
          <path
             d="M 321.10538 731.9314 A 39.126286 38.451694 0 1 1  242.85281,731.9314 A 39.126286 38.451694 0 1 1  321.10538 731.9314 z"
             transform="matrix(0.958435,0,0,0.97525,86.74137,148.5461)"
             style="opacity:1;fill:#0a0a64;fill-opacity:1;fill-rule:evenodd;stroke:#000000;stroke-width:5.07946491;stroke-linecap:round;stroke-linejoin:miter;stroke-miterlimit:4;stroke-dasharray:none;stroke-opacity:1"
             id="path2287" />
        </g>
        <path
           d="M 1024.9372,6307.1877 C 995.94483,6294.7808 747.43898,6188.9389 747.43898,6188.9389 L 834.41602,6303.052 L 457.51548,6220.3394 L 602.47723,6334.1896 L 283.56135,6323.7302 L 523.78369,6472.6129 L 387.10546,6600.8175 L 747.43898,6509.8336 L 739.15547,6644.0578 L 921.39307,6439.5279 L 937.96014,6567.7324 L 1097.0159,6464.3416 L 1236.1671,6716.6151 L 1366.6132,6621.4956 L 1519.8375,6738.9548 L 1513.6653,6571.868 L 1758.0293,6666.9875 L 1695.9029,6497.4267 L 1861.5735,6447.7991 L 1089.2576,6341.9363 L 1219.6001,6187.2544 L 1140.9066,6141.7624 L 1024.9372,6307.1877 z "
           style="fill:#249842;fill-opacity:1;fill-rule:evenodd;stroke:#000000;stroke-width:20.324543;stroke-linecap:butt;stroke-linejoin:round;stroke-miterlimit:4;stroke-dasharray:none;stroke-opacity:1"
           id="path2299" />
        <g
           transform="matrix(4.1417644,0,0,4.1356309,-499.23213,3816.0401)"
           style="fill-rule:evenodd"
           id="g2782">
          <path
             d="M 220.26022,669.36218 L 286,635.36218 C 286,635.36218 296.75,632.11218 311.17899,628.61218 C 325.60798,625.11218 353.83103,620.54204 368.54699,619.54204 L 347.38427,662.49162"
             style="fill:none;fill-opacity:0.75;fill-rule:evenodd;stroke:#000000;stroke-width:2.94651389;stroke-linecap:round;stroke-linejoin:miter;stroke-miterlimit:4;stroke-dasharray:none;stroke-opacity:1"
             id="path2742" />
          <path
             d="M 285.02343,635.65944 L 199.47493,610.52767"
             style="fill:none;fill-opacity:0.75;fill-rule:evenodd;stroke:#000000;stroke-width:2.94651389;stroke-linecap:round;stroke-linejoin:miter;stroke-miterlimit:4;stroke-dasharray:none;stroke-opacity:1"
             id="path2744" />
          <path
             d="M 239.98578,586.32981 L 323.25193,625.98814"
             style="fill:none;fill-opacity:0.75;fill-rule:evenodd;stroke:#000000;stroke-width:2.94651389;stroke-linecap:round;stroke-linejoin:miter;stroke-miterlimit:4;stroke-dasharray:none;stroke-opacity:1"
             id="path2746" />
          <path
             d="M 563.42422,638.72908 L 459.81579,633.76271 L 398.58844,625.36218"
             style="fill:none;fill-opacity:0.75;fill-rule:evenodd;stroke:#000000;stroke-width:2.94651389;stroke-linecap:round;stroke-linejoin:miter;stroke-miterlimit:4;stroke-dasharray:none;stroke-opacity:1"
             id="path2750" />
          <path
             d="M 460.2243,634.37651 C 467.65235,637.37651 537.75685,672.5297 537.75685,672.5297"
             style="fill:none;fill-opacity:0.75;fill-rule:evenodd;stroke:#000000;stroke-width:2.94651389;stroke-linecap:round;stroke-linejoin:miter;stroke-miterlimit:4;stroke-dasharray:none;stroke-opacity:1"
             id="path2752" />
          <path
             d="M 458.90648,634.4557 L 485.06774,702.765"
             style="fill:none;fill-opacity:0.75;fill-rule:evenodd;stroke:#000000;stroke-width:2.94651389;stroke-linecap:round;stroke-linejoin:miter;stroke-miterlimit:4;stroke-dasharray:none;stroke-opacity:1"
             id="path2754" />
          <path
             d="M 429.46838,629.8593 L 419.17268,698.54989"
             style="fill:none;fill-opacity:0.75;fill-rule:evenodd;stroke:#000000;stroke-width:2.94651389;stroke-linecap:round;stroke-linejoin:miter;stroke-miterlimit:4;stroke-dasharray:none;stroke-opacity:1"
             id="path2758" />
          <path
             d="M 300,680.36218 L 313.84786,628.54366"
             style="fill:none;fill-opacity:0.75;fill-rule:evenodd;stroke:#000000;stroke-width:2.94651389;stroke-linecap:butt;stroke-linejoin:miter;stroke-miterlimit:4;stroke-dasharray:none;stroke-opacity:1"
             id="path2778" />
          <path
             d="M 306,576.85912 L 370.34725,618.31055 L 384.40513,623.53084"
             style="fill:none;fill-opacity:0.75;fill-rule:evenodd;stroke:#000000;stroke-width:2.94651389;stroke-linecap:round;stroke-linejoin:miter;stroke-miterlimit:4;stroke-dasharray:none;stroke-opacity:1"
             id="path2780" />
        </g>
        <path
           d="M 3218.956,348.26549 L 3238.8421,337.87935 C 3280.5893,415.25197 3457.238,777.50792 3457.238,777.50792 L 3445.1377,783.10743 L 3218.956,348.26549 z "
           transform="matrix(-10.129553,-0.2805419,-0.2805419,10.129553,34942.982,4009.8937)"
           style="fill:#000000;fill-opacity:1;fill-rule:evenodd;stroke:#000000;stroke-width:3.89831877;stroke-linecap:butt;stroke-linejoin:miter;stroke-miterlimit:4;stroke-dasharray:none;stroke-opacity:1;display:inline"
           id="path3641" />
        <path
           d="M 3190.7999,463.68575 C 3196.3671,451.66509 3205.7105,436.28385 3215.4554,423.09803 C 3222.3416,413.78021 3223.3767,411.68861 3222.262,409.34316 C 3220.5842,405.81258 3220.1852,398.9162 3226.5405,397.14267 C 3230.8654,395.93577 3234.5697,397.52201 3238.185,403.9019 C 3239.9515,407.01924 3241.6631,409.78647 3241.9332,409.65811 L 3272.178,395.28512 L 3248.436,345.3252 L 3240.3335,349.17567 L 3220.8467,358.43626 L 3214.3002,361.52204 C 3194.6818,370.76044 3161.9005,377.38071 3145.0482,375.5077 C 3142.0126,375.17027 3139.2205,375.37157 3138.8435,375.95499 C 3137.3136,378.32324 3144.7867,404.13777 3152.7333,423.93495 C 3157.0594,434.71199 3171.866,461.23928 3177.7011,468.66647 C 3184.4005,476.27662 3183.9699,476.26549 3190.7999,463.68575 z "
           transform="matrix(-10.129553,-0.2805419,-0.2805419,10.129553,34942.982,4009.8937)"
           style="fill:#0a0a64;fill-opacity:1;fill-rule:evenodd;stroke:#000000;stroke-width:3.89831877;stroke-linecap:butt;stroke-linejoin:miter;stroke-miterlimit:4;stroke-dasharray:none;stroke-opacity:1;display:inline"
           id="Axe" />
        <path
           d="M 3473.9836,362.86447 L 3454.7028,351.39358 C 3408.7372,426.33697 3212.309,778.26042 3212.309,778.26042 L 3224.0808,784.52107 L 3473.9836,362.86447 z "
           transform="matrix(-10.129553,-0.2805419,-0.2805419,10.129553,34942.982,4009.8937)"
           style="fill:#000000;fill-opacity:1;fill-rule:evenodd;stroke:#000000;stroke-width:3.89831901;stroke-linecap:butt;stroke-linejoin:miter;stroke-miterlimit:4;stroke-dasharray:none;stroke-opacity:1;display:inline"
           id="path3851" />
        <path
           d="M 3495.7082,479.6662 C 3490.8149,467.35583 3482.3371,451.48102 3473.337,437.77605 C 3466.9771,428.09137 3466.0593,425.94569 3467.3021,423.66553 C 3469.1727,420.23323 3469.9528,413.3695 3463.7054,411.24693 C 3459.4539,409.80251 3455.6676,411.18129 3451.7047,417.35131 C 3449.7684,420.36609 3447.9062,423.03434 3447.6436,422.89123 L 3418.2407,406.86627 L 3444.7115,358.29702 L 3452.5885,362.59004 L 3471.5328,372.915 L 3477.8985,376.35838 C 3496.9755,386.66847 3529.3401,395.09297 3546.2702,394.15558 C 3549.3199,393.9867 3552.0966,394.34223 3552.4407,394.94561 C 3553.8372,397.39491 3544.9468,422.75625 3535.9166,442.08325 C 3531.0007,452.60433 3514.7485,478.27143 3508.5113,485.36428 C 3501.4009,492.59196 3501.8314,492.60468 3495.7082,479.6662 z "
           transform="matrix(-10.129553,-0.2805419,-0.2805419,10.129553,34942.982,4009.8937)"
           style="fill:#0a0a64;fill-opacity:1;fill-rule:evenodd;stroke:#000000;stroke-width:3.89831901;stroke-linecap:butt;stroke-linejoin:miter;stroke-miterlimit:4;stroke-dasharray:none;stroke-opacity:1;display:inline"
           id="path3853" />
        <path
           d="M -926.18546,8642.8272 C -453.76654,9508.217 934.01626,9722.5587 1856.9644,9774.0284 C 1904.3884,9615.3779 2068.6204,9164.7883 2118.1152,9029.0197 L 2844.3881,9040.0026 L 2846.1832,8635.6225 L -926.18546,8642.8272 z "
           style="fill:#0a0a64;fill-opacity:1;fill-rule:evenodd;stroke:#000000;stroke-width:41.05611038;stroke-linecap:butt;stroke-linejoin:miter;stroke-miterlimit:4;stroke-dasharray:none;stroke-opacity:1"
           id="path5521" />
      </g>
      <g
         transform="translate(2.0547368e-5,2.7031579e-6)"
         style="fill-rule:evenodd;display:inline"
         id="g2625">
        <path
           d="M 8168.3905,397.45687 L 3369.5492,397.45687 L 3369.5492,5901.7606 L 8168.3905,5901.7606 L 8168.3905,397.45687 z "
           style="fill:#ffc800;fill-opacity:1;fill-rule:evenodd;stroke:#000000;stroke-width:36.92896271;stroke-miterlimit:4;stroke-dasharray:none;stroke-opacity:1"
           id="path18" />
        <path
           d="M 4082.407,1339.3288 L 4077.161,5086.3737 C 4126.996,5288.3397 4267.908,5350.6054 4469.874,5355.8512 L 4469.874,1038.3839 C 4258.391,1060.0567 4118.52,1063.8228 4082.407,1339.3288 z "
           style="fill:#0a0a64;fill-opacity:1;fill-rule:evenodd;stroke:#000000;stroke-width:18.46105194;stroke-linecap:butt;stroke-linejoin:miter;stroke-miterlimit:4;stroke-dasharray:none;stroke-opacity:1"
           id="path3527" />
        <path
           d="M 4447.646,4796.5035 C 4290.188,4919.7392 4231.792,5165.5198 4469.875,5307.6608 C 4469.875,5307.6608 7492.986,5312.0388 7480.639,5308.5881 C 7258.852,5150.4465 7263.96,4939.8147 7452.643,4795.4718 L 4447.646,4796.5035 z "
           style="fill:#646464;fill-opacity:1;stroke:#000000;stroke-width:12.30736923;stroke-miterlimit:4;stroke-dasharray:none;stroke-opacity:1"
           id="path2378" />
        <rect
           width="2989.3865"
           height="3757.7766"
           x="4471.4565"
           y="-4792.8281"
           transform="scale(1,-1)"
           style="fill:#0a0a64;fill-opacity:1;stroke:#000000;stroke-width:12.30736828;stroke-miterlimit:4;stroke-dasharray:none;stroke-opacity:1"
           id="rect103" />
        <path
           d="M 5673.859,1470.1642 C 5673.859,1470.1642 5777.001,1626.3354 5776.164,1800.1555 C 5776.028,1829.2372 5776.066,1898.5344 5776.164,1981.8815 C 5651.718,1982.1072 5546.829,1982.0205 5520.594,1980.5354 C 5453.7,1976.749 5352.714,1878.2304 5352.713,1878.2304 C 5352.713,1878.2304 5346.156,2233.4967 5352.713,2323.9879 C 5395.992,2285.9553 5440.531,2219.8746 5504.825,2216.4907 C 5533.18,2214.9984 5645.287,2214.2244 5776.548,2213.7985 C 5776.83,2373.9568 5777.057,2552.3341 5777.317,2737.2463 C 5559.207,2737.5893 5365.952,2737.5333 5321.176,2735.9002 C 5217.362,2732.1137 5060.605,2633.5952 5060.606,2633.5952 C 5060.606,2633.5952 5050.427,2989.0538 5060.606,3079.545 C 5127.77,3041.5124 5196.975,2975.2392 5296.753,2971.8555 C 5344.912,2970.2222 5549.547,2969.5469 5777.702,2969.1632 C 5777.934,3255.8479 5777.657,3498.0394 5776.164,3558.3785 C 5772.378,3711.4187 5673.858,3942.4067 5673.859,3942.4069 C 5673.859,3942.4069 6029.316,3957.411 6119.809,3942.4069 C 6081.775,3843.3938 6015.695,3741.428 6012.311,3594.3391 C 6010.813,3529.1973 6010.043,3270.8909 6009.619,2968.9709 C 6253.788,2968.8629 6481.456,2969.0524 6521.913,2969.3555 C 6609.43,2970.0112 6737.676,3071.6606 6737.677,3071.6605 L 6737.677,2633.5952 C 6737.677,2633.5952 6631.747,2736.7363 6513.837,2735.9002 C 6460.659,2735.5357 6241.516,2736.2808 6009.234,2736.8617 C 6009.095,2549.9844 6009.178,2373.9008 6009.234,2213.4139 C 6146.99,2213.3858 6270.989,2213.526 6294.42,2213.7985 C 6350.813,2214.4542 6433.454,2316.1035 6433.454,2316.1035 L 6433.454,1878.2304 C 6433.454,1878.2304 6365.204,1981.3716 6289.227,1980.5354 C 6258.607,1980.2098 6139.897,1980.7747 6009.427,1981.3046 C 6009.513,1906.267 6009.514,1808.9195 6009.619,1788.2328 C 6010.275,1659.2172 6111.924,1470.1643 6111.924,1470.1642 L 5673.859,1470.1642 z "
           style="opacity:0.98999999;fill:#ffc800;fill-opacity:1;fill-rule:evenodd;stroke:#000000;stroke-width:18.46105194;stroke-linecap:butt;stroke-linejoin:bevel;stroke-miterlimit:4;stroke-dashoffset:0;stroke-opacity:1"
           id="rect2508" />
        <path
           d="M 4467.14,5305.5112 L 7496.116,5305.5112 L 7496.116,5363.2158 L 4467.14,5363.2158 L 4467.14,5305.5112 z "
           style="opacity:0.98999999;fill:#0a0a64;fill-opacity:1;fill-rule:evenodd;stroke:#000000;stroke-width:2;stroke-linecap:butt;stroke-linejoin:bevel;stroke-miterlimit:4;stroke-dashoffset:0;stroke-opacity:1"
           id="rect3522" />
        <path
           d="M 7376.7705,4859.6122 L 4449.5745,4859.6122"
           style="fill:none;fill-opacity:0.75;fill-rule:evenodd;stroke:#ffffff;stroke-width:18.46105194;stroke-linecap:butt;stroke-linejoin:miter;stroke-miterlimit:4;stroke-dasharray:none;stroke-opacity:1"
           id="path3541" />
        <path
           d="M 7345.2953,4922.5627 L 4418.0993,4922.5627"
           style="fill:none;fill-opacity:0.75;fill-rule:evenodd;stroke:#ffffff;stroke-width:18.46105194;stroke-linecap:butt;stroke-linejoin:miter;stroke-miterlimit:4;stroke-dasharray:none;stroke-opacity:1"
           id="path3543" />
        <path
           d="M 7313.8201,4985.5132 L 4386.6241,4985.5132"
           style="fill:none;fill-opacity:0.75;fill-rule:evenodd;stroke:#ffffff;stroke-width:18.46105194;stroke-linecap:butt;stroke-linejoin:miter;stroke-miterlimit:4;stroke-dasharray:none;stroke-opacity:1"
           id="path3545" />
        <path
           d="M 7303.3284,5053.7095 L 4376.1324,5053.7095"
           style="fill:none;fill-opacity:0.75;fill-rule:evenodd;stroke:#ffffff;stroke-width:18.46105194;stroke-linecap:butt;stroke-linejoin:miter;stroke-miterlimit:4;stroke-dasharray:none;stroke-opacity:1"
           id="path3547" />
        <path
           d="M 7319.066,5114.037 L 4391.87,5114.037"
           style="fill:none;fill-opacity:0.75;fill-rule:evenodd;stroke:#ffffff;stroke-width:18.46105194;stroke-linecap:butt;stroke-linejoin:miter;stroke-miterlimit:4;stroke-dasharray:none;stroke-opacity:1"
           id="path3549" />
        <path
           d="M 7345.2954,5176.9875 L 4418.0994,5176.9875"
           style="fill:none;fill-opacity:0.75;fill-rule:evenodd;stroke:#ffffff;stroke-width:18.46105194;stroke-linecap:butt;stroke-linejoin:miter;stroke-miterlimit:4;stroke-dasharray:none;stroke-opacity:1"
           id="path3551" />
        <path
           d="M 7392.5082,5245.1838 L 4465.3122,5245.1838"
           style="fill:none;fill-opacity:0.75;fill-rule:evenodd;stroke:#ffffff;stroke-width:18.46105194;stroke-linecap:butt;stroke-linejoin:miter;stroke-miterlimit:4;stroke-dasharray:none;stroke-opacity:1"
           id="path3553" />
      </g>
      <path
         d="M 4058.144,11438.955 L 6783.1207,11438.955 C 8131.6986,11438.955 8148.5375,10723.386 8148.5375,9978.5204 L 8148.5375,414.64557 L -1372.042,414.64557 L -1372.042,9978.5204 C -1372.042,10723.386 -1355.2031,11438.955 -7.3571891,11438.955 L 2718.3516,11438.955 M 2718.3516,11438.955 C 3058.7906,11438.955 3397.7654,11589.1 3381.6586,11902.574 M 3391.9084,11903.306 C 3391.9084,11592.03 3717.7049,11438.955 4058.144,11438.955"
         style="fill:none;fill-rule:evenodd;stroke:#000000;stroke-width:81.2820816"
         id="path876" />
      <path
         d="M 3364.6194,384.41253 L 3364.6194,11812.283"
         style="fill:none;fill-rule:evenodd;stroke:#000000;stroke-width:36.92210388;stroke-miterlimit:4;stroke-dasharray:none"
         id="path880" />
      <path
         d="M -1402.2593,5905.3567 L 8124.1774,5905.3567"
         style="fill:none;fill-rule:evenodd;stroke:#000000;stroke-width:36.92210388;stroke-miterlimit:4;stroke-dasharray:none"
         id="path882" />
    </g>
  </g>
</svg>
