<?xml version="1.0" encoding="UTF-8" standalone="no"?>
<svg
   xmlns:dc="http://purl.org/dc/elements/1.1/"
   xmlns:cc="http://creativecommons.org/ns#"
   xmlns:rdf="http://www.w3.org/1999/02/22-rdf-syntax-ns#"
   xmlns:svg="http://www.w3.org/2000/svg"
   xmlns="http://www.w3.org/2000/svg"
   xmlns:sodipodi="http://sodipodi.sourceforge.net/DTD/sodipodi-0.dtd"
   xmlns:inkscape="http://www.inkscape.org/namespaces/inkscape"
   viewBox="0 0 40 40"
   preserveAspectRatio="xMinYMid"
   width="2500"
   height="2500"
   version="1.1"
   id="svg32"
   sodipodi:docname="amazon-artificial-intelligence.svg"
   inkscape:version="0.92.4 (5da689c313, 2019-01-14)">
  <metadata
     id="metadata38">
    <rdf:RDF>
      <cc:Work
         rdf:about="">
        <dc:format>image/svg+xml</dc:format>
        <dc:type
           rdf:resource="http://purl.org/dc/dcmitype/StillImage" />
        <dc:title></dc:title>
      </cc:Work>
    </rdf:RDF>
  </metadata>
  <defs
     id="defs36" />
  <sodipodi:namedview
     pagecolor="#ffffff"
     bordercolor="#666666"
     borderopacity="1"
     objecttolerance="10"
     gridtolerance="10"
     guidetolerance="10"
     inkscape:pageopacity="0"
     inkscape:pageshadow="2"
     inkscape:window-width="1304"
     inkscape:window-height="745"
     id="namedview34"
     showgrid="false"
     inkscape:zoom="0.0944"
     inkscape:cx="1250"
     inkscape:cy="1250"
     inkscape:window-x="54"
     inkscape:window-y="-8"
     inkscape:window-maximized="1"
     inkscape:current-layer="svg32" />
  <path
     fill="#DDD"
     d="M20.4 39.5h-.8c-10 0-18.1-8.2-18.1-18.1V16C1.5 7.5 8.5.5 17 .5h6.2c8.5 0 15.5 7 15.5 15.5v5.4c-.1 9.9-8.3 18.1-18.3 18.1z"
     id="path2" />
  <path
     fill="#A0CEC7"
     d="M20.1 5.3v14.5H4.5v-8.3l3.9-5.3 6.8-3"
     id="path4" />
  <path
     fill="#FFF"
     d="M20.1 5.3v14.5h15.6v-8.3l-3.9-5.3-6.8-3"
     id="path6" />
  <path
     fill="none"
     stroke="#020202"
     stroke-width="1.282"
     stroke-linecap="round"
     stroke-linejoin="round"
     stroke-miterlimit="10"
     d="M20.1 5.1l-3.8-1.5c-.6-.5-1.4-.5-2.1-.2L8.8 6.1c-.4.1-.6.3-.9.6l-3.2 4.2c-.3.4-.5.9-.5 1.4v7.6H36v-7.6c0-.5-.2-1-.5-1.4l-3.2-4.2c-.2-.3-.5-.5-.8-.7l-5.4-2.6c-.7-.3-1.5-.3-2.1.2l-3.9 1.5z"
     id="path8" />
  <circle
     fill="#A0CEC7"
     stroke="#020202"
     stroke-width="1.185"
     stroke-miterlimit="10"
     cx="12.9"
     cy="26.5"
     r="2.6"
     id="circle10" />
  <circle
     fill="#A0CEC7"
     stroke="#020202"
     stroke-width="1.185"
     stroke-miterlimit="10"
     cx="27.2"
     cy="26.5"
     r="2.6"
     id="circle12" />
  <circle
     fill="#FFF"
     stroke="#020202"
     stroke-width="1.025"
     stroke-miterlimit="10"
     cx="20.1"
     cy="14.4"
     r="1.9"
     id="circle14" />
  <path
     fill="none"
     stroke="#020202"
     stroke-width="1.025"
     stroke-miterlimit="10"
     d="M20.1 5.1v7.2"
     id="path16" />
  <circle
     fill="none"
     stroke="#020202"
     stroke-width=".996"
     stroke-miterlimit="10"
     cx="26"
     cy="9.6"
     r="1.5"
     id="circle18" />
  <circle
     fill="none"
     stroke="#020202"
     stroke-width=".996"
     stroke-miterlimit="10"
     cx="31.1"
     cy="13.9"
     r="1.5"
     id="circle20" />
  <path
     fill="none"
     stroke="#020202"
     stroke-width=".83"
     stroke-miterlimit="10"
     d="M28.9 5.3l-2.2 3m5.7 4.9l3.1-1.4"
     id="path22" />
  <circle
     fill="#FFF"
     stroke="#020202"
     stroke-width=".996"
     stroke-miterlimit="10"
     cx="14"
     cy="9.6"
     r="1.5"
     id="circle24" />
  <circle
     fill="#FFF"
     stroke="#020202"
     stroke-width=".83"
     stroke-miterlimit="10"
     cx="9"
     cy="13.9"
     r="1.3"
     id="circle26" />
  <path
     fill="none"
     stroke="#020202"
     stroke-width=".83"
     stroke-miterlimit="10"
     d="M11.2 5.3l2.1 3m-8.8 3.5l3.2 1.4"
     id="path28" />
  <path
     fill="#020202"
     d="M23.4 35.3h-6.7c-.4 0-.7-.3-.7-.7v-.2c0-.4.3-.7.7-.7h6.7c.4 0 .7.3.7.7v.2c0 .4-.3.7-.7.7z"
     id="path30" />
</svg>
