<?xml version="1.0" encoding="utf-8"?>
<!DOCTYPE svg PUBLIC "-//W3C//DTD SVG 1.1//EN" "http://www.w3.org/Graphics/SVG/1.1/DTD/svg11.dtd">
<svg height="267.565988pt" version="1.1" viewBox="0 0 273.054782 267.565988" width="273.054782pt" xmlns="http://www.w3.org/2000/svg" xmlns:xlink="http://www.w3.org/1999/xlink">
<metadata>
<rdf:RDF xmlns:cc="http://creativecommons.org/ns#" xmlns:dc="http://purl.org/dc/elements/1.1/" xmlns:rdf="http://www.w3.org/1999/02/22-rdf-syntax-ns#">
<cc:Work>
<dc:type rdf:resource="http://purl.org/dc/dcmitype/StillImage"/>
<dc:date>2022-07-14T11:46:15.530439</dc:date>
<dc:format>image/svg+xml</dc:format>
<dc:creator>
<cc:Agent>
<dc:title>Matplotlib v3.5.1, https://matplotlib.org/</dc:title>
</cc:Agent>
</dc:creator>
</cc:Work>
</rdf:RDF>
</metadata>
<defs>
<style type="text/css">*{stroke-linejoin: round; stroke-linecap: butt}</style>
</defs>
<g id="figure_1">
<g id="patch_1">
<path d="M 0 267.565988  L 273.054782 267.565988  L 273.054782 0  L 0 0  L 0 267.565988  z " style="fill: none"/>
</g>
<g id="axes_1">
<g id="patch_2">
<path clip-path="url(#p9a633ec0a7)" d="M 132.677078 49.041485  C 117.201686 42.207385 99.732757 41.331593 83.651435 46.583621  C 67.570114 51.835649 53.98548 62.853281 45.526864 77.504033  C 37.068249 92.154784 34.319017 109.428239 37.811288 125.981086  C 41.303559 142.533932 50.796482 157.224573 64.452682 167.209606  C 63.157443 155.234615 65.037588 143.127037 69.903373 132.10877  C 74.769158 121.090504 82.451201 111.545107 92.174228 104.435901  C 93.469467 92.460909 97.895003 81.035367 105.004209 71.31234  C 112.113415 61.589313 121.658812 53.90727 132.677078 49.041485  " style="fill: #ff0000; opacity: 0.4"/>
</g>
<g id="patch_3">
<path clip-path="url(#p9a633ec0a7)" d="M 132.677078 49.041485  C 143.695345 53.90727 153.240742 61.589313 160.349948 71.31234  C 167.459154 81.035367 171.88469 92.460909 173.179929 104.435901  C 182.902956 111.545107 190.584998 121.090504 195.450784 132.10877  C 200.316569 143.127037 202.196714 155.234615 200.901475 167.209606  C 214.557675 157.224573 224.050598 142.533932 227.542869 125.981086  C 231.03514 109.428239 228.285908 92.154784 219.827293 77.504033  C 211.368677 62.853281 197.784043 51.835649 181.702722 46.583621  C 165.6214 41.331593 148.152471 42.207385 132.677078 49.041485  " style="fill: #008000; opacity: 0.4"/>
</g>
<g id="patch_4">
<path clip-path="url(#p9a633ec0a7)" d="M 132.677078 49.041485  C 121.658812 53.90727 112.113415 61.589313 105.004209 71.31234  C 97.895003 81.035367 93.469467 92.460909 92.174228 104.435901  C 103.927752 95.842052 118.116874 91.208001 132.677078 91.208001  C 147.237283 91.208001 161.426405 95.842052 173.179929 104.435901  C 171.88469 92.460909 167.459154 81.035367 160.349948 71.31234  C 153.240742 61.589313 143.695345 53.90727 132.677078 49.041485  " style="fill: #b25900; opacity: 0.4"/>
</g>
<g id="patch_5">
<path clip-path="url(#p9a633ec0a7)" d="M 64.452682 167.209606  C 66.271874 184.028739 74.247881 199.595172 86.836931 210.89599  C 99.425981 222.196809 115.759848 228.452632 132.677078 228.452632  C 149.594309 228.452632 165.928175 222.196809 178.517226 210.89599  C 191.106276 199.595172 199.082283 184.028739 200.901475 167.209606  C 191.178448 174.318812 179.752905 178.744347 167.777914 180.039587  C 155.802923 181.334826 143.695345 179.454681 132.677078 174.588896  C 121.658812 179.454681 109.551234 181.334826 97.576243 180.039587  C 85.601252 178.744347 74.175709 174.318812 64.452682 167.209606  " style="fill: #0000ff; opacity: 0.4"/>
</g>
<g id="patch_6">
<path clip-path="url(#p9a633ec0a7)" d="M 64.452682 167.209606  C 74.175709 174.318812 85.601252 178.744347 97.576243 180.039587  C 109.551234 181.334826 121.658812 179.454681 132.677078 174.588896  C 119.357825 168.70697 108.250058 158.735855 100.969956 146.126348  C 93.689853 133.516841 90.608498 118.911675 92.174228 104.435901  C 82.451201 111.545107 74.769158 121.090504 69.903373 132.10877  C 65.037588 143.127037 63.157443 155.234615 64.452682 167.209606  " style="fill: #b200b2; opacity: 0.4"/>
</g>
<g id="patch_7">
<path clip-path="url(#p9a633ec0a7)" d="M 173.179929 104.435901  C 174.745658 118.911675 171.664303 133.516841 164.384201 146.126348  C 157.104099 158.735855 145.996332 168.70697 132.677078 174.588896  C 143.695345 179.454681 155.802923 181.334826 167.777914 180.039587  C 179.752905 178.744347 191.178448 174.318812 200.901475 167.209606  C 202.196714 155.234615 200.316569 143.127037 195.450784 132.10877  C 190.584998 121.090504 182.902956 111.545107 173.179929 104.435901  " style="fill: #0059b2; opacity: 0.4"/>
</g>
<g id="patch_8">
<path clip-path="url(#p9a633ec0a7)" d="M 92.174228 104.435901  C 90.608498 118.911675 93.689853 133.516841 100.969956 146.126348  C 108.250058 158.735855 119.357825 168.70697 132.677078 174.588896  C 145.996332 168.70697 157.104099 158.735855 164.384201 146.126348  C 171.664303 133.516841 174.745658 118.911675 173.179929 104.435901  C 161.426405 95.842052 147.237283 91.208001 132.677078 91.208001  C 118.116874 91.208001 103.927752 95.842052 92.174228 104.435901  " style="fill: #663366; opacity: 0.4"/>
</g>
<g id="patch_9">
<path clip-path="url(#p9a633ec0a7)" d="M 104.955533 180.437506  C 123.154384 180.437506 140.610307 173.207026 153.478837 160.338495  C 166.347368 147.469964 173.577848 130.014041 173.577848 111.81519  C 173.577848 93.61634 166.347368 76.160417 153.478837 63.291886  C 140.610307 50.423355 123.154384 43.192875 104.955533 43.192875  C 86.756682 43.192875 69.300759 50.423355 56.432228 63.291886  C 43.563697 76.160417 36.333217 93.61634 36.333217 111.81519  C 36.333217 130.014041 43.563697 147.469964 56.432228 160.338495  C 69.300759 173.207026 86.756682 180.437506 104.955533 180.437506  L 104.955533 180.437506  z " style="fill: none; stroke: #000000; stroke-width: 2; stroke-linejoin: miter"/>
</g>
<g id="patch_10">
<path clip-path="url(#p9a633ec0a7)" d="M 160.398624 180.437506  C 178.597475 180.437506 196.053398 173.207026 208.921929 160.338495  C 221.79046 147.469964 229.02094 130.014041 229.02094 111.81519  C 229.02094 93.61634 221.79046 76.160417 208.921929 63.291886  C 196.053398 50.423355 178.597475 43.192875 160.398624 43.192875  C 142.199773 43.192875 124.74385 50.423355 111.87532 63.291886  C 99.006789 76.160417 91.776309 93.61634 91.776309 111.81519  C 91.776309 130.014041 99.006789 147.469964 111.87532 160.338495  C 124.74385 173.207026 142.199773 180.437506 160.398624 180.437506  L 160.398624 180.437506  z " style="fill: none; stroke: #000000; stroke-width: 2; stroke-linejoin: miter"/>
</g>
<g id="patch_11">
<path clip-path="url(#p9a633ec0a7)" d="M 132.677078 228.452632  C 150.875929 228.452632 168.331852 221.222152 181.200383 208.353621  C 194.068914 195.48509 201.299394 178.029167 201.299394 159.830316  C 201.299394 141.631465 194.068914 124.175542 181.200383 111.307012  C 168.331852 98.438481 150.875929 91.208001 132.677078 91.208001  C 114.478228 91.208001 97.022305 98.438481 84.153774 111.307012  C 71.285243 124.175542 64.054763 141.631465 64.054763 159.830316  C 64.054763 178.029167 71.285243 195.48509 84.153774 208.353621  C 97.022305 221.222152 114.478228 228.452632 132.677078 228.452632  L 132.677078 228.452632  z " style="fill: none; stroke: #000000; stroke-width: 2; stroke-linejoin: miter"/>
</g>
<g id="text_1">
<!-- Fahrenheit -->
<g transform="translate(36.582302 84.7627)scale(0.1 -0.1)">
<defs>
<path d="M 628 4666  L 3309 4666  L 3309 4134  L 1259 4134  L 1259 2759  L 3109 2759  L 3109 2228  L 1259 2228  L 1259 0  L 628 0  L 628 4666  z " id="DejaVuSans-46" transform="scale(0.015625)"/>
<path d="M 2194 1759  Q 1497 1759 1228 1600  Q 959 1441 959 1056  Q 959 750 1161 570  Q 1363 391 1709 391  Q 2188 391 2477 730  Q 2766 1069 2766 1631  L 2766 1759  L 2194 1759  z M 3341 1997  L 3341 0  L 2766 0  L 2766 531  Q 2569 213 2275 61  Q 1981 -91 1556 -91  Q 1019 -91 701 211  Q 384 513 384 1019  Q 384 1609 779 1909  Q 1175 2209 1959 2209  L 2766 2209  L 2766 2266  Q 2766 2663 2505 2880  Q 2244 3097 1772 3097  Q 1472 3097 1187 3025  Q 903 2953 641 2809  L 641 3341  Q 956 3463 1253 3523  Q 1550 3584 1831 3584  Q 2591 3584 2966 3190  Q 3341 2797 3341 1997  z " id="DejaVuSans-61" transform="scale(0.015625)"/>
<path d="M 3513 2113  L 3513 0  L 2938 0  L 2938 2094  Q 2938 2591 2744 2837  Q 2550 3084 2163 3084  Q 1697 3084 1428 2787  Q 1159 2491 1159 1978  L 1159 0  L 581 0  L 581 4863  L 1159 4863  L 1159 2956  Q 1366 3272 1645 3428  Q 1925 3584 2291 3584  Q 2894 3584 3203 3211  Q 3513 2838 3513 2113  z " id="DejaVuSans-68" transform="scale(0.015625)"/>
<path d="M 2631 2963  Q 2534 3019 2420 3045  Q 2306 3072 2169 3072  Q 1681 3072 1420 2755  Q 1159 2438 1159 1844  L 1159 0  L 581 0  L 581 3500  L 1159 3500  L 1159 2956  Q 1341 3275 1631 3429  Q 1922 3584 2338 3584  Q 2397 3584 2469 3576  Q 2541 3569 2628 3553  L 2631 2963  z " id="DejaVuSans-72" transform="scale(0.015625)"/>
<path d="M 3597 1894  L 3597 1613  L 953 1613  Q 991 1019 1311 708  Q 1631 397 2203 397  Q 2534 397 2845 478  Q 3156 559 3463 722  L 3463 178  Q 3153 47 2828 -22  Q 2503 -91 2169 -91  Q 1331 -91 842 396  Q 353 884 353 1716  Q 353 2575 817 3079  Q 1281 3584 2069 3584  Q 2775 3584 3186 3129  Q 3597 2675 3597 1894  z M 3022 2063  Q 3016 2534 2758 2815  Q 2500 3097 2075 3097  Q 1594 3097 1305 2825  Q 1016 2553 972 2059  L 3022 2063  z " id="DejaVuSans-65" transform="scale(0.015625)"/>
<path d="M 3513 2113  L 3513 0  L 2938 0  L 2938 2094  Q 2938 2591 2744 2837  Q 2550 3084 2163 3084  Q 1697 3084 1428 2787  Q 1159 2491 1159 1978  L 1159 0  L 581 0  L 581 3500  L 1159 3500  L 1159 2956  Q 1366 3272 1645 3428  Q 1925 3584 2291 3584  Q 2894 3584 3203 3211  Q 3513 2838 3513 2113  z " id="DejaVuSans-6e" transform="scale(0.015625)"/>
<path d="M 603 3500  L 1178 3500  L 1178 0  L 603 0  L 603 3500  z M 603 4863  L 1178 4863  L 1178 4134  L 603 4134  L 603 4863  z " id="DejaVuSans-69" transform="scale(0.015625)"/>
<path d="M 1172 4494  L 1172 3500  L 2356 3500  L 2356 3053  L 1172 3053  L 1172 1153  Q 1172 725 1289 603  Q 1406 481 1766 481  L 2356 481  L 2356 0  L 1766 0  Q 1100 0 847 248  Q 594 497 594 1153  L 594 3053  L 172 3053  L 172 3500  L 594 3500  L 594 4494  L 1172 4494  z " id="DejaVuSans-74" transform="scale(0.015625)"/>
</defs>
<use xlink:href="#DejaVuSans-46"/>
<use x="48.394531" xlink:href="#DejaVuSans-61"/>
<use x="109.673828" xlink:href="#DejaVuSans-68"/>
<use x="173.052734" xlink:href="#DejaVuSans-72"/>
<use x="211.916016" xlink:href="#DejaVuSans-65"/>
<use x="273.439453" xlink:href="#DejaVuSans-6e"/>
<use x="336.818359" xlink:href="#DejaVuSans-68"/>
<use x="400.197266" xlink:href="#DejaVuSans-65"/>
<use x="461.720703" xlink:href="#DejaVuSans-69"/>
<use x="489.503906" xlink:href="#DejaVuSans-74"/>
</g>
<!-- 451 -->
<g transform="translate(53.473708 95.960513)scale(0.1 -0.1)">
<defs>
<path d="M 2419 4116  L 825 1625  L 2419 1625  L 2419 4116  z M 2253 4666  L 3047 4666  L 3047 1625  L 3713 1625  L 3713 1100  L 3047 1100  L 3047 0  L 2419 0  L 2419 1100  L 313 1100  L 313 1709  L 2253 4666  z " id="DejaVuSans-34" transform="scale(0.015625)"/>
<path d="M 691 4666  L 3169 4666  L 3169 4134  L 1269 4134  L 1269 2991  Q 1406 3038 1543 3061  Q 1681 3084 1819 3084  Q 2600 3084 3056 2656  Q 3513 2228 3513 1497  Q 3513 744 3044 326  Q 2575 -91 1722 -91  Q 1428 -91 1123 -41  Q 819 9 494 109  L 494 744  Q 775 591 1075 516  Q 1375 441 1709 441  Q 2250 441 2565 725  Q 2881 1009 2881 1497  Q 2881 1984 2565 2268  Q 2250 2553 1709 2553  Q 1456 2553 1204 2497  Q 953 2441 691 2322  L 691 4666  z " id="DejaVuSans-35" transform="scale(0.015625)"/>
<path d="M 794 531  L 1825 531  L 1825 4091  L 703 3866  L 703 4441  L 1819 4666  L 2450 4666  L 2450 531  L 3481 531  L 3481 0  L 794 0  L 794 531  z " id="DejaVuSans-31" transform="scale(0.015625)"/>
</defs>
<use xlink:href="#DejaVuSans-34"/>
<use x="63.623047" xlink:href="#DejaVuSans-35"/>
<use x="127.246094" xlink:href="#DejaVuSans-31"/>
</g>
</g>
<g id="text_2">
<!-- A -->
<g transform="translate(198.916387 79.163794)scale(0.1 -0.1)">
<defs>
<path d="M 2188 4044  L 1331 1722  L 3047 1722  L 2188 4044  z M 1831 4666  L 2547 4666  L 4325 0  L 3669 0  L 3244 1197  L 1141 1197  L 716 0  L 50 0  L 1831 4666  z " id="DejaVuSans-41" transform="scale(0.015625)"/>
</defs>
<use xlink:href="#DejaVuSans-41"/>
</g>
<!-- Handmaid's -->
<g transform="translate(172.692949 90.361607)scale(0.1 -0.1)">
<defs>
<path d="M 628 4666  L 1259 4666  L 1259 2753  L 3553 2753  L 3553 4666  L 4184 4666  L 4184 0  L 3553 0  L 3553 2222  L 1259 2222  L 1259 0  L 628 0  L 628 4666  z " id="DejaVuSans-48" transform="scale(0.015625)"/>
<path d="M 2906 2969  L 2906 4863  L 3481 4863  L 3481 0  L 2906 0  L 2906 525  Q 2725 213 2448 61  Q 2172 -91 1784 -91  Q 1150 -91 751 415  Q 353 922 353 1747  Q 353 2572 751 3078  Q 1150 3584 1784 3584  Q 2172 3584 2448 3432  Q 2725 3281 2906 2969  z M 947 1747  Q 947 1113 1208 752  Q 1469 391 1925 391  Q 2381 391 2643 752  Q 2906 1113 2906 1747  Q 2906 2381 2643 2742  Q 2381 3103 1925 3103  Q 1469 3103 1208 2742  Q 947 2381 947 1747  z " id="DejaVuSans-64" transform="scale(0.015625)"/>
<path d="M 3328 2828  Q 3544 3216 3844 3400  Q 4144 3584 4550 3584  Q 5097 3584 5394 3201  Q 5691 2819 5691 2113  L 5691 0  L 5113 0  L 5113 2094  Q 5113 2597 4934 2840  Q 4756 3084 4391 3084  Q 3944 3084 3684 2787  Q 3425 2491 3425 1978  L 3425 0  L 2847 0  L 2847 2094  Q 2847 2600 2669 2842  Q 2491 3084 2119 3084  Q 1678 3084 1418 2786  Q 1159 2488 1159 1978  L 1159 0  L 581 0  L 581 3500  L 1159 3500  L 1159 2956  Q 1356 3278 1631 3431  Q 1906 3584 2284 3584  Q 2666 3584 2933 3390  Q 3200 3197 3328 2828  z " id="DejaVuSans-6d" transform="scale(0.015625)"/>
<path d="M 1147 4666  L 1147 2931  L 616 2931  L 616 4666  L 1147 4666  z " id="DejaVuSans-27" transform="scale(0.015625)"/>
<path d="M 2834 3397  L 2834 2853  Q 2591 2978 2328 3040  Q 2066 3103 1784 3103  Q 1356 3103 1142 2972  Q 928 2841 928 2578  Q 928 2378 1081 2264  Q 1234 2150 1697 2047  L 1894 2003  Q 2506 1872 2764 1633  Q 3022 1394 3022 966  Q 3022 478 2636 193  Q 2250 -91 1575 -91  Q 1294 -91 989 -36  Q 684 19 347 128  L 347 722  Q 666 556 975 473  Q 1284 391 1588 391  Q 1994 391 2212 530  Q 2431 669 2431 922  Q 2431 1156 2273 1281  Q 2116 1406 1581 1522  L 1381 1569  Q 847 1681 609 1914  Q 372 2147 372 2553  Q 372 3047 722 3315  Q 1072 3584 1716 3584  Q 2034 3584 2315 3537  Q 2597 3491 2834 3397  z " id="DejaVuSans-73" transform="scale(0.015625)"/>
</defs>
<use xlink:href="#DejaVuSans-48"/>
<use x="75.195312" xlink:href="#DejaVuSans-61"/>
<use x="136.474609" xlink:href="#DejaVuSans-6e"/>
<use x="199.853516" xlink:href="#DejaVuSans-64"/>
<use x="263.330078" xlink:href="#DejaVuSans-6d"/>
<use x="360.742188" xlink:href="#DejaVuSans-61"/>
<use x="422.021484" xlink:href="#DejaVuSans-69"/>
<use x="449.804688" xlink:href="#DejaVuSans-64"/>
<use x="513.28125" xlink:href="#DejaVuSans-27"/>
<use x="540.771484" xlink:href="#DejaVuSans-73"/>
</g>
<!-- Tale -->
<g transform="translate(192.578105 101.559419)scale(0.1 -0.1)">
<defs>
<path d="M -19 4666  L 3928 4666  L 3928 4134  L 2272 4134  L 2272 0  L 1638 0  L 1638 4134  L -19 4134  L -19 4666  z " id="DejaVuSans-54" transform="scale(0.015625)"/>
<path d="M 603 4863  L 1178 4863  L 1178 0  L 603 0  L 603 4863  z " id="DejaVuSans-6c" transform="scale(0.015625)"/>
</defs>
<use xlink:href="#DejaVuSans-54"/>
<use x="44.583984" xlink:href="#DejaVuSans-61"/>
<use x="105.863281" xlink:href="#DejaVuSans-6c"/>
<use x="133.646484" xlink:href="#DejaVuSans-65"/>
</g>
</g>
<g id="text_3">
<!-- Logan's -->
<g transform="translate(113.533328 75.956079)scale(0.1 -0.1)">
<defs>
<path d="M 628 4666  L 1259 4666  L 1259 531  L 3531 531  L 3531 0  L 628 0  L 628 4666  z " id="DejaVuSans-4c" transform="scale(0.015625)"/>
<path d="M 1959 3097  Q 1497 3097 1228 2736  Q 959 2375 959 1747  Q 959 1119 1226 758  Q 1494 397 1959 397  Q 2419 397 2687 759  Q 2956 1122 2956 1747  Q 2956 2369 2687 2733  Q 2419 3097 1959 3097  z M 1959 3584  Q 2709 3584 3137 3096  Q 3566 2609 3566 1747  Q 3566 888 3137 398  Q 2709 -91 1959 -91  Q 1206 -91 779 398  Q 353 888 353 1747  Q 353 2609 779 3096  Q 1206 3584 1959 3584  z " id="DejaVuSans-6f" transform="scale(0.015625)"/>
<path d="M 2906 1791  Q 2906 2416 2648 2759  Q 2391 3103 1925 3103  Q 1463 3103 1205 2759  Q 947 2416 947 1791  Q 947 1169 1205 825  Q 1463 481 1925 481  Q 2391 481 2648 825  Q 2906 1169 2906 1791  z M 3481 434  Q 3481 -459 3084 -895  Q 2688 -1331 1869 -1331  Q 1566 -1331 1297 -1286  Q 1028 -1241 775 -1147  L 775 -588  Q 1028 -725 1275 -790  Q 1522 -856 1778 -856  Q 2344 -856 2625 -561  Q 2906 -266 2906 331  L 2906 616  Q 2728 306 2450 153  Q 2172 0 1784 0  Q 1141 0 747 490  Q 353 981 353 1791  Q 353 2603 747 3093  Q 1141 3584 1784 3584  Q 2172 3584 2450 3431  Q 2728 3278 2906 2969  L 2906 3500  L 3481 3500  L 3481 434  z " id="DejaVuSans-67" transform="scale(0.015625)"/>
</defs>
<use xlink:href="#DejaVuSans-4c"/>
<use x="53.962891" xlink:href="#DejaVuSans-6f"/>
<use x="115.144531" xlink:href="#DejaVuSans-67"/>
<use x="178.621094" xlink:href="#DejaVuSans-61"/>
<use x="239.900391" xlink:href="#DejaVuSans-6e"/>
<use x="303.279297" xlink:href="#DejaVuSans-27"/>
<use x="330.769531" xlink:href="#DejaVuSans-73"/>
</g>
<!-- Run -->
<g transform="translate(123.09036 87.153892)scale(0.1 -0.1)">
<defs>
<path d="M 2841 2188  Q 3044 2119 3236 1894  Q 3428 1669 3622 1275  L 4263 0  L 3584 0  L 2988 1197  Q 2756 1666 2539 1819  Q 2322 1972 1947 1972  L 1259 1972  L 1259 0  L 628 0  L 628 4666  L 2053 4666  Q 2853 4666 3247 4331  Q 3641 3997 3641 3322  Q 3641 2881 3436 2590  Q 3231 2300 2841 2188  z M 1259 4147  L 1259 2491  L 2053 2491  Q 2509 2491 2742 2702  Q 2975 2913 2975 3322  Q 2975 3731 2742 3939  Q 2509 4147 2053 4147  L 1259 4147  z " id="DejaVuSans-52" transform="scale(0.015625)"/>
<path d="M 544 1381  L 544 3500  L 1119 3500  L 1119 1403  Q 1119 906 1312 657  Q 1506 409 1894 409  Q 2359 409 2629 706  Q 2900 1003 2900 1516  L 2900 3500  L 3475 3500  L 3475 0  L 2900 0  L 2900 538  Q 2691 219 2414 64  Q 2138 -91 1772 -91  Q 1169 -91 856 284  Q 544 659 544 1381  z M 1991 3584  L 1991 3584  z " id="DejaVuSans-75" transform="scale(0.015625)"/>
</defs>
<use xlink:href="#DejaVuSans-52"/>
<use x="64.982422" xlink:href="#DejaVuSans-75"/>
<use x="128.361328" xlink:href="#DejaVuSans-6e"/>
</g>
</g>
<g id="text_4">
<!-- Brave -->
<g transform="translate(118.091141 205.416702)scale(0.1 -0.1)">
<defs>
<path d="M 1259 2228  L 1259 519  L 2272 519  Q 2781 519 3026 730  Q 3272 941 3272 1375  Q 3272 1813 3026 2020  Q 2781 2228 2272 2228  L 1259 2228  z M 1259 4147  L 1259 2741  L 2194 2741  Q 2656 2741 2882 2914  Q 3109 3088 3109 3444  Q 3109 3797 2882 3972  Q 2656 4147 2194 4147  L 1259 4147  z M 628 4666  L 2241 4666  Q 2963 4666 3353 4366  Q 3744 4066 3744 3513  Q 3744 3084 3544 2831  Q 3344 2578 2956 2516  Q 3422 2416 3680 2098  Q 3938 1781 3938 1306  Q 3938 681 3513 340  Q 3088 0 2303 0  L 628 0  L 628 4666  z " id="DejaVuSans-42" transform="scale(0.015625)"/>
<path d="M 191 3500  L 800 3500  L 1894 563  L 2988 3500  L 3597 3500  L 2284 0  L 1503 0  L 191 3500  z " id="DejaVuSans-76" transform="scale(0.015625)"/>
</defs>
<use xlink:href="#DejaVuSans-42"/>
<use x="68.603516" xlink:href="#DejaVuSans-72"/>
<use x="109.716797" xlink:href="#DejaVuSans-61"/>
<use x="170.996094" xlink:href="#DejaVuSans-76"/>
<use x="230.175781" xlink:href="#DejaVuSans-65"/>
</g>
<!-- New World -->
<g transform="translate(105.853641 216.614515)scale(0.1 -0.1)">
<defs>
<path d="M 628 4666  L 1478 4666  L 3547 763  L 3547 4666  L 4159 4666  L 4159 0  L 3309 0  L 1241 3903  L 1241 0  L 628 0  L 628 4666  z " id="DejaVuSans-4e" transform="scale(0.015625)"/>
<path d="M 269 3500  L 844 3500  L 1563 769  L 2278 3500  L 2956 3500  L 3675 769  L 4391 3500  L 4966 3500  L 4050 0  L 3372 0  L 2619 2869  L 1863 0  L 1184 0  L 269 3500  z " id="DejaVuSans-77" transform="scale(0.015625)"/>
<path id="DejaVuSans-20" transform="scale(0.015625)"/>
<path d="M 213 4666  L 850 4666  L 1831 722  L 2809 4666  L 3519 4666  L 4500 722  L 5478 4666  L 6119 4666  L 4947 0  L 4153 0  L 3169 4050  L 2175 0  L 1381 0  L 213 4666  z " id="DejaVuSans-57" transform="scale(0.015625)"/>
</defs>
<use xlink:href="#DejaVuSans-4e"/>
<use x="74.804688" xlink:href="#DejaVuSans-65"/>
<use x="136.328125" xlink:href="#DejaVuSans-77"/>
<use x="218.115234" xlink:href="#DejaVuSans-20"/>
<use x="249.902344" xlink:href="#DejaVuSans-57"/>
<use x="342.904297" xlink:href="#DejaVuSans-6f"/>
<use x="404.085938" xlink:href="#DejaVuSans-72"/>
<use x="445.199219" xlink:href="#DejaVuSans-6c"/>
<use x="472.982422" xlink:href="#DejaVuSans-64"/>
</g>
</g>
<g id="text_5">
<!-- Soylent -->
<g transform="translate(156.346146 149.493012)scale(0.1 -0.1)">
<defs>
<path d="M 3425 4513  L 3425 3897  Q 3066 4069 2747 4153  Q 2428 4238 2131 4238  Q 1616 4238 1336 4038  Q 1056 3838 1056 3469  Q 1056 3159 1242 3001  Q 1428 2844 1947 2747  L 2328 2669  Q 3034 2534 3370 2195  Q 3706 1856 3706 1288  Q 3706 609 3251 259  Q 2797 -91 1919 -91  Q 1588 -91 1214 -16  Q 841 59 441 206  L 441 856  Q 825 641 1194 531  Q 1563 422 1919 422  Q 2459 422 2753 634  Q 3047 847 3047 1241  Q 3047 1584 2836 1778  Q 2625 1972 2144 2069  L 1759 2144  Q 1053 2284 737 2584  Q 422 2884 422 3419  Q 422 4038 858 4394  Q 1294 4750 2059 4750  Q 2388 4750 2728 4690  Q 3069 4631 3425 4513  z " id="DejaVuSans-53" transform="scale(0.015625)"/>
<path d="M 2059 -325  Q 1816 -950 1584 -1140  Q 1353 -1331 966 -1331  L 506 -1331  L 506 -850  L 844 -850  Q 1081 -850 1212 -737  Q 1344 -625 1503 -206  L 1606 56  L 191 3500  L 800 3500  L 1894 763  L 2988 3500  L 3597 3500  L 2059 -325  z " id="DejaVuSans-79" transform="scale(0.015625)"/>
</defs>
<use xlink:href="#DejaVuSans-53"/>
<use x="63.476562" xlink:href="#DejaVuSans-6f"/>
<use x="124.658203" xlink:href="#DejaVuSans-79"/>
<use x="183.837891" xlink:href="#DejaVuSans-6c"/>
<use x="211.621094" xlink:href="#DejaVuSans-65"/>
<use x="273.144531" xlink:href="#DejaVuSans-6e"/>
<use x="336.523438" xlink:href="#DejaVuSans-74"/>
</g>
<!-- Green -->
<g transform="translate(159.994584 160.690825)scale(0.1 -0.1)">
<defs>
<path d="M 3809 666  L 3809 1919  L 2778 1919  L 2778 2438  L 4434 2438  L 4434 434  Q 4069 175 3628 42  Q 3188 -91 2688 -91  Q 1594 -91 976 548  Q 359 1188 359 2328  Q 359 3472 976 4111  Q 1594 4750 2688 4750  Q 3144 4750 3555 4637  Q 3966 4525 4313 4306  L 4313 3634  Q 3963 3931 3569 4081  Q 3175 4231 2741 4231  Q 1884 4231 1454 3753  Q 1025 3275 1025 2328  Q 1025 1384 1454 906  Q 1884 428 2741 428  Q 3075 428 3337 486  Q 3600 544 3809 666  z " id="DejaVuSans-47" transform="scale(0.015625)"/>
</defs>
<use xlink:href="#DejaVuSans-47"/>
<use x="77.490234" xlink:href="#DejaVuSans-72"/>
<use x="116.353516" xlink:href="#DejaVuSans-65"/>
<use x="177.876953" xlink:href="#DejaVuSans-65"/>
<use x="239.400391" xlink:href="#DejaVuSans-6e"/>
</g>
</g>
<g id="text_6">
<!-- You -->
<g transform="translate(124.057547 124.980701)scale(0.1 -0.1)">
<defs>
<path d="M -13 4666  L 666 4666  L 1959 2747  L 3244 4666  L 3922 4666  L 2272 2222  L 2272 0  L 1638 0  L 1638 2222  L -13 4666  z " id="DejaVuSans-59" transform="scale(0.015625)"/>
</defs>
<use xlink:href="#DejaVuSans-59"/>
<use x="47.833984" xlink:href="#DejaVuSans-6f"/>
<use x="109.015625" xlink:href="#DejaVuSans-75"/>
</g>
<!-- Are Here -->
<g transform="translate(110.791922 136.178514)scale(0.1 -0.1)">
<use xlink:href="#DejaVuSans-41"/>
<use x="68.408203" xlink:href="#DejaVuSans-72"/>
<use x="107.271484" xlink:href="#DejaVuSans-65"/>
<use x="168.794922" xlink:href="#DejaVuSans-20"/>
<use x="200.582031" xlink:href="#DejaVuSans-48"/>
<use x="275.777344" xlink:href="#DejaVuSans-65"/>
<use x="337.300781" xlink:href="#DejaVuSans-72"/>
<use x="376.164062" xlink:href="#DejaVuSans-65"/>
</g>
</g>
<g id="text_7">
<!-- Fahrenheit -->
<g transform="translate(7.2 29.7555)scale(0.12 -0.12)">
<use xlink:href="#DejaVuSans-46"/>
<use x="48.394531" xlink:href="#DejaVuSans-61"/>
<use x="109.673828" xlink:href="#DejaVuSans-68"/>
<use x="173.052734" xlink:href="#DejaVuSans-72"/>
<use x="211.916016" xlink:href="#DejaVuSans-65"/>
<use x="273.439453" xlink:href="#DejaVuSans-6e"/>
<use x="336.818359" xlink:href="#DejaVuSans-68"/>
<use x="400.197266" xlink:href="#DejaVuSans-65"/>
<use x="461.720703" xlink:href="#DejaVuSans-69"/>
<use x="489.503906" xlink:href="#DejaVuSans-74"/>
</g>
<!-- 451 -->
<g transform="translate(47.739375 43.192875)scale(0.12 -0.12)">
<use xlink:href="#DejaVuSans-34"/>
<use x="63.623047" xlink:href="#DejaVuSans-35"/>
<use x="127.246094" xlink:href="#DejaVuSans-31"/>
</g>
</g>
<g id="text_8">
<!-- A -->
<g transform="translate(194.709782 16.318125)scale(0.12 -0.12)">
<use xlink:href="#DejaVuSans-41"/>
</g>
<!-- Handmaid's -->
<g transform="translate(194.709782 29.7555)scale(0.12 -0.12)">
<use xlink:href="#DejaVuSans-48"/>
<use x="75.195312" xlink:href="#DejaVuSans-61"/>
<use x="136.474609" xlink:href="#DejaVuSans-6e"/>
<use x="199.853516" xlink:href="#DejaVuSans-64"/>
<use x="263.330078" xlink:href="#DejaVuSans-6d"/>
<use x="360.742188" xlink:href="#DejaVuSans-61"/>
<use x="422.021484" xlink:href="#DejaVuSans-69"/>
<use x="449.804688" xlink:href="#DejaVuSans-64"/>
<use x="513.28125" xlink:href="#DejaVuSans-27"/>
<use x="540.771484" xlink:href="#DejaVuSans-73"/>
</g>
<!-- Tale -->
<g transform="translate(194.709782 43.192875)scale(0.12 -0.12)">
<use xlink:href="#DejaVuSans-54"/>
<use x="44.583984" xlink:href="#DejaVuSans-61"/>
<use x="105.863281" xlink:href="#DejaVuSans-6c"/>
<use x="133.646484" xlink:href="#DejaVuSans-65"/>
</g>
</g>
<g id="text_9">
<!-- Brave -->
<g transform="translate(115.173953 244.432988)scale(0.12 -0.12)">
<use xlink:href="#DejaVuSans-42"/>
<use x="68.603516" xlink:href="#DejaVuSans-72"/>
<use x="109.716797" xlink:href="#DejaVuSans-61"/>
<use x="170.996094" xlink:href="#DejaVuSans-76"/>
<use x="230.175781" xlink:href="#DejaVuSans-65"/>
</g>
<!-- New World -->
<g transform="translate(100.488953 257.870363)scale(0.12 -0.12)">
<use xlink:href="#DejaVuSans-4e"/>
<use x="74.804688" xlink:href="#DejaVuSans-65"/>
<use x="136.328125" xlink:href="#DejaVuSans-77"/>
<use x="218.115234" xlink:href="#DejaVuSans-20"/>
<use x="249.902344" xlink:href="#DejaVuSans-57"/>
<use x="342.904297" xlink:href="#DejaVuSans-6f"/>
<use x="404.085938" xlink:href="#DejaVuSans-72"/>
<use x="445.199219" xlink:href="#DejaVuSans-6c"/>
<use x="472.982422" xlink:href="#DejaVuSans-64"/>
</g>
</g>
</g>
</g>
<defs>
<clipPath id="p9a633ec0a7">
<rect height="217.44" width="224.867966" x="20.243096" y="27.102753"/>
</clipPath>
</defs>
</svg>