<?xml version="1.0" encoding="utf-8"?>
<svg version="1.1" viewBox="0 0 2420 1250" xmlns="http://www.w3.org/2000/svg" xmlns:cc="http://creativecommons.org/ns#" xmlns:dc="http://purl.org/dc/elements/1.1/" xmlns:rdf="http://www.w3.org/1999/02/22-rdf-syntax-ns#">
<title>Jungian Influences</title>
<metadata>
<rdf:RDF>
<cc:Work rdf:about="">
<dc:format>image/svg+xml</dc:format>
<dc:type rdf:resource="http://purl.org/dc/dcmitype/StillImage"/>
<dc:title>Jungian Influences</dc:title>
</cc:Work>
</rdf:RDF>
</metadata>
<path d="m10 1240v-1230h2400v1230" fill="#fff" fill-opacity="null" stroke="transparent" stroke-linecap="null" stroke-linejoin="null" stroke-opacity="null" stroke-width="null"/>
<ellipse cx="1885.8" cy="867" fill="none" rx="45" ry="18" stroke="#000"/>
<text font-family="'Times New Roman', serif" font-size="14px" text-anchor="middle" x="1885.85" y="870.70001">Carl Jung</text>
<ellipse cx="2087.9" cy="613" fill="none" rx="75.5" ry="18" stroke="#000"/>
<text font-family="'Times New Roman', serif" font-size="14px" text-anchor="middle" x="2087.8501" y="616.70001">Gaston Bachelard</text>
<g stroke="#000">
<path d="m1887.9 849c3.43-42.17 18-148.03 78.96-204 11.46-10.53 26-17.66 40.97-22.48" fill="none"/>
<polygon points="2017.7 619.68 2009 625.81 2007.1 619.08"/>
<ellipse cx="2087.9" cy="705" fill="none" rx="73.5" ry="18"/>
</g>
<text font-family="'Times New Roman', serif" font-size="14px" text-anchor="middle" x="2087.8501" y="708.70001">Joseph Campbell</text>
<g stroke="#000">
<path d="m1892.3 848.92c9.88-29.36 33.54-87.12 74.53-116.92 11.99-8.72 26.32-14.7 40.82-18.78" fill="none"/>
<polygon points="2017.7 710.69 2008.9 716.53 2007.2 709.74"/>
<ellipse cx="2325.4" cy="539" fill="none" rx="51.5" ry="18"/>
</g>
<text font-family="'Times New Roman', serif" font-size="14px" text-anchor="middle" x="2325.4399" y="542.70001">Alan Watts</text>
<g stroke="#000">
<path d="m1888.7 848.98c5.06-38.24 22.51-127.55 78.11-170.98 85.8-67.02 154.47 26.75 242-38 29.4-21.75 8.56-49.81 36-74 7.23-6.37 16.02-11.26 25.1-14.99" fill="none"/>
<polygon points="2279.4 547.52 2271.3 554.25 2268.9 547.68"/>
<ellipse cx="2087.9" cy="759" fill="none" rx="61.99" ry="18"/>
</g>
<text font-family="'Times New Roman', serif" font-size="14px" text-anchor="middle" x="2087.8501" y="762.70001">Philip K. Dick</text>
<g stroke="#000">
<path d="m1899.2 849.57c14.17-18.67 39.16-47.75 67.68-63.57 16.07-8.91 34.89-14.89 52.81-18.89" fill="none"/>
<polygon points="2029.5 765.09 2020.4 770.53 2019 763.68"/>
<ellipse cx="2087.9" cy="813" fill="none" rx="67.69" ry="18"/>
</g>
<text font-family="'Times New Roman', serif" font-size="14px" text-anchor="middle" x="2087.8501" y="816.70001">Hermann Hesse</text>
<g stroke="#000">
<path d="m1919.7 855.05c14.37-5 31.49-10.66 47.16-15.05 18.21-5.11 38.19-9.91 56.53-14.02" fill="none"/>
<polygon points="2033.4 823.78 2024.4 829.35 2022.9 822.51"/>
<ellipse cx="2087.9" cy="867" fill="none" rx="62.5" ry="18"/>
</g>
<text font-family="'Times New Roman', serif" font-size="14px" text-anchor="middle" x="2087.8501" y="870.70001">James Hillman</text>
<g stroke="#000">
<path d="m1931.2 867h83.76" fill="none"/>
<polygon points="2025.1 867 2015.1 870.5 2015.1 863.5"/>
<ellipse cx="2087.9" cy="921" fill="none" rx="77.5" ry="18"/>
</g>
<text font-family="'Times New Roman', serif" font-size="14px" text-anchor="middle" x="2087.8501" y="924.70001">Terence McKenna</text>
<g stroke="#000">
<path d="m1919.7 878.95c14.37 5 31.49 10.66 47.16 15.05 16.75 4.7 35 9.14 52.1 13.02" fill="none"/>
<polygon points="2028.9 909.23 2018.3 910.47 2019.9 903.64"/>
<ellipse cx="2087.9" cy="1013" fill="none" rx="121" ry="18"/>
</g>
<text font-family="'Times New Roman', serif" font-size="14px" text-anchor="middle" x="2087.8501" y="1016.7">Erich Neumann (psychologist)</text>
<g stroke="#000">
<path d="m1894.6 885.01c11.82 25.35 36.79 71.21 72.28 95.99 8.86 6.19 18.86 11.19 29.2 15.21" fill="none"/>
<polygon points="2005.6 999.65 1995 999.57 1997.4 992.98"/>
<ellipse cx="2325.4" cy="971" fill="none" rx="69.59" ry="18"/>
</g>
<text font-family="'Times New Roman', serif" font-size="14px" text-anchor="middle" x="2325.4399" y="974.70001">Jordan Peterson</text>
<g stroke="#000">
<path d="m1898.2 884.6c13.68 19.41 38.57 49.7 68.61 63.4 92.44 42.16 212.47 39.89 287.26 32.72" fill="none"/>
<polygon points="2264.4 979.68 2254.8 984.17 2254.1 977.21"/>
<ellipse cx="2087.9" cy="1067" fill="none" rx="60" ry="18"/>
</g>
<text font-family="'Times New Roman', serif" font-size="14px" text-anchor="middle" x="2087.8501" y="1070.7">Ross Nichols</text>
<g stroke="#000">
<path d="m1889.8 885.15c6.8 35.55 26.97 114.41 77.04 154.85 14.5 11.72 33.08 18.58 51.25 22.54" fill="none"/>
<polygon points="2028.1 1064.5 2017.6 1066 2019 1059.1"/>
<ellipse cx="2087.9" cy="1121" fill="none" rx="89.08" ry="18"/>
</g>
<text font-family="'Times New Roman', serif" font-size="14px" text-anchor="middle" x="2087.8501" y="1124.7">Robert Anton Wilson</text>
<g stroke="#000">
<path d="m1887.6 885.23c2.78 43.24 16.02 152.55 79.27 208.77 8.24 7.33 18.05 12.8 28.45 16.87" fill="none"/>
<polygon points="2005 1114.2 1994.4 1114.3 1996.7 1107.6"/>
<path d="m2156.9 698.83c18.73-4.66 37.76-12.55 51.92-25.83 36.59-34.33 0.56-71.48 36-107 6.8-6.82 15.4-11.92 24.4-15.74" fill="none"/>
<polygon points="2278.7 546.74 2270.6 553.51 2268.1 546.95"/>
<ellipse cx="2325.4" cy="863" fill="none" rx="61.99" ry="18"/>
</g>
<text font-family="'Times New Roman', serif" font-size="14px" text-anchor="middle" x="2325.4399" y="866.70001">George Lucas</text>
<g stroke="#000">
<path d="m2159.8 708.85c17.71 4.01 35.48 11.05 49.02 23.15 36.46 32.6 1.3 69.52 36 104 5.33 5.3 11.75 9.57 18.59 12.99" fill="none"/>
<polygon points="2273 853.16 2262.4 852.36 2265.2 845.95"/>
<ellipse cx="2325.4" cy="917" fill="none" rx="59.29" ry="18"/>
</g>
<text font-family="'Times New Roman', serif" font-size="14px" text-anchor="middle" x="2325.4399" y="920.70001">Jim Morrison</text>
<g stroke="#000">
<path d="m2160.7 707.89c17.71 4.01 35.25 11.29 48.11 24.11 50.99 50.86-12.24 104.52 36 158 5.36 5.94 12.07 10.58 19.32 14.19" fill="none"/>
<polygon points="2273.6 908.25 2263 907.5 2265.8 901.07"/>
<ellipse cx="2325.4" cy="593" fill="none" rx="80.69" ry="18"/>
</g>
<text font-family="'Times New Roman', serif" font-size="14px" text-anchor="middle" x="2325.4399" y="596.70001">Christopher Vogler</text>
<g stroke="#000">
<path d="m2153.3 696.64c19.14-4.71 39.31-12.09 55.58-23.64 23.21-16.48 13.34-35.75 36-53 4.76-3.62 10.03-6.78 15.54-9.52" fill="none"/>
<polygon points="2269.8 606.24 2262.1 613.53 2259.3 607.14"/>
<ellipse cx="2325.4" cy="647" fill="none" rx="57.39" ry="18"/>
</g>
<text font-family="'Times New Roman', serif" font-size="14px" text-anchor="middle" x="2325.4399" y="650.70001">Dan Harmon</text>
<g stroke="#000">
<path d="m2140.3 692.34c38.28-9.42 90.44-22.26 129.49-31.88" fill="none"/>
<polygon points="2279.9 657.97 2271 663.76 2269.3 656.96"/>
<ellipse cx="2325.4" cy="701" fill="none" rx="52" ry="18"/>
</g>
<text font-family="'Times New Roman', serif" font-size="14px" text-anchor="middle" x="2325.4399" y="704.70001">Senses Fail</text>
<g stroke="#000">
<path d="m2161.4 703.77c32.56-0.56 70.54-1.2 101.64-1.73" fill="none"/>
<polygon points="2273.4 701.87 2263.4 705.54 2263.3 698.54"/>
<ellipse cx="2325.4" cy="755" fill="none" rx="71.5" ry="18"/>
</g>
<text font-family="'Times New Roman', serif" font-size="14px" text-anchor="middle" x="2325.4399" y="758.70001">Chuck Palahniuk</text>
<g stroke="#000">
<path d="m2144.1 716.72c34.69 7.36 79.56 16.89 115.88 24.59" fill="none"/>
<polygon points="2270 743.44 2259.4 744.78 2260.9 737.94"/>
<ellipse cx="2325.4" cy="809" fill="none" rx="54" ry="18"/>
</g>
<text font-family="'Times New Roman', serif" font-size="14px" text-anchor="middle" x="2325.4399" y="812.70001">Dave Carter</text>
<g stroke="#000">
<path d="m2156.7 711.44c18 3.99 36.7 10.37 52.11 20.56 22.84 15.1 13.98 33.71 36 50 7.66 5.67 16.59 10.2 25.65 13.81" fill="none"/>
<polygon points="2279.9 799.24 2269.3 799.11 2271.7 792.53"/>
<path d="m2166 999.25c29.65-5.29 63.22-11.27 91.8-16.37" fill="none"/>
<polygon points="2267.7 981.12 2258.4 986.32 2257.2 979.43"/>
<ellipse cx="2325.4" cy="1025" fill="none" rx="61.99" ry="18"/>
</g>
<text font-family="'Times New Roman', serif" font-size="14px" text-anchor="middle" x="2325.4399" y="1028.7">Camille Paglia</text>
<g stroke="#000">
<path d="m2202.5 1018.8c17.74 0.9 35.6 1.81 51.97 2.65" fill="none"/>
<polygon points="2264.5 1021.9 2254.3 1024.9 2254.6 1017.9"/>
<ellipse cx="1685.8" cy="483" fill="none" rx="60.5" ry="18"/>
</g>
<text font-family="'Times New Roman', serif" font-size="14px" text-anchor="middle" x="1685.85" y="486.70001">Eugen Bleuler</text>
<g stroke="#000">
<path d="m1732.4 494.62c24.86 8.6 54.2 22.83 72.45 45.38 73.01 90.22 80.88 237.23 80.75 298.64" fill="none"/>
<polygon points="1885.5 848.75 1882.1 838.71 1889.1 838.78"/>
<ellipse cx="1447.6" cy="459" fill="none" rx="61.99" ry="18"/>
</g>
<text font-family="'Times New Roman', serif" font-size="14px" text-anchor="middle" x="1447.65" y="462.70001">Auguste Forel</text>
<g stroke="#000">
<path d="m1506.1 464.84c33.8 3.44 76.7 7.79 111.99 11.38" fill="none"/>
<polygon points="1628.3 477.26 1618 479.73 1618.7 472.77"/>
<ellipse cx="1447.6" cy="513" fill="none" rx="67" ry="18"/>
</g>
<text font-family="'Times New Roman', serif" font-size="14px" text-anchor="middle" x="1447.65" y="516.70001">Sigmund Freud</text>
<g stroke="#000">
<path d="m1509.7 520.02c78.47 12.16 214.25 44.24 295.18 125.98 53.53 54.07 71.52 146.63 77.34 192.92" fill="none"/>
<polygon points="1883.3 848.85 1878.7 839.32 1885.7 838.52"/>
<path d="m1508.6 505.39c33.96-4.31 76.47-9.71 111.24-14.13" fill="none"/>
<polygon points="1629.9 489.98 1620.4 494.72 1619.5 487.77"/>
<ellipse cx="1192.5" cy="270" fill="none" rx="66.5" ry="18"/>
</g>
<text font-family="'Times New Roman', serif" font-size="14px" text-anchor="middle" x="1192.46" y="273.70001">Franz Brentano</text>
<g stroke="#000">
<path d="m1258.8 268.29c24.89 2.77 51.6 10.46 69.68 28.71 60.19 60.74-20.44 124.76 36 189 4.66 5.31 10.39 9.58 16.62 13.01" fill="none"/>
<polygon points="1390.5 503.46 1380 502.36 1383 496.03"/>
<ellipse cx="1192.5" cy="378" fill="none" rx="56" ry="18"/>
</g>
<text font-family="'Times New Roman', serif" font-size="14px" text-anchor="middle" x="1192.46" y="381.70001">Josef Breuer</text>
<g stroke="#000">
<path d="m1248.6 377.62c26.61 2.46 57.51 9.53 79.81 27.38 30.76 24.62 6.77 54.58 36 81 5.52 4.99 11.97 9.05 18.8 12.37" fill="none"/>
<polygon points="1392.7 502.44 1382.2 501.71 1384.9 495.28"/>
<ellipse cx="1192.5" cy="432" fill="none" rx="84.5" ry="18"/>
</g>
<text font-family="'Times New Roman', serif" font-size="14px" text-anchor="middle" x="1192.46" y="435.70001">Jean-Martin Charcot</text>
<g stroke="#000">
<path d="m1267.1 440.6c20.45 4.01 42.26 9.86 61.35 18.4 18.26 8.16 18.26 17.76 36 27 8.02 4.18 16.82 7.89 25.58 11.11" fill="none"/>
<polygon points="1399.5 500.42 1388.9 500.42 1391.2 493.82"/>
<ellipse cx="1192.5" cy="324" fill="none" rx="66.5" ry="18"/>
</g>
<text font-family="'Times New Roman', serif" font-size="14px" text-anchor="middle" x="1192.46" y="327.70001">Charles Darwin</text>
<g stroke="#000">
<path d="m1259.2 323.09c24.5 2.96 50.82 10.57 69.29 27.91 45.27 42.5-6.64 89.86 36 135 5.04 5.33 11.14 9.61 17.72 13.04" fill="none"/>
<polygon points="1391.4 503.22 1380.8 502.28 1383.7 495.9"/>
<ellipse cx="917.77" cy="232" fill="none" rx="58" ry="18"/>
</g>
<text font-family="'Times New Roman', serif" font-size="14px" text-anchor="middle" x="917.77002" y="235.70001">Charles Lyell</text>
<g stroke="#000">
<path d="m946.68 247.66c27.24 14.68 70.25 36.27 109.78 49.34 21.35 7.06 45.25 12.58 66.93 16.73" fill="none"/>
<polygon points="1133.5 315.6 1123 317.23 1124.3 310.34"/>
<ellipse cx="379.58" cy="178" fill="none" rx="60" ry="18"/>
</g>
<text font-family="'Times New Roman', serif" font-size="14px" text-anchor="middle" x="379.57999" y="181.69995">James Hutton</text>
<g stroke="#000">
<path d="m398.93 195.4c22.33 19.86 62.14 51.18 103.15 63.6 126.15 38.19 283.43 8.13 363.18-12.23" fill="none"/>
<polygon points="875.05 244.22 866.26 250.13 864.49 243.35"/>
<ellipse cx="640.58" cy="124" fill="none" rx="58" ry="18"/>
</g>
<text font-family="'Times New Roman', serif" font-size="14px" text-anchor="middle" x="640.58002" y="127.69995">John Playfair</text>
<g stroke="#000">
<path d="m427.83 167.2c22.47-5.05 49.71-11.08 74.25-16.21 25.84-5.41 54.49-11.08 78.92-15.83" fill="none"/>
<polygon points="590.84 133.3 581.69 138.6 580.35 131.7"/>
<path d="m695.3 130.2c25.9 4.08 57.05 10.6 83.78 20.75 39.07 14.83 79.85 40.27 106.79 58.69" fill="none"/>
<polygon points="894.12 215.4 883.9 212.6 887.89 206.8"/>
<ellipse cx="135.54" cy="178" fill="none" rx="121.58" ry="18"/>
</g>
<text font-family="'Times New Roman', serif" font-size="14px" text-anchor="middle" x="135.54001" y="181.69995">John Walker (natural historian)</text>
<g stroke="#000">
<path d="m257.2 178h51.83" fill="none"/>
<polygon points="319.48 178 309.48 181.5 309.48 174.5"/>
<ellipse cx="640.58" cy="178" fill="none" rx="93" ry="18"/>
</g>
<text font-family="'Times New Roman', serif" font-size="14px" text-anchor="middle" x="640.58002" y="181.69995">Jean-Baptiste Lamarck</text>
<g stroke="#000">
<path d="m706.45 190.7c45.99 9.02 107.2 21.04 151.72 29.77" fill="none"/>
<polygon points="868.26 222.5 857.77 224 859.12 217.1"/>
<ellipse cx="640.58" cy="232" fill="none" rx="74.99" ry="18"/>
</g>
<text font-family="'Times New Roman', serif" font-size="14px" text-anchor="middle" x="640.58002" y="235.70001">William Buckland</text>
<g stroke="#000">
<path d="m715.32 232h134.02" fill="none"/>
<polygon points="859.4 232 849.4 235.5 849.4 228.5"/>
<ellipse cx="917.77" cy="324" fill="none" rx="102.88" ry="18"/>
</g>
<text font-family="'Times New Roman', serif" font-size="14px" text-anchor="middle" x="917.77002" y="327.70001">Alexander von Humboldt</text>
<g stroke="#000">
<path d="m1020.7 324h94.73" fill="none"/>
<polygon points="1125.6 324 1115.6 327.5 1115.6 320.5"/>
<ellipse cx="640.58" cy="324" fill="none" rx="138.5" ry="18"/>
</g>
<text font-family="'Times New Roman', serif" font-size="14px" text-anchor="middle" x="640.58002" y="327.70001">Friedrich Wilhelm Joseph Schelling</text>
<g stroke="#000">
<path d="m779.17 324h25.38" fill="none"/>
<polygon points="814.69 324 804.69 327.5 804.69 320.5"/>
<ellipse cx="917.77" cy="378" fill="none" rx="61.99" ry="18"/>
</g>
<text font-family="'Times New Roman', serif" font-size="14px" text-anchor="middle" x="917.77002" y="381.70001">John Herschel</text>
<g stroke="#000">
<path d="m969.42 367.97c44.87-8.88 110.55-21.89 158.84-31.45" fill="none"/>
<polygon points="1138.3 334.53 1129.2 339.91 1127.8 333.04"/>
<ellipse cx="640.58" cy="432" fill="none" rx="72.29" ry="18"/>
</g>
<text font-family="'Times New Roman', serif" font-size="14px" text-anchor="middle" x="640.58002" y="435.70001">William Herschel</text>
<g stroke="#000">
<path d="m697.93 420.94c46-9.02 110.88-21.75 158.04-31.01" fill="none"/>
<polygon points="866.05 387.95 856.91 393.31 855.57 386.44"/>
<ellipse cx="640.58" cy="378" fill="none" rx="75.5" ry="18"/>
</g>
<text font-family="'Times New Roman', serif" font-size="14px" text-anchor="middle" x="640.58002" y="381.70001">Caroline Herschel</text>
<g stroke="#000">
<path d="m716.41 378h129.32" fill="none"/>
<polygon points="855.86 378 845.86 381.5 845.86 374.5"/>
<ellipse cx="917.77" cy="486" fill="none" rx="99.5" ry="18"/>
</g>
<text font-family="'Times New Roman', serif" font-size="14px" text-anchor="middle" x="917.77002" y="489.70001">Thomas Robert Malthus</text>
<g stroke="#000">
<path d="m944.85 468.66c21.73-15.2 52.7-38.73 75.61-63.66 19.52-21.24 12.03-37.95 36-54 17.58-11.77 39.14-18.63 59.83-22.57" fill="none"/>
<polygon points="1126.4 326.73 1117.1 331.85 1115.9 324.95"/>
<ellipse cx="640.58" cy="567" fill="none" rx="63.89" ry="18"/>
</g>
<text font-family="'Times New Roman', serif" font-size="14px" text-anchor="middle" x="640.58002" y="570.70001">David Ricardo</text>
<g stroke="#000">
<path d="m685.49 554.08c45.76-13.47 117.85-34.69 169.38-49.86" fill="none"/>
<polygon points="864.56 501.37 855.96 507.55 853.98 500.83"/>
<ellipse cx="379.58" cy="567" fill="none" rx="56" ry="18"/>
</g>
<text font-family="'Times New Roman', serif" font-size="14px" text-anchor="middle" x="379.57999" y="570.70001">Adam Smith</text>
<g stroke="#000">
<path d="m435.82 567h130.81" fill="none"/>
<polygon points="576.68 567 566.68 570.5 566.68 563.5"/>
<ellipse cx="640.58" cy="486" fill="none" rx="136.5" ry="18"/>
</g>
<text font-family="'Times New Roman', serif" font-size="14px" text-anchor="middle" x="640.58002" y="489.70001">Jean Charles Léonard de Sismondi</text>
<g stroke="#000">
<path d="m420.48 554.52c41.68-13.04 107.66-33.67 156.33-48.89" fill="none"/>
<polygon points="586.61 502.56 578.11 508.89 576.02 502.21"/>
<path d="m777.16 486h30.94" fill="none"/>
<polygon points="818.19 486 808.19 489.5 808.19 482.5"/>
<ellipse cx="379.58" cy="621" fill="none" rx="70.39" ry="18"/>
</g>
<text font-family="'Times New Roman', serif" font-size="14px" text-anchor="middle" x="379.57999" y="624.70001">Jeremy Bentham</text>
<g stroke="#000">
<path d="m434.56 609.75c42.09-8.78 100.53-20.96 144.25-30.08" fill="none"/>
<polygon points="588.75 577.6 579.67 583.06 578.25 576.21"/>
<ellipse cx="379.58" cy="405" fill="none" rx="69.59" ry="18"/>
</g>
<text font-family="'Times New Roman', serif" font-size="14px" text-anchor="middle" x="379.57999" y="408.70001">Adam Ferguson</text>
<g stroke="#000">
<path d="m430.09 417.52c12.1 3.9 24.77 8.72 35.99 14.48 17.79 9.14 17.73 18.87 36 27 10.31 4.59 21.41 8.4 32.66 11.57" fill="none"/>
<polygon points="544.65 473.19 534.09 474.02 535.88 467.25"/>
<ellipse cx="379.58" cy="459" fill="none" rx="86.5" ry="18"/>
</g>
<text font-family="'Times New Roman', serif" font-size="14px" text-anchor="middle" x="379.57999" y="462.70001">Jean-Louis de Lolme</text>
<g stroke="#000">
<path d="m457.24 466.99c20.56 2.15 43.28 4.51 65.49 6.83" fill="none"/>
<polygon points="532.89 474.88 522.58 477.32 523.31 470.36"/>
<ellipse cx="379.58" cy="513" fill="none" rx="82.59" ry="18"/>
</g>
<text font-family="'Times New Roman', serif" font-size="14px" text-anchor="middle" x="379.57999" y="516.70001">Niccolò Machiavelli</text>
<g stroke="#000">
<path d="m454.45 505.3c21.23-2.21 44.92-4.68 68.08-7.1" fill="none"/>
<polygon points="532.76 497.13 523.18 501.65 522.46 494.69"/>
<ellipse cx="379.58" cy="351" fill="none" rx="58" ry="18"/>
</g>
<text font-family="'Times New Roman', serif" font-size="14px" text-anchor="middle" x="379.57999" y="354.70001">Montesquieu</text>
<g stroke="#000">
<path d="m431.3 359.39c12.47 4 25.03 9.9 34.78 18.61 29.38 26.25 5.2 56.44 36 81 5.88 4.69 12.35 8.65 19.18 11.97" fill="none"/>
<polygon points="530.77 475.12 520.21 474.33 523.01 467.91"/>
<ellipse cx="917.77" cy="78" fill="none" rx="60" ry="18"/>
</g>
<text font-family="'Times New Roman', serif" font-size="14px" text-anchor="middle" x="917.77002" y="81.69995">Gilbert White</text>
<g stroke="#000">
<path d="m935.44 95.2c21.85 23.33 60.28 66.96 85.02 109.76 21.97 38.01 2.35 63.79 36 92 16.53 13.85 38.17 21.29 59.27 25.12" fill="none"/>
<polygon points="1125.7 323.68 1115.3 325.59 1116.4 318.68"/>
<ellipse cx="379.58" cy="55" fill="none" rx="45" ry="18"/>
</g>
<text font-family="'Times New Roman', serif" font-size="14px" text-anchor="middle" x="379.57999" y="58.69995">John Ray</text>
<g stroke="#000">
<path d="m424.46 56.9c93.25 4 311.78 13.38 423.66 18.18" fill="none"/>
<polygon points="858.28 75.5 848.14 78.6 848.44 71.6"/>
<ellipse cx="640.58" cy="32" fill="none" rx="69" ry="18"/>
</g>
<text font-family="'Times New Roman', serif" font-size="14px" text-anchor="middle" x="640.58002" y="35.69995">William Derham</text>
<g stroke="#000">
<path d="m423.64 51.2c38.38-3.41 95.4-8.48 141.21-12.54" fill="none"/>
<polygon points="575.04 37.7 565.39 42.1 564.77 35.1"/>
<path d="m699.27 41.6c45.52 7.61 108.89 18.2 155.49 25.99" fill="none"/>
<polygon points="864.73 69.3 854.29 71.1 855.45 64.2"/>
<ellipse cx="1192.5" cy="594" fill="none" rx="68.49" ry="18"/>
</g>
<text font-family="'Times New Roman', serif" font-size="14px" text-anchor="middle" x="1192.46" y="597.70001">Gustav Fechner</text>
<g stroke="#000">
<path d="m1252.4 585.27c23.93-4.33 51.65-10.36 76.1-18.27 27.04-8.75 56.1-21.97 78.63-33.14" fill="none"/>
<polygon points="1416.3 529.22 1409 536.84 1405.8 530.58"/>
<ellipse cx="917.77" cy="698" fill="none" rx="65.79" ry="18"/>
</g>
<text font-family="'Times New Roman', serif" font-size="14px" text-anchor="middle" x="917.77002" y="701.70001">Immanuel Kant</text>
<g stroke="#000">
<path d="m939.03 715.25c25.49 20.5 71.49 53.71 117.43 67.75 159.18 48.64 590.23-21.87 748.39 30 19.69 6.46 39.04 19.29 53.77 30.82" fill="none"/>
<polygon points="1866.7 850.4 1856.8 846.82 1861.2 841.38"/>
<path d="m943.01 681.34c26.66-17.56 71.31-44.78 113.45-60.34 20.42-7.54 43.4-13.13 64.53-17.21" fill="none"/>
<polygon points="1130.9 601.97 1121.7 607.23 1120.4 600.34"/>
<ellipse cx="1192.5" cy="486" fill="none" rx="63.89" ry="18"/>
</g>
<text font-family="'Times New Roman', serif" font-size="14px" text-anchor="middle" x="1192.46" y="489.70001">Wilhelm Fliess</text>
<g stroke="#000">
<path d="m1252.2 492.26c36.61 3.91 83.98 8.96 122.79 13.1" fill="none"/>
<polygon points="1385.2 506.44 1374.8 508.86 1375.6 501.9"/>
<ellipse cx="1192.5" cy="648" fill="none" rx="136" ry="18"/>
</g>
<text font-family="'Times New Roman', serif" font-size="14px" text-anchor="middle" x="1192.46" y="651.70001">Karl Robert Eduard von Hartmann</text>
<g stroke="#000">
<path d="m1328.7 648.04c156.15 2.52 401.15 14.85 476.14 65.96 43.17 29.42 64.63 89.7 73.94 125.18" fill="none"/>
<polygon points="1881.2 848.91 1875.4 840.05 1882.2 838.37"/>
<path d="m1290 635.39c13.3-3.65 26.48-8.34 38.42-14.39 39.83-20.17 76.2-57.55 97.78-82.6" fill="none"/>
<polygon points="1432.7 530.74 1428.9 540.64 1423.6 536.12"/>
<ellipse cx="1192.5" cy="540" fill="none" rx="100.98" ry="18"/>
</g>
<text font-family="'Times New Roman', serif" font-size="14px" text-anchor="middle" x="1192.46" y="543.70001">Johann Friedrich Herbart</text>
<g stroke="#000">
<path d="m1279.5 530.82c31.04-3.31 65.7-7 95.38-10.17" fill="none"/>
<polygon points="1385.2 519.55 1375.6 524.1 1374.9 517.13"/>
<ellipse cx="1192.5" cy="702" fill="none" rx="81.49" ry="18"/>
</g>
<text font-family="'Times New Roman', serif" font-size="14px" text-anchor="middle" x="1192.46" y="705.70001">Friedrich Nietzsche</text>
<g stroke="#000">
<path d="m1273.2 699.88c144.63-2.48 443.31-0.98 531.6 50.12 34.52 19.98 57.39 61.57 69.53 89.39" fill="none"/>
<polygon points="1878.4 848.95 1871.3 841.07 1877.8 838.37"/>
<path d="m1270.4 696.67c20.04-3.99 40.81-10.66 58.03-21.67 51.96-33.23 88.61-98.06 106.25-134.83" fill="none"/>
<polygon points="1439 531.03 1437.9 541.57 1431.6 538.61"/>
<ellipse cx="1192.5" cy="162" fill="none" rx="29.5" ry="18"/>
</g>
<text font-family="'Times New Roman', serif" font-size="14px" text-anchor="middle" x="1192.46" y="165.69995">Plato</text>
<g stroke="#000">
<path d="m1221.5 158.9c30.94-1.73 79.91 0.91 106.95 30.11 90.34 97.56-48.33 194.2 36 297 4.42 5.38 9.93 9.7 15.99 13.17" fill="none"/>
<polygon points="1389.7 503.65 1379.2 502.42 1382.2 496.13"/>
<ellipse cx="1192.5" cy="756" fill="none" rx="88.5" ry="18"/>
</g>
<text font-family="'Times New Roman', serif" font-size="14px" text-anchor="middle" x="1192.46" y="759.70001">Arthur Schopenhauer</text>
<g stroke="#000">
<path d="m1278.2 751.42c145.37-6.55 435.52-13.59 526.69 28.58 27.74 12.83 50.28 40.19 64.28 60.82" fill="none"/>
<polygon points="1874.8 849.47 1866.4 843.01 1872.2 839.18"/>
<path d="m1277.4 750.84c18.09-4.16 36.21-10.94 51.04-21.84 64.69-47.54 98.07-141.57 111.27-188.3" fill="none"/>
<polygon points="1442.4 530.95 1443.1 541.52 1436.4 539.68"/>
<ellipse cx="1192.5" cy="216" fill="none" rx="86" ry="18"/>
</g>
<text font-family="'Times New Roman', serif" font-size="14px" text-anchor="middle" x="1192.46" y="219.70001">William Shakespeare</text>
<g stroke="#000">
<path d="m1278.5 217.1c18.69 4.22 36.81 12.05 49.99 25.91 75.23 79.12-34.35 159.51 36 243 4.55 5.4 10.21 9.73 16.4 13.2" fill="none"/>
<polygon points="1390.3 503.68 1379.7 502.54 1382.8 496.22"/>
<ellipse cx="1447.6" cy="405" fill="none" rx="83.39" ry="18"/>
</g>
<text font-family="'Times New Roman', serif" font-size="14px" text-anchor="middle" x="1447.65" y="408.70001">Gottlieb Burckhardt</text>
<g stroke="#000">
<path d="m1494.3 419.98c11.89 3.9 24.7 8.12 36.54 12.02 34.72 11.45 73.83 24.41 103.95 34.39" fill="none"/>
<polygon points="1644.6 469.66 1634 469.83 1636.3 463.19"/>
<ellipse cx="1685.8" cy="840" fill="none" rx="78" ry="18"/>
</g>
<text font-family="'Times New Roman', serif" font-size="14px" text-anchor="middle" x="1685.85" y="843.70001">Carl Gustav Carus</text>
<g stroke="#000">
<path d="m1753.3 849.07c25.95 3.53 55.25 7.53 79.61 10.85" fill="none"/>
<polygon points="1843 861.3 1832.7 863.42 1833.6 856.48"/>
<ellipse cx="1685.8" cy="894" fill="none" rx="82" ry="18"/>
</g>
<text font-family="'Times New Roman', serif" font-size="14px" text-anchor="middle" x="1685.85" y="897.70001">Théodore Flournoy</text>
<g stroke="#000">
<path d="m1755.8 884.59c25.28-3.44 53.44-7.28 76.99-10.49" fill="none"/>
<polygon points="1842.9 872.72 1833.5 877.53 1832.6 870.6"/>
<ellipse cx="1685.8" cy="948" fill="none" rx="119" ry="18"/>
</g>
<text font-family="'Times New Roman', serif" font-size="14px" text-anchor="middle" x="1685.85" y="951.70001">Johann Wolfgang von Goethe</text>
<g stroke="#000">
<path d="m1764.6 934.5c13.68-3.58 27.57-8.02 40.2-13.5 18.63-8.08 37.55-20.62 52.31-31.58" fill="none"/>
<polygon points="1865.3 883.2 1859.5 892.04 1855.3 886.47"/>
<ellipse cx="1685.8" cy="1002" fill="none" rx="44.39" ry="18"/>
</g>
<text font-family="'Times New Roman', serif" font-size="14px" text-anchor="middle" x="1685.85" y="1005.7">Heraclius</text>
<g stroke="#000">
<path d="m1729.8 999.43c23.72-3.12 52.8-9.88 75.05-24.43 30.82-20.16 54.05-56.51 67.32-81.43" fill="none"/>
<polygon points="1876.8 884.64 1875.3 895.13 1869.1 891.93"/>
<ellipse cx="1685.8" cy="1056" fill="none" rx="62.5" ry="18"/>
</g>
<text font-family="'Times New Roman', serif" font-size="14px" text-anchor="middle" x="1685.85" y="1059.7">William James</text>
<g stroke="#000">
<path d="m1747.4 1052.5c19.96-3.71 41.17-10.66 57.42-23.49 43.12-34.06 64.69-97.38 74.01-133.96" fill="none"/>
<polygon points="1881.3 885.05 1882.3 895.59 1875.5 893.95"/>
<ellipse cx="1685.8" cy="1110" fill="none" rx="52" ry="18"/>
</g>
<text font-family="'Times New Roman', serif" font-size="14px" text-anchor="middle" x="1685.85" y="1113.7">Pierre Janet</text>
<g stroke="#000">
<path d="m1738 1109c22.82-2.93 48.63-9.99 66.87-26 56.03-49.2 72.88-141.33 77.9-187.75" fill="none"/>
<polygon points="1883.7 885.28 1886.2 895.57 1879.3 894.9"/>
<ellipse cx="1685.8" cy="1164" fill="none" rx="67.69" ry="18"/>
</g>
<text font-family="'Times New Roman', serif" font-size="14px" text-anchor="middle" x="1685.85" y="1167.7">Meister Eckhart</text>
<g stroke="#000">
<path d="m1752.7 1161.2c18.83-3.81 38.03-11.02 52.13-24.25 69.17-64.94 79.44-186.58 80.36-241.64" fill="none"/>
<polygon points="1885.3 885.28 1888.7 895.3 1881.7 895.25"/>
<ellipse cx="1685.8" cy="1218" fill="none" rx="73" ry="18"/>
</g>
<text font-family="'Times New Roman', serif" font-size="14px" text-anchor="middle" x="1685.85" y="1221.7">Friedrich Schiller</text>
<path d="m1757.7 1214.6c17.31-4.02 34.47-11.19 47.14-23.64 42.44-41.72 68.28-225.16 76.83-295.97" fill="none" stroke="#000"/>
<polygon points="1882.9 885.05 1885.2 895.39 1878.2 894.57" stroke="#000"/>
</svg>