<?xml version="1.0" encoding="UTF-8" standalone="no"?>
<!DOCTYPE svg PUBLIC "-//W3C//DTD SVG 1.1//EN"
 "http://www.w3.org/Graphics/SVG/1.1/DTD/svg11.dtd">
<!-- Generated by graphviz version 2.46.0 (20210118.1747)
 -->
<!-- Pages: 1 -->
<svg width="936pt" height="836pt"
 viewBox="0.00 0.00 935.60 835.65" xmlns="http://www.w3.org/2000/svg" xmlns:xlink="http://www.w3.org/1999/xlink">
<g id="graph0" class="graph" transform="scale(1 1) rotate(0) translate(4 831.65)">
<polygon fill="white" stroke="transparent" points="-4,4 -4,-831.65 931.6,-831.65 931.6,4 -4,4"/>
<!-- Carl Jung -->
<g id="node1" class="node">
<title>Carl Jung</title>
<ellipse fill="none" stroke="black" cx="449.2" cy="-665.72" rx="45" ry="18"/>
<text text-anchor="middle" x="449.2" y="-662.02" font-family="Times New Roman,serif" font-size="14.00">Carl Jung</text>
</g>
<!-- Gaston Bachelard -->
<g id="node2" class="node">
<title>Gaston Bachelard</title>
<ellipse fill="none" stroke="black" cx="800.03" cy="-399.17" rx="75.5" ry="18"/>
<text text-anchor="middle" x="800.03" y="-395.47" font-family="Times New Roman,serif" font-size="14.00">Gaston Bachelard</text>
</g>
<!-- Carl Jung&#45;&gt;Gaston Bachelard -->
<g id="edge1" class="edge">
<title>Carl Jung&#45;&gt;Gaston Bachelard</title>
<path fill="none" stroke="black" d="M470.36,-649.64C529.86,-604.43 698.91,-476 769,-422.75"/>
<polygon fill="black" stroke="black" points="771.19,-425.48 777.04,-416.64 766.96,-419.9 771.19,-425.48"/>
</g>
<!-- Joseph Campbell -->
<g id="node3" class="node">
<title>Joseph Campbell</title>
<ellipse fill="none" stroke="black" cx="750.64" cy="-560.91" rx="73.5" ry="18"/>
<text text-anchor="middle" x="750.64" y="-557.21" font-family="Times New Roman,serif" font-size="14.00">Joseph Campbell</text>
</g>
<!-- Carl Jung&#45;&gt;Joseph Campbell -->
<g id="edge2" class="edge">
<title>Carl Jung&#45;&gt;Joseph Campbell</title>
<path fill="none" stroke="black" d="M483.19,-653.9C535.66,-635.65 636.76,-600.51 698.52,-579.04"/>
<polygon fill="black" stroke="black" points="699.78,-582.3 708.08,-575.71 697.48,-575.69 699.78,-582.3"/>
</g>
<!-- Alan Watts -->
<g id="node4" class="node">
<title>Alan Watts</title>
<ellipse fill="none" stroke="black" cx="632.84" cy="-682.26" rx="51.5" ry="18"/>
<text text-anchor="middle" x="632.84" y="-678.56" font-family="Times New Roman,serif" font-size="14.00">Alan Watts</text>
</g>
<!-- Carl Jung&#45;&gt;Alan Watts -->
<g id="edge3" class="edge">
<title>Carl Jung&#45;&gt;Alan Watts</title>
<path fill="none" stroke="black" d="M493.19,-669.68C516.98,-671.82 546.72,-674.5 572.63,-676.83"/>
<polygon fill="black" stroke="black" points="572.45,-680.33 582.73,-677.74 573.08,-673.36 572.45,-680.33"/>
</g>
<!-- Philip K. Dick -->
<g id="node5" class="node">
<title>Philip K. Dick</title>
<ellipse fill="none" stroke="black" cx="595.49" cy="-702.85" rx="61.99" ry="18"/>
<text text-anchor="middle" x="595.49" y="-699.15" font-family="Times New Roman,serif" font-size="14.00">Philip K. Dick</text>
</g>
<!-- Carl Jung&#45;&gt;Philip K. Dick -->
<g id="edge4" class="edge">
<title>Carl Jung&#45;&gt;Philip K. Dick</title>
<path fill="none" stroke="black" d="M487.25,-675.37C502.96,-679.36 521.51,-684.07 538.76,-688.45"/>
<polygon fill="black" stroke="black" points="538.19,-691.91 548.74,-690.98 539.91,-685.13 538.19,-691.91"/>
</g>
<!-- Hermann Hesse -->
<g id="node6" class="node">
<title>Hermann Hesse</title>
<ellipse fill="none" stroke="black" cx="555.96" cy="-718.88" rx="67.69" ry="18"/>
<text text-anchor="middle" x="555.96" y="-715.18" font-family="Times New Roman,serif" font-size="14.00">Hermann Hesse</text>
</g>
<!-- Carl Jung&#45;&gt;Hermann Hesse -->
<g id="edge5" class="edge">
<title>Carl Jung&#45;&gt;Hermann Hesse</title>
<path fill="none" stroke="black" d="M477.53,-679.82C488.85,-685.46 502.12,-692.07 514.49,-698.23"/>
<polygon fill="black" stroke="black" points="513.21,-701.5 523.72,-702.83 516.33,-695.23 513.21,-701.5"/>
</g>
<!-- James Hillman -->
<g id="node7" class="node">
<title>James Hillman</title>
<ellipse fill="none" stroke="black" cx="514.82" cy="-730.12" rx="62.5" ry="18"/>
<text text-anchor="middle" x="514.82" y="-726.42" font-family="Times New Roman,serif" font-size="14.00">James Hillman</text>
</g>
<!-- Carl Jung&#45;&gt;James Hillman -->
<g id="edge6" class="edge">
<title>Carl Jung&#45;&gt;James Hillman</title>
<path fill="none" stroke="black" d="M466.44,-682.64C473.5,-689.57 481.82,-697.73 489.55,-705.32"/>
<polygon fill="black" stroke="black" points="487.42,-708.13 497.01,-712.64 492.32,-703.14 487.42,-708.13"/>
</g>
<!-- Terence McKenna -->
<g id="node8" class="node">
<title>Terence McKenna</title>
<ellipse fill="none" stroke="black" cx="472.63" cy="-736.42" rx="77.5" ry="18"/>
<text text-anchor="middle" x="472.63" y="-732.72" font-family="Times New Roman,serif" font-size="14.00">Terence McKenna</text>
</g>
<!-- Carl Jung&#45;&gt;Terence McKenna -->
<g id="edge7" class="edge">
<title>Carl Jung&#45;&gt;Terence McKenna</title>
<path fill="none" stroke="black" d="M455.23,-683.92C457.7,-691.37 460.61,-700.16 463.34,-708.39"/>
<polygon fill="black" stroke="black" points="460.07,-709.64 466.54,-718.03 466.71,-707.43 460.07,-709.64"/>
</g>
<!-- Erich Neumann (psychologist) -->
<g id="node9" class="node">
<title>Erich Neumann (psychologist)</title>
<ellipse fill="none" stroke="black" cx="430" cy="-737.68" rx="121" ry="18"/>
<text text-anchor="middle" x="430" y="-733.98" font-family="Times New Roman,serif" font-size="14.00">Erich Neumann (psychologist)</text>
</g>
<!-- Carl Jung&#45;&gt;Erich Neumann (psychologist) -->
<g id="edge8" class="edge">
<title>Carl Jung&#45;&gt;Erich Neumann (psychologist)</title>
<path fill="none" stroke="black" d="M444.35,-683.88C442.28,-691.66 439.81,-700.93 437.5,-709.56"/>
<polygon fill="black" stroke="black" points="434.1,-708.71 434.91,-719.28 440.87,-710.52 434.1,-708.71"/>
</g>
<!-- Jordan Peterson -->
<g id="node10" class="node">
<title>Jordan Peterson</title>
<ellipse fill="none" stroke="black" cx="387.51" cy="-733.9" rx="69.59" ry="18"/>
<text text-anchor="middle" x="387.51" y="-730.2" font-family="Times New Roman,serif" font-size="14.00">Jordan Peterson</text>
</g>
<!-- Carl Jung&#45;&gt;Jordan Peterson -->
<g id="edge9" class="edge">
<title>Carl Jung&#45;&gt;Jordan Peterson</title>
<path fill="none" stroke="black" d="M433.63,-682.92C426.64,-690.65 418.24,-699.93 410.54,-708.45"/>
<polygon fill="black" stroke="black" points="407.83,-706.22 403.72,-715.98 413.03,-710.92 407.83,-706.22"/>
</g>
<!-- Ross Nichols -->
<g id="node11" class="node">
<title>Ross Nichols</title>
<ellipse fill="none" stroke="black" cx="345.77" cy="-725.11" rx="60" ry="18"/>
<text text-anchor="middle" x="345.77" y="-721.41" font-family="Times New Roman,serif" font-size="14.00">Ross Nichols</text>
</g>
<!-- Carl Jung&#45;&gt;Ross Nichols -->
<g id="edge10" class="edge">
<title>Carl Jung&#45;&gt;Ross Nichols</title>
<path fill="none" stroke="black" d="M423.37,-680.55C411.12,-687.59 396.26,-696.12 382.83,-703.83"/>
<polygon fill="black" stroke="black" points="380.74,-700.99 373.82,-709.01 384.23,-707.06 380.74,-700.99"/>
</g>
<!-- Robert Anton Wilson -->
<g id="node12" class="node">
<title>Robert Anton Wilson</title>
<ellipse fill="none" stroke="black" cx="305.37" cy="-711.45" rx="89.08" ry="18"/>
<text text-anchor="middle" x="305.37" y="-707.75" font-family="Times New Roman,serif" font-size="14.00">Robert Anton Wilson</text>
</g>
<!-- Carl Jung&#45;&gt;Robert Anton Wilson -->
<g id="edge11" class="edge">
<title>Carl Jung&#45;&gt;Robert Anton Wilson</title>
<path fill="none" stroke="black" d="M413.65,-677.02C398.42,-681.86 380.23,-687.64 363.16,-693.07"/>
<polygon fill="black" stroke="black" points="361.73,-689.85 353.26,-696.22 363.85,-696.53 361.73,-689.85"/>
</g>
<!-- Joseph Campbell&#45;&gt;Alan Watts -->
<g id="edge12" class="edge">
<title>Joseph Campbell&#45;&gt;Alan Watts</title>
<path fill="none" stroke="black" d="M733.51,-578.56C713.24,-599.44 679.38,-634.32 656.59,-657.79"/>
<polygon fill="black" stroke="black" points="654.06,-655.37 649.61,-664.98 659.09,-660.25 654.06,-655.37"/>
</g>
<!-- George Lucas -->
<g id="node13" class="node">
<title>George Lucas</title>
<ellipse fill="none" stroke="black" cx="865.85" cy="-454.26" rx="61.99" ry="18"/>
<text text-anchor="middle" x="865.85" y="-450.56" font-family="Times New Roman,serif" font-size="14.00">George Lucas</text>
</g>
<!-- Joseph Campbell&#45;&gt;George Lucas -->
<g id="edge13" class="edge">
<title>Joseph Campbell&#45;&gt;George Lucas</title>
<path fill="none" stroke="black" d="M769.67,-543.3C788.79,-525.6 818.42,-498.17 839.74,-478.43"/>
<polygon fill="black" stroke="black" points="842.22,-480.9 847.18,-471.54 837.47,-475.77 842.22,-480.9"/>
</g>
<!-- Jim Morrison -->
<g id="node14" class="node">
<title>Jim Morrison</title>
<ellipse fill="none" stroke="black" cx="853.83" cy="-504.01" rx="59.29" ry="18"/>
<text text-anchor="middle" x="853.83" y="-500.31" font-family="Times New Roman,serif" font-size="14.00">Jim Morrison</text>
</g>
<!-- Joseph Campbell&#45;&gt;Jim Morrison -->
<g id="edge14" class="edge">
<title>Joseph Campbell&#45;&gt;Jim Morrison</title>
<path fill="none" stroke="black" d="M780.49,-544.45C791.68,-538.28 804.55,-531.19 816.35,-524.68"/>
<polygon fill="black" stroke="black" points="818.05,-527.74 825.12,-519.84 814.67,-521.61 818.05,-527.74"/>
</g>
<!-- Christopher Vogler -->
<g id="node15" class="node">
<title>Christopher Vogler</title>
<ellipse fill="none" stroke="black" cx="836.01" cy="-551.99" rx="80.69" ry="18"/>
<text text-anchor="middle" x="836.01" y="-548.29" font-family="Times New Roman,serif" font-size="14.00">Christopher Vogler</text>
</g>
<!-- Joseph Campbell&#45;&gt;Christopher Vogler -->
<g id="edge15" class="edge">
<title>Joseph Campbell&#45;&gt;Christopher Vogler</title>
<path fill="none" stroke="black" d="M818.32,-553.84C818.4,-553.83 818.48,-553.82 818.56,-553.81"/>
<polygon fill="black" stroke="black" points="809.22,-558.31 818.8,-553.79 808.49,-551.35 809.22,-558.31"/>
</g>
<!-- Dan Harmon -->
<g id="node16" class="node">
<title>Dan Harmon</title>
<ellipse fill="none" stroke="black" cx="812.64" cy="-597.53" rx="57.39" ry="18"/>
<text text-anchor="middle" x="812.64" y="-593.83" font-family="Times New Roman,serif" font-size="14.00">Dan Harmon</text>
</g>
<!-- Joseph Campbell&#45;&gt;Dan Harmon -->
<g id="edge16" class="edge">
<title>Joseph Campbell&#45;&gt;Dan Harmon</title>
<path fill="none" stroke="black" d="M779.1,-577.72C779.23,-577.8 779.37,-577.88 779.5,-577.96"/>
<polygon fill="black" stroke="black" points="775.21,-579.49 785.6,-581.56 778.77,-573.46 775.21,-579.49"/>
</g>
<!-- Senses Fail -->
<g id="node17" class="node">
<title>Senses Fail</title>
<ellipse fill="none" stroke="black" cx="784.04" cy="-639.98" rx="52" ry="18"/>
<text text-anchor="middle" x="784.04" y="-636.28" font-family="Times New Roman,serif" font-size="14.00">Senses Fail</text>
</g>
<!-- Joseph Campbell&#45;&gt;Senses Fail -->
<g id="edge17" class="edge">
<title>Joseph Campbell&#45;&gt;Senses Fail</title>
<path fill="none" stroke="black" d="M758.22,-578.85C762.45,-588.86 767.8,-601.53 772.54,-612.74"/>
<polygon fill="black" stroke="black" points="769.38,-614.26 776.49,-622.11 775.83,-611.54 769.38,-614.26"/>
</g>
<!-- Chuck Palahniuk -->
<g id="node18" class="node">
<title>Chuck Palahniuk</title>
<ellipse fill="none" stroke="black" cx="750.63" cy="-678.75" rx="71.5" ry="18"/>
<text text-anchor="middle" x="750.63" y="-675.05" font-family="Times New Roman,serif" font-size="14.00">Chuck Palahniuk</text>
</g>
<!-- Joseph Campbell&#45;&gt;Chuck Palahniuk -->
<g id="edge18" class="edge">
<title>Joseph Campbell&#45;&gt;Chuck Palahniuk</title>
<path fill="none" stroke="black" d="M750.64,-579.07C750.64,-598.04 750.63,-628.08 750.63,-650.23"/>
<polygon fill="black" stroke="black" points="747.13,-650.38 750.63,-660.38 754.13,-650.38 747.13,-650.38"/>
</g>
<!-- Dave Carter -->
<g id="node19" class="node">
<title>Dave Carter</title>
<ellipse fill="none" stroke="black" cx="712.86" cy="-713.3" rx="54" ry="18"/>
<text text-anchor="middle" x="712.86" y="-709.6" font-family="Times New Roman,serif" font-size="14.00">Dave Carter</text>
</g>
<!-- Joseph Campbell&#45;&gt;Dave Carter -->
<g id="edge19" class="edge">
<title>Joseph Campbell&#45;&gt;Dave Carter</title>
<path fill="none" stroke="black" d="M746.16,-578.99C739.63,-605.34 727.44,-654.52 719.76,-685.5"/>
<polygon fill="black" stroke="black" points="716.35,-684.7 717.34,-695.24 723.14,-686.38 716.35,-684.7"/>
</g>
<!-- Erich Neumann (psychologist)&#45;&gt;Jordan Peterson -->
<g id="edge20" class="edge">
<title>Erich Neumann (psychologist)&#45;&gt;Jordan Peterson</title>
<path fill="none" stroke="black" d="M387.63,-733.91C387.61,-733.91 387.6,-733.9 387.58,-733.9"/>
<polygon fill="black" stroke="black" points="397.82,-731.32 387.54,-733.9 397.19,-738.3 397.82,-731.32"/>
</g>
<!-- Camille Paglia -->
<g id="node20" class="node">
<title>Camille Paglia</title>
<ellipse fill="none" stroke="black" cx="427.86" cy="-809.65" rx="61.99" ry="18"/>
<text text-anchor="middle" x="427.86" y="-805.95" font-family="Times New Roman,serif" font-size="14.00">Camille Paglia</text>
</g>
<!-- Erich Neumann (psychologist)&#45;&gt;Camille Paglia -->
<g id="edge21" class="edge">
<title>Erich Neumann (psychologist)&#45;&gt;Camille Paglia</title>
<path fill="none" stroke="black" d="M429.46,-755.84C429.23,-763.54 428.96,-772.69 428.71,-781.25"/>
<polygon fill="black" stroke="black" points="425.21,-781.15 428.41,-791.25 432.2,-781.36 425.21,-781.15"/>
</g>
<!-- Eugen Bleuler -->
<g id="node21" class="node">
<title>Eugen Bleuler</title>
<ellipse fill="none" stroke="black" cx="153.17" cy="-360.78" rx="60.5" ry="18"/>
<text text-anchor="middle" x="153.17" y="-357.08" font-family="Times New Roman,serif" font-size="14.00">Eugen Bleuler</text>
</g>
<!-- Eugen Bleuler&#45;&gt;Carl Jung -->
<g id="edge22" class="edge">
<title>Eugen Bleuler&#45;&gt;Carl Jung</title>
<path fill="none" stroke="black" d="M170.37,-378.49C220.68,-430.32 367.66,-581.72 425.46,-641.26"/>
<polygon fill="black" stroke="black" points="423.21,-643.97 432.69,-648.71 428.24,-639.1 423.21,-643.97"/>
</g>
<!-- Auguste Forel -->
<g id="node22" class="node">
<title>Auguste Forel</title>
<ellipse fill="none" stroke="black" cx="80.67" cy="-377.84" rx="61.99" ry="18"/>
<text text-anchor="middle" x="80.67" y="-374.14" font-family="Times New Roman,serif" font-size="14.00">Auguste Forel</text>
</g>
<!-- Auguste Forel&#45;&gt;Eugen Bleuler -->
<g id="edge23" class="edge">
<title>Auguste Forel&#45;&gt;Eugen Bleuler</title>
<path fill="none" stroke="black" d="M129.03,-366.46C129.08,-366.45 129.13,-366.44 129.18,-366.43"/>
<polygon fill="black" stroke="black" points="120.41,-372.09 129.34,-366.39 118.8,-365.28 120.41,-372.09"/>
</g>
<!-- Sigmund Freud -->
<g id="node23" class="node">
<title>Sigmund Freud</title>
<ellipse fill="none" stroke="black" cx="294.87" cy="-537.21" rx="67" ry="18"/>
<text text-anchor="middle" x="294.87" y="-533.51" font-family="Times New Roman,serif" font-size="14.00">Sigmund Freud</text>
</g>
<!-- Sigmund Freud&#45;&gt;Carl Jung -->
<g id="edge24" class="edge">
<title>Sigmund Freud&#45;&gt;Carl Jung</title>
<path fill="none" stroke="black" d="M315.68,-554.54C343.06,-577.34 391.24,-617.45 421.62,-642.75"/>
<polygon fill="black" stroke="black" points="419.76,-645.76 429.69,-649.47 424.24,-640.38 419.76,-645.76"/>
</g>
<!-- Sigmund Freud&#45;&gt;Eugen Bleuler -->
<g id="edge25" class="edge">
<title>Sigmund Freud&#45;&gt;Eugen Bleuler</title>
<path fill="none" stroke="black" d="M280.5,-519.33C255.29,-487.94 203.02,-422.84 173.9,-386.59"/>
<polygon fill="black" stroke="black" points="176.36,-384.06 167.37,-378.45 170.9,-388.44 176.36,-384.06"/>
</g>
<!-- Franz Brentano -->
<g id="node24" class="node">
<title>Franz Brentano</title>
<ellipse fill="none" stroke="black" cx="160.72" cy="-310.19" rx="66.5" ry="18"/>
<text text-anchor="middle" x="160.72" y="-306.49" font-family="Times New Roman,serif" font-size="14.00">Franz Brentano</text>
</g>
<!-- Franz Brentano&#45;&gt;Sigmund Freud -->
<g id="edge26" class="edge">
<title>Franz Brentano&#45;&gt;Sigmund Freud</title>
<path fill="none" stroke="black" d="M171.25,-328.01C194.7,-367.7 251.35,-463.57 279.07,-510.47"/>
<polygon fill="black" stroke="black" points="276.11,-512.34 284.21,-519.17 282.13,-508.78 276.11,-512.34"/>
</g>
<!-- Josef Breuer -->
<g id="node25" class="node">
<title>Josef Breuer</title>
<ellipse fill="none" stroke="black" cx="170.69" cy="-277.56" rx="56" ry="18"/>
<text text-anchor="middle" x="170.69" y="-273.86" font-family="Times New Roman,serif" font-size="14.00">Josef Breuer</text>
</g>
<!-- Josef Breuer&#45;&gt;Sigmund Freud -->
<g id="edge27" class="edge">
<title>Josef Breuer&#45;&gt;Sigmund Freud</title>
<path fill="none" stroke="black" d="M179.22,-295.41C200.58,-340.06 256.43,-456.85 281.89,-510.07"/>
<polygon fill="black" stroke="black" points="278.8,-511.73 286.27,-519.24 285.12,-508.71 278.8,-511.73"/>
</g>
<!-- Jean&#45;Martin Charcot -->
<g id="node26" class="node">
<title>Jean&#45;Martin Charcot</title>
<ellipse fill="none" stroke="black" cx="184.44" cy="-246.33" rx="84.5" ry="18"/>
<text text-anchor="middle" x="184.44" y="-242.63" font-family="Times New Roman,serif" font-size="14.00">Jean&#45;Martin Charcot</text>
</g>
<!-- Jean&#45;Martin Charcot&#45;&gt;Sigmund Freud -->
<g id="edge28" class="edge">
<title>Jean&#45;Martin Charcot&#45;&gt;Sigmund Freud</title>
<path fill="none" stroke="black" d="M191.35,-264.53C210.1,-313.91 262.02,-450.68 284.39,-509.61"/>
<polygon fill="black" stroke="black" points="281.14,-510.92 287.96,-519.02 287.69,-508.43 281.14,-510.92"/>
</g>
<!-- Charles Darwin -->
<g id="node27" class="node">
<title>Charles Darwin</title>
<ellipse fill="none" stroke="black" cx="296.92" cy="-386.37" rx="66.5" ry="18"/>
<text text-anchor="middle" x="296.92" y="-382.67" font-family="Times New Roman,serif" font-size="14.00">Charles Darwin</text>
</g>
<!-- Charles Darwin&#45;&gt;Sigmund Freud -->
<g id="edge29" class="edge">
<title>Charles Darwin&#45;&gt;Sigmund Freud</title>
<path fill="none" stroke="black" d="M296.67,-404.57C296.32,-430.5 295.67,-478.34 295.25,-508.92"/>
<polygon fill="black" stroke="black" points="291.75,-508.91 295.12,-518.95 298.75,-509 291.75,-508.91"/>
</g>
<!-- Charles Lyell -->
<g id="node28" class="node">
<title>Charles Lyell</title>
<ellipse fill="none" stroke="black" cx="472.56" cy="-164.21" rx="58" ry="18"/>
<text text-anchor="middle" x="472.56" y="-160.51" font-family="Times New Roman,serif" font-size="14.00">Charles Lyell</text>
</g>
<!-- Charles Lyell&#45;&gt;Charles Darwin -->
<g id="edge30" class="edge">
<title>Charles Lyell&#45;&gt;Charles Darwin</title>
<path fill="none" stroke="black" d="M458.48,-182.01C427.52,-221.18 353.41,-314.92 317.34,-360.55"/>
<polygon fill="black" stroke="black" points="314.52,-358.47 311.06,-368.48 320.01,-362.81 314.52,-358.47"/>
</g>
<!-- James Hutton -->
<g id="node29" class="node">
<title>James Hutton</title>
<ellipse fill="none" stroke="black" cx="432.13" cy="-89.97" rx="60" ry="18"/>
<text text-anchor="middle" x="432.13" y="-86.27" font-family="Times New Roman,serif" font-size="14.00">James Hutton</text>
</g>
<!-- James Hutton&#45;&gt;Charles Lyell -->
<g id="edge31" class="edge">
<title>James Hutton&#45;&gt;Charles Lyell</title>
<path fill="none" stroke="black" d="M441.92,-107.94C446.73,-116.79 452.64,-127.63 457.97,-137.43"/>
<polygon fill="black" stroke="black" points="455.01,-139.29 462.86,-146.4 461.15,-135.95 455.01,-139.29"/>
</g>
<!-- John Playfair -->
<g id="node30" class="node">
<title>John Playfair</title>
<ellipse fill="none" stroke="black" cx="466.24" cy="-90.98" rx="58" ry="18"/>
<text text-anchor="middle" x="466.24" y="-87.28" font-family="Times New Roman,serif" font-size="14.00">John Playfair</text>
</g>
<!-- James Hutton&#45;&gt;John Playfair -->
<g id="edge32" class="edge">
<title>James Hutton&#45;&gt;John Playfair</title>
<path fill="none" stroke="black" d="M466.14,-90.98C466.16,-90.98 466.17,-90.98 466.18,-90.98"/>
<polygon fill="black" stroke="black" points="456.1,-94.15 466.21,-90.98 456.33,-87.15 456.1,-94.15"/>
</g>
<!-- John Playfair&#45;&gt;Charles Lyell -->
<g id="edge33" class="edge">
<title>John Playfair&#45;&gt;Charles Lyell</title>
<path fill="none" stroke="black" d="M467.8,-109.08C468.5,-117.18 469.34,-126.92 470.12,-135.94"/>
<polygon fill="black" stroke="black" points="466.64,-136.4 470.99,-146.06 473.62,-135.8 466.64,-136.4"/>
</g>
<!-- John Walker (natural historian) -->
<g id="node31" class="node">
<title>John Walker (natural historian)</title>
<ellipse fill="none" stroke="black" cx="430" cy="-18" rx="121.58" ry="18"/>
<text text-anchor="middle" x="430" y="-14.3" font-family="Times New Roman,serif" font-size="14.00">John Walker (natural historian)</text>
</g>
<!-- John Walker (natural historian)&#45;&gt;James Hutton -->
<g id="edge34" class="edge">
<title>John Walker (natural historian)&#45;&gt;James Hutton</title>
<path fill="none" stroke="black" d="M430.54,-36.16C430.76,-43.86 431.04,-53.01 431.29,-61.56"/>
<polygon fill="black" stroke="black" points="427.79,-61.67 431.59,-71.56 434.79,-61.46 427.79,-61.67"/>
</g>
<!-- Jean&#45;Baptiste Lamarck -->
<g id="node32" class="node">
<title>Jean&#45;Baptiste Lamarck</title>
<ellipse fill="none" stroke="black" cx="499.99" cy="-96.02" rx="93" ry="18"/>
<text text-anchor="middle" x="499.99" y="-92.32" font-family="Times New Roman,serif" font-size="14.00">Jean&#45;Baptiste Lamarck</text>
</g>
<!-- Jean&#45;Baptiste Lamarck&#45;&gt;Charles Lyell -->
<g id="edge35" class="edge">
<title>Jean&#45;Baptiste Lamarck&#45;&gt;Charles Lyell</title>
<path fill="none" stroke="black" d="M492.64,-114.29C489.9,-121.09 486.73,-128.98 483.73,-136.44"/>
<polygon fill="black" stroke="black" points="480.41,-135.3 479.93,-145.88 486.91,-137.91 480.41,-135.3"/>
</g>
<!-- William Buckland -->
<g id="node33" class="node">
<title>William Buckland</title>
<ellipse fill="none" stroke="black" cx="532.9" cy="-105.01" rx="74.99" ry="18"/>
<text text-anchor="middle" x="532.9" y="-101.31" font-family="Times New Roman,serif" font-size="14.00">William Buckland</text>
</g>
<!-- William Buckland&#45;&gt;Charles Lyell -->
<g id="edge36" class="edge">
<title>William Buckland&#45;&gt;Charles Lyell</title>
<path fill="none" stroke="black" d="M514.8,-122.77C509.33,-128.14 503.23,-134.12 497.4,-139.84"/>
<polygon fill="black" stroke="black" points="494.92,-137.37 490.24,-146.87 499.82,-142.36 494.92,-137.37"/>
</g>
<!-- Alexander von Humboldt -->
<g id="node34" class="node">
<title>Alexander von Humboldt</title>
<ellipse fill="none" stroke="black" cx="533.56" cy="-182.84" rx="102.88" ry="18"/>
<text text-anchor="middle" x="533.56" y="-179.14" font-family="Times New Roman,serif" font-size="14.00">Alexander von Humboldt</text>
</g>
<!-- Alexander von Humboldt&#45;&gt;Charles Darwin -->
<g id="edge37" class="edge">
<title>Alexander von Humboldt&#45;&gt;Charles Darwin</title>
<path fill="none" stroke="black" d="M512.97,-200.54C470.45,-237.11 372.9,-321.02 324.79,-362.4"/>
<polygon fill="black" stroke="black" points="322.25,-359.97 316.95,-369.14 326.82,-365.27 322.25,-359.97"/>
</g>
<!-- Friedrich Wilhelm Joseph Schelling -->
<g id="node35" class="node">
<title>Friedrich Wilhelm Joseph Schelling</title>
<ellipse fill="none" stroke="black" cx="564.52" cy="-117.84" rx="138.5" ry="18"/>
<text text-anchor="middle" x="564.52" y="-114.14" font-family="Times New Roman,serif" font-size="14.00">Friedrich Wilhelm Joseph Schelling</text>
</g>
<!-- Friedrich Wilhelm Joseph Schelling&#45;&gt;Alexander von Humboldt -->
<g id="edge38" class="edge">
<title>Friedrich Wilhelm Joseph Schelling&#45;&gt;Alexander von Humboldt</title>
<path fill="none" stroke="black" d="M555.9,-135.94C553.01,-142 549.73,-148.89 546.58,-155.5"/>
<polygon fill="black" stroke="black" points="543.28,-154.29 542.14,-164.83 549.6,-157.31 543.28,-154.29"/>
</g>
<!-- John Herschel -->
<g id="node36" class="node">
<title>John Herschel</title>
<ellipse fill="none" stroke="black" cx="566.59" cy="-202.34" rx="61.99" ry="18"/>
<text text-anchor="middle" x="566.59" y="-198.64" font-family="Times New Roman,serif" font-size="14.00">John Herschel</text>
</g>
<!-- John Herschel&#45;&gt;Charles Darwin -->
<g id="edge39" class="edge">
<title>John Herschel&#45;&gt;Charles Darwin</title>
<path fill="none" stroke="black" d="M542.18,-219C493.57,-252.17 384.63,-326.52 329.78,-363.94"/>
<polygon fill="black" stroke="black" points="327.75,-361.09 321.46,-369.62 331.7,-366.88 327.75,-361.09"/>
</g>
<!-- William Herschel -->
<g id="node37" class="node">
<title>William Herschel</title>
<ellipse fill="none" stroke="black" cx="594.41" cy="-134.31" rx="72.29" ry="18"/>
<text text-anchor="middle" x="594.41" y="-130.61" font-family="Times New Roman,serif" font-size="14.00">William Herschel</text>
</g>
<!-- William Herschel&#45;&gt;John Herschel -->
<g id="edge40" class="edge">
<title>William Herschel&#45;&gt;John Herschel</title>
<path fill="none" stroke="black" d="M586.95,-152.54C584.18,-159.33 580.96,-167.19 577.92,-174.64"/>
<polygon fill="black" stroke="black" points="574.61,-173.48 574.06,-184.06 581.09,-176.13 574.61,-173.48"/>
</g>
<!-- Caroline Herschel -->
<g id="node38" class="node">
<title>Caroline Herschel</title>
<ellipse fill="none" stroke="black" cx="622.13" cy="-154.2" rx="75.5" ry="18"/>
<text text-anchor="middle" x="622.13" y="-150.5" font-family="Times New Roman,serif" font-size="14.00">Caroline Herschel</text>
</g>
<!-- Caroline Herschel&#45;&gt;John Herschel -->
<g id="edge41" class="edge">
<title>Caroline Herschel&#45;&gt;John Herschel</title>
<path fill="none" stroke="black" d="M602.08,-171.58C599.53,-173.79 596.89,-176.08 594.25,-178.37"/>
<polygon fill="black" stroke="black" points="591.69,-175.96 586.43,-185.15 596.27,-181.25 591.69,-175.96"/>
</g>
<!-- Thomas Robert Malthus -->
<g id="node39" class="node">
<title>Thomas Robert Malthus</title>
<ellipse fill="none" stroke="black" cx="632.83" cy="-279.21" rx="99.5" ry="18"/>
<text text-anchor="middle" x="632.83" y="-275.51" font-family="Times New Roman,serif" font-size="14.00">Thomas Robert Malthus</text>
</g>
<!-- Thomas Robert Malthus&#45;&gt;Charles Darwin -->
<g id="edge42" class="edge">
<title>Thomas Robert Malthus&#45;&gt;Charles Darwin</title>
<path fill="none" stroke="black" d="M583.63,-294.91C521.27,-314.8 414.2,-348.96 350.03,-369.43"/>
<polygon fill="black" stroke="black" points="348.58,-366.22 340.12,-372.59 350.71,-372.89 348.58,-366.22"/>
</g>
<!-- David Ricardo -->
<g id="node40" class="node">
<title>David Ricardo</title>
<ellipse fill="none" stroke="black" cx="658.83" cy="-189.83" rx="63.89" ry="18"/>
<text text-anchor="middle" x="658.83" y="-186.13" font-family="Times New Roman,serif" font-size="14.00">David Ricardo</text>
</g>
<!-- David Ricardo&#45;&gt;Thomas Robert Malthus -->
<g id="edge43" class="edge">
<title>David Ricardo&#45;&gt;Thomas Robert Malthus</title>
<path fill="none" stroke="black" d="M653.57,-207.92C649.94,-220.4 645.04,-237.22 640.92,-251.4"/>
<polygon fill="black" stroke="black" points="637.52,-250.57 638.08,-261.15 644.24,-252.52 637.52,-250.57"/>
</g>
<!-- Adam Smith -->
<g id="node41" class="node">
<title>Adam Smith</title>
<ellipse fill="none" stroke="black" cx="698.97" cy="-127.08" rx="56" ry="18"/>
<text text-anchor="middle" x="698.97" y="-123.38" font-family="Times New Roman,serif" font-size="14.00">Adam Smith</text>
</g>
<!-- Adam Smith&#45;&gt;David Ricardo -->
<g id="edge44" class="edge">
<title>Adam Smith&#45;&gt;David Ricardo</title>
<path fill="none" stroke="black" d="M687.57,-144.9C683.96,-150.54 679.88,-156.92 675.96,-163.05"/>
<polygon fill="black" stroke="black" points="672.83,-161.44 670.39,-171.75 678.73,-165.22 672.83,-161.44"/>
</g>
<!-- Jean Charles Léonard de Sismondi -->
<g id="node42" class="node">
<title>Jean Charles Léonard de Sismondi</title>
<ellipse fill="none" stroke="black" cx="710.64" cy="-277.56" rx="136.5" ry="18"/>
<text text-anchor="middle" x="710.64" y="-273.86" font-family="Times New Roman,serif" font-size="14.00">Jean Charles Léonard de Sismondi</text>
</g>
<!-- Adam Smith&#45;&gt;Jean Charles Léonard de Sismondi -->
<g id="edge45" class="edge">
<title>Adam Smith&#45;&gt;Jean Charles Léonard de Sismondi</title>
<path fill="none" stroke="black" d="M700.38,-145.23C702.38,-171.11 706.09,-218.83 708.45,-249.33"/>
<polygon fill="black" stroke="black" points="704.97,-249.65 709.23,-259.34 711.95,-249.1 704.97,-249.65"/>
</g>
<!-- Jean Charles Léonard de Sismondi&#45;&gt;Thomas Robert Malthus -->
<g id="edge46" class="edge">
<title>Jean Charles Léonard de Sismondi&#45;&gt;Thomas Robert Malthus</title>
<path fill="none" stroke="black" d="M632.89,-279.21C632.88,-279.21 632.87,-279.21 632.86,-279.21"/>
<polygon fill="black" stroke="black" points="642.75,-275.44 632.85,-279.21 642.94,-282.44 642.75,-275.44"/>
</g>
<!-- Jeremy Bentham -->
<g id="node43" class="node">
<title>Jeremy Bentham</title>
<ellipse fill="none" stroke="black" cx="726.81" cy="-159.39" rx="70.39" ry="18"/>
<text text-anchor="middle" x="726.81" y="-155.69" font-family="Times New Roman,serif" font-size="14.00">Jeremy Bentham</text>
</g>
<!-- Jeremy Bentham&#45;&gt;David Ricardo -->
<g id="edge47" class="edge">
<title>Jeremy Bentham&#45;&gt;David Ricardo</title>
<path fill="none" stroke="black" d="M691.63,-175.15C691.56,-175.18 691.5,-175.2 691.43,-175.23"/>
<polygon fill="black" stroke="black" points="698.93,-168.04 691.24,-175.32 701.8,-174.43 698.93,-168.04"/>
</g>
<!-- Adam Ferguson -->
<g id="node44" class="node">
<title>Adam Ferguson</title>
<ellipse fill="none" stroke="black" cx="750.64" cy="-194.77" rx="69.59" ry="18"/>
<text text-anchor="middle" x="750.64" y="-191.07" font-family="Times New Roman,serif" font-size="14.00">Adam Ferguson</text>
</g>
<!-- Adam Ferguson&#45;&gt;Jean Charles Léonard de Sismondi -->
<g id="edge48" class="edge">
<title>Adam Ferguson&#45;&gt;Jean Charles Léonard de Sismondi</title>
<path fill="none" stroke="black" d="M741.96,-212.73C736.7,-223.62 729.89,-237.72 723.96,-249.99"/>
<polygon fill="black" stroke="black" points="720.64,-248.82 719.44,-259.34 726.94,-251.86 720.64,-248.82"/>
</g>
<!-- Jean&#45;Louis de Lolme -->
<g id="node45" class="node">
<title>Jean&#45;Louis de Lolme</title>
<ellipse fill="none" stroke="black" cx="770.12" cy="-232.72" rx="86.5" ry="18"/>
<text text-anchor="middle" x="770.12" y="-229.02" font-family="Times New Roman,serif" font-size="14.00">Jean&#45;Louis de Lolme</text>
</g>
<!-- Jean&#45;Louis de Lolme&#45;&gt;Jean Charles Léonard de Sismondi -->
<g id="edge49" class="edge">
<title>Jean&#45;Louis de Lolme&#45;&gt;Jean Charles Léonard de Sismondi</title>
<path fill="none" stroke="black" d="M746.95,-250.18C745.52,-251.27 744.06,-252.36 742.6,-253.47"/>
<polygon fill="black" stroke="black" points="740.11,-250.96 734.23,-259.77 744.33,-256.55 740.11,-250.96"/>
</g>
<!-- Niccolò Machiavelli -->
<g id="node46" class="node">
<title>Niccolò Machiavelli</title>
<ellipse fill="none" stroke="black" cx="784.97" cy="-272.7" rx="82.59" ry="18"/>
<text text-anchor="middle" x="784.97" y="-269" font-family="Times New Roman,serif" font-size="14.00">Niccolò Machiavelli</text>
</g>
<!-- Niccolò Machiavelli&#45;&gt;Jean Charles Léonard de Sismondi -->
<g id="edge50" class="edge">
<title>Niccolò Machiavelli&#45;&gt;Jean Charles Léonard de Sismondi</title>
<path fill="none" stroke="black" d="M710.7,-277.56C710.69,-277.56 710.68,-277.56 710.67,-277.56"/>
<polygon fill="black" stroke="black" points="720.39,-273.36 710.66,-277.56 720.88,-280.34 720.39,-273.36"/>
</g>
<!-- Montesquieu -->
<g id="node47" class="node">
<title>Montesquieu</title>
<ellipse fill="none" stroke="black" cx="794.99" cy="-314.16" rx="58" ry="18"/>
<text text-anchor="middle" x="794.99" y="-310.46" font-family="Times New Roman,serif" font-size="14.00">Montesquieu</text>
</g>
<!-- Montesquieu&#45;&gt;Jean Charles Léonard de Sismondi -->
<g id="edge51" class="edge">
<title>Montesquieu&#45;&gt;Jean Charles Léonard de Sismondi</title>
<path fill="none" stroke="black" d="M761.17,-299.49C760.73,-299.3 760.3,-299.11 759.86,-298.92"/>
<polygon fill="black" stroke="black" points="761.15,-295.66 750.58,-294.89 758.36,-302.08 761.15,-295.66"/>
</g>
<!-- Gilbert White -->
<g id="node48" class="node">
<title>Gilbert White</title>
<ellipse fill="none" stroke="black" cx="368.79" cy="-382.11" rx="60" ry="18"/>
<text text-anchor="middle" x="368.79" y="-378.41" font-family="Times New Roman,serif" font-size="14.00">Gilbert White</text>
</g>
<!-- Gilbert White&#45;&gt;Charles Darwin -->
<g id="edge52" class="edge">
<title>Gilbert White&#45;&gt;Charles Darwin</title>
<path fill="none" stroke="black" d="M309.77,-385.61C309.71,-385.61 309.65,-385.62 309.59,-385.62"/>
<polygon fill="black" stroke="black" points="319.19,-381.54 309.41,-385.63 319.6,-388.53 319.19,-381.54"/>
</g>
<!-- John Ray -->
<g id="node49" class="node">
<title>John Ray</title>
<ellipse fill="none" stroke="black" cx="440.67" cy="-377.84" rx="45" ry="18"/>
<text text-anchor="middle" x="440.67" y="-374.14" font-family="Times New Roman,serif" font-size="14.00">John Ray</text>
</g>
<!-- John Ray&#45;&gt;Gilbert White -->
<g id="edge53" class="edge">
<title>John Ray&#45;&gt;Gilbert White</title>
<path fill="none" stroke="black" d="M395.96,-380.49C395.91,-380.5 395.85,-380.5 395.79,-380.5"/>
<polygon fill="black" stroke="black" points="405.4,-376.42 395.62,-380.51 405.81,-383.41 405.4,-376.42"/>
</g>
<!-- William Derham -->
<g id="node50" class="node">
<title>William Derham</title>
<ellipse fill="none" stroke="black" cx="512.54" cy="-373.58" rx="69" ry="18"/>
<text text-anchor="middle" x="512.54" y="-369.88" font-family="Times New Roman,serif" font-size="14.00">William Derham</text>
</g>
<!-- John Ray&#45;&gt;William Derham -->
<g id="edge54" class="edge">
<title>John Ray&#45;&gt;William Derham</title>
<path fill="none" stroke="black" d="M485.37,-375.19C485.42,-375.19 485.48,-375.18 485.54,-375.18"/>
<polygon fill="black" stroke="black" points="475.94,-379.26 485.71,-375.17 475.52,-372.27 475.94,-379.26"/>
</g>
<!-- William Derham&#45;&gt;Gilbert White -->
<g id="edge55" class="edge">
<title>William Derham&#45;&gt;Gilbert White</title>
<path fill="none" stroke="black" d="M444.88,-377.59C442.57,-377.73 440.25,-377.87 437.94,-378"/>
<polygon fill="black" stroke="black" points="437.65,-374.51 427.87,-378.6 438.06,-381.5 437.65,-374.51"/>
</g>
<!-- Gustav Fechner -->
<g id="node51" class="node">
<title>Gustav Fechner</title>
<ellipse fill="none" stroke="black" cx="201.8" cy="-216.95" rx="68.49" ry="18"/>
<text text-anchor="middle" x="201.8" y="-213.25" font-family="Times New Roman,serif" font-size="14.00">Gustav Fechner</text>
</g>
<!-- Gustav Fechner&#45;&gt;Sigmund Freud -->
<g id="edge56" class="edge">
<title>Gustav Fechner&#45;&gt;Sigmund Freud</title>
<path fill="none" stroke="black" d="M207.07,-235.09C222.55,-288.36 267.97,-444.65 286.68,-509.02"/>
<polygon fill="black" stroke="black" points="283.39,-510.25 289.54,-518.88 290.11,-508.3 283.39,-510.25"/>
</g>
<!-- Immanuel Kant -->
<g id="node52" class="node">
<title>Immanuel Kant</title>
<ellipse fill="none" stroke="black" cx="266.86" cy="-693.11" rx="65.79" ry="18"/>
<text text-anchor="middle" x="266.86" y="-689.41" font-family="Times New Roman,serif" font-size="14.00">Immanuel Kant</text>
</g>
<!-- Immanuel Kant&#45;&gt;Carl Jung -->
<g id="edge57" class="edge">
<title>Immanuel Kant&#45;&gt;Carl Jung</title>
<path fill="none" stroke="black" d="M324.55,-684.44C347.72,-680.96 374.23,-676.98 396.83,-673.58"/>
<polygon fill="black" stroke="black" points="397.54,-677.02 406.91,-672.07 396.5,-670.09 397.54,-677.02"/>
</g>
<!-- Immanuel Kant&#45;&gt;Gustav Fechner -->
<g id="edge58" class="edge">
<title>Immanuel Kant&#45;&gt;Gustav Fechner</title>
<path fill="none" stroke="black" d="M264.39,-675.02C254.5,-602.62 217.7,-333.32 205.65,-245.12"/>
<polygon fill="black" stroke="black" points="209.09,-244.49 204.27,-235.05 202.16,-245.44 209.09,-244.49"/>
</g>
<!-- Wilhelm Fliess -->
<g id="node53" class="node">
<title>Wilhelm Fliess</title>
<ellipse fill="none" stroke="black" cx="222.5" cy="-189.83" rx="63.89" ry="18"/>
<text text-anchor="middle" x="222.5" y="-186.13" font-family="Times New Roman,serif" font-size="14.00">Wilhelm Fliess</text>
</g>
<!-- Wilhelm Fliess&#45;&gt;Sigmund Freud -->
<g id="edge59" class="edge">
<title>Wilhelm Fliess&#45;&gt;Sigmund Freud</title>
<path fill="none" stroke="black" d="M226.29,-208.02C238.16,-265 274.69,-440.34 289.02,-509.12"/>
<polygon fill="black" stroke="black" points="285.65,-510.13 291.12,-519.21 292.51,-508.7 285.65,-510.13"/>
</g>
<!-- Karl Robert Eduard von Hartmann -->
<g id="node54" class="node">
<title>Karl Robert Eduard von Hartmann</title>
<ellipse fill="none" stroke="black" cx="246.27" cy="-165.35" rx="136" ry="18"/>
<text text-anchor="middle" x="246.27" y="-161.65" font-family="Times New Roman,serif" font-size="14.00">Karl Robert Eduard von Hartmann</text>
</g>
<!-- Karl Robert Eduard von Hartmann&#45;&gt;Carl Jung -->
<g id="edge60" class="edge">
<title>Karl Robert Eduard von Hartmann&#45;&gt;Carl Jung</title>
<path fill="none" stroke="black" d="M253.61,-183.45C284.19,-258.85 401.55,-548.23 438.2,-638.6"/>
<polygon fill="black" stroke="black" points="434.97,-639.95 441.97,-647.9 441.46,-637.32 434.97,-639.95"/>
</g>
<!-- Karl Robert Eduard von Hartmann&#45;&gt;Sigmund Freud -->
<g id="edge61" class="edge">
<title>Karl Robert Eduard von Hartmann&#45;&gt;Sigmund Freud</title>
<path fill="none" stroke="black" d="M248.65,-183.53C256.5,-243.59 281.63,-435.88 291.16,-508.81"/>
<polygon fill="black" stroke="black" points="287.73,-509.6 292.5,-519.06 294.67,-508.69 287.73,-509.6"/>
</g>
<!-- Johann Friedrich Herbart -->
<g id="node55" class="node">
<title>Johann Friedrich Herbart</title>
<ellipse fill="none" stroke="black" cx="272.77" cy="-143.85" rx="100.98" ry="18"/>
<text text-anchor="middle" x="272.77" y="-140.15" font-family="Times New Roman,serif" font-size="14.00">Johann Friedrich Herbart</text>
</g>
<!-- Johann Friedrich Herbart&#45;&gt;Sigmund Freud -->
<g id="edge62" class="edge">
<title>Johann Friedrich Herbart&#45;&gt;Sigmund Freud</title>
<path fill="none" stroke="black" d="M273.79,-162.03C277.31,-224.68 288.95,-431.89 293.25,-508.45"/>
<polygon fill="black" stroke="black" points="289.78,-508.98 293.83,-518.77 296.77,-508.59 289.78,-508.98"/>
</g>
<!-- Friedrich Nietzsche -->
<g id="node56" class="node">
<title>Friedrich Nietzsche</title>
<ellipse fill="none" stroke="black" cx="301.62" cy="-125.63" rx="81.49" ry="18"/>
<text text-anchor="middle" x="301.62" y="-121.93" font-family="Times New Roman,serif" font-size="14.00">Friedrich Nietzsche</text>
</g>
<!-- Friedrich Nietzsche&#45;&gt;Carl Jung -->
<g id="edge63" class="edge">
<title>Friedrich Nietzsche&#45;&gt;Carl Jung</title>
<path fill="none" stroke="black" d="M306.53,-143.6C328.18,-222.81 415.16,-541.15 441.56,-637.77"/>
<polygon fill="black" stroke="black" points="438.26,-638.95 444.27,-647.68 445.01,-637.11 438.26,-638.95"/>
</g>
<!-- Friedrich Nietzsche&#45;&gt;Sigmund Freud -->
<g id="edge64" class="edge">
<title>Friedrich Nietzsche&#45;&gt;Sigmund Freud</title>
<path fill="none" stroke="black" d="M301.32,-143.85C300.26,-208.93 296.62,-430.25 295.33,-509.06"/>
<polygon fill="black" stroke="black" points="291.83,-509.15 295.16,-519.21 298.83,-509.27 291.83,-509.15"/>
</g>
<!-- Plato -->
<g id="node57" class="node">
<title>Plato</title>
<ellipse fill="none" stroke="black" cx="332.43" cy="-110.96" rx="29.5" ry="18"/>
<text text-anchor="middle" x="332.43" y="-107.26" font-family="Times New Roman,serif" font-size="14.00">Plato</text>
</g>
<!-- Plato&#45;&gt;Sigmund Freud -->
<g id="edge65" class="edge">
<title>Plato&#45;&gt;Sigmund Freud</title>
<path fill="none" stroke="black" d="M330.84,-129C324.97,-195.57 304.51,-427.76 297.36,-508.94"/>
<polygon fill="black" stroke="black" points="293.87,-508.66 296.48,-518.93 300.85,-509.27 293.87,-508.66"/>
</g>
<!-- Arthur Schopenhauer -->
<g id="node58" class="node">
<title>Arthur Schopenhauer</title>
<ellipse fill="none" stroke="black" cx="364.75" cy="-100.03" rx="88.5" ry="18"/>
<text text-anchor="middle" x="364.75" y="-96.33" font-family="Times New Roman,serif" font-size="14.00">Arthur Schopenhauer</text>
</g>
<!-- Arthur Schopenhauer&#45;&gt;Carl Jung -->
<g id="edge66" class="edge">
<title>Arthur Schopenhauer&#45;&gt;Carl Jung</title>
<path fill="none" stroke="black" d="M367.47,-118.21C379.74,-200.41 430.08,-537.64 445.01,-637.64"/>
<polygon fill="black" stroke="black" points="441.56,-638.23 446.5,-647.6 448.48,-637.2 441.56,-638.23"/>
</g>
<!-- Arthur Schopenhauer&#45;&gt;Sigmund Freud -->
<g id="edge67" class="edge">
<title>Arthur Schopenhauer&#45;&gt;Sigmund Freud</title>
<path fill="none" stroke="black" d="M361.84,-118.26C350.95,-186.38 312.6,-426.3 299.38,-508.97"/>
<polygon fill="black" stroke="black" points="295.92,-508.48 297.8,-518.91 302.83,-509.59 295.92,-508.48"/>
</g>
<!-- William Shakespeare -->
<g id="node59" class="node">
<title>William Shakespeare</title>
<ellipse fill="none" stroke="black" cx="398.14" cy="-93" rx="86" ry="18"/>
<text text-anchor="middle" x="398.14" y="-89.3" font-family="Times New Roman,serif" font-size="14.00">William Shakespeare</text>
</g>
<!-- William Shakespeare&#45;&gt;Sigmund Freud -->
<g id="edge68" class="edge">
<title>William Shakespeare&#45;&gt;Sigmund Freud</title>
<path fill="none" stroke="black" d="M393.9,-111.24C377.85,-180.29 320.75,-425.9 301.36,-509.28"/>
<polygon fill="black" stroke="black" points="297.94,-508.53 299.09,-519.07 304.76,-510.12 297.94,-508.53"/>
</g>
<!-- Gottlieb Burckhardt -->
<g id="node60" class="node">
<title>Gottlieb Burckhardt</title>
<ellipse fill="none" stroke="black" cx="83.19" cy="-335.26" rx="83.39" ry="18"/>
<text text-anchor="middle" x="83.19" y="-331.56" font-family="Times New Roman,serif" font-size="14.00">Gottlieb Burckhardt</text>
</g>
<!-- Gottlieb Burckhardt&#45;&gt;Eugen Bleuler -->
<g id="edge69" class="edge">
<title>Gottlieb Burckhardt&#45;&gt;Eugen Bleuler</title>
<path fill="none" stroke="black" d="M125.92,-350.84C125.97,-350.86 126.03,-350.88 126.09,-350.9"/>
<polygon fill="black" stroke="black" points="115.66,-350.83 126.26,-350.97 118.06,-344.25 115.66,-350.83"/>
</g>
<!-- Carl Gustav Carus -->
<g id="node61" class="node">
<title>Carl Gustav Carus</title>
<ellipse fill="none" stroke="black" cx="230.79" cy="-670.34" rx="78" ry="18"/>
<text text-anchor="middle" x="230.79" y="-666.64" font-family="Times New Roman,serif" font-size="14.00">Carl Gustav Carus</text>
</g>
<!-- Carl Gustav Carus&#45;&gt;Carl Jung -->
<g id="edge70" class="edge">
<title>Carl Gustav Carus&#45;&gt;Carl Jung</title>
<path fill="none" stroke="black" d="M308.72,-668.69C336.82,-668.09 367.94,-667.43 393.73,-666.89"/>
<polygon fill="black" stroke="black" points="394.15,-670.38 404.07,-666.67 394,-663.38 394.15,-670.38"/>
</g>
<!-- Théodore Flournoy -->
<g id="node62" class="node">
<title>Théodore Flournoy</title>
<ellipse fill="none" stroke="black" cx="197.67" cy="-643.46" rx="82" ry="18"/>
<text text-anchor="middle" x="197.67" y="-639.76" font-family="Times New Roman,serif" font-size="14.00">Théodore Flournoy</text>
</g>
<!-- Théodore Flournoy&#45;&gt;Carl Jung -->
<g id="edge71" class="edge">
<title>Théodore Flournoy&#45;&gt;Carl Jung</title>
<path fill="none" stroke="black" d="M273.82,-650.2C312.91,-653.66 359.61,-657.79 394.99,-660.92"/>
<polygon fill="black" stroke="black" points="394.84,-664.42 405.11,-661.81 395.46,-657.45 394.84,-664.42"/>
</g>
<!-- Johann Wolfgang von Goethe -->
<g id="node63" class="node">
<title>Johann Wolfgang von Goethe</title>
<ellipse fill="none" stroke="black" cx="167.96" cy="-612.86" rx="119" ry="18"/>
<text text-anchor="middle" x="167.96" y="-609.16" font-family="Times New Roman,serif" font-size="14.00">Johann Wolfgang von Goethe</text>
</g>
<!-- Johann Wolfgang von Goethe&#45;&gt;Carl Jung -->
<g id="edge72" class="edge">
<title>Johann Wolfgang von Goethe&#45;&gt;Carl Jung</title>
<path fill="none" stroke="black" d="M242.59,-626.88C291.7,-636.11 354.71,-647.96 398.16,-656.12"/>
<polygon fill="black" stroke="black" points="397.74,-659.6 408.21,-658.01 399.03,-652.73 397.74,-659.6"/>
</g>
<!-- Heraclius -->
<g id="node64" class="node">
<title>Heraclius</title>
<ellipse fill="none" stroke="black" cx="142.08" cy="-578.95" rx="44.39" ry="18"/>
<text text-anchor="middle" x="142.08" y="-575.25" font-family="Times New Roman,serif" font-size="14.00">Heraclius</text>
</g>
<!-- Heraclius&#45;&gt;Carl Jung -->
<g id="edge73" class="edge">
<title>Heraclius&#45;&gt;Carl Jung</title>
<path fill="none" stroke="black" d="M178.52,-589.25C234.36,-605.02 341.07,-635.17 402.51,-652.53"/>
<polygon fill="black" stroke="black" points="401.76,-655.95 412.33,-655.3 403.66,-649.21 401.76,-655.95"/>
</g>
<!-- William James -->
<g id="node65" class="node">
<title>William James</title>
<ellipse fill="none" stroke="black" cx="120.39" cy="-542.23" rx="62.5" ry="18"/>
<text text-anchor="middle" x="120.39" y="-538.53" font-family="Times New Roman,serif" font-size="14.00">William James</text>
</g>
<!-- William James&#45;&gt;Carl Jung -->
<g id="edge74" class="edge">
<title>William James&#45;&gt;Carl Jung</title>
<path fill="none" stroke="black" d="M158.43,-556.51C220.17,-579.7 341.8,-625.38 406.45,-649.66"/>
<polygon fill="black" stroke="black" points="405.35,-652.98 415.94,-653.22 407.81,-646.43 405.35,-652.98"/>
</g>
<!-- Pierre Janet -->
<g id="node66" class="node">
<title>Pierre Janet</title>
<ellipse fill="none" stroke="black" cx="103.19" cy="-503.19" rx="52" ry="18"/>
<text text-anchor="middle" x="103.19" y="-499.49" font-family="Times New Roman,serif" font-size="14.00">Pierre Janet</text>
</g>
<!-- Pierre Janet&#45;&gt;Carl Jung -->
<g id="edge75" class="edge">
<title>Pierre Janet&#45;&gt;Carl Jung</title>
<path fill="none" stroke="black" d="M134.2,-517.76C197.42,-547.45 341.03,-614.91 410.34,-647.46"/>
<polygon fill="black" stroke="black" points="409.07,-650.74 419.61,-651.82 412.05,-644.4 409.07,-650.74"/>
</g>
<!-- Meister Eckhart -->
<g id="node67" class="node">
<title>Meister Eckhart</title>
<ellipse fill="none" stroke="black" cx="90.74" cy="-462.4" rx="67.69" ry="18"/>
<text text-anchor="middle" x="90.74" y="-458.7" font-family="Times New Roman,serif" font-size="14.00">Meister Eckhart</text>
</g>
<!-- Meister Eckhart&#45;&gt;Carl Jung -->
<g id="edge76" class="edge">
<title>Meister Eckhart&#45;&gt;Carl Jung</title>
<path fill="none" stroke="black" d="M119.47,-478.7C184.66,-515.67 343.59,-605.81 414.29,-645.92"/>
<polygon fill="black" stroke="black" points="412.84,-649.12 423.26,-651.01 416.29,-643.03 412.84,-649.12"/>
</g>
<!-- Friedrich Schiller -->
<g id="node68" class="node">
<title>Friedrich Schiller</title>
<ellipse fill="none" stroke="black" cx="83.19" cy="-420.42" rx="73" ry="18"/>
<text text-anchor="middle" x="83.19" y="-416.72" font-family="Times New Roman,serif" font-size="14.00">Friedrich Schiller</text>
</g>
<!-- Friedrich Schiller&#45;&gt;Carl Jung -->
<g id="edge77" class="edge">
<title>Friedrich Schiller&#45;&gt;Carl Jung</title>
<path fill="none" stroke="black" d="M108.64,-437.47C173.62,-481.03 345.6,-596.29 417.21,-644.28"/>
<polygon fill="black" stroke="black" points="415.57,-647.39 425.83,-650.05 419.47,-641.58 415.57,-647.39"/>
</g>
</g>
</svg>
